<?xml version="1.0" encoding="utf-8" standalone="no"?>
<!DOCTYPE svg PUBLIC "-//W3C//DTD SVG 1.1//EN"
  "http://www.w3.org/Graphics/SVG/1.1/DTD/svg11.dtd">
<svg height="674.159375pt" version="1.1" viewBox="0 0 707.348853 674.159375" width="707.348853pt" xmlns="http://www.w3.org/2000/svg" xmlns:xlink="http://www.w3.org/1999/xlink">
 <metadata>
  <rdf:RDF xmlns:cc="http://creativecommons.org/ns#" xmlns:dc="http://purl.org/dc/elements/1.1/" xmlns:rdf="http://www.w3.org/1999/02/22-rdf-syntax-ns#">
   <cc:Work>
    <dc:type rdf:resource="http://purl.org/dc/dcmitype/StillImage"/>
    <dc:date>2021-07-24T14:50:56.791114</dc:date>
    <dc:format>image/svg+xml</dc:format>
    <dc:creator>
     <cc:Agent>
      <dc:title>Matplotlib v3.4.2, https://matplotlib.org/</dc:title>
     </cc:Agent>
    </dc:creator>
   </cc:Work>
  </rdf:RDF>
 </metadata>
 <defs>
  <style type="text/css">*{stroke-linecap:butt;stroke-linejoin:round;}</style>
 </defs>
 <g id="figure_1">
  <g id="patch_1">
   <path d="M 0 674.159375 
L 707.348853 674.159375 
L 707.348853 0 
L 0 0 
z
" style="fill:#ffffff;"/>
  </g>
  <g id="axes_1">
   <g id="patch_2">
    <path d="M 112.909375 602.94 
L 595.858804 602.94 
L 595.858804 109.326857 
L 112.909375 109.326857 
z
" style="fill:none;"/>
   </g>
   <g id="matplotlib.axis_1">
    <g id="xtick_1">
     <g id="text_1">
      <!-- 0 -->
      <g style="fill:#262626;" transform="translate(127.423387 635.156562)scale(0.22 -0.22)">
       <defs>
        <path d="M 2034 4250 
Q 1547 4250 1301 3770 
Q 1056 3291 1056 2328 
Q 1056 1369 1301 889 
Q 1547 409 2034 409 
Q 2525 409 2770 889 
Q 3016 1369 3016 2328 
Q 3016 3291 2770 3770 
Q 2525 4250 2034 4250 
z
M 2034 4750 
Q 2819 4750 3233 4129 
Q 3647 3509 3647 2328 
Q 3647 1150 3233 529 
Q 2819 -91 2034 -91 
Q 1250 -91 836 529 
Q 422 1150 422 2328 
Q 422 3509 836 4129 
Q 1250 4750 2034 4750 
z
" id="DejaVuSans-30" transform="scale(0.015625)"/>
       </defs>
       <use xlink:href="#DejaVuSans-30"/>
      </g>
     </g>
    </g>
    <g id="xtick_2">
     <g id="text_2">
      <!-- 20000 -->
      <g style="fill:#262626;" transform="translate(187.325271 635.156562)scale(0.22 -0.22)">
       <defs>
        <path d="M 1228 531 
L 3431 531 
L 3431 0 
L 469 0 
L 469 531 
Q 828 903 1448 1529 
Q 2069 2156 2228 2338 
Q 2531 2678 2651 2914 
Q 2772 3150 2772 3378 
Q 2772 3750 2511 3984 
Q 2250 4219 1831 4219 
Q 1534 4219 1204 4116 
Q 875 4013 500 3803 
L 500 4441 
Q 881 4594 1212 4672 
Q 1544 4750 1819 4750 
Q 2544 4750 2975 4387 
Q 3406 4025 3406 3419 
Q 3406 3131 3298 2873 
Q 3191 2616 2906 2266 
Q 2828 2175 2409 1742 
Q 1991 1309 1228 531 
z
" id="DejaVuSans-32" transform="scale(0.015625)"/>
       </defs>
       <use xlink:href="#DejaVuSans-32"/>
       <use x="63.623047" xlink:href="#DejaVuSans-30"/>
       <use x="127.246094" xlink:href="#DejaVuSans-30"/>
       <use x="190.869141" xlink:href="#DejaVuSans-30"/>
       <use x="254.492188" xlink:href="#DejaVuSans-30"/>
      </g>
     </g>
    </g>
    <g id="xtick_3">
     <g id="text_3">
      <!-- 40000 -->
      <g style="fill:#262626;" transform="translate(275.222155 635.156562)scale(0.22 -0.22)">
       <defs>
        <path d="M 2419 4116 
L 825 1625 
L 2419 1625 
L 2419 4116 
z
M 2253 4666 
L 3047 4666 
L 3047 1625 
L 3713 1625 
L 3713 1100 
L 3047 1100 
L 3047 0 
L 2419 0 
L 2419 1100 
L 313 1100 
L 313 1709 
L 2253 4666 
z
" id="DejaVuSans-34" transform="scale(0.015625)"/>
       </defs>
       <use xlink:href="#DejaVuSans-34"/>
       <use x="63.623047" xlink:href="#DejaVuSans-30"/>
       <use x="127.246094" xlink:href="#DejaVuSans-30"/>
       <use x="190.869141" xlink:href="#DejaVuSans-30"/>
       <use x="254.492188" xlink:href="#DejaVuSans-30"/>
      </g>
     </g>
    </g>
    <g id="xtick_4">
     <g id="text_4">
      <!-- 60000 -->
      <g style="fill:#262626;" transform="translate(363.119039 635.156562)scale(0.22 -0.22)">
       <defs>
        <path d="M 2113 2584 
Q 1688 2584 1439 2293 
Q 1191 2003 1191 1497 
Q 1191 994 1439 701 
Q 1688 409 2113 409 
Q 2538 409 2786 701 
Q 3034 994 3034 1497 
Q 3034 2003 2786 2293 
Q 2538 2584 2113 2584 
z
M 3366 4563 
L 3366 3988 
Q 3128 4100 2886 4159 
Q 2644 4219 2406 4219 
Q 1781 4219 1451 3797 
Q 1122 3375 1075 2522 
Q 1259 2794 1537 2939 
Q 1816 3084 2150 3084 
Q 2853 3084 3261 2657 
Q 3669 2231 3669 1497 
Q 3669 778 3244 343 
Q 2819 -91 2113 -91 
Q 1303 -91 875 529 
Q 447 1150 447 2328 
Q 447 3434 972 4092 
Q 1497 4750 2381 4750 
Q 2619 4750 2861 4703 
Q 3103 4656 3366 4563 
z
" id="DejaVuSans-36" transform="scale(0.015625)"/>
       </defs>
       <use xlink:href="#DejaVuSans-36"/>
       <use x="63.623047" xlink:href="#DejaVuSans-30"/>
       <use x="127.246094" xlink:href="#DejaVuSans-30"/>
       <use x="190.869141" xlink:href="#DejaVuSans-30"/>
       <use x="254.492188" xlink:href="#DejaVuSans-30"/>
      </g>
     </g>
    </g>
    <g id="xtick_5">
     <g id="text_5">
      <!-- 80000 -->
      <g style="fill:#262626;" transform="translate(451.015923 635.156562)scale(0.22 -0.22)">
       <defs>
        <path d="M 2034 2216 
Q 1584 2216 1326 1975 
Q 1069 1734 1069 1313 
Q 1069 891 1326 650 
Q 1584 409 2034 409 
Q 2484 409 2743 651 
Q 3003 894 3003 1313 
Q 3003 1734 2745 1975 
Q 2488 2216 2034 2216 
z
M 1403 2484 
Q 997 2584 770 2862 
Q 544 3141 544 3541 
Q 544 4100 942 4425 
Q 1341 4750 2034 4750 
Q 2731 4750 3128 4425 
Q 3525 4100 3525 3541 
Q 3525 3141 3298 2862 
Q 3072 2584 2669 2484 
Q 3125 2378 3379 2068 
Q 3634 1759 3634 1313 
Q 3634 634 3220 271 
Q 2806 -91 2034 -91 
Q 1263 -91 848 271 
Q 434 634 434 1313 
Q 434 1759 690 2068 
Q 947 2378 1403 2484 
z
M 1172 3481 
Q 1172 3119 1398 2916 
Q 1625 2713 2034 2713 
Q 2441 2713 2670 2916 
Q 2900 3119 2900 3481 
Q 2900 3844 2670 4047 
Q 2441 4250 2034 4250 
Q 1625 4250 1398 4047 
Q 1172 3844 1172 3481 
z
" id="DejaVuSans-38" transform="scale(0.015625)"/>
       </defs>
       <use xlink:href="#DejaVuSans-38"/>
       <use x="63.623047" xlink:href="#DejaVuSans-30"/>
       <use x="127.246094" xlink:href="#DejaVuSans-30"/>
       <use x="190.869141" xlink:href="#DejaVuSans-30"/>
       <use x="254.492188" xlink:href="#DejaVuSans-30"/>
      </g>
     </g>
    </g>
    <g id="xtick_6">
     <g id="text_6">
      <!-- 100000 -->
      <g style="fill:#262626;" transform="translate(531.914057 635.156562)scale(0.22 -0.22)">
       <defs>
        <path d="M 794 531 
L 1825 531 
L 1825 4091 
L 703 3866 
L 703 4441 
L 1819 4666 
L 2450 4666 
L 2450 531 
L 3481 531 
L 3481 0 
L 794 0 
L 794 531 
z
" id="DejaVuSans-31" transform="scale(0.015625)"/>
       </defs>
       <use xlink:href="#DejaVuSans-31"/>
       <use x="63.623047" xlink:href="#DejaVuSans-30"/>
       <use x="127.246094" xlink:href="#DejaVuSans-30"/>
       <use x="190.869141" xlink:href="#DejaVuSans-30"/>
       <use x="254.492188" xlink:href="#DejaVuSans-30"/>
       <use x="318.115234" xlink:href="#DejaVuSans-30"/>
      </g>
     </g>
    </g>
    <g id="text_7">
     <!-- MDTU -->
     <g style="fill:#262626;" transform="translate(318.678464 661.968125)scale(0.24 -0.24)">
      <defs>
       <path d="M 628 4666 
L 1569 4666 
L 2759 1491 
L 3956 4666 
L 4897 4666 
L 4897 0 
L 4281 0 
L 4281 4097 
L 3078 897 
L 2444 897 
L 1241 4097 
L 1241 0 
L 628 0 
L 628 4666 
z
" id="DejaVuSans-4d" transform="scale(0.015625)"/>
       <path d="M 1259 4147 
L 1259 519 
L 2022 519 
Q 2988 519 3436 956 
Q 3884 1394 3884 2338 
Q 3884 3275 3436 3711 
Q 2988 4147 2022 4147 
L 1259 4147 
z
M 628 4666 
L 1925 4666 
Q 3281 4666 3915 4102 
Q 4550 3538 4550 2338 
Q 4550 1131 3912 565 
Q 3275 0 1925 0 
L 628 0 
L 628 4666 
z
" id="DejaVuSans-44" transform="scale(0.015625)"/>
       <path d="M -19 4666 
L 3928 4666 
L 3928 4134 
L 2272 4134 
L 2272 0 
L 1638 0 
L 1638 4134 
L -19 4134 
L -19 4666 
z
" id="DejaVuSans-54" transform="scale(0.015625)"/>
       <path d="M 556 4666 
L 1191 4666 
L 1191 1831 
Q 1191 1081 1462 751 
Q 1734 422 2344 422 
Q 2950 422 3222 751 
Q 3494 1081 3494 1831 
L 3494 4666 
L 4128 4666 
L 4128 1753 
Q 4128 841 3676 375 
Q 3225 -91 2344 -91 
Q 1459 -91 1007 375 
Q 556 841 556 1753 
L 556 4666 
z
" id="DejaVuSans-55" transform="scale(0.015625)"/>
      </defs>
      <use xlink:href="#DejaVuSans-4d"/>
      <use x="86.279297" xlink:href="#DejaVuSans-44"/>
      <use x="163.28125" xlink:href="#DejaVuSans-54"/>
      <use x="224.365234" xlink:href="#DejaVuSans-55"/>
     </g>
    </g>
   </g>
   <g id="matplotlib.axis_2">
    <g id="ytick_1">
     <g id="text_8">
      <!-- 0.375 -->
      <g style="fill:#262626;" transform="translate(34.4275 609.801839)scale(0.22 -0.22)">
       <defs>
        <path d="M 684 794 
L 1344 794 
L 1344 0 
L 684 0 
L 684 794 
z
" id="DejaVuSans-2e" transform="scale(0.015625)"/>
        <path d="M 2597 2516 
Q 3050 2419 3304 2112 
Q 3559 1806 3559 1356 
Q 3559 666 3084 287 
Q 2609 -91 1734 -91 
Q 1441 -91 1130 -33 
Q 819 25 488 141 
L 488 750 
Q 750 597 1062 519 
Q 1375 441 1716 441 
Q 2309 441 2620 675 
Q 2931 909 2931 1356 
Q 2931 1769 2642 2001 
Q 2353 2234 1838 2234 
L 1294 2234 
L 1294 2753 
L 1863 2753 
Q 2328 2753 2575 2939 
Q 2822 3125 2822 3475 
Q 2822 3834 2567 4026 
Q 2313 4219 1838 4219 
Q 1578 4219 1281 4162 
Q 984 4106 628 3988 
L 628 4550 
Q 988 4650 1302 4700 
Q 1616 4750 1894 4750 
Q 2613 4750 3031 4423 
Q 3450 4097 3450 3541 
Q 3450 3153 3228 2886 
Q 3006 2619 2597 2516 
z
" id="DejaVuSans-33" transform="scale(0.015625)"/>
        <path d="M 525 4666 
L 3525 4666 
L 3525 4397 
L 1831 0 
L 1172 0 
L 2766 4134 
L 525 4134 
L 525 4666 
z
" id="DejaVuSans-37" transform="scale(0.015625)"/>
        <path d="M 691 4666 
L 3169 4666 
L 3169 4134 
L 1269 4134 
L 1269 2991 
Q 1406 3038 1543 3061 
Q 1681 3084 1819 3084 
Q 2600 3084 3056 2656 
Q 3513 2228 3513 1497 
Q 3513 744 3044 326 
Q 2575 -91 1722 -91 
Q 1428 -91 1123 -41 
Q 819 9 494 109 
L 494 744 
Q 775 591 1075 516 
Q 1375 441 1709 441 
Q 2250 441 2565 725 
Q 2881 1009 2881 1497 
Q 2881 1984 2565 2268 
Q 2250 2553 1709 2553 
Q 1456 2553 1204 2497 
Q 953 2441 691 2322 
L 691 4666 
z
" id="DejaVuSans-35" transform="scale(0.015625)"/>
       </defs>
       <use xlink:href="#DejaVuSans-30"/>
       <use x="63.623047" xlink:href="#DejaVuSans-2e"/>
       <use x="95.410156" xlink:href="#DejaVuSans-33"/>
       <use x="159.033203" xlink:href="#DejaVuSans-37"/>
       <use x="222.65625" xlink:href="#DejaVuSans-35"/>
      </g>
     </g>
    </g>
    <g id="ytick_2">
     <g id="text_9">
      <!-- 0.400 -->
      <g style="fill:#262626;" transform="translate(34.4275 550.927216)scale(0.22 -0.22)">
       <use xlink:href="#DejaVuSans-30"/>
       <use x="63.623047" xlink:href="#DejaVuSans-2e"/>
       <use x="95.410156" xlink:href="#DejaVuSans-34"/>
       <use x="159.033203" xlink:href="#DejaVuSans-30"/>
       <use x="222.65625" xlink:href="#DejaVuSans-30"/>
      </g>
     </g>
    </g>
    <g id="ytick_3">
     <g id="text_10">
      <!-- 0.425 -->
      <g style="fill:#262626;" transform="translate(34.4275 492.052592)scale(0.22 -0.22)">
       <use xlink:href="#DejaVuSans-30"/>
       <use x="63.623047" xlink:href="#DejaVuSans-2e"/>
       <use x="95.410156" xlink:href="#DejaVuSans-34"/>
       <use x="159.033203" xlink:href="#DejaVuSans-32"/>
       <use x="222.65625" xlink:href="#DejaVuSans-35"/>
      </g>
     </g>
    </g>
    <g id="ytick_4">
     <g id="text_11">
      <!-- 0.450 -->
      <g style="fill:#262626;" transform="translate(34.4275 433.177968)scale(0.22 -0.22)">
       <use xlink:href="#DejaVuSans-30"/>
       <use x="63.623047" xlink:href="#DejaVuSans-2e"/>
       <use x="95.410156" xlink:href="#DejaVuSans-34"/>
       <use x="159.033203" xlink:href="#DejaVuSans-35"/>
       <use x="222.65625" xlink:href="#DejaVuSans-30"/>
      </g>
     </g>
    </g>
    <g id="ytick_5">
     <g id="text_12">
      <!-- 0.475 -->
      <g style="fill:#262626;" transform="translate(34.4275 374.303344)scale(0.22 -0.22)">
       <use xlink:href="#DejaVuSans-30"/>
       <use x="63.623047" xlink:href="#DejaVuSans-2e"/>
       <use x="95.410156" xlink:href="#DejaVuSans-34"/>
       <use x="159.033203" xlink:href="#DejaVuSans-37"/>
       <use x="222.65625" xlink:href="#DejaVuSans-35"/>
      </g>
     </g>
    </g>
    <g id="ytick_6">
     <g id="text_13">
      <!-- 0.500 -->
      <g style="fill:#262626;" transform="translate(34.4275 315.42872)scale(0.22 -0.22)">
       <use xlink:href="#DejaVuSans-30"/>
       <use x="63.623047" xlink:href="#DejaVuSans-2e"/>
       <use x="95.410156" xlink:href="#DejaVuSans-35"/>
       <use x="159.033203" xlink:href="#DejaVuSans-30"/>
       <use x="222.65625" xlink:href="#DejaVuSans-30"/>
      </g>
     </g>
    </g>
    <g id="ytick_7">
     <g id="text_14">
      <!-- 0.525 -->
      <g style="fill:#262626;" transform="translate(34.4275 256.554097)scale(0.22 -0.22)">
       <use xlink:href="#DejaVuSans-30"/>
       <use x="63.623047" xlink:href="#DejaVuSans-2e"/>
       <use x="95.410156" xlink:href="#DejaVuSans-35"/>
       <use x="159.033203" xlink:href="#DejaVuSans-32"/>
       <use x="222.65625" xlink:href="#DejaVuSans-35"/>
      </g>
     </g>
    </g>
    <g id="ytick_8">
     <g id="text_15">
      <!-- 0.550 -->
      <g style="fill:#262626;" transform="translate(34.4275 197.679473)scale(0.22 -0.22)">
       <use xlink:href="#DejaVuSans-30"/>
       <use x="63.623047" xlink:href="#DejaVuSans-2e"/>
       <use x="95.410156" xlink:href="#DejaVuSans-35"/>
       <use x="159.033203" xlink:href="#DejaVuSans-35"/>
       <use x="222.65625" xlink:href="#DejaVuSans-30"/>
      </g>
     </g>
    </g>
    <g id="ytick_9">
     <g id="text_16">
      <!-- 0.575 -->
      <g style="fill:#262626;" transform="translate(34.4275 138.804849)scale(0.22 -0.22)">
       <use xlink:href="#DejaVuSans-30"/>
       <use x="63.623047" xlink:href="#DejaVuSans-2e"/>
       <use x="95.410156" xlink:href="#DejaVuSans-35"/>
       <use x="159.033203" xlink:href="#DejaVuSans-37"/>
       <use x="222.65625" xlink:href="#DejaVuSans-35"/>
      </g>
     </g>
    </g>
    <g id="text_17">
     <!-- $E$ -->
     <g style="fill:#262626;" transform="translate(25.43625 363.813429)rotate(-90)scale(0.24 -0.24)">
      <defs>
       <path d="M 1081 4666 
L 4031 4666 
L 3928 4134 
L 1606 4134 
L 1338 2753 
L 3566 2753 
L 3463 2222 
L 1234 2222 
L 909 531 
L 3284 531 
L 3181 0 
L 172 0 
L 1081 4666 
z
" id="DejaVuSans-Oblique-45" transform="scale(0.015625)"/>
      </defs>
      <use transform="translate(0 0.09375)" xlink:href="#DejaVuSans-Oblique-45"/>
     </g>
    </g>
   </g>
   <g id="line2d_1">
    <path clip-path="url(#pe2558abd2e)" d="M 134.861622 380.220589 
L 135.301106 329.033528 
L 135.740591 338.518817 
L 136.180075 361.482468 
L 136.619559 425.622701 
L 137.059044 284.790608 
L 137.498528 451.220814 
L 137.938013 417.872393 
L 138.377497 297.061443 
L 138.816982 360.322707 
L 139.256466 370.108663 
L 139.69595 465.178135 
L 140.135435 464.321397 
L 140.574919 401.334558 
L 141.014404 378.383005 
L 141.453888 313.858328 
L 141.893372 385.723529 
L 142.332857 348.372134 
L 142.772341 451.112853 
L 143.211826 260.727586 
L 143.65131 424.248038 
L 144.090795 495.081251 
L 144.530279 337.593049 
L 144.969763 434.284992 
L 145.409248 351.022708 
L 146.288217 486.903465 
L 146.727701 420.428567 
L 147.167185 402.079011 
L 147.60667 311.91501 
L 148.046154 262.554317 
L 148.485639 246.689421 
L 148.925123 320.381867 
L 149.364608 238.459846 
L 149.804092 527.179616 
L 150.243576 426.702361 
L 150.683061 518.316682 
L 151.122545 383.306224 
L 151.56203 436.430522 
L 152.001514 389.349665 
L 152.440999 394.716816 
L 152.880483 310.993124 
L 153.319967 267.009256 
L 153.759452 334.354778 
L 154.198936 376.159984 
L 154.638421 322.272787 
L 155.077905 305.324839 
L 155.517389 527.320325 
L 155.956874 380.895123 
L 156.396358 507.769223 
L 156.835843 408.772457 
L 157.275327 199.64428 
L 157.714812 382.158696 
L 158.154296 405.062433 
L 158.59378 392.847505 
L 159.033265 345.245981 
L 159.472749 386.075275 
L 159.912234 404.386066 
L 160.351718 372.695409 
L 160.791203 355.772879 
L 161.230687 460.698885 
L 161.670171 331.229909 
L 162.109656 339.380635 
L 162.54914 487.70716 
L 162.988625 378.417924 
L 163.428109 359.942022 
L 163.867593 284.130649 
L 164.307078 390.049138 
L 164.746562 376.762853 
L 165.186047 418.165229 
L 165.625531 320.753941 
L 166.065016 449.754123 
L 166.5045 303.101077 
L 167.383469 317.841503 
L 167.822953 357.632454 
L 168.262438 263.899854 
L 168.701922 341.867349 
L 169.141406 372.549354 
L 169.580891 336.97846 
L 170.020375 410.537931 
L 170.45986 406.656909 
L 170.899344 445.247683 
L 171.338829 380.733176 
L 171.778313 429.839385 
L 172.217797 460.363563 
L 172.657282 342.803139 
L 173.096766 369.775635 
L 173.536251 408.277843 
L 173.975735 294.211238 
L 174.41522 452.11199 
L 174.854704 392.114849 
L 175.294188 395.377945 
L 175.733673 262.258122 
L 176.173157 474.249836 
L 176.612642 409.077595 
L 177.052126 503.531203 
L 177.49161 371.9024 
L 177.931095 414.592177 
L 178.370579 359.694653 
L 178.810064 272.162549 
L 179.249548 435.602095 
L 179.689033 478.416775 
L 180.128517 438.519024 
L 180.568001 377.37883 
L 181.007486 438.079679 
L 181.44697 465.494467 
L 181.886455 326.808726 
L 182.325939 377.031708 
L 182.765423 386.118917 
L 183.204908 580.503039 
L 183.644392 293.905301 
L 184.083877 445.953398 
L 184.523361 338.3954 
L 184.962846 416.284918 
L 185.40233 322.475791 
L 185.841814 366.407993 
L 186.281299 441.894638 
L 186.720783 398.596667 
L 187.160268 329.351496 
L 187.599752 469.038413 
L 188.039237 368.436319 
L 188.478721 388.643331 
L 188.918205 478.021837 
L 189.35769 445.747978 
L 189.797174 359.338142 
L 190.236659 314.263779 
L 190.676143 426.805047 
L 191.115627 427.39532 
L 191.555112 414.501858 
L 192.434081 309.157058 
L 192.873565 399.406318 
L 193.31305 290.706314 
L 193.752534 380.110434 
L 194.192018 496.407093 
L 194.631503 343.43921 
L 195.070987 258.940955 
L 195.949956 516.523551 
L 196.38944 388.075268 
L 196.828925 458.504811 
L 197.268409 308.934411 
L 197.707894 269.182801 
L 198.147378 386.847007 
L 198.586863 393.218857 
L 199.026347 342.009043 
L 199.465831 424.345215 
L 199.905316 408.671423 
L 200.3448 328.346518 
L 200.784285 428.7915 
L 201.223769 445.386913 
L 201.663254 469.696911 
L 202.102738 523.790941 
L 202.542222 333.656201 
L 202.981707 463.808506 
L 203.421191 520.002465 
L 203.860676 321.323211 
L 204.739644 476.312549 
L 205.179129 426.574683 
L 205.618613 389.915667 
L 206.058098 233.824496 
L 206.497582 461.526779 
L 206.937067 392.644053 
L 207.376551 467.290385 
L 207.816035 447.557553 
L 208.25552 465.770621 
L 208.695004 426.992343 
L 209.134489 277.446038 
L 209.573973 552.896883 
L 210.013457 350.300762 
L 210.452942 402.869906 
L 210.892426 374.369636 
L 211.331911 286.250238 
L 211.771395 346.048177 
L 212.21088 336.318065 
L 212.650364 363.223651 
L 213.089848 354.87187 
L 213.529333 388.266565 
L 213.968817 365.652503 
L 214.408302 490.500812 
L 214.847786 279.552659 
L 215.287271 384.587089 
L 215.726755 446.963639 
L 216.166239 376.175707 
L 216.605724 414.628721 
L 217.045208 366.905909 
L 217.484693 248.795017 
L 217.924177 307.35393 
L 218.363661 448.694075 
L 218.803146 396.534237 
L 219.24263 517.730979 
L 219.682115 313.92509 
L 220.121599 474.879836 
L 220.561084 341.702014 
L 221.000568 131.763818 
L 221.440052 370.372257 
L 221.879537 405.277513 
L 222.319021 399.265424 
L 222.758506 382.565784 
L 223.19799 384.912601 
L 223.637474 433.715758 
L 224.076959 450.10838 
L 224.516443 397.599974 
L 224.955928 441.291356 
L 225.395412 263.339171 
L 225.834897 548.660824 
L 226.274381 406.599901 
L 226.713865 315.480916 
L 227.15335 313.105796 
L 227.592834 384.769157 
L 228.032319 353.984899 
L 228.471803 342.386729 
L 228.911288 376.181351 
L 229.350772 432.275911 
L 229.790256 362.278627 
L 230.229741 505.497181 
L 230.669225 448.466492 
L 231.10871 558.874353 
L 231.548194 262.193005 
L 231.987678 415.161128 
L 232.427163 463.068301 
L 232.866647 328.971488 
L 233.306132 406.382311 
L 233.745616 346.591618 
L 234.185101 388.11198 
L 234.624585 399.577508 
L 235.064069 349.290612 
L 235.503554 424.250692 
L 235.943038 281.830927 
L 236.382523 307.622339 
L 237.261491 402.98444 
L 237.700976 426.163076 
L 238.14046 394.231673 
L 238.579945 322.992776 
L 239.019429 403.909279 
L 239.458914 244.066121 
L 239.898398 433.719062 
L 240.337882 317.842107 
L 240.777367 247.00586 
L 241.216851 394.375802 
L 241.656336 341.353066 
L 242.09582 544.112683 
L 242.535305 438.763228 
L 242.974789 429.096565 
L 243.414273 278.426937 
L 243.853758 388.408093 
L 244.293242 272.219094 
L 244.732727 227.592162 
L 245.172211 358.71552 
L 245.611695 351.863837 
L 246.05118 428.341887 
L 246.490664 377.218556 
L 246.930149 300.392927 
L 247.369633 380.736245 
L 247.809118 373.486757 
L 248.688086 401.54269 
L 249.127571 390.59142 
L 249.567055 279.316642 
L 250.00654 374.660318 
L 250.446024 311.145121 
L 250.885508 447.573984 
L 251.324993 304.720387 
L 251.764477 378.200365 
L 252.203962 374.371756 
L 252.643446 342.037418 
L 253.082931 367.392288 
L 253.522415 364.894727 
L 253.961899 310.720327 
L 254.401384 401.029408 
L 254.840868 389.886983 
L 255.280353 447.84749 
L 255.719837 440.109266 
L 256.159322 384.763898 
L 256.598806 353.994293 
L 257.03829 439.70252 
L 257.477775 284.499411 
L 257.917259 413.021678 
L 258.356744 389.527779 
L 258.796228 393.630629 
L 259.235712 476.301705 
L 259.675197 503.491875 
L 260.114681 380.783963 
L 260.554166 384.483526 
L 260.99365 474.259063 
L 261.433135 427.918253 
L 261.872619 300.630335 
L 262.312103 419.25466 
L 262.751588 384.272679 
L 263.191072 468.525526 
L 263.630557 220.17979 
L 264.070041 299.059299 
L 264.509526 353.917121 
L 264.94901 463.713876 
L 265.388494 375.324574 
L 265.827979 392.506727 
L 266.267463 414.832561 
L 266.706948 410.39437 
L 267.146432 288.255503 
L 267.585916 350.708761 
L 268.464885 412.190217 
L 268.90437 237.139122 
L 269.343854 471.516975 
L 269.783339 416.765504 
L 270.222823 444.23418 
L 270.662307 362.896822 
L 271.101792 454.209746 
L 271.541276 380.846108 
L 271.980761 361.399119 
L 272.420245 349.522983 
L 272.859729 425.565185 
L 273.299214 394.417193 
L 273.738698 322.846256 
L 274.178183 436.492075 
L 274.617667 362.893453 
L 275.496636 336.61615 
L 275.93612 421.879069 
L 276.375605 326.595795 
L 276.815089 315.012329 
L 277.254574 469.25715 
L 277.694058 380.830559 
L 278.133543 484.517203 
L 278.573027 347.435753 
L 279.012511 272.230177 
L 279.451996 449.096162 
L 279.89148 330.388448 
L 280.770449 255.255447 
L 281.649418 474.33965 
L 282.088902 342.257381 
L 282.528387 389.995426 
L 282.967871 412.937404 
L 283.407356 408.219156 
L 283.84684 385.151499 
L 284.286324 344.74915 
L 285.165293 173.635179 
L 285.604778 217.543618 
L 286.044262 368.821796 
L 286.483746 379.570962 
L 286.923231 441.732212 
L 287.362715 306.383669 
L 287.8022 377.353201 
L 288.241684 312.140226 
L 288.681169 208.131502 
L 289.120653 269.87514 
L 289.999622 487.138335 
L 290.439106 333.627833 
L 290.878591 359.159677 
L 291.318075 358.311555 
L 291.75756 510.46626 
L 292.197044 405.368139 
L 292.636528 410.863654 
L 293.076013 291.822283 
L 293.515497 441.797731 
L 293.954982 340.962808 
L 294.394466 419.48549 
L 294.83395 327.126261 
L 295.273435 461.842059 
L 296.152404 320.55287 
L 297.031373 417.756157 
L 297.470857 276.146157 
L 297.910341 431.434299 
L 298.349826 352.958475 
L 298.78931 381.193017 
L 299.228795 329.991856 
L 299.668279 425.7598 
L 300.107763 468.975929 
L 301.426217 283.676098 
L 301.865701 509.796355 
L 302.305186 269.982131 
L 302.74467 355.949156 
L 303.184154 337.901548 
L 303.623639 305.444418 
L 304.063123 382.250187 
L 304.502608 436.745708 
L 304.942092 358.480608 
L 305.381577 309.424203 
L 305.821061 471.87553 
L 306.260545 356.832903 
L 306.70003 443.524972 
L 307.139514 336.302334 
L 307.578999 433.172263 
L 308.018483 460.799699 
L 308.457967 355.477123 
L 308.897452 378.05815 
L 309.336936 333.959089 
L 309.776421 411.758414 
L 310.215905 345.453197 
L 310.65539 353.030322 
L 311.094874 367.317557 
L 311.534358 352.698266 
L 311.973843 316.736945 
L 312.413327 365.576084 
L 312.852812 471.077521 
L 313.292296 343.167832 
L 313.73178 437.98931 
L 314.610749 375.185791 
L 315.050234 396.452409 
L 315.489718 272.379896 
L 315.929203 416.09172 
L 316.368687 439.089427 
L 316.808171 345.038039 
L 317.247656 403.199297 
L 317.68714 248.785579 
L 318.126625 324.695765 
L 318.566109 319.05206 
L 319.005594 432.254571 
L 319.445078 361.156643 
L 319.884562 484.743612 
L 320.324047 397.361415 
L 320.763531 382.400864 
L 321.203016 379.768545 
L 321.6425 425.069815 
L 322.521469 335.388465 
L 322.960953 402.216117 
L 323.400438 316.855985 
L 323.839922 440.711201 
L 324.279407 381.28873 
L 324.718891 392.180013 
L 325.158375 313.048366 
L 325.59786 310.616522 
L 326.037344 505.944918 
L 326.916313 322.444315 
L 327.355797 471.858004 
L 327.795282 427.31581 
L 328.234766 364.016431 
L 328.674251 398.130513 
L 329.113735 460.911047 
L 329.55322 417.841186 
L 329.992704 359.037301 
L 330.432188 340.751211 
L 330.871673 382.026131 
L 331.311157 408.696274 
L 331.750642 362.885916 
L 332.190126 358.760653 
L 332.629611 323.576154 
L 333.069095 305.297285 
L 333.508579 351.675631 
L 333.948064 496.763417 
L 334.387548 306.008008 
L 334.827033 380.30927 
L 335.266517 281.518801 
L 336.145486 464.585806 
L 336.58497 260.793742 
L 337.024455 261.717592 
L 337.463939 534.851266 
L 337.903424 331.334873 
L 338.342908 311.0006 
L 338.782392 413.404793 
L 339.221877 225.670005 
L 339.661361 421.021852 
L 340.100846 357.510893 
L 340.54033 323.337427 
L 340.979814 481.100069 
L 341.419299 374.124262 
L 341.858783 525.21006 
L 342.298268 382.189473 
L 342.737752 453.397716 
L 343.177237 377.13062 
L 343.616721 469.851604 
L 344.056205 315.802066 
L 344.49569 355.104627 
L 345.814143 429.447598 
L 346.253628 389.270561 
L 346.693112 371.937554 
L 347.572081 476.158347 
L 348.45105 264.754003 
L 348.890534 314.044349 
L 349.330018 279.650926 
L 349.769503 474.773807 
L 350.208987 469.010098 
L 350.648472 362.462182 
L 351.087956 462.707499 
L 351.527441 298.549613 
L 351.966925 417.686754 
L 352.406409 459.741346 
L 352.845894 464.30625 
L 353.285378 386.033734 
L 353.724863 407.714992 
L 354.164347 340.230587 
L 354.603831 430.506141 
L 355.043316 401.880865 
L 355.4828 405.045353 
L 355.922285 356.058289 
L 356.361769 453.078045 
L 356.801254 360.935599 
L 357.240738 365.014753 
L 357.680222 450.061666 
L 358.119707 474.702605 
L 358.559191 251.483244 
L 358.998676 375.217099 
L 359.43816 408.159302 
L 359.877645 280.550353 
L 360.317129 397.800987 
L 360.756613 291.978362 
L 361.196098 390.810291 
L 362.075067 228.319374 
L 362.514551 515.538355 
L 363.39352 207.075456 
L 363.833004 314.987163 
L 364.272489 355.25333 
L 364.711973 371.096859 
L 365.151458 284.877267 
L 365.590942 303.901497 
L 366.030426 306.099366 
L 366.469911 473.481823 
L 366.909395 395.649759 
L 367.34888 285.432431 
L 368.227848 418.841308 
L 368.667333 384.094794 
L 369.106817 317.285638 
L 369.546302 482.616398 
L 369.985786 420.640162 
L 370.425271 496.8366 
L 371.304239 317.277647 
L 371.743724 447.301411 
L 372.183208 402.802757 
L 372.622693 328.599432 
L 373.062177 302.740088 
L 373.501662 311.891608 
L 373.941146 512.504736 
L 374.38063 479.512644 
L 374.820115 262.182904 
L 375.259599 460.273892 
L 375.699084 415.247039 
L 376.138568 350.95458 
L 376.578052 248.107821 
L 377.457021 434.394519 
L 378.33599 368.78628 
L 378.775475 403.77262 
L 379.214959 361.177469 
L 379.654443 294.466433 
L 380.093928 366.251458 
L 380.533412 378.484284 
L 380.972897 417.010245 
L 382.29135 382.204448 
L 382.730834 418.764611 
L 383.170319 419.540409 
L 383.609803 424.855261 
L 384.049288 419.427028 
L 384.488772 453.188433 
L 384.928256 478.25658 
L 385.367741 365.740468 
L 385.807225 393.612388 
L 386.24671 312.358644 
L 386.686194 341.342984 
L 387.125679 460.96147 
L 387.565163 507.108313 
L 388.004647 434.425523 
L 388.444132 390.5757 
L 388.883616 213.375018 
L 389.323101 480.532886 
L 389.762585 451.06282 
L 390.202069 361.307324 
L 390.641554 298.25004 
L 391.081038 303.716542 
L 391.520523 485.371464 
L 391.960007 446.96678 
L 392.399492 452.240655 
L 392.838976 407.223418 
L 393.27846 236.977642 
L 393.717945 140.174048 
L 394.157429 475.217664 
L 394.596914 348.390095 
L 395.036398 398.149549 
L 395.475883 262.875153 
L 395.915367 359.266994 
L 396.354851 398.870758 
L 396.794336 330.022856 
L 397.23382 396.73392 
L 397.673305 334.715804 
L 398.112789 460.095868 
L 398.552273 328.75366 
L 398.991758 408.111216 
L 399.431242 422.191885 
L 399.870727 351.76961 
L 400.310211 344.968545 
L 400.749696 297.203321 
L 401.18918 270.590425 
L 401.628664 488.394996 
L 402.068149 461.040528 
L 402.507633 446.510468 
L 402.947118 392.277192 
L 403.386602 363.888614 
L 403.826086 283.172306 
L 404.265571 325.947224 
L 404.705055 409.382135 
L 405.14454 315.220946 
L 405.584024 506.105537 
L 406.023509 408.247 
L 406.462993 374.734833 
L 406.902477 359.732443 
L 407.341962 337.352735 
L 407.781446 448.740119 
L 408.220931 455.560328 
L 408.660415 467.013314 
L 409.0999 488.200405 
L 409.978868 366.333002 
L 410.418353 366.770851 
L 410.857837 501.138119 
L 411.297322 300.279367 
L 411.736806 313.363869 
L 413.055259 282.611287 
L 413.494744 292.907256 
L 413.934228 358.569693 
L 414.373713 391.564403 
L 414.813197 445.448875 
L 415.252681 286.706462 
L 416.13165 315.212412 
L 416.571135 334.271281 
L 417.010619 443.724647 
L 417.450103 363.237925 
L 417.889588 373.224023 
L 418.329072 282.217176 
L 418.768557 333.248812 
L 419.208041 357.55778 
L 419.647526 374.184548 
L 420.08701 479.387964 
L 420.526494 402.629484 
L 420.965979 486.78237 
L 421.405463 372.631841 
L 421.844948 475.467744 
L 422.284432 333.164317 
L 422.723917 435.672815 
L 423.163401 350.733835 
L 423.602885 315.574301 
L 424.04237 523.567636 
L 424.481854 427.093764 
L 424.921339 251.199906 
L 425.360823 437.018346 
L 425.800307 436.36527 
L 426.239792 423.071577 
L 426.679276 443.232032 
L 427.118761 301.721351 
L 427.558245 418.493856 
L 427.99773 439.333933 
L 428.437214 413.99812 
L 428.876698 489.431422 
L 429.316183 414.125001 
L 429.755667 419.948168 
L 430.195152 455.78779 
L 431.07412 285.032888 
L 431.513605 326.782798 
L 431.953089 418.938335 
L 432.392574 267.008716 
L 432.832058 549.166944 
L 433.271543 282.739751 
L 433.711027 407.947432 
L 434.150511 375.726826 
L 434.589996 430.093777 
L 435.02948 405.144169 
L 435.468965 403.13365 
L 436.347934 340.778112 
L 436.787418 551.859407 
L 437.226902 342.7558 
L 437.666387 362.826735 
L 438.105871 458.289406 
L 438.545356 448.330922 
L 438.98484 272.124588 
L 439.424324 294.149115 
L 439.863809 399.906314 
L 440.303293 312.930517 
L 440.742778 432.327125 
L 441.182262 348.802625 
L 441.621747 357.123947 
L 442.061231 270.462579 
L 442.500715 437.807408 
L 442.9402 350.811115 
L 443.379684 399.092281 
L 443.819169 397.55691 
L 444.258653 330.771072 
L 444.698137 450.276904 
L 445.137622 317.666187 
L 445.577106 432.092005 
L 446.016591 371.270989 
L 446.456075 534.355603 
L 446.89556 408.511863 
L 447.335044 349.066284 
L 447.774528 348.459365 
L 448.214013 445.179952 
L 448.653497 339.054177 
L 449.092982 314.650667 
L 449.532466 225.627119 
L 449.971951 356.587267 
L 450.411435 371.04509 
L 450.850919 298.484666 
L 451.290404 315.97208 
L 451.729888 370.100321 
L 452.169373 444.16617 
L 452.608857 410.094143 
L 453.048341 360.047365 
L 453.487826 507.246344 
L 453.92731 367.191252 
L 454.366795 329.940448 
L 454.806279 350.233377 
L 455.245764 355.796552 
L 455.685248 395.878267 
L 456.124732 310.465378 
L 456.564217 327.133215 
L 457.003701 355.856153 
L 457.443186 330.598349 
L 457.88267 371.348917 
L 458.322154 470.572447 
L 458.761639 326.175717 
L 459.201123 324.16529 
L 459.640608 314.460894 
L 460.080092 262.572895 
L 460.519577 418.814014 
L 460.959061 331.089708 
L 461.398545 456.01683 
L 461.83803 413.326099 
L 462.277514 399.605672 
L 462.716999 503.978497 
L 463.156483 261.298805 
L 463.595968 404.409855 
L 464.035452 361.41007 
L 464.474936 366.089263 
L 464.914421 316.867976 
L 465.353905 404.695093 
L 465.79339 421.857625 
L 466.232874 515.800024 
L 466.672358 505.138652 
L 467.111843 500.033113 
L 467.551327 301.77798 
L 467.990812 452.076589 
L 468.430296 313.946758 
L 468.869781 416.753206 
L 469.309265 416.252567 
L 469.748749 423.781646 
L 470.188234 539.53057 
L 470.627718 330.62384 
L 471.067203 436.768554 
L 471.506687 396.516528 
L 471.946171 536.944049 
L 472.385656 341.330721 
L 472.82514 377.637419 
L 473.264625 382.776804 
L 473.704109 309.910098 
L 474.143594 282.252649 
L 474.583078 365.654904 
L 475.022562 422.447489 
L 475.462047 431.515295 
L 475.901531 337.424684 
L 476.341016 439.169566 
L 476.7805 375.21312 
L 477.219985 448.353389 
L 477.659469 390.355309 
L 478.098953 428.901937 
L 478.538438 497.545493 
L 478.977922 346.925352 
L 479.417407 464.581427 
L 479.856891 371.536988 
L 480.296375 452.852203 
L 480.73586 422.964537 
L 481.175344 343.295788 
L 481.614829 377.272606 
L 482.054313 312.564878 
L 482.493798 365.694653 
L 482.933282 387.538996 
L 483.372766 457.40086 
L 483.812251 452.541135 
L 484.251735 433.402329 
L 484.69122 486.9949 
L 485.130704 364.41021 
L 485.570189 414.402502 
L 486.009673 383.135127 
L 486.449157 376.567637 
L 486.888642 431.20303 
L 487.328126 277.206786 
L 487.767611 427.854471 
L 488.207095 347.364861 
L 488.646579 364.491337 
L 489.086064 371.886632 
L 489.525548 329.291547 
L 489.965033 398.497525 
L 490.404517 402.268172 
L 490.844002 475.837244 
L 491.283486 343.135463 
L 491.72297 334.834609 
L 492.162455 362.770696 
L 492.601939 437.210487 
L 493.041424 381.768858 
L 493.480908 353.761193 
L 493.920392 436.165423 
L 494.359877 497.624501 
L 494.799361 395.854911 
L 495.238846 412.463266 
L 495.67833 402.712762 
L 496.117815 329.305172 
L 496.557299 405.420587 
L 496.996783 373.926523 
L 497.875752 361.760527 
L 498.315237 282.909919 
L 499.194206 381.087532 
L 499.63369 304.602189 
L 500.073174 289.953504 
L 500.512659 517.247055 
L 500.952143 344.057443 
L 501.391628 398.406368 
L 501.831112 395.463234 
L 502.270596 439.471622 
L 502.710081 440.735066 
L 503.149565 233.680377 
L 503.58905 342.539575 
L 504.028534 390.611905 
L 504.468019 301.661982 
L 504.907503 366.282337 
L 505.346987 448.250078 
L 505.786472 395.932764 
L 506.225956 243.771224 
L 506.665441 246.307923 
L 507.104925 381.627658 
L 507.544409 432.650793 
L 507.983894 242.823902 
L 508.423378 355.596528 
L 508.862863 258.964292 
L 509.302347 301.929538 
L 509.741832 373.570235 
L 510.181316 273.143191 
L 510.6208 364.264148 
L 511.060285 322.157907 
L 511.499769 428.219168 
L 511.939254 460.508131 
L 512.378738 515.46886 
L 512.818223 493.973985 
L 513.257707 379.934265 
L 513.697191 388.92769 
L 514.136676 327.706661 
L 514.57616 498.706766 
L 515.015645 401.346796 
L 515.455129 460.350795 
L 516.334098 325.946927 
L 516.773582 370.971041 
L 517.213067 387.635834 
L 517.652551 349.177944 
L 518.092036 377.017266 
L 518.53152 472.878194 
L 518.971004 310.898545 
L 519.410489 375.799322 
L 519.849973 379.658651 
L 520.289458 306.650411 
L 520.728942 321.51013 
L 521.168426 529.097999 
L 521.607911 390.955877 
L 522.047395 451.609631 
L 522.926364 274.295009 
L 523.805333 435.767652 
L 524.684302 332.228474 
L 525.123786 360.192131 
L 525.563271 352.499464 
L 526.002755 410.530366 
L 526.44224 247.176773 
L 526.881724 358.390352 
L 527.321208 436.74873 
L 527.760693 371.151839 
L 528.200177 335.191397 
L 528.639662 369.625473 
L 529.079146 329.004552 
L 529.51863 236.267478 
L 529.958115 399.019932 
L 530.397599 413.503604 
L 530.837084 448.883229 
L 531.276568 498.822596 
L 531.716053 410.135062 
L 532.155537 386.48011 
L 532.595021 388.569385 
L 533.034506 461.141571 
L 533.47399 337.554754 
L 533.913475 256.638341 
L 534.352959 335.920354 
L 534.792443 314.71953 
L 535.231928 407.755615 
L 535.671412 330.606817 
L 536.110897 295.574197 
L 536.550381 384.280826 
L 536.989866 361.655481 
L 537.42935 326.269748 
L 537.868834 421.221784 
L 538.308319 372.121639 
L 538.747803 366.021354 
L 539.187288 462.577781 
L 539.626772 520.121708 
L 540.066257 423.349731 
L 540.505741 466.240437 
L 540.945225 415.060146 
L 541.38471 284.150519 
L 541.824194 252.47859 
L 542.263679 460.8422 
L 542.703163 426.031905 
L 543.142647 443.273079 
L 543.582132 495.791185 
L 544.021616 294.59611 
L 544.461101 296.067055 
L 544.900585 386.952106 
L 545.34007 427.361377 
L 545.779554 324.152966 
L 546.219038 392.477414 
L 546.658523 353.207953 
L 547.098007 395.459229 
L 547.537492 400.552302 
L 547.976976 392.081638 
L 548.41646 370.547121 
L 548.855945 408.066843 
L 549.295429 311.594748 
L 549.734914 335.748578 
L 550.174398 243.633071 
L 550.613883 441.032856 
L 551.053367 263.238439 
L 551.492851 405.754635 
L 551.932336 377.673117 
L 552.37182 276.179978 
L 552.811305 251.246949 
L 553.250789 369.351755 
L 553.690274 414.433736 
L 554.129758 347.901163 
L 554.569242 396.865164 
L 555.008727 419.753341 
L 555.448211 313.018429 
L 556.32718 490.991696 
L 556.766664 290.22445 
L 557.206149 500.458518 
L 557.645633 443.552967 
L 558.085118 424.706131 
L 558.524602 377.420092 
L 558.964087 286.467254 
L 559.403571 257.600234 
L 559.843055 471.802408 
L 560.28254 270.373086 
L 560.722024 338.339224 
L 561.161509 329.31508 
L 561.600993 347.256902 
L 562.040477 426.942402 
L 562.479962 327.949749 
L 562.919446 258.221691 
L 563.358931 355.117139 
L 563.798415 319.244574 
L 564.2379 410.568849 
L 564.677384 428.774895 
L 565.116868 372.491903 
L 565.556353 370.683728 
L 565.995837 403.052199 
L 566.435322 393.053783 
L 566.874806 417.122774 
L 567.314291 331.958606 
L 567.753775 371.478748 
L 568.193259 345.665338 
L 568.632744 403.05976 
L 569.072228 372.659501 
L 569.511713 402.380485 
L 569.951197 507.916854 
L 570.390681 466.305891 
L 570.830166 227.905923 
L 571.26965 436.059116 
L 571.709135 370.413221 
L 572.148619 388.692033 
L 572.588104 363.472505 
L 573.027588 397.439284 
L 573.906557 298.297534 
L 573.906557 298.297534 
" style="fill:none;stroke:#96c69a;stroke-linecap:round;stroke-width:3;"/>
   </g>
   <g id="line2d_2"/>
   <g id="patch_3">
    <path d="M 112.909375 602.94 
L 112.909375 109.326857 
" style="fill:none;stroke:#262626;stroke-linecap:square;stroke-linejoin:miter;stroke-width:2.5;"/>
   </g>
   <g id="patch_4">
    <path d="M 112.909375 602.94 
L 595.858804 602.94 
" style="fill:none;stroke:#262626;stroke-linecap:square;stroke-linejoin:miter;stroke-width:2.5;"/>
   </g>
   <g id="legend_1">
    <g id="patch_5">
     <path d="M 542.943179 597.94 
L 588.858804 597.94 
Q 590.858804 597.94 590.858804 595.94 
L 590.858804 554.034375 
Q 590.858804 552.034375 588.858804 552.034375 
L 542.943179 552.034375 
Q 540.943179 552.034375 540.943179 554.034375 
L 540.943179 595.94 
Q 540.943179 597.94 542.943179 597.94 
z
" style="fill:#ffffff;opacity:0.8;stroke:#cccccc;stroke-linejoin:miter;stroke-width:2;"/>
    </g>
    <g id="text_18">
     <!-- $n_\tau$ -->
     <g style="fill:#262626;" transform="translate(552.820991 574.270625)scale(0.24 -0.24)">
      <defs>
       <path d="M 3566 2113 
L 3156 0 
L 2578 0 
L 2988 2091 
Q 3016 2238 3031 2350 
Q 3047 2463 3047 2528 
Q 3047 2791 2881 2937 
Q 2716 3084 2419 3084 
Q 1956 3084 1622 2776 
Q 1288 2469 1184 1941 
L 800 0 
L 225 0 
L 903 3500 
L 1478 3500 
L 1363 2950 
Q 1603 3253 1940 3418 
Q 2278 3584 2650 3584 
Q 3113 3584 3367 3334 
Q 3622 3084 3622 2631 
Q 3622 2519 3608 2391 
Q 3594 2263 3566 2113 
z
" id="DejaVuSans-Oblique-6e" transform="scale(0.015625)"/>
       <path d="M 2103 638 
Q 2188 488 2525 488 
L 2800 488 
L 2706 0 
L 2363 0 
Q 1800 0 1600 300 
Q 1403 606 1534 1269 
L 1856 2925 
L 541 2925 
L 653 3500 
L 3881 3500 
L 3769 2925 
L 2444 2925 
L 2113 1234 
Q 2025 781 2103 638 
z
" id="DejaVuSans-Oblique-3c4" transform="scale(0.015625)"/>
      </defs>
      <use xlink:href="#DejaVuSans-Oblique-6e"/>
      <use transform="translate(63.378906 -16.40625)scale(0.7)" xlink:href="#DejaVuSans-Oblique-3c4"/>
     </g>
    </g>
    <g id="line2d_3">
     <path d="M 544.943179 588.360312 
L 564.943179 588.360312 
" style="fill:none;stroke:#96c69a;stroke-linecap:round;stroke-width:3;"/>
    </g>
    <g id="line2d_4"/>
    <g id="text_19">
     <!-- 25 -->
     <g style="fill:#262626;" transform="translate(572.943179 591.860312)scale(0.1 -0.1)">
      <defs>
       <path d="M 1844 884 
L 3897 884 
L 3897 0 
L 506 0 
L 506 884 
L 2209 2388 
Q 2438 2594 2547 2791 
Q 2656 2988 2656 3200 
Q 2656 3528 2436 3728 
Q 2216 3928 1850 3928 
Q 1569 3928 1234 3808 
Q 900 3688 519 3450 
L 519 4475 
Q 925 4609 1322 4679 
Q 1719 4750 2100 4750 
Q 2938 4750 3402 4381 
Q 3866 4013 3866 3353 
Q 3866 2972 3669 2642 
Q 3472 2313 2841 1759 
L 1844 884 
z
" id="DejaVuSans-Bold-32" transform="scale(0.015625)"/>
       <path d="M 678 4666 
L 3669 4666 
L 3669 3781 
L 1638 3781 
L 1638 3059 
Q 1775 3097 1914 3117 
Q 2053 3138 2203 3138 
Q 3056 3138 3531 2711 
Q 4006 2284 4006 1522 
Q 4006 766 3489 337 
Q 2972 -91 2053 -91 
Q 1656 -91 1267 -14 
Q 878 63 494 219 
L 494 1166 
Q 875 947 1217 837 
Q 1559 728 1863 728 
Q 2300 728 2551 942 
Q 2803 1156 2803 1522 
Q 2803 1891 2551 2103 
Q 2300 2316 1863 2316 
Q 1603 2316 1309 2248 
Q 1016 2181 678 2041 
L 678 4666 
z
" id="DejaVuSans-Bold-35" transform="scale(0.015625)"/>
      </defs>
      <use xlink:href="#DejaVuSans-Bold-32"/>
      <use x="69.580078" xlink:href="#DejaVuSans-Bold-35"/>
     </g>
    </g>
   </g>
  </g>
  <g id="axes_2">
   <g id="patch_6">
    <path d="M 112.909375 92.305714 
L 595.858804 92.305714 
L 595.858804 7.2 
L 112.909375 7.2 
z
" style="fill:none;"/>
   </g>
   <g id="matplotlib.axis_3">
    <g id="xtick_7"/>
    <g id="xtick_8"/>
    <g id="xtick_9"/>
    <g id="xtick_10"/>
    <g id="xtick_11"/>
    <g id="xtick_12"/>
   </g>
   <g id="matplotlib.axis_4">
    <g id="ytick_10">
     <g id="text_20">
      <!-- 0 -->
      <g style="fill:#262626;" transform="translate(83.411875 100.663996)scale(0.22 -0.22)">
       <use xlink:href="#DejaVuSans-30"/>
      </g>
     </g>
    </g>
    <g id="ytick_11">
     <g id="text_21">
      <!-- 50 -->
      <g style="fill:#262626;" transform="translate(69.414375 56.129347)scale(0.22 -0.22)">
       <use xlink:href="#DejaVuSans-35"/>
       <use x="63.623047" xlink:href="#DejaVuSans-30"/>
      </g>
     </g>
    </g>
   </g>
   <g id="patch_7">
    <path clip-path="url(#p98a5d142c1)" d="M 134.861622 92.305714 
L 174.774798 92.305714 
L 174.774798 11.252653 
L 134.861622 11.252653 
z
" style="fill:#96c69a;fill-opacity:0.5;stroke:#ffffff;stroke-linejoin:miter;stroke-width:2;"/>
   </g>
   <g id="patch_8">
    <path clip-path="url(#p98a5d142c1)" d="M 174.774798 92.305714 
L 214.687974 92.305714 
L 214.687974 11.252653 
L 174.774798 11.252653 
z
" style="fill:#96c69a;fill-opacity:0.5;stroke:#ffffff;stroke-linejoin:miter;stroke-width:2;"/>
   </g>
   <g id="patch_9">
    <path clip-path="url(#p98a5d142c1)" d="M 214.687974 92.305714 
L 254.601149 92.305714 
L 254.601149 11.252653 
L 214.687974 11.252653 
z
" style="fill:#96c69a;fill-opacity:0.5;stroke:#ffffff;stroke-linejoin:miter;stroke-width:2;"/>
   </g>
   <g id="patch_10">
    <path clip-path="url(#p98a5d142c1)" d="M 254.601149 92.305714 
L 294.514325 92.305714 
L 294.514325 11.252653 
L 254.601149 11.252653 
z
" style="fill:#96c69a;fill-opacity:0.5;stroke:#ffffff;stroke-linejoin:miter;stroke-width:2;"/>
   </g>
   <g id="patch_11">
    <path clip-path="url(#p98a5d142c1)" d="M 294.514325 92.305714 
L 334.427501 92.305714 
L 334.427501 11.252653 
L 294.514325 11.252653 
z
" style="fill:#96c69a;fill-opacity:0.5;stroke:#ffffff;stroke-linejoin:miter;stroke-width:2;"/>
   </g>
   <g id="patch_12">
    <path clip-path="url(#p98a5d142c1)" d="M 334.427501 92.305714 
L 374.340677 92.305714 
L 374.340677 12.143346 
L 334.427501 12.143346 
z
" style="fill:#96c69a;fill-opacity:0.5;stroke:#ffffff;stroke-linejoin:miter;stroke-width:2;"/>
   </g>
   <g id="patch_13">
    <path clip-path="url(#p98a5d142c1)" d="M 374.340677 92.305714 
L 414.253853 92.305714 
L 414.253853 11.252653 
L 374.340677 11.252653 
z
" style="fill:#96c69a;fill-opacity:0.5;stroke:#ffffff;stroke-linejoin:miter;stroke-width:2;"/>
   </g>
   <g id="patch_14">
    <path clip-path="url(#p98a5d142c1)" d="M 414.253853 92.305714 
L 454.167029 92.305714 
L 454.167029 11.252653 
L 414.253853 11.252653 
z
" style="fill:#96c69a;fill-opacity:0.5;stroke:#ffffff;stroke-linejoin:miter;stroke-width:2;"/>
   </g>
   <g id="patch_15">
    <path clip-path="url(#p98a5d142c1)" d="M 454.167029 92.305714 
L 494.080205 92.305714 
L 494.080205 11.252653 
L 454.167029 11.252653 
z
" style="fill:#96c69a;fill-opacity:0.5;stroke:#ffffff;stroke-linejoin:miter;stroke-width:2;"/>
   </g>
   <g id="patch_16">
    <path clip-path="url(#p98a5d142c1)" d="M 494.080205 92.305714 
L 533.993381 92.305714 
L 533.993381 11.252653 
L 494.080205 11.252653 
z
" style="fill:#96c69a;fill-opacity:0.5;stroke:#ffffff;stroke-linejoin:miter;stroke-width:2;"/>
   </g>
   <g id="patch_17">
    <path clip-path="url(#p98a5d142c1)" d="M 533.993381 92.305714 
L 573.906557 92.305714 
L 573.906557 11.252653 
L 533.993381 11.252653 
z
" style="fill:#96c69a;fill-opacity:0.5;stroke:#ffffff;stroke-linejoin:miter;stroke-width:2;"/>
   </g>
   <g id="patch_18">
    <path d="M 112.909375 92.305714 
L 112.909375 7.2 
" style="fill:none;stroke:#262626;stroke-linecap:square;stroke-linejoin:miter;stroke-width:2.5;"/>
   </g>
   <g id="patch_19">
    <path d="M 112.909375 92.305714 
L 595.858804 92.305714 
" style="fill:none;stroke:#262626;stroke-linecap:square;stroke-linejoin:miter;stroke-width:2.5;"/>
   </g>
  </g>
  <g id="axes_3">
   <g id="patch_20">
    <path d="M 612.512232 602.94 
L 695.779375 602.94 
L 695.779375 109.326857 
L 612.512232 109.326857 
z
" style="fill:none;"/>
   </g>
   <g id="matplotlib.axis_5">
    <g id="xtick_13">
     <g id="text_22">
      <!-- 0 -->
      <g style="fill:#262626;" transform="translate(605.513482 635.156562)scale(0.22 -0.22)">
       <use xlink:href="#DejaVuSans-30"/>
      </g>
     </g>
    </g>
    <g id="xtick_14">
     <g id="text_23">
      <!-- 100 -->
      <g style="fill:#262626;" transform="translate(658.156353 635.156562)scale(0.22 -0.22)">
       <use xlink:href="#DejaVuSans-31"/>
       <use x="63.623047" xlink:href="#DejaVuSans-30"/>
       <use x="127.246094" xlink:href="#DejaVuSans-30"/>
      </g>
     </g>
    </g>
   </g>
   <g id="matplotlib.axis_6">
    <g id="ytick_12"/>
    <g id="ytick_13"/>
    <g id="ytick_14"/>
    <g id="ytick_15"/>
    <g id="ytick_16"/>
    <g id="ytick_17"/>
    <g id="ytick_18"/>
    <g id="ytick_19"/>
    <g id="ytick_20"/>
   </g>
   <g id="patch_21">
    <path clip-path="url(#p1342f30320)" d="M 612.512232 580.503039 
L 613.178636 580.503039 
L 613.178636 562.55347 
L 612.512232 562.55347 
z
" style="fill:#96c69a;fill-opacity:0.5;stroke:#ffffff;stroke-linejoin:miter;stroke-width:1.794957;"/>
   </g>
   <g id="patch_22">
    <path clip-path="url(#p1342f30320)" d="M 612.512232 562.55347 
L 615.844251 562.55347 
L 615.844251 544.603901 
L 612.512232 544.603901 
z
" style="fill:#96c69a;fill-opacity:0.5;stroke:#ffffff;stroke-linejoin:miter;stroke-width:1.794957;"/>
   </g>
   <g id="patch_23">
    <path clip-path="url(#p1342f30320)" d="M 612.512232 544.603901 
L 617.843462 544.603901 
L 617.843462 526.654332 
L 612.512232 526.654332 
z
" style="fill:#96c69a;fill-opacity:0.5;stroke:#ffffff;stroke-linejoin:miter;stroke-width:1.794957;"/>
   </g>
   <g id="patch_24">
    <path clip-path="url(#p1342f30320)" d="M 612.512232 526.654332 
L 622.508288 526.654332 
L 622.508288 508.704764 
L 612.512232 508.704764 
z
" style="fill:#96c69a;fill-opacity:0.5;stroke:#ffffff;stroke-linejoin:miter;stroke-width:1.794957;"/>
   </g>
   <g id="patch_25">
    <path clip-path="url(#p1342f30320)" d="M 612.512232 508.704764 
L 629.172325 508.704764 
L 629.172325 490.755195 
L 612.512232 490.755195 
z
" style="fill:#96c69a;fill-opacity:0.5;stroke:#ffffff;stroke-linejoin:miter;stroke-width:1.794957;"/>
   </g>
   <g id="patch_26">
    <path clip-path="url(#p1342f30320)" d="M 612.512232 490.755195 
L 635.169958 490.755195 
L 635.169958 472.805626 
L 612.512232 472.805626 
z
" style="fill:#96c69a;fill-opacity:0.5;stroke:#ffffff;stroke-linejoin:miter;stroke-width:1.794957;"/>
   </g>
   <g id="patch_27">
    <path clip-path="url(#p1342f30320)" d="M 612.512232 472.805626 
L 645.832417 472.805626 
L 645.832417 454.856057 
L 612.512232 454.856057 
z
" style="fill:#96c69a;fill-opacity:0.5;stroke:#ffffff;stroke-linejoin:miter;stroke-width:1.794957;"/>
   </g>
   <g id="patch_28">
    <path clip-path="url(#p1342f30320)" d="M 612.512232 454.856057 
L 655.828473 454.856057 
L 655.828473 436.906488 
L 612.512232 436.906488 
z
" style="fill:#96c69a;fill-opacity:0.5;stroke:#ffffff;stroke-linejoin:miter;stroke-width:1.794957;"/>
   </g>
   <g id="patch_29">
    <path clip-path="url(#p1342f30320)" d="M 612.512232 436.906488 
L 664.491721 436.906488 
L 664.491721 418.956919 
L 612.512232 418.956919 
z
" style="fill:#96c69a;fill-opacity:0.5;stroke:#ffffff;stroke-linejoin:miter;stroke-width:1.794957;"/>
   </g>
   <g id="patch_30">
    <path clip-path="url(#p1342f30320)" d="M 612.512232 418.956919 
L 679.819006 418.956919 
L 679.819006 401.007351 
L 612.512232 401.007351 
z
" style="fill:#96c69a;fill-opacity:0.5;stroke:#ffffff;stroke-linejoin:miter;stroke-width:1.794957;"/>
   </g>
   <g id="patch_31">
    <path clip-path="url(#p1342f30320)" d="M 612.512232 401.007351 
L 676.486988 401.007351 
L 676.486988 383.057782 
L 612.512232 383.057782 
z
" style="fill:#96c69a;fill-opacity:0.5;stroke:#ffffff;stroke-linejoin:miter;stroke-width:1.794957;"/>
   </g>
   <g id="patch_32">
    <path clip-path="url(#p1342f30320)" d="M 612.512232 383.057782 
L 691.814273 383.057782 
L 691.814273 365.108213 
L 612.512232 365.108213 
z
" style="fill:#96c69a;fill-opacity:0.5;stroke:#ffffff;stroke-linejoin:miter;stroke-width:1.794957;"/>
   </g>
   <g id="patch_33">
    <path clip-path="url(#p1342f30320)" d="M 612.512232 365.108213 
L 676.486988 365.108213 
L 676.486988 347.158644 
L 612.512232 347.158644 
z
" style="fill:#96c69a;fill-opacity:0.5;stroke:#ffffff;stroke-linejoin:miter;stroke-width:1.794957;"/>
   </g>
   <g id="patch_34">
    <path clip-path="url(#p1342f30320)" d="M 612.512232 347.158644 
L 664.491721 347.158644 
L 664.491721 329.209075 
L 612.512232 329.209075 
z
" style="fill:#96c69a;fill-opacity:0.5;stroke:#ffffff;stroke-linejoin:miter;stroke-width:1.794957;"/>
   </g>
   <g id="patch_35">
    <path clip-path="url(#p1342f30320)" d="M 612.512232 329.209075 
L 659.160491 329.209075 
L 659.160491 311.259506 
L 612.512232 311.259506 
z
" style="fill:#96c69a;fill-opacity:0.5;stroke:#ffffff;stroke-linejoin:miter;stroke-width:1.794957;"/>
   </g>
   <g id="patch_36">
    <path clip-path="url(#p1342f30320)" d="M 612.512232 311.259506 
L 646.498821 311.259506 
L 646.498821 293.309938 
L 612.512232 293.309938 
z
" style="fill:#96c69a;fill-opacity:0.5;stroke:#ffffff;stroke-linejoin:miter;stroke-width:1.794957;"/>
   </g>
   <g id="patch_37">
    <path clip-path="url(#p1342f30320)" d="M 612.512232 293.309938 
L 637.169169 293.309938 
L 637.169169 275.360369 
L 612.512232 275.360369 
z
" style="fill:#96c69a;fill-opacity:0.5;stroke:#ffffff;stroke-linejoin:miter;stroke-width:1.794957;"/>
   </g>
   <g id="patch_38">
    <path clip-path="url(#p1342f30320)" d="M 612.512232 275.360369 
L 634.503554 275.360369 
L 634.503554 257.4108 
L 612.512232 257.4108 
z
" style="fill:#96c69a;fill-opacity:0.5;stroke:#ffffff;stroke-linejoin:miter;stroke-width:1.794957;"/>
   </g>
   <g id="patch_39">
    <path clip-path="url(#p1342f30320)" d="M 612.512232 257.4108 
L 624.507499 257.4108 
L 624.507499 239.461231 
L 612.512232 239.461231 
z
" style="fill:#96c69a;fill-opacity:0.5;stroke:#ffffff;stroke-linejoin:miter;stroke-width:1.794957;"/>
   </g>
   <g id="patch_40">
    <path clip-path="url(#p1342f30320)" d="M 612.512232 239.461231 
L 619.842673 239.461231 
L 619.842673 221.511662 
L 612.512232 221.511662 
z
" style="fill:#96c69a;fill-opacity:0.5;stroke:#ffffff;stroke-linejoin:miter;stroke-width:1.794957;"/>
   </g>
   <g id="patch_41">
    <path clip-path="url(#p1342f30320)" d="M 612.512232 221.511662 
L 615.844251 221.511662 
L 615.844251 203.562094 
L 612.512232 203.562094 
z
" style="fill:#96c69a;fill-opacity:0.5;stroke:#ffffff;stroke-linejoin:miter;stroke-width:1.794957;"/>
   </g>
   <g id="patch_42">
    <path clip-path="url(#p1342f30320)" d="M 612.512232 203.562094 
L 613.178636 203.562094 
L 613.178636 185.612525 
L 612.512232 185.612525 
z
" style="fill:#96c69a;fill-opacity:0.5;stroke:#ffffff;stroke-linejoin:miter;stroke-width:1.794957;"/>
   </g>
   <g id="patch_43">
    <path clip-path="url(#p1342f30320)" d="M 612.512232 185.612525 
L 613.178636 185.612525 
L 613.178636 167.662956 
L 612.512232 167.662956 
z
" style="fill:#96c69a;fill-opacity:0.5;stroke:#ffffff;stroke-linejoin:miter;stroke-width:1.794957;"/>
   </g>
   <g id="patch_44">
    <path clip-path="url(#p1342f30320)" d="M 612.512232 167.662956 
L 612.512232 167.662956 
L 612.512232 149.713387 
L 612.512232 149.713387 
z
" style="fill:#96c69a;fill-opacity:0.5;stroke:#ffffff;stroke-linejoin:miter;stroke-width:1.794957;"/>
   </g>
   <g id="patch_45">
    <path clip-path="url(#p1342f30320)" d="M 612.512232 149.713387 
L 613.84504 149.713387 
L 613.84504 131.763818 
L 612.512232 131.763818 
z
" style="fill:#96c69a;fill-opacity:0.5;stroke:#ffffff;stroke-linejoin:miter;stroke-width:1.794957;"/>
   </g>
   <g id="patch_46">
    <path d="M 612.512232 602.94 
L 612.512232 109.326857 
" style="fill:none;stroke:#262626;stroke-linecap:square;stroke-linejoin:miter;stroke-width:2.5;"/>
   </g>
   <g id="patch_47">
    <path d="M 612.512232 602.94 
L 695.779375 602.94 
" style="fill:none;stroke:#262626;stroke-linecap:square;stroke-linejoin:miter;stroke-width:2.5;"/>
   </g>
  </g>
 </g>
 <defs>
  <clipPath id="pe2558abd2e">
   <rect height="493.613143" width="482.949429" x="112.909375" y="109.326857"/>
  </clipPath>
  <clipPath id="p98a5d142c1">
   <rect height="85.105714" width="482.949429" x="112.909375" y="7.2"/>
  </clipPath>
  <clipPath id="p1342f30320">
   <rect height="493.613143" width="83.267143" x="612.512232" y="109.326857"/>
  </clipPath>
 </defs>
</svg>
