<?xml version="1.0" encoding="utf-8" standalone="no"?>
<!DOCTYPE svg PUBLIC "-//W3C//DTD SVG 1.1//EN"
  "http://www.w3.org/Graphics/SVG/1.1/DTD/svg11.dtd">
<svg height="674.159375pt" version="1.1" viewBox="0 0 674.984375 674.159375" width="674.984375pt" xmlns="http://www.w3.org/2000/svg" xmlns:xlink="http://www.w3.org/1999/xlink">
 <metadata>
  <rdf:RDF xmlns:cc="http://creativecommons.org/ns#" xmlns:dc="http://purl.org/dc/elements/1.1/" xmlns:rdf="http://www.w3.org/1999/02/22-rdf-syntax-ns#">
   <cc:Work>
    <dc:type rdf:resource="http://purl.org/dc/dcmitype/StillImage"/>
    <dc:date>2021-07-24T14:56:52.757941</dc:date>
    <dc:format>image/svg+xml</dc:format>
    <dc:creator>
     <cc:Agent>
      <dc:title>Matplotlib v3.4.2, https://matplotlib.org/</dc:title>
     </cc:Agent>
    </dc:creator>
   </cc:Work>
  </rdf:RDF>
 </metadata>
 <defs>
  <style type="text/css">*{stroke-linecap:butt;stroke-linejoin:round;}</style>
 </defs>
 <g id="figure_1">
  <g id="patch_1">
   <path d="M 0 674.159375 
L 674.984375 674.159375 
L 674.984375 0 
L 0 0 
z
" style="fill:#ffffff;"/>
  </g>
  <g id="axes_1">
   <g id="patch_2">
    <path d="M 84.914375 602.94 
L 567.863804 602.94 
L 567.863804 109.326857 
L 84.914375 109.326857 
z
" style="fill:none;"/>
   </g>
   <g id="matplotlib.axis_1">
    <g id="xtick_1">
     <g id="text_1">
      <!-- 0 -->
      <g style="fill:#262626;" transform="translate(99.648239 635.156562)scale(0.22 -0.22)">
       <defs>
        <path d="M 2034 4250 
Q 1547 4250 1301 3770 
Q 1056 3291 1056 2328 
Q 1056 1369 1301 889 
Q 1547 409 2034 409 
Q 2525 409 2770 889 
Q 3016 1369 3016 2328 
Q 3016 3291 2770 3770 
Q 2525 4250 2034 4250 
z
M 2034 4750 
Q 2819 4750 3233 4129 
Q 3647 3509 3647 2328 
Q 3647 1150 3233 529 
Q 2819 -91 2034 -91 
Q 1250 -91 836 529 
Q 422 1150 422 2328 
Q 422 3509 836 4129 
Q 1250 4750 2034 4750 
z
" id="DejaVuSans-30" transform="scale(0.015625)"/>
       </defs>
       <use xlink:href="#DejaVuSans-30"/>
      </g>
     </g>
    </g>
    <g id="xtick_2">
     <g id="text_2">
      <!-- 20000 -->
      <g style="fill:#262626;" transform="translate(159.506153 635.156562)scale(0.22 -0.22)">
       <defs>
        <path d="M 1228 531 
L 3431 531 
L 3431 0 
L 469 0 
L 469 531 
Q 828 903 1448 1529 
Q 2069 2156 2228 2338 
Q 2531 2678 2651 2914 
Q 2772 3150 2772 3378 
Q 2772 3750 2511 3984 
Q 2250 4219 1831 4219 
Q 1534 4219 1204 4116 
Q 875 4013 500 3803 
L 500 4441 
Q 881 4594 1212 4672 
Q 1544 4750 1819 4750 
Q 2544 4750 2975 4387 
Q 3406 4025 3406 3419 
Q 3406 3131 3298 2873 
Q 3191 2616 2906 2266 
Q 2828 2175 2409 1742 
Q 1991 1309 1228 531 
z
" id="DejaVuSans-32" transform="scale(0.015625)"/>
       </defs>
       <use xlink:href="#DejaVuSans-32"/>
       <use x="63.623047" xlink:href="#DejaVuSans-30"/>
       <use x="127.246094" xlink:href="#DejaVuSans-30"/>
       <use x="190.869141" xlink:href="#DejaVuSans-30"/>
       <use x="254.492188" xlink:href="#DejaVuSans-30"/>
      </g>
     </g>
    </g>
    <g id="xtick_3">
     <g id="text_3">
      <!-- 40000 -->
      <g style="fill:#262626;" transform="translate(247.359066 635.156562)scale(0.22 -0.22)">
       <defs>
        <path d="M 2419 4116 
L 825 1625 
L 2419 1625 
L 2419 4116 
z
M 2253 4666 
L 3047 4666 
L 3047 1625 
L 3713 1625 
L 3713 1100 
L 3047 1100 
L 3047 0 
L 2419 0 
L 2419 1100 
L 313 1100 
L 313 1709 
L 2253 4666 
z
" id="DejaVuSans-34" transform="scale(0.015625)"/>
       </defs>
       <use xlink:href="#DejaVuSans-34"/>
       <use x="63.623047" xlink:href="#DejaVuSans-30"/>
       <use x="127.246094" xlink:href="#DejaVuSans-30"/>
       <use x="190.869141" xlink:href="#DejaVuSans-30"/>
       <use x="254.492188" xlink:href="#DejaVuSans-30"/>
      </g>
     </g>
    </g>
    <g id="xtick_4">
     <g id="text_4">
      <!-- 60000 -->
      <g style="fill:#262626;" transform="translate(335.21198 635.156562)scale(0.22 -0.22)">
       <defs>
        <path d="M 2113 2584 
Q 1688 2584 1439 2293 
Q 1191 2003 1191 1497 
Q 1191 994 1439 701 
Q 1688 409 2113 409 
Q 2538 409 2786 701 
Q 3034 994 3034 1497 
Q 3034 2003 2786 2293 
Q 2538 2584 2113 2584 
z
M 3366 4563 
L 3366 3988 
Q 3128 4100 2886 4159 
Q 2644 4219 2406 4219 
Q 1781 4219 1451 3797 
Q 1122 3375 1075 2522 
Q 1259 2794 1537 2939 
Q 1816 3084 2150 3084 
Q 2853 3084 3261 2657 
Q 3669 2231 3669 1497 
Q 3669 778 3244 343 
Q 2819 -91 2113 -91 
Q 1303 -91 875 529 
Q 447 1150 447 2328 
Q 447 3434 972 4092 
Q 1497 4750 2381 4750 
Q 2619 4750 2861 4703 
Q 3103 4656 3366 4563 
z
" id="DejaVuSans-36" transform="scale(0.015625)"/>
       </defs>
       <use xlink:href="#DejaVuSans-36"/>
       <use x="63.623047" xlink:href="#DejaVuSans-30"/>
       <use x="127.246094" xlink:href="#DejaVuSans-30"/>
       <use x="190.869141" xlink:href="#DejaVuSans-30"/>
       <use x="254.492188" xlink:href="#DejaVuSans-30"/>
      </g>
     </g>
    </g>
    <g id="xtick_5">
     <g id="text_5">
      <!-- 80000 -->
      <g style="fill:#262626;" transform="translate(423.064893 635.156562)scale(0.22 -0.22)">
       <defs>
        <path d="M 2034 2216 
Q 1584 2216 1326 1975 
Q 1069 1734 1069 1313 
Q 1069 891 1326 650 
Q 1584 409 2034 409 
Q 2484 409 2743 651 
Q 3003 894 3003 1313 
Q 3003 1734 2745 1975 
Q 2488 2216 2034 2216 
z
M 1403 2484 
Q 997 2584 770 2862 
Q 544 3141 544 3541 
Q 544 4100 942 4425 
Q 1341 4750 2034 4750 
Q 2731 4750 3128 4425 
Q 3525 4100 3525 3541 
Q 3525 3141 3298 2862 
Q 3072 2584 2669 2484 
Q 3125 2378 3379 2068 
Q 3634 1759 3634 1313 
Q 3634 634 3220 271 
Q 2806 -91 2034 -91 
Q 1263 -91 848 271 
Q 434 634 434 1313 
Q 434 1759 690 2068 
Q 947 2378 1403 2484 
z
M 1172 3481 
Q 1172 3119 1398 2916 
Q 1625 2713 2034 2713 
Q 2441 2713 2670 2916 
Q 2900 3119 2900 3481 
Q 2900 3844 2670 4047 
Q 2441 4250 2034 4250 
Q 1625 4250 1398 4047 
Q 1172 3844 1172 3481 
z
" id="DejaVuSans-38" transform="scale(0.015625)"/>
       </defs>
       <use xlink:href="#DejaVuSans-38"/>
       <use x="63.623047" xlink:href="#DejaVuSans-30"/>
       <use x="127.246094" xlink:href="#DejaVuSans-30"/>
       <use x="190.869141" xlink:href="#DejaVuSans-30"/>
       <use x="254.492188" xlink:href="#DejaVuSans-30"/>
      </g>
     </g>
    </g>
    <g id="xtick_6">
     <g id="text_6">
      <!-- 100000 -->
      <g style="fill:#262626;" transform="translate(503.919057 635.156562)scale(0.22 -0.22)">
       <defs>
        <path d="M 794 531 
L 1825 531 
L 1825 4091 
L 703 3866 
L 703 4441 
L 1819 4666 
L 2450 4666 
L 2450 531 
L 3481 531 
L 3481 0 
L 794 0 
L 794 531 
z
" id="DejaVuSans-31" transform="scale(0.015625)"/>
       </defs>
       <use xlink:href="#DejaVuSans-31"/>
       <use x="63.623047" xlink:href="#DejaVuSans-30"/>
       <use x="127.246094" xlink:href="#DejaVuSans-30"/>
       <use x="190.869141" xlink:href="#DejaVuSans-30"/>
       <use x="254.492188" xlink:href="#DejaVuSans-30"/>
       <use x="318.115234" xlink:href="#DejaVuSans-30"/>
      </g>
     </g>
    </g>
    <g id="text_7">
     <!-- MDTU -->
     <g style="fill:#262626;" transform="translate(290.683464 661.968125)scale(0.24 -0.24)">
      <defs>
       <path d="M 628 4666 
L 1569 4666 
L 2759 1491 
L 3956 4666 
L 4897 4666 
L 4897 0 
L 4281 0 
L 4281 4097 
L 3078 897 
L 2444 897 
L 1241 4097 
L 1241 0 
L 628 0 
L 628 4666 
z
" id="DejaVuSans-4d" transform="scale(0.015625)"/>
       <path d="M 1259 4147 
L 1259 519 
L 2022 519 
Q 2988 519 3436 956 
Q 3884 1394 3884 2338 
Q 3884 3275 3436 3711 
Q 2988 4147 2022 4147 
L 1259 4147 
z
M 628 4666 
L 1925 4666 
Q 3281 4666 3915 4102 
Q 4550 3538 4550 2338 
Q 4550 1131 3912 565 
Q 3275 0 1925 0 
L 628 0 
L 628 4666 
z
" id="DejaVuSans-44" transform="scale(0.015625)"/>
       <path d="M -19 4666 
L 3928 4666 
L 3928 4134 
L 2272 4134 
L 2272 0 
L 1638 0 
L 1638 4134 
L -19 4134 
L -19 4666 
z
" id="DejaVuSans-54" transform="scale(0.015625)"/>
       <path d="M 556 4666 
L 1191 4666 
L 1191 1831 
Q 1191 1081 1462 751 
Q 1734 422 2344 422 
Q 2950 422 3222 751 
Q 3494 1081 3494 1831 
L 3494 4666 
L 4128 4666 
L 4128 1753 
Q 4128 841 3676 375 
Q 3225 -91 2344 -91 
Q 1459 -91 1007 375 
Q 556 841 556 1753 
L 556 4666 
z
" id="DejaVuSans-55" transform="scale(0.015625)"/>
      </defs>
      <use xlink:href="#DejaVuSans-4d"/>
      <use x="86.279297" xlink:href="#DejaVuSans-44"/>
      <use x="163.28125" xlink:href="#DejaVuSans-54"/>
      <use x="224.365234" xlink:href="#DejaVuSans-55"/>
     </g>
    </g>
   </g>
   <g id="matplotlib.axis_2">
    <g id="ytick_1">
     <g id="text_8">
      <!-- 0.6 -->
      <g style="fill:#262626;" transform="translate(34.4275 536.290632)scale(0.22 -0.22)">
       <defs>
        <path d="M 684 794 
L 1344 794 
L 1344 0 
L 684 0 
L 684 794 
z
" id="DejaVuSans-2e" transform="scale(0.015625)"/>
       </defs>
       <use xlink:href="#DejaVuSans-30"/>
       <use x="63.623047" xlink:href="#DejaVuSans-2e"/>
       <use x="95.410156" xlink:href="#DejaVuSans-36"/>
      </g>
     </g>
    </g>
    <g id="ytick_2">
     <g id="text_9">
      <!-- 0.8 -->
      <g style="fill:#262626;" transform="translate(34.4275 436.416847)scale(0.22 -0.22)">
       <use xlink:href="#DejaVuSans-30"/>
       <use x="63.623047" xlink:href="#DejaVuSans-2e"/>
       <use x="95.410156" xlink:href="#DejaVuSans-38"/>
      </g>
     </g>
    </g>
    <g id="ytick_3">
     <g id="text_10">
      <!-- 1.0 -->
      <g style="fill:#262626;" transform="translate(34.4275 336.543062)scale(0.22 -0.22)">
       <use xlink:href="#DejaVuSans-31"/>
       <use x="63.623047" xlink:href="#DejaVuSans-2e"/>
       <use x="95.410156" xlink:href="#DejaVuSans-30"/>
      </g>
     </g>
    </g>
    <g id="ytick_4">
     <g id="text_11">
      <!-- 1.2 -->
      <g style="fill:#262626;" transform="translate(34.4275 236.669277)scale(0.22 -0.22)">
       <use xlink:href="#DejaVuSans-31"/>
       <use x="63.623047" xlink:href="#DejaVuSans-2e"/>
       <use x="95.410156" xlink:href="#DejaVuSans-32"/>
      </g>
     </g>
    </g>
    <g id="ytick_5">
     <g id="text_12">
      <!-- 1.4 -->
      <g style="fill:#262626;" transform="translate(34.4275 136.795492)scale(0.22 -0.22)">
       <use xlink:href="#DejaVuSans-31"/>
       <use x="63.623047" xlink:href="#DejaVuSans-2e"/>
       <use x="95.410156" xlink:href="#DejaVuSans-34"/>
      </g>
     </g>
    </g>
    <g id="text_13">
     <!-- $E$ -->
     <g style="fill:#262626;" transform="translate(25.43625 363.813429)rotate(-90)scale(0.24 -0.24)">
      <defs>
       <path d="M 1081 4666 
L 4031 4666 
L 3928 4134 
L 1606 4134 
L 1338 2753 
L 3566 2753 
L 3463 2222 
L 1234 2222 
L 909 531 
L 3284 531 
L 3181 0 
L 172 0 
L 1081 4666 
z
" id="DejaVuSans-Oblique-45" transform="scale(0.015625)"/>
      </defs>
      <use transform="translate(0 0.09375)" xlink:href="#DejaVuSans-Oblique-45"/>
     </g>
    </g>
   </g>
   <g id="line2d_1">
    <path clip-path="url(#pe32a7cc033)" d="M 106.866622 370.418844 
L 107.086254 413.923486 
L 107.305886 287.694035 
L 107.525519 492.526613 
L 107.745151 439.543824 
L 107.964783 515.300124 
L 108.184415 392.520646 
L 108.404048 472.775777 
L 108.843312 359.941423 
L 109.282577 492.088161 
L 109.502209 388.846296 
L 109.941474 455.180464 
L 110.161106 347.225466 
L 110.380738 441.905886 
L 110.600371 456.212525 
L 110.820003 341.102154 
L 111.039635 432.991501 
L 111.259267 387.767221 
L 111.4789 472.305464 
L 111.698532 478.991186 
L 111.918164 492.721627 
L 112.137797 351.494759 
L 112.357429 464.747495 
L 112.577061 461.803548 
L 112.796693 445.277919 
L 113.016326 372.812475 
L 113.235958 382.338972 
L 113.675223 531.54667 
L 113.894855 433.558229 
L 114.114487 491.865477 
L 114.334119 390.616666 
L 114.553752 543.307352 
L 114.773384 547.746175 
L 115.212649 376.433111 
L 115.432281 508.079468 
L 115.651913 397.827786 
L 115.871545 486.95473 
L 116.31081 378.316627 
L 116.530442 488.93452 
L 116.750075 342.453559 
L 117.189339 389.399595 
L 117.408971 265.547715 
L 117.628604 392.26701 
L 118.067868 415.263173 
L 118.287501 343.151934 
L 118.507133 383.254236 
L 118.726765 349.528042 
L 119.16603 458.995311 
L 119.385662 419.075237 
L 119.605294 447.077393 
L 119.824926 405.787007 
L 120.044559 396.053372 
L 120.264191 398.106712 
L 120.483823 493.945217 
L 120.923088 401.826124 
L 121.14272 382.297431 
L 121.362352 405.293419 
L 121.581985 520.205863 
L 121.801617 339.620229 
L 122.021249 463.026567 
L 122.240882 290.225059 
L 122.460514 386.286824 
L 122.680146 421.99724 
L 122.899778 369.687818 
L 123.119411 474.841982 
L 123.339043 453.252809 
L 123.558675 402.665253 
L 123.778308 457.209547 
L 123.99794 471.667066 
L 124.217572 436.756047 
L 124.437204 321.700837 
L 124.656837 475.567047 
L 124.876469 451.442012 
L 125.096101 483.626121 
L 125.535366 198.33578 
L 125.754998 463.628781 
L 125.97463 465.184732 
L 126.194263 491.662613 
L 126.413895 422.670836 
L 126.633527 449.148408 
L 126.85316 523.951018 
L 127.072792 392.020154 
L 127.292424 486.72959 
L 127.512056 293.650648 
L 127.731689 485.190189 
L 127.951321 387.990482 
L 128.170953 410.637929 
L 128.390586 497.826363 
L 128.82985 377.85018 
L 129.049482 337.12436 
L 129.269115 374.24142 
L 129.488747 473.826365 
L 129.708379 452.834636 
L 129.928012 464.626723 
L 130.147644 402.763872 
L 130.367276 507.917279 
L 130.586908 382.365078 
L 130.806541 382.933844 
L 131.026173 358.675922 
L 131.245805 316.829142 
L 131.465438 474.458339 
L 131.68507 356.229636 
L 132.124334 462.737661 
L 132.343967 350.400245 
L 132.563599 366.085023 
L 132.783231 331.157319 
L 133.002864 439.535792 
L 133.222496 293.369257 
L 133.442128 463.499224 
L 133.66176 436.524276 
L 133.881393 391.376877 
L 134.101025 468.840861 
L 134.320657 408.92994 
L 134.540289 416.15804 
L 135.199186 338.941127 
L 135.418819 495.047621 
L 135.858083 281.401744 
L 136.077715 402.311785 
L 136.297348 383.445355 
L 136.51698 471.333553 
L 136.736612 424.521016 
L 136.956245 410.846134 
L 137.175877 376.686228 
L 137.395509 419.933601 
L 137.615141 370.73688 
L 137.834774 446.363773 
L 138.054406 439.68943 
L 138.274038 487.25056 
L 138.493671 334.212528 
L 138.713303 369.060329 
L 138.932935 458.512563 
L 139.152567 431.259504 
L 139.3722 434.080297 
L 139.591832 378.21397 
L 139.811464 470.241113 
L 140.031097 408.435548 
L 140.250729 414.958639 
L 140.470361 410.110217 
L 140.689993 412.407445 
L 140.909626 294.010822 
L 141.34889 399.278788 
L 141.568523 536.289461 
L 141.788155 479.345713 
L 142.007787 514.078939 
L 142.227419 332.337731 
L 142.447052 439.76069 
L 142.666684 443.458414 
L 142.886316 458.305949 
L 143.105949 370.864165 
L 143.325581 535.107743 
L 143.545213 349.444699 
L 143.764845 366.346866 
L 143.984478 283.533918 
L 144.20411 512.564277 
L 144.423742 486.944711 
L 144.643375 401.043602 
L 144.863007 518.550873 
L 145.082639 436.123113 
L 145.302271 519.143163 
L 145.521904 358.390138 
L 145.741536 480.934821 
L 145.961168 380.483085 
L 146.180801 390.272324 
L 146.400433 486.305911 
L 146.620065 387.918118 
L 146.839697 404.604955 
L 147.05933 510.603716 
L 147.278962 452.708516 
L 147.498594 463.824069 
L 147.718227 318.520899 
L 147.937859 459.059635 
L 148.157491 418.537206 
L 148.377123 474.458793 
L 148.596756 459.112314 
L 148.816388 428.919351 
L 149.255653 288.874248 
L 149.475285 471.019482 
L 149.694917 428.715853 
L 149.914549 435.42857 
L 150.134182 330.721754 
L 150.353814 372.698522 
L 150.573446 392.520044 
L 150.793078 399.167567 
L 151.012711 516.166382 
L 151.232343 458.894176 
L 151.451975 437.930035 
L 151.671608 398.832445 
L 151.89124 291.872385 
L 152.330504 486.306092 
L 152.769769 371.560858 
L 152.989401 508.700594 
L 153.209034 288.677978 
L 153.428666 425.890995 
L 153.648298 328.718428 
L 154.087563 480.650979 
L 154.307195 404.894778 
L 154.526827 398.548889 
L 154.74646 459.395054 
L 154.966092 462.395579 
L 155.185724 327.420984 
L 155.624989 459.423994 
L 155.844621 451.842163 
L 156.064253 398.468485 
L 156.283886 376.788623 
L 156.72315 485.70794 
L 156.942782 407.890699 
L 157.162415 482.993826 
L 157.382047 320.854579 
L 157.821312 492.669801 
L 158.040944 444.915682 
L 158.260576 355.882688 
L 158.480208 467.712225 
L 158.699841 431.766241 
L 158.919473 427.719735 
L 159.139105 378.314142 
L 159.358738 524.821837 
L 159.57837 407.855145 
L 159.798002 482.835914 
L 160.017634 387.333165 
L 160.456899 479.313818 
L 160.676531 410.457754 
L 160.896164 413.554161 
L 161.115796 393.754562 
L 161.335428 470.858827 
L 161.55506 427.179101 
L 161.774693 513.04959 
L 161.994325 395.492967 
L 162.213957 474.796048 
L 162.43359 496.253741 
L 162.653222 438.143296 
L 162.872854 418.529957 
L 163.092486 473.723853 
L 163.312119 378.42189 
L 163.531751 503.617844 
L 163.751383 390.768393 
L 163.971016 402.446233 
L 164.190648 358.344567 
L 165.069177 469.323297 
L 165.288809 462.668752 
L 165.508441 368.885643 
L 165.947706 523.067855 
L 166.167338 490.707639 
L 166.386971 431.877181 
L 166.606603 499.307912 
L 166.826235 302.222188 
L 167.045867 517.680938 
L 167.2655 457.283849 
L 167.485132 340.559667 
L 167.704764 395.357735 
L 167.924397 421.31962 
L 168.144029 390.553136 
L 168.363661 309.286297 
L 168.583293 487.038612 
L 168.802926 284.365633 
L 169.022558 441.229274 
L 169.24219 388.199624 
L 169.461823 457.221864 
L 169.681455 446.045156 
L 169.901087 368.43459 
L 170.120719 383.674617 
L 170.559984 474.869351 
L 170.779616 387.122332 
L 170.999249 404.060188 
L 171.218881 404.673305 
L 171.658145 431.991962 
L 171.877778 422.537107 
L 172.09741 378.876197 
L 172.317042 482.685879 
L 172.536675 421.202697 
L 172.756307 491.8391 
L 172.975939 340.988436 
L 173.195571 313.149371 
L 173.415204 463.622346 
L 173.634836 401.021807 
L 173.854468 399.320729 
L 174.074101 314.923681 
L 174.293733 401.000831 
L 174.513365 383.388779 
L 174.732997 520.127866 
L 175.172262 353.097406 
L 175.391894 430.807695 
L 175.611527 354.335309 
L 176.050791 437.384219 
L 176.270423 397.778505 
L 176.490056 463.67609 
L 176.709688 458.581491 
L 176.92932 358.448337 
L 177.148953 328.598369 
L 177.588217 413.328078 
L 177.807849 419.433439 
L 178.027482 292.543717 
L 178.247114 331.489524 
L 178.466746 323.875987 
L 178.906011 375.294614 
L 179.345275 473.444845 
L 179.564908 462.936023 
L 179.78454 330.232429 
L 180.004172 366.466793 
L 180.223805 325.432367 
L 180.443437 464.03755 
L 180.663069 258.95691 
L 180.882701 479.828815 
L 181.321966 361.223208 
L 181.541598 369.476188 
L 181.76123 437.835035 
L 181.980863 399.144455 
L 182.200495 440.578393 
L 182.420127 325.118739 
L 182.63976 450.338997 
L 183.079024 388.552288 
L 183.298656 501.117754 
L 183.518289 467.015073 
L 183.737921 400.589803 
L 183.957553 469.756506 
L 184.177186 361.216272 
L 184.396818 415.694914 
L 184.61645 367.678314 
L 184.836082 428.878144 
L 185.055715 402.645971 
L 185.275347 418.808422 
L 185.494979 347.898882 
L 185.714612 502.893875 
L 185.934244 436.350753 
L 186.153876 444.084065 
L 186.373508 327.695563 
L 186.812773 448.953346 
L 187.032405 454.885986 
L 187.252038 520.287638 
L 187.691302 293.834034 
L 187.910934 449.703861 
L 188.130567 418.806476 
L 188.350199 436.52465 
L 188.569831 403.045326 
L 188.789464 434.573509 
L 189.009096 356.254831 
L 189.228728 457.327993 
L 189.44836 437.335253 
L 189.667993 364.945093 
L 189.887625 468.387881 
L 190.107257 376.731166 
L 190.32689 397.375417 
L 190.546522 344.964268 
L 190.766154 385.025208 
L 190.985786 369.415152 
L 191.205419 422.566603 
L 191.425051 254.587443 
L 191.644683 437.167771 
L 191.864316 315.677794 
L 192.083948 472.889803 
L 192.30358 382.67242 
L 192.523212 487.197837 
L 192.742845 131.763818 
L 192.962477 447.988171 
L 193.182109 412.31137 
L 193.401742 328.26148 
L 193.621374 393.24804 
L 193.841006 323.453341 
L 194.060638 373.154349 
L 194.280271 362.601831 
L 194.719535 412.709842 
L 194.939168 342.018348 
L 195.378432 397.794553 
L 195.817697 491.369668 
L 196.037329 327.877621 
L 196.256961 482.52735 
L 196.476593 477.299545 
L 196.696226 411.648789 
L 196.915858 501.665633 
L 197.13549 493.557403 
L 197.355123 289.576918 
L 197.794387 499.350268 
L 198.014019 402.377627 
L 198.233652 478.769085 
L 198.453284 420.330939 
L 198.672916 481.351241 
L 198.892549 430.46674 
L 199.112181 284.231776 
L 199.331813 255.267578 
L 199.551445 434.938946 
L 199.771078 463.112912 
L 199.99071 327.266744 
L 200.210342 467.344569 
L 200.429975 384.021333 
L 200.649607 364.938817 
L 200.869239 281.976496 
L 201.088871 356.900441 
L 201.308504 385.494812 
L 201.528136 397.677395 
L 201.747768 312.983595 
L 201.967401 432.091623 
L 202.187033 399.83729 
L 202.626297 371.45559 
L 203.065562 510.222248 
L 203.285194 285.768495 
L 203.504827 465.110737 
L 203.724459 434.687701 
L 203.944091 443.59393 
L 204.163723 350.740472 
L 204.383356 390.970789 
L 204.602988 375.101466 
L 204.82262 429.75321 
L 205.042253 269.651865 
L 205.261885 410.205329 
L 205.481517 401.698181 
L 205.701149 369.847885 
L 206.140414 475.210275 
L 206.360046 398.467167 
L 206.579679 435.697026 
L 206.799311 499.141558 
L 207.018943 312.319321 
L 207.238575 435.9215 
L 207.458208 339.93596 
L 207.67784 408.360778 
L 207.897472 346.225578 
L 208.117105 412.632189 
L 208.336737 440.992614 
L 208.776001 390.83994 
L 208.995634 464.512661 
L 209.215266 437.255655 
L 209.434898 462.926387 
L 209.654531 371.112051 
L 209.874163 376.224904 
L 210.313427 564.974824 
L 210.53306 465.516763 
L 210.752692 505.674905 
L 210.972324 398.253711 
L 211.191956 384.472268 
L 211.411589 417.899166 
L 211.631221 498.05947 
L 211.850853 498.989036 
L 212.070486 428.00756 
L 212.290118 460.061674 
L 212.50975 315.756759 
L 212.729382 341.913193 
L 212.949015 455.408092 
L 213.168647 461.824583 
L 213.388279 427.942692 
L 213.607912 476.371956 
L 213.827544 362.456157 
L 214.047176 449.368345 
L 214.266808 459.195535 
L 214.486441 477.049534 
L 214.706073 448.484639 
L 214.925705 383.517984 
L 215.584602 477.468128 
L 215.804234 525.15765 
L 216.023867 336.953094 
L 216.243499 448.312793 
L 216.463131 490.907037 
L 216.682764 388.096646 
L 216.902396 449.652536 
L 217.122028 404.445155 
L 217.34166 426.635219 
L 217.780925 332.74924 
L 218.000557 481.93584 
L 218.22019 478.586214 
L 218.439822 519.660545 
L 218.659454 461.84331 
L 218.879086 365.544993 
L 219.098719 418.127675 
L 219.318351 525.473489 
L 219.537983 421.410272 
L 219.757616 469.207108 
L 219.977248 488.88978 
L 220.19688 356.181655 
L 220.416512 470.260162 
L 220.636145 399.405244 
L 220.855777 407.243885 
L 221.295042 513.493967 
L 221.514674 355.097865 
L 221.734306 360.075187 
L 221.953938 453.699116 
L 222.173571 493.252886 
L 222.393203 410.952475 
L 222.612835 423.123534 
L 222.832468 400.256135 
L 223.0521 409.226025 
L 223.271732 483.084207 
L 223.491364 419.910518 
L 223.710997 462.995475 
L 223.930629 466.933791 
L 224.150261 397.220895 
L 224.369894 451.579153 
L 224.589526 353.823553 
L 224.809158 499.318267 
L 225.02879 438.165817 
L 225.248423 511.446791 
L 225.468055 416.707964 
L 225.687687 421.679115 
L 225.90732 490.197977 
L 226.126952 314.142972 
L 226.346584 345.768503 
L 226.566216 353.377553 
L 226.785849 463.502568 
L 227.005481 439.808352 
L 227.225113 480.147406 
L 227.664378 404.007962 
L 227.88401 350.102084 
L 228.103642 381.250032 
L 228.323275 461.454444 
L 228.542907 411.822661 
L 228.762539 421.302956 
L 228.982171 361.131663 
L 229.421436 515.247733 
L 229.641068 327.932955 
L 230.080333 447.609539 
L 230.299965 482.38375 
L 230.519597 352.961384 
L 230.73923 424.502492 
L 230.958862 403.682052 
L 231.178494 428.51743 
L 231.398127 326.147154 
L 231.617759 423.590161 
L 231.837391 468.97113 
L 232.057023 423.244889 
L 232.276656 339.731906 
L 232.496288 325.469856 
L 232.71592 476.142282 
L 232.935553 374.004615 
L 233.155185 444.032946 
L 233.374817 410.945314 
L 233.594449 350.655185 
L 233.814082 482.641467 
L 234.033714 434.311112 
L 234.253346 313.004675 
L 234.472979 334.484157 
L 234.692611 413.516096 
L 235.131875 439.896101 
L 235.351508 354.75389 
L 235.57114 420.706712 
L 235.790772 414.578636 
L 236.010405 378.438468 
L 236.230037 443.940282 
L 236.449669 459.132863 
L 236.669301 421.650786 
L 236.888934 446.551366 
L 237.108566 317.499335 
L 237.328198 382.18407 
L 237.547831 376.680892 
L 237.987095 455.407603 
L 238.206727 446.391756 
L 238.42636 446.027146 
L 238.645992 430.718223 
L 238.865624 356.928583 
L 239.085257 473.312831 
L 239.304889 466.47513 
L 239.524521 434.114347 
L 239.744153 473.786459 
L 239.963786 462.970896 
L 240.183418 496.350116 
L 240.40305 476.017972 
L 240.622683 389.932073 
L 241.061947 477.452397 
L 241.501212 378.757543 
L 241.720844 410.616333 
L 241.940476 490.953964 
L 242.379741 336.535002 
L 242.599373 482.560099 
L 242.819005 343.754222 
L 243.038638 312.436246 
L 243.25827 381.589965 
L 243.477902 304.183185 
L 243.697534 428.719546 
L 243.917167 456.313301 
L 244.136799 408.297095 
L 244.356431 396.85961 
L 244.576064 423.206429 
L 244.795696 488.853779 
L 245.015328 353.380729 
L 245.23496 397.461828 
L 245.454593 308.510665 
L 245.674225 442.886224 
L 245.893857 450.367833 
L 246.11349 498.281724 
L 246.333122 518.907295 
L 246.552754 368.745033 
L 246.772386 435.401988 
L 246.992019 467.507506 
L 247.211651 521.415609 
L 247.431283 379.639363 
L 247.650916 373.014773 
L 247.870548 455.78325 
L 248.09018 458.280007 
L 248.309812 427.017915 
L 248.529445 309.762506 
L 248.749077 447.782816 
L 248.968709 417.058282 
L 249.188342 437.625698 
L 249.407974 348.540368 
L 249.627606 480.743447 
L 249.847238 440.573854 
L 250.066871 474.741742 
L 250.286503 416.012418 
L 250.725768 461.501872 
L 250.9454 460.948151 
L 251.165032 457.937309 
L 251.384664 473.219887 
L 251.604297 355.741748 
L 251.823929 409.652015 
L 252.043561 382.249798 
L 252.263194 383.079752 
L 252.482826 527.289615 
L 252.702458 456.597914 
L 252.92209 435.491866 
L 253.141723 494.082936 
L 253.361355 349.886805 
L 253.580987 500.347182 
L 253.80062 413.195361 
L 254.020252 401.876121 
L 254.239884 453.21173 
L 254.459516 400.267081 
L 254.679149 386.589506 
L 254.898781 361.518199 
L 255.338046 519.734832 
L 255.557678 408.39561 
L 255.77731 373.092519 
L 256.216575 508.068297 
L 256.875472 350.556052 
L 257.095104 438.081161 
L 257.314736 412.035377 
L 257.534368 489.961461 
L 257.754001 303.142 
L 257.973633 451.597133 
L 258.193265 521.502896 
L 258.412897 448.460054 
L 258.63253 421.439029 
L 258.852162 442.677013 
L 259.291427 411.404515 
L 259.511059 468.750171 
L 259.730691 395.756884 
L 259.950323 400.469623 
L 260.389588 541.223804 
L 260.828853 443.260084 
L 261.048485 477.99814 
L 261.268117 491.19525 
L 261.487749 350.492237 
L 261.707382 464.050297 
L 261.927014 439.918363 
L 262.146646 449.089329 
L 262.366279 393.068273 
L 262.585911 391.887003 
L 262.805543 488.37654 
L 263.244808 435.637254 
L 263.46444 367.133387 
L 264.123337 441.72995 
L 264.342969 429.845077 
L 264.562601 402.412662 
L 264.782234 410.351349 
L 265.001866 367.174822 
L 265.221498 357.750655 
L 265.441131 484.943069 
L 265.660763 408.173121 
L 265.880395 484.471684 
L 266.100027 399.491231 
L 266.31966 440.749929 
L 266.539292 453.627228 
L 266.758924 322.081729 
L 266.978557 379.893069 
L 267.198189 303.150052 
L 267.417821 409.834682 
L 267.637453 444.794998 
L 267.857086 404.501078 
L 268.076718 498.94282 
L 268.29635 386.195517 
L 268.515983 372.387641 
L 268.735615 492.190471 
L 268.955247 392.531532 
L 269.174879 500.116659 
L 269.394512 422.143037 
L 269.614144 418.531492 
L 269.833776 492.789571 
L 270.053409 443.026085 
L 270.273041 460.042813 
L 270.492673 308.212758 
L 270.712305 470.795072 
L 270.931938 359.009339 
L 271.15157 388.414323 
L 271.371202 487.547223 
L 271.590835 412.795771 
L 271.810467 418.263111 
L 272.030099 386.91879 
L 272.469364 467.545391 
L 272.688996 408.255511 
L 272.908628 422.923034 
L 273.12826 380.861534 
L 273.347893 394.159222 
L 273.567525 393.164523 
L 273.787157 406.916247 
L 274.00679 430.231838 
L 274.226422 391.259117 
L 274.446054 494.711833 
L 274.885319 447.0081 
L 275.104951 462.301582 
L 275.324583 381.85675 
L 275.763848 469.305631 
L 275.98348 465.127237 
L 276.203112 419.796891 
L 276.422745 420.29687 
L 276.642377 268.302928 
L 276.862009 327.109075 
L 277.081642 470.788579 
L 277.301274 419.693189 
L 277.520906 516.942808 
L 277.960171 395.508693 
L 278.179803 422.662011 
L 278.399435 401.252311 
L 278.619068 438.500311 
L 278.8387 369.492404 
L 279.058332 473.667905 
L 279.497597 395.474423 
L 279.717229 404.935188 
L 279.936861 267.997366 
L 280.156494 344.579416 
L 280.81539 423.898356 
L 281.035023 508.999961 
L 281.254655 439.330975 
L 281.474287 487.552687 
L 281.69392 349.930984 
L 281.913552 310.110238 
L 282.133184 375.860281 
L 282.352816 505.667212 
L 282.572449 431.729506 
L 282.792081 463.251796 
L 283.011713 457.615598 
L 283.231346 426.097074 
L 283.450978 317.042125 
L 283.67061 400.132532 
L 284.109875 344.228342 
L 284.329507 383.538035 
L 284.768772 412.426585 
L 284.988404 306.03145 
L 285.208036 339.236057 
L 285.427668 433.780741 
L 285.647301 351.578691 
L 285.866933 398.902328 
L 286.086565 476.033601 
L 286.306198 399.569769 
L 286.52583 454.458469 
L 286.745462 449.888882 
L 286.965094 379.842586 
L 287.184727 361.329313 
L 287.404359 482.266888 
L 287.623991 411.98461 
L 287.843624 420.215067 
L 288.063256 372.97843 
L 288.282888 436.784459 
L 288.50252 432.851845 
L 288.941785 352.22596 
L 289.161417 393.484623 
L 289.381049 478.850184 
L 289.600682 389.677601 
L 289.820314 490.912536 
L 290.039946 404.358591 
L 290.259579 455.944644 
L 290.479211 407.125147 
L 290.698843 426.08237 
L 290.918475 402.491412 
L 291.138108 475.473228 
L 291.35774 318.873561 
L 291.797005 460.981463 
L 292.016637 469.529579 
L 292.236269 340.294277 
L 292.455901 378.203335 
L 292.675534 517.050369 
L 292.895166 448.430543 
L 293.114798 329.467457 
L 293.334431 438.078348 
L 293.554063 479.848779 
L 293.773695 457.003916 
L 293.993327 449.024251 
L 294.432592 395.144625 
L 294.652224 426.366659 
L 294.871857 418.069644 
L 295.091489 439.350585 
L 295.311121 421.713348 
L 295.530753 499.35626 
L 295.750386 460.698054 
L 295.970018 452.423341 
L 296.18965 470.138099 
L 296.409283 372.010426 
L 296.628915 399.415529 
L 296.848547 400.959412 
L 297.068179 351.510696 
L 297.727076 438.529143 
L 297.946709 413.162032 
L 298.166341 322.544325 
L 298.605605 471.084506 
L 298.825238 349.66327 
L 299.04487 497.412437 
L 299.264502 389.49008 
L 299.484135 360.202591 
L 299.703767 471.499093 
L 299.923399 493.089098 
L 300.143031 485.078525 
L 300.362664 380.92805 
L 300.582296 362.876024 
L 301.021561 434.573657 
L 301.241193 407.706185 
L 301.460825 412.219468 
L 301.680457 404.947177 
L 301.90009 450.807393 
L 302.119722 445.057855 
L 302.339354 294.228197 
L 302.558987 538.152599 
L 302.778619 381.615591 
L 302.998251 379.319402 
L 303.217883 463.131321 
L 303.437516 430.856711 
L 303.657148 435.562872 
L 303.87678 474.574237 
L 304.096412 409.354325 
L 304.316045 400.833983 
L 304.535677 503.918688 
L 304.755309 478.692675 
L 304.974942 405.672908 
L 305.194574 490.188153 
L 305.414206 440.900873 
L 305.633838 446.05578 
L 305.853471 373.758049 
L 306.073103 502.371493 
L 306.292735 448.709881 
L 306.512368 494.798644 
L 306.732 427.786942 
L 306.951632 476.159764 
L 307.171264 428.477736 
L 307.390897 445.662226 
L 307.610529 442.232441 
L 307.830161 473.987415 
L 308.049794 399.495966 
L 308.269426 510.271188 
L 308.489058 453.572583 
L 308.70869 360.777346 
L 308.928323 439.262872 
L 309.147955 445.953612 
L 309.367587 433.128878 
L 309.58722 386.284885 
L 309.806852 395.387315 
L 310.026484 409.116601 
L 310.246116 363.582356 
L 310.465749 447.281262 
L 310.685381 455.925724 
L 310.905013 441.132385 
L 311.124646 383.614811 
L 311.344278 417.378212 
L 311.56391 533.625665 
L 311.783542 442.284096 
L 312.003175 436.493946 
L 312.222807 316.594947 
L 312.442439 474.3069 
L 312.662072 460.917894 
L 312.881704 466.408561 
L 313.101336 414.044864 
L 313.320968 495.506222 
L 313.540601 434.102811 
L 313.760233 481.665308 
L 314.199498 269.279236 
L 314.638762 492.981079 
L 314.858394 296.434476 
L 315.078027 435.208332 
L 315.517291 411.177466 
L 315.736924 450.482655 
L 315.956556 449.257078 
L 316.176188 423.21999 
L 316.39582 486.647295 
L 316.615453 355.009047 
L 316.835085 489.385008 
L 317.054717 405.243786 
L 317.27435 447.777163 
L 317.493982 392.868943 
L 317.713614 403.963104 
L 317.933246 433.67085 
L 318.152879 481.978124 
L 318.372511 431.750577 
L 318.592143 522.226236 
L 319.031408 373.862704 
L 319.25104 473.28049 
L 319.470672 497.266514 
L 319.690305 422.526659 
L 319.909937 452.413401 
L 320.129569 373.836348 
L 320.349201 407.796625 
L 320.568834 488.144227 
L 320.788466 409.456144 
L 321.008098 411.399492 
L 321.227731 356.124738 
L 321.447363 444.428809 
L 321.666995 449.257113 
L 321.886627 461.923168 
L 322.10626 451.570339 
L 322.325892 366.936799 
L 322.545524 465.341034 
L 322.765157 509.389111 
L 322.984789 487.489449 
L 323.204421 482.240474 
L 323.424053 415.28158 
L 323.643686 382.739193 
L 323.863318 453.16776 
L 324.08295 462.562358 
L 324.302583 355.093841 
L 324.522215 443.083884 
L 324.741847 450.581313 
L 324.961479 362.448547 
L 325.181112 396.530889 
L 325.400744 489.669527 
L 325.620376 386.308662 
L 325.840009 389.529341 
L 326.059641 494.85451 
L 326.279273 353.498263 
L 326.498905 490.507548 
L 326.718538 479.14841 
L 326.93817 419.990351 
L 327.157802 399.217071 
L 327.377435 422.408394 
L 327.816699 393.79881 
L 328.036331 434.160288 
L 328.255964 422.999219 
L 328.475596 495.643682 
L 328.695228 459.400296 
L 328.914861 351.004779 
L 329.354125 490.734731 
L 329.573757 340.46818 
L 329.79339 426.857236 
L 330.013022 305.710619 
L 330.232654 432.187254 
L 330.452287 399.350241 
L 330.671919 398.931924 
L 330.891551 414.342305 
L 331.111183 452.733002 
L 331.330816 395.602284 
L 331.550448 391.915759 
L 331.77008 402.804977 
L 331.989713 495.208648 
L 332.209345 399.711704 
L 332.428977 486.269639 
L 332.648609 496.947669 
L 332.868242 492.985712 
L 333.087874 524.681612 
L 333.307506 414.15878 
L 333.527139 405.784688 
L 333.746771 467.413318 
L 333.966403 396.585544 
L 334.186035 488.408966 
L 334.405668 403.972395 
L 334.6253 443.936366 
L 334.844932 457.252047 
L 335.064564 233.804648 
L 335.503829 407.34186 
L 335.723461 381.715787 
L 335.943094 530.782767 
L 336.162726 463.742945 
L 336.382358 349.075677 
L 336.60199 450.440003 
L 336.821623 485.436666 
L 337.041255 388.259137 
L 337.260887 413.063797 
L 337.48052 465.14914 
L 337.700152 565.963597 
L 337.919784 416.756965 
L 338.139416 413.675005 
L 338.578681 502.054196 
L 338.798313 425.735436 
L 339.017946 451.605216 
L 339.237578 363.116415 
L 339.45721 474.206719 
L 339.676842 387.834091 
L 339.896475 403.731443 
L 340.116107 510.145969 
L 340.555372 321.809798 
L 340.775004 486.236917 
L 340.994636 435.007723 
L 341.214268 478.361857 
L 341.433901 489.350176 
L 341.653533 485.155247 
L 341.873165 417.715541 
L 342.092798 477.408501 
L 342.532062 320.312379 
L 342.971327 482.493437 
L 343.190959 384.933604 
L 343.410591 449.001664 
L 343.630224 430.687116 
L 343.849856 338.254127 
L 344.069488 459.114992 
L 344.28912 483.599236 
L 344.728385 318.417721 
L 344.948017 460.327985 
L 345.16765 478.277125 
L 345.387282 427.027492 
L 345.606914 448.032198 
L 345.826546 319.241786 
L 346.046179 552.625759 
L 346.265811 409.295054 
L 346.485443 404.150813 
L 346.705076 394.609268 
L 346.924708 477.394793 
L 347.363972 376.314597 
L 347.583605 324.166212 
L 347.803237 369.221331 
L 348.022869 313.512645 
L 348.242502 461.023292 
L 348.462134 287.523261 
L 348.901398 423.047686 
L 349.121031 409.288925 
L 349.340663 341.16849 
L 349.560295 464.186272 
L 349.99956 503.085006 
L 350.219192 481.732322 
L 350.438824 403.896136 
L 350.658457 378.524978 
L 351.097721 467.147539 
L 351.317353 469.889225 
L 351.536986 413.415159 
L 351.756618 485.426372 
L 352.195883 319.509801 
L 352.415515 447.711481 
L 353.074412 349.400723 
L 353.294044 484.814635 
L 353.513676 357.331555 
L 353.733309 505.797335 
L 353.952941 443.477718 
L 354.392205 428.41501 
L 354.611838 365.599978 
L 354.83147 411.041697 
L 355.051102 417.486293 
L 355.270735 366.379924 
L 355.709999 441.29005 
L 355.929631 363.928617 
L 356.149264 372.200537 
L 356.368896 479.823114 
L 356.588528 423.877516 
L 356.808161 487.877803 
L 357.247425 352.72398 
L 357.467057 451.082904 
L 357.68669 349.116956 
L 357.906322 499.458984 
L 358.125954 375.57918 
L 358.565219 506.14405 
L 358.784851 419.703998 
L 359.004483 485.230522 
L 359.224116 368.896553 
L 359.443748 485.537472 
L 359.66338 472.728163 
L 359.883013 417.331838 
L 360.322277 502.406613 
L 360.541909 349.217267 
L 360.761542 429.081155 
L 360.981174 395.752923 
L 361.200806 418.960218 
L 361.420439 460.146014 
L 361.640071 282.384732 
L 361.859703 566.695027 
L 362.079335 484.743719 
L 362.298968 476.257964 
L 362.5186 485.087202 
L 362.738232 363.17707 
L 362.957865 472.257365 
L 363.177497 451.893654 
L 363.397129 370.70026 
L 363.616761 503.277637 
L 363.836394 458.681952 
L 364.714923 386.920247 
L 364.934555 434.601113 
L 365.154187 402.610241 
L 365.37382 493.699691 
L 365.813084 414.950154 
L 366.032716 465.041207 
L 366.252349 461.520203 
L 366.471981 354.462574 
L 366.691613 471.696433 
L 366.911246 350.587285 
L 367.130878 354.396963 
L 367.35051 383.750264 
L 367.570142 372.237905 
L 367.789775 472.934844 
L 368.009407 510.167278 
L 368.229039 354.071067 
L 368.448672 396.633565 
L 368.668304 378.11886 
L 369.107568 489.751529 
L 369.327201 430.56053 
L 369.546833 492.895303 
L 369.766465 392.755564 
L 369.986098 491.554609 
L 370.20573 494.802767 
L 370.425362 384.234743 
L 370.644994 339.101153 
L 371.084259 444.982167 
L 371.303891 441.050072 
L 371.523524 467.7592 
L 371.743156 289.815324 
L 371.962788 459.576271 
L 372.402053 392.427212 
L 372.621685 370.277466 
L 372.841317 424.689608 
L 373.06095 409.949394 
L 373.280582 303.782978 
L 373.500214 469.413352 
L 373.939479 389.705706 
L 374.159111 382.125019 
L 374.378743 432.783824 
L 374.818008 394.578152 
L 375.03764 492.860591 
L 375.257272 467.833004 
L 375.476905 387.104268 
L 375.696537 522.546988 
L 376.135802 474.755721 
L 376.355434 431.574925 
L 376.575066 505.642684 
L 376.794698 410.178152 
L 377.014331 487.458521 
L 377.233963 407.258982 
L 377.453595 487.609262 
L 377.673228 465.16767 
L 377.89286 384.711777 
L 378.112492 466.448794 
L 378.332124 417.129774 
L 378.551757 477.680971 
L 378.771389 458.343804 
L 378.991021 475.244701 
L 379.210654 480.424366 
L 379.430286 394.930923 
L 379.649918 524.706658 
L 380.089183 407.861857 
L 380.308815 405.796547 
L 380.528447 446.481328 
L 380.748079 310.835762 
L 380.967712 340.223931 
L 381.187344 452.407345 
L 381.406976 477.752936 
L 381.626609 393.504998 
L 381.846241 392.074288 
L 382.065873 447.434126 
L 382.285505 433.96297 
L 382.505138 514.529381 
L 382.72477 415.062348 
L 382.944402 461.883582 
L 383.164035 483.121477 
L 383.383667 330.612042 
L 383.822931 407.100634 
L 384.042564 340.202185 
L 384.262196 419.220825 
L 384.481828 438.833194 
L 384.701461 409.639295 
L 384.921093 418.614146 
L 385.140725 328.978839 
L 385.360357 473.265294 
L 385.57999 450.040406 
L 385.799622 390.145056 
L 386.019254 454.150474 
L 386.238887 448.334398 
L 386.458519 404.711293 
L 386.897783 503.184591 
L 387.117416 427.369005 
L 387.337048 520.352154 
L 387.55668 450.937134 
L 387.776313 453.037917 
L 387.995945 413.631606 
L 388.215577 461.769311 
L 388.435209 385.010494 
L 388.654842 475.540094 
L 389.094106 401.951968 
L 389.313739 492.81097 
L 389.533371 396.81501 
L 389.753003 463.746903 
L 389.972635 395.745715 
L 390.192268 400.954992 
L 390.4119 412.679264 
L 390.631532 330.937095 
L 390.851165 454.140037 
L 391.070797 420.167718 
L 391.290429 460.07355 
L 391.510061 414.885096 
L 391.729694 501.455364 
L 391.949326 399.168447 
L 392.168958 433.339159 
L 392.388591 305.555924 
L 392.608223 288.64572 
L 392.827855 522.491843 
L 393.047487 436.052548 
L 393.26712 503.2494 
L 393.486752 422.902188 
L 393.706384 441.320771 
L 393.926017 312.992557 
L 394.145649 448.342787 
L 394.365281 498.913861 
L 394.584913 433.484911 
L 394.804546 413.752935 
L 395.024178 475.089274 
L 395.24381 417.818262 
L 395.463443 423.86864 
L 395.683075 304.190792 
L 395.902707 396.609807 
L 396.122339 339.867066 
L 396.341972 460.315729 
L 396.781236 357.662871 
L 397.000868 484.117316 
L 397.659765 340.901678 
L 397.879398 311.962242 
L 398.09903 474.669888 
L 398.538294 345.257779 
L 398.757927 449.778138 
L 398.977559 410.703992 
L 399.197191 412.161621 
L 399.416824 409.2616 
L 399.636456 356.203273 
L 399.856088 376.258079 
L 400.07572 480.650929 
L 400.295353 395.524086 
L 400.514985 370.363656 
L 400.734617 377.336489 
L 400.95425 464.250521 
L 401.173882 356.561611 
L 401.393514 463.545158 
L 401.832779 415.359932 
L 402.052411 424.711553 
L 402.272043 412.972344 
L 402.711308 514.055354 
L 402.93094 503.265393 
L 403.150572 369.410328 
L 403.370205 483.983924 
L 403.589837 245.99684 
L 403.809469 226.769852 
L 404.029102 457.400878 
L 404.248734 317.586839 
L 404.468366 423.476641 
L 404.687998 416.19743 
L 404.907631 418.987222 
L 405.127263 405.752413 
L 405.346895 446.31525 
L 405.566528 403.855481 
L 405.78616 447.904999 
L 406.005792 420.514454 
L 406.445057 502.434601 
L 406.664689 281.259863 
L 406.884321 316.772952 
L 407.323586 503.345243 
L 407.543218 421.104988 
L 407.76285 383.587453 
L 407.982483 461.936772 
L 408.202115 461.404293 
L 408.421747 427.635019 
L 408.861012 494.792222 
L 409.080644 346.609531 
L 409.300276 324.352818 
L 409.519909 340.315851 
L 409.959173 479.516695 
L 410.178806 494.277382 
L 410.398438 332.568272 
L 410.837702 415.436258 
L 411.057335 423.42584 
L 411.496599 466.34364 
L 411.716231 395.276898 
L 411.935864 457.374313 
L 412.155496 357.679695 
L 412.375128 489.991281 
L 412.594761 367.13309 
L 412.814393 434.287971 
L 413.253657 281.530726 
L 413.47329 500.618775 
L 413.692922 346.517139 
L 413.912554 372.509112 
L 414.132187 415.297586 
L 414.351819 400.125305 
L 414.571451 408.328576 
L 414.791083 358.195527 
L 415.010716 352.577516 
L 415.230348 479.926598 
L 415.44998 391.741501 
L 415.889245 505.493546 
L 416.108877 382.577574 
L 416.328509 333.85903 
L 416.767774 475.505297 
L 417.207039 311.043454 
L 417.426671 428.535716 
L 417.646303 441.058228 
L 417.865935 491.058594 
L 418.085568 351.881104 
L 418.3052 396.897653 
L 418.524832 378.019458 
L 418.744465 368.964146 
L 418.964097 365.356048 
L 419.183729 432.718073 
L 419.403361 409.859085 
L 419.622994 446.942455 
L 419.842626 434.821947 
L 420.062258 501.933404 
L 420.281891 400.780557 
L 420.501523 469.305757 
L 420.721155 442.085644 
L 420.940787 380.270668 
L 421.16042 393.784983 
L 421.380052 461.270466 
L 421.599684 450.607729 
L 422.038949 356.52679 
L 422.258581 364.75417 
L 422.478213 518.969667 
L 422.697846 343.380224 
L 423.13711 430.611684 
L 423.356743 396.380293 
L 423.576375 508.656265 
L 424.015639 452.366596 
L 424.235272 501.203947 
L 424.454904 508.915366 
L 424.674536 402.12888 
L 425.333433 553.95627 
L 425.553065 444.853023 
L 425.772698 489.720279 
L 425.99233 373.691804 
L 426.211962 463.262805 
L 426.431594 384.181366 
L 426.870859 447.576786 
L 427.090491 331.08679 
L 427.310124 396.429064 
L 427.529756 390.068758 
L 427.749388 401.994314 
L 428.188653 499.077424 
L 428.627917 412.755723 
L 428.84755 309.103414 
L 429.067182 347.457428 
L 429.286814 494.221459 
L 429.506446 498.346005 
L 429.726079 346.971918 
L 429.945711 475.20257 
L 430.165343 428.188992 
L 430.384976 515.719714 
L 430.604608 322.265694 
L 430.82424 445.117841 
L 431.043872 356.205108 
L 431.263505 493.602393 
L 431.483137 361.823602 
L 431.702769 520.623791 
L 431.922402 543.4542 
L 432.361666 388.259942 
L 432.581298 419.473139 
L 432.800931 434.258868 
L 433.240195 309.854815 
L 433.459828 442.106145 
L 433.67946 504.427292 
L 433.899092 388.022907 
L 434.118724 368.204753 
L 434.338357 481.713496 
L 434.777621 511.508333 
L 434.997254 484.258524 
L 435.216886 394.553725 
L 435.436518 460.457468 
L 435.65615 356.500614 
L 435.875783 380.608101 
L 436.095415 482.40704 
L 436.315047 341.12249 
L 436.53468 474.455667 
L 436.754312 391.156065 
L 437.193576 449.129337 
L 437.413209 499.428576 
L 437.632841 291.206713 
L 437.852473 285.237584 
L 438.072106 415.605757 
L 438.291738 460.79111 
L 438.731002 381.699077 
L 438.950635 473.609867 
L 439.170267 393.199222 
L 439.389899 452.667819 
L 439.609532 364.673672 
L 439.829164 469.92478 
L 440.048796 343.034531 
L 440.268428 348.559775 
L 440.488061 252.604245 
L 440.707693 461.610182 
L 440.927325 491.943914 
L 441.146958 368.312479 
L 441.36659 459.465315 
L 441.586222 494.742643 
L 441.805854 363.022754 
L 442.025487 318.35937 
L 442.464751 392.825595 
L 442.684383 468.670907 
L 442.904016 439.732139 
L 443.123648 362.764605 
L 443.34328 367.975733 
L 443.562913 412.884879 
L 443.782545 414.270907 
L 444.002177 326.779099 
L 444.221809 392.103233 
L 444.441442 418.294185 
L 444.661074 398.00856 
L 444.880706 494.980594 
L 445.100339 391.457517 
L 445.319971 378.940317 
L 445.539603 424.706128 
L 445.759235 336.904988 
L 445.978868 542.620532 
L 446.418132 455.995302 
L 446.637765 462.717263 
L 446.857397 264.213704 
L 447.077029 377.254672 
L 447.296661 364.002897 
L 447.516294 332.840632 
L 447.735926 433.796632 
L 447.955558 386.753099 
L 448.175191 462.901601 
L 448.394823 296.781569 
L 448.614455 423.008365 
L 448.834087 459.007831 
L 449.05372 365.861923 
L 449.492984 472.775384 
L 449.712617 269.652206 
L 449.932249 458.81575 
L 450.371513 393.689318 
L 450.591146 392.524554 
L 451.03041 494.643921 
L 451.250043 445.90777 
L 451.469675 431.123666 
L 451.689307 370.856268 
L 451.908939 361.285165 
L 452.128572 384.158454 
L 452.348204 460.080123 
L 452.787469 352.107856 
L 453.007101 378.700023 
L 453.226733 470.347602 
L 453.446365 401.913961 
L 453.665998 514.520679 
L 453.88563 412.649322 
L 454.105262 426.767655 
L 454.324895 416.807625 
L 454.544527 349.852332 
L 454.764159 513.738345 
L 454.983791 390.652478 
L 455.203424 392.737971 
L 455.423056 517.100577 
L 455.642688 358.200834 
L 455.862321 465.259934 
L 456.081953 383.832244 
L 456.521217 444.857661 
L 456.74085 457.030475 
L 456.960482 421.693408 
L 457.180114 343.715154 
L 457.619379 477.780557 
L 457.839011 417.276517 
L 458.058643 453.085565 
L 458.278276 397.504989 
L 458.497908 420.032038 
L 458.71754 415.879785 
L 458.937172 414.125088 
L 459.156805 421.913821 
L 459.376437 485.60433 
L 459.596069 489.296694 
L 459.815702 431.652854 
L 460.035334 470.919174 
L 460.254966 406.641139 
L 460.474598 433.939331 
L 460.694231 492.221265 
L 460.913863 485.562603 
L 461.133495 239.531438 
L 461.57276 483.586927 
L 461.792392 484.611047 
L 462.012024 464.902568 
L 462.231657 377.28436 
L 462.451289 369.273212 
L 462.670921 381.593813 
L 462.890554 409.817925 
L 463.110186 416.984578 
L 463.329818 401.564754 
L 463.54945 430.144209 
L 463.988715 441.320991 
L 464.208347 517.32855 
L 464.42798 329.037788 
L 464.647612 375.72251 
L 464.867244 258.945027 
L 465.086876 468.063735 
L 465.306509 539.84178 
L 465.526141 351.231017 
L 465.745773 481.094377 
L 466.185038 376.524532 
L 466.40467 352.663552 
L 466.624302 370.456546 
L 466.843935 517.93526 
L 467.063567 348.610464 
L 467.283199 336.2994 
L 467.502832 489.906284 
L 467.722464 410.671301 
L 467.942096 441.060608 
L 468.161728 454.843322 
L 468.381361 517.075665 
L 468.600993 477.861731 
L 468.820625 471.981057 
L 469.040258 462.674349 
L 469.479522 333.44597 
L 469.699154 364.756063 
L 469.918787 322.730321 
L 470.138419 475.407725 
L 470.358051 278.732699 
L 470.577684 330.953351 
L 470.797316 460.390334 
L 471.016948 428.54555 
L 471.23658 339.344889 
L 471.456213 363.315286 
L 471.675845 369.483049 
L 471.895477 401.173709 
L 472.11511 449.965023 
L 472.334742 401.274559 
L 472.554374 422.362873 
L 472.774006 373.511351 
L 472.993639 350.595219 
L 473.213271 458.701043 
L 473.432903 364.623943 
L 473.652535 369.189351 
L 473.872168 485.488994 
L 474.0918 478.986427 
L 474.311432 415.217367 
L 474.531065 390.696919 
L 474.750697 417.760686 
L 474.970329 459.942851 
L 475.189961 315.542792 
L 475.409594 355.63709 
L 475.629226 465.982422 
L 475.848858 323.142097 
L 476.068491 424.705823 
L 476.507755 353.966546 
L 476.94702 497.242934 
L 477.166652 499.583687 
L 477.386284 441.689571 
L 477.605917 464.41155 
L 477.825549 460.848293 
L 478.045181 324.031368 
L 478.264813 493.470158 
L 478.704078 407.107494 
L 478.92371 366.369988 
L 479.143343 380.593795 
L 479.582607 452.854846 
L 479.802239 384.202168 
L 480.021872 540.931757 
L 480.241504 521.457023 
L 480.461136 367.984013 
L 480.680769 428.25675 
L 480.900401 429.098149 
L 481.120033 455.525695 
L 481.339665 338.718358 
L 481.559298 340.388465 
L 481.77893 467.169417 
L 481.998562 358.045816 
L 482.218195 457.230917 
L 482.437827 357.744474 
L 482.657459 390.123799 
L 482.877091 358.088663 
L 483.096724 499.47371 
L 483.316356 402.785685 
L 483.535988 423.811454 
L 483.755621 418.070243 
L 483.975253 530.241484 
L 484.194885 426.736372 
L 484.414517 422.266637 
L 484.63415 490.561956 
L 484.853782 418.707038 
L 485.073414 426.431253 
L 485.293047 360.121043 
L 485.512679 447.957609 
L 485.732311 402.094 
L 485.951943 472.389455 
L 486.171576 498.352687 
L 486.391208 358.991379 
L 486.61084 453.502316 
L 486.830473 396.424839 
L 487.050105 443.261738 
L 487.269737 435.187786 
L 487.489369 508.675305 
L 487.709002 451.194262 
L 487.928634 440.77291 
L 488.148266 383.191867 
L 488.587531 435.785213 
L 488.807163 393.385121 
L 489.026795 445.529822 
L 489.246428 400.699267 
L 489.46606 443.340377 
L 489.685692 460.793316 
L 489.905324 514.109713 
L 490.124957 486.853219 
L 490.344589 433.5468 
L 490.564221 416.085745 
L 490.783854 425.865415 
L 491.003486 454.320193 
L 491.223118 411.658125 
L 491.44275 526.689099 
L 491.662383 368.797085 
L 491.882015 367.805317 
L 492.101647 439.315839 
L 492.32128 463.142103 
L 492.540912 563.074408 
L 492.760544 517.315188 
L 492.980176 325.03319 
L 493.199809 426.874911 
L 493.419441 422.521208 
L 493.639073 363.793785 
L 493.858706 418.065471 
L 494.078338 408.812393 
L 494.29797 434.99238 
L 494.517602 408.514405 
L 494.737235 401.813085 
L 494.956867 425.601392 
L 495.176499 422.097245 
L 495.396132 545.485124 
L 495.615764 418.001917 
L 495.835396 458.295998 
L 496.055028 421.740256 
L 496.494293 482.778337 
L 496.713925 367.834321 
L 496.933558 511.610183 
L 497.372822 351.726699 
L 497.812087 442.077405 
L 498.031719 428.280309 
L 498.251351 403.750586 
L 498.470984 473.697065 
L 498.690616 481.763075 
L 498.910248 409.690271 
L 499.349513 473.020858 
L 499.569145 336.844279 
L 499.788777 434.105959 
L 500.00841 339.820211 
L 500.228042 454.579505 
L 500.447674 382.123949 
L 500.667306 462.100882 
L 500.886939 331.357785 
L 501.106571 460.994199 
L 501.326203 506.355321 
L 501.765468 367.42705 
L 501.9851 525.798892 
L 502.424365 419.550903 
L 502.643997 306.1098 
L 503.083262 497.067012 
L 503.302894 300.763931 
L 503.522526 410.00962 
L 503.742158 461.150898 
L 503.961791 371.390716 
L 504.181423 444.726654 
L 504.401055 363.689211 
L 504.620687 464.29943 
L 504.84032 440.986521 
L 505.059952 374.146714 
L 505.279584 412.616553 
L 505.499217 313.54138 
L 505.938481 439.588436 
L 506.158113 323.063607 
L 506.377746 485.152684 
L 506.597378 381.19212 
L 507.256275 434.393134 
L 507.475907 500.853973 
L 507.695539 426.03996 
L 507.915172 284.562989 
L 508.134804 413.325742 
L 508.354436 371.956866 
L 508.793701 398.871471 
L 509.013333 439.791854 
L 509.452598 412.104703 
L 509.67223 506.96099 
L 509.891862 469.367092 
L 510.111495 360.014547 
L 510.550759 452.685072 
L 510.770391 429.651593 
L 510.990024 535.469181 
L 511.209656 359.170758 
L 511.429288 481.903775 
L 511.648921 391.561854 
L 511.868553 424.060095 
L 512.088185 405.031113 
L 512.52745 430.106627 
L 512.747082 369.105356 
L 512.966714 580.503039 
L 513.186347 508.260544 
L 513.405979 576.999596 
L 513.625611 442.771677 
L 513.845243 517.638102 
L 514.064876 521.023604 
L 514.284508 329.379595 
L 514.50414 518.167071 
L 514.723773 336.919153 
L 514.943405 386.680673 
L 515.163037 468.002918 
L 515.382669 462.330084 
L 515.602302 361.399952 
L 515.821934 449.72054 
L 516.041566 463.254138 
L 516.261199 363.429865 
L 516.700463 530.42417 
L 517.139728 438.916277 
L 517.35936 412.877243 
L 517.798625 456.33951 
L 518.457521 315.664578 
L 518.677154 448.574742 
L 518.896786 424.935569 
L 519.33605 480.458499 
L 519.555683 417.257922 
L 519.775315 453.183621 
L 519.994947 466.502422 
L 520.21458 538.460464 
L 520.434212 410.583713 
L 520.653844 414.530092 
L 520.873476 451.841424 
L 521.093109 511.937665 
L 521.312741 456.757842 
L 521.532373 435.101501 
L 521.752006 455.930107 
L 521.971638 399.965171 
L 522.19127 412.856263 
L 522.410902 468.822454 
L 522.630535 453.989891 
L 522.850167 401.204402 
L 523.069799 491.105891 
L 523.509064 395.735328 
L 523.728696 457.27191 
L 523.948328 403.646841 
L 524.167961 495.345042 
L 524.387593 310.484982 
L 524.607225 493.310493 
L 524.826858 419.162802 
L 525.04649 461.866727 
L 525.266122 405.236974 
L 525.485754 316.880644 
L 525.705387 458.828857 
L 525.925019 478.856987 
L 526.364284 364.70163 
L 526.583916 496.684047 
L 526.803548 387.244468 
L 527.02318 343.898698 
L 527.242813 421.352448 
L 527.462445 459.607731 
L 527.682077 475.841226 
L 527.90171 395.968288 
L 528.121342 460.563582 
L 528.560606 459.396786 
L 528.780239 389.23181 
L 528.999871 368.124304 
L 529.219503 364.373538 
L 529.439136 389.566709 
L 529.658768 358.594185 
L 529.8784 375.345359 
L 530.098032 453.722182 
L 530.317665 479.830084 
L 530.537297 355.016798 
L 530.756929 467.498134 
L 530.976562 488.744178 
L 531.196194 429.233871 
L 531.415826 462.21247 
L 531.635458 419.831425 
L 531.855091 452.914125 
L 532.074723 435.469332 
L 532.294355 403.842881 
L 532.513988 449.362866 
L 532.73362 342.55029 
L 532.953252 451.070611 
L 533.172884 447.371559 
L 533.392517 325.819029 
L 533.612149 472.530606 
L 533.831781 440.208768 
L 534.051413 513.920162 
L 534.271046 389.503412 
L 534.490678 347.585953 
L 534.71031 480.510908 
L 534.929943 398.714601 
L 535.149575 390.741555 
L 535.369207 360.779848 
L 535.588839 381.45631 
L 535.808472 467.090101 
L 536.028104 278.999659 
L 536.467369 454.973303 
L 536.687001 396.109686 
L 536.906633 522.831538 
L 537.345898 434.542989 
L 537.56553 436.321085 
L 537.785162 418.275643 
L 538.004795 514.633717 
L 538.224427 440.339924 
L 538.444059 509.765078 
L 538.663691 470.629148 
L 538.883324 530.24723 
L 539.102956 500.164317 
L 539.322588 323.107533 
L 539.542221 511.020853 
L 539.761853 428.161701 
L 539.981485 432.311088 
L 540.201117 359.248467 
L 540.42075 453.394707 
L 540.640382 372.222122 
L 541.079647 561.027856 
L 541.299279 424.31433 
L 541.518911 477.452644 
L 541.738543 352.894936 
L 542.177808 427.963319 
L 542.39744 377.698222 
L 542.617073 447.903382 
L 542.836705 271.033785 
L 543.056337 496.735397 
L 543.275969 399.648269 
L 543.495602 421.816425 
L 543.715234 428.766996 
L 543.934866 462.050477 
L 544.154499 401.419018 
L 544.374131 257.62206 
L 544.813395 452.822812 
L 545.033028 435.651508 
L 545.25266 466.77127 
L 545.472292 380.847998 
L 545.691925 374.510201 
L 545.911557 415.686128 
L 545.911557 415.686128 
" style="fill:none;stroke:#96c69a;stroke-linecap:round;stroke-width:3;"/>
   </g>
   <g id="line2d_2"/>
   <g id="patch_3">
    <path d="M 84.914375 602.94 
L 84.914375 109.326857 
" style="fill:none;stroke:#262626;stroke-linecap:square;stroke-linejoin:miter;stroke-width:2.5;"/>
   </g>
   <g id="patch_4">
    <path d="M 84.914375 602.94 
L 567.863804 602.94 
" style="fill:none;stroke:#262626;stroke-linecap:square;stroke-linejoin:miter;stroke-width:2.5;"/>
   </g>
   <g id="legend_1">
    <g id="patch_5">
     <path d="M 514.948179 597.94 
L 560.863804 597.94 
Q 562.863804 597.94 562.863804 595.94 
L 562.863804 554.034375 
Q 562.863804 552.034375 560.863804 552.034375 
L 514.948179 552.034375 
Q 512.948179 552.034375 512.948179 554.034375 
L 512.948179 595.94 
Q 512.948179 597.94 514.948179 597.94 
z
" style="fill:#ffffff;opacity:0.8;stroke:#cccccc;stroke-linejoin:miter;stroke-width:2;"/>
    </g>
    <g id="text_14">
     <!-- $n_\tau$ -->
     <g style="fill:#262626;" transform="translate(524.825991 574.270625)scale(0.24 -0.24)">
      <defs>
       <path d="M 3566 2113 
L 3156 0 
L 2578 0 
L 2988 2091 
Q 3016 2238 3031 2350 
Q 3047 2463 3047 2528 
Q 3047 2791 2881 2937 
Q 2716 3084 2419 3084 
Q 1956 3084 1622 2776 
Q 1288 2469 1184 1941 
L 800 0 
L 225 0 
L 903 3500 
L 1478 3500 
L 1363 2950 
Q 1603 3253 1940 3418 
Q 2278 3584 2650 3584 
Q 3113 3584 3367 3334 
Q 3622 3084 3622 2631 
Q 3622 2519 3608 2391 
Q 3594 2263 3566 2113 
z
" id="DejaVuSans-Oblique-6e" transform="scale(0.015625)"/>
       <path d="M 2103 638 
Q 2188 488 2525 488 
L 2800 488 
L 2706 0 
L 2363 0 
Q 1800 0 1600 300 
Q 1403 606 1534 1269 
L 1856 2925 
L 541 2925 
L 653 3500 
L 3881 3500 
L 3769 2925 
L 2444 2925 
L 2113 1234 
Q 2025 781 2103 638 
z
" id="DejaVuSans-Oblique-3c4" transform="scale(0.015625)"/>
      </defs>
      <use xlink:href="#DejaVuSans-Oblique-6e"/>
      <use transform="translate(63.378906 -16.40625)scale(0.7)" xlink:href="#DejaVuSans-Oblique-3c4"/>
     </g>
    </g>
    <g id="line2d_3">
     <path d="M 516.948179 588.360312 
L 536.948179 588.360312 
" style="fill:none;stroke:#96c69a;stroke-linecap:round;stroke-width:3;"/>
    </g>
    <g id="line2d_4"/>
    <g id="text_15">
     <!-- 40 -->
     <g style="fill:#262626;" transform="translate(544.948179 591.860312)scale(0.1 -0.1)">
      <defs>
       <path d="M 2356 3675 
L 1038 1722 
L 2356 1722 
L 2356 3675 
z
M 2156 4666 
L 3494 4666 
L 3494 1722 
L 4159 1722 
L 4159 850 
L 3494 850 
L 3494 0 
L 2356 0 
L 2356 850 
L 288 850 
L 288 1881 
L 2156 4666 
z
" id="DejaVuSans-Bold-34" transform="scale(0.015625)"/>
       <path d="M 2944 2338 
Q 2944 3213 2780 3570 
Q 2616 3928 2228 3928 
Q 1841 3928 1675 3570 
Q 1509 3213 1509 2338 
Q 1509 1453 1675 1090 
Q 1841 728 2228 728 
Q 2613 728 2778 1090 
Q 2944 1453 2944 2338 
z
M 4147 2328 
Q 4147 1169 3647 539 
Q 3147 -91 2228 -91 
Q 1306 -91 806 539 
Q 306 1169 306 2328 
Q 306 3491 806 4120 
Q 1306 4750 2228 4750 
Q 3147 4750 3647 4120 
Q 4147 3491 4147 2328 
z
" id="DejaVuSans-Bold-30" transform="scale(0.015625)"/>
      </defs>
      <use xlink:href="#DejaVuSans-Bold-34"/>
      <use x="69.580078" xlink:href="#DejaVuSans-Bold-30"/>
     </g>
    </g>
   </g>
  </g>
  <g id="axes_2">
   <g id="patch_6">
    <path d="M 84.914375 92.305714 
L 567.863804 92.305714 
L 567.863804 7.2 
L 84.914375 7.2 
z
" style="fill:none;"/>
   </g>
   <g id="matplotlib.axis_3">
    <g id="xtick_7"/>
    <g id="xtick_8"/>
    <g id="xtick_9"/>
    <g id="xtick_10"/>
    <g id="xtick_11"/>
    <g id="xtick_12"/>
   </g>
   <g id="matplotlib.axis_4">
    <g id="ytick_6">
     <g id="text_16">
      <!-- 0 -->
      <g style="fill:#262626;" transform="translate(55.416875 100.663996)scale(0.22 -0.22)">
       <use xlink:href="#DejaVuSans-30"/>
      </g>
     </g>
    </g>
    <g id="ytick_7">
     <g id="text_17">
      <!-- 100 -->
      <g style="fill:#262626;" transform="translate(27.421875 48.032138)scale(0.22 -0.22)">
       <use xlink:href="#DejaVuSans-31"/>
       <use x="63.623047" xlink:href="#DejaVuSans-30"/>
       <use x="127.246094" xlink:href="#DejaVuSans-30"/>
      </g>
     </g>
    </g>
   </g>
   <g id="patch_7">
    <path clip-path="url(#p21219e4e8c)" d="M 106.866622 92.305714 
L 140.639309 92.305714 
L 140.639309 11.252653 
L 106.866622 11.252653 
z
" style="fill:#96c69a;fill-opacity:0.5;stroke:#ffffff;stroke-linejoin:miter;stroke-width:2;"/>
   </g>
   <g id="patch_8">
    <path clip-path="url(#p21219e4e8c)" d="M 140.639309 92.305714 
L 174.411996 92.305714 
L 174.411996 11.252653 
L 140.639309 11.252653 
z
" style="fill:#96c69a;fill-opacity:0.5;stroke:#ffffff;stroke-linejoin:miter;stroke-width:2;"/>
   </g>
   <g id="patch_9">
    <path clip-path="url(#p21219e4e8c)" d="M 174.411996 92.305714 
L 208.184684 92.305714 
L 208.184684 11.252653 
L 174.411996 11.252653 
z
" style="fill:#96c69a;fill-opacity:0.5;stroke:#ffffff;stroke-linejoin:miter;stroke-width:2;"/>
   </g>
   <g id="patch_10">
    <path clip-path="url(#p21219e4e8c)" d="M 208.184684 92.305714 
L 241.957371 92.305714 
L 241.957371 11.252653 
L 208.184684 11.252653 
z
" style="fill:#96c69a;fill-opacity:0.5;stroke:#ffffff;stroke-linejoin:miter;stroke-width:2;"/>
   </g>
   <g id="patch_11">
    <path clip-path="url(#p21219e4e8c)" d="M 241.957371 92.305714 
L 275.730058 92.305714 
L 275.730058 11.778972 
L 241.957371 11.778972 
z
" style="fill:#96c69a;fill-opacity:0.5;stroke:#ffffff;stroke-linejoin:miter;stroke-width:2;"/>
   </g>
   <g id="patch_12">
    <path clip-path="url(#p21219e4e8c)" d="M 275.730058 92.305714 
L 309.502746 92.305714 
L 309.502746 11.252653 
L 275.730058 11.252653 
z
" style="fill:#96c69a;fill-opacity:0.5;stroke:#ffffff;stroke-linejoin:miter;stroke-width:2;"/>
   </g>
   <g id="patch_13">
    <path clip-path="url(#p21219e4e8c)" d="M 309.502746 92.305714 
L 343.275433 92.305714 
L 343.275433 11.252653 
L 309.502746 11.252653 
z
" style="fill:#96c69a;fill-opacity:0.5;stroke:#ffffff;stroke-linejoin:miter;stroke-width:2;"/>
   </g>
   <g id="patch_14">
    <path clip-path="url(#p21219e4e8c)" d="M 343.275433 92.305714 
L 377.04812 92.305714 
L 377.04812 11.252653 
L 343.275433 11.252653 
z
" style="fill:#96c69a;fill-opacity:0.5;stroke:#ffffff;stroke-linejoin:miter;stroke-width:2;"/>
   </g>
   <g id="patch_15">
    <path clip-path="url(#p21219e4e8c)" d="M 377.04812 92.305714 
L 410.820808 92.305714 
L 410.820808 11.778972 
L 377.04812 11.778972 
z
" style="fill:#96c69a;fill-opacity:0.5;stroke:#ffffff;stroke-linejoin:miter;stroke-width:2;"/>
   </g>
   <g id="patch_16">
    <path clip-path="url(#p21219e4e8c)" d="M 410.820808 92.305714 
L 444.593495 92.305714 
L 444.593495 11.252653 
L 410.820808 11.252653 
z
" style="fill:#96c69a;fill-opacity:0.5;stroke:#ffffff;stroke-linejoin:miter;stroke-width:2;"/>
   </g>
   <g id="patch_17">
    <path clip-path="url(#p21219e4e8c)" d="M 444.593495 92.305714 
L 478.366182 92.305714 
L 478.366182 11.252653 
L 444.593495 11.252653 
z
" style="fill:#96c69a;fill-opacity:0.5;stroke:#ffffff;stroke-linejoin:miter;stroke-width:2;"/>
   </g>
   <g id="patch_18">
    <path clip-path="url(#p21219e4e8c)" d="M 478.366182 92.305714 
L 512.13887 92.305714 
L 512.13887 11.252653 
L 478.366182 11.252653 
z
" style="fill:#96c69a;fill-opacity:0.5;stroke:#ffffff;stroke-linejoin:miter;stroke-width:2;"/>
   </g>
   <g id="patch_19">
    <path clip-path="url(#p21219e4e8c)" d="M 512.13887 92.305714 
L 545.911557 92.305714 
L 545.911557 11.252653 
L 512.13887 11.252653 
z
" style="fill:#96c69a;fill-opacity:0.5;stroke:#ffffff;stroke-linejoin:miter;stroke-width:2;"/>
   </g>
   <g id="patch_20">
    <path d="M 84.914375 92.305714 
L 84.914375 7.2 
" style="fill:none;stroke:#262626;stroke-linecap:square;stroke-linejoin:miter;stroke-width:2.5;"/>
   </g>
   <g id="patch_21">
    <path d="M 84.914375 92.305714 
L 567.863804 92.305714 
" style="fill:none;stroke:#262626;stroke-linecap:square;stroke-linejoin:miter;stroke-width:2.5;"/>
   </g>
  </g>
  <g id="axes_3">
   <g id="patch_22">
    <path d="M 584.517232 602.94 
L 667.784375 602.94 
L 667.784375 109.326857 
L 584.517232 109.326857 
z
" style="fill:none;"/>
   </g>
   <g id="matplotlib.axis_5">
    <g id="xtick_13">
     <g id="text_18">
      <!-- 0 -->
      <g style="fill:#262626;" transform="translate(577.518482 635.156562)scale(0.22 -0.22)">
       <use xlink:href="#DejaVuSans-30"/>
      </g>
     </g>
    </g>
    <g id="xtick_14">
     <g id="text_19">
      <!-- 100 -->
      <g style="fill:#262626;" transform="translate(608.836434 635.156562)scale(0.22 -0.22)">
       <use xlink:href="#DejaVuSans-31"/>
       <use x="63.623047" xlink:href="#DejaVuSans-30"/>
       <use x="127.246094" xlink:href="#DejaVuSans-30"/>
      </g>
     </g>
    </g>
   </g>
   <g id="matplotlib.axis_6">
    <g id="ytick_8"/>
    <g id="ytick_9"/>
    <g id="ytick_10"/>
    <g id="ytick_11"/>
    <g id="ytick_12"/>
   </g>
   <g id="patch_23">
    <path clip-path="url(#pefa242e2db)" d="M 584.517232 580.503039 
L 585.423541 580.503039 
L 585.423541 568.038061 
L 584.517232 568.038061 
z
" style="fill:#96c69a;fill-opacity:0.5;stroke:#ffffff;stroke-linejoin:miter;stroke-width:1.246498;"/>
   </g>
   <g id="patch_24">
    <path clip-path="url(#pefa242e2db)" d="M 584.517232 568.038061 
L 586.783005 568.038061 
L 586.783005 555.573082 
L 584.517232 555.573082 
z
" style="fill:#96c69a;fill-opacity:0.5;stroke:#ffffff;stroke-linejoin:miter;stroke-width:1.246498;"/>
   </g>
   <g id="patch_25">
    <path clip-path="url(#pefa242e2db)" d="M 584.517232 555.573082 
L 587.236159 555.573082 
L 587.236159 543.108104 
L 584.517232 543.108104 
z
" style="fill:#96c69a;fill-opacity:0.5;stroke:#ffffff;stroke-linejoin:miter;stroke-width:1.246498;"/>
   </g>
   <g id="patch_26">
    <path clip-path="url(#pefa242e2db)" d="M 584.517232 543.108104 
L 589.955086 543.108104 
L 589.955086 530.643126 
L 584.517232 530.643126 
z
" style="fill:#96c69a;fill-opacity:0.5;stroke:#ffffff;stroke-linejoin:miter;stroke-width:1.246498;"/>
   </g>
   <g id="patch_27">
    <path clip-path="url(#pefa242e2db)" d="M 584.517232 530.643126 
L 599.018177 530.643126 
L 599.018177 518.178147 
L 584.517232 518.178147 
z
" style="fill:#96c69a;fill-opacity:0.5;stroke:#ffffff;stroke-linejoin:miter;stroke-width:1.246498;"/>
   </g>
   <g id="patch_28">
    <path clip-path="url(#pefa242e2db)" d="M 584.517232 518.178147 
L 607.174958 518.178147 
L 607.174958 505.713169 
L 584.517232 505.713169 
z
" style="fill:#96c69a;fill-opacity:0.5;stroke:#ffffff;stroke-linejoin:miter;stroke-width:1.246498;"/>
   </g>
   <g id="patch_29">
    <path clip-path="url(#pefa242e2db)" d="M 584.517232 505.713169 
L 621.222748 505.713169 
L 621.222748 493.24819 
L 584.517232 493.24819 
z
" style="fill:#96c69a;fill-opacity:0.5;stroke:#ffffff;stroke-linejoin:miter;stroke-width:1.246498;"/>
   </g>
   <g id="patch_30">
    <path clip-path="url(#pefa242e2db)" d="M 584.517232 493.24819 
L 637.536311 493.24819 
L 637.536311 480.783212 
L 584.517232 480.783212 
z
" style="fill:#96c69a;fill-opacity:0.5;stroke:#ffffff;stroke-linejoin:miter;stroke-width:1.246498;"/>
   </g>
   <g id="patch_31">
    <path clip-path="url(#pefa242e2db)" d="M 584.517232 480.783212 
L 642.067856 480.783212 
L 642.067856 468.318234 
L 584.517232 468.318234 
z
" style="fill:#96c69a;fill-opacity:0.5;stroke:#ffffff;stroke-linejoin:miter;stroke-width:1.246498;"/>
   </g>
   <g id="patch_32">
    <path clip-path="url(#pefa242e2db)" d="M 584.517232 468.318234 
L 663.819273 468.318234 
L 663.819273 455.853255 
L 584.517232 455.853255 
z
" style="fill:#96c69a;fill-opacity:0.5;stroke:#ffffff;stroke-linejoin:miter;stroke-width:1.246498;"/>
   </g>
   <g id="patch_33">
    <path clip-path="url(#pefa242e2db)" d="M 584.517232 455.853255 
L 647.50571 455.853255 
L 647.50571 443.388277 
L 584.517232 443.388277 
z
" style="fill:#96c69a;fill-opacity:0.5;stroke:#ffffff;stroke-linejoin:miter;stroke-width:1.246498;"/>
   </g>
   <g id="patch_34">
    <path clip-path="url(#pefa242e2db)" d="M 584.517232 443.388277 
L 653.849874 443.388277 
L 653.849874 430.923299 
L 584.517232 430.923299 
z
" style="fill:#96c69a;fill-opacity:0.5;stroke:#ffffff;stroke-linejoin:miter;stroke-width:1.246498;"/>
   </g>
   <g id="patch_35">
    <path clip-path="url(#pefa242e2db)" d="M 584.517232 430.923299 
L 658.834573 430.923299 
L 658.834573 418.45832 
L 584.517232 418.45832 
z
" style="fill:#96c69a;fill-opacity:0.5;stroke:#ffffff;stroke-linejoin:miter;stroke-width:1.246498;"/>
   </g>
   <g id="patch_36">
    <path clip-path="url(#pefa242e2db)" d="M 584.517232 418.45832 
L 663.366118 418.45832 
L 663.366118 405.993342 
L 584.517232 405.993342 
z
" style="fill:#96c69a;fill-opacity:0.5;stroke:#ffffff;stroke-linejoin:miter;stroke-width:1.246498;"/>
   </g>
   <g id="patch_37">
    <path clip-path="url(#pefa242e2db)" d="M 584.517232 405.993342 
L 657.47511 405.993342 
L 657.47511 393.528364 
L 584.517232 393.528364 
z
" style="fill:#96c69a;fill-opacity:0.5;stroke:#ffffff;stroke-linejoin:miter;stroke-width:1.246498;"/>
   </g>
   <g id="patch_38">
    <path clip-path="url(#pefa242e2db)" d="M 584.517232 393.528364 
L 645.693092 393.528364 
L 645.693092 381.063385 
L 584.517232 381.063385 
z
" style="fill:#96c69a;fill-opacity:0.5;stroke:#ffffff;stroke-linejoin:miter;stroke-width:1.246498;"/>
   </g>
   <g id="patch_39">
    <path clip-path="url(#pefa242e2db)" d="M 584.517232 381.063385 
L 631.645302 381.063385 
L 631.645302 368.598407 
L 584.517232 368.598407 
z
" style="fill:#96c69a;fill-opacity:0.5;stroke:#ffffff;stroke-linejoin:miter;stroke-width:1.246498;"/>
   </g>
   <g id="patch_40">
    <path clip-path="url(#pefa242e2db)" d="M 584.517232 368.598407 
L 628.020066 368.598407 
L 628.020066 356.133429 
L 584.517232 356.133429 
z
" style="fill:#96c69a;fill-opacity:0.5;stroke:#ffffff;stroke-linejoin:miter;stroke-width:1.246498;"/>
   </g>
   <g id="patch_41">
    <path clip-path="url(#pefa242e2db)" d="M 584.517232 356.133429 
L 618.503821 356.133429 
L 618.503821 343.66845 
L 584.517232 343.66845 
z
" style="fill:#96c69a;fill-opacity:0.5;stroke:#ffffff;stroke-linejoin:miter;stroke-width:1.246498;"/>
   </g>
   <g id="patch_42">
    <path clip-path="url(#pefa242e2db)" d="M 584.517232 343.66845 
L 606.721804 343.66845 
L 606.721804 331.203472 
L 584.517232 331.203472 
z
" style="fill:#96c69a;fill-opacity:0.5;stroke:#ffffff;stroke-linejoin:miter;stroke-width:1.246498;"/>
   </g>
   <g id="patch_43">
    <path clip-path="url(#pefa242e2db)" d="M 584.517232 331.203472 
L 605.36234 331.203472 
L 605.36234 318.738494 
L 584.517232 318.738494 
z
" style="fill:#96c69a;fill-opacity:0.5;stroke:#ffffff;stroke-linejoin:miter;stroke-width:1.246498;"/>
   </g>
   <g id="patch_44">
    <path clip-path="url(#pefa242e2db)" d="M 584.517232 318.738494 
L 600.37764 318.738494 
L 600.37764 306.273515 
L 584.517232 306.273515 
z
" style="fill:#96c69a;fill-opacity:0.5;stroke:#ffffff;stroke-linejoin:miter;stroke-width:1.246498;"/>
   </g>
   <g id="patch_45">
    <path clip-path="url(#pefa242e2db)" d="M 584.517232 306.273515 
L 591.767704 306.273515 
L 591.767704 293.808537 
L 584.517232 293.808537 
z
" style="fill:#96c69a;fill-opacity:0.5;stroke:#ffffff;stroke-linejoin:miter;stroke-width:1.246498;"/>
   </g>
   <g id="patch_46">
    <path clip-path="url(#pefa242e2db)" d="M 584.517232 293.808537 
L 594.939786 293.808537 
L 594.939786 281.343558 
L 584.517232 281.343558 
z
" style="fill:#96c69a;fill-opacity:0.5;stroke:#ffffff;stroke-linejoin:miter;stroke-width:1.246498;"/>
   </g>
   <g id="patch_47">
    <path clip-path="url(#pefa242e2db)" d="M 584.517232 281.343558 
L 587.689314 281.343558 
L 587.689314 268.87858 
L 584.517232 268.87858 
z
" style="fill:#96c69a;fill-opacity:0.5;stroke:#ffffff;stroke-linejoin:miter;stroke-width:1.246498;"/>
   </g>
   <g id="patch_48">
    <path clip-path="url(#pefa242e2db)" d="M 584.517232 268.87858 
L 587.689314 268.87858 
L 587.689314 256.413602 
L 584.517232 256.413602 
z
" style="fill:#96c69a;fill-opacity:0.5;stroke:#ffffff;stroke-linejoin:miter;stroke-width:1.246498;"/>
   </g>
   <g id="patch_49">
    <path clip-path="url(#pefa242e2db)" d="M 584.517232 256.413602 
L 586.32985 256.413602 
L 586.32985 243.948623 
L 584.517232 243.948623 
z
" style="fill:#96c69a;fill-opacity:0.5;stroke:#ffffff;stroke-linejoin:miter;stroke-width:1.246498;"/>
   </g>
   <g id="patch_50">
    <path clip-path="url(#pefa242e2db)" d="M 584.517232 243.948623 
L 585.423541 243.948623 
L 585.423541 231.483645 
L 584.517232 231.483645 
z
" style="fill:#96c69a;fill-opacity:0.5;stroke:#ffffff;stroke-linejoin:miter;stroke-width:1.246498;"/>
   </g>
   <g id="patch_51">
    <path clip-path="url(#pefa242e2db)" d="M 584.517232 231.483645 
L 584.970387 231.483645 
L 584.970387 219.018667 
L 584.517232 219.018667 
z
" style="fill:#96c69a;fill-opacity:0.5;stroke:#ffffff;stroke-linejoin:miter;stroke-width:1.246498;"/>
   </g>
   <g id="patch_52">
    <path clip-path="url(#pefa242e2db)" d="M 584.517232 219.018667 
L 584.517232 219.018667 
L 584.517232 206.553688 
L 584.517232 206.553688 
z
" style="fill:#96c69a;fill-opacity:0.5;stroke:#ffffff;stroke-linejoin:miter;stroke-width:1.246498;"/>
   </g>
   <g id="patch_53">
    <path clip-path="url(#pefa242e2db)" d="M 584.517232 206.553688 
L 584.970387 206.553688 
L 584.970387 194.08871 
L 584.517232 194.08871 
z
" style="fill:#96c69a;fill-opacity:0.5;stroke:#ffffff;stroke-linejoin:miter;stroke-width:1.246498;"/>
   </g>
   <g id="patch_54">
    <path clip-path="url(#pefa242e2db)" d="M 584.517232 194.08871 
L 584.517232 194.08871 
L 584.517232 181.623732 
L 584.517232 181.623732 
z
" style="fill:#96c69a;fill-opacity:0.5;stroke:#ffffff;stroke-linejoin:miter;stroke-width:1.246498;"/>
   </g>
   <g id="patch_55">
    <path clip-path="url(#pefa242e2db)" d="M 584.517232 181.623732 
L 584.517232 181.623732 
L 584.517232 169.158753 
L 584.517232 169.158753 
z
" style="fill:#96c69a;fill-opacity:0.5;stroke:#ffffff;stroke-linejoin:miter;stroke-width:1.246498;"/>
   </g>
   <g id="patch_56">
    <path clip-path="url(#pefa242e2db)" d="M 584.517232 169.158753 
L 584.517232 169.158753 
L 584.517232 156.693775 
L 584.517232 156.693775 
z
" style="fill:#96c69a;fill-opacity:0.5;stroke:#ffffff;stroke-linejoin:miter;stroke-width:1.246498;"/>
   </g>
   <g id="patch_57">
    <path clip-path="url(#pefa242e2db)" d="M 584.517232 156.693775 
L 584.517232 156.693775 
L 584.517232 144.228797 
L 584.517232 144.228797 
z
" style="fill:#96c69a;fill-opacity:0.5;stroke:#ffffff;stroke-linejoin:miter;stroke-width:1.246498;"/>
   </g>
   <g id="patch_58">
    <path clip-path="url(#pefa242e2db)" d="M 584.517232 144.228797 
L 584.970387 144.228797 
L 584.970387 131.763818 
L 584.517232 131.763818 
z
" style="fill:#96c69a;fill-opacity:0.5;stroke:#ffffff;stroke-linejoin:miter;stroke-width:1.246498;"/>
   </g>
   <g id="patch_59">
    <path d="M 584.517232 602.94 
L 584.517232 109.326857 
" style="fill:none;stroke:#262626;stroke-linecap:square;stroke-linejoin:miter;stroke-width:2.5;"/>
   </g>
   <g id="patch_60">
    <path d="M 584.517232 602.94 
L 667.784375 602.94 
" style="fill:none;stroke:#262626;stroke-linecap:square;stroke-linejoin:miter;stroke-width:2.5;"/>
   </g>
  </g>
 </g>
 <defs>
  <clipPath id="pe32a7cc033">
   <rect height="493.613143" width="482.949429" x="84.914375" y="109.326857"/>
  </clipPath>
  <clipPath id="p21219e4e8c">
   <rect height="85.105714" width="482.949429" x="84.914375" y="7.2"/>
  </clipPath>
  <clipPath id="pefa242e2db">
   <rect height="493.613143" width="83.267143" x="584.517232" y="109.326857"/>
  </clipPath>
 </defs>
</svg>
