<?xml version="1.0" encoding="utf-8" standalone="no"?>
<!DOCTYPE svg PUBLIC "-//W3C//DTD SVG 1.1//EN"
  "http://www.w3.org/Graphics/SVG/1.1/DTD/svg11.dtd">
<svg height="674.159375pt" version="1.1" viewBox="0 0 674.984375 674.159375" width="674.984375pt" xmlns="http://www.w3.org/2000/svg" xmlns:xlink="http://www.w3.org/1999/xlink">
 <metadata>
  <rdf:RDF xmlns:cc="http://creativecommons.org/ns#" xmlns:dc="http://purl.org/dc/elements/1.1/" xmlns:rdf="http://www.w3.org/1999/02/22-rdf-syntax-ns#">
   <cc:Work>
    <dc:type rdf:resource="http://purl.org/dc/dcmitype/StillImage"/>
    <dc:date>2021-07-24T14:50:48.292667</dc:date>
    <dc:format>image/svg+xml</dc:format>
    <dc:creator>
     <cc:Agent>
      <dc:title>Matplotlib v3.4.2, https://matplotlib.org/</dc:title>
     </cc:Agent>
    </dc:creator>
   </cc:Work>
  </rdf:RDF>
 </metadata>
 <defs>
  <style type="text/css">*{stroke-linecap:butt;stroke-linejoin:round;}</style>
 </defs>
 <g id="figure_1">
  <g id="patch_1">
   <path d="M 0 674.159375 
L 674.984375 674.159375 
L 674.984375 0 
L 0 0 
z
" style="fill:#ffffff;"/>
  </g>
  <g id="axes_1">
   <g id="patch_2">
    <path d="M 84.914375 602.94 
L 567.863804 602.94 
L 567.863804 109.326857 
L 84.914375 109.326857 
z
" style="fill:none;"/>
   </g>
   <g id="matplotlib.axis_1">
    <g id="xtick_1">
     <g id="text_1">
      <!-- 0 -->
      <g style="fill:#262626;" transform="translate(99.428387 635.156562)scale(0.22 -0.22)">
       <defs>
        <path d="M 2034 4250 
Q 1547 4250 1301 3770 
Q 1056 3291 1056 2328 
Q 1056 1369 1301 889 
Q 1547 409 2034 409 
Q 2525 409 2770 889 
Q 3016 1369 3016 2328 
Q 3016 3291 2770 3770 
Q 2525 4250 2034 4250 
z
M 2034 4750 
Q 2819 4750 3233 4129 
Q 3647 3509 3647 2328 
Q 3647 1150 3233 529 
Q 2819 -91 2034 -91 
Q 1250 -91 836 529 
Q 422 1150 422 2328 
Q 422 3509 836 4129 
Q 1250 4750 2034 4750 
z
" id="DejaVuSans-30" transform="scale(0.015625)"/>
       </defs>
       <use xlink:href="#DejaVuSans-30"/>
      </g>
     </g>
    </g>
    <g id="xtick_2">
     <g id="text_2">
      <!-- 20000 -->
      <g style="fill:#262626;" transform="translate(159.330271 635.156562)scale(0.22 -0.22)">
       <defs>
        <path d="M 1228 531 
L 3431 531 
L 3431 0 
L 469 0 
L 469 531 
Q 828 903 1448 1529 
Q 2069 2156 2228 2338 
Q 2531 2678 2651 2914 
Q 2772 3150 2772 3378 
Q 2772 3750 2511 3984 
Q 2250 4219 1831 4219 
Q 1534 4219 1204 4116 
Q 875 4013 500 3803 
L 500 4441 
Q 881 4594 1212 4672 
Q 1544 4750 1819 4750 
Q 2544 4750 2975 4387 
Q 3406 4025 3406 3419 
Q 3406 3131 3298 2873 
Q 3191 2616 2906 2266 
Q 2828 2175 2409 1742 
Q 1991 1309 1228 531 
z
" id="DejaVuSans-32" transform="scale(0.015625)"/>
       </defs>
       <use xlink:href="#DejaVuSans-32"/>
       <use x="63.623047" xlink:href="#DejaVuSans-30"/>
       <use x="127.246094" xlink:href="#DejaVuSans-30"/>
       <use x="190.869141" xlink:href="#DejaVuSans-30"/>
       <use x="254.492188" xlink:href="#DejaVuSans-30"/>
      </g>
     </g>
    </g>
    <g id="xtick_3">
     <g id="text_3">
      <!-- 40000 -->
      <g style="fill:#262626;" transform="translate(247.227155 635.156562)scale(0.22 -0.22)">
       <defs>
        <path d="M 2419 4116 
L 825 1625 
L 2419 1625 
L 2419 4116 
z
M 2253 4666 
L 3047 4666 
L 3047 1625 
L 3713 1625 
L 3713 1100 
L 3047 1100 
L 3047 0 
L 2419 0 
L 2419 1100 
L 313 1100 
L 313 1709 
L 2253 4666 
z
" id="DejaVuSans-34" transform="scale(0.015625)"/>
       </defs>
       <use xlink:href="#DejaVuSans-34"/>
       <use x="63.623047" xlink:href="#DejaVuSans-30"/>
       <use x="127.246094" xlink:href="#DejaVuSans-30"/>
       <use x="190.869141" xlink:href="#DejaVuSans-30"/>
       <use x="254.492188" xlink:href="#DejaVuSans-30"/>
      </g>
     </g>
    </g>
    <g id="xtick_4">
     <g id="text_4">
      <!-- 60000 -->
      <g style="fill:#262626;" transform="translate(335.124039 635.156562)scale(0.22 -0.22)">
       <defs>
        <path d="M 2113 2584 
Q 1688 2584 1439 2293 
Q 1191 2003 1191 1497 
Q 1191 994 1439 701 
Q 1688 409 2113 409 
Q 2538 409 2786 701 
Q 3034 994 3034 1497 
Q 3034 2003 2786 2293 
Q 2538 2584 2113 2584 
z
M 3366 4563 
L 3366 3988 
Q 3128 4100 2886 4159 
Q 2644 4219 2406 4219 
Q 1781 4219 1451 3797 
Q 1122 3375 1075 2522 
Q 1259 2794 1537 2939 
Q 1816 3084 2150 3084 
Q 2853 3084 3261 2657 
Q 3669 2231 3669 1497 
Q 3669 778 3244 343 
Q 2819 -91 2113 -91 
Q 1303 -91 875 529 
Q 447 1150 447 2328 
Q 447 3434 972 4092 
Q 1497 4750 2381 4750 
Q 2619 4750 2861 4703 
Q 3103 4656 3366 4563 
z
" id="DejaVuSans-36" transform="scale(0.015625)"/>
       </defs>
       <use xlink:href="#DejaVuSans-36"/>
       <use x="63.623047" xlink:href="#DejaVuSans-30"/>
       <use x="127.246094" xlink:href="#DejaVuSans-30"/>
       <use x="190.869141" xlink:href="#DejaVuSans-30"/>
       <use x="254.492188" xlink:href="#DejaVuSans-30"/>
      </g>
     </g>
    </g>
    <g id="xtick_5">
     <g id="text_5">
      <!-- 80000 -->
      <g style="fill:#262626;" transform="translate(423.020923 635.156562)scale(0.22 -0.22)">
       <defs>
        <path d="M 2034 2216 
Q 1584 2216 1326 1975 
Q 1069 1734 1069 1313 
Q 1069 891 1326 650 
Q 1584 409 2034 409 
Q 2484 409 2743 651 
Q 3003 894 3003 1313 
Q 3003 1734 2745 1975 
Q 2488 2216 2034 2216 
z
M 1403 2484 
Q 997 2584 770 2862 
Q 544 3141 544 3541 
Q 544 4100 942 4425 
Q 1341 4750 2034 4750 
Q 2731 4750 3128 4425 
Q 3525 4100 3525 3541 
Q 3525 3141 3298 2862 
Q 3072 2584 2669 2484 
Q 3125 2378 3379 2068 
Q 3634 1759 3634 1313 
Q 3634 634 3220 271 
Q 2806 -91 2034 -91 
Q 1263 -91 848 271 
Q 434 634 434 1313 
Q 434 1759 690 2068 
Q 947 2378 1403 2484 
z
M 1172 3481 
Q 1172 3119 1398 2916 
Q 1625 2713 2034 2713 
Q 2441 2713 2670 2916 
Q 2900 3119 2900 3481 
Q 2900 3844 2670 4047 
Q 2441 4250 2034 4250 
Q 1625 4250 1398 4047 
Q 1172 3844 1172 3481 
z
" id="DejaVuSans-38" transform="scale(0.015625)"/>
       </defs>
       <use xlink:href="#DejaVuSans-38"/>
       <use x="63.623047" xlink:href="#DejaVuSans-30"/>
       <use x="127.246094" xlink:href="#DejaVuSans-30"/>
       <use x="190.869141" xlink:href="#DejaVuSans-30"/>
       <use x="254.492188" xlink:href="#DejaVuSans-30"/>
      </g>
     </g>
    </g>
    <g id="xtick_6">
     <g id="text_6">
      <!-- 100000 -->
      <g style="fill:#262626;" transform="translate(503.919057 635.156562)scale(0.22 -0.22)">
       <defs>
        <path d="M 794 531 
L 1825 531 
L 1825 4091 
L 703 3866 
L 703 4441 
L 1819 4666 
L 2450 4666 
L 2450 531 
L 3481 531 
L 3481 0 
L 794 0 
L 794 531 
z
" id="DejaVuSans-31" transform="scale(0.015625)"/>
       </defs>
       <use xlink:href="#DejaVuSans-31"/>
       <use x="63.623047" xlink:href="#DejaVuSans-30"/>
       <use x="127.246094" xlink:href="#DejaVuSans-30"/>
       <use x="190.869141" xlink:href="#DejaVuSans-30"/>
       <use x="254.492188" xlink:href="#DejaVuSans-30"/>
       <use x="318.115234" xlink:href="#DejaVuSans-30"/>
      </g>
     </g>
    </g>
    <g id="text_7">
     <!-- MDTU -->
     <g style="fill:#262626;" transform="translate(290.683464 661.968125)scale(0.24 -0.24)">
      <defs>
       <path d="M 628 4666 
L 1569 4666 
L 2759 1491 
L 3956 4666 
L 4897 4666 
L 4897 0 
L 4281 0 
L 4281 4097 
L 3078 897 
L 2444 897 
L 1241 4097 
L 1241 0 
L 628 0 
L 628 4666 
z
" id="DejaVuSans-4d" transform="scale(0.015625)"/>
       <path d="M 1259 4147 
L 1259 519 
L 2022 519 
Q 2988 519 3436 956 
Q 3884 1394 3884 2338 
Q 3884 3275 3436 3711 
Q 2988 4147 2022 4147 
L 1259 4147 
z
M 628 4666 
L 1925 4666 
Q 3281 4666 3915 4102 
Q 4550 3538 4550 2338 
Q 4550 1131 3912 565 
Q 3275 0 1925 0 
L 628 0 
L 628 4666 
z
" id="DejaVuSans-44" transform="scale(0.015625)"/>
       <path d="M -19 4666 
L 3928 4666 
L 3928 4134 
L 2272 4134 
L 2272 0 
L 1638 0 
L 1638 4134 
L -19 4134 
L -19 4666 
z
" id="DejaVuSans-54" transform="scale(0.015625)"/>
       <path d="M 556 4666 
L 1191 4666 
L 1191 1831 
Q 1191 1081 1462 751 
Q 1734 422 2344 422 
Q 2950 422 3222 751 
Q 3494 1081 3494 1831 
L 3494 4666 
L 4128 4666 
L 4128 1753 
Q 4128 841 3676 375 
Q 3225 -91 2344 -91 
Q 1459 -91 1007 375 
Q 556 841 556 1753 
L 556 4666 
z
" id="DejaVuSans-55" transform="scale(0.015625)"/>
      </defs>
      <use xlink:href="#DejaVuSans-4d"/>
      <use x="86.279297" xlink:href="#DejaVuSans-44"/>
      <use x="163.28125" xlink:href="#DejaVuSans-54"/>
      <use x="224.365234" xlink:href="#DejaVuSans-55"/>
     </g>
    </g>
   </g>
   <g id="matplotlib.axis_2">
    <g id="ytick_1">
     <g id="text_8">
      <!-- 0.4 -->
      <g style="fill:#262626;" transform="translate(34.4275 600.437919)scale(0.22 -0.22)">
       <defs>
        <path d="M 684 794 
L 1344 794 
L 1344 0 
L 684 0 
L 684 794 
z
" id="DejaVuSans-2e" transform="scale(0.015625)"/>
       </defs>
       <use xlink:href="#DejaVuSans-30"/>
       <use x="63.623047" xlink:href="#DejaVuSans-2e"/>
       <use x="95.410156" xlink:href="#DejaVuSans-34"/>
      </g>
     </g>
    </g>
    <g id="ytick_2">
     <g id="text_9">
      <!-- 0.5 -->
      <g style="fill:#262626;" transform="translate(34.4275 545.425195)scale(0.22 -0.22)">
       <defs>
        <path d="M 691 4666 
L 3169 4666 
L 3169 4134 
L 1269 4134 
L 1269 2991 
Q 1406 3038 1543 3061 
Q 1681 3084 1819 3084 
Q 2600 3084 3056 2656 
Q 3513 2228 3513 1497 
Q 3513 744 3044 326 
Q 2575 -91 1722 -91 
Q 1428 -91 1123 -41 
Q 819 9 494 109 
L 494 744 
Q 775 591 1075 516 
Q 1375 441 1709 441 
Q 2250 441 2565 725 
Q 2881 1009 2881 1497 
Q 2881 1984 2565 2268 
Q 2250 2553 1709 2553 
Q 1456 2553 1204 2497 
Q 953 2441 691 2322 
L 691 4666 
z
" id="DejaVuSans-35" transform="scale(0.015625)"/>
       </defs>
       <use xlink:href="#DejaVuSans-30"/>
       <use x="63.623047" xlink:href="#DejaVuSans-2e"/>
       <use x="95.410156" xlink:href="#DejaVuSans-35"/>
      </g>
     </g>
    </g>
    <g id="ytick_3">
     <g id="text_10">
      <!-- 0.6 -->
      <g style="fill:#262626;" transform="translate(34.4275 490.41247)scale(0.22 -0.22)">
       <use xlink:href="#DejaVuSans-30"/>
       <use x="63.623047" xlink:href="#DejaVuSans-2e"/>
       <use x="95.410156" xlink:href="#DejaVuSans-36"/>
      </g>
     </g>
    </g>
    <g id="ytick_4">
     <g id="text_11">
      <!-- 0.7 -->
      <g style="fill:#262626;" transform="translate(34.4275 435.399746)scale(0.22 -0.22)">
       <defs>
        <path d="M 525 4666 
L 3525 4666 
L 3525 4397 
L 1831 0 
L 1172 0 
L 2766 4134 
L 525 4134 
L 525 4666 
z
" id="DejaVuSans-37" transform="scale(0.015625)"/>
       </defs>
       <use xlink:href="#DejaVuSans-30"/>
       <use x="63.623047" xlink:href="#DejaVuSans-2e"/>
       <use x="95.410156" xlink:href="#DejaVuSans-37"/>
      </g>
     </g>
    </g>
    <g id="ytick_5">
     <g id="text_12">
      <!-- 0.8 -->
      <g style="fill:#262626;" transform="translate(34.4275 380.387021)scale(0.22 -0.22)">
       <use xlink:href="#DejaVuSans-30"/>
       <use x="63.623047" xlink:href="#DejaVuSans-2e"/>
       <use x="95.410156" xlink:href="#DejaVuSans-38"/>
      </g>
     </g>
    </g>
    <g id="ytick_6">
     <g id="text_13">
      <!-- 0.9 -->
      <g style="fill:#262626;" transform="translate(34.4275 325.374297)scale(0.22 -0.22)">
       <defs>
        <path d="M 703 97 
L 703 672 
Q 941 559 1184 500 
Q 1428 441 1663 441 
Q 2288 441 2617 861 
Q 2947 1281 2994 2138 
Q 2813 1869 2534 1725 
Q 2256 1581 1919 1581 
Q 1219 1581 811 2004 
Q 403 2428 403 3163 
Q 403 3881 828 4315 
Q 1253 4750 1959 4750 
Q 2769 4750 3195 4129 
Q 3622 3509 3622 2328 
Q 3622 1225 3098 567 
Q 2575 -91 1691 -91 
Q 1453 -91 1209 -44 
Q 966 3 703 97 
z
M 1959 2075 
Q 2384 2075 2632 2365 
Q 2881 2656 2881 3163 
Q 2881 3666 2632 3958 
Q 2384 4250 1959 4250 
Q 1534 4250 1286 3958 
Q 1038 3666 1038 3163 
Q 1038 2656 1286 2365 
Q 1534 2075 1959 2075 
z
" id="DejaVuSans-39" transform="scale(0.015625)"/>
       </defs>
       <use xlink:href="#DejaVuSans-30"/>
       <use x="63.623047" xlink:href="#DejaVuSans-2e"/>
       <use x="95.410156" xlink:href="#DejaVuSans-39"/>
      </g>
     </g>
    </g>
    <g id="ytick_7">
     <g id="text_14">
      <!-- 1.0 -->
      <g style="fill:#262626;" transform="translate(34.4275 270.361573)scale(0.22 -0.22)">
       <use xlink:href="#DejaVuSans-31"/>
       <use x="63.623047" xlink:href="#DejaVuSans-2e"/>
       <use x="95.410156" xlink:href="#DejaVuSans-30"/>
      </g>
     </g>
    </g>
    <g id="ytick_8">
     <g id="text_15">
      <!-- 1.1 -->
      <g style="fill:#262626;" transform="translate(34.4275 215.348848)scale(0.22 -0.22)">
       <use xlink:href="#DejaVuSans-31"/>
       <use x="63.623047" xlink:href="#DejaVuSans-2e"/>
       <use x="95.410156" xlink:href="#DejaVuSans-31"/>
      </g>
     </g>
    </g>
    <g id="ytick_9">
     <g id="text_16">
      <!-- 1.2 -->
      <g style="fill:#262626;" transform="translate(34.4275 160.336124)scale(0.22 -0.22)">
       <use xlink:href="#DejaVuSans-31"/>
       <use x="63.623047" xlink:href="#DejaVuSans-2e"/>
       <use x="95.410156" xlink:href="#DejaVuSans-32"/>
      </g>
     </g>
    </g>
    <g id="text_17">
     <!-- $E$ -->
     <g style="fill:#262626;" transform="translate(25.43625 363.813429)rotate(-90)scale(0.24 -0.24)">
      <defs>
       <path d="M 1081 4666 
L 4031 4666 
L 3928 4134 
L 1606 4134 
L 1338 2753 
L 3566 2753 
L 3463 2222 
L 1234 2222 
L 909 531 
L 3284 531 
L 3181 0 
L 172 0 
L 1081 4666 
z
" id="DejaVuSans-Oblique-45" transform="scale(0.015625)"/>
      </defs>
      <use transform="translate(0 0.09375)" xlink:href="#DejaVuSans-Oblique-45"/>
     </g>
    </g>
   </g>
   <g id="line2d_1">
    <path clip-path="url(#pa7a00c7e9a)" d="M 106.866622 397.969477 
L 107.306106 408.209271 
L 107.745591 394.791194 
L 108.185075 396.365317 
L 108.624559 393.698617 
L 109.064044 492.997943 
L 109.943013 356.464901 
L 110.382497 299.702505 
L 110.821982 397.242063 
L 111.261466 336.669564 
L 111.70095 396.674364 
L 112.140435 406.48412 
L 113.019404 414.044495 
L 113.458888 407.505562 
L 113.898372 488.947952 
L 114.337857 507.963218 
L 114.777341 426.399853 
L 115.216826 382.886176 
L 115.65631 446.954525 
L 116.095795 397.100195 
L 116.535279 466.597887 
L 116.974763 388.858788 
L 117.414248 381.281106 
L 117.853732 484.946272 
L 118.293217 362.059224 
L 118.732701 396.217349 
L 119.172185 492.726878 
L 119.61167 364.842874 
L 120.051154 366.865478 
L 120.490639 356.672364 
L 120.930123 383.581887 
L 121.369608 514.282635 
L 121.809092 340.812885 
L 122.248576 371.934544 
L 122.688061 435.736992 
L 123.127545 432.23253 
L 123.56703 427.658533 
L 124.445999 467.018942 
L 124.885483 425.323386 
L 125.324967 365.340429 
L 125.764452 489.746892 
L 126.203936 304.681956 
L 127.082905 521.6014 
L 127.522389 386.553722 
L 127.961874 454.181574 
L 128.401358 425.115691 
L 128.840843 383.604118 
L 129.280327 468.286076 
L 129.719812 476.305539 
L 130.159296 365.196724 
L 130.59878 361.481426 
L 131.038265 430.717301 
L 131.477749 321.670106 
L 131.917234 418.848464 
L 132.356718 486.9058 
L 132.796203 350.134502 
L 133.235687 331.370166 
L 133.675171 456.979423 
L 134.55414 288.118788 
L 134.993625 460.486516 
L 135.433109 354.437444 
L 135.872593 485.725135 
L 136.312078 442.800871 
L 136.751562 378.336904 
L 137.191047 376.653034 
L 137.630531 403.509199 
L 138.070016 397.139773 
L 138.5095 459.064074 
L 138.948984 393.342235 
L 139.388469 389.07787 
L 139.827953 409.48659 
L 140.267438 416.188304 
L 140.706922 389.347139 
L 141.146406 414.799531 
L 141.585891 368.310473 
L 142.025375 366.910254 
L 142.904344 324.541052 
L 143.343829 422.60143 
L 143.783313 444.390098 
L 144.222797 345.50971 
L 144.662282 373.810932 
L 145.101766 482.639214 
L 145.541251 395.471897 
L 145.980735 495.733892 
L 146.859704 410.384526 
L 147.299188 430.404371 
L 147.738673 442.216437 
L 148.178157 410.969301 
L 148.617642 242.279003 
L 149.057126 314.58841 
L 149.49661 465.940735 
L 149.936095 362.410699 
L 150.375579 452.021078 
L 150.815064 373.495831 
L 151.254548 432.436827 
L 151.694033 378.014817 
L 152.133517 392.039121 
L 152.573001 424.202601 
L 153.012486 433.674917 
L 153.45197 486.451541 
L 153.891455 381.154236 
L 154.330939 355.194736 
L 154.770423 512.891261 
L 155.209908 500.684979 
L 155.649392 389.950363 
L 156.088877 408.110212 
L 156.528361 471.2303 
L 156.967846 477.329653 
L 157.40733 276.708019 
L 157.846814 399.661696 
L 158.286299 291.713152 
L 158.725783 326.933398 
L 159.165268 413.198725 
L 159.604752 434.302511 
L 160.044237 408.106814 
L 160.483721 473.368911 
L 161.36269 421.731596 
L 161.802174 315.939019 
L 162.241659 479.633719 
L 162.681143 343.060314 
L 163.120627 452.780419 
L 163.560112 352.575175 
L 163.999596 378.69724 
L 164.439081 419.456432 
L 164.878565 417.340912 
L 165.31805 327.288895 
L 165.757534 291.312673 
L 166.636503 455.414784 
L 167.075987 481.239546 
L 167.515472 477.759167 
L 167.954956 291.95649 
L 168.39444 466.027939 
L 169.273409 380.056936 
L 169.712894 451.400811 
L 170.152378 434.766066 
L 170.591863 396.299461 
L 171.031347 511.372487 
L 171.470831 490.017708 
L 171.910316 336.793687 
L 172.3498 499.416641 
L 172.789285 456.323669 
L 173.228769 399.953054 
L 173.668254 376.062081 
L 174.107738 386.064772 
L 174.547222 473.081403 
L 174.986707 488.900278 
L 175.426191 460.239965 
L 175.865676 370.79741 
L 176.30516 365.872792 
L 176.744644 296.124535 
L 177.184129 305.425764 
L 177.623613 323.719998 
L 178.063098 325.911108 
L 178.502582 488.216046 
L 178.942067 413.202343 
L 179.381551 280.507321 
L 179.821035 313.168667 
L 180.700004 487.96115 
L 181.139489 369.052535 
L 181.578973 429.574781 
L 182.018457 421.656195 
L 182.457942 393.393416 
L 182.897426 332.852466 
L 183.336911 475.439568 
L 183.776395 399.796861 
L 184.21588 304.007198 
L 184.655364 423.724223 
L 185.094848 499.779874 
L 185.534333 388.437264 
L 185.973817 379.909811 
L 186.413302 436.138768 
L 186.852786 368.223614 
L 187.292271 419.271188 
L 187.731755 347.514692 
L 188.171239 378.994858 
L 188.610724 371.571608 
L 189.050208 373.337023 
L 189.489693 388.051147 
L 189.929177 418.954234 
L 190.368661 424.258563 
L 190.808146 451.179097 
L 191.24763 359.794751 
L 191.687115 458.342853 
L 192.126599 362.092268 
L 192.566084 354.496995 
L 193.005568 456.348491 
L 193.445052 474.581688 
L 193.884537 292.209965 
L 194.324021 462.083603 
L 194.763506 333.618207 
L 195.20299 337.267134 
L 195.642474 450.911869 
L 196.081959 471.470199 
L 196.521443 391.143322 
L 196.960928 393.928609 
L 197.400412 486.954905 
L 197.839897 485.850905 
L 198.279381 490.6234 
L 198.718865 459.707721 
L 199.15835 329.579544 
L 199.597834 393.199241 
L 200.037319 366.745961 
L 200.476803 444.816594 
L 200.916288 377.922418 
L 201.355772 468.055975 
L 201.795256 481.836025 
L 202.234741 453.102962 
L 202.674225 397.535842 
L 203.11371 510.878787 
L 203.553194 357.789967 
L 203.992678 453.408437 
L 204.432163 457.380194 
L 204.871647 533.996163 
L 205.311132 460.797275 
L 205.750616 511.700375 
L 206.190101 427.26501 
L 206.629585 482.266584 
L 207.069069 442.923152 
L 207.508554 178.090665 
L 207.948038 447.858163 
L 208.387523 475.72833 
L 208.827007 361.942293 
L 209.266491 379.58224 
L 209.705976 462.843645 
L 210.14546 345.148926 
L 210.584945 427.380244 
L 211.024429 409.397806 
L 211.463914 469.016527 
L 211.903398 370.939527 
L 212.342882 312.925941 
L 212.782367 443.97855 
L 213.221851 448.7201 
L 213.661336 309.357498 
L 214.10082 319.137902 
L 214.540305 389.904567 
L 214.979789 406.661516 
L 215.419273 394.515443 
L 215.858758 427.564985 
L 216.298242 401.896191 
L 216.737727 463.18506 
L 217.177211 305.208689 
L 217.616695 501.492786 
L 218.05618 338.532483 
L 218.495664 440.439798 
L 218.935149 415.352142 
L 219.814118 469.344387 
L 220.693086 339.968455 
L 221.132571 360.954853 
L 221.572055 454.657895 
L 222.01154 395.861605 
L 222.451024 413.413863 
L 222.890508 405.082863 
L 223.329993 477.333829 
L 224.208962 366.685297 
L 225.087931 327.789802 
L 225.527415 415.964225 
L 225.966899 370.97622 
L 226.406384 440.37447 
L 226.845868 349.65903 
L 227.285353 374.027108 
L 227.724837 493.95841 
L 228.164322 475.233667 
L 228.603806 367.015568 
L 229.04329 486.797719 
L 229.482775 509.992754 
L 229.922259 397.531988 
L 230.361744 425.900341 
L 230.801228 462.579408 
L 231.240712 367.544099 
L 231.680197 467.93709 
L 232.119681 325.402128 
L 232.559166 358.139298 
L 232.99865 402.81003 
L 233.438135 421.792801 
L 233.877619 354.966996 
L 234.317103 411.311992 
L 234.756588 397.07129 
L 235.196072 396.391364 
L 235.635557 262.951196 
L 236.075041 497.394809 
L 236.514526 348.26931 
L 236.95401 335.146176 
L 237.393494 433.957759 
L 237.832979 429.67198 
L 238.272463 382.335433 
L 238.711948 492.372217 
L 239.151432 374.710432 
L 239.590916 481.483161 
L 240.030401 375.719259 
L 240.469885 451.724575 
L 240.90937 387.80662 
L 241.348854 358.913944 
L 241.788339 359.248914 
L 242.227823 441.661481 
L 242.667307 431.522945 
L 243.106792 370.170726 
L 243.546276 208.695584 
L 243.985761 365.014659 
L 244.425245 404.834576 
L 244.864729 470.825157 
L 245.304214 360.843973 
L 245.743698 468.075656 
L 246.183183 382.221384 
L 246.622667 333.507786 
L 247.062152 478.987663 
L 247.501636 398.514053 
L 247.94112 472.280857 
L 248.380605 443.215952 
L 248.820089 429.34988 
L 249.259574 453.592415 
L 249.699058 381.432848 
L 250.138543 420.124408 
L 250.578027 440.278948 
L 251.017511 427.838884 
L 251.456996 450.586632 
L 252.775449 364.534193 
L 253.214933 436.684001 
L 253.654418 469.812092 
L 254.093902 427.939178 
L 254.533387 455.691417 
L 254.972871 344.776399 
L 255.412356 422.769023 
L 255.85184 381.885513 
L 256.291324 440.856471 
L 256.730809 370.195791 
L 257.170293 400.014272 
L 257.609778 410.429555 
L 258.049262 396.223197 
L 258.488746 391.288267 
L 258.928231 482.610647 
L 259.367715 377.100844 
L 259.8072 471.875414 
L 260.246684 403.34074 
L 260.686169 437.846226 
L 261.125653 330.032374 
L 261.565137 432.995095 
L 262.004622 450.592732 
L 262.444106 491.169604 
L 262.883591 408.269817 
L 263.323075 397.538391 
L 263.76256 408.869687 
L 264.202044 359.728938 
L 264.641528 448.666832 
L 265.081013 268.683274 
L 265.520497 505.433026 
L 265.959982 508.471833 
L 266.399466 383.160432 
L 266.83895 424.420401 
L 267.278435 443.575935 
L 267.717919 487.352621 
L 268.157404 274.562173 
L 268.596888 410.437458 
L 269.036373 367.424092 
L 269.475857 401.694496 
L 269.915341 485.47875 
L 270.354826 423.489125 
L 270.79431 311.186956 
L 271.233795 386.5433 
L 271.673279 427.919703 
L 272.112763 381.728446 
L 272.552248 305.683059 
L 272.991732 366.137694 
L 273.431217 367.959772 
L 273.870701 383.870858 
L 274.310186 443.679784 
L 274.74967 354.328364 
L 275.189154 314.584367 
L 275.628639 416.801055 
L 276.068123 316.310931 
L 276.507608 468.990075 
L 276.947092 247.175686 
L 277.386577 434.198346 
L 277.826061 455.923061 
L 278.265545 367.884629 
L 278.70503 393.436176 
L 279.144514 403.672828 
L 279.583999 375.470783 
L 280.023483 406.13881 
L 280.462967 472.552239 
L 280.902452 297.995655 
L 281.341936 463.059105 
L 281.781421 399.149906 
L 282.220905 371.280989 
L 282.66039 418.348626 
L 283.099874 379.919754 
L 283.539358 373.909445 
L 283.978843 308.366112 
L 284.418327 442.163473 
L 284.857812 500.380011 
L 285.297296 438.285107 
L 285.73678 488.534818 
L 286.176265 320.77179 
L 286.615749 501.996863 
L 287.055234 317.355717 
L 287.494718 442.822715 
L 287.934203 460.285939 
L 288.373687 373.523722 
L 288.813171 463.089422 
L 289.252656 457.594952 
L 289.69214 376.595445 
L 290.131625 492.604402 
L 290.571109 477.24589 
L 291.010594 501.954962 
L 291.450078 455.609644 
L 291.889562 469.455794 
L 292.329047 300.595119 
L 292.768531 263.911963 
L 293.208016 404.024548 
L 293.6475 473.960482 
L 294.086984 464.216268 
L 294.526469 444.497199 
L 294.965953 376.025437 
L 295.405438 403.646983 
L 295.844922 319.59197 
L 296.284407 488.973873 
L 296.723891 442.40994 
L 297.163375 367.19525 
L 297.60286 394.488473 
L 298.042344 347.808833 
L 298.481829 352.801859 
L 298.921313 321.175336 
L 299.360797 333.216873 
L 299.800282 400.471358 
L 300.239766 510.084059 
L 300.679251 458.025987 
L 301.118735 475.209326 
L 301.55822 274.782287 
L 301.997704 418.139071 
L 302.437188 434.529946 
L 302.876673 388.515793 
L 303.316157 445.325891 
L 304.195126 407.220874 
L 304.634611 376.484058 
L 305.074095 415.838719 
L 305.513579 561.8706 
L 305.953064 438.686452 
L 306.392548 495.089349 
L 306.832033 357.495044 
L 307.271517 285.192591 
L 307.711001 428.560304 
L 308.150486 427.81962 
L 308.58997 416.689659 
L 309.029455 399.719844 
L 309.468939 300.689344 
L 309.908424 394.67274 
L 310.347908 424.51728 
L 310.787392 565.689019 
L 311.226877 409.12646 
L 311.666361 436.278232 
L 312.105846 390.241467 
L 312.54533 447.094449 
L 312.984814 429.807103 
L 313.424299 333.587198 
L 313.863783 328.94351 
L 314.303268 351.475801 
L 314.742752 356.567158 
L 315.182237 383.983025 
L 315.621721 333.562077 
L 316.061205 412.884047 
L 316.50069 436.018804 
L 316.940174 450.096044 
L 317.379659 500.929315 
L 317.819143 320.337425 
L 318.258628 277.494304 
L 318.698112 336.918103 
L 319.137596 412.59113 
L 319.577081 336.716725 
L 320.016565 416.121309 
L 320.45605 379.537556 
L 320.895534 454.956835 
L 321.335018 462.418363 
L 321.774503 352.127692 
L 322.213987 408.433447 
L 322.653472 387.360677 
L 323.092956 403.65092 
L 323.532441 395.253178 
L 323.971925 483.773077 
L 324.411409 378.441575 
L 324.850894 438.80112 
L 325.290378 361.781509 
L 325.729863 380.832066 
L 326.169347 407.207545 
L 327.048316 313.736197 
L 327.4878 332.134814 
L 327.927285 442.729628 
L 328.366769 414.844098 
L 328.806254 354.317561 
L 329.245738 425.102315 
L 329.685222 410.059798 
L 330.124707 466.641792 
L 330.564191 204.231958 
L 331.003676 460.258665 
L 331.44316 314.059578 
L 331.882645 343.438618 
L 332.322129 310.526105 
L 332.761613 376.728225 
L 333.201098 302.491775 
L 333.640582 404.014224 
L 334.080067 460.820937 
L 334.519551 424.873935 
L 334.959035 532.453428 
L 335.39852 489.421756 
L 335.838004 366.659978 
L 336.277489 331.83333 
L 336.716973 328.174235 
L 337.156458 418.776701 
L 337.595942 433.82922 
L 338.035426 284.179 
L 338.474911 395.608479 
L 338.914395 418.93943 
L 339.35388 351.698551 
L 339.793364 432.544605 
L 340.232848 488.79872 
L 340.672333 316.016157 
L 341.111817 487.827654 
L 341.551302 367.055168 
L 341.990786 422.137688 
L 342.430271 404.006948 
L 342.869755 423.238151 
L 343.748724 403.182509 
L 344.188208 313.428761 
L 344.627693 443.800786 
L 345.506662 402.710891 
L 346.38563 473.867362 
L 346.825115 364.187469 
L 347.264599 458.126275 
L 347.704084 473.818232 
L 348.143568 420.232588 
L 348.583052 328.064503 
L 349.462021 479.848159 
L 349.901506 457.416741 
L 350.34099 499.039354 
L 350.780475 507.102466 
L 351.219959 338.861289 
L 351.659443 350.2091 
L 352.098928 373.975154 
L 352.538412 445.455888 
L 352.977897 419.187617 
L 353.417381 426.079214 
L 353.856866 497.326265 
L 354.29635 474.851343 
L 354.735834 385.352814 
L 355.175319 385.756832 
L 355.614803 435.180301 
L 356.054288 348.188047 
L 356.493772 302.046773 
L 356.933256 419.324018 
L 357.372741 397.146348 
L 357.812225 393.465073 
L 358.25171 475.659098 
L 358.691194 327.358017 
L 359.130679 398.932396 
L 360.009647 452.768707 
L 360.449132 395.559621 
L 360.888616 452.473831 
L 361.767585 400.149182 
L 362.207069 462.970472 
L 362.646554 398.478764 
L 363.086038 365.202892 
L 363.525523 482.289381 
L 363.965007 413.267343 
L 364.404492 450.430391 
L 364.843976 398.2606 
L 365.28346 387.161795 
L 365.722945 423.956221 
L 366.162429 398.522265 
L 366.601914 311.815904 
L 367.041398 408.544411 
L 367.480883 311.99391 
L 367.920367 392.644709 
L 368.359851 406.124037 
L 368.799336 328.873914 
L 369.23882 403.231502 
L 369.678305 426.95411 
L 370.117789 233.60234 
L 370.557273 374.042883 
L 370.996758 375.297708 
L 371.436242 407.618732 
L 371.875727 371.163616 
L 372.315211 367.927912 
L 372.754696 580.503039 
L 373.19418 437.125816 
L 373.633664 416.997644 
L 374.073149 358.342071 
L 374.512633 412.604778 
L 374.952118 417.233666 
L 375.391602 402.593662 
L 375.831086 479.546899 
L 376.270571 464.667995 
L 376.710055 473.090137 
L 377.14954 493.825154 
L 377.589024 429.191894 
L 378.028509 318.825841 
L 378.467993 408.453818 
L 378.907477 373.337297 
L 379.346962 412.554851 
L 379.786446 356.474508 
L 380.225931 457.300587 
L 380.665415 356.652613 
L 381.1049 416.48484 
L 381.544384 411.218399 
L 381.983868 420.883914 
L 382.423353 274.778134 
L 382.862837 426.963244 
L 383.302322 364.300143 
L 383.741806 357.263772 
L 384.18129 323.156092 
L 384.620775 308.302202 
L 385.060259 299.337637 
L 385.499744 471.783453 
L 386.378713 377.927856 
L 386.818197 406.843772 
L 387.257681 427.443573 
L 387.697166 425.702607 
L 388.13665 437.783325 
L 388.576135 546.308316 
L 389.015619 427.688236 
L 389.455103 391.479341 
L 389.894588 397.72519 
L 390.334072 419.856648 
L 390.773557 393.06132 
L 391.213041 386.471992 
L 391.652526 411.520096 
L 392.09201 477.320673 
L 392.531494 392.669626 
L 392.970979 514.333852 
L 393.410463 461.986232 
L 393.849948 341.704866 
L 394.289432 487.438109 
L 394.728917 417.739319 
L 395.168401 425.928599 
L 395.607885 430.331071 
L 396.04737 462.103299 
L 396.486854 341.299661 
L 396.926339 424.011732 
L 397.365823 381.499143 
L 397.805307 484.495162 
L 398.244792 488.253524 
L 398.684276 429.027252 
L 399.123761 318.716384 
L 399.563245 427.345568 
L 400.00273 289.795279 
L 400.442214 284.891958 
L 400.881698 343.166516 
L 401.321183 291.467673 
L 402.200152 456.625409 
L 402.639636 484.309155 
L 403.07912 435.641823 
L 403.518605 298.312339 
L 403.958089 484.10484 
L 404.397574 376.50437 
L 404.837058 416.704263 
L 405.276543 479.804707 
L 405.716027 414.489376 
L 406.155511 433.190244 
L 406.594996 328.295322 
L 407.03448 510.570623 
L 407.473965 437.150969 
L 407.913449 438.891577 
L 408.352934 450.540159 
L 408.792418 327.588832 
L 409.231902 405.324741 
L 409.671387 302.858477 
L 410.110871 416.802051 
L 410.550356 414.38043 
L 410.98984 357.833588 
L 411.429324 504.402479 
L 411.868809 352.943999 
L 412.308293 509.602559 
L 412.747778 281.760045 
L 413.187262 262.133955 
L 413.626747 425.500586 
L 414.066231 325.392361 
L 414.505715 409.948344 
L 414.9452 302.172454 
L 415.384684 493.234876 
L 415.824169 358.281099 
L 416.263653 556.498217 
L 416.703137 294.688784 
L 417.142622 453.795147 
L 417.582106 360.85671 
L 418.021591 379.77668 
L 418.461075 335.434365 
L 418.90056 408.46719 
L 419.779528 373.98721 
L 420.219013 393.615115 
L 420.658497 369.17476 
L 421.097982 427.791049 
L 421.537466 297.719337 
L 421.976951 439.718135 
L 422.416435 399.933604 
L 422.855919 423.1703 
L 423.295404 420.935046 
L 423.734888 472.347681 
L 424.174373 447.554892 
L 424.613857 439.92696 
L 425.053341 275.253119 
L 425.492826 478.379777 
L 425.93231 420.989624 
L 426.371795 454.248024 
L 427.690248 347.872941 
L 428.129732 445.210806 
L 428.569217 410.14593 
L 429.008701 415.181678 
L 429.448186 303.191928 
L 429.88767 324.574134 
L 430.327154 400.954019 
L 430.766639 394.41456 
L 431.206123 432.979218 
L 431.645608 423.72006 
L 432.085092 421.938604 
L 432.524577 433.932865 
L 432.964061 413.769681 
L 433.403545 325.526299 
L 434.282514 404.522322 
L 434.721999 389.289512 
L 435.161483 378.75035 
L 435.600968 322.087887 
L 436.040452 470.092892 
L 436.479936 319.054279 
L 436.919421 439.044411 
L 437.358905 271.677463 
L 437.79839 427.494873 
L 438.237874 383.724531 
L 438.677358 376.601291 
L 439.116843 295.346059 
L 439.556327 470.083296 
L 439.995812 455.513231 
L 440.435296 384.343649 
L 440.874781 414.56148 
L 441.753749 436.32992 
L 442.193234 370.669892 
L 442.632718 356.394555 
L 443.072203 416.166716 
L 443.511687 416.966459 
L 443.951171 308.070835 
L 444.390656 426.366967 
L 444.83014 446.060512 
L 445.269625 441.546642 
L 445.709109 450.726397 
L 446.148594 265.705614 
L 446.588078 475.497122 
L 447.467047 416.346306 
L 447.906531 476.184164 
L 448.7855 298.64048 
L 449.224985 376.634642 
L 449.664469 365.078477 
L 450.103953 472.8339 
L 450.543438 366.680317 
L 450.982922 452.667604 
L 451.422407 466.576094 
L 451.861891 309.102749 
L 452.301375 403.211846 
L 452.74086 131.763818 
L 453.180344 435.410553 
L 453.619829 455.035058 
L 454.059313 446.440906 
L 454.498798 368.994676 
L 454.938282 355.22452 
L 455.817251 456.477673 
L 456.256735 445.852515 
L 456.69622 393.291383 
L 457.135704 418.526845 
L 457.575189 386.358777 
L 458.014673 426.432174 
L 458.454157 297.207159 
L 458.893642 358.038774 
L 459.333126 438.397139 
L 459.772611 393.319156 
L 460.651579 345.620155 
L 461.091064 347.92344 
L 461.530548 469.62384 
L 461.970033 419.110913 
L 462.409517 411.229373 
L 462.849002 351.42332 
L 463.288486 431.15402 
L 463.72797 394.498207 
L 464.167455 421.127494 
L 464.606939 395.686337 
L 465.046424 405.775853 
L 465.485908 344.7151 
L 466.364877 382.743788 
L 466.804361 365.982804 
L 467.243846 406.267403 
L 467.68333 363.537434 
L 468.122815 416.607538 
L 468.562299 347.84165 
L 469.441268 470.922709 
L 469.880752 423.940645 
L 470.320237 405.749868 
L 470.759721 397.142728 
L 471.199206 426.643218 
L 471.63869 407.351182 
L 472.078174 223.035998 
L 472.517659 414.965061 
L 472.957143 318.817773 
L 473.396628 459.666762 
L 473.836112 431.323319 
L 474.275596 355.691704 
L 474.715081 481.9005 
L 475.59405 295.51867 
L 476.033534 410.875838 
L 476.473019 418.11844 
L 476.912503 474.834942 
L 477.351987 368.538953 
L 477.791472 341.870811 
L 478.230956 452.036939 
L 478.670441 390.311239 
L 479.109925 232.103825 
L 479.549409 419.552407 
L 479.988894 333.082207 
L 480.428378 423.175621 
L 480.867863 439.841694 
L 481.307347 296.789189 
L 481.746832 348.147835 
L 482.186316 421.68774 
L 482.6258 297.06845 
L 483.065285 423.916385 
L 483.504769 402.839459 
L 483.944254 420.751217 
L 484.383738 405.444416 
L 484.823223 404.576789 
L 485.262707 465.86529 
L 485.702191 345.722331 
L 486.141676 420.505877 
L 486.58116 350.896174 
L 487.020645 502.792759 
L 487.460129 449.266997 
L 488.778582 407.755021 
L 489.218067 410.025133 
L 489.657551 264.930073 
L 490.097036 410.4091 
L 490.53652 386.734971 
L 490.976004 416.834562 
L 491.415489 381.19402 
L 491.854973 419.785635 
L 492.294458 423.296582 
L 492.733942 420.678922 
L 493.173426 300.246338 
L 493.612911 279.88429 
L 494.052395 285.234006 
L 494.49188 420.5942 
L 494.931364 451.764422 
L 495.370849 406.333733 
L 495.810333 426.221171 
L 496.249817 479.740603 
L 496.689302 435.966117 
L 497.128786 343.793575 
L 497.568271 434.31067 
L 498.007755 427.23299 
L 498.44724 456.240404 
L 498.886724 459.569505 
L 499.326208 456.681847 
L 499.765693 423.885738 
L 500.205177 510.090156 
L 500.644662 362.784159 
L 501.084146 403.842323 
L 501.52363 407.663741 
L 501.963115 398.979889 
L 502.842084 443.731905 
L 503.281568 454.391265 
L 503.721053 377.762873 
L 504.160537 359.280517 
L 504.600021 418.313429 
L 505.039506 410.933729 
L 505.47899 417.761244 
L 505.918475 402.049025 
L 506.357959 406.521409 
L 507.236928 445.038084 
L 507.676412 453.880225 
L 508.115897 446.1504 
L 508.555381 430.724031 
L 508.994866 376.422136 
L 509.43435 403.322957 
L 509.873834 453.665363 
L 510.313319 342.953447 
L 510.752803 446.468015 
L 511.192288 448.648264 
L 511.631772 302.693252 
L 512.071257 413.576682 
L 512.510741 405.365329 
L 512.950225 430.287935 
L 513.38971 435.440933 
L 513.829194 400.165561 
L 514.268679 465.56323 
L 514.708163 396.953688 
L 515.147647 346.117541 
L 515.587132 453.599756 
L 516.026616 473.743734 
L 516.466101 378.374364 
L 516.905585 540.035943 
L 517.34507 380.831312 
L 517.784554 449.342608 
L 518.224038 326.075839 
L 518.663523 461.022531 
L 519.103007 516.311207 
L 519.542492 338.971845 
L 519.981976 332.915397 
L 520.42146 411.558344 
L 520.860945 314.2931 
L 521.300429 399.592379 
L 521.739914 309.071231 
L 522.618883 500.771831 
L 523.058367 486.435196 
L 523.497851 449.616598 
L 523.937336 489.45904 
L 524.37682 363.324477 
L 524.816305 407.587643 
L 525.255789 491.0032 
L 525.695274 370.985161 
L 526.134758 340.20623 
L 526.574242 324.05219 
L 527.013727 479.028365 
L 527.453211 405.07109 
L 527.892696 375.936146 
L 528.33218 464.379341 
L 528.771664 298.71889 
L 529.211149 537.504856 
L 529.650633 399.808929 
L 530.090118 385.337322 
L 530.529602 327.022416 
L 530.969087 486.81978 
L 531.408571 405.560166 
L 531.848055 364.717754 
L 532.28754 347.055543 
L 532.727024 540.920317 
L 533.166509 402.294495 
L 533.605993 420.392462 
L 534.045477 391.339726 
L 534.484962 412.875699 
L 534.924446 361.933535 
L 535.363931 419.279275 
L 535.803415 400.481328 
L 536.2429 437.539526 
L 536.682384 393.270141 
L 537.121868 421.957683 
L 537.561353 437.302834 
L 538.000837 298.846033 
L 538.440322 362.892041 
L 538.879806 497.348786 
L 539.319291 406.81732 
L 539.758775 460.314244 
L 540.637744 358.212846 
L 541.077228 435.206968 
L 541.516713 372.859016 
L 541.956197 425.331998 
L 542.395681 369.788759 
L 543.27465 401.982546 
L 543.714135 432.665576 
L 544.153619 388.431395 
L 544.593104 477.228825 
L 545.032588 455.26459 
L 545.472072 327.430722 
L 545.911557 477.100822 
L 545.911557 477.100822 
" style="fill:none;stroke:#96c69a;stroke-linecap:round;stroke-width:3;"/>
   </g>
   <g id="line2d_2"/>
   <g id="patch_3">
    <path d="M 84.914375 602.94 
L 84.914375 109.326857 
" style="fill:none;stroke:#262626;stroke-linecap:square;stroke-linejoin:miter;stroke-width:2.5;"/>
   </g>
   <g id="patch_4">
    <path d="M 84.914375 602.94 
L 567.863804 602.94 
" style="fill:none;stroke:#262626;stroke-linecap:square;stroke-linejoin:miter;stroke-width:2.5;"/>
   </g>
   <g id="legend_1">
    <g id="patch_5">
     <path d="M 514.948179 597.94 
L 560.863804 597.94 
Q 562.863804 597.94 562.863804 595.94 
L 562.863804 554.034375 
Q 562.863804 552.034375 560.863804 552.034375 
L 514.948179 552.034375 
Q 512.948179 552.034375 512.948179 554.034375 
L 512.948179 595.94 
Q 512.948179 597.94 514.948179 597.94 
z
" style="fill:#ffffff;opacity:0.8;stroke:#cccccc;stroke-linejoin:miter;stroke-width:2;"/>
    </g>
    <g id="text_18">
     <!-- $n_\tau$ -->
     <g style="fill:#262626;" transform="translate(524.825991 574.270625)scale(0.24 -0.24)">
      <defs>
       <path d="M 3566 2113 
L 3156 0 
L 2578 0 
L 2988 2091 
Q 3016 2238 3031 2350 
Q 3047 2463 3047 2528 
Q 3047 2791 2881 2937 
Q 2716 3084 2419 3084 
Q 1956 3084 1622 2776 
Q 1288 2469 1184 1941 
L 800 0 
L 225 0 
L 903 3500 
L 1478 3500 
L 1363 2950 
Q 1603 3253 1940 3418 
Q 2278 3584 2650 3584 
Q 3113 3584 3367 3334 
Q 3622 3084 3622 2631 
Q 3622 2519 3608 2391 
Q 3594 2263 3566 2113 
z
" id="DejaVuSans-Oblique-6e" transform="scale(0.015625)"/>
       <path d="M 2103 638 
Q 2188 488 2525 488 
L 2800 488 
L 2706 0 
L 2363 0 
Q 1800 0 1600 300 
Q 1403 606 1534 1269 
L 1856 2925 
L 541 2925 
L 653 3500 
L 3881 3500 
L 3769 2925 
L 2444 2925 
L 2113 1234 
Q 2025 781 2103 638 
z
" id="DejaVuSans-Oblique-3c4" transform="scale(0.015625)"/>
      </defs>
      <use xlink:href="#DejaVuSans-Oblique-6e"/>
      <use transform="translate(63.378906 -16.40625)scale(0.7)" xlink:href="#DejaVuSans-Oblique-3c4"/>
     </g>
    </g>
    <g id="line2d_3">
     <path d="M 516.948179 588.360312 
L 536.948179 588.360312 
" style="fill:none;stroke:#96c69a;stroke-linecap:round;stroke-width:3;"/>
    </g>
    <g id="line2d_4"/>
    <g id="text_19">
     <!-- 25 -->
     <g style="fill:#262626;" transform="translate(544.948179 591.860312)scale(0.1 -0.1)">
      <defs>
       <path d="M 1844 884 
L 3897 884 
L 3897 0 
L 506 0 
L 506 884 
L 2209 2388 
Q 2438 2594 2547 2791 
Q 2656 2988 2656 3200 
Q 2656 3528 2436 3728 
Q 2216 3928 1850 3928 
Q 1569 3928 1234 3808 
Q 900 3688 519 3450 
L 519 4475 
Q 925 4609 1322 4679 
Q 1719 4750 2100 4750 
Q 2938 4750 3402 4381 
Q 3866 4013 3866 3353 
Q 3866 2972 3669 2642 
Q 3472 2313 2841 1759 
L 1844 884 
z
" id="DejaVuSans-Bold-32" transform="scale(0.015625)"/>
       <path d="M 678 4666 
L 3669 4666 
L 3669 3781 
L 1638 3781 
L 1638 3059 
Q 1775 3097 1914 3117 
Q 2053 3138 2203 3138 
Q 3056 3138 3531 2711 
Q 4006 2284 4006 1522 
Q 4006 766 3489 337 
Q 2972 -91 2053 -91 
Q 1656 -91 1267 -14 
Q 878 63 494 219 
L 494 1166 
Q 875 947 1217 837 
Q 1559 728 1863 728 
Q 2300 728 2551 942 
Q 2803 1156 2803 1522 
Q 2803 1891 2551 2103 
Q 2300 2316 1863 2316 
Q 1603 2316 1309 2248 
Q 1016 2181 678 2041 
L 678 4666 
z
" id="DejaVuSans-Bold-35" transform="scale(0.015625)"/>
      </defs>
      <use xlink:href="#DejaVuSans-Bold-32"/>
      <use x="69.580078" xlink:href="#DejaVuSans-Bold-35"/>
     </g>
    </g>
   </g>
  </g>
  <g id="axes_2">
   <g id="patch_6">
    <path d="M 84.914375 92.305714 
L 567.863804 92.305714 
L 567.863804 7.2 
L 84.914375 7.2 
z
" style="fill:none;"/>
   </g>
   <g id="matplotlib.axis_3">
    <g id="xtick_7"/>
    <g id="xtick_8"/>
    <g id="xtick_9"/>
    <g id="xtick_10"/>
    <g id="xtick_11"/>
    <g id="xtick_12"/>
   </g>
   <g id="matplotlib.axis_4">
    <g id="ytick_10">
     <g id="text_20">
      <!-- 0 -->
      <g style="fill:#262626;" transform="translate(55.416875 100.663996)scale(0.22 -0.22)">
       <use xlink:href="#DejaVuSans-30"/>
      </g>
     </g>
    </g>
    <g id="ytick_11">
     <g id="text_21">
      <!-- 50 -->
      <g style="fill:#262626;" transform="translate(41.419375 56.129347)scale(0.22 -0.22)">
       <use xlink:href="#DejaVuSans-35"/>
       <use x="63.623047" xlink:href="#DejaVuSans-30"/>
      </g>
     </g>
    </g>
   </g>
   <g id="patch_7">
    <path clip-path="url(#pa5e5e6d918)" d="M 106.866622 92.305714 
L 146.779798 92.305714 
L 146.779798 11.252653 
L 106.866622 11.252653 
z
" style="fill:#96c69a;fill-opacity:0.5;stroke:#ffffff;stroke-linejoin:miter;stroke-width:2;"/>
   </g>
   <g id="patch_8">
    <path clip-path="url(#pa5e5e6d918)" d="M 146.779798 92.305714 
L 186.692974 92.305714 
L 186.692974 11.252653 
L 146.779798 11.252653 
z
" style="fill:#96c69a;fill-opacity:0.5;stroke:#ffffff;stroke-linejoin:miter;stroke-width:2;"/>
   </g>
   <g id="patch_9">
    <path clip-path="url(#pa5e5e6d918)" d="M 186.692974 92.305714 
L 226.606149 92.305714 
L 226.606149 11.252653 
L 186.692974 11.252653 
z
" style="fill:#96c69a;fill-opacity:0.5;stroke:#ffffff;stroke-linejoin:miter;stroke-width:2;"/>
   </g>
   <g id="patch_10">
    <path clip-path="url(#pa5e5e6d918)" d="M 226.606149 92.305714 
L 266.519325 92.305714 
L 266.519325 11.252653 
L 226.606149 11.252653 
z
" style="fill:#96c69a;fill-opacity:0.5;stroke:#ffffff;stroke-linejoin:miter;stroke-width:2;"/>
   </g>
   <g id="patch_11">
    <path clip-path="url(#pa5e5e6d918)" d="M 266.519325 92.305714 
L 306.432501 92.305714 
L 306.432501 11.252653 
L 266.519325 11.252653 
z
" style="fill:#96c69a;fill-opacity:0.5;stroke:#ffffff;stroke-linejoin:miter;stroke-width:2;"/>
   </g>
   <g id="patch_12">
    <path clip-path="url(#pa5e5e6d918)" d="M 306.432501 92.305714 
L 346.345677 92.305714 
L 346.345677 12.143346 
L 306.432501 12.143346 
z
" style="fill:#96c69a;fill-opacity:0.5;stroke:#ffffff;stroke-linejoin:miter;stroke-width:2;"/>
   </g>
   <g id="patch_13">
    <path clip-path="url(#pa5e5e6d918)" d="M 346.345677 92.305714 
L 386.258853 92.305714 
L 386.258853 11.252653 
L 346.345677 11.252653 
z
" style="fill:#96c69a;fill-opacity:0.5;stroke:#ffffff;stroke-linejoin:miter;stroke-width:2;"/>
   </g>
   <g id="patch_14">
    <path clip-path="url(#pa5e5e6d918)" d="M 386.258853 92.305714 
L 426.172029 92.305714 
L 426.172029 11.252653 
L 386.258853 11.252653 
z
" style="fill:#96c69a;fill-opacity:0.5;stroke:#ffffff;stroke-linejoin:miter;stroke-width:2;"/>
   </g>
   <g id="patch_15">
    <path clip-path="url(#pa5e5e6d918)" d="M 426.172029 92.305714 
L 466.085205 92.305714 
L 466.085205 11.252653 
L 426.172029 11.252653 
z
" style="fill:#96c69a;fill-opacity:0.5;stroke:#ffffff;stroke-linejoin:miter;stroke-width:2;"/>
   </g>
   <g id="patch_16">
    <path clip-path="url(#pa5e5e6d918)" d="M 466.085205 92.305714 
L 505.998381 92.305714 
L 505.998381 11.252653 
L 466.085205 11.252653 
z
" style="fill:#96c69a;fill-opacity:0.5;stroke:#ffffff;stroke-linejoin:miter;stroke-width:2;"/>
   </g>
   <g id="patch_17">
    <path clip-path="url(#pa5e5e6d918)" d="M 505.998381 92.305714 
L 545.911557 92.305714 
L 545.911557 11.252653 
L 505.998381 11.252653 
z
" style="fill:#96c69a;fill-opacity:0.5;stroke:#ffffff;stroke-linejoin:miter;stroke-width:2;"/>
   </g>
   <g id="patch_18">
    <path d="M 84.914375 92.305714 
L 84.914375 7.2 
" style="fill:none;stroke:#262626;stroke-linecap:square;stroke-linejoin:miter;stroke-width:2.5;"/>
   </g>
   <g id="patch_19">
    <path d="M 84.914375 92.305714 
L 567.863804 92.305714 
" style="fill:none;stroke:#262626;stroke-linecap:square;stroke-linejoin:miter;stroke-width:2.5;"/>
   </g>
  </g>
  <g id="axes_3">
   <g id="patch_20">
    <path d="M 584.517232 602.94 
L 667.784375 602.94 
L 667.784375 109.326857 
L 584.517232 109.326857 
z
" style="fill:none;"/>
   </g>
   <g id="matplotlib.axis_5">
    <g id="xtick_13">
     <g id="text_22">
      <!-- 0 -->
      <g style="fill:#262626;" transform="translate(577.518482 635.156562)scale(0.22 -0.22)">
       <use xlink:href="#DejaVuSans-30"/>
      </g>
     </g>
    </g>
    <g id="xtick_14">
     <g id="text_23">
      <!-- 100 -->
      <g style="fill:#262626;" transform="translate(625.475702 635.156562)scale(0.22 -0.22)">
       <use xlink:href="#DejaVuSans-31"/>
       <use x="63.623047" xlink:href="#DejaVuSans-30"/>
       <use x="127.246094" xlink:href="#DejaVuSans-30"/>
      </g>
     </g>
    </g>
   </g>
   <g id="matplotlib.axis_6">
    <g id="ytick_12"/>
    <g id="ytick_13"/>
    <g id="ytick_14"/>
    <g id="ytick_15"/>
    <g id="ytick_16"/>
    <g id="ytick_17"/>
    <g id="ytick_18"/>
    <g id="ytick_19"/>
    <g id="ytick_20"/>
   </g>
   <g id="patch_21">
    <path clip-path="url(#pe3e09a05e3)" d="M 584.517232 580.503039 
L 585.756327 580.503039 
L 585.756327 565.029273 
L 584.517232 565.029273 
z
" style="fill:#96c69a;fill-opacity:0.5;stroke:#ffffff;stroke-linejoin:miter;stroke-width:1.547377;"/>
   </g>
   <g id="patch_22">
    <path clip-path="url(#pe3e09a05e3)" d="M 584.517232 565.029273 
L 585.756327 565.029273 
L 585.756327 549.555506 
L 584.517232 549.555506 
z
" style="fill:#96c69a;fill-opacity:0.5;stroke:#ffffff;stroke-linejoin:miter;stroke-width:1.547377;"/>
   </g>
   <g id="patch_23">
    <path clip-path="url(#pe3e09a05e3)" d="M 584.517232 549.555506 
L 586.995421 549.555506 
L 586.995421 534.08174 
L 584.517232 534.08174 
z
" style="fill:#96c69a;fill-opacity:0.5;stroke:#ffffff;stroke-linejoin:miter;stroke-width:1.547377;"/>
   </g>
   <g id="patch_24">
    <path clip-path="url(#pe3e09a05e3)" d="M 584.517232 534.08174 
L 586.375874 534.08174 
L 586.375874 518.607974 
L 584.517232 518.607974 
z
" style="fill:#96c69a;fill-opacity:0.5;stroke:#ffffff;stroke-linejoin:miter;stroke-width:1.547377;"/>
   </g>
   <g id="patch_25">
    <path clip-path="url(#pe3e09a05e3)" d="M 584.517232 518.607974 
L 595.049534 518.607974 
L 595.049534 503.134208 
L 584.517232 503.134208 
z
" style="fill:#96c69a;fill-opacity:0.5;stroke:#ffffff;stroke-linejoin:miter;stroke-width:1.547377;"/>
   </g>
   <g id="patch_26">
    <path clip-path="url(#pe3e09a05e3)" d="M 584.517232 503.134208 
L 608.679573 503.134208 
L 608.679573 487.660442 
L 584.517232 487.660442 
z
" style="fill:#96c69a;fill-opacity:0.5;stroke:#ffffff;stroke-linejoin:miter;stroke-width:1.547377;"/>
   </g>
   <g id="patch_27">
    <path clip-path="url(#pe3e09a05e3)" d="M 584.517232 487.660442 
L 622.309611 487.660442 
L 622.309611 472.186675 
L 584.517232 472.186675 
z
" style="fill:#96c69a;fill-opacity:0.5;stroke:#ffffff;stroke-linejoin:miter;stroke-width:1.547377;"/>
   </g>
   <g id="patch_28">
    <path clip-path="url(#pe3e09a05e3)" d="M 584.517232 472.186675 
L 621.070517 472.186675 
L 621.070517 456.712909 
L 584.517232 456.712909 
z
" style="fill:#96c69a;fill-opacity:0.5;stroke:#ffffff;stroke-linejoin:miter;stroke-width:1.547377;"/>
   </g>
   <g id="patch_29">
    <path clip-path="url(#pe3e09a05e3)" d="M 584.517232 456.712909 
L 636.559196 456.712909 
L 636.559196 441.239143 
L 584.517232 441.239143 
z
" style="fill:#96c69a;fill-opacity:0.5;stroke:#ffffff;stroke-linejoin:miter;stroke-width:1.547377;"/>
   </g>
   <g id="patch_30">
    <path clip-path="url(#pe3e09a05e3)" d="M 584.517232 441.239143 
L 640.27648 441.239143 
L 640.27648 425.765377 
L 584.517232 425.765377 
z
" style="fill:#96c69a;fill-opacity:0.5;stroke:#ffffff;stroke-linejoin:miter;stroke-width:1.547377;"/>
   </g>
   <g id="patch_31">
    <path clip-path="url(#pe3e09a05e3)" d="M 584.517232 425.765377 
L 663.819273 425.765377 
L 663.819273 410.29161 
L 584.517232 410.29161 
z
" style="fill:#96c69a;fill-opacity:0.5;stroke:#ffffff;stroke-linejoin:miter;stroke-width:1.547377;"/>
   </g>
   <g id="patch_32">
    <path clip-path="url(#pe3e09a05e3)" d="M 584.517232 410.29161 
L 657.623801 410.29161 
L 657.623801 394.817844 
L 584.517232 394.817844 
z
" style="fill:#96c69a;fill-opacity:0.5;stroke:#ffffff;stroke-linejoin:miter;stroke-width:1.547377;"/>
   </g>
   <g id="patch_33">
    <path clip-path="url(#pe3e09a05e3)" d="M 584.517232 394.817844 
L 633.46146 394.817844 
L 633.46146 379.344078 
L 584.517232 379.344078 
z
" style="fill:#96c69a;fill-opacity:0.5;stroke:#ffffff;stroke-linejoin:miter;stroke-width:1.547377;"/>
   </g>
   <g id="patch_34">
    <path clip-path="url(#pe3e09a05e3)" d="M 584.517232 379.344078 
L 639.037385 379.344078 
L 639.037385 363.870312 
L 584.517232 363.870312 
z
" style="fill:#96c69a;fill-opacity:0.5;stroke:#ffffff;stroke-linejoin:miter;stroke-width:1.547377;"/>
   </g>
   <g id="patch_35">
    <path clip-path="url(#pe3e09a05e3)" d="M 584.517232 363.870312 
L 618.592328 363.870312 
L 618.592328 348.396545 
L 584.517232 348.396545 
z
" style="fill:#96c69a;fill-opacity:0.5;stroke:#ffffff;stroke-linejoin:miter;stroke-width:1.547377;"/>
   </g>
   <g id="patch_36">
    <path clip-path="url(#pe3e09a05e3)" d="M 584.517232 348.396545 
L 611.777309 348.396545 
L 611.777309 332.922779 
L 584.517232 332.922779 
z
" style="fill:#96c69a;fill-opacity:0.5;stroke:#ffffff;stroke-linejoin:miter;stroke-width:1.547377;"/>
   </g>
   <g id="patch_37">
    <path clip-path="url(#pe3e09a05e3)" d="M 584.517232 332.922779 
L 609.29912 332.922779 
L 609.29912 317.449013 
L 584.517232 317.449013 
z
" style="fill:#96c69a;fill-opacity:0.5;stroke:#ffffff;stroke-linejoin:miter;stroke-width:1.547377;"/>
   </g>
   <g id="patch_38">
    <path clip-path="url(#pe3e09a05e3)" d="M 584.517232 317.449013 
L 604.96229 317.449013 
L 604.96229 301.975247 
L 584.517232 301.975247 
z
" style="fill:#96c69a;fill-opacity:0.5;stroke:#ffffff;stroke-linejoin:miter;stroke-width:1.547377;"/>
   </g>
   <g id="patch_39">
    <path clip-path="url(#pe3e09a05e3)" d="M 584.517232 301.975247 
L 600.005912 301.975247 
L 600.005912 286.501481 
L 584.517232 286.501481 
z
" style="fill:#96c69a;fill-opacity:0.5;stroke:#ffffff;stroke-linejoin:miter;stroke-width:1.547377;"/>
   </g>
   <g id="patch_40">
    <path clip-path="url(#pe3e09a05e3)" d="M 584.517232 286.501481 
L 593.190893 286.501481 
L 593.190893 271.027714 
L 584.517232 271.027714 
z
" style="fill:#96c69a;fill-opacity:0.5;stroke:#ffffff;stroke-linejoin:miter;stroke-width:1.547377;"/>
   </g>
   <g id="patch_41">
    <path clip-path="url(#pe3e09a05e3)" d="M 584.517232 271.027714 
L 588.234515 271.027714 
L 588.234515 255.553948 
L 584.517232 255.553948 
z
" style="fill:#96c69a;fill-opacity:0.5;stroke:#ffffff;stroke-linejoin:miter;stroke-width:1.547377;"/>
   </g>
   <g id="patch_42">
    <path clip-path="url(#pe3e09a05e3)" d="M 584.517232 255.553948 
L 585.756327 255.553948 
L 585.756327 240.080182 
L 584.517232 240.080182 
z
" style="fill:#96c69a;fill-opacity:0.5;stroke:#ffffff;stroke-linejoin:miter;stroke-width:1.547377;"/>
   </g>
   <g id="patch_43">
    <path clip-path="url(#pe3e09a05e3)" d="M 584.517232 240.080182 
L 585.756327 240.080182 
L 585.756327 224.606416 
L 584.517232 224.606416 
z
" style="fill:#96c69a;fill-opacity:0.5;stroke:#ffffff;stroke-linejoin:miter;stroke-width:1.547377;"/>
   </g>
   <g id="patch_44">
    <path clip-path="url(#pe3e09a05e3)" d="M 584.517232 224.606416 
L 585.136779 224.606416 
L 585.136779 209.132649 
L 584.517232 209.132649 
z
" style="fill:#96c69a;fill-opacity:0.5;stroke:#ffffff;stroke-linejoin:miter;stroke-width:1.547377;"/>
   </g>
   <g id="patch_45">
    <path clip-path="url(#pe3e09a05e3)" d="M 584.517232 209.132649 
L 585.756327 209.132649 
L 585.756327 193.658883 
L 584.517232 193.658883 
z
" style="fill:#96c69a;fill-opacity:0.5;stroke:#ffffff;stroke-linejoin:miter;stroke-width:1.547377;"/>
   </g>
   <g id="patch_46">
    <path clip-path="url(#pe3e09a05e3)" d="M 584.517232 193.658883 
L 584.517232 193.658883 
L 584.517232 178.185117 
L 584.517232 178.185117 
z
" style="fill:#96c69a;fill-opacity:0.5;stroke:#ffffff;stroke-linejoin:miter;stroke-width:1.547377;"/>
   </g>
   <g id="patch_47">
    <path clip-path="url(#pe3e09a05e3)" d="M 584.517232 178.185117 
L 585.136779 178.185117 
L 585.136779 162.711351 
L 584.517232 162.711351 
z
" style="fill:#96c69a;fill-opacity:0.5;stroke:#ffffff;stroke-linejoin:miter;stroke-width:1.547377;"/>
   </g>
   <g id="patch_48">
    <path clip-path="url(#pe3e09a05e3)" d="M 584.517232 162.711351 
L 584.517232 162.711351 
L 584.517232 147.237584 
L 584.517232 147.237584 
z
" style="fill:#96c69a;fill-opacity:0.5;stroke:#ffffff;stroke-linejoin:miter;stroke-width:1.547377;"/>
   </g>
   <g id="patch_49">
    <path clip-path="url(#pe3e09a05e3)" d="M 584.517232 147.237584 
L 585.136779 147.237584 
L 585.136779 131.763818 
L 584.517232 131.763818 
z
" style="fill:#96c69a;fill-opacity:0.5;stroke:#ffffff;stroke-linejoin:miter;stroke-width:1.547377;"/>
   </g>
   <g id="patch_50">
    <path d="M 584.517232 602.94 
L 584.517232 109.326857 
" style="fill:none;stroke:#262626;stroke-linecap:square;stroke-linejoin:miter;stroke-width:2.5;"/>
   </g>
   <g id="patch_51">
    <path d="M 584.517232 602.94 
L 667.784375 602.94 
" style="fill:none;stroke:#262626;stroke-linecap:square;stroke-linejoin:miter;stroke-width:2.5;"/>
   </g>
  </g>
 </g>
 <defs>
  <clipPath id="pa7a00c7e9a">
   <rect height="493.613143" width="482.949429" x="84.914375" y="109.326857"/>
  </clipPath>
  <clipPath id="pa5e5e6d918">
   <rect height="85.105714" width="482.949429" x="84.914375" y="7.2"/>
  </clipPath>
  <clipPath id="pe3e09a05e3">
   <rect height="493.613143" width="83.267143" x="584.517232" y="109.326857"/>
  </clipPath>
 </defs>
</svg>
