<?xml version="1.0" encoding="utf-8" standalone="no"?>
<!DOCTYPE svg PUBLIC "-//W3C//DTD SVG 1.1//EN"
  "http://www.w3.org/Graphics/SVG/1.1/DTD/svg11.dtd">
<svg height="675.079375pt" version="1.1" viewBox="0 0 688.771875 675.079375" width="688.771875pt" xmlns="http://www.w3.org/2000/svg" xmlns:xlink="http://www.w3.org/1999/xlink">
 <metadata>
  <rdf:RDF xmlns:cc="http://creativecommons.org/ns#" xmlns:dc="http://purl.org/dc/elements/1.1/" xmlns:rdf="http://www.w3.org/1999/02/22-rdf-syntax-ns#">
   <cc:Work>
    <dc:type rdf:resource="http://purl.org/dc/dcmitype/StillImage"/>
    <dc:date>2021-07-16T22:22:09.838844</dc:date>
    <dc:format>image/svg+xml</dc:format>
    <dc:creator>
     <cc:Agent>
      <dc:title>Matplotlib v3.4.2, https://matplotlib.org/</dc:title>
     </cc:Agent>
    </dc:creator>
   </cc:Work>
  </rdf:RDF>
 </metadata>
 <defs>
  <style type="text/css">*{stroke-linecap:butt;stroke-linejoin:round;}</style>
 </defs>
 <g id="figure_1">
  <g id="patch_1">
   <path d="M 0 675.079375 
L 688.771875 675.079375 
L 688.771875 0 
L 0 0 
z
" style="fill:#ffffff;"/>
  </g>
  <g id="axes_1">
   <g id="patch_2">
    <path d="M 98.911875 603.86 
L 581.687304 603.86 
L 581.687304 109.484571 
L 98.911875 109.484571 
z
" style="fill:none;"/>
   </g>
   <g id="matplotlib.axis_1">
    <g id="xtick_1">
     <g id="text_1">
      <!-- 0 -->
      <g style="fill:#262626;" transform="translate(113.63791 636.076563)scale(0.22 -0.22)">
       <defs>
        <path d="M 2034 4250 
Q 1547 4250 1301 3770 
Q 1056 3291 1056 2328 
Q 1056 1369 1301 889 
Q 1547 409 2034 409 
Q 2525 409 2770 889 
Q 3016 1369 3016 2328 
Q 3016 3291 2770 3770 
Q 2525 4250 2034 4250 
z
M 2034 4750 
Q 2819 4750 3233 4129 
Q 3647 3509 3647 2328 
Q 3647 1150 3233 529 
Q 2819 -91 2034 -91 
Q 1250 -91 836 529 
Q 422 1150 422 2328 
Q 422 3509 836 4129 
Q 1250 4750 2034 4750 
z
" id="DejaVuSans-30" transform="scale(0.015625)"/>
       </defs>
       <use xlink:href="#DejaVuSans-30"/>
      </g>
     </g>
    </g>
    <g id="xtick_2">
     <g id="text_2">
      <!-- 20000 -->
      <g style="fill:#262626;" transform="translate(173.464171 636.076563)scale(0.22 -0.22)">
       <defs>
        <path d="M 1228 531 
L 3431 531 
L 3431 0 
L 469 0 
L 469 531 
Q 828 903 1448 1529 
Q 2069 2156 2228 2338 
Q 2531 2678 2651 2914 
Q 2772 3150 2772 3378 
Q 2772 3750 2511 3984 
Q 2250 4219 1831 4219 
Q 1534 4219 1204 4116 
Q 875 4013 500 3803 
L 500 4441 
Q 881 4594 1212 4672 
Q 1544 4750 1819 4750 
Q 2544 4750 2975 4387 
Q 3406 4025 3406 3419 
Q 3406 3131 3298 2873 
Q 3191 2616 2906 2266 
Q 2828 2175 2409 1742 
Q 1991 1309 1228 531 
z
" id="DejaVuSans-32" transform="scale(0.015625)"/>
       </defs>
       <use xlink:href="#DejaVuSans-32"/>
       <use x="63.623047" xlink:href="#DejaVuSans-30"/>
       <use x="127.246094" xlink:href="#DejaVuSans-30"/>
       <use x="190.869141" xlink:href="#DejaVuSans-30"/>
       <use x="254.492188" xlink:href="#DejaVuSans-30"/>
      </g>
     </g>
    </g>
    <g id="xtick_3">
     <g id="text_3">
      <!-- 40000 -->
      <g style="fill:#262626;" transform="translate(261.285432 636.076563)scale(0.22 -0.22)">
       <defs>
        <path d="M 2419 4116 
L 825 1625 
L 2419 1625 
L 2419 4116 
z
M 2253 4666 
L 3047 4666 
L 3047 1625 
L 3713 1625 
L 3713 1100 
L 3047 1100 
L 3047 0 
L 2419 0 
L 2419 1100 
L 313 1100 
L 313 1709 
L 2253 4666 
z
" id="DejaVuSans-34" transform="scale(0.015625)"/>
       </defs>
       <use xlink:href="#DejaVuSans-34"/>
       <use x="63.623047" xlink:href="#DejaVuSans-30"/>
       <use x="127.246094" xlink:href="#DejaVuSans-30"/>
       <use x="190.869141" xlink:href="#DejaVuSans-30"/>
       <use x="254.492188" xlink:href="#DejaVuSans-30"/>
      </g>
     </g>
    </g>
    <g id="xtick_4">
     <g id="text_4">
      <!-- 60000 -->
      <g style="fill:#262626;" transform="translate(349.106693 636.076563)scale(0.22 -0.22)">
       <defs>
        <path d="M 2113 2584 
Q 1688 2584 1439 2293 
Q 1191 2003 1191 1497 
Q 1191 994 1439 701 
Q 1688 409 2113 409 
Q 2538 409 2786 701 
Q 3034 994 3034 1497 
Q 3034 2003 2786 2293 
Q 2538 2584 2113 2584 
z
M 3366 4563 
L 3366 3988 
Q 3128 4100 2886 4159 
Q 2644 4219 2406 4219 
Q 1781 4219 1451 3797 
Q 1122 3375 1075 2522 
Q 1259 2794 1537 2939 
Q 1816 3084 2150 3084 
Q 2853 3084 3261 2657 
Q 3669 2231 3669 1497 
Q 3669 778 3244 343 
Q 2819 -91 2113 -91 
Q 1303 -91 875 529 
Q 447 1150 447 2328 
Q 447 3434 972 4092 
Q 1497 4750 2381 4750 
Q 2619 4750 2861 4703 
Q 3103 4656 3366 4563 
z
" id="DejaVuSans-36" transform="scale(0.015625)"/>
       </defs>
       <use xlink:href="#DejaVuSans-36"/>
       <use x="63.623047" xlink:href="#DejaVuSans-30"/>
       <use x="127.246094" xlink:href="#DejaVuSans-30"/>
       <use x="190.869141" xlink:href="#DejaVuSans-30"/>
       <use x="254.492188" xlink:href="#DejaVuSans-30"/>
      </g>
     </g>
    </g>
    <g id="xtick_5">
     <g id="text_5">
      <!-- 80000 -->
      <g style="fill:#262626;" transform="translate(436.927955 636.076563)scale(0.22 -0.22)">
       <defs>
        <path d="M 2034 2216 
Q 1584 2216 1326 1975 
Q 1069 1734 1069 1313 
Q 1069 891 1326 650 
Q 1584 409 2034 409 
Q 2484 409 2743 651 
Q 3003 894 3003 1313 
Q 3003 1734 2745 1975 
Q 2488 2216 2034 2216 
z
M 1403 2484 
Q 997 2584 770 2862 
Q 544 3141 544 3541 
Q 544 4100 942 4425 
Q 1341 4750 2034 4750 
Q 2731 4750 3128 4425 
Q 3525 4100 3525 3541 
Q 3525 3141 3298 2862 
Q 3072 2584 2669 2484 
Q 3125 2378 3379 2068 
Q 3634 1759 3634 1313 
Q 3634 634 3220 271 
Q 2806 -91 2034 -91 
Q 1263 -91 848 271 
Q 434 634 434 1313 
Q 434 1759 690 2068 
Q 947 2378 1403 2484 
z
M 1172 3481 
Q 1172 3119 1398 2916 
Q 1625 2713 2034 2713 
Q 2441 2713 2670 2916 
Q 2900 3119 2900 3481 
Q 2900 3844 2670 4047 
Q 2441 4250 2034 4250 
Q 1625 4250 1398 4047 
Q 1172 3844 1172 3481 
z
" id="DejaVuSans-38" transform="scale(0.015625)"/>
       </defs>
       <use xlink:href="#DejaVuSans-38"/>
       <use x="63.623047" xlink:href="#DejaVuSans-30"/>
       <use x="127.246094" xlink:href="#DejaVuSans-30"/>
       <use x="190.869141" xlink:href="#DejaVuSans-30"/>
       <use x="254.492188" xlink:href="#DejaVuSans-30"/>
      </g>
     </g>
    </g>
    <g id="xtick_6">
     <g id="text_6">
      <!-- 100000 -->
      <g style="fill:#262626;" transform="translate(517.750466 636.076563)scale(0.22 -0.22)">
       <defs>
        <path d="M 794 531 
L 1825 531 
L 1825 4091 
L 703 3866 
L 703 4441 
L 1819 4666 
L 2450 4666 
L 2450 531 
L 3481 531 
L 3481 0 
L 794 0 
L 794 531 
z
" id="DejaVuSans-31" transform="scale(0.015625)"/>
       </defs>
       <use xlink:href="#DejaVuSans-31"/>
       <use x="63.623047" xlink:href="#DejaVuSans-30"/>
       <use x="127.246094" xlink:href="#DejaVuSans-30"/>
       <use x="190.869141" xlink:href="#DejaVuSans-30"/>
       <use x="254.492188" xlink:href="#DejaVuSans-30"/>
       <use x="318.115234" xlink:href="#DejaVuSans-30"/>
      </g>
     </g>
    </g>
    <g id="text_7">
     <!-- MDTU -->
     <g style="fill:#262626;" transform="translate(304.593964 662.888125)scale(0.24 -0.24)">
      <defs>
       <path d="M 628 4666 
L 1569 4666 
L 2759 1491 
L 3956 4666 
L 4897 4666 
L 4897 0 
L 4281 0 
L 4281 4097 
L 3078 897 
L 2444 897 
L 1241 4097 
L 1241 0 
L 628 0 
L 628 4666 
z
" id="DejaVuSans-4d" transform="scale(0.015625)"/>
       <path d="M 1259 4147 
L 1259 519 
L 2022 519 
Q 2988 519 3436 956 
Q 3884 1394 3884 2338 
Q 3884 3275 3436 3711 
Q 2988 4147 2022 4147 
L 1259 4147 
z
M 628 4666 
L 1925 4666 
Q 3281 4666 3915 4102 
Q 4550 3538 4550 2338 
Q 4550 1131 3912 565 
Q 3275 0 1925 0 
L 628 0 
L 628 4666 
z
" id="DejaVuSans-44" transform="scale(0.015625)"/>
       <path d="M -19 4666 
L 3928 4666 
L 3928 4134 
L 2272 4134 
L 2272 0 
L 1638 0 
L 1638 4134 
L -19 4134 
L -19 4666 
z
" id="DejaVuSans-54" transform="scale(0.015625)"/>
       <path d="M 556 4666 
L 1191 4666 
L 1191 1831 
Q 1191 1081 1462 751 
Q 1734 422 2344 422 
Q 2950 422 3222 751 
Q 3494 1081 3494 1831 
L 3494 4666 
L 4128 4666 
L 4128 1753 
Q 4128 841 3676 375 
Q 3225 -91 2344 -91 
Q 1459 -91 1007 375 
Q 556 841 556 1753 
L 556 4666 
z
" id="DejaVuSans-55" transform="scale(0.015625)"/>
      </defs>
      <use xlink:href="#DejaVuSans-4d"/>
      <use x="86.279297" xlink:href="#DejaVuSans-44"/>
      <use x="163.28125" xlink:href="#DejaVuSans-54"/>
      <use x="224.365234" xlink:href="#DejaVuSans-55"/>
     </g>
    </g>
   </g>
   <g id="matplotlib.axis_2">
    <g id="ytick_1">
     <g id="text_8">
      <!-- 0.25 -->
      <g style="fill:#262626;" transform="translate(34.4275 596.294016)scale(0.22 -0.22)">
       <defs>
        <path d="M 684 794 
L 1344 794 
L 1344 0 
L 684 0 
L 684 794 
z
" id="DejaVuSans-2e" transform="scale(0.015625)"/>
        <path d="M 691 4666 
L 3169 4666 
L 3169 4134 
L 1269 4134 
L 1269 2991 
Q 1406 3038 1543 3061 
Q 1681 3084 1819 3084 
Q 2600 3084 3056 2656 
Q 3513 2228 3513 1497 
Q 3513 744 3044 326 
Q 2575 -91 1722 -91 
Q 1428 -91 1123 -41 
Q 819 9 494 109 
L 494 744 
Q 775 591 1075 516 
Q 1375 441 1709 441 
Q 2250 441 2565 725 
Q 2881 1009 2881 1497 
Q 2881 1984 2565 2268 
Q 2250 2553 1709 2553 
Q 1456 2553 1204 2497 
Q 953 2441 691 2322 
L 691 4666 
z
" id="DejaVuSans-35" transform="scale(0.015625)"/>
       </defs>
       <use xlink:href="#DejaVuSans-30"/>
       <use x="63.623047" xlink:href="#DejaVuSans-2e"/>
       <use x="95.410156" xlink:href="#DejaVuSans-32"/>
       <use x="159.033203" xlink:href="#DejaVuSans-35"/>
      </g>
     </g>
    </g>
    <g id="ytick_2">
     <g id="text_9">
      <!-- 0.50 -->
      <g style="fill:#262626;" transform="translate(34.4275 534.960313)scale(0.22 -0.22)">
       <use xlink:href="#DejaVuSans-30"/>
       <use x="63.623047" xlink:href="#DejaVuSans-2e"/>
       <use x="95.410156" xlink:href="#DejaVuSans-35"/>
       <use x="159.033203" xlink:href="#DejaVuSans-30"/>
      </g>
     </g>
    </g>
    <g id="ytick_3">
     <g id="text_10">
      <!-- 0.75 -->
      <g style="fill:#262626;" transform="translate(34.4275 473.626611)scale(0.22 -0.22)">
       <defs>
        <path d="M 525 4666 
L 3525 4666 
L 3525 4397 
L 1831 0 
L 1172 0 
L 2766 4134 
L 525 4134 
L 525 4666 
z
" id="DejaVuSans-37" transform="scale(0.015625)"/>
       </defs>
       <use xlink:href="#DejaVuSans-30"/>
       <use x="63.623047" xlink:href="#DejaVuSans-2e"/>
       <use x="95.410156" xlink:href="#DejaVuSans-37"/>
       <use x="159.033203" xlink:href="#DejaVuSans-35"/>
      </g>
     </g>
    </g>
    <g id="ytick_4">
     <g id="text_11">
      <!-- 1.00 -->
      <g style="fill:#262626;" transform="translate(34.4275 412.292908)scale(0.22 -0.22)">
       <use xlink:href="#DejaVuSans-31"/>
       <use x="63.623047" xlink:href="#DejaVuSans-2e"/>
       <use x="95.410156" xlink:href="#DejaVuSans-30"/>
       <use x="159.033203" xlink:href="#DejaVuSans-30"/>
      </g>
     </g>
    </g>
    <g id="ytick_5">
     <g id="text_12">
      <!-- 1.25 -->
      <g style="fill:#262626;" transform="translate(34.4275 350.959206)scale(0.22 -0.22)">
       <use xlink:href="#DejaVuSans-31"/>
       <use x="63.623047" xlink:href="#DejaVuSans-2e"/>
       <use x="95.410156" xlink:href="#DejaVuSans-32"/>
       <use x="159.033203" xlink:href="#DejaVuSans-35"/>
      </g>
     </g>
    </g>
    <g id="ytick_6">
     <g id="text_13">
      <!-- 1.50 -->
      <g style="fill:#262626;" transform="translate(34.4275 289.625504)scale(0.22 -0.22)">
       <use xlink:href="#DejaVuSans-31"/>
       <use x="63.623047" xlink:href="#DejaVuSans-2e"/>
       <use x="95.410156" xlink:href="#DejaVuSans-35"/>
       <use x="159.033203" xlink:href="#DejaVuSans-30"/>
      </g>
     </g>
    </g>
    <g id="ytick_7">
     <g id="text_14">
      <!-- 1.75 -->
      <g style="fill:#262626;" transform="translate(34.4275 228.291801)scale(0.22 -0.22)">
       <use xlink:href="#DejaVuSans-31"/>
       <use x="63.623047" xlink:href="#DejaVuSans-2e"/>
       <use x="95.410156" xlink:href="#DejaVuSans-37"/>
       <use x="159.033203" xlink:href="#DejaVuSans-35"/>
      </g>
     </g>
    </g>
    <g id="ytick_8">
     <g id="text_15">
      <!-- 2.00 -->
      <g style="fill:#262626;" transform="translate(34.4275 166.958099)scale(0.22 -0.22)">
       <use xlink:href="#DejaVuSans-32"/>
       <use x="63.623047" xlink:href="#DejaVuSans-2e"/>
       <use x="95.410156" xlink:href="#DejaVuSans-30"/>
       <use x="159.033203" xlink:href="#DejaVuSans-30"/>
      </g>
     </g>
    </g>
    <g id="text_16">
     <!-- $E$ -->
     <g style="fill:#262626;" transform="translate(25.43625 364.352286)rotate(-90)scale(0.24 -0.24)">
      <defs>
       <path d="M 1081 4666 
L 4031 4666 
L 3928 4134 
L 1606 4134 
L 1338 2753 
L 3566 2753 
L 3463 2222 
L 1234 2222 
L 909 531 
L 3284 531 
L 3181 0 
L 172 0 
L 1081 4666 
z
" id="DejaVuSans-Oblique-45" transform="scale(0.015625)"/>
      </defs>
      <use transform="translate(0 0.09375)" xlink:href="#DejaVuSans-Oblique-45"/>
     </g>
    </g>
   </g>
   <g id="line2d_1">
    <path clip-path="url(#p9b53f539fc)" d="M 120.856213 413.095565 
L 121.075766 472.331761 
L 121.295319 419.252262 
L 121.514872 520.67092 
L 121.734425 506.647993 
L 121.953978 301.978809 
L 122.173532 343.93087 
L 122.393085 474.476658 
L 122.612638 524.690428 
L 122.832191 466.358703 
L 123.051744 411.359875 
L 123.271297 443.864955 
L 123.490851 473.564632 
L 123.710404 517.851565 
L 123.929957 418.507568 
L 124.14951 439.545607 
L 124.369063 453.728856 
L 124.588616 494.327559 
L 124.808169 493.471562 
L 125.027723 467.192855 
" style="fill:none;stroke:#96c69a;stroke-linecap:round;stroke-width:3;"/>
   </g>
   <g id="line2d_2">
    <path clip-path="url(#p9b53f539fc)" d="M 125.247276 414.030469 
L 125.466829 423.736083 
L 125.686382 456.146531 
L 125.905935 407.41714 
L 126.345041 485.287457 
L 126.564595 318.842712 
L 126.784148 549.211207 
L 127.003701 373.140166 
L 127.223254 358.722105 
L 127.442807 437.540904 
L 127.66236 466.369753 
L 127.881914 561.827374 
L 128.101467 417.732768 
L 128.32102 412.189644 
L 128.540573 441.993752 
L 128.760126 452.460011 
L 128.979679 355.562268 
L 129.418786 493.67867 
L 129.638339 522.888727 
L 129.857892 456.784227 
L 130.077445 522.160035 
L 130.296998 492.657678 
L 130.516551 369.123038 
L 130.955658 328.516326 
L 131.175211 477.871247 
L 131.394764 201.006079 
L 131.614317 423.639403 
L 131.83387 533.013724 
L 132.053423 517.412157 
L 132.272977 526.952754 
L 132.49253 522.832913 
L 132.712083 421.868542 
L 132.931636 528.887914 
L 133.151189 455.376113 
L 133.370742 509.931545 
L 133.590296 201.245376 
L 133.809849 375.7389 
L 134.029402 437.336368 
L 134.248955 435.170032 
L 134.468508 421.291828 
L 134.688061 426.415921 
L 134.907614 459.606802 
L 135.127168 388.446345 
L 135.346721 404.670951 
L 135.566274 429.242101 
L 135.785827 259.987961 
L 136.00538 462.359162 
L 136.224933 373.943838 
L 136.66404 532.022839 
L 136.883593 512.449367 
L 137.103146 425.838115 
L 137.322699 460.630924 
L 137.542252 386.95392 
L 137.761805 472.504123 
L 137.981359 294.409059 
L 138.200912 423.338232 
L 138.420465 450.13322 
L 138.640018 215.607327 
L 138.859571 229.542188 
L 139.079124 442.1282 
L 139.298678 437.475005 
L 139.518231 422.178011 
L 139.737784 467.148363 
L 139.957337 409.529488 
L 140.17689 509.923228 
L 140.396443 386.63984 
L 140.615996 509.511371 
L 140.83555 488.819229 
L 141.055103 374.019378 
L 141.274656 508.169039 
L 141.494209 324.265739 
L 141.713762 411.843033 
L 141.933315 448.886586 
L 142.152869 383.839124 
L 142.372422 410.008032 
L 142.591975 350.0564 
L 142.811528 505.69598 
L 143.031081 386.569553 
L 143.250634 380.852675 
L 143.470187 453.380196 
L 143.689741 221.678386 
L 143.909294 537.27475 
L 144.128847 424.172171 
L 144.787506 500.296977 
L 145.00706 469.744389 
L 145.226613 320.29195 
L 145.446166 501.207569 
L 145.665719 413.428531 
L 145.885272 506.772488 
L 146.104825 462.686624 
L 146.324378 213.898758 
L 146.543932 383.414507 
L 146.763485 317.401264 
L 146.983038 438.141914 
L 147.202591 430.386726 
L 147.422144 457.999215 
L 147.641697 310.904218 
L 148.080804 473.94745 
L 148.300357 490.229896 
L 148.51991 382.36716 
L 148.739463 475.476072 
L 148.959016 413.077577 
L 149.178569 457.909014 
L 149.398123 363.287948 
L 149.617676 441.958278 
L 149.837229 433.631546 
L 150.056782 365.57485 
L 150.276335 408.342231 
L 150.495888 488.791865 
L 150.715441 399.050818 
L 150.934995 417.669095 
L 151.154548 423.16852 
L 151.374101 551.751161 
L 151.593654 433.916938 
L 151.813207 403.519997 
L 152.03276 451.915687 
L 152.471867 493.789824 
L 152.69142 575.946263 
L 152.910973 448.707623 
L 153.130526 394.39825 
L 153.350079 389.907062 
L 153.569632 503.244171 
L 153.789186 454.376378 
L 154.008739 359.093583 
L 154.447845 550.252663 
L 154.667398 478.68029 
L 154.886951 487.585689 
L 155.326058 451.118338 
L 155.545611 456.010116 
L 155.765164 386.314101 
L 155.984717 441.885226 
L 156.20427 422.697555 
L 156.643377 501.480934 
L 156.86293 454.596521 
L 157.082483 524.62747 
L 157.302036 430.622605 
L 157.521589 416.660638 
L 157.741142 465.398061 
L 157.960696 438.344246 
L 158.180249 502.274907 
L 158.399802 463.202399 
L 158.619355 474.586174 
L 158.838908 459.453122 
L 159.058461 424.343565 
L 159.278014 442.433394 
L 159.497568 561.451362 
L 159.717121 363.825885 
L 159.936674 509.694268 
L 160.37578 390.71121 
L 160.595333 452.300654 
L 160.814887 389.711457 
L 161.03444 485.137158 
L 161.253993 438.705576 
L 161.473546 479.743632 
L 161.693099 342.610705 
L 161.912652 446.718694 
L 162.132205 422.290653 
L 162.351759 444.982151 
L 162.571312 555.68001 
L 163.010418 371.587104 
L 163.229971 422.536338 
L 163.449524 419.629752 
L 163.888631 497.343771 
L 164.108184 361.582217 
L 164.327737 343.233801 
L 164.54729 423.171029 
L 164.766843 411.309844 
L 164.986396 386.519036 
L 165.20595 247.956225 
L 165.425503 447.279092 
L 165.645056 340.833902 
L 165.864609 458.84177 
L 166.084162 489.993486 
L 166.303715 436.171725 
L 166.523269 460.58237 
L 166.742822 409.706479 
L 166.962375 500.170455 
L 167.181928 482.16776 
L 167.401481 476.388588 
L 167.840587 458.023895 
L 168.060141 485.502699 
L 168.279694 407.024673 
L 168.499247 497.233596 
L 168.7188 353.98508 
L 169.157906 467.318602 
L 169.37746 357.915957 
L 169.597013 388.355345 
L 169.816566 391.935118 
L 170.036119 436.635542 
L 170.255672 291.090305 
L 170.694778 502.083216 
L 170.914332 407.990935 
L 171.133885 380.689065 
L 171.353438 542.785054 
L 171.572991 290.357579 
L 171.792544 416.481955 
L 172.012097 380.330288 
L 172.231651 187.166956 
L 172.670757 564.346116 
L 173.109863 396.502058 
L 173.329416 421.214316 
L 173.548969 298.378673 
L 173.768523 545.060172 
L 173.988076 524.870417 
L 174.427182 353.389998 
L 174.646735 393.833571 
L 174.866288 486.653636 
L 175.305395 437.298113 
L 175.524948 451.803438 
L 175.964054 440.145163 
L 176.183607 229.498128 
L 176.40316 443.482307 
L 176.622714 462.107983 
L 176.842267 457.534704 
L 177.06182 440.278494 
L 177.281373 289.829906 
L 177.500926 459.518744 
L 177.720479 442.696634 
L 177.940032 534.945693 
L 178.159586 555.942029 
L 178.379139 509.471825 
L 178.598692 493.344973 
L 178.818245 511.034966 
L 179.037798 389.552539 
L 179.257351 332.241561 
L 179.476905 533.803618 
L 179.696458 526.912721 
L 179.916011 476.855062 
L 180.135564 455.907707 
L 180.355117 308.757538 
L 180.57467 489.80888 
L 180.794223 493.834901 
L 181.23333 481.360355 
L 181.452883 439.479632 
L 181.672436 424.159639 
L 181.891989 538.340393 
L 182.111542 472.110034 
L 182.331096 468.112149 
L 182.550649 431.021178 
L 182.770202 451.043016 
L 183.209308 461.839382 
L 183.428861 495.649979 
L 183.648414 478.360079 
L 183.867968 410.840527 
L 184.087521 509.089467 
L 184.307074 369.513152 
L 184.526627 425.526308 
L 184.965733 468.618903 
L 185.185287 294.21447 
L 185.624393 280.14852 
L 185.843946 287.415112 
L 186.063499 479.932469 
L 186.283052 514.822499 
L 186.502605 498.239619 
L 186.722159 347.140513 
L 186.941712 473.130299 
L 187.161265 337.107217 
L 187.380818 430.184728 
L 187.600371 434.586776 
L 187.819924 506.660688 
L 188.039478 500.917562 
L 188.478584 356.928479 
L 188.698137 528.66951 
L 188.91769 399.611392 
L 189.137243 358.035299 
L 189.356796 454.049145 
L 189.57635 407.753383 
L 189.795903 468.972115 
L 190.015456 181.693981 
L 190.235009 480.22966 
L 190.454562 473.862616 
L 190.674115 462.949558 
L 190.893669 485.274478 
L 191.113222 489.938243 
L 191.332775 509.605735 
L 191.552328 492.858802 
L 191.771881 498.211108 
L 191.991434 410.887158 
L 192.210987 451.76413 
L 192.430541 382.172395 
L 192.650094 234.839088 
L 192.869647 440.151994 
L 193.0892 391.921868 
L 193.308753 503.498628 
L 193.528306 461.74102 
L 193.74786 155.540346 
L 193.967413 506.711468 
L 194.186966 475.24421 
L 194.406519 531.051774 
L 194.845625 389.091558 
L 195.065178 494.032625 
L 195.284732 392.074249 
L 195.504285 486.133755 
L 195.723838 505.940097 
L 195.943391 393.033873 
L 196.162944 406.984262 
L 196.382497 381.179631 
L 196.602051 418.75414 
L 196.821604 500.544459 
L 197.041157 392.216315 
L 197.26071 508.202965 
L 197.480263 403.881853 
L 197.699816 421.348631 
L 197.919369 450.057242 
L 198.358476 323.907643 
L 198.578029 483.762371 
L 199.017135 527.905435 
L 199.236688 360.225515 
L 199.456242 413.612087 
L 199.675795 194.655957 
L 199.895348 274.130004 
L 200.114901 565.154928 
L 200.334454 443.16812 
L 200.554007 534.575139 
L 200.77356 428.355996 
L 200.993114 469.073303 
L 201.43222 379.721144 
L 201.651773 553.4887 
L 202.090879 431.451477 
L 202.310432 473.849949 
L 202.529986 430.642581 
L 202.749539 439.004395 
L 202.969092 428.840929 
L 203.188645 506.603865 
L 203.408198 519.078326 
L 204.066858 357.986957 
L 204.286411 406.370927 
L 204.505964 508.651652 
L 204.725517 385.638046 
L 204.94507 412.015412 
L 205.164623 340.091816 
L 205.384177 419.419087 
L 205.60373 398.718993 
L 205.823283 416.80793 
L 206.262389 509.597816 
L 206.481942 291.277065 
L 206.701496 538.73365 
L 206.921049 487.001135 
L 207.360155 458.041466 
L 207.579708 410.744803 
L 207.799261 413.89284 
L 208.018814 489.477219 
L 208.238368 343.534077 
L 208.457921 427.469555 
L 208.677474 335.643345 
L 208.897027 525.830152 
L 209.11658 427.186032 
L 209.336133 457.192933 
L 209.555687 519.1072 
L 209.994793 431.074088 
L 210.214346 445.455124 
L 210.433899 450.058299 
L 210.653452 488.9761 
L 211.092559 385.608891 
L 211.312112 466.15879 
L 211.531665 501.384349 
L 211.751218 431.858304 
L 211.970771 403.193873 
L 212.190324 390.894204 
L 212.409878 417.599648 
L 212.848984 554.2848 
L 213.28809 485.243358 
L 213.507643 377.81194 
L 213.727196 345.039767 
L 213.94675 454.08318 
L 214.166303 310.877434 
L 214.605409 547.904033 
L 214.824962 353.394126 
L 215.264069 516.320804 
L 215.483622 410.413465 
L 215.703175 535.131327 
L 215.922728 384.743059 
L 216.142281 453.182109 
L 216.361834 347.337649 
L 216.581387 423.052255 
L 216.800941 427.221664 
L 217.020494 314.271354 
L 217.240047 475.563604 
L 217.4596 459.057778 
L 217.679153 482.840893 
L 217.898706 472.335886 
L 218.11826 453.640442 
L 218.337813 355.727179 
L 218.557366 525.940066 
L 218.776919 496.689035 
L 218.996472 441.899665 
L 219.216025 326.272392 
L 219.655132 433.846646 
L 219.874685 496.049371 
L 220.094238 512.657223 
L 220.313791 320.936621 
L 220.533344 318.745823 
L 220.752897 393.312729 
L 220.972451 428.411994 
L 221.192004 311.606863 
L 221.411557 531.145444 
L 221.850663 440.838893 
L 222.070216 527.462154 
L 222.289769 354.57495 
L 222.509323 298.139923 
L 222.728876 511.257793 
L 223.167982 419.173646 
L 223.387535 521.24646 
L 223.607088 411.939829 
L 223.826642 522.103658 
L 224.046195 560.73664 
L 224.265748 367.990603 
L 224.485301 511.334543 
L 224.704854 485.535363 
L 224.924407 283.963814 
L 225.14396 483.403774 
L 225.363514 451.321264 
L 225.583067 446.028729 
L 225.80262 415.846431 
L 226.022173 503.066398 
L 226.241726 351.741744 
L 226.461279 314.785672 
L 226.680833 475.422606 
L 226.900386 272.705391 
L 227.119939 439.643779 
L 227.339492 463.639656 
L 227.559045 381.572379 
L 227.778598 546.35137 
L 227.998151 537.706755 
L 228.217705 472.438831 
L 228.437258 516.354717 
L 228.876364 420.60122 
L 229.095917 418.587317 
L 229.31547 367.427471 
L 229.754577 502.797384 
L 229.97413 403.402302 
L 230.413236 447.624114 
L 230.852342 211.468272 
L 231.071896 544.037692 
L 231.291449 541.270382 
L 231.511002 529.618864 
L 231.730555 461.63348 
L 231.950108 540.652376 
L 232.169661 390.732733 
L 232.608768 490.528056 
L 232.828321 511.643779 
L 233.047874 288.519319 
L 233.267427 535.512721 
L 233.48698 445.91271 
L 233.706533 418.848886 
L 233.926087 483.744988 
L 234.14564 485.264589 
L 234.365193 468.860241 
L 234.584746 344.239213 
L 234.804299 373.990799 
L 235.243405 492.501868 
L 235.462959 539.569356 
L 235.682512 443.492899 
L 235.902065 430.591609 
L 236.121618 521.114168 
L 236.341171 413.546432 
L 236.560724 479.203008 
L 236.780278 458.460881 
L 236.999831 373.741573 
L 237.219384 355.328648 
L 237.438937 446.134918 
L 237.65849 398.564211 
L 237.878043 445.849577 
L 238.097596 434.009155 
L 238.31715 519.044578 
L 238.536703 491.045825 
L 238.756256 542.420404 
L 238.975809 420.817373 
L 239.195362 450.940746 
L 239.414915 415.449908 
L 239.634469 549.036355 
L 239.854022 489.52305 
L 240.073575 549.583728 
L 240.293128 414.627761 
L 240.512681 510.621444 
L 240.951787 289.841315 
L 241.171341 512.106139 
L 241.390894 373.240117 
L 241.83 542.683053 
L 242.049553 440.25605 
L 242.269106 457.718413 
L 242.48866 461.603993 
L 242.708213 536.700923 
L 242.927766 427.918712 
L 243.147319 448.045537 
L 243.366872 493.680274 
L 243.805978 369.078059 
L 244.025532 478.565933 
L 244.245085 467.968995 
L 244.464638 509.053724 
L 244.903744 363.635487 
L 245.123297 389.077463 
L 245.562404 497.917378 
L 245.781957 318.046813 
L 246.221063 504.798375 
L 246.440616 460.414309 
L 246.660169 520.943804 
L 246.879723 394.949194 
L 247.099276 469.585056 
L 247.318829 480.077118 
L 247.538382 458.691866 
L 247.757935 504.228305 
L 248.197042 379.439855 
L 248.636148 438.928244 
L 248.855701 378.390458 
L 249.075254 507.913594 
L 249.294807 519.157736 
L 249.51436 394.186534 
L 249.733914 458.593494 
L 249.953467 397.755917 
L 250.392573 537.374449 
L 250.612126 304.211324 
L 250.831679 506.211404 
L 251.051233 535.455462 
L 251.270786 503.246615 
L 251.490339 517.747164 
L 251.709892 471.539941 
L 251.929445 514.587981 
L 252.148998 273.46141 
L 252.368551 542.595541 
L 252.588105 471.655727 
L 252.807658 453.062095 
L 253.027211 509.212573 
L 253.246764 311.965928 
L 253.466317 483.088631 
L 253.68587 477.703313 
L 253.905424 516.448725 
L 254.124977 426.5196 
L 254.34453 465.806163 
L 254.564083 131.956182 
L 254.783636 429.336246 
L 255.003189 362.869801 
L 255.222742 396.086821 
L 255.442296 322.127301 
L 255.661849 478.610741 
L 255.881402 454.163758 
L 256.100955 448.245684 
L 256.320508 457.796766 
L 256.540061 458.832936 
L 256.759614 554.21439 
L 256.979168 459.552017 
L 257.198721 524.670269 
L 257.418274 431.903446 
L 257.637827 499.288738 
L 257.85738 484.658201 
L 258.076933 497.565802 
L 258.296487 487.013079 
L 258.51604 486.012008 
L 258.735593 478.29409 
L 258.955146 287.775761 
L 259.174699 479.359725 
L 259.394252 394.38459 
L 259.613805 507.648355 
L 259.833359 363.81931 
L 260.052912 492.000454 
L 260.272465 497.170572 
L 260.711571 548.469563 
L 260.931124 349.209758 
L 261.150678 525.059508 
L 261.370231 398.787383 
L 261.589784 462.724477 
L 261.809337 358.717498 
L 262.02889 425.914342 
L 262.248443 554.775059 
L 262.467996 410.069432 
L 262.68755 504.643641 
L 263.126656 562.884141 
L 263.346209 446.583588 
L 263.565762 497.094345 
L 263.785315 409.426654 
L 264.004869 447.226564 
L 264.224422 401.362982 
L 264.443975 401.149424 
L 264.663528 427.80521 
L 264.883081 430.512727 
L 265.102634 260.835292 
L 265.322187 503.032463 
L 265.541741 535.622973 
L 265.761294 509.791687 
L 265.980847 525.777485 
L 266.419953 471.592969 
L 266.639506 489.694704 
L 266.85906 532.575476 
L 267.078613 501.997339 
L 267.298166 319.464549 
L 267.517719 505.47401 
L 267.737272 419.525511 
L 267.956825 461.901291 
L 268.176378 385.486786 
L 268.395932 482.288377 
L 268.615485 447.822342 
L 268.835038 442.133685 
L 269.054591 487.487521 
L 269.274144 393.486353 
L 269.493697 472.13894 
L 269.713251 453.831768 
L 269.932804 400.338617 
L 270.591463 534.409741 
L 270.811016 531.907999 
L 271.030569 301.80444 
L 271.250123 352.534697 
L 271.469676 530.544463 
L 271.689229 435.057765 
L 271.908782 448.611529 
L 272.128335 345.706056 
L 272.347888 465.012266 
L 272.567442 312.184049 
L 272.786995 394.736796 
L 273.006548 363.350419 
L 273.226101 532.503631 
L 273.445654 502.249915 
L 273.665207 548.571961 
L 273.88476 492.53609 
L 274.104314 366.716746 
L 274.323867 477.257358 
L 274.54342 518.527875 
L 274.762973 494.860724 
L 275.202079 364.90525 
L 275.421633 404.084546 
L 275.641186 485.251011 
L 275.860739 327.739634 
L 276.080292 467.670091 
L 276.299845 447.908773 
L 276.519398 466.090075 
L 276.738951 428.779369 
L 276.958505 466.147025 
L 277.178058 469.920289 
L 277.397611 547.798116 
L 277.836717 336.57949 
L 278.05627 514.774007 
L 278.275824 488.145669 
L 278.495377 477.625602 
L 278.71493 503.729687 
L 278.934483 473.90693 
L 279.373589 317.784764 
L 279.593142 222.732878 
L 279.812696 455.251058 
L 280.032249 295.487226 
L 280.251802 484.44704 
L 280.471355 276.958437 
L 280.690908 422.596407 
L 280.910461 214.382309 
L 281.130014 430.245026 
L 281.349568 489.435493 
L 281.569121 436.192819 
L 281.788674 465.213095 
L 282.008227 533.796985 
L 282.22778 466.650945 
L 282.666887 451.711961 
L 282.88644 480.178059 
L 283.105993 473.37997 
L 283.325546 513.56333 
L 283.545099 413.779954 
L 283.764652 428.142852 
L 283.984205 454.500754 
L 284.203759 409.923612 
L 284.423312 334.307129 
L 284.642865 478.041782 
L 284.862418 423.498315 
L 285.081971 399.9135 
L 285.301524 412.592405 
L 285.521078 510.686647 
L 285.740631 452.586419 
L 285.960184 425.839381 
L 286.179737 537.310415 
L 286.39929 540.244744 
L 286.618843 400.352368 
L 286.838396 493.206237 
L 287.05795 423.918047 
L 287.277503 499.777638 
L 287.716609 438.238313 
L 287.936162 439.376627 
L 288.155715 510.416716 
L 288.375269 499.674756 
L 288.594822 362.065153 
L 288.814375 415.997453 
L 289.033928 524.728626 
L 289.253481 413.33293 
L 289.473034 394.138715 
L 289.912141 474.555504 
L 290.131694 581.38839 
L 290.351247 349.878692 
L 290.5708 337.060856 
L 290.790353 491.784891 
L 291.009906 492.706197 
L 291.22946 442.331821 
L 291.449013 346.757133 
L 291.668566 421.737518 
L 291.888119 347.035155 
L 292.107672 379.478025 
L 292.327225 484.909007 
L 292.546778 475.258642 
L 292.766332 445.140267 
L 292.985885 514.282235 
L 293.205438 398.068168 
L 293.424991 486.274641 
L 293.644544 428.399065 
L 293.864097 569.26831 
L 294.083651 440.942061 
L 294.522757 411.226395 
L 294.74231 324.331794 
L 294.961863 359.207607 
L 295.181416 264.653502 
L 295.620523 442.042235 
L 296.059629 419.420036 
L 296.279182 448.104531 
L 296.498735 362.053487 
L 296.718288 509.708999 
L 296.937842 508.239675 
L 297.157395 499.048785 
L 297.376948 471.878982 
L 297.596501 256.705097 
L 297.816054 466.152786 
L 298.035607 446.264481 
L 298.25516 477.330375 
L 298.474714 383.540956 
L 298.694267 478.424193 
L 298.91382 316.818913 
L 299.133373 539.662408 
L 299.572479 404.605758 
L 299.792033 433.469144 
L 300.011586 384.276174 
L 300.231139 470.4547 
L 300.450692 423.728458 
L 300.670245 551.906985 
L 300.889798 294.043082 
L 301.109351 350.668118 
L 301.328905 516.982978 
L 301.548458 451.556778 
L 301.768011 553.031015 
L 301.987564 505.822319 
L 302.207117 304.102042 
L 302.42667 452.384855 
L 302.646224 266.746225 
L 302.865777 465.507126 
L 303.08533 439.494716 
L 303.304883 395.17491 
L 303.524436 319.395704 
L 303.743989 509.266675 
L 303.963542 508.552992 
L 304.183096 297.742891 
L 304.622202 512.433252 
L 304.841755 506.860722 
L 305.061308 456.679946 
L 305.500415 481.663092 
L 305.719968 465.198589 
L 305.939521 471.072149 
L 306.159074 458.872473 
L 306.378627 458.717717 
L 306.59818 371.361622 
L 306.817733 519.86506 
L 307.037287 524.998077 
L 307.25684 518.71016 
L 307.476393 446.664517 
L 307.695946 534.248726 
L 307.915499 446.122571 
L 308.135052 448.260952 
L 308.354605 500.451617 
L 308.574159 484.741486 
L 308.793712 401.783261 
L 309.013265 361.422922 
L 309.232818 529.100968 
L 309.452371 368.034161 
L 309.671924 521.906039 
L 309.891478 437.141689 
L 310.111031 395.740362 
L 310.330584 403.265389 
L 310.550137 517.371912 
L 310.989243 275.48705 
L 311.208796 440.491793 
L 311.42835 475.739378 
L 311.647903 259.494402 
L 311.867456 463.149679 
L 312.087009 523.647038 
L 312.526115 342.701283 
L 312.965222 518.945649 
L 313.184775 559.538845 
L 313.404328 528.126364 
L 313.623881 434.957371 
L 313.843434 524.578379 
L 314.282541 381.145902 
L 314.502094 452.390291 
L 314.721647 366.134928 
L 314.9412 455.059442 
L 315.160753 398.327608 
L 315.380306 399.263049 
L 315.59986 455.670189 
L 315.819413 352.87186 
L 316.038966 518.373212 
L 316.258519 552.853266 
L 316.478072 465.26253 
L 316.697625 505.774808 
L 316.917178 366.499575 
L 317.136732 569.36866 
L 317.356285 187.411765 
L 317.575838 405.186151 
L 317.795391 467.147575 
L 318.014944 460.474813 
L 318.234497 465.433121 
L 318.454051 497.744823 
L 318.893157 462.918848 
L 319.11271 320.800488 
L 319.332263 292.184972 
L 319.551816 482.615322 
L 319.771369 480.016322 
L 319.990923 510.533927 
L 320.210476 326.806211 
L 320.430029 294.602138 
L 320.649582 304.26391 
L 320.869135 435.049343 
L 321.088688 297.675376 
L 321.308242 535.217677 
L 321.527795 419.58376 
L 321.966901 469.271396 
L 322.186454 537.469604 
L 322.406007 438.287221 
L 322.62556 505.288927 
L 322.845114 508.351364 
L 323.064667 473.274395 
L 323.28422 471.174018 
L 323.503773 344.611486 
L 323.942879 468.20135 
L 324.162433 438.822137 
L 324.381986 455.268389 
L 324.601539 418.618418 
L 324.821092 550.450389 
L 325.040645 441.194042 
L 325.260198 515.42417 
L 325.479751 470.879464 
L 325.699305 478.915543 
L 325.918858 294.702859 
L 326.138411 461.330848 
L 326.357964 530.83762 
L 326.577517 483.889227 
L 326.79707 322.585313 
L 327.236177 538.784601 
L 327.45573 493.819443 
L 327.675283 476.925985 
L 327.894836 431.832937 
L 328.333942 526.887911 
L 328.553496 368.733776 
L 328.773049 525.978344 
L 328.992602 437.239751 
L 329.212155 499.448415 
L 329.431708 397.813558 
L 329.651261 403.985857 
L 329.870815 462.870928 
L 330.309921 431.107798 
L 330.529474 524.43001 
L 330.749027 403.246465 
L 330.96858 459.852134 
L 331.188133 446.556964 
L 331.407687 300.859599 
L 331.62724 425.440628 
L 331.846793 348.191773 
L 332.066346 310.981092 
L 332.285899 481.980149 
L 332.505452 479.992728 
L 332.725006 460.317288 
L 332.944559 350.579532 
L 333.164112 566.395855 
L 333.383665 540.971511 
L 333.603218 463.770428 
L 333.822771 428.385968 
L 334.042324 433.741192 
L 334.261878 371.888927 
L 334.481431 384.782625 
L 334.700984 447.608702 
L 334.920537 466.196936 
L 335.14009 505.596785 
L 335.359643 471.476635 
L 335.579196 520.166258 
L 335.79875 379.642892 
L 336.018303 372.137824 
L 336.237856 313.929606 
L 336.676962 467.833595 
L 336.896515 465.838729 
L 337.116069 309.917228 
L 337.335622 354.329082 
L 337.555175 466.968452 
L 337.774728 509.765719 
L 337.994281 346.597898 
L 338.213834 555.223339 
L 338.433387 480.464624 
L 338.652941 329.622235 
L 338.872494 418.312328 
L 339.092047 290.285898 
L 339.3116 521.866315 
L 339.531153 430.364383 
L 339.750706 480.5149 
L 339.97026 442.499549 
L 340.189813 459.29203 
L 340.409366 409.947123 
L 340.628919 484.162612 
L 340.848472 478.138445 
L 341.068025 486.294879 
L 341.287578 520.1176 
L 341.507132 494.173444 
L 341.726685 533.502558 
L 341.946238 523.018449 
L 342.165791 489.364432 
L 342.385344 378.025833 
L 342.604897 504.987808 
L 342.824451 320.14357 
L 343.044004 356.106304 
L 343.263557 431.265576 
L 343.48311 290.003525 
L 343.702663 487.026109 
L 343.922216 533.924481 
L 344.361323 431.468449 
L 344.580876 519.604089 
L 344.800429 319.690937 
L 345.019982 421.359689 
L 345.239535 347.465363 
L 345.459088 433.492064 
L 345.678642 432.563912 
L 345.898195 421.020923 
L 346.117748 487.652181 
L 346.337301 423.393732 
L 346.556854 232.400874 
L 346.776407 411.587723 
L 347.215514 215.789503 
L 347.435067 457.008853 
L 347.65462 527.09592 
L 347.874173 305.712318 
L 348.093726 504.020874 
L 348.313279 498.276895 
L 348.532833 475.108044 
L 348.752386 395.539791 
L 348.971939 456.020184 
L 349.191492 405.562688 
L 349.411045 471.609338 
L 349.630598 436.35419 
L 349.850151 322.472531 
L 350.289258 394.489501 
L 350.728364 424.314849 
L 350.947917 428.106466 
L 351.16747 471.235771 
L 351.387024 455.714441 
L 351.606577 524.085118 
L 351.82613 473.096625 
L 352.045683 480.457777 
L 352.265236 507.411831 
L 352.484789 497.989613 
L 352.704342 428.380677 
L 352.923896 465.507819 
L 353.143449 381.785706 
L 353.363002 237.594606 
L 353.582555 316.11899 
L 354.021661 559.34378 
L 354.241215 535.914816 
L 354.460768 381.83674 
L 354.680321 408.29946 
L 354.899874 301.550471 
L 355.119427 452.045339 
L 355.33898 524.570647 
L 355.99764 441.995864 
L 356.217193 480.804167 
L 356.436746 465.269293 
L 356.656299 379.774737 
L 356.875852 418.466587 
L 357.095406 260.798088 
L 357.314959 411.26452 
L 357.534512 347.853415 
L 357.754065 447.141639 
L 357.973618 421.169118 
L 358.193171 356.096634 
L 358.412724 224.94871 
L 358.851831 516.893646 
L 359.071384 446.724701 
L 359.290937 534.294832 
L 359.51049 377.298206 
L 359.730043 519.207347 
L 359.949596 470.944024 
L 360.16915 472.407755 
L 360.388703 440.961559 
L 360.608256 451.209913 
L 360.827809 394.619532 
L 361.266915 506.485125 
L 361.486469 482.897931 
L 361.706022 488.603303 
L 361.925575 178.836603 
L 362.145128 486.451194 
L 362.364681 429.594124 
L 362.584234 431.209208 
L 362.803787 420.187691 
L 363.023341 336.59189 
L 363.462447 443.512673 
L 363.682 420.439617 
L 364.121106 468.827122 
L 364.34066 435.173768 
L 364.560213 541.885573 
L 364.999319 419.279271 
L 365.218872 550.643637 
L 365.438425 423.169751 
L 365.877532 348.351752 
L 366.097085 352.085825 
L 366.316638 529.653205 
L 366.536191 478.162287 
L 366.755744 536.850665 
L 366.975297 453.466463 
L 367.194851 489.631911 
L 367.414404 420.365631 
L 367.633957 483.944021 
L 367.85351 507.990145 
L 368.292616 459.964141 
L 368.512169 557.604149 
L 368.731723 507.214672 
L 368.951276 418.711917 
L 369.170829 527.506101 
L 369.390382 526.410001 
L 369.609935 501.488686 
L 369.829488 512.306547 
L 370.049042 384.127744 
L 370.268595 480.320039 
L 370.488148 385.747671 
L 370.707701 494.186964 
L 370.927254 440.365477 
L 371.146807 548.737356 
L 371.585914 309.094957 
L 371.805467 494.328926 
L 372.02502 378.828405 
L 372.464126 482.974224 
L 372.683679 410.762586 
L 372.903233 474.812411 
L 373.122786 447.287735 
L 373.342339 397.062419 
L 373.561892 555.567988 
L 374.000998 392.131482 
L 374.440105 530.113436 
L 374.659658 416.859305 
L 374.879211 402.461391 
L 375.098764 523.080503 
L 375.318317 498.532624 
L 375.53787 520.413907 
L 375.757424 515.880416 
L 375.976977 473.38782 
L 376.19653 519.48433 
L 376.416083 450.672567 
L 376.855189 441.447146 
L 377.074742 436.576377 
L 377.294296 362.599417 
L 377.513849 420.389418 
L 377.733402 412.351653 
L 377.952955 322.981737 
L 378.172508 491.683293 
L 378.392061 452.205078 
L 378.611615 473.704245 
L 378.831168 294.493553 
L 379.050721 408.456817 
L 379.270274 401.63033 
L 379.489827 334.224272 
L 379.70938 459.010362 
L 379.928933 403.710377 
L 380.148487 444.178112 
L 380.36804 379.364817 
L 380.587593 377.228974 
L 380.807146 276.505136 
L 381.026699 324.928171 
L 381.246252 463.126491 
L 381.465806 507.129524 
L 381.685359 500.1625 
L 381.904912 446.07486 
L 382.124465 495.713678 
L 382.344018 364.473837 
L 382.563571 384.961523 
L 382.783124 466.504808 
L 383.002678 372.587357 
L 383.222231 568.187205 
L 383.441784 482.194579 
L 383.661337 244.087775 
L 383.88089 503.802181 
L 384.100443 318.499179 
L 384.319997 509.072937 
L 384.53955 438.313822 
L 384.759103 485.431877 
L 384.978656 468.842901 
L 385.198209 372.755017 
L 385.417762 415.129425 
L 385.637315 401.382975 
L 385.856869 508.820001 
L 386.076422 496.307189 
L 386.295975 464.482668 
L 386.515528 530.909957 
L 386.735081 453.328811 
L 386.954634 493.189174 
L 387.174187 366.62972 
L 387.393741 423.923084 
L 387.832847 441.848356 
L 388.271953 534.262956 
L 388.491506 383.91878 
L 388.930613 518.597163 
L 389.150166 504.195258 
L 389.369719 421.941681 
L 389.589272 543.844455 
L 389.808825 323.727815 
L 390.247932 516.141009 
L 390.467485 328.886768 
L 390.687038 512.365172 
L 391.126144 292.017089 
L 391.345697 339.45904 
L 391.565251 502.869297 
L 391.784804 423.406202 
L 392.22391 467.599476 
L 392.663016 427.921149 
L 392.882569 453.50381 
L 393.541229 331.616925 
L 393.760782 451.088251 
L 393.980335 505.396192 
L 394.199888 525.324621 
L 394.419442 524.459654 
L 394.638995 282.851962 
L 395.297654 427.882615 
L 395.517207 419.852794 
L 395.73676 397.433172 
L 395.956314 497.515762 
L 396.39542 451.814006 
L 396.614973 364.950717 
L 396.834526 509.021298 
L 397.054079 510.932185 
L 397.273633 284.565337 
L 397.493186 464.347229 
L 397.712739 264.68412 
L 397.932292 385.696004 
L 398.371398 266.565244 
L 398.590951 498.423597 
L 399.030058 422.198269 
L 399.249611 313.416806 
L 399.469164 415.5857 
L 399.688717 352.502542 
L 399.90827 385.361676 
L 400.127824 493.25527 
L 400.347377 518.13128 
L 400.56693 440.338063 
L 400.786483 418.552662 
L 401.006036 442.363259 
L 401.225589 307.976278 
L 401.664696 467.479605 
L 401.884249 467.202534 
L 402.103802 476.831053 
L 402.323355 405.17677 
L 402.542908 478.233291 
L 402.762461 464.847158 
L 402.982015 464.28772 
L 403.201568 457.424981 
L 403.421121 444.130927 
L 403.640674 422.86721 
L 403.860227 308.906767 
L 404.299333 481.2662 
L 404.518887 521.801534 
L 404.73844 405.483998 
L 404.957993 395.826779 
L 405.177546 321.809044 
L 405.397099 482.77084 
L 405.616652 413.107649 
L 405.836206 532.836647 
L 406.055759 405.015252 
L 406.494865 521.001763 
L 406.714418 386.819299 
L 406.933971 457.58025 
L 407.153524 322.006915 
L 407.373078 477.564924 
L 407.592631 175.836291 
L 407.812184 442.243493 
L 408.031737 411.63509 
L 408.25129 417.896017 
L 408.470843 528.675613 
L 408.690397 537.328082 
L 408.90995 200.883374 
L 409.129503 490.7083 
L 409.349056 446.125868 
L 409.568609 469.94854 
L 409.788162 566.437309 
L 410.007715 474.918595 
L 410.446822 435.31465 
L 410.666375 444.887963 
L 410.885928 394.168587 
L 411.105481 390.940721 
L 411.325034 367.795541 
L 411.764141 540.836012 
L 411.983694 493.674352 
L 412.4228 343.289886 
L 412.642353 384.456838 
L 412.861906 485.60214 
L 413.08146 245.68515 
L 413.301013 443.793501 
L 413.520566 354.849776 
L 413.740119 503.333358 
L 413.959672 307.327654 
L 414.179225 421.561579 
L 414.398778 388.054697 
L 414.618332 425.778292 
L 414.837885 305.327578 
L 415.057438 526.617225 
L 415.276991 476.481182 
L 415.496544 188.647017 
L 415.716097 430.049098 
L 415.935651 394.965958 
L 416.155204 514.193508 
L 416.374757 299.292881 
L 416.59431 478.755388 
L 416.813863 490.689379 
L 417.033416 493.82002 
L 417.252969 302.403241 
L 417.472523 357.11234 
L 417.692076 517.680027 
L 417.911629 441.403477 
L 418.131182 411.184552 
L 418.350735 505.955938 
L 418.570288 455.56705 
L 418.789842 536.621229 
L 419.228948 446.904495 
L 419.448501 526.362667 
L 419.668054 464.409353 
L 420.10716 310.043694 
L 420.326714 454.700902 
L 420.546267 470.905174 
L 420.76582 477.615068 
L 420.985373 410.802362 
L 421.204926 521.470051 
L 421.424479 463.482761 
L 421.644033 516.330795 
L 421.863586 444.840666 
L 422.083139 480.377645 
L 422.302692 413.430598 
L 422.522245 419.283469 
L 422.741798 410.238665 
L 422.961351 384.226521 
L 423.180905 543.102636 
L 423.400458 347.566451 
L 423.839564 457.177193 
L 424.059117 460.103064 
L 424.27867 352.551428 
L 424.498224 480.033542 
L 424.717777 503.202417 
L 424.93733 435.791956 
L 425.156883 289.16499 
L 425.376436 359.448446 
L 425.595989 498.125899 
L 425.815542 435.551674 
L 426.035096 318.528778 
L 426.254649 465.111676 
L 426.474202 507.17485 
L 426.693755 485.911791 
L 426.913308 402.77257 
L 427.132861 390.285365 
L 427.571968 528.749895 
L 427.791521 413.275499 
L 428.011074 458.273685 
L 428.230627 531.211624 
L 428.45018 550.431701 
L 428.669733 442.533128 
L 428.889287 472.682633 
L 429.10884 541.292059 
L 429.328393 386.629263 
L 429.547946 432.149254 
L 429.767499 354.15242 
L 429.987052 417.093397 
L 430.206606 343.967324 
L 430.426159 576.05892 
L 431.304371 335.935305 
L 431.523924 476.164238 
L 431.743478 444.609696 
L 431.963031 475.113179 
L 432.182584 466.200982 
L 432.402137 492.832727 
L 432.62169 419.506679 
L 432.841243 394.393945 
L 433.060797 243.847649 
L 433.28035 205.515426 
L 433.499903 425.960167 
L 433.719456 500.587591 
L 433.939009 511.189423 
L 434.158562 473.536479 
L 434.597669 335.842054 
L 434.817222 371.880192 
L 435.036775 471.59026 
L 435.256328 457.035739 
L 435.475881 499.24596 
L 435.695434 500.392558 
L 435.914988 436.836172 
L 436.134541 547.465124 
L 436.354094 456.567134 
L 436.573647 471.319733 
L 437.012753 356.9149 
L 437.232306 353.721706 
L 437.671413 512.24389 
L 437.890966 491.141226 
L 438.110519 494.091006 
L 438.330072 493.851783 
L 438.549625 360.242665 
L 438.988732 451.563759 
L 439.208285 438.47615 
L 439.427838 416.581809 
L 439.647391 321.92779 
L 439.866944 485.483912 
L 440.086497 430.654968 
L 440.306051 333.250488 
L 440.525604 410.846443 
L 440.745157 177.690955 
L 441.184263 468.768743 
L 441.403816 335.485622 
L 441.623369 422.969822 
L 441.842923 412.909621 
L 442.062476 376.638175 
L 442.282029 519.344838 
L 442.501582 418.173164 
L 442.940688 519.37305 
L 443.160242 536.341704 
L 443.379795 367.939878 
L 443.599348 418.858896 
L 443.818901 364.529412 
L 444.038454 405.410284 
L 444.258007 416.003199 
L 444.47756 380.672139 
L 444.916667 225.792596 
L 445.13622 238.741022 
L 445.355773 132.910848 
L 445.575326 297.861422 
L 445.794879 350.290561 
L 446.014433 443.876306 
L 446.233986 424.038382 
L 446.453539 339.450734 
L 446.673092 421.866381 
L 446.892645 440.871978 
L 447.112198 507.350488 
L 447.331751 437.504252 
L 447.551305 491.685015 
L 447.770858 447.997014 
L 447.990411 476.278724 
L 448.209964 469.953571 
L 448.429517 360.264261 
L 448.868624 281.233598 
L 449.088177 567.71561 
L 449.30773 553.731501 
L 449.527283 477.125318 
L 449.746836 481.199625 
L 450.185942 430.104193 
L 450.405496 484.782582 
L 451.064155 395.114604 
L 451.283708 469.444865 
L 451.503261 427.860367 
L 451.722815 234.839476 
L 451.942368 366.725843 
L 452.161921 379.987534 
L 452.381474 478.042111 
L 452.601027 438.634885 
L 452.82058 506.890523 
L 453.47924 328.94417 
L 453.698793 562.27531 
L 453.918346 450.459705 
L 454.137899 425.867135 
L 454.357452 474.311172 
L 454.577006 346.434103 
L 455.455218 506.572654 
L 455.894324 329.206419 
L 456.552984 489.842829 
L 456.772537 471.716321 
L 456.99209 407.631057 
L 457.211643 471.306995 
L 457.431197 358.875191 
L 457.65075 385.85156 
L 457.870303 482.825616 
L 458.089856 504.286096 
L 458.309409 302.866299 
L 458.528962 502.096936 
L 458.748515 365.756577 
L 458.968069 473.077776 
L 459.187622 398.738227 
L 459.407175 493.663962 
L 459.626728 521.045924 
L 459.846281 456.035977 
L 460.285388 434.539299 
L 460.504941 502.554002 
L 460.724494 347.064874 
L 461.1636 443.531846 
L 461.383153 515.84191 
L 461.602706 434.798062 
L 461.82226 519.393551 
L 462.041813 461.061346 
L 462.261366 461.912527 
L 462.480919 508.285106 
L 462.920025 390.47259 
L 463.139579 427.965587 
L 463.359132 539.767789 
L 463.578685 510.715872 
L 463.798238 382.00303 
L 464.017791 433.246295 
L 464.237344 386.844181 
L 464.456897 544.514342 
L 464.676451 408.333049 
L 464.896004 491.454929 
L 465.115557 429.698824 
L 465.33511 457.690236 
L 465.554663 367.174106 
L 465.774216 433.682592 
L 465.993769 323.876775 
L 466.213323 440.900146 
L 466.432876 215.363484 
L 466.652429 446.496491 
L 466.871982 476.133856 
L 467.091535 436.576026 
L 467.311088 500.414308 
L 467.530642 424.40471 
L 467.750195 449.20328 
L 467.969748 509.174148 
L 468.189301 458.809176 
L 468.408854 449.851559 
L 468.628407 432.585894 
L 468.84796 468.157749 
L 469.067514 523.355375 
L 469.50662 471.507513 
L 469.726173 529.713608 
L 469.945726 506.221659 
L 470.165279 416.246173 
L 470.604386 510.088178 
L 470.823939 456.974989 
L 471.043492 317.66617 
L 471.263045 466.794259 
L 471.702151 407.06164 
L 471.921705 366.866492 
L 472.141258 451.885808 
L 472.360811 332.023682 
L 472.580364 416.684437 
L 472.799917 375.550283 
L 473.01947 459.138599 
L 473.67813 549.807251 
L 473.897683 433.650889 
L 474.117236 439.247937 
L 474.336789 426.239261 
L 474.556342 512.258538 
L 474.775896 513.162785 
L 475.654108 241.765292 
L 475.873661 369.29791 
L 476.093215 429.028452 
L 476.312768 528.101941 
L 476.532321 494.012293 
L 476.971427 321.437931 
L 477.410533 433.553386 
L 477.630087 336.658941 
L 477.84964 413.607861 
L 478.069193 434.579717 
L 478.288746 356.39173 
L 478.508299 522.738893 
L 478.727852 469.495248 
L 478.947406 538.559081 
L 479.166959 450.527271 
L 479.386512 511.080452 
L 479.606065 382.546115 
L 479.825618 495.370243 
L 480.045171 400.241241 
L 480.264724 433.141125 
L 480.484278 272.933295 
L 480.703831 505.046247 
L 480.923384 428.638709 
L 481.142937 469.385018 
L 481.36249 266.320286 
L 481.582043 451.15629 
L 481.801597 453.374882 
L 482.02115 426.721032 
L 482.240703 514.470816 
L 482.460256 497.175694 
L 482.679809 500.805475 
L 482.899362 509.718581 
L 483.338469 487.1456 
L 483.558022 497.587395 
L 483.777575 559.735052 
L 483.997128 534.089721 
L 484.216681 470.398346 
L 484.436234 499.813035 
L 484.655788 469.114498 
L 484.875341 514.665417 
L 485.314447 451.893342 
L 485.534 487.903523 
L 486.19266 281.012941 
L 486.412213 484.55434 
L 486.631766 364.967818 
L 486.851319 395.172544 
L 487.070872 374.758009 
L 487.290425 492.473851 
L 487.509979 467.88921 
L 487.729532 411.169141 
L 487.949085 489.451015 
L 488.168638 478.436663 
L 488.607744 415.962839 
L 488.827297 500.862069 
L 489.046851 476.913118 
L 489.266404 336.882476 
L 489.70551 456.803229 
L 489.925063 364.631895 
L 490.144616 494.237114 
L 490.364169 494.151698 
L 490.583723 491.276366 
L 490.803276 221.217576 
L 491.242382 482.793025 
L 491.461935 425.327722 
L 491.681488 538.701229 
L 492.120595 372.77768 
L 492.340148 535.528844 
L 492.559701 425.566004 
L 492.779254 546.145339 
L 492.998807 511.861088 
L 493.21836 398.217991 
L 493.437914 489.523756 
L 493.87702 389.696072 
L 494.096573 464.44704 
L 494.316126 272.599896 
L 494.535679 464.033167 
L 494.755233 254.383881 
L 494.974786 398.104477 
L 495.194339 462.852124 
L 495.413892 375.031172 
L 495.633445 465.450254 
L 495.852998 475.079955 
L 496.072551 517.213586 
L 496.292105 277.505056 
L 496.511658 519.657108 
L 496.731211 532.161785 
L 496.950764 509.836418 
L 497.170317 438.104214 
L 497.38987 248.107795 
L 497.609424 328.254891 
L 497.828977 487.682119 
L 498.04853 472.663835 
L 498.268083 261.005169 
L 498.487636 435.790623 
L 498.707189 416.904581 
L 498.926742 481.280703 
L 499.146296 505.256742 
L 499.365849 501.728488 
L 499.585402 454.28527 
L 499.804955 488.872802 
L 500.024508 490.13192 
L 500.244061 525.152947 
L 500.463615 541.243576 
L 500.683168 315.095541 
L 500.902721 431.042092 
L 501.122274 463.866327 
L 501.341827 538.291658 
L 501.780933 480.106819 
L 502.000487 524.05451 
L 502.22004 504.233685 
L 502.439593 550.279224 
L 502.659146 372.987693 
L 502.878699 495.239532 
L 503.098252 409.048029 
L 503.317806 375.482244 
L 503.537359 468.406621 
L 503.756912 464.334441 
L 503.976465 449.345333 
L 504.196018 486.687122 
L 504.415571 444.829077 
L 504.635124 463.560585 
L 504.854678 503.496385 
L 505.074231 380.697385 
L 505.293784 380.017522 
L 505.73289 151.382861 
L 505.952443 346.923346 
L 506.171997 408.364956 
L 506.39155 389.554393 
L 506.611103 493.094881 
L 506.830656 501.203434 
L 507.050209 492.541791 
L 507.269762 456.055397 
L 507.489315 397.776498 
L 507.708869 524.35577 
L 507.928422 493.864679 
L 508.367528 531.412034 
L 508.587081 527.058442 
L 509.026188 339.138235 
L 509.465294 464.652129 
L 509.684847 449.314382 
L 509.9044 459.651528 
L 510.123953 223.603462 
L 510.343506 520.264341 
L 510.56306 492.758539 
L 510.782613 421.900065 
L 511.002166 474.877974 
L 511.221719 328.424513 
L 511.441272 366.127475 
L 511.660825 466.757425 
L 511.880379 362.213194 
L 512.099932 313.659061 
L 512.319485 511.250917 
L 512.539038 440.725973 
L 512.758591 483.847677 
L 512.978144 356.870342 
L 513.197697 430.590293 
L 513.417251 442.046889 
L 513.636804 533.741134 
L 513.856357 503.027961 
L 514.07591 394.030523 
L 514.295463 516.535129 
L 514.954123 446.0732 
L 515.173676 502.509135 
L 515.393229 462.630173 
L 515.612782 395.734423 
L 516.051888 514.820897 
L 516.490995 429.637133 
L 516.930101 510.024347 
L 517.149654 464.859179 
L 517.369207 470.535811 
L 517.58876 399.503741 
L 517.808314 430.605687 
L 518.027867 537.891185 
L 518.24742 445.851271 
L 518.466973 540.83626 
L 518.906079 337.88315 
L 519.125633 451.950035 
L 519.345186 450.769527 
L 519.564739 404.938158 
L 519.784292 475.253859 
L 520.003845 479.014134 
L 520.223398 494.416649 
L 520.442951 395.082831 
L 520.662505 479.313292 
L 521.101611 385.308258 
L 521.540717 492.518458 
L 521.76027 450.194928 
L 521.979824 455.875026 
L 522.199377 558.496116 
L 522.41893 406.984888 
L 522.858036 493.567484 
L 523.077589 471.76026 
L 523.297142 412.781245 
L 523.516696 527.093224 
L 523.736249 381.495437 
L 523.955802 468.942848 
L 524.175355 367.681017 
L 524.394908 466.28636 
L 524.614461 302.645034 
L 524.834015 251.607275 
L 525.053568 457.077731 
L 525.273121 535.062745 
L 525.492674 428.171812 
L 525.712227 434.528028 
L 525.93178 470.911955 
L 526.151333 404.325199 
L 526.370887 484.947262 
L 526.59044 522.845878 
L 526.809993 493.258744 
L 527.029546 482.112444 
L 527.249099 442.590694 
L 527.468652 327.019386 
L 527.688206 471.429047 
L 527.907759 497.845753 
L 528.127312 450.867024 
L 528.346865 339.280988 
L 528.785971 477.888295 
L 529.005524 396.804134 
L 529.225078 538.805734 
L 529.444631 491.509155 
L 529.664184 508.766014 
L 530.322843 286.710927 
L 530.76195 452.126706 
L 530.981503 411.340214 
L 531.201056 418.329568 
L 531.420609 482.775287 
L 531.640162 362.536367 
L 531.859715 454.592381 
L 532.079269 327.531337 
L 532.298822 504.946831 
L 532.518375 473.184485 
L 532.737928 315.534026 
L 532.957481 418.078516 
L 533.396588 474.888612 
L 533.616141 436.772253 
L 533.835694 502.891267 
L 534.055247 518.152249 
L 534.2748 455.815228 
L 534.494353 503.966509 
L 534.713906 505.226885 
L 534.93346 507.143819 
L 535.153013 478.090208 
L 535.372566 321.916026 
L 535.592119 528.965132 
L 535.811672 342.924503 
L 536.031225 442.035733 
L 536.250779 467.72833 
L 536.470332 426.158769 
L 536.689885 409.428709 
L 536.909438 258.648869 
L 537.128991 542.970456 
L 537.348544 352.153772 
L 537.568097 402.716389 
L 537.787651 370.345384 
L 538.007204 470.918319 
L 538.226757 475.530075 
L 538.665863 344.395977 
L 539.10497 535.038214 
L 539.324523 562.345747 
L 539.544076 486.552727 
L 539.763629 502.900655 
L 539.983182 457.380727 
L 540.202735 329.317539 
L 540.422288 327.573883 
L 540.641842 386.254142 
L 540.861395 549.810011 
L 541.080948 421.721806 
L 541.520054 509.58581 
L 541.95916 291.210547 
L 542.398267 467.578298 
L 542.61782 413.749771 
L 542.837373 440.278121 
L 543.056926 327.726988 
L 543.276479 394.062304 
L 543.496033 505.076656 
L 543.715586 467.983625 
L 543.935139 348.917049 
L 544.154692 442.34064 
L 544.374245 379.652947 
L 544.593798 402.520576 
L 544.813351 497.373941 
L 545.252458 434.456921 
L 545.472011 502.420946 
L 545.691564 361.944694 
L 545.911117 421.721547 
L 546.13067 415.603259 
L 546.350224 503.661114 
L 546.569777 375.780708 
L 546.78933 520.687755 
L 547.008883 554.371377 
L 547.228436 460.785988 
L 547.447989 427.749908 
L 547.667542 547.284498 
L 547.887096 477.226395 
L 548.106649 465.116744 
L 548.326202 389.51968 
L 548.545755 476.381057 
L 548.765308 484.210243 
L 548.984861 439.171509 
L 549.204415 525.503337 
L 549.423968 508.249691 
L 549.643521 446.99189 
L 549.863074 273.65051 
L 550.082627 490.407043 
L 550.30218 543.281198 
L 550.521733 488.02471 
L 550.741287 400.654573 
L 551.180393 488.9843 
L 551.399946 421.796533 
L 551.619499 554.816169 
L 551.839052 511.404923 
L 552.058606 491.585476 
L 552.278159 520.570149 
L 552.497712 453.014265 
L 552.717265 429.333091 
L 552.936818 380.426532 
L 553.156371 549.123854 
L 553.375924 487.458285 
L 553.595478 457.487692 
L 553.815031 462.752905 
L 554.034584 369.025923 
L 554.47369 417.454475 
L 554.693243 326.893457 
L 554.912797 283.774177 
L 555.13235 311.312872 
L 555.351903 402.060861 
L 555.571456 439.962277 
L 555.791009 440.394581 
L 556.010562 313.69544 
L 556.230115 324.524551 
L 556.449669 295.30592 
L 557.108328 439.810351 
L 557.327881 397.160512 
L 557.547434 498.983726 
L 557.766988 287.942162 
L 558.206094 526.216021 
L 558.425647 441.290329 
L 558.6452 478.182324 
L 558.864753 461.952112 
L 559.084306 538.359 
L 559.30386 445.250296 
L 559.523413 284.597569 
L 559.742966 465.004784 
L 559.742966 465.004784 
" style="fill:none;stroke:#1a283d;stroke-linecap:round;stroke-width:3;"/>
   </g>
   <g id="line2d_3"/>
   <g id="line2d_4"/>
   <g id="patch_3">
    <path d="M 98.911875 603.86 
L 98.911875 109.484571 
" style="fill:none;stroke:#262626;stroke-linecap:square;stroke-linejoin:miter;stroke-width:2.5;"/>
   </g>
   <g id="patch_4">
    <path d="M 98.911875 603.86 
L 581.687304 603.86 
" style="fill:none;stroke:#262626;stroke-linecap:square;stroke-linejoin:miter;stroke-width:2.5;"/>
   </g>
   <g id="legend_1">
    <g id="patch_5">
     <path d="M 521.813866 598.86 
L 574.687304 598.86 
Q 576.687304 598.86 576.687304 596.86 
L 576.687304 540.27625 
Q 576.687304 538.27625 574.687304 538.27625 
L 521.813866 538.27625 
Q 519.813866 538.27625 519.813866 540.27625 
L 519.813866 596.86 
Q 519.813866 598.86 521.813866 598.86 
z
" style="fill:#ffffff;opacity:0.8;stroke:#cccccc;stroke-linejoin:miter;stroke-width:2;"/>
    </g>
    <g id="text_17">
     <!-- $n_\tau$ -->
     <g style="fill:#262626;" transform="translate(535.170585 560.5125)scale(0.24 -0.24)">
      <defs>
       <path d="M 3566 2113 
L 3156 0 
L 2578 0 
L 2988 2091 
Q 3016 2238 3031 2350 
Q 3047 2463 3047 2528 
Q 3047 2791 2881 2937 
Q 2716 3084 2419 3084 
Q 1956 3084 1622 2776 
Q 1288 2469 1184 1941 
L 800 0 
L 225 0 
L 903 3500 
L 1478 3500 
L 1363 2950 
Q 1603 3253 1940 3418 
Q 2278 3584 2650 3584 
Q 3113 3584 3367 3334 
Q 3622 3084 3622 2631 
Q 3622 2519 3608 2391 
Q 3594 2263 3566 2113 
z
" id="DejaVuSans-Oblique-6e" transform="scale(0.015625)"/>
       <path d="M 2103 638 
Q 2188 488 2525 488 
L 2800 488 
L 2706 0 
L 2363 0 
Q 1800 0 1600 300 
Q 1403 606 1534 1269 
L 1856 2925 
L 541 2925 
L 653 3500 
L 3881 3500 
L 3769 2925 
L 2444 2925 
L 2113 1234 
Q 2025 781 2103 638 
z
" id="DejaVuSans-Oblique-3c4" transform="scale(0.015625)"/>
      </defs>
      <use xlink:href="#DejaVuSans-Oblique-6e"/>
      <use transform="translate(63.378906 -16.40625)scale(0.7)" xlink:href="#DejaVuSans-Oblique-3c4"/>
     </g>
    </g>
    <g id="line2d_5">
     <path d="M 523.813866 574.602188 
L 543.813866 574.602188 
" style="fill:none;stroke:#96c69a;stroke-linecap:round;stroke-width:3;"/>
    </g>
    <g id="line2d_6"/>
    <g id="text_18">
     <!-- 100 -->
     <g style="fill:#262626;" transform="translate(551.813866 578.102188)scale(0.1 -0.1)">
      <defs>
       <path d="M 750 831 
L 1813 831 
L 1813 3847 
L 722 3622 
L 722 4441 
L 1806 4666 
L 2950 4666 
L 2950 831 
L 4013 831 
L 4013 0 
L 750 0 
L 750 831 
z
" id="DejaVuSans-Bold-31" transform="scale(0.015625)"/>
       <path d="M 2944 2338 
Q 2944 3213 2780 3570 
Q 2616 3928 2228 3928 
Q 1841 3928 1675 3570 
Q 1509 3213 1509 2338 
Q 1509 1453 1675 1090 
Q 1841 728 2228 728 
Q 2613 728 2778 1090 
Q 2944 1453 2944 2338 
z
M 4147 2328 
Q 4147 1169 3647 539 
Q 3147 -91 2228 -91 
Q 1306 -91 806 539 
Q 306 1169 306 2328 
Q 306 3491 806 4120 
Q 1306 4750 2228 4750 
Q 3147 4750 3647 4120 
Q 4147 3491 4147 2328 
z
" id="DejaVuSans-Bold-30" transform="scale(0.015625)"/>
      </defs>
      <use xlink:href="#DejaVuSans-Bold-31"/>
      <use x="69.580078" xlink:href="#DejaVuSans-Bold-30"/>
      <use x="139.160156" xlink:href="#DejaVuSans-Bold-30"/>
     </g>
    </g>
    <g id="line2d_7">
     <path d="M 523.813866 589.280313 
L 543.813866 589.280313 
" style="fill:none;stroke:#1a283d;stroke-linecap:round;stroke-width:3;"/>
    </g>
    <g id="line2d_8"/>
    <g id="text_19">
     <!-- 125 -->
     <g style="fill:#262626;" transform="translate(551.813866 592.780313)scale(0.1 -0.1)">
      <defs>
       <path d="M 1844 884 
L 3897 884 
L 3897 0 
L 506 0 
L 506 884 
L 2209 2388 
Q 2438 2594 2547 2791 
Q 2656 2988 2656 3200 
Q 2656 3528 2436 3728 
Q 2216 3928 1850 3928 
Q 1569 3928 1234 3808 
Q 900 3688 519 3450 
L 519 4475 
Q 925 4609 1322 4679 
Q 1719 4750 2100 4750 
Q 2938 4750 3402 4381 
Q 3866 4013 3866 3353 
Q 3866 2972 3669 2642 
Q 3472 2313 2841 1759 
L 1844 884 
z
" id="DejaVuSans-Bold-32" transform="scale(0.015625)"/>
       <path d="M 678 4666 
L 3669 4666 
L 3669 3781 
L 1638 3781 
L 1638 3059 
Q 1775 3097 1914 3117 
Q 2053 3138 2203 3138 
Q 3056 3138 3531 2711 
Q 4006 2284 4006 1522 
Q 4006 766 3489 337 
Q 2972 -91 2053 -91 
Q 1656 -91 1267 -14 
Q 878 63 494 219 
L 494 1166 
Q 875 947 1217 837 
Q 1559 728 1863 728 
Q 2300 728 2551 942 
Q 2803 1156 2803 1522 
Q 2803 1891 2551 2103 
Q 2300 2316 1863 2316 
Q 1603 2316 1309 2248 
Q 1016 2181 678 2041 
L 678 4666 
z
" id="DejaVuSans-Bold-35" transform="scale(0.015625)"/>
      </defs>
      <use xlink:href="#DejaVuSans-Bold-31"/>
      <use x="69.580078" xlink:href="#DejaVuSans-Bold-32"/>
      <use x="139.160156" xlink:href="#DejaVuSans-Bold-35"/>
     </g>
    </g>
   </g>
  </g>
  <g id="axes_2">
   <g id="patch_6">
    <path d="M 98.911875 92.437143 
L 581.687304 92.437143 
L 581.687304 7.2 
L 98.911875 7.2 
z
" style="fill:none;"/>
   </g>
   <g id="matplotlib.axis_3">
    <g id="xtick_7"/>
    <g id="xtick_8"/>
    <g id="xtick_9"/>
    <g id="xtick_10"/>
    <g id="xtick_11"/>
    <g id="xtick_12"/>
   </g>
   <g id="matplotlib.axis_4">
    <g id="ytick_9">
     <g id="text_20">
      <!-- 0 -->
      <g style="fill:#262626;" transform="translate(69.414375 100.795424)scale(0.22 -0.22)">
       <use xlink:href="#DejaVuSans-30"/>
      </g>
     </g>
    </g>
    <g id="ytick_10">
     <g id="text_21">
      <!-- 100 -->
      <g style="fill:#262626;" transform="translate(41.419375 48.082287)scale(0.22 -0.22)">
       <use xlink:href="#DejaVuSans-31"/>
       <use x="63.623047" xlink:href="#DejaVuSans-30"/>
       <use x="127.246094" xlink:href="#DejaVuSans-30"/>
      </g>
     </g>
    </g>
   </g>
   <g id="patch_7">
    <path clip-path="url(#pb571adbd11)" d="M 120.856213 92.437143 
L 154.616732 92.437143 
L 154.616732 21.801539 
L 120.856213 21.801539 
z
" style="fill:#1a283d;fill-opacity:0.5;stroke:#ffffff;stroke-linejoin:miter;stroke-width:2;"/>
   </g>
   <g id="patch_8">
    <path clip-path="url(#pb571adbd11)" d="M 154.616732 92.437143 
L 188.377252 92.437143 
L 188.377252 11.258912 
L 154.616732 11.258912 
z
" style="fill:#1a283d;fill-opacity:0.5;stroke:#ffffff;stroke-linejoin:miter;stroke-width:2;"/>
   </g>
   <g id="patch_9">
    <path clip-path="url(#pb571adbd11)" d="M 188.377252 92.437143 
L 222.137771 92.437143 
L 222.137771 11.258912 
L 188.377252 11.258912 
z
" style="fill:#1a283d;fill-opacity:0.5;stroke:#ffffff;stroke-linejoin:miter;stroke-width:2;"/>
   </g>
   <g id="patch_10">
    <path clip-path="url(#pb571adbd11)" d="M 222.137771 92.437143 
L 255.898291 92.437143 
L 255.898291 11.258912 
L 222.137771 11.258912 
z
" style="fill:#1a283d;fill-opacity:0.5;stroke:#ffffff;stroke-linejoin:miter;stroke-width:2;"/>
   </g>
   <g id="patch_11">
    <path clip-path="url(#pb571adbd11)" d="M 255.898291 92.437143 
L 289.65881 92.437143 
L 289.65881 11.786043 
L 255.898291 11.786043 
z
" style="fill:#1a283d;fill-opacity:0.5;stroke:#ffffff;stroke-linejoin:miter;stroke-width:2;"/>
   </g>
   <g id="patch_12">
    <path clip-path="url(#pb571adbd11)" d="M 289.65881 92.437143 
L 323.41933 92.437143 
L 323.41933 11.258912 
L 289.65881 11.258912 
z
" style="fill:#1a283d;fill-opacity:0.5;stroke:#ffffff;stroke-linejoin:miter;stroke-width:2;"/>
   </g>
   <g id="patch_13">
    <path clip-path="url(#pb571adbd11)" d="M 323.41933 92.437143 
L 357.179849 92.437143 
L 357.179849 11.258912 
L 323.41933 11.258912 
z
" style="fill:#1a283d;fill-opacity:0.5;stroke:#ffffff;stroke-linejoin:miter;stroke-width:2;"/>
   </g>
   <g id="patch_14">
    <path clip-path="url(#pb571adbd11)" d="M 357.179849 92.437143 
L 390.940369 92.437143 
L 390.940369 11.258912 
L 357.179849 11.258912 
z
" style="fill:#1a283d;fill-opacity:0.5;stroke:#ffffff;stroke-linejoin:miter;stroke-width:2;"/>
   </g>
   <g id="patch_15">
    <path clip-path="url(#pb571adbd11)" d="M 390.940369 92.437143 
L 424.700888 92.437143 
L 424.700888 11.786043 
L 390.940369 11.786043 
z
" style="fill:#1a283d;fill-opacity:0.5;stroke:#ffffff;stroke-linejoin:miter;stroke-width:2;"/>
   </g>
   <g id="patch_16">
    <path clip-path="url(#pb571adbd11)" d="M 424.700888 92.437143 
L 458.461407 92.437143 
L 458.461407 11.258912 
L 424.700888 11.258912 
z
" style="fill:#1a283d;fill-opacity:0.5;stroke:#ffffff;stroke-linejoin:miter;stroke-width:2;"/>
   </g>
   <g id="patch_17">
    <path clip-path="url(#pb571adbd11)" d="M 458.461407 92.437143 
L 492.221927 92.437143 
L 492.221927 11.258912 
L 458.461407 11.258912 
z
" style="fill:#1a283d;fill-opacity:0.5;stroke:#ffffff;stroke-linejoin:miter;stroke-width:2;"/>
   </g>
   <g id="patch_18">
    <path clip-path="url(#pb571adbd11)" d="M 492.221927 92.437143 
L 525.982446 92.437143 
L 525.982446 11.258912 
L 492.221927 11.258912 
z
" style="fill:#1a283d;fill-opacity:0.5;stroke:#ffffff;stroke-linejoin:miter;stroke-width:2;"/>
   </g>
   <g id="patch_19">
    <path clip-path="url(#pb571adbd11)" d="M 525.982446 92.437143 
L 559.742966 92.437143 
L 559.742966 11.258912 
L 525.982446 11.258912 
z
" style="fill:#1a283d;fill-opacity:0.5;stroke:#ffffff;stroke-linejoin:miter;stroke-width:2;"/>
   </g>
   <g id="patch_20">
    <path clip-path="url(#pb571adbd11)" d="M 120.856213 92.437143 
L 154.616732 92.437143 
L 154.616732 81.894515 
L 120.856213 81.894515 
z
" style="fill:#96c69a;fill-opacity:0.5;stroke:#ffffff;stroke-linejoin:miter;stroke-width:2;"/>
   </g>
   <g id="patch_21">
    <path clip-path="url(#pb571adbd11)" d="M 154.616732 92.437143 
L 188.377252 92.437143 
L 188.377252 92.437143 
L 154.616732 92.437143 
z
" style="fill:#96c69a;fill-opacity:0.5;stroke:#ffffff;stroke-linejoin:miter;stroke-width:2;"/>
   </g>
   <g id="patch_22">
    <path clip-path="url(#pb571adbd11)" d="M 188.377252 92.437143 
L 222.137771 92.437143 
L 222.137771 92.437143 
L 188.377252 92.437143 
z
" style="fill:#96c69a;fill-opacity:0.5;stroke:#ffffff;stroke-linejoin:miter;stroke-width:2;"/>
   </g>
   <g id="patch_23">
    <path clip-path="url(#pb571adbd11)" d="M 222.137771 92.437143 
L 255.898291 92.437143 
L 255.898291 92.437143 
L 222.137771 92.437143 
z
" style="fill:#96c69a;fill-opacity:0.5;stroke:#ffffff;stroke-linejoin:miter;stroke-width:2;"/>
   </g>
   <g id="patch_24">
    <path clip-path="url(#pb571adbd11)" d="M 255.898291 92.437143 
L 289.65881 92.437143 
L 289.65881 92.437143 
L 255.898291 92.437143 
z
" style="fill:#96c69a;fill-opacity:0.5;stroke:#ffffff;stroke-linejoin:miter;stroke-width:2;"/>
   </g>
   <g id="patch_25">
    <path clip-path="url(#pb571adbd11)" d="M 289.65881 92.437143 
L 323.41933 92.437143 
L 323.41933 92.437143 
L 289.65881 92.437143 
z
" style="fill:#96c69a;fill-opacity:0.5;stroke:#ffffff;stroke-linejoin:miter;stroke-width:2;"/>
   </g>
   <g id="patch_26">
    <path clip-path="url(#pb571adbd11)" d="M 323.41933 92.437143 
L 357.179849 92.437143 
L 357.179849 92.437143 
L 323.41933 92.437143 
z
" style="fill:#96c69a;fill-opacity:0.5;stroke:#ffffff;stroke-linejoin:miter;stroke-width:2;"/>
   </g>
   <g id="patch_27">
    <path clip-path="url(#pb571adbd11)" d="M 357.179849 92.437143 
L 390.940369 92.437143 
L 390.940369 92.437143 
L 357.179849 92.437143 
z
" style="fill:#96c69a;fill-opacity:0.5;stroke:#ffffff;stroke-linejoin:miter;stroke-width:2;"/>
   </g>
   <g id="patch_28">
    <path clip-path="url(#pb571adbd11)" d="M 390.940369 92.437143 
L 424.700888 92.437143 
L 424.700888 92.437143 
L 390.940369 92.437143 
z
" style="fill:#96c69a;fill-opacity:0.5;stroke:#ffffff;stroke-linejoin:miter;stroke-width:2;"/>
   </g>
   <g id="patch_29">
    <path clip-path="url(#pb571adbd11)" d="M 424.700888 92.437143 
L 458.461407 92.437143 
L 458.461407 92.437143 
L 424.700888 92.437143 
z
" style="fill:#96c69a;fill-opacity:0.5;stroke:#ffffff;stroke-linejoin:miter;stroke-width:2;"/>
   </g>
   <g id="patch_30">
    <path clip-path="url(#pb571adbd11)" d="M 458.461407 92.437143 
L 492.221927 92.437143 
L 492.221927 92.437143 
L 458.461407 92.437143 
z
" style="fill:#96c69a;fill-opacity:0.5;stroke:#ffffff;stroke-linejoin:miter;stroke-width:2;"/>
   </g>
   <g id="patch_31">
    <path clip-path="url(#pb571adbd11)" d="M 492.221927 92.437143 
L 525.982446 92.437143 
L 525.982446 92.437143 
L 492.221927 92.437143 
z
" style="fill:#96c69a;fill-opacity:0.5;stroke:#ffffff;stroke-linejoin:miter;stroke-width:2;"/>
   </g>
   <g id="patch_32">
    <path clip-path="url(#pb571adbd11)" d="M 525.982446 92.437143 
L 559.742966 92.437143 
L 559.742966 92.437143 
L 525.982446 92.437143 
z
" style="fill:#96c69a;fill-opacity:0.5;stroke:#ffffff;stroke-linejoin:miter;stroke-width:2;"/>
   </g>
   <g id="patch_33">
    <path d="M 98.911875 92.437143 
L 98.911875 7.2 
" style="fill:none;stroke:#262626;stroke-linecap:square;stroke-linejoin:miter;stroke-width:2.5;"/>
   </g>
   <g id="patch_34">
    <path d="M 98.911875 92.437143 
L 581.687304 92.437143 
" style="fill:none;stroke:#262626;stroke-linecap:square;stroke-linejoin:miter;stroke-width:2.5;"/>
   </g>
  </g>
  <g id="axes_3">
   <g id="patch_35">
    <path d="M 598.334732 603.86 
L 681.571875 603.86 
L 681.571875 109.484571 
L 598.334732 109.484571 
z
" style="fill:none;"/>
   </g>
   <g id="matplotlib.axis_5">
    <g id="xtick_13">
     <g id="text_22">
      <!-- 0 -->
      <g style="fill:#262626;" transform="translate(591.335982 636.076563)scale(0.22 -0.22)">
       <use xlink:href="#DejaVuSans-30"/>
      </g>
     </g>
    </g>
    <g id="xtick_14">
     <g id="text_23">
      <!-- 100 -->
      <g style="fill:#262626;" transform="translate(619.282117 636.076563)scale(0.22 -0.22)">
       <use xlink:href="#DejaVuSans-31"/>
       <use x="63.623047" xlink:href="#DejaVuSans-30"/>
       <use x="127.246094" xlink:href="#DejaVuSans-30"/>
      </g>
     </g>
    </g>
   </g>
   <g id="matplotlib.axis_6">
    <g id="ytick_11"/>
    <g id="ytick_12"/>
    <g id="ytick_13"/>
    <g id="ytick_14"/>
    <g id="ytick_15"/>
    <g id="ytick_16"/>
    <g id="ytick_17"/>
    <g id="ytick_18"/>
   </g>
   <g id="patch_36">
    <path clip-path="url(#p051aa689f5)" d="M 598.334732 581.38839 
L 601.270787 581.38839 
L 601.270787 566.890576 
L 598.334732 566.890576 
z
" style="fill:#1a283d;fill-opacity:0.5;stroke:#ffffff;stroke-linejoin:miter;stroke-width:1.449781;"/>
   </g>
   <g id="patch_37">
    <path clip-path="url(#p051aa689f5)" d="M 598.334732 566.890576 
L 610.07895 566.890576 
L 610.07895 552.392763 
L 598.334732 552.392763 
z
" style="fill:#1a283d;fill-opacity:0.5;stroke:#ffffff;stroke-linejoin:miter;stroke-width:1.449781;"/>
   </g>
   <g id="patch_38">
    <path clip-path="url(#p051aa689f5)" d="M 598.334732 552.392763 
L 620.564858 552.392763 
L 620.564858 537.89495 
L 598.334732 537.89495 
z
" style="fill:#1a283d;fill-opacity:0.5;stroke:#ffffff;stroke-linejoin:miter;stroke-width:1.449781;"/>
   </g>
   <g id="patch_39">
    <path clip-path="url(#p051aa689f5)" d="M 598.334732 537.89495 
L 638.181185 537.89495 
L 638.181185 523.397137 
L 598.334732 523.397137 
z
" style="fill:#1a283d;fill-opacity:0.5;stroke:#ffffff;stroke-linejoin:miter;stroke-width:1.449781;"/>
   </g>
   <g id="patch_40">
    <path clip-path="url(#p051aa689f5)" d="M 598.334732 523.397137 
L 647.408785 523.397137 
L 647.408785 508.899324 
L 598.334732 508.899324 
z
" style="fill:#1a283d;fill-opacity:0.5;stroke:#ffffff;stroke-linejoin:miter;stroke-width:1.449781;"/>
   </g>
   <g id="patch_41">
    <path clip-path="url(#p051aa689f5)" d="M 598.334732 508.899324 
L 655.378075 508.899324 
L 655.378075 494.401511 
L 598.334732 494.401511 
z
" style="fill:#1a283d;fill-opacity:0.5;stroke:#ffffff;stroke-linejoin:miter;stroke-width:1.449781;"/>
   </g>
   <g id="patch_42">
    <path clip-path="url(#p051aa689f5)" d="M 598.334732 494.401511 
L 666.28342 494.401511 
L 666.28342 479.903698 
L 598.334732 479.903698 
z
" style="fill:#1a283d;fill-opacity:0.5;stroke:#ffffff;stroke-linejoin:miter;stroke-width:1.449781;"/>
   </g>
   <g id="patch_43">
    <path clip-path="url(#p051aa689f5)" d="M 598.334732 479.903698 
L 673.833274 479.903698 
L 673.833274 465.405884 
L 598.334732 465.405884 
z
" style="fill:#1a283d;fill-opacity:0.5;stroke:#ffffff;stroke-linejoin:miter;stroke-width:1.449781;"/>
   </g>
   <g id="patch_44">
    <path clip-path="url(#p051aa689f5)" d="M 598.334732 465.405884 
L 677.608202 465.405884 
L 677.608202 450.908071 
L 598.334732 450.908071 
z
" style="fill:#1a283d;fill-opacity:0.5;stroke:#ffffff;stroke-linejoin:miter;stroke-width:1.449781;"/>
   </g>
   <g id="patch_45">
    <path clip-path="url(#p051aa689f5)" d="M 598.334732 450.908071 
L 667.122293 450.908071 
L 667.122293 436.410258 
L 598.334732 436.410258 
z
" style="fill:#1a283d;fill-opacity:0.5;stroke:#ffffff;stroke-linejoin:miter;stroke-width:1.449781;"/>
   </g>
   <g id="patch_46">
    <path clip-path="url(#p051aa689f5)" d="M 598.334732 436.410258 
L 662.927929 436.410258 
L 662.927929 421.912445 
L 598.334732 421.912445 
z
" style="fill:#1a283d;fill-opacity:0.5;stroke:#ffffff;stroke-linejoin:miter;stroke-width:1.449781;"/>
   </g>
   <g id="patch_47">
    <path clip-path="url(#p051aa689f5)" d="M 598.334732 421.912445 
L 654.958639 421.912445 
L 654.958639 407.414632 
L 598.334732 407.414632 
z
" style="fill:#1a283d;fill-opacity:0.5;stroke:#ffffff;stroke-linejoin:miter;stroke-width:1.449781;"/>
   </g>
   <g id="patch_48">
    <path clip-path="url(#p051aa689f5)" d="M 598.334732 407.414632 
L 639.439494 407.414632 
L 639.439494 392.916819 
L 598.334732 392.916819 
z
" style="fill:#1a283d;fill-opacity:0.5;stroke:#ffffff;stroke-linejoin:miter;stroke-width:1.449781;"/>
   </g>
   <g id="patch_49">
    <path clip-path="url(#p051aa689f5)" d="M 598.334732 392.916819 
L 637.761749 392.916819 
L 637.761749 378.419005 
L 598.334732 378.419005 
z
" style="fill:#1a283d;fill-opacity:0.5;stroke:#ffffff;stroke-linejoin:miter;stroke-width:1.449781;"/>
   </g>
   <g id="patch_50">
    <path clip-path="url(#p051aa689f5)" d="M 598.334732 378.419005 
L 623.920349 378.419005 
L 623.920349 363.921192 
L 598.334732 363.921192 
z
" style="fill:#1a283d;fill-opacity:0.5;stroke:#ffffff;stroke-linejoin:miter;stroke-width:1.449781;"/>
   </g>
   <g id="patch_51">
    <path clip-path="url(#p051aa689f5)" d="M 598.334732 363.921192 
L 623.500913 363.921192 
L 623.500913 349.423379 
L 598.334732 349.423379 
z
" style="fill:#1a283d;fill-opacity:0.5;stroke:#ffffff;stroke-linejoin:miter;stroke-width:1.449781;"/>
   </g>
   <g id="patch_52">
    <path clip-path="url(#p051aa689f5)" d="M 598.334732 349.423379 
L 618.04824 349.423379 
L 618.04824 334.925566 
L 598.334732 334.925566 
z
" style="fill:#1a283d;fill-opacity:0.5;stroke:#ffffff;stroke-linejoin:miter;stroke-width:1.449781;"/>
   </g>
   <g id="patch_53">
    <path clip-path="url(#p051aa689f5)" d="M 598.334732 334.925566 
L 616.789931 334.925566 
L 616.789931 320.427753 
L 598.334732 320.427753 
z
" style="fill:#1a283d;fill-opacity:0.5;stroke:#ffffff;stroke-linejoin:miter;stroke-width:1.449781;"/>
   </g>
   <g id="patch_54">
    <path clip-path="url(#p051aa689f5)" d="M 598.334732 320.427753 
L 614.273313 320.427753 
L 614.273313 305.92994 
L 598.334732 305.92994 
z
" style="fill:#1a283d;fill-opacity:0.5;stroke:#ffffff;stroke-linejoin:miter;stroke-width:1.449781;"/>
   </g>
   <g id="patch_55">
    <path clip-path="url(#p051aa689f5)" d="M 598.334732 305.92994 
L 610.07895 305.92994 
L 610.07895 291.432127 
L 598.334732 291.432127 
z
" style="fill:#1a283d;fill-opacity:0.5;stroke:#ffffff;stroke-linejoin:miter;stroke-width:1.449781;"/>
   </g>
   <g id="patch_56">
    <path clip-path="url(#p051aa689f5)" d="M 598.334732 291.432127 
L 609.240077 291.432127 
L 609.240077 276.934313 
L 598.334732 276.934313 
z
" style="fill:#1a283d;fill-opacity:0.5;stroke:#ffffff;stroke-linejoin:miter;stroke-width:1.449781;"/>
   </g>
   <g id="patch_57">
    <path clip-path="url(#p051aa689f5)" d="M 598.334732 276.934313 
L 603.787405 276.934313 
L 603.787405 262.4365 
L 598.334732 262.4365 
z
" style="fill:#1a283d;fill-opacity:0.5;stroke:#ffffff;stroke-linejoin:miter;stroke-width:1.449781;"/>
   </g>
   <g id="patch_58">
    <path clip-path="url(#p051aa689f5)" d="M 598.334732 262.4365 
L 602.948532 262.4365 
L 602.948532 247.938687 
L 598.334732 247.938687 
z
" style="fill:#1a283d;fill-opacity:0.5;stroke:#ffffff;stroke-linejoin:miter;stroke-width:1.449781;"/>
   </g>
   <g id="patch_59">
    <path clip-path="url(#p051aa689f5)" d="M 598.334732 247.938687 
L 601.690223 247.938687 
L 601.690223 233.440874 
L 598.334732 233.440874 
z
" style="fill:#1a283d;fill-opacity:0.5;stroke:#ffffff;stroke-linejoin:miter;stroke-width:1.449781;"/>
   </g>
   <g id="patch_60">
    <path clip-path="url(#p051aa689f5)" d="M 598.334732 233.440874 
L 602.529096 233.440874 
L 602.529096 218.943061 
L 598.334732 218.943061 
z
" style="fill:#1a283d;fill-opacity:0.5;stroke:#ffffff;stroke-linejoin:miter;stroke-width:1.449781;"/>
   </g>
   <g id="patch_61">
    <path clip-path="url(#p051aa689f5)" d="M 598.334732 218.943061 
L 601.270787 218.943061 
L 601.270787 204.445248 
L 598.334732 204.445248 
z
" style="fill:#1a283d;fill-opacity:0.5;stroke:#ffffff;stroke-linejoin:miter;stroke-width:1.449781;"/>
   </g>
   <g id="patch_62">
    <path clip-path="url(#p051aa689f5)" d="M 598.334732 204.445248 
L 600.012478 204.445248 
L 600.012478 189.947434 
L 598.334732 189.947434 
z
" style="fill:#1a283d;fill-opacity:0.5;stroke:#ffffff;stroke-linejoin:miter;stroke-width:1.449781;"/>
   </g>
   <g id="patch_63">
    <path clip-path="url(#p051aa689f5)" d="M 598.334732 189.947434 
L 601.270787 189.947434 
L 601.270787 175.449621 
L 598.334732 175.449621 
z
" style="fill:#1a283d;fill-opacity:0.5;stroke:#ffffff;stroke-linejoin:miter;stroke-width:1.449781;"/>
   </g>
   <g id="patch_64">
    <path clip-path="url(#p051aa689f5)" d="M 598.334732 175.449621 
L 598.334732 175.449621 
L 598.334732 160.951808 
L 598.334732 160.951808 
z
" style="fill:#1a283d;fill-opacity:0.5;stroke:#ffffff;stroke-linejoin:miter;stroke-width:1.449781;"/>
   </g>
   <g id="patch_65">
    <path clip-path="url(#p051aa689f5)" d="M 598.334732 160.951808 
L 599.173605 160.951808 
L 599.173605 146.453995 
L 598.334732 146.453995 
z
" style="fill:#1a283d;fill-opacity:0.5;stroke:#ffffff;stroke-linejoin:miter;stroke-width:1.449781;"/>
   </g>
   <g id="patch_66">
    <path clip-path="url(#p051aa689f5)" d="M 598.334732 146.453995 
L 599.173605 146.453995 
L 599.173605 131.956182 
L 598.334732 131.956182 
z
" style="fill:#1a283d;fill-opacity:0.5;stroke:#ffffff;stroke-linejoin:miter;stroke-width:1.449781;"/>
   </g>
   <g id="patch_67">
    <path clip-path="url(#p051aa689f5)" d="M 598.334732 581.38839 
L 598.334732 581.38839 
L 598.334732 566.890576 
L 598.334732 566.890576 
z
" style="fill:#96c69a;fill-opacity:0.5;stroke:#ffffff;stroke-linejoin:miter;stroke-width:1.449781;"/>
   </g>
   <g id="patch_68">
    <path clip-path="url(#p051aa689f5)" d="M 598.334732 566.890576 
L 598.334732 566.890576 
L 598.334732 552.392763 
L 598.334732 552.392763 
z
" style="fill:#96c69a;fill-opacity:0.5;stroke:#ffffff;stroke-linejoin:miter;stroke-width:1.449781;"/>
   </g>
   <g id="patch_69">
    <path clip-path="url(#p051aa689f5)" d="M 598.334732 552.392763 
L 598.334732 552.392763 
L 598.334732 537.89495 
L 598.334732 537.89495 
z
" style="fill:#96c69a;fill-opacity:0.5;stroke:#ffffff;stroke-linejoin:miter;stroke-width:1.449781;"/>
   </g>
   <g id="patch_70">
    <path clip-path="url(#p051aa689f5)" d="M 598.334732 537.89495 
L 598.754168 537.89495 
L 598.754168 523.397137 
L 598.334732 523.397137 
z
" style="fill:#96c69a;fill-opacity:0.5;stroke:#ffffff;stroke-linejoin:miter;stroke-width:1.449781;"/>
   </g>
   <g id="patch_71">
    <path clip-path="url(#p051aa689f5)" d="M 598.334732 523.397137 
L 599.173605 523.397137 
L 599.173605 508.899324 
L 598.334732 508.899324 
z
" style="fill:#96c69a;fill-opacity:0.5;stroke:#ffffff;stroke-linejoin:miter;stroke-width:1.449781;"/>
   </g>
   <g id="patch_72">
    <path clip-path="url(#p051aa689f5)" d="M 598.334732 508.899324 
L 598.754168 508.899324 
L 598.754168 494.401511 
L 598.334732 494.401511 
z
" style="fill:#96c69a;fill-opacity:0.5;stroke:#ffffff;stroke-linejoin:miter;stroke-width:1.449781;"/>
   </g>
   <g id="patch_73">
    <path clip-path="url(#p051aa689f5)" d="M 598.334732 494.401511 
L 599.173605 494.401511 
L 599.173605 479.903698 
L 598.334732 479.903698 
z
" style="fill:#96c69a;fill-opacity:0.5;stroke:#ffffff;stroke-linejoin:miter;stroke-width:1.449781;"/>
   </g>
   <g id="patch_74">
    <path clip-path="url(#p051aa689f5)" d="M 598.334732 479.903698 
L 600.431914 479.903698 
L 600.431914 465.405884 
L 598.334732 465.405884 
z
" style="fill:#96c69a;fill-opacity:0.5;stroke:#ffffff;stroke-linejoin:miter;stroke-width:1.449781;"/>
   </g>
   <g id="patch_75">
    <path clip-path="url(#p051aa689f5)" d="M 598.334732 465.405884 
L 598.754168 465.405884 
L 598.754168 450.908071 
L 598.334732 450.908071 
z
" style="fill:#96c69a;fill-opacity:0.5;stroke:#ffffff;stroke-linejoin:miter;stroke-width:1.449781;"/>
   </g>
   <g id="patch_76">
    <path clip-path="url(#p051aa689f5)" d="M 598.334732 450.908071 
L 599.173605 450.908071 
L 599.173605 436.410258 
L 598.334732 436.410258 
z
" style="fill:#96c69a;fill-opacity:0.5;stroke:#ffffff;stroke-linejoin:miter;stroke-width:1.449781;"/>
   </g>
   <g id="patch_77">
    <path clip-path="url(#p051aa689f5)" d="M 598.334732 436.410258 
L 598.334732 436.410258 
L 598.334732 421.912445 
L 598.334732 421.912445 
z
" style="fill:#96c69a;fill-opacity:0.5;stroke:#ffffff;stroke-linejoin:miter;stroke-width:1.449781;"/>
   </g>
   <g id="patch_78">
    <path clip-path="url(#p051aa689f5)" d="M 598.334732 421.912445 
L 600.012478 421.912445 
L 600.012478 407.414632 
L 598.334732 407.414632 
z
" style="fill:#96c69a;fill-opacity:0.5;stroke:#ffffff;stroke-linejoin:miter;stroke-width:1.449781;"/>
   </g>
   <g id="patch_79">
    <path clip-path="url(#p051aa689f5)" d="M 598.334732 407.414632 
L 598.334732 407.414632 
L 598.334732 392.916819 
L 598.334732 392.916819 
z
" style="fill:#96c69a;fill-opacity:0.5;stroke:#ffffff;stroke-linejoin:miter;stroke-width:1.449781;"/>
   </g>
   <g id="patch_80">
    <path clip-path="url(#p051aa689f5)" d="M 598.334732 392.916819 
L 598.334732 392.916819 
L 598.334732 378.419005 
L 598.334732 378.419005 
z
" style="fill:#96c69a;fill-opacity:0.5;stroke:#ffffff;stroke-linejoin:miter;stroke-width:1.449781;"/>
   </g>
   <g id="patch_81">
    <path clip-path="url(#p051aa689f5)" d="M 598.334732 378.419005 
L 598.334732 378.419005 
L 598.334732 363.921192 
L 598.334732 363.921192 
z
" style="fill:#96c69a;fill-opacity:0.5;stroke:#ffffff;stroke-linejoin:miter;stroke-width:1.449781;"/>
   </g>
   <g id="patch_82">
    <path clip-path="url(#p051aa689f5)" d="M 598.334732 363.921192 
L 598.334732 363.921192 
L 598.334732 349.423379 
L 598.334732 349.423379 
z
" style="fill:#96c69a;fill-opacity:0.5;stroke:#ffffff;stroke-linejoin:miter;stroke-width:1.449781;"/>
   </g>
   <g id="patch_83">
    <path clip-path="url(#p051aa689f5)" d="M 598.334732 349.423379 
L 598.754168 349.423379 
L 598.754168 334.925566 
L 598.334732 334.925566 
z
" style="fill:#96c69a;fill-opacity:0.5;stroke:#ffffff;stroke-linejoin:miter;stroke-width:1.449781;"/>
   </g>
   <g id="patch_84">
    <path clip-path="url(#p051aa689f5)" d="M 598.334732 334.925566 
L 598.334732 334.925566 
L 598.334732 320.427753 
L 598.334732 320.427753 
z
" style="fill:#96c69a;fill-opacity:0.5;stroke:#ffffff;stroke-linejoin:miter;stroke-width:1.449781;"/>
   </g>
   <g id="patch_85">
    <path clip-path="url(#p051aa689f5)" d="M 598.334732 320.427753 
L 598.334732 320.427753 
L 598.334732 305.92994 
L 598.334732 305.92994 
z
" style="fill:#96c69a;fill-opacity:0.5;stroke:#ffffff;stroke-linejoin:miter;stroke-width:1.449781;"/>
   </g>
   <g id="patch_86">
    <path clip-path="url(#p051aa689f5)" d="M 598.334732 305.92994 
L 598.754168 305.92994 
L 598.754168 291.432127 
L 598.334732 291.432127 
z
" style="fill:#96c69a;fill-opacity:0.5;stroke:#ffffff;stroke-linejoin:miter;stroke-width:1.449781;"/>
   </g>
   <g id="patch_87">
    <path clip-path="url(#p051aa689f5)" d="M 598.334732 291.432127 
L 598.334732 291.432127 
L 598.334732 276.934313 
L 598.334732 276.934313 
z
" style="fill:#96c69a;fill-opacity:0.5;stroke:#ffffff;stroke-linejoin:miter;stroke-width:1.449781;"/>
   </g>
   <g id="patch_88">
    <path clip-path="url(#p051aa689f5)" d="M 598.334732 276.934313 
L 598.334732 276.934313 
L 598.334732 262.4365 
L 598.334732 262.4365 
z
" style="fill:#96c69a;fill-opacity:0.5;stroke:#ffffff;stroke-linejoin:miter;stroke-width:1.449781;"/>
   </g>
   <g id="patch_89">
    <path clip-path="url(#p051aa689f5)" d="M 598.334732 262.4365 
L 598.334732 262.4365 
L 598.334732 247.938687 
L 598.334732 247.938687 
z
" style="fill:#96c69a;fill-opacity:0.5;stroke:#ffffff;stroke-linejoin:miter;stroke-width:1.449781;"/>
   </g>
   <g id="patch_90">
    <path clip-path="url(#p051aa689f5)" d="M 598.334732 247.938687 
L 598.334732 247.938687 
L 598.334732 233.440874 
L 598.334732 233.440874 
z
" style="fill:#96c69a;fill-opacity:0.5;stroke:#ffffff;stroke-linejoin:miter;stroke-width:1.449781;"/>
   </g>
   <g id="patch_91">
    <path clip-path="url(#p051aa689f5)" d="M 598.334732 233.440874 
L 598.334732 233.440874 
L 598.334732 218.943061 
L 598.334732 218.943061 
z
" style="fill:#96c69a;fill-opacity:0.5;stroke:#ffffff;stroke-linejoin:miter;stroke-width:1.449781;"/>
   </g>
   <g id="patch_92">
    <path clip-path="url(#p051aa689f5)" d="M 598.334732 218.943061 
L 598.334732 218.943061 
L 598.334732 204.445248 
L 598.334732 204.445248 
z
" style="fill:#96c69a;fill-opacity:0.5;stroke:#ffffff;stroke-linejoin:miter;stroke-width:1.449781;"/>
   </g>
   <g id="patch_93">
    <path clip-path="url(#p051aa689f5)" d="M 598.334732 204.445248 
L 598.334732 204.445248 
L 598.334732 189.947434 
L 598.334732 189.947434 
z
" style="fill:#96c69a;fill-opacity:0.5;stroke:#ffffff;stroke-linejoin:miter;stroke-width:1.449781;"/>
   </g>
   <g id="patch_94">
    <path clip-path="url(#p051aa689f5)" d="M 598.334732 189.947434 
L 598.334732 189.947434 
L 598.334732 175.449621 
L 598.334732 175.449621 
z
" style="fill:#96c69a;fill-opacity:0.5;stroke:#ffffff;stroke-linejoin:miter;stroke-width:1.449781;"/>
   </g>
   <g id="patch_95">
    <path clip-path="url(#p051aa689f5)" d="M 598.334732 175.449621 
L 598.334732 175.449621 
L 598.334732 160.951808 
L 598.334732 160.951808 
z
" style="fill:#96c69a;fill-opacity:0.5;stroke:#ffffff;stroke-linejoin:miter;stroke-width:1.449781;"/>
   </g>
   <g id="patch_96">
    <path clip-path="url(#p051aa689f5)" d="M 598.334732 160.951808 
L 598.334732 160.951808 
L 598.334732 146.453995 
L 598.334732 146.453995 
z
" style="fill:#96c69a;fill-opacity:0.5;stroke:#ffffff;stroke-linejoin:miter;stroke-width:1.449781;"/>
   </g>
   <g id="patch_97">
    <path clip-path="url(#p051aa689f5)" d="M 598.334732 146.453995 
L 598.334732 146.453995 
L 598.334732 131.956182 
L 598.334732 131.956182 
z
" style="fill:#96c69a;fill-opacity:0.5;stroke:#ffffff;stroke-linejoin:miter;stroke-width:1.449781;"/>
   </g>
   <g id="patch_98">
    <path d="M 598.334732 603.86 
L 598.334732 109.484571 
" style="fill:none;stroke:#262626;stroke-linecap:square;stroke-linejoin:miter;stroke-width:2.5;"/>
   </g>
   <g id="patch_99">
    <path d="M 598.334732 603.86 
L 681.571875 603.86 
" style="fill:none;stroke:#262626;stroke-linecap:square;stroke-linejoin:miter;stroke-width:2.5;"/>
   </g>
  </g>
 </g>
 <defs>
  <clipPath id="p9b53f539fc">
   <rect height="494.375429" width="482.775429" x="98.911875" y="109.484571"/>
  </clipPath>
  <clipPath id="pb571adbd11">
   <rect height="85.237143" width="482.775429" x="98.911875" y="7.2"/>
  </clipPath>
  <clipPath id="p051aa689f5">
   <rect height="494.375429" width="83.237143" x="598.334732" y="109.484571"/>
  </clipPath>
 </defs>
</svg>
