<?xml version="1.0" encoding="utf-8" standalone="no"?>
<!DOCTYPE svg PUBLIC "-//W3C//DTD SVG 1.1//EN"
  "http://www.w3.org/Graphics/SVG/1.1/DTD/svg11.dtd">
<svg height="674.159375pt" version="1.1" viewBox="0 0 674.984375 674.159375" width="674.984375pt" xmlns="http://www.w3.org/2000/svg" xmlns:xlink="http://www.w3.org/1999/xlink">
 <metadata>
  <rdf:RDF xmlns:cc="http://creativecommons.org/ns#" xmlns:dc="http://purl.org/dc/elements/1.1/" xmlns:rdf="http://www.w3.org/1999/02/22-rdf-syntax-ns#">
   <cc:Work>
    <dc:type rdf:resource="http://purl.org/dc/dcmitype/StillImage"/>
    <dc:date>2021-07-24T14:57:09.427852</dc:date>
    <dc:format>image/svg+xml</dc:format>
    <dc:creator>
     <cc:Agent>
      <dc:title>Matplotlib v3.4.2, https://matplotlib.org/</dc:title>
     </cc:Agent>
    </dc:creator>
   </cc:Work>
  </rdf:RDF>
 </metadata>
 <defs>
  <style type="text/css">*{stroke-linecap:butt;stroke-linejoin:round;}</style>
 </defs>
 <g id="figure_1">
  <g id="patch_1">
   <path d="M 0 674.159375 
L 674.984375 674.159375 
L 674.984375 0 
L 0 0 
z
" style="fill:#ffffff;"/>
  </g>
  <g id="axes_1">
   <g id="patch_2">
    <path d="M 84.914375 602.94 
L 567.863804 602.94 
L 567.863804 109.326857 
L 84.914375 109.326857 
z
" style="fill:none;"/>
   </g>
   <g id="matplotlib.axis_1">
    <g id="xtick_1">
     <g id="text_1">
      <!-- 0 -->
      <g style="fill:#262626;" transform="translate(99.648239 635.156562)scale(0.22 -0.22)">
       <defs>
        <path d="M 2034 4250 
Q 1547 4250 1301 3770 
Q 1056 3291 1056 2328 
Q 1056 1369 1301 889 
Q 1547 409 2034 409 
Q 2525 409 2770 889 
Q 3016 1369 3016 2328 
Q 3016 3291 2770 3770 
Q 2525 4250 2034 4250 
z
M 2034 4750 
Q 2819 4750 3233 4129 
Q 3647 3509 3647 2328 
Q 3647 1150 3233 529 
Q 2819 -91 2034 -91 
Q 1250 -91 836 529 
Q 422 1150 422 2328 
Q 422 3509 836 4129 
Q 1250 4750 2034 4750 
z
" id="DejaVuSans-30" transform="scale(0.015625)"/>
       </defs>
       <use xlink:href="#DejaVuSans-30"/>
      </g>
     </g>
    </g>
    <g id="xtick_2">
     <g id="text_2">
      <!-- 20000 -->
      <g style="fill:#262626;" transform="translate(159.506153 635.156562)scale(0.22 -0.22)">
       <defs>
        <path d="M 1228 531 
L 3431 531 
L 3431 0 
L 469 0 
L 469 531 
Q 828 903 1448 1529 
Q 2069 2156 2228 2338 
Q 2531 2678 2651 2914 
Q 2772 3150 2772 3378 
Q 2772 3750 2511 3984 
Q 2250 4219 1831 4219 
Q 1534 4219 1204 4116 
Q 875 4013 500 3803 
L 500 4441 
Q 881 4594 1212 4672 
Q 1544 4750 1819 4750 
Q 2544 4750 2975 4387 
Q 3406 4025 3406 3419 
Q 3406 3131 3298 2873 
Q 3191 2616 2906 2266 
Q 2828 2175 2409 1742 
Q 1991 1309 1228 531 
z
" id="DejaVuSans-32" transform="scale(0.015625)"/>
       </defs>
       <use xlink:href="#DejaVuSans-32"/>
       <use x="63.623047" xlink:href="#DejaVuSans-30"/>
       <use x="127.246094" xlink:href="#DejaVuSans-30"/>
       <use x="190.869141" xlink:href="#DejaVuSans-30"/>
       <use x="254.492188" xlink:href="#DejaVuSans-30"/>
      </g>
     </g>
    </g>
    <g id="xtick_3">
     <g id="text_3">
      <!-- 40000 -->
      <g style="fill:#262626;" transform="translate(247.359066 635.156562)scale(0.22 -0.22)">
       <defs>
        <path d="M 2419 4116 
L 825 1625 
L 2419 1625 
L 2419 4116 
z
M 2253 4666 
L 3047 4666 
L 3047 1625 
L 3713 1625 
L 3713 1100 
L 3047 1100 
L 3047 0 
L 2419 0 
L 2419 1100 
L 313 1100 
L 313 1709 
L 2253 4666 
z
" id="DejaVuSans-34" transform="scale(0.015625)"/>
       </defs>
       <use xlink:href="#DejaVuSans-34"/>
       <use x="63.623047" xlink:href="#DejaVuSans-30"/>
       <use x="127.246094" xlink:href="#DejaVuSans-30"/>
       <use x="190.869141" xlink:href="#DejaVuSans-30"/>
       <use x="254.492188" xlink:href="#DejaVuSans-30"/>
      </g>
     </g>
    </g>
    <g id="xtick_4">
     <g id="text_4">
      <!-- 60000 -->
      <g style="fill:#262626;" transform="translate(335.21198 635.156562)scale(0.22 -0.22)">
       <defs>
        <path d="M 2113 2584 
Q 1688 2584 1439 2293 
Q 1191 2003 1191 1497 
Q 1191 994 1439 701 
Q 1688 409 2113 409 
Q 2538 409 2786 701 
Q 3034 994 3034 1497 
Q 3034 2003 2786 2293 
Q 2538 2584 2113 2584 
z
M 3366 4563 
L 3366 3988 
Q 3128 4100 2886 4159 
Q 2644 4219 2406 4219 
Q 1781 4219 1451 3797 
Q 1122 3375 1075 2522 
Q 1259 2794 1537 2939 
Q 1816 3084 2150 3084 
Q 2853 3084 3261 2657 
Q 3669 2231 3669 1497 
Q 3669 778 3244 343 
Q 2819 -91 2113 -91 
Q 1303 -91 875 529 
Q 447 1150 447 2328 
Q 447 3434 972 4092 
Q 1497 4750 2381 4750 
Q 2619 4750 2861 4703 
Q 3103 4656 3366 4563 
z
" id="DejaVuSans-36" transform="scale(0.015625)"/>
       </defs>
       <use xlink:href="#DejaVuSans-36"/>
       <use x="63.623047" xlink:href="#DejaVuSans-30"/>
       <use x="127.246094" xlink:href="#DejaVuSans-30"/>
       <use x="190.869141" xlink:href="#DejaVuSans-30"/>
       <use x="254.492188" xlink:href="#DejaVuSans-30"/>
      </g>
     </g>
    </g>
    <g id="xtick_5">
     <g id="text_5">
      <!-- 80000 -->
      <g style="fill:#262626;" transform="translate(423.064893 635.156562)scale(0.22 -0.22)">
       <defs>
        <path d="M 2034 2216 
Q 1584 2216 1326 1975 
Q 1069 1734 1069 1313 
Q 1069 891 1326 650 
Q 1584 409 2034 409 
Q 2484 409 2743 651 
Q 3003 894 3003 1313 
Q 3003 1734 2745 1975 
Q 2488 2216 2034 2216 
z
M 1403 2484 
Q 997 2584 770 2862 
Q 544 3141 544 3541 
Q 544 4100 942 4425 
Q 1341 4750 2034 4750 
Q 2731 4750 3128 4425 
Q 3525 4100 3525 3541 
Q 3525 3141 3298 2862 
Q 3072 2584 2669 2484 
Q 3125 2378 3379 2068 
Q 3634 1759 3634 1313 
Q 3634 634 3220 271 
Q 2806 -91 2034 -91 
Q 1263 -91 848 271 
Q 434 634 434 1313 
Q 434 1759 690 2068 
Q 947 2378 1403 2484 
z
M 1172 3481 
Q 1172 3119 1398 2916 
Q 1625 2713 2034 2713 
Q 2441 2713 2670 2916 
Q 2900 3119 2900 3481 
Q 2900 3844 2670 4047 
Q 2441 4250 2034 4250 
Q 1625 4250 1398 4047 
Q 1172 3844 1172 3481 
z
" id="DejaVuSans-38" transform="scale(0.015625)"/>
       </defs>
       <use xlink:href="#DejaVuSans-38"/>
       <use x="63.623047" xlink:href="#DejaVuSans-30"/>
       <use x="127.246094" xlink:href="#DejaVuSans-30"/>
       <use x="190.869141" xlink:href="#DejaVuSans-30"/>
       <use x="254.492188" xlink:href="#DejaVuSans-30"/>
      </g>
     </g>
    </g>
    <g id="xtick_6">
     <g id="text_6">
      <!-- 100000 -->
      <g style="fill:#262626;" transform="translate(503.919057 635.156562)scale(0.22 -0.22)">
       <defs>
        <path d="M 794 531 
L 1825 531 
L 1825 4091 
L 703 3866 
L 703 4441 
L 1819 4666 
L 2450 4666 
L 2450 531 
L 3481 531 
L 3481 0 
L 794 0 
L 794 531 
z
" id="DejaVuSans-31" transform="scale(0.015625)"/>
       </defs>
       <use xlink:href="#DejaVuSans-31"/>
       <use x="63.623047" xlink:href="#DejaVuSans-30"/>
       <use x="127.246094" xlink:href="#DejaVuSans-30"/>
       <use x="190.869141" xlink:href="#DejaVuSans-30"/>
       <use x="254.492188" xlink:href="#DejaVuSans-30"/>
       <use x="318.115234" xlink:href="#DejaVuSans-30"/>
      </g>
     </g>
    </g>
    <g id="text_7">
     <!-- MDTU -->
     <g style="fill:#262626;" transform="translate(290.683464 661.968125)scale(0.24 -0.24)">
      <defs>
       <path d="M 628 4666 
L 1569 4666 
L 2759 1491 
L 3956 4666 
L 4897 4666 
L 4897 0 
L 4281 0 
L 4281 4097 
L 3078 897 
L 2444 897 
L 1241 4097 
L 1241 0 
L 628 0 
L 628 4666 
z
" id="DejaVuSans-4d" transform="scale(0.015625)"/>
       <path d="M 1259 4147 
L 1259 519 
L 2022 519 
Q 2988 519 3436 956 
Q 3884 1394 3884 2338 
Q 3884 3275 3436 3711 
Q 2988 4147 2022 4147 
L 1259 4147 
z
M 628 4666 
L 1925 4666 
Q 3281 4666 3915 4102 
Q 4550 3538 4550 2338 
Q 4550 1131 3912 565 
Q 3275 0 1925 0 
L 628 0 
L 628 4666 
z
" id="DejaVuSans-44" transform="scale(0.015625)"/>
       <path d="M -19 4666 
L 3928 4666 
L 3928 4134 
L 2272 4134 
L 2272 0 
L 1638 0 
L 1638 4134 
L -19 4134 
L -19 4666 
z
" id="DejaVuSans-54" transform="scale(0.015625)"/>
       <path d="M 556 4666 
L 1191 4666 
L 1191 1831 
Q 1191 1081 1462 751 
Q 1734 422 2344 422 
Q 2950 422 3222 751 
Q 3494 1081 3494 1831 
L 3494 4666 
L 4128 4666 
L 4128 1753 
Q 4128 841 3676 375 
Q 3225 -91 2344 -91 
Q 1459 -91 1007 375 
Q 556 841 556 1753 
L 556 4666 
z
" id="DejaVuSans-55" transform="scale(0.015625)"/>
      </defs>
      <use xlink:href="#DejaVuSans-4d"/>
      <use x="86.279297" xlink:href="#DejaVuSans-44"/>
      <use x="163.28125" xlink:href="#DejaVuSans-54"/>
      <use x="224.365234" xlink:href="#DejaVuSans-55"/>
     </g>
    </g>
   </g>
   <g id="matplotlib.axis_2">
    <g id="ytick_1">
     <g id="text_8">
      <!-- 0.4 -->
      <g style="fill:#262626;" transform="translate(34.4275 602.688729)scale(0.22 -0.22)">
       <defs>
        <path d="M 684 794 
L 1344 794 
L 1344 0 
L 684 0 
L 684 794 
z
" id="DejaVuSans-2e" transform="scale(0.015625)"/>
       </defs>
       <use xlink:href="#DejaVuSans-30"/>
       <use x="63.623047" xlink:href="#DejaVuSans-2e"/>
       <use x="95.410156" xlink:href="#DejaVuSans-34"/>
      </g>
     </g>
    </g>
    <g id="ytick_2">
     <g id="text_9">
      <!-- 0.6 -->
      <g style="fill:#262626;" transform="translate(34.4275 520.397271)scale(0.22 -0.22)">
       <use xlink:href="#DejaVuSans-30"/>
       <use x="63.623047" xlink:href="#DejaVuSans-2e"/>
       <use x="95.410156" xlink:href="#DejaVuSans-36"/>
      </g>
     </g>
    </g>
    <g id="ytick_3">
     <g id="text_10">
      <!-- 0.8 -->
      <g style="fill:#262626;" transform="translate(34.4275 438.105812)scale(0.22 -0.22)">
       <use xlink:href="#DejaVuSans-30"/>
       <use x="63.623047" xlink:href="#DejaVuSans-2e"/>
       <use x="95.410156" xlink:href="#DejaVuSans-38"/>
      </g>
     </g>
    </g>
    <g id="ytick_4">
     <g id="text_11">
      <!-- 1.0 -->
      <g style="fill:#262626;" transform="translate(34.4275 355.814354)scale(0.22 -0.22)">
       <use xlink:href="#DejaVuSans-31"/>
       <use x="63.623047" xlink:href="#DejaVuSans-2e"/>
       <use x="95.410156" xlink:href="#DejaVuSans-30"/>
      </g>
     </g>
    </g>
    <g id="ytick_5">
     <g id="text_12">
      <!-- 1.2 -->
      <g style="fill:#262626;" transform="translate(34.4275 273.522895)scale(0.22 -0.22)">
       <use xlink:href="#DejaVuSans-31"/>
       <use x="63.623047" xlink:href="#DejaVuSans-2e"/>
       <use x="95.410156" xlink:href="#DejaVuSans-32"/>
      </g>
     </g>
    </g>
    <g id="ytick_6">
     <g id="text_13">
      <!-- 1.4 -->
      <g style="fill:#262626;" transform="translate(34.4275 191.231437)scale(0.22 -0.22)">
       <use xlink:href="#DejaVuSans-31"/>
       <use x="63.623047" xlink:href="#DejaVuSans-2e"/>
       <use x="95.410156" xlink:href="#DejaVuSans-34"/>
      </g>
     </g>
    </g>
    <g id="text_14">
     <!-- $E$ -->
     <g style="fill:#262626;" transform="translate(25.43625 363.813429)rotate(-90)scale(0.24 -0.24)">
      <defs>
       <path d="M 1081 4666 
L 4031 4666 
L 3928 4134 
L 1606 4134 
L 1338 2753 
L 3566 2753 
L 3463 2222 
L 1234 2222 
L 909 531 
L 3284 531 
L 3181 0 
L 172 0 
L 1081 4666 
z
" id="DejaVuSans-Oblique-45" transform="scale(0.015625)"/>
      </defs>
      <use transform="translate(0 0.09375)" xlink:href="#DejaVuSans-Oblique-45"/>
     </g>
    </g>
   </g>
   <g id="line2d_1">
    <path clip-path="url(#pc3ffd40869)" d="M 106.866622 320.409748 
L 107.086254 497.813621 
L 107.305886 377.283383 
L 107.525519 325.129966 
L 107.745151 447.630278 
L 107.964783 453.805452 
L 108.184415 509.122488 
L 108.404048 445.925143 
L 108.62368 323.935507 
L 108.843312 434.51181 
L 109.282577 318.366907 
L 109.502209 438.792752 
L 109.721841 387.261087 
L 109.941474 298.578875 
L 110.380738 461.476783 
L 110.600371 432.073674 
L 110.820003 377.945828 
L 111.039635 381.237609 
L 111.259267 350.104206 
L 111.4789 451.448834 
L 111.698532 444.513025 
L 111.918164 391.365819 
L 112.137797 415.212703 
L 112.357429 415.12802 
L 112.577061 381.637387 
L 112.796693 458.879154 
L 113.016326 310.03721 
L 113.235958 411.986987 
L 113.45559 452.006651 
L 113.894855 243.879051 
L 114.114487 435.2779 
L 114.334119 496.205884 
L 114.773384 358.768712 
L 114.993016 342.751421 
L 115.212649 390.575733 
L 115.432281 281.840573 
L 115.651913 511.787249 
L 115.871545 414.023145 
L 116.091178 454.940986 
L 116.31081 399.208328 
L 116.530442 482.276612 
L 116.750075 487.650373 
L 116.969707 347.560478 
L 117.189339 408.345822 
L 117.408971 430.780741 
L 117.628604 302.754438 
L 118.287501 495.152014 
L 118.507133 372.63222 
L 118.726765 529.805837 
L 119.16603 350.103435 
L 119.385662 368.603139 
L 119.605294 417.717647 
L 119.824926 423.945132 
L 120.264191 406.398166 
L 120.483823 429.438245 
L 120.703456 328.231456 
L 120.923088 456.878591 
L 121.362352 359.291259 
L 121.581985 392.969449 
L 121.801617 485.128903 
L 122.021249 478.974573 
L 122.240882 406.014197 
L 122.460514 425.319962 
L 122.899778 292.269362 
L 123.119411 381.866713 
L 123.339043 407.817764 
L 123.558675 404.425884 
L 123.778308 356.59633 
L 123.99794 470.415503 
L 124.217572 451.431953 
L 124.437204 452.98168 
L 124.656837 462.875174 
L 124.876469 328.993429 
L 125.096101 474.901191 
L 125.315734 347.292197 
L 125.535366 344.806127 
L 125.97463 506.271683 
L 126.413895 294.213489 
L 126.85316 563.330989 
L 127.072792 371.265919 
L 127.292424 490.750036 
L 127.512056 431.737764 
L 127.731689 150.565874 
L 127.951321 468.988521 
L 128.170953 392.843216 
L 128.390586 396.342124 
L 128.610218 392.396489 
L 128.82985 429.261357 
L 129.049482 325.816504 
L 129.488747 539.912719 
L 129.708379 330.415918 
L 129.928012 249.39142 
L 130.147644 468.877341 
L 130.586908 344.534147 
L 130.806541 413.426 
L 131.026173 382.390679 
L 131.245805 398.955893 
L 131.465438 399.237126 
L 131.68507 406.114289 
L 131.904702 486.081949 
L 132.343967 334.301692 
L 132.563599 413.029347 
L 132.783231 447.792258 
L 133.002864 296.264783 
L 133.222496 370.304449 
L 133.442128 396.704047 
L 133.881393 480.994499 
L 134.101025 244.019479 
L 134.320657 430.918664 
L 134.540289 400.661801 
L 134.759922 339.365349 
L 134.979554 489.545089 
L 135.199186 469.445559 
L 135.418819 366.637665 
L 135.638451 411.463111 
L 135.858083 161.298141 
L 136.077715 471.503459 
L 136.297348 353.720456 
L 136.51698 335.015503 
L 136.736612 431.039018 
L 136.956245 428.297556 
L 137.175877 444.23653 
L 137.395509 414.26973 
L 137.834774 432.902448 
L 138.054406 436.137467 
L 138.274038 353.819132 
L 138.493671 415.679079 
L 138.713303 429.394744 
L 138.932935 368.246697 
L 139.152567 459.328053 
L 139.3722 290.312776 
L 139.591832 400.892268 
L 139.811464 380.674226 
L 140.031097 561.274495 
L 140.250729 417.381445 
L 140.470361 458.634274 
L 140.689993 440.179827 
L 140.909626 487.221975 
L 141.129258 300.670974 
L 141.34889 476.110431 
L 141.568523 337.320544 
L 141.788155 322.719451 
L 142.007787 442.737216 
L 142.227419 376.603904 
L 142.447052 423.92806 
L 142.666684 378.565924 
L 142.886316 443.684688 
L 143.105949 383.896118 
L 143.325581 396.823137 
L 143.545213 356.566891 
L 143.764845 343.695749 
L 143.984478 381.091838 
L 144.20411 390.120469 
L 144.423742 363.461143 
L 144.643375 422.277771 
L 144.863007 304.644028 
L 145.082639 379.223464 
L 145.302271 554.087619 
L 145.521904 467.786412 
L 145.741536 315.852463 
L 145.961168 401.935274 
L 146.180801 409.846145 
L 146.400433 432.739012 
L 146.620065 326.779377 
L 146.839697 342.599684 
L 147.05933 310.990937 
L 147.278962 394.643786 
L 147.498594 265.455365 
L 148.157491 483.903281 
L 148.377123 442.483478 
L 148.596756 299.894368 
L 148.816388 467.383459 
L 149.03602 263.378947 
L 149.475285 449.755441 
L 149.694917 463.923295 
L 149.914549 344.504602 
L 150.134182 478.530103 
L 150.353814 355.423994 
L 150.573446 442.936123 
L 151.012711 360.802935 
L 151.232343 495.179879 
L 151.671608 376.926098 
L 151.89124 398.625152 
L 152.110872 497.421498 
L 152.330504 423.174336 
L 152.550137 416.266138 
L 152.769769 336.276092 
L 152.989401 482.449275 
L 153.648298 377.807324 
L 153.86793 380.267926 
L 154.087563 315.635997 
L 154.307195 347.395356 
L 154.74646 461.654934 
L 154.966092 285.439611 
L 155.185724 413.488289 
L 155.405356 413.889983 
L 155.624989 312.925507 
L 155.844621 397.584031 
L 156.064253 385.912017 
L 156.283886 388.931255 
L 156.503518 506.828907 
L 156.72315 482.182139 
L 156.942782 435.331931 
L 157.162415 434.809929 
L 157.382047 365.333647 
L 157.601679 455.499125 
L 157.821312 269.996564 
L 158.040944 486.03189 
L 158.260576 406.271625 
L 158.480208 487.404662 
L 159.139105 332.814673 
L 159.358738 343.987412 
L 159.57837 546.329451 
L 160.017634 323.0151 
L 160.237267 299.741225 
L 160.456899 398.863975 
L 160.676531 395.397482 
L 160.896164 268.021018 
L 161.115796 424.085013 
L 161.335428 367.523645 
L 161.55506 421.392535 
L 161.774693 300.797547 
L 161.994325 434.509216 
L 162.213957 448.966106 
L 162.43359 366.028334 
L 162.653222 398.59899 
L 163.092486 420.651481 
L 163.312119 420.144672 
L 163.531751 407.424083 
L 163.751383 407.876795 
L 163.971016 351.486495 
L 164.190648 452.599609 
L 164.41028 463.604689 
L 164.629912 463.329758 
L 165.069177 368.737515 
L 165.288809 395.312578 
L 165.508441 465.061202 
L 165.728074 472.394276 
L 165.947706 366.718415 
L 166.167338 446.507289 
L 166.606603 309.276904 
L 166.826235 398.896095 
L 167.045867 365.978595 
L 167.2655 358.215136 
L 167.485132 474.334535 
L 167.704764 333.04666 
L 167.924397 317.856552 
L 168.583293 498.428792 
L 168.802926 453.043866 
L 169.022558 373.491364 
L 169.461823 455.989882 
L 169.681455 377.5537 
L 169.901087 492.790157 
L 170.120719 390.468881 
L 170.340352 458.087291 
L 170.559984 350.638461 
L 170.999249 384.931792 
L 171.218881 303.025289 
L 171.438513 334.662366 
L 171.658145 435.376686 
L 171.877778 292.134516 
L 172.09741 345.619237 
L 172.317042 452.384155 
L 172.536675 443.624817 
L 172.756307 504.357838 
L 173.195571 375.143323 
L 173.634836 458.349202 
L 173.854468 387.238787 
L 174.074101 446.511601 
L 174.293733 470.19811 
L 174.513365 404.389956 
L 174.732997 404.244084 
L 174.95263 423.682661 
L 175.172262 381.895328 
L 175.391894 434.56517 
L 175.611527 324.107988 
L 176.050791 473.358416 
L 176.490056 328.412505 
L 176.709688 377.623756 
L 176.92932 482.214523 
L 177.148953 380.566229 
L 177.368585 385.241674 
L 177.588217 348.187444 
L 177.807849 432.684495 
L 178.027482 443.606531 
L 178.247114 238.984503 
L 178.466746 304.312588 
L 178.686379 481.337246 
L 178.906011 429.674826 
L 179.125643 490.917115 
L 179.564908 324.548545 
L 180.004172 457.102094 
L 180.223805 353.146093 
L 180.443437 439.291319 
L 180.882701 304.910475 
L 181.102334 429.725914 
L 181.321966 424.385149 
L 181.541598 378.076974 
L 181.76123 469.575926 
L 181.980863 397.063942 
L 182.200495 464.813553 
L 182.420127 438.764597 
L 182.63976 451.036719 
L 182.859392 416.924953 
L 183.079024 444.716254 
L 183.518289 341.600225 
L 183.737921 484.867988 
L 183.957553 328.853455 
L 184.177186 278.232983 
L 184.396818 522.896632 
L 184.61645 425.136563 
L 184.836082 407.316256 
L 185.275347 491.880554 
L 185.494979 353.066935 
L 185.714612 538.968451 
L 185.934244 511.978789 
L 186.153876 364.763921 
L 186.593141 383.175279 
L 186.812773 395.426071 
L 187.032405 443.454564 
L 187.252038 229.324464 
L 187.691302 533.812529 
L 187.910934 349.299615 
L 188.130567 368.936274 
L 188.350199 429.340282 
L 188.569831 393.352918 
L 188.789464 414.436311 
L 189.009096 408.888815 
L 189.228728 422.611216 
L 189.44836 324.452842 
L 189.887625 431.339436 
L 190.107257 367.09812 
L 190.32689 382.978666 
L 190.546522 289.667243 
L 190.766154 415.359706 
L 190.985786 421.784204 
L 191.205419 359.751797 
L 191.425051 474.929342 
L 191.644683 299.009315 
L 191.864316 413.766644 
L 192.083948 452.768803 
L 192.30358 424.7259 
L 192.523212 490.048367 
L 192.742845 350.415086 
L 192.962477 447.546602 
L 193.182109 456.133822 
L 193.401742 382.974623 
L 193.621374 510.277428 
L 193.841006 468.182438 
L 194.060638 285.847214 
L 194.280271 407.353398 
L 194.499903 371.472947 
L 194.939168 417.050597 
L 195.1588 285.694929 
L 195.598064 455.457886 
L 195.817697 415.668788 
L 196.037329 408.807906 
L 196.256961 505.709161 
L 196.476593 180.507837 
L 196.696226 452.365792 
L 196.915858 523.302519 
L 197.13549 358.655822 
L 197.355123 346.320324 
L 197.574755 437.674103 
L 197.794387 310.047258 
L 198.014019 394.483454 
L 198.233652 422.120543 
L 198.453284 308.607589 
L 198.892549 516.777293 
L 199.112181 432.64151 
L 199.331813 456.552043 
L 199.551445 499.699573 
L 199.771078 420.167663 
L 199.99071 462.197839 
L 200.210342 409.064512 
L 200.429975 453.867985 
L 200.649607 395.823766 
L 200.869239 441.07962 
L 201.088871 380.949346 
L 201.308504 377.052691 
L 201.528136 361.802541 
L 201.747768 233.635601 
L 201.967401 451.777392 
L 202.187033 378.595001 
L 202.406665 397.504921 
L 202.626297 302.538819 
L 202.84593 438.051762 
L 203.065562 432.727387 
L 203.285194 353.967415 
L 203.504827 374.486319 
L 203.724459 405.644667 
L 203.944091 512.060693 
L 204.163723 459.421227 
L 204.602988 285.424686 
L 205.042253 424.529104 
L 205.261885 438.653834 
L 205.481517 332.246933 
L 205.701149 405.70435 
L 205.920782 432.76434 
L 206.140414 333.987695 
L 206.360046 321.515093 
L 206.579679 418.048126 
L 206.799311 424.949854 
L 207.018943 296.563794 
L 207.238575 404.982014 
L 207.458208 387.187544 
L 207.897472 450.625546 
L 208.117105 401.153752 
L 208.336737 409.585834 
L 208.556369 470.013247 
L 208.776001 450.162386 
L 208.995634 374.471418 
L 209.215266 254.075645 
L 209.654531 421.233056 
L 209.874163 383.316949 
L 210.093795 309.199028 
L 210.313427 428.155815 
L 210.53306 418.231847 
L 210.752692 445.477993 
L 210.972324 255.254591 
L 211.191956 417.689854 
L 211.631221 374.709567 
L 212.070486 397.021572 
L 212.290118 498.792282 
L 212.729382 391.951442 
L 212.949015 498.676123 
L 213.168647 247.494561 
L 213.388279 486.801563 
L 213.607912 320.246828 
L 213.827544 447.989377 
L 214.047176 357.834111 
L 214.266808 319.789021 
L 214.706073 373.674951 
L 214.925705 427.100859 
L 215.145338 380.924704 
L 215.36497 455.290027 
L 215.584602 410.721744 
L 215.804234 415.835828 
L 216.023867 414.903912 
L 216.243499 474.597054 
L 216.463131 501.593934 
L 216.682764 557.421521 
L 216.902396 354.194325 
L 217.122028 380.265961 
L 217.34166 365.682213 
L 217.561293 403.26345 
L 217.780925 484.566272 
L 218.000557 300.991098 
L 218.22019 388.820769 
L 218.439822 329.92778 
L 218.659454 447.477503 
L 218.879086 376.787328 
L 219.098719 373.610461 
L 219.318351 496.484886 
L 219.537983 511.16017 
L 219.757616 580.503039 
L 219.977248 313.818875 
L 220.19688 473.672341 
L 220.416512 515.534385 
L 220.636145 346.057106 
L 220.855777 405.200701 
L 221.075409 368.161501 
L 221.514674 412.331552 
L 221.734306 475.796387 
L 221.953938 376.077585 
L 222.173571 446.13727 
L 222.393203 462.080893 
L 222.612835 456.815418 
L 222.832468 455.712352 
L 223.271732 268.330414 
L 223.491364 315.692084 
L 223.710997 515.611244 
L 223.930629 314.010198 
L 224.150261 309.040308 
L 224.369894 272.948505 
L 224.589526 522.460592 
L 224.809158 351.291001 
L 225.02879 382.680713 
L 225.248423 354.35481 
L 225.468055 453.014908 
L 225.687687 405.82568 
L 225.90732 427.943813 
L 226.126952 395.153193 
L 226.346584 474.115758 
L 226.785849 436.905258 
L 227.005481 340.154187 
L 227.225113 440.613025 
L 227.444745 287.698821 
L 227.664378 445.932956 
L 227.88401 434.761945 
L 228.103642 359.208505 
L 228.323275 381.778366 
L 228.542907 490.590794 
L 228.762539 314.206568 
L 228.982171 323.378858 
L 229.201804 474.710609 
L 229.421436 382.756826 
L 229.641068 378.380077 
L 229.860701 370.888368 
L 230.080333 356.553189 
L 230.299965 327.376924 
L 230.519597 496.892321 
L 230.958862 452.769396 
L 231.178494 404.815419 
L 231.398127 441.721671 
L 231.617759 309.686425 
L 231.837391 299.844634 
L 232.057023 371.88101 
L 232.276656 355.707892 
L 232.496288 367.98502 
L 232.71592 304.718823 
L 232.935553 363.087714 
L 233.155185 309.036552 
L 233.374817 490.960042 
L 233.594449 297.461593 
L 233.814082 354.223974 
L 234.033714 368.195177 
L 234.253346 322.217376 
L 234.472979 184.482796 
L 234.912243 445.354091 
L 235.131875 379.431955 
L 235.351508 455.284455 
L 235.57114 372.248805 
L 235.790772 423.959883 
L 236.230037 395.548821 
L 236.449669 412.444092 
L 236.669301 362.374398 
L 236.888934 454.547622 
L 237.108566 290.169429 
L 237.328198 374.673781 
L 237.547831 502.099858 
L 237.987095 431.315827 
L 238.206727 506.903818 
L 238.645992 313.018351 
L 238.865624 542.549449 
L 239.085257 384.659778 
L 239.304889 459.145511 
L 239.524521 462.147273 
L 239.744153 366.608117 
L 239.963786 507.727742 
L 240.183418 350.847933 
L 240.40305 432.69345 
L 240.622683 392.796556 
L 240.842315 382.419265 
L 241.061947 382.084443 
L 241.281579 364.161224 
L 241.501212 320.599961 
L 241.720844 471.789049 
L 241.940476 425.502357 
L 242.160108 447.482038 
L 242.379741 294.402086 
L 242.599373 449.894651 
L 242.819005 444.306194 
L 243.25827 323.453368 
L 243.477902 441.806902 
L 243.697534 453.632278 
L 243.917167 312.935267 
L 244.136799 392.70287 
L 244.356431 539.34649 
L 244.795696 389.634387 
L 245.015328 436.861278 
L 245.23496 436.317919 
L 245.454593 435.149651 
L 245.893857 390.197366 
L 246.11349 375.321388 
L 246.333122 445.354394 
L 246.552754 475.072197 
L 246.992019 385.084699 
L 247.211651 306.615978 
L 247.650916 394.23279 
L 247.870548 355.626462 
L 248.09018 482.589975 
L 248.309812 315.427418 
L 248.529445 384.894732 
L 248.749077 298.924335 
L 248.968709 488.120347 
L 249.188342 420.134087 
L 249.407974 387.521435 
L 249.627606 468.80573 
L 249.847238 277.067601 
L 250.066871 422.936278 
L 250.286503 490.846909 
L 250.506135 368.639809 
L 250.9454 440.246508 
L 251.165032 345.320981 
L 251.384664 439.11197 
L 251.604297 368.588659 
L 251.823929 471.294773 
L 252.043561 451.841804 
L 252.263194 381.806663 
L 252.482826 441.357403 
L 252.702458 396.764616 
L 252.92209 395.397639 
L 253.141723 492.388085 
L 253.361355 392.295185 
L 253.580987 481.57694 
L 253.80062 475.795346 
L 254.020252 344.372472 
L 254.239884 451.131399 
L 254.459516 330.605356 
L 254.679149 348.345127 
L 254.898781 381.141161 
L 255.118413 444.775387 
L 255.338046 472.914982 
L 255.557678 395.944473 
L 255.77731 503.383918 
L 256.216575 351.173231 
L 256.436207 308.068859 
L 256.655839 467.590604 
L 256.875472 374.507947 
L 257.095104 489.663055 
L 257.314736 488.622622 
L 257.534368 455.202191 
L 257.754001 191.786643 
L 257.973633 484.116821 
L 258.193265 516.309813 
L 258.412897 132.643949 
L 258.63253 400.840499 
L 258.852162 484.40287 
L 259.071794 374.883273 
L 259.511059 345.410941 
L 259.730691 450.898776 
L 259.950323 488.855302 
L 260.169956 388.179326 
L 260.389588 511.948502 
L 260.828853 280.070953 
L 261.048485 478.398997 
L 261.268117 466.826863 
L 261.487749 324.042437 
L 261.707382 501.305185 
L 261.927014 472.126086 
L 262.146646 502.24586 
L 262.366279 358.712848 
L 262.805543 475.46962 
L 263.025175 479.361402 
L 263.244808 288.4127 
L 263.46444 400.013753 
L 263.684072 339.277595 
L 263.903705 443.23164 
L 264.123337 333.455216 
L 264.562601 480.470356 
L 264.782234 346.709545 
L 265.001866 451.907982 
L 265.221498 358.556144 
L 265.441131 378.421044 
L 265.660763 373.908157 
L 265.880395 444.115489 
L 266.100027 384.249733 
L 266.31966 433.710395 
L 266.539292 509.101263 
L 266.758924 366.743274 
L 266.978557 402.801274 
L 267.198189 353.965936 
L 267.417821 420.650804 
L 267.637453 426.12635 
L 267.857086 404.211834 
L 268.076718 415.272272 
L 268.29635 400.730944 
L 268.735615 473.139927 
L 268.955247 418.510603 
L 269.174879 434.268307 
L 269.394512 468.910955 
L 269.614144 452.986972 
L 269.833776 282.852286 
L 270.053409 347.939462 
L 270.273041 169.088321 
L 270.492673 201.741685 
L 270.712305 430.048021 
L 270.931938 431.265144 
L 271.15157 413.955738 
L 271.371202 372.789987 
L 271.590835 473.873981 
L 271.810467 439.506152 
L 272.030099 363.758309 
L 272.249731 414.176353 
L 272.469364 372.200368 
L 272.688996 495.72574 
L 272.908628 459.335172 
L 273.12826 453.701378 
L 273.347893 435.494607 
L 273.567525 477.47485 
L 273.787157 335.944652 
L 274.00679 369.603014 
L 274.226422 448.378206 
L 274.446054 441.084818 
L 275.104951 385.881576 
L 275.324583 393.531368 
L 275.544216 339.2911 
L 275.98348 311.811617 
L 276.422745 491.304818 
L 276.642377 494.146112 
L 276.862009 425.874084 
L 277.081642 316.435035 
L 277.301274 333.549583 
L 277.520906 534.815396 
L 277.740538 471.04352 
L 277.960171 360.415815 
L 278.179803 417.063326 
L 278.399435 309.485799 
L 278.619068 355.660197 
L 278.8387 271.279865 
L 279.058332 400.003231 
L 279.277964 184.638423 
L 279.497597 468.850649 
L 279.717229 388.1214 
L 280.156494 495.855455 
L 280.376126 422.246686 
L 280.595758 441.835512 
L 280.81539 485.019165 
L 281.035023 298.418565 
L 281.254655 436.540356 
L 281.474287 474.888828 
L 281.69392 493.136888 
L 281.913552 422.817286 
L 282.133184 477.974055 
L 282.352816 457.191443 
L 282.572449 282.425922 
L 283.011713 408.356657 
L 283.231346 411.701583 
L 283.450978 403.637288 
L 283.67061 464.457089 
L 283.890242 355.261039 
L 284.109875 437.247422 
L 284.329507 450.632732 
L 284.549139 425.342544 
L 284.768772 437.667573 
L 284.988404 426.516196 
L 285.208036 330.606051 
L 285.427668 471.040815 
L 286.086565 338.761583 
L 286.52583 449.244371 
L 286.745462 229.931328 
L 286.965094 467.395287 
L 287.404359 394.583174 
L 287.623991 382.261724 
L 287.843624 395.283105 
L 288.063256 520.816353 
L 288.282888 488.6015 
L 288.50252 384.628703 
L 288.941785 442.828674 
L 289.161417 446.593803 
L 289.381049 321.074532 
L 289.600682 433.490875 
L 290.039946 386.674052 
L 290.259579 393.519018 
L 290.479211 445.012514 
L 290.698843 361.599892 
L 291.138108 417.799224 
L 291.35774 462.530589 
L 291.577372 410.846874 
L 291.797005 264.11594 
L 292.016637 491.246481 
L 292.236269 398.476506 
L 292.455901 377.063689 
L 292.675534 498.050811 
L 292.895166 465.618461 
L 293.114798 360.968939 
L 293.334431 388.507238 
L 293.554063 456.257641 
L 293.773695 468.522298 
L 293.993327 381.208445 
L 294.21296 421.938646 
L 294.432592 290.872633 
L 294.652224 369.305347 
L 294.871857 299.018096 
L 295.091489 359.037274 
L 295.311121 471.680356 
L 295.530753 509.164315 
L 295.750386 391.078165 
L 295.970018 387.346105 
L 296.18965 464.027357 
L 296.409283 403.463478 
L 296.628915 477.882113 
L 296.848547 371.8246 
L 297.068179 363.698447 
L 297.287812 479.006442 
L 297.727076 408.852419 
L 297.946709 355.334675 
L 298.166341 405.973698 
L 298.385973 239.082669 
L 298.605605 544.132952 
L 298.825238 378.277674 
L 299.04487 307.844328 
L 299.484135 455.589011 
L 299.703767 354.660887 
L 299.923399 438.65781 
L 300.143031 324.61777 
L 300.362664 314.543159 
L 300.582296 370.140929 
L 300.801928 383.419254 
L 301.021561 502.043071 
L 301.241193 491.79075 
L 301.680457 363.660907 
L 302.119722 462.769737 
L 302.339354 407.266937 
L 302.558987 501.738112 
L 302.778619 400.60382 
L 302.998251 493.203123 
L 303.217883 328.604522 
L 303.437516 420.925506 
L 303.657148 404.871868 
L 303.87678 449.617437 
L 304.096412 353.118701 
L 304.316045 397.195669 
L 304.535677 407.229824 
L 304.755309 486.785121 
L 304.974942 388.2906 
L 305.194574 418.095947 
L 305.414206 387.990662 
L 305.633838 407.386066 
L 305.853471 292.509702 
L 306.073103 405.252094 
L 306.292735 450.843496 
L 306.512368 284.978838 
L 306.732 470.772854 
L 307.171264 420.041593 
L 307.390897 199.899266 
L 307.610529 438.335581 
L 307.830161 423.68512 
L 308.049794 451.832871 
L 308.269426 309.163307 
L 308.489058 434.574935 
L 308.70869 366.035688 
L 309.147955 474.228279 
L 309.367587 237.092635 
L 309.806852 419.223353 
L 310.026484 453.950178 
L 310.246116 381.172381 
L 310.465749 488.923436 
L 310.685381 296.944828 
L 310.905013 426.5669 
L 311.124646 420.055318 
L 311.344278 409.269014 
L 311.56391 312.778906 
L 311.783542 348.838725 
L 312.003175 324.077788 
L 312.222807 448.242212 
L 312.442439 412.286969 
L 312.662072 401.171348 
L 313.101336 440.390365 
L 313.320968 436.131791 
L 313.540601 423.889366 
L 313.760233 337.375645 
L 314.199498 455.093831 
L 314.41913 354.739724 
L 314.858394 298.032181 
L 315.078027 330.496867 
L 315.297659 408.20977 
L 315.517291 265.953009 
L 315.736924 310.013621 
L 315.956556 458.345625 
L 316.176188 467.206005 
L 316.39582 364.473403 
L 316.615453 372.03972 
L 316.835085 365.309883 
L 317.054717 388.791325 
L 317.27435 311.411389 
L 317.493982 402.180769 
L 317.713614 434.491056 
L 317.933246 422.006056 
L 318.152879 424.397391 
L 318.372511 368.501343 
L 318.592143 461.581262 
L 318.811775 447.45672 
L 319.031408 403.291058 
L 319.25104 445.149836 
L 319.470672 355.704023 
L 319.690305 376.577145 
L 319.909937 336.36008 
L 320.129569 516.268137 
L 320.349201 480.619101 
L 320.568834 347.916244 
L 320.788466 431.754142 
L 321.008098 464.573351 
L 321.227731 440.594612 
L 321.447363 507.763773 
L 321.666995 440.683308 
L 321.886627 431.955585 
L 322.10626 414.732252 
L 322.325892 380.274963 
L 322.545524 409.512505 
L 322.765157 329.465208 
L 322.984789 403.960503 
L 323.204421 417.052462 
L 323.424053 360.947188 
L 323.643686 382.169445 
L 323.863318 346.543278 
L 324.08295 420.213269 
L 324.522215 378.609104 
L 324.741847 483.440601 
L 324.961479 479.03228 
L 325.181112 372.667149 
L 325.400744 444.720178 
L 325.620376 408.629648 
L 325.840009 285.925664 
L 326.279273 394.982102 
L 326.498905 502.69663 
L 326.718538 341.843919 
L 326.93817 291.6511 
L 327.157802 407.052399 
L 327.597067 430.152072 
L 327.816699 400.194424 
L 328.036331 422.886361 
L 328.475596 302.398088 
L 328.695228 450.982254 
L 328.914861 427.772459 
L 329.134493 266.196479 
L 329.354125 485.934393 
L 329.573757 422.676063 
L 329.79339 419.317117 
L 330.013022 381.647158 
L 330.232654 425.664391 
L 330.671919 403.296092 
L 330.891551 373.12804 
L 331.111183 468.039136 
L 331.330816 457.203322 
L 331.77008 507.550224 
L 331.989713 485.462251 
L 332.209345 277.652979 
L 332.428977 460.146012 
L 332.648609 491.495256 
L 333.087874 479.069118 
L 333.307506 487.393473 
L 333.527139 163.20445 
L 333.746771 449.487274 
L 333.966403 478.622482 
L 334.186035 392.734556 
L 334.405668 384.904766 
L 334.6253 362.056572 
L 334.844932 419.008733 
L 335.064564 409.575988 
L 335.284197 455.835382 
L 335.503829 456.506909 
L 335.723461 454.628701 
L 335.943094 426.135458 
L 336.162726 428.418667 
L 336.382358 312.312623 
L 336.60199 465.795268 
L 336.821623 447.433531 
L 337.041255 440.72945 
L 337.260887 211.358532 
L 337.48052 514.263687 
L 337.700152 424.879949 
L 337.919784 448.350331 
L 338.139416 541.36623 
L 338.359049 410.503464 
L 338.578681 350.615145 
L 338.798313 403.221873 
L 339.017946 493.046172 
L 339.237578 475.103542 
L 339.45721 359.190096 
L 339.676842 401.945702 
L 339.896475 487.533694 
L 340.116107 360.371916 
L 340.335739 354.705516 
L 340.555372 471.190763 
L 340.775004 293.310967 
L 340.994636 415.507295 
L 341.214268 423.806518 
L 341.433901 306.733391 
L 341.653533 421.257236 
L 341.873165 378.126891 
L 342.092798 523.056836 
L 342.31243 460.838661 
L 342.532062 320.44494 
L 342.751694 359.095114 
L 342.971327 428.620343 
L 343.190959 437.550434 
L 343.410591 464.393764 
L 343.630224 424.432406 
L 343.849856 412.379038 
L 344.069488 455.803201 
L 344.28912 392.790192 
L 344.508753 492.974711 
L 344.728385 446.214431 
L 344.948017 349.704846 
L 345.16765 453.626626 
L 345.387282 454.589798 
L 345.606914 494.635195 
L 345.826546 404.168557 
L 346.046179 449.107357 
L 346.265811 388.145844 
L 346.485443 414.376698 
L 346.705076 396.758786 
L 346.924708 392.384065 
L 347.14434 491.94869 
L 347.363972 434.072037 
L 347.583605 296.160595 
L 347.803237 274.087894 
L 348.462134 490.395481 
L 348.681766 344.819972 
L 348.901398 378.152573 
L 349.121031 499.489236 
L 349.560295 347.200024 
L 349.99956 551.570367 
L 350.219192 436.818797 
L 350.438824 393.510591 
L 350.658457 494.566117 
L 350.878089 438.048756 
L 351.097721 288.603178 
L 351.536986 435.421935 
L 351.756618 440.378518 
L 351.97625 430.816896 
L 352.195883 391.87791 
L 352.415515 402.869653 
L 352.635147 423.299393 
L 352.854779 400.119072 
L 353.074412 346.222644 
L 353.294044 374.664721 
L 353.513676 489.341681 
L 353.952941 379.11062 
L 354.172573 416.078014 
L 354.392205 475.392137 
L 354.83147 286.419908 
L 355.270735 506.648468 
L 355.490367 503.811579 
L 355.709999 454.9599 
L 356.149264 309.310661 
L 356.368896 420.157818 
L 356.588528 372.11974 
L 356.808161 366.705526 
L 357.027793 496.945659 
L 357.247425 520.979732 
L 357.467057 324.795258 
L 357.68669 339.754095 
L 357.906322 335.722175 
L 358.125954 384.754995 
L 358.345587 381.241532 
L 358.565219 473.427381 
L 358.784851 360.109869 
L 359.004483 462.653837 
L 359.224116 388.677252 
L 359.443748 494.595736 
L 359.66338 374.86823 
L 359.883013 506.810163 
L 360.102645 511.266671 
L 360.322277 366.217423 
L 360.541909 409.597078 
L 360.761542 382.94089 
L 360.981174 399.038481 
L 361.200806 490.251663 
L 361.420439 354.444114 
L 361.640071 330.013235 
L 361.859703 406.830033 
L 362.079335 303.97934 
L 362.298968 474.502611 
L 362.957865 384.862371 
L 363.177497 416.01313 
L 363.397129 393.82664 
L 363.616761 494.689196 
L 363.836394 428.162656 
L 364.056026 500.226116 
L 364.495291 352.76136 
L 364.714923 415.662249 
L 364.934555 424.178196 
L 365.154187 298.812562 
L 365.37382 397.249464 
L 365.593452 420.003154 
L 365.813084 278.757056 
L 366.032716 366.160769 
L 366.252349 280.503301 
L 366.471981 286.288256 
L 366.911246 501.84642 
L 367.130878 316.911648 
L 367.35051 435.758367 
L 367.570142 281.006571 
L 368.009407 464.792475 
L 368.229039 358.329275 
L 368.448672 389.553862 
L 368.668304 479.216574 
L 368.887936 449.130367 
L 369.327201 349.542117 
L 369.766465 413.167168 
L 369.986098 416.277172 
L 370.20573 368.37697 
L 370.425362 477.568516 
L 370.644994 336.277663 
L 370.864627 447.805539 
L 371.303891 247.59476 
L 371.743156 464.285828 
L 371.962788 406.796872 
L 372.18242 394.179353 
L 372.402053 495.65112 
L 372.621685 416.211517 
L 372.841317 432.540267 
L 373.06095 422.163703 
L 373.280582 399.982944 
L 373.500214 498.568821 
L 373.939479 398.410131 
L 374.159111 378.972259 
L 374.378743 423.632357 
L 374.598376 403.436755 
L 375.03764 504.015984 
L 375.257272 491.812588 
L 375.476905 354.776505 
L 375.696537 481.021377 
L 375.916169 458.323009 
L 376.135802 350.07175 
L 376.355434 363.636036 
L 376.575066 300.889155 
L 376.794698 405.937452 
L 377.014331 334.891317 
L 377.233963 425.722945 
L 377.453595 438.46115 
L 377.673228 383.815563 
L 377.89286 476.160122 
L 378.112492 394.350222 
L 378.332124 476.427488 
L 378.551757 455.179662 
L 378.771389 445.133499 
L 378.991021 423.487129 
L 379.210654 540.020803 
L 379.430286 338.227366 
L 379.649918 369.941053 
L 379.86955 243.690939 
L 380.528447 465.804578 
L 380.748079 450.052305 
L 380.967712 329.792308 
L 381.406976 447.186926 
L 381.626609 381.102829 
L 381.846241 484.859971 
L 382.065873 501.190703 
L 382.285505 430.21083 
L 382.505138 229.994737 
L 382.72477 488.029374 
L 382.944402 414.750973 
L 383.164035 437.301188 
L 383.383667 493.896755 
L 383.603299 462.099767 
L 383.822931 357.412695 
L 384.042564 359.05184 
L 384.262196 461.751632 
L 384.481828 423.093721 
L 384.701461 446.781278 
L 384.921093 302.771698 
L 385.140725 426.137495 
L 385.360357 458.099818 
L 385.57999 416.272433 
L 385.799622 402.224095 
L 386.019254 260.83419 
L 386.238887 446.45294 
L 386.458519 454.663092 
L 386.678151 397.542701 
L 386.897783 409.849393 
L 387.117416 200.227312 
L 387.337048 487.771796 
L 387.55668 465.697173 
L 387.776313 326.226868 
L 387.995945 466.113831 
L 388.215577 353.510976 
L 388.435209 378.23211 
L 388.654842 345.647102 
L 388.874474 499.246193 
L 389.094106 499.944275 
L 389.313739 499.267689 
L 389.533371 386.217885 
L 389.753003 356.768326 
L 389.972635 441.024663 
L 390.192268 381.819095 
L 390.4119 440.550056 
L 390.631532 346.245835 
L 390.851165 333.763365 
L 391.070797 446.796106 
L 391.290429 253.232136 
L 391.510061 507.582044 
L 391.729694 413.044601 
L 391.949326 422.173288 
L 392.168958 379.893696 
L 392.388591 298.389301 
L 392.608223 397.805681 
L 392.827855 397.301388 
L 393.047487 392.096163 
L 393.26712 401.879896 
L 393.486752 365.38428 
L 393.706384 239.828243 
L 393.926017 454.731499 
L 394.145649 421.616067 
L 394.365281 444.305069 
L 394.584913 387.47821 
L 394.804546 282.785944 
L 395.024178 461.178565 
L 395.463443 354.38489 
L 395.683075 477.444614 
L 395.902707 380.733264 
L 396.122339 210.541193 
L 396.341972 226.483329 
L 396.561604 426.860462 
L 396.781236 443.362563 
L 397.000868 349.699978 
L 397.220501 350.015835 
L 397.440133 435.34854 
L 397.659765 403.207269 
L 397.879398 285.800141 
L 398.09903 387.229117 
L 398.318662 307.769081 
L 398.977559 487.747622 
L 399.197191 318.402232 
L 399.416824 379.902953 
L 399.636456 373.251885 
L 399.856088 297.243235 
L 400.07572 380.264589 
L 400.295353 326.14043 
L 400.514985 337.315948 
L 400.734617 444.73069 
L 400.95425 448.110795 
L 401.173882 394.304722 
L 401.393514 418.837886 
L 402.052411 439.520465 
L 402.272043 288.1285 
L 402.491676 322.998182 
L 402.711308 429.466404 
L 402.93094 409.68971 
L 403.150572 362.283302 
L 403.370205 387.989618 
L 403.589837 432.265571 
L 403.809469 407.534266 
L 404.029102 411.482062 
L 404.248734 451.543295 
L 404.468366 330.228634 
L 404.687998 438.083059 
L 404.907631 460.061064 
L 405.127263 437.347182 
L 405.346895 453.410429 
L 405.78616 377.743973 
L 406.005792 297.418901 
L 406.225424 408.022848 
L 406.445057 421.879326 
L 406.664689 412.509863 
L 406.884321 425.613405 
L 407.103954 264.393511 
L 407.323586 396.930825 
L 407.543218 383.962916 
L 407.76285 268.331933 
L 407.982483 396.717092 
L 408.202115 392.750978 
L 408.421747 484.586543 
L 408.64138 358.088285 
L 408.861012 401.50765 
L 409.080644 469.903625 
L 409.300276 236.323812 
L 409.739541 412.794074 
L 409.959173 477.78961 
L 410.178806 354.899581 
L 410.398438 524.406069 
L 410.61807 375.62339 
L 410.837702 377.113616 
L 411.057335 433.674887 
L 411.276967 271.404814 
L 411.496599 388.5099 
L 411.716231 441.788383 
L 411.935864 387.576036 
L 412.155496 394.639815 
L 412.375128 500.608066 
L 412.594761 426.529762 
L 412.814393 411.301398 
L 413.034025 312.795148 
L 413.253657 489.921693 
L 413.47329 382.397182 
L 413.692922 385.504809 
L 413.912554 462.774456 
L 414.132187 394.753475 
L 414.351819 478.04335 
L 414.571451 435.390414 
L 414.791083 343.700974 
L 415.010716 394.062569 
L 415.230348 269.080896 
L 415.44998 392.31027 
L 415.669613 371.768739 
L 415.889245 492.886466 
L 416.108877 368.756373 
L 416.328509 355.50028 
L 416.548142 420.249107 
L 416.767774 259.297049 
L 417.207039 496.770036 
L 417.426671 349.069568 
L 417.646303 455.908902 
L 417.865935 378.132728 
L 418.085568 254.362016 
L 418.3052 352.455694 
L 418.524832 328.03192 
L 418.964097 504.091819 
L 419.183729 380.772512 
L 419.403361 471.951121 
L 419.842626 299.119797 
L 420.062258 420.014907 
L 420.281891 474.657711 
L 420.501523 405.385051 
L 420.721155 408.862055 
L 420.940787 414.338082 
L 421.16042 367.804824 
L 421.380052 511.559588 
L 421.819317 430.109529 
L 422.038949 442.106234 
L 422.258581 389.46506 
L 422.697846 479.030478 
L 422.917478 470.255709 
L 423.13711 390.029705 
L 423.356743 459.455353 
L 423.576375 376.93131 
L 423.796007 424.02881 
L 424.015639 414.296064 
L 424.235272 350.362308 
L 424.454904 429.962414 
L 424.674536 387.430716 
L 424.894169 424.515492 
L 425.113801 369.852164 
L 425.333433 382.951554 
L 425.553065 380.681289 
L 425.772698 412.899425 
L 425.99233 303.877141 
L 426.211962 387.401119 
L 426.431594 418.628029 
L 426.651227 394.895601 
L 426.870859 438.680041 
L 427.090491 350.115684 
L 427.310124 457.298101 
L 427.529756 169.829571 
L 427.749388 485.389833 
L 428.188653 366.5472 
L 428.408285 384.961419 
L 428.627917 363.810348 
L 428.84755 462.300673 
L 429.067182 431.261853 
L 429.286814 422.432816 
L 429.726079 525.248013 
L 429.945711 342.789988 
L 430.384976 441.04116 
L 430.604608 451.357559 
L 430.82424 534.920388 
L 431.043872 291.487932 
L 431.263505 397.99835 
L 431.483137 323.834903 
L 431.702769 425.044349 
L 431.922402 344.629469 
L 432.142034 327.453337 
L 432.361666 447.055332 
L 432.800931 357.63159 
L 433.020563 385.394045 
L 433.240195 226.683614 
L 433.459828 392.638452 
L 433.67946 319.727388 
L 433.899092 462.373966 
L 434.118724 454.184836 
L 434.338357 414.83951 
L 434.557989 488.780001 
L 434.777621 424.14093 
L 434.997254 505.256836 
L 435.216886 436.791196 
L 435.65615 415.798815 
L 435.875783 398.270123 
L 436.095415 418.829672 
L 436.315047 392.202383 
L 436.53468 324.709724 
L 436.754312 550.331061 
L 436.973944 436.316404 
L 437.413209 376.390242 
L 437.632841 371.847781 
L 437.852473 427.500686 
L 438.072106 207.843355 
L 438.291738 497.164854 
L 438.51137 443.116346 
L 438.731002 261.942567 
L 438.950635 413.092233 
L 439.389899 511.267087 
L 439.609532 308.031483 
L 439.829164 316.934775 
L 440.048796 413.531427 
L 440.268428 312.978142 
L 440.488061 415.16747 
L 440.707693 380.041223 
L 440.927325 418.384237 
L 441.36659 533.86918 
L 441.586222 461.804931 
L 441.805854 324.475067 
L 442.025487 381.202198 
L 442.245119 397.627386 
L 442.464751 401.737642 
L 442.684383 308.435922 
L 442.904016 448.056972 
L 443.34328 394.953851 
L 443.562913 448.369836 
L 443.782545 459.251672 
L 444.002177 452.828996 
L 444.221809 293.575684 
L 444.441442 460.103649 
L 444.661074 448.113815 
L 444.880706 341.871331 
L 445.100339 350.76508 
L 445.319971 505.318221 
L 445.759235 284.697674 
L 445.978868 423.267594 
L 446.1985 451.852892 
L 446.637765 281.954672 
L 446.857397 475.991293 
L 447.077029 336.087058 
L 447.296661 519.747031 
L 447.516294 384.110571 
L 447.735926 338.262964 
L 447.955558 377.670154 
L 448.175191 389.46682 
L 448.394823 449.419546 
L 448.614455 362.541729 
L 448.834087 500.604237 
L 449.05372 526.629615 
L 449.273352 307.445146 
L 449.492984 364.906563 
L 449.932249 555.996299 
L 450.151881 396.440543 
L 450.371513 332.368267 
L 450.591146 401.607072 
L 450.810778 394.726942 
L 451.03041 463.121995 
L 451.250043 339.089857 
L 451.469675 346.863667 
L 451.689307 396.939588 
L 451.908939 326.389062 
L 452.128572 367.715681 
L 452.348204 456.444109 
L 452.567836 447.182479 
L 452.787469 514.671395 
L 453.007101 538.046994 
L 453.226733 295.032044 
L 453.446365 287.792432 
L 453.665998 412.248832 
L 453.88563 398.662435 
L 454.105262 446.297474 
L 454.544527 377.780305 
L 454.764159 464.316014 
L 454.983791 345.456996 
L 455.203424 359.477533 
L 455.423056 345.389334 
L 455.642688 355.786883 
L 455.862321 265.378154 
L 456.081953 416.965074 
L 456.301585 380.769996 
L 456.521217 443.694879 
L 456.74085 419.799564 
L 456.960482 437.737477 
L 457.180114 498.346733 
L 457.399746 441.677426 
L 457.619379 543.558594 
L 457.839011 520.058228 
L 458.058643 317.232827 
L 458.278276 483.815578 
L 458.497908 386.076232 
L 458.937172 407.277468 
L 459.156805 362.429515 
L 459.376437 345.175803 
L 459.596069 347.587454 
L 459.815702 434.362648 
L 460.035334 469.985728 
L 460.254966 473.411212 
L 460.474598 377.310255 
L 460.913863 467.524434 
L 461.133495 379.857037 
L 461.353128 486.297185 
L 461.57276 382.745312 
L 461.792392 469.451647 
L 462.012024 296.717976 
L 462.231657 387.549616 
L 462.451289 371.732622 
L 462.670921 375.606947 
L 462.890554 399.440961 
L 463.110186 461.768341 
L 463.329818 332.478842 
L 463.54945 455.147607 
L 463.769083 405.604772 
L 463.988715 393.724176 
L 464.208347 319.334073 
L 464.42798 457.96857 
L 464.647612 359.955151 
L 465.086876 444.182062 
L 465.306509 404.43912 
L 465.526141 421.394588 
L 465.745773 387.708652 
L 465.965406 440.153583 
L 466.185038 287.442563 
L 466.624302 462.41291 
L 466.843935 397.856529 
L 467.063567 270.158811 
L 467.283199 407.138179 
L 467.502832 431.745409 
L 467.722464 361.239185 
L 467.942096 432.65474 
L 468.161728 253.21884 
L 468.381361 418.837764 
L 468.600993 309.607315 
L 468.820625 436.61359 
L 469.040258 496.150349 
L 469.25989 293.745096 
L 469.479522 382.05363 
L 469.699154 519.372741 
L 469.918787 483.456135 
L 470.138419 397.602293 
L 470.358051 499.703845 
L 470.577684 461.889099 
L 470.797316 394.89021 
L 471.016948 422.114089 
L 471.456213 293.011821 
L 471.675845 487.039287 
L 472.11511 291.126699 
L 472.334742 300.317097 
L 472.774006 453.257091 
L 472.993639 376.299537 
L 473.213271 388.548893 
L 473.432903 373.538979 
L 473.652535 426.20124 
L 473.872168 317.680788 
L 474.0918 337.579842 
L 474.311432 459.462018 
L 474.531065 375.260931 
L 474.750697 382.664766 
L 474.970329 461.994974 
L 475.189961 428.958989 
L 475.409594 321.99231 
L 475.629226 328.329013 
L 475.848858 429.085371 
L 476.068491 423.626144 
L 476.288123 469.022105 
L 476.507755 404.789585 
L 476.727387 281.339385 
L 476.94702 439.719489 
L 477.166652 384.603864 
L 477.386284 445.164835 
L 477.605917 420.729853 
L 477.825549 426.91131 
L 478.045181 342.045218 
L 478.264813 505.951519 
L 478.484446 355.366671 
L 478.704078 406.408571 
L 478.92371 405.127889 
L 479.143343 440.263097 
L 479.362975 200.841181 
L 479.582607 427.165911 
L 480.241504 256.144475 
L 480.461136 401.643264 
L 480.680769 314.581193 
L 480.900401 386.175547 
L 481.120033 334.60053 
L 481.339665 326.714009 
L 481.559298 262.155259 
L 481.998562 473.239887 
L 482.218195 434.235824 
L 482.437827 494.464288 
L 482.657459 310.634561 
L 482.877091 350.833834 
L 483.096724 472.283552 
L 483.535988 319.799267 
L 483.755621 475.61252 
L 483.975253 328.086685 
L 484.194885 496.745169 
L 484.414517 447.13019 
L 484.63415 352.557345 
L 484.853782 452.149412 
L 485.073414 410.71512 
L 485.293047 452.497601 
L 485.512679 340.103488 
L 485.732311 411.457881 
L 485.951943 339.58661 
L 486.171576 520.553372 
L 486.391208 334.425175 
L 486.61084 469.75698 
L 486.830473 356.77685 
L 487.050105 327.308913 
L 487.269737 497.476232 
L 487.489369 391.654236 
L 487.709002 525.907371 
L 487.928634 374.204034 
L 488.148266 484.175668 
L 488.367898 396.741438 
L 488.587531 422.602051 
L 488.807163 252.929522 
L 489.026795 344.130539 
L 489.246428 536.168625 
L 489.46606 461.014044 
L 489.685692 454.905648 
L 489.905324 370.946497 
L 490.124957 403.958351 
L 490.344589 384.21455 
L 490.564221 445.427554 
L 490.783854 381.012249 
L 491.003486 465.520655 
L 491.223118 272.735635 
L 491.44275 272.319701 
L 491.882015 439.995357 
L 492.32128 490.262065 
L 492.540912 461.758836 
L 492.760544 167.8884 
L 492.980176 422.948657 
L 493.199809 421.721657 
L 493.419441 432.077114 
L 493.639073 264.700256 
L 494.078338 467.651423 
L 494.517602 308.613505 
L 494.737235 375.524707 
L 494.956867 510.099458 
L 495.176499 243.429253 
L 495.396132 356.064918 
L 495.615764 262.105716 
L 495.835396 277.125389 
L 496.055028 448.178865 
L 496.274661 330.646273 
L 496.494293 492.573487 
L 496.713925 354.127855 
L 497.15319 491.575422 
L 497.372822 437.079384 
L 497.592454 428.081797 
L 497.812087 342.646877 
L 498.031719 393.003251 
L 498.251351 478.41887 
L 498.690616 343.910099 
L 498.910248 488.453637 
L 499.12988 503.616928 
L 499.349513 376.294982 
L 499.569145 348.646144 
L 499.788777 402.825905 
L 500.00841 422.845478 
L 500.228042 382.942055 
L 500.447674 404.612143 
L 500.667306 316.095295 
L 500.886939 423.272349 
L 501.106571 419.882514 
L 501.326203 383.818104 
L 501.545836 499.473701 
L 501.765468 451.727186 
L 501.9851 478.22403 
L 502.424365 344.703971 
L 502.643997 429.622032 
L 502.863629 293.813132 
L 503.083262 452.334552 
L 503.302894 428.924879 
L 503.522526 427.99459 
L 503.742158 392.55524 
L 503.961791 376.447949 
L 504.181423 327.390042 
L 504.401055 364.64268 
L 504.620687 362.170774 
L 504.84032 440.02759 
L 505.059952 382.457382 
L 505.279584 374.007111 
L 505.499217 328.67295 
L 505.718849 363.440505 
L 506.158113 496.913225 
L 506.377746 454.250174 
L 506.597378 354.013775 
L 506.81701 445.412644 
L 507.036643 378.495424 
L 507.256275 469.512821 
L 507.695539 424.641515 
L 507.915172 428.801519 
L 508.134804 490.658958 
L 508.354436 486.764454 
L 508.574069 522.230186 
L 508.793701 352.46308 
L 509.232965 454.781946 
L 509.452598 131.763818 
L 509.67223 437.124444 
L 510.111495 301.307187 
L 510.331127 423.34089 
L 510.550759 436.09046 
L 510.770391 352.102234 
L 510.990024 363.021884 
L 511.209656 404.193732 
L 511.429288 319.355015 
L 511.648921 498.035667 
L 511.868553 349.118631 
L 512.088185 475.226141 
L 512.307817 486.507523 
L 512.747082 334.592194 
L 512.966714 521.854521 
L 513.186347 415.42037 
L 513.625611 433.958074 
L 513.845243 422.087542 
L 514.064876 445.310213 
L 514.284508 341.994758 
L 514.50414 456.527014 
L 514.723773 349.69617 
L 514.943405 330.778542 
L 515.163037 514.779211 
L 515.382669 415.737387 
L 515.602302 407.3643 
L 515.821934 393.959763 
L 516.041566 437.964919 
L 516.261199 328.883032 
L 516.700463 501.048398 
L 516.920095 496.96407 
L 517.139728 387.254459 
L 517.35936 364.663898 
L 517.578992 192.383083 
L 517.798625 422.029753 
L 518.018257 397.028905 
L 518.237889 476.910581 
L 518.457521 440.916187 
L 518.677154 451.358415 
L 518.896786 383.581069 
L 519.116418 471.886012 
L 519.33605 370.919033 
L 519.555683 416.198024 
L 519.775315 314.925809 
L 520.21458 463.267394 
L 520.434212 450.194333 
L 520.873476 302.327349 
L 521.312741 391.717284 
L 521.532373 483.824387 
L 521.752006 396.148298 
L 522.19127 448.618171 
L 522.630535 389.617263 
L 523.069799 431.737586 
L 523.289432 378.837251 
L 523.509064 253.682008 
L 523.728696 405.862955 
L 523.948328 379.589122 
L 524.167961 472.446519 
L 524.387593 310.939357 
L 524.607225 291.361287 
L 524.826858 383.274339 
L 525.04649 380.171978 
L 525.266122 283.732081 
L 525.485754 418.035685 
L 525.925019 390.012199 
L 526.144651 438.727586 
L 526.364284 428.125019 
L 526.583916 363.794511 
L 526.803548 405.747158 
L 527.02318 492.177273 
L 527.242813 348.465964 
L 527.462445 337.413836 
L 527.682077 337.829685 
L 527.90171 460.981995 
L 528.121342 462.9722 
L 528.340974 438.333332 
L 528.560606 519.698719 
L 528.780239 370.821458 
L 528.999871 364.65272 
L 529.439136 523.317116 
L 529.658768 329.491911 
L 529.8784 408.960177 
L 530.098032 253.596863 
L 530.317665 439.51052 
L 530.756929 262.525115 
L 530.976562 410.485714 
L 531.196194 459.99889 
L 531.415826 393.320124 
L 531.635458 393.88233 
L 531.855091 402.879643 
L 532.074723 377.341358 
L 532.294355 510.834461 
L 532.513988 393.891424 
L 532.73362 348.446389 
L 532.953252 503.145464 
L 533.172884 370.450246 
L 533.392517 401.991949 
L 533.612149 362.000019 
L 533.831781 398.708857 
L 534.051413 313.766294 
L 534.271046 409.261158 
L 534.490678 363.688896 
L 534.71031 342.600346 
L 534.929943 421.557582 
L 535.149575 431.702829 
L 535.588839 308.10584 
L 535.808472 351.460285 
L 536.028104 513.153756 
L 536.247736 428.803505 
L 536.467369 410.567742 
L 536.687001 285.178752 
L 536.906633 419.365066 
L 537.126265 367.861328 
L 537.56553 495.11924 
L 537.785162 302.718342 
L 538.224427 501.370433 
L 538.444059 353.227471 
L 538.663691 287.90996 
L 538.883324 459.287063 
L 539.102956 405.37654 
L 539.322588 466.29566 
L 539.542221 455.986016 
L 539.761853 347.460057 
L 539.981485 469.703632 
L 540.201117 336.680185 
L 540.42075 432.84283 
L 540.640382 396.679196 
L 540.860014 302.923919 
L 541.079647 450.784346 
L 541.299279 410.66637 
L 541.518911 454.000802 
L 541.738543 327.557442 
L 541.958176 345.944269 
L 542.177808 456.405515 
L 542.39744 324.055091 
L 543.056337 470.94518 
L 543.275969 403.227586 
L 543.495602 403.53274 
L 543.715234 549.130183 
L 543.934866 388.068945 
L 544.154499 380.377477 
L 544.374131 333.42054 
L 544.593763 408.99353 
L 545.033028 354.245008 
L 545.25266 480.656266 
L 545.472292 482.375092 
L 545.691925 352.901515 
L 545.911557 357.428013 
L 545.911557 357.428013 
" style="fill:none;stroke:#96c69a;stroke-linecap:round;stroke-width:3;"/>
   </g>
   <g id="line2d_2"/>
   <g id="patch_3">
    <path d="M 84.914375 602.94 
L 84.914375 109.326857 
" style="fill:none;stroke:#262626;stroke-linecap:square;stroke-linejoin:miter;stroke-width:2.5;"/>
   </g>
   <g id="patch_4">
    <path d="M 84.914375 602.94 
L 567.863804 602.94 
" style="fill:none;stroke:#262626;stroke-linecap:square;stroke-linejoin:miter;stroke-width:2.5;"/>
   </g>
   <g id="legend_1">
    <g id="patch_5">
     <path d="M 514.948179 597.94 
L 560.863804 597.94 
Q 562.863804 597.94 562.863804 595.94 
L 562.863804 554.034375 
Q 562.863804 552.034375 560.863804 552.034375 
L 514.948179 552.034375 
Q 512.948179 552.034375 512.948179 554.034375 
L 512.948179 595.94 
Q 512.948179 597.94 514.948179 597.94 
z
" style="fill:#ffffff;opacity:0.8;stroke:#cccccc;stroke-linejoin:miter;stroke-width:2;"/>
    </g>
    <g id="text_15">
     <!-- $n_\tau$ -->
     <g style="fill:#262626;" transform="translate(524.825991 574.270625)scale(0.24 -0.24)">
      <defs>
       <path d="M 3566 2113 
L 3156 0 
L 2578 0 
L 2988 2091 
Q 3016 2238 3031 2350 
Q 3047 2463 3047 2528 
Q 3047 2791 2881 2937 
Q 2716 3084 2419 3084 
Q 1956 3084 1622 2776 
Q 1288 2469 1184 1941 
L 800 0 
L 225 0 
L 903 3500 
L 1478 3500 
L 1363 2950 
Q 1603 3253 1940 3418 
Q 2278 3584 2650 3584 
Q 3113 3584 3367 3334 
Q 3622 3084 3622 2631 
Q 3622 2519 3608 2391 
Q 3594 2263 3566 2113 
z
" id="DejaVuSans-Oblique-6e" transform="scale(0.015625)"/>
       <path d="M 2103 638 
Q 2188 488 2525 488 
L 2800 488 
L 2706 0 
L 2363 0 
Q 1800 0 1600 300 
Q 1403 606 1534 1269 
L 1856 2925 
L 541 2925 
L 653 3500 
L 3881 3500 
L 3769 2925 
L 2444 2925 
L 2113 1234 
Q 2025 781 2103 638 
z
" id="DejaVuSans-Oblique-3c4" transform="scale(0.015625)"/>
      </defs>
      <use xlink:href="#DejaVuSans-Oblique-6e"/>
      <use transform="translate(63.378906 -16.40625)scale(0.7)" xlink:href="#DejaVuSans-Oblique-3c4"/>
     </g>
    </g>
    <g id="line2d_3">
     <path d="M 516.948179 588.360312 
L 536.948179 588.360312 
" style="fill:none;stroke:#96c69a;stroke-linecap:round;stroke-width:3;"/>
    </g>
    <g id="line2d_4"/>
    <g id="text_16">
     <!-- 40 -->
     <g style="fill:#262626;" transform="translate(544.948179 591.860312)scale(0.1 -0.1)">
      <defs>
       <path d="M 2356 3675 
L 1038 1722 
L 2356 1722 
L 2356 3675 
z
M 2156 4666 
L 3494 4666 
L 3494 1722 
L 4159 1722 
L 4159 850 
L 3494 850 
L 3494 0 
L 2356 0 
L 2356 850 
L 288 850 
L 288 1881 
L 2156 4666 
z
" id="DejaVuSans-Bold-34" transform="scale(0.015625)"/>
       <path d="M 2944 2338 
Q 2944 3213 2780 3570 
Q 2616 3928 2228 3928 
Q 1841 3928 1675 3570 
Q 1509 3213 1509 2338 
Q 1509 1453 1675 1090 
Q 1841 728 2228 728 
Q 2613 728 2778 1090 
Q 2944 1453 2944 2338 
z
M 4147 2328 
Q 4147 1169 3647 539 
Q 3147 -91 2228 -91 
Q 1306 -91 806 539 
Q 306 1169 306 2328 
Q 306 3491 806 4120 
Q 1306 4750 2228 4750 
Q 3147 4750 3647 4120 
Q 4147 3491 4147 2328 
z
" id="DejaVuSans-Bold-30" transform="scale(0.015625)"/>
      </defs>
      <use xlink:href="#DejaVuSans-Bold-34"/>
      <use x="69.580078" xlink:href="#DejaVuSans-Bold-30"/>
     </g>
    </g>
   </g>
  </g>
  <g id="axes_2">
   <g id="patch_6">
    <path d="M 84.914375 92.305714 
L 567.863804 92.305714 
L 567.863804 7.2 
L 84.914375 7.2 
z
" style="fill:none;"/>
   </g>
   <g id="matplotlib.axis_3">
    <g id="xtick_7"/>
    <g id="xtick_8"/>
    <g id="xtick_9"/>
    <g id="xtick_10"/>
    <g id="xtick_11"/>
    <g id="xtick_12"/>
   </g>
   <g id="matplotlib.axis_4">
    <g id="ytick_7">
     <g id="text_17">
      <!-- 0 -->
      <g style="fill:#262626;" transform="translate(55.416875 100.663996)scale(0.22 -0.22)">
       <use xlink:href="#DejaVuSans-30"/>
      </g>
     </g>
    </g>
    <g id="ytick_8">
     <g id="text_18">
      <!-- 100 -->
      <g style="fill:#262626;" transform="translate(27.421875 48.032138)scale(0.22 -0.22)">
       <use xlink:href="#DejaVuSans-31"/>
       <use x="63.623047" xlink:href="#DejaVuSans-30"/>
       <use x="127.246094" xlink:href="#DejaVuSans-30"/>
      </g>
     </g>
    </g>
   </g>
   <g id="patch_7">
    <path clip-path="url(#p1d97447411)" d="M 106.866622 92.305714 
L 140.639309 92.305714 
L 140.639309 11.252653 
L 106.866622 11.252653 
z
" style="fill:#96c69a;fill-opacity:0.5;stroke:#ffffff;stroke-linejoin:miter;stroke-width:2;"/>
   </g>
   <g id="patch_8">
    <path clip-path="url(#p1d97447411)" d="M 140.639309 92.305714 
L 174.411996 92.305714 
L 174.411996 11.252653 
L 140.639309 11.252653 
z
" style="fill:#96c69a;fill-opacity:0.5;stroke:#ffffff;stroke-linejoin:miter;stroke-width:2;"/>
   </g>
   <g id="patch_9">
    <path clip-path="url(#p1d97447411)" d="M 174.411996 92.305714 
L 208.184684 92.305714 
L 208.184684 11.252653 
L 174.411996 11.252653 
z
" style="fill:#96c69a;fill-opacity:0.5;stroke:#ffffff;stroke-linejoin:miter;stroke-width:2;"/>
   </g>
   <g id="patch_10">
    <path clip-path="url(#p1d97447411)" d="M 208.184684 92.305714 
L 241.957371 92.305714 
L 241.957371 11.252653 
L 208.184684 11.252653 
z
" style="fill:#96c69a;fill-opacity:0.5;stroke:#ffffff;stroke-linejoin:miter;stroke-width:2;"/>
   </g>
   <g id="patch_11">
    <path clip-path="url(#p1d97447411)" d="M 241.957371 92.305714 
L 275.730058 92.305714 
L 275.730058 11.778972 
L 241.957371 11.778972 
z
" style="fill:#96c69a;fill-opacity:0.5;stroke:#ffffff;stroke-linejoin:miter;stroke-width:2;"/>
   </g>
   <g id="patch_12">
    <path clip-path="url(#p1d97447411)" d="M 275.730058 92.305714 
L 309.502746 92.305714 
L 309.502746 11.252653 
L 275.730058 11.252653 
z
" style="fill:#96c69a;fill-opacity:0.5;stroke:#ffffff;stroke-linejoin:miter;stroke-width:2;"/>
   </g>
   <g id="patch_13">
    <path clip-path="url(#p1d97447411)" d="M 309.502746 92.305714 
L 343.275433 92.305714 
L 343.275433 11.252653 
L 309.502746 11.252653 
z
" style="fill:#96c69a;fill-opacity:0.5;stroke:#ffffff;stroke-linejoin:miter;stroke-width:2;"/>
   </g>
   <g id="patch_14">
    <path clip-path="url(#p1d97447411)" d="M 343.275433 92.305714 
L 377.04812 92.305714 
L 377.04812 11.252653 
L 343.275433 11.252653 
z
" style="fill:#96c69a;fill-opacity:0.5;stroke:#ffffff;stroke-linejoin:miter;stroke-width:2;"/>
   </g>
   <g id="patch_15">
    <path clip-path="url(#p1d97447411)" d="M 377.04812 92.305714 
L 410.820808 92.305714 
L 410.820808 11.778972 
L 377.04812 11.778972 
z
" style="fill:#96c69a;fill-opacity:0.5;stroke:#ffffff;stroke-linejoin:miter;stroke-width:2;"/>
   </g>
   <g id="patch_16">
    <path clip-path="url(#p1d97447411)" d="M 410.820808 92.305714 
L 444.593495 92.305714 
L 444.593495 11.252653 
L 410.820808 11.252653 
z
" style="fill:#96c69a;fill-opacity:0.5;stroke:#ffffff;stroke-linejoin:miter;stroke-width:2;"/>
   </g>
   <g id="patch_17">
    <path clip-path="url(#p1d97447411)" d="M 444.593495 92.305714 
L 478.366182 92.305714 
L 478.366182 11.252653 
L 444.593495 11.252653 
z
" style="fill:#96c69a;fill-opacity:0.5;stroke:#ffffff;stroke-linejoin:miter;stroke-width:2;"/>
   </g>
   <g id="patch_18">
    <path clip-path="url(#p1d97447411)" d="M 478.366182 92.305714 
L 512.13887 92.305714 
L 512.13887 11.252653 
L 478.366182 11.252653 
z
" style="fill:#96c69a;fill-opacity:0.5;stroke:#ffffff;stroke-linejoin:miter;stroke-width:2;"/>
   </g>
   <g id="patch_19">
    <path clip-path="url(#p1d97447411)" d="M 512.13887 92.305714 
L 545.911557 92.305714 
L 545.911557 11.252653 
L 512.13887 11.252653 
z
" style="fill:#96c69a;fill-opacity:0.5;stroke:#ffffff;stroke-linejoin:miter;stroke-width:2;"/>
   </g>
   <g id="patch_20">
    <path d="M 84.914375 92.305714 
L 84.914375 7.2 
" style="fill:none;stroke:#262626;stroke-linecap:square;stroke-linejoin:miter;stroke-width:2.5;"/>
   </g>
   <g id="patch_21">
    <path d="M 84.914375 92.305714 
L 567.863804 92.305714 
" style="fill:none;stroke:#262626;stroke-linecap:square;stroke-linejoin:miter;stroke-width:2.5;"/>
   </g>
  </g>
  <g id="axes_3">
   <g id="patch_22">
    <path d="M 584.517232 602.94 
L 667.784375 602.94 
L 667.784375 109.326857 
L 584.517232 109.326857 
z
" style="fill:none;"/>
   </g>
   <g id="matplotlib.axis_5">
    <g id="xtick_13">
     <g id="text_19">
      <!-- 0 -->
      <g style="fill:#262626;" transform="translate(577.518482 635.156562)scale(0.22 -0.22)">
       <use xlink:href="#DejaVuSans-30"/>
      </g>
     </g>
    </g>
    <g id="xtick_14">
     <g id="text_20">
      <!-- 100 -->
      <g style="fill:#262626;" transform="translate(608.836434 635.156562)scale(0.22 -0.22)">
       <use xlink:href="#DejaVuSans-31"/>
       <use x="63.623047" xlink:href="#DejaVuSans-30"/>
       <use x="127.246094" xlink:href="#DejaVuSans-30"/>
      </g>
     </g>
    </g>
   </g>
   <g id="matplotlib.axis_6">
    <g id="ytick_9"/>
    <g id="ytick_10"/>
    <g id="ytick_11"/>
    <g id="ytick_12"/>
    <g id="ytick_13"/>
    <g id="ytick_14"/>
   </g>
   <g id="patch_23">
    <path clip-path="url(#pb04d5de08e)" d="M 584.517232 580.503039 
L 584.970387 580.503039 
L 584.970387 566.904881 
L 584.517232 566.904881 
z
" style="fill:#96c69a;fill-opacity:0.5;stroke:#ffffff;stroke-linejoin:miter;stroke-width:1.359816;"/>
   </g>
   <g id="patch_24">
    <path clip-path="url(#pb04d5de08e)" d="M 584.517232 566.904881 
L 586.783005 566.904881 
L 586.783005 553.306723 
L 584.517232 553.306723 
z
" style="fill:#96c69a;fill-opacity:0.5;stroke:#ffffff;stroke-linejoin:miter;stroke-width:1.359816;"/>
   </g>
   <g id="patch_25">
    <path clip-path="url(#pb04d5de08e)" d="M 584.517232 553.306723 
L 589.048777 553.306723 
L 589.048777 539.708564 
L 584.517232 539.708564 
z
" style="fill:#96c69a;fill-opacity:0.5;stroke:#ffffff;stroke-linejoin:miter;stroke-width:1.359816;"/>
   </g>
   <g id="patch_26">
    <path clip-path="url(#pb04d5de08e)" d="M 584.517232 539.708564 
L 589.048777 539.708564 
L 589.048777 526.110406 
L 584.517232 526.110406 
z
" style="fill:#96c69a;fill-opacity:0.5;stroke:#ffffff;stroke-linejoin:miter;stroke-width:1.359816;"/>
   </g>
   <g id="patch_27">
    <path clip-path="url(#pb04d5de08e)" d="M 584.517232 526.110406 
L 596.29925 526.110406 
L 596.29925 512.512248 
L 584.517232 512.512248 
z
" style="fill:#96c69a;fill-opacity:0.5;stroke:#ffffff;stroke-linejoin:miter;stroke-width:1.359816;"/>
   </g>
   <g id="patch_28">
    <path clip-path="url(#pb04d5de08e)" d="M 584.517232 512.512248 
L 609.440731 512.512248 
L 609.440731 498.91409 
L 584.517232 498.91409 
z
" style="fill:#96c69a;fill-opacity:0.5;stroke:#ffffff;stroke-linejoin:miter;stroke-width:1.359816;"/>
   </g>
   <g id="patch_29">
    <path clip-path="url(#pb04d5de08e)" d="M 584.517232 498.91409 
L 626.207448 498.91409 
L 626.207448 485.315932 
L 584.517232 485.315932 
z
" style="fill:#96c69a;fill-opacity:0.5;stroke:#ffffff;stroke-linejoin:miter;stroke-width:1.359816;"/>
   </g>
   <g id="patch_30">
    <path clip-path="url(#pb04d5de08e)" d="M 584.517232 485.315932 
L 624.847984 485.315932 
L 624.847984 471.717773 
L 584.517232 471.717773 
z
" style="fill:#96c69a;fill-opacity:0.5;stroke:#ffffff;stroke-linejoin:miter;stroke-width:1.359816;"/>
   </g>
   <g id="patch_31">
    <path clip-path="url(#pb04d5de08e)" d="M 584.517232 471.717773 
L 632.551611 471.717773 
L 632.551611 458.119615 
L 584.517232 458.119615 
z
" style="fill:#96c69a;fill-opacity:0.5;stroke:#ffffff;stroke-linejoin:miter;stroke-width:1.359816;"/>
   </g>
   <g id="patch_32">
    <path clip-path="url(#pb04d5de08e)" d="M 584.517232 458.119615 
L 655.662492 458.119615 
L 655.662492 444.521457 
L 584.517232 444.521457 
z
" style="fill:#96c69a;fill-opacity:0.5;stroke:#ffffff;stroke-linejoin:miter;stroke-width:1.359816;"/>
   </g>
   <g id="patch_33">
    <path clip-path="url(#pb04d5de08e)" d="M 584.517232 444.521457 
L 649.771483 444.521457 
L 649.771483 430.923299 
L 584.517232 430.923299 
z
" style="fill:#96c69a;fill-opacity:0.5;stroke:#ffffff;stroke-linejoin:miter;stroke-width:1.359816;"/>
   </g>
   <g id="patch_34">
    <path clip-path="url(#pb04d5de08e)" d="M 584.517232 430.923299 
L 662.006655 430.923299 
L 662.006655 417.32514 
L 584.517232 417.32514 
z
" style="fill:#96c69a;fill-opacity:0.5;stroke:#ffffff;stroke-linejoin:miter;stroke-width:1.359816;"/>
   </g>
   <g id="patch_35">
    <path clip-path="url(#pb04d5de08e)" d="M 584.517232 417.32514 
L 659.740882 417.32514 
L 659.740882 403.726982 
L 584.517232 403.726982 
z
" style="fill:#96c69a;fill-opacity:0.5;stroke:#ffffff;stroke-linejoin:miter;stroke-width:1.359816;"/>
   </g>
   <g id="patch_36">
    <path clip-path="url(#pb04d5de08e)" d="M 584.517232 403.726982 
L 657.47511 403.726982 
L 657.47511 390.128824 
L 584.517232 390.128824 
z
" style="fill:#96c69a;fill-opacity:0.5;stroke:#ffffff;stroke-linejoin:miter;stroke-width:1.359816;"/>
   </g>
   <g id="patch_37">
    <path clip-path="url(#pb04d5de08e)" d="M 584.517232 390.128824 
L 663.819273 390.128824 
L 663.819273 376.530666 
L 584.517232 376.530666 
z
" style="fill:#96c69a;fill-opacity:0.5;stroke:#ffffff;stroke-linejoin:miter;stroke-width:1.359816;"/>
   </g>
   <g id="patch_38">
    <path clip-path="url(#pb04d5de08e)" d="M 584.517232 376.530666 
L 639.348929 376.530666 
L 639.348929 362.932508 
L 584.517232 362.932508 
z
" style="fill:#96c69a;fill-opacity:0.5;stroke:#ffffff;stroke-linejoin:miter;stroke-width:1.359816;"/>
   </g>
   <g id="patch_39">
    <path clip-path="url(#pb04d5de08e)" d="M 584.517232 362.932508 
L 639.348929 362.932508 
L 639.348929 349.334349 
L 584.517232 349.334349 
z
" style="fill:#96c69a;fill-opacity:0.5;stroke:#ffffff;stroke-linejoin:miter;stroke-width:1.359816;"/>
   </g>
   <g id="patch_40">
    <path clip-path="url(#pb04d5de08e)" d="M 584.517232 349.334349 
L 621.222748 349.334349 
L 621.222748 335.736191 
L 584.517232 335.736191 
z
" style="fill:#96c69a;fill-opacity:0.5;stroke:#ffffff;stroke-linejoin:miter;stroke-width:1.359816;"/>
   </g>
   <g id="patch_41">
    <path clip-path="url(#pb04d5de08e)" d="M 584.517232 335.736191 
L 618.503821 335.736191 
L 618.503821 322.138033 
L 584.517232 322.138033 
z
" style="fill:#96c69a;fill-opacity:0.5;stroke:#ffffff;stroke-linejoin:miter;stroke-width:1.359816;"/>
   </g>
   <g id="patch_42">
    <path clip-path="url(#pb04d5de08e)" d="M 584.517232 322.138033 
L 611.706503 322.138033 
L 611.706503 308.539875 
L 584.517232 308.539875 
z
" style="fill:#96c69a;fill-opacity:0.5;stroke:#ffffff;stroke-linejoin:miter;stroke-width:1.359816;"/>
   </g>
   <g id="patch_43">
    <path clip-path="url(#pb04d5de08e)" d="M 584.517232 308.539875 
L 607.174958 308.539875 
L 607.174958 294.941717 
L 584.517232 294.941717 
z
" style="fill:#96c69a;fill-opacity:0.5;stroke:#ffffff;stroke-linejoin:miter;stroke-width:1.359816;"/>
   </g>
   <g id="patch_44">
    <path clip-path="url(#pb04d5de08e)" d="M 584.517232 294.941717 
L 603.549722 294.941717 
L 603.549722 281.343558 
L 584.517232 281.343558 
z
" style="fill:#96c69a;fill-opacity:0.5;stroke:#ffffff;stroke-linejoin:miter;stroke-width:1.359816;"/>
   </g>
   <g id="patch_45">
    <path clip-path="url(#pb04d5de08e)" d="M 584.517232 281.343558 
L 594.033477 281.343558 
L 594.033477 267.7454 
L 584.517232 267.7454 
z
" style="fill:#96c69a;fill-opacity:0.5;stroke:#ffffff;stroke-linejoin:miter;stroke-width:1.359816;"/>
   </g>
   <g id="patch_46">
    <path clip-path="url(#pb04d5de08e)" d="M 584.517232 267.7454 
L 592.220859 267.7454 
L 592.220859 254.147242 
L 584.517232 254.147242 
z
" style="fill:#96c69a;fill-opacity:0.5;stroke:#ffffff;stroke-linejoin:miter;stroke-width:1.359816;"/>
   </g>
   <g id="patch_47">
    <path clip-path="url(#pb04d5de08e)" d="M 584.517232 254.147242 
L 590.408241 254.147242 
L 590.408241 240.549084 
L 584.517232 240.549084 
z
" style="fill:#96c69a;fill-opacity:0.5;stroke:#ffffff;stroke-linejoin:miter;stroke-width:1.359816;"/>
   </g>
   <g id="patch_48">
    <path clip-path="url(#pb04d5de08e)" d="M 584.517232 240.549084 
L 588.595623 240.549084 
L 588.595623 226.950926 
L 584.517232 226.950926 
z
" style="fill:#96c69a;fill-opacity:0.5;stroke:#ffffff;stroke-linejoin:miter;stroke-width:1.359816;"/>
   </g>
   <g id="patch_49">
    <path clip-path="url(#pb04d5de08e)" d="M 584.517232 226.950926 
L 585.423541 226.950926 
L 585.423541 213.352767 
L 584.517232 213.352767 
z
" style="fill:#96c69a;fill-opacity:0.5;stroke:#ffffff;stroke-linejoin:miter;stroke-width:1.359816;"/>
   </g>
   <g id="patch_50">
    <path clip-path="url(#pb04d5de08e)" d="M 584.517232 213.352767 
L 587.689314 213.352767 
L 587.689314 199.754609 
L 584.517232 199.754609 
z
" style="fill:#96c69a;fill-opacity:0.5;stroke:#ffffff;stroke-linejoin:miter;stroke-width:1.359816;"/>
   </g>
   <g id="patch_51">
    <path clip-path="url(#pb04d5de08e)" d="M 584.517232 199.754609 
L 585.423541 199.754609 
L 585.423541 186.156451 
L 584.517232 186.156451 
z
" style="fill:#96c69a;fill-opacity:0.5;stroke:#ffffff;stroke-linejoin:miter;stroke-width:1.359816;"/>
   </g>
   <g id="patch_52">
    <path clip-path="url(#pb04d5de08e)" d="M 584.517232 186.156451 
L 585.876696 186.156451 
L 585.876696 172.558293 
L 584.517232 172.558293 
z
" style="fill:#96c69a;fill-opacity:0.5;stroke:#ffffff;stroke-linejoin:miter;stroke-width:1.359816;"/>
   </g>
   <g id="patch_53">
    <path clip-path="url(#pb04d5de08e)" d="M 584.517232 172.558293 
L 586.783005 172.558293 
L 586.783005 158.960135 
L 584.517232 158.960135 
z
" style="fill:#96c69a;fill-opacity:0.5;stroke:#ffffff;stroke-linejoin:miter;stroke-width:1.359816;"/>
   </g>
   <g id="patch_54">
    <path clip-path="url(#pb04d5de08e)" d="M 584.517232 158.960135 
L 584.970387 158.960135 
L 584.970387 145.361976 
L 584.517232 145.361976 
z
" style="fill:#96c69a;fill-opacity:0.5;stroke:#ffffff;stroke-linejoin:miter;stroke-width:1.359816;"/>
   </g>
   <g id="patch_55">
    <path clip-path="url(#pb04d5de08e)" d="M 584.517232 145.361976 
L 585.423541 145.361976 
L 585.423541 131.763818 
L 584.517232 131.763818 
z
" style="fill:#96c69a;fill-opacity:0.5;stroke:#ffffff;stroke-linejoin:miter;stroke-width:1.359816;"/>
   </g>
   <g id="patch_56">
    <path d="M 584.517232 602.94 
L 584.517232 109.326857 
" style="fill:none;stroke:#262626;stroke-linecap:square;stroke-linejoin:miter;stroke-width:2.5;"/>
   </g>
   <g id="patch_57">
    <path d="M 584.517232 602.94 
L 667.784375 602.94 
" style="fill:none;stroke:#262626;stroke-linecap:square;stroke-linejoin:miter;stroke-width:2.5;"/>
   </g>
  </g>
 </g>
 <defs>
  <clipPath id="pc3ffd40869">
   <rect height="493.613143" width="482.949429" x="84.914375" y="109.326857"/>
  </clipPath>
  <clipPath id="p1d97447411">
   <rect height="85.105714" width="482.949429" x="84.914375" y="7.2"/>
  </clipPath>
  <clipPath id="pb04d5de08e">
   <rect height="493.613143" width="83.267143" x="584.517232" y="109.326857"/>
  </clipPath>
 </defs>
</svg>
