<?xml version="1.0" encoding="utf-8" standalone="no"?>
<!DOCTYPE svg PUBLIC "-//W3C//DTD SVG 1.1//EN"
  "http://www.w3.org/Graphics/SVG/1.1/DTD/svg11.dtd">
<svg height="311.267375pt" version="1.1" viewBox="0 0 351.196404 311.267375" width="351.196404pt" xmlns="http://www.w3.org/2000/svg" xmlns:xlink="http://www.w3.org/1999/xlink">
 <metadata>
  <rdf:RDF xmlns:cc="http://creativecommons.org/ns#" xmlns:dc="http://purl.org/dc/elements/1.1/" xmlns:rdf="http://www.w3.org/1999/02/22-rdf-syntax-ns#">
   <cc:Work>
    <dc:type rdf:resource="http://purl.org/dc/dcmitype/StillImage"/>
    <dc:date>2021-07-24T15:32:01.008989</dc:date>
    <dc:format>image/svg+xml</dc:format>
    <dc:creator>
     <cc:Agent>
      <dc:title>Matplotlib v3.4.2, https://matplotlib.org/</dc:title>
     </cc:Agent>
    </dc:creator>
   </cc:Work>
  </rdf:RDF>
 </metadata>
 <defs>
  <style type="text/css">*{stroke-linecap:butt;stroke-linejoin:round;}</style>
 </defs>
 <g id="figure_1">
  <g id="patch_1">
   <path d="M 0 311.267375 
L 351.196404 311.267375 
L 351.196404 0 
L 0 0 
z
" style="fill:#ffffff;"/>
  </g>
  <g id="axes_1">
   <g id="patch_2">
    <path d="M 9.196404 49.536 
L 343.996404 49.536 
L 343.996404 7.2 
L 9.196404 7.2 
z
" style="fill:none;"/>
   </g>
   <g id="matplotlib.axis_1">
    <g id="xtick_1"/>
    <g id="xtick_2"/>
    <g id="xtick_3"/>
    <g id="xtick_4"/>
   </g>
   <g id="matplotlib.axis_2"/>
   <g id="PolyCollection_1">
    <defs>
     <path d="M 44.624272 -261.733383 
L 44.624272 -261.731375 
L 44.995241 -261.731375 
L 45.36621 -261.731375 
L 45.737179 -261.731375 
L 46.108148 -261.731375 
L 46.479117 -261.731375 
L 46.850086 -261.731375 
L 47.221055 -261.731375 
L 47.592024 -261.731375 
L 47.962993 -261.731375 
L 48.333962 -261.731375 
L 48.704931 -261.731375 
L 49.0759 -261.731375 
L 49.446869 -261.731375 
L 49.817838 -261.731375 
L 50.188807 -261.731375 
L 50.559777 -261.731375 
L 50.930746 -261.731375 
L 51.301715 -261.731375 
L 51.672684 -261.731375 
L 52.043653 -261.731375 
L 52.414622 -261.731375 
L 52.785591 -261.731375 
L 53.15656 -261.731375 
L 53.527529 -261.731375 
L 53.898498 -261.731375 
L 54.269467 -261.731375 
L 54.640436 -261.731375 
L 55.011405 -261.731375 
L 55.382374 -261.731375 
L 55.753343 -261.731375 
L 56.124312 -261.731375 
L 56.495282 -261.731375 
L 56.866251 -261.731375 
L 57.23722 -261.731375 
L 57.608189 -261.731375 
L 57.979158 -261.731375 
L 58.350127 -261.731375 
L 58.721096 -261.731375 
L 59.092065 -261.731375 
L 59.463034 -261.731375 
L 59.834003 -261.731375 
L 60.204972 -261.731375 
L 60.575941 -261.731375 
L 60.94691 -261.731375 
L 61.317879 -261.731375 
L 61.688848 -261.731375 
L 62.059817 -261.731375 
L 62.430787 -261.731375 
L 62.801756 -261.731375 
L 63.172725 -261.731375 
L 63.543694 -261.731375 
L 63.914663 -261.731375 
L 64.285632 -261.731375 
L 64.656601 -261.731375 
L 65.02757 -261.731375 
L 65.398539 -261.731375 
L 65.769508 -261.731375 
L 66.140477 -261.731375 
L 66.511446 -261.731375 
L 66.882415 -261.731375 
L 67.253384 -261.731375 
L 67.624353 -261.731375 
L 67.995322 -261.731375 
L 68.366292 -261.731375 
L 68.737261 -261.731375 
L 69.10823 -261.731375 
L 69.479199 -261.731375 
L 69.850168 -261.731375 
L 70.221137 -261.731375 
L 70.592106 -261.731375 
L 70.963075 -261.731375 
L 71.334044 -261.731375 
L 71.705013 -261.731375 
L 72.075982 -261.731375 
L 72.446951 -261.731375 
L 72.81792 -261.731375 
L 73.188889 -261.731375 
L 73.559858 -261.731375 
L 73.930827 -261.731375 
L 74.301797 -261.731375 
L 74.672766 -261.731375 
L 75.043735 -261.731375 
L 75.414704 -261.731375 
L 75.785673 -261.731375 
L 76.156642 -261.731375 
L 76.527611 -261.731375 
L 76.89858 -261.731375 
L 77.269549 -261.731375 
L 77.640518 -261.731375 
L 78.011487 -261.731375 
L 78.382456 -261.731375 
L 78.753425 -261.731375 
L 79.124394 -261.731375 
L 79.495363 -261.731375 
L 79.866332 -261.731375 
L 80.237302 -261.731375 
L 80.608271 -261.731375 
L 80.97924 -261.731375 
L 81.350209 -261.731375 
L 81.721178 -261.731375 
L 82.092147 -261.731375 
L 82.463116 -261.731375 
L 82.834085 -261.731375 
L 83.205054 -261.731375 
L 83.576023 -261.731375 
L 83.946992 -261.731375 
L 84.317961 -261.731375 
L 84.68893 -261.731375 
L 85.059899 -261.731375 
L 85.430868 -261.731375 
L 85.801837 -261.731375 
L 86.172806 -261.731375 
L 86.543776 -261.731375 
L 86.914745 -261.731375 
L 87.285714 -261.731375 
L 87.656683 -261.731375 
L 88.027652 -261.731375 
L 88.398621 -261.731375 
L 88.76959 -261.731375 
L 89.140559 -261.731375 
L 89.511528 -261.731375 
L 89.882497 -261.731375 
L 90.253466 -261.731375 
L 90.624435 -261.731375 
L 90.995404 -261.731375 
L 91.366373 -261.731375 
L 91.737342 -261.731375 
L 92.108311 -261.731375 
L 92.479281 -261.731375 
L 92.85025 -261.731375 
L 93.221219 -261.731375 
L 93.592188 -261.731375 
L 93.963157 -261.731375 
L 94.334126 -261.731375 
L 94.705095 -261.731375 
L 95.076064 -261.731375 
L 95.447033 -261.731375 
L 95.818002 -261.731375 
L 96.188971 -261.731375 
L 96.55994 -261.731375 
L 96.930909 -261.731375 
L 97.301878 -261.731375 
L 97.672847 -261.731375 
L 98.043816 -261.731375 
L 98.414786 -261.731375 
L 98.785755 -261.731375 
L 99.156724 -261.731375 
L 99.527693 -261.731375 
L 99.898662 -261.731375 
L 100.269631 -261.731375 
L 100.6406 -261.731375 
L 101.011569 -261.731375 
L 101.382538 -261.731375 
L 101.753507 -261.731375 
L 102.124476 -261.731375 
L 102.495445 -261.731375 
L 102.866414 -261.731375 
L 103.237383 -261.731375 
L 103.608352 -261.731375 
L 103.979321 -261.731375 
L 104.350291 -261.731375 
L 104.72126 -261.731375 
L 105.092229 -261.731375 
L 105.463198 -261.731375 
L 105.834167 -261.731375 
L 106.205136 -261.731375 
L 106.576105 -261.731375 
L 106.947074 -261.731375 
L 107.318043 -261.731375 
L 107.689012 -261.731375 
L 108.059981 -261.731375 
L 108.43095 -261.731375 
L 108.801919 -261.731375 
L 109.172888 -261.731375 
L 109.543857 -261.731375 
L 109.914826 -261.731375 
L 110.285796 -261.731375 
L 110.656765 -261.731375 
L 111.027734 -261.731375 
L 111.398703 -261.731375 
L 111.769672 -261.731375 
L 112.140641 -261.731375 
L 112.51161 -261.731375 
L 112.882579 -261.731375 
L 113.253548 -261.731375 
L 113.624517 -261.731375 
L 113.995486 -261.731375 
L 114.366455 -261.731375 
L 114.737424 -261.731375 
L 115.108393 -261.731375 
L 115.479362 -261.731375 
L 115.850331 -261.731375 
L 116.221301 -261.731375 
L 116.59227 -261.731375 
L 116.963239 -261.731375 
L 117.334208 -261.731375 
L 117.705177 -261.731375 
L 118.076146 -261.731375 
L 118.447115 -261.731375 
L 118.447115 -261.734986 
L 118.447115 -261.734986 
L 118.076146 -261.740951 
L 117.705177 -261.754117 
L 117.334208 -261.779771 
L 116.963239 -261.823742 
L 116.59227 -261.889657 
L 116.221301 -261.975204 
L 115.850331 -262.069506 
L 115.479362 -262.154136 
L 115.108393 -262.208697 
L 114.737424 -262.21885 
L 114.366455 -262.182517 
L 113.995486 -262.110809 
L 113.624517 -262.023547 
L 113.253548 -261.94248 
L 112.882579 -261.886052 
L 112.51161 -261.867542 
L 112.140641 -261.895507 
L 111.769672 -261.973863 
L 111.398703 -262.0998 
L 111.027734 -262.260506 
L 110.656765 -262.432077 
L 110.285796 -262.583903 
L 109.914826 -262.688375 
L 109.543857 -262.731434 
L 109.172888 -262.717828 
L 108.801919 -262.667846 
L 108.43095 -262.607692 
L 108.059981 -262.559225 
L 107.689012 -262.534142 
L 107.318043 -262.534117 
L 106.947074 -262.554818 
L 106.576105 -262.590259 
L 106.205136 -262.634832 
L 105.834167 -262.683032 
L 105.463198 -262.729426 
L 105.092229 -262.771323 
L 104.72126 -262.813397 
L 104.350291 -262.869809 
L 103.979321 -262.959486 
L 103.608352 -263.095045 
L 103.237383 -263.271626 
L 102.866414 -263.463601 
L 102.495445 -263.633134 
L 102.124476 -263.747382 
L 101.753507 -263.795365 
L 101.382538 -263.794861 
L 101.011569 -263.78501 
L 100.6406 -263.808651 
L 100.269631 -263.894462 
L 99.898662 -264.04839 
L 99.527693 -264.257073 
L 99.156724 -264.498263 
L 98.785755 -264.750562 
L 98.414786 -264.998473 
L 98.043816 -265.233892 
L 97.672847 -265.456292 
L 97.301878 -265.6711 
L 96.930909 -265.884671 
L 96.55994 -266.097929 
L 96.188971 -266.305154 
L 95.818002 -266.502431 
L 95.447033 -266.700928 
L 95.076064 -266.932091 
L 94.705095 -267.234946 
L 94.334126 -267.63006 
L 93.963157 -268.098054 
L 93.592188 -268.580152 
L 93.221219 -269.003563 
L 92.85025 -269.317686 
L 92.479281 -269.5207 
L 92.108311 -269.663072 
L 91.737342 -269.828151 
L 91.366373 -270.101512 
L 90.995404 -270.543976 
L 90.624435 -271.177741 
L 90.253466 -271.985155 
L 89.882497 -272.91316 
L 89.511528 -273.878639 
L 89.140559 -274.778141 
L 88.76959 -275.509498 
L 88.398621 -276.005451 
L 88.027652 -276.266102 
L 87.656683 -276.372053 
L 87.285714 -276.469505 
L 86.914745 -276.733162 
L 86.543776 -277.319695 
L 86.172806 -278.323088 
L 85.801837 -279.741767 
L 85.430868 -281.468966 
L 85.059899 -283.316166 
L 84.68893 -285.068831 
L 84.317961 -286.556724 
L 83.946992 -287.708016 
L 83.576023 -288.558554 
L 83.205054 -289.209857 
L 82.834085 -289.760955 
L 82.463116 -290.256518 
L 82.092147 -290.680434 
L 81.721178 -290.99008 
L 81.350209 -291.160745 
L 80.97924 -291.210911 
L 80.608271 -291.199336 
L 80.237302 -291.203996 
L 79.866332 -291.299136 
L 79.495363 -291.541629 
L 79.124394 -291.967456 
L 78.753425 -292.590093 
L 78.382456 -293.392238 
L 78.011487 -294.313287 
L 77.640518 -295.247408 
L 77.269549 -296.066002 
L 76.89858 -296.660771 
L 76.527611 -296.985696 
L 76.156642 -297.075219 
L 75.785673 -297.03144 
L 75.414704 -296.988723 
L 75.043735 -297.068537 
L 74.672766 -297.336243 
L 74.301797 -297.774823 
L 73.930827 -298.294073 
L 73.559858 -298.781519 
L 73.188889 -299.171167 
L 72.81792 -299.483302 
L 72.446951 -299.802622 
L 72.075982 -300.209148 
L 71.705013 -300.715212 
L 71.334044 -301.254073 
L 70.963075 -301.718589 
L 70.592106 -302.008712 
L 70.221137 -302.051375 
L 69.850168 -301.794616 
L 69.479199 -301.205257 
L 69.10823 -300.288312 
L 68.737261 -299.113498 
L 68.366292 -297.817361 
L 67.995322 -296.565503 
L 67.624353 -295.490891 
L 67.253384 -294.642929 
L 66.882415 -293.975253 
L 66.511446 -293.376145 
L 66.140477 -292.722004 
L 65.769508 -291.924963 
L 65.398539 -290.953325 
L 65.02757 -289.820627 
L 64.656601 -288.556032 
L 64.285632 -287.178293 
L 63.914663 -285.69312 
L 63.543694 -284.117835 
L 63.172725 -282.514324 
L 62.801756 -280.998617 
L 62.430787 -279.707566 
L 62.059817 -278.735208 
L 61.688848 -278.078322 
L 61.317879 -277.628508 
L 60.94691 -277.217626 
L 60.575941 -276.689156 
L 60.204972 -275.955564 
L 59.834003 -275.015936 
L 59.463034 -273.934073 
L 59.092065 -272.796799 
L 58.721096 -271.677079 
L 58.350127 -270.618098 
L 57.979158 -269.639281 
L 57.608189 -268.751998 
L 57.23722 -267.96953 
L 56.866251 -267.304546 
L 56.495282 -266.759672 
L 56.124312 -266.321377 
L 55.753343 -265.961748 
L 55.382374 -265.645147 
L 55.011405 -265.33545 
L 54.640436 -265.003146 
L 54.269467 -264.632892 
L 53.898498 -264.228943 
L 53.527529 -263.813733 
L 53.15656 -263.418482 
L 52.785591 -263.071311 
L 52.414622 -262.790539 
L 52.043653 -262.585623 
L 51.672684 -262.460939 
L 51.301715 -262.41577 
L 50.930746 -262.439254 
L 50.559777 -262.505936 
L 50.188807 -262.578806 
L 49.817838 -262.620932 
L 49.446869 -262.609195 
L 49.0759 -262.541321 
L 48.704931 -262.43234 
L 48.333962 -262.304216 
L 47.962993 -262.176075 
L 47.592024 -262.059928 
L 47.221055 -261.961524 
L 46.850086 -261.882947 
L 46.479117 -261.824236 
L 46.108148 -261.783754 
L 45.737179 -261.758342 
L 45.36621 -261.743963 
L 44.995241 -261.736677 
L 44.624272 -261.733383 
z
" id="me8cee50672" style="stroke:#364c6e;stroke-width:1.5;"/>
    </defs>
    <g>
     <use style="fill:#364c6e;stroke:#364c6e;stroke-width:1.5;" x="0" xlink:href="#me8cee50672" y="311.267375"/>
    </g>
   </g>
   <g id="line2d_1">
    <path d="M 44.624272 49.533992 
L 46.479117 49.443139 
L 47.592024 49.207447 
L 49.446869 48.65818 
L 50.188807 48.688569 
L 51.301715 48.851605 
L 52.043653 48.681752 
L 52.785591 48.196064 
L 53.898498 47.038432 
L 55.011405 45.931925 
L 56.124312 44.945998 
L 56.866251 43.962829 
L 57.608189 42.515377 
L 58.721096 39.590296 
L 60.204972 35.311811 
L 60.94691 34.049749 
L 61.688848 33.189053 
L 62.059817 32.532167 
L 62.430787 31.559809 
L 63.172725 28.753051 
L 64.656601 22.711343 
L 65.398539 20.31405 
L 66.140477 18.545371 
L 67.624353 15.776484 
L 68.366292 13.450014 
L 69.10823 10.979063 
L 69.479199 10.062118 
L 69.850168 9.472759 
L 70.221137 9.216 
L 70.592106 9.258663 
L 70.963075 9.548786 
L 72.81792 11.784073 
L 73.559858 12.485856 
L 74.672766 13.931132 
L 75.043735 14.198838 
L 75.414704 14.278652 
L 76.156642 14.192156 
L 76.527611 14.281679 
L 76.89858 14.606604 
L 77.269549 15.201373 
L 79.124394 19.299919 
L 79.495363 19.725746 
L 79.866332 19.968239 
L 80.608271 20.068039 
L 81.350209 20.10663 
L 81.721178 20.277295 
L 82.463116 21.010857 
L 83.205054 22.057518 
L 83.946992 23.559359 
L 84.68893 26.198544 
L 86.172806 32.944287 
L 86.543776 33.94768 
L 86.914745 34.534213 
L 87.285714 34.79787 
L 88.027652 35.001273 
L 88.398621 35.261924 
L 88.76959 35.757877 
L 89.511528 37.388736 
L 90.624435 40.089634 
L 91.366373 41.165863 
L 92.108311 41.604303 
L 92.85025 41.949689 
L 93.592188 42.687223 
L 94.705095 44.032429 
L 95.447033 44.566447 
L 98.414786 46.268902 
L 99.898662 47.218985 
L 100.6406 47.458724 
L 102.495445 47.634241 
L 104.350291 48.397566 
L 106.947074 48.712557 
L 108.059981 48.70815 
L 109.543857 48.535941 
L 110.285796 48.683472 
L 112.140641 49.371868 
L 112.882579 49.381323 
L 115.108393 49.058678 
L 118.447115 49.532389 
L 118.447115 49.532389 
" style="fill:none;stroke:#ffffff;stroke-linecap:round;stroke-width:2;"/>
   </g>
   <g id="line2d_2">
    <path d="M 9.196404 49.536 
L 343.996404 49.536 
" style="fill:none;stroke:#364c6e;stroke-linecap:round;stroke-width:2;"/>
   </g>
   <g id="text_1">
    <!-- 0.05 -->
    <g style="fill:#364c6e;" transform="translate(260.296404 47.6913)scale(0.24 -0.24)">
     <defs>
      <path d="M 2944 2338 
Q 2944 3213 2780 3570 
Q 2616 3928 2228 3928 
Q 1841 3928 1675 3570 
Q 1509 3213 1509 2338 
Q 1509 1453 1675 1090 
Q 1841 728 2228 728 
Q 2613 728 2778 1090 
Q 2944 1453 2944 2338 
z
M 4147 2328 
Q 4147 1169 3647 539 
Q 3147 -91 2228 -91 
Q 1306 -91 806 539 
Q 306 1169 306 2328 
Q 306 3491 806 4120 
Q 1306 4750 2228 4750 
Q 3147 4750 3647 4120 
Q 4147 3491 4147 2328 
z
" id="DejaVuSans-Bold-30" transform="scale(0.015625)"/>
      <path d="M 653 1209 
L 1778 1209 
L 1778 0 
L 653 0 
L 653 1209 
z
" id="DejaVuSans-Bold-2e" transform="scale(0.015625)"/>
      <path d="M 678 4666 
L 3669 4666 
L 3669 3781 
L 1638 3781 
L 1638 3059 
Q 1775 3097 1914 3117 
Q 2053 3138 2203 3138 
Q 3056 3138 3531 2711 
Q 4006 2284 4006 1522 
Q 4006 766 3489 337 
Q 2972 -91 2053 -91 
Q 1656 -91 1267 -14 
Q 878 63 494 219 
L 494 1166 
Q 875 947 1217 837 
Q 1559 728 1863 728 
Q 2300 728 2551 942 
Q 2803 1156 2803 1522 
Q 2803 1891 2551 2103 
Q 2300 2316 1863 2316 
Q 1603 2316 1309 2248 
Q 1016 2181 678 2041 
L 678 4666 
z
" id="DejaVuSans-Bold-35" transform="scale(0.015625)"/>
     </defs>
     <use xlink:href="#DejaVuSans-Bold-30"/>
     <use x="69.580078" xlink:href="#DejaVuSans-Bold-2e"/>
     <use x="107.568359" xlink:href="#DejaVuSans-Bold-30"/>
     <use x="177.148438" xlink:href="#DejaVuSans-Bold-35"/>
    </g>
   </g>
  </g>
  <g id="axes_2">
   <g id="patch_3">
    <path d="M 9.196404 81.288 
L 343.996404 81.288 
L 343.996404 38.952 
L 9.196404 38.952 
z
" style="fill:none;"/>
   </g>
   <g id="matplotlib.axis_3">
    <g id="xtick_5"/>
    <g id="xtick_6"/>
    <g id="xtick_7"/>
    <g id="xtick_8"/>
   </g>
   <g id="matplotlib.axis_4"/>
   <g id="PolyCollection_2">
    <defs>
     <path d="M 42.533018 -229.98074 
L 42.533018 -229.979375 
L 43.071891 -229.979375 
L 43.610764 -229.979375 
L 44.149637 -229.979375 
L 44.68851 -229.979375 
L 45.227383 -229.979375 
L 45.766256 -229.979375 
L 46.305129 -229.979375 
L 46.844003 -229.979375 
L 47.382876 -229.979375 
L 47.921749 -229.979375 
L 48.460622 -229.979375 
L 48.999495 -229.979375 
L 49.538368 -229.979375 
L 50.077241 -229.979375 
L 50.616114 -229.979375 
L 51.154987 -229.979375 
L 51.69386 -229.979375 
L 52.232733 -229.979375 
L 52.771606 -229.979375 
L 53.310479 -229.979375 
L 53.849352 -229.979375 
L 54.388225 -229.979375 
L 54.927098 -229.979375 
L 55.465971 -229.979375 
L 56.004844 -229.979375 
L 56.543718 -229.979375 
L 57.082591 -229.979375 
L 57.621464 -229.979375 
L 58.160337 -229.979375 
L 58.69921 -229.979375 
L 59.238083 -229.979375 
L 59.776956 -229.979375 
L 60.315829 -229.979375 
L 60.854702 -229.979375 
L 61.393575 -229.979375 
L 61.932448 -229.979375 
L 62.471321 -229.979375 
L 63.010194 -229.979375 
L 63.549067 -229.979375 
L 64.08794 -229.979375 
L 64.626813 -229.979375 
L 65.165686 -229.979375 
L 65.704559 -229.979375 
L 66.243432 -229.979375 
L 66.782306 -229.979375 
L 67.321179 -229.979375 
L 67.860052 -229.979375 
L 68.398925 -229.979375 
L 68.937798 -229.979375 
L 69.476671 -229.979375 
L 70.015544 -229.979375 
L 70.554417 -229.979375 
L 71.09329 -229.979375 
L 71.632163 -229.979375 
L 72.171036 -229.979375 
L 72.709909 -229.979375 
L 73.248782 -229.979375 
L 73.787655 -229.979375 
L 74.326528 -229.979375 
L 74.865401 -229.979375 
L 75.404274 -229.979375 
L 75.943147 -229.979375 
L 76.482021 -229.979375 
L 77.020894 -229.979375 
L 77.559767 -229.979375 
L 78.09864 -229.979375 
L 78.637513 -229.979375 
L 79.176386 -229.979375 
L 79.715259 -229.979375 
L 80.254132 -229.979375 
L 80.793005 -229.979375 
L 81.331878 -229.979375 
L 81.870751 -229.979375 
L 82.409624 -229.979375 
L 82.948497 -229.979375 
L 83.48737 -229.979375 
L 84.026243 -229.979375 
L 84.565116 -229.979375 
L 85.103989 -229.979375 
L 85.642862 -229.979375 
L 86.181736 -229.979375 
L 86.720609 -229.979375 
L 87.259482 -229.979375 
L 87.798355 -229.979375 
L 88.337228 -229.979375 
L 88.876101 -229.979375 
L 89.414974 -229.979375 
L 89.953847 -229.979375 
L 90.49272 -229.979375 
L 91.031593 -229.979375 
L 91.570466 -229.979375 
L 92.109339 -229.979375 
L 92.648212 -229.979375 
L 93.187085 -229.979375 
L 93.725958 -229.979375 
L 94.264831 -229.979375 
L 94.803704 -229.979375 
L 95.342577 -229.979375 
L 95.881451 -229.979375 
L 96.420324 -229.979375 
L 96.959197 -229.979375 
L 97.49807 -229.979375 
L 98.036943 -229.979375 
L 98.575816 -229.979375 
L 99.114689 -229.979375 
L 99.653562 -229.979375 
L 100.192435 -229.979375 
L 100.731308 -229.979375 
L 101.270181 -229.979375 
L 101.809054 -229.979375 
L 102.347927 -229.979375 
L 102.8868 -229.979375 
L 103.425673 -229.979375 
L 103.964546 -229.979375 
L 104.503419 -229.979375 
L 105.042292 -229.979375 
L 105.581166 -229.979375 
L 106.120039 -229.979375 
L 106.658912 -229.979375 
L 107.197785 -229.979375 
L 107.736658 -229.979375 
L 108.275531 -229.979375 
L 108.814404 -229.979375 
L 109.353277 -229.979375 
L 109.89215 -229.979375 
L 110.431023 -229.979375 
L 110.969896 -229.979375 
L 111.508769 -229.979375 
L 112.047642 -229.979375 
L 112.586515 -229.979375 
L 113.125388 -229.979375 
L 113.664261 -229.979375 
L 114.203134 -229.979375 
L 114.742007 -229.979375 
L 115.280881 -229.979375 
L 115.819754 -229.979375 
L 116.358627 -229.979375 
L 116.8975 -229.979375 
L 117.436373 -229.979375 
L 117.975246 -229.979375 
L 118.514119 -229.979375 
L 119.052992 -229.979375 
L 119.591865 -229.979375 
L 120.130738 -229.979375 
L 120.669611 -229.979375 
L 121.208484 -229.979375 
L 121.747357 -229.979375 
L 122.28623 -229.979375 
L 122.825103 -229.979375 
L 123.363976 -229.979375 
L 123.902849 -229.979375 
L 124.441722 -229.979375 
L 124.980595 -229.979375 
L 125.519469 -229.979375 
L 126.058342 -229.979375 
L 126.597215 -229.979375 
L 127.136088 -229.979375 
L 127.674961 -229.979375 
L 128.213834 -229.979375 
L 128.752707 -229.979375 
L 129.29158 -229.979375 
L 129.830453 -229.979375 
L 130.369326 -229.979375 
L 130.908199 -229.979375 
L 131.447072 -229.979375 
L 131.985945 -229.979375 
L 132.524818 -229.979375 
L 133.063691 -229.979375 
L 133.602564 -229.979375 
L 134.141437 -229.979375 
L 134.68031 -229.979375 
L 135.219184 -229.979375 
L 135.758057 -229.979375 
L 136.29693 -229.979375 
L 136.835803 -229.979375 
L 137.374676 -229.979375 
L 137.913549 -229.979375 
L 138.452422 -229.979375 
L 138.991295 -229.979375 
L 139.530168 -229.979375 
L 140.069041 -229.979375 
L 140.607914 -229.979375 
L 141.146787 -229.979375 
L 141.68566 -229.979375 
L 142.224533 -229.979375 
L 142.763406 -229.979375 
L 143.302279 -229.979375 
L 143.841152 -229.979375 
L 144.380025 -229.979375 
L 144.918899 -229.979375 
L 145.457772 -229.979375 
L 145.996645 -229.979375 
L 146.535518 -229.979375 
L 147.074391 -229.979375 
L 147.613264 -229.979375 
L 148.152137 -229.979375 
L 148.69101 -229.979375 
L 149.229883 -229.979375 
L 149.768756 -229.979375 
L 149.768756 -229.980725 
L 149.768756 -229.980725 
L 149.229883 -229.982929 
L 148.69101 -229.987698 
L 148.152137 -229.996713 
L 147.613264 -230.011501 
L 147.074391 -230.032325 
L 146.535518 -230.057008 
L 145.996645 -230.08064 
L 145.457772 -230.096952 
L 144.918899 -230.10108 
L 144.380025 -230.092225 
L 143.841152 -230.074485 
L 143.302279 -230.055278 
L 142.763406 -230.042348 
L 142.224533 -230.040933 
L 141.68566 -230.052178 
L 141.146787 -230.073086 
L 140.607914 -230.097904 
L 140.069041 -230.120532 
L 139.530168 -230.136939 
L 138.991295 -230.146126 
L 138.452422 -230.148995 
L 137.913549 -230.146204 
L 137.374676 -230.137067 
L 136.835803 -230.120576 
L 136.29693 -230.09752 
L 135.758057 -230.07167 
L 135.219184 -230.049001 
L 134.68031 -230.035667 
L 134.141437 -230.036127 
L 133.602564 -230.052215 
L 133.063691 -230.083105 
L 132.524818 -230.125877 
L 131.985945 -230.176515 
L 131.447072 -230.231003 
L 130.908199 -230.286044 
L 130.369326 -230.339178 
L 129.830453 -230.388706 
L 129.29158 -230.434002 
L 128.752707 -230.47623 
L 128.213834 -230.518807 
L 127.674961 -230.566786 
L 127.136088 -230.624839 
L 126.597215 -230.694229 
L 126.058342 -230.77014 
L 125.519469 -230.84148 
L 124.980595 -230.894601 
L 124.441722 -230.919876 
L 123.902849 -230.917173 
L 123.363976 -230.896086 
L 122.825103 -230.870542 
L 122.28623 -230.852221 
L 121.747357 -230.848361 
L 121.208484 -230.865207 
L 120.669611 -230.912739 
L 120.130738 -231.005037 
L 119.591865 -231.154762 
L 119.052992 -231.365016 
L 118.514119 -231.623061 
L 117.975246 -231.898888 
L 117.436373 -232.150434 
L 116.8975 -232.336017 
L 116.358627 -232.430878 
L 115.819754 -232.439995 
L 115.280881 -232.398883 
L 114.742007 -232.360753 
L 114.203134 -232.376868 
L 113.664261 -232.479806 
L 113.125388 -232.675222 
L 112.586515 -232.942463 
L 112.047642 -233.242879 
L 111.508769 -233.534789 
L 110.969896 -233.791215 
L 110.431023 -234.011907 
L 109.89215 -234.221488 
L 109.353277 -234.453979 
L 108.814404 -234.734246 
L 108.275531 -235.069096 
L 107.736658 -235.451972 
L 107.197785 -235.873525 
L 106.658912 -236.326791 
L 106.120039 -236.803013 
L 105.581166 -237.284441 
L 105.042292 -237.743549 
L 104.503419 -238.151667 
L 103.964546 -238.491329 
L 103.425673 -238.764176 
L 102.8868 -238.991216 
L 102.347927 -239.208148 
L 101.809054 -239.459022 
L 101.270181 -239.787362 
L 100.731308 -240.221949 
L 100.192435 -240.759605 
L 99.653562 -241.355313 
L 99.114689 -241.931231 
L 98.575816 -242.406055 
L 98.036943 -242.732161 
L 97.49807 -242.921493 
L 96.959197 -243.046749 
L 96.420324 -243.216067 
L 95.881451 -243.530137 
L 95.342577 -244.037945 
L 94.803704 -244.710993 
L 94.264831 -245.452298 
L 93.725958 -246.141562 
L 93.187085 -246.696146 
L 92.648212 -247.113832 
L 92.109339 -247.471798 
L 91.570466 -247.883243 
L 91.031593 -248.437936 
L 90.49272 -249.158071 
L 89.953847 -249.987661 
L 89.414974 -250.816657 
L 88.876101 -251.528743 
L 88.337228 -252.053196 
L 87.798355 -252.397069 
L 87.259482 -252.640704 
L 86.720609 -252.898915 
L 86.181736 -253.270006 
L 85.642862 -253.7995 
L 85.103989 -254.472007 
L 84.565116 -255.225602 
L 84.026243 -255.973096 
L 83.48737 -256.619345 
L 82.948497 -257.076333 
L 82.409624 -257.284358 
L 81.870751 -257.239353 
L 81.331878 -257.009738 
L 80.793005 -256.72106 
L 80.254132 -256.504427 
L 79.715259 -256.433197 
L 79.176386 -256.485941 
L 78.637513 -256.559825 
L 78.09864 -256.52855 
L 77.559767 -256.313983 
L 77.020894 -255.933466 
L 76.482021 -255.496524 
L 75.943147 -255.149864 
L 75.404274 -254.998432 
L 74.865401 -255.047035 
L 74.326528 -255.197207 
L 73.787655 -255.299365 
L 73.248782 -255.224464 
L 72.709909 -254.910271 
L 72.171036 -254.362074 
L 71.632163 -253.623478 
L 71.09329 -252.749356 
L 70.554417 -251.799315 
L 70.015544 -250.843961 
L 69.476671 -249.96395 
L 68.937798 -249.232245 
L 68.398925 -248.689193 
L 67.860052 -248.32832 
L 67.321179 -248.102193 
L 66.782306 -247.94272 
L 66.243432 -247.782437 
L 65.704559 -247.566895 
L 65.165686 -247.256786 
L 64.626813 -246.824252 
L 64.08794 -246.248887 
L 63.549067 -245.517781 
L 63.010194 -244.631624 
L 62.471321 -243.614331 
L 61.932448 -242.518275 
L 61.393575 -241.416806 
L 60.854702 -240.383395 
L 60.315829 -239.46707 
L 59.776956 -238.677304 
L 59.238083 -237.985579 
L 58.69921 -237.342214 
L 58.160337 -236.701717 
L 57.621464 -236.046718 
L 57.082591 -235.398502 
L 56.543718 -234.806106 
L 56.004844 -234.318405 
L 55.465971 -233.956076 
L 54.927098 -233.700139 
L 54.388225 -233.500877 
L 53.849352 -233.298166 
L 53.310479 -233.041945 
L 52.771606 -232.706829 
L 52.232733 -232.298767 
L 51.69386 -231.851972 
L 51.154987 -231.415707 
L 50.616114 -231.03559 
L 50.077241 -230.738399 
L 49.538368 -230.527399 
L 48.999495 -230.388116 
L 48.460622 -230.298591 
L 47.921749 -230.237927 
L 47.382876 -230.190719 
L 46.844003 -230.148188 
L 46.305129 -230.107473 
L 45.766256 -230.06976 
L 45.227383 -230.037791 
L 44.68851 -230.013605 
L 44.149637 -229.997438 
L 43.610764 -229.987921 
L 43.071891 -229.98299 
L 42.533018 -229.98074 
z
" id="m48e9a41d36" style="stroke:#426082;stroke-width:1.5;"/>
    </defs>
    <g>
     <use style="fill:#426082;stroke:#426082;stroke-width:1.5;" x="0" xlink:href="#m48e9a41d36" y="311.267375"/>
    </g>
   </g>
   <g id="line2d_3">
    <path d="M 42.533018 81.286635 
L 46.305129 81.159902 
L 48.999495 80.879259 
L 50.077241 80.528976 
L 51.154987 79.851668 
L 53.310479 78.22543 
L 56.004844 76.94897 
L 57.082591 75.868873 
L 59.776956 72.590071 
L 60.854702 70.88398 
L 63.549067 65.749594 
L 64.626813 64.443123 
L 65.704559 63.70048 
L 68.398925 62.578182 
L 68.937798 62.03513 
L 70.015544 60.423414 
L 71.632163 57.643897 
L 72.171036 56.905301 
L 72.709909 56.357104 
L 73.248782 56.042911 
L 73.787655 55.96801 
L 75.404274 56.268943 
L 75.943147 56.117511 
L 78.09864 54.738825 
L 79.176386 54.781434 
L 79.715259 54.834178 
L 80.254132 54.762948 
L 82.409624 53.983017 
L 82.948497 54.191042 
L 83.48737 54.64803 
L 84.565116 56.041773 
L 85.642862 57.467875 
L 86.181736 57.997369 
L 87.259482 58.626671 
L 88.337228 59.214179 
L 88.876101 59.738632 
L 89.953847 61.279714 
L 91.031593 62.829439 
L 92.109339 63.795577 
L 93.187085 64.571229 
L 94.264831 65.815077 
L 95.342577 67.22943 
L 95.881451 67.737238 
L 96.420324 68.051308 
L 98.036943 68.535214 
L 98.575816 68.86132 
L 99.653562 69.912062 
L 100.731308 71.045426 
L 101.809054 71.808353 
L 104.503419 73.115708 
L 106.120039 74.464362 
L 107.736658 75.815403 
L 108.814404 76.533129 
L 110.431023 77.255468 
L 112.047642 78.024496 
L 113.125388 78.592153 
L 114.203134 78.890507 
L 115.280881 78.868492 
L 116.358627 78.836497 
L 117.436373 79.116941 
L 120.130738 80.262338 
L 121.208484 80.402168 
L 123.363976 80.371289 
L 124.980595 80.372774 
L 134.68031 81.231708 
L 140.607914 81.169471 
L 143.302279 81.212097 
L 145.996645 81.186735 
L 149.768756 81.28665 
L 149.768756 81.28665 
" style="fill:none;stroke:#ffffff;stroke-linecap:round;stroke-width:2;"/>
   </g>
   <g id="line2d_4">
    <path d="M 9.196404 81.288 
L 343.996404 81.288 
" style="fill:none;stroke:#426082;stroke-linecap:round;stroke-width:2;"/>
   </g>
   <g id="text_2">
    <!-- 0.1 -->
    <g style="fill:#426082;" transform="translate(260.296404 79.4433)scale(0.24 -0.24)">
     <defs>
      <path d="M 750 831 
L 1813 831 
L 1813 3847 
L 722 3622 
L 722 4441 
L 1806 4666 
L 2950 4666 
L 2950 831 
L 4013 831 
L 4013 0 
L 750 0 
L 750 831 
z
" id="DejaVuSans-Bold-31" transform="scale(0.015625)"/>
     </defs>
     <use xlink:href="#DejaVuSans-Bold-30"/>
     <use x="69.580078" xlink:href="#DejaVuSans-Bold-2e"/>
     <use x="107.568359" xlink:href="#DejaVuSans-Bold-31"/>
    </g>
   </g>
  </g>
  <g id="axes_3">
   <g id="patch_4">
    <path d="M 9.196404 113.04 
L 343.996404 113.04 
L 343.996404 70.704 
L 9.196404 70.704 
z
" style="fill:none;"/>
   </g>
   <g id="matplotlib.axis_5">
    <g id="xtick_9"/>
    <g id="xtick_10"/>
    <g id="xtick_11"/>
    <g id="xtick_12"/>
   </g>
   <g id="matplotlib.axis_6"/>
   <g id="PolyCollection_3">
    <defs>
     <path d="M 38.321879 -198.229109 
L 38.321879 -198.227375 
L 39.013194 -198.227375 
L 39.70451 -198.227375 
L 40.395826 -198.227375 
L 41.087141 -198.227375 
L 41.778457 -198.227375 
L 42.469773 -198.227375 
L 43.161088 -198.227375 
L 43.852404 -198.227375 
L 44.54372 -198.227375 
L 45.235035 -198.227375 
L 45.926351 -198.227375 
L 46.617666 -198.227375 
L 47.308982 -198.227375 
L 48.000298 -198.227375 
L 48.691613 -198.227375 
L 49.382929 -198.227375 
L 50.074245 -198.227375 
L 50.76556 -198.227375 
L 51.456876 -198.227375 
L 52.148192 -198.227375 
L 52.839507 -198.227375 
L 53.530823 -198.227375 
L 54.222139 -198.227375 
L 54.913454 -198.227375 
L 55.60477 -198.227375 
L 56.296085 -198.227375 
L 56.987401 -198.227375 
L 57.678717 -198.227375 
L 58.370032 -198.227375 
L 59.061348 -198.227375 
L 59.752664 -198.227375 
L 60.443979 -198.227375 
L 61.135295 -198.227375 
L 61.826611 -198.227375 
L 62.517926 -198.227375 
L 63.209242 -198.227375 
L 63.900558 -198.227375 
L 64.591873 -198.227375 
L 65.283189 -198.227375 
L 65.974504 -198.227375 
L 66.66582 -198.227375 
L 67.357136 -198.227375 
L 68.048451 -198.227375 
L 68.739767 -198.227375 
L 69.431083 -198.227375 
L 70.122398 -198.227375 
L 70.813714 -198.227375 
L 71.50503 -198.227375 
L 72.196345 -198.227375 
L 72.887661 -198.227375 
L 73.578977 -198.227375 
L 74.270292 -198.227375 
L 74.961608 -198.227375 
L 75.652923 -198.227375 
L 76.344239 -198.227375 
L 77.035555 -198.227375 
L 77.72687 -198.227375 
L 78.418186 -198.227375 
L 79.109502 -198.227375 
L 79.800817 -198.227375 
L 80.492133 -198.227375 
L 81.183449 -198.227375 
L 81.874764 -198.227375 
L 82.56608 -198.227375 
L 83.257396 -198.227375 
L 83.948711 -198.227375 
L 84.640027 -198.227375 
L 85.331342 -198.227375 
L 86.022658 -198.227375 
L 86.713974 -198.227375 
L 87.405289 -198.227375 
L 88.096605 -198.227375 
L 88.787921 -198.227375 
L 89.479236 -198.227375 
L 90.170552 -198.227375 
L 90.861868 -198.227375 
L 91.553183 -198.227375 
L 92.244499 -198.227375 
L 92.935815 -198.227375 
L 93.62713 -198.227375 
L 94.318446 -198.227375 
L 95.009762 -198.227375 
L 95.701077 -198.227375 
L 96.392393 -198.227375 
L 97.083708 -198.227375 
L 97.775024 -198.227375 
L 98.46634 -198.227375 
L 99.157655 -198.227375 
L 99.848971 -198.227375 
L 100.540287 -198.227375 
L 101.231602 -198.227375 
L 101.922918 -198.227375 
L 102.614234 -198.227375 
L 103.305549 -198.227375 
L 103.996865 -198.227375 
L 104.688181 -198.227375 
L 105.379496 -198.227375 
L 106.070812 -198.227375 
L 106.762127 -198.227375 
L 107.453443 -198.227375 
L 108.144759 -198.227375 
L 108.836074 -198.227375 
L 109.52739 -198.227375 
L 110.218706 -198.227375 
L 110.910021 -198.227375 
L 111.601337 -198.227375 
L 112.292653 -198.227375 
L 112.983968 -198.227375 
L 113.675284 -198.227375 
L 114.3666 -198.227375 
L 115.057915 -198.227375 
L 115.749231 -198.227375 
L 116.440546 -198.227375 
L 117.131862 -198.227375 
L 117.823178 -198.227375 
L 118.514493 -198.227375 
L 119.205809 -198.227375 
L 119.897125 -198.227375 
L 120.58844 -198.227375 
L 121.279756 -198.227375 
L 121.971072 -198.227375 
L 122.662387 -198.227375 
L 123.353703 -198.227375 
L 124.045019 -198.227375 
L 124.736334 -198.227375 
L 125.42765 -198.227375 
L 126.118965 -198.227375 
L 126.810281 -198.227375 
L 127.501597 -198.227375 
L 128.192912 -198.227375 
L 128.884228 -198.227375 
L 129.575544 -198.227375 
L 130.266859 -198.227375 
L 130.958175 -198.227375 
L 131.649491 -198.227375 
L 132.340806 -198.227375 
L 133.032122 -198.227375 
L 133.723438 -198.227375 
L 134.414753 -198.227375 
L 135.106069 -198.227375 
L 135.797384 -198.227375 
L 136.4887 -198.227375 
L 137.180016 -198.227375 
L 137.871331 -198.227375 
L 138.562647 -198.227375 
L 139.253963 -198.227375 
L 139.945278 -198.227375 
L 140.636594 -198.227375 
L 141.32791 -198.227375 
L 142.019225 -198.227375 
L 142.710541 -198.227375 
L 143.401857 -198.227375 
L 144.093172 -198.227375 
L 144.784488 -198.227375 
L 145.475803 -198.227375 
L 146.167119 -198.227375 
L 146.858435 -198.227375 
L 147.54975 -198.227375 
L 148.241066 -198.227375 
L 148.932382 -198.227375 
L 149.623697 -198.227375 
L 150.315013 -198.227375 
L 151.006329 -198.227375 
L 151.697644 -198.227375 
L 152.38896 -198.227375 
L 153.080276 -198.227375 
L 153.771591 -198.227375 
L 154.462907 -198.227375 
L 155.154222 -198.227375 
L 155.845538 -198.227375 
L 156.536854 -198.227375 
L 157.228169 -198.227375 
L 157.919485 -198.227375 
L 158.610801 -198.227375 
L 159.302116 -198.227375 
L 159.993432 -198.227375 
L 160.684748 -198.227375 
L 161.376063 -198.227375 
L 162.067379 -198.227375 
L 162.758695 -198.227375 
L 163.45001 -198.227375 
L 164.141326 -198.227375 
L 164.832641 -198.227375 
L 165.523957 -198.227375 
L 166.215273 -198.227375 
L 166.906588 -198.227375 
L 167.597904 -198.227375 
L 168.28922 -198.227375 
L 168.980535 -198.227375 
L 169.671851 -198.227375 
L 170.363167 -198.227375 
L 171.054482 -198.227375 
L 171.745798 -198.227375 
L 172.437114 -198.227375 
L 173.128429 -198.227375 
L 173.819745 -198.227375 
L 174.51106 -198.227375 
L 175.202376 -198.227375 
L 175.893692 -198.227375 
L 175.893692 -198.228455 
L 175.893692 -198.228455 
L 175.202376 -198.230287 
L 174.51106 -198.234318 
L 173.819745 -198.242004 
L 173.128429 -198.254623 
L 172.437114 -198.272235 
L 171.745798 -198.292662 
L 171.054482 -198.311377 
L 170.363167 -198.322972 
L 169.671851 -198.323748 
L 168.980535 -198.313877 
L 168.28922 -198.297652 
L 167.597904 -198.281661 
L 166.906588 -198.272072 
L 166.215273 -198.272441 
L 165.523957 -198.282636 
L 164.832641 -198.298882 
L 164.141326 -198.314935 
L 163.45001 -198.324391 
L 162.758695 -198.323486 
L 162.067379 -198.312957 
L 161.376063 -198.29777 
L 160.684748 -198.284819 
L 159.993432 -198.279897 
L 159.302116 -198.285418 
L 158.610801 -198.299697 
L 157.919485 -198.317938 
L 157.228169 -198.334584 
L 156.536854 -198.34597 
L 155.845538 -198.351663 
L 155.154222 -198.353476 
L 154.462907 -198.35293 
L 153.771591 -198.349432 
L 153.080276 -198.340814 
L 152.38896 -198.325668 
L 151.697644 -198.305252 
L 151.006329 -198.283381 
L 150.315013 -198.264717 
L 149.623697 -198.253156 
L 148.932382 -198.25147 
L 148.241066 -198.26191 
L 147.54975 -198.28653 
L 146.858435 -198.326299 
L 146.167119 -198.379307 
L 145.475803 -198.439673 
L 144.784488 -198.498995 
L 144.093172 -198.550808 
L 143.401857 -198.595902 
L 142.710541 -198.644507 
L 142.019225 -198.71229 
L 141.32791 -198.811027 
L 140.636594 -198.939124 
L 139.945278 -199.078468 
L 139.253963 -199.200892 
L 138.562647 -199.281575 
L 137.871331 -199.311926 
L 137.180016 -199.304161 
L 136.4887 -199.284625 
L 135.797384 -199.279971 
L 135.106069 -199.304646 
L 134.414753 -199.356706 
L 133.723438 -199.422968 
L 133.032122 -199.488635 
L 132.340806 -199.544932 
L 131.649491 -199.591463 
L 130.958175 -199.634397 
L 130.266859 -199.68341 
L 129.575544 -199.74877 
L 128.884228 -199.837981 
L 128.192912 -199.952111 
L 127.501597 -200.084353 
L 126.810281 -200.223462 
L 126.118965 -200.360663 
L 125.42765 -200.494243 
L 124.736334 -200.627009 
L 124.045019 -200.758441 
L 123.353703 -200.879519 
L 122.662387 -200.977373 
L 121.971072 -201.048782 
L 121.279756 -201.112977 
L 120.58844 -201.212614 
L 119.897125 -201.39872 
L 119.205809 -201.705615 
L 118.514493 -202.128881 
L 117.823178 -202.619877 
L 117.131862 -203.103155 
L 116.440546 -203.510043 
L 115.749231 -203.809446 
L 115.057915 -204.016436 
L 114.3666 -204.174249 
L 113.675284 -204.32483 
L 112.983968 -204.489592 
L 112.292653 -204.670264 
L 111.601337 -204.861743 
L 110.910021 -205.061388 
L 110.218706 -205.267133 
L 109.52739 -205.470773 
L 108.836074 -205.658549 
L 108.144759 -205.8227 
L 107.453443 -205.973668 
L 106.762127 -206.139214 
L 106.070812 -206.349686 
L 105.379496 -206.624117 
L 104.688181 -206.971213 
L 103.996865 -207.402233 
L 103.305549 -207.938674 
L 102.614234 -208.602566 
L 101.922918 -209.394889 
L 101.231602 -210.27943 
L 100.540287 -211.185429 
L 99.848971 -212.029127 
L 99.157655 -212.742847 
L 98.46634 -213.29638 
L 97.775024 -213.699577 
L 97.083708 -213.985833 
L 96.392393 -214.188403 
L 95.701077 -214.326481 
L 95.009762 -214.40967 
L 94.318446 -214.453683 
L 93.62713 -214.491017 
L 92.935815 -214.566634 
L 92.244499 -214.723045 
L 91.553183 -214.986538 
L 90.861868 -215.361405 
L 90.170552 -215.830505 
L 89.479236 -216.357946 
L 88.787921 -216.892941 
L 88.096605 -217.377236 
L 87.405289 -217.758567 
L 86.713974 -218.008524 
L 86.022658 -218.136949 
L 85.331342 -218.192754 
L 84.640027 -218.248187 
L 83.948711 -218.374594 
L 83.257396 -218.620461 
L 82.56608 -218.995267 
L 81.874764 -219.458578 
L 81.183449 -219.920915 
L 80.492133 -220.26871 
L 79.800817 -220.412624 
L 79.109502 -220.333028 
L 78.418186 -220.087964 
L 77.72687 -219.774282 
L 77.035555 -219.470889 
L 76.344239 -219.206146 
L 75.652923 -218.967558 
L 74.961608 -218.736284 
L 74.270292 -218.514055 
L 73.578977 -218.323297 
L 72.887661 -218.185785 
L 72.196345 -218.100343 
L 71.50503 -218.037594 
L 70.813714 -217.954267 
L 70.122398 -217.814018 
L 69.431083 -217.598249 
L 68.739767 -217.301138 
L 68.048451 -216.917582 
L 67.357136 -216.437854 
L 66.66582 -215.854713 
L 65.974504 -215.176027 
L 65.283189 -214.430078 
L 64.591873 -213.655781 
L 63.900558 -212.881197 
L 63.209242 -212.102695 
L 62.517926 -211.279157 
L 61.826611 -210.349914 
L 61.135295 -209.272444 
L 60.443979 -208.060629 
L 59.752664 -206.7973 
L 59.061348 -205.606644 
L 58.370032 -204.599327 
L 57.678717 -203.825061 
L 56.987401 -203.26293 
L 56.296085 -202.850764 
L 55.60477 -202.526066 
L 54.913454 -202.24758 
L 54.222139 -201.989596 
L 53.530823 -201.726587 
L 52.839507 -201.429869 
L 52.148192 -201.080347 
L 51.456876 -200.683233 
L 50.76556 -200.269477 
L 50.074245 -199.882126 
L 49.382929 -199.557901 
L 48.691613 -199.315025 
L 48.000298 -199.151043 
L 47.308982 -199.047744 
L 46.617666 -198.978768 
L 45.926351 -198.917376 
L 45.235035 -198.843513 
L 44.54372 -198.748885 
L 43.852404 -198.638025 
L 43.161088 -198.52432 
L 42.469773 -198.422831 
L 41.778457 -198.34378 
L 41.087141 -198.289836 
L 40.395826 -198.25748 
L 39.70451 -198.240378 
L 39.013194 -198.232399 
L 38.321879 -198.229109 
z
" id="mfdd9ce58b6" style="stroke:#4e7493;stroke-width:1.5;"/>
    </defs>
    <g>
     <use style="fill:#4e7493;stroke:#4e7493;stroke-width:1.5;" x="0" xlink:href="#mfdd9ce58b6" y="311.267375"/>
    </g>
   </g>
   <g id="line2d_5">
    <path d="M 38.321879 113.038266 
L 41.778457 112.923595 
L 48.000298 112.116332 
L 49.382929 111.709474 
L 50.76556 110.997898 
L 52.839507 109.837506 
L 56.987401 108.004445 
L 57.678717 107.442314 
L 58.370032 106.668048 
L 59.752664 104.470075 
L 61.135295 101.994931 
L 62.517926 99.988218 
L 65.283189 96.837297 
L 66.66582 95.412662 
L 68.048451 94.349793 
L 69.431083 93.669126 
L 70.813714 93.313108 
L 73.578977 92.944078 
L 75.652923 92.299817 
L 77.72687 91.493093 
L 79.109502 90.934347 
L 79.800817 90.854751 
L 80.492133 90.998665 
L 81.874764 91.808797 
L 83.257396 92.646914 
L 83.948711 92.892781 
L 85.331342 93.074621 
L 86.713974 93.258851 
L 87.405289 93.508808 
L 88.787921 94.374434 
L 90.861868 95.90597 
L 92.244499 96.54433 
L 93.62713 96.776358 
L 95.701077 96.940894 
L 97.083708 97.281542 
L 98.46634 97.970995 
L 99.157655 98.524528 
L 100.540287 100.081946 
L 102.614234 102.664809 
L 103.996865 103.865142 
L 105.379496 104.643258 
L 106.762127 105.128161 
L 110.910021 106.205987 
L 114.3666 107.093126 
L 115.749231 107.457929 
L 117.131862 108.16422 
L 119.205809 109.56176 
L 120.58844 110.054761 
L 126.810281 111.043913 
L 129.575544 111.518605 
L 135.106069 111.962729 
L 139.945278 112.188907 
L 142.019225 112.555085 
L 146.858435 112.941076 
L 149.623697 113.014219 
L 158.610801 112.967678 
L 162.758695 112.943889 
L 175.202376 113.037088 
L 175.893692 113.03892 
L 175.893692 113.03892 
" style="fill:none;stroke:#ffffff;stroke-linecap:round;stroke-width:2;"/>
   </g>
   <g id="line2d_6">
    <path d="M 9.196404 113.04 
L 343.996404 113.04 
" style="fill:none;stroke:#4e7493;stroke-linecap:round;stroke-width:2;"/>
   </g>
   <g id="text_3">
    <!-- 0.15 -->
    <g style="fill:#4e7493;" transform="translate(260.296404 111.1953)scale(0.24 -0.24)">
     <use xlink:href="#DejaVuSans-Bold-30"/>
     <use x="69.580078" xlink:href="#DejaVuSans-Bold-2e"/>
     <use x="107.568359" xlink:href="#DejaVuSans-Bold-31"/>
     <use x="177.148438" xlink:href="#DejaVuSans-Bold-35"/>
    </g>
   </g>
  </g>
  <g id="axes_4">
   <g id="patch_5">
    <path d="M 9.196404 144.792 
L 343.996404 144.792 
L 343.996404 102.456 
L 9.196404 102.456 
z
" style="fill:none;"/>
   </g>
   <g id="matplotlib.axis_7">
    <g id="xtick_13"/>
    <g id="xtick_14"/>
    <g id="xtick_15"/>
    <g id="xtick_16"/>
   </g>
   <g id="matplotlib.axis_8"/>
   <g id="PolyCollection_4">
    <defs>
     <path d="M 30.040547 -166.476279 
L 30.040547 -166.475375 
L 30.929172 -166.475375 
L 31.817796 -166.475375 
L 32.70642 -166.475375 
L 33.595044 -166.475375 
L 34.483669 -166.475375 
L 35.372293 -166.475375 
L 36.260917 -166.475375 
L 37.149541 -166.475375 
L 38.038166 -166.475375 
L 38.92679 -166.475375 
L 39.815414 -166.475375 
L 40.704038 -166.475375 
L 41.592662 -166.475375 
L 42.481287 -166.475375 
L 43.369911 -166.475375 
L 44.258535 -166.475375 
L 45.147159 -166.475375 
L 46.035784 -166.475375 
L 46.924408 -166.475375 
L 47.813032 -166.475375 
L 48.701656 -166.475375 
L 49.590281 -166.475375 
L 50.478905 -166.475375 
L 51.367529 -166.475375 
L 52.256153 -166.475375 
L 53.144777 -166.475375 
L 54.033402 -166.475375 
L 54.922026 -166.475375 
L 55.81065 -166.475375 
L 56.699274 -166.475375 
L 57.587899 -166.475375 
L 58.476523 -166.475375 
L 59.365147 -166.475375 
L 60.253771 -166.475375 
L 61.142395 -166.475375 
L 62.03102 -166.475375 
L 62.919644 -166.475375 
L 63.808268 -166.475375 
L 64.696892 -166.475375 
L 65.585517 -166.475375 
L 66.474141 -166.475375 
L 67.362765 -166.475375 
L 68.251389 -166.475375 
L 69.140014 -166.475375 
L 70.028638 -166.475375 
L 70.917262 -166.475375 
L 71.805886 -166.475375 
L 72.69451 -166.475375 
L 73.583135 -166.475375 
L 74.471759 -166.475375 
L 75.360383 -166.475375 
L 76.249007 -166.475375 
L 77.137632 -166.475375 
L 78.026256 -166.475375 
L 78.91488 -166.475375 
L 79.803504 -166.475375 
L 80.692129 -166.475375 
L 81.580753 -166.475375 
L 82.469377 -166.475375 
L 83.358001 -166.475375 
L 84.246625 -166.475375 
L 85.13525 -166.475375 
L 86.023874 -166.475375 
L 86.912498 -166.475375 
L 87.801122 -166.475375 
L 88.689747 -166.475375 
L 89.578371 -166.475375 
L 90.466995 -166.475375 
L 91.355619 -166.475375 
L 92.244244 -166.475375 
L 93.132868 -166.475375 
L 94.021492 -166.475375 
L 94.910116 -166.475375 
L 95.79874 -166.475375 
L 96.687365 -166.475375 
L 97.575989 -166.475375 
L 98.464613 -166.475375 
L 99.353237 -166.475375 
L 100.241862 -166.475375 
L 101.130486 -166.475375 
L 102.01911 -166.475375 
L 102.907734 -166.475375 
L 103.796359 -166.475375 
L 104.684983 -166.475375 
L 105.573607 -166.475375 
L 106.462231 -166.475375 
L 107.350855 -166.475375 
L 108.23948 -166.475375 
L 109.128104 -166.475375 
L 110.016728 -166.475375 
L 110.905352 -166.475375 
L 111.793977 -166.475375 
L 112.682601 -166.475375 
L 113.571225 -166.475375 
L 114.459849 -166.475375 
L 115.348474 -166.475375 
L 116.237098 -166.475375 
L 117.125722 -166.475375 
L 118.014346 -166.475375 
L 118.90297 -166.475375 
L 119.791595 -166.475375 
L 120.680219 -166.475375 
L 121.568843 -166.475375 
L 122.457467 -166.475375 
L 123.346092 -166.475375 
L 124.234716 -166.475375 
L 125.12334 -166.475375 
L 126.011964 -166.475375 
L 126.900589 -166.475375 
L 127.789213 -166.475375 
L 128.677837 -166.475375 
L 129.566461 -166.475375 
L 130.455085 -166.475375 
L 131.34371 -166.475375 
L 132.232334 -166.475375 
L 133.120958 -166.475375 
L 134.009582 -166.475375 
L 134.898207 -166.475375 
L 135.786831 -166.475375 
L 136.675455 -166.475375 
L 137.564079 -166.475375 
L 138.452703 -166.475375 
L 139.341328 -166.475375 
L 140.229952 -166.475375 
L 141.118576 -166.475375 
L 142.0072 -166.475375 
L 142.895825 -166.475375 
L 143.784449 -166.475375 
L 144.673073 -166.475375 
L 145.561697 -166.475375 
L 146.450322 -166.475375 
L 147.338946 -166.475375 
L 148.22757 -166.475375 
L 149.116194 -166.475375 
L 150.004818 -166.475375 
L 150.893443 -166.475375 
L 151.782067 -166.475375 
L 152.670691 -166.475375 
L 153.559315 -166.475375 
L 154.44794 -166.475375 
L 155.336564 -166.475375 
L 156.225188 -166.475375 
L 157.113812 -166.475375 
L 158.002437 -166.475375 
L 158.891061 -166.475375 
L 159.779685 -166.475375 
L 160.668309 -166.475375 
L 161.556933 -166.475375 
L 162.445558 -166.475375 
L 163.334182 -166.475375 
L 164.222806 -166.475375 
L 165.11143 -166.475375 
L 166.000055 -166.475375 
L 166.888679 -166.475375 
L 167.777303 -166.475375 
L 168.665927 -166.475375 
L 169.554552 -166.475375 
L 170.443176 -166.475375 
L 171.3318 -166.475375 
L 172.220424 -166.475375 
L 173.109048 -166.475375 
L 173.997673 -166.475375 
L 174.886297 -166.475375 
L 175.774921 -166.475375 
L 176.663545 -166.475375 
L 177.55217 -166.475375 
L 178.440794 -166.475375 
L 179.329418 -166.475375 
L 180.218042 -166.475375 
L 181.106667 -166.475375 
L 181.995291 -166.475375 
L 182.883915 -166.475375 
L 183.772539 -166.475375 
L 184.661163 -166.475375 
L 185.549788 -166.475375 
L 186.438412 -166.475375 
L 187.327036 -166.475375 
L 188.21566 -166.475375 
L 189.104285 -166.475375 
L 189.992909 -166.475375 
L 190.881533 -166.475375 
L 191.770157 -166.475375 
L 192.658782 -166.475375 
L 193.547406 -166.475375 
L 194.43603 -166.475375 
L 195.324654 -166.475375 
L 196.213278 -166.475375 
L 197.101903 -166.475375 
L 197.990527 -166.475375 
L 198.879151 -166.475375 
L 199.767775 -166.475375 
L 200.6564 -166.475375 
L 201.545024 -166.475375 
L 202.433648 -166.475375 
L 203.322272 -166.475375 
L 204.210897 -166.475375 
L 205.099521 -166.475375 
L 205.988145 -166.475375 
L 206.876769 -166.475375 
L 206.876769 -166.476274 
L 206.876769 -166.476274 
L 205.988145 -166.477961 
L 205.099521 -166.481841 
L 204.210897 -166.48943 
L 203.322272 -166.501977 
L 202.433648 -166.519318 
L 201.545024 -166.539049 
L 200.6564 -166.557081 
L 199.767775 -166.569805 
L 198.879151 -166.576313 
L 197.990527 -166.578485 
L 197.101903 -166.578613 
L 196.213278 -166.576906 
L 195.324654 -166.571606 
L 194.43603 -166.561709 
L 193.547406 -166.549448 
L 192.658782 -166.539852 
L 191.770157 -166.537544 
L 190.881533 -166.543401 
L 189.992909 -166.553801 
L 189.104285 -166.563195 
L 188.21566 -166.568303 
L 187.327036 -166.570758 
L 186.438412 -166.575878 
L 185.549788 -166.58818 
L 184.661163 -166.606993 
L 183.772539 -166.625803 
L 182.883915 -166.636232 
L 181.995291 -166.633987 
L 181.106667 -166.622487 
L 180.218042 -166.611344 
L 179.329418 -166.61049 
L 178.440794 -166.623878 
L 177.55217 -166.647203 
L 176.663545 -166.671227 
L 175.774921 -166.687972 
L 174.886297 -166.694731 
L 173.997673 -166.693091 
L 173.109048 -166.685119 
L 172.220424 -166.671368 
L 171.3318 -166.652648 
L 170.443176 -166.632969 
L 169.554552 -166.619662 
L 168.665927 -166.619791 
L 167.777303 -166.635664 
L 166.888679 -166.662997 
L 166.000055 -166.692963 
L 165.11143 -166.716537 
L 164.222806 -166.728542 
L 163.334182 -166.729529 
L 162.445558 -166.725007 
L 161.556933 -166.722756 
L 160.668309 -166.729486 
L 159.779685 -166.748252 
L 158.891061 -166.777724 
L 158.002437 -166.813611 
L 157.113812 -166.851254 
L 156.225188 -166.887486 
L 155.336564 -166.92073 
L 154.44794 -166.950323 
L 153.559315 -166.976698 
L 152.670691 -167.002267 
L 151.782067 -167.031086 
L 150.893443 -167.066442 
L 150.004818 -167.108396 
L 149.116194 -167.154166 
L 148.22757 -167.201575 
L 147.338946 -167.252254 
L 146.450322 -167.310778 
L 145.561697 -167.379651 
L 144.673073 -167.45467 
L 143.784449 -167.526032 
L 142.895825 -167.585611 
L 142.0072 -167.634715 
L 141.118576 -167.685305 
L 140.229952 -167.752929 
L 139.341328 -167.846278 
L 138.452703 -167.960694 
L 137.564079 -168.079865 
L 136.675455 -168.184507 
L 135.786831 -168.263076 
L 134.898207 -168.318976 
L 134.009582 -168.370647 
L 133.120958 -168.444268 
L 132.232334 -168.562725 
L 131.34371 -168.736859 
L 130.455085 -168.963036 
L 129.566461 -169.226159 
L 128.677837 -169.504861 
L 127.789213 -169.777485 
L 126.900589 -170.028335 
L 126.011964 -170.250936 
L 125.12334 -170.444791 
L 124.234716 -170.608862 
L 123.346092 -170.740357 
L 122.457467 -170.841701 
L 121.568843 -170.927448 
L 120.680219 -171.021681 
L 119.791595 -171.147598 
L 118.90297 -171.319246 
L 118.014346 -171.539697 
L 117.125722 -171.800165 
L 116.237098 -172.077089 
L 115.348474 -172.33547 
L 114.459849 -172.54653 
L 113.571225 -172.711081 
L 112.682601 -172.867837 
L 111.793977 -173.076378 
L 110.905352 -173.386808 
L 110.016728 -173.818096 
L 109.128104 -174.356654 
L 108.23948 -174.968812 
L 107.350855 -175.612122 
L 106.462231 -176.237069 
L 105.573607 -176.786185 
L 104.684983 -177.205366 
L 103.796359 -177.470653 
L 102.907734 -177.612649 
L 102.01911 -177.714827 
L 101.130486 -177.880953 
L 100.241862 -178.190534 
L 99.353237 -178.666745 
L 98.464613 -179.269973 
L 97.575989 -179.917094 
L 96.687365 -180.51665 
L 95.79874 -181.002167 
L 94.910116 -181.347181 
L 94.021492 -181.561511 
L 93.132868 -181.684315 
L 92.244244 -181.784101 
L 91.355619 -181.953858 
L 90.466995 -182.282475 
L 89.578371 -182.808387 
L 88.689747 -183.490329 
L 87.801122 -184.223636 
L 86.912498 -184.890968 
L 86.023874 -185.407463 
L 85.13525 -185.733082 
L 84.246625 -185.862053 
L 83.358001 -185.81897 
L 82.469377 -185.672559 
L 81.580753 -185.542701 
L 80.692129 -185.566603 
L 79.803504 -185.824833 
L 78.91488 -186.276088 
L 78.026256 -186.757936 
L 77.137632 -187.063531 
L 76.249007 -187.044165 
L 75.360383 -186.671045 
L 74.471759 -186.027269 
L 73.583135 -185.252029 
L 72.69451 -184.479666 
L 71.805886 -183.800538 
L 70.917262 -183.246671 
L 70.028638 -182.796454 
L 69.140014 -182.395538 
L 68.251389 -181.987976 
L 67.362765 -181.541323 
L 66.474141 -181.049733 
L 65.585517 -180.517585 
L 64.696892 -179.943698 
L 63.808268 -179.321606 
L 62.919644 -178.65096 
L 62.03102 -177.943616 
L 61.142395 -177.216633 
L 60.253771 -176.47994 
L 59.365147 -175.731354 
L 58.476523 -174.963308 
L 57.587899 -174.175094 
L 56.699274 -173.381015 
L 55.81065 -172.608679 
L 54.922026 -171.888092 
L 54.033402 -171.237891 
L 53.144777 -170.657563 
L 52.256153 -170.131195 
L 51.367529 -169.640028 
L 50.478905 -169.174379 
L 49.590281 -168.736778 
L 48.701656 -168.336275 
L 47.813032 -167.980905 
L 46.924408 -167.674701 
L 46.035784 -167.41919 
L 45.147159 -167.214734 
L 44.258535 -167.059031 
L 43.369911 -166.944925 
L 42.481287 -166.861144 
L 41.592662 -166.796286 
L 40.704038 -166.742798 
L 39.815414 -166.697737 
L 38.92679 -166.660316 
L 38.038166 -166.629029 
L 37.149541 -166.601012 
L 36.260917 -166.573759 
L 35.372293 -166.546985 
L 34.483669 -166.522648 
L 33.595044 -166.503201 
L 32.70642 -166.489823 
L 31.817796 -166.48195 
L 30.929172 -166.477988 
L 30.040547 -166.476279 
z
" id="m4087bc2700" style="stroke:#5b89a2;stroke-width:1.5;"/>
    </defs>
    <g>
     <use style="fill:#5b89a2;stroke:#5b89a2;stroke-width:1.5;" x="0" xlink:href="#m4087bc2700" y="311.267375"/>
    </g>
   </g>
   <g id="line2d_7">
    <path d="M 30.040547 144.791096 
L 37.149541 144.666363 
L 42.481287 144.406231 
L 45.147159 144.052641 
L 46.924408 143.592674 
L 48.701656 142.9311 
L 51.367529 141.627347 
L 54.033402 140.029484 
L 55.81065 138.658696 
L 62.919644 132.616415 
L 64.696892 131.323677 
L 67.362765 129.726052 
L 71.805886 127.466837 
L 73.583135 126.015346 
L 75.360383 124.59633 
L 76.249007 124.22321 
L 77.137632 124.203844 
L 78.026256 124.509439 
L 79.803504 125.442542 
L 80.692129 125.700772 
L 81.580753 125.724674 
L 84.246625 125.405322 
L 85.13525 125.534293 
L 86.023874 125.859912 
L 86.912498 126.376407 
L 90.466995 128.9849 
L 91.355619 129.313517 
L 93.132868 129.58306 
L 94.910116 129.920194 
L 95.79874 130.265208 
L 97.575989 131.350281 
L 99.353237 132.60063 
L 100.241862 133.076841 
L 101.130486 133.386422 
L 104.684983 134.062009 
L 105.573607 134.48119 
L 107.350855 135.655253 
L 110.016728 137.449279 
L 111.793977 138.190997 
L 120.680219 140.245694 
L 125.12334 140.822584 
L 127.789213 141.48989 
L 131.34371 142.530516 
L 133.120958 142.823107 
L 150.893443 144.200933 
L 161.556933 144.544619 
L 167.777303 144.631711 
L 171.3318 144.614727 
L 176.663545 144.596148 
L 181.995291 144.633388 
L 189.992909 144.713574 
L 197.101903 144.688762 
L 206.876769 144.791101 
L 206.876769 144.791101 
" style="fill:none;stroke:#ffffff;stroke-linecap:round;stroke-width:2;"/>
   </g>
   <g id="line2d_8">
    <path d="M 9.196404 144.792 
L 343.996404 144.792 
" style="fill:none;stroke:#5b89a2;stroke-linecap:round;stroke-width:2;"/>
   </g>
   <g id="text_4">
    <!-- 0.2 -->
    <g style="fill:#5b89a2;" transform="translate(260.296404 142.9473)scale(0.24 -0.24)">
     <defs>
      <path d="M 1844 884 
L 3897 884 
L 3897 0 
L 506 0 
L 506 884 
L 2209 2388 
Q 2438 2594 2547 2791 
Q 2656 2988 2656 3200 
Q 2656 3528 2436 3728 
Q 2216 3928 1850 3928 
Q 1569 3928 1234 3808 
Q 900 3688 519 3450 
L 519 4475 
Q 925 4609 1322 4679 
Q 1719 4750 2100 4750 
Q 2938 4750 3402 4381 
Q 3866 4013 3866 3353 
Q 3866 2972 3669 2642 
Q 3472 2313 2841 1759 
L 1844 884 
z
" id="DejaVuSans-Bold-32" transform="scale(0.015625)"/>
     </defs>
     <use xlink:href="#DejaVuSans-Bold-30"/>
     <use x="69.580078" xlink:href="#DejaVuSans-Bold-2e"/>
     <use x="107.568359" xlink:href="#DejaVuSans-Bold-32"/>
    </g>
   </g>
  </g>
  <g id="axes_5">
   <g id="patch_6">
    <path d="M 9.196404 176.544 
L 343.996404 176.544 
L 343.996404 134.208 
L 9.196404 134.208 
z
" style="fill:none;"/>
   </g>
   <g id="matplotlib.axis_9">
    <g id="xtick_17"/>
    <g id="xtick_18"/>
    <g id="xtick_19"/>
    <g id="xtick_20"/>
   </g>
   <g id="matplotlib.axis_10"/>
   <g id="PolyCollection_5">
    <defs>
     <path d="M 30.328814 -134.725212 
L 30.328814 -134.723375 
L 31.199615 -134.723375 
L 32.070416 -134.723375 
L 32.941217 -134.723375 
L 33.812018 -134.723375 
L 34.68282 -134.723375 
L 35.553621 -134.723375 
L 36.424422 -134.723375 
L 37.295223 -134.723375 
L 38.166024 -134.723375 
L 39.036825 -134.723375 
L 39.907626 -134.723375 
L 40.778428 -134.723375 
L 41.649229 -134.723375 
L 42.52003 -134.723375 
L 43.390831 -134.723375 
L 44.261632 -134.723375 
L 45.132433 -134.723375 
L 46.003234 -134.723375 
L 46.874035 -134.723375 
L 47.744837 -134.723375 
L 48.615638 -134.723375 
L 49.486439 -134.723375 
L 50.35724 -134.723375 
L 51.228041 -134.723375 
L 52.098842 -134.723375 
L 52.969643 -134.723375 
L 53.840445 -134.723375 
L 54.711246 -134.723375 
L 55.582047 -134.723375 
L 56.452848 -134.723375 
L 57.323649 -134.723375 
L 58.19445 -134.723375 
L 59.065251 -134.723375 
L 59.936052 -134.723375 
L 60.806854 -134.723375 
L 61.677655 -134.723375 
L 62.548456 -134.723375 
L 63.419257 -134.723375 
L 64.290058 -134.723375 
L 65.160859 -134.723375 
L 66.03166 -134.723375 
L 66.902462 -134.723375 
L 67.773263 -134.723375 
L 68.644064 -134.723375 
L 69.514865 -134.723375 
L 70.385666 -134.723375 
L 71.256467 -134.723375 
L 72.127268 -134.723375 
L 72.998069 -134.723375 
L 73.868871 -134.723375 
L 74.739672 -134.723375 
L 75.610473 -134.723375 
L 76.481274 -134.723375 
L 77.352075 -134.723375 
L 78.222876 -134.723375 
L 79.093677 -134.723375 
L 79.964479 -134.723375 
L 80.83528 -134.723375 
L 81.706081 -134.723375 
L 82.576882 -134.723375 
L 83.447683 -134.723375 
L 84.318484 -134.723375 
L 85.189285 -134.723375 
L 86.060086 -134.723375 
L 86.930888 -134.723375 
L 87.801689 -134.723375 
L 88.67249 -134.723375 
L 89.543291 -134.723375 
L 90.414092 -134.723375 
L 91.284893 -134.723375 
L 92.155694 -134.723375 
L 93.026496 -134.723375 
L 93.897297 -134.723375 
L 94.768098 -134.723375 
L 95.638899 -134.723375 
L 96.5097 -134.723375 
L 97.380501 -134.723375 
L 98.251302 -134.723375 
L 99.122103 -134.723375 
L 99.992905 -134.723375 
L 100.863706 -134.723375 
L 101.734507 -134.723375 
L 102.605308 -134.723375 
L 103.476109 -134.723375 
L 104.34691 -134.723375 
L 105.217711 -134.723375 
L 106.088513 -134.723375 
L 106.959314 -134.723375 
L 107.830115 -134.723375 
L 108.700916 -134.723375 
L 109.571717 -134.723375 
L 110.442518 -134.723375 
L 111.313319 -134.723375 
L 112.18412 -134.723375 
L 113.054922 -134.723375 
L 113.925723 -134.723375 
L 114.796524 -134.723375 
L 115.667325 -134.723375 
L 116.538126 -134.723375 
L 117.408927 -134.723375 
L 118.279728 -134.723375 
L 119.15053 -134.723375 
L 120.021331 -134.723375 
L 120.892132 -134.723375 
L 121.762933 -134.723375 
L 122.633734 -134.723375 
L 123.504535 -134.723375 
L 124.375336 -134.723375 
L 125.246137 -134.723375 
L 126.116939 -134.723375 
L 126.98774 -134.723375 
L 127.858541 -134.723375 
L 128.729342 -134.723375 
L 129.600143 -134.723375 
L 130.470944 -134.723375 
L 131.341745 -134.723375 
L 132.212547 -134.723375 
L 133.083348 -134.723375 
L 133.954149 -134.723375 
L 134.82495 -134.723375 
L 135.695751 -134.723375 
L 136.566552 -134.723375 
L 137.437353 -134.723375 
L 138.308154 -134.723375 
L 139.178956 -134.723375 
L 140.049757 -134.723375 
L 140.920558 -134.723375 
L 141.791359 -134.723375 
L 142.66216 -134.723375 
L 143.532961 -134.723375 
L 144.403762 -134.723375 
L 145.274564 -134.723375 
L 146.145365 -134.723375 
L 147.016166 -134.723375 
L 147.886967 -134.723375 
L 148.757768 -134.723375 
L 149.628569 -134.723375 
L 150.49937 -134.723375 
L 151.370171 -134.723375 
L 152.240973 -134.723375 
L 153.111774 -134.723375 
L 153.982575 -134.723375 
L 154.853376 -134.723375 
L 155.724177 -134.723375 
L 156.594978 -134.723375 
L 157.465779 -134.723375 
L 158.336581 -134.723375 
L 159.207382 -134.723375 
L 160.078183 -134.723375 
L 160.948984 -134.723375 
L 161.819785 -134.723375 
L 162.690586 -134.723375 
L 163.561387 -134.723375 
L 164.432188 -134.723375 
L 165.30299 -134.723375 
L 166.173791 -134.723375 
L 167.044592 -134.723375 
L 167.915393 -134.723375 
L 168.786194 -134.723375 
L 169.656995 -134.723375 
L 170.527796 -134.723375 
L 171.398598 -134.723375 
L 172.269399 -134.723375 
L 173.1402 -134.723375 
L 174.011001 -134.723375 
L 174.881802 -134.723375 
L 175.752603 -134.723375 
L 176.623404 -134.723375 
L 177.494206 -134.723375 
L 178.365007 -134.723375 
L 179.235808 -134.723375 
L 180.106609 -134.723375 
L 180.97741 -134.723375 
L 181.848211 -134.723375 
L 182.719012 -134.723375 
L 183.589813 -134.723375 
L 184.460615 -134.723375 
L 185.331416 -134.723375 
L 186.202217 -134.723375 
L 187.073018 -134.723375 
L 187.943819 -134.723375 
L 188.81462 -134.723375 
L 189.685421 -134.723375 
L 190.556223 -134.723375 
L 191.427024 -134.723375 
L 192.297825 -134.723375 
L 193.168626 -134.723375 
L 194.039427 -134.723375 
L 194.910228 -134.723375 
L 195.781029 -134.723375 
L 196.65183 -134.723375 
L 197.522632 -134.723375 
L 198.393433 -134.723375 
L 199.264234 -134.723375 
L 200.135035 -134.723375 
L 201.005836 -134.723375 
L 201.876637 -134.723375 
L 202.747438 -134.723375 
L 203.61824 -134.723375 
L 203.61824 -134.72433 
L 203.61824 -134.72433 
L 202.747438 -134.725931 
L 201.876637 -134.729506 
L 201.005836 -134.736571 
L 200.135035 -134.74887 
L 199.264234 -134.767625 
L 198.393433 -134.792405 
L 197.522632 -134.820222 
L 196.65183 -134.845628 
L 195.781029 -134.86228 
L 194.910228 -134.865482 
L 194.039427 -134.854355 
L 193.168626 -134.832348 
L 192.297825 -134.805785 
L 191.427024 -134.781409 
L 190.556223 -134.764317 
L 189.685421 -134.757071 
L 188.81462 -134.759826 
L 187.943819 -134.770915 
L 187.073018 -134.787547 
L 186.202217 -134.80676 
L 185.331416 -134.826579 
L 184.460615 -134.8468 
L 183.589813 -134.868542 
L 182.719012 -134.89244 
L 181.848211 -134.916605 
L 180.97741 -134.936111 
L 180.106609 -134.944962 
L 179.235808 -134.939638 
L 178.365007 -134.921972 
L 177.494206 -134.899264 
L 176.623404 -134.881249 
L 175.752603 -134.875492 
L 174.881802 -134.883771 
L 174.011001 -134.901368 
L 173.1402 -134.919542 
L 172.269399 -134.929789 
L 171.398598 -134.927794 
L 170.527796 -134.915372 
L 169.656995 -134.899804 
L 168.786194 -134.891041 
L 167.915393 -134.897902 
L 167.044592 -134.924667 
L 166.173791 -134.969378 
L 165.30299 -135.024619 
L 164.432188 -135.080527 
L 163.561387 -135.128721 
L 162.690586 -135.165392 
L 161.819785 -135.192239 
L 160.948984 -135.215063 
L 160.078183 -135.240962 
L 159.207382 -135.275587 
L 158.336581 -135.321429 
L 157.465779 -135.37719 
L 156.594978 -135.437872 
L 155.724177 -135.495744 
L 154.853376 -135.542849 
L 153.982575 -135.575008 
L 153.111774 -135.59553 
L 152.240973 -135.615761 
L 151.370171 -135.651055 
L 150.49937 -135.713896 
L 149.628569 -135.80829 
L 148.757768 -135.928891 
L 147.886967 -136.06489 
L 147.016166 -136.205374 
L 146.145365 -136.342384 
L 145.274564 -136.470594 
L 144.403762 -136.585524 
L 143.532961 -136.682564 
L 142.66216 -136.757155 
L 141.791359 -136.805165 
L 140.920558 -136.823564 
L 140.049757 -136.812616 
L 139.178956 -136.779433 
L 138.308154 -136.739778 
L 137.437353 -136.714717 
L 136.566552 -136.722667 
L 135.695751 -136.771984 
L 134.82495 -136.85959 
L 133.954149 -136.976492 
L 133.083348 -137.115811 
L 132.212547 -137.277476 
L 131.341745 -137.46672 
L 130.470944 -137.687933 
L 129.600143 -137.938032 
L 128.729342 -138.203454 
L 127.858541 -138.462889 
L 126.98774 -138.695184 
L 126.116939 -138.889085 
L 125.246137 -139.049667 
L 124.375336 -139.197183 
L 123.504535 -139.358413 
L 122.633734 -139.555874 
L 121.762933 -139.801863 
L 120.892132 -140.100003 
L 120.021331 -140.450191 
L 119.15053 -140.849918 
L 118.279728 -141.288973 
L 117.408927 -141.742062 
L 116.538126 -142.167895 
L 115.667325 -142.519536 
L 114.796524 -142.761874 
L 113.925723 -142.885552 
L 113.054922 -142.908423 
L 112.18412 -142.86439 
L 111.313319 -142.788093 
L 110.442518 -142.705793 
L 109.571717 -142.637247 
L 108.700916 -142.60489 
L 107.830115 -142.640887 
L 106.959314 -142.783157 
L 106.088513 -143.058789 
L 105.217711 -143.463786 
L 104.34691 -143.954202 
L 103.476109 -144.458829 
L 102.605308 -144.909146 
L 101.734507 -145.26931 
L 100.863706 -145.548856 
L 99.992905 -145.793022 
L 99.122103 -146.059108 
L 98.251302 -146.392085 
L 97.380501 -146.809304 
L 96.5097 -147.298558 
L 95.638899 -147.829188 
L 94.768098 -148.371007 
L 93.897297 -148.910666 
L 93.026496 -149.453829 
L 92.155694 -150.008587 
L 91.284893 -150.559266 
L 90.414092 -151.050897 
L 89.543291 -151.401892 
L 88.67249 -151.544055 
L 87.801689 -151.46689 
L 86.930888 -151.235499 
L 86.060086 -150.966722 
L 85.189285 -150.776568 
L 84.318484 -150.731853 
L 83.447683 -150.834856 
L 82.576882 -151.045018 
L 81.706081 -151.315953 
L 80.83528 -151.618946 
L 79.964479 -151.939659 
L 79.093677 -152.258453 
L 78.222876 -152.536682 
L 77.352075 -152.723167 
L 76.481274 -152.775791 
L 75.610473 -152.680714 
L 74.739672 -152.455903 
L 73.868871 -152.140638 
L 72.998069 -151.782582 
L 72.127268 -151.430323 
L 71.256467 -151.128335 
L 70.385666 -150.907024 
L 69.514865 -150.76833 
L 68.644064 -150.678038 
L 67.773263 -150.575501 
L 66.902462 -150.397645 
L 66.03166 -150.100565 
L 65.160859 -149.663918 
L 64.290058 -149.080209 
L 63.419257 -148.345669 
L 62.548456 -147.466199 
L 61.677655 -146.474215 
L 60.806854 -145.438018 
L 59.936052 -144.448796 
L 59.065251 -143.588043 
L 58.19445 -142.894437 
L 57.323649 -142.350663 
L 56.452848 -141.89727 
L 55.582047 -141.463439 
L 54.711246 -140.996074 
L 53.840445 -140.473388 
L 52.969643 -139.901553 
L 52.098842 -139.30283 
L 51.228041 -138.704623 
L 50.35724 -138.133132 
L 49.486439 -137.609809 
L 48.615638 -137.148192 
L 47.744837 -136.751576 
L 46.874035 -136.413898 
L 46.003234 -136.124775 
L 45.132433 -135.876255 
L 44.261632 -135.666866 
L 43.390831 -135.500048 
L 42.52003 -135.378145 
L 41.649229 -135.29651 
L 40.778428 -135.242109 
L 39.907626 -135.197581 
L 39.036825 -135.147956 
L 38.166024 -135.085957 
L 37.295223 -135.013255 
L 36.424422 -134.93774 
L 35.553621 -134.868842 
L 34.68282 -134.813455 
L 33.812018 -134.774063 
L 32.941217 -134.749205 
L 32.070416 -134.735262 
L 31.199615 -134.728303 
L 30.328814 -134.725212 
z
" id="m0c03b4d66b" style="stroke:#6b9daf;stroke-width:1.5;"/>
    </defs>
    <g>
     <use style="fill:#6b9daf;stroke:#6b9daf;stroke-width:1.5;" x="0" xlink:href="#m0c03b4d66b" y="311.267375"/>
    </g>
   </g>
   <g id="line2d_9">
    <path d="M 30.328814 176.542163 
L 34.68282 176.45392 
L 42.52003 175.88923 
L 44.261632 175.600509 
L 46.003234 175.1426 
L 47.744837 174.515799 
L 49.486439 173.657566 
L 52.098842 171.964545 
L 54.711246 170.271301 
L 58.19445 168.372938 
L 59.065251 167.679332 
L 60.806854 165.829357 
L 62.548456 163.801176 
L 64.290058 162.187166 
L 65.160859 161.603457 
L 66.03166 161.16681 
L 66.902462 160.86973 
L 68.644064 160.589337 
L 70.385666 160.360351 
L 72.127268 159.837052 
L 74.739672 158.811472 
L 75.610473 158.586661 
L 76.481274 158.491584 
L 77.352075 158.544208 
L 79.093677 159.008922 
L 82.576882 160.222357 
L 84.318484 160.535522 
L 85.189285 160.490807 
L 86.930888 160.031876 
L 87.801689 159.800485 
L 88.67249 159.72332 
L 89.543291 159.865483 
L 90.414092 160.216478 
L 93.026496 161.813546 
L 97.380501 164.458071 
L 99.122103 165.208267 
L 102.605308 166.358229 
L 106.088513 168.208586 
L 106.959314 168.484218 
L 108.700916 168.662485 
L 111.313319 168.479282 
L 113.054922 168.358952 
L 114.796524 168.505501 
L 116.538126 169.09948 
L 120.892132 171.167372 
L 122.633734 171.711501 
L 125.246137 172.217708 
L 127.858541 172.804486 
L 132.212547 173.989899 
L 134.82495 174.407785 
L 136.566552 174.544708 
L 139.178956 174.487942 
L 141.791359 174.46221 
L 144.403762 174.681851 
L 152.240973 175.651614 
L 156.594978 175.829503 
L 160.948984 176.052312 
L 166.173791 176.297997 
L 169.656995 176.367571 
L 174.881802 176.383604 
L 192.297825 176.46159 
L 196.65183 176.421747 
L 203.61824 176.543045 
L 203.61824 176.543045 
" style="fill:none;stroke:#ffffff;stroke-linecap:round;stroke-width:2;"/>
   </g>
   <g id="line2d_10">
    <path d="M 9.196404 176.544 
L 343.996404 176.544 
" style="fill:none;stroke:#6b9daf;stroke-linecap:round;stroke-width:2;"/>
   </g>
   <g id="text_5">
    <!-- 0.25 -->
    <g style="fill:#6b9daf;" transform="translate(260.296404 174.6993)scale(0.24 -0.24)">
     <use xlink:href="#DejaVuSans-Bold-30"/>
     <use x="69.580078" xlink:href="#DejaVuSans-Bold-2e"/>
     <use x="107.568359" xlink:href="#DejaVuSans-Bold-32"/>
     <use x="177.148438" xlink:href="#DejaVuSans-Bold-35"/>
    </g>
   </g>
  </g>
  <g id="axes_6">
   <g id="patch_7">
    <path d="M 9.196404 208.296 
L 343.996404 208.296 
L 343.996404 165.96 
L 9.196404 165.96 
z
" style="fill:none;"/>
   </g>
   <g id="matplotlib.axis_11">
    <g id="xtick_21"/>
    <g id="xtick_22"/>
    <g id="xtick_23"/>
    <g id="xtick_24"/>
   </g>
   <g id="matplotlib.axis_12"/>
   <g id="PolyCollection_6">
    <defs>
     <path d="M 27.578459 -102.97224 
L 27.578459 -102.971375 
L 28.766616 -102.971375 
L 29.954773 -102.971375 
L 31.14293 -102.971375 
L 32.331087 -102.971375 
L 33.519244 -102.971375 
L 34.707401 -102.971375 
L 35.895558 -102.971375 
L 37.083715 -102.971375 
L 38.271872 -102.971375 
L 39.460029 -102.971375 
L 40.648186 -102.971375 
L 41.836343 -102.971375 
L 43.024499 -102.971375 
L 44.212656 -102.971375 
L 45.400813 -102.971375 
L 46.58897 -102.971375 
L 47.777127 -102.971375 
L 48.965284 -102.971375 
L 50.153441 -102.971375 
L 51.341598 -102.971375 
L 52.529755 -102.971375 
L 53.717912 -102.971375 
L 54.906069 -102.971375 
L 56.094226 -102.971375 
L 57.282383 -102.971375 
L 58.47054 -102.971375 
L 59.658697 -102.971375 
L 60.846854 -102.971375 
L 62.035011 -102.971375 
L 63.223168 -102.971375 
L 64.411325 -102.971375 
L 65.599482 -102.971375 
L 66.787639 -102.971375 
L 67.975796 -102.971375 
L 69.163953 -102.971375 
L 70.35211 -102.971375 
L 71.540267 -102.971375 
L 72.728424 -102.971375 
L 73.916581 -102.971375 
L 75.104738 -102.971375 
L 76.292894 -102.971375 
L 77.481051 -102.971375 
L 78.669208 -102.971375 
L 79.857365 -102.971375 
L 81.045522 -102.971375 
L 82.233679 -102.971375 
L 83.421836 -102.971375 
L 84.609993 -102.971375 
L 85.79815 -102.971375 
L 86.986307 -102.971375 
L 88.174464 -102.971375 
L 89.362621 -102.971375 
L 90.550778 -102.971375 
L 91.738935 -102.971375 
L 92.927092 -102.971375 
L 94.115249 -102.971375 
L 95.303406 -102.971375 
L 96.491563 -102.971375 
L 97.67972 -102.971375 
L 98.867877 -102.971375 
L 100.056034 -102.971375 
L 101.244191 -102.971375 
L 102.432348 -102.971375 
L 103.620505 -102.971375 
L 104.808662 -102.971375 
L 105.996819 -102.971375 
L 107.184976 -102.971375 
L 108.373133 -102.971375 
L 109.561289 -102.971375 
L 110.749446 -102.971375 
L 111.937603 -102.971375 
L 113.12576 -102.971375 
L 114.313917 -102.971375 
L 115.502074 -102.971375 
L 116.690231 -102.971375 
L 117.878388 -102.971375 
L 119.066545 -102.971375 
L 120.254702 -102.971375 
L 121.442859 -102.971375 
L 122.631016 -102.971375 
L 123.819173 -102.971375 
L 125.00733 -102.971375 
L 126.195487 -102.971375 
L 127.383644 -102.971375 
L 128.571801 -102.971375 
L 129.759958 -102.971375 
L 130.948115 -102.971375 
L 132.136272 -102.971375 
L 133.324429 -102.971375 
L 134.512586 -102.971375 
L 135.700743 -102.971375 
L 136.8889 -102.971375 
L 138.077057 -102.971375 
L 139.265214 -102.971375 
L 140.453371 -102.971375 
L 141.641528 -102.971375 
L 142.829684 -102.971375 
L 144.017841 -102.971375 
L 145.205998 -102.971375 
L 146.394155 -102.971375 
L 147.582312 -102.971375 
L 148.770469 -102.971375 
L 149.958626 -102.971375 
L 151.146783 -102.971375 
L 152.33494 -102.971375 
L 153.523097 -102.971375 
L 154.711254 -102.971375 
L 155.899411 -102.971375 
L 157.087568 -102.971375 
L 158.275725 -102.971375 
L 159.463882 -102.971375 
L 160.652039 -102.971375 
L 161.840196 -102.971375 
L 163.028353 -102.971375 
L 164.21651 -102.971375 
L 165.404667 -102.971375 
L 166.592824 -102.971375 
L 167.780981 -102.971375 
L 168.969138 -102.971375 
L 170.157295 -102.971375 
L 171.345452 -102.971375 
L 172.533609 -102.971375 
L 173.721766 -102.971375 
L 174.909923 -102.971375 
L 176.098079 -102.971375 
L 177.286236 -102.971375 
L 178.474393 -102.971375 
L 179.66255 -102.971375 
L 180.850707 -102.971375 
L 182.038864 -102.971375 
L 183.227021 -102.971375 
L 184.415178 -102.971375 
L 185.603335 -102.971375 
L 186.791492 -102.971375 
L 187.979649 -102.971375 
L 189.167806 -102.971375 
L 190.355963 -102.971375 
L 191.54412 -102.971375 
L 192.732277 -102.971375 
L 193.920434 -102.971375 
L 195.108591 -102.971375 
L 196.296748 -102.971375 
L 197.484905 -102.971375 
L 198.673062 -102.971375 
L 199.861219 -102.971375 
L 201.049376 -102.971375 
L 202.237533 -102.971375 
L 203.42569 -102.971375 
L 204.613847 -102.971375 
L 205.802004 -102.971375 
L 206.990161 -102.971375 
L 208.178318 -102.971375 
L 209.366474 -102.971375 
L 210.554631 -102.971375 
L 211.742788 -102.971375 
L 212.930945 -102.971375 
L 214.119102 -102.971375 
L 215.307259 -102.971375 
L 216.495416 -102.971375 
L 217.683573 -102.971375 
L 218.87173 -102.971375 
L 220.059887 -102.971375 
L 221.248044 -102.971375 
L 222.436201 -102.971375 
L 223.624358 -102.971375 
L 224.812515 -102.971375 
L 226.000672 -102.971375 
L 227.188829 -102.971375 
L 228.376986 -102.971375 
L 229.565143 -102.971375 
L 230.7533 -102.971375 
L 231.941457 -102.971375 
L 233.129614 -102.971375 
L 234.317771 -102.971375 
L 235.505928 -102.971375 
L 236.694085 -102.971375 
L 237.882242 -102.971375 
L 239.070399 -102.971375 
L 240.258556 -102.971375 
L 241.446712 -102.971375 
L 242.634869 -102.971375 
L 243.823026 -102.971375 
L 245.011183 -102.971375 
L 246.19934 -102.971375 
L 247.387497 -102.971375 
L 248.575654 -102.971375 
L 249.763811 -102.971375 
L 250.951968 -102.971375 
L 252.140125 -102.971375 
L 253.328282 -102.971375 
L 254.516439 -102.971375 
L 255.704596 -102.971375 
L 256.892753 -102.971375 
L 258.08091 -102.971375 
L 259.269067 -102.971375 
L 260.457224 -102.971375 
L 261.645381 -102.971375 
L 262.833538 -102.971375 
L 264.021695 -102.971375 
L 264.021695 -102.972086 
L 264.021695 -102.972086 
L 262.833538 -102.973535 
L 261.645381 -102.977015 
L 260.457224 -102.984079 
L 259.269067 -102.996193 
L 258.08091 -103.013817 
L 256.892753 -103.035819 
L 255.704596 -103.059895 
L 254.516439 -103.083545 
L 253.328282 -103.104205 
L 252.140125 -103.118282 
L 250.951968 -103.121072 
L 249.763811 -103.109206 
L 248.575654 -103.083993 
L 247.387497 -103.051949 
L 246.19934 -103.021416 
L 245.011183 -102.99821 
L 243.823026 -102.983764 
L 242.634869 -102.97629 
L 241.446712 -102.973049 
L 240.258556 -102.971864 
L 239.070399 -102.971498 
L 237.882242 -102.971401 
L 236.694085 -102.97138 
L 235.505928 -102.971376 
L 234.317771 -102.971375 
L 233.129614 -102.971375 
L 231.941457 -102.971375 
L 230.7533 -102.971375 
L 229.565143 -102.971375 
L 228.376986 -102.971375 
L 227.188829 -102.971375 
L 226.000672 -102.971375 
L 224.812515 -102.971375 
L 223.624358 -102.971375 
L 222.436201 -102.971375 
L 221.248044 -102.971376 
L 220.059887 -102.971378 
L 218.87173 -102.971392 
L 217.683573 -102.971452 
L 216.495416 -102.971678 
L 215.307259 -102.972396 
L 214.119102 -102.974316 
L 212.930945 -102.978637 
L 211.742788 -102.98677 
L 210.554631 -102.999467 
L 209.366474 -103.015741 
L 208.178318 -103.032611 
L 206.990161 -103.046472 
L 205.802004 -103.055251 
L 204.613847 -103.059248 
L 203.42569 -103.059845 
L 202.237533 -103.057904 
L 201.049376 -103.054208 
L 199.861219 -103.05136 
L 198.673062 -103.053981 
L 197.484905 -103.065486 
L 196.296748 -103.083983 
L 195.108591 -103.101902 
L 193.920434 -103.110928 
L 192.732277 -103.108468 
L 191.54412 -103.099827 
L 190.355963 -103.094321 
L 189.167806 -103.099301 
L 187.979649 -103.117065 
L 186.791492 -103.145418 
L 185.603335 -103.179229 
L 184.415178 -103.211601 
L 183.227021 -103.236102 
L 182.038864 -103.250884 
L 180.850707 -103.261889 
L 179.66255 -103.28127 
L 178.474393 -103.321193 
L 177.286236 -103.387837 
L 176.098079 -103.479563 
L 174.909923 -103.58797 
L 173.721766 -103.698776 
L 172.533609 -103.793643 
L 171.345452 -103.85666 
L 170.157295 -103.883593 
L 168.969138 -103.885061 
L 167.780981 -103.878208 
L 166.592824 -103.873877 
L 165.404667 -103.872327 
L 164.21651 -103.871086 
L 163.028353 -103.874621 
L 161.840196 -103.894286 
L 160.652039 -103.939511 
L 159.463882 -104.010818 
L 158.275725 -104.101221 
L 157.087568 -104.20251 
L 155.899411 -104.309874 
L 154.711254 -104.422912 
L 153.523097 -104.544795 
L 152.33494 -104.68042 
L 151.146783 -104.832377 
L 149.958626 -104.995029 
L 148.770469 -105.15147 
L 147.582312 -105.279627 
L 146.394155 -105.366912 
L 145.205998 -105.422419 
L 144.017841 -105.474072 
L 142.829684 -105.549864 
L 141.641528 -105.656625 
L 140.453371 -105.772498 
L 139.265214 -105.858746 
L 138.077057 -105.882844 
L 136.8889 -105.838684 
L 135.700743 -105.753092 
L 134.512586 -105.676267 
L 133.324429 -105.661928 
L 132.136272 -105.747795 
L 130.948115 -105.945604 
L 129.759958 -106.242535 
L 128.571801 -106.60895 
L 127.383644 -107.007195 
L 126.195487 -107.400391 
L 125.00733 -107.761113 
L 123.819173 -108.076711 
L 122.631016 -108.347923 
L 121.442859 -108.583067 
L 120.254702 -108.794742 
L 119.066545 -109.00195 
L 117.878388 -109.230861 
L 116.690231 -109.505321 
L 115.502074 -109.830717 
L 114.313917 -110.187606 
L 113.12576 -110.544268 
L 111.937603 -110.877076 
L 110.749446 -111.182394 
L 109.561289 -111.477788 
L 108.373133 -111.797883 
L 107.184976 -112.181553 
L 105.996819 -112.646446 
L 104.808662 -113.165677 
L 103.620505 -113.672482 
L 102.432348 -114.097009 
L 101.244191 -114.40725 
L 100.056034 -114.622906 
L 98.867877 -114.799239 
L 97.67972 -115.002414 
L 96.491563 -115.292818 
L 95.303406 -115.712602 
L 94.115249 -116.268619 
L 92.927092 -116.917326 
L 91.738935 -117.569698 
L 90.550778 -118.122713 
L 89.362621 -118.500482 
L 88.174464 -118.679213 
L 86.986307 -118.686052 
L 85.79815 -118.582629 
L 84.609993 -118.445884 
L 83.421836 -118.347071 
L 82.233679 -118.3282 
L 81.045522 -118.386466 
L 79.857365 -118.480883 
L 78.669208 -118.561223 
L 77.481051 -118.599847 
L 76.292894 -118.601324 
L 75.104738 -118.581181 
L 73.916581 -118.532988 
L 72.728424 -118.415606 
L 71.540267 -118.17389 
L 70.35211 -117.774675 
L 69.163953 -117.228324 
L 67.975796 -116.582079 
L 66.787639 -115.893335 
L 65.599482 -115.201576 
L 64.411325 -114.517001 
L 63.223168 -113.833855 
L 62.035011 -113.157354 
L 60.846854 -112.517261 
L 59.658697 -111.948455 
L 58.47054 -111.450899 
L 57.282383 -110.969591 
L 56.094226 -110.424314 
L 54.906069 -109.770565 
L 53.717912 -109.035905 
L 52.529755 -108.297061 
L 51.341598 -107.623194 
L 50.153441 -107.040282 
L 48.965284 -106.538974 
L 47.777127 -106.100205 
L 46.58897 -105.707062 
L 45.400813 -105.341681 
L 44.212656 -104.985188 
L 43.024499 -104.627603 
L 41.836343 -104.276663 
L 40.648186 -103.954038 
L 39.460029 -103.681223 
L 38.271872 -103.4674 
L 37.083715 -103.307942 
L 35.895558 -103.191541 
L 34.707401 -103.107747 
L 33.519244 -103.049578 
L 32.331087 -103.012044 
L 31.14293 -102.99025 
L 29.954773 -102.979105 
L 28.766616 -102.974146 
L 27.578459 -102.97224 
z
" id="m7008734aab" style="stroke:#7cafbb;stroke-width:1.5;"/>
    </defs>
    <g>
     <use style="fill:#7cafbb;stroke:#7cafbb;stroke-width:1.5;" x="0" xlink:href="#m7008734aab" y="311.267375"/>
    </g>
   </g>
   <g id="line2d_11">
    <path d="M 27.578459 208.295135 
L 33.519244 208.217797 
L 37.083715 207.959433 
L 39.460029 207.586152 
L 41.836343 206.990712 
L 47.777127 205.16717 
L 50.153441 204.227093 
L 52.529755 202.970314 
L 56.094226 200.843061 
L 62.035011 198.110021 
L 70.35211 193.4927 
L 71.540267 193.093485 
L 72.728424 192.851769 
L 75.104738 192.686194 
L 78.669208 192.706152 
L 83.421836 192.920304 
L 88.174464 192.588162 
L 89.362621 192.766893 
L 90.550778 193.144662 
L 92.927092 194.350049 
L 95.303406 195.554773 
L 96.491563 195.974557 
L 98.867877 196.468136 
L 101.244191 196.860125 
L 103.620505 197.594893 
L 107.184976 199.085822 
L 109.561289 199.789587 
L 114.313917 201.079769 
L 117.878388 202.036514 
L 125.00733 203.506262 
L 130.948115 205.321771 
L 133.324429 205.605447 
L 135.700743 205.514283 
L 138.077057 205.384531 
L 140.453371 205.494877 
L 144.017841 205.793303 
L 147.582312 205.987748 
L 160.652039 207.327864 
L 164.21651 207.396289 
L 172.533609 207.473732 
L 179.66255 207.986105 
L 199.861219 208.216015 
L 212.930945 208.288738 
L 242.634869 208.291085 
L 260.457224 208.283296 
L 264.021695 208.295289 
L 264.021695 208.295289 
" style="fill:none;stroke:#ffffff;stroke-linecap:round;stroke-width:2;"/>
   </g>
   <g id="line2d_12">
    <path d="M 9.196404 208.296 
L 343.996404 208.296 
" style="fill:none;stroke:#7cafbb;stroke-linecap:round;stroke-width:2;"/>
   </g>
   <g id="text_6">
    <!-- 0.3 -->
    <g style="fill:#7cafbb;" transform="translate(260.296404 206.4513)scale(0.24 -0.24)">
     <defs>
      <path d="M 2981 2516 
Q 3453 2394 3698 2092 
Q 3944 1791 3944 1325 
Q 3944 631 3412 270 
Q 2881 -91 1863 -91 
Q 1503 -91 1142 -33 
Q 781 25 428 141 
L 428 1069 
Q 766 900 1098 814 
Q 1431 728 1753 728 
Q 2231 728 2486 893 
Q 2741 1059 2741 1369 
Q 2741 1688 2480 1852 
Q 2219 2016 1709 2016 
L 1228 2016 
L 1228 2791 
L 1734 2791 
Q 2188 2791 2409 2933 
Q 2631 3075 2631 3366 
Q 2631 3634 2415 3781 
Q 2200 3928 1806 3928 
Q 1516 3928 1219 3862 
Q 922 3797 628 3669 
L 628 4550 
Q 984 4650 1334 4700 
Q 1684 4750 2022 4750 
Q 2931 4750 3382 4451 
Q 3834 4153 3834 3553 
Q 3834 3144 3618 2883 
Q 3403 2622 2981 2516 
z
" id="DejaVuSans-Bold-33" transform="scale(0.015625)"/>
     </defs>
     <use xlink:href="#DejaVuSans-Bold-30"/>
     <use x="69.580078" xlink:href="#DejaVuSans-Bold-2e"/>
     <use x="107.568359" xlink:href="#DejaVuSans-Bold-33"/>
    </g>
   </g>
  </g>
  <g id="axes_7">
   <g id="patch_8">
    <path d="M 9.196404 240.048 
L 343.996404 240.048 
L 343.996404 197.712 
L 9.196404 197.712 
z
" style="fill:none;"/>
   </g>
   <g id="matplotlib.axis_13">
    <g id="xtick_25">
     <g id="text_7">
      <!-- 0 -->
      <g style="fill:#262626;" transform="translate(7.2 272.264563)scale(0.22 -0.22)">
       <defs>
        <path d="M 2034 4250 
Q 1547 4250 1301 3770 
Q 1056 3291 1056 2328 
Q 1056 1369 1301 889 
Q 1547 409 2034 409 
Q 2525 409 2770 889 
Q 3016 1369 3016 2328 
Q 3016 3291 2770 3770 
Q 2525 4250 2034 4250 
z
M 2034 4750 
Q 2819 4750 3233 4129 
Q 3647 3509 3647 2328 
Q 3647 1150 3233 529 
Q 2819 -91 2034 -91 
Q 1250 -91 836 529 
Q 422 1150 422 2328 
Q 422 3509 836 4129 
Q 1250 4750 2034 4750 
z
" id="DejaVuSans-30" transform="scale(0.015625)"/>
       </defs>
       <use xlink:href="#DejaVuSans-30"/>
      </g>
     </g>
    </g>
    <g id="xtick_26">
     <g id="text_8">
      <!-- 1 -->
      <g style="fill:#262626;" transform="translate(90.834981 272.264563)scale(0.22 -0.22)">
       <defs>
        <path d="M 794 531 
L 1825 531 
L 1825 4091 
L 703 3866 
L 703 4441 
L 1819 4666 
L 2450 4666 
L 2450 531 
L 3481 531 
L 3481 0 
L 794 0 
L 794 531 
z
" id="DejaVuSans-31" transform="scale(0.015625)"/>
       </defs>
       <use xlink:href="#DejaVuSans-31"/>
      </g>
     </g>
    </g>
    <g id="xtick_27">
     <g id="text_9">
      <!-- 2 -->
      <g style="fill:#262626;" transform="translate(174.469962 272.264563)scale(0.22 -0.22)">
       <defs>
        <path d="M 1228 531 
L 3431 531 
L 3431 0 
L 469 0 
L 469 531 
Q 828 903 1448 1529 
Q 2069 2156 2228 2338 
Q 2531 2678 2651 2914 
Q 2772 3150 2772 3378 
Q 2772 3750 2511 3984 
Q 2250 4219 1831 4219 
Q 1534 4219 1204 4116 
Q 875 4013 500 3803 
L 500 4441 
Q 881 4594 1212 4672 
Q 1544 4750 1819 4750 
Q 2544 4750 2975 4387 
Q 3406 4025 3406 3419 
Q 3406 3131 3298 2873 
Q 3191 2616 2906 2266 
Q 2828 2175 2409 1742 
Q 1991 1309 1228 531 
z
" id="DejaVuSans-32" transform="scale(0.015625)"/>
       </defs>
       <use xlink:href="#DejaVuSans-32"/>
      </g>
     </g>
    </g>
    <g id="xtick_28">
     <g id="text_10">
      <!-- 3 -->
      <g style="fill:#262626;" transform="translate(258.104943 272.264563)scale(0.22 -0.22)">
       <defs>
        <path d="M 2597 2516 
Q 3050 2419 3304 2112 
Q 3559 1806 3559 1356 
Q 3559 666 3084 287 
Q 2609 -91 1734 -91 
Q 1441 -91 1130 -33 
Q 819 25 488 141 
L 488 750 
Q 750 597 1062 519 
Q 1375 441 1716 441 
Q 2309 441 2620 675 
Q 2931 909 2931 1356 
Q 2931 1769 2642 2001 
Q 2353 2234 1838 2234 
L 1294 2234 
L 1294 2753 
L 1863 2753 
Q 2328 2753 2575 2939 
Q 2822 3125 2822 3475 
Q 2822 3834 2567 4026 
Q 2313 4219 1838 4219 
Q 1578 4219 1281 4162 
Q 984 4106 628 3988 
L 628 4550 
Q 988 4650 1302 4700 
Q 1616 4750 1894 4750 
Q 2613 4750 3031 4423 
Q 3450 4097 3450 3541 
Q 3450 3153 3228 2886 
Q 3006 2619 2597 2516 
z
" id="DejaVuSans-33" transform="scale(0.015625)"/>
       </defs>
       <use xlink:href="#DejaVuSans-33"/>
      </g>
     </g>
    </g>
    <g id="text_11">
     <!-- $E$ -->
     <g style="fill:#262626;" transform="translate(168.916404 299.076125)scale(0.24 -0.24)">
      <defs>
       <path d="M 1081 4666 
L 4031 4666 
L 3928 4134 
L 1606 4134 
L 1338 2753 
L 3566 2753 
L 3463 2222 
L 1234 2222 
L 909 531 
L 3284 531 
L 3181 0 
L 172 0 
L 1081 4666 
z
" id="DejaVuSans-Oblique-45" transform="scale(0.015625)"/>
      </defs>
      <use transform="translate(0 0.09375)" xlink:href="#DejaVuSans-Oblique-45"/>
     </g>
    </g>
   </g>
   <g id="matplotlib.axis_14"/>
   <g id="PolyCollection_7">
    <defs>
     <path d="M 24.414586 -71.220393 
L 24.414586 -71.219375 
L 25.944051 -71.219375 
L 27.473517 -71.219375 
L 29.002982 -71.219375 
L 30.532448 -71.219375 
L 32.061913 -71.219375 
L 33.591379 -71.219375 
L 35.120844 -71.219375 
L 36.65031 -71.219375 
L 38.179775 -71.219375 
L 39.709241 -71.219375 
L 41.238706 -71.219375 
L 42.768172 -71.219375 
L 44.297637 -71.219375 
L 45.827103 -71.219375 
L 47.356568 -71.219375 
L 48.886034 -71.219375 
L 50.415499 -71.219375 
L 51.944965 -71.219375 
L 53.47443 -71.219375 
L 55.003896 -71.219375 
L 56.533361 -71.219375 
L 58.062827 -71.219375 
L 59.592292 -71.219375 
L 61.121758 -71.219375 
L 62.651223 -71.219375 
L 64.180689 -71.219375 
L 65.710154 -71.219375 
L 67.23962 -71.219375 
L 68.769085 -71.219375 
L 70.298551 -71.219375 
L 71.828016 -71.219375 
L 73.357482 -71.219375 
L 74.886947 -71.219375 
L 76.416413 -71.219375 
L 77.945878 -71.219375 
L 79.475344 -71.219375 
L 81.004809 -71.219375 
L 82.534275 -71.219375 
L 84.06374 -71.219375 
L 85.593206 -71.219375 
L 87.122671 -71.219375 
L 88.652137 -71.219375 
L 90.181603 -71.219375 
L 91.711068 -71.219375 
L 93.240534 -71.219375 
L 94.769999 -71.219375 
L 96.299465 -71.219375 
L 97.82893 -71.219375 
L 99.358396 -71.219375 
L 100.887861 -71.219375 
L 102.417327 -71.219375 
L 103.946792 -71.219375 
L 105.476258 -71.219375 
L 107.005723 -71.219375 
L 108.535189 -71.219375 
L 110.064654 -71.219375 
L 111.59412 -71.219375 
L 113.123585 -71.219375 
L 114.653051 -71.219375 
L 116.182516 -71.219375 
L 117.711982 -71.219375 
L 119.241447 -71.219375 
L 120.770913 -71.219375 
L 122.300378 -71.219375 
L 123.829844 -71.219375 
L 125.359309 -71.219375 
L 126.888775 -71.219375 
L 128.41824 -71.219375 
L 129.947706 -71.219375 
L 131.477171 -71.219375 
L 133.006637 -71.219375 
L 134.536102 -71.219375 
L 136.065568 -71.219375 
L 137.595033 -71.219375 
L 139.124499 -71.219375 
L 140.653964 -71.219375 
L 142.18343 -71.219375 
L 143.712895 -71.219375 
L 145.242361 -71.219375 
L 146.771826 -71.219375 
L 148.301292 -71.219375 
L 149.830757 -71.219375 
L 151.360223 -71.219375 
L 152.889688 -71.219375 
L 154.419154 -71.219375 
L 155.948619 -71.219375 
L 157.478085 -71.219375 
L 159.00755 -71.219375 
L 160.537016 -71.219375 
L 162.066481 -71.219375 
L 163.595947 -71.219375 
L 165.125412 -71.219375 
L 166.654878 -71.219375 
L 168.184343 -71.219375 
L 169.713809 -71.219375 
L 171.243275 -71.219375 
L 172.77274 -71.219375 
L 174.302206 -71.219375 
L 175.831671 -71.219375 
L 177.361137 -71.219375 
L 178.890602 -71.219375 
L 180.420068 -71.219375 
L 181.949533 -71.219375 
L 183.478999 -71.219375 
L 185.008464 -71.219375 
L 186.53793 -71.219375 
L 188.067395 -71.219375 
L 189.596861 -71.219375 
L 191.126326 -71.219375 
L 192.655792 -71.219375 
L 194.185257 -71.219375 
L 195.714723 -71.219375 
L 197.244188 -71.219375 
L 198.773654 -71.219375 
L 200.303119 -71.219375 
L 201.832585 -71.219375 
L 203.36205 -71.219375 
L 204.891516 -71.219375 
L 206.420981 -71.219375 
L 207.950447 -71.219375 
L 209.479912 -71.219375 
L 211.009378 -71.219375 
L 212.538843 -71.219375 
L 214.068309 -71.219375 
L 215.597774 -71.219375 
L 217.12724 -71.219375 
L 218.656705 -71.219375 
L 220.186171 -71.219375 
L 221.715636 -71.219375 
L 223.245102 -71.219375 
L 224.774567 -71.219375 
L 226.304033 -71.219375 
L 227.833498 -71.219375 
L 229.362964 -71.219375 
L 230.892429 -71.219375 
L 232.421895 -71.219375 
L 233.95136 -71.219375 
L 235.480826 -71.219375 
L 237.010291 -71.219375 
L 238.539757 -71.219375 
L 240.069222 -71.219375 
L 241.598688 -71.219375 
L 243.128153 -71.219375 
L 244.657619 -71.219375 
L 246.187084 -71.219375 
L 247.71655 -71.219375 
L 249.246015 -71.219375 
L 250.775481 -71.219375 
L 252.304946 -71.219375 
L 253.834412 -71.219375 
L 255.363878 -71.219375 
L 256.893343 -71.219375 
L 258.422809 -71.219375 
L 259.952274 -71.219375 
L 261.48174 -71.219375 
L 263.011205 -71.219375 
L 264.540671 -71.219375 
L 266.070136 -71.219375 
L 267.599602 -71.219375 
L 269.129067 -71.219375 
L 270.658533 -71.219375 
L 272.187998 -71.219375 
L 273.717464 -71.219375 
L 275.246929 -71.219375 
L 276.776395 -71.219375 
L 278.30586 -71.219375 
L 279.835326 -71.219375 
L 281.364791 -71.219375 
L 282.894257 -71.219375 
L 284.423722 -71.219375 
L 285.953188 -71.219375 
L 287.482653 -71.219375 
L 289.012119 -71.219375 
L 290.541584 -71.219375 
L 292.07105 -71.219375 
L 293.600515 -71.219375 
L 295.129981 -71.219375 
L 296.659446 -71.219375 
L 298.188912 -71.219375 
L 299.718377 -71.219375 
L 301.247843 -71.219375 
L 302.777308 -71.219375 
L 304.306774 -71.219375 
L 305.836239 -71.219375 
L 307.365705 -71.219375 
L 308.89517 -71.219375 
L 310.424636 -71.219375 
L 311.954101 -71.219375 
L 313.483567 -71.219375 
L 315.013032 -71.219375 
L 316.542498 -71.219375 
L 318.071963 -71.219375 
L 319.601429 -71.219375 
L 321.130894 -71.219375 
L 322.66036 -71.219375 
L 324.189825 -71.219375 
L 325.719291 -71.219375 
L 327.248756 -71.219375 
L 328.778222 -71.219375 
L 328.778222 -71.219999 
L 328.778222 -71.219999 
L 327.248756 -71.221549 
L 325.719291 -71.225557 
L 324.189825 -71.233742 
L 322.66036 -71.246658 
L 321.130894 -71.261712 
L 319.601429 -71.273057 
L 318.071963 -71.274994 
L 316.542498 -71.266463 
L 315.013032 -71.25195 
L 313.483567 -71.237789 
L 311.954101 -71.22788 
L 310.424636 -71.222585 
L 308.89517 -71.220365 
L 307.365705 -71.219625 
L 305.836239 -71.219426 
L 304.306774 -71.219384 
L 302.777308 -71.219376 
L 301.247843 -71.219375 
L 299.718377 -71.219375 
L 298.188912 -71.219375 
L 296.659446 -71.219375 
L 295.129981 -71.219375 
L 293.600515 -71.219375 
L 292.07105 -71.219375 
L 290.541584 -71.219375 
L 289.012119 -71.219375 
L 287.482653 -71.219375 
L 285.953188 -71.219375 
L 284.423722 -71.219375 
L 282.894257 -71.219375 
L 281.364791 -71.219375 
L 279.835326 -71.219378 
L 278.30586 -71.219397 
L 276.776395 -71.219493 
L 275.246929 -71.219893 
L 273.717464 -71.221227 
L 272.187998 -71.224792 
L 270.658533 -71.23232 
L 269.129067 -71.244652 
L 267.599602 -71.259705 
L 266.070136 -71.271956 
L 264.540671 -71.275391 
L 263.011205 -71.26814 
L 261.48174 -71.254077 
L 259.952274 -71.23963 
L 258.422809 -71.229376 
L 256.893343 -71.224659 
L 255.363878 -71.225271 
L 253.834412 -71.231278 
L 252.304946 -71.242736 
L 250.775481 -71.257625 
L 249.246015 -71.270679 
L 247.71655 -71.275692 
L 246.187084 -71.270231 
L 244.657619 -71.258197 
L 243.128153 -71.247656 
L 241.598688 -71.24654 
L 240.069222 -71.259747 
L 238.539757 -71.287681 
L 237.010291 -71.324866 
L 235.480826 -71.359967 
L 233.95136 -71.380153 
L 232.421895 -71.378896 
L 230.892429 -71.360696 
L 229.362964 -71.337147 
L 227.833498 -71.318032 
L 226.304033 -71.307311 
L 224.774567 -71.306882 
L 223.245102 -71.31975 
L 221.715636 -71.34556 
L 220.186171 -71.374096 
L 218.656705 -71.388072 
L 217.12724 -71.375964 
L 215.597774 -71.342218 
L 214.068309 -71.304128 
L 212.538843 -71.279437 
L 211.009378 -71.276783 
L 209.479912 -71.294791 
L 207.950447 -71.326326 
L 206.420981 -71.362239 
L 204.891516 -71.392479 
L 203.36205 -71.407101 
L 201.832585 -71.400827 
L 200.303119 -71.37921 
L 198.773654 -71.358568 
L 197.244188 -71.356333 
L 195.714723 -71.379345 
L 194.185257 -71.420345 
L 192.655792 -71.464229 
L 191.126326 -71.497777 
L 189.596861 -71.517546 
L 188.067395 -71.533481 
L 186.53793 -71.564884 
L 185.008464 -71.62753 
L 183.478999 -71.720101 
L 181.949533 -71.822928 
L 180.420068 -71.91106 
L 178.890602 -71.968638 
L 177.361137 -71.992673 
L 175.831671 -71.988885 
L 174.302206 -71.96843 
L 172.77274 -71.947373 
L 171.243275 -71.944592 
L 169.713809 -71.974601 
L 168.184343 -72.037682 
L 166.654878 -72.117321 
L 165.125412 -72.191321 
L 163.595947 -72.245343 
L 162.066481 -72.274538 
L 160.537016 -72.281476 
L 159.00755 -72.284669 
L 157.478085 -72.322987 
L 155.948619 -72.431881 
L 154.419154 -72.606519 
L 152.889688 -72.795709 
L 151.360223 -72.940439 
L 149.830757 -73.020664 
L 148.301292 -73.065694 
L 146.771826 -73.123779 
L 145.242361 -73.226745 
L 143.712895 -73.381692 
L 142.18343 -73.586592 
L 140.653964 -73.845052 
L 139.124499 -74.162572 
L 137.595033 -74.528852 
L 136.065568 -74.909083 
L 134.536102 -75.258398 
L 133.006637 -75.543336 
L 131.477171 -75.747491 
L 129.947706 -75.866038 
L 128.41824 -75.907641 
L 126.888775 -75.903167 
L 125.359309 -75.905952 
L 123.829844 -75.977289 
L 122.300378 -76.163453 
L 120.770913 -76.476252 
L 119.241447 -76.8895 
L 117.711982 -77.354285 
L 116.182516 -77.821601 
L 114.653051 -78.257914 
L 113.123585 -78.646781 
L 111.59412 -78.980755 
L 110.064654 -79.258298 
L 108.535189 -79.493629 
L 107.005723 -79.724847 
L 105.476258 -80.003807 
L 103.946792 -80.372885 
L 102.417327 -80.840401 
L 100.887861 -81.361544 
L 99.358396 -81.843643 
L 97.82893 -82.193912 
L 96.299465 -82.382295 
L 94.769999 -82.46246 
L 93.240534 -82.53755 
L 91.711068 -82.707542 
L 90.181603 -83.024577 
L 88.652137 -83.465304 
L 87.122671 -83.941521 
L 85.593206 -84.352658 
L 84.06374 -84.637007 
L 82.534275 -84.786611 
L 81.004809 -84.84243 
L 79.475344 -84.888322 
L 77.945878 -85.021701 
L 76.416413 -85.290009 
L 74.886947 -85.644644 
L 73.357482 -85.969879 
L 71.828016 -86.162066 
L 70.298551 -86.176331 
L 68.769085 -86.008265 
L 67.23962 -85.658722 
L 65.710154 -85.129379 
L 64.180689 -84.439188 
L 62.651223 -83.631887 
L 61.121758 -82.770724 
L 59.592292 -81.927588 
L 58.062827 -81.160068 
L 56.533361 -80.477219 
L 55.003896 -79.825075 
L 53.47443 -79.121344 
L 51.944965 -78.319715 
L 50.415499 -77.445843 
L 48.886034 -76.572692 
L 47.356568 -75.766073 
L 45.827103 -75.053571 
L 44.297637 -74.430287 
L 42.768172 -73.877757 
L 41.238706 -73.378194 
L 39.709241 -72.921892 
L 38.179775 -72.508107 
L 36.65031 -72.142081 
L 35.120844 -71.832779 
L 33.591379 -71.590212 
L 32.061913 -71.419248 
L 30.532448 -71.313838 
L 29.002982 -71.258022 
L 27.473517 -71.232927 
L 25.944051 -71.223416 
L 24.414586 -71.220393 
z
" id="m933e094726" style="stroke:#90c1c6;stroke-width:1.5;"/>
    </defs>
    <g>
     <use style="fill:#90c1c6;stroke:#90c1c6;stroke-width:1.5;" x="0" xlink:href="#m933e094726" y="311.267375"/>
    </g>
   </g>
   <g id="line2d_13">
    <path d="M 24.414586 240.046982 
L 30.532448 239.953537 
L 33.591379 239.677163 
L 36.65031 239.125294 
L 39.709241 238.345483 
L 42.768172 237.389618 
L 45.827103 236.213804 
L 48.886034 234.694683 
L 53.47443 232.146031 
L 59.592292 229.339787 
L 64.180689 226.828187 
L 65.710154 226.137996 
L 67.23962 225.608653 
L 68.769085 225.25911 
L 70.298551 225.091044 
L 71.828016 225.105309 
L 73.357482 225.297496 
L 77.945878 226.245674 
L 81.004809 226.424945 
L 84.06374 226.630368 
L 85.593206 226.914717 
L 91.711068 228.559833 
L 94.769999 228.804915 
L 97.82893 229.073463 
L 99.358396 229.423732 
L 105.476258 231.263568 
L 114.653051 233.009461 
L 122.300378 235.103922 
L 123.829844 235.290086 
L 126.888775 235.364208 
L 129.947706 235.401337 
L 133.006637 235.724039 
L 136.065568 236.358292 
L 140.653964 237.422323 
L 143.712895 237.885683 
L 146.771826 238.143596 
L 152.889688 238.471666 
L 157.478085 238.944388 
L 174.302206 239.298945 
L 178.890602 239.298737 
L 185.008464 239.639845 
L 189.596861 239.749829 
L 214.068309 239.963247 
L 220.186171 239.893279 
L 227.833498 239.949343 
L 237.010291 239.942509 
L 243.128153 240.019719 
L 255.363878 240.042104 
L 328.778222 240.047376 
L 328.778222 240.047376 
" style="fill:none;stroke:#ffffff;stroke-linecap:round;stroke-width:2;"/>
   </g>
   <g id="line2d_14">
    <path d="M 9.196404 240.048 
L 343.996404 240.048 
" style="fill:none;stroke:#90c1c6;stroke-linecap:round;stroke-width:2;"/>
   </g>
   <g id="text_12">
    <!-- 0.4 -->
    <g style="fill:#90c1c6;" transform="translate(260.296404 238.2033)scale(0.24 -0.24)">
     <defs>
      <path d="M 2356 3675 
L 1038 1722 
L 2356 1722 
L 2356 3675 
z
M 2156 4666 
L 3494 4666 
L 3494 1722 
L 4159 1722 
L 4159 850 
L 3494 850 
L 3494 0 
L 2356 0 
L 2356 850 
L 288 850 
L 288 1881 
L 2156 4666 
z
" id="DejaVuSans-Bold-34" transform="scale(0.015625)"/>
     </defs>
     <use xlink:href="#DejaVuSans-Bold-30"/>
     <use x="69.580078" xlink:href="#DejaVuSans-Bold-2e"/>
     <use x="107.568359" xlink:href="#DejaVuSans-Bold-34"/>
    </g>
   </g>
  </g>
 </g>
</svg>
