<?xml version="1.0" encoding="utf-8" standalone="no"?>
<!DOCTYPE svg PUBLIC "-//W3C//DTD SVG 1.1//EN"
  "http://www.w3.org/Graphics/SVG/1.1/DTD/svg11.dtd">
<svg height="674.159375pt" version="1.1" viewBox="0 0 707.220668 674.159375" width="707.220668pt" xmlns="http://www.w3.org/2000/svg" xmlns:xlink="http://www.w3.org/1999/xlink">
 <metadata>
  <rdf:RDF xmlns:cc="http://creativecommons.org/ns#" xmlns:dc="http://purl.org/dc/elements/1.1/" xmlns:rdf="http://www.w3.org/1999/02/22-rdf-syntax-ns#">
   <cc:Work>
    <dc:type rdf:resource="http://purl.org/dc/dcmitype/StillImage"/>
    <dc:date>2021-07-24T14:57:25.360895</dc:date>
    <dc:format>image/svg+xml</dc:format>
    <dc:creator>
     <cc:Agent>
      <dc:title>Matplotlib v3.4.2, https://matplotlib.org/</dc:title>
     </cc:Agent>
    </dc:creator>
   </cc:Work>
  </rdf:RDF>
 </metadata>
 <defs>
  <style type="text/css">*{stroke-linecap:butt;stroke-linejoin:round;}</style>
 </defs>
 <g id="figure_1">
  <g id="patch_1">
   <path d="M 0 674.159375 
L 707.220668 674.159375 
L 707.220668 0 
L 0 0 
z
" style="fill:#ffffff;"/>
  </g>
  <g id="axes_1">
   <g id="patch_2">
    <path d="M 98.911875 602.94 
L 581.861304 602.94 
L 581.861304 109.326857 
L 98.911875 109.326857 
z
" style="fill:none;"/>
   </g>
   <g id="matplotlib.axis_1">
    <g id="xtick_1">
     <g id="text_1">
      <!-- 0 -->
      <g style="fill:#262626;" transform="translate(113.645739 635.156562)scale(0.22 -0.22)">
       <defs>
        <path d="M 2034 4250 
Q 1547 4250 1301 3770 
Q 1056 3291 1056 2328 
Q 1056 1369 1301 889 
Q 1547 409 2034 409 
Q 2525 409 2770 889 
Q 3016 1369 3016 2328 
Q 3016 3291 2770 3770 
Q 2525 4250 2034 4250 
z
M 2034 4750 
Q 2819 4750 3233 4129 
Q 3647 3509 3647 2328 
Q 3647 1150 3233 529 
Q 2819 -91 2034 -91 
Q 1250 -91 836 529 
Q 422 1150 422 2328 
Q 422 3509 836 4129 
Q 1250 4750 2034 4750 
z
" id="DejaVuSans-30" transform="scale(0.015625)"/>
       </defs>
       <use xlink:href="#DejaVuSans-30"/>
      </g>
     </g>
    </g>
    <g id="xtick_2">
     <g id="text_2">
      <!-- 20000 -->
      <g style="fill:#262626;" transform="translate(173.503653 635.156562)scale(0.22 -0.22)">
       <defs>
        <path d="M 1228 531 
L 3431 531 
L 3431 0 
L 469 0 
L 469 531 
Q 828 903 1448 1529 
Q 2069 2156 2228 2338 
Q 2531 2678 2651 2914 
Q 2772 3150 2772 3378 
Q 2772 3750 2511 3984 
Q 2250 4219 1831 4219 
Q 1534 4219 1204 4116 
Q 875 4013 500 3803 
L 500 4441 
Q 881 4594 1212 4672 
Q 1544 4750 1819 4750 
Q 2544 4750 2975 4387 
Q 3406 4025 3406 3419 
Q 3406 3131 3298 2873 
Q 3191 2616 2906 2266 
Q 2828 2175 2409 1742 
Q 1991 1309 1228 531 
z
" id="DejaVuSans-32" transform="scale(0.015625)"/>
       </defs>
       <use xlink:href="#DejaVuSans-32"/>
       <use x="63.623047" xlink:href="#DejaVuSans-30"/>
       <use x="127.246094" xlink:href="#DejaVuSans-30"/>
       <use x="190.869141" xlink:href="#DejaVuSans-30"/>
       <use x="254.492188" xlink:href="#DejaVuSans-30"/>
      </g>
     </g>
    </g>
    <g id="xtick_3">
     <g id="text_3">
      <!-- 40000 -->
      <g style="fill:#262626;" transform="translate(261.356566 635.156562)scale(0.22 -0.22)">
       <defs>
        <path d="M 2419 4116 
L 825 1625 
L 2419 1625 
L 2419 4116 
z
M 2253 4666 
L 3047 4666 
L 3047 1625 
L 3713 1625 
L 3713 1100 
L 3047 1100 
L 3047 0 
L 2419 0 
L 2419 1100 
L 313 1100 
L 313 1709 
L 2253 4666 
z
" id="DejaVuSans-34" transform="scale(0.015625)"/>
       </defs>
       <use xlink:href="#DejaVuSans-34"/>
       <use x="63.623047" xlink:href="#DejaVuSans-30"/>
       <use x="127.246094" xlink:href="#DejaVuSans-30"/>
       <use x="190.869141" xlink:href="#DejaVuSans-30"/>
       <use x="254.492188" xlink:href="#DejaVuSans-30"/>
      </g>
     </g>
    </g>
    <g id="xtick_4">
     <g id="text_4">
      <!-- 60000 -->
      <g style="fill:#262626;" transform="translate(349.20948 635.156562)scale(0.22 -0.22)">
       <defs>
        <path d="M 2113 2584 
Q 1688 2584 1439 2293 
Q 1191 2003 1191 1497 
Q 1191 994 1439 701 
Q 1688 409 2113 409 
Q 2538 409 2786 701 
Q 3034 994 3034 1497 
Q 3034 2003 2786 2293 
Q 2538 2584 2113 2584 
z
M 3366 4563 
L 3366 3988 
Q 3128 4100 2886 4159 
Q 2644 4219 2406 4219 
Q 1781 4219 1451 3797 
Q 1122 3375 1075 2522 
Q 1259 2794 1537 2939 
Q 1816 3084 2150 3084 
Q 2853 3084 3261 2657 
Q 3669 2231 3669 1497 
Q 3669 778 3244 343 
Q 2819 -91 2113 -91 
Q 1303 -91 875 529 
Q 447 1150 447 2328 
Q 447 3434 972 4092 
Q 1497 4750 2381 4750 
Q 2619 4750 2861 4703 
Q 3103 4656 3366 4563 
z
" id="DejaVuSans-36" transform="scale(0.015625)"/>
       </defs>
       <use xlink:href="#DejaVuSans-36"/>
       <use x="63.623047" xlink:href="#DejaVuSans-30"/>
       <use x="127.246094" xlink:href="#DejaVuSans-30"/>
       <use x="190.869141" xlink:href="#DejaVuSans-30"/>
       <use x="254.492188" xlink:href="#DejaVuSans-30"/>
      </g>
     </g>
    </g>
    <g id="xtick_5">
     <g id="text_5">
      <!-- 80000 -->
      <g style="fill:#262626;" transform="translate(437.062393 635.156562)scale(0.22 -0.22)">
       <defs>
        <path d="M 2034 2216 
Q 1584 2216 1326 1975 
Q 1069 1734 1069 1313 
Q 1069 891 1326 650 
Q 1584 409 2034 409 
Q 2484 409 2743 651 
Q 3003 894 3003 1313 
Q 3003 1734 2745 1975 
Q 2488 2216 2034 2216 
z
M 1403 2484 
Q 997 2584 770 2862 
Q 544 3141 544 3541 
Q 544 4100 942 4425 
Q 1341 4750 2034 4750 
Q 2731 4750 3128 4425 
Q 3525 4100 3525 3541 
Q 3525 3141 3298 2862 
Q 3072 2584 2669 2484 
Q 3125 2378 3379 2068 
Q 3634 1759 3634 1313 
Q 3634 634 3220 271 
Q 2806 -91 2034 -91 
Q 1263 -91 848 271 
Q 434 634 434 1313 
Q 434 1759 690 2068 
Q 947 2378 1403 2484 
z
M 1172 3481 
Q 1172 3119 1398 2916 
Q 1625 2713 2034 2713 
Q 2441 2713 2670 2916 
Q 2900 3119 2900 3481 
Q 2900 3844 2670 4047 
Q 2441 4250 2034 4250 
Q 1625 4250 1398 4047 
Q 1172 3844 1172 3481 
z
" id="DejaVuSans-38" transform="scale(0.015625)"/>
       </defs>
       <use xlink:href="#DejaVuSans-38"/>
       <use x="63.623047" xlink:href="#DejaVuSans-30"/>
       <use x="127.246094" xlink:href="#DejaVuSans-30"/>
       <use x="190.869141" xlink:href="#DejaVuSans-30"/>
       <use x="254.492188" xlink:href="#DejaVuSans-30"/>
      </g>
     </g>
    </g>
    <g id="xtick_6">
     <g id="text_6">
      <!-- 100000 -->
      <g style="fill:#262626;" transform="translate(517.916557 635.156562)scale(0.22 -0.22)">
       <defs>
        <path d="M 794 531 
L 1825 531 
L 1825 4091 
L 703 3866 
L 703 4441 
L 1819 4666 
L 2450 4666 
L 2450 531 
L 3481 531 
L 3481 0 
L 794 0 
L 794 531 
z
" id="DejaVuSans-31" transform="scale(0.015625)"/>
       </defs>
       <use xlink:href="#DejaVuSans-31"/>
       <use x="63.623047" xlink:href="#DejaVuSans-30"/>
       <use x="127.246094" xlink:href="#DejaVuSans-30"/>
       <use x="190.869141" xlink:href="#DejaVuSans-30"/>
       <use x="254.492188" xlink:href="#DejaVuSans-30"/>
       <use x="318.115234" xlink:href="#DejaVuSans-30"/>
      </g>
     </g>
    </g>
    <g id="text_7">
     <!-- MDTU -->
     <g style="fill:#262626;" transform="translate(304.680964 661.968125)scale(0.24 -0.24)">
      <defs>
       <path d="M 628 4666 
L 1569 4666 
L 2759 1491 
L 3956 4666 
L 4897 4666 
L 4897 0 
L 4281 0 
L 4281 4097 
L 3078 897 
L 2444 897 
L 1241 4097 
L 1241 0 
L 628 0 
L 628 4666 
z
" id="DejaVuSans-4d" transform="scale(0.015625)"/>
       <path d="M 1259 4147 
L 1259 519 
L 2022 519 
Q 2988 519 3436 956 
Q 3884 1394 3884 2338 
Q 3884 3275 3436 3711 
Q 2988 4147 2022 4147 
L 1259 4147 
z
M 628 4666 
L 1925 4666 
Q 3281 4666 3915 4102 
Q 4550 3538 4550 2338 
Q 4550 1131 3912 565 
Q 3275 0 1925 0 
L 628 0 
L 628 4666 
z
" id="DejaVuSans-44" transform="scale(0.015625)"/>
       <path d="M -19 4666 
L 3928 4666 
L 3928 4134 
L 2272 4134 
L 2272 0 
L 1638 0 
L 1638 4134 
L -19 4134 
L -19 4666 
z
" id="DejaVuSans-54" transform="scale(0.015625)"/>
       <path d="M 556 4666 
L 1191 4666 
L 1191 1831 
Q 1191 1081 1462 751 
Q 1734 422 2344 422 
Q 2950 422 3222 751 
Q 3494 1081 3494 1831 
L 3494 4666 
L 4128 4666 
L 4128 1753 
Q 4128 841 3676 375 
Q 3225 -91 2344 -91 
Q 1459 -91 1007 375 
Q 556 841 556 1753 
L 556 4666 
z
" id="DejaVuSans-55" transform="scale(0.015625)"/>
      </defs>
      <use xlink:href="#DejaVuSans-4d"/>
      <use x="86.279297" xlink:href="#DejaVuSans-44"/>
      <use x="163.28125" xlink:href="#DejaVuSans-54"/>
      <use x="224.365234" xlink:href="#DejaVuSans-55"/>
     </g>
    </g>
   </g>
   <g id="matplotlib.axis_2">
    <g id="ytick_1">
     <g id="text_8">
      <!-- 0.50 -->
      <g style="fill:#262626;" transform="translate(34.4275 574.158045)scale(0.22 -0.22)">
       <defs>
        <path d="M 684 794 
L 1344 794 
L 1344 0 
L 684 0 
L 684 794 
z
" id="DejaVuSans-2e" transform="scale(0.015625)"/>
        <path d="M 691 4666 
L 3169 4666 
L 3169 4134 
L 1269 4134 
L 1269 2991 
Q 1406 3038 1543 3061 
Q 1681 3084 1819 3084 
Q 2600 3084 3056 2656 
Q 3513 2228 3513 1497 
Q 3513 744 3044 326 
Q 2575 -91 1722 -91 
Q 1428 -91 1123 -41 
Q 819 9 494 109 
L 494 744 
Q 775 591 1075 516 
Q 1375 441 1709 441 
Q 2250 441 2565 725 
Q 2881 1009 2881 1497 
Q 2881 1984 2565 2268 
Q 2250 2553 1709 2553 
Q 1456 2553 1204 2497 
Q 953 2441 691 2322 
L 691 4666 
z
" id="DejaVuSans-35" transform="scale(0.015625)"/>
       </defs>
       <use xlink:href="#DejaVuSans-30"/>
       <use x="63.623047" xlink:href="#DejaVuSans-2e"/>
       <use x="95.410156" xlink:href="#DejaVuSans-35"/>
       <use x="159.033203" xlink:href="#DejaVuSans-30"/>
      </g>
     </g>
    </g>
    <g id="ytick_2">
     <g id="text_9">
      <!-- 0.75 -->
      <g style="fill:#262626;" transform="translate(34.4275 510.011642)scale(0.22 -0.22)">
       <defs>
        <path d="M 525 4666 
L 3525 4666 
L 3525 4397 
L 1831 0 
L 1172 0 
L 2766 4134 
L 525 4134 
L 525 4666 
z
" id="DejaVuSans-37" transform="scale(0.015625)"/>
       </defs>
       <use xlink:href="#DejaVuSans-30"/>
       <use x="63.623047" xlink:href="#DejaVuSans-2e"/>
       <use x="95.410156" xlink:href="#DejaVuSans-37"/>
       <use x="159.033203" xlink:href="#DejaVuSans-35"/>
      </g>
     </g>
    </g>
    <g id="ytick_3">
     <g id="text_10">
      <!-- 1.00 -->
      <g style="fill:#262626;" transform="translate(34.4275 445.865238)scale(0.22 -0.22)">
       <use xlink:href="#DejaVuSans-31"/>
       <use x="63.623047" xlink:href="#DejaVuSans-2e"/>
       <use x="95.410156" xlink:href="#DejaVuSans-30"/>
       <use x="159.033203" xlink:href="#DejaVuSans-30"/>
      </g>
     </g>
    </g>
    <g id="ytick_4">
     <g id="text_11">
      <!-- 1.25 -->
      <g style="fill:#262626;" transform="translate(34.4275 381.718834)scale(0.22 -0.22)">
       <use xlink:href="#DejaVuSans-31"/>
       <use x="63.623047" xlink:href="#DejaVuSans-2e"/>
       <use x="95.410156" xlink:href="#DejaVuSans-32"/>
       <use x="159.033203" xlink:href="#DejaVuSans-35"/>
      </g>
     </g>
    </g>
    <g id="ytick_5">
     <g id="text_12">
      <!-- 1.50 -->
      <g style="fill:#262626;" transform="translate(34.4275 317.57243)scale(0.22 -0.22)">
       <use xlink:href="#DejaVuSans-31"/>
       <use x="63.623047" xlink:href="#DejaVuSans-2e"/>
       <use x="95.410156" xlink:href="#DejaVuSans-35"/>
       <use x="159.033203" xlink:href="#DejaVuSans-30"/>
      </g>
     </g>
    </g>
    <g id="ytick_6">
     <g id="text_13">
      <!-- 1.75 -->
      <g style="fill:#262626;" transform="translate(34.4275 253.426026)scale(0.22 -0.22)">
       <use xlink:href="#DejaVuSans-31"/>
       <use x="63.623047" xlink:href="#DejaVuSans-2e"/>
       <use x="95.410156" xlink:href="#DejaVuSans-37"/>
       <use x="159.033203" xlink:href="#DejaVuSans-35"/>
      </g>
     </g>
    </g>
    <g id="ytick_7">
     <g id="text_14">
      <!-- 2.00 -->
      <g style="fill:#262626;" transform="translate(34.4275 189.279622)scale(0.22 -0.22)">
       <use xlink:href="#DejaVuSans-32"/>
       <use x="63.623047" xlink:href="#DejaVuSans-2e"/>
       <use x="95.410156" xlink:href="#DejaVuSans-30"/>
       <use x="159.033203" xlink:href="#DejaVuSans-30"/>
      </g>
     </g>
    </g>
    <g id="ytick_8">
     <g id="text_15">
      <!-- 2.25 -->
      <g style="fill:#262626;" transform="translate(34.4275 125.133218)scale(0.22 -0.22)">
       <use xlink:href="#DejaVuSans-32"/>
       <use x="63.623047" xlink:href="#DejaVuSans-2e"/>
       <use x="95.410156" xlink:href="#DejaVuSans-32"/>
       <use x="159.033203" xlink:href="#DejaVuSans-35"/>
      </g>
     </g>
    </g>
    <g id="text_16">
     <!-- $E$ -->
     <g style="fill:#262626;" transform="translate(25.43625 363.813429)rotate(-90)scale(0.24 -0.24)">
      <defs>
       <path d="M 1081 4666 
L 4031 4666 
L 3928 4134 
L 1606 4134 
L 1338 2753 
L 3566 2753 
L 3463 2222 
L 1234 2222 
L 909 531 
L 3284 531 
L 3181 0 
L 172 0 
L 1081 4666 
z
" id="DejaVuSans-Oblique-45" transform="scale(0.015625)"/>
      </defs>
      <use transform="translate(0 0.09375)" xlink:href="#DejaVuSans-Oblique-45"/>
     </g>
    </g>
   </g>
   <g id="line2d_1">
    <path clip-path="url(#p544e06835a)" d="M 120.864122 498.91574 
L 121.083754 437.532845 
L 121.303386 543.082075 
L 121.523019 459.661096 
L 121.742651 458.497639 
L 121.962283 438.89012 
L 122.181915 527.08835 
L 122.401548 520.711705 
L 122.62118 432.844803 
L 123.060445 496.194487 
L 123.280077 460.98045 
L 123.499709 497.346948 
L 123.719341 486.205906 
L 123.938974 426.101743 
L 124.158606 502.49306 
L 124.378238 332.324133 
L 124.597871 476.606631 
L 124.817503 451.065274 
L 125.037135 337.058501 
L 125.256767 574.901178 
L 125.4764 444.00737 
L 125.696032 533.759991 
L 125.915664 507.880071 
L 126.135297 449.74528 
L 126.354929 298.684268 
L 126.574561 300.573251 
L 126.794193 482.377212 
L 127.233458 364.12986 
L 127.45309 523.042112 
L 127.672723 468.56997 
L 127.892355 456.287014 
L 128.111987 382.023547 
L 128.331619 512.247579 
L 128.990516 380.465333 
L 129.210149 284.362445 
L 129.429781 461.741562 
L 129.649413 306.265845 
L 129.869045 504.349878 
L 130.088678 340.995563 
L 130.30831 562.451398 
L 130.527942 366.690696 
L 130.747575 365.204364 
L 130.967207 455.707658 
L 131.186839 495.993042 
L 131.406471 267.812202 
L 131.845736 531.920886 
L 132.065368 472.327957 
L 132.724265 518.279233 
L 132.943897 301.587941 
L 133.16353 372.703188 
L 133.383162 347.592654 
L 133.602794 520.05949 
L 133.822426 373.657588 
L 134.042059 387.727923 
L 134.261691 463.310917 
L 134.481323 478.842171 
L 134.920588 379.008699 
L 135.14022 396.733165 
L 135.359852 347.569821 
L 135.799117 520.492788 
L 136.018749 501.394792 
L 136.238382 527.443985 
L 136.677646 413.743905 
L 136.897278 458.58838 
L 137.116911 396.875084 
L 137.336543 442.098297 
L 137.556175 390.362361 
L 138.215072 528.508501 
L 138.434704 456.785596 
L 138.654337 455.070647 
L 138.873969 473.355219 
L 139.093601 472.287029 
L 139.313234 493.99172 
L 139.752498 387.275449 
L 139.97213 407.301082 
L 140.191763 539.028617 
L 140.411395 422.869696 
L 140.631027 423.009648 
L 141.070292 509.69301 
L 141.289924 416.353731 
L 141.509556 450.515727 
L 141.729189 459.826613 
L 141.948821 420.926163 
L 142.168453 415.072058 
L 142.388086 446.564074 
L 142.607718 514.50476 
L 142.82735 543.362418 
L 143.046982 421.115018 
L 143.266615 512.38843 
L 143.486247 486.006281 
L 143.705879 491.421604 
L 143.925512 408.763638 
L 144.145144 422.053903 
L 144.364776 450.977716 
L 144.584408 342.027569 
L 144.804041 473.777492 
L 145.023673 471.248239 
L 145.243305 475.640943 
L 145.462938 453.783185 
L 145.68257 485.571366 
L 145.902202 274.951135 
L 146.121834 394.534964 
L 146.561099 407.569897 
L 147.000364 436.651045 
L 147.219996 356.017495 
L 147.439628 361.763483 
L 147.65926 459.997849 
L 147.878893 419.001873 
L 148.098525 464.81418 
L 148.318157 435.316291 
L 148.537789 504.318294 
L 148.757422 501.243566 
L 148.977054 346.778835 
L 149.196686 471.284214 
L 149.635951 398.16842 
L 149.855583 316.940405 
L 150.075215 484.000749 
L 150.294848 432.741983 
L 150.51448 552.18847 
L 150.734112 514.497459 
L 151.173377 317.07249 
L 151.393009 433.868025 
L 151.612641 375.420162 
L 151.832274 397.461487 
L 152.051906 361.706312 
L 152.271538 401.678966 
L 152.491171 407.397293 
L 152.710803 508.863436 
L 152.930435 544.679646 
L 153.150067 519.72794 
L 153.3697 529.474722 
L 153.589332 375.955685 
L 153.808964 471.962986 
L 154.028597 439.010968 
L 154.248229 346.690658 
L 154.467861 511.208663 
L 154.907126 371.171096 
L 155.126758 484.706924 
L 155.34639 455.762454 
L 155.566023 500.662672 
L 155.785655 389.020601 
L 156.005287 449.844042 
L 156.444552 428.460874 
L 156.664184 473.974165 
L 156.883816 462.489744 
L 157.103449 513.778261 
L 157.323081 477.997481 
L 157.542713 480.886653 
L 157.762345 444.715008 
L 157.981978 467.459367 
L 158.20161 349.817367 
L 158.421242 362.397699 
L 158.640875 288.187339 
L 159.080139 521.112275 
L 159.299771 512.91389 
L 159.519404 440.258488 
L 159.739036 422.086597 
L 159.958668 485.065712 
L 160.178301 482.601151 
L 160.397933 452.599047 
L 160.617565 400.289379 
L 160.837197 405.044748 
L 161.05683 437.042924 
L 161.276462 488.438736 
L 161.496094 463.94716 
L 161.715727 470.211397 
L 161.935359 539.468911 
L 162.154991 528.283153 
L 162.374623 560.587057 
L 162.594256 442.480912 
L 163.03352 385.137911 
L 163.253153 467.928496 
L 163.692417 393.255439 
L 163.912049 425.958623 
L 164.131682 397.346916 
L 164.351314 463.414956 
L 164.570946 400.025055 
L 164.790578 407.259999 
L 165.010211 421.946021 
L 165.229843 506.513962 
L 165.449475 467.958681 
L 165.669108 359.307061 
L 165.88874 526.446261 
L 166.108372 394.525152 
L 166.328004 390.475963 
L 166.767269 459.559261 
L 166.986901 417.333605 
L 167.206534 457.053472 
L 167.426166 474.811617 
L 168.085063 334.803817 
L 168.524327 524.118874 
L 168.74396 384.555204 
L 168.963592 385.919876 
L 169.183224 440.853625 
L 169.402856 527.665984 
L 169.622489 437.612239 
L 169.842121 474.036285 
L 170.281386 276.837793 
L 170.501018 464.089791 
L 170.72065 153.251349 
L 170.940282 509.008316 
L 171.159915 369.693523 
L 171.379547 388.720467 
L 171.599179 154.284884 
L 172.038444 522.084245 
L 172.258076 442.153755 
L 172.477708 466.89717 
L 172.697341 431.614511 
L 172.916973 483.478345 
L 173.136605 399.617287 
L 173.57587 484.28599 
L 173.795502 413.277524 
L 174.015134 386.647007 
L 174.234767 431.145492 
L 174.454399 440.992363 
L 174.674031 505.280038 
L 174.893664 414.618255 
L 175.113296 439.181264 
L 175.332928 332.993053 
L 175.55256 524.075076 
L 175.772193 432.716925 
L 175.991825 432.88968 
L 176.211457 419.810363 
L 176.43109 482.723132 
L 176.650722 393.058164 
L 176.870354 482.201 
L 177.089986 392.747886 
L 177.309619 479.054362 
L 177.529251 395.5173 
L 177.748883 537.324788 
L 178.188148 353.076851 
L 178.40778 515.801067 
L 178.847045 425.651439 
L 179.066677 433.11809 
L 179.286309 419.604864 
L 179.505941 505.368322 
L 179.725574 430.703168 
L 179.945206 454.770507 
L 180.384471 413.381021 
L 180.604103 388.067028 
L 181.043367 430.802083 
L 181.263 496.070439 
L 181.702264 382.743159 
L 181.921897 510.098528 
L 182.141529 396.08071 
L 182.361161 362.966241 
L 182.580793 419.077078 
L 182.800426 334.386446 
L 183.020058 466.164998 
L 183.23969 398.77493 
L 183.459323 396.27668 
L 183.678955 379.697668 
L 183.898587 407.055149 
L 184.118219 504.297787 
L 184.337852 448.928756 
L 184.557484 539.361172 
L 184.996749 437.739617 
L 185.216381 390.34631 
L 185.436013 500.263157 
L 185.655645 499.175038 
L 186.09491 460.863808 
L 186.314542 367.489577 
L 186.534175 485.835484 
L 186.753807 488.14412 
L 187.193071 369.98682 
L 187.412704 385.572965 
L 187.632336 462.289186 
L 187.851968 367.58487 
L 188.071601 457.636114 
L 188.291233 334.603925 
L 188.510865 477.27002 
L 188.95013 433.556062 
L 189.169762 364.135909 
L 189.609027 560.986304 
L 189.828659 447.147538 
L 190.048291 452.342455 
L 190.267923 451.461987 
L 190.487556 428.461311 
L 190.707188 306.013202 
L 190.92682 488.160069 
L 191.146453 488.938774 
L 191.366085 468.818144 
L 191.805349 498.188537 
L 192.024982 293.901411 
L 192.244614 385.642113 
L 192.464246 368.262271 
L 192.683879 374.991899 
L 192.903511 429.759966 
L 193.123143 443.655766 
L 193.342775 388.468163 
L 193.562408 451.344496 
L 193.78204 381.16945 
L 194.001672 403.763408 
L 194.221305 397.205833 
L 194.440937 404.994238 
L 194.660569 389.442348 
L 194.880201 348.242089 
L 195.099834 434.750174 
L 195.319466 415.258652 
L 195.539098 374.802157 
L 195.75873 465.825358 
L 196.197995 285.215507 
L 196.417627 438.101779 
L 196.856892 474.607594 
L 197.076524 358.828853 
L 197.296156 452.278465 
L 197.515789 491.189494 
L 197.735421 422.542464 
L 197.955053 416.706631 
L 198.174686 448.332751 
L 198.394318 434.727449 
L 198.61395 411.530263 
L 198.833582 274.456188 
L 199.053215 469.602163 
L 199.492479 319.759833 
L 199.712112 507.458106 
L 200.151376 387.35492 
L 200.371008 469.482961 
L 200.590641 447.641074 
L 200.810273 531.8219 
L 201.029905 432.437485 
L 201.249538 506.862095 
L 201.46917 524.734864 
L 201.688802 518.234985 
L 202.128067 426.340682 
L 202.347699 403.318354 
L 202.567331 338.606705 
L 202.786964 453.16712 
L 203.006596 453.528247 
L 203.226228 392.892737 
L 203.44586 504.722834 
L 203.665493 433.843178 
L 203.885125 479.141661 
L 204.104757 376.91943 
L 204.32439 421.561617 
L 204.544022 528.042591 
L 204.763654 371.652743 
L 204.983286 441.665001 
L 205.202919 439.06999 
L 205.422551 444.291943 
L 205.642183 461.179889 
L 205.861816 453.147398 
L 206.081448 423.320004 
L 206.30108 359.942184 
L 206.520712 437.893689 
L 206.740345 450.71488 
L 206.959977 481.192267 
L 207.179609 441.796959 
L 207.399242 482.3176 
L 207.618874 482.465484 
L 207.838506 503.04624 
L 208.058138 400.221583 
L 208.277771 485.78874 
L 208.497403 481.478109 
L 208.717035 458.834431 
L 208.936668 378.603363 
L 209.1563 476.915049 
L 209.375932 449.264735 
L 209.595564 361.473805 
L 209.815197 426.921078 
L 210.034829 533.501483 
L 210.254461 458.285653 
L 210.474093 512.677311 
L 210.693726 475.033461 
L 210.913358 379.549566 
L 211.13299 459.532186 
L 211.352623 448.617253 
L 211.572255 360.513138 
L 211.791887 327.717106 
L 212.011519 452.475279 
L 212.231152 347.791673 
L 212.450784 475.984703 
L 212.670416 459.021885 
L 212.890049 510.227353 
L 213.109681 496.178321 
L 213.329313 508.6425 
L 213.548945 497.416358 
L 213.98821 448.887986 
L 214.207842 360.196946 
L 214.427475 385.468055 
L 214.647107 351.580358 
L 214.866739 478.196733 
L 215.086371 461.471114 
L 215.306004 460.266814 
L 215.525636 312.745098 
L 215.745268 475.614676 
L 215.964901 456.634549 
L 216.184533 404.468041 
L 216.404165 304.470519 
L 216.84343 475.387746 
L 217.063062 470.964262 
L 217.282694 344.392804 
L 217.502327 409.073862 
L 217.721959 306.817808 
L 217.941591 283.593549 
L 218.380856 503.834952 
L 218.600488 391.064023 
L 218.82012 411.032755 
L 219.039753 500.28451 
L 219.259385 415.165974 
L 219.479017 389.483163 
L 219.698649 293.695911 
L 219.918282 320.902887 
L 220.137914 472.051381 
L 220.357546 466.234705 
L 220.577179 498.483685 
L 220.796811 400.931124 
L 221.016443 417.143109 
L 221.236075 519.327904 
L 221.455708 461.495531 
L 221.67534 442.509804 
L 221.894972 387.996688 
L 222.114605 474.16897 
L 222.553869 513.258499 
L 222.773501 494.216165 
L 222.993134 409.799492 
L 223.212766 500.74494 
L 223.432398 505.358532 
L 223.652031 430.705268 
L 223.871663 459.406309 
L 224.091295 448.54879 
L 224.310927 466.024885 
L 224.53056 454.294562 
L 224.750192 516.568433 
L 224.969824 383.276516 
L 225.409089 288.18033 
L 225.848353 560.750203 
L 226.067986 512.709445 
L 226.287618 512.201161 
L 226.726882 396.450296 
L 226.946515 436.803296 
L 227.166147 449.564929 
L 227.385779 380.697242 
L 227.605412 518.308903 
L 227.825044 525.141912 
L 228.044676 359.460075 
L 228.264308 522.292182 
L 228.483941 394.492636 
L 228.703573 386.845734 
L 228.923205 391.763837 
L 229.142838 452.000582 
L 229.36247 471.630051 
L 229.582102 470.629838 
L 229.801734 431.413851 
L 230.021367 332.479951 
L 230.240999 460.812467 
L 230.460631 363.67793 
L 230.680264 357.092195 
L 230.899896 513.925513 
L 231.119528 462.374341 
L 231.33916 552.214933 
L 231.558793 410.79039 
L 231.998057 520.485434 
L 232.21769 555.365508 
L 232.437322 514.87611 
L 232.656954 434.209871 
L 232.876586 486.755285 
L 233.315851 376.914701 
L 233.535483 457.526333 
L 233.755116 491.942993 
L 234.19438 457.82163 
L 234.414012 541.473883 
L 234.633645 434.170619 
L 234.853277 459.747043 
L 235.072909 399.602088 
L 235.512174 525.427711 
L 235.731806 423.140011 
L 235.951438 460.684417 
L 236.171071 518.503409 
L 236.390703 487.897661 
L 236.610335 510.410417 
L 236.829968 439.836861 
L 237.0496 524.399483 
L 237.269232 381.774425 
L 237.488864 549.626841 
L 237.708497 470.756154 
L 237.928129 448.018309 
L 238.367394 496.368549 
L 238.587026 398.381303 
L 238.806658 508.589736 
L 239.02629 258.319677 
L 239.245923 388.303018 
L 239.465555 441.131662 
L 239.685187 417.486249 
L 239.90482 406.964237 
L 240.124452 456.563588 
L 240.344084 423.87158 
L 240.563716 475.68479 
L 240.783349 333.319018 
L 241.002981 535.393602 
L 241.222613 463.194927 
L 241.442245 326.342898 
L 242.101142 481.170116 
L 242.320775 362.546446 
L 242.540407 522.881565 
L 242.760039 537.773389 
L 242.979671 485.923821 
L 243.199304 527.939141 
L 243.418936 509.483158 
L 243.638568 438.358623 
L 244.077833 469.116757 
L 244.297465 383.073591 
L 244.517097 483.26915 
L 244.73673 410.32828 
L 244.956362 406.861155 
L 245.175994 435.56776 
L 245.395627 388.07505 
L 245.615259 437.882399 
L 246.054523 339.357352 
L 246.274156 490.81116 
L 246.493788 466.945719 
L 246.71342 475.417731 
L 246.933053 517.934221 
L 247.372317 394.713377 
L 247.811582 471.936882 
L 248.031214 541.434369 
L 248.250846 371.769112 
L 248.470479 388.158148 
L 248.690111 443.326282 
L 248.909743 305.784475 
L 249.129375 481.951692 
L 249.349008 532.619768 
L 249.56864 399.248636 
L 249.788272 403.637552 
L 250.007905 491.22958 
L 250.227537 403.418212 
L 250.447169 487.680821 
L 250.886434 403.212218 
L 251.325698 527.98775 
L 251.545331 340.849374 
L 251.764963 450.703046 
L 251.984595 448.40642 
L 252.204227 486.872527 
L 252.42386 422.455027 
L 252.643492 438.486379 
L 252.863124 493.901404 
L 253.082757 508.949931 
L 253.302389 533.184898 
L 253.522021 518.143117 
L 253.741653 415.947533 
L 253.961286 414.765161 
L 254.40055 541.172671 
L 254.620183 508.936537 
L 254.839815 503.592746 
L 255.059447 508.688909 
L 255.279079 476.559616 
L 255.498712 468.722078 
L 255.718344 385.289821 
L 255.937976 371.491407 
L 256.157608 558.814413 
L 256.377241 464.714019 
L 256.596873 453.063834 
L 256.816505 496.217799 
L 257.25577 426.969885 
L 257.475402 336.990926 
L 257.695034 559.604348 
L 257.914667 351.910374 
L 258.353931 463.012926 
L 258.573564 510.704971 
L 258.793196 412.696855 
L 259.012828 393.355606 
L 259.452093 507.96187 
L 259.671725 470.028806 
L 259.891357 482.874124 
L 260.11099 471.115281 
L 260.330622 516.014826 
L 260.550254 423.404307 
L 260.769886 447.864034 
L 260.989519 455.599042 
L 261.428783 398.074512 
L 261.648416 514.774875 
L 261.868048 436.833082 
L 262.08768 479.155855 
L 262.307312 466.610858 
L 262.526945 488.969896 
L 262.746577 488.485092 
L 263.185842 421.616911 
L 263.625106 471.773038 
L 263.844738 468.027172 
L 264.064371 295.769828 
L 264.284003 438.254887 
L 264.503635 343.864522 
L 264.723268 519.193999 
L 264.9429 506.070994 
L 265.162532 388.568985 
L 265.382164 459.680029 
L 265.601797 384.670068 
L 265.821429 473.462041 
L 266.041061 503.771908 
L 266.260694 399.445905 
L 266.480326 407.943888 
L 266.699958 383.226798 
L 266.91959 526.152605 
L 267.139223 432.620392 
L 267.358855 402.384699 
L 267.578487 415.062282 
L 267.79812 332.555211 
L 268.017752 367.86572 
L 268.237384 478.603538 
L 268.457016 384.574169 
L 268.676649 528.52158 
L 268.896281 403.074868 
L 269.115913 374.510672 
L 269.335546 438.842606 
L 269.555178 223.349642 
L 269.77481 469.629921 
L 269.994442 422.243123 
L 270.214075 466.422838 
L 270.433707 467.137674 
L 270.653339 485.074987 
L 270.872972 269.076548 
L 271.092604 322.704723 
L 271.312236 447.479993 
L 271.531868 464.056811 
L 271.751501 441.339275 
L 271.971133 474.69808 
L 272.190765 369.013021 
L 272.410397 536.012565 
L 272.63003 417.334681 
L 272.849662 477.999587 
L 273.069294 352.074603 
L 273.288927 493.414584 
L 273.508559 425.216861 
L 273.728191 538.567076 
L 273.947823 461.956401 
L 274.167456 431.035536 
L 274.60672 466.414237 
L 275.045985 345.243381 
L 275.265617 450.57088 
L 275.485249 391.400955 
L 275.704882 486.996118 
L 275.924514 515.452532 
L 276.144146 412.395317 
L 276.363779 427.819039 
L 276.583411 405.518179 
L 276.803043 449.994707 
L 277.022675 422.053041 
L 277.242308 297.680165 
L 277.46194 534.594562 
L 277.681572 379.924787 
L 277.901205 475.840938 
L 278.120837 427.357252 
L 278.340469 435.846837 
L 278.560101 345.16045 
L 278.779734 440.786346 
L 278.999366 246.529348 
L 279.218998 473.337165 
L 279.438631 451.255583 
L 279.658263 303.077527 
L 279.877895 356.621507 
L 280.097527 491.50158 
L 280.31716 504.853354 
L 280.536792 266.370148 
L 280.976057 476.504244 
L 281.195689 492.561364 
L 281.415321 423.393524 
L 281.634953 469.041085 
L 281.854586 428.360234 
L 282.074218 432.18799 
L 282.29385 511.975313 
L 282.513483 363.470394 
L 282.733115 427.865009 
L 282.952747 354.220649 
L 283.172379 546.156621 
L 283.392012 429.232389 
L 283.611644 454.718249 
L 283.831276 461.134041 
L 284.050909 397.306371 
L 284.270541 451.14032 
L 284.490173 456.490746 
L 284.709805 394.766206 
L 284.929438 404.753013 
L 285.14907 432.765184 
L 285.368702 432.077268 
L 285.807967 407.272455 
L 286.027599 509.173152 
L 286.247231 461.778633 
L 286.466864 323.355213 
L 286.686496 426.597409 
L 286.906128 395.268101 
L 287.12576 488.388497 
L 287.345393 367.251697 
L 287.565025 511.19963 
L 287.784657 438.910204 
L 288.00429 404.15535 
L 288.223922 469.476142 
L 288.443554 391.508105 
L 288.663186 465.627108 
L 288.882819 414.774263 
L 289.102451 507.498135 
L 289.322083 553.039057 
L 289.541716 467.531979 
L 289.761348 298.755671 
L 289.98098 450.097811 
L 290.200612 499.670416 
L 290.639877 404.456022 
L 290.859509 466.862532 
L 291.079142 358.898229 
L 291.298774 440.680495 
L 291.518406 290.618235 
L 291.957671 507.083576 
L 292.177303 371.181627 
L 292.396935 355.996135 
L 292.8362 498.434802 
L 293.055832 315.334577 
L 293.495097 498.971962 
L 293.714729 458.262976 
L 293.934361 464.025264 
L 294.153994 392.342154 
L 294.373626 444.728543 
L 294.593258 363.770407 
L 294.81289 406.960284 
L 295.032523 530.066625 
L 295.252155 489.461291 
L 295.471787 417.162204 
L 295.69142 436.457955 
L 295.911052 505.791289 
L 296.130684 513.309905 
L 296.569949 412.927147 
L 296.789581 422.852748 
L 297.009213 440.824183 
L 297.228846 343.637054 
L 297.448478 429.910631 
L 297.66811 313.010002 
L 297.887742 445.019161 
L 298.107375 487.836754 
L 298.327007 468.452264 
L 298.546639 392.422811 
L 298.766272 474.495318 
L 298.985904 354.944576 
L 299.425168 458.742842 
L 299.644801 415.09143 
L 299.864433 349.148888 
L 300.084065 489.64 
L 300.303698 432.043981 
L 300.52333 426.614354 
L 300.742962 467.426425 
L 300.962594 374.947953 
L 301.401859 507.347221 
L 301.621491 346.496006 
L 302.060756 482.490903 
L 302.280388 474.744808 
L 302.50002 462.742729 
L 302.719653 416.106314 
L 302.939285 428.917469 
L 303.158917 356.210321 
L 303.378549 370.279843 
L 303.598182 408.634875 
L 303.817814 418.819218 
L 304.037446 300.255929 
L 304.257079 519.605744 
L 304.696343 347.974074 
L 304.915975 439.736907 
L 305.135608 446.30418 
L 305.35524 319.156308 
L 305.574872 496.994582 
L 305.794505 435.535448 
L 306.014137 481.292247 
L 306.233769 409.016464 
L 306.453401 499.324058 
L 306.673034 496.154081 
L 306.892666 430.766798 
L 307.112298 427.914494 
L 307.331931 417.420832 
L 307.551563 427.451093 
L 307.771195 475.657004 
L 307.990827 460.709358 
L 308.21046 259.928955 
L 308.430092 535.583415 
L 308.649724 506.552123 
L 309.308621 307.145885 
L 309.528253 476.708144 
L 309.747886 499.235396 
L 309.967518 433.324106 
L 310.18715 474.766717 
L 310.406783 391.608878 
L 310.626415 442.087172 
L 310.846047 449.341031 
L 311.285312 411.083842 
L 311.504944 390.859942 
L 311.724576 464.890498 
L 311.944209 409.503828 
L 312.163841 451.266895 
L 312.383473 382.728968 
L 312.603105 387.515624 
L 312.822738 515.935457 
L 313.04237 435.059699 
L 313.262002 427.174026 
L 313.481635 521.373494 
L 313.701267 505.928187 
L 313.920899 368.861738 
L 314.360164 396.663355 
L 314.579796 383.191111 
L 314.799428 458.785681 
L 315.019061 468.565779 
L 315.238693 463.59302 
L 315.458325 450.60392 
L 315.677957 518.517691 
L 315.89759 465.024032 
L 316.117222 369.186427 
L 316.336854 494.239213 
L 316.556487 357.203195 
L 316.776119 413.640834 
L 316.995751 547.795187 
L 317.215383 464.063214 
L 317.435016 290.618644 
L 317.654648 511.737839 
L 318.313545 419.573522 
L 318.533177 456.231612 
L 318.752809 423.286956 
L 318.972442 460.071785 
L 319.192074 361.567339 
L 319.411706 461.591028 
L 319.850971 415.721163 
L 320.070603 461.812919 
L 320.290235 556.107131 
L 320.509868 513.565893 
L 320.7295 433.150105 
L 320.949132 454.814413 
L 321.168764 372.824001 
L 321.388397 361.280654 
L 321.608029 310.64544 
L 321.827661 411.179855 
L 322.047294 452.227 
L 322.266926 403.674044 
L 322.486558 482.753159 
L 322.70619 414.528319 
L 322.925823 423.909096 
L 323.145455 420.54669 
L 323.365087 386.786175 
L 323.58472 446.602344 
L 323.804352 455.0942 
L 324.023984 508.73382 
L 324.243616 348.275921 
L 324.463249 426.702914 
L 324.682881 412.958521 
L 324.902513 512.677614 
L 325.122146 393.43642 
L 325.56141 343.016346 
L 325.781042 457.767799 
L 326.000675 389.451346 
L 326.220307 493.094967 
L 326.439939 281.237867 
L 326.659572 496.74132 
L 326.879204 468.287251 
L 327.098836 466.746718 
L 327.318468 546.393388 
L 327.538101 491.402184 
L 327.757733 493.769177 
L 327.977365 479.042445 
L 328.196998 420.593513 
L 328.41663 324.557745 
L 328.636262 479.124138 
L 328.855894 405.72514 
L 329.075527 444.840794 
L 329.295159 440.749909 
L 329.514791 456.827222 
L 329.954056 376.935038 
L 330.173688 429.194833 
L 330.39332 549.832262 
L 330.612953 494.468468 
L 330.832585 404.81396 
L 331.052217 508.873173 
L 331.27185 354.004006 
L 331.491482 447.361647 
L 331.711114 424.842862 
L 331.930746 417.581327 
L 332.150379 459.037306 
L 332.370011 439.016264 
L 332.589643 434.835042 
L 332.809275 365.645311 
L 333.24854 544.64938 
L 333.468172 455.719095 
L 333.687805 486.296514 
L 333.907437 401.617571 
L 334.127069 449.958224 
L 334.346701 345.927414 
L 334.566334 413.666731 
L 334.785966 445.512089 
L 335.005598 394.282928 
L 335.225231 376.543377 
L 335.444863 428.226805 
L 335.664495 435.440184 
L 336.10376 389.923999 
L 336.323392 428.315869 
L 336.543024 435.018445 
L 336.762657 508.880003 
L 336.982289 131.763818 
L 337.201921 436.791339 
L 337.421553 465.989464 
L 337.641186 397.292615 
L 337.860818 542.536542 
L 338.08045 411.782666 
L 338.300083 415.288048 
L 338.519715 535.745474 
L 338.739347 483.71473 
L 338.958979 469.212621 
L 339.178612 393.097603 
L 339.398244 246.294327 
L 339.617876 451.575778 
L 339.837509 462.239707 
L 340.057141 430.260594 
L 340.496405 493.945695 
L 340.716038 389.630495 
L 340.93567 417.579655 
L 341.155302 409.995475 
L 341.594567 523.054022 
L 341.814199 476.018788 
L 342.033831 510.13209 
L 342.253464 510.249587 
L 342.473096 470.908338 
L 342.912361 351.046526 
L 343.131993 382.444837 
L 343.351625 483.354629 
L 343.571257 393.530961 
L 343.79089 457.320151 
L 344.230154 360.47816 
L 344.449787 387.344835 
L 344.669419 283.318571 
L 344.889051 488.138702 
L 345.108683 409.5321 
L 345.328316 458.536932 
L 345.547948 456.518954 
L 345.76758 502.885604 
L 345.987213 346.458108 
L 346.206845 485.652792 
L 346.646109 447.733085 
L 346.865742 329.496396 
L 347.305006 488.621047 
L 347.524639 411.150603 
L 347.744271 537.762868 
L 347.963903 348.569326 
L 348.183535 437.820063 
L 348.403168 433.159611 
L 348.6228 445.759607 
L 348.842432 445.7789 
L 349.062064 324.731338 
L 349.281697 505.105572 
L 349.501329 479.803686 
L 349.720961 523.226537 
L 349.940594 460.099695 
L 350.160226 479.988946 
L 350.379858 400.959186 
L 350.819123 468.386923 
L 351.038755 397.115555 
L 351.258387 433.758443 
L 351.47802 528.886707 
L 351.697652 398.757795 
L 351.917284 443.148344 
L 352.136916 522.987651 
L 352.356549 537.816762 
L 352.576181 462.912915 
L 352.795813 516.93975 
L 353.015446 434.953662 
L 353.235078 484.140183 
L 353.45471 416.790386 
L 353.674342 474.061462 
L 353.893975 411.167451 
L 354.113607 401.06264 
L 354.552872 522.434684 
L 354.772504 441.632691 
L 354.992136 438.543998 
L 355.211768 375.424639 
L 355.431401 488.085662 
L 355.651033 494.105249 
L 356.090298 419.094275 
L 356.30993 419.955836 
L 356.529562 407.409095 
L 356.968827 473.608147 
L 357.188459 367.145143 
L 357.408091 462.580993 
L 357.627724 416.483221 
L 357.847356 463.565799 
L 358.066988 340.305934 
L 358.28662 410.527279 
L 358.506253 429.681363 
L 358.725885 355.944735 
L 358.945517 408.455175 
L 359.16515 392.333066 
L 359.384782 516.410483 
L 359.604414 481.808763 
L 359.824046 492.48644 
L 360.043679 483.296392 
L 360.263311 375.568033 
L 360.482943 456.864444 
L 360.702576 383.526029 
L 360.922208 370.47936 
L 361.14184 486.467564 
L 361.361472 417.599997 
L 361.581105 462.401367 
L 361.800737 551.373104 
L 362.020369 396.412864 
L 362.240002 403.99524 
L 362.459634 371.871347 
L 362.679266 446.732015 
L 362.898898 335.472698 
L 363.118531 468.754823 
L 363.338163 442.364932 
L 363.557795 509.832741 
L 363.777427 333.290189 
L 364.216692 531.386079 
L 364.436324 452.372684 
L 364.655957 433.094202 
L 364.875589 288.239445 
L 365.314853 481.386436 
L 365.534486 418.923706 
L 365.754118 527.268676 
L 366.193383 332.740282 
L 366.413015 405.66124 
L 366.632647 403.208183 
L 366.852279 405.272896 
L 367.071912 449.073279 
L 367.291544 438.213472 
L 367.511176 353.550152 
L 367.730809 414.423104 
L 367.950441 437.218069 
L 368.170073 424.748476 
L 368.389705 438.713719 
L 368.609338 399.769067 
L 368.82897 491.94718 
L 369.048602 449.615074 
L 369.268235 467.304087 
L 369.487867 494.487978 
L 369.707499 436.804925 
L 369.927131 447.467451 
L 370.146764 334.666382 
L 370.366396 475.316096 
L 370.586028 326.860125 
L 370.805661 452.734048 
L 371.025293 404.171779 
L 371.244925 467.747783 
L 371.464557 414.616601 
L 371.68419 477.425065 
L 371.903822 431.906283 
L 372.123454 491.217264 
L 372.343087 460.195958 
L 372.562719 509.440372 
L 372.782351 529.025949 
L 373.001983 488.934644 
L 373.221616 414.048867 
L 373.441248 500.334846 
L 373.66088 439.590814 
L 373.880513 425.551727 
L 374.100145 499.195839 
L 374.319777 438.170209 
L 374.539409 445.525546 
L 374.759042 301.413994 
L 374.978674 362.822924 
L 375.198306 483.648277 
L 375.417939 485.398053 
L 375.637571 548.888709 
L 375.857203 517.596962 
L 376.076835 408.6437 
L 376.5161 496.963028 
L 376.735732 416.102525 
L 376.955365 515.68934 
L 377.174997 480.510586 
L 377.394629 505.258317 
L 377.614261 448.502035 
L 377.833894 431.929139 
L 378.053526 463.669912 
L 378.492791 349.627154 
L 378.712423 391.061156 
L 378.932055 455.67919 
L 379.151687 415.679573 
L 379.37132 514.501632 
L 379.590952 428.042325 
L 379.810584 462.693591 
L 380.249849 380.613997 
L 380.469481 498.901199 
L 380.689113 457.601048 
L 380.908746 450.57729 
L 381.128378 386.274694 
L 381.34801 436.341948 
L 381.567642 513.590949 
L 381.787275 336.215751 
L 382.006907 445.983825 
L 382.226539 474.443666 
L 382.446172 384.297665 
L 382.665804 497.817995 
L 382.885436 439.024557 
L 383.324701 532.907044 
L 383.544333 499.749926 
L 383.763965 498.966245 
L 383.983598 491.254457 
L 384.20323 423.455388 
L 384.422862 449.460272 
L 384.642494 529.791427 
L 384.862127 520.018711 
L 385.301391 350.426852 
L 385.521024 453.396262 
L 385.740656 438.866227 
L 385.960288 492.295324 
L 386.619185 421.187203 
L 386.838817 344.397321 
L 387.05845 475.923828 
L 387.497714 430.68239 
L 387.717346 439.15757 
L 387.936979 442.319944 
L 388.156611 478.489972 
L 388.376243 433.32321 
L 388.595876 518.136579 
L 388.815508 373.354873 
L 389.03514 421.054131 
L 389.254772 431.583573 
L 389.474405 475.279905 
L 389.694037 349.594841 
L 389.913669 445.135728 
L 390.133302 472.096671 
L 390.572566 329.645164 
L 390.792198 462.334998 
L 391.011831 335.714796 
L 391.231463 506.754879 
L 391.451095 462.293423 
L 391.670728 455.314877 
L 391.89036 505.700504 
L 392.109992 431.039812 
L 392.329624 491.317475 
L 392.549257 412.493355 
L 392.768889 504.022284 
L 392.988521 440.841531 
L 393.208154 453.292434 
L 393.427786 405.348322 
L 393.647418 504.407035 
L 393.86705 474.841643 
L 394.086683 500.458828 
L 394.306315 457.097568 
L 394.525947 450.67311 
L 394.745579 430.489646 
L 395.184844 511.713309 
L 395.404476 437.879102 
L 395.624109 532.300286 
L 395.843741 529.028111 
L 396.283005 409.14658 
L 396.502638 413.453903 
L 396.72227 512.819534 
L 396.941902 492.66655 
L 397.161535 434.743546 
L 397.381167 417.144117 
L 397.600799 470.625012 
L 397.820431 470.997711 
L 398.040064 359.378839 
L 398.259696 436.846862 
L 398.479328 360.740165 
L 398.698961 420.120005 
L 398.918593 407.641307 
L 399.357857 500.941022 
L 399.57749 368.955199 
L 399.797122 530.629704 
L 400.016754 559.948188 
L 400.236387 473.039178 
L 400.456019 501.975587 
L 400.675651 458.045621 
L 400.895283 533.655405 
L 401.114916 435.551065 
L 401.334548 512.230353 
L 401.55418 387.804502 
L 401.773813 477.239016 
L 401.993445 389.550603 
L 402.213077 492.772073 
L 402.432709 429.82268 
L 402.652342 507.313202 
L 402.871974 389.07578 
L 403.311239 489.391736 
L 403.750503 535.036363 
L 403.970135 502.906562 
L 404.189768 494.376184 
L 404.4094 450.613382 
L 404.629032 458.938256 
L 404.848665 428.159835 
L 405.068297 421.743175 
L 405.287929 408.874804 
L 405.727194 489.604335 
L 405.946826 511.620953 
L 406.166458 474.17425 
L 406.386091 520.421678 
L 406.605723 466.214062 
L 406.825355 231.834571 
L 407.044987 398.494324 
L 407.26462 430.772284 
L 407.484252 511.346179 
L 407.703884 400.927391 
L 408.143149 529.110695 
L 408.362781 371.614014 
L 408.802046 302.573377 
L 409.021678 455.796187 
L 409.24131 416.382314 
L 409.460943 400.783654 
L 409.680575 524.117651 
L 409.900207 413.366628 
L 410.119839 405.388717 
L 410.339472 536.759704 
L 410.559104 440.385835 
L 410.778736 456.865708 
L 410.998368 445.106393 
L 411.218001 529.31219 
L 411.437633 408.41512 
L 411.657265 514.396986 
L 411.876898 536.211123 
L 412.316162 327.230614 
L 412.535794 422.84752 
L 412.755427 449.778895 
L 412.975059 436.497014 
L 413.194691 382.670249 
L 413.414324 447.152247 
L 413.633956 431.673224 
L 413.853588 537.705596 
L 414.292853 388.625038 
L 414.512485 520.312347 
L 414.95175 425.124732 
L 415.171382 495.812259 
L 415.391014 462.819727 
L 415.610646 526.120903 
L 415.830279 432.601236 
L 416.049911 444.723888 
L 416.269543 493.95965 
L 416.489176 352.572357 
L 416.92844 517.446697 
L 417.148072 530.821662 
L 417.367705 433.648354 
L 417.587337 473.809072 
L 417.806969 409.195876 
L 418.026602 458.761904 
L 418.246234 417.550172 
L 418.465866 483.375287 
L 418.685498 507.830451 
L 418.905131 428.099444 
L 419.124763 414.748311 
L 419.344395 310.520528 
L 419.564028 480.045278 
L 419.78366 436.456968 
L 420.222924 513.60492 
L 420.442557 363.009391 
L 420.881821 553.402532 
L 421.101454 476.094697 
L 421.321086 504.229687 
L 421.540718 454.369503 
L 421.76035 528.6159 
L 421.979983 478.669143 
L 422.419247 513.205871 
L 422.63888 368.668765 
L 422.858512 460.454777 
L 423.078144 440.717382 
L 423.517409 534.5676 
L 423.956673 375.494779 
L 424.176306 493.791527 
L 424.395938 492.217159 
L 424.61557 497.621918 
L 424.835202 480.610664 
L 425.054835 386.746269 
L 425.274467 465.587505 
L 425.494099 442.922062 
L 425.713731 447.728922 
L 425.933364 490.560543 
L 426.152996 442.556085 
L 426.372628 481.39797 
L 426.592261 408.346126 
L 426.811893 414.70903 
L 427.251157 526.939525 
L 427.47079 382.235831 
L 427.690422 427.94509 
L 427.910054 517.751584 
L 428.129687 429.373908 
L 428.349319 426.482001 
L 428.568951 425.792009 
L 428.788583 448.772256 
L 429.008216 449.847597 
L 429.227848 580.503039 
L 429.44748 487.978533 
L 429.667113 442.902765 
L 429.886745 514.285491 
L 430.106377 417.558038 
L 430.326009 413.355215 
L 430.545642 404.027913 
L 430.765274 297.821521 
L 430.984906 475.933066 
L 431.204539 437.985162 
L 431.424171 477.695682 
L 431.643803 423.343537 
L 432.083068 459.528039 
L 432.3027 415.0049 
L 432.522332 527.140475 
L 432.961597 446.316936 
L 433.181229 431.746807 
L 433.400861 432.550753 
L 433.620494 504.424805 
L 433.840126 446.849066 
L 434.059758 539.949083 
L 434.279391 513.137878 
L 434.499023 410.034042 
L 434.718655 404.325912 
L 434.938287 417.802466 
L 435.15792 443.59371 
L 435.377552 417.588821 
L 435.597184 494.071223 
L 435.816817 480.115214 
L 436.036449 380.334862 
L 436.256081 498.76642 
L 436.475713 356.054379 
L 436.695346 386.841439 
L 436.914978 353.001094 
L 437.13461 432.965198 
L 437.354243 432.136903 
L 437.573875 496.766725 
L 437.793507 461.190352 
L 438.013139 464.908097 
L 438.232772 454.224691 
L 438.452404 465.990935 
L 438.891669 225.079652 
L 439.330933 540.210246 
L 439.550565 356.445725 
L 439.770198 479.447042 
L 439.98983 435.888698 
L 440.209462 499.129785 
L 440.429094 506.743992 
L 440.648727 481.867597 
L 440.868359 521.697207 
L 441.087991 439.24983 
L 441.307624 437.224017 
L 441.527256 490.537465 
L 441.96652 436.475549 
L 442.405785 530.103961 
L 442.625417 445.221262 
L 442.84505 506.838978 
L 443.064682 151.640814 
L 443.284314 426.967803 
L 443.503946 467.982898 
L 443.723579 399.864437 
L 443.943211 392.917506 
L 444.162843 425.236614 
L 444.382476 508.582766 
L 444.602108 528.559391 
L 444.82174 401.461684 
L 445.041372 411.46561 
L 445.261005 434.927258 
L 445.480637 515.611816 
L 445.700269 443.152746 
L 445.919902 418.052502 
L 446.139534 445.986796 
L 446.359166 420.365147 
L 446.578798 509.461883 
L 446.798431 522.409559 
L 447.237695 359.670877 
L 447.457328 359.74541 
L 447.67696 543.061198 
L 447.896592 485.597107 
L 448.116224 491.755073 
L 448.335857 409.580445 
L 448.555489 447.072142 
L 448.775121 388.363367 
L 448.994754 290.004956 
L 449.214386 430.164072 
L 449.434018 448.038214 
L 449.65365 386.896525 
L 449.873283 492.86297 
L 450.312547 374.664637 
L 450.53218 452.415623 
L 450.751812 457.313814 
L 450.971444 418.003219 
L 451.191076 421.312206 
L 451.410709 385.412402 
L 451.630341 393.208284 
L 451.849973 453.792501 
L 452.069606 454.85592 
L 452.289238 439.359529 
L 452.50887 508.953829 
L 452.728502 305.776578 
L 452.948135 526.276043 
L 453.167767 453.014821 
L 453.387399 477.485172 
L 453.607032 384.941592 
L 453.826664 407.596223 
L 454.046296 401.248349 
L 454.265928 456.989352 
L 454.485561 284.629931 
L 454.705193 457.286504 
L 454.924825 407.621522 
L 455.144458 422.430464 
L 455.36409 484.396306 
L 455.583722 369.691918 
L 455.803354 358.023933 
L 456.022987 473.514125 
L 456.462251 513.907688 
L 456.681883 416.601552 
L 456.901516 434.693112 
L 457.121148 506.069088 
L 457.34078 464.955042 
L 457.560413 461.103494 
L 457.780045 447.961705 
L 457.999677 427.313471 
L 458.219309 501.395937 
L 458.438942 469.064392 
L 458.658574 380.050694 
L 459.097839 456.436597 
L 459.317471 527.973552 
L 459.537103 428.164093 
L 459.756735 429.194004 
L 459.976368 508.18295 
L 460.196 457.289712 
L 460.415632 474.954428 
L 460.635265 446.867881 
L 460.854897 347.478733 
L 461.074529 453.100462 
L 461.294161 454.239747 
L 461.513794 364.355774 
L 461.733426 541.10756 
L 461.953058 492.410833 
L 462.172691 389.17384 
L 462.392323 392.421426 
L 462.611955 423.512631 
L 462.831587 488.435669 
L 463.05122 448.825035 
L 463.490484 218.347764 
L 463.710117 436.244636 
L 463.929749 289.736425 
L 464.149381 457.102345 
L 464.369013 428.704304 
L 464.808278 490.387088 
L 465.02791 341.083387 
L 465.247543 399.675564 
L 465.467175 499.502183 
L 465.686807 480.772994 
L 465.906439 480.252868 
L 466.126072 390.931616 
L 466.345704 470.366862 
L 466.565336 466.329309 
L 466.784969 430.952628 
L 467.004601 417.150702 
L 467.224233 535.22374 
L 467.443865 466.006068 
L 467.663498 506.362344 
L 467.88313 287.903997 
L 468.102762 321.283998 
L 468.322395 470.92338 
L 468.542027 444.562873 
L 468.761659 328.410026 
L 468.981291 405.931763 
L 469.200924 384.260737 
L 469.420556 411.014903 
L 469.859821 489.859219 
L 470.079453 447.241951 
L 470.299085 470.273276 
L 470.518717 453.165847 
L 470.73835 398.720898 
L 470.957982 278.972236 
L 471.177614 473.397304 
L 471.397246 426.712764 
L 471.616879 438.205345 
L 471.836511 267.79681 
L 472.056143 521.38983 
L 472.275776 391.521043 
L 472.495408 461.821625 
L 472.71504 458.623077 
L 472.934672 477.311064 
L 473.373937 324.49065 
L 473.593569 311.772035 
L 473.813202 484.051169 
L 474.032834 481.936976 
L 474.472098 386.963082 
L 474.691731 418.661499 
L 474.911363 347.160995 
L 475.130995 467.361445 
L 475.350628 463.460517 
L 475.57026 324.738858 
L 475.789892 560.650167 
L 476.009524 546.402511 
L 476.229157 323.346228 
L 476.448789 403.610029 
L 476.668421 436.555416 
L 476.888054 352.392456 
L 477.107686 392.87215 
L 477.327318 554.081096 
L 477.766583 433.127312 
L 477.986215 497.387671 
L 478.205847 365.816939 
L 478.42548 385.178592 
L 478.645112 457.554199 
L 479.084376 387.342588 
L 479.304009 321.363275 
L 479.523641 386.902051 
L 479.743273 495.021073 
L 480.182538 400.607068 
L 480.40217 483.495936 
L 480.621802 468.798175 
L 480.841435 542.227483 
L 481.061067 349.660978 
L 481.280699 399.365601 
L 481.500332 415.611737 
L 481.719964 349.528557 
L 481.939596 409.62098 
L 482.159228 282.969163 
L 482.378861 437.754166 
L 482.598493 368.220973 
L 482.818125 485.38368 
L 483.037758 440.965959 
L 483.25739 457.553349 
L 483.696654 431.336754 
L 483.916287 443.042038 
L 484.135919 523.565693 
L 484.355551 440.582396 
L 484.575184 459.98627 
L 484.794816 467.528195 
L 485.014448 468.763876 
L 485.23408 481.226973 
L 485.453713 347.776538 
L 485.673345 454.845868 
L 485.892977 365.774471 
L 486.11261 512.448642 
L 486.332242 451.665914 
L 486.551874 490.249465 
L 486.771506 507.585427 
L 486.991139 472.905213 
L 487.210771 481.870696 
L 487.430403 474.119277 
L 488.0893 361.87996 
L 488.308932 345.051974 
L 488.748197 507.728005 
L 489.407094 423.536094 
L 489.626726 496.796196 
L 489.846358 345.060372 
L 490.065991 334.449401 
L 490.285623 353.405713 
L 490.505255 357.539549 
L 490.724887 460.801617 
L 490.94452 485.918354 
L 491.383784 434.8627 
L 491.603417 505.149279 
L 491.823049 427.330382 
L 492.042681 432.163394 
L 492.262313 464.534487 
L 492.481946 464.061256 
L 492.701578 483.805782 
L 492.92121 411.028202 
L 493.140843 378.32424 
L 493.360475 500.957393 
L 493.580107 475.510817 
L 493.799739 383.365926 
L 494.019372 391.280036 
L 494.239004 443.574528 
L 494.458636 429.191054 
L 494.678269 457.382983 
L 494.897901 377.150681 
L 495.117533 400.174215 
L 495.337165 484.102257 
L 495.556798 501.115652 
L 495.77643 411.52282 
L 495.996062 380.268809 
L 496.215695 467.332269 
L 496.435327 485.933303 
L 496.874591 253.808158 
L 497.094224 552.972372 
L 497.313856 449.97208 
L 497.533488 529.168372 
L 497.753121 384.019977 
L 497.972753 473.992611 
L 498.192385 409.268085 
L 498.412017 501.406309 
L 498.63165 403.629514 
L 498.851282 485.600543 
L 499.070914 470.330173 
L 499.290547 484.528581 
L 499.510179 472.445487 
L 499.729811 272.687181 
L 499.949443 437.112629 
L 500.169076 415.040615 
L 500.388708 460.592289 
L 500.60834 416.559212 
L 500.827973 453.849553 
L 501.047605 456.40558 
L 501.267237 412.313752 
L 501.486869 489.416897 
L 501.706502 366.121543 
L 502.145766 490.096073 
L 502.365398 426.03044 
L 502.585031 480.220436 
L 502.804663 388.030264 
L 503.024295 448.54471 
L 503.243928 454.466631 
L 503.46356 537.310225 
L 503.683192 479.349418 
L 503.902824 496.310137 
L 504.122457 450.133434 
L 504.342089 448.731886 
L 504.561721 294.737188 
L 504.781354 363.16788 
L 505.000986 537.912585 
L 505.220618 390.774373 
L 505.44025 478.135846 
L 505.659883 337.919817 
L 505.879515 329.519342 
L 506.099147 428.386325 
L 506.31878 456.033464 
L 506.538412 500.558961 
L 506.758044 472.831995 
L 506.977676 413.082112 
L 507.197309 496.512963 
L 507.416941 491.268011 
L 507.636573 404.282205 
L 507.856206 428.445779 
L 508.075838 369.794638 
L 508.29547 458.721436 
L 508.515102 458.193772 
L 508.734735 499.038534 
L 508.954367 455.210991 
L 509.173999 441.162006 
L 509.393632 345.198903 
L 509.832896 494.242304 
L 510.052528 445.965308 
L 510.272161 459.948041 
L 510.491793 279.134264 
L 510.931058 490.322912 
L 511.15069 441.603736 
L 511.370322 481.043082 
L 511.589954 361.377045 
L 511.809587 345.912989 
L 512.029219 380.950502 
L 512.248851 511.836454 
L 512.468484 409.672731 
L 512.688116 539.795667 
L 512.907748 426.989101 
L 513.12738 433.270624 
L 513.347013 423.904648 
L 513.566645 374.826134 
L 513.786277 452.005225 
L 514.225542 495.221547 
L 514.445174 457.988902 
L 514.664806 544.973532 
L 515.104071 373.383635 
L 515.323703 363.723255 
L 515.543336 463.910069 
L 515.9826 365.445264 
L 516.202232 455.495417 
L 516.421865 282.13224 
L 516.641497 419.287446 
L 516.861129 454.06504 
L 517.080762 387.804138 
L 517.300394 469.715548 
L 517.520026 294.858439 
L 517.739658 520.318107 
L 517.959291 457.830478 
L 518.178923 442.622007 
L 518.398555 500.577323 
L 518.618187 385.726909 
L 518.83782 503.113762 
L 519.057452 370.25396 
L 519.277084 485.828811 
L 519.496717 444.550412 
L 519.716349 454.731221 
L 519.935981 450.825004 
L 520.155613 419.699378 
L 520.375246 407.250017 
L 520.594878 508.884639 
L 521.034143 426.014731 
L 521.253775 472.266728 
L 521.473407 435.827928 
L 521.912672 496.108865 
L 522.132304 440.823069 
L 522.351936 436.535825 
L 522.571569 495.41278 
L 522.791201 495.043396 
L 523.010833 510.294655 
L 523.230465 446.700235 
L 523.450098 326.926649 
L 523.66973 416.505535 
L 523.889362 429.307524 
L 524.108995 408.628916 
L 524.328627 459.997012 
L 524.548259 471.882004 
L 524.767891 517.579405 
L 524.987524 505.456721 
L 525.207156 422.903851 
L 525.426788 451.80994 
L 525.646421 517.278302 
L 525.866053 458.552582 
L 526.085685 514.782864 
L 526.305317 474.975182 
L 526.52495 403.548613 
L 526.744582 438.986783 
L 526.964214 441.23476 
L 527.183847 479.593165 
L 527.403479 358.192717 
L 527.623111 490.584787 
L 527.842743 494.397232 
L 528.062376 530.23036 
L 528.50164 360.055687 
L 528.721273 506.856089 
L 529.160537 359.082322 
L 529.380169 324.270971 
L 529.599802 457.945953 
L 529.819434 453.213186 
L 530.039066 477.208973 
L 530.258699 425.369499 
L 530.478331 459.954361 
L 530.697963 420.617246 
L 530.917595 441.966018 
L 531.137228 406.029435 
L 531.35686 441.813006 
L 531.576492 497.085412 
L 531.796125 366.494563 
L 532.015757 535.671679 
L 532.455021 411.507341 
L 532.894286 474.35691 
L 533.113918 495.078404 
L 533.33355 440.897285 
L 533.553183 445.48743 
L 533.772815 413.290224 
L 533.992447 490.443711 
L 534.21208 475.039341 
L 534.431712 490.335179 
L 534.651344 308.888908 
L 534.870976 531.647314 
L 535.090609 343.655495 
L 535.310241 429.250771 
L 535.529873 449.154525 
L 535.749506 441.640575 
L 535.969138 522.730426 
L 536.408402 390.028693 
L 536.628035 354.079875 
L 536.847667 504.064822 
L 537.067299 452.292226 
L 537.286932 451.88297 
L 537.506564 485.281359 
L 537.726196 251.874446 
L 537.945828 418.973474 
L 538.165461 435.315767 
L 538.385093 429.422544 
L 538.604725 428.562455 
L 538.824358 484.857027 
L 539.04399 420.470777 
L 539.263622 427.219176 
L 539.483254 424.744113 
L 539.702887 391.367895 
L 539.922519 499.596541 
L 540.142151 388.784973 
L 540.361784 445.961843 
L 540.581416 459.19641 
L 540.801048 423.402093 
L 541.02068 457.220877 
L 541.240313 509.530632 
L 541.459945 296.947105 
L 541.679577 491.398712 
L 541.89921 503.146336 
L 542.338474 424.862395 
L 542.558106 416.085422 
L 542.777739 341.533415 
L 542.997371 437.941062 
L 543.217003 433.801681 
L 543.436636 407.375575 
L 543.8759 510.312118 
L 544.095532 487.235118 
L 544.315165 331.251657 
L 544.754429 547.71717 
L 544.974062 467.274057 
L 545.193694 452.539868 
L 545.413326 478.912021 
L 545.632958 390.650059 
L 546.072223 410.655963 
L 546.291855 299.307614 
L 546.511488 475.868192 
L 546.73112 452.875211 
L 546.950752 550.64815 
L 547.170384 431.154009 
L 547.390017 447.883794 
L 547.609649 513.870924 
L 547.829281 464.376686 
L 548.048913 451.378365 
L 548.268546 404.146675 
L 548.70781 476.385018 
L 548.927443 462.310736 
L 549.147075 496.136697 
L 549.366707 451.254607 
L 549.586339 432.842511 
L 549.805972 488.095893 
L 550.025604 442.675206 
L 550.245236 433.87857 
L 550.464869 247.414091 
L 550.684501 402.090474 
L 550.904133 393.842013 
L 551.123765 374.393949 
L 551.343398 481.884803 
L 551.56303 409.278817 
L 551.782662 489.013394 
L 552.002295 338.720307 
L 552.221927 526.961695 
L 552.441559 457.616268 
L 552.661191 440.664606 
L 552.880824 333.821906 
L 553.100456 513.595346 
L 553.320088 345.737936 
L 553.539721 349.618152 
L 553.759353 396.815143 
L 554.198617 352.561581 
L 554.41825 490.270748 
L 554.637882 390.154853 
L 554.857514 536.73949 
L 555.077147 330.750952 
L 555.296779 451.178358 
L 555.516411 467.405517 
L 555.736043 440.294085 
L 555.955676 394.033699 
L 556.175308 460.074248 
L 556.39494 488.735917 
L 556.614573 470.975082 
L 556.834205 496.31268 
L 557.053837 486.583335 
L 557.493102 388.253223 
L 557.712734 466.541466 
L 557.932366 486.505657 
L 558.371631 402.115482 
L 558.591263 524.219122 
L 558.810895 373.755781 
L 559.030528 444.402519 
L 559.25016 430.816926 
L 559.469792 459.949148 
L 559.689425 446.07717 
L 559.909057 340.149116 
L 559.909057 340.149116 
" style="fill:none;stroke:#96c69a;stroke-linecap:round;stroke-width:3;"/>
   </g>
   <g id="line2d_2"/>
   <g id="patch_3">
    <path d="M 98.911875 602.94 
L 98.911875 109.326857 
" style="fill:none;stroke:#262626;stroke-linecap:square;stroke-linejoin:miter;stroke-width:2.5;"/>
   </g>
   <g id="patch_4">
    <path d="M 98.911875 602.94 
L 581.861304 602.94 
" style="fill:none;stroke:#262626;stroke-linecap:square;stroke-linejoin:miter;stroke-width:2.5;"/>
   </g>
   <g id="legend_1">
    <g id="patch_5">
     <path d="M 521.987866 597.94 
L 574.861304 597.94 
Q 576.861304 597.94 576.861304 595.94 
L 576.861304 554.034375 
Q 576.861304 552.034375 574.861304 552.034375 
L 521.987866 552.034375 
Q 519.987866 552.034375 519.987866 554.034375 
L 519.987866 595.94 
Q 519.987866 597.94 521.987866 597.94 
z
" style="fill:#ffffff;opacity:0.8;stroke:#cccccc;stroke-linejoin:miter;stroke-width:2;"/>
    </g>
    <g id="text_17">
     <!-- $n_\tau$ -->
     <g style="fill:#262626;" transform="translate(535.344585 574.270625)scale(0.24 -0.24)">
      <defs>
       <path d="M 3566 2113 
L 3156 0 
L 2578 0 
L 2988 2091 
Q 3016 2238 3031 2350 
Q 3047 2463 3047 2528 
Q 3047 2791 2881 2937 
Q 2716 3084 2419 3084 
Q 1956 3084 1622 2776 
Q 1288 2469 1184 1941 
L 800 0 
L 225 0 
L 903 3500 
L 1478 3500 
L 1363 2950 
Q 1603 3253 1940 3418 
Q 2278 3584 2650 3584 
Q 3113 3584 3367 3334 
Q 3622 3084 3622 2631 
Q 3622 2519 3608 2391 
Q 3594 2263 3566 2113 
z
" id="DejaVuSans-Oblique-6e" transform="scale(0.015625)"/>
       <path d="M 2103 638 
Q 2188 488 2525 488 
L 2800 488 
L 2706 0 
L 2363 0 
Q 1800 0 1600 300 
Q 1403 606 1534 1269 
L 1856 2925 
L 541 2925 
L 653 3500 
L 3881 3500 
L 3769 2925 
L 2444 2925 
L 2113 1234 
Q 2025 781 2103 638 
z
" id="DejaVuSans-Oblique-3c4" transform="scale(0.015625)"/>
      </defs>
      <use xlink:href="#DejaVuSans-Oblique-6e"/>
      <use transform="translate(63.378906 -16.40625)scale(0.7)" xlink:href="#DejaVuSans-Oblique-3c4"/>
     </g>
    </g>
    <g id="line2d_3">
     <path d="M 523.987866 588.360312 
L 543.987866 588.360312 
" style="fill:none;stroke:#96c69a;stroke-linecap:round;stroke-width:3;"/>
    </g>
    <g id="line2d_4"/>
    <g id="text_18">
     <!-- 125 -->
     <g style="fill:#262626;" transform="translate(551.987866 591.860312)scale(0.1 -0.1)">
      <defs>
       <path d="M 750 831 
L 1813 831 
L 1813 3847 
L 722 3622 
L 722 4441 
L 1806 4666 
L 2950 4666 
L 2950 831 
L 4013 831 
L 4013 0 
L 750 0 
L 750 831 
z
" id="DejaVuSans-Bold-31" transform="scale(0.015625)"/>
       <path d="M 1844 884 
L 3897 884 
L 3897 0 
L 506 0 
L 506 884 
L 2209 2388 
Q 2438 2594 2547 2791 
Q 2656 2988 2656 3200 
Q 2656 3528 2436 3728 
Q 2216 3928 1850 3928 
Q 1569 3928 1234 3808 
Q 900 3688 519 3450 
L 519 4475 
Q 925 4609 1322 4679 
Q 1719 4750 2100 4750 
Q 2938 4750 3402 4381 
Q 3866 4013 3866 3353 
Q 3866 2972 3669 2642 
Q 3472 2313 2841 1759 
L 1844 884 
z
" id="DejaVuSans-Bold-32" transform="scale(0.015625)"/>
       <path d="M 678 4666 
L 3669 4666 
L 3669 3781 
L 1638 3781 
L 1638 3059 
Q 1775 3097 1914 3117 
Q 2053 3138 2203 3138 
Q 3056 3138 3531 2711 
Q 4006 2284 4006 1522 
Q 4006 766 3489 337 
Q 2972 -91 2053 -91 
Q 1656 -91 1267 -14 
Q 878 63 494 219 
L 494 1166 
Q 875 947 1217 837 
Q 1559 728 1863 728 
Q 2300 728 2551 942 
Q 2803 1156 2803 1522 
Q 2803 1891 2551 2103 
Q 2300 2316 1863 2316 
Q 1603 2316 1309 2248 
Q 1016 2181 678 2041 
L 678 4666 
z
" id="DejaVuSans-Bold-35" transform="scale(0.015625)"/>
      </defs>
      <use xlink:href="#DejaVuSans-Bold-31"/>
      <use x="69.580078" xlink:href="#DejaVuSans-Bold-32"/>
      <use x="139.160156" xlink:href="#DejaVuSans-Bold-35"/>
     </g>
    </g>
   </g>
  </g>
  <g id="axes_2">
   <g id="patch_6">
    <path d="M 98.911875 92.305714 
L 581.861304 92.305714 
L 581.861304 7.2 
L 98.911875 7.2 
z
" style="fill:none;"/>
   </g>
   <g id="matplotlib.axis_3">
    <g id="xtick_7"/>
    <g id="xtick_8"/>
    <g id="xtick_9"/>
    <g id="xtick_10"/>
    <g id="xtick_11"/>
    <g id="xtick_12"/>
   </g>
   <g id="matplotlib.axis_4">
    <g id="ytick_9">
     <g id="text_19">
      <!-- 0 -->
      <g style="fill:#262626;" transform="translate(69.414375 100.663996)scale(0.22 -0.22)">
       <use xlink:href="#DejaVuSans-30"/>
      </g>
     </g>
    </g>
    <g id="ytick_10">
     <g id="text_20">
      <!-- 100 -->
      <g style="fill:#262626;" transform="translate(41.419375 48.032138)scale(0.22 -0.22)">
       <use xlink:href="#DejaVuSans-31"/>
       <use x="63.623047" xlink:href="#DejaVuSans-30"/>
       <use x="127.246094" xlink:href="#DejaVuSans-30"/>
      </g>
     </g>
    </g>
   </g>
   <g id="patch_7">
    <path clip-path="url(#pdb5f2d1f68)" d="M 120.864122 92.305714 
L 154.636809 92.305714 
L 154.636809 11.252653 
L 120.864122 11.252653 
z
" style="fill:#96c69a;fill-opacity:0.5;stroke:#ffffff;stroke-linejoin:miter;stroke-width:2;"/>
   </g>
   <g id="patch_8">
    <path clip-path="url(#pdb5f2d1f68)" d="M 154.636809 92.305714 
L 188.409496 92.305714 
L 188.409496 11.252653 
L 154.636809 11.252653 
z
" style="fill:#96c69a;fill-opacity:0.5;stroke:#ffffff;stroke-linejoin:miter;stroke-width:2;"/>
   </g>
   <g id="patch_9">
    <path clip-path="url(#pdb5f2d1f68)" d="M 188.409496 92.305714 
L 222.182184 92.305714 
L 222.182184 11.252653 
L 188.409496 11.252653 
z
" style="fill:#96c69a;fill-opacity:0.5;stroke:#ffffff;stroke-linejoin:miter;stroke-width:2;"/>
   </g>
   <g id="patch_10">
    <path clip-path="url(#pdb5f2d1f68)" d="M 222.182184 92.305714 
L 255.954871 92.305714 
L 255.954871 11.252653 
L 222.182184 11.252653 
z
" style="fill:#96c69a;fill-opacity:0.5;stroke:#ffffff;stroke-linejoin:miter;stroke-width:2;"/>
   </g>
   <g id="patch_11">
    <path clip-path="url(#pdb5f2d1f68)" d="M 255.954871 92.305714 
L 289.727558 92.305714 
L 289.727558 11.778972 
L 255.954871 11.778972 
z
" style="fill:#96c69a;fill-opacity:0.5;stroke:#ffffff;stroke-linejoin:miter;stroke-width:2;"/>
   </g>
   <g id="patch_12">
    <path clip-path="url(#pdb5f2d1f68)" d="M 289.727558 92.305714 
L 323.500246 92.305714 
L 323.500246 11.252653 
L 289.727558 11.252653 
z
" style="fill:#96c69a;fill-opacity:0.5;stroke:#ffffff;stroke-linejoin:miter;stroke-width:2;"/>
   </g>
   <g id="patch_13">
    <path clip-path="url(#pdb5f2d1f68)" d="M 323.500246 92.305714 
L 357.272933 92.305714 
L 357.272933 11.252653 
L 323.500246 11.252653 
z
" style="fill:#96c69a;fill-opacity:0.5;stroke:#ffffff;stroke-linejoin:miter;stroke-width:2;"/>
   </g>
   <g id="patch_14">
    <path clip-path="url(#pdb5f2d1f68)" d="M 357.272933 92.305714 
L 391.04562 92.305714 
L 391.04562 11.252653 
L 357.272933 11.252653 
z
" style="fill:#96c69a;fill-opacity:0.5;stroke:#ffffff;stroke-linejoin:miter;stroke-width:2;"/>
   </g>
   <g id="patch_15">
    <path clip-path="url(#pdb5f2d1f68)" d="M 391.04562 92.305714 
L 424.818308 92.305714 
L 424.818308 11.778972 
L 391.04562 11.778972 
z
" style="fill:#96c69a;fill-opacity:0.5;stroke:#ffffff;stroke-linejoin:miter;stroke-width:2;"/>
   </g>
   <g id="patch_16">
    <path clip-path="url(#pdb5f2d1f68)" d="M 424.818308 92.305714 
L 458.590995 92.305714 
L 458.590995 11.252653 
L 424.818308 11.252653 
z
" style="fill:#96c69a;fill-opacity:0.5;stroke:#ffffff;stroke-linejoin:miter;stroke-width:2;"/>
   </g>
   <g id="patch_17">
    <path clip-path="url(#pdb5f2d1f68)" d="M 458.590995 92.305714 
L 492.363682 92.305714 
L 492.363682 11.252653 
L 458.590995 11.252653 
z
" style="fill:#96c69a;fill-opacity:0.5;stroke:#ffffff;stroke-linejoin:miter;stroke-width:2;"/>
   </g>
   <g id="patch_18">
    <path clip-path="url(#pdb5f2d1f68)" d="M 492.363682 92.305714 
L 526.13637 92.305714 
L 526.13637 11.252653 
L 492.363682 11.252653 
z
" style="fill:#96c69a;fill-opacity:0.5;stroke:#ffffff;stroke-linejoin:miter;stroke-width:2;"/>
   </g>
   <g id="patch_19">
    <path clip-path="url(#pdb5f2d1f68)" d="M 526.13637 92.305714 
L 559.909057 92.305714 
L 559.909057 11.252653 
L 526.13637 11.252653 
z
" style="fill:#96c69a;fill-opacity:0.5;stroke:#ffffff;stroke-linejoin:miter;stroke-width:2;"/>
   </g>
   <g id="patch_20">
    <path d="M 98.911875 92.305714 
L 98.911875 7.2 
" style="fill:none;stroke:#262626;stroke-linecap:square;stroke-linejoin:miter;stroke-width:2.5;"/>
   </g>
   <g id="patch_21">
    <path d="M 98.911875 92.305714 
L 581.861304 92.305714 
" style="fill:none;stroke:#262626;stroke-linecap:square;stroke-linejoin:miter;stroke-width:2.5;"/>
   </g>
  </g>
  <g id="axes_3">
   <g id="patch_22">
    <path d="M 598.514732 602.94 
L 681.781875 602.94 
L 681.781875 109.326857 
L 598.514732 109.326857 
z
" style="fill:none;"/>
   </g>
   <g id="matplotlib.axis_5">
    <g id="xtick_13">
     <g id="text_21">
      <!-- 0 -->
      <g style="fill:#262626;" transform="translate(591.515982 635.156562)scale(0.22 -0.22)">
       <use xlink:href="#DejaVuSans-30"/>
      </g>
     </g>
    </g>
    <g id="xtick_14">
     <g id="text_22">
      <!-- 200 -->
      <g style="fill:#262626;" transform="translate(658.028168 635.156562)scale(0.22 -0.22)">
       <use xlink:href="#DejaVuSans-32"/>
       <use x="63.623047" xlink:href="#DejaVuSans-30"/>
       <use x="127.246094" xlink:href="#DejaVuSans-30"/>
      </g>
     </g>
    </g>
   </g>
   <g id="matplotlib.axis_6">
    <g id="ytick_11"/>
    <g id="ytick_12"/>
    <g id="ytick_13"/>
    <g id="ytick_14"/>
    <g id="ytick_15"/>
    <g id="ytick_16"/>
    <g id="ytick_17"/>
    <g id="ytick_18"/>
   </g>
   <g id="patch_23">
    <path clip-path="url(#p67997225e9)" d="M 598.514732 580.503039 
L 599.319829 580.503039 
L 599.319829 568.694112 
L 598.514732 568.694112 
z
" style="fill:#96c69a;fill-opacity:0.5;stroke:#ffffff;stroke-linejoin:miter;stroke-width:1.180893;"/>
   </g>
   <g id="patch_24">
    <path clip-path="url(#p67997225e9)" d="M 598.514732 568.694112 
L 601.73512 568.694112 
L 601.73512 556.885185 
L 598.514732 556.885185 
z
" style="fill:#96c69a;fill-opacity:0.5;stroke:#ffffff;stroke-linejoin:miter;stroke-width:1.180893;"/>
   </g>
   <g id="patch_25">
    <path clip-path="url(#p67997225e9)" d="M 598.514732 556.885185 
L 605.760604 556.885185 
L 605.760604 545.076258 
L 598.514732 545.076258 
z
" style="fill:#96c69a;fill-opacity:0.5;stroke:#ffffff;stroke-linejoin:miter;stroke-width:1.180893;"/>
   </g>
   <g id="patch_26">
    <path clip-path="url(#p67997225e9)" d="M 598.514732 545.076258 
L 615.019218 545.076258 
L 615.019218 533.267332 
L 598.514732 533.267332 
z
" style="fill:#96c69a;fill-opacity:0.5;stroke:#ffffff;stroke-linejoin:miter;stroke-width:1.180893;"/>
   </g>
   <g id="patch_27">
    <path clip-path="url(#p67997225e9)" d="M 598.514732 533.267332 
L 623.070186 533.267332 
L 623.070186 521.458405 
L 598.514732 521.458405 
z
" style="fill:#96c69a;fill-opacity:0.5;stroke:#ffffff;stroke-linejoin:miter;stroke-width:1.180893;"/>
   </g>
   <g id="patch_28">
    <path clip-path="url(#p67997225e9)" d="M 598.514732 521.458405 
L 632.731349 521.458405 
L 632.731349 509.649478 
L 598.514732 509.649478 
z
" style="fill:#96c69a;fill-opacity:0.5;stroke:#ffffff;stroke-linejoin:miter;stroke-width:1.180893;"/>
   </g>
   <g id="patch_29">
    <path clip-path="url(#p67997225e9)" d="M 598.514732 509.649478 
L 641.587414 509.649478 
L 641.587414 497.840551 
L 598.514732 497.840551 
z
" style="fill:#96c69a;fill-opacity:0.5;stroke:#ffffff;stroke-linejoin:miter;stroke-width:1.180893;"/>
   </g>
   <g id="patch_30">
    <path clip-path="url(#p67997225e9)" d="M 598.514732 497.840551 
L 645.21035 497.840551 
L 645.21035 486.031624 
L 598.514732 486.031624 
z
" style="fill:#96c69a;fill-opacity:0.5;stroke:#ffffff;stroke-linejoin:miter;stroke-width:1.180893;"/>
   </g>
   <g id="patch_31">
    <path clip-path="url(#p67997225e9)" d="M 598.514732 486.031624 
L 654.468964 486.031624 
L 654.468964 474.222697 
L 598.514732 474.222697 
z
" style="fill:#96c69a;fill-opacity:0.5;stroke:#ffffff;stroke-linejoin:miter;stroke-width:1.180893;"/>
   </g>
   <g id="patch_32">
    <path clip-path="url(#p67997225e9)" d="M 598.514732 474.222697 
L 658.494448 474.222697 
L 658.494448 462.41377 
L 598.514732 462.41377 
z
" style="fill:#96c69a;fill-opacity:0.5;stroke:#ffffff;stroke-linejoin:miter;stroke-width:1.180893;"/>
   </g>
   <g id="patch_33">
    <path clip-path="url(#p67997225e9)" d="M 598.514732 462.41377 
L 677.816773 462.41377 
L 677.816773 450.604843 
L 598.514732 450.604843 
z
" style="fill:#96c69a;fill-opacity:0.5;stroke:#ffffff;stroke-linejoin:miter;stroke-width:1.180893;"/>
   </g>
   <g id="patch_34">
    <path clip-path="url(#p67997225e9)" d="M 598.514732 450.604843 
L 665.337772 450.604843 
L 665.337772 438.795917 
L 598.514732 438.795917 
z
" style="fill:#96c69a;fill-opacity:0.5;stroke:#ffffff;stroke-linejoin:miter;stroke-width:1.180893;"/>
   </g>
   <g id="patch_35">
    <path clip-path="url(#p67997225e9)" d="M 598.514732 438.795917 
L 667.350514 438.795917 
L 667.350514 426.98699 
L 598.514732 426.98699 
z
" style="fill:#96c69a;fill-opacity:0.5;stroke:#ffffff;stroke-linejoin:miter;stroke-width:1.180893;"/>
   </g>
   <g id="patch_36">
    <path clip-path="url(#p67997225e9)" d="M 598.514732 426.98699 
L 650.44348 426.98699 
L 650.44348 415.178063 
L 598.514732 415.178063 
z
" style="fill:#96c69a;fill-opacity:0.5;stroke:#ffffff;stroke-linejoin:miter;stroke-width:1.180893;"/>
   </g>
   <g id="patch_37">
    <path clip-path="url(#p67997225e9)" d="M 598.514732 415.178063 
L 649.235834 415.178063 
L 649.235834 403.369136 
L 598.514732 403.369136 
z
" style="fill:#96c69a;fill-opacity:0.5;stroke:#ffffff;stroke-linejoin:miter;stroke-width:1.180893;"/>
   </g>
   <g id="patch_38">
    <path clip-path="url(#p67997225e9)" d="M 598.514732 403.369136 
L 632.3288 403.369136 
L 632.3288 391.560209 
L 598.514732 391.560209 
z
" style="fill:#96c69a;fill-opacity:0.5;stroke:#ffffff;stroke-linejoin:miter;stroke-width:1.180893;"/>
   </g>
   <g id="patch_39">
    <path clip-path="url(#p67997225e9)" d="M 598.514732 391.560209 
L 639.574672 391.560209 
L 639.574672 379.751282 
L 598.514732 379.751282 
z
" style="fill:#96c69a;fill-opacity:0.5;stroke:#ffffff;stroke-linejoin:miter;stroke-width:1.180893;"/>
   </g>
   <g id="patch_40">
    <path clip-path="url(#p67997225e9)" d="M 598.514732 379.751282 
L 620.654896 379.751282 
L 620.654896 367.942355 
L 598.514732 367.942355 
z
" style="fill:#96c69a;fill-opacity:0.5;stroke:#ffffff;stroke-linejoin:miter;stroke-width:1.180893;"/>
   </g>
   <g id="patch_41">
    <path clip-path="url(#p67997225e9)" d="M 598.514732 367.942355 
L 621.862541 367.942355 
L 621.862541 356.133429 
L 598.514732 356.133429 
z
" style="fill:#96c69a;fill-opacity:0.5;stroke:#ffffff;stroke-linejoin:miter;stroke-width:1.180893;"/>
   </g>
   <g id="patch_42">
    <path clip-path="url(#p67997225e9)" d="M 598.514732 356.133429 
L 619.447251 356.133429 
L 619.447251 344.324502 
L 598.514732 344.324502 
z
" style="fill:#96c69a;fill-opacity:0.5;stroke:#ffffff;stroke-linejoin:miter;stroke-width:1.180893;"/>
   </g>
   <g id="patch_43">
    <path clip-path="url(#p67997225e9)" d="M 598.514732 344.324502 
L 612.201379 344.324502 
L 612.201379 332.515575 
L 598.514732 332.515575 
z
" style="fill:#96c69a;fill-opacity:0.5;stroke:#ffffff;stroke-linejoin:miter;stroke-width:1.180893;"/>
   </g>
   <g id="patch_44">
    <path clip-path="url(#p67997225e9)" d="M 598.514732 332.515575 
L 608.175894 332.515575 
L 608.175894 320.706648 
L 598.514732 320.706648 
z
" style="fill:#96c69a;fill-opacity:0.5;stroke:#ffffff;stroke-linejoin:miter;stroke-width:1.180893;"/>
   </g>
   <g id="patch_45">
    <path clip-path="url(#p67997225e9)" d="M 598.514732 320.706648 
L 602.540216 320.706648 
L 602.540216 308.897721 
L 598.514732 308.897721 
z
" style="fill:#96c69a;fill-opacity:0.5;stroke:#ffffff;stroke-linejoin:miter;stroke-width:1.180893;"/>
   </g>
   <g id="patch_46">
    <path clip-path="url(#p67997225e9)" d="M 598.514732 308.897721 
L 606.163152 308.897721 
L 606.163152 297.088794 
L 598.514732 297.088794 
z
" style="fill:#96c69a;fill-opacity:0.5;stroke:#ffffff;stroke-linejoin:miter;stroke-width:1.180893;"/>
   </g>
   <g id="patch_47">
    <path clip-path="url(#p67997225e9)" d="M 598.514732 297.088794 
L 604.15041 297.088794 
L 604.15041 285.279867 
L 598.514732 285.279867 
z
" style="fill:#96c69a;fill-opacity:0.5;stroke:#ffffff;stroke-linejoin:miter;stroke-width:1.180893;"/>
   </g>
   <g id="patch_48">
    <path clip-path="url(#p67997225e9)" d="M 598.514732 285.279867 
L 603.747862 285.279867 
L 603.747862 273.470941 
L 598.514732 273.470941 
z
" style="fill:#96c69a;fill-opacity:0.5;stroke:#ffffff;stroke-linejoin:miter;stroke-width:1.180893;"/>
   </g>
   <g id="patch_49">
    <path clip-path="url(#p67997225e9)" d="M 598.514732 273.470941 
L 600.527474 273.470941 
L 600.527474 261.662014 
L 598.514732 261.662014 
z
" style="fill:#96c69a;fill-opacity:0.5;stroke:#ffffff;stroke-linejoin:miter;stroke-width:1.180893;"/>
   </g>
   <g id="patch_50">
    <path clip-path="url(#p67997225e9)" d="M 598.514732 261.662014 
L 600.124926 261.662014 
L 600.124926 249.853087 
L 598.514732 249.853087 
z
" style="fill:#96c69a;fill-opacity:0.5;stroke:#ffffff;stroke-linejoin:miter;stroke-width:1.180893;"/>
   </g>
   <g id="patch_51">
    <path clip-path="url(#p67997225e9)" d="M 598.514732 249.853087 
L 599.722377 249.853087 
L 599.722377 238.04416 
L 598.514732 238.04416 
z
" style="fill:#96c69a;fill-opacity:0.5;stroke:#ffffff;stroke-linejoin:miter;stroke-width:1.180893;"/>
   </g>
   <g id="patch_52">
    <path clip-path="url(#p67997225e9)" d="M 598.514732 238.04416 
L 598.917281 238.04416 
L 598.917281 226.235233 
L 598.514732 226.235233 
z
" style="fill:#96c69a;fill-opacity:0.5;stroke:#ffffff;stroke-linejoin:miter;stroke-width:1.180893;"/>
   </g>
   <g id="patch_53">
    <path clip-path="url(#p67997225e9)" d="M 598.514732 226.235233 
L 599.722377 226.235233 
L 599.722377 214.426306 
L 598.514732 214.426306 
z
" style="fill:#96c69a;fill-opacity:0.5;stroke:#ffffff;stroke-linejoin:miter;stroke-width:1.180893;"/>
   </g>
   <g id="patch_54">
    <path clip-path="url(#p67997225e9)" d="M 598.514732 214.426306 
L 598.514732 214.426306 
L 598.514732 202.617379 
L 598.514732 202.617379 
z
" style="fill:#96c69a;fill-opacity:0.5;stroke:#ffffff;stroke-linejoin:miter;stroke-width:1.180893;"/>
   </g>
   <g id="patch_55">
    <path clip-path="url(#p67997225e9)" d="M 598.514732 202.617379 
L 598.514732 202.617379 
L 598.514732 190.808452 
L 598.514732 190.808452 
z
" style="fill:#96c69a;fill-opacity:0.5;stroke:#ffffff;stroke-linejoin:miter;stroke-width:1.180893;"/>
   </g>
   <g id="patch_56">
    <path clip-path="url(#p67997225e9)" d="M 598.514732 190.808452 
L 598.514732 190.808452 
L 598.514732 178.999526 
L 598.514732 178.999526 
z
" style="fill:#96c69a;fill-opacity:0.5;stroke:#ffffff;stroke-linejoin:miter;stroke-width:1.180893;"/>
   </g>
   <g id="patch_57">
    <path clip-path="url(#p67997225e9)" d="M 598.514732 178.999526 
L 598.514732 178.999526 
L 598.514732 167.190599 
L 598.514732 167.190599 
z
" style="fill:#96c69a;fill-opacity:0.5;stroke:#ffffff;stroke-linejoin:miter;stroke-width:1.180893;"/>
   </g>
   <g id="patch_58">
    <path clip-path="url(#p67997225e9)" d="M 598.514732 167.190599 
L 598.514732 167.190599 
L 598.514732 155.381672 
L 598.514732 155.381672 
z
" style="fill:#96c69a;fill-opacity:0.5;stroke:#ffffff;stroke-linejoin:miter;stroke-width:1.180893;"/>
   </g>
   <g id="patch_59">
    <path clip-path="url(#p67997225e9)" d="M 598.514732 155.381672 
L 599.722377 155.381672 
L 599.722377 143.572745 
L 598.514732 143.572745 
z
" style="fill:#96c69a;fill-opacity:0.5;stroke:#ffffff;stroke-linejoin:miter;stroke-width:1.180893;"/>
   </g>
   <g id="patch_60">
    <path clip-path="url(#p67997225e9)" d="M 598.514732 143.572745 
L 598.917281 143.572745 
L 598.917281 131.763818 
L 598.514732 131.763818 
z
" style="fill:#96c69a;fill-opacity:0.5;stroke:#ffffff;stroke-linejoin:miter;stroke-width:1.180893;"/>
   </g>
   <g id="patch_61">
    <path d="M 598.514732 602.94 
L 598.514732 109.326857 
" style="fill:none;stroke:#262626;stroke-linecap:square;stroke-linejoin:miter;stroke-width:2.5;"/>
   </g>
   <g id="patch_62">
    <path d="M 598.514732 602.94 
L 681.781875 602.94 
" style="fill:none;stroke:#262626;stroke-linecap:square;stroke-linejoin:miter;stroke-width:2.5;"/>
   </g>
  </g>
 </g>
 <defs>
  <clipPath id="p544e06835a">
   <rect height="493.613143" width="482.949429" x="98.911875" y="109.326857"/>
  </clipPath>
  <clipPath id="pdb5f2d1f68">
   <rect height="85.105714" width="482.949429" x="98.911875" y="7.2"/>
  </clipPath>
  <clipPath id="p67997225e9">
   <rect height="493.613143" width="83.267143" x="598.514732" y="109.326857"/>
  </clipPath>
 </defs>
</svg>
