<?xml version="1.0" encoding="utf-8" standalone="no"?>
<!DOCTYPE svg PUBLIC "-//W3C//DTD SVG 1.1//EN"
  "http://www.w3.org/Graphics/SVG/1.1/DTD/svg11.dtd">
<svg height="674.159375pt" version="1.1" viewBox="0 0 688.981875 674.159375" width="688.981875pt" xmlns="http://www.w3.org/2000/svg" xmlns:xlink="http://www.w3.org/1999/xlink">
 <metadata>
  <rdf:RDF xmlns:cc="http://creativecommons.org/ns#" xmlns:dc="http://purl.org/dc/elements/1.1/" xmlns:rdf="http://www.w3.org/1999/02/22-rdf-syntax-ns#">
   <cc:Work>
    <dc:type rdf:resource="http://purl.org/dc/dcmitype/StillImage"/>
    <dc:date>2021-07-24T14:57:58.914488</dc:date>
    <dc:format>image/svg+xml</dc:format>
    <dc:creator>
     <cc:Agent>
      <dc:title>Matplotlib v3.4.2, https://matplotlib.org/</dc:title>
     </cc:Agent>
    </dc:creator>
   </cc:Work>
  </rdf:RDF>
 </metadata>
 <defs>
  <style type="text/css">*{stroke-linecap:butt;stroke-linejoin:round;}</style>
 </defs>
 <g id="figure_1">
  <g id="patch_1">
   <path d="M 0 674.159375 
L 688.981875 674.159375 
L 688.981875 0 
L 0 0 
z
" style="fill:#ffffff;"/>
  </g>
  <g id="axes_1">
   <g id="patch_2">
    <path d="M 98.911875 602.94 
L 581.861304 602.94 
L 581.861304 109.326857 
L 98.911875 109.326857 
z
" style="fill:none;"/>
   </g>
   <g id="matplotlib.axis_1">
    <g id="xtick_1">
     <g id="text_1">
      <!-- 0 -->
      <g style="fill:#262626;" transform="translate(113.645739 635.156562)scale(0.22 -0.22)">
       <defs>
        <path d="M 2034 4250 
Q 1547 4250 1301 3770 
Q 1056 3291 1056 2328 
Q 1056 1369 1301 889 
Q 1547 409 2034 409 
Q 2525 409 2770 889 
Q 3016 1369 3016 2328 
Q 3016 3291 2770 3770 
Q 2525 4250 2034 4250 
z
M 2034 4750 
Q 2819 4750 3233 4129 
Q 3647 3509 3647 2328 
Q 3647 1150 3233 529 
Q 2819 -91 2034 -91 
Q 1250 -91 836 529 
Q 422 1150 422 2328 
Q 422 3509 836 4129 
Q 1250 4750 2034 4750 
z
" id="DejaVuSans-30" transform="scale(0.015625)"/>
       </defs>
       <use xlink:href="#DejaVuSans-30"/>
      </g>
     </g>
    </g>
    <g id="xtick_2">
     <g id="text_2">
      <!-- 20000 -->
      <g style="fill:#262626;" transform="translate(173.503653 635.156562)scale(0.22 -0.22)">
       <defs>
        <path d="M 1228 531 
L 3431 531 
L 3431 0 
L 469 0 
L 469 531 
Q 828 903 1448 1529 
Q 2069 2156 2228 2338 
Q 2531 2678 2651 2914 
Q 2772 3150 2772 3378 
Q 2772 3750 2511 3984 
Q 2250 4219 1831 4219 
Q 1534 4219 1204 4116 
Q 875 4013 500 3803 
L 500 4441 
Q 881 4594 1212 4672 
Q 1544 4750 1819 4750 
Q 2544 4750 2975 4387 
Q 3406 4025 3406 3419 
Q 3406 3131 3298 2873 
Q 3191 2616 2906 2266 
Q 2828 2175 2409 1742 
Q 1991 1309 1228 531 
z
" id="DejaVuSans-32" transform="scale(0.015625)"/>
       </defs>
       <use xlink:href="#DejaVuSans-32"/>
       <use x="63.623047" xlink:href="#DejaVuSans-30"/>
       <use x="127.246094" xlink:href="#DejaVuSans-30"/>
       <use x="190.869141" xlink:href="#DejaVuSans-30"/>
       <use x="254.492188" xlink:href="#DejaVuSans-30"/>
      </g>
     </g>
    </g>
    <g id="xtick_3">
     <g id="text_3">
      <!-- 40000 -->
      <g style="fill:#262626;" transform="translate(261.356566 635.156562)scale(0.22 -0.22)">
       <defs>
        <path d="M 2419 4116 
L 825 1625 
L 2419 1625 
L 2419 4116 
z
M 2253 4666 
L 3047 4666 
L 3047 1625 
L 3713 1625 
L 3713 1100 
L 3047 1100 
L 3047 0 
L 2419 0 
L 2419 1100 
L 313 1100 
L 313 1709 
L 2253 4666 
z
" id="DejaVuSans-34" transform="scale(0.015625)"/>
       </defs>
       <use xlink:href="#DejaVuSans-34"/>
       <use x="63.623047" xlink:href="#DejaVuSans-30"/>
       <use x="127.246094" xlink:href="#DejaVuSans-30"/>
       <use x="190.869141" xlink:href="#DejaVuSans-30"/>
       <use x="254.492188" xlink:href="#DejaVuSans-30"/>
      </g>
     </g>
    </g>
    <g id="xtick_4">
     <g id="text_4">
      <!-- 60000 -->
      <g style="fill:#262626;" transform="translate(349.20948 635.156562)scale(0.22 -0.22)">
       <defs>
        <path d="M 2113 2584 
Q 1688 2584 1439 2293 
Q 1191 2003 1191 1497 
Q 1191 994 1439 701 
Q 1688 409 2113 409 
Q 2538 409 2786 701 
Q 3034 994 3034 1497 
Q 3034 2003 2786 2293 
Q 2538 2584 2113 2584 
z
M 3366 4563 
L 3366 3988 
Q 3128 4100 2886 4159 
Q 2644 4219 2406 4219 
Q 1781 4219 1451 3797 
Q 1122 3375 1075 2522 
Q 1259 2794 1537 2939 
Q 1816 3084 2150 3084 
Q 2853 3084 3261 2657 
Q 3669 2231 3669 1497 
Q 3669 778 3244 343 
Q 2819 -91 2113 -91 
Q 1303 -91 875 529 
Q 447 1150 447 2328 
Q 447 3434 972 4092 
Q 1497 4750 2381 4750 
Q 2619 4750 2861 4703 
Q 3103 4656 3366 4563 
z
" id="DejaVuSans-36" transform="scale(0.015625)"/>
       </defs>
       <use xlink:href="#DejaVuSans-36"/>
       <use x="63.623047" xlink:href="#DejaVuSans-30"/>
       <use x="127.246094" xlink:href="#DejaVuSans-30"/>
       <use x="190.869141" xlink:href="#DejaVuSans-30"/>
       <use x="254.492188" xlink:href="#DejaVuSans-30"/>
      </g>
     </g>
    </g>
    <g id="xtick_5">
     <g id="text_5">
      <!-- 80000 -->
      <g style="fill:#262626;" transform="translate(437.062393 635.156562)scale(0.22 -0.22)">
       <defs>
        <path d="M 2034 2216 
Q 1584 2216 1326 1975 
Q 1069 1734 1069 1313 
Q 1069 891 1326 650 
Q 1584 409 2034 409 
Q 2484 409 2743 651 
Q 3003 894 3003 1313 
Q 3003 1734 2745 1975 
Q 2488 2216 2034 2216 
z
M 1403 2484 
Q 997 2584 770 2862 
Q 544 3141 544 3541 
Q 544 4100 942 4425 
Q 1341 4750 2034 4750 
Q 2731 4750 3128 4425 
Q 3525 4100 3525 3541 
Q 3525 3141 3298 2862 
Q 3072 2584 2669 2484 
Q 3125 2378 3379 2068 
Q 3634 1759 3634 1313 
Q 3634 634 3220 271 
Q 2806 -91 2034 -91 
Q 1263 -91 848 271 
Q 434 634 434 1313 
Q 434 1759 690 2068 
Q 947 2378 1403 2484 
z
M 1172 3481 
Q 1172 3119 1398 2916 
Q 1625 2713 2034 2713 
Q 2441 2713 2670 2916 
Q 2900 3119 2900 3481 
Q 2900 3844 2670 4047 
Q 2441 4250 2034 4250 
Q 1625 4250 1398 4047 
Q 1172 3844 1172 3481 
z
" id="DejaVuSans-38" transform="scale(0.015625)"/>
       </defs>
       <use xlink:href="#DejaVuSans-38"/>
       <use x="63.623047" xlink:href="#DejaVuSans-30"/>
       <use x="127.246094" xlink:href="#DejaVuSans-30"/>
       <use x="190.869141" xlink:href="#DejaVuSans-30"/>
       <use x="254.492188" xlink:href="#DejaVuSans-30"/>
      </g>
     </g>
    </g>
    <g id="xtick_6">
     <g id="text_6">
      <!-- 100000 -->
      <g style="fill:#262626;" transform="translate(517.916557 635.156562)scale(0.22 -0.22)">
       <defs>
        <path d="M 794 531 
L 1825 531 
L 1825 4091 
L 703 3866 
L 703 4441 
L 1819 4666 
L 2450 4666 
L 2450 531 
L 3481 531 
L 3481 0 
L 794 0 
L 794 531 
z
" id="DejaVuSans-31" transform="scale(0.015625)"/>
       </defs>
       <use xlink:href="#DejaVuSans-31"/>
       <use x="63.623047" xlink:href="#DejaVuSans-30"/>
       <use x="127.246094" xlink:href="#DejaVuSans-30"/>
       <use x="190.869141" xlink:href="#DejaVuSans-30"/>
       <use x="254.492188" xlink:href="#DejaVuSans-30"/>
       <use x="318.115234" xlink:href="#DejaVuSans-30"/>
      </g>
     </g>
    </g>
    <g id="text_7">
     <!-- MDTU -->
     <g style="fill:#262626;" transform="translate(304.680964 661.968125)scale(0.24 -0.24)">
      <defs>
       <path d="M 628 4666 
L 1569 4666 
L 2759 1491 
L 3956 4666 
L 4897 4666 
L 4897 0 
L 4281 0 
L 4281 4097 
L 3078 897 
L 2444 897 
L 1241 4097 
L 1241 0 
L 628 0 
L 628 4666 
z
" id="DejaVuSans-4d" transform="scale(0.015625)"/>
       <path d="M 1259 4147 
L 1259 519 
L 2022 519 
Q 2988 519 3436 956 
Q 3884 1394 3884 2338 
Q 3884 3275 3436 3711 
Q 2988 4147 2022 4147 
L 1259 4147 
z
M 628 4666 
L 1925 4666 
Q 3281 4666 3915 4102 
Q 4550 3538 4550 2338 
Q 4550 1131 3912 565 
Q 3275 0 1925 0 
L 628 0 
L 628 4666 
z
" id="DejaVuSans-44" transform="scale(0.015625)"/>
       <path d="M -19 4666 
L 3928 4666 
L 3928 4134 
L 2272 4134 
L 2272 0 
L 1638 0 
L 1638 4134 
L -19 4134 
L -19 4666 
z
" id="DejaVuSans-54" transform="scale(0.015625)"/>
       <path d="M 556 4666 
L 1191 4666 
L 1191 1831 
Q 1191 1081 1462 751 
Q 1734 422 2344 422 
Q 2950 422 3222 751 
Q 3494 1081 3494 1831 
L 3494 4666 
L 4128 4666 
L 4128 1753 
Q 4128 841 3676 375 
Q 3225 -91 2344 -91 
Q 1459 -91 1007 375 
Q 556 841 556 1753 
L 556 4666 
z
" id="DejaVuSans-55" transform="scale(0.015625)"/>
      </defs>
      <use xlink:href="#DejaVuSans-4d"/>
      <use x="86.279297" xlink:href="#DejaVuSans-44"/>
      <use x="163.28125" xlink:href="#DejaVuSans-54"/>
      <use x="224.365234" xlink:href="#DejaVuSans-55"/>
     </g>
    </g>
   </g>
   <g id="matplotlib.axis_2">
    <g id="ytick_1">
     <g id="text_8">
      <!-- 0.50 -->
      <g style="fill:#262626;" transform="translate(34.4275 570.279202)scale(0.22 -0.22)">
       <defs>
        <path d="M 684 794 
L 1344 794 
L 1344 0 
L 684 0 
L 684 794 
z
" id="DejaVuSans-2e" transform="scale(0.015625)"/>
        <path d="M 691 4666 
L 3169 4666 
L 3169 4134 
L 1269 4134 
L 1269 2991 
Q 1406 3038 1543 3061 
Q 1681 3084 1819 3084 
Q 2600 3084 3056 2656 
Q 3513 2228 3513 1497 
Q 3513 744 3044 326 
Q 2575 -91 1722 -91 
Q 1428 -91 1123 -41 
Q 819 9 494 109 
L 494 744 
Q 775 591 1075 516 
Q 1375 441 1709 441 
Q 2250 441 2565 725 
Q 2881 1009 2881 1497 
Q 2881 1984 2565 2268 
Q 2250 2553 1709 2553 
Q 1456 2553 1204 2497 
Q 953 2441 691 2322 
L 691 4666 
z
" id="DejaVuSans-35" transform="scale(0.015625)"/>
       </defs>
       <use xlink:href="#DejaVuSans-30"/>
       <use x="63.623047" xlink:href="#DejaVuSans-2e"/>
       <use x="95.410156" xlink:href="#DejaVuSans-35"/>
       <use x="159.033203" xlink:href="#DejaVuSans-30"/>
      </g>
     </g>
    </g>
    <g id="ytick_2">
     <g id="text_9">
      <!-- 0.75 -->
      <g style="fill:#262626;" transform="translate(34.4275 503.443471)scale(0.22 -0.22)">
       <defs>
        <path d="M 525 4666 
L 3525 4666 
L 3525 4397 
L 1831 0 
L 1172 0 
L 2766 4134 
L 525 4134 
L 525 4666 
z
" id="DejaVuSans-37" transform="scale(0.015625)"/>
       </defs>
       <use xlink:href="#DejaVuSans-30"/>
       <use x="63.623047" xlink:href="#DejaVuSans-2e"/>
       <use x="95.410156" xlink:href="#DejaVuSans-37"/>
       <use x="159.033203" xlink:href="#DejaVuSans-35"/>
      </g>
     </g>
    </g>
    <g id="ytick_3">
     <g id="text_10">
      <!-- 1.00 -->
      <g style="fill:#262626;" transform="translate(34.4275 436.607741)scale(0.22 -0.22)">
       <use xlink:href="#DejaVuSans-31"/>
       <use x="63.623047" xlink:href="#DejaVuSans-2e"/>
       <use x="95.410156" xlink:href="#DejaVuSans-30"/>
       <use x="159.033203" xlink:href="#DejaVuSans-30"/>
      </g>
     </g>
    </g>
    <g id="ytick_4">
     <g id="text_11">
      <!-- 1.25 -->
      <g style="fill:#262626;" transform="translate(34.4275 369.77201)scale(0.22 -0.22)">
       <use xlink:href="#DejaVuSans-31"/>
       <use x="63.623047" xlink:href="#DejaVuSans-2e"/>
       <use x="95.410156" xlink:href="#DejaVuSans-32"/>
       <use x="159.033203" xlink:href="#DejaVuSans-35"/>
      </g>
     </g>
    </g>
    <g id="ytick_5">
     <g id="text_12">
      <!-- 1.50 -->
      <g style="fill:#262626;" transform="translate(34.4275 302.93628)scale(0.22 -0.22)">
       <use xlink:href="#DejaVuSans-31"/>
       <use x="63.623047" xlink:href="#DejaVuSans-2e"/>
       <use x="95.410156" xlink:href="#DejaVuSans-35"/>
       <use x="159.033203" xlink:href="#DejaVuSans-30"/>
      </g>
     </g>
    </g>
    <g id="ytick_6">
     <g id="text_13">
      <!-- 1.75 -->
      <g style="fill:#262626;" transform="translate(34.4275 236.100549)scale(0.22 -0.22)">
       <use xlink:href="#DejaVuSans-31"/>
       <use x="63.623047" xlink:href="#DejaVuSans-2e"/>
       <use x="95.410156" xlink:href="#DejaVuSans-37"/>
       <use x="159.033203" xlink:href="#DejaVuSans-35"/>
      </g>
     </g>
    </g>
    <g id="ytick_7">
     <g id="text_14">
      <!-- 2.00 -->
      <g style="fill:#262626;" transform="translate(34.4275 169.264819)scale(0.22 -0.22)">
       <use xlink:href="#DejaVuSans-32"/>
       <use x="63.623047" xlink:href="#DejaVuSans-2e"/>
       <use x="95.410156" xlink:href="#DejaVuSans-30"/>
       <use x="159.033203" xlink:href="#DejaVuSans-30"/>
      </g>
     </g>
    </g>
    <g id="text_15">
     <!-- $E$ -->
     <g style="fill:#262626;" transform="translate(25.43625 363.813429)rotate(-90)scale(0.24 -0.24)">
      <defs>
       <path d="M 1081 4666 
L 4031 4666 
L 3928 4134 
L 1606 4134 
L 1338 2753 
L 3566 2753 
L 3463 2222 
L 1234 2222 
L 909 531 
L 3284 531 
L 3181 0 
L 172 0 
L 1081 4666 
z
" id="DejaVuSans-Oblique-45" transform="scale(0.015625)"/>
      </defs>
      <use transform="translate(0 0.09375)" xlink:href="#DejaVuSans-Oblique-45"/>
     </g>
    </g>
   </g>
   <g id="line2d_1">
    <path clip-path="url(#pcefa375bb1)" d="M 120.864122 410.793651 
L 121.303386 475.506306 
L 121.523019 495.331593 
L 121.742651 445.015089 
L 121.962283 361.030304 
L 122.401548 526.795139 
L 122.62118 477.470041 
L 122.840812 484.104711 
L 123.060445 376.942386 
L 123.280077 194.432527 
L 123.499709 515.071507 
L 123.719341 375.138382 
L 123.938974 434.395458 
L 124.158606 389.07386 
L 124.597871 438.042077 
L 124.817503 443.851039 
L 125.256767 396.43721 
L 125.4764 466.70999 
L 125.696032 405.651548 
L 125.915664 470.9259 
L 126.135297 472.058662 
L 126.574561 296.752815 
L 126.794193 412.136233 
L 127.013826 374.024229 
L 127.233458 305.782512 
L 127.45309 431.640304 
L 127.892355 461.601001 
L 128.331619 277.984182 
L 128.551252 441.549373 
L 128.770884 424.979457 
L 128.990516 514.009294 
L 129.429781 410.830429 
L 129.649413 451.920995 
L 129.869045 401.083453 
L 130.088678 502.982607 
L 130.30831 413.333412 
L 130.527942 414.718503 
L 130.747575 534.815255 
L 130.967207 441.545351 
L 131.186839 554.127587 
L 131.845736 399.264069 
L 132.065368 494.601257 
L 132.285001 489.268826 
L 132.504633 283.011258 
L 132.724265 462.219684 
L 132.943897 440.583688 
L 133.16353 384.518075 
L 133.383162 480.354085 
L 133.602794 418.008659 
L 133.822426 304.952779 
L 134.042059 451.55671 
L 134.261691 460.144235 
L 134.481323 425.435541 
L 134.700956 436.624262 
L 134.920588 344.021173 
L 135.14022 413.594 
L 135.359852 387.04452 
L 135.579485 436.574523 
L 135.799117 519.481203 
L 136.018749 491.105477 
L 136.458014 341.618184 
L 136.677646 490.979337 
L 136.897278 372.2338 
L 137.116911 433.568267 
L 137.336543 451.557092 
L 137.556175 340.578942 
L 137.775808 325.376725 
L 137.99544 382.752192 
L 138.215072 345.90103 
L 138.434704 384.173062 
L 138.654337 171.245265 
L 138.873969 329.214534 
L 139.093601 385.384773 
L 139.313234 481.831391 
L 139.532866 342.346415 
L 139.752498 496.780925 
L 139.97213 421.235781 
L 140.191763 477.479871 
L 140.411395 421.437208 
L 140.631027 475.942494 
L 140.85066 433.985485 
L 141.070292 330.008369 
L 141.289924 445.031152 
L 141.509556 489.637843 
L 141.729189 485.590793 
L 141.948821 430.5337 
L 142.168453 490.016207 
L 142.388086 278.245858 
L 142.607718 420.15478 
L 142.82735 456.795592 
L 143.046982 558.557804 
L 143.266615 363.095587 
L 143.486247 383.071728 
L 143.705879 453.666859 
L 144.145144 375.030244 
L 144.364776 475.76776 
L 144.584408 432.991055 
L 144.804041 504.725143 
L 145.023673 460.503632 
L 145.243305 385.271501 
L 145.462938 403.951618 
L 145.68257 461.357182 
L 145.902202 456.451019 
L 146.121834 533.29423 
L 146.341467 440.113879 
L 146.561099 269.573051 
L 146.780731 440.136805 
L 147.000364 421.529913 
L 147.219996 357.529889 
L 147.439628 526.18889 
L 147.65926 294.047739 
L 147.878893 448.154559 
L 148.098525 321.654798 
L 148.537789 471.248208 
L 148.757422 407.526788 
L 148.977054 434.357621 
L 149.196686 389.406956 
L 149.416319 475.791835 
L 149.635951 505.41084 
L 149.855583 455.918249 
L 150.075215 371.13033 
L 150.294848 498.456346 
L 150.51448 442.398278 
L 150.734112 438.42462 
L 150.953745 382.843516 
L 151.173377 447.857651 
L 151.393009 380.17783 
L 151.612641 443.658368 
L 151.832274 447.488122 
L 152.051906 350.878106 
L 152.271538 309.703017 
L 152.710803 399.104201 
L 152.930435 340.816688 
L 153.150067 522.36468 
L 153.3697 529.600233 
L 153.589332 498.388258 
L 153.808964 548.310213 
L 154.028597 404.885175 
L 154.248229 432.634935 
L 154.467861 305.717503 
L 154.687493 431.75437 
L 154.907126 413.025434 
L 155.126758 302.006376 
L 155.34639 362.440708 
L 155.566023 333.8328 
L 155.785655 465.898027 
L 156.005287 419.979957 
L 156.224919 507.460631 
L 156.444552 316.395755 
L 156.664184 488.797605 
L 156.883816 488.526983 
L 157.103449 556.115226 
L 157.323081 406.07008 
L 157.542713 463.131711 
L 157.762345 388.193479 
L 157.981978 473.507132 
L 158.20161 368.244388 
L 158.421242 410.401137 
L 158.640875 330.344148 
L 159.080139 482.184904 
L 159.739036 363.587198 
L 160.178301 482.291102 
L 160.617565 355.465232 
L 160.837197 471.621781 
L 161.05683 401.048101 
L 161.276462 473.387869 
L 161.496094 433.809194 
L 161.715727 368.726125 
L 161.935359 415.775375 
L 162.154991 408.813617 
L 162.374623 480.731289 
L 162.594256 394.71621 
L 163.03352 503.647546 
L 163.253153 463.741634 
L 163.472785 489.826072 
L 163.692417 387.782491 
L 163.912049 466.366862 
L 164.131682 385.992966 
L 164.351314 411.482259 
L 164.570946 409.939632 
L 164.790578 452.859701 
L 165.010211 418.974714 
L 165.229843 506.738002 
L 165.449475 412.528095 
L 165.669108 400.254694 
L 165.88874 435.007072 
L 166.108372 447.559005 
L 166.328004 391.305306 
L 166.547637 473.652174 
L 166.767269 360.193336 
L 166.986901 362.979018 
L 167.206534 467.643488 
L 167.426166 376.209149 
L 167.645798 342.669145 
L 167.86543 466.810308 
L 168.085063 441.921962 
L 168.304695 450.795666 
L 168.524327 492.353486 
L 168.74396 424.495947 
L 168.963592 487.799003 
L 169.183224 437.955013 
L 169.402856 457.721452 
L 169.622489 376.505071 
L 169.842121 474.034226 
L 170.061753 402.105672 
L 170.281386 404.867978 
L 170.501018 404.944754 
L 170.72065 428.345975 
L 170.940282 407.988177 
L 171.159915 436.99456 
L 171.379547 446.320886 
L 171.599179 378.991275 
L 171.818812 443.659453 
L 172.038444 374.305096 
L 172.258076 412.904445 
L 172.477708 479.361223 
L 172.697341 411.52358 
L 172.916973 394.844025 
L 173.136605 430.381563 
L 173.356238 488.721639 
L 173.57587 477.776111 
L 173.795502 354.498444 
L 174.015134 423.505162 
L 174.234767 408.728465 
L 174.454399 341.487477 
L 174.674031 415.365011 
L 174.893664 449.637966 
L 175.113296 426.489298 
L 175.332928 482.103072 
L 175.55256 346.397059 
L 175.772193 395.706954 
L 175.991825 342.939347 
L 176.43109 460.741344 
L 176.650722 455.911153 
L 176.870354 273.979185 
L 177.089986 439.429963 
L 177.309619 476.170965 
L 177.529251 493.525708 
L 177.968516 413.370727 
L 178.188148 401.504843 
L 178.40778 328.929361 
L 178.627412 429.026457 
L 178.847045 469.459237 
L 179.066677 307.358238 
L 179.286309 435.005635 
L 179.505941 445.888945 
L 179.725574 368.404416 
L 179.945206 375.551345 
L 180.164838 247.957015 
L 180.384471 370.849884 
L 180.823735 473.527759 
L 181.043367 487.023751 
L 181.263 442.390417 
L 181.482632 291.838748 
L 181.702264 493.235928 
L 181.921897 421.230629 
L 182.141529 413.053944 
L 182.361161 348.446734 
L 182.580793 469.753781 
L 182.800426 452.287891 
L 183.020058 529.345818 
L 183.459323 463.887593 
L 183.678955 519.154745 
L 183.898587 463.258429 
L 184.118219 476.562671 
L 184.337852 537.077185 
L 184.557484 393.085732 
L 184.996749 468.51992 
L 185.436013 392.36264 
L 185.655645 440.510146 
L 185.875278 461.361668 
L 186.09491 465.862951 
L 186.314542 496.315985 
L 186.534175 376.947506 
L 186.753807 464.186966 
L 186.973439 364.391931 
L 187.632336 473.188487 
L 187.851968 354.091522 
L 188.071601 495.832479 
L 188.291233 340.931491 
L 188.510865 396.027258 
L 188.730497 486.04742 
L 188.95013 388.151105 
L 189.169762 518.680118 
L 189.389394 434.798309 
L 189.609027 469.049114 
L 189.828659 458.641095 
L 190.048291 422.345905 
L 190.267923 419.390407 
L 190.487556 506.64568 
L 190.707188 425.673615 
L 190.92682 454.146011 
L 191.146453 371.28023 
L 191.366085 358.768531 
L 191.585717 389.326045 
L 191.805349 488.262083 
L 192.024982 381.692402 
L 192.244614 475.920358 
L 192.464246 339.515792 
L 192.683879 489.996301 
L 192.903511 392.395101 
L 193.123143 414.897983 
L 193.342775 422.812474 
L 193.562408 453.732434 
L 193.78204 426.102798 
L 194.001672 426.35287 
L 194.221305 317.152481 
L 194.440937 523.217917 
L 194.880201 462.484993 
L 195.099834 506.684751 
L 195.319466 356.442601 
L 195.539098 446.544854 
L 195.75873 370.38857 
L 195.978363 439.465966 
L 196.197995 452.391818 
L 196.417627 489.720675 
L 196.856892 360.276355 
L 197.076524 479.561559 
L 197.515789 321.894991 
L 197.735421 450.096613 
L 197.955053 445.237543 
L 198.174686 473.070006 
L 198.394318 225.635433 
L 198.61395 384.507096 
L 198.833582 396.303366 
L 199.053215 421.201299 
L 199.492479 438.340561 
L 199.712112 376.283324 
L 199.931744 479.514109 
L 200.151376 392.419865 
L 200.371008 512.201589 
L 200.590641 474.362929 
L 200.810273 513.943719 
L 201.249538 364.567965 
L 201.688802 490.492891 
L 201.908434 379.672473 
L 202.128067 507.921874 
L 202.567331 360.342731 
L 202.786964 356.823506 
L 203.226228 499.267018 
L 203.44586 426.164225 
L 203.665493 396.579131 
L 203.885125 450.228002 
L 204.104757 414.976489 
L 204.32439 505.375831 
L 204.544022 495.97741 
L 204.763654 437.823758 
L 204.983286 540.91019 
L 205.202919 413.627048 
L 205.422551 446.513269 
L 205.642183 342.018156 
L 206.081448 461.345194 
L 206.30108 461.978791 
L 206.520712 304.7203 
L 206.740345 470.389569 
L 206.959977 472.937604 
L 207.179609 414.058711 
L 207.399242 394.010057 
L 207.618874 392.637445 
L 207.838506 392.691103 
L 208.058138 381.303289 
L 208.277771 469.4224 
L 208.497403 233.617782 
L 208.717035 443.099964 
L 208.936668 416.325368 
L 209.1563 341.346465 
L 209.375932 384.083065 
L 209.815197 402.333215 
L 210.034829 462.963259 
L 210.254461 452.790093 
L 210.474093 453.661678 
L 210.693726 320.839511 
L 210.913358 408.88707 
L 211.572255 503.515822 
L 211.791887 455.728527 
L 212.011519 377.780746 
L 212.231152 469.787251 
L 212.450784 437.450888 
L 212.670416 475.029696 
L 212.890049 555.053433 
L 213.109681 461.961863 
L 213.329313 290.811717 
L 213.768578 419.839857 
L 213.98821 270.287946 
L 214.207842 475.826861 
L 214.647107 361.627835 
L 214.866739 465.835102 
L 215.086371 420.453801 
L 215.306004 418.068692 
L 215.525636 476.850026 
L 215.745268 356.558538 
L 215.964901 429.761705 
L 216.184533 207.701816 
L 216.404165 411.460015 
L 216.623797 368.630619 
L 216.84343 357.364348 
L 217.063062 331.719435 
L 217.282694 533.877226 
L 217.502327 361.922692 
L 217.721959 467.780168 
L 217.941591 378.301603 
L 218.161223 494.419746 
L 218.380856 445.614815 
L 218.600488 362.210429 
L 218.82012 512.135276 
L 219.039753 441.383948 
L 219.259385 435.701649 
L 219.479017 459.751504 
L 219.698649 439.886694 
L 219.918282 501.874436 
L 220.137914 440.669059 
L 220.357546 279.871995 
L 220.577179 481.362063 
L 221.016443 394.34943 
L 221.455708 506.621073 
L 221.67534 462.829597 
L 222.114605 438.204898 
L 222.334237 309.879808 
L 222.553869 368.559412 
L 222.773501 374.813707 
L 222.993134 405.61332 
L 223.212766 382.653291 
L 223.432398 333.667876 
L 223.652031 447.1352 
L 223.871663 456.507291 
L 224.091295 489.234528 
L 224.310927 297.529454 
L 224.53056 374.47979 
L 224.750192 404.966742 
L 224.969824 400.346605 
L 225.189456 427.796139 
L 225.409089 418.927516 
L 225.628721 401.173194 
L 225.848353 373.744129 
L 226.067986 469.565113 
L 226.287618 371.3991 
L 226.50725 441.872244 
L 226.726882 367.680544 
L 226.946515 452.753653 
L 227.166147 458.955113 
L 227.385779 208.520216 
L 227.605412 409.493471 
L 227.825044 418.086794 
L 228.044676 459.174857 
L 228.264308 416.107201 
L 228.483941 471.767075 
L 228.703573 356.269218 
L 228.923205 441.543575 
L 229.142838 418.43976 
L 229.36247 364.654853 
L 229.801734 506.683281 
L 230.021367 456.493824 
L 230.240999 455.972809 
L 230.460631 147.919173 
L 230.680264 481.020124 
L 230.899896 491.359885 
L 231.33916 336.712754 
L 231.558793 505.532491 
L 231.778425 469.657953 
L 231.998057 257.894222 
L 232.21769 454.212348 
L 232.437322 268.392752 
L 232.656954 387.141017 
L 232.876586 386.445755 
L 233.096219 317.856786 
L 233.535483 494.107408 
L 233.755116 461.422556 
L 233.974748 321.898979 
L 234.19438 432.388616 
L 234.414012 358.917031 
L 234.633645 519.292888 
L 234.853277 485.51824 
L 235.072909 476.318847 
L 235.292542 429.212782 
L 235.512174 499.903454 
L 235.731806 444.279348 
L 235.951438 421.986372 
L 236.171071 357.480916 
L 236.610335 418.606266 
L 236.829968 383.805721 
L 237.0496 438.643297 
L 237.269232 353.933247 
L 237.488864 528.188688 
L 237.708497 421.133218 
L 237.928129 382.259742 
L 238.147761 466.391218 
L 238.367394 368.264429 
L 238.587026 426.743449 
L 238.806658 412.082199 
L 239.02629 433.812974 
L 239.245923 390.063068 
L 239.465555 300.749232 
L 239.685187 455.054091 
L 239.90482 487.956325 
L 240.124452 465.978146 
L 240.344084 407.640384 
L 240.563716 451.446443 
L 240.783349 388.356751 
L 241.002981 431.152325 
L 241.222613 499.258349 
L 241.442245 435.599227 
L 241.661878 314.802685 
L 241.88151 371.032508 
L 242.101142 297.109308 
L 242.320775 473.439178 
L 242.540407 471.01007 
L 242.760039 474.272117 
L 242.979671 345.464425 
L 243.418936 465.938876 
L 243.638568 388.107621 
L 243.858201 367.358911 
L 244.077833 320.596931 
L 244.297465 453.933526 
L 244.517097 462.0168 
L 244.73673 372.261796 
L 244.956362 449.333578 
L 245.175994 407.73829 
L 245.395627 413.999183 
L 245.615259 308.394516 
L 245.834891 463.133042 
L 246.054523 439.599625 
L 246.274156 501.67138 
L 246.493788 389.03127 
L 246.933053 448.151545 
L 247.152685 343.496086 
L 247.372317 318.656556 
L 247.591949 510.757886 
L 247.811582 519.657088 
L 248.031214 377.728885 
L 248.250846 413.241063 
L 248.470479 487.018829 
L 248.690111 371.561033 
L 249.129375 416.617775 
L 249.349008 384.75863 
L 249.56864 373.519689 
L 249.788272 458.349023 
L 250.007905 416.705657 
L 250.227537 452.409064 
L 250.447169 353.867617 
L 250.666801 442.074592 
L 250.886434 377.47883 
L 251.106066 465.316283 
L 251.325698 480.437893 
L 251.545331 384.898529 
L 251.764963 510.580436 
L 251.984595 227.595747 
L 252.204227 428.376123 
L 252.42386 511.49799 
L 252.643492 502.546109 
L 252.863124 433.650854 
L 253.082757 455.78222 
L 253.302389 420.335931 
L 253.522021 338.721895 
L 253.741653 420.680851 
L 253.961286 359.334488 
L 254.180918 470.782223 
L 254.40055 388.106331 
L 254.620183 473.04485 
L 254.839815 393.432285 
L 255.059447 397.439008 
L 255.279079 376.91359 
L 255.498712 404.394969 
L 255.718344 398.496308 
L 255.937976 472.447609 
L 256.157608 443.287263 
L 256.377241 370.073872 
L 256.816505 448.241574 
L 257.036138 405.661599 
L 257.25577 273.716566 
L 257.475402 350.048735 
L 257.695034 485.819185 
L 257.914667 445.891317 
L 258.134299 428.768227 
L 258.353931 436.030701 
L 258.573564 252.37515 
L 258.793196 428.738893 
L 259.012828 462.005581 
L 259.23246 434.492771 
L 259.452093 468.157173 
L 259.891357 305.103091 
L 260.11099 489.710054 
L 260.330622 531.58417 
L 260.550254 460.941819 
L 260.769886 445.737089 
L 260.989519 465.756887 
L 261.209151 450.443039 
L 261.428783 341.07216 
L 261.868048 544.482796 
L 262.08768 314.890255 
L 262.307312 377.881727 
L 262.526945 492.477462 
L 262.746577 397.309839 
L 262.966209 495.208712 
L 263.185842 446.788187 
L 263.405474 480.720786 
L 263.625106 468.443442 
L 263.844738 371.615819 
L 264.064371 357.609374 
L 264.284003 501.375585 
L 264.503635 479.241254 
L 264.723268 432.559803 
L 264.9429 420.010371 
L 265.382164 329.094629 
L 265.601797 435.51978 
L 265.821429 380.231165 
L 266.041061 410.925199 
L 266.260694 382.881638 
L 266.480326 405.579727 
L 266.699958 452.129598 
L 266.91959 312.507332 
L 267.139223 444.676008 
L 267.358855 431.547605 
L 267.578487 399.396007 
L 268.017752 469.932695 
L 268.237384 510.564664 
L 268.457016 459.451659 
L 268.676649 477.64993 
L 268.896281 462.200415 
L 269.115913 406.200322 
L 269.335546 450.629283 
L 269.555178 435.147598 
L 269.994442 469.54019 
L 270.214075 361.839467 
L 270.433707 479.904359 
L 270.653339 466.027924 
L 270.872972 504.492354 
L 271.092604 496.526667 
L 271.312236 352.940694 
L 271.531868 365.405197 
L 271.751501 484.023504 
L 271.971133 494.010034 
L 272.410397 429.842566 
L 272.63003 474.642506 
L 272.849662 426.234476 
L 273.069294 455.145281 
L 273.288927 422.770832 
L 273.508559 421.902354 
L 273.728191 373.574388 
L 273.947823 390.09185 
L 274.167456 465.22061 
L 274.387088 428.395769 
L 274.60672 444.121705 
L 274.826353 415.620136 
L 275.045985 491.494432 
L 275.485249 464.62587 
L 275.704882 451.530545 
L 275.924514 395.480083 
L 276.144146 417.39465 
L 276.363779 469.222324 
L 276.583411 446.27637 
L 276.803043 280.919975 
L 277.022675 441.037789 
L 277.242308 385.90379 
L 277.46194 460.903787 
L 277.681572 402.966406 
L 277.901205 289.207725 
L 278.120837 438.686676 
L 278.340469 432.097313 
L 278.560101 330.763219 
L 278.779734 354.394164 
L 279.218998 527.589691 
L 279.438631 344.903812 
L 279.658263 466.63048 
L 279.877895 476.877453 
L 280.097527 368.361059 
L 280.536792 500.635982 
L 280.756424 483.797099 
L 280.976057 383.731249 
L 281.195689 421.228468 
L 281.415321 525.455592 
L 281.634953 487.943855 
L 281.854586 412.123168 
L 282.074218 392.400315 
L 282.29385 482.322334 
L 282.513483 349.706628 
L 282.733115 421.973117 
L 282.952747 456.336421 
L 283.172379 446.011855 
L 283.392012 405.52471 
L 283.611644 423.076159 
L 283.831276 428.479631 
L 284.050909 303.580484 
L 284.270541 469.55801 
L 284.490173 488.080616 
L 284.709805 459.90799 
L 284.929438 408.653452 
L 285.14907 441.62515 
L 285.368702 379.488863 
L 285.588335 402.485732 
L 285.807967 362.689346 
L 286.027599 453.186407 
L 286.247231 354.032469 
L 286.466864 519.189029 
L 286.906128 400.940225 
L 287.12576 402.986444 
L 287.345393 442.402602 
L 287.565025 318.630536 
L 287.784657 270.310844 
L 288.00429 513.740722 
L 288.223922 370.548089 
L 288.443554 456.693116 
L 288.663186 344.709046 
L 288.882819 412.268533 
L 289.102451 423.006629 
L 289.322083 410.737596 
L 289.541716 468.695331 
L 289.761348 309.784902 
L 289.98098 491.217104 
L 290.200612 474.473919 
L 290.420245 385.301042 
L 290.639877 397.607806 
L 290.859509 427.842984 
L 291.079142 493.981797 
L 291.298774 392.230506 
L 291.957671 444.008693 
L 292.177303 370.423623 
L 292.396935 389.314401 
L 292.616568 462.196359 
L 292.8362 398.63858 
L 293.055832 427.789389 
L 293.275464 385.181442 
L 293.495097 376.922294 
L 293.714729 414.18275 
L 293.934361 389.986873 
L 294.153994 429.716278 
L 294.373626 420.598295 
L 294.81289 332.578013 
L 295.032523 483.835161 
L 295.252155 440.575753 
L 295.471787 429.503897 
L 295.69142 462.027615 
L 295.911052 379.188362 
L 296.130684 431.835232 
L 296.350316 330.95889 
L 296.569949 339.864344 
L 296.789581 402.709637 
L 297.009213 383.421703 
L 297.228846 403.29708 
L 297.448478 368.049194 
L 297.66811 466.778783 
L 297.887742 269.160459 
L 298.107375 425.676233 
L 298.327007 390.860152 
L 298.546639 414.757706 
L 298.766272 463.352947 
L 298.985904 374.647544 
L 299.205536 443.739122 
L 299.425168 403.387976 
L 299.644801 301.023945 
L 299.864433 514.014182 
L 300.303698 435.595725 
L 300.52333 434.310732 
L 300.742962 324.449709 
L 300.962594 526.703776 
L 301.182227 434.655553 
L 301.401859 484.682028 
L 301.621491 472.877103 
L 301.841124 406.134805 
L 302.060756 471.548606 
L 302.280388 457.285442 
L 302.50002 512.90321 
L 302.719653 383.084423 
L 302.939285 420.688963 
L 303.158917 359.4427 
L 303.378549 467.572665 
L 303.598182 331.753863 
L 303.817814 422.468968 
L 304.037446 341.326303 
L 304.257079 476.181168 
L 304.476711 477.947002 
L 304.696343 341.562819 
L 305.135608 480.808237 
L 305.35524 409.253699 
L 305.574872 482.596393 
L 305.794505 458.646028 
L 306.014137 470.526767 
L 306.233769 580.503039 
L 306.453401 341.397804 
L 306.673034 480.931933 
L 306.892666 465.866204 
L 307.112298 499.944602 
L 307.331931 438.908767 
L 307.551563 456.478084 
L 307.771195 484.633742 
L 307.990827 385.999215 
L 308.21046 409.992384 
L 308.430092 383.932683 
L 308.649724 447.969788 
L 308.869357 413.827332 
L 309.088989 296.70184 
L 309.308621 444.977978 
L 309.528253 466.286153 
L 309.747886 413.103539 
L 309.967518 504.306135 
L 310.18715 541.950391 
L 310.406783 357.638882 
L 310.626415 401.858166 
L 310.846047 406.802406 
L 311.065679 370.322507 
L 311.285312 362.419907 
L 311.504944 445.617748 
L 311.724576 426.437633 
L 311.944209 257.657388 
L 312.383473 512.443663 
L 312.822738 258.304537 
L 313.262002 459.091181 
L 313.481635 415.761978 
L 313.701267 458.267867 
L 313.920899 466.575485 
L 314.140531 352.322376 
L 314.360164 455.662875 
L 314.579796 491.226733 
L 314.799428 374.596364 
L 315.019061 416.911539 
L 315.238693 412.148969 
L 315.458325 458.253496 
L 315.677957 531.162675 
L 316.117222 400.779315 
L 316.336854 462.511099 
L 316.556487 404.328173 
L 316.776119 487.095695 
L 317.215383 317.186091 
L 317.435016 471.766204 
L 317.87428 345.251278 
L 318.093912 406.362395 
L 318.313545 307.316331 
L 318.533177 405.078566 
L 318.752809 399.789711 
L 318.972442 427.22834 
L 319.192074 373.381923 
L 319.411706 381.412103 
L 319.631338 434.297771 
L 319.850971 299.534482 
L 320.070603 488.32977 
L 320.509868 420.841565 
L 320.7295 431.872273 
L 320.949132 454.891285 
L 321.168764 368.447174 
L 321.388397 466.091103 
L 321.608029 374.910386 
L 321.827661 510.251469 
L 322.047294 484.417343 
L 322.266926 404.060827 
L 322.486558 403.528337 
L 322.70619 500.033509 
L 322.925823 387.15455 
L 323.145455 452.553426 
L 323.365087 482.199684 
L 323.58472 331.505718 
L 323.804352 429.472297 
L 324.023984 476.781514 
L 324.243616 375.07099 
L 324.463249 381.725704 
L 324.682881 424.724876 
L 324.902513 415.512446 
L 325.122146 335.830398 
L 325.341778 426.404324 
L 325.56141 463.724433 
L 325.781042 330.976773 
L 326.439939 519.915482 
L 326.659572 409.923615 
L 326.879204 425.043909 
L 327.098836 488.265524 
L 327.318468 493.318954 
L 327.538101 293.656294 
L 327.757733 416.10478 
L 327.977365 470.782677 
L 328.196998 427.693012 
L 328.41663 475.191016 
L 328.636262 344.034036 
L 328.855894 357.171977 
L 329.075527 379.384724 
L 329.295159 337.657807 
L 329.514791 471.223783 
L 329.734424 423.291204 
L 329.954056 408.850815 
L 330.39332 503.482506 
L 330.612953 409.376413 
L 330.832585 495.277393 
L 331.052217 456.658726 
L 331.27185 495.086596 
L 331.711114 445.093164 
L 332.150379 341.530632 
L 332.370011 364.871451 
L 332.589643 453.794144 
L 332.809275 429.239064 
L 333.028908 374.737974 
L 333.468172 475.45435 
L 333.687805 455.336582 
L 333.907437 507.174567 
L 334.127069 353.506084 
L 334.346701 375.395695 
L 334.566334 463.195731 
L 334.785966 400.321394 
L 335.005598 454.813177 
L 335.444863 481.073157 
L 335.664495 509.638648 
L 335.884127 386.109182 
L 336.10376 351.735157 
L 336.323392 527.071447 
L 336.543024 438.734791 
L 336.762657 417.007732 
L 336.982289 338.977937 
L 337.421553 402.313875 
L 337.641186 402.137833 
L 337.860818 391.211338 
L 338.08045 399.849068 
L 338.300083 503.163515 
L 338.519715 434.40959 
L 338.739347 474.834203 
L 338.958979 427.167575 
L 339.178612 438.856056 
L 339.398244 359.966782 
L 339.617876 368.28907 
L 340.057141 506.906404 
L 340.276773 444.105787 
L 340.496405 332.305237 
L 340.93567 474.374284 
L 341.155302 301.785015 
L 341.374935 474.324656 
L 341.594567 361.814828 
L 341.814199 499.964473 
L 342.033831 500.1749 
L 342.253464 520.493232 
L 342.473096 527.145301 
L 342.692728 423.994555 
L 342.912361 447.446196 
L 343.131993 417.20669 
L 343.351625 515.739907 
L 343.571257 482.534997 
L 343.79089 502.998349 
L 344.230154 304.531176 
L 344.669419 455.516647 
L 344.889051 308.674894 
L 345.108683 475.159454 
L 345.328316 399.319752 
L 345.547948 521.153093 
L 345.987213 410.761885 
L 346.206845 421.727681 
L 346.426477 469.890241 
L 346.646109 345.917213 
L 346.865742 396.859771 
L 347.085374 485.621668 
L 347.305006 424.188483 
L 347.524639 446.30243 
L 347.744271 385.936118 
L 347.963903 452.60517 
L 348.183535 443.136221 
L 348.403168 440.483392 
L 348.6228 390.53674 
L 348.842432 469.313623 
L 349.062064 350.300378 
L 349.281697 420.161831 
L 349.501329 446.667281 
L 349.720961 420.511505 
L 349.940594 457.331698 
L 350.160226 377.770965 
L 350.379858 415.756211 
L 350.59949 331.240476 
L 350.819123 381.008559 
L 351.038755 380.863804 
L 351.258387 458.125363 
L 351.47802 434.850526 
L 351.697652 333.881789 
L 351.917284 536.337137 
L 352.356549 252.592502 
L 352.795813 507.75366 
L 353.235078 455.896497 
L 353.45471 395.299996 
L 353.674342 365.441032 
L 353.893975 478.887733 
L 354.113607 467.446665 
L 354.552872 341.225385 
L 354.772504 505.426186 
L 355.211768 321.420708 
L 355.431401 439.098373 
L 355.651033 384.897951 
L 355.870665 397.738301 
L 356.529562 534.803876 
L 356.749194 492.128734 
L 356.968827 378.975165 
L 357.188459 484.809938 
L 357.408091 375.220284 
L 357.627724 427.677942 
L 357.847356 376.057185 
L 358.066988 405.243651 
L 358.28662 393.897155 
L 358.506253 457.046552 
L 358.725885 441.463284 
L 358.945517 249.190341 
L 359.16515 514.764155 
L 359.384782 485.678001 
L 359.604414 310.504525 
L 359.824046 499.567453 
L 360.043679 345.299818 
L 360.263311 424.094548 
L 360.482943 385.169027 
L 360.702576 514.737121 
L 360.922208 460.874758 
L 361.14184 493.093695 
L 361.581105 441.807312 
L 361.800737 493.174155 
L 362.020369 420.609425 
L 362.240002 391.216678 
L 362.459634 424.342302 
L 362.679266 436.296078 
L 362.898898 336.926788 
L 363.118531 481.28945 
L 363.338163 361.67877 
L 363.557795 415.070166 
L 363.777427 414.992474 
L 363.99706 442.092659 
L 364.216692 348.735174 
L 364.436324 340.143071 
L 364.655957 496.73871 
L 364.875589 431.394197 
L 365.095221 299.677595 
L 365.314853 542.071045 
L 365.754118 383.593 
L 365.97375 487.37753 
L 366.193383 517.150616 
L 366.413015 502.139308 
L 366.632647 432.522759 
L 366.852279 439.27476 
L 367.071912 490.998805 
L 367.511176 452.767088 
L 367.730809 503.132424 
L 367.950441 365.797237 
L 368.170073 407.292796 
L 368.389705 483.837127 
L 368.609338 441.18959 
L 368.82897 421.358444 
L 369.048602 466.638468 
L 369.268235 400.103634 
L 369.487867 426.697355 
L 369.707499 411.646869 
L 369.927131 375.792052 
L 370.146764 412.228714 
L 370.366396 392.869232 
L 370.586028 482.106326 
L 370.805661 397.864754 
L 371.025293 386.784689 
L 371.244925 476.691352 
L 371.464557 489.87163 
L 371.68419 471.384952 
L 371.903822 438.180928 
L 372.123454 501.126388 
L 372.343087 382.195295 
L 372.562719 439.45128 
L 372.782351 386.686906 
L 373.001983 424.003748 
L 373.221616 300.804482 
L 373.66088 510.475025 
L 373.880513 475.039033 
L 374.100145 408.98381 
L 374.319777 496.649324 
L 374.539409 422.392242 
L 374.759042 530.780599 
L 374.978674 332.609733 
L 375.198306 507.970031 
L 375.417939 499.167389 
L 375.637571 427.596463 
L 375.857203 452.779458 
L 376.076835 345.262222 
L 376.296468 436.707569 
L 376.5161 428.559027 
L 376.735732 483.526288 
L 377.174997 392.080958 
L 377.394629 440.810232 
L 377.614261 367.405382 
L 377.833894 445.736448 
L 378.053526 319.549062 
L 378.273158 433.344107 
L 378.492791 446.127912 
L 378.932055 427.973238 
L 379.151687 371.550014 
L 379.590952 524.599753 
L 379.810584 509.042622 
L 380.249849 376.39459 
L 380.469481 501.802282 
L 380.689113 447.520954 
L 380.908746 481.093047 
L 381.128378 418.073625 
L 381.34801 451.834965 
L 381.567642 285.248913 
L 382.006907 453.640328 
L 382.226539 423.653769 
L 382.446172 331.241581 
L 382.665804 407.308938 
L 382.885436 368.960307 
L 383.105068 383.061091 
L 383.324701 324.911964 
L 383.544333 342.932223 
L 383.763965 325.541057 
L 383.983598 481.910382 
L 384.20323 401.381094 
L 384.422862 500.977299 
L 384.642494 426.447344 
L 384.862127 464.745652 
L 385.081759 444.178722 
L 385.301391 358.559331 
L 385.521024 369.983876 
L 385.740656 483.481047 
L 385.960288 385.85756 
L 386.17992 395.76829 
L 386.399553 465.708543 
L 386.619185 372.269318 
L 386.838817 424.027644 
L 387.05845 353.87077 
L 387.278082 471.619556 
L 387.497714 492.460049 
L 387.717346 500.314449 
L 387.936979 333.942528 
L 388.156611 492.087437 
L 388.376243 448.908718 
L 388.595876 471.531389 
L 388.815508 343.645983 
L 389.03514 491.242625 
L 389.254772 415.876027 
L 389.474405 511.752518 
L 389.694037 401.926459 
L 389.913669 478.429337 
L 390.133302 369.537601 
L 390.352934 408.424132 
L 390.572566 523.564409 
L 390.792198 351.543295 
L 391.011831 374.561867 
L 391.231463 474.417007 
L 391.451095 395.1626 
L 391.670728 392.505549 
L 391.89036 376.515482 
L 392.109992 456.134092 
L 392.329624 318.468167 
L 392.549257 465.692034 
L 392.768889 346.332633 
L 393.208154 455.027236 
L 393.427786 385.080627 
L 393.647418 386.059264 
L 393.86705 443.47529 
L 394.086683 432.246684 
L 394.306315 398.758576 
L 394.525947 467.87067 
L 394.965212 397.514151 
L 395.184844 389.804459 
L 395.404476 409.831663 
L 395.624109 458.524111 
L 395.843741 412.404069 
L 396.063373 449.159508 
L 396.283005 459.702728 
L 396.72227 431.520455 
L 396.941902 451.141742 
L 397.161535 359.056222 
L 397.381167 404.810161 
L 397.600799 421.545883 
L 397.820431 398.399977 
L 398.040064 360.736782 
L 398.479328 471.691858 
L 398.698961 469.80775 
L 398.918593 499.433386 
L 399.138225 421.876558 
L 399.357857 448.337705 
L 399.57749 439.462138 
L 399.797122 495.94033 
L 400.016754 502.303473 
L 400.236387 495.78531 
L 400.456019 373.453827 
L 400.675651 451.863059 
L 400.895283 393.732112 
L 401.114916 411.242289 
L 401.334548 376.441027 
L 401.55418 498.179417 
L 401.773813 280.846008 
L 401.993445 409.203092 
L 402.213077 435.752601 
L 402.432709 331.517906 
L 402.652342 342.75507 
L 402.871974 392.173757 
L 403.091606 270.416392 
L 403.311239 442.670267 
L 403.530871 403.007618 
L 403.750503 523.379329 
L 403.970135 369.112355 
L 404.189768 499.132068 
L 404.4094 466.094551 
L 404.629032 467.280463 
L 404.848665 467.790321 
L 405.068297 217.436963 
L 405.287929 516.160716 
L 405.727194 386.46736 
L 405.946826 452.987532 
L 406.166458 382.235023 
L 406.386091 367.171451 
L 406.605723 410.515013 
L 407.044987 373.510774 
L 407.26462 424.07877 
L 407.484252 326.207704 
L 407.703884 494.720477 
L 407.923517 379.205965 
L 408.143149 399.237923 
L 408.362781 522.047003 
L 408.582413 369.11932 
L 408.802046 424.445412 
L 409.021678 319.647061 
L 409.460943 509.441582 
L 409.680575 454.766727 
L 409.900207 349.896744 
L 410.119839 390.22864 
L 410.339472 361.734042 
L 410.778736 444.321716 
L 410.998368 356.971141 
L 411.218001 476.383284 
L 411.437633 299.91899 
L 411.876898 499.153576 
L 412.09653 519.026904 
L 412.316162 489.661677 
L 412.755427 369.848439 
L 412.975059 385.197885 
L 413.194691 379.395211 
L 413.414324 397.469966 
L 413.633956 489.438052 
L 413.853588 508.704818 
L 414.07322 414.543698 
L 414.292853 476.184808 
L 414.512485 451.900886 
L 414.732117 446.699738 
L 414.95175 541.146542 
L 415.171382 453.99391 
L 415.391014 473.200536 
L 415.610646 352.736834 
L 415.830279 472.432698 
L 416.049911 462.050368 
L 416.269543 404.066145 
L 416.489176 457.223643 
L 416.708808 451.885984 
L 416.92844 399.825333 
L 417.148072 462.811817 
L 417.367705 395.742636 
L 417.806969 449.7732 
L 418.026602 460.809703 
L 418.246234 495.580088 
L 418.465866 413.514501 
L 418.685498 481.207141 
L 418.905131 475.326686 
L 419.124763 512.520133 
L 419.344395 371.933486 
L 419.564028 380.51321 
L 419.78366 382.165855 
L 420.003292 411.504218 
L 420.222924 416.967307 
L 420.442557 472.997209 
L 420.662189 399.031567 
L 420.881821 479.594807 
L 421.101454 392.277748 
L 421.321086 356.819853 
L 421.540718 369.797577 
L 421.76035 396.741473 
L 421.979983 361.190432 
L 422.199615 463.394445 
L 422.419247 350.421021 
L 422.63888 348.218169 
L 422.858512 465.164399 
L 423.078144 462.686808 
L 423.297776 493.80996 
L 423.517409 388.776271 
L 423.737041 487.785036 
L 423.956673 494.495943 
L 424.176306 444.459772 
L 424.395938 433.115833 
L 424.61557 468.967042 
L 424.835202 466.604273 
L 425.054835 297.981844 
L 425.274467 268.237892 
L 425.494099 475.4891 
L 425.933364 316.352993 
L 426.152996 398.649329 
L 426.372628 388.507114 
L 426.592261 447.057291 
L 427.031525 348.281383 
L 427.251157 500.132662 
L 427.47079 479.612145 
L 427.690422 290.496823 
L 428.129687 458.126112 
L 428.349319 308.649083 
L 428.568951 271.411451 
L 428.788583 414.775112 
L 429.008216 439.303099 
L 429.227848 443.452401 
L 429.44748 433.073917 
L 429.667113 509.75591 
L 429.886745 319.529402 
L 430.106377 455.979319 
L 430.545642 481.098399 
L 430.765274 401.919493 
L 430.984906 442.451419 
L 431.204539 423.49925 
L 431.424171 489.243988 
L 431.643803 421.660337 
L 431.863435 477.790129 
L 432.083068 474.852831 
L 432.3027 467.938364 
L 432.522332 466.36128 
L 432.741965 428.174759 
L 432.961597 531.295378 
L 433.181229 434.973452 
L 433.400861 414.032087 
L 433.620494 332.048399 
L 433.840126 473.550389 
L 434.059758 465.816987 
L 434.279391 366.172398 
L 434.499023 338.57991 
L 434.718655 369.535067 
L 434.938287 535.28203 
L 435.377552 305.713421 
L 436.036449 529.223628 
L 436.256081 512.839392 
L 436.475713 512.639588 
L 436.695346 528.515025 
L 436.914978 502.412507 
L 437.13461 349.078259 
L 437.354243 318.05409 
L 437.793507 499.519396 
L 438.013139 345.398905 
L 438.452404 469.718101 
L 438.672036 465.955006 
L 438.891669 432.278911 
L 439.111301 301.711477 
L 439.330933 341.048862 
L 439.550565 443.206446 
L 439.770198 468.456894 
L 439.98983 325.593017 
L 440.209462 510.547756 
L 440.429094 308.987375 
L 440.648727 480.610153 
L 440.868359 514.145363 
L 441.307624 395.360007 
L 441.527256 431.636206 
L 441.746888 381.891788 
L 442.186153 478.909213 
L 442.405785 478.14715 
L 442.625417 437.820524 
L 442.84505 445.237613 
L 443.064682 533.656454 
L 443.284314 408.268698 
L 443.503946 482.898715 
L 443.723579 416.97881 
L 443.943211 312.990664 
L 444.162843 409.805189 
L 444.382476 445.626962 
L 444.602108 522.147237 
L 444.82174 422.033407 
L 445.041372 424.604895 
L 445.261005 324.430265 
L 445.480637 492.152082 
L 445.700269 365.190401 
L 445.919902 452.56886 
L 446.139534 395.930369 
L 446.359166 304.165264 
L 446.578798 343.539296 
L 446.798431 335.58255 
L 447.018063 219.958098 
L 447.237695 442.847285 
L 447.457328 340.933006 
L 447.67696 436.240374 
L 447.896592 460.263694 
L 448.116224 434.734988 
L 448.335857 395.894212 
L 448.555489 394.404968 
L 448.775121 403.876025 
L 448.994754 476.369768 
L 449.214386 487.084131 
L 449.434018 389.151149 
L 449.65365 393.006972 
L 449.873283 488.576183 
L 450.092915 323.275417 
L 450.312547 379.957999 
L 450.53218 308.872324 
L 450.971444 492.362011 
L 451.191076 372.925789 
L 451.410709 335.263884 
L 451.630341 498.050642 
L 452.289238 392.465804 
L 452.50887 531.356488 
L 452.728502 380.485746 
L 452.948135 348.36087 
L 453.167767 391.413117 
L 453.387399 207.006901 
L 453.607032 375.202635 
L 453.826664 350.861932 
L 454.046296 276.68876 
L 454.265928 458.390895 
L 454.485561 462.861933 
L 454.705193 277.928353 
L 454.924825 372.322723 
L 455.144458 395.966072 
L 455.36409 393.250902 
L 455.583722 397.454857 
L 455.803354 250.145758 
L 456.022987 499.889642 
L 456.242619 383.404561 
L 456.462251 461.027324 
L 456.681883 362.683986 
L 456.901516 384.495426 
L 457.121148 484.954437 
L 457.34078 445.679959 
L 457.560413 427.01158 
L 457.780045 474.157143 
L 457.999677 310.190593 
L 458.219309 421.238607 
L 458.438942 370.895427 
L 458.658574 431.527511 
L 458.878206 384.561448 
L 459.097839 397.885576 
L 459.317471 498.498313 
L 459.537103 487.102382 
L 459.756735 419.416777 
L 459.976368 419.045291 
L 460.196 486.856742 
L 460.635265 354.882207 
L 460.854897 425.39651 
L 461.074529 413.021195 
L 461.294161 436.335404 
L 461.513794 429.627616 
L 461.733426 303.391415 
L 461.953058 398.264933 
L 462.172691 365.073068 
L 462.392323 387.776951 
L 462.611955 327.74926 
L 462.831587 427.829252 
L 463.05122 411.359081 
L 463.270852 378.373246 
L 463.490484 402.798798 
L 463.710117 548.967564 
L 463.929749 425.440407 
L 464.149381 462.28849 
L 464.369013 390.791022 
L 464.588646 430.243883 
L 464.808278 406.144025 
L 465.02791 294.948882 
L 465.247543 430.367708 
L 465.467175 395.797098 
L 465.686807 488.362349 
L 465.906439 494.290166 
L 466.345704 323.256409 
L 466.565336 352.053955 
L 466.784969 349.645113 
L 467.004601 311.390546 
L 467.224233 382.567549 
L 467.443865 400.058193 
L 467.663498 519.533399 
L 467.88313 402.02697 
L 468.102762 488.546837 
L 468.322395 401.894913 
L 468.542027 453.519457 
L 468.761659 400.475745 
L 468.981291 478.500058 
L 469.200924 300.422808 
L 469.420556 427.276876 
L 469.640188 398.243582 
L 469.859821 421.246597 
L 470.079453 480.593254 
L 470.299085 312.651646 
L 470.518717 291.226649 
L 470.73835 340.895365 
L 470.957982 437.884351 
L 471.397246 371.919478 
L 471.616879 483.34331 
L 471.836511 311.458501 
L 472.056143 415.199012 
L 472.275776 309.784311 
L 472.495408 493.13257 
L 472.71504 534.933121 
L 472.934672 343.273949 
L 473.154305 488.513053 
L 473.373937 448.027426 
L 473.593569 474.113644 
L 473.813202 407.278049 
L 474.032834 483.496979 
L 474.252466 399.806805 
L 474.472098 424.912673 
L 474.691731 395.039271 
L 474.911363 467.587375 
L 475.130995 407.402326 
L 475.350628 500.224231 
L 475.789892 384.195495 
L 476.009524 456.127781 
L 476.229157 447.872524 
L 476.448789 402.132269 
L 476.668421 456.035134 
L 476.888054 429.169812 
L 477.107686 432.225408 
L 477.327318 535.672953 
L 477.54695 405.873758 
L 477.766583 537.802794 
L 477.986215 324.803843 
L 478.205847 333.446251 
L 478.42548 431.606077 
L 478.645112 419.21992 
L 478.864744 364.956051 
L 479.084376 262.762853 
L 479.304009 438.027178 
L 479.523641 334.381396 
L 479.743273 446.626575 
L 479.962906 464.584045 
L 480.40217 339.541159 
L 480.621802 358.937514 
L 480.841435 459.208292 
L 481.061067 268.018063 
L 481.280699 489.223038 
L 481.500332 396.301318 
L 481.719964 451.383231 
L 481.939596 423.3491 
L 482.159228 339.051425 
L 482.378861 477.946773 
L 482.598493 525.145089 
L 482.818125 349.328477 
L 483.037758 460.173582 
L 483.25739 353.266332 
L 483.477022 386.055627 
L 483.696654 567.621471 
L 484.135919 427.023621 
L 484.355551 499.082196 
L 484.575184 383.399698 
L 484.794816 422.910492 
L 485.014448 491.392419 
L 485.23408 402.6233 
L 485.453713 249.168269 
L 485.673345 502.052114 
L 485.892977 530.285305 
L 486.11261 390.558008 
L 486.332242 564.660276 
L 486.551874 546.258753 
L 486.771506 447.367197 
L 486.991139 459.857994 
L 487.210771 383.000491 
L 487.430403 524.051882 
L 487.650035 486.948766 
L 487.869668 364.946661 
L 488.308932 494.663234 
L 488.528565 420.350963 
L 488.967829 411.328065 
L 489.187461 446.995909 
L 489.407094 379.846285 
L 489.626726 498.022293 
L 489.846358 492.195628 
L 490.065991 320.03342 
L 490.285623 465.293544 
L 490.505255 296.293511 
L 490.724887 435.609297 
L 490.94452 342.978035 
L 491.164152 432.45167 
L 491.383784 367.809588 
L 491.603417 467.331701 
L 492.042681 377.877216 
L 492.262313 444.418919 
L 492.481946 361.308553 
L 492.701578 463.954886 
L 492.92121 354.122809 
L 493.140843 392.225817 
L 493.360475 452.981773 
L 493.580107 436.646447 
L 493.799739 442.526939 
L 494.239004 375.910174 
L 494.458636 377.953248 
L 494.678269 453.901649 
L 494.897901 364.876085 
L 495.117533 417.489781 
L 495.337165 441.476892 
L 495.556798 356.941864 
L 495.77643 509.206155 
L 495.996062 324.852722 
L 496.215695 236.979674 
L 496.435327 474.853038 
L 496.654959 463.121182 
L 496.874591 402.403372 
L 497.094224 446.082277 
L 497.313856 310.819819 
L 497.533488 302.271482 
L 497.753121 526.201292 
L 497.972753 420.188143 
L 498.192385 391.034498 
L 498.412017 502.819426 
L 498.63165 388.284868 
L 498.851282 441.814871 
L 499.070914 390.666022 
L 499.290547 366.308937 
L 499.510179 444.353074 
L 499.729811 407.515729 
L 499.949443 333.258828 
L 500.169076 401.49596 
L 500.388708 363.302639 
L 500.60834 379.831414 
L 500.827973 438.207069 
L 501.047605 385.587047 
L 501.267237 397.809172 
L 501.706502 521.47974 
L 501.926134 514.546215 
L 502.145766 373.338893 
L 502.365398 498.314182 
L 502.585031 396.192764 
L 502.804663 499.990398 
L 503.024295 424.759902 
L 503.243928 299.082065 
L 503.683192 480.86976 
L 503.902824 435.760124 
L 504.122457 460.828352 
L 504.342089 318.999362 
L 504.561721 428.282832 
L 504.781354 426.092749 
L 505.000986 439.583205 
L 505.220618 510.738546 
L 505.44025 420.153038 
L 505.659883 523.27812 
L 505.879515 453.723756 
L 506.099147 451.282322 
L 506.31878 412.322174 
L 506.538412 430.192168 
L 506.977676 326.414137 
L 507.416941 517.478056 
L 507.636573 386.965472 
L 507.856206 349.508324 
L 508.075838 449.755819 
L 508.29547 453.501758 
L 508.515102 350.424194 
L 508.734735 338.697036 
L 508.954367 358.29511 
L 509.173999 440.988654 
L 509.393632 428.648943 
L 509.613264 387.635019 
L 509.832896 464.804413 
L 510.052528 406.850755 
L 510.272161 507.020197 
L 510.491793 447.395896 
L 510.711425 467.46724 
L 510.931058 293.970202 
L 511.15069 471.330465 
L 511.370322 411.829931 
L 511.589954 410.981384 
L 512.029219 345.711571 
L 512.468484 405.653284 
L 512.688116 399.031415 
L 512.907748 471.90987 
L 513.12738 475.841706 
L 513.347013 445.048198 
L 513.566645 440.857076 
L 513.786277 490.136233 
L 514.00591 430.884207 
L 514.225542 491.861513 
L 514.445174 380.842703 
L 514.664806 498.171936 
L 515.104071 404.853341 
L 515.323703 396.048565 
L 515.543336 570.516544 
L 515.762968 368.004658 
L 515.9826 416.177024 
L 516.202232 360.327587 
L 516.421865 259.158563 
L 516.861129 494.190292 
L 517.080762 363.554795 
L 517.300394 411.499897 
L 517.520026 373.112007 
L 517.959291 515.883985 
L 518.398555 270.103028 
L 518.618187 408.14004 
L 518.83782 345.747067 
L 519.277084 499.387762 
L 519.496717 491.582448 
L 519.716349 471.513498 
L 519.935981 475.474126 
L 520.155613 339.524213 
L 520.375246 385.180721 
L 520.594878 466.957034 
L 520.81451 378.003564 
L 521.034143 481.448176 
L 521.253775 527.217727 
L 521.473407 467.345585 
L 521.693039 466.143124 
L 521.912672 418.107041 
L 522.132304 557.637704 
L 522.351936 348.353238 
L 522.571569 337.949322 
L 522.791201 333.596915 
L 523.010833 502.401747 
L 523.230465 378.638888 
L 523.66973 466.92034 
L 523.889362 400.02445 
L 524.108995 461.28505 
L 524.328627 478.535483 
L 524.548259 446.808571 
L 524.767891 356.268427 
L 524.987524 347.136144 
L 525.207156 432.952548 
L 525.426788 447.268466 
L 525.646421 425.020122 
L 525.866053 414.196052 
L 526.085685 363.277523 
L 526.52495 461.155915 
L 526.744582 355.795548 
L 526.964214 425.988317 
L 527.183847 383.371993 
L 527.623111 472.635192 
L 527.842743 423.081413 
L 528.062376 409.040552 
L 528.282008 379.07329 
L 528.50164 407.283199 
L 528.721273 486.451109 
L 528.940905 458.995629 
L 529.160537 382.449664 
L 529.380169 488.187817 
L 529.599802 458.082488 
L 530.039066 334.139661 
L 530.258699 499.161693 
L 530.697963 315.39779 
L 530.917595 364.22287 
L 531.137228 377.181763 
L 531.576492 550.408333 
L 531.796125 440.691251 
L 532.015757 505.822588 
L 532.235389 389.450481 
L 532.455021 455.720537 
L 532.674654 326.054637 
L 532.894286 474.817553 
L 533.113918 503.420993 
L 533.33355 491.8032 
L 533.553183 263.719501 
L 533.772815 451.676091 
L 533.992447 468.962 
L 534.21208 475.963648 
L 534.431712 393.167049 
L 534.651344 441.666342 
L 534.870976 440.450713 
L 535.090609 391.898111 
L 535.529873 220.698626 
L 535.749506 276.007527 
L 535.969138 446.061655 
L 536.18877 378.353329 
L 536.408402 442.356967 
L 536.628035 401.010584 
L 536.847667 556.500811 
L 537.067299 436.469705 
L 537.286932 387.65462 
L 537.506564 517.349767 
L 537.945828 387.285295 
L 538.165461 407.216572 
L 538.385093 494.309592 
L 538.604725 354.979071 
L 539.04399 494.029071 
L 539.263622 420.685449 
L 539.483254 490.28038 
L 539.702887 485.268249 
L 539.922519 450.006453 
L 540.142151 456.104128 
L 540.361784 529.53265 
L 540.801048 253.430945 
L 541.240313 483.471646 
L 541.459945 458.49147 
L 541.679577 381.160995 
L 542.118842 428.888197 
L 542.338474 131.763818 
L 542.558106 413.371264 
L 542.777739 363.230315 
L 542.997371 395.886652 
L 543.217003 506.303144 
L 543.436636 429.079166 
L 543.656268 395.710905 
L 543.8759 386.222316 
L 544.095532 460.435136 
L 544.315165 465.608406 
L 544.534797 522.555791 
L 544.754429 476.847439 
L 544.974062 372.409982 
L 545.193694 371.228615 
L 545.413326 479.15499 
L 545.632958 357.084896 
L 545.852591 357.907293 
L 546.072223 430.685263 
L 546.291855 427.229934 
L 546.511488 471.906491 
L 546.73112 409.360731 
L 547.170384 488.342829 
L 547.390017 459.223475 
L 547.609649 511.159761 
L 547.829281 450.051615 
L 548.048913 490.688965 
L 548.268546 450.274135 
L 548.488178 363.401701 
L 548.70781 483.75927 
L 549.147075 386.71114 
L 549.366707 353.58307 
L 549.586339 393.998269 
L 549.805972 473.195876 
L 550.025604 380.086238 
L 550.245236 456.939362 
L 550.464869 352.842515 
L 550.684501 385.295172 
L 550.904133 478.177377 
L 551.123765 334.101493 
L 551.343398 483.327054 
L 551.56303 537.643446 
L 551.782662 496.766441 
L 552.002295 254.024111 
L 552.221927 351.330057 
L 552.441559 335.179918 
L 552.661191 407.469976 
L 552.880824 544.167146 
L 553.100456 429.677788 
L 553.320088 394.665743 
L 553.539721 463.305157 
L 553.978985 352.550915 
L 554.198617 402.596451 
L 554.41825 329.060372 
L 554.637882 446.573503 
L 554.857514 469.174875 
L 555.077147 379.267602 
L 555.296779 411.113081 
L 555.516411 466.517695 
L 555.736043 355.454605 
L 555.955676 394.183385 
L 556.175308 561.477681 
L 556.39494 228.731463 
L 556.614573 454.107079 
L 556.834205 446.848745 
L 557.053837 408.280604 
L 557.273469 336.489455 
L 557.493102 440.923094 
L 557.712734 303.338099 
L 557.932366 395.813812 
L 558.151999 373.183047 
L 558.371631 466.815602 
L 558.591263 417.134618 
L 558.810895 459.582858 
L 559.030528 475.655243 
L 559.469792 344.664271 
L 559.689425 433.845006 
L 559.909057 437.403911 
L 559.909057 437.403911 
" style="fill:none;stroke:#96c69a;stroke-linecap:round;stroke-width:3;"/>
   </g>
   <g id="line2d_2"/>
   <g id="patch_3">
    <path d="M 98.911875 602.94 
L 98.911875 109.326857 
" style="fill:none;stroke:#262626;stroke-linecap:square;stroke-linejoin:miter;stroke-width:2.5;"/>
   </g>
   <g id="patch_4">
    <path d="M 98.911875 602.94 
L 581.861304 602.94 
" style="fill:none;stroke:#262626;stroke-linecap:square;stroke-linejoin:miter;stroke-width:2.5;"/>
   </g>
   <g id="legend_1">
    <g id="patch_5">
     <path d="M 528.945679 597.94 
L 574.861304 597.94 
Q 576.861304 597.94 576.861304 595.94 
L 576.861304 554.034375 
Q 576.861304 552.034375 574.861304 552.034375 
L 528.945679 552.034375 
Q 526.945679 552.034375 526.945679 554.034375 
L 526.945679 595.94 
Q 526.945679 597.94 528.945679 597.94 
z
" style="fill:#ffffff;opacity:0.8;stroke:#cccccc;stroke-linejoin:miter;stroke-width:2;"/>
    </g>
    <g id="text_16">
     <!-- $n_\tau$ -->
     <g style="fill:#262626;" transform="translate(538.823491 574.270625)scale(0.24 -0.24)">
      <defs>
       <path d="M 3566 2113 
L 3156 0 
L 2578 0 
L 2988 2091 
Q 3016 2238 3031 2350 
Q 3047 2463 3047 2528 
Q 3047 2791 2881 2937 
Q 2716 3084 2419 3084 
Q 1956 3084 1622 2776 
Q 1288 2469 1184 1941 
L 800 0 
L 225 0 
L 903 3500 
L 1478 3500 
L 1363 2950 
Q 1603 3253 1940 3418 
Q 2278 3584 2650 3584 
Q 3113 3584 3367 3334 
Q 3622 3084 3622 2631 
Q 3622 2519 3608 2391 
Q 3594 2263 3566 2113 
z
" id="DejaVuSans-Oblique-6e" transform="scale(0.015625)"/>
       <path d="M 2103 638 
Q 2188 488 2525 488 
L 2800 488 
L 2706 0 
L 2363 0 
Q 1800 0 1600 300 
Q 1403 606 1534 1269 
L 1856 2925 
L 541 2925 
L 653 3500 
L 3881 3500 
L 3769 2925 
L 2444 2925 
L 2113 1234 
Q 2025 781 2103 638 
z
" id="DejaVuSans-Oblique-3c4" transform="scale(0.015625)"/>
      </defs>
      <use xlink:href="#DejaVuSans-Oblique-6e"/>
      <use transform="translate(63.378906 -16.40625)scale(0.7)" xlink:href="#DejaVuSans-Oblique-3c4"/>
     </g>
    </g>
    <g id="line2d_3">
     <path d="M 530.945679 588.360312 
L 550.945679 588.360312 
" style="fill:none;stroke:#96c69a;stroke-linecap:round;stroke-width:3;"/>
    </g>
    <g id="line2d_4"/>
    <g id="text_17">
     <!-- 50 -->
     <g style="fill:#262626;" transform="translate(558.945679 591.860312)scale(0.1 -0.1)">
      <defs>
       <path d="M 678 4666 
L 3669 4666 
L 3669 3781 
L 1638 3781 
L 1638 3059 
Q 1775 3097 1914 3117 
Q 2053 3138 2203 3138 
Q 3056 3138 3531 2711 
Q 4006 2284 4006 1522 
Q 4006 766 3489 337 
Q 2972 -91 2053 -91 
Q 1656 -91 1267 -14 
Q 878 63 494 219 
L 494 1166 
Q 875 947 1217 837 
Q 1559 728 1863 728 
Q 2300 728 2551 942 
Q 2803 1156 2803 1522 
Q 2803 1891 2551 2103 
Q 2300 2316 1863 2316 
Q 1603 2316 1309 2248 
Q 1016 2181 678 2041 
L 678 4666 
z
" id="DejaVuSans-Bold-35" transform="scale(0.015625)"/>
       <path d="M 2944 2338 
Q 2944 3213 2780 3570 
Q 2616 3928 2228 3928 
Q 1841 3928 1675 3570 
Q 1509 3213 1509 2338 
Q 1509 1453 1675 1090 
Q 1841 728 2228 728 
Q 2613 728 2778 1090 
Q 2944 1453 2944 2338 
z
M 4147 2328 
Q 4147 1169 3647 539 
Q 3147 -91 2228 -91 
Q 1306 -91 806 539 
Q 306 1169 306 2328 
Q 306 3491 806 4120 
Q 1306 4750 2228 4750 
Q 3147 4750 3647 4120 
Q 4147 3491 4147 2328 
z
" id="DejaVuSans-Bold-30" transform="scale(0.015625)"/>
      </defs>
      <use xlink:href="#DejaVuSans-Bold-35"/>
      <use x="69.580078" xlink:href="#DejaVuSans-Bold-30"/>
     </g>
    </g>
   </g>
  </g>
  <g id="axes_2">
   <g id="patch_6">
    <path d="M 98.911875 92.305714 
L 581.861304 92.305714 
L 581.861304 7.2 
L 98.911875 7.2 
z
" style="fill:none;"/>
   </g>
   <g id="matplotlib.axis_3">
    <g id="xtick_7"/>
    <g id="xtick_8"/>
    <g id="xtick_9"/>
    <g id="xtick_10"/>
    <g id="xtick_11"/>
    <g id="xtick_12"/>
   </g>
   <g id="matplotlib.axis_4">
    <g id="ytick_8">
     <g id="text_18">
      <!-- 0 -->
      <g style="fill:#262626;" transform="translate(69.414375 100.663996)scale(0.22 -0.22)">
       <use xlink:href="#DejaVuSans-30"/>
      </g>
     </g>
    </g>
    <g id="ytick_9">
     <g id="text_19">
      <!-- 100 -->
      <g style="fill:#262626;" transform="translate(41.419375 48.032138)scale(0.22 -0.22)">
       <use xlink:href="#DejaVuSans-31"/>
       <use x="63.623047" xlink:href="#DejaVuSans-30"/>
       <use x="127.246094" xlink:href="#DejaVuSans-30"/>
      </g>
     </g>
    </g>
   </g>
   <g id="patch_7">
    <path clip-path="url(#pdef80fc57d)" d="M 120.864122 92.305714 
L 154.636809 92.305714 
L 154.636809 11.252653 
L 120.864122 11.252653 
z
" style="fill:#96c69a;fill-opacity:0.5;stroke:#ffffff;stroke-linejoin:miter;stroke-width:2;"/>
   </g>
   <g id="patch_8">
    <path clip-path="url(#pdef80fc57d)" d="M 154.636809 92.305714 
L 188.409496 92.305714 
L 188.409496 11.252653 
L 154.636809 11.252653 
z
" style="fill:#96c69a;fill-opacity:0.5;stroke:#ffffff;stroke-linejoin:miter;stroke-width:2;"/>
   </g>
   <g id="patch_9">
    <path clip-path="url(#pdef80fc57d)" d="M 188.409496 92.305714 
L 222.182184 92.305714 
L 222.182184 11.252653 
L 188.409496 11.252653 
z
" style="fill:#96c69a;fill-opacity:0.5;stroke:#ffffff;stroke-linejoin:miter;stroke-width:2;"/>
   </g>
   <g id="patch_10">
    <path clip-path="url(#pdef80fc57d)" d="M 222.182184 92.305714 
L 255.954871 92.305714 
L 255.954871 11.252653 
L 222.182184 11.252653 
z
" style="fill:#96c69a;fill-opacity:0.5;stroke:#ffffff;stroke-linejoin:miter;stroke-width:2;"/>
   </g>
   <g id="patch_11">
    <path clip-path="url(#pdef80fc57d)" d="M 255.954871 92.305714 
L 289.727558 92.305714 
L 289.727558 11.778972 
L 255.954871 11.778972 
z
" style="fill:#96c69a;fill-opacity:0.5;stroke:#ffffff;stroke-linejoin:miter;stroke-width:2;"/>
   </g>
   <g id="patch_12">
    <path clip-path="url(#pdef80fc57d)" d="M 289.727558 92.305714 
L 323.500246 92.305714 
L 323.500246 11.252653 
L 289.727558 11.252653 
z
" style="fill:#96c69a;fill-opacity:0.5;stroke:#ffffff;stroke-linejoin:miter;stroke-width:2;"/>
   </g>
   <g id="patch_13">
    <path clip-path="url(#pdef80fc57d)" d="M 323.500246 92.305714 
L 357.272933 92.305714 
L 357.272933 11.252653 
L 323.500246 11.252653 
z
" style="fill:#96c69a;fill-opacity:0.5;stroke:#ffffff;stroke-linejoin:miter;stroke-width:2;"/>
   </g>
   <g id="patch_14">
    <path clip-path="url(#pdef80fc57d)" d="M 357.272933 92.305714 
L 391.04562 92.305714 
L 391.04562 11.252653 
L 357.272933 11.252653 
z
" style="fill:#96c69a;fill-opacity:0.5;stroke:#ffffff;stroke-linejoin:miter;stroke-width:2;"/>
   </g>
   <g id="patch_15">
    <path clip-path="url(#pdef80fc57d)" d="M 391.04562 92.305714 
L 424.818308 92.305714 
L 424.818308 11.778972 
L 391.04562 11.778972 
z
" style="fill:#96c69a;fill-opacity:0.5;stroke:#ffffff;stroke-linejoin:miter;stroke-width:2;"/>
   </g>
   <g id="patch_16">
    <path clip-path="url(#pdef80fc57d)" d="M 424.818308 92.305714 
L 458.590995 92.305714 
L 458.590995 11.252653 
L 424.818308 11.252653 
z
" style="fill:#96c69a;fill-opacity:0.5;stroke:#ffffff;stroke-linejoin:miter;stroke-width:2;"/>
   </g>
   <g id="patch_17">
    <path clip-path="url(#pdef80fc57d)" d="M 458.590995 92.305714 
L 492.363682 92.305714 
L 492.363682 11.252653 
L 458.590995 11.252653 
z
" style="fill:#96c69a;fill-opacity:0.5;stroke:#ffffff;stroke-linejoin:miter;stroke-width:2;"/>
   </g>
   <g id="patch_18">
    <path clip-path="url(#pdef80fc57d)" d="M 492.363682 92.305714 
L 526.13637 92.305714 
L 526.13637 11.252653 
L 492.363682 11.252653 
z
" style="fill:#96c69a;fill-opacity:0.5;stroke:#ffffff;stroke-linejoin:miter;stroke-width:2;"/>
   </g>
   <g id="patch_19">
    <path clip-path="url(#pdef80fc57d)" d="M 526.13637 92.305714 
L 559.909057 92.305714 
L 559.909057 11.252653 
L 526.13637 11.252653 
z
" style="fill:#96c69a;fill-opacity:0.5;stroke:#ffffff;stroke-linejoin:miter;stroke-width:2;"/>
   </g>
   <g id="patch_20">
    <path d="M 98.911875 92.305714 
L 98.911875 7.2 
" style="fill:none;stroke:#262626;stroke-linecap:square;stroke-linejoin:miter;stroke-width:2.5;"/>
   </g>
   <g id="patch_21">
    <path d="M 98.911875 92.305714 
L 581.861304 92.305714 
" style="fill:none;stroke:#262626;stroke-linecap:square;stroke-linejoin:miter;stroke-width:2.5;"/>
   </g>
  </g>
  <g id="axes_3">
   <g id="patch_22">
    <path d="M 598.514732 602.94 
L 681.781875 602.94 
L 681.781875 109.326857 
L 598.514732 109.326857 
z
" style="fill:none;"/>
   </g>
   <g id="matplotlib.axis_5">
    <g id="xtick_13">
     <g id="text_20">
      <!-- 0 -->
      <g style="fill:#262626;" transform="translate(591.515982 635.156562)scale(0.22 -0.22)">
       <use xlink:href="#DejaVuSans-30"/>
      </g>
     </g>
    </g>
    <g id="xtick_14">
     <g id="text_21">
      <!-- 100 -->
      <g style="fill:#262626;" transform="translate(624.722078 635.156562)scale(0.22 -0.22)">
       <use xlink:href="#DejaVuSans-31"/>
       <use x="63.623047" xlink:href="#DejaVuSans-30"/>
       <use x="127.246094" xlink:href="#DejaVuSans-30"/>
      </g>
     </g>
    </g>
   </g>
   <g id="matplotlib.axis_6">
    <g id="ytick_10"/>
    <g id="ytick_11"/>
    <g id="ytick_12"/>
    <g id="ytick_13"/>
    <g id="ytick_14"/>
    <g id="ytick_15"/>
    <g id="ytick_16"/>
   </g>
   <g id="patch_23">
    <path clip-path="url(#pa96624a527)" d="M 598.514732 580.503039 
L 599.93084 580.503039 
L 599.93084 567.304827 
L 598.514732 567.304827 
z
" style="fill:#96c69a;fill-opacity:0.5;stroke:#ffffff;stroke-linejoin:miter;stroke-width:1.319821;"/>
   </g>
   <g id="patch_24">
    <path clip-path="url(#pa96624a527)" d="M 598.514732 567.304827 
L 602.29102 567.304827 
L 602.29102 554.106614 
L 598.514732 554.106614 
z
" style="fill:#96c69a;fill-opacity:0.5;stroke:#ffffff;stroke-linejoin:miter;stroke-width:1.319821;"/>
   </g>
   <g id="patch_25">
    <path clip-path="url(#pa96624a527)" d="M 598.514732 554.106614 
L 603.235092 554.106614 
L 603.235092 540.908402 
L 598.514732 540.908402 
z
" style="fill:#96c69a;fill-opacity:0.5;stroke:#ffffff;stroke-linejoin:miter;stroke-width:1.319821;"/>
   </g>
   <g id="patch_26">
    <path clip-path="url(#pa96624a527)" d="M 598.514732 540.908402 
L 609.843595 540.908402 
L 609.843595 527.710189 
L 598.514732 527.710189 
z
" style="fill:#96c69a;fill-opacity:0.5;stroke:#ffffff;stroke-linejoin:miter;stroke-width:1.319821;"/>
   </g>
   <g id="patch_27">
    <path clip-path="url(#pa96624a527)" d="M 598.514732 527.710189 
L 618.340242 527.710189 
L 618.340242 514.511977 
L 598.514732 514.511977 
z
" style="fill:#96c69a;fill-opacity:0.5;stroke:#ffffff;stroke-linejoin:miter;stroke-width:1.319821;"/>
   </g>
   <g id="patch_28">
    <path clip-path="url(#pa96624a527)" d="M 598.514732 514.511977 
L 631.085213 514.511977 
L 631.085213 501.313765 
L 598.514732 501.313765 
z
" style="fill:#96c69a;fill-opacity:0.5;stroke:#ffffff;stroke-linejoin:miter;stroke-width:1.319821;"/>
   </g>
   <g id="patch_29">
    <path clip-path="url(#pa96624a527)" d="M 598.514732 501.313765 
L 653.270903 501.313765 
L 653.270903 488.115552 
L 598.514732 488.115552 
z
" style="fill:#96c69a;fill-opacity:0.5;stroke:#ffffff;stroke-linejoin:miter;stroke-width:1.319821;"/>
   </g>
   <g id="patch_30">
    <path clip-path="url(#pa96624a527)" d="M 598.514732 488.115552 
L 656.103119 488.115552 
L 656.103119 474.91734 
L 598.514732 474.91734 
z
" style="fill:#96c69a;fill-opacity:0.5;stroke:#ffffff;stroke-linejoin:miter;stroke-width:1.319821;"/>
   </g>
   <g id="patch_31">
    <path clip-path="url(#pa96624a527)" d="M 598.514732 474.91734 
L 677.816773 474.91734 
L 677.816773 461.719128 
L 598.514732 461.719128 
z
" style="fill:#96c69a;fill-opacity:0.5;stroke:#ffffff;stroke-linejoin:miter;stroke-width:1.319821;"/>
   </g>
   <g id="patch_32">
    <path clip-path="url(#pa96624a527)" d="M 598.514732 461.719128 
L 672.152341 461.719128 
L 672.152341 448.520915 
L 598.514732 448.520915 
z
" style="fill:#96c69a;fill-opacity:0.5;stroke:#ffffff;stroke-linejoin:miter;stroke-width:1.319821;"/>
   </g>
   <g id="patch_33">
    <path clip-path="url(#pa96624a527)" d="M 598.514732 448.520915 
L 677.816773 448.520915 
L 677.816773 435.322703 
L 598.514732 435.322703 
z
" style="fill:#96c69a;fill-opacity:0.5;stroke:#ffffff;stroke-linejoin:miter;stroke-width:1.319821;"/>
   </g>
   <g id="patch_34">
    <path clip-path="url(#pa96624a527)" d="M 598.514732 435.322703 
L 672.624377 435.322703 
L 672.624377 422.12449 
L 598.514732 422.12449 
z
" style="fill:#96c69a;fill-opacity:0.5;stroke:#ffffff;stroke-linejoin:miter;stroke-width:1.319821;"/>
   </g>
   <g id="patch_35">
    <path clip-path="url(#pa96624a527)" d="M 598.514732 422.12449 
L 675.928629 422.12449 
L 675.928629 408.926278 
L 598.514732 408.926278 
z
" style="fill:#96c69a;fill-opacity:0.5;stroke:#ffffff;stroke-linejoin:miter;stroke-width:1.319821;"/>
   </g>
   <g id="patch_36">
    <path clip-path="url(#pa96624a527)" d="M 598.514732 408.926278 
L 672.152341 408.926278 
L 672.152341 395.728066 
L 598.514732 395.728066 
z
" style="fill:#96c69a;fill-opacity:0.5;stroke:#ffffff;stroke-linejoin:miter;stroke-width:1.319821;"/>
   </g>
   <g id="patch_37">
    <path clip-path="url(#pa96624a527)" d="M 598.514732 395.728066 
L 666.959946 395.728066 
L 666.959946 382.529853 
L 598.514732 382.529853 
z
" style="fill:#96c69a;fill-opacity:0.5;stroke:#ffffff;stroke-linejoin:miter;stroke-width:1.319821;"/>
   </g>
   <g id="patch_38">
    <path clip-path="url(#pa96624a527)" d="M 598.514732 382.529853 
L 654.214975 382.529853 
L 654.214975 369.331641 
L 598.514732 369.331641 
z
" style="fill:#96c69a;fill-opacity:0.5;stroke:#ffffff;stroke-linejoin:miter;stroke-width:1.319821;"/>
   </g>
   <g id="patch_39">
    <path clip-path="url(#pa96624a527)" d="M 598.514732 369.331641 
L 642.414076 369.331641 
L 642.414076 356.133429 
L 598.514732 356.133429 
z
" style="fill:#96c69a;fill-opacity:0.5;stroke:#ffffff;stroke-linejoin:miter;stroke-width:1.319821;"/>
   </g>
   <g id="patch_40">
    <path clip-path="url(#pa96624a527)" d="M 598.514732 356.133429 
L 630.141141 356.133429 
L 630.141141 342.935216 
L 598.514732 342.935216 
z
" style="fill:#96c69a;fill-opacity:0.5;stroke:#ffffff;stroke-linejoin:miter;stroke-width:1.319821;"/>
   </g>
   <g id="patch_41">
    <path clip-path="url(#pa96624a527)" d="M 598.514732 342.935216 
L 628.725033 342.935216 
L 628.725033 329.737004 
L 598.514732 329.737004 
z
" style="fill:#96c69a;fill-opacity:0.5;stroke:#ffffff;stroke-linejoin:miter;stroke-width:1.319821;"/>
   </g>
   <g id="patch_42">
    <path clip-path="url(#pa96624a527)" d="M 598.514732 329.737004 
L 615.508027 329.737004 
L 615.508027 316.538791 
L 598.514732 316.538791 
z
" style="fill:#96c69a;fill-opacity:0.5;stroke:#ffffff;stroke-linejoin:miter;stroke-width:1.319821;"/>
   </g>
   <g id="patch_43">
    <path clip-path="url(#pa96624a527)" d="M 598.514732 316.538791 
L 615.035991 316.538791 
L 615.035991 303.340579 
L 598.514732 303.340579 
z
" style="fill:#96c69a;fill-opacity:0.5;stroke:#ffffff;stroke-linejoin:miter;stroke-width:1.319821;"/>
   </g>
   <g id="patch_44">
    <path clip-path="url(#pa96624a527)" d="M 598.514732 303.340579 
L 611.259703 303.340579 
L 611.259703 290.142367 
L 598.514732 290.142367 
z
" style="fill:#96c69a;fill-opacity:0.5;stroke:#ffffff;stroke-linejoin:miter;stroke-width:1.319821;"/>
   </g>
   <g id="patch_45">
    <path clip-path="url(#pa96624a527)" d="M 598.514732 290.142367 
L 602.763056 290.142367 
L 602.763056 276.944154 
L 598.514732 276.944154 
z
" style="fill:#96c69a;fill-opacity:0.5;stroke:#ffffff;stroke-linejoin:miter;stroke-width:1.319821;"/>
   </g>
   <g id="patch_46">
    <path clip-path="url(#pa96624a527)" d="M 598.514732 276.944154 
L 605.123236 276.944154 
L 605.123236 263.745942 
L 598.514732 263.745942 
z
" style="fill:#96c69a;fill-opacity:0.5;stroke:#ffffff;stroke-linejoin:miter;stroke-width:1.319821;"/>
   </g>
   <g id="patch_47">
    <path clip-path="url(#pa96624a527)" d="M 598.514732 263.745942 
L 603.235092 263.745942 
L 603.235092 250.54773 
L 598.514732 250.54773 
z
" style="fill:#96c69a;fill-opacity:0.5;stroke:#ffffff;stroke-linejoin:miter;stroke-width:1.319821;"/>
   </g>
   <g id="patch_48">
    <path clip-path="url(#pa96624a527)" d="M 598.514732 250.54773 
L 600.402876 250.54773 
L 600.402876 237.349517 
L 598.514732 237.349517 
z
" style="fill:#96c69a;fill-opacity:0.5;stroke:#ffffff;stroke-linejoin:miter;stroke-width:1.319821;"/>
   </g>
   <g id="patch_49">
    <path clip-path="url(#pa96624a527)" d="M 598.514732 237.349517 
L 600.874912 237.349517 
L 600.874912 224.151305 
L 598.514732 224.151305 
z
" style="fill:#96c69a;fill-opacity:0.5;stroke:#ffffff;stroke-linejoin:miter;stroke-width:1.319821;"/>
   </g>
   <g id="patch_50">
    <path clip-path="url(#pa96624a527)" d="M 598.514732 224.151305 
L 599.93084 224.151305 
L 599.93084 210.953092 
L 598.514732 210.953092 
z
" style="fill:#96c69a;fill-opacity:0.5;stroke:#ffffff;stroke-linejoin:miter;stroke-width:1.319821;"/>
   </g>
   <g id="patch_51">
    <path clip-path="url(#pa96624a527)" d="M 598.514732 210.953092 
L 599.93084 210.953092 
L 599.93084 197.75488 
L 598.514732 197.75488 
z
" style="fill:#96c69a;fill-opacity:0.5;stroke:#ffffff;stroke-linejoin:miter;stroke-width:1.319821;"/>
   </g>
   <g id="patch_52">
    <path clip-path="url(#pa96624a527)" d="M 598.514732 197.75488 
L 598.986768 197.75488 
L 598.986768 184.556668 
L 598.514732 184.556668 
z
" style="fill:#96c69a;fill-opacity:0.5;stroke:#ffffff;stroke-linejoin:miter;stroke-width:1.319821;"/>
   </g>
   <g id="patch_53">
    <path clip-path="url(#pa96624a527)" d="M 598.514732 184.556668 
L 598.514732 184.556668 
L 598.514732 171.358455 
L 598.514732 171.358455 
z
" style="fill:#96c69a;fill-opacity:0.5;stroke:#ffffff;stroke-linejoin:miter;stroke-width:1.319821;"/>
   </g>
   <g id="patch_54">
    <path clip-path="url(#pa96624a527)" d="M 598.514732 171.358455 
L 598.986768 171.358455 
L 598.986768 158.160243 
L 598.514732 158.160243 
z
" style="fill:#96c69a;fill-opacity:0.5;stroke:#ffffff;stroke-linejoin:miter;stroke-width:1.319821;"/>
   </g>
   <g id="patch_55">
    <path clip-path="url(#pa96624a527)" d="M 598.514732 158.160243 
L 598.986768 158.160243 
L 598.986768 144.962031 
L 598.514732 144.962031 
z
" style="fill:#96c69a;fill-opacity:0.5;stroke:#ffffff;stroke-linejoin:miter;stroke-width:1.319821;"/>
   </g>
   <g id="patch_56">
    <path clip-path="url(#pa96624a527)" d="M 598.514732 144.962031 
L 598.986768 144.962031 
L 598.986768 131.763818 
L 598.514732 131.763818 
z
" style="fill:#96c69a;fill-opacity:0.5;stroke:#ffffff;stroke-linejoin:miter;stroke-width:1.319821;"/>
   </g>
   <g id="patch_57">
    <path d="M 598.514732 602.94 
L 598.514732 109.326857 
" style="fill:none;stroke:#262626;stroke-linecap:square;stroke-linejoin:miter;stroke-width:2.5;"/>
   </g>
   <g id="patch_58">
    <path d="M 598.514732 602.94 
L 681.781875 602.94 
" style="fill:none;stroke:#262626;stroke-linecap:square;stroke-linejoin:miter;stroke-width:2.5;"/>
   </g>
  </g>
 </g>
 <defs>
  <clipPath id="pcefa375bb1">
   <rect height="493.613143" width="482.949429" x="98.911875" y="109.326857"/>
  </clipPath>
  <clipPath id="pdef80fc57d">
   <rect height="85.105714" width="482.949429" x="98.911875" y="7.2"/>
  </clipPath>
  <clipPath id="pa96624a527">
   <rect height="493.613143" width="83.267143" x="598.514732" y="109.326857"/>
  </clipPath>
 </defs>
</svg>
