<?xml version="1.0" encoding="utf-8" standalone="no"?>
<!DOCTYPE svg PUBLIC "-//W3C//DTD SVG 1.1//EN"
  "http://www.w3.org/Graphics/SVG/1.1/DTD/svg11.dtd">
<svg height="674.159375pt" version="1.1" viewBox="0 0 682.892279 674.159375" width="682.892279pt" xmlns="http://www.w3.org/2000/svg" xmlns:xlink="http://www.w3.org/1999/xlink">
 <metadata>
  <rdf:RDF xmlns:cc="http://creativecommons.org/ns#" xmlns:dc="http://purl.org/dc/elements/1.1/" xmlns:rdf="http://www.w3.org/1999/02/22-rdf-syntax-ns#">
   <cc:Work>
    <dc:type rdf:resource="http://purl.org/dc/dcmitype/StillImage"/>
    <dc:date>2021-07-24T14:51:03.482359</dc:date>
    <dc:format>image/svg+xml</dc:format>
    <dc:creator>
     <cc:Agent>
      <dc:title>Matplotlib v3.4.2, https://matplotlib.org/</dc:title>
     </cc:Agent>
    </dc:creator>
   </cc:Work>
  </rdf:RDF>
 </metadata>
 <defs>
  <style type="text/css">*{stroke-linecap:butt;stroke-linejoin:round;}</style>
 </defs>
 <g id="figure_1">
  <g id="patch_1">
   <path d="M 0 674.159375 
L 682.892279 674.159375 
L 682.892279 0 
L 0 0 
z
" style="fill:#ffffff;"/>
  </g>
  <g id="axes_1">
   <g id="patch_2">
    <path d="M 84.914375 602.94 
L 567.863804 602.94 
L 567.863804 109.326857 
L 84.914375 109.326857 
z
" style="fill:none;"/>
   </g>
   <g id="matplotlib.axis_1">
    <g id="xtick_1">
     <g id="text_1">
      <!-- 0 -->
      <g style="fill:#262626;" transform="translate(99.428387 635.156562)scale(0.22 -0.22)">
       <defs>
        <path d="M 2034 4250 
Q 1547 4250 1301 3770 
Q 1056 3291 1056 2328 
Q 1056 1369 1301 889 
Q 1547 409 2034 409 
Q 2525 409 2770 889 
Q 3016 1369 3016 2328 
Q 3016 3291 2770 3770 
Q 2525 4250 2034 4250 
z
M 2034 4750 
Q 2819 4750 3233 4129 
Q 3647 3509 3647 2328 
Q 3647 1150 3233 529 
Q 2819 -91 2034 -91 
Q 1250 -91 836 529 
Q 422 1150 422 2328 
Q 422 3509 836 4129 
Q 1250 4750 2034 4750 
z
" id="DejaVuSans-30" transform="scale(0.015625)"/>
       </defs>
       <use xlink:href="#DejaVuSans-30"/>
      </g>
     </g>
    </g>
    <g id="xtick_2">
     <g id="text_2">
      <!-- 10000 -->
      <g style="fill:#262626;" transform="translate(159.330271 635.156562)scale(0.22 -0.22)">
       <defs>
        <path d="M 794 531 
L 1825 531 
L 1825 4091 
L 703 3866 
L 703 4441 
L 1819 4666 
L 2450 4666 
L 2450 531 
L 3481 531 
L 3481 0 
L 794 0 
L 794 531 
z
" id="DejaVuSans-31" transform="scale(0.015625)"/>
       </defs>
       <use xlink:href="#DejaVuSans-31"/>
       <use x="63.623047" xlink:href="#DejaVuSans-30"/>
       <use x="127.246094" xlink:href="#DejaVuSans-30"/>
       <use x="190.869141" xlink:href="#DejaVuSans-30"/>
       <use x="254.492188" xlink:href="#DejaVuSans-30"/>
      </g>
     </g>
    </g>
    <g id="xtick_3">
     <g id="text_3">
      <!-- 20000 -->
      <g style="fill:#262626;" transform="translate(247.227155 635.156562)scale(0.22 -0.22)">
       <defs>
        <path d="M 1228 531 
L 3431 531 
L 3431 0 
L 469 0 
L 469 531 
Q 828 903 1448 1529 
Q 2069 2156 2228 2338 
Q 2531 2678 2651 2914 
Q 2772 3150 2772 3378 
Q 2772 3750 2511 3984 
Q 2250 4219 1831 4219 
Q 1534 4219 1204 4116 
Q 875 4013 500 3803 
L 500 4441 
Q 881 4594 1212 4672 
Q 1544 4750 1819 4750 
Q 2544 4750 2975 4387 
Q 3406 4025 3406 3419 
Q 3406 3131 3298 2873 
Q 3191 2616 2906 2266 
Q 2828 2175 2409 1742 
Q 1991 1309 1228 531 
z
" id="DejaVuSans-32" transform="scale(0.015625)"/>
       </defs>
       <use xlink:href="#DejaVuSans-32"/>
       <use x="63.623047" xlink:href="#DejaVuSans-30"/>
       <use x="127.246094" xlink:href="#DejaVuSans-30"/>
       <use x="190.869141" xlink:href="#DejaVuSans-30"/>
       <use x="254.492188" xlink:href="#DejaVuSans-30"/>
      </g>
     </g>
    </g>
    <g id="xtick_4">
     <g id="text_4">
      <!-- 30000 -->
      <g style="fill:#262626;" transform="translate(335.124039 635.156562)scale(0.22 -0.22)">
       <defs>
        <path d="M 2597 2516 
Q 3050 2419 3304 2112 
Q 3559 1806 3559 1356 
Q 3559 666 3084 287 
Q 2609 -91 1734 -91 
Q 1441 -91 1130 -33 
Q 819 25 488 141 
L 488 750 
Q 750 597 1062 519 
Q 1375 441 1716 441 
Q 2309 441 2620 675 
Q 2931 909 2931 1356 
Q 2931 1769 2642 2001 
Q 2353 2234 1838 2234 
L 1294 2234 
L 1294 2753 
L 1863 2753 
Q 2328 2753 2575 2939 
Q 2822 3125 2822 3475 
Q 2822 3834 2567 4026 
Q 2313 4219 1838 4219 
Q 1578 4219 1281 4162 
Q 984 4106 628 3988 
L 628 4550 
Q 988 4650 1302 4700 
Q 1616 4750 1894 4750 
Q 2613 4750 3031 4423 
Q 3450 4097 3450 3541 
Q 3450 3153 3228 2886 
Q 3006 2619 2597 2516 
z
" id="DejaVuSans-33" transform="scale(0.015625)"/>
       </defs>
       <use xlink:href="#DejaVuSans-33"/>
       <use x="63.623047" xlink:href="#DejaVuSans-30"/>
       <use x="127.246094" xlink:href="#DejaVuSans-30"/>
       <use x="190.869141" xlink:href="#DejaVuSans-30"/>
       <use x="254.492188" xlink:href="#DejaVuSans-30"/>
      </g>
     </g>
    </g>
    <g id="xtick_5">
     <g id="text_5">
      <!-- 40000 -->
      <g style="fill:#262626;" transform="translate(423.020923 635.156562)scale(0.22 -0.22)">
       <defs>
        <path d="M 2419 4116 
L 825 1625 
L 2419 1625 
L 2419 4116 
z
M 2253 4666 
L 3047 4666 
L 3047 1625 
L 3713 1625 
L 3713 1100 
L 3047 1100 
L 3047 0 
L 2419 0 
L 2419 1100 
L 313 1100 
L 313 1709 
L 2253 4666 
z
" id="DejaVuSans-34" transform="scale(0.015625)"/>
       </defs>
       <use xlink:href="#DejaVuSans-34"/>
       <use x="63.623047" xlink:href="#DejaVuSans-30"/>
       <use x="127.246094" xlink:href="#DejaVuSans-30"/>
       <use x="190.869141" xlink:href="#DejaVuSans-30"/>
       <use x="254.492188" xlink:href="#DejaVuSans-30"/>
      </g>
     </g>
    </g>
    <g id="xtick_6">
     <g id="text_6">
      <!-- 50000 -->
      <g style="fill:#262626;" transform="translate(510.917807 635.156562)scale(0.22 -0.22)">
       <defs>
        <path d="M 691 4666 
L 3169 4666 
L 3169 4134 
L 1269 4134 
L 1269 2991 
Q 1406 3038 1543 3061 
Q 1681 3084 1819 3084 
Q 2600 3084 3056 2656 
Q 3513 2228 3513 1497 
Q 3513 744 3044 326 
Q 2575 -91 1722 -91 
Q 1428 -91 1123 -41 
Q 819 9 494 109 
L 494 744 
Q 775 591 1075 516 
Q 1375 441 1709 441 
Q 2250 441 2565 725 
Q 2881 1009 2881 1497 
Q 2881 1984 2565 2268 
Q 2250 2553 1709 2553 
Q 1456 2553 1204 2497 
Q 953 2441 691 2322 
L 691 4666 
z
" id="DejaVuSans-35" transform="scale(0.015625)"/>
       </defs>
       <use xlink:href="#DejaVuSans-35"/>
       <use x="63.623047" xlink:href="#DejaVuSans-30"/>
       <use x="127.246094" xlink:href="#DejaVuSans-30"/>
       <use x="190.869141" xlink:href="#DejaVuSans-30"/>
       <use x="254.492188" xlink:href="#DejaVuSans-30"/>
      </g>
     </g>
    </g>
    <g id="text_7">
     <!-- MDTU -->
     <g style="fill:#262626;" transform="translate(290.683464 661.968125)scale(0.24 -0.24)">
      <defs>
       <path d="M 628 4666 
L 1569 4666 
L 2759 1491 
L 3956 4666 
L 4897 4666 
L 4897 0 
L 4281 0 
L 4281 4097 
L 3078 897 
L 2444 897 
L 1241 4097 
L 1241 0 
L 628 0 
L 628 4666 
z
" id="DejaVuSans-4d" transform="scale(0.015625)"/>
       <path d="M 1259 4147 
L 1259 519 
L 2022 519 
Q 2988 519 3436 956 
Q 3884 1394 3884 2338 
Q 3884 3275 3436 3711 
Q 2988 4147 2022 4147 
L 1259 4147 
z
M 628 4666 
L 1925 4666 
Q 3281 4666 3915 4102 
Q 4550 3538 4550 2338 
Q 4550 1131 3912 565 
Q 3275 0 1925 0 
L 628 0 
L 628 4666 
z
" id="DejaVuSans-44" transform="scale(0.015625)"/>
       <path d="M -19 4666 
L 3928 4666 
L 3928 4134 
L 2272 4134 
L 2272 0 
L 1638 0 
L 1638 4134 
L -19 4134 
L -19 4666 
z
" id="DejaVuSans-54" transform="scale(0.015625)"/>
       <path d="M 556 4666 
L 1191 4666 
L 1191 1831 
Q 1191 1081 1462 751 
Q 1734 422 2344 422 
Q 2950 422 3222 751 
Q 3494 1081 3494 1831 
L 3494 4666 
L 4128 4666 
L 4128 1753 
Q 4128 841 3676 375 
Q 3225 -91 2344 -91 
Q 1459 -91 1007 375 
Q 556 841 556 1753 
L 556 4666 
z
" id="DejaVuSans-55" transform="scale(0.015625)"/>
      </defs>
      <use xlink:href="#DejaVuSans-4d"/>
      <use x="86.279297" xlink:href="#DejaVuSans-44"/>
      <use x="163.28125" xlink:href="#DejaVuSans-54"/>
      <use x="224.365234" xlink:href="#DejaVuSans-55"/>
     </g>
    </g>
   </g>
   <g id="matplotlib.axis_2">
    <g id="ytick_1">
     <g id="text_8">
      <!-- 0.6 -->
      <g style="fill:#262626;" transform="translate(34.4275 546.930337)scale(0.22 -0.22)">
       <defs>
        <path d="M 684 794 
L 1344 794 
L 1344 0 
L 684 0 
L 684 794 
z
" id="DejaVuSans-2e" transform="scale(0.015625)"/>
        <path d="M 2113 2584 
Q 1688 2584 1439 2293 
Q 1191 2003 1191 1497 
Q 1191 994 1439 701 
Q 1688 409 2113 409 
Q 2538 409 2786 701 
Q 3034 994 3034 1497 
Q 3034 2003 2786 2293 
Q 2538 2584 2113 2584 
z
M 3366 4563 
L 3366 3988 
Q 3128 4100 2886 4159 
Q 2644 4219 2406 4219 
Q 1781 4219 1451 3797 
Q 1122 3375 1075 2522 
Q 1259 2794 1537 2939 
Q 1816 3084 2150 3084 
Q 2853 3084 3261 2657 
Q 3669 2231 3669 1497 
Q 3669 778 3244 343 
Q 2819 -91 2113 -91 
Q 1303 -91 875 529 
Q 447 1150 447 2328 
Q 447 3434 972 4092 
Q 1497 4750 2381 4750 
Q 2619 4750 2861 4703 
Q 3103 4656 3366 4563 
z
" id="DejaVuSans-36" transform="scale(0.015625)"/>
       </defs>
       <use xlink:href="#DejaVuSans-30"/>
       <use x="63.623047" xlink:href="#DejaVuSans-2e"/>
       <use x="95.410156" xlink:href="#DejaVuSans-36"/>
      </g>
     </g>
    </g>
    <g id="ytick_2">
     <g id="text_9">
      <!-- 0.8 -->
      <g style="fill:#262626;" transform="translate(34.4275 457.749141)scale(0.22 -0.22)">
       <defs>
        <path d="M 2034 2216 
Q 1584 2216 1326 1975 
Q 1069 1734 1069 1313 
Q 1069 891 1326 650 
Q 1584 409 2034 409 
Q 2484 409 2743 651 
Q 3003 894 3003 1313 
Q 3003 1734 2745 1975 
Q 2488 2216 2034 2216 
z
M 1403 2484 
Q 997 2584 770 2862 
Q 544 3141 544 3541 
Q 544 4100 942 4425 
Q 1341 4750 2034 4750 
Q 2731 4750 3128 4425 
Q 3525 4100 3525 3541 
Q 3525 3141 3298 2862 
Q 3072 2584 2669 2484 
Q 3125 2378 3379 2068 
Q 3634 1759 3634 1313 
Q 3634 634 3220 271 
Q 2806 -91 2034 -91 
Q 1263 -91 848 271 
Q 434 634 434 1313 
Q 434 1759 690 2068 
Q 947 2378 1403 2484 
z
M 1172 3481 
Q 1172 3119 1398 2916 
Q 1625 2713 2034 2713 
Q 2441 2713 2670 2916 
Q 2900 3119 2900 3481 
Q 2900 3844 2670 4047 
Q 2441 4250 2034 4250 
Q 1625 4250 1398 4047 
Q 1172 3844 1172 3481 
z
" id="DejaVuSans-38" transform="scale(0.015625)"/>
       </defs>
       <use xlink:href="#DejaVuSans-30"/>
       <use x="63.623047" xlink:href="#DejaVuSans-2e"/>
       <use x="95.410156" xlink:href="#DejaVuSans-38"/>
      </g>
     </g>
    </g>
    <g id="ytick_3">
     <g id="text_10">
      <!-- 1.0 -->
      <g style="fill:#262626;" transform="translate(34.4275 368.567946)scale(0.22 -0.22)">
       <use xlink:href="#DejaVuSans-31"/>
       <use x="63.623047" xlink:href="#DejaVuSans-2e"/>
       <use x="95.410156" xlink:href="#DejaVuSans-30"/>
      </g>
     </g>
    </g>
    <g id="ytick_4">
     <g id="text_11">
      <!-- 1.2 -->
      <g style="fill:#262626;" transform="translate(34.4275 279.386751)scale(0.22 -0.22)">
       <use xlink:href="#DejaVuSans-31"/>
       <use x="63.623047" xlink:href="#DejaVuSans-2e"/>
       <use x="95.410156" xlink:href="#DejaVuSans-32"/>
      </g>
     </g>
    </g>
    <g id="ytick_5">
     <g id="text_12">
      <!-- 1.4 -->
      <g style="fill:#262626;" transform="translate(34.4275 190.205556)scale(0.22 -0.22)">
       <use xlink:href="#DejaVuSans-31"/>
       <use x="63.623047" xlink:href="#DejaVuSans-2e"/>
       <use x="95.410156" xlink:href="#DejaVuSans-34"/>
      </g>
     </g>
    </g>
    <g id="text_13">
     <!-- $E$ -->
     <g style="fill:#262626;" transform="translate(25.43625 363.813429)rotate(-90)scale(0.24 -0.24)">
      <defs>
       <path d="M 1081 4666 
L 4031 4666 
L 3928 4134 
L 1606 4134 
L 1338 2753 
L 3566 2753 
L 3463 2222 
L 1234 2222 
L 909 531 
L 3284 531 
L 3181 0 
L 172 0 
L 1081 4666 
z
" id="DejaVuSans-Oblique-45" transform="scale(0.015625)"/>
      </defs>
      <use transform="translate(0 0.09375)" xlink:href="#DejaVuSans-Oblique-45"/>
     </g>
    </g>
   </g>
   <g id="line2d_1">
    <path clip-path="url(#paf42a803f4)" d="M 106.866622 384.112428 
L 107.306106 428.162163 
L 107.745591 285.925476 
L 108.185075 392.898651 
L 108.624559 329.599774 
L 109.064044 409.692781 
L 109.503528 324.337972 
L 109.943013 262.254599 
L 110.382497 326.365525 
L 110.821982 316.381968 
L 111.261466 428.671989 
L 111.70095 366.750891 
L 112.140435 391.990432 
L 112.579919 500.946601 
L 113.019404 336.377495 
L 113.458888 494.322233 
L 113.898372 422.559418 
L 114.337857 391.722813 
L 114.777341 391.968479 
L 115.216826 451.197614 
L 116.095795 501.395008 
L 116.535279 363.038789 
L 116.974763 503.462475 
L 117.414248 450.896407 
L 117.853732 334.644247 
L 118.293217 359.213883 
L 119.172185 486.372209 
L 119.61167 345.727379 
L 120.051154 398.599667 
L 120.490639 397.720209 
L 120.930123 382.246977 
L 121.369608 548.237383 
L 121.809092 463.652016 
L 122.248576 427.522464 
L 122.688061 469.223408 
L 123.56703 410.47785 
L 124.006514 327.174532 
L 124.445999 370.38096 
L 124.885483 435.405798 
L 125.324967 381.195867 
L 125.764452 446.892972 
L 126.203936 412.601212 
L 126.643421 414.092307 
L 127.082905 366.756469 
L 127.522389 433.413119 
L 127.961874 377.844835 
L 128.401358 531.946646 
L 128.840843 371.584772 
L 129.280327 404.669287 
L 129.719812 346.737691 
L 130.159296 406.122725 
L 130.59878 510.799388 
L 131.038265 421.468868 
L 131.477749 380.875452 
L 131.917234 408.591839 
L 132.356718 412.273387 
L 132.796203 450.058473 
L 133.235687 317.141691 
L 133.675171 421.846223 
L 134.114656 447.847496 
L 134.55414 281.924373 
L 134.993625 405.429097 
L 135.433109 430.715224 
L 135.872593 425.245103 
L 136.751562 326.875136 
L 137.191047 446.63732 
L 137.630531 312.83643 
L 138.070016 445.51794 
L 138.5095 365.309497 
L 138.948984 371.486498 
L 139.388469 256.724285 
L 139.827953 438.375394 
L 140.267438 384.404868 
L 140.706922 434.971575 
L 141.146406 441.343959 
L 141.585891 435.462308 
L 142.025375 386.170858 
L 142.46486 420.860564 
L 142.904344 444.919007 
L 143.343829 374.203057 
L 143.783313 439.097522 
L 144.222797 382.218552 
L 144.662282 347.817744 
L 145.541251 381.98002 
L 145.980735 468.603259 
L 146.42022 462.487216 
L 146.859704 415.715659 
L 147.299188 412.020681 
L 147.738673 401.826018 
L 148.178157 434.788596 
L 148.617642 439.381551 
L 149.057126 472.85194 
L 149.49661 357.914388 
L 149.936095 422.686096 
L 150.375579 288.810111 
L 150.815064 438.215212 
L 151.254548 420.132076 
L 151.694033 476.426337 
L 152.573001 370.270978 
L 153.012486 470.872178 
L 153.45197 423.639519 
L 153.891455 416.353408 
L 154.330939 290.918966 
L 154.770423 487.13055 
L 155.209908 361.997721 
L 155.649392 476.554466 
L 156.088877 396.24848 
L 156.528361 378.616982 
L 156.967846 379.729903 
L 157.40733 352.565556 
L 157.846814 411.404971 
L 158.286299 340.199415 
L 158.725783 464.084686 
L 159.165268 407.450737 
L 159.604752 447.847325 
L 160.044237 451.71301 
L 160.483721 498.520877 
L 160.923205 430.206808 
L 161.36269 446.184777 
L 161.802174 485.103077 
L 162.241659 336.209657 
L 162.681143 415.715139 
L 163.120627 379.119206 
L 163.999596 436.794463 
L 164.439081 461.623899 
L 164.878565 240.054115 
L 165.31805 452.748863 
L 165.757534 467.604523 
L 166.197018 323.485227 
L 166.636503 474.38897 
L 167.515472 296.528121 
L 167.954956 371.293629 
L 168.833925 398.850424 
L 169.273409 513.056433 
L 169.712894 373.487682 
L 170.152378 333.129614 
L 170.591863 414.152715 
L 171.031347 402.386962 
L 171.470831 320.622781 
L 171.910316 271.135043 
L 172.3498 460.990159 
L 172.789285 354.853034 
L 173.228769 494.234679 
L 173.668254 299.23385 
L 174.107738 441.344265 
L 174.547222 353.86486 
L 174.986707 409.46709 
L 175.426191 371.013585 
L 175.865676 434.318771 
L 176.30516 381.790223 
L 176.744644 451.367241 
L 177.184129 500.154312 
L 177.623613 445.150484 
L 178.063098 453.110381 
L 178.502582 402.698806 
L 178.942067 486.477229 
L 179.381551 387.724413 
L 179.821035 416.275569 
L 180.26052 429.695414 
L 180.700004 458.622852 
L 181.139489 391.961103 
L 181.578973 380.290265 
L 182.018457 355.927697 
L 182.457942 394.387667 
L 182.897426 463.292383 
L 183.336911 383.932151 
L 183.776395 360.056676 
L 184.21588 389.311857 
L 184.655364 326.025281 
L 185.094848 416.232047 
L 185.534333 398.824847 
L 185.973817 342.443686 
L 186.413302 394.670291 
L 186.852786 409.937615 
L 187.292271 493.18115 
L 187.731755 449.6049 
L 188.610724 290.663242 
L 189.050208 408.142388 
L 189.489693 445.30375 
L 189.929177 447.386245 
L 190.368661 353.212686 
L 190.808146 443.820543 
L 191.24763 463.347968 
L 191.687115 469.158255 
L 192.126599 433.555323 
L 192.566084 409.49806 
L 193.005568 490.162159 
L 193.445052 257.102216 
L 193.884537 359.690186 
L 194.324021 374.336837 
L 194.763506 434.992535 
L 195.20299 414.579461 
L 195.642474 442.333233 
L 196.081959 481.705328 
L 196.521443 376.340442 
L 196.960928 417.591754 
L 197.400412 434.372443 
L 197.839897 496.108527 
L 198.279381 335.123393 
L 198.718865 436.144902 
L 199.15835 238.038963 
L 199.597834 449.386504 
L 200.037319 378.883376 
L 200.476803 374.948482 
L 200.916288 337.761194 
L 201.355772 436.90061 
L 201.795256 388.325813 
L 202.234741 536.640401 
L 202.674225 337.444827 
L 203.11371 415.234309 
L 203.553194 366.807009 
L 203.992678 487.346896 
L 204.432163 489.920223 
L 204.871647 390.433976 
L 205.311132 487.387962 
L 205.750616 386.54977 
L 206.190101 403.159402 
L 206.629585 366.571078 
L 207.069069 366.906036 
L 207.508554 353.407583 
L 207.948038 423.753242 
L 208.387523 456.887083 
L 209.266491 359.401504 
L 209.705976 431.784363 
L 210.14546 433.025921 
L 210.584945 430.575809 
L 211.024429 287.759678 
L 211.463914 444.927468 
L 211.903398 504.938857 
L 212.342882 291.459189 
L 212.782367 397.538562 
L 213.221851 450.804022 
L 213.661336 438.363574 
L 214.10082 453.411521 
L 214.540305 366.768156 
L 214.979789 427.223427 
L 215.419273 380.343448 
L 215.858758 298.556017 
L 216.298242 385.953514 
L 216.737727 398.919821 
L 217.177211 424.650847 
L 217.616695 401.429253 
L 218.05618 393.578534 
L 218.495664 479.579996 
L 218.935149 342.749312 
L 219.814118 449.860359 
L 220.253602 418.047166 
L 220.693086 361.71667 
L 221.132571 471.633712 
L 221.572055 462.495813 
L 222.01154 471.580906 
L 222.451024 423.344751 
L 222.890508 434.662237 
L 223.329993 365.634109 
L 223.769477 384.53823 
L 224.208962 396.923108 
L 224.648446 398.168212 
L 225.087931 387.076238 
L 225.527415 394.870208 
L 225.966899 350.223009 
L 226.406384 399.891553 
L 226.845868 383.258192 
L 227.285353 468.587119 
L 227.724837 346.739389 
L 228.164322 308.962188 
L 228.603806 301.625022 
L 229.04329 464.991836 
L 229.482775 395.475083 
L 229.922259 386.589009 
L 230.361744 393.879783 
L 230.801228 387.244306 
L 231.240712 429.79152 
L 231.680197 427.140455 
L 232.119681 450.561273 
L 232.559166 453.118922 
L 232.99865 410.863008 
L 233.438135 489.599489 
L 234.317103 396.458155 
L 234.756588 415.992712 
L 235.196072 415.390792 
L 235.635557 430.119043 
L 236.075041 432.409498 
L 236.514526 464.766355 
L 236.95401 469.772451 
L 237.393494 409.38498 
L 237.832979 450.095265 
L 238.272463 424.467612 
L 238.711948 511.749199 
L 239.151432 365.800498 
L 240.030401 458.242446 
L 240.469885 402.919575 
L 240.90937 435.913549 
L 241.348854 377.191752 
L 241.788339 472.688211 
L 242.227823 296.735064 
L 242.667307 420.212448 
L 243.106792 400.044482 
L 243.546276 465.160327 
L 243.985761 383.70597 
L 244.425245 414.012471 
L 244.864729 416.893654 
L 245.304214 407.066567 
L 245.743698 382.297269 
L 246.183183 430.126575 
L 246.622667 389.528518 
L 247.062152 364.141691 
L 247.501636 422.961948 
L 247.94112 432.038647 
L 248.380605 461.915133 
L 248.820089 465.115949 
L 249.259574 471.612419 
L 249.699058 448.726656 
L 250.138543 386.751233 
L 250.578027 458.275034 
L 251.017511 347.504765 
L 251.456996 389.134248 
L 251.89648 419.910178 
L 252.335965 410.538356 
L 252.775449 433.894469 
L 253.214933 415.115936 
L 253.654418 360.05644 
L 254.093902 407.5477 
L 254.972871 291.010785 
L 255.412356 436.634639 
L 255.85184 450.070809 
L 256.291324 478.806449 
L 256.730809 442.292289 
L 257.170293 466.453898 
L 257.609778 344.829556 
L 258.049262 461.444326 
L 258.488746 444.904225 
L 258.928231 402.899485 
L 259.367715 348.998624 
L 259.8072 445.253596 
L 260.246684 345.170513 
L 260.686169 392.798547 
L 261.125653 483.858726 
L 261.565137 418.019585 
L 262.004622 434.623487 
L 262.444106 351.202899 
L 262.883591 466.883434 
L 263.323075 401.181244 
L 263.76256 367.771862 
L 264.202044 457.591299 
L 264.641528 410.114562 
L 265.081013 436.740919 
L 265.520497 444.938833 
L 265.959982 441.719 
L 266.399466 383.528802 
L 266.83895 366.793545 
L 267.278435 131.763818 
L 267.717919 340.076224 
L 268.157404 289.112777 
L 268.596888 361.290283 
L 269.036373 284.258787 
L 269.475857 486.686348 
L 269.915341 409.931426 
L 270.354826 448.091115 
L 270.79431 439.126019 
L 271.233795 425.748352 
L 271.673279 335.518193 
L 272.112763 481.275526 
L 272.552248 411.902646 
L 272.991732 409.857658 
L 273.431217 418.726682 
L 273.870701 378.893801 
L 274.310186 410.554573 
L 274.74967 430.821146 
L 275.189154 436.460825 
L 275.628639 456.585401 
L 276.068123 436.016381 
L 276.507608 311.741417 
L 276.947092 322.210943 
L 277.386577 366.239095 
L 277.826061 474.65017 
L 278.265545 460.052764 
L 278.70503 391.427279 
L 279.144514 407.378361 
L 279.583999 414.617731 
L 280.023483 387.118797 
L 280.462967 430.819915 
L 280.902452 394.29585 
L 281.341936 445.798598 
L 281.781421 450.039586 
L 282.220905 327.286763 
L 282.66039 453.45864 
L 283.099874 299.461855 
L 283.539358 392.205228 
L 284.418327 252.966498 
L 284.857812 386.674256 
L 285.297296 442.93369 
L 285.73678 409.278321 
L 286.176265 508.162525 
L 286.615749 482.028368 
L 287.055234 363.918809 
L 287.494718 431.943546 
L 287.934203 373.456484 
L 288.373687 411.370443 
L 288.813171 332.710339 
L 289.252656 415.877228 
L 289.69214 403.191278 
L 290.131625 482.159991 
L 290.571109 487.736888 
L 291.010594 408.704518 
L 291.450078 451.653752 
L 291.889562 455.947762 
L 292.329047 406.882885 
L 292.768531 302.529268 
L 293.208016 444.54497 
L 293.6475 463.105827 
L 294.086984 337.370522 
L 294.526469 444.769617 
L 294.965953 369.023593 
L 295.405438 394.858314 
L 295.844922 484.364365 
L 296.284407 466.405748 
L 296.723891 365.295469 
L 297.163375 555.275012 
L 297.60286 442.617212 
L 298.042344 418.619137 
L 298.481829 335.772734 
L 298.921313 463.474639 
L 299.360797 476.399141 
L 299.800282 366.397159 
L 300.239766 305.178242 
L 300.679251 476.436988 
L 301.118735 224.493169 
L 301.55822 423.478887 
L 301.997704 460.274597 
L 302.437188 405.054141 
L 302.876673 501.769623 
L 303.316157 268.054368 
L 303.755642 401.478572 
L 304.195126 369.087592 
L 304.634611 374.120482 
L 305.074095 422.643411 
L 305.513579 303.174309 
L 305.953064 510.567162 
L 306.392548 387.436676 
L 306.832033 394.964475 
L 307.271517 439.917651 
L 307.711001 421.96991 
L 308.150486 440.124192 
L 308.58997 441.074436 
L 309.029455 303.605699 
L 309.468939 303.199688 
L 309.908424 453.821971 
L 310.347908 397.153592 
L 310.787392 465.094312 
L 311.226877 293.45053 
L 311.666361 453.642511 
L 312.105846 334.182686 
L 312.54533 318.236777 
L 312.984814 307.976808 
L 313.424299 547.592753 
L 313.863783 458.86144 
L 314.303268 472.360835 
L 314.742752 472.08927 
L 315.182237 423.980361 
L 315.621721 343.608762 
L 316.061205 470.891118 
L 316.50069 474.551949 
L 316.940174 435.136805 
L 317.379659 375.172217 
L 317.819143 471.029058 
L 318.258628 384.025412 
L 318.698112 388.044114 
L 319.137596 310.429562 
L 319.577081 420.304164 
L 320.016565 343.738863 
L 320.45605 327.301942 
L 320.895534 333.655683 
L 321.335018 523.47592 
L 321.774503 483.096475 
L 322.213987 473.692372 
L 322.653472 471.311013 
L 323.092956 392.995842 
L 323.532441 501.409819 
L 323.971925 373.700896 
L 324.411409 404.983379 
L 324.850894 379.634856 
L 325.290378 396.21475 
L 325.729863 423.07026 
L 326.169347 391.117649 
L 326.608831 461.474387 
L 327.048316 316.535735 
L 327.4878 440.600748 
L 327.927285 434.875773 
L 328.366769 504.422077 
L 328.806254 366.291977 
L 329.245738 387.186213 
L 329.685222 306.41585 
L 330.124707 494.068421 
L 330.564191 253.110015 
L 331.003676 447.397206 
L 331.44316 469.43227 
L 331.882645 451.792408 
L 332.322129 416.683047 
L 332.761613 410.754925 
L 333.201098 328.650937 
L 333.640582 460.914626 
L 334.080067 398.586337 
L 334.519551 419.356224 
L 334.959035 465.935456 
L 335.39852 448.080975 
L 336.277489 368.871966 
L 336.716973 297.319869 
L 337.156458 454.442101 
L 337.595942 346.763771 
L 338.035426 476.238812 
L 338.474911 383.279209 
L 338.914395 453.496678 
L 339.35388 429.734551 
L 339.793364 346.451559 
L 340.232848 396.589884 
L 340.672333 391.781183 
L 341.111817 400.966834 
L 341.551302 508.533437 
L 341.990786 508.914438 
L 342.869755 292.58768 
L 343.309239 486.661228 
L 343.748724 407.05826 
L 344.188208 412.31142 
L 344.627693 388.426625 
L 345.067177 461.843068 
L 345.506662 475.731088 
L 345.946146 412.776394 
L 346.38563 407.709475 
L 346.825115 462.394505 
L 347.264599 383.02711 
L 347.704084 325.569153 
L 348.143568 348.095908 
L 348.583052 456.296912 
L 349.462021 330.759956 
L 349.901506 407.600332 
L 350.34099 327.356521 
L 350.780475 442.126961 
L 351.219959 359.498696 
L 351.659443 401.916649 
L 352.098928 495.32703 
L 352.538412 389.926174 
L 352.977897 395.815997 
L 353.417381 384.205648 
L 353.856866 408.18063 
L 354.29635 420.607921 
L 355.175319 481.708211 
L 355.614803 394.979426 
L 356.054288 467.352894 
L 356.493772 509.825852 
L 356.933256 433.647063 
L 357.372741 412.249115 
L 357.812225 470.100603 
L 358.25171 449.238637 
L 358.691194 362.584159 
L 359.130679 410.727135 
L 359.570163 359.877018 
L 360.449132 483.067019 
L 360.888616 370.00223 
L 361.328101 422.352524 
L 361.767585 384.680153 
L 362.207069 456.869131 
L 362.646554 383.440421 
L 363.086038 402.599253 
L 363.525523 220.817092 
L 363.965007 545.425293 
L 364.404492 372.016306 
L 364.843976 337.479797 
L 365.28346 359.614779 
L 365.722945 432.775852 
L 366.162429 447.137908 
L 366.601914 327.514283 
L 367.041398 452.509992 
L 367.480883 462.529502 
L 367.920367 414.156798 
L 368.359851 495.299467 
L 368.799336 417.465001 
L 369.23882 363.356275 
L 369.678305 330.052141 
L 370.117789 373.610413 
L 370.557273 441.360419 
L 370.996758 478.263032 
L 371.436242 444.167312 
L 371.875727 507.434892 
L 372.315211 464.676901 
L 372.754696 378.782396 
L 373.19418 372.658564 
L 373.633664 422.323118 
L 374.073149 451.727458 
L 374.512633 492.460292 
L 374.952118 385.544745 
L 375.391602 471.920635 
L 375.831086 440.188837 
L 376.270571 494.084721 
L 376.710055 463.598401 
L 377.14954 379.704331 
L 377.589024 434.905983 
L 378.028509 393.799799 
L 378.467993 340.812015 
L 378.907477 469.796336 
L 379.346962 481.890523 
L 379.786446 424.378154 
L 380.225931 296.726382 
L 380.665415 416.17643 
L 381.1049 371.404741 
L 381.544384 296.483724 
L 381.983868 337.246097 
L 382.423353 399.220006 
L 382.862837 389.385087 
L 383.302322 512.459668 
L 383.741806 488.523677 
L 384.18129 369.125131 
L 384.620775 430.022256 
L 385.060259 426.140287 
L 385.499744 470.529698 
L 385.939228 466.797475 
L 386.378713 482.594098 
L 386.818197 408.277577 
L 387.257681 580.503039 
L 387.697166 402.281009 
L 388.13665 435.820794 
L 388.576135 424.682913 
L 389.015619 342.417712 
L 389.455103 491.347651 
L 389.894588 459.605917 
L 390.334072 438.451791 
L 390.773557 382.734528 
L 391.213041 405.668878 
L 391.652526 475.72438 
L 392.09201 341.985435 
L 392.531494 419.365179 
L 392.970979 361.680688 
L 393.410463 473.506694 
L 393.849948 493.834424 
L 394.289432 442.183045 
L 394.728917 311.273148 
L 395.168401 408.431564 
L 395.607885 425.738792 
L 396.04737 369.410131 
L 396.486854 398.279213 
L 396.926339 493.699247 
L 397.365823 376.233129 
L 397.805307 479.497546 
L 398.244792 445.848215 
L 398.684276 475.370627 
L 399.123761 433.579426 
L 399.563245 469.457185 
L 400.00273 442.491059 
L 400.442214 314.004951 
L 400.881698 246.818251 
L 401.760667 506.873364 
L 402.200152 410.587473 
L 402.639636 437.551813 
L 403.07912 371.095444 
L 403.958089 464.648221 
L 404.397574 364.152702 
L 404.837058 381.931488 
L 405.276543 496.499219 
L 405.716027 416.934762 
L 406.155511 290.559494 
L 406.594996 321.448848 
L 407.03448 482.389851 
L 407.473965 356.885012 
L 407.913449 431.831419 
L 408.352934 422.900567 
L 408.792418 337.643173 
L 409.231902 422.017999 
L 409.671387 389.410155 
L 410.110871 413.113853 
L 410.550356 343.757589 
L 410.98984 397.91932 
L 411.429324 465.855737 
L 411.868809 330.239601 
L 412.308293 441.885891 
L 412.747778 373.356813 
L 413.187262 387.570808 
L 413.626747 420.58145 
L 414.066231 342.867995 
L 414.505715 330.552548 
L 414.9452 428.895211 
L 415.384684 371.976012 
L 415.824169 469.432707 
L 416.263653 355.919747 
L 416.703137 519.59809 
L 417.142622 477.153634 
L 417.582106 419.441263 
L 418.021591 394.538217 
L 418.461075 412.996988 
L 418.90056 424.671441 
L 419.340044 425.962967 
L 419.779528 401.967528 
L 420.219013 392.027895 
L 420.658497 413.351099 
L 421.097982 441.179457 
L 421.537466 335.45005 
L 422.416435 498.821622 
L 422.855919 366.378187 
L 423.295404 527.806303 
L 423.734888 421.155861 
L 424.174373 415.118583 
L 424.613857 266.980654 
L 425.053341 474.571456 
L 425.492826 447.211056 
L 425.93231 410.085118 
L 426.371795 304.669189 
L 426.811279 446.623125 
L 427.250764 401.774197 
L 427.690248 370.125804 
L 428.129732 264.959718 
L 428.569217 413.425223 
L 429.008701 473.175181 
L 429.448186 415.9492 
L 429.88767 442.094255 
L 430.327154 420.405324 
L 430.766639 343.936567 
L 431.206123 353.046752 
L 431.645608 415.995776 
L 432.085092 377.43154 
L 432.524577 392.892493 
L 432.964061 428.663307 
L 433.403545 369.239065 
L 433.84303 536.645178 
L 434.282514 381.154141 
L 434.721999 487.448935 
L 435.161483 307.036162 
L 435.600968 380.562604 
L 436.040452 323.080225 
L 436.479936 363.445953 
L 436.919421 494.315486 
L 437.358905 445.55956 
L 437.79839 355.464062 
L 438.237874 440.161205 
L 438.677358 394.630268 
L 439.116843 380.635955 
L 439.556327 449.076066 
L 439.995812 318.250531 
L 440.435296 474.288405 
L 440.874781 357.4525 
L 441.314265 389.898666 
L 441.753749 355.073107 
L 442.193234 371.045585 
L 442.632718 430.974752 
L 443.072203 445.214585 
L 443.511687 390.431004 
L 443.951171 442.895992 
L 444.390656 470.143451 
L 444.83014 457.09925 
L 445.269625 405.706171 
L 445.709109 520.98519 
L 446.588078 304.831956 
L 447.027562 355.892852 
L 447.467047 437.829482 
L 447.906531 446.769096 
L 448.346016 341.726818 
L 448.7855 266.248659 
L 449.224985 425.133878 
L 449.664469 442.2918 
L 450.103953 363.900711 
L 450.543438 457.610492 
L 450.982922 447.529807 
L 451.422407 284.74256 
L 451.861891 413.63168 
L 452.301375 446.073353 
L 452.74086 392.710594 
L 453.180344 417.696549 
L 453.619829 418.016975 
L 454.059313 445.488346 
L 454.498798 485.310992 
L 454.938282 444.129909 
L 455.377766 455.646485 
L 455.817251 379.975668 
L 456.256735 441.988992 
L 456.69622 390.239818 
L 457.135704 371.533069 
L 457.575189 485.102319 
L 458.014673 414.925669 
L 458.454157 415.133721 
L 458.893642 434.677997 
L 459.333126 423.322968 
L 460.212095 368.357459 
L 460.651579 385.820772 
L 461.091064 436.093524 
L 461.530548 350.376944 
L 461.970033 339.24157 
L 462.409517 373.697084 
L 462.849002 329.557811 
L 463.288486 473.841224 
L 463.72797 485.960418 
L 464.167455 295.287871 
L 464.606939 320.939918 
L 465.046424 362.944496 
L 465.485908 448.853458 
L 465.925392 393.657588 
L 466.364877 471.456833 
L 466.804361 423.816271 
L 467.243846 398.767918 
L 467.68333 344.684604 
L 468.122815 464.517537 
L 468.562299 455.643466 
L 469.001783 472.296637 
L 469.441268 401.114921 
L 469.880752 490.652032 
L 470.320237 380.069627 
L 470.759721 429.783263 
L 471.199206 427.489408 
L 471.63869 357.118714 
L 472.078174 330.665045 
L 472.517659 408.608113 
L 472.957143 364.257504 
L 473.396628 414.393468 
L 473.836112 397.928145 
L 474.275596 485.967441 
L 474.715081 305.208028 
L 476.033534 482.652452 
L 476.473019 323.678153 
L 476.912503 472.170497 
L 477.351987 443.629711 
L 477.791472 498.329068 
L 478.230956 431.436542 
L 478.670441 336.396118 
L 479.109925 298.566506 
L 479.549409 366.088305 
L 479.988894 405.961697 
L 480.428378 428.573681 
L 480.867863 402.148748 
L 481.307347 282.742792 
L 481.746832 450.16035 
L 482.186316 381.290003 
L 482.6258 454.847929 
L 483.504769 393.90207 
L 483.944254 495.993595 
L 484.383738 460.798714 
L 484.823223 487.868147 
L 485.262707 236.005495 
L 485.702191 356.035859 
L 486.141676 437.109921 
L 486.58116 383.975257 
L 487.020645 305.974943 
L 487.460129 431.333845 
L 487.899613 320.737845 
L 488.339098 421.58287 
L 488.778582 445.243097 
L 489.218067 364.370158 
L 489.657551 386.396894 
L 490.097036 397.155744 
L 490.53652 564.573224 
L 490.976004 367.201792 
L 491.415489 407.623842 
L 491.854973 422.110616 
L 492.294458 486.105725 
L 492.733942 352.255975 
L 493.173426 352.556109 
L 493.612911 241.203737 
L 494.052395 442.044459 
L 494.49188 359.279217 
L 494.931364 382.780352 
L 495.370849 491.38667 
L 495.810333 280.662192 
L 496.249817 461.310857 
L 496.689302 443.20808 
L 497.128786 409.180091 
L 497.568271 251.476509 
L 498.007755 424.356058 
L 498.44724 320.333937 
L 498.886724 520.25111 
L 499.326208 329.426829 
L 499.765693 357.802823 
L 500.644662 491.713298 
L 501.084146 464.185056 
L 501.52363 464.694565 
L 501.963115 355.869451 
L 502.402599 425.435537 
L 502.842084 467.37932 
L 503.281568 400.065808 
L 503.721053 400.645827 
L 504.160537 345.929757 
L 504.600021 322.218754 
L 505.039506 420.212867 
L 505.47899 431.346877 
L 505.918475 378.645805 
L 506.357959 458.610405 
L 506.797443 400.921187 
L 507.676412 388.365343 
L 508.115897 553.98358 
L 508.994866 335.444427 
L 509.43435 394.114513 
L 509.873834 401.885202 
L 510.313319 440.176828 
L 510.752803 392.465038 
L 511.192288 465.666301 
L 511.631772 456.969668 
L 512.071257 284.409167 
L 512.510741 378.535963 
L 512.950225 343.328355 
L 513.38971 433.619516 
L 513.829194 360.976267 
L 514.268679 360.738456 
L 514.708163 485.947305 
L 515.147647 260.408212 
L 515.587132 479.529806 
L 516.026616 453.165863 
L 516.466101 312.065958 
L 516.905585 516.252526 
L 517.34507 368.880359 
L 518.224038 423.505579 
L 518.663523 358.891526 
L 519.103007 480.951422 
L 519.542492 442.085544 
L 519.981976 474.564853 
L 520.42146 481.130394 
L 520.860945 357.721499 
L 521.300429 442.243815 
L 521.739914 496.833337 
L 522.179398 453.887746 
L 522.618883 436.305723 
L 523.058367 344.72263 
L 523.497851 429.860861 
L 523.937336 438.409875 
L 524.37682 391.225089 
L 524.816305 387.572129 
L 525.255789 430.49161 
L 525.695274 380.57192 
L 526.134758 535.159023 
L 526.574242 283.964988 
L 527.453211 412.645441 
L 527.892696 411.66193 
L 528.33218 372.302384 
L 528.771664 467.874467 
L 529.211149 513.947677 
L 529.650633 352.932458 
L 530.090118 372.570193 
L 530.529602 456.540069 
L 531.408571 402.994526 
L 531.848055 408.456543 
L 532.28754 456.768377 
L 532.727024 378.581019 
L 533.166509 372.500833 
L 533.605993 382.733652 
L 534.045477 349.227094 
L 534.484962 474.748582 
L 534.924446 366.660027 
L 535.363931 353.465318 
L 535.803415 333.188004 
L 536.2429 503.513039 
L 536.682384 468.945204 
L 537.121868 358.457677 
L 537.561353 387.246533 
L 538.000837 394.553104 
L 538.440322 356.51898 
L 538.879806 427.921917 
L 539.319291 537.90345 
L 539.758775 422.544681 
L 540.198259 456.150092 
L 540.637744 266.224564 
L 541.077228 368.370735 
L 541.516713 303.58786 
L 541.956197 434.3228 
L 542.395681 365.967928 
L 542.835166 527.49358 
L 543.27465 354.038765 
L 543.714135 510.779704 
L 544.153619 418.708001 
L 544.593104 385.998711 
L 545.032588 377.966314 
L 545.472072 465.449124 
L 545.911557 467.738541 
L 545.911557 467.738541 
" style="fill:none;stroke:#96c69a;stroke-linecap:round;stroke-width:3;"/>
   </g>
   <g id="line2d_2"/>
   <g id="patch_3">
    <path d="M 84.914375 602.94 
L 84.914375 109.326857 
" style="fill:none;stroke:#262626;stroke-linecap:square;stroke-linejoin:miter;stroke-width:2.5;"/>
   </g>
   <g id="patch_4">
    <path d="M 84.914375 602.94 
L 567.863804 602.94 
" style="fill:none;stroke:#262626;stroke-linecap:square;stroke-linejoin:miter;stroke-width:2.5;"/>
   </g>
   <g id="legend_1">
    <g id="patch_5">
     <path d="M 514.948179 597.94 
L 560.863804 597.94 
Q 562.863804 597.94 562.863804 595.94 
L 562.863804 554.034375 
Q 562.863804 552.034375 560.863804 552.034375 
L 514.948179 552.034375 
Q 512.948179 552.034375 512.948179 554.034375 
L 512.948179 595.94 
Q 512.948179 597.94 514.948179 597.94 
z
" style="fill:#ffffff;opacity:0.8;stroke:#cccccc;stroke-linejoin:miter;stroke-width:2;"/>
    </g>
    <g id="text_14">
     <!-- $n_\tau$ -->
     <g style="fill:#262626;" transform="translate(524.825991 574.270625)scale(0.24 -0.24)">
      <defs>
       <path d="M 3566 2113 
L 3156 0 
L 2578 0 
L 2988 2091 
Q 3016 2238 3031 2350 
Q 3047 2463 3047 2528 
Q 3047 2791 2881 2937 
Q 2716 3084 2419 3084 
Q 1956 3084 1622 2776 
Q 1288 2469 1184 1941 
L 800 0 
L 225 0 
L 903 3500 
L 1478 3500 
L 1363 2950 
Q 1603 3253 1940 3418 
Q 2278 3584 2650 3584 
Q 3113 3584 3367 3334 
Q 3622 3084 3622 2631 
Q 3622 2519 3608 2391 
Q 3594 2263 3566 2113 
z
" id="DejaVuSans-Oblique-6e" transform="scale(0.015625)"/>
       <path d="M 2103 638 
Q 2188 488 2525 488 
L 2800 488 
L 2706 0 
L 2363 0 
Q 1800 0 1600 300 
Q 1403 606 1534 1269 
L 1856 2925 
L 541 2925 
L 653 3500 
L 3881 3500 
L 3769 2925 
L 2444 2925 
L 2113 1234 
Q 2025 781 2103 638 
z
" id="DejaVuSans-Oblique-3c4" transform="scale(0.015625)"/>
      </defs>
      <use xlink:href="#DejaVuSans-Oblique-6e"/>
      <use transform="translate(63.378906 -16.40625)scale(0.7)" xlink:href="#DejaVuSans-Oblique-3c4"/>
     </g>
    </g>
    <g id="line2d_3">
     <path d="M 516.948179 588.360312 
L 536.948179 588.360312 
" style="fill:none;stroke:#96c69a;stroke-linecap:round;stroke-width:3;"/>
    </g>
    <g id="line2d_4"/>
    <g id="text_15">
     <!-- 40 -->
     <g style="fill:#262626;" transform="translate(544.948179 591.860312)scale(0.1 -0.1)">
      <defs>
       <path d="M 2356 3675 
L 1038 1722 
L 2356 1722 
L 2356 3675 
z
M 2156 4666 
L 3494 4666 
L 3494 1722 
L 4159 1722 
L 4159 850 
L 3494 850 
L 3494 0 
L 2356 0 
L 2356 850 
L 288 850 
L 288 1881 
L 2156 4666 
z
" id="DejaVuSans-Bold-34" transform="scale(0.015625)"/>
       <path d="M 2944 2338 
Q 2944 3213 2780 3570 
Q 2616 3928 2228 3928 
Q 1841 3928 1675 3570 
Q 1509 3213 1509 2338 
Q 1509 1453 1675 1090 
Q 1841 728 2228 728 
Q 2613 728 2778 1090 
Q 2944 1453 2944 2338 
z
M 4147 2328 
Q 4147 1169 3647 539 
Q 3147 -91 2228 -91 
Q 1306 -91 806 539 
Q 306 1169 306 2328 
Q 306 3491 806 4120 
Q 1306 4750 2228 4750 
Q 3147 4750 3647 4120 
Q 4147 3491 4147 2328 
z
" id="DejaVuSans-Bold-30" transform="scale(0.015625)"/>
      </defs>
      <use xlink:href="#DejaVuSans-Bold-34"/>
      <use x="69.580078" xlink:href="#DejaVuSans-Bold-30"/>
     </g>
    </g>
   </g>
  </g>
  <g id="axes_2">
   <g id="patch_6">
    <path d="M 84.914375 92.305714 
L 567.863804 92.305714 
L 567.863804 7.2 
L 84.914375 7.2 
z
" style="fill:none;"/>
   </g>
   <g id="matplotlib.axis_3">
    <g id="xtick_7"/>
    <g id="xtick_8"/>
    <g id="xtick_9"/>
    <g id="xtick_10"/>
    <g id="xtick_11"/>
    <g id="xtick_12"/>
   </g>
   <g id="matplotlib.axis_4">
    <g id="ytick_6">
     <g id="text_16">
      <!-- 0 -->
      <g style="fill:#262626;" transform="translate(55.416875 100.663996)scale(0.22 -0.22)">
       <use xlink:href="#DejaVuSans-30"/>
      </g>
     </g>
    </g>
    <g id="ytick_7">
     <g id="text_17">
      <!-- 50 -->
      <g style="fill:#262626;" transform="translate(41.419375 56.129347)scale(0.22 -0.22)">
       <use xlink:href="#DejaVuSans-35"/>
       <use x="63.623047" xlink:href="#DejaVuSans-30"/>
      </g>
     </g>
    </g>
   </g>
   <g id="patch_7">
    <path clip-path="url(#pf9fb115930)" d="M 106.866622 92.305714 
L 146.779798 92.305714 
L 146.779798 11.252653 
L 106.866622 11.252653 
z
" style="fill:#96c69a;fill-opacity:0.5;stroke:#ffffff;stroke-linejoin:miter;stroke-width:2;"/>
   </g>
   <g id="patch_8">
    <path clip-path="url(#pf9fb115930)" d="M 146.779798 92.305714 
L 186.692974 92.305714 
L 186.692974 11.252653 
L 146.779798 11.252653 
z
" style="fill:#96c69a;fill-opacity:0.5;stroke:#ffffff;stroke-linejoin:miter;stroke-width:2;"/>
   </g>
   <g id="patch_9">
    <path clip-path="url(#pf9fb115930)" d="M 186.692974 92.305714 
L 226.606149 92.305714 
L 226.606149 11.252653 
L 186.692974 11.252653 
z
" style="fill:#96c69a;fill-opacity:0.5;stroke:#ffffff;stroke-linejoin:miter;stroke-width:2;"/>
   </g>
   <g id="patch_10">
    <path clip-path="url(#pf9fb115930)" d="M 226.606149 92.305714 
L 266.519325 92.305714 
L 266.519325 11.252653 
L 226.606149 11.252653 
z
" style="fill:#96c69a;fill-opacity:0.5;stroke:#ffffff;stroke-linejoin:miter;stroke-width:2;"/>
   </g>
   <g id="patch_11">
    <path clip-path="url(#pf9fb115930)" d="M 266.519325 92.305714 
L 306.432501 92.305714 
L 306.432501 11.252653 
L 266.519325 11.252653 
z
" style="fill:#96c69a;fill-opacity:0.5;stroke:#ffffff;stroke-linejoin:miter;stroke-width:2;"/>
   </g>
   <g id="patch_12">
    <path clip-path="url(#pf9fb115930)" d="M 306.432501 92.305714 
L 346.345677 92.305714 
L 346.345677 12.143346 
L 306.432501 12.143346 
z
" style="fill:#96c69a;fill-opacity:0.5;stroke:#ffffff;stroke-linejoin:miter;stroke-width:2;"/>
   </g>
   <g id="patch_13">
    <path clip-path="url(#pf9fb115930)" d="M 346.345677 92.305714 
L 386.258853 92.305714 
L 386.258853 11.252653 
L 346.345677 11.252653 
z
" style="fill:#96c69a;fill-opacity:0.5;stroke:#ffffff;stroke-linejoin:miter;stroke-width:2;"/>
   </g>
   <g id="patch_14">
    <path clip-path="url(#pf9fb115930)" d="M 386.258853 92.305714 
L 426.172029 92.305714 
L 426.172029 11.252653 
L 386.258853 11.252653 
z
" style="fill:#96c69a;fill-opacity:0.5;stroke:#ffffff;stroke-linejoin:miter;stroke-width:2;"/>
   </g>
   <g id="patch_15">
    <path clip-path="url(#pf9fb115930)" d="M 426.172029 92.305714 
L 466.085205 92.305714 
L 466.085205 11.252653 
L 426.172029 11.252653 
z
" style="fill:#96c69a;fill-opacity:0.5;stroke:#ffffff;stroke-linejoin:miter;stroke-width:2;"/>
   </g>
   <g id="patch_16">
    <path clip-path="url(#pf9fb115930)" d="M 466.085205 92.305714 
L 505.998381 92.305714 
L 505.998381 11.252653 
L 466.085205 11.252653 
z
" style="fill:#96c69a;fill-opacity:0.5;stroke:#ffffff;stroke-linejoin:miter;stroke-width:2;"/>
   </g>
   <g id="patch_17">
    <path clip-path="url(#pf9fb115930)" d="M 505.998381 92.305714 
L 545.911557 92.305714 
L 545.911557 11.252653 
L 505.998381 11.252653 
z
" style="fill:#96c69a;fill-opacity:0.5;stroke:#ffffff;stroke-linejoin:miter;stroke-width:2;"/>
   </g>
   <g id="patch_18">
    <path d="M 84.914375 92.305714 
L 84.914375 7.2 
" style="fill:none;stroke:#262626;stroke-linecap:square;stroke-linejoin:miter;stroke-width:2.5;"/>
   </g>
   <g id="patch_19">
    <path d="M 84.914375 92.305714 
L 567.863804 92.305714 
" style="fill:none;stroke:#262626;stroke-linecap:square;stroke-linejoin:miter;stroke-width:2.5;"/>
   </g>
  </g>
  <g id="axes_3">
   <g id="patch_20">
    <path d="M 584.517232 602.94 
L 667.784375 602.94 
L 667.784375 109.326857 
L 584.517232 109.326857 
z
" style="fill:none;"/>
   </g>
   <g id="matplotlib.axis_5">
    <g id="xtick_13">
     <g id="text_18">
      <!-- 0 -->
      <g style="fill:#262626;" transform="translate(577.518482 635.156562)scale(0.22 -0.22)">
       <use xlink:href="#DejaVuSans-30"/>
      </g>
     </g>
    </g>
    <g id="xtick_14">
     <g id="text_19">
      <!-- 100 -->
      <g style="fill:#262626;" transform="translate(633.699779 635.156562)scale(0.22 -0.22)">
       <use xlink:href="#DejaVuSans-31"/>
       <use x="63.623047" xlink:href="#DejaVuSans-30"/>
       <use x="127.246094" xlink:href="#DejaVuSans-30"/>
      </g>
     </g>
    </g>
   </g>
   <g id="matplotlib.axis_6">
    <g id="ytick_8"/>
    <g id="ytick_9"/>
    <g id="ytick_10"/>
    <g id="ytick_11"/>
    <g id="ytick_12"/>
   </g>
   <g id="patch_21">
    <path clip-path="url(#pb1d3ff3503)" d="M 584.517232 580.503039 
L 585.21902 580.503039 
L 585.21902 565.029273 
L 584.517232 565.029273 
z
" style="fill:#96c69a;fill-opacity:0.5;stroke:#ffffff;stroke-linejoin:miter;stroke-width:1.547377;"/>
   </g>
   <g id="patch_22">
    <path clip-path="url(#pb1d3ff3503)" d="M 584.517232 565.029273 
L 586.622596 565.029273 
L 586.622596 549.555506 
L 584.517232 549.555506 
z
" style="fill:#96c69a;fill-opacity:0.5;stroke:#ffffff;stroke-linejoin:miter;stroke-width:1.547377;"/>
   </g>
   <g id="patch_23">
    <path clip-path="url(#pb1d3ff3503)" d="M 584.517232 549.555506 
L 589.429748 549.555506 
L 589.429748 534.08174 
L 584.517232 534.08174 
z
" style="fill:#96c69a;fill-opacity:0.5;stroke:#ffffff;stroke-linejoin:miter;stroke-width:1.547377;"/>
   </g>
   <g id="patch_24">
    <path clip-path="url(#pb1d3ff3503)" d="M 584.517232 534.08174 
L 589.429748 534.08174 
L 589.429748 518.607974 
L 584.517232 518.607974 
z
" style="fill:#96c69a;fill-opacity:0.5;stroke:#ffffff;stroke-linejoin:miter;stroke-width:1.547377;"/>
   </g>
   <g id="patch_25">
    <path clip-path="url(#pb1d3ff3503)" d="M 584.517232 518.607974 
L 597.149416 518.607974 
L 597.149416 503.134208 
L 584.517232 503.134208 
z
" style="fill:#96c69a;fill-opacity:0.5;stroke:#ffffff;stroke-linejoin:miter;stroke-width:1.547377;"/>
   </g>
   <g id="patch_26">
    <path clip-path="url(#pb1d3ff3503)" d="M 584.517232 503.134208 
L 607.676235 503.134208 
L 607.676235 487.660442 
L 584.517232 487.660442 
z
" style="fill:#96c69a;fill-opacity:0.5;stroke:#ffffff;stroke-linejoin:miter;stroke-width:1.547377;"/>
   </g>
   <g id="patch_27">
    <path clip-path="url(#pb1d3ff3503)" d="M 584.517232 487.660442 
L 626.62451 487.660442 
L 626.62451 472.186675 
L 584.517232 472.186675 
z
" style="fill:#96c69a;fill-opacity:0.5;stroke:#ffffff;stroke-linejoin:miter;stroke-width:1.547377;"/>
   </g>
   <g id="patch_28">
    <path clip-path="url(#pb1d3ff3503)" d="M 584.517232 472.186675 
L 642.063846 472.186675 
L 642.063846 456.712909 
L 584.517232 456.712909 
z
" style="fill:#96c69a;fill-opacity:0.5;stroke:#ffffff;stroke-linejoin:miter;stroke-width:1.547377;"/>
   </g>
   <g id="patch_29">
    <path clip-path="url(#pb1d3ff3503)" d="M 584.517232 456.712909 
L 653.994241 456.712909 
L 653.994241 441.239143 
L 584.517232 441.239143 
z
" style="fill:#96c69a;fill-opacity:0.5;stroke:#ffffff;stroke-linejoin:miter;stroke-width:1.547377;"/>
   </g>
   <g id="patch_30">
    <path clip-path="url(#pb1d3ff3503)" d="M 584.517232 441.239143 
L 648.379938 441.239143 
L 648.379938 425.765377 
L 584.517232 425.765377 
z
" style="fill:#96c69a;fill-opacity:0.5;stroke:#ffffff;stroke-linejoin:miter;stroke-width:1.547377;"/>
   </g>
   <g id="patch_31">
    <path clip-path="url(#pb1d3ff3503)" d="M 584.517232 425.765377 
L 663.819273 425.765377 
L 663.819273 410.29161 
L 584.517232 410.29161 
z
" style="fill:#96c69a;fill-opacity:0.5;stroke:#ffffff;stroke-linejoin:miter;stroke-width:1.547377;"/>
   </g>
   <g id="patch_32">
    <path clip-path="url(#pb1d3ff3503)" d="M 584.517232 410.29161 
L 649.783514 410.29161 
L 649.783514 394.817844 
L 584.517232 394.817844 
z
" style="fill:#96c69a;fill-opacity:0.5;stroke:#ffffff;stroke-linejoin:miter;stroke-width:1.547377;"/>
   </g>
   <g id="patch_33">
    <path clip-path="url(#pb1d3ff3503)" d="M 584.517232 394.817844 
L 656.801393 394.817844 
L 656.801393 379.344078 
L 584.517232 379.344078 
z
" style="fill:#96c69a;fill-opacity:0.5;stroke:#ffffff;stroke-linejoin:miter;stroke-width:1.547377;"/>
   </g>
   <g id="patch_34">
    <path clip-path="url(#pb1d3ff3503)" d="M 584.517232 379.344078 
L 641.362058 379.344078 
L 641.362058 363.870312 
L 584.517232 363.870312 
z
" style="fill:#96c69a;fill-opacity:0.5;stroke:#ffffff;stroke-linejoin:miter;stroke-width:1.547377;"/>
   </g>
   <g id="patch_35">
    <path clip-path="url(#pb1d3ff3503)" d="M 584.517232 363.870312 
L 622.413783 363.870312 
L 622.413783 348.396545 
L 584.517232 348.396545 
z
" style="fill:#96c69a;fill-opacity:0.5;stroke:#ffffff;stroke-linejoin:miter;stroke-width:1.547377;"/>
   </g>
   <g id="patch_36">
    <path clip-path="url(#pb1d3ff3503)" d="M 584.517232 348.396545 
L 618.904843 348.396545 
L 618.904843 332.922779 
L 584.517232 332.922779 
z
" style="fill:#96c69a;fill-opacity:0.5;stroke:#ffffff;stroke-linejoin:miter;stroke-width:1.547377;"/>
   </g>
   <g id="patch_37">
    <path clip-path="url(#pb1d3ff3503)" d="M 584.517232 332.922779 
L 607.676235 332.922779 
L 607.676235 317.449013 
L 584.517232 317.449013 
z
" style="fill:#96c69a;fill-opacity:0.5;stroke:#ffffff;stroke-linejoin:miter;stroke-width:1.547377;"/>
   </g>
   <g id="patch_38">
    <path clip-path="url(#pb1d3ff3503)" d="M 584.517232 317.449013 
L 600.658355 317.449013 
L 600.658355 301.975247 
L 584.517232 301.975247 
z
" style="fill:#96c69a;fill-opacity:0.5;stroke:#ffffff;stroke-linejoin:miter;stroke-width:1.547377;"/>
   </g>
   <g id="patch_39">
    <path clip-path="url(#pb1d3ff3503)" d="M 584.517232 301.975247 
L 599.25478 301.975247 
L 599.25478 286.501481 
L 584.517232 286.501481 
z
" style="fill:#96c69a;fill-opacity:0.5;stroke:#ffffff;stroke-linejoin:miter;stroke-width:1.547377;"/>
   </g>
   <g id="patch_40">
    <path clip-path="url(#pb1d3ff3503)" d="M 584.517232 286.501481 
L 590.833324 286.501481 
L 590.833324 271.027714 
L 584.517232 271.027714 
z
" style="fill:#96c69a;fill-opacity:0.5;stroke:#ffffff;stroke-linejoin:miter;stroke-width:1.547377;"/>
   </g>
   <g id="patch_41">
    <path clip-path="url(#pb1d3ff3503)" d="M 584.517232 271.027714 
L 590.833324 271.027714 
L 590.833324 255.553948 
L 584.517232 255.553948 
z
" style="fill:#96c69a;fill-opacity:0.5;stroke:#ffffff;stroke-linejoin:miter;stroke-width:1.547377;"/>
   </g>
   <g id="patch_42">
    <path clip-path="url(#pb1d3ff3503)" d="M 584.517232 255.553948 
L 588.026172 255.553948 
L 588.026172 240.080182 
L 584.517232 240.080182 
z
" style="fill:#96c69a;fill-opacity:0.5;stroke:#ffffff;stroke-linejoin:miter;stroke-width:1.547377;"/>
   </g>
   <g id="patch_43">
    <path clip-path="url(#pb1d3ff3503)" d="M 584.517232 240.080182 
L 586.622596 240.080182 
L 586.622596 224.606416 
L 584.517232 224.606416 
z
" style="fill:#96c69a;fill-opacity:0.5;stroke:#ffffff;stroke-linejoin:miter;stroke-width:1.547377;"/>
   </g>
   <g id="patch_44">
    <path clip-path="url(#pb1d3ff3503)" d="M 584.517232 224.606416 
L 585.920808 224.606416 
L 585.920808 209.132649 
L 584.517232 209.132649 
z
" style="fill:#96c69a;fill-opacity:0.5;stroke:#ffffff;stroke-linejoin:miter;stroke-width:1.547377;"/>
   </g>
   <g id="patch_45">
    <path clip-path="url(#pb1d3ff3503)" d="M 584.517232 209.132649 
L 584.517232 209.132649 
L 584.517232 193.658883 
L 584.517232 193.658883 
z
" style="fill:#96c69a;fill-opacity:0.5;stroke:#ffffff;stroke-linejoin:miter;stroke-width:1.547377;"/>
   </g>
   <g id="patch_46">
    <path clip-path="url(#pb1d3ff3503)" d="M 584.517232 193.658883 
L 584.517232 193.658883 
L 584.517232 178.185117 
L 584.517232 178.185117 
z
" style="fill:#96c69a;fill-opacity:0.5;stroke:#ffffff;stroke-linejoin:miter;stroke-width:1.547377;"/>
   </g>
   <g id="patch_47">
    <path clip-path="url(#pb1d3ff3503)" d="M 584.517232 178.185117 
L 584.517232 178.185117 
L 584.517232 162.711351 
L 584.517232 162.711351 
z
" style="fill:#96c69a;fill-opacity:0.5;stroke:#ffffff;stroke-linejoin:miter;stroke-width:1.547377;"/>
   </g>
   <g id="patch_48">
    <path clip-path="url(#pb1d3ff3503)" d="M 584.517232 162.711351 
L 584.517232 162.711351 
L 584.517232 147.237584 
L 584.517232 147.237584 
z
" style="fill:#96c69a;fill-opacity:0.5;stroke:#ffffff;stroke-linejoin:miter;stroke-width:1.547377;"/>
   </g>
   <g id="patch_49">
    <path clip-path="url(#pb1d3ff3503)" d="M 584.517232 147.237584 
L 585.21902 147.237584 
L 585.21902 131.763818 
L 584.517232 131.763818 
z
" style="fill:#96c69a;fill-opacity:0.5;stroke:#ffffff;stroke-linejoin:miter;stroke-width:1.547377;"/>
   </g>
   <g id="patch_50">
    <path d="M 584.517232 602.94 
L 584.517232 109.326857 
" style="fill:none;stroke:#262626;stroke-linecap:square;stroke-linejoin:miter;stroke-width:2.5;"/>
   </g>
   <g id="patch_51">
    <path d="M 584.517232 602.94 
L 667.784375 602.94 
" style="fill:none;stroke:#262626;stroke-linecap:square;stroke-linejoin:miter;stroke-width:2.5;"/>
   </g>
  </g>
 </g>
 <defs>
  <clipPath id="paf42a803f4">
   <rect height="493.613143" width="482.949429" x="84.914375" y="109.326857"/>
  </clipPath>
  <clipPath id="pf9fb115930">
   <rect height="85.105714" width="482.949429" x="84.914375" y="7.2"/>
  </clipPath>
  <clipPath id="pb1d3ff3503">
   <rect height="493.613143" width="83.267143" x="584.517232" y="109.326857"/>
  </clipPath>
 </defs>
</svg>
