<?xml version="1.0" encoding="utf-8" standalone="no"?>
<!DOCTYPE svg PUBLIC "-//W3C//DTD SVG 1.1//EN"
  "http://www.w3.org/Graphics/SVG/1.1/DTD/svg11.dtd">
<svg height="674.159375pt" version="1.1" viewBox="0 0 688.981875 674.159375" width="688.981875pt" xmlns="http://www.w3.org/2000/svg" xmlns:xlink="http://www.w3.org/1999/xlink">
 <metadata>
  <rdf:RDF xmlns:cc="http://creativecommons.org/ns#" xmlns:dc="http://purl.org/dc/elements/1.1/" xmlns:rdf="http://www.w3.org/1999/02/22-rdf-syntax-ns#">
   <cc:Work>
    <dc:type rdf:resource="http://purl.org/dc/dcmitype/StillImage"/>
    <dc:date>2021-07-24T14:58:28.129973</dc:date>
    <dc:format>image/svg+xml</dc:format>
    <dc:creator>
     <cc:Agent>
      <dc:title>Matplotlib v3.4.2, https://matplotlib.org/</dc:title>
     </cc:Agent>
    </dc:creator>
   </cc:Work>
  </rdf:RDF>
 </metadata>
 <defs>
  <style type="text/css">*{stroke-linecap:butt;stroke-linejoin:round;}</style>
 </defs>
 <g id="figure_1">
  <g id="patch_1">
   <path d="M 0 674.159375 
L 688.981875 674.159375 
L 688.981875 0 
L 0 0 
z
" style="fill:#ffffff;"/>
  </g>
  <g id="axes_1">
   <g id="patch_2">
    <path d="M 98.911875 602.94 
L 581.861304 602.94 
L 581.861304 109.326857 
L 98.911875 109.326857 
z
" style="fill:none;"/>
   </g>
   <g id="matplotlib.axis_1">
    <g id="xtick_1">
     <g id="text_1">
      <!-- 0 -->
      <g style="fill:#262626;" transform="translate(113.645739 635.156562)scale(0.22 -0.22)">
       <defs>
        <path d="M 2034 4250 
Q 1547 4250 1301 3770 
Q 1056 3291 1056 2328 
Q 1056 1369 1301 889 
Q 1547 409 2034 409 
Q 2525 409 2770 889 
Q 3016 1369 3016 2328 
Q 3016 3291 2770 3770 
Q 2525 4250 2034 4250 
z
M 2034 4750 
Q 2819 4750 3233 4129 
Q 3647 3509 3647 2328 
Q 3647 1150 3233 529 
Q 2819 -91 2034 -91 
Q 1250 -91 836 529 
Q 422 1150 422 2328 
Q 422 3509 836 4129 
Q 1250 4750 2034 4750 
z
" id="DejaVuSans-30" transform="scale(0.015625)"/>
       </defs>
       <use xlink:href="#DejaVuSans-30"/>
      </g>
     </g>
    </g>
    <g id="xtick_2">
     <g id="text_2">
      <!-- 20000 -->
      <g style="fill:#262626;" transform="translate(173.503653 635.156562)scale(0.22 -0.22)">
       <defs>
        <path d="M 1228 531 
L 3431 531 
L 3431 0 
L 469 0 
L 469 531 
Q 828 903 1448 1529 
Q 2069 2156 2228 2338 
Q 2531 2678 2651 2914 
Q 2772 3150 2772 3378 
Q 2772 3750 2511 3984 
Q 2250 4219 1831 4219 
Q 1534 4219 1204 4116 
Q 875 4013 500 3803 
L 500 4441 
Q 881 4594 1212 4672 
Q 1544 4750 1819 4750 
Q 2544 4750 2975 4387 
Q 3406 4025 3406 3419 
Q 3406 3131 3298 2873 
Q 3191 2616 2906 2266 
Q 2828 2175 2409 1742 
Q 1991 1309 1228 531 
z
" id="DejaVuSans-32" transform="scale(0.015625)"/>
       </defs>
       <use xlink:href="#DejaVuSans-32"/>
       <use x="63.623047" xlink:href="#DejaVuSans-30"/>
       <use x="127.246094" xlink:href="#DejaVuSans-30"/>
       <use x="190.869141" xlink:href="#DejaVuSans-30"/>
       <use x="254.492188" xlink:href="#DejaVuSans-30"/>
      </g>
     </g>
    </g>
    <g id="xtick_3">
     <g id="text_3">
      <!-- 40000 -->
      <g style="fill:#262626;" transform="translate(261.356566 635.156562)scale(0.22 -0.22)">
       <defs>
        <path d="M 2419 4116 
L 825 1625 
L 2419 1625 
L 2419 4116 
z
M 2253 4666 
L 3047 4666 
L 3047 1625 
L 3713 1625 
L 3713 1100 
L 3047 1100 
L 3047 0 
L 2419 0 
L 2419 1100 
L 313 1100 
L 313 1709 
L 2253 4666 
z
" id="DejaVuSans-34" transform="scale(0.015625)"/>
       </defs>
       <use xlink:href="#DejaVuSans-34"/>
       <use x="63.623047" xlink:href="#DejaVuSans-30"/>
       <use x="127.246094" xlink:href="#DejaVuSans-30"/>
       <use x="190.869141" xlink:href="#DejaVuSans-30"/>
       <use x="254.492188" xlink:href="#DejaVuSans-30"/>
      </g>
     </g>
    </g>
    <g id="xtick_4">
     <g id="text_4">
      <!-- 60000 -->
      <g style="fill:#262626;" transform="translate(349.20948 635.156562)scale(0.22 -0.22)">
       <defs>
        <path d="M 2113 2584 
Q 1688 2584 1439 2293 
Q 1191 2003 1191 1497 
Q 1191 994 1439 701 
Q 1688 409 2113 409 
Q 2538 409 2786 701 
Q 3034 994 3034 1497 
Q 3034 2003 2786 2293 
Q 2538 2584 2113 2584 
z
M 3366 4563 
L 3366 3988 
Q 3128 4100 2886 4159 
Q 2644 4219 2406 4219 
Q 1781 4219 1451 3797 
Q 1122 3375 1075 2522 
Q 1259 2794 1537 2939 
Q 1816 3084 2150 3084 
Q 2853 3084 3261 2657 
Q 3669 2231 3669 1497 
Q 3669 778 3244 343 
Q 2819 -91 2113 -91 
Q 1303 -91 875 529 
Q 447 1150 447 2328 
Q 447 3434 972 4092 
Q 1497 4750 2381 4750 
Q 2619 4750 2861 4703 
Q 3103 4656 3366 4563 
z
" id="DejaVuSans-36" transform="scale(0.015625)"/>
       </defs>
       <use xlink:href="#DejaVuSans-36"/>
       <use x="63.623047" xlink:href="#DejaVuSans-30"/>
       <use x="127.246094" xlink:href="#DejaVuSans-30"/>
       <use x="190.869141" xlink:href="#DejaVuSans-30"/>
       <use x="254.492188" xlink:href="#DejaVuSans-30"/>
      </g>
     </g>
    </g>
    <g id="xtick_5">
     <g id="text_5">
      <!-- 80000 -->
      <g style="fill:#262626;" transform="translate(437.062393 635.156562)scale(0.22 -0.22)">
       <defs>
        <path d="M 2034 2216 
Q 1584 2216 1326 1975 
Q 1069 1734 1069 1313 
Q 1069 891 1326 650 
Q 1584 409 2034 409 
Q 2484 409 2743 651 
Q 3003 894 3003 1313 
Q 3003 1734 2745 1975 
Q 2488 2216 2034 2216 
z
M 1403 2484 
Q 997 2584 770 2862 
Q 544 3141 544 3541 
Q 544 4100 942 4425 
Q 1341 4750 2034 4750 
Q 2731 4750 3128 4425 
Q 3525 4100 3525 3541 
Q 3525 3141 3298 2862 
Q 3072 2584 2669 2484 
Q 3125 2378 3379 2068 
Q 3634 1759 3634 1313 
Q 3634 634 3220 271 
Q 2806 -91 2034 -91 
Q 1263 -91 848 271 
Q 434 634 434 1313 
Q 434 1759 690 2068 
Q 947 2378 1403 2484 
z
M 1172 3481 
Q 1172 3119 1398 2916 
Q 1625 2713 2034 2713 
Q 2441 2713 2670 2916 
Q 2900 3119 2900 3481 
Q 2900 3844 2670 4047 
Q 2441 4250 2034 4250 
Q 1625 4250 1398 4047 
Q 1172 3844 1172 3481 
z
" id="DejaVuSans-38" transform="scale(0.015625)"/>
       </defs>
       <use xlink:href="#DejaVuSans-38"/>
       <use x="63.623047" xlink:href="#DejaVuSans-30"/>
       <use x="127.246094" xlink:href="#DejaVuSans-30"/>
       <use x="190.869141" xlink:href="#DejaVuSans-30"/>
       <use x="254.492188" xlink:href="#DejaVuSans-30"/>
      </g>
     </g>
    </g>
    <g id="xtick_6">
     <g id="text_6">
      <!-- 100000 -->
      <g style="fill:#262626;" transform="translate(517.916557 635.156562)scale(0.22 -0.22)">
       <defs>
        <path d="M 794 531 
L 1825 531 
L 1825 4091 
L 703 3866 
L 703 4441 
L 1819 4666 
L 2450 4666 
L 2450 531 
L 3481 531 
L 3481 0 
L 794 0 
L 794 531 
z
" id="DejaVuSans-31" transform="scale(0.015625)"/>
       </defs>
       <use xlink:href="#DejaVuSans-31"/>
       <use x="63.623047" xlink:href="#DejaVuSans-30"/>
       <use x="127.246094" xlink:href="#DejaVuSans-30"/>
       <use x="190.869141" xlink:href="#DejaVuSans-30"/>
       <use x="254.492188" xlink:href="#DejaVuSans-30"/>
       <use x="318.115234" xlink:href="#DejaVuSans-30"/>
      </g>
     </g>
    </g>
    <g id="text_7">
     <!-- MDTU -->
     <g style="fill:#262626;" transform="translate(304.680964 661.968125)scale(0.24 -0.24)">
      <defs>
       <path d="M 628 4666 
L 1569 4666 
L 2759 1491 
L 3956 4666 
L 4897 4666 
L 4897 0 
L 4281 0 
L 4281 4097 
L 3078 897 
L 2444 897 
L 1241 4097 
L 1241 0 
L 628 0 
L 628 4666 
z
" id="DejaVuSans-4d" transform="scale(0.015625)"/>
       <path d="M 1259 4147 
L 1259 519 
L 2022 519 
Q 2988 519 3436 956 
Q 3884 1394 3884 2338 
Q 3884 3275 3436 3711 
Q 2988 4147 2022 4147 
L 1259 4147 
z
M 628 4666 
L 1925 4666 
Q 3281 4666 3915 4102 
Q 4550 3538 4550 2338 
Q 4550 1131 3912 565 
Q 3275 0 1925 0 
L 628 0 
L 628 4666 
z
" id="DejaVuSans-44" transform="scale(0.015625)"/>
       <path d="M -19 4666 
L 3928 4666 
L 3928 4134 
L 2272 4134 
L 2272 0 
L 1638 0 
L 1638 4134 
L -19 4134 
L -19 4666 
z
" id="DejaVuSans-54" transform="scale(0.015625)"/>
       <path d="M 556 4666 
L 1191 4666 
L 1191 1831 
Q 1191 1081 1462 751 
Q 1734 422 2344 422 
Q 2950 422 3222 751 
Q 3494 1081 3494 1831 
L 3494 4666 
L 4128 4666 
L 4128 1753 
Q 4128 841 3676 375 
Q 3225 -91 2344 -91 
Q 1459 -91 1007 375 
Q 556 841 556 1753 
L 556 4666 
z
" id="DejaVuSans-55" transform="scale(0.015625)"/>
      </defs>
      <use xlink:href="#DejaVuSans-4d"/>
      <use x="86.279297" xlink:href="#DejaVuSans-44"/>
      <use x="163.28125" xlink:href="#DejaVuSans-54"/>
      <use x="224.365234" xlink:href="#DejaVuSans-55"/>
     </g>
    </g>
   </g>
   <g id="matplotlib.axis_2">
    <g id="ytick_1">
     <g id="text_8">
      <!-- 0.50 -->
      <g style="fill:#262626;" transform="translate(34.4275 583.382494)scale(0.22 -0.22)">
       <defs>
        <path d="M 684 794 
L 1344 794 
L 1344 0 
L 684 0 
L 684 794 
z
" id="DejaVuSans-2e" transform="scale(0.015625)"/>
        <path d="M 691 4666 
L 3169 4666 
L 3169 4134 
L 1269 4134 
L 1269 2991 
Q 1406 3038 1543 3061 
Q 1681 3084 1819 3084 
Q 2600 3084 3056 2656 
Q 3513 2228 3513 1497 
Q 3513 744 3044 326 
Q 2575 -91 1722 -91 
Q 1428 -91 1123 -41 
Q 819 9 494 109 
L 494 744 
Q 775 591 1075 516 
Q 1375 441 1709 441 
Q 2250 441 2565 725 
Q 2881 1009 2881 1497 
Q 2881 1984 2565 2268 
Q 2250 2553 1709 2553 
Q 1456 2553 1204 2497 
Q 953 2441 691 2322 
L 691 4666 
z
" id="DejaVuSans-35" transform="scale(0.015625)"/>
       </defs>
       <use xlink:href="#DejaVuSans-30"/>
       <use x="63.623047" xlink:href="#DejaVuSans-2e"/>
       <use x="95.410156" xlink:href="#DejaVuSans-35"/>
       <use x="159.033203" xlink:href="#DejaVuSans-30"/>
      </g>
     </g>
    </g>
    <g id="ytick_2">
     <g id="text_9">
      <!-- 0.75 -->
      <g style="fill:#262626;" transform="translate(34.4275 523.432747)scale(0.22 -0.22)">
       <defs>
        <path d="M 525 4666 
L 3525 4666 
L 3525 4397 
L 1831 0 
L 1172 0 
L 2766 4134 
L 525 4134 
L 525 4666 
z
" id="DejaVuSans-37" transform="scale(0.015625)"/>
       </defs>
       <use xlink:href="#DejaVuSans-30"/>
       <use x="63.623047" xlink:href="#DejaVuSans-2e"/>
       <use x="95.410156" xlink:href="#DejaVuSans-37"/>
       <use x="159.033203" xlink:href="#DejaVuSans-35"/>
      </g>
     </g>
    </g>
    <g id="ytick_3">
     <g id="text_10">
      <!-- 1.00 -->
      <g style="fill:#262626;" transform="translate(34.4275 463.483)scale(0.22 -0.22)">
       <use xlink:href="#DejaVuSans-31"/>
       <use x="63.623047" xlink:href="#DejaVuSans-2e"/>
       <use x="95.410156" xlink:href="#DejaVuSans-30"/>
       <use x="159.033203" xlink:href="#DejaVuSans-30"/>
      </g>
     </g>
    </g>
    <g id="ytick_4">
     <g id="text_11">
      <!-- 1.25 -->
      <g style="fill:#262626;" transform="translate(34.4275 403.533253)scale(0.22 -0.22)">
       <use xlink:href="#DejaVuSans-31"/>
       <use x="63.623047" xlink:href="#DejaVuSans-2e"/>
       <use x="95.410156" xlink:href="#DejaVuSans-32"/>
       <use x="159.033203" xlink:href="#DejaVuSans-35"/>
      </g>
     </g>
    </g>
    <g id="ytick_5">
     <g id="text_12">
      <!-- 1.50 -->
      <g style="fill:#262626;" transform="translate(34.4275 343.583506)scale(0.22 -0.22)">
       <use xlink:href="#DejaVuSans-31"/>
       <use x="63.623047" xlink:href="#DejaVuSans-2e"/>
       <use x="95.410156" xlink:href="#DejaVuSans-35"/>
       <use x="159.033203" xlink:href="#DejaVuSans-30"/>
      </g>
     </g>
    </g>
    <g id="ytick_6">
     <g id="text_13">
      <!-- 1.75 -->
      <g style="fill:#262626;" transform="translate(34.4275 283.633759)scale(0.22 -0.22)">
       <use xlink:href="#DejaVuSans-31"/>
       <use x="63.623047" xlink:href="#DejaVuSans-2e"/>
       <use x="95.410156" xlink:href="#DejaVuSans-37"/>
       <use x="159.033203" xlink:href="#DejaVuSans-35"/>
      </g>
     </g>
    </g>
    <g id="ytick_7">
     <g id="text_14">
      <!-- 2.00 -->
      <g style="fill:#262626;" transform="translate(34.4275 223.684011)scale(0.22 -0.22)">
       <use xlink:href="#DejaVuSans-32"/>
       <use x="63.623047" xlink:href="#DejaVuSans-2e"/>
       <use x="95.410156" xlink:href="#DejaVuSans-30"/>
       <use x="159.033203" xlink:href="#DejaVuSans-30"/>
      </g>
     </g>
    </g>
    <g id="ytick_8">
     <g id="text_15">
      <!-- 2.25 -->
      <g style="fill:#262626;" transform="translate(34.4275 163.734264)scale(0.22 -0.22)">
       <use xlink:href="#DejaVuSans-32"/>
       <use x="63.623047" xlink:href="#DejaVuSans-2e"/>
       <use x="95.410156" xlink:href="#DejaVuSans-32"/>
       <use x="159.033203" xlink:href="#DejaVuSans-35"/>
      </g>
     </g>
    </g>
    <g id="text_16">
     <!-- $E$ -->
     <g style="fill:#262626;" transform="translate(25.43625 363.813429)rotate(-90)scale(0.24 -0.24)">
      <defs>
       <path d="M 1081 4666 
L 4031 4666 
L 3928 4134 
L 1606 4134 
L 1338 2753 
L 3566 2753 
L 3463 2222 
L 1234 2222 
L 909 531 
L 3284 531 
L 3181 0 
L 172 0 
L 1081 4666 
z
" id="DejaVuSans-Oblique-45" transform="scale(0.015625)"/>
      </defs>
      <use transform="translate(0 0.09375)" xlink:href="#DejaVuSans-Oblique-45"/>
     </g>
    </g>
   </g>
   <g id="line2d_1">
    <path clip-path="url(#pd3636879ee)" d="M 120.864122 399.600625 
L 121.083754 555.72436 
L 121.303386 291.769505 
L 121.523019 342.642937 
L 121.742651 526.136997 
L 121.962283 396.611018 
L 122.181915 513.133959 
L 122.401548 492.709014 
L 122.62118 215.585953 
L 123.060445 463.396732 
L 123.280077 401.378395 
L 123.499709 426.687262 
L 123.719341 330.251421 
L 123.938974 300.674404 
L 124.158606 430.051599 
L 124.378238 387.803293 
L 124.597871 534.86226 
L 124.817503 380.213281 
L 125.037135 423.514187 
L 125.256767 413.70675 
L 125.4764 278.011402 
L 125.696032 437.028795 
L 125.915664 507.217127 
L 126.135297 410.39388 
L 126.354929 487.579814 
L 126.574561 454.663188 
L 126.794193 331.29637 
L 127.013826 336.365948 
L 127.233458 484.130048 
L 127.45309 499.745504 
L 127.672723 388.773308 
L 127.892355 462.860486 
L 128.111987 428.53156 
L 128.331619 527.376627 
L 128.551252 491.476091 
L 128.770884 425.49446 
L 128.990516 406.768912 
L 129.210149 418.869401 
L 129.429781 409.961419 
L 129.649413 396.188287 
L 129.869045 458.427085 
L 130.088678 439.82189 
L 130.30831 534.118337 
L 130.527942 403.781265 
L 130.747575 412.4975 
L 131.186839 438.012367 
L 131.406471 361.288659 
L 131.626104 408.563441 
L 131.845736 429.842628 
L 132.065368 469.203131 
L 132.285001 441.245621 
L 132.504633 452.256508 
L 132.724265 396.732206 
L 132.943897 502.39075 
L 133.16353 484.569288 
L 133.383162 359.696073 
L 133.602794 338.429391 
L 133.822426 464.894428 
L 134.042059 368.749308 
L 134.261691 481.65149 
L 134.481323 437.97929 
L 134.700956 530.664141 
L 134.920588 419.074331 
L 135.14022 448.871333 
L 135.359852 457.689173 
L 135.579485 352.933978 
L 135.799117 569.50851 
L 136.018749 478.953089 
L 136.238382 255.9196 
L 136.458014 507.104546 
L 136.677646 291.773324 
L 136.897278 500.531186 
L 137.116911 473.449185 
L 137.336543 362.173918 
L 137.556175 485.585303 
L 137.775808 482.903543 
L 137.99544 400.8831 
L 138.215072 418.83815 
L 138.434704 479.861232 
L 138.654337 446.846482 
L 138.873969 382.429633 
L 139.093601 414.529186 
L 139.313234 371.267015 
L 139.532866 368.430764 
L 139.752498 496.632582 
L 139.97213 483.402997 
L 140.191763 442.627496 
L 140.411395 378.342983 
L 140.631027 393.905387 
L 141.070292 441.701956 
L 141.509556 463.64634 
L 141.729189 504.253336 
L 141.948821 460.214311 
L 142.168453 373.58873 
L 142.388086 494.650589 
L 142.607718 418.891327 
L 143.046982 390.956791 
L 143.266615 513.666645 
L 143.486247 428.585293 
L 143.705879 437.727026 
L 143.925512 377.483739 
L 144.145144 469.383314 
L 144.364776 269.93101 
L 144.584408 468.092398 
L 144.804041 536.003464 
L 145.243305 423.528106 
L 145.462938 351.238868 
L 145.68257 417.606853 
L 145.902202 404.998205 
L 146.121834 414.716451 
L 146.341467 471.26165 
L 146.561099 490.908905 
L 146.780731 547.696492 
L 147.000364 458.488595 
L 147.219996 483.643116 
L 147.439628 362.221199 
L 147.65926 473.24862 
L 147.878893 407.208151 
L 148.098525 534.015216 
L 148.537789 380.169913 
L 148.757422 493.64396 
L 148.977054 291.171009 
L 149.196686 372.573258 
L 149.416319 395.103925 
L 149.635951 393.294941 
L 149.855583 438.717827 
L 150.075215 507.966067 
L 150.294848 403.386503 
L 150.51448 501.089249 
L 150.734112 498.429031 
L 150.953745 401.547516 
L 151.173377 515.090391 
L 151.393009 469.002499 
L 151.612641 334.889243 
L 151.832274 457.374014 
L 152.051906 494.066385 
L 152.271538 390.63462 
L 152.491171 418.18366 
L 152.710803 337.331195 
L 153.150067 522.300862 
L 153.3697 438.124074 
L 153.589332 454.770858 
L 153.808964 483.723154 
L 154.028597 460.169553 
L 154.248229 348.836341 
L 154.467861 460.95001 
L 154.687493 487.987317 
L 154.907126 281.340788 
L 155.126758 484.47606 
L 155.34639 454.081042 
L 155.566023 372.461662 
L 155.785655 463.983353 
L 156.005287 309.935888 
L 156.224919 380.556751 
L 156.444552 508.339299 
L 156.664184 427.945015 
L 156.883816 500.547908 
L 157.103449 497.472571 
L 157.542713 308.941639 
L 157.762345 487.094096 
L 157.981978 410.139185 
L 158.421242 458.432466 
L 158.640875 443.113131 
L 158.860507 198.335736 
L 159.080139 490.492389 
L 159.299771 447.097323 
L 159.519404 426.741784 
L 159.958668 528.935632 
L 160.178301 431.265082 
L 160.397933 486.245297 
L 160.617565 444.4596 
L 160.837197 452.739533 
L 161.05683 501.317062 
L 161.496094 296.187251 
L 161.715727 406.83568 
L 161.935359 316.381399 
L 162.374623 473.733542 
L 162.594256 498.521142 
L 162.813888 418.372111 
L 163.03352 440.355146 
L 163.253153 371.168367 
L 163.472785 357.56896 
L 163.692417 436.140131 
L 163.912049 344.25723 
L 164.131682 431.81068 
L 164.351314 435.561251 
L 164.570946 516.737905 
L 164.790578 494.44586 
L 165.010211 417.355698 
L 165.229843 299.332747 
L 165.449475 459.880755 
L 165.669108 471.946899 
L 165.88874 382.994071 
L 166.108372 508.201077 
L 166.547637 354.71246 
L 166.767269 461.37825 
L 166.986901 481.573239 
L 167.206534 403.133999 
L 167.426166 554.50402 
L 167.645798 430.134797 
L 167.86543 388.523301 
L 168.085063 379.19339 
L 168.524327 459.559454 
L 168.74396 413.538124 
L 168.963592 448.595303 
L 169.183224 553.382013 
L 169.402856 446.728639 
L 169.622489 425.156316 
L 169.842121 446.410632 
L 170.061753 490.256522 
L 170.281386 331.42245 
L 170.501018 519.639299 
L 170.72065 451.460369 
L 170.940282 492.062576 
L 171.379547 378.691064 
L 171.599179 536.212606 
L 171.818812 482.903542 
L 172.038444 495.299554 
L 172.477708 411.482644 
L 172.697341 422.924891 
L 172.916973 509.457752 
L 173.136605 464.573776 
L 173.356238 470.738109 
L 173.57587 517.591142 
L 173.795502 499.257892 
L 174.015134 383.385018 
L 174.234767 498.532601 
L 174.454399 483.117508 
L 174.674031 410.64332 
L 174.893664 487.677717 
L 175.113296 410.951099 
L 175.332928 536.402916 
L 175.55256 422.300268 
L 175.991825 507.73318 
L 176.211457 313.178598 
L 176.43109 450.78397 
L 176.650722 402.341123 
L 176.870354 474.328068 
L 177.089986 378.814141 
L 177.309619 461.730982 
L 177.529251 425.984045 
L 177.748883 307.587421 
L 177.968516 375.746465 
L 178.188148 377.994343 
L 178.40778 367.08674 
L 178.627412 419.588607 
L 178.847045 443.180318 
L 179.286309 374.551887 
L 179.505941 495.953423 
L 179.725574 402.638064 
L 179.945206 477.150137 
L 180.164838 422.623065 
L 180.384471 322.807441 
L 180.604103 427.549509 
L 180.823735 400.276412 
L 181.263 372.328151 
L 181.482632 278.620102 
L 181.702264 442.899125 
L 181.921897 440.867232 
L 182.141529 532.2519 
L 182.361161 441.295931 
L 182.580793 477.40842 
L 182.800426 487.723279 
L 183.020058 389.300314 
L 183.459323 495.997656 
L 183.678955 495.027301 
L 183.898587 355.634255 
L 184.118219 376.031254 
L 184.337852 354.308206 
L 184.777116 269.808775 
L 185.216381 517.524402 
L 185.436013 348.838049 
L 185.655645 489.089761 
L 185.875278 380.660945 
L 186.09491 389.267426 
L 186.314542 469.300329 
L 186.534175 301.291764 
L 186.753807 516.988593 
L 186.973439 341.877481 
L 187.193071 400.181891 
L 187.412704 269.427389 
L 187.632336 447.965635 
L 187.851968 302.39501 
L 188.071601 492.40792 
L 188.291233 309.599893 
L 188.510865 401.830025 
L 188.730497 402.062907 
L 188.95013 480.805829 
L 189.169762 477.444092 
L 189.389394 387.63691 
L 189.609027 408.252606 
L 189.828659 409.031102 
L 190.048291 372.427889 
L 190.267923 475.02804 
L 190.487556 470.916392 
L 190.707188 505.128103 
L 191.146453 449.074142 
L 191.366085 471.381336 
L 191.585717 410.139155 
L 192.024982 520.80845 
L 192.464246 348.580528 
L 192.683879 385.107795 
L 192.903511 459.072071 
L 193.123143 467.789307 
L 193.342775 522.727167 
L 193.562408 396.694281 
L 193.78204 378.432607 
L 194.001672 442.611691 
L 194.221305 465.340732 
L 194.440937 387.778941 
L 194.660569 388.809835 
L 194.880201 377.722659 
L 195.099834 468.623664 
L 195.319466 408.164295 
L 195.539098 302.895404 
L 195.75873 420.251753 
L 195.978363 434.466915 
L 196.197995 488.220029 
L 196.417627 409.550487 
L 196.63726 397.027291 
L 196.856892 431.579066 
L 197.076524 499.557392 
L 197.296156 507.47111 
L 197.515789 408.330061 
L 197.735421 450.843091 
L 197.955053 399.930902 
L 198.174686 398.429758 
L 198.394318 360.448734 
L 198.61395 412.276437 
L 198.833582 347.875177 
L 199.053215 460.646506 
L 199.272847 435.358306 
L 199.492479 532.925551 
L 199.712112 467.824116 
L 199.931744 510.984328 
L 200.151376 353.586858 
L 200.371008 498.846064 
L 200.590641 534.715396 
L 200.810273 411.627686 
L 201.46917 447.394439 
L 201.688802 475.82075 
L 201.908434 430.918005 
L 202.128067 417.333071 
L 202.347699 442.755952 
L 202.567331 453.359579 
L 202.786964 561.407858 
L 203.006596 533.611735 
L 203.226228 300.735939 
L 203.44586 499.989803 
L 203.665493 309.461512 
L 204.32439 490.380277 
L 204.544022 479.50323 
L 204.763654 543.204036 
L 204.983286 460.832499 
L 205.202919 425.664124 
L 205.422551 454.027864 
L 205.642183 387.720006 
L 205.861816 546.625799 
L 206.081448 340.496603 
L 206.30108 463.720968 
L 206.520712 432.015096 
L 206.740345 476.517685 
L 206.959977 441.71645 
L 207.179609 346.461355 
L 207.399242 552.77578 
L 207.618874 369.762961 
L 207.838506 383.504461 
L 208.058138 491.097123 
L 208.497403 309.603299 
L 208.936668 527.874414 
L 209.1563 489.642798 
L 209.375932 479.604874 
L 209.595564 483.091776 
L 209.815197 459.701398 
L 210.034829 207.630884 
L 210.254461 410.462167 
L 210.474093 350.686715 
L 210.693726 385.554837 
L 210.913358 515.150481 
L 211.13299 507.890264 
L 211.352623 496.375466 
L 211.572255 466.022839 
L 211.791887 482.657764 
L 212.011519 410.756411 
L 212.231152 499.642472 
L 212.450784 448.502889 
L 212.670416 424.263906 
L 212.890049 426.683293 
L 213.329313 360.153339 
L 213.548945 450.953582 
L 213.768578 450.729635 
L 213.98821 506.223461 
L 214.207842 406.563409 
L 214.427475 413.218458 
L 214.647107 276.34693 
L 214.866739 425.581034 
L 215.086371 298.136487 
L 215.745268 504.611329 
L 215.964901 325.00753 
L 216.184533 395.46937 
L 216.404165 526.643246 
L 216.84343 448.158191 
L 217.063062 501.116243 
L 217.282694 482.10559 
L 217.502327 485.247044 
L 217.721959 394.674686 
L 217.941591 461.913998 
L 218.161223 427.140731 
L 218.380856 350.545022 
L 218.600488 447.732409 
L 218.82012 461.355215 
L 219.039753 460.961113 
L 219.259385 363.12468 
L 219.479017 464.828945 
L 219.698649 399.240299 
L 219.918282 535.293095 
L 220.137914 461.715251 
L 220.357546 449.256417 
L 220.577179 456.928379 
L 220.796811 434.066556 
L 221.016443 432.757825 
L 221.236075 440.942607 
L 221.455708 502.331861 
L 221.67534 450.437979 
L 221.894972 498.354327 
L 222.114605 453.068265 
L 222.334237 231.726435 
L 222.553869 438.209882 
L 222.773501 391.933707 
L 222.993134 502.988249 
L 223.212766 367.61708 
L 223.432398 407.686543 
L 223.652031 406.731472 
L 223.871663 399.484105 
L 224.091295 524.088717 
L 224.53056 347.56327 
L 224.750192 403.235639 
L 224.969824 510.389327 
L 225.189456 424.839575 
L 225.409089 459.783631 
L 225.628721 397.619701 
L 225.848353 504.004694 
L 226.067986 490.025292 
L 226.287618 535.31646 
L 226.50725 457.079077 
L 226.726882 478.792603 
L 227.166147 382.250594 
L 227.385779 374.538811 
L 227.605412 373.136584 
L 227.825044 441.742866 
L 228.044676 453.396 
L 228.264308 169.516833 
L 228.483941 167.206032 
L 228.703573 441.648402 
L 228.923205 493.634267 
L 229.142838 506.363761 
L 229.36247 532.202206 
L 229.582102 477.814827 
L 229.801734 504.588363 
L 230.021367 494.062035 
L 230.240999 210.98127 
L 230.460631 245.523616 
L 230.680264 388.089032 
L 230.899896 309.51906 
L 231.119528 515.439476 
L 231.33916 363.56083 
L 231.558793 442.511029 
L 231.778425 348.7004 
L 231.998057 386.153416 
L 232.21769 450.920361 
L 232.437322 475.178005 
L 232.656954 470.005689 
L 232.876586 427.693156 
L 233.315851 511.302875 
L 233.535483 340.757765 
L 233.755116 449.723169 
L 233.974748 455.885381 
L 234.19438 449.364259 
L 234.414012 348.563722 
L 234.633645 546.302942 
L 234.853277 426.648184 
L 235.072909 535.402457 
L 235.512174 440.734947 
L 235.731806 536.316282 
L 235.951438 472.028174 
L 236.171071 371.543506 
L 236.610335 494.619714 
L 236.829968 131.763818 
L 237.0496 547.884788 
L 237.269232 532.861001 
L 237.488864 356.761004 
L 237.708497 505.622434 
L 237.928129 336.390713 
L 238.147761 568.385342 
L 238.367394 524.926624 
L 238.587026 400.043878 
L 238.806658 438.787096 
L 239.02629 437.533546 
L 239.245923 463.628163 
L 239.465555 512.118905 
L 239.685187 371.918166 
L 239.90482 474.776121 
L 240.124452 435.570021 
L 240.344084 476.793051 
L 240.783349 429.081756 
L 241.222613 461.907758 
L 241.442245 416.757118 
L 241.88151 530.87132 
L 242.101142 460.310318 
L 242.320775 221.740913 
L 242.540407 406.998511 
L 242.760039 408.807465 
L 242.979671 524.390831 
L 243.199304 348.53004 
L 243.638568 505.033578 
L 243.858201 325.340559 
L 244.077833 356.261798 
L 244.297465 442.536318 
L 244.517097 465.987738 
L 244.73673 407.755018 
L 244.956362 513.978145 
L 245.175994 474.799882 
L 245.395627 472.161957 
L 245.834891 447.068265 
L 246.054523 552.867606 
L 246.274156 509.079622 
L 246.493788 370.73797 
L 246.71342 358.541908 
L 246.933053 474.192824 
L 247.152685 502.253192 
L 247.372317 511.567636 
L 247.591949 479.003995 
L 247.811582 476.52042 
L 248.250846 368.862134 
L 248.470479 411.838193 
L 248.690111 481.49152 
L 248.909743 439.519369 
L 249.129375 350.930609 
L 249.349008 495.259136 
L 249.56864 395.938469 
L 249.788272 488.141547 
L 250.007905 440.780365 
L 250.227537 437.680757 
L 250.447169 380.841208 
L 250.666801 471.354074 
L 251.106066 379.048075 
L 251.325698 400.420744 
L 251.545331 475.565757 
L 251.764963 353.838404 
L 251.984595 455.379354 
L 252.204227 394.593906 
L 252.42386 487.503099 
L 252.863124 505.866015 
L 253.082757 486.661031 
L 253.302389 333.172659 
L 253.522021 309.503621 
L 253.961286 524.937184 
L 254.180918 471.178707 
L 254.40055 514.545402 
L 254.620183 526.913789 
L 255.059447 341.307056 
L 255.279079 521.642657 
L 255.498712 549.806651 
L 255.718344 398.702104 
L 255.937976 480.617744 
L 256.377241 362.764243 
L 256.596873 447.360659 
L 256.816505 448.20789 
L 257.036138 353.708488 
L 257.475402 443.695956 
L 257.695034 515.884627 
L 257.914667 496.303872 
L 258.134299 497.902222 
L 258.353931 440.189121 
L 258.573564 429.821069 
L 258.793196 506.165647 
L 259.012828 411.753803 
L 259.23246 511.93726 
L 259.452093 486.982117 
L 259.671725 414.828045 
L 259.891357 534.054671 
L 260.11099 314.699375 
L 260.330622 488.620234 
L 260.769886 439.38099 
L 260.989519 429.998196 
L 261.209151 388.757304 
L 261.428783 390.704889 
L 261.648416 471.690559 
L 261.868048 467.78737 
L 262.08768 367.179601 
L 262.307312 367.324781 
L 262.526945 420.689431 
L 262.746577 350.639097 
L 263.185842 445.589129 
L 263.405474 451.785471 
L 263.625106 445.726302 
L 263.844738 390.083191 
L 264.064371 480.263241 
L 264.284003 405.708466 
L 264.503635 472.784173 
L 264.723268 408.408409 
L 264.9429 496.901709 
L 265.162532 451.07487 
L 265.382164 492.893101 
L 265.601797 451.100371 
L 265.821429 260.841637 
L 266.041061 230.578346 
L 266.260694 570.488978 
L 266.480326 435.700177 
L 266.699958 386.083724 
L 266.91959 435.617187 
L 267.139223 391.173938 
L 267.578487 468.071948 
L 268.017752 455.312185 
L 268.237384 539.185053 
L 268.457016 373.702684 
L 268.676649 457.905235 
L 268.896281 463.230454 
L 269.115913 488.241047 
L 269.335546 451.588464 
L 269.555178 470.674845 
L 269.77481 400.028489 
L 269.994442 154.047104 
L 270.214075 466.247118 
L 270.433707 419.238551 
L 270.653339 463.316465 
L 270.872972 332.877451 
L 271.092604 350.348879 
L 271.312236 464.988239 
L 271.531868 481.97499 
L 271.751501 431.878672 
L 271.971133 433.721647 
L 272.190765 494.624931 
L 272.410397 426.471343 
L 272.63003 436.828072 
L 272.849662 420.130425 
L 273.069294 453.734779 
L 273.288927 363.689657 
L 273.508559 494.735427 
L 273.728191 443.178076 
L 273.947823 446.635837 
L 274.167456 347.590884 
L 274.387088 400.381493 
L 274.60672 539.207239 
L 274.826353 287.972942 
L 275.045985 440.250283 
L 275.265617 389.924518 
L 275.485249 505.163245 
L 275.924514 406.206996 
L 276.144146 383.832423 
L 276.363779 382.495232 
L 276.583411 533.193649 
L 276.803043 571.937015 
L 277.242308 449.55815 
L 277.46194 415.887387 
L 277.681572 421.469584 
L 277.901205 214.187487 
L 278.120837 379.939276 
L 278.340469 375.350648 
L 278.560101 381.015826 
L 278.999366 487.0648 
L 279.218998 279.467538 
L 279.438631 346.037584 
L 279.658263 489.44756 
L 279.877895 342.899396 
L 280.097527 532.084095 
L 280.31716 461.787638 
L 280.536792 471.190526 
L 280.756424 400.319569 
L 281.195689 393.807109 
L 281.634953 486.397275 
L 281.854586 462.709272 
L 282.074218 336.325992 
L 282.29385 347.514875 
L 282.513483 430.101391 
L 282.733115 454.157821 
L 282.952747 416.824175 
L 283.172379 534.864347 
L 283.392012 412.502164 
L 283.611644 438.264945 
L 283.831276 573.700679 
L 284.050909 301.444896 
L 284.270541 429.098455 
L 284.929438 490.366808 
L 285.14907 445.883982 
L 285.368702 492.759761 
L 285.588335 458.770177 
L 285.807967 308.373279 
L 286.027599 369.572456 
L 286.247231 517.052834 
L 286.466864 494.492958 
L 286.686496 391.092046 
L 286.906128 462.949477 
L 287.12576 404.88733 
L 287.345393 526.429235 
L 287.565025 352.331198 
L 287.784657 500.654325 
L 288.00429 410.0661 
L 288.443554 471.585523 
L 288.663186 391.248832 
L 288.882819 377.216844 
L 289.322083 483.590312 
L 289.541716 481.987485 
L 289.761348 462.72547 
L 289.98098 333.309152 
L 290.420245 457.08341 
L 290.639877 327.236113 
L 290.859509 405.258921 
L 291.079142 368.398553 
L 291.298774 455.852836 
L 291.518406 445.755491 
L 291.738038 359.158132 
L 292.177303 453.168741 
L 292.396935 409.305772 
L 292.616568 433.81153 
L 292.8362 430.252465 
L 293.055832 421.817008 
L 293.275464 358.754956 
L 293.495097 433.971161 
L 293.714729 327.299254 
L 294.153994 557.729276 
L 294.373626 424.754091 
L 294.593258 491.343712 
L 294.81289 509.956321 
L 295.032523 282.739694 
L 295.252155 515.005856 
L 295.471787 428.285789 
L 295.69142 450.217655 
L 295.911052 433.089974 
L 296.130684 462.355423 
L 296.350316 312.632994 
L 296.569949 496.138196 
L 296.789581 512.57385 
L 297.009213 509.094509 
L 297.228846 424.427397 
L 297.448478 495.462915 
L 297.66811 371.371042 
L 297.887742 441.661393 
L 298.107375 463.689342 
L 298.327007 371.489918 
L 298.546639 494.39733 
L 298.766272 431.376352 
L 299.205536 477.30173 
L 299.425168 505.866034 
L 299.864433 414.103198 
L 300.084065 417.797625 
L 300.303698 507.303931 
L 300.52333 440.818219 
L 300.742962 418.248699 
L 301.182227 503.028004 
L 301.401859 346.649231 
L 301.621491 488.892447 
L 301.841124 474.306853 
L 302.280388 538.441751 
L 302.50002 413.763959 
L 302.719653 459.838161 
L 302.939285 445.922291 
L 303.158917 481.933123 
L 303.598182 444.246128 
L 303.817814 545.15574 
L 304.257079 325.161705 
L 304.696343 414.80767 
L 304.915975 499.308601 
L 305.135608 396.216554 
L 305.35524 372.048808 
L 305.574872 331.178915 
L 306.014137 491.848062 
L 306.233769 474.697274 
L 306.453401 489.308393 
L 306.673034 517.619519 
L 307.112298 456.428509 
L 307.331931 413.079448 
L 307.551563 475.536978 
L 307.771195 340.566899 
L 307.990827 534.383273 
L 308.21046 389.709152 
L 308.430092 435.18965 
L 308.649724 329.059138 
L 308.869357 445.124505 
L 309.088989 372.212327 
L 309.308621 525.826394 
L 309.528253 478.994729 
L 309.747886 493.81485 
L 309.967518 353.540435 
L 310.406783 539.799657 
L 310.626415 372.544765 
L 311.065679 460.368811 
L 311.285312 457.217755 
L 311.504944 435.573061 
L 311.724576 498.496959 
L 311.944209 389.547791 
L 312.163841 520.687326 
L 312.383473 528.144181 
L 312.603105 427.809977 
L 313.04237 484.730657 
L 313.262002 477.616679 
L 313.481635 474.668566 
L 313.701267 485.132308 
L 313.920899 331.590011 
L 314.140531 530.988 
L 314.579796 389.407992 
L 314.799428 399.68502 
L 315.238693 346.19244 
L 315.458325 423.455933 
L 315.677957 438.939079 
L 315.89759 342.384389 
L 316.117222 514.746884 
L 316.336854 438.034715 
L 316.556487 507.997204 
L 316.776119 358.365735 
L 316.995751 341.418336 
L 317.215383 416.676402 
L 317.435016 296.793464 
L 317.654648 504.779686 
L 317.87428 465.269757 
L 318.093912 327.767812 
L 318.313545 429.163413 
L 318.533177 466.575957 
L 318.752809 327.916031 
L 318.972442 463.397635 
L 319.192074 411.897936 
L 319.411706 400.11262 
L 319.631338 471.281593 
L 319.850971 474.026539 
L 320.070603 447.704637 
L 320.290235 463.400277 
L 320.7295 377.530097 
L 320.949132 487.002117 
L 321.168764 298.239473 
L 321.608029 457.408596 
L 321.827661 459.329666 
L 322.047294 485.744385 
L 322.266926 457.218742 
L 322.486558 443.497038 
L 322.70619 478.164244 
L 322.925823 284.495329 
L 323.145455 435.609066 
L 323.365087 498.556064 
L 323.58472 411.425423 
L 323.804352 384.575774 
L 324.023984 415.229182 
L 324.243616 517.864473 
L 324.463249 470.246748 
L 324.682881 497.080386 
L 324.902513 386.966848 
L 325.122146 477.114988 
L 325.56141 364.437251 
L 325.781042 318.741426 
L 326.000675 477.540714 
L 326.220307 348.042677 
L 326.439939 382.739904 
L 326.659572 493.028527 
L 326.879204 425.449816 
L 327.098836 405.509376 
L 327.318468 480.014331 
L 327.538101 360.460862 
L 327.757733 490.144792 
L 327.977365 436.23915 
L 328.196998 490.660099 
L 328.41663 403.25485 
L 328.636262 453.269349 
L 328.855894 319.681756 
L 329.075527 430.025583 
L 329.295159 453.141878 
L 329.514791 361.492065 
L 329.734424 143.351698 
L 329.954056 186.224701 
L 330.39332 503.957941 
L 330.612953 368.691247 
L 330.832585 439.227845 
L 331.052217 379.998565 
L 331.27185 405.333568 
L 331.491482 416.855621 
L 331.711114 453.656977 
L 331.930746 434.652277 
L 332.150379 459.750209 
L 332.370011 450.770326 
L 332.589643 385.350603 
L 332.809275 529.01036 
L 333.028908 441.014962 
L 333.24854 548.910627 
L 333.468172 471.044095 
L 333.907437 444.054071 
L 334.127069 443.563723 
L 334.346701 463.899078 
L 334.566334 446.041281 
L 334.785966 484.28918 
L 335.005598 354.220023 
L 335.225231 456.977928 
L 335.444863 375.992086 
L 335.664495 353.194668 
L 335.884127 468.853593 
L 336.10376 425.655236 
L 336.543024 449.953944 
L 336.762657 253.694227 
L 336.982289 437.123508 
L 337.201921 474.065492 
L 337.421553 473.956695 
L 337.641186 483.888716 
L 337.860818 499.309824 
L 338.08045 440.795232 
L 338.300083 462.979928 
L 338.519715 344.522041 
L 338.739347 434.640499 
L 338.958979 438.146711 
L 339.178612 482.085328 
L 339.398244 358.936182 
L 339.617876 448.770762 
L 339.837509 466.601134 
L 340.057141 439.720143 
L 340.276773 333.400244 
L 340.496405 421.113676 
L 340.93567 278.877931 
L 341.155302 415.501494 
L 341.374935 413.569708 
L 341.594567 361.365533 
L 342.033831 532.272718 
L 342.253464 495.974449 
L 342.473096 499.70404 
L 342.692728 430.834416 
L 342.912361 444.752624 
L 343.131993 443.241924 
L 343.351625 391.344763 
L 343.79089 456.362517 
L 344.010522 329.325578 
L 344.230154 436.085009 
L 344.449787 435.298329 
L 344.669419 303.928324 
L 344.889051 500.636748 
L 345.108683 423.605157 
L 345.328316 473.049463 
L 345.547948 438.734346 
L 345.76758 449.551051 
L 345.987213 432.756637 
L 346.206845 360.445331 
L 346.646109 439.434107 
L 346.865742 303.780429 
L 347.085374 349.46636 
L 347.305006 424.595436 
L 347.524639 362.963172 
L 347.744271 367.604822 
L 348.183535 448.975826 
L 348.403168 433.802506 
L 348.6228 487.994841 
L 348.842432 436.576598 
L 349.062064 509.351594 
L 349.281697 471.409481 
L 349.501329 405.262954 
L 349.720961 408.630639 
L 349.940594 475.256734 
L 350.379858 404.316181 
L 350.59949 420.439132 
L 350.819123 477.904734 
L 351.038755 420.602887 
L 351.47802 550.585918 
L 351.697652 376.273776 
L 351.917284 480.788812 
L 352.136916 491.184559 
L 352.356549 446.513158 
L 352.576181 563.711085 
L 352.795813 459.547747 
L 353.015446 576.572882 
L 353.45471 463.805987 
L 353.674342 406.843986 
L 353.893975 411.031346 
L 354.113607 485.342958 
L 354.333239 473.698914 
L 354.552872 292.561616 
L 354.772504 350.713301 
L 354.992136 316.96562 
L 355.431401 543.269642 
L 355.651033 440.647344 
L 355.870665 393.86247 
L 356.090298 424.234619 
L 356.30993 532.166502 
L 356.529562 295.484527 
L 356.749194 457.813841 
L 356.968827 449.093433 
L 357.188459 433.486205 
L 357.408091 440.745807 
L 357.627724 347.310042 
L 357.847356 436.801717 
L 358.066988 436.675197 
L 358.28662 386.074705 
L 358.506253 306.325069 
L 358.725885 493.453884 
L 358.945517 406.103747 
L 359.16515 487.570439 
L 359.384782 430.137643 
L 359.824046 454.567585 
L 360.263311 234.18199 
L 360.482943 466.923351 
L 360.702576 437.93954 
L 360.922208 506.369937 
L 361.14184 490.498653 
L 361.361472 373.615892 
L 361.581105 424.364615 
L 361.800737 160.373906 
L 362.020369 398.478094 
L 362.240002 370.760674 
L 362.679266 552.599457 
L 362.898898 371.952014 
L 363.118531 365.197765 
L 363.338163 398.728348 
L 363.557795 408.639191 
L 363.99706 471.522525 
L 364.216692 393.979186 
L 364.655957 498.931182 
L 364.875589 398.075875 
L 365.095221 494.588626 
L 365.314853 320.223592 
L 365.534486 464.841309 
L 365.754118 420.019904 
L 365.97375 400.019726 
L 366.193383 498.21467 
L 366.413015 354.513596 
L 366.632647 451.985707 
L 367.071912 419.917418 
L 367.291544 475.058326 
L 367.511176 356.578325 
L 367.730809 429.818703 
L 367.950441 454.772017 
L 368.170073 507.683844 
L 368.389705 404.202794 
L 368.609338 478.397237 
L 368.82897 389.559283 
L 369.048602 436.70188 
L 369.268235 425.32825 
L 369.707499 483.985289 
L 369.927131 324.991073 
L 370.146764 428.627504 
L 370.586028 468.058358 
L 370.805661 521.147372 
L 371.025293 428.421583 
L 371.244925 462.447047 
L 371.464557 467.899177 
L 371.68419 486.508006 
L 371.903822 443.618615 
L 372.123454 482.974116 
L 372.562719 427.580846 
L 372.782351 528.877508 
L 373.001983 452.532809 
L 373.221616 456.075832 
L 373.441248 419.728905 
L 373.66088 454.485952 
L 373.880513 508.222654 
L 374.100145 399.071519 
L 374.319777 404.103698 
L 374.539409 411.878555 
L 374.759042 514.900439 
L 374.978674 497.406953 
L 375.198306 454.636219 
L 375.417939 522.537592 
L 376.076835 304.399219 
L 376.296468 376.45971 
L 376.5161 538.895076 
L 376.735732 446.434324 
L 376.955365 420.207483 
L 377.174997 434.331082 
L 377.394629 497.420198 
L 377.614261 408.705447 
L 377.833894 533.316994 
L 378.273158 462.187707 
L 378.492791 576.022796 
L 378.712423 451.862074 
L 378.932055 502.619461 
L 379.151687 356.715988 
L 379.37132 393.841415 
L 379.590952 508.454668 
L 379.810584 443.197509 
L 380.030216 482.299408 
L 380.249849 393.44272 
L 380.469481 447.386135 
L 380.689113 376.366986 
L 380.908746 483.113579 
L 381.128378 490.720787 
L 381.34801 526.854084 
L 381.567642 540.320687 
L 382.006907 309.400406 
L 382.226539 471.796486 
L 382.446172 403.415067 
L 382.665804 472.337162 
L 382.885436 290.314859 
L 383.105068 475.990296 
L 383.324701 483.075642 
L 383.544333 195.643004 
L 383.763965 432.656192 
L 383.983598 415.952302 
L 384.20323 427.451336 
L 384.422862 395.911449 
L 384.642494 488.620941 
L 384.862127 464.117799 
L 385.081759 477.134559 
L 385.301391 419.618806 
L 385.521024 409.83354 
L 385.740656 367.263471 
L 385.960288 517.133715 
L 386.17992 431.730497 
L 386.399553 464.849768 
L 386.619185 421.49992 
L 386.838817 354.720773 
L 387.05845 462.477167 
L 387.278082 506.892389 
L 387.497714 508.780229 
L 387.717346 470.607624 
L 387.936979 410.705597 
L 388.156611 391.081245 
L 388.376243 451.215012 
L 388.595876 547.562933 
L 388.815508 438.132684 
L 389.254772 348.091252 
L 389.474405 363.526099 
L 389.913669 460.924153 
L 390.133302 450.658684 
L 390.572566 541.253748 
L 390.792198 437.451275 
L 391.011831 485.839578 
L 391.231463 430.760227 
L 391.451095 409.443952 
L 391.670728 559.721618 
L 391.89036 406.078991 
L 392.109992 504.415725 
L 392.329624 522.970863 
L 392.768889 324.811152 
L 393.208154 490.392579 
L 393.427786 483.283291 
L 393.647418 429.4955 
L 393.86705 404.433014 
L 394.086683 528.335478 
L 394.306315 324.390783 
L 394.745579 445.994449 
L 394.965212 213.089959 
L 395.184844 478.643174 
L 395.404476 469.201082 
L 395.624109 414.319057 
L 395.843741 422.487602 
L 396.063373 523.883554 
L 396.283005 458.16354 
L 396.502638 449.684204 
L 396.72227 327.297295 
L 397.161535 568.332878 
L 397.381167 534.903117 
L 397.820431 326.439051 
L 398.040064 470.387658 
L 398.259696 415.975213 
L 398.698961 435.522944 
L 398.918593 431.875188 
L 399.138225 481.652239 
L 399.357857 290.386227 
L 399.57749 373.699224 
L 399.797122 402.209831 
L 400.016754 484.871931 
L 400.895283 365.753544 
L 401.114916 394.76389 
L 401.334548 473.083713 
L 401.55418 455.493336 
L 401.773813 422.47727 
L 401.993445 485.273214 
L 402.213077 383.773722 
L 402.432709 381.770374 
L 402.652342 515.162261 
L 402.871974 442.49199 
L 403.091606 455.951883 
L 403.311239 279.105067 
L 403.750503 523.723556 
L 404.189768 302.24336 
L 404.4094 451.843747 
L 404.629032 443.418391 
L 404.848665 203.086743 
L 405.287929 485.880628 
L 405.507561 489.251594 
L 405.727194 394.220161 
L 406.166458 402.987233 
L 406.386091 459.254633 
L 406.605723 471.17027 
L 406.825355 308.330086 
L 407.044987 410.762285 
L 407.26462 248.958112 
L 407.484252 405.063437 
L 407.703884 471.523414 
L 407.923517 420.668809 
L 408.143149 478.920974 
L 408.362781 429.754456 
L 408.582413 516.967259 
L 408.802046 410.882951 
L 409.021678 466.084332 
L 409.24131 435.001695 
L 409.460943 523.409049 
L 409.680575 375.003581 
L 409.900207 386.461304 
L 410.119839 486.182035 
L 410.339472 480.103207 
L 410.559104 441.644519 
L 410.778736 454.704059 
L 410.998368 495.651776 
L 411.218001 280.180211 
L 411.437633 493.24388 
L 411.657265 464.593996 
L 411.876898 505.079684 
L 412.09653 436.270974 
L 412.316162 507.114034 
L 412.535794 357.692706 
L 412.755427 487.231083 
L 412.975059 484.906944 
L 413.194691 433.798862 
L 413.414324 472.676509 
L 413.633956 372.066781 
L 413.853588 512.701242 
L 414.07322 413.665591 
L 414.292853 377.968734 
L 414.512485 364.54538 
L 414.732117 510.249058 
L 414.95175 478.111539 
L 415.391014 364.036638 
L 415.610646 360.657132 
L 416.049911 476.716925 
L 416.269543 409.83453 
L 416.489176 414.822795 
L 416.708808 425.597005 
L 416.92844 495.745657 
L 417.148072 457.186253 
L 417.367705 474.38483 
L 417.587337 439.834105 
L 417.806969 464.213203 
L 418.026602 441.362131 
L 418.465866 525.555339 
L 418.685498 472.26566 
L 418.905131 338.807408 
L 419.124763 471.841799 
L 419.344395 380.692644 
L 419.564028 427.254232 
L 420.003292 277.978025 
L 420.222924 516.142529 
L 420.442557 408.077249 
L 420.662189 473.36231 
L 420.881821 496.746567 
L 421.321086 465.17019 
L 421.540718 402.822369 
L 421.76035 375.345326 
L 421.979983 387.37619 
L 422.199615 445.308728 
L 422.419247 378.011237 
L 422.63888 378.78482 
L 422.858512 399.548162 
L 423.078144 369.338883 
L 423.517409 520.603335 
L 423.737041 431.387708 
L 423.956673 467.182686 
L 424.176306 373.076381 
L 424.61557 536.66277 
L 424.835202 321.192089 
L 425.054835 457.210786 
L 425.274467 449.407813 
L 425.494099 496.054844 
L 425.713731 507.206639 
L 425.933364 493.684883 
L 426.152996 432.520525 
L 426.372628 509.150681 
L 426.592261 481.995706 
L 426.811893 399.390127 
L 427.031525 492.073968 
L 427.251157 422.340609 
L 427.47079 447.80137 
L 427.690422 341.629081 
L 427.910054 524.891483 
L 428.129687 522.474453 
L 428.349319 500.669322 
L 428.568951 511.789585 
L 429.008216 430.819661 
L 429.227848 486.487512 
L 429.44748 393.489165 
L 429.667113 414.290143 
L 429.886745 328.168978 
L 430.326009 536.685623 
L 430.545642 368.521688 
L 430.765274 408.708448 
L 430.984906 318.174596 
L 431.204539 439.528957 
L 431.424171 499.100495 
L 431.643803 347.631313 
L 431.863435 514.295362 
L 432.083068 468.216842 
L 432.3027 463.398226 
L 432.522332 429.73618 
L 432.741965 342.527224 
L 432.961597 526.470082 
L 433.181229 429.692502 
L 433.400861 448.738413 
L 433.620494 425.084834 
L 434.059758 506.49269 
L 434.279391 464.951947 
L 434.499023 497.08924 
L 434.718655 428.350626 
L 434.938287 466.797766 
L 435.15792 476.630244 
L 435.377552 432.649931 
L 435.597184 432.800849 
L 435.816817 408.394589 
L 436.036449 445.004438 
L 436.256081 387.160583 
L 436.475713 489.767859 
L 436.695346 534.547357 
L 437.13461 390.681994 
L 437.354243 404.25839 
L 437.573875 349.12661 
L 437.793507 359.184134 
L 438.013139 514.56932 
L 438.232772 369.378557 
L 438.452404 473.645355 
L 438.672036 455.122019 
L 438.891669 335.086922 
L 439.111301 422.141517 
L 439.330933 457.309251 
L 439.550565 381.387285 
L 439.770198 485.90967 
L 439.98983 472.501527 
L 440.209462 341.49996 
L 440.429094 528.733531 
L 440.648727 522.065492 
L 440.868359 377.138044 
L 441.307624 488.562635 
L 441.527256 484.608985 
L 441.746888 366.225392 
L 441.96652 454.261017 
L 442.186153 385.129294 
L 442.84505 534.620964 
L 443.064682 413.6025 
L 443.284314 391.787228 
L 443.723579 472.304103 
L 443.943211 458.941991 
L 444.162843 486.644633 
L 444.382476 424.908599 
L 444.602108 304.336671 
L 444.82174 492.827653 
L 445.041372 462.413518 
L 445.261005 465.753978 
L 445.480637 423.66678 
L 445.700269 412.518043 
L 446.139534 448.948071 
L 446.359166 397.541516 
L 446.578798 486.175484 
L 446.798431 492.942111 
L 447.018063 487.101479 
L 447.237695 465.788303 
L 447.457328 268.71089 
L 447.67696 526.823961 
L 447.896592 442.916127 
L 448.116224 415.994879 
L 448.335857 520.009739 
L 448.555489 509.949968 
L 448.775121 514.230527 
L 448.994754 353.775171 
L 449.214386 344.994493 
L 449.434018 351.325067 
L 449.65365 380.506331 
L 449.873283 432.816441 
L 450.092915 389.908477 
L 450.312547 439.133839 
L 450.53218 316.592545 
L 450.751812 532.584986 
L 450.971444 534.912418 
L 451.410709 372.939208 
L 451.630341 359.732314 
L 452.069606 503.807346 
L 452.289238 336.82147 
L 452.50887 495.704703 
L 452.728502 393.870246 
L 452.948135 468.096514 
L 453.167767 430.489281 
L 453.387399 504.26223 
L 453.607032 513.183896 
L 453.826664 476.601021 
L 454.046296 419.704419 
L 454.265928 506.90701 
L 454.705193 411.525885 
L 455.144458 464.941665 
L 455.36409 419.478305 
L 455.803354 437.107761 
L 456.022987 522.038604 
L 456.242619 437.994623 
L 456.462251 477.488322 
L 456.681883 307.440855 
L 456.901516 430.995529 
L 457.121148 471.16426 
L 457.34078 480.725384 
L 457.560413 437.892732 
L 457.999677 455.125688 
L 458.219309 391.777162 
L 458.438942 404.20288 
L 458.658574 391.643548 
L 458.878206 310.301235 
L 459.097839 502.339991 
L 459.317471 399.862684 
L 459.756735 451.841876 
L 459.976368 328.962219 
L 460.196 477.594482 
L 460.415632 527.968692 
L 460.635265 412.318376 
L 460.854897 434.701571 
L 461.074529 487.698457 
L 461.294161 502.23053 
L 461.513794 433.75601 
L 461.733426 407.691967 
L 461.953058 475.471966 
L 462.172691 433.399597 
L 462.392323 441.395857 
L 462.611955 285.147153 
L 462.831587 373.908879 
L 463.270852 436.482338 
L 463.490484 385.248574 
L 463.710117 561.78823 
L 463.929749 389.053843 
L 464.149381 502.449502 
L 464.369013 436.709245 
L 464.588646 414.26745 
L 464.808278 481.181975 
L 465.02791 500.654011 
L 465.247543 468.759463 
L 465.467175 527.657266 
L 465.686807 372.365135 
L 465.906439 347.040151 
L 466.126072 488.29473 
L 466.345704 421.552452 
L 466.565336 456.126076 
L 466.784969 455.373439 
L 467.004601 420.554079 
L 467.224233 465.6697 
L 467.443865 470.088929 
L 467.663498 453.150005 
L 467.88313 459.722129 
L 468.102762 270.422375 
L 468.322395 369.589527 
L 468.542027 346.43313 
L 468.761659 431.629189 
L 468.981291 428.849858 
L 469.200924 309.64228 
L 469.420556 296.961737 
L 469.640188 335.867683 
L 469.859821 345.489618 
L 470.299085 445.843105 
L 470.518717 319.608589 
L 470.73835 338.577811 
L 470.957982 513.21343 
L 471.177614 441.626244 
L 471.397246 470.09222 
L 471.616879 403.816702 
L 471.836511 453.443681 
L 472.056143 268.670627 
L 472.275776 480.689316 
L 472.495408 554.511333 
L 472.71504 348.81438 
L 472.934672 445.145257 
L 473.154305 463.209416 
L 473.373937 500.004953 
L 473.593569 460.832766 
L 473.813202 455.742081 
L 474.032834 397.028619 
L 474.472098 530.776922 
L 474.691731 469.121369 
L 474.911363 467.044518 
L 475.130995 489.438459 
L 475.350628 473.589735 
L 476.009524 368.559014 
L 476.229157 385.143594 
L 476.448789 327.777041 
L 476.668421 402.55409 
L 476.888054 351.982162 
L 477.107686 454.985537 
L 477.327318 426.877543 
L 477.54695 498.098224 
L 477.766583 442.047059 
L 477.986215 463.253336 
L 478.205847 536.30886 
L 478.645112 402.118779 
L 478.864744 471.280686 
L 479.084376 395.734465 
L 479.304009 388.406605 
L 479.523641 492.201452 
L 479.743273 380.853388 
L 479.962906 465.718887 
L 480.182538 477.690271 
L 480.40217 349.562404 
L 480.621802 476.221422 
L 480.841435 431.451796 
L 481.061067 495.930162 
L 481.280699 405.370219 
L 481.500332 432.993146 
L 481.719964 283.988817 
L 481.939596 493.840371 
L 482.598493 344.862014 
L 482.818125 318.311602 
L 483.037758 423.883552 
L 483.25739 466.125828 
L 483.477022 465.476961 
L 483.696654 422.985821 
L 483.916287 484.378193 
L 484.135919 417.475968 
L 484.355551 429.337355 
L 484.575184 419.170896 
L 485.014448 353.062221 
L 485.23408 260.306487 
L 485.453713 518.03977 
L 485.673345 282.109682 
L 485.892977 478.393167 
L 486.11261 414.033465 
L 486.332242 436.948412 
L 486.551874 374.852594 
L 486.771506 573.762289 
L 487.210771 361.561449 
L 487.430403 515.05331 
L 487.650035 460.257412 
L 487.869668 475.612352 
L 488.0893 515.914898 
L 488.308932 431.533704 
L 488.528565 446.255552 
L 488.748197 423.733774 
L 488.967829 503.134578 
L 489.187461 421.88655 
L 489.407094 443.283708 
L 489.626726 484.039063 
L 489.846358 439.567077 
L 490.065991 490.676617 
L 490.285623 441.274504 
L 490.505255 503.468685 
L 490.94452 389.557671 
L 491.383784 486.225397 
L 491.603417 490.424243 
L 491.823049 240.434688 
L 492.042681 391.083937 
L 492.262313 379.627357 
L 492.481946 352.050946 
L 492.92121 499.309741 
L 493.140843 457.581492 
L 493.360475 360.331307 
L 493.580107 407.918632 
L 493.799739 389.284539 
L 494.239004 494.316338 
L 494.458636 336.900643 
L 494.678269 402.697383 
L 494.897901 426.009713 
L 495.337165 377.223968 
L 495.556798 408.593254 
L 495.77643 389.632047 
L 495.996062 485.502478 
L 496.215695 414.22773 
L 496.435327 293.3339 
L 496.654959 434.71981 
L 496.874591 439.50374 
L 497.094224 416.661275 
L 497.753121 515.134963 
L 497.972753 502.979221 
L 498.192385 476.848097 
L 498.412017 418.053046 
L 498.63165 464.264845 
L 498.851282 465.275565 
L 499.070914 473.672749 
L 499.290547 405.773698 
L 499.510179 469.116745 
L 499.729811 451.360375 
L 500.169076 467.027938 
L 500.388708 374.315779 
L 500.60834 438.386583 
L 500.827973 407.518886 
L 501.047605 448.384541 
L 501.267237 455.404982 
L 501.486869 403.460704 
L 501.706502 467.392046 
L 501.926134 488.578443 
L 502.145766 493.634401 
L 502.365398 440.300171 
L 502.585031 453.354695 
L 502.804663 539.456854 
L 503.024295 319.969993 
L 503.243928 482.212039 
L 503.46356 499.239311 
L 503.683192 393.553775 
L 503.902824 456.796628 
L 504.122457 480.335053 
L 504.561721 323.698067 
L 504.781354 568.951239 
L 505.220618 213.16466 
L 505.44025 425.264096 
L 505.659883 423.384674 
L 506.099147 355.854754 
L 506.31878 536.971885 
L 506.538412 493.079586 
L 506.758044 501.31755 
L 506.977676 479.181684 
L 507.197309 362.617994 
L 507.416941 470.259371 
L 507.636573 484.970246 
L 507.856206 358.246413 
L 508.075838 353.471886 
L 508.29547 415.437363 
L 508.515102 565.281821 
L 508.734735 407.615625 
L 508.954367 417.920206 
L 509.173999 331.050794 
L 509.393632 353.265918 
L 509.613264 454.79698 
L 509.832896 488.719122 
L 510.052528 458.301548 
L 510.272161 326.912345 
L 510.491793 464.458461 
L 510.711425 449.666528 
L 510.931058 488.682372 
L 511.15069 491.834128 
L 511.589954 334.781051 
L 511.809587 474.243546 
L 512.029219 488.412028 
L 512.248851 255.355847 
L 512.468484 391.727207 
L 512.688116 271.137991 
L 512.907748 445.546413 
L 513.12738 505.184188 
L 513.347013 468.266504 
L 513.566645 476.696675 
L 513.786277 513.092591 
L 514.00591 429.954576 
L 514.225542 401.274997 
L 514.445174 395.457918 
L 514.664806 511.167956 
L 514.884439 431.744676 
L 515.104071 423.316238 
L 515.323703 554.229352 
L 515.543336 411.416405 
L 515.762968 341.6916 
L 515.9826 427.019177 
L 516.202232 429.552409 
L 516.421865 463.887011 
L 516.641497 323.878351 
L 517.080762 507.248837 
L 517.300394 366.794164 
L 517.520026 492.263988 
L 517.739658 456.480221 
L 517.959291 463.859458 
L 518.178923 434.649397 
L 518.398555 382.709339 
L 518.618187 389.387416 
L 518.83782 507.212114 
L 519.057452 390.749462 
L 519.277084 432.584803 
L 519.496717 510.356648 
L 519.716349 398.452045 
L 519.935981 512.549899 
L 520.155613 444.595585 
L 520.375246 444.451242 
L 520.594878 484.926535 
L 520.81451 478.505958 
L 521.034143 496.818482 
L 521.253775 580.503039 
L 521.473407 366.369388 
L 521.693039 448.772422 
L 521.912672 483.653732 
L 522.132304 386.341902 
L 522.351936 514.905493 
L 522.571569 560.51085 
L 522.791201 452.324882 
L 523.010833 449.600598 
L 523.230465 423.367348 
L 523.450098 345.977679 
L 523.66973 443.801023 
L 523.889362 451.539975 
L 524.108995 496.578633 
L 524.328627 494.307755 
L 524.548259 479.302524 
L 524.767891 441.462438 
L 524.987524 466.615313 
L 525.207156 214.326201 
L 525.426788 461.111008 
L 525.646421 469.707047 
L 526.085685 508.543237 
L 526.305317 403.643837 
L 526.52495 470.278277 
L 526.744582 450.113327 
L 526.964214 512.192595 
L 527.623111 229.993957 
L 527.842743 494.966415 
L 528.062376 373.498881 
L 528.282008 454.224717 
L 528.50164 348.559448 
L 528.721273 465.247787 
L 528.940905 428.014193 
L 529.380169 493.097537 
L 529.599802 459.269898 
L 529.819434 500.515956 
L 530.039066 426.85094 
L 530.258699 484.704586 
L 530.697963 416.393951 
L 530.917595 378.150666 
L 531.137228 492.13993 
L 531.35686 404.167039 
L 531.576492 485.563293 
L 531.796125 446.411565 
L 532.015757 518.7456 
L 532.235389 447.486325 
L 532.455021 460.981972 
L 532.674654 449.398873 
L 532.894286 524.220187 
L 533.113918 329.507572 
L 533.33355 503.190173 
L 533.553183 398.113546 
L 533.772815 473.866329 
L 533.992447 457.532266 
L 534.21208 423.730244 
L 534.431712 364.185088 
L 534.651344 423.941771 
L 534.870976 359.864103 
L 535.090609 376.100164 
L 535.529873 478.793591 
L 535.749506 287.89355 
L 535.969138 336.010476 
L 536.18877 425.720286 
L 536.408402 381.884932 
L 536.628035 485.49707 
L 536.847667 493.154769 
L 537.067299 382.749502 
L 537.286932 387.68183 
L 537.506564 441.544791 
L 537.726196 568.972626 
L 537.945828 485.50213 
L 538.165461 255.121661 
L 538.385093 339.625835 
L 538.604725 277.947269 
L 538.824358 372.357019 
L 539.04399 343.702147 
L 539.483254 527.750316 
L 539.702887 398.359681 
L 539.922519 466.261635 
L 540.142151 466.6705 
L 540.361784 496.446673 
L 540.581416 273.466774 
L 540.801048 456.312642 
L 541.02068 446.980299 
L 541.240313 481.003905 
L 541.459945 402.378521 
L 541.679577 372.739654 
L 541.89921 431.037336 
L 542.118842 543.992714 
L 542.338474 450.886451 
L 542.558106 440.175461 
L 542.777739 239.851789 
L 542.997371 497.724294 
L 543.436636 427.37474 
L 543.656268 465.916474 
L 543.8759 468.514079 
L 544.095532 449.390126 
L 544.315165 299.378295 
L 544.534797 274.487393 
L 545.193694 445.082769 
L 545.413326 543.309572 
L 545.632958 507.74275 
L 545.852591 363.289121 
L 546.072223 409.826391 
L 546.291855 483.562364 
L 546.73112 456.052075 
L 546.950752 460.279846 
L 547.170384 373.791374 
L 547.609649 471.60171 
L 547.829281 342.890917 
L 548.048913 388.328949 
L 548.268546 478.031074 
L 548.488178 476.770106 
L 548.70781 425.562157 
L 548.927443 442.427012 
L 549.147075 484.713116 
L 549.366707 382.501 
L 549.805972 424.607807 
L 550.245236 491.431604 
L 550.464869 330.607822 
L 550.684501 516.451603 
L 550.904133 364.332436 
L 551.123765 423.633152 
L 551.343398 389.934718 
L 551.56303 405.472706 
L 551.782662 471.951363 
L 552.002295 396.298891 
L 552.221927 559.11612 
L 552.441559 432.36579 
L 552.661191 377.705644 
L 553.100456 522.851321 
L 553.320088 454.088618 
L 553.539721 438.430487 
L 553.759353 495.750405 
L 553.978985 393.511853 
L 554.198617 503.232248 
L 554.41825 388.130031 
L 554.637882 472.736455 
L 554.857514 378.154906 
L 555.077147 484.70411 
L 555.516411 453.591219 
L 555.736043 455.504029 
L 555.955676 302.138066 
L 556.175308 486.618165 
L 556.39494 396.655374 
L 556.834205 475.232951 
L 557.053837 265.635143 
L 557.273469 505.863337 
L 557.493102 489.831905 
L 557.712734 456.266936 
L 557.932366 328.102649 
L 558.151999 484.045704 
L 558.371631 411.06945 
L 558.591263 450.207395 
L 558.810895 308.569856 
L 559.030528 324.79619 
L 559.25016 417.012443 
L 559.469792 447.586714 
L 559.689425 314.852448 
L 559.909057 425.694673 
L 559.909057 425.694673 
" style="fill:none;stroke:#96c69a;stroke-linecap:round;stroke-width:3;"/>
   </g>
   <g id="line2d_2"/>
   <g id="patch_3">
    <path d="M 98.911875 602.94 
L 98.911875 109.326857 
" style="fill:none;stroke:#262626;stroke-linecap:square;stroke-linejoin:miter;stroke-width:2.5;"/>
   </g>
   <g id="patch_4">
    <path d="M 98.911875 602.94 
L 581.861304 602.94 
" style="fill:none;stroke:#262626;stroke-linecap:square;stroke-linejoin:miter;stroke-width:2.5;"/>
   </g>
   <g id="legend_1">
    <g id="patch_5">
     <path d="M 521.987866 597.94 
L 574.861304 597.94 
Q 576.861304 597.94 576.861304 595.94 
L 576.861304 554.034375 
Q 576.861304 552.034375 574.861304 552.034375 
L 521.987866 552.034375 
Q 519.987866 552.034375 519.987866 554.034375 
L 519.987866 595.94 
Q 519.987866 597.94 521.987866 597.94 
z
" style="fill:#ffffff;opacity:0.8;stroke:#cccccc;stroke-linejoin:miter;stroke-width:2;"/>
    </g>
    <g id="text_17">
     <!-- $n_\tau$ -->
     <g style="fill:#262626;" transform="translate(535.344585 574.270625)scale(0.24 -0.24)">
      <defs>
       <path d="M 3566 2113 
L 3156 0 
L 2578 0 
L 2988 2091 
Q 3016 2238 3031 2350 
Q 3047 2463 3047 2528 
Q 3047 2791 2881 2937 
Q 2716 3084 2419 3084 
Q 1956 3084 1622 2776 
Q 1288 2469 1184 1941 
L 800 0 
L 225 0 
L 903 3500 
L 1478 3500 
L 1363 2950 
Q 1603 3253 1940 3418 
Q 2278 3584 2650 3584 
Q 3113 3584 3367 3334 
Q 3622 3084 3622 2631 
Q 3622 2519 3608 2391 
Q 3594 2263 3566 2113 
z
" id="DejaVuSans-Oblique-6e" transform="scale(0.015625)"/>
       <path d="M 2103 638 
Q 2188 488 2525 488 
L 2800 488 
L 2706 0 
L 2363 0 
Q 1800 0 1600 300 
Q 1403 606 1534 1269 
L 1856 2925 
L 541 2925 
L 653 3500 
L 3881 3500 
L 3769 2925 
L 2444 2925 
L 2113 1234 
Q 2025 781 2103 638 
z
" id="DejaVuSans-Oblique-3c4" transform="scale(0.015625)"/>
      </defs>
      <use xlink:href="#DejaVuSans-Oblique-6e"/>
      <use transform="translate(63.378906 -16.40625)scale(0.7)" xlink:href="#DejaVuSans-Oblique-3c4"/>
     </g>
    </g>
    <g id="line2d_3">
     <path d="M 523.987866 588.360312 
L 543.987866 588.360312 
" style="fill:none;stroke:#96c69a;stroke-linecap:round;stroke-width:3;"/>
    </g>
    <g id="line2d_4"/>
    <g id="text_18">
     <!-- 100 -->
     <g style="fill:#262626;" transform="translate(551.987866 591.860312)scale(0.1 -0.1)">
      <defs>
       <path d="M 750 831 
L 1813 831 
L 1813 3847 
L 722 3622 
L 722 4441 
L 1806 4666 
L 2950 4666 
L 2950 831 
L 4013 831 
L 4013 0 
L 750 0 
L 750 831 
z
" id="DejaVuSans-Bold-31" transform="scale(0.015625)"/>
       <path d="M 2944 2338 
Q 2944 3213 2780 3570 
Q 2616 3928 2228 3928 
Q 1841 3928 1675 3570 
Q 1509 3213 1509 2338 
Q 1509 1453 1675 1090 
Q 1841 728 2228 728 
Q 2613 728 2778 1090 
Q 2944 1453 2944 2338 
z
M 4147 2328 
Q 4147 1169 3647 539 
Q 3147 -91 2228 -91 
Q 1306 -91 806 539 
Q 306 1169 306 2328 
Q 306 3491 806 4120 
Q 1306 4750 2228 4750 
Q 3147 4750 3647 4120 
Q 4147 3491 4147 2328 
z
" id="DejaVuSans-Bold-30" transform="scale(0.015625)"/>
      </defs>
      <use xlink:href="#DejaVuSans-Bold-31"/>
      <use x="69.580078" xlink:href="#DejaVuSans-Bold-30"/>
      <use x="139.160156" xlink:href="#DejaVuSans-Bold-30"/>
     </g>
    </g>
   </g>
  </g>
  <g id="axes_2">
   <g id="patch_6">
    <path d="M 98.911875 92.305714 
L 581.861304 92.305714 
L 581.861304 7.2 
L 98.911875 7.2 
z
" style="fill:none;"/>
   </g>
   <g id="matplotlib.axis_3">
    <g id="xtick_7"/>
    <g id="xtick_8"/>
    <g id="xtick_9"/>
    <g id="xtick_10"/>
    <g id="xtick_11"/>
    <g id="xtick_12"/>
   </g>
   <g id="matplotlib.axis_4">
    <g id="ytick_9">
     <g id="text_19">
      <!-- 0 -->
      <g style="fill:#262626;" transform="translate(69.414375 100.663996)scale(0.22 -0.22)">
       <use xlink:href="#DejaVuSans-30"/>
      </g>
     </g>
    </g>
    <g id="ytick_10">
     <g id="text_20">
      <!-- 100 -->
      <g style="fill:#262626;" transform="translate(41.419375 48.032138)scale(0.22 -0.22)">
       <use xlink:href="#DejaVuSans-31"/>
       <use x="63.623047" xlink:href="#DejaVuSans-30"/>
       <use x="127.246094" xlink:href="#DejaVuSans-30"/>
      </g>
     </g>
    </g>
   </g>
   <g id="patch_7">
    <path clip-path="url(#p633b8a6c3e)" d="M 120.864122 92.305714 
L 154.636809 92.305714 
L 154.636809 11.252653 
L 120.864122 11.252653 
z
" style="fill:#96c69a;fill-opacity:0.5;stroke:#ffffff;stroke-linejoin:miter;stroke-width:2;"/>
   </g>
   <g id="patch_8">
    <path clip-path="url(#p633b8a6c3e)" d="M 154.636809 92.305714 
L 188.409496 92.305714 
L 188.409496 11.252653 
L 154.636809 11.252653 
z
" style="fill:#96c69a;fill-opacity:0.5;stroke:#ffffff;stroke-linejoin:miter;stroke-width:2;"/>
   </g>
   <g id="patch_9">
    <path clip-path="url(#p633b8a6c3e)" d="M 188.409496 92.305714 
L 222.182184 92.305714 
L 222.182184 11.252653 
L 188.409496 11.252653 
z
" style="fill:#96c69a;fill-opacity:0.5;stroke:#ffffff;stroke-linejoin:miter;stroke-width:2;"/>
   </g>
   <g id="patch_10">
    <path clip-path="url(#p633b8a6c3e)" d="M 222.182184 92.305714 
L 255.954871 92.305714 
L 255.954871 11.252653 
L 222.182184 11.252653 
z
" style="fill:#96c69a;fill-opacity:0.5;stroke:#ffffff;stroke-linejoin:miter;stroke-width:2;"/>
   </g>
   <g id="patch_11">
    <path clip-path="url(#p633b8a6c3e)" d="M 255.954871 92.305714 
L 289.727558 92.305714 
L 289.727558 11.778972 
L 255.954871 11.778972 
z
" style="fill:#96c69a;fill-opacity:0.5;stroke:#ffffff;stroke-linejoin:miter;stroke-width:2;"/>
   </g>
   <g id="patch_12">
    <path clip-path="url(#p633b8a6c3e)" d="M 289.727558 92.305714 
L 323.500246 92.305714 
L 323.500246 11.252653 
L 289.727558 11.252653 
z
" style="fill:#96c69a;fill-opacity:0.5;stroke:#ffffff;stroke-linejoin:miter;stroke-width:2;"/>
   </g>
   <g id="patch_13">
    <path clip-path="url(#p633b8a6c3e)" d="M 323.500246 92.305714 
L 357.272933 92.305714 
L 357.272933 11.252653 
L 323.500246 11.252653 
z
" style="fill:#96c69a;fill-opacity:0.5;stroke:#ffffff;stroke-linejoin:miter;stroke-width:2;"/>
   </g>
   <g id="patch_14">
    <path clip-path="url(#p633b8a6c3e)" d="M 357.272933 92.305714 
L 391.04562 92.305714 
L 391.04562 11.252653 
L 357.272933 11.252653 
z
" style="fill:#96c69a;fill-opacity:0.5;stroke:#ffffff;stroke-linejoin:miter;stroke-width:2;"/>
   </g>
   <g id="patch_15">
    <path clip-path="url(#p633b8a6c3e)" d="M 391.04562 92.305714 
L 424.818308 92.305714 
L 424.818308 11.778972 
L 391.04562 11.778972 
z
" style="fill:#96c69a;fill-opacity:0.5;stroke:#ffffff;stroke-linejoin:miter;stroke-width:2;"/>
   </g>
   <g id="patch_16">
    <path clip-path="url(#p633b8a6c3e)" d="M 424.818308 92.305714 
L 458.590995 92.305714 
L 458.590995 11.252653 
L 424.818308 11.252653 
z
" style="fill:#96c69a;fill-opacity:0.5;stroke:#ffffff;stroke-linejoin:miter;stroke-width:2;"/>
   </g>
   <g id="patch_17">
    <path clip-path="url(#p633b8a6c3e)" d="M 458.590995 92.305714 
L 492.363682 92.305714 
L 492.363682 11.252653 
L 458.590995 11.252653 
z
" style="fill:#96c69a;fill-opacity:0.5;stroke:#ffffff;stroke-linejoin:miter;stroke-width:2;"/>
   </g>
   <g id="patch_18">
    <path clip-path="url(#p633b8a6c3e)" d="M 492.363682 92.305714 
L 526.13637 92.305714 
L 526.13637 11.252653 
L 492.363682 11.252653 
z
" style="fill:#96c69a;fill-opacity:0.5;stroke:#ffffff;stroke-linejoin:miter;stroke-width:2;"/>
   </g>
   <g id="patch_19">
    <path clip-path="url(#p633b8a6c3e)" d="M 526.13637 92.305714 
L 559.909057 92.305714 
L 559.909057 11.252653 
L 526.13637 11.252653 
z
" style="fill:#96c69a;fill-opacity:0.5;stroke:#ffffff;stroke-linejoin:miter;stroke-width:2;"/>
   </g>
   <g id="patch_20">
    <path d="M 98.911875 92.305714 
L 98.911875 7.2 
" style="fill:none;stroke:#262626;stroke-linecap:square;stroke-linejoin:miter;stroke-width:2.5;"/>
   </g>
   <g id="patch_21">
    <path d="M 98.911875 92.305714 
L 581.861304 92.305714 
" style="fill:none;stroke:#262626;stroke-linecap:square;stroke-linejoin:miter;stroke-width:2.5;"/>
   </g>
  </g>
  <g id="axes_3">
   <g id="patch_22">
    <path d="M 598.514732 602.94 
L 681.781875 602.94 
L 681.781875 109.326857 
L 598.514732 109.326857 
z
" style="fill:none;"/>
   </g>
   <g id="matplotlib.axis_5">
    <g id="xtick_13">
     <g id="text_21">
      <!-- 0 -->
      <g style="fill:#262626;" transform="translate(591.515982 635.156562)scale(0.22 -0.22)">
       <use xlink:href="#DejaVuSans-30"/>
      </g>
     </g>
    </g>
    <g id="xtick_14">
     <g id="text_22">
      <!-- 100 -->
      <g style="fill:#262626;" transform="translate(621.821298 635.156562)scale(0.22 -0.22)">
       <use xlink:href="#DejaVuSans-31"/>
       <use x="63.623047" xlink:href="#DejaVuSans-30"/>
       <use x="127.246094" xlink:href="#DejaVuSans-30"/>
      </g>
     </g>
    </g>
   </g>
   <g id="matplotlib.axis_6">
    <g id="ytick_11"/>
    <g id="ytick_12"/>
    <g id="ytick_13"/>
    <g id="ytick_14"/>
    <g id="ytick_15"/>
    <g id="ytick_16"/>
    <g id="ytick_17"/>
    <g id="ytick_18"/>
   </g>
   <g id="patch_23">
    <path clip-path="url(#p1deb407103)" d="M 598.514732 580.503039 
L 603.83107 580.503039 
L 603.83107 567.681918 
L 598.514732 567.681918 
z
" style="fill:#96c69a;fill-opacity:0.5;stroke:#ffffff;stroke-linejoin:miter;stroke-width:1.282112;"/>
   </g>
   <g id="patch_24">
    <path clip-path="url(#p1deb407103)" d="M 598.514732 567.681918 
L 602.501986 567.681918 
L 602.501986 554.860798 
L 598.514732 554.860798 
z
" style="fill:#96c69a;fill-opacity:0.5;stroke:#ffffff;stroke-linejoin:miter;stroke-width:1.282112;"/>
   </g>
   <g id="patch_25">
    <path clip-path="url(#p1deb407103)" d="M 598.514732 554.860798 
L 607.375295 554.860798 
L 607.375295 542.039677 
L 598.514732 542.039677 
z
" style="fill:#96c69a;fill-opacity:0.5;stroke:#ffffff;stroke-linejoin:miter;stroke-width:1.282112;"/>
   </g>
   <g id="patch_26">
    <path clip-path="url(#p1deb407103)" d="M 598.514732 542.039677 
L 618.450999 542.039677 
L 618.450999 529.218557 
L 598.514732 529.218557 
z
" style="fill:#96c69a;fill-opacity:0.5;stroke:#ffffff;stroke-linejoin:miter;stroke-width:1.282112;"/>
   </g>
   <g id="patch_27">
    <path clip-path="url(#p1deb407103)" d="M 598.514732 529.218557 
L 623.324309 529.218557 
L 623.324309 516.397436 
L 598.514732 516.397436 
z
" style="fill:#96c69a;fill-opacity:0.5;stroke:#ffffff;stroke-linejoin:miter;stroke-width:1.282112;"/>
   </g>
   <g id="patch_28">
    <path clip-path="url(#p1deb407103)" d="M 598.514732 516.397436 
L 639.716351 516.397436 
L 639.716351 503.576315 
L 598.514732 503.576315 
z
" style="fill:#96c69a;fill-opacity:0.5;stroke:#ffffff;stroke-linejoin:miter;stroke-width:1.282112;"/>
   </g>
   <g id="patch_29">
    <path clip-path="url(#p1deb407103)" d="M 598.514732 503.576315 
L 654.33628 503.576315 
L 654.33628 490.755195 
L 598.514732 490.755195 
z
" style="fill:#96c69a;fill-opacity:0.5;stroke:#ffffff;stroke-linejoin:miter;stroke-width:1.282112;"/>
   </g>
   <g id="patch_30">
    <path clip-path="url(#p1deb407103)" d="M 598.514732 490.755195 
L 664.968956 490.755195 
L 664.968956 477.934074 
L 598.514732 477.934074 
z
" style="fill:#96c69a;fill-opacity:0.5;stroke:#ffffff;stroke-linejoin:miter;stroke-width:1.282112;"/>
   </g>
   <g id="patch_31">
    <path clip-path="url(#p1deb407103)" d="M 598.514732 477.934074 
L 671.171351 477.934074 
L 671.171351 465.112954 
L 598.514732 465.112954 
z
" style="fill:#96c69a;fill-opacity:0.5;stroke:#ffffff;stroke-linejoin:miter;stroke-width:1.282112;"/>
   </g>
   <g id="patch_32">
    <path clip-path="url(#p1deb407103)" d="M 598.514732 465.112954 
L 673.386491 465.112954 
L 673.386491 452.291833 
L 598.514732 452.291833 
z
" style="fill:#96c69a;fill-opacity:0.5;stroke:#ffffff;stroke-linejoin:miter;stroke-width:1.282112;"/>
   </g>
   <g id="patch_33">
    <path clip-path="url(#p1deb407103)" d="M 598.514732 452.291833 
L 677.816773 452.291833 
L 677.816773 439.470712 
L 598.514732 439.470712 
z
" style="fill:#96c69a;fill-opacity:0.5;stroke:#ffffff;stroke-linejoin:miter;stroke-width:1.282112;"/>
   </g>
   <g id="patch_34">
    <path clip-path="url(#p1deb407103)" d="M 598.514732 439.470712 
L 672.943463 439.470712 
L 672.943463 426.649592 
L 598.514732 426.649592 
z
" style="fill:#96c69a;fill-opacity:0.5;stroke:#ffffff;stroke-linejoin:miter;stroke-width:1.282112;"/>
   </g>
   <g id="patch_35">
    <path clip-path="url(#p1deb407103)" d="M 598.514732 426.649592 
L 653.450224 426.649592 
L 653.450224 413.828471 
L 598.514732 413.828471 
z
" style="fill:#96c69a;fill-opacity:0.5;stroke:#ffffff;stroke-linejoin:miter;stroke-width:1.282112;"/>
   </g>
   <g id="patch_36">
    <path clip-path="url(#p1deb407103)" d="M 598.514732 413.828471 
L 659.652618 413.828471 
L 659.652618 401.007351 
L 598.514732 401.007351 
z
" style="fill:#96c69a;fill-opacity:0.5;stroke:#ffffff;stroke-linejoin:miter;stroke-width:1.282112;"/>
   </g>
   <g id="patch_37">
    <path clip-path="url(#p1deb407103)" d="M 598.514732 401.007351 
L 648.133886 401.007351 
L 648.133886 388.18623 
L 598.514732 388.18623 
z
" style="fill:#96c69a;fill-opacity:0.5;stroke:#ffffff;stroke-linejoin:miter;stroke-width:1.282112;"/>
   </g>
   <g id="patch_38">
    <path clip-path="url(#p1deb407103)" d="M 598.514732 388.18623 
L 635.28607 388.18623 
L 635.28607 375.365109 
L 598.514732 375.365109 
z
" style="fill:#96c69a;fill-opacity:0.5;stroke:#ffffff;stroke-linejoin:miter;stroke-width:1.282112;"/>
   </g>
   <g id="patch_39">
    <path clip-path="url(#p1deb407103)" d="M 598.514732 375.365109 
L 632.184872 375.365109 
L 632.184872 362.543989 
L 598.514732 362.543989 
z
" style="fill:#96c69a;fill-opacity:0.5;stroke:#ffffff;stroke-linejoin:miter;stroke-width:1.282112;"/>
   </g>
   <g id="patch_40">
    <path clip-path="url(#p1deb407103)" d="M 598.514732 362.543989 
L 625.096422 362.543989 
L 625.096422 349.722868 
L 598.514732 349.722868 
z
" style="fill:#96c69a;fill-opacity:0.5;stroke:#ffffff;stroke-linejoin:miter;stroke-width:1.282112;"/>
   </g>
   <g id="patch_41">
    <path clip-path="url(#p1deb407103)" d="M 598.514732 349.722868 
L 621.109168 349.722868 
L 621.109168 336.901748 
L 598.514732 336.901748 
z
" style="fill:#96c69a;fill-opacity:0.5;stroke:#ffffff;stroke-linejoin:miter;stroke-width:1.282112;"/>
   </g>
   <g id="patch_42">
    <path clip-path="url(#p1deb407103)" d="M 598.514732 336.901748 
L 617.564943 336.901748 
L 617.564943 324.080627 
L 598.514732 324.080627 
z
" style="fill:#96c69a;fill-opacity:0.5;stroke:#ffffff;stroke-linejoin:miter;stroke-width:1.282112;"/>
   </g>
   <g id="patch_43">
    <path clip-path="url(#p1deb407103)" d="M 598.514732 324.080627 
L 606.932267 324.080627 
L 606.932267 311.259506 
L 598.514732 311.259506 
z
" style="fill:#96c69a;fill-opacity:0.5;stroke:#ffffff;stroke-linejoin:miter;stroke-width:1.282112;"/>
   </g>
   <g id="patch_44">
    <path clip-path="url(#p1deb407103)" d="M 598.514732 311.259506 
L 611.805577 311.259506 
L 611.805577 298.438386 
L 598.514732 298.438386 
z
" style="fill:#96c69a;fill-opacity:0.5;stroke:#ffffff;stroke-linejoin:miter;stroke-width:1.282112;"/>
   </g>
   <g id="patch_45">
    <path clip-path="url(#p1deb407103)" d="M 598.514732 298.438386 
L 605.603183 298.438386 
L 605.603183 285.617265 
L 598.514732 285.617265 
z
" style="fill:#96c69a;fill-opacity:0.5;stroke:#ffffff;stroke-linejoin:miter;stroke-width:1.282112;"/>
   </g>
   <g id="patch_46">
    <path clip-path="url(#p1deb407103)" d="M 598.514732 285.617265 
L 606.046211 285.617265 
L 606.046211 272.796145 
L 598.514732 272.796145 
z
" style="fill:#96c69a;fill-opacity:0.5;stroke:#ffffff;stroke-linejoin:miter;stroke-width:1.282112;"/>
   </g>
   <g id="patch_47">
    <path clip-path="url(#p1deb407103)" d="M 598.514732 272.796145 
L 602.945014 272.796145 
L 602.945014 259.975024 
L 598.514732 259.975024 
z
" style="fill:#96c69a;fill-opacity:0.5;stroke:#ffffff;stroke-linejoin:miter;stroke-width:1.282112;"/>
   </g>
   <g id="patch_48">
    <path clip-path="url(#p1deb407103)" d="M 598.514732 259.975024 
L 600.729873 259.975024 
L 600.729873 247.153904 
L 598.514732 247.153904 
z
" style="fill:#96c69a;fill-opacity:0.5;stroke:#ffffff;stroke-linejoin:miter;stroke-width:1.282112;"/>
   </g>
   <g id="patch_49">
    <path clip-path="url(#p1deb407103)" d="M 598.514732 247.153904 
L 599.843817 247.153904 
L 599.843817 234.332783 
L 598.514732 234.332783 
z
" style="fill:#96c69a;fill-opacity:0.5;stroke:#ffffff;stroke-linejoin:miter;stroke-width:1.282112;"/>
   </g>
   <g id="patch_50">
    <path clip-path="url(#p1deb407103)" d="M 598.514732 234.332783 
L 600.729873 234.332783 
L 600.729873 221.511662 
L 598.514732 221.511662 
z
" style="fill:#96c69a;fill-opacity:0.5;stroke:#ffffff;stroke-linejoin:miter;stroke-width:1.282112;"/>
   </g>
   <g id="patch_51">
    <path clip-path="url(#p1deb407103)" d="M 598.514732 221.511662 
L 601.172901 221.511662 
L 601.172901 208.690542 
L 598.514732 208.690542 
z
" style="fill:#96c69a;fill-opacity:0.5;stroke:#ffffff;stroke-linejoin:miter;stroke-width:1.282112;"/>
   </g>
   <g id="patch_52">
    <path clip-path="url(#p1deb407103)" d="M 598.514732 208.690542 
L 599.843817 208.690542 
L 599.843817 195.869421 
L 598.514732 195.869421 
z
" style="fill:#96c69a;fill-opacity:0.5;stroke:#ffffff;stroke-linejoin:miter;stroke-width:1.282112;"/>
   </g>
   <g id="patch_53">
    <path clip-path="url(#p1deb407103)" d="M 598.514732 195.869421 
L 599.400788 195.869421 
L 599.400788 183.048301 
L 598.514732 183.048301 
z
" style="fill:#96c69a;fill-opacity:0.5;stroke:#ffffff;stroke-linejoin:miter;stroke-width:1.282112;"/>
   </g>
   <g id="patch_54">
    <path clip-path="url(#p1deb407103)" d="M 598.514732 183.048301 
L 598.514732 183.048301 
L 598.514732 170.22718 
L 598.514732 170.22718 
z
" style="fill:#96c69a;fill-opacity:0.5;stroke:#ffffff;stroke-linejoin:miter;stroke-width:1.282112;"/>
   </g>
   <g id="patch_55">
    <path clip-path="url(#p1deb407103)" d="M 598.514732 170.22718 
L 599.843817 170.22718 
L 599.843817 157.406059 
L 598.514732 157.406059 
z
" style="fill:#96c69a;fill-opacity:0.5;stroke:#ffffff;stroke-linejoin:miter;stroke-width:1.282112;"/>
   </g>
   <g id="patch_56">
    <path clip-path="url(#p1deb407103)" d="M 598.514732 157.406059 
L 598.95776 157.406059 
L 598.95776 144.584939 
L 598.514732 144.584939 
z
" style="fill:#96c69a;fill-opacity:0.5;stroke:#ffffff;stroke-linejoin:miter;stroke-width:1.282112;"/>
   </g>
   <g id="patch_57">
    <path clip-path="url(#p1deb407103)" d="M 598.514732 144.584939 
L 599.400788 144.584939 
L 599.400788 131.763818 
L 598.514732 131.763818 
z
" style="fill:#96c69a;fill-opacity:0.5;stroke:#ffffff;stroke-linejoin:miter;stroke-width:1.282112;"/>
   </g>
   <g id="patch_58">
    <path d="M 598.514732 602.94 
L 598.514732 109.326857 
" style="fill:none;stroke:#262626;stroke-linecap:square;stroke-linejoin:miter;stroke-width:2.5;"/>
   </g>
   <g id="patch_59">
    <path d="M 598.514732 602.94 
L 681.781875 602.94 
" style="fill:none;stroke:#262626;stroke-linecap:square;stroke-linejoin:miter;stroke-width:2.5;"/>
   </g>
  </g>
 </g>
 <defs>
  <clipPath id="pd3636879ee">
   <rect height="493.613143" width="482.949429" x="98.911875" y="109.326857"/>
  </clipPath>
  <clipPath id="p633b8a6c3e">
   <rect height="85.105714" width="482.949429" x="98.911875" y="7.2"/>
  </clipPath>
  <clipPath id="p1deb407103">
   <rect height="493.613143" width="83.267143" x="598.514732" y="109.326857"/>
  </clipPath>
 </defs>
</svg>
