<?xml version="1.0" encoding="utf-8" standalone="no"?>
<!DOCTYPE svg PUBLIC "-//W3C//DTD SVG 1.1//EN"
  "http://www.w3.org/Graphics/SVG/1.1/DTD/svg11.dtd">
<svg height="674.159375pt" version="1.1" viewBox="0 0 674.984375 674.159375" width="674.984375pt" xmlns="http://www.w3.org/2000/svg" xmlns:xlink="http://www.w3.org/1999/xlink">
 <metadata>
  <rdf:RDF xmlns:cc="http://creativecommons.org/ns#" xmlns:dc="http://purl.org/dc/elements/1.1/" xmlns:rdf="http://www.w3.org/1999/02/22-rdf-syntax-ns#">
   <cc:Work>
    <dc:type rdf:resource="http://purl.org/dc/dcmitype/StillImage"/>
    <dc:date>2021-07-24T14:58:15.427473</dc:date>
    <dc:format>image/svg+xml</dc:format>
    <dc:creator>
     <cc:Agent>
      <dc:title>Matplotlib v3.4.2, https://matplotlib.org/</dc:title>
     </cc:Agent>
    </dc:creator>
   </cc:Work>
  </rdf:RDF>
 </metadata>
 <defs>
  <style type="text/css">*{stroke-linecap:butt;stroke-linejoin:round;}</style>
 </defs>
 <g id="figure_1">
  <g id="patch_1">
   <path d="M 0 674.159375 
L 674.984375 674.159375 
L 674.984375 0 
L 0 0 
z
" style="fill:#ffffff;"/>
  </g>
  <g id="axes_1">
   <g id="patch_2">
    <path d="M 84.914375 602.94 
L 567.863804 602.94 
L 567.863804 109.326857 
L 84.914375 109.326857 
z
" style="fill:none;"/>
   </g>
   <g id="matplotlib.axis_1">
    <g id="xtick_1">
     <g id="text_1">
      <!-- 0 -->
      <g style="fill:#262626;" transform="translate(99.648239 635.156562)scale(0.22 -0.22)">
       <defs>
        <path d="M 2034 4250 
Q 1547 4250 1301 3770 
Q 1056 3291 1056 2328 
Q 1056 1369 1301 889 
Q 1547 409 2034 409 
Q 2525 409 2770 889 
Q 3016 1369 3016 2328 
Q 3016 3291 2770 3770 
Q 2525 4250 2034 4250 
z
M 2034 4750 
Q 2819 4750 3233 4129 
Q 3647 3509 3647 2328 
Q 3647 1150 3233 529 
Q 2819 -91 2034 -91 
Q 1250 -91 836 529 
Q 422 1150 422 2328 
Q 422 3509 836 4129 
Q 1250 4750 2034 4750 
z
" id="DejaVuSans-30" transform="scale(0.015625)"/>
       </defs>
       <use xlink:href="#DejaVuSans-30"/>
      </g>
     </g>
    </g>
    <g id="xtick_2">
     <g id="text_2">
      <!-- 20000 -->
      <g style="fill:#262626;" transform="translate(159.506153 635.156562)scale(0.22 -0.22)">
       <defs>
        <path d="M 1228 531 
L 3431 531 
L 3431 0 
L 469 0 
L 469 531 
Q 828 903 1448 1529 
Q 2069 2156 2228 2338 
Q 2531 2678 2651 2914 
Q 2772 3150 2772 3378 
Q 2772 3750 2511 3984 
Q 2250 4219 1831 4219 
Q 1534 4219 1204 4116 
Q 875 4013 500 3803 
L 500 4441 
Q 881 4594 1212 4672 
Q 1544 4750 1819 4750 
Q 2544 4750 2975 4387 
Q 3406 4025 3406 3419 
Q 3406 3131 3298 2873 
Q 3191 2616 2906 2266 
Q 2828 2175 2409 1742 
Q 1991 1309 1228 531 
z
" id="DejaVuSans-32" transform="scale(0.015625)"/>
       </defs>
       <use xlink:href="#DejaVuSans-32"/>
       <use x="63.623047" xlink:href="#DejaVuSans-30"/>
       <use x="127.246094" xlink:href="#DejaVuSans-30"/>
       <use x="190.869141" xlink:href="#DejaVuSans-30"/>
       <use x="254.492188" xlink:href="#DejaVuSans-30"/>
      </g>
     </g>
    </g>
    <g id="xtick_3">
     <g id="text_3">
      <!-- 40000 -->
      <g style="fill:#262626;" transform="translate(247.359066 635.156562)scale(0.22 -0.22)">
       <defs>
        <path d="M 2419 4116 
L 825 1625 
L 2419 1625 
L 2419 4116 
z
M 2253 4666 
L 3047 4666 
L 3047 1625 
L 3713 1625 
L 3713 1100 
L 3047 1100 
L 3047 0 
L 2419 0 
L 2419 1100 
L 313 1100 
L 313 1709 
L 2253 4666 
z
" id="DejaVuSans-34" transform="scale(0.015625)"/>
       </defs>
       <use xlink:href="#DejaVuSans-34"/>
       <use x="63.623047" xlink:href="#DejaVuSans-30"/>
       <use x="127.246094" xlink:href="#DejaVuSans-30"/>
       <use x="190.869141" xlink:href="#DejaVuSans-30"/>
       <use x="254.492188" xlink:href="#DejaVuSans-30"/>
      </g>
     </g>
    </g>
    <g id="xtick_4">
     <g id="text_4">
      <!-- 60000 -->
      <g style="fill:#262626;" transform="translate(335.21198 635.156562)scale(0.22 -0.22)">
       <defs>
        <path d="M 2113 2584 
Q 1688 2584 1439 2293 
Q 1191 2003 1191 1497 
Q 1191 994 1439 701 
Q 1688 409 2113 409 
Q 2538 409 2786 701 
Q 3034 994 3034 1497 
Q 3034 2003 2786 2293 
Q 2538 2584 2113 2584 
z
M 3366 4563 
L 3366 3988 
Q 3128 4100 2886 4159 
Q 2644 4219 2406 4219 
Q 1781 4219 1451 3797 
Q 1122 3375 1075 2522 
Q 1259 2794 1537 2939 
Q 1816 3084 2150 3084 
Q 2853 3084 3261 2657 
Q 3669 2231 3669 1497 
Q 3669 778 3244 343 
Q 2819 -91 2113 -91 
Q 1303 -91 875 529 
Q 447 1150 447 2328 
Q 447 3434 972 4092 
Q 1497 4750 2381 4750 
Q 2619 4750 2861 4703 
Q 3103 4656 3366 4563 
z
" id="DejaVuSans-36" transform="scale(0.015625)"/>
       </defs>
       <use xlink:href="#DejaVuSans-36"/>
       <use x="63.623047" xlink:href="#DejaVuSans-30"/>
       <use x="127.246094" xlink:href="#DejaVuSans-30"/>
       <use x="190.869141" xlink:href="#DejaVuSans-30"/>
       <use x="254.492188" xlink:href="#DejaVuSans-30"/>
      </g>
     </g>
    </g>
    <g id="xtick_5">
     <g id="text_5">
      <!-- 80000 -->
      <g style="fill:#262626;" transform="translate(423.064893 635.156562)scale(0.22 -0.22)">
       <defs>
        <path d="M 2034 2216 
Q 1584 2216 1326 1975 
Q 1069 1734 1069 1313 
Q 1069 891 1326 650 
Q 1584 409 2034 409 
Q 2484 409 2743 651 
Q 3003 894 3003 1313 
Q 3003 1734 2745 1975 
Q 2488 2216 2034 2216 
z
M 1403 2484 
Q 997 2584 770 2862 
Q 544 3141 544 3541 
Q 544 4100 942 4425 
Q 1341 4750 2034 4750 
Q 2731 4750 3128 4425 
Q 3525 4100 3525 3541 
Q 3525 3141 3298 2862 
Q 3072 2584 2669 2484 
Q 3125 2378 3379 2068 
Q 3634 1759 3634 1313 
Q 3634 634 3220 271 
Q 2806 -91 2034 -91 
Q 1263 -91 848 271 
Q 434 634 434 1313 
Q 434 1759 690 2068 
Q 947 2378 1403 2484 
z
M 1172 3481 
Q 1172 3119 1398 2916 
Q 1625 2713 2034 2713 
Q 2441 2713 2670 2916 
Q 2900 3119 2900 3481 
Q 2900 3844 2670 4047 
Q 2441 4250 2034 4250 
Q 1625 4250 1398 4047 
Q 1172 3844 1172 3481 
z
" id="DejaVuSans-38" transform="scale(0.015625)"/>
       </defs>
       <use xlink:href="#DejaVuSans-38"/>
       <use x="63.623047" xlink:href="#DejaVuSans-30"/>
       <use x="127.246094" xlink:href="#DejaVuSans-30"/>
       <use x="190.869141" xlink:href="#DejaVuSans-30"/>
       <use x="254.492188" xlink:href="#DejaVuSans-30"/>
      </g>
     </g>
    </g>
    <g id="xtick_6">
     <g id="text_6">
      <!-- 100000 -->
      <g style="fill:#262626;" transform="translate(503.919057 635.156562)scale(0.22 -0.22)">
       <defs>
        <path d="M 794 531 
L 1825 531 
L 1825 4091 
L 703 3866 
L 703 4441 
L 1819 4666 
L 2450 4666 
L 2450 531 
L 3481 531 
L 3481 0 
L 794 0 
L 794 531 
z
" id="DejaVuSans-31" transform="scale(0.015625)"/>
       </defs>
       <use xlink:href="#DejaVuSans-31"/>
       <use x="63.623047" xlink:href="#DejaVuSans-30"/>
       <use x="127.246094" xlink:href="#DejaVuSans-30"/>
       <use x="190.869141" xlink:href="#DejaVuSans-30"/>
       <use x="254.492188" xlink:href="#DejaVuSans-30"/>
       <use x="318.115234" xlink:href="#DejaVuSans-30"/>
      </g>
     </g>
    </g>
    <g id="text_7">
     <!-- MDTU -->
     <g style="fill:#262626;" transform="translate(290.683464 661.968125)scale(0.24 -0.24)">
      <defs>
       <path d="M 628 4666 
L 1569 4666 
L 2759 1491 
L 3956 4666 
L 4897 4666 
L 4897 0 
L 4281 0 
L 4281 4097 
L 3078 897 
L 2444 897 
L 1241 4097 
L 1241 0 
L 628 0 
L 628 4666 
z
" id="DejaVuSans-4d" transform="scale(0.015625)"/>
       <path d="M 1259 4147 
L 1259 519 
L 2022 519 
Q 2988 519 3436 956 
Q 3884 1394 3884 2338 
Q 3884 3275 3436 3711 
Q 2988 4147 2022 4147 
L 1259 4147 
z
M 628 4666 
L 1925 4666 
Q 3281 4666 3915 4102 
Q 4550 3538 4550 2338 
Q 4550 1131 3912 565 
Q 3275 0 1925 0 
L 628 0 
L 628 4666 
z
" id="DejaVuSans-44" transform="scale(0.015625)"/>
       <path d="M -19 4666 
L 3928 4666 
L 3928 4134 
L 2272 4134 
L 2272 0 
L 1638 0 
L 1638 4134 
L -19 4134 
L -19 4666 
z
" id="DejaVuSans-54" transform="scale(0.015625)"/>
       <path d="M 556 4666 
L 1191 4666 
L 1191 1831 
Q 1191 1081 1462 751 
Q 1734 422 2344 422 
Q 2950 422 3222 751 
Q 3494 1081 3494 1831 
L 3494 4666 
L 4128 4666 
L 4128 1753 
Q 4128 841 3676 375 
Q 3225 -91 2344 -91 
Q 1459 -91 1007 375 
Q 556 841 556 1753 
L 556 4666 
z
" id="DejaVuSans-55" transform="scale(0.015625)"/>
      </defs>
      <use xlink:href="#DejaVuSans-4d"/>
      <use x="86.279297" xlink:href="#DejaVuSans-44"/>
      <use x="163.28125" xlink:href="#DejaVuSans-54"/>
      <use x="224.365234" xlink:href="#DejaVuSans-55"/>
     </g>
    </g>
   </g>
   <g id="matplotlib.axis_2">
    <g id="ytick_1">
     <g id="text_8">
      <!-- 0.4 -->
      <g style="fill:#262626;" transform="translate(34.4275 583.929589)scale(0.22 -0.22)">
       <defs>
        <path d="M 684 794 
L 1344 794 
L 1344 0 
L 684 0 
L 684 794 
z
" id="DejaVuSans-2e" transform="scale(0.015625)"/>
       </defs>
       <use xlink:href="#DejaVuSans-30"/>
       <use x="63.623047" xlink:href="#DejaVuSans-2e"/>
       <use x="95.410156" xlink:href="#DejaVuSans-34"/>
      </g>
     </g>
    </g>
    <g id="ytick_2">
     <g id="text_9">
      <!-- 0.6 -->
      <g style="fill:#262626;" transform="translate(34.4275 520.435371)scale(0.22 -0.22)">
       <use xlink:href="#DejaVuSans-30"/>
       <use x="63.623047" xlink:href="#DejaVuSans-2e"/>
       <use x="95.410156" xlink:href="#DejaVuSans-36"/>
      </g>
     </g>
    </g>
    <g id="ytick_3">
     <g id="text_10">
      <!-- 0.8 -->
      <g style="fill:#262626;" transform="translate(34.4275 456.941154)scale(0.22 -0.22)">
       <use xlink:href="#DejaVuSans-30"/>
       <use x="63.623047" xlink:href="#DejaVuSans-2e"/>
       <use x="95.410156" xlink:href="#DejaVuSans-38"/>
      </g>
     </g>
    </g>
    <g id="ytick_4">
     <g id="text_11">
      <!-- 1.0 -->
      <g style="fill:#262626;" transform="translate(34.4275 393.446937)scale(0.22 -0.22)">
       <use xlink:href="#DejaVuSans-31"/>
       <use x="63.623047" xlink:href="#DejaVuSans-2e"/>
       <use x="95.410156" xlink:href="#DejaVuSans-30"/>
      </g>
     </g>
    </g>
    <g id="ytick_5">
     <g id="text_12">
      <!-- 1.2 -->
      <g style="fill:#262626;" transform="translate(34.4275 329.952719)scale(0.22 -0.22)">
       <use xlink:href="#DejaVuSans-31"/>
       <use x="63.623047" xlink:href="#DejaVuSans-2e"/>
       <use x="95.410156" xlink:href="#DejaVuSans-32"/>
      </g>
     </g>
    </g>
    <g id="ytick_6">
     <g id="text_13">
      <!-- 1.4 -->
      <g style="fill:#262626;" transform="translate(34.4275 266.458502)scale(0.22 -0.22)">
       <use xlink:href="#DejaVuSans-31"/>
       <use x="63.623047" xlink:href="#DejaVuSans-2e"/>
       <use x="95.410156" xlink:href="#DejaVuSans-34"/>
      </g>
     </g>
    </g>
    <g id="ytick_7">
     <g id="text_14">
      <!-- 1.6 -->
      <g style="fill:#262626;" transform="translate(34.4275 202.964284)scale(0.22 -0.22)">
       <use xlink:href="#DejaVuSans-31"/>
       <use x="63.623047" xlink:href="#DejaVuSans-2e"/>
       <use x="95.410156" xlink:href="#DejaVuSans-36"/>
      </g>
     </g>
    </g>
    <g id="ytick_8">
     <g id="text_15">
      <!-- 1.8 -->
      <g style="fill:#262626;" transform="translate(34.4275 139.470067)scale(0.22 -0.22)">
       <use xlink:href="#DejaVuSans-31"/>
       <use x="63.623047" xlink:href="#DejaVuSans-2e"/>
       <use x="95.410156" xlink:href="#DejaVuSans-38"/>
      </g>
     </g>
    </g>
    <g id="text_16">
     <!-- $E$ -->
     <g style="fill:#262626;" transform="translate(25.43625 363.813429)rotate(-90)scale(0.24 -0.24)">
      <defs>
       <path d="M 1081 4666 
L 4031 4666 
L 3928 4134 
L 1606 4134 
L 1338 2753 
L 3566 2753 
L 3463 2222 
L 1234 2222 
L 909 531 
L 3284 531 
L 3181 0 
L 172 0 
L 1081 4666 
z
" id="DejaVuSans-Oblique-45" transform="scale(0.015625)"/>
      </defs>
      <use transform="translate(0 0.09375)" xlink:href="#DejaVuSans-Oblique-45"/>
     </g>
    </g>
   </g>
   <g id="line2d_1">
    <path clip-path="url(#pd8dc4c149d)" d="M 106.866622 397.439868 
L 107.086254 395.437937 
L 107.305886 463.760017 
L 107.525519 381.940675 
L 107.745151 390.742593 
L 107.964783 358.097608 
L 108.62368 469.975887 
L 108.843312 362.065444 
L 109.062945 464.168213 
L 109.282577 382.172156 
L 109.502209 389.779416 
L 109.721841 345.057748 
L 109.941474 405.028743 
L 110.161106 194.507509 
L 110.380738 392.004049 
L 110.600371 401.908516 
L 110.820003 477.338838 
L 111.039635 448.99042 
L 111.259267 272.931903 
L 111.698532 387.249946 
L 112.137797 529.458634 
L 112.577061 339.762167 
L 112.796693 475.786791 
L 113.016326 321.663961 
L 113.235958 356.154214 
L 113.45559 360.686969 
L 113.894855 531.512158 
L 114.114487 468.726466 
L 114.334119 362.936171 
L 114.553752 491.939529 
L 114.773384 349.539689 
L 114.993016 416.833212 
L 115.212649 429.970713 
L 115.432281 410.90334 
L 115.651913 349.615309 
L 115.871545 351.583261 
L 116.091178 456.517179 
L 116.31081 426.392429 
L 116.530442 303.528634 
L 116.750075 490.101357 
L 116.969707 436.150106 
L 117.189339 311.077656 
L 117.408971 358.182019 
L 117.628604 332.505988 
L 117.848236 503.142701 
L 118.067868 343.023966 
L 118.287501 359.539886 
L 118.507133 443.513073 
L 118.726765 443.70179 
L 118.946397 429.375167 
L 119.385662 211.491991 
L 119.605294 372.03512 
L 119.824926 448.924123 
L 120.264191 325.400789 
L 120.483823 448.701939 
L 120.703456 310.773628 
L 120.923088 414.546084 
L 121.14272 452.787706 
L 121.362352 384.014402 
L 121.581985 364.1705 
L 121.801617 474.00991 
L 122.021249 327.980358 
L 122.240882 486.512996 
L 122.460514 431.709393 
L 122.680146 419.402867 
L 122.899778 383.071043 
L 123.119411 515.658505 
L 123.339043 418.463687 
L 123.558675 455.376119 
L 123.778308 348.723684 
L 123.99794 444.307401 
L 124.437204 369.475119 
L 124.656837 468.286031 
L 124.876469 459.628585 
L 125.096101 473.019746 
L 125.315734 496.780062 
L 125.535366 400.880685 
L 125.754998 428.712846 
L 125.97463 422.967772 
L 126.194263 452.328266 
L 126.413895 346.062735 
L 126.633527 421.076993 
L 126.85316 269.783648 
L 127.072792 485.152327 
L 127.292424 394.536898 
L 127.731689 433.502773 
L 127.951321 383.04045 
L 128.170953 372.183802 
L 128.390586 484.159752 
L 128.610218 444.012571 
L 128.82985 472.715156 
L 129.049482 301.03865 
L 129.269115 484.126323 
L 129.488747 511.572644 
L 129.928012 388.928735 
L 130.147644 396.609208 
L 130.586908 317.4229 
L 130.806541 428.049184 
L 131.026173 442.062536 
L 131.245805 395.844286 
L 131.465438 374.636602 
L 131.68507 294.857764 
L 131.904702 285.561325 
L 132.124334 455.447556 
L 132.343967 502.173217 
L 132.563599 522.753839 
L 132.783231 388.766843 
L 133.002864 434.027538 
L 133.222496 360.267041 
L 133.442128 473.637374 
L 133.881393 389.923266 
L 134.101025 466.521208 
L 134.320657 444.399953 
L 134.540289 408.585042 
L 134.759922 324.497951 
L 134.979554 290.728492 
L 135.199186 346.663678 
L 135.418819 441.453333 
L 135.638451 399.912646 
L 135.858083 472.062117 
L 136.077715 376.874249 
L 136.297348 416.539912 
L 136.51698 371.997486 
L 136.736612 395.164999 
L 136.956245 396.480066 
L 137.175877 336.193954 
L 137.615141 461.287264 
L 137.834774 449.656936 
L 138.054406 290.581554 
L 138.274038 434.433631 
L 138.493671 421.571124 
L 138.713303 525.821555 
L 138.932935 350.909108 
L 139.152567 466.915439 
L 139.3722 388.509705 
L 139.591832 379.285219 
L 139.811464 314.136378 
L 140.031097 481.294737 
L 140.250729 378.096173 
L 140.470361 470.481796 
L 140.689993 468.462845 
L 140.909626 325.19685 
L 141.129258 480.922094 
L 141.34889 401.123453 
L 141.568523 370.509934 
L 141.788155 496.101307 
L 142.007787 482.335331 
L 142.447052 399.57845 
L 142.666684 404.10783 
L 142.886316 350.762769 
L 143.105949 482.366435 
L 143.325581 291.397599 
L 143.545213 424.539657 
L 143.764845 350.396931 
L 143.984478 410.136957 
L 144.20411 412.857303 
L 144.423742 399.237191 
L 144.643375 491.973509 
L 144.863007 466.716337 
L 145.302271 391.663919 
L 145.521904 400.603161 
L 145.741536 414.140888 
L 146.180801 360.790812 
L 146.400433 470.615874 
L 146.620065 289.637642 
L 147.05933 468.59673 
L 147.498594 430.238557 
L 147.718227 487.263545 
L 147.937859 389.004541 
L 148.377123 476.753562 
L 148.596756 405.790971 
L 148.816388 510.698273 
L 149.03602 409.834763 
L 149.255653 460.137342 
L 149.475285 451.769323 
L 149.694917 413.499501 
L 149.914549 402.531117 
L 150.134182 216.766385 
L 150.353814 386.376296 
L 150.573446 388.690792 
L 150.793078 436.412369 
L 151.012711 286.041935 
L 151.451975 544.179591 
L 151.671608 362.064774 
L 151.89124 398.778599 
L 152.110872 516.076751 
L 152.330504 426.584993 
L 152.550137 468.580161 
L 152.769769 313.264412 
L 152.989401 444.766153 
L 153.209034 474.305529 
L 153.428666 391.450358 
L 153.648298 434.948262 
L 153.86793 174.451534 
L 154.087563 409.800012 
L 154.307195 436.603269 
L 154.526827 447.48415 
L 154.966092 375.627522 
L 155.185724 379.42615 
L 155.405356 378.641793 
L 155.624989 423.707712 
L 155.844621 267.510675 
L 156.064253 422.427775 
L 156.283886 387.5526 
L 156.503518 380.751595 
L 156.72315 439.629009 
L 156.942782 317.376846 
L 157.382047 467.472666 
L 157.821312 345.649906 
L 158.040944 524.782651 
L 158.260576 388.891334 
L 158.480208 377.371651 
L 158.699841 404.33662 
L 158.919473 494.292465 
L 159.139105 455.64415 
L 159.358738 451.485597 
L 159.57837 451.761919 
L 160.017634 337.131957 
L 160.456899 394.921982 
L 160.676531 393.032313 
L 160.896164 412.37827 
L 161.115796 446.268326 
L 161.335428 447.608081 
L 161.55506 308.511579 
L 161.994325 473.723298 
L 162.213957 493.350074 
L 162.43359 475.837735 
L 162.653222 322.012443 
L 163.092486 459.130349 
L 163.312119 395.079679 
L 163.531751 397.804672 
L 163.751383 407.652473 
L 164.190648 303.917792 
L 164.41028 325.667816 
L 164.629912 467.294783 
L 164.849545 450.960325 
L 165.069177 335.99355 
L 165.288809 355.751095 
L 165.508441 400.132357 
L 165.728074 481.892467 
L 165.947706 395.703398 
L 166.167338 475.980366 
L 166.386971 421.254408 
L 166.606603 421.870814 
L 166.826235 489.492053 
L 167.045867 385.279508 
L 167.2655 448.500126 
L 167.485132 441.799701 
L 167.704764 368.423696 
L 168.144029 447.239277 
L 168.363661 257.818632 
L 168.802926 456.36304 
L 169.022558 366.418341 
L 169.24219 392.721372 
L 169.461823 447.437025 
L 169.681455 406.26313 
L 169.901087 337.841681 
L 170.120719 484.623865 
L 170.340352 393.893545 
L 170.559984 402.551605 
L 170.779616 493.796719 
L 170.999249 368.044495 
L 171.218881 421.802905 
L 171.438513 367.01484 
L 171.658145 374.398091 
L 171.877778 447.506256 
L 172.09741 430.529537 
L 172.536675 521.796555 
L 172.756307 353.676824 
L 172.975939 433.344889 
L 173.195571 250.684109 
L 173.415204 459.737611 
L 173.634836 394.656267 
L 173.854468 436.0664 
L 174.513365 368.365478 
L 174.732997 451.171906 
L 174.95263 465.371951 
L 175.172262 389.402483 
L 175.611527 526.906138 
L 175.831159 464.398091 
L 176.050791 513.620012 
L 176.709688 224.619565 
L 176.92932 397.53116 
L 177.148953 425.882994 
L 177.368585 397.184691 
L 177.588217 456.673802 
L 177.807849 398.687012 
L 178.027482 410.759791 
L 178.247114 445.057767 
L 178.466746 397.898551 
L 178.686379 504.726125 
L 178.906011 417.726468 
L 179.345275 449.972887 
L 179.564908 525.875059 
L 180.223805 285.416473 
L 180.663069 485.931712 
L 180.882701 131.763818 
L 181.102334 384.974019 
L 181.321966 412.325566 
L 181.541598 472.737305 
L 181.76123 482.614551 
L 181.980863 289.383768 
L 182.200495 490.528614 
L 182.420127 368.144861 
L 182.63976 314.983801 
L 182.859392 440.511102 
L 183.079024 476.538239 
L 183.298656 286.599851 
L 183.737921 467.064718 
L 183.957553 414.402787 
L 184.177186 332.870091 
L 184.396818 172.325212 
L 184.61645 392.737387 
L 184.836082 268.644832 
L 185.275347 425.450671 
L 185.494979 351.447956 
L 185.714612 437.260021 
L 185.934244 479.249045 
L 186.153876 447.903159 
L 186.373508 433.780582 
L 186.593141 299.294559 
L 187.032405 469.027299 
L 187.252038 417.469981 
L 187.47167 427.069901 
L 187.691302 462.441148 
L 188.130567 327.576574 
L 188.350199 361.479754 
L 188.569831 416.085116 
L 188.789464 504.343768 
L 189.009096 420.095817 
L 189.228728 384.106107 
L 189.44836 469.394143 
L 189.667993 319.679726 
L 189.887625 440.764935 
L 190.107257 396.304982 
L 190.32689 403.283349 
L 190.546522 518.20349 
L 190.766154 315.252325 
L 190.985786 422.242141 
L 191.425051 463.696832 
L 191.864316 305.597776 
L 192.083948 336.370673 
L 192.523212 485.510814 
L 192.742845 369.536374 
L 192.962477 469.778889 
L 193.182109 337.940469 
L 193.401742 321.546174 
L 193.621374 375.848344 
L 193.841006 527.615772 
L 194.060638 376.315259 
L 194.499903 516.425711 
L 194.719535 395.629118 
L 194.939168 413.648959 
L 195.1588 405.336669 
L 195.378432 410.354367 
L 195.598064 469.904414 
L 196.037329 347.499242 
L 196.256961 458.260335 
L 196.696226 405.967277 
L 197.13549 476.04868 
L 197.355123 459.104297 
L 197.574755 254.482879 
L 197.794387 457.253976 
L 198.014019 427.086948 
L 198.233652 458.973208 
L 198.453284 279.228663 
L 198.672916 337.277053 
L 198.892549 460.509101 
L 199.112181 392.972121 
L 199.331813 394.413414 
L 199.551445 580.503039 
L 199.99071 365.779569 
L 200.429975 463.141851 
L 200.649607 444.377246 
L 200.869239 372.949413 
L 201.088871 402.667998 
L 201.308504 484.741176 
L 201.528136 506.614427 
L 201.747768 390.797382 
L 201.967401 462.378639 
L 202.187033 472.257307 
L 202.406665 475.597123 
L 202.626297 462.550017 
L 202.84593 490.439153 
L 203.065562 319.43888 
L 203.285194 355.233574 
L 203.504827 445.308927 
L 203.724459 367.841256 
L 203.944091 398.40799 
L 204.163723 371.507081 
L 204.383356 396.511892 
L 204.602988 380.104938 
L 204.82262 401.185139 
L 205.042253 343.161848 
L 205.261885 371.782045 
L 205.481517 335.328939 
L 205.701149 425.792365 
L 205.920782 346.93972 
L 206.360046 466.789856 
L 206.579679 478.264869 
L 206.799311 475.804235 
L 207.018943 346.253918 
L 207.458208 269.064353 
L 207.67784 417.821258 
L 207.897472 487.566511 
L 208.117105 274.485853 
L 208.336737 431.159582 
L 208.556369 397.641499 
L 208.776001 476.290559 
L 209.215266 404.605533 
L 209.434898 492.789116 
L 209.874163 377.92424 
L 210.093795 426.426438 
L 210.53306 273.966409 
L 210.752692 508.434299 
L 210.972324 395.013328 
L 211.191956 451.85294 
L 211.411589 352.071502 
L 211.631221 415.619102 
L 212.070486 280.164397 
L 212.290118 460.314056 
L 212.50975 380.463269 
L 212.729382 488.953668 
L 212.949015 381.402281 
L 213.168647 386.349746 
L 213.388279 499.552674 
L 213.607912 368.898842 
L 213.827544 437.968205 
L 214.266808 315.627572 
L 214.486441 382.31005 
L 214.706073 403.347383 
L 214.925705 482.125259 
L 215.145338 429.161975 
L 215.584602 435.05903 
L 215.804234 456.446548 
L 216.023867 291.19615 
L 216.243499 435.924272 
L 216.463131 450.21367 
L 216.682764 521.142176 
L 216.902396 415.930244 
L 217.122028 497.723199 
L 217.34166 388.379451 
L 217.561293 459.87643 
L 217.780925 460.317627 
L 218.000557 364.201475 
L 218.22019 418.520703 
L 218.439822 416.955341 
L 218.659454 488.940851 
L 218.879086 462.181482 
L 219.098719 458.47213 
L 219.318351 289.596476 
L 219.757616 506.699764 
L 220.416512 436.887312 
L 220.636145 448.217667 
L 220.855777 373.760923 
L 221.075409 474.222744 
L 221.295042 319.060181 
L 221.514674 435.972422 
L 221.734306 433.319336 
L 221.953938 395.488553 
L 222.173571 479.558573 
L 222.393203 366.825648 
L 222.612835 420.396783 
L 222.832468 415.048355 
L 223.0521 431.716044 
L 223.271732 437.01774 
L 223.491364 392.646504 
L 223.710997 398.597114 
L 223.930629 453.470126 
L 224.150261 406.907628 
L 224.369894 534.465072 
L 224.589526 406.693598 
L 224.809158 396.232262 
L 225.02879 473.907673 
L 225.248423 475.254107 
L 225.468055 352.982229 
L 225.687687 381.769875 
L 225.90732 391.486663 
L 226.126952 378.551392 
L 226.346584 376.629451 
L 226.566216 462.561402 
L 227.005481 389.174197 
L 227.225113 418.408518 
L 227.444745 368.237018 
L 227.664378 532.520755 
L 227.88401 439.125879 
L 228.103642 475.724675 
L 228.323275 407.474868 
L 228.542907 421.821414 
L 228.762539 409.613898 
L 228.982171 441.527616 
L 229.201804 290.203833 
L 229.641068 542.062497 
L 229.860701 389.701702 
L 230.080333 414.506872 
L 230.299965 505.344734 
L 230.519597 454.078396 
L 230.73923 454.076381 
L 230.958862 367.783874 
L 231.178494 501.560516 
L 231.398127 387.135962 
L 231.617759 332.901175 
L 231.837391 523.793927 
L 232.057023 342.043881 
L 232.276656 375.452186 
L 232.496288 373.154473 
L 232.71592 460.707978 
L 232.935553 352.630485 
L 233.155185 430.203849 
L 233.374817 432.050085 
L 233.594449 399.866014 
L 233.814082 348.327322 
L 234.033714 360.154821 
L 234.253346 241.265029 
L 234.692611 473.56103 
L 234.912243 340.28662 
L 235.351508 443.992909 
L 235.57114 421.033662 
L 235.790772 438.442297 
L 236.010405 471.23841 
L 236.230037 450.188817 
L 236.449669 454.695697 
L 236.669301 360.938714 
L 236.888934 391.279161 
L 237.108566 331.817957 
L 237.328198 456.892093 
L 237.547831 503.658222 
L 237.767463 405.220506 
L 237.987095 435.176827 
L 238.206727 383.050895 
L 238.42636 458.91641 
L 238.645992 342.198231 
L 238.865624 391.466702 
L 239.085257 369.508862 
L 239.524521 443.495385 
L 239.744153 417.49359 
L 239.963786 322.249283 
L 240.183418 370.68896 
L 240.40305 358.828375 
L 240.622683 414.215371 
L 240.842315 396.755193 
L 241.061947 519.248656 
L 241.281579 354.018908 
L 241.501212 353.155509 
L 241.720844 483.828921 
L 242.160108 372.406543 
L 242.379741 434.15943 
L 242.599373 419.256799 
L 242.819005 382.776158 
L 243.038638 513.172114 
L 243.25827 364.782495 
L 243.477902 465.524886 
L 243.697534 387.54832 
L 243.917167 402.67797 
L 244.136799 395.652613 
L 244.356431 444.629466 
L 244.576064 456.099324 
L 244.795696 416.813078 
L 245.015328 499.597098 
L 245.23496 372.113764 
L 245.454593 442.43525 
L 245.674225 394.437817 
L 245.893857 437.755108 
L 246.11349 238.499987 
L 246.333122 435.086862 
L 246.552754 389.979657 
L 246.772386 312.359528 
L 246.992019 457.890309 
L 247.211651 311.624339 
L 247.431283 467.083489 
L 247.650916 424.26079 
L 247.870548 448.38166 
L 248.09018 438.582792 
L 248.309812 395.181399 
L 248.529445 280.34354 
L 248.749077 313.32679 
L 248.968709 420.938477 
L 249.188342 415.448098 
L 249.407974 470.847187 
L 249.627606 422.129552 
L 249.847238 534.858668 
L 250.066871 450.283814 
L 250.286503 452.515547 
L 250.506135 440.233144 
L 250.725768 285.201539 
L 250.9454 420.496602 
L 251.165032 469.135193 
L 251.604297 319.54 
L 251.823929 459.309546 
L 252.043561 368.921924 
L 252.263194 402.500627 
L 252.482826 474.448102 
L 252.702458 477.934545 
L 252.92209 350.873039 
L 253.141723 323.239566 
L 253.361355 418.219844 
L 253.580987 424.273302 
L 253.80062 457.431348 
L 254.239884 352.374263 
L 254.459516 468.750037 
L 254.679149 279.373006 
L 254.898781 276.80265 
L 255.118413 286.945439 
L 255.338046 433.221216 
L 255.557678 403.922985 
L 255.996942 422.749232 
L 256.216575 423.923691 
L 256.436207 423.56014 
L 256.655839 408.703475 
L 256.875472 452.048088 
L 257.095104 446.77 
L 257.534368 319.185907 
L 257.754001 265.91749 
L 257.973633 387.747592 
L 258.193265 386.415511 
L 258.412897 392.563793 
L 258.63253 364.34253 
L 258.852162 515.583494 
L 259.071794 375.30429 
L 259.291427 437.919017 
L 259.511059 456.198204 
L 259.730691 368.172726 
L 259.950323 386.963678 
L 260.169956 379.362196 
L 260.389588 445.22863 
L 260.60922 309.362958 
L 260.828853 473.593168 
L 261.048485 447.603707 
L 261.268117 323.28515 
L 261.487749 372.152693 
L 261.707382 327.731131 
L 262.146646 429.300263 
L 262.366279 403.048561 
L 262.585911 398.293582 
L 262.805543 515.292167 
L 263.025175 381.323813 
L 263.244808 398.77112 
L 263.46444 239.385573 
L 263.684072 504.891014 
L 263.903705 452.652668 
L 264.342969 495.061971 
L 264.562601 422.416178 
L 264.782234 404.718946 
L 265.001866 460.332127 
L 265.221498 404.271583 
L 265.660763 467.051809 
L 265.880395 342.335939 
L 266.100027 284.01817 
L 266.31966 406.531457 
L 266.758924 359.752536 
L 266.978557 471.624226 
L 267.198189 488.496772 
L 267.637453 438.465931 
L 267.857086 359.009533 
L 268.076718 432.887035 
L 268.29635 396.358163 
L 268.735615 441.489244 
L 268.955247 389.000774 
L 269.174879 447.324289 
L 269.394512 422.630825 
L 269.614144 382.986524 
L 269.833776 381.458429 
L 270.053409 491.245467 
L 270.492673 245.155213 
L 270.712305 397.823956 
L 270.931938 381.520114 
L 271.15157 424.799646 
L 271.371202 404.933701 
L 271.590835 396.284429 
L 272.030099 359.1855 
L 272.249731 434.588519 
L 272.469364 408.941972 
L 272.688996 422.678676 
L 272.908628 344.441753 
L 273.12826 409.616247 
L 273.347893 349.074041 
L 273.567525 466.568066 
L 273.787157 418.028982 
L 274.00679 435.995336 
L 274.226422 442.247329 
L 274.446054 353.246854 
L 274.665686 364.645194 
L 274.885319 446.688646 
L 275.104951 470.548452 
L 275.544216 435.702581 
L 275.763848 418.566089 
L 275.98348 468.376126 
L 276.203112 478.831617 
L 276.422745 434.976582 
L 276.642377 463.87919 
L 276.862009 301.227492 
L 277.081642 400.555197 
L 277.301274 215.475897 
L 277.520906 479.586718 
L 277.740538 430.730379 
L 277.960171 448.07751 
L 278.179803 418.731774 
L 278.399435 303.21836 
L 278.619068 381.42827 
L 278.8387 388.850037 
L 279.058332 490.446586 
L 279.277964 328.299482 
L 279.497597 408.069908 
L 279.717229 395.635253 
L 279.936861 406.244217 
L 280.156494 461.064896 
L 280.376126 367.631209 
L 280.595758 344.156256 
L 280.81539 490.961576 
L 281.035023 470.778044 
L 281.254655 389.199619 
L 281.474287 395.353691 
L 281.69392 452.067222 
L 281.913552 413.572141 
L 282.133184 415.01311 
L 282.352816 307.694234 
L 282.792081 451.472186 
L 283.011713 432.745871 
L 283.231346 384.754862 
L 283.890242 480.121129 
L 284.109875 432.663158 
L 284.329507 326.427665 
L 284.549139 320.288438 
L 284.768772 411.720656 
L 284.988404 392.640501 
L 285.208036 388.05062 
L 285.427668 317.86471 
L 285.647301 379.351229 
L 285.866933 353.29475 
L 286.306198 485.686742 
L 286.745462 374.038167 
L 286.965094 396.505208 
L 287.184727 436.023799 
L 287.404359 437.754598 
L 287.623991 411.076345 
L 287.843624 415.721235 
L 288.063256 379.177503 
L 288.282888 446.699899 
L 288.50252 475.031214 
L 288.722153 342.932791 
L 288.941785 404.935095 
L 289.161417 414.647964 
L 289.381049 507.387608 
L 289.600682 382.059691 
L 289.820314 422.007195 
L 290.039946 328.323946 
L 290.259579 372.951129 
L 290.479211 388.079255 
L 290.698843 476.582183 
L 290.918475 443.138612 
L 291.138108 317.231638 
L 291.35774 362.037927 
L 291.577372 345.085372 
L 291.797005 449.126324 
L 292.016637 345.016088 
L 292.236269 408.947049 
L 292.455901 439.44427 
L 292.895166 333.215973 
L 293.114798 442.360438 
L 293.334431 416.200104 
L 293.554063 416.880183 
L 293.773695 380.722885 
L 293.993327 440.921586 
L 294.21296 468.747477 
L 294.652224 367.420375 
L 294.871857 465.11041 
L 295.091489 466.225191 
L 295.311121 379.134319 
L 295.530753 352.940182 
L 295.970018 452.190312 
L 296.18965 442.210227 
L 296.409283 410.610782 
L 296.628915 309.623448 
L 296.848547 313.103045 
L 297.068179 434.068214 
L 297.287812 371.549383 
L 297.507444 478.078472 
L 297.727076 293.81445 
L 297.946709 400.382508 
L 298.166341 374.412439 
L 298.385973 386.898773 
L 298.605605 459.573026 
L 299.04487 414.332485 
L 299.264502 433.674848 
L 299.484135 363.176029 
L 299.923399 424.784071 
L 300.143031 490.397375 
L 300.362664 441.551656 
L 300.582296 270.824539 
L 300.801928 469.029425 
L 301.021561 404.103955 
L 301.460825 438.050954 
L 301.680457 323.429202 
L 301.90009 426.593022 
L 302.119722 337.887944 
L 302.339354 330.918184 
L 302.558987 404.507013 
L 302.778619 330.03311 
L 302.998251 386.030219 
L 303.217883 356.563358 
L 303.437516 360.725093 
L 303.87678 493.260243 
L 304.096412 322.69074 
L 304.316045 489.727418 
L 304.535677 300.284412 
L 304.755309 521.99897 
L 305.414206 300.387338 
L 305.633838 449.535355 
L 305.853471 491.634546 
L 306.073103 403.226074 
L 306.292735 422.379581 
L 306.512368 413.297149 
L 306.732 356.396088 
L 306.951632 427.225575 
L 307.610529 485.709741 
L 307.830161 364.237169 
L 308.049794 441.212398 
L 308.269426 377.16293 
L 308.489058 396.72056 
L 308.70869 463.757025 
L 308.928323 379.276914 
L 309.147955 426.317203 
L 309.367587 289.008023 
L 309.806852 423.702767 
L 310.026484 402.390848 
L 310.246116 369.331957 
L 310.465749 409.285588 
L 310.685381 496.076076 
L 311.124646 373.589156 
L 311.344278 444.163738 
L 311.56391 422.888473 
L 311.783542 311.139462 
L 312.003175 323.769861 
L 312.222807 301.75329 
L 312.442439 313.344773 
L 312.662072 471.098059 
L 312.881704 436.959907 
L 313.101336 474.156006 
L 313.320968 447.076853 
L 313.540601 520.581348 
L 313.760233 462.593093 
L 313.979865 449.736022 
L 314.199498 450.462813 
L 314.41913 331.979035 
L 314.638762 449.05481 
L 315.078027 347.930817 
L 315.297659 429.494483 
L 315.517291 352.872371 
L 315.956556 528.414946 
L 316.176188 426.640068 
L 316.615453 450.657849 
L 316.835085 391.888904 
L 317.054717 483.627474 
L 317.493982 346.575924 
L 317.713614 454.568079 
L 317.933246 412.422399 
L 318.152879 433.626708 
L 318.372511 405.806248 
L 318.592143 444.39191 
L 318.811775 430.850262 
L 319.031408 301.145926 
L 319.25104 363.353884 
L 319.470672 326.257067 
L 319.690305 482.656432 
L 319.909937 462.211272 
L 320.129569 389.285137 
L 320.349201 422.204199 
L 320.568834 378.632522 
L 320.788466 422.608289 
L 321.008098 416.509383 
L 321.227731 485.807554 
L 321.447363 489.289968 
L 321.886627 271.899305 
L 322.325892 436.885309 
L 322.765157 404.296335 
L 322.984789 453.429445 
L 323.204421 276.820239 
L 323.643686 427.898747 
L 323.863318 391.850292 
L 324.08295 439.031111 
L 324.302583 331.035271 
L 324.522215 351.265246 
L 324.961479 451.422489 
L 325.181112 283.898287 
L 325.400744 434.300965 
L 325.620376 396.39584 
L 325.840009 481.412331 
L 326.059641 431.593775 
L 326.498905 481.632602 
L 326.718538 334.285203 
L 326.93817 481.8887 
L 327.157802 383.618272 
L 327.377435 460.844435 
L 327.597067 494.06233 
L 327.816699 374.7712 
L 328.036331 445.210079 
L 328.255964 391.735687 
L 328.695228 405.724615 
L 328.914861 442.132011 
L 329.134493 422.191589 
L 329.354125 352.377007 
L 329.573757 362.109208 
L 329.79339 447.247544 
L 330.013022 407.147772 
L 330.232654 404.654404 
L 330.452287 458.130049 
L 330.671919 451.628675 
L 330.891551 273.376992 
L 331.111183 417.446907 
L 331.330816 407.138742 
L 331.550448 435.534225 
L 331.77008 342.393982 
L 331.989713 430.394025 
L 332.648609 360.337309 
L 332.868242 420.767872 
L 333.307506 378.52492 
L 333.746771 409.926008 
L 333.966403 422.380119 
L 334.186035 361.964144 
L 334.405668 489.624867 
L 334.6253 373.845246 
L 334.844932 448.57628 
L 335.064564 480.926379 
L 335.284197 383.311241 
L 335.503829 397.072242 
L 335.723461 472.143082 
L 335.943094 327.118706 
L 336.162726 386.175202 
L 336.382358 490.81542 
L 336.60199 442.741773 
L 336.821623 462.1499 
L 337.041255 492.211151 
L 337.260887 435.020263 
L 337.48052 448.956313 
L 337.919784 325.773669 
L 338.139416 339.021465 
L 338.359049 394.379338 
L 338.578681 264.278677 
L 339.017946 437.664583 
L 339.237578 414.435528 
L 339.45721 482.996763 
L 339.676842 426.643178 
L 339.896475 494.844692 
L 340.116107 479.5704 
L 340.335739 443.548359 
L 340.555372 315.825261 
L 340.775004 419.900249 
L 340.994636 272.086925 
L 341.214268 404.163753 
L 341.433901 460.688816 
L 341.653533 431.601626 
L 341.873165 286.151469 
L 342.092798 486.215673 
L 342.31243 456.306517 
L 342.532062 442.392129 
L 342.971327 375.354207 
L 343.190959 436.525192 
L 343.630224 348.599917 
L 344.069488 421.500294 
L 344.28912 262.746212 
L 344.728385 420.465078 
L 344.948017 354.445291 
L 345.16765 472.289021 
L 345.606914 397.411853 
L 345.826546 466.601274 
L 346.046179 346.675449 
L 346.485443 473.913492 
L 346.705076 473.103655 
L 346.924708 383.915814 
L 347.14434 400.79621 
L 347.363972 381.84343 
L 347.583605 469.07754 
L 347.803237 452.849229 
L 348.022869 321.00164 
L 348.462134 471.295381 
L 348.681766 395.547865 
L 348.901398 481.03057 
L 349.121031 287.913878 
L 349.340663 419.589247 
L 349.560295 363.421373 
L 349.779927 380.943865 
L 349.99956 446.893222 
L 350.438824 470.232499 
L 350.658457 305.781336 
L 350.878089 416.214239 
L 351.097721 278.468119 
L 351.317353 402.684418 
L 351.536986 363.315262 
L 351.756618 477.086814 
L 351.97625 322.39163 
L 352.195883 452.639479 
L 352.415515 355.394487 
L 352.635147 388.274479 
L 352.854779 498.112723 
L 353.294044 394.451711 
L 353.513676 459.328451 
L 353.733309 454.730682 
L 353.952941 374.292709 
L 354.172573 467.292956 
L 354.392205 451.134409 
L 354.611838 480.668145 
L 354.83147 463.4885 
L 355.051102 471.088108 
L 355.490367 362.164627 
L 355.709999 398.001442 
L 355.929631 452.865567 
L 356.149264 456.609621 
L 356.368896 476.510897 
L 356.588528 424.804379 
L 356.808161 477.343258 
L 357.027793 340.041443 
L 357.247425 410.910459 
L 357.467057 398.610063 
L 357.68669 452.969452 
L 357.906322 468.823229 
L 358.345587 329.75085 
L 358.565219 341.257105 
L 358.784851 472.3799 
L 359.224116 409.950002 
L 359.443748 463.90806 
L 359.66338 395.346719 
L 359.883013 404.321805 
L 360.102645 393.421395 
L 360.322277 451.552093 
L 360.981174 356.725797 
L 361.200806 507.834925 
L 361.420439 434.320851 
L 361.640071 312.306344 
L 361.859703 464.822962 
L 362.079335 469.317584 
L 362.5186 368.692317 
L 362.738232 450.901601 
L 362.957865 372.900502 
L 363.177497 349.070064 
L 363.397129 444.666216 
L 363.616761 311.136369 
L 363.836394 490.563668 
L 364.056026 315.338508 
L 364.495291 458.059736 
L 364.714923 381.545711 
L 364.934555 381.122966 
L 365.154187 414.2317 
L 365.37382 282.326237 
L 365.593452 435.525621 
L 365.813084 444.324886 
L 366.032716 415.648844 
L 366.252349 430.726311 
L 366.471981 411.073463 
L 366.691613 349.41609 
L 366.911246 386.14122 
L 367.130878 464.211003 
L 367.35051 482.334895 
L 367.570142 343.605298 
L 367.789775 465.477574 
L 368.009407 475.076746 
L 368.229039 377.121643 
L 368.448672 456.882189 
L 368.668304 476.037749 
L 368.887936 458.882508 
L 369.107568 362.117185 
L 369.327201 318.734018 
L 369.546833 328.645971 
L 369.986098 406.165943 
L 370.20573 478.965014 
L 370.425362 407.678574 
L 370.644994 477.363304 
L 370.864627 307.081504 
L 371.084259 416.527766 
L 371.523524 490.352265 
L 371.743156 478.821269 
L 371.962788 518.09637 
L 372.18242 376.811103 
L 372.402053 442.811033 
L 372.621685 354.467698 
L 372.841317 414.257488 
L 373.06095 326.345501 
L 373.280582 480.432076 
L 373.500214 321.492986 
L 373.719846 414.295283 
L 373.939479 439.446225 
L 374.159111 431.845049 
L 374.378743 394.554319 
L 374.598376 401.99274 
L 374.818008 484.915275 
L 375.03764 376.741351 
L 375.257272 427.465467 
L 375.476905 339.210197 
L 375.916169 502.810671 
L 376.355434 381.649437 
L 376.575066 375.906396 
L 376.794698 456.202581 
L 377.014331 322.761113 
L 377.233963 465.066932 
L 377.453595 507.995646 
L 377.673228 449.176489 
L 377.89286 315.541441 
L 378.112492 367.881611 
L 378.332124 336.639639 
L 378.551757 431.830823 
L 378.771389 337.705235 
L 378.991021 528.961424 
L 379.430286 429.45593 
L 379.649918 382.66958 
L 379.86955 447.518686 
L 380.089183 401.568075 
L 380.308815 267.165436 
L 380.528447 282.642376 
L 381.187344 526.079439 
L 381.406976 368.384787 
L 381.626609 416.986901 
L 381.846241 355.575823 
L 382.065873 484.183595 
L 382.285505 420.517491 
L 382.505138 393.41052 
L 382.72477 421.485753 
L 382.944402 465.380553 
L 383.164035 441.686113 
L 383.383667 329.751381 
L 383.603299 406.890756 
L 383.822931 417.66559 
L 384.042564 287.074233 
L 384.262196 378.347046 
L 384.481828 389.711177 
L 384.701461 450.222874 
L 384.921093 410.636815 
L 385.140725 420.189287 
L 385.360357 463.116887 
L 385.57999 372.492127 
L 385.799622 477.89899 
L 386.019254 387.533742 
L 386.238887 468.821694 
L 386.458519 408.371728 
L 386.678151 446.754597 
L 386.897783 446.15269 
L 387.117416 417.525868 
L 387.337048 406.701297 
L 387.776313 473.994262 
L 387.995945 400.502302 
L 388.215577 399.134903 
L 388.435209 380.004938 
L 388.654842 234.662579 
L 388.874474 452.644643 
L 389.313739 272.297735 
L 389.533371 489.674207 
L 389.753003 386.103897 
L 389.972635 451.643031 
L 390.192268 479.944891 
L 390.4119 468.164832 
L 390.851165 403.599631 
L 391.070797 445.099162 
L 391.510061 405.082619 
L 391.949326 455.554843 
L 392.388591 327.89801 
L 392.608223 373.440229 
L 392.827855 491.430592 
L 393.047487 365.688389 
L 393.26712 387.519431 
L 393.486752 443.954007 
L 393.706384 370.442472 
L 393.926017 451.309814 
L 394.145649 458.662886 
L 394.365281 409.654496 
L 394.584913 431.517392 
L 394.804546 375.13431 
L 395.024178 454.140342 
L 395.24381 454.196331 
L 395.463443 379.140899 
L 395.683075 494.022636 
L 395.902707 367.834618 
L 396.122339 449.020975 
L 396.561604 334.012615 
L 396.781236 419.93025 
L 397.000868 364.945751 
L 397.220501 399.097145 
L 397.659765 437.38335 
L 398.318662 373.446494 
L 398.538294 391.132454 
L 398.757927 399.580672 
L 398.977559 430.922494 
L 399.197191 390.518279 
L 399.416824 447.727863 
L 399.636456 458.443526 
L 399.856088 462.3275 
L 400.07572 308.960688 
L 400.295353 427.172667 
L 400.734617 379.28762 
L 400.95425 424.026896 
L 401.173882 422.35138 
L 401.393514 368.902963 
L 401.613146 476.421931 
L 401.832779 368.587192 
L 402.052411 419.14124 
L 402.272043 256.60575 
L 402.491676 308.406356 
L 402.711308 510.476282 
L 402.93094 294.834238 
L 403.150572 441.350754 
L 403.370205 290.679502 
L 403.589837 425.809391 
L 403.809469 436.980245 
L 404.248734 294.353285 
L 404.468366 464.089994 
L 404.687998 401.558723 
L 404.907631 396.51316 
L 405.127263 404.365855 
L 405.346895 530.196057 
L 405.78616 364.898784 
L 406.005792 373.861928 
L 406.225424 305.996974 
L 406.445057 403.762507 
L 406.664689 402.191685 
L 406.884321 452.092276 
L 407.103954 470.505275 
L 407.323586 340.362873 
L 407.543218 385.152647 
L 407.76285 342.308487 
L 407.982483 439.360667 
L 408.202115 377.12407 
L 408.421747 506.268477 
L 408.64138 306.15447 
L 408.861012 465.101319 
L 409.080644 471.88005 
L 409.519909 322.622425 
L 409.959173 466.056103 
L 410.178806 409.295024 
L 410.398438 451.125225 
L 410.61807 384.303358 
L 410.837702 455.546458 
L 411.057335 399.52357 
L 411.276967 481.51891 
L 411.496599 503.197252 
L 411.716231 341.723942 
L 411.935864 299.608398 
L 412.155496 426.72265 
L 412.375128 449.284271 
L 412.594761 359.826012 
L 412.814393 347.132427 
L 413.034025 466.972574 
L 413.253657 444.109373 
L 413.692922 512.151021 
L 414.351819 239.633589 
L 414.571451 440.236125 
L 414.791083 461.706073 
L 415.010716 359.771038 
L 415.230348 446.75557 
L 415.44998 382.935101 
L 415.669613 468.022979 
L 415.889245 434.549882 
L 416.108877 467.367966 
L 416.328509 386.59999 
L 416.548142 371.794496 
L 416.767774 459.862348 
L 416.987406 438.712752 
L 417.207039 368.487646 
L 417.426671 359.486785 
L 417.646303 327.155649 
L 417.865935 312.671744 
L 418.085568 514.135017 
L 418.3052 523.310732 
L 418.524832 413.704199 
L 418.744465 503.589328 
L 418.964097 429.186682 
L 419.183729 436.486408 
L 419.403361 422.7877 
L 419.622994 386.083257 
L 419.842626 379.756741 
L 420.062258 313.651979 
L 420.281891 447.512052 
L 420.501523 382.155606 
L 420.721155 466.050213 
L 420.940787 460.763837 
L 421.380052 342.335096 
L 421.819317 383.601702 
L 422.038949 423.677917 
L 422.258581 303.231204 
L 422.478213 442.069624 
L 422.697846 451.098948 
L 422.917478 354.497706 
L 423.13711 494.372041 
L 423.356743 396.15601 
L 423.576375 472.960959 
L 423.796007 253.115806 
L 424.015639 446.462983 
L 424.235272 355.629978 
L 424.454904 516.600976 
L 424.674536 401.03627 
L 424.894169 390.357487 
L 425.113801 473.698134 
L 425.333433 437.665837 
L 425.553065 482.193321 
L 425.772698 425.902087 
L 425.99233 441.636197 
L 426.211962 480.183007 
L 426.870859 337.438034 
L 427.090491 480.486516 
L 427.310124 474.52877 
L 427.529756 462.81978 
L 427.749388 396.200829 
L 427.96902 433.570963 
L 428.188653 444.661171 
L 428.408285 368.865331 
L 428.627917 468.746683 
L 428.84755 399.152372 
L 429.067182 424.864782 
L 429.286814 315.738678 
L 429.506446 493.183292 
L 429.726079 390.231406 
L 429.945711 354.311484 
L 430.165343 458.244233 
L 430.384976 303.29268 
L 430.604608 415.098068 
L 430.82424 423.434757 
L 431.043872 416.026296 
L 431.263505 369.400918 
L 431.483137 459.414152 
L 431.702769 476.979195 
L 431.922402 513.541821 
L 432.142034 410.902521 
L 432.361666 465.504612 
L 432.581298 415.178258 
L 432.800931 422.235701 
L 433.020563 361.010122 
L 433.240195 478.029955 
L 433.459828 369.161395 
L 433.67946 409.640476 
L 433.899092 386.335276 
L 434.118724 408.314049 
L 434.557989 500.460848 
L 434.777621 426.075127 
L 434.997254 465.761498 
L 435.216886 453.949369 
L 435.436518 401.185351 
L 435.875783 392.252135 
L 436.095415 451.203221 
L 436.53468 413.118194 
L 436.754312 479.68761 
L 437.193576 284.426575 
L 437.632841 398.355871 
L 437.852473 403.800999 
L 438.072106 493.751569 
L 438.291738 396.496676 
L 438.51137 492.227206 
L 438.731002 426.021735 
L 438.950635 421.619836 
L 439.170267 321.460428 
L 439.389899 474.752659 
L 439.609532 363.540038 
L 439.829164 396.226841 
L 440.048796 495.438082 
L 440.268428 456.830992 
L 440.488061 479.389999 
L 440.927325 301.607339 
L 441.146958 361.101657 
L 441.36659 477.62083 
L 441.586222 451.285163 
L 441.805854 231.610326 
L 442.025487 398.445305 
L 442.245119 347.42121 
L 442.464751 366.298409 
L 442.684383 439.937928 
L 442.904016 426.368219 
L 443.123648 404.10413 
L 443.34328 452.534829 
L 443.562913 346.612521 
L 443.782545 446.281099 
L 444.002177 452.797949 
L 444.221809 475.298908 
L 444.661074 413.835562 
L 444.880706 468.711282 
L 445.100339 404.669567 
L 445.319971 445.904908 
L 445.539603 365.178374 
L 445.759235 460.247209 
L 445.978868 465.328782 
L 446.1985 377.230033 
L 446.418132 399.301795 
L 446.637765 443.844228 
L 446.857397 296.312553 
L 447.077029 495.498289 
L 447.516294 414.550146 
L 447.735926 414.35798 
L 447.955558 469.328849 
L 448.175191 447.989675 
L 448.394823 441.363608 
L 448.614455 373.286183 
L 448.834087 441.639148 
L 449.05372 384.980611 
L 449.273352 383.381802 
L 449.492984 443.178621 
L 449.712617 382.44852 
L 449.932249 431.935072 
L 450.371513 265.550245 
L 450.591146 250.050567 
L 450.810778 462.610391 
L 451.03041 407.094938 
L 451.250043 497.982952 
L 451.469675 452.666777 
L 451.689307 357.389695 
L 451.908939 380.240789 
L 452.128572 381.593602 
L 452.348204 490.721293 
L 452.567836 338.383235 
L 452.787469 442.067066 
L 453.007101 276.684857 
L 453.446365 470.101515 
L 453.665998 421.574879 
L 453.88563 456.649501 
L 454.105262 249.951887 
L 454.324895 439.873157 
L 454.544527 292.691396 
L 454.764159 413.497459 
L 454.983791 382.67443 
L 455.203424 440.892693 
L 455.423056 459.392745 
L 455.642688 397.756515 
L 455.862321 397.297942 
L 456.081953 506.105193 
L 456.74085 385.870188 
L 456.960482 489.429982 
L 457.180114 355.38123 
L 457.399746 336.096159 
L 457.619379 371.777295 
L 457.839011 321.710434 
L 458.058643 438.77984 
L 458.278276 425.187877 
L 458.497908 419.102718 
L 458.71754 456.131462 
L 458.937172 429.271544 
L 459.156805 434.471369 
L 459.596069 452.12482 
L 459.815702 324.787067 
L 460.035334 492.86083 
L 460.254966 507.489509 
L 460.474598 393.489912 
L 460.694231 417.744334 
L 460.913863 456.452339 
L 461.133495 348.701545 
L 461.353128 446.700938 
L 461.57276 448.033587 
L 461.792392 337.394065 
L 462.231657 462.44459 
L 462.451289 385.084214 
L 462.670921 378.171283 
L 462.890554 478.665102 
L 463.329818 408.063064 
L 463.54945 408.522739 
L 463.988715 492.076348 
L 464.208347 330.293695 
L 464.42798 427.661927 
L 464.647612 415.264613 
L 464.867244 421.564212 
L 465.086876 403.965913 
L 465.306509 288.172239 
L 465.526141 406.477138 
L 465.965406 449.011398 
L 466.185038 292.304232 
L 466.40467 424.956877 
L 466.624302 448.500262 
L 466.843935 311.679293 
L 467.063567 487.879785 
L 467.283199 424.44757 
L 467.502832 478.692011 
L 467.942096 335.554338 
L 468.161728 349.383093 
L 468.381361 345.448516 
L 468.600993 413.758349 
L 468.820625 403.517386 
L 469.040258 409.175415 
L 469.25989 248.148701 
L 469.479522 430.456002 
L 469.699154 358.806745 
L 469.918787 380.099474 
L 470.138419 432.259884 
L 470.358051 447.715454 
L 470.577684 500.529336 
L 470.797316 497.532591 
L 471.016948 325.104153 
L 471.23658 319.401365 
L 471.456213 434.700601 
L 471.675845 245.38481 
L 471.895477 489.901708 
L 472.11511 414.75474 
L 472.334742 414.452418 
L 472.554374 433.890592 
L 472.774006 440.190737 
L 472.993639 537.005532 
L 473.213271 503.20737 
L 473.432903 425.273677 
L 473.652535 450.966558 
L 473.872168 321.319661 
L 474.0918 320.837063 
L 474.311432 446.176981 
L 474.531065 422.41093 
L 474.750697 380.246002 
L 474.970329 483.160188 
L 475.189961 519.693332 
L 475.409594 417.558703 
L 475.629226 385.20527 
L 475.848858 424.969326 
L 476.068491 428.986181 
L 476.288123 351.836205 
L 476.727387 485.90183 
L 477.166652 406.708912 
L 477.386284 465.286682 
L 477.605917 304.282202 
L 477.825549 314.621329 
L 478.045181 457.514426 
L 478.264813 459.575393 
L 478.484446 431.1549 
L 478.704078 433.983027 
L 478.92371 397.537679 
L 479.143343 463.080435 
L 479.362975 367.667355 
L 479.582607 328.026352 
L 479.802239 379.587484 
L 480.021872 506.706455 
L 480.241504 288.17073 
L 480.461136 443.539595 
L 480.680769 340.178831 
L 480.900401 479.493934 
L 481.120033 410.050607 
L 481.339665 441.523614 
L 481.77893 389.11789 
L 481.998562 391.164969 
L 482.437827 325.885937 
L 482.657459 358.145904 
L 482.877091 420.687043 
L 483.096724 414.261971 
L 483.316356 391.93844 
L 483.535988 332.479294 
L 483.755621 313.216368 
L 483.975253 462.796383 
L 484.194885 480.807196 
L 484.414517 449.42531 
L 484.63415 366.907415 
L 484.853782 453.347858 
L 485.073414 372.254612 
L 485.293047 384.010594 
L 485.512679 356.897031 
L 485.951943 463.940368 
L 486.171576 436.208359 
L 486.391208 459.289568 
L 486.61084 428.254053 
L 486.830473 346.129464 
L 487.269737 438.95081 
L 487.489369 449.281444 
L 487.709002 427.595301 
L 487.928634 466.549708 
L 488.148266 449.419071 
L 488.367898 466.966575 
L 488.587531 329.335847 
L 489.026795 389.467738 
L 489.246428 511.654454 
L 489.685692 311.17973 
L 489.905324 437.819842 
L 490.124957 345.696994 
L 490.344589 466.959552 
L 491.223118 346.702245 
L 491.662383 436.950753 
L 491.882015 455.686271 
L 492.101647 381.446858 
L 492.32128 442.956484 
L 492.540912 377.622919 
L 492.760544 452.434933 
L 492.980176 318.249951 
L 493.419441 486.605015 
L 493.639073 455.184029 
L 493.858706 470.95117 
L 494.29797 335.024113 
L 494.517602 335.5695 
L 494.737235 439.264454 
L 495.176499 385.196431 
L 495.615764 512.820993 
L 495.835396 359.369992 
L 496.055028 491.688222 
L 496.274661 354.557408 
L 496.494293 351.045474 
L 496.713925 319.505671 
L 496.933558 258.266836 
L 497.372822 510.433221 
L 497.592454 391.038021 
L 497.812087 364.047136 
L 498.031719 464.106819 
L 498.251351 492.940199 
L 498.470984 353.772208 
L 498.910248 464.772135 
L 499.349513 448.601009 
L 499.569145 303.195863 
L 500.00841 449.383535 
L 500.228042 446.501828 
L 500.447674 359.930389 
L 500.667306 379.453222 
L 500.886939 466.671441 
L 501.106571 244.0082 
L 501.326203 485.340921 
L 501.545836 477.369369 
L 501.765468 389.589472 
L 501.9851 491.410089 
L 502.204732 496.00198 
L 502.643997 427.263742 
L 502.863629 462.599694 
L 503.083262 336.704145 
L 503.302894 406.324863 
L 503.522526 416.03987 
L 503.742158 392.019006 
L 503.961791 409.356423 
L 504.181423 363.551846 
L 504.401055 364.159525 
L 504.620687 332.485481 
L 504.84032 371.862199 
L 505.059952 352.826657 
L 505.279584 285.052738 
L 505.499217 326.054641 
L 505.718849 484.796687 
L 505.938481 455.573641 
L 506.158113 393.133871 
L 506.377746 453.55342 
L 506.597378 441.884329 
L 506.81701 344.119823 
L 507.256275 505.210408 
L 507.475907 319.267759 
L 507.695539 354.195477 
L 507.915172 325.331427 
L 508.354436 475.299821 
L 508.574069 393.228067 
L 508.793701 440.197875 
L 509.013333 403.331069 
L 509.232965 449.9161 
L 509.452598 362.046835 
L 509.67223 387.93493 
L 509.891862 301.004299 
L 510.111495 440.251748 
L 510.331127 355.651476 
L 510.550759 473.120172 
L 510.770391 417.420374 
L 510.990024 468.308168 
L 511.209656 461.99671 
L 511.429288 402.691202 
L 511.648921 309.448408 
L 511.868553 475.472895 
L 512.088185 390.760308 
L 512.747082 514.338702 
L 513.186347 369.144622 
L 513.405979 493.916894 
L 513.625611 341.603798 
L 513.845243 447.52099 
L 514.064876 414.012145 
L 514.284508 473.051697 
L 514.50414 470.991589 
L 514.723773 359.713999 
L 514.943405 469.994289 
L 515.163037 401.620592 
L 515.382669 432.348894 
L 515.602302 498.084405 
L 516.041566 406.622684 
L 516.261199 314.190996 
L 516.480831 294.464373 
L 516.700463 365.074207 
L 516.920095 327.624391 
L 517.35936 509.105782 
L 517.578992 515.627601 
L 517.798625 470.866661 
L 518.018257 298.248058 
L 518.237889 399.101044 
L 518.457521 368.079079 
L 518.677154 394.747803 
L 518.896786 470.962113 
L 519.33605 276.170368 
L 519.775315 452.964317 
L 519.994947 472.119536 
L 520.21458 404.265388 
L 520.653844 480.49698 
L 521.093109 348.121093 
L 521.532373 473.312734 
L 521.752006 388.729229 
L 521.971638 484.450525 
L 522.19127 326.207637 
L 522.630535 488.169876 
L 522.850167 339.67156 
L 523.069799 390.341553 
L 523.289432 400.777496 
L 523.509064 320.27105 
L 523.728696 447.246257 
L 524.167961 375.54803 
L 524.387593 485.648344 
L 524.607225 434.439184 
L 524.826858 484.54623 
L 525.04649 323.517567 
L 525.485754 453.722679 
L 525.705387 398.689963 
L 525.925019 463.496682 
L 526.583916 322.697263 
L 526.803548 467.485803 
L 527.02318 390.21263 
L 527.242813 444.919939 
L 527.462445 457.650261 
L 527.682077 496.956632 
L 528.121342 316.937709 
L 528.340974 510.889063 
L 528.780239 264.280961 
L 528.999871 425.598546 
L 529.219503 454.691679 
L 529.439136 383.55796 
L 529.658768 384.223768 
L 529.8784 352.131116 
L 530.098032 338.974876 
L 530.317665 428.635255 
L 530.756929 348.509261 
L 530.976562 262.643192 
L 531.196194 464.933559 
L 531.415826 504.88598 
L 531.635458 431.825908 
L 531.855091 487.228512 
L 532.074723 451.779653 
L 532.513988 504.933128 
L 532.73362 289.184672 
L 532.953252 363.381335 
L 533.172884 304.225098 
L 533.392517 431.389186 
L 533.612149 205.093307 
L 533.831781 447.89607 
L 534.051413 463.444294 
L 534.490678 360.769258 
L 534.929943 482.173963 
L 535.149575 389.603474 
L 535.369207 482.231631 
L 535.588839 364.022305 
L 536.028104 418.935396 
L 536.247736 375.494372 
L 536.467369 358.908724 
L 536.687001 497.571381 
L 536.906633 347.364145 
L 537.126265 444.742206 
L 537.345898 347.937689 
L 537.785162 503.899979 
L 538.224427 449.274566 
L 538.444059 436.879625 
L 538.663691 324.520279 
L 538.883324 398.956235 
L 539.102956 525.590497 
L 539.322588 350.252605 
L 539.542221 415.538034 
L 539.761853 419.052274 
L 539.981485 495.501882 
L 540.201117 493.590152 
L 540.42075 276.447176 
L 540.640382 422.236734 
L 541.079647 286.31957 
L 541.299279 409.448321 
L 541.738543 469.615831 
L 541.958176 411.1393 
L 542.177808 438.121252 
L 542.39744 434.12524 
L 542.617073 374.010428 
L 542.836705 424.302074 
L 543.056337 431.022729 
L 543.275969 442.881011 
L 543.495602 435.376643 
L 543.715234 461.410999 
L 543.934866 424.925913 
L 544.154499 435.567583 
L 544.374131 488.921016 
L 544.813395 456.914434 
L 545.033028 454.473301 
L 545.472292 329.72071 
L 545.691925 263.467456 
L 545.911557 448.977638 
L 545.911557 448.977638 
" style="fill:none;stroke:#96c69a;stroke-linecap:round;stroke-width:3;"/>
   </g>
   <g id="line2d_2"/>
   <g id="patch_3">
    <path d="M 84.914375 602.94 
L 84.914375 109.326857 
" style="fill:none;stroke:#262626;stroke-linecap:square;stroke-linejoin:miter;stroke-width:2.5;"/>
   </g>
   <g id="patch_4">
    <path d="M 84.914375 602.94 
L 567.863804 602.94 
" style="fill:none;stroke:#262626;stroke-linecap:square;stroke-linejoin:miter;stroke-width:2.5;"/>
   </g>
   <g id="legend_1">
    <g id="patch_5">
     <path d="M 514.948179 597.94 
L 560.863804 597.94 
Q 562.863804 597.94 562.863804 595.94 
L 562.863804 554.034375 
Q 562.863804 552.034375 560.863804 552.034375 
L 514.948179 552.034375 
Q 512.948179 552.034375 512.948179 554.034375 
L 512.948179 595.94 
Q 512.948179 597.94 514.948179 597.94 
z
" style="fill:#ffffff;opacity:0.8;stroke:#cccccc;stroke-linejoin:miter;stroke-width:2;"/>
    </g>
    <g id="text_17">
     <!-- $n_\tau$ -->
     <g style="fill:#262626;" transform="translate(524.825991 574.270625)scale(0.24 -0.24)">
      <defs>
       <path d="M 3566 2113 
L 3156 0 
L 2578 0 
L 2988 2091 
Q 3016 2238 3031 2350 
Q 3047 2463 3047 2528 
Q 3047 2791 2881 2937 
Q 2716 3084 2419 3084 
Q 1956 3084 1622 2776 
Q 1288 2469 1184 1941 
L 800 0 
L 225 0 
L 903 3500 
L 1478 3500 
L 1363 2950 
Q 1603 3253 1940 3418 
Q 2278 3584 2650 3584 
Q 3113 3584 3367 3334 
Q 3622 3084 3622 2631 
Q 3622 2519 3608 2391 
Q 3594 2263 3566 2113 
z
" id="DejaVuSans-Oblique-6e" transform="scale(0.015625)"/>
       <path d="M 2103 638 
Q 2188 488 2525 488 
L 2800 488 
L 2706 0 
L 2363 0 
Q 1800 0 1600 300 
Q 1403 606 1534 1269 
L 1856 2925 
L 541 2925 
L 653 3500 
L 3881 3500 
L 3769 2925 
L 2444 2925 
L 2113 1234 
Q 2025 781 2103 638 
z
" id="DejaVuSans-Oblique-3c4" transform="scale(0.015625)"/>
      </defs>
      <use xlink:href="#DejaVuSans-Oblique-6e"/>
      <use transform="translate(63.378906 -16.40625)scale(0.7)" xlink:href="#DejaVuSans-Oblique-3c4"/>
     </g>
    </g>
    <g id="line2d_3">
     <path d="M 516.948179 588.360312 
L 536.948179 588.360312 
" style="fill:none;stroke:#96c69a;stroke-linecap:round;stroke-width:3;"/>
    </g>
    <g id="line2d_4"/>
    <g id="text_18">
     <!-- 40 -->
     <g style="fill:#262626;" transform="translate(544.948179 591.860312)scale(0.1 -0.1)">
      <defs>
       <path d="M 2356 3675 
L 1038 1722 
L 2356 1722 
L 2356 3675 
z
M 2156 4666 
L 3494 4666 
L 3494 1722 
L 4159 1722 
L 4159 850 
L 3494 850 
L 3494 0 
L 2356 0 
L 2356 850 
L 288 850 
L 288 1881 
L 2156 4666 
z
" id="DejaVuSans-Bold-34" transform="scale(0.015625)"/>
       <path d="M 2944 2338 
Q 2944 3213 2780 3570 
Q 2616 3928 2228 3928 
Q 1841 3928 1675 3570 
Q 1509 3213 1509 2338 
Q 1509 1453 1675 1090 
Q 1841 728 2228 728 
Q 2613 728 2778 1090 
Q 2944 1453 2944 2338 
z
M 4147 2328 
Q 4147 1169 3647 539 
Q 3147 -91 2228 -91 
Q 1306 -91 806 539 
Q 306 1169 306 2328 
Q 306 3491 806 4120 
Q 1306 4750 2228 4750 
Q 3147 4750 3647 4120 
Q 4147 3491 4147 2328 
z
" id="DejaVuSans-Bold-30" transform="scale(0.015625)"/>
      </defs>
      <use xlink:href="#DejaVuSans-Bold-34"/>
      <use x="69.580078" xlink:href="#DejaVuSans-Bold-30"/>
     </g>
    </g>
   </g>
  </g>
  <g id="axes_2">
   <g id="patch_6">
    <path d="M 84.914375 92.305714 
L 567.863804 92.305714 
L 567.863804 7.2 
L 84.914375 7.2 
z
" style="fill:none;"/>
   </g>
   <g id="matplotlib.axis_3">
    <g id="xtick_7"/>
    <g id="xtick_8"/>
    <g id="xtick_9"/>
    <g id="xtick_10"/>
    <g id="xtick_11"/>
    <g id="xtick_12"/>
   </g>
   <g id="matplotlib.axis_4">
    <g id="ytick_9">
     <g id="text_19">
      <!-- 0 -->
      <g style="fill:#262626;" transform="translate(55.416875 100.663996)scale(0.22 -0.22)">
       <use xlink:href="#DejaVuSans-30"/>
      </g>
     </g>
    </g>
    <g id="ytick_10">
     <g id="text_20">
      <!-- 100 -->
      <g style="fill:#262626;" transform="translate(27.421875 48.032138)scale(0.22 -0.22)">
       <use xlink:href="#DejaVuSans-31"/>
       <use x="63.623047" xlink:href="#DejaVuSans-30"/>
       <use x="127.246094" xlink:href="#DejaVuSans-30"/>
      </g>
     </g>
    </g>
   </g>
   <g id="patch_7">
    <path clip-path="url(#p42dcd9c822)" d="M 106.866622 92.305714 
L 140.639309 92.305714 
L 140.639309 11.252653 
L 106.866622 11.252653 
z
" style="fill:#96c69a;fill-opacity:0.5;stroke:#ffffff;stroke-linejoin:miter;stroke-width:2;"/>
   </g>
   <g id="patch_8">
    <path clip-path="url(#p42dcd9c822)" d="M 140.639309 92.305714 
L 174.411996 92.305714 
L 174.411996 11.252653 
L 140.639309 11.252653 
z
" style="fill:#96c69a;fill-opacity:0.5;stroke:#ffffff;stroke-linejoin:miter;stroke-width:2;"/>
   </g>
   <g id="patch_9">
    <path clip-path="url(#p42dcd9c822)" d="M 174.411996 92.305714 
L 208.184684 92.305714 
L 208.184684 11.252653 
L 174.411996 11.252653 
z
" style="fill:#96c69a;fill-opacity:0.5;stroke:#ffffff;stroke-linejoin:miter;stroke-width:2;"/>
   </g>
   <g id="patch_10">
    <path clip-path="url(#p42dcd9c822)" d="M 208.184684 92.305714 
L 241.957371 92.305714 
L 241.957371 11.252653 
L 208.184684 11.252653 
z
" style="fill:#96c69a;fill-opacity:0.5;stroke:#ffffff;stroke-linejoin:miter;stroke-width:2;"/>
   </g>
   <g id="patch_11">
    <path clip-path="url(#p42dcd9c822)" d="M 241.957371 92.305714 
L 275.730058 92.305714 
L 275.730058 11.778972 
L 241.957371 11.778972 
z
" style="fill:#96c69a;fill-opacity:0.5;stroke:#ffffff;stroke-linejoin:miter;stroke-width:2;"/>
   </g>
   <g id="patch_12">
    <path clip-path="url(#p42dcd9c822)" d="M 275.730058 92.305714 
L 309.502746 92.305714 
L 309.502746 11.252653 
L 275.730058 11.252653 
z
" style="fill:#96c69a;fill-opacity:0.5;stroke:#ffffff;stroke-linejoin:miter;stroke-width:2;"/>
   </g>
   <g id="patch_13">
    <path clip-path="url(#p42dcd9c822)" d="M 309.502746 92.305714 
L 343.275433 92.305714 
L 343.275433 11.252653 
L 309.502746 11.252653 
z
" style="fill:#96c69a;fill-opacity:0.5;stroke:#ffffff;stroke-linejoin:miter;stroke-width:2;"/>
   </g>
   <g id="patch_14">
    <path clip-path="url(#p42dcd9c822)" d="M 343.275433 92.305714 
L 377.04812 92.305714 
L 377.04812 11.252653 
L 343.275433 11.252653 
z
" style="fill:#96c69a;fill-opacity:0.5;stroke:#ffffff;stroke-linejoin:miter;stroke-width:2;"/>
   </g>
   <g id="patch_15">
    <path clip-path="url(#p42dcd9c822)" d="M 377.04812 92.305714 
L 410.820808 92.305714 
L 410.820808 11.778972 
L 377.04812 11.778972 
z
" style="fill:#96c69a;fill-opacity:0.5;stroke:#ffffff;stroke-linejoin:miter;stroke-width:2;"/>
   </g>
   <g id="patch_16">
    <path clip-path="url(#p42dcd9c822)" d="M 410.820808 92.305714 
L 444.593495 92.305714 
L 444.593495 11.252653 
L 410.820808 11.252653 
z
" style="fill:#96c69a;fill-opacity:0.5;stroke:#ffffff;stroke-linejoin:miter;stroke-width:2;"/>
   </g>
   <g id="patch_17">
    <path clip-path="url(#p42dcd9c822)" d="M 444.593495 92.305714 
L 478.366182 92.305714 
L 478.366182 11.252653 
L 444.593495 11.252653 
z
" style="fill:#96c69a;fill-opacity:0.5;stroke:#ffffff;stroke-linejoin:miter;stroke-width:2;"/>
   </g>
   <g id="patch_18">
    <path clip-path="url(#p42dcd9c822)" d="M 478.366182 92.305714 
L 512.13887 92.305714 
L 512.13887 11.252653 
L 478.366182 11.252653 
z
" style="fill:#96c69a;fill-opacity:0.5;stroke:#ffffff;stroke-linejoin:miter;stroke-width:2;"/>
   </g>
   <g id="patch_19">
    <path clip-path="url(#p42dcd9c822)" d="M 512.13887 92.305714 
L 545.911557 92.305714 
L 545.911557 11.252653 
L 512.13887 11.252653 
z
" style="fill:#96c69a;fill-opacity:0.5;stroke:#ffffff;stroke-linejoin:miter;stroke-width:2;"/>
   </g>
   <g id="patch_20">
    <path d="M 84.914375 92.305714 
L 84.914375 7.2 
" style="fill:none;stroke:#262626;stroke-linecap:square;stroke-linejoin:miter;stroke-width:2.5;"/>
   </g>
   <g id="patch_21">
    <path d="M 84.914375 92.305714 
L 567.863804 92.305714 
" style="fill:none;stroke:#262626;stroke-linecap:square;stroke-linejoin:miter;stroke-width:2.5;"/>
   </g>
  </g>
  <g id="axes_3">
   <g id="patch_22">
    <path d="M 584.517232 602.94 
L 667.784375 602.94 
L 667.784375 109.326857 
L 584.517232 109.326857 
z
" style="fill:none;"/>
   </g>
   <g id="matplotlib.axis_5">
    <g id="xtick_13">
     <g id="text_21">
      <!-- 0 -->
      <g style="fill:#262626;" transform="translate(577.518482 635.156562)scale(0.22 -0.22)">
       <use xlink:href="#DejaVuSans-30"/>
      </g>
     </g>
    </g>
    <g id="xtick_14">
     <g id="text_22">
      <!-- 100 -->
      <g style="fill:#262626;" transform="translate(606.855431 635.156562)scale(0.22 -0.22)">
       <use xlink:href="#DejaVuSans-31"/>
       <use x="63.623047" xlink:href="#DejaVuSans-30"/>
       <use x="127.246094" xlink:href="#DejaVuSans-30"/>
      </g>
     </g>
    </g>
   </g>
   <g id="matplotlib.axis_6">
    <g id="ytick_11"/>
    <g id="ytick_12"/>
    <g id="ytick_13"/>
    <g id="ytick_14"/>
    <g id="ytick_15"/>
    <g id="ytick_16"/>
    <g id="ytick_17"/>
    <g id="ytick_18"/>
   </g>
   <g id="patch_23">
    <path clip-path="url(#pdf9d52a091)" d="M 584.517232 580.503039 
L 584.950577 580.503039 
L 584.950577 568.038061 
L 584.517232 568.038061 
z
" style="fill:#96c69a;fill-opacity:0.5;stroke:#ffffff;stroke-linejoin:miter;stroke-width:1.246498;"/>
   </g>
   <g id="patch_24">
    <path clip-path="url(#pdf9d52a091)" d="M 584.517232 568.038061 
L 584.517232 568.038061 
L 584.517232 555.573082 
L 584.517232 555.573082 
z
" style="fill:#96c69a;fill-opacity:0.5;stroke:#ffffff;stroke-linejoin:miter;stroke-width:1.246498;"/>
   </g>
   <g id="patch_25">
    <path clip-path="url(#pdf9d52a091)" d="M 584.517232 555.573082 
L 584.950577 555.573082 
L 584.950577 543.108104 
L 584.517232 543.108104 
z
" style="fill:#96c69a;fill-opacity:0.5;stroke:#ffffff;stroke-linejoin:miter;stroke-width:1.246498;"/>
   </g>
   <g id="patch_26">
    <path clip-path="url(#pdf9d52a091)" d="M 584.517232 543.108104 
L 587.117299 543.108104 
L 587.117299 530.643126 
L 584.517232 530.643126 
z
" style="fill:#96c69a;fill-opacity:0.5;stroke:#ffffff;stroke-linejoin:miter;stroke-width:1.246498;"/>
   </g>
   <g id="patch_27">
    <path clip-path="url(#pdf9d52a091)" d="M 584.517232 530.643126 
L 593.617466 530.643126 
L 593.617466 518.178147 
L 584.517232 518.178147 
z
" style="fill:#96c69a;fill-opacity:0.5;stroke:#ffffff;stroke-linejoin:miter;stroke-width:1.246498;"/>
   </g>
   <g id="patch_28">
    <path clip-path="url(#pdf9d52a091)" d="M 584.517232 518.178147 
L 598.384256 518.178147 
L 598.384256 505.713169 
L 584.517232 505.713169 
z
" style="fill:#96c69a;fill-opacity:0.5;stroke:#ffffff;stroke-linejoin:miter;stroke-width:1.246498;"/>
   </g>
   <g id="patch_29">
    <path clip-path="url(#pdf9d52a091)" d="M 584.517232 505.713169 
L 604.451078 505.713169 
L 604.451078 493.24819 
L 584.517232 493.24819 
z
" style="fill:#96c69a;fill-opacity:0.5;stroke:#ffffff;stroke-linejoin:miter;stroke-width:1.246498;"/>
   </g>
   <g id="patch_30">
    <path clip-path="url(#pdf9d52a091)" d="M 584.517232 493.24819 
L 622.218202 493.24819 
L 622.218202 480.783212 
L 584.517232 480.783212 
z
" style="fill:#96c69a;fill-opacity:0.5;stroke:#ffffff;stroke-linejoin:miter;stroke-width:1.246498;"/>
   </g>
   <g id="patch_31">
    <path clip-path="url(#pdf9d52a091)" d="M 584.517232 480.783212 
L 640.852015 480.783212 
L 640.852015 468.318234 
L 584.517232 468.318234 
z
" style="fill:#96c69a;fill-opacity:0.5;stroke:#ffffff;stroke-linejoin:miter;stroke-width:1.246498;"/>
   </g>
   <g id="patch_32">
    <path clip-path="url(#pdf9d52a091)" d="M 584.517232 468.318234 
L 643.885427 468.318234 
L 643.885427 455.853255 
L 584.517232 455.853255 
z
" style="fill:#96c69a;fill-opacity:0.5;stroke:#ffffff;stroke-linejoin:miter;stroke-width:1.246498;"/>
   </g>
   <g id="patch_33">
    <path clip-path="url(#pdf9d52a091)" d="M 584.517232 455.853255 
L 663.819273 455.853255 
L 663.819273 443.388277 
L 584.517232 443.388277 
z
" style="fill:#96c69a;fill-opacity:0.5;stroke:#ffffff;stroke-linejoin:miter;stroke-width:1.246498;"/>
   </g>
   <g id="patch_34">
    <path clip-path="url(#pdf9d52a091)" d="M 584.517232 443.388277 
L 652.985661 443.388277 
L 652.985661 430.923299 
L 584.517232 430.923299 
z
" style="fill:#96c69a;fill-opacity:0.5;stroke:#ffffff;stroke-linejoin:miter;stroke-width:1.246498;"/>
   </g>
   <g id="patch_35">
    <path clip-path="url(#pdf9d52a091)" d="M 584.517232 430.923299 
L 646.918838 430.923299 
L 646.918838 418.45832 
L 584.517232 418.45832 
z
" style="fill:#96c69a;fill-opacity:0.5;stroke:#ffffff;stroke-linejoin:miter;stroke-width:1.246498;"/>
   </g>
   <g id="patch_36">
    <path clip-path="url(#pdf9d52a091)" d="M 584.517232 418.45832 
L 653.85235 418.45832 
L 653.85235 405.993342 
L 584.517232 405.993342 
z
" style="fill:#96c69a;fill-opacity:0.5;stroke:#ffffff;stroke-linejoin:miter;stroke-width:1.246498;"/>
   </g>
   <g id="patch_37">
    <path clip-path="url(#pdf9d52a091)" d="M 584.517232 405.993342 
L 659.052484 405.993342 
L 659.052484 393.528364 
L 584.517232 393.528364 
z
" style="fill:#96c69a;fill-opacity:0.5;stroke:#ffffff;stroke-linejoin:miter;stroke-width:1.246498;"/>
   </g>
   <g id="patch_38">
    <path clip-path="url(#pdf9d52a091)" d="M 584.517232 393.528364 
L 647.785527 393.528364 
L 647.785527 381.063385 
L 584.517232 381.063385 
z
" style="fill:#96c69a;fill-opacity:0.5;stroke:#ffffff;stroke-linejoin:miter;stroke-width:1.246498;"/>
   </g>
   <g id="patch_39">
    <path clip-path="url(#pdf9d52a091)" d="M 584.517232 381.063385 
L 633.051815 381.063385 
L 633.051815 368.598407 
L 584.517232 368.598407 
z
" style="fill:#96c69a;fill-opacity:0.5;stroke:#ffffff;stroke-linejoin:miter;stroke-width:1.246498;"/>
   </g>
   <g id="patch_40">
    <path clip-path="url(#pdf9d52a091)" d="M 584.517232 368.598407 
L 628.285025 368.598407 
L 628.285025 356.133429 
L 584.517232 356.133429 
z
" style="fill:#96c69a;fill-opacity:0.5;stroke:#ffffff;stroke-linejoin:miter;stroke-width:1.246498;"/>
   </g>
   <g id="patch_41">
    <path clip-path="url(#pdf9d52a091)" d="M 584.517232 356.133429 
L 619.618135 356.133429 
L 619.618135 343.66845 
L 584.517232 343.66845 
z
" style="fill:#96c69a;fill-opacity:0.5;stroke:#ffffff;stroke-linejoin:miter;stroke-width:1.246498;"/>
   </g>
   <g id="patch_42">
    <path clip-path="url(#pdf9d52a091)" d="M 584.517232 343.66845 
L 608.784523 343.66845 
L 608.784523 331.203472 
L 584.517232 331.203472 
z
" style="fill:#96c69a;fill-opacity:0.5;stroke:#ffffff;stroke-linejoin:miter;stroke-width:1.246498;"/>
   </g>
   <g id="patch_43">
    <path clip-path="url(#pdf9d52a091)" d="M 584.517232 331.203472 
L 613.117968 331.203472 
L 613.117968 318.738494 
L 584.517232 318.738494 
z
" style="fill:#96c69a;fill-opacity:0.5;stroke:#ffffff;stroke-linejoin:miter;stroke-width:1.246498;"/>
   </g>
   <g id="patch_44">
    <path clip-path="url(#pdf9d52a091)" d="M 584.517232 318.738494 
L 603.151045 318.738494 
L 603.151045 306.273515 
L 584.517232 306.273515 
z
" style="fill:#96c69a;fill-opacity:0.5;stroke:#ffffff;stroke-linejoin:miter;stroke-width:1.246498;"/>
   </g>
   <g id="patch_45">
    <path clip-path="url(#pdf9d52a091)" d="M 584.517232 306.273515 
L 597.084222 306.273515 
L 597.084222 293.808537 
L 584.517232 293.808537 
z
" style="fill:#96c69a;fill-opacity:0.5;stroke:#ffffff;stroke-linejoin:miter;stroke-width:1.246498;"/>
   </g>
   <g id="patch_46">
    <path clip-path="url(#pdf9d52a091)" d="M 584.517232 293.808537 
L 597.950911 293.808537 
L 597.950911 281.343558 
L 584.517232 281.343558 
z
" style="fill:#96c69a;fill-opacity:0.5;stroke:#ffffff;stroke-linejoin:miter;stroke-width:1.246498;"/>
   </g>
   <g id="patch_47">
    <path clip-path="url(#pdf9d52a091)" d="M 584.517232 281.343558 
L 593.184122 281.343558 
L 593.184122 268.87858 
L 584.517232 268.87858 
z
" style="fill:#96c69a;fill-opacity:0.5;stroke:#ffffff;stroke-linejoin:miter;stroke-width:1.246498;"/>
   </g>
   <g id="patch_48">
    <path clip-path="url(#pdf9d52a091)" d="M 584.517232 268.87858 
L 590.15071 268.87858 
L 590.15071 256.413602 
L 584.517232 256.413602 
z
" style="fill:#96c69a;fill-opacity:0.5;stroke:#ffffff;stroke-linejoin:miter;stroke-width:1.246498;"/>
   </g>
   <g id="patch_49">
    <path clip-path="url(#pdf9d52a091)" d="M 584.517232 256.413602 
L 588.417333 256.413602 
L 588.417333 243.948623 
L 584.517232 243.948623 
z
" style="fill:#96c69a;fill-opacity:0.5;stroke:#ffffff;stroke-linejoin:miter;stroke-width:1.246498;"/>
   </g>
   <g id="patch_50">
    <path clip-path="url(#pdf9d52a091)" d="M 584.517232 243.948623 
L 587.117299 243.948623 
L 587.117299 231.483645 
L 584.517232 231.483645 
z
" style="fill:#96c69a;fill-opacity:0.5;stroke:#ffffff;stroke-linejoin:miter;stroke-width:1.246498;"/>
   </g>
   <g id="patch_51">
    <path clip-path="url(#pdf9d52a091)" d="M 584.517232 231.483645 
L 584.950577 231.483645 
L 584.950577 219.018667 
L 584.517232 219.018667 
z
" style="fill:#96c69a;fill-opacity:0.5;stroke:#ffffff;stroke-linejoin:miter;stroke-width:1.246498;"/>
   </g>
   <g id="patch_52">
    <path clip-path="url(#pdf9d52a091)" d="M 584.517232 219.018667 
L 585.817266 219.018667 
L 585.817266 206.553688 
L 584.517232 206.553688 
z
" style="fill:#96c69a;fill-opacity:0.5;stroke:#ffffff;stroke-linejoin:miter;stroke-width:1.246498;"/>
   </g>
   <g id="patch_53">
    <path clip-path="url(#pdf9d52a091)" d="M 584.517232 206.553688 
L 585.383921 206.553688 
L 585.383921 194.08871 
L 584.517232 194.08871 
z
" style="fill:#96c69a;fill-opacity:0.5;stroke:#ffffff;stroke-linejoin:miter;stroke-width:1.246498;"/>
   </g>
   <g id="patch_54">
    <path clip-path="url(#pdf9d52a091)" d="M 584.517232 194.08871 
L 584.517232 194.08871 
L 584.517232 181.623732 
L 584.517232 181.623732 
z
" style="fill:#96c69a;fill-opacity:0.5;stroke:#ffffff;stroke-linejoin:miter;stroke-width:1.246498;"/>
   </g>
   <g id="patch_55">
    <path clip-path="url(#pdf9d52a091)" d="M 584.517232 181.623732 
L 585.383921 181.623732 
L 585.383921 169.158753 
L 584.517232 169.158753 
z
" style="fill:#96c69a;fill-opacity:0.5;stroke:#ffffff;stroke-linejoin:miter;stroke-width:1.246498;"/>
   </g>
   <g id="patch_56">
    <path clip-path="url(#pdf9d52a091)" d="M 584.517232 169.158753 
L 584.517232 169.158753 
L 584.517232 156.693775 
L 584.517232 156.693775 
z
" style="fill:#96c69a;fill-opacity:0.5;stroke:#ffffff;stroke-linejoin:miter;stroke-width:1.246498;"/>
   </g>
   <g id="patch_57">
    <path clip-path="url(#pdf9d52a091)" d="M 584.517232 156.693775 
L 584.517232 156.693775 
L 584.517232 144.228797 
L 584.517232 144.228797 
z
" style="fill:#96c69a;fill-opacity:0.5;stroke:#ffffff;stroke-linejoin:miter;stroke-width:1.246498;"/>
   </g>
   <g id="patch_58">
    <path clip-path="url(#pdf9d52a091)" d="M 584.517232 144.228797 
L 584.950577 144.228797 
L 584.950577 131.763818 
L 584.517232 131.763818 
z
" style="fill:#96c69a;fill-opacity:0.5;stroke:#ffffff;stroke-linejoin:miter;stroke-width:1.246498;"/>
   </g>
   <g id="patch_59">
    <path d="M 584.517232 602.94 
L 584.517232 109.326857 
" style="fill:none;stroke:#262626;stroke-linecap:square;stroke-linejoin:miter;stroke-width:2.5;"/>
   </g>
   <g id="patch_60">
    <path d="M 584.517232 602.94 
L 667.784375 602.94 
" style="fill:none;stroke:#262626;stroke-linecap:square;stroke-linejoin:miter;stroke-width:2.5;"/>
   </g>
  </g>
 </g>
 <defs>
  <clipPath id="pd8dc4c149d">
   <rect height="493.613143" width="482.949429" x="84.914375" y="109.326857"/>
  </clipPath>
  <clipPath id="p42dcd9c822">
   <rect height="85.105714" width="482.949429" x="84.914375" y="7.2"/>
  </clipPath>
  <clipPath id="pdf9d52a091">
   <rect height="493.613143" width="83.267143" x="584.517232" y="109.326857"/>
  </clipPath>
 </defs>
</svg>
