<?xml version="1.0" encoding="utf-8" standalone="no"?>
<!DOCTYPE svg PUBLIC "-//W3C//DTD SVG 1.1//EN"
  "http://www.w3.org/Graphics/SVG/1.1/DTD/svg11.dtd">
<svg height="674.159375pt" version="1.1" viewBox="0 0 674.984375 674.159375" width="674.984375pt" xmlns="http://www.w3.org/2000/svg" xmlns:xlink="http://www.w3.org/1999/xlink">
 <metadata>
  <rdf:RDF xmlns:cc="http://creativecommons.org/ns#" xmlns:dc="http://purl.org/dc/elements/1.1/" xmlns:rdf="http://www.w3.org/1999/02/22-rdf-syntax-ns#">
   <cc:Work>
    <dc:type rdf:resource="http://purl.org/dc/dcmitype/StillImage"/>
    <dc:date>2021-07-24T14:57:59.461461</dc:date>
    <dc:format>image/svg+xml</dc:format>
    <dc:creator>
     <cc:Agent>
      <dc:title>Matplotlib v3.4.2, https://matplotlib.org/</dc:title>
     </cc:Agent>
    </dc:creator>
   </cc:Work>
  </rdf:RDF>
 </metadata>
 <defs>
  <style type="text/css">*{stroke-linecap:butt;stroke-linejoin:round;}</style>
 </defs>
 <g id="figure_1">
  <g id="patch_1">
   <path d="M 0 674.159375 
L 674.984375 674.159375 
L 674.984375 0 
L 0 0 
z
" style="fill:#ffffff;"/>
  </g>
  <g id="axes_1">
   <g id="patch_2">
    <path d="M 84.914375 602.94 
L 567.863804 602.94 
L 567.863804 109.326857 
L 84.914375 109.326857 
z
" style="fill:none;"/>
   </g>
   <g id="matplotlib.axis_1">
    <g id="xtick_1">
     <g id="text_1">
      <!-- 0 -->
      <g style="fill:#262626;" transform="translate(99.648239 635.156562)scale(0.22 -0.22)">
       <defs>
        <path d="M 2034 4250 
Q 1547 4250 1301 3770 
Q 1056 3291 1056 2328 
Q 1056 1369 1301 889 
Q 1547 409 2034 409 
Q 2525 409 2770 889 
Q 3016 1369 3016 2328 
Q 3016 3291 2770 3770 
Q 2525 4250 2034 4250 
z
M 2034 4750 
Q 2819 4750 3233 4129 
Q 3647 3509 3647 2328 
Q 3647 1150 3233 529 
Q 2819 -91 2034 -91 
Q 1250 -91 836 529 
Q 422 1150 422 2328 
Q 422 3509 836 4129 
Q 1250 4750 2034 4750 
z
" id="DejaVuSans-30" transform="scale(0.015625)"/>
       </defs>
       <use xlink:href="#DejaVuSans-30"/>
      </g>
     </g>
    </g>
    <g id="xtick_2">
     <g id="text_2">
      <!-- 20000 -->
      <g style="fill:#262626;" transform="translate(159.506153 635.156562)scale(0.22 -0.22)">
       <defs>
        <path d="M 1228 531 
L 3431 531 
L 3431 0 
L 469 0 
L 469 531 
Q 828 903 1448 1529 
Q 2069 2156 2228 2338 
Q 2531 2678 2651 2914 
Q 2772 3150 2772 3378 
Q 2772 3750 2511 3984 
Q 2250 4219 1831 4219 
Q 1534 4219 1204 4116 
Q 875 4013 500 3803 
L 500 4441 
Q 881 4594 1212 4672 
Q 1544 4750 1819 4750 
Q 2544 4750 2975 4387 
Q 3406 4025 3406 3419 
Q 3406 3131 3298 2873 
Q 3191 2616 2906 2266 
Q 2828 2175 2409 1742 
Q 1991 1309 1228 531 
z
" id="DejaVuSans-32" transform="scale(0.015625)"/>
       </defs>
       <use xlink:href="#DejaVuSans-32"/>
       <use x="63.623047" xlink:href="#DejaVuSans-30"/>
       <use x="127.246094" xlink:href="#DejaVuSans-30"/>
       <use x="190.869141" xlink:href="#DejaVuSans-30"/>
       <use x="254.492188" xlink:href="#DejaVuSans-30"/>
      </g>
     </g>
    </g>
    <g id="xtick_3">
     <g id="text_3">
      <!-- 40000 -->
      <g style="fill:#262626;" transform="translate(247.359066 635.156562)scale(0.22 -0.22)">
       <defs>
        <path d="M 2419 4116 
L 825 1625 
L 2419 1625 
L 2419 4116 
z
M 2253 4666 
L 3047 4666 
L 3047 1625 
L 3713 1625 
L 3713 1100 
L 3047 1100 
L 3047 0 
L 2419 0 
L 2419 1100 
L 313 1100 
L 313 1709 
L 2253 4666 
z
" id="DejaVuSans-34" transform="scale(0.015625)"/>
       </defs>
       <use xlink:href="#DejaVuSans-34"/>
       <use x="63.623047" xlink:href="#DejaVuSans-30"/>
       <use x="127.246094" xlink:href="#DejaVuSans-30"/>
       <use x="190.869141" xlink:href="#DejaVuSans-30"/>
       <use x="254.492188" xlink:href="#DejaVuSans-30"/>
      </g>
     </g>
    </g>
    <g id="xtick_4">
     <g id="text_4">
      <!-- 60000 -->
      <g style="fill:#262626;" transform="translate(335.21198 635.156562)scale(0.22 -0.22)">
       <defs>
        <path d="M 2113 2584 
Q 1688 2584 1439 2293 
Q 1191 2003 1191 1497 
Q 1191 994 1439 701 
Q 1688 409 2113 409 
Q 2538 409 2786 701 
Q 3034 994 3034 1497 
Q 3034 2003 2786 2293 
Q 2538 2584 2113 2584 
z
M 3366 4563 
L 3366 3988 
Q 3128 4100 2886 4159 
Q 2644 4219 2406 4219 
Q 1781 4219 1451 3797 
Q 1122 3375 1075 2522 
Q 1259 2794 1537 2939 
Q 1816 3084 2150 3084 
Q 2853 3084 3261 2657 
Q 3669 2231 3669 1497 
Q 3669 778 3244 343 
Q 2819 -91 2113 -91 
Q 1303 -91 875 529 
Q 447 1150 447 2328 
Q 447 3434 972 4092 
Q 1497 4750 2381 4750 
Q 2619 4750 2861 4703 
Q 3103 4656 3366 4563 
z
" id="DejaVuSans-36" transform="scale(0.015625)"/>
       </defs>
       <use xlink:href="#DejaVuSans-36"/>
       <use x="63.623047" xlink:href="#DejaVuSans-30"/>
       <use x="127.246094" xlink:href="#DejaVuSans-30"/>
       <use x="190.869141" xlink:href="#DejaVuSans-30"/>
       <use x="254.492188" xlink:href="#DejaVuSans-30"/>
      </g>
     </g>
    </g>
    <g id="xtick_5">
     <g id="text_5">
      <!-- 80000 -->
      <g style="fill:#262626;" transform="translate(423.064893 635.156562)scale(0.22 -0.22)">
       <defs>
        <path d="M 2034 2216 
Q 1584 2216 1326 1975 
Q 1069 1734 1069 1313 
Q 1069 891 1326 650 
Q 1584 409 2034 409 
Q 2484 409 2743 651 
Q 3003 894 3003 1313 
Q 3003 1734 2745 1975 
Q 2488 2216 2034 2216 
z
M 1403 2484 
Q 997 2584 770 2862 
Q 544 3141 544 3541 
Q 544 4100 942 4425 
Q 1341 4750 2034 4750 
Q 2731 4750 3128 4425 
Q 3525 4100 3525 3541 
Q 3525 3141 3298 2862 
Q 3072 2584 2669 2484 
Q 3125 2378 3379 2068 
Q 3634 1759 3634 1313 
Q 3634 634 3220 271 
Q 2806 -91 2034 -91 
Q 1263 -91 848 271 
Q 434 634 434 1313 
Q 434 1759 690 2068 
Q 947 2378 1403 2484 
z
M 1172 3481 
Q 1172 3119 1398 2916 
Q 1625 2713 2034 2713 
Q 2441 2713 2670 2916 
Q 2900 3119 2900 3481 
Q 2900 3844 2670 4047 
Q 2441 4250 2034 4250 
Q 1625 4250 1398 4047 
Q 1172 3844 1172 3481 
z
" id="DejaVuSans-38" transform="scale(0.015625)"/>
       </defs>
       <use xlink:href="#DejaVuSans-38"/>
       <use x="63.623047" xlink:href="#DejaVuSans-30"/>
       <use x="127.246094" xlink:href="#DejaVuSans-30"/>
       <use x="190.869141" xlink:href="#DejaVuSans-30"/>
       <use x="254.492188" xlink:href="#DejaVuSans-30"/>
      </g>
     </g>
    </g>
    <g id="xtick_6">
     <g id="text_6">
      <!-- 100000 -->
      <g style="fill:#262626;" transform="translate(503.919057 635.156562)scale(0.22 -0.22)">
       <defs>
        <path d="M 794 531 
L 1825 531 
L 1825 4091 
L 703 3866 
L 703 4441 
L 1819 4666 
L 2450 4666 
L 2450 531 
L 3481 531 
L 3481 0 
L 794 0 
L 794 531 
z
" id="DejaVuSans-31" transform="scale(0.015625)"/>
       </defs>
       <use xlink:href="#DejaVuSans-31"/>
       <use x="63.623047" xlink:href="#DejaVuSans-30"/>
       <use x="127.246094" xlink:href="#DejaVuSans-30"/>
       <use x="190.869141" xlink:href="#DejaVuSans-30"/>
       <use x="254.492188" xlink:href="#DejaVuSans-30"/>
       <use x="318.115234" xlink:href="#DejaVuSans-30"/>
      </g>
     </g>
    </g>
    <g id="text_7">
     <!-- MDTU -->
     <g style="fill:#262626;" transform="translate(290.683464 661.968125)scale(0.24 -0.24)">
      <defs>
       <path d="M 628 4666 
L 1569 4666 
L 2759 1491 
L 3956 4666 
L 4897 4666 
L 4897 0 
L 4281 0 
L 4281 4097 
L 3078 897 
L 2444 897 
L 1241 4097 
L 1241 0 
L 628 0 
L 628 4666 
z
" id="DejaVuSans-4d" transform="scale(0.015625)"/>
       <path d="M 1259 4147 
L 1259 519 
L 2022 519 
Q 2988 519 3436 956 
Q 3884 1394 3884 2338 
Q 3884 3275 3436 3711 
Q 2988 4147 2022 4147 
L 1259 4147 
z
M 628 4666 
L 1925 4666 
Q 3281 4666 3915 4102 
Q 4550 3538 4550 2338 
Q 4550 1131 3912 565 
Q 3275 0 1925 0 
L 628 0 
L 628 4666 
z
" id="DejaVuSans-44" transform="scale(0.015625)"/>
       <path d="M -19 4666 
L 3928 4666 
L 3928 4134 
L 2272 4134 
L 2272 0 
L 1638 0 
L 1638 4134 
L -19 4134 
L -19 4666 
z
" id="DejaVuSans-54" transform="scale(0.015625)"/>
       <path d="M 556 4666 
L 1191 4666 
L 1191 1831 
Q 1191 1081 1462 751 
Q 1734 422 2344 422 
Q 2950 422 3222 751 
Q 3494 1081 3494 1831 
L 3494 4666 
L 4128 4666 
L 4128 1753 
Q 4128 841 3676 375 
Q 3225 -91 2344 -91 
Q 1459 -91 1007 375 
Q 556 841 556 1753 
L 556 4666 
z
" id="DejaVuSans-55" transform="scale(0.015625)"/>
      </defs>
      <use xlink:href="#DejaVuSans-4d"/>
      <use x="86.279297" xlink:href="#DejaVuSans-44"/>
      <use x="163.28125" xlink:href="#DejaVuSans-54"/>
      <use x="224.365234" xlink:href="#DejaVuSans-55"/>
     </g>
    </g>
   </g>
   <g id="matplotlib.axis_2">
    <g id="ytick_1">
     <g id="text_8">
      <!-- 0.4 -->
      <g style="fill:#262626;" transform="translate(34.4275 605.152525)scale(0.22 -0.22)">
       <defs>
        <path d="M 684 794 
L 1344 794 
L 1344 0 
L 684 0 
L 684 794 
z
" id="DejaVuSans-2e" transform="scale(0.015625)"/>
       </defs>
       <use xlink:href="#DejaVuSans-30"/>
       <use x="63.623047" xlink:href="#DejaVuSans-2e"/>
       <use x="95.410156" xlink:href="#DejaVuSans-34"/>
      </g>
     </g>
    </g>
    <g id="ytick_2">
     <g id="text_9">
      <!-- 0.6 -->
      <g style="fill:#262626;" transform="translate(34.4275 547.295209)scale(0.22 -0.22)">
       <use xlink:href="#DejaVuSans-30"/>
       <use x="63.623047" xlink:href="#DejaVuSans-2e"/>
       <use x="95.410156" xlink:href="#DejaVuSans-36"/>
      </g>
     </g>
    </g>
    <g id="ytick_3">
     <g id="text_10">
      <!-- 0.8 -->
      <g style="fill:#262626;" transform="translate(34.4275 489.437892)scale(0.22 -0.22)">
       <use xlink:href="#DejaVuSans-30"/>
       <use x="63.623047" xlink:href="#DejaVuSans-2e"/>
       <use x="95.410156" xlink:href="#DejaVuSans-38"/>
      </g>
     </g>
    </g>
    <g id="ytick_4">
     <g id="text_11">
      <!-- 1.0 -->
      <g style="fill:#262626;" transform="translate(34.4275 431.580576)scale(0.22 -0.22)">
       <use xlink:href="#DejaVuSans-31"/>
       <use x="63.623047" xlink:href="#DejaVuSans-2e"/>
       <use x="95.410156" xlink:href="#DejaVuSans-30"/>
      </g>
     </g>
    </g>
    <g id="ytick_5">
     <g id="text_12">
      <!-- 1.2 -->
      <g style="fill:#262626;" transform="translate(34.4275 373.723259)scale(0.22 -0.22)">
       <use xlink:href="#DejaVuSans-31"/>
       <use x="63.623047" xlink:href="#DejaVuSans-2e"/>
       <use x="95.410156" xlink:href="#DejaVuSans-32"/>
      </g>
     </g>
    </g>
    <g id="ytick_6">
     <g id="text_13">
      <!-- 1.4 -->
      <g style="fill:#262626;" transform="translate(34.4275 315.865942)scale(0.22 -0.22)">
       <use xlink:href="#DejaVuSans-31"/>
       <use x="63.623047" xlink:href="#DejaVuSans-2e"/>
       <use x="95.410156" xlink:href="#DejaVuSans-34"/>
      </g>
     </g>
    </g>
    <g id="ytick_7">
     <g id="text_14">
      <!-- 1.6 -->
      <g style="fill:#262626;" transform="translate(34.4275 258.008626)scale(0.22 -0.22)">
       <use xlink:href="#DejaVuSans-31"/>
       <use x="63.623047" xlink:href="#DejaVuSans-2e"/>
       <use x="95.410156" xlink:href="#DejaVuSans-36"/>
      </g>
     </g>
    </g>
    <g id="ytick_8">
     <g id="text_15">
      <!-- 1.8 -->
      <g style="fill:#262626;" transform="translate(34.4275 200.151309)scale(0.22 -0.22)">
       <use xlink:href="#DejaVuSans-31"/>
       <use x="63.623047" xlink:href="#DejaVuSans-2e"/>
       <use x="95.410156" xlink:href="#DejaVuSans-38"/>
      </g>
     </g>
    </g>
    <g id="ytick_9">
     <g id="text_16">
      <!-- 2.0 -->
      <g style="fill:#262626;" transform="translate(34.4275 142.293993)scale(0.22 -0.22)">
       <use xlink:href="#DejaVuSans-32"/>
       <use x="63.623047" xlink:href="#DejaVuSans-2e"/>
       <use x="95.410156" xlink:href="#DejaVuSans-30"/>
      </g>
     </g>
    </g>
    <g id="text_17">
     <!-- $E$ -->
     <g style="fill:#262626;" transform="translate(25.43625 363.813429)rotate(-90)scale(0.24 -0.24)">
      <defs>
       <path d="M 1081 4666 
L 4031 4666 
L 3928 4134 
L 1606 4134 
L 1338 2753 
L 3566 2753 
L 3463 2222 
L 1234 2222 
L 909 531 
L 3284 531 
L 3181 0 
L 172 0 
L 1081 4666 
z
" id="DejaVuSans-Oblique-45" transform="scale(0.015625)"/>
      </defs>
      <use transform="translate(0 0.09375)" xlink:href="#DejaVuSans-Oblique-45"/>
     </g>
    </g>
   </g>
   <g id="line2d_1">
    <path clip-path="url(#pdb429e8b88)" d="M 106.866622 533.405857 
L 107.086254 252.659558 
L 107.305886 433.381036 
L 107.525519 411.012592 
L 107.745151 447.803928 
L 107.964783 268.472118 
L 108.184415 305.637225 
L 108.404048 446.580515 
L 108.62368 500.152904 
L 108.843312 435.797059 
L 109.062945 450.734537 
L 109.282577 506.246098 
L 109.502209 463.171343 
L 109.721841 461.890521 
L 109.941474 459.454694 
L 110.380738 206.789877 
L 110.600371 329.900901 
L 110.820003 373.859861 
L 111.039635 260.185627 
L 111.259267 410.996544 
L 111.4789 397.956244 
L 111.698532 458.117912 
L 111.918164 480.828184 
L 112.137797 395.018141 
L 112.357429 394.649593 
L 112.577061 312.499615 
L 112.796693 346.370808 
L 113.235958 463.705038 
L 113.45559 464.806858 
L 113.675223 394.734327 
L 114.114487 561.144131 
L 114.334119 379.900947 
L 114.553752 437.443219 
L 114.773384 351.00389 
L 114.993016 386.205224 
L 115.212649 459.135075 
L 115.651913 428.00479 
L 115.871545 376.877687 
L 116.31081 494.811166 
L 116.530442 276.316833 
L 116.750075 521.258676 
L 116.969707 400.346297 
L 117.189339 415.789412 
L 117.408971 416.345096 
L 117.628604 503.975643 
L 117.848236 323.406097 
L 118.067868 458.945784 
L 118.287501 455.151246 
L 118.507133 441.711165 
L 118.726765 353.062053 
L 118.946397 475.893603 
L 119.16603 389.692595 
L 119.385662 440.350795 
L 119.605294 321.968955 
L 119.824926 414.693962 
L 120.044559 374.715894 
L 120.264191 454.416367 
L 120.483823 490.180343 
L 120.703456 373.339648 
L 120.923088 469.541629 
L 121.14272 502.519484 
L 121.362352 372.822352 
L 121.581985 534.388033 
L 121.801617 347.946826 
L 122.021249 412.873029 
L 122.240882 361.485121 
L 122.460514 497.318406 
L 122.680146 504.544418 
L 122.899778 437.068692 
L 123.119411 435.903598 
L 123.339043 343.393766 
L 123.558675 462.777466 
L 123.778308 323.873739 
L 124.217572 571.777171 
L 124.437204 326.459848 
L 124.656837 479.392739 
L 124.876469 444.137723 
L 125.096101 444.331677 
L 125.315734 355.866819 
L 125.754998 500.149948 
L 125.97463 348.428985 
L 126.194263 371.737304 
L 126.633527 296.078437 
L 127.292424 469.393525 
L 127.512056 343.988622 
L 127.731689 428.086813 
L 127.951321 411.554569 
L 128.170953 413.804237 
L 128.390586 448.923366 
L 128.610218 407.037475 
L 128.82985 478.003505 
L 129.049482 499.568718 
L 129.269115 453.294776 
L 129.488747 230.489826 
L 129.708379 453.364463 
L 129.928012 474.143336 
L 130.367276 370.301998 
L 130.806541 451.968743 
L 131.026173 392.560123 
L 131.245805 433.112999 
L 131.465438 404.957639 
L 131.68507 392.433798 
L 131.904702 442.981378 
L 132.124334 447.916428 
L 132.343967 466.88399 
L 132.563599 499.381373 
L 132.783231 362.320676 
L 133.002864 353.229352 
L 133.222496 362.212884 
L 133.442128 513.98419 
L 133.66176 405.582578 
L 133.881393 435.102706 
L 134.101025 436.144381 
L 134.320657 447.520841 
L 134.540289 473.297096 
L 134.759922 379.091208 
L 134.979554 512.270691 
L 135.199186 466.381858 
L 135.418819 510.374875 
L 135.858083 307.434948 
L 136.077715 462.576075 
L 136.297348 387.145619 
L 136.51698 468.496514 
L 136.736612 496.391624 
L 136.956245 476.373645 
L 137.175877 529.574286 
L 137.395509 389.616103 
L 137.615141 324.50446 
L 137.834774 489.183623 
L 138.054406 321.736381 
L 138.493671 485.939971 
L 138.713303 433.534253 
L 138.932935 457.375652 
L 139.152567 440.018483 
L 139.3722 349.624872 
L 139.591832 451.152156 
L 139.811464 477.316894 
L 140.031097 437.517272 
L 140.250729 480.289732 
L 140.470361 278.487104 
L 140.689993 306.280786 
L 140.909626 502.805964 
L 141.129258 517.902844 
L 141.34889 405.015965 
L 141.568523 426.404604 
L 141.788155 511.559008 
L 142.007787 282.371462 
L 142.227419 404.302701 
L 142.447052 320.38047 
L 142.666684 405.620159 
L 142.886316 444.404182 
L 143.105949 457.727902 
L 143.325581 452.267193 
L 143.545213 413.24127 
L 143.764845 475.481595 
L 143.984478 487.232262 
L 144.20411 412.134592 
L 144.423742 405.644674 
L 144.643375 450.229234 
L 144.863007 384.438107 
L 145.082639 377.691208 
L 145.302271 445.779487 
L 145.521904 416.699507 
L 145.741536 431.709501 
L 145.961168 483.913028 
L 146.180801 323.098532 
L 146.620065 419.412776 
L 146.839697 244.479159 
L 147.05933 298.351347 
L 147.278962 431.786254 
L 147.498594 366.223256 
L 147.718227 507.284191 
L 147.937859 537.315875 
L 148.157491 442.804774 
L 148.377123 449.484466 
L 148.596756 481.033124 
L 148.816388 375.8453 
L 149.03602 418.320096 
L 149.255653 483.875922 
L 149.475285 432.232197 
L 149.694917 421.545348 
L 149.914549 440.732486 
L 150.134182 425.084893 
L 150.573446 516.892607 
L 150.793078 448.030669 
L 151.012711 524.101644 
L 151.232343 447.085143 
L 151.451975 416.643715 
L 151.671608 477.488632 
L 151.89124 286.490446 
L 152.110872 517.157337 
L 152.330504 373.901454 
L 152.550137 441.949217 
L 152.769769 455.881468 
L 152.989401 408.213139 
L 153.209034 466.54266 
L 153.428666 478.294983 
L 153.648298 380.92723 
L 153.86793 458.537453 
L 154.087563 368.77721 
L 154.307195 474.035385 
L 154.526827 457.597742 
L 154.74646 504.943029 
L 154.966092 412.881439 
L 155.185724 428.010542 
L 155.405356 380.68831 
L 155.624989 253.513824 
L 155.844621 485.184111 
L 156.064253 318.719966 
L 156.503518 440.701304 
L 156.72315 429.63124 
L 156.942782 461.656039 
L 157.162415 372.0269 
L 157.382047 455.840927 
L 157.601679 423.550823 
L 157.821312 439.76276 
L 158.040944 430.64952 
L 158.260576 491.967983 
L 158.480208 387.209808 
L 158.699841 424.151406 
L 158.919473 361.457073 
L 159.139105 430.835667 
L 159.358738 407.488059 
L 159.57837 402.69841 
L 159.798002 532.096556 
L 160.017634 519.771912 
L 160.237267 474.597167 
L 160.456899 405.323881 
L 160.676531 378.398245 
L 160.896164 475.918147 
L 161.55506 395.43024 
L 161.774693 473.781281 
L 161.994325 374.660532 
L 162.213957 452.405123 
L 162.653222 454.16517 
L 162.872854 445.664412 
L 163.092486 489.488957 
L 163.312119 434.92838 
L 163.531751 282.352858 
L 163.971016 472.940488 
L 164.190648 417.240666 
L 164.41028 442.198224 
L 164.629912 281.050596 
L 164.849545 262.291198 
L 165.069177 436.779287 
L 165.288809 403.823101 
L 165.728074 476.672409 
L 165.947706 489.44411 
L 166.167338 487.224426 
L 166.386971 311.76809 
L 166.606603 345.243047 
L 166.826235 460.845328 
L 167.2655 420.572273 
L 167.485132 357.232836 
L 167.704764 473.556074 
L 167.924397 305.087295 
L 168.144029 357.611132 
L 168.363661 471.776267 
L 168.583293 357.822722 
L 168.802926 416.02882 
L 169.24219 462.524906 
L 169.461823 525.70827 
L 169.681455 367.160935 
L 169.901087 463.667627 
L 170.120719 461.978683 
L 170.340352 249.620371 
L 170.559984 422.52089 
L 170.779616 464.908639 
L 170.999249 450.543407 
L 171.218881 504.394076 
L 171.438513 373.873983 
L 171.658145 475.560084 
L 171.877778 331.572988 
L 172.09741 384.10771 
L 172.317042 375.786474 
L 172.536675 396.902129 
L 172.756307 332.306814 
L 173.195571 487.894826 
L 173.415204 331.734773 
L 173.634836 526.447896 
L 173.854468 390.818825 
L 174.074101 498.296129 
L 174.293733 521.096558 
L 174.513365 434.673192 
L 174.732997 470.502731 
L 174.95263 351.912317 
L 175.172262 451.40978 
L 175.391894 334.45701 
L 175.611527 514.456909 
L 176.050791 221.348304 
L 176.270423 432.657444 
L 176.490056 431.37962 
L 176.709688 447.185747 
L 176.92932 476.936152 
L 177.148953 476.914914 
L 177.368585 444.251504 
L 177.588217 183.591952 
L 177.807849 399.602348 
L 178.027482 504.863753 
L 178.247114 471.001046 
L 178.466746 564.850142 
L 178.686379 492.460053 
L 178.906011 483.672368 
L 179.564908 427.376636 
L 179.78454 226.950412 
L 180.004172 540.039144 
L 180.223805 405.820543 
L 180.443437 485.406223 
L 180.882701 273.643578 
L 181.321966 460.500729 
L 181.541598 500.50769 
L 181.76123 299.793046 
L 181.980863 344.385316 
L 182.200495 275.873292 
L 182.420127 474.811385 
L 182.63976 382.449151 
L 182.859392 446.1421 
L 183.079024 360.853974 
L 183.298656 411.00071 
L 183.518289 544.012334 
L 183.737921 471.990267 
L 183.957553 358.920398 
L 184.177186 411.115762 
L 184.396818 375.489567 
L 184.61645 385.956124 
L 184.836082 465.254717 
L 185.055715 412.58006 
L 185.275347 532.005054 
L 185.714612 370.497444 
L 185.934244 508.934091 
L 186.153876 364.60997 
L 186.373508 403.62393 
L 186.593141 486.069559 
L 186.812773 503.119244 
L 187.032405 270.232225 
L 187.252038 469.041144 
L 187.47167 415.581447 
L 187.691302 298.2816 
L 187.910934 457.868507 
L 188.350199 323.035109 
L 188.789464 491.989861 
L 189.009096 384.003948 
L 189.228728 420.517479 
L 189.44836 419.909268 
L 189.667993 313.364317 
L 190.107257 483.680938 
L 190.32689 370.144803 
L 190.546522 473.504035 
L 190.766154 275.845409 
L 190.985786 360.562797 
L 191.205419 333.329879 
L 191.425051 234.610285 
L 191.644683 394.957255 
L 192.30358 516.490834 
L 192.742845 239.928818 
L 192.962477 367.285832 
L 193.182109 394.550989 
L 193.401742 267.447283 
L 193.621374 397.42118 
L 193.841006 194.890935 
L 194.060638 384.666651 
L 194.280271 459.559196 
L 194.499903 344.455275 
L 194.719535 544.9364 
L 194.939168 427.203156 
L 195.1588 502.248609 
L 195.378432 322.680585 
L 195.598064 303.694196 
L 195.817697 517.571058 
L 196.037329 385.613314 
L 196.256961 476.556986 
L 196.476593 351.646374 
L 196.696226 377.337476 
L 196.915858 261.992429 
L 197.13549 518.087658 
L 197.355123 449.481859 
L 197.574755 521.857067 
L 197.794387 536.715833 
L 198.233652 321.408066 
L 198.453284 456.881036 
L 198.672916 394.342446 
L 198.892549 369.152118 
L 199.112181 409.684338 
L 199.331813 429.608665 
L 199.551445 345.728433 
L 199.99071 472.43725 
L 200.210342 348.863121 
L 200.429975 455.988596 
L 200.649607 368.336906 
L 200.869239 441.785925 
L 201.088871 332.95227 
L 201.308504 297.194496 
L 201.528136 351.641979 
L 201.747768 456.193782 
L 201.967401 455.464983 
L 202.187033 424.021295 
L 202.406665 445.531612 
L 202.626297 394.870939 
L 203.065562 470.809239 
L 203.285194 311.978839 
L 203.724459 543.504762 
L 203.944091 412.662876 
L 204.383356 442.932218 
L 204.602988 528.901065 
L 204.82262 397.140696 
L 205.261885 527.332905 
L 205.481517 475.62455 
L 205.701149 491.060813 
L 205.920782 396.081161 
L 206.140414 395.695343 
L 206.360046 556.888161 
L 206.799311 352.32053 
L 207.018943 415.988683 
L 207.238575 340.558765 
L 207.897472 449.00943 
L 208.117105 573.616847 
L 208.336737 401.698495 
L 208.556369 511.35145 
L 208.776001 473.82266 
L 208.995634 374.791988 
L 209.215266 486.842503 
L 209.434898 537.411876 
L 209.654531 511.663036 
L 210.093795 393.691489 
L 210.313427 399.519409 
L 210.53306 304.460819 
L 210.972324 482.904076 
L 211.191956 364.911371 
L 211.631221 497.286436 
L 212.070486 407.510599 
L 212.290118 447.151638 
L 212.729382 341.070099 
L 212.949015 501.876527 
L 213.168647 417.142979 
L 213.388279 383.184931 
L 213.827544 471.244684 
L 214.047176 355.587544 
L 214.266808 441.35976 
L 214.486441 375.847313 
L 214.706073 393.027659 
L 214.925705 491.005999 
L 215.145338 533.231255 
L 215.36497 445.126085 
L 215.584602 292.238008 
L 215.804234 489.978452 
L 216.023867 392.439254 
L 216.243499 422.765442 
L 216.463131 340.013509 
L 216.682764 349.234879 
L 216.902396 467.33894 
L 217.122028 499.699826 
L 217.34166 496.754355 
L 217.561293 514.796925 
L 217.780925 364.779388 
L 218.000557 423.64312 
L 218.22019 277.923986 
L 218.439822 351.803636 
L 218.659454 359.875091 
L 218.879086 486.39796 
L 219.098719 350.395782 
L 219.318351 475.356896 
L 219.537983 418.016656 
L 219.757616 288.89577 
L 219.977248 338.370685 
L 220.19688 413.668143 
L 220.416512 406.630649 
L 220.636145 367.690781 
L 220.855777 367.413701 
L 221.075409 509.506982 
L 221.295042 363.030726 
L 221.514674 428.718181 
L 221.734306 316.576811 
L 222.173571 486.314037 
L 222.393203 513.618788 
L 222.612835 404.36703 
L 222.832468 352.768781 
L 223.0521 339.365146 
L 223.271732 380.659535 
L 223.491364 394.019251 
L 223.710997 357.919462 
L 223.930629 481.909169 
L 224.150261 476.109507 
L 224.369894 307.107057 
L 224.589526 342.710797 
L 224.809158 459.625309 
L 225.02879 424.107434 
L 225.248423 461.642692 
L 225.468055 229.915398 
L 225.687687 415.516376 
L 225.90732 423.341308 
L 226.126952 479.614875 
L 226.346584 398.377044 
L 226.566216 387.970828 
L 226.785849 467.597718 
L 227.005481 396.248438 
L 227.225113 455.94817 
L 227.444745 466.116743 
L 227.664378 465.725294 
L 227.88401 364.556935 
L 228.103642 464.827707 
L 228.323275 481.626902 
L 228.542907 325.830778 
L 228.762539 456.353043 
L 228.982171 512.68634 
L 229.201804 447.138025 
L 229.421436 435.929198 
L 229.860701 357.205975 
L 230.080333 415.744451 
L 230.299965 404.294705 
L 230.519597 443.113611 
L 230.73923 277.020795 
L 230.958862 450.651563 
L 231.178494 364.196959 
L 231.398127 532.606961 
L 231.617759 412.639695 
L 231.837391 524.061695 
L 232.276656 344.707777 
L 232.496288 352.206374 
L 232.71592 348.609629 
L 232.935553 558.09568 
L 233.155185 526.369181 
L 233.374817 352.650102 
L 233.594449 440.56341 
L 233.814082 372.279583 
L 234.033714 491.015423 
L 234.253346 476.861109 
L 234.472979 505.347565 
L 234.692611 203.336028 
L 234.912243 499.959152 
L 235.131875 476.209641 
L 235.351508 414.278837 
L 235.57114 474.624947 
L 235.790772 442.703444 
L 236.010405 479.731748 
L 236.230037 473.022632 
L 236.449669 503.020053 
L 236.669301 443.670073 
L 236.888934 489.85598 
L 237.108566 336.263542 
L 237.328198 333.415257 
L 237.547831 477.090044 
L 237.767463 327.707429 
L 238.206727 482.446111 
L 238.42636 384.354141 
L 238.645992 464.594684 
L 238.865624 391.899657 
L 239.085257 401.054905 
L 239.304889 476.224931 
L 239.524521 291.718222 
L 239.963786 468.487764 
L 240.40305 391.702744 
L 240.842315 447.712863 
L 241.061947 521.415879 
L 241.281579 455.961059 
L 241.501212 349.414889 
L 241.720844 497.594504 
L 241.940476 478.208006 
L 242.160108 320.404288 
L 242.379741 526.925686 
L 242.599373 475.648515 
L 242.819005 343.726288 
L 243.038638 420.215271 
L 243.25827 423.132389 
L 243.477902 433.908316 
L 243.697534 480.145621 
L 243.917167 431.994531 
L 244.136799 433.115354 
L 244.356431 453.075268 
L 244.576064 457.005452 
L 244.795696 424.61931 
L 245.015328 468.858726 
L 245.23496 480.89984 
L 245.454593 426.602427 
L 245.674225 454.231027 
L 245.893857 353.561502 
L 246.11349 500.428697 
L 246.552754 336.158064 
L 246.772386 131.763818 
L 246.992019 457.448174 
L 247.211651 320.24551 
L 247.431283 410.645517 
L 247.650916 363.114984 
L 247.870548 373.259436 
L 248.09018 460.825457 
L 248.309812 367.379708 
L 248.529445 528.388123 
L 248.749077 435.55463 
L 248.968709 418.54649 
L 249.188342 449.009279 
L 249.407974 510.159224 
L 249.627606 369.608423 
L 249.847238 431.951354 
L 250.066871 363.402927 
L 250.286503 434.724609 
L 250.725768 499.535965 
L 250.9454 331.698814 
L 251.165032 374.691275 
L 251.384664 338.251832 
L 251.604297 396.549546 
L 251.823929 421.164859 
L 252.043561 503.725678 
L 252.263194 465.54876 
L 252.482826 361.725224 
L 252.702458 491.622526 
L 252.92209 362.443583 
L 253.141723 510.524701 
L 253.361355 406.429842 
L 253.580987 471.430686 
L 253.80062 445.909778 
L 254.020252 404.954845 
L 254.239884 514.128207 
L 254.898781 345.460921 
L 255.338046 453.45371 
L 255.557678 440.960592 
L 255.77731 386.227576 
L 255.996942 423.558996 
L 256.216575 433.934132 
L 256.436207 430.406637 
L 256.655839 447.158 
L 256.875472 494.034599 
L 257.095104 254.865491 
L 257.314736 503.646919 
L 257.534368 481.729204 
L 257.754001 505.472113 
L 257.973633 316.408349 
L 258.193265 272.710973 
L 258.412897 433.048835 
L 258.63253 506.269101 
L 258.852162 439.690951 
L 259.071794 471.019848 
L 259.291427 459.259769 
L 259.730691 335.424751 
L 259.950323 491.725304 
L 260.169956 272.80222 
L 260.389588 407.957726 
L 260.60922 382.622447 
L 260.828853 371.276602 
L 261.048485 481.533853 
L 261.268117 387.370845 
L 261.707382 471.870487 
L 261.927014 352.356606 
L 262.146646 362.704863 
L 262.366279 408.324755 
L 262.585911 364.703391 
L 262.805543 449.950309 
L 263.025175 486.923106 
L 263.244808 435.699891 
L 263.46444 335.08703 
L 263.684072 334.129029 
L 264.123337 493.914941 
L 264.342969 330.298194 
L 264.562601 268.030805 
L 264.782234 452.187384 
L 265.001866 455.923991 
L 265.221498 532.748993 
L 265.441131 504.840419 
L 265.660763 375.49099 
L 265.880395 406.657419 
L 266.100027 531.173825 
L 266.31966 419.088925 
L 266.539292 488.849856 
L 266.758924 485.255137 
L 266.978557 307.14407 
L 267.417821 550.532986 
L 268.076718 405.074316 
L 268.29635 370.861279 
L 268.515983 406.939842 
L 268.735615 306.403637 
L 268.955247 447.22591 
L 269.174879 421.187228 
L 269.394512 448.865718 
L 269.614144 507.561116 
L 269.833776 374.92775 
L 270.053409 491.040945 
L 270.712305 388.889749 
L 270.931938 527.928748 
L 271.15157 486.485735 
L 271.371202 489.792979 
L 271.590835 418.677312 
L 271.810467 508.533105 
L 272.030099 372.936288 
L 272.249731 503.391661 
L 272.469364 494.244234 
L 272.688996 439.837022 
L 272.908628 445.457317 
L 273.12826 388.248413 
L 273.347893 476.308212 
L 273.567525 389.016486 
L 273.787157 465.050242 
L 274.00679 490.010448 
L 274.226422 311.428167 
L 274.446054 451.500758 
L 274.665686 464.62893 
L 274.885319 309.253508 
L 275.104951 452.215149 
L 275.324583 326.206635 
L 275.544216 300.889096 
L 275.763848 508.772495 
L 275.98348 468.985037 
L 276.203112 472.571493 
L 276.422745 367.489627 
L 276.642377 477.489929 
L 276.862009 501.242454 
L 277.081642 437.437151 
L 277.301274 427.957673 
L 277.740538 454.560096 
L 277.960171 422.296654 
L 278.179803 466.224233 
L 278.399435 324.221143 
L 278.8387 455.000138 
L 279.058332 452.876782 
L 279.277964 421.616302 
L 279.497597 439.684543 
L 279.717229 324.601903 
L 279.936861 439.769348 
L 280.156494 411.22985 
L 280.376126 404.815621 
L 280.595758 478.139404 
L 280.81539 399.42808 
L 281.035023 537.13838 
L 281.254655 328.666297 
L 281.474287 503.41864 
L 281.69392 459.033901 
L 281.913552 465.184144 
L 282.133184 487.668142 
L 282.352816 438.832873 
L 282.572449 298.968646 
L 282.792081 480.819557 
L 283.011713 352.152237 
L 283.231346 513.696294 
L 283.450978 509.629947 
L 283.67061 364.960544 
L 283.890242 407.601284 
L 284.109875 405.137645 
L 284.329507 493.215697 
L 284.549139 383.599299 
L 284.768772 463.387731 
L 284.988404 420.511215 
L 285.208036 420.460547 
L 285.647301 383.295164 
L 285.866933 293.008743 
L 286.086565 456.694028 
L 286.306198 440.730286 
L 286.52583 371.674833 
L 286.745462 222.73984 
L 286.965094 497.34028 
L 287.184727 517.83829 
L 287.404359 524.73288 
L 287.623991 514.715294 
L 287.843624 437.72107 
L 288.063256 502.135189 
L 288.282888 321.097857 
L 288.50252 535.420819 
L 288.722153 436.48679 
L 288.941785 509.557623 
L 289.161417 540.395849 
L 289.381049 415.522508 
L 289.600682 401.331272 
L 289.820314 444.632148 
L 290.039946 306.878659 
L 290.259579 369.847158 
L 290.479211 533.447382 
L 290.698843 462.862626 
L 290.918475 429.571964 
L 291.138108 460.333702 
L 291.35774 314.347899 
L 291.797005 494.859019 
L 292.016637 353.143333 
L 292.236269 373.115334 
L 292.455901 518.470476 
L 292.675534 388.082169 
L 292.895166 495.04766 
L 293.114798 466.194972 
L 293.334431 503.997816 
L 293.554063 477.409108 
L 293.773695 465.400501 
L 293.993327 427.882185 
L 294.21296 332.376601 
L 294.432592 344.951829 
L 294.652224 447.022976 
L 294.871857 491.456172 
L 295.091489 417.301642 
L 295.311121 259.36146 
L 295.530753 472.16366 
L 295.750386 361.93419 
L 295.970018 447.987793 
L 296.18965 399.211591 
L 296.409283 486.316942 
L 296.628915 274.418471 
L 296.848547 313.230071 
L 297.068179 406.640311 
L 297.287812 363.067057 
L 297.727076 454.387671 
L 297.946709 486.284505 
L 298.166341 411.06949 
L 298.385973 483.746974 
L 298.605605 408.2311 
L 298.825238 471.050549 
L 299.04487 333.104732 
L 299.264502 481.023612 
L 299.484135 470.970095 
L 299.703767 427.088586 
L 299.923399 408.56471 
L 300.362664 311.922507 
L 300.582296 449.845623 
L 300.801928 364.761597 
L 301.021561 348.303904 
L 301.241193 288.162676 
L 301.460825 463.583414 
L 301.680457 359.87598 
L 301.90009 537.78953 
L 302.119722 385.548878 
L 302.339354 412.685832 
L 302.558987 502.291168 
L 302.778619 429.570072 
L 302.998251 527.185975 
L 303.217883 402.896055 
L 303.437516 448.328237 
L 303.657148 433.024412 
L 303.87678 338.795088 
L 304.096412 535.162913 
L 304.316045 401.162278 
L 304.535677 457.238561 
L 304.755309 404.003414 
L 304.974942 310.626398 
L 305.194574 423.007014 
L 305.414206 454.331198 
L 305.633838 253.232552 
L 305.853471 482.228876 
L 306.073103 522.951644 
L 306.292735 500.705922 
L 306.512368 350.40999 
L 306.732 432.284429 
L 306.951632 384.721306 
L 307.171264 389.694768 
L 307.390897 317.669399 
L 307.610529 409.540473 
L 307.830161 393.215192 
L 308.049794 490.407375 
L 308.269426 451.991536 
L 308.70869 281.250958 
L 309.147955 504.908159 
L 309.367587 551.760248 
L 309.58722 416.351357 
L 310.026484 475.782427 
L 310.246116 366.346972 
L 310.465749 514.02993 
L 310.685381 521.809755 
L 311.124646 385.614697 
L 311.344278 361.037444 
L 311.56391 363.612308 
L 311.783542 516.307826 
L 312.003175 419.048376 
L 312.222807 414.620081 
L 312.442439 479.698518 
L 312.662072 365.957452 
L 312.881704 387.057812 
L 313.101336 492.353532 
L 313.320968 463.320229 
L 313.540601 393.922408 
L 313.760233 522.082277 
L 313.979865 402.986964 
L 314.199498 484.829425 
L 314.638762 437.453655 
L 314.858394 413.756339 
L 315.297659 531.624101 
L 315.517291 352.337004 
L 315.736924 428.271541 
L 315.956556 420.985973 
L 316.176188 420.997402 
L 316.39582 317.58314 
L 316.615453 449.497692 
L 316.835085 310.471548 
L 317.054717 459.484934 
L 317.27435 478.665485 
L 317.493982 344.026462 
L 317.713614 388.821527 
L 317.933246 360.587262 
L 318.152879 454.579333 
L 318.372511 356.659806 
L 318.592143 440.923324 
L 318.811775 350.713689 
L 319.031408 382.224836 
L 319.25104 508.90539 
L 319.470672 432.30802 
L 319.690305 498.346804 
L 319.909937 496.746829 
L 320.129569 399.54194 
L 320.349201 483.224837 
L 320.568834 401.056529 
L 320.788466 425.978185 
L 321.008098 376.76452 
L 321.227731 387.190696 
L 321.447363 492.429301 
L 321.666995 304.328113 
L 321.886627 303.131786 
L 322.10626 473.20146 
L 322.325892 410.358609 
L 322.545524 391.797878 
L 322.765157 426.249188 
L 322.984789 430.718559 
L 323.204421 565.354674 
L 323.424053 191.847794 
L 323.643686 487.506827 
L 323.863318 390.080181 
L 324.302583 481.305595 
L 324.522215 290.587253 
L 324.741847 360.194987 
L 324.961479 544.758416 
L 325.181112 270.834538 
L 325.400744 456.968604 
L 325.620376 421.023215 
L 325.840009 413.449102 
L 326.059641 543.640205 
L 326.279273 172.709401 
L 326.498905 470.718802 
L 326.718538 509.389127 
L 326.93817 426.319312 
L 327.157802 494.103689 
L 327.377435 380.329391 
L 327.597067 440.061585 
L 327.816699 433.184049 
L 328.036331 420.8716 
L 328.255964 486.37882 
L 328.475596 439.30534 
L 328.695228 517.91571 
L 328.914861 379.558982 
L 329.134493 402.472108 
L 329.354125 519.61609 
L 329.573757 429.44297 
L 329.79339 429.786888 
L 330.013022 442.479584 
L 330.232654 389.58205 
L 330.452287 436.913378 
L 330.671919 419.771693 
L 330.891551 432.438921 
L 331.111183 463.860833 
L 331.330816 442.551649 
L 331.550448 328.834819 
L 331.77008 394.314591 
L 331.989713 352.854838 
L 332.209345 355.523717 
L 332.428977 327.543433 
L 332.648609 553.794875 
L 332.868242 503.797154 
L 333.087874 501.394348 
L 333.307506 446.178644 
L 333.527139 451.109609 
L 333.746771 392.686868 
L 333.966403 441.978005 
L 334.186035 435.716922 
L 334.6253 560.903992 
L 334.844932 389.449559 
L 335.064564 383.348533 
L 335.284197 279.117008 
L 335.503829 388.833953 
L 335.723461 403.488593 
L 335.943094 441.196315 
L 336.162726 301.724276 
L 336.382358 462.954106 
L 336.60199 452.035824 
L 336.821623 375.616673 
L 337.041255 513.778162 
L 337.260887 393.60139 
L 337.48052 452.100708 
L 337.700152 422.088652 
L 337.919784 425.568166 
L 338.139416 290.064105 
L 338.359049 471.253667 
L 338.578681 467.050256 
L 338.798313 535.875188 
L 339.017946 375.81972 
L 339.237578 476.034187 
L 339.45721 255.035906 
L 339.676842 446.58646 
L 339.896475 395.420454 
L 340.116107 422.389786 
L 340.335739 348.950533 
L 340.775004 511.99709 
L 340.994636 370.475831 
L 341.214268 460.351677 
L 341.653533 376.583399 
L 341.873165 424.138054 
L 342.092798 566.755142 
L 342.532062 487.302068 
L 342.751694 488.454178 
L 343.190959 426.655292 
L 343.410591 493.891679 
L 343.630224 522.394699 
L 343.849856 416.397248 
L 344.069488 495.948902 
L 344.28912 387.86849 
L 344.508753 500.617326 
L 344.948017 370.65971 
L 345.387282 430.104342 
L 345.606914 279.229209 
L 345.826546 415.861691 
L 346.046179 479.365661 
L 346.265811 373.317014 
L 346.485443 475.345461 
L 346.705076 351.026105 
L 346.924708 419.903267 
L 347.14434 388.341587 
L 347.363972 421.940016 
L 347.583605 379.543517 
L 347.803237 464.336315 
L 348.022869 414.831788 
L 348.242502 331.821485 
L 348.462134 413.930316 
L 348.681766 448.417234 
L 348.901398 506.832623 
L 349.121031 396.542889 
L 349.340663 393.926464 
L 349.560295 381.782054 
L 349.779927 438.963863 
L 349.99956 299.600175 
L 350.219192 397.039409 
L 350.438824 422.244014 
L 350.658457 407.509265 
L 350.878089 329.847913 
L 351.097721 514.997997 
L 351.317353 481.283415 
L 351.536986 417.641585 
L 351.756618 416.260071 
L 351.97625 280.835281 
L 352.195883 429.314324 
L 352.415515 490.784698 
L 352.854779 403.281659 
L 353.074412 460.430201 
L 353.294044 396.43487 
L 353.513676 290.27104 
L 353.733309 446.472989 
L 353.952941 363.465128 
L 354.172573 482.586732 
L 354.611838 412.40989 
L 354.83147 452.479926 
L 355.051102 470.456049 
L 355.270735 515.966578 
L 355.490367 376.587198 
L 355.709999 524.476612 
L 355.929631 406.952364 
L 356.149264 515.724569 
L 356.368896 480.076373 
L 356.588528 482.667703 
L 356.808161 294.244015 
L 357.027793 506.569913 
L 357.467057 357.12417 
L 357.68669 530.539553 
L 357.906322 421.086375 
L 358.125954 505.950069 
L 358.345587 404.390266 
L 358.565219 477.968999 
L 359.004483 366.869621 
L 359.224116 457.388284 
L 359.443748 430.672199 
L 359.66338 317.922154 
L 359.883013 354.782109 
L 360.102645 427.579011 
L 360.322277 375.077785 
L 360.541909 214.318521 
L 360.761542 376.471771 
L 360.981174 336.694209 
L 361.200806 370.49512 
L 361.420439 483.854962 
L 361.640071 428.720393 
L 362.079335 481.635008 
L 362.298968 430.123773 
L 362.5186 290.823014 
L 362.738232 462.634485 
L 362.957865 428.943262 
L 363.177497 468.138507 
L 363.397129 384.073549 
L 363.616761 475.324489 
L 363.836394 455.725833 
L 364.056026 403.94535 
L 364.275658 435.192869 
L 364.495291 427.888153 
L 364.714923 329.636756 
L 364.934555 488.323523 
L 365.154187 439.066035 
L 365.37382 422.122155 
L 365.593452 394.107091 
L 365.813084 486.077956 
L 366.032716 436.970821 
L 366.252349 437.679548 
L 366.471981 328.120161 
L 366.911246 470.075437 
L 367.130878 506.836038 
L 367.35051 305.181623 
L 367.570142 451.891818 
L 367.789775 518.321429 
L 368.009407 482.410685 
L 368.229039 507.987543 
L 368.448672 315.97793 
L 368.668304 508.644695 
L 369.327201 371.678805 
L 369.546833 346.210854 
L 369.766465 407.897666 
L 369.986098 281.600251 
L 370.20573 476.24041 
L 370.425362 430.149764 
L 370.644994 436.155832 
L 370.864627 422.942434 
L 371.084259 367.528861 
L 371.303891 378.577293 
L 371.523524 400.366018 
L 371.743156 472.257891 
L 371.962788 443.362993 
L 372.18242 431.642088 
L 372.402053 406.609661 
L 372.621685 401.800851 
L 372.841317 414.223216 
L 373.06095 334.631303 
L 373.280582 385.077249 
L 373.500214 476.457211 
L 373.719846 391.974487 
L 373.939479 449.352492 
L 374.378743 307.697039 
L 374.598376 384.590512 
L 374.818008 511.281385 
L 375.257272 313.334461 
L 375.476905 445.23472 
L 375.696537 444.063744 
L 375.916169 457.736637 
L 376.135802 349.603282 
L 376.355434 305.436072 
L 376.575066 540.653471 
L 377.014331 259.442332 
L 377.233963 462.869929 
L 377.453595 467.981196 
L 377.673228 155.415815 
L 377.89286 426.436567 
L 378.112492 371.317123 
L 378.332124 443.360187 
L 378.551757 440.245353 
L 378.771389 478.235936 
L 379.210654 408.078283 
L 379.430286 564.545836 
L 379.649918 287.729829 
L 379.86955 348.210347 
L 380.089183 457.663396 
L 380.308815 411.922735 
L 380.528447 521.869859 
L 380.748079 300.085296 
L 380.967712 467.45003 
L 381.187344 450.682454 
L 381.626609 474.659881 
L 381.846241 448.001964 
L 382.065873 368.784866 
L 382.285505 384.82782 
L 382.505138 465.536039 
L 382.72477 433.965814 
L 382.944402 455.74147 
L 383.383667 281.77445 
L 383.603299 408.497021 
L 383.822931 429.481138 
L 384.042564 420.376583 
L 384.262196 343.20709 
L 384.481828 465.09204 
L 384.701461 403.282514 
L 384.921093 417.021075 
L 385.140725 388.219159 
L 385.57999 451.638445 
L 385.799622 513.891955 
L 386.019254 488.571529 
L 386.458519 546.615982 
L 386.678151 271.372002 
L 387.117416 456.964727 
L 387.337048 393.890293 
L 387.55668 394.453206 
L 387.776313 474.056609 
L 387.995945 479.35097 
L 388.215577 430.757082 
L 388.435209 580.503039 
L 388.654842 406.52657 
L 388.874474 435.904705 
L 389.094106 421.682332 
L 389.533371 452.782847 
L 389.753003 405.391684 
L 389.972635 479.976604 
L 390.192268 264.343485 
L 390.4119 462.145876 
L 390.631532 367.529788 
L 390.851165 408.371835 
L 391.070797 324.482609 
L 391.290429 301.502038 
L 391.510061 375.14729 
L 391.949326 426.836243 
L 392.168958 519.162764 
L 392.388591 286.481658 
L 392.608223 443.797929 
L 392.827855 429.156803 
L 393.047487 402.197562 
L 393.26712 499.360347 
L 393.486752 454.346917 
L 393.706384 463.347243 
L 393.926017 522.242996 
L 394.145649 444.389305 
L 394.365281 434.344709 
L 394.584913 381.764906 
L 394.804546 486.122323 
L 395.024178 367.395436 
L 395.24381 466.223159 
L 395.463443 383.529775 
L 395.683075 487.181467 
L 395.902707 453.378107 
L 396.122339 387.887663 
L 396.341972 518.482362 
L 396.561604 385.519881 
L 396.781236 405.636234 
L 397.000868 387.135935 
L 397.220501 485.156966 
L 397.440133 374.675995 
L 397.659765 412.536192 
L 397.879398 474.218582 
L 398.09903 443.693538 
L 398.538294 288.3103 
L 398.757927 482.130379 
L 398.977559 389.594259 
L 399.197191 463.279491 
L 399.416824 497.303483 
L 399.636456 367.74134 
L 399.856088 365.477956 
L 400.07572 434.251308 
L 400.295353 381.645443 
L 400.514985 445.85808 
L 400.734617 371.493345 
L 400.95425 447.923176 
L 401.173882 338.283 
L 401.613146 525.403762 
L 401.832779 339.414509 
L 402.052411 373.460832 
L 402.272043 251.993458 
L 402.491676 438.086146 
L 402.711308 507.354642 
L 402.93094 436.686631 
L 403.370205 491.504036 
L 403.589837 387.268521 
L 403.809469 367.032328 
L 404.029102 471.029072 
L 404.248734 465.707337 
L 404.468366 441.706229 
L 404.687998 395.369728 
L 404.907631 481.867634 
L 405.127263 342.913121 
L 405.346895 487.262302 
L 405.566528 347.060647 
L 405.78616 363.752557 
L 406.005792 367.739682 
L 406.225424 291.599125 
L 406.445057 460.87905 
L 406.664689 398.091476 
L 406.884321 371.620522 
L 407.103954 478.054347 
L 407.323586 383.519957 
L 407.543218 388.585868 
L 407.982483 458.966229 
L 408.202115 353.565315 
L 408.421747 358.309288 
L 408.64138 342.027049 
L 408.861012 434.524355 
L 409.080644 428.966061 
L 409.300276 492.898813 
L 409.519909 328.851302 
L 409.739541 482.694479 
L 409.959173 483.370781 
L 410.178806 206.688584 
L 410.398438 457.247201 
L 410.61807 351.682739 
L 410.837702 463.824668 
L 411.057335 500.327873 
L 411.496599 370.117991 
L 411.716231 457.455526 
L 411.935864 465.462384 
L 412.155496 458.224232 
L 412.594761 507.002385 
L 413.034025 357.219905 
L 413.253657 492.702417 
L 413.47329 463.256842 
L 413.692922 289.010188 
L 413.912554 493.699164 
L 414.132187 446.573874 
L 414.351819 452.229162 
L 414.571451 354.104485 
L 414.791083 403.241566 
L 415.010716 384.249673 
L 415.230348 320.368739 
L 415.44998 393.919987 
L 415.669613 400.895012 
L 415.889245 492.380609 
L 416.108877 506.919849 
L 416.328509 380.62989 
L 416.548142 461.45071 
L 416.767774 394.27087 
L 416.987406 425.64601 
L 417.207039 375.950059 
L 417.426671 502.892165 
L 417.646303 321.110626 
L 418.3052 466.224831 
L 418.524832 377.760314 
L 418.744465 364.479282 
L 418.964097 442.470004 
L 419.403361 461.930201 
L 419.622994 342.969763 
L 419.842626 415.877836 
L 420.062258 405.452825 
L 420.281891 425.231143 
L 420.501523 533.486207 
L 420.721155 518.356239 
L 420.940787 478.761582 
L 421.16042 465.874221 
L 421.380052 401.429628 
L 421.599684 374.605497 
L 421.819317 273.789169 
L 422.038949 437.057489 
L 422.258581 243.827696 
L 422.478213 432.966494 
L 422.697846 435.88197 
L 422.917478 358.9756 
L 423.13711 384.713422 
L 423.356743 450.960438 
L 423.576375 236.182326 
L 423.796007 506.007952 
L 424.015639 391.875903 
L 424.454904 440.840663 
L 424.674536 366.899668 
L 424.894169 401.018591 
L 425.113801 398.741576 
L 425.333433 420.510963 
L 425.553065 501.592121 
L 425.772698 163.36214 
L 425.99233 509.224186 
L 426.211962 467.746056 
L 426.431594 209.165321 
L 426.651227 441.070054 
L 426.870859 548.844707 
L 427.090491 400.119677 
L 427.310124 425.707906 
L 427.529756 390.787928 
L 427.749388 476.472959 
L 427.96902 494.093711 
L 428.188653 368.895766 
L 428.408285 426.736977 
L 428.627917 317.840041 
L 428.84755 314.103293 
L 429.067182 335.883571 
L 429.286814 321.443539 
L 429.506446 353.672262 
L 429.726079 482.468373 
L 429.945711 352.026817 
L 430.165343 360.033275 
L 430.384976 402.300779 
L 430.604608 380.38861 
L 430.82424 540.238789 
L 431.043872 548.168914 
L 431.263505 420.029849 
L 431.483137 369.635011 
L 431.702769 438.085569 
L 431.922402 284.893663 
L 432.142034 415.09742 
L 432.361666 315.667688 
L 432.581298 438.820783 
L 432.800931 349.447341 
L 433.020563 406.830246 
L 433.240195 279.053384 
L 433.67946 425.216402 
L 433.899092 359.25996 
L 434.118724 463.612242 
L 434.338357 357.799163 
L 434.777621 555.470933 
L 435.216886 421.037383 
L 435.436518 392.262307 
L 435.65615 441.348961 
L 435.875783 327.192542 
L 436.315047 401.775545 
L 436.53468 457.263623 
L 436.754312 363.806755 
L 436.973944 519.471219 
L 437.413209 448.752569 
L 437.632841 367.746718 
L 438.072106 454.565164 
L 438.291738 446.080026 
L 438.51137 461.816062 
L 438.731002 339.397584 
L 438.950635 291.587259 
L 439.170267 272.171523 
L 439.389899 384.254144 
L 439.609532 408.671618 
L 439.829164 526.300492 
L 440.048796 411.53756 
L 440.268428 389.222976 
L 440.488061 482.141326 
L 440.707693 446.809253 
L 440.927325 384.896302 
L 441.146958 479.351916 
L 441.36659 333.701508 
L 441.586222 500.836208 
L 441.805854 496.623533 
L 442.025487 347.117013 
L 442.245119 353.243443 
L 442.464751 485.131943 
L 442.684383 394.419873 
L 442.904016 530.803688 
L 443.123648 312.965257 
L 443.34328 523.273882 
L 443.782545 289.636701 
L 444.002177 469.178735 
L 444.221809 480.205632 
L 444.441442 466.556079 
L 444.661074 302.918361 
L 444.880706 476.641349 
L 445.100339 501.933979 
L 445.319971 407.085616 
L 445.539603 422.928452 
L 445.759235 310.236279 
L 445.978868 458.93436 
L 446.1985 473.505194 
L 446.418132 449.785902 
L 446.637765 451.801265 
L 446.857397 430.492854 
L 447.077029 532.084465 
L 447.516294 352.414333 
L 447.735926 460.482748 
L 447.955558 372.255446 
L 448.175191 438.737183 
L 448.394823 449.384946 
L 448.614455 409.996044 
L 449.05372 266.385875 
L 449.273352 480.075038 
L 449.492984 485.166625 
L 449.712617 461.9789 
L 449.932249 409.74649 
L 450.151881 485.155124 
L 450.371513 309.202111 
L 450.591146 425.294806 
L 450.810778 319.846465 
L 451.03041 329.405214 
L 451.250043 367.905303 
L 451.469675 495.768846 
L 451.689307 506.983253 
L 451.908939 442.497101 
L 452.128572 453.920522 
L 452.348204 385.898569 
L 452.567836 371.774234 
L 452.787469 410.219692 
L 453.007101 332.200159 
L 453.226733 435.216086 
L 453.446365 436.780789 
L 453.665998 458.965742 
L 453.88563 280.996437 
L 454.105262 500.819157 
L 454.324895 391.727518 
L 454.544527 400.552505 
L 454.764159 488.019808 
L 454.983791 518.971377 
L 455.203424 484.499694 
L 455.423056 386.02959 
L 455.642688 506.815946 
L 455.862321 458.916015 
L 456.081953 525.444612 
L 456.301585 383.806791 
L 456.521217 336.648172 
L 456.74085 486.870831 
L 456.960482 412.01809 
L 457.180114 529.884302 
L 457.399746 453.294412 
L 457.619379 244.186644 
L 458.278276 487.129754 
L 458.497908 454.642844 
L 458.71754 351.062294 
L 458.937172 437.354819 
L 459.156805 391.848835 
L 459.376437 402.499912 
L 459.596069 288.963082 
L 459.815702 294.850404 
L 460.035334 531.348093 
L 460.254966 437.439949 
L 460.474598 501.24586 
L 460.694231 306.138754 
L 460.913863 431.57855 
L 461.133495 480.378479 
L 461.353128 462.838249 
L 461.57276 354.089983 
L 461.792392 496.337178 
L 462.012024 395.341063 
L 462.231657 384.696411 
L 462.451289 382.659647 
L 462.670921 408.785066 
L 462.890554 389.895241 
L 463.110186 423.773831 
L 463.329818 309.774167 
L 463.54945 342.66737 
L 463.769083 490.850734 
L 463.988715 442.937698 
L 464.208347 319.293972 
L 464.42798 437.359227 
L 464.647612 372.849888 
L 464.867244 456.557606 
L 465.086876 480.445356 
L 465.306509 307.950641 
L 465.526141 416.488609 
L 465.745773 461.047188 
L 465.965406 436.211448 
L 466.185038 452.494753 
L 466.624302 390.749213 
L 466.843935 520.561073 
L 467.063567 489.926627 
L 467.283199 379.010946 
L 467.502832 540.400674 
L 467.722464 441.221543 
L 467.942096 494.373117 
L 468.161728 437.2521 
L 468.381361 334.958032 
L 468.600993 420.313586 
L 468.820625 372.884832 
L 469.040258 373.662561 
L 469.25989 435.809507 
L 469.479522 396.098487 
L 469.699154 431.225107 
L 469.918787 524.875064 
L 470.138419 418.46143 
L 470.577684 493.841022 
L 470.797316 259.671558 
L 471.016948 373.282855 
L 471.23658 395.922216 
L 471.675845 541.067483 
L 471.895477 443.383341 
L 472.11511 426.902523 
L 472.334742 439.883636 
L 472.554374 394.336552 
L 472.993639 478.009774 
L 473.213271 355.948224 
L 473.432903 482.51584 
L 473.652535 346.692701 
L 473.872168 404.993725 
L 474.0918 388.514047 
L 474.311432 458.410988 
L 474.531065 311.273995 
L 474.750697 355.979756 
L 474.970329 493.911827 
L 475.409594 381.64891 
L 475.629226 406.539217 
L 475.848858 382.474064 
L 476.068491 426.435825 
L 476.288123 392.313751 
L 476.507755 293.647411 
L 476.727387 424.296112 
L 476.94702 371.505501 
L 477.166652 543.722279 
L 477.605917 478.64478 
L 477.825549 326.71961 
L 478.045181 378.181119 
L 478.264813 313.656952 
L 478.484446 528.412173 
L 478.704078 443.667474 
L 478.92371 413.830039 
L 479.143343 431.70752 
L 479.362975 416.787297 
L 479.582607 420.647978 
L 479.802239 412.631664 
L 480.021872 379.570777 
L 480.241504 453.0516 
L 480.461136 371.560862 
L 480.680769 470.938041 
L 480.900401 396.846699 
L 481.120033 467.301813 
L 481.559298 299.606403 
L 481.77893 553.511958 
L 481.998562 448.693056 
L 482.218195 515.694585 
L 482.437827 492.364293 
L 482.877091 312.714658 
L 483.096724 346.203631 
L 483.316356 346.653657 
L 483.535988 475.460283 
L 483.755621 371.498977 
L 483.975253 478.048623 
L 484.414517 388.799349 
L 484.63415 457.16866 
L 484.853782 320.891463 
L 485.073414 385.526853 
L 485.293047 497.878542 
L 485.512679 539.323637 
L 485.732311 494.832386 
L 485.951943 525.321739 
L 486.171576 505.837735 
L 486.391208 563.890454 
L 486.61084 301.576219 
L 486.830473 510.638169 
L 487.050105 506.196148 
L 487.269737 289.919474 
L 487.489369 517.196546 
L 487.709002 490.304222 
L 487.928634 281.400393 
L 488.148266 448.176877 
L 488.367898 410.962463 
L 488.587531 436.518203 
L 488.807163 431.866315 
L 489.026795 305.756875 
L 489.246428 310.262695 
L 489.46606 426.448038 
L 489.685692 298.98274 
L 489.905324 428.389446 
L 490.124957 476.819284 
L 490.344589 428.063579 
L 490.564221 482.256727 
L 490.783854 478.305457 
L 491.003486 420.672121 
L 491.223118 496.945611 
L 491.662383 423.308826 
L 491.882015 431.553212 
L 492.101647 479.339596 
L 492.32128 440.953481 
L 492.540912 374.224593 
L 492.760544 425.658593 
L 492.980176 426.137982 
L 493.199809 433.386566 
L 493.419441 416.200787 
L 493.858706 426.539963 
L 494.078338 414.081736 
L 494.29797 454.002632 
L 494.517602 535.155103 
L 494.737235 420.536667 
L 494.956867 393.225624 
L 495.176499 410.329646 
L 495.396132 375.489081 
L 495.615764 490.336555 
L 495.835396 431.920446 
L 496.055028 495.488598 
L 496.274661 506.912367 
L 496.494293 384.677738 
L 496.713925 464.391338 
L 496.933558 450.626504 
L 497.15319 373.238539 
L 497.372822 491.401029 
L 497.592454 392.325416 
L 497.812087 499.528706 
L 498.031719 408.637619 
L 498.251351 478.083735 
L 498.690616 413.495621 
L 498.910248 375.595781 
L 499.12988 375.011374 
L 499.349513 535.930078 
L 499.569145 474.773698 
L 499.788777 227.551897 
L 500.228042 409.117918 
L 500.447674 377.300468 
L 500.667306 431.891496 
L 500.886939 435.726075 
L 501.106571 358.39416 
L 501.326203 460.527623 
L 501.545836 483.431169 
L 501.765468 369.698409 
L 501.9851 404.315605 
L 502.204732 349.345775 
L 502.424365 487.127566 
L 502.643997 482.511226 
L 502.863629 386.721955 
L 503.083262 342.637265 
L 503.302894 443.15765 
L 503.522526 336.002083 
L 503.742158 387.076415 
L 503.961791 481.401878 
L 504.401055 443.634659 
L 504.620687 340.087632 
L 504.84032 306.768166 
L 505.279584 473.497094 
L 505.499217 425.340601 
L 505.718849 449.932206 
L 505.938481 311.31686 
L 506.158113 309.172943 
L 506.597378 448.042949 
L 507.036643 322.499632 
L 507.256275 311.447354 
L 507.475907 501.64538 
L 507.695539 464.285327 
L 507.915172 334.553607 
L 508.134804 444.324094 
L 508.354436 350.001774 
L 508.793701 504.521584 
L 509.013333 437.591553 
L 509.232965 422.088162 
L 509.452598 464.995916 
L 509.67223 436.31453 
L 509.891862 462.522467 
L 510.331127 387.372875 
L 510.550759 385.575159 
L 510.770391 378.019943 
L 510.990024 430.180394 
L 511.209656 377.283517 
L 511.429288 412.600819 
L 511.648921 501.440939 
L 511.868553 415.087139 
L 512.088185 528.190656 
L 512.307817 409.721956 
L 512.52745 506.788367 
L 512.747082 275.968217 
L 512.966714 476.526522 
L 513.186347 419.348285 
L 513.405979 504.556642 
L 513.845243 370.424966 
L 514.064876 369.170482 
L 514.284508 370.158164 
L 514.50414 394.739039 
L 514.723773 371.816696 
L 514.943405 319.473441 
L 515.382669 491.936577 
L 515.821934 341.375141 
L 516.041566 442.495239 
L 516.261199 480.280369 
L 516.480831 447.817921 
L 516.700463 454.604234 
L 516.920095 539.756259 
L 517.139728 458.828092 
L 517.35936 431.987323 
L 517.578992 424.071463 
L 517.798625 471.246877 
L 518.018257 448.925217 
L 518.237889 491.77674 
L 518.457521 499.674031 
L 518.677154 405.60032 
L 518.896786 376.819039 
L 519.555683 442.09312 
L 519.775315 494.679382 
L 519.994947 405.221411 
L 520.21458 531.218617 
L 520.434212 535.7673 
L 520.653844 361.684017 
L 520.873476 479.169311 
L 521.093109 371.049872 
L 521.312741 386.520328 
L 521.532373 265.514302 
L 521.752006 479.002462 
L 521.971638 391.929257 
L 522.410902 475.24922 
L 522.630535 389.188062 
L 522.850167 433.848881 
L 523.069799 408.223703 
L 523.289432 412.506631 
L 523.509064 443.055568 
L 523.728696 379.263541 
L 523.948328 485.548726 
L 524.167961 477.130459 
L 524.387593 375.194218 
L 524.607225 420.826716 
L 525.04649 336.333086 
L 525.266122 371.010402 
L 525.485754 329.580294 
L 525.705387 541.282101 
L 525.925019 421.505772 
L 526.144651 457.172646 
L 526.364284 456.228146 
L 526.583916 451.083492 
L 526.803548 440.869465 
L 527.02318 446.398837 
L 527.242813 440.620951 
L 527.462445 470.504464 
L 527.682077 482.047449 
L 527.90171 456.784783 
L 528.121342 539.966184 
L 528.340974 449.878224 
L 528.560606 142.638336 
L 528.780239 258.774778 
L 529.219503 356.734032 
L 529.439136 475.20361 
L 529.658768 462.555229 
L 529.8784 442.218481 
L 530.098032 364.567523 
L 530.317665 350.698895 
L 530.537297 470.928853 
L 530.756929 410.77476 
L 530.976562 477.071868 
L 531.196194 329.855488 
L 531.415826 544.053805 
L 531.635458 426.078217 
L 531.855091 399.560871 
L 532.074723 281.956286 
L 532.294355 319.649389 
L 532.513988 495.418154 
L 532.73362 548.170298 
L 532.953252 351.258397 
L 533.392517 500.491657 
L 533.612149 321.869321 
L 533.831781 560.88938 
L 534.271046 174.476325 
L 534.490678 405.405713 
L 534.71031 458.97322 
L 534.929943 365.936548 
L 535.149575 363.12873 
L 535.369207 409.061344 
L 535.588839 401.584325 
L 535.808472 361.466505 
L 536.028104 481.698766 
L 536.247736 324.012381 
L 536.467369 370.691948 
L 536.687001 374.059594 
L 536.906633 541.654661 
L 537.126265 401.329636 
L 537.345898 333.884867 
L 537.785162 440.464348 
L 538.004795 434.949437 
L 538.224427 453.866161 
L 538.444059 494.121079 
L 538.663691 481.601264 
L 538.883324 481.15802 
L 539.102956 414.040448 
L 539.322588 505.006884 
L 539.542221 442.035474 
L 539.761853 443.760891 
L 539.981485 431.752339 
L 540.42075 496.918258 
L 540.640382 440.951074 
L 540.860014 323.218877 
L 541.079647 373.484244 
L 541.299279 397.327088 
L 541.518911 398.163095 
L 541.738543 436.165325 
L 541.958176 372.173774 
L 542.177808 439.305269 
L 542.39744 453.393349 
L 542.617073 406.364295 
L 542.836705 406.925715 
L 543.056337 403.791561 
L 543.275969 370.848115 
L 543.715234 476.570048 
L 543.934866 361.990888 
L 544.154499 367.435774 
L 544.593763 492.598723 
L 544.813395 446.596876 
L 545.033028 431.67496 
L 545.25266 335.143081 
L 545.472292 400.641634 
L 545.691925 425.799112 
L 545.911557 226.132606 
L 545.911557 226.132606 
" style="fill:none;stroke:#96c69a;stroke-linecap:round;stroke-width:3;"/>
   </g>
   <g id="line2d_2"/>
   <g id="patch_3">
    <path d="M 84.914375 602.94 
L 84.914375 109.326857 
" style="fill:none;stroke:#262626;stroke-linecap:square;stroke-linejoin:miter;stroke-width:2.5;"/>
   </g>
   <g id="patch_4">
    <path d="M 84.914375 602.94 
L 567.863804 602.94 
" style="fill:none;stroke:#262626;stroke-linecap:square;stroke-linejoin:miter;stroke-width:2.5;"/>
   </g>
   <g id="legend_1">
    <g id="patch_5">
     <path d="M 514.948179 597.94 
L 560.863804 597.94 
Q 562.863804 597.94 562.863804 595.94 
L 562.863804 554.034375 
Q 562.863804 552.034375 560.863804 552.034375 
L 514.948179 552.034375 
Q 512.948179 552.034375 512.948179 554.034375 
L 512.948179 595.94 
Q 512.948179 597.94 514.948179 597.94 
z
" style="fill:#ffffff;opacity:0.8;stroke:#cccccc;stroke-linejoin:miter;stroke-width:2;"/>
    </g>
    <g id="text_18">
     <!-- $n_\tau$ -->
     <g style="fill:#262626;" transform="translate(524.825991 574.270625)scale(0.24 -0.24)">
      <defs>
       <path d="M 3566 2113 
L 3156 0 
L 2578 0 
L 2988 2091 
Q 3016 2238 3031 2350 
Q 3047 2463 3047 2528 
Q 3047 2791 2881 2937 
Q 2716 3084 2419 3084 
Q 1956 3084 1622 2776 
Q 1288 2469 1184 1941 
L 800 0 
L 225 0 
L 903 3500 
L 1478 3500 
L 1363 2950 
Q 1603 3253 1940 3418 
Q 2278 3584 2650 3584 
Q 3113 3584 3367 3334 
Q 3622 3084 3622 2631 
Q 3622 2519 3608 2391 
Q 3594 2263 3566 2113 
z
" id="DejaVuSans-Oblique-6e" transform="scale(0.015625)"/>
       <path d="M 2103 638 
Q 2188 488 2525 488 
L 2800 488 
L 2706 0 
L 2363 0 
Q 1800 0 1600 300 
Q 1403 606 1534 1269 
L 1856 2925 
L 541 2925 
L 653 3500 
L 3881 3500 
L 3769 2925 
L 2444 2925 
L 2113 1234 
Q 2025 781 2103 638 
z
" id="DejaVuSans-Oblique-3c4" transform="scale(0.015625)"/>
      </defs>
      <use xlink:href="#DejaVuSans-Oblique-6e"/>
      <use transform="translate(63.378906 -16.40625)scale(0.7)" xlink:href="#DejaVuSans-Oblique-3c4"/>
     </g>
    </g>
    <g id="line2d_3">
     <path d="M 516.948179 588.360312 
L 536.948179 588.360312 
" style="fill:none;stroke:#96c69a;stroke-linecap:round;stroke-width:3;"/>
    </g>
    <g id="line2d_4"/>
    <g id="text_19">
     <!-- 64 -->
     <g style="fill:#262626;" transform="translate(544.948179 591.860312)scale(0.1 -0.1)">
      <defs>
       <path d="M 2316 2303 
Q 2000 2303 1842 2098 
Q 1684 1894 1684 1484 
Q 1684 1075 1842 870 
Q 2000 666 2316 666 
Q 2634 666 2792 870 
Q 2950 1075 2950 1484 
Q 2950 1894 2792 2098 
Q 2634 2303 2316 2303 
z
M 3803 4544 
L 3803 3681 
Q 3506 3822 3243 3889 
Q 2981 3956 2731 3956 
Q 2194 3956 1894 3657 
Q 1594 3359 1544 2772 
Q 1750 2925 1990 3001 
Q 2231 3078 2516 3078 
Q 3231 3078 3670 2659 
Q 4109 2241 4109 1563 
Q 4109 813 3618 361 
Q 3128 -91 2303 -91 
Q 1394 -91 895 523 
Q 397 1138 397 2266 
Q 397 3422 980 4083 
Q 1563 4744 2578 4744 
Q 2900 4744 3203 4694 
Q 3506 4644 3803 4544 
z
" id="DejaVuSans-Bold-36" transform="scale(0.015625)"/>
       <path d="M 2356 3675 
L 1038 1722 
L 2356 1722 
L 2356 3675 
z
M 2156 4666 
L 3494 4666 
L 3494 1722 
L 4159 1722 
L 4159 850 
L 3494 850 
L 3494 0 
L 2356 0 
L 2356 850 
L 288 850 
L 288 1881 
L 2156 4666 
z
" id="DejaVuSans-Bold-34" transform="scale(0.015625)"/>
      </defs>
      <use xlink:href="#DejaVuSans-Bold-36"/>
      <use x="69.580078" xlink:href="#DejaVuSans-Bold-34"/>
     </g>
    </g>
   </g>
  </g>
  <g id="axes_2">
   <g id="patch_6">
    <path d="M 84.914375 92.305714 
L 567.863804 92.305714 
L 567.863804 7.2 
L 84.914375 7.2 
z
" style="fill:none;"/>
   </g>
   <g id="matplotlib.axis_3">
    <g id="xtick_7"/>
    <g id="xtick_8"/>
    <g id="xtick_9"/>
    <g id="xtick_10"/>
    <g id="xtick_11"/>
    <g id="xtick_12"/>
   </g>
   <g id="matplotlib.axis_4">
    <g id="ytick_10">
     <g id="text_20">
      <!-- 0 -->
      <g style="fill:#262626;" transform="translate(55.416875 100.663996)scale(0.22 -0.22)">
       <use xlink:href="#DejaVuSans-30"/>
      </g>
     </g>
    </g>
    <g id="ytick_11">
     <g id="text_21">
      <!-- 100 -->
      <g style="fill:#262626;" transform="translate(27.421875 48.032138)scale(0.22 -0.22)">
       <use xlink:href="#DejaVuSans-31"/>
       <use x="63.623047" xlink:href="#DejaVuSans-30"/>
       <use x="127.246094" xlink:href="#DejaVuSans-30"/>
      </g>
     </g>
    </g>
   </g>
   <g id="patch_7">
    <path clip-path="url(#pefe6c3cdb2)" d="M 106.866622 92.305714 
L 140.639309 92.305714 
L 140.639309 11.252653 
L 106.866622 11.252653 
z
" style="fill:#96c69a;fill-opacity:0.5;stroke:#ffffff;stroke-linejoin:miter;stroke-width:2;"/>
   </g>
   <g id="patch_8">
    <path clip-path="url(#pefe6c3cdb2)" d="M 140.639309 92.305714 
L 174.411996 92.305714 
L 174.411996 11.252653 
L 140.639309 11.252653 
z
" style="fill:#96c69a;fill-opacity:0.5;stroke:#ffffff;stroke-linejoin:miter;stroke-width:2;"/>
   </g>
   <g id="patch_9">
    <path clip-path="url(#pefe6c3cdb2)" d="M 174.411996 92.305714 
L 208.184684 92.305714 
L 208.184684 11.252653 
L 174.411996 11.252653 
z
" style="fill:#96c69a;fill-opacity:0.5;stroke:#ffffff;stroke-linejoin:miter;stroke-width:2;"/>
   </g>
   <g id="patch_10">
    <path clip-path="url(#pefe6c3cdb2)" d="M 208.184684 92.305714 
L 241.957371 92.305714 
L 241.957371 11.252653 
L 208.184684 11.252653 
z
" style="fill:#96c69a;fill-opacity:0.5;stroke:#ffffff;stroke-linejoin:miter;stroke-width:2;"/>
   </g>
   <g id="patch_11">
    <path clip-path="url(#pefe6c3cdb2)" d="M 241.957371 92.305714 
L 275.730058 92.305714 
L 275.730058 11.778972 
L 241.957371 11.778972 
z
" style="fill:#96c69a;fill-opacity:0.5;stroke:#ffffff;stroke-linejoin:miter;stroke-width:2;"/>
   </g>
   <g id="patch_12">
    <path clip-path="url(#pefe6c3cdb2)" d="M 275.730058 92.305714 
L 309.502746 92.305714 
L 309.502746 11.252653 
L 275.730058 11.252653 
z
" style="fill:#96c69a;fill-opacity:0.5;stroke:#ffffff;stroke-linejoin:miter;stroke-width:2;"/>
   </g>
   <g id="patch_13">
    <path clip-path="url(#pefe6c3cdb2)" d="M 309.502746 92.305714 
L 343.275433 92.305714 
L 343.275433 11.252653 
L 309.502746 11.252653 
z
" style="fill:#96c69a;fill-opacity:0.5;stroke:#ffffff;stroke-linejoin:miter;stroke-width:2;"/>
   </g>
   <g id="patch_14">
    <path clip-path="url(#pefe6c3cdb2)" d="M 343.275433 92.305714 
L 377.04812 92.305714 
L 377.04812 11.252653 
L 343.275433 11.252653 
z
" style="fill:#96c69a;fill-opacity:0.5;stroke:#ffffff;stroke-linejoin:miter;stroke-width:2;"/>
   </g>
   <g id="patch_15">
    <path clip-path="url(#pefe6c3cdb2)" d="M 377.04812 92.305714 
L 410.820808 92.305714 
L 410.820808 11.778972 
L 377.04812 11.778972 
z
" style="fill:#96c69a;fill-opacity:0.5;stroke:#ffffff;stroke-linejoin:miter;stroke-width:2;"/>
   </g>
   <g id="patch_16">
    <path clip-path="url(#pefe6c3cdb2)" d="M 410.820808 92.305714 
L 444.593495 92.305714 
L 444.593495 11.252653 
L 410.820808 11.252653 
z
" style="fill:#96c69a;fill-opacity:0.5;stroke:#ffffff;stroke-linejoin:miter;stroke-width:2;"/>
   </g>
   <g id="patch_17">
    <path clip-path="url(#pefe6c3cdb2)" d="M 444.593495 92.305714 
L 478.366182 92.305714 
L 478.366182 11.252653 
L 444.593495 11.252653 
z
" style="fill:#96c69a;fill-opacity:0.5;stroke:#ffffff;stroke-linejoin:miter;stroke-width:2;"/>
   </g>
   <g id="patch_18">
    <path clip-path="url(#pefe6c3cdb2)" d="M 478.366182 92.305714 
L 512.13887 92.305714 
L 512.13887 11.252653 
L 478.366182 11.252653 
z
" style="fill:#96c69a;fill-opacity:0.5;stroke:#ffffff;stroke-linejoin:miter;stroke-width:2;"/>
   </g>
   <g id="patch_19">
    <path clip-path="url(#pefe6c3cdb2)" d="M 512.13887 92.305714 
L 545.911557 92.305714 
L 545.911557 11.252653 
L 512.13887 11.252653 
z
" style="fill:#96c69a;fill-opacity:0.5;stroke:#ffffff;stroke-linejoin:miter;stroke-width:2;"/>
   </g>
   <g id="patch_20">
    <path d="M 84.914375 92.305714 
L 84.914375 7.2 
" style="fill:none;stroke:#262626;stroke-linecap:square;stroke-linejoin:miter;stroke-width:2.5;"/>
   </g>
   <g id="patch_21">
    <path d="M 84.914375 92.305714 
L 567.863804 92.305714 
" style="fill:none;stroke:#262626;stroke-linecap:square;stroke-linejoin:miter;stroke-width:2.5;"/>
   </g>
  </g>
  <g id="axes_3">
   <g id="patch_22">
    <path d="M 584.517232 602.94 
L 667.784375 602.94 
L 667.784375 109.326857 
L 584.517232 109.326857 
z
" style="fill:none;"/>
   </g>
   <g id="matplotlib.axis_5">
    <g id="xtick_13">
     <g id="text_22">
      <!-- 0 -->
      <g style="fill:#262626;" transform="translate(577.518482 635.156562)scale(0.22 -0.22)">
       <use xlink:href="#DejaVuSans-30"/>
      </g>
     </g>
    </g>
    <g id="xtick_14">
     <g id="text_23">
      <!-- 100 -->
      <g style="fill:#262626;" transform="translate(606.619917 635.156562)scale(0.22 -0.22)">
       <use xlink:href="#DejaVuSans-31"/>
       <use x="63.623047" xlink:href="#DejaVuSans-30"/>
       <use x="127.246094" xlink:href="#DejaVuSans-30"/>
      </g>
     </g>
    </g>
   </g>
   <g id="matplotlib.axis_6">
    <g id="ytick_12"/>
    <g id="ytick_13"/>
    <g id="ytick_14"/>
    <g id="ytick_15"/>
    <g id="ytick_16"/>
    <g id="ytick_17"/>
    <g id="ytick_18"/>
    <g id="ytick_19"/>
    <g id="ytick_20"/>
   </g>
   <g id="patch_23">
    <path clip-path="url(#p1aef74450e)" d="M 584.517232 580.503039 
L 586.24119 580.503039 
L 586.24119 565.545065 
L 584.517232 565.545065 
z
" style="fill:#96c69a;fill-opacity:0.5;stroke:#ffffff;stroke-linejoin:miter;stroke-width:1.495797;"/>
   </g>
   <g id="patch_24">
    <path clip-path="url(#p1aef74450e)" d="M 584.517232 565.545065 
L 590.120094 565.545065 
L 590.120094 550.587091 
L 584.517232 550.587091 
z
" style="fill:#96c69a;fill-opacity:0.5;stroke:#ffffff;stroke-linejoin:miter;stroke-width:1.495797;"/>
   </g>
   <g id="patch_25">
    <path clip-path="url(#p1aef74450e)" d="M 584.517232 550.587091 
L 597.877902 550.587091 
L 597.877902 535.629117 
L 584.517232 535.629117 
z
" style="fill:#96c69a;fill-opacity:0.5;stroke:#ffffff;stroke-linejoin:miter;stroke-width:1.495797;"/>
   </g>
   <g id="patch_26">
    <path clip-path="url(#p1aef74450e)" d="M 584.517232 535.629117 
L 607.790657 535.629117 
L 607.790657 520.671143 
L 584.517232 520.671143 
z
" style="fill:#96c69a;fill-opacity:0.5;stroke:#ffffff;stroke-linejoin:miter;stroke-width:1.495797;"/>
   </g>
   <g id="patch_27">
    <path clip-path="url(#p1aef74450e)" d="M 584.517232 520.671143 
L 616.841434 520.671143 
L 616.841434 505.713169 
L 584.517232 505.713169 
z
" style="fill:#96c69a;fill-opacity:0.5;stroke:#ffffff;stroke-linejoin:miter;stroke-width:1.495797;"/>
   </g>
   <g id="patch_28">
    <path clip-path="url(#p1aef74450e)" d="M 584.517232 505.713169 
L 634.081008 505.713169 
L 634.081008 490.755195 
L 584.517232 490.755195 
z
" style="fill:#96c69a;fill-opacity:0.5;stroke:#ffffff;stroke-linejoin:miter;stroke-width:1.495797;"/>
   </g>
   <g id="patch_29">
    <path clip-path="url(#p1aef74450e)" d="M 584.517232 490.755195 
L 651.751571 490.755195 
L 651.751571 475.797221 
L 584.517232 475.797221 
z
" style="fill:#96c69a;fill-opacity:0.5;stroke:#ffffff;stroke-linejoin:miter;stroke-width:1.495797;"/>
   </g>
   <g id="patch_30">
    <path clip-path="url(#p1aef74450e)" d="M 584.517232 475.797221 
L 647.010688 475.797221 
L 647.010688 460.839247 
L 584.517232 460.839247 
z
" style="fill:#96c69a;fill-opacity:0.5;stroke:#ffffff;stroke-linejoin:miter;stroke-width:1.495797;"/>
   </g>
   <g id="patch_31">
    <path clip-path="url(#p1aef74450e)" d="M 584.517232 460.839247 
L 661.233337 460.839247 
L 661.233337 445.881273 
L 584.517232 445.881273 
z
" style="fill:#96c69a;fill-opacity:0.5;stroke:#ffffff;stroke-linejoin:miter;stroke-width:1.495797;"/>
   </g>
   <g id="patch_32">
    <path clip-path="url(#p1aef74450e)" d="M 584.517232 445.881273 
L 663.819273 445.881273 
L 663.819273 430.923299 
L 584.517232 430.923299 
z
" style="fill:#96c69a;fill-opacity:0.5;stroke:#ffffff;stroke-linejoin:miter;stroke-width:1.495797;"/>
   </g>
   <g id="patch_33">
    <path clip-path="url(#p1aef74450e)" d="M 584.517232 430.923299 
L 657.785422 430.923299 
L 657.785422 415.965325 
L 584.517232 415.965325 
z
" style="fill:#96c69a;fill-opacity:0.5;stroke:#ffffff;stroke-linejoin:miter;stroke-width:1.495797;"/>
   </g>
   <g id="patch_34">
    <path clip-path="url(#p1aef74450e)" d="M 584.517232 415.965325 
L 653.475529 415.965325 
L 653.475529 401.007351 
L 584.517232 401.007351 
z
" style="fill:#96c69a;fill-opacity:0.5;stroke:#ffffff;stroke-linejoin:miter;stroke-width:1.495797;"/>
   </g>
   <g id="patch_35">
    <path clip-path="url(#p1aef74450e)" d="M 584.517232 401.007351 
L 640.545848 401.007351 
L 640.545848 386.049377 
L 584.517232 386.049377 
z
" style="fill:#96c69a;fill-opacity:0.5;stroke:#ffffff;stroke-linejoin:miter;stroke-width:1.495797;"/>
   </g>
   <g id="patch_36">
    <path clip-path="url(#p1aef74450e)" d="M 584.517232 386.049377 
L 643.993763 386.049377 
L 643.993763 371.091403 
L 584.517232 371.091403 
z
" style="fill:#96c69a;fill-opacity:0.5;stroke:#ffffff;stroke-linejoin:miter;stroke-width:1.495797;"/>
   </g>
   <g id="patch_37">
    <path clip-path="url(#p1aef74450e)" d="M 584.517232 371.091403 
L 629.771114 371.091403 
L 629.771114 356.133429 
L 584.517232 356.133429 
z
" style="fill:#96c69a;fill-opacity:0.5;stroke:#ffffff;stroke-linejoin:miter;stroke-width:1.495797;"/>
   </g>
   <g id="patch_38">
    <path clip-path="url(#p1aef74450e)" d="M 584.517232 356.133429 
L 620.720338 356.133429 
L 620.720338 341.175455 
L 584.517232 341.175455 
z
" style="fill:#96c69a;fill-opacity:0.5;stroke:#ffffff;stroke-linejoin:miter;stroke-width:1.495797;"/>
   </g>
   <g id="patch_39">
    <path clip-path="url(#p1aef74450e)" d="M 584.517232 341.175455 
L 610.376593 341.175455 
L 610.376593 326.217481 
L 584.517232 326.217481 
z
" style="fill:#96c69a;fill-opacity:0.5;stroke:#ffffff;stroke-linejoin:miter;stroke-width:1.495797;"/>
   </g>
   <g id="patch_40">
    <path clip-path="url(#p1aef74450e)" d="M 584.517232 326.217481 
L 609.083625 326.217481 
L 609.083625 311.259506 
L 584.517232 311.259506 
z
" style="fill:#96c69a;fill-opacity:0.5;stroke:#ffffff;stroke-linejoin:miter;stroke-width:1.495797;"/>
   </g>
   <g id="patch_41">
    <path clip-path="url(#p1aef74450e)" d="M 584.517232 311.259506 
L 602.187796 311.259506 
L 602.187796 296.301532 
L 584.517232 296.301532 
z
" style="fill:#96c69a;fill-opacity:0.5;stroke:#ffffff;stroke-linejoin:miter;stroke-width:1.495797;"/>
   </g>
   <g id="patch_42">
    <path clip-path="url(#p1aef74450e)" d="M 584.517232 296.301532 
L 597.446913 296.301532 
L 597.446913 281.343558 
L 584.517232 281.343558 
z
" style="fill:#96c69a;fill-opacity:0.5;stroke:#ffffff;stroke-linejoin:miter;stroke-width:1.495797;"/>
   </g>
   <g id="patch_43">
    <path clip-path="url(#p1aef74450e)" d="M 584.517232 281.343558 
L 596.153945 281.343558 
L 596.153945 266.385584 
L 584.517232 266.385584 
z
" style="fill:#96c69a;fill-opacity:0.5;stroke:#ffffff;stroke-linejoin:miter;stroke-width:1.495797;"/>
   </g>
   <g id="patch_44">
    <path clip-path="url(#p1aef74450e)" d="M 584.517232 266.385584 
L 590.982072 266.385584 
L 590.982072 251.42761 
L 584.517232 251.42761 
z
" style="fill:#96c69a;fill-opacity:0.5;stroke:#ffffff;stroke-linejoin:miter;stroke-width:1.495797;"/>
   </g>
   <g id="patch_45">
    <path clip-path="url(#p1aef74450e)" d="M 584.517232 251.42761 
L 586.672179 251.42761 
L 586.672179 236.469636 
L 584.517232 236.469636 
z
" style="fill:#96c69a;fill-opacity:0.5;stroke:#ffffff;stroke-linejoin:miter;stroke-width:1.495797;"/>
   </g>
   <g id="patch_46">
    <path clip-path="url(#p1aef74450e)" d="M 584.517232 236.469636 
L 587.965147 236.469636 
L 587.965147 221.511662 
L 584.517232 221.511662 
z
" style="fill:#96c69a;fill-opacity:0.5;stroke:#ffffff;stroke-linejoin:miter;stroke-width:1.495797;"/>
   </g>
   <g id="patch_47">
    <path clip-path="url(#p1aef74450e)" d="M 584.517232 221.511662 
L 586.672179 221.511662 
L 586.672179 206.553688 
L 584.517232 206.553688 
z
" style="fill:#96c69a;fill-opacity:0.5;stroke:#ffffff;stroke-linejoin:miter;stroke-width:1.495797;"/>
   </g>
   <g id="patch_48">
    <path clip-path="url(#p1aef74450e)" d="M 584.517232 206.553688 
L 585.8102 206.553688 
L 585.8102 191.595714 
L 584.517232 191.595714 
z
" style="fill:#96c69a;fill-opacity:0.5;stroke:#ffffff;stroke-linejoin:miter;stroke-width:1.495797;"/>
   </g>
   <g id="patch_49">
    <path clip-path="url(#p1aef74450e)" d="M 584.517232 191.595714 
L 584.948221 191.595714 
L 584.948221 176.63774 
L 584.517232 176.63774 
z
" style="fill:#96c69a;fill-opacity:0.5;stroke:#ffffff;stroke-linejoin:miter;stroke-width:1.495797;"/>
   </g>
   <g id="patch_50">
    <path clip-path="url(#p1aef74450e)" d="M 584.517232 176.63774 
L 585.8102 176.63774 
L 585.8102 161.679766 
L 584.517232 161.679766 
z
" style="fill:#96c69a;fill-opacity:0.5;stroke:#ffffff;stroke-linejoin:miter;stroke-width:1.495797;"/>
   </g>
   <g id="patch_51">
    <path clip-path="url(#p1aef74450e)" d="M 584.517232 161.679766 
L 584.948221 161.679766 
L 584.948221 146.721792 
L 584.517232 146.721792 
z
" style="fill:#96c69a;fill-opacity:0.5;stroke:#ffffff;stroke-linejoin:miter;stroke-width:1.495797;"/>
   </g>
   <g id="patch_52">
    <path clip-path="url(#p1aef74450e)" d="M 584.517232 146.721792 
L 585.379211 146.721792 
L 585.379211 131.763818 
L 584.517232 131.763818 
z
" style="fill:#96c69a;fill-opacity:0.5;stroke:#ffffff;stroke-linejoin:miter;stroke-width:1.495797;"/>
   </g>
   <g id="patch_53">
    <path d="M 584.517232 602.94 
L 584.517232 109.326857 
" style="fill:none;stroke:#262626;stroke-linecap:square;stroke-linejoin:miter;stroke-width:2.5;"/>
   </g>
   <g id="patch_54">
    <path d="M 584.517232 602.94 
L 667.784375 602.94 
" style="fill:none;stroke:#262626;stroke-linecap:square;stroke-linejoin:miter;stroke-width:2.5;"/>
   </g>
  </g>
 </g>
 <defs>
  <clipPath id="pdb429e8b88">
   <rect height="493.613143" width="482.949429" x="84.914375" y="109.326857"/>
  </clipPath>
  <clipPath id="pefe6c3cdb2">
   <rect height="85.105714" width="482.949429" x="84.914375" y="7.2"/>
  </clipPath>
  <clipPath id="p1aef74450e">
   <rect height="493.613143" width="83.267143" x="584.517232" y="109.326857"/>
  </clipPath>
 </defs>
</svg>
