<?xml version="1.0" encoding="utf-8" standalone="no"?>
<!DOCTYPE svg PUBLIC "-//W3C//DTD SVG 1.1//EN"
  "http://www.w3.org/Graphics/SVG/1.1/DTD/svg11.dtd">
<svg height="675.079375pt" version="1.1" viewBox="0 0 674.774375 675.079375" width="674.774375pt" xmlns="http://www.w3.org/2000/svg" xmlns:xlink="http://www.w3.org/1999/xlink">
 <metadata>
  <rdf:RDF xmlns:cc="http://creativecommons.org/ns#" xmlns:dc="http://purl.org/dc/elements/1.1/" xmlns:rdf="http://www.w3.org/1999/02/22-rdf-syntax-ns#">
   <cc:Work>
    <dc:type rdf:resource="http://purl.org/dc/dcmitype/StillImage"/>
    <dc:date>2021-07-16T22:22:26.525846</dc:date>
    <dc:format>image/svg+xml</dc:format>
    <dc:creator>
     <cc:Agent>
      <dc:title>Matplotlib v3.4.2, https://matplotlib.org/</dc:title>
     </cc:Agent>
    </dc:creator>
   </cc:Work>
  </rdf:RDF>
 </metadata>
 <defs>
  <style type="text/css">*{stroke-linecap:butt;stroke-linejoin:round;}</style>
 </defs>
 <g id="figure_1">
  <g id="patch_1">
   <path d="M 0 675.079375 
L 674.774375 675.079375 
L 674.774375 0 
L 0 0 
z
" style="fill:#ffffff;"/>
  </g>
  <g id="axes_1">
   <g id="patch_2">
    <path d="M 84.914375 603.86 
L 567.689804 603.86 
L 567.689804 109.484571 
L 84.914375 109.484571 
z
" style="fill:none;"/>
   </g>
   <g id="matplotlib.axis_1">
    <g id="xtick_1">
     <g id="text_1">
      <!-- 0 -->
      <g style="fill:#262626;" transform="translate(99.64041 636.076563)scale(0.22 -0.22)">
       <defs>
        <path d="M 2034 4250 
Q 1547 4250 1301 3770 
Q 1056 3291 1056 2328 
Q 1056 1369 1301 889 
Q 1547 409 2034 409 
Q 2525 409 2770 889 
Q 3016 1369 3016 2328 
Q 3016 3291 2770 3770 
Q 2525 4250 2034 4250 
z
M 2034 4750 
Q 2819 4750 3233 4129 
Q 3647 3509 3647 2328 
Q 3647 1150 3233 529 
Q 2819 -91 2034 -91 
Q 1250 -91 836 529 
Q 422 1150 422 2328 
Q 422 3509 836 4129 
Q 1250 4750 2034 4750 
z
" id="DejaVuSans-30" transform="scale(0.015625)"/>
       </defs>
       <use xlink:href="#DejaVuSans-30"/>
      </g>
     </g>
    </g>
    <g id="xtick_2">
     <g id="text_2">
      <!-- 20000 -->
      <g style="fill:#262626;" transform="translate(159.466671 636.076563)scale(0.22 -0.22)">
       <defs>
        <path d="M 1228 531 
L 3431 531 
L 3431 0 
L 469 0 
L 469 531 
Q 828 903 1448 1529 
Q 2069 2156 2228 2338 
Q 2531 2678 2651 2914 
Q 2772 3150 2772 3378 
Q 2772 3750 2511 3984 
Q 2250 4219 1831 4219 
Q 1534 4219 1204 4116 
Q 875 4013 500 3803 
L 500 4441 
Q 881 4594 1212 4672 
Q 1544 4750 1819 4750 
Q 2544 4750 2975 4387 
Q 3406 4025 3406 3419 
Q 3406 3131 3298 2873 
Q 3191 2616 2906 2266 
Q 2828 2175 2409 1742 
Q 1991 1309 1228 531 
z
" id="DejaVuSans-32" transform="scale(0.015625)"/>
       </defs>
       <use xlink:href="#DejaVuSans-32"/>
       <use x="63.623047" xlink:href="#DejaVuSans-30"/>
       <use x="127.246094" xlink:href="#DejaVuSans-30"/>
       <use x="190.869141" xlink:href="#DejaVuSans-30"/>
       <use x="254.492188" xlink:href="#DejaVuSans-30"/>
      </g>
     </g>
    </g>
    <g id="xtick_3">
     <g id="text_3">
      <!-- 40000 -->
      <g style="fill:#262626;" transform="translate(247.287932 636.076563)scale(0.22 -0.22)">
       <defs>
        <path d="M 2419 4116 
L 825 1625 
L 2419 1625 
L 2419 4116 
z
M 2253 4666 
L 3047 4666 
L 3047 1625 
L 3713 1625 
L 3713 1100 
L 3047 1100 
L 3047 0 
L 2419 0 
L 2419 1100 
L 313 1100 
L 313 1709 
L 2253 4666 
z
" id="DejaVuSans-34" transform="scale(0.015625)"/>
       </defs>
       <use xlink:href="#DejaVuSans-34"/>
       <use x="63.623047" xlink:href="#DejaVuSans-30"/>
       <use x="127.246094" xlink:href="#DejaVuSans-30"/>
       <use x="190.869141" xlink:href="#DejaVuSans-30"/>
       <use x="254.492188" xlink:href="#DejaVuSans-30"/>
      </g>
     </g>
    </g>
    <g id="xtick_4">
     <g id="text_4">
      <!-- 60000 -->
      <g style="fill:#262626;" transform="translate(335.109193 636.076563)scale(0.22 -0.22)">
       <defs>
        <path d="M 2113 2584 
Q 1688 2584 1439 2293 
Q 1191 2003 1191 1497 
Q 1191 994 1439 701 
Q 1688 409 2113 409 
Q 2538 409 2786 701 
Q 3034 994 3034 1497 
Q 3034 2003 2786 2293 
Q 2538 2584 2113 2584 
z
M 3366 4563 
L 3366 3988 
Q 3128 4100 2886 4159 
Q 2644 4219 2406 4219 
Q 1781 4219 1451 3797 
Q 1122 3375 1075 2522 
Q 1259 2794 1537 2939 
Q 1816 3084 2150 3084 
Q 2853 3084 3261 2657 
Q 3669 2231 3669 1497 
Q 3669 778 3244 343 
Q 2819 -91 2113 -91 
Q 1303 -91 875 529 
Q 447 1150 447 2328 
Q 447 3434 972 4092 
Q 1497 4750 2381 4750 
Q 2619 4750 2861 4703 
Q 3103 4656 3366 4563 
z
" id="DejaVuSans-36" transform="scale(0.015625)"/>
       </defs>
       <use xlink:href="#DejaVuSans-36"/>
       <use x="63.623047" xlink:href="#DejaVuSans-30"/>
       <use x="127.246094" xlink:href="#DejaVuSans-30"/>
       <use x="190.869141" xlink:href="#DejaVuSans-30"/>
       <use x="254.492188" xlink:href="#DejaVuSans-30"/>
      </g>
     </g>
    </g>
    <g id="xtick_5">
     <g id="text_5">
      <!-- 80000 -->
      <g style="fill:#262626;" transform="translate(422.930455 636.076563)scale(0.22 -0.22)">
       <defs>
        <path d="M 2034 2216 
Q 1584 2216 1326 1975 
Q 1069 1734 1069 1313 
Q 1069 891 1326 650 
Q 1584 409 2034 409 
Q 2484 409 2743 651 
Q 3003 894 3003 1313 
Q 3003 1734 2745 1975 
Q 2488 2216 2034 2216 
z
M 1403 2484 
Q 997 2584 770 2862 
Q 544 3141 544 3541 
Q 544 4100 942 4425 
Q 1341 4750 2034 4750 
Q 2731 4750 3128 4425 
Q 3525 4100 3525 3541 
Q 3525 3141 3298 2862 
Q 3072 2584 2669 2484 
Q 3125 2378 3379 2068 
Q 3634 1759 3634 1313 
Q 3634 634 3220 271 
Q 2806 -91 2034 -91 
Q 1263 -91 848 271 
Q 434 634 434 1313 
Q 434 1759 690 2068 
Q 947 2378 1403 2484 
z
M 1172 3481 
Q 1172 3119 1398 2916 
Q 1625 2713 2034 2713 
Q 2441 2713 2670 2916 
Q 2900 3119 2900 3481 
Q 2900 3844 2670 4047 
Q 2441 4250 2034 4250 
Q 1625 4250 1398 4047 
Q 1172 3844 1172 3481 
z
" id="DejaVuSans-38" transform="scale(0.015625)"/>
       </defs>
       <use xlink:href="#DejaVuSans-38"/>
       <use x="63.623047" xlink:href="#DejaVuSans-30"/>
       <use x="127.246094" xlink:href="#DejaVuSans-30"/>
       <use x="190.869141" xlink:href="#DejaVuSans-30"/>
       <use x="254.492188" xlink:href="#DejaVuSans-30"/>
      </g>
     </g>
    </g>
    <g id="xtick_6">
     <g id="text_6">
      <!-- 100000 -->
      <g style="fill:#262626;" transform="translate(503.752966 636.076563)scale(0.22 -0.22)">
       <defs>
        <path d="M 794 531 
L 1825 531 
L 1825 4091 
L 703 3866 
L 703 4441 
L 1819 4666 
L 2450 4666 
L 2450 531 
L 3481 531 
L 3481 0 
L 794 0 
L 794 531 
z
" id="DejaVuSans-31" transform="scale(0.015625)"/>
       </defs>
       <use xlink:href="#DejaVuSans-31"/>
       <use x="63.623047" xlink:href="#DejaVuSans-30"/>
       <use x="127.246094" xlink:href="#DejaVuSans-30"/>
       <use x="190.869141" xlink:href="#DejaVuSans-30"/>
       <use x="254.492188" xlink:href="#DejaVuSans-30"/>
       <use x="318.115234" xlink:href="#DejaVuSans-30"/>
      </g>
     </g>
    </g>
    <g id="text_7">
     <!-- MDTU -->
     <g style="fill:#262626;" transform="translate(290.596464 662.888125)scale(0.24 -0.24)">
      <defs>
       <path d="M 628 4666 
L 1569 4666 
L 2759 1491 
L 3956 4666 
L 4897 4666 
L 4897 0 
L 4281 0 
L 4281 4097 
L 3078 897 
L 2444 897 
L 1241 4097 
L 1241 0 
L 628 0 
L 628 4666 
z
" id="DejaVuSans-4d" transform="scale(0.015625)"/>
       <path d="M 1259 4147 
L 1259 519 
L 2022 519 
Q 2988 519 3436 956 
Q 3884 1394 3884 2338 
Q 3884 3275 3436 3711 
Q 2988 4147 2022 4147 
L 1259 4147 
z
M 628 4666 
L 1925 4666 
Q 3281 4666 3915 4102 
Q 4550 3538 4550 2338 
Q 4550 1131 3912 565 
Q 3275 0 1925 0 
L 628 0 
L 628 4666 
z
" id="DejaVuSans-44" transform="scale(0.015625)"/>
       <path d="M -19 4666 
L 3928 4666 
L 3928 4134 
L 2272 4134 
L 2272 0 
L 1638 0 
L 1638 4134 
L -19 4134 
L -19 4666 
z
" id="DejaVuSans-54" transform="scale(0.015625)"/>
       <path d="M 556 4666 
L 1191 4666 
L 1191 1831 
Q 1191 1081 1462 751 
Q 1734 422 2344 422 
Q 2950 422 3222 751 
Q 3494 1081 3494 1831 
L 3494 4666 
L 4128 4666 
L 4128 1753 
Q 4128 841 3676 375 
Q 3225 -91 2344 -91 
Q 1459 -91 1007 375 
Q 556 841 556 1753 
L 556 4666 
z
" id="DejaVuSans-55" transform="scale(0.015625)"/>
      </defs>
      <use xlink:href="#DejaVuSans-4d"/>
      <use x="86.279297" xlink:href="#DejaVuSans-44"/>
      <use x="163.28125" xlink:href="#DejaVuSans-54"/>
      <use x="224.365234" xlink:href="#DejaVuSans-55"/>
     </g>
    </g>
   </g>
   <g id="matplotlib.axis_2">
    <g id="ytick_1">
     <g id="text_8">
      <!-- 0.4 -->
      <g style="fill:#262626;" transform="translate(34.4275 610.858379)scale(0.22 -0.22)">
       <defs>
        <path d="M 684 794 
L 1344 794 
L 1344 0 
L 684 0 
L 684 794 
z
" id="DejaVuSans-2e" transform="scale(0.015625)"/>
       </defs>
       <use xlink:href="#DejaVuSans-30"/>
       <use x="63.623047" xlink:href="#DejaVuSans-2e"/>
       <use x="95.410156" xlink:href="#DejaVuSans-34"/>
      </g>
     </g>
    </g>
    <g id="ytick_2">
     <g id="text_9">
      <!-- 0.6 -->
      <g style="fill:#262626;" transform="translate(34.4275 502.821747)scale(0.22 -0.22)">
       <use xlink:href="#DejaVuSans-30"/>
       <use x="63.623047" xlink:href="#DejaVuSans-2e"/>
       <use x="95.410156" xlink:href="#DejaVuSans-36"/>
      </g>
     </g>
    </g>
    <g id="ytick_3">
     <g id="text_10">
      <!-- 0.8 -->
      <g style="fill:#262626;" transform="translate(34.4275 394.785114)scale(0.22 -0.22)">
       <use xlink:href="#DejaVuSans-30"/>
       <use x="63.623047" xlink:href="#DejaVuSans-2e"/>
       <use x="95.410156" xlink:href="#DejaVuSans-38"/>
      </g>
     </g>
    </g>
    <g id="ytick_4">
     <g id="text_11">
      <!-- 1.0 -->
      <g style="fill:#262626;" transform="translate(34.4275 286.748481)scale(0.22 -0.22)">
       <use xlink:href="#DejaVuSans-31"/>
       <use x="63.623047" xlink:href="#DejaVuSans-2e"/>
       <use x="95.410156" xlink:href="#DejaVuSans-30"/>
      </g>
     </g>
    </g>
    <g id="ytick_5">
     <g id="text_12">
      <!-- 1.2 -->
      <g style="fill:#262626;" transform="translate(34.4275 178.711849)scale(0.22 -0.22)">
       <use xlink:href="#DejaVuSans-31"/>
       <use x="63.623047" xlink:href="#DejaVuSans-2e"/>
       <use x="95.410156" xlink:href="#DejaVuSans-32"/>
      </g>
     </g>
    </g>
    <g id="text_13">
     <!-- $E$ -->
     <g style="fill:#262626;" transform="translate(25.43625 364.352286)rotate(-90)scale(0.24 -0.24)">
      <defs>
       <path d="M 1081 4666 
L 4031 4666 
L 3928 4134 
L 1606 4134 
L 1338 2753 
L 3566 2753 
L 3463 2222 
L 1234 2222 
L 909 531 
L 3284 531 
L 3181 0 
L 172 0 
L 1081 4666 
z
" id="DejaVuSans-Oblique-45" transform="scale(0.015625)"/>
      </defs>
      <use transform="translate(0 0.09375)" xlink:href="#DejaVuSans-Oblique-45"/>
     </g>
    </g>
   </g>
   <g id="line2d_1">
    <path clip-path="url(#p0e928dd875)" d="M 106.858713 433.819744 
L 107.078266 329.214706 
L 107.297819 458.881502 
L 107.517372 445.847023 
L 107.956478 361.011214 
L 108.176032 431.400145 
L 108.395585 381.669453 
L 108.615138 386.678562 
L 108.834691 369.538604 
L 109.054244 408.094722 
L 109.273797 484.180282 
L 109.493351 401.053001 
L 109.712904 464.315725 
L 109.932457 467.790817 
L 110.15201 392.603077 
L 110.371563 410.146842 
L 110.591116 411.966116 
L 110.810669 325.885244 
L 111.030223 503.106582 
L 111.469329 295.314576 
L 112.127988 503.470112 
L 112.347541 428.437101 
L 112.567095 437.380898 
L 112.786648 420.736781 
L 113.006201 308.536015 
L 113.225754 518.512478 
L 113.445307 375.4195 
L 113.66486 357.078538 
L 113.884414 439.912329 
L 114.103967 401.919978 
L 114.543073 505.938412 
L 114.762626 305.924903 
L 114.982179 410.869985 
L 115.201732 370.208572 
L 115.421286 492.465436 
L 115.640839 466.529361 
L 115.860392 503.313174 
L 116.079945 459.252763 
L 116.299498 386.234576 
L 116.519051 363.829518 
L 116.738605 376.234264 
L 116.958158 475.710737 
L 117.177711 464.87905 
L 117.397264 310.56094 
L 117.616817 281.995387 
L 117.83637 509.199507 
L 118.49503 281.327221 
L 118.714583 396.846372 
L 118.934136 440.555141 
L 119.153689 356.81579 
L 119.373242 428.84782 
L 119.812349 341.21685 
L 120.031902 456.25514 
L 120.251455 333.212618 
L 120.471008 492.552627 
L 120.910114 363.837177 
L 121.349221 492.382441 
L 121.568774 381.003632 
L 121.788327 327.523029 
L 122.227433 508.267591 
L 122.446987 418.324117 
L 122.66654 396.383184 
L 122.886093 493.16794 
L 123.105646 425.342668 
L 123.325199 462.011347 
L 123.764305 304.59666 
L 123.983859 448.596882 
L 124.203412 372.457806 
L 124.422965 494.427576 
L 124.642518 411.282123 
L 124.862071 453.139783 
L 125.081624 423.192086 
L 125.301178 526.978931 
L 125.520731 482.708508 
L 125.740284 326.650132 
L 125.959837 431.187325 
L 126.17939 320.009047 
L 126.398943 381.123502 
L 126.618496 364.064463 
L 126.83805 414.659832 
L 127.057603 493.544373 
L 127.277156 420.255671 
L 127.496709 495.983125 
L 127.716262 532.417754 
L 127.935815 421.833559 
L 128.155369 542.491516 
L 128.594475 480.333468 
L 128.814028 352.948497 
L 129.253134 519.493394 
L 129.692241 329.631236 
L 129.911794 336.465253 
L 130.131347 395.429016 
L 130.3509 490.596849 
L 130.570453 375.131882 
L 130.790006 417.595986 
L 131.00956 395.980692 
L 131.229113 471.765604 
L 131.448666 340.11402 
L 131.668219 472.270949 
L 131.887772 439.119135 
L 132.107325 351.809332 
L 132.326878 418.860932 
L 132.985538 471.19068 
L 133.205091 316.240825 
L 133.424644 532.815479 
L 133.644197 349.390075 
L 133.863751 472.342499 
L 134.083304 367.997382 
L 134.302857 460.386147 
L 134.52241 402.098637 
L 134.741963 425.918354 
L 134.961516 242.932834 
L 135.181069 519.695509 
L 135.400623 338.131014 
L 135.839729 476.752906 
L 136.059282 314.958182 
L 136.278835 364.709245 
L 136.498388 455.140324 
L 136.717941 288.677254 
L 136.937495 419.78773 
L 137.157048 405.292534 
L 137.376601 301.55253 
L 137.596154 409.629 
L 137.815707 381.105887 
L 138.03526 483.092245 
L 138.254814 457.354927 
L 138.474367 394.165475 
L 138.69392 482.296752 
L 138.913473 423.131234 
L 139.133026 286.83868 
L 139.352579 465.858924 
L 139.791686 339.181957 
L 140.011239 432.983456 
L 140.230792 449.928553 
L 140.669898 342.365835 
L 140.889451 228.006015 
L 141.109005 417.374661 
L 141.328558 346.696242 
L 141.548111 396.285133 
L 141.767664 480.956793 
L 141.987217 323.780704 
L 142.20677 436.170947 
L 142.426323 443.510499 
L 142.645877 339.248253 
L 142.86543 429.738814 
L 143.084983 350.244754 
L 143.304536 494.024957 
L 143.524089 486.412491 
L 143.743642 331.032694 
L 143.963196 433.151495 
L 144.182749 305.646073 
L 144.402302 431.882689 
L 144.621855 474.754779 
L 144.841408 326.66844 
L 145.060961 310.456426 
L 145.280514 443.430411 
L 145.500068 384.781019 
L 145.719621 375.303595 
L 145.939174 324.13199 
L 146.158727 490.934305 
L 146.37828 555.438917 
L 146.597833 344.814193 
L 147.03694 396.582252 
L 147.256493 395.421553 
L 147.476046 475.578379 
L 147.915152 387.586794 
L 148.134705 383.11433 
L 148.354259 473.297893 
L 148.573812 318.167565 
L 148.793365 455.58287 
L 149.232471 334.881658 
L 149.452024 437.152367 
L 149.671578 249.770517 
L 149.891131 310.719868 
L 150.110684 320.60106 
L 150.330237 280.300773 
L 150.54979 326.60685 
L 150.769343 402.909286 
L 150.988896 397.762144 
L 151.428003 496.965813 
L 151.647556 463.818911 
L 151.867109 476.754977 
L 152.086662 501.941799 
L 152.306215 364.477208 
L 152.525769 457.400903 
L 152.745322 331.190296 
L 152.964875 493.7734 
L 153.184428 457.890474 
L 153.403981 352.980355 
L 153.623534 357.186695 
L 153.843087 392.655208 
L 154.062641 306.117451 
L 154.501747 501.088737 
L 154.7213 392.044626 
L 154.940853 367.599606 
L 155.160406 371.890186 
L 155.37996 513.56591 
L 155.599513 400.397604 
L 155.819066 478.709622 
L 156.038619 393.490044 
L 156.258172 414.629178 
L 156.477725 379.79688 
L 156.697278 389.529749 
L 156.916832 411.568484 
L 157.136385 382.854131 
L 157.355938 460.835471 
L 157.575491 385.949211 
L 157.795044 386.075253 
L 158.014597 439.018889 
L 158.234151 556.687517 
L 158.453704 416.210818 
L 158.673257 408.016969 
L 158.89281 274.165613 
L 159.112363 416.858041 
L 159.331916 389.731464 
L 159.551469 502.446807 
L 159.771023 473.616445 
L 159.990576 459.577958 
L 160.210129 396.303441 
L 160.429682 411.174782 
L 160.649235 452.030231 
L 161.088342 356.993213 
L 161.307895 401.552888 
L 161.527448 357.32982 
L 161.747001 429.448418 
L 161.966554 419.319125 
L 162.186107 370.331158 
L 162.40566 453.693393 
L 162.844767 372.239644 
L 163.06432 435.650438 
L 163.283873 362.641947 
L 163.503426 332.57319 
L 163.942532 464.078213 
L 164.162086 336.114205 
L 164.381639 422.234543 
L 164.601192 447.67624 
L 164.820745 498.286305 
L 165.479405 402.846416 
L 165.698958 321.491958 
L 166.138064 524.944167 
L 166.357617 481.693784 
L 166.57717 349.753427 
L 166.796723 450.407043 
L 167.23583 317.459554 
L 167.455383 436.961153 
L 167.674936 447.846682 
L 167.894489 409.068173 
L 168.114042 424.681233 
L 168.333596 404.1849 
L 168.553149 433.162764 
L 168.772702 423.033143 
L 168.992255 372.018281 
L 169.211808 360.534481 
L 169.431361 455.055188 
L 169.650914 161.400328 
L 169.870468 434.400532 
L 170.090021 396.521554 
L 170.309574 288.447574 
L 170.529127 455.586708 
L 170.968233 477.151117 
L 171.187787 402.102549 
L 171.40734 442.995257 
L 171.626893 529.300066 
L 171.846446 359.890822 
L 172.065999 429.212673 
L 172.505105 342.281455 
L 172.724659 359.104003 
L 172.944212 346.061579 
L 173.163765 490.6782 
L 173.383318 284.032956 
L 173.602871 473.622871 
L 173.822424 357.156098 
L 174.041978 384.621085 
L 174.261531 489.688374 
L 174.481084 455.036745 
L 174.700637 365.474562 
L 174.92019 457.84463 
L 175.139743 503.159354 
L 175.359296 389.822418 
L 175.57885 395.515433 
L 175.798403 323.057141 
L 176.017956 362.251895 
L 176.237509 467.040194 
L 176.457062 404.10866 
L 176.676615 477.17275 
L 177.115722 331.38428 
L 177.335275 500.156952 
L 177.554828 466.206207 
L 177.774381 400.267791 
L 177.993934 504.969688 
L 178.213487 419.474386 
L 178.433041 525.767678 
L 178.652594 436.710316 
L 178.872147 415.000259 
L 179.0917 369.310987 
L 179.311253 494.463381 
L 179.530806 408.502854 
L 179.75036 402.329569 
L 179.969913 374.072413 
L 180.189466 464.17633 
L 180.409019 411.697011 
L 180.628572 433.076835 
L 180.848125 470.255798 
L 181.067678 364.825308 
L 181.287232 412.972432 
L 181.506785 395.73302 
L 181.726338 271.370195 
L 181.945891 306.545359 
L 182.165444 432.21182 
L 182.384997 321.038495 
L 182.604551 356.474642 
L 182.824104 329.96477 
L 183.043657 326.890284 
L 183.26321 373.370631 
L 183.482763 387.311852 
L 183.702316 277.852865 
L 184.141423 500.362958 
L 184.360976 441.87742 
L 184.800082 478.418063 
L 185.019635 373.442947 
L 185.239188 388.92609 
L 185.458742 329.153477 
L 185.678295 501.107187 
L 186.117401 360.490998 
L 186.336954 407.916192 
L 186.556507 368.810112 
L 186.77606 378.974241 
L 186.995614 331.314574 
L 187.215167 342.616437 
L 187.654273 506.257703 
L 187.873826 369.887477 
L 188.093379 433.693943 
L 188.312932 371.142404 
L 188.532486 431.145436 
L 188.752039 330.525387 
L 188.971592 360.64106 
L 189.191145 458.703335 
L 189.410698 375.828778 
L 189.849805 467.817918 
L 190.069358 415.907364 
L 190.288911 392.093807 
L 190.508464 342.524601 
L 190.94757 465.182763 
L 191.167123 341.877946 
L 191.386677 428.30954 
L 191.60623 431.418595 
L 191.825783 418.053626 
L 192.045336 215.718137 
L 192.264889 259.946697 
L 192.484442 468.615702 
L 192.703996 317.478892 
L 192.923549 432.833239 
L 193.143102 357.401987 
L 193.362655 424.499388 
L 193.582208 437.01257 
L 193.801761 474.880292 
L 194.021314 401.556905 
L 194.240868 513.116062 
L 194.460421 460.944637 
L 194.679974 365.006244 
L 194.899527 413.260373 
L 195.11908 509.690211 
L 195.338633 292.157632 
L 195.558187 424.003098 
L 195.77774 343.024258 
L 195.997293 453.562215 
L 196.436399 332.42407 
L 196.655952 499.459545 
L 196.875505 296.062503 
L 197.095059 405.659064 
L 197.314612 411.481655 
L 197.534165 340.779313 
L 197.753718 474.924573 
L 197.973271 360.747144 
L 198.192824 467.77307 
L 198.412378 434.322838 
L 198.851484 239.14462 
L 199.29059 465.22097 
L 199.510143 411.335929 
L 199.729696 420.726601 
L 199.94925 526.031923 
L 200.168803 326.399221 
L 200.388356 471.449238 
L 200.607909 501.178122 
L 200.827462 437.661865 
L 201.047015 418.161512 
L 201.266569 418.306943 
L 201.486122 391.970726 
L 201.705675 506.281193 
L 201.925228 410.479186 
L 202.144781 364.092745 
L 202.364334 472.138778 
L 202.583887 398.980806 
L 202.803441 454.699382 
L 203.022994 481.750192 
L 203.242547 399.698143 
L 203.4621 470.088183 
L 203.681653 447.625004 
L 203.901206 412.826386 
L 204.12076 418.08117 
L 204.340313 376.64883 
L 204.559866 358.976853 
L 204.779419 533.447904 
L 204.998972 358.700255 
L 205.218525 455.49287 
L 205.657632 363.952769 
L 205.877185 461.38134 
L 206.096738 356.434617 
L 206.316291 320.382077 
L 206.535844 366.43079 
L 206.755397 276.740216 
L 206.974951 398.093913 
L 207.194504 387.214784 
L 207.414057 335.2154 
L 207.63361 448.014238 
L 207.853163 442.987943 
L 208.072716 317.384375 
L 208.292269 461.513462 
L 208.511823 472.992638 
L 208.731376 401.80714 
L 208.950929 400.169723 
L 209.170482 452.322678 
L 209.390035 416.955869 
L 209.609588 482.745476 
L 209.829142 386.211265 
L 210.048695 376.730015 
L 210.268248 442.082596 
L 210.487801 436.819309 
L 210.707354 178.061406 
L 210.926907 434.186578 
L 211.14646 329.998244 
L 211.366014 438.430251 
L 211.585567 395.488896 
L 211.80512 405.289919 
L 212.024673 289.947891 
L 212.244226 418.385432 
L 212.463779 434.233902 
L 212.683333 312.92331 
L 212.902886 434.133007 
L 213.341992 194.071524 
L 213.561545 464.949824 
L 213.781098 331.047616 
L 214.000651 431.204449 
L 214.220205 433.829629 
L 214.439758 422.007697 
L 214.659311 344.049504 
L 215.098417 375.391663 
L 215.31797 471.180281 
L 215.757077 407.669982 
L 215.97663 446.907434 
L 216.415736 344.318713 
L 216.635289 383.499725 
L 216.854842 393.774601 
L 217.074396 417.482876 
L 217.293949 509.529312 
L 217.733055 391.475126 
L 217.952608 409.267737 
L 218.172161 408.93695 
L 218.391714 455.380801 
L 218.611268 446.88412 
L 218.830821 319.270941 
L 219.050374 476.414545 
L 219.269927 411.966003 
L 219.48948 562.71335 
L 219.709033 467.142782 
L 219.928587 314.603484 
L 220.14814 452.586775 
L 220.367693 466.823505 
L 221.026352 343.241527 
L 221.245905 421.972289 
L 221.465459 297.079994 
L 221.685012 458.759825 
L 222.124118 423.796563 
L 222.343671 424.157414 
L 222.563224 419.782386 
L 222.782778 383.610614 
L 223.002331 458.343992 
L 223.221884 467.327741 
L 223.441437 381.517674 
L 223.66099 382.08171 
L 224.31965 469.674627 
L 224.758756 366.205858 
L 224.978309 537.323327 
L 225.197862 397.965333 
L 225.417415 419.914861 
L 225.636969 399.924534 
L 225.856522 433.388788 
L 226.076075 406.505856 
L 226.295628 466.626031 
L 226.515181 380.592476 
L 226.954287 537.068165 
L 227.173841 312.940176 
L 227.393394 479.969664 
L 227.612947 495.494396 
L 227.8325 398.033249 
L 228.052053 443.204717 
L 228.271606 309.776696 
L 228.49116 343.153011 
L 228.710713 410.410929 
L 228.930266 374.22363 
L 229.149819 438.413217 
L 229.369372 355.299038 
L 229.588925 395.344269 
L 229.808478 280.027718 
L 230.028032 445.200082 
L 230.247585 408.162807 
L 230.467138 456.753947 
L 230.686691 415.817049 
L 230.906244 426.480025 
L 231.345351 328.559173 
L 231.564904 497.029727 
L 232.00401 352.981068 
L 232.223563 464.780033 
L 232.443116 320.01018 
L 232.662669 393.155995 
L 232.882223 518.775207 
L 233.101776 429.465078 
L 233.540882 381.955459 
L 233.760435 380.06262 
L 233.979988 389.942331 
L 234.199542 379.337137 
L 234.419095 507.159784 
L 234.858201 212.271874 
L 235.077754 468.389067 
L 235.297307 357.164883 
L 235.51686 500.929516 
L 235.736414 324.852532 
L 236.17552 335.869489 
L 236.395073 371.523367 
L 236.614626 448.998431 
L 236.834179 457.657101 
L 237.053733 385.62499 
L 237.273286 415.583682 
L 237.492839 306.299065 
L 237.712392 550.768484 
L 237.931945 492.709994 
L 238.151498 475.157314 
L 238.371051 493.821188 
L 238.590605 301.259775 
L 238.810158 321.897294 
L 239.029711 423.985289 
L 239.249264 441.524745 
L 239.468817 435.038182 
L 239.68837 384.808597 
L 239.907924 471.207684 
L 240.34703 361.87379 
L 240.566583 453.359902 
L 240.786136 421.764412 
L 241.005689 509.328394 
L 241.444796 363.360991 
L 241.664349 448.669778 
L 241.883902 396.747945 
L 242.323008 499.682525 
L 242.542561 464.873209 
L 242.981668 339.834782 
L 243.201221 476.165594 
L 243.420774 227.111051 
L 243.640327 436.384681 
L 243.85988 309.863457 
L 244.079433 375.690671 
L 244.298987 271.949461 
L 244.51854 392.769226 
L 244.738093 386.488289 
L 244.957646 405.894437 
L 245.177199 379.064014 
L 245.616305 463.901138 
L 245.835859 354.740409 
L 246.055412 517.884949 
L 246.274965 488.99129 
L 246.494518 487.432159 
L 246.714071 369.148512 
L 246.933624 474.913672 
L 247.153178 388.476782 
L 247.372731 428.292 
L 247.811837 269.981488 
L 248.03139 445.900351 
L 248.250943 397.74155 
L 248.470496 392.59788 
L 248.69005 421.436374 
L 248.909603 330.576521 
L 249.348709 505.41987 
L 249.568262 503.419598 
L 249.787815 406.955512 
L 250.007369 432.139957 
L 250.226922 359.961547 
L 250.446475 387.355445 
L 250.666028 390.024478 
L 250.885581 460.880659 
L 251.105134 472.130869 
L 251.324687 411.101263 
L 251.544241 420.146322 
L 251.763794 207.347936 
L 251.983347 503.74078 
L 252.2029 446.45013 
L 252.422453 458.312229 
L 252.642006 360.846059 
L 252.86156 355.04018 
L 253.081113 402.416562 
L 253.300666 422.712543 
L 253.520219 380.204382 
L 253.739772 477.579429 
L 253.959325 442.888931 
L 254.178878 354.572002 
L 254.398432 317.630805 
L 254.617985 536.068568 
L 254.837538 397.593979 
L 255.057091 454.60135 
L 255.276644 338.841384 
L 255.496197 445.81399 
L 255.715751 451.858922 
L 255.935304 337.398543 
L 256.154857 507.424902 
L 256.37441 532.124511 
L 256.593963 401.700063 
L 256.813516 458.771881 
L 257.033069 464.642055 
L 257.252623 442.818592 
L 257.472176 209.187931 
L 257.911282 469.7131 
L 258.130835 450.482078 
L 258.350388 483.226066 
L 258.569942 368.362337 
L 258.789495 441.613394 
L 259.009048 394.504745 
L 259.228601 455.260214 
L 259.448154 461.581519 
L 259.667707 349.115171 
L 259.88726 443.116607 
L 260.106814 391.520897 
L 260.326367 441.975501 
L 260.54592 389.457161 
L 260.765473 388.536691 
L 260.985026 408.482288 
L 261.204579 401.51247 
L 261.424133 492.040185 
L 261.643686 345.729332 
L 261.863239 397.512446 
L 262.082792 514.893429 
L 262.302345 462.9424 
L 262.741451 340.890746 
L 262.961005 403.57057 
L 263.180558 372.082207 
L 263.400111 403.168985 
L 263.619664 495.823477 
L 263.839217 382.027469 
L 264.05877 503.080486 
L 264.278324 477.582799 
L 264.71743 412.250258 
L 264.936983 455.530533 
L 265.156536 410.582607 
L 265.376089 445.768842 
L 265.595642 429.184741 
L 265.815196 234.877258 
L 266.034749 445.710973 
L 266.254302 427.345419 
L 266.473855 419.990827 
L 266.693408 451.891877 
L 266.912961 509.514828 
L 267.132514 451.974372 
L 267.352068 439.810716 
L 267.571621 455.74401 
L 267.791174 447.488417 
L 268.010727 512.299929 
L 268.23028 358.57638 
L 268.449833 389.728828 
L 268.669387 493.06157 
L 268.88894 340.082776 
L 269.108493 283.432607 
L 269.328046 397.379411 
L 269.547599 316.080928 
L 269.986705 463.612025 
L 270.425812 492.783812 
L 270.645365 472.765635 
L 270.864918 313.883282 
L 271.084471 476.344763 
L 271.304024 336.601938 
L 271.523578 379.356359 
L 271.743131 456.59625 
L 271.962684 359.571344 
L 272.182237 370.674446 
L 272.40179 407.895813 
L 272.621343 486.359363 
L 273.06045 325.684238 
L 273.280003 397.221355 
L 273.499556 268.291726 
L 273.719109 369.25281 
L 273.938662 388.949164 
L 274.158215 461.09327 
L 274.377769 448.580894 
L 274.597322 388.192415 
L 274.816875 390.177703 
L 275.036428 428.591316 
L 275.255981 544.934256 
L 275.695087 247.686171 
L 275.914641 459.871476 
L 276.134194 321.533664 
L 276.353747 414.907867 
L 276.5733 381.334789 
L 276.792853 265.871516 
L 277.012406 463.785763 
L 277.23196 359.823427 
L 277.451513 450.260671 
L 277.671066 459.514399 
L 277.890619 439.03649 
L 278.110172 473.761317 
L 278.329725 223.959832 
L 278.549278 425.654284 
L 278.768832 448.842586 
L 278.988385 494.092965 
L 279.207938 299.279673 
L 279.427491 379.916348 
L 279.647044 354.395573 
L 279.866597 474.216724 
L 280.086151 437.689439 
L 280.305704 423.394849 
L 280.525257 433.116541 
L 280.74481 433.903595 
L 280.964363 453.64024 
L 281.183916 502.83233 
L 281.403469 470.901881 
L 281.623023 467.480223 
L 281.842576 433.50698 
L 282.062129 490.63813 
L 282.281682 377.544211 
L 282.501235 392.625237 
L 282.720788 450.08156 
L 282.940342 418.830256 
L 283.159895 367.688865 
L 283.379448 378.234403 
L 283.599001 452.882347 
L 283.818554 438.401521 
L 284.038107 541.627041 
L 284.477214 366.468934 
L 284.696767 492.796237 
L 284.91632 355.732469 
L 285.135873 321.504615 
L 285.355426 448.852642 
L 285.574979 357.2406 
L 285.794533 516.813084 
L 286.014086 371.885865 
L 286.233639 443.77247 
L 286.453192 419.451144 
L 286.672745 415.918336 
L 286.892298 436.420695 
L 287.111851 402.873638 
L 287.331405 457.582995 
L 287.550958 431.580165 
L 287.770511 442.214081 
L 287.990064 399.367343 
L 288.209617 382.415775 
L 288.42917 379.852362 
L 288.868277 504.538642 
L 289.08783 436.210316 
L 289.307383 491.982436 
L 289.526936 374.576619 
L 289.746489 517.585706 
L 289.966042 352.387757 
L 290.185596 389.688338 
L 290.405149 493.411067 
L 290.624702 358.888014 
L 290.844255 443.997375 
L 291.063808 445.584486 
L 291.283361 363.736969 
L 291.502915 469.821599 
L 292.161574 321.102477 
L 292.60068 436.266681 
L 292.820233 418.068877 
L 293.039787 418.382244 
L 293.25934 444.180348 
L 293.478893 336.380929 
L 293.917999 493.313416 
L 294.137552 407.778417 
L 294.357105 419.337104 
L 294.576659 516.232319 
L 294.796212 404.713455 
L 295.015765 436.637074 
L 295.235318 356.86306 
L 295.454871 412.498232 
L 295.893978 369.206261 
L 296.113531 388.653398 
L 296.333084 344.35871 
L 296.77219 372.729346 
L 296.991743 467.062839 
L 297.211296 435.75289 
L 297.43085 468.720531 
L 297.650403 193.861765 
L 297.869956 427.686732 
L 298.089509 385.75151 
L 298.309062 381.753389 
L 298.528615 394.846706 
L 298.748169 365.492161 
L 298.967722 475.27343 
L 299.187275 393.702987 
L 299.406828 524.845786 
L 299.626381 408.580956 
L 299.845934 415.18879 
L 300.065487 454.63756 
L 300.285041 420.101131 
L 300.724147 485.40016 
L 300.9437 284.967024 
L 301.163253 247.511076 
L 301.382806 380.990907 
L 301.60236 298.901678 
L 301.821913 361.665698 
L 302.041466 228.07412 
L 302.261019 426.513555 
L 302.480572 391.58577 
L 302.700125 389.432778 
L 302.919678 359.221429 
L 303.139232 428.174009 
L 303.358785 388.518359 
L 303.578338 404.232701 
L 303.797891 360.120042 
L 304.236997 463.179611 
L 304.676104 263.735345 
L 304.895657 389.299194 
L 305.11521 382.946267 
L 305.334763 372.323997 
L 305.554316 303.680787 
L 305.773869 538.184251 
L 305.993423 305.728155 
L 306.212976 428.225339 
L 306.432529 410.36975 
L 306.652082 320.334403 
L 307.091188 521.76929 
L 307.310742 448.430689 
L 307.530295 491.934957 
L 307.969401 285.740539 
L 308.188954 513.085714 
L 308.408507 407.326683 
L 308.62806 459.043318 
L 308.847614 392.710428 
L 309.067167 490.243241 
L 309.28672 304.074206 
L 309.506273 453.310269 
L 309.725826 394.889653 
L 309.945379 430.089275 
L 310.384486 346.551915 
L 311.043145 489.758429 
L 311.262698 389.783333 
L 311.482251 449.306665 
L 311.701805 327.221508 
L 312.140911 478.199737 
L 312.580017 304.850656 
L 312.79957 406.216887 
L 313.019124 325.74276 
L 313.238677 458.231812 
L 313.45823 521.449761 
L 313.677783 352.236138 
L 313.897336 478.054307 
L 314.116889 405.127038 
L 314.336442 400.867218 
L 314.555996 439.857255 
L 314.775549 436.264011 
L 315.214655 392.46664 
L 315.434208 311.061328 
L 315.653761 306.435303 
L 315.873315 412.256394 
L 316.092868 402.378054 
L 316.312421 416.523154 
L 316.531974 441.270062 
L 316.751527 413.973394 
L 316.97108 554.329717 
L 317.190633 413.429734 
L 317.410187 386.056908 
L 317.62974 426.515929 
L 317.849293 382.020555 
L 318.068846 419.713523 
L 318.288399 299.602896 
L 318.507952 433.95176 
L 318.727506 418.017975 
L 318.947059 419.764981 
L 319.386165 496.345458 
L 319.605718 460.81864 
L 319.825271 394.662363 
L 320.044824 382.307776 
L 320.264378 479.276235 
L 320.483931 419.127019 
L 320.703484 434.460358 
L 320.923037 461.14291 
L 321.14259 369.391405 
L 321.362143 358.119468 
L 321.581696 384.697164 
L 321.80125 349.831544 
L 322.020803 233.434426 
L 322.240356 378.9473 
L 322.459909 336.305425 
L 322.679462 410.858771 
L 322.899015 294.617338 
L 323.338122 483.285508 
L 323.557675 435.970961 
L 323.777228 473.024271 
L 323.996781 374.623452 
L 324.216334 434.742345 
L 324.655441 383.324499 
L 324.874994 484.672046 
L 325.094547 332.466995 
L 325.3141 484.284373 
L 325.533653 481.565338 
L 325.753206 389.942048 
L 325.97276 413.308905 
L 326.192313 460.708025 
L 326.411866 430.190012 
L 326.631419 447.897295 
L 326.850972 403.330375 
L 327.070525 472.619167 
L 327.290078 377.345587 
L 327.509632 473.633077 
L 327.729185 420.513287 
L 327.948738 448.473886 
L 328.168291 383.428776 
L 328.387844 386.125778 
L 328.607397 409.929039 
L 328.826951 455.744101 
L 329.046504 464.104305 
L 329.266057 324.198604 
L 329.48561 491.892251 
L 329.705163 333.198753 
L 329.924716 416.24333 
L 330.144269 407.989497 
L 330.363823 464.996672 
L 330.583376 406.017892 
L 330.802929 404.510691 
L 331.022482 316.066667 
L 331.242035 349.558558 
L 331.461588 447.579008 
L 331.900695 370.740144 
L 332.120248 392.966199 
L 332.339801 370.098629 
L 332.559354 449.096983 
L 332.778907 362.134971 
L 332.99846 355.012118 
L 333.218014 421.577288 
L 333.65712 464.461658 
L 333.876673 277.314605 
L 334.096226 363.805019 
L 334.315779 359.929238 
L 334.535333 430.382153 
L 334.754886 427.658311 
L 334.974439 302.521954 
L 335.193992 472.140828 
L 335.413545 424.764138 
L 335.633098 437.40181 
L 335.852651 406.081051 
L 336.072205 392.335073 
L 336.291758 462.372935 
L 336.511311 464.301564 
L 336.730864 474.887695 
L 336.950417 323.348848 
L 337.389524 406.591139 
L 337.609077 409.454692 
L 337.82863 374.036669 
L 338.048183 440.008959 
L 338.267736 427.534091 
L 338.487289 404.118205 
L 338.706842 431.286233 
L 338.926396 414.469609 
L 339.145949 364.027563 
L 339.365502 353.454119 
L 340.024161 486.443691 
L 340.463268 372.199302 
L 340.682821 509.480207 
L 340.902374 385.018174 
L 341.121927 467.875057 
L 341.34148 404.217739 
L 341.561033 455.24875 
L 342.219693 370.492213 
L 342.439246 461.342532 
L 342.658799 391.233422 
L 342.878352 471.086819 
L 343.097906 475.93906 
L 343.317459 445.188033 
L 343.537012 436.115851 
L 343.756565 491.198006 
L 344.195671 379.011444 
L 344.415224 425.829205 
L 344.634778 309.210175 
L 344.854331 472.514786 
L 345.073884 432.659157 
L 345.293437 303.547382 
L 345.51299 347.035585 
L 345.732543 457.726011 
L 345.952096 477.649051 
L 346.17165 475.972438 
L 346.391203 480.655729 
L 346.610756 457.416243 
L 347.049862 386.466427 
L 347.269415 368.198325 
L 347.488969 415.217915 
L 347.708522 491.349333 
L 347.928075 428.599764 
L 348.147628 562.334694 
L 348.367181 380.415007 
L 348.586734 457.331194 
L 348.806287 452.30409 
L 349.025841 451.683834 
L 349.245394 485.028828 
L 349.464947 296.181433 
L 349.6845 509.135261 
L 349.904053 365.458339 
L 350.123606 361.616278 
L 350.34316 431.740304 
L 350.562713 446.492558 
L 350.782266 352.895695 
L 351.001819 427.671149 
L 351.221372 439.749898 
L 351.440925 414.259138 
L 351.660478 330.445809 
L 351.880032 316.798415 
L 352.099585 470.237153 
L 352.319138 393.278517 
L 352.538691 581.38839 
L 352.758244 360.812809 
L 352.977797 519.156771 
L 353.416904 432.275119 
L 353.636457 401.149674 
L 353.85601 450.690208 
L 354.075563 409.017579 
L 354.295116 398.998288 
L 354.514669 439.842955 
L 354.734223 363.748694 
L 354.953776 215.703554 
L 355.173329 421.870584 
L 355.392882 355.037222 
L 355.612435 410.738801 
L 356.051542 449.107903 
L 356.271095 388.427718 
L 356.490648 453.895152 
L 356.710201 383.464989 
L 356.929754 525.351007 
L 357.149307 413.054138 
L 357.36886 494.806859 
L 357.807967 303.510404 
L 358.02752 550.684305 
L 358.686179 418.610894 
L 358.905733 442.647578 
L 359.125286 301.811941 
L 359.344839 434.390165 
L 359.564392 412.973813 
L 360.003498 484.405946 
L 360.223051 399.750698 
L 360.662158 350.474092 
L 360.881711 353.074028 
L 361.101264 416.614876 
L 361.320817 326.051154 
L 361.759924 422.345269 
L 361.979477 334.664047 
L 362.19903 445.968276 
L 362.418583 315.183475 
L 362.638136 388.472032 
L 362.857689 516.693769 
L 363.077242 475.004752 
L 363.296796 472.811209 
L 363.516349 400.746899 
L 363.735902 367.29565 
L 363.955455 487.065348 
L 364.175008 335.438641 
L 364.394561 344.197181 
L 364.833668 490.935989 
L 365.053221 407.184753 
L 365.272774 417.966759 
L 365.492327 317.971415 
L 365.71188 294.233831 
L 365.931433 434.369371 
L 366.150987 377.332666 
L 366.590093 438.839284 
L 367.029199 477.407079 
L 367.248752 464.11443 
L 367.468306 334.519482 
L 367.687859 448.795605 
L 367.907412 419.771211 
L 368.126965 306.289471 
L 368.346518 320.641082 
L 368.566071 492.762253 
L 368.785624 450.926603 
L 369.005178 454.774413 
L 369.224731 466.397103 
L 369.444284 423.145125 
L 369.88339 474.150686 
L 370.322497 326.620936 
L 370.761603 541.40782 
L 370.981156 519.036258 
L 371.200709 354.288255 
L 371.639815 474.271889 
L 371.859369 336.903507 
L 372.078922 434.433257 
L 372.298475 290.041216 
L 372.518028 465.64508 
L 372.737581 414.115697 
L 372.957134 441.35889 
L 373.176687 416.07296 
L 373.396241 415.121059 
L 373.615794 288.317405 
L 373.835347 381.641602 
L 374.274453 421.642879 
L 374.494006 459.221995 
L 374.71356 343.876241 
L 374.933113 392.293709 
L 375.152666 399.670533 
L 375.372219 402.498102 
L 375.591772 472.422191 
L 375.811325 467.495484 
L 376.030878 400.180677 
L 376.250432 371.511794 
L 376.469985 418.466039 
L 376.689538 328.94357 
L 376.909091 392.398194 
L 377.128644 402.601538 
L 377.348197 367.897491 
L 377.567751 424.771784 
L 377.787304 282.037125 
L 378.22641 439.074481 
L 378.445963 454.104208 
L 378.885069 387.943167 
L 379.104623 411.506066 
L 379.324176 288.599497 
L 379.543729 307.367902 
L 379.763282 479.324821 
L 379.982835 339.146756 
L 380.202388 469.381833 
L 380.421942 390.474108 
L 380.641495 420.579859 
L 380.861048 466.226109 
L 381.080601 370.486146 
L 381.300154 467.29327 
L 381.519707 295.065718 
L 381.73926 402.550582 
L 382.178367 485.560816 
L 382.39792 468.549791 
L 382.617473 400.603525 
L 382.837026 472.687585 
L 383.056579 367.066544 
L 383.276133 356.464324 
L 383.495686 388.81207 
L 383.715239 353.397312 
L 383.934792 390.105873 
L 384.154345 488.514407 
L 384.373898 450.915636 
L 384.593451 292.828707 
L 385.252111 433.406798 
L 385.471664 381.882276 
L 385.691217 446.676441 
L 385.91077 408.457144 
L 386.130324 333.002809 
L 386.349877 419.050197 
L 386.56943 406.146714 
L 386.788983 504.669741 
L 387.008536 505.043801 
L 387.228089 366.740601 
L 387.447642 427.898096 
L 387.667196 392.728725 
L 388.106302 461.847696 
L 388.325855 305.729768 
L 388.545408 343.145277 
L 388.764961 333.76863 
L 388.984515 362.480989 
L 389.204068 456.300649 
L 389.643174 322.381412 
L 389.862727 453.534956 
L 390.08228 349.514657 
L 390.301833 351.874285 
L 390.521387 364.338676 
L 390.74094 470.2826 
L 390.960493 431.705122 
L 391.180046 455.573378 
L 391.399599 386.885711 
L 391.619152 379.085667 
L 391.838706 383.32909 
L 392.058259 131.956182 
L 392.277812 448.598927 
L 392.497365 450.228581 
L 392.716918 351.079502 
L 392.936471 448.917419 
L 393.375578 317.522497 
L 393.595131 462.604908 
L 393.814684 431.648117 
L 394.034237 419.10463 
L 394.25379 423.324443 
L 394.473343 439.229318 
L 394.692897 420.767566 
L 394.91245 382.238509 
L 395.351556 434.461198 
L 395.571109 429.839476 
L 395.790662 440.961035 
L 396.010215 268.440396 
L 396.229769 290.398683 
L 396.449322 409.2949 
L 396.668875 331.232884 
L 396.888428 369.929278 
L 397.327534 395.273338 
L 397.547087 361.992237 
L 397.986194 444.121591 
L 398.205747 312.282955 
L 398.4253 352.882818 
L 398.644853 442.923728 
L 398.864406 375.877343 
L 399.08396 490.727239 
L 399.523066 324.546056 
L 400.181725 470.315771 
L 400.401278 442.131847 
L 400.620832 477.868356 
L 400.840385 295.526656 
L 401.279491 404.93741 
L 401.499044 412.621129 
L 401.718597 369.43642 
L 401.938151 464.920184 
L 402.157704 346.763235 
L 402.377257 418.542364 
L 402.59681 450.798293 
L 402.816363 315.161168 
L 403.035916 437.433812 
L 403.255469 338.355016 
L 403.475023 302.496511 
L 403.694576 467.339034 
L 403.914129 383.538369 
L 404.133682 473.152371 
L 404.353235 433.296639 
L 404.572788 431.62516 
L 404.792342 542.009485 
L 405.011895 218.662083 
L 405.231448 489.35173 
L 405.451001 311.740478 
L 405.670554 360.068891 
L 405.890107 275.754845 
L 406.10966 336.038737 
L 406.329214 456.249141 
L 406.548767 491.175246 
L 406.76832 398.055264 
L 406.987873 407.639274 
L 407.207426 339.232691 
L 407.426979 421.253234 
L 407.646533 393.842903 
L 407.866086 458.968256 
L 408.085639 462.760932 
L 408.305192 471.068176 
L 408.524745 278.489318 
L 408.744298 408.551955 
L 408.963851 443.831733 
L 409.183405 376.648234 
L 409.402958 428.80356 
L 409.842064 381.359407 
L 410.061617 447.346697 
L 410.28117 436.184107 
L 410.500724 339.97115 
L 410.720277 399.516233 
L 410.93983 410.38595 
L 411.159383 363.607898 
L 411.378936 416.779639 
L 411.818042 372.939284 
L 412.257149 408.410959 
L 412.476702 404.48269 
L 412.696255 414.927568 
L 412.915808 485.122475 
L 413.135361 479.449044 
L 413.354915 326.965719 
L 413.574468 478.96774 
L 413.794021 379.134756 
L 414.013574 492.010549 
L 414.233127 421.441437 
L 414.45268 435.903904 
L 414.672233 381.58544 
L 414.891787 457.782708 
L 415.11134 464.978692 
L 415.330893 477.476483 
L 415.550446 360.583761 
L 415.769999 372.573453 
L 415.989552 464.428541 
L 416.209106 328.494689 
L 416.428659 508.783243 
L 416.648212 464.227721 
L 416.867765 373.711022 
L 417.087318 433.932627 
L 417.306871 359.834755 
L 417.526424 380.339669 
L 417.745978 366.941027 
L 417.965531 323.166044 
L 418.404637 410.918413 
L 418.62419 384.404133 
L 418.843743 391.324469 
L 419.063297 461.272513 
L 419.28285 463.332025 
L 419.502403 342.987427 
L 419.721956 426.205267 
L 419.941509 456.562139 
L 420.380615 412.45302 
L 420.600169 436.188319 
L 420.819722 410.263241 
L 421.039275 345.907442 
L 421.258828 428.127801 
L 421.478381 459.179266 
L 421.697934 470.087504 
L 421.917488 439.234098 
L 422.137041 365.57544 
L 422.356594 452.511884 
L 422.576147 361.712466 
L 422.7957 455.507657 
L 423.015253 297.608321 
L 423.45436 512.651528 
L 423.893466 370.204346 
L 424.113019 400.714136 
L 424.332572 406.216873 
L 424.552125 342.452521 
L 424.771678 422.520498 
L 424.991232 353.946492 
L 425.210785 434.358137 
L 425.430338 400.091545 
L 425.649891 405.702333 
L 425.869444 358.546238 
L 426.088997 423.392292 
L 426.308551 330.084968 
L 426.528104 422.332492 
L 426.747657 413.859017 
L 426.96721 372.696282 
L 427.186763 401.400748 
L 427.406316 314.591864 
L 427.625869 376.55959 
L 427.845423 526.47307 
L 428.284529 385.340167 
L 428.504082 353.834793 
L 428.723635 385.341451 
L 428.943188 460.35362 
L 429.162742 469.474219 
L 429.382295 375.329141 
L 429.601848 513.154309 
L 429.821401 403.369156 
L 430.040954 377.684372 
L 430.260507 486.291538 
L 430.48006 408.853778 
L 430.699614 389.787797 
L 430.919167 426.639129 
L 431.358273 267.609189 
L 431.577826 541.005347 
L 431.797379 491.652697 
L 432.016933 505.667022 
L 432.236486 382.117666 
L 432.456039 385.511643 
L 432.895145 354.028001 
L 433.114698 462.428734 
L 433.334251 324.138509 
L 433.553805 471.749839 
L 433.773358 318.394762 
L 434.212464 391.811602 
L 434.432017 400.506046 
L 434.65157 395.397692 
L 434.871124 440.935279 
L 435.090677 409.388552 
L 435.31023 336.301138 
L 435.529783 301.270834 
L 435.749336 441.517047 
L 435.968889 411.959331 
L 436.188442 438.487911 
L 436.407996 298.208607 
L 436.627549 407.716454 
L 436.847102 337.858909 
L 437.066655 487.762159 
L 437.286208 290.110847 
L 437.725315 442.669689 
L 437.944868 352.015604 
L 438.164421 323.00563 
L 438.603527 412.750865 
L 438.82308 472.118845 
L 439.042633 391.040403 
L 439.262187 398.465641 
L 439.48174 478.135065 
L 439.701293 298.184853 
L 439.920846 480.033345 
L 440.140399 346.395962 
L 440.359952 312.275863 
L 440.579506 505.864007 
L 441.018612 331.547929 
L 441.238165 460.999792 
L 441.457718 370.427607 
L 441.677271 505.010663 
L 441.896824 429.827285 
L 442.335931 539.615243 
L 442.555484 427.269643 
L 442.775037 385.529862 
L 442.99459 422.674713 
L 443.214143 382.844054 
L 443.433697 443.398732 
L 443.65325 421.818335 
L 443.872803 446.19515 
L 444.092356 388.318472 
L 444.531462 435.807872 
L 444.751015 489.296374 
L 444.970569 482.567359 
L 445.190122 470.440743 
L 445.409675 362.836506 
L 445.629228 380.850774 
L 445.848781 446.246915 
L 446.068334 287.298938 
L 446.287888 446.628238 
L 446.507441 380.749756 
L 446.726994 386.85411 
L 446.946547 422.202724 
L 447.1661 372.461079 
L 447.385653 365.955266 
L 447.605206 376.937624 
L 447.82476 483.281652 
L 448.044313 493.764907 
L 448.263866 437.07661 
L 448.483419 474.781707 
L 448.702972 478.024573 
L 448.922525 381.648276 
L 449.142079 490.892182 
L 449.361632 423.182693 
L 449.581185 486.220636 
L 449.800738 396.503401 
L 450.020291 402.9324 
L 450.239844 360.557739 
L 450.459397 506.727712 
L 450.678951 389.59532 
L 450.898504 381.214828 
L 451.33761 424.072292 
L 451.557163 403.658841 
L 451.776716 333.834319 
L 451.996269 486.799458 
L 452.215823 436.689701 
L 452.435376 460.305949 
L 452.654929 372.702962 
L 452.874482 389.52554 
L 453.094035 476.894154 
L 453.313588 342.12984 
L 453.533142 441.198957 
L 453.752695 456.922333 
L 453.972248 295.639992 
L 454.191801 339.61432 
L 454.411354 443.815333 
L 454.630907 477.237706 
L 454.85046 401.500264 
L 455.070014 444.21397 
L 455.289567 383.763162 
L 455.50912 388.588375 
L 455.728673 501.795241 
L 455.948226 368.869786 
L 456.167779 391.256847 
L 456.387333 315.027359 
L 456.606886 482.693285 
L 456.826439 407.109214 
L 457.265545 363.324508 
L 457.485098 385.251211 
L 457.704651 427.962848 
L 457.924205 419.486659 
L 458.143758 378.741822 
L 458.363311 418.73873 
L 458.582864 489.133838 
L 458.802417 468.540261 
L 459.02197 382.65499 
L 459.241524 370.792119 
L 459.461077 396.914179 
L 459.68063 512.51105 
L 460.119736 335.914969 
L 460.558842 468.561592 
L 460.778396 461.159657 
L 460.997949 402.803101 
L 461.217502 498.65609 
L 461.437055 383.888892 
L 461.656608 460.612992 
L 462.095715 427.157877 
L 462.315268 351.815029 
L 462.534821 469.057213 
L 462.754374 460.054685 
L 462.973927 346.8612 
L 463.19348 491.690268 
L 463.413033 432.610869 
L 463.632587 501.778373 
L 463.85214 318.909859 
L 464.071693 396.187433 
L 464.291246 381.831462 
L 464.510799 336.991944 
L 464.949906 447.710672 
L 465.169459 435.136559 
L 465.389012 508.22538 
L 465.828118 258.558558 
L 466.047671 448.362625 
L 466.267224 314.436577 
L 466.706331 353.610382 
L 466.925884 506.567521 
L 467.145437 334.117207 
L 467.36499 324.448173 
L 467.584543 416.575237 
L 467.804097 438.015744 
L 468.02365 349.88082 
L 468.462756 515.140002 
L 468.682309 468.21664 
L 468.901862 446.023598 
L 469.121415 408.012019 
L 469.340969 293.114779 
L 469.560522 398.208493 
L 469.780075 419.924292 
L 469.999628 375.439712 
L 470.219181 379.576169 
L 470.438734 349.80794 
L 470.658288 407.422032 
L 470.877841 236.744726 
L 471.097394 430.383191 
L 471.316947 449.751738 
L 471.5365 359.804725 
L 471.756053 407.222573 
L 471.975606 511.139363 
L 472.19516 464.483355 
L 472.414713 361.000706 
L 472.634266 395.104106 
L 472.853819 455.790286 
L 473.073372 370.414405 
L 473.292925 380.456616 
L 473.512479 505.989665 
L 473.732032 259.943186 
L 473.951585 325.971173 
L 474.390691 533.723797 
L 474.610244 366.516948 
L 474.829797 445.269291 
L 475.268904 377.349435 
L 475.488457 376.220964 
L 475.70801 454.010705 
L 476.147116 414.597159 
L 476.366669 426.606891 
L 476.586223 429.586952 
L 476.805776 498.426953 
L 477.025329 372.491609 
L 477.244882 420.786007 
L 477.464435 368.939394 
L 477.683988 455.416699 
L 477.903542 478.29704 
L 478.123095 421.905557 
L 478.342648 434.073534 
L 478.562201 402.561592 
L 478.781754 431.555603 
L 479.001307 477.809975 
L 479.22086 347.567306 
L 479.440414 463.731081 
L 479.659967 435.106611 
L 479.87952 431.74927 
L 480.099073 438.501907 
L 480.318626 487.278502 
L 480.538179 444.691698 
L 480.757733 367.718017 
L 480.977286 371.596068 
L 481.196839 472.532262 
L 481.416392 388.28654 
L 481.855498 554.167938 
L 482.075051 474.451287 
L 482.294605 437.283797 
L 482.514158 484.820441 
L 482.733711 406.796528 
L 482.953264 440.476932 
L 483.172817 440.179763 
L 483.39237 392.384293 
L 483.611924 385.666338 
L 483.831477 409.831983 
L 484.05103 301.832571 
L 484.270583 449.591694 
L 484.490136 419.540074 
L 484.709689 433.357493 
L 484.929242 404.735075 
L 485.148796 398.130468 
L 485.368349 449.971684 
L 485.587902 437.155931 
L 486.027008 364.329266 
L 486.466115 456.342843 
L 486.685668 464.346685 
L 486.905221 520.235309 
L 487.124774 457.63573 
L 487.56388 405.573728 
L 487.783433 436.220009 
L 488.002987 443.790402 
L 488.22254 333.01079 
L 488.442093 353.222661 
L 488.661646 414.430491 
L 488.881199 385.786667 
L 489.100752 505.095926 
L 489.320306 499.808706 
L 489.539859 424.174243 
L 489.759412 481.516235 
L 489.978965 407.280436 
L 490.198518 420.957798 
L 490.418071 340.758003 
L 490.637624 473.440733 
L 490.857178 495.423867 
L 491.296284 475.892458 
L 491.515837 449.872515 
L 491.73539 445.241591 
L 491.954943 256.178205 
L 492.174497 348.860277 
L 492.39405 393.282014 
L 492.613603 508.223726 
L 492.833156 431.596769 
L 493.052709 434.041199 
L 493.272262 458.748546 
L 493.491815 310.110298 
L 494.150475 487.070072 
L 494.370028 532.947273 
L 494.809134 346.849751 
L 495.028688 372.108813 
L 495.248241 459.872908 
L 495.467794 466.929674 
L 495.687347 249.224279 
L 495.9069 457.056141 
L 496.126453 278.040632 
L 496.346006 498.338762 
L 496.56556 406.09723 
L 497.004666 506.930801 
L 497.224219 508.259641 
L 497.443772 381.146588 
L 497.663325 448.151577 
L 498.102432 352.580166 
L 498.321985 414.404135 
L 498.541538 429.996643 
L 498.761091 428.80461 
L 498.980644 458.434545 
L 499.200197 403.360391 
L 499.419751 256.214556 
L 499.639304 331.688961 
L 499.858857 366.611717 
L 500.07841 477.85311 
L 500.297963 466.481234 
L 500.517516 494.667036 
L 500.73707 425.032155 
L 500.956623 300.029286 
L 501.176176 302.838758 
L 501.395729 297.00503 
L 501.615282 440.877583 
L 501.834835 373.395134 
L 502.273942 404.883842 
L 502.493495 496.685425 
L 502.713048 499.013814 
L 503.152154 307.975262 
L 503.371707 325.996081 
L 503.59126 389.674279 
L 503.810814 324.810592 
L 504.030367 478.334603 
L 504.24992 431.864754 
L 504.469473 490.354706 
L 504.689026 367.539737 
L 504.908579 398.90475 
L 505.128133 456.918558 
L 505.347686 414.54436 
L 505.567239 395.707856 
L 505.786792 355.45139 
L 506.006345 432.091445 
L 506.225898 398.783834 
L 506.445451 455.509336 
L 506.665005 481.221896 
L 506.884558 418.623435 
L 507.104111 479.358505 
L 507.323664 400.995577 
L 507.543217 402.087948 
L 507.76277 502.665901 
L 507.982324 304.188656 
L 508.201877 467.223227 
L 508.42143 449.213952 
L 508.640983 391.773833 
L 508.860536 504.406022 
L 509.080089 399.799723 
L 509.299642 437.003753 
L 509.519196 417.182862 
L 509.738749 346.736049 
L 509.958302 439.119704 
L 510.177855 442.004459 
L 510.616961 380.536836 
L 510.836515 453.79058 
L 511.275621 387.637654 
L 511.495174 389.910929 
L 511.714727 503.309039 
L 511.93428 377.289919 
L 512.373387 400.884611 
L 512.59294 469.474099 
L 512.812493 461.799778 
L 513.032046 469.725339 
L 513.251599 331.706363 
L 513.471152 482.973285 
L 513.690706 344.349981 
L 513.910259 474.379365 
L 514.129812 286.20349 
L 514.349365 466.633408 
L 514.568918 408.175051 
L 514.788471 496.319889 
L 515.227578 350.029777 
L 515.447131 477.035257 
L 515.666684 428.794767 
L 515.886237 495.589427 
L 516.984003 271.847536 
L 517.423109 489.7098 
L 517.642662 371.757596 
L 517.862215 501.192461 
L 518.081769 349.216087 
L 518.301322 400.136428 
L 518.520875 421.568533 
L 518.740428 509.666494 
L 518.959981 347.216835 
L 519.179534 283.515479 
L 519.399088 451.760513 
L 519.838194 307.856562 
L 520.2773 444.626975 
L 520.496853 448.662704 
L 520.716406 329.085886 
L 520.93596 441.061417 
L 521.375066 404.822679 
L 521.594619 486.776727 
L 521.814172 460.645626 
L 522.033725 411.064579 
L 522.253279 470.163873 
L 522.472832 401.114487 
L 522.692385 404.89713 
L 522.911938 304.466363 
L 523.131491 465.746622 
L 523.351044 455.564788 
L 523.570597 485.844985 
L 523.790151 320.243108 
L 524.009704 405.40983 
L 524.44881 470.003934 
L 524.668363 257.594661 
L 525.10747 468.250426 
L 525.327023 414.481942 
L 525.546576 467.151398 
L 525.766129 425.025194 
L 525.985682 436.307652 
L 526.424788 387.086014 
L 526.644342 366.107259 
L 526.863895 441.425755 
L 527.083448 366.08724 
L 527.522554 519.068573 
L 527.96166 305.193155 
L 528.181214 297.713472 
L 528.400767 343.801357 
L 528.62032 446.113784 
L 528.839873 367.95778 
L 529.059426 485.708616 
L 529.278979 411.253787 
L 529.498533 460.270189 
L 529.718086 420.312554 
L 529.937639 427.61276 
L 530.157192 480.681381 
L 530.596298 318.684471 
L 530.815851 422.438342 
L 531.035405 383.777894 
L 531.254958 315.817974 
L 531.474511 450.664086 
L 531.694064 461.735704 
L 531.913617 422.799265 
L 532.352724 388.783764 
L 532.572277 310.853784 
L 532.79183 398.500108 
L 533.011383 384.263226 
L 533.230936 346.531555 
L 533.450489 379.43744 
L 533.670042 348.660581 
L 533.889596 443.178996 
L 534.109149 380.046645 
L 534.328702 404.854954 
L 534.548255 346.607437 
L 534.767808 377.189982 
L 534.987361 518.019878 
L 535.206915 371.609687 
L 535.426468 421.831336 
L 535.646021 410.919121 
L 535.865574 353.697423 
L 536.085127 412.489109 
L 536.30468 430.392227 
L 536.524233 400.232146 
L 536.743787 419.859196 
L 536.96334 487.484205 
L 537.182893 318.283233 
L 537.402446 347.526702 
L 537.621999 477.835149 
L 537.841552 536.324292 
L 538.061106 389.597734 
L 538.280659 451.644667 
L 538.500212 437.728579 
L 538.719765 321.507812 
L 538.939318 290.407455 
L 539.158871 342.103161 
L 539.378424 362.28653 
L 539.597978 363.332114 
L 539.817531 509.369455 
L 540.037084 407.899748 
L 540.256637 475.911183 
L 540.47619 439.486488 
L 540.695743 282.290458 
L 541.13485 462.885059 
L 541.354403 472.249981 
L 541.573956 330.103279 
L 541.793509 435.735616 
L 542.013062 385.539356 
L 542.232615 478.102412 
L 542.452169 455.981286 
L 542.671722 445.960921 
L 542.891275 452.114747 
L 543.110828 432.260126 
L 543.330381 384.481558 
L 543.549934 382.863534 
L 543.769488 390.935312 
L 543.989041 427.962693 
L 544.208594 358.990242 
L 544.428147 447.466579 
L 544.6477 269.708087 
L 544.867253 482.10613 
L 545.086806 315.920186 
L 545.30636 363.496778 
L 545.525913 457.388612 
L 545.745466 399.310816 
L 545.745466 399.310816 
" style="fill:none;stroke:#96c69a;stroke-linecap:round;stroke-width:3;"/>
   </g>
   <g id="line2d_2"/>
   <g id="patch_3">
    <path d="M 84.914375 603.86 
L 84.914375 109.484571 
" style="fill:none;stroke:#262626;stroke-linecap:square;stroke-linejoin:miter;stroke-width:2.5;"/>
   </g>
   <g id="patch_4">
    <path d="M 84.914375 603.86 
L 567.689804 603.86 
" style="fill:none;stroke:#262626;stroke-linecap:square;stroke-linejoin:miter;stroke-width:2.5;"/>
   </g>
   <g id="legend_1">
    <g id="patch_5">
     <path d="M 514.774179 598.86 
L 560.689804 598.86 
Q 562.689804 598.86 562.689804 596.86 
L 562.689804 554.954375 
Q 562.689804 552.954375 560.689804 552.954375 
L 514.774179 552.954375 
Q 512.774179 552.954375 512.774179 554.954375 
L 512.774179 596.86 
Q 512.774179 598.86 514.774179 598.86 
z
" style="fill:#ffffff;opacity:0.8;stroke:#cccccc;stroke-linejoin:miter;stroke-width:2;"/>
    </g>
    <g id="text_14">
     <!-- $n_\tau$ -->
     <g style="fill:#262626;" transform="translate(524.651991 575.190625)scale(0.24 -0.24)">
      <defs>
       <path d="M 3566 2113 
L 3156 0 
L 2578 0 
L 2988 2091 
Q 3016 2238 3031 2350 
Q 3047 2463 3047 2528 
Q 3047 2791 2881 2937 
Q 2716 3084 2419 3084 
Q 1956 3084 1622 2776 
Q 1288 2469 1184 1941 
L 800 0 
L 225 0 
L 903 3500 
L 1478 3500 
L 1363 2950 
Q 1603 3253 1940 3418 
Q 2278 3584 2650 3584 
Q 3113 3584 3367 3334 
Q 3622 3084 3622 2631 
Q 3622 2519 3608 2391 
Q 3594 2263 3566 2113 
z
" id="DejaVuSans-Oblique-6e" transform="scale(0.015625)"/>
       <path d="M 2103 638 
Q 2188 488 2525 488 
L 2800 488 
L 2706 0 
L 2363 0 
Q 1800 0 1600 300 
Q 1403 606 1534 1269 
L 1856 2925 
L 541 2925 
L 653 3500 
L 3881 3500 
L 3769 2925 
L 2444 2925 
L 2113 1234 
Q 2025 781 2103 638 
z
" id="DejaVuSans-Oblique-3c4" transform="scale(0.015625)"/>
      </defs>
      <use xlink:href="#DejaVuSans-Oblique-6e"/>
      <use transform="translate(63.378906 -16.40625)scale(0.7)" xlink:href="#DejaVuSans-Oblique-3c4"/>
     </g>
    </g>
    <g id="line2d_3">
     <path d="M 516.774179 589.280313 
L 536.774179 589.280313 
" style="fill:none;stroke:#96c69a;stroke-linecap:round;stroke-width:3;"/>
    </g>
    <g id="line2d_4"/>
    <g id="text_15">
     <!-- 50 -->
     <g style="fill:#262626;" transform="translate(544.774179 592.780313)scale(0.1 -0.1)">
      <defs>
       <path d="M 678 4666 
L 3669 4666 
L 3669 3781 
L 1638 3781 
L 1638 3059 
Q 1775 3097 1914 3117 
Q 2053 3138 2203 3138 
Q 3056 3138 3531 2711 
Q 4006 2284 4006 1522 
Q 4006 766 3489 337 
Q 2972 -91 2053 -91 
Q 1656 -91 1267 -14 
Q 878 63 494 219 
L 494 1166 
Q 875 947 1217 837 
Q 1559 728 1863 728 
Q 2300 728 2551 942 
Q 2803 1156 2803 1522 
Q 2803 1891 2551 2103 
Q 2300 2316 1863 2316 
Q 1603 2316 1309 2248 
Q 1016 2181 678 2041 
L 678 4666 
z
" id="DejaVuSans-Bold-35" transform="scale(0.015625)"/>
       <path d="M 2944 2338 
Q 2944 3213 2780 3570 
Q 2616 3928 2228 3928 
Q 1841 3928 1675 3570 
Q 1509 3213 1509 2338 
Q 1509 1453 1675 1090 
Q 1841 728 2228 728 
Q 2613 728 2778 1090 
Q 2944 1453 2944 2338 
z
M 4147 2328 
Q 4147 1169 3647 539 
Q 3147 -91 2228 -91 
Q 1306 -91 806 539 
Q 306 1169 306 2328 
Q 306 3491 806 4120 
Q 1306 4750 2228 4750 
Q 3147 4750 3647 4120 
Q 4147 3491 4147 2328 
z
" id="DejaVuSans-Bold-30" transform="scale(0.015625)"/>
      </defs>
      <use xlink:href="#DejaVuSans-Bold-35"/>
      <use x="69.580078" xlink:href="#DejaVuSans-Bold-30"/>
     </g>
    </g>
   </g>
  </g>
  <g id="axes_2">
   <g id="patch_6">
    <path d="M 84.914375 92.437143 
L 567.689804 92.437143 
L 567.689804 7.2 
L 84.914375 7.2 
z
" style="fill:none;"/>
   </g>
   <g id="matplotlib.axis_3">
    <g id="xtick_7"/>
    <g id="xtick_8"/>
    <g id="xtick_9"/>
    <g id="xtick_10"/>
    <g id="xtick_11"/>
    <g id="xtick_12"/>
   </g>
   <g id="matplotlib.axis_4">
    <g id="ytick_6">
     <g id="text_16">
      <!-- 0 -->
      <g style="fill:#262626;" transform="translate(55.416875 100.795424)scale(0.22 -0.22)">
       <use xlink:href="#DejaVuSans-30"/>
      </g>
     </g>
    </g>
    <g id="ytick_7">
     <g id="text_17">
      <!-- 100 -->
      <g style="fill:#262626;" transform="translate(27.421875 48.082287)scale(0.22 -0.22)">
       <use xlink:href="#DejaVuSans-31"/>
       <use x="63.623047" xlink:href="#DejaVuSans-30"/>
       <use x="127.246094" xlink:href="#DejaVuSans-30"/>
      </g>
     </g>
    </g>
   </g>
   <g id="patch_7">
    <path clip-path="url(#pf16175a0da)" d="M 106.858713 92.437143 
L 140.619232 92.437143 
L 140.619232 11.258912 
L 106.858713 11.258912 
z
" style="fill:#96c69a;fill-opacity:0.5;stroke:#ffffff;stroke-linejoin:miter;stroke-width:2;"/>
   </g>
   <g id="patch_8">
    <path clip-path="url(#pf16175a0da)" d="M 140.619232 92.437143 
L 174.379752 92.437143 
L 174.379752 11.258912 
L 140.619232 11.258912 
z
" style="fill:#96c69a;fill-opacity:0.5;stroke:#ffffff;stroke-linejoin:miter;stroke-width:2;"/>
   </g>
   <g id="patch_9">
    <path clip-path="url(#pf16175a0da)" d="M 174.379752 92.437143 
L 208.140271 92.437143 
L 208.140271 11.258912 
L 174.379752 11.258912 
z
" style="fill:#96c69a;fill-opacity:0.5;stroke:#ffffff;stroke-linejoin:miter;stroke-width:2;"/>
   </g>
   <g id="patch_10">
    <path clip-path="url(#pf16175a0da)" d="M 208.140271 92.437143 
L 241.900791 92.437143 
L 241.900791 11.258912 
L 208.140271 11.258912 
z
" style="fill:#96c69a;fill-opacity:0.5;stroke:#ffffff;stroke-linejoin:miter;stroke-width:2;"/>
   </g>
   <g id="patch_11">
    <path clip-path="url(#pf16175a0da)" d="M 241.900791 92.437143 
L 275.66131 92.437143 
L 275.66131 11.786043 
L 241.900791 11.786043 
z
" style="fill:#96c69a;fill-opacity:0.5;stroke:#ffffff;stroke-linejoin:miter;stroke-width:2;"/>
   </g>
   <g id="patch_12">
    <path clip-path="url(#pf16175a0da)" d="M 275.66131 92.437143 
L 309.42183 92.437143 
L 309.42183 11.258912 
L 275.66131 11.258912 
z
" style="fill:#96c69a;fill-opacity:0.5;stroke:#ffffff;stroke-linejoin:miter;stroke-width:2;"/>
   </g>
   <g id="patch_13">
    <path clip-path="url(#pf16175a0da)" d="M 309.42183 92.437143 
L 343.182349 92.437143 
L 343.182349 11.258912 
L 309.42183 11.258912 
z
" style="fill:#96c69a;fill-opacity:0.5;stroke:#ffffff;stroke-linejoin:miter;stroke-width:2;"/>
   </g>
   <g id="patch_14">
    <path clip-path="url(#pf16175a0da)" d="M 343.182349 92.437143 
L 376.942869 92.437143 
L 376.942869 11.258912 
L 343.182349 11.258912 
z
" style="fill:#96c69a;fill-opacity:0.5;stroke:#ffffff;stroke-linejoin:miter;stroke-width:2;"/>
   </g>
   <g id="patch_15">
    <path clip-path="url(#pf16175a0da)" d="M 376.942869 92.437143 
L 410.703388 92.437143 
L 410.703388 11.786043 
L 376.942869 11.786043 
z
" style="fill:#96c69a;fill-opacity:0.5;stroke:#ffffff;stroke-linejoin:miter;stroke-width:2;"/>
   </g>
   <g id="patch_16">
    <path clip-path="url(#pf16175a0da)" d="M 410.703388 92.437143 
L 444.463907 92.437143 
L 444.463907 11.258912 
L 410.703388 11.258912 
z
" style="fill:#96c69a;fill-opacity:0.5;stroke:#ffffff;stroke-linejoin:miter;stroke-width:2;"/>
   </g>
   <g id="patch_17">
    <path clip-path="url(#pf16175a0da)" d="M 444.463907 92.437143 
L 478.224427 92.437143 
L 478.224427 11.258912 
L 444.463907 11.258912 
z
" style="fill:#96c69a;fill-opacity:0.5;stroke:#ffffff;stroke-linejoin:miter;stroke-width:2;"/>
   </g>
   <g id="patch_18">
    <path clip-path="url(#pf16175a0da)" d="M 478.224427 92.437143 
L 511.984946 92.437143 
L 511.984946 11.258912 
L 478.224427 11.258912 
z
" style="fill:#96c69a;fill-opacity:0.5;stroke:#ffffff;stroke-linejoin:miter;stroke-width:2;"/>
   </g>
   <g id="patch_19">
    <path clip-path="url(#pf16175a0da)" d="M 511.984946 92.437143 
L 545.745466 92.437143 
L 545.745466 11.258912 
L 511.984946 11.258912 
z
" style="fill:#96c69a;fill-opacity:0.5;stroke:#ffffff;stroke-linejoin:miter;stroke-width:2;"/>
   </g>
   <g id="patch_20">
    <path d="M 84.914375 92.437143 
L 84.914375 7.2 
" style="fill:none;stroke:#262626;stroke-linecap:square;stroke-linejoin:miter;stroke-width:2.5;"/>
   </g>
   <g id="patch_21">
    <path d="M 84.914375 92.437143 
L 567.689804 92.437143 
" style="fill:none;stroke:#262626;stroke-linecap:square;stroke-linejoin:miter;stroke-width:2.5;"/>
   </g>
  </g>
  <g id="axes_3">
   <g id="patch_22">
    <path d="M 584.337232 603.86 
L 667.574375 603.86 
L 667.574375 109.484571 
L 584.337232 109.484571 
z
" style="fill:none;"/>
   </g>
   <g id="matplotlib.axis_5">
    <g id="xtick_13">
     <g id="text_18">
      <!-- 0 -->
      <g style="fill:#262626;" transform="translate(577.338482 636.076563)scale(0.22 -0.22)">
       <use xlink:href="#DejaVuSans-30"/>
      </g>
     </g>
    </g>
    <g id="xtick_14">
     <g id="text_19">
      <!-- 100 -->
      <g style="fill:#262626;" transform="translate(608.640108 636.076563)scale(0.22 -0.22)">
       <use xlink:href="#DejaVuSans-31"/>
       <use x="63.623047" xlink:href="#DejaVuSans-30"/>
       <use x="127.246094" xlink:href="#DejaVuSans-30"/>
      </g>
     </g>
    </g>
   </g>
   <g id="matplotlib.axis_6">
    <g id="ytick_8"/>
    <g id="ytick_9"/>
    <g id="ytick_10"/>
    <g id="ytick_11"/>
    <g id="ytick_12"/>
   </g>
   <g id="patch_23">
    <path clip-path="url(#pef26128293)" d="M 584.337232 581.38839 
L 584.790223 581.38839 
L 584.790223 568.169795 
L 584.337232 568.169795 
z
" style="fill:#96c69a;fill-opacity:0.5;stroke:#ffffff;stroke-linejoin:miter;stroke-width:1.321859;"/>
   </g>
   <g id="patch_24">
    <path clip-path="url(#pef26128293)" d="M 584.337232 568.169795 
L 586.149197 568.169795 
L 586.149197 554.951201 
L 584.337232 554.951201 
z
" style="fill:#96c69a;fill-opacity:0.5;stroke:#ffffff;stroke-linejoin:miter;stroke-width:1.321859;"/>
   </g>
   <g id="patch_25">
    <path clip-path="url(#pef26128293)" d="M 584.337232 554.951201 
L 587.508171 554.951201 
L 587.508171 541.732607 
L 584.337232 541.732607 
z
" style="fill:#96c69a;fill-opacity:0.5;stroke:#ffffff;stroke-linejoin:miter;stroke-width:1.321859;"/>
   </g>
   <g id="patch_26">
    <path clip-path="url(#pef26128293)" d="M 584.337232 541.732607 
L 591.585092 541.732607 
L 591.585092 528.514012 
L 584.337232 528.514012 
z
" style="fill:#96c69a;fill-opacity:0.5;stroke:#ffffff;stroke-linejoin:miter;stroke-width:1.321859;"/>
   </g>
   <g id="patch_27">
    <path clip-path="url(#pef26128293)" d="M 584.337232 528.514012 
L 594.756031 528.514012 
L 594.756031 515.295418 
L 584.337232 515.295418 
z
" style="fill:#96c69a;fill-opacity:0.5;stroke:#ffffff;stroke-linejoin:miter;stroke-width:1.321859;"/>
   </g>
   <g id="patch_28">
    <path clip-path="url(#pef26128293)" d="M 584.337232 515.295418 
L 609.251751 515.295418 
L 609.251751 502.076824 
L 584.337232 502.076824 
z
" style="fill:#96c69a;fill-opacity:0.5;stroke:#ffffff;stroke-linejoin:miter;stroke-width:1.321859;"/>
   </g>
   <g id="patch_29">
    <path clip-path="url(#pef26128293)" d="M 584.337232 502.076824 
L 619.217559 502.076824 
L 619.217559 488.858229 
L 584.337232 488.858229 
z
" style="fill:#96c69a;fill-opacity:0.5;stroke:#ffffff;stroke-linejoin:miter;stroke-width:1.321859;"/>
   </g>
   <g id="patch_30">
    <path clip-path="url(#pef26128293)" d="M 584.337232 488.858229 
L 623.747471 488.858229 
L 623.747471 475.639635 
L 584.337232 475.639635 
z
" style="fill:#96c69a;fill-opacity:0.5;stroke:#ffffff;stroke-linejoin:miter;stroke-width:1.321859;"/>
   </g>
   <g id="patch_31">
    <path clip-path="url(#pef26128293)" d="M 584.337232 475.639635 
L 645.03806 475.639635 
L 645.03806 462.42104 
L 584.337232 462.42104 
z
" style="fill:#96c69a;fill-opacity:0.5;stroke:#ffffff;stroke-linejoin:miter;stroke-width:1.321859;"/>
   </g>
   <g id="patch_32">
    <path clip-path="url(#pef26128293)" d="M 584.337232 462.42104 
L 650.926946 462.42104 
L 650.926946 449.202446 
L 584.337232 449.202446 
z
" style="fill:#96c69a;fill-opacity:0.5;stroke:#ffffff;stroke-linejoin:miter;stroke-width:1.321859;"/>
   </g>
   <g id="patch_33">
    <path clip-path="url(#pef26128293)" d="M 584.337232 449.202446 
L 656.815833 449.202446 
L 656.815833 435.983852 
L 584.337232 435.983852 
z
" style="fill:#96c69a;fill-opacity:0.5;stroke:#ffffff;stroke-linejoin:miter;stroke-width:1.321859;"/>
   </g>
   <g id="patch_34">
    <path clip-path="url(#pef26128293)" d="M 584.337232 435.983852 
L 657.268824 435.983852 
L 657.268824 422.765257 
L 584.337232 422.765257 
z
" style="fill:#96c69a;fill-opacity:0.5;stroke:#ffffff;stroke-linejoin:miter;stroke-width:1.321859;"/>
   </g>
   <g id="patch_35">
    <path clip-path="url(#pef26128293)" d="M 584.337232 422.765257 
L 663.610702 422.765257 
L 663.610702 409.546663 
L 584.337232 409.546663 
z
" style="fill:#96c69a;fill-opacity:0.5;stroke:#ffffff;stroke-linejoin:miter;stroke-width:1.321859;"/>
   </g>
   <g id="patch_36">
    <path clip-path="url(#pef26128293)" d="M 584.337232 409.546663 
L 661.345745 409.546663 
L 661.345745 396.328069 
L 584.337232 396.328069 
z
" style="fill:#96c69a;fill-opacity:0.5;stroke:#ffffff;stroke-linejoin:miter;stroke-width:1.321859;"/>
   </g>
   <g id="patch_37">
    <path clip-path="url(#pef26128293)" d="M 584.337232 396.328069 
L 656.815833 396.328069 
L 656.815833 383.109474 
L 584.337232 383.109474 
z
" style="fill:#96c69a;fill-opacity:0.5;stroke:#ffffff;stroke-linejoin:miter;stroke-width:1.321859;"/>
   </g>
   <g id="patch_38">
    <path clip-path="url(#pef26128293)" d="M 584.337232 383.109474 
L 645.944043 383.109474 
L 645.944043 369.89088 
L 584.337232 369.89088 
z
" style="fill:#96c69a;fill-opacity:0.5;stroke:#ffffff;stroke-linejoin:miter;stroke-width:1.321859;"/>
   </g>
   <g id="patch_39">
    <path clip-path="url(#pef26128293)" d="M 584.337232 369.89088 
L 638.243191 369.89088 
L 638.243191 356.672286 
L 584.337232 356.672286 
z
" style="fill:#96c69a;fill-opacity:0.5;stroke:#ffffff;stroke-linejoin:miter;stroke-width:1.321859;"/>
   </g>
   <g id="patch_40">
    <path clip-path="url(#pef26128293)" d="M 584.337232 356.672286 
L 620.123541 356.672286 
L 620.123541 343.453691 
L 584.337232 343.453691 
z
" style="fill:#96c69a;fill-opacity:0.5;stroke:#ffffff;stroke-linejoin:miter;stroke-width:1.321859;"/>
   </g>
   <g id="patch_41">
    <path clip-path="url(#pef26128293)" d="M 584.337232 343.453691 
L 616.952602 343.453691 
L 616.952602 330.235097 
L 584.337232 330.235097 
z
" style="fill:#96c69a;fill-opacity:0.5;stroke:#ffffff;stroke-linejoin:miter;stroke-width:1.321859;"/>
   </g>
   <g id="patch_42">
    <path clip-path="url(#pef26128293)" d="M 584.337232 330.235097 
L 615.140637 330.235097 
L 615.140637 317.016503 
L 584.337232 317.016503 
z
" style="fill:#96c69a;fill-opacity:0.5;stroke:#ffffff;stroke-linejoin:miter;stroke-width:1.321859;"/>
   </g>
   <g id="patch_43">
    <path clip-path="url(#pef26128293)" d="M 584.337232 317.016503 
L 605.627821 317.016503 
L 605.627821 303.797908 
L 584.337232 303.797908 
z
" style="fill:#96c69a;fill-opacity:0.5;stroke:#ffffff;stroke-linejoin:miter;stroke-width:1.321859;"/>
   </g>
   <g id="patch_44">
    <path clip-path="url(#pef26128293)" d="M 584.337232 303.797908 
L 598.832952 303.797908 
L 598.832952 290.579314 
L 584.337232 290.579314 
z
" style="fill:#96c69a;fill-opacity:0.5;stroke:#ffffff;stroke-linejoin:miter;stroke-width:1.321859;"/>
   </g>
   <g id="patch_45">
    <path clip-path="url(#pef26128293)" d="M 584.337232 290.579314 
L 596.115005 290.579314 
L 596.115005 277.36072 
L 584.337232 277.36072 
z
" style="fill:#96c69a;fill-opacity:0.5;stroke:#ffffff;stroke-linejoin:miter;stroke-width:1.321859;"/>
   </g>
   <g id="patch_46">
    <path clip-path="url(#pef26128293)" d="M 584.337232 277.36072 
L 590.226118 277.36072 
L 590.226118 264.142125 
L 584.337232 264.142125 
z
" style="fill:#96c69a;fill-opacity:0.5;stroke:#ffffff;stroke-linejoin:miter;stroke-width:1.321859;"/>
   </g>
   <g id="patch_47">
    <path clip-path="url(#pef26128293)" d="M 584.337232 264.142125 
L 587.508171 264.142125 
L 587.508171 250.923531 
L 584.337232 250.923531 
z
" style="fill:#96c69a;fill-opacity:0.5;stroke:#ffffff;stroke-linejoin:miter;stroke-width:1.321859;"/>
   </g>
   <g id="patch_48">
    <path clip-path="url(#pef26128293)" d="M 584.337232 250.923531 
L 587.05518 250.923531 
L 587.05518 237.704937 
L 584.337232 237.704937 
z
" style="fill:#96c69a;fill-opacity:0.5;stroke:#ffffff;stroke-linejoin:miter;stroke-width:1.321859;"/>
   </g>
   <g id="patch_49">
    <path clip-path="url(#pef26128293)" d="M 584.337232 237.704937 
L 587.05518 237.704937 
L 587.05518 224.486342 
L 584.337232 224.486342 
z
" style="fill:#96c69a;fill-opacity:0.5;stroke:#ffffff;stroke-linejoin:miter;stroke-width:1.321859;"/>
   </g>
   <g id="patch_50">
    <path clip-path="url(#pef26128293)" d="M 584.337232 224.486342 
L 586.602188 224.486342 
L 586.602188 211.267748 
L 584.337232 211.267748 
z
" style="fill:#96c69a;fill-opacity:0.5;stroke:#ffffff;stroke-linejoin:miter;stroke-width:1.321859;"/>
   </g>
   <g id="patch_51">
    <path clip-path="url(#pef26128293)" d="M 584.337232 211.267748 
L 585.243215 211.267748 
L 585.243215 198.049154 
L 584.337232 198.049154 
z
" style="fill:#96c69a;fill-opacity:0.5;stroke:#ffffff;stroke-linejoin:miter;stroke-width:1.321859;"/>
   </g>
   <g id="patch_52">
    <path clip-path="url(#pef26128293)" d="M 584.337232 198.049154 
L 585.243215 198.049154 
L 585.243215 184.830559 
L 584.337232 184.830559 
z
" style="fill:#96c69a;fill-opacity:0.5;stroke:#ffffff;stroke-linejoin:miter;stroke-width:1.321859;"/>
   </g>
   <g id="patch_53">
    <path clip-path="url(#pef26128293)" d="M 584.337232 184.830559 
L 584.790223 184.830559 
L 584.790223 171.611965 
L 584.337232 171.611965 
z
" style="fill:#96c69a;fill-opacity:0.5;stroke:#ffffff;stroke-linejoin:miter;stroke-width:1.321859;"/>
   </g>
   <g id="patch_54">
    <path clip-path="url(#pef26128293)" d="M 584.337232 171.611965 
L 584.790223 171.611965 
L 584.790223 158.393371 
L 584.337232 158.393371 
z
" style="fill:#96c69a;fill-opacity:0.5;stroke:#ffffff;stroke-linejoin:miter;stroke-width:1.321859;"/>
   </g>
   <g id="patch_55">
    <path clip-path="url(#pef26128293)" d="M 584.337232 158.393371 
L 584.337232 158.393371 
L 584.337232 145.174776 
L 584.337232 145.174776 
z
" style="fill:#96c69a;fill-opacity:0.5;stroke:#ffffff;stroke-linejoin:miter;stroke-width:1.321859;"/>
   </g>
   <g id="patch_56">
    <path clip-path="url(#pef26128293)" d="M 584.337232 145.174776 
L 584.790223 145.174776 
L 584.790223 131.956182 
L 584.337232 131.956182 
z
" style="fill:#96c69a;fill-opacity:0.5;stroke:#ffffff;stroke-linejoin:miter;stroke-width:1.321859;"/>
   </g>
   <g id="patch_57">
    <path d="M 584.337232 603.86 
L 584.337232 109.484571 
" style="fill:none;stroke:#262626;stroke-linecap:square;stroke-linejoin:miter;stroke-width:2.5;"/>
   </g>
   <g id="patch_58">
    <path d="M 584.337232 603.86 
L 667.574375 603.86 
" style="fill:none;stroke:#262626;stroke-linecap:square;stroke-linejoin:miter;stroke-width:2.5;"/>
   </g>
  </g>
 </g>
 <defs>
  <clipPath id="p0e928dd875">
   <rect height="494.375429" width="482.775429" x="84.914375" y="109.484571"/>
  </clipPath>
  <clipPath id="pf16175a0da">
   <rect height="85.237143" width="482.775429" x="84.914375" y="7.2"/>
  </clipPath>
  <clipPath id="pef26128293">
   <rect height="494.375429" width="83.237143" x="584.337232" y="109.484571"/>
  </clipPath>
 </defs>
</svg>
