<?xml version="1.0" encoding="utf-8" standalone="no"?>
<!DOCTYPE svg PUBLIC "-//W3C//DTD SVG 1.1//EN"
  "http://www.w3.org/Graphics/SVG/1.1/DTD/svg11.dtd">
<svg height="674.159375pt" version="1.1" viewBox="0 0 683.518876 674.159375" width="683.518876pt" xmlns="http://www.w3.org/2000/svg" xmlns:xlink="http://www.w3.org/1999/xlink">
 <metadata>
  <rdf:RDF xmlns:cc="http://creativecommons.org/ns#" xmlns:dc="http://purl.org/dc/elements/1.1/" xmlns:rdf="http://www.w3.org/1999/02/22-rdf-syntax-ns#">
   <cc:Work>
    <dc:type rdf:resource="http://purl.org/dc/dcmitype/StillImage"/>
    <dc:date>2021-07-24T14:50:59.095651</dc:date>
    <dc:format>image/svg+xml</dc:format>
    <dc:creator>
     <cc:Agent>
      <dc:title>Matplotlib v3.4.2, https://matplotlib.org/</dc:title>
     </cc:Agent>
    </dc:creator>
   </cc:Work>
  </rdf:RDF>
 </metadata>
 <defs>
  <style type="text/css">*{stroke-linecap:butt;stroke-linejoin:round;}</style>
 </defs>
 <g id="figure_1">
  <g id="patch_1">
   <path d="M 0 674.159375 
L 683.518876 674.159375 
L 683.518876 0 
L 0 0 
z
" style="fill:#ffffff;"/>
  </g>
  <g id="axes_1">
   <g id="patch_2">
    <path d="M 84.914375 602.94 
L 567.863804 602.94 
L 567.863804 109.326857 
L 84.914375 109.326857 
z
" style="fill:none;"/>
   </g>
   <g id="matplotlib.axis_1">
    <g id="xtick_1">
     <g id="text_1">
      <!-- 0 -->
      <g style="fill:#262626;" transform="translate(99.428387 635.156562)scale(0.22 -0.22)">
       <defs>
        <path d="M 2034 4250 
Q 1547 4250 1301 3770 
Q 1056 3291 1056 2328 
Q 1056 1369 1301 889 
Q 1547 409 2034 409 
Q 2525 409 2770 889 
Q 3016 1369 3016 2328 
Q 3016 3291 2770 3770 
Q 2525 4250 2034 4250 
z
M 2034 4750 
Q 2819 4750 3233 4129 
Q 3647 3509 3647 2328 
Q 3647 1150 3233 529 
Q 2819 -91 2034 -91 
Q 1250 -91 836 529 
Q 422 1150 422 2328 
Q 422 3509 836 4129 
Q 1250 4750 2034 4750 
z
" id="DejaVuSans-30" transform="scale(0.015625)"/>
       </defs>
       <use xlink:href="#DejaVuSans-30"/>
      </g>
     </g>
    </g>
    <g id="xtick_2">
     <g id="text_2">
      <!-- 10000 -->
      <g style="fill:#262626;" transform="translate(159.330271 635.156562)scale(0.22 -0.22)">
       <defs>
        <path d="M 794 531 
L 1825 531 
L 1825 4091 
L 703 3866 
L 703 4441 
L 1819 4666 
L 2450 4666 
L 2450 531 
L 3481 531 
L 3481 0 
L 794 0 
L 794 531 
z
" id="DejaVuSans-31" transform="scale(0.015625)"/>
       </defs>
       <use xlink:href="#DejaVuSans-31"/>
       <use x="63.623047" xlink:href="#DejaVuSans-30"/>
       <use x="127.246094" xlink:href="#DejaVuSans-30"/>
       <use x="190.869141" xlink:href="#DejaVuSans-30"/>
       <use x="254.492188" xlink:href="#DejaVuSans-30"/>
      </g>
     </g>
    </g>
    <g id="xtick_3">
     <g id="text_3">
      <!-- 20000 -->
      <g style="fill:#262626;" transform="translate(247.227155 635.156562)scale(0.22 -0.22)">
       <defs>
        <path d="M 1228 531 
L 3431 531 
L 3431 0 
L 469 0 
L 469 531 
Q 828 903 1448 1529 
Q 2069 2156 2228 2338 
Q 2531 2678 2651 2914 
Q 2772 3150 2772 3378 
Q 2772 3750 2511 3984 
Q 2250 4219 1831 4219 
Q 1534 4219 1204 4116 
Q 875 4013 500 3803 
L 500 4441 
Q 881 4594 1212 4672 
Q 1544 4750 1819 4750 
Q 2544 4750 2975 4387 
Q 3406 4025 3406 3419 
Q 3406 3131 3298 2873 
Q 3191 2616 2906 2266 
Q 2828 2175 2409 1742 
Q 1991 1309 1228 531 
z
" id="DejaVuSans-32" transform="scale(0.015625)"/>
       </defs>
       <use xlink:href="#DejaVuSans-32"/>
       <use x="63.623047" xlink:href="#DejaVuSans-30"/>
       <use x="127.246094" xlink:href="#DejaVuSans-30"/>
       <use x="190.869141" xlink:href="#DejaVuSans-30"/>
       <use x="254.492188" xlink:href="#DejaVuSans-30"/>
      </g>
     </g>
    </g>
    <g id="xtick_4">
     <g id="text_4">
      <!-- 30000 -->
      <g style="fill:#262626;" transform="translate(335.124039 635.156562)scale(0.22 -0.22)">
       <defs>
        <path d="M 2597 2516 
Q 3050 2419 3304 2112 
Q 3559 1806 3559 1356 
Q 3559 666 3084 287 
Q 2609 -91 1734 -91 
Q 1441 -91 1130 -33 
Q 819 25 488 141 
L 488 750 
Q 750 597 1062 519 
Q 1375 441 1716 441 
Q 2309 441 2620 675 
Q 2931 909 2931 1356 
Q 2931 1769 2642 2001 
Q 2353 2234 1838 2234 
L 1294 2234 
L 1294 2753 
L 1863 2753 
Q 2328 2753 2575 2939 
Q 2822 3125 2822 3475 
Q 2822 3834 2567 4026 
Q 2313 4219 1838 4219 
Q 1578 4219 1281 4162 
Q 984 4106 628 3988 
L 628 4550 
Q 988 4650 1302 4700 
Q 1616 4750 1894 4750 
Q 2613 4750 3031 4423 
Q 3450 4097 3450 3541 
Q 3450 3153 3228 2886 
Q 3006 2619 2597 2516 
z
" id="DejaVuSans-33" transform="scale(0.015625)"/>
       </defs>
       <use xlink:href="#DejaVuSans-33"/>
       <use x="63.623047" xlink:href="#DejaVuSans-30"/>
       <use x="127.246094" xlink:href="#DejaVuSans-30"/>
       <use x="190.869141" xlink:href="#DejaVuSans-30"/>
       <use x="254.492188" xlink:href="#DejaVuSans-30"/>
      </g>
     </g>
    </g>
    <g id="xtick_5">
     <g id="text_5">
      <!-- 40000 -->
      <g style="fill:#262626;" transform="translate(423.020923 635.156562)scale(0.22 -0.22)">
       <defs>
        <path d="M 2419 4116 
L 825 1625 
L 2419 1625 
L 2419 4116 
z
M 2253 4666 
L 3047 4666 
L 3047 1625 
L 3713 1625 
L 3713 1100 
L 3047 1100 
L 3047 0 
L 2419 0 
L 2419 1100 
L 313 1100 
L 313 1709 
L 2253 4666 
z
" id="DejaVuSans-34" transform="scale(0.015625)"/>
       </defs>
       <use xlink:href="#DejaVuSans-34"/>
       <use x="63.623047" xlink:href="#DejaVuSans-30"/>
       <use x="127.246094" xlink:href="#DejaVuSans-30"/>
       <use x="190.869141" xlink:href="#DejaVuSans-30"/>
       <use x="254.492188" xlink:href="#DejaVuSans-30"/>
      </g>
     </g>
    </g>
    <g id="xtick_6">
     <g id="text_6">
      <!-- 50000 -->
      <g style="fill:#262626;" transform="translate(510.917807 635.156562)scale(0.22 -0.22)">
       <defs>
        <path d="M 691 4666 
L 3169 4666 
L 3169 4134 
L 1269 4134 
L 1269 2991 
Q 1406 3038 1543 3061 
Q 1681 3084 1819 3084 
Q 2600 3084 3056 2656 
Q 3513 2228 3513 1497 
Q 3513 744 3044 326 
Q 2575 -91 1722 -91 
Q 1428 -91 1123 -41 
Q 819 9 494 109 
L 494 744 
Q 775 591 1075 516 
Q 1375 441 1709 441 
Q 2250 441 2565 725 
Q 2881 1009 2881 1497 
Q 2881 1984 2565 2268 
Q 2250 2553 1709 2553 
Q 1456 2553 1204 2497 
Q 953 2441 691 2322 
L 691 4666 
z
" id="DejaVuSans-35" transform="scale(0.015625)"/>
       </defs>
       <use xlink:href="#DejaVuSans-35"/>
       <use x="63.623047" xlink:href="#DejaVuSans-30"/>
       <use x="127.246094" xlink:href="#DejaVuSans-30"/>
       <use x="190.869141" xlink:href="#DejaVuSans-30"/>
       <use x="254.492188" xlink:href="#DejaVuSans-30"/>
      </g>
     </g>
    </g>
    <g id="text_7">
     <!-- MDTU -->
     <g style="fill:#262626;" transform="translate(290.683464 661.968125)scale(0.24 -0.24)">
      <defs>
       <path d="M 628 4666 
L 1569 4666 
L 2759 1491 
L 3956 4666 
L 4897 4666 
L 4897 0 
L 4281 0 
L 4281 4097 
L 3078 897 
L 2444 897 
L 1241 4097 
L 1241 0 
L 628 0 
L 628 4666 
z
" id="DejaVuSans-4d" transform="scale(0.015625)"/>
       <path d="M 1259 4147 
L 1259 519 
L 2022 519 
Q 2988 519 3436 956 
Q 3884 1394 3884 2338 
Q 3884 3275 3436 3711 
Q 2988 4147 2022 4147 
L 1259 4147 
z
M 628 4666 
L 1925 4666 
Q 3281 4666 3915 4102 
Q 4550 3538 4550 2338 
Q 4550 1131 3912 565 
Q 3275 0 1925 0 
L 628 0 
L 628 4666 
z
" id="DejaVuSans-44" transform="scale(0.015625)"/>
       <path d="M -19 4666 
L 3928 4666 
L 3928 4134 
L 2272 4134 
L 2272 0 
L 1638 0 
L 1638 4134 
L -19 4134 
L -19 4666 
z
" id="DejaVuSans-54" transform="scale(0.015625)"/>
       <path d="M 556 4666 
L 1191 4666 
L 1191 1831 
Q 1191 1081 1462 751 
Q 1734 422 2344 422 
Q 2950 422 3222 751 
Q 3494 1081 3494 1831 
L 3494 4666 
L 4128 4666 
L 4128 1753 
Q 4128 841 3676 375 
Q 3225 -91 2344 -91 
Q 1459 -91 1007 375 
Q 556 841 556 1753 
L 556 4666 
z
" id="DejaVuSans-55" transform="scale(0.015625)"/>
      </defs>
      <use xlink:href="#DejaVuSans-4d"/>
      <use x="86.279297" xlink:href="#DejaVuSans-44"/>
      <use x="163.28125" xlink:href="#DejaVuSans-54"/>
      <use x="224.365234" xlink:href="#DejaVuSans-55"/>
     </g>
    </g>
   </g>
   <g id="matplotlib.axis_2">
    <g id="ytick_1">
     <g id="text_8">
      <!-- 0.4 -->
      <g style="fill:#262626;" transform="translate(34.4275 588.685055)scale(0.22 -0.22)">
       <defs>
        <path d="M 684 794 
L 1344 794 
L 1344 0 
L 684 0 
L 684 794 
z
" id="DejaVuSans-2e" transform="scale(0.015625)"/>
       </defs>
       <use xlink:href="#DejaVuSans-30"/>
       <use x="63.623047" xlink:href="#DejaVuSans-2e"/>
       <use x="95.410156" xlink:href="#DejaVuSans-34"/>
      </g>
     </g>
    </g>
    <g id="ytick_2">
     <g id="text_9">
      <!-- 0.6 -->
      <g style="fill:#262626;" transform="translate(34.4275 525.258452)scale(0.22 -0.22)">
       <defs>
        <path d="M 2113 2584 
Q 1688 2584 1439 2293 
Q 1191 2003 1191 1497 
Q 1191 994 1439 701 
Q 1688 409 2113 409 
Q 2538 409 2786 701 
Q 3034 994 3034 1497 
Q 3034 2003 2786 2293 
Q 2538 2584 2113 2584 
z
M 3366 4563 
L 3366 3988 
Q 3128 4100 2886 4159 
Q 2644 4219 2406 4219 
Q 1781 4219 1451 3797 
Q 1122 3375 1075 2522 
Q 1259 2794 1537 2939 
Q 1816 3084 2150 3084 
Q 2853 3084 3261 2657 
Q 3669 2231 3669 1497 
Q 3669 778 3244 343 
Q 2819 -91 2113 -91 
Q 1303 -91 875 529 
Q 447 1150 447 2328 
Q 447 3434 972 4092 
Q 1497 4750 2381 4750 
Q 2619 4750 2861 4703 
Q 3103 4656 3366 4563 
z
" id="DejaVuSans-36" transform="scale(0.015625)"/>
       </defs>
       <use xlink:href="#DejaVuSans-30"/>
       <use x="63.623047" xlink:href="#DejaVuSans-2e"/>
       <use x="95.410156" xlink:href="#DejaVuSans-36"/>
      </g>
     </g>
    </g>
    <g id="ytick_3">
     <g id="text_10">
      <!-- 0.8 -->
      <g style="fill:#262626;" transform="translate(34.4275 461.831849)scale(0.22 -0.22)">
       <defs>
        <path d="M 2034 2216 
Q 1584 2216 1326 1975 
Q 1069 1734 1069 1313 
Q 1069 891 1326 650 
Q 1584 409 2034 409 
Q 2484 409 2743 651 
Q 3003 894 3003 1313 
Q 3003 1734 2745 1975 
Q 2488 2216 2034 2216 
z
M 1403 2484 
Q 997 2584 770 2862 
Q 544 3141 544 3541 
Q 544 4100 942 4425 
Q 1341 4750 2034 4750 
Q 2731 4750 3128 4425 
Q 3525 4100 3525 3541 
Q 3525 3141 3298 2862 
Q 3072 2584 2669 2484 
Q 3125 2378 3379 2068 
Q 3634 1759 3634 1313 
Q 3634 634 3220 271 
Q 2806 -91 2034 -91 
Q 1263 -91 848 271 
Q 434 634 434 1313 
Q 434 1759 690 2068 
Q 947 2378 1403 2484 
z
M 1172 3481 
Q 1172 3119 1398 2916 
Q 1625 2713 2034 2713 
Q 2441 2713 2670 2916 
Q 2900 3119 2900 3481 
Q 2900 3844 2670 4047 
Q 2441 4250 2034 4250 
Q 1625 4250 1398 4047 
Q 1172 3844 1172 3481 
z
" id="DejaVuSans-38" transform="scale(0.015625)"/>
       </defs>
       <use xlink:href="#DejaVuSans-30"/>
       <use x="63.623047" xlink:href="#DejaVuSans-2e"/>
       <use x="95.410156" xlink:href="#DejaVuSans-38"/>
      </g>
     </g>
    </g>
    <g id="ytick_4">
     <g id="text_11">
      <!-- 1.0 -->
      <g style="fill:#262626;" transform="translate(34.4275 398.405247)scale(0.22 -0.22)">
       <use xlink:href="#DejaVuSans-31"/>
       <use x="63.623047" xlink:href="#DejaVuSans-2e"/>
       <use x="95.410156" xlink:href="#DejaVuSans-30"/>
      </g>
     </g>
    </g>
    <g id="ytick_5">
     <g id="text_12">
      <!-- 1.2 -->
      <g style="fill:#262626;" transform="translate(34.4275 334.978644)scale(0.22 -0.22)">
       <use xlink:href="#DejaVuSans-31"/>
       <use x="63.623047" xlink:href="#DejaVuSans-2e"/>
       <use x="95.410156" xlink:href="#DejaVuSans-32"/>
      </g>
     </g>
    </g>
    <g id="ytick_6">
     <g id="text_13">
      <!-- 1.4 -->
      <g style="fill:#262626;" transform="translate(34.4275 271.552041)scale(0.22 -0.22)">
       <use xlink:href="#DejaVuSans-31"/>
       <use x="63.623047" xlink:href="#DejaVuSans-2e"/>
       <use x="95.410156" xlink:href="#DejaVuSans-34"/>
      </g>
     </g>
    </g>
    <g id="ytick_7">
     <g id="text_14">
      <!-- 1.6 -->
      <g style="fill:#262626;" transform="translate(34.4275 208.125438)scale(0.22 -0.22)">
       <use xlink:href="#DejaVuSans-31"/>
       <use x="63.623047" xlink:href="#DejaVuSans-2e"/>
       <use x="95.410156" xlink:href="#DejaVuSans-36"/>
      </g>
     </g>
    </g>
    <g id="ytick_8">
     <g id="text_15">
      <!-- 1.8 -->
      <g style="fill:#262626;" transform="translate(34.4275 144.698836)scale(0.22 -0.22)">
       <use xlink:href="#DejaVuSans-31"/>
       <use x="63.623047" xlink:href="#DejaVuSans-2e"/>
       <use x="95.410156" xlink:href="#DejaVuSans-38"/>
      </g>
     </g>
    </g>
    <g id="text_16">
     <!-- $E$ -->
     <g style="fill:#262626;" transform="translate(25.43625 363.813429)rotate(-90)scale(0.24 -0.24)">
      <defs>
       <path d="M 1081 4666 
L 4031 4666 
L 3928 4134 
L 1606 4134 
L 1338 2753 
L 3566 2753 
L 3463 2222 
L 1234 2222 
L 909 531 
L 3284 531 
L 3181 0 
L 172 0 
L 1081 4666 
z
" id="DejaVuSans-Oblique-45" transform="scale(0.015625)"/>
      </defs>
      <use transform="translate(0 0.09375)" xlink:href="#DejaVuSans-Oblique-45"/>
     </g>
    </g>
   </g>
   <g id="line2d_1">
    <path clip-path="url(#p8fbda16d9f)" d="M 106.866622 370.03902 
L 107.306106 289.680809 
L 107.745591 401.484618 
L 108.185075 473.653926 
L 108.624559 376.7639 
L 109.064044 553.812027 
L 109.503528 396.899046 
L 110.382497 495.400616 
L 110.821982 472.784392 
L 111.261466 423.996324 
L 111.70095 447.929857 
L 112.140435 512.179644 
L 112.579919 334.198286 
L 113.019404 401.270159 
L 113.458888 507.127452 
L 113.898372 408.477579 
L 114.777341 513.557992 
L 115.216826 393.621078 
L 115.65631 515.875793 
L 116.095795 420.852418 
L 116.535279 473.337247 
L 116.974763 440.423744 
L 117.414248 487.880361 
L 117.853732 475.009094 
L 118.293217 401.796265 
L 118.732701 370.293187 
L 119.61167 485.263764 
L 120.490639 247.925292 
L 120.930123 438.109473 
L 121.369608 370.348902 
L 121.809092 444.012944 
L 122.248576 369.868585 
L 122.688061 403.298196 
L 123.127545 399.064911 
L 123.56703 450.620139 
L 124.006514 444.396758 
L 124.445999 407.780769 
L 124.885483 482.651196 
L 125.324967 528.967729 
L 125.764452 445.832827 
L 126.203936 519.833477 
L 126.643421 419.770235 
L 127.082905 483.986809 
L 127.522389 393.475204 
L 127.961874 397.710368 
L 128.401358 346.761692 
L 128.840843 425.676987 
L 129.280327 420.162951 
L 129.719812 447.076102 
L 130.159296 454.592162 
L 130.59878 505.680962 
L 131.038265 405.324358 
L 131.477749 399.487893 
L 131.917234 301.331584 
L 132.356718 450.354108 
L 132.796203 451.97887 
L 133.235687 426.007022 
L 133.675171 349.140929 
L 134.114656 400.070138 
L 134.55414 294.95572 
L 134.993625 429.453214 
L 135.433109 361.254025 
L 135.872593 405.965188 
L 136.312078 474.329005 
L 136.751562 351.011543 
L 137.191047 449.915909 
L 137.630531 449.311658 
L 138.070016 503.973907 
L 138.5095 466.059776 
L 138.948984 248.22523 
L 139.388469 471.678021 
L 139.827953 454.110745 
L 140.267438 410.576163 
L 140.706922 396.329347 
L 141.146406 479.614657 
L 141.585891 310.056467 
L 142.025375 415.031768 
L 142.46486 458.212926 
L 142.904344 312.912393 
L 143.343829 429.444788 
L 143.783313 394.070764 
L 144.222797 422.472047 
L 144.662282 384.239644 
L 145.101766 461.963698 
L 145.541251 381.95506 
L 145.980735 492.277983 
L 146.42022 416.249578 
L 146.859704 416.374694 
L 147.299188 359.288794 
L 147.738673 442.182828 
L 148.178157 330.704573 
L 148.617642 516.287254 
L 149.057126 478.885164 
L 149.49661 406.33695 
L 149.936095 499.815432 
L 150.815064 348.801271 
L 151.254548 480.535838 
L 152.133517 387.611576 
L 152.573001 483.772192 
L 153.012486 468.745522 
L 153.45197 437.837479 
L 153.891455 469.231583 
L 154.330939 298.867966 
L 154.770423 537.281698 
L 155.209908 406.582961 
L 155.649392 428.716196 
L 156.528361 458.440842 
L 156.967846 421.289214 
L 157.40733 289.084831 
L 157.846814 467.040493 
L 158.286299 404.637836 
L 158.725783 477.586481 
L 159.165268 446.619888 
L 159.604752 438.902907 
L 160.044237 540.653582 
L 160.483721 303.691001 
L 160.923205 397.674373 
L 161.36269 397.00858 
L 161.802174 489.160004 
L 162.241659 463.918358 
L 162.681143 429.679055 
L 163.120627 441.742646 
L 163.560112 347.19023 
L 163.999596 459.848785 
L 164.439081 404.081945 
L 164.878565 511.746819 
L 165.31805 483.727444 
L 165.757534 421.507936 
L 166.197018 421.929643 
L 166.636503 354.903172 
L 167.075987 418.879779 
L 167.515472 348.464021 
L 167.954956 440.63033 
L 168.39444 388.486155 
L 168.833925 527.331848 
L 169.273409 422.059278 
L 169.712894 487.178428 
L 170.152378 395.706885 
L 170.591863 432.632668 
L 171.031347 445.40826 
L 171.470831 413.220642 
L 171.910316 466.717542 
L 172.3498 369.420334 
L 172.789285 455.621971 
L 173.228769 407.772835 
L 173.668254 385.000807 
L 174.107738 405.147891 
L 174.547222 453.177842 
L 174.986707 517.929482 
L 175.426191 505.402024 
L 175.865676 417.338016 
L 176.30516 485.009251 
L 176.744644 359.845796 
L 177.184129 465.479236 
L 177.623613 420.970284 
L 178.063098 546.245827 
L 178.502582 469.858604 
L 178.942067 357.213561 
L 179.381551 378.734595 
L 179.821035 438.360494 
L 180.26052 394.377301 
L 180.700004 282.348456 
L 181.139489 374.254894 
L 182.018457 402.067293 
L 182.457942 461.552923 
L 182.897426 281.38453 
L 183.336911 409.839058 
L 183.776395 408.887876 
L 184.21588 433.619282 
L 184.655364 450.757474 
L 185.094848 477.95659 
L 185.534333 459.106291 
L 185.973817 491.050626 
L 186.413302 361.865706 
L 186.852786 374.072068 
L 187.292271 498.209897 
L 187.731755 419.49418 
L 188.171239 506.461038 
L 188.610724 510.532135 
L 189.050208 483.138762 
L 189.489693 436.830837 
L 190.368661 458.786542 
L 191.24763 308.231255 
L 191.687115 474.198486 
L 192.126599 502.669041 
L 192.566084 428.226854 
L 193.005568 400.440736 
L 193.445052 494.677567 
L 193.884537 257.91078 
L 194.763506 431.386373 
L 195.20299 434.21555 
L 195.642474 406.532545 
L 196.081959 426.743298 
L 196.521443 406.292468 
L 196.960928 528.553019 
L 197.400412 374.452723 
L 197.839897 334.843341 
L 198.279381 491.797952 
L 198.718865 365.528669 
L 199.15835 415.508267 
L 199.597834 505.400232 
L 200.037319 419.834054 
L 200.476803 466.694626 
L 200.916288 426.574318 
L 201.355772 266.1131 
L 201.795256 452.308021 
L 202.674225 365.270883 
L 203.11371 498.770627 
L 203.992678 275.725779 
L 204.432163 458.280665 
L 204.871647 419.815708 
L 205.311132 348.992934 
L 205.750616 461.449791 
L 206.190101 342.974604 
L 206.629585 301.183464 
L 207.069069 438.560028 
L 207.508554 488.583185 
L 207.948038 264.872759 
L 208.387523 285.714115 
L 208.827007 377.597996 
L 209.266491 366.831535 
L 209.705976 385.69898 
L 210.14546 418.591429 
L 210.584945 473.593153 
L 211.024429 353.709934 
L 211.463914 437.309975 
L 211.903398 396.320518 
L 212.342882 464.837339 
L 213.221851 289.109177 
L 213.661336 391.227208 
L 214.10082 387.969705 
L 214.540305 415.545929 
L 214.979789 246.135309 
L 215.419273 471.811168 
L 215.858758 378.02252 
L 216.298242 418.174714 
L 216.737727 418.223872 
L 217.177211 268.086383 
L 217.616695 370.473392 
L 218.05618 537.676915 
L 218.495664 414.346137 
L 218.935149 427.337511 
L 219.374633 392.17125 
L 219.814118 434.841951 
L 220.253602 453.727275 
L 220.693086 416.131737 
L 221.132571 406.379723 
L 221.572055 313.734987 
L 222.01154 511.586198 
L 222.451024 340.642193 
L 222.890508 343.597681 
L 223.329993 435.236524 
L 223.769477 279.511999 
L 224.208962 326.47832 
L 224.648446 481.43411 
L 225.087931 491.766677 
L 225.527415 353.334222 
L 225.966899 363.887958 
L 226.845868 428.648039 
L 227.285353 378.051419 
L 227.724837 414.775475 
L 228.164322 378.920604 
L 228.603806 401.558006 
L 229.04329 487.159929 
L 229.482775 431.254993 
L 229.922259 549.848638 
L 230.361744 428.763448 
L 230.801228 451.817596 
L 231.240712 463.924736 
L 231.680197 436.294367 
L 232.119681 451.754319 
L 232.559166 371.610526 
L 232.99865 248.958183 
L 233.438135 420.117021 
L 234.317103 459.469037 
L 234.756588 496.952263 
L 235.635557 486.952637 
L 236.075041 367.645834 
L 236.514526 444.326755 
L 236.95401 369.442002 
L 237.393494 369.259613 
L 237.832979 472.715947 
L 238.272463 407.958504 
L 238.711948 481.440688 
L 239.151432 444.692293 
L 239.590916 433.891391 
L 240.030401 346.666479 
L 240.469885 417.639287 
L 240.90937 256.887441 
L 241.348854 407.450333 
L 241.788339 417.098338 
L 242.227823 422.595695 
L 242.667307 347.681418 
L 243.106792 401.303115 
L 243.546276 469.782246 
L 243.985761 421.194354 
L 244.425245 313.443217 
L 244.864729 434.603383 
L 245.304214 463.646702 
L 245.743698 458.897873 
L 246.183183 368.29385 
L 246.622667 466.310272 
L 247.062152 401.328977 
L 247.501636 439.959164 
L 247.94112 405.681605 
L 248.380605 480.686919 
L 248.820089 482.32584 
L 249.699058 366.861065 
L 250.138543 474.309465 
L 250.578027 442.756052 
L 251.017511 332.478852 
L 251.456996 443.865962 
L 251.89648 465.006758 
L 252.335965 440.281418 
L 252.775449 442.164729 
L 253.214933 319.830289 
L 253.654418 361.251583 
L 254.093902 351.605205 
L 254.533387 331.45973 
L 254.972871 437.570306 
L 255.412356 405.564593 
L 255.85184 462.512529 
L 256.291324 388.701342 
L 256.730809 372.906933 
L 257.170293 321.076643 
L 257.609778 304.953122 
L 258.049262 434.802027 
L 258.488746 330.596752 
L 258.928231 400.388752 
L 259.367715 488.360012 
L 259.8072 509.575 
L 260.246684 392.983519 
L 260.686169 409.92361 
L 261.125653 354.595981 
L 261.565137 471.160389 
L 262.004622 365.741636 
L 262.444106 402.827838 
L 262.883591 481.984228 
L 263.323075 358.200261 
L 263.76256 463.263052 
L 264.202044 379.82012 
L 264.641528 461.333594 
L 265.081013 455.914641 
L 265.520497 345.932733 
L 265.959982 367.031128 
L 266.399466 493.610444 
L 266.83895 507.442489 
L 267.278435 348.006827 
L 268.157404 486.692907 
L 268.596888 485.986756 
L 269.036373 513.711544 
L 269.475857 390.49778 
L 270.354826 436.909163 
L 270.79431 423.455503 
L 271.233795 500.737292 
L 271.673279 358.013758 
L 272.112763 448.735961 
L 272.552248 461.308532 
L 272.991732 492.514059 
L 273.431217 295.056786 
L 273.870701 378.717405 
L 274.310186 438.457349 
L 274.74967 338.702846 
L 275.189154 515.938322 
L 275.628639 216.302527 
L 276.068123 431.993665 
L 276.507608 387.951277 
L 276.947092 516.510743 
L 277.386577 398.303296 
L 278.265545 457.032498 
L 278.70503 449.279339 
L 279.144514 500.566564 
L 279.583999 350.189564 
L 280.023483 460.841923 
L 280.462967 372.917894 
L 280.902452 522.676282 
L 281.341936 468.395969 
L 281.781421 453.319752 
L 282.220905 318.811302 
L 282.66039 427.630073 
L 283.099874 381.083574 
L 283.539358 441.394975 
L 283.978843 468.580269 
L 284.418327 335.916151 
L 284.857812 331.46135 
L 285.297296 420.642091 
L 285.73678 443.500065 
L 286.176265 377.410377 
L 286.615749 376.903823 
L 287.055234 513.213983 
L 288.373687 322.022016 
L 288.813171 368.527579 
L 289.252656 390.953807 
L 289.69214 517.041331 
L 290.131625 351.886699 
L 290.571109 247.2209 
L 291.010594 390.112331 
L 291.450078 469.442079 
L 291.889562 452.253137 
L 292.329047 385.132839 
L 292.768531 403.644551 
L 293.208016 443.621397 
L 293.6475 401.907062 
L 294.086984 382.678255 
L 294.526469 475.698417 
L 294.965953 437.08289 
L 295.405438 483.240996 
L 295.844922 378.034579 
L 296.284407 404.152894 
L 296.723891 498.259403 
L 297.163375 465.479062 
L 297.60286 417.514767 
L 298.042344 349.207706 
L 298.481829 408.640273 
L 298.921313 378.648939 
L 299.360797 487.294111 
L 299.800282 338.276114 
L 300.239766 431.030923 
L 300.679251 349.699543 
L 301.118735 480.372782 
L 301.55822 446.557516 
L 301.997704 492.500836 
L 302.437188 357.352209 
L 302.876673 361.145526 
L 303.316157 464.724132 
L 303.755642 464.598338 
L 304.195126 391.732032 
L 304.634611 417.056825 
L 305.074095 380.49187 
L 305.513579 460.652989 
L 306.392548 431.340394 
L 306.832033 335.804147 
L 307.271517 459.266954 
L 307.711001 407.074417 
L 308.150486 390.757509 
L 308.58997 479.301992 
L 309.029455 396.240142 
L 309.468939 402.934323 
L 309.908424 471.018975 
L 310.347908 439.670855 
L 310.787392 289.146146 
L 311.226877 370.292868 
L 311.666361 344.816721 
L 312.105846 427.13517 
L 312.54533 362.91134 
L 312.984814 486.34797 
L 313.424299 499.052481 
L 313.863783 441.059284 
L 314.303268 459.46874 
L 314.742752 422.65184 
L 315.182237 287.123737 
L 315.621721 519.315996 
L 316.061205 393.720171 
L 316.50069 448.308266 
L 316.940174 404.356735 
L 317.379659 446.858217 
L 317.819143 458.59423 
L 318.258628 367.726236 
L 318.698112 529.594372 
L 319.137596 393.768103 
L 319.577081 464.169374 
L 320.016565 411.793934 
L 320.45605 401.940481 
L 320.895534 419.399273 
L 321.335018 518.129831 
L 321.774503 304.921579 
L 322.213987 472.318954 
L 322.653472 355.951044 
L 323.092956 410.288792 
L 323.532441 275.668148 
L 323.971925 380.293191 
L 324.411409 457.360798 
L 324.850894 498.8113 
L 325.290378 489.337905 
L 326.169347 392.343061 
L 326.608831 527.642725 
L 327.048316 427.982842 
L 327.4878 503.722991 
L 327.927285 330.826325 
L 328.366769 320.65464 
L 328.806254 487.750728 
L 329.245738 416.540693 
L 329.685222 468.336905 
L 330.124707 416.366044 
L 330.564191 439.369234 
L 331.003676 414.808067 
L 331.882645 503.090978 
L 332.322129 417.642309 
L 332.761613 482.633792 
L 333.201098 464.105331 
L 333.640582 424.398488 
L 334.080067 298.312313 
L 334.519551 420.152213 
L 334.959035 468.898743 
L 335.39852 468.876053 
L 335.838004 474.745115 
L 336.277489 264.719481 
L 336.716973 472.531261 
L 337.156458 415.827231 
L 337.595942 401.250035 
L 338.035426 430.074889 
L 338.914395 285.52848 
L 339.35388 430.249544 
L 339.793364 375.750256 
L 340.232848 349.976507 
L 340.672333 307.73126 
L 341.551302 478.284544 
L 341.990786 453.60741 
L 342.430271 457.35456 
L 342.869755 427.928879 
L 343.309239 487.272636 
L 343.748724 376.911705 
L 344.188208 479.30695 
L 344.627693 338.99361 
L 345.067177 449.927843 
L 345.506662 433.8037 
L 345.946146 370.134885 
L 346.38563 396.376066 
L 346.825115 450.941621 
L 347.264599 444.790555 
L 348.143568 368.435618 
L 348.583052 466.466079 
L 349.022537 442.080119 
L 349.462021 515.831649 
L 349.901506 415.960011 
L 350.34099 477.677758 
L 350.780475 390.156809 
L 351.219959 463.938674 
L 351.659443 385.617307 
L 352.098928 477.357606 
L 352.538412 475.597627 
L 352.977897 284.166788 
L 353.417381 411.045298 
L 353.856866 353.86461 
L 354.29635 450.393603 
L 354.735834 468.814178 
L 355.175319 520.858531 
L 355.614803 470.033251 
L 356.054288 384.4452 
L 356.493772 250.325696 
L 356.933256 412.462911 
L 357.372741 469.494213 
L 357.812225 464.341354 
L 358.25171 457.077842 
L 358.691194 470.131022 
L 359.130679 414.231966 
L 359.570163 463.411992 
L 360.009647 459.162396 
L 360.449132 336.23079 
L 360.888616 390.793745 
L 361.328101 353.230967 
L 361.767585 378.502464 
L 362.207069 544.181255 
L 362.646554 468.582931 
L 363.086038 468.171771 
L 363.525523 409.333533 
L 363.965007 458.920027 
L 364.404492 436.417421 
L 364.843976 484.66655 
L 365.28346 393.233273 
L 365.722945 386.99451 
L 366.162429 522.118476 
L 367.041398 383.328047 
L 367.480883 418.74573 
L 367.920367 425.399851 
L 368.359851 410.6698 
L 368.799336 389.693005 
L 369.23882 394.811241 
L 369.678305 307.573934 
L 370.117789 504.218421 
L 370.557273 388.446917 
L 370.996758 451.132684 
L 371.436242 329.107066 
L 371.875727 491.889556 
L 372.315211 431.312005 
L 372.754696 397.079393 
L 373.19418 442.963778 
L 373.633664 442.116051 
L 374.073149 538.89395 
L 374.512633 471.233474 
L 374.952118 305.170364 
L 375.391602 423.712572 
L 375.831086 444.675178 
L 376.270571 426.542487 
L 376.710055 476.920449 
L 377.14954 435.082034 
L 377.589024 526.197209 
L 378.028509 494.44112 
L 378.467993 326.188225 
L 378.907477 322.129354 
L 379.346962 498.620169 
L 379.786446 410.055998 
L 380.225931 412.312814 
L 380.665415 392.839569 
L 381.1049 464.617558 
L 381.544384 453.275634 
L 381.983868 478.010864 
L 382.423353 371.064843 
L 382.862837 336.847191 
L 383.302322 370.815018 
L 383.741806 316.049746 
L 384.18129 520.656399 
L 384.620775 491.255574 
L 385.499744 391.587514 
L 385.939228 384.37438 
L 386.378713 385.488903 
L 386.818197 380.960033 
L 387.257681 428.132522 
L 387.697166 420.165035 
L 388.13665 503.722378 
L 388.576135 505.166354 
L 389.015619 464.389411 
L 389.455103 219.724613 
L 389.894588 386.405148 
L 390.334072 382.269437 
L 390.773557 453.59071 
L 391.213041 487.491813 
L 391.652526 482.307681 
L 392.09201 467.22327 
L 392.531494 347.778558 
L 392.970979 452.27298 
L 393.410463 469.356969 
L 393.849948 423.482601 
L 394.289432 462.783932 
L 394.728917 458.044879 
L 395.168401 487.270632 
L 395.607885 370.412403 
L 396.04737 499.643085 
L 396.486854 366.058332 
L 396.926339 301.737502 
L 397.365823 483.430075 
L 397.805307 434.184728 
L 398.244792 461.005868 
L 398.684276 170.219984 
L 399.123761 380.803088 
L 399.563245 380.665329 
L 400.00273 315.179047 
L 400.442214 438.783856 
L 401.321183 369.826003 
L 401.760667 490.17807 
L 402.200152 493.189962 
L 402.639636 252.246471 
L 403.07912 456.442183 
L 403.518605 469.330234 
L 403.958089 323.655712 
L 404.837058 438.06776 
L 405.276543 503.388474 
L 405.716027 435.711736 
L 406.155511 478.699535 
L 406.594996 254.562275 
L 407.03448 490.066208 
L 407.473965 458.693538 
L 407.913449 385.139357 
L 408.352934 481.856404 
L 408.792418 513.22362 
L 409.231902 406.112582 
L 409.671387 397.02833 
L 410.110871 257.846727 
L 410.550356 418.691427 
L 410.98984 473.064089 
L 411.429324 427.04025 
L 411.868809 427.526336 
L 412.308293 343.935775 
L 412.747778 388.909585 
L 413.187262 483.497127 
L 413.626747 420.606843 
L 414.066231 471.766106 
L 414.505715 489.727222 
L 414.9452 444.349473 
L 415.384684 436.364826 
L 415.824169 278.128086 
L 416.263653 492.849002 
L 416.703137 397.762329 
L 417.142622 400.429798 
L 417.582106 493.978167 
L 418.461075 355.420304 
L 418.90056 487.488027 
L 419.340044 346.656689 
L 419.779528 468.681006 
L 420.219013 468.760802 
L 420.658497 404.190278 
L 421.097982 486.05446 
L 421.537466 164.498466 
L 421.976951 415.363654 
L 422.416435 541.559104 
L 422.855919 338.363889 
L 423.295404 525.12998 
L 423.734888 441.826909 
L 424.174373 466.990937 
L 424.613857 426.575827 
L 425.053341 446.787078 
L 425.492826 426.169765 
L 425.93231 440.153112 
L 426.371795 472.245192 
L 426.811279 337.014555 
L 427.250764 457.705686 
L 427.690248 426.456132 
L 428.129732 467.788378 
L 428.569217 382.006838 
L 429.008701 356.454606 
L 429.448186 429.550933 
L 429.88767 369.704342 
L 430.327154 470.498721 
L 430.766639 329.072086 
L 431.206123 475.48611 
L 431.645608 433.818108 
L 432.524577 478.114213 
L 432.964061 472.932703 
L 433.403545 424.41624 
L 433.84303 476.8292 
L 434.282514 299.629421 
L 434.721999 406.281806 
L 435.161483 368.541992 
L 435.600968 412.803724 
L 436.040452 425.702446 
L 436.479936 421.819437 
L 436.919421 433.054611 
L 437.358905 366.06493 
L 437.79839 499.75121 
L 438.237874 381.597754 
L 439.116843 490.747841 
L 439.556327 403.346746 
L 439.995812 446.080587 
L 440.435296 423.678202 
L 440.874781 345.853775 
L 441.314265 379.039304 
L 441.753749 381.28179 
L 442.193234 379.618785 
L 442.632718 384.131203 
L 443.072203 362.063248 
L 443.511687 499.416598 
L 443.951171 473.09464 
L 444.390656 438.324023 
L 444.83014 424.900334 
L 445.269625 308.501145 
L 445.709109 366.770535 
L 446.148594 302.703928 
L 446.588078 197.331156 
L 447.027562 426.463662 
L 447.467047 307.540602 
L 447.906531 415.115547 
L 448.346016 421.198815 
L 448.7855 442.69525 
L 449.224985 505.600776 
L 449.664469 387.41028 
L 450.103953 431.074922 
L 450.543438 342.531049 
L 450.982922 466.233009 
L 451.422407 366.829524 
L 451.861891 463.16557 
L 452.301375 344.472768 
L 453.180344 420.768955 
L 453.619829 487.932034 
L 454.059313 383.837029 
L 454.498798 395.55811 
L 454.938282 573.045704 
L 455.377766 436.641339 
L 455.817251 392.312252 
L 456.256735 386.732343 
L 456.69622 491.543151 
L 457.575189 453.085944 
L 458.014673 515.181729 
L 458.893642 348.628559 
L 459.333126 453.097835 
L 459.772611 363.02976 
L 460.212095 368.55043 
L 460.651579 418.410304 
L 461.091064 434.291941 
L 461.530548 424.031865 
L 461.970033 452.167056 
L 462.409517 391.285159 
L 462.849002 383.027724 
L 463.288486 475.56861 
L 463.72797 405.761149 
L 464.167455 447.410225 
L 464.606939 382.233903 
L 465.046424 444.790337 
L 465.485908 448.347661 
L 465.925392 378.203069 
L 466.364877 461.035832 
L 466.804361 436.271996 
L 467.243846 373.613482 
L 467.68333 443.627091 
L 468.122815 401.125467 
L 468.562299 398.989846 
L 469.001783 358.154901 
L 469.441268 479.660843 
L 469.880752 339.174486 
L 470.320237 396.238088 
L 470.759721 419.645748 
L 471.199206 488.504995 
L 471.63869 485.097863 
L 472.078174 400.021596 
L 472.517659 344.351872 
L 472.957143 464.033002 
L 473.396628 344.138827 
L 473.836112 345.820831 
L 474.275596 481.168256 
L 474.715081 416.920463 
L 475.154565 257.604057 
L 475.59405 483.962585 
L 476.033534 436.861876 
L 476.473019 435.224278 
L 476.912503 437.578755 
L 477.351987 453.643376 
L 477.791472 326.519418 
L 478.230956 432.038208 
L 478.670441 413.668903 
L 479.109925 341.432358 
L 479.549409 338.304884 
L 479.988894 296.40331 
L 480.428378 350.119668 
L 480.867863 580.503039 
L 481.307347 398.725094 
L 482.186316 440.942213 
L 483.065285 405.119658 
L 483.504769 496.792309 
L 483.944254 368.088917 
L 484.383738 352.987334 
L 484.823223 430.933904 
L 485.702191 264.274027 
L 486.141676 457.0129 
L 486.58116 415.314435 
L 487.020645 444.995474 
L 487.460129 399.724658 
L 487.899613 406.457878 
L 488.778582 442.057692 
L 489.218067 446.429912 
L 489.657551 472.074402 
L 490.097036 442.403573 
L 490.53652 394.752858 
L 490.976004 372.966199 
L 491.415489 418.075067 
L 491.854973 448.292366 
L 492.294458 416.727669 
L 492.733942 367.692928 
L 493.173426 467.547875 
L 493.612911 319.696923 
L 494.052395 406.623657 
L 494.49188 541.604415 
L 494.931364 381.875499 
L 495.370849 401.588122 
L 495.810333 436.206142 
L 496.249817 405.07388 
L 496.689302 401.059899 
L 497.128786 240.73089 
L 497.568271 440.389426 
L 498.007755 440.726444 
L 498.886724 511.487419 
L 499.326208 443.566842 
L 499.765693 471.819336 
L 500.205177 372.031754 
L 500.644662 408.166606 
L 501.084146 478.011271 
L 501.52363 352.844494 
L 501.963115 470.921898 
L 502.402599 464.222469 
L 502.842084 367.383865 
L 503.281568 405.244058 
L 503.721053 522.946551 
L 504.160537 541.489191 
L 504.600021 436.242235 
L 505.039506 449.896817 
L 505.47899 455.11136 
L 505.918475 456.897407 
L 506.357959 463.951536 
L 506.797443 404.060573 
L 507.236928 464.202097 
L 507.676412 502.252441 
L 508.115897 439.199025 
L 508.555381 346.787217 
L 508.994866 514.065092 
L 509.43435 385.1844 
L 509.873834 535.137383 
L 510.313319 516.847071 
L 510.752803 462.454749 
L 511.192288 299.689116 
L 511.631772 385.464554 
L 512.071257 390.97544 
L 512.510741 236.362396 
L 512.950225 432.289067 
L 513.38971 308.489787 
L 513.829194 573.376085 
L 514.268679 395.192226 
L 514.708163 498.122553 
L 515.147647 491.958813 
L 515.587132 411.941441 
L 516.026616 289.804014 
L 516.466101 433.244636 
L 516.905585 375.453176 
L 517.34507 381.902308 
L 517.784554 443.379726 
L 518.224038 395.430857 
L 518.663523 393.398541 
L 519.103007 469.84349 
L 519.542492 450.920981 
L 519.981976 460.214339 
L 520.42146 496.474434 
L 520.860945 401.246909 
L 521.300429 456.593381 
L 521.739914 489.152329 
L 522.618883 297.841822 
L 523.497851 468.763066 
L 523.937336 464.748155 
L 524.37682 399.908586 
L 524.816305 308.773668 
L 525.255789 430.714996 
L 525.695274 376.215029 
L 526.134758 442.367341 
L 526.574242 489.845858 
L 527.013727 399.284094 
L 527.453211 442.25245 
L 527.892696 456.855609 
L 528.33218 441.285224 
L 528.771664 449.865569 
L 529.211149 273.514678 
L 529.650633 450.085753 
L 530.090118 468.105575 
L 530.529602 493.820085 
L 530.969087 404.552848 
L 531.408571 447.360779 
L 531.848055 392.529042 
L 532.28754 386.611072 
L 532.727024 445.75607 
L 533.166509 468.098421 
L 533.605993 398.394332 
L 534.045477 401.013017 
L 534.484962 512.375091 
L 534.924446 480.469339 
L 535.363931 131.763818 
L 535.803415 356.883383 
L 536.2429 258.721373 
L 536.682384 419.81314 
L 537.121868 458.755458 
L 537.561353 483.521067 
L 538.000837 476.248333 
L 538.440322 392.786102 
L 538.879806 513.237672 
L 539.319291 441.705614 
L 539.758775 457.57906 
L 540.198259 479.80821 
L 540.637744 446.901243 
L 541.077228 347.204852 
L 541.516713 406.078982 
L 541.956197 374.033253 
L 542.395681 220.593928 
L 542.835166 417.687754 
L 543.27465 457.522641 
L 543.714135 443.622487 
L 544.153619 541.65166 
L 544.593104 464.021054 
L 545.032588 453.867924 
L 545.472072 376.502607 
L 545.911557 431.174041 
L 545.911557 431.174041 
" style="fill:none;stroke:#96c69a;stroke-linecap:round;stroke-width:3;"/>
   </g>
   <g id="line2d_2"/>
   <g id="patch_3">
    <path d="M 84.914375 602.94 
L 84.914375 109.326857 
" style="fill:none;stroke:#262626;stroke-linecap:square;stroke-linejoin:miter;stroke-width:2.5;"/>
   </g>
   <g id="patch_4">
    <path d="M 84.914375 602.94 
L 567.863804 602.94 
" style="fill:none;stroke:#262626;stroke-linecap:square;stroke-linejoin:miter;stroke-width:2.5;"/>
   </g>
   <g id="legend_1">
    <g id="patch_5">
     <path d="M 514.948179 597.94 
L 560.863804 597.94 
Q 562.863804 597.94 562.863804 595.94 
L 562.863804 554.034375 
Q 562.863804 552.034375 560.863804 552.034375 
L 514.948179 552.034375 
Q 512.948179 552.034375 512.948179 554.034375 
L 512.948179 595.94 
Q 512.948179 597.94 514.948179 597.94 
z
" style="fill:#ffffff;opacity:0.8;stroke:#cccccc;stroke-linejoin:miter;stroke-width:2;"/>
    </g>
    <g id="text_17">
     <!-- $n_\tau$ -->
     <g style="fill:#262626;" transform="translate(524.825991 574.270625)scale(0.24 -0.24)">
      <defs>
       <path d="M 3566 2113 
L 3156 0 
L 2578 0 
L 2988 2091 
Q 3016 2238 3031 2350 
Q 3047 2463 3047 2528 
Q 3047 2791 2881 2937 
Q 2716 3084 2419 3084 
Q 1956 3084 1622 2776 
Q 1288 2469 1184 1941 
L 800 0 
L 225 0 
L 903 3500 
L 1478 3500 
L 1363 2950 
Q 1603 3253 1940 3418 
Q 2278 3584 2650 3584 
Q 3113 3584 3367 3334 
Q 3622 3084 3622 2631 
Q 3622 2519 3608 2391 
Q 3594 2263 3566 2113 
z
" id="DejaVuSans-Oblique-6e" transform="scale(0.015625)"/>
       <path d="M 2103 638 
Q 2188 488 2525 488 
L 2800 488 
L 2706 0 
L 2363 0 
Q 1800 0 1600 300 
Q 1403 606 1534 1269 
L 1856 2925 
L 541 2925 
L 653 3500 
L 3881 3500 
L 3769 2925 
L 2444 2925 
L 2113 1234 
Q 2025 781 2103 638 
z
" id="DejaVuSans-Oblique-3c4" transform="scale(0.015625)"/>
      </defs>
      <use xlink:href="#DejaVuSans-Oblique-6e"/>
      <use transform="translate(63.378906 -16.40625)scale(0.7)" xlink:href="#DejaVuSans-Oblique-3c4"/>
     </g>
    </g>
    <g id="line2d_3">
     <path d="M 516.948179 588.360312 
L 536.948179 588.360312 
" style="fill:none;stroke:#96c69a;stroke-linecap:round;stroke-width:3;"/>
    </g>
    <g id="line2d_4"/>
    <g id="text_18">
     <!-- 50 -->
     <g style="fill:#262626;" transform="translate(544.948179 591.860312)scale(0.1 -0.1)">
      <defs>
       <path d="M 678 4666 
L 3669 4666 
L 3669 3781 
L 1638 3781 
L 1638 3059 
Q 1775 3097 1914 3117 
Q 2053 3138 2203 3138 
Q 3056 3138 3531 2711 
Q 4006 2284 4006 1522 
Q 4006 766 3489 337 
Q 2972 -91 2053 -91 
Q 1656 -91 1267 -14 
Q 878 63 494 219 
L 494 1166 
Q 875 947 1217 837 
Q 1559 728 1863 728 
Q 2300 728 2551 942 
Q 2803 1156 2803 1522 
Q 2803 1891 2551 2103 
Q 2300 2316 1863 2316 
Q 1603 2316 1309 2248 
Q 1016 2181 678 2041 
L 678 4666 
z
" id="DejaVuSans-Bold-35" transform="scale(0.015625)"/>
       <path d="M 2944 2338 
Q 2944 3213 2780 3570 
Q 2616 3928 2228 3928 
Q 1841 3928 1675 3570 
Q 1509 3213 1509 2338 
Q 1509 1453 1675 1090 
Q 1841 728 2228 728 
Q 2613 728 2778 1090 
Q 2944 1453 2944 2338 
z
M 4147 2328 
Q 4147 1169 3647 539 
Q 3147 -91 2228 -91 
Q 1306 -91 806 539 
Q 306 1169 306 2328 
Q 306 3491 806 4120 
Q 1306 4750 2228 4750 
Q 3147 4750 3647 4120 
Q 4147 3491 4147 2328 
z
" id="DejaVuSans-Bold-30" transform="scale(0.015625)"/>
      </defs>
      <use xlink:href="#DejaVuSans-Bold-35"/>
      <use x="69.580078" xlink:href="#DejaVuSans-Bold-30"/>
     </g>
    </g>
   </g>
  </g>
  <g id="axes_2">
   <g id="patch_6">
    <path d="M 84.914375 92.305714 
L 567.863804 92.305714 
L 567.863804 7.2 
L 84.914375 7.2 
z
" style="fill:none;"/>
   </g>
   <g id="matplotlib.axis_3">
    <g id="xtick_7"/>
    <g id="xtick_8"/>
    <g id="xtick_9"/>
    <g id="xtick_10"/>
    <g id="xtick_11"/>
    <g id="xtick_12"/>
   </g>
   <g id="matplotlib.axis_4">
    <g id="ytick_9">
     <g id="text_19">
      <!-- 0 -->
      <g style="fill:#262626;" transform="translate(55.416875 100.663996)scale(0.22 -0.22)">
       <use xlink:href="#DejaVuSans-30"/>
      </g>
     </g>
    </g>
    <g id="ytick_10">
     <g id="text_20">
      <!-- 50 -->
      <g style="fill:#262626;" transform="translate(41.419375 56.129347)scale(0.22 -0.22)">
       <use xlink:href="#DejaVuSans-35"/>
       <use x="63.623047" xlink:href="#DejaVuSans-30"/>
      </g>
     </g>
    </g>
   </g>
   <g id="patch_7">
    <path clip-path="url(#p817bdc26d2)" d="M 106.866622 92.305714 
L 146.779798 92.305714 
L 146.779798 11.252653 
L 106.866622 11.252653 
z
" style="fill:#96c69a;fill-opacity:0.5;stroke:#ffffff;stroke-linejoin:miter;stroke-width:2;"/>
   </g>
   <g id="patch_8">
    <path clip-path="url(#p817bdc26d2)" d="M 146.779798 92.305714 
L 186.692974 92.305714 
L 186.692974 11.252653 
L 146.779798 11.252653 
z
" style="fill:#96c69a;fill-opacity:0.5;stroke:#ffffff;stroke-linejoin:miter;stroke-width:2;"/>
   </g>
   <g id="patch_9">
    <path clip-path="url(#p817bdc26d2)" d="M 186.692974 92.305714 
L 226.606149 92.305714 
L 226.606149 11.252653 
L 186.692974 11.252653 
z
" style="fill:#96c69a;fill-opacity:0.5;stroke:#ffffff;stroke-linejoin:miter;stroke-width:2;"/>
   </g>
   <g id="patch_10">
    <path clip-path="url(#p817bdc26d2)" d="M 226.606149 92.305714 
L 266.519325 92.305714 
L 266.519325 11.252653 
L 226.606149 11.252653 
z
" style="fill:#96c69a;fill-opacity:0.5;stroke:#ffffff;stroke-linejoin:miter;stroke-width:2;"/>
   </g>
   <g id="patch_11">
    <path clip-path="url(#p817bdc26d2)" d="M 266.519325 92.305714 
L 306.432501 92.305714 
L 306.432501 11.252653 
L 266.519325 11.252653 
z
" style="fill:#96c69a;fill-opacity:0.5;stroke:#ffffff;stroke-linejoin:miter;stroke-width:2;"/>
   </g>
   <g id="patch_12">
    <path clip-path="url(#p817bdc26d2)" d="M 306.432501 92.305714 
L 346.345677 92.305714 
L 346.345677 12.143346 
L 306.432501 12.143346 
z
" style="fill:#96c69a;fill-opacity:0.5;stroke:#ffffff;stroke-linejoin:miter;stroke-width:2;"/>
   </g>
   <g id="patch_13">
    <path clip-path="url(#p817bdc26d2)" d="M 346.345677 92.305714 
L 386.258853 92.305714 
L 386.258853 11.252653 
L 346.345677 11.252653 
z
" style="fill:#96c69a;fill-opacity:0.5;stroke:#ffffff;stroke-linejoin:miter;stroke-width:2;"/>
   </g>
   <g id="patch_14">
    <path clip-path="url(#p817bdc26d2)" d="M 386.258853 92.305714 
L 426.172029 92.305714 
L 426.172029 11.252653 
L 386.258853 11.252653 
z
" style="fill:#96c69a;fill-opacity:0.5;stroke:#ffffff;stroke-linejoin:miter;stroke-width:2;"/>
   </g>
   <g id="patch_15">
    <path clip-path="url(#p817bdc26d2)" d="M 426.172029 92.305714 
L 466.085205 92.305714 
L 466.085205 11.252653 
L 426.172029 11.252653 
z
" style="fill:#96c69a;fill-opacity:0.5;stroke:#ffffff;stroke-linejoin:miter;stroke-width:2;"/>
   </g>
   <g id="patch_16">
    <path clip-path="url(#p817bdc26d2)" d="M 466.085205 92.305714 
L 505.998381 92.305714 
L 505.998381 11.252653 
L 466.085205 11.252653 
z
" style="fill:#96c69a;fill-opacity:0.5;stroke:#ffffff;stroke-linejoin:miter;stroke-width:2;"/>
   </g>
   <g id="patch_17">
    <path clip-path="url(#p817bdc26d2)" d="M 505.998381 92.305714 
L 545.911557 92.305714 
L 545.911557 11.252653 
L 505.998381 11.252653 
z
" style="fill:#96c69a;fill-opacity:0.5;stroke:#ffffff;stroke-linejoin:miter;stroke-width:2;"/>
   </g>
   <g id="patch_18">
    <path d="M 84.914375 92.305714 
L 84.914375 7.2 
" style="fill:none;stroke:#262626;stroke-linecap:square;stroke-linejoin:miter;stroke-width:2.5;"/>
   </g>
   <g id="patch_19">
    <path d="M 84.914375 92.305714 
L 567.863804 92.305714 
" style="fill:none;stroke:#262626;stroke-linecap:square;stroke-linejoin:miter;stroke-width:2.5;"/>
   </g>
  </g>
  <g id="axes_3">
   <g id="patch_20">
    <path d="M 584.517232 602.94 
L 667.784375 602.94 
L 667.784375 109.326857 
L 584.517232 109.326857 
z
" style="fill:none;"/>
   </g>
   <g id="matplotlib.axis_5">
    <g id="xtick_13">
     <g id="text_21">
      <!-- 0 -->
      <g style="fill:#262626;" transform="translate(577.518482 635.156562)scale(0.22 -0.22)">
       <use xlink:href="#DejaVuSans-30"/>
      </g>
     </g>
    </g>
    <g id="xtick_14">
     <g id="text_22">
      <!-- 100 -->
      <g style="fill:#262626;" transform="translate(634.326376 635.156562)scale(0.22 -0.22)">
       <use xlink:href="#DejaVuSans-31"/>
       <use x="63.623047" xlink:href="#DejaVuSans-30"/>
       <use x="127.246094" xlink:href="#DejaVuSans-30"/>
      </g>
     </g>
    </g>
   </g>
   <g id="matplotlib.axis_6">
    <g id="ytick_11"/>
    <g id="ytick_12"/>
    <g id="ytick_13"/>
    <g id="ytick_14"/>
    <g id="ytick_15"/>
    <g id="ytick_16"/>
    <g id="ytick_17"/>
    <g id="ytick_18"/>
   </g>
   <g id="patch_21">
    <path clip-path="url(#p59905ec54a)" d="M 584.517232 580.503039 
L 586.641394 580.503039 
L 586.641394 564.476638 
L 584.517232 564.476638 
z
" style="fill:#96c69a;fill-opacity:0.5;stroke:#ffffff;stroke-linejoin:miter;stroke-width:1.60264;"/>
   </g>
   <g id="patch_22">
    <path clip-path="url(#p59905ec54a)" d="M 584.517232 564.476638 
L 585.93334 564.476638 
L 585.93334 548.450237 
L 584.517232 548.450237 
z
" style="fill:#96c69a;fill-opacity:0.5;stroke:#ffffff;stroke-linejoin:miter;stroke-width:1.60264;"/>
   </g>
   <g id="patch_23">
    <path clip-path="url(#p59905ec54a)" d="M 584.517232 548.450237 
L 592.305825 548.450237 
L 592.305825 532.423837 
L 584.517232 532.423837 
z
" style="fill:#96c69a;fill-opacity:0.5;stroke:#ffffff;stroke-linejoin:miter;stroke-width:1.60264;"/>
   </g>
   <g id="patch_24">
    <path clip-path="url(#p59905ec54a)" d="M 584.517232 532.423837 
L 597.970257 532.423837 
L 597.970257 516.397436 
L 584.517232 516.397436 
z
" style="fill:#96c69a;fill-opacity:0.5;stroke:#ffffff;stroke-linejoin:miter;stroke-width:1.60264;"/>
   </g>
   <g id="patch_25">
    <path clip-path="url(#p59905ec54a)" d="M 584.517232 516.397436 
L 610.007174 516.397436 
L 610.007174 500.371035 
L 584.517232 500.371035 
z
" style="fill:#96c69a;fill-opacity:0.5;stroke:#ffffff;stroke-linejoin:miter;stroke-width:1.60264;"/>
   </g>
   <g id="patch_26">
    <path clip-path="url(#p59905ec54a)" d="M 584.517232 500.371035 
L 629.12463 500.371035 
L 629.12463 484.344635 
L 584.517232 484.344635 
z
" style="fill:#96c69a;fill-opacity:0.5;stroke:#ffffff;stroke-linejoin:miter;stroke-width:1.60264;"/>
   </g>
   <g id="patch_27">
    <path clip-path="url(#p59905ec54a)" d="M 584.517232 484.344635 
L 650.366248 484.344635 
L 650.366248 468.318234 
L 584.517232 468.318234 
z
" style="fill:#96c69a;fill-opacity:0.5;stroke:#ffffff;stroke-linejoin:miter;stroke-width:1.60264;"/>
   </g>
   <g id="patch_28">
    <path clip-path="url(#p59905ec54a)" d="M 584.517232 468.318234 
L 653.906518 468.318234 
L 653.906518 452.291833 
L 584.517232 452.291833 
z
" style="fill:#96c69a;fill-opacity:0.5;stroke:#ffffff;stroke-linejoin:miter;stroke-width:1.60264;"/>
   </g>
   <g id="patch_29">
    <path clip-path="url(#p59905ec54a)" d="M 584.517232 452.291833 
L 663.819273 452.291833 
L 663.819273 436.265432 
L 584.517232 436.265432 
z
" style="fill:#96c69a;fill-opacity:0.5;stroke:#ffffff;stroke-linejoin:miter;stroke-width:1.60264;"/>
   </g>
   <g id="patch_30">
    <path clip-path="url(#p59905ec54a)" d="M 584.517232 436.265432 
L 651.782356 436.265432 
L 651.782356 420.239032 
L 584.517232 420.239032 
z
" style="fill:#96c69a;fill-opacity:0.5;stroke:#ffffff;stroke-linejoin:miter;stroke-width:1.60264;"/>
   </g>
   <g id="patch_31">
    <path clip-path="url(#p59905ec54a)" d="M 584.517232 420.239032 
L 652.49041 420.239032 
L 652.49041 404.212631 
L 584.517232 404.212631 
z
" style="fill:#96c69a;fill-opacity:0.5;stroke:#ffffff;stroke-linejoin:miter;stroke-width:1.60264;"/>
   </g>
   <g id="patch_32">
    <path clip-path="url(#p59905ec54a)" d="M 584.517232 404.212631 
L 649.658194 404.212631 
L 649.658194 388.18623 
L 584.517232 388.18623 
z
" style="fill:#96c69a;fill-opacity:0.5;stroke:#ffffff;stroke-linejoin:miter;stroke-width:1.60264;"/>
   </g>
   <g id="patch_33">
    <path clip-path="url(#p59905ec54a)" d="M 584.517232 388.18623 
L 636.205169 388.18623 
L 636.205169 372.159829 
L 584.517232 372.159829 
z
" style="fill:#96c69a;fill-opacity:0.5;stroke:#ffffff;stroke-linejoin:miter;stroke-width:1.60264;"/>
   </g>
   <g id="patch_34">
    <path clip-path="url(#p59905ec54a)" d="M 584.517232 372.159829 
L 624.168253 372.159829 
L 624.168253 356.133429 
L 584.517232 356.133429 
z
" style="fill:#96c69a;fill-opacity:0.5;stroke:#ffffff;stroke-linejoin:miter;stroke-width:1.60264;"/>
   </g>
   <g id="patch_35">
    <path clip-path="url(#p59905ec54a)" d="M 584.517232 356.133429 
L 617.795767 356.133429 
L 617.795767 340.107028 
L 584.517232 340.107028 
z
" style="fill:#96c69a;fill-opacity:0.5;stroke:#ffffff;stroke-linejoin:miter;stroke-width:1.60264;"/>
   </g>
   <g id="patch_36">
    <path clip-path="url(#p59905ec54a)" d="M 584.517232 340.107028 
L 601.510527 340.107028 
L 601.510527 324.080627 
L 584.517232 324.080627 
z
" style="fill:#96c69a;fill-opacity:0.5;stroke:#ffffff;stroke-linejoin:miter;stroke-width:1.60264;"/>
   </g>
   <g id="patch_37">
    <path clip-path="url(#p59905ec54a)" d="M 584.517232 324.080627 
L 597.262203 324.080627 
L 597.262203 308.054226 
L 584.517232 308.054226 
z
" style="fill:#96c69a;fill-opacity:0.5;stroke:#ffffff;stroke-linejoin:miter;stroke-width:1.60264;"/>
   </g>
   <g id="patch_38">
    <path clip-path="url(#p59905ec54a)" d="M 584.517232 308.054226 
L 597.970257 308.054226 
L 597.970257 292.027826 
L 584.517232 292.027826 
z
" style="fill:#96c69a;fill-opacity:0.5;stroke:#ffffff;stroke-linejoin:miter;stroke-width:1.60264;"/>
   </g>
   <g id="patch_39">
    <path clip-path="url(#p59905ec54a)" d="M 584.517232 292.027826 
L 593.721933 292.027826 
L 593.721933 276.001425 
L 584.517232 276.001425 
z
" style="fill:#96c69a;fill-opacity:0.5;stroke:#ffffff;stroke-linejoin:miter;stroke-width:1.60264;"/>
   </g>
   <g id="patch_40">
    <path clip-path="url(#p59905ec54a)" d="M 584.517232 276.001425 
L 590.181664 276.001425 
L 590.181664 259.975024 
L 584.517232 259.975024 
z
" style="fill:#96c69a;fill-opacity:0.5;stroke:#ffffff;stroke-linejoin:miter;stroke-width:1.60264;"/>
   </g>
   <g id="patch_41">
    <path clip-path="url(#p59905ec54a)" d="M 584.517232 259.975024 
L 593.721933 259.975024 
L 593.721933 243.948623 
L 584.517232 243.948623 
z
" style="fill:#96c69a;fill-opacity:0.5;stroke:#ffffff;stroke-linejoin:miter;stroke-width:1.60264;"/>
   </g>
   <g id="patch_42">
    <path clip-path="url(#p59905ec54a)" d="M 584.517232 243.948623 
L 585.93334 243.948623 
L 585.93334 227.922223 
L 584.517232 227.922223 
z
" style="fill:#96c69a;fill-opacity:0.5;stroke:#ffffff;stroke-linejoin:miter;stroke-width:1.60264;"/>
   </g>
   <g id="patch_43">
    <path clip-path="url(#p59905ec54a)" d="M 584.517232 227.922223 
L 586.641394 227.922223 
L 586.641394 211.895822 
L 584.517232 211.895822 
z
" style="fill:#96c69a;fill-opacity:0.5;stroke:#ffffff;stroke-linejoin:miter;stroke-width:1.60264;"/>
   </g>
   <g id="patch_44">
    <path clip-path="url(#p59905ec54a)" d="M 584.517232 211.895822 
L 585.225286 211.895822 
L 585.225286 195.869421 
L 584.517232 195.869421 
z
" style="fill:#96c69a;fill-opacity:0.5;stroke:#ffffff;stroke-linejoin:miter;stroke-width:1.60264;"/>
   </g>
   <g id="patch_45">
    <path clip-path="url(#p59905ec54a)" d="M 584.517232 195.869421 
L 584.517232 195.869421 
L 584.517232 179.84302 
L 584.517232 179.84302 
z
" style="fill:#96c69a;fill-opacity:0.5;stroke:#ffffff;stroke-linejoin:miter;stroke-width:1.60264;"/>
   </g>
   <g id="patch_46">
    <path clip-path="url(#p59905ec54a)" d="M 584.517232 179.84302 
L 585.93334 179.84302 
L 585.93334 163.81662 
L 584.517232 163.81662 
z
" style="fill:#96c69a;fill-opacity:0.5;stroke:#ffffff;stroke-linejoin:miter;stroke-width:1.60264;"/>
   </g>
   <g id="patch_47">
    <path clip-path="url(#p59905ec54a)" d="M 584.517232 163.81662 
L 584.517232 163.81662 
L 584.517232 147.790219 
L 584.517232 147.790219 
z
" style="fill:#96c69a;fill-opacity:0.5;stroke:#ffffff;stroke-linejoin:miter;stroke-width:1.60264;"/>
   </g>
   <g id="patch_48">
    <path clip-path="url(#p59905ec54a)" d="M 584.517232 147.790219 
L 585.225286 147.790219 
L 585.225286 131.763818 
L 584.517232 131.763818 
z
" style="fill:#96c69a;fill-opacity:0.5;stroke:#ffffff;stroke-linejoin:miter;stroke-width:1.60264;"/>
   </g>
   <g id="patch_49">
    <path d="M 584.517232 602.94 
L 584.517232 109.326857 
" style="fill:none;stroke:#262626;stroke-linecap:square;stroke-linejoin:miter;stroke-width:2.5;"/>
   </g>
   <g id="patch_50">
    <path d="M 584.517232 602.94 
L 667.784375 602.94 
" style="fill:none;stroke:#262626;stroke-linecap:square;stroke-linejoin:miter;stroke-width:2.5;"/>
   </g>
  </g>
 </g>
 <defs>
  <clipPath id="p8fbda16d9f">
   <rect height="493.613143" width="482.949429" x="84.914375" y="109.326857"/>
  </clipPath>
  <clipPath id="p817bdc26d2">
   <rect height="85.105714" width="482.949429" x="84.914375" y="7.2"/>
  </clipPath>
  <clipPath id="p59905ec54a">
   <rect height="493.613143" width="83.267143" x="584.517232" y="109.326857"/>
  </clipPath>
 </defs>
</svg>
