<?xml version="1.0" encoding="utf-8" standalone="no"?>
<!DOCTYPE svg PUBLIC "-//W3C//DTD SVG 1.1//EN"
  "http://www.w3.org/Graphics/SVG/1.1/DTD/svg11.dtd">
<svg height="674.159375pt" version="1.1" viewBox="0 0 681.07731 674.159375" width="681.07731pt" xmlns="http://www.w3.org/2000/svg" xmlns:xlink="http://www.w3.org/1999/xlink">
 <metadata>
  <rdf:RDF xmlns:cc="http://creativecommons.org/ns#" xmlns:dc="http://purl.org/dc/elements/1.1/" xmlns:rdf="http://www.w3.org/1999/02/22-rdf-syntax-ns#">
   <cc:Work>
    <dc:type rdf:resource="http://purl.org/dc/dcmitype/StillImage"/>
    <dc:date>2021-07-24T14:50:50.409849</dc:date>
    <dc:format>image/svg+xml</dc:format>
    <dc:creator>
     <cc:Agent>
      <dc:title>Matplotlib v3.4.2, https://matplotlib.org/</dc:title>
     </cc:Agent>
    </dc:creator>
   </cc:Work>
  </rdf:RDF>
 </metadata>
 <defs>
  <style type="text/css">*{stroke-linecap:butt;stroke-linejoin:round;}</style>
 </defs>
 <g id="figure_1">
  <g id="patch_1">
   <path d="M 0 674.159375 
L 681.07731 674.159375 
L 681.07731 0 
L 0 0 
z
" style="fill:#ffffff;"/>
  </g>
  <g id="axes_1">
   <g id="patch_2">
    <path d="M 84.914375 602.94 
L 567.863804 602.94 
L 567.863804 109.326857 
L 84.914375 109.326857 
z
" style="fill:none;"/>
   </g>
   <g id="matplotlib.axis_1">
    <g id="xtick_1">
     <g id="text_1">
      <!-- 0 -->
      <g style="fill:#262626;" transform="translate(99.428387 635.156562)scale(0.22 -0.22)">
       <defs>
        <path d="M 2034 4250 
Q 1547 4250 1301 3770 
Q 1056 3291 1056 2328 
Q 1056 1369 1301 889 
Q 1547 409 2034 409 
Q 2525 409 2770 889 
Q 3016 1369 3016 2328 
Q 3016 3291 2770 3770 
Q 2525 4250 2034 4250 
z
M 2034 4750 
Q 2819 4750 3233 4129 
Q 3647 3509 3647 2328 
Q 3647 1150 3233 529 
Q 2819 -91 2034 -91 
Q 1250 -91 836 529 
Q 422 1150 422 2328 
Q 422 3509 836 4129 
Q 1250 4750 2034 4750 
z
" id="DejaVuSans-30" transform="scale(0.015625)"/>
       </defs>
       <use xlink:href="#DejaVuSans-30"/>
      </g>
     </g>
    </g>
    <g id="xtick_2">
     <g id="text_2">
      <!-- 20000 -->
      <g style="fill:#262626;" transform="translate(159.330271 635.156562)scale(0.22 -0.22)">
       <defs>
        <path d="M 1228 531 
L 3431 531 
L 3431 0 
L 469 0 
L 469 531 
Q 828 903 1448 1529 
Q 2069 2156 2228 2338 
Q 2531 2678 2651 2914 
Q 2772 3150 2772 3378 
Q 2772 3750 2511 3984 
Q 2250 4219 1831 4219 
Q 1534 4219 1204 4116 
Q 875 4013 500 3803 
L 500 4441 
Q 881 4594 1212 4672 
Q 1544 4750 1819 4750 
Q 2544 4750 2975 4387 
Q 3406 4025 3406 3419 
Q 3406 3131 3298 2873 
Q 3191 2616 2906 2266 
Q 2828 2175 2409 1742 
Q 1991 1309 1228 531 
z
" id="DejaVuSans-32" transform="scale(0.015625)"/>
       </defs>
       <use xlink:href="#DejaVuSans-32"/>
       <use x="63.623047" xlink:href="#DejaVuSans-30"/>
       <use x="127.246094" xlink:href="#DejaVuSans-30"/>
       <use x="190.869141" xlink:href="#DejaVuSans-30"/>
       <use x="254.492188" xlink:href="#DejaVuSans-30"/>
      </g>
     </g>
    </g>
    <g id="xtick_3">
     <g id="text_3">
      <!-- 40000 -->
      <g style="fill:#262626;" transform="translate(247.227155 635.156562)scale(0.22 -0.22)">
       <defs>
        <path d="M 2419 4116 
L 825 1625 
L 2419 1625 
L 2419 4116 
z
M 2253 4666 
L 3047 4666 
L 3047 1625 
L 3713 1625 
L 3713 1100 
L 3047 1100 
L 3047 0 
L 2419 0 
L 2419 1100 
L 313 1100 
L 313 1709 
L 2253 4666 
z
" id="DejaVuSans-34" transform="scale(0.015625)"/>
       </defs>
       <use xlink:href="#DejaVuSans-34"/>
       <use x="63.623047" xlink:href="#DejaVuSans-30"/>
       <use x="127.246094" xlink:href="#DejaVuSans-30"/>
       <use x="190.869141" xlink:href="#DejaVuSans-30"/>
       <use x="254.492188" xlink:href="#DejaVuSans-30"/>
      </g>
     </g>
    </g>
    <g id="xtick_4">
     <g id="text_4">
      <!-- 60000 -->
      <g style="fill:#262626;" transform="translate(335.124039 635.156562)scale(0.22 -0.22)">
       <defs>
        <path d="M 2113 2584 
Q 1688 2584 1439 2293 
Q 1191 2003 1191 1497 
Q 1191 994 1439 701 
Q 1688 409 2113 409 
Q 2538 409 2786 701 
Q 3034 994 3034 1497 
Q 3034 2003 2786 2293 
Q 2538 2584 2113 2584 
z
M 3366 4563 
L 3366 3988 
Q 3128 4100 2886 4159 
Q 2644 4219 2406 4219 
Q 1781 4219 1451 3797 
Q 1122 3375 1075 2522 
Q 1259 2794 1537 2939 
Q 1816 3084 2150 3084 
Q 2853 3084 3261 2657 
Q 3669 2231 3669 1497 
Q 3669 778 3244 343 
Q 2819 -91 2113 -91 
Q 1303 -91 875 529 
Q 447 1150 447 2328 
Q 447 3434 972 4092 
Q 1497 4750 2381 4750 
Q 2619 4750 2861 4703 
Q 3103 4656 3366 4563 
z
" id="DejaVuSans-36" transform="scale(0.015625)"/>
       </defs>
       <use xlink:href="#DejaVuSans-36"/>
       <use x="63.623047" xlink:href="#DejaVuSans-30"/>
       <use x="127.246094" xlink:href="#DejaVuSans-30"/>
       <use x="190.869141" xlink:href="#DejaVuSans-30"/>
       <use x="254.492188" xlink:href="#DejaVuSans-30"/>
      </g>
     </g>
    </g>
    <g id="xtick_5">
     <g id="text_5">
      <!-- 80000 -->
      <g style="fill:#262626;" transform="translate(423.020923 635.156562)scale(0.22 -0.22)">
       <defs>
        <path d="M 2034 2216 
Q 1584 2216 1326 1975 
Q 1069 1734 1069 1313 
Q 1069 891 1326 650 
Q 1584 409 2034 409 
Q 2484 409 2743 651 
Q 3003 894 3003 1313 
Q 3003 1734 2745 1975 
Q 2488 2216 2034 2216 
z
M 1403 2484 
Q 997 2584 770 2862 
Q 544 3141 544 3541 
Q 544 4100 942 4425 
Q 1341 4750 2034 4750 
Q 2731 4750 3128 4425 
Q 3525 4100 3525 3541 
Q 3525 3141 3298 2862 
Q 3072 2584 2669 2484 
Q 3125 2378 3379 2068 
Q 3634 1759 3634 1313 
Q 3634 634 3220 271 
Q 2806 -91 2034 -91 
Q 1263 -91 848 271 
Q 434 634 434 1313 
Q 434 1759 690 2068 
Q 947 2378 1403 2484 
z
M 1172 3481 
Q 1172 3119 1398 2916 
Q 1625 2713 2034 2713 
Q 2441 2713 2670 2916 
Q 2900 3119 2900 3481 
Q 2900 3844 2670 4047 
Q 2441 4250 2034 4250 
Q 1625 4250 1398 4047 
Q 1172 3844 1172 3481 
z
" id="DejaVuSans-38" transform="scale(0.015625)"/>
       </defs>
       <use xlink:href="#DejaVuSans-38"/>
       <use x="63.623047" xlink:href="#DejaVuSans-30"/>
       <use x="127.246094" xlink:href="#DejaVuSans-30"/>
       <use x="190.869141" xlink:href="#DejaVuSans-30"/>
       <use x="254.492188" xlink:href="#DejaVuSans-30"/>
      </g>
     </g>
    </g>
    <g id="xtick_6">
     <g id="text_6">
      <!-- 100000 -->
      <g style="fill:#262626;" transform="translate(503.919057 635.156562)scale(0.22 -0.22)">
       <defs>
        <path d="M 794 531 
L 1825 531 
L 1825 4091 
L 703 3866 
L 703 4441 
L 1819 4666 
L 2450 4666 
L 2450 531 
L 3481 531 
L 3481 0 
L 794 0 
L 794 531 
z
" id="DejaVuSans-31" transform="scale(0.015625)"/>
       </defs>
       <use xlink:href="#DejaVuSans-31"/>
       <use x="63.623047" xlink:href="#DejaVuSans-30"/>
       <use x="127.246094" xlink:href="#DejaVuSans-30"/>
       <use x="190.869141" xlink:href="#DejaVuSans-30"/>
       <use x="254.492188" xlink:href="#DejaVuSans-30"/>
       <use x="318.115234" xlink:href="#DejaVuSans-30"/>
      </g>
     </g>
    </g>
    <g id="text_7">
     <!-- MDTU -->
     <g style="fill:#262626;" transform="translate(290.683464 661.968125)scale(0.24 -0.24)">
      <defs>
       <path d="M 628 4666 
L 1569 4666 
L 2759 1491 
L 3956 4666 
L 4897 4666 
L 4897 0 
L 4281 0 
L 4281 4097 
L 3078 897 
L 2444 897 
L 1241 4097 
L 1241 0 
L 628 0 
L 628 4666 
z
" id="DejaVuSans-4d" transform="scale(0.015625)"/>
       <path d="M 1259 4147 
L 1259 519 
L 2022 519 
Q 2988 519 3436 956 
Q 3884 1394 3884 2338 
Q 3884 3275 3436 3711 
Q 2988 4147 2022 4147 
L 1259 4147 
z
M 628 4666 
L 1925 4666 
Q 3281 4666 3915 4102 
Q 4550 3538 4550 2338 
Q 4550 1131 3912 565 
Q 3275 0 1925 0 
L 628 0 
L 628 4666 
z
" id="DejaVuSans-44" transform="scale(0.015625)"/>
       <path d="M -19 4666 
L 3928 4666 
L 3928 4134 
L 2272 4134 
L 2272 0 
L 1638 0 
L 1638 4134 
L -19 4134 
L -19 4666 
z
" id="DejaVuSans-54" transform="scale(0.015625)"/>
       <path d="M 556 4666 
L 1191 4666 
L 1191 1831 
Q 1191 1081 1462 751 
Q 1734 422 2344 422 
Q 2950 422 3222 751 
Q 3494 1081 3494 1831 
L 3494 4666 
L 4128 4666 
L 4128 1753 
Q 4128 841 3676 375 
Q 3225 -91 2344 -91 
Q 1459 -91 1007 375 
Q 556 841 556 1753 
L 556 4666 
z
" id="DejaVuSans-55" transform="scale(0.015625)"/>
      </defs>
      <use xlink:href="#DejaVuSans-4d"/>
      <use x="86.279297" xlink:href="#DejaVuSans-44"/>
      <use x="163.28125" xlink:href="#DejaVuSans-54"/>
      <use x="224.365234" xlink:href="#DejaVuSans-55"/>
     </g>
    </g>
   </g>
   <g id="matplotlib.axis_2">
    <g id="ytick_1">
     <g id="text_8">
      <!-- 0.4 -->
      <g style="fill:#262626;" transform="translate(34.4275 589.057656)scale(0.22 -0.22)">
       <defs>
        <path d="M 684 794 
L 1344 794 
L 1344 0 
L 684 0 
L 684 794 
z
" id="DejaVuSans-2e" transform="scale(0.015625)"/>
       </defs>
       <use xlink:href="#DejaVuSans-30"/>
       <use x="63.623047" xlink:href="#DejaVuSans-2e"/>
       <use x="95.410156" xlink:href="#DejaVuSans-34"/>
      </g>
     </g>
    </g>
    <g id="ytick_2">
     <g id="text_9">
      <!-- 0.6 -->
      <g style="fill:#262626;" transform="translate(34.4275 517.13482)scale(0.22 -0.22)">
       <use xlink:href="#DejaVuSans-30"/>
       <use x="63.623047" xlink:href="#DejaVuSans-2e"/>
       <use x="95.410156" xlink:href="#DejaVuSans-36"/>
      </g>
     </g>
    </g>
    <g id="ytick_3">
     <g id="text_10">
      <!-- 0.8 -->
      <g style="fill:#262626;" transform="translate(34.4275 445.211985)scale(0.22 -0.22)">
       <use xlink:href="#DejaVuSans-30"/>
       <use x="63.623047" xlink:href="#DejaVuSans-2e"/>
       <use x="95.410156" xlink:href="#DejaVuSans-38"/>
      </g>
     </g>
    </g>
    <g id="ytick_4">
     <g id="text_11">
      <!-- 1.0 -->
      <g style="fill:#262626;" transform="translate(34.4275 373.289149)scale(0.22 -0.22)">
       <use xlink:href="#DejaVuSans-31"/>
       <use x="63.623047" xlink:href="#DejaVuSans-2e"/>
       <use x="95.410156" xlink:href="#DejaVuSans-30"/>
      </g>
     </g>
    </g>
    <g id="ytick_5">
     <g id="text_12">
      <!-- 1.2 -->
      <g style="fill:#262626;" transform="translate(34.4275 301.366314)scale(0.22 -0.22)">
       <use xlink:href="#DejaVuSans-31"/>
       <use x="63.623047" xlink:href="#DejaVuSans-2e"/>
       <use x="95.410156" xlink:href="#DejaVuSans-32"/>
      </g>
     </g>
    </g>
    <g id="ytick_6">
     <g id="text_13">
      <!-- 1.4 -->
      <g style="fill:#262626;" transform="translate(34.4275 229.443478)scale(0.22 -0.22)">
       <use xlink:href="#DejaVuSans-31"/>
       <use x="63.623047" xlink:href="#DejaVuSans-2e"/>
       <use x="95.410156" xlink:href="#DejaVuSans-34"/>
      </g>
     </g>
    </g>
    <g id="ytick_7">
     <g id="text_14">
      <!-- 1.6 -->
      <g style="fill:#262626;" transform="translate(34.4275 157.520643)scale(0.22 -0.22)">
       <use xlink:href="#DejaVuSans-31"/>
       <use x="63.623047" xlink:href="#DejaVuSans-2e"/>
       <use x="95.410156" xlink:href="#DejaVuSans-36"/>
      </g>
     </g>
    </g>
    <g id="text_15">
     <!-- $E$ -->
     <g style="fill:#262626;" transform="translate(25.43625 363.813429)rotate(-90)scale(0.24 -0.24)">
      <defs>
       <path d="M 1081 4666 
L 4031 4666 
L 3928 4134 
L 1606 4134 
L 1338 2753 
L 3566 2753 
L 3463 2222 
L 1234 2222 
L 909 531 
L 3284 531 
L 3181 0 
L 172 0 
L 1081 4666 
z
" id="DejaVuSans-Oblique-45" transform="scale(0.015625)"/>
      </defs>
      <use transform="translate(0 0.09375)" xlink:href="#DejaVuSans-Oblique-45"/>
     </g>
    </g>
   </g>
   <g id="line2d_1">
    <path clip-path="url(#p3a081daabb)" d="M 106.866622 431.521516 
L 107.306106 470.471025 
L 107.745591 454.138707 
L 108.185075 447.236503 
L 108.624559 518.64385 
L 109.064044 456.872221 
L 109.503528 361.092115 
L 109.943013 339.232122 
L 110.382497 531.341301 
L 110.821982 482.122483 
L 111.261466 485.912216 
L 111.70095 354.180976 
L 112.140435 418.530774 
L 112.579919 465.900304 
L 113.019404 500.526377 
L 113.898372 394.074311 
L 114.337857 391.171589 
L 114.777341 358.701808 
L 115.216826 452.734362 
L 115.65631 323.586609 
L 116.095795 363.015 
L 116.535279 375.209747 
L 116.974763 360.093559 
L 117.414248 450.763228 
L 117.853732 512.713191 
L 118.293217 418.371113 
L 118.732701 363.702341 
L 119.172185 494.604853 
L 119.61167 443.158395 
L 120.051154 417.715085 
L 120.490639 327.219383 
L 120.930123 450.012978 
L 121.369608 406.691174 
L 121.809092 450.962789 
L 122.248576 380.601456 
L 122.688061 373.638997 
L 123.127545 431.884191 
L 123.56703 348.624636 
L 124.006514 487.394227 
L 124.445999 418.090733 
L 124.885483 320.419719 
L 125.324967 420.77535 
L 125.764452 325.086641 
L 126.203936 401.958386 
L 126.643421 339.975562 
L 127.082905 463.02618 
L 127.522389 282.581635 
L 127.961874 403.250239 
L 128.401358 263.228586 
L 128.840843 279.063866 
L 129.280327 491.268681 
L 129.719812 421.697784 
L 130.159296 488.156128 
L 130.59878 341.054073 
L 131.038265 351.078732 
L 131.477749 404.521653 
L 132.356718 450.205493 
L 132.796203 369.687916 
L 133.235687 467.210109 
L 133.675171 429.977647 
L 134.114656 420.686162 
L 134.993625 487.996013 
L 135.433109 287.816946 
L 136.312078 501.926967 
L 136.751562 409.410106 
L 137.191047 479.02608 
L 137.630531 580.503039 
L 138.070016 373.479122 
L 138.5095 517.202636 
L 138.948984 288.650787 
L 139.388469 318.130737 
L 139.827953 315.051059 
L 140.267438 390.830215 
L 140.706922 341.419493 
L 141.146406 381.586512 
L 141.585891 292.30528 
L 142.025375 404.061838 
L 142.46486 395.062749 
L 143.343829 439.377041 
L 143.783313 378.339854 
L 144.222797 295.529334 
L 145.101766 449.668808 
L 145.541251 484.051527 
L 146.42022 345.624756 
L 146.859704 355.407063 
L 147.299188 479.546215 
L 147.738673 510.642913 
L 148.178157 378.367956 
L 148.617642 510.124136 
L 149.057126 402.406124 
L 149.49661 435.612559 
L 149.936095 419.108028 
L 150.375579 416.403181 
L 150.815064 522.055882 
L 151.254548 332.049768 
L 152.133517 410.257873 
L 152.573001 426.402153 
L 153.012486 513.315518 
L 153.45197 438.913186 
L 153.891455 401.932398 
L 154.330939 415.121925 
L 154.770423 464.257817 
L 155.209908 366.286038 
L 155.649392 483.215387 
L 156.088877 473.17133 
L 156.528361 525.665774 
L 157.40733 443.209976 
L 157.846814 466.141451 
L 158.286299 428.416656 
L 158.725783 422.720993 
L 159.165268 397.106011 
L 159.604752 381.886425 
L 160.483721 497.64219 
L 160.923205 477.187638 
L 161.36269 364.890872 
L 161.802174 462.587911 
L 162.241659 415.608305 
L 162.681143 432.283786 
L 163.120627 433.935641 
L 163.560112 327.778386 
L 163.999596 453.661092 
L 164.439081 483.529333 
L 165.31805 417.714381 
L 165.757534 448.466795 
L 166.197018 462.810173 
L 166.636503 333.822065 
L 167.515472 534.23566 
L 167.954956 371.118981 
L 168.39444 423.870722 
L 168.833925 458.09098 
L 169.273409 403.999115 
L 169.712894 484.196415 
L 170.591863 414.835525 
L 171.031347 431.186361 
L 171.470831 312.706019 
L 171.910316 291.63687 
L 172.3498 414.768447 
L 172.789285 406.1492 
L 173.228769 333.852315 
L 173.668254 493.908375 
L 174.107738 410.063378 
L 174.547222 424.204474 
L 174.986707 373.481122 
L 175.426191 406.819786 
L 175.865676 415.090379 
L 176.30516 406.500215 
L 176.744644 478.166893 
L 177.184129 353.06858 
L 177.623613 268.061219 
L 178.063098 446.894111 
L 178.502582 500.093055 
L 178.942067 424.047009 
L 179.381551 494.013707 
L 179.821035 446.10074 
L 180.26052 447.892323 
L 180.700004 490.654203 
L 181.139489 446.270213 
L 181.578973 281.116467 
L 182.018457 407.183813 
L 182.457942 369.250545 
L 182.897426 440.058352 
L 183.336911 419.010701 
L 183.776395 424.03981 
L 184.21588 474.088072 
L 184.655364 231.76936 
L 185.094848 408.156209 
L 185.534333 382.516683 
L 185.973817 411.921297 
L 186.413302 432.633119 
L 186.852786 463.89287 
L 187.292271 399.310547 
L 187.731755 423.545142 
L 188.171239 299.618315 
L 188.610724 410.683372 
L 189.050208 384.309858 
L 189.489693 427.404494 
L 189.929177 291.688447 
L 190.368661 312.500879 
L 190.808146 471.515942 
L 191.24763 436.386585 
L 191.687115 369.466329 
L 192.126599 425.537758 
L 192.566084 366.36401 
L 193.005568 408.984337 
L 193.445052 298.661411 
L 193.884537 414.679719 
L 194.324021 497.944682 
L 194.763506 247.592207 
L 195.20299 392.256075 
L 195.642474 371.580244 
L 196.081959 382.200304 
L 196.521443 467.027434 
L 196.960928 526.239173 
L 197.400412 340.168466 
L 197.839897 419.14577 
L 198.279381 467.420278 
L 198.718865 477.495893 
L 199.15835 404.63926 
L 199.597834 396.674708 
L 200.037319 443.453542 
L 200.476803 452.672924 
L 200.916288 407.701761 
L 201.355772 421.297787 
L 201.795256 335.646482 
L 202.234741 393.059522 
L 202.674225 401.538037 
L 203.11371 522.625068 
L 203.992678 371.149045 
L 204.432163 393.247977 
L 205.311132 463.440803 
L 205.750616 428.639725 
L 206.190101 462.03593 
L 206.629585 471.56014 
L 207.069069 396.456445 
L 207.508554 422.029583 
L 207.948038 354.845209 
L 208.387523 510.982401 
L 208.827007 293.493167 
L 209.266491 459.793472 
L 209.705976 356.982612 
L 210.14546 484.135447 
L 210.584945 432.367018 
L 211.024429 397.668916 
L 211.463914 386.439809 
L 211.903398 338.958081 
L 212.342882 536.618321 
L 212.782367 448.849566 
L 213.661336 344.747335 
L 214.10082 405.475454 
L 214.540305 432.427105 
L 214.979789 466.991656 
L 215.419273 471.42982 
L 215.858758 531.83298 
L 216.298242 541.903104 
L 216.737727 388.748378 
L 217.177211 381.113066 
L 217.616695 557.325913 
L 218.05618 413.784845 
L 218.495664 361.101132 
L 218.935149 416.228031 
L 219.374633 381.287072 
L 219.814118 365.497357 
L 220.253602 467.818435 
L 221.132571 350.759545 
L 221.572055 334.853392 
L 222.01154 330.431262 
L 222.451024 397.064863 
L 222.890508 341.886319 
L 223.329993 350.298048 
L 223.769477 496.872657 
L 224.208962 404.96463 
L 224.648446 415.632696 
L 225.087931 478.193491 
L 225.527415 336.286467 
L 226.406384 491.895845 
L 226.845868 523.193601 
L 227.285353 333.458099 
L 227.724837 373.243119 
L 228.164322 448.511032 
L 228.603806 396.268918 
L 229.04329 387.977713 
L 229.482775 321.642415 
L 229.922259 316.634358 
L 230.361744 480.599344 
L 230.801228 441.690646 
L 231.240712 450.447699 
L 231.680197 235.276393 
L 232.119681 492.335225 
L 232.559166 467.555077 
L 232.99865 417.64494 
L 233.438135 482.456715 
L 233.877619 326.651313 
L 234.317103 362.694284 
L 234.756588 174.168453 
L 235.196072 390.594825 
L 235.635557 434.320132 
L 236.075041 502.719595 
L 236.514526 382.149853 
L 236.95401 446.89452 
L 237.393494 432.990366 
L 237.832979 425.918018 
L 238.272463 435.969511 
L 238.711948 443.364056 
L 239.151432 273.25181 
L 239.590916 478.865702 
L 240.030401 401.36099 
L 240.469885 437.255147 
L 240.90937 483.942813 
L 241.348854 470.509332 
L 241.788339 324.79244 
L 242.227823 480.106323 
L 242.667307 483.827091 
L 243.106792 346.141071 
L 243.546276 362.574536 
L 243.985761 297.227977 
L 244.425245 338.901907 
L 244.864729 353.505117 
L 245.304214 488.543894 
L 245.743698 287.009064 
L 246.183183 400.168621 
L 246.622667 393.534138 
L 247.062152 347.569081 
L 247.501636 273.895993 
L 247.94112 392.865249 
L 248.380605 414.217835 
L 248.820089 351.678406 
L 249.259574 493.783624 
L 249.699058 385.124132 
L 250.138543 437.57738 
L 250.578027 373.34464 
L 251.017511 397.669454 
L 251.456996 362.929323 
L 251.89648 472.715593 
L 252.775449 332.542502 
L 253.214933 299.45577 
L 253.654418 448.233136 
L 254.093902 499.554459 
L 254.533387 411.159448 
L 254.972871 466.521472 
L 255.412356 465.033127 
L 255.85184 418.12624 
L 256.291324 386.818342 
L 256.730809 445.270864 
L 257.170293 446.897934 
L 257.609778 363.422575 
L 258.049262 479.671498 
L 258.488746 478.703938 
L 258.928231 326.904289 
L 259.367715 446.36671 
L 259.8072 333.311615 
L 260.246684 456.544563 
L 260.686169 437.091616 
L 261.125653 333.664727 
L 261.565137 415.158639 
L 262.004622 373.722776 
L 262.444106 387.534296 
L 262.883591 440.287684 
L 263.323075 405.772658 
L 263.76256 405.357842 
L 264.202044 404.607616 
L 264.641528 469.847481 
L 265.081013 368.940997 
L 265.520497 397.372198 
L 265.959982 472.336225 
L 266.399466 345.512285 
L 266.83895 346.257665 
L 267.717919 488.057142 
L 268.157404 492.379769 
L 268.596888 502.206177 
L 269.036373 429.087983 
L 269.475857 493.770206 
L 270.354826 347.437415 
L 270.79431 468.452223 
L 271.233795 350.380348 
L 271.673279 298.249452 
L 272.112763 486.631133 
L 272.552248 270.176603 
L 272.991732 439.255359 
L 273.431217 498.626976 
L 273.870701 497.503245 
L 274.310186 437.944628 
L 274.74967 532.372015 
L 275.189154 442.65105 
L 275.628639 405.268045 
L 276.507608 488.30685 
L 276.947092 490.669465 
L 277.386577 501.697711 
L 277.826061 473.882685 
L 278.265545 413.816548 
L 278.70503 532.896758 
L 279.144514 413.580044 
L 279.583999 377.369629 
L 280.023483 464.881127 
L 280.462967 390.312115 
L 280.902452 450.76871 
L 281.341936 386.507865 
L 281.781421 440.070363 
L 282.220905 357.178995 
L 282.66039 501.063307 
L 283.099874 521.747016 
L 283.539358 441.675549 
L 283.978843 397.868367 
L 284.418327 450.540382 
L 284.857812 462.644686 
L 285.297296 380.961805 
L 285.73678 473.207743 
L 286.176265 382.486691 
L 286.615749 404.687212 
L 287.055234 405.989289 
L 287.494718 369.138755 
L 287.934203 349.128447 
L 288.813171 500.058453 
L 289.252656 464.069455 
L 289.69214 362.287772 
L 290.131625 448.144682 
L 290.571109 350.859946 
L 291.010594 131.763818 
L 291.450078 439.918851 
L 291.889562 432.80088 
L 292.329047 392.10398 
L 292.768531 403.535039 
L 293.208016 449.360821 
L 293.6475 460.134069 
L 294.086984 425.80481 
L 294.526469 338.012195 
L 294.965953 422.920544 
L 295.405438 351.842808 
L 296.284407 408.307532 
L 296.723891 458.314046 
L 297.163375 328.771397 
L 297.60286 450.657649 
L 298.042344 490.246613 
L 298.481829 384.563969 
L 298.921313 316.788275 
L 299.800282 480.554782 
L 300.239766 494.96921 
L 300.679251 413.624115 
L 301.118735 376.179844 
L 301.55822 414.856716 
L 301.997704 308.002638 
L 302.437188 430.037395 
L 302.876673 389.742486 
L 303.316157 492.021297 
L 303.755642 395.27905 
L 304.195126 450.919713 
L 304.634611 398.077059 
L 305.074095 449.715004 
L 305.513579 412.362957 
L 305.953064 437.494229 
L 306.392548 368.203321 
L 306.832033 398.948169 
L 307.271517 499.156343 
L 307.711001 293.82449 
L 308.150486 400.424431 
L 308.58997 388.378467 
L 309.029455 314.615297 
L 309.468939 362.524577 
L 309.908424 342.967772 
L 310.347908 337.081157 
L 310.787392 448.632856 
L 311.226877 467.2571 
L 311.666361 461.373881 
L 312.105846 505.899451 
L 312.54533 434.004138 
L 312.984814 434.410958 
L 313.424299 361.546547 
L 313.863783 355.671041 
L 314.303268 469.49297 
L 314.742752 424.026388 
L 315.182237 552.979457 
L 315.621721 375.111059 
L 316.061205 452.43575 
L 316.940174 394.517358 
L 317.379659 473.842013 
L 317.819143 487.117867 
L 318.258628 412.843866 
L 318.698112 308.712321 
L 319.137596 424.302092 
L 319.577081 475.796968 
L 320.016565 368.05775 
L 320.45605 463.551322 
L 320.895534 304.129507 
L 321.335018 377.314688 
L 321.774503 393.145578 
L 322.213987 345.04586 
L 322.653472 425.589402 
L 323.092956 538.192814 
L 323.532441 511.091933 
L 324.411409 426.833024 
L 324.850894 437.084029 
L 325.290378 319.705717 
L 325.729863 361.458151 
L 326.169347 495.530775 
L 326.608831 464.791048 
L 327.048316 530.586774 
L 327.4878 502.943805 
L 327.927285 362.856845 
L 328.366769 378.257409 
L 328.806254 422.375105 
L 329.245738 422.817922 
L 329.685222 361.954678 
L 330.564191 526.079596 
L 331.003676 327.33991 
L 331.44316 440.61126 
L 331.882645 371.929188 
L 332.322129 486.649344 
L 332.761613 413.677084 
L 333.201098 434.916712 
L 333.640582 511.316951 
L 334.080067 459.281687 
L 334.519551 391.573548 
L 334.959035 455.994033 
L 335.39852 444.470661 
L 336.277489 384.842005 
L 336.716973 514.212858 
L 337.156458 440.58348 
L 337.595942 409.870815 
L 338.035426 389.933956 
L 338.914395 438.874555 
L 339.35388 320.190213 
L 339.793364 365.426472 
L 340.232848 435.818951 
L 340.672333 366.273481 
L 341.111817 496.268729 
L 341.551302 381.040995 
L 342.430271 492.352899 
L 342.869755 440.024503 
L 343.309239 472.175244 
L 343.748724 434.924354 
L 344.188208 445.094381 
L 344.627693 427.657845 
L 345.067177 468.976826 
L 345.506662 430.554757 
L 345.946146 444.732243 
L 346.38563 388.266707 
L 346.825115 482.610267 
L 347.264599 378.456311 
L 348.143568 455.844887 
L 348.583052 428.109434 
L 349.022537 421.427423 
L 349.462021 464.473155 
L 349.901506 411.974471 
L 350.34099 416.777616 
L 350.780475 321.902312 
L 351.219959 355.769444 
L 351.659443 447.54408 
L 352.098928 463.016976 
L 352.538412 375.432559 
L 352.977897 444.204166 
L 353.417381 257.319035 
L 353.856866 266.786653 
L 354.735834 483.30017 
L 355.175319 467.853011 
L 355.614803 498.371947 
L 356.054288 337.260362 
L 356.493772 320.264108 
L 356.933256 384.140479 
L 357.372741 201.450323 
L 357.812225 413.727952 
L 358.25171 401.141325 
L 358.691194 416.55896 
L 359.130679 454.837673 
L 359.570163 449.877304 
L 360.009647 456.890944 
L 360.449132 303.1962 
L 361.328101 457.567651 
L 361.767585 419.565124 
L 362.207069 296.121577 
L 362.646554 353.908097 
L 363.086038 513.711046 
L 363.525523 305.948477 
L 363.965007 420.722322 
L 364.404492 358.69163 
L 364.843976 424.004195 
L 365.28346 404.207789 
L 365.722945 333.506484 
L 366.162429 505.620189 
L 366.601914 429.787623 
L 367.041398 491.789416 
L 367.480883 439.83515 
L 368.359851 407.679915 
L 368.799336 532.708766 
L 369.23882 258.699924 
L 369.678305 486.508578 
L 370.117789 430.545276 
L 370.557273 444.270304 
L 371.436242 462.32776 
L 371.875727 384.693652 
L 372.315211 500.27513 
L 372.754696 441.288968 
L 373.19418 447.91085 
L 373.633664 316.242825 
L 374.073149 403.797737 
L 374.512633 337.052081 
L 374.952118 499.097436 
L 375.391602 415.991703 
L 375.831086 384.562123 
L 376.270571 449.004224 
L 376.710055 474.590184 
L 377.14954 334.173403 
L 377.589024 567.542954 
L 378.028509 397.880678 
L 378.467993 488.923807 
L 378.907477 528.155938 
L 379.346962 470.464726 
L 379.786446 438.18792 
L 380.225931 329.418259 
L 380.665415 419.91837 
L 381.1049 348.9695 
L 381.544384 335.184074 
L 381.983868 510.999991 
L 382.423353 445.232011 
L 382.862837 484.018203 
L 383.302322 480.312088 
L 383.741806 430.057515 
L 384.18129 447.206203 
L 384.620775 492.176704 
L 385.060259 335.14853 
L 385.499744 498.446161 
L 385.939228 416.842582 
L 386.378713 387.436232 
L 386.818197 416.72065 
L 387.257681 486.770523 
L 387.697166 457.374262 
L 388.13665 415.339069 
L 388.576135 296.052048 
L 389.015619 292.256194 
L 389.455103 428.185266 
L 389.894588 470.797189 
L 390.334072 480.057784 
L 390.773557 456.105161 
L 391.213041 371.140074 
L 391.652526 483.722318 
L 392.09201 249.894533 
L 392.531494 521.82399 
L 392.970979 452.215367 
L 393.410463 358.064638 
L 393.849948 346.604086 
L 394.289432 420.243161 
L 394.728917 322.75112 
L 395.168401 460.155318 
L 395.607885 372.402195 
L 396.04737 338.278065 
L 396.486854 314.69045 
L 396.926339 450.649161 
L 397.365823 414.441296 
L 397.805307 526.530707 
L 398.244792 409.453269 
L 398.684276 356.317092 
L 399.123761 441.584847 
L 399.563245 448.45052 
L 400.00273 372.919679 
L 400.442214 353.765231 
L 400.881698 432.57615 
L 401.321183 299.46088 
L 401.760667 367.53054 
L 402.200152 341.419218 
L 402.639636 509.670561 
L 403.07912 458.397973 
L 403.518605 506.017977 
L 403.958089 465.163092 
L 404.397574 444.139311 
L 404.837058 452.013924 
L 405.276543 450.311867 
L 405.716027 486.557607 
L 406.155511 461.526215 
L 406.594996 504.024042 
L 407.03448 495.522232 
L 407.473965 407.989971 
L 407.913449 484.544789 
L 408.352934 472.291944 
L 408.792418 437.648779 
L 409.231902 314.841567 
L 409.671387 419.755672 
L 410.110871 462.92666 
L 410.98984 502.77024 
L 411.429324 356.348214 
L 411.868809 405.883654 
L 412.308293 430.913595 
L 412.747778 466.624245 
L 413.187262 483.975449 
L 413.626747 479.193327 
L 414.066231 346.407317 
L 414.505715 437.796085 
L 414.9452 406.856875 
L 415.384684 416.631971 
L 415.824169 420.5332 
L 416.263653 408.491771 
L 416.703137 276.040417 
L 417.142622 403.97542 
L 417.582106 396.141331 
L 418.021591 479.58131 
L 418.90056 330.781271 
L 419.340044 496.470724 
L 419.779528 501.876841 
L 420.219013 254.34241 
L 420.658497 439.510899 
L 421.097982 475.424155 
L 421.537466 374.229471 
L 421.976951 370.486458 
L 422.416435 408.524952 
L 422.855919 378.180956 
L 423.295404 484.635601 
L 423.734888 418.889833 
L 424.174373 281.806355 
L 424.613857 350.650213 
L 425.053341 301.19163 
L 425.492826 360.787697 
L 425.93231 452.045435 
L 426.371795 303.982198 
L 426.811279 483.840862 
L 427.250764 445.602126 
L 427.690248 491.76576 
L 428.129732 341.417828 
L 428.569217 525.371077 
L 429.008701 495.525738 
L 429.448186 436.554164 
L 429.88767 447.557357 
L 430.327154 420.632467 
L 430.766639 454.131866 
L 431.206123 392.704463 
L 431.645608 451.502485 
L 432.085092 307.082287 
L 432.524577 502.249658 
L 432.964061 378.808306 
L 433.403545 427.409452 
L 433.84303 460.05047 
L 434.282514 347.347541 
L 434.721999 410.696628 
L 435.161483 426.401516 
L 435.600968 529.26234 
L 436.040452 432.667275 
L 436.479936 491.984328 
L 436.919421 468.18964 
L 437.358905 470.288983 
L 437.79839 442.291895 
L 438.237874 478.727733 
L 438.677358 407.241872 
L 439.116843 414.573815 
L 439.556327 449.685649 
L 439.995812 435.330296 
L 440.435296 167.069306 
L 441.314265 494.552111 
L 441.753749 304.595735 
L 442.193234 346.143397 
L 442.632718 449.509461 
L 443.072203 461.54209 
L 443.511687 364.380699 
L 443.951171 357.899575 
L 444.390656 451.253248 
L 444.83014 501.668326 
L 445.269625 464.957051 
L 445.709109 237.53725 
L 446.148594 414.100884 
L 446.588078 390.658689 
L 447.027562 402.684546 
L 447.467047 388.219499 
L 447.906531 482.766986 
L 448.346016 423.672203 
L 448.7855 410.202825 
L 449.224985 463.739425 
L 449.664469 435.671925 
L 450.103953 384.820619 
L 450.543438 382.616819 
L 450.982922 454.523685 
L 451.422407 296.219942 
L 451.861891 492.062986 
L 452.301375 471.071139 
L 452.74086 301.341954 
L 453.180344 320.954212 
L 453.619829 470.148854 
L 454.059313 407.830082 
L 454.498798 403.678805 
L 454.938282 463.923523 
L 455.377766 483.414607 
L 455.817251 281.51239 
L 456.256735 485.358366 
L 456.69622 414.975699 
L 457.135704 450.738673 
L 457.575189 531.644938 
L 458.014673 360.41858 
L 458.454157 534.411783 
L 458.893642 371.462909 
L 459.333126 447.342624 
L 459.772611 361.90764 
L 460.212095 316.550618 
L 460.651579 204.749631 
L 461.091064 437.864537 
L 461.530548 499.347537 
L 461.970033 400.152332 
L 462.409517 517.291942 
L 462.849002 422.764914 
L 463.288486 378.153194 
L 464.167455 448.718298 
L 464.606939 427.978621 
L 465.046424 341.184992 
L 465.485908 400.682411 
L 465.925392 399.135964 
L 466.804361 370.15859 
L 467.243846 425.383117 
L 467.68333 358.819722 
L 468.122815 311.265379 
L 469.001783 452.674071 
L 469.441268 362.809805 
L 469.880752 422.965253 
L 470.320237 328.708805 
L 470.759721 427.326004 
L 471.199206 457.999838 
L 471.63869 450.398941 
L 472.078174 217.111731 
L 472.517659 395.565529 
L 472.957143 517.777199 
L 473.396628 355.662875 
L 473.836112 304.799696 
L 474.275596 312.095285 
L 474.715081 403.781658 
L 475.154565 454.05266 
L 475.59405 402.299174 
L 476.033534 459.898282 
L 476.473019 401.416418 
L 476.912503 468.309676 
L 477.351987 346.524258 
L 477.791472 405.503404 
L 478.230956 434.931328 
L 478.670441 345.392862 
L 479.109925 401.821599 
L 479.549409 338.337279 
L 479.988894 238.69363 
L 480.428378 326.51455 
L 481.307347 438.542683 
L 481.746832 483.445876 
L 482.186316 460.317983 
L 482.6258 424.264256 
L 483.065285 421.20753 
L 483.504769 466.071686 
L 483.944254 323.471909 
L 484.383738 398.842218 
L 484.823223 420.442948 
L 485.262707 432.284652 
L 485.702191 403.750528 
L 486.141676 388.188087 
L 486.58116 489.287735 
L 487.020645 434.469065 
L 487.460129 397.060626 
L 487.899613 466.392991 
L 488.339098 432.593321 
L 488.778582 378.181569 
L 489.218067 467.44521 
L 489.657551 517.718522 
L 490.097036 446.568721 
L 490.53652 483.204264 
L 490.976004 395.305704 
L 491.415489 465.544325 
L 491.854973 469.694769 
L 492.294458 368.179066 
L 492.733942 492.181806 
L 493.173426 447.10187 
L 493.612911 458.541054 
L 494.052395 424.977103 
L 494.49188 522.217026 
L 494.931364 364.360451 
L 495.370849 259.785462 
L 495.810333 426.980053 
L 496.249817 238.683663 
L 496.689302 437.044985 
L 497.128786 502.852175 
L 497.568271 486.658778 
L 498.007755 427.772345 
L 498.44724 339.884822 
L 498.886724 314.020285 
L 499.326208 372.921279 
L 499.765693 344.841424 
L 500.205177 413.568138 
L 500.644662 415.514097 
L 501.084146 430.469392 
L 501.52363 317.734925 
L 501.963115 436.17122 
L 502.402599 421.273573 
L 502.842084 475.141053 
L 503.281568 452.707624 
L 504.160537 470.81164 
L 504.600021 406.552524 
L 505.039506 479.109323 
L 505.47899 454.410594 
L 505.918475 346.56552 
L 506.357959 364.879952 
L 506.797443 526.205019 
L 507.236928 437.379795 
L 507.676412 439.139479 
L 508.115897 385.936538 
L 508.555381 446.117405 
L 508.994866 370.970408 
L 509.43435 459.834776 
L 509.873834 496.785793 
L 510.313319 353.63181 
L 511.192288 478.265625 
L 511.631772 402.997225 
L 512.071257 416.614023 
L 512.510741 404.988372 
L 512.950225 362.95939 
L 513.38971 388.825569 
L 513.829194 442.387481 
L 514.708163 308.946871 
L 515.147647 456.785289 
L 515.587132 402.949974 
L 516.026616 231.07394 
L 516.466101 448.629759 
L 516.905585 452.329619 
L 517.34507 420.834815 
L 517.784554 424.646057 
L 518.224038 456.336957 
L 518.663523 394.62763 
L 519.542492 324.611933 
L 519.981976 560.725446 
L 520.42146 367.875885 
L 520.860945 374.643163 
L 521.300429 251.601556 
L 522.618883 515.583024 
L 523.058367 291.302725 
L 523.497851 495.839081 
L 523.937336 378.091363 
L 524.37682 482.137396 
L 524.816305 361.402188 
L 525.255789 352.398717 
L 525.695274 323.611646 
L 526.134758 403.76318 
L 526.574242 348.367258 
L 527.013727 434.245162 
L 527.453211 441.515923 
L 527.892696 505.976479 
L 528.33218 467.200053 
L 528.771664 268.2983 
L 529.211149 481.459825 
L 529.650633 461.537348 
L 530.090118 508.153531 
L 530.529602 429.745471 
L 530.969087 379.618635 
L 531.408571 422.630507 
L 531.848055 373.448879 
L 532.28754 390.689545 
L 532.727024 500.623435 
L 533.166509 362.469717 
L 533.605993 366.606035 
L 534.045477 432.68714 
L 534.484962 413.576894 
L 534.924446 450.8312 
L 535.363931 454.49762 
L 535.803415 371.439014 
L 536.2429 455.068488 
L 536.682384 376.383703 
L 537.121868 424.446801 
L 537.561353 425.885352 
L 538.000837 489.401298 
L 538.440322 481.363252 
L 538.879806 348.121162 
L 539.319291 405.309633 
L 539.758775 391.932329 
L 540.198259 402.239859 
L 540.637744 426.949981 
L 541.077228 392.658377 
L 541.516713 523.89762 
L 541.956197 372.261372 
L 542.395681 328.885187 
L 542.835166 418.210959 
L 543.27465 387.07269 
L 543.714135 468.119062 
L 544.153619 493.828643 
L 544.593104 290.399492 
L 545.032588 494.98169 
L 545.472072 329.951942 
L 545.911557 300.319778 
L 545.911557 300.319778 
" style="fill:none;stroke:#96c69a;stroke-linecap:round;stroke-width:3;"/>
   </g>
   <g id="line2d_2"/>
   <g id="patch_3">
    <path d="M 84.914375 602.94 
L 84.914375 109.326857 
" style="fill:none;stroke:#262626;stroke-linecap:square;stroke-linejoin:miter;stroke-width:2.5;"/>
   </g>
   <g id="patch_4">
    <path d="M 84.914375 602.94 
L 567.863804 602.94 
" style="fill:none;stroke:#262626;stroke-linecap:square;stroke-linejoin:miter;stroke-width:2.5;"/>
   </g>
   <g id="legend_1">
    <g id="patch_5">
     <path d="M 514.948179 597.94 
L 560.863804 597.94 
Q 562.863804 597.94 562.863804 595.94 
L 562.863804 554.034375 
Q 562.863804 552.034375 560.863804 552.034375 
L 514.948179 552.034375 
Q 512.948179 552.034375 512.948179 554.034375 
L 512.948179 595.94 
Q 512.948179 597.94 514.948179 597.94 
z
" style="fill:#ffffff;opacity:0.8;stroke:#cccccc;stroke-linejoin:miter;stroke-width:2;"/>
    </g>
    <g id="text_16">
     <!-- $n_\tau$ -->
     <g style="fill:#262626;" transform="translate(524.825991 574.270625)scale(0.24 -0.24)">
      <defs>
       <path d="M 3566 2113 
L 3156 0 
L 2578 0 
L 2988 2091 
Q 3016 2238 3031 2350 
Q 3047 2463 3047 2528 
Q 3047 2791 2881 2937 
Q 2716 3084 2419 3084 
Q 1956 3084 1622 2776 
Q 1288 2469 1184 1941 
L 800 0 
L 225 0 
L 903 3500 
L 1478 3500 
L 1363 2950 
Q 1603 3253 1940 3418 
Q 2278 3584 2650 3584 
Q 3113 3584 3367 3334 
Q 3622 3084 3622 2631 
Q 3622 2519 3608 2391 
Q 3594 2263 3566 2113 
z
" id="DejaVuSans-Oblique-6e" transform="scale(0.015625)"/>
       <path d="M 2103 638 
Q 2188 488 2525 488 
L 2800 488 
L 2706 0 
L 2363 0 
Q 1800 0 1600 300 
Q 1403 606 1534 1269 
L 1856 2925 
L 541 2925 
L 653 3500 
L 3881 3500 
L 3769 2925 
L 2444 2925 
L 2113 1234 
Q 2025 781 2103 638 
z
" id="DejaVuSans-Oblique-3c4" transform="scale(0.015625)"/>
      </defs>
      <use xlink:href="#DejaVuSans-Oblique-6e"/>
      <use transform="translate(63.378906 -16.40625)scale(0.7)" xlink:href="#DejaVuSans-Oblique-3c4"/>
     </g>
    </g>
    <g id="line2d_3">
     <path d="M 516.948179 588.360312 
L 536.948179 588.360312 
" style="fill:none;stroke:#96c69a;stroke-linecap:round;stroke-width:3;"/>
    </g>
    <g id="line2d_4"/>
    <g id="text_17">
     <!-- 40 -->
     <g style="fill:#262626;" transform="translate(544.948179 591.860312)scale(0.1 -0.1)">
      <defs>
       <path d="M 2356 3675 
L 1038 1722 
L 2356 1722 
L 2356 3675 
z
M 2156 4666 
L 3494 4666 
L 3494 1722 
L 4159 1722 
L 4159 850 
L 3494 850 
L 3494 0 
L 2356 0 
L 2356 850 
L 288 850 
L 288 1881 
L 2156 4666 
z
" id="DejaVuSans-Bold-34" transform="scale(0.015625)"/>
       <path d="M 2944 2338 
Q 2944 3213 2780 3570 
Q 2616 3928 2228 3928 
Q 1841 3928 1675 3570 
Q 1509 3213 1509 2338 
Q 1509 1453 1675 1090 
Q 1841 728 2228 728 
Q 2613 728 2778 1090 
Q 2944 1453 2944 2338 
z
M 4147 2328 
Q 4147 1169 3647 539 
Q 3147 -91 2228 -91 
Q 1306 -91 806 539 
Q 306 1169 306 2328 
Q 306 3491 806 4120 
Q 1306 4750 2228 4750 
Q 3147 4750 3647 4120 
Q 4147 3491 4147 2328 
z
" id="DejaVuSans-Bold-30" transform="scale(0.015625)"/>
      </defs>
      <use xlink:href="#DejaVuSans-Bold-34"/>
      <use x="69.580078" xlink:href="#DejaVuSans-Bold-30"/>
     </g>
    </g>
   </g>
  </g>
  <g id="axes_2">
   <g id="patch_6">
    <path d="M 84.914375 92.305714 
L 567.863804 92.305714 
L 567.863804 7.2 
L 84.914375 7.2 
z
" style="fill:none;"/>
   </g>
   <g id="matplotlib.axis_3">
    <g id="xtick_7"/>
    <g id="xtick_8"/>
    <g id="xtick_9"/>
    <g id="xtick_10"/>
    <g id="xtick_11"/>
    <g id="xtick_12"/>
   </g>
   <g id="matplotlib.axis_4">
    <g id="ytick_8">
     <g id="text_18">
      <!-- 0 -->
      <g style="fill:#262626;" transform="translate(55.416875 100.663996)scale(0.22 -0.22)">
       <use xlink:href="#DejaVuSans-30"/>
      </g>
     </g>
    </g>
    <g id="ytick_9">
     <g id="text_19">
      <!-- 50 -->
      <g style="fill:#262626;" transform="translate(41.419375 56.129347)scale(0.22 -0.22)">
       <defs>
        <path d="M 691 4666 
L 3169 4666 
L 3169 4134 
L 1269 4134 
L 1269 2991 
Q 1406 3038 1543 3061 
Q 1681 3084 1819 3084 
Q 2600 3084 3056 2656 
Q 3513 2228 3513 1497 
Q 3513 744 3044 326 
Q 2575 -91 1722 -91 
Q 1428 -91 1123 -41 
Q 819 9 494 109 
L 494 744 
Q 775 591 1075 516 
Q 1375 441 1709 441 
Q 2250 441 2565 725 
Q 2881 1009 2881 1497 
Q 2881 1984 2565 2268 
Q 2250 2553 1709 2553 
Q 1456 2553 1204 2497 
Q 953 2441 691 2322 
L 691 4666 
z
" id="DejaVuSans-35" transform="scale(0.015625)"/>
       </defs>
       <use xlink:href="#DejaVuSans-35"/>
       <use x="63.623047" xlink:href="#DejaVuSans-30"/>
      </g>
     </g>
    </g>
   </g>
   <g id="patch_7">
    <path clip-path="url(#p0b42df57e9)" d="M 106.866622 92.305714 
L 146.779798 92.305714 
L 146.779798 11.252653 
L 106.866622 11.252653 
z
" style="fill:#96c69a;fill-opacity:0.5;stroke:#ffffff;stroke-linejoin:miter;stroke-width:2;"/>
   </g>
   <g id="patch_8">
    <path clip-path="url(#p0b42df57e9)" d="M 146.779798 92.305714 
L 186.692974 92.305714 
L 186.692974 11.252653 
L 146.779798 11.252653 
z
" style="fill:#96c69a;fill-opacity:0.5;stroke:#ffffff;stroke-linejoin:miter;stroke-width:2;"/>
   </g>
   <g id="patch_9">
    <path clip-path="url(#p0b42df57e9)" d="M 186.692974 92.305714 
L 226.606149 92.305714 
L 226.606149 11.252653 
L 186.692974 11.252653 
z
" style="fill:#96c69a;fill-opacity:0.5;stroke:#ffffff;stroke-linejoin:miter;stroke-width:2;"/>
   </g>
   <g id="patch_10">
    <path clip-path="url(#p0b42df57e9)" d="M 226.606149 92.305714 
L 266.519325 92.305714 
L 266.519325 11.252653 
L 226.606149 11.252653 
z
" style="fill:#96c69a;fill-opacity:0.5;stroke:#ffffff;stroke-linejoin:miter;stroke-width:2;"/>
   </g>
   <g id="patch_11">
    <path clip-path="url(#p0b42df57e9)" d="M 266.519325 92.305714 
L 306.432501 92.305714 
L 306.432501 11.252653 
L 266.519325 11.252653 
z
" style="fill:#96c69a;fill-opacity:0.5;stroke:#ffffff;stroke-linejoin:miter;stroke-width:2;"/>
   </g>
   <g id="patch_12">
    <path clip-path="url(#p0b42df57e9)" d="M 306.432501 92.305714 
L 346.345677 92.305714 
L 346.345677 12.143346 
L 306.432501 12.143346 
z
" style="fill:#96c69a;fill-opacity:0.5;stroke:#ffffff;stroke-linejoin:miter;stroke-width:2;"/>
   </g>
   <g id="patch_13">
    <path clip-path="url(#p0b42df57e9)" d="M 346.345677 92.305714 
L 386.258853 92.305714 
L 386.258853 11.252653 
L 346.345677 11.252653 
z
" style="fill:#96c69a;fill-opacity:0.5;stroke:#ffffff;stroke-linejoin:miter;stroke-width:2;"/>
   </g>
   <g id="patch_14">
    <path clip-path="url(#p0b42df57e9)" d="M 386.258853 92.305714 
L 426.172029 92.305714 
L 426.172029 11.252653 
L 386.258853 11.252653 
z
" style="fill:#96c69a;fill-opacity:0.5;stroke:#ffffff;stroke-linejoin:miter;stroke-width:2;"/>
   </g>
   <g id="patch_15">
    <path clip-path="url(#p0b42df57e9)" d="M 426.172029 92.305714 
L 466.085205 92.305714 
L 466.085205 11.252653 
L 426.172029 11.252653 
z
" style="fill:#96c69a;fill-opacity:0.5;stroke:#ffffff;stroke-linejoin:miter;stroke-width:2;"/>
   </g>
   <g id="patch_16">
    <path clip-path="url(#p0b42df57e9)" d="M 466.085205 92.305714 
L 505.998381 92.305714 
L 505.998381 11.252653 
L 466.085205 11.252653 
z
" style="fill:#96c69a;fill-opacity:0.5;stroke:#ffffff;stroke-linejoin:miter;stroke-width:2;"/>
   </g>
   <g id="patch_17">
    <path clip-path="url(#p0b42df57e9)" d="M 505.998381 92.305714 
L 545.911557 92.305714 
L 545.911557 11.252653 
L 505.998381 11.252653 
z
" style="fill:#96c69a;fill-opacity:0.5;stroke:#ffffff;stroke-linejoin:miter;stroke-width:2;"/>
   </g>
   <g id="patch_18">
    <path d="M 84.914375 92.305714 
L 84.914375 7.2 
" style="fill:none;stroke:#262626;stroke-linecap:square;stroke-linejoin:miter;stroke-width:2.5;"/>
   </g>
   <g id="patch_19">
    <path d="M 84.914375 92.305714 
L 567.863804 92.305714 
" style="fill:none;stroke:#262626;stroke-linecap:square;stroke-linejoin:miter;stroke-width:2.5;"/>
   </g>
  </g>
  <g id="axes_3">
   <g id="patch_20">
    <path d="M 584.517232 602.94 
L 667.784375 602.94 
L 667.784375 109.326857 
L 584.517232 109.326857 
z
" style="fill:none;"/>
   </g>
   <g id="matplotlib.axis_5">
    <g id="xtick_13">
     <g id="text_20">
      <!-- 0 -->
      <g style="fill:#262626;" transform="translate(577.518482 635.156562)scale(0.22 -0.22)">
       <use xlink:href="#DejaVuSans-30"/>
      </g>
     </g>
    </g>
    <g id="xtick_14">
     <g id="text_21">
      <!-- 100 -->
      <g style="fill:#262626;" transform="translate(631.88481 635.156562)scale(0.22 -0.22)">
       <use xlink:href="#DejaVuSans-31"/>
       <use x="63.623047" xlink:href="#DejaVuSans-30"/>
       <use x="127.246094" xlink:href="#DejaVuSans-30"/>
      </g>
     </g>
    </g>
   </g>
   <g id="matplotlib.axis_6">
    <g id="ytick_10"/>
    <g id="ytick_11"/>
    <g id="ytick_12"/>
    <g id="ytick_13"/>
    <g id="ytick_14"/>
    <g id="ytick_15"/>
    <g id="ytick_16"/>
   </g>
   <g id="patch_21">
    <path clip-path="url(#p67ce3f3853)" d="M 584.517232 580.503039 
L 585.884509 580.503039 
L 585.884509 563.243838 
L 584.517232 563.243838 
z
" style="fill:#96c69a;fill-opacity:0.5;stroke:#ffffff;stroke-linejoin:miter;stroke-width:1.72592;"/>
   </g>
   <g id="patch_22">
    <path clip-path="url(#p67ce3f3853)" d="M 584.517232 563.243838 
L 586.568147 563.243838 
L 586.568147 545.984637 
L 584.517232 545.984637 
z
" style="fill:#96c69a;fill-opacity:0.5;stroke:#ffffff;stroke-linejoin:miter;stroke-width:1.72592;"/>
   </g>
   <g id="patch_23">
    <path clip-path="url(#p67ce3f3853)" d="M 584.517232 545.984637 
L 593.40453 545.984637 
L 593.40453 528.725437 
L 584.517232 528.725437 
z
" style="fill:#96c69a;fill-opacity:0.5;stroke:#ffffff;stroke-linejoin:miter;stroke-width:1.72592;"/>
   </g>
   <g id="patch_24">
    <path clip-path="url(#p67ce3f3853)" d="M 584.517232 528.725437 
L 600.924551 528.725437 
L 600.924551 511.466236 
L 584.517232 511.466236 
z
" style="fill:#96c69a;fill-opacity:0.5;stroke:#ffffff;stroke-linejoin:miter;stroke-width:1.72592;"/>
   </g>
   <g id="patch_25">
    <path clip-path="url(#p67ce3f3853)" d="M 584.517232 511.466236 
L 619.382785 511.466236 
L 619.382785 494.207035 
L 584.517232 494.207035 
z
" style="fill:#96c69a;fill-opacity:0.5;stroke:#ffffff;stroke-linejoin:miter;stroke-width:1.72592;"/>
   </g>
   <g id="patch_26">
    <path clip-path="url(#p67ce3f3853)" d="M 584.517232 494.207035 
L 641.25921 494.207035 
L 641.25921 476.947834 
L 584.517232 476.947834 
z
" style="fill:#96c69a;fill-opacity:0.5;stroke:#ffffff;stroke-linejoin:miter;stroke-width:1.72592;"/>
   </g>
   <g id="patch_27">
    <path clip-path="url(#p67ce3f3853)" d="M 584.517232 476.947834 
L 641.25921 476.947834 
L 641.25921 459.688633 
L 584.517232 459.688633 
z
" style="fill:#96c69a;fill-opacity:0.5;stroke:#ffffff;stroke-linejoin:miter;stroke-width:1.72592;"/>
   </g>
   <g id="patch_28">
    <path clip-path="url(#p67ce3f3853)" d="M 584.517232 459.688633 
L 654.931975 459.688633 
L 654.931975 442.429433 
L 584.517232 442.429433 
z
" style="fill:#96c69a;fill-opacity:0.5;stroke:#ffffff;stroke-linejoin:miter;stroke-width:1.72592;"/>
   </g>
   <g id="patch_29">
    <path clip-path="url(#p67ce3f3853)" d="M 584.517232 442.429433 
L 655.615614 442.429433 
L 655.615614 425.170232 
L 584.517232 425.170232 
z
" style="fill:#96c69a;fill-opacity:0.5;stroke:#ffffff;stroke-linejoin:miter;stroke-width:1.72592;"/>
   </g>
   <g id="patch_30">
    <path clip-path="url(#p67ce3f3853)" d="M 584.517232 425.170232 
L 663.819273 425.170232 
L 663.819273 407.911031 
L 584.517232 407.911031 
z
" style="fill:#96c69a;fill-opacity:0.5;stroke:#ffffff;stroke-linejoin:miter;stroke-width:1.72592;"/>
   </g>
   <g id="patch_31">
    <path clip-path="url(#p67ce3f3853)" d="M 584.517232 407.911031 
L 649.462869 407.911031 
L 649.462869 390.65183 
L 584.517232 390.65183 
z
" style="fill:#96c69a;fill-opacity:0.5;stroke:#ffffff;stroke-linejoin:miter;stroke-width:1.72592;"/>
   </g>
   <g id="patch_32">
    <path clip-path="url(#p67ce3f3853)" d="M 584.517232 390.65183 
L 631.688274 390.65183 
L 631.688274 373.392629 
L 584.517232 373.392629 
z
" style="fill:#96c69a;fill-opacity:0.5;stroke:#ffffff;stroke-linejoin:miter;stroke-width:1.72592;"/>
   </g>
   <g id="patch_33">
    <path clip-path="url(#p67ce3f3853)" d="M 584.517232 373.392629 
L 632.371912 373.392629 
L 632.371912 356.133429 
L 584.517232 356.133429 
z
" style="fill:#96c69a;fill-opacity:0.5;stroke:#ffffff;stroke-linejoin:miter;stroke-width:1.72592;"/>
   </g>
   <g id="patch_34">
    <path clip-path="url(#p67ce3f3853)" d="M 584.517232 356.133429 
L 622.117338 356.133429 
L 622.117338 338.874228 
L 584.517232 338.874228 
z
" style="fill:#96c69a;fill-opacity:0.5;stroke:#ffffff;stroke-linejoin:miter;stroke-width:1.72592;"/>
   </g>
   <g id="patch_35">
    <path clip-path="url(#p67ce3f3853)" d="M 584.517232 338.874228 
L 613.23004 338.874228 
L 613.23004 321.615027 
L 584.517232 321.615027 
z
" style="fill:#96c69a;fill-opacity:0.5;stroke:#ffffff;stroke-linejoin:miter;stroke-width:1.72592;"/>
   </g>
   <g id="patch_36">
    <path clip-path="url(#p67ce3f3853)" d="M 584.517232 321.615027 
L 603.659104 321.615027 
L 603.659104 304.355826 
L 584.517232 304.355826 
z
" style="fill:#96c69a;fill-opacity:0.5;stroke:#ffffff;stroke-linejoin:miter;stroke-width:1.72592;"/>
   </g>
   <g id="patch_37">
    <path clip-path="url(#p67ce3f3853)" d="M 584.517232 304.355826 
L 602.291827 304.355826 
L 602.291827 287.096625 
L 584.517232 287.096625 
z
" style="fill:#96c69a;fill-opacity:0.5;stroke:#ffffff;stroke-linejoin:miter;stroke-width:1.72592;"/>
   </g>
   <g id="patch_38">
    <path clip-path="url(#p67ce3f3853)" d="M 584.517232 287.096625 
L 591.353615 287.096625 
L 591.353615 269.837425 
L 584.517232 269.837425 
z
" style="fill:#96c69a;fill-opacity:0.5;stroke:#ffffff;stroke-linejoin:miter;stroke-width:1.72592;"/>
   </g>
   <g id="patch_39">
    <path clip-path="url(#p67ce3f3853)" d="M 584.517232 269.837425 
L 589.986338 269.837425 
L 589.986338 252.578224 
L 584.517232 252.578224 
z
" style="fill:#96c69a;fill-opacity:0.5;stroke:#ffffff;stroke-linejoin:miter;stroke-width:1.72592;"/>
   </g>
   <g id="patch_40">
    <path clip-path="url(#p67ce3f3853)" d="M 584.517232 252.578224 
L 588.619062 252.578224 
L 588.619062 235.319023 
L 584.517232 235.319023 
z
" style="fill:#96c69a;fill-opacity:0.5;stroke:#ffffff;stroke-linejoin:miter;stroke-width:1.72592;"/>
   </g>
   <g id="patch_41">
    <path clip-path="url(#p67ce3f3853)" d="M 584.517232 235.319023 
L 586.568147 235.319023 
L 586.568147 218.059822 
L 584.517232 218.059822 
z
" style="fill:#96c69a;fill-opacity:0.5;stroke:#ffffff;stroke-linejoin:miter;stroke-width:1.72592;"/>
   </g>
   <g id="patch_42">
    <path clip-path="url(#p67ce3f3853)" d="M 584.517232 218.059822 
L 586.568147 218.059822 
L 586.568147 200.800621 
L 584.517232 200.800621 
z
" style="fill:#96c69a;fill-opacity:0.5;stroke:#ffffff;stroke-linejoin:miter;stroke-width:1.72592;"/>
   </g>
   <g id="patch_43">
    <path clip-path="url(#p67ce3f3853)" d="M 584.517232 200.800621 
L 584.517232 200.800621 
L 584.517232 183.541421 
L 584.517232 183.541421 
z
" style="fill:#96c69a;fill-opacity:0.5;stroke:#ffffff;stroke-linejoin:miter;stroke-width:1.72592;"/>
   </g>
   <g id="patch_44">
    <path clip-path="url(#p67ce3f3853)" d="M 584.517232 183.541421 
L 585.884509 183.541421 
L 585.884509 166.28222 
L 584.517232 166.28222 
z
" style="fill:#96c69a;fill-opacity:0.5;stroke:#ffffff;stroke-linejoin:miter;stroke-width:1.72592;"/>
   </g>
   <g id="patch_45">
    <path clip-path="url(#p67ce3f3853)" d="M 584.517232 166.28222 
L 584.517232 166.28222 
L 584.517232 149.023019 
L 584.517232 149.023019 
z
" style="fill:#96c69a;fill-opacity:0.5;stroke:#ffffff;stroke-linejoin:miter;stroke-width:1.72592;"/>
   </g>
   <g id="patch_46">
    <path clip-path="url(#p67ce3f3853)" d="M 584.517232 149.023019 
L 585.20087 149.023019 
L 585.20087 131.763818 
L 584.517232 131.763818 
z
" style="fill:#96c69a;fill-opacity:0.5;stroke:#ffffff;stroke-linejoin:miter;stroke-width:1.72592;"/>
   </g>
   <g id="patch_47">
    <path d="M 584.517232 602.94 
L 584.517232 109.326857 
" style="fill:none;stroke:#262626;stroke-linecap:square;stroke-linejoin:miter;stroke-width:2.5;"/>
   </g>
   <g id="patch_48">
    <path d="M 584.517232 602.94 
L 667.784375 602.94 
" style="fill:none;stroke:#262626;stroke-linecap:square;stroke-linejoin:miter;stroke-width:2.5;"/>
   </g>
  </g>
 </g>
 <defs>
  <clipPath id="p3a081daabb">
   <rect height="493.613143" width="482.949429" x="84.914375" y="109.326857"/>
  </clipPath>
  <clipPath id="p0b42df57e9">
   <rect height="85.105714" width="482.949429" x="84.914375" y="7.2"/>
  </clipPath>
  <clipPath id="p67ce3f3853">
   <rect height="493.613143" width="83.267143" x="584.517232" y="109.326857"/>
  </clipPath>
 </defs>
</svg>
