<?xml version="1.0" encoding="utf-8" standalone="no"?>
<!DOCTYPE svg PUBLIC "-//W3C//DTD SVG 1.1//EN"
  "http://www.w3.org/Graphics/SVG/1.1/DTD/svg11.dtd">
<svg height="674.159375pt" version="1.1" viewBox="0 0 674.984375 674.159375" width="674.984375pt" xmlns="http://www.w3.org/2000/svg" xmlns:xlink="http://www.w3.org/1999/xlink">
 <metadata>
  <rdf:RDF xmlns:cc="http://creativecommons.org/ns#" xmlns:dc="http://purl.org/dc/elements/1.1/" xmlns:rdf="http://www.w3.org/1999/02/22-rdf-syntax-ns#">
   <cc:Work>
    <dc:type rdf:resource="http://purl.org/dc/dcmitype/StillImage"/>
    <dc:date>2021-07-24T14:58:29.181613</dc:date>
    <dc:format>image/svg+xml</dc:format>
    <dc:creator>
     <cc:Agent>
      <dc:title>Matplotlib v3.4.2, https://matplotlib.org/</dc:title>
     </cc:Agent>
    </dc:creator>
   </cc:Work>
  </rdf:RDF>
 </metadata>
 <defs>
  <style type="text/css">*{stroke-linecap:butt;stroke-linejoin:round;}</style>
 </defs>
 <g id="figure_1">
  <g id="patch_1">
   <path d="M 0 674.159375 
L 674.984375 674.159375 
L 674.984375 0 
L 0 0 
z
" style="fill:#ffffff;"/>
  </g>
  <g id="axes_1">
   <g id="patch_2">
    <path d="M 84.914375 602.94 
L 567.863804 602.94 
L 567.863804 109.326857 
L 84.914375 109.326857 
z
" style="fill:none;"/>
   </g>
   <g id="matplotlib.axis_1">
    <g id="xtick_1">
     <g id="text_1">
      <!-- 0 -->
      <g style="fill:#262626;" transform="translate(99.648239 635.156562)scale(0.22 -0.22)">
       <defs>
        <path d="M 2034 4250 
Q 1547 4250 1301 3770 
Q 1056 3291 1056 2328 
Q 1056 1369 1301 889 
Q 1547 409 2034 409 
Q 2525 409 2770 889 
Q 3016 1369 3016 2328 
Q 3016 3291 2770 3770 
Q 2525 4250 2034 4250 
z
M 2034 4750 
Q 2819 4750 3233 4129 
Q 3647 3509 3647 2328 
Q 3647 1150 3233 529 
Q 2819 -91 2034 -91 
Q 1250 -91 836 529 
Q 422 1150 422 2328 
Q 422 3509 836 4129 
Q 1250 4750 2034 4750 
z
" id="DejaVuSans-30" transform="scale(0.015625)"/>
       </defs>
       <use xlink:href="#DejaVuSans-30"/>
      </g>
     </g>
    </g>
    <g id="xtick_2">
     <g id="text_2">
      <!-- 20000 -->
      <g style="fill:#262626;" transform="translate(159.506153 635.156562)scale(0.22 -0.22)">
       <defs>
        <path d="M 1228 531 
L 3431 531 
L 3431 0 
L 469 0 
L 469 531 
Q 828 903 1448 1529 
Q 2069 2156 2228 2338 
Q 2531 2678 2651 2914 
Q 2772 3150 2772 3378 
Q 2772 3750 2511 3984 
Q 2250 4219 1831 4219 
Q 1534 4219 1204 4116 
Q 875 4013 500 3803 
L 500 4441 
Q 881 4594 1212 4672 
Q 1544 4750 1819 4750 
Q 2544 4750 2975 4387 
Q 3406 4025 3406 3419 
Q 3406 3131 3298 2873 
Q 3191 2616 2906 2266 
Q 2828 2175 2409 1742 
Q 1991 1309 1228 531 
z
" id="DejaVuSans-32" transform="scale(0.015625)"/>
       </defs>
       <use xlink:href="#DejaVuSans-32"/>
       <use x="63.623047" xlink:href="#DejaVuSans-30"/>
       <use x="127.246094" xlink:href="#DejaVuSans-30"/>
       <use x="190.869141" xlink:href="#DejaVuSans-30"/>
       <use x="254.492188" xlink:href="#DejaVuSans-30"/>
      </g>
     </g>
    </g>
    <g id="xtick_3">
     <g id="text_3">
      <!-- 40000 -->
      <g style="fill:#262626;" transform="translate(247.359066 635.156562)scale(0.22 -0.22)">
       <defs>
        <path d="M 2419 4116 
L 825 1625 
L 2419 1625 
L 2419 4116 
z
M 2253 4666 
L 3047 4666 
L 3047 1625 
L 3713 1625 
L 3713 1100 
L 3047 1100 
L 3047 0 
L 2419 0 
L 2419 1100 
L 313 1100 
L 313 1709 
L 2253 4666 
z
" id="DejaVuSans-34" transform="scale(0.015625)"/>
       </defs>
       <use xlink:href="#DejaVuSans-34"/>
       <use x="63.623047" xlink:href="#DejaVuSans-30"/>
       <use x="127.246094" xlink:href="#DejaVuSans-30"/>
       <use x="190.869141" xlink:href="#DejaVuSans-30"/>
       <use x="254.492188" xlink:href="#DejaVuSans-30"/>
      </g>
     </g>
    </g>
    <g id="xtick_4">
     <g id="text_4">
      <!-- 60000 -->
      <g style="fill:#262626;" transform="translate(335.21198 635.156562)scale(0.22 -0.22)">
       <defs>
        <path d="M 2113 2584 
Q 1688 2584 1439 2293 
Q 1191 2003 1191 1497 
Q 1191 994 1439 701 
Q 1688 409 2113 409 
Q 2538 409 2786 701 
Q 3034 994 3034 1497 
Q 3034 2003 2786 2293 
Q 2538 2584 2113 2584 
z
M 3366 4563 
L 3366 3988 
Q 3128 4100 2886 4159 
Q 2644 4219 2406 4219 
Q 1781 4219 1451 3797 
Q 1122 3375 1075 2522 
Q 1259 2794 1537 2939 
Q 1816 3084 2150 3084 
Q 2853 3084 3261 2657 
Q 3669 2231 3669 1497 
Q 3669 778 3244 343 
Q 2819 -91 2113 -91 
Q 1303 -91 875 529 
Q 447 1150 447 2328 
Q 447 3434 972 4092 
Q 1497 4750 2381 4750 
Q 2619 4750 2861 4703 
Q 3103 4656 3366 4563 
z
" id="DejaVuSans-36" transform="scale(0.015625)"/>
       </defs>
       <use xlink:href="#DejaVuSans-36"/>
       <use x="63.623047" xlink:href="#DejaVuSans-30"/>
       <use x="127.246094" xlink:href="#DejaVuSans-30"/>
       <use x="190.869141" xlink:href="#DejaVuSans-30"/>
       <use x="254.492188" xlink:href="#DejaVuSans-30"/>
      </g>
     </g>
    </g>
    <g id="xtick_5">
     <g id="text_5">
      <!-- 80000 -->
      <g style="fill:#262626;" transform="translate(423.064893 635.156562)scale(0.22 -0.22)">
       <defs>
        <path d="M 2034 2216 
Q 1584 2216 1326 1975 
Q 1069 1734 1069 1313 
Q 1069 891 1326 650 
Q 1584 409 2034 409 
Q 2484 409 2743 651 
Q 3003 894 3003 1313 
Q 3003 1734 2745 1975 
Q 2488 2216 2034 2216 
z
M 1403 2484 
Q 997 2584 770 2862 
Q 544 3141 544 3541 
Q 544 4100 942 4425 
Q 1341 4750 2034 4750 
Q 2731 4750 3128 4425 
Q 3525 4100 3525 3541 
Q 3525 3141 3298 2862 
Q 3072 2584 2669 2484 
Q 3125 2378 3379 2068 
Q 3634 1759 3634 1313 
Q 3634 634 3220 271 
Q 2806 -91 2034 -91 
Q 1263 -91 848 271 
Q 434 634 434 1313 
Q 434 1759 690 2068 
Q 947 2378 1403 2484 
z
M 1172 3481 
Q 1172 3119 1398 2916 
Q 1625 2713 2034 2713 
Q 2441 2713 2670 2916 
Q 2900 3119 2900 3481 
Q 2900 3844 2670 4047 
Q 2441 4250 2034 4250 
Q 1625 4250 1398 4047 
Q 1172 3844 1172 3481 
z
" id="DejaVuSans-38" transform="scale(0.015625)"/>
       </defs>
       <use xlink:href="#DejaVuSans-38"/>
       <use x="63.623047" xlink:href="#DejaVuSans-30"/>
       <use x="127.246094" xlink:href="#DejaVuSans-30"/>
       <use x="190.869141" xlink:href="#DejaVuSans-30"/>
       <use x="254.492188" xlink:href="#DejaVuSans-30"/>
      </g>
     </g>
    </g>
    <g id="xtick_6">
     <g id="text_6">
      <!-- 100000 -->
      <g style="fill:#262626;" transform="translate(503.919057 635.156562)scale(0.22 -0.22)">
       <defs>
        <path d="M 794 531 
L 1825 531 
L 1825 4091 
L 703 3866 
L 703 4441 
L 1819 4666 
L 2450 4666 
L 2450 531 
L 3481 531 
L 3481 0 
L 794 0 
L 794 531 
z
" id="DejaVuSans-31" transform="scale(0.015625)"/>
       </defs>
       <use xlink:href="#DejaVuSans-31"/>
       <use x="63.623047" xlink:href="#DejaVuSans-30"/>
       <use x="127.246094" xlink:href="#DejaVuSans-30"/>
       <use x="190.869141" xlink:href="#DejaVuSans-30"/>
       <use x="254.492188" xlink:href="#DejaVuSans-30"/>
       <use x="318.115234" xlink:href="#DejaVuSans-30"/>
      </g>
     </g>
    </g>
    <g id="text_7">
     <!-- MDTU -->
     <g style="fill:#262626;" transform="translate(290.683464 661.968125)scale(0.24 -0.24)">
      <defs>
       <path d="M 628 4666 
L 1569 4666 
L 2759 1491 
L 3956 4666 
L 4897 4666 
L 4897 0 
L 4281 0 
L 4281 4097 
L 3078 897 
L 2444 897 
L 1241 4097 
L 1241 0 
L 628 0 
L 628 4666 
z
" id="DejaVuSans-4d" transform="scale(0.015625)"/>
       <path d="M 1259 4147 
L 1259 519 
L 2022 519 
Q 2988 519 3436 956 
Q 3884 1394 3884 2338 
Q 3884 3275 3436 3711 
Q 2988 4147 2022 4147 
L 1259 4147 
z
M 628 4666 
L 1925 4666 
Q 3281 4666 3915 4102 
Q 4550 3538 4550 2338 
Q 4550 1131 3912 565 
Q 3275 0 1925 0 
L 628 0 
L 628 4666 
z
" id="DejaVuSans-44" transform="scale(0.015625)"/>
       <path d="M -19 4666 
L 3928 4666 
L 3928 4134 
L 2272 4134 
L 2272 0 
L 1638 0 
L 1638 4134 
L -19 4134 
L -19 4666 
z
" id="DejaVuSans-54" transform="scale(0.015625)"/>
       <path d="M 556 4666 
L 1191 4666 
L 1191 1831 
Q 1191 1081 1462 751 
Q 1734 422 2344 422 
Q 2950 422 3222 751 
Q 3494 1081 3494 1831 
L 3494 4666 
L 4128 4666 
L 4128 1753 
Q 4128 841 3676 375 
Q 3225 -91 2344 -91 
Q 1459 -91 1007 375 
Q 556 841 556 1753 
L 556 4666 
z
" id="DejaVuSans-55" transform="scale(0.015625)"/>
      </defs>
      <use xlink:href="#DejaVuSans-4d"/>
      <use x="86.279297" xlink:href="#DejaVuSans-44"/>
      <use x="163.28125" xlink:href="#DejaVuSans-54"/>
      <use x="224.365234" xlink:href="#DejaVuSans-55"/>
     </g>
    </g>
   </g>
   <g id="matplotlib.axis_2">
    <g id="ytick_1">
     <g id="text_8">
      <!-- 0.6 -->
      <g style="fill:#262626;" transform="translate(34.4275 583.620508)scale(0.22 -0.22)">
       <defs>
        <path d="M 684 794 
L 1344 794 
L 1344 0 
L 684 0 
L 684 794 
z
" id="DejaVuSans-2e" transform="scale(0.015625)"/>
       </defs>
       <use xlink:href="#DejaVuSans-30"/>
       <use x="63.623047" xlink:href="#DejaVuSans-2e"/>
       <use x="95.410156" xlink:href="#DejaVuSans-36"/>
      </g>
     </g>
    </g>
    <g id="ytick_2">
     <g id="text_9">
      <!-- 0.8 -->
      <g style="fill:#262626;" transform="translate(34.4275 516.72454)scale(0.22 -0.22)">
       <use xlink:href="#DejaVuSans-30"/>
       <use x="63.623047" xlink:href="#DejaVuSans-2e"/>
       <use x="95.410156" xlink:href="#DejaVuSans-38"/>
      </g>
     </g>
    </g>
    <g id="ytick_3">
     <g id="text_10">
      <!-- 1.0 -->
      <g style="fill:#262626;" transform="translate(34.4275 449.828571)scale(0.22 -0.22)">
       <use xlink:href="#DejaVuSans-31"/>
       <use x="63.623047" xlink:href="#DejaVuSans-2e"/>
       <use x="95.410156" xlink:href="#DejaVuSans-30"/>
      </g>
     </g>
    </g>
    <g id="ytick_4">
     <g id="text_11">
      <!-- 1.2 -->
      <g style="fill:#262626;" transform="translate(34.4275 382.932603)scale(0.22 -0.22)">
       <use xlink:href="#DejaVuSans-31"/>
       <use x="63.623047" xlink:href="#DejaVuSans-2e"/>
       <use x="95.410156" xlink:href="#DejaVuSans-32"/>
      </g>
     </g>
    </g>
    <g id="ytick_5">
     <g id="text_12">
      <!-- 1.4 -->
      <g style="fill:#262626;" transform="translate(34.4275 316.036635)scale(0.22 -0.22)">
       <use xlink:href="#DejaVuSans-31"/>
       <use x="63.623047" xlink:href="#DejaVuSans-2e"/>
       <use x="95.410156" xlink:href="#DejaVuSans-34"/>
      </g>
     </g>
    </g>
    <g id="ytick_6">
     <g id="text_13">
      <!-- 1.6 -->
      <g style="fill:#262626;" transform="translate(34.4275 249.140667)scale(0.22 -0.22)">
       <use xlink:href="#DejaVuSans-31"/>
       <use x="63.623047" xlink:href="#DejaVuSans-2e"/>
       <use x="95.410156" xlink:href="#DejaVuSans-36"/>
      </g>
     </g>
    </g>
    <g id="ytick_7">
     <g id="text_14">
      <!-- 1.8 -->
      <g style="fill:#262626;" transform="translate(34.4275 182.244698)scale(0.22 -0.22)">
       <use xlink:href="#DejaVuSans-31"/>
       <use x="63.623047" xlink:href="#DejaVuSans-2e"/>
       <use x="95.410156" xlink:href="#DejaVuSans-38"/>
      </g>
     </g>
    </g>
    <g id="text_15">
     <!-- $E$ -->
     <g style="fill:#262626;" transform="translate(25.43625 363.813429)rotate(-90)scale(0.24 -0.24)">
      <defs>
       <path d="M 1081 4666 
L 4031 4666 
L 3928 4134 
L 1606 4134 
L 1338 2753 
L 3566 2753 
L 3463 2222 
L 1234 2222 
L 909 531 
L 3284 531 
L 3181 0 
L 172 0 
L 1081 4666 
z
" id="DejaVuSans-Oblique-45" transform="scale(0.015625)"/>
      </defs>
      <use transform="translate(0 0.09375)" xlink:href="#DejaVuSans-Oblique-45"/>
     </g>
    </g>
   </g>
   <g id="line2d_1">
    <path clip-path="url(#pe2ded37e0b)" d="M 106.866622 524.048043 
L 107.086254 541.953072 
L 107.305886 426.30882 
L 107.525519 408.845401 
L 107.964783 540.473659 
L 108.184415 531.39565 
L 108.404048 350.835618 
L 108.62368 465.295338 
L 108.843312 485.945904 
L 109.282577 377.223804 
L 109.721841 462.542899 
L 109.941474 398.025667 
L 110.380738 447.869005 
L 110.820003 302.650345 
L 111.039635 471.062825 
L 111.259267 269.758806 
L 111.4789 486.765064 
L 111.698532 474.417798 
L 111.918164 485.943138 
L 112.137797 392.173456 
L 112.577061 475.853362 
L 113.016326 324.483362 
L 113.235958 494.37943 
L 113.45559 498.325283 
L 113.675223 455.25546 
L 113.894855 538.052331 
L 114.114487 405.639511 
L 114.334119 393.818353 
L 114.553752 503.776115 
L 114.773384 329.181246 
L 114.993016 507.708087 
L 115.212649 345.749925 
L 115.432281 438.180698 
L 115.651913 432.126459 
L 115.871545 407.573249 
L 116.091178 430.201308 
L 116.31081 433.413197 
L 116.530442 516.863147 
L 116.750075 383.205443 
L 116.969707 351.529089 
L 117.189339 434.635804 
L 117.408971 440.270413 
L 117.628604 523.199534 
L 118.067868 395.959151 
L 118.507133 436.180158 
L 118.726765 427.8225 
L 118.946397 476.715564 
L 119.16603 473.393981 
L 119.385662 475.685331 
L 119.605294 374.949606 
L 119.824926 452.862874 
L 120.044559 386.047107 
L 120.264191 460.056802 
L 120.483823 485.843656 
L 120.703456 462.389101 
L 120.923088 426.930166 
L 121.14272 420.328334 
L 121.362352 358.997156 
L 121.801617 432.937391 
L 122.021249 356.186417 
L 122.240882 472.894007 
L 122.460514 424.021216 
L 122.680146 518.502212 
L 122.899778 442.071792 
L 123.119411 449.895954 
L 123.339043 568.292263 
L 123.558675 460.159591 
L 123.778308 295.630477 
L 124.217572 480.118259 
L 124.437204 286.317456 
L 124.656837 347.927564 
L 124.876469 458.455823 
L 125.096101 500.586544 
L 125.535366 372.11031 
L 125.754998 455.69901 
L 126.194263 437.834727 
L 126.413895 515.573438 
L 126.633527 486.174965 
L 126.85316 506.92329 
L 127.072792 487.138126 
L 127.292424 391.909193 
L 127.512056 397.394739 
L 127.731689 468.964479 
L 127.951321 471.550777 
L 128.170953 326.455552 
L 128.390586 380.533392 
L 128.610218 389.094711 
L 128.82985 446.810626 
L 129.049482 370.901523 
L 129.488747 521.164874 
L 129.708379 489.728639 
L 129.928012 302.341061 
L 130.147644 481.761925 
L 130.367276 426.073884 
L 130.586908 409.609487 
L 130.806541 481.392484 
L 131.026173 360.467587 
L 131.245805 405.66419 
L 131.465438 477.23698 
L 131.68507 410.314908 
L 131.904702 436.182201 
L 132.124334 413.729354 
L 132.343967 480.462877 
L 132.563599 387.530249 
L 132.783231 374.775029 
L 133.002864 496.29492 
L 133.222496 364.082219 
L 133.442128 339.699023 
L 133.881393 422.860022 
L 134.101025 322.795414 
L 134.320657 450.407052 
L 134.540289 429.885462 
L 134.759922 500.924103 
L 134.979554 407.077331 
L 135.199186 504.370903 
L 135.418819 407.047176 
L 135.638451 484.366907 
L 135.858083 336.329186 
L 136.077715 546.141626 
L 136.297348 392.85559 
L 136.51698 453.989942 
L 136.736612 454.300655 
L 136.956245 502.730013 
L 137.175877 406.637951 
L 137.395509 414.029086 
L 137.615141 353.362617 
L 137.834774 385.121742 
L 138.054406 579.109428 
L 138.493671 368.391731 
L 138.713303 386.13498 
L 138.932935 437.888028 
L 139.152567 519.389826 
L 139.3722 480.618526 
L 139.591832 509.060116 
L 140.031097 347.383501 
L 140.470361 460.134463 
L 140.689993 347.973428 
L 140.909626 473.526876 
L 141.129258 398.402555 
L 141.34889 456.468298 
L 141.788155 387.089624 
L 142.007787 509.292187 
L 142.227419 335.822673 
L 142.447052 505.94369 
L 142.666684 520.218823 
L 142.886316 487.892459 
L 143.105949 417.735135 
L 143.545213 463.095445 
L 143.764845 459.412496 
L 143.984478 426.250422 
L 144.20411 484.556128 
L 144.423742 349.773531 
L 144.643375 358.791189 
L 144.863007 436.501549 
L 145.082639 453.843243 
L 145.302271 418.12345 
L 145.521904 333.516877 
L 145.741536 461.590749 
L 145.961168 355.580232 
L 146.180801 466.636131 
L 146.400433 384.929772 
L 146.620065 488.62061 
L 146.839697 471.406958 
L 147.05933 431.464774 
L 147.278962 363.038292 
L 147.498594 471.228616 
L 147.718227 486.521985 
L 147.937859 470.490574 
L 148.157491 378.548817 
L 148.377123 526.954697 
L 148.596756 319.712799 
L 148.816388 426.526084 
L 149.03602 463.193791 
L 149.255653 331.760754 
L 149.694917 457.847558 
L 149.914549 368.557613 
L 150.134182 354.119796 
L 150.353814 435.375155 
L 150.573446 463.790754 
L 150.793078 418.137631 
L 151.012711 338.169005 
L 151.232343 508.929147 
L 151.451975 502.379744 
L 151.671608 403.80524 
L 152.110872 348.789996 
L 152.330504 527.62527 
L 152.550137 425.935764 
L 152.769769 536.533405 
L 152.989401 513.125097 
L 153.428666 405.365804 
L 153.648298 491.132846 
L 153.86793 357.752992 
L 154.087563 470.840274 
L 154.307195 501.037561 
L 154.526827 319.443716 
L 154.74646 469.244079 
L 154.966092 396.997794 
L 155.185724 459.639401 
L 155.405356 485.029587 
L 155.624989 331.317425 
L 155.844621 310.776601 
L 156.064253 483.104327 
L 156.283886 486.226372 
L 156.72315 407.442506 
L 156.942782 457.761464 
L 157.162415 444.840885 
L 157.382047 424.869232 
L 157.601679 544.120472 
L 157.821312 441.49071 
L 158.040944 541.684081 
L 158.260576 486.22508 
L 158.480208 279.154396 
L 158.699841 277.940121 
L 158.919473 404.876595 
L 159.139105 395.265439 
L 159.358738 463.192407 
L 159.57837 298.441245 
L 159.798002 444.727078 
L 160.017634 510.860665 
L 160.237267 447.476964 
L 160.456899 294.64532 
L 160.676531 443.947379 
L 160.896164 377.629524 
L 161.115796 474.669958 
L 161.335428 457.358279 
L 161.55506 427.485651 
L 161.774693 436.447064 
L 161.994325 425.972378 
L 162.213957 524.727267 
L 162.43359 348.527554 
L 162.653222 393.38027 
L 162.872854 461.99552 
L 163.092486 434.73455 
L 163.312119 461.203321 
L 163.531751 363.439676 
L 163.751383 453.837967 
L 164.190648 411.599473 
L 164.41028 509.515882 
L 164.629912 334.69339 
L 164.849545 409.070142 
L 165.069177 341.53323 
L 165.288809 449.009562 
L 165.508441 370.979658 
L 165.728074 545.477102 
L 165.947706 431.735334 
L 166.167338 446.277675 
L 166.386971 446.773707 
L 166.606603 509.045881 
L 166.826235 412.811494 
L 167.045867 471.102826 
L 167.2655 454.782913 
L 167.485132 448.742252 
L 167.704764 459.450578 
L 168.144029 409.485244 
L 168.363661 248.640162 
L 168.583293 513.403339 
L 168.802926 505.621366 
L 169.022558 327.819408 
L 169.24219 301.724557 
L 169.681455 568.550988 
L 169.901087 453.146806 
L 170.120719 493.596623 
L 170.340352 387.973873 
L 170.559984 431.20971 
L 170.779616 184.262471 
L 170.999249 419.579181 
L 171.218881 365.225258 
L 171.438513 491.034745 
L 171.658145 497.458081 
L 171.877778 348.504885 
L 172.09741 513.67128 
L 172.317042 525.152075 
L 172.536675 383.83438 
L 172.756307 478.186452 
L 172.975939 438.750834 
L 173.195571 329.633778 
L 173.415204 438.924817 
L 173.634836 419.025239 
L 173.854468 440.625398 
L 174.074101 391.664393 
L 174.293733 480.911196 
L 174.513365 347.356805 
L 174.732997 483.173568 
L 174.95263 451.759412 
L 175.172262 350.610708 
L 175.391894 512.758866 
L 175.611527 426.380737 
L 175.831159 493.031823 
L 176.050791 406.947389 
L 176.270423 436.671764 
L 176.490056 348.384859 
L 176.709688 446.53423 
L 176.92932 397.914636 
L 177.368585 374.922098 
L 177.588217 510.222506 
L 177.807849 482.48953 
L 178.027482 418.734951 
L 178.247114 515.246761 
L 178.466746 355.942955 
L 178.686379 377.314954 
L 178.906011 477.068524 
L 179.125643 414.218847 
L 179.345275 449.603143 
L 179.564908 441.28766 
L 179.78454 445.693896 
L 180.004172 400.515205 
L 180.223805 402.284305 
L 180.443437 524.202163 
L 180.882701 368.476584 
L 181.102334 371.87006 
L 181.321966 450.209512 
L 181.541598 456.483334 
L 181.76123 406.340617 
L 181.980863 475.308256 
L 182.200495 362.865269 
L 182.420127 472.278245 
L 182.63976 331.267117 
L 182.859392 470.590695 
L 183.079024 533.3684 
L 183.518289 429.473449 
L 183.737921 292.931959 
L 183.957553 435.564591 
L 184.177186 458.990977 
L 184.396818 457.616762 
L 184.61645 378.811654 
L 184.836082 465.058809 
L 185.055715 438.276102 
L 185.275347 430.911182 
L 185.714612 456.584445 
L 185.934244 421.718062 
L 186.153876 358.787428 
L 186.373508 557.824044 
L 186.593141 391.916555 
L 186.812773 496.008795 
L 187.032405 351.287131 
L 187.252038 470.251627 
L 187.47167 282.136259 
L 187.691302 374.52394 
L 187.910934 527.911412 
L 188.130567 426.709138 
L 188.350199 410.246934 
L 188.569831 519.996447 
L 188.789464 328.978722 
L 189.009096 438.456664 
L 189.228728 441.484054 
L 189.44836 455.917345 
L 189.887625 440.528103 
L 190.107257 507.328469 
L 190.32689 357.626969 
L 190.546522 342.460489 
L 190.766154 471.573403 
L 190.985786 379.97476 
L 191.205419 451.546229 
L 191.425051 406.827933 
L 191.644683 509.370748 
L 191.864316 466.80119 
L 192.083948 387.879727 
L 192.30358 462.02373 
L 192.523212 475.188286 
L 192.742845 508.200069 
L 192.962477 396.374219 
L 193.401742 437.470224 
L 193.621374 427.197628 
L 193.841006 403.431233 
L 194.060638 497.224157 
L 194.280271 498.584684 
L 194.499903 539.77272 
L 194.719535 411.683214 
L 194.939168 468.723422 
L 195.1588 428.48357 
L 195.378432 419.427832 
L 195.598064 421.132802 
L 195.817697 400.970651 
L 196.256961 462.952574 
L 196.476593 410.133567 
L 196.696226 398.120142 
L 196.915858 397.772221 
L 197.13549 505.715739 
L 197.355123 320.171777 
L 197.574755 407.981434 
L 197.794387 428.643753 
L 198.014019 431.434594 
L 198.233652 411.513517 
L 198.892549 523.068131 
L 199.112181 465.989817 
L 199.331813 355.178373 
L 199.551445 490.110238 
L 199.771078 447.433456 
L 199.99071 516.654681 
L 200.210342 487.084311 
L 200.649607 470.612477 
L 200.869239 362.542599 
L 201.088871 388.179032 
L 201.528136 480.430208 
L 201.747768 348.465303 
L 201.967401 352.012241 
L 202.187033 529.061622 
L 202.406665 463.423431 
L 202.626297 484.210924 
L 202.84593 279.79854 
L 203.504827 469.963225 
L 203.724459 398.828739 
L 203.944091 464.036991 
L 204.163723 384.106391 
L 204.383356 416.443094 
L 204.602988 489.122816 
L 205.042253 450.944191 
L 205.261885 377.378645 
L 205.481517 423.950305 
L 205.701149 387.694642 
L 206.140414 434.464083 
L 206.360046 430.579834 
L 206.579679 377.322716 
L 206.799311 495.907926 
L 207.018943 508.981645 
L 207.238575 337.423754 
L 207.458208 478.842779 
L 207.67784 358.539426 
L 207.897472 346.81879 
L 208.117105 508.168087 
L 208.336737 376.14122 
L 208.556369 368.272088 
L 208.776001 392.351196 
L 208.995634 495.154471 
L 209.215266 442.309554 
L 209.434898 469.303972 
L 209.654531 379.38013 
L 209.874163 466.551079 
L 210.093795 509.494854 
L 210.313427 387.37894 
L 210.53306 411.501241 
L 210.752692 485.69848 
L 210.972324 452.96805 
L 211.191956 460.621347 
L 211.411589 421.699333 
L 211.631221 404.198782 
L 211.850853 438.502332 
L 212.070486 292.15564 
L 212.290118 464.62066 
L 212.50975 385.749494 
L 212.949015 349.886798 
L 213.168647 418.470569 
L 213.388279 347.794261 
L 213.607912 401.187116 
L 213.827544 494.545587 
L 214.266808 375.88547 
L 214.486441 473.547643 
L 214.706073 433.341762 
L 214.925705 457.806679 
L 215.36497 341.02494 
L 215.584602 453.900931 
L 215.804234 440.187803 
L 216.023867 442.221855 
L 216.243499 437.880112 
L 216.463131 298.5896 
L 216.682764 509.378715 
L 216.902396 410.453224 
L 217.122028 401.727599 
L 217.34166 427.059218 
L 217.561293 389.490471 
L 217.780925 408.390973 
L 218.000557 466.971072 
L 218.22019 456.758707 
L 218.439822 351.574032 
L 218.659454 358.326312 
L 218.879086 424.253867 
L 219.098719 433.704389 
L 219.318351 434.206826 
L 219.537983 322.969604 
L 219.757616 504.943004 
L 219.977248 428.321598 
L 220.19688 413.793019 
L 220.416512 480.001913 
L 220.636145 438.48356 
L 220.855777 420.786393 
L 221.075409 431.15493 
L 221.295042 328.094525 
L 221.514674 458.088478 
L 221.734306 505.030743 
L 221.953938 265.698005 
L 222.173571 431.485072 
L 222.612835 438.31466 
L 222.832468 459.417633 
L 223.0521 459.574849 
L 223.271732 460.786484 
L 223.491364 456.462036 
L 223.710997 378.522885 
L 223.930629 341.419308 
L 224.150261 436.823094 
L 224.369894 427.003097 
L 224.589526 472.716718 
L 224.809158 386.246661 
L 225.02879 451.485344 
L 225.468055 306.69768 
L 225.687687 425.925173 
L 226.126952 355.445208 
L 226.346584 499.800114 
L 226.566216 461.433313 
L 226.785849 490.099225 
L 227.005481 496.45755 
L 227.225113 451.755815 
L 227.444745 362.637465 
L 227.88401 389.256483 
L 228.103642 351.860365 
L 228.323275 443.133014 
L 228.542907 441.217187 
L 228.762539 448.372198 
L 228.982171 428.218455 
L 229.421436 412.757609 
L 229.641068 457.852282 
L 229.860701 536.942123 
L 230.080333 402.433151 
L 230.299965 434.021875 
L 230.519597 365.442256 
L 230.73923 394.920483 
L 231.178494 413.656592 
L 231.398127 413.543005 
L 231.617759 354.483822 
L 231.837391 443.622441 
L 232.057023 384.565715 
L 232.276656 518.26149 
L 232.496288 369.991675 
L 232.71592 423.613218 
L 232.935553 341.603828 
L 233.155185 528.228516 
L 233.374817 558.568222 
L 233.594449 481.60979 
L 233.814082 520.636337 
L 234.253346 387.909917 
L 234.472979 423.952561 
L 234.692611 387.39771 
L 234.912243 304.102385 
L 235.131875 466.788154 
L 235.351508 385.448426 
L 235.790772 416.124426 
L 236.010405 453.333553 
L 236.230037 466.398646 
L 236.449669 402.16538 
L 236.669301 295.675899 
L 236.888934 355.01891 
L 237.108566 483.256696 
L 237.328198 501.173605 
L 237.767463 429.328252 
L 237.987095 311.393497 
L 238.206727 539.402825 
L 238.42636 296.02244 
L 238.645992 505.142126 
L 238.865624 253.353235 
L 239.085257 451.841852 
L 239.304889 525.228966 
L 239.524521 393.665437 
L 239.744153 365.376807 
L 239.963786 536.468471 
L 240.183418 387.486128 
L 240.40305 413.505591 
L 240.622683 524.581336 
L 240.842315 302.007822 
L 241.061947 302.742872 
L 241.281579 427.639033 
L 241.501212 464.250897 
L 241.720844 361.407081 
L 241.940476 338.40173 
L 242.160108 369.434501 
L 242.379741 459.213341 
L 242.599373 485.182522 
L 243.038638 310.942591 
L 243.25827 320.303409 
L 243.477902 504.755676 
L 243.697534 424.609147 
L 243.917167 399.945875 
L 244.356431 462.217259 
L 244.576064 440.089973 
L 244.795696 506.446001 
L 245.015328 353.350326 
L 245.454593 456.009501 
L 245.674225 325.695048 
L 246.11349 440.841327 
L 246.333122 370.751953 
L 246.772386 469.880319 
L 246.992019 437.78128 
L 247.211651 424.216504 
L 247.431283 551.960166 
L 247.650916 491.033946 
L 247.870548 501.946934 
L 248.09018 417.086968 
L 248.309812 131.763818 
L 248.529445 412.936027 
L 248.749077 406.420586 
L 248.968709 470.712993 
L 249.188342 394.132472 
L 249.407974 477.351134 
L 249.627606 377.098089 
L 249.847238 527.26857 
L 250.066871 414.202687 
L 250.286503 500.8415 
L 250.506135 410.621253 
L 250.725768 399.183319 
L 250.9454 463.421019 
L 251.165032 418.803778 
L 251.384664 526.198692 
L 251.604297 475.380966 
L 251.823929 475.837837 
L 252.043561 397.579432 
L 252.263194 477.628959 
L 252.482826 463.421025 
L 252.702458 426.0904 
L 252.92209 368.74951 
L 253.141723 346.254534 
L 253.361355 455.906423 
L 253.580987 332.438173 
L 254.239884 430.067519 
L 254.459516 418.888456 
L 254.679149 391.759174 
L 255.118413 443.706439 
L 255.338046 457.336947 
L 255.557678 487.602456 
L 255.77731 405.432358 
L 255.996942 393.532531 
L 256.216575 321.620288 
L 256.436207 470.62674 
L 256.655839 376.872494 
L 256.875472 480.675154 
L 257.095104 372.772146 
L 257.314736 436.554426 
L 257.534368 372.871135 
L 257.754001 494.088012 
L 257.973633 259.420074 
L 258.412897 462.291376 
L 258.63253 486.205463 
L 258.852162 405.325773 
L 259.071794 453.353054 
L 259.291427 415.25117 
L 259.511059 484.799085 
L 259.730691 384.725477 
L 260.169956 517.576764 
L 260.389588 445.498989 
L 260.60922 482.030692 
L 260.828853 472.79904 
L 261.048485 436.43165 
L 261.268117 369.136281 
L 261.487749 459.237238 
L 261.707382 450.448972 
L 261.927014 401.45699 
L 262.146646 520.652747 
L 262.366279 425.203963 
L 262.585911 521.355494 
L 262.805543 486.143367 
L 263.025175 478.133739 
L 263.244808 485.343826 
L 263.46444 242.245186 
L 263.684072 388.073663 
L 263.903705 433.599792 
L 264.123337 438.882209 
L 264.342969 260.449173 
L 264.562601 520.761328 
L 265.001866 422.476621 
L 265.221498 467.633837 
L 265.441131 441.29669 
L 265.660763 318.548605 
L 265.880395 407.957741 
L 266.100027 387.77147 
L 266.31966 391.986001 
L 266.539292 474.408688 
L 266.758924 336.713703 
L 266.978557 443.686737 
L 267.198189 469.118614 
L 267.417821 413.380571 
L 267.857086 519.015644 
L 268.076718 499.180413 
L 268.29635 444.521935 
L 268.515983 458.241489 
L 268.735615 441.934739 
L 268.955247 345.795466 
L 269.174879 442.416074 
L 269.614144 331.396548 
L 269.833776 546.101248 
L 270.053409 326.211085 
L 270.273041 368.317024 
L 270.492673 361.517169 
L 270.712305 509.962054 
L 271.15157 330.701563 
L 271.590835 480.58985 
L 271.810467 480.93866 
L 272.030099 438.647929 
L 272.249731 437.401569 
L 272.469364 488.655486 
L 272.688996 407.112168 
L 272.908628 482.698561 
L 273.12826 458.024915 
L 273.347893 383.269802 
L 273.787157 481.833993 
L 274.00679 433.463669 
L 274.446054 506.496138 
L 274.665686 444.635998 
L 274.885319 422.851516 
L 275.104951 375.732272 
L 275.324583 452.276622 
L 275.544216 408.398151 
L 275.763848 414.684643 
L 275.98348 390.159192 
L 276.203112 461.171978 
L 276.422745 456.695336 
L 276.642377 430.088423 
L 276.862009 528.996062 
L 277.081642 437.579607 
L 277.301274 459.109333 
L 277.520906 501.002623 
L 277.740538 435.713888 
L 278.179803 411.461661 
L 278.399435 363.595195 
L 278.619068 572.122499 
L 278.8387 317.793007 
L 279.058332 387.420289 
L 279.277964 367.765409 
L 279.497597 530.391632 
L 279.717229 466.330351 
L 279.936861 553.547344 
L 280.376126 444.96672 
L 280.595758 435.761266 
L 280.81539 450.947677 
L 281.035023 474.762949 
L 281.254655 405.346647 
L 281.474287 471.596985 
L 281.69392 362.737539 
L 281.913552 505.777189 
L 282.133184 362.348244 
L 282.352816 341.300356 
L 282.572449 515.831213 
L 282.792081 465.764444 
L 283.011713 453.936388 
L 283.231346 265.067986 
L 283.67061 510.780504 
L 283.890242 362.936352 
L 284.109875 441.043955 
L 284.329507 357.197494 
L 284.549139 412.30744 
L 284.768772 522.696979 
L 284.988404 426.717204 
L 285.427668 458.132999 
L 285.647301 401.750305 
L 285.866933 490.832286 
L 286.086565 488.445416 
L 286.306198 383.330013 
L 286.52583 425.791 
L 286.745462 317.375752 
L 287.184727 529.719394 
L 287.404359 402.662275 
L 287.623991 428.448494 
L 287.843624 304.376387 
L 288.063256 377.062167 
L 288.282888 378.373429 
L 288.50252 471.880641 
L 288.722153 494.988833 
L 288.941785 437.501735 
L 289.161417 416.388783 
L 289.381049 459.556402 
L 289.820314 491.136265 
L 290.039946 462.827761 
L 290.259579 470.275231 
L 290.479211 334.635205 
L 290.698843 430.773893 
L 290.918475 436.462409 
L 291.138108 475.713709 
L 291.35774 349.975289 
L 291.577372 399.942504 
L 291.797005 256.325419 
L 292.016637 431.458051 
L 292.236269 326.020665 
L 292.455901 429.270941 
L 292.895166 507.641989 
L 293.114798 464.487361 
L 293.334431 339.369993 
L 293.554063 445.865538 
L 293.993327 511.6619 
L 294.21296 322.463224 
L 294.432592 370.186032 
L 294.652224 353.384688 
L 294.871857 489.201736 
L 295.091489 360.120864 
L 295.311121 555.255555 
L 295.530753 458.879289 
L 295.750386 443.04154 
L 295.970018 484.054172 
L 296.18965 357.047872 
L 296.409283 431.895302 
L 296.628915 462.78816 
L 296.848547 322.989463 
L 297.068179 486.081243 
L 297.287812 489.137078 
L 297.507444 415.992383 
L 297.727076 421.76144 
L 297.946709 455.364663 
L 298.166341 349.648778 
L 298.385973 556.858258 
L 298.605605 455.719725 
L 298.825238 419.583469 
L 299.04487 341.985256 
L 299.264502 413.23676 
L 299.484135 442.285028 
L 299.703767 543.512584 
L 299.923399 386.359532 
L 300.143031 335.359235 
L 300.362664 529.337308 
L 300.582296 400.530266 
L 300.801928 373.621208 
L 301.021561 384.266639 
L 301.241193 418.009718 
L 301.460825 425.579562 
L 301.680457 398.428912 
L 301.90009 510.778589 
L 302.119722 431.907181 
L 302.339354 488.838953 
L 302.558987 400.366912 
L 302.778619 422.038212 
L 302.998251 331.662544 
L 303.437516 417.834039 
L 303.657148 418.646044 
L 303.87678 554.444494 
L 304.096412 475.922602 
L 304.535677 447.302213 
L 304.755309 479.599298 
L 305.194574 317.840718 
L 305.633838 439.233149 
L 305.853471 378.89178 
L 306.073103 386.7236 
L 306.292735 481.814299 
L 306.512368 484.073815 
L 306.732 492.707125 
L 306.951632 464.620634 
L 307.171264 396.698696 
L 307.390897 399.717389 
L 307.610529 462.998353 
L 307.830161 414.580523 
L 308.049794 412.741564 
L 308.269426 427.468247 
L 308.489058 434.126588 
L 308.70869 335.915667 
L 309.147955 503.110304 
L 309.367587 421.888279 
L 309.58722 419.525475 
L 309.806852 373.145457 
L 310.026484 454.180311 
L 310.246116 423.017942 
L 310.465749 240.91334 
L 310.905013 521.259816 
L 311.124646 473.622457 
L 311.344278 374.300146 
L 311.56391 480.840017 
L 311.783542 525.623114 
L 312.222807 444.519831 
L 312.442439 514.771987 
L 312.662072 479.868065 
L 312.881704 392.1871 
L 313.101336 501.474262 
L 313.320968 340.283077 
L 313.540601 397.449237 
L 313.760233 412.517733 
L 313.979865 495.554866 
L 314.199498 473.756591 
L 314.638762 402.055607 
L 314.858394 451.365843 
L 315.078027 469.564282 
L 315.297659 398.900938 
L 315.736924 448.0756 
L 315.956556 451.122507 
L 316.176188 354.752632 
L 316.615453 498.391341 
L 316.835085 411.808112 
L 317.054717 497.177281 
L 317.27435 412.976172 
L 317.493982 511.267616 
L 317.713614 451.944487 
L 317.933246 440.148149 
L 318.152879 394.768527 
L 318.372511 516.825179 
L 318.811775 454.421927 
L 319.031408 340.656074 
L 319.25104 431.347275 
L 319.470672 405.242225 
L 319.690305 410.67581 
L 320.129569 500.299489 
L 320.349201 508.934588 
L 320.568834 489.826 
L 321.008098 401.578488 
L 321.227731 432.807194 
L 321.447363 427.228723 
L 321.666995 393.742317 
L 321.886627 436.915307 
L 322.10626 518.156327 
L 322.325892 363.037416 
L 322.545524 529.474032 
L 322.765157 488.944782 
L 322.984789 408.162356 
L 323.204421 423.866357 
L 323.424053 404.694559 
L 323.643686 480.108872 
L 323.863318 423.194206 
L 324.08295 540.010708 
L 324.302583 182.449562 
L 324.741847 510.043226 
L 324.961479 408.14136 
L 325.181112 481.111315 
L 325.400744 460.462024 
L 325.840009 375.495655 
L 326.059641 467.238935 
L 326.279273 431.693617 
L 326.498905 493.464138 
L 326.718538 497.568646 
L 326.93817 533.912073 
L 327.157802 307.482334 
L 327.377435 455.87602 
L 327.597067 427.126072 
L 327.816699 348.813806 
L 328.036331 363.46084 
L 328.255964 463.796809 
L 328.475596 489.005156 
L 328.695228 446.802372 
L 328.914861 453.680228 
L 329.134493 499.612185 
L 329.354125 404.033995 
L 329.573757 442.320267 
L 329.79339 448.687141 
L 330.013022 402.867417 
L 330.232654 312.423869 
L 330.452287 472.679124 
L 330.671919 448.722184 
L 330.891551 476.108527 
L 331.111183 328.863611 
L 331.330816 467.356532 
L 331.550448 518.574429 
L 331.989713 389.467321 
L 332.209345 513.818876 
L 332.428977 483.774676 
L 332.648609 479.068446 
L 332.868242 422.435945 
L 333.307506 523.501603 
L 333.746771 418.928842 
L 333.966403 393.898281 
L 334.6253 452.329597 
L 334.844932 401.578409 
L 335.284197 492.484049 
L 335.503829 575.896953 
L 335.723461 481.81234 
L 336.162726 496.191079 
L 336.382358 413.939976 
L 336.821623 492.364488 
L 337.041255 530.762745 
L 337.48052 374.65418 
L 337.919784 391.176833 
L 338.139416 486.825309 
L 338.359049 367.190359 
L 338.578681 331.217672 
L 338.798313 430.96056 
L 339.017946 472.767794 
L 339.237578 412.641505 
L 339.45721 436.469889 
L 339.676842 509.239942 
L 339.896475 407.110873 
L 340.116107 407.574079 
L 340.335739 334.88596 
L 340.555372 468.677652 
L 340.775004 362.226283 
L 340.994636 394.703438 
L 341.214268 445.758914 
L 341.433901 408.938949 
L 341.653533 450.468675 
L 341.873165 449.934703 
L 342.092798 354.457677 
L 342.31243 459.184509 
L 342.532062 498.173561 
L 342.751694 508.679815 
L 342.971327 455.800986 
L 343.190959 349.150809 
L 343.630224 518.558739 
L 343.849856 401.46898 
L 344.069488 421.81467 
L 344.28912 537.947123 
L 344.508753 501.165441 
L 344.728385 295.526791 
L 345.16765 473.607829 
L 345.387282 497.417143 
L 345.606914 405.557246 
L 345.826546 380.890404 
L 346.046179 478.278838 
L 346.265811 464.297669 
L 346.485443 553.575462 
L 346.705076 389.585015 
L 346.924708 452.24189 
L 347.14434 479.223551 
L 347.363972 430.265557 
L 347.583605 480.483959 
L 347.803237 282.139545 
L 348.022869 296.824561 
L 348.462134 397.649269 
L 348.681766 379.48675 
L 348.901398 485.849888 
L 349.121031 395.658947 
L 349.340663 476.568609 
L 349.560295 488.003492 
L 349.779927 486.196941 
L 349.99956 406.565343 
L 350.219192 499.768494 
L 350.658457 394.877264 
L 350.878089 404.555783 
L 351.097721 424.492318 
L 351.317353 505.378836 
L 351.536986 436.422152 
L 351.756618 324.170275 
L 351.97625 457.251697 
L 352.195883 436.043304 
L 352.415515 391.500697 
L 352.635147 469.613647 
L 352.854779 497.279906 
L 353.074412 572.246693 
L 353.294044 405.792512 
L 353.513676 384.41626 
L 353.733309 419.780723 
L 353.952941 261.802279 
L 354.172573 471.38354 
L 354.392205 326.075557 
L 354.611838 521.526794 
L 354.83147 282.102864 
L 355.051102 442.995652 
L 355.270735 417.598653 
L 355.490367 421.901887 
L 355.929631 471.939357 
L 356.149264 361.574451 
L 356.368896 433.6807 
L 356.588528 389.570444 
L 356.808161 391.749193 
L 357.027793 410.701172 
L 357.247425 487.800776 
L 357.467057 418.901291 
L 357.68669 460.568613 
L 357.906322 400.104776 
L 358.125954 506.891697 
L 358.345587 514.005611 
L 358.565219 379.387524 
L 358.784851 455.03861 
L 359.004483 375.473792 
L 359.224116 508.478353 
L 359.443748 420.099331 
L 359.66338 421.853332 
L 359.883013 489.727399 
L 360.102645 434.434256 
L 360.322277 435.601721 
L 360.541909 257.393387 
L 360.761542 440.157401 
L 360.981174 429.028828 
L 361.200806 340.899 
L 361.420439 408.583181 
L 361.859703 387.714621 
L 362.079335 451.286471 
L 362.298968 426.642946 
L 362.5186 448.952131 
L 362.738232 446.969176 
L 362.957865 384.744138 
L 363.397129 453.876228 
L 363.616761 406.9972 
L 364.056026 440.188802 
L 364.275658 307.057828 
L 364.495291 312.2302 
L 364.714923 369.763887 
L 364.934555 463.107729 
L 365.154187 436.403131 
L 365.37382 472.218106 
L 365.593452 485.979441 
L 365.813084 454.376318 
L 366.032716 373.426915 
L 366.252349 551.345086 
L 366.471981 447.10025 
L 366.691613 406.875588 
L 366.911246 342.47445 
L 367.130878 477.11311 
L 367.35051 459.981015 
L 367.570142 426.76917 
L 367.789775 413.712797 
L 368.009407 340.421547 
L 368.229039 474.176002 
L 368.448672 408.319828 
L 368.668304 481.359607 
L 368.887936 393.051147 
L 369.107568 493.070255 
L 369.327201 513.855418 
L 369.546833 358.742571 
L 369.766465 430.298509 
L 369.986098 454.089065 
L 370.425362 384.733777 
L 370.644994 333.584109 
L 370.864627 431.432757 
L 371.084259 286.729516 
L 371.303891 474.480418 
L 371.523524 400.416695 
L 371.743156 382.510426 
L 371.962788 320.108664 
L 372.18242 373.154303 
L 372.402053 331.482319 
L 372.621685 398.922978 
L 372.841317 509.613019 
L 373.06095 392.372136 
L 373.280582 472.849041 
L 373.500214 282.256948 
L 373.939479 545.726756 
L 374.598376 390.048102 
L 374.818008 419.443188 
L 375.03764 403.216174 
L 375.257272 518.537006 
L 375.696537 413.513152 
L 375.916169 350.602097 
L 376.135802 399.886613 
L 376.355434 560.896912 
L 376.794698 359.864456 
L 377.014331 434.694596 
L 377.233963 356.655112 
L 377.453595 471.737673 
L 377.673228 246.982185 
L 377.89286 495.725164 
L 378.112492 508.335282 
L 378.332124 316.41243 
L 378.551757 419.836777 
L 378.771389 267.09608 
L 378.991021 476.866534 
L 379.210654 500.681933 
L 379.430286 539.792072 
L 379.649918 446.588162 
L 379.86955 442.670651 
L 380.089183 482.160616 
L 380.528447 511.777158 
L 380.748079 504.713817 
L 380.967712 400.423337 
L 381.187344 360.137252 
L 381.406976 460.676458 
L 381.626609 403.889668 
L 381.846241 414.354777 
L 382.065873 517.567323 
L 382.285505 503.991734 
L 382.505138 449.797888 
L 382.72477 288.48149 
L 382.944402 403.03929 
L 383.164035 343.058259 
L 383.383667 511.352557 
L 383.603299 343.630501 
L 383.822931 460.685925 
L 384.042564 489.984832 
L 384.262196 425.252573 
L 384.481828 435.702454 
L 384.701461 321.067395 
L 384.921093 439.772473 
L 385.140725 267.640902 
L 385.360357 477.52036 
L 386.019254 422.407647 
L 386.238887 500.345224 
L 386.458519 282.588521 
L 386.678151 319.227121 
L 386.897783 498.447243 
L 387.337048 415.15808 
L 387.55668 332.177976 
L 387.776313 303.99204 
L 387.995945 438.940227 
L 388.215577 452.756922 
L 388.435209 493.574897 
L 388.874474 419.039763 
L 389.094106 379.315148 
L 389.313739 472.059526 
L 389.753003 430.900387 
L 389.972635 512.381895 
L 390.192268 502.324129 
L 390.4119 448.917987 
L 390.631532 484.571222 
L 390.851165 421.802913 
L 391.070797 397.86878 
L 391.290429 418.179135 
L 391.510061 405.907822 
L 391.729694 404.916081 
L 391.949326 506.299691 
L 392.608223 421.992527 
L 392.827855 491.35395 
L 393.047487 386.647075 
L 393.26712 526.790522 
L 393.486752 511.173072 
L 393.706384 427.709451 
L 393.926017 507.318398 
L 394.145649 432.425105 
L 394.365281 409.123642 
L 394.584913 414.805691 
L 394.804546 348.406144 
L 395.024178 396.465698 
L 395.24381 357.179077 
L 395.463443 428.534846 
L 395.683075 339.888237 
L 396.122339 478.293953 
L 396.561604 378.205691 
L 396.781236 497.478515 
L 397.000868 423.237853 
L 397.220501 420.291729 
L 397.440133 408.698501 
L 397.879398 538.776414 
L 398.09903 434.610511 
L 398.318662 424.801489 
L 398.538294 321.011502 
L 398.757927 457.652185 
L 398.977559 443.889077 
L 399.197191 390.333426 
L 399.416824 504.263807 
L 399.636456 433.928142 
L 399.856088 466.850971 
L 400.07572 317.920079 
L 400.295353 395.975295 
L 400.514985 329.010247 
L 400.95425 471.515409 
L 401.173882 389.604915 
L 401.393514 474.273764 
L 401.613146 486.971433 
L 402.052411 373.750066 
L 402.272043 411.528559 
L 402.491676 414.057215 
L 402.711308 522.157853 
L 402.93094 350.992091 
L 403.150572 381.816207 
L 403.370205 465.99641 
L 403.589837 431.358467 
L 403.809469 493.584764 
L 404.029102 414.662103 
L 404.248734 520.090145 
L 404.468366 343.6841 
L 404.687998 468.190218 
L 404.907631 528.792872 
L 405.127263 493.350179 
L 405.346895 374.632476 
L 405.566528 474.391156 
L 405.78616 381.371083 
L 406.005792 486.319966 
L 406.225424 420.424281 
L 406.445057 505.918961 
L 406.664689 501.821216 
L 407.103954 371.327481 
L 407.323586 530.769074 
L 407.543218 438.720123 
L 407.76285 452.258679 
L 407.982483 404.04497 
L 408.421747 441.979827 
L 408.64138 437.556216 
L 408.861012 519.204987 
L 409.080644 454.578543 
L 409.300276 437.038209 
L 409.519909 449.407731 
L 409.739541 433.070227 
L 410.178806 524.250313 
L 410.398438 460.980334 
L 410.61807 489.407799 
L 410.837702 536.723291 
L 411.057335 315.840378 
L 411.276967 455.528638 
L 411.496599 359.554533 
L 411.716231 489.568641 
L 412.155496 391.792849 
L 412.375128 452.142667 
L 412.594761 553.278561 
L 412.814393 391.990657 
L 413.034025 497.318951 
L 413.47329 451.794593 
L 413.692922 378.775223 
L 413.912554 426.023689 
L 414.132187 295.06206 
L 414.351819 424.934771 
L 414.571451 429.599876 
L 414.791083 469.529332 
L 415.010716 376.07954 
L 415.230348 428.801211 
L 415.44998 517.855444 
L 415.889245 456.069026 
L 416.108877 446.536705 
L 416.328509 412.47284 
L 416.548142 433.957055 
L 416.767774 401.96363 
L 416.987406 444.233469 
L 417.207039 409.086515 
L 417.426671 404.476346 
L 417.646303 492.764798 
L 417.865935 490.190861 
L 418.085568 580.503039 
L 418.524832 324.148517 
L 418.744465 436.44252 
L 418.964097 483.194772 
L 419.403361 356.90827 
L 419.622994 396.838369 
L 419.842626 491.504396 
L 420.062258 513.064825 
L 420.281891 479.701091 
L 420.501523 400.668855 
L 420.721155 383.162467 
L 420.940787 444.633382 
L 421.16042 395.853396 
L 421.380052 440.511732 
L 421.599684 200.185487 
L 421.819317 421.027818 
L 422.038949 486.197053 
L 422.258581 478.18324 
L 422.478213 442.698212 
L 422.697846 491.128875 
L 422.917478 450.028023 
L 423.13711 433.436872 
L 423.356743 483.371946 
L 423.576375 347.900279 
L 424.235272 475.940028 
L 424.454904 329.270465 
L 424.674536 424.094766 
L 425.113801 353.732419 
L 425.333433 514.343623 
L 425.553065 299.410429 
L 425.772698 304.657994 
L 426.211962 437.05549 
L 426.651227 442.001135 
L 426.870859 415.573256 
L 427.090491 452.257877 
L 427.310124 435.250402 
L 427.529756 539.214805 
L 427.96902 355.387013 
L 428.188653 486.556305 
L 428.408285 270.705104 
L 428.627917 458.262566 
L 428.84755 436.544 
L 429.067182 259.669037 
L 429.286814 317.531318 
L 429.506446 505.530121 
L 429.726079 359.558528 
L 429.945711 523.382374 
L 430.165343 345.596577 
L 430.82424 458.168259 
L 431.043872 353.345399 
L 431.263505 494.33311 
L 431.483137 469.35435 
L 431.702769 405.585929 
L 431.922402 427.834065 
L 432.142034 479.987522 
L 432.361666 490.325908 
L 432.581298 435.042483 
L 432.800931 449.970563 
L 433.020563 411.245862 
L 433.240195 409.149376 
L 433.459828 445.093001 
L 433.67946 440.497466 
L 433.899092 294.688656 
L 434.118724 432.596014 
L 434.338357 437.229867 
L 434.557989 557.677614 
L 434.777621 435.931713 
L 435.216886 368.301253 
L 435.436518 410.273135 
L 435.65615 419.761865 
L 436.095415 465.106485 
L 436.315047 492.95961 
L 436.53468 421.921752 
L 436.754312 406.39979 
L 436.973944 398.830009 
L 437.193576 448.623086 
L 437.413209 451.874866 
L 437.632841 475.145997 
L 437.852473 549.172939 
L 438.072106 414.425422 
L 438.291738 410.702321 
L 438.51137 311.591577 
L 438.731002 414.554392 
L 438.950635 443.043357 
L 439.170267 533.472581 
L 439.389899 512.69468 
L 439.609532 402.174811 
L 439.829164 359.267815 
L 440.048796 498.298501 
L 440.268428 448.063199 
L 440.488061 462.946623 
L 440.707693 324.969632 
L 440.927325 499.949271 
L 441.146958 452.953116 
L 441.36659 472.540462 
L 441.586222 479.153145 
L 441.805854 303.886736 
L 442.025487 355.683593 
L 442.245119 477.95111 
L 442.464751 482.064337 
L 442.684383 514.695761 
L 442.904016 512.187848 
L 443.123648 442.017691 
L 443.782545 513.587317 
L 444.002177 448.828099 
L 444.221809 503.309134 
L 444.441442 506.052253 
L 444.661074 535.709192 
L 444.880706 415.310105 
L 445.100339 481.971691 
L 445.319971 316.070135 
L 445.539603 338.65179 
L 445.759235 438.342414 
L 445.978868 384.334598 
L 446.1985 441.990933 
L 446.418132 325.379552 
L 446.637765 470.796964 
L 446.857397 339.091865 
L 447.077029 398.868472 
L 447.296661 381.025286 
L 447.516294 442.167381 
L 447.735926 435.108563 
L 447.955558 449.685043 
L 448.175191 478.779964 
L 448.394823 395.969247 
L 448.614455 458.384843 
L 448.834087 455.707191 
L 449.05372 406.174507 
L 449.273352 458.155976 
L 449.492984 453.891332 
L 449.932249 345.586038 
L 450.151881 506.033658 
L 450.591146 419.338432 
L 450.810778 447.764463 
L 451.03041 429.924402 
L 451.250043 455.667695 
L 451.469675 422.584312 
L 451.689307 477.290946 
L 452.128572 403.426901 
L 452.567836 435.957312 
L 452.787469 438.076073 
L 453.007101 475.520328 
L 453.226733 539.281444 
L 453.446365 395.142393 
L 453.665998 485.983852 
L 454.105262 378.015433 
L 454.324895 457.069244 
L 454.544527 461.29141 
L 454.983791 298.702203 
L 455.203424 467.444167 
L 455.423056 280.238065 
L 455.642688 287.559074 
L 455.862321 390.567171 
L 456.301585 455.508491 
L 456.521217 417.463469 
L 456.74085 347.838855 
L 456.960482 488.215389 
L 457.180114 386.045525 
L 457.399746 353.421207 
L 457.619379 499.676544 
L 457.839011 480.503561 
L 458.058643 483.234844 
L 458.278276 446.165634 
L 458.497908 431.482318 
L 458.71754 390.272975 
L 458.937172 463.735817 
L 459.156805 456.395983 
L 459.376437 415.736103 
L 459.596069 456.868899 
L 459.815702 421.975774 
L 460.035334 472.964604 
L 460.254966 442.073075 
L 460.474598 501.108771 
L 460.694231 373.827312 
L 460.913863 432.241735 
L 461.133495 453.27458 
L 461.353128 313.325853 
L 461.792392 436.648382 
L 462.231657 521.023071 
L 462.451289 365.590951 
L 462.670921 463.935778 
L 462.890554 392.221118 
L 463.110186 516.539548 
L 463.54945 441.753581 
L 463.769083 442.737195 
L 463.988715 486.454013 
L 464.208347 461.940729 
L 464.42798 487.143877 
L 464.647612 406.808141 
L 464.867244 451.447141 
L 465.086876 559.394424 
L 465.745773 379.947528 
L 465.965406 378.665529 
L 466.185038 475.712528 
L 466.624302 407.034802 
L 466.843935 350.282335 
L 467.063567 470.233577 
L 467.283199 369.749299 
L 467.502832 331.46234 
L 467.722464 536.868546 
L 468.161728 311.49682 
L 468.381361 402.292762 
L 468.600993 418.839899 
L 468.820625 409.955229 
L 469.040258 503.881354 
L 469.479522 289.182938 
L 469.699154 479.75277 
L 469.918787 447.909464 
L 470.138419 470.351429 
L 470.358051 318.260454 
L 470.577684 483.282899 
L 470.797316 494.817967 
L 471.016948 529.667894 
L 471.23658 498.495851 
L 471.456213 341.00659 
L 471.675845 384.779347 
L 471.895477 390.444041 
L 472.11511 458.801861 
L 472.334742 476.695824 
L 472.554374 407.968878 
L 472.774006 484.505968 
L 472.993639 447.24079 
L 473.213271 430.28101 
L 473.432903 430.093796 
L 473.872168 340.156799 
L 474.0918 397.793858 
L 474.311432 356.208822 
L 474.531065 421.667439 
L 474.750697 376.353489 
L 474.970329 490.139432 
L 475.189961 504.568806 
L 475.409594 428.756669 
L 475.629226 416.475478 
L 475.848858 327.077239 
L 476.288123 477.989712 
L 476.507755 450.008988 
L 476.727387 351.293787 
L 476.94702 503.599726 
L 477.166652 435.077767 
L 477.386284 480.430358 
L 477.605917 349.54252 
L 477.825549 499.092951 
L 478.045181 294.15237 
L 478.264813 518.639068 
L 478.484446 488.368954 
L 478.704078 370.57488 
L 478.92371 411.412771 
L 479.143343 343.745723 
L 479.362975 502.502961 
L 479.582607 394.277028 
L 479.802239 417.049385 
L 480.021872 413.900987 
L 480.241504 552.405602 
L 480.680769 386.51546 
L 480.900401 371.806444 
L 481.120033 477.957154 
L 481.339665 411.523503 
L 481.559298 520.499165 
L 481.77893 396.36435 
L 481.998562 376.536102 
L 482.218195 315.01746 
L 482.437827 346.430261 
L 482.877091 464.406719 
L 483.096724 439.69281 
L 483.316356 438.368705 
L 483.535988 351.865835 
L 483.975253 493.142449 
L 484.194885 449.44225 
L 484.414517 436.547956 
L 484.63415 502.898626 
L 484.853782 489.290456 
L 485.073414 419.613519 
L 485.293047 410.870115 
L 485.732311 495.975776 
L 485.951943 524.288745 
L 486.391208 373.997133 
L 486.61084 536.32327 
L 486.830473 434.464505 
L 487.050105 463.118341 
L 487.269737 509.739988 
L 487.489369 470.769157 
L 487.709002 501.69433 
L 487.928634 437.921745 
L 488.148266 441.338423 
L 488.367898 442.85974 
L 488.587531 435.908819 
L 488.807163 402.777869 
L 489.026795 335.897717 
L 489.246428 428.854963 
L 489.46606 409.430139 
L 489.685692 412.847975 
L 490.124957 337.692754 
L 490.344589 420.824671 
L 490.564221 443.25292 
L 490.783854 494.198796 
L 491.003486 460.534837 
L 491.223118 287.162752 
L 491.44275 461.428165 
L 491.662383 452.914369 
L 491.882015 480.931006 
L 492.101647 488.122603 
L 492.32128 479.218341 
L 492.540912 433.475206 
L 492.760544 479.049039 
L 493.199809 462.936385 
L 493.419441 365.608277 
L 493.639073 539.422741 
L 493.858706 421.063818 
L 494.078338 411.036549 
L 494.29797 552.15998 
L 494.517602 428.599529 
L 494.737235 461.882682 
L 494.956867 402.202553 
L 495.176499 453.695026 
L 495.396132 349.539551 
L 495.615764 375.858615 
L 495.835396 541.080598 
L 496.055028 410.010206 
L 496.274661 375.175025 
L 496.494293 442.969225 
L 496.713925 418.936575 
L 497.15319 222.416466 
L 497.372822 493.061132 
L 497.592454 474.12302 
L 497.812087 536.34227 
L 498.031719 436.617217 
L 498.251351 522.086834 
L 498.470984 357.335745 
L 498.910248 491.790454 
L 499.12988 354.914618 
L 499.349513 446.722752 
L 499.569145 458.006912 
L 499.788777 343.418261 
L 500.00841 411.970044 
L 500.228042 334.562198 
L 500.447674 310.800864 
L 500.667306 452.037219 
L 500.886939 425.188168 
L 501.106571 446.96145 
L 501.326203 510.427319 
L 501.545836 317.181877 
L 501.9851 482.310587 
L 502.204732 411.696061 
L 502.424365 404.198995 
L 502.643997 419.729561 
L 502.863629 510.462867 
L 503.083262 323.84081 
L 503.522526 419.018651 
L 503.742158 362.198893 
L 503.961791 411.122383 
L 504.181423 275.129232 
L 504.401055 524.932321 
L 504.620687 465.126016 
L 504.84032 500.179353 
L 505.059952 312.887839 
L 505.279584 322.076712 
L 505.499217 389.007063 
L 505.718849 513.290282 
L 505.938481 474.195699 
L 506.158113 365.36686 
L 506.377746 489.529272 
L 506.81701 363.077504 
L 507.036643 406.823623 
L 507.256275 331.624526 
L 507.475907 414.0817 
L 507.695539 301.363449 
L 507.915172 474.733574 
L 508.354436 438.632214 
L 508.574069 500.624552 
L 508.793701 372.393967 
L 509.232965 418.980922 
L 509.452598 348.972849 
L 509.67223 537.77965 
L 509.891862 411.134456 
L 510.111495 496.590028 
L 510.331127 354.158814 
L 510.550759 381.137922 
L 510.990024 471.738906 
L 511.209656 418.149886 
L 511.429288 529.497537 
L 511.648921 441.868347 
L 511.868553 272.82206 
L 512.088185 455.350708 
L 512.307817 493.514033 
L 512.52745 442.494385 
L 512.747082 295.694341 
L 512.966714 428.308221 
L 513.186347 368.718088 
L 513.405979 415.18807 
L 513.625611 493.131666 
L 513.845243 405.436759 
L 514.064876 388.674628 
L 514.284508 397.521197 
L 514.50414 445.676791 
L 514.723773 436.764171 
L 514.943405 367.507987 
L 515.163037 423.731843 
L 515.382669 360.353763 
L 515.602302 337.866781 
L 515.821934 484.189764 
L 516.041566 375.9531 
L 516.261199 412.884327 
L 516.480831 354.827818 
L 516.700463 439.258972 
L 516.920095 465.119367 
L 517.139728 521.873253 
L 517.35936 507.422276 
L 517.578992 424.321016 
L 517.798625 479.72401 
L 518.018257 322.249653 
L 518.237889 468.039164 
L 518.457521 363.381399 
L 518.677154 463.614847 
L 518.896786 413.59096 
L 519.116418 476.39906 
L 519.33605 399.982291 
L 519.555683 373.849615 
L 519.775315 524.411699 
L 519.994947 398.622821 
L 520.21458 533.045879 
L 520.434212 490.365356 
L 520.653844 416.567413 
L 520.873476 441.527668 
L 521.093109 322.24076 
L 521.312741 471.43743 
L 521.752006 349.69302 
L 521.971638 425.036923 
L 522.19127 461.859454 
L 522.410902 457.214639 
L 522.630535 368.944423 
L 522.850167 411.394981 
L 523.069799 505.469541 
L 523.289432 420.694268 
L 523.509064 453.925654 
L 523.728696 468.404285 
L 523.948328 452.45679 
L 524.167961 449.841219 
L 524.387593 503.637285 
L 524.607225 394.554004 
L 524.826858 510.187346 
L 525.266122 380.099308 
L 525.485754 495.133186 
L 525.705387 494.90393 
L 525.925019 400.53965 
L 526.144651 424.763873 
L 526.364284 464.118367 
L 526.583916 537.277648 
L 526.803548 388.459263 
L 527.242813 480.792912 
L 527.462445 431.674739 
L 527.682077 502.144915 
L 527.90171 476.949738 
L 528.121342 484.261222 
L 528.340974 477.772006 
L 528.780239 352.096603 
L 528.999871 446.467198 
L 529.219503 365.754929 
L 529.439136 482.318017 
L 529.658768 415.866149 
L 529.8784 431.795219 
L 530.098032 490.234366 
L 530.317665 439.562062 
L 530.537297 334.287453 
L 530.756929 445.300548 
L 530.976562 437.278575 
L 531.196194 353.374187 
L 531.415826 347.844378 
L 531.635458 306.556302 
L 532.074723 489.57223 
L 532.294355 431.927649 
L 532.513988 467.736989 
L 532.73362 525.279598 
L 532.953252 451.192771 
L 533.172884 500.023767 
L 533.612149 340.128303 
L 533.831781 470.440288 
L 534.051413 410.783168 
L 534.271046 308.666543 
L 534.71031 409.5007 
L 534.929943 325.663531 
L 535.149575 513.51212 
L 535.369207 436.897813 
L 535.588839 248.205159 
L 536.028104 519.108283 
L 536.247736 484.422738 
L 536.467369 505.368137 
L 536.687001 418.431964 
L 536.906633 458.161816 
L 537.126265 347.35996 
L 537.345898 520.190653 
L 537.785162 361.79326 
L 538.004795 385.319587 
L 538.444059 445.124856 
L 538.663691 344.722597 
L 538.883324 424.607533 
L 539.102956 379.300993 
L 539.322588 431.008171 
L 539.542221 281.834661 
L 539.761853 506.078736 
L 539.981485 386.451213 
L 540.201117 378.445724 
L 540.42075 487.41023 
L 540.640382 231.229345 
L 540.860014 438.976859 
L 541.079647 436.144864 
L 541.299279 417.665948 
L 541.518911 414.204791 
L 541.958176 437.576724 
L 542.177808 507.047815 
L 542.39744 423.65157 
L 542.617073 435.533458 
L 542.836705 410.300164 
L 543.056337 353.921117 
L 543.275969 448.978053 
L 543.495602 458.335367 
L 543.715234 384.786057 
L 544.154499 525.79356 
L 544.374131 354.992408 
L 544.593763 377.550146 
L 545.033028 479.825852 
L 545.25266 455.438189 
L 545.472292 479.68282 
L 545.691925 432.925987 
L 545.911557 321.656816 
L 545.911557 321.656816 
" style="fill:none;stroke:#96c69a;stroke-linecap:round;stroke-width:3;"/>
   </g>
   <g id="line2d_2"/>
   <g id="patch_3">
    <path d="M 84.914375 602.94 
L 84.914375 109.326857 
" style="fill:none;stroke:#262626;stroke-linecap:square;stroke-linejoin:miter;stroke-width:2.5;"/>
   </g>
   <g id="patch_4">
    <path d="M 84.914375 602.94 
L 567.863804 602.94 
" style="fill:none;stroke:#262626;stroke-linecap:square;stroke-linejoin:miter;stroke-width:2.5;"/>
   </g>
   <g id="legend_1">
    <g id="patch_5">
     <path d="M 514.948179 597.94 
L 560.863804 597.94 
Q 562.863804 597.94 562.863804 595.94 
L 562.863804 554.034375 
Q 562.863804 552.034375 560.863804 552.034375 
L 514.948179 552.034375 
Q 512.948179 552.034375 512.948179 554.034375 
L 512.948179 595.94 
Q 512.948179 597.94 514.948179 597.94 
z
" style="fill:#ffffff;opacity:0.8;stroke:#cccccc;stroke-linejoin:miter;stroke-width:2;"/>
    </g>
    <g id="text_16">
     <!-- $n_\tau$ -->
     <g style="fill:#262626;" transform="translate(524.825991 574.270625)scale(0.24 -0.24)">
      <defs>
       <path d="M 3566 2113 
L 3156 0 
L 2578 0 
L 2988 2091 
Q 3016 2238 3031 2350 
Q 3047 2463 3047 2528 
Q 3047 2791 2881 2937 
Q 2716 3084 2419 3084 
Q 1956 3084 1622 2776 
Q 1288 2469 1184 1941 
L 800 0 
L 225 0 
L 903 3500 
L 1478 3500 
L 1363 2950 
Q 1603 3253 1940 3418 
Q 2278 3584 2650 3584 
Q 3113 3584 3367 3334 
Q 3622 3084 3622 2631 
Q 3622 2519 3608 2391 
Q 3594 2263 3566 2113 
z
" id="DejaVuSans-Oblique-6e" transform="scale(0.015625)"/>
       <path d="M 2103 638 
Q 2188 488 2525 488 
L 2800 488 
L 2706 0 
L 2363 0 
Q 1800 0 1600 300 
Q 1403 606 1534 1269 
L 1856 2925 
L 541 2925 
L 653 3500 
L 3881 3500 
L 3769 2925 
L 2444 2925 
L 2113 1234 
Q 2025 781 2103 638 
z
" id="DejaVuSans-Oblique-3c4" transform="scale(0.015625)"/>
      </defs>
      <use xlink:href="#DejaVuSans-Oblique-6e"/>
      <use transform="translate(63.378906 -16.40625)scale(0.7)" xlink:href="#DejaVuSans-Oblique-3c4"/>
     </g>
    </g>
    <g id="line2d_3">
     <path d="M 516.948179 588.360312 
L 536.948179 588.360312 
" style="fill:none;stroke:#96c69a;stroke-linecap:round;stroke-width:3;"/>
    </g>
    <g id="line2d_4"/>
    <g id="text_17">
     <!-- 80 -->
     <g style="fill:#262626;" transform="translate(544.948179 591.860312)scale(0.1 -0.1)">
      <defs>
       <path d="M 2228 2088 
Q 1891 2088 1709 1903 
Q 1528 1719 1528 1375 
Q 1528 1031 1709 848 
Q 1891 666 2228 666 
Q 2563 666 2741 848 
Q 2919 1031 2919 1375 
Q 2919 1722 2741 1905 
Q 2563 2088 2228 2088 
z
M 1350 2484 
Q 925 2613 709 2878 
Q 494 3144 494 3541 
Q 494 4131 934 4440 
Q 1375 4750 2228 4750 
Q 3075 4750 3515 4442 
Q 3956 4134 3956 3541 
Q 3956 3144 3739 2878 
Q 3522 2613 3097 2484 
Q 3572 2353 3814 2058 
Q 4056 1763 4056 1313 
Q 4056 619 3595 264 
Q 3134 -91 2228 -91 
Q 1319 -91 855 264 
Q 391 619 391 1313 
Q 391 1763 633 2058 
Q 875 2353 1350 2484 
z
M 1631 3419 
Q 1631 3141 1786 2991 
Q 1941 2841 2228 2841 
Q 2509 2841 2662 2991 
Q 2816 3141 2816 3419 
Q 2816 3697 2662 3845 
Q 2509 3994 2228 3994 
Q 1941 3994 1786 3844 
Q 1631 3694 1631 3419 
z
" id="DejaVuSans-Bold-38" transform="scale(0.015625)"/>
       <path d="M 2944 2338 
Q 2944 3213 2780 3570 
Q 2616 3928 2228 3928 
Q 1841 3928 1675 3570 
Q 1509 3213 1509 2338 
Q 1509 1453 1675 1090 
Q 1841 728 2228 728 
Q 2613 728 2778 1090 
Q 2944 1453 2944 2338 
z
M 4147 2328 
Q 4147 1169 3647 539 
Q 3147 -91 2228 -91 
Q 1306 -91 806 539 
Q 306 1169 306 2328 
Q 306 3491 806 4120 
Q 1306 4750 2228 4750 
Q 3147 4750 3647 4120 
Q 4147 3491 4147 2328 
z
" id="DejaVuSans-Bold-30" transform="scale(0.015625)"/>
      </defs>
      <use xlink:href="#DejaVuSans-Bold-38"/>
      <use x="69.580078" xlink:href="#DejaVuSans-Bold-30"/>
     </g>
    </g>
   </g>
  </g>
  <g id="axes_2">
   <g id="patch_6">
    <path d="M 84.914375 92.305714 
L 567.863804 92.305714 
L 567.863804 7.2 
L 84.914375 7.2 
z
" style="fill:none;"/>
   </g>
   <g id="matplotlib.axis_3">
    <g id="xtick_7"/>
    <g id="xtick_8"/>
    <g id="xtick_9"/>
    <g id="xtick_10"/>
    <g id="xtick_11"/>
    <g id="xtick_12"/>
   </g>
   <g id="matplotlib.axis_4">
    <g id="ytick_8">
     <g id="text_18">
      <!-- 0 -->
      <g style="fill:#262626;" transform="translate(55.416875 100.663996)scale(0.22 -0.22)">
       <use xlink:href="#DejaVuSans-30"/>
      </g>
     </g>
    </g>
    <g id="ytick_9">
     <g id="text_19">
      <!-- 100 -->
      <g style="fill:#262626;" transform="translate(27.421875 48.032138)scale(0.22 -0.22)">
       <use xlink:href="#DejaVuSans-31"/>
       <use x="63.623047" xlink:href="#DejaVuSans-30"/>
       <use x="127.246094" xlink:href="#DejaVuSans-30"/>
      </g>
     </g>
    </g>
   </g>
   <g id="patch_7">
    <path clip-path="url(#p3894c7c293)" d="M 106.866622 92.305714 
L 140.639309 92.305714 
L 140.639309 11.252653 
L 106.866622 11.252653 
z
" style="fill:#96c69a;fill-opacity:0.5;stroke:#ffffff;stroke-linejoin:miter;stroke-width:2;"/>
   </g>
   <g id="patch_8">
    <path clip-path="url(#p3894c7c293)" d="M 140.639309 92.305714 
L 174.411996 92.305714 
L 174.411996 11.252653 
L 140.639309 11.252653 
z
" style="fill:#96c69a;fill-opacity:0.5;stroke:#ffffff;stroke-linejoin:miter;stroke-width:2;"/>
   </g>
   <g id="patch_9">
    <path clip-path="url(#p3894c7c293)" d="M 174.411996 92.305714 
L 208.184684 92.305714 
L 208.184684 11.252653 
L 174.411996 11.252653 
z
" style="fill:#96c69a;fill-opacity:0.5;stroke:#ffffff;stroke-linejoin:miter;stroke-width:2;"/>
   </g>
   <g id="patch_10">
    <path clip-path="url(#p3894c7c293)" d="M 208.184684 92.305714 
L 241.957371 92.305714 
L 241.957371 11.252653 
L 208.184684 11.252653 
z
" style="fill:#96c69a;fill-opacity:0.5;stroke:#ffffff;stroke-linejoin:miter;stroke-width:2;"/>
   </g>
   <g id="patch_11">
    <path clip-path="url(#p3894c7c293)" d="M 241.957371 92.305714 
L 275.730058 92.305714 
L 275.730058 11.778972 
L 241.957371 11.778972 
z
" style="fill:#96c69a;fill-opacity:0.5;stroke:#ffffff;stroke-linejoin:miter;stroke-width:2;"/>
   </g>
   <g id="patch_12">
    <path clip-path="url(#p3894c7c293)" d="M 275.730058 92.305714 
L 309.502746 92.305714 
L 309.502746 11.252653 
L 275.730058 11.252653 
z
" style="fill:#96c69a;fill-opacity:0.5;stroke:#ffffff;stroke-linejoin:miter;stroke-width:2;"/>
   </g>
   <g id="patch_13">
    <path clip-path="url(#p3894c7c293)" d="M 309.502746 92.305714 
L 343.275433 92.305714 
L 343.275433 11.252653 
L 309.502746 11.252653 
z
" style="fill:#96c69a;fill-opacity:0.5;stroke:#ffffff;stroke-linejoin:miter;stroke-width:2;"/>
   </g>
   <g id="patch_14">
    <path clip-path="url(#p3894c7c293)" d="M 343.275433 92.305714 
L 377.04812 92.305714 
L 377.04812 11.252653 
L 343.275433 11.252653 
z
" style="fill:#96c69a;fill-opacity:0.5;stroke:#ffffff;stroke-linejoin:miter;stroke-width:2;"/>
   </g>
   <g id="patch_15">
    <path clip-path="url(#p3894c7c293)" d="M 377.04812 92.305714 
L 410.820808 92.305714 
L 410.820808 11.778972 
L 377.04812 11.778972 
z
" style="fill:#96c69a;fill-opacity:0.5;stroke:#ffffff;stroke-linejoin:miter;stroke-width:2;"/>
   </g>
   <g id="patch_16">
    <path clip-path="url(#p3894c7c293)" d="M 410.820808 92.305714 
L 444.593495 92.305714 
L 444.593495 11.252653 
L 410.820808 11.252653 
z
" style="fill:#96c69a;fill-opacity:0.5;stroke:#ffffff;stroke-linejoin:miter;stroke-width:2;"/>
   </g>
   <g id="patch_17">
    <path clip-path="url(#p3894c7c293)" d="M 444.593495 92.305714 
L 478.366182 92.305714 
L 478.366182 11.252653 
L 444.593495 11.252653 
z
" style="fill:#96c69a;fill-opacity:0.5;stroke:#ffffff;stroke-linejoin:miter;stroke-width:2;"/>
   </g>
   <g id="patch_18">
    <path clip-path="url(#p3894c7c293)" d="M 478.366182 92.305714 
L 512.13887 92.305714 
L 512.13887 11.252653 
L 478.366182 11.252653 
z
" style="fill:#96c69a;fill-opacity:0.5;stroke:#ffffff;stroke-linejoin:miter;stroke-width:2;"/>
   </g>
   <g id="patch_19">
    <path clip-path="url(#p3894c7c293)" d="M 512.13887 92.305714 
L 545.911557 92.305714 
L 545.911557 11.252653 
L 512.13887 11.252653 
z
" style="fill:#96c69a;fill-opacity:0.5;stroke:#ffffff;stroke-linejoin:miter;stroke-width:2;"/>
   </g>
   <g id="patch_20">
    <path d="M 84.914375 92.305714 
L 84.914375 7.2 
" style="fill:none;stroke:#262626;stroke-linecap:square;stroke-linejoin:miter;stroke-width:2.5;"/>
   </g>
   <g id="patch_21">
    <path d="M 84.914375 92.305714 
L 567.863804 92.305714 
" style="fill:none;stroke:#262626;stroke-linecap:square;stroke-linejoin:miter;stroke-width:2.5;"/>
   </g>
  </g>
  <g id="axes_3">
   <g id="patch_22">
    <path d="M 584.517232 602.94 
L 667.784375 602.94 
L 667.784375 109.326857 
L 584.517232 109.326857 
z
" style="fill:none;"/>
   </g>
   <g id="matplotlib.axis_5">
    <g id="xtick_13">
     <g id="text_20">
      <!-- 0 -->
      <g style="fill:#262626;" transform="translate(577.518482 635.156562)scale(0.22 -0.22)">
       <use xlink:href="#DejaVuSans-30"/>
      </g>
     </g>
    </g>
    <g id="xtick_14">
     <g id="text_21">
      <!-- 100 -->
      <g style="fill:#262626;" transform="translate(605.928491 635.156562)scale(0.22 -0.22)">
       <use xlink:href="#DejaVuSans-31"/>
       <use x="63.623047" xlink:href="#DejaVuSans-30"/>
       <use x="127.246094" xlink:href="#DejaVuSans-30"/>
      </g>
     </g>
    </g>
   </g>
   <g id="matplotlib.axis_6">
    <g id="ytick_10"/>
    <g id="ytick_11"/>
    <g id="ytick_12"/>
    <g id="ytick_13"/>
    <g id="ytick_14"/>
    <g id="ytick_15"/>
    <g id="ytick_16"/>
   </g>
   <g id="patch_23">
    <path clip-path="url(#p1db594d53e)" d="M 584.517232 580.503039 
L 587.485758 580.503039 
L 587.485758 567.681918 
L 584.517232 567.681918 
z
" style="fill:#96c69a;fill-opacity:0.5;stroke:#ffffff;stroke-linejoin:miter;stroke-width:1.282112;"/>
   </g>
   <g id="patch_24">
    <path clip-path="url(#p1db594d53e)" d="M 584.517232 567.681918 
L 587.485758 567.681918 
L 587.485758 554.860798 
L 584.517232 554.860798 
z
" style="fill:#96c69a;fill-opacity:0.5;stroke:#ffffff;stroke-linejoin:miter;stroke-width:1.282112;"/>
   </g>
   <g id="patch_25">
    <path clip-path="url(#p1db594d53e)" d="M 584.517232 554.860798 
L 590.878358 554.860798 
L 590.878358 542.039677 
L 584.517232 542.039677 
z
" style="fill:#96c69a;fill-opacity:0.5;stroke:#ffffff;stroke-linejoin:miter;stroke-width:1.282112;"/>
   </g>
   <g id="patch_26">
    <path clip-path="url(#p1db594d53e)" d="M 584.517232 542.039677 
L 600.20801 542.039677 
L 600.20801 529.218557 
L 584.517232 529.218557 
z
" style="fill:#96c69a;fill-opacity:0.5;stroke:#ffffff;stroke-linejoin:miter;stroke-width:1.282112;"/>
   </g>
   <g id="patch_27">
    <path clip-path="url(#p1db594d53e)" d="M 584.517232 529.218557 
L 610.809887 529.218557 
L 610.809887 516.397436 
L 584.517232 516.397436 
z
" style="fill:#96c69a;fill-opacity:0.5;stroke:#ffffff;stroke-linejoin:miter;stroke-width:1.282112;"/>
   </g>
   <g id="patch_28">
    <path clip-path="url(#p1db594d53e)" d="M 584.517232 516.397436 
L 621.83584 516.397436 
L 621.83584 503.576315 
L 584.517232 503.576315 
z
" style="fill:#96c69a;fill-opacity:0.5;stroke:#ffffff;stroke-linejoin:miter;stroke-width:1.282112;"/>
   </g>
   <g id="patch_29">
    <path clip-path="url(#p1db594d53e)" d="M 584.517232 503.576315 
L 625.652515 503.576315 
L 625.652515 490.755195 
L 584.517232 490.755195 
z
" style="fill:#96c69a;fill-opacity:0.5;stroke:#ffffff;stroke-linejoin:miter;stroke-width:1.282112;"/>
   </g>
   <g id="patch_30">
    <path clip-path="url(#p1db594d53e)" d="M 584.517232 490.755195 
L 646.85627 490.755195 
L 646.85627 477.934074 
L 584.517232 477.934074 
z
" style="fill:#96c69a;fill-opacity:0.5;stroke:#ffffff;stroke-linejoin:miter;stroke-width:1.282112;"/>
   </g>
   <g id="patch_31">
    <path clip-path="url(#p1db594d53e)" d="M 584.517232 477.934074 
L 640.495143 477.934074 
L 640.495143 465.112954 
L 584.517232 465.112954 
z
" style="fill:#96c69a;fill-opacity:0.5;stroke:#ffffff;stroke-linejoin:miter;stroke-width:1.282112;"/>
   </g>
   <g id="patch_32">
    <path clip-path="url(#p1db594d53e)" d="M 584.517232 465.112954 
L 654.065546 465.112954 
L 654.065546 452.291833 
L 584.517232 452.291833 
z
" style="fill:#96c69a;fill-opacity:0.5;stroke:#ffffff;stroke-linejoin:miter;stroke-width:1.282112;"/>
   </g>
   <g id="patch_33">
    <path clip-path="url(#p1db594d53e)" d="M 584.517232 452.291833 
L 652.369246 452.291833 
L 652.369246 439.470712 
L 584.517232 439.470712 
z
" style="fill:#96c69a;fill-opacity:0.5;stroke:#ffffff;stroke-linejoin:miter;stroke-width:1.282112;"/>
   </g>
   <g id="patch_34">
    <path clip-path="url(#p1db594d53e)" d="M 584.517232 439.470712 
L 663.819273 439.470712 
L 663.819273 426.649592 
L 584.517232 426.649592 
z
" style="fill:#96c69a;fill-opacity:0.5;stroke:#ffffff;stroke-linejoin:miter;stroke-width:1.282112;"/>
   </g>
   <g id="patch_35">
    <path clip-path="url(#p1db594d53e)" d="M 584.517232 426.649592 
L 656.609997 426.649592 
L 656.609997 413.828471 
L 584.517232 413.828471 
z
" style="fill:#96c69a;fill-opacity:0.5;stroke:#ffffff;stroke-linejoin:miter;stroke-width:1.282112;"/>
   </g>
   <g id="patch_36">
    <path clip-path="url(#p1db594d53e)" d="M 584.517232 413.828471 
L 648.976645 413.828471 
L 648.976645 401.007351 
L 584.517232 401.007351 
z
" style="fill:#96c69a;fill-opacity:0.5;stroke:#ffffff;stroke-linejoin:miter;stroke-width:1.282112;"/>
   </g>
   <g id="patch_37">
    <path clip-path="url(#p1db594d53e)" d="M 584.517232 401.007351 
L 630.317341 401.007351 
L 630.317341 388.18623 
L 584.517232 388.18623 
z
" style="fill:#96c69a;fill-opacity:0.5;stroke:#ffffff;stroke-linejoin:miter;stroke-width:1.282112;"/>
   </g>
   <g id="patch_38">
    <path clip-path="url(#p1db594d53e)" d="M 584.517232 388.18623 
L 627.772891 388.18623 
L 627.772891 375.365109 
L 584.517232 375.365109 
z
" style="fill:#96c69a;fill-opacity:0.5;stroke:#ffffff;stroke-linejoin:miter;stroke-width:1.282112;"/>
   </g>
   <g id="patch_39">
    <path clip-path="url(#p1db594d53e)" d="M 584.517232 375.365109 
L 613.354338 375.365109 
L 613.354338 362.543989 
L 584.517232 362.543989 
z
" style="fill:#96c69a;fill-opacity:0.5;stroke:#ffffff;stroke-linejoin:miter;stroke-width:1.282112;"/>
   </g>
   <g id="patch_40">
    <path clip-path="url(#p1db594d53e)" d="M 584.517232 362.543989 
L 616.746939 362.543989 
L 616.746939 349.722868 
L 584.517232 349.722868 
z
" style="fill:#96c69a;fill-opacity:0.5;stroke:#ffffff;stroke-linejoin:miter;stroke-width:1.282112;"/>
   </g>
   <g id="patch_41">
    <path clip-path="url(#p1db594d53e)" d="M 584.517232 349.722868 
L 610.385812 349.722868 
L 610.385812 336.901748 
L 584.517232 336.901748 
z
" style="fill:#96c69a;fill-opacity:0.5;stroke:#ffffff;stroke-linejoin:miter;stroke-width:1.282112;"/>
   </g>
   <g id="patch_42">
    <path clip-path="url(#p1db594d53e)" d="M 584.517232 336.901748 
L 603.600611 336.901748 
L 603.600611 324.080627 
L 584.517232 324.080627 
z
" style="fill:#96c69a;fill-opacity:0.5;stroke:#ffffff;stroke-linejoin:miter;stroke-width:1.282112;"/>
   </g>
   <g id="patch_43">
    <path clip-path="url(#p1db594d53e)" d="M 584.517232 324.080627 
L 600.632085 324.080627 
L 600.632085 311.259506 
L 584.517232 311.259506 
z
" style="fill:#96c69a;fill-opacity:0.5;stroke:#ffffff;stroke-linejoin:miter;stroke-width:1.282112;"/>
   </g>
   <g id="patch_44">
    <path clip-path="url(#p1db594d53e)" d="M 584.517232 311.259506 
L 594.270959 311.259506 
L 594.270959 298.438386 
L 584.517232 298.438386 
z
" style="fill:#96c69a;fill-opacity:0.5;stroke:#ffffff;stroke-linejoin:miter;stroke-width:1.282112;"/>
   </g>
   <g id="patch_45">
    <path clip-path="url(#p1db594d53e)" d="M 584.517232 298.438386 
L 592.150584 298.438386 
L 592.150584 285.617265 
L 584.517232 285.617265 
z
" style="fill:#96c69a;fill-opacity:0.5;stroke:#ffffff;stroke-linejoin:miter;stroke-width:1.282112;"/>
   </g>
   <g id="patch_46">
    <path clip-path="url(#p1db594d53e)" d="M 584.517232 285.617265 
L 589.606133 285.617265 
L 589.606133 272.796145 
L 584.517232 272.796145 
z
" style="fill:#96c69a;fill-opacity:0.5;stroke:#ffffff;stroke-linejoin:miter;stroke-width:1.282112;"/>
   </g>
   <g id="patch_47">
    <path clip-path="url(#p1db594d53e)" d="M 584.517232 272.796145 
L 587.909833 272.796145 
L 587.909833 259.975024 
L 584.517232 259.975024 
z
" style="fill:#96c69a;fill-opacity:0.5;stroke:#ffffff;stroke-linejoin:miter;stroke-width:1.282112;"/>
   </g>
   <g id="patch_48">
    <path clip-path="url(#p1db594d53e)" d="M 584.517232 259.975024 
L 587.485758 259.975024 
L 587.485758 247.153904 
L 584.517232 247.153904 
z
" style="fill:#96c69a;fill-opacity:0.5;stroke:#ffffff;stroke-linejoin:miter;stroke-width:1.282112;"/>
   </g>
   <g id="patch_49">
    <path clip-path="url(#p1db594d53e)" d="M 584.517232 247.153904 
L 585.789457 247.153904 
L 585.789457 234.332783 
L 584.517232 234.332783 
z
" style="fill:#96c69a;fill-opacity:0.5;stroke:#ffffff;stroke-linejoin:miter;stroke-width:1.282112;"/>
   </g>
   <g id="patch_50">
    <path clip-path="url(#p1db594d53e)" d="M 584.517232 234.332783 
L 585.365382 234.332783 
L 585.365382 221.511662 
L 584.517232 221.511662 
z
" style="fill:#96c69a;fill-opacity:0.5;stroke:#ffffff;stroke-linejoin:miter;stroke-width:1.282112;"/>
   </g>
   <g id="patch_51">
    <path clip-path="url(#p1db594d53e)" d="M 584.517232 221.511662 
L 584.517232 221.511662 
L 584.517232 208.690542 
L 584.517232 208.690542 
z
" style="fill:#96c69a;fill-opacity:0.5;stroke:#ffffff;stroke-linejoin:miter;stroke-width:1.282112;"/>
   </g>
   <g id="patch_52">
    <path clip-path="url(#p1db594d53e)" d="M 584.517232 208.690542 
L 584.941307 208.690542 
L 584.941307 195.869421 
L 584.517232 195.869421 
z
" style="fill:#96c69a;fill-opacity:0.5;stroke:#ffffff;stroke-linejoin:miter;stroke-width:1.282112;"/>
   </g>
   <g id="patch_53">
    <path clip-path="url(#p1db594d53e)" d="M 584.517232 195.869421 
L 584.941307 195.869421 
L 584.941307 183.048301 
L 584.517232 183.048301 
z
" style="fill:#96c69a;fill-opacity:0.5;stroke:#ffffff;stroke-linejoin:miter;stroke-width:1.282112;"/>
   </g>
   <g id="patch_54">
    <path clip-path="url(#p1db594d53e)" d="M 584.517232 183.048301 
L 584.941307 183.048301 
L 584.941307 170.22718 
L 584.517232 170.22718 
z
" style="fill:#96c69a;fill-opacity:0.5;stroke:#ffffff;stroke-linejoin:miter;stroke-width:1.282112;"/>
   </g>
   <g id="patch_55">
    <path clip-path="url(#p1db594d53e)" d="M 584.517232 170.22718 
L 584.517232 170.22718 
L 584.517232 157.406059 
L 584.517232 157.406059 
z
" style="fill:#96c69a;fill-opacity:0.5;stroke:#ffffff;stroke-linejoin:miter;stroke-width:1.282112;"/>
   </g>
   <g id="patch_56">
    <path clip-path="url(#p1db594d53e)" d="M 584.517232 157.406059 
L 584.517232 157.406059 
L 584.517232 144.584939 
L 584.517232 144.584939 
z
" style="fill:#96c69a;fill-opacity:0.5;stroke:#ffffff;stroke-linejoin:miter;stroke-width:1.282112;"/>
   </g>
   <g id="patch_57">
    <path clip-path="url(#p1db594d53e)" d="M 584.517232 144.584939 
L 584.941307 144.584939 
L 584.941307 131.763818 
L 584.517232 131.763818 
z
" style="fill:#96c69a;fill-opacity:0.5;stroke:#ffffff;stroke-linejoin:miter;stroke-width:1.282112;"/>
   </g>
   <g id="patch_58">
    <path d="M 584.517232 602.94 
L 584.517232 109.326857 
" style="fill:none;stroke:#262626;stroke-linecap:square;stroke-linejoin:miter;stroke-width:2.5;"/>
   </g>
   <g id="patch_59">
    <path d="M 584.517232 602.94 
L 667.784375 602.94 
" style="fill:none;stroke:#262626;stroke-linecap:square;stroke-linejoin:miter;stroke-width:2.5;"/>
   </g>
  </g>
 </g>
 <defs>
  <clipPath id="pe2ded37e0b">
   <rect height="493.613143" width="482.949429" x="84.914375" y="109.326857"/>
  </clipPath>
  <clipPath id="p3894c7c293">
   <rect height="85.105714" width="482.949429" x="84.914375" y="7.2"/>
  </clipPath>
  <clipPath id="p1db594d53e">
   <rect height="493.613143" width="83.267143" x="584.517232" y="109.326857"/>
  </clipPath>
 </defs>
</svg>
