<?xml version="1.0" encoding="utf-8" standalone="no"?>
<!DOCTYPE svg PUBLIC "-//W3C//DTD SVG 1.1//EN"
  "http://www.w3.org/Graphics/SVG/1.1/DTD/svg11.dtd">
<svg height="674.159375pt" version="1.1" viewBox="0 0 686.827539 674.159375" width="686.827539pt" xmlns="http://www.w3.org/2000/svg" xmlns:xlink="http://www.w3.org/1999/xlink">
 <metadata>
  <rdf:RDF xmlns:cc="http://creativecommons.org/ns#" xmlns:dc="http://purl.org/dc/elements/1.1/" xmlns:rdf="http://www.w3.org/1999/02/22-rdf-syntax-ns#">
   <cc:Work>
    <dc:type rdf:resource="http://purl.org/dc/dcmitype/StillImage"/>
    <dc:date>2021-07-24T14:57:57.372441</dc:date>
    <dc:format>image/svg+xml</dc:format>
    <dc:creator>
     <cc:Agent>
      <dc:title>Matplotlib v3.4.2, https://matplotlib.org/</dc:title>
     </cc:Agent>
    </dc:creator>
   </cc:Work>
  </rdf:RDF>
 </metadata>
 <defs>
  <style type="text/css">*{stroke-linecap:butt;stroke-linejoin:round;}</style>
 </defs>
 <g id="figure_1">
  <g id="patch_1">
   <path d="M 0 674.159375 
L 686.827539 674.159375 
L 686.827539 0 
L 0 0 
z
" style="fill:#ffffff;"/>
  </g>
  <g id="axes_1">
   <g id="patch_2">
    <path d="M 84.914375 602.94 
L 567.863804 602.94 
L 567.863804 109.326857 
L 84.914375 109.326857 
z
" style="fill:none;"/>
   </g>
   <g id="matplotlib.axis_1">
    <g id="xtick_1">
     <g id="text_1">
      <!-- 0 -->
      <g style="fill:#262626;" transform="translate(99.648239 635.156562)scale(0.22 -0.22)">
       <defs>
        <path d="M 2034 4250 
Q 1547 4250 1301 3770 
Q 1056 3291 1056 2328 
Q 1056 1369 1301 889 
Q 1547 409 2034 409 
Q 2525 409 2770 889 
Q 3016 1369 3016 2328 
Q 3016 3291 2770 3770 
Q 2525 4250 2034 4250 
z
M 2034 4750 
Q 2819 4750 3233 4129 
Q 3647 3509 3647 2328 
Q 3647 1150 3233 529 
Q 2819 -91 2034 -91 
Q 1250 -91 836 529 
Q 422 1150 422 2328 
Q 422 3509 836 4129 
Q 1250 4750 2034 4750 
z
" id="DejaVuSans-30" transform="scale(0.015625)"/>
       </defs>
       <use xlink:href="#DejaVuSans-30"/>
      </g>
     </g>
    </g>
    <g id="xtick_2">
     <g id="text_2">
      <!-- 20000 -->
      <g style="fill:#262626;" transform="translate(159.506153 635.156562)scale(0.22 -0.22)">
       <defs>
        <path d="M 1228 531 
L 3431 531 
L 3431 0 
L 469 0 
L 469 531 
Q 828 903 1448 1529 
Q 2069 2156 2228 2338 
Q 2531 2678 2651 2914 
Q 2772 3150 2772 3378 
Q 2772 3750 2511 3984 
Q 2250 4219 1831 4219 
Q 1534 4219 1204 4116 
Q 875 4013 500 3803 
L 500 4441 
Q 881 4594 1212 4672 
Q 1544 4750 1819 4750 
Q 2544 4750 2975 4387 
Q 3406 4025 3406 3419 
Q 3406 3131 3298 2873 
Q 3191 2616 2906 2266 
Q 2828 2175 2409 1742 
Q 1991 1309 1228 531 
z
" id="DejaVuSans-32" transform="scale(0.015625)"/>
       </defs>
       <use xlink:href="#DejaVuSans-32"/>
       <use x="63.623047" xlink:href="#DejaVuSans-30"/>
       <use x="127.246094" xlink:href="#DejaVuSans-30"/>
       <use x="190.869141" xlink:href="#DejaVuSans-30"/>
       <use x="254.492188" xlink:href="#DejaVuSans-30"/>
      </g>
     </g>
    </g>
    <g id="xtick_3">
     <g id="text_3">
      <!-- 40000 -->
      <g style="fill:#262626;" transform="translate(247.359066 635.156562)scale(0.22 -0.22)">
       <defs>
        <path d="M 2419 4116 
L 825 1625 
L 2419 1625 
L 2419 4116 
z
M 2253 4666 
L 3047 4666 
L 3047 1625 
L 3713 1625 
L 3713 1100 
L 3047 1100 
L 3047 0 
L 2419 0 
L 2419 1100 
L 313 1100 
L 313 1709 
L 2253 4666 
z
" id="DejaVuSans-34" transform="scale(0.015625)"/>
       </defs>
       <use xlink:href="#DejaVuSans-34"/>
       <use x="63.623047" xlink:href="#DejaVuSans-30"/>
       <use x="127.246094" xlink:href="#DejaVuSans-30"/>
       <use x="190.869141" xlink:href="#DejaVuSans-30"/>
       <use x="254.492188" xlink:href="#DejaVuSans-30"/>
      </g>
     </g>
    </g>
    <g id="xtick_4">
     <g id="text_4">
      <!-- 60000 -->
      <g style="fill:#262626;" transform="translate(335.21198 635.156562)scale(0.22 -0.22)">
       <defs>
        <path d="M 2113 2584 
Q 1688 2584 1439 2293 
Q 1191 2003 1191 1497 
Q 1191 994 1439 701 
Q 1688 409 2113 409 
Q 2538 409 2786 701 
Q 3034 994 3034 1497 
Q 3034 2003 2786 2293 
Q 2538 2584 2113 2584 
z
M 3366 4563 
L 3366 3988 
Q 3128 4100 2886 4159 
Q 2644 4219 2406 4219 
Q 1781 4219 1451 3797 
Q 1122 3375 1075 2522 
Q 1259 2794 1537 2939 
Q 1816 3084 2150 3084 
Q 2853 3084 3261 2657 
Q 3669 2231 3669 1497 
Q 3669 778 3244 343 
Q 2819 -91 2113 -91 
Q 1303 -91 875 529 
Q 447 1150 447 2328 
Q 447 3434 972 4092 
Q 1497 4750 2381 4750 
Q 2619 4750 2861 4703 
Q 3103 4656 3366 4563 
z
" id="DejaVuSans-36" transform="scale(0.015625)"/>
       </defs>
       <use xlink:href="#DejaVuSans-36"/>
       <use x="63.623047" xlink:href="#DejaVuSans-30"/>
       <use x="127.246094" xlink:href="#DejaVuSans-30"/>
       <use x="190.869141" xlink:href="#DejaVuSans-30"/>
       <use x="254.492188" xlink:href="#DejaVuSans-30"/>
      </g>
     </g>
    </g>
    <g id="xtick_5">
     <g id="text_5">
      <!-- 80000 -->
      <g style="fill:#262626;" transform="translate(423.064893 635.156562)scale(0.22 -0.22)">
       <defs>
        <path d="M 2034 2216 
Q 1584 2216 1326 1975 
Q 1069 1734 1069 1313 
Q 1069 891 1326 650 
Q 1584 409 2034 409 
Q 2484 409 2743 651 
Q 3003 894 3003 1313 
Q 3003 1734 2745 1975 
Q 2488 2216 2034 2216 
z
M 1403 2484 
Q 997 2584 770 2862 
Q 544 3141 544 3541 
Q 544 4100 942 4425 
Q 1341 4750 2034 4750 
Q 2731 4750 3128 4425 
Q 3525 4100 3525 3541 
Q 3525 3141 3298 2862 
Q 3072 2584 2669 2484 
Q 3125 2378 3379 2068 
Q 3634 1759 3634 1313 
Q 3634 634 3220 271 
Q 2806 -91 2034 -91 
Q 1263 -91 848 271 
Q 434 634 434 1313 
Q 434 1759 690 2068 
Q 947 2378 1403 2484 
z
M 1172 3481 
Q 1172 3119 1398 2916 
Q 1625 2713 2034 2713 
Q 2441 2713 2670 2916 
Q 2900 3119 2900 3481 
Q 2900 3844 2670 4047 
Q 2441 4250 2034 4250 
Q 1625 4250 1398 4047 
Q 1172 3844 1172 3481 
z
" id="DejaVuSans-38" transform="scale(0.015625)"/>
       </defs>
       <use xlink:href="#DejaVuSans-38"/>
       <use x="63.623047" xlink:href="#DejaVuSans-30"/>
       <use x="127.246094" xlink:href="#DejaVuSans-30"/>
       <use x="190.869141" xlink:href="#DejaVuSans-30"/>
       <use x="254.492188" xlink:href="#DejaVuSans-30"/>
      </g>
     </g>
    </g>
    <g id="xtick_6">
     <g id="text_6">
      <!-- 100000 -->
      <g style="fill:#262626;" transform="translate(503.919057 635.156562)scale(0.22 -0.22)">
       <defs>
        <path d="M 794 531 
L 1825 531 
L 1825 4091 
L 703 3866 
L 703 4441 
L 1819 4666 
L 2450 4666 
L 2450 531 
L 3481 531 
L 3481 0 
L 794 0 
L 794 531 
z
" id="DejaVuSans-31" transform="scale(0.015625)"/>
       </defs>
       <use xlink:href="#DejaVuSans-31"/>
       <use x="63.623047" xlink:href="#DejaVuSans-30"/>
       <use x="127.246094" xlink:href="#DejaVuSans-30"/>
       <use x="190.869141" xlink:href="#DejaVuSans-30"/>
       <use x="254.492188" xlink:href="#DejaVuSans-30"/>
       <use x="318.115234" xlink:href="#DejaVuSans-30"/>
      </g>
     </g>
    </g>
    <g id="text_7">
     <!-- MDTU -->
     <g style="fill:#262626;" transform="translate(290.683464 661.968125)scale(0.24 -0.24)">
      <defs>
       <path d="M 628 4666 
L 1569 4666 
L 2759 1491 
L 3956 4666 
L 4897 4666 
L 4897 0 
L 4281 0 
L 4281 4097 
L 3078 897 
L 2444 897 
L 1241 4097 
L 1241 0 
L 628 0 
L 628 4666 
z
" id="DejaVuSans-4d" transform="scale(0.015625)"/>
       <path d="M 1259 4147 
L 1259 519 
L 2022 519 
Q 2988 519 3436 956 
Q 3884 1394 3884 2338 
Q 3884 3275 3436 3711 
Q 2988 4147 2022 4147 
L 1259 4147 
z
M 628 4666 
L 1925 4666 
Q 3281 4666 3915 4102 
Q 4550 3538 4550 2338 
Q 4550 1131 3912 565 
Q 3275 0 1925 0 
L 628 0 
L 628 4666 
z
" id="DejaVuSans-44" transform="scale(0.015625)"/>
       <path d="M -19 4666 
L 3928 4666 
L 3928 4134 
L 2272 4134 
L 2272 0 
L 1638 0 
L 1638 4134 
L -19 4134 
L -19 4666 
z
" id="DejaVuSans-54" transform="scale(0.015625)"/>
       <path d="M 556 4666 
L 1191 4666 
L 1191 1831 
Q 1191 1081 1462 751 
Q 1734 422 2344 422 
Q 2950 422 3222 751 
Q 3494 1081 3494 1831 
L 3494 4666 
L 4128 4666 
L 4128 1753 
Q 4128 841 3676 375 
Q 3225 -91 2344 -91 
Q 1459 -91 1007 375 
Q 556 841 556 1753 
L 556 4666 
z
" id="DejaVuSans-55" transform="scale(0.015625)"/>
      </defs>
      <use xlink:href="#DejaVuSans-4d"/>
      <use x="86.279297" xlink:href="#DejaVuSans-44"/>
      <use x="163.28125" xlink:href="#DejaVuSans-54"/>
      <use x="224.365234" xlink:href="#DejaVuSans-55"/>
     </g>
    </g>
   </g>
   <g id="matplotlib.axis_2">
    <g id="ytick_1">
     <g id="text_8">
      <!-- 0.5 -->
      <g style="fill:#262626;" transform="translate(34.4275 510.204141)scale(0.22 -0.22)">
       <defs>
        <path d="M 684 794 
L 1344 794 
L 1344 0 
L 684 0 
L 684 794 
z
" id="DejaVuSans-2e" transform="scale(0.015625)"/>
        <path d="M 691 4666 
L 3169 4666 
L 3169 4134 
L 1269 4134 
L 1269 2991 
Q 1406 3038 1543 3061 
Q 1681 3084 1819 3084 
Q 2600 3084 3056 2656 
Q 3513 2228 3513 1497 
Q 3513 744 3044 326 
Q 2575 -91 1722 -91 
Q 1428 -91 1123 -41 
Q 819 9 494 109 
L 494 744 
Q 775 591 1075 516 
Q 1375 441 1709 441 
Q 2250 441 2565 725 
Q 2881 1009 2881 1497 
Q 2881 1984 2565 2268 
Q 2250 2553 1709 2553 
Q 1456 2553 1204 2497 
Q 953 2441 691 2322 
L 691 4666 
z
" id="DejaVuSans-35" transform="scale(0.015625)"/>
       </defs>
       <use xlink:href="#DejaVuSans-30"/>
       <use x="63.623047" xlink:href="#DejaVuSans-2e"/>
       <use x="95.410156" xlink:href="#DejaVuSans-35"/>
      </g>
     </g>
    </g>
    <g id="ytick_2">
     <g id="text_9">
      <!-- 0.6 -->
      <g style="fill:#262626;" transform="translate(34.4275 404.715867)scale(0.22 -0.22)">
       <use xlink:href="#DejaVuSans-30"/>
       <use x="63.623047" xlink:href="#DejaVuSans-2e"/>
       <use x="95.410156" xlink:href="#DejaVuSans-36"/>
      </g>
     </g>
    </g>
    <g id="ytick_3">
     <g id="text_10">
      <!-- 0.7 -->
      <g style="fill:#262626;" transform="translate(34.4275 299.227594)scale(0.22 -0.22)">
       <defs>
        <path d="M 525 4666 
L 3525 4666 
L 3525 4397 
L 1831 0 
L 1172 0 
L 2766 4134 
L 525 4134 
L 525 4666 
z
" id="DejaVuSans-37" transform="scale(0.015625)"/>
       </defs>
       <use xlink:href="#DejaVuSans-30"/>
       <use x="63.623047" xlink:href="#DejaVuSans-2e"/>
       <use x="95.410156" xlink:href="#DejaVuSans-37"/>
      </g>
     </g>
    </g>
    <g id="ytick_4">
     <g id="text_11">
      <!-- 0.8 -->
      <g style="fill:#262626;" transform="translate(34.4275 193.73932)scale(0.22 -0.22)">
       <use xlink:href="#DejaVuSans-30"/>
       <use x="63.623047" xlink:href="#DejaVuSans-2e"/>
       <use x="95.410156" xlink:href="#DejaVuSans-38"/>
      </g>
     </g>
    </g>
    <g id="text_12">
     <!-- $E$ -->
     <g style="fill:#262626;" transform="translate(25.43625 363.813429)rotate(-90)scale(0.24 -0.24)">
      <defs>
       <path d="M 1081 4666 
L 4031 4666 
L 3928 4134 
L 1606 4134 
L 1338 2753 
L 3566 2753 
L 3463 2222 
L 1234 2222 
L 909 531 
L 3284 531 
L 3181 0 
L 172 0 
L 1081 4666 
z
" id="DejaVuSans-Oblique-45" transform="scale(0.015625)"/>
      </defs>
      <use transform="translate(0 0.09375)" xlink:href="#DejaVuSans-Oblique-45"/>
     </g>
    </g>
   </g>
   <g id="line2d_1">
    <path clip-path="url(#pb6c42709ea)" d="M 106.866622 360.722919 
L 107.086254 430.62946 
L 107.305886 400.368512 
L 107.525519 430.321925 
L 107.745151 394.387147 
L 107.964783 310.878383 
L 108.184415 420.336299 
L 108.404048 346.280316 
L 108.62368 357.643299 
L 108.843312 401.242671 
L 109.062945 399.134812 
L 109.282577 495.439799 
L 109.502209 291.384684 
L 109.721841 347.063582 
L 109.941474 336.197908 
L 110.161106 343.113133 
L 110.600371 451.752723 
L 110.820003 456.979388 
L 111.039635 361.658826 
L 111.259267 408.284368 
L 111.4789 373.98969 
L 111.698532 461.497859 
L 111.918164 421.009352 
L 112.137797 500.672561 
L 112.357429 488.321465 
L 112.577061 407.286438 
L 112.796693 463.114349 
L 113.016326 364.545831 
L 113.235958 375.83306 
L 113.45559 306.788428 
L 113.675223 402.255546 
L 113.894855 363.549654 
L 114.334119 416.68732 
L 114.773384 305.323768 
L 114.993016 425.441736 
L 115.212649 411.34429 
L 115.432281 413.902986 
L 115.651913 412.879048 
L 115.871545 487.654626 
L 116.091178 435.534912 
L 116.31081 425.42554 
L 116.530442 298.353442 
L 116.750075 326.056859 
L 116.969707 381.601868 
L 117.189339 473.951323 
L 117.408971 449.59326 
L 117.628604 409.646501 
L 117.848236 412.707197 
L 118.067868 450.346052 
L 118.287501 512.526916 
L 118.507133 463.675393 
L 118.726765 482.855099 
L 119.16603 352.720398 
L 119.385662 456.354158 
L 119.824926 360.445797 
L 120.044559 464.756573 
L 120.264191 398.291833 
L 120.483823 463.117845 
L 120.703456 391.030499 
L 120.923088 443.272551 
L 121.14272 421.775986 
L 121.362352 326.410117 
L 121.581985 347.548454 
L 121.801617 387.34132 
L 122.021249 368.540733 
L 122.240882 394.891822 
L 122.460514 462.455905 
L 122.680146 446.959536 
L 122.899778 418.542226 
L 123.119411 457.361887 
L 123.558675 320.298813 
L 123.778308 423.783128 
L 123.99794 386.399685 
L 124.217572 428.595358 
L 124.437204 391.693671 
L 124.656837 335.536593 
L 124.876469 414.104764 
L 125.096101 410.86508 
L 125.315734 421.47784 
L 125.535366 525.565632 
L 125.97463 318.56158 
L 126.194263 328.307337 
L 126.413895 429.163178 
L 126.633527 250.518356 
L 126.85316 266.677855 
L 127.072792 487.049162 
L 127.292424 458.334242 
L 127.512056 396.533053 
L 127.731689 396.85081 
L 127.951321 378.573833 
L 128.170953 494.807555 
L 128.390586 416.172003 
L 128.610218 502.674118 
L 129.049482 302.392264 
L 129.269115 449.509417 
L 129.488747 436.191924 
L 129.708379 444.721463 
L 129.928012 402.828294 
L 130.147644 299.167803 
L 130.367276 401.557865 
L 130.586908 442.487488 
L 130.806541 401.532133 
L 131.026173 427.463119 
L 131.465438 443.996773 
L 131.904702 351.219739 
L 132.124334 383.419784 
L 132.343967 324.551394 
L 132.563599 362.441159 
L 132.783231 474.354971 
L 133.222496 357.188874 
L 133.66176 512.248997 
L 133.881393 468.47756 
L 134.101025 365.518856 
L 134.540289 471.649063 
L 134.759922 443.727923 
L 134.979554 447.783202 
L 135.638451 402.515158 
L 135.858083 379.625535 
L 136.077715 311.993248 
L 136.297348 483.551857 
L 136.736612 380.108192 
L 136.956245 370.653916 
L 137.175877 348.100099 
L 137.395509 459.989277 
L 137.615141 456.461171 
L 137.834774 413.281703 
L 138.274038 441.117402 
L 138.493671 369.460729 
L 138.713303 422.197908 
L 138.932935 374.782252 
L 139.152567 440.386491 
L 139.3722 371.214516 
L 139.591832 461.812327 
L 139.811464 481.455587 
L 140.250729 412.976766 
L 140.470361 416.448346 
L 140.689993 450.786482 
L 140.909626 409.654874 
L 141.129258 426.865018 
L 141.34889 474.165768 
L 141.568523 377.429717 
L 141.788155 365.287995 
L 142.007787 455.816452 
L 142.227419 449.006638 
L 142.447052 321.021681 
L 142.666684 462.977521 
L 142.886316 366.579548 
L 143.105949 381.862626 
L 143.325581 351.23271 
L 143.545213 459.303064 
L 143.764845 381.74591 
L 143.984478 399.654426 
L 144.20411 476.875514 
L 144.423742 467.123371 
L 144.863007 364.750761 
L 145.082639 433.381757 
L 145.302271 450.194755 
L 145.521904 422.455543 
L 145.741536 367.394161 
L 145.961168 470.908362 
L 146.180801 419.882522 
L 146.400433 452.147906 
L 146.620065 466.108068 
L 146.839697 410.048965 
L 147.05933 409.440621 
L 147.278962 428.179169 
L 147.498594 476.72506 
L 147.937859 348.818061 
L 148.157491 414.881106 
L 148.377123 428.964628 
L 148.596756 425.717923 
L 148.816388 415.119405 
L 149.03602 433.285607 
L 149.255653 329.862239 
L 149.694917 486.481198 
L 149.914549 485.271961 
L 150.134182 323.596303 
L 150.573446 410.92409 
L 150.793078 296.775673 
L 151.232343 502.696618 
L 151.451975 413.784619 
L 151.671608 420.177654 
L 151.89124 430.757783 
L 152.110872 428.715655 
L 152.330504 443.123601 
L 152.550137 356.186693 
L 152.769769 338.395906 
L 152.989401 386.699234 
L 153.209034 233.465368 
L 153.428666 519.792276 
L 153.648298 373.772851 
L 153.86793 396.572039 
L 154.087563 465.434542 
L 154.307195 438.919 
L 154.526827 367.690756 
L 154.966092 398.302233 
L 155.185724 357.293668 
L 155.405356 402.124476 
L 155.624989 367.722434 
L 155.844621 457.945222 
L 156.064253 388.848889 
L 156.283886 424.117965 
L 156.503518 386.92964 
L 156.72315 389.037777 
L 157.162415 435.595308 
L 157.382047 370.694558 
L 157.601679 454.765907 
L 157.821312 372.678474 
L 158.040944 375.988378 
L 158.260576 383.102523 
L 158.480208 483.419638 
L 158.919473 338.919562 
L 159.139105 424.348742 
L 159.358738 290.515567 
L 159.57837 428.759781 
L 159.798002 410.820835 
L 160.017634 458.746854 
L 160.237267 348.923716 
L 160.456899 369.67975 
L 160.676531 371.749863 
L 160.896164 420.655049 
L 161.115796 440.563849 
L 161.335428 424.638395 
L 161.55506 300.708662 
L 161.994325 462.058838 
L 162.213957 336.792818 
L 162.43359 406.365614 
L 162.653222 390.851719 
L 162.872854 365.522854 
L 163.092486 459.449705 
L 163.312119 416.589733 
L 163.531751 412.954427 
L 163.751383 426.279425 
L 164.190648 405.730051 
L 164.41028 447.275924 
L 164.629912 436.438323 
L 164.849545 399.88522 
L 165.069177 424.767306 
L 165.288809 426.82003 
L 165.508441 475.675161 
L 165.728074 411.256604 
L 165.947706 419.220327 
L 166.167338 435.657974 
L 166.386971 419.346295 
L 166.606603 474.906228 
L 166.826235 395.874862 
L 167.045867 410.358607 
L 167.2655 403.988756 
L 167.485132 481.608441 
L 167.704764 446.604129 
L 167.924397 385.733317 
L 168.144029 421.184478 
L 168.363661 497.233773 
L 168.583293 396.523748 
L 168.802926 477.051379 
L 169.022558 387.863838 
L 169.24219 480.052965 
L 169.461823 378.994906 
L 169.901087 346.487142 
L 170.120719 354.538111 
L 170.340352 457.094147 
L 170.559984 432.500254 
L 170.779616 475.971435 
L 170.999249 332.38114 
L 171.218881 369.942853 
L 171.658145 337.172922 
L 171.877778 347.937127 
L 172.09741 406.50875 
L 172.317042 398.668265 
L 172.536675 228.959148 
L 172.756307 415.35161 
L 172.975939 454.84436 
L 173.195571 392.834719 
L 173.415204 461.60518 
L 173.854468 346.302199 
L 174.074101 458.525205 
L 174.293733 438.853408 
L 174.513365 407.160693 
L 174.732997 406.73301 
L 174.95263 523.094899 
L 175.172262 353.823073 
L 175.391894 425.843089 
L 175.611527 363.019465 
L 175.831159 379.292601 
L 176.050791 466.183245 
L 176.270423 470.812645 
L 176.490056 325.586867 
L 176.709688 434.100139 
L 177.148953 337.545833 
L 177.368585 415.116294 
L 177.588217 425.238519 
L 178.027482 383.731824 
L 178.247114 454.162708 
L 178.466746 440.524105 
L 178.686379 446.694536 
L 178.906011 368.271265 
L 179.125643 348.165699 
L 179.345275 354.73312 
L 179.564908 409.791486 
L 179.78454 412.083947 
L 180.004172 394.123464 
L 180.223805 404.796538 
L 180.443437 377.882135 
L 180.663069 303.057441 
L 180.882701 328.579205 
L 181.102334 475.59536 
L 181.321966 286.788702 
L 181.541598 283.021102 
L 181.980863 433.313869 
L 182.420127 301.567133 
L 182.63976 414.490199 
L 182.859392 389.532655 
L 183.079024 387.491629 
L 183.298656 471.043771 
L 183.518289 391.331128 
L 183.737921 428.489466 
L 183.957553 349.913069 
L 184.396818 457.814995 
L 184.836082 401.339254 
L 185.055715 400.633423 
L 185.275347 299.677688 
L 185.494979 368.156261 
L 185.714612 368.897899 
L 185.934244 425.399969 
L 186.153876 403.797906 
L 186.373508 423.277819 
L 186.593141 425.325545 
L 186.812773 420.326452 
L 187.032405 475.654704 
L 187.252038 496.419899 
L 187.47167 388.051173 
L 187.691302 472.487451 
L 187.910934 394.286064 
L 188.130567 420.705412 
L 188.350199 294.97317 
L 188.569831 439.342048 
L 188.789464 421.287721 
L 189.009096 370.881714 
L 189.228728 362.055255 
L 189.44836 509.702521 
L 189.887625 327.2349 
L 190.107257 401.973197 
L 190.32689 337.784679 
L 190.546522 373.264602 
L 190.766154 454.646414 
L 190.985786 433.23577 
L 191.205419 356.051129 
L 191.425051 474.640592 
L 191.644683 479.463405 
L 191.864316 364.851841 
L 192.083948 361.519692 
L 192.30358 401.475912 
L 192.523212 406.707552 
L 192.742845 352.596842 
L 192.962477 426.5161 
L 193.182109 355.059453 
L 193.621374 394.070382 
L 193.841006 367.946694 
L 194.060638 381.726701 
L 194.280271 503.166347 
L 194.499903 361.217846 
L 194.719535 409.815765 
L 195.1588 311.350411 
L 195.378432 416.324462 
L 195.598064 323.381009 
L 195.817697 314.822994 
L 196.037329 418.773313 
L 196.696226 467.034745 
L 196.915858 471.882039 
L 197.574755 385.115086 
L 197.794387 404.660018 
L 198.014019 356.829568 
L 198.233652 477.387548 
L 198.453284 468.766118 
L 198.672916 452.108805 
L 198.892549 374.125065 
L 199.112181 403.217095 
L 199.551445 313.402341 
L 199.771078 414.022774 
L 200.210342 269.549382 
L 200.429975 434.848859 
L 200.649607 344.052202 
L 200.869239 407.419439 
L 201.088871 537.277466 
L 201.308504 355.230695 
L 201.528136 421.595781 
L 201.747768 338.655321 
L 201.967401 416.094384 
L 202.187033 442.6705 
L 202.406665 333.068838 
L 202.626297 447.475857 
L 202.84593 422.756878 
L 203.065562 479.9528 
L 203.285194 464.101724 
L 203.504827 472.03547 
L 203.724459 466.343404 
L 203.944091 427.118051 
L 204.163723 438.739102 
L 204.383356 416.485029 
L 204.602988 337.321193 
L 204.82262 381.520225 
L 205.042253 459.91654 
L 205.481517 341.493186 
L 205.701149 509.633532 
L 205.920782 520.920605 
L 206.140414 414.038808 
L 206.360046 417.903011 
L 206.579679 350.016743 
L 206.799311 372.065012 
L 207.018943 284.746556 
L 207.238575 424.34993 
L 207.458208 485.290106 
L 207.67784 408.669829 
L 207.897472 380.531556 
L 208.117105 438.677381 
L 208.336737 444.879269 
L 208.556369 349.961901 
L 208.776001 315.797002 
L 208.995634 433.63308 
L 209.215266 416.96136 
L 209.434898 276.73758 
L 209.654531 386.387531 
L 209.874163 377.009412 
L 210.093795 384.99699 
L 210.313427 480.486126 
L 210.53306 469.167355 
L 210.752692 304.402631 
L 210.972324 444.270893 
L 211.191956 316.117515 
L 211.411589 385.695988 
L 211.631221 323.280329 
L 211.850853 366.17795 
L 212.070486 376.861683 
L 212.290118 325.429679 
L 212.50975 502.26601 
L 212.729382 448.716702 
L 212.949015 365.82321 
L 213.168647 453.923866 
L 213.607912 353.774193 
L 213.827544 359.286618 
L 214.047176 435.971485 
L 214.266808 470.91145 
L 214.486441 359.436667 
L 214.925705 467.270159 
L 215.145338 454.154092 
L 215.36497 425.809018 
L 215.584602 479.323124 
L 216.023867 414.565541 
L 216.243499 301.470817 
L 216.463131 484.119851 
L 216.682764 483.245531 
L 216.902396 425.766404 
L 217.122028 424.180547 
L 217.34166 505.336748 
L 217.561293 410.257008 
L 217.780925 415.851636 
L 218.000557 444.015641 
L 218.439822 374.933791 
L 218.659454 369.470632 
L 218.879086 464.926585 
L 219.098719 479.71015 
L 219.318351 410.920391 
L 219.537983 470.029123 
L 219.757616 364.659088 
L 219.977248 475.065205 
L 220.19688 310.513176 
L 220.416512 373.186839 
L 220.636145 364.613556 
L 220.855777 367.090331 
L 221.075409 354.396181 
L 221.295042 330.199005 
L 221.514674 356.573189 
L 221.734306 399.615217 
L 221.953938 204.435331 
L 222.173571 412.285034 
L 222.393203 329.488686 
L 222.612835 452.37103 
L 223.271732 348.394719 
L 223.491364 408.359291 
L 223.710997 419.189257 
L 223.930629 413.875035 
L 224.150261 441.357696 
L 224.369894 404.30005 
L 224.589526 448.590284 
L 224.809158 400.503972 
L 225.02879 509.993124 
L 225.248423 360.052987 
L 225.687687 434.70064 
L 226.126952 364.669009 
L 226.346584 384.109465 
L 226.566216 458.629186 
L 226.785849 321.330875 
L 227.005481 437.59991 
L 227.225113 342.577461 
L 227.664378 475.166277 
L 228.103642 386.325011 
L 228.323275 509.35683 
L 228.542907 392.804472 
L 228.762539 436.105019 
L 228.982171 453.802866 
L 229.201804 316.325845 
L 229.421436 469.617151 
L 229.860701 349.725946 
L 230.080333 470.154216 
L 230.299965 313.188337 
L 230.519597 539.76064 
L 230.73923 484.369802 
L 230.958862 356.871179 
L 231.398127 490.682915 
L 231.837391 321.229504 
L 232.276656 361.895973 
L 232.496288 266.983239 
L 232.935553 413.889898 
L 233.155185 408.653324 
L 233.374817 333.915653 
L 233.594449 440.477194 
L 233.814082 376.422883 
L 234.033714 349.880231 
L 234.253346 417.882224 
L 234.692611 447.99884 
L 234.912243 396.849613 
L 235.131875 412.169604 
L 235.351508 471.354352 
L 235.57114 403.673614 
L 235.790772 404.046915 
L 236.010405 322.435491 
L 236.230037 476.771893 
L 236.449669 472.257271 
L 236.669301 475.050086 
L 236.888934 450.74107 
L 237.108566 492.820652 
L 237.328198 367.671459 
L 237.547831 411.596327 
L 237.987095 368.339417 
L 238.206727 529.736736 
L 238.42636 450.285016 
L 238.645992 292.760973 
L 239.085257 519.487539 
L 239.524521 319.639811 
L 239.744153 315.155433 
L 239.963786 377.801016 
L 240.183418 395.105095 
L 240.40305 479.55006 
L 240.622683 456.061502 
L 240.842315 488.568191 
L 241.281579 320.516597 
L 241.501212 490.401025 
L 241.720844 402.764251 
L 241.940476 400.469726 
L 242.160108 478.550324 
L 242.379741 375.538175 
L 242.599373 452.133565 
L 242.819005 379.888349 
L 243.038638 419.279646 
L 243.25827 385.575081 
L 243.477902 499.482226 
L 243.697534 347.011118 
L 243.917167 284.198932 
L 244.356431 451.482744 
L 244.576064 459.001149 
L 244.795696 405.665251 
L 245.23496 425.1847 
L 245.454593 484.660987 
L 245.674225 375.033469 
L 245.893857 393.283838 
L 246.11349 424.925791 
L 246.333122 360.889232 
L 246.552754 422.575813 
L 246.772386 364.855262 
L 247.211651 422.053943 
L 247.431283 411.836786 
L 247.650916 416.913321 
L 247.870548 377.683469 
L 248.09018 404.947277 
L 248.309812 325.494786 
L 248.749077 492.409806 
L 248.968709 357.086976 
L 249.188342 503.471012 
L 249.407974 410.199953 
L 249.627606 383.636529 
L 250.066871 472.201889 
L 250.286503 406.853741 
L 250.506135 253.40824 
L 251.165032 530.99012 
L 251.384664 461.521351 
L 251.604297 459.997716 
L 251.823929 325.637908 
L 252.043561 441.239262 
L 252.482826 303.203371 
L 252.702458 411.750543 
L 252.92209 342.260775 
L 253.141723 315.3088 
L 253.361355 422.904059 
L 253.580987 401.282451 
L 253.80062 461.410697 
L 254.020252 470.492231 
L 254.459516 367.117177 
L 254.898781 485.331271 
L 255.118413 358.375216 
L 255.338046 362.763087 
L 255.557678 348.578501 
L 255.77731 402.869593 
L 255.996942 364.519005 
L 256.216575 409.817764 
L 256.436207 338.376827 
L 256.655839 411.446956 
L 256.875472 381.448752 
L 257.095104 386.395233 
L 257.314736 481.583232 
L 257.534368 330.167503 
L 257.754001 368.651572 
L 257.973633 338.322912 
L 258.193265 517.033225 
L 258.412897 296.943795 
L 258.63253 329.753406 
L 258.852162 383.668075 
L 259.291427 364.403681 
L 259.511059 281.770316 
L 259.730691 324.829155 
L 259.950323 465.069394 
L 260.169956 500.153379 
L 260.389588 458.173904 
L 260.60922 470.544247 
L 260.828853 437.950624 
L 261.048485 539.35851 
L 261.268117 470.817639 
L 261.487749 294.612747 
L 261.707382 445.699458 
L 261.927014 456.52819 
L 262.146646 413.170593 
L 262.366279 327.936364 
L 262.585911 389.935098 
L 262.805543 290.466874 
L 263.025175 396.612528 
L 263.244808 360.659197 
L 263.46444 428.926778 
L 263.684072 353.972209 
L 264.123337 434.819493 
L 264.342969 514.587932 
L 264.782234 345.733786 
L 265.001866 421.137134 
L 265.221498 378.349165 
L 265.441131 293.950874 
L 265.660763 396.750659 
L 265.880395 376.256029 
L 266.100027 394.350141 
L 266.31966 372.394595 
L 266.539292 460.158261 
L 266.758924 432.832478 
L 266.978557 368.194827 
L 267.198189 419.803338 
L 267.417821 393.694887 
L 267.637453 434.954387 
L 268.076718 368.091256 
L 268.29635 530.627607 
L 268.735615 409.989444 
L 268.955247 485.763592 
L 269.174879 437.725583 
L 269.394512 326.088541 
L 269.614144 324.907812 
L 269.833776 346.982095 
L 270.053409 293.326005 
L 270.273041 371.154669 
L 270.492673 380.241505 
L 270.712305 272.22033 
L 270.931938 361.696638 
L 271.15157 394.323746 
L 271.590835 482.833587 
L 271.810467 391.01344 
L 272.030099 418.341259 
L 272.249731 413.679083 
L 272.469364 458.289728 
L 272.688996 338.750896 
L 272.908628 397.263524 
L 273.12826 394.979099 
L 273.347893 356.464697 
L 273.567525 495.988302 
L 274.00679 365.897534 
L 274.226422 373.230836 
L 274.446054 419.910963 
L 274.885319 372.237329 
L 275.104951 498.054207 
L 275.324583 399.276686 
L 275.544216 483.50943 
L 275.763848 300.119894 
L 275.98348 340.732282 
L 276.203112 275.972072 
L 276.422745 390.493764 
L 276.862009 415.764658 
L 277.081642 343.915228 
L 277.301274 458.740189 
L 277.740538 362.045489 
L 277.960171 392.073315 
L 278.179803 521.545699 
L 278.399435 361.906892 
L 278.619068 520.253689 
L 278.8387 376.037001 
L 279.058332 449.331297 
L 279.277964 458.82577 
L 279.717229 389.142106 
L 279.936861 370.612131 
L 280.156494 395.978781 
L 280.376126 446.768803 
L 280.595758 396.704403 
L 280.81539 393.449917 
L 281.035023 432.613093 
L 281.254655 497.432868 
L 281.69392 324.836421 
L 281.913552 392.093763 
L 282.133184 419.961624 
L 282.352816 391.290231 
L 282.572449 318.683678 
L 283.011713 530.953967 
L 283.231346 365.54767 
L 283.450978 345.690376 
L 283.67061 546.061554 
L 283.890242 384.990001 
L 284.109875 455.336342 
L 284.329507 455.915956 
L 284.549139 347.110103 
L 284.768772 458.247792 
L 284.988404 390.345476 
L 285.208036 443.421175 
L 285.427668 366.786002 
L 285.866933 421.702035 
L 286.086565 420.931909 
L 286.306198 392.841371 
L 286.745462 471.698929 
L 286.965094 305.883712 
L 287.184727 336.946269 
L 287.404359 256.108996 
L 287.843624 497.01819 
L 288.063256 423.324981 
L 288.282888 494.778803 
L 288.50252 395.102586 
L 288.722153 367.649028 
L 288.941785 416.743982 
L 289.161417 560.702237 
L 289.600682 293.511475 
L 289.820314 452.278031 
L 290.039946 458.978227 
L 290.259579 510.132541 
L 290.479211 342.060384 
L 290.698843 421.3752 
L 290.918475 382.623919 
L 291.35774 494.335416 
L 291.577372 452.374177 
L 291.797005 451.24797 
L 292.016637 330.318264 
L 292.236269 404.312246 
L 292.455901 402.070045 
L 292.675534 384.272739 
L 293.114798 458.835811 
L 293.334431 334.06243 
L 293.554063 515.904431 
L 294.21296 408.306248 
L 294.652224 427.341646 
L 294.871857 354.047684 
L 295.091489 441.898913 
L 295.311121 360.403478 
L 295.530753 359.499144 
L 295.750386 387.520785 
L 295.970018 437.401112 
L 296.18965 354.767106 
L 296.409283 356.033631 
L 296.628915 390.690805 
L 296.848547 354.661354 
L 297.287812 449.807698 
L 297.507444 401.522417 
L 297.727076 419.639785 
L 297.946709 450.681025 
L 298.166341 406.787782 
L 298.385973 410.144509 
L 298.605605 450.345593 
L 298.825238 346.954225 
L 299.264502 448.392894 
L 299.484135 443.311083 
L 299.703767 349.114869 
L 299.923399 484.557699 
L 300.143031 407.173076 
L 300.362664 467.282304 
L 300.582296 389.156769 
L 300.801928 386.163956 
L 301.021561 357.532287 
L 301.241193 535.477607 
L 301.460825 453.084112 
L 301.680457 441.047518 
L 301.90009 328.92771 
L 302.119722 388.317468 
L 302.339354 391.421527 
L 302.558987 330.956605 
L 302.778619 431.307793 
L 302.998251 453.385669 
L 303.217883 273.033542 
L 303.657148 482.952708 
L 304.096412 411.292803 
L 304.316045 457.910763 
L 304.755309 378.630923 
L 304.974942 452.299532 
L 305.194574 378.800898 
L 305.633838 453.015151 
L 305.853471 337.809111 
L 306.073103 463.920163 
L 306.292735 475.098554 
L 306.512368 474.623985 
L 306.951632 334.833688 
L 307.390897 408.375305 
L 307.610529 390.049953 
L 307.830161 291.698164 
L 308.049794 428.661799 
L 308.269426 290.673129 
L 308.489058 431.835332 
L 308.70869 403.694539 
L 308.928323 500.659761 
L 309.147955 462.408482 
L 309.367587 398.271982 
L 309.58722 382.792738 
L 309.806852 344.186269 
L 310.026484 348.103798 
L 310.246116 437.764797 
L 310.465749 429.356926 
L 310.685381 446.022877 
L 310.905013 376.580677 
L 311.124646 439.992523 
L 311.344278 444.909951 
L 311.783542 386.657288 
L 312.003175 358.174585 
L 312.222807 418.513712 
L 312.442439 413.74656 
L 312.662072 451.4859 
L 312.881704 455.724196 
L 313.101336 401.393905 
L 313.320968 374.59374 
L 313.540601 368.655521 
L 313.760233 376.16167 
L 313.979865 390.24962 
L 314.199498 390.665945 
L 314.41913 321.702317 
L 314.638762 431.120958 
L 314.858394 436.718795 
L 315.078027 423.130786 
L 315.297659 401.504813 
L 315.517291 487.172221 
L 315.736924 464.292298 
L 315.956556 401.486841 
L 316.176188 468.978376 
L 316.39582 390.227511 
L 316.615453 412.407525 
L 316.835085 383.541646 
L 317.054717 472.986274 
L 317.493982 424.219458 
L 317.933246 315.807375 
L 318.152879 490.18141 
L 318.372511 408.861251 
L 318.592143 372.794965 
L 318.811775 406.944296 
L 319.031408 484.985831 
L 319.25104 338.163478 
L 319.470672 440.536662 
L 319.690305 423.888074 
L 319.909937 478.425889 
L 320.349201 340.076259 
L 320.568834 396.229107 
L 320.788466 360.437972 
L 321.008098 456.568321 
L 321.227731 369.082377 
L 321.447363 409.350779 
L 321.666995 398.02582 
L 322.10626 241.326365 
L 322.325892 295.431258 
L 322.545524 441.943879 
L 322.765157 384.847251 
L 322.984789 441.920223 
L 323.424053 326.176805 
L 323.643686 511.693132 
L 323.863318 367.088059 
L 324.08295 354.569764 
L 324.302583 515.223842 
L 324.522215 475.019212 
L 324.741847 378.930562 
L 324.961479 333.298843 
L 325.181112 466.121274 
L 325.400744 495.423393 
L 325.620376 388.27343 
L 325.840009 429.735702 
L 326.059641 404.568743 
L 326.279273 418.732209 
L 326.498905 408.341456 
L 326.718538 444.577719 
L 326.93817 357.358475 
L 327.157802 418.561683 
L 327.377435 409.71121 
L 327.597067 492.009687 
L 327.816699 345.366569 
L 328.036331 443.390144 
L 328.475596 321.361776 
L 328.695228 398.305613 
L 328.914861 412.020208 
L 329.134493 364.175451 
L 329.354125 340.573136 
L 329.573757 439.301689 
L 329.79339 369.289182 
L 330.013022 427.881102 
L 330.232654 409.563705 
L 330.452287 404.304176 
L 330.671919 450.703204 
L 330.891551 372.979456 
L 331.111183 458.952086 
L 331.330816 366.175357 
L 331.77008 454.040428 
L 332.209345 417.259402 
L 332.428977 367.23585 
L 332.648609 344.592754 
L 332.868242 408.928443 
L 333.087874 344.540589 
L 333.307506 464.840216 
L 333.527139 358.752195 
L 333.746771 357.900496 
L 333.966403 484.883631 
L 334.186035 481.292374 
L 334.6253 353.36416 
L 335.064564 363.393832 
L 335.284197 446.176561 
L 335.503829 439.161836 
L 335.723461 447.101009 
L 335.943094 438.26762 
L 336.162726 442.364963 
L 336.382358 345.074689 
L 336.60199 408.643168 
L 336.821623 380.810177 
L 337.041255 463.755023 
L 337.260887 333.052235 
L 337.48052 388.951735 
L 337.700152 502.01518 
L 337.919784 263.404618 
L 338.139416 469.598689 
L 338.359049 326.656601 
L 338.578681 427.859795 
L 339.017946 381.41831 
L 339.237578 436.478748 
L 339.45721 338.996454 
L 339.896475 456.664158 
L 340.116107 445.385252 
L 340.555372 368.142731 
L 340.994636 468.540577 
L 341.214268 542.674386 
L 341.653533 403.03162 
L 341.873165 301.646901 
L 342.092798 313.226092 
L 342.532062 415.730193 
L 342.751694 447.545906 
L 342.971327 410.688623 
L 343.190959 429.255477 
L 343.410591 399.782618 
L 343.630224 443.897193 
L 343.849856 420.12652 
L 344.069488 367.947676 
L 344.28912 513.707334 
L 344.508753 482.212599 
L 344.728385 433.912927 
L 344.948017 487.596306 
L 345.16765 417.869772 
L 345.387282 385.102063 
L 345.606914 397.646905 
L 345.826546 454.430758 
L 346.046179 393.054508 
L 346.485443 416.954732 
L 346.705076 411.930541 
L 346.924708 354.972871 
L 347.14434 463.1627 
L 347.363972 416.52622 
L 347.583605 431.81971 
L 347.803237 422.13909 
L 348.242502 365.86285 
L 348.462134 421.058091 
L 348.681766 510.201161 
L 348.901398 440.894266 
L 349.121031 484.019861 
L 349.340663 379.477299 
L 349.560295 479.636508 
L 349.779927 425.431689 
L 349.99956 417.511732 
L 350.219192 434.126 
L 350.438824 385.810529 
L 350.658457 546.482014 
L 351.097721 381.961242 
L 351.536986 440.312184 
L 351.756618 331.911735 
L 351.97625 415.754855 
L 352.195883 415.950596 
L 352.415515 433.104874 
L 352.635147 479.561841 
L 352.854779 392.887333 
L 353.074412 391.245516 
L 353.513676 483.152565 
L 353.733309 351.716285 
L 353.952941 448.138432 
L 354.172573 322.325766 
L 354.392205 365.983543 
L 354.611838 477.719724 
L 354.83147 357.611211 
L 355.051102 450.907194 
L 355.270735 342.303231 
L 355.490367 497.047032 
L 355.709999 401.799467 
L 355.929631 475.116767 
L 356.149264 444.388179 
L 356.368896 345.44393 
L 356.588528 415.758727 
L 356.808161 309.242519 
L 357.027793 439.538012 
L 357.247425 462.19726 
L 357.467057 435.573015 
L 357.68669 313.658482 
L 357.906322 402.257092 
L 358.125954 363.534363 
L 358.345587 422.863671 
L 358.565219 423.180746 
L 358.784851 407.084953 
L 359.004483 281.706976 
L 359.224116 269.504901 
L 359.443748 457.948391 
L 359.66338 366.051414 
L 359.883013 500.573045 
L 360.102645 364.46948 
L 360.541909 474.249079 
L 360.761542 514.411809 
L 361.200806 346.756315 
L 361.420439 351.32689 
L 361.640071 486.405755 
L 361.859703 281.177439 
L 362.079335 430.799487 
L 362.298968 401.593707 
L 362.5186 409.006783 
L 362.738232 468.285976 
L 362.957865 382.367516 
L 363.177497 453.164382 
L 363.397129 435.040021 
L 363.616761 461.730149 
L 363.836394 448.507354 
L 364.056026 423.228939 
L 364.275658 362.838227 
L 364.495291 394.503295 
L 364.714923 449.904689 
L 364.934555 407.509575 
L 365.154187 403.262098 
L 365.37382 429.636188 
L 365.593452 392.841897 
L 365.813084 401.313481 
L 366.032716 433.819753 
L 366.252349 415.353595 
L 366.471981 411.539363 
L 366.691613 332.053484 
L 366.911246 513.124701 
L 367.130878 429.00414 
L 367.35051 480.303475 
L 367.570142 352.185863 
L 367.789775 449.06858 
L 368.009407 460.141315 
L 368.229039 325.654562 
L 368.448672 325.642477 
L 368.668304 420.695136 
L 368.887936 334.686407 
L 369.107568 424.673122 
L 369.327201 414.323221 
L 369.546833 371.983117 
L 369.766465 409.820011 
L 369.986098 481.473344 
L 370.20573 338.84969 
L 370.425362 341.786615 
L 370.644994 378.413763 
L 370.864627 435.708036 
L 371.084259 449.475714 
L 371.303891 369.940412 
L 371.523524 389.488318 
L 371.962788 466.121497 
L 372.18242 455.011255 
L 372.402053 534.021663 
L 372.621685 363.917627 
L 372.841317 359.799403 
L 373.06095 473.750237 
L 373.280582 356.308635 
L 373.500214 423.93834 
L 373.719846 455.227867 
L 373.939479 382.613815 
L 374.159111 386.303686 
L 374.598376 461.012656 
L 374.818008 419.100065 
L 375.03764 312.390434 
L 375.257272 444.9607 
L 375.476905 371.664178 
L 375.696537 347.089873 
L 375.916169 377.538498 
L 376.135802 309.359307 
L 376.355434 420.551898 
L 376.575066 465.727888 
L 377.014331 416.651375 
L 377.233963 317.154174 
L 377.453595 409.503975 
L 377.673228 351.466504 
L 377.89286 426.975737 
L 378.112492 339.123008 
L 378.332124 422.407771 
L 378.551757 383.177431 
L 378.771389 495.253038 
L 379.210654 400.637944 
L 379.430286 432.384309 
L 379.649918 416.702668 
L 379.86955 383.785832 
L 380.089183 284.580612 
L 380.308815 454.233964 
L 380.748079 422.315955 
L 380.967712 380.834116 
L 381.187344 461.250098 
L 381.406976 382.021258 
L 381.626609 427.077266 
L 381.846241 381.543601 
L 382.065873 466.511238 
L 382.285505 424.023319 
L 382.505138 445.063527 
L 382.72477 369.669251 
L 382.944402 424.188839 
L 383.164035 414.522347 
L 383.383667 324.587253 
L 383.603299 430.375263 
L 383.822931 355.707495 
L 384.042564 450.694675 
L 384.262196 386.902518 
L 384.481828 438.97979 
L 384.701461 442.816375 
L 384.921093 521.834977 
L 385.140725 418.130957 
L 385.360357 465.48869 
L 385.57999 350.753563 
L 386.019254 461.647172 
L 386.458519 349.496312 
L 386.678151 487.015437 
L 386.897783 383.42562 
L 387.117416 420.14489 
L 387.337048 372.394356 
L 387.776313 440.929736 
L 387.995945 412.171401 
L 388.215577 462.574468 
L 388.435209 451.383358 
L 388.874474 391.741468 
L 389.094106 434.090352 
L 389.313739 416.498079 
L 389.533371 428.971982 
L 389.753003 410.000988 
L 389.972635 372.568259 
L 390.192268 450.953829 
L 390.4119 291.167271 
L 390.631532 383.235801 
L 390.851165 330.388771 
L 391.070797 455.005214 
L 391.510061 378.344087 
L 391.729694 387.32131 
L 391.949326 423.459171 
L 392.168958 284.184951 
L 392.388591 305.679261 
L 392.608223 580.503039 
L 392.827855 416.681031 
L 393.047487 365.906495 
L 393.26712 357.501039 
L 393.486752 432.487878 
L 393.706384 383.11123 
L 393.926017 280.47915 
L 394.365281 446.039855 
L 394.584913 433.65668 
L 395.024178 280.818642 
L 395.24381 355.571454 
L 395.463443 250.988527 
L 395.683075 465.569798 
L 395.902707 468.494958 
L 396.122339 344.875435 
L 396.341972 307.773548 
L 396.781236 482.781604 
L 397.000868 196.503419 
L 397.220501 342.302626 
L 397.659765 441.631362 
L 397.879398 385.442182 
L 398.09903 365.938255 
L 398.318662 438.551517 
L 398.538294 425.825986 
L 398.977559 298.32869 
L 399.197191 341.029131 
L 399.416824 329.464755 
L 399.636456 416.516474 
L 399.856088 399.399483 
L 400.07572 284.763584 
L 400.295353 354.922081 
L 400.514985 296.815221 
L 400.734617 482.792394 
L 401.173882 304.791294 
L 401.393514 470.523374 
L 401.613146 363.637417 
L 401.832779 393.744641 
L 402.052411 456.534999 
L 402.491676 350.381921 
L 402.711308 357.71552 
L 402.93094 389.02273 
L 403.150572 304.464857 
L 403.370205 429.526681 
L 403.589837 466.082353 
L 403.809469 395.393247 
L 404.029102 458.268591 
L 404.248734 346.08554 
L 404.468366 413.175568 
L 404.687998 436.485183 
L 405.127263 357.265256 
L 405.346895 361.03602 
L 405.566528 344.608759 
L 405.78616 353.656271 
L 406.005792 508.749131 
L 406.445057 338.872289 
L 406.664689 430.061541 
L 406.884321 359.831354 
L 407.103954 344.370466 
L 407.323586 437.867266 
L 407.543218 353.016941 
L 407.76285 520.772776 
L 407.982483 387.474935 
L 408.421747 427.436607 
L 408.64138 349.656742 
L 408.861012 397.622543 
L 409.080644 355.773891 
L 409.300276 362.50825 
L 409.519909 468.267953 
L 409.959173 432.05706 
L 410.178806 310.585206 
L 410.398438 483.236209 
L 410.61807 417.197364 
L 410.837702 413.012339 
L 411.057335 428.213669 
L 411.276967 531.063414 
L 411.496599 339.455549 
L 411.716231 317.955705 
L 411.935864 411.224187 
L 412.155496 439.789809 
L 412.375128 307.844044 
L 412.594761 451.290349 
L 412.814393 501.756002 
L 413.034025 421.612859 
L 413.253657 418.392691 
L 413.692922 455.737903 
L 413.912554 425.56524 
L 414.132187 305.076697 
L 414.351819 419.715282 
L 414.571451 381.890077 
L 414.791083 281.958194 
L 415.010716 512.47614 
L 415.230348 407.899119 
L 415.44998 410.310219 
L 415.669613 456.149979 
L 415.889245 423.805429 
L 416.108877 286.902034 
L 416.328509 382.194968 
L 416.548142 383.086789 
L 416.767774 443.165383 
L 416.987406 431.046206 
L 417.426671 393.932394 
L 417.646303 374.551326 
L 418.085568 434.492964 
L 418.3052 323.278742 
L 418.524832 427.877659 
L 418.744465 333.977615 
L 418.964097 292.598737 
L 419.183729 425.141139 
L 419.403361 288.991692 
L 419.842626 418.530409 
L 420.062258 362.79776 
L 420.281891 424.015393 
L 420.501523 343.307495 
L 420.721155 514.396431 
L 420.940787 480.970097 
L 421.16042 346.681724 
L 421.380052 493.549555 
L 421.819317 318.752892 
L 422.038949 417.17193 
L 422.258581 451.400244 
L 422.478213 415.139121 
L 422.697846 412.167564 
L 422.917478 417.915344 
L 423.13711 335.071143 
L 423.356743 437.940681 
L 423.576375 309.588633 
L 423.796007 422.955128 
L 424.015639 474.244802 
L 424.235272 392.369735 
L 424.454904 440.967082 
L 424.674536 344.765815 
L 424.894169 421.614242 
L 425.113801 434.408301 
L 425.333433 321.144143 
L 425.553065 448.473129 
L 425.772698 480.203433 
L 425.99233 453.744075 
L 426.211962 457.937701 
L 426.651227 337.158835 
L 426.870859 446.35899 
L 427.090491 417.137479 
L 427.310124 409.892365 
L 427.529756 419.054115 
L 427.749388 343.638494 
L 427.96902 349.947525 
L 428.408285 477.360945 
L 428.627917 418.909697 
L 428.84755 415.213602 
L 429.067182 389.488617 
L 429.286814 346.073332 
L 429.506446 455.59146 
L 429.726079 347.441582 
L 429.945711 392.672043 
L 430.165343 479.04414 
L 430.384976 466.519833 
L 430.604608 483.591544 
L 431.043872 357.204278 
L 431.263505 390.844538 
L 431.483137 453.979205 
L 431.702769 319.860788 
L 431.922402 454.275784 
L 432.142034 479.080438 
L 432.361666 385.82283 
L 432.581298 379.447212 
L 432.800931 340.65378 
L 433.020563 396.580577 
L 433.240195 380.915184 
L 433.459828 375.163717 
L 433.67946 451.597482 
L 433.899092 453.424399 
L 434.118724 354.609195 
L 434.338357 324.346223 
L 434.557989 324.172238 
L 434.997254 464.778299 
L 435.216886 452.694215 
L 435.436518 424.829616 
L 435.65615 417.846963 
L 435.875783 352.99114 
L 436.315047 448.194144 
L 436.53468 454.652529 
L 436.754312 341.32337 
L 436.973944 417.333176 
L 437.193576 428.556295 
L 437.413209 410.596106 
L 437.632841 367.06337 
L 437.852473 378.348519 
L 438.072106 403.26126 
L 438.291738 450.176744 
L 438.51137 398.154652 
L 438.731002 471.111621 
L 438.950635 412.402287 
L 439.170267 442.076238 
L 439.389899 365.772783 
L 439.609532 407.293249 
L 439.829164 514.087813 
L 440.048796 456.012514 
L 440.268428 446.034113 
L 440.488061 374.113872 
L 440.707693 391.102157 
L 440.927325 500.009267 
L 441.146958 418.105573 
L 441.586222 460.860396 
L 441.805854 467.745362 
L 442.245119 352.051499 
L 442.464751 425.297627 
L 442.684383 432.013783 
L 442.904016 429.336564 
L 443.123648 403.393287 
L 443.34328 448.039083 
L 443.562913 388.382233 
L 443.782545 384.114324 
L 444.002177 558.745649 
L 444.441442 362.726498 
L 444.661074 483.791236 
L 444.880706 413.837819 
L 445.100339 428.144258 
L 445.319971 420.489618 
L 445.539603 432.156243 
L 445.759235 460.638696 
L 445.978868 460.636903 
L 446.1985 374.734463 
L 446.418132 457.439487 
L 446.637765 446.056406 
L 447.077029 365.978353 
L 447.296661 481.11158 
L 447.516294 452.526518 
L 447.735926 374.05545 
L 447.955558 349.508722 
L 448.175191 416.407426 
L 448.394823 379.998926 
L 448.614455 318.847086 
L 448.834087 434.089265 
L 449.05372 435.914348 
L 449.273352 470.72755 
L 449.492984 451.137683 
L 449.712617 387.918354 
L 449.932249 410.096222 
L 450.151881 378.789768 
L 450.371513 495.192464 
L 450.591146 341.77585 
L 451.03041 370.271836 
L 451.250043 282.552561 
L 451.469675 437.337024 
L 451.689307 430.768616 
L 451.908939 319.75565 
L 452.128572 384.616216 
L 452.348204 336.601462 
L 452.567836 431.522846 
L 452.787469 131.763818 
L 453.007101 472.670854 
L 453.226733 529.073094 
L 453.446365 339.727336 
L 453.665998 379.458885 
L 453.88563 465.335814 
L 454.105262 417.719147 
L 454.324895 417.950136 
L 454.544527 454.719996 
L 454.764159 406.002304 
L 454.983791 438.141986 
L 455.423056 239.407465 
L 455.642688 474.69991 
L 455.862321 357.216977 
L 456.081953 478.176071 
L 456.301585 347.267737 
L 456.521217 358.334726 
L 456.74085 506.497275 
L 456.960482 404.53313 
L 457.180114 421.985111 
L 457.399746 359.054389 
L 457.619379 410.446785 
L 457.839011 415.526516 
L 458.058643 412.507995 
L 458.278276 398.901133 
L 458.497908 452.298995 
L 458.71754 420.880386 
L 458.937172 460.920936 
L 459.156805 316.934603 
L 459.376437 461.528896 
L 459.596069 374.305093 
L 459.815702 375.606106 
L 460.035334 381.37387 
L 460.254966 393.469405 
L 460.474598 417.177386 
L 460.694231 422.503386 
L 460.913863 410.996323 
L 461.133495 367.60086 
L 461.353128 435.70685 
L 461.792392 294.05596 
L 462.231657 315.836456 
L 462.451289 424.699652 
L 462.670921 443.956713 
L 462.890554 394.069419 
L 463.110186 440.019086 
L 463.329818 352.54708 
L 463.54945 330.656011 
L 463.769083 415.455631 
L 463.988715 423.439103 
L 464.208347 342.215384 
L 464.42798 332.638687 
L 464.647612 440.749332 
L 464.867244 384.784555 
L 465.086876 416.719227 
L 465.306509 419.315496 
L 465.745773 388.834693 
L 465.965406 368.843988 
L 466.185038 521.419104 
L 466.40467 337.551809 
L 466.624302 347.118603 
L 466.843935 283.678361 
L 467.063567 356.263364 
L 467.283199 506.211124 
L 467.502832 287.156666 
L 467.722464 492.757618 
L 467.942096 377.182135 
L 468.161728 336.298609 
L 468.381361 414.387491 
L 468.600993 347.324894 
L 468.820625 431.597326 
L 469.040258 397.730159 
L 469.25989 338.997865 
L 469.479522 445.87587 
L 469.699154 448.641618 
L 469.918787 462.017095 
L 470.358051 327.457736 
L 470.577684 511.144273 
L 470.797316 351.432569 
L 471.016948 306.878627 
L 471.456213 489.131965 
L 471.895477 433.392344 
L 472.11511 464.938193 
L 472.334742 460.62598 
L 472.554374 355.935799 
L 472.774006 455.827835 
L 472.993639 371.915853 
L 473.213271 356.983403 
L 473.432903 387.914766 
L 473.652535 349.21284 
L 473.872168 494.594601 
L 474.311432 281.652412 
L 474.531065 422.040717 
L 474.750697 466.929598 
L 475.189961 387.590405 
L 475.409594 392.42951 
L 475.629226 353.406435 
L 475.848858 437.623772 
L 476.068491 322.48033 
L 476.288123 331.597735 
L 476.507755 406.728397 
L 476.727387 442.776133 
L 477.166652 300.97666 
L 477.605917 383.820955 
L 477.825549 314.755425 
L 478.045181 335.248355 
L 478.264813 316.205418 
L 478.92371 410.002556 
L 479.143343 349.539488 
L 479.362975 389.959292 
L 479.582607 498.62655 
L 479.802239 486.468183 
L 480.021872 389.537006 
L 480.461136 406.756708 
L 480.900401 349.511856 
L 481.339665 446.76159 
L 481.559298 458.270006 
L 481.77893 418.831565 
L 481.998562 489.119329 
L 482.437827 427.796018 
L 482.657459 519.937335 
L 482.877091 422.230106 
L 483.096724 448.803452 
L 483.316356 400.548626 
L 483.535988 471.817456 
L 483.755621 319.494767 
L 483.975253 499.071278 
L 484.194885 363.353716 
L 484.414517 529.28179 
L 484.63415 390.757064 
L 484.853782 422.458281 
L 485.073414 502.308063 
L 485.512679 455.072907 
L 485.732311 374.69072 
L 486.171576 451.16363 
L 486.391208 398.503094 
L 486.61084 400.282867 
L 486.830473 295.504173 
L 487.050105 418.009122 
L 487.269737 345.708632 
L 487.489369 399.37937 
L 487.709002 280.725807 
L 487.928634 497.459065 
L 488.148266 455.990591 
L 488.367898 441.107157 
L 488.587531 360.765046 
L 489.026795 322.32683 
L 489.246428 328.607513 
L 489.685692 444.040071 
L 489.905324 333.645109 
L 490.344589 452.75066 
L 490.564221 458.654591 
L 490.783854 453.165608 
L 491.003486 372.110688 
L 491.223118 353.202003 
L 491.44275 425.120958 
L 491.882015 387.229617 
L 492.101647 455.24191 
L 492.540912 477.009916 
L 493.199809 288.355578 
L 493.639073 427.633195 
L 494.078338 450.331671 
L 494.29797 387.791655 
L 494.517602 472.308983 
L 494.737235 465.024966 
L 494.956867 356.460508 
L 495.176499 377.277348 
L 495.396132 339.553773 
L 495.615764 417.647218 
L 495.835396 341.146616 
L 496.055028 518.991222 
L 496.494293 274.303213 
L 496.713925 378.195318 
L 496.933558 388.941867 
L 497.15319 426.006881 
L 497.372822 335.527869 
L 497.592454 407.032217 
L 497.812087 411.913092 
L 498.031719 389.358968 
L 498.251351 457.824601 
L 498.470984 351.627827 
L 498.690616 423.597356 
L 498.910248 420.632723 
L 499.12988 412.372411 
L 499.349513 417.906413 
L 499.569145 464.696204 
L 500.00841 387.010792 
L 500.228042 448.640227 
L 500.447674 384.606416 
L 500.667306 450.483355 
L 500.886939 474.389729 
L 501.106571 335.080485 
L 501.326203 355.171147 
L 501.545836 310.858129 
L 501.765468 370.060055 
L 501.9851 329.088767 
L 502.204732 436.363326 
L 502.424365 401.96879 
L 502.643997 437.411241 
L 502.863629 351.325253 
L 503.083262 463.473153 
L 503.302894 490.169948 
L 503.522526 378.302912 
L 503.742158 370.975659 
L 503.961791 380.589943 
L 504.181423 328.832749 
L 504.401055 449.742519 
L 504.620687 377.271911 
L 504.84032 431.113753 
L 505.059952 433.563276 
L 505.499217 343.549778 
L 505.718849 460.741789 
L 505.938481 367.506236 
L 506.158113 356.696235 
L 506.597378 488.719096 
L 506.81701 456.428208 
L 507.036643 448.120221 
L 507.256275 357.825997 
L 507.475907 435.327174 
L 507.695539 440.00766 
L 508.134804 275.605231 
L 508.574069 482.136468 
L 509.013333 422.202881 
L 509.232965 453.543708 
L 509.452598 449.814868 
L 509.67223 380.475562 
L 510.111495 427.279077 
L 510.331127 362.990573 
L 510.550759 390.161767 
L 510.770391 371.174543 
L 510.990024 435.042812 
L 511.209656 387.477402 
L 511.429288 488.000075 
L 511.648921 369.738975 
L 511.868553 414.945535 
L 512.088185 411.107021 
L 512.307817 411.696494 
L 512.52745 472.106309 
L 512.747082 365.335454 
L 512.966714 428.19514 
L 513.186347 433.417011 
L 513.405979 305.727067 
L 513.625611 474.824592 
L 514.064876 336.672826 
L 514.284508 482.812733 
L 514.50414 455.059592 
L 514.723773 367.419852 
L 514.943405 404.079838 
L 515.163037 371.478717 
L 515.382669 234.858791 
L 515.602302 302.512158 
L 515.821934 558.429514 
L 516.041566 357.738519 
L 516.261199 330.684105 
L 516.480831 406.486248 
L 516.700463 420.053612 
L 516.920095 347.02023 
L 517.139728 388.784262 
L 517.35936 453.237947 
L 517.578992 418.846721 
L 517.798625 496.229627 
L 518.018257 493.903304 
L 518.237889 494.418388 
L 518.457521 398.645873 
L 518.677154 412.605687 
L 518.896786 405.285176 
L 519.116418 515.346168 
L 519.33605 358.059343 
L 519.555683 454.471715 
L 519.775315 399.661614 
L 519.994947 483.762841 
L 520.21458 521.230313 
L 520.434212 362.033069 
L 520.653844 456.03337 
L 520.873476 347.296976 
L 521.093109 415.136995 
L 521.312741 356.33268 
L 521.532373 349.631869 
L 521.752006 377.039951 
L 521.971638 427.133412 
L 522.410902 407.392506 
L 522.630535 433.781811 
L 522.850167 402.042388 
L 523.069799 318.254931 
L 523.509064 416.510778 
L 523.728696 408.493408 
L 523.948328 328.818894 
L 524.167961 355.86394 
L 524.387593 366.222339 
L 524.607225 409.37648 
L 524.826858 388.136401 
L 525.04649 407.195249 
L 525.266122 458.536172 
L 525.485754 349.919209 
L 525.705387 421.219436 
L 525.925019 371.498018 
L 526.583916 435.476289 
L 526.803548 411.271512 
L 527.02318 460.400464 
L 527.242813 362.900215 
L 527.682077 407.520809 
L 527.90171 341.626179 
L 528.340974 429.234377 
L 528.560606 371.016938 
L 528.780239 412.160219 
L 528.999871 379.632422 
L 529.219503 473.528244 
L 529.439136 448.732772 
L 529.658768 331.959011 
L 529.8784 378.592597 
L 530.098032 486.613791 
L 530.317665 437.781445 
L 530.537297 428.039961 
L 530.756929 448.384724 
L 530.976562 333.499952 
L 531.196194 403.572115 
L 531.415826 404.583588 
L 531.635458 435.35093 
L 532.074723 304.628945 
L 532.294355 431.062997 
L 532.513988 357.843721 
L 532.73362 486.61301 
L 532.953252 473.428455 
L 533.172884 367.145772 
L 533.392517 461.401592 
L 533.612149 460.597396 
L 534.051413 387.150025 
L 534.271046 492.691794 
L 534.490678 343.969616 
L 534.71031 466.672862 
L 534.929943 364.694854 
L 535.149575 379.407198 
L 535.369207 426.871247 
L 535.588839 347.540301 
L 535.808472 437.528163 
L 536.028104 392.248192 
L 536.247736 482.125153 
L 536.467369 415.152348 
L 536.687001 407.302202 
L 537.126265 379.156494 
L 537.345898 370.225988 
L 537.56553 462.054139 
L 537.785162 352.821909 
L 538.004795 319.95742 
L 538.224427 471.056654 
L 538.444059 307.227626 
L 538.663691 544.122608 
L 538.883324 400.998376 
L 539.322588 449.581071 
L 539.542221 432.368185 
L 539.761853 471.217537 
L 539.981485 424.759625 
L 540.42075 433.395763 
L 540.640382 388.405053 
L 540.860014 451.762833 
L 541.079647 394.890033 
L 541.518911 504.754738 
L 541.738543 380.775012 
L 541.958176 371.094804 
L 542.177808 454.635708 
L 542.39744 430.424332 
L 542.617073 380.300041 
L 542.836705 372.704912 
L 543.056337 384.25464 
L 543.275969 376.903325 
L 543.495602 480.461028 
L 543.715234 486.309974 
L 543.934866 367.718693 
L 544.154499 358.557744 
L 544.374131 407.091799 
L 544.593763 427.488095 
L 544.813395 388.304595 
L 545.033028 432.967599 
L 545.25266 383.502883 
L 545.472292 427.98792 
L 545.911557 292.463285 
L 545.911557 292.463285 
" style="fill:none;stroke:#96c69a;stroke-linecap:round;stroke-width:3;"/>
   </g>
   <g id="line2d_2"/>
   <g id="patch_3">
    <path d="M 84.914375 602.94 
L 84.914375 109.326857 
" style="fill:none;stroke:#262626;stroke-linecap:square;stroke-linejoin:miter;stroke-width:2.5;"/>
   </g>
   <g id="patch_4">
    <path d="M 84.914375 602.94 
L 567.863804 602.94 
" style="fill:none;stroke:#262626;stroke-linecap:square;stroke-linejoin:miter;stroke-width:2.5;"/>
   </g>
   <g id="legend_1">
    <g id="patch_5">
     <path d="M 514.948179 597.94 
L 560.863804 597.94 
Q 562.863804 597.94 562.863804 595.94 
L 562.863804 554.034375 
Q 562.863804 552.034375 560.863804 552.034375 
L 514.948179 552.034375 
Q 512.948179 552.034375 512.948179 554.034375 
L 512.948179 595.94 
Q 512.948179 597.94 514.948179 597.94 
z
" style="fill:#ffffff;opacity:0.8;stroke:#cccccc;stroke-linejoin:miter;stroke-width:2;"/>
    </g>
    <g id="text_13">
     <!-- $n_\tau$ -->
     <g style="fill:#262626;" transform="translate(524.825991 574.270625)scale(0.24 -0.24)">
      <defs>
       <path d="M 3566 2113 
L 3156 0 
L 2578 0 
L 2988 2091 
Q 3016 2238 3031 2350 
Q 3047 2463 3047 2528 
Q 3047 2791 2881 2937 
Q 2716 3084 2419 3084 
Q 1956 3084 1622 2776 
Q 1288 2469 1184 1941 
L 800 0 
L 225 0 
L 903 3500 
L 1478 3500 
L 1363 2950 
Q 1603 3253 1940 3418 
Q 2278 3584 2650 3584 
Q 3113 3584 3367 3334 
Q 3622 3084 3622 2631 
Q 3622 2519 3608 2391 
Q 3594 2263 3566 2113 
z
" id="DejaVuSans-Oblique-6e" transform="scale(0.015625)"/>
       <path d="M 2103 638 
Q 2188 488 2525 488 
L 2800 488 
L 2706 0 
L 2363 0 
Q 1800 0 1600 300 
Q 1403 606 1534 1269 
L 1856 2925 
L 541 2925 
L 653 3500 
L 3881 3500 
L 3769 2925 
L 2444 2925 
L 2113 1234 
Q 2025 781 2103 638 
z
" id="DejaVuSans-Oblique-3c4" transform="scale(0.015625)"/>
      </defs>
      <use xlink:href="#DejaVuSans-Oblique-6e"/>
      <use transform="translate(63.378906 -16.40625)scale(0.7)" xlink:href="#DejaVuSans-Oblique-3c4"/>
     </g>
    </g>
    <g id="line2d_3">
     <path d="M 516.948179 588.360312 
L 536.948179 588.360312 
" style="fill:none;stroke:#96c69a;stroke-linecap:round;stroke-width:3;"/>
    </g>
    <g id="line2d_4"/>
    <g id="text_14">
     <!-- 20 -->
     <g style="fill:#262626;" transform="translate(544.948179 591.860312)scale(0.1 -0.1)">
      <defs>
       <path d="M 1844 884 
L 3897 884 
L 3897 0 
L 506 0 
L 506 884 
L 2209 2388 
Q 2438 2594 2547 2791 
Q 2656 2988 2656 3200 
Q 2656 3528 2436 3728 
Q 2216 3928 1850 3928 
Q 1569 3928 1234 3808 
Q 900 3688 519 3450 
L 519 4475 
Q 925 4609 1322 4679 
Q 1719 4750 2100 4750 
Q 2938 4750 3402 4381 
Q 3866 4013 3866 3353 
Q 3866 2972 3669 2642 
Q 3472 2313 2841 1759 
L 1844 884 
z
" id="DejaVuSans-Bold-32" transform="scale(0.015625)"/>
       <path d="M 2944 2338 
Q 2944 3213 2780 3570 
Q 2616 3928 2228 3928 
Q 1841 3928 1675 3570 
Q 1509 3213 1509 2338 
Q 1509 1453 1675 1090 
Q 1841 728 2228 728 
Q 2613 728 2778 1090 
Q 2944 1453 2944 2338 
z
M 4147 2328 
Q 4147 1169 3647 539 
Q 3147 -91 2228 -91 
Q 1306 -91 806 539 
Q 306 1169 306 2328 
Q 306 3491 806 4120 
Q 1306 4750 2228 4750 
Q 3147 4750 3647 4120 
Q 4147 3491 4147 2328 
z
" id="DejaVuSans-Bold-30" transform="scale(0.015625)"/>
      </defs>
      <use xlink:href="#DejaVuSans-Bold-32"/>
      <use x="69.580078" xlink:href="#DejaVuSans-Bold-30"/>
     </g>
    </g>
   </g>
  </g>
  <g id="axes_2">
   <g id="patch_6">
    <path d="M 84.914375 92.305714 
L 567.863804 92.305714 
L 567.863804 7.2 
L 84.914375 7.2 
z
" style="fill:none;"/>
   </g>
   <g id="matplotlib.axis_3">
    <g id="xtick_7"/>
    <g id="xtick_8"/>
    <g id="xtick_9"/>
    <g id="xtick_10"/>
    <g id="xtick_11"/>
    <g id="xtick_12"/>
   </g>
   <g id="matplotlib.axis_4">
    <g id="ytick_5">
     <g id="text_15">
      <!-- 0 -->
      <g style="fill:#262626;" transform="translate(55.416875 100.663996)scale(0.22 -0.22)">
       <use xlink:href="#DejaVuSans-30"/>
      </g>
     </g>
    </g>
    <g id="ytick_6">
     <g id="text_16">
      <!-- 100 -->
      <g style="fill:#262626;" transform="translate(27.421875 48.032138)scale(0.22 -0.22)">
       <use xlink:href="#DejaVuSans-31"/>
       <use x="63.623047" xlink:href="#DejaVuSans-30"/>
       <use x="127.246094" xlink:href="#DejaVuSans-30"/>
      </g>
     </g>
    </g>
   </g>
   <g id="patch_7">
    <path clip-path="url(#p0cc619f492)" d="M 106.866622 92.305714 
L 140.639309 92.305714 
L 140.639309 11.252653 
L 106.866622 11.252653 
z
" style="fill:#96c69a;fill-opacity:0.5;stroke:#ffffff;stroke-linejoin:miter;stroke-width:2;"/>
   </g>
   <g id="patch_8">
    <path clip-path="url(#p0cc619f492)" d="M 140.639309 92.305714 
L 174.411996 92.305714 
L 174.411996 11.252653 
L 140.639309 11.252653 
z
" style="fill:#96c69a;fill-opacity:0.5;stroke:#ffffff;stroke-linejoin:miter;stroke-width:2;"/>
   </g>
   <g id="patch_9">
    <path clip-path="url(#p0cc619f492)" d="M 174.411996 92.305714 
L 208.184684 92.305714 
L 208.184684 11.252653 
L 174.411996 11.252653 
z
" style="fill:#96c69a;fill-opacity:0.5;stroke:#ffffff;stroke-linejoin:miter;stroke-width:2;"/>
   </g>
   <g id="patch_10">
    <path clip-path="url(#p0cc619f492)" d="M 208.184684 92.305714 
L 241.957371 92.305714 
L 241.957371 11.252653 
L 208.184684 11.252653 
z
" style="fill:#96c69a;fill-opacity:0.5;stroke:#ffffff;stroke-linejoin:miter;stroke-width:2;"/>
   </g>
   <g id="patch_11">
    <path clip-path="url(#p0cc619f492)" d="M 241.957371 92.305714 
L 275.730058 92.305714 
L 275.730058 11.778972 
L 241.957371 11.778972 
z
" style="fill:#96c69a;fill-opacity:0.5;stroke:#ffffff;stroke-linejoin:miter;stroke-width:2;"/>
   </g>
   <g id="patch_12">
    <path clip-path="url(#p0cc619f492)" d="M 275.730058 92.305714 
L 309.502746 92.305714 
L 309.502746 11.252653 
L 275.730058 11.252653 
z
" style="fill:#96c69a;fill-opacity:0.5;stroke:#ffffff;stroke-linejoin:miter;stroke-width:2;"/>
   </g>
   <g id="patch_13">
    <path clip-path="url(#p0cc619f492)" d="M 309.502746 92.305714 
L 343.275433 92.305714 
L 343.275433 11.252653 
L 309.502746 11.252653 
z
" style="fill:#96c69a;fill-opacity:0.5;stroke:#ffffff;stroke-linejoin:miter;stroke-width:2;"/>
   </g>
   <g id="patch_14">
    <path clip-path="url(#p0cc619f492)" d="M 343.275433 92.305714 
L 377.04812 92.305714 
L 377.04812 11.252653 
L 343.275433 11.252653 
z
" style="fill:#96c69a;fill-opacity:0.5;stroke:#ffffff;stroke-linejoin:miter;stroke-width:2;"/>
   </g>
   <g id="patch_15">
    <path clip-path="url(#p0cc619f492)" d="M 377.04812 92.305714 
L 410.820808 92.305714 
L 410.820808 11.778972 
L 377.04812 11.778972 
z
" style="fill:#96c69a;fill-opacity:0.5;stroke:#ffffff;stroke-linejoin:miter;stroke-width:2;"/>
   </g>
   <g id="patch_16">
    <path clip-path="url(#p0cc619f492)" d="M 410.820808 92.305714 
L 444.593495 92.305714 
L 444.593495 11.252653 
L 410.820808 11.252653 
z
" style="fill:#96c69a;fill-opacity:0.5;stroke:#ffffff;stroke-linejoin:miter;stroke-width:2;"/>
   </g>
   <g id="patch_17">
    <path clip-path="url(#p0cc619f492)" d="M 444.593495 92.305714 
L 478.366182 92.305714 
L 478.366182 11.252653 
L 444.593495 11.252653 
z
" style="fill:#96c69a;fill-opacity:0.5;stroke:#ffffff;stroke-linejoin:miter;stroke-width:2;"/>
   </g>
   <g id="patch_18">
    <path clip-path="url(#p0cc619f492)" d="M 478.366182 92.305714 
L 512.13887 92.305714 
L 512.13887 11.252653 
L 478.366182 11.252653 
z
" style="fill:#96c69a;fill-opacity:0.5;stroke:#ffffff;stroke-linejoin:miter;stroke-width:2;"/>
   </g>
   <g id="patch_19">
    <path clip-path="url(#p0cc619f492)" d="M 512.13887 92.305714 
L 545.911557 92.305714 
L 545.911557 11.252653 
L 512.13887 11.252653 
z
" style="fill:#96c69a;fill-opacity:0.5;stroke:#ffffff;stroke-linejoin:miter;stroke-width:2;"/>
   </g>
   <g id="patch_20">
    <path d="M 84.914375 92.305714 
L 84.914375 7.2 
" style="fill:none;stroke:#262626;stroke-linecap:square;stroke-linejoin:miter;stroke-width:2.5;"/>
   </g>
   <g id="patch_21">
    <path d="M 84.914375 92.305714 
L 567.863804 92.305714 
" style="fill:none;stroke:#262626;stroke-linecap:square;stroke-linejoin:miter;stroke-width:2.5;"/>
   </g>
  </g>
  <g id="axes_3">
   <g id="patch_22">
    <path d="M 584.517232 602.94 
L 667.784375 602.94 
L 667.784375 109.326857 
L 584.517232 109.326857 
z
" style="fill:none;"/>
   </g>
   <g id="matplotlib.axis_5">
    <g id="xtick_13">
     <g id="text_17">
      <!-- 0 -->
      <g style="fill:#262626;" transform="translate(577.518482 635.156562)scale(0.22 -0.22)">
       <use xlink:href="#DejaVuSans-30"/>
      </g>
     </g>
    </g>
    <g id="xtick_14">
     <g id="text_18">
      <!-- 200 -->
      <g style="fill:#262626;" transform="translate(637.635039 635.156562)scale(0.22 -0.22)">
       <use xlink:href="#DejaVuSans-32"/>
       <use x="63.623047" xlink:href="#DejaVuSans-30"/>
       <use x="127.246094" xlink:href="#DejaVuSans-30"/>
      </g>
     </g>
    </g>
   </g>
   <g id="matplotlib.axis_6">
    <g id="ytick_7"/>
    <g id="ytick_8"/>
    <g id="ytick_9"/>
    <g id="ytick_10"/>
   </g>
   <g id="patch_23">
    <path clip-path="url(#p41163cf06c)" d="M 584.517232 580.503039 
L 584.887802 580.503039 
L 584.887802 568.374952 
L 584.517232 568.374952 
z
" style="fill:#96c69a;fill-opacity:0.5;stroke:#ffffff;stroke-linejoin:miter;stroke-width:1.212809;"/>
   </g>
   <g id="patch_24">
    <path clip-path="url(#p41163cf06c)" d="M 584.517232 568.374952 
L 585.628943 568.374952 
L 585.628943 556.246865 
L 584.517232 556.246865 
z
" style="fill:#96c69a;fill-opacity:0.5;stroke:#ffffff;stroke-linejoin:miter;stroke-width:1.212809;"/>
   </g>
   <g id="patch_25">
    <path clip-path="url(#p41163cf06c)" d="M 584.517232 556.246865 
L 585.628943 556.246865 
L 585.628943 544.118778 
L 584.517232 544.118778 
z
" style="fill:#96c69a;fill-opacity:0.5;stroke:#ffffff;stroke-linejoin:miter;stroke-width:1.212809;"/>
   </g>
   <g id="patch_26">
    <path clip-path="url(#p41163cf06c)" d="M 584.517232 544.118778 
L 586.740654 544.118778 
L 586.740654 531.990691 
L 584.517232 531.990691 
z
" style="fill:#96c69a;fill-opacity:0.5;stroke:#ffffff;stroke-linejoin:miter;stroke-width:1.212809;"/>
   </g>
   <g id="patch_27">
    <path clip-path="url(#p41163cf06c)" d="M 584.517232 531.990691 
L 590.816927 531.990691 
L 590.816927 519.862604 
L 584.517232 519.862604 
z
" style="fill:#96c69a;fill-opacity:0.5;stroke:#ffffff;stroke-linejoin:miter;stroke-width:1.212809;"/>
   </g>
   <g id="patch_28">
    <path clip-path="url(#p41163cf06c)" d="M 584.517232 519.862604 
L 593.781489 519.862604 
L 593.781489 507.734517 
L 584.517232 507.734517 
z
" style="fill:#96c69a;fill-opacity:0.5;stroke:#ffffff;stroke-linejoin:miter;stroke-width:1.212809;"/>
   </g>
   <g id="patch_29">
    <path clip-path="url(#p41163cf06c)" d="M 584.517232 507.734517 
L 595.26377 507.734517 
L 595.26377 495.60643 
L 584.517232 495.60643 
z
" style="fill:#96c69a;fill-opacity:0.5;stroke:#ffffff;stroke-linejoin:miter;stroke-width:1.212809;"/>
   </g>
   <g id="patch_30">
    <path clip-path="url(#p41163cf06c)" d="M 584.517232 495.60643 
L 604.157457 495.60643 
L 604.157457 483.478343 
L 584.517232 483.478343 
z
" style="fill:#96c69a;fill-opacity:0.5;stroke:#ffffff;stroke-linejoin:miter;stroke-width:1.212809;"/>
   </g>
   <g id="patch_31">
    <path clip-path="url(#p41163cf06c)" d="M 584.517232 483.478343 
L 615.645136 483.478343 
L 615.645136 471.350256 
L 584.517232 471.350256 
z
" style="fill:#96c69a;fill-opacity:0.5;stroke:#ffffff;stroke-linejoin:miter;stroke-width:1.212809;"/>
   </g>
   <g id="patch_32">
    <path clip-path="url(#p41163cf06c)" d="M 584.517232 471.350256 
L 620.83312 471.350256 
L 620.83312 459.222168 
L 584.517232 459.222168 
z
" style="fill:#96c69a;fill-opacity:0.5;stroke:#ffffff;stroke-linejoin:miter;stroke-width:1.212809;"/>
   </g>
   <g id="patch_33">
    <path clip-path="url(#p41163cf06c)" d="M 584.517232 459.222168 
L 641.214486 459.222168 
L 641.214486 447.094081 
L 584.517232 447.094081 
z
" style="fill:#96c69a;fill-opacity:0.5;stroke:#ffffff;stroke-linejoin:miter;stroke-width:1.212809;"/>
   </g>
   <g id="patch_34">
    <path clip-path="url(#p41163cf06c)" d="M 584.517232 447.094081 
L 632.691369 447.094081 
L 632.691369 434.965994 
L 584.517232 434.965994 
z
" style="fill:#96c69a;fill-opacity:0.5;stroke:#ffffff;stroke-linejoin:miter;stroke-width:1.212809;"/>
   </g>
   <g id="patch_35">
    <path clip-path="url(#p41163cf06c)" d="M 584.517232 434.965994 
L 646.031899 434.965994 
L 646.031899 422.837907 
L 584.517232 422.837907 
z
" style="fill:#96c69a;fill-opacity:0.5;stroke:#ffffff;stroke-linejoin:miter;stroke-width:1.212809;"/>
   </g>
   <g id="patch_36">
    <path clip-path="url(#p41163cf06c)" d="M 584.517232 422.837907 
L 663.819273 422.837907 
L 663.819273 410.70982 
L 584.517232 410.70982 
z
" style="fill:#96c69a;fill-opacity:0.5;stroke:#ffffff;stroke-linejoin:miter;stroke-width:1.212809;"/>
   </g>
   <g id="patch_37">
    <path clip-path="url(#p41163cf06c)" d="M 584.517232 410.70982 
L 644.920188 410.70982 
L 644.920188 398.581733 
L 584.517232 398.581733 
z
" style="fill:#96c69a;fill-opacity:0.5;stroke:#ffffff;stroke-linejoin:miter;stroke-width:1.212809;"/>
   </g>
   <g id="patch_38">
    <path clip-path="url(#p41163cf06c)" d="M 584.517232 398.581733 
L 638.620494 398.581733 
L 638.620494 386.453646 
L 584.517232 386.453646 
z
" style="fill:#96c69a;fill-opacity:0.5;stroke:#ffffff;stroke-linejoin:miter;stroke-width:1.212809;"/>
   </g>
   <g id="patch_39">
    <path clip-path="url(#p41163cf06c)" d="M 584.517232 386.453646 
L 634.17365 386.453646 
L 634.17365 374.325559 
L 584.517232 374.325559 
z
" style="fill:#96c69a;fill-opacity:0.5;stroke:#ffffff;stroke-linejoin:miter;stroke-width:1.212809;"/>
   </g>
   <g id="patch_40">
    <path clip-path="url(#p41163cf06c)" d="M 584.517232 374.325559 
L 634.914791 374.325559 
L 634.914791 362.197472 
L 584.517232 362.197472 
z
" style="fill:#96c69a;fill-opacity:0.5;stroke:#ffffff;stroke-linejoin:miter;stroke-width:1.212809;"/>
   </g>
   <g id="patch_41">
    <path clip-path="url(#p41163cf06c)" d="M 584.517232 362.197472 
L 627.132815 362.197472 
L 627.132815 350.069385 
L 584.517232 350.069385 
z
" style="fill:#96c69a;fill-opacity:0.5;stroke:#ffffff;stroke-linejoin:miter;stroke-width:1.212809;"/>
   </g>
   <g id="patch_42">
    <path clip-path="url(#p41163cf06c)" d="M 584.517232 350.069385 
L 622.315401 350.069385 
L 622.315401 337.941298 
L 584.517232 337.941298 
z
" style="fill:#96c69a;fill-opacity:0.5;stroke:#ffffff;stroke-linejoin:miter;stroke-width:1.212809;"/>
   </g>
   <g id="patch_43">
    <path clip-path="url(#p41163cf06c)" d="M 584.517232 337.941298 
L 607.49259 337.941298 
L 607.49259 325.813211 
L 584.517232 325.813211 
z
" style="fill:#96c69a;fill-opacity:0.5;stroke:#ffffff;stroke-linejoin:miter;stroke-width:1.212809;"/>
   </g>
   <g id="patch_44">
    <path clip-path="url(#p41163cf06c)" d="M 584.517232 325.813211 
L 604.157457 325.813211 
L 604.157457 313.685124 
L 584.517232 313.685124 
z
" style="fill:#96c69a;fill-opacity:0.5;stroke:#ffffff;stroke-linejoin:miter;stroke-width:1.212809;"/>
   </g>
   <g id="patch_45">
    <path clip-path="url(#p41163cf06c)" d="M 584.517232 313.685124 
L 597.487192 313.685124 
L 597.487192 301.557037 
L 584.517232 301.557037 
z
" style="fill:#96c69a;fill-opacity:0.5;stroke:#ffffff;stroke-linejoin:miter;stroke-width:1.212809;"/>
   </g>
   <g id="patch_46">
    <path clip-path="url(#p41163cf06c)" d="M 584.517232 301.557037 
L 594.8932 301.557037 
L 594.8932 289.42895 
L 584.517232 289.42895 
z
" style="fill:#96c69a;fill-opacity:0.5;stroke:#ffffff;stroke-linejoin:miter;stroke-width:1.212809;"/>
   </g>
   <g id="patch_47">
    <path clip-path="url(#p41163cf06c)" d="M 584.517232 289.42895 
L 592.299208 289.42895 
L 592.299208 277.300863 
L 584.517232 277.300863 
z
" style="fill:#96c69a;fill-opacity:0.5;stroke:#ffffff;stroke-linejoin:miter;stroke-width:1.212809;"/>
   </g>
   <g id="patch_48">
    <path clip-path="url(#p41163cf06c)" d="M 584.517232 277.300863 
L 588.222935 277.300863 
L 588.222935 265.172776 
L 584.517232 265.172776 
z
" style="fill:#96c69a;fill-opacity:0.5;stroke:#ffffff;stroke-linejoin:miter;stroke-width:1.212809;"/>
   </g>
   <g id="patch_49">
    <path clip-path="url(#p41163cf06c)" d="M 584.517232 265.172776 
L 585.628943 265.172776 
L 585.628943 253.044689 
L 584.517232 253.044689 
z
" style="fill:#96c69a;fill-opacity:0.5;stroke:#ffffff;stroke-linejoin:miter;stroke-width:1.212809;"/>
   </g>
   <g id="patch_50">
    <path clip-path="url(#p41163cf06c)" d="M 584.517232 253.044689 
L 585.628943 253.044689 
L 585.628943 240.916602 
L 584.517232 240.916602 
z
" style="fill:#96c69a;fill-opacity:0.5;stroke:#ffffff;stroke-linejoin:miter;stroke-width:1.212809;"/>
   </g>
   <g id="patch_51">
    <path clip-path="url(#p41163cf06c)" d="M 584.517232 240.916602 
L 585.999513 240.916602 
L 585.999513 228.788515 
L 584.517232 228.788515 
z
" style="fill:#96c69a;fill-opacity:0.5;stroke:#ffffff;stroke-linejoin:miter;stroke-width:1.212809;"/>
   </g>
   <g id="patch_52">
    <path clip-path="url(#p41163cf06c)" d="M 584.517232 228.788515 
L 584.517232 228.788515 
L 584.517232 216.660428 
L 584.517232 216.660428 
z
" style="fill:#96c69a;fill-opacity:0.5;stroke:#ffffff;stroke-linejoin:miter;stroke-width:1.212809;"/>
   </g>
   <g id="patch_53">
    <path clip-path="url(#p41163cf06c)" d="M 584.517232 216.660428 
L 584.517232 216.660428 
L 584.517232 204.53234 
L 584.517232 204.53234 
z
" style="fill:#96c69a;fill-opacity:0.5;stroke:#ffffff;stroke-linejoin:miter;stroke-width:1.212809;"/>
   </g>
   <g id="patch_54">
    <path clip-path="url(#p41163cf06c)" d="M 584.517232 204.53234 
L 585.258373 204.53234 
L 585.258373 192.404253 
L 584.517232 192.404253 
z
" style="fill:#96c69a;fill-opacity:0.5;stroke:#ffffff;stroke-linejoin:miter;stroke-width:1.212809;"/>
   </g>
   <g id="patch_55">
    <path clip-path="url(#p41163cf06c)" d="M 584.517232 192.404253 
L 584.517232 192.404253 
L 584.517232 180.276166 
L 584.517232 180.276166 
z
" style="fill:#96c69a;fill-opacity:0.5;stroke:#ffffff;stroke-linejoin:miter;stroke-width:1.212809;"/>
   </g>
   <g id="patch_56">
    <path clip-path="url(#p41163cf06c)" d="M 584.517232 180.276166 
L 584.517232 180.276166 
L 584.517232 168.148079 
L 584.517232 168.148079 
z
" style="fill:#96c69a;fill-opacity:0.5;stroke:#ffffff;stroke-linejoin:miter;stroke-width:1.212809;"/>
   </g>
   <g id="patch_57">
    <path clip-path="url(#p41163cf06c)" d="M 584.517232 168.148079 
L 584.517232 168.148079 
L 584.517232 156.019992 
L 584.517232 156.019992 
z
" style="fill:#96c69a;fill-opacity:0.5;stroke:#ffffff;stroke-linejoin:miter;stroke-width:1.212809;"/>
   </g>
   <g id="patch_58">
    <path clip-path="url(#p41163cf06c)" d="M 584.517232 156.019992 
L 584.517232 156.019992 
L 584.517232 143.891905 
L 584.517232 143.891905 
z
" style="fill:#96c69a;fill-opacity:0.5;stroke:#ffffff;stroke-linejoin:miter;stroke-width:1.212809;"/>
   </g>
   <g id="patch_59">
    <path clip-path="url(#p41163cf06c)" d="M 584.517232 143.891905 
L 584.887802 143.891905 
L 584.887802 131.763818 
L 584.517232 131.763818 
z
" style="fill:#96c69a;fill-opacity:0.5;stroke:#ffffff;stroke-linejoin:miter;stroke-width:1.212809;"/>
   </g>
   <g id="patch_60">
    <path d="M 584.517232 602.94 
L 584.517232 109.326857 
" style="fill:none;stroke:#262626;stroke-linecap:square;stroke-linejoin:miter;stroke-width:2.5;"/>
   </g>
   <g id="patch_61">
    <path d="M 584.517232 602.94 
L 667.784375 602.94 
" style="fill:none;stroke:#262626;stroke-linecap:square;stroke-linejoin:miter;stroke-width:2.5;"/>
   </g>
  </g>
 </g>
 <defs>
  <clipPath id="pb6c42709ea">
   <rect height="493.613143" width="482.949429" x="84.914375" y="109.326857"/>
  </clipPath>
  <clipPath id="p0cc619f492">
   <rect height="85.105714" width="482.949429" x="84.914375" y="7.2"/>
  </clipPath>
  <clipPath id="p41163cf06c">
   <rect height="493.613143" width="83.267143" x="584.517232" y="109.326857"/>
  </clipPath>
 </defs>
</svg>
