<?xml version="1.0" encoding="utf-8" standalone="no"?>
<!DOCTYPE svg PUBLIC "-//W3C//DTD SVG 1.1//EN"
  "http://www.w3.org/Graphics/SVG/1.1/DTD/svg11.dtd">
<svg height="674.159375pt" version="1.1" viewBox="0 0 692.816554 674.159375" width="692.816554pt" xmlns="http://www.w3.org/2000/svg" xmlns:xlink="http://www.w3.org/1999/xlink">
 <metadata>
  <rdf:RDF xmlns:cc="http://creativecommons.org/ns#" xmlns:dc="http://purl.org/dc/elements/1.1/" xmlns:rdf="http://www.w3.org/1999/02/22-rdf-syntax-ns#">
   <cc:Work>
    <dc:type rdf:resource="http://purl.org/dc/dcmitype/StillImage"/>
    <dc:date>2021-07-24T14:50:38.474358</dc:date>
    <dc:format>image/svg+xml</dc:format>
    <dc:creator>
     <cc:Agent>
      <dc:title>Matplotlib v3.4.2, https://matplotlib.org/</dc:title>
     </cc:Agent>
    </dc:creator>
   </cc:Work>
  </rdf:RDF>
 </metadata>
 <defs>
  <style type="text/css">*{stroke-linecap:butt;stroke-linejoin:round;}</style>
 </defs>
 <g id="figure_1">
  <g id="patch_1">
   <path d="M 0 674.159375 
L 692.816554 674.159375 
L 692.816554 0 
L 0 0 
z
" style="fill:#ffffff;"/>
  </g>
  <g id="axes_1">
   <g id="patch_2">
    <path d="M 84.914375 602.94 
L 567.863804 602.94 
L 567.863804 109.326857 
L 84.914375 109.326857 
z
" style="fill:none;"/>
   </g>
   <g id="matplotlib.axis_1">
    <g id="xtick_1">
     <g id="text_1">
      <!-- 0 -->
      <g style="fill:#262626;" transform="translate(99.723875 635.156562)scale(0.22 -0.22)">
       <defs>
        <path d="M 2034 4250 
Q 1547 4250 1301 3770 
Q 1056 3291 1056 2328 
Q 1056 1369 1301 889 
Q 1547 409 2034 409 
Q 2525 409 2770 889 
Q 3016 1369 3016 2328 
Q 3016 3291 2770 3770 
Q 2525 4250 2034 4250 
z
M 2034 4750 
Q 2819 4750 3233 4129 
Q 3647 3509 3647 2328 
Q 3647 1150 3233 529 
Q 2819 -91 2034 -91 
Q 1250 -91 836 529 
Q 422 1150 422 2328 
Q 422 3509 836 4129 
Q 1250 4750 2034 4750 
z
" id="DejaVuSans-30" transform="scale(0.015625)"/>
       </defs>
       <use xlink:href="#DejaVuSans-30"/>
      </g>
     </g>
    </g>
    <g id="xtick_2">
     <g id="text_2">
      <!-- 5000 -->
      <g style="fill:#262626;" transform="translate(150.725811 635.156562)scale(0.22 -0.22)">
       <defs>
        <path d="M 691 4666 
L 3169 4666 
L 3169 4134 
L 1269 4134 
L 1269 2991 
Q 1406 3038 1543 3061 
Q 1681 3084 1819 3084 
Q 2600 3084 3056 2656 
Q 3513 2228 3513 1497 
Q 3513 744 3044 326 
Q 2575 -91 1722 -91 
Q 1428 -91 1123 -41 
Q 819 9 494 109 
L 494 744 
Q 775 591 1075 516 
Q 1375 441 1709 441 
Q 2250 441 2565 725 
Q 2881 1009 2881 1497 
Q 2881 1984 2565 2268 
Q 2250 2553 1709 2553 
Q 1456 2553 1204 2497 
Q 953 2441 691 2322 
L 691 4666 
z
" id="DejaVuSans-35" transform="scale(0.015625)"/>
       </defs>
       <use xlink:href="#DejaVuSans-35"/>
       <use x="63.623047" xlink:href="#DejaVuSans-30"/>
       <use x="127.246094" xlink:href="#DejaVuSans-30"/>
       <use x="190.869141" xlink:href="#DejaVuSans-30"/>
      </g>
     </g>
    </g>
    <g id="xtick_3">
     <g id="text_3">
      <!-- 10000 -->
      <g style="fill:#262626;" transform="translate(215.725246 635.156562)scale(0.22 -0.22)">
       <defs>
        <path d="M 794 531 
L 1825 531 
L 1825 4091 
L 703 3866 
L 703 4441 
L 1819 4666 
L 2450 4666 
L 2450 531 
L 3481 531 
L 3481 0 
L 794 0 
L 794 531 
z
" id="DejaVuSans-31" transform="scale(0.015625)"/>
       </defs>
       <use xlink:href="#DejaVuSans-31"/>
       <use x="63.623047" xlink:href="#DejaVuSans-30"/>
       <use x="127.246094" xlink:href="#DejaVuSans-30"/>
       <use x="190.869141" xlink:href="#DejaVuSans-30"/>
       <use x="254.492188" xlink:href="#DejaVuSans-30"/>
      </g>
     </g>
    </g>
    <g id="xtick_4">
     <g id="text_4">
      <!-- 15000 -->
      <g style="fill:#262626;" transform="translate(287.723432 635.156562)scale(0.22 -0.22)">
       <use xlink:href="#DejaVuSans-31"/>
       <use x="63.623047" xlink:href="#DejaVuSans-35"/>
       <use x="127.246094" xlink:href="#DejaVuSans-30"/>
       <use x="190.869141" xlink:href="#DejaVuSans-30"/>
       <use x="254.492188" xlink:href="#DejaVuSans-30"/>
      </g>
     </g>
    </g>
    <g id="xtick_5">
     <g id="text_5">
      <!-- 20000 -->
      <g style="fill:#262626;" transform="translate(359.721617 635.156562)scale(0.22 -0.22)">
       <defs>
        <path d="M 1228 531 
L 3431 531 
L 3431 0 
L 469 0 
L 469 531 
Q 828 903 1448 1529 
Q 2069 2156 2228 2338 
Q 2531 2678 2651 2914 
Q 2772 3150 2772 3378 
Q 2772 3750 2511 3984 
Q 2250 4219 1831 4219 
Q 1534 4219 1204 4116 
Q 875 4013 500 3803 
L 500 4441 
Q 881 4594 1212 4672 
Q 1544 4750 1819 4750 
Q 2544 4750 2975 4387 
Q 3406 4025 3406 3419 
Q 3406 3131 3298 2873 
Q 3191 2616 2906 2266 
Q 2828 2175 2409 1742 
Q 1991 1309 1228 531 
z
" id="DejaVuSans-32" transform="scale(0.015625)"/>
       </defs>
       <use xlink:href="#DejaVuSans-32"/>
       <use x="63.623047" xlink:href="#DejaVuSans-30"/>
       <use x="127.246094" xlink:href="#DejaVuSans-30"/>
       <use x="190.869141" xlink:href="#DejaVuSans-30"/>
       <use x="254.492188" xlink:href="#DejaVuSans-30"/>
      </g>
     </g>
    </g>
    <g id="xtick_6">
     <g id="text_6">
      <!-- 25000 -->
      <g style="fill:#262626;" transform="translate(431.719803 635.156562)scale(0.22 -0.22)">
       <use xlink:href="#DejaVuSans-32"/>
       <use x="63.623047" xlink:href="#DejaVuSans-35"/>
       <use x="127.246094" xlink:href="#DejaVuSans-30"/>
       <use x="190.869141" xlink:href="#DejaVuSans-30"/>
       <use x="254.492188" xlink:href="#DejaVuSans-30"/>
      </g>
     </g>
    </g>
    <g id="xtick_7">
     <g id="text_7">
      <!-- 30000 -->
      <g style="fill:#262626;" transform="translate(503.717988 635.156562)scale(0.22 -0.22)">
       <defs>
        <path d="M 2597 2516 
Q 3050 2419 3304 2112 
Q 3559 1806 3559 1356 
Q 3559 666 3084 287 
Q 2609 -91 1734 -91 
Q 1441 -91 1130 -33 
Q 819 25 488 141 
L 488 750 
Q 750 597 1062 519 
Q 1375 441 1716 441 
Q 2309 441 2620 675 
Q 2931 909 2931 1356 
Q 2931 1769 2642 2001 
Q 2353 2234 1838 2234 
L 1294 2234 
L 1294 2753 
L 1863 2753 
Q 2328 2753 2575 2939 
Q 2822 3125 2822 3475 
Q 2822 3834 2567 4026 
Q 2313 4219 1838 4219 
Q 1578 4219 1281 4162 
Q 984 4106 628 3988 
L 628 4550 
Q 988 4650 1302 4700 
Q 1616 4750 1894 4750 
Q 2613 4750 3031 4423 
Q 3450 4097 3450 3541 
Q 3450 3153 3228 2886 
Q 3006 2619 2597 2516 
z
" id="DejaVuSans-33" transform="scale(0.015625)"/>
       </defs>
       <use xlink:href="#DejaVuSans-33"/>
       <use x="63.623047" xlink:href="#DejaVuSans-30"/>
       <use x="127.246094" xlink:href="#DejaVuSans-30"/>
       <use x="190.869141" xlink:href="#DejaVuSans-30"/>
       <use x="254.492188" xlink:href="#DejaVuSans-30"/>
      </g>
     </g>
    </g>
    <g id="text_8">
     <!-- MDTU -->
     <g style="fill:#262626;" transform="translate(290.683464 661.968125)scale(0.24 -0.24)">
      <defs>
       <path d="M 628 4666 
L 1569 4666 
L 2759 1491 
L 3956 4666 
L 4897 4666 
L 4897 0 
L 4281 0 
L 4281 4097 
L 3078 897 
L 2444 897 
L 1241 4097 
L 1241 0 
L 628 0 
L 628 4666 
z
" id="DejaVuSans-4d" transform="scale(0.015625)"/>
       <path d="M 1259 4147 
L 1259 519 
L 2022 519 
Q 2988 519 3436 956 
Q 3884 1394 3884 2338 
Q 3884 3275 3436 3711 
Q 2988 4147 2022 4147 
L 1259 4147 
z
M 628 4666 
L 1925 4666 
Q 3281 4666 3915 4102 
Q 4550 3538 4550 2338 
Q 4550 1131 3912 565 
Q 3275 0 1925 0 
L 628 0 
L 628 4666 
z
" id="DejaVuSans-44" transform="scale(0.015625)"/>
       <path d="M -19 4666 
L 3928 4666 
L 3928 4134 
L 2272 4134 
L 2272 0 
L 1638 0 
L 1638 4134 
L -19 4134 
L -19 4666 
z
" id="DejaVuSans-54" transform="scale(0.015625)"/>
       <path d="M 556 4666 
L 1191 4666 
L 1191 1831 
Q 1191 1081 1462 751 
Q 1734 422 2344 422 
Q 2950 422 3222 751 
Q 3494 1081 3494 1831 
L 3494 4666 
L 4128 4666 
L 4128 1753 
Q 4128 841 3676 375 
Q 3225 -91 2344 -91 
Q 1459 -91 1007 375 
Q 556 841 556 1753 
L 556 4666 
z
" id="DejaVuSans-55" transform="scale(0.015625)"/>
      </defs>
      <use xlink:href="#DejaVuSans-4d"/>
      <use x="86.279297" xlink:href="#DejaVuSans-44"/>
      <use x="163.28125" xlink:href="#DejaVuSans-54"/>
      <use x="224.365234" xlink:href="#DejaVuSans-55"/>
     </g>
    </g>
   </g>
   <g id="matplotlib.axis_2">
    <g id="ytick_1">
     <g id="text_9">
      <!-- 0.6 -->
      <g style="fill:#262626;" transform="translate(34.4275 581.020959)scale(0.22 -0.22)">
       <defs>
        <path d="M 684 794 
L 1344 794 
L 1344 0 
L 684 0 
L 684 794 
z
" id="DejaVuSans-2e" transform="scale(0.015625)"/>
        <path d="M 2113 2584 
Q 1688 2584 1439 2293 
Q 1191 2003 1191 1497 
Q 1191 994 1439 701 
Q 1688 409 2113 409 
Q 2538 409 2786 701 
Q 3034 994 3034 1497 
Q 3034 2003 2786 2293 
Q 2538 2584 2113 2584 
z
M 3366 4563 
L 3366 3988 
Q 3128 4100 2886 4159 
Q 2644 4219 2406 4219 
Q 1781 4219 1451 3797 
Q 1122 3375 1075 2522 
Q 1259 2794 1537 2939 
Q 1816 3084 2150 3084 
Q 2853 3084 3261 2657 
Q 3669 2231 3669 1497 
Q 3669 778 3244 343 
Q 2819 -91 2113 -91 
Q 1303 -91 875 529 
Q 447 1150 447 2328 
Q 447 3434 972 4092 
Q 1497 4750 2381 4750 
Q 2619 4750 2861 4703 
Q 3103 4656 3366 4563 
z
" id="DejaVuSans-36" transform="scale(0.015625)"/>
       </defs>
       <use xlink:href="#DejaVuSans-30"/>
       <use x="63.623047" xlink:href="#DejaVuSans-2e"/>
       <use x="95.410156" xlink:href="#DejaVuSans-36"/>
      </g>
     </g>
    </g>
    <g id="ytick_2">
     <g id="text_10">
      <!-- 0.8 -->
      <g style="fill:#262626;" transform="translate(34.4275 489.181793)scale(0.22 -0.22)">
       <defs>
        <path d="M 2034 2216 
Q 1584 2216 1326 1975 
Q 1069 1734 1069 1313 
Q 1069 891 1326 650 
Q 1584 409 2034 409 
Q 2484 409 2743 651 
Q 3003 894 3003 1313 
Q 3003 1734 2745 1975 
Q 2488 2216 2034 2216 
z
M 1403 2484 
Q 997 2584 770 2862 
Q 544 3141 544 3541 
Q 544 4100 942 4425 
Q 1341 4750 2034 4750 
Q 2731 4750 3128 4425 
Q 3525 4100 3525 3541 
Q 3525 3141 3298 2862 
Q 3072 2584 2669 2484 
Q 3125 2378 3379 2068 
Q 3634 1759 3634 1313 
Q 3634 634 3220 271 
Q 2806 -91 2034 -91 
Q 1263 -91 848 271 
Q 434 634 434 1313 
Q 434 1759 690 2068 
Q 947 2378 1403 2484 
z
M 1172 3481 
Q 1172 3119 1398 2916 
Q 1625 2713 2034 2713 
Q 2441 2713 2670 2916 
Q 2900 3119 2900 3481 
Q 2900 3844 2670 4047 
Q 2441 4250 2034 4250 
Q 1625 4250 1398 4047 
Q 1172 3844 1172 3481 
z
" id="DejaVuSans-38" transform="scale(0.015625)"/>
       </defs>
       <use xlink:href="#DejaVuSans-30"/>
       <use x="63.623047" xlink:href="#DejaVuSans-2e"/>
       <use x="95.410156" xlink:href="#DejaVuSans-38"/>
      </g>
     </g>
    </g>
    <g id="ytick_3">
     <g id="text_11">
      <!-- 1.0 -->
      <g style="fill:#262626;" transform="translate(34.4275 397.342627)scale(0.22 -0.22)">
       <use xlink:href="#DejaVuSans-31"/>
       <use x="63.623047" xlink:href="#DejaVuSans-2e"/>
       <use x="95.410156" xlink:href="#DejaVuSans-30"/>
      </g>
     </g>
    </g>
    <g id="ytick_4">
     <g id="text_12">
      <!-- 1.2 -->
      <g style="fill:#262626;" transform="translate(34.4275 305.503462)scale(0.22 -0.22)">
       <use xlink:href="#DejaVuSans-31"/>
       <use x="63.623047" xlink:href="#DejaVuSans-2e"/>
       <use x="95.410156" xlink:href="#DejaVuSans-32"/>
      </g>
     </g>
    </g>
    <g id="ytick_5">
     <g id="text_13">
      <!-- 1.4 -->
      <g style="fill:#262626;" transform="translate(34.4275 213.664296)scale(0.22 -0.22)">
       <defs>
        <path d="M 2419 4116 
L 825 1625 
L 2419 1625 
L 2419 4116 
z
M 2253 4666 
L 3047 4666 
L 3047 1625 
L 3713 1625 
L 3713 1100 
L 3047 1100 
L 3047 0 
L 2419 0 
L 2419 1100 
L 313 1100 
L 313 1709 
L 2253 4666 
z
" id="DejaVuSans-34" transform="scale(0.015625)"/>
       </defs>
       <use xlink:href="#DejaVuSans-31"/>
       <use x="63.623047" xlink:href="#DejaVuSans-2e"/>
       <use x="95.410156" xlink:href="#DejaVuSans-34"/>
      </g>
     </g>
    </g>
    <g id="ytick_6">
     <g id="text_14">
      <!-- 1.6 -->
      <g style="fill:#262626;" transform="translate(34.4275 121.825131)scale(0.22 -0.22)">
       <use xlink:href="#DejaVuSans-31"/>
       <use x="63.623047" xlink:href="#DejaVuSans-2e"/>
       <use x="95.410156" xlink:href="#DejaVuSans-36"/>
      </g>
     </g>
    </g>
    <g id="text_15">
     <!-- $E$ -->
     <g style="fill:#262626;" transform="translate(25.43625 363.813429)rotate(-90)scale(0.24 -0.24)">
      <defs>
       <path d="M 1081 4666 
L 4031 4666 
L 3928 4134 
L 1606 4134 
L 1338 2753 
L 3566 2753 
L 3463 2222 
L 1234 2222 
L 909 531 
L 3284 531 
L 3181 0 
L 172 0 
L 1081 4666 
z
" id="DejaVuSans-Oblique-45" transform="scale(0.015625)"/>
      </defs>
      <use transform="translate(0 0.09375)" xlink:href="#DejaVuSans-Oblique-45"/>
     </g>
    </g>
   </g>
   <g id="line2d_1">
    <path clip-path="url(#p71b9983e3f)" d="M 106.866622 520.280273 
L 107.010618 420.47025 
L 107.154614 453.039325 
L 107.442607 326.343309 
L 107.874596 384.419941 
L 108.018593 324.975919 
L 108.162589 343.907028 
L 108.306585 318.175156 
L 108.450582 437.78859 
L 108.594578 368.901794 
L 108.738575 517.40943 
L 108.882571 494.422455 
L 109.026567 382.91293 
L 109.170564 378.078812 
L 109.31456 404.111807 
L 109.458556 382.62117 
L 109.602553 240.437412 
L 109.746549 408.881735 
L 109.890546 345.939714 
L 110.034542 224.133043 
L 110.466531 448.908017 
L 110.610527 428.53676 
L 110.754524 405.820305 
L 111.042517 437.415215 
L 111.474506 326.292485 
L 111.618502 327.014758 
L 111.906495 197.279017 
L 112.050491 500.799895 
L 112.194487 402.435336 
L 112.48248 490.798076 
L 112.626477 540.088906 
L 112.770473 396.279436 
L 112.914469 447.717947 
L 113.058466 436.587155 
L 113.202462 455.114767 
L 113.490455 374.608357 
L 113.634451 370.486489 
L 113.778448 422.559418 
L 113.922444 382.379294 
L 114.06644 298.386947 
L 114.210437 418.079378 
L 114.498429 456.050682 
L 114.642426 409.818702 
L 114.786422 421.764329 
L 114.930419 497.82205 
L 115.218411 337.274836 
L 115.362408 353.993132 
L 115.506404 408.390437 
L 115.6504 307.459562 
L 116.082389 444.803365 
L 116.226386 436.157262 
L 116.370382 453.165079 
L 116.658375 404.36415 
L 116.802371 324.972337 
L 116.946368 329.814906 
L 117.090364 435.507977 
L 117.23436 447.197553 
L 117.378357 426.697937 
L 117.522353 299.684521 
L 117.810346 408.080584 
L 117.954342 385.199369 
L 118.098339 478.713704 
L 118.242335 463.624147 
L 118.530328 400.073122 
L 118.674324 467.550332 
L 118.818321 405.238602 
L 118.962317 446.537276 
L 119.106313 447.254932 
L 119.25031 423.304485 
L 119.394306 471.111891 
L 119.538302 465.591855 
L 119.682299 417.445461 
L 119.970292 529.797376 
L 120.114288 516.410427 
L 120.402281 544.817558 
L 120.546277 420.283765 
L 120.690273 474.95406 
L 121.122262 342.741118 
L 121.266259 350.212904 
L 121.554252 438.024372 
L 121.698248 375.968252 
L 121.842244 466.041928 
L 121.986241 417.271216 
L 122.274233 530.151142 
L 122.41823 422.672451 
L 122.562226 421.166718 
L 122.706223 413.108348 
L 122.850219 491.308228 
L 122.994215 486.596083 
L 123.138212 494.410594 
L 123.282208 375.08791 
L 123.426204 518.593419 
L 123.570201 475.965101 
L 123.714197 285.425245 
L 123.858194 372.730418 
L 124.00219 331.534583 
L 124.146186 340.316762 
L 124.434179 491.504622 
L 124.578175 469.079827 
L 124.722172 530.490214 
L 124.866168 401.841119 
L 125.010164 545.826847 
L 125.154161 482.162388 
L 125.298157 467.772179 
L 125.442154 364.827996 
L 125.58615 466.678778 
L 125.730146 468.468227 
L 125.874143 435.830931 
L 126.018139 463.743658 
L 126.162135 429.51791 
L 126.306132 444.314774 
L 126.450128 310.292059 
L 126.594125 314.559285 
L 126.738121 446.474594 
L 126.882117 435.144755 
L 127.026114 358.312798 
L 127.314106 470.647209 
L 127.458103 526.441242 
L 127.602099 473.421616 
L 127.746096 471.185419 
L 127.890092 484.723633 
L 128.034088 381.161501 
L 128.178085 464.326465 
L 128.322081 425.975663 
L 128.466077 420.11291 
L 128.610074 480.72919 
L 128.898067 343.768915 
L 129.042063 379.278812 
L 129.330056 334.585951 
L 129.474052 500.587231 
L 129.618048 504.73685 
L 129.762045 363.043067 
L 129.906041 438.018083 
L 130.050037 375.181502 
L 130.194034 503.652271 
L 130.33803 409.072432 
L 130.482027 468.262514 
L 130.626023 478.235743 
L 130.770019 309.479261 
L 131.058012 495.327227 
L 131.202008 404.46624 
L 131.346005 400.323056 
L 131.490001 314.533754 
L 131.633998 427.496793 
L 131.777994 431.421771 
L 131.92199 323.119602 
L 132.065987 329.657861 
L 132.209983 420.575648 
L 132.353979 436.67249 
L 132.497976 466.034943 
L 132.641972 472.0974 
L 132.785969 441.688091 
L 132.929965 531.228345 
L 133.217958 391.642495 
L 133.361954 413.933428 
L 133.50595 357.624438 
L 133.649947 482.363373 
L 133.937939 402.520915 
L 134.081936 377.426246 
L 134.225932 437.544721 
L 134.369929 433.889852 
L 134.513925 466.03902 
L 134.657921 468.229009 
L 134.801918 281.24719 
L 134.945914 429.991253 
L 135.233907 297.75782 
L 135.377903 439.126517 
L 135.5219 409.409081 
L 135.665896 418.786101 
L 135.953889 393.916142 
L 136.097885 499.421527 
L 136.241881 488.626283 
L 136.385878 463.263421 
L 136.529874 370.27703 
L 136.817867 344.495772 
L 136.961863 291.571498 
L 137.249856 475.475897 
L 137.393852 411.003764 
L 137.537849 460.202219 
L 137.825842 416.370677 
L 137.969838 517.222768 
L 138.113834 357.876327 
L 138.257831 515.27157 
L 138.545823 379.794245 
L 138.68982 415.307757 
L 138.833816 482.704365 
L 138.977812 442.920212 
L 139.121809 362.167646 
L 139.265805 526.95944 
L 139.553798 400.520436 
L 139.697794 510.324972 
L 139.841791 530.307696 
L 139.985787 455.743659 
L 140.129783 456.149861 
L 140.27378 327.889226 
L 140.561773 454.267091 
L 140.705769 297.433649 
L 140.849765 478.614173 
L 140.993762 328.854204 
L 141.137758 443.670052 
L 141.281754 384.427982 
L 141.425751 396.355429 
L 141.569747 529.871867 
L 141.85774 415.626212 
L 142.001736 501.845663 
L 142.145733 414.233568 
L 142.289729 395.874946 
L 142.433725 485.527896 
L 142.577722 363.298146 
L 142.721718 365.371295 
L 142.865714 244.284422 
L 143.009711 444.798126 
L 143.153707 397.722032 
L 143.297704 501.017243 
L 143.4417 504.658873 
L 143.585696 472.702655 
L 143.729693 503.568073 
L 143.873689 270.758861 
L 144.161682 394.598268 
L 144.305678 334.678482 
L 144.449675 396.634939 
L 144.593671 409.937022 
L 144.737667 512.822743 
L 144.881664 348.679031 
L 145.169656 448.720165 
L 145.313653 433.571061 
L 145.457649 377.929839 
L 145.601646 438.153951 
L 145.745642 345.730856 
L 145.889638 405.787009 
L 146.033635 380.135826 
L 146.321627 444.489196 
L 146.465624 381.49423 
L 146.60962 402.877023 
L 146.897613 306.625015 
L 147.041609 420.006384 
L 147.185606 337.614409 
L 147.329602 350.784339 
L 147.473598 341.556798 
L 147.617595 458.905538 
L 147.761591 441.788422 
L 147.905587 402.129277 
L 148.049584 428.117764 
L 148.19358 503.892319 
L 148.481573 331.744659 
L 148.769566 393.227305 
L 149.057558 292.319277 
L 149.201555 446.172225 
L 149.345551 317.873335 
L 149.489548 295.454659 
L 149.633544 316.331129 
L 149.77754 447.842394 
L 149.921537 443.016426 
L 150.065533 442.840404 
L 150.209529 483.720901 
L 150.353526 425.768815 
L 150.641519 491.104178 
L 150.785515 523.598667 
L 150.929511 397.866239 
L 151.073508 504.714219 
L 151.217504 464.575788 
L 151.3615 457.43412 
L 151.649493 519.158935 
L 151.793489 409.259483 
L 151.937486 433.221281 
L 152.081482 407.534358 
L 152.225479 483.345429 
L 152.369475 414.055763 
L 152.513471 427.059683 
L 152.657468 452.21716 
L 152.801464 243.938243 
L 152.94546 275.59399 
L 153.089457 425.911705 
L 153.37745 382.524395 
L 153.665442 435.048254 
L 153.953435 518.958347 
L 154.097431 535.950434 
L 154.385424 351.745963 
L 154.673417 256.765211 
L 154.817413 412.193339 
L 154.96141 418.583349 
L 155.105406 464.741785 
L 155.249402 346.610252 
L 155.393399 391.799989 
L 155.537395 475.954611 
L 155.681392 440.443155 
L 155.825388 321.350507 
L 155.969384 416.469355 
L 156.113381 412.929718 
L 156.401373 431.860522 
L 156.54537 253.604835 
L 156.833362 498.705351 
L 156.977359 337.018732 
L 157.121355 361.17598 
L 157.409348 504.715187 
L 157.697341 410.455542 
L 157.841337 265.738845 
L 158.12933 572.329419 
L 158.273326 551.039465 
L 158.417323 395.785387 
L 158.561319 402.893047 
L 158.705315 231.886183 
L 158.849312 348.887228 
L 158.993308 331.475108 
L 159.137304 269.489882 
L 159.281301 369.159772 
L 159.425297 334.762486 
L 159.71329 358.780703 
L 160.001283 545.120646 
L 160.145279 378.918344 
L 160.289275 450.669935 
L 160.577268 428.470246 
L 160.721264 506.336617 
L 160.865261 421.203296 
L 161.009257 508.907025 
L 161.153254 402.339123 
L 161.29725 441.019188 
L 161.441246 542.177422 
L 161.585243 484.584147 
L 161.729239 478.073542 
L 161.873235 450.713428 
L 162.161228 268.60961 
L 162.449221 508.749772 
L 162.593217 423.420375 
L 162.737214 410.821317 
L 162.88121 489.124075 
L 163.169203 399.275443 
L 163.457196 254.294597 
L 163.601192 290.716623 
L 163.745188 396.18873 
L 164.177177 472.245893 
L 164.321174 359.785371 
L 164.46517 151.01497 
L 164.609167 319.461111 
L 164.753163 295.766717 
L 165.041156 428.423157 
L 165.185152 390.757133 
L 165.473145 519.945205 
L 165.905134 257.815991 
L 166.04913 451.346907 
L 166.337123 346.390234 
L 166.481119 468.01203 
L 166.625116 393.518645 
L 166.913108 414.485222 
L 167.057105 486.290718 
L 167.345098 326.538241 
L 167.489094 348.197829 
L 167.63309 337.886781 
L 167.777087 306.616004 
L 167.921083 348.671263 
L 168.065079 196.536077 
L 168.209076 420.359572 
L 168.353072 314.690795 
L 168.497069 305.799458 
L 168.641065 277.253118 
L 168.785061 526.685346 
L 168.929058 424.026046 
L 169.073054 511.384733 
L 169.21705 408.086866 
L 169.361047 538.328458 
L 169.505043 532.050117 
L 169.649039 414.374013 
L 169.793036 453.361108 
L 170.081029 413.087794 
L 170.225025 462.0497 
L 170.369021 437.197015 
L 170.513018 488.82448 
L 170.657014 482.795496 
L 170.80101 375.380103 
L 171.089003 467.757261 
L 171.233 515.449469 
L 171.376996 459.097969 
L 171.520992 460.908783 
L 171.664989 446.151227 
L 171.808985 376.142174 
L 172.096978 405.262853 
L 172.240974 414.935603 
L 172.384971 318.638076 
L 172.672963 520.338387 
L 172.960956 455.765301 
L 173.104952 477.002751 
L 173.680938 349.957774 
L 173.824934 519.695615 
L 174.112927 339.770102 
L 174.256923 340.074114 
L 174.40092 313.876232 
L 174.544916 349.64294 
L 174.688912 494.173565 
L 174.976905 440.379152 
L 175.120902 353.295423 
L 175.552891 534.70343 
L 175.840883 397.01065 
L 175.98488 524.480278 
L 176.128876 365.326758 
L 176.272873 358.111 
L 176.416869 463.784577 
L 176.560865 398.591796 
L 176.848858 438.115804 
L 176.992854 434.058624 
L 177.136851 419.25613 
L 177.280847 428.372889 
L 177.424844 376.3563 
L 177.56884 417.792973 
L 177.712836 417.379136 
L 177.856833 371.805019 
L 178.000829 453.709007 
L 178.144825 469.136103 
L 178.288822 429.700025 
L 178.432818 236.664048 
L 178.576814 400.887016 
L 178.720811 365.500459 
L 178.864807 274.138993 
L 179.008804 307.314267 
L 179.296796 496.411272 
L 179.440793 521.021423 
L 179.584789 280.587277 
L 179.728785 451.312118 
L 179.872782 465.82988 
L 180.160775 383.035712 
L 180.304771 415.705549 
L 180.592764 366.520483 
L 180.73676 422.939845 
L 180.880756 211.223961 
L 181.024753 407.169713 
L 181.168749 355.962775 
L 181.312746 422.833618 
L 181.600738 318.534209 
L 181.744735 406.56101 
L 181.888731 291.05048 
L 182.032727 372.536696 
L 182.176724 374.135495 
L 182.32072 323.552347 
L 182.608713 437.761557 
L 182.752709 295.658873 
L 183.184698 489.110535 
L 183.328695 362.740299 
L 183.616687 466.99042 
L 183.760684 414.034261 
L 183.90468 457.419681 
L 184.048677 452.912539 
L 184.192673 339.017933 
L 184.336669 492.392614 
L 184.480666 486.050328 
L 184.624662 436.116691 
L 184.768658 519.105936 
L 184.912655 403.156506 
L 185.056651 439.74322 
L 185.200648 350.758371 
L 185.344644 457.47865 
L 185.48864 333.163473 
L 185.632637 390.726344 
L 185.776633 502.293488 
L 185.920629 364.220484 
L 186.064626 502.217342 
L 186.208622 416.710566 
L 186.352619 557.564663 
L 186.496615 453.408492 
L 186.640611 444.094023 
L 186.784608 373.662917 
L 186.928604 484.750773 
L 187.0726 440.544625 
L 187.216597 193.215131 
L 187.648586 494.50576 
L 187.792582 482.872202 
L 188.080575 501.750587 
L 188.224571 343.890398 
L 188.368568 455.650972 
L 188.512564 436.345336 
L 188.65656 343.835872 
L 188.800557 468.069938 
L 188.944553 378.831679 
L 189.08855 398.626057 
L 189.232546 525.304317 
L 189.520539 392.554992 
L 189.664535 386.679596 
L 189.808531 431.474022 
L 189.952528 405.002762 
L 190.240521 291.388291 
L 190.384517 402.919365 
L 190.528513 399.099607 
L 190.67251 422.574326 
L 190.816506 418.751184 
L 190.960502 384.538973 
L 191.248495 400.022308 
L 191.392492 389.100533 
L 191.536488 440.505094 
L 191.680484 387.882464 
L 191.824481 509.413031 
L 191.968477 511.677089 
L 192.112473 481.840938 
L 192.25647 383.710539 
L 192.400466 418.262095 
L 192.688459 315.040289 
L 192.976452 475.135073 
L 193.120448 480.412474 
L 193.264444 520.923903 
L 193.696433 352.737607 
L 193.84043 371.725961 
L 193.984426 468.853069 
L 194.272419 270.207697 
L 194.416415 432.656924 
L 194.704408 369.804693 
L 194.848404 480.561855 
L 194.992401 354.320882 
L 195.136397 404.227847 
L 195.42439 279.192657 
L 195.568386 424.467111 
L 195.712383 397.386941 
L 195.856379 504.823081 
L 196.000375 316.843897 
L 196.144372 311.435858 
L 196.288368 421.362469 
L 196.432364 436.611036 
L 196.576361 370.457555 
L 196.720357 420.473532 
L 196.864354 420.698175 
L 197.00835 424.959747 
L 197.152346 410.609707 
L 197.296343 420.135936 
L 197.584335 504.417967 
L 197.728332 425.513236 
L 198.016325 444.359783 
L 198.160321 364.407792 
L 198.304317 355.084025 
L 198.448314 289.743809 
L 198.59231 477.407285 
L 198.736306 421.217594 
L 198.880303 504.754929 
L 199.024299 367.450977 
L 199.168296 364.404597 
L 199.312292 385.413931 
L 199.456288 465.61464 
L 199.600285 358.055702 
L 199.744281 380.44533 
L 199.888277 358.146899 
L 200.032274 422.522675 
L 200.17627 420.67261 
L 200.320267 369.898787 
L 200.608259 459.217801 
L 200.752256 404.14778 
L 200.896252 421.990687 
L 201.040248 493.803569 
L 201.184245 412.328798 
L 201.328241 466.647454 
L 201.472237 305.856444 
L 201.616234 311.771036 
L 201.76023 175.324578 
L 201.904227 391.261687 
L 202.048223 313.940186 
L 202.192219 351.207893 
L 202.336216 456.116061 
L 202.480212 401.310195 
L 202.624208 404.841434 
L 202.768205 456.893783 
L 202.912201 407.333927 
L 203.056198 311.113232 
L 203.34419 463.70932 
L 203.632183 402.284432 
L 204.208169 502.126518 
L 204.640158 295.248665 
L 204.784154 459.857707 
L 204.92815 440.545323 
L 205.072147 524.220628 
L 205.216143 521.544638 
L 205.504136 363.982345 
L 205.648132 459.403511 
L 205.792129 386.544638 
L 205.936125 376.985112 
L 206.224118 505.136385 
L 206.368114 514.814487 
L 206.51211 489.624838 
L 206.656107 422.616065 
L 206.800103 471.948595 
L 206.9441 369.527069 
L 207.088096 431.309802 
L 207.232092 414.83987 
L 207.376089 416.02356 
L 207.520085 452.987854 
L 207.664081 439.699876 
L 207.808078 510.331011 
L 207.952074 467.147128 
L 208.096071 465.177657 
L 208.240067 425.403315 
L 208.384063 457.439751 
L 208.52806 440.850877 
L 208.816052 541.992857 
L 209.104045 418.16636 
L 209.248042 424.937549 
L 209.392038 423.776793 
L 209.536034 439.109764 
L 209.824027 394.064134 
L 209.968023 422.709311 
L 210.256016 340.966525 
L 210.400012 337.773644 
L 210.544009 496.184745 
L 210.688005 420.697125 
L 210.832002 446.611757 
L 210.975998 396.980576 
L 211.263991 460.271914 
L 211.407987 404.085476 
L 211.551983 413.923819 
L 211.69598 409.03128 
L 211.839976 540.57037 
L 211.983973 400.572229 
L 212.127969 472.703669 
L 212.271965 421.232111 
L 212.415962 513.928187 
L 212.559958 404.649075 
L 212.703954 478.037923 
L 212.847951 281.133737 
L 213.135944 378.973007 
L 213.27994 357.208488 
L 213.423936 399.339634 
L 213.567933 374.75408 
L 213.711929 439.699184 
L 213.855925 418.391123 
L 213.999922 453.600616 
L 214.143918 382.869186 
L 214.287914 418.764401 
L 214.431911 323.992424 
L 214.575907 398.335283 
L 214.719904 406.818311 
L 214.8639 502.260009 
L 215.007896 469.800794 
L 215.151893 306.210049 
L 215.295889 364.696827 
L 215.439885 489.514186 
L 215.583882 371.84306 
L 215.727878 371.211343 
L 216.015871 475.926946 
L 216.303864 449.061037 
L 216.44786 522.028075 
L 216.591856 392.064695 
L 216.735853 420.036741 
L 216.879849 378.47089 
L 217.023846 395.850115 
L 217.167842 474.832784 
L 217.311838 413.876961 
L 217.455835 443.519551 
L 217.599831 521.847356 
L 217.887824 342.653502 
L 218.175817 531.967078 
L 218.319813 378.422793 
L 218.463809 440.304658 
L 218.607806 410.434285 
L 218.751802 329.02268 
L 218.895798 455.174931 
L 219.039795 466.002707 
L 219.183791 310.123284 
L 219.327787 331.361269 
L 219.471784 370.138868 
L 219.61578 493.711654 
L 219.759777 476.146678 
L 219.903773 380.354483 
L 220.047769 364.501833 
L 220.191766 440.65271 
L 220.335762 580.503039 
L 220.479758 363.354713 
L 220.623755 428.849671 
L 220.767751 397.803023 
L 220.911748 466.136103 
L 221.055744 392.376482 
L 221.19974 418.363604 
L 221.343737 369.468658 
L 221.487733 395.559573 
L 221.631729 347.959121 
L 221.919722 438.83657 
L 222.063719 424.719205 
L 222.207715 390.054842 
L 222.351711 325.055385 
L 222.495708 491.944256 
L 222.927697 274.740593 
L 223.071693 404.059892 
L 223.215689 387.547128 
L 223.359686 449.907438 
L 223.503682 394.172491 
L 223.647679 217.510308 
L 223.935671 364.036969 
L 224.079668 317.714341 
L 224.223664 490.056551 
L 224.36766 449.549542 
L 224.655653 490.778787 
L 225.087642 366.47338 
L 225.231639 410.184584 
L 225.375635 368.066522 
L 225.519631 376.445909 
L 225.663628 464.592345 
L 225.807624 478.379124 
L 225.951621 513.998889 
L 226.095617 440.945786 
L 226.239613 487.410723 
L 226.38361 490.222877 
L 226.671602 408.157421 
L 226.815599 454.409215 
L 226.959595 413.28467 
L 227.103592 404.643187 
L 227.247588 514.600883 
L 227.535581 423.465275 
L 227.679577 431.475851 
L 227.823573 459.214793 
L 227.96757 208.179477 
L 228.255562 402.504675 
L 228.399559 463.693994 
L 228.543555 474.834328 
L 228.687552 458.19626 
L 228.831548 539.030063 
L 229.119541 412.360217 
L 229.263537 430.431835 
L 229.55153 389.526645 
L 229.695526 436.765612 
L 229.839523 344.278487 
L 229.983519 333.810908 
L 230.127515 448.62176 
L 230.271512 416.729058 
L 230.415508 311.846757 
L 230.703501 495.958989 
L 230.847497 328.071226 
L 230.991494 386.4438 
L 231.13549 357.589567 
L 231.423483 494.777049 
L 231.567479 464.347275 
L 231.855472 468.217422 
L 232.143464 493.829928 
L 232.287461 451.287132 
L 232.431457 529.13244 
L 232.575454 455.330216 
L 232.71945 479.440331 
L 232.863446 333.525497 
L 233.007443 392.510706 
L 233.151439 520.305277 
L 233.295435 480.342686 
L 233.439432 390.30727 
L 233.583428 370.160999 
L 233.727425 475.998895 
L 233.871421 403.005336 
L 234.015417 484.689431 
L 234.159414 416.587266 
L 234.30341 440.47621 
L 234.591403 312.921678 
L 234.735399 405.996551 
L 234.879396 288.713061 
L 235.167388 373.126307 
L 235.311385 306.385135 
L 235.599377 513.215722 
L 235.743374 398.61487 
L 235.88737 437.465574 
L 236.175363 406.349765 
L 236.319359 409.112843 
L 236.463356 359.788161 
L 236.607352 413.239802 
L 236.751348 420.374116 
L 236.895345 532.86134 
L 237.039341 436.945051 
L 237.183337 444.356841 
L 237.47133 353.366722 
L 237.615327 373.512507 
L 237.759323 508.099016 
L 237.903319 510.850176 
L 238.047316 501.413062 
L 238.191312 512.435559 
L 238.335308 478.799762 
L 238.479305 389.804255 
L 238.623301 433.734067 
L 238.767298 436.939857 
L 238.911294 506.235188 
L 239.199287 405.291378 
L 239.487279 368.457987 
L 239.631276 370.366887 
L 239.775272 431.027947 
L 239.919269 408.341421 
L 240.207261 258.21604 
L 240.495254 476.42016 
L 240.63925 383.348174 
L 240.783247 488.839644 
L 240.927243 426.285422 
L 241.071239 510.89238 
L 241.215236 523.541858 
L 241.359232 522.648203 
L 241.503229 300.431219 
L 241.935218 474.454787 
L 242.079214 513.59958 
L 242.22321 509.228771 
L 242.367207 459.952881 
L 242.511203 307.864148 
L 242.6552 318.823524 
L 242.943192 383.589681 
L 243.087189 344.637076 
L 243.231185 369.539782 
L 243.375181 452.126043 
L 243.519178 446.153074 
L 243.663174 422.945759 
L 243.807171 448.462886 
L 243.951167 450.606043 
L 244.095163 438.699914 
L 244.23916 353.760551 
L 244.383156 392.283593 
L 244.527152 347.087805 
L 244.815145 416.072425 
L 244.959142 385.351115 
L 245.103138 445.461158 
L 245.247134 419.330825 
L 245.391131 414.278808 
L 245.535127 437.458185 
L 245.82312 512.013213 
L 245.967116 412.777022 
L 246.111112 446.64392 
L 246.543102 419.213729 
L 246.687098 314.899472 
L 246.831094 494.115266 
L 246.975091 485.247934 
L 247.119087 460.010283 
L 247.263083 536.083571 
L 247.40708 347.198684 
L 247.551076 414.293545 
L 247.695073 363.529307 
L 247.839069 371.203359 
L 247.983065 357.444603 
L 248.127062 420.985672 
L 248.271058 372.407213 
L 248.415054 458.912459 
L 248.559051 467.50547 
L 248.847044 308.412827 
L 249.567025 565.867846 
L 249.711022 528.005953 
L 249.855018 407.851096 
L 249.999014 399.349092 
L 250.287007 493.61254 
L 250.431004 499.66632 
L 250.718996 448.256961 
L 251.006989 343.824533 
L 251.150985 382.146417 
L 251.294982 467.979878 
L 251.438978 460.618405 
L 251.726971 331.046811 
L 251.870967 383.511654 
L 252.014964 502.50955 
L 252.302956 332.618552 
L 252.446953 397.602007 
L 252.590949 397.25776 
L 252.878942 544.74533 
L 253.022938 397.783713 
L 253.166935 445.000163 
L 253.310931 423.231619 
L 253.454927 455.820813 
L 253.598924 520.348607 
L 254.030913 281.973801 
L 254.318906 491.968854 
L 254.606898 398.212418 
L 254.750895 455.415809 
L 254.894891 452.428392 
L 255.038887 504.184533 
L 255.182884 445.362422 
L 255.32688 529.46182 
L 255.470877 527.164645 
L 255.758869 422.930733 
L 255.902866 397.809477 
L 256.046862 458.061301 
L 256.190858 445.243403 
L 256.622848 554.061855 
L 256.766844 462.186874 
L 256.91084 467.093278 
L 257.054837 547.533443 
L 257.198833 502.928585 
L 257.342829 395.451426 
L 257.486826 376.493495 
L 257.630822 411.804325 
L 257.774819 408.948003 
L 257.918815 459.385416 
L 258.206808 392.499005 
L 258.4948 274.302888 
L 258.782793 271.019438 
L 259.070786 452.298457 
L 259.358779 420.977207 
L 259.934764 485.891664 
L 260.222757 350.740614 
L 260.51075 445.635608 
L 260.798742 482.544063 
L 261.086735 393.305565 
L 261.374728 375.527931 
L 261.662721 298.497717 
L 261.950713 345.319312 
L 262.238706 468.618905 
L 262.526699 490.084915 
L 262.814692 454.042981 
L 263.102684 458.098251 
L 263.390677 443.12758 
L 263.67867 467.160628 
L 263.966662 521.724761 
L 264.254655 409.693478 
L 264.542648 449.661456 
L 265.118633 312.63556 
L 265.406626 305.998177 
L 265.694619 334.978086 
L 265.982612 460.774193 
L 266.270604 248.738207 
L 266.558597 392.70209 
L 266.84659 131.763818 
L 267.422575 479.654145 
L 267.710568 334.078314 
L 267.998561 356.636978 
L 268.286554 438.209663 
L 268.574546 561.83067 
L 268.862539 402.458953 
L 269.150532 345.587915 
L 269.438525 447.348022 
L 269.726517 489.46407 
L 270.01451 380.208085 
L 270.590496 305.226393 
L 271.166481 502.298269 
L 271.454474 410.324937 
L 271.742467 548.071323 
L 272.030459 461.136632 
L 272.318452 425.77799 
L 272.606445 365.865662 
L 272.894437 393.173101 
L 273.18243 360.26865 
L 273.470423 396.380409 
L 273.758416 508.400742 
L 274.046408 419.67049 
L 274.334401 503.498561 
L 274.622394 423.952296 
L 274.910387 492.12557 
L 275.198379 458.039443 
L 275.486372 407.348965 
L 275.774365 442.495199 
L 276.062358 443.4594 
L 276.35035 414.935975 
L 276.638343 486.515503 
L 276.926336 452.825652 
L 277.214329 374.509252 
L 277.502321 356.259021 
L 277.790314 449.322068 
L 278.078307 422.691313 
L 278.3663 468.1811 
L 278.654292 413.546508 
L 278.942285 314.535442 
L 279.230278 446.697171 
L 279.518271 372.000706 
L 279.806263 510.041781 
L 280.094256 478.235232 
L 280.382249 401.766554 
L 280.670242 491.985051 
L 280.958234 313.231528 
L 281.246227 377.526063 
L 281.53422 528.042924 
L 281.822212 442.025191 
L 282.398198 363.595757 
L 282.686191 340.567407 
L 282.974183 304.808064 
L 283.262176 371.990506 
L 283.550169 396.201431 
L 284.126154 507.73398 
L 284.414147 461.003118 
L 284.70214 508.265987 
L 284.990133 467.983699 
L 285.278125 390.87239 
L 285.854111 431.141266 
L 286.142104 510.001607 
L 286.718089 403.589362 
L 287.294075 501.723565 
L 287.582067 410.164044 
L 287.87006 372.340233 
L 288.158053 448.278706 
L 288.446046 465.73783 
L 288.734038 467.766929 
L 289.022031 447.507283 
L 289.310024 437.794626 
L 289.598017 447.360523 
L 289.886009 409.420574 
L 290.174002 401.272363 
L 290.749987 537.516123 
L 291.03798 450.170527 
L 291.325973 458.119512 
L 291.901958 342.3933 
L 292.477944 427.494348 
L 292.765937 418.05563 
L 293.053929 177.844686 
L 293.341922 231.608128 
L 293.629915 399.363151 
L 293.917908 394.207849 
L 294.2059 410.073341 
L 294.493893 341.508794 
L 294.781886 420.964192 
L 295.069879 439.555963 
L 295.357871 481.187372 
L 295.645864 429.434799 
L 295.933857 349.943036 
L 296.22185 469.282709 
L 296.509842 361.664485 
L 296.797835 474.396649 
L 297.085828 482.820899 
L 297.661813 328.246939 
L 297.949806 516.812435 
L 298.237799 427.067602 
L 298.525792 395.340284 
L 299.101777 435.227243 
L 299.38977 368.227636 
L 299.677762 405.688595 
L 299.965755 374.086465 
L 300.253748 436.255023 
L 300.541741 405.499371 
L 300.829733 403.456507 
L 301.117726 346.544022 
L 301.405719 479.76942 
L 301.693712 501.917944 
L 301.981704 462.723708 
L 302.269697 472.979717 
L 302.845683 375.386798 
L 303.133675 385.671703 
L 303.709661 511.858563 
L 303.997654 442.126357 
L 304.573639 360.731648 
L 304.861632 445.027952 
L 305.149625 425.833202 
L 305.72561 403.218711 
L 306.013603 480.859069 
L 306.301596 375.458516 
L 306.589588 374.782034 
L 306.877581 546.583816 
L 307.453567 362.574254 
L 307.741559 400.278877 
L 308.029552 411.317075 
L 308.317545 440.22022 
L 308.605537 435.866155 
L 308.89353 401.854954 
L 309.181523 306.443374 
L 309.757508 499.506073 
L 310.045501 459.842074 
L 310.333494 437.463759 
L 310.621487 394.320605 
L 310.909479 450.098854 
L 311.197472 434.782852 
L 311.485465 356.646538 
L 311.773458 483.528607 
L 312.06145 482.793749 
L 312.349443 386.102376 
L 312.637436 429.688057 
L 312.925429 395.801177 
L 313.213421 416.674788 
L 313.501414 423.598272 
L 313.789407 398.303806 
L 314.0774 459.814288 
L 314.365392 463.494162 
L 314.941378 379.019981 
L 315.229371 494.105654 
L 315.517363 424.225244 
L 315.805356 392.251003 
L 316.093349 474.351995 
L 316.381342 353.801999 
L 316.669334 537.30702 
L 317.24532 427.136626 
L 317.533312 495.507941 
L 317.821305 479.494301 
L 318.109298 470.545929 
L 318.397291 312.634069 
L 318.685283 509.249421 
L 318.973276 415.640023 
L 319.261269 483.860749 
L 319.549262 460.771282 
L 319.837254 500.493158 
L 320.125247 427.802282 
L 320.701233 387.031878 
L 320.989225 481.35528 
L 321.277218 327.75964 
L 321.565211 392.054509 
L 321.853204 382.269527 
L 322.141196 496.420732 
L 322.429189 489.590177 
L 322.717182 371.547462 
L 323.005175 369.342592 
L 323.293167 344.344628 
L 323.58116 511.686013 
L 323.869153 382.829475 
L 324.157146 521.789989 
L 324.445138 576.471408 
L 324.733131 516.574183 
L 325.021124 541.193462 
L 325.309117 454.427631 
L 325.597109 535.948384 
L 325.885102 442.417828 
L 326.173095 447.698688 
L 326.461087 534.598387 
L 326.74908 436.25115 
L 327.037073 463.827069 
L 327.325066 381.375056 
L 327.613058 464.430211 
L 327.901051 454.77001 
L 328.189044 400.821628 
L 328.477037 325.59916 
L 328.765029 520.732856 
L 329.053022 522.527904 
L 329.341015 351.793131 
L 329.629008 350.150085 
L 329.917 447.427485 
L 330.204993 305.773194 
L 330.780979 535.348334 
L 331.068971 468.500706 
L 331.356964 530.926309 
L 331.644957 432.609481 
L 331.93295 492.919044 
L 332.220942 424.764052 
L 332.508935 414.649691 
L 332.796928 271.246476 
L 333.084921 288.700099 
L 333.372913 363.340034 
L 333.948899 325.556814 
L 334.236892 352.189706 
L 334.524884 299.366323 
L 335.10087 418.524252 
L 335.388862 350.446484 
L 335.676855 418.977571 
L 335.964848 450.871047 
L 336.252841 432.895705 
L 336.540833 491.480349 
L 336.828826 506.431049 
L 337.116819 477.221972 
L 337.404812 423.190049 
L 337.692804 281.265671 
L 337.980797 435.452339 
L 338.26879 345.38472 
L 338.556783 509.124796 
L 338.844775 467.261853 
L 339.132768 180.197855 
L 339.420761 396.197953 
L 339.708754 385.774906 
L 339.996746 409.423554 
L 340.284739 366.785034 
L 340.860725 441.246358 
L 341.148717 434.882252 
L 341.43671 423.450136 
L 341.724703 516.782742 
L 342.012696 499.771155 
L 342.300688 394.334296 
L 342.588681 461.793198 
L 342.876674 479.370776 
L 343.452659 422.984001 
L 343.740652 476.529164 
L 344.028645 507.835793 
L 344.316637 461.460094 
L 344.60463 378.615892 
L 344.892623 407.810167 
L 345.180616 527.642768 
L 345.468608 437.254275 
L 345.756601 263.154169 
L 346.044594 297.870224 
L 346.332587 459.558941 
L 346.620579 480.605369 
L 346.908572 434.504491 
L 347.196565 480.09297 
L 347.484558 353.2226 
L 347.77255 506.614378 
L 348.060543 311.17036 
L 348.348536 424.717372 
L 348.636529 416.242249 
L 348.924521 577.00496 
L 349.212514 315.523413 
L 349.500507 479.742479 
L 349.7885 416.470734 
L 350.076492 459.649469 
L 350.364485 360.800346 
L 350.652478 432.112194 
L 350.940471 390.755854 
L 351.228463 470.185732 
L 351.516456 445.051892 
L 352.092442 368.775078 
L 352.380434 448.990549 
L 352.668427 334.731945 
L 352.95642 505.646902 
L 353.244412 389.305286 
L 353.532405 435.563605 
L 353.820398 377.03688 
L 354.108391 442.274533 
L 354.396383 435.138398 
L 354.684376 480.064645 
L 354.972369 431.482525 
L 355.260362 404.583564 
L 355.548354 485.22247 
L 355.836347 309.54591 
L 356.12434 296.528997 
L 356.412333 344.523753 
L 356.700325 345.481006 
L 356.988318 400.886376 
L 357.276311 388.376035 
L 357.564304 423.912419 
L 357.852296 425.791706 
L 358.140289 503.311782 
L 358.428282 394.044364 
L 358.716275 532.1126 
L 359.004267 354.974769 
L 359.29226 389.962187 
L 359.580253 386.080819 
L 359.868246 447.435403 
L 360.156238 366.937716 
L 360.444231 369.553681 
L 361.020217 337.303073 
L 361.308209 406.486505 
L 361.596202 398.644431 
L 361.884195 455.158856 
L 362.172187 471.055815 
L 362.46018 567.344852 
L 362.748173 540.202758 
L 363.324158 406.180625 
L 363.612151 376.846666 
L 363.900144 516.765002 
L 364.476129 331.022962 
L 365.052115 483.177456 
L 365.340108 482.410579 
L 365.916093 355.858333 
L 366.204086 488.135647 
L 366.492079 427.984521 
L 366.780071 394.545462 
L 367.068064 321.634055 
L 367.64405 447.337297 
L 367.932042 358.774635 
L 368.220035 456.232954 
L 368.508028 306.170915 
L 368.796021 418.286676 
L 369.084013 483.244163 
L 369.372006 353.516836 
L 369.659999 385.821331 
L 370.235984 353.622459 
L 370.523977 403.604597 
L 370.81197 419.803584 
L 371.099962 386.337846 
L 371.387955 464.506976 
L 371.675948 362.444779 
L 371.963941 478.742829 
L 372.251933 458.054615 
L 372.539926 226.68211 
L 372.827919 450.950432 
L 373.115912 431.089626 
L 373.403904 465.670669 
L 373.691897 314.838236 
L 373.97989 393.47616 
L 374.267883 385.444896 
L 374.555875 300.745867 
L 374.843868 351.01722 
L 375.131861 455.228097 
L 375.419854 462.880826 
L 375.707846 333.130826 
L 375.995839 472.930655 
L 376.283832 388.566952 
L 376.571825 391.411427 
L 376.859817 477.941969 
L 377.14781 281.618893 
L 377.723796 489.488311 
L 378.011788 474.650712 
L 378.299781 404.128854 
L 378.587774 427.90843 
L 378.875767 387.375434 
L 379.163759 289.477564 
L 379.451752 458.600174 
L 379.739745 414.687918 
L 380.027737 512.230788 
L 380.31573 425.318211 
L 380.603723 413.939462 
L 380.891716 451.266152 
L 381.467701 351.313641 
L 381.755694 366.241239 
L 382.043687 275.686867 
L 382.331679 299.818994 
L 382.619672 472.877507 
L 382.907665 392.648564 
L 383.195658 411.973771 
L 383.48365 465.937133 
L 383.771643 421.268589 
L 384.059636 447.323508 
L 384.635621 424.687613 
L 384.923614 370.675537 
L 385.211607 372.293069 
L 385.4996 475.122887 
L 385.787592 370.243719 
L 386.075585 524.83615 
L 386.363578 215.772221 
L 386.651571 353.780199 
L 386.939563 324.417581 
L 387.227556 349.237754 
L 387.515549 351.630381 
L 387.803542 479.262185 
L 388.091534 406.6233 
L 388.379527 499.972059 
L 388.955512 303.046936 
L 389.243505 305.094739 
L 389.531498 320.898265 
L 389.819491 388.951714 
L 390.395476 281.709081 
L 390.683469 351.650204 
L 390.971462 335.686581 
L 391.259454 498.325837 
L 391.547447 419.095845 
L 391.83544 417.779576 
L 392.123433 444.339315 
L 392.411425 400.544665 
L 392.699418 442.85808 
L 392.987411 438.622942 
L 393.275404 431.280488 
L 393.563396 436.626063 
L 393.851389 396.676395 
L 394.427375 381.226969 
L 394.715367 466.550928 
L 395.291353 437.13838 
L 395.579346 513.665718 
L 395.867338 447.322727 
L 396.155331 414.581128 
L 396.731317 454.786439 
L 397.019309 536.758506 
L 397.307302 426.478037 
L 397.595295 430.999936 
L 397.883287 352.919483 
L 398.17128 462.978323 
L 398.459273 465.443857 
L 398.747266 419.979756 
L 399.035258 513.860589 
L 399.611244 283.133131 
L 399.899237 462.220588 
L 400.187229 433.980714 
L 400.475222 467.181981 
L 400.763215 528.499696 
L 401.051208 327.283829 
L 401.3392 555.613183 
L 401.627193 472.967911 
L 401.915186 458.897228 
L 402.491171 386.538413 
L 402.779164 477.232348 
L 403.067157 415.640285 
L 403.643142 357.982764 
L 403.931135 456.379081 
L 404.219128 412.500127 
L 404.507121 416.010871 
L 404.795113 316.452941 
L 405.083106 431.023768 
L 405.371099 388.265407 
L 405.659092 485.45984 
L 405.947084 452.405795 
L 406.235077 493.309581 
L 406.52307 471.250521 
L 406.811062 369.43103 
L 407.099055 429.487808 
L 407.387048 424.986019 
L 407.675041 471.624845 
L 407.963033 425.408951 
L 408.539019 375.002474 
L 408.827012 425.390032 
L 409.115004 444.32154 
L 409.402997 369.032981 
L 409.69099 495.107933 
L 409.978983 495.962593 
L 410.266975 262.61857 
L 410.554968 381.539905 
L 410.842961 415.070503 
L 411.130954 466.285688 
L 411.418946 381.561194 
L 411.706939 367.036565 
L 411.994932 379.936158 
L 412.282925 492.848449 
L 412.570917 335.295776 
L 412.85891 425.717302 
L 413.146903 423.602311 
L 413.434896 282.942346 
L 414.010881 483.136189 
L 414.298874 212.46741 
L 414.586867 316.094892 
L 414.874859 462.193224 
L 415.162852 369.234285 
L 415.450845 367.271044 
L 415.738837 417.735722 
L 416.02683 407.264201 
L 416.314823 477.938467 
L 416.602816 501.736149 
L 416.890808 502.597669 
L 417.178801 464.496973 
L 417.466794 410.915015 
L 417.754787 492.482134 
L 418.042779 438.931419 
L 418.330772 332.994445 
L 418.618765 403.818313 
L 418.906758 320.834599 
L 419.19475 515.957917 
L 419.482743 510.034439 
L 419.770736 424.315828 
L 420.058729 411.774721 
L 420.346721 386.665856 
L 420.634714 536.433332 
L 420.922707 446.217616 
L 421.2107 300.510844 
L 421.498692 470.192326 
L 421.786685 420.945899 
L 422.074678 394.762422 
L 422.362671 492.708259 
L 422.650663 487.96313 
L 423.226649 397.466028 
L 423.514641 508.157112 
L 423.802634 367.271045 
L 424.090627 530.213789 
L 424.37862 419.230553 
L 424.666612 482.433313 
L 424.954605 488.935816 
L 425.242598 528.779077 
L 425.530591 412.451119 
L 425.818583 467.876085 
L 426.106576 395.787925 
L 426.394569 496.299949 
L 426.682562 418.251986 
L 426.970554 521.829918 
L 427.258547 452.989177 
L 427.834533 475.918905 
L 428.122525 356.442199 
L 428.410518 497.761987 
L 428.698511 406.463352 
L 428.986504 409.076749 
L 429.274496 523.954477 
L 429.562489 409.51322 
L 429.850482 424.075365 
L 430.138475 226.955362 
L 430.426467 401.927982 
L 430.71446 394.379699 
L 431.002453 378.831194 
L 431.290446 438.148238 
L 431.578438 452.560408 
L 431.866431 441.980315 
L 432.154424 414.530273 
L 432.442416 447.970064 
L 432.730409 414.477716 
L 433.018402 412.257326 
L 433.306395 366.909819 
L 433.594387 419.921345 
L 433.88238 392.434366 
L 434.170373 345.236954 
L 434.458366 494.18741 
L 434.746358 467.637398 
L 435.034351 463.929503 
L 435.322344 349.985333 
L 435.610337 448.911189 
L 435.898329 426.459066 
L 436.186322 521.882232 
L 436.474315 502.396211 
L 436.762308 331.534739 
L 437.0503 313.349451 
L 437.338293 498.227551 
L 437.626286 451.452247 
L 437.914279 528.890805 
L 438.202271 463.655684 
L 438.490264 434.22598 
L 438.778257 436.824045 
L 439.06625 496.65947 
L 439.354242 320.70906 
L 439.642235 429.671822 
L 439.930228 345.060174 
L 440.218221 389.471477 
L 440.506213 495.568193 
L 440.794206 481.081736 
L 441.082199 403.311463 
L 441.370191 422.471084 
L 441.658184 451.474649 
L 442.23417 411.63674 
L 442.810155 231.964284 
L 443.098148 425.122482 
L 443.386141 530.713322 
L 443.674133 411.433546 
L 443.962126 489.661706 
L 444.250119 375.679928 
L 444.538112 337.790641 
L 444.826104 496.388548 
L 445.114097 400.78302 
L 445.40209 432.905392 
L 445.690083 422.173461 
L 445.978075 544.559704 
L 446.266068 503.131843 
L 447.130046 329.89255 
L 447.418039 425.056688 
L 447.706032 397.191287 
L 447.994025 461.311426 
L 448.282017 422.469524 
L 448.57001 460.774189 
L 448.858003 407.677812 
L 449.145996 491.213657 
L 449.433988 458.270428 
L 449.721981 470.987011 
L 450.009974 430.646786 
L 450.297966 520.93941 
L 450.873952 344.374023 
L 451.161945 458.253905 
L 451.449937 476.551181 
L 451.73793 553.597692 
L 452.025923 437.467033 
L 452.313916 513.363733 
L 452.601908 407.94004 
L 452.889901 367.395424 
L 453.177894 474.682959 
L 453.465887 487.140197 
L 453.753879 272.295341 
L 454.041872 522.492654 
L 454.329865 451.352293 
L 454.617858 466.532021 
L 454.90585 513.364944 
L 455.193843 430.56943 
L 455.481836 413.853995 
L 455.769829 409.366714 
L 456.057821 516.337747 
L 456.345814 484.236817 
L 456.633807 401.705058 
L 456.9218 521.061966 
L 457.497785 466.428016 
L 458.073771 360.559362 
L 458.361763 530.286085 
L 458.937749 396.311279 
L 459.225741 442.720422 
L 459.513734 409.919407 
L 459.801727 344.575607 
L 460.08972 169.332468 
L 460.377712 474.447381 
L 460.665705 486.687676 
L 460.953698 194.766551 
L 461.241691 489.156012 
L 461.529683 512.963318 
L 461.817676 281.843164 
L 462.393662 460.684082 
L 462.681654 437.301233 
L 462.969647 488.742053 
L 463.25764 493.070636 
L 463.545633 467.569449 
L 463.833625 353.687985 
L 464.121618 412.926033 
L 464.409611 384.064879 
L 464.697604 510.843204 
L 464.985596 433.925798 
L 465.273589 452.104197 
L 465.561582 447.095262 
L 465.849575 446.093218 
L 466.137567 397.857184 
L 466.42556 515.456415 
L 466.713553 436.240425 
L 467.001546 406.555272 
L 467.289538 414.391318 
L 467.577531 426.424159 
L 467.865524 365.10707 
L 468.153516 410.399038 
L 468.441509 415.848157 
L 468.729502 402.66204 
L 469.017495 443.248388 
L 469.305487 394.599482 
L 469.59348 391.725527 
L 469.881473 468.649478 
L 470.169466 378.040455 
L 470.457458 436.311806 
L 470.745451 455.491889 
L 471.033444 415.658931 
L 471.321437 349.96412 
L 471.609429 359.597619 
L 472.185415 462.795456 
L 472.473408 396.808944 
L 472.7614 502.820773 
L 473.049393 487.25016 
L 473.337386 542.190092 
L 473.625379 426.401446 
L 473.913371 391.162741 
L 474.201364 404.254691 
L 474.489357 398.30009 
L 475.065342 471.125701 
L 475.353335 412.239997 
L 475.641328 493.949673 
L 475.929321 401.626878 
L 476.217313 395.561326 
L 476.505306 335.112844 
L 476.793299 457.384339 
L 477.081291 388.728002 
L 477.369284 435.69474 
L 477.657277 419.19741 
L 477.94527 490.776912 
L 478.521255 320.40151 
L 479.097241 513.489253 
L 479.385233 376.637047 
L 479.673226 445.692563 
L 479.961219 391.018264 
L 480.249212 405.701471 
L 480.537204 455.961093 
L 480.825197 437.572879 
L 481.11319 514.800662 
L 481.401183 507.088686 
L 481.689175 426.848963 
L 481.977168 432.520399 
L 482.265161 399.254185 
L 482.553154 321.55884 
L 482.841146 542.308745 
L 483.129139 445.078395 
L 483.417132 504.360928 
L 483.705125 477.983813 
L 483.993117 468.082369 
L 484.28111 381.6962 
L 484.569103 438.386487 
L 484.857096 440.93252 
L 485.145088 437.8021 
L 485.433081 416.452496 
L 485.721074 449.557095 
L 486.009066 451.129027 
L 486.297059 327.577638 
L 486.585052 454.037459 
L 486.873045 514.882277 
L 487.161037 507.980462 
L 487.44903 534.654161 
L 487.737023 543.531505 
L 488.025016 520.897052 
L 488.601001 304.706029 
L 489.176987 511.960342 
L 489.464979 440.266207 
L 489.752972 495.358548 
L 490.040965 457.047917 
L 490.328958 482.880416 
L 490.61695 392.523127 
L 490.904943 472.878245 
L 491.192936 281.144033 
L 491.480929 548.84645 
L 492.056914 423.661516 
L 492.344907 444.287334 
L 492.920892 371.193126 
L 493.208885 478.904397 
L 493.496878 443.159986 
L 493.784871 446.225639 
L 494.072863 536.761672 
L 494.360856 381.692738 
L 494.648849 459.985529 
L 494.936841 469.143217 
L 495.224834 364.923913 
L 495.512827 514.340489 
L 495.80082 420.395412 
L 496.088812 493.799054 
L 496.376805 298.814519 
L 496.664798 509.847995 
L 497.240783 376.688614 
L 497.528776 432.096008 
L 497.816769 376.302443 
L 498.104762 255.8664 
L 498.392754 353.038962 
L 498.680747 369.193651 
L 498.96874 427.524633 
L 499.256733 414.128818 
L 499.544725 424.757698 
L 499.832718 359.57023 
L 500.120711 403.614075 
L 500.408704 423.937019 
L 500.696696 338.486185 
L 500.984689 410.290161 
L 501.272682 354.040913 
L 501.560675 472.741629 
L 501.848667 448.345223 
L 502.13666 323.156651 
L 502.424653 400.05939 
L 502.712646 286.835464 
L 503.288631 432.809203 
L 503.576624 378.315181 
L 503.864616 425.919422 
L 504.152609 380.408524 
L 504.440602 394.066239 
L 504.728595 364.820017 
L 505.016587 418.501468 
L 505.30458 445.965814 
L 505.592573 378.04909 
L 505.880566 374.842728 
L 506.168558 308.295796 
L 506.456551 479.516705 
L 506.744544 425.283667 
L 507.032537 477.184249 
L 507.320529 422.368094 
L 507.608522 423.704491 
L 507.896515 407.574966 
L 508.184508 423.495576 
L 508.4725 469.637418 
L 508.760493 381.770521 
L 509.048486 385.04802 
L 509.336479 415.680717 
L 509.624471 462.435975 
L 509.912464 427.646727 
L 510.200457 429.275774 
L 510.48845 495.322175 
L 510.776442 270.075175 
L 511.352428 412.770112 
L 511.640421 537.995105 
L 511.928413 335.061677 
L 512.216406 430.753494 
L 512.504399 478.523867 
L 512.792391 384.844047 
L 513.080384 461.66809 
L 513.368377 370.530451 
L 513.65637 461.451421 
L 513.944362 418.984807 
L 514.232355 436.829172 
L 514.520348 386.433572 
L 515.096333 466.451956 
L 515.384326 411.044876 
L 515.672319 429.653693 
L 515.960312 437.260668 
L 516.248304 307.200461 
L 516.536297 387.99824 
L 516.82429 303.432652 
L 517.112283 470.207091 
L 517.400275 524.881107 
L 517.976261 322.195067 
L 518.264254 453.405494 
L 518.552246 299.793024 
L 518.840239 512.063429 
L 519.128232 462.939963 
L 519.416225 494.230269 
L 519.704217 511.99235 
L 519.99221 369.973137 
L 520.280203 331.943668 
L 520.568196 389.888158 
L 520.856188 368.061596 
L 521.144181 508.530223 
L 521.720166 431.294714 
L 522.008159 455.591971 
L 522.296152 308.503954 
L 522.584145 428.760403 
L 522.872137 343.98545 
L 523.16013 513.643268 
L 523.448123 435.266301 
L 523.736116 399.059891 
L 524.024108 419.862847 
L 524.312101 468.910274 
L 524.600094 397.41239 
L 524.888087 397.530423 
L 525.176079 338.369151 
L 525.464072 365.886554 
L 525.752065 357.004293 
L 526.040058 298.166613 
L 526.32805 305.834369 
L 526.616043 426.372357 
L 526.904036 441.03929 
L 527.480021 424.940812 
L 527.768014 429.193146 
L 528.056007 397.331399 
L 528.344 449.73055 
L 528.631992 528.752017 
L 528.919985 387.693909 
L 529.207978 515.693296 
L 529.783963 397.49648 
L 530.071956 465.446653 
L 530.359949 413.559166 
L 530.647941 318.13798 
L 530.935934 424.119564 
L 531.223927 342.857107 
L 531.51192 405.827365 
L 531.799912 410.595551 
L 532.087905 312.861643 
L 532.375898 426.11645 
L 532.663891 352.913855 
L 532.951883 508.009835 
L 533.239876 402.367738 
L 533.527869 414.639915 
L 533.815862 418.714877 
L 534.103854 349.482121 
L 534.391847 343.141591 
L 534.67984 473.753498 
L 534.967833 472.196671 
L 535.255825 366.630527 
L 535.543818 379.831317 
L 535.831811 457.30473 
L 536.119804 478.425563 
L 536.407796 285.133088 
L 536.695789 318.848762 
L 536.983782 518.553916 
L 537.559767 392.157912 
L 537.84776 385.346495 
L 538.135753 421.981025 
L 538.423746 400.904777 
L 538.711738 356.515224 
L 538.999731 346.004927 
L 539.287724 439.940339 
L 539.575716 465.342644 
L 539.863709 502.478727 
L 540.151702 340.220934 
L 540.439695 392.862687 
L 540.727687 516.053494 
L 541.01568 348.158856 
L 541.303673 418.885435 
L 541.879658 428.500713 
L 542.167651 395.848012 
L 542.455644 376.41812 
L 542.743637 503.50219 
L 543.319622 459.632717 
L 543.607615 284.208029 
L 543.895608 484.906054 
L 544.1836 401.184696 
L 544.471593 376.265251 
L 544.759586 391.716321 
L 545.335571 559.673802 
L 545.623564 461.914949 
L 545.911557 449.014779 
L 545.911557 449.014779 
" style="fill:none;stroke:#96c69a;stroke-linecap:round;stroke-width:3;"/>
   </g>
   <g id="line2d_2"/>
   <g id="patch_3">
    <path d="M 84.914375 602.94 
L 84.914375 109.326857 
" style="fill:none;stroke:#262626;stroke-linecap:square;stroke-linejoin:miter;stroke-width:2.5;"/>
   </g>
   <g id="patch_4">
    <path d="M 84.914375 602.94 
L 567.863804 602.94 
" style="fill:none;stroke:#262626;stroke-linecap:square;stroke-linejoin:miter;stroke-width:2.5;"/>
   </g>
   <g id="legend_1">
    <g id="patch_5">
     <path d="M 514.948179 597.94 
L 560.863804 597.94 
Q 562.863804 597.94 562.863804 595.94 
L 562.863804 554.034375 
Q 562.863804 552.034375 560.863804 552.034375 
L 514.948179 552.034375 
Q 512.948179 552.034375 512.948179 554.034375 
L 512.948179 595.94 
Q 512.948179 597.94 514.948179 597.94 
z
" style="fill:#ffffff;opacity:0.8;stroke:#cccccc;stroke-linejoin:miter;stroke-width:2;"/>
    </g>
    <g id="text_16">
     <!-- $n_\tau$ -->
     <g style="fill:#262626;" transform="translate(524.825991 574.270625)scale(0.24 -0.24)">
      <defs>
       <path d="M 3566 2113 
L 3156 0 
L 2578 0 
L 2988 2091 
Q 3016 2238 3031 2350 
Q 3047 2463 3047 2528 
Q 3047 2791 2881 2937 
Q 2716 3084 2419 3084 
Q 1956 3084 1622 2776 
Q 1288 2469 1184 1941 
L 800 0 
L 225 0 
L 903 3500 
L 1478 3500 
L 1363 2950 
Q 1603 3253 1940 3418 
Q 2278 3584 2650 3584 
Q 3113 3584 3367 3334 
Q 3622 3084 3622 2631 
Q 3622 2519 3608 2391 
Q 3594 2263 3566 2113 
z
" id="DejaVuSans-Oblique-6e" transform="scale(0.015625)"/>
       <path d="M 2103 638 
Q 2188 488 2525 488 
L 2800 488 
L 2706 0 
L 2363 0 
Q 1800 0 1600 300 
Q 1403 606 1534 1269 
L 1856 2925 
L 541 2925 
L 653 3500 
L 3881 3500 
L 3769 2925 
L 2444 2925 
L 2113 1234 
Q 2025 781 2103 638 
z
" id="DejaVuSans-Oblique-3c4" transform="scale(0.015625)"/>
      </defs>
      <use xlink:href="#DejaVuSans-Oblique-6e"/>
      <use transform="translate(63.378906 -16.40625)scale(0.7)" xlink:href="#DejaVuSans-Oblique-3c4"/>
     </g>
    </g>
    <g id="line2d_3">
     <path d="M 516.948179 588.360312 
L 536.948179 588.360312 
" style="fill:none;stroke:#96c69a;stroke-linecap:round;stroke-width:3;"/>
    </g>
    <g id="line2d_4"/>
    <g id="text_17">
     <!-- 40 -->
     <g style="fill:#262626;" transform="translate(544.948179 591.860312)scale(0.1 -0.1)">
      <defs>
       <path d="M 2356 3675 
L 1038 1722 
L 2356 1722 
L 2356 3675 
z
M 2156 4666 
L 3494 4666 
L 3494 1722 
L 4159 1722 
L 4159 850 
L 3494 850 
L 3494 0 
L 2356 0 
L 2356 850 
L 288 850 
L 288 1881 
L 2156 4666 
z
" id="DejaVuSans-Bold-34" transform="scale(0.015625)"/>
       <path d="M 2944 2338 
Q 2944 3213 2780 3570 
Q 2616 3928 2228 3928 
Q 1841 3928 1675 3570 
Q 1509 3213 1509 2338 
Q 1509 1453 1675 1090 
Q 1841 728 2228 728 
Q 2613 728 2778 1090 
Q 2944 1453 2944 2338 
z
M 4147 2328 
Q 4147 1169 3647 539 
Q 3147 -91 2228 -91 
Q 1306 -91 806 539 
Q 306 1169 306 2328 
Q 306 3491 806 4120 
Q 1306 4750 2228 4750 
Q 3147 4750 3647 4120 
Q 4147 3491 4147 2328 
z
" id="DejaVuSans-Bold-30" transform="scale(0.015625)"/>
      </defs>
      <use xlink:href="#DejaVuSans-Bold-34"/>
      <use x="69.580078" xlink:href="#DejaVuSans-Bold-30"/>
     </g>
    </g>
   </g>
  </g>
  <g id="axes_2">
   <g id="patch_6">
    <path d="M 84.914375 92.305714 
L 567.863804 92.305714 
L 567.863804 7.2 
L 84.914375 7.2 
z
" style="fill:none;"/>
   </g>
   <g id="matplotlib.axis_3">
    <g id="xtick_8"/>
    <g id="xtick_9"/>
    <g id="xtick_10"/>
    <g id="xtick_11"/>
    <g id="xtick_12"/>
    <g id="xtick_13"/>
    <g id="xtick_14"/>
   </g>
   <g id="matplotlib.axis_4">
    <g id="ytick_7">
     <g id="text_18">
      <!-- 0 -->
      <g style="fill:#262626;" transform="translate(55.416875 100.663996)scale(0.22 -0.22)">
       <use xlink:href="#DejaVuSans-30"/>
      </g>
     </g>
    </g>
    <g id="ytick_8">
     <g id="text_19">
      <!-- 200 -->
      <g style="fill:#262626;" transform="translate(27.421875 31.682667)scale(0.22 -0.22)">
       <use xlink:href="#DejaVuSans-32"/>
       <use x="63.623047" xlink:href="#DejaVuSans-30"/>
       <use x="127.246094" xlink:href="#DejaVuSans-30"/>
      </g>
     </g>
    </g>
   </g>
   <g id="patch_7">
    <path clip-path="url(#pf47d1deb36)" d="M 106.866622 92.305714 
L 140.639309 92.305714 
L 140.639309 11.252653 
L 106.866622 11.252653 
z
" style="fill:#96c69a;fill-opacity:0.5;stroke:#ffffff;stroke-linejoin:miter;stroke-width:2;"/>
   </g>
   <g id="patch_8">
    <path clip-path="url(#pf47d1deb36)" d="M 140.639309 92.305714 
L 174.411996 92.305714 
L 174.411996 11.252653 
L 140.639309 11.252653 
z
" style="fill:#96c69a;fill-opacity:0.5;stroke:#ffffff;stroke-linejoin:miter;stroke-width:2;"/>
   </g>
   <g id="patch_9">
    <path clip-path="url(#pf47d1deb36)" d="M 174.411996 92.305714 
L 208.184684 92.305714 
L 208.184684 11.59756 
L 174.411996 11.59756 
z
" style="fill:#96c69a;fill-opacity:0.5;stroke:#ffffff;stroke-linejoin:miter;stroke-width:2;"/>
   </g>
   <g id="patch_10">
    <path clip-path="url(#pf47d1deb36)" d="M 208.184684 92.305714 
L 241.957371 92.305714 
L 241.957371 11.252653 
L 208.184684 11.252653 
z
" style="fill:#96c69a;fill-opacity:0.5;stroke:#ffffff;stroke-linejoin:miter;stroke-width:2;"/>
   </g>
   <g id="patch_11">
    <path clip-path="url(#pf47d1deb36)" d="M 241.957371 92.305714 
L 275.730058 92.305714 
L 275.730058 32.981772 
L 241.957371 32.981772 
z
" style="fill:#96c69a;fill-opacity:0.5;stroke:#ffffff;stroke-linejoin:miter;stroke-width:2;"/>
   </g>
   <g id="patch_12">
    <path clip-path="url(#pf47d1deb36)" d="M 275.730058 92.305714 
L 309.502746 92.305714 
L 309.502746 51.60673 
L 275.730058 51.60673 
z
" style="fill:#96c69a;fill-opacity:0.5;stroke:#ffffff;stroke-linejoin:miter;stroke-width:2;"/>
   </g>
   <g id="patch_13">
    <path clip-path="url(#pf47d1deb36)" d="M 309.502746 92.305714 
L 343.275433 92.305714 
L 343.275433 51.951637 
L 309.502746 51.951637 
z
" style="fill:#96c69a;fill-opacity:0.5;stroke:#ffffff;stroke-linejoin:miter;stroke-width:2;"/>
   </g>
   <g id="patch_14">
    <path clip-path="url(#pf47d1deb36)" d="M 343.275433 92.305714 
L 377.04812 92.305714 
L 377.04812 51.951637 
L 343.275433 51.951637 
z
" style="fill:#96c69a;fill-opacity:0.5;stroke:#ffffff;stroke-linejoin:miter;stroke-width:2;"/>
   </g>
   <g id="patch_15">
    <path clip-path="url(#pf47d1deb36)" d="M 377.04812 92.305714 
L 410.820808 92.305714 
L 410.820808 51.951637 
L 377.04812 51.951637 
z
" style="fill:#96c69a;fill-opacity:0.5;stroke:#ffffff;stroke-linejoin:miter;stroke-width:2;"/>
   </g>
   <g id="patch_16">
    <path clip-path="url(#pf47d1deb36)" d="M 410.820808 92.305714 
L 444.593495 92.305714 
L 444.593495 51.60673 
L 410.820808 51.60673 
z
" style="fill:#96c69a;fill-opacity:0.5;stroke:#ffffff;stroke-linejoin:miter;stroke-width:2;"/>
   </g>
   <g id="patch_17">
    <path clip-path="url(#pf47d1deb36)" d="M 444.593495 92.305714 
L 478.366182 92.305714 
L 478.366182 51.951637 
L 444.593495 51.951637 
z
" style="fill:#96c69a;fill-opacity:0.5;stroke:#ffffff;stroke-linejoin:miter;stroke-width:2;"/>
   </g>
   <g id="patch_18">
    <path clip-path="url(#pf47d1deb36)" d="M 478.366182 92.305714 
L 512.13887 92.305714 
L 512.13887 51.951637 
L 478.366182 51.951637 
z
" style="fill:#96c69a;fill-opacity:0.5;stroke:#ffffff;stroke-linejoin:miter;stroke-width:2;"/>
   </g>
   <g id="patch_19">
    <path clip-path="url(#pf47d1deb36)" d="M 512.13887 92.305714 
L 545.911557 92.305714 
L 545.911557 51.60673 
L 512.13887 51.60673 
z
" style="fill:#96c69a;fill-opacity:0.5;stroke:#ffffff;stroke-linejoin:miter;stroke-width:2;"/>
   </g>
   <g id="patch_20">
    <path d="M 84.914375 92.305714 
L 84.914375 7.2 
" style="fill:none;stroke:#262626;stroke-linecap:square;stroke-linejoin:miter;stroke-width:2.5;"/>
   </g>
   <g id="patch_21">
    <path d="M 84.914375 92.305714 
L 567.863804 92.305714 
" style="fill:none;stroke:#262626;stroke-linecap:square;stroke-linejoin:miter;stroke-width:2.5;"/>
   </g>
  </g>
  <g id="axes_3">
   <g id="patch_22">
    <path d="M 584.517232 602.94 
L 667.784375 602.94 
L 667.784375 109.326857 
L 584.517232 109.326857 
z
" style="fill:none;"/>
   </g>
   <g id="matplotlib.axis_5">
    <g id="xtick_15">
     <g id="text_20">
      <!-- 0 -->
      <g style="fill:#262626;" transform="translate(577.518482 635.156562)scale(0.22 -0.22)">
       <use xlink:href="#DejaVuSans-30"/>
      </g>
     </g>
    </g>
    <g id="xtick_16">
     <g id="text_21">
      <!-- 200 -->
      <g style="fill:#262626;" transform="translate(643.624054 635.156562)scale(0.22 -0.22)">
       <use xlink:href="#DejaVuSans-32"/>
       <use x="63.623047" xlink:href="#DejaVuSans-30"/>
       <use x="127.246094" xlink:href="#DejaVuSans-30"/>
      </g>
     </g>
    </g>
   </g>
   <g id="matplotlib.axis_6">
    <g id="ytick_9"/>
    <g id="ytick_10"/>
    <g id="ytick_11"/>
    <g id="ytick_12"/>
    <g id="ytick_13"/>
    <g id="ytick_14"/>
   </g>
   <g id="patch_23">
    <path clip-path="url(#p97656533c9)" d="M 584.517232 580.503039 
L 586.519809 580.503039 
L 586.519809 566.904881 
L 584.517232 566.904881 
z
" style="fill:#96c69a;fill-opacity:0.5;stroke:#ffffff;stroke-linejoin:miter;stroke-width:1.359816;"/>
   </g>
   <g id="patch_24">
    <path clip-path="url(#p97656533c9)" d="M 584.517232 566.904881 
L 587.32084 566.904881 
L 587.32084 553.306723 
L 584.517232 553.306723 
z
" style="fill:#96c69a;fill-opacity:0.5;stroke:#ffffff;stroke-linejoin:miter;stroke-width:1.359816;"/>
   </g>
   <g id="patch_25">
    <path clip-path="url(#p97656533c9)" d="M 584.517232 553.306723 
L 592.127024 553.306723 
L 592.127024 539.708564 
L 584.517232 539.708564 
z
" style="fill:#96c69a;fill-opacity:0.5;stroke:#ffffff;stroke-linejoin:miter;stroke-width:1.359816;"/>
   </g>
   <g id="patch_26">
    <path clip-path="url(#p97656533c9)" d="M 584.517232 539.708564 
L 602.139908 539.708564 
L 602.139908 526.110406 
L 584.517232 526.110406 
z
" style="fill:#96c69a;fill-opacity:0.5;stroke:#ffffff;stroke-linejoin:miter;stroke-width:1.359816;"/>
   </g>
   <g id="patch_27">
    <path clip-path="url(#p97656533c9)" d="M 584.517232 526.110406 
L 610.951246 526.110406 
L 610.951246 512.512248 
L 584.517232 512.512248 
z
" style="fill:#96c69a;fill-opacity:0.5;stroke:#ffffff;stroke-linejoin:miter;stroke-width:1.359816;"/>
   </g>
   <g id="patch_28">
    <path clip-path="url(#p97656533c9)" d="M 584.517232 512.512248 
L 618.961553 512.512248 
L 618.961553 498.91409 
L 584.517232 498.91409 
z
" style="fill:#96c69a;fill-opacity:0.5;stroke:#ffffff;stroke-linejoin:miter;stroke-width:1.359816;"/>
   </g>
   <g id="patch_29">
    <path clip-path="url(#p97656533c9)" d="M 584.517232 498.91409 
L 620.96413 498.91409 
L 620.96413 485.315932 
L 584.517232 485.315932 
z
" style="fill:#96c69a;fill-opacity:0.5;stroke:#ffffff;stroke-linejoin:miter;stroke-width:1.359816;"/>
   </g>
   <g id="patch_30">
    <path clip-path="url(#p97656533c9)" d="M 584.517232 485.315932 
L 629.374952 485.315932 
L 629.374952 471.717773 
L 584.517232 471.717773 
z
" style="fill:#96c69a;fill-opacity:0.5;stroke:#ffffff;stroke-linejoin:miter;stroke-width:1.359816;"/>
   </g>
   <g id="patch_31">
    <path clip-path="url(#p97656533c9)" d="M 584.517232 471.717773 
L 647.398143 471.717773 
L 647.398143 458.119615 
L 584.517232 458.119615 
z
" style="fill:#96c69a;fill-opacity:0.5;stroke:#ffffff;stroke-linejoin:miter;stroke-width:1.359816;"/>
   </g>
   <g id="patch_32">
    <path clip-path="url(#p97656533c9)" d="M 584.517232 458.119615 
L 642.191444 458.119615 
L 642.191444 444.521457 
L 584.517232 444.521457 
z
" style="fill:#96c69a;fill-opacity:0.5;stroke:#ffffff;stroke-linejoin:miter;stroke-width:1.359816;"/>
   </g>
   <g id="patch_33">
    <path clip-path="url(#p97656533c9)" d="M 584.517232 444.521457 
L 651.403297 444.521457 
L 651.403297 430.923299 
L 584.517232 430.923299 
z
" style="fill:#96c69a;fill-opacity:0.5;stroke:#ffffff;stroke-linejoin:miter;stroke-width:1.359816;"/>
   </g>
   <g id="patch_34">
    <path clip-path="url(#p97656533c9)" d="M 584.517232 430.923299 
L 663.819273 430.923299 
L 663.819273 417.32514 
L 584.517232 417.32514 
z
" style="fill:#96c69a;fill-opacity:0.5;stroke:#ffffff;stroke-linejoin:miter;stroke-width:1.359816;"/>
   </g>
   <g id="patch_35">
    <path clip-path="url(#p97656533c9)" d="M 584.517232 417.32514 
L 654.206904 417.32514 
L 654.206904 403.726982 
L 584.517232 403.726982 
z
" style="fill:#96c69a;fill-opacity:0.5;stroke:#ffffff;stroke-linejoin:miter;stroke-width:1.359816;"/>
   </g>
   <g id="patch_36">
    <path clip-path="url(#p97656533c9)" d="M 584.517232 403.726982 
L 650.201751 403.726982 
L 650.201751 390.128824 
L 584.517232 390.128824 
z
" style="fill:#96c69a;fill-opacity:0.5;stroke:#ffffff;stroke-linejoin:miter;stroke-width:1.359816;"/>
   </g>
   <g id="patch_37">
    <path clip-path="url(#p97656533c9)" d="M 584.517232 390.128824 
L 630.175983 390.128824 
L 630.175983 376.530666 
L 584.517232 376.530666 
z
" style="fill:#96c69a;fill-opacity:0.5;stroke:#ffffff;stroke-linejoin:miter;stroke-width:1.359816;"/>
   </g>
   <g id="patch_38">
    <path clip-path="url(#p97656533c9)" d="M 584.517232 376.530666 
L 630.576498 376.530666 
L 630.576498 362.932508 
L 584.517232 362.932508 
z
" style="fill:#96c69a;fill-opacity:0.5;stroke:#ffffff;stroke-linejoin:miter;stroke-width:1.359816;"/>
   </g>
   <g id="patch_39">
    <path clip-path="url(#p97656533c9)" d="M 584.517232 362.932508 
L 620.163099 362.932508 
L 620.163099 349.334349 
L 584.517232 349.334349 
z
" style="fill:#96c69a;fill-opacity:0.5;stroke:#ffffff;stroke-linejoin:miter;stroke-width:1.359816;"/>
   </g>
   <g id="patch_40">
    <path clip-path="url(#p97656533c9)" d="M 584.517232 349.334349 
L 612.953823 349.334349 
L 612.953823 335.736191 
L 584.517232 335.736191 
z
" style="fill:#96c69a;fill-opacity:0.5;stroke:#ffffff;stroke-linejoin:miter;stroke-width:1.359816;"/>
   </g>
   <g id="patch_41">
    <path clip-path="url(#p97656533c9)" d="M 584.517232 335.736191 
L 606.145061 335.736191 
L 606.145061 322.138033 
L 584.517232 322.138033 
z
" style="fill:#96c69a;fill-opacity:0.5;stroke:#ffffff;stroke-linejoin:miter;stroke-width:1.359816;"/>
   </g>
   <g id="patch_42">
    <path clip-path="url(#p97656533c9)" d="M 584.517232 322.138033 
L 604.943515 322.138033 
L 604.943515 308.539875 
L 584.517232 308.539875 
z
" style="fill:#96c69a;fill-opacity:0.5;stroke:#ffffff;stroke-linejoin:miter;stroke-width:1.359816;"/>
   </g>
   <g id="patch_43">
    <path clip-path="url(#p97656533c9)" d="M 584.517232 308.539875 
L 601.739393 308.539875 
L 601.739393 294.941717 
L 584.517232 294.941717 
z
" style="fill:#96c69a;fill-opacity:0.5;stroke:#ffffff;stroke-linejoin:miter;stroke-width:1.359816;"/>
   </g>
   <g id="patch_44">
    <path clip-path="url(#p97656533c9)" d="M 584.517232 294.941717 
L 593.32857 294.941717 
L 593.32857 281.343558 
L 584.517232 281.343558 
z
" style="fill:#96c69a;fill-opacity:0.5;stroke:#ffffff;stroke-linejoin:miter;stroke-width:1.359816;"/>
   </g>
   <g id="patch_45">
    <path clip-path="url(#p97656533c9)" d="M 584.517232 281.343558 
L 592.928055 281.343558 
L 592.928055 267.7454 
L 584.517232 267.7454 
z
" style="fill:#96c69a;fill-opacity:0.5;stroke:#ffffff;stroke-linejoin:miter;stroke-width:1.359816;"/>
   </g>
   <g id="patch_46">
    <path clip-path="url(#p97656533c9)" d="M 584.517232 267.7454 
L 587.721355 267.7454 
L 587.721355 254.147242 
L 584.517232 254.147242 
z
" style="fill:#96c69a;fill-opacity:0.5;stroke:#ffffff;stroke-linejoin:miter;stroke-width:1.359816;"/>
   </g>
   <g id="patch_47">
    <path clip-path="url(#p97656533c9)" d="M 584.517232 254.147242 
L 586.119294 254.147242 
L 586.119294 240.549084 
L 584.517232 240.549084 
z
" style="fill:#96c69a;fill-opacity:0.5;stroke:#ffffff;stroke-linejoin:miter;stroke-width:1.359816;"/>
   </g>
   <g id="patch_48">
    <path clip-path="url(#p97656533c9)" d="M 584.517232 240.549084 
L 587.32084 240.549084 
L 587.32084 226.950926 
L 584.517232 226.950926 
z
" style="fill:#96c69a;fill-opacity:0.5;stroke:#ffffff;stroke-linejoin:miter;stroke-width:1.359816;"/>
   </g>
   <g id="patch_49">
    <path clip-path="url(#p97656533c9)" d="M 584.517232 226.950926 
L 586.119294 226.950926 
L 586.119294 213.352767 
L 584.517232 213.352767 
z
" style="fill:#96c69a;fill-opacity:0.5;stroke:#ffffff;stroke-linejoin:miter;stroke-width:1.359816;"/>
   </g>
   <g id="patch_50">
    <path clip-path="url(#p97656533c9)" d="M 584.517232 213.352767 
L 585.718778 213.352767 
L 585.718778 199.754609 
L 584.517232 199.754609 
z
" style="fill:#96c69a;fill-opacity:0.5;stroke:#ffffff;stroke-linejoin:miter;stroke-width:1.359816;"/>
   </g>
   <g id="patch_51">
    <path clip-path="url(#p97656533c9)" d="M 584.517232 199.754609 
L 586.119294 199.754609 
L 586.119294 186.156451 
L 584.517232 186.156451 
z
" style="fill:#96c69a;fill-opacity:0.5;stroke:#ffffff;stroke-linejoin:miter;stroke-width:1.359816;"/>
   </g>
   <g id="patch_52">
    <path clip-path="url(#p97656533c9)" d="M 584.517232 186.156451 
L 585.718778 186.156451 
L 585.718778 172.558293 
L 584.517232 172.558293 
z
" style="fill:#96c69a;fill-opacity:0.5;stroke:#ffffff;stroke-linejoin:miter;stroke-width:1.359816;"/>
   </g>
   <g id="patch_53">
    <path clip-path="url(#p97656533c9)" d="M 584.517232 172.558293 
L 584.917748 172.558293 
L 584.917748 158.960135 
L 584.517232 158.960135 
z
" style="fill:#96c69a;fill-opacity:0.5;stroke:#ffffff;stroke-linejoin:miter;stroke-width:1.359816;"/>
   </g>
   <g id="patch_54">
    <path clip-path="url(#p97656533c9)" d="M 584.517232 158.960135 
L 584.917748 158.960135 
L 584.917748 145.361976 
L 584.517232 145.361976 
z
" style="fill:#96c69a;fill-opacity:0.5;stroke:#ffffff;stroke-linejoin:miter;stroke-width:1.359816;"/>
   </g>
   <g id="patch_55">
    <path clip-path="url(#p97656533c9)" d="M 584.517232 145.361976 
L 584.917748 145.361976 
L 584.917748 131.763818 
L 584.517232 131.763818 
z
" style="fill:#96c69a;fill-opacity:0.5;stroke:#ffffff;stroke-linejoin:miter;stroke-width:1.359816;"/>
   </g>
   <g id="patch_56">
    <path d="M 584.517232 602.94 
L 584.517232 109.326857 
" style="fill:none;stroke:#262626;stroke-linecap:square;stroke-linejoin:miter;stroke-width:2.5;"/>
   </g>
   <g id="patch_57">
    <path d="M 584.517232 602.94 
L 667.784375 602.94 
" style="fill:none;stroke:#262626;stroke-linecap:square;stroke-linejoin:miter;stroke-width:2.5;"/>
   </g>
  </g>
 </g>
 <defs>
  <clipPath id="p71b9983e3f">
   <rect height="493.613143" width="482.949429" x="84.914375" y="109.326857"/>
  </clipPath>
  <clipPath id="pf47d1deb36">
   <rect height="85.105714" width="482.949429" x="84.914375" y="7.2"/>
  </clipPath>
  <clipPath id="p97656533c9">
   <rect height="493.613143" width="83.267143" x="584.517232" y="109.326857"/>
  </clipPath>
 </defs>
</svg>
