<?xml version="1.0" encoding="utf-8" standalone="no"?>
<!DOCTYPE svg PUBLIC "-//W3C//DTD SVG 1.1//EN"
  "http://www.w3.org/Graphics/SVG/1.1/DTD/svg11.dtd">
<svg height="675.079375pt" version="1.1" viewBox="0 0 688.771875 675.079375" width="688.771875pt" xmlns="http://www.w3.org/2000/svg" xmlns:xlink="http://www.w3.org/1999/xlink">
 <metadata>
  <rdf:RDF xmlns:cc="http://creativecommons.org/ns#" xmlns:dc="http://purl.org/dc/elements/1.1/" xmlns:rdf="http://www.w3.org/1999/02/22-rdf-syntax-ns#">
   <cc:Work>
    <dc:type rdf:resource="http://purl.org/dc/dcmitype/StillImage"/>
    <dc:date>2021-07-16T22:21:46.856314</dc:date>
    <dc:format>image/svg+xml</dc:format>
    <dc:creator>
     <cc:Agent>
      <dc:title>Matplotlib v3.4.2, https://matplotlib.org/</dc:title>
     </cc:Agent>
    </dc:creator>
   </cc:Work>
  </rdf:RDF>
 </metadata>
 <defs>
  <style type="text/css">*{stroke-linecap:butt;stroke-linejoin:round;}</style>
 </defs>
 <g id="figure_1">
  <g id="patch_1">
   <path d="M 0 675.079375 
L 688.771875 675.079375 
L 688.771875 0 
L 0 0 
z
" style="fill:#ffffff;"/>
  </g>
  <g id="axes_1">
   <g id="patch_2">
    <path d="M 98.911875 603.86 
L 581.687304 603.86 
L 581.687304 109.484571 
L 98.911875 109.484571 
z
" style="fill:none;"/>
   </g>
   <g id="matplotlib.axis_1">
    <g id="xtick_1">
     <g id="text_1">
      <!-- 0 -->
      <g style="fill:#262626;" transform="translate(113.63791 636.076563)scale(0.22 -0.22)">
       <defs>
        <path d="M 2034 4250 
Q 1547 4250 1301 3770 
Q 1056 3291 1056 2328 
Q 1056 1369 1301 889 
Q 1547 409 2034 409 
Q 2525 409 2770 889 
Q 3016 1369 3016 2328 
Q 3016 3291 2770 3770 
Q 2525 4250 2034 4250 
z
M 2034 4750 
Q 2819 4750 3233 4129 
Q 3647 3509 3647 2328 
Q 3647 1150 3233 529 
Q 2819 -91 2034 -91 
Q 1250 -91 836 529 
Q 422 1150 422 2328 
Q 422 3509 836 4129 
Q 1250 4750 2034 4750 
z
" id="DejaVuSans-30" transform="scale(0.015625)"/>
       </defs>
       <use xlink:href="#DejaVuSans-30"/>
      </g>
     </g>
    </g>
    <g id="xtick_2">
     <g id="text_2">
      <!-- 20000 -->
      <g style="fill:#262626;" transform="translate(173.464171 636.076563)scale(0.22 -0.22)">
       <defs>
        <path d="M 1228 531 
L 3431 531 
L 3431 0 
L 469 0 
L 469 531 
Q 828 903 1448 1529 
Q 2069 2156 2228 2338 
Q 2531 2678 2651 2914 
Q 2772 3150 2772 3378 
Q 2772 3750 2511 3984 
Q 2250 4219 1831 4219 
Q 1534 4219 1204 4116 
Q 875 4013 500 3803 
L 500 4441 
Q 881 4594 1212 4672 
Q 1544 4750 1819 4750 
Q 2544 4750 2975 4387 
Q 3406 4025 3406 3419 
Q 3406 3131 3298 2873 
Q 3191 2616 2906 2266 
Q 2828 2175 2409 1742 
Q 1991 1309 1228 531 
z
" id="DejaVuSans-32" transform="scale(0.015625)"/>
       </defs>
       <use xlink:href="#DejaVuSans-32"/>
       <use x="63.623047" xlink:href="#DejaVuSans-30"/>
       <use x="127.246094" xlink:href="#DejaVuSans-30"/>
       <use x="190.869141" xlink:href="#DejaVuSans-30"/>
       <use x="254.492188" xlink:href="#DejaVuSans-30"/>
      </g>
     </g>
    </g>
    <g id="xtick_3">
     <g id="text_3">
      <!-- 40000 -->
      <g style="fill:#262626;" transform="translate(261.285432 636.076563)scale(0.22 -0.22)">
       <defs>
        <path d="M 2419 4116 
L 825 1625 
L 2419 1625 
L 2419 4116 
z
M 2253 4666 
L 3047 4666 
L 3047 1625 
L 3713 1625 
L 3713 1100 
L 3047 1100 
L 3047 0 
L 2419 0 
L 2419 1100 
L 313 1100 
L 313 1709 
L 2253 4666 
z
" id="DejaVuSans-34" transform="scale(0.015625)"/>
       </defs>
       <use xlink:href="#DejaVuSans-34"/>
       <use x="63.623047" xlink:href="#DejaVuSans-30"/>
       <use x="127.246094" xlink:href="#DejaVuSans-30"/>
       <use x="190.869141" xlink:href="#DejaVuSans-30"/>
       <use x="254.492188" xlink:href="#DejaVuSans-30"/>
      </g>
     </g>
    </g>
    <g id="xtick_4">
     <g id="text_4">
      <!-- 60000 -->
      <g style="fill:#262626;" transform="translate(349.106693 636.076563)scale(0.22 -0.22)">
       <defs>
        <path d="M 2113 2584 
Q 1688 2584 1439 2293 
Q 1191 2003 1191 1497 
Q 1191 994 1439 701 
Q 1688 409 2113 409 
Q 2538 409 2786 701 
Q 3034 994 3034 1497 
Q 3034 2003 2786 2293 
Q 2538 2584 2113 2584 
z
M 3366 4563 
L 3366 3988 
Q 3128 4100 2886 4159 
Q 2644 4219 2406 4219 
Q 1781 4219 1451 3797 
Q 1122 3375 1075 2522 
Q 1259 2794 1537 2939 
Q 1816 3084 2150 3084 
Q 2853 3084 3261 2657 
Q 3669 2231 3669 1497 
Q 3669 778 3244 343 
Q 2819 -91 2113 -91 
Q 1303 -91 875 529 
Q 447 1150 447 2328 
Q 447 3434 972 4092 
Q 1497 4750 2381 4750 
Q 2619 4750 2861 4703 
Q 3103 4656 3366 4563 
z
" id="DejaVuSans-36" transform="scale(0.015625)"/>
       </defs>
       <use xlink:href="#DejaVuSans-36"/>
       <use x="63.623047" xlink:href="#DejaVuSans-30"/>
       <use x="127.246094" xlink:href="#DejaVuSans-30"/>
       <use x="190.869141" xlink:href="#DejaVuSans-30"/>
       <use x="254.492188" xlink:href="#DejaVuSans-30"/>
      </g>
     </g>
    </g>
    <g id="xtick_5">
     <g id="text_5">
      <!-- 80000 -->
      <g style="fill:#262626;" transform="translate(436.927955 636.076563)scale(0.22 -0.22)">
       <defs>
        <path d="M 2034 2216 
Q 1584 2216 1326 1975 
Q 1069 1734 1069 1313 
Q 1069 891 1326 650 
Q 1584 409 2034 409 
Q 2484 409 2743 651 
Q 3003 894 3003 1313 
Q 3003 1734 2745 1975 
Q 2488 2216 2034 2216 
z
M 1403 2484 
Q 997 2584 770 2862 
Q 544 3141 544 3541 
Q 544 4100 942 4425 
Q 1341 4750 2034 4750 
Q 2731 4750 3128 4425 
Q 3525 4100 3525 3541 
Q 3525 3141 3298 2862 
Q 3072 2584 2669 2484 
Q 3125 2378 3379 2068 
Q 3634 1759 3634 1313 
Q 3634 634 3220 271 
Q 2806 -91 2034 -91 
Q 1263 -91 848 271 
Q 434 634 434 1313 
Q 434 1759 690 2068 
Q 947 2378 1403 2484 
z
M 1172 3481 
Q 1172 3119 1398 2916 
Q 1625 2713 2034 2713 
Q 2441 2713 2670 2916 
Q 2900 3119 2900 3481 
Q 2900 3844 2670 4047 
Q 2441 4250 2034 4250 
Q 1625 4250 1398 4047 
Q 1172 3844 1172 3481 
z
" id="DejaVuSans-38" transform="scale(0.015625)"/>
       </defs>
       <use xlink:href="#DejaVuSans-38"/>
       <use x="63.623047" xlink:href="#DejaVuSans-30"/>
       <use x="127.246094" xlink:href="#DejaVuSans-30"/>
       <use x="190.869141" xlink:href="#DejaVuSans-30"/>
       <use x="254.492188" xlink:href="#DejaVuSans-30"/>
      </g>
     </g>
    </g>
    <g id="xtick_6">
     <g id="text_6">
      <!-- 100000 -->
      <g style="fill:#262626;" transform="translate(517.750466 636.076563)scale(0.22 -0.22)">
       <defs>
        <path d="M 794 531 
L 1825 531 
L 1825 4091 
L 703 3866 
L 703 4441 
L 1819 4666 
L 2450 4666 
L 2450 531 
L 3481 531 
L 3481 0 
L 794 0 
L 794 531 
z
" id="DejaVuSans-31" transform="scale(0.015625)"/>
       </defs>
       <use xlink:href="#DejaVuSans-31"/>
       <use x="63.623047" xlink:href="#DejaVuSans-30"/>
       <use x="127.246094" xlink:href="#DejaVuSans-30"/>
       <use x="190.869141" xlink:href="#DejaVuSans-30"/>
       <use x="254.492188" xlink:href="#DejaVuSans-30"/>
       <use x="318.115234" xlink:href="#DejaVuSans-30"/>
      </g>
     </g>
    </g>
    <g id="text_7">
     <!-- MDTU -->
     <g style="fill:#262626;" transform="translate(304.593964 662.888125)scale(0.24 -0.24)">
      <defs>
       <path d="M 628 4666 
L 1569 4666 
L 2759 1491 
L 3956 4666 
L 4897 4666 
L 4897 0 
L 4281 0 
L 4281 4097 
L 3078 897 
L 2444 897 
L 1241 4097 
L 1241 0 
L 628 0 
L 628 4666 
z
" id="DejaVuSans-4d" transform="scale(0.015625)"/>
       <path d="M 1259 4147 
L 1259 519 
L 2022 519 
Q 2988 519 3436 956 
Q 3884 1394 3884 2338 
Q 3884 3275 3436 3711 
Q 2988 4147 2022 4147 
L 1259 4147 
z
M 628 4666 
L 1925 4666 
Q 3281 4666 3915 4102 
Q 4550 3538 4550 2338 
Q 4550 1131 3912 565 
Q 3275 0 1925 0 
L 628 0 
L 628 4666 
z
" id="DejaVuSans-44" transform="scale(0.015625)"/>
       <path d="M -19 4666 
L 3928 4666 
L 3928 4134 
L 2272 4134 
L 2272 0 
L 1638 0 
L 1638 4134 
L -19 4134 
L -19 4666 
z
" id="DejaVuSans-54" transform="scale(0.015625)"/>
       <path d="M 556 4666 
L 1191 4666 
L 1191 1831 
Q 1191 1081 1462 751 
Q 1734 422 2344 422 
Q 2950 422 3222 751 
Q 3494 1081 3494 1831 
L 3494 4666 
L 4128 4666 
L 4128 1753 
Q 4128 841 3676 375 
Q 3225 -91 2344 -91 
Q 1459 -91 1007 375 
Q 556 841 556 1753 
L 556 4666 
z
" id="DejaVuSans-55" transform="scale(0.015625)"/>
      </defs>
      <use xlink:href="#DejaVuSans-4d"/>
      <use x="86.279297" xlink:href="#DejaVuSans-44"/>
      <use x="163.28125" xlink:href="#DejaVuSans-54"/>
      <use x="224.365234" xlink:href="#DejaVuSans-55"/>
     </g>
    </g>
   </g>
   <g id="matplotlib.axis_2">
    <g id="ytick_1">
     <g id="text_8">
      <!-- 0.25 -->
      <g style="fill:#262626;" transform="translate(34.4275 568.901509)scale(0.22 -0.22)">
       <defs>
        <path d="M 684 794 
L 1344 794 
L 1344 0 
L 684 0 
L 684 794 
z
" id="DejaVuSans-2e" transform="scale(0.015625)"/>
        <path d="M 691 4666 
L 3169 4666 
L 3169 4134 
L 1269 4134 
L 1269 2991 
Q 1406 3038 1543 3061 
Q 1681 3084 1819 3084 
Q 2600 3084 3056 2656 
Q 3513 2228 3513 1497 
Q 3513 744 3044 326 
Q 2575 -91 1722 -91 
Q 1428 -91 1123 -41 
Q 819 9 494 109 
L 494 744 
Q 775 591 1075 516 
Q 1375 441 1709 441 
Q 2250 441 2565 725 
Q 2881 1009 2881 1497 
Q 2881 1984 2565 2268 
Q 2250 2553 1709 2553 
Q 1456 2553 1204 2497 
Q 953 2441 691 2322 
L 691 4666 
z
" id="DejaVuSans-35" transform="scale(0.015625)"/>
       </defs>
       <use xlink:href="#DejaVuSans-30"/>
       <use x="63.623047" xlink:href="#DejaVuSans-2e"/>
       <use x="95.410156" xlink:href="#DejaVuSans-32"/>
       <use x="159.033203" xlink:href="#DejaVuSans-35"/>
      </g>
     </g>
    </g>
    <g id="ytick_2">
     <g id="text_9">
      <!-- 0.50 -->
      <g style="fill:#262626;" transform="translate(34.4275 511.700572)scale(0.22 -0.22)">
       <use xlink:href="#DejaVuSans-30"/>
       <use x="63.623047" xlink:href="#DejaVuSans-2e"/>
       <use x="95.410156" xlink:href="#DejaVuSans-35"/>
       <use x="159.033203" xlink:href="#DejaVuSans-30"/>
      </g>
     </g>
    </g>
    <g id="ytick_3">
     <g id="text_10">
      <!-- 0.75 -->
      <g style="fill:#262626;" transform="translate(34.4275 454.499635)scale(0.22 -0.22)">
       <defs>
        <path d="M 525 4666 
L 3525 4666 
L 3525 4397 
L 1831 0 
L 1172 0 
L 2766 4134 
L 525 4134 
L 525 4666 
z
" id="DejaVuSans-37" transform="scale(0.015625)"/>
       </defs>
       <use xlink:href="#DejaVuSans-30"/>
       <use x="63.623047" xlink:href="#DejaVuSans-2e"/>
       <use x="95.410156" xlink:href="#DejaVuSans-37"/>
       <use x="159.033203" xlink:href="#DejaVuSans-35"/>
      </g>
     </g>
    </g>
    <g id="ytick_4">
     <g id="text_11">
      <!-- 1.00 -->
      <g style="fill:#262626;" transform="translate(34.4275 397.298698)scale(0.22 -0.22)">
       <use xlink:href="#DejaVuSans-31"/>
       <use x="63.623047" xlink:href="#DejaVuSans-2e"/>
       <use x="95.410156" xlink:href="#DejaVuSans-30"/>
       <use x="159.033203" xlink:href="#DejaVuSans-30"/>
      </g>
     </g>
    </g>
    <g id="ytick_5">
     <g id="text_12">
      <!-- 1.25 -->
      <g style="fill:#262626;" transform="translate(34.4275 340.097761)scale(0.22 -0.22)">
       <use xlink:href="#DejaVuSans-31"/>
       <use x="63.623047" xlink:href="#DejaVuSans-2e"/>
       <use x="95.410156" xlink:href="#DejaVuSans-32"/>
       <use x="159.033203" xlink:href="#DejaVuSans-35"/>
      </g>
     </g>
    </g>
    <g id="ytick_6">
     <g id="text_13">
      <!-- 1.50 -->
      <g style="fill:#262626;" transform="translate(34.4275 282.896824)scale(0.22 -0.22)">
       <use xlink:href="#DejaVuSans-31"/>
       <use x="63.623047" xlink:href="#DejaVuSans-2e"/>
       <use x="95.410156" xlink:href="#DejaVuSans-35"/>
       <use x="159.033203" xlink:href="#DejaVuSans-30"/>
      </g>
     </g>
    </g>
    <g id="ytick_7">
     <g id="text_14">
      <!-- 1.75 -->
      <g style="fill:#262626;" transform="translate(34.4275 225.695887)scale(0.22 -0.22)">
       <use xlink:href="#DejaVuSans-31"/>
       <use x="63.623047" xlink:href="#DejaVuSans-2e"/>
       <use x="95.410156" xlink:href="#DejaVuSans-37"/>
       <use x="159.033203" xlink:href="#DejaVuSans-35"/>
      </g>
     </g>
    </g>
    <g id="ytick_8">
     <g id="text_15">
      <!-- 2.00 -->
      <g style="fill:#262626;" transform="translate(34.4275 168.49495)scale(0.22 -0.22)">
       <use xlink:href="#DejaVuSans-32"/>
       <use x="63.623047" xlink:href="#DejaVuSans-2e"/>
       <use x="95.410156" xlink:href="#DejaVuSans-30"/>
       <use x="159.033203" xlink:href="#DejaVuSans-30"/>
      </g>
     </g>
    </g>
    <g id="text_16">
     <!-- $E$ -->
     <g style="fill:#262626;" transform="translate(25.43625 364.352286)rotate(-90)scale(0.24 -0.24)">
      <defs>
       <path d="M 1081 4666 
L 4031 4666 
L 3928 4134 
L 1606 4134 
L 1338 2753 
L 3566 2753 
L 3463 2222 
L 1234 2222 
L 909 531 
L 3284 531 
L 3181 0 
L 172 0 
L 1081 4666 
z
" id="DejaVuSans-Oblique-45" transform="scale(0.015625)"/>
      </defs>
      <use transform="translate(0 0.09375)" xlink:href="#DejaVuSans-Oblique-45"/>
     </g>
    </g>
   </g>
   <g id="line2d_1">
    <path clip-path="url(#p9a972336d4)" d="M 120.856213 521.114994 
L 121.075766 425.251827 
L 121.295319 483.283493 
L 121.734425 438.872891 
L 121.953978 483.038833 
L 122.393085 391.16323 
L 122.612638 468.76212 
L 122.832191 474.456067 
L 123.051744 448.075141 
L 123.271297 462.970994 
L 123.490851 503.570199 
L 123.710404 471.265579 
L 123.929957 384.291942 
L 124.14951 486.243419 
L 124.369063 369.963908 
L 124.808169 429.961462 
L 125.027723 352.436021 
L 125.247276 360.533677 
L 125.905935 473.23404 
L 126.125488 396.861921 
L 126.345041 512.554515 
L 126.564595 368.38475 
L 126.784148 529.219019 
L 127.003701 508.084776 
L 127.223254 538.651569 
L 127.442807 378.721048 
L 127.66236 467.458503 
L 127.881914 416.684019 
L 128.101467 450.457878 
L 128.32102 434.710019 
L 128.540573 381.3075 
L 128.979679 474.400664 
L 129.199232 502.671128 
L 129.418786 459.037711 
L 129.638339 469.553646 
L 129.857892 521.471936 
L 130.077445 505.284897 
L 130.296998 460.511821 
L 130.516551 198.718283 
L 130.736105 483.014081 
L 130.955658 337.402684 
L 131.175211 445.023323 
L 131.394764 424.804597 
L 131.614317 384.583437 
L 131.83387 404.515281 
L 132.053423 396.330711 
L 132.272977 430.773706 
L 132.49253 426.094662 
L 132.712083 526.910353 
L 132.931636 400.444249 
L 133.151189 508.68785 
L 133.370742 391.207787 
L 133.590296 492.160567 
L 133.809849 461.21911 
L 134.029402 328.870029 
L 134.248955 532.935837 
L 134.468508 484.593758 
L 134.688061 530.936612 
L 134.907614 437.05428 
L 135.127168 234.503446 
L 135.346721 533.314715 
L 135.566274 531.234915 
L 135.785827 475.661898 
L 136.00538 543.327823 
L 136.224933 433.173539 
L 136.444487 527.058509 
L 136.66404 493.880968 
L 136.883593 502.746861 
L 137.103146 427.812836 
L 137.542252 483.075618 
L 137.761805 478.100956 
L 137.981359 463.382861 
L 138.200912 458.281525 
L 138.420465 429.372306 
L 138.640018 505.183098 
L 138.859571 412.922639 
L 139.079124 478.244469 
L 139.298678 487.285266 
L 139.518231 473.325413 
L 139.737784 344.75619 
L 139.957337 501.729293 
L 140.17689 298.6128 
L 140.396443 416.715876 
L 140.615996 342.280236 
L 140.83555 474.44773 
L 141.055103 439.029281 
L 141.274656 290.140634 
L 141.494209 493.456196 
L 141.713762 287.356586 
L 141.933315 443.848005 
L 142.152869 465.855778 
L 142.372422 449.19742 
L 142.591975 475.693532 
L 142.811528 469.973645 
L 143.031081 488.251243 
L 143.250634 399.976571 
L 143.689741 529.452691 
L 143.909294 398.127358 
L 144.128847 456.17653 
L 144.3484 476.61257 
L 144.567953 345.013369 
L 144.787506 458.400845 
L 145.00706 503.056253 
L 145.226613 499.209756 
L 145.446166 509.399362 
L 145.665719 340.343122 
L 145.885272 506.370726 
L 146.324378 384.854728 
L 146.763485 460.053702 
L 146.983038 559.533335 
L 147.202591 412.852429 
L 147.422144 501.457868 
L 147.641697 531.204333 
L 147.861251 424.105531 
L 148.080804 538.31697 
L 148.300357 447.89764 
L 148.51991 468.808586 
L 148.739463 417.715281 
L 148.959016 447.824992 
L 149.178569 499.896053 
L 149.398123 377.990422 
L 149.837229 498.5953 
L 150.056782 402.529219 
L 150.276335 521.208517 
L 150.495888 189.479631 
L 150.715441 464.60884 
L 150.934995 504.602401 
L 151.374101 394.814012 
L 151.593654 406.293535 
L 151.813207 461.569212 
L 152.252314 349.754227 
L 152.471867 454.120908 
L 152.69142 452.489599 
L 152.910973 434.270274 
L 153.130526 468.079604 
L 153.569632 375.257602 
L 153.789186 468.003606 
L 154.008739 498.951731 
L 154.228292 494.279578 
L 154.447845 425.702361 
L 154.886951 503.812907 
L 155.106505 488.315942 
L 155.326058 423.422327 
L 155.545611 410.953377 
L 155.765164 342.073744 
L 155.984717 466.291322 
L 156.20427 495.495498 
L 156.423823 539.654588 
L 156.643377 461.61154 
L 156.86293 452.567445 
L 157.082483 226.114407 
L 157.302036 495.103806 
L 157.521589 506.703552 
L 157.741142 367.818474 
L 157.960696 505.726845 
L 158.180249 479.514132 
L 158.399802 478.018224 
L 158.619355 413.978352 
L 158.838908 384.427163 
L 159.058461 477.64156 
L 159.278014 511.14174 
L 159.497568 447.738827 
L 159.717121 513.286042 
L 159.936674 525.120563 
L 160.156227 504.401536 
L 160.595333 435.165706 
L 160.814887 333.157376 
L 161.03444 572.532296 
L 161.253993 481.201701 
L 161.473546 535.599628 
L 161.693099 289.796751 
L 161.912652 544.325147 
L 162.351759 402.755902 
L 162.571312 482.240991 
L 163.010418 416.391323 
L 163.229971 541.245025 
L 163.449524 540.797088 
L 163.669078 456.551152 
L 164.108184 521.524771 
L 164.327737 416.325973 
L 164.54729 255.938693 
L 164.766843 266.048684 
L 164.986396 335.149308 
L 165.20595 475.448075 
L 165.645056 456.710928 
L 165.864609 356.949843 
L 166.084162 477.730402 
L 166.523269 405.000782 
L 166.742822 506.492178 
L 166.962375 454.14674 
L 167.401481 470.141976 
L 167.621034 403.305046 
L 167.840587 435.623968 
L 168.279694 540.632436 
L 168.499247 524.081329 
L 168.7188 496.68561 
L 168.938353 423.913186 
L 169.157906 440.69219 
L 169.37746 553.701462 
L 169.597013 532.989402 
L 169.816566 461.127584 
L 170.036119 543.303582 
L 170.255672 490.229623 
L 170.475225 500.75728 
L 170.694778 411.190852 
L 170.914332 475.262794 
L 171.133885 431.607784 
L 171.353438 478.01786 
L 171.572991 426.504729 
L 171.792544 463.208061 
L 172.231651 374.595016 
L 172.451204 534.014657 
L 172.89031 423.553 
L 173.109863 326.728061 
L 173.329416 514.503039 
L 173.548969 520.096434 
L 173.768523 438.809293 
L 173.988076 446.983583 
L 174.207629 477.041608 
L 174.646735 433.741447 
L 174.866288 473.411283 
L 175.085842 318.15137 
L 175.305395 508.411417 
L 175.524948 413.738962 
L 175.744501 531.744965 
L 175.964054 510.22635 
L 176.183607 503.712259 
L 176.40316 381.247429 
L 176.842267 493.998078 
L 177.06182 547.855749 
L 177.281373 452.168654 
L 177.500926 521.808725 
L 177.720479 422.135378 
L 177.940032 469.251356 
L 178.159586 385.610307 
L 178.379139 495.891576 
L 178.598692 513.012873 
L 178.818245 501.016967 
L 179.037798 431.256376 
L 179.257351 321.302829 
L 179.916011 507.792854 
L 180.135564 353.404833 
L 180.355117 392.365368 
L 180.57467 460.731797 
L 180.794223 353.558445 
L 181.013777 349.075991 
L 181.23333 491.749078 
L 181.452883 479.865326 
L 181.672436 389.360174 
L 181.891989 499.602579 
L 182.111542 448.226781 
L 182.331096 536.036321 
L 182.550649 491.478448 
L 182.770202 369.940456 
L 182.989755 361.345971 
L 183.209308 412.783165 
L 183.428861 427.917386 
L 183.648414 526.568038 
L 183.867968 460.182587 
L 184.307074 417.028543 
L 184.526627 386.388749 
L 184.74618 443.741665 
L 184.965733 425.41397 
L 185.185287 474.294163 
L 185.40484 408.626435 
L 185.843946 470.529963 
L 186.063499 322.94196 
L 186.283052 476.62789 
L 186.502605 529.299715 
L 186.722159 261.867951 
L 186.941712 434.094184 
L 187.161265 422.453831 
L 187.380818 350.878065 
L 187.600371 492.953574 
L 187.819924 485.045143 
L 188.259031 374.471895 
L 188.478584 451.870025 
L 188.698137 409.304838 
L 188.91769 479.739097 
L 189.137243 513.984041 
L 189.356796 411.043741 
L 189.57635 515.230346 
L 189.795903 376.55753 
L 190.015456 373.826678 
L 190.235009 498.953413 
L 190.454562 524.82515 
L 190.674115 413.620494 
L 190.893669 459.523684 
L 191.113222 470.22963 
L 191.332775 464.766756 
L 191.552328 532.299962 
L 191.771881 460.154659 
L 191.991434 523.184702 
L 192.210987 536.777178 
L 192.430541 443.676732 
L 192.650094 419.170805 
L 192.869647 440.938898 
L 193.0892 548.280408 
L 193.308753 510.384123 
L 193.528306 417.897583 
L 193.967413 464.97477 
L 194.186966 518.357114 
L 194.406519 476.329618 
L 194.626072 403.597732 
L 194.845625 486.851794 
L 195.065178 319.594814 
L 195.284732 515.434549 
L 195.504285 432.050475 
L 195.723838 434.32537 
L 195.943391 409.467134 
L 196.162944 360.450272 
L 196.382497 479.651642 
L 196.602051 524.063982 
L 196.821604 450.578535 
L 197.041157 489.075898 
L 197.26071 358.768688 
L 197.480263 473.846422 
L 197.699816 406.513962 
L 197.919369 499.135534 
L 198.358476 439.072561 
L 198.578029 450.097176 
L 198.797582 516.085633 
L 199.017135 514.010219 
L 199.236688 422.501728 
L 199.456242 259.4019 
L 199.675795 454.393018 
L 200.114901 409.783884 
L 200.334454 226.724828 
L 200.77356 540.544851 
L 200.993114 461.596358 
L 201.212667 442.282195 
L 201.43222 495.112914 
L 201.651773 325.139715 
L 202.090879 537.909113 
L 202.310432 243.423286 
L 202.749539 516.396218 
L 202.969092 506.922098 
L 203.188645 440.327901 
L 203.408198 523.142618 
L 203.627751 484.472805 
L 203.847305 470.478919 
L 204.066858 377.007374 
L 204.286411 544.756851 
L 204.505964 444.356393 
L 204.725517 501.159059 
L 205.164623 441.796555 
L 205.384177 497.045452 
L 205.823283 413.840923 
L 206.042836 438.347953 
L 206.262389 400.49868 
L 206.481942 409.996211 
L 206.701496 544.616083 
L 206.921049 386.440935 
L 207.140602 317.158031 
L 207.360155 545.356995 
L 207.579708 426.985915 
L 208.018814 518.522762 
L 208.238368 371.515242 
L 208.457921 513.478759 
L 208.677474 496.996904 
L 208.897027 431.969869 
L 209.11658 524.81824 
L 209.336133 489.044871 
L 209.555687 483.720648 
L 209.994793 405.483545 
L 210.214346 468.726765 
L 210.433899 346.720739 
L 210.873005 479.173626 
L 211.092559 432.166659 
L 211.312112 485.744402 
L 211.531665 476.051214 
L 211.751218 454.119539 
L 211.970771 338.19168 
L 212.190324 486.758147 
L 212.629431 444.091977 
L 212.848984 509.977689 
L 213.068537 468.185521 
L 213.28809 244.534487 
L 213.507643 451.578186 
L 213.727196 468.661963 
L 214.166303 377.286751 
L 214.385856 481.58826 
L 214.605409 529.908483 
L 214.824962 466.618189 
L 215.044515 482.538452 
L 215.483622 380.578992 
L 215.703175 505.704753 
L 215.922728 432.387992 
L 216.142281 482.666455 
L 216.361834 480.824021 
L 216.581387 484.619025 
L 216.800941 511.386487 
L 217.020494 501.315761 
L 217.240047 449.98646 
L 217.4596 455.629737 
L 217.679153 465.749419 
L 217.898706 411.257452 
L 218.11826 506.15544 
L 218.337813 472.164026 
L 218.557366 467.729618 
L 218.776919 421.929454 
L 218.996472 508.33809 
L 219.216025 407.967488 
L 219.435578 417.475872 
L 219.655132 371.754772 
L 219.874685 539.771243 
L 220.094238 389.437519 
L 220.313791 514.286829 
L 220.533344 428.89529 
L 220.972451 474.221061 
L 221.192004 455.64421 
L 221.411557 480.698969 
L 221.63111 462.368056 
L 221.850663 517.747277 
L 222.070216 486.561981 
L 222.509323 551.23903 
L 222.728876 479.165879 
L 222.948429 499.762394 
L 223.387535 360.242505 
L 223.607088 490.656644 
L 223.826642 457.163362 
L 224.046195 402.335092 
L 224.265748 419.254067 
L 224.485301 484.040935 
L 224.704854 505.271849 
L 224.924407 445.202776 
L 225.14396 457.826797 
L 225.363514 333.185799 
L 225.583067 306.745509 
L 225.80262 562.949393 
L 226.461279 339.62403 
L 226.680833 425.712835 
L 226.900386 343.035936 
L 227.119939 488.331176 
L 227.339492 374.356017 
L 227.559045 379.962527 
L 227.778598 436.52525 
L 227.998151 548.893535 
L 228.217705 276.608587 
L 228.437258 256.909107 
L 228.656811 424.79132 
L 228.876364 375.997517 
L 229.31547 538.150587 
L 230.193683 303.593358 
L 230.632789 503.361161 
L 231.071896 462.461007 
L 231.291449 446.705858 
L 231.511002 387.587911 
L 231.730555 405.295165 
L 231.950108 439.522559 
L 232.169661 301.471007 
L 232.608768 516.173621 
L 232.828321 476.676751 
L 233.047874 527.3723 
L 233.267427 355.782118 
L 233.48698 550.902321 
L 233.706533 443.755605 
L 233.926087 535.704931 
L 234.14564 387.248307 
L 234.365193 408.102696 
L 234.804299 542.919928 
L 235.023852 495.23224 
L 235.462959 463.276721 
L 235.682512 376.116154 
L 235.902065 374.708207 
L 236.121618 415.573247 
L 236.560724 306.654908 
L 236.999831 489.480128 
L 237.219384 493.668967 
L 237.438937 457.966973 
L 237.65849 524.221663 
L 237.878043 518.912759 
L 238.097596 434.496889 
L 238.31715 394.782627 
L 238.536703 492.24933 
L 238.975809 446.84334 
L 239.195362 318.433406 
L 239.414915 427.041648 
L 239.634469 402.837687 
L 240.293128 512.51523 
L 240.512681 448.42145 
L 240.732234 496.152724 
L 240.951787 420.660033 
L 241.171341 436.893354 
L 241.390894 432.268455 
L 241.610447 517.848689 
L 242.049553 438.963258 
L 242.269106 446.974923 
L 242.48866 510.884507 
L 242.708213 451.699164 
L 242.927766 332.920706 
L 243.147319 451.476471 
L 243.366872 472.179796 
L 243.586425 307.749949 
L 243.805978 293.8413 
L 244.025532 445.355287 
L 244.245085 401.039269 
L 244.464638 519.256192 
L 244.684191 461.039313 
L 244.903744 445.901006 
L 245.123297 406.151926 
L 245.342851 500.839284 
L 245.562404 363.427506 
L 245.781957 507.527415 
L 246.00151 489.420503 
L 246.221063 519.519633 
L 246.440616 390.843444 
L 246.660169 518.753955 
L 246.879723 482.203891 
L 247.099276 473.312207 
L 247.538382 514.619435 
L 247.757935 389.4852 
L 248.197042 498.661746 
L 248.416595 298.475388 
L 248.636148 427.052159 
L 248.855701 487.972967 
L 249.075254 475.721703 
L 249.294807 478.181098 
L 249.51436 482.94437 
L 249.733914 527.427087 
L 249.953467 452.33199 
L 250.17302 511.784055 
L 250.392573 447.654167 
L 250.612126 349.858079 
L 250.831679 319.752176 
L 251.051233 486.275565 
L 251.270786 539.441757 
L 251.490339 516.43576 
L 251.709892 544.944276 
L 251.929445 451.417057 
L 252.148998 457.299779 
L 252.368551 406.617667 
L 252.588105 405.685828 
L 252.807658 455.831387 
L 253.027211 427.333351 
L 253.246764 467.570261 
L 253.466317 449.427112 
L 253.68587 541.734797 
L 254.124977 392.42508 
L 254.34453 432.827343 
L 254.564083 508.848336 
L 254.783636 479.106298 
L 255.442296 318.098595 
L 255.661849 524.654819 
L 255.881402 441.948551 
L 256.100955 466.966664 
L 256.320508 467.978044 
L 256.540061 494.122122 
L 256.759614 448.155915 
L 256.979168 481.723379 
L 257.198721 428.298626 
L 257.637827 517.053275 
L 257.85738 478.075232 
L 258.076933 515.611979 
L 258.296487 414.423508 
L 258.51604 405.642196 
L 258.735593 519.70357 
L 258.955146 502.134584 
L 259.174699 498.937109 
L 259.613805 401.711843 
L 259.833359 484.410173 
L 260.272465 361.429985 
L 260.492018 487.192026 
L 260.711571 493.852697 
L 260.931124 436.22686 
L 261.150678 422.06711 
L 261.370231 489.933923 
L 261.589784 492.343483 
L 261.809337 525.134836 
L 262.02889 492.268911 
L 262.248443 488.895765 
L 262.467996 439.240141 
L 262.68755 485.990267 
L 262.907103 502.684412 
L 263.126656 509.213744 
L 263.346209 453.490933 
L 263.565762 438.291027 
L 263.785315 493.159398 
L 264.004869 502.765844 
L 264.224422 452.72492 
L 264.443975 510.99414 
L 264.883081 473.685172 
L 265.102634 420.08248 
L 265.541741 465.325296 
L 265.761294 446.783375 
L 265.980847 447.286487 
L 266.2004 211.762398 
L 266.419953 488.130305 
L 266.639506 458.886155 
L 266.85906 400.061773 
L 267.078613 520.408123 
L 267.298166 430.068493 
L 267.517719 534.342499 
L 267.956825 363.362134 
L 268.395932 461.196911 
L 268.615485 464.96012 
L 268.835038 464.18175 
L 269.054591 516.201569 
L 269.274144 469.621858 
L 269.493697 373.278974 
L 269.713251 441.822723 
L 269.932804 384.841991 
L 270.152357 390.797342 
L 270.37191 320.681423 
L 270.811016 530.207593 
L 271.030569 527.871819 
L 271.250123 521.596602 
L 271.469676 508.924002 
L 271.689229 409.214629 
L 271.908782 468.545911 
L 272.128335 459.387178 
L 272.347888 465.885694 
L 272.567442 416.785269 
L 272.786995 264.762215 
L 273.006548 482.026122 
L 273.226101 483.26247 
L 273.445654 384.912072 
L 273.665207 511.733526 
L 274.104314 398.141329 
L 274.323867 474.567249 
L 274.54342 475.183798 
L 274.762973 541.561375 
L 275.202079 400.696425 
L 275.421633 434.925638 
L 275.641186 500.40815 
L 275.860739 328.10995 
L 276.080292 503.875618 
L 276.299845 528.313323 
L 276.519398 250.557826 
L 276.738951 462.267718 
L 276.958505 523.934137 
L 277.397611 269.538989 
L 277.617164 445.695241 
L 277.836717 464.610879 
L 278.05627 495.92223 
L 278.275824 458.695528 
L 278.495377 479.220539 
L 278.71493 403.304738 
L 278.934483 459.968612 
L 279.154036 362.984244 
L 279.373589 481.815715 
L 279.593142 423.783512 
L 279.812696 425.466865 
L 280.032249 274.351241 
L 280.251802 326.7354 
L 280.471355 533.833651 
L 280.690908 272.13363 
L 280.910461 467.473965 
L 281.130014 439.204279 
L 281.349568 565.731594 
L 281.569121 426.452757 
L 281.788674 358.406962 
L 282.22778 536.51666 
L 282.447333 478.072689 
L 282.666887 507.163727 
L 282.88644 503.024415 
L 283.105993 490.506632 
L 283.325546 339.431959 
L 283.545099 465.697636 
L 283.764652 432.879458 
L 283.984205 354.019116 
L 284.203759 417.254231 
L 284.423312 254.807648 
L 284.642865 490.341495 
L 284.862418 504.059934 
L 285.081971 440.484307 
L 285.521078 489.583269 
L 285.740631 479.969605 
L 285.960184 404.307594 
L 286.179737 453.78193 
L 286.39929 551.642501 
L 286.618843 403.50063 
L 286.838396 503.431907 
L 287.277503 461.117309 
L 287.497056 475.388935 
L 287.716609 349.452522 
L 287.936162 507.91988 
L 288.375269 430.458113 
L 288.594822 422.319334 
L 288.814375 482.389542 
L 289.033928 217.975597 
L 289.253481 508.704291 
L 289.473034 490.975914 
L 289.692587 416.72552 
L 289.912141 525.379245 
L 290.131694 476.419439 
L 290.5708 444.009978 
L 290.790353 464.071033 
L 291.009906 455.599082 
L 291.22946 497.96275 
L 291.449013 416.527332 
L 291.668566 479.74385 
L 291.888119 447.691902 
L 292.107672 435.41947 
L 292.327225 464.804431 
L 292.546778 473.261569 
L 292.766332 417.046497 
L 292.985885 435.391316 
L 293.205438 478.367022 
L 293.424991 426.954474 
L 293.644544 327.761092 
L 293.864097 485.622878 
L 294.083651 293.084272 
L 294.303204 398.379725 
L 294.522757 329.186103 
L 294.74231 377.593619 
L 294.961863 489.514984 
L 295.400969 457.17904 
L 295.620523 398.356639 
L 295.840076 549.677247 
L 296.498735 418.538075 
L 296.718288 482.614461 
L 296.937842 353.989738 
L 297.157395 448.359823 
L 297.376948 491.450016 
L 297.596501 459.583758 
L 297.816054 490.437228 
L 298.035607 487.954595 
L 298.25516 525.603066 
L 298.474714 347.721045 
L 298.694267 460.005012 
L 298.91382 493.103937 
L 299.133373 462.477996 
L 299.352926 310.336926 
L 299.792033 542.969613 
L 300.011586 516.556269 
L 300.231139 522.284667 
L 300.670245 453.486947 
L 300.889798 503.574135 
L 301.109351 376.671201 
L 301.328905 493.406336 
L 301.548458 485.273333 
L 301.768011 393.299348 
L 301.987564 481.379484 
L 302.207117 519.329266 
L 302.42667 424.859038 
L 302.646224 437.80339 
L 302.865777 508.169388 
L 303.08533 514.35899 
L 303.304883 485.762793 
L 303.524436 520.424407 
L 303.743989 443.275949 
L 303.963542 556.259632 
L 304.402649 474.592828 
L 304.622202 512.855294 
L 304.841755 406.201188 
L 305.061308 402.186533 
L 305.500415 490.718733 
L 305.719968 420.151966 
L 305.939521 387.780819 
L 306.159074 451.244101 
L 306.378627 428.231131 
L 306.59818 497.648941 
L 306.817733 328.79549 
L 307.037287 326.748764 
L 307.25684 406.912007 
L 307.476393 445.227962 
L 307.695946 503.608899 
L 307.915499 459.560346 
L 308.135052 539.139487 
L 308.354605 446.109401 
L 308.574159 510.061008 
L 309.232818 422.659073 
L 309.452371 510.883239 
L 309.671924 417.583985 
L 309.891478 502.977254 
L 310.111031 348.478069 
L 310.330584 538.305085 
L 310.550137 473.254286 
L 310.76969 530.386747 
L 310.989243 474.292347 
L 311.208796 486.027411 
L 311.647903 451.054798 
L 311.867456 365.734236 
L 312.087009 376.528834 
L 312.306562 396.875349 
L 312.526115 530.220782 
L 312.745669 528.624272 
L 312.965222 465.042038 
L 313.184775 575.155337 
L 313.404328 540.015503 
L 313.623881 360.014969 
L 313.843434 510.711866 
L 314.062987 500.909565 
L 314.282541 455.522713 
L 314.502094 520.606178 
L 314.721647 366.82449 
L 314.9412 347.426176 
L 315.160753 226.551643 
L 315.380306 418.92936 
L 315.59986 447.73187 
L 315.819413 437.883267 
L 316.038966 467.303165 
L 316.258519 332.983705 
L 316.478072 401.91033 
L 316.697625 229.447184 
L 316.917178 465.410847 
L 317.136732 138.438417 
L 317.356285 466.882611 
L 317.575838 510.61216 
L 318.014944 364.439306 
L 318.234497 491.240532 
L 318.454051 497.715266 
L 318.893157 382.530393 
L 319.11271 386.841314 
L 319.332263 442.860071 
L 319.551816 532.845036 
L 319.990923 375.015731 
L 320.210476 492.880769 
L 320.430029 529.100917 
L 320.649582 385.514063 
L 320.869135 491.793651 
L 321.088688 525.652635 
L 321.308242 402.768254 
L 321.527795 445.782564 
L 321.747348 427.313094 
L 321.966901 430.482166 
L 322.186454 484.724392 
L 322.406007 497.978757 
L 322.62556 503.910978 
L 323.064667 367.634721 
L 323.28422 479.649984 
L 323.503773 454.289268 
L 323.723326 450.520152 
L 323.942879 477.589901 
L 324.162433 463.867228 
L 324.381986 480.594989 
L 324.601539 424.573974 
L 324.821092 517.628225 
L 325.040645 478.891206 
L 325.260198 465.881694 
L 325.479751 489.055059 
L 325.699305 284.933799 
L 325.918858 423.529072 
L 326.138411 440.632036 
L 326.357964 434.375437 
L 326.577517 478.951612 
L 327.016624 257.898341 
L 327.236177 439.028737 
L 327.45573 477.616667 
L 327.675283 546.368202 
L 328.114389 430.650162 
L 328.333942 430.082518 
L 328.553496 405.426973 
L 328.773049 461.653782 
L 328.992602 455.752342 
L 329.212155 527.159433 
L 329.431708 470.486209 
L 329.651261 466.135935 
L 329.870815 505.213932 
L 330.090368 408.115668 
L 330.309921 468.316184 
L 330.749027 361.88492 
L 330.96858 464.327499 
L 331.188133 460.451946 
L 331.407687 340.028922 
L 331.62724 525.649778 
L 331.846793 453.274757 
L 332.066346 417.713479 
L 332.285899 559.002354 
L 332.725006 506.706493 
L 332.944559 433.488477 
L 333.164112 215.844031 
L 333.383665 482.207513 
L 333.603218 400.207213 
L 333.822771 467.37151 
L 334.042324 291.163702 
L 334.261878 498.71521 
L 334.481431 383.646909 
L 334.700984 421.793818 
L 334.920537 535.250593 
L 335.14009 319.6486 
L 335.359643 509.14952 
L 335.79875 462.363499 
L 336.018303 452.9838 
L 336.237856 395.470055 
L 336.457409 450.893105 
L 336.676962 351.220795 
L 336.896515 344.706417 
L 337.116069 496.211782 
L 337.335622 334.826464 
L 337.555175 472.347474 
L 337.774728 418.740555 
L 337.994281 399.098955 
L 338.213834 487.821108 
L 338.433387 490.612197 
L 338.652941 538.789881 
L 338.872494 438.643911 
L 339.092047 440.418855 
L 339.3116 546.577993 
L 339.531153 429.258337 
L 339.750706 505.147365 
L 339.97026 464.058695 
L 340.189813 537.859736 
L 340.628919 328.066109 
L 340.848472 547.540904 
L 341.068025 462.812241 
L 341.287578 333.865004 
L 341.507132 474.236355 
L 341.726685 506.449654 
L 341.946238 391.01273 
L 342.165791 426.245069 
L 342.385344 347.141156 
L 342.604897 466.544454 
L 342.824451 443.088925 
L 343.044004 520.300742 
L 343.702663 278.90917 
L 343.922216 369.571448 
L 344.141769 536.777398 
L 344.361323 376.134439 
L 344.580876 480.377611 
L 344.800429 400.992031 
L 345.019982 459.471592 
L 345.239535 312.721294 
L 345.459088 396.775226 
L 345.678642 389.08085 
L 345.898195 467.665111 
L 346.337301 424.376383 
L 346.556854 491.577228 
L 346.776407 446.930811 
L 346.99596 425.897534 
L 347.215514 383.603889 
L 347.65462 483.603551 
L 347.874173 422.743172 
L 348.093726 434.650362 
L 348.313279 496.164948 
L 348.532833 397.220684 
L 348.752386 498.939581 
L 348.971939 450.659426 
L 349.191492 449.853919 
L 349.411045 539.065639 
L 349.630598 554.158299 
L 349.850151 314.987393 
L 350.289258 541.893043 
L 350.508811 392.227902 
L 350.728364 580.39374 
L 350.947917 432.72014 
L 351.16747 505.349357 
L 351.387024 507.441391 
L 351.606577 479.739939 
L 351.82613 397.999408 
L 352.045683 451.924477 
L 352.265236 259.328183 
L 352.484789 501.60227 
L 352.704342 474.576542 
L 352.923896 480.68174 
L 353.143449 529.691403 
L 353.363002 403.103322 
L 353.582555 489.348676 
L 353.802108 272.526994 
L 354.021661 438.113062 
L 354.241215 388.71957 
L 354.460768 517.218095 
L 354.680321 417.179066 
L 354.899874 398.310562 
L 355.119427 516.545665 
L 355.778087 375.402053 
L 355.99764 520.335375 
L 356.217193 531.880546 
L 356.436746 417.018388 
L 356.656299 520.313259 
L 356.875852 504.507525 
L 357.095406 381.417734 
L 357.314959 487.616055 
L 357.534512 468.111025 
L 357.754065 351.820245 
L 357.973618 443.757276 
L 358.193171 444.781639 
L 358.412724 383.482692 
L 358.632278 473.25609 
L 358.851831 496.945048 
L 359.071384 322.581688 
L 359.290937 423.159347 
L 359.730043 468.587329 
L 359.949596 447.198657 
L 360.16915 460.724851 
L 360.388703 334.548325 
L 360.608256 448.804649 
L 360.827809 477.261935 
L 361.047362 413.053657 
L 361.266915 500.759878 
L 361.486469 531.467754 
L 361.706022 425.914698 
L 362.145128 456.002148 
L 362.364681 503.011556 
L 362.584234 386.744036 
L 362.803787 420.782052 
L 363.023341 387.580158 
L 363.242894 391.437088 
L 363.462447 513.516236 
L 363.901553 315.127836 
L 364.121106 541.049459 
L 364.34066 448.655879 
L 364.779766 414.525092 
L 364.999319 518.813336 
L 365.218872 478.854104 
L 365.438425 321.03097 
L 365.657978 497.70458 
L 365.877532 387.95005 
L 366.097085 477.37115 
L 366.316638 467.737916 
L 366.536191 401.191484 
L 366.755744 467.890959 
L 366.975297 478.865589 
L 367.194851 470.80927 
L 367.414404 497.563344 
L 367.633957 506.540623 
L 368.073063 442.322276 
L 368.292616 310.426631 
L 368.512169 522.287345 
L 368.731723 297.335183 
L 368.951276 362.201101 
L 369.170829 136.831664 
L 369.390382 432.480463 
L 369.609935 395.895938 
L 369.829488 502.221091 
L 370.049042 457.669616 
L 370.268595 205.76033 
L 370.488148 465.309309 
L 370.707701 482.753778 
L 370.927254 391.922459 
L 371.146807 468.879583 
L 371.36636 465.272484 
L 371.585914 515.880588 
L 371.805467 494.525707 
L 372.02502 411.924757 
L 372.244573 465.546104 
L 372.464126 338.819616 
L 372.903233 469.795679 
L 373.122786 371.060063 
L 373.342339 540.79832 
L 373.561892 450.122591 
L 373.781445 454.403985 
L 374.000998 510.083011 
L 374.220551 395.810091 
L 374.440105 445.924826 
L 374.659658 408.173349 
L 374.879211 551.490659 
L 375.098764 390.396262 
L 375.318317 512.452856 
L 375.53787 445.639467 
L 375.757424 415.556923 
L 376.19653 510.492083 
L 376.416083 493.134029 
L 376.635636 377.685458 
L 376.855189 496.827263 
L 377.074742 493.042675 
L 377.294296 369.484815 
L 377.513849 482.976166 
L 377.733402 505.442484 
L 377.952955 475.603582 
L 378.172508 493.840068 
L 378.392061 407.179614 
L 378.611615 485.946772 
L 378.831168 441.930811 
L 379.050721 464.320652 
L 379.270274 351.603102 
L 379.489827 511.269511 
L 379.70938 440.113794 
L 379.928933 424.012865 
L 380.148487 391.365011 
L 380.36804 529.26778 
L 380.587593 307.143049 
L 380.807146 512.245402 
L 381.246252 447.179799 
L 381.465806 349.393769 
L 381.685359 508.853053 
L 381.904912 493.769952 
L 382.124465 519.603867 
L 382.344018 384.585677 
L 382.563571 374.18318 
L 382.783124 377.689098 
L 383.002678 325.28303 
L 383.222231 480.357764 
L 383.441784 494.452474 
L 383.661337 347.569073 
L 383.88089 356.008149 
L 384.100443 370.009651 
L 384.319997 435.930331 
L 384.53955 468.054517 
L 384.759103 534.032639 
L 384.978656 443.151304 
L 385.417762 515.010144 
L 385.637315 311.056397 
L 385.856869 320.293754 
L 386.076422 462.858503 
L 386.295975 466.879397 
L 386.515528 435.661323 
L 386.735081 441.583937 
L 386.954634 515.320895 
L 387.174187 431.756783 
L 387.393741 473.885291 
L 387.613294 464.545416 
L 387.832847 490.204458 
L 388.0524 394.865467 
L 388.271953 379.44631 
L 388.71106 460.480045 
L 388.930613 456.159775 
L 389.150166 434.765155 
L 389.369719 505.459013 
L 389.589272 438.082154 
L 389.808825 536.854805 
L 390.028378 534.439898 
L 390.247932 389.186389 
L 390.467485 372.290379 
L 390.687038 377.100697 
L 390.906591 410.467569 
L 391.126144 482.383263 
L 391.345697 463.596021 
L 391.565251 389.595034 
L 391.784804 389.472889 
L 392.004357 558.653595 
L 392.22391 487.185761 
L 392.443463 514.506535 
L 392.663016 497.919768 
L 392.882569 493.039397 
L 393.102123 524.624203 
L 393.541229 447.194497 
L 393.760782 458.81024 
L 393.980335 442.033964 
L 394.419442 529.331592 
L 394.858548 459.811358 
L 395.297654 410.637858 
L 395.517207 431.816371 
L 395.73676 429.298336 
L 395.956314 483.50034 
L 396.175867 496.946458 
L 396.39542 535.450517 
L 396.614973 499.833765 
L 397.054079 407.637133 
L 397.273633 518.406864 
L 397.712739 392.991829 
L 397.932292 319.942455 
L 398.151845 478.595798 
L 398.590951 521.693281 
L 398.810505 397.86987 
L 399.030058 464.494625 
L 399.249611 410.609525 
L 399.688717 543.438894 
L 399.90827 504.96108 
L 400.127824 549.632813 
L 400.347377 389.450706 
L 400.56693 457.823257 
L 400.786483 230.153421 
L 401.225589 555.616184 
L 401.445142 452.048543 
L 401.664696 508.106965 
L 401.884249 434.577682 
L 402.103802 524.771991 
L 402.323355 433.130169 
L 402.762461 526.916856 
L 402.982015 424.266839 
L 403.201568 421.809975 
L 403.421121 522.590927 
L 403.640674 535.406675 
L 403.860227 490.465335 
L 404.07978 414.341536 
L 404.299333 470.653111 
L 404.518887 393.388845 
L 404.73844 499.867683 
L 404.957993 433.753703 
L 405.177546 544.524837 
L 405.397099 311.46298 
L 405.616652 459.382818 
L 405.836206 408.27693 
L 406.494865 508.550026 
L 406.714418 504.039439 
L 406.933971 276.522375 
L 407.153524 449.89516 
L 407.373078 500.960491 
L 407.592631 511.524468 
L 407.812184 471.545745 
L 408.031737 487.704851 
L 408.25129 459.936848 
L 408.470843 468.878339 
L 408.690397 420.499559 
L 408.90995 437.411209 
L 409.129503 486.950198 
L 409.349056 418.211356 
L 409.568609 462.856788 
L 409.788162 326.387062 
L 410.007715 445.534258 
L 410.227269 448.785757 
L 410.446822 510.92258 
L 410.666375 483.316467 
L 410.885928 275.78434 
L 411.105481 319.846367 
L 411.325034 460.047254 
L 411.544587 481.926642 
L 411.764141 524.714943 
L 411.983694 407.901214 
L 412.203247 477.452404 
L 412.4228 484.948483 
L 412.642353 340.042542 
L 412.861906 322.925593 
L 413.08146 378.646621 
L 413.301013 476.949131 
L 413.520566 435.132001 
L 413.740119 460.320031 
L 413.959672 459.317516 
L 414.179225 544.459898 
L 414.398778 441.539442 
L 414.618332 521.497231 
L 414.837885 320.451297 
L 415.057438 499.6566 
L 415.276991 479.18105 
L 415.496544 543.168772 
L 415.716097 330.391607 
L 415.935651 518.698826 
L 416.155204 210.572636 
L 416.374757 421.385395 
L 416.813863 487.283607 
L 417.033416 507.195337 
L 417.252969 497.380072 
L 417.472523 422.314544 
L 417.692076 457.678634 
L 417.911629 410.186445 
L 418.131182 131.956182 
L 418.350735 521.584626 
L 418.570288 323.592092 
L 418.789842 438.730764 
L 419.009395 392.988246 
L 419.228948 542.216922 
L 419.448501 304.571238 
L 419.668054 498.168037 
L 419.887607 428.184716 
L 420.10716 513.111813 
L 420.76582 368.982773 
L 420.985373 382.813821 
L 421.204926 463.553521 
L 421.424479 379.426267 
L 421.644033 499.477127 
L 421.863586 406.095658 
L 422.083139 460.583055 
L 422.522245 391.856164 
L 422.741798 470.197915 
L 422.961351 501.095605 
L 423.180905 460.204291 
L 423.400458 491.759749 
L 423.620011 487.823464 
L 423.839564 533.946683 
L 424.059117 483.760121 
L 424.27867 468.067997 
L 424.498224 468.162424 
L 424.717777 505.314737 
L 425.156883 436.600284 
L 425.376436 446.213268 
L 425.595989 523.48208 
L 426.254649 430.439747 
L 426.474202 473.987884 
L 426.693755 371.838765 
L 426.913308 547.451359 
L 427.132861 503.789685 
L 427.352415 399.338775 
L 427.571968 520.387776 
L 427.791521 451.635641 
L 428.011074 509.878452 
L 428.230627 508.634722 
L 428.45018 321.426726 
L 428.669733 429.681837 
L 428.889287 424.06398 
L 429.10884 506.855792 
L 429.328393 435.9307 
L 429.547946 487.811944 
L 429.767499 457.755238 
L 430.206606 438.388892 
L 430.426159 457.895324 
L 430.645712 544.055954 
L 430.865265 511.181273 
L 431.084818 433.714119 
L 431.304371 414.012662 
L 431.523924 415.962025 
L 431.743478 383.704318 
L 431.963031 478.250471 
L 432.182584 413.165806 
L 432.402137 497.007283 
L 432.62169 528.099473 
L 432.841243 386.496878 
L 433.060797 412.144293 
L 433.28035 402.105767 
L 433.499903 223.632933 
L 433.719456 382.298989 
L 433.939009 372.630313 
L 434.158562 471.971112 
L 434.378115 499.477143 
L 434.597669 466.55875 
L 434.817222 543.427012 
L 435.036775 505.177368 
L 435.256328 435.77375 
L 435.475881 429.425296 
L 435.695434 303.177575 
L 435.914988 431.419483 
L 436.134541 348.675199 
L 436.573647 490.706391 
L 436.7932 508.536531 
L 437.012753 465.831349 
L 437.232306 511.994082 
L 437.45186 459.244766 
L 437.671413 511.673373 
L 437.890966 484.805562 
L 438.110519 496.641696 
L 438.330072 493.967433 
L 438.549625 446.349886 
L 438.769178 512.082522 
L 439.208285 377.180738 
L 439.647391 527.846733 
L 439.866944 522.355749 
L 440.086497 486.477545 
L 440.306051 539.658907 
L 440.525604 515.333906 
L 440.745157 344.870976 
L 440.96471 479.657761 
L 441.184263 356.039252 
L 441.403816 514.219505 
L 441.623369 413.862447 
L 442.062476 505.628428 
L 442.282029 401.096677 
L 442.501582 384.399258 
L 442.721135 387.524474 
L 442.940688 464.882081 
L 443.160242 499.478014 
L 443.379795 385.776391 
L 443.599348 419.701649 
L 443.818901 405.090863 
L 444.038454 528.365624 
L 444.47756 368.02479 
L 444.697114 488.537347 
L 444.916667 462.094535 
L 445.13622 537.914261 
L 445.575326 441.142382 
L 445.794879 411.636297 
L 446.014433 413.979512 
L 446.233986 354.428282 
L 446.453539 489.87485 
L 446.673092 551.824013 
L 446.892645 511.550614 
L 447.112198 503.570977 
L 447.331751 309.647655 
L 447.551305 484.311455 
L 447.990411 383.511123 
L 448.209964 427.588363 
L 448.429517 499.939431 
L 448.64907 503.407695 
L 448.868624 483.958502 
L 449.088177 509.024695 
L 449.30773 480.033215 
L 449.527283 481.249445 
L 449.746836 511.488697 
L 449.966389 447.77418 
L 450.185942 434.705835 
L 450.405496 403.126908 
L 450.625049 502.471021 
L 450.844602 344.500033 
L 451.283708 514.902405 
L 451.503261 326.762403 
L 451.722815 482.611089 
L 451.942368 462.588988 
L 452.161921 455.300571 
L 452.381474 496.171734 
L 452.82058 480.13743 
L 453.040133 431.839617 
L 453.259687 493.114332 
L 453.47924 488.642284 
L 453.918346 417.91108 
L 454.137899 454.93625 
L 454.357452 270.974216 
L 454.577006 435.424823 
L 455.016112 492.094034 
L 455.235665 390.402167 
L 455.455218 396.972331 
L 455.674771 494.260568 
L 455.894324 483.380981 
L 456.113878 456.323302 
L 456.333431 332.261098 
L 456.552984 447.994245 
L 456.772537 351.331093 
L 456.99209 368.662083 
L 457.431197 522.583998 
L 457.65075 336.763118 
L 457.870303 462.276397 
L 458.089856 403.0289 
L 458.309409 383.088972 
L 458.748515 522.353491 
L 458.968069 496.553017 
L 459.187622 557.769445 
L 459.846281 257.676881 
L 460.065834 464.28036 
L 460.285388 506.759984 
L 460.724494 400.373968 
L 460.944047 471.82246 
L 461.1636 460.016072 
L 461.383153 476.179765 
L 461.602706 455.172595 
L 461.82226 345.880771 
L 462.041813 499.848166 
L 462.261366 477.8368 
L 462.700472 555.332104 
L 462.920025 494.144327 
L 463.139579 491.921535 
L 463.359132 406.48825 
L 463.578685 437.276757 
L 463.798238 496.041244 
L 464.017791 523.664161 
L 464.456897 456.527228 
L 464.676451 519.756389 
L 464.896004 522.207885 
L 465.33511 393.077829 
L 465.554663 511.613754 
L 465.774216 480.791685 
L 465.993769 519.624914 
L 466.432876 343.35167 
L 466.652429 425.624076 
L 466.871982 398.321695 
L 467.091535 328.261379 
L 467.311088 440.313305 
L 467.530642 330.586389 
L 467.750195 350.09475 
L 467.969748 281.991776 
L 468.189301 492.876308 
L 468.408854 502.664665 
L 468.628407 376.810709 
L 468.84796 507.065839 
L 469.067514 527.010061 
L 469.287067 521.453941 
L 469.50662 429.680319 
L 469.726173 396.942517 
L 469.945726 519.821268 
L 470.165279 432.201485 
L 470.384833 512.611848 
L 470.604386 434.786749 
L 471.043492 538.921649 
L 471.263045 514.795539 
L 471.482598 505.751125 
L 471.702151 538.415376 
L 471.921705 522.31725 
L 472.141258 469.915547 
L 472.360811 561.516826 
L 472.580364 417.536569 
L 472.799917 478.775371 
L 473.01947 482.83945 
L 473.239024 422.142409 
L 473.458577 402.757506 
L 473.67813 479.071556 
L 473.897683 494.40873 
L 474.117236 377.647198 
L 474.336789 494.683911 
L 474.556342 503.545072 
L 474.775896 287.665415 
L 475.215002 519.758795 
L 475.434555 485.772315 
L 475.654108 425.43107 
L 476.093215 391.417832 
L 476.312768 437.856505 
L 476.532321 428.529405 
L 476.751874 473.105924 
L 476.971427 419.477563 
L 477.19098 415.377008 
L 477.410533 426.359175 
L 477.630087 522.391764 
L 477.84964 444.62276 
L 478.069193 466.703419 
L 478.288746 533.829188 
L 478.508299 366.376353 
L 478.727852 352.579263 
L 478.947406 465.625234 
L 479.166959 310.844678 
L 479.386512 389.591966 
L 479.606065 377.859601 
L 479.825618 532.606475 
L 480.264724 323.848105 
L 480.484278 409.59652 
L 480.703831 538.994253 
L 481.142937 392.599606 
L 481.36249 524.508068 
L 481.582043 532.372802 
L 481.801597 399.207517 
L 482.02115 513.69357 
L 482.240703 340.790051 
L 482.460256 496.328321 
L 482.679809 480.631181 
L 482.899362 527.023222 
L 483.118915 502.042763 
L 483.338469 505.573734 
L 483.558022 471.228314 
L 483.777575 508.333996 
L 483.997128 485.515821 
L 484.216681 540.280528 
L 484.436234 393.457289 
L 484.655788 460.138911 
L 484.875341 469.944138 
L 485.094894 498.067883 
L 485.314447 496.946489 
L 485.534 469.408564 
L 485.753553 466.918872 
L 486.19266 498.193035 
L 486.631766 338.004093 
L 486.851319 505.227421 
L 487.070872 502.585701 
L 487.290425 505.774134 
L 487.509979 429.864819 
L 487.729532 455.309476 
L 487.949085 546.191229 
L 488.168638 513.034847 
L 488.388191 534.686188 
L 488.607744 425.088841 
L 488.827297 468.031034 
L 489.046851 366.087453 
L 489.266404 195.767546 
L 489.485957 484.95771 
L 489.70551 511.078818 
L 490.144616 402.320311 
L 490.364169 482.834561 
L 490.583723 514.664482 
L 490.803276 446.990084 
L 491.022829 498.353003 
L 491.461935 268.977128 
L 491.681488 420.162925 
L 491.901042 418.769777 
L 492.120595 375.244517 
L 492.340148 517.922076 
L 492.559701 466.205482 
L 492.779254 442.512553 
L 492.998807 482.906122 
L 493.21836 465.078963 
L 493.437914 456.807381 
L 493.657467 492.045125 
L 494.096573 454.279097 
L 494.316126 446.21361 
L 494.535679 448.928826 
L 494.755233 529.874034 
L 494.974786 467.20231 
L 495.194339 452.811458 
L 495.413892 531.237086 
L 495.633445 406.663432 
L 496.072551 477.136871 
L 496.292105 461.038433 
L 496.731211 496.808582 
L 496.950764 350.085779 
L 497.170317 473.66904 
L 497.38987 496.903508 
L 497.609424 449.292177 
L 497.828977 458.533162 
L 498.04853 271.641553 
L 498.268083 431.079842 
L 498.487636 448.061978 
L 498.707189 368.609552 
L 498.926742 464.745962 
L 499.146296 481.20264 
L 499.365849 410.487213 
L 499.585402 518.609977 
L 499.804955 304.23813 
L 500.024508 496.493074 
L 500.244061 501.39211 
L 500.463615 319.757307 
L 500.683168 452.120423 
L 500.902721 369.838892 
L 501.122274 486.639469 
L 501.341827 377.016199 
L 501.56138 474.019711 
L 502.000487 442.542201 
L 502.22004 514.529589 
L 502.878699 448.495558 
L 503.317806 329.247332 
L 503.537359 495.64901 
L 503.756912 380.967045 
L 503.976465 472.920615 
L 504.196018 296.6072 
L 504.415571 492.828745 
L 504.635124 457.180282 
L 504.854678 458.798183 
L 505.074231 539.589307 
L 505.293784 427.088846 
L 505.513337 547.780856 
L 505.73289 483.129844 
L 505.952443 544.017525 
L 506.39155 215.214873 
L 506.611103 449.324103 
L 506.830656 547.342236 
L 507.050209 535.518263 
L 507.269762 399.006839 
L 507.489315 352.104278 
L 507.928422 526.937872 
L 508.147975 397.719094 
L 508.367528 398.789276 
L 508.587081 409.831418 
L 508.806634 488.216205 
L 509.245741 405.803853 
L 509.465294 466.771444 
L 509.684847 347.886933 
L 509.9044 350.115424 
L 510.123953 528.461537 
L 510.343506 380.698757 
L 510.56306 416.277079 
L 511.002166 537.648141 
L 511.221719 456.939947 
L 511.441272 449.780797 
L 511.660825 408.999961 
L 512.099932 502.807007 
L 512.319485 451.18231 
L 512.539038 461.852349 
L 512.758591 286.0241 
L 512.978144 496.606771 
L 513.197697 443.606063 
L 513.417251 469.560187 
L 513.636804 480.816435 
L 513.856357 394.002832 
L 514.07591 261.386141 
L 514.295463 442.518947 
L 514.73457 546.461483 
L 514.954123 519.571577 
L 515.173676 173.343563 
L 515.393229 476.368805 
L 515.612782 522.42203 
L 516.051888 375.356186 
L 516.271442 527.785975 
L 516.710548 388.466674 
L 516.930101 487.538641 
L 517.149654 317.577649 
L 517.369207 428.338334 
L 517.58876 422.71023 
L 517.808314 385.068856 
L 518.027867 470.731326 
L 518.24742 476.619419 
L 518.466973 463.47344 
L 518.906079 344.784695 
L 519.125633 527.996671 
L 519.345186 397.330161 
L 519.564739 434.731445 
L 519.784292 522.472504 
L 520.442951 451.750872 
L 520.662505 481.364965 
L 520.882058 437.41572 
L 521.321164 527.841507 
L 521.540717 444.859919 
L 521.76027 471.859573 
L 521.979824 437.812634 
L 522.199377 477.995237 
L 522.41893 225.730772 
L 522.638483 431.727074 
L 522.858036 466.306501 
L 523.077589 396.458287 
L 523.297142 509.292888 
L 523.516696 363.288527 
L 523.736249 521.587357 
L 524.394908 366.614918 
L 524.614461 490.789845 
L 524.834015 497.014819 
L 525.053568 394.439454 
L 525.492674 501.676484 
L 525.712227 490.624679 
L 525.93178 450.881474 
L 526.370887 535.351317 
L 526.59044 524.281321 
L 526.809993 459.975305 
L 527.029546 447.22491 
L 527.249099 533.393427 
L 527.468652 511.679396 
L 527.688206 440.845564 
L 527.907759 499.566806 
L 528.127312 506.650732 
L 528.346865 518.716345 
L 528.566418 356.957566 
L 528.785971 402.340308 
L 529.005524 477.312783 
L 529.225078 435.649456 
L 529.444631 512.889445 
L 529.664184 529.413701 
L 529.883737 370.026937 
L 530.10329 339.265878 
L 530.542397 560.795442 
L 530.76195 501.235105 
L 530.981503 362.191689 
L 531.201056 511.528279 
L 531.640162 432.117304 
L 531.859715 490.356062 
L 532.079269 438.222832 
L 532.298822 416.520328 
L 532.518375 306.426869 
L 532.737928 445.524435 
L 532.957481 449.399299 
L 533.177034 392.307202 
L 533.396588 464.564003 
L 533.616141 581.38839 
L 533.835694 495.46608 
L 534.055247 491.796082 
L 534.2748 319.761854 
L 534.494353 489.521709 
L 534.713906 397.002432 
L 535.153013 469.518856 
L 535.372566 367.485867 
L 535.592119 395.343415 
L 535.811672 510.059091 
L 536.031225 491.760011 
L 536.250779 388.299905 
L 536.470332 386.559329 
L 536.689885 440.126641 
L 536.909438 428.084588 
L 537.128991 462.600938 
L 537.348544 284.455379 
L 537.568097 535.423559 
L 538.007204 312.533723 
L 538.226757 548.259698 
L 538.665863 339.637236 
L 538.885416 478.77962 
L 539.10497 541.653906 
L 539.324523 425.526592 
L 539.763629 519.025423 
L 539.983182 488.500217 
L 540.202735 488.758569 
L 540.422288 500.563308 
L 540.641842 459.865447 
L 540.861395 479.260212 
L 541.080948 422.856326 
L 541.300501 481.233828 
L 541.520054 499.130675 
L 541.739607 488.772729 
L 541.95916 410.296495 
L 542.178714 376.484802 
L 542.61782 532.204081 
L 542.837373 337.681454 
L 543.056926 494.571372 
L 543.276479 458.601564 
L 543.496033 402.903735 
L 543.715586 505.47355 
L 543.935139 427.923517 
L 544.154692 503.989629 
L 544.374245 422.819185 
L 544.593798 190.992046 
L 544.813351 518.480053 
L 545.032905 487.978392 
L 545.252458 510.435551 
L 545.472011 521.284836 
L 545.691564 384.668575 
L 545.911117 378.838772 
L 546.13067 468.822277 
L 546.350224 507.063195 
L 546.78933 390.736002 
L 547.008883 474.739525 
L 547.228436 373.473418 
L 547.447989 457.983817 
L 547.667542 459.172854 
L 547.887096 526.399523 
L 548.106649 499.015837 
L 548.326202 535.420985 
L 548.545755 498.979606 
L 548.765308 407.473523 
L 548.984861 437.721704 
L 549.204415 350.149894 
L 549.423968 508.444731 
L 549.643521 488.069597 
L 549.863074 514.725063 
L 550.082627 429.653266 
L 550.30218 541.321048 
L 550.521733 532.228337 
L 550.741287 471.824015 
L 550.96084 536.449283 
L 551.180393 492.624148 
L 551.399946 475.791953 
L 551.619499 442.225806 
L 551.839052 386.460118 
L 552.058606 267.67944 
L 552.278159 387.072965 
L 552.497712 384.199884 
L 552.717265 530.189549 
L 552.936818 406.607455 
L 553.156371 453.772416 
L 553.375924 534.439035 
L 553.595478 543.968658 
L 553.815031 338.788208 
L 554.034584 407.076534 
L 554.254137 410.453004 
L 554.47369 200.954221 
L 554.693243 487.85814 
L 554.912797 364.803892 
L 555.13235 398.781079 
L 555.351903 460.359912 
L 555.571456 439.131217 
L 555.791009 452.887945 
L 556.010562 414.535501 
L 556.230115 487.291099 
L 556.449669 424.877335 
L 556.669222 440.616795 
L 557.108328 526.084909 
L 557.327881 367.298697 
L 557.547434 479.845017 
L 557.766988 464.003389 
L 557.986541 473.761404 
L 558.206094 423.31179 
L 558.425647 486.625796 
L 558.6452 484.742238 
L 558.864753 453.316282 
L 559.084306 502.07733 
L 559.30386 451.388297 
L 559.523413 323.529231 
L 559.742966 478.856633 
L 559.742966 478.856633 
" style="fill:none;stroke:#96c69a;stroke-linecap:round;stroke-width:3;"/>
   </g>
   <g id="line2d_2"/>
   <g id="patch_3">
    <path d="M 98.911875 603.86 
L 98.911875 109.484571 
" style="fill:none;stroke:#262626;stroke-linecap:square;stroke-linejoin:miter;stroke-width:2.5;"/>
   </g>
   <g id="patch_4">
    <path d="M 98.911875 603.86 
L 581.687304 603.86 
" style="fill:none;stroke:#262626;stroke-linecap:square;stroke-linejoin:miter;stroke-width:2.5;"/>
   </g>
   <g id="legend_1">
    <g id="patch_5">
     <path d="M 528.771679 598.86 
L 574.687304 598.86 
Q 576.687304 598.86 576.687304 596.86 
L 576.687304 554.954375 
Q 576.687304 552.954375 574.687304 552.954375 
L 528.771679 552.954375 
Q 526.771679 552.954375 526.771679 554.954375 
L 526.771679 596.86 
Q 526.771679 598.86 528.771679 598.86 
z
" style="fill:#ffffff;opacity:0.8;stroke:#cccccc;stroke-linejoin:miter;stroke-width:2;"/>
    </g>
    <g id="text_17">
     <!-- $n_\tau$ -->
     <g style="fill:#262626;" transform="translate(538.649491 575.190625)scale(0.24 -0.24)">
      <defs>
       <path d="M 3566 2113 
L 3156 0 
L 2578 0 
L 2988 2091 
Q 3016 2238 3031 2350 
Q 3047 2463 3047 2528 
Q 3047 2791 2881 2937 
Q 2716 3084 2419 3084 
Q 1956 3084 1622 2776 
Q 1288 2469 1184 1941 
L 800 0 
L 225 0 
L 903 3500 
L 1478 3500 
L 1363 2950 
Q 1603 3253 1940 3418 
Q 2278 3584 2650 3584 
Q 3113 3584 3367 3334 
Q 3622 3084 3622 2631 
Q 3622 2519 3608 2391 
Q 3594 2263 3566 2113 
z
" id="DejaVuSans-Oblique-6e" transform="scale(0.015625)"/>
       <path d="M 2103 638 
Q 2188 488 2525 488 
L 2800 488 
L 2706 0 
L 2363 0 
Q 1800 0 1600 300 
Q 1403 606 1534 1269 
L 1856 2925 
L 541 2925 
L 653 3500 
L 3881 3500 
L 3769 2925 
L 2444 2925 
L 2113 1234 
Q 2025 781 2103 638 
z
" id="DejaVuSans-Oblique-3c4" transform="scale(0.015625)"/>
      </defs>
      <use xlink:href="#DejaVuSans-Oblique-6e"/>
      <use transform="translate(63.378906 -16.40625)scale(0.7)" xlink:href="#DejaVuSans-Oblique-3c4"/>
     </g>
    </g>
    <g id="line2d_3">
     <path d="M 530.771679 589.280313 
L 550.771679 589.280313 
" style="fill:none;stroke:#96c69a;stroke-linecap:round;stroke-width:3;"/>
    </g>
    <g id="line2d_4"/>
    <g id="text_18">
     <!-- 20 -->
     <g style="fill:#262626;" transform="translate(558.771679 592.780313)scale(0.1 -0.1)">
      <defs>
       <path d="M 1844 884 
L 3897 884 
L 3897 0 
L 506 0 
L 506 884 
L 2209 2388 
Q 2438 2594 2547 2791 
Q 2656 2988 2656 3200 
Q 2656 3528 2436 3728 
Q 2216 3928 1850 3928 
Q 1569 3928 1234 3808 
Q 900 3688 519 3450 
L 519 4475 
Q 925 4609 1322 4679 
Q 1719 4750 2100 4750 
Q 2938 4750 3402 4381 
Q 3866 4013 3866 3353 
Q 3866 2972 3669 2642 
Q 3472 2313 2841 1759 
L 1844 884 
z
" id="DejaVuSans-Bold-32" transform="scale(0.015625)"/>
       <path d="M 2944 2338 
Q 2944 3213 2780 3570 
Q 2616 3928 2228 3928 
Q 1841 3928 1675 3570 
Q 1509 3213 1509 2338 
Q 1509 1453 1675 1090 
Q 1841 728 2228 728 
Q 2613 728 2778 1090 
Q 2944 1453 2944 2338 
z
M 4147 2328 
Q 4147 1169 3647 539 
Q 3147 -91 2228 -91 
Q 1306 -91 806 539 
Q 306 1169 306 2328 
Q 306 3491 806 4120 
Q 1306 4750 2228 4750 
Q 3147 4750 3647 4120 
Q 4147 3491 4147 2328 
z
" id="DejaVuSans-Bold-30" transform="scale(0.015625)"/>
      </defs>
      <use xlink:href="#DejaVuSans-Bold-32"/>
      <use x="69.580078" xlink:href="#DejaVuSans-Bold-30"/>
     </g>
    </g>
   </g>
  </g>
  <g id="axes_2">
   <g id="patch_6">
    <path d="M 98.911875 92.437143 
L 581.687304 92.437143 
L 581.687304 7.2 
L 98.911875 7.2 
z
" style="fill:none;"/>
   </g>
   <g id="matplotlib.axis_3">
    <g id="xtick_7"/>
    <g id="xtick_8"/>
    <g id="xtick_9"/>
    <g id="xtick_10"/>
    <g id="xtick_11"/>
    <g id="xtick_12"/>
   </g>
   <g id="matplotlib.axis_4">
    <g id="ytick_9">
     <g id="text_19">
      <!-- 0 -->
      <g style="fill:#262626;" transform="translate(69.414375 100.795424)scale(0.22 -0.22)">
       <use xlink:href="#DejaVuSans-30"/>
      </g>
     </g>
    </g>
    <g id="ytick_10">
     <g id="text_20">
      <!-- 100 -->
      <g style="fill:#262626;" transform="translate(41.419375 48.082287)scale(0.22 -0.22)">
       <use xlink:href="#DejaVuSans-31"/>
       <use x="63.623047" xlink:href="#DejaVuSans-30"/>
       <use x="127.246094" xlink:href="#DejaVuSans-30"/>
      </g>
     </g>
    </g>
   </g>
   <g id="patch_7">
    <path clip-path="url(#p6a3a0cdf2e)" d="M 120.856213 92.437143 
L 154.616732 92.437143 
L 154.616732 11.258912 
L 120.856213 11.258912 
z
" style="fill:#96c69a;fill-opacity:0.5;stroke:#ffffff;stroke-linejoin:miter;stroke-width:2;"/>
   </g>
   <g id="patch_8">
    <path clip-path="url(#p6a3a0cdf2e)" d="M 154.616732 92.437143 
L 188.377252 92.437143 
L 188.377252 11.258912 
L 154.616732 11.258912 
z
" style="fill:#96c69a;fill-opacity:0.5;stroke:#ffffff;stroke-linejoin:miter;stroke-width:2;"/>
   </g>
   <g id="patch_9">
    <path clip-path="url(#p6a3a0cdf2e)" d="M 188.377252 92.437143 
L 222.137771 92.437143 
L 222.137771 11.258912 
L 188.377252 11.258912 
z
" style="fill:#96c69a;fill-opacity:0.5;stroke:#ffffff;stroke-linejoin:miter;stroke-width:2;"/>
   </g>
   <g id="patch_10">
    <path clip-path="url(#p6a3a0cdf2e)" d="M 222.137771 92.437143 
L 255.898291 92.437143 
L 255.898291 11.258912 
L 222.137771 11.258912 
z
" style="fill:#96c69a;fill-opacity:0.5;stroke:#ffffff;stroke-linejoin:miter;stroke-width:2;"/>
   </g>
   <g id="patch_11">
    <path clip-path="url(#p6a3a0cdf2e)" d="M 255.898291 92.437143 
L 289.65881 92.437143 
L 289.65881 11.786043 
L 255.898291 11.786043 
z
" style="fill:#96c69a;fill-opacity:0.5;stroke:#ffffff;stroke-linejoin:miter;stroke-width:2;"/>
   </g>
   <g id="patch_12">
    <path clip-path="url(#p6a3a0cdf2e)" d="M 289.65881 92.437143 
L 323.41933 92.437143 
L 323.41933 11.258912 
L 289.65881 11.258912 
z
" style="fill:#96c69a;fill-opacity:0.5;stroke:#ffffff;stroke-linejoin:miter;stroke-width:2;"/>
   </g>
   <g id="patch_13">
    <path clip-path="url(#p6a3a0cdf2e)" d="M 323.41933 92.437143 
L 357.179849 92.437143 
L 357.179849 11.258912 
L 323.41933 11.258912 
z
" style="fill:#96c69a;fill-opacity:0.5;stroke:#ffffff;stroke-linejoin:miter;stroke-width:2;"/>
   </g>
   <g id="patch_14">
    <path clip-path="url(#p6a3a0cdf2e)" d="M 357.179849 92.437143 
L 390.940369 92.437143 
L 390.940369 11.258912 
L 357.179849 11.258912 
z
" style="fill:#96c69a;fill-opacity:0.5;stroke:#ffffff;stroke-linejoin:miter;stroke-width:2;"/>
   </g>
   <g id="patch_15">
    <path clip-path="url(#p6a3a0cdf2e)" d="M 390.940369 92.437143 
L 424.700888 92.437143 
L 424.700888 11.786043 
L 390.940369 11.786043 
z
" style="fill:#96c69a;fill-opacity:0.5;stroke:#ffffff;stroke-linejoin:miter;stroke-width:2;"/>
   </g>
   <g id="patch_16">
    <path clip-path="url(#p6a3a0cdf2e)" d="M 424.700888 92.437143 
L 458.461407 92.437143 
L 458.461407 11.258912 
L 424.700888 11.258912 
z
" style="fill:#96c69a;fill-opacity:0.5;stroke:#ffffff;stroke-linejoin:miter;stroke-width:2;"/>
   </g>
   <g id="patch_17">
    <path clip-path="url(#p6a3a0cdf2e)" d="M 458.461407 92.437143 
L 492.221927 92.437143 
L 492.221927 11.258912 
L 458.461407 11.258912 
z
" style="fill:#96c69a;fill-opacity:0.5;stroke:#ffffff;stroke-linejoin:miter;stroke-width:2;"/>
   </g>
   <g id="patch_18">
    <path clip-path="url(#p6a3a0cdf2e)" d="M 492.221927 92.437143 
L 525.982446 92.437143 
L 525.982446 11.258912 
L 492.221927 11.258912 
z
" style="fill:#96c69a;fill-opacity:0.5;stroke:#ffffff;stroke-linejoin:miter;stroke-width:2;"/>
   </g>
   <g id="patch_19">
    <path clip-path="url(#p6a3a0cdf2e)" d="M 525.982446 92.437143 
L 559.742966 92.437143 
L 559.742966 11.258912 
L 525.982446 11.258912 
z
" style="fill:#96c69a;fill-opacity:0.5;stroke:#ffffff;stroke-linejoin:miter;stroke-width:2;"/>
   </g>
   <g id="patch_20">
    <path d="M 98.911875 92.437143 
L 98.911875 7.2 
" style="fill:none;stroke:#262626;stroke-linecap:square;stroke-linejoin:miter;stroke-width:2.5;"/>
   </g>
   <g id="patch_21">
    <path d="M 98.911875 92.437143 
L 581.687304 92.437143 
" style="fill:none;stroke:#262626;stroke-linecap:square;stroke-linejoin:miter;stroke-width:2.5;"/>
   </g>
  </g>
  <g id="axes_3">
   <g id="patch_22">
    <path d="M 598.334732 603.86 
L 681.571875 603.86 
L 681.571875 109.484571 
L 598.334732 109.484571 
z
" style="fill:none;"/>
   </g>
   <g id="matplotlib.axis_5">
    <g id="xtick_13">
     <g id="text_21">
      <!-- 0 -->
      <g style="fill:#262626;" transform="translate(591.335982 636.076563)scale(0.22 -0.22)">
       <use xlink:href="#DejaVuSans-30"/>
      </g>
     </g>
    </g>
    <g id="xtick_14">
     <g id="text_22">
      <!-- 100 -->
      <g style="fill:#262626;" transform="translate(620.421889 636.076563)scale(0.22 -0.22)">
       <use xlink:href="#DejaVuSans-31"/>
       <use x="63.623047" xlink:href="#DejaVuSans-30"/>
       <use x="127.246094" xlink:href="#DejaVuSans-30"/>
      </g>
     </g>
    </g>
   </g>
   <g id="matplotlib.axis_6">
    <g id="ytick_11"/>
    <g id="ytick_12"/>
    <g id="ytick_13"/>
    <g id="ytick_14"/>
    <g id="ytick_15"/>
    <g id="ytick_16"/>
    <g id="ytick_17"/>
    <g id="ytick_18"/>
   </g>
   <g id="patch_23">
    <path clip-path="url(#p2dad7044cc)" d="M 598.334732 581.38839 
L 600.058068 581.38839 
L 600.058068 568.547469 
L 598.334732 568.547469 
z
" style="fill:#96c69a;fill-opacity:0.5;stroke:#ffffff;stroke-linejoin:miter;stroke-width:1.284092;"/>
   </g>
   <g id="patch_24">
    <path clip-path="url(#p2dad7044cc)" d="M 598.334732 568.547469 
L 602.212239 568.547469 
L 602.212239 555.706549 
L 598.334732 555.706549 
z
" style="fill:#96c69a;fill-opacity:0.5;stroke:#ffffff;stroke-linejoin:miter;stroke-width:1.284092;"/>
   </g>
   <g id="patch_25">
    <path clip-path="url(#p2dad7044cc)" d="M 598.334732 555.706549 
L 615.568095 555.706549 
L 615.568095 542.865629 
L 598.334732 542.865629 
z
" style="fill:#96c69a;fill-opacity:0.5;stroke:#ffffff;stroke-linejoin:miter;stroke-width:1.284092;"/>
   </g>
   <g id="patch_26">
    <path clip-path="url(#p2dad7044cc)" d="M 598.334732 542.865629 
L 631.93979 542.865629 
L 631.93979 530.024709 
L 598.334732 530.024709 
z
" style="fill:#96c69a;fill-opacity:0.5;stroke:#ffffff;stroke-linejoin:miter;stroke-width:1.284092;"/>
   </g>
   <g id="patch_27">
    <path clip-path="url(#p2dad7044cc)" d="M 598.334732 530.024709 
L 647.018982 530.024709 
L 647.018982 517.183788 
L 598.334732 517.183788 
z
" style="fill:#96c69a;fill-opacity:0.5;stroke:#ffffff;stroke-linejoin:miter;stroke-width:1.284092;"/>
   </g>
   <g id="patch_28">
    <path clip-path="url(#p2dad7044cc)" d="M 598.334732 517.183788 
L 657.359 517.183788 
L 657.359 504.342868 
L 598.334732 504.342868 
z
" style="fill:#96c69a;fill-opacity:0.5;stroke:#ffffff;stroke-linejoin:miter;stroke-width:1.284092;"/>
   </g>
   <g id="patch_29">
    <path clip-path="url(#p2dad7044cc)" d="M 598.334732 504.342868 
L 669.422354 504.342868 
L 669.422354 491.501948 
L 598.334732 491.501948 
z
" style="fill:#96c69a;fill-opacity:0.5;stroke:#ffffff;stroke-linejoin:miter;stroke-width:1.284092;"/>
   </g>
   <g id="patch_30">
    <path clip-path="url(#p2dad7044cc)" d="M 598.334732 491.501948 
L 677.608202 491.501948 
L 677.608202 478.661028 
L 598.334732 478.661028 
z
" style="fill:#96c69a;fill-opacity:0.5;stroke:#ffffff;stroke-linejoin:miter;stroke-width:1.284092;"/>
   </g>
   <g id="patch_31">
    <path clip-path="url(#p2dad7044cc)" d="M 598.334732 478.661028 
L 671.14569 478.661028 
L 671.14569 465.820108 
L 598.334732 465.820108 
z
" style="fill:#96c69a;fill-opacity:0.5;stroke:#ffffff;stroke-linejoin:miter;stroke-width:1.284092;"/>
   </g>
   <g id="patch_32">
    <path clip-path="url(#p2dad7044cc)" d="M 598.334732 465.820108 
L 675.454031 465.820108 
L 675.454031 452.979187 
L 598.334732 452.979187 
z
" style="fill:#96c69a;fill-opacity:0.5;stroke:#ffffff;stroke-linejoin:miter;stroke-width:1.284092;"/>
   </g>
   <g id="patch_33">
    <path clip-path="url(#p2dad7044cc)" d="M 598.334732 452.979187 
L 662.529009 452.979187 
L 662.529009 440.138267 
L 598.334732 440.138267 
z
" style="fill:#96c69a;fill-opacity:0.5;stroke:#ffffff;stroke-linejoin:miter;stroke-width:1.284092;"/>
   </g>
   <g id="patch_34">
    <path clip-path="url(#p2dad7044cc)" d="M 598.334732 440.138267 
L 661.236507 440.138267 
L 661.236507 427.297347 
L 598.334732 427.297347 
z
" style="fill:#96c69a;fill-opacity:0.5;stroke:#ffffff;stroke-linejoin:miter;stroke-width:1.284092;"/>
   </g>
   <g id="patch_35">
    <path clip-path="url(#p2dad7044cc)" d="M 598.334732 427.297347 
L 647.449816 427.297347 
L 647.449816 414.456427 
L 598.334732 414.456427 
z
" style="fill:#96c69a;fill-opacity:0.5;stroke:#ffffff;stroke-linejoin:miter;stroke-width:1.284092;"/>
   </g>
   <g id="patch_36">
    <path clip-path="url(#p2dad7044cc)" d="M 598.334732 414.456427 
L 639.694803 414.456427 
L 639.694803 401.615506 
L 598.334732 401.615506 
z
" style="fill:#96c69a;fill-opacity:0.5;stroke:#ffffff;stroke-linejoin:miter;stroke-width:1.284092;"/>
   </g>
   <g id="patch_37">
    <path clip-path="url(#p2dad7044cc)" d="M 598.334732 401.615506 
L 636.248131 401.615506 
L 636.248131 388.774586 
L 598.334732 388.774586 
z
" style="fill:#96c69a;fill-opacity:0.5;stroke:#ffffff;stroke-linejoin:miter;stroke-width:1.284092;"/>
   </g>
   <g id="patch_38">
    <path clip-path="url(#p2dad7044cc)" d="M 598.334732 388.774586 
L 629.785619 388.774586 
L 629.785619 375.933666 
L 598.334732 375.933666 
z
" style="fill:#96c69a;fill-opacity:0.5;stroke:#ffffff;stroke-linejoin:miter;stroke-width:1.284092;"/>
   </g>
   <g id="patch_39">
    <path clip-path="url(#p2dad7044cc)" d="M 598.334732 375.933666 
L 618.153099 375.933666 
L 618.153099 363.092746 
L 598.334732 363.092746 
z
" style="fill:#96c69a;fill-opacity:0.5;stroke:#ffffff;stroke-linejoin:miter;stroke-width:1.284092;"/>
   </g>
   <g id="patch_40">
    <path clip-path="url(#p2dad7044cc)" d="M 598.334732 363.092746 
L 611.259754 363.092746 
L 611.259754 350.251826 
L 598.334732 350.251826 
z
" style="fill:#96c69a;fill-opacity:0.5;stroke:#ffffff;stroke-linejoin:miter;stroke-width:1.284092;"/>
   </g>
   <g id="patch_41">
    <path clip-path="url(#p2dad7044cc)" d="M 598.334732 350.251826 
L 616.429763 350.251826 
L 616.429763 337.410905 
L 598.334732 337.410905 
z
" style="fill:#96c69a;fill-opacity:0.5;stroke:#ffffff;stroke-linejoin:miter;stroke-width:1.284092;"/>
   </g>
   <g id="patch_42">
    <path clip-path="url(#p2dad7044cc)" d="M 598.334732 337.410905 
L 611.259754 337.410905 
L 611.259754 324.569985 
L 598.334732 324.569985 
z
" style="fill:#96c69a;fill-opacity:0.5;stroke:#ffffff;stroke-linejoin:miter;stroke-width:1.284092;"/>
   </g>
   <g id="patch_43">
    <path clip-path="url(#p2dad7044cc)" d="M 598.334732 324.569985 
L 610.398086 324.569985 
L 610.398086 311.729065 
L 598.334732 311.729065 
z
" style="fill:#96c69a;fill-opacity:0.5;stroke:#ffffff;stroke-linejoin:miter;stroke-width:1.284092;"/>
   </g>
   <g id="patch_44">
    <path clip-path="url(#p2dad7044cc)" d="M 598.334732 311.729065 
L 605.228077 311.729065 
L 605.228077 298.888145 
L 598.334732 298.888145 
z
" style="fill:#96c69a;fill-opacity:0.5;stroke:#ffffff;stroke-linejoin:miter;stroke-width:1.284092;"/>
   </g>
   <g id="patch_45">
    <path clip-path="url(#p2dad7044cc)" d="M 598.334732 298.888145 
L 603.073907 298.888145 
L 603.073907 286.047224 
L 598.334732 286.047224 
z
" style="fill:#96c69a;fill-opacity:0.5;stroke:#ffffff;stroke-linejoin:miter;stroke-width:1.284092;"/>
   </g>
   <g id="patch_46">
    <path clip-path="url(#p2dad7044cc)" d="M 598.334732 286.047224 
L 602.212239 286.047224 
L 602.212239 273.206304 
L 598.334732 273.206304 
z
" style="fill:#96c69a;fill-opacity:0.5;stroke:#ffffff;stroke-linejoin:miter;stroke-width:1.284092;"/>
   </g>
   <g id="patch_47">
    <path clip-path="url(#p2dad7044cc)" d="M 598.334732 273.206304 
L 603.073907 273.206304 
L 603.073907 260.365384 
L 598.334732 260.365384 
z
" style="fill:#96c69a;fill-opacity:0.5;stroke:#ffffff;stroke-linejoin:miter;stroke-width:1.284092;"/>
   </g>
   <g id="patch_48">
    <path clip-path="url(#p2dad7044cc)" d="M 598.334732 260.365384 
L 601.781405 260.365384 
L 601.781405 247.524464 
L 598.334732 247.524464 
z
" style="fill:#96c69a;fill-opacity:0.5;stroke:#ffffff;stroke-linejoin:miter;stroke-width:1.284092;"/>
   </g>
   <g id="patch_49">
    <path clip-path="url(#p2dad7044cc)" d="M 598.334732 247.524464 
L 599.1964 247.524464 
L 599.1964 234.683544 
L 598.334732 234.683544 
z
" style="fill:#96c69a;fill-opacity:0.5;stroke:#ffffff;stroke-linejoin:miter;stroke-width:1.284092;"/>
   </g>
   <g id="patch_50">
    <path clip-path="url(#p2dad7044cc)" d="M 598.334732 234.683544 
L 601.781405 234.683544 
L 601.781405 221.842623 
L 598.334732 221.842623 
z
" style="fill:#96c69a;fill-opacity:0.5;stroke:#ffffff;stroke-linejoin:miter;stroke-width:1.284092;"/>
   </g>
   <g id="patch_51">
    <path clip-path="url(#p2dad7044cc)" d="M 598.334732 221.842623 
L 600.488903 221.842623 
L 600.488903 209.001703 
L 598.334732 209.001703 
z
" style="fill:#96c69a;fill-opacity:0.5;stroke:#ffffff;stroke-linejoin:miter;stroke-width:1.284092;"/>
   </g>
   <g id="patch_52">
    <path clip-path="url(#p2dad7044cc)" d="M 598.334732 209.001703 
L 599.627234 209.001703 
L 599.627234 196.160783 
L 598.334732 196.160783 
z
" style="fill:#96c69a;fill-opacity:0.5;stroke:#ffffff;stroke-linejoin:miter;stroke-width:1.284092;"/>
   </g>
   <g id="patch_53">
    <path clip-path="url(#p2dad7044cc)" d="M 598.334732 196.160783 
L 599.627234 196.160783 
L 599.627234 183.319863 
L 598.334732 183.319863 
z
" style="fill:#96c69a;fill-opacity:0.5;stroke:#ffffff;stroke-linejoin:miter;stroke-width:1.284092;"/>
   </g>
   <g id="patch_54">
    <path clip-path="url(#p2dad7044cc)" d="M 598.334732 183.319863 
L 598.765566 183.319863 
L 598.765566 170.478942 
L 598.334732 170.478942 
z
" style="fill:#96c69a;fill-opacity:0.5;stroke:#ffffff;stroke-linejoin:miter;stroke-width:1.284092;"/>
   </g>
   <g id="patch_55">
    <path clip-path="url(#p2dad7044cc)" d="M 598.334732 170.478942 
L 598.334732 170.478942 
L 598.334732 157.638022 
L 598.334732 157.638022 
z
" style="fill:#96c69a;fill-opacity:0.5;stroke:#ffffff;stroke-linejoin:miter;stroke-width:1.284092;"/>
   </g>
   <g id="patch_56">
    <path clip-path="url(#p2dad7044cc)" d="M 598.334732 157.638022 
L 598.334732 157.638022 
L 598.334732 144.797102 
L 598.334732 144.797102 
z
" style="fill:#96c69a;fill-opacity:0.5;stroke:#ffffff;stroke-linejoin:miter;stroke-width:1.284092;"/>
   </g>
   <g id="patch_57">
    <path clip-path="url(#p2dad7044cc)" d="M 598.334732 144.797102 
L 599.627234 144.797102 
L 599.627234 131.956182 
L 598.334732 131.956182 
z
" style="fill:#96c69a;fill-opacity:0.5;stroke:#ffffff;stroke-linejoin:miter;stroke-width:1.284092;"/>
   </g>
   <g id="patch_58">
    <path d="M 598.334732 603.86 
L 598.334732 109.484571 
" style="fill:none;stroke:#262626;stroke-linecap:square;stroke-linejoin:miter;stroke-width:2.5;"/>
   </g>
   <g id="patch_59">
    <path d="M 598.334732 603.86 
L 681.571875 603.86 
" style="fill:none;stroke:#262626;stroke-linecap:square;stroke-linejoin:miter;stroke-width:2.5;"/>
   </g>
  </g>
 </g>
 <defs>
  <clipPath id="p9a972336d4">
   <rect height="494.375429" width="482.775429" x="98.911875" y="109.484571"/>
  </clipPath>
  <clipPath id="p6a3a0cdf2e">
   <rect height="85.237143" width="482.775429" x="98.911875" y="7.2"/>
  </clipPath>
  <clipPath id="p2dad7044cc">
   <rect height="494.375429" width="83.237143" x="598.334732" y="109.484571"/>
  </clipPath>
 </defs>
</svg>
