<?xml version="1.0" encoding="utf-8" standalone="no"?>
<!DOCTYPE svg PUBLIC "-//W3C//DTD SVG 1.1//EN"
  "http://www.w3.org/Graphics/SVG/1.1/DTD/svg11.dtd">
<svg height="674.159375pt" version="1.1" viewBox="0 0 674.984375 674.159375" width="674.984375pt" xmlns="http://www.w3.org/2000/svg" xmlns:xlink="http://www.w3.org/1999/xlink">
 <metadata>
  <rdf:RDF xmlns:cc="http://creativecommons.org/ns#" xmlns:dc="http://purl.org/dc/elements/1.1/" xmlns:rdf="http://www.w3.org/1999/02/22-rdf-syntax-ns#">
   <cc:Work>
    <dc:type rdf:resource="http://purl.org/dc/dcmitype/StillImage"/>
    <dc:date>2021-07-24T14:58:08.231259</dc:date>
    <dc:format>image/svg+xml</dc:format>
    <dc:creator>
     <cc:Agent>
      <dc:title>Matplotlib v3.4.2, https://matplotlib.org/</dc:title>
     </cc:Agent>
    </dc:creator>
   </cc:Work>
  </rdf:RDF>
 </metadata>
 <defs>
  <style type="text/css">*{stroke-linecap:butt;stroke-linejoin:round;}</style>
 </defs>
 <g id="figure_1">
  <g id="patch_1">
   <path d="M 0 674.159375 
L 674.984375 674.159375 
L 674.984375 0 
L 0 0 
z
" style="fill:#ffffff;"/>
  </g>
  <g id="axes_1">
   <g id="patch_2">
    <path d="M 84.914375 602.94 
L 567.863804 602.94 
L 567.863804 109.326857 
L 84.914375 109.326857 
z
" style="fill:none;"/>
   </g>
   <g id="matplotlib.axis_1">
    <g id="xtick_1">
     <g id="text_1">
      <!-- 0 -->
      <g style="fill:#262626;" transform="translate(99.648239 635.156562)scale(0.22 -0.22)">
       <defs>
        <path d="M 2034 4250 
Q 1547 4250 1301 3770 
Q 1056 3291 1056 2328 
Q 1056 1369 1301 889 
Q 1547 409 2034 409 
Q 2525 409 2770 889 
Q 3016 1369 3016 2328 
Q 3016 3291 2770 3770 
Q 2525 4250 2034 4250 
z
M 2034 4750 
Q 2819 4750 3233 4129 
Q 3647 3509 3647 2328 
Q 3647 1150 3233 529 
Q 2819 -91 2034 -91 
Q 1250 -91 836 529 
Q 422 1150 422 2328 
Q 422 3509 836 4129 
Q 1250 4750 2034 4750 
z
" id="DejaVuSans-30" transform="scale(0.015625)"/>
       </defs>
       <use xlink:href="#DejaVuSans-30"/>
      </g>
     </g>
    </g>
    <g id="xtick_2">
     <g id="text_2">
      <!-- 20000 -->
      <g style="fill:#262626;" transform="translate(159.506153 635.156562)scale(0.22 -0.22)">
       <defs>
        <path d="M 1228 531 
L 3431 531 
L 3431 0 
L 469 0 
L 469 531 
Q 828 903 1448 1529 
Q 2069 2156 2228 2338 
Q 2531 2678 2651 2914 
Q 2772 3150 2772 3378 
Q 2772 3750 2511 3984 
Q 2250 4219 1831 4219 
Q 1534 4219 1204 4116 
Q 875 4013 500 3803 
L 500 4441 
Q 881 4594 1212 4672 
Q 1544 4750 1819 4750 
Q 2544 4750 2975 4387 
Q 3406 4025 3406 3419 
Q 3406 3131 3298 2873 
Q 3191 2616 2906 2266 
Q 2828 2175 2409 1742 
Q 1991 1309 1228 531 
z
" id="DejaVuSans-32" transform="scale(0.015625)"/>
       </defs>
       <use xlink:href="#DejaVuSans-32"/>
       <use x="63.623047" xlink:href="#DejaVuSans-30"/>
       <use x="127.246094" xlink:href="#DejaVuSans-30"/>
       <use x="190.869141" xlink:href="#DejaVuSans-30"/>
       <use x="254.492188" xlink:href="#DejaVuSans-30"/>
      </g>
     </g>
    </g>
    <g id="xtick_3">
     <g id="text_3">
      <!-- 40000 -->
      <g style="fill:#262626;" transform="translate(247.359066 635.156562)scale(0.22 -0.22)">
       <defs>
        <path d="M 2419 4116 
L 825 1625 
L 2419 1625 
L 2419 4116 
z
M 2253 4666 
L 3047 4666 
L 3047 1625 
L 3713 1625 
L 3713 1100 
L 3047 1100 
L 3047 0 
L 2419 0 
L 2419 1100 
L 313 1100 
L 313 1709 
L 2253 4666 
z
" id="DejaVuSans-34" transform="scale(0.015625)"/>
       </defs>
       <use xlink:href="#DejaVuSans-34"/>
       <use x="63.623047" xlink:href="#DejaVuSans-30"/>
       <use x="127.246094" xlink:href="#DejaVuSans-30"/>
       <use x="190.869141" xlink:href="#DejaVuSans-30"/>
       <use x="254.492188" xlink:href="#DejaVuSans-30"/>
      </g>
     </g>
    </g>
    <g id="xtick_4">
     <g id="text_4">
      <!-- 60000 -->
      <g style="fill:#262626;" transform="translate(335.21198 635.156562)scale(0.22 -0.22)">
       <defs>
        <path d="M 2113 2584 
Q 1688 2584 1439 2293 
Q 1191 2003 1191 1497 
Q 1191 994 1439 701 
Q 1688 409 2113 409 
Q 2538 409 2786 701 
Q 3034 994 3034 1497 
Q 3034 2003 2786 2293 
Q 2538 2584 2113 2584 
z
M 3366 4563 
L 3366 3988 
Q 3128 4100 2886 4159 
Q 2644 4219 2406 4219 
Q 1781 4219 1451 3797 
Q 1122 3375 1075 2522 
Q 1259 2794 1537 2939 
Q 1816 3084 2150 3084 
Q 2853 3084 3261 2657 
Q 3669 2231 3669 1497 
Q 3669 778 3244 343 
Q 2819 -91 2113 -91 
Q 1303 -91 875 529 
Q 447 1150 447 2328 
Q 447 3434 972 4092 
Q 1497 4750 2381 4750 
Q 2619 4750 2861 4703 
Q 3103 4656 3366 4563 
z
" id="DejaVuSans-36" transform="scale(0.015625)"/>
       </defs>
       <use xlink:href="#DejaVuSans-36"/>
       <use x="63.623047" xlink:href="#DejaVuSans-30"/>
       <use x="127.246094" xlink:href="#DejaVuSans-30"/>
       <use x="190.869141" xlink:href="#DejaVuSans-30"/>
       <use x="254.492188" xlink:href="#DejaVuSans-30"/>
      </g>
     </g>
    </g>
    <g id="xtick_5">
     <g id="text_5">
      <!-- 80000 -->
      <g style="fill:#262626;" transform="translate(423.064893 635.156562)scale(0.22 -0.22)">
       <defs>
        <path d="M 2034 2216 
Q 1584 2216 1326 1975 
Q 1069 1734 1069 1313 
Q 1069 891 1326 650 
Q 1584 409 2034 409 
Q 2484 409 2743 651 
Q 3003 894 3003 1313 
Q 3003 1734 2745 1975 
Q 2488 2216 2034 2216 
z
M 1403 2484 
Q 997 2584 770 2862 
Q 544 3141 544 3541 
Q 544 4100 942 4425 
Q 1341 4750 2034 4750 
Q 2731 4750 3128 4425 
Q 3525 4100 3525 3541 
Q 3525 3141 3298 2862 
Q 3072 2584 2669 2484 
Q 3125 2378 3379 2068 
Q 3634 1759 3634 1313 
Q 3634 634 3220 271 
Q 2806 -91 2034 -91 
Q 1263 -91 848 271 
Q 434 634 434 1313 
Q 434 1759 690 2068 
Q 947 2378 1403 2484 
z
M 1172 3481 
Q 1172 3119 1398 2916 
Q 1625 2713 2034 2713 
Q 2441 2713 2670 2916 
Q 2900 3119 2900 3481 
Q 2900 3844 2670 4047 
Q 2441 4250 2034 4250 
Q 1625 4250 1398 4047 
Q 1172 3844 1172 3481 
z
" id="DejaVuSans-38" transform="scale(0.015625)"/>
       </defs>
       <use xlink:href="#DejaVuSans-38"/>
       <use x="63.623047" xlink:href="#DejaVuSans-30"/>
       <use x="127.246094" xlink:href="#DejaVuSans-30"/>
       <use x="190.869141" xlink:href="#DejaVuSans-30"/>
       <use x="254.492188" xlink:href="#DejaVuSans-30"/>
      </g>
     </g>
    </g>
    <g id="xtick_6">
     <g id="text_6">
      <!-- 100000 -->
      <g style="fill:#262626;" transform="translate(503.919057 635.156562)scale(0.22 -0.22)">
       <defs>
        <path d="M 794 531 
L 1825 531 
L 1825 4091 
L 703 3866 
L 703 4441 
L 1819 4666 
L 2450 4666 
L 2450 531 
L 3481 531 
L 3481 0 
L 794 0 
L 794 531 
z
" id="DejaVuSans-31" transform="scale(0.015625)"/>
       </defs>
       <use xlink:href="#DejaVuSans-31"/>
       <use x="63.623047" xlink:href="#DejaVuSans-30"/>
       <use x="127.246094" xlink:href="#DejaVuSans-30"/>
       <use x="190.869141" xlink:href="#DejaVuSans-30"/>
       <use x="254.492188" xlink:href="#DejaVuSans-30"/>
       <use x="318.115234" xlink:href="#DejaVuSans-30"/>
      </g>
     </g>
    </g>
    <g id="text_7">
     <!-- MDTU -->
     <g style="fill:#262626;" transform="translate(290.683464 661.968125)scale(0.24 -0.24)">
      <defs>
       <path d="M 628 4666 
L 1569 4666 
L 2759 1491 
L 3956 4666 
L 4897 4666 
L 4897 0 
L 4281 0 
L 4281 4097 
L 3078 897 
L 2444 897 
L 1241 4097 
L 1241 0 
L 628 0 
L 628 4666 
z
" id="DejaVuSans-4d" transform="scale(0.015625)"/>
       <path d="M 1259 4147 
L 1259 519 
L 2022 519 
Q 2988 519 3436 956 
Q 3884 1394 3884 2338 
Q 3884 3275 3436 3711 
Q 2988 4147 2022 4147 
L 1259 4147 
z
M 628 4666 
L 1925 4666 
Q 3281 4666 3915 4102 
Q 4550 3538 4550 2338 
Q 4550 1131 3912 565 
Q 3275 0 1925 0 
L 628 0 
L 628 4666 
z
" id="DejaVuSans-44" transform="scale(0.015625)"/>
       <path d="M -19 4666 
L 3928 4666 
L 3928 4134 
L 2272 4134 
L 2272 0 
L 1638 0 
L 1638 4134 
L -19 4134 
L -19 4666 
z
" id="DejaVuSans-54" transform="scale(0.015625)"/>
       <path d="M 556 4666 
L 1191 4666 
L 1191 1831 
Q 1191 1081 1462 751 
Q 1734 422 2344 422 
Q 2950 422 3222 751 
Q 3494 1081 3494 1831 
L 3494 4666 
L 4128 4666 
L 4128 1753 
Q 4128 841 3676 375 
Q 3225 -91 2344 -91 
Q 1459 -91 1007 375 
Q 556 841 556 1753 
L 556 4666 
z
" id="DejaVuSans-55" transform="scale(0.015625)"/>
      </defs>
      <use xlink:href="#DejaVuSans-4d"/>
      <use x="86.279297" xlink:href="#DejaVuSans-44"/>
      <use x="163.28125" xlink:href="#DejaVuSans-54"/>
      <use x="224.365234" xlink:href="#DejaVuSans-55"/>
     </g>
    </g>
   </g>
   <g id="matplotlib.axis_2">
    <g id="ytick_1">
     <g id="text_8">
      <!-- 0.6 -->
      <g style="fill:#262626;" transform="translate(34.4275 557.019914)scale(0.22 -0.22)">
       <defs>
        <path d="M 684 794 
L 1344 794 
L 1344 0 
L 684 0 
L 684 794 
z
" id="DejaVuSans-2e" transform="scale(0.015625)"/>
       </defs>
       <use xlink:href="#DejaVuSans-30"/>
       <use x="63.623047" xlink:href="#DejaVuSans-2e"/>
       <use x="95.410156" xlink:href="#DejaVuSans-36"/>
      </g>
     </g>
    </g>
    <g id="ytick_2">
     <g id="text_9">
      <!-- 0.8 -->
      <g style="fill:#262626;" transform="translate(34.4275 500.544766)scale(0.22 -0.22)">
       <use xlink:href="#DejaVuSans-30"/>
       <use x="63.623047" xlink:href="#DejaVuSans-2e"/>
       <use x="95.410156" xlink:href="#DejaVuSans-38"/>
      </g>
     </g>
    </g>
    <g id="ytick_3">
     <g id="text_10">
      <!-- 1.0 -->
      <g style="fill:#262626;" transform="translate(34.4275 444.069618)scale(0.22 -0.22)">
       <use xlink:href="#DejaVuSans-31"/>
       <use x="63.623047" xlink:href="#DejaVuSans-2e"/>
       <use x="95.410156" xlink:href="#DejaVuSans-30"/>
      </g>
     </g>
    </g>
    <g id="ytick_4">
     <g id="text_11">
      <!-- 1.2 -->
      <g style="fill:#262626;" transform="translate(34.4275 387.59447)scale(0.22 -0.22)">
       <use xlink:href="#DejaVuSans-31"/>
       <use x="63.623047" xlink:href="#DejaVuSans-2e"/>
       <use x="95.410156" xlink:href="#DejaVuSans-32"/>
      </g>
     </g>
    </g>
    <g id="ytick_5">
     <g id="text_12">
      <!-- 1.4 -->
      <g style="fill:#262626;" transform="translate(34.4275 331.119322)scale(0.22 -0.22)">
       <use xlink:href="#DejaVuSans-31"/>
       <use x="63.623047" xlink:href="#DejaVuSans-2e"/>
       <use x="95.410156" xlink:href="#DejaVuSans-34"/>
      </g>
     </g>
    </g>
    <g id="ytick_6">
     <g id="text_13">
      <!-- 1.6 -->
      <g style="fill:#262626;" transform="translate(34.4275 274.644174)scale(0.22 -0.22)">
       <use xlink:href="#DejaVuSans-31"/>
       <use x="63.623047" xlink:href="#DejaVuSans-2e"/>
       <use x="95.410156" xlink:href="#DejaVuSans-36"/>
      </g>
     </g>
    </g>
    <g id="ytick_7">
     <g id="text_14">
      <!-- 1.8 -->
      <g style="fill:#262626;" transform="translate(34.4275 218.169026)scale(0.22 -0.22)">
       <use xlink:href="#DejaVuSans-31"/>
       <use x="63.623047" xlink:href="#DejaVuSans-2e"/>
       <use x="95.410156" xlink:href="#DejaVuSans-38"/>
      </g>
     </g>
    </g>
    <g id="ytick_8">
     <g id="text_15">
      <!-- 2.0 -->
      <g style="fill:#262626;" transform="translate(34.4275 161.693878)scale(0.22 -0.22)">
       <use xlink:href="#DejaVuSans-32"/>
       <use x="63.623047" xlink:href="#DejaVuSans-2e"/>
       <use x="95.410156" xlink:href="#DejaVuSans-30"/>
      </g>
     </g>
    </g>
    <g id="text_16">
     <!-- $E$ -->
     <g style="fill:#262626;" transform="translate(25.43625 363.813429)rotate(-90)scale(0.24 -0.24)">
      <defs>
       <path d="M 1081 4666 
L 4031 4666 
L 3928 4134 
L 1606 4134 
L 1338 2753 
L 3566 2753 
L 3463 2222 
L 1234 2222 
L 909 531 
L 3284 531 
L 3181 0 
L 172 0 
L 1081 4666 
z
" id="DejaVuSans-Oblique-45" transform="scale(0.015625)"/>
      </defs>
      <use transform="translate(0 0.09375)" xlink:href="#DejaVuSans-Oblique-45"/>
     </g>
    </g>
   </g>
   <g id="line2d_1">
    <path clip-path="url(#p9367f91c74)" d="M 106.866622 444.056299 
L 107.086254 461.739641 
L 107.525519 323.815852 
L 107.745151 401.394142 
L 107.964783 298.688496 
L 108.184415 494.530954 
L 108.404048 455.924422 
L 108.62368 512.275957 
L 108.843312 390.513225 
L 109.062945 387.798802 
L 109.282577 500.858126 
L 109.502209 398.121568 
L 109.721841 419.361509 
L 109.941474 476.697593 
L 110.161106 465.513772 
L 110.380738 433.786632 
L 110.600371 333.844328 
L 110.820003 484.564825 
L 111.039635 294.440211 
L 111.259267 457.75576 
L 111.4789 434.749636 
L 111.698532 528.490929 
L 112.137797 435.682054 
L 112.357429 398.70472 
L 112.577061 388.694459 
L 112.796693 388.989408 
L 113.016326 291.679822 
L 113.235958 475.03723 
L 113.45559 366.458346 
L 113.675223 469.309528 
L 113.894855 297.610423 
L 114.114487 490.359004 
L 114.334119 355.303315 
L 114.553752 440.749016 
L 114.773384 434.854006 
L 114.993016 525.808411 
L 115.212649 365.660364 
L 115.432281 328.87168 
L 115.651913 344.999338 
L 116.091178 356.571561 
L 116.31081 432.792146 
L 116.530442 352.041024 
L 116.750075 337.360755 
L 116.969707 305.531273 
L 117.189339 488.847189 
L 117.408971 512.979716 
L 117.628604 437.630166 
L 117.848236 419.254939 
L 118.287501 308.103318 
L 118.507133 348.89773 
L 118.946397 527.504302 
L 119.16603 376.287271 
L 119.385662 407.234841 
L 119.824926 347.72336 
L 120.044559 507.800411 
L 120.264191 448.181969 
L 120.483823 499.693301 
L 120.703456 428.06417 
L 120.923088 429.674916 
L 121.14272 238.813573 
L 121.362352 321.897616 
L 121.581985 362.382026 
L 121.801617 516.528815 
L 122.021249 409.305895 
L 122.240882 411.006555 
L 122.460514 527.080492 
L 122.680146 390.930129 
L 122.899778 388.461523 
L 123.119411 363.190627 
L 123.339043 293.50378 
L 123.558675 366.471617 
L 123.778308 497.278439 
L 123.99794 499.653377 
L 124.217572 418.963663 
L 124.437204 438.714108 
L 124.876469 300.637911 
L 125.096101 404.918541 
L 125.315734 378.851826 
L 125.535366 454.650933 
L 125.97463 340.895806 
L 126.194263 378.662063 
L 126.413895 342.124503 
L 126.633527 370.046114 
L 127.072792 496.161002 
L 127.292424 256.504233 
L 127.512056 385.488142 
L 127.731689 346.760723 
L 127.951321 495.928051 
L 128.170953 343.631747 
L 128.390586 483.129592 
L 128.610218 266.4904 
L 128.82985 454.433557 
L 129.049482 349.987489 
L 129.269115 491.714898 
L 129.488747 292.386691 
L 129.708379 466.597504 
L 130.147644 331.227407 
L 130.367276 415.350362 
L 130.586908 425.177048 
L 130.806541 492.637725 
L 131.026173 485.494066 
L 131.245805 484.319946 
L 131.465438 375.407864 
L 131.68507 420.267516 
L 131.904702 383.691955 
L 132.124334 420.534922 
L 132.343967 389.350929 
L 132.563599 225.524661 
L 132.783231 436.795736 
L 133.002864 470.14672 
L 133.222496 424.798509 
L 133.442128 455.883586 
L 133.66176 448.919909 
L 134.101025 228.145903 
L 134.320657 260.920625 
L 135.199186 499.299755 
L 135.418819 369.919975 
L 135.858083 516.841 
L 136.077715 285.93242 
L 136.297348 437.509856 
L 136.51698 479.871546 
L 136.736612 439.727927 
L 136.956245 458.576562 
L 137.175877 424.130891 
L 137.395509 540.064706 
L 137.615141 290.133575 
L 137.834774 372.540969 
L 138.054406 300.261321 
L 138.274038 473.510671 
L 138.493671 525.480889 
L 138.713303 454.343074 
L 138.932935 269.757727 
L 139.152567 487.078122 
L 139.3722 483.259696 
L 139.591832 396.084593 
L 139.811464 400.931628 
L 140.031097 358.77851 
L 140.250729 398.843586 
L 140.689993 296.867856 
L 140.909626 372.96122 
L 141.129258 392.210263 
L 141.34889 546.543294 
L 141.568523 423.960111 
L 141.788155 467.487452 
L 142.227419 334.724402 
L 142.447052 438.207776 
L 142.666684 481.40971 
L 142.886316 228.285661 
L 143.105949 333.808602 
L 143.545213 424.370764 
L 143.764845 443.372699 
L 144.20411 356.112169 
L 144.423742 510.242892 
L 144.863007 344.495965 
L 145.082639 447.255104 
L 145.302271 381.998799 
L 145.521904 417.101956 
L 145.741536 340.952852 
L 145.961168 424.210651 
L 146.180801 410.4885 
L 146.400433 417.42327 
L 146.620065 363.058173 
L 146.839697 367.113047 
L 147.05933 425.162306 
L 147.278962 426.418659 
L 147.498594 401.059139 
L 147.718227 436.250164 
L 147.937859 489.450955 
L 148.157491 409.82005 
L 148.596756 463.178885 
L 148.816388 410.82444 
L 149.03602 446.528586 
L 149.255653 296.798973 
L 149.475285 448.627745 
L 149.694917 423.514823 
L 149.914549 502.66054 
L 150.134182 334.917659 
L 150.353814 406.61882 
L 150.573446 520.69792 
L 151.012711 286.707964 
L 151.232343 296.956266 
L 151.451975 474.305075 
L 151.671608 453.134697 
L 151.89124 352.090704 
L 152.330504 457.721363 
L 152.550137 468.217465 
L 152.769769 349.963846 
L 152.989401 407.254606 
L 153.428666 287.341603 
L 153.648298 345.016293 
L 153.86793 461.459957 
L 154.087563 440.048044 
L 154.307195 145.600223 
L 154.526827 241.173278 
L 154.74646 463.029744 
L 154.966092 389.676775 
L 155.185724 480.586781 
L 155.405356 343.410269 
L 155.624989 527.665992 
L 155.844621 440.317903 
L 156.064253 421.996322 
L 156.283886 366.482215 
L 156.503518 516.42284 
L 156.72315 381.577421 
L 156.942782 541.992804 
L 157.162415 244.186511 
L 157.382047 467.339992 
L 157.601679 355.555162 
L 157.821312 393.895368 
L 158.040944 310.888681 
L 158.260576 367.285669 
L 158.480208 376.30873 
L 158.699841 435.073535 
L 158.919473 415.601587 
L 159.139105 426.180272 
L 159.358738 351.543617 
L 159.798002 485.940497 
L 160.017634 484.017848 
L 160.237267 465.292923 
L 160.456899 373.696073 
L 160.676531 384.230377 
L 160.896164 414.174405 
L 161.115796 413.568628 
L 161.335428 390.540066 
L 161.55506 460.121862 
L 161.774693 457.569583 
L 161.994325 323.250401 
L 162.213957 437.274061 
L 162.653222 353.544134 
L 162.872854 354.260861 
L 163.092486 415.056064 
L 163.312119 305.956129 
L 163.531751 467.116006 
L 163.751383 383.624331 
L 163.971016 343.178302 
L 164.190648 364.797467 
L 164.629912 320.591885 
L 164.849545 478.472556 
L 165.069177 360.11715 
L 165.288809 437.930042 
L 165.508441 314.717903 
L 165.728074 441.03319 
L 165.947706 395.593386 
L 166.167338 478.509522 
L 166.386971 457.192128 
L 166.606603 307.006164 
L 166.826235 459.698527 
L 167.045867 468.105015 
L 167.2655 463.458815 
L 167.485132 461.297174 
L 167.704764 394.540254 
L 167.924397 444.624741 
L 168.144029 422.979886 
L 168.363661 420.418946 
L 168.583293 356.192777 
L 168.802926 476.392513 
L 169.022558 401.133865 
L 169.24219 405.760417 
L 169.461823 439.394244 
L 169.681455 444.764507 
L 169.901087 317.417105 
L 170.120719 382.293957 
L 170.340352 504.435393 
L 170.779616 425.941444 
L 171.218881 488.549096 
L 171.438513 393.166735 
L 171.658145 430.434743 
L 171.877778 432.565186 
L 172.09741 419.703403 
L 172.317042 429.685837 
L 172.536675 339.239904 
L 172.756307 432.880502 
L 172.975939 463.99868 
L 173.195571 316.068294 
L 173.634836 497.104178 
L 174.074101 366.135998 
L 174.293733 395.012364 
L 174.513365 396.984875 
L 174.732997 404.577953 
L 174.95263 364.017873 
L 175.172262 391.448451 
L 175.611527 257.181999 
L 175.831159 427.06832 
L 176.050791 251.645464 
L 176.270423 393.3528 
L 176.490056 430.45869 
L 176.709688 505.482378 
L 176.92932 385.793438 
L 177.148953 476.657937 
L 177.368585 353.458274 
L 177.588217 466.819095 
L 177.807849 510.810081 
L 178.027482 217.36395 
L 178.466746 440.95414 
L 178.686379 385.484904 
L 178.906011 497.64038 
L 179.125643 416.6548 
L 179.345275 561.341457 
L 179.564908 394.397538 
L 179.78454 396.294889 
L 180.004172 249.412021 
L 180.223805 390.702615 
L 180.663069 473.329217 
L 180.882701 391.722876 
L 181.102334 222.355946 
L 181.321966 430.195769 
L 181.541598 463.556796 
L 181.76123 240.16794 
L 181.980863 310.734869 
L 182.200495 323.010174 
L 182.420127 373.468476 
L 182.63976 472.124987 
L 182.859392 350.75591 
L 183.079024 468.830701 
L 183.298656 278.150774 
L 183.518289 493.048021 
L 183.737921 352.662685 
L 183.957553 462.898174 
L 184.177186 314.460056 
L 184.396818 439.479824 
L 184.61645 387.972625 
L 184.836082 365.247055 
L 185.275347 427.28687 
L 185.494979 421.109298 
L 185.714612 410.941372 
L 185.934244 419.358894 
L 186.153876 458.14304 
L 186.373508 389.009335 
L 186.593141 364.884659 
L 186.812773 373.287451 
L 187.032405 454.747721 
L 187.691302 352.83646 
L 187.910934 353.9969 
L 188.130567 389.066299 
L 188.350199 368.920083 
L 188.789464 481.366446 
L 189.009096 338.67502 
L 189.228728 468.091332 
L 189.44836 501.869449 
L 189.887625 310.594287 
L 190.107257 382.196643 
L 190.32689 415.033176 
L 190.546522 510.909742 
L 190.766154 376.449348 
L 190.985786 499.700779 
L 191.205419 380.151863 
L 191.425051 490.637449 
L 191.864316 411.281806 
L 192.083948 497.421248 
L 192.30358 519.496419 
L 192.523212 440.059731 
L 192.742845 174.003784 
L 192.962477 511.376907 
L 193.182109 478.670731 
L 193.401742 492.928092 
L 193.621374 370.278012 
L 193.841006 362.795125 
L 194.060638 366.96312 
L 194.280271 502.452614 
L 194.499903 398.158401 
L 194.719535 483.143787 
L 194.939168 370.280092 
L 195.378432 443.054353 
L 195.598064 370.128123 
L 195.817697 475.67219 
L 196.037329 375.489051 
L 196.256961 349.925996 
L 196.476593 354.874334 
L 196.915858 484.356349 
L 197.13549 337.68062 
L 197.355123 439.209125 
L 197.794387 378.81244 
L 198.014019 468.49033 
L 198.233652 300.421881 
L 198.453284 440.959457 
L 198.672916 425.551986 
L 198.892549 315.822402 
L 199.112181 465.873843 
L 199.331813 414.82985 
L 199.551445 428.245615 
L 199.771078 538.180213 
L 199.99071 375.565992 
L 200.210342 418.630824 
L 200.429975 382.037603 
L 200.649607 387.507614 
L 201.088871 328.87616 
L 201.308504 410.412397 
L 201.528136 446.579949 
L 201.747768 321.329711 
L 201.967401 392.359901 
L 202.187033 521.49045 
L 202.406665 474.179531 
L 202.626297 336.857163 
L 202.84593 301.807936 
L 203.065562 323.377329 
L 203.285194 445.810717 
L 203.504827 415.382515 
L 203.724459 458.128706 
L 203.944091 231.337453 
L 204.163723 531.7889 
L 204.383356 368.351135 
L 204.602988 379.977819 
L 204.82262 379.511536 
L 205.042253 289.349156 
L 205.261885 460.051818 
L 205.481517 331.900755 
L 205.701149 314.215927 
L 206.140414 435.841637 
L 206.360046 465.134987 
L 206.579679 444.059561 
L 206.799311 446.961502 
L 207.018943 432.364591 
L 207.238575 445.024537 
L 207.458208 356.863262 
L 207.67784 422.162682 
L 207.897472 430.673426 
L 208.117105 405.544193 
L 208.336737 342.851023 
L 208.556369 455.055468 
L 208.776001 375.255992 
L 208.995634 429.832808 
L 209.215266 385.714576 
L 209.434898 485.455838 
L 209.654531 460.937732 
L 209.874163 345.837868 
L 210.093795 396.929666 
L 210.313427 224.086158 
L 210.53306 373.6057 
L 210.972324 436.28421 
L 211.191956 421.99648 
L 211.411589 487.417104 
L 211.631221 375.564962 
L 211.850853 393.845174 
L 212.070486 454.163295 
L 212.290118 344.43785 
L 212.50975 436.920309 
L 212.729382 323.682067 
L 212.949015 415.624497 
L 213.168647 320.483358 
L 213.388279 450.816477 
L 213.607912 509.879755 
L 213.827544 331.484496 
L 214.047176 461.569225 
L 214.266808 262.228646 
L 214.486441 464.522335 
L 214.706073 325.04828 
L 214.925705 369.045719 
L 215.145338 312.05225 
L 215.584602 428.85656 
L 215.804234 387.252229 
L 216.023867 474.378434 
L 216.463131 272.818441 
L 216.682764 448.052519 
L 216.902396 370.554742 
L 217.34166 407.988782 
L 217.561293 459.749191 
L 217.780925 426.219149 
L 218.000557 416.739032 
L 218.22019 398.12983 
L 218.439822 235.704834 
L 218.659454 459.729005 
L 218.879086 405.794776 
L 219.098719 387.102636 
L 219.318351 385.697853 
L 219.537983 401.476539 
L 219.757616 295.62244 
L 220.416512 449.612201 
L 220.636145 322.491042 
L 220.855777 354.866731 
L 221.075409 453.397165 
L 221.295042 380.731778 
L 221.514674 413.522402 
L 221.734306 299.065765 
L 222.173571 400.371202 
L 222.393203 240.582971 
L 222.612835 324.882485 
L 222.832468 327.508031 
L 223.0521 401.809182 
L 223.271732 269.204397 
L 223.491364 491.227354 
L 223.710997 426.200481 
L 223.930629 215.455323 
L 224.150261 422.23137 
L 224.369894 402.821662 
L 224.589526 440.65726 
L 225.02879 335.114353 
L 225.468055 496.923639 
L 225.687687 422.235243 
L 225.90732 464.960379 
L 226.126952 447.321998 
L 226.346584 502.315116 
L 226.566216 390.574971 
L 226.785849 362.327966 
L 227.005481 475.047662 
L 227.225113 476.85809 
L 227.664378 327.729322 
L 227.88401 480.634888 
L 228.103642 503.516051 
L 228.323275 460.684633 
L 228.542907 449.119901 
L 228.762539 474.645219 
L 229.201804 355.17091 
L 229.860701 494.349305 
L 230.080333 227.35195 
L 230.299965 438.126178 
L 230.519597 415.616013 
L 230.73923 441.243813 
L 230.958862 500.945931 
L 231.178494 405.46229 
L 231.398127 527.002823 
L 231.617759 341.011938 
L 231.837391 327.526449 
L 232.057023 422.089584 
L 232.276656 464.603605 
L 232.496288 433.929985 
L 232.71592 478.258921 
L 232.935553 386.957887 
L 233.155185 502.453551 
L 233.374817 428.472886 
L 233.594449 413.372568 
L 234.033714 486.202174 
L 234.472979 212.229608 
L 234.692611 473.461955 
L 234.912243 387.139231 
L 235.131875 389.082615 
L 235.351508 406.268116 
L 235.57114 445.646267 
L 235.790772 312.529365 
L 236.010405 490.002627 
L 236.230037 445.544071 
L 236.449669 447.816944 
L 236.669301 426.272969 
L 236.888934 510.481543 
L 237.108566 413.673931 
L 237.328198 427.720556 
L 237.547831 266.701632 
L 237.767463 394.152492 
L 237.987095 398.21484 
L 238.206727 462.588901 
L 238.42636 420.38488 
L 238.645992 509.870953 
L 239.085257 321.752233 
L 239.304889 514.507475 
L 239.524521 431.070108 
L 239.744153 434.599376 
L 239.963786 430.243618 
L 240.183418 508.231236 
L 240.40305 131.763818 
L 240.622683 421.767843 
L 240.842315 446.705448 
L 241.061947 519.546657 
L 241.281579 357.992044 
L 241.501212 408.465845 
L 241.720844 352.603325 
L 241.940476 449.608605 
L 242.160108 234.20429 
L 242.379741 444.249787 
L 242.599373 322.305128 
L 242.819005 324.707399 
L 243.038638 515.081108 
L 243.25827 443.654768 
L 243.477902 480.788304 
L 243.917167 328.956706 
L 244.136799 531.182889 
L 245.015328 224.594303 
L 245.23496 371.228538 
L 245.454593 296.437254 
L 246.11349 409.744407 
L 246.333122 405.514329 
L 246.552754 457.093199 
L 246.772386 316.167925 
L 247.211651 444.788886 
L 247.431283 432.966273 
L 247.650916 382.613026 
L 247.870548 379.58503 
L 248.309812 437.446877 
L 248.529445 229.401526 
L 248.749077 452.639093 
L 248.968709 310.587298 
L 249.188342 393.087801 
L 249.407974 257.240803 
L 249.627606 421.304782 
L 249.847238 416.189904 
L 250.066871 450.377596 
L 250.286503 213.356949 
L 250.506135 347.970143 
L 250.725768 367.21516 
L 250.9454 302.392406 
L 251.165032 278.063016 
L 251.384664 513.239966 
L 251.604297 483.970171 
L 251.823929 408.505139 
L 252.043561 372.949347 
L 252.263194 475.426917 
L 252.482826 358.33782 
L 252.92209 441.582463 
L 253.141723 348.42192 
L 253.361355 443.205481 
L 253.580987 429.375338 
L 253.80062 365.382944 
L 254.020252 495.088323 
L 254.239884 375.367814 
L 254.459516 469.876456 
L 254.679149 442.762908 
L 254.898781 385.731416 
L 255.118413 436.734873 
L 255.338046 350.153722 
L 255.557678 386.630207 
L 255.77731 377.614317 
L 255.996942 408.031992 
L 256.216575 456.340531 
L 256.436207 452.76083 
L 256.655839 428.134309 
L 256.875472 463.597206 
L 257.314736 408.697341 
L 257.534368 333.84704 
L 257.754001 320.216294 
L 257.973633 351.709901 
L 258.193265 278.626759 
L 258.63253 456.958804 
L 259.071794 354.632115 
L 259.511059 511.892346 
L 259.730691 374.901104 
L 259.950323 503.203064 
L 260.169956 515.377706 
L 260.389588 410.613264 
L 260.60922 406.545134 
L 260.828853 372.901964 
L 261.048485 402.724234 
L 261.268117 368.08775 
L 261.487749 435.538787 
L 261.707382 450.576641 
L 261.927014 418.408045 
L 262.146646 282.441182 
L 262.366279 416.566207 
L 262.585911 458.113005 
L 262.805543 368.680055 
L 263.025175 421.510771 
L 263.244808 339.819567 
L 263.46444 378.550133 
L 263.684072 358.008306 
L 263.903705 486.782263 
L 264.123337 469.666835 
L 264.342969 464.338091 
L 264.562601 430.990659 
L 264.782234 324.139344 
L 265.001866 378.025946 
L 265.221498 402.419986 
L 265.441131 295.102402 
L 265.660763 446.992125 
L 265.880395 272.492916 
L 266.100027 469.214521 
L 266.31966 463.753171 
L 266.539292 371.277666 
L 266.758924 410.845584 
L 266.978557 481.090568 
L 267.198189 381.854919 
L 267.417821 418.075053 
L 267.637453 344.417617 
L 268.076718 474.045047 
L 268.29635 409.191478 
L 268.735615 345.439321 
L 268.955247 211.574833 
L 269.174879 402.287507 
L 269.394512 388.257489 
L 269.614144 447.491131 
L 269.833776 373.851891 
L 270.053409 381.374605 
L 270.273041 445.57112 
L 270.492673 392.776086 
L 270.712305 394.214774 
L 270.931938 271.854464 
L 271.15157 480.284725 
L 271.371202 333.243616 
L 271.590835 410.829718 
L 271.810467 392.240427 
L 272.030099 454.347071 
L 272.249731 353.487459 
L 272.469364 407.683069 
L 272.688996 392.478188 
L 273.12826 491.957632 
L 273.567525 398.04077 
L 273.787157 426.848097 
L 274.00679 301.449465 
L 274.226422 395.999666 
L 274.665686 451.339703 
L 274.885319 397.235387 
L 275.104951 461.925 
L 275.324583 264.095344 
L 275.544216 416.160623 
L 275.763848 460.079526 
L 275.98348 409.486324 
L 276.203112 393.162209 
L 276.422745 362.037351 
L 276.642377 296.565602 
L 276.862009 419.575921 
L 277.081642 345.947326 
L 277.301274 454.170446 
L 277.520906 403.494484 
L 277.740538 439.146029 
L 277.960171 422.797666 
L 278.179803 437.04791 
L 278.399435 481.582791 
L 278.619068 431.464935 
L 278.8387 450.577013 
L 279.058332 540.975427 
L 279.277964 437.90342 
L 279.497597 465.91129 
L 279.717229 435.463891 
L 279.936861 347.922403 
L 280.376126 399.865567 
L 280.595758 377.264107 
L 280.81539 482.407504 
L 281.035023 478.347016 
L 281.254655 378.007876 
L 281.474287 343.032628 
L 281.913552 441.217542 
L 282.133184 374.797541 
L 282.572449 418.091789 
L 282.792081 311.609695 
L 283.231346 409.946241 
L 283.450978 410.538566 
L 283.67061 498.1404 
L 283.890242 360.267331 
L 284.109875 401.473715 
L 284.329507 362.963039 
L 284.549139 468.209582 
L 284.768772 413.54268 
L 285.208036 471.815689 
L 285.427668 320.63115 
L 285.647301 322.478185 
L 285.866933 460.397104 
L 286.086565 471.062907 
L 286.306198 394.479836 
L 286.52583 442.465339 
L 286.745462 366.635373 
L 286.965094 400.335348 
L 287.184727 412.666228 
L 287.404359 269.613527 
L 287.623991 323.66067 
L 287.843624 268.03265 
L 288.063256 429.707775 
L 288.282888 444.648558 
L 288.50252 386.261543 
L 288.722153 265.538019 
L 289.161417 488.069 
L 289.381049 420.858317 
L 289.600682 401.451259 
L 289.820314 451.368386 
L 290.039946 390.402854 
L 290.479211 407.274498 
L 290.698843 428.657804 
L 290.918475 379.211818 
L 291.138108 162.320278 
L 291.35774 391.670473 
L 291.577372 350.585465 
L 291.797005 458.682914 
L 292.236269 401.898547 
L 292.455901 328.560342 
L 292.675534 323.272637 
L 292.895166 442.309992 
L 293.114798 416.74474 
L 293.334431 408.725217 
L 293.554063 440.788571 
L 293.773695 447.15798 
L 293.993327 397.249243 
L 294.21296 381.087438 
L 294.432592 465.498092 
L 294.652224 391.404708 
L 294.871857 429.407787 
L 295.091489 338.370401 
L 295.530753 451.672484 
L 295.750386 463.181014 
L 296.18965 366.283598 
L 296.409283 477.154546 
L 296.628915 299.900618 
L 296.848547 430.183959 
L 297.068179 456.117369 
L 297.507444 440.413873 
L 297.727076 421.035043 
L 297.946709 488.924545 
L 298.166341 410.956492 
L 298.385973 503.527666 
L 298.825238 368.646752 
L 299.04487 372.069762 
L 299.264502 492.446739 
L 299.484135 383.552695 
L 299.703767 468.983125 
L 299.923399 364.67049 
L 300.143031 491.124019 
L 300.362664 500.284857 
L 300.582296 445.43975 
L 300.801928 313.889069 
L 301.021561 283.729065 
L 301.241193 492.687723 
L 301.460825 394.170074 
L 301.680457 492.586918 
L 301.90009 414.572775 
L 302.119722 419.086662 
L 302.339354 406.478152 
L 302.558987 430.011843 
L 302.778619 412.819401 
L 302.998251 493.488266 
L 303.217883 368.547239 
L 303.657148 490.418225 
L 303.87678 251.437964 
L 304.096412 469.238477 
L 304.316045 322.210443 
L 304.535677 522.088048 
L 304.755309 422.064857 
L 304.974942 415.115004 
L 305.194574 470.79602 
L 305.414206 460.02366 
L 305.633838 260.892879 
L 305.853471 485.093624 
L 306.073103 452.772139 
L 306.292735 300.254952 
L 306.512368 394.589686 
L 306.732 374.212741 
L 306.951632 467.658957 
L 307.171264 318.626775 
L 307.390897 415.931867 
L 307.610529 443.496984 
L 307.830161 257.657359 
L 308.049794 458.381295 
L 308.269426 283.068332 
L 308.489058 448.654573 
L 308.70869 424.252535 
L 308.928323 361.509739 
L 309.147955 265.538167 
L 309.367587 387.822561 
L 309.58722 443.684211 
L 309.806852 429.599455 
L 310.026484 466.480761 
L 310.246116 446.148115 
L 310.465749 478.293313 
L 310.685381 347.840786 
L 310.905013 316.443633 
L 311.124646 440.433798 
L 311.344278 305.645436 
L 311.56391 346.177553 
L 311.783542 427.292414 
L 312.003175 395.496727 
L 312.222807 538.646921 
L 312.662072 342.398171 
L 312.881704 429.385174 
L 313.101336 435.120097 
L 313.540601 173.870843 
L 313.760233 391.183431 
L 313.979865 448.844752 
L 314.199498 395.163092 
L 314.41913 468.801612 
L 314.638762 434.837225 
L 314.858394 371.079221 
L 315.078027 368.312231 
L 315.517291 493.241926 
L 315.736924 207.47952 
L 315.956556 425.273509 
L 316.176188 447.325219 
L 316.39582 439.718477 
L 316.615453 373.289039 
L 316.835085 385.346538 
L 317.054717 391.075209 
L 317.27435 433.00542 
L 317.493982 363.028742 
L 317.713614 478.806368 
L 317.933246 470.931589 
L 318.152879 474.143328 
L 318.372511 525.634109 
L 318.592143 379.876647 
L 318.811775 437.037403 
L 319.031408 372.180181 
L 319.25104 481.942347 
L 319.470672 399.639472 
L 319.690305 377.556892 
L 319.909937 379.486005 
L 320.129569 292.352434 
L 320.568834 400.754886 
L 320.788466 455.234454 
L 321.227731 414.762074 
L 321.447363 329.484678 
L 321.666995 361.139075 
L 321.886627 489.815422 
L 322.10626 373.455668 
L 322.325892 433.579508 
L 322.545524 257.146118 
L 322.765157 250.00208 
L 322.984789 390.117726 
L 323.204421 324.491819 
L 323.424053 441.279488 
L 323.643686 412.305 
L 324.08295 267.287856 
L 324.302583 454.732986 
L 324.522215 387.081502 
L 324.741847 452.801094 
L 324.961479 425.328937 
L 325.400744 513.575553 
L 325.840009 304.192306 
L 326.059641 366.712532 
L 326.279273 476.190892 
L 326.498905 393.498855 
L 326.718538 362.983278 
L 327.157802 448.135097 
L 327.377435 409.607466 
L 327.597067 446.057117 
L 327.816699 434.168916 
L 328.036331 386.949115 
L 328.255964 476.168393 
L 328.475596 341.901076 
L 328.695228 344.02374 
L 328.914861 422.765524 
L 329.134493 451.139953 
L 329.354125 433.354756 
L 329.573757 402.453386 
L 329.79339 416.160603 
L 330.013022 351.208982 
L 330.232654 398.69589 
L 330.452287 411.535883 
L 330.671919 409.372993 
L 330.891551 381.498028 
L 331.111183 439.310531 
L 331.330816 352.168111 
L 331.550448 485.927679 
L 331.77008 312.200763 
L 331.989713 420.521086 
L 332.209345 358.556418 
L 332.428977 488.671939 
L 332.648609 504.887525 
L 332.868242 468.406104 
L 333.087874 379.50968 
L 333.307506 453.686272 
L 333.527139 415.114784 
L 333.746771 429.972141 
L 333.966403 428.190793 
L 334.186035 297.59768 
L 334.405668 463.447537 
L 334.6253 385.021157 
L 334.844932 351.189201 
L 335.064564 418.546011 
L 335.284197 382.49033 
L 335.503829 392.825805 
L 335.723461 271.53201 
L 335.943094 416.285383 
L 336.162726 462.407155 
L 336.382358 461.915918 
L 336.60199 492.717161 
L 336.821623 336.083123 
L 337.041255 471.227558 
L 337.48052 396.136377 
L 337.700152 443.69103 
L 337.919784 419.809189 
L 338.139416 206.96827 
L 338.359049 291.279835 
L 338.578681 441.210827 
L 338.798313 292.80713 
L 339.017946 437.796481 
L 339.237578 430.24335 
L 339.45721 459.94621 
L 339.676842 332.080277 
L 339.896475 295.569481 
L 340.335739 476.829531 
L 340.555372 438.368237 
L 340.775004 460.785312 
L 341.214268 359.171197 
L 341.433901 444.225265 
L 341.653533 404.297825 
L 341.873165 466.448902 
L 342.092798 319.252182 
L 342.31243 481.862558 
L 342.532062 492.202073 
L 342.751694 351.670403 
L 342.971327 455.316306 
L 343.190959 351.857907 
L 343.410591 407.133251 
L 343.630224 517.079462 
L 343.849856 344.497952 
L 344.28912 432.693088 
L 344.508753 545.941928 
L 344.728385 417.128636 
L 344.948017 482.613809 
L 345.16765 435.238125 
L 345.387282 287.921248 
L 345.606914 380.302544 
L 345.826546 338.225672 
L 346.046179 374.81644 
L 346.265811 438.06843 
L 346.705076 245.359936 
L 346.924708 377.182452 
L 347.14434 386.742641 
L 347.363972 406.26438 
L 347.583605 402.068398 
L 347.803237 552.216609 
L 348.022869 445.578675 
L 348.242502 463.989132 
L 348.462134 516.034887 
L 348.681766 366.376234 
L 348.901398 508.045551 
L 349.121031 369.43731 
L 349.340663 344.582161 
L 349.560295 418.65672 
L 349.779927 337.678299 
L 349.99956 335.317441 
L 350.219192 426.159554 
L 350.438824 249.210637 
L 350.878089 319.894163 
L 351.317353 470.939863 
L 351.536986 445.604017 
L 351.756618 512.687214 
L 352.195883 307.967829 
L 352.415515 428.965665 
L 352.635147 350.038237 
L 352.854779 412.935787 
L 353.074412 420.35639 
L 353.294044 436.958629 
L 353.513676 512.016918 
L 353.733309 410.299331 
L 353.952941 402.960294 
L 354.172573 369.398294 
L 354.392205 233.891551 
L 354.611838 409.228408 
L 354.83147 464.653593 
L 355.270735 395.15037 
L 355.490367 441.848572 
L 355.709999 321.629019 
L 355.929631 439.427027 
L 356.149264 401.910017 
L 356.368896 537.536436 
L 356.588528 352.307146 
L 356.808161 466.709705 
L 357.027793 349.598113 
L 357.247425 467.728607 
L 357.68669 391.423968 
L 357.906322 342.609606 
L 358.125954 464.275958 
L 358.345587 467.609003 
L 358.565219 445.542054 
L 358.784851 442.514304 
L 359.004483 519.722528 
L 359.443748 313.86083 
L 359.66338 463.542561 
L 359.883013 360.17921 
L 360.102645 367.356045 
L 360.322277 149.004739 
L 360.541909 378.619806 
L 360.761542 326.795999 
L 360.981174 396.2882 
L 361.200806 351.238916 
L 361.420439 405.77577 
L 361.859703 360.133544 
L 362.079335 245.977437 
L 362.298968 354.595861 
L 362.5186 361.110401 
L 362.738232 431.210825 
L 363.177497 306.124872 
L 363.397129 461.08021 
L 363.616761 357.288158 
L 363.836394 445.559088 
L 364.056026 349.847318 
L 364.275658 492.615178 
L 364.495291 444.893886 
L 364.714923 510.212186 
L 364.934555 390.92251 
L 365.154187 354.220167 
L 365.37382 347.673712 
L 365.593452 426.725904 
L 365.813084 435.876905 
L 366.032716 459.970137 
L 366.252349 452.184995 
L 366.471981 465.830432 
L 366.691613 335.69796 
L 366.911246 472.536943 
L 367.35051 387.299393 
L 367.570142 443.357266 
L 367.789775 406.832821 
L 368.009407 452.229083 
L 368.229039 408.887829 
L 368.448672 301.291663 
L 368.668304 434.250349 
L 369.107568 225.696032 
L 369.327201 282.676093 
L 369.546833 457.426427 
L 369.766465 356.086155 
L 369.986098 445.717871 
L 370.425362 413.538866 
L 370.644994 412.096369 
L 370.864627 414.379516 
L 371.084259 299.62539 
L 371.303891 502.421496 
L 371.523524 465.119805 
L 371.743156 238.739845 
L 371.962788 443.37441 
L 372.18242 475.912039 
L 372.402053 433.121117 
L 372.621685 428.547506 
L 372.841317 432.231709 
L 373.06095 442.516665 
L 373.280582 361.938284 
L 373.500214 359.370364 
L 373.719846 426.894849 
L 374.159111 459.855298 
L 374.378743 523.132989 
L 374.598376 359.021298 
L 374.818008 368.280773 
L 375.257272 467.249193 
L 375.476905 375.81704 
L 375.696537 412.663524 
L 375.916169 414.831657 
L 376.135802 524.243957 
L 376.355434 336.287587 
L 376.575066 419.521573 
L 376.794698 427.631981 
L 377.233963 580.503039 
L 377.453595 277.967233 
L 377.673228 495.509955 
L 377.89286 322.203055 
L 378.332124 440.348919 
L 378.551757 358.312946 
L 378.771389 333.647331 
L 378.991021 438.121783 
L 379.210654 482.136556 
L 379.430286 446.853725 
L 379.649918 273.150555 
L 379.86955 548.17207 
L 380.308815 484.469948 
L 380.528447 475.162073 
L 380.748079 407.605055 
L 381.187344 466.148216 
L 381.406976 473.107059 
L 381.626609 411.704523 
L 381.846241 428.456331 
L 382.065873 407.026791 
L 382.285505 277.581713 
L 382.505138 448.394669 
L 382.72477 471.560867 
L 382.944402 359.406487 
L 383.164035 377.515779 
L 383.383667 517.202673 
L 383.603299 466.523219 
L 383.822931 461.199711 
L 384.042564 291.502597 
L 384.262196 406.613777 
L 384.481828 367.482661 
L 384.701461 379.777165 
L 384.921093 432.716736 
L 385.140725 430.024323 
L 385.360357 498.395307 
L 385.57999 389.468608 
L 385.799622 504.841906 
L 386.019254 397.348752 
L 386.238887 425.615327 
L 386.458519 288.776263 
L 386.678151 403.595967 
L 386.897783 341.15718 
L 387.117416 498.534727 
L 387.995945 364.912413 
L 388.215577 384.658742 
L 388.435209 429.174155 
L 388.654842 337.905025 
L 388.874474 184.620107 
L 389.094106 389.593541 
L 389.313739 489.733532 
L 389.533371 367.1647 
L 389.753003 421.574507 
L 389.972635 520.93422 
L 390.192268 425.409031 
L 390.4119 386.513023 
L 390.631532 491.497308 
L 391.070797 356.189726 
L 391.290429 389.85385 
L 391.510061 444.435719 
L 391.729694 293.761436 
L 391.949326 409.375745 
L 392.168958 460.398435 
L 392.388591 416.296468 
L 392.608223 485.762042 
L 392.827855 393.786767 
L 393.047487 351.659877 
L 393.26712 398.200515 
L 393.486752 385.22657 
L 393.706384 424.584674 
L 393.926017 384.143397 
L 394.145649 440.737958 
L 394.365281 454.777297 
L 394.584913 365.224077 
L 394.804546 421.641612 
L 395.024178 351.815696 
L 395.24381 323.775745 
L 395.463443 334.188122 
L 395.683075 330.765894 
L 395.902707 436.398725 
L 396.122339 277.067009 
L 396.341972 390.996802 
L 396.561604 377.683281 
L 396.781236 435.423925 
L 397.000868 351.344617 
L 397.220501 155.94273 
L 397.440133 379.314311 
L 397.659765 416.576947 
L 397.879398 393.31855 
L 398.09903 396.978694 
L 398.318662 319.136176 
L 398.538294 415.645855 
L 398.757927 386.281136 
L 398.977559 379.620101 
L 399.197191 443.019467 
L 399.416824 429.673122 
L 399.636456 432.63179 
L 399.856088 336.383618 
L 400.07572 435.333055 
L 400.295353 354.217969 
L 400.514985 335.295465 
L 400.734617 341.065156 
L 400.95425 464.360827 
L 401.173882 503.36715 
L 401.393514 397.04735 
L 401.613146 347.591618 
L 401.832779 444.027396 
L 402.052411 489.063636 
L 402.272043 409.321385 
L 402.491676 391.073649 
L 402.711308 340.648799 
L 402.93094 475.299895 
L 403.150572 404.821683 
L 403.370205 428.520448 
L 403.589837 390.376389 
L 403.809469 483.41297 
L 404.029102 390.442432 
L 404.468366 509.731971 
L 404.687998 413.843066 
L 404.907631 406.047347 
L 405.127263 429.723662 
L 405.346895 359.531293 
L 405.566528 463.868592 
L 405.78616 342.195431 
L 406.225424 459.465683 
L 406.445057 473.732035 
L 406.664689 419.101613 
L 406.884321 293.685834 
L 407.103954 390.299579 
L 407.323586 420.181039 
L 407.543218 401.790834 
L 407.76285 504.284109 
L 407.982483 425.930491 
L 408.202115 301.791176 
L 408.421747 519.665761 
L 408.861012 355.071053 
L 409.300276 454.070004 
L 409.519909 404.025905 
L 409.959173 493.942957 
L 410.178806 414.130205 
L 410.398438 395.149503 
L 410.61807 354.847715 
L 410.837702 347.265854 
L 411.057335 412.170061 
L 411.276967 331.420076 
L 411.496599 380.503802 
L 411.716231 456.682403 
L 411.935864 426.251851 
L 412.155496 249.684231 
L 412.375128 453.141444 
L 412.814393 400.49899 
L 413.034025 405.927767 
L 413.253657 393.046194 
L 413.47329 397.626642 
L 413.692922 422.390801 
L 414.132187 364.910883 
L 414.351819 385.409465 
L 414.571451 142.470927 
L 414.791083 425.553311 
L 415.010716 446.439214 
L 415.230348 431.727241 
L 415.44998 344.025548 
L 415.669613 468.646918 
L 415.889245 418.405563 
L 416.108877 262.586243 
L 416.328509 477.038385 
L 416.548142 553.867334 
L 416.767774 408.565379 
L 416.987406 374.880647 
L 417.207039 432.190162 
L 417.426671 251.268121 
L 417.865935 514.396845 
L 418.085568 335.557244 
L 418.3052 358.492539 
L 418.524832 402.696311 
L 418.744465 353.420147 
L 418.964097 382.488868 
L 419.183729 270.343288 
L 419.403361 449.123729 
L 419.622994 386.444637 
L 419.842626 470.153887 
L 420.062258 407.179172 
L 420.281891 394.844001 
L 420.501523 265.613683 
L 420.940787 478.166602 
L 421.16042 322.51134 
L 421.380052 496.523659 
L 421.599684 402.254179 
L 421.819317 398.586765 
L 422.038949 414.036967 
L 422.258581 332.35467 
L 422.478213 465.514743 
L 422.697846 466.095017 
L 422.917478 271.160972 
L 423.13711 307.245792 
L 423.356743 452.83365 
L 423.576375 268.578398 
L 423.796007 497.535353 
L 424.015639 475.426855 
L 424.235272 471.483784 
L 424.454904 416.567945 
L 424.674536 400.223995 
L 424.894169 213.7655 
L 425.113801 482.863674 
L 425.333433 288.623644 
L 425.553065 292.316177 
L 425.99233 434.581989 
L 426.211962 329.480509 
L 426.431594 369.704932 
L 426.651227 294.915113 
L 426.870859 320.263252 
L 427.090491 511.421989 
L 427.310124 468.799842 
L 427.529756 357.75516 
L 427.749388 418.509805 
L 427.96902 414.405152 
L 428.188653 528.951263 
L 428.408285 378.558893 
L 428.627917 549.103816 
L 428.84755 371.682549 
L 429.067182 534.425101 
L 429.286814 324.164602 
L 429.506446 357.179097 
L 429.726079 301.283998 
L 429.945711 387.140305 
L 430.165343 360.672281 
L 430.384976 412.647815 
L 430.604608 356.622633 
L 430.82424 427.547931 
L 431.043872 429.583576 
L 431.263505 423.497725 
L 431.483137 450.156403 
L 431.702769 379.228263 
L 431.922402 423.290348 
L 432.142034 442.829957 
L 432.361666 369.775685 
L 432.581298 458.579049 
L 432.800931 435.098989 
L 433.020563 383.103057 
L 433.240195 391.470232 
L 433.459828 479.692808 
L 433.67946 411.424239 
L 434.118724 439.360544 
L 434.338357 359.165238 
L 434.777621 339.460731 
L 434.997254 328.215037 
L 435.216886 440.881474 
L 435.436518 336.063684 
L 435.875783 441.355465 
L 436.095415 526.417036 
L 436.315047 420.882881 
L 436.53468 403.942523 
L 436.754312 280.535513 
L 436.973944 239.942756 
L 437.413209 466.111318 
L 437.632841 311.438678 
L 437.852473 366.311854 
L 438.072106 485.297988 
L 438.291738 500.839605 
L 438.950635 285.895133 
L 439.170267 356.811377 
L 439.389899 490.988149 
L 439.609532 364.947517 
L 439.829164 448.879972 
L 440.048796 410.15409 
L 440.268428 425.731444 
L 440.488061 344.564286 
L 440.927325 491.852114 
L 441.586222 408.014068 
L 441.805854 462.297696 
L 442.025487 485.898777 
L 442.245119 325.182606 
L 442.684383 378.588221 
L 442.904016 363.032361 
L 443.123648 384.433868 
L 443.562913 520.311078 
L 443.782545 460.828885 
L 444.002177 460.811714 
L 444.221809 305.855141 
L 444.441442 408.440697 
L 444.661074 278.566041 
L 445.100339 453.394168 
L 445.319971 397.743973 
L 445.539603 258.252299 
L 445.759235 445.244985 
L 445.978868 442.138256 
L 446.1985 440.671615 
L 446.418132 456.664972 
L 446.637765 449.697226 
L 446.857397 379.07141 
L 447.077029 369.922484 
L 447.296661 433.366747 
L 447.516294 271.221509 
L 447.735926 426.696716 
L 447.955558 337.782062 
L 448.175191 501.254015 
L 448.394823 503.734933 
L 448.614455 396.56767 
L 448.834087 489.907699 
L 449.05372 290.313901 
L 449.273352 390.174721 
L 449.492984 373.277487 
L 449.712617 373.579318 
L 449.932249 442.079316 
L 450.151881 403.580505 
L 450.371513 393.719352 
L 450.591146 429.445865 
L 450.810778 294.27751 
L 451.03041 451.010001 
L 451.250043 471.922963 
L 451.469675 424.494097 
L 451.689307 418.01289 
L 451.908939 435.386021 
L 452.128572 368.657468 
L 452.348204 374.92985 
L 452.567836 302.183806 
L 452.787469 370.009694 
L 453.007101 380.302776 
L 453.226733 294.053277 
L 453.665998 364.826275 
L 453.88563 467.899378 
L 454.105262 407.314783 
L 454.324895 445.060565 
L 454.544527 406.930732 
L 454.764159 521.422504 
L 454.983791 357.087171 
L 455.203424 448.518557 
L 455.423056 449.938777 
L 455.642688 350.992601 
L 455.862321 364.429798 
L 456.081953 436.053472 
L 456.301585 405.691319 
L 456.521217 337.007117 
L 456.74085 428.572166 
L 456.960482 364.019731 
L 457.180114 413.981028 
L 457.399746 381.568907 
L 457.619379 370.728749 
L 457.839011 395.037773 
L 458.058643 338.571733 
L 458.278276 356.98383 
L 458.497908 425.6869 
L 458.71754 431.374064 
L 458.937172 385.090546 
L 459.156805 422.308009 
L 459.376437 426.338508 
L 459.596069 407.095042 
L 459.815702 401.786606 
L 460.035334 435.450998 
L 460.254966 442.133544 
L 460.474598 353.887974 
L 460.694231 482.055258 
L 460.913863 417.63499 
L 461.133495 281.322316 
L 461.353128 307.033889 
L 461.57276 447.576335 
L 461.792392 470.420415 
L 462.012024 421.306502 
L 462.231657 516.17333 
L 462.670921 304.878603 
L 462.890554 443.710938 
L 463.110186 429.100456 
L 463.329818 387.462941 
L 463.54945 484.703932 
L 463.769083 211.143475 
L 463.988715 429.762685 
L 464.208347 358.591467 
L 464.42798 424.385941 
L 464.867244 310.396851 
L 465.086876 467.56765 
L 465.306509 448.418544 
L 465.526141 406.77138 
L 465.745773 421.581249 
L 465.965406 288.782059 
L 466.185038 438.66861 
L 466.40467 301.347695 
L 466.624302 414.352884 
L 466.843935 345.118612 
L 467.063567 377.838001 
L 467.283199 311.652155 
L 467.722464 478.787422 
L 467.942096 434.993605 
L 468.161728 326.144776 
L 468.381361 344.520597 
L 468.600993 254.987611 
L 468.820625 387.266625 
L 469.040258 405.855149 
L 469.25989 329.111495 
L 469.479522 350.018532 
L 469.699154 295.077047 
L 469.918787 450.290439 
L 470.138419 406.690661 
L 470.358051 432.43289 
L 470.577684 489.394071 
L 470.797316 374.974338 
L 471.016948 358.907564 
L 471.23658 440.356733 
L 471.456213 474.877776 
L 471.675845 403.621828 
L 471.895477 435.569691 
L 472.11511 420.569047 
L 472.334742 389.807281 
L 472.554374 389.859393 
L 472.774006 496.977837 
L 472.993639 513.677523 
L 473.213271 440.290657 
L 473.432903 404.8351 
L 473.652535 474.130809 
L 473.872168 477.126465 
L 474.0918 254.864478 
L 474.311432 470.619687 
L 474.531065 405.548003 
L 474.750697 468.164925 
L 474.970329 436.925525 
L 475.189961 299.984896 
L 475.409594 359.601402 
L 475.629226 479.126303 
L 475.848858 391.492787 
L 476.068491 457.422053 
L 476.288123 318.428759 
L 476.727387 473.693163 
L 476.94702 370.959661 
L 477.166652 376.761187 
L 477.386284 326.242059 
L 477.605917 490.072519 
L 478.045181 414.094794 
L 478.264813 445.687075 
L 478.484446 392.954275 
L 478.704078 395.260243 
L 478.92371 455.38542 
L 479.143343 382.983144 
L 479.362975 392.91697 
L 479.582607 395.89475 
L 480.021872 482.103046 
L 480.241504 349.92823 
L 480.461136 319.442951 
L 480.680769 516.863695 
L 480.900401 271.507332 
L 481.120033 389.711365 
L 481.339665 412.037636 
L 481.559298 365.195951 
L 481.77893 458.518919 
L 481.998562 485.317838 
L 482.218195 459.393783 
L 482.437827 468.657672 
L 482.657459 458.31368 
L 482.877091 332.800761 
L 483.096724 430.407948 
L 483.535988 294.315791 
L 483.755621 443.708594 
L 483.975253 345.009988 
L 484.194885 362.269437 
L 484.63415 527.658674 
L 484.853782 389.835758 
L 485.293047 398.689733 
L 485.512679 462.147806 
L 485.732311 419.047971 
L 485.951943 450.639587 
L 486.171576 427.377689 
L 486.391208 461.509428 
L 486.61084 365.063997 
L 486.830473 365.976771 
L 487.050105 443.085823 
L 487.269737 364.109079 
L 487.709002 457.114295 
L 487.928634 390.977686 
L 488.148266 461.046432 
L 488.367898 489.440724 
L 488.587531 287.762979 
L 488.807163 479.511516 
L 489.026795 271.267201 
L 489.46606 508.03922 
L 489.685692 432.402168 
L 489.905324 446.281213 
L 490.124957 398.156754 
L 490.344589 433.624651 
L 490.564221 361.58844 
L 490.783854 183.947705 
L 491.003486 475.846168 
L 491.223118 475.090638 
L 491.44275 418.385076 
L 491.662383 455.86398 
L 491.882015 323.385875 
L 492.101647 434.014376 
L 492.32128 486.695919 
L 492.540912 436.113398 
L 492.760544 506.64965 
L 492.980176 294.568212 
L 493.199809 462.570603 
L 493.419441 415.656781 
L 493.639073 415.478156 
L 493.858706 503.193985 
L 494.078338 369.229384 
L 494.29797 481.871466 
L 494.737235 365.689789 
L 494.956867 354.253017 
L 495.176499 410.867105 
L 495.615764 246.199643 
L 496.055028 463.262835 
L 496.274661 525.800189 
L 496.494293 333.317057 
L 496.713925 477.864333 
L 496.933558 316.260544 
L 497.15319 299.2293 
L 497.372822 467.817886 
L 497.592454 376.903732 
L 497.812087 238.960224 
L 498.031719 455.848862 
L 498.251351 333.816926 
L 498.470984 396.239377 
L 498.910248 364.392101 
L 499.12988 273.043271 
L 499.349513 537.037897 
L 499.788777 273.542462 
L 500.228042 398.262931 
L 500.447674 398.512005 
L 500.667306 501.046001 
L 500.886939 405.547644 
L 501.106571 462.071368 
L 501.326203 394.543096 
L 501.545836 510.635502 
L 501.765468 275.838353 
L 501.9851 473.3362 
L 502.204732 404.386586 
L 502.424365 460.817957 
L 502.643997 395.109646 
L 502.863629 396.647691 
L 503.083262 449.455546 
L 503.302894 447.823377 
L 503.522526 429.681454 
L 503.742158 421.38897 
L 503.961791 346.690957 
L 504.181423 426.911672 
L 504.401055 287.802275 
L 504.620687 328.757923 
L 504.84032 467.973626 
L 505.059952 331.558734 
L 505.279584 349.901703 
L 505.499217 402.05627 
L 505.718849 286.242504 
L 505.938481 540.957999 
L 506.158113 477.180175 
L 506.377746 335.274209 
L 506.597378 431.710435 
L 506.81701 441.293311 
L 507.036643 249.188178 
L 507.256275 407.277824 
L 507.475907 409.802922 
L 507.695539 250.842358 
L 507.915172 320.689386 
L 508.134804 442.673326 
L 508.354436 270.940746 
L 508.574069 514.498842 
L 508.793701 407.587778 
L 509.013333 374.722393 
L 509.232965 370.021935 
L 509.452598 302.134104 
L 509.67223 472.528898 
L 509.891862 470.467526 
L 510.111495 428.473441 
L 510.331127 320.563002 
L 510.550759 467.638665 
L 510.770391 326.643514 
L 510.990024 428.469416 
L 511.209656 462.471319 
L 511.429288 467.46758 
L 511.648921 465.484478 
L 511.868553 440.640417 
L 512.088185 448.858726 
L 512.307817 485.608068 
L 512.52745 427.179798 
L 512.966714 484.672649 
L 513.186347 375.243823 
L 513.625611 463.35687 
L 513.845243 384.264572 
L 514.064876 469.110721 
L 514.284508 359.362009 
L 514.50414 426.813862 
L 514.723773 436.835652 
L 514.943405 437.165442 
L 515.163037 437.94783 
L 515.382669 360.103378 
L 515.602302 424.373296 
L 515.821934 291.971578 
L 516.041566 342.803245 
L 516.480831 513.063253 
L 516.920095 334.605299 
L 517.139728 324.597454 
L 517.35936 462.307159 
L 517.578992 468.734831 
L 517.798625 398.832404 
L 518.018257 411.663986 
L 518.237889 348.601088 
L 518.457521 390.636287 
L 518.677154 302.862612 
L 519.116418 412.883168 
L 519.33605 377.460862 
L 519.555683 378.746684 
L 519.994947 465.276827 
L 520.21458 344.099313 
L 520.434212 378.997499 
L 520.873476 339.424317 
L 521.093109 467.0717 
L 521.312741 475.712956 
L 521.532373 490.246216 
L 521.752006 460.90748 
L 521.971638 351.198342 
L 522.410902 429.819662 
L 522.630535 472.366023 
L 522.850167 347.829944 
L 523.069799 408.46423 
L 523.289432 366.845568 
L 523.509064 363.673963 
L 523.728696 212.971284 
L 524.167961 465.587743 
L 524.387593 410.944817 
L 524.607225 199.187028 
L 524.826858 490.994501 
L 525.04649 307.921639 
L 525.266122 479.191509 
L 525.485754 393.295225 
L 525.705387 530.855204 
L 525.925019 499.466983 
L 526.144651 503.465347 
L 526.364284 403.214708 
L 526.583916 238.4538 
L 526.803548 355.105375 
L 527.02318 378.279339 
L 527.242813 424.020521 
L 527.462445 378.843129 
L 527.682077 418.211097 
L 527.90171 337.532898 
L 528.340974 449.58551 
L 528.560606 386.589572 
L 528.780239 421.019747 
L 528.999871 386.410291 
L 529.219503 241.143914 
L 529.658768 351.014409 
L 529.8784 268.426148 
L 530.098032 466.573739 
L 530.317665 522.164097 
L 530.537297 491.684091 
L 530.756929 496.573339 
L 530.976562 530.848397 
L 531.196194 443.530676 
L 531.415826 475.536489 
L 531.635458 357.95518 
L 531.855091 433.746865 
L 532.074723 442.174726 
L 532.294355 388.540138 
L 532.513988 406.98051 
L 532.73362 438.17235 
L 533.172884 398.448532 
L 533.612149 381.662761 
L 534.051413 543.890199 
L 534.271046 338.327772 
L 534.929943 467.244443 
L 535.149575 286.489928 
L 535.369207 413.449467 
L 535.588839 406.276842 
L 535.808472 450.577856 
L 536.028104 328.628244 
L 536.247736 356.064431 
L 536.467369 462.972201 
L 536.687001 410.540887 
L 536.906633 463.27937 
L 537.126265 437.985271 
L 537.345898 431.338774 
L 537.56553 479.597234 
L 537.785162 492.958389 
L 538.004795 372.816651 
L 538.224427 391.992088 
L 538.444059 457.947868 
L 538.663691 405.172353 
L 538.883324 389.398345 
L 539.102956 498.845145 
L 539.322588 425.577596 
L 539.542221 526.276407 
L 539.761853 500.056183 
L 539.981485 402.060546 
L 540.201117 444.417056 
L 540.42075 267.232985 
L 540.640382 480.264485 
L 540.860014 455.285445 
L 541.079647 340.493044 
L 541.299279 335.01378 
L 541.518911 305.256334 
L 541.958176 463.01362 
L 542.177808 411.638983 
L 542.39744 426.727724 
L 542.836705 398.58015 
L 543.056337 273.425211 
L 543.495602 436.143367 
L 543.715234 487.835707 
L 544.154499 352.090827 
L 544.374131 354.886849 
L 544.593763 286.671739 
L 544.813395 405.277691 
L 545.033028 275.963721 
L 545.25266 305.031701 
L 545.472292 441.971418 
L 545.691925 498.08304 
L 545.911557 422.46085 
L 545.911557 422.46085 
" style="fill:none;stroke:#96c69a;stroke-linecap:round;stroke-width:3;"/>
   </g>
   <g id="line2d_2"/>
   <g id="patch_3">
    <path d="M 84.914375 602.94 
L 84.914375 109.326857 
" style="fill:none;stroke:#262626;stroke-linecap:square;stroke-linejoin:miter;stroke-width:2.5;"/>
   </g>
   <g id="patch_4">
    <path d="M 84.914375 602.94 
L 567.863804 602.94 
" style="fill:none;stroke:#262626;stroke-linecap:square;stroke-linejoin:miter;stroke-width:2.5;"/>
   </g>
   <g id="legend_1">
    <g id="patch_5">
     <path d="M 507.990366 597.94 
L 560.863804 597.94 
Q 562.863804 597.94 562.863804 595.94 
L 562.863804 554.034375 
Q 562.863804 552.034375 560.863804 552.034375 
L 507.990366 552.034375 
Q 505.990366 552.034375 505.990366 554.034375 
L 505.990366 595.94 
Q 505.990366 597.94 507.990366 597.94 
z
" style="fill:#ffffff;opacity:0.8;stroke:#cccccc;stroke-linejoin:miter;stroke-width:2;"/>
    </g>
    <g id="text_17">
     <!-- $n_\tau$ -->
     <g style="fill:#262626;" transform="translate(521.347085 574.270625)scale(0.24 -0.24)">
      <defs>
       <path d="M 3566 2113 
L 3156 0 
L 2578 0 
L 2988 2091 
Q 3016 2238 3031 2350 
Q 3047 2463 3047 2528 
Q 3047 2791 2881 2937 
Q 2716 3084 2419 3084 
Q 1956 3084 1622 2776 
Q 1288 2469 1184 1941 
L 800 0 
L 225 0 
L 903 3500 
L 1478 3500 
L 1363 2950 
Q 1603 3253 1940 3418 
Q 2278 3584 2650 3584 
Q 3113 3584 3367 3334 
Q 3622 3084 3622 2631 
Q 3622 2519 3608 2391 
Q 3594 2263 3566 2113 
z
" id="DejaVuSans-Oblique-6e" transform="scale(0.015625)"/>
       <path d="M 2103 638 
Q 2188 488 2525 488 
L 2800 488 
L 2706 0 
L 2363 0 
Q 1800 0 1600 300 
Q 1403 606 1534 1269 
L 1856 2925 
L 541 2925 
L 653 3500 
L 3881 3500 
L 3769 2925 
L 2444 2925 
L 2113 1234 
Q 2025 781 2103 638 
z
" id="DejaVuSans-Oblique-3c4" transform="scale(0.015625)"/>
      </defs>
      <use xlink:href="#DejaVuSans-Oblique-6e"/>
      <use transform="translate(63.378906 -16.40625)scale(0.7)" xlink:href="#DejaVuSans-Oblique-3c4"/>
     </g>
    </g>
    <g id="line2d_3">
     <path d="M 509.990366 588.360312 
L 529.990366 588.360312 
" style="fill:none;stroke:#96c69a;stroke-linecap:round;stroke-width:3;"/>
    </g>
    <g id="line2d_4"/>
    <g id="text_18">
     <!-- 160 -->
     <g style="fill:#262626;" transform="translate(537.990366 591.860312)scale(0.1 -0.1)">
      <defs>
       <path d="M 750 831 
L 1813 831 
L 1813 3847 
L 722 3622 
L 722 4441 
L 1806 4666 
L 2950 4666 
L 2950 831 
L 4013 831 
L 4013 0 
L 750 0 
L 750 831 
z
" id="DejaVuSans-Bold-31" transform="scale(0.015625)"/>
       <path d="M 2316 2303 
Q 2000 2303 1842 2098 
Q 1684 1894 1684 1484 
Q 1684 1075 1842 870 
Q 2000 666 2316 666 
Q 2634 666 2792 870 
Q 2950 1075 2950 1484 
Q 2950 1894 2792 2098 
Q 2634 2303 2316 2303 
z
M 3803 4544 
L 3803 3681 
Q 3506 3822 3243 3889 
Q 2981 3956 2731 3956 
Q 2194 3956 1894 3657 
Q 1594 3359 1544 2772 
Q 1750 2925 1990 3001 
Q 2231 3078 2516 3078 
Q 3231 3078 3670 2659 
Q 4109 2241 4109 1563 
Q 4109 813 3618 361 
Q 3128 -91 2303 -91 
Q 1394 -91 895 523 
Q 397 1138 397 2266 
Q 397 3422 980 4083 
Q 1563 4744 2578 4744 
Q 2900 4744 3203 4694 
Q 3506 4644 3803 4544 
z
" id="DejaVuSans-Bold-36" transform="scale(0.015625)"/>
       <path d="M 2944 2338 
Q 2944 3213 2780 3570 
Q 2616 3928 2228 3928 
Q 1841 3928 1675 3570 
Q 1509 3213 1509 2338 
Q 1509 1453 1675 1090 
Q 1841 728 2228 728 
Q 2613 728 2778 1090 
Q 2944 1453 2944 2338 
z
M 4147 2328 
Q 4147 1169 3647 539 
Q 3147 -91 2228 -91 
Q 1306 -91 806 539 
Q 306 1169 306 2328 
Q 306 3491 806 4120 
Q 1306 4750 2228 4750 
Q 3147 4750 3647 4120 
Q 4147 3491 4147 2328 
z
" id="DejaVuSans-Bold-30" transform="scale(0.015625)"/>
      </defs>
      <use xlink:href="#DejaVuSans-Bold-31"/>
      <use x="69.580078" xlink:href="#DejaVuSans-Bold-36"/>
      <use x="139.160156" xlink:href="#DejaVuSans-Bold-30"/>
     </g>
    </g>
   </g>
  </g>
  <g id="axes_2">
   <g id="patch_6">
    <path d="M 84.914375 92.305714 
L 567.863804 92.305714 
L 567.863804 7.2 
L 84.914375 7.2 
z
" style="fill:none;"/>
   </g>
   <g id="matplotlib.axis_3">
    <g id="xtick_7"/>
    <g id="xtick_8"/>
    <g id="xtick_9"/>
    <g id="xtick_10"/>
    <g id="xtick_11"/>
    <g id="xtick_12"/>
   </g>
   <g id="matplotlib.axis_4">
    <g id="ytick_9">
     <g id="text_19">
      <!-- 0 -->
      <g style="fill:#262626;" transform="translate(55.416875 100.663996)scale(0.22 -0.22)">
       <use xlink:href="#DejaVuSans-30"/>
      </g>
     </g>
    </g>
    <g id="ytick_10">
     <g id="text_20">
      <!-- 100 -->
      <g style="fill:#262626;" transform="translate(27.421875 48.032138)scale(0.22 -0.22)">
       <use xlink:href="#DejaVuSans-31"/>
       <use x="63.623047" xlink:href="#DejaVuSans-30"/>
       <use x="127.246094" xlink:href="#DejaVuSans-30"/>
      </g>
     </g>
    </g>
   </g>
   <g id="patch_7">
    <path clip-path="url(#pefeda8cdcf)" d="M 106.866622 92.305714 
L 140.639309 92.305714 
L 140.639309 11.252653 
L 106.866622 11.252653 
z
" style="fill:#96c69a;fill-opacity:0.5;stroke:#ffffff;stroke-linejoin:miter;stroke-width:2;"/>
   </g>
   <g id="patch_8">
    <path clip-path="url(#pefeda8cdcf)" d="M 140.639309 92.305714 
L 174.411996 92.305714 
L 174.411996 11.252653 
L 140.639309 11.252653 
z
" style="fill:#96c69a;fill-opacity:0.5;stroke:#ffffff;stroke-linejoin:miter;stroke-width:2;"/>
   </g>
   <g id="patch_9">
    <path clip-path="url(#pefeda8cdcf)" d="M 174.411996 92.305714 
L 208.184684 92.305714 
L 208.184684 11.252653 
L 174.411996 11.252653 
z
" style="fill:#96c69a;fill-opacity:0.5;stroke:#ffffff;stroke-linejoin:miter;stroke-width:2;"/>
   </g>
   <g id="patch_10">
    <path clip-path="url(#pefeda8cdcf)" d="M 208.184684 92.305714 
L 241.957371 92.305714 
L 241.957371 11.252653 
L 208.184684 11.252653 
z
" style="fill:#96c69a;fill-opacity:0.5;stroke:#ffffff;stroke-linejoin:miter;stroke-width:2;"/>
   </g>
   <g id="patch_11">
    <path clip-path="url(#pefeda8cdcf)" d="M 241.957371 92.305714 
L 275.730058 92.305714 
L 275.730058 11.778972 
L 241.957371 11.778972 
z
" style="fill:#96c69a;fill-opacity:0.5;stroke:#ffffff;stroke-linejoin:miter;stroke-width:2;"/>
   </g>
   <g id="patch_12">
    <path clip-path="url(#pefeda8cdcf)" d="M 275.730058 92.305714 
L 309.502746 92.305714 
L 309.502746 11.252653 
L 275.730058 11.252653 
z
" style="fill:#96c69a;fill-opacity:0.5;stroke:#ffffff;stroke-linejoin:miter;stroke-width:2;"/>
   </g>
   <g id="patch_13">
    <path clip-path="url(#pefeda8cdcf)" d="M 309.502746 92.305714 
L 343.275433 92.305714 
L 343.275433 11.252653 
L 309.502746 11.252653 
z
" style="fill:#96c69a;fill-opacity:0.5;stroke:#ffffff;stroke-linejoin:miter;stroke-width:2;"/>
   </g>
   <g id="patch_14">
    <path clip-path="url(#pefeda8cdcf)" d="M 343.275433 92.305714 
L 377.04812 92.305714 
L 377.04812 11.252653 
L 343.275433 11.252653 
z
" style="fill:#96c69a;fill-opacity:0.5;stroke:#ffffff;stroke-linejoin:miter;stroke-width:2;"/>
   </g>
   <g id="patch_15">
    <path clip-path="url(#pefeda8cdcf)" d="M 377.04812 92.305714 
L 410.820808 92.305714 
L 410.820808 11.778972 
L 377.04812 11.778972 
z
" style="fill:#96c69a;fill-opacity:0.5;stroke:#ffffff;stroke-linejoin:miter;stroke-width:2;"/>
   </g>
   <g id="patch_16">
    <path clip-path="url(#pefeda8cdcf)" d="M 410.820808 92.305714 
L 444.593495 92.305714 
L 444.593495 11.252653 
L 410.820808 11.252653 
z
" style="fill:#96c69a;fill-opacity:0.5;stroke:#ffffff;stroke-linejoin:miter;stroke-width:2;"/>
   </g>
   <g id="patch_17">
    <path clip-path="url(#pefeda8cdcf)" d="M 444.593495 92.305714 
L 478.366182 92.305714 
L 478.366182 11.252653 
L 444.593495 11.252653 
z
" style="fill:#96c69a;fill-opacity:0.5;stroke:#ffffff;stroke-linejoin:miter;stroke-width:2;"/>
   </g>
   <g id="patch_18">
    <path clip-path="url(#pefeda8cdcf)" d="M 478.366182 92.305714 
L 512.13887 92.305714 
L 512.13887 11.252653 
L 478.366182 11.252653 
z
" style="fill:#96c69a;fill-opacity:0.5;stroke:#ffffff;stroke-linejoin:miter;stroke-width:2;"/>
   </g>
   <g id="patch_19">
    <path clip-path="url(#pefeda8cdcf)" d="M 512.13887 92.305714 
L 545.911557 92.305714 
L 545.911557 11.252653 
L 512.13887 11.252653 
z
" style="fill:#96c69a;fill-opacity:0.5;stroke:#ffffff;stroke-linejoin:miter;stroke-width:2;"/>
   </g>
   <g id="patch_20">
    <path d="M 84.914375 92.305714 
L 84.914375 7.2 
" style="fill:none;stroke:#262626;stroke-linecap:square;stroke-linejoin:miter;stroke-width:2.5;"/>
   </g>
   <g id="patch_21">
    <path d="M 84.914375 92.305714 
L 567.863804 92.305714 
" style="fill:none;stroke:#262626;stroke-linecap:square;stroke-linejoin:miter;stroke-width:2.5;"/>
   </g>
  </g>
  <g id="axes_3">
   <g id="patch_22">
    <path d="M 584.517232 602.94 
L 667.784375 602.94 
L 667.784375 109.326857 
L 584.517232 109.326857 
z
" style="fill:none;"/>
   </g>
   <g id="matplotlib.axis_5">
    <g id="xtick_13">
     <g id="text_21">
      <!-- 0 -->
      <g style="fill:#262626;" transform="translate(577.518482 635.156562)scale(0.22 -0.22)">
       <use xlink:href="#DejaVuSans-30"/>
      </g>
     </g>
    </g>
    <g id="xtick_14">
     <g id="text_22">
      <!-- 100 -->
      <g style="fill:#262626;" transform="translate(609.096868 635.156562)scale(0.22 -0.22)">
       <use xlink:href="#DejaVuSans-31"/>
       <use x="63.623047" xlink:href="#DejaVuSans-30"/>
       <use x="127.246094" xlink:href="#DejaVuSans-30"/>
      </g>
     </g>
    </g>
   </g>
   <g id="matplotlib.axis_6">
    <g id="ytick_11"/>
    <g id="ytick_12"/>
    <g id="ytick_13"/>
    <g id="ytick_14"/>
    <g id="ytick_15"/>
    <g id="ytick_16"/>
    <g id="ytick_17"/>
    <g id="ytick_18"/>
   </g>
   <g id="patch_23">
    <path clip-path="url(#pe6ecc01dea)" d="M 584.517232 580.503039 
L 584.972991 580.503039 
L 584.972991 566.904881 
L 584.517232 566.904881 
z
" style="fill:#96c69a;fill-opacity:0.5;stroke:#ffffff;stroke-linejoin:miter;stroke-width:1.359816;"/>
   </g>
   <g id="patch_24">
    <path clip-path="url(#pe6ecc01dea)" d="M 584.517232 566.904881 
L 585.42875 566.904881 
L 585.42875 553.306723 
L 584.517232 553.306723 
z
" style="fill:#96c69a;fill-opacity:0.5;stroke:#ffffff;stroke-linejoin:miter;stroke-width:1.359816;"/>
   </g>
   <g id="patch_25">
    <path clip-path="url(#pe6ecc01dea)" d="M 584.517232 553.306723 
L 589.074821 553.306723 
L 589.074821 539.708564 
L 584.517232 539.708564 
z
" style="fill:#96c69a;fill-opacity:0.5;stroke:#ffffff;stroke-linejoin:miter;stroke-width:1.359816;"/>
   </g>
   <g id="patch_26">
    <path clip-path="url(#pe6ecc01dea)" d="M 584.517232 539.708564 
L 592.720892 539.708564 
L 592.720892 526.110406 
L 584.517232 526.110406 
z
" style="fill:#96c69a;fill-opacity:0.5;stroke:#ffffff;stroke-linejoin:miter;stroke-width:1.359816;"/>
   </g>
   <g id="patch_27">
    <path clip-path="url(#pe6ecc01dea)" d="M 584.517232 526.110406 
L 601.38031 526.110406 
L 601.38031 512.512248 
L 584.517232 512.512248 
z
" style="fill:#96c69a;fill-opacity:0.5;stroke:#ffffff;stroke-linejoin:miter;stroke-width:1.359816;"/>
   </g>
   <g id="patch_28">
    <path clip-path="url(#pe6ecc01dea)" d="M 584.517232 512.512248 
L 607.305175 512.512248 
L 607.305175 498.91409 
L 584.517232 498.91409 
z
" style="fill:#96c69a;fill-opacity:0.5;stroke:#ffffff;stroke-linejoin:miter;stroke-width:1.359816;"/>
   </g>
   <g id="patch_29">
    <path clip-path="url(#pe6ecc01dea)" d="M 584.517232 498.91409 
L 618.243387 498.91409 
L 618.243387 485.315932 
L 584.517232 485.315932 
z
" style="fill:#96c69a;fill-opacity:0.5;stroke:#ffffff;stroke-linejoin:miter;stroke-width:1.359816;"/>
   </g>
   <g id="patch_30">
    <path clip-path="url(#pe6ecc01dea)" d="M 584.517232 485.315932 
L 626.902806 485.315932 
L 626.902806 471.717773 
L 584.517232 471.717773 
z
" style="fill:#96c69a;fill-opacity:0.5;stroke:#ffffff;stroke-linejoin:miter;stroke-width:1.359816;"/>
   </g>
   <g id="patch_31">
    <path clip-path="url(#pe6ecc01dea)" d="M 584.517232 471.717773 
L 652.425302 471.717773 
L 652.425302 458.119615 
L 584.517232 458.119615 
z
" style="fill:#96c69a;fill-opacity:0.5;stroke:#ffffff;stroke-linejoin:miter;stroke-width:1.359816;"/>
   </g>
   <g id="patch_32">
    <path clip-path="url(#pe6ecc01dea)" d="M 584.517232 458.119615 
L 643.310124 458.119615 
L 643.310124 444.521457 
L 584.517232 444.521457 
z
" style="fill:#96c69a;fill-opacity:0.5;stroke:#ffffff;stroke-linejoin:miter;stroke-width:1.359816;"/>
   </g>
   <g id="patch_33">
    <path clip-path="url(#pe6ecc01dea)" d="M 584.517232 444.521457 
L 663.819273 444.521457 
L 663.819273 430.923299 
L 584.517232 430.923299 
z
" style="fill:#96c69a;fill-opacity:0.5;stroke:#ffffff;stroke-linejoin:miter;stroke-width:1.359816;"/>
   </g>
   <g id="patch_34">
    <path clip-path="url(#pe6ecc01dea)" d="M 584.517232 430.923299 
L 663.363514 430.923299 
L 663.363514 417.32514 
L 584.517232 417.32514 
z
" style="fill:#96c69a;fill-opacity:0.5;stroke:#ffffff;stroke-linejoin:miter;stroke-width:1.359816;"/>
   </g>
   <g id="patch_35">
    <path clip-path="url(#pe6ecc01dea)" d="M 584.517232 417.32514 
L 662.451996 417.32514 
L 662.451996 403.726982 
L 584.517232 403.726982 
z
" style="fill:#96c69a;fill-opacity:0.5;stroke:#ffffff;stroke-linejoin:miter;stroke-width:1.359816;"/>
   </g>
   <g id="patch_36">
    <path clip-path="url(#pe6ecc01dea)" d="M 584.517232 403.726982 
L 655.615614 403.726982 
L 655.615614 390.128824 
L 584.517232 390.128824 
z
" style="fill:#96c69a;fill-opacity:0.5;stroke:#ffffff;stroke-linejoin:miter;stroke-width:1.359816;"/>
   </g>
   <g id="patch_37">
    <path clip-path="url(#pe6ecc01dea)" d="M 584.517232 390.128824 
L 646.956195 390.128824 
L 646.956195 376.530666 
L 584.517232 376.530666 
z
" style="fill:#96c69a;fill-opacity:0.5;stroke:#ffffff;stroke-linejoin:miter;stroke-width:1.359816;"/>
   </g>
   <g id="patch_38">
    <path clip-path="url(#pe6ecc01dea)" d="M 584.517232 376.530666 
L 639.208295 376.530666 
L 639.208295 362.932508 
L 584.517232 362.932508 
z
" style="fill:#96c69a;fill-opacity:0.5;stroke:#ffffff;stroke-linejoin:miter;stroke-width:1.359816;"/>
   </g>
   <g id="patch_39">
    <path clip-path="url(#pe6ecc01dea)" d="M 584.517232 362.932508 
L 639.664054 362.932508 
L 639.664054 349.334349 
L 584.517232 349.334349 
z
" style="fill:#96c69a;fill-opacity:0.5;stroke:#ffffff;stroke-linejoin:miter;stroke-width:1.359816;"/>
   </g>
   <g id="patch_40">
    <path clip-path="url(#pe6ecc01dea)" d="M 584.517232 349.334349 
L 618.243387 349.334349 
L 618.243387 335.736191 
L 584.517232 335.736191 
z
" style="fill:#96c69a;fill-opacity:0.5;stroke:#ffffff;stroke-linejoin:miter;stroke-width:1.359816;"/>
   </g>
   <g id="patch_41">
    <path clip-path="url(#pe6ecc01dea)" d="M 584.517232 335.736191 
L 617.33187 335.736191 
L 617.33187 322.138033 
L 584.517232 322.138033 
z
" style="fill:#96c69a;fill-opacity:0.5;stroke:#ffffff;stroke-linejoin:miter;stroke-width:1.359816;"/>
   </g>
   <g id="patch_42">
    <path clip-path="url(#pe6ecc01dea)" d="M 584.517232 322.138033 
L 604.114863 322.138033 
L 604.114863 308.539875 
L 584.517232 308.539875 
z
" style="fill:#96c69a;fill-opacity:0.5;stroke:#ffffff;stroke-linejoin:miter;stroke-width:1.359816;"/>
   </g>
   <g id="patch_43">
    <path clip-path="url(#pe6ecc01dea)" d="M 584.517232 308.539875 
L 607.760934 308.539875 
L 607.760934 294.941717 
L 584.517232 294.941717 
z
" style="fill:#96c69a;fill-opacity:0.5;stroke:#ffffff;stroke-linejoin:miter;stroke-width:1.359816;"/>
   </g>
   <g id="patch_44">
    <path clip-path="url(#pe6ecc01dea)" d="M 584.517232 294.941717 
L 601.836069 294.941717 
L 601.836069 281.343558 
L 584.517232 281.343558 
z
" style="fill:#96c69a;fill-opacity:0.5;stroke:#ffffff;stroke-linejoin:miter;stroke-width:1.359816;"/>
   </g>
   <g id="patch_45">
    <path clip-path="url(#pe6ecc01dea)" d="M 584.517232 281.343558 
L 598.645757 281.343558 
L 598.645757 267.7454 
L 584.517232 267.7454 
z
" style="fill:#96c69a;fill-opacity:0.5;stroke:#ffffff;stroke-linejoin:miter;stroke-width:1.359816;"/>
   </g>
   <g id="patch_46">
    <path clip-path="url(#pe6ecc01dea)" d="M 584.517232 267.7454 
L 593.632409 267.7454 
L 593.632409 254.147242 
L 584.517232 254.147242 
z
" style="fill:#96c69a;fill-opacity:0.5;stroke:#ffffff;stroke-linejoin:miter;stroke-width:1.359816;"/>
   </g>
   <g id="patch_47">
    <path clip-path="url(#pe6ecc01dea)" d="M 584.517232 254.147242 
L 591.809374 254.147242 
L 591.809374 240.549084 
L 584.517232 240.549084 
z
" style="fill:#96c69a;fill-opacity:0.5;stroke:#ffffff;stroke-linejoin:miter;stroke-width:1.359816;"/>
   </g>
   <g id="patch_48">
    <path clip-path="url(#pe6ecc01dea)" d="M 584.517232 240.549084 
L 590.897856 240.549084 
L 590.897856 226.950926 
L 584.517232 226.950926 
z
" style="fill:#96c69a;fill-opacity:0.5;stroke:#ffffff;stroke-linejoin:miter;stroke-width:1.359816;"/>
   </g>
   <g id="patch_49">
    <path clip-path="url(#pe6ecc01dea)" d="M 584.517232 226.950926 
L 588.619062 226.950926 
L 588.619062 213.352767 
L 584.517232 213.352767 
z
" style="fill:#96c69a;fill-opacity:0.5;stroke:#ffffff;stroke-linejoin:miter;stroke-width:1.359816;"/>
   </g>
   <g id="patch_50">
    <path clip-path="url(#pe6ecc01dea)" d="M 584.517232 213.352767 
L 587.251785 213.352767 
L 587.251785 199.754609 
L 584.517232 199.754609 
z
" style="fill:#96c69a;fill-opacity:0.5;stroke:#ffffff;stroke-linejoin:miter;stroke-width:1.359816;"/>
   </g>
   <g id="patch_51">
    <path clip-path="url(#pe6ecc01dea)" d="M 584.517232 199.754609 
L 584.972991 199.754609 
L 584.972991 186.156451 
L 584.517232 186.156451 
z
" style="fill:#96c69a;fill-opacity:0.5;stroke:#ffffff;stroke-linejoin:miter;stroke-width:1.359816;"/>
   </g>
   <g id="patch_52">
    <path clip-path="url(#pe6ecc01dea)" d="M 584.517232 186.156451 
L 586.340268 186.156451 
L 586.340268 172.558293 
L 584.517232 172.558293 
z
" style="fill:#96c69a;fill-opacity:0.5;stroke:#ffffff;stroke-linejoin:miter;stroke-width:1.359816;"/>
   </g>
   <g id="patch_53">
    <path clip-path="url(#pe6ecc01dea)" d="M 584.517232 172.558293 
L 584.972991 172.558293 
L 584.972991 158.960135 
L 584.517232 158.960135 
z
" style="fill:#96c69a;fill-opacity:0.5;stroke:#ffffff;stroke-linejoin:miter;stroke-width:1.359816;"/>
   </g>
   <g id="patch_54">
    <path clip-path="url(#pe6ecc01dea)" d="M 584.517232 158.960135 
L 585.884509 158.960135 
L 585.884509 145.361976 
L 584.517232 145.361976 
z
" style="fill:#96c69a;fill-opacity:0.5;stroke:#ffffff;stroke-linejoin:miter;stroke-width:1.359816;"/>
   </g>
   <g id="patch_55">
    <path clip-path="url(#pe6ecc01dea)" d="M 584.517232 145.361976 
L 585.42875 145.361976 
L 585.42875 131.763818 
L 584.517232 131.763818 
z
" style="fill:#96c69a;fill-opacity:0.5;stroke:#ffffff;stroke-linejoin:miter;stroke-width:1.359816;"/>
   </g>
   <g id="patch_56">
    <path d="M 584.517232 602.94 
L 584.517232 109.326857 
" style="fill:none;stroke:#262626;stroke-linecap:square;stroke-linejoin:miter;stroke-width:2.5;"/>
   </g>
   <g id="patch_57">
    <path d="M 584.517232 602.94 
L 667.784375 602.94 
" style="fill:none;stroke:#262626;stroke-linecap:square;stroke-linejoin:miter;stroke-width:2.5;"/>
   </g>
  </g>
 </g>
 <defs>
  <clipPath id="p9367f91c74">
   <rect height="493.613143" width="482.949429" x="84.914375" y="109.326857"/>
  </clipPath>
  <clipPath id="pefeda8cdcf">
   <rect height="85.105714" width="482.949429" x="84.914375" y="7.2"/>
  </clipPath>
  <clipPath id="pe6ecc01dea">
   <rect height="493.613143" width="83.267143" x="584.517232" y="109.326857"/>
  </clipPath>
 </defs>
</svg>
