<?xml version="1.0" encoding="utf-8" standalone="no"?>
<!DOCTYPE svg PUBLIC "-//W3C//DTD SVG 1.1//EN"
  "http://www.w3.org/Graphics/SVG/1.1/DTD/svg11.dtd">
<svg height="674.159375pt" version="1.1" viewBox="0 0 695.752268 674.159375" width="695.752268pt" xmlns="http://www.w3.org/2000/svg" xmlns:xlink="http://www.w3.org/1999/xlink">
 <metadata>
  <rdf:RDF xmlns:cc="http://creativecommons.org/ns#" xmlns:dc="http://purl.org/dc/elements/1.1/" xmlns:rdf="http://www.w3.org/1999/02/22-rdf-syntax-ns#">
   <cc:Work>
    <dc:type rdf:resource="http://purl.org/dc/dcmitype/StillImage"/>
    <dc:date>2021-07-24T14:58:31.706691</dc:date>
    <dc:format>image/svg+xml</dc:format>
    <dc:creator>
     <cc:Agent>
      <dc:title>Matplotlib v3.4.2, https://matplotlib.org/</dc:title>
     </cc:Agent>
    </dc:creator>
   </cc:Work>
  </rdf:RDF>
 </metadata>
 <defs>
  <style type="text/css">*{stroke-linecap:butt;stroke-linejoin:round;}</style>
 </defs>
 <g id="figure_1">
  <g id="patch_1">
   <path d="M 0 674.159375 
L 695.752268 674.159375 
L 695.752268 0 
L 0 0 
z
" style="fill:#ffffff;"/>
  </g>
  <g id="axes_1">
   <g id="patch_2">
    <path d="M 84.914375 602.94 
L 567.863804 602.94 
L 567.863804 109.326857 
L 84.914375 109.326857 
z
" style="fill:none;"/>
   </g>
   <g id="matplotlib.axis_1">
    <g id="xtick_1">
     <g id="text_1">
      <!-- 0 -->
      <g style="fill:#262626;" transform="translate(99.648239 635.156562)scale(0.22 -0.22)">
       <defs>
        <path d="M 2034 4250 
Q 1547 4250 1301 3770 
Q 1056 3291 1056 2328 
Q 1056 1369 1301 889 
Q 1547 409 2034 409 
Q 2525 409 2770 889 
Q 3016 1369 3016 2328 
Q 3016 3291 2770 3770 
Q 2525 4250 2034 4250 
z
M 2034 4750 
Q 2819 4750 3233 4129 
Q 3647 3509 3647 2328 
Q 3647 1150 3233 529 
Q 2819 -91 2034 -91 
Q 1250 -91 836 529 
Q 422 1150 422 2328 
Q 422 3509 836 4129 
Q 1250 4750 2034 4750 
z
" id="DejaVuSans-30" transform="scale(0.015625)"/>
       </defs>
       <use xlink:href="#DejaVuSans-30"/>
      </g>
     </g>
    </g>
    <g id="xtick_2">
     <g id="text_2">
      <!-- 20000 -->
      <g style="fill:#262626;" transform="translate(159.506153 635.156562)scale(0.22 -0.22)">
       <defs>
        <path d="M 1228 531 
L 3431 531 
L 3431 0 
L 469 0 
L 469 531 
Q 828 903 1448 1529 
Q 2069 2156 2228 2338 
Q 2531 2678 2651 2914 
Q 2772 3150 2772 3378 
Q 2772 3750 2511 3984 
Q 2250 4219 1831 4219 
Q 1534 4219 1204 4116 
Q 875 4013 500 3803 
L 500 4441 
Q 881 4594 1212 4672 
Q 1544 4750 1819 4750 
Q 2544 4750 2975 4387 
Q 3406 4025 3406 3419 
Q 3406 3131 3298 2873 
Q 3191 2616 2906 2266 
Q 2828 2175 2409 1742 
Q 1991 1309 1228 531 
z
" id="DejaVuSans-32" transform="scale(0.015625)"/>
       </defs>
       <use xlink:href="#DejaVuSans-32"/>
       <use x="63.623047" xlink:href="#DejaVuSans-30"/>
       <use x="127.246094" xlink:href="#DejaVuSans-30"/>
       <use x="190.869141" xlink:href="#DejaVuSans-30"/>
       <use x="254.492188" xlink:href="#DejaVuSans-30"/>
      </g>
     </g>
    </g>
    <g id="xtick_3">
     <g id="text_3">
      <!-- 40000 -->
      <g style="fill:#262626;" transform="translate(247.359066 635.156562)scale(0.22 -0.22)">
       <defs>
        <path d="M 2419 4116 
L 825 1625 
L 2419 1625 
L 2419 4116 
z
M 2253 4666 
L 3047 4666 
L 3047 1625 
L 3713 1625 
L 3713 1100 
L 3047 1100 
L 3047 0 
L 2419 0 
L 2419 1100 
L 313 1100 
L 313 1709 
L 2253 4666 
z
" id="DejaVuSans-34" transform="scale(0.015625)"/>
       </defs>
       <use xlink:href="#DejaVuSans-34"/>
       <use x="63.623047" xlink:href="#DejaVuSans-30"/>
       <use x="127.246094" xlink:href="#DejaVuSans-30"/>
       <use x="190.869141" xlink:href="#DejaVuSans-30"/>
       <use x="254.492188" xlink:href="#DejaVuSans-30"/>
      </g>
     </g>
    </g>
    <g id="xtick_4">
     <g id="text_4">
      <!-- 60000 -->
      <g style="fill:#262626;" transform="translate(335.21198 635.156562)scale(0.22 -0.22)">
       <defs>
        <path d="M 2113 2584 
Q 1688 2584 1439 2293 
Q 1191 2003 1191 1497 
Q 1191 994 1439 701 
Q 1688 409 2113 409 
Q 2538 409 2786 701 
Q 3034 994 3034 1497 
Q 3034 2003 2786 2293 
Q 2538 2584 2113 2584 
z
M 3366 4563 
L 3366 3988 
Q 3128 4100 2886 4159 
Q 2644 4219 2406 4219 
Q 1781 4219 1451 3797 
Q 1122 3375 1075 2522 
Q 1259 2794 1537 2939 
Q 1816 3084 2150 3084 
Q 2853 3084 3261 2657 
Q 3669 2231 3669 1497 
Q 3669 778 3244 343 
Q 2819 -91 2113 -91 
Q 1303 -91 875 529 
Q 447 1150 447 2328 
Q 447 3434 972 4092 
Q 1497 4750 2381 4750 
Q 2619 4750 2861 4703 
Q 3103 4656 3366 4563 
z
" id="DejaVuSans-36" transform="scale(0.015625)"/>
       </defs>
       <use xlink:href="#DejaVuSans-36"/>
       <use x="63.623047" xlink:href="#DejaVuSans-30"/>
       <use x="127.246094" xlink:href="#DejaVuSans-30"/>
       <use x="190.869141" xlink:href="#DejaVuSans-30"/>
       <use x="254.492188" xlink:href="#DejaVuSans-30"/>
      </g>
     </g>
    </g>
    <g id="xtick_5">
     <g id="text_5">
      <!-- 80000 -->
      <g style="fill:#262626;" transform="translate(423.064893 635.156562)scale(0.22 -0.22)">
       <defs>
        <path d="M 2034 2216 
Q 1584 2216 1326 1975 
Q 1069 1734 1069 1313 
Q 1069 891 1326 650 
Q 1584 409 2034 409 
Q 2484 409 2743 651 
Q 3003 894 3003 1313 
Q 3003 1734 2745 1975 
Q 2488 2216 2034 2216 
z
M 1403 2484 
Q 997 2584 770 2862 
Q 544 3141 544 3541 
Q 544 4100 942 4425 
Q 1341 4750 2034 4750 
Q 2731 4750 3128 4425 
Q 3525 4100 3525 3541 
Q 3525 3141 3298 2862 
Q 3072 2584 2669 2484 
Q 3125 2378 3379 2068 
Q 3634 1759 3634 1313 
Q 3634 634 3220 271 
Q 2806 -91 2034 -91 
Q 1263 -91 848 271 
Q 434 634 434 1313 
Q 434 1759 690 2068 
Q 947 2378 1403 2484 
z
M 1172 3481 
Q 1172 3119 1398 2916 
Q 1625 2713 2034 2713 
Q 2441 2713 2670 2916 
Q 2900 3119 2900 3481 
Q 2900 3844 2670 4047 
Q 2441 4250 2034 4250 
Q 1625 4250 1398 4047 
Q 1172 3844 1172 3481 
z
" id="DejaVuSans-38" transform="scale(0.015625)"/>
       </defs>
       <use xlink:href="#DejaVuSans-38"/>
       <use x="63.623047" xlink:href="#DejaVuSans-30"/>
       <use x="127.246094" xlink:href="#DejaVuSans-30"/>
       <use x="190.869141" xlink:href="#DejaVuSans-30"/>
       <use x="254.492188" xlink:href="#DejaVuSans-30"/>
      </g>
     </g>
    </g>
    <g id="xtick_6">
     <g id="text_6">
      <!-- 100000 -->
      <g style="fill:#262626;" transform="translate(503.919057 635.156562)scale(0.22 -0.22)">
       <defs>
        <path d="M 794 531 
L 1825 531 
L 1825 4091 
L 703 3866 
L 703 4441 
L 1819 4666 
L 2450 4666 
L 2450 531 
L 3481 531 
L 3481 0 
L 794 0 
L 794 531 
z
" id="DejaVuSans-31" transform="scale(0.015625)"/>
       </defs>
       <use xlink:href="#DejaVuSans-31"/>
       <use x="63.623047" xlink:href="#DejaVuSans-30"/>
       <use x="127.246094" xlink:href="#DejaVuSans-30"/>
       <use x="190.869141" xlink:href="#DejaVuSans-30"/>
       <use x="254.492188" xlink:href="#DejaVuSans-30"/>
       <use x="318.115234" xlink:href="#DejaVuSans-30"/>
      </g>
     </g>
    </g>
    <g id="text_7">
     <!-- MDTU -->
     <g style="fill:#262626;" transform="translate(290.683464 661.968125)scale(0.24 -0.24)">
      <defs>
       <path d="M 628 4666 
L 1569 4666 
L 2759 1491 
L 3956 4666 
L 4897 4666 
L 4897 0 
L 4281 0 
L 4281 4097 
L 3078 897 
L 2444 897 
L 1241 4097 
L 1241 0 
L 628 0 
L 628 4666 
z
" id="DejaVuSans-4d" transform="scale(0.015625)"/>
       <path d="M 1259 4147 
L 1259 519 
L 2022 519 
Q 2988 519 3436 956 
Q 3884 1394 3884 2338 
Q 3884 3275 3436 3711 
Q 2988 4147 2022 4147 
L 1259 4147 
z
M 628 4666 
L 1925 4666 
Q 3281 4666 3915 4102 
Q 4550 3538 4550 2338 
Q 4550 1131 3912 565 
Q 3275 0 1925 0 
L 628 0 
L 628 4666 
z
" id="DejaVuSans-44" transform="scale(0.015625)"/>
       <path d="M -19 4666 
L 3928 4666 
L 3928 4134 
L 2272 4134 
L 2272 0 
L 1638 0 
L 1638 4134 
L -19 4134 
L -19 4666 
z
" id="DejaVuSans-54" transform="scale(0.015625)"/>
       <path d="M 556 4666 
L 1191 4666 
L 1191 1831 
Q 1191 1081 1462 751 
Q 1734 422 2344 422 
Q 2950 422 3222 751 
Q 3494 1081 3494 1831 
L 3494 4666 
L 4128 4666 
L 4128 1753 
Q 4128 841 3676 375 
Q 3225 -91 2344 -91 
Q 1459 -91 1007 375 
Q 556 841 556 1753 
L 556 4666 
z
" id="DejaVuSans-55" transform="scale(0.015625)"/>
      </defs>
      <use xlink:href="#DejaVuSans-4d"/>
      <use x="86.279297" xlink:href="#DejaVuSans-44"/>
      <use x="163.28125" xlink:href="#DejaVuSans-54"/>
      <use x="224.365234" xlink:href="#DejaVuSans-55"/>
     </g>
    </g>
   </g>
   <g id="matplotlib.axis_2">
    <g id="ytick_1">
     <g id="text_8">
      <!-- 0.5 -->
      <g style="fill:#262626;" transform="translate(34.4275 586.508336)scale(0.22 -0.22)">
       <defs>
        <path d="M 684 794 
L 1344 794 
L 1344 0 
L 684 0 
L 684 794 
z
" id="DejaVuSans-2e" transform="scale(0.015625)"/>
        <path d="M 691 4666 
L 3169 4666 
L 3169 4134 
L 1269 4134 
L 1269 2991 
Q 1406 3038 1543 3061 
Q 1681 3084 1819 3084 
Q 2600 3084 3056 2656 
Q 3513 2228 3513 1497 
Q 3513 744 3044 326 
Q 2575 -91 1722 -91 
Q 1428 -91 1123 -41 
Q 819 9 494 109 
L 494 744 
Q 775 591 1075 516 
Q 1375 441 1709 441 
Q 2250 441 2565 725 
Q 2881 1009 2881 1497 
Q 2881 1984 2565 2268 
Q 2250 2553 1709 2553 
Q 1456 2553 1204 2497 
Q 953 2441 691 2322 
L 691 4666 
z
" id="DejaVuSans-35" transform="scale(0.015625)"/>
       </defs>
       <use xlink:href="#DejaVuSans-30"/>
       <use x="63.623047" xlink:href="#DejaVuSans-2e"/>
       <use x="95.410156" xlink:href="#DejaVuSans-35"/>
      </g>
     </g>
    </g>
    <g id="ytick_2">
     <g id="text_9">
      <!-- 1.0 -->
      <g style="fill:#262626;" transform="translate(34.4275 483.633819)scale(0.22 -0.22)">
       <use xlink:href="#DejaVuSans-31"/>
       <use x="63.623047" xlink:href="#DejaVuSans-2e"/>
       <use x="95.410156" xlink:href="#DejaVuSans-30"/>
      </g>
     </g>
    </g>
    <g id="ytick_3">
     <g id="text_10">
      <!-- 1.5 -->
      <g style="fill:#262626;" transform="translate(34.4275 380.759302)scale(0.22 -0.22)">
       <use xlink:href="#DejaVuSans-31"/>
       <use x="63.623047" xlink:href="#DejaVuSans-2e"/>
       <use x="95.410156" xlink:href="#DejaVuSans-35"/>
      </g>
     </g>
    </g>
    <g id="ytick_4">
     <g id="text_11">
      <!-- 2.0 -->
      <g style="fill:#262626;" transform="translate(34.4275 277.884785)scale(0.22 -0.22)">
       <use xlink:href="#DejaVuSans-32"/>
       <use x="63.623047" xlink:href="#DejaVuSans-2e"/>
       <use x="95.410156" xlink:href="#DejaVuSans-30"/>
      </g>
     </g>
    </g>
    <g id="ytick_5">
     <g id="text_12">
      <!-- 2.5 -->
      <g style="fill:#262626;" transform="translate(34.4275 175.010268)scale(0.22 -0.22)">
       <use xlink:href="#DejaVuSans-32"/>
       <use x="63.623047" xlink:href="#DejaVuSans-2e"/>
       <use x="95.410156" xlink:href="#DejaVuSans-35"/>
      </g>
     </g>
    </g>
    <g id="text_13">
     <!-- $E$ -->
     <g style="fill:#262626;" transform="translate(25.43625 363.813429)rotate(-90)scale(0.24 -0.24)">
      <defs>
       <path d="M 1081 4666 
L 4031 4666 
L 3928 4134 
L 1606 4134 
L 1338 2753 
L 3566 2753 
L 3463 2222 
L 1234 2222 
L 909 531 
L 3284 531 
L 3181 0 
L 172 0 
L 1081 4666 
z
" id="DejaVuSans-Oblique-45" transform="scale(0.015625)"/>
      </defs>
      <use transform="translate(0 0.09375)" xlink:href="#DejaVuSans-Oblique-45"/>
     </g>
    </g>
   </g>
   <g id="line2d_1">
    <path clip-path="url(#p5e24f5c16d)" d="M 106.866622 444.042781 
L 107.305886 495.363629 
L 107.525519 447.288983 
L 107.964783 484.997917 
L 108.184415 403.927815 
L 108.404048 367.987869 
L 108.843312 441.358644 
L 109.062945 394.567318 
L 109.282577 446.690912 
L 109.502209 434.610632 
L 109.721841 384.671705 
L 109.941474 507.894268 
L 110.161106 406.50439 
L 110.380738 391.927871 
L 110.600371 431.637078 
L 110.820003 501.179056 
L 111.039635 478.365814 
L 111.259267 393.335036 
L 111.4789 514.351914 
L 111.698532 510.641368 
L 111.918164 455.223689 
L 112.137797 459.372645 
L 112.357429 455.11374 
L 112.577061 467.071538 
L 112.796693 492.367288 
L 113.016326 491.207912 
L 113.235958 482.850168 
L 113.45559 526.712103 
L 113.675223 419.577811 
L 113.894855 447.115269 
L 114.114487 263.660627 
L 114.334119 338.551853 
L 114.553752 477.097429 
L 114.773384 500.56247 
L 114.993016 449.281762 
L 115.212649 476.864223 
L 115.432281 532.462731 
L 115.651913 425.156676 
L 115.871545 373.328819 
L 116.31081 501.061338 
L 116.530442 409.538891 
L 116.969707 394.79815 
L 117.628604 498.80189 
L 117.848236 521.788248 
L 118.067868 432.892546 
L 118.287501 537.787211 
L 118.507133 401.603369 
L 118.726765 479.428369 
L 119.16603 496.866637 
L 119.385662 399.7705 
L 119.605294 481.365009 
L 119.824926 394.38614 
L 120.264191 508.834299 
L 120.483823 485.932064 
L 120.703456 475.026981 
L 120.923088 444.569611 
L 121.14272 547.508181 
L 121.362352 478.377103 
L 121.581985 501.023092 
L 121.801617 417.951959 
L 122.021249 510.772631 
L 122.460514 281.366067 
L 122.680146 568.690522 
L 122.899778 366.696511 
L 123.119411 481.295217 
L 123.339043 433.871329 
L 123.558675 435.134196 
L 123.778308 470.484654 
L 123.99794 471.386223 
L 124.217572 420.503823 
L 124.437204 496.632933 
L 124.656837 461.388209 
L 124.876469 461.239973 
L 125.096101 434.10526 
L 125.315734 472.875204 
L 125.535366 477.624243 
L 125.754998 422.98826 
L 125.97463 435.998578 
L 126.194263 552.187971 
L 126.413895 455.514511 
L 126.85316 538.818902 
L 127.072792 387.160492 
L 127.292424 481.941177 
L 127.512056 520.328411 
L 127.731689 466.556924 
L 127.951321 440.205117 
L 128.170953 459.399696 
L 128.390586 501.23669 
L 128.82985 311.446817 
L 129.049482 406.789081 
L 129.269115 421.861494 
L 129.488747 511.759812 
L 129.708379 422.801069 
L 129.928012 475.958089 
L 130.147644 481.203503 
L 130.367276 502.383368 
L 130.586908 346.567185 
L 130.806541 560.343423 
L 131.026173 472.450087 
L 131.245805 459.413338 
L 131.465438 394.25843 
L 131.68507 516.967971 
L 132.124334 442.626887 
L 132.343967 431.657823 
L 132.563599 441.66654 
L 132.783231 499.686083 
L 133.002864 355.784713 
L 133.222496 488.281311 
L 133.442128 463.891204 
L 133.66176 488.003457 
L 133.881393 468.081339 
L 134.101025 566.464424 
L 134.320657 454.500639 
L 134.540289 444.779051 
L 134.979554 522.573832 
L 135.199186 459.40166 
L 135.418819 469.279582 
L 135.638451 350.266147 
L 135.858083 472.912754 
L 136.077715 467.656062 
L 136.297348 485.828197 
L 136.51698 476.099509 
L 136.736612 403.749496 
L 136.956245 493.669184 
L 137.175877 337.916038 
L 137.395509 492.082399 
L 137.615141 501.422513 
L 137.834774 489.021667 
L 138.054406 465.148365 
L 138.274038 474.955465 
L 138.493671 461.39649 
L 138.713303 562.010352 
L 138.932935 448.076119 
L 139.3722 504.609154 
L 139.591832 570.774948 
L 140.031097 398.307641 
L 140.250729 387.335916 
L 140.470361 484.595606 
L 140.689993 459.614804 
L 140.909626 535.840089 
L 141.129258 547.460052 
L 141.34889 421.208078 
L 141.568523 441.333373 
L 141.788155 400.196875 
L 142.007787 530.064399 
L 142.227419 489.351023 
L 142.447052 483.949076 
L 142.666684 459.726221 
L 143.105949 348.35551 
L 143.325581 537.142468 
L 143.545213 513.227543 
L 143.764845 538.30585 
L 143.984478 445.050617 
L 144.20411 526.929843 
L 144.643375 510.123449 
L 144.863007 460.531483 
L 145.082639 504.225068 
L 145.302271 483.495988 
L 145.521904 505.634238 
L 145.741536 444.272294 
L 145.961168 337.929246 
L 146.180801 487.621407 
L 146.400433 449.476282 
L 146.620065 475.628855 
L 146.839697 475.22454 
L 147.05933 536.462081 
L 147.278962 411.967761 
L 147.718227 524.394275 
L 147.937859 486.179912 
L 148.377123 303.664736 
L 148.596756 511.253007 
L 148.816388 410.409934 
L 149.03602 418.080602 
L 149.255653 515.956076 
L 149.475285 496.765292 
L 149.694917 527.862198 
L 149.914549 445.375172 
L 150.134182 436.684795 
L 150.353814 439.707331 
L 150.573446 431.060827 
L 150.793078 409.46376 
L 151.012711 499.393292 
L 151.232343 420.747586 
L 151.451975 426.873926 
L 151.671608 429.446919 
L 151.89124 322.100497 
L 152.110872 453.222819 
L 152.330504 394.26306 
L 152.550137 451.841983 
L 152.769769 430.040261 
L 152.989401 453.064687 
L 153.209034 420.297208 
L 153.648298 505.398814 
L 153.86793 491.632223 
L 154.087563 366.286543 
L 154.307195 415.715625 
L 154.526827 424.24855 
L 154.74646 459.97489 
L 154.966092 456.374417 
L 155.185724 397.800992 
L 155.405356 476.356013 
L 155.624989 421.655571 
L 155.844621 395.698301 
L 156.064253 473.509113 
L 156.283886 446.220766 
L 156.503518 493.558778 
L 156.72315 442.882754 
L 156.942782 469.830978 
L 157.162415 387.376144 
L 157.382047 376.117968 
L 157.601679 515.452005 
L 157.821312 544.578496 
L 158.040944 447.001977 
L 158.260576 492.349067 
L 158.480208 450.746297 
L 158.699841 504.380741 
L 158.919473 518.424044 
L 159.139105 495.665446 
L 159.358738 525.894053 
L 159.798002 476.481672 
L 160.017634 412.619717 
L 160.456899 463.390048 
L 160.676531 500.202665 
L 160.896164 421.12424 
L 161.115796 446.067106 
L 161.335428 313.455976 
L 161.55506 477.900683 
L 161.774693 552.806734 
L 161.994325 562.281371 
L 162.213957 482.32659 
L 162.43359 473.854633 
L 162.653222 478.617668 
L 162.872854 382.615867 
L 163.092486 488.303571 
L 163.531751 386.305765 
L 163.751383 491.351032 
L 163.971016 315.760752 
L 164.190648 367.788843 
L 164.41028 486.809584 
L 164.629912 503.563587 
L 165.069177 512.235785 
L 165.288809 355.205445 
L 165.508441 458.557284 
L 165.728074 504.508362 
L 165.947706 488.726866 
L 166.167338 523.174622 
L 166.386971 478.339496 
L 166.606603 457.748252 
L 166.826235 456.720572 
L 167.045867 461.480569 
L 167.2655 430.211722 
L 167.485132 545.910595 
L 167.704764 343.420482 
L 167.924397 499.794682 
L 168.144029 523.462789 
L 168.363661 417.918651 
L 168.583293 436.874888 
L 168.802926 436.239785 
L 169.022558 491.018781 
L 169.24219 509.010231 
L 169.461823 556.57332 
L 169.681455 447.286315 
L 170.340352 480.541381 
L 170.559984 468.747585 
L 170.779616 402.170759 
L 170.999249 480.87533 
L 171.218881 482.032872 
L 171.438513 517.518348 
L 171.658145 419.421391 
L 171.877778 470.845448 
L 172.09741 440.462678 
L 172.317042 517.135891 
L 172.536675 416.510075 
L 172.756307 501.271927 
L 172.975939 497.420481 
L 173.195571 380.955838 
L 173.415204 510.66069 
L 173.634836 426.089182 
L 173.854468 452.77347 
L 174.293733 457.64538 
L 174.513365 412.424897 
L 174.732997 463.286062 
L 174.95263 426.794193 
L 175.172262 419.853616 
L 175.391894 369.798138 
L 175.611527 505.873644 
L 176.050791 471.167831 
L 176.270423 465.987545 
L 176.490056 380.0322 
L 176.709688 413.288373 
L 176.92932 472.699791 
L 177.368585 385.074804 
L 177.588217 466.702218 
L 178.027482 384.493617 
L 178.247114 511.569036 
L 178.686379 463.376213 
L 178.906011 480.359562 
L 179.125643 455.659251 
L 179.345275 496.766581 
L 179.564908 501.640579 
L 179.78454 522.968438 
L 180.004172 506.580919 
L 180.223805 301.441064 
L 180.443437 463.385756 
L 180.663069 434.219832 
L 181.102334 536.120291 
L 181.321966 411.85491 
L 181.541598 475.851735 
L 181.76123 505.970801 
L 181.980863 385.253566 
L 182.420127 501.208317 
L 182.63976 466.762798 
L 182.859392 452.521763 
L 183.079024 500.138445 
L 183.298656 418.112965 
L 183.518289 462.697809 
L 183.737921 470.752409 
L 183.957553 398.58609 
L 184.177186 437.712882 
L 184.396818 447.052486 
L 184.61645 382.103926 
L 184.836082 381.990969 
L 185.055715 507.041967 
L 185.275347 488.138979 
L 185.714612 346.138581 
L 185.934244 415.681532 
L 186.153876 439.189638 
L 186.373508 478.233205 
L 186.593141 495.262854 
L 187.032405 467.868106 
L 187.252038 537.793154 
L 187.47167 436.205796 
L 187.691302 492.72448 
L 187.910934 456.81431 
L 188.130567 538.794703 
L 188.350199 473.413341 
L 188.569831 447.495463 
L 188.789464 436.397444 
L 189.009096 407.149389 
L 189.228728 502.307087 
L 189.44836 419.242081 
L 189.667993 427.211899 
L 189.887625 349.744381 
L 190.107257 475.300847 
L 190.32689 474.408051 
L 190.546522 531.810349 
L 190.766154 515.924907 
L 190.985786 474.562812 
L 191.205419 395.60633 
L 191.425051 527.067034 
L 191.644683 462.465105 
L 191.864316 458.209891 
L 192.083948 429.682085 
L 192.30358 524.926851 
L 192.523212 398.653348 
L 192.742845 424.974787 
L 192.962477 383.225938 
L 193.182109 524.340345 
L 193.841006 366.798243 
L 194.060638 489.231941 
L 194.280271 475.894831 
L 194.719535 383.312046 
L 194.939168 454.390391 
L 195.1588 415.382319 
L 195.378432 441.959299 
L 195.598064 544.457036 
L 195.817697 457.335392 
L 196.037329 499.099296 
L 196.476593 472.205207 
L 196.696226 472.665232 
L 196.915858 439.787317 
L 197.13549 469.850517 
L 197.355123 561.728005 
L 197.574755 378.559043 
L 197.794387 397.232262 
L 198.014019 345.176484 
L 198.233652 407.469058 
L 198.453284 364.440657 
L 198.672916 534.800049 
L 198.892549 382.333195 
L 199.112181 504.095474 
L 199.331813 508.527578 
L 199.551445 397.976247 
L 199.771078 488.099297 
L 199.99071 492.516901 
L 200.210342 378.112614 
L 200.429975 468.626527 
L 200.649607 460.05394 
L 200.869239 504.741148 
L 201.308504 448.394555 
L 201.528136 455.813941 
L 201.747768 469.611465 
L 201.967401 460.287597 
L 202.187033 527.579614 
L 202.406665 475.557842 
L 202.626297 485.940307 
L 202.84593 476.597754 
L 203.065562 502.279657 
L 203.285194 436.376217 
L 203.504827 526.299081 
L 203.724459 411.571394 
L 203.944091 403.383849 
L 204.163723 412.886501 
L 204.383356 492.055715 
L 204.602988 416.255961 
L 204.82262 436.273331 
L 205.042253 370.65863 
L 205.261885 416.694527 
L 205.481517 492.200354 
L 205.701149 478.119758 
L 205.920782 365.25438 
L 206.140414 407.441828 
L 206.360046 395.046672 
L 206.579679 502.898007 
L 206.799311 427.043145 
L 207.018943 496.722959 
L 207.238575 422.485835 
L 207.458208 509.631463 
L 207.67784 504.812341 
L 207.897472 423.924655 
L 208.117105 409.210763 
L 208.336737 506.842279 
L 208.556369 393.787273 
L 208.995634 486.711311 
L 209.215266 462.580888 
L 209.434898 489.897341 
L 209.874163 418.736463 
L 210.093795 503.183761 
L 210.313427 431.833881 
L 210.53306 407.213267 
L 210.752692 438.600892 
L 210.972324 426.276322 
L 211.191956 494.826308 
L 211.411589 449.468892 
L 211.631221 360.456599 
L 211.850853 386.55684 
L 212.070486 477.126373 
L 212.290118 449.889291 
L 212.50975 462.850064 
L 212.729382 419.539262 
L 212.949015 484.81912 
L 213.168647 490.38429 
L 213.607912 454.631084 
L 213.827544 339.123846 
L 214.047176 428.467509 
L 214.266808 403.904545 
L 214.486441 524.744671 
L 214.706073 500.588279 
L 214.925705 278.634894 
L 215.145338 483.502499 
L 215.36497 466.373046 
L 215.584602 496.732867 
L 215.804234 404.716833 
L 216.023867 396.295999 
L 216.243499 377.165145 
L 216.463131 489.409096 
L 216.682764 378.062001 
L 216.902396 526.225209 
L 217.122028 435.923114 
L 217.34166 531.381329 
L 217.561293 459.671865 
L 217.780925 489.135574 
L 218.000557 432.73087 
L 218.22019 447.75437 
L 218.439822 406.950593 
L 218.659454 407.98717 
L 218.879086 513.456307 
L 219.098719 374.457672 
L 219.318351 470.185012 
L 219.537983 447.157817 
L 219.757616 464.839114 
L 219.977248 514.464057 
L 220.19688 439.795362 
L 220.416512 430.267496 
L 220.636145 458.190158 
L 220.855777 460.157409 
L 221.075409 131.763818 
L 221.295042 473.606741 
L 221.514674 531.371665 
L 221.953938 351.870685 
L 222.173571 464.657303 
L 222.393203 500.255612 
L 222.612835 374.687128 
L 223.0521 436.088512 
L 223.271732 393.769299 
L 223.710997 465.249527 
L 223.930629 528.116674 
L 224.150261 480.454156 
L 224.589526 517.287577 
L 224.809158 482.724412 
L 225.02879 493.736253 
L 225.248423 467.587382 
L 225.468055 417.429916 
L 225.90732 535.968903 
L 226.566216 417.220865 
L 226.785849 443.019737 
L 227.225113 422.095676 
L 227.444745 449.44106 
L 227.664378 373.734341 
L 228.103642 498.588387 
L 228.323275 519.892608 
L 228.762539 457.929253 
L 228.982171 400.807516 
L 229.201804 405.708849 
L 229.421436 447.84588 
L 229.641068 524.536601 
L 229.860701 384.391029 
L 230.299965 470.636769 
L 230.519597 487.407573 
L 230.73923 470.941384 
L 230.958862 347.325039 
L 231.398127 485.615925 
L 231.617759 389.478824 
L 231.837391 488.560885 
L 232.057023 485.622895 
L 232.276656 475.976473 
L 232.496288 399.183655 
L 232.71592 438.171837 
L 232.935553 512.817555 
L 233.155185 459.791522 
L 233.374817 447.657038 
L 233.594449 464.883635 
L 233.814082 503.037096 
L 234.033714 402.964986 
L 234.472979 493.187884 
L 234.692611 443.502767 
L 234.912243 491.707609 
L 235.131875 353.39582 
L 235.351508 438.814893 
L 235.57114 452.632978 
L 235.790772 477.820461 
L 236.010405 468.94398 
L 236.230037 529.393876 
L 236.449669 518.001723 
L 236.669301 418.916577 
L 236.888934 468.695044 
L 237.108566 423.400808 
L 237.328198 476.498054 
L 237.547831 344.209978 
L 237.767463 434.704844 
L 237.987095 470.010684 
L 238.206727 469.104311 
L 238.42636 453.205533 
L 238.645992 511.912113 
L 238.865624 517.77104 
L 239.085257 537.024596 
L 239.304889 454.116085 
L 239.524521 507.842627 
L 239.963786 403.457107 
L 240.183418 511.098958 
L 240.40305 414.462444 
L 240.622683 413.693801 
L 240.842315 487.467919 
L 241.061947 422.634991 
L 241.281579 442.937956 
L 241.501212 526.662709 
L 241.720844 339.312203 
L 241.940476 443.251056 
L 242.160108 477.477873 
L 242.379741 314.150522 
L 242.599373 473.267331 
L 242.819005 411.314732 
L 243.038638 507.637971 
L 243.25827 437.984076 
L 243.477902 424.717947 
L 243.697534 395.553371 
L 243.917167 490.544639 
L 244.136799 481.118673 
L 244.356431 501.354772 
L 244.576064 412.109518 
L 244.795696 481.055856 
L 245.015328 424.406378 
L 245.23496 454.951267 
L 245.454593 440.429216 
L 245.674225 476.927131 
L 245.893857 488.945503 
L 246.11349 473.319347 
L 246.333122 353.031606 
L 246.552754 501.331821 
L 246.772386 465.737204 
L 246.992019 399.569907 
L 247.211651 391.177422 
L 247.431283 483.575873 
L 247.650916 463.277636 
L 247.870548 373.037886 
L 248.09018 523.765378 
L 248.309812 438.572774 
L 248.529445 431.179493 
L 248.968709 505.080865 
L 249.188342 481.732516 
L 249.407974 475.902506 
L 249.627606 495.194579 
L 249.847238 416.299255 
L 250.066871 513.012194 
L 250.506135 448.66746 
L 250.725768 519.862589 
L 250.9454 469.915313 
L 251.165032 477.919452 
L 251.384664 401.784336 
L 251.604297 537.909986 
L 251.823929 481.229266 
L 252.043561 463.056919 
L 252.263194 417.314189 
L 252.482826 528.313338 
L 252.702458 459.570749 
L 252.92209 456.061339 
L 253.141723 489.824296 
L 253.361355 387.012499 
L 253.580987 393.186626 
L 254.020252 530.491257 
L 254.239884 405.966854 
L 254.459516 436.885586 
L 254.679149 437.497034 
L 254.898781 517.420233 
L 255.338046 494.1884 
L 255.557678 463.674541 
L 255.77731 370.95487 
L 255.996942 450.902429 
L 256.216575 409.948881 
L 256.436207 446.747117 
L 256.655839 511.029407 
L 256.875472 423.023698 
L 257.095104 439.370528 
L 257.314736 435.265903 
L 257.534368 386.389923 
L 257.754001 486.053239 
L 257.973633 440.737656 
L 258.193265 492.881476 
L 258.412897 507.1172 
L 258.63253 420.343762 
L 258.852162 438.352749 
L 259.071794 499.248067 
L 259.291427 415.095504 
L 259.511059 455.0026 
L 259.730691 427.917802 
L 259.950323 514.099542 
L 260.169956 497.106142 
L 260.389588 530.01821 
L 260.60922 467.973344 
L 260.828853 454.032241 
L 261.048485 513.811789 
L 261.268117 411.168589 
L 261.487749 439.074265 
L 261.707382 489.448286 
L 261.927014 422.276892 
L 262.146646 502.99473 
L 262.366279 522.938418 
L 262.585911 494.52018 
L 262.805543 415.564612 
L 263.025175 438.287935 
L 263.244808 550.931054 
L 263.46444 546.71575 
L 263.684072 464.552011 
L 263.903705 339.823967 
L 264.123337 450.46618 
L 264.342969 350.238229 
L 264.562601 540.73446 
L 264.782234 532.933433 
L 265.221498 457.340426 
L 265.441131 493.566176 
L 265.660763 502.613682 
L 265.880395 500.516096 
L 266.100027 395.994483 
L 266.31966 488.575235 
L 266.539292 503.13789 
L 266.758924 399.681701 
L 266.978557 483.819265 
L 267.417821 388.914241 
L 267.637453 490.927847 
L 267.857086 424.24601 
L 268.29635 516.84582 
L 268.515983 457.544956 
L 268.735615 484.361523 
L 268.955247 460.574328 
L 269.174879 493.734349 
L 269.394512 497.289033 
L 269.614144 443.3913 
L 269.833776 246.883589 
L 270.053409 515.84854 
L 270.273041 446.391892 
L 270.492673 545.287714 
L 270.931938 422.091722 
L 271.15157 504.663902 
L 271.371202 536.22956 
L 271.590835 501.5185 
L 271.810467 432.437285 
L 272.030099 466.573851 
L 272.249731 393.690558 
L 272.469364 442.689496 
L 272.688996 454.83682 
L 272.908628 452.859546 
L 273.12826 521.215411 
L 273.347893 440.424103 
L 273.787157 435.392125 
L 274.446054 519.577823 
L 274.665686 419.545344 
L 274.885319 511.156964 
L 275.104951 520.688991 
L 275.324583 443.774603 
L 275.544216 420.231623 
L 275.763848 466.761359 
L 275.98348 405.030193 
L 276.203112 466.742624 
L 276.422745 476.997712 
L 276.642377 434.599157 
L 276.862009 542.93043 
L 277.081642 421.996581 
L 277.301274 433.39443 
L 277.520906 468.961128 
L 277.740538 421.722842 
L 277.960171 524.027241 
L 278.399435 403.628518 
L 278.619068 457.147701 
L 278.8387 402.521079 
L 279.058332 500.739851 
L 279.277964 512.808824 
L 279.497597 443.392374 
L 279.717229 446.921185 
L 279.936861 476.553151 
L 280.156494 343.049508 
L 280.376126 513.624458 
L 280.595758 358.596219 
L 280.81539 462.460637 
L 281.035023 501.911208 
L 281.254655 490.969043 
L 281.474287 489.293649 
L 281.69392 366.019348 
L 281.913552 476.563989 
L 282.133184 376.095162 
L 282.352816 475.410308 
L 282.572449 479.491471 
L 282.792081 501.958876 
L 283.011713 441.018084 
L 283.231346 435.82987 
L 283.450978 475.612927 
L 283.67061 429.934968 
L 283.890242 492.314401 
L 284.109875 402.870553 
L 284.329507 526.080636 
L 284.549139 506.693695 
L 284.768772 391.375007 
L 284.988404 410.412844 
L 285.208036 498.407907 
L 285.647301 405.932269 
L 285.866933 476.878498 
L 286.086565 443.123348 
L 286.306198 386.407668 
L 286.52583 506.818624 
L 286.745462 472.312065 
L 286.965094 488.524828 
L 287.184727 459.275633 
L 287.404359 463.191826 
L 287.623991 489.28742 
L 287.843624 468.579399 
L 288.063256 520.68733 
L 288.282888 430.408844 
L 288.50252 446.963296 
L 288.722153 435.926583 
L 288.941785 527.573109 
L 289.161417 468.424834 
L 289.381049 497.27688 
L 289.600682 422.252622 
L 289.820314 433.640212 
L 290.039946 536.86099 
L 290.259579 464.280079 
L 290.479211 558.887194 
L 290.698843 362.83391 
L 290.918475 490.630337 
L 291.138108 477.442132 
L 291.35774 419.996241 
L 291.577372 468.744686 
L 291.797005 462.2492 
L 292.016637 428.203344 
L 292.236269 463.416222 
L 292.455901 409.945855 
L 292.675534 481.437589 
L 292.895166 484.614455 
L 293.114798 430.532706 
L 293.334431 428.702217 
L 293.554063 516.151216 
L 293.773695 544.702361 
L 293.993327 463.578158 
L 294.21296 463.780874 
L 294.432592 492.185515 
L 294.652224 497.236226 
L 294.871857 386.969064 
L 295.311121 466.333413 
L 295.530753 455.15664 
L 295.750386 466.637806 
L 295.970018 511.394446 
L 296.18965 445.532822 
L 296.409283 451.812687 
L 296.848547 541.360808 
L 297.068179 487.907775 
L 297.287812 524.25969 
L 297.946709 429.328594 
L 298.166341 369.693102 
L 298.385973 501.208679 
L 298.605605 439.07086 
L 298.825238 425.79258 
L 299.264502 494.66455 
L 299.484135 472.807152 
L 299.923399 384.584401 
L 300.143031 497.605954 
L 300.362664 421.727746 
L 300.582296 461.377467 
L 300.801928 535.494495 
L 301.021561 456.103383 
L 301.241193 534.803013 
L 301.460825 498.879113 
L 301.680457 486.548575 
L 301.90009 404.739207 
L 302.119722 467.597192 
L 302.339354 380.17257 
L 302.998251 483.502929 
L 303.217883 416.568422 
L 303.437516 443.708375 
L 303.657148 307.358344 
L 303.87678 462.350264 
L 304.096412 383.230174 
L 304.535677 519.405772 
L 304.974942 338.396622 
L 305.194574 525.84905 
L 305.414206 484.527103 
L 305.633838 487.568297 
L 305.853471 341.874172 
L 306.073103 521.890082 
L 306.292735 518.966484 
L 306.512368 420.329222 
L 306.951632 444.789679 
L 307.171264 368.256293 
L 307.390897 513.409282 
L 307.610529 370.02556 
L 307.830161 429.560404 
L 308.049794 404.567907 
L 308.269426 509.0056 
L 308.489058 435.480132 
L 308.70869 468.830363 
L 308.928323 527.358541 
L 309.147955 457.214736 
L 309.367587 437.179804 
L 309.806852 431.340637 
L 310.026484 495.340312 
L 310.246116 433.682142 
L 310.465749 471.712989 
L 310.685381 483.195091 
L 310.905013 390.037385 
L 311.124646 472.691841 
L 311.344278 500.09217 
L 311.56391 453.130732 
L 311.783542 444.895998 
L 312.003175 405.846429 
L 312.222807 484.244018 
L 312.442439 363.880723 
L 312.662072 516.953833 
L 312.881704 458.936562 
L 313.101336 443.022967 
L 313.320968 390.136395 
L 313.540601 508.723445 
L 313.760233 450.5897 
L 313.979865 476.138097 
L 314.199498 484.857256 
L 314.41913 469.027817 
L 314.638762 556.063377 
L 314.858394 465.662893 
L 315.078027 487.697132 
L 315.297659 415.956123 
L 315.517291 423.876516 
L 315.736924 471.432933 
L 315.956556 478.056372 
L 316.176188 475.91963 
L 316.39582 514.258949 
L 316.615453 449.822092 
L 316.835085 449.753659 
L 317.054717 450.491176 
L 317.27435 365.548097 
L 317.493982 365.59486 
L 317.713614 466.515012 
L 317.933246 458.599633 
L 318.152879 459.793709 
L 318.592143 423.142962 
L 318.811775 573.531235 
L 319.031408 421.749718 
L 319.470672 553.725617 
L 319.690305 455.621622 
L 320.129569 549.894131 
L 320.349201 415.459394 
L 320.568834 447.312448 
L 320.788466 370.234768 
L 321.008098 402.498938 
L 321.227731 384.568999 
L 321.447363 455.892245 
L 321.666995 452.023884 
L 321.886627 512.077021 
L 322.325892 446.44951 
L 322.545524 505.237827 
L 322.984789 469.51888 
L 323.204421 405.714385 
L 323.424053 418.882872 
L 323.643686 552.589107 
L 323.863318 490.602725 
L 324.08295 481.249644 
L 324.302583 462.890845 
L 324.522215 387.585989 
L 324.741847 579.727309 
L 324.961479 490.400495 
L 325.181112 471.110562 
L 325.400744 348.732529 
L 325.620376 481.492284 
L 325.840009 383.730552 
L 326.059641 484.167872 
L 326.279273 531.872777 
L 326.498905 443.171882 
L 326.718538 512.75204 
L 326.93817 388.487923 
L 327.157802 417.911298 
L 327.377435 482.324046 
L 327.597067 405.760245 
L 327.816699 468.282705 
L 328.036331 369.345992 
L 328.475596 496.694405 
L 328.695228 475.998108 
L 328.914861 478.727896 
L 329.134493 471.213011 
L 329.354125 554.376955 
L 329.573757 461.525302 
L 329.79339 423.323204 
L 330.013022 522.471256 
L 330.232654 556.126569 
L 330.452287 493.68585 
L 330.671919 382.01278 
L 331.111183 534.103668 
L 331.330816 335.654647 
L 331.77008 501.023775 
L 331.989713 443.840914 
L 332.209345 494.115946 
L 332.428977 345.409046 
L 332.648609 450.116724 
L 332.868242 473.447024 
L 333.087874 519.514441 
L 333.527139 425.724601 
L 333.746771 420.868424 
L 333.966403 486.35436 
L 334.186035 439.98132 
L 334.405668 478.790621 
L 334.6253 452.937085 
L 334.844932 462.608562 
L 335.284197 404.686052 
L 335.503829 476.335836 
L 335.723461 489.070601 
L 335.943094 359.620055 
L 336.162726 472.381673 
L 336.382358 383.853998 
L 336.821623 524.632731 
L 337.041255 498.303042 
L 337.260887 375.274534 
L 337.48052 417.838312 
L 337.700152 411.695846 
L 338.139416 490.849323 
L 338.359049 511.272898 
L 338.578681 544.377576 
L 338.798313 410.899706 
L 339.017946 476.484582 
L 339.237578 447.601026 
L 339.45721 447.093551 
L 339.676842 386.632616 
L 339.896475 427.23572 
L 340.116107 514.291309 
L 340.335739 452.08588 
L 340.555372 506.513767 
L 340.775004 508.862216 
L 340.994636 472.323996 
L 341.433901 495.000755 
L 341.653533 494.260136 
L 341.873165 524.596749 
L 342.092798 468.600466 
L 342.31243 469.181804 
L 342.532062 443.754654 
L 342.751694 526.952785 
L 342.971327 448.237966 
L 343.410591 419.271833 
L 343.630224 538.588729 
L 343.849856 451.168513 
L 344.069488 471.270362 
L 344.28912 521.479764 
L 344.508753 476.646953 
L 344.728385 510.258379 
L 344.948017 428.366187 
L 345.16765 472.279533 
L 345.387282 491.433345 
L 345.606914 480.968623 
L 345.826546 486.046565 
L 346.046179 470.541673 
L 346.265811 408.754227 
L 346.485443 512.294141 
L 346.705076 497.760747 
L 346.924708 536.150575 
L 347.14434 466.820889 
L 347.363972 521.768454 
L 347.803237 459.860219 
L 348.022869 316.210398 
L 348.242502 499.950618 
L 348.462134 479.920462 
L 348.681766 434.844626 
L 348.901398 435.443209 
L 349.121031 533.337701 
L 349.340663 528.738522 
L 349.560295 353.300126 
L 349.779927 494.894248 
L 349.99956 414.778384 
L 350.219192 398.497963 
L 350.438824 516.835374 
L 350.878089 488.49062 
L 351.097721 480.02132 
L 351.317353 414.918739 
L 351.756618 511.491387 
L 351.97625 502.234536 
L 352.195883 436.322514 
L 352.415515 432.195792 
L 352.635147 459.340669 
L 353.074412 466.891751 
L 353.294044 539.157068 
L 353.513676 481.877533 
L 353.733309 478.743197 
L 353.952941 485.076013 
L 354.172573 461.510892 
L 354.392205 556.139551 
L 354.611838 481.50143 
L 354.83147 465.80233 
L 355.051102 485.202958 
L 355.270735 332.239299 
L 355.490367 478.88611 
L 355.709999 403.73203 
L 355.929631 520.129546 
L 356.149264 423.018558 
L 356.368896 457.931595 
L 356.588528 408.094039 
L 356.808161 437.324016 
L 357.027793 445.389668 
L 357.247425 485.690514 
L 357.467057 551.69232 
L 357.68669 501.931563 
L 357.906322 336.416138 
L 358.125954 500.839787 
L 358.345587 499.238325 
L 358.565219 443.464622 
L 358.784851 439.462687 
L 359.224116 497.983662 
L 359.443748 497.620433 
L 359.66338 484.552609 
L 360.102645 354.76251 
L 360.322277 419.722241 
L 360.541909 532.999805 
L 360.981174 377.906615 
L 361.200806 530.67306 
L 361.420439 462.499606 
L 361.640071 560.951092 
L 361.859703 412.777637 
L 362.079335 456.634537 
L 362.298968 543.938609 
L 362.5186 501.10187 
L 362.738232 374.173447 
L 362.957865 544.77375 
L 363.177497 421.09467 
L 363.397129 424.102949 
L 363.616761 540.069949 
L 363.836394 440.037598 
L 364.056026 536.850474 
L 364.275658 459.021928 
L 364.934555 539.620233 
L 365.154187 384.439776 
L 365.593452 519.291925 
L 365.813084 437.401801 
L 366.032716 541.035824 
L 366.252349 470.460611 
L 366.471981 491.532796 
L 366.691613 400.543154 
L 367.130878 544.009056 
L 367.35051 574.848225 
L 367.789775 374.943631 
L 368.229039 510.948039 
L 368.448672 456.806509 
L 368.668304 481.711685 
L 368.887936 528.874919 
L 369.107568 392.708892 
L 369.327201 365.704617 
L 369.546833 470.344538 
L 369.986098 487.335199 
L 370.20573 448.57566 
L 370.425362 484.102755 
L 370.644994 402.720635 
L 371.084259 504.119966 
L 371.303891 442.292624 
L 371.523524 530.525214 
L 371.743156 425.987711 
L 371.962788 483.245985 
L 372.18242 459.237963 
L 372.402053 454.200451 
L 372.621685 488.827037 
L 372.841317 486.963877 
L 373.06095 405.52601 
L 373.500214 488.188856 
L 373.719846 465.627342 
L 373.939479 511.452432 
L 374.378743 348.813022 
L 374.598376 359.045414 
L 374.818008 361.081631 
L 375.03764 463.262955 
L 375.257272 498.090924 
L 375.476905 485.783548 
L 375.696537 480.750172 
L 375.916169 441.254476 
L 376.355434 515.616434 
L 376.794698 425.327766 
L 377.014331 418.384711 
L 377.233963 519.952986 
L 377.453595 546.256638 
L 377.673228 536.061438 
L 377.89286 479.606197 
L 378.112492 472.223312 
L 378.332124 530.593773 
L 378.551757 529.794328 
L 378.771389 435.643949 
L 378.991021 437.228923 
L 379.210654 460.174526 
L 379.649918 526.848862 
L 379.86955 321.905741 
L 380.308815 504.738898 
L 380.748079 410.804979 
L 380.967712 442.090131 
L 381.187344 519.964305 
L 381.406976 388.453931 
L 381.626609 470.55563 
L 381.846241 350.164993 
L 382.065873 461.991953 
L 382.285505 443.457911 
L 382.505138 410.86307 
L 382.72477 339.577771 
L 382.944402 484.159705 
L 383.383667 496.403526 
L 383.603299 359.619419 
L 383.822931 434.459495 
L 384.042564 444.382841 
L 384.262196 380.282961 
L 384.481828 534.791549 
L 384.921093 425.590363 
L 385.360357 475.190111 
L 385.57999 512.394885 
L 385.799622 443.178056 
L 386.019254 440.007205 
L 386.238887 518.072833 
L 386.458519 500.327144 
L 386.678151 455.491275 
L 386.897783 509.044062 
L 387.117416 434.011616 
L 387.337048 471.129144 
L 387.55668 531.153762 
L 387.776313 499.287634 
L 387.995945 490.736148 
L 388.215577 531.813008 
L 388.435209 427.528246 
L 388.654842 523.531311 
L 388.874474 481.403035 
L 389.094106 505.908349 
L 389.313739 381.367347 
L 389.533371 515.423819 
L 389.972635 479.114254 
L 390.192268 482.504487 
L 390.4119 467.386652 
L 390.631532 392.322534 
L 390.851165 457.303122 
L 391.070797 458.012301 
L 391.290429 263.26036 
L 391.510061 423.555386 
L 391.729694 488.206332 
L 391.949326 505.913322 
L 392.168958 449.772996 
L 392.388591 501.081489 
L 392.608223 437.317119 
L 392.827855 416.177025 
L 393.047487 350.608699 
L 393.486752 526.069684 
L 393.706384 457.296093 
L 393.926017 483.430536 
L 394.145649 487.474402 
L 394.365281 548.187398 
L 394.804546 303.634501 
L 395.024178 580.503039 
L 395.463443 429.290528 
L 395.683075 487.05869 
L 395.902707 405.386208 
L 396.122339 374.147495 
L 396.341972 413.525639 
L 396.561604 478.741622 
L 396.781236 507.41257 
L 397.000868 467.90302 
L 397.220501 483.026936 
L 397.440133 524.353166 
L 397.659765 442.436229 
L 397.879398 478.039874 
L 398.09903 488.360997 
L 398.538294 405.382558 
L 398.757927 521.234733 
L 398.977559 494.756343 
L 399.197191 394.997993 
L 399.416824 534.873341 
L 399.636456 462.688733 
L 399.856088 448.005334 
L 400.07572 377.488028 
L 400.295353 450.277154 
L 400.514985 405.353919 
L 400.734617 460.95735 
L 400.95425 464.346252 
L 401.173882 507.486972 
L 401.393514 485.740196 
L 401.613146 414.826371 
L 401.832779 511.046373 
L 402.052411 444.417194 
L 402.272043 484.51763 
L 402.711308 525.293516 
L 402.93094 496.453121 
L 403.370205 390.401183 
L 403.589837 477.883996 
L 403.809469 419.726385 
L 404.029102 511.1487 
L 404.248734 410.602813 
L 404.468366 472.420303 
L 404.907631 466.511232 
L 405.127263 478.086977 
L 405.346895 376.873407 
L 405.566528 422.146674 
L 405.78616 536.420244 
L 406.225424 453.222717 
L 406.884321 523.345029 
L 407.103954 483.031627 
L 407.323586 492.139379 
L 407.543218 356.931362 
L 407.76285 426.520209 
L 407.982483 405.832767 
L 408.421747 533.058707 
L 408.64138 516.997361 
L 409.300276 437.924919 
L 409.519909 502.651068 
L 409.739541 405.181077 
L 409.959173 423.567629 
L 410.178806 506.725251 
L 410.398438 443.377465 
L 410.61807 541.332291 
L 410.837702 371.645931 
L 411.057335 421.544683 
L 411.276967 371.913119 
L 411.496599 488.407796 
L 411.935864 542.809445 
L 412.155496 491.055121 
L 412.375128 466.015718 
L 412.594761 424.053652 
L 412.814393 444.130516 
L 413.034025 418.050468 
L 413.47329 469.821539 
L 413.692922 514.841197 
L 413.912554 464.400836 
L 414.132187 473.912117 
L 414.351819 546.259534 
L 414.571451 413.262476 
L 414.791083 369.594502 
L 415.010716 478.856056 
L 415.230348 374.014974 
L 415.44998 452.430317 
L 415.669613 472.347097 
L 415.889245 504.076109 
L 416.108877 404.04943 
L 416.328509 527.368475 
L 416.767774 414.056688 
L 416.987406 490.937262 
L 417.207039 356.81988 
L 417.426671 516.400042 
L 417.646303 486.938823 
L 417.865935 488.818648 
L 418.3052 542.12447 
L 418.524832 394.474168 
L 418.744465 444.969051 
L 418.964097 439.360353 
L 419.183729 476.272506 
L 419.403361 443.355732 
L 419.622994 467.883889 
L 419.842626 360.401226 
L 420.062258 482.660699 
L 420.281891 448.49067 
L 420.501523 476.339167 
L 420.721155 462.415835 
L 421.16042 535.300123 
L 421.380052 347.916643 
L 421.599684 472.926786 
L 422.038949 336.829349 
L 422.478213 478.151758 
L 422.697846 474.504652 
L 422.917478 473.459183 
L 423.13711 401.687905 
L 423.356743 512.145566 
L 423.576375 526.913426 
L 423.796007 445.945209 
L 424.015639 462.99473 
L 424.235272 555.545763 
L 424.454904 384.693492 
L 424.674536 434.022832 
L 424.894169 378.43079 
L 425.113801 430.195321 
L 425.553065 470.014749 
L 425.772698 538.864829 
L 425.99233 510.484765 
L 426.211962 428.669561 
L 426.431594 460.223921 
L 426.651227 516.703786 
L 426.870859 433.309253 
L 427.090491 538.465219 
L 427.529756 493.16217 
L 427.96902 530.872196 
L 428.408285 448.936031 
L 428.627917 449.294861 
L 428.84755 426.743906 
L 429.067182 426.550919 
L 429.286814 500.215847 
L 429.506446 522.907916 
L 429.726079 491.26322 
L 429.945711 421.311946 
L 430.165343 500.694831 
L 430.384976 478.499995 
L 430.604608 361.667358 
L 430.82424 535.866738 
L 431.043872 530.430012 
L 431.263505 491.110417 
L 431.483137 496.853194 
L 431.702769 288.72382 
L 431.922402 514.015163 
L 432.142034 520.463755 
L 432.361666 537.945049 
L 432.581298 398.465621 
L 432.800931 472.031489 
L 433.020563 485.087237 
L 433.240195 443.539119 
L 433.459828 483.879571 
L 433.67946 423.727258 
L 433.899092 495.446888 
L 434.118724 418.303081 
L 434.338357 439.621704 
L 434.777621 305.085963 
L 434.997254 474.086924 
L 435.216886 479.661325 
L 435.436518 415.573684 
L 435.65615 521.252097 
L 435.875783 377.22821 
L 436.095415 538.071726 
L 436.53468 374.897808 
L 436.754312 372.626855 
L 436.973944 423.980373 
L 437.193576 424.797458 
L 437.413209 516.913267 
L 437.632841 433.923705 
L 438.072106 547.198164 
L 438.291738 396.47294 
L 438.51137 441.012644 
L 438.731002 524.533945 
L 438.950635 398.631166 
L 439.170267 492.41858 
L 439.389899 454.582356 
L 439.609532 441.321394 
L 439.829164 529.914173 
L 440.048796 506.777362 
L 440.268428 511.100252 
L 440.488061 440.087074 
L 440.707693 527.583345 
L 440.927325 479.893482 
L 441.36659 535.864892 
L 441.586222 355.533664 
L 441.805854 466.202702 
L 442.025487 504.431091 
L 442.245119 468.160063 
L 442.464751 403.438517 
L 442.684383 478.088488 
L 442.904016 412.706372 
L 443.123648 487.15305 
L 443.34328 420.834216 
L 443.562913 475.360589 
L 443.782545 471.559454 
L 444.002177 455.769958 
L 444.221809 505.40633 
L 444.441442 479.29744 
L 444.661074 505.417238 
L 444.880706 389.308526 
L 445.100339 385.428221 
L 445.539603 443.507459 
L 445.759235 541.371356 
L 445.978868 447.969555 
L 446.1985 452.872787 
L 446.418132 483.874648 
L 446.637765 414.363451 
L 446.857397 525.281089 
L 447.077029 461.524086 
L 447.296661 485.908482 
L 447.516294 388.900052 
L 447.735926 433.666086 
L 447.955558 509.306402 
L 448.175191 494.250219 
L 448.394823 490.817365 
L 448.614455 429.524418 
L 448.834087 456.597116 
L 449.05372 511.795773 
L 449.273352 434.733951 
L 449.492984 530.368766 
L 449.712617 323.811923 
L 449.932249 485.712573 
L 450.151881 462.758364 
L 450.371513 507.357103 
L 450.810778 347.557974 
L 451.03041 453.50885 
L 451.250043 429.160354 
L 451.469675 421.082379 
L 451.689307 445.616347 
L 451.908939 374.371834 
L 452.128572 530.474583 
L 452.567836 294.395294 
L 452.787469 523.066164 
L 453.007101 420.475183 
L 453.226733 412.001533 
L 453.446365 413.419949 
L 453.665998 454.600023 
L 453.88563 429.605326 
L 454.105262 544.80586 
L 454.324895 365.060619 
L 454.544527 318.209709 
L 454.764159 512.011416 
L 454.983791 420.255594 
L 455.203424 504.006623 
L 455.423056 513.988246 
L 455.642688 492.790931 
L 455.862321 509.43676 
L 456.081953 450.939667 
L 456.301585 357.957738 
L 456.521217 379.167399 
L 456.74085 479.367937 
L 456.960482 356.962579 
L 457.180114 476.274419 
L 457.399746 480.263277 
L 457.619379 480.919595 
L 457.839011 329.285433 
L 458.058643 481.063022 
L 458.278276 480.482944 
L 458.497908 487.813801 
L 458.71754 421.897011 
L 458.937172 528.481028 
L 459.376437 444.345236 
L 459.596069 281.302358 
L 459.815702 516.75585 
L 460.035334 513.376094 
L 460.474598 416.650067 
L 460.694231 482.762127 
L 460.913863 470.998681 
L 461.133495 405.675616 
L 461.353128 422.546306 
L 461.57276 500.958275 
L 461.792392 471.932835 
L 462.012024 425.691137 
L 462.451289 492.825996 
L 462.670921 403.138622 
L 462.890554 424.498245 
L 463.110186 468.001406 
L 463.329818 453.851258 
L 463.54945 422.106584 
L 463.769083 411.2144 
L 463.988715 434.297353 
L 464.208347 431.670502 
L 464.42798 387.478158 
L 464.647612 488.507402 
L 464.867244 368.923352 
L 465.086876 475.309981 
L 465.306509 488.84293 
L 465.526141 439.365664 
L 465.745773 564.557125 
L 465.965406 426.813861 
L 466.185038 533.186047 
L 466.40467 501.455733 
L 466.624302 508.228872 
L 466.843935 506.410915 
L 467.063567 431.800346 
L 467.283199 486.815462 
L 467.502832 357.671805 
L 467.722464 413.041802 
L 467.942096 385.543833 
L 468.161728 409.665521 
L 468.381361 545.039521 
L 468.600993 487.622352 
L 468.820625 512.292788 
L 469.040258 354.289394 
L 469.25989 476.360853 
L 469.479522 454.392797 
L 469.699154 535.06397 
L 469.918787 473.923184 
L 470.138419 511.64546 
L 470.358051 483.79439 
L 470.577684 526.866261 
L 471.016948 366.598745 
L 471.456213 518.243505 
L 471.675845 440.484532 
L 471.895477 487.359227 
L 472.11511 457.434011 
L 472.334742 518.901704 
L 472.554374 540.719331 
L 472.993639 322.94061 
L 473.213271 439.099621 
L 473.432903 443.790097 
L 473.652535 484.496172 
L 473.872168 465.043273 
L 474.0918 389.762861 
L 474.311432 409.805891 
L 474.750697 504.013952 
L 474.970329 449.469769 
L 475.189961 470.739125 
L 475.409594 389.339609 
L 475.629226 519.317006 
L 475.848858 486.458745 
L 476.068491 300.390213 
L 476.727387 477.158925 
L 476.94702 439.782732 
L 477.166652 436.743333 
L 477.386284 431.756716 
L 477.605917 491.268643 
L 477.825549 486.683127 
L 478.045181 519.310654 
L 478.264813 418.110967 
L 478.484446 487.126816 
L 478.704078 472.925322 
L 478.92371 428.21651 
L 479.143343 478.880329 
L 479.362975 446.011251 
L 479.582607 489.751659 
L 479.802239 418.132767 
L 480.021872 491.08422 
L 480.241504 479.479041 
L 480.900401 528.979833 
L 481.120033 446.788481 
L 481.339665 457.829831 
L 481.559298 519.923063 
L 481.77893 422.057123 
L 481.998562 480.541463 
L 482.218195 453.465446 
L 482.437827 513.063129 
L 482.657459 359.016604 
L 482.877091 502.770097 
L 483.096724 509.815608 
L 483.535988 474.040715 
L 483.755621 554.346388 
L 483.975253 505.235254 
L 484.194885 545.026237 
L 484.414517 431.104628 
L 484.63415 491.695368 
L 484.853782 394.077501 
L 485.293047 533.078009 
L 485.732311 472.564386 
L 485.951943 342.404123 
L 486.171576 381.460064 
L 486.391208 477.405092 
L 486.61084 453.320306 
L 486.830473 457.538099 
L 487.050105 477.043052 
L 487.269737 479.503231 
L 487.489369 470.407413 
L 487.928634 542.385769 
L 488.148266 452.09739 
L 488.367898 462.143049 
L 488.587531 422.434782 
L 488.807163 509.0286 
L 489.026795 488.143166 
L 489.246428 455.685042 
L 489.46606 447.079924 
L 489.685692 483.774779 
L 489.905324 493.367324 
L 490.124957 477.259425 
L 490.344589 473.982711 
L 490.564221 366.727408 
L 490.783854 533.215037 
L 491.003486 491.491577 
L 491.223118 503.539557 
L 491.44275 504.221098 
L 491.662383 462.113487 
L 491.882015 508.165749 
L 492.101647 363.063125 
L 492.32128 515.832344 
L 492.760544 423.734858 
L 492.980176 482.961634 
L 493.419441 513.634169 
L 493.639073 406.001538 
L 493.858706 424.673852 
L 494.078338 564.983396 
L 494.29797 341.560786 
L 494.517602 376.686581 
L 494.737235 453.140422 
L 494.956867 461.322414 
L 495.176499 412.562105 
L 495.396132 478.703245 
L 495.615764 384.665226 
L 495.835396 417.792414 
L 496.055028 431.02975 
L 496.274661 465.138609 
L 496.494293 405.581901 
L 496.713925 498.835704 
L 496.933558 513.315476 
L 497.15319 436.608301 
L 497.592454 529.007323 
L 497.812087 516.170087 
L 498.031719 493.720248 
L 498.251351 513.201607 
L 498.470984 482.025737 
L 498.690616 491.375758 
L 498.910248 450.647717 
L 499.12988 546.103291 
L 499.349513 396.721612 
L 499.569145 471.513784 
L 499.788777 471.327919 
L 500.00841 407.694341 
L 500.228042 469.962833 
L 500.886939 396.072507 
L 501.106571 297.032826 
L 501.326203 490.132674 
L 501.765468 429.254906 
L 501.9851 532.671899 
L 502.204732 440.910584 
L 502.424365 499.792874 
L 502.643997 471.433746 
L 502.863629 386.171033 
L 503.083262 469.569444 
L 503.302894 452.770691 
L 503.522526 565.412468 
L 503.742158 458.091839 
L 503.961791 517.68283 
L 504.181423 473.357105 
L 504.401055 486.301087 
L 504.620687 442.138811 
L 504.84032 328.168885 
L 505.059952 552.093265 
L 505.279584 367.090442 
L 505.499217 401.300585 
L 505.718849 500.812204 
L 505.938481 379.449432 
L 506.158113 514.848215 
L 506.377746 499.394163 
L 506.597378 370.485086 
L 507.036643 489.046343 
L 507.256275 484.01654 
L 507.475907 414.972683 
L 507.695539 450.7564 
L 507.915172 429.813838 
L 508.134804 430.615332 
L 508.354436 535.92621 
L 508.574069 478.808788 
L 508.793701 525.725298 
L 509.013333 405.074778 
L 509.232965 421.736787 
L 509.452598 375.095346 
L 509.67223 406.483199 
L 509.891862 467.554923 
L 510.111495 412.267773 
L 510.331127 507.215524 
L 510.550759 495.264605 
L 510.770391 420.721822 
L 510.990024 484.700304 
L 511.209656 415.830585 
L 511.429288 488.346266 
L 511.868553 416.022513 
L 512.088185 510.964743 
L 512.307817 420.454249 
L 512.52745 491.018893 
L 512.747082 502.068048 
L 513.186347 408.088929 
L 513.405979 462.782796 
L 513.625611 439.558416 
L 513.845243 533.506991 
L 514.064876 534.868306 
L 514.284508 476.082869 
L 514.50414 494.80513 
L 514.723773 390.391504 
L 514.943405 400.339981 
L 515.163037 415.589366 
L 515.382669 363.672014 
L 515.602302 525.894402 
L 515.821934 425.02021 
L 516.041566 463.141778 
L 516.261199 427.244785 
L 516.480831 475.708565 
L 516.700463 490.181272 
L 516.920095 457.441102 
L 517.139728 520.065344 
L 517.35936 492.996395 
L 517.578992 411.367247 
L 518.018257 503.974805 
L 518.237889 502.006734 
L 518.457521 461.633287 
L 518.677154 317.591299 
L 518.896786 470.862005 
L 519.116418 455.13944 
L 519.33605 371.803819 
L 519.555683 506.641625 
L 519.775315 510.027478 
L 519.994947 498.611039 
L 520.434212 421.590521 
L 520.653844 431.344914 
L 520.873476 426.325495 
L 521.312741 532.689601 
L 521.532373 418.285735 
L 521.752006 453.842095 
L 521.971638 459.180533 
L 522.19127 540.875388 
L 522.410902 428.273965 
L 522.630535 531.660221 
L 522.850167 385.115058 
L 523.069799 484.137233 
L 523.289432 437.391303 
L 523.509064 421.375965 
L 523.728696 460.515645 
L 524.167961 394.937616 
L 524.387593 517.186035 
L 524.607225 473.904797 
L 524.826858 526.230199 
L 525.04649 432.687404 
L 525.485754 495.178866 
L 525.705387 448.840373 
L 525.925019 439.975027 
L 526.144651 561.888847 
L 526.583916 361.260236 
L 526.803548 523.726499 
L 527.02318 499.384449 
L 527.242813 489.798761 
L 527.462445 500.103349 
L 527.682077 494.457106 
L 527.90171 409.701173 
L 528.121342 448.314857 
L 528.340974 540.870286 
L 528.780239 507.898827 
L 528.999871 441.87744 
L 529.219503 487.301119 
L 529.439136 317.701027 
L 529.658768 488.075183 
L 529.8784 525.804962 
L 530.317665 422.910083 
L 530.537297 425.287716 
L 530.756929 546.915839 
L 530.976562 423.745287 
L 531.196194 496.289149 
L 531.415826 472.366477 
L 531.635458 489.178532 
L 531.855091 411.152454 
L 532.074723 508.520514 
L 532.294355 450.631405 
L 532.513988 430.929076 
L 532.73362 486.379475 
L 532.953252 380.176586 
L 533.172884 469.355958 
L 533.392517 426.811156 
L 533.612149 437.45711 
L 533.831781 528.297796 
L 534.051413 430.345347 
L 534.271046 458.779167 
L 534.490678 448.457056 
L 534.71031 477.83289 
L 534.929943 429.302606 
L 535.149575 349.302863 
L 535.369207 523.208323 
L 535.588839 420.852895 
L 535.808472 478.140877 
L 536.028104 483.876747 
L 536.247736 418.609321 
L 536.906633 501.697117 
L 537.126265 499.686239 
L 537.345898 425.442266 
L 537.785162 497.472013 
L 538.004795 499.036549 
L 538.224427 535.815757 
L 538.444059 417.207988 
L 538.663691 538.96905 
L 538.883324 369.888925 
L 539.102956 486.818423 
L 539.322588 466.18207 
L 539.542221 483.622467 
L 539.761853 488.948585 
L 539.981485 407.805165 
L 540.201117 512.829621 
L 540.42075 418.131672 
L 540.640382 542.712797 
L 540.860014 501.732521 
L 541.079647 339.652166 
L 541.299279 505.739986 
L 541.518911 405.600838 
L 541.738543 451.934544 
L 541.958176 377.491572 
L 542.177808 515.437561 
L 542.39744 508.47911 
L 542.617073 508.661681 
L 542.836705 488.868669 
L 543.056337 454.358516 
L 543.275969 522.664387 
L 543.715234 469.14629 
L 543.934866 386.999404 
L 544.154499 427.760708 
L 544.374131 499.472372 
L 544.593763 475.767428 
L 544.813395 502.543997 
L 545.033028 283.752358 
L 545.25266 487.372505 
L 545.472292 485.480978 
L 545.691925 380.733945 
L 545.911557 424.979225 
L 545.911557 424.979225 
" style="fill:none;stroke:#96c69a;stroke-linecap:round;stroke-width:3;"/>
   </g>
   <g id="line2d_2"/>
   <g id="patch_3">
    <path d="M 84.914375 602.94 
L 84.914375 109.326857 
" style="fill:none;stroke:#262626;stroke-linecap:square;stroke-linejoin:miter;stroke-width:2.5;"/>
   </g>
   <g id="patch_4">
    <path d="M 84.914375 602.94 
L 567.863804 602.94 
" style="fill:none;stroke:#262626;stroke-linecap:square;stroke-linejoin:miter;stroke-width:2.5;"/>
   </g>
   <g id="legend_1">
    <g id="patch_5">
     <path d="M 507.990366 597.94 
L 560.863804 597.94 
Q 562.863804 597.94 562.863804 595.94 
L 562.863804 554.034375 
Q 562.863804 552.034375 560.863804 552.034375 
L 507.990366 552.034375 
Q 505.990366 552.034375 505.990366 554.034375 
L 505.990366 595.94 
Q 505.990366 597.94 507.990366 597.94 
z
" style="fill:#ffffff;opacity:0.8;stroke:#cccccc;stroke-linejoin:miter;stroke-width:2;"/>
    </g>
    <g id="text_14">
     <!-- $n_\tau$ -->
     <g style="fill:#262626;" transform="translate(521.347085 574.270625)scale(0.24 -0.24)">
      <defs>
       <path d="M 3566 2113 
L 3156 0 
L 2578 0 
L 2988 2091 
Q 3016 2238 3031 2350 
Q 3047 2463 3047 2528 
Q 3047 2791 2881 2937 
Q 2716 3084 2419 3084 
Q 1956 3084 1622 2776 
Q 1288 2469 1184 1941 
L 800 0 
L 225 0 
L 903 3500 
L 1478 3500 
L 1363 2950 
Q 1603 3253 1940 3418 
Q 2278 3584 2650 3584 
Q 3113 3584 3367 3334 
Q 3622 3084 3622 2631 
Q 3622 2519 3608 2391 
Q 3594 2263 3566 2113 
z
" id="DejaVuSans-Oblique-6e" transform="scale(0.015625)"/>
       <path d="M 2103 638 
Q 2188 488 2525 488 
L 2800 488 
L 2706 0 
L 2363 0 
Q 1800 0 1600 300 
Q 1403 606 1534 1269 
L 1856 2925 
L 541 2925 
L 653 3500 
L 3881 3500 
L 3769 2925 
L 2444 2925 
L 2113 1234 
Q 2025 781 2103 638 
z
" id="DejaVuSans-Oblique-3c4" transform="scale(0.015625)"/>
      </defs>
      <use xlink:href="#DejaVuSans-Oblique-6e"/>
      <use transform="translate(63.378906 -16.40625)scale(0.7)" xlink:href="#DejaVuSans-Oblique-3c4"/>
     </g>
    </g>
    <g id="line2d_3">
     <path d="M 509.990366 588.360312 
L 529.990366 588.360312 
" style="fill:none;stroke:#96c69a;stroke-linecap:round;stroke-width:3;"/>
    </g>
    <g id="line2d_4"/>
    <g id="text_15">
     <!-- 100 -->
     <g style="fill:#262626;" transform="translate(537.990366 591.860312)scale(0.1 -0.1)">
      <defs>
       <path d="M 750 831 
L 1813 831 
L 1813 3847 
L 722 3622 
L 722 4441 
L 1806 4666 
L 2950 4666 
L 2950 831 
L 4013 831 
L 4013 0 
L 750 0 
L 750 831 
z
" id="DejaVuSans-Bold-31" transform="scale(0.015625)"/>
       <path d="M 2944 2338 
Q 2944 3213 2780 3570 
Q 2616 3928 2228 3928 
Q 1841 3928 1675 3570 
Q 1509 3213 1509 2338 
Q 1509 1453 1675 1090 
Q 1841 728 2228 728 
Q 2613 728 2778 1090 
Q 2944 1453 2944 2338 
z
M 4147 2328 
Q 4147 1169 3647 539 
Q 3147 -91 2228 -91 
Q 1306 -91 806 539 
Q 306 1169 306 2328 
Q 306 3491 806 4120 
Q 1306 4750 2228 4750 
Q 3147 4750 3647 4120 
Q 4147 3491 4147 2328 
z
" id="DejaVuSans-Bold-30" transform="scale(0.015625)"/>
      </defs>
      <use xlink:href="#DejaVuSans-Bold-31"/>
      <use x="69.580078" xlink:href="#DejaVuSans-Bold-30"/>
      <use x="139.160156" xlink:href="#DejaVuSans-Bold-30"/>
     </g>
    </g>
   </g>
  </g>
  <g id="axes_2">
   <g id="patch_6">
    <path d="M 84.914375 92.305714 
L 567.863804 92.305714 
L 567.863804 7.2 
L 84.914375 7.2 
z
" style="fill:none;"/>
   </g>
   <g id="matplotlib.axis_3">
    <g id="xtick_7"/>
    <g id="xtick_8"/>
    <g id="xtick_9"/>
    <g id="xtick_10"/>
    <g id="xtick_11"/>
    <g id="xtick_12"/>
   </g>
   <g id="matplotlib.axis_4">
    <g id="ytick_6">
     <g id="text_16">
      <!-- 0 -->
      <g style="fill:#262626;" transform="translate(55.416875 100.663996)scale(0.22 -0.22)">
       <use xlink:href="#DejaVuSans-30"/>
      </g>
     </g>
    </g>
    <g id="ytick_7">
     <g id="text_17">
      <!-- 100 -->
      <g style="fill:#262626;" transform="translate(27.421875 48.032138)scale(0.22 -0.22)">
       <use xlink:href="#DejaVuSans-31"/>
       <use x="63.623047" xlink:href="#DejaVuSans-30"/>
       <use x="127.246094" xlink:href="#DejaVuSans-30"/>
      </g>
     </g>
    </g>
   </g>
   <g id="patch_7">
    <path clip-path="url(#p61c2581bda)" d="M 106.866622 92.305714 
L 140.639309 92.305714 
L 140.639309 11.252653 
L 106.866622 11.252653 
z
" style="fill:#96c69a;fill-opacity:0.5;stroke:#ffffff;stroke-linejoin:miter;stroke-width:2;"/>
   </g>
   <g id="patch_8">
    <path clip-path="url(#p61c2581bda)" d="M 140.639309 92.305714 
L 174.411996 92.305714 
L 174.411996 11.252653 
L 140.639309 11.252653 
z
" style="fill:#96c69a;fill-opacity:0.5;stroke:#ffffff;stroke-linejoin:miter;stroke-width:2;"/>
   </g>
   <g id="patch_9">
    <path clip-path="url(#p61c2581bda)" d="M 174.411996 92.305714 
L 208.184684 92.305714 
L 208.184684 11.252653 
L 174.411996 11.252653 
z
" style="fill:#96c69a;fill-opacity:0.5;stroke:#ffffff;stroke-linejoin:miter;stroke-width:2;"/>
   </g>
   <g id="patch_10">
    <path clip-path="url(#p61c2581bda)" d="M 208.184684 92.305714 
L 241.957371 92.305714 
L 241.957371 11.252653 
L 208.184684 11.252653 
z
" style="fill:#96c69a;fill-opacity:0.5;stroke:#ffffff;stroke-linejoin:miter;stroke-width:2;"/>
   </g>
   <g id="patch_11">
    <path clip-path="url(#p61c2581bda)" d="M 241.957371 92.305714 
L 275.730058 92.305714 
L 275.730058 11.778972 
L 241.957371 11.778972 
z
" style="fill:#96c69a;fill-opacity:0.5;stroke:#ffffff;stroke-linejoin:miter;stroke-width:2;"/>
   </g>
   <g id="patch_12">
    <path clip-path="url(#p61c2581bda)" d="M 275.730058 92.305714 
L 309.502746 92.305714 
L 309.502746 11.252653 
L 275.730058 11.252653 
z
" style="fill:#96c69a;fill-opacity:0.5;stroke:#ffffff;stroke-linejoin:miter;stroke-width:2;"/>
   </g>
   <g id="patch_13">
    <path clip-path="url(#p61c2581bda)" d="M 309.502746 92.305714 
L 343.275433 92.305714 
L 343.275433 11.252653 
L 309.502746 11.252653 
z
" style="fill:#96c69a;fill-opacity:0.5;stroke:#ffffff;stroke-linejoin:miter;stroke-width:2;"/>
   </g>
   <g id="patch_14">
    <path clip-path="url(#p61c2581bda)" d="M 343.275433 92.305714 
L 377.04812 92.305714 
L 377.04812 11.252653 
L 343.275433 11.252653 
z
" style="fill:#96c69a;fill-opacity:0.5;stroke:#ffffff;stroke-linejoin:miter;stroke-width:2;"/>
   </g>
   <g id="patch_15">
    <path clip-path="url(#p61c2581bda)" d="M 377.04812 92.305714 
L 410.820808 92.305714 
L 410.820808 11.778972 
L 377.04812 11.778972 
z
" style="fill:#96c69a;fill-opacity:0.5;stroke:#ffffff;stroke-linejoin:miter;stroke-width:2;"/>
   </g>
   <g id="patch_16">
    <path clip-path="url(#p61c2581bda)" d="M 410.820808 92.305714 
L 444.593495 92.305714 
L 444.593495 11.252653 
L 410.820808 11.252653 
z
" style="fill:#96c69a;fill-opacity:0.5;stroke:#ffffff;stroke-linejoin:miter;stroke-width:2;"/>
   </g>
   <g id="patch_17">
    <path clip-path="url(#p61c2581bda)" d="M 444.593495 92.305714 
L 478.366182 92.305714 
L 478.366182 11.252653 
L 444.593495 11.252653 
z
" style="fill:#96c69a;fill-opacity:0.5;stroke:#ffffff;stroke-linejoin:miter;stroke-width:2;"/>
   </g>
   <g id="patch_18">
    <path clip-path="url(#p61c2581bda)" d="M 478.366182 92.305714 
L 512.13887 92.305714 
L 512.13887 11.252653 
L 478.366182 11.252653 
z
" style="fill:#96c69a;fill-opacity:0.5;stroke:#ffffff;stroke-linejoin:miter;stroke-width:2;"/>
   </g>
   <g id="patch_19">
    <path clip-path="url(#p61c2581bda)" d="M 512.13887 92.305714 
L 545.911557 92.305714 
L 545.911557 11.252653 
L 512.13887 11.252653 
z
" style="fill:#96c69a;fill-opacity:0.5;stroke:#ffffff;stroke-linejoin:miter;stroke-width:2;"/>
   </g>
   <g id="patch_20">
    <path d="M 84.914375 92.305714 
L 84.914375 7.2 
" style="fill:none;stroke:#262626;stroke-linecap:square;stroke-linejoin:miter;stroke-width:2.5;"/>
   </g>
   <g id="patch_21">
    <path d="M 84.914375 92.305714 
L 567.863804 92.305714 
" style="fill:none;stroke:#262626;stroke-linecap:square;stroke-linejoin:miter;stroke-width:2.5;"/>
   </g>
  </g>
  <g id="axes_3">
   <g id="patch_22">
    <path d="M 584.517232 602.94 
L 667.784375 602.94 
L 667.784375 109.326857 
L 584.517232 109.326857 
z
" style="fill:none;"/>
   </g>
   <g id="matplotlib.axis_5">
    <g id="xtick_13">
     <g id="text_18">
      <!-- 0 -->
      <g style="fill:#262626;" transform="translate(577.518482 635.156562)scale(0.22 -0.22)">
       <use xlink:href="#DejaVuSans-30"/>
      </g>
     </g>
    </g>
    <g id="xtick_14">
     <g id="text_19">
      <!-- 200 -->
      <g style="fill:#262626;" transform="translate(646.559768 635.156562)scale(0.22 -0.22)">
       <use xlink:href="#DejaVuSans-32"/>
       <use x="63.623047" xlink:href="#DejaVuSans-30"/>
       <use x="127.246094" xlink:href="#DejaVuSans-30"/>
      </g>
     </g>
    </g>
   </g>
   <g id="matplotlib.axis_6">
    <g id="ytick_8"/>
    <g id="ytick_9"/>
    <g id="ytick_10"/>
    <g id="ytick_11"/>
    <g id="ytick_12"/>
   </g>
   <g id="patch_23">
    <path clip-path="url(#pe8ca2074c0)" d="M 584.517232 580.503039 
L 586.593202 580.503039 
L 586.593202 569.55818 
L 584.517232 569.55818 
z
" style="fill:#96c69a;fill-opacity:0.5;stroke:#ffffff;stroke-linejoin:miter;stroke-width:1.094486;"/>
   </g>
   <g id="patch_24">
    <path clip-path="url(#pe8ca2074c0)" d="M 584.517232 569.55818 
L 589.499559 569.55818 
L 589.499559 558.613321 
L 584.517232 558.613321 
z
" style="fill:#96c69a;fill-opacity:0.5;stroke:#ffffff;stroke-linejoin:miter;stroke-width:1.094486;"/>
   </g>
   <g id="patch_25">
    <path clip-path="url(#pe8ca2074c0)" d="M 584.517232 558.613321 
L 591.160335 558.613321 
L 591.160335 547.668462 
L 584.517232 547.668462 
z
" style="fill:#96c69a;fill-opacity:0.5;stroke:#ffffff;stroke-linejoin:miter;stroke-width:1.094486;"/>
   </g>
   <g id="patch_26">
    <path clip-path="url(#pe8ca2074c0)" d="M 584.517232 547.668462 
L 606.107317 547.668462 
L 606.107317 536.723603 
L 584.517232 536.723603 
z
" style="fill:#96c69a;fill-opacity:0.5;stroke:#ffffff;stroke-linejoin:miter;stroke-width:1.094486;"/>
   </g>
   <g id="patch_27">
    <path clip-path="url(#pe8ca2074c0)" d="M 584.517232 536.723603 
L 618.978328 536.723603 
L 618.978328 525.778744 
L 584.517232 525.778744 
z
" style="fill:#96c69a;fill-opacity:0.5;stroke:#ffffff;stroke-linejoin:miter;stroke-width:1.094486;"/>
   </g>
   <g id="patch_28">
    <path clip-path="url(#pe8ca2074c0)" d="M 584.517232 525.778744 
L 623.130268 525.778744 
L 623.130268 514.833885 
L 584.517232 514.833885 
z
" style="fill:#96c69a;fill-opacity:0.5;stroke:#ffffff;stroke-linejoin:miter;stroke-width:1.094486;"/>
   </g>
   <g id="patch_29">
    <path clip-path="url(#pe8ca2074c0)" d="M 584.517232 514.833885 
L 636.00128 514.833885 
L 636.00128 503.889026 
L 584.517232 503.889026 
z
" style="fill:#96c69a;fill-opacity:0.5;stroke:#ffffff;stroke-linejoin:miter;stroke-width:1.094486;"/>
   </g>
   <g id="patch_30">
    <path clip-path="url(#pe8ca2074c0)" d="M 584.517232 503.889026 
L 645.965934 503.889026 
L 645.965934 492.944167 
L 584.517232 492.944167 
z
" style="fill:#96c69a;fill-opacity:0.5;stroke:#ffffff;stroke-linejoin:miter;stroke-width:1.094486;"/>
   </g>
   <g id="patch_31">
    <path clip-path="url(#pe8ca2074c0)" d="M 584.517232 492.944167 
L 663.819273 492.944167 
L 663.819273 481.999308 
L 584.517232 481.999308 
z
" style="fill:#96c69a;fill-opacity:0.5;stroke:#ffffff;stroke-linejoin:miter;stroke-width:1.094486;"/>
   </g>
   <g id="patch_32">
    <path clip-path="url(#pe8ca2074c0)" d="M 584.517232 481.999308 
L 662.988885 481.999308 
L 662.988885 471.054449 
L 584.517232 471.054449 
z
" style="fill:#96c69a;fill-opacity:0.5;stroke:#ffffff;stroke-linejoin:miter;stroke-width:1.094486;"/>
   </g>
   <g id="patch_33">
    <path clip-path="url(#pe8ca2074c0)" d="M 584.517232 471.054449 
L 650.948261 471.054449 
L 650.948261 460.109589 
L 584.517232 460.109589 
z
" style="fill:#96c69a;fill-opacity:0.5;stroke:#ffffff;stroke-linejoin:miter;stroke-width:1.094486;"/>
   </g>
   <g id="patch_34">
    <path clip-path="url(#pe8ca2074c0)" d="M 584.517232 460.109589 
L 645.965934 460.109589 
L 645.965934 449.16473 
L 584.517232 449.16473 
z
" style="fill:#96c69a;fill-opacity:0.5;stroke:#ffffff;stroke-linejoin:miter;stroke-width:1.094486;"/>
   </g>
   <g id="patch_35">
    <path clip-path="url(#pe8ca2074c0)" d="M 584.517232 449.16473 
L 640.568413 449.16473 
L 640.568413 438.219871 
L 584.517232 438.219871 
z
" style="fill:#96c69a;fill-opacity:0.5;stroke:#ffffff;stroke-linejoin:miter;stroke-width:1.094486;"/>
   </g>
   <g id="patch_36">
    <path clip-path="url(#pe8ca2074c0)" d="M 584.517232 438.219871 
L 636.00128 438.219871 
L 636.00128 427.275012 
L 584.517232 427.275012 
z
" style="fill:#96c69a;fill-opacity:0.5;stroke:#ffffff;stroke-linejoin:miter;stroke-width:1.094486;"/>
   </g>
   <g id="patch_37">
    <path clip-path="url(#pe8ca2074c0)" d="M 584.517232 427.275012 
L 640.153219 427.275012 
L 640.153219 416.330153 
L 584.517232 416.330153 
z
" style="fill:#96c69a;fill-opacity:0.5;stroke:#ffffff;stroke-linejoin:miter;stroke-width:1.094486;"/>
   </g>
   <g id="patch_38">
    <path clip-path="url(#pe8ca2074c0)" d="M 584.517232 416.330153 
L 623.960656 416.330153 
L 623.960656 405.385294 
L 584.517232 405.385294 
z
" style="fill:#96c69a;fill-opacity:0.5;stroke:#ffffff;stroke-linejoin:miter;stroke-width:1.094486;"/>
   </g>
   <g id="patch_39">
    <path clip-path="url(#pe8ca2074c0)" d="M 584.517232 405.385294 
L 611.089644 405.385294 
L 611.089644 394.440435 
L 584.517232 394.440435 
z
" style="fill:#96c69a;fill-opacity:0.5;stroke:#ffffff;stroke-linejoin:miter;stroke-width:1.094486;"/>
   </g>
   <g id="patch_40">
    <path clip-path="url(#pe8ca2074c0)" d="M 584.517232 394.440435 
L 607.768092 394.440435 
L 607.768092 383.495576 
L 584.517232 383.495576 
z
" style="fill:#96c69a;fill-opacity:0.5;stroke:#ffffff;stroke-linejoin:miter;stroke-width:1.094486;"/>
   </g>
   <g id="patch_41">
    <path clip-path="url(#pe8ca2074c0)" d="M 584.517232 383.495576 
L 603.616153 383.495576 
L 603.616153 372.550717 
L 584.517232 372.550717 
z
" style="fill:#96c69a;fill-opacity:0.5;stroke:#ffffff;stroke-linejoin:miter;stroke-width:1.094486;"/>
   </g>
   <g id="patch_42">
    <path clip-path="url(#pe8ca2074c0)" d="M 584.517232 372.550717 
L 599.464214 372.550717 
L 599.464214 361.605858 
L 584.517232 361.605858 
z
" style="fill:#96c69a;fill-opacity:0.5;stroke:#ffffff;stroke-linejoin:miter;stroke-width:1.094486;"/>
   </g>
   <g id="patch_43">
    <path clip-path="url(#pe8ca2074c0)" d="M 584.517232 361.605858 
L 594.066693 361.605858 
L 594.066693 350.660999 
L 584.517232 350.660999 
z
" style="fill:#96c69a;fill-opacity:0.5;stroke:#ffffff;stroke-linejoin:miter;stroke-width:1.094486;"/>
   </g>
   <g id="patch_44">
    <path clip-path="url(#pe8ca2074c0)" d="M 584.517232 350.660999 
L 594.066693 350.660999 
L 594.066693 339.71614 
L 584.517232 339.71614 
z
" style="fill:#96c69a;fill-opacity:0.5;stroke:#ffffff;stroke-linejoin:miter;stroke-width:1.094486;"/>
   </g>
   <g id="patch_45">
    <path clip-path="url(#pe8ca2074c0)" d="M 584.517232 339.71614 
L 589.914753 339.71614 
L 589.914753 328.771281 
L 584.517232 328.771281 
z
" style="fill:#96c69a;fill-opacity:0.5;stroke:#ffffff;stroke-linejoin:miter;stroke-width:1.094486;"/>
   </g>
   <g id="patch_46">
    <path clip-path="url(#pe8ca2074c0)" d="M 584.517232 328.771281 
L 587.008396 328.771281 
L 587.008396 317.826422 
L 584.517232 317.826422 
z
" style="fill:#96c69a;fill-opacity:0.5;stroke:#ffffff;stroke-linejoin:miter;stroke-width:1.094486;"/>
   </g>
   <g id="patch_47">
    <path clip-path="url(#pe8ca2074c0)" d="M 584.517232 317.826422 
L 587.838784 317.826422 
L 587.838784 306.881563 
L 584.517232 306.881563 
z
" style="fill:#96c69a;fill-opacity:0.5;stroke:#ffffff;stroke-linejoin:miter;stroke-width:1.094486;"/>
   </g>
   <g id="patch_48">
    <path clip-path="url(#pe8ca2074c0)" d="M 584.517232 306.881563 
L 587.008396 306.881563 
L 587.008396 295.936704 
L 584.517232 295.936704 
z
" style="fill:#96c69a;fill-opacity:0.5;stroke:#ffffff;stroke-linejoin:miter;stroke-width:1.094486;"/>
   </g>
   <g id="patch_49">
    <path clip-path="url(#pe8ca2074c0)" d="M 584.517232 295.936704 
L 585.34762 295.936704 
L 585.34762 284.991845 
L 584.517232 284.991845 
z
" style="fill:#96c69a;fill-opacity:0.5;stroke:#ffffff;stroke-linejoin:miter;stroke-width:1.094486;"/>
   </g>
   <g id="patch_50">
    <path clip-path="url(#pe8ca2074c0)" d="M 584.517232 284.991845 
L 586.178008 284.991845 
L 586.178008 274.046986 
L 584.517232 274.046986 
z
" style="fill:#96c69a;fill-opacity:0.5;stroke:#ffffff;stroke-linejoin:miter;stroke-width:1.094486;"/>
   </g>
   <g id="patch_51">
    <path clip-path="url(#pe8ca2074c0)" d="M 584.517232 274.046986 
L 585.34762 274.046986 
L 585.34762 263.102127 
L 584.517232 263.102127 
z
" style="fill:#96c69a;fill-opacity:0.5;stroke:#ffffff;stroke-linejoin:miter;stroke-width:1.094486;"/>
   </g>
   <g id="patch_52">
    <path clip-path="url(#pe8ca2074c0)" d="M 584.517232 263.102127 
L 584.517232 263.102127 
L 584.517232 252.157268 
L 584.517232 252.157268 
z
" style="fill:#96c69a;fill-opacity:0.5;stroke:#ffffff;stroke-linejoin:miter;stroke-width:1.094486;"/>
   </g>
   <g id="patch_53">
    <path clip-path="url(#pe8ca2074c0)" d="M 584.517232 252.157268 
L 584.932426 252.157268 
L 584.932426 241.212409 
L 584.517232 241.212409 
z
" style="fill:#96c69a;fill-opacity:0.5;stroke:#ffffff;stroke-linejoin:miter;stroke-width:1.094486;"/>
   </g>
   <g id="patch_54">
    <path clip-path="url(#pe8ca2074c0)" d="M 584.517232 241.212409 
L 584.517232 241.212409 
L 584.517232 230.26755 
L 584.517232 230.26755 
z
" style="fill:#96c69a;fill-opacity:0.5;stroke:#ffffff;stroke-linejoin:miter;stroke-width:1.094486;"/>
   </g>
   <g id="patch_55">
    <path clip-path="url(#pe8ca2074c0)" d="M 584.517232 230.26755 
L 584.517232 230.26755 
L 584.517232 219.322691 
L 584.517232 219.322691 
z
" style="fill:#96c69a;fill-opacity:0.5;stroke:#ffffff;stroke-linejoin:miter;stroke-width:1.094486;"/>
   </g>
   <g id="patch_56">
    <path clip-path="url(#pe8ca2074c0)" d="M 584.517232 219.322691 
L 584.517232 219.322691 
L 584.517232 208.377831 
L 584.517232 208.377831 
z
" style="fill:#96c69a;fill-opacity:0.5;stroke:#ffffff;stroke-linejoin:miter;stroke-width:1.094486;"/>
   </g>
   <g id="patch_57">
    <path clip-path="url(#pe8ca2074c0)" d="M 584.517232 208.377831 
L 584.517232 208.377831 
L 584.517232 197.432972 
L 584.517232 197.432972 
z
" style="fill:#96c69a;fill-opacity:0.5;stroke:#ffffff;stroke-linejoin:miter;stroke-width:1.094486;"/>
   </g>
   <g id="patch_58">
    <path clip-path="url(#pe8ca2074c0)" d="M 584.517232 197.432972 
L 584.517232 197.432972 
L 584.517232 186.488113 
L 584.517232 186.488113 
z
" style="fill:#96c69a;fill-opacity:0.5;stroke:#ffffff;stroke-linejoin:miter;stroke-width:1.094486;"/>
   </g>
   <g id="patch_59">
    <path clip-path="url(#pe8ca2074c0)" d="M 584.517232 186.488113 
L 584.517232 186.488113 
L 584.517232 175.543254 
L 584.517232 175.543254 
z
" style="fill:#96c69a;fill-opacity:0.5;stroke:#ffffff;stroke-linejoin:miter;stroke-width:1.094486;"/>
   </g>
   <g id="patch_60">
    <path clip-path="url(#pe8ca2074c0)" d="M 584.517232 175.543254 
L 584.517232 175.543254 
L 584.517232 164.598395 
L 584.517232 164.598395 
z
" style="fill:#96c69a;fill-opacity:0.5;stroke:#ffffff;stroke-linejoin:miter;stroke-width:1.094486;"/>
   </g>
   <g id="patch_61">
    <path clip-path="url(#pe8ca2074c0)" d="M 584.517232 164.598395 
L 584.517232 164.598395 
L 584.517232 153.653536 
L 584.517232 153.653536 
z
" style="fill:#96c69a;fill-opacity:0.5;stroke:#ffffff;stroke-linejoin:miter;stroke-width:1.094486;"/>
   </g>
   <g id="patch_62">
    <path clip-path="url(#pe8ca2074c0)" d="M 584.517232 153.653536 
L 584.517232 153.653536 
L 584.517232 142.708677 
L 584.517232 142.708677 
z
" style="fill:#96c69a;fill-opacity:0.5;stroke:#ffffff;stroke-linejoin:miter;stroke-width:1.094486;"/>
   </g>
   <g id="patch_63">
    <path clip-path="url(#pe8ca2074c0)" d="M 584.517232 142.708677 
L 584.932426 142.708677 
L 584.932426 131.763818 
L 584.517232 131.763818 
z
" style="fill:#96c69a;fill-opacity:0.5;stroke:#ffffff;stroke-linejoin:miter;stroke-width:1.094486;"/>
   </g>
   <g id="patch_64">
    <path d="M 584.517232 602.94 
L 584.517232 109.326857 
" style="fill:none;stroke:#262626;stroke-linecap:square;stroke-linejoin:miter;stroke-width:2.5;"/>
   </g>
   <g id="patch_65">
    <path d="M 584.517232 602.94 
L 667.784375 602.94 
" style="fill:none;stroke:#262626;stroke-linecap:square;stroke-linejoin:miter;stroke-width:2.5;"/>
   </g>
  </g>
 </g>
 <defs>
  <clipPath id="p5e24f5c16d">
   <rect height="493.613143" width="482.949429" x="84.914375" y="109.326857"/>
  </clipPath>
  <clipPath id="p61c2581bda">
   <rect height="85.105714" width="482.949429" x="84.914375" y="7.2"/>
  </clipPath>
  <clipPath id="pe8ca2074c0">
   <rect height="493.613143" width="83.267143" x="584.517232" y="109.326857"/>
  </clipPath>
 </defs>
</svg>
