<?xml version="1.0" encoding="utf-8" standalone="no"?>
<!DOCTYPE svg PUBLIC "-//W3C//DTD SVG 1.1//EN"
  "http://www.w3.org/Graphics/SVG/1.1/DTD/svg11.dtd">
<svg height="675.079375pt" version="1.1" viewBox="0 0 674.774375 675.079375" width="674.774375pt" xmlns="http://www.w3.org/2000/svg" xmlns:xlink="http://www.w3.org/1999/xlink">
 <metadata>
  <rdf:RDF xmlns:cc="http://creativecommons.org/ns#" xmlns:dc="http://purl.org/dc/elements/1.1/" xmlns:rdf="http://www.w3.org/1999/02/22-rdf-syntax-ns#">
   <cc:Work>
    <dc:type rdf:resource="http://purl.org/dc/dcmitype/StillImage"/>
    <dc:date>2021-07-16T22:21:49.604368</dc:date>
    <dc:format>image/svg+xml</dc:format>
    <dc:creator>
     <cc:Agent>
      <dc:title>Matplotlib v3.4.2, https://matplotlib.org/</dc:title>
     </cc:Agent>
    </dc:creator>
   </cc:Work>
  </rdf:RDF>
 </metadata>
 <defs>
  <style type="text/css">*{stroke-linecap:butt;stroke-linejoin:round;}</style>
 </defs>
 <g id="figure_1">
  <g id="patch_1">
   <path d="M 0 675.079375 
L 674.774375 675.079375 
L 674.774375 0 
L 0 0 
z
" style="fill:#ffffff;"/>
  </g>
  <g id="axes_1">
   <g id="patch_2">
    <path d="M 84.914375 603.86 
L 567.689804 603.86 
L 567.689804 109.484571 
L 84.914375 109.484571 
z
" style="fill:none;"/>
   </g>
   <g id="matplotlib.axis_1">
    <g id="xtick_1">
     <g id="text_1">
      <!-- 0 -->
      <g style="fill:#262626;" transform="translate(99.64041 636.076563)scale(0.22 -0.22)">
       <defs>
        <path d="M 2034 4250 
Q 1547 4250 1301 3770 
Q 1056 3291 1056 2328 
Q 1056 1369 1301 889 
Q 1547 409 2034 409 
Q 2525 409 2770 889 
Q 3016 1369 3016 2328 
Q 3016 3291 2770 3770 
Q 2525 4250 2034 4250 
z
M 2034 4750 
Q 2819 4750 3233 4129 
Q 3647 3509 3647 2328 
Q 3647 1150 3233 529 
Q 2819 -91 2034 -91 
Q 1250 -91 836 529 
Q 422 1150 422 2328 
Q 422 3509 836 4129 
Q 1250 4750 2034 4750 
z
" id="DejaVuSans-30" transform="scale(0.015625)"/>
       </defs>
       <use xlink:href="#DejaVuSans-30"/>
      </g>
     </g>
    </g>
    <g id="xtick_2">
     <g id="text_2">
      <!-- 20000 -->
      <g style="fill:#262626;" transform="translate(157.744685 636.076563)scale(0.22 -0.22)">
       <defs>
        <path d="M 1228 531 
L 3431 531 
L 3431 0 
L 469 0 
L 469 531 
Q 828 903 1448 1529 
Q 2069 2156 2228 2338 
Q 2531 2678 2651 2914 
Q 2772 3150 2772 3378 
Q 2772 3750 2511 3984 
Q 2250 4219 1831 4219 
Q 1534 4219 1204 4116 
Q 875 4013 500 3803 
L 500 4441 
Q 881 4594 1212 4672 
Q 1544 4750 1819 4750 
Q 2544 4750 2975 4387 
Q 3406 4025 3406 3419 
Q 3406 3131 3298 2873 
Q 3191 2616 2906 2266 
Q 2828 2175 2409 1742 
Q 1991 1309 1228 531 
z
" id="DejaVuSans-32" transform="scale(0.015625)"/>
       </defs>
       <use xlink:href="#DejaVuSans-32"/>
       <use x="63.623047" xlink:href="#DejaVuSans-30"/>
       <use x="127.246094" xlink:href="#DejaVuSans-30"/>
       <use x="190.869141" xlink:href="#DejaVuSans-30"/>
       <use x="254.492188" xlink:href="#DejaVuSans-30"/>
      </g>
     </g>
    </g>
    <g id="xtick_3">
     <g id="text_3">
      <!-- 40000 -->
      <g style="fill:#262626;" transform="translate(243.843961 636.076563)scale(0.22 -0.22)">
       <defs>
        <path d="M 2419 4116 
L 825 1625 
L 2419 1625 
L 2419 4116 
z
M 2253 4666 
L 3047 4666 
L 3047 1625 
L 3713 1625 
L 3713 1100 
L 3047 1100 
L 3047 0 
L 2419 0 
L 2419 1100 
L 313 1100 
L 313 1709 
L 2253 4666 
z
" id="DejaVuSans-34" transform="scale(0.015625)"/>
       </defs>
       <use xlink:href="#DejaVuSans-34"/>
       <use x="63.623047" xlink:href="#DejaVuSans-30"/>
       <use x="127.246094" xlink:href="#DejaVuSans-30"/>
       <use x="190.869141" xlink:href="#DejaVuSans-30"/>
       <use x="254.492188" xlink:href="#DejaVuSans-30"/>
      </g>
     </g>
    </g>
    <g id="xtick_4">
     <g id="text_4">
      <!-- 60000 -->
      <g style="fill:#262626;" transform="translate(329.943237 636.076563)scale(0.22 -0.22)">
       <defs>
        <path d="M 2113 2584 
Q 1688 2584 1439 2293 
Q 1191 2003 1191 1497 
Q 1191 994 1439 701 
Q 1688 409 2113 409 
Q 2538 409 2786 701 
Q 3034 994 3034 1497 
Q 3034 2003 2786 2293 
Q 2538 2584 2113 2584 
z
M 3366 4563 
L 3366 3988 
Q 3128 4100 2886 4159 
Q 2644 4219 2406 4219 
Q 1781 4219 1451 3797 
Q 1122 3375 1075 2522 
Q 1259 2794 1537 2939 
Q 1816 3084 2150 3084 
Q 2853 3084 3261 2657 
Q 3669 2231 3669 1497 
Q 3669 778 3244 343 
Q 2819 -91 2113 -91 
Q 1303 -91 875 529 
Q 447 1150 447 2328 
Q 447 3434 972 4092 
Q 1497 4750 2381 4750 
Q 2619 4750 2861 4703 
Q 3103 4656 3366 4563 
z
" id="DejaVuSans-36" transform="scale(0.015625)"/>
       </defs>
       <use xlink:href="#DejaVuSans-36"/>
       <use x="63.623047" xlink:href="#DejaVuSans-30"/>
       <use x="127.246094" xlink:href="#DejaVuSans-30"/>
       <use x="190.869141" xlink:href="#DejaVuSans-30"/>
       <use x="254.492188" xlink:href="#DejaVuSans-30"/>
      </g>
     </g>
    </g>
    <g id="xtick_5">
     <g id="text_5">
      <!-- 80000 -->
      <g style="fill:#262626;" transform="translate(416.042513 636.076563)scale(0.22 -0.22)">
       <defs>
        <path d="M 2034 2216 
Q 1584 2216 1326 1975 
Q 1069 1734 1069 1313 
Q 1069 891 1326 650 
Q 1584 409 2034 409 
Q 2484 409 2743 651 
Q 3003 894 3003 1313 
Q 3003 1734 2745 1975 
Q 2488 2216 2034 2216 
z
M 1403 2484 
Q 997 2584 770 2862 
Q 544 3141 544 3541 
Q 544 4100 942 4425 
Q 1341 4750 2034 4750 
Q 2731 4750 3128 4425 
Q 3525 4100 3525 3541 
Q 3525 3141 3298 2862 
Q 3072 2584 2669 2484 
Q 3125 2378 3379 2068 
Q 3634 1759 3634 1313 
Q 3634 634 3220 271 
Q 2806 -91 2034 -91 
Q 1263 -91 848 271 
Q 434 634 434 1313 
Q 434 1759 690 2068 
Q 947 2378 1403 2484 
z
M 1172 3481 
Q 1172 3119 1398 2916 
Q 1625 2713 2034 2713 
Q 2441 2713 2670 2916 
Q 2900 3119 2900 3481 
Q 2900 3844 2670 4047 
Q 2441 4250 2034 4250 
Q 1625 4250 1398 4047 
Q 1172 3844 1172 3481 
z
" id="DejaVuSans-38" transform="scale(0.015625)"/>
       </defs>
       <use xlink:href="#DejaVuSans-38"/>
       <use x="63.623047" xlink:href="#DejaVuSans-30"/>
       <use x="127.246094" xlink:href="#DejaVuSans-30"/>
       <use x="190.869141" xlink:href="#DejaVuSans-30"/>
       <use x="254.492188" xlink:href="#DejaVuSans-30"/>
      </g>
     </g>
    </g>
    <g id="xtick_6">
     <g id="text_6">
      <!-- 100000 -->
      <g style="fill:#262626;" transform="translate(495.143038 636.076563)scale(0.22 -0.22)">
       <defs>
        <path d="M 794 531 
L 1825 531 
L 1825 4091 
L 703 3866 
L 703 4441 
L 1819 4666 
L 2450 4666 
L 2450 531 
L 3481 531 
L 3481 0 
L 794 0 
L 794 531 
z
" id="DejaVuSans-31" transform="scale(0.015625)"/>
       </defs>
       <use xlink:href="#DejaVuSans-31"/>
       <use x="63.623047" xlink:href="#DejaVuSans-30"/>
       <use x="127.246094" xlink:href="#DejaVuSans-30"/>
       <use x="190.869141" xlink:href="#DejaVuSans-30"/>
       <use x="254.492188" xlink:href="#DejaVuSans-30"/>
       <use x="318.115234" xlink:href="#DejaVuSans-30"/>
      </g>
     </g>
    </g>
    <g id="text_7">
     <!-- MDTU -->
     <g style="fill:#262626;" transform="translate(290.596464 662.888125)scale(0.24 -0.24)">
      <defs>
       <path d="M 628 4666 
L 1569 4666 
L 2759 1491 
L 3956 4666 
L 4897 4666 
L 4897 0 
L 4281 0 
L 4281 4097 
L 3078 897 
L 2444 897 
L 1241 4097 
L 1241 0 
L 628 0 
L 628 4666 
z
" id="DejaVuSans-4d" transform="scale(0.015625)"/>
       <path d="M 1259 4147 
L 1259 519 
L 2022 519 
Q 2988 519 3436 956 
Q 3884 1394 3884 2338 
Q 3884 3275 3436 3711 
Q 2988 4147 2022 4147 
L 1259 4147 
z
M 628 4666 
L 1925 4666 
Q 3281 4666 3915 4102 
Q 4550 3538 4550 2338 
Q 4550 1131 3912 565 
Q 3275 0 1925 0 
L 628 0 
L 628 4666 
z
" id="DejaVuSans-44" transform="scale(0.015625)"/>
       <path d="M -19 4666 
L 3928 4666 
L 3928 4134 
L 2272 4134 
L 2272 0 
L 1638 0 
L 1638 4134 
L -19 4134 
L -19 4666 
z
" id="DejaVuSans-54" transform="scale(0.015625)"/>
       <path d="M 556 4666 
L 1191 4666 
L 1191 1831 
Q 1191 1081 1462 751 
Q 1734 422 2344 422 
Q 2950 422 3222 751 
Q 3494 1081 3494 1831 
L 3494 4666 
L 4128 4666 
L 4128 1753 
Q 4128 841 3676 375 
Q 3225 -91 2344 -91 
Q 1459 -91 1007 375 
Q 556 841 556 1753 
L 556 4666 
z
" id="DejaVuSans-55" transform="scale(0.015625)"/>
      </defs>
      <use xlink:href="#DejaVuSans-4d"/>
      <use x="86.279297" xlink:href="#DejaVuSans-44"/>
      <use x="163.28125" xlink:href="#DejaVuSans-54"/>
      <use x="224.365234" xlink:href="#DejaVuSans-55"/>
     </g>
    </g>
   </g>
   <g id="matplotlib.axis_2">
    <g id="ytick_1">
     <g id="text_8">
      <!-- 0.4 -->
      <g style="fill:#262626;" transform="translate(34.4275 541.056126)scale(0.22 -0.22)">
       <defs>
        <path d="M 684 794 
L 1344 794 
L 1344 0 
L 684 0 
L 684 794 
z
" id="DejaVuSans-2e" transform="scale(0.015625)"/>
       </defs>
       <use xlink:href="#DejaVuSans-30"/>
       <use x="63.623047" xlink:href="#DejaVuSans-2e"/>
       <use x="95.410156" xlink:href="#DejaVuSans-34"/>
      </g>
     </g>
    </g>
    <g id="ytick_2">
     <g id="text_9">
      <!-- 0.6 -->
      <g style="fill:#262626;" transform="translate(34.4275 456.521813)scale(0.22 -0.22)">
       <use xlink:href="#DejaVuSans-30"/>
       <use x="63.623047" xlink:href="#DejaVuSans-2e"/>
       <use x="95.410156" xlink:href="#DejaVuSans-36"/>
      </g>
     </g>
    </g>
    <g id="ytick_3">
     <g id="text_10">
      <!-- 0.8 -->
      <g style="fill:#262626;" transform="translate(34.4275 371.987499)scale(0.22 -0.22)">
       <use xlink:href="#DejaVuSans-30"/>
       <use x="63.623047" xlink:href="#DejaVuSans-2e"/>
       <use x="95.410156" xlink:href="#DejaVuSans-38"/>
      </g>
     </g>
    </g>
    <g id="ytick_4">
     <g id="text_11">
      <!-- 1.0 -->
      <g style="fill:#262626;" transform="translate(34.4275 287.453186)scale(0.22 -0.22)">
       <use xlink:href="#DejaVuSans-31"/>
       <use x="63.623047" xlink:href="#DejaVuSans-2e"/>
       <use x="95.410156" xlink:href="#DejaVuSans-30"/>
      </g>
     </g>
    </g>
    <g id="ytick_5">
     <g id="text_12">
      <!-- 1.2 -->
      <g style="fill:#262626;" transform="translate(34.4275 202.918872)scale(0.22 -0.22)">
       <use xlink:href="#DejaVuSans-31"/>
       <use x="63.623047" xlink:href="#DejaVuSans-2e"/>
       <use x="95.410156" xlink:href="#DejaVuSans-32"/>
      </g>
     </g>
    </g>
    <g id="ytick_6">
     <g id="text_13">
      <!-- 1.4 -->
      <g style="fill:#262626;" transform="translate(34.4275 118.384559)scale(0.22 -0.22)">
       <use xlink:href="#DejaVuSans-31"/>
       <use x="63.623047" xlink:href="#DejaVuSans-2e"/>
       <use x="95.410156" xlink:href="#DejaVuSans-34"/>
      </g>
     </g>
    </g>
    <g id="text_14">
     <!-- $E$ -->
     <g style="fill:#262626;" transform="translate(25.43625 364.352286)rotate(-90)scale(0.24 -0.24)">
      <defs>
       <path d="M 1081 4666 
L 4031 4666 
L 3928 4134 
L 1606 4134 
L 1338 2753 
L 3566 2753 
L 3463 2222 
L 1234 2222 
L 909 531 
L 3284 531 
L 3181 0 
L 172 0 
L 1081 4666 
z
" id="DejaVuSans-Oblique-45" transform="scale(0.015625)"/>
      </defs>
      <use transform="translate(0 0.09375)" xlink:href="#DejaVuSans-Oblique-45"/>
     </g>
    </g>
   </g>
   <g id="line2d_1">
    <path clip-path="url(#p12fcecce08)" d="M 106.858713 406.515387 
L 107.078266 390.414894 
L 107.297819 550.502376 
L 107.517372 407.136835 
L 107.736925 499.924258 
L 107.956478 435.026491 
L 108.176032 440.17052 
L 108.395585 475.637438 
L 108.615138 434.92684 
L 108.834691 211.113004 
L 109.054244 425.048765 
L 109.273797 462.51806 
L 109.493351 413.859443 
L 109.712904 468.431336 
L 109.932457 401.859511 
L 110.15201 460.028994 
L 110.371563 459.584537 
L 110.591116 365.57857 
L 110.810669 439.268922 
L 111.030223 450.176479 
L 111.249776 397.084045 
L 111.469329 449.03203 
L 111.688882 463.585207 
L 111.908435 402.186031 
L 112.127988 180.369605 
L 112.347541 427.458823 
L 112.567095 347.517334 
L 112.786648 423.597558 
L 113.006201 335.224221 
L 113.445307 493.688231 
L 113.66486 529.17677 
L 113.884414 459.004307 
L 114.103967 274.206182 
L 114.32352 448.838577 
L 114.543073 419.568589 
L 114.762626 460.227953 
L 114.982179 381.705357 
L 115.421286 465.199463 
L 115.640839 472.71907 
L 115.860392 468.554384 
L 116.079945 430.589841 
L 116.299498 421.105282 
L 116.519051 441.568462 
L 116.958158 345.845918 
L 117.177711 338.464387 
L 117.397264 453.218008 
L 117.616817 492.479275 
L 117.83637 493.363304 
L 118.055923 382.537222 
L 118.275477 345.284762 
L 118.49503 381.198262 
L 118.714583 469.420651 
L 118.934136 352.108805 
L 119.153689 462.618671 
L 119.373242 489.734637 
L 119.592796 382.176189 
L 119.812349 490.993916 
L 120.031902 472.844014 
L 120.251455 380.902974 
L 120.471008 355.186852 
L 120.690561 356.420716 
L 121.129668 509.232189 
L 121.568774 437.812779 
L 122.00788 363.472878 
L 122.446987 531.923774 
L 122.66654 363.575148 
L 122.886093 344.592923 
L 123.105646 422.129216 
L 123.325199 398.496998 
L 123.544752 351.059981 
L 123.764305 445.726788 
L 123.983859 445.121584 
L 124.422965 373.765772 
L 124.642518 414.617083 
L 124.862071 499.715691 
L 125.081624 386.263052 
L 125.301178 131.956182 
L 125.520731 344.801499 
L 125.740284 360.692234 
L 125.959837 459.310677 
L 126.398943 282.721833 
L 126.618496 523.463618 
L 127.057603 354.808065 
L 127.277156 414.82321 
L 127.496709 302.221203 
L 127.935815 487.447166 
L 128.155369 454.479268 
L 128.374922 399.073468 
L 128.594475 432.229724 
L 128.814028 447.383238 
L 129.033581 428.610156 
L 129.253134 194.715247 
L 129.472687 444.821936 
L 129.692241 293.964008 
L 129.911794 401.114148 
L 130.131347 439.758524 
L 130.3509 417.183974 
L 130.570453 469.600857 
L 130.790006 272.342188 
L 131.00956 277.015163 
L 131.229113 484.843726 
L 131.668219 337.456813 
L 131.887772 393.420805 
L 132.107325 420.719828 
L 132.326878 413.208558 
L 132.546432 460.086286 
L 132.765985 253.020966 
L 132.985538 495.772986 
L 133.424644 299.806576 
L 133.863751 473.251748 
L 134.083304 402.086182 
L 134.302857 510.241292 
L 134.52241 469.69509 
L 134.741963 511.275909 
L 134.961516 447.902496 
L 135.181069 308.759192 
L 135.400623 405.804039 
L 135.620176 367.799923 
L 135.839729 384.837534 
L 136.059282 431.623467 
L 136.278835 425.946354 
L 136.498388 471.909795 
L 136.717941 469.13693 
L 137.157048 484.638489 
L 137.376601 313.959316 
L 137.596154 283.078162 
L 137.815707 172.683329 
L 138.254814 449.238035 
L 138.69392 317.602572 
L 138.913473 511.436566 
L 139.133026 534.18152 
L 139.352579 354.570754 
L 139.791686 492.836959 
L 140.011239 450.423556 
L 140.230792 475.843919 
L 140.450345 514.397627 
L 140.889451 374.967362 
L 141.109005 560.358026 
L 141.548111 282.202444 
L 141.767664 456.338421 
L 141.987217 502.55724 
L 142.20677 400.635949 
L 142.645877 416.285639 
L 142.86543 445.204941 
L 143.084983 498.48482 
L 143.524089 352.103841 
L 143.743642 192.872297 
L 143.963196 450.137136 
L 144.182749 385.394991 
L 144.402302 470.238318 
L 144.621855 342.06205 
L 144.841408 473.037543 
L 145.060961 319.786998 
L 145.280514 306.89033 
L 145.500068 393.879531 
L 145.719621 431.687233 
L 145.939174 418.656456 
L 146.158727 443.905166 
L 146.37828 442.005305 
L 146.597833 469.910905 
L 146.817387 426.919352 
L 147.03694 469.807972 
L 147.256493 469.197392 
L 147.476046 381.029895 
L 147.695599 383.822359 
L 147.915152 357.438313 
L 148.134705 424.655788 
L 148.354259 546.626 
L 148.573812 423.321021 
L 148.793365 481.66896 
L 149.012918 473.322296 
L 149.232471 432.907366 
L 149.452024 466.86083 
L 149.891131 411.501053 
L 150.110684 391.464693 
L 150.330237 413.633233 
L 150.54979 475.644717 
L 150.769343 428.851601 
L 150.988896 319.363885 
L 151.20845 286.362373 
L 151.647556 469.550561 
L 151.867109 393.171421 
L 152.086662 401.069358 
L 152.306215 351.822464 
L 152.525769 418.47868 
L 152.745322 429.601518 
L 152.964875 476.040483 
L 153.184428 376.053154 
L 153.623534 335.82362 
L 153.843087 393.941761 
L 154.282194 445.448054 
L 154.501747 442.448898 
L 154.7213 419.026126 
L 154.940853 354.826264 
L 155.160406 462.234325 
L 155.37996 494.855701 
L 155.599513 404.192867 
L 155.819066 478.096701 
L 156.038619 421.249457 
L 156.258172 493.205829 
L 156.477725 391.97344 
L 156.697278 355.9079 
L 157.136385 434.420538 
L 157.355938 451.232817 
L 157.575491 496.967108 
L 157.795044 447.173081 
L 158.014597 430.73655 
L 158.234151 438.253393 
L 158.673257 146.459674 
L 158.89281 271.036294 
L 159.112363 473.617085 
L 159.551469 325.494857 
L 159.771023 299.880402 
L 159.990576 410.80063 
L 160.210129 349.186924 
L 160.429682 508.476904 
L 160.649235 421.042813 
L 160.868788 479.749671 
L 161.307895 262.776334 
L 161.527448 261.281751 
L 161.747001 419.990588 
L 161.966554 472.576132 
L 162.186107 437.524447 
L 162.40566 329.237545 
L 162.625214 412.049121 
L 162.844767 344.843625 
L 163.06432 422.203724 
L 163.283873 333.149273 
L 163.503426 554.896201 
L 163.722979 384.684092 
L 163.942532 487.892593 
L 164.162086 452.444309 
L 164.381639 374.353372 
L 164.601192 412.797856 
L 164.820745 484.57405 
L 165.040298 339.731813 
L 165.259851 475.446079 
L 165.698958 438.540757 
L 165.918511 384.269828 
L 166.138064 366.627279 
L 166.57717 420.200527 
L 166.796723 487.871297 
L 167.016277 403.303659 
L 167.23583 427.424975 
L 167.455383 406.642149 
L 167.674936 477.95854 
L 167.894489 448.995857 
L 168.553149 321.269887 
L 168.992255 461.08366 
L 169.211808 398.468135 
L 169.431361 515.428715 
L 169.650914 409.795327 
L 169.870468 402.179796 
L 170.090021 379.47441 
L 170.529127 467.971722 
L 170.74868 353.4415 
L 170.968233 480.845159 
L 171.187787 388.316319 
L 171.40734 487.778508 
L 171.626893 304.392971 
L 171.846446 466.129161 
L 172.065999 475.805145 
L 172.285552 477.435066 
L 172.505105 276.363967 
L 172.724659 479.864386 
L 172.944212 398.013623 
L 173.383318 433.364517 
L 173.602871 369.643162 
L 173.822424 450.842626 
L 174.041978 442.981394 
L 174.481084 368.27424 
L 174.700637 341.114952 
L 174.92019 479.470238 
L 175.139743 303.69662 
L 175.359296 433.951652 
L 175.57885 412.591681 
L 175.798403 476.751058 
L 176.017956 483.484235 
L 176.237509 408.439968 
L 176.457062 474.097686 
L 176.676615 337.182112 
L 176.896169 290.071955 
L 177.115722 332.180103 
L 177.335275 399.005667 
L 177.554828 514.835734 
L 177.774381 184.210994 
L 177.993934 399.64584 
L 178.213487 359.331598 
L 178.433041 398.611489 
L 178.652594 478.705826 
L 178.872147 300.512832 
L 179.0917 409.510282 
L 179.311253 434.793229 
L 179.530806 477.907952 
L 179.75036 467.650465 
L 179.969913 379.055926 
L 180.189466 444.378169 
L 180.409019 442.245601 
L 180.628572 398.691194 
L 180.848125 496.300154 
L 181.067678 393.151458 
L 181.287232 494.959091 
L 181.506785 420.438841 
L 181.726338 502.142803 
L 181.945891 357.968201 
L 182.165444 327.209362 
L 182.384997 395.890605 
L 182.604551 322.627544 
L 182.824104 440.405245 
L 183.043657 482.471129 
L 183.482763 357.394093 
L 183.702316 445.595684 
L 183.921869 409.946895 
L 184.141423 433.930407 
L 184.580529 380.300106 
L 184.800082 417.906529 
L 185.019635 410.60274 
L 185.239188 436.049944 
L 185.458742 487.361292 
L 185.678295 456.613421 
L 185.897848 489.451232 
L 186.117401 323.113214 
L 186.336954 308.358577 
L 186.556507 262.946315 
L 186.995614 496.812775 
L 187.215167 359.333134 
L 187.43472 367.134539 
L 187.654273 380.420909 
L 188.093379 512.063468 
L 188.532486 382.226023 
L 188.752039 473.314408 
L 188.971592 496.741683 
L 189.191145 467.095449 
L 189.410698 390.698012 
L 189.630251 411.558638 
L 189.849805 514.812016 
L 190.069358 177.549098 
L 190.288911 526.128376 
L 190.508464 489.977605 
L 190.728017 263.436075 
L 190.94757 422.114513 
L 191.167123 352.05667 
L 191.386677 401.521661 
L 191.60623 490.047893 
L 191.825783 371.972905 
L 192.045336 333.065885 
L 192.484442 375.228073 
L 192.703996 508.993027 
L 192.923549 489.511807 
L 193.143102 304.56673 
L 193.362655 497.925692 
L 193.582208 460.964378 
L 193.801761 331.003889 
L 194.021314 431.163982 
L 194.240868 377.114204 
L 194.460421 378.24814 
L 194.899527 525.870021 
L 195.11908 349.727215 
L 195.338633 355.099188 
L 195.558187 402.56905 
L 195.997293 434.460892 
L 196.216846 361.631305 
L 196.436399 372.355612 
L 196.655952 483.386854 
L 196.875505 397.609209 
L 197.095059 384.70555 
L 197.534165 496.441642 
L 197.753718 425.765521 
L 197.973271 464.080966 
L 198.631931 364.820955 
L 198.851484 496.956983 
L 199.29059 276.037413 
L 199.510143 390.365524 
L 199.729696 432.369131 
L 199.94925 439.312971 
L 200.168803 379.743959 
L 200.388356 424.009626 
L 200.607909 397.157451 
L 200.827462 413.452745 
L 201.047015 501.249118 
L 201.266569 385.968884 
L 201.486122 332.753679 
L 201.705675 516.139924 
L 201.925228 398.625595 
L 202.144781 406.986468 
L 202.364334 370.347631 
L 202.583887 402.099914 
L 202.803441 375.482407 
L 203.022994 385.49113 
L 203.4621 504.074534 
L 203.681653 432.829135 
L 203.901206 412.330808 
L 204.12076 441.359038 
L 204.340313 442.963696 
L 204.559866 470.62587 
L 204.779419 339.603767 
L 204.998972 424.694715 
L 205.218525 466.645808 
L 205.438078 406.837164 
L 205.657632 476.315947 
L 206.096738 305.961587 
L 206.535844 499.715436 
L 206.755397 413.838614 
L 206.974951 521.283996 
L 207.194504 510.721307 
L 207.414057 283.867075 
L 207.853163 451.016379 
L 208.072716 311.708712 
L 208.292269 378.86969 
L 208.511823 393.668136 
L 208.950929 438.428565 
L 209.170482 426.409474 
L 209.390035 351.559723 
L 209.609588 441.271404 
L 209.829142 407.784076 
L 210.048695 400.380899 
L 210.268248 278.18061 
L 210.487801 465.714286 
L 210.707354 346.759974 
L 210.926907 367.377375 
L 211.14646 414.454172 
L 211.366014 235.3236 
L 211.585567 518.588442 
L 212.024673 342.525681 
L 212.244226 288.489827 
L 212.463779 428.809535 
L 212.683333 369.97057 
L 212.902886 361.407149 
L 213.122439 481.201074 
L 213.341992 350.606448 
L 213.561545 336.276327 
L 214.000651 484.255162 
L 214.220205 462.31136 
L 214.439758 420.137727 
L 214.659311 465.169872 
L 215.098417 418.271864 
L 215.31797 460.947105 
L 215.537523 416.697443 
L 215.757077 307.447284 
L 215.97663 439.873301 
L 216.196183 469.149916 
L 216.415736 470.86191 
L 216.635289 418.750468 
L 216.854842 481.073903 
L 217.074396 362.53693 
L 217.293949 554.994434 
L 217.513502 458.952007 
L 217.733055 508.339592 
L 218.172161 416.394951 
L 218.391714 462.875059 
L 218.611268 448.619383 
L 218.830821 485.435536 
L 219.050374 300.328155 
L 219.48948 499.753073 
L 219.709033 480.608245 
L 219.928587 516.244977 
L 220.14814 435.618853 
L 220.367693 401.61361 
L 220.587246 426.9067 
L 220.806799 380.820107 
L 221.026352 458.906879 
L 221.245905 451.015533 
L 221.465459 420.732012 
L 221.904565 466.861223 
L 222.124118 394.989557 
L 222.343671 475.890094 
L 222.563224 479.959025 
L 222.782778 450.641251 
L 223.002331 268.263191 
L 223.221884 305.195906 
L 223.441437 251.500216 
L 223.66099 295.479543 
L 223.880543 485.978803 
L 224.100096 370.414515 
L 224.31965 368.595508 
L 224.539203 335.18516 
L 224.758756 364.620775 
L 224.978309 489.869761 
L 225.417415 384.481531 
L 225.636969 365.241588 
L 225.856522 160.738087 
L 226.076075 466.473753 
L 226.295628 392.18234 
L 226.515181 443.415503 
L 226.734734 423.118181 
L 226.954287 581.38839 
L 227.173841 439.055033 
L 227.393394 461.742091 
L 227.612947 435.209934 
L 227.8325 437.6039 
L 228.052053 472.468552 
L 228.271606 424.156142 
L 228.49116 451.701386 
L 228.710713 415.749416 
L 228.930266 409.002823 
L 229.149819 486.80213 
L 229.369372 503.99332 
L 230.028032 355.042006 
L 230.247585 459.898972 
L 230.686691 346.508576 
L 230.906244 487.212573 
L 231.125797 341.572583 
L 231.345351 446.416451 
L 231.564904 408.245923 
L 231.784457 477.781086 
L 232.00401 361.554755 
L 232.223563 487.73083 
L 232.443116 510.196885 
L 232.662669 316.169831 
L 232.882223 457.780351 
L 233.101776 430.985146 
L 233.321329 461.944946 
L 233.540882 447.236745 
L 233.760435 380.040252 
L 233.979988 430.119947 
L 234.419095 358.131781 
L 234.638648 474.153596 
L 234.858201 468.229489 
L 235.077754 481.605508 
L 235.297307 484.841266 
L 235.51686 408.757304 
L 235.736414 399.04431 
L 235.955967 529.851857 
L 236.17552 356.994164 
L 236.395073 409.133807 
L 236.614626 398.140827 
L 236.834179 442.423746 
L 237.053733 440.006914 
L 237.273286 551.814943 
L 237.492839 387.512286 
L 237.931945 482.167832 
L 238.151498 273.022345 
L 238.371051 436.189915 
L 238.590605 455.366327 
L 239.029711 325.908162 
L 239.249264 487.610479 
L 239.68837 390.511516 
L 239.907924 485.109792 
L 240.127477 406.545776 
L 240.34703 413.995853 
L 240.566583 393.915013 
L 241.005689 506.683261 
L 241.225242 499.683733 
L 241.444796 354.458395 
L 241.883902 468.308841 
L 242.103455 348.862299 
L 242.323008 438.620928 
L 242.542561 454.354761 
L 242.762114 208.709115 
L 242.981668 446.615375 
L 243.201221 503.645306 
L 243.420774 432.772937 
L 243.640327 402.456455 
L 243.85988 430.978018 
L 244.079433 369.070454 
L 244.298987 454.739595 
L 244.957646 379.759939 
L 245.177199 436.466603 
L 245.396752 533.73294 
L 245.616305 418.353661 
L 245.835859 511.33821 
L 246.055412 355.462009 
L 246.274965 403.980177 
L 246.494518 297.084961 
L 246.714071 422.09235 
L 246.933624 328.873866 
L 247.153178 403.788996 
L 247.372731 373.726356 
L 247.592284 461.317975 
L 247.811837 310.79243 
L 248.03139 492.360818 
L 248.250943 469.279863 
L 248.470496 385.057657 
L 248.69005 448.95065 
L 248.909603 385.839625 
L 249.129156 447.164902 
L 249.348709 473.633985 
L 249.568262 426.690291 
L 249.787815 514.933741 
L 250.007369 472.848614 
L 250.226922 486.71546 
L 250.446475 371.073066 
L 250.885581 501.274343 
L 251.105134 430.752013 
L 251.324687 522.686875 
L 251.544241 460.778448 
L 251.983347 312.733915 
L 252.2029 377.943116 
L 252.422453 353.385827 
L 252.642006 346.214577 
L 252.86156 541.872736 
L 253.081113 499.463729 
L 253.300666 350.082354 
L 253.520219 411.463334 
L 253.739772 328.349233 
L 253.959325 473.304995 
L 254.178878 344.567902 
L 254.398432 329.207802 
L 254.617985 360.33471 
L 254.837538 358.673868 
L 255.057091 418.693534 
L 255.276644 412.51149 
L 255.496197 472.224384 
L 255.715751 347.947984 
L 255.935304 317.253684 
L 256.37441 496.818934 
L 256.593963 327.946877 
L 256.813516 328.070897 
L 257.033069 353.937384 
L 257.472176 465.352497 
L 257.691729 373.077059 
L 257.911282 468.078477 
L 258.130835 439.932232 
L 258.350388 454.07491 
L 258.789495 383.391875 
L 259.009048 355.239286 
L 259.228601 479.762829 
L 259.448154 405.284306 
L 259.667707 485.526698 
L 259.88726 477.822837 
L 260.106814 425.107699 
L 260.326367 343.165358 
L 260.54592 470.670829 
L 260.765473 352.373903 
L 260.985026 426.193995 
L 261.424133 384.068273 
L 261.643686 496.421371 
L 261.863239 471.824078 
L 262.082792 342.304782 
L 262.521898 498.056664 
L 262.741451 444.38024 
L 262.961005 425.501556 
L 263.180558 388.287691 
L 263.400111 431.497801 
L 263.619664 385.495182 
L 263.839217 453.310988 
L 264.05877 424.898968 
L 264.278324 465.236448 
L 264.497877 479.409174 
L 264.71743 440.031123 
L 264.936983 318.463061 
L 265.156536 448.064466 
L 265.376089 488.912829 
L 265.595642 356.635028 
L 265.815196 467.17277 
L 266.034749 383.389336 
L 266.254302 476.129388 
L 266.473855 464.320477 
L 266.693408 522.96039 
L 266.912961 380.089251 
L 267.132514 401.728698 
L 267.352068 406.477938 
L 267.571621 484.417737 
L 267.791174 470.593826 
L 268.010727 474.113664 
L 268.449833 276.883085 
L 268.669387 418.478476 
L 268.88894 338.234312 
L 269.108493 433.259464 
L 269.328046 383.117621 
L 269.547599 494.540292 
L 269.767152 388.786069 
L 269.986705 374.858265 
L 270.206259 288.890649 
L 270.425812 417.163408 
L 270.645365 389.572526 
L 270.864918 261.332203 
L 271.084471 520.404158 
L 271.304024 432.53744 
L 271.523578 434.246147 
L 271.743131 408.855995 
L 272.182237 471.94276 
L 272.40179 444.366638 
L 272.621343 439.071406 
L 272.840896 422.511023 
L 273.06045 507.25545 
L 273.499556 341.84764 
L 273.719109 439.478597 
L 273.938662 351.652404 
L 274.158215 462.7938 
L 274.377769 437.517088 
L 274.597322 490.279643 
L 274.816875 292.584557 
L 275.036428 490.540521 
L 275.475534 367.477935 
L 275.914641 505.352706 
L 276.134194 357.535886 
L 276.792853 538.501508 
L 277.012406 302.766702 
L 277.23196 301.810905 
L 277.451513 400.463516 
L 277.671066 309.268376 
L 277.890619 285.524868 
L 278.110172 405.00474 
L 278.329725 433.477656 
L 278.549278 410.931869 
L 278.768832 414.557635 
L 278.988385 384.487031 
L 279.207938 438.068749 
L 279.427491 406.425492 
L 279.647044 418.613821 
L 279.866597 397.256533 
L 280.086151 497.148527 
L 280.305704 355.183557 
L 280.525257 361.248805 
L 280.74481 289.453359 
L 281.183916 499.261421 
L 281.403469 408.33273 
L 281.623023 473.184287 
L 281.842576 486.923582 
L 282.062129 423.506161 
L 282.281682 424.291975 
L 282.720788 325.355943 
L 282.940342 309.206771 
L 283.379448 544.53308 
L 283.599001 377.139344 
L 283.818554 451.880215 
L 284.038107 387.123752 
L 284.25766 480.250589 
L 284.477214 370.919461 
L 284.696767 481.689373 
L 285.135873 303.06932 
L 285.574979 507.608255 
L 285.794533 413.732079 
L 286.014086 409.783165 
L 286.233639 397.960551 
L 286.453192 399.459174 
L 286.672745 396.290883 
L 286.892298 411.755108 
L 287.111851 358.768583 
L 287.331405 423.118565 
L 287.770511 460.734897 
L 287.990064 344.144669 
L 288.42917 478.27875 
L 288.648724 455.025028 
L 288.868277 468.504543 
L 289.08783 432.956755 
L 289.307383 443.15518 
L 289.526936 406.278942 
L 289.746489 340.241117 
L 289.966042 535.336157 
L 290.185596 323.605898 
L 290.405149 415.662916 
L 290.844255 489.359024 
L 291.063808 455.723468 
L 291.283361 493.594974 
L 291.502915 256.761484 
L 291.722468 501.737365 
L 292.161574 390.812963 
L 292.381127 488.543418 
L 292.60068 410.249943 
L 292.820233 373.718612 
L 293.039787 444.675591 
L 293.25934 431.757639 
L 293.478893 408.443227 
L 293.917999 296.46228 
L 294.137552 384.266468 
L 294.357105 363.811937 
L 294.576659 482.536971 
L 294.796212 356.581416 
L 295.015765 482.725692 
L 295.235318 368.61527 
L 295.454871 434.251072 
L 295.674424 444.300136 
L 295.893978 334.350264 
L 296.113531 368.929709 
L 296.333084 484.569189 
L 296.552637 481.164473 
L 296.77219 285.434131 
L 296.991743 508.078727 
L 297.211296 393.558141 
L 297.43085 366.966833 
L 297.650403 456.124767 
L 297.869956 212.73876 
L 298.089509 456.475256 
L 298.309062 451.605387 
L 298.528615 359.311992 
L 298.748169 478.769903 
L 298.967722 316.864833 
L 299.187275 464.229771 
L 299.406828 408.445763 
L 299.626381 450.764502 
L 299.845934 404.792529 
L 300.065487 386.112385 
L 300.285041 513.520608 
L 300.504594 437.203109 
L 300.9437 387.042116 
L 301.163253 339.845934 
L 301.382806 320.733819 
L 301.60236 445.127147 
L 301.821913 440.952483 
L 302.041466 400.272085 
L 302.480572 436.679916 
L 302.700125 447.325314 
L 302.919678 334.874802 
L 303.139232 484.834299 
L 303.358785 403.931831 
L 303.578338 502.302345 
L 304.017444 387.895584 
L 304.236997 396.296853 
L 304.456551 335.003989 
L 304.676104 393.463793 
L 304.895657 339.308391 
L 305.334763 440.472676 
L 305.554316 396.682608 
L 305.773869 516.322198 
L 305.993423 501.2468 
L 306.212976 431.896853 
L 306.432529 479.121968 
L 306.652082 492.896482 
L 306.871635 324.960039 
L 307.091188 503.77253 
L 307.310742 510.660371 
L 307.530295 264.089446 
L 307.749848 490.997747 
L 307.969401 472.975314 
L 308.188954 376.486727 
L 308.408507 422.188841 
L 308.62806 337.092634 
L 308.847614 407.759564 
L 309.067167 285.09074 
L 309.506273 434.271341 
L 309.725826 207.85194 
L 309.945379 527.024979 
L 310.384486 281.656391 
L 310.604039 454.684683 
L 310.823592 466.429862 
L 311.043145 353.767587 
L 311.262698 427.415759 
L 311.482251 447.657406 
L 311.701805 383.423993 
L 311.921358 506.235306 
L 312.140911 373.943754 
L 312.360464 447.626394 
L 312.580017 371.937401 
L 312.79957 395.165314 
L 313.019124 400.63761 
L 313.238677 389.470163 
L 313.45823 260.286869 
L 313.677783 443.832791 
L 313.897336 358.720398 
L 314.116889 458.784083 
L 314.555996 388.029057 
L 314.995102 464.580964 
L 315.214655 302.566443 
L 315.434208 388.612922 
L 315.653761 419.308291 
L 315.873315 469.696612 
L 316.092868 393.905267 
L 316.312421 364.487939 
L 316.531974 406.566026 
L 316.751527 391.414339 
L 317.190633 443.808796 
L 317.410187 404.325312 
L 317.62974 489.456151 
L 317.849293 473.421105 
L 318.068846 421.841945 
L 318.288399 495.17707 
L 318.507952 252.604044 
L 318.727506 251.594767 
L 318.947059 500.046318 
L 319.166612 437.597583 
L 319.386165 443.725944 
L 319.605718 403.798633 
L 319.825271 401.155447 
L 320.044824 454.335459 
L 320.264378 430.609471 
L 320.703484 459.787197 
L 320.923037 387.14654 
L 321.14259 500.702571 
L 321.362143 407.234685 
L 321.581696 414.581033 
L 321.80125 395.602025 
L 322.020803 390.269055 
L 322.240356 402.539729 
L 322.459909 489.698384 
L 322.679462 360.641193 
L 323.118569 556.754494 
L 323.338122 415.689125 
L 323.557675 378.421988 
L 323.777228 248.304582 
L 323.996781 422.114638 
L 324.216334 505.387125 
L 324.435887 322.963005 
L 324.655441 456.490649 
L 324.874994 430.423026 
L 325.094547 390.40529 
L 325.3141 508.528187 
L 325.533653 454.348532 
L 325.753206 468.413652 
L 325.97276 445.683818 
L 326.411866 261.089591 
L 326.631419 493.043211 
L 326.850972 400.974063 
L 327.070525 458.619752 
L 327.290078 351.513851 
L 327.509632 435.556255 
L 327.729185 401.763588 
L 327.948738 398.78622 
L 328.168291 477.084795 
L 328.607397 386.346394 
L 328.826951 417.02322 
L 329.046504 488.582965 
L 329.48561 373.771784 
L 329.705163 382.906235 
L 329.924716 366.658468 
L 330.144269 410.368784 
L 330.363823 322.875907 
L 330.583376 450.789804 
L 330.802929 311.642444 
L 331.022482 451.740583 
L 331.242035 301.353897 
L 331.461588 280.221217 
L 331.681142 375.485663 
L 331.900695 252.469953 
L 332.339801 377.339429 
L 332.559354 510.668254 
L 332.778907 261.542295 
L 333.218014 487.341083 
L 333.65712 336.852514 
L 333.876673 465.546863 
L 334.096226 426.389547 
L 334.315779 424.431734 
L 334.535333 332.575367 
L 334.754886 447.167051 
L 334.974439 462.250498 
L 335.193992 398.615 
L 335.413545 504.159613 
L 335.633098 396.678009 
L 335.852651 491.276662 
L 336.072205 321.568479 
L 336.291758 412.690517 
L 336.511311 389.310982 
L 336.730864 382.480698 
L 336.950417 383.502354 
L 337.16997 368.772701 
L 337.389524 434.299946 
L 337.609077 428.568873 
L 337.82863 389.358012 
L 338.048183 457.268795 
L 338.267736 428.393466 
L 338.487289 315.256533 
L 338.706842 446.962566 
L 338.926396 435.756217 
L 339.145949 445.428065 
L 339.365502 423.513432 
L 339.585055 379.10134 
L 339.804608 382.662372 
L 340.024161 519.225238 
L 340.463268 364.239939 
L 340.682821 469.425914 
L 340.902374 467.426891 
L 341.121927 453.544256 
L 341.34148 297.330284 
L 341.561033 366.772265 
L 341.780587 497.302623 
L 342.00014 378.959192 
L 342.219693 488.036812 
L 342.439246 469.686973 
L 342.658799 491.618423 
L 343.097906 354.363954 
L 343.317459 377.703191 
L 343.537012 332.701346 
L 343.756565 457.222814 
L 343.976118 191.18455 
L 344.195671 479.622165 
L 344.415224 460.160048 
L 344.634778 379.805451 
L 344.854331 377.876252 
L 345.073884 418.802412 
L 345.293437 514.302509 
L 345.51299 276.956583 
L 345.732543 448.756187 
L 345.952096 435.801052 
L 346.17165 455.10901 
L 346.391203 457.514554 
L 346.610756 194.858257 
L 346.830309 371.982788 
L 347.049862 345.999299 
L 347.269415 452.183082 
L 347.488969 383.336698 
L 347.928075 498.02376 
L 348.367181 232.403509 
L 348.586734 471.342048 
L 348.806287 316.522264 
L 349.025841 379.656609 
L 349.245394 348.51863 
L 349.464947 341.668362 
L 349.6845 408.836738 
L 349.904053 240.574653 
L 350.34316 343.66922 
L 350.562713 409.14475 
L 350.782266 414.845831 
L 351.001819 472.467896 
L 351.221372 460.344882 
L 351.440925 351.552269 
L 351.660478 485.733578 
L 351.880032 379.613895 
L 352.099585 392.226363 
L 352.319138 365.861949 
L 352.538691 423.538119 
L 352.758244 373.296368 
L 352.977797 488.068736 
L 353.197351 512.367842 
L 353.416904 394.202394 
L 353.636457 464.271897 
L 353.85601 405.308076 
L 354.075563 417.496409 
L 354.295116 531.92925 
L 354.514669 499.520466 
L 354.734223 397.980789 
L 354.953776 425.659517 
L 355.173329 424.561293 
L 355.392882 379.829264 
L 355.612435 415.770235 
L 355.831988 416.28565 
L 356.051542 325.261823 
L 356.271095 403.412741 
L 356.710201 424.308895 
L 357.149307 356.93002 
L 357.36886 450.765493 
L 357.588414 439.171049 
L 357.807967 482.568206 
L 358.02752 443.126727 
L 358.247073 383.064008 
L 358.466626 369.854825 
L 358.686179 389.112253 
L 358.905733 274.888031 
L 359.125286 396.327853 
L 359.344839 312.358081 
L 359.564392 334.473972 
L 359.783945 408.15922 
L 360.003498 360.388371 
L 360.223051 472.769186 
L 360.442605 484.536211 
L 360.662158 434.92739 
L 360.881711 339.166571 
L 361.101264 372.707877 
L 361.320817 287.414705 
L 361.979477 452.012467 
L 362.19903 398.470403 
L 362.418583 402.934883 
L 362.638136 390.806458 
L 362.857689 429.253761 
L 363.077242 442.7089 
L 363.296796 376.661329 
L 363.516349 505.308904 
L 363.735902 448.892234 
L 363.955455 338.188348 
L 364.175008 477.57571 
L 364.394561 301.464034 
L 364.614115 440.952536 
L 364.833668 483.673948 
L 365.053221 408.846256 
L 365.272774 468.021622 
L 365.492327 403.13627 
L 365.71188 409.494259 
L 365.931433 392.981557 
L 366.150987 520.91479 
L 366.37054 307.575923 
L 366.809646 490.684196 
L 367.029199 367.050097 
L 367.248752 318.428494 
L 367.468306 434.866537 
L 367.907412 412.152777 
L 368.126965 424.669935 
L 368.346518 456.201103 
L 368.566071 383.899162 
L 368.785624 378.993419 
L 369.005178 422.761933 
L 369.224731 316.75109 
L 369.444284 395.890754 
L 369.663837 332.088842 
L 369.88339 462.511894 
L 370.102943 520.895842 
L 370.322497 405.158691 
L 370.761603 434.623153 
L 370.981156 343.749056 
L 371.200709 413.292175 
L 371.420262 397.324512 
L 371.639815 458.45824 
L 371.859369 457.290249 
L 372.078922 484.76602 
L 372.298475 309.47692 
L 372.518028 410.139585 
L 372.737581 371.87493 
L 372.957134 366.586089 
L 373.176687 483.625671 
L 373.396241 362.761993 
L 373.615794 432.474454 
L 373.835347 439.145339 
L 374.0549 371.711924 
L 374.494006 511.248489 
L 374.71356 450.796345 
L 374.933113 468.00073 
L 375.372219 315.420832 
L 375.591772 307.699294 
L 375.811325 454.334779 
L 376.250432 377.158816 
L 376.469985 487.131744 
L 376.689538 325.411757 
L 376.909091 402.857104 
L 377.128644 376.086267 
L 377.348197 480.101875 
L 377.567751 474.07492 
L 377.787304 312.59198 
L 378.006857 435.084258 
L 378.22641 414.188479 
L 378.445963 470.544118 
L 378.665516 457.006365 
L 378.885069 382.070261 
L 379.104623 507.119521 
L 379.324176 351.426838 
L 379.543729 375.240534 
L 379.763282 504.292332 
L 380.421942 393.518373 
L 380.641495 475.483364 
L 380.861048 338.369617 
L 381.080601 517.714252 
L 381.300154 458.612079 
L 381.519707 527.381451 
L 381.958814 300.964045 
L 382.178367 281.433871 
L 382.39792 489.592986 
L 382.617473 395.056422 
L 382.837026 542.733552 
L 383.276133 322.371227 
L 383.715239 452.008542 
L 383.934792 409.922021 
L 384.154345 397.481095 
L 384.373898 402.191218 
L 384.593451 431.372052 
L 384.813005 372.661135 
L 385.032558 465.907499 
L 385.471664 379.353812 
L 385.691217 464.822563 
L 385.91077 418.711122 
L 386.130324 429.095814 
L 386.349877 395.778728 
L 386.56943 329.710024 
L 386.788983 422.391713 
L 387.008536 456.436119 
L 387.228089 320.959208 
L 387.447642 317.870796 
L 387.667196 460.652593 
L 387.886749 351.847491 
L 388.106302 443.396999 
L 388.325855 378.976688 
L 388.764961 363.793771 
L 388.984515 451.892303 
L 389.204068 368.301926 
L 389.423621 338.941799 
L 389.643174 195.691993 
L 389.862727 491.038798 
L 390.08228 463.649648 
L 390.301833 452.369933 
L 390.521387 323.194561 
L 390.74094 285.518958 
L 390.960493 366.162626 
L 391.180046 530.75316 
L 391.399599 285.547855 
L 391.619152 445.715557 
L 391.838706 391.057969 
L 392.058259 467.982353 
L 392.277812 486.073223 
L 392.497365 411.071323 
L 392.716918 428.325418 
L 393.156024 532.940636 
L 393.595131 349.715145 
L 393.814684 374.333897 
L 394.034237 534.930645 
L 394.473343 389.983765 
L 394.692897 381.24183 
L 394.91245 237.505385 
L 395.132003 503.824795 
L 395.351556 439.568977 
L 395.571109 448.320135 
L 395.790662 403.599033 
L 396.010215 466.658498 
L 396.229769 381.926511 
L 396.449322 385.705055 
L 396.668875 461.188862 
L 396.888428 464.969856 
L 397.107981 363.972337 
L 397.327534 483.712383 
L 397.547087 509.292306 
L 397.766641 390.935552 
L 397.986194 392.057316 
L 398.205747 337.380533 
L 398.4253 327.701485 
L 398.644853 499.552339 
L 398.864406 434.025628 
L 399.08396 431.981521 
L 399.303513 404.621809 
L 399.523066 393.063869 
L 399.742619 440.28537 
L 399.962172 423.648793 
L 400.181725 398.52851 
L 400.401278 420.404074 
L 400.620832 365.366801 
L 400.840385 376.016636 
L 401.059938 369.592919 
L 401.279491 383.454174 
L 401.499044 432.517355 
L 401.718597 436.357915 
L 401.938151 398.571462 
L 402.157704 297.2398 
L 402.377257 390.617656 
L 402.59681 395.035196 
L 402.816363 392.377456 
L 403.035916 458.454608 
L 403.255469 456.812813 
L 403.475023 502.730101 
L 403.694576 360.852881 
L 403.914129 415.573851 
L 404.133682 413.662796 
L 404.353235 483.2445 
L 404.572788 343.017694 
L 404.792342 408.527181 
L 405.011895 282.433074 
L 405.231448 405.45938 
L 405.451001 458.270945 
L 405.670554 431.181873 
L 405.890107 454.348865 
L 406.10966 340.171638 
L 406.329214 471.741385 
L 406.548767 503.820342 
L 406.76832 466.105243 
L 406.987873 290.621854 
L 407.207426 453.499791 
L 407.426979 238.018458 
L 407.646533 410.208511 
L 407.866086 403.589244 
L 408.085639 385.184346 
L 408.524745 477.078487 
L 408.744298 272.117897 
L 409.183405 419.878126 
L 409.402958 365.432096 
L 409.622511 523.876841 
L 409.842064 464.369411 
L 410.061617 482.200065 
L 410.28117 248.919289 
L 410.500724 330.626475 
L 410.720277 291.089714 
L 410.93983 335.039554 
L 411.159383 468.927208 
L 411.378936 231.444576 
L 411.818042 485.948346 
L 412.037596 448.83048 
L 412.257149 364.920872 
L 412.476702 479.523913 
L 412.696255 438.623204 
L 412.915808 480.118511 
L 413.135361 283.25563 
L 413.354915 455.222912 
L 413.574468 330.731216 
L 413.794021 537.95931 
L 414.013574 363.329958 
L 414.233127 488.053405 
L 414.45268 441.252346 
L 414.672233 317.278183 
L 414.891787 451.117537 
L 415.330893 280.264988 
L 415.550446 270.507292 
L 415.769999 412.68795 
L 416.209106 476.145836 
L 416.428659 468.553236 
L 416.648212 465.058294 
L 416.867765 368.224947 
L 417.087318 328.08748 
L 417.306871 357.41699 
L 417.526424 505.681678 
L 417.745978 393.047688 
L 417.965531 455.073324 
L 418.185084 469.572757 
L 418.404637 320.021485 
L 418.843743 499.114179 
L 419.063297 418.946154 
L 419.28285 379.700225 
L 419.502403 488.750813 
L 419.721956 456.270866 
L 419.941509 384.911558 
L 420.161062 437.071122 
L 420.380615 309.635278 
L 420.600169 335.40879 
L 420.819722 382.070232 
L 421.039275 369.745875 
L 421.258828 504.277984 
L 421.478381 368.184246 
L 421.697934 528.988916 
L 421.917488 470.664319 
L 422.137041 484.339896 
L 422.356594 364.324011 
L 422.576147 476.143829 
L 422.7957 373.51062 
L 423.015253 509.360766 
L 423.234806 439.327686 
L 423.45436 407.08951 
L 423.673913 466.569136 
L 423.893466 397.048407 
L 424.113019 467.772801 
L 424.332572 381.935451 
L 424.552125 435.555582 
L 424.771678 211.866455 
L 424.991232 394.52806 
L 425.430338 471.329183 
L 425.649891 472.766492 
L 425.869444 438.46325 
L 426.088997 506.679539 
L 426.308551 513.013864 
L 426.528104 342.509582 
L 426.747657 427.025965 
L 426.96721 366.433978 
L 427.186763 352.887357 
L 427.406316 462.382409 
L 427.625869 322.372265 
L 428.064976 438.259794 
L 428.284529 510.493707 
L 428.504082 382.938862 
L 428.723635 459.266827 
L 428.943188 430.515775 
L 429.162742 428.193171 
L 429.382295 454.97323 
L 429.821401 391.976799 
L 430.040954 545.149273 
L 430.260507 479.858809 
L 430.48006 465.602313 
L 430.699614 504.466366 
L 430.919167 469.263612 
L 431.13872 503.168928 
L 431.577826 475.38887 
L 431.797379 378.370743 
L 432.016933 408.592194 
L 432.236486 418.229645 
L 432.456039 252.591589 
L 432.675592 397.252866 
L 433.114698 510.106008 
L 433.334251 384.434078 
L 433.773358 325.569732 
L 433.992911 506.903515 
L 434.212464 372.618086 
L 434.432017 430.924047 
L 434.65157 449.792214 
L 434.871124 347.772157 
L 435.090677 458.409129 
L 435.31023 470.085662 
L 435.529783 346.694562 
L 435.968889 477.600774 
L 436.188442 429.803212 
L 436.407996 485.431697 
L 436.627549 441.725663 
L 436.847102 532.95405 
L 437.066655 296.249242 
L 437.286208 480.963496 
L 437.725315 402.568388 
L 437.944868 477.901051 
L 438.164421 415.275116 
L 438.383974 434.973226 
L 438.603527 510.753907 
L 438.82308 440.496257 
L 439.042633 479.163029 
L 439.262187 366.694165 
L 439.48174 573.998572 
L 439.701293 424.999438 
L 439.920846 440.700059 
L 440.140399 266.01526 
L 440.359952 304.098897 
L 440.579506 399.385971 
L 440.799059 410.700384 
L 441.018612 460.31992 
L 441.238165 369.561763 
L 441.457718 421.469814 
L 441.677271 378.411437 
L 441.896824 301.722635 
L 442.116378 485.403085 
L 442.335931 471.413722 
L 442.555484 391.717869 
L 442.775037 382.935315 
L 443.214143 448.843825 
L 443.433697 526.655184 
L 443.872803 406.980254 
L 444.092356 453.333899 
L 444.311909 471.340786 
L 444.751015 409.156503 
L 444.970569 434.44227 
L 445.190122 423.159442 
L 445.409675 328.741693 
L 445.629228 434.24015 
L 445.848781 439.527115 
L 446.068334 429.761799 
L 446.287888 335.821825 
L 446.507441 447.068922 
L 446.726994 428.204812 
L 446.946547 268.206124 
L 447.1661 398.938319 
L 447.385653 261.885255 
L 447.605206 361.503532 
L 447.82476 336.788369 
L 448.044313 352.537428 
L 448.263866 385.953534 
L 448.702972 520.355856 
L 448.922525 510.077623 
L 449.581185 357.088195 
L 450.020291 436.946047 
L 450.239844 422.02044 
L 450.459397 461.017677 
L 450.898504 352.000487 
L 451.118057 497.375285 
L 451.33761 425.738996 
L 451.557163 250.043151 
L 451.776716 420.72817 
L 451.996269 495.306253 
L 452.215823 370.038356 
L 452.435376 441.628555 
L 452.654929 348.112903 
L 452.874482 368.379864 
L 453.094035 336.352854 
L 453.313588 466.226864 
L 453.533142 454.158917 
L 453.752695 263.710992 
L 453.972248 310.064561 
L 454.191801 389.82989 
L 454.411354 353.855398 
L 454.630907 468.254995 
L 454.85046 514.176763 
L 455.070014 351.855651 
L 455.289567 471.506714 
L 455.50912 431.913121 
L 455.728673 447.75311 
L 456.167779 376.737654 
L 456.387333 443.690581 
L 456.606886 386.240774 
L 456.826439 395.9988 
L 457.045992 366.904054 
L 457.265545 441.224525 
L 457.485098 471.420062 
L 457.924205 374.949857 
L 458.143758 468.864657 
L 458.582864 404.116836 
L 458.802417 473.12563 
L 459.02197 342.341736 
L 459.241524 510.242108 
L 459.461077 350.856256 
L 459.68063 312.301328 
L 459.900183 349.627476 
L 460.119736 265.784532 
L 460.339289 492.321972 
L 460.558842 492.820021 
L 460.778396 479.22721 
L 460.997949 352.308324 
L 461.217502 505.602271 
L 461.437055 473.755514 
L 461.656608 473.528509 
L 461.876161 439.572504 
L 462.095715 438.87328 
L 462.315268 345.838513 
L 462.754374 470.787362 
L 462.973927 465.273823 
L 463.19348 439.759504 
L 463.413033 284.40345 
L 463.632587 390.109614 
L 463.85214 342.119093 
L 464.071693 480.171847 
L 464.291246 416.66792 
L 464.510799 395.251659 
L 464.730352 510.3616 
L 464.949906 357.044136 
L 465.169459 358.206095 
L 465.389012 366.442972 
L 465.608565 467.639659 
L 465.828118 415.354008 
L 466.047671 402.288722 
L 466.267224 408.619722 
L 466.486778 448.497286 
L 466.706331 428.198145 
L 466.925884 438.212543 
L 467.145437 363.123164 
L 467.36499 440.456288 
L 467.584543 414.688251 
L 468.02365 467.68746 
L 468.243203 480.971572 
L 468.462756 291.954234 
L 468.901862 507.261344 
L 469.121415 464.679839 
L 469.340969 472.472611 
L 469.560522 325.802282 
L 469.780075 463.805074 
L 469.999628 356.306685 
L 470.219181 470.705006 
L 470.438734 434.996577 
L 470.658288 370.931379 
L 470.877841 368.677262 
L 471.097394 465.710766 
L 471.316947 443.202306 
L 471.5365 459.112855 
L 471.756053 260.555286 
L 471.975606 336.754989 
L 472.19516 353.722928 
L 472.414713 558.809361 
L 472.853819 262.346849 
L 473.073372 448.697592 
L 473.292925 538.35934 
L 473.512479 485.705871 
L 473.732032 477.416699 
L 474.171138 421.76264 
L 474.390691 489.951012 
L 474.610244 384.19878 
L 474.829797 477.821443 
L 475.049351 371.430381 
L 475.268904 472.96679 
L 475.70801 298.388373 
L 475.927563 369.809569 
L 476.147116 363.630636 
L 476.366669 346.535129 
L 476.586223 475.086912 
L 476.805776 397.262871 
L 477.025329 500.054301 
L 477.244882 406.989247 
L 477.464435 451.221958 
L 477.683988 519.369445 
L 477.903542 440.492979 
L 478.123095 436.799389 
L 478.342648 436.664051 
L 478.562201 292.141045 
L 479.001307 452.072578 
L 479.22086 287.169391 
L 479.440414 493.538857 
L 479.659967 369.888844 
L 479.87952 376.195395 
L 480.099073 429.502013 
L 480.538179 300.336736 
L 480.977286 438.480624 
L 481.416392 400.392462 
L 481.635945 448.374866 
L 481.855498 283.434716 
L 482.075051 454.024306 
L 482.294605 454.020562 
L 482.514158 459.429357 
L 482.733711 407.7209 
L 482.953264 498.355037 
L 483.172817 467.188501 
L 483.39237 473.490646 
L 483.611924 455.742659 
L 483.831477 356.769048 
L 484.05103 319.754412 
L 484.270583 423.715496 
L 484.490136 337.756523 
L 484.709689 438.81108 
L 484.929242 354.20855 
L 485.148796 338.687711 
L 485.368349 343.310099 
L 485.587902 497.219337 
L 486.027008 450.960227 
L 486.246561 392.298894 
L 486.466115 496.431903 
L 486.685668 284.755985 
L 486.905221 385.961812 
L 487.124774 386.368572 
L 487.344327 358.479371 
L 487.56388 490.286474 
L 487.783433 348.423085 
L 488.002987 428.057585 
L 488.442093 469.858076 
L 488.881199 286.362061 
L 489.100752 497.432179 
L 489.320306 511.186523 
L 489.539859 484.355616 
L 489.759412 512.670336 
L 489.978965 329.069386 
L 490.198518 459.608298 
L 490.418071 368.985261 
L 490.857178 437.014292 
L 491.076731 407.848105 
L 491.296284 344.338726 
L 491.515837 433.588841 
L 491.73539 427.209227 
L 492.174497 283.897505 
L 492.39405 402.423141 
L 492.613603 445.043115 
L 492.833156 455.664073 
L 493.052709 362.407534 
L 493.272262 323.19933 
L 493.491815 504.991199 
L 493.711369 465.017559 
L 493.930922 310.311096 
L 494.150475 505.315774 
L 494.370028 433.156827 
L 494.589581 547.240399 
L 495.028688 347.739219 
L 495.248241 466.91625 
L 495.687347 518.879434 
L 495.9069 390.525497 
L 496.126453 391.594849 
L 496.346006 459.955635 
L 496.56556 475.573312 
L 496.785113 360.529815 
L 497.004666 400.615345 
L 497.224219 390.531572 
L 497.443772 483.229242 
L 497.663325 422.444397 
L 497.882879 422.192309 
L 498.102432 455.460773 
L 498.541538 378.902793 
L 498.761091 450.876141 
L 498.980644 434.087481 
L 499.200197 433.538645 
L 499.419751 312.650763 
L 499.858857 426.153144 
L 500.07841 495.824619 
L 500.297963 392.408791 
L 500.956623 482.865666 
L 501.176176 503.241768 
L 501.395729 452.65159 
L 501.615282 457.794444 
L 501.834835 467.309132 
L 502.054388 309.843504 
L 502.273942 452.948397 
L 502.713048 439.610777 
L 502.932601 425.869982 
L 503.152154 377.91479 
L 503.371707 510.072544 
L 503.810814 376.75933 
L 504.030367 483.902388 
L 504.24992 459.225362 
L 504.689026 373.894805 
L 504.908579 389.949004 
L 505.128133 387.951789 
L 505.347686 402.256082 
L 505.567239 493.476767 
L 505.786792 444.909156 
L 506.006345 462.808579 
L 506.225898 373.58533 
L 506.445451 451.657262 
L 506.665005 336.050637 
L 506.884558 472.971935 
L 507.104111 425.514701 
L 507.323664 325.083822 
L 507.543217 452.25587 
L 507.76277 370.490265 
L 507.982324 439.949391 
L 508.201877 361.871323 
L 508.640983 497.038438 
L 508.860536 460.659304 
L 509.080089 476.707097 
L 509.299642 483.958262 
L 509.519196 457.736062 
L 509.738749 224.1803 
L 509.958302 250.657226 
L 510.177855 416.478943 
L 510.397408 377.199696 
L 510.616961 479.227408 
L 510.836515 395.901319 
L 511.056068 515.473322 
L 511.275621 336.524033 
L 511.495174 395.799953 
L 511.714727 406.024355 
L 511.93428 471.960867 
L 512.153833 491.033762 
L 512.59294 425.550802 
L 512.812493 319.525555 
L 513.032046 387.706752 
L 513.251599 344.449971 
L 513.471152 406.822485 
L 513.690706 293.802606 
L 513.910259 429.518507 
L 514.129812 416.384401 
L 514.349365 448.282033 
L 514.568918 329.369737 
L 514.788471 413.091242 
L 515.008024 295.126752 
L 515.227578 317.724731 
L 515.447131 352.307423 
L 515.666684 363.662724 
L 515.886237 526.750055 
L 516.10579 400.124853 
L 516.325343 423.151972 
L 516.544897 348.327546 
L 516.984003 519.644266 
L 517.203556 374.274219 
L 517.423109 467.531661 
L 517.642662 346.927615 
L 517.862215 500.601809 
L 518.081769 491.693156 
L 518.301322 460.489503 
L 518.520875 446.7577 
L 518.740428 307.648172 
L 518.959981 492.226089 
L 519.179534 467.94126 
L 519.399088 466.363832 
L 519.618641 427.889344 
L 519.838194 368.548415 
L 520.057747 420.04034 
L 520.2773 323.188016 
L 520.716406 455.505688 
L 520.93596 355.535226 
L 521.155513 487.432387 
L 521.375066 411.114697 
L 521.594619 402.441088 
L 521.814172 358.061256 
L 522.033725 488.925824 
L 522.253279 251.062982 
L 522.692385 484.979419 
L 523.351044 351.910995 
L 523.570597 352.216097 
L 523.790151 461.542588 
L 524.009704 442.785342 
L 524.229257 446.957622 
L 524.44881 480.667494 
L 524.668363 469.786526 
L 524.887916 504.950231 
L 525.766129 216.574402 
L 525.985682 396.334768 
L 526.205235 387.847516 
L 526.424788 354.560172 
L 526.644342 510.330284 
L 526.863895 523.571893 
L 527.083448 418.907623 
L 527.303001 515.626314 
L 527.522554 387.732288 
L 527.742107 383.33758 
L 527.96166 433.41693 
L 528.181214 413.801558 
L 528.400767 505.790586 
L 528.62032 352.290029 
L 529.059426 483.784675 
L 529.278979 402.723877 
L 529.498533 420.675182 
L 529.718086 392.975777 
L 529.937639 440.890912 
L 530.157192 421.294505 
L 530.596298 457.033511 
L 530.815851 384.29045 
L 531.035405 370.476042 
L 531.254958 438.379977 
L 531.474511 278.157891 
L 531.694064 329.819414 
L 531.913617 481.627092 
L 532.13317 507.66211 
L 532.79183 400.178146 
L 533.011383 434.897376 
L 533.230936 337.327813 
L 533.450489 520.398464 
L 533.670042 307.31021 
L 533.889596 401.329498 
L 534.109149 392.350207 
L 534.328702 446.782644 
L 534.548255 396.175144 
L 534.767808 477.121219 
L 534.987361 357.62338 
L 535.206915 468.39435 
L 535.426468 476.015 
L 535.646021 246.009869 
L 536.30468 493.332423 
L 536.524233 312.973398 
L 536.743787 412.98355 
L 536.96334 395.118223 
L 537.182893 518.187598 
L 537.402446 357.968528 
L 537.621999 351.58322 
L 537.841552 405.616876 
L 538.061106 335.516057 
L 538.280659 396.579607 
L 538.500212 503.855506 
L 538.719765 432.032081 
L 538.939318 479.356908 
L 539.158871 383.874144 
L 539.378424 446.276005 
L 539.597978 322.442084 
L 540.037084 433.533379 
L 540.47619 356.468788 
L 540.695743 445.330657 
L 540.915297 410.432678 
L 541.13485 493.08956 
L 541.354403 363.060711 
L 541.573956 461.559395 
L 541.793509 429.000562 
L 542.013062 356.633362 
L 542.232615 347.717305 
L 542.452169 333.436559 
L 542.671722 246.707957 
L 542.891275 345.902354 
L 543.110828 216.397188 
L 543.330381 419.871149 
L 543.549934 448.617312 
L 543.769488 318.351751 
L 543.989041 497.355521 
L 544.208594 502.145026 
L 544.6477 442.399462 
L 544.867253 365.356001 
L 545.086806 375.908157 
L 545.30636 423.796855 
L 545.525913 419.978441 
L 545.745466 276.588128 
L 545.745466 276.588128 
" style="fill:none;stroke:#96c69a;stroke-linecap:round;stroke-width:3;"/>
   </g>
   <g id="line2d_2"/>
   <g id="patch_3">
    <path d="M 84.914375 603.86 
L 84.914375 109.484571 
" style="fill:none;stroke:#262626;stroke-linecap:square;stroke-linejoin:miter;stroke-width:2.5;"/>
   </g>
   <g id="patch_4">
    <path d="M 84.914375 603.86 
L 567.689804 603.86 
" style="fill:none;stroke:#262626;stroke-linecap:square;stroke-linejoin:miter;stroke-width:2.5;"/>
   </g>
   <g id="legend_1">
    <g id="patch_5">
     <path d="M 514.774179 598.86 
L 560.689804 598.86 
Q 562.689804 598.86 562.689804 596.86 
L 562.689804 554.954375 
Q 562.689804 552.954375 560.689804 552.954375 
L 514.774179 552.954375 
Q 512.774179 552.954375 512.774179 554.954375 
L 512.774179 596.86 
Q 512.774179 598.86 514.774179 598.86 
z
" style="fill:#ffffff;opacity:0.8;stroke:#cccccc;stroke-linejoin:miter;stroke-width:2;"/>
    </g>
    <g id="text_15">
     <!-- $n_\tau$ -->
     <g style="fill:#262626;" transform="translate(524.651991 575.190625)scale(0.24 -0.24)">
      <defs>
       <path d="M 3566 2113 
L 3156 0 
L 2578 0 
L 2988 2091 
Q 3016 2238 3031 2350 
Q 3047 2463 3047 2528 
Q 3047 2791 2881 2937 
Q 2716 3084 2419 3084 
Q 1956 3084 1622 2776 
Q 1288 2469 1184 1941 
L 800 0 
L 225 0 
L 903 3500 
L 1478 3500 
L 1363 2950 
Q 1603 3253 1940 3418 
Q 2278 3584 2650 3584 
Q 3113 3584 3367 3334 
Q 3622 3084 3622 2631 
Q 3622 2519 3608 2391 
Q 3594 2263 3566 2113 
z
" id="DejaVuSans-Oblique-6e" transform="scale(0.015625)"/>
       <path d="M 2103 638 
Q 2188 488 2525 488 
L 2800 488 
L 2706 0 
L 2363 0 
Q 1800 0 1600 300 
Q 1403 606 1534 1269 
L 1856 2925 
L 541 2925 
L 653 3500 
L 3881 3500 
L 3769 2925 
L 2444 2925 
L 2113 1234 
Q 2025 781 2103 638 
z
" id="DejaVuSans-Oblique-3c4" transform="scale(0.015625)"/>
      </defs>
      <use xlink:href="#DejaVuSans-Oblique-6e"/>
      <use transform="translate(63.378906 -16.40625)scale(0.7)" xlink:href="#DejaVuSans-Oblique-3c4"/>
     </g>
    </g>
    <g id="line2d_3">
     <path d="M 516.774179 589.280313 
L 536.774179 589.280313 
" style="fill:none;stroke:#96c69a;stroke-linecap:round;stroke-width:3;"/>
    </g>
    <g id="line2d_4"/>
    <g id="text_16">
     <!-- 34 -->
     <g style="fill:#262626;" transform="translate(544.774179 592.780313)scale(0.1 -0.1)">
      <defs>
       <path d="M 2981 2516 
Q 3453 2394 3698 2092 
Q 3944 1791 3944 1325 
Q 3944 631 3412 270 
Q 2881 -91 1863 -91 
Q 1503 -91 1142 -33 
Q 781 25 428 141 
L 428 1069 
Q 766 900 1098 814 
Q 1431 728 1753 728 
Q 2231 728 2486 893 
Q 2741 1059 2741 1369 
Q 2741 1688 2480 1852 
Q 2219 2016 1709 2016 
L 1228 2016 
L 1228 2791 
L 1734 2791 
Q 2188 2791 2409 2933 
Q 2631 3075 2631 3366 
Q 2631 3634 2415 3781 
Q 2200 3928 1806 3928 
Q 1516 3928 1219 3862 
Q 922 3797 628 3669 
L 628 4550 
Q 984 4650 1334 4700 
Q 1684 4750 2022 4750 
Q 2931 4750 3382 4451 
Q 3834 4153 3834 3553 
Q 3834 3144 3618 2883 
Q 3403 2622 2981 2516 
z
" id="DejaVuSans-Bold-33" transform="scale(0.015625)"/>
       <path d="M 2356 3675 
L 1038 1722 
L 2356 1722 
L 2356 3675 
z
M 2156 4666 
L 3494 4666 
L 3494 1722 
L 4159 1722 
L 4159 850 
L 3494 850 
L 3494 0 
L 2356 0 
L 2356 850 
L 288 850 
L 288 1881 
L 2156 4666 
z
" id="DejaVuSans-Bold-34" transform="scale(0.015625)"/>
      </defs>
      <use xlink:href="#DejaVuSans-Bold-33"/>
      <use x="69.580078" xlink:href="#DejaVuSans-Bold-34"/>
     </g>
    </g>
   </g>
  </g>
  <g id="axes_2">
   <g id="patch_6">
    <path d="M 84.914375 92.437143 
L 567.689804 92.437143 
L 567.689804 7.2 
L 84.914375 7.2 
z
" style="fill:none;"/>
   </g>
   <g id="matplotlib.axis_3">
    <g id="xtick_7"/>
    <g id="xtick_8"/>
    <g id="xtick_9"/>
    <g id="xtick_10"/>
    <g id="xtick_11"/>
    <g id="xtick_12"/>
   </g>
   <g id="matplotlib.axis_4">
    <g id="ytick_7">
     <g id="text_17">
      <!-- 0 -->
      <g style="fill:#262626;" transform="translate(55.416875 100.795424)scale(0.22 -0.22)">
       <use xlink:href="#DejaVuSans-30"/>
      </g>
     </g>
    </g>
    <g id="ytick_8">
     <g id="text_18">
      <!-- 100 -->
      <g style="fill:#262626;" transform="translate(27.421875 48.082287)scale(0.22 -0.22)">
       <use xlink:href="#DejaVuSans-31"/>
       <use x="63.623047" xlink:href="#DejaVuSans-30"/>
       <use x="127.246094" xlink:href="#DejaVuSans-30"/>
      </g>
     </g>
    </g>
   </g>
   <g id="patch_7">
    <path clip-path="url(#p74ca5c03c8)" d="M 106.858713 92.437143 
L 140.619232 92.437143 
L 140.619232 11.258912 
L 106.858713 11.258912 
z
" style="fill:#96c69a;fill-opacity:0.5;stroke:#ffffff;stroke-linejoin:miter;stroke-width:2;"/>
   </g>
   <g id="patch_8">
    <path clip-path="url(#p74ca5c03c8)" d="M 140.619232 92.437143 
L 174.379752 92.437143 
L 174.379752 11.258912 
L 140.619232 11.258912 
z
" style="fill:#96c69a;fill-opacity:0.5;stroke:#ffffff;stroke-linejoin:miter;stroke-width:2;"/>
   </g>
   <g id="patch_9">
    <path clip-path="url(#p74ca5c03c8)" d="M 174.379752 92.437143 
L 208.140271 92.437143 
L 208.140271 11.258912 
L 174.379752 11.258912 
z
" style="fill:#96c69a;fill-opacity:0.5;stroke:#ffffff;stroke-linejoin:miter;stroke-width:2;"/>
   </g>
   <g id="patch_10">
    <path clip-path="url(#p74ca5c03c8)" d="M 208.140271 92.437143 
L 241.900791 92.437143 
L 241.900791 11.258912 
L 208.140271 11.258912 
z
" style="fill:#96c69a;fill-opacity:0.5;stroke:#ffffff;stroke-linejoin:miter;stroke-width:2;"/>
   </g>
   <g id="patch_11">
    <path clip-path="url(#p74ca5c03c8)" d="M 241.900791 92.437143 
L 275.66131 92.437143 
L 275.66131 11.786043 
L 241.900791 11.786043 
z
" style="fill:#96c69a;fill-opacity:0.5;stroke:#ffffff;stroke-linejoin:miter;stroke-width:2;"/>
   </g>
   <g id="patch_12">
    <path clip-path="url(#p74ca5c03c8)" d="M 275.66131 92.437143 
L 309.42183 92.437143 
L 309.42183 11.258912 
L 275.66131 11.258912 
z
" style="fill:#96c69a;fill-opacity:0.5;stroke:#ffffff;stroke-linejoin:miter;stroke-width:2;"/>
   </g>
   <g id="patch_13">
    <path clip-path="url(#p74ca5c03c8)" d="M 309.42183 92.437143 
L 343.182349 92.437143 
L 343.182349 11.258912 
L 309.42183 11.258912 
z
" style="fill:#96c69a;fill-opacity:0.5;stroke:#ffffff;stroke-linejoin:miter;stroke-width:2;"/>
   </g>
   <g id="patch_14">
    <path clip-path="url(#p74ca5c03c8)" d="M 343.182349 92.437143 
L 376.942869 92.437143 
L 376.942869 11.258912 
L 343.182349 11.258912 
z
" style="fill:#96c69a;fill-opacity:0.5;stroke:#ffffff;stroke-linejoin:miter;stroke-width:2;"/>
   </g>
   <g id="patch_15">
    <path clip-path="url(#p74ca5c03c8)" d="M 376.942869 92.437143 
L 410.703388 92.437143 
L 410.703388 11.786043 
L 376.942869 11.786043 
z
" style="fill:#96c69a;fill-opacity:0.5;stroke:#ffffff;stroke-linejoin:miter;stroke-width:2;"/>
   </g>
   <g id="patch_16">
    <path clip-path="url(#p74ca5c03c8)" d="M 410.703388 92.437143 
L 444.463907 92.437143 
L 444.463907 11.258912 
L 410.703388 11.258912 
z
" style="fill:#96c69a;fill-opacity:0.5;stroke:#ffffff;stroke-linejoin:miter;stroke-width:2;"/>
   </g>
   <g id="patch_17">
    <path clip-path="url(#p74ca5c03c8)" d="M 444.463907 92.437143 
L 478.224427 92.437143 
L 478.224427 11.258912 
L 444.463907 11.258912 
z
" style="fill:#96c69a;fill-opacity:0.5;stroke:#ffffff;stroke-linejoin:miter;stroke-width:2;"/>
   </g>
   <g id="patch_18">
    <path clip-path="url(#p74ca5c03c8)" d="M 478.224427 92.437143 
L 511.984946 92.437143 
L 511.984946 11.258912 
L 478.224427 11.258912 
z
" style="fill:#96c69a;fill-opacity:0.5;stroke:#ffffff;stroke-linejoin:miter;stroke-width:2;"/>
   </g>
   <g id="patch_19">
    <path clip-path="url(#p74ca5c03c8)" d="M 511.984946 92.437143 
L 545.745466 92.437143 
L 545.745466 11.258912 
L 511.984946 11.258912 
z
" style="fill:#96c69a;fill-opacity:0.5;stroke:#ffffff;stroke-linejoin:miter;stroke-width:2;"/>
   </g>
   <g id="patch_20">
    <path d="M 84.914375 92.437143 
L 84.914375 7.2 
" style="fill:none;stroke:#262626;stroke-linecap:square;stroke-linejoin:miter;stroke-width:2.5;"/>
   </g>
   <g id="patch_21">
    <path d="M 84.914375 92.437143 
L 567.689804 92.437143 
" style="fill:none;stroke:#262626;stroke-linecap:square;stroke-linejoin:miter;stroke-width:2.5;"/>
   </g>
  </g>
  <g id="axes_3">
   <g id="patch_22">
    <path d="M 584.337232 603.86 
L 667.574375 603.86 
L 667.574375 109.484571 
L 584.337232 109.484571 
z
" style="fill:none;"/>
   </g>
   <g id="matplotlib.axis_5">
    <g id="xtick_13">
     <g id="text_19">
      <!-- 0 -->
      <g style="fill:#262626;" transform="translate(577.338482 636.076563)scale(0.22 -0.22)">
       <use xlink:href="#DejaVuSans-30"/>
      </g>
     </g>
    </g>
    <g id="xtick_14">
     <g id="text_20">
      <!-- 100 -->
      <g style="fill:#262626;" transform="translate(608.640108 636.076563)scale(0.22 -0.22)">
       <use xlink:href="#DejaVuSans-31"/>
       <use x="63.623047" xlink:href="#DejaVuSans-30"/>
       <use x="127.246094" xlink:href="#DejaVuSans-30"/>
      </g>
     </g>
    </g>
   </g>
   <g id="matplotlib.axis_6">
    <g id="ytick_9"/>
    <g id="ytick_10"/>
    <g id="ytick_11"/>
    <g id="ytick_12"/>
    <g id="ytick_13"/>
    <g id="ytick_14"/>
   </g>
   <g id="patch_23">
    <path clip-path="url(#p987e7a2eb9)" d="M 584.337232 581.38839 
L 585.243215 581.38839 
L 585.243215 567.343633 
L 584.337232 567.343633 
z
" style="fill:#96c69a;fill-opacity:0.5;stroke:#ffffff;stroke-linejoin:miter;stroke-width:1.404476;"/>
   </g>
   <g id="patch_24">
    <path clip-path="url(#p987e7a2eb9)" d="M 584.337232 567.343633 
L 586.602188 567.343633 
L 586.602188 553.298877 
L 584.337232 553.298877 
z
" style="fill:#96c69a;fill-opacity:0.5;stroke:#ffffff;stroke-linejoin:miter;stroke-width:1.404476;"/>
   </g>
   <g id="patch_25">
    <path clip-path="url(#p987e7a2eb9)" d="M 584.337232 553.298877 
L 587.961162 553.298877 
L 587.961162 539.25412 
L 584.337232 539.25412 
z
" style="fill:#96c69a;fill-opacity:0.5;stroke:#ffffff;stroke-linejoin:miter;stroke-width:1.404476;"/>
   </g>
   <g id="patch_26">
    <path clip-path="url(#p987e7a2eb9)" d="M 584.337232 539.25412 
L 593.850048 539.25412 
L 593.850048 525.209364 
L 584.337232 525.209364 
z
" style="fill:#96c69a;fill-opacity:0.5;stroke:#ffffff;stroke-linejoin:miter;stroke-width:1.404476;"/>
   </g>
   <g id="patch_27">
    <path clip-path="url(#p987e7a2eb9)" d="M 584.337232 525.209364 
L 602.456882 525.209364 
L 602.456882 511.164607 
L 584.337232 511.164607 
z
" style="fill:#96c69a;fill-opacity:0.5;stroke:#ffffff;stroke-linejoin:miter;stroke-width:1.404476;"/>
   </g>
   <g id="patch_28">
    <path clip-path="url(#p987e7a2eb9)" d="M 584.337232 511.164607 
L 623.29448 511.164607 
L 623.29448 497.119851 
L 584.337232 497.119851 
z
" style="fill:#96c69a;fill-opacity:0.5;stroke:#ffffff;stroke-linejoin:miter;stroke-width:1.404476;"/>
   </g>
   <g id="patch_29">
    <path clip-path="url(#p987e7a2eb9)" d="M 584.337232 497.119851 
L 635.525244 497.119851 
L 635.525244 483.075094 
L 584.337232 483.075094 
z
" style="fill:#96c69a;fill-opacity:0.5;stroke:#ffffff;stroke-linejoin:miter;stroke-width:1.404476;"/>
   </g>
   <g id="patch_30">
    <path clip-path="url(#p987e7a2eb9)" d="M 584.337232 483.075094 
L 650.926946 483.075094 
L 650.926946 469.030338 
L 584.337232 469.030338 
z
" style="fill:#96c69a;fill-opacity:0.5;stroke:#ffffff;stroke-linejoin:miter;stroke-width:1.404476;"/>
   </g>
   <g id="patch_31">
    <path clip-path="url(#p987e7a2eb9)" d="M 584.337232 469.030338 
L 655.456859 469.030338 
L 655.456859 454.985581 
L 584.337232 454.985581 
z
" style="fill:#96c69a;fill-opacity:0.5;stroke:#ffffff;stroke-linejoin:miter;stroke-width:1.404476;"/>
   </g>
   <g id="patch_32">
    <path clip-path="url(#p987e7a2eb9)" d="M 584.337232 454.985581 
L 654.097885 454.985581 
L 654.097885 440.940825 
L 584.337232 440.940825 
z
" style="fill:#96c69a;fill-opacity:0.5;stroke:#ffffff;stroke-linejoin:miter;stroke-width:1.404476;"/>
   </g>
   <g id="patch_33">
    <path clip-path="url(#p987e7a2eb9)" d="M 584.337232 440.940825 
L 663.610702 440.940825 
L 663.610702 426.896068 
L 584.337232 426.896068 
z
" style="fill:#96c69a;fill-opacity:0.5;stroke:#ffffff;stroke-linejoin:miter;stroke-width:1.404476;"/>
   </g>
   <g id="patch_34">
    <path clip-path="url(#p987e7a2eb9)" d="M 584.337232 426.896068 
L 658.174806 426.896068 
L 658.174806 412.851312 
L 584.337232 412.851312 
z
" style="fill:#96c69a;fill-opacity:0.5;stroke:#ffffff;stroke-linejoin:miter;stroke-width:1.404476;"/>
   </g>
   <g id="patch_35">
    <path clip-path="url(#p987e7a2eb9)" d="M 584.337232 412.851312 
L 654.550876 412.851312 
L 654.550876 398.806555 
L 584.337232 398.806555 
z
" style="fill:#96c69a;fill-opacity:0.5;stroke:#ffffff;stroke-linejoin:miter;stroke-width:1.404476;"/>
   </g>
   <g id="patch_36">
    <path clip-path="url(#p987e7a2eb9)" d="M 584.337232 398.806555 
L 653.191903 398.806555 
L 653.191903 384.761799 
L 584.337232 384.761799 
z
" style="fill:#96c69a;fill-opacity:0.5;stroke:#ffffff;stroke-linejoin:miter;stroke-width:1.404476;"/>
   </g>
   <g id="patch_37">
    <path clip-path="url(#p987e7a2eb9)" d="M 584.337232 384.761799 
L 641.867121 384.761799 
L 641.867121 370.717042 
L 584.337232 370.717042 
z
" style="fill:#96c69a;fill-opacity:0.5;stroke:#ffffff;stroke-linejoin:miter;stroke-width:1.404476;"/>
   </g>
   <g id="patch_38">
    <path clip-path="url(#p987e7a2eb9)" d="M 584.337232 370.717042 
L 637.337209 370.717042 
L 637.337209 356.672286 
L 584.337232 356.672286 
z
" style="fill:#96c69a;fill-opacity:0.5;stroke:#ffffff;stroke-linejoin:miter;stroke-width:1.404476;"/>
   </g>
   <g id="patch_39">
    <path clip-path="url(#p987e7a2eb9)" d="M 584.337232 356.672286 
L 627.824392 356.672286 
L 627.824392 342.627529 
L 584.337232 342.627529 
z
" style="fill:#96c69a;fill-opacity:0.5;stroke:#ffffff;stroke-linejoin:miter;stroke-width:1.404476;"/>
   </g>
   <g id="patch_40">
    <path clip-path="url(#p987e7a2eb9)" d="M 584.337232 342.627529 
L 615.593629 342.627529 
L 615.593629 328.582773 
L 584.337232 328.582773 
z
" style="fill:#96c69a;fill-opacity:0.5;stroke:#ffffff;stroke-linejoin:miter;stroke-width:1.404476;"/>
   </g>
   <g id="patch_41">
    <path clip-path="url(#p987e7a2eb9)" d="M 584.337232 328.582773 
L 606.986795 328.582773 
L 606.986795 314.538016 
L 584.337232 314.538016 
z
" style="fill:#96c69a;fill-opacity:0.5;stroke:#ffffff;stroke-linejoin:miter;stroke-width:1.404476;"/>
   </g>
   <g id="patch_42">
    <path clip-path="url(#p987e7a2eb9)" d="M 584.337232 314.538016 
L 604.268847 314.538016 
L 604.268847 300.49326 
L 584.337232 300.49326 
z
" style="fill:#96c69a;fill-opacity:0.5;stroke:#ffffff;stroke-linejoin:miter;stroke-width:1.404476;"/>
   </g>
   <g id="patch_43">
    <path clip-path="url(#p987e7a2eb9)" d="M 584.337232 300.49326 
L 596.115005 300.49326 
L 596.115005 286.448503 
L 584.337232 286.448503 
z
" style="fill:#96c69a;fill-opacity:0.5;stroke:#ffffff;stroke-linejoin:miter;stroke-width:1.404476;"/>
   </g>
   <g id="patch_44">
    <path clip-path="url(#p987e7a2eb9)" d="M 584.337232 286.448503 
L 598.832952 286.448503 
L 598.832952 272.403747 
L 584.337232 272.403747 
z
" style="fill:#96c69a;fill-opacity:0.5;stroke:#ffffff;stroke-linejoin:miter;stroke-width:1.404476;"/>
   </g>
   <g id="patch_45">
    <path clip-path="url(#p987e7a2eb9)" d="M 584.337232 272.403747 
L 593.850048 272.403747 
L 593.850048 258.35899 
L 584.337232 258.35899 
z
" style="fill:#96c69a;fill-opacity:0.5;stroke:#ffffff;stroke-linejoin:miter;stroke-width:1.404476;"/>
   </g>
   <g id="patch_46">
    <path clip-path="url(#p987e7a2eb9)" d="M 584.337232 258.35899 
L 590.67911 258.35899 
L 590.67911 244.314234 
L 584.337232 244.314234 
z
" style="fill:#96c69a;fill-opacity:0.5;stroke:#ffffff;stroke-linejoin:miter;stroke-width:1.404476;"/>
   </g>
   <g id="patch_47">
    <path clip-path="url(#p987e7a2eb9)" d="M 584.337232 244.314234 
L 587.05518 244.314234 
L 587.05518 230.269477 
L 584.337232 230.269477 
z
" style="fill:#96c69a;fill-opacity:0.5;stroke:#ffffff;stroke-linejoin:miter;stroke-width:1.404476;"/>
   </g>
   <g id="patch_48">
    <path clip-path="url(#p987e7a2eb9)" d="M 584.337232 230.269477 
L 585.696206 230.269477 
L 585.696206 216.224721 
L 584.337232 216.224721 
z
" style="fill:#96c69a;fill-opacity:0.5;stroke:#ffffff;stroke-linejoin:miter;stroke-width:1.404476;"/>
   </g>
   <g id="patch_49">
    <path clip-path="url(#p987e7a2eb9)" d="M 584.337232 216.224721 
L 586.602188 216.224721 
L 586.602188 202.179964 
L 584.337232 202.179964 
z
" style="fill:#96c69a;fill-opacity:0.5;stroke:#ffffff;stroke-linejoin:miter;stroke-width:1.404476;"/>
   </g>
   <g id="patch_50">
    <path clip-path="url(#p987e7a2eb9)" d="M 584.337232 202.179964 
L 586.602188 202.179964 
L 586.602188 188.135208 
L 584.337232 188.135208 
z
" style="fill:#96c69a;fill-opacity:0.5;stroke:#ffffff;stroke-linejoin:miter;stroke-width:1.404476;"/>
   </g>
   <g id="patch_51">
    <path clip-path="url(#p987e7a2eb9)" d="M 584.337232 188.135208 
L 585.696206 188.135208 
L 585.696206 174.090451 
L 584.337232 174.090451 
z
" style="fill:#96c69a;fill-opacity:0.5;stroke:#ffffff;stroke-linejoin:miter;stroke-width:1.404476;"/>
   </g>
   <g id="patch_52">
    <path clip-path="url(#p987e7a2eb9)" d="M 584.337232 174.090451 
L 585.243215 174.090451 
L 585.243215 160.045695 
L 584.337232 160.045695 
z
" style="fill:#96c69a;fill-opacity:0.5;stroke:#ffffff;stroke-linejoin:miter;stroke-width:1.404476;"/>
   </g>
   <g id="patch_53">
    <path clip-path="url(#p987e7a2eb9)" d="M 584.337232 160.045695 
L 584.790223 160.045695 
L 584.790223 146.000938 
L 584.337232 146.000938 
z
" style="fill:#96c69a;fill-opacity:0.5;stroke:#ffffff;stroke-linejoin:miter;stroke-width:1.404476;"/>
   </g>
   <g id="patch_54">
    <path clip-path="url(#p987e7a2eb9)" d="M 584.337232 146.000938 
L 584.790223 146.000938 
L 584.790223 131.956182 
L 584.337232 131.956182 
z
" style="fill:#96c69a;fill-opacity:0.5;stroke:#ffffff;stroke-linejoin:miter;stroke-width:1.404476;"/>
   </g>
   <g id="patch_55">
    <path d="M 584.337232 603.86 
L 584.337232 109.484571 
" style="fill:none;stroke:#262626;stroke-linecap:square;stroke-linejoin:miter;stroke-width:2.5;"/>
   </g>
   <g id="patch_56">
    <path d="M 584.337232 603.86 
L 667.574375 603.86 
" style="fill:none;stroke:#262626;stroke-linecap:square;stroke-linejoin:miter;stroke-width:2.5;"/>
   </g>
  </g>
 </g>
 <defs>
  <clipPath id="p12fcecce08">
   <rect height="494.375429" width="482.775429" x="84.914375" y="109.484571"/>
  </clipPath>
  <clipPath id="p74ca5c03c8">
   <rect height="85.237143" width="482.775429" x="84.914375" y="7.2"/>
  </clipPath>
  <clipPath id="p987e7a2eb9">
   <rect height="494.375429" width="83.237143" x="584.337232" y="109.484571"/>
  </clipPath>
 </defs>
</svg>
