<?xml version="1.0" encoding="utf-8" standalone="no"?>
<!DOCTYPE svg PUBLIC "-//W3C//DTD SVG 1.1//EN"
  "http://www.w3.org/Graphics/SVG/1.1/DTD/svg11.dtd">
<svg height="311.267375pt" version="1.1" viewBox="0 0 349.2 311.267375" width="349.2pt" xmlns="http://www.w3.org/2000/svg" xmlns:xlink="http://www.w3.org/1999/xlink">
 <metadata>
  <rdf:RDF xmlns:cc="http://creativecommons.org/ns#" xmlns:dc="http://purl.org/dc/elements/1.1/" xmlns:rdf="http://www.w3.org/1999/02/22-rdf-syntax-ns#">
   <cc:Work>
    <dc:type rdf:resource="http://purl.org/dc/dcmitype/StillImage"/>
    <dc:date>2021-07-24T15:31:20.001324</dc:date>
    <dc:format>image/svg+xml</dc:format>
    <dc:creator>
     <cc:Agent>
      <dc:title>Matplotlib v3.4.2, https://matplotlib.org/</dc:title>
     </cc:Agent>
    </dc:creator>
   </cc:Work>
  </rdf:RDF>
 </metadata>
 <defs>
  <style type="text/css">*{stroke-linecap:butt;stroke-linejoin:round;}</style>
 </defs>
 <g id="figure_1">
  <g id="patch_1">
   <path d="M 0 311.267375 
L 349.2 311.267375 
L 349.2 0 
L 0 0 
z
" style="fill:#ffffff;"/>
  </g>
  <g id="axes_1">
   <g id="patch_2">
    <path d="M 7.2 49.536 
L 342 49.536 
L 342 7.2 
L 7.2 7.2 
z
" style="fill:none;"/>
   </g>
   <g id="matplotlib.axis_1">
    <g id="xtick_1"/>
    <g id="xtick_2"/>
    <g id="xtick_3"/>
   </g>
   <g id="matplotlib.axis_2"/>
   <g id="PolyCollection_1">
    <defs>
     <path d="M 38.996921 -261.733236 
L 38.996921 -261.731375 
L 39.406092 -261.731375 
L 39.815264 -261.731375 
L 40.224435 -261.731375 
L 40.633606 -261.731375 
L 41.042777 -261.731375 
L 41.451949 -261.731375 
L 41.86112 -261.731375 
L 42.270291 -261.731375 
L 42.679462 -261.731375 
L 43.088634 -261.731375 
L 43.497805 -261.731375 
L 43.906976 -261.731375 
L 44.316147 -261.731375 
L 44.725319 -261.731375 
L 45.13449 -261.731375 
L 45.543661 -261.731375 
L 45.952832 -261.731375 
L 46.362004 -261.731375 
L 46.771175 -261.731375 
L 47.180346 -261.731375 
L 47.589517 -261.731375 
L 47.998689 -261.731375 
L 48.40786 -261.731375 
L 48.817031 -261.731375 
L 49.226202 -261.731375 
L 49.635374 -261.731375 
L 50.044545 -261.731375 
L 50.453716 -261.731375 
L 50.862887 -261.731375 
L 51.272059 -261.731375 
L 51.68123 -261.731375 
L 52.090401 -261.731375 
L 52.499572 -261.731375 
L 52.908744 -261.731375 
L 53.317915 -261.731375 
L 53.727086 -261.731375 
L 54.136257 -261.731375 
L 54.545429 -261.731375 
L 54.9546 -261.731375 
L 55.363771 -261.731375 
L 55.772943 -261.731375 
L 56.182114 -261.731375 
L 56.591285 -261.731375 
L 57.000456 -261.731375 
L 57.409628 -261.731375 
L 57.818799 -261.731375 
L 58.22797 -261.731375 
L 58.637141 -261.731375 
L 59.046313 -261.731375 
L 59.455484 -261.731375 
L 59.864655 -261.731375 
L 60.273826 -261.731375 
L 60.682998 -261.731375 
L 61.092169 -261.731375 
L 61.50134 -261.731375 
L 61.910511 -261.731375 
L 62.319683 -261.731375 
L 62.728854 -261.731375 
L 63.138025 -261.731375 
L 63.547196 -261.731375 
L 63.956368 -261.731375 
L 64.365539 -261.731375 
L 64.77471 -261.731375 
L 65.183881 -261.731375 
L 65.593053 -261.731375 
L 66.002224 -261.731375 
L 66.411395 -261.731375 
L 66.820566 -261.731375 
L 67.229738 -261.731375 
L 67.638909 -261.731375 
L 68.04808 -261.731375 
L 68.457251 -261.731375 
L 68.866423 -261.731375 
L 69.275594 -261.731375 
L 69.684765 -261.731375 
L 70.093936 -261.731375 
L 70.503108 -261.731375 
L 70.912279 -261.731375 
L 71.32145 -261.731375 
L 71.730621 -261.731375 
L 72.139793 -261.731375 
L 72.548964 -261.731375 
L 72.958135 -261.731375 
L 73.367306 -261.731375 
L 73.776478 -261.731375 
L 74.185649 -261.731375 
L 74.59482 -261.731375 
L 75.003991 -261.731375 
L 75.413163 -261.731375 
L 75.822334 -261.731375 
L 76.231505 -261.731375 
L 76.640677 -261.731375 
L 77.049848 -261.731375 
L 77.459019 -261.731375 
L 77.86819 -261.731375 
L 78.277362 -261.731375 
L 78.686533 -261.731375 
L 79.095704 -261.731375 
L 79.504875 -261.731375 
L 79.914047 -261.731375 
L 80.323218 -261.731375 
L 80.732389 -261.731375 
L 81.14156 -261.731375 
L 81.550732 -261.731375 
L 81.959903 -261.731375 
L 82.369074 -261.731375 
L 82.778245 -261.731375 
L 83.187417 -261.731375 
L 83.596588 -261.731375 
L 84.005759 -261.731375 
L 84.41493 -261.731375 
L 84.824102 -261.731375 
L 85.233273 -261.731375 
L 85.642444 -261.731375 
L 86.051615 -261.731375 
L 86.460787 -261.731375 
L 86.869958 -261.731375 
L 87.279129 -261.731375 
L 87.6883 -261.731375 
L 88.097472 -261.731375 
L 88.506643 -261.731375 
L 88.915814 -261.731375 
L 89.324985 -261.731375 
L 89.734157 -261.731375 
L 90.143328 -261.731375 
L 90.552499 -261.731375 
L 90.96167 -261.731375 
L 91.370842 -261.731375 
L 91.780013 -261.731375 
L 92.189184 -261.731375 
L 92.598355 -261.731375 
L 93.007527 -261.731375 
L 93.416698 -261.731375 
L 93.825869 -261.731375 
L 94.23504 -261.731375 
L 94.644212 -261.731375 
L 95.053383 -261.731375 
L 95.462554 -261.731375 
L 95.871725 -261.731375 
L 96.280897 -261.731375 
L 96.690068 -261.731375 
L 97.099239 -261.731375 
L 97.508411 -261.731375 
L 97.917582 -261.731375 
L 98.326753 -261.731375 
L 98.735924 -261.731375 
L 99.145096 -261.731375 
L 99.554267 -261.731375 
L 99.963438 -261.731375 
L 100.372609 -261.731375 
L 100.781781 -261.731375 
L 101.190952 -261.731375 
L 101.600123 -261.731375 
L 102.009294 -261.731375 
L 102.418466 -261.731375 
L 102.827637 -261.731375 
L 103.236808 -261.731375 
L 103.645979 -261.731375 
L 104.055151 -261.731375 
L 104.464322 -261.731375 
L 104.873493 -261.731375 
L 105.282664 -261.731375 
L 105.691836 -261.731375 
L 106.101007 -261.731375 
L 106.510178 -261.731375 
L 106.919349 -261.731375 
L 107.328521 -261.731375 
L 107.737692 -261.731375 
L 108.146863 -261.731375 
L 108.556034 -261.731375 
L 108.965206 -261.731375 
L 109.374377 -261.731375 
L 109.783548 -261.731375 
L 110.192719 -261.731375 
L 110.601891 -261.731375 
L 111.011062 -261.731375 
L 111.420233 -261.731375 
L 111.829404 -261.731375 
L 112.238576 -261.731375 
L 112.647747 -261.731375 
L 113.056918 -261.731375 
L 113.466089 -261.731375 
L 113.875261 -261.731375 
L 114.284432 -261.731375 
L 114.693603 -261.731375 
L 115.102774 -261.731375 
L 115.511946 -261.731375 
L 115.921117 -261.731375 
L 116.330288 -261.731375 
L 116.739459 -261.731375 
L 117.148631 -261.731375 
L 117.557802 -261.731375 
L 117.966973 -261.731375 
L 118.376144 -261.731375 
L 118.785316 -261.731375 
L 119.194487 -261.731375 
L 119.603658 -261.731375 
L 120.01283 -261.731375 
L 120.422001 -261.731375 
L 120.422001 -261.733238 
L 120.422001 -261.733238 
L 120.01283 -261.736394 
L 119.603658 -261.743344 
L 119.194487 -261.756673 
L 118.785316 -261.778833 
L 118.376144 -261.810597 
L 117.966973 -261.849568 
L 117.557802 -261.890112 
L 117.148631 -261.925439 
L 116.739459 -261.950726 
L 116.330288 -261.964782 
L 115.921117 -261.968798 
L 115.511946 -261.963546 
L 115.102774 -261.948106 
L 114.693603 -261.921566 
L 114.284432 -261.885926 
L 113.875261 -261.847249 
L 113.466089 -261.814072 
L 113.056918 -261.794653 
L 112.647747 -261.795051 
L 112.238576 -261.818304 
L 111.829404 -261.863709 
L 111.420233 -261.925811 
L 111.011062 -261.994421 
L 110.601891 -262.057378 
L 110.192719 -262.105728 
L 109.783548 -262.138096 
L 109.374377 -262.160474 
L 108.965206 -262.180831 
L 108.556034 -262.202587 
L 108.146863 -262.222413 
L 107.737692 -262.234255 
L 107.328521 -262.236305 
L 106.919349 -262.235606 
L 106.510178 -262.247486 
L 106.101007 -262.290541 
L 105.691836 -262.379388 
L 105.282664 -262.517198 
L 104.873493 -262.690453 
L 104.464322 -262.869483 
L 104.055151 -263.017542 
L 103.645979 -263.106719 
L 103.236808 -263.133274 
L 102.827637 -263.122832 
L 102.418466 -263.120444 
L 102.009294 -263.169573 
L 101.600123 -263.291585 
L 101.190952 -263.477864 
L 100.781781 -263.698913 
L 100.372609 -263.92343 
L 99.963438 -264.133231 
L 99.554267 -264.323446 
L 99.145096 -264.489983 
L 98.735924 -264.617651 
L 98.326753 -264.681928 
L 97.917582 -264.66523 
L 97.508411 -264.575773 
L 97.099239 -264.454658 
L 96.690068 -264.365193 
L 96.280897 -264.369895 
L 95.871725 -264.507187 
L 95.462554 -264.778784 
L 95.053383 -265.152466 
L 94.644212 -265.577385 
L 94.23504 -266.003855 
L 93.825869 -266.398532 
L 93.416698 -266.749196 
L 93.007527 -267.059135 
L 92.598355 -267.336253 
L 92.189184 -267.58378 
L 91.780013 -267.797429 
L 91.370842 -267.969793 
L 90.96167 -268.09926 
L 90.552499 -268.199076 
L 90.143328 -268.30169 
L 89.734157 -268.453515 
L 89.324985 -268.697574 
L 88.915814 -269.049253 
L 88.506643 -269.480216 
L 88.097472 -269.926741 
L 87.6883 -270.324027 
L 87.279129 -270.646938 
L 86.869958 -270.929986 
L 86.460787 -271.254294 
L 86.051615 -271.71286 
L 85.642444 -272.375665 
L 85.233273 -273.267137 
L 84.824102 -274.355084 
L 84.41493 -275.54849 
L 84.005759 -276.709642 
L 83.596588 -277.687601 
L 83.187417 -278.367094 
L 82.778245 -278.711466 
L 82.369074 -278.778528 
L 81.959903 -278.704198 
L 81.550732 -278.664145 
L 81.14156 -278.827453 
L 80.732389 -279.314563 
L 80.323218 -280.172325 
L 79.914047 -281.376632 
L 79.504875 -282.859689 
L 79.095704 -284.541477 
L 78.686533 -286.341875 
L 78.277362 -288.168741 
L 77.86819 -289.902709 
L 77.459019 -291.407401 
L 77.049848 -292.574037 
L 76.640677 -293.375644 
L 76.231505 -293.887089 
L 75.822334 -294.244824 
L 75.413163 -294.566366 
L 75.003991 -294.88623 
L 74.59482 -295.155965 
L 74.185649 -295.304539 
L 73.776478 -295.306918 
L 73.367306 -295.20859 
L 72.958135 -295.099868 
L 72.548964 -295.076604 
L 72.139793 -295.22092 
L 71.730621 -295.598195 
L 71.32145 -296.244349 
L 70.912279 -297.136003 
L 70.503108 -298.169851 
L 70.093936 -299.184172 
L 69.684765 -300.024242 
L 69.275594 -300.613694 
L 68.866423 -300.982845 
L 68.457251 -301.233721 
L 68.04808 -301.466309 
L 67.638909 -301.715711 
L 67.229738 -301.93856 
L 66.820566 -302.051375 
L 66.411395 -301.989073 
L 66.002224 -301.738918 
L 65.593053 -301.322997 
L 65.183881 -300.744647 
L 64.77471 -299.951438 
L 64.365539 -298.861099 
L 63.956368 -297.441623 
L 63.547196 -295.780951 
L 63.138025 -294.082314 
L 62.728854 -292.580304 
L 62.319683 -291.43352 
L 61.910511 -290.660223 
L 61.50134 -290.14603 
L 61.092169 -289.706733 
L 60.682998 -289.166342 
L 60.273826 -288.413487 
L 59.864655 -287.417074 
L 59.455484 -286.203868 
L 59.046313 -284.818795 
L 58.637141 -283.295217 
L 58.22797 -281.652798 
L 57.818799 -279.920081 
L 57.409628 -278.161453 
L 57.000456 -276.484962 
L 56.591285 -275.018967 
L 56.182114 -273.864215 
L 55.772943 -273.044832 
L 55.363771 -272.487997 
L 54.9546 -272.050086 
L 54.545429 -271.579827 
L 54.136257 -270.984631 
L 53.727086 -270.264194 
L 53.317915 -269.496808 
L 52.908744 -268.79099 
L 52.499572 -268.230041 
L 52.090401 -267.835827 
L 51.68123 -267.565912 
L 51.272059 -267.341827 
L 50.862887 -267.090968 
L 50.453716 -266.778095 
L 50.044545 -266.410635 
L 49.635374 -266.020614 
L 49.226202 -265.640205 
L 48.817031 -265.286517 
L 48.40786 -264.95938 
L 47.998689 -264.647028 
L 47.589517 -264.334362 
L 47.180346 -264.011167 
L 46.771175 -263.677756 
L 46.362004 -263.345111 
L 45.952832 -263.029449 
L 45.543661 -262.745314 
L 45.13449 -262.50202 
L 44.725319 -262.304367 
L 44.316147 -262.154501 
L 43.906976 -262.05161 
L 43.497805 -261.989616 
L 43.088634 -261.956081 
L 42.679462 -261.934987 
L 42.270291 -261.912555 
L 41.86112 -261.882254 
L 41.451949 -261.845642 
L 41.042777 -261.808933 
L 40.633606 -261.778226 
L 40.224435 -261.75648 
L 39.815264 -261.743291 
L 39.406092 -261.736381 
L 38.996921 -261.733236 
z
" id="m1cb093794c" style="stroke:#364c6e;stroke-width:1.5;"/>
    </defs>
    <g>
     <use style="fill:#364c6e;stroke:#364c6e;stroke-width:1.5;" x="0" xlink:href="#m1cb093794c" y="311.267375"/>
    </g>
   </g>
   <g id="line2d_1">
    <path d="M 38.996921 49.534139 
L 41.451949 49.421733 
L 44.316147 49.112874 
L 45.13449 48.765355 
L 46.362004 47.922264 
L 51.68123 43.701463 
L 52.499572 43.037334 
L 53.317915 41.770567 
L 54.545429 39.687548 
L 55.772943 38.222543 
L 56.182114 37.40316 
L 57.000456 34.782413 
L 59.455484 25.063507 
L 60.273826 22.853888 
L 61.092169 21.560642 
L 61.910511 20.607152 
L 62.319683 19.833855 
L 62.728854 18.687071 
L 64.77471 11.315937 
L 65.593053 9.944378 
L 66.002224 9.528457 
L 66.411395 9.278302 
L 66.820566 9.216 
L 67.638909 9.551664 
L 69.275594 10.653681 
L 69.684765 11.243133 
L 70.503108 13.097524 
L 71.32145 15.023026 
L 71.730621 15.66918 
L 72.139793 16.046455 
L 72.548964 16.190771 
L 73.367306 16.058785 
L 74.185649 15.962836 
L 74.59482 16.11141 
L 75.822334 17.022551 
L 76.231505 17.380286 
L 76.640677 17.891731 
L 77.049848 18.693338 
L 77.459019 19.859974 
L 78.277362 23.098634 
L 79.504875 28.407686 
L 80.323218 31.09505 
L 80.732389 31.952812 
L 81.14156 32.439922 
L 81.550732 32.60323 
L 82.778245 32.555909 
L 83.187417 32.900281 
L 83.596588 33.579774 
L 84.41493 35.718885 
L 85.233273 38.000238 
L 86.051615 39.554515 
L 86.869958 40.337389 
L 87.6883 40.943348 
L 89.734157 42.81386 
L 90.96167 43.168115 
L 91.780013 43.469946 
L 93.007527 44.20824 
L 94.23504 45.26352 
L 95.462554 46.488591 
L 95.871725 46.760188 
L 96.280897 46.89748 
L 97.099239 46.812717 
L 97.917582 46.602145 
L 98.735924 46.649724 
L 99.963438 47.134144 
L 102.009294 48.097802 
L 103.236808 48.134101 
L 104.055151 48.249833 
L 106.101007 48.976834 
L 107.328521 49.03107 
L 109.783548 49.129279 
L 111.420233 49.341564 
L 112.647747 49.472324 
L 114.284432 49.381449 
L 116.330288 49.302593 
L 120.422001 49.534137 
L 120.422001 49.534137 
" style="fill:none;stroke:#ffffff;stroke-linecap:round;stroke-width:2;"/>
   </g>
   <g id="line2d_2">
    <path d="M 7.2 49.536 
L 342 49.536 
" style="fill:none;stroke:#364c6e;stroke-linecap:round;stroke-width:2;"/>
   </g>
   <g id="text_1">
    <!-- 0.05 -->
    <g style="fill:#364c6e;" transform="translate(258.3 47.6913)scale(0.24 -0.24)">
     <defs>
      <path d="M 2944 2338 
Q 2944 3213 2780 3570 
Q 2616 3928 2228 3928 
Q 1841 3928 1675 3570 
Q 1509 3213 1509 2338 
Q 1509 1453 1675 1090 
Q 1841 728 2228 728 
Q 2613 728 2778 1090 
Q 2944 1453 2944 2338 
z
M 4147 2328 
Q 4147 1169 3647 539 
Q 3147 -91 2228 -91 
Q 1306 -91 806 539 
Q 306 1169 306 2328 
Q 306 3491 806 4120 
Q 1306 4750 2228 4750 
Q 3147 4750 3647 4120 
Q 4147 3491 4147 2328 
z
" id="DejaVuSans-Bold-30" transform="scale(0.015625)"/>
      <path d="M 653 1209 
L 1778 1209 
L 1778 0 
L 653 0 
L 653 1209 
z
" id="DejaVuSans-Bold-2e" transform="scale(0.015625)"/>
      <path d="M 678 4666 
L 3669 4666 
L 3669 3781 
L 1638 3781 
L 1638 3059 
Q 1775 3097 1914 3117 
Q 2053 3138 2203 3138 
Q 3056 3138 3531 2711 
Q 4006 2284 4006 1522 
Q 4006 766 3489 337 
Q 2972 -91 2053 -91 
Q 1656 -91 1267 -14 
Q 878 63 494 219 
L 494 1166 
Q 875 947 1217 837 
Q 1559 728 1863 728 
Q 2300 728 2551 942 
Q 2803 1156 2803 1522 
Q 2803 1891 2551 2103 
Q 2300 2316 1863 2316 
Q 1603 2316 1309 2248 
Q 1016 2181 678 2041 
L 678 4666 
z
" id="DejaVuSans-Bold-35" transform="scale(0.015625)"/>
     </defs>
     <use xlink:href="#DejaVuSans-Bold-30"/>
     <use x="69.580078" xlink:href="#DejaVuSans-Bold-2e"/>
     <use x="107.568359" xlink:href="#DejaVuSans-Bold-30"/>
     <use x="177.148438" xlink:href="#DejaVuSans-Bold-35"/>
    </g>
   </g>
  </g>
  <g id="axes_2">
   <g id="patch_3">
    <path d="M 7.2 81.288 
L 342 81.288 
L 342 38.952 
L 7.2 38.952 
z
" style="fill:none;"/>
   </g>
   <g id="matplotlib.axis_3">
    <g id="xtick_4"/>
    <g id="xtick_5"/>
    <g id="xtick_6"/>
   </g>
   <g id="matplotlib.axis_4"/>
   <g id="PolyCollection_2">
    <defs>
     <path d="M 37.187495 -229.980612 
L 37.187495 -229.979375 
L 37.800277 -229.979375 
L 38.413059 -229.979375 
L 39.025841 -229.979375 
L 39.638623 -229.979375 
L 40.251405 -229.979375 
L 40.864187 -229.979375 
L 41.476969 -229.979375 
L 42.089751 -229.979375 
L 42.702533 -229.979375 
L 43.315315 -229.979375 
L 43.928097 -229.979375 
L 44.540879 -229.979375 
L 45.153661 -229.979375 
L 45.766443 -229.979375 
L 46.379225 -229.979375 
L 46.992007 -229.979375 
L 47.604789 -229.979375 
L 48.217571 -229.979375 
L 48.830353 -229.979375 
L 49.443135 -229.979375 
L 50.055917 -229.979375 
L 50.668699 -229.979375 
L 51.281481 -229.979375 
L 51.894263 -229.979375 
L 52.507045 -229.979375 
L 53.119827 -229.979375 
L 53.732609 -229.979375 
L 54.345391 -229.979375 
L 54.958173 -229.979375 
L 55.570955 -229.979375 
L 56.183737 -229.979375 
L 56.796519 -229.979375 
L 57.409301 -229.979375 
L 58.022083 -229.979375 
L 58.634865 -229.979375 
L 59.247647 -229.979375 
L 59.860429 -229.979375 
L 60.473211 -229.979375 
L 61.085993 -229.979375 
L 61.698775 -229.979375 
L 62.311557 -229.979375 
L 62.924339 -229.979375 
L 63.537121 -229.979375 
L 64.149903 -229.979375 
L 64.762685 -229.979375 
L 65.375467 -229.979375 
L 65.988249 -229.979375 
L 66.601031 -229.979375 
L 67.213813 -229.979375 
L 67.826595 -229.979375 
L 68.439377 -229.979375 
L 69.052159 -229.979375 
L 69.664941 -229.979375 
L 70.277723 -229.979375 
L 70.890505 -229.979375 
L 71.503287 -229.979375 
L 72.116069 -229.979375 
L 72.728851 -229.979375 
L 73.341633 -229.979375 
L 73.954415 -229.979375 
L 74.567197 -229.979375 
L 75.179979 -229.979375 
L 75.792761 -229.979375 
L 76.405543 -229.979375 
L 77.018325 -229.979375 
L 77.631107 -229.979375 
L 78.243889 -229.979375 
L 78.856671 -229.979375 
L 79.469453 -229.979375 
L 80.082235 -229.979375 
L 80.695017 -229.979375 
L 81.307799 -229.979375 
L 81.920581 -229.979375 
L 82.533363 -229.979375 
L 83.146145 -229.979375 
L 83.758927 -229.979375 
L 84.371709 -229.979375 
L 84.984491 -229.979375 
L 85.597273 -229.979375 
L 86.210055 -229.979375 
L 86.822837 -229.979375 
L 87.435619 -229.979375 
L 88.048401 -229.979375 
L 88.661183 -229.979375 
L 89.273965 -229.979375 
L 89.886747 -229.979375 
L 90.499529 -229.979375 
L 91.112311 -229.979375 
L 91.725093 -229.979375 
L 92.337875 -229.979375 
L 92.950657 -229.979375 
L 93.563439 -229.979375 
L 94.176221 -229.979375 
L 94.789003 -229.979375 
L 95.401785 -229.979375 
L 96.014567 -229.979375 
L 96.627349 -229.979375 
L 97.240131 -229.979375 
L 97.852913 -229.979375 
L 98.465695 -229.979375 
L 99.078477 -229.979375 
L 99.691259 -229.979375 
L 100.304041 -229.979375 
L 100.916823 -229.979375 
L 101.529605 -229.979375 
L 102.142387 -229.979375 
L 102.755169 -229.979375 
L 103.367951 -229.979375 
L 103.980733 -229.979375 
L 104.593515 -229.979375 
L 105.206297 -229.979375 
L 105.819079 -229.979375 
L 106.431861 -229.979375 
L 107.044643 -229.979375 
L 107.657425 -229.979375 
L 108.270207 -229.979375 
L 108.882989 -229.979375 
L 109.495771 -229.979375 
L 110.108553 -229.979375 
L 110.721335 -229.979375 
L 111.334117 -229.979375 
L 111.946899 -229.979375 
L 112.559681 -229.979375 
L 113.172463 -229.979375 
L 113.785245 -229.979375 
L 114.398027 -229.979375 
L 115.010809 -229.979375 
L 115.623591 -229.979375 
L 116.236373 -229.979375 
L 116.849155 -229.979375 
L 117.461937 -229.979375 
L 118.074719 -229.979375 
L 118.687501 -229.979375 
L 119.300283 -229.979375 
L 119.913065 -229.979375 
L 120.525847 -229.979375 
L 121.138629 -229.979375 
L 121.751411 -229.979375 
L 122.364193 -229.979375 
L 122.976975 -229.979375 
L 123.589757 -229.979375 
L 124.202539 -229.979375 
L 124.815321 -229.979375 
L 125.428103 -229.979375 
L 126.040885 -229.979375 
L 126.653667 -229.979375 
L 127.266449 -229.979375 
L 127.879231 -229.979375 
L 128.492013 -229.979375 
L 129.104795 -229.979375 
L 129.717577 -229.979375 
L 130.330359 -229.979375 
L 130.943141 -229.979375 
L 131.555923 -229.979375 
L 132.168705 -229.979375 
L 132.781487 -229.979375 
L 133.394269 -229.979375 
L 134.007051 -229.979375 
L 134.619833 -229.979375 
L 135.232615 -229.979375 
L 135.845397 -229.979375 
L 136.458179 -229.979375 
L 137.070961 -229.979375 
L 137.683743 -229.979375 
L 138.296525 -229.979375 
L 138.909307 -229.979375 
L 139.522089 -229.979375 
L 140.134871 -229.979375 
L 140.747653 -229.979375 
L 141.360435 -229.979375 
L 141.973217 -229.979375 
L 142.585999 -229.979375 
L 143.198781 -229.979375 
L 143.811563 -229.979375 
L 144.424345 -229.979375 
L 145.037127 -229.979375 
L 145.649909 -229.979375 
L 146.262691 -229.979375 
L 146.875473 -229.979375 
L 147.488255 -229.979375 
L 148.101037 -229.979375 
L 148.713819 -229.979375 
L 149.326601 -229.979375 
L 149.939383 -229.979375 
L 150.552165 -229.979375 
L 151.164947 -229.979375 
L 151.777729 -229.979375 
L 152.390511 -229.979375 
L 153.003293 -229.979375 
L 153.616075 -229.979375 
L 154.228857 -229.979375 
L 154.841639 -229.979375 
L 155.454421 -229.979375 
L 156.067203 -229.979375 
L 156.679985 -229.979375 
L 157.292767 -229.979375 
L 157.905549 -229.979375 
L 158.518331 -229.979375 
L 159.131113 -229.979375 
L 159.131113 -229.980587 
L 159.131113 -229.980587 
L 158.518331 -229.98256 
L 157.905549 -229.986829 
L 157.292767 -229.994903 
L 156.679985 -230.00819 
L 156.067203 -230.027057 
L 155.454421 -230.049905 
L 154.841639 -230.073096 
L 154.228857 -230.092408 
L 153.616075 -230.105586 
L 153.003293 -230.114322 
L 152.390511 -230.123839 
L 151.777729 -230.139738 
L 151.164947 -230.164052 
L 150.552165 -230.193451 
L 149.939383 -230.221232 
L 149.326601 -230.241837 
L 148.713819 -230.254475 
L 148.101037 -230.263059 
L 147.488255 -230.272615 
L 146.875473 -230.285163 
L 146.262691 -230.298263 
L 145.649909 -230.306928 
L 145.037127 -230.306951 
L 144.424345 -230.297146 
L 143.811563 -230.279592 
L 143.198781 -230.258728 
L 142.585999 -230.240434 
L 141.973217 -230.23111 
L 141.360435 -230.235927 
L 140.747653 -230.256096 
L 140.134871 -230.286703 
L 139.522089 -230.317518 
L 138.909307 -230.337553 
L 138.296525 -230.341025 
L 137.683743 -230.33058 
L 137.070961 -230.315364 
L 136.458179 -230.305681 
L 135.845397 -230.308565 
L 135.232615 -230.327123 
L 134.619833 -230.362267 
L 134.007051 -230.413085 
L 133.394269 -230.47433 
L 132.781487 -230.534131 
L 132.168705 -230.576657 
L 131.555923 -230.590484 
L 130.943141 -230.577313 
L 130.330359 -230.553667 
L 129.717577 -230.542961 
L 129.104795 -230.562865 
L 128.492013 -230.616607 
L 127.879231 -230.694011 
L 127.266449 -230.781416 
L 126.653667 -230.873836 
L 126.040885 -230.981068 
L 125.428103 -231.122686 
L 124.815321 -231.313718 
L 124.202539 -231.549617 
L 123.589757 -231.800911 
L 122.976975 -232.022194 
L 122.364193 -232.170738 
L 121.751411 -232.224115 
L 121.138629 -232.187779 
L 120.525847 -232.090413 
L 119.913065 -231.971497 
L 119.300283 -231.868274 
L 118.687501 -231.807627 
L 118.074719 -231.804156 
L 117.461937 -231.862306 
L 116.849155 -231.979668 
L 116.236373 -232.150139 
L 115.623591 -232.366974 
L 115.010809 -232.625191 
L 114.398027 -232.921479 
L 113.785245 -233.250385 
L 113.172463 -233.599345 
L 112.559681 -233.948836 
L 111.946899 -234.282225 
L 111.334117 -234.601349 
L 110.721335 -234.935286 
L 110.108553 -235.330782 
L 109.495771 -235.825654 
L 108.882989 -236.421529 
L 108.270207 -237.075925 
L 107.657425 -237.720928 
L 107.044643 -238.296001 
L 106.431861 -238.772071 
L 105.819079 -239.152052 
L 105.206297 -239.452726 
L 104.593515 -239.686897 
L 103.980733 -239.861332 
L 103.367951 -239.989787 
L 102.755169 -240.107205 
L 102.142387 -240.271259 
L 101.529605 -240.547805 
L 100.916823 -240.987675 
L 100.304041 -241.606686 
L 99.691259 -242.377568 
L 99.078477 -243.2346 
L 98.465695 -244.085541 
L 97.852913 -244.826027 
L 97.240131 -245.356837 
L 96.627349 -245.605781 
L 96.014567 -245.550124 
L 95.401785 -245.229807 
L 94.789003 -244.744404 
L 94.176221 -244.234812 
L 93.563439 -243.854937 
L 92.950657 -243.737018 
L 92.337875 -243.954578 
L 91.725093 -244.494064 
L 91.112311 -245.252462 
L 90.499529 -246.071142 
L 89.886747 -246.795522 
L 89.273965 -247.332027 
L 88.661183 -247.675272 
L 88.048401 -247.898243 
L 87.435619 -248.118488 
L 86.822837 -248.458456 
L 86.210055 -249.011181 
L 85.597273 -249.816253 
L 84.984491 -250.850759 
L 84.371709 -252.038796 
L 83.758927 -253.275947 
L 83.146145 -254.457108 
L 82.533363 -255.496141 
L 81.920581 -256.333656 
L 81.307799 -256.935541 
L 80.695017 -257.285227 
L 80.082235 -257.37238 
L 79.469453 -257.185453 
L 78.856671 -256.719194 
L 78.243889 -255.999652 
L 77.631107 -255.110336 
L 77.018325 -254.192316 
L 76.405543 -253.404596 
L 75.792761 -252.861782 
L 75.179979 -252.587433 
L 74.567197 -252.513634 
L 73.954415 -252.525973 
L 73.341633 -252.523515 
L 72.728851 -252.457029 
L 72.116069 -252.327492 
L 71.503287 -252.154913 
L 70.890505 -251.945223 
L 70.277723 -251.679914 
L 69.664941 -251.333056 
L 69.052159 -250.8981 
L 68.439377 -250.399546 
L 67.826595 -249.878208 
L 67.213813 -249.361928 
L 66.601031 -248.845832 
L 65.988249 -248.297488 
L 65.375467 -247.682097 
L 64.762685 -246.988893 
L 64.149903 -246.241805 
L 63.537121 -245.490003 
L 62.924339 -244.785913 
L 62.311557 -244.162458 
L 61.698775 -243.618895 
L 61.085993 -243.120373 
L 60.473211 -242.61186 
L 59.860429 -242.04095 
L 59.247647 -241.378018 
L 58.634865 -240.6226 
L 58.022083 -239.794812 
L 57.409301 -238.92208 
L 56.796519 -238.032677 
L 56.183737 -237.157311 
L 55.570955 -236.330192 
L 54.958173 -235.582443 
L 54.345391 -234.930885 
L 53.732609 -234.371663 
L 53.119827 -233.88439 
L 52.507045 -233.443297 
L 51.894263 -233.027251 
L 51.281481 -232.623872 
L 50.668699 -232.229324 
L 50.055917 -231.847636 
L 49.443135 -231.490475 
L 48.830353 -231.174805 
L 48.217571 -230.916691 
L 47.604789 -230.7236 
L 46.992007 -230.590261 
L 46.379225 -230.501095 
L 45.766443 -230.437436 
L 45.153661 -230.384606 
L 44.540879 -230.334894 
L 43.928097 -230.286092 
L 43.315315 -230.238262 
L 42.702533 -230.191604 
L 42.089751 -230.146343 
L 41.476969 -230.103549 
L 40.864187 -230.065355 
L 40.251405 -230.034089 
L 39.638623 -230.011056 
L 39.025841 -229.995948 
L 38.413059 -229.987169 
L 37.800277 -229.982659 
L 37.187495 -229.980612 
z
" id="mc8ba0308cc" style="stroke:#426082;stroke-width:1.5;"/>
    </defs>
    <g>
     <use style="fill:#426082;stroke:#426082;stroke-width:1.5;" x="0" xlink:href="#mc8ba0308cc" y="311.267375"/>
    </g>
   </g>
   <g id="line2d_3">
    <path d="M 37.187495 81.286763 
L 41.476969 81.163826 
L 46.992007 80.677114 
L 48.217571 80.350684 
L 49.443135 79.7769 
L 51.894263 78.240124 
L 53.732609 76.895712 
L 54.958173 75.684932 
L 56.183737 74.110064 
L 59.247647 69.889357 
L 60.473211 68.655515 
L 62.924339 66.481462 
L 66.601031 62.421543 
L 69.664941 59.934319 
L 70.890505 59.322152 
L 72.728851 58.810346 
L 73.954415 58.741402 
L 75.179979 58.679942 
L 75.792761 58.405593 
L 76.405543 57.862779 
L 77.631107 56.157039 
L 78.856671 54.548181 
L 79.469453 54.081922 
L 80.082235 53.894995 
L 80.695017 53.982148 
L 81.307799 54.331834 
L 81.920581 54.933719 
L 82.533363 55.771234 
L 83.758927 57.991428 
L 84.984491 60.416616 
L 85.597273 61.451122 
L 86.210055 62.256194 
L 86.822837 62.808919 
L 88.048401 63.369132 
L 88.661183 63.592103 
L 89.273965 63.935348 
L 89.886747 64.471853 
L 92.337875 67.312797 
L 92.950657 67.530357 
L 93.563439 67.412438 
L 94.789003 66.522971 
L 95.401785 66.037568 
L 96.014567 65.717251 
L 96.627349 65.661594 
L 97.240131 65.910538 
L 97.852913 66.441348 
L 99.078477 68.032775 
L 100.304041 69.660689 
L 100.916823 70.2797 
L 101.529605 70.71957 
L 102.755169 71.16017 
L 104.593515 71.580478 
L 105.819079 72.115323 
L 107.044643 72.971374 
L 108.882989 74.845846 
L 110.108553 75.936593 
L 111.334117 76.666026 
L 116.236373 79.117236 
L 117.461937 79.405069 
L 118.687501 79.459748 
L 120.525847 79.176962 
L 121.751411 79.04326 
L 122.976975 79.245181 
L 126.040885 80.286307 
L 128.492013 80.650768 
L 130.330359 80.713708 
L 132.168705 80.690718 
L 137.070961 80.952011 
L 140.134871 80.980672 
L 142.585999 81.026941 
L 146.875473 80.982212 
L 159.131113 81.286788 
L 159.131113 81.286788 
" style="fill:none;stroke:#ffffff;stroke-linecap:round;stroke-width:2;"/>
   </g>
   <g id="line2d_4">
    <path d="M 7.2 81.288 
L 342 81.288 
" style="fill:none;stroke:#426082;stroke-linecap:round;stroke-width:2;"/>
   </g>
   <g id="text_2">
    <!-- 0.1 -->
    <g style="fill:#426082;" transform="translate(258.3 79.4433)scale(0.24 -0.24)">
     <defs>
      <path d="M 750 831 
L 1813 831 
L 1813 3847 
L 722 3622 
L 722 4441 
L 1806 4666 
L 2950 4666 
L 2950 831 
L 4013 831 
L 4013 0 
L 750 0 
L 750 831 
z
" id="DejaVuSans-Bold-31" transform="scale(0.015625)"/>
     </defs>
     <use xlink:href="#DejaVuSans-Bold-30"/>
     <use x="69.580078" xlink:href="#DejaVuSans-Bold-2e"/>
     <use x="107.568359" xlink:href="#DejaVuSans-Bold-31"/>
    </g>
   </g>
  </g>
  <g id="axes_3">
   <g id="patch_4">
    <path d="M 7.2 113.04 
L 342 113.04 
L 342 70.704 
L 7.2 70.704 
z
" style="fill:none;"/>
   </g>
   <g id="matplotlib.axis_5">
    <g id="xtick_7"/>
    <g id="xtick_8"/>
    <g id="xtick_9"/>
   </g>
   <g id="matplotlib.axis_6"/>
   <g id="PolyCollection_3">
    <defs>
     <path d="M 38.725393 -198.228487 
L 38.725393 -198.227375 
L 39.659828 -198.227375 
L 40.594264 -198.227375 
L 41.528699 -198.227375 
L 42.463134 -198.227375 
L 43.397569 -198.227375 
L 44.332004 -198.227375 
L 45.266439 -198.227375 
L 46.200874 -198.227375 
L 47.13531 -198.227375 
L 48.069745 -198.227375 
L 49.00418 -198.227375 
L 49.938615 -198.227375 
L 50.87305 -198.227375 
L 51.807485 -198.227375 
L 52.74192 -198.227375 
L 53.676356 -198.227375 
L 54.610791 -198.227375 
L 55.545226 -198.227375 
L 56.479661 -198.227375 
L 57.414096 -198.227375 
L 58.348531 -198.227375 
L 59.282966 -198.227375 
L 60.217402 -198.227375 
L 61.151837 -198.227375 
L 62.086272 -198.227375 
L 63.020707 -198.227375 
L 63.955142 -198.227375 
L 64.889577 -198.227375 
L 65.824012 -198.227375 
L 66.758448 -198.227375 
L 67.692883 -198.227375 
L 68.627318 -198.227375 
L 69.561753 -198.227375 
L 70.496188 -198.227375 
L 71.430623 -198.227375 
L 72.365058 -198.227375 
L 73.299494 -198.227375 
L 74.233929 -198.227375 
L 75.168364 -198.227375 
L 76.102799 -198.227375 
L 77.037234 -198.227375 
L 77.971669 -198.227375 
L 78.906104 -198.227375 
L 79.84054 -198.227375 
L 80.774975 -198.227375 
L 81.70941 -198.227375 
L 82.643845 -198.227375 
L 83.57828 -198.227375 
L 84.512715 -198.227375 
L 85.44715 -198.227375 
L 86.381586 -198.227375 
L 87.316021 -198.227375 
L 88.250456 -198.227375 
L 89.184891 -198.227375 
L 90.119326 -198.227375 
L 91.053761 -198.227375 
L 91.988197 -198.227375 
L 92.922632 -198.227375 
L 93.857067 -198.227375 
L 94.791502 -198.227375 
L 95.725937 -198.227375 
L 96.660372 -198.227375 
L 97.594807 -198.227375 
L 98.529243 -198.227375 
L 99.463678 -198.227375 
L 100.398113 -198.227375 
L 101.332548 -198.227375 
L 102.266983 -198.227375 
L 103.201418 -198.227375 
L 104.135853 -198.227375 
L 105.070289 -198.227375 
L 106.004724 -198.227375 
L 106.939159 -198.227375 
L 107.873594 -198.227375 
L 108.808029 -198.227375 
L 109.742464 -198.227375 
L 110.676899 -198.227375 
L 111.611335 -198.227375 
L 112.54577 -198.227375 
L 113.480205 -198.227375 
L 114.41464 -198.227375 
L 115.349075 -198.227375 
L 116.28351 -198.227375 
L 117.217945 -198.227375 
L 118.152381 -198.227375 
L 119.086816 -198.227375 
L 120.021251 -198.227375 
L 120.955686 -198.227375 
L 121.890121 -198.227375 
L 122.824556 -198.227375 
L 123.758991 -198.227375 
L 124.693427 -198.227375 
L 125.627862 -198.227375 
L 126.562297 -198.227375 
L 127.496732 -198.227375 
L 128.431167 -198.227375 
L 129.365602 -198.227375 
L 130.300037 -198.227375 
L 131.234473 -198.227375 
L 132.168908 -198.227375 
L 133.103343 -198.227375 
L 134.037778 -198.227375 
L 134.972213 -198.227375 
L 135.906648 -198.227375 
L 136.841083 -198.227375 
L 137.775519 -198.227375 
L 138.709954 -198.227375 
L 139.644389 -198.227375 
L 140.578824 -198.227375 
L 141.513259 -198.227375 
L 142.447694 -198.227375 
L 143.38213 -198.227375 
L 144.316565 -198.227375 
L 145.251 -198.227375 
L 146.185435 -198.227375 
L 147.11987 -198.227375 
L 148.054305 -198.227375 
L 148.98874 -198.227375 
L 149.923176 -198.227375 
L 150.857611 -198.227375 
L 151.792046 -198.227375 
L 152.726481 -198.227375 
L 153.660916 -198.227375 
L 154.595351 -198.227375 
L 155.529786 -198.227375 
L 156.464222 -198.227375 
L 157.398657 -198.227375 
L 158.333092 -198.227375 
L 159.267527 -198.227375 
L 160.201962 -198.227375 
L 161.136397 -198.227375 
L 162.070832 -198.227375 
L 163.005268 -198.227375 
L 163.939703 -198.227375 
L 164.874138 -198.227375 
L 165.808573 -198.227375 
L 166.743008 -198.227375 
L 167.677443 -198.227375 
L 168.611878 -198.227375 
L 169.546314 -198.227375 
L 170.480749 -198.227375 
L 171.415184 -198.227375 
L 172.349619 -198.227375 
L 173.284054 -198.227375 
L 174.218489 -198.227375 
L 175.152924 -198.227375 
L 176.08736 -198.227375 
L 177.021795 -198.227375 
L 177.95623 -198.227375 
L 178.890665 -198.227375 
L 179.8251 -198.227375 
L 180.759535 -198.227375 
L 181.69397 -198.227375 
L 182.628406 -198.227375 
L 183.562841 -198.227375 
L 184.497276 -198.227375 
L 185.431711 -198.227375 
L 186.366146 -198.227375 
L 187.300581 -198.227375 
L 188.235016 -198.227375 
L 189.169452 -198.227375 
L 190.103887 -198.227375 
L 191.038322 -198.227375 
L 191.972757 -198.227375 
L 192.907192 -198.227375 
L 193.841627 -198.227375 
L 194.776062 -198.227375 
L 195.710498 -198.227375 
L 196.644933 -198.227375 
L 197.579368 -198.227375 
L 198.513803 -198.227375 
L 199.448238 -198.227375 
L 200.382673 -198.227375 
L 201.317109 -198.227375 
L 202.251544 -198.227375 
L 203.185979 -198.227375 
L 204.120414 -198.227375 
L 205.054849 -198.227375 
L 205.989284 -198.227375 
L 206.923719 -198.227375 
L 207.858155 -198.227375 
L 208.79259 -198.227375 
L 209.727025 -198.227375 
L 210.66146 -198.227375 
L 211.595895 -198.227375 
L 212.53033 -198.227375 
L 213.464765 -198.227375 
L 214.399201 -198.227375 
L 215.333636 -198.227375 
L 216.268071 -198.227375 
L 217.202506 -198.227375 
L 218.136941 -198.227375 
L 219.071376 -198.227375 
L 220.005811 -198.227375 
L 220.940247 -198.227375 
L 221.874682 -198.227375 
L 222.809117 -198.227375 
L 223.743552 -198.227375 
L 224.677987 -198.227375 
L 224.677987 -198.228318 
L 224.677987 -198.228318 
L 223.743552 -198.230308 
L 222.809117 -198.235112 
L 221.874682 -198.244689 
L 220.940247 -198.260244 
L 220.005811 -198.280309 
L 219.071376 -198.299693 
L 218.136941 -198.31119 
L 217.202506 -198.30978 
L 216.268071 -198.296106 
L 215.333636 -198.276006 
L 214.399201 -198.256565 
L 213.464765 -198.242239 
L 212.53033 -198.233796 
L 211.595895 -198.229728 
L 210.66146 -198.228106 
L 209.727025 -198.227568 
L 208.79259 -198.227418 
L 207.858155 -198.227383 
L 206.923719 -198.227376 
L 205.989284 -198.227375 
L 205.054849 -198.227375 
L 204.120414 -198.227375 
L 203.185979 -198.227375 
L 202.251544 -198.227375 
L 201.317109 -198.227375 
L 200.382673 -198.227375 
L 199.448238 -198.227375 
L 198.513803 -198.227375 
L 197.579368 -198.227375 
L 196.644933 -198.227375 
L 195.710498 -198.227375 
L 194.776062 -198.227375 
L 193.841627 -198.227375 
L 192.907192 -198.227375 
L 191.972757 -198.227375 
L 191.038322 -198.227375 
L 190.103887 -198.227375 
L 189.169452 -198.227375 
L 188.235016 -198.227375 
L 187.300581 -198.227377 
L 186.366146 -198.227387 
L 185.431711 -198.227436 
L 184.497276 -198.227639 
L 183.562841 -198.22834 
L 182.628406 -198.230366 
L 181.69397 -198.235242 
L 180.759535 -198.244936 
L 179.8251 -198.260663 
L 178.890665 -198.281059 
L 177.95623 -198.301411 
L 177.021795 -198.315932 
L 176.08736 -198.322655 
L 175.152924 -198.327057 
L 174.218489 -198.340213 
L 173.284054 -198.371521 
L 172.349619 -198.421215 
L 171.415184 -198.478741 
L 170.480749 -198.528761 
L 169.546314 -198.560926 
L 168.611878 -198.5773 
L 167.677443 -198.593013 
L 166.743008 -198.629095 
L 165.808573 -198.699941 
L 164.874138 -198.801584 
L 163.939703 -198.908846 
L 163.005268 -198.985838 
L 162.070832 -199.005162 
L 161.136397 -198.963112 
L 160.201962 -198.88011 
L 159.267527 -198.787728 
L 158.333092 -198.714014 
L 157.398657 -198.676025 
L 156.464222 -198.677855 
L 155.529786 -198.709329 
L 154.595351 -198.747875 
L 153.660916 -198.769103 
L 152.726481 -198.761738 
L 151.792046 -198.733295 
L 150.857611 -198.7006 
L 149.923176 -198.675751 
L 148.98874 -198.661643 
L 148.054305 -198.658654 
L 147.11987 -198.673023 
L 146.185435 -198.718831 
L 145.251 -198.812573 
L 144.316565 -198.963846 
L 143.38213 -199.167317 
L 142.447694 -199.400842 
L 141.513259 -199.631173 
L 140.578824 -199.824203 
L 139.644389 -199.955079 
L 138.709954 -200.014791 
L 137.775519 -200.011715 
L 136.841083 -199.969207 
L 135.906648 -199.922397 
L 134.972213 -199.915091 
L 134.037778 -199.993539 
L 133.103343 -200.194932 
L 132.168908 -200.533672 
L 131.234473 -200.989989 
L 130.300037 -201.504743 
L 129.365602 -201.9882 
L 128.431167 -202.351194 
L 127.496732 -202.549895 
L 126.562297 -202.612316 
L 125.627862 -202.619629 
L 124.693427 -202.653107 
L 123.758991 -202.747565 
L 122.824556 -202.882098 
L 121.890121 -203.006442 
L 120.955686 -203.082446 
L 120.021251 -203.1195 
L 119.086816 -203.183681 
L 118.152381 -203.366102 
L 117.217945 -203.722118 
L 116.28351 -204.226029 
L 115.349075 -204.783765 
L 114.41464 -205.297285 
L 113.480205 -205.726439 
L 112.54577 -206.100049 
L 111.611335 -206.477232 
L 110.676899 -206.89636 
L 109.742464 -207.346503 
L 108.808029 -207.775954 
L 107.873594 -208.133418 
L 106.939159 -208.4168 
L 106.004724 -208.689487 
L 105.070289 -209.039477 
L 104.135853 -209.505665 
L 103.201418 -210.035653 
L 102.266983 -210.521304 
L 101.332548 -210.888531 
L 100.398113 -211.163919 
L 99.463678 -211.458771 
L 98.529243 -211.88328 
L 97.594807 -212.461393 
L 96.660372 -213.114191 
L 95.725937 -213.724254 
L 94.791502 -214.2289 
L 93.857067 -214.665391 
L 92.922632 -215.130377 
L 91.988197 -215.689984 
L 91.053761 -216.318038 
L 90.119326 -216.909778 
L 89.184891 -217.353338 
L 88.250456 -217.605415 
L 87.316021 -217.726657 
L 86.381586 -217.856358 
L 85.44715 -218.130825 
L 84.512715 -218.585023 
L 83.57828 -219.1068 
L 82.643845 -219.492728 
L 81.70941 -219.577924 
L 80.774975 -219.343105 
L 79.84054 -218.91466 
L 78.906104 -218.464736 
L 77.971669 -218.099793 
L 77.037234 -217.819604 
L 76.102799 -217.554702 
L 75.168364 -217.23181 
L 74.233929 -216.815953 
L 73.299494 -216.310417 
L 72.365058 -215.726693 
L 71.430623 -215.056296 
L 70.496188 -214.278377 
L 69.561753 -213.406822 
L 68.627318 -212.530669 
L 67.692883 -211.78936 
L 66.758448 -211.282067 
L 65.824012 -210.982644 
L 64.889577 -210.736569 
L 63.955142 -210.348855 
L 63.020707 -209.699376 
L 62.086272 -208.803014 
L 61.151837 -207.776435 
L 60.217402 -206.747896 
L 59.282966 -205.789397 
L 58.348531 -204.917399 
L 57.414096 -204.133226 
L 56.479661 -203.443661 
L 55.545226 -202.845658 
L 54.610791 -202.310224 
L 53.676356 -201.795013 
L 52.74192 -201.273434 
L 51.807485 -200.749759 
L 50.87305 -200.249621 
L 49.938615 -199.800375 
L 49.00418 -199.418435 
L 48.069745 -199.107365 
L 47.13531 -198.861399 
L 46.200874 -198.670141 
L 45.266439 -198.523144 
L 44.332004 -198.41282 
L 43.397569 -198.334255 
L 42.463134 -198.282926 
L 41.528699 -198.25301 
L 40.594264 -198.237755 
L 39.659828 -198.23103 
L 38.725393 -198.228487 
z
" id="mb18ba279ab" style="stroke:#4e7493;stroke-width:1.5;"/>
    </defs>
    <g>
     <use style="fill:#4e7493;stroke:#4e7493;stroke-width:1.5;" x="0" xlink:href="#mb18ba279ab" y="311.267375"/>
    </g>
   </g>
   <g id="line2d_5">
    <path d="M 38.725393 113.038888 
L 43.397569 112.93312 
L 46.200874 112.597234 
L 48.069745 112.16001 
L 49.938615 111.467 
L 51.807485 110.517616 
L 56.479661 107.823714 
L 58.348531 106.349976 
L 60.217402 104.519479 
L 63.020707 101.567999 
L 63.955142 100.91852 
L 64.889577 100.530806 
L 66.758448 99.985308 
L 67.692883 99.478015 
L 69.561753 97.860553 
L 71.430623 96.211079 
L 73.299494 94.956958 
L 75.168364 94.035565 
L 79.84054 92.352715 
L 80.774975 91.92427 
L 81.70941 91.689451 
L 82.643845 91.774647 
L 83.57828 92.160575 
L 85.44715 93.13655 
L 86.381586 93.411017 
L 88.250456 93.66196 
L 89.184891 93.914037 
L 90.119326 94.357597 
L 93.857067 96.601984 
L 95.725937 97.543121 
L 98.529243 99.384095 
L 99.463678 99.808604 
L 102.266983 100.746071 
L 106.004724 102.577888 
L 108.808029 103.491421 
L 116.28351 107.041346 
L 117.217945 107.545257 
L 118.152381 107.901273 
L 119.086816 108.083694 
L 122.824556 108.385277 
L 124.693427 108.614268 
L 127.496732 108.71748 
L 128.431167 108.916181 
L 129.365602 109.279175 
L 132.168908 110.733703 
L 133.103343 111.072443 
L 134.037778 111.273836 
L 135.906648 111.344978 
L 138.709954 111.252584 
L 140.578824 111.443172 
L 146.185435 112.548544 
L 148.98874 112.605732 
L 156.464222 112.58952 
L 158.333092 112.553361 
L 163.005268 112.281537 
L 168.611878 112.690075 
L 172.349619 112.84616 
L 176.08736 112.94472 
L 204.120414 113.04 
L 224.677987 113.039057 
L 224.677987 113.039057 
" style="fill:none;stroke:#ffffff;stroke-linecap:round;stroke-width:2;"/>
   </g>
   <g id="line2d_6">
    <path d="M 7.2 113.04 
L 342 113.04 
" style="fill:none;stroke:#4e7493;stroke-linecap:round;stroke-width:2;"/>
   </g>
   <g id="text_3">
    <!-- 0.15 -->
    <g style="fill:#4e7493;" transform="translate(258.3 111.1953)scale(0.24 -0.24)">
     <use xlink:href="#DejaVuSans-Bold-30"/>
     <use x="69.580078" xlink:href="#DejaVuSans-Bold-2e"/>
     <use x="107.568359" xlink:href="#DejaVuSans-Bold-31"/>
     <use x="177.148438" xlink:href="#DejaVuSans-Bold-35"/>
    </g>
   </g>
  </g>
  <g id="axes_4">
   <g id="patch_5">
    <path d="M 7.2 144.792 
L 342 144.792 
L 342 102.456 
L 7.2 102.456 
z
" style="fill:none;"/>
   </g>
   <g id="matplotlib.axis_7">
    <g id="xtick_10"/>
    <g id="xtick_11"/>
    <g id="xtick_12"/>
   </g>
   <g id="matplotlib.axis_8"/>
   <g id="PolyCollection_4">
    <defs>
     <path d="M 37.174031 -166.476673 
L 37.174031 -166.475375 
L 38.117411 -166.475375 
L 39.060791 -166.475375 
L 40.004171 -166.475375 
L 40.947551 -166.475375 
L 41.890931 -166.475375 
L 42.834311 -166.475375 
L 43.777691 -166.475375 
L 44.721071 -166.475375 
L 45.664451 -166.475375 
L 46.60783 -166.475375 
L 47.55121 -166.475375 
L 48.49459 -166.475375 
L 49.43797 -166.475375 
L 50.38135 -166.475375 
L 51.32473 -166.475375 
L 52.26811 -166.475375 
L 53.21149 -166.475375 
L 54.15487 -166.475375 
L 55.09825 -166.475375 
L 56.04163 -166.475375 
L 56.98501 -166.475375 
L 57.92839 -166.475375 
L 58.87177 -166.475375 
L 59.81515 -166.475375 
L 60.75853 -166.475375 
L 61.70191 -166.475375 
L 62.64529 -166.475375 
L 63.58867 -166.475375 
L 64.53205 -166.475375 
L 65.47543 -166.475375 
L 66.41881 -166.475375 
L 67.36219 -166.475375 
L 68.30557 -166.475375 
L 69.24895 -166.475375 
L 70.19233 -166.475375 
L 71.13571 -166.475375 
L 72.07909 -166.475375 
L 73.02247 -166.475375 
L 73.96585 -166.475375 
L 74.90923 -166.475375 
L 75.852609 -166.475375 
L 76.795989 -166.475375 
L 77.739369 -166.475375 
L 78.682749 -166.475375 
L 79.626129 -166.475375 
L 80.569509 -166.475375 
L 81.512889 -166.475375 
L 82.456269 -166.475375 
L 83.399649 -166.475375 
L 84.343029 -166.475375 
L 85.286409 -166.475375 
L 86.229789 -166.475375 
L 87.173169 -166.475375 
L 88.116549 -166.475375 
L 89.059929 -166.475375 
L 90.003309 -166.475375 
L 90.946689 -166.475375 
L 91.890069 -166.475375 
L 92.833449 -166.475375 
L 93.776829 -166.475375 
L 94.720209 -166.475375 
L 95.663589 -166.475375 
L 96.606969 -166.475375 
L 97.550349 -166.475375 
L 98.493729 -166.475375 
L 99.437109 -166.475375 
L 100.380489 -166.475375 
L 101.323869 -166.475375 
L 102.267249 -166.475375 
L 103.210629 -166.475375 
L 104.154009 -166.475375 
L 105.097388 -166.475375 
L 106.040768 -166.475375 
L 106.984148 -166.475375 
L 107.927528 -166.475375 
L 108.870908 -166.475375 
L 109.814288 -166.475375 
L 110.757668 -166.475375 
L 111.701048 -166.475375 
L 112.644428 -166.475375 
L 113.587808 -166.475375 
L 114.531188 -166.475375 
L 115.474568 -166.475375 
L 116.417948 -166.475375 
L 117.361328 -166.475375 
L 118.304708 -166.475375 
L 119.248088 -166.475375 
L 120.191468 -166.475375 
L 121.134848 -166.475375 
L 122.078228 -166.475375 
L 123.021608 -166.475375 
L 123.964988 -166.475375 
L 124.908368 -166.475375 
L 125.851748 -166.475375 
L 126.795128 -166.475375 
L 127.738508 -166.475375 
L 128.681888 -166.475375 
L 129.625268 -166.475375 
L 130.568648 -166.475375 
L 131.512028 -166.475375 
L 132.455408 -166.475375 
L 133.398788 -166.475375 
L 134.342168 -166.475375 
L 135.285547 -166.475375 
L 136.228927 -166.475375 
L 137.172307 -166.475375 
L 138.115687 -166.475375 
L 139.059067 -166.475375 
L 140.002447 -166.475375 
L 140.945827 -166.475375 
L 141.889207 -166.475375 
L 142.832587 -166.475375 
L 143.775967 -166.475375 
L 144.719347 -166.475375 
L 145.662727 -166.475375 
L 146.606107 -166.475375 
L 147.549487 -166.475375 
L 148.492867 -166.475375 
L 149.436247 -166.475375 
L 150.379627 -166.475375 
L 151.323007 -166.475375 
L 152.266387 -166.475375 
L 153.209767 -166.475375 
L 154.153147 -166.475375 
L 155.096527 -166.475375 
L 156.039907 -166.475375 
L 156.983287 -166.475375 
L 157.926667 -166.475375 
L 158.870047 -166.475375 
L 159.813427 -166.475375 
L 160.756807 -166.475375 
L 161.700187 -166.475375 
L 162.643567 -166.475375 
L 163.586947 -166.475375 
L 164.530326 -166.475375 
L 165.473706 -166.475375 
L 166.417086 -166.475375 
L 167.360466 -166.475375 
L 168.303846 -166.475375 
L 169.247226 -166.475375 
L 170.190606 -166.475375 
L 171.133986 -166.475375 
L 172.077366 -166.475375 
L 173.020746 -166.475375 
L 173.964126 -166.475375 
L 174.907506 -166.475375 
L 175.850886 -166.475375 
L 176.794266 -166.475375 
L 177.737646 -166.475375 
L 178.681026 -166.475375 
L 179.624406 -166.475375 
L 180.567786 -166.475375 
L 181.511166 -166.475375 
L 182.454546 -166.475375 
L 183.397926 -166.475375 
L 184.341306 -166.475375 
L 185.284686 -166.475375 
L 186.228066 -166.475375 
L 187.171446 -166.475375 
L 188.114826 -166.475375 
L 189.058206 -166.475375 
L 190.001586 -166.475375 
L 190.944966 -166.475375 
L 191.888346 -166.475375 
L 192.831726 -166.475375 
L 193.775105 -166.475375 
L 194.718485 -166.475375 
L 195.661865 -166.475375 
L 196.605245 -166.475375 
L 197.548625 -166.475375 
L 198.492005 -166.475375 
L 199.435385 -166.475375 
L 200.378765 -166.475375 
L 201.322145 -166.475375 
L 202.265525 -166.475375 
L 203.208905 -166.475375 
L 204.152285 -166.475375 
L 205.095665 -166.475375 
L 206.039045 -166.475375 
L 206.982425 -166.475375 
L 207.925805 -166.475375 
L 208.869185 -166.475375 
L 209.812565 -166.475375 
L 210.755945 -166.475375 
L 211.699325 -166.475375 
L 212.642705 -166.475375 
L 213.586085 -166.475375 
L 214.529465 -166.475375 
L 215.472845 -166.475375 
L 216.416225 -166.475375 
L 217.359605 -166.475375 
L 218.302985 -166.475375 
L 219.246365 -166.475375 
L 220.189745 -166.475375 
L 221.133125 -166.475375 
L 222.076505 -166.475375 
L 223.019884 -166.475375 
L 223.963264 -166.475375 
L 224.906644 -166.475375 
L 224.906644 -166.476172 
L 224.906644 -166.476172 
L 223.963264 -166.477497 
L 223.019884 -166.480382 
L 222.076505 -166.485858 
L 221.133125 -166.494844 
L 220.189745 -166.507451 
L 219.246365 -166.522253 
L 218.302985 -166.536153 
L 217.359605 -166.545283 
L 216.416225 -166.546735 
L 215.472845 -166.5401 
L 214.529465 -166.527786 
L 213.586085 -166.513933 
L 212.642705 -166.502736 
L 211.699325 -166.497194 
L 210.755945 -166.498647 
L 209.812565 -166.506753 
L 208.869185 -166.519482 
L 207.925805 -166.533253 
L 206.982425 -166.543712 
L 206.039045 -166.547277 
L 205.095665 -166.542766 
L 204.152285 -166.532107 
L 203.208905 -166.519673 
L 202.265525 -166.510828 
L 201.322145 -166.51061 
L 200.378765 -166.522874 
L 199.435385 -166.549477 
L 198.492005 -166.589074 
L 197.548625 -166.636107 
L 196.605245 -166.681331 
L 195.661865 -166.714651 
L 194.718485 -166.729213 
L 193.775105 -166.724249 
L 192.831726 -166.704761 
L 191.888346 -166.678364 
L 190.944966 -166.651485 
L 190.001586 -166.627218 
L 189.058206 -166.605647 
L 188.114826 -166.585876 
L 187.171446 -166.568182 
L 186.228066 -166.554918 
L 185.284686 -166.549729 
L 184.341306 -166.555791 
L 183.397926 -166.57436 
L 182.454546 -166.604588 
L 181.511166 -166.644505 
L 180.567786 -166.692154 
L 179.624406 -166.745807 
L 178.681026 -166.803163 
L 177.737646 -166.86053 
L 176.794266 -166.913135 
L 175.850886 -166.95651 
L 174.907506 -166.987613 
L 173.964126 -167.00456 
L 173.020746 -167.005632 
L 172.077366 -166.989528 
L 171.133986 -166.957733 
L 170.190606 -166.917174 
L 169.247226 -166.880073 
L 168.303846 -166.859932 
L 167.360466 -166.866045 
L 166.417086 -166.9003 
L 165.473706 -166.957998 
L 164.530326 -167.031277 
L 163.586947 -167.112321 
L 162.643567 -167.194755 
L 161.700187 -167.273739 
L 160.756807 -167.346338 
L 159.813427 -167.412831 
L 158.870047 -167.4778 
L 157.926667 -167.548854 
L 156.983287 -167.632133 
L 156.039907 -167.726578 
L 155.096527 -167.821252 
L 154.153147 -167.899058 
L 153.209767 -167.946048 
L 152.266387 -167.960995 
L 151.323007 -167.959019 
L 150.379627 -167.966783 
L 149.436247 -168.011963 
L 148.492867 -168.112642 
L 147.549487 -168.271643 
L 146.606107 -168.477678 
L 145.662727 -168.711301 
L 144.719347 -168.951234 
L 143.775967 -169.177891 
L 142.832587 -169.374769 
L 141.889207 -169.530549 
L 140.945827 -169.642369 
L 140.002447 -169.716801 
L 139.059067 -169.765302 
L 138.115687 -169.796168 
L 137.172307 -169.809675 
L 136.228927 -169.801821 
L 135.285547 -169.775707 
L 134.342168 -169.753491 
L 133.398788 -169.780135 
L 132.455408 -169.913308 
L 131.512028 -170.200603 
L 130.568648 -170.653198 
L 129.625268 -171.229968 
L 128.681888 -171.843323 
L 127.738508 -172.387288 
L 126.795128 -172.775599 
L 125.851748 -172.971706 
L 124.908368 -172.997956 
L 123.964988 -172.923261 
L 123.021608 -172.837848 
L 122.078228 -172.825201 
L 121.134848 -172.938314 
L 120.191468 -173.185823 
L 119.248088 -173.533478 
L 118.304708 -173.92286 
L 117.361328 -174.300418 
L 116.417948 -174.641811 
L 115.474568 -174.957925 
L 114.531188 -175.280726 
L 113.587808 -175.640336 
L 112.644428 -176.048105 
L 111.701048 -176.492488 
L 110.757668 -176.94471 
L 109.814288 -177.368722 
L 108.870908 -177.733535 
L 107.927528 -178.026837 
L 106.984148 -178.264132 
L 106.040768 -178.484843 
L 105.097388 -178.733533 
L 104.154009 -179.036293 
L 103.210629 -179.387217 
L 102.267249 -179.752409 
L 101.323869 -180.087028 
L 100.380489 -180.355574 
L 99.437109 -180.548012 
L 98.493729 -180.687504 
L 97.550349 -180.825948 
L 96.606969 -181.025018 
L 95.663589 -181.326958 
L 94.720209 -181.728016 
L 93.776829 -182.170866 
L 92.833449 -182.56544 
L 91.890069 -182.831552 
L 90.946689 -182.940631 
L 90.003309 -182.930623 
L 89.059929 -182.883572 
L 88.116549 -182.880104 
L 87.173169 -182.959923 
L 86.229789 -183.110774 
L 85.286409 -183.286313 
L 84.343029 -183.434463 
L 83.399649 -183.515998 
L 82.456269 -183.506637 
L 81.512889 -183.390784 
L 80.569509 -183.158936 
L 79.626129 -182.812933 
L 78.682749 -182.373206 
L 77.739369 -181.879188 
L 76.795989 -181.37945 
L 75.852609 -180.916199 
L 74.90923 -180.512497 
L 73.96585 -180.167726 
L 73.02247 -179.86148 
L 72.07909 -179.563406 
L 71.13571 -179.2467 
L 70.19233 -178.901976 
L 69.24895 -178.544635 
L 68.30557 -178.207865 
L 67.36219 -177.920554 
L 66.41881 -177.682136 
L 65.47543 -177.453518 
L 64.53205 -177.174872 
L 63.58867 -176.800775 
L 62.64529 -176.327657 
L 61.70191 -175.793054 
L 60.75853 -175.247641 
L 59.81515 -174.720551 
L 58.87177 -174.200787 
L 57.92839 -173.644622 
L 56.98501 -173.003083 
L 56.04163 -172.253877 
L 55.09825 -171.420365 
L 54.15487 -170.566843 
L 53.21149 -169.772634 
L 52.26811 -169.100061 
L 51.32473 -168.573928 
L 50.38135 -168.180928 
L 49.43797 -167.884585 
L 48.49459 -167.644659 
L 47.55121 -167.431485 
L 46.60783 -167.23146 
L 45.664451 -167.044782 
L 44.721071 -166.879036 
L 43.777691 -166.742389 
L 42.834311 -166.639029 
L 41.890931 -166.567756 
L 40.947551 -166.523147 
L 40.004171 -166.497894 
L 39.060791 -166.485009 
L 38.117411 -166.479101 
L 37.174031 -166.476673 
z
" id="m51ced4fc54" style="stroke:#5b89a2;stroke-width:1.5;"/>
    </defs>
    <g>
     <use style="fill:#5b89a2;stroke:#5b89a2;stroke-width:1.5;" x="0" xlink:href="#m51ced4fc54" y="311.267375"/>
    </g>
   </g>
   <g id="line2d_7">
    <path d="M 37.174031 144.790702 
L 41.890931 144.699619 
L 44.721071 144.388339 
L 48.49459 143.622716 
L 50.38135 143.086447 
L 51.32473 142.693447 
L 52.26811 142.167314 
L 54.15487 140.700532 
L 56.98501 138.264292 
L 58.87177 137.066588 
L 63.58867 134.4666 
L 65.47543 133.813857 
L 68.30557 133.05951 
L 75.852609 130.351176 
L 80.569509 128.108439 
L 81.512889 127.876591 
L 83.399649 127.751377 
L 85.286409 127.981062 
L 87.173169 128.307452 
L 89.059929 128.383803 
L 90.946689 128.326744 
L 91.890069 128.435823 
L 92.833449 128.701935 
L 96.606969 130.242357 
L 98.493729 130.579871 
L 100.380489 130.911801 
L 102.267249 131.514966 
L 105.097388 132.533842 
L 108.870908 133.53384 
L 110.757668 134.322665 
L 113.587808 135.627039 
L 120.191468 138.081552 
L 121.134848 138.329061 
L 122.078228 138.442174 
L 123.964988 138.344114 
L 125.851748 138.295669 
L 126.795128 138.491776 
L 127.738508 138.880087 
L 131.512028 141.066772 
L 132.455408 141.354067 
L 134.342168 141.513884 
L 139.059067 141.502073 
L 141.889207 141.736826 
L 144.719347 142.316141 
L 147.549487 142.995732 
L 149.436247 143.255412 
L 152.266387 143.30638 
L 155.096527 143.446123 
L 160.756807 143.921037 
L 168.303846 144.407443 
L 175.850886 144.310865 
L 186.228066 144.712457 
L 197.548625 144.631268 
L 202.265525 144.756547 
L 217.359605 144.722092 
L 224.906644 144.791203 
L 224.906644 144.791203 
" style="fill:none;stroke:#ffffff;stroke-linecap:round;stroke-width:2;"/>
   </g>
   <g id="line2d_8">
    <path d="M 7.2 144.792 
L 342 144.792 
" style="fill:none;stroke:#5b89a2;stroke-linecap:round;stroke-width:2;"/>
   </g>
   <g id="text_4">
    <!-- 0.2 -->
    <g style="fill:#5b89a2;" transform="translate(258.3 142.9473)scale(0.24 -0.24)">
     <defs>
      <path d="M 1844 884 
L 3897 884 
L 3897 0 
L 506 0 
L 506 884 
L 2209 2388 
Q 2438 2594 2547 2791 
Q 2656 2988 2656 3200 
Q 2656 3528 2436 3728 
Q 2216 3928 1850 3928 
Q 1569 3928 1234 3808 
Q 900 3688 519 3450 
L 519 4475 
Q 925 4609 1322 4679 
Q 1719 4750 2100 4750 
Q 2938 4750 3402 4381 
Q 3866 4013 3866 3353 
Q 3866 2972 3669 2642 
Q 3472 2313 2841 1759 
L 1844 884 
z
" id="DejaVuSans-Bold-32" transform="scale(0.015625)"/>
     </defs>
     <use xlink:href="#DejaVuSans-Bold-30"/>
     <use x="69.580078" xlink:href="#DejaVuSans-Bold-2e"/>
     <use x="107.568359" xlink:href="#DejaVuSans-Bold-32"/>
    </g>
   </g>
  </g>
  <g id="axes_5">
   <g id="patch_6">
    <path d="M 7.2 176.544 
L 342 176.544 
L 342 134.208 
L 7.2 134.208 
z
" style="fill:none;"/>
   </g>
   <g id="matplotlib.axis_9">
    <g id="xtick_13"/>
    <g id="xtick_14"/>
    <g id="xtick_15"/>
   </g>
   <g id="matplotlib.axis_10"/>
   <g id="PolyCollection_5">
    <defs>
     <path d="M 30.446033 -134.724084 
L 30.446033 -134.723375 
L 31.492767 -134.723375 
L 32.539501 -134.723375 
L 33.586235 -134.723375 
L 34.632969 -134.723375 
L 35.679703 -134.723375 
L 36.726437 -134.723375 
L 37.773171 -134.723375 
L 38.819905 -134.723375 
L 39.866639 -134.723375 
L 40.913373 -134.723375 
L 41.960107 -134.723375 
L 43.006841 -134.723375 
L 44.053575 -134.723375 
L 45.100309 -134.723375 
L 46.147043 -134.723375 
L 47.193777 -134.723375 
L 48.240511 -134.723375 
L 49.287245 -134.723375 
L 50.333979 -134.723375 
L 51.380713 -134.723375 
L 52.427447 -134.723375 
L 53.474181 -134.723375 
L 54.520915 -134.723375 
L 55.567649 -134.723375 
L 56.614383 -134.723375 
L 57.661117 -134.723375 
L 58.707851 -134.723375 
L 59.754585 -134.723375 
L 60.801319 -134.723375 
L 61.848053 -134.723375 
L 62.894787 -134.723375 
L 63.941522 -134.723375 
L 64.988256 -134.723375 
L 66.03499 -134.723375 
L 67.081724 -134.723375 
L 68.128458 -134.723375 
L 69.175192 -134.723375 
L 70.221926 -134.723375 
L 71.26866 -134.723375 
L 72.315394 -134.723375 
L 73.362128 -134.723375 
L 74.408862 -134.723375 
L 75.455596 -134.723375 
L 76.50233 -134.723375 
L 77.549064 -134.723375 
L 78.595798 -134.723375 
L 79.642532 -134.723375 
L 80.689266 -134.723375 
L 81.736 -134.723375 
L 82.782734 -134.723375 
L 83.829468 -134.723375 
L 84.876202 -134.723375 
L 85.922936 -134.723375 
L 86.96967 -134.723375 
L 88.016404 -134.723375 
L 89.063138 -134.723375 
L 90.109872 -134.723375 
L 91.156606 -134.723375 
L 92.20334 -134.723375 
L 93.250074 -134.723375 
L 94.296808 -134.723375 
L 95.343542 -134.723375 
L 96.390276 -134.723375 
L 97.43701 -134.723375 
L 98.483744 -134.723375 
L 99.530478 -134.723375 
L 100.577212 -134.723375 
L 101.623946 -134.723375 
L 102.67068 -134.723375 
L 103.717414 -134.723375 
L 104.764148 -134.723375 
L 105.810882 -134.723375 
L 106.857616 -134.723375 
L 107.90435 -134.723375 
L 108.951084 -134.723375 
L 109.997818 -134.723375 
L 111.044552 -134.723375 
L 112.091286 -134.723375 
L 113.13802 -134.723375 
L 114.184754 -134.723375 
L 115.231488 -134.723375 
L 116.278222 -134.723375 
L 117.324956 -134.723375 
L 118.37169 -134.723375 
L 119.418424 -134.723375 
L 120.465158 -134.723375 
L 121.511892 -134.723375 
L 122.558626 -134.723375 
L 123.60536 -134.723375 
L 124.652094 -134.723375 
L 125.698828 -134.723375 
L 126.745562 -134.723375 
L 127.792296 -134.723375 
L 128.83903 -134.723375 
L 129.885764 -134.723375 
L 130.932498 -134.723375 
L 131.979232 -134.723375 
L 133.025966 -134.723375 
L 134.0727 -134.723375 
L 135.119434 -134.723375 
L 136.166168 -134.723375 
L 137.212902 -134.723375 
L 138.259636 -134.723375 
L 139.30637 -134.723375 
L 140.353104 -134.723375 
L 141.399838 -134.723375 
L 142.446573 -134.723375 
L 143.493307 -134.723375 
L 144.540041 -134.723375 
L 145.586775 -134.723375 
L 146.633509 -134.723375 
L 147.680243 -134.723375 
L 148.726977 -134.723375 
L 149.773711 -134.723375 
L 150.820445 -134.723375 
L 151.867179 -134.723375 
L 152.913913 -134.723375 
L 153.960647 -134.723375 
L 155.007381 -134.723375 
L 156.054115 -134.723375 
L 157.100849 -134.723375 
L 158.147583 -134.723375 
L 159.194317 -134.723375 
L 160.241051 -134.723375 
L 161.287785 -134.723375 
L 162.334519 -134.723375 
L 163.381253 -134.723375 
L 164.427987 -134.723375 
L 165.474721 -134.723375 
L 166.521455 -134.723375 
L 167.568189 -134.723375 
L 168.614923 -134.723375 
L 169.661657 -134.723375 
L 170.708391 -134.723375 
L 171.755125 -134.723375 
L 172.801859 -134.723375 
L 173.848593 -134.723375 
L 174.895327 -134.723375 
L 175.942061 -134.723375 
L 176.988795 -134.723375 
L 178.035529 -134.723375 
L 179.082263 -134.723375 
L 180.128997 -134.723375 
L 181.175731 -134.723375 
L 182.222465 -134.723375 
L 183.269199 -134.723375 
L 184.315933 -134.723375 
L 185.362667 -134.723375 
L 186.409401 -134.723375 
L 187.456135 -134.723375 
L 188.502869 -134.723375 
L 189.549603 -134.723375 
L 190.596337 -134.723375 
L 191.643071 -134.723375 
L 192.689805 -134.723375 
L 193.736539 -134.723375 
L 194.783273 -134.723375 
L 195.830007 -134.723375 
L 196.876741 -134.723375 
L 197.923475 -134.723375 
L 198.970209 -134.723375 
L 200.016943 -134.723375 
L 201.063677 -134.723375 
L 202.110411 -134.723375 
L 203.157145 -134.723375 
L 204.203879 -134.723375 
L 205.250613 -134.723375 
L 206.297347 -134.723375 
L 207.344081 -134.723375 
L 208.390815 -134.723375 
L 209.437549 -134.723375 
L 210.484283 -134.723375 
L 211.531017 -134.723375 
L 212.577751 -134.723375 
L 213.624485 -134.723375 
L 214.671219 -134.723375 
L 215.717953 -134.723375 
L 216.764687 -134.723375 
L 217.811421 -134.723375 
L 218.858155 -134.723375 
L 219.90489 -134.723375 
L 220.951624 -134.723375 
L 221.998358 -134.723375 
L 223.045092 -134.723375 
L 224.091826 -134.723375 
L 225.13856 -134.723375 
L 226.185294 -134.723375 
L 227.232028 -134.723375 
L 228.278762 -134.723375 
L 229.325496 -134.723375 
L 230.37223 -134.723375 
L 231.418964 -134.723375 
L 232.465698 -134.723375 
L 233.512432 -134.723375 
L 234.559166 -134.723375 
L 235.6059 -134.723375 
L 236.652634 -134.723375 
L 237.699368 -134.723375 
L 238.746102 -134.723375 
L 238.746102 -134.724553 
L 238.746102 -134.724553 
L 237.699368 -134.726517 
L 236.652634 -134.730855 
L 235.6059 -134.739286 
L 234.559166 -134.753653 
L 233.512432 -134.775038 
L 232.465698 -134.802698 
L 231.418964 -134.83361 
L 230.37223 -134.8633 
L 229.325496 -134.887794 
L 228.278762 -134.905465 
L 227.232028 -134.917331 
L 226.185294 -134.925577 
L 225.13856 -134.931502 
L 224.091826 -134.934529 
L 223.045092 -134.932806 
L 221.998358 -134.924583 
L 220.951624 -134.909237 
L 219.90489 -134.88754 
L 218.858155 -134.861485 
L 217.811421 -134.834126 
L 216.764687 -134.809392 
L 215.717953 -134.791573 
L 214.671219 -134.784284 
L 213.624485 -134.789087 
L 212.577751 -134.804291 
L 211.531017 -134.824692 
L 210.484283 -134.842899 
L 209.437549 -134.852141 
L 208.390815 -134.84938 
L 207.344081 -134.836939 
L 206.297347 -134.821493 
L 205.250613 -134.810899 
L 204.203879 -134.810571 
L 203.157145 -134.821326 
L 202.110411 -134.839675 
L 201.063677 -134.860322 
L 200.016943 -134.87947 
L 198.970209 -134.896977 
L 197.923475 -134.91597 
L 196.876741 -134.940281 
L 195.830007 -134.97177 
L 194.783273 -135.009581 
L 193.736539 -135.051395 
L 192.689805 -135.094677 
L 191.643071 -135.136231 
L 190.596337 -135.170753 
L 189.549603 -135.191006 
L 188.502869 -135.191087 
L 187.456135 -135.171085 
L 186.409401 -135.139314 
L 185.362667 -135.109597 
L 184.315933 -135.094859 
L 183.269199 -135.101284 
L 182.222465 -135.12695 
L 181.175731 -135.165399 
L 180.128997 -135.210896 
L 179.082263 -135.26137 
L 178.035529 -135.317554 
L 176.988795 -135.380053 
L 175.942061 -135.447144 
L 174.895327 -135.514741 
L 173.848593 -135.578027 
L 172.801859 -135.633466 
L 171.755125 -135.68016 
L 170.708391 -135.720073 
L 169.661657 -135.757048 
L 168.614923 -135.79495 
L 167.568189 -135.835654 
L 166.521455 -135.877671 
L 165.474721 -135.916074 
L 164.427987 -135.944113 
L 163.381253 -135.95637 
L 162.334519 -135.952378 
L 161.287785 -135.938851 
L 160.241051 -135.92887 
L 159.194317 -135.937794 
L 158.147583 -135.97757 
L 157.100849 -136.051942 
L 156.054115 -136.154758 
L 155.007381 -136.27241 
L 153.960647 -136.389872 
L 152.913913 -136.497818 
L 151.867179 -136.596937 
L 150.820445 -136.696613 
L 149.773711 -136.808853 
L 148.726977 -136.941811 
L 147.680243 -137.097018 
L 146.633509 -137.270521 
L 145.586775 -137.454775 
L 144.540041 -137.639117 
L 143.493307 -137.810417 
L 142.446573 -137.957105 
L 141.399838 -138.076207 
L 140.353104 -138.17817 
L 139.30637 -138.284005 
L 138.259636 -138.415176 
L 137.212902 -138.583033 
L 136.166168 -138.785037 
L 135.119434 -139.008965 
L 134.0727 -139.239657 
L 133.025966 -139.462218 
L 131.979232 -139.6613 
L 130.932498 -139.821834 
L 129.885764 -139.935647 
L 128.83903 -140.010863 
L 127.792296 -140.075072 
L 126.745562 -140.166318 
L 125.698828 -140.316077 
L 124.652094 -140.535778 
L 123.60536 -140.815951 
L 122.558626 -141.137147 
L 121.511892 -141.483551 
L 120.465158 -141.849887 
L 119.418424 -142.238705 
L 118.37169 -142.651955 
L 117.324956 -143.083041 
L 116.278222 -143.513711 
L 115.231488 -143.917285 
L 114.184754 -144.267405 
L 113.13802 -144.548928 
L 112.091286 -144.765186 
L 111.044552 -144.936384 
L 109.997818 -145.089394 
L 108.951084 -145.24622 
L 107.90435 -145.419917 
L 106.857616 -145.619685 
L 105.810882 -145.857383 
L 104.764148 -146.145683 
L 103.717414 -146.486686 
L 102.67068 -146.860847 
L 101.623946 -147.228473 
L 100.577212 -147.546669 
L 99.530478 -147.791605 
L 98.483744 -147.971127 
L 97.43701 -148.119673 
L 96.390276 -148.279441 
L 95.343542 -148.47893 
L 94.296808 -148.719101 
L 93.250074 -148.972533 
L 92.20334 -149.195861 
L 91.156606 -149.350834 
L 90.109872 -149.424434 
L 89.063138 -149.437034 
L 88.016404 -149.433234 
L 86.96967 -149.460556 
L 85.922936 -149.548819 
L 84.876202 -149.701371 
L 83.829468 -149.900271 
L 82.782734 -150.118695 
L 81.736 -150.331188 
L 80.689266 -150.51602 
L 79.642532 -150.650543 
L 78.595798 -150.706345 
L 77.549064 -150.652289 
L 76.50233 -150.467695 
L 75.455596 -150.157934 
L 74.408862 -149.759414 
L 73.362128 -149.326926 
L 72.315394 -148.909519 
L 71.26866 -148.529747 
L 70.221926 -148.177386 
L 69.175192 -147.817355 
L 68.128458 -147.403918 
L 67.081724 -146.894521 
L 66.03499 -146.261531 
L 64.988256 -145.501225 
L 63.941522 -144.636799 
L 62.894787 -143.712255 
L 61.848053 -142.779233 
L 60.801319 -141.884096 
L 59.754585 -141.06162 
L 58.707851 -140.335244 
L 57.661117 -139.718659 
L 56.614383 -139.214477 
L 55.567649 -138.811095 
L 54.520915 -138.482624 
L 53.474181 -138.195028 
L 52.427447 -137.916357 
L 51.380713 -137.625555 
L 50.333979 -137.315501 
L 49.287245 -136.990096 
L 48.240511 -136.658592 
L 47.193777 -136.330993 
L 46.147043 -136.016591 
L 45.100309 -135.724926 
L 44.053575 -135.466523 
L 43.006841 -135.251251 
L 41.960107 -135.084708 
L 40.913373 -134.965386 
L 39.866639 -134.885072 
L 38.819905 -134.832367 
L 37.773171 -134.796909 
L 36.726437 -134.771811 
L 35.679703 -134.753621 
L 34.632969 -134.740854 
L 33.586235 -134.732575 
L 32.539501 -134.727743 
L 31.492767 -134.725235 
L 30.446033 -134.724084 
z
" id="mb5f7910833" style="stroke:#6b9daf;stroke-width:1.5;"/>
    </defs>
    <g>
     <use style="fill:#6b9daf;stroke:#6b9daf;stroke-width:1.5;" x="0" xlink:href="#mb5f7910833" y="311.267375"/>
    </g>
   </g>
   <g id="line2d_9">
    <path d="M 30.446033 176.543291 
L 38.819905 176.435008 
L 41.960107 176.182667 
L 44.053575 175.800852 
L 47.193777 174.936382 
L 53.474181 173.072347 
L 55.567649 172.45628 
L 57.661117 171.548716 
L 59.754585 170.205755 
L 61.848053 168.488142 
L 64.988256 165.76615 
L 67.081724 164.372854 
L 69.175192 163.45002 
L 73.362128 161.940449 
L 75.455596 161.109441 
L 76.50233 160.79968 
L 77.549064 160.615086 
L 79.642532 160.616832 
L 81.736 160.936187 
L 85.922936 161.718556 
L 88.016404 161.834141 
L 91.156606 161.916541 
L 93.250074 162.294842 
L 96.390276 162.987934 
L 100.577212 163.720706 
L 103.717414 164.780689 
L 105.810882 165.409992 
L 108.951084 166.021155 
L 113.13802 166.718447 
L 115.231488 167.35009 
L 122.558626 170.130228 
L 124.652094 170.731597 
L 126.745562 171.101057 
L 131.979232 171.606075 
L 140.353104 173.089205 
L 143.493307 173.456958 
L 150.820445 174.570762 
L 159.194317 175.329581 
L 169.661657 175.510327 
L 175.942061 175.820231 
L 182.222465 176.140425 
L 185.362667 176.157778 
L 190.596337 176.096622 
L 204.203879 176.456804 
L 221.998358 176.342792 
L 229.325496 176.379581 
L 238.746102 176.542822 
L 238.746102 176.542822 
" style="fill:none;stroke:#ffffff;stroke-linecap:round;stroke-width:2;"/>
   </g>
   <g id="line2d_10">
    <path d="M 7.2 176.544 
L 342 176.544 
" style="fill:none;stroke:#6b9daf;stroke-linecap:round;stroke-width:2;"/>
   </g>
   <g id="text_5">
    <!-- 0.25 -->
    <g style="fill:#6b9daf;" transform="translate(258.3 174.6993)scale(0.24 -0.24)">
     <use xlink:href="#DejaVuSans-Bold-30"/>
     <use x="69.580078" xlink:href="#DejaVuSans-Bold-2e"/>
     <use x="107.568359" xlink:href="#DejaVuSans-Bold-32"/>
     <use x="177.148438" xlink:href="#DejaVuSans-Bold-35"/>
    </g>
   </g>
  </g>
  <g id="axes_6">
   <g id="patch_7">
    <path d="M 7.2 208.296 
L 342 208.296 
L 342 165.96 
L 7.2 165.96 
z
" style="fill:none;"/>
   </g>
   <g id="matplotlib.axis_11">
    <g id="xtick_16"/>
    <g id="xtick_17"/>
    <g id="xtick_18"/>
   </g>
   <g id="matplotlib.axis_12"/>
   <g id="PolyCollection_6">
    <defs>
     <path d="M 24.210209 -102.972443 
L 24.210209 -102.971375 
L 25.404972 -102.971375 
L 26.599735 -102.971375 
L 27.794498 -102.971375 
L 28.989261 -102.971375 
L 30.184024 -102.971375 
L 31.378787 -102.971375 
L 32.57355 -102.971375 
L 33.768313 -102.971375 
L 34.963076 -102.971375 
L 36.157839 -102.971375 
L 37.352602 -102.971375 
L 38.547365 -102.971375 
L 39.742128 -102.971375 
L 40.936891 -102.971375 
L 42.131654 -102.971375 
L 43.326417 -102.971375 
L 44.52118 -102.971375 
L 45.715943 -102.971375 
L 46.910706 -102.971375 
L 48.10547 -102.971375 
L 49.300233 -102.971375 
L 50.494996 -102.971375 
L 51.689759 -102.971375 
L 52.884522 -102.971375 
L 54.079285 -102.971375 
L 55.274048 -102.971375 
L 56.468811 -102.971375 
L 57.663574 -102.971375 
L 58.858337 -102.971375 
L 60.0531 -102.971375 
L 61.247863 -102.971375 
L 62.442626 -102.971375 
L 63.637389 -102.971375 
L 64.832152 -102.971375 
L 66.026915 -102.971375 
L 67.221678 -102.971375 
L 68.416441 -102.971375 
L 69.611204 -102.971375 
L 70.805967 -102.971375 
L 72.00073 -102.971375 
L 73.195493 -102.971375 
L 74.390256 -102.971375 
L 75.585019 -102.971375 
L 76.779782 -102.971375 
L 77.974545 -102.971375 
L 79.169308 -102.971375 
L 80.364072 -102.971375 
L 81.558835 -102.971375 
L 82.753598 -102.971375 
L 83.948361 -102.971375 
L 85.143124 -102.971375 
L 86.337887 -102.971375 
L 87.53265 -102.971375 
L 88.727413 -102.971375 
L 89.922176 -102.971375 
L 91.116939 -102.971375 
L 92.311702 -102.971375 
L 93.506465 -102.971375 
L 94.701228 -102.971375 
L 95.895991 -102.971375 
L 97.090754 -102.971375 
L 98.285517 -102.971375 
L 99.48028 -102.971375 
L 100.675043 -102.971375 
L 101.869806 -102.971375 
L 103.064569 -102.971375 
L 104.259332 -102.971375 
L 105.454095 -102.971375 
L 106.648858 -102.971375 
L 107.843621 -102.971375 
L 109.038384 -102.971375 
L 110.233147 -102.971375 
L 111.42791 -102.971375 
L 112.622674 -102.971375 
L 113.817437 -102.971375 
L 115.0122 -102.971375 
L 116.206963 -102.971375 
L 117.401726 -102.971375 
L 118.596489 -102.971375 
L 119.791252 -102.971375 
L 120.986015 -102.971375 
L 122.180778 -102.971375 
L 123.375541 -102.971375 
L 124.570304 -102.971375 
L 125.765067 -102.971375 
L 126.95983 -102.971375 
L 128.154593 -102.971375 
L 129.349356 -102.971375 
L 130.544119 -102.971375 
L 131.738882 -102.971375 
L 132.933645 -102.971375 
L 134.128408 -102.971375 
L 135.323171 -102.971375 
L 136.517934 -102.971375 
L 137.712697 -102.971375 
L 138.90746 -102.971375 
L 140.102223 -102.971375 
L 141.296986 -102.971375 
L 142.491749 -102.971375 
L 143.686512 -102.971375 
L 144.881276 -102.971375 
L 146.076039 -102.971375 
L 147.270802 -102.971375 
L 148.465565 -102.971375 
L 149.660328 -102.971375 
L 150.855091 -102.971375 
L 152.049854 -102.971375 
L 153.244617 -102.971375 
L 154.43938 -102.971375 
L 155.634143 -102.971375 
L 156.828906 -102.971375 
L 158.023669 -102.971375 
L 159.218432 -102.971375 
L 160.413195 -102.971375 
L 161.607958 -102.971375 
L 162.802721 -102.971375 
L 163.997484 -102.971375 
L 165.192247 -102.971375 
L 166.38701 -102.971375 
L 167.581773 -102.971375 
L 168.776536 -102.971375 
L 169.971299 -102.971375 
L 171.166062 -102.971375 
L 172.360825 -102.971375 
L 173.555588 -102.971375 
L 174.750351 -102.971375 
L 175.945114 -102.971375 
L 177.139877 -102.971375 
L 178.334641 -102.971375 
L 179.529404 -102.971375 
L 180.724167 -102.971375 
L 181.91893 -102.971375 
L 183.113693 -102.971375 
L 184.308456 -102.971375 
L 185.503219 -102.971375 
L 186.697982 -102.971375 
L 187.892745 -102.971375 
L 189.087508 -102.971375 
L 190.282271 -102.971375 
L 191.477034 -102.971375 
L 192.671797 -102.971375 
L 193.86656 -102.971375 
L 195.061323 -102.971375 
L 196.256086 -102.971375 
L 197.450849 -102.971375 
L 198.645612 -102.971375 
L 199.840375 -102.971375 
L 201.035138 -102.971375 
L 202.229901 -102.971375 
L 203.424664 -102.971375 
L 204.619427 -102.971375 
L 205.81419 -102.971375 
L 207.008953 -102.971375 
L 208.203716 -102.971375 
L 209.398479 -102.971375 
L 210.593243 -102.971375 
L 211.788006 -102.971375 
L 212.982769 -102.971375 
L 214.177532 -102.971375 
L 215.372295 -102.971375 
L 216.567058 -102.971375 
L 217.761821 -102.971375 
L 218.956584 -102.971375 
L 220.151347 -102.971375 
L 221.34611 -102.971375 
L 222.540873 -102.971375 
L 223.735636 -102.971375 
L 224.930399 -102.971375 
L 226.125162 -102.971375 
L 227.319925 -102.971375 
L 228.514688 -102.971375 
L 229.709451 -102.971375 
L 230.904214 -102.971375 
L 232.098977 -102.971375 
L 233.29374 -102.971375 
L 234.488503 -102.971375 
L 235.683266 -102.971375 
L 236.878029 -102.971375 
L 238.072792 -102.971375 
L 239.267555 -102.971375 
L 240.462318 -102.971375 
L 241.657081 -102.971375 
L 242.851845 -102.971375 
L 244.046608 -102.971375 
L 245.241371 -102.971375 
L 246.436134 -102.971375 
L 247.630897 -102.971375 
L 248.82566 -102.971375 
L 250.020423 -102.971375 
L 251.215186 -102.971375 
L 252.409949 -102.971375 
L 253.604712 -102.971375 
L 254.799475 -102.971375 
L 255.994238 -102.971375 
L 257.189001 -102.971375 
L 258.383764 -102.971375 
L 259.578527 -102.971375 
L 260.77329 -102.971375 
L 261.968053 -102.971375 
L 261.968053 -102.97209 
L 261.968053 -102.97209 
L 260.77329 -102.973324 
L 259.578527 -102.976144 
L 258.383764 -102.981877 
L 257.189001 -102.992219 
L 255.994238 -103.008728 
L 254.799475 -103.031901 
L 253.604712 -103.060166 
L 252.409949 -103.089385 
L 251.215186 -103.113499 
L 250.020423 -103.126415 
L 248.82566 -103.124434 
L 247.630897 -103.107942 
L 246.436134 -103.081337 
L 245.241371 -103.051155 
L 244.046608 -103.023496 
L 242.851845 -103.002148 
L 241.657081 -102.988222 
L 240.462318 -102.981027 
L 239.267555 -102.97933 
L 238.072792 -102.982192 
L 236.878029 -102.989033 
L 235.683266 -102.999117 
L 234.488503 -103.010996 
L 233.29374 -103.022545 
L 232.098977 -103.031869 
L 230.904214 -103.038677 
L 229.709451 -103.045136 
L 228.514688 -103.055298 
L 227.319925 -103.073128 
L 226.125162 -103.100214 
L 224.930399 -103.134595 
L 223.735636 -103.171452 
L 222.540873 -103.205194 
L 221.34611 -103.231742 
L 220.151347 -103.249943 
L 218.956584 -103.261718 
L 217.761821 -103.27106 
L 216.567058 -103.282296 
L 215.372295 -103.298296 
L 214.177532 -103.319564 
L 212.982769 -103.344774 
L 211.788006 -103.372253 
L 210.593243 -103.400867 
L 209.398479 -103.429116 
L 208.203716 -103.45314 
L 207.008953 -103.46599 
L 205.81419 -103.460005 
L 204.619427 -103.431437 
L 203.424664 -103.384008 
L 202.229901 -103.328543 
L 201.035138 -103.278763 
L 199.840375 -103.246239 
L 198.645612 -103.237653 
L 197.450849 -103.255213 
L 196.256086 -103.29836 
L 195.061323 -103.364383 
L 193.86656 -103.447439 
L 192.671797 -103.537878 
L 191.477034 -103.624029 
L 190.282271 -103.696278 
L 189.087508 -103.750513 
L 187.892745 -103.788027 
L 186.697982 -103.811982 
L 185.503219 -103.823772 
L 184.308456 -103.822615 
L 183.113693 -103.808544 
L 181.91893 -103.785599 
L 180.724167 -103.761817 
L 179.529404 -103.745612 
L 178.334641 -103.741493 
L 177.139877 -103.748716 
L 175.945114 -103.763925 
L 174.750351 -103.785559 
L 173.555588 -103.816526 
L 172.360825 -103.863232 
L 171.166062 -103.93194 
L 169.971299 -104.025348 
L 168.776536 -104.142037 
L 167.581773 -104.279129 
L 166.38701 -104.435641 
L 165.192247 -104.612795 
L 163.997484 -104.809664 
L 162.802721 -105.017 
L 161.607958 -105.214989 
L 160.413195 -105.378655 
L 159.218432 -105.488749 
L 158.023669 -105.541403 
L 156.828906 -105.550523 
L 155.634143 -105.541871 
L 154.43938 -105.542674 
L 153.244617 -105.572076 
L 152.049854 -105.635789 
L 150.855091 -105.725287 
L 149.660328 -105.820426 
L 148.465565 -105.895203 
L 147.270802 -105.927043 
L 146.076039 -105.908048 
L 144.881276 -105.852897 
L 143.686512 -105.797389 
L 142.491749 -105.786418 
L 141.296986 -105.857269 
L 140.102223 -106.027016 
L 138.90746 -106.28929 
L 137.712697 -106.619559 
L 136.517934 -106.98465 
L 135.323171 -107.352859 
L 134.128408 -107.702399 
L 132.933645 -108.025931 
L 131.738882 -108.328779 
L 130.544119 -108.621181 
L 129.349356 -108.909272 
L 128.154593 -109.190846 
L 126.95983 -109.457682 
L 125.765067 -109.700567 
L 124.570304 -109.911944 
L 123.375541 -110.085412 
L 122.180778 -110.215727 
L 120.986015 -110.302715 
L 119.791252 -110.358052 
L 118.596489 -110.409708 
L 117.401726 -110.498851 
L 116.206963 -110.668289 
L 115.0122 -110.946929 
L 113.817437 -111.337662 
L 112.622674 -111.814829 
L 111.42791 -112.332777 
L 110.233147 -112.841366 
L 109.038384 -113.300683 
L 107.843621 -113.688431 
L 106.648858 -113.999165 
L 105.454095 -114.240014 
L 104.259332 -114.42761 
L 103.064569 -114.586278 
L 101.869806 -114.744517 
L 100.675043 -114.929247 
L 99.48028 -115.160825 
L 98.285517 -115.450361 
L 97.090754 -115.796606 
L 95.895991 -116.180051 
L 94.701228 -116.558871 
L 93.506465 -116.875913 
L 92.311702 -117.080199 
L 91.116939 -117.153383 
L 89.922176 -117.123417 
L 88.727413 -117.052925 
L 87.53265 -117.006149 
L 86.337887 -117.014191 
L 85.143124 -117.061002 
L 83.948361 -117.098509 
L 82.753598 -117.078671 
L 81.558835 -116.97999 
L 80.364072 -116.813638 
L 79.169308 -116.610852 
L 77.974545 -116.403635 
L 76.779782 -116.209549 
L 75.585019 -116.02487 
L 74.390256 -115.826295 
L 73.195493 -115.580219 
L 72.00073 -115.25712 
L 70.805967 -114.845704 
L 69.611204 -114.36002 
L 68.416441 -113.835043 
L 67.221678 -113.311948 
L 66.026915 -112.820495 
L 64.832152 -112.368409 
L 63.637389 -111.943754 
L 62.442626 -111.527631 
L 61.247863 -111.107468 
L 60.0531 -110.681557 
L 58.858337 -110.252872 
L 57.663574 -109.818432 
L 56.468811 -109.363257 
L 55.274048 -108.864232 
L 54.079285 -108.3022 
L 52.884522 -107.675082 
L 51.689759 -107.003978 
L 50.494996 -106.328316 
L 49.300233 -105.692477 
L 48.10547 -105.131096 
L 46.910706 -104.660427 
L 45.715943 -104.279046 
L 44.52118 -103.975498 
L 43.326417 -103.737038 
L 42.131654 -103.55435 
L 40.936891 -103.420952 
L 39.742128 -103.32982 
L 38.547365 -103.27092 
L 37.352602 -103.231694 
L 36.157839 -103.199967 
L 34.963076 -103.167245 
L 33.768313 -103.130468 
L 32.57355 -103.091436 
L 31.378787 -103.05447 
L 30.184024 -103.023674 
L 28.989261 -103.001138 
L 27.794498 -102.986629 
L 26.599735 -102.978396 
L 25.404972 -102.97427 
L 24.210209 -102.972443 
z
" id="mf951cce367" style="stroke:#7cafbb;stroke-width:1.5;"/>
    </defs>
    <g>
     <use style="fill:#7cafbb;stroke:#7cafbb;stroke-width:1.5;" x="0" xlink:href="#mf951cce367" y="311.267375"/>
    </g>
   </g>
   <g id="line2d_11">
    <path d="M 24.210209 208.294932 
L 32.57355 208.175939 
L 40.936891 207.846423 
L 43.326417 207.530337 
L 45.715943 206.988329 
L 48.10547 206.136279 
L 50.494996 204.939059 
L 54.079285 202.965175 
L 56.468811 201.904118 
L 62.442626 199.739744 
L 66.026915 198.44688 
L 72.00073 196.010255 
L 74.390256 195.44108 
L 81.558835 194.287385 
L 83.948361 194.168866 
L 88.727413 194.21445 
L 91.116939 194.113992 
L 92.311702 194.187176 
L 93.506465 194.391462 
L 95.895991 195.087324 
L 98.285517 195.817014 
L 100.675043 196.338128 
L 106.648858 197.26821 
L 109.038384 197.966692 
L 112.622674 199.452546 
L 115.0122 200.320446 
L 117.401726 200.768524 
L 124.570304 201.355431 
L 128.154593 202.076529 
L 134.128408 203.564976 
L 140.102223 205.240359 
L 142.491749 205.480957 
L 149.660328 205.446949 
L 154.43938 205.724701 
L 159.218432 205.778626 
L 161.607958 206.052386 
L 167.581773 206.988246 
L 171.166062 207.335435 
L 175.945114 207.50345 
L 181.91893 207.481776 
L 186.697982 207.455393 
L 191.477034 207.643346 
L 197.450849 208.012162 
L 201.035138 207.988612 
L 207.008953 207.801385 
L 222.540873 208.062181 
L 232.098977 208.235506 
L 244.046608 208.243879 
L 251.215186 208.153876 
L 261.968053 208.295285 
L 261.968053 208.295285 
" style="fill:none;stroke:#ffffff;stroke-linecap:round;stroke-width:2;"/>
   </g>
   <g id="line2d_12">
    <path d="M 7.2 208.296 
L 342 208.296 
" style="fill:none;stroke:#7cafbb;stroke-linecap:round;stroke-width:2;"/>
   </g>
   <g id="text_6">
    <!-- 0.3 -->
    <g style="fill:#7cafbb;" transform="translate(258.3 206.4513)scale(0.24 -0.24)">
     <defs>
      <path d="M 2981 2516 
Q 3453 2394 3698 2092 
Q 3944 1791 3944 1325 
Q 3944 631 3412 270 
Q 2881 -91 1863 -91 
Q 1503 -91 1142 -33 
Q 781 25 428 141 
L 428 1069 
Q 766 900 1098 814 
Q 1431 728 1753 728 
Q 2231 728 2486 893 
Q 2741 1059 2741 1369 
Q 2741 1688 2480 1852 
Q 2219 2016 1709 2016 
L 1228 2016 
L 1228 2791 
L 1734 2791 
Q 2188 2791 2409 2933 
Q 2631 3075 2631 3366 
Q 2631 3634 2415 3781 
Q 2200 3928 1806 3928 
Q 1516 3928 1219 3862 
Q 922 3797 628 3669 
L 628 4550 
Q 984 4650 1334 4700 
Q 1684 4750 2022 4750 
Q 2931 4750 3382 4451 
Q 3834 4153 3834 3553 
Q 3834 3144 3618 2883 
Q 3403 2622 2981 2516 
z
" id="DejaVuSans-Bold-33" transform="scale(0.015625)"/>
     </defs>
     <use xlink:href="#DejaVuSans-Bold-30"/>
     <use x="69.580078" xlink:href="#DejaVuSans-Bold-2e"/>
     <use x="107.568359" xlink:href="#DejaVuSans-Bold-33"/>
    </g>
   </g>
  </g>
  <g id="axes_7">
   <g id="patch_8">
    <path d="M 7.2 240.048 
L 342 240.048 
L 342 197.712 
L 7.2 197.712 
z
" style="fill:none;"/>
   </g>
   <g id="matplotlib.axis_13">
    <g id="xtick_19">
     <g id="text_7">
      <!-- 0 -->
      <g style="fill:#262626;" transform="translate(10.18765 272.264563)scale(0.22 -0.22)">
       <defs>
        <path d="M 2034 4250 
Q 1547 4250 1301 3770 
Q 1056 3291 1056 2328 
Q 1056 1369 1301 889 
Q 1547 409 2034 409 
Q 2525 409 2770 889 
Q 3016 1369 3016 2328 
Q 3016 3291 2770 3770 
Q 2525 4250 2034 4250 
z
M 2034 4750 
Q 2819 4750 3233 4129 
Q 3647 3509 3647 2328 
Q 3647 1150 3233 529 
Q 2819 -91 2034 -91 
Q 1250 -91 836 529 
Q 422 1150 422 2328 
Q 422 3509 836 4129 
Q 1250 4750 2034 4750 
z
" id="DejaVuSans-30" transform="scale(0.015625)"/>
       </defs>
       <use xlink:href="#DejaVuSans-30"/>
      </g>
     </g>
    </g>
    <g id="xtick_20">
     <g id="text_8">
      <!-- 1 -->
      <g style="fill:#262626;" transform="translate(120.528974 272.264563)scale(0.22 -0.22)">
       <defs>
        <path d="M 794 531 
L 1825 531 
L 1825 4091 
L 703 3866 
L 703 4441 
L 1819 4666 
L 2450 4666 
L 2450 531 
L 3481 531 
L 3481 0 
L 794 0 
L 794 531 
z
" id="DejaVuSans-31" transform="scale(0.015625)"/>
       </defs>
       <use xlink:href="#DejaVuSans-31"/>
      </g>
     </g>
    </g>
    <g id="xtick_21">
     <g id="text_9">
      <!-- 2 -->
      <g style="fill:#262626;" transform="translate(230.870298 272.264563)scale(0.22 -0.22)">
       <defs>
        <path d="M 1228 531 
L 3431 531 
L 3431 0 
L 469 0 
L 469 531 
Q 828 903 1448 1529 
Q 2069 2156 2228 2338 
Q 2531 2678 2651 2914 
Q 2772 3150 2772 3378 
Q 2772 3750 2511 3984 
Q 2250 4219 1831 4219 
Q 1534 4219 1204 4116 
Q 875 4013 500 3803 
L 500 4441 
Q 881 4594 1212 4672 
Q 1544 4750 1819 4750 
Q 2544 4750 2975 4387 
Q 3406 4025 3406 3419 
Q 3406 3131 3298 2873 
Q 3191 2616 2906 2266 
Q 2828 2175 2409 1742 
Q 1991 1309 1228 531 
z
" id="DejaVuSans-32" transform="scale(0.015625)"/>
       </defs>
       <use xlink:href="#DejaVuSans-32"/>
      </g>
     </g>
    </g>
    <g id="text_10">
     <!-- $E$ -->
     <g style="fill:#262626;" transform="translate(166.92 299.076125)scale(0.24 -0.24)">
      <defs>
       <path d="M 1081 4666 
L 4031 4666 
L 3928 4134 
L 1606 4134 
L 1338 2753 
L 3566 2753 
L 3463 2222 
L 1234 2222 
L 909 531 
L 3284 531 
L 3181 0 
L 172 0 
L 1081 4666 
z
" id="DejaVuSans-Oblique-45" transform="scale(0.015625)"/>
      </defs>
      <use transform="translate(0 0.09375)" xlink:href="#DejaVuSans-Oblique-45"/>
     </g>
    </g>
   </g>
   <g id="matplotlib.axis_14"/>
   <g id="PolyCollection_7">
    <defs>
     <path d="M 22.418182 -71.220741 
L 22.418182 -71.219375 
L 23.947647 -71.219375 
L 25.477113 -71.219375 
L 27.006578 -71.219375 
L 28.536044 -71.219375 
L 30.065509 -71.219375 
L 31.594975 -71.219375 
L 33.12444 -71.219375 
L 34.653906 -71.219375 
L 36.183371 -71.219375 
L 37.712837 -71.219375 
L 39.242302 -71.219375 
L 40.771768 -71.219375 
L 42.301233 -71.219375 
L 43.830699 -71.219375 
L 45.360164 -71.219375 
L 46.88963 -71.219375 
L 48.419095 -71.219375 
L 49.948561 -71.219375 
L 51.478026 -71.219375 
L 53.007492 -71.219375 
L 54.536958 -71.219375 
L 56.066423 -71.219375 
L 57.595889 -71.219375 
L 59.125354 -71.219375 
L 60.65482 -71.219375 
L 62.184285 -71.219375 
L 63.713751 -71.219375 
L 65.243216 -71.219375 
L 66.772682 -71.219375 
L 68.302147 -71.219375 
L 69.831613 -71.219375 
L 71.361078 -71.219375 
L 72.890544 -71.219375 
L 74.420009 -71.219375 
L 75.949475 -71.219375 
L 77.47894 -71.219375 
L 79.008406 -71.219375 
L 80.537871 -71.219375 
L 82.067337 -71.219375 
L 83.596802 -71.219375 
L 85.126268 -71.219375 
L 86.655733 -71.219375 
L 88.185199 -71.219375 
L 89.714664 -71.219375 
L 91.24413 -71.219375 
L 92.773595 -71.219375 
L 94.303061 -71.219375 
L 95.832526 -71.219375 
L 97.361992 -71.219375 
L 98.891457 -71.219375 
L 100.420923 -71.219375 
L 101.950388 -71.219375 
L 103.479854 -71.219375 
L 105.009319 -71.219375 
L 106.538785 -71.219375 
L 108.06825 -71.219375 
L 109.597716 -71.219375 
L 111.127181 -71.219375 
L 112.656647 -71.219375 
L 114.186112 -71.219375 
L 115.715578 -71.219375 
L 117.245043 -71.219375 
L 118.774509 -71.219375 
L 120.303974 -71.219375 
L 121.83344 -71.219375 
L 123.362905 -71.219375 
L 124.892371 -71.219375 
L 126.421836 -71.219375 
L 127.951302 -71.219375 
L 129.480767 -71.219375 
L 131.010233 -71.219375 
L 132.539698 -71.219375 
L 134.069164 -71.219375 
L 135.59863 -71.219375 
L 137.128095 -71.219375 
L 138.657561 -71.219375 
L 140.187026 -71.219375 
L 141.716492 -71.219375 
L 143.245957 -71.219375 
L 144.775423 -71.219375 
L 146.304888 -71.219375 
L 147.834354 -71.219375 
L 149.363819 -71.219375 
L 150.893285 -71.219375 
L 152.42275 -71.219375 
L 153.952216 -71.219375 
L 155.481681 -71.219375 
L 157.011147 -71.219375 
L 158.540612 -71.219375 
L 160.070078 -71.219375 
L 161.599543 -71.219375 
L 163.129009 -71.219375 
L 164.658474 -71.219375 
L 166.18794 -71.219375 
L 167.717405 -71.219375 
L 169.246871 -71.219375 
L 170.776336 -71.219375 
L 172.305802 -71.219375 
L 173.835267 -71.219375 
L 175.364733 -71.219375 
L 176.894198 -71.219375 
L 178.423664 -71.219375 
L 179.953129 -71.219375 
L 181.482595 -71.219375 
L 183.01206 -71.219375 
L 184.541526 -71.219375 
L 186.070991 -71.219375 
L 187.600457 -71.219375 
L 189.129922 -71.219375 
L 190.659388 -71.219375 
L 192.188853 -71.219375 
L 193.718319 -71.219375 
L 195.247784 -71.219375 
L 196.77725 -71.219375 
L 198.306715 -71.219375 
L 199.836181 -71.219375 
L 201.365646 -71.219375 
L 202.895112 -71.219375 
L 204.424577 -71.219375 
L 205.954043 -71.219375 
L 207.483508 -71.219375 
L 209.012974 -71.219375 
L 210.542439 -71.219375 
L 212.071905 -71.219375 
L 213.60137 -71.219375 
L 215.130836 -71.219375 
L 216.660302 -71.219375 
L 218.189767 -71.219375 
L 219.719233 -71.219375 
L 221.248698 -71.219375 
L 222.778164 -71.219375 
L 224.307629 -71.219375 
L 225.837095 -71.219375 
L 227.36656 -71.219375 
L 228.896026 -71.219375 
L 230.425491 -71.219375 
L 231.954957 -71.219375 
L 233.484422 -71.219375 
L 235.013888 -71.219375 
L 236.543353 -71.219375 
L 238.072819 -71.219375 
L 239.602284 -71.219375 
L 241.13175 -71.219375 
L 242.661215 -71.219375 
L 244.190681 -71.219375 
L 245.720146 -71.219375 
L 247.249612 -71.219375 
L 248.779077 -71.219375 
L 250.308543 -71.219375 
L 251.838008 -71.219375 
L 253.367474 -71.219375 
L 254.896939 -71.219375 
L 256.426405 -71.219375 
L 257.95587 -71.219375 
L 259.485336 -71.219375 
L 261.014801 -71.219375 
L 262.544267 -71.219375 
L 264.073732 -71.219375 
L 265.603198 -71.219375 
L 267.132663 -71.219375 
L 268.662129 -71.219375 
L 270.191594 -71.219375 
L 271.72106 -71.219375 
L 273.250525 -71.219375 
L 274.779991 -71.219375 
L 276.309456 -71.219375 
L 277.838922 -71.219375 
L 279.368387 -71.219375 
L 280.897853 -71.219375 
L 282.427318 -71.219375 
L 283.956784 -71.219375 
L 285.486249 -71.219375 
L 287.015715 -71.219375 
L 288.54518 -71.219375 
L 290.074646 -71.219375 
L 291.604111 -71.219375 
L 293.133577 -71.219375 
L 294.663042 -71.219375 
L 296.192508 -71.219375 
L 297.721974 -71.219375 
L 299.251439 -71.219375 
L 300.780905 -71.219375 
L 302.31037 -71.219375 
L 303.839836 -71.219375 
L 305.369301 -71.219375 
L 306.898767 -71.219375 
L 308.428232 -71.219375 
L 309.957698 -71.219375 
L 311.487163 -71.219375 
L 313.016629 -71.219375 
L 314.546094 -71.219375 
L 316.07556 -71.219375 
L 317.605025 -71.219375 
L 319.134491 -71.219375 
L 320.663956 -71.219375 
L 322.193422 -71.219375 
L 323.722887 -71.219375 
L 325.252353 -71.219375 
L 326.781818 -71.219375 
L 326.781818 -71.219901 
L 326.781818 -71.219901 
L 325.252353 -71.220868 
L 323.722887 -71.223067 
L 322.193422 -71.227335 
L 320.663956 -71.234336 
L 319.134491 -71.243889 
L 317.605025 -71.254392 
L 316.07556 -71.262984 
L 314.546094 -71.26672 
L 313.016629 -71.264187 
L 311.487163 -71.256352 
L 309.957698 -71.24598 
L 308.428232 -71.236081 
L 306.898767 -71.228595 
L 305.369301 -71.224064 
L 303.839836 -71.222207 
L 302.31037 -71.22271 
L 300.780905 -71.225707 
L 299.251439 -71.231688 
L 297.721974 -71.240935 
L 296.192508 -71.252835 
L 294.663042 -71.265663 
L 293.133577 -71.277174 
L 291.604111 -71.285674 
L 290.074646 -71.290722 
L 288.54518 -71.292997 
L 287.015715 -71.293824 
L 285.486249 -71.294972 
L 283.956784 -71.2985 
L 282.427318 -71.305856 
L 280.897853 -71.316408 
L 279.368387 -71.326913 
L 277.838922 -71.333081 
L 276.309456 -71.332222 
L 274.779991 -71.324625 
L 273.250525 -71.312554 
L 271.72106 -71.298236 
L 270.191594 -71.282902 
L 268.662129 -71.267361 
L 267.132663 -71.252848 
L 265.603198 -71.241092 
L 264.073732 -71.233804 
L 262.544267 -71.232388 
L 261.014801 -71.238082 
L 259.485336 -71.251962 
L 257.95587 -71.274244 
L 256.426405 -71.303159 
L 254.896939 -71.334354 
L 253.367474 -71.361607 
L 251.838008 -71.378715 
L 250.308543 -71.381634 
L 248.779077 -71.370005 
L 247.249612 -71.347627 
L 245.720146 -71.321703 
L 244.190681 -71.300832 
L 242.661215 -71.292263 
L 241.13175 -71.299441 
L 239.602284 -71.320925 
L 238.072819 -71.351285 
L 236.543353 -71.383737 
L 235.013888 -71.413334 
L 233.484422 -71.438891 
L 231.954957 -71.462405 
L 230.425491 -71.486604 
L 228.896026 -71.512768 
L 227.36656 -71.540542 
L 225.837095 -71.569369 
L 224.307629 -71.599648 
L 222.778164 -71.632391 
L 221.248698 -71.66807 
L 219.719233 -71.706124 
L 218.189767 -71.745461 
L 216.660302 -71.784922 
L 215.130836 -71.82303 
L 213.60137 -71.857852 
L 212.071905 -71.887879 
L 210.542439 -71.913197 
L 209.012974 -71.935044 
L 207.483508 -71.953345 
L 205.954043 -71.964421 
L 204.424577 -71.961787 
L 202.895112 -71.940465 
L 201.365646 -71.901823 
L 199.836181 -71.854936 
L 198.306715 -71.813083 
L 196.77725 -71.787895 
L 195.247784 -71.785273 
L 193.718319 -71.80531 
L 192.188853 -71.845249 
L 190.659388 -71.902849 
L 189.129922 -71.977966 
L 187.600457 -72.071605 
L 186.070991 -72.183109 
L 184.541526 -72.307503 
L 183.01206 -72.435358 
L 181.482595 -72.555926 
L 179.953129 -72.661128 
L 178.423664 -72.7469 
L 176.894198 -72.811283 
L 175.364733 -72.852928 
L 173.835267 -72.87361 
L 172.305802 -72.883099 
L 170.776336 -72.900149 
L 169.246871 -72.945163 
L 167.717405 -73.027505 
L 166.18794 -73.136753 
L 164.658474 -73.246112 
L 163.129009 -73.327393 
L 161.599543 -73.367438 
L 160.070078 -73.37493 
L 158.540612 -73.375291 
L 157.011147 -73.400013 
L 155.481681 -73.476716 
L 153.952216 -73.62089 
L 152.42275 -73.829169 
L 150.893285 -74.078136 
L 149.363819 -74.333339 
L 147.834354 -74.566191 
L 146.304888 -74.768422 
L 144.775423 -74.953943 
L 143.245957 -75.146511 
L 141.716492 -75.361611 
L 140.187026 -75.595212 
L 138.657561 -75.827992 
L 137.128095 -76.042818 
L 135.59863 -76.242034 
L 134.069164 -76.44908 
L 132.539698 -76.690664 
L 131.010233 -76.972704 
L 129.480767 -77.269539 
L 127.951302 -77.534966 
L 126.421836 -77.72693 
L 124.892371 -77.830674 
L 123.362905 -77.869703 
L 121.83344 -77.900504 
L 120.303974 -77.991401 
L 118.774509 -78.192694 
L 117.245043 -78.513333 
L 115.715578 -78.918314 
L 114.186112 -79.347292 
L 112.656647 -79.741022 
L 111.127181 -80.061604 
L 109.597716 -80.301922 
L 108.06825 -80.486761 
L 106.538785 -80.667494 
L 105.009319 -80.908712 
L 103.479854 -81.264937 
L 101.950388 -81.752079 
L 100.420923 -82.32826 
L 98.891457 -82.900828 
L 97.361992 -83.361972 
L 95.832526 -83.633418 
L 94.303061 -83.69294 
L 92.773595 -83.571457 
L 91.24413 -83.332953 
L 89.714664 -83.056353 
L 88.185199 -82.824203 
L 86.655733 -82.707295 
L 85.126268 -82.738271 
L 83.596802 -82.887965 
L 82.067337 -83.070086 
L 80.537871 -83.18369 
L 79.008406 -83.170194 
L 77.47894 -83.044347 
L 75.949475 -82.875759 
L 74.420009 -82.735644 
L 72.890544 -82.649283 
L 71.361078 -82.586789 
L 69.831613 -82.491684 
L 68.302147 -82.318534 
L 66.772682 -82.050837 
L 65.243216 -81.69403 
L 63.713751 -81.259661 
L 62.184285 -80.756906 
L 60.65482 -80.193208 
L 59.125354 -79.576425 
L 57.595889 -78.91402 
L 56.066423 -78.212155 
L 54.536958 -77.478948 
L 53.007492 -76.730597 
L 51.478026 -75.993633 
L 49.948561 -75.298073 
L 48.419095 -74.664651 
L 46.88963 -74.096456 
L 45.360164 -73.582882 
L 43.830699 -73.113131 
L 42.301233 -72.687843 
L 40.771768 -72.319296 
L 39.242302 -72.020957 
L 37.712837 -71.795988 
L 36.183371 -71.633899 
L 34.653906 -71.516615 
L 33.12444 -71.427769 
L 31.594975 -71.358096 
L 30.065509 -71.30467 
L 28.536044 -71.266835 
L 27.006578 -71.242953 
L 25.477113 -71.229745 
L 23.947647 -71.223392 
L 22.418182 -71.220741 
z
" id="m9f243857d8" style="stroke:#90c1c6;stroke-width:1.5;"/>
    </defs>
    <g>
     <use style="fill:#90c1c6;stroke:#90c1c6;stroke-width:1.5;" x="0" xlink:href="#m9f243857d8" y="311.267375"/>
    </g>
   </g>
   <g id="line2d_13">
    <path d="M 22.418182 240.046634 
L 30.065509 239.962705 
L 34.653906 239.75076 
L 37.712837 239.471387 
L 40.771768 238.948079 
L 43.830699 238.154244 
L 46.88963 237.170919 
L 49.948561 235.969302 
L 54.536958 233.788427 
L 59.125354 231.69095 
L 62.184285 230.510469 
L 65.243216 229.573345 
L 68.302147 228.948841 
L 71.361078 228.680586 
L 75.949475 228.391616 
L 79.008406 228.097181 
L 80.537871 228.083685 
L 86.655733 228.56008 
L 88.185199 228.443172 
L 94.303061 227.574435 
L 95.832526 227.633957 
L 97.361992 227.905403 
L 100.420923 228.939115 
L 103.479854 230.002438 
L 105.009319 230.358663 
L 108.06825 230.780614 
L 111.127181 231.205771 
L 114.186112 231.920083 
L 117.245043 232.754042 
L 118.774509 233.074681 
L 121.83344 233.366871 
L 126.421836 233.540445 
L 129.480767 233.997836 
L 134.069164 234.818295 
L 150.893285 237.189239 
L 153.952216 237.646485 
L 157.011147 237.867362 
L 164.658474 238.021263 
L 170.776336 238.367226 
L 178.423664 238.520475 
L 184.541526 238.959872 
L 190.659388 239.364526 
L 195.247784 239.482102 
L 201.365646 239.365552 
L 207.483508 239.31403 
L 219.719233 239.561251 
L 239.602284 239.94645 
L 245.720146 239.945672 
L 253.367474 239.905768 
L 265.603198 240.026283 
L 285.486249 239.972403 
L 326.781818 240.047474 
L 326.781818 240.047474 
" style="fill:none;stroke:#ffffff;stroke-linecap:round;stroke-width:2;"/>
   </g>
   <g id="line2d_14">
    <path d="M 7.2 240.048 
L 342 240.048 
" style="fill:none;stroke:#90c1c6;stroke-linecap:round;stroke-width:2;"/>
   </g>
   <g id="text_11">
    <!-- 0.4 -->
    <g style="fill:#90c1c6;" transform="translate(258.3 238.2033)scale(0.24 -0.24)">
     <defs>
      <path d="M 2356 3675 
L 1038 1722 
L 2356 1722 
L 2356 3675 
z
M 2156 4666 
L 3494 4666 
L 3494 1722 
L 4159 1722 
L 4159 850 
L 3494 850 
L 3494 0 
L 2356 0 
L 2356 850 
L 288 850 
L 288 1881 
L 2156 4666 
z
" id="DejaVuSans-Bold-34" transform="scale(0.015625)"/>
     </defs>
     <use xlink:href="#DejaVuSans-Bold-30"/>
     <use x="69.580078" xlink:href="#DejaVuSans-Bold-2e"/>
     <use x="107.568359" xlink:href="#DejaVuSans-Bold-34"/>
    </g>
   </g>
  </g>
 </g>
</svg>
