<?xml version="1.0" encoding="utf-8" standalone="no"?>
<!DOCTYPE svg PUBLIC "-//W3C//DTD SVG 1.1//EN"
  "http://www.w3.org/Graphics/SVG/1.1/DTD/svg11.dtd">
<svg height="674.159375pt" version="1.1" viewBox="0 0 674.984375 674.159375" width="674.984375pt" xmlns="http://www.w3.org/2000/svg" xmlns:xlink="http://www.w3.org/1999/xlink">
 <metadata>
  <rdf:RDF xmlns:cc="http://creativecommons.org/ns#" xmlns:dc="http://purl.org/dc/elements/1.1/" xmlns:rdf="http://www.w3.org/1999/02/22-rdf-syntax-ns#">
   <cc:Work>
    <dc:type rdf:resource="http://purl.org/dc/dcmitype/StillImage"/>
    <dc:date>2021-07-24T14:57:00.080945</dc:date>
    <dc:format>image/svg+xml</dc:format>
    <dc:creator>
     <cc:Agent>
      <dc:title>Matplotlib v3.4.2, https://matplotlib.org/</dc:title>
     </cc:Agent>
    </dc:creator>
   </cc:Work>
  </rdf:RDF>
 </metadata>
 <defs>
  <style type="text/css">*{stroke-linecap:butt;stroke-linejoin:round;}</style>
 </defs>
 <g id="figure_1">
  <g id="patch_1">
   <path d="M 0 674.159375 
L 674.984375 674.159375 
L 674.984375 0 
L 0 0 
z
" style="fill:#ffffff;"/>
  </g>
  <g id="axes_1">
   <g id="patch_2">
    <path d="M 84.914375 602.94 
L 567.863804 602.94 
L 567.863804 109.326857 
L 84.914375 109.326857 
z
" style="fill:none;"/>
   </g>
   <g id="matplotlib.axis_1">
    <g id="xtick_1">
     <g id="text_1">
      <!-- 0 -->
      <g style="fill:#262626;" transform="translate(99.648239 635.156562)scale(0.22 -0.22)">
       <defs>
        <path d="M 2034 4250 
Q 1547 4250 1301 3770 
Q 1056 3291 1056 2328 
Q 1056 1369 1301 889 
Q 1547 409 2034 409 
Q 2525 409 2770 889 
Q 3016 1369 3016 2328 
Q 3016 3291 2770 3770 
Q 2525 4250 2034 4250 
z
M 2034 4750 
Q 2819 4750 3233 4129 
Q 3647 3509 3647 2328 
Q 3647 1150 3233 529 
Q 2819 -91 2034 -91 
Q 1250 -91 836 529 
Q 422 1150 422 2328 
Q 422 3509 836 4129 
Q 1250 4750 2034 4750 
z
" id="DejaVuSans-30" transform="scale(0.015625)"/>
       </defs>
       <use xlink:href="#DejaVuSans-30"/>
      </g>
     </g>
    </g>
    <g id="xtick_2">
     <g id="text_2">
      <!-- 20000 -->
      <g style="fill:#262626;" transform="translate(159.506153 635.156562)scale(0.22 -0.22)">
       <defs>
        <path d="M 1228 531 
L 3431 531 
L 3431 0 
L 469 0 
L 469 531 
Q 828 903 1448 1529 
Q 2069 2156 2228 2338 
Q 2531 2678 2651 2914 
Q 2772 3150 2772 3378 
Q 2772 3750 2511 3984 
Q 2250 4219 1831 4219 
Q 1534 4219 1204 4116 
Q 875 4013 500 3803 
L 500 4441 
Q 881 4594 1212 4672 
Q 1544 4750 1819 4750 
Q 2544 4750 2975 4387 
Q 3406 4025 3406 3419 
Q 3406 3131 3298 2873 
Q 3191 2616 2906 2266 
Q 2828 2175 2409 1742 
Q 1991 1309 1228 531 
z
" id="DejaVuSans-32" transform="scale(0.015625)"/>
       </defs>
       <use xlink:href="#DejaVuSans-32"/>
       <use x="63.623047" xlink:href="#DejaVuSans-30"/>
       <use x="127.246094" xlink:href="#DejaVuSans-30"/>
       <use x="190.869141" xlink:href="#DejaVuSans-30"/>
       <use x="254.492188" xlink:href="#DejaVuSans-30"/>
      </g>
     </g>
    </g>
    <g id="xtick_3">
     <g id="text_3">
      <!-- 40000 -->
      <g style="fill:#262626;" transform="translate(247.359066 635.156562)scale(0.22 -0.22)">
       <defs>
        <path d="M 2419 4116 
L 825 1625 
L 2419 1625 
L 2419 4116 
z
M 2253 4666 
L 3047 4666 
L 3047 1625 
L 3713 1625 
L 3713 1100 
L 3047 1100 
L 3047 0 
L 2419 0 
L 2419 1100 
L 313 1100 
L 313 1709 
L 2253 4666 
z
" id="DejaVuSans-34" transform="scale(0.015625)"/>
       </defs>
       <use xlink:href="#DejaVuSans-34"/>
       <use x="63.623047" xlink:href="#DejaVuSans-30"/>
       <use x="127.246094" xlink:href="#DejaVuSans-30"/>
       <use x="190.869141" xlink:href="#DejaVuSans-30"/>
       <use x="254.492188" xlink:href="#DejaVuSans-30"/>
      </g>
     </g>
    </g>
    <g id="xtick_4">
     <g id="text_4">
      <!-- 60000 -->
      <g style="fill:#262626;" transform="translate(335.21198 635.156562)scale(0.22 -0.22)">
       <defs>
        <path d="M 2113 2584 
Q 1688 2584 1439 2293 
Q 1191 2003 1191 1497 
Q 1191 994 1439 701 
Q 1688 409 2113 409 
Q 2538 409 2786 701 
Q 3034 994 3034 1497 
Q 3034 2003 2786 2293 
Q 2538 2584 2113 2584 
z
M 3366 4563 
L 3366 3988 
Q 3128 4100 2886 4159 
Q 2644 4219 2406 4219 
Q 1781 4219 1451 3797 
Q 1122 3375 1075 2522 
Q 1259 2794 1537 2939 
Q 1816 3084 2150 3084 
Q 2853 3084 3261 2657 
Q 3669 2231 3669 1497 
Q 3669 778 3244 343 
Q 2819 -91 2113 -91 
Q 1303 -91 875 529 
Q 447 1150 447 2328 
Q 447 3434 972 4092 
Q 1497 4750 2381 4750 
Q 2619 4750 2861 4703 
Q 3103 4656 3366 4563 
z
" id="DejaVuSans-36" transform="scale(0.015625)"/>
       </defs>
       <use xlink:href="#DejaVuSans-36"/>
       <use x="63.623047" xlink:href="#DejaVuSans-30"/>
       <use x="127.246094" xlink:href="#DejaVuSans-30"/>
       <use x="190.869141" xlink:href="#DejaVuSans-30"/>
       <use x="254.492188" xlink:href="#DejaVuSans-30"/>
      </g>
     </g>
    </g>
    <g id="xtick_5">
     <g id="text_5">
      <!-- 80000 -->
      <g style="fill:#262626;" transform="translate(423.064893 635.156562)scale(0.22 -0.22)">
       <defs>
        <path d="M 2034 2216 
Q 1584 2216 1326 1975 
Q 1069 1734 1069 1313 
Q 1069 891 1326 650 
Q 1584 409 2034 409 
Q 2484 409 2743 651 
Q 3003 894 3003 1313 
Q 3003 1734 2745 1975 
Q 2488 2216 2034 2216 
z
M 1403 2484 
Q 997 2584 770 2862 
Q 544 3141 544 3541 
Q 544 4100 942 4425 
Q 1341 4750 2034 4750 
Q 2731 4750 3128 4425 
Q 3525 4100 3525 3541 
Q 3525 3141 3298 2862 
Q 3072 2584 2669 2484 
Q 3125 2378 3379 2068 
Q 3634 1759 3634 1313 
Q 3634 634 3220 271 
Q 2806 -91 2034 -91 
Q 1263 -91 848 271 
Q 434 634 434 1313 
Q 434 1759 690 2068 
Q 947 2378 1403 2484 
z
M 1172 3481 
Q 1172 3119 1398 2916 
Q 1625 2713 2034 2713 
Q 2441 2713 2670 2916 
Q 2900 3119 2900 3481 
Q 2900 3844 2670 4047 
Q 2441 4250 2034 4250 
Q 1625 4250 1398 4047 
Q 1172 3844 1172 3481 
z
" id="DejaVuSans-38" transform="scale(0.015625)"/>
       </defs>
       <use xlink:href="#DejaVuSans-38"/>
       <use x="63.623047" xlink:href="#DejaVuSans-30"/>
       <use x="127.246094" xlink:href="#DejaVuSans-30"/>
       <use x="190.869141" xlink:href="#DejaVuSans-30"/>
       <use x="254.492188" xlink:href="#DejaVuSans-30"/>
      </g>
     </g>
    </g>
    <g id="xtick_6">
     <g id="text_6">
      <!-- 100000 -->
      <g style="fill:#262626;" transform="translate(503.919057 635.156562)scale(0.22 -0.22)">
       <defs>
        <path d="M 794 531 
L 1825 531 
L 1825 4091 
L 703 3866 
L 703 4441 
L 1819 4666 
L 2450 4666 
L 2450 531 
L 3481 531 
L 3481 0 
L 794 0 
L 794 531 
z
" id="DejaVuSans-31" transform="scale(0.015625)"/>
       </defs>
       <use xlink:href="#DejaVuSans-31"/>
       <use x="63.623047" xlink:href="#DejaVuSans-30"/>
       <use x="127.246094" xlink:href="#DejaVuSans-30"/>
       <use x="190.869141" xlink:href="#DejaVuSans-30"/>
       <use x="254.492188" xlink:href="#DejaVuSans-30"/>
       <use x="318.115234" xlink:href="#DejaVuSans-30"/>
      </g>
     </g>
    </g>
    <g id="text_7">
     <!-- MDTU -->
     <g style="fill:#262626;" transform="translate(290.683464 661.968125)scale(0.24 -0.24)">
      <defs>
       <path d="M 628 4666 
L 1569 4666 
L 2759 1491 
L 3956 4666 
L 4897 4666 
L 4897 0 
L 4281 0 
L 4281 4097 
L 3078 897 
L 2444 897 
L 1241 4097 
L 1241 0 
L 628 0 
L 628 4666 
z
" id="DejaVuSans-4d" transform="scale(0.015625)"/>
       <path d="M 1259 4147 
L 1259 519 
L 2022 519 
Q 2988 519 3436 956 
Q 3884 1394 3884 2338 
Q 3884 3275 3436 3711 
Q 2988 4147 2022 4147 
L 1259 4147 
z
M 628 4666 
L 1925 4666 
Q 3281 4666 3915 4102 
Q 4550 3538 4550 2338 
Q 4550 1131 3912 565 
Q 3275 0 1925 0 
L 628 0 
L 628 4666 
z
" id="DejaVuSans-44" transform="scale(0.015625)"/>
       <path d="M -19 4666 
L 3928 4666 
L 3928 4134 
L 2272 4134 
L 2272 0 
L 1638 0 
L 1638 4134 
L -19 4134 
L -19 4666 
z
" id="DejaVuSans-54" transform="scale(0.015625)"/>
       <path d="M 556 4666 
L 1191 4666 
L 1191 1831 
Q 1191 1081 1462 751 
Q 1734 422 2344 422 
Q 2950 422 3222 751 
Q 3494 1081 3494 1831 
L 3494 4666 
L 4128 4666 
L 4128 1753 
Q 4128 841 3676 375 
Q 3225 -91 2344 -91 
Q 1459 -91 1007 375 
Q 556 841 556 1753 
L 556 4666 
z
" id="DejaVuSans-55" transform="scale(0.015625)"/>
      </defs>
      <use xlink:href="#DejaVuSans-4d"/>
      <use x="86.279297" xlink:href="#DejaVuSans-44"/>
      <use x="163.28125" xlink:href="#DejaVuSans-54"/>
      <use x="224.365234" xlink:href="#DejaVuSans-55"/>
     </g>
    </g>
   </g>
   <g id="matplotlib.axis_2">
    <g id="ytick_1">
     <g id="text_8">
      <!-- 0.7 -->
      <g style="fill:#262626;" transform="translate(34.4275 565.354624)scale(0.22 -0.22)">
       <defs>
        <path d="M 684 794 
L 1344 794 
L 1344 0 
L 684 0 
L 684 794 
z
" id="DejaVuSans-2e" transform="scale(0.015625)"/>
        <path d="M 525 4666 
L 3525 4666 
L 3525 4397 
L 1831 0 
L 1172 0 
L 2766 4134 
L 525 4134 
L 525 4666 
z
" id="DejaVuSans-37" transform="scale(0.015625)"/>
       </defs>
       <use xlink:href="#DejaVuSans-30"/>
       <use x="63.623047" xlink:href="#DejaVuSans-2e"/>
       <use x="95.410156" xlink:href="#DejaVuSans-37"/>
      </g>
     </g>
    </g>
    <g id="ytick_2">
     <g id="text_9">
      <!-- 0.8 -->
      <g style="fill:#262626;" transform="translate(34.4275 477.412546)scale(0.22 -0.22)">
       <use xlink:href="#DejaVuSans-30"/>
       <use x="63.623047" xlink:href="#DejaVuSans-2e"/>
       <use x="95.410156" xlink:href="#DejaVuSans-38"/>
      </g>
     </g>
    </g>
    <g id="ytick_3">
     <g id="text_10">
      <!-- 0.9 -->
      <g style="fill:#262626;" transform="translate(34.4275 389.470468)scale(0.22 -0.22)">
       <defs>
        <path d="M 703 97 
L 703 672 
Q 941 559 1184 500 
Q 1428 441 1663 441 
Q 2288 441 2617 861 
Q 2947 1281 2994 2138 
Q 2813 1869 2534 1725 
Q 2256 1581 1919 1581 
Q 1219 1581 811 2004 
Q 403 2428 403 3163 
Q 403 3881 828 4315 
Q 1253 4750 1959 4750 
Q 2769 4750 3195 4129 
Q 3622 3509 3622 2328 
Q 3622 1225 3098 567 
Q 2575 -91 1691 -91 
Q 1453 -91 1209 -44 
Q 966 3 703 97 
z
M 1959 2075 
Q 2384 2075 2632 2365 
Q 2881 2656 2881 3163 
Q 2881 3666 2632 3958 
Q 2384 4250 1959 4250 
Q 1534 4250 1286 3958 
Q 1038 3666 1038 3163 
Q 1038 2656 1286 2365 
Q 1534 2075 1959 2075 
z
" id="DejaVuSans-39" transform="scale(0.015625)"/>
       </defs>
       <use xlink:href="#DejaVuSans-30"/>
       <use x="63.623047" xlink:href="#DejaVuSans-2e"/>
       <use x="95.410156" xlink:href="#DejaVuSans-39"/>
      </g>
     </g>
    </g>
    <g id="ytick_4">
     <g id="text_11">
      <!-- 1.0 -->
      <g style="fill:#262626;" transform="translate(34.4275 301.528389)scale(0.22 -0.22)">
       <use xlink:href="#DejaVuSans-31"/>
       <use x="63.623047" xlink:href="#DejaVuSans-2e"/>
       <use x="95.410156" xlink:href="#DejaVuSans-30"/>
      </g>
     </g>
    </g>
    <g id="ytick_5">
     <g id="text_12">
      <!-- 1.1 -->
      <g style="fill:#262626;" transform="translate(34.4275 213.586311)scale(0.22 -0.22)">
       <use xlink:href="#DejaVuSans-31"/>
       <use x="63.623047" xlink:href="#DejaVuSans-2e"/>
       <use x="95.410156" xlink:href="#DejaVuSans-31"/>
      </g>
     </g>
    </g>
    <g id="ytick_6">
     <g id="text_13">
      <!-- 1.2 -->
      <g style="fill:#262626;" transform="translate(34.4275 125.644232)scale(0.22 -0.22)">
       <use xlink:href="#DejaVuSans-31"/>
       <use x="63.623047" xlink:href="#DejaVuSans-2e"/>
       <use x="95.410156" xlink:href="#DejaVuSans-32"/>
      </g>
     </g>
    </g>
    <g id="text_14">
     <!-- $E$ -->
     <g style="fill:#262626;" transform="translate(25.43625 363.813429)rotate(-90)scale(0.24 -0.24)">
      <defs>
       <path d="M 1081 4666 
L 4031 4666 
L 3928 4134 
L 1606 4134 
L 1338 2753 
L 3566 2753 
L 3463 2222 
L 1234 2222 
L 909 531 
L 3284 531 
L 3181 0 
L 172 0 
L 1081 4666 
z
" id="DejaVuSans-Oblique-45" transform="scale(0.015625)"/>
      </defs>
      <use transform="translate(0 0.09375)" xlink:href="#DejaVuSans-Oblique-45"/>
     </g>
    </g>
   </g>
   <g id="line2d_1">
    <path clip-path="url(#pf5bc1a3f9f)" d="M 106.866622 201.600924 
L 107.086254 355.794837 
L 107.305886 296.163523 
L 107.525519 305.670482 
L 107.745151 436.20886 
L 107.964783 432.199979 
L 108.184415 303.917679 
L 108.404048 367.877326 
L 108.62368 393.197441 
L 108.843312 349.713214 
L 109.062945 383.072539 
L 109.282577 331.472032 
L 109.502209 361.943188 
L 109.721841 481.568968 
L 110.161106 181.978015 
L 110.380738 393.405871 
L 110.820003 481.736967 
L 111.039635 431.590151 
L 111.259267 343.393261 
L 111.4789 420.576252 
L 111.698532 344.829541 
L 111.918164 331.077032 
L 112.137797 531.208872 
L 112.357429 399.231872 
L 112.577061 336.90931 
L 112.796693 329.096699 
L 113.016326 307.622603 
L 113.235958 332.615113 
L 113.45559 390.724035 
L 113.675223 329.796516 
L 113.894855 317.562081 
L 114.114487 266.255477 
L 114.334119 465.856992 
L 114.553752 450.391985 
L 114.773384 360.52377 
L 115.432281 466.790349 
L 115.651913 362.161625 
L 115.871545 363.01076 
L 116.091178 389.6152 
L 116.31081 399.412969 
L 116.530442 383.152827 
L 116.750075 437.356365 
L 116.969707 380.164675 
L 117.189339 434.574183 
L 117.408971 240.923892 
L 117.628604 395.407545 
L 117.848236 399.459223 
L 118.067868 409.875508 
L 118.287501 351.106076 
L 118.507133 389.313783 
L 118.726765 302.512852 
L 118.946397 454.901298 
L 119.16603 312.522478 
L 119.385662 423.305847 
L 119.605294 426.613718 
L 119.824926 382.26585 
L 120.044559 381.010268 
L 120.264191 414.971988 
L 120.483823 567.250128 
L 120.703456 383.334251 
L 120.923088 404.368003 
L 121.14272 497.057955 
L 121.362352 314.828871 
L 121.581985 476.789896 
L 121.801617 497.147151 
L 122.021249 368.530312 
L 122.240882 439.406954 
L 122.460514 240.838452 
L 122.680146 397.450936 
L 122.899778 429.664657 
L 123.119411 278.733905 
L 123.339043 218.337819 
L 123.558675 416.414002 
L 123.99794 372.029583 
L 124.217572 393.339015 
L 124.437204 321.434615 
L 124.656837 385.139174 
L 124.876469 340.994002 
L 125.096101 352.893892 
L 125.315734 408.028298 
L 125.535366 536.111274 
L 125.97463 348.931397 
L 126.194263 359.261989 
L 126.413895 476.115862 
L 126.633527 338.660032 
L 126.85316 409.769007 
L 127.072792 289.829889 
L 127.292424 465.705641 
L 127.512056 342.578456 
L 127.731689 362.269695 
L 127.951321 343.158719 
L 128.170953 417.45457 
L 128.390586 282.091326 
L 128.610218 482.759581 
L 128.82985 262.788087 
L 129.049482 427.318071 
L 129.488747 328.040851 
L 129.708379 333.222516 
L 129.928012 259.622465 
L 130.147644 438.008889 
L 130.367276 421.230622 
L 130.586908 443.023403 
L 130.806541 483.595043 
L 131.026173 199.814806 
L 131.245805 431.958317 
L 131.465438 456.889782 
L 131.68507 243.694395 
L 131.904702 416.056732 
L 132.124334 297.760709 
L 132.563599 515.278319 
L 132.783231 497.935188 
L 133.002864 406.592995 
L 133.222496 367.405363 
L 133.442128 435.701824 
L 133.66176 396.280618 
L 133.881393 475.623355 
L 134.101025 442.701083 
L 134.320657 447.236754 
L 134.540289 466.09716 
L 134.759922 471.509966 
L 134.979554 398.541378 
L 135.199186 288.590392 
L 135.638451 433.749447 
L 135.858083 370.902047 
L 136.077715 260.677673 
L 136.297348 459.51038 
L 136.51698 380.378957 
L 136.736612 481.681017 
L 136.956245 342.029949 
L 137.175877 309.34803 
L 137.395509 462.259416 
L 137.615141 327.694472 
L 137.834774 405.78389 
L 138.054406 379.826675 
L 138.274038 449.555308 
L 138.493671 391.166191 
L 138.932935 358.55702 
L 139.152567 442.198009 
L 139.591832 307.927478 
L 139.811464 343.428969 
L 140.031097 507.724633 
L 140.250729 406.250451 
L 140.689993 357.547786 
L 140.909626 275.520306 
L 141.129258 437.664022 
L 141.34889 293.627729 
L 141.568523 414.422623 
L 142.007787 171.609582 
L 142.227419 354.618092 
L 142.447052 354.950292 
L 142.666684 189.886103 
L 143.105949 419.262804 
L 143.325581 406.890514 
L 143.545213 361.809785 
L 143.764845 384.52471 
L 143.984478 479.14814 
L 144.20411 292.388761 
L 144.643375 379.073488 
L 144.863007 391.625367 
L 145.082639 250.622427 
L 145.302271 378.849473 
L 145.521904 431.744346 
L 145.961168 335.87542 
L 146.180801 433.337038 
L 146.400433 445.085047 
L 146.620065 420.864787 
L 146.839697 416.182672 
L 147.05933 449.121867 
L 147.278962 334.119249 
L 147.498594 348.02833 
L 147.718227 314.108674 
L 148.157491 361.123592 
L 148.377123 448.86987 
L 148.596756 312.639876 
L 148.816388 329.456529 
L 149.03602 302.971375 
L 149.255653 442.085737 
L 149.475285 378.203589 
L 149.694917 369.50455 
L 149.914549 353.599589 
L 150.134182 401.670461 
L 150.353814 326.970223 
L 150.573446 402.174453 
L 150.793078 407.653708 
L 151.012711 475.845505 
L 151.451975 210.900832 
L 151.671608 288.226808 
L 151.89124 302.168917 
L 152.110872 390.720136 
L 152.330504 257.686703 
L 152.550137 423.495546 
L 152.769769 298.039979 
L 152.989401 423.591832 
L 153.209034 312.27899 
L 153.428666 550.849176 
L 153.86793 432.075072 
L 154.087563 485.214251 
L 154.307195 297.024799 
L 154.526827 284.178066 
L 154.74646 432.983969 
L 155.405356 303.808941 
L 155.624989 456.174308 
L 155.844621 387.201344 
L 156.064253 376.453858 
L 156.283886 237.111217 
L 156.72315 453.639197 
L 156.942782 312.028855 
L 157.162415 372.719157 
L 157.382047 298.546141 
L 157.601679 406.997215 
L 157.821312 265.478662 
L 158.040944 349.027534 
L 158.260576 335.782973 
L 158.480208 394.990454 
L 158.699841 288.577908 
L 158.919473 290.548189 
L 159.358738 474.714456 
L 159.798002 276.038264 
L 160.237267 522.959014 
L 160.456899 226.179258 
L 160.676531 479.221652 
L 160.896164 376.665144 
L 161.115796 424.949107 
L 161.335428 395.722438 
L 161.55506 454.091802 
L 161.774693 448.823492 
L 161.994325 330.885836 
L 162.213957 380.339388 
L 162.43359 264.78217 
L 162.653222 345.731727 
L 162.872854 236.284442 
L 163.092486 397.502228 
L 163.312119 396.146802 
L 163.531751 342.818794 
L 163.751383 436.655745 
L 163.971016 395.096808 
L 164.190648 327.243509 
L 164.41028 463.083986 
L 164.849545 277.834658 
L 165.069177 147.910162 
L 165.288809 416.211996 
L 165.728074 313.106808 
L 165.947706 504.606775 
L 166.167338 256.841117 
L 166.386971 401.763861 
L 166.606603 347.071272 
L 166.826235 407.303106 
L 167.045867 312.922678 
L 167.2655 435.1454 
L 167.485132 473.832654 
L 167.704764 365.00613 
L 167.924397 445.806388 
L 168.144029 311.135152 
L 168.363661 414.683095 
L 168.583293 392.619766 
L 169.022558 459.508309 
L 169.24219 276.9803 
L 169.461823 414.844651 
L 169.681455 431.769472 
L 169.901087 329.30397 
L 170.120719 385.68758 
L 170.340352 483.318845 
L 170.559984 368.429586 
L 170.779616 383.12569 
L 170.999249 574.18785 
L 171.218881 381.029154 
L 171.438513 453.749212 
L 171.658145 343.815639 
L 171.877778 347.810888 
L 172.09741 455.906144 
L 172.317042 434.747856 
L 172.756307 417.196999 
L 172.975939 416.156568 
L 173.195571 355.866492 
L 173.415204 573.330519 
L 173.634836 411.599682 
L 173.854468 346.127085 
L 174.074101 377.903546 
L 174.293733 350.551901 
L 174.513365 159.472106 
L 174.732997 365.256402 
L 174.95263 309.939513 
L 175.391894 482.377164 
L 175.611527 343.562813 
L 175.831159 399.540854 
L 176.270423 439.168928 
L 176.490056 487.973504 
L 176.92932 329.152322 
L 177.148953 346.381931 
L 177.368585 322.00834 
L 177.588217 441.66706 
L 177.807849 270.316177 
L 178.027482 417.850149 
L 178.247114 322.997855 
L 178.466746 441.346278 
L 178.686379 379.564664 
L 178.906011 491.286522 
L 179.125643 364.872723 
L 179.345275 417.543103 
L 179.564908 263.013842 
L 179.78454 311.817528 
L 180.004172 432.671816 
L 180.223805 358.916764 
L 180.443437 431.242206 
L 180.663069 359.151161 
L 180.882701 408.148188 
L 181.102334 349.964149 
L 181.321966 338.770229 
L 181.541598 463.134444 
L 181.76123 325.506001 
L 181.980863 324.667477 
L 182.200495 328.678498 
L 182.420127 384.406916 
L 182.63976 276.848452 
L 182.859392 364.494877 
L 183.079024 265.753922 
L 183.298656 474.700647 
L 183.518289 224.503691 
L 183.737921 309.147136 
L 183.957553 313.729181 
L 184.177186 273.925618 
L 184.396818 316.537832 
L 184.61645 440.379951 
L 184.836082 333.852718 
L 185.055715 352.116494 
L 185.275347 471.469016 
L 185.494979 440.668206 
L 185.714612 365.232403 
L 185.934244 193.931375 
L 186.153876 498.015901 
L 186.373508 455.162704 
L 186.593141 446.427586 
L 186.812773 328.447484 
L 187.032405 328.589172 
L 187.47167 285.604445 
L 187.691302 323.86895 
L 187.910934 486.519972 
L 188.130567 314.759812 
L 188.789464 533.79862 
L 189.009096 318.518926 
L 189.228728 376.672475 
L 189.44836 358.532455 
L 189.667993 539.782283 
L 190.107257 355.832013 
L 190.32689 332.612634 
L 190.546522 334.255366 
L 190.766154 411.245287 
L 190.985786 401.642568 
L 191.205419 327.954328 
L 191.425051 424.711521 
L 191.644683 391.310321 
L 191.864316 385.890212 
L 192.083948 387.514863 
L 192.30358 277.627738 
L 192.523212 378.458793 
L 192.742845 376.034051 
L 192.962477 320.166518 
L 193.182109 298.460965 
L 193.621374 535.217835 
L 193.841006 321.054748 
L 194.060638 355.662947 
L 194.280271 464.131164 
L 194.499903 454.544046 
L 194.719535 419.706956 
L 194.939168 404.378575 
L 195.1588 426.196335 
L 195.598064 203.250914 
L 195.817697 372.143633 
L 196.037329 336.877766 
L 196.256961 426.562271 
L 196.476593 272.792839 
L 196.696226 393.970684 
L 197.355123 180.932766 
L 197.574755 331.292882 
L 197.794387 278.786705 
L 198.014019 413.233298 
L 198.233652 432.391675 
L 198.453284 295.587275 
L 198.672916 383.880469 
L 198.892549 396.713452 
L 199.112181 470.039083 
L 199.331813 359.401528 
L 199.771078 447.977591 
L 199.99071 394.643218 
L 200.210342 273.964383 
L 200.429975 345.431225 
L 200.649607 330.470368 
L 200.869239 358.494398 
L 201.088871 434.745427 
L 201.308504 445.632859 
L 201.747768 306.128583 
L 201.967401 470.743347 
L 202.187033 447.810565 
L 202.406665 394.989956 
L 202.626297 421.437265 
L 202.84593 251.401412 
L 203.065562 405.541226 
L 203.285194 336.023337 
L 203.504827 330.091206 
L 203.724459 381.435505 
L 203.944091 481.805134 
L 204.163723 456.654206 
L 204.383356 507.971986 
L 204.602988 253.320675 
L 204.82262 479.283694 
L 205.042253 174.979008 
L 205.261885 366.493314 
L 205.481517 355.534755 
L 205.701149 443.12235 
L 205.920782 428.643466 
L 206.140414 296.223561 
L 206.360046 320.399363 
L 206.799311 527.95786 
L 207.018943 378.632204 
L 207.458208 398.496694 
L 207.67784 425.992627 
L 207.897472 477.054999 
L 208.117105 452.128196 
L 208.336737 345.38104 
L 208.556369 316.399145 
L 208.776001 325.743359 
L 208.995634 283.06746 
L 209.215266 404.531191 
L 209.434898 453.988232 
L 209.654531 239.806751 
L 209.874163 257.114848 
L 210.093795 347.796031 
L 210.313427 326.768442 
L 210.53306 407.492798 
L 210.752692 357.489651 
L 210.972324 425.896454 
L 211.191956 334.985428 
L 211.631221 412.74483 
L 211.850853 397.676994 
L 212.070486 490.969272 
L 212.290118 325.974313 
L 212.50975 411.376789 
L 212.729382 342.769089 
L 212.949015 427.520874 
L 213.168647 369.905678 
L 213.388279 505.730733 
L 213.827544 357.345316 
L 214.047176 400.93913 
L 214.266808 359.133021 
L 214.486441 285.207978 
L 214.706073 407.415029 
L 214.925705 417.402923 
L 215.145338 332.860429 
L 215.584602 505.698706 
L 215.804234 285.674274 
L 216.023867 369.650635 
L 216.243499 386.958842 
L 216.463131 374.33169 
L 216.682764 270.6937 
L 216.902396 263.769125 
L 217.34166 434.58926 
L 217.561293 427.415869 
L 217.780925 282.091335 
L 218.000557 351.574576 
L 218.22019 548.924074 
L 218.439822 320.614374 
L 218.659454 303.15131 
L 218.879086 424.712795 
L 219.098719 268.989765 
L 219.318351 497.375314 
L 219.537983 382.769005 
L 219.757616 354.113298 
L 219.977248 392.06019 
L 220.416512 372.38983 
L 220.636145 335.817378 
L 220.855777 369.86385 
L 221.075409 446.120006 
L 221.295042 325.208519 
L 221.514674 415.087172 
L 221.734306 392.365178 
L 221.953938 299.990825 
L 222.393203 453.955011 
L 222.612835 387.530044 
L 222.832468 220.67226 
L 223.0521 297.199678 
L 223.271732 273.22227 
L 223.710997 484.83378 
L 223.930629 297.450485 
L 224.150261 446.370726 
L 224.369894 332.385183 
L 224.589526 489.711554 
L 224.809158 299.447623 
L 225.02879 408.333789 
L 225.248423 459.853226 
L 225.468055 397.820455 
L 225.687687 392.069818 
L 225.90732 352.782618 
L 226.126952 483.563726 
L 226.346584 368.774724 
L 226.566216 381.665118 
L 226.785849 414.912979 
L 227.005481 388.139726 
L 227.225113 242.146116 
L 227.444745 433.056544 
L 227.664378 290.75383 
L 227.88401 525.630292 
L 228.103642 413.879839 
L 228.323275 458.499508 
L 228.542907 308.28364 
L 228.762539 570.352973 
L 228.982171 293.226715 
L 229.201804 425.358173 
L 229.421436 415.969565 
L 229.641068 446.195244 
L 229.860701 222.459382 
L 230.080333 369.709185 
L 230.299965 355.245459 
L 230.519597 289.090992 
L 230.958862 459.681398 
L 231.178494 385.532236 
L 231.617759 314.639474 
L 231.837391 350.459732 
L 232.057023 541.260358 
L 232.276656 422.947013 
L 232.496288 370.868036 
L 232.71592 414.87366 
L 232.935553 430.312858 
L 233.155185 331.367738 
L 233.374817 304.822261 
L 233.594449 358.936037 
L 233.814082 309.555079 
L 234.033714 489.460303 
L 234.253346 266.729445 
L 234.692611 420.787114 
L 234.912243 382.679929 
L 235.131875 375.418152 
L 235.351508 295.586162 
L 235.790772 445.908739 
L 236.010405 465.923287 
L 236.230037 438.18897 
L 236.669301 324.853514 
L 236.888934 355.026788 
L 237.108566 434.495538 
L 237.547831 299.894831 
L 237.767463 513.127485 
L 237.987095 392.050845 
L 238.206727 362.064514 
L 238.42636 396.880337 
L 238.645992 318.08097 
L 238.865624 524.610671 
L 239.304889 327.011754 
L 239.524521 410.249826 
L 239.744153 374.405636 
L 239.963786 485.275798 
L 240.183418 416.633064 
L 240.40305 298.223946 
L 240.622683 357.669986 
L 240.842315 329.916452 
L 241.061947 402.111197 
L 241.281579 213.294243 
L 241.501212 480.62035 
L 241.720844 287.855649 
L 241.940476 276.667671 
L 242.160108 373.59761 
L 242.379741 321.325199 
L 242.599373 350.085316 
L 242.819005 343.937019 
L 243.038638 524.996048 
L 243.25827 292.079743 
L 243.477902 425.778769 
L 243.697534 385.344083 
L 243.917167 290.462341 
L 244.136799 412.984849 
L 244.356431 391.259088 
L 244.576064 336.981349 
L 244.795696 457.164901 
L 245.015328 284.037005 
L 245.23496 370.000143 
L 245.454593 294.470982 
L 245.674225 389.639048 
L 245.893857 381.762987 
L 246.333122 468.572427 
L 246.552754 352.358405 
L 246.772386 419.585984 
L 246.992019 385.195995 
L 247.211651 271.837433 
L 247.650916 513.710168 
L 247.870548 436.622942 
L 248.09018 305.816536 
L 248.309812 377.109674 
L 248.529445 386.495822 
L 248.749077 473.687927 
L 248.968709 488.315461 
L 249.188342 266.308391 
L 249.407974 291.975492 
L 249.627606 221.162478 
L 249.847238 459.086738 
L 250.066871 351.411472 
L 250.286503 428.484249 
L 250.725768 377.247992 
L 250.9454 387.513074 
L 251.165032 390.1199 
L 251.384664 450.295005 
L 251.604297 566.395 
L 251.823929 357.069508 
L 252.043561 378.321353 
L 252.263194 355.085316 
L 252.482826 423.719724 
L 252.702458 391.297791 
L 252.92209 341.760151 
L 253.141723 438.137153 
L 253.361355 267.156574 
L 253.580987 529.299044 
L 254.020252 378.974004 
L 254.239884 356.308853 
L 254.459516 292.938436 
L 254.679149 413.139276 
L 254.898781 392.679891 
L 255.118413 265.26271 
L 255.557678 439.511297 
L 255.77731 404.12284 
L 255.996942 443.066531 
L 256.216575 388.803357 
L 256.436207 272.417137 
L 256.655839 383.349445 
L 256.875472 275.639525 
L 257.095104 291.908681 
L 257.314736 341.711378 
L 257.534368 300.749404 
L 257.973633 488.12346 
L 258.412897 405.679899 
L 258.63253 388.59391 
L 258.852162 194.338427 
L 259.071794 367.068219 
L 259.291427 225.884257 
L 259.511059 377.370946 
L 259.730691 431.544949 
L 259.950323 376.141806 
L 260.169956 238.180991 
L 260.389588 367.884817 
L 260.60922 409.299786 
L 260.828853 288.626751 
L 261.048485 365.20473 
L 261.268117 204.276728 
L 261.487749 485.064255 
L 261.707382 450.203883 
L 261.927014 276.329629 
L 262.146646 333.372318 
L 262.366279 340.392402 
L 262.585911 452.707921 
L 262.805543 336.174801 
L 263.025175 322.1497 
L 263.244808 458.60323 
L 263.46444 369.366563 
L 263.684072 464.055274 
L 263.903705 284.936197 
L 264.123337 360.635324 
L 264.562601 342.234911 
L 264.782234 253.911721 
L 265.001866 363.642624 
L 265.221498 215.959793 
L 265.441131 446.491799 
L 265.660763 450.871939 
L 266.100027 297.594553 
L 266.31966 484.974334 
L 266.539292 307.141295 
L 266.758924 350.400875 
L 266.978557 512.396229 
L 267.417821 352.387991 
L 267.637453 429.640652 
L 267.857086 264.671566 
L 268.076718 484.957232 
L 268.29635 371.373038 
L 268.515983 316.610661 
L 268.735615 439.560494 
L 268.955247 162.636934 
L 269.174879 242.89427 
L 269.394512 277.543436 
L 269.614144 290.751456 
L 269.833776 548.840465 
L 270.053409 321.017467 
L 270.273041 301.571223 
L 270.492673 396.420947 
L 270.712305 353.338795 
L 270.931938 378.967386 
L 271.15157 324.404358 
L 271.371202 392.105533 
L 271.590835 305.677901 
L 271.810467 289.325113 
L 272.030099 402.67441 
L 272.249731 337.063047 
L 272.469364 379.033991 
L 272.688996 318.305235 
L 272.908628 445.885338 
L 273.12826 466.431652 
L 273.347893 321.373863 
L 273.567525 411.070522 
L 273.787157 354.048572 
L 274.00679 369.02849 
L 274.226422 430.174309 
L 274.665686 308.406129 
L 274.885319 392.314912 
L 275.104951 348.82772 
L 275.324583 455.459867 
L 275.544216 380.425091 
L 275.763848 256.536828 
L 276.203112 376.607556 
L 276.422745 279.628565 
L 276.642377 474.266541 
L 276.862009 386.670947 
L 277.081642 358.15261 
L 277.301274 402.177743 
L 277.520906 344.55136 
L 277.740538 323.597994 
L 278.179803 435.742924 
L 278.399435 476.77182 
L 278.8387 256.367189 
L 279.058332 269.573035 
L 279.277964 454.539392 
L 279.497597 351.063262 
L 279.717229 420.959472 
L 279.936861 381.736287 
L 280.156494 474.656745 
L 280.376126 415.544994 
L 280.595758 417.078172 
L 280.81539 268.624983 
L 281.035023 512.019979 
L 281.254655 464.57174 
L 281.474287 508.350574 
L 281.69392 275.656874 
L 281.913552 506.633665 
L 282.133184 382.545417 
L 282.352816 378.969127 
L 282.572449 500.627743 
L 282.792081 423.473511 
L 283.011713 491.050865 
L 283.231346 385.138508 
L 283.450978 332.946171 
L 283.67061 335.208978 
L 283.890242 414.717085 
L 284.109875 323.609404 
L 284.329507 399.109335 
L 284.549139 419.130224 
L 284.768772 342.354086 
L 284.988404 384.6214 
L 285.208036 148.592844 
L 285.427668 339.656779 
L 285.647301 313.402037 
L 285.866933 334.275367 
L 286.086565 447.073348 
L 286.306198 398.445307 
L 286.52583 387.200547 
L 286.745462 381.664102 
L 286.965094 367.215074 
L 287.184727 283.3782 
L 287.404359 387.510025 
L 287.623991 307.306368 
L 287.843624 475.942429 
L 288.063256 330.979892 
L 288.282888 402.501739 
L 288.50252 391.448593 
L 288.722153 499.305889 
L 288.941785 242.026064 
L 289.381049 297.474325 
L 289.600682 417.094164 
L 289.820314 367.672151 
L 290.039946 432.615409 
L 290.259579 340.406886 
L 290.479211 335.887668 
L 290.698843 397.670501 
L 290.918475 355.826349 
L 291.138108 345.346704 
L 291.35774 472.651621 
L 291.577372 498.802414 
L 291.797005 265.313164 
L 292.016637 417.844888 
L 292.236269 384.512543 
L 292.455901 369.288949 
L 292.675534 452.421918 
L 292.895166 376.141436 
L 293.114798 360.520917 
L 293.334431 360.396687 
L 293.554063 440.87946 
L 293.773695 233.557419 
L 293.993327 352.276327 
L 294.21296 261.970882 
L 294.432592 346.602571 
L 294.652224 337.73793 
L 294.871857 386.154547 
L 295.091489 257.149683 
L 295.311121 248.332756 
L 295.530753 369.680331 
L 295.750386 294.536048 
L 295.970018 409.323765 
L 296.18965 353.952808 
L 296.409283 347.102619 
L 296.628915 353.640675 
L 296.848547 326.583575 
L 297.068179 380.727533 
L 297.287812 257.463219 
L 297.727076 418.859316 
L 297.946709 363.952895 
L 298.166341 431.636036 
L 298.385973 367.417361 
L 298.825238 455.621649 
L 299.04487 357.943669 
L 299.264502 368.547836 
L 299.484135 429.235798 
L 299.703767 221.419797 
L 300.143031 384.858172 
L 300.362664 253.648935 
L 300.801928 365.463101 
L 301.021561 326.340216 
L 301.241193 475.24726 
L 301.460825 275.271523 
L 301.680457 346.459528 
L 301.90009 351.420539 
L 302.119722 530.740961 
L 302.339354 373.737834 
L 302.558987 471.825989 
L 302.778619 242.232719 
L 303.217883 455.357895 
L 303.437516 266.465436 
L 303.657148 483.65809 
L 303.87678 396.711878 
L 304.096412 464.444495 
L 304.316045 430.04436 
L 304.535677 420.84292 
L 304.755309 238.771379 
L 304.974942 296.989473 
L 305.194574 429.421072 
L 305.414206 349.319113 
L 305.633838 467.539684 
L 305.853471 355.615351 
L 306.073103 459.100879 
L 306.512368 258.812811 
L 306.732 303.987495 
L 306.951632 395.721574 
L 307.171264 358.578348 
L 307.390897 453.724153 
L 307.610529 403.824961 
L 307.830161 381.151264 
L 308.049794 475.319241 
L 308.269426 438.1453 
L 308.489058 453.57313 
L 308.70869 358.052869 
L 308.928323 433.150745 
L 309.147955 447.967042 
L 309.367587 339.371347 
L 309.58722 360.495657 
L 309.806852 173.82048 
L 310.246116 452.148293 
L 310.465749 446.863818 
L 310.685381 418.071929 
L 310.905013 408.593581 
L 311.124646 297.034347 
L 311.344278 392.929372 
L 311.56391 381.787701 
L 311.783542 312.841226 
L 312.003175 452.285502 
L 312.222807 399.292986 
L 312.662072 466.495763 
L 312.881704 441.176547 
L 313.101336 344.668017 
L 313.320968 448.155558 
L 313.760233 324.364058 
L 313.979865 295.232359 
L 314.199498 460.348686 
L 314.41913 427.971278 
L 314.638762 357.907539 
L 314.858394 387.119382 
L 315.078027 391.64547 
L 315.297659 366.252626 
L 315.517291 441.020097 
L 315.736924 311.198051 
L 315.956556 312.446224 
L 316.176188 426.14829 
L 316.39582 390.479866 
L 316.615453 217.150758 
L 316.835085 403.726461 
L 317.054717 234.72725 
L 317.493982 518.825772 
L 317.713614 420.867818 
L 317.933246 388.137383 
L 318.152879 448.202954 
L 318.372511 477.148309 
L 318.592143 372.171853 
L 318.811775 325.956434 
L 319.031408 388.202055 
L 319.25104 309.28491 
L 319.470672 381.022728 
L 319.690305 346.433652 
L 319.909937 362.223351 
L 320.129569 353.697708 
L 320.349201 392.267004 
L 320.568834 319.959548 
L 320.788466 289.993369 
L 321.008098 235.409261 
L 321.227731 482.744294 
L 321.447363 304.523185 
L 321.666995 343.208795 
L 321.886627 292.21251 
L 322.10626 207.555749 
L 322.325892 176.259745 
L 322.545524 345.004342 
L 322.765157 262.474934 
L 323.204421 380.767101 
L 323.424053 340.207123 
L 323.863318 412.357832 
L 324.08295 251.64235 
L 324.302583 266.114351 
L 324.522215 415.855452 
L 324.741847 303.195696 
L 325.181112 409.548015 
L 325.400744 336.559609 
L 325.620376 456.695076 
L 325.840009 358.633666 
L 326.059641 402.966423 
L 326.279273 278.330681 
L 326.498905 366.063646 
L 326.718538 350.939684 
L 326.93817 144.337138 
L 327.157802 233.993514 
L 327.377435 380.218289 
L 327.597067 338.170063 
L 327.816699 376.825313 
L 328.036331 256.116845 
L 328.255964 503.59549 
L 328.475596 354.628323 
L 328.914861 277.969908 
L 329.134493 282.582698 
L 329.354125 467.2753 
L 329.573757 391.243613 
L 329.79339 391.843897 
L 330.013022 305.778012 
L 330.452287 466.999929 
L 330.671919 395.956531 
L 330.891551 455.288604 
L 331.330816 377.925607 
L 331.77008 477.944802 
L 332.209345 352.310404 
L 332.428977 347.93259 
L 332.648609 470.177725 
L 332.868242 445.850371 
L 333.087874 361.827538 
L 333.307506 391.379742 
L 333.527139 212.688263 
L 333.966403 557.623334 
L 334.186035 280.5048 
L 334.405668 246.083165 
L 334.6253 426.832698 
L 334.844932 361.837734 
L 335.064564 408.908638 
L 335.284197 241.635817 
L 335.503829 445.121498 
L 335.943094 332.030059 
L 336.162726 202.34685 
L 336.382358 191.905956 
L 336.60199 383.65706 
L 336.821623 287.877363 
L 337.041255 356.4001 
L 337.48052 331.553724 
L 337.700152 397.525337 
L 337.919784 280.321866 
L 338.359049 435.529507 
L 338.578681 306.793461 
L 338.798313 345.191711 
L 339.017946 432.839759 
L 339.237578 404.699059 
L 339.45721 435.459719 
L 339.676842 410.17137 
L 339.896475 280.721661 
L 340.116107 531.172925 
L 340.335739 460.127106 
L 340.555372 492.194476 
L 340.994636 324.21734 
L 341.214268 420.180673 
L 341.433901 433.508198 
L 341.873165 261.567731 
L 342.092798 272.861756 
L 342.31243 423.825142 
L 342.532062 229.921395 
L 342.751694 291.792607 
L 342.971327 462.976115 
L 343.190959 325.695024 
L 343.410591 397.50027 
L 343.849856 251.124419 
L 344.069488 416.000679 
L 344.28912 265.863455 
L 344.508753 507.378416 
L 344.728385 403.769423 
L 344.948017 353.845699 
L 345.16765 431.978912 
L 345.606914 243.019066 
L 346.046179 497.121109 
L 346.265811 263.784068 
L 346.485443 503.234535 
L 346.705076 322.044551 
L 346.924708 471.753199 
L 347.14434 475.330979 
L 347.583605 274.222288 
L 347.803237 404.151293 
L 348.022869 288.511082 
L 348.242502 294.256389 
L 348.462134 346.85841 
L 348.681766 465.437259 
L 348.901398 464.181024 
L 349.121031 233.093763 
L 349.340663 462.57973 
L 349.560295 422.644714 
L 349.779927 409.433265 
L 349.99956 323.701259 
L 350.219192 541.869762 
L 350.438824 405.602161 
L 350.658457 439.598937 
L 350.878089 424.699982 
L 351.097721 514.275314 
L 351.317353 413.543221 
L 351.536986 403.426437 
L 351.756618 294.389352 
L 351.97625 333.767193 
L 352.195883 327.708988 
L 352.415515 300.455855 
L 352.635147 242.037436 
L 352.854779 343.765191 
L 353.074412 390.732677 
L 353.294044 270.447413 
L 353.513676 394.935895 
L 353.733309 431.026217 
L 353.952941 380.200944 
L 354.172573 298.880873 
L 354.392205 371.592761 
L 354.611838 243.066603 
L 354.83147 461.858464 
L 355.051102 233.874963 
L 355.270735 418.625146 
L 355.490367 338.158664 
L 355.709999 372.255922 
L 355.929631 378.728497 
L 356.149264 459.271171 
L 356.368896 331.301678 
L 356.588528 459.767172 
L 356.808161 354.102776 
L 357.027793 393.410821 
L 357.467057 318.595975 
L 357.906322 464.742038 
L 358.125954 502.784896 
L 358.345587 329.10398 
L 358.565219 331.453421 
L 358.784851 413.162499 
L 359.004483 351.031882 
L 359.224116 355.571495 
L 359.443748 398.050583 
L 359.66338 362.40284 
L 360.102645 462.157743 
L 360.322277 289.356666 
L 360.541909 441.215429 
L 360.761542 387.293058 
L 360.981174 437.351448 
L 361.200806 264.516856 
L 361.420439 456.009583 
L 361.640071 335.638804 
L 361.859703 328.87405 
L 362.079335 360.299957 
L 362.298968 323.502406 
L 362.738232 420.054515 
L 362.957865 407.798024 
L 363.177497 299.111276 
L 363.397129 382.267196 
L 363.616761 351.301533 
L 363.836394 372.148242 
L 364.056026 457.627155 
L 364.275658 355.495994 
L 364.495291 329.222975 
L 364.714923 212.675344 
L 365.154187 417.708749 
L 365.37382 468.767102 
L 365.593452 188.077613 
L 365.813084 402.153364 
L 366.032716 337.992377 
L 366.252349 205.398747 
L 366.471981 466.093618 
L 367.130878 349.319735 
L 367.35051 455.891125 
L 367.570142 394.918599 
L 367.789775 246.077598 
L 368.009407 421.894976 
L 368.229039 425.703523 
L 368.448672 131.763818 
L 368.887936 381.86767 
L 369.107568 428.675013 
L 369.327201 305.667427 
L 369.546833 370.304505 
L 369.766465 385.751798 
L 369.986098 537.896085 
L 370.20573 415.660877 
L 370.644994 304.453845 
L 370.864627 343.926365 
L 371.084259 282.094509 
L 371.303891 400.00216 
L 371.743156 350.194343 
L 371.962788 394.154741 
L 372.18242 410.337675 
L 372.402053 459.019109 
L 372.621685 441.750626 
L 373.06095 261.720333 
L 373.500214 475.643531 
L 373.719846 265.121512 
L 373.939479 334.361477 
L 374.159111 259.780512 
L 374.378743 425.951747 
L 374.598376 338.139214 
L 374.818008 399.913015 
L 375.03764 417.854897 
L 375.257272 279.74881 
L 375.476905 386.319737 
L 375.696537 426.26922 
L 375.916169 244.008503 
L 376.135802 395.859226 
L 376.355434 386.487376 
L 376.575066 386.168891 
L 376.794698 417.791592 
L 377.014331 379.990174 
L 377.233963 510.292808 
L 377.453595 481.947118 
L 377.673228 371.601827 
L 377.89286 428.088566 
L 378.112492 381.963226 
L 378.332124 443.384235 
L 378.551757 292.576195 
L 378.771389 316.405771 
L 378.991021 478.712173 
L 379.430286 287.559799 
L 379.649918 480.251263 
L 379.86955 323.728801 
L 380.089183 366.817049 
L 380.308815 325.810024 
L 380.528447 344.789489 
L 380.748079 317.349804 
L 380.967712 227.220157 
L 381.187344 469.296842 
L 381.406976 363.385957 
L 381.626609 389.387862 
L 381.846241 507.777723 
L 382.285505 362.778519 
L 382.505138 369.392517 
L 382.72477 240.997506 
L 382.944402 243.367778 
L 383.164035 349.472201 
L 383.383667 332.129246 
L 383.603299 362.830664 
L 383.822931 477.193883 
L 384.042564 403.032241 
L 384.262196 509.719559 
L 384.481828 319.968337 
L 384.701461 385.246542 
L 385.140725 427.31517 
L 385.360357 335.310638 
L 385.57999 450.748685 
L 385.799622 421.881597 
L 386.019254 339.540664 
L 386.238887 320.052474 
L 386.458519 456.047913 
L 386.678151 358.253615 
L 386.897783 384.596269 
L 387.117416 482.551858 
L 387.337048 442.484049 
L 387.55668 493.393843 
L 387.776313 355.130924 
L 387.995945 444.685178 
L 388.215577 351.711599 
L 388.435209 442.624814 
L 388.874474 297.077803 
L 389.094106 397.17875 
L 389.313739 351.709785 
L 389.533371 334.467705 
L 389.753003 511.295232 
L 389.972635 431.084451 
L 390.192268 402.051003 
L 390.4119 470.847668 
L 390.631532 342.696906 
L 390.851165 362.438703 
L 391.070797 328.161177 
L 391.290429 335.2061 
L 391.729694 528.583234 
L 391.949326 265.950735 
L 392.608223 476.933699 
L 392.827855 373.855304 
L 393.047487 327.287114 
L 393.26712 433.124808 
L 393.486752 473.594383 
L 393.706384 395.033241 
L 393.926017 414.579887 
L 394.145649 254.561951 
L 394.365281 461.538237 
L 394.584913 268.096033 
L 394.804546 394.223364 
L 395.024178 285.918185 
L 395.24381 345.344005 
L 395.463443 316.272161 
L 395.683075 452.230852 
L 395.902707 470.523896 
L 396.122339 444.899261 
L 396.341972 390.087685 
L 396.561604 431.542316 
L 396.781236 371.052935 
L 397.000868 356.834065 
L 397.659765 399.976 
L 397.879398 354.361767 
L 398.09903 380.295447 
L 398.318662 262.683311 
L 398.757927 377.318078 
L 398.977559 401.859131 
L 399.197191 364.132621 
L 399.416824 202.605418 
L 399.636456 405.693921 
L 399.856088 446.617868 
L 400.07572 277.285956 
L 400.295353 411.055214 
L 400.734617 340.917323 
L 400.95425 507.401877 
L 401.173882 379.526558 
L 401.393514 346.658185 
L 401.613146 405.371556 
L 401.832779 213.014412 
L 402.052411 312.207858 
L 402.272043 498.996499 
L 402.711308 372.741115 
L 402.93094 379.386661 
L 403.150572 428.261172 
L 403.370205 264.951969 
L 403.589837 459.865269 
L 403.809469 433.917758 
L 404.029102 391.889963 
L 404.248734 533.63633 
L 404.468366 351.344666 
L 404.687998 419.80771 
L 404.907631 297.814982 
L 405.127263 351.848389 
L 405.346895 372.835348 
L 405.78616 456.274804 
L 406.005792 405.694004 
L 406.225424 428.812998 
L 406.445057 489.619444 
L 406.664689 346.956972 
L 406.884321 331.239457 
L 407.103954 480.966598 
L 407.323586 388.58557 
L 407.543218 415.268049 
L 407.76285 276.007895 
L 407.982483 390.683764 
L 408.421747 473.116665 
L 408.64138 314.265313 
L 408.861012 414.302051 
L 409.080644 259.224479 
L 409.300276 285.990498 
L 409.519909 423.319318 
L 409.739541 377.701982 
L 409.959173 287.057618 
L 410.178806 385.787573 
L 410.398438 383.005431 
L 410.61807 456.21125 
L 410.837702 374.455316 
L 411.057335 357.562764 
L 411.276967 541.587475 
L 411.496599 309.845702 
L 411.716231 294.38504 
L 411.935864 187.886296 
L 412.375128 465.148519 
L 412.594761 509.593129 
L 412.814393 312.833126 
L 413.034025 442.107013 
L 413.253657 200.139847 
L 413.47329 414.886236 
L 413.692922 301.574434 
L 413.912554 328.644125 
L 414.132187 341.931683 
L 414.351819 317.127008 
L 414.571451 434.217485 
L 414.791083 373.059669 
L 415.010716 478.844028 
L 415.230348 359.144509 
L 415.44998 335.042273 
L 415.669613 481.206798 
L 415.889245 467.760866 
L 416.328509 382.804462 
L 416.548142 346.524715 
L 416.767774 517.24467 
L 416.987406 344.879342 
L 417.207039 426.664143 
L 417.426671 243.853605 
L 417.646303 458.91013 
L 417.865935 311.07335 
L 418.085568 421.776984 
L 418.3052 214.83877 
L 418.524832 380.483438 
L 418.964097 451.654041 
L 419.183729 405.734961 
L 419.403361 394.496265 
L 419.622994 442.085897 
L 419.842626 454.191271 
L 420.062258 253.745846 
L 420.281891 453.369983 
L 420.501523 424.671023 
L 420.721155 486.937224 
L 421.16042 387.789429 
L 421.380052 427.431075 
L 421.599684 439.71874 
L 421.819317 259.156077 
L 422.038949 437.882309 
L 422.258581 368.453232 
L 422.478213 402.193266 
L 422.697846 328.511361 
L 422.917478 356.728459 
L 423.13711 243.848466 
L 423.356743 517.1939 
L 423.796007 353.845832 
L 424.454904 388.978913 
L 424.674536 355.142552 
L 424.894169 512.256049 
L 425.113801 479.684812 
L 425.553065 361.42501 
L 425.772698 488.98374 
L 425.99233 184.152047 
L 426.211962 437.867229 
L 426.431594 402.80327 
L 426.651227 309.207685 
L 426.870859 563.758019 
L 427.090491 403.85732 
L 427.310124 347.903879 
L 427.749388 329.025119 
L 427.96902 336.813197 
L 428.188653 460.660982 
L 428.408285 256.954045 
L 428.627917 368.274625 
L 429.067182 315.394757 
L 429.286814 341.200433 
L 429.506446 346.411159 
L 429.726079 320.931587 
L 429.945711 386.969881 
L 430.165343 386.819652 
L 430.604608 230.94479 
L 430.82424 467.978097 
L 431.043872 438.545392 
L 431.263505 341.378634 
L 431.483137 330.799896 
L 431.702769 391.603285 
L 431.922402 378.583097 
L 432.142034 455.413461 
L 432.361666 330.447257 
L 432.581298 467.426213 
L 432.800931 365.38313 
L 433.020563 358.658687 
L 433.240195 374.270248 
L 433.459828 361.192146 
L 433.67946 380.119758 
L 433.899092 499.748902 
L 434.118724 437.209966 
L 434.338357 437.188528 
L 434.557989 430.198061 
L 434.777621 331.707825 
L 434.997254 433.59958 
L 435.216886 206.537875 
L 435.436518 508.067532 
L 435.65615 390.70024 
L 435.875783 392.876691 
L 436.095415 462.93318 
L 436.53468 444.170504 
L 436.754312 366.737831 
L 436.973944 370.086788 
L 437.193576 455.64765 
L 437.413209 249.541537 
L 437.632841 412.397812 
L 437.852473 450.023547 
L 438.072106 310.503183 
L 438.51137 520.463135 
L 438.731002 365.108781 
L 438.950635 318.438353 
L 439.170267 474.036824 
L 439.389899 265.37294 
L 439.609532 390.692378 
L 439.829164 356.84697 
L 440.048796 267.911289 
L 440.268428 425.618964 
L 440.488061 396.494534 
L 440.707693 345.015652 
L 440.927325 453.291833 
L 441.146958 405.164784 
L 441.36659 260.715557 
L 441.586222 461.769757 
L 441.805854 416.941138 
L 442.025487 418.185189 
L 442.245119 396.234399 
L 442.464751 434.389273 
L 442.684383 434.472199 
L 442.904016 420.563903 
L 443.123648 503.105441 
L 443.34328 421.826831 
L 443.562913 494.160944 
L 443.782545 233.031747 
L 444.221809 392.077637 
L 444.661074 136.440405 
L 444.880706 441.074221 
L 445.100339 559.541439 
L 445.319971 397.404822 
L 445.539603 387.530747 
L 445.759235 308.751243 
L 445.978868 415.297313 
L 446.1985 434.804982 
L 446.637765 363.106853 
L 446.857397 335.875139 
L 447.077029 444.685668 
L 447.296661 306.875063 
L 447.735926 433.348863 
L 447.955558 393.425546 
L 448.175191 413.297947 
L 448.394823 285.795931 
L 448.614455 274.627041 
L 448.834087 321.931681 
L 449.05372 336.595582 
L 449.273352 401.399554 
L 449.492984 344.143262 
L 449.712617 462.011829 
L 449.932249 484.158553 
L 450.151881 290.388554 
L 450.371513 293.299806 
L 450.591146 387.529863 
L 450.810778 170.231304 
L 451.250043 397.279596 
L 451.469675 365.378604 
L 451.689307 440.699215 
L 451.908939 309.041884 
L 452.128572 408.400146 
L 452.348204 337.327381 
L 452.567836 378.044314 
L 452.787469 356.222655 
L 453.007101 420.86698 
L 453.226733 309.073115 
L 453.446365 294.999791 
L 453.665998 360.47804 
L 453.88563 315.765991 
L 454.105262 474.788204 
L 454.544527 182.171658 
L 454.764159 543.545109 
L 454.983791 382.97144 
L 455.203424 306.298431 
L 455.423056 510.951007 
L 455.642688 200.027153 
L 455.862321 360.324145 
L 456.081953 372.68549 
L 456.301585 401.854511 
L 456.521217 371.434572 
L 456.960482 468.874101 
L 457.180114 486.189118 
L 457.399746 278.051222 
L 457.619379 371.865921 
L 457.839011 403.663443 
L 458.058643 379.430462 
L 458.278276 420.883407 
L 458.937172 321.046023 
L 459.156805 441.359797 
L 459.376437 364.013796 
L 459.596069 450.335232 
L 459.815702 361.041112 
L 460.254966 461.11527 
L 460.474598 345.699672 
L 460.913863 519.32557 
L 461.133495 262.297986 
L 461.353128 476.686142 
L 461.57276 399.480712 
L 461.792392 480.51691 
L 462.012024 494.355793 
L 462.231657 414.200074 
L 462.451289 376.456937 
L 462.890554 447.036914 
L 463.110186 363.147832 
L 463.329818 342.576438 
L 463.54945 401.035216 
L 463.769083 301.687606 
L 463.988715 351.735915 
L 464.208347 335.917203 
L 464.42798 376.370401 
L 464.647612 389.792536 
L 464.867244 355.134112 
L 465.086876 497.225293 
L 465.306509 335.115859 
L 465.526141 437.307762 
L 465.745773 317.9556 
L 465.965406 462.593362 
L 466.185038 427.662479 
L 466.624302 334.331144 
L 466.843935 458.506768 
L 467.063567 229.699155 
L 467.283199 374.148743 
L 467.502832 369.220705 
L 467.722464 335.859454 
L 467.942096 409.650398 
L 468.161728 246.962406 
L 468.381361 335.633209 
L 468.600993 324.238022 
L 468.820625 425.366229 
L 469.040258 414.50672 
L 469.25989 350.743052 
L 469.699154 469.487789 
L 469.918787 398.917088 
L 470.138419 459.55102 
L 470.358051 316.25684 
L 470.577684 268.452068 
L 470.797316 426.19197 
L 471.016948 422.340496 
L 471.23658 383.265206 
L 471.456213 317.794211 
L 471.675845 300.031954 
L 471.895477 326.792166 
L 472.334742 531.950757 
L 472.554374 368.557247 
L 472.774006 364.970701 
L 472.993639 279.394113 
L 473.213271 322.339422 
L 473.432903 208.306533 
L 473.652535 455.23987 
L 473.872168 469.221791 
L 474.0918 349.301041 
L 474.311432 339.458649 
L 474.531065 281.731859 
L 474.750697 405.397736 
L 474.970329 331.456934 
L 475.189961 421.118331 
L 475.409594 451.27885 
L 475.629226 419.415191 
L 475.848858 365.228158 
L 476.068491 445.483022 
L 476.288123 384.712085 
L 476.507755 355.272358 
L 476.727387 376.383585 
L 476.94702 308.530526 
L 477.166652 423.888376 
L 477.386284 423.652118 
L 477.605917 497.172651 
L 477.825549 362.389266 
L 478.045181 338.410615 
L 478.264813 467.433535 
L 478.484446 435.886903 
L 478.92371 292.355987 
L 479.143343 467.132182 
L 479.582607 363.072318 
L 479.802239 215.909071 
L 480.241504 407.653436 
L 480.461136 460.993845 
L 480.680769 411.563181 
L 480.900401 407.850175 
L 481.120033 444.248402 
L 481.559298 304.942782 
L 481.77893 346.721606 
L 481.998562 419.158437 
L 482.218195 403.561631 
L 482.437827 359.252966 
L 482.657459 477.662016 
L 482.877091 438.69296 
L 483.096724 420.725268 
L 483.316356 440.163072 
L 483.535988 304.974907 
L 483.755621 470.514066 
L 483.975253 429.81618 
L 484.194885 519.800579 
L 484.414517 409.758278 
L 484.63415 432.240913 
L 485.073414 358.599292 
L 485.293047 398.952974 
L 485.512679 381.613275 
L 485.951943 534.813532 
L 486.171576 329.944997 
L 486.391208 459.329072 
L 486.61084 381.270683 
L 486.830473 455.124428 
L 487.050105 449.47994 
L 487.269737 325.57933 
L 487.489369 378.526896 
L 487.709002 387.30413 
L 487.928634 427.021208 
L 488.148266 428.221893 
L 488.367898 473.727391 
L 488.587531 477.729714 
L 488.807163 409.914568 
L 489.46606 538.63662 
L 489.685692 395.449949 
L 489.905324 498.569109 
L 490.124957 388.274955 
L 490.344589 368.183082 
L 490.564221 474.064577 
L 490.783854 327.085929 
L 491.003486 416.913183 
L 491.223118 319.724126 
L 491.44275 570.587516 
L 491.662383 317.498627 
L 491.882015 201.303935 
L 492.101647 370.386315 
L 492.32128 364.022829 
L 492.540912 470.141939 
L 492.760544 338.509482 
L 492.980176 373.1841 
L 493.199809 288.802573 
L 493.419441 267.983865 
L 493.639073 511.659684 
L 493.858706 474.574746 
L 494.078338 219.76711 
L 494.29797 335.814335 
L 494.737235 398.058121 
L 494.956867 228.233723 
L 495.396132 393.608525 
L 495.615764 454.289954 
L 496.055028 320.341332 
L 496.274661 370.245641 
L 496.713925 317.913818 
L 496.933558 341.751936 
L 497.15319 421.07952 
L 497.372822 455.562832 
L 497.592454 360.588914 
L 497.812087 465.331502 
L 498.031719 342.148766 
L 498.251351 464.57897 
L 498.470984 486.144636 
L 498.690616 360.215646 
L 498.910248 445.009407 
L 499.12988 467.459408 
L 499.349513 381.428098 
L 499.569145 341.833485 
L 500.00841 413.587589 
L 500.447674 457.417769 
L 500.667306 452.199268 
L 500.886939 395.554067 
L 501.326203 474.815231 
L 501.545836 275.033092 
L 502.204732 492.193267 
L 502.424365 464.732424 
L 502.643997 311.387211 
L 502.863629 259.261093 
L 503.083262 456.090284 
L 503.302894 304.722924 
L 503.522526 316.196246 
L 503.742158 348.814017 
L 503.961791 360.670732 
L 504.401055 515.228891 
L 504.620687 467.787003 
L 504.84032 454.563282 
L 505.059952 285.995877 
L 505.279584 349.310122 
L 505.499217 340.595843 
L 505.718849 376.339409 
L 505.938481 331.978904 
L 506.158113 348.942761 
L 506.377746 179.444019 
L 506.597378 370.093528 
L 506.81701 428.380696 
L 507.036643 374.865135 
L 507.256275 405.71163 
L 507.475907 183.687727 
L 508.134804 449.494392 
L 508.354436 403.768089 
L 508.574069 415.640322 
L 508.793701 505.567623 
L 509.013333 223.71086 
L 509.232965 422.461547 
L 509.452598 291.164137 
L 509.67223 347.942456 
L 509.891862 459.218294 
L 510.111495 227.821758 
L 510.331127 351.740031 
L 510.550759 381.256876 
L 510.770391 339.1911 
L 510.990024 495.813928 
L 511.429288 484.875089 
L 511.868553 332.176425 
L 512.088185 337.146756 
L 512.307817 421.06523 
L 512.52745 224.815001 
L 512.747082 319.537599 
L 512.966714 319.909471 
L 513.405979 237.169862 
L 513.845243 422.422932 
L 514.284508 270.314736 
L 514.50414 483.034905 
L 515.382669 335.941191 
L 515.602302 463.76654 
L 515.821934 430.869813 
L 516.041566 428.604808 
L 516.480831 329.991391 
L 516.700463 499.381615 
L 516.920095 336.463327 
L 517.139728 410.11296 
L 517.35936 385.630768 
L 517.578992 407.056004 
L 517.798625 301.530832 
L 518.018257 580.503039 
L 518.237889 318.646483 
L 518.457521 394.444478 
L 518.677154 385.616995 
L 518.896786 467.290227 
L 519.116418 349.815399 
L 519.33605 461.238996 
L 519.555683 499.157693 
L 519.994947 333.422029 
L 520.21458 304.760089 
L 520.434212 406.371624 
L 520.653844 362.221533 
L 520.873476 448.838518 
L 521.093109 421.128581 
L 521.312741 418.325541 
L 521.532373 308.953384 
L 521.752006 418.967196 
L 521.971638 382.183642 
L 522.19127 460.362302 
L 522.630535 265.562659 
L 522.850167 331.824916 
L 523.069799 353.57687 
L 523.289432 392.20503 
L 523.509064 480.918281 
L 523.728696 321.132503 
L 524.167961 282.54595 
L 524.387593 349.218858 
L 524.607225 450.711256 
L 524.826858 418.955715 
L 525.04649 419.889332 
L 525.266122 177.932352 
L 525.705387 502.020588 
L 525.925019 384.901346 
L 526.144651 352.669789 
L 526.364284 230.224037 
L 526.583916 418.533515 
L 526.803548 361.761107 
L 527.02318 462.728128 
L 527.242813 388.479773 
L 527.462445 433.59515 
L 527.682077 211.249471 
L 527.90171 320.977851 
L 528.121342 499.641427 
L 528.340974 434.925468 
L 528.560606 419.586017 
L 528.780239 310.445437 
L 528.999871 405.647504 
L 529.219503 337.887099 
L 529.439136 396.212614 
L 529.658768 345.726267 
L 529.8784 503.930139 
L 530.098032 471.062343 
L 530.317665 318.905652 
L 530.537297 413.033472 
L 530.976562 288.363587 
L 531.196194 380.203618 
L 531.635458 330.035958 
L 531.855091 425.024081 
L 532.294355 417.134088 
L 532.513988 444.962229 
L 532.73362 504.217239 
L 532.953252 477.411599 
L 533.172884 261.481679 
L 533.392517 368.357792 
L 533.612149 310.345242 
L 533.831781 296.71333 
L 534.051413 243.570134 
L 534.271046 400.254243 
L 534.490678 377.431626 
L 534.71031 381.129271 
L 534.929943 489.752541 
L 535.149575 423.122655 
L 535.369207 306.492874 
L 535.588839 465.362069 
L 535.808472 345.132622 
L 536.028104 354.324405 
L 536.247736 388.223083 
L 536.467369 289.120809 
L 536.687001 349.099399 
L 536.906633 464.060368 
L 537.126265 448.339651 
L 537.345898 258.067016 
L 537.56553 294.302647 
L 537.785162 424.02715 
L 538.004795 364.08874 
L 538.224427 370.650082 
L 538.444059 447.142379 
L 538.663691 468.128214 
L 538.883324 298.243107 
L 539.102956 356.51378 
L 539.322588 465.523894 
L 539.542221 198.836508 
L 539.761853 298.977606 
L 539.981485 517.212586 
L 540.42075 194.226915 
L 540.640382 390.093519 
L 540.860014 285.276785 
L 541.079647 444.692328 
L 541.518911 329.208188 
L 541.738543 488.146901 
L 541.958176 344.603425 
L 542.177808 450.355887 
L 542.39744 453.836053 
L 542.836705 308.466363 
L 543.056337 494.998436 
L 543.275969 328.52298 
L 543.495602 449.196082 
L 543.715234 482.980869 
L 543.934866 342.337443 
L 544.154499 459.087164 
L 544.374131 339.105537 
L 544.593763 332.712509 
L 544.813395 290.745399 
L 545.033028 525.833781 
L 545.25266 323.224005 
L 545.472292 446.997584 
L 545.691925 316.457909 
L 545.911557 349.345971 
L 545.911557 349.345971 
" style="fill:none;stroke:#96c69a;stroke-linecap:round;stroke-width:3;"/>
   </g>
   <g id="line2d_2"/>
   <g id="patch_3">
    <path d="M 84.914375 602.94 
L 84.914375 109.326857 
" style="fill:none;stroke:#262626;stroke-linecap:square;stroke-linejoin:miter;stroke-width:2.5;"/>
   </g>
   <g id="patch_4">
    <path d="M 84.914375 602.94 
L 567.863804 602.94 
" style="fill:none;stroke:#262626;stroke-linecap:square;stroke-linejoin:miter;stroke-width:2.5;"/>
   </g>
   <g id="legend_1">
    <g id="patch_5">
     <path d="M 514.948179 597.94 
L 560.863804 597.94 
Q 562.863804 597.94 562.863804 595.94 
L 562.863804 554.034375 
Q 562.863804 552.034375 560.863804 552.034375 
L 514.948179 552.034375 
Q 512.948179 552.034375 512.948179 554.034375 
L 512.948179 595.94 
Q 512.948179 597.94 514.948179 597.94 
z
" style="fill:#ffffff;opacity:0.8;stroke:#cccccc;stroke-linejoin:miter;stroke-width:2;"/>
    </g>
    <g id="text_15">
     <!-- $n_\tau$ -->
     <g style="fill:#262626;" transform="translate(524.825991 574.270625)scale(0.24 -0.24)">
      <defs>
       <path d="M 3566 2113 
L 3156 0 
L 2578 0 
L 2988 2091 
Q 3016 2238 3031 2350 
Q 3047 2463 3047 2528 
Q 3047 2791 2881 2937 
Q 2716 3084 2419 3084 
Q 1956 3084 1622 2776 
Q 1288 2469 1184 1941 
L 800 0 
L 225 0 
L 903 3500 
L 1478 3500 
L 1363 2950 
Q 1603 3253 1940 3418 
Q 2278 3584 2650 3584 
Q 3113 3584 3367 3334 
Q 3622 3084 3622 2631 
Q 3622 2519 3608 2391 
Q 3594 2263 3566 2113 
z
" id="DejaVuSans-Oblique-6e" transform="scale(0.015625)"/>
       <path d="M 2103 638 
Q 2188 488 2525 488 
L 2800 488 
L 2706 0 
L 2363 0 
Q 1800 0 1600 300 
Q 1403 606 1534 1269 
L 1856 2925 
L 541 2925 
L 653 3500 
L 3881 3500 
L 3769 2925 
L 2444 2925 
L 2113 1234 
Q 2025 781 2103 638 
z
" id="DejaVuSans-Oblique-3c4" transform="scale(0.015625)"/>
      </defs>
      <use xlink:href="#DejaVuSans-Oblique-6e"/>
      <use transform="translate(63.378906 -16.40625)scale(0.7)" xlink:href="#DejaVuSans-Oblique-3c4"/>
     </g>
    </g>
    <g id="line2d_3">
     <path d="M 516.948179 588.360312 
L 536.948179 588.360312 
" style="fill:none;stroke:#96c69a;stroke-linecap:round;stroke-width:3;"/>
    </g>
    <g id="line2d_4"/>
    <g id="text_16">
     <!-- 64 -->
     <g style="fill:#262626;" transform="translate(544.948179 591.860312)scale(0.1 -0.1)">
      <defs>
       <path d="M 2316 2303 
Q 2000 2303 1842 2098 
Q 1684 1894 1684 1484 
Q 1684 1075 1842 870 
Q 2000 666 2316 666 
Q 2634 666 2792 870 
Q 2950 1075 2950 1484 
Q 2950 1894 2792 2098 
Q 2634 2303 2316 2303 
z
M 3803 4544 
L 3803 3681 
Q 3506 3822 3243 3889 
Q 2981 3956 2731 3956 
Q 2194 3956 1894 3657 
Q 1594 3359 1544 2772 
Q 1750 2925 1990 3001 
Q 2231 3078 2516 3078 
Q 3231 3078 3670 2659 
Q 4109 2241 4109 1563 
Q 4109 813 3618 361 
Q 3128 -91 2303 -91 
Q 1394 -91 895 523 
Q 397 1138 397 2266 
Q 397 3422 980 4083 
Q 1563 4744 2578 4744 
Q 2900 4744 3203 4694 
Q 3506 4644 3803 4544 
z
" id="DejaVuSans-Bold-36" transform="scale(0.015625)"/>
       <path d="M 2356 3675 
L 1038 1722 
L 2356 1722 
L 2356 3675 
z
M 2156 4666 
L 3494 4666 
L 3494 1722 
L 4159 1722 
L 4159 850 
L 3494 850 
L 3494 0 
L 2356 0 
L 2356 850 
L 288 850 
L 288 1881 
L 2156 4666 
z
" id="DejaVuSans-Bold-34" transform="scale(0.015625)"/>
      </defs>
      <use xlink:href="#DejaVuSans-Bold-36"/>
      <use x="69.580078" xlink:href="#DejaVuSans-Bold-34"/>
     </g>
    </g>
   </g>
  </g>
  <g id="axes_2">
   <g id="patch_6">
    <path d="M 84.914375 92.305714 
L 567.863804 92.305714 
L 567.863804 7.2 
L 84.914375 7.2 
z
" style="fill:none;"/>
   </g>
   <g id="matplotlib.axis_3">
    <g id="xtick_7"/>
    <g id="xtick_8"/>
    <g id="xtick_9"/>
    <g id="xtick_10"/>
    <g id="xtick_11"/>
    <g id="xtick_12"/>
   </g>
   <g id="matplotlib.axis_4">
    <g id="ytick_7">
     <g id="text_17">
      <!-- 0 -->
      <g style="fill:#262626;" transform="translate(55.416875 100.663996)scale(0.22 -0.22)">
       <use xlink:href="#DejaVuSans-30"/>
      </g>
     </g>
    </g>
    <g id="ytick_8">
     <g id="text_18">
      <!-- 100 -->
      <g style="fill:#262626;" transform="translate(27.421875 48.032138)scale(0.22 -0.22)">
       <use xlink:href="#DejaVuSans-31"/>
       <use x="63.623047" xlink:href="#DejaVuSans-30"/>
       <use x="127.246094" xlink:href="#DejaVuSans-30"/>
      </g>
     </g>
    </g>
   </g>
   <g id="patch_7">
    <path clip-path="url(#p8098961db1)" d="M 106.866622 92.305714 
L 140.639309 92.305714 
L 140.639309 11.252653 
L 106.866622 11.252653 
z
" style="fill:#96c69a;fill-opacity:0.5;stroke:#ffffff;stroke-linejoin:miter;stroke-width:2;"/>
   </g>
   <g id="patch_8">
    <path clip-path="url(#p8098961db1)" d="M 140.639309 92.305714 
L 174.411996 92.305714 
L 174.411996 11.252653 
L 140.639309 11.252653 
z
" style="fill:#96c69a;fill-opacity:0.5;stroke:#ffffff;stroke-linejoin:miter;stroke-width:2;"/>
   </g>
   <g id="patch_9">
    <path clip-path="url(#p8098961db1)" d="M 174.411996 92.305714 
L 208.184684 92.305714 
L 208.184684 11.252653 
L 174.411996 11.252653 
z
" style="fill:#96c69a;fill-opacity:0.5;stroke:#ffffff;stroke-linejoin:miter;stroke-width:2;"/>
   </g>
   <g id="patch_10">
    <path clip-path="url(#p8098961db1)" d="M 208.184684 92.305714 
L 241.957371 92.305714 
L 241.957371 11.252653 
L 208.184684 11.252653 
z
" style="fill:#96c69a;fill-opacity:0.5;stroke:#ffffff;stroke-linejoin:miter;stroke-width:2;"/>
   </g>
   <g id="patch_11">
    <path clip-path="url(#p8098961db1)" d="M 241.957371 92.305714 
L 275.730058 92.305714 
L 275.730058 11.778972 
L 241.957371 11.778972 
z
" style="fill:#96c69a;fill-opacity:0.5;stroke:#ffffff;stroke-linejoin:miter;stroke-width:2;"/>
   </g>
   <g id="patch_12">
    <path clip-path="url(#p8098961db1)" d="M 275.730058 92.305714 
L 309.502746 92.305714 
L 309.502746 11.252653 
L 275.730058 11.252653 
z
" style="fill:#96c69a;fill-opacity:0.5;stroke:#ffffff;stroke-linejoin:miter;stroke-width:2;"/>
   </g>
   <g id="patch_13">
    <path clip-path="url(#p8098961db1)" d="M 309.502746 92.305714 
L 343.275433 92.305714 
L 343.275433 11.252653 
L 309.502746 11.252653 
z
" style="fill:#96c69a;fill-opacity:0.5;stroke:#ffffff;stroke-linejoin:miter;stroke-width:2;"/>
   </g>
   <g id="patch_14">
    <path clip-path="url(#p8098961db1)" d="M 343.275433 92.305714 
L 377.04812 92.305714 
L 377.04812 11.252653 
L 343.275433 11.252653 
z
" style="fill:#96c69a;fill-opacity:0.5;stroke:#ffffff;stroke-linejoin:miter;stroke-width:2;"/>
   </g>
   <g id="patch_15">
    <path clip-path="url(#p8098961db1)" d="M 377.04812 92.305714 
L 410.820808 92.305714 
L 410.820808 11.778972 
L 377.04812 11.778972 
z
" style="fill:#96c69a;fill-opacity:0.5;stroke:#ffffff;stroke-linejoin:miter;stroke-width:2;"/>
   </g>
   <g id="patch_16">
    <path clip-path="url(#p8098961db1)" d="M 410.820808 92.305714 
L 444.593495 92.305714 
L 444.593495 11.252653 
L 410.820808 11.252653 
z
" style="fill:#96c69a;fill-opacity:0.5;stroke:#ffffff;stroke-linejoin:miter;stroke-width:2;"/>
   </g>
   <g id="patch_17">
    <path clip-path="url(#p8098961db1)" d="M 444.593495 92.305714 
L 478.366182 92.305714 
L 478.366182 11.252653 
L 444.593495 11.252653 
z
" style="fill:#96c69a;fill-opacity:0.5;stroke:#ffffff;stroke-linejoin:miter;stroke-width:2;"/>
   </g>
   <g id="patch_18">
    <path clip-path="url(#p8098961db1)" d="M 478.366182 92.305714 
L 512.13887 92.305714 
L 512.13887 11.252653 
L 478.366182 11.252653 
z
" style="fill:#96c69a;fill-opacity:0.5;stroke:#ffffff;stroke-linejoin:miter;stroke-width:2;"/>
   </g>
   <g id="patch_19">
    <path clip-path="url(#p8098961db1)" d="M 512.13887 92.305714 
L 545.911557 92.305714 
L 545.911557 11.252653 
L 512.13887 11.252653 
z
" style="fill:#96c69a;fill-opacity:0.5;stroke:#ffffff;stroke-linejoin:miter;stroke-width:2;"/>
   </g>
   <g id="patch_20">
    <path d="M 84.914375 92.305714 
L 84.914375 7.2 
" style="fill:none;stroke:#262626;stroke-linecap:square;stroke-linejoin:miter;stroke-width:2.5;"/>
   </g>
   <g id="patch_21">
    <path d="M 84.914375 92.305714 
L 567.863804 92.305714 
" style="fill:none;stroke:#262626;stroke-linecap:square;stroke-linejoin:miter;stroke-width:2.5;"/>
   </g>
  </g>
  <g id="axes_3">
   <g id="patch_22">
    <path d="M 584.517232 602.94 
L 667.784375 602.94 
L 667.784375 109.326857 
L 584.517232 109.326857 
z
" style="fill:none;"/>
   </g>
   <g id="matplotlib.axis_5">
    <g id="xtick_13">
     <g id="text_19">
      <!-- 0 -->
      <g style="fill:#262626;" transform="translate(577.518482 635.156562)scale(0.22 -0.22)">
       <use xlink:href="#DejaVuSans-30"/>
      </g>
     </g>
    </g>
    <g id="xtick_14">
     <g id="text_20">
      <!-- 100 -->
      <g style="fill:#262626;" transform="translate(606.855431 635.156562)scale(0.22 -0.22)">
       <use xlink:href="#DejaVuSans-31"/>
       <use x="63.623047" xlink:href="#DejaVuSans-30"/>
       <use x="127.246094" xlink:href="#DejaVuSans-30"/>
      </g>
     </g>
    </g>
   </g>
   <g id="matplotlib.axis_6">
    <g id="ytick_9"/>
    <g id="ytick_10"/>
    <g id="ytick_11"/>
    <g id="ytick_12"/>
    <g id="ytick_13"/>
    <g id="ytick_14"/>
   </g>
   <g id="patch_23">
    <path clip-path="url(#p0f625501d1)" d="M 584.517232 580.503039 
L 587.550644 580.503039 
L 587.550644 565.029273 
L 584.517232 565.029273 
z
" style="fill:#96c69a;fill-opacity:0.5;stroke:#ffffff;stroke-linejoin:miter;stroke-width:1.547377;"/>
   </g>
   <g id="patch_24">
    <path clip-path="url(#p0f625501d1)" d="M 584.517232 565.029273 
L 586.25061 565.029273 
L 586.25061 549.555506 
L 584.517232 549.555506 
z
" style="fill:#96c69a;fill-opacity:0.5;stroke:#ffffff;stroke-linejoin:miter;stroke-width:1.547377;"/>
   </g>
   <g id="patch_25">
    <path clip-path="url(#p0f625501d1)" d="M 584.517232 549.555506 
L 589.717366 549.555506 
L 589.717366 534.08174 
L 584.517232 534.08174 
z
" style="fill:#96c69a;fill-opacity:0.5;stroke:#ffffff;stroke-linejoin:miter;stroke-width:1.547377;"/>
   </g>
   <g id="patch_26">
    <path clip-path="url(#p0f625501d1)" d="M 584.517232 534.08174 
L 592.317433 534.08174 
L 592.317433 518.607974 
L 584.517232 518.607974 
z
" style="fill:#96c69a;fill-opacity:0.5;stroke:#ffffff;stroke-linejoin:miter;stroke-width:1.547377;"/>
   </g>
   <g id="patch_27">
    <path clip-path="url(#p0f625501d1)" d="M 584.517232 518.607974 
L 598.8176 518.607974 
L 598.8176 503.134208 
L 584.517232 503.134208 
z
" style="fill:#96c69a;fill-opacity:0.5;stroke:#ffffff;stroke-linejoin:miter;stroke-width:1.547377;"/>
   </g>
   <g id="patch_28">
    <path clip-path="url(#p0f625501d1)" d="M 584.517232 503.134208 
L 602.284356 503.134208 
L 602.284356 487.660442 
L 584.517232 487.660442 
z
" style="fill:#96c69a;fill-opacity:0.5;stroke:#ffffff;stroke-linejoin:miter;stroke-width:1.547377;"/>
   </g>
   <g id="patch_29">
    <path clip-path="url(#p0f625501d1)" d="M 584.517232 487.660442 
L 616.584724 487.660442 
L 616.584724 472.186675 
L 584.517232 472.186675 
z
" style="fill:#96c69a;fill-opacity:0.5;stroke:#ffffff;stroke-linejoin:miter;stroke-width:1.547377;"/>
   </g>
   <g id="patch_30">
    <path clip-path="url(#p0f625501d1)" d="M 584.517232 472.186675 
L 626.118303 472.186675 
L 626.118303 456.712909 
L 584.517232 456.712909 
z
" style="fill:#96c69a;fill-opacity:0.5;stroke:#ffffff;stroke-linejoin:miter;stroke-width:1.547377;"/>
   </g>
   <g id="patch_31">
    <path clip-path="url(#p0f625501d1)" d="M 584.517232 456.712909 
L 636.951915 456.712909 
L 636.951915 441.239143 
L 584.517232 441.239143 
z
" style="fill:#96c69a;fill-opacity:0.5;stroke:#ffffff;stroke-linejoin:miter;stroke-width:1.547377;"/>
   </g>
   <g id="patch_32">
    <path clip-path="url(#p0f625501d1)" d="M 584.517232 441.239143 
L 640.418671 441.239143 
L 640.418671 425.765377 
L 584.517232 425.765377 
z
" style="fill:#96c69a;fill-opacity:0.5;stroke:#ffffff;stroke-linejoin:miter;stroke-width:1.547377;"/>
   </g>
   <g id="patch_33">
    <path clip-path="url(#p0f625501d1)" d="M 584.517232 425.765377 
L 648.652216 425.765377 
L 648.652216 410.29161 
L 584.517232 410.29161 
z
" style="fill:#96c69a;fill-opacity:0.5;stroke:#ffffff;stroke-linejoin:miter;stroke-width:1.547377;"/>
   </g>
   <g id="patch_34">
    <path clip-path="url(#p0f625501d1)" d="M 584.517232 410.29161 
L 649.08556 410.29161 
L 649.08556 394.817844 
L 584.517232 394.817844 
z
" style="fill:#96c69a;fill-opacity:0.5;stroke:#ffffff;stroke-linejoin:miter;stroke-width:1.547377;"/>
   </g>
   <g id="patch_35">
    <path clip-path="url(#p0f625501d1)" d="M 584.517232 394.817844 
L 663.819273 394.817844 
L 663.819273 379.344078 
L 584.517232 379.344078 
z
" style="fill:#96c69a;fill-opacity:0.5;stroke:#ffffff;stroke-linejoin:miter;stroke-width:1.547377;"/>
   </g>
   <g id="patch_36">
    <path clip-path="url(#p0f625501d1)" d="M 584.517232 379.344078 
L 646.918838 379.344078 
L 646.918838 363.870312 
L 584.517232 363.870312 
z
" style="fill:#96c69a;fill-opacity:0.5;stroke:#ffffff;stroke-linejoin:miter;stroke-width:1.547377;"/>
   </g>
   <g id="patch_37">
    <path clip-path="url(#p0f625501d1)" d="M 584.517232 363.870312 
L 658.185795 363.870312 
L 658.185795 348.396545 
L 584.517232 348.396545 
z
" style="fill:#96c69a;fill-opacity:0.5;stroke:#ffffff;stroke-linejoin:miter;stroke-width:1.547377;"/>
   </g>
   <g id="patch_38">
    <path clip-path="url(#p0f625501d1)" d="M 584.517232 348.396545 
L 646.918838 348.396545 
L 646.918838 332.922779 
L 584.517232 332.922779 
z
" style="fill:#96c69a;fill-opacity:0.5;stroke:#ffffff;stroke-linejoin:miter;stroke-width:1.547377;"/>
   </g>
   <g id="patch_39">
    <path clip-path="url(#p0f625501d1)" d="M 584.517232 332.922779 
L 639.118637 332.922779 
L 639.118637 317.449013 
L 584.517232 317.449013 
z
" style="fill:#96c69a;fill-opacity:0.5;stroke:#ffffff;stroke-linejoin:miter;stroke-width:1.547377;"/>
   </g>
   <g id="patch_40">
    <path clip-path="url(#p0f625501d1)" d="M 584.517232 317.449013 
L 623.518236 317.449013 
L 623.518236 301.975247 
L 584.517232 301.975247 
z
" style="fill:#96c69a;fill-opacity:0.5;stroke:#ffffff;stroke-linejoin:miter;stroke-width:1.547377;"/>
   </g>
   <g id="patch_41">
    <path clip-path="url(#p0f625501d1)" d="M 584.517232 301.975247 
L 619.618135 301.975247 
L 619.618135 286.501481 
L 584.517232 286.501481 
z
" style="fill:#96c69a;fill-opacity:0.5;stroke:#ffffff;stroke-linejoin:miter;stroke-width:1.547377;"/>
   </g>
   <g id="patch_42">
    <path clip-path="url(#p0f625501d1)" d="M 584.517232 286.501481 
L 608.784523 286.501481 
L 608.784523 271.027714 
L 584.517232 271.027714 
z
" style="fill:#96c69a;fill-opacity:0.5;stroke:#ffffff;stroke-linejoin:miter;stroke-width:1.547377;"/>
   </g>
   <g id="patch_43">
    <path clip-path="url(#p0f625501d1)" d="M 584.517232 271.027714 
L 611.38459 271.027714 
L 611.38459 255.553948 
L 584.517232 255.553948 
z
" style="fill:#96c69a;fill-opacity:0.5;stroke:#ffffff;stroke-linejoin:miter;stroke-width:1.547377;"/>
   </g>
   <g id="patch_44">
    <path clip-path="url(#p0f625501d1)" d="M 584.517232 255.553948 
L 597.950911 255.553948 
L 597.950911 240.080182 
L 584.517232 240.080182 
z
" style="fill:#96c69a;fill-opacity:0.5;stroke:#ffffff;stroke-linejoin:miter;stroke-width:1.547377;"/>
   </g>
   <g id="patch_45">
    <path clip-path="url(#p0f625501d1)" d="M 584.517232 240.080182 
L 594.484155 240.080182 
L 594.484155 224.606416 
L 584.517232 224.606416 
z
" style="fill:#96c69a;fill-opacity:0.5;stroke:#ffffff;stroke-linejoin:miter;stroke-width:1.547377;"/>
   </g>
   <g id="patch_46">
    <path clip-path="url(#p0f625501d1)" d="M 584.517232 224.606416 
L 592.317433 224.606416 
L 592.317433 209.132649 
L 584.517232 209.132649 
z
" style="fill:#96c69a;fill-opacity:0.5;stroke:#ffffff;stroke-linejoin:miter;stroke-width:1.547377;"/>
   </g>
   <g id="patch_47">
    <path clip-path="url(#p0f625501d1)" d="M 584.517232 209.132649 
L 591.884088 209.132649 
L 591.884088 193.658883 
L 584.517232 193.658883 
z
" style="fill:#96c69a;fill-opacity:0.5;stroke:#ffffff;stroke-linejoin:miter;stroke-width:1.547377;"/>
   </g>
   <g id="patch_48">
    <path clip-path="url(#p0f625501d1)" d="M 584.517232 193.658883 
L 588.850677 193.658883 
L 588.850677 178.185117 
L 584.517232 178.185117 
z
" style="fill:#96c69a;fill-opacity:0.5;stroke:#ffffff;stroke-linejoin:miter;stroke-width:1.547377;"/>
   </g>
   <g id="patch_49">
    <path clip-path="url(#p0f625501d1)" d="M 584.517232 178.185117 
L 587.117299 178.185117 
L 587.117299 162.711351 
L 584.517232 162.711351 
z
" style="fill:#96c69a;fill-opacity:0.5;stroke:#ffffff;stroke-linejoin:miter;stroke-width:1.547377;"/>
   </g>
   <g id="patch_50">
    <path clip-path="url(#p0f625501d1)" d="M 584.517232 162.711351 
L 586.25061 162.711351 
L 586.25061 147.237584 
L 584.517232 147.237584 
z
" style="fill:#96c69a;fill-opacity:0.5;stroke:#ffffff;stroke-linejoin:miter;stroke-width:1.547377;"/>
   </g>
   <g id="patch_51">
    <path clip-path="url(#p0f625501d1)" d="M 584.517232 147.237584 
L 585.817266 147.237584 
L 585.817266 131.763818 
L 584.517232 131.763818 
z
" style="fill:#96c69a;fill-opacity:0.5;stroke:#ffffff;stroke-linejoin:miter;stroke-width:1.547377;"/>
   </g>
   <g id="patch_52">
    <path d="M 584.517232 602.94 
L 584.517232 109.326857 
" style="fill:none;stroke:#262626;stroke-linecap:square;stroke-linejoin:miter;stroke-width:2.5;"/>
   </g>
   <g id="patch_53">
    <path d="M 584.517232 602.94 
L 667.784375 602.94 
" style="fill:none;stroke:#262626;stroke-linecap:square;stroke-linejoin:miter;stroke-width:2.5;"/>
   </g>
  </g>
 </g>
 <defs>
  <clipPath id="pf5bc1a3f9f">
   <rect height="493.613143" width="482.949429" x="84.914375" y="109.326857"/>
  </clipPath>
  <clipPath id="p8098961db1">
   <rect height="85.105714" width="482.949429" x="84.914375" y="7.2"/>
  </clipPath>
  <clipPath id="p0f625501d1">
   <rect height="493.613143" width="83.267143" x="584.517232" y="109.326857"/>
  </clipPath>
 </defs>
</svg>
