<?xml version="1.0" encoding="utf-8" standalone="no"?>
<!DOCTYPE svg PUBLIC "-//W3C//DTD SVG 1.1//EN"
  "http://www.w3.org/Graphics/SVG/1.1/DTD/svg11.dtd">
<svg height="674.159375pt" version="1.1" viewBox="0 0 674.984375 674.159375" width="674.984375pt" xmlns="http://www.w3.org/2000/svg" xmlns:xlink="http://www.w3.org/1999/xlink">
 <metadata>
  <rdf:RDF xmlns:cc="http://creativecommons.org/ns#" xmlns:dc="http://purl.org/dc/elements/1.1/" xmlns:rdf="http://www.w3.org/1999/02/22-rdf-syntax-ns#">
   <cc:Work>
    <dc:type rdf:resource="http://purl.org/dc/dcmitype/StillImage"/>
    <dc:date>2021-07-24T14:58:01.010026</dc:date>
    <dc:format>image/svg+xml</dc:format>
    <dc:creator>
     <cc:Agent>
      <dc:title>Matplotlib v3.4.2, https://matplotlib.org/</dc:title>
     </cc:Agent>
    </dc:creator>
   </cc:Work>
  </rdf:RDF>
 </metadata>
 <defs>
  <style type="text/css">*{stroke-linecap:butt;stroke-linejoin:round;}</style>
 </defs>
 <g id="figure_1">
  <g id="patch_1">
   <path d="M 0 674.159375 
L 674.984375 674.159375 
L 674.984375 0 
L 0 0 
z
" style="fill:#ffffff;"/>
  </g>
  <g id="axes_1">
   <g id="patch_2">
    <path d="M 84.914375 602.94 
L 567.863804 602.94 
L 567.863804 109.326857 
L 84.914375 109.326857 
z
" style="fill:none;"/>
   </g>
   <g id="matplotlib.axis_1">
    <g id="xtick_1">
     <g id="text_1">
      <!-- 0 -->
      <g style="fill:#262626;" transform="translate(99.648239 635.156562)scale(0.22 -0.22)">
       <defs>
        <path d="M 2034 4250 
Q 1547 4250 1301 3770 
Q 1056 3291 1056 2328 
Q 1056 1369 1301 889 
Q 1547 409 2034 409 
Q 2525 409 2770 889 
Q 3016 1369 3016 2328 
Q 3016 3291 2770 3770 
Q 2525 4250 2034 4250 
z
M 2034 4750 
Q 2819 4750 3233 4129 
Q 3647 3509 3647 2328 
Q 3647 1150 3233 529 
Q 2819 -91 2034 -91 
Q 1250 -91 836 529 
Q 422 1150 422 2328 
Q 422 3509 836 4129 
Q 1250 4750 2034 4750 
z
" id="DejaVuSans-30" transform="scale(0.015625)"/>
       </defs>
       <use xlink:href="#DejaVuSans-30"/>
      </g>
     </g>
    </g>
    <g id="xtick_2">
     <g id="text_2">
      <!-- 20000 -->
      <g style="fill:#262626;" transform="translate(159.506153 635.156562)scale(0.22 -0.22)">
       <defs>
        <path d="M 1228 531 
L 3431 531 
L 3431 0 
L 469 0 
L 469 531 
Q 828 903 1448 1529 
Q 2069 2156 2228 2338 
Q 2531 2678 2651 2914 
Q 2772 3150 2772 3378 
Q 2772 3750 2511 3984 
Q 2250 4219 1831 4219 
Q 1534 4219 1204 4116 
Q 875 4013 500 3803 
L 500 4441 
Q 881 4594 1212 4672 
Q 1544 4750 1819 4750 
Q 2544 4750 2975 4387 
Q 3406 4025 3406 3419 
Q 3406 3131 3298 2873 
Q 3191 2616 2906 2266 
Q 2828 2175 2409 1742 
Q 1991 1309 1228 531 
z
" id="DejaVuSans-32" transform="scale(0.015625)"/>
       </defs>
       <use xlink:href="#DejaVuSans-32"/>
       <use x="63.623047" xlink:href="#DejaVuSans-30"/>
       <use x="127.246094" xlink:href="#DejaVuSans-30"/>
       <use x="190.869141" xlink:href="#DejaVuSans-30"/>
       <use x="254.492188" xlink:href="#DejaVuSans-30"/>
      </g>
     </g>
    </g>
    <g id="xtick_3">
     <g id="text_3">
      <!-- 40000 -->
      <g style="fill:#262626;" transform="translate(247.359066 635.156562)scale(0.22 -0.22)">
       <defs>
        <path d="M 2419 4116 
L 825 1625 
L 2419 1625 
L 2419 4116 
z
M 2253 4666 
L 3047 4666 
L 3047 1625 
L 3713 1625 
L 3713 1100 
L 3047 1100 
L 3047 0 
L 2419 0 
L 2419 1100 
L 313 1100 
L 313 1709 
L 2253 4666 
z
" id="DejaVuSans-34" transform="scale(0.015625)"/>
       </defs>
       <use xlink:href="#DejaVuSans-34"/>
       <use x="63.623047" xlink:href="#DejaVuSans-30"/>
       <use x="127.246094" xlink:href="#DejaVuSans-30"/>
       <use x="190.869141" xlink:href="#DejaVuSans-30"/>
       <use x="254.492188" xlink:href="#DejaVuSans-30"/>
      </g>
     </g>
    </g>
    <g id="xtick_4">
     <g id="text_4">
      <!-- 60000 -->
      <g style="fill:#262626;" transform="translate(335.21198 635.156562)scale(0.22 -0.22)">
       <defs>
        <path d="M 2113 2584 
Q 1688 2584 1439 2293 
Q 1191 2003 1191 1497 
Q 1191 994 1439 701 
Q 1688 409 2113 409 
Q 2538 409 2786 701 
Q 3034 994 3034 1497 
Q 3034 2003 2786 2293 
Q 2538 2584 2113 2584 
z
M 3366 4563 
L 3366 3988 
Q 3128 4100 2886 4159 
Q 2644 4219 2406 4219 
Q 1781 4219 1451 3797 
Q 1122 3375 1075 2522 
Q 1259 2794 1537 2939 
Q 1816 3084 2150 3084 
Q 2853 3084 3261 2657 
Q 3669 2231 3669 1497 
Q 3669 778 3244 343 
Q 2819 -91 2113 -91 
Q 1303 -91 875 529 
Q 447 1150 447 2328 
Q 447 3434 972 4092 
Q 1497 4750 2381 4750 
Q 2619 4750 2861 4703 
Q 3103 4656 3366 4563 
z
" id="DejaVuSans-36" transform="scale(0.015625)"/>
       </defs>
       <use xlink:href="#DejaVuSans-36"/>
       <use x="63.623047" xlink:href="#DejaVuSans-30"/>
       <use x="127.246094" xlink:href="#DejaVuSans-30"/>
       <use x="190.869141" xlink:href="#DejaVuSans-30"/>
       <use x="254.492188" xlink:href="#DejaVuSans-30"/>
      </g>
     </g>
    </g>
    <g id="xtick_5">
     <g id="text_5">
      <!-- 80000 -->
      <g style="fill:#262626;" transform="translate(423.064893 635.156562)scale(0.22 -0.22)">
       <defs>
        <path d="M 2034 2216 
Q 1584 2216 1326 1975 
Q 1069 1734 1069 1313 
Q 1069 891 1326 650 
Q 1584 409 2034 409 
Q 2484 409 2743 651 
Q 3003 894 3003 1313 
Q 3003 1734 2745 1975 
Q 2488 2216 2034 2216 
z
M 1403 2484 
Q 997 2584 770 2862 
Q 544 3141 544 3541 
Q 544 4100 942 4425 
Q 1341 4750 2034 4750 
Q 2731 4750 3128 4425 
Q 3525 4100 3525 3541 
Q 3525 3141 3298 2862 
Q 3072 2584 2669 2484 
Q 3125 2378 3379 2068 
Q 3634 1759 3634 1313 
Q 3634 634 3220 271 
Q 2806 -91 2034 -91 
Q 1263 -91 848 271 
Q 434 634 434 1313 
Q 434 1759 690 2068 
Q 947 2378 1403 2484 
z
M 1172 3481 
Q 1172 3119 1398 2916 
Q 1625 2713 2034 2713 
Q 2441 2713 2670 2916 
Q 2900 3119 2900 3481 
Q 2900 3844 2670 4047 
Q 2441 4250 2034 4250 
Q 1625 4250 1398 4047 
Q 1172 3844 1172 3481 
z
" id="DejaVuSans-38" transform="scale(0.015625)"/>
       </defs>
       <use xlink:href="#DejaVuSans-38"/>
       <use x="63.623047" xlink:href="#DejaVuSans-30"/>
       <use x="127.246094" xlink:href="#DejaVuSans-30"/>
       <use x="190.869141" xlink:href="#DejaVuSans-30"/>
       <use x="254.492188" xlink:href="#DejaVuSans-30"/>
      </g>
     </g>
    </g>
    <g id="xtick_6">
     <g id="text_6">
      <!-- 100000 -->
      <g style="fill:#262626;" transform="translate(503.919057 635.156562)scale(0.22 -0.22)">
       <defs>
        <path d="M 794 531 
L 1825 531 
L 1825 4091 
L 703 3866 
L 703 4441 
L 1819 4666 
L 2450 4666 
L 2450 531 
L 3481 531 
L 3481 0 
L 794 0 
L 794 531 
z
" id="DejaVuSans-31" transform="scale(0.015625)"/>
       </defs>
       <use xlink:href="#DejaVuSans-31"/>
       <use x="63.623047" xlink:href="#DejaVuSans-30"/>
       <use x="127.246094" xlink:href="#DejaVuSans-30"/>
       <use x="190.869141" xlink:href="#DejaVuSans-30"/>
       <use x="254.492188" xlink:href="#DejaVuSans-30"/>
       <use x="318.115234" xlink:href="#DejaVuSans-30"/>
      </g>
     </g>
    </g>
    <g id="text_7">
     <!-- MDTU -->
     <g style="fill:#262626;" transform="translate(290.683464 661.968125)scale(0.24 -0.24)">
      <defs>
       <path d="M 628 4666 
L 1569 4666 
L 2759 1491 
L 3956 4666 
L 4897 4666 
L 4897 0 
L 4281 0 
L 4281 4097 
L 3078 897 
L 2444 897 
L 1241 4097 
L 1241 0 
L 628 0 
L 628 4666 
z
" id="DejaVuSans-4d" transform="scale(0.015625)"/>
       <path d="M 1259 4147 
L 1259 519 
L 2022 519 
Q 2988 519 3436 956 
Q 3884 1394 3884 2338 
Q 3884 3275 3436 3711 
Q 2988 4147 2022 4147 
L 1259 4147 
z
M 628 4666 
L 1925 4666 
Q 3281 4666 3915 4102 
Q 4550 3538 4550 2338 
Q 4550 1131 3912 565 
Q 3275 0 1925 0 
L 628 0 
L 628 4666 
z
" id="DejaVuSans-44" transform="scale(0.015625)"/>
       <path d="M -19 4666 
L 3928 4666 
L 3928 4134 
L 2272 4134 
L 2272 0 
L 1638 0 
L 1638 4134 
L -19 4134 
L -19 4666 
z
" id="DejaVuSans-54" transform="scale(0.015625)"/>
       <path d="M 556 4666 
L 1191 4666 
L 1191 1831 
Q 1191 1081 1462 751 
Q 1734 422 2344 422 
Q 2950 422 3222 751 
Q 3494 1081 3494 1831 
L 3494 4666 
L 4128 4666 
L 4128 1753 
Q 4128 841 3676 375 
Q 3225 -91 2344 -91 
Q 1459 -91 1007 375 
Q 556 841 556 1753 
L 556 4666 
z
" id="DejaVuSans-55" transform="scale(0.015625)"/>
      </defs>
      <use xlink:href="#DejaVuSans-4d"/>
      <use x="86.279297" xlink:href="#DejaVuSans-44"/>
      <use x="163.28125" xlink:href="#DejaVuSans-54"/>
      <use x="224.365234" xlink:href="#DejaVuSans-55"/>
     </g>
    </g>
   </g>
   <g id="matplotlib.axis_2">
    <g id="ytick_1">
     <g id="text_8">
      <!-- 0.8 -->
      <g style="fill:#262626;" transform="translate(34.4275 541.88388)scale(0.22 -0.22)">
       <defs>
        <path d="M 684 794 
L 1344 794 
L 1344 0 
L 684 0 
L 684 794 
z
" id="DejaVuSans-2e" transform="scale(0.015625)"/>
       </defs>
       <use xlink:href="#DejaVuSans-30"/>
       <use x="63.623047" xlink:href="#DejaVuSans-2e"/>
       <use x="95.410156" xlink:href="#DejaVuSans-38"/>
      </g>
     </g>
    </g>
    <g id="ytick_2">
     <g id="text_9">
      <!-- 0.9 -->
      <g style="fill:#262626;" transform="translate(34.4275 472.414574)scale(0.22 -0.22)">
       <defs>
        <path d="M 703 97 
L 703 672 
Q 941 559 1184 500 
Q 1428 441 1663 441 
Q 2288 441 2617 861 
Q 2947 1281 2994 2138 
Q 2813 1869 2534 1725 
Q 2256 1581 1919 1581 
Q 1219 1581 811 2004 
Q 403 2428 403 3163 
Q 403 3881 828 4315 
Q 1253 4750 1959 4750 
Q 2769 4750 3195 4129 
Q 3622 3509 3622 2328 
Q 3622 1225 3098 567 
Q 2575 -91 1691 -91 
Q 1453 -91 1209 -44 
Q 966 3 703 97 
z
M 1959 2075 
Q 2384 2075 2632 2365 
Q 2881 2656 2881 3163 
Q 2881 3666 2632 3958 
Q 2384 4250 1959 4250 
Q 1534 4250 1286 3958 
Q 1038 3666 1038 3163 
Q 1038 2656 1286 2365 
Q 1534 2075 1959 2075 
z
" id="DejaVuSans-39" transform="scale(0.015625)"/>
       </defs>
       <use xlink:href="#DejaVuSans-30"/>
       <use x="63.623047" xlink:href="#DejaVuSans-2e"/>
       <use x="95.410156" xlink:href="#DejaVuSans-39"/>
      </g>
     </g>
    </g>
    <g id="ytick_3">
     <g id="text_10">
      <!-- 1.0 -->
      <g style="fill:#262626;" transform="translate(34.4275 402.945267)scale(0.22 -0.22)">
       <use xlink:href="#DejaVuSans-31"/>
       <use x="63.623047" xlink:href="#DejaVuSans-2e"/>
       <use x="95.410156" xlink:href="#DejaVuSans-30"/>
      </g>
     </g>
    </g>
    <g id="ytick_4">
     <g id="text_11">
      <!-- 1.1 -->
      <g style="fill:#262626;" transform="translate(34.4275 333.475961)scale(0.22 -0.22)">
       <use xlink:href="#DejaVuSans-31"/>
       <use x="63.623047" xlink:href="#DejaVuSans-2e"/>
       <use x="95.410156" xlink:href="#DejaVuSans-31"/>
      </g>
     </g>
    </g>
    <g id="ytick_5">
     <g id="text_12">
      <!-- 1.2 -->
      <g style="fill:#262626;" transform="translate(34.4275 264.006655)scale(0.22 -0.22)">
       <use xlink:href="#DejaVuSans-31"/>
       <use x="63.623047" xlink:href="#DejaVuSans-2e"/>
       <use x="95.410156" xlink:href="#DejaVuSans-32"/>
      </g>
     </g>
    </g>
    <g id="ytick_6">
     <g id="text_13">
      <!-- 1.3 -->
      <g style="fill:#262626;" transform="translate(34.4275 194.537349)scale(0.22 -0.22)">
       <defs>
        <path d="M 2597 2516 
Q 3050 2419 3304 2112 
Q 3559 1806 3559 1356 
Q 3559 666 3084 287 
Q 2609 -91 1734 -91 
Q 1441 -91 1130 -33 
Q 819 25 488 141 
L 488 750 
Q 750 597 1062 519 
Q 1375 441 1716 441 
Q 2309 441 2620 675 
Q 2931 909 2931 1356 
Q 2931 1769 2642 2001 
Q 2353 2234 1838 2234 
L 1294 2234 
L 1294 2753 
L 1863 2753 
Q 2328 2753 2575 2939 
Q 2822 3125 2822 3475 
Q 2822 3834 2567 4026 
Q 2313 4219 1838 4219 
Q 1578 4219 1281 4162 
Q 984 4106 628 3988 
L 628 4550 
Q 988 4650 1302 4700 
Q 1616 4750 1894 4750 
Q 2613 4750 3031 4423 
Q 3450 4097 3450 3541 
Q 3450 3153 3228 2886 
Q 3006 2619 2597 2516 
z
" id="DejaVuSans-33" transform="scale(0.015625)"/>
       </defs>
       <use xlink:href="#DejaVuSans-31"/>
       <use x="63.623047" xlink:href="#DejaVuSans-2e"/>
       <use x="95.410156" xlink:href="#DejaVuSans-33"/>
      </g>
     </g>
    </g>
    <g id="ytick_7">
     <g id="text_14">
      <!-- 1.4 -->
      <g style="fill:#262626;" transform="translate(34.4275 125.068043)scale(0.22 -0.22)">
       <use xlink:href="#DejaVuSans-31"/>
       <use x="63.623047" xlink:href="#DejaVuSans-2e"/>
       <use x="95.410156" xlink:href="#DejaVuSans-34"/>
      </g>
     </g>
    </g>
    <g id="text_15">
     <!-- $E$ -->
     <g style="fill:#262626;" transform="translate(25.43625 363.813429)rotate(-90)scale(0.24 -0.24)">
      <defs>
       <path d="M 1081 4666 
L 4031 4666 
L 3928 4134 
L 1606 4134 
L 1338 2753 
L 3566 2753 
L 3463 2222 
L 1234 2222 
L 909 531 
L 3284 531 
L 3181 0 
L 172 0 
L 1081 4666 
z
" id="DejaVuSans-Oblique-45" transform="scale(0.015625)"/>
      </defs>
      <use transform="translate(0 0.09375)" xlink:href="#DejaVuSans-Oblique-45"/>
     </g>
    </g>
   </g>
   <g id="line2d_1">
    <path clip-path="url(#p531f8e1b59)" d="M 106.866622 448.812859 
L 107.086254 396.688787 
L 107.305886 385.903172 
L 107.525519 294.790694 
L 107.964783 479.952618 
L 108.184415 344.291713 
L 108.404048 414.310889 
L 108.62368 350.526549 
L 108.843312 422.539001 
L 109.282577 294.139978 
L 109.502209 409.770853 
L 109.721841 449.691154 
L 109.941474 403.275467 
L 110.161106 406.514636 
L 110.380738 399.037604 
L 110.820003 338.707442 
L 111.039635 263.419261 
L 111.259267 487.210612 
L 111.4789 360.236004 
L 111.698532 347.06309 
L 111.918164 356.402988 
L 112.137797 454.436851 
L 112.357429 459.625055 
L 112.577061 300.222118 
L 112.796693 409.86683 
L 113.016326 301.445859 
L 113.235958 493.987553 
L 113.45559 375.459499 
L 113.675223 438.833013 
L 113.894855 341.164486 
L 114.334119 332.26992 
L 114.553752 417.193228 
L 114.773384 344.790762 
L 114.993016 414.225277 
L 115.212649 525.295696 
L 115.432281 383.068586 
L 115.651913 319.745935 
L 115.871545 400.606976 
L 116.091178 332.41146 
L 116.31081 345.999865 
L 116.530442 409.643898 
L 116.969707 398.057001 
L 117.189339 225.482889 
L 117.408971 497.81704 
L 117.628604 357.437946 
L 117.848236 400.101335 
L 118.067868 511.104032 
L 118.287501 389.352745 
L 118.507133 349.74954 
L 118.726765 260.506926 
L 118.946397 328.086982 
L 119.16603 503.66166 
L 119.385662 262.856686 
L 119.605294 524.826051 
L 120.044559 314.336515 
L 120.264191 402.884709 
L 120.483823 350.076387 
L 120.923088 407.440982 
L 121.14272 346.770812 
L 121.362352 239.138201 
L 121.801617 436.836287 
L 122.240882 364.006445 
L 122.460514 492.223775 
L 122.680146 434.486653 
L 122.899778 300.147717 
L 123.119411 355.926212 
L 123.339043 371.844208 
L 123.558675 331.250186 
L 123.778308 265.560209 
L 124.217572 419.764405 
L 124.437204 322.042809 
L 124.656837 431.223892 
L 124.876469 295.615041 
L 125.315734 468.242088 
L 125.97463 352.098423 
L 126.194263 278.407898 
L 126.413895 405.982414 
L 126.85316 328.972099 
L 127.072792 417.277637 
L 127.292424 375.681542 
L 127.512056 491.365176 
L 127.731689 368.276876 
L 127.951321 370.698991 
L 128.170953 369.468116 
L 128.390586 364.979896 
L 128.610218 444.925742 
L 128.82985 298.035001 
L 129.049482 302.000837 
L 129.269115 340.063541 
L 129.488747 322.130505 
L 129.928012 449.681458 
L 130.147644 402.078218 
L 130.367276 424.748903 
L 130.586908 359.248794 
L 130.806541 439.912358 
L 131.245805 317.316757 
L 131.68507 529.356313 
L 131.904702 358.469606 
L 132.124334 343.784001 
L 132.343967 501.488256 
L 132.563599 377.280721 
L 132.783231 332.574148 
L 133.002864 336.026486 
L 133.442128 403.037445 
L 133.66176 394.150607 
L 133.881393 393.523521 
L 134.101025 453.580221 
L 134.320657 482.298169 
L 134.759922 340.425503 
L 134.979554 434.36177 
L 135.199186 334.819619 
L 135.418819 447.446776 
L 135.638451 463.781672 
L 135.858083 393.869181 
L 136.077715 281.603991 
L 136.297348 283.878207 
L 136.51698 494.546171 
L 136.736612 327.258047 
L 136.956245 514.610523 
L 137.395509 315.964496 
L 137.615141 299.605804 
L 137.834774 434.031012 
L 138.054406 332.268436 
L 138.274038 416.203511 
L 138.493671 235.310638 
L 138.713303 284.645687 
L 139.152567 471.779992 
L 139.3722 436.652034 
L 139.591832 375.301116 
L 139.811464 233.143947 
L 140.031097 477.031966 
L 140.250729 356.704417 
L 140.470361 344.917227 
L 140.689993 409.384814 
L 140.909626 307.116627 
L 141.129258 441.314763 
L 141.34889 277.401246 
L 141.788155 346.214011 
L 142.007787 364.529097 
L 142.227419 487.876549 
L 142.447052 352.15096 
L 142.666684 450.808476 
L 142.886316 356.80286 
L 143.105949 494.070654 
L 143.325581 462.716537 
L 143.545213 276.066908 
L 143.764845 220.260256 
L 143.984478 375.658022 
L 144.20411 389.729601 
L 144.423742 359.342414 
L 144.643375 423.961899 
L 144.863007 409.211123 
L 145.082639 444.899576 
L 145.302271 248.211973 
L 145.521904 361.712441 
L 145.741536 404.439092 
L 145.961168 320.451429 
L 146.180801 288.864586 
L 146.400433 376.058215 
L 146.620065 341.885974 
L 146.839697 463.011972 
L 147.278962 387.153069 
L 147.498594 490.974942 
L 147.937859 370.255623 
L 148.157491 394.298838 
L 148.377123 338.154184 
L 148.596756 358.73313 
L 148.816388 362.490751 
L 149.03602 481.367458 
L 149.255653 373.594689 
L 149.475285 378.665978 
L 149.694917 401.375133 
L 149.914549 408.667035 
L 150.134182 265.289571 
L 150.353814 398.628187 
L 150.573446 457.146557 
L 150.793078 441.224317 
L 151.012711 493.501115 
L 151.232343 358.942459 
L 151.451975 381.650171 
L 151.671608 489.42523 
L 151.89124 366.035145 
L 152.110872 415.483954 
L 152.330504 384.57786 
L 152.550137 505.213574 
L 152.769769 415.543445 
L 152.989401 393.416648 
L 153.209034 396.702997 
L 153.428666 339.541255 
L 153.648298 432.226793 
L 153.86793 306.034856 
L 154.087563 282.681874 
L 154.307195 382.926056 
L 154.74646 278.306655 
L 154.966092 401.778262 
L 155.185724 416.952748 
L 155.405356 336.134861 
L 155.624989 370.151189 
L 155.844621 330.881814 
L 156.064253 383.740624 
L 156.283886 355.778192 
L 156.503518 420.209722 
L 156.72315 373.99573 
L 156.942782 474.300744 
L 157.162415 430.091738 
L 157.601679 267.276512 
L 157.821312 446.440329 
L 158.040944 324.495304 
L 158.260576 464.644137 
L 158.480208 349.374058 
L 158.699841 307.063083 
L 158.919473 435.287199 
L 159.139105 287.660128 
L 159.358738 258.737933 
L 159.57837 389.378696 
L 160.017634 332.124058 
L 160.237267 387.809249 
L 160.456899 388.145935 
L 160.676531 345.580846 
L 160.896164 442.398694 
L 161.115796 389.673514 
L 161.335428 272.662492 
L 161.55506 399.959981 
L 161.774693 361.669766 
L 161.994325 461.164272 
L 162.213957 388.740744 
L 162.43359 437.587917 
L 162.653222 298.451761 
L 162.872854 452.690255 
L 163.312119 371.626577 
L 163.531751 424.233097 
L 163.751383 330.086234 
L 163.971016 332.779787 
L 164.190648 310.808196 
L 164.41028 370.020319 
L 164.849545 324.198905 
L 165.288809 489.954887 
L 165.508441 326.775485 
L 165.728074 350.519416 
L 165.947706 283.765521 
L 166.606603 362.105952 
L 166.826235 424.710264 
L 167.045867 365.101873 
L 167.2655 426.272749 
L 167.485132 435.846727 
L 167.924397 387.079888 
L 168.144029 406.349844 
L 168.583293 479.189023 
L 168.802926 241.437906 
L 169.24219 471.701468 
L 169.461823 449.339221 
L 169.681455 341.44851 
L 169.901087 430.159025 
L 170.120719 329.642351 
L 170.340352 474.650284 
L 170.559984 513.720683 
L 170.779616 407.132003 
L 171.438513 440.970225 
L 171.658145 484.997485 
L 171.877778 374.391085 
L 172.09741 532.522873 
L 172.317042 418.43857 
L 172.536675 519.828585 
L 172.756307 335.986525 
L 172.975939 473.36262 
L 173.195571 363.504045 
L 173.415204 326.397941 
L 173.634836 265.923088 
L 174.074101 462.358915 
L 174.293733 456.089945 
L 174.513365 495.143283 
L 174.95263 323.044945 
L 175.172262 380.038345 
L 175.611527 349.789878 
L 175.831159 302.3768 
L 176.050791 413.796065 
L 176.270423 385.509283 
L 176.490056 428.633031 
L 176.709688 413.860789 
L 176.92932 375.725681 
L 177.148953 357.842502 
L 177.368585 467.92869 
L 177.588217 367.976878 
L 177.807849 340.742127 
L 178.027482 435.790436 
L 178.247114 381.055312 
L 178.466746 395.046952 
L 178.686379 434.110287 
L 178.906011 397.215726 
L 179.125643 499.140617 
L 179.564908 333.088474 
L 180.223805 465.768985 
L 180.443437 326.104084 
L 180.663069 421.496741 
L 180.882701 378.366227 
L 181.102334 438.464787 
L 181.321966 410.119614 
L 181.541598 440.380329 
L 181.76123 340.471255 
L 181.980863 330.147341 
L 182.200495 338.071745 
L 182.420127 444.561353 
L 182.63976 465.312195 
L 182.859392 401.213902 
L 183.079024 392.085627 
L 183.298656 240.284452 
L 183.518289 400.044695 
L 183.737921 471.027241 
L 184.177186 381.998248 
L 184.396818 400.455955 
L 184.61645 369.558014 
L 184.836082 455.202281 
L 185.055715 379.546867 
L 185.275347 342.472228 
L 185.494979 339.209749 
L 185.714612 400.410172 
L 185.934244 413.386748 
L 186.153876 447.536193 
L 186.373508 361.951634 
L 186.593141 330.820256 
L 186.812773 340.114867 
L 187.032405 503.275552 
L 187.252038 403.7033 
L 187.47167 370.300272 
L 187.691302 473.272824 
L 187.910934 444.812298 
L 188.130567 311.841932 
L 188.350199 436.208973 
L 188.569831 304.435559 
L 188.789464 478.33873 
L 189.009096 431.342658 
L 189.228728 489.683129 
L 189.44836 431.646148 
L 189.667993 292.21817 
L 189.887625 289.839958 
L 190.107257 290.311815 
L 190.32689 503.447715 
L 190.546522 350.285206 
L 190.766154 303.529493 
L 190.985786 378.961445 
L 191.205419 336.020668 
L 191.425051 468.465048 
L 191.644683 305.824924 
L 191.864316 420.531108 
L 192.083948 441.397185 
L 192.523212 367.312212 
L 192.742845 410.906189 
L 192.962477 417.32629 
L 193.182109 317.469625 
L 193.401742 525.47774 
L 193.621374 328.616802 
L 193.841006 361.123607 
L 194.060638 365.706351 
L 194.280271 453.277902 
L 194.499903 159.021937 
L 194.939168 432.539828 
L 195.1588 451.549703 
L 195.378432 360.274596 
L 195.598064 324.30677 
L 195.817697 446.185539 
L 196.037329 398.018286 
L 196.256961 397.538821 
L 196.476593 433.828027 
L 196.696226 428.875327 
L 196.915858 474.966604 
L 197.13549 330.28659 
L 197.355123 450.057146 
L 197.574755 363.140811 
L 197.794387 357.545592 
L 198.014019 339.430403 
L 198.233652 364.627657 
L 198.453284 306.621679 
L 198.672916 435.413152 
L 198.892549 326.924358 
L 199.331813 361.663543 
L 199.551445 474.213257 
L 199.771078 285.494752 
L 199.99071 416.092487 
L 200.429975 421.764585 
L 200.649607 454.082162 
L 201.088871 311.689287 
L 201.308504 432.424557 
L 201.528136 470.508078 
L 201.747768 425.508848 
L 201.967401 449.861197 
L 202.187033 403.794201 
L 202.406665 304.717346 
L 202.626297 405.650277 
L 202.84593 438.233377 
L 203.065562 329.027962 
L 203.285194 402.321859 
L 203.504827 299.489759 
L 203.724459 390.384513 
L 203.944091 418.742164 
L 204.163723 296.978975 
L 204.383356 395.100346 
L 204.602988 420.840294 
L 204.82262 399.434914 
L 205.042253 317.499183 
L 205.261885 443.545239 
L 205.481517 392.487594 
L 205.701149 468.459574 
L 205.920782 470.54091 
L 206.140414 399.426369 
L 206.360046 472.79504 
L 206.579679 310.191202 
L 207.018943 483.232318 
L 207.238575 470.273685 
L 207.67784 270.169963 
L 207.897472 397.057608 
L 208.117105 229.742772 
L 208.336737 420.971347 
L 208.556369 372.226044 
L 208.776001 416.221843 
L 208.995634 306.996392 
L 209.215266 264.918723 
L 209.654531 458.959537 
L 209.874163 413.100182 
L 210.093795 411.649247 
L 210.53306 364.293746 
L 210.752692 407.925226 
L 210.972324 227.004555 
L 211.191956 412.611648 
L 211.411589 319.02349 
L 211.631221 431.082459 
L 211.850853 403.998921 
L 212.290118 325.11637 
L 212.50975 356.471806 
L 212.729382 289.10616 
L 212.949015 394.208613 
L 213.168647 381.954282 
L 213.388279 333.699274 
L 213.607912 440.263454 
L 213.827544 290.690432 
L 214.047176 373.51397 
L 214.266808 398.440993 
L 214.486441 471.968119 
L 214.706073 450.078282 
L 214.925705 356.806692 
L 215.145338 445.497062 
L 215.36497 480.272104 
L 215.584602 341.786773 
L 215.804234 372.633578 
L 216.023867 373.805751 
L 216.243499 355.738638 
L 216.463131 400.218305 
L 216.682764 364.466196 
L 216.902396 459.320885 
L 217.122028 352.625821 
L 217.34166 456.735467 
L 217.561293 289.554783 
L 217.780925 491.118298 
L 218.000557 360.875072 
L 218.22019 434.983144 
L 218.439822 370.507834 
L 218.659454 387.046692 
L 218.879086 485.671685 
L 219.098719 367.452786 
L 219.318351 427.426339 
L 219.537983 441.711989 
L 220.19688 308.380622 
L 220.416512 406.398875 
L 220.636145 369.516063 
L 220.855777 401.969377 
L 221.075409 530.952414 
L 221.514674 382.613204 
L 221.734306 427.027273 
L 221.953938 313.316655 
L 222.173571 461.66132 
L 222.393203 317.606492 
L 222.612835 418.12212 
L 222.832468 354.694965 
L 223.0521 415.702082 
L 223.271732 417.486195 
L 223.491364 444.941181 
L 223.710997 324.432552 
L 223.930629 323.633787 
L 224.150261 347.346048 
L 224.369894 427.762289 
L 224.589526 375.847677 
L 224.809158 291.989459 
L 225.02879 379.779081 
L 225.248423 379.351466 
L 225.468055 386.139102 
L 225.687687 383.86785 
L 225.90732 414.48569 
L 226.126952 466.026856 
L 226.346584 436.68966 
L 226.566216 513.341047 
L 227.005481 337.418178 
L 227.225113 376.031952 
L 227.444745 366.269375 
L 227.88401 400.440906 
L 228.103642 229.825904 
L 228.323275 478.644575 
L 228.542907 398.68487 
L 228.762539 387.249403 
L 228.982171 326.768527 
L 229.201804 332.128663 
L 229.641068 434.101588 
L 229.860701 221.348712 
L 230.080333 433.621788 
L 230.299965 432.901826 
L 230.519597 428.330797 
L 230.73923 554.541649 
L 230.958862 426.183876 
L 231.398127 311.869124 
L 231.617759 476.975248 
L 231.837391 453.016442 
L 232.057023 523.680443 
L 232.276656 389.284992 
L 232.496288 354.79567 
L 232.71592 430.388999 
L 232.935553 208.415569 
L 233.155185 411.926039 
L 233.374817 396.854082 
L 233.594449 365.739349 
L 233.814082 377.051513 
L 234.033714 216.950015 
L 234.253346 369.300172 
L 234.472979 432.479854 
L 234.692611 225.036295 
L 234.912243 394.985802 
L 235.131875 249.243945 
L 235.351508 261.809564 
L 235.57114 447.971002 
L 235.790772 363.411222 
L 236.010405 450.892155 
L 236.449669 236.665315 
L 236.669301 468.766885 
L 236.888934 356.124643 
L 237.108566 362.940184 
L 237.328198 328.78215 
L 237.547831 466.504808 
L 237.767463 418.005915 
L 237.987095 453.875397 
L 238.206727 336.959579 
L 238.42636 432.124236 
L 238.865624 352.174757 
L 239.085257 431.093828 
L 239.304889 456.215626 
L 239.524521 365.91201 
L 239.744153 482.760779 
L 239.963786 428.506217 
L 240.183418 295.685059 
L 240.40305 261.432142 
L 240.622683 395.647791 
L 240.842315 330.696276 
L 241.061947 396.129734 
L 241.281579 401.102348 
L 241.501212 340.680592 
L 241.720844 232.80941 
L 241.940476 374.419529 
L 242.160108 412.706122 
L 242.379741 365.429163 
L 242.599373 264.980777 
L 242.819005 360.407024 
L 243.038638 322.773585 
L 243.25827 448.601217 
L 243.477902 244.540553 
L 243.697534 320.240881 
L 243.917167 356.309413 
L 244.136799 441.675722 
L 244.576064 347.710431 
L 244.795696 426.954659 
L 245.015328 424.404096 
L 245.23496 360.099809 
L 245.454593 472.812233 
L 245.674225 265.8588 
L 245.893857 314.037532 
L 246.11349 395.402142 
L 246.333122 380.82962 
L 246.552754 415.782922 
L 246.772386 369.02739 
L 246.992019 375.411035 
L 247.211651 408.83123 
L 247.431283 340.998708 
L 247.650916 347.363303 
L 247.870548 509.5814 
L 248.09018 432.707595 
L 248.309812 446.143052 
L 248.529445 478.650417 
L 248.749077 396.925302 
L 248.968709 259.280144 
L 249.188342 437.741889 
L 249.407974 293.709946 
L 249.627606 285.285868 
L 249.847238 293.229413 
L 250.066871 431.987744 
L 250.286503 485.360848 
L 250.506135 398.913053 
L 250.725768 381.9022 
L 250.9454 398.801081 
L 251.165032 380.506458 
L 251.384664 413.627772 
L 251.604297 426.610623 
L 251.823929 391.345873 
L 252.043561 480.972428 
L 252.263194 336.012838 
L 252.482826 416.506337 
L 252.92209 334.585866 
L 253.141723 323.600405 
L 253.361355 341.569911 
L 253.580987 457.557651 
L 253.80062 426.621668 
L 254.020252 364.399915 
L 254.239884 423.204644 
L 254.459516 402.693362 
L 254.679149 422.885619 
L 254.898781 485.294784 
L 255.118413 494.566516 
L 255.338046 510.702264 
L 255.77731 260.69014 
L 255.996942 539.88535 
L 256.216575 278.246315 
L 256.436207 452.889271 
L 256.875472 406.910322 
L 257.095104 495.757776 
L 257.314736 331.725767 
L 257.534368 366.222199 
L 257.754001 353.418364 
L 257.973633 421.757439 
L 258.193265 292.724554 
L 258.63253 416.504201 
L 259.071794 447.258453 
L 259.511059 332.424799 
L 259.730691 394.822793 
L 260.169956 308.609836 
L 260.389588 388.955897 
L 260.60922 283.163806 
L 260.828853 373.636763 
L 261.048485 287.094791 
L 261.268117 330.090794 
L 261.487749 335.327957 
L 261.707382 467.6901 
L 261.927014 464.470633 
L 262.146646 349.737511 
L 262.366279 422.791763 
L 262.585911 405.346454 
L 262.805543 402.713616 
L 263.244808 289.454788 
L 263.46444 387.497495 
L 263.684072 344.017179 
L 263.903705 444.822405 
L 264.123337 470.594143 
L 264.562601 306.574809 
L 264.782234 348.238646 
L 265.001866 422.460964 
L 265.221498 262.868707 
L 265.441131 473.187425 
L 265.660763 338.339703 
L 265.880395 274.30064 
L 266.100027 416.977553 
L 266.31966 290.831708 
L 266.539292 307.854967 
L 266.758924 430.869163 
L 266.978557 397.799368 
L 267.198189 407.030167 
L 267.417821 401.535133 
L 267.637453 372.69791 
L 267.857086 312.040477 
L 268.076718 345.538305 
L 268.29635 457.207433 
L 268.515983 421.603813 
L 268.735615 327.820531 
L 268.955247 426.061661 
L 269.394512 324.470433 
L 269.614144 377.081198 
L 269.833776 465.552712 
L 270.053409 446.771225 
L 270.273041 463.57328 
L 270.712305 342.840385 
L 270.931938 436.776769 
L 271.15157 388.664534 
L 271.371202 530.325003 
L 271.590835 378.885152 
L 271.810467 447.588085 
L 272.249731 342.061025 
L 272.469364 386.623158 
L 272.688996 316.604674 
L 273.12826 417.792998 
L 273.347893 511.671089 
L 273.567525 314.685184 
L 273.787157 291.932973 
L 274.00679 394.077273 
L 274.226422 341.336691 
L 274.446054 365.124134 
L 274.665686 442.14207 
L 274.885319 314.835377 
L 275.104951 428.21955 
L 275.544216 189.169743 
L 275.763848 379.845696 
L 275.98348 345.790538 
L 276.203112 429.093308 
L 276.422745 400.399426 
L 276.642377 318.700269 
L 276.862009 459.463244 
L 277.081642 357.434687 
L 277.301274 327.083827 
L 277.740538 411.787122 
L 277.960171 290.227388 
L 278.399435 434.338527 
L 278.619068 236.729431 
L 278.8387 282.522143 
L 279.058332 431.964175 
L 279.277964 250.942969 
L 279.497597 472.736931 
L 279.717229 333.591652 
L 279.936861 397.547177 
L 280.156494 357.300415 
L 280.376126 212.427924 
L 280.595758 414.632867 
L 280.81539 353.431769 
L 281.035023 257.741799 
L 281.254655 313.841649 
L 281.474287 320.171275 
L 281.69392 271.337939 
L 282.133184 463.17169 
L 282.352816 476.770636 
L 282.572449 366.798451 
L 282.792081 358.058699 
L 283.011713 359.039528 
L 283.231346 529.606862 
L 283.450978 352.009169 
L 283.67061 346.935267 
L 283.890242 427.566836 
L 284.109875 385.444974 
L 284.329507 504.655373 
L 284.549139 375.423635 
L 284.768772 442.026997 
L 284.988404 324.392463 
L 285.427668 484.55595 
L 285.647301 489.281232 
L 285.866933 350.747544 
L 286.086565 304.091859 
L 286.306198 445.580241 
L 286.52583 328.948968 
L 286.745462 294.001054 
L 286.965094 394.260269 
L 287.184727 439.02425 
L 287.404359 324.070385 
L 287.623991 318.883176 
L 287.843624 225.985453 
L 288.063256 262.542249 
L 288.282888 471.926415 
L 288.50252 318.564639 
L 288.722153 391.106498 
L 288.941785 338.077479 
L 289.161417 349.914077 
L 289.381049 473.312414 
L 289.600682 267.115133 
L 289.820314 491.376855 
L 290.039946 390.291983 
L 290.259579 396.560316 
L 290.479211 433.30698 
L 290.698843 506.175621 
L 290.918475 345.167535 
L 291.138108 386.509253 
L 291.35774 456.119612 
L 291.577372 359.397075 
L 291.797005 325.52918 
L 292.016637 458.352502 
L 292.455901 418.092298 
L 292.675534 380.623589 
L 292.895166 483.501358 
L 293.334431 434.399522 
L 293.554063 276.964882 
L 294.21296 508.392184 
L 294.432592 445.625355 
L 294.652224 339.473865 
L 294.871857 458.56162 
L 295.091489 363.589426 
L 295.311121 377.180015 
L 295.530753 418.520484 
L 295.750386 433.559744 
L 295.970018 377.297422 
L 296.18965 243.668448 
L 296.409283 421.662072 
L 296.628915 365.472832 
L 296.848547 405.535352 
L 297.068179 411.010193 
L 297.287812 432.536234 
L 297.507444 302.400239 
L 297.727076 323.892745 
L 297.946709 485.521921 
L 298.166341 464.723578 
L 298.385973 405.512059 
L 298.605605 449.095856 
L 298.825238 521.139106 
L 299.04487 451.365383 
L 299.264502 426.244988 
L 299.484135 331.594147 
L 299.703767 378.049924 
L 299.923399 338.120967 
L 300.143031 395.307446 
L 300.362664 373.964032 
L 300.582296 332.318087 
L 300.801928 374.408811 
L 301.021561 464.001703 
L 301.241193 442.502963 
L 301.460825 377.433123 
L 301.680457 440.756293 
L 301.90009 242.83444 
L 302.339354 440.545397 
L 302.778619 344.123697 
L 302.998251 227.580409 
L 303.217883 346.936706 
L 303.437516 404.836091 
L 303.657148 387.549709 
L 303.87678 403.063443 
L 304.096412 235.849294 
L 304.316045 417.787865 
L 304.535677 385.776208 
L 304.755309 331.919438 
L 304.974942 429.889235 
L 305.194574 308.390112 
L 305.633838 413.124923 
L 305.853471 426.098337 
L 306.073103 448.164616 
L 306.292735 337.281329 
L 306.512368 368.08232 
L 306.732 431.6601 
L 306.951632 415.950551 
L 307.171264 345.321187 
L 307.390897 198.865714 
L 307.610529 345.473947 
L 307.830161 301.820736 
L 308.049794 402.561393 
L 308.269426 365.412657 
L 308.489058 381.557873 
L 308.70869 345.392124 
L 308.928323 384.389162 
L 309.147955 446.119137 
L 309.367587 453.336225 
L 309.58722 304.927306 
L 309.806852 390.698123 
L 310.026484 341.81082 
L 310.246116 376.987253 
L 310.465749 306.309981 
L 310.685381 411.071225 
L 310.905013 370.783216 
L 311.124646 542.698703 
L 311.344278 361.456531 
L 311.56391 470.939359 
L 311.783542 456.185677 
L 312.003175 282.941608 
L 312.222807 317.378341 
L 312.442439 476.058068 
L 312.662072 478.223794 
L 312.881704 339.466586 
L 313.101336 404.155673 
L 313.320968 373.668949 
L 313.540601 455.444637 
L 313.760233 418.192779 
L 313.979865 316.548609 
L 314.41913 355.850263 
L 314.638762 362.149195 
L 314.858394 306.568233 
L 315.078027 316.256095 
L 315.297659 432.879567 
L 315.517291 320.020611 
L 315.736924 393.7917 
L 315.956556 392.231111 
L 316.176188 450.861042 
L 316.615453 317.040928 
L 316.835085 438.407238 
L 317.054717 386.473863 
L 317.493982 401.746688 
L 317.713614 293.456951 
L 317.933246 425.256584 
L 318.152879 403.387218 
L 318.372511 408.135728 
L 318.592143 396.394687 
L 318.811775 227.093387 
L 319.031408 337.16689 
L 319.25104 348.523801 
L 319.470672 394.4149 
L 319.690305 484.31198 
L 319.909937 363.553518 
L 320.129569 368.339684 
L 320.349201 418.607694 
L 320.568834 383.90137 
L 320.788466 489.547132 
L 321.008098 431.002129 
L 321.227731 311.733404 
L 321.447363 439.471081 
L 321.886627 286.067156 
L 322.10626 413.507149 
L 322.325892 387.144432 
L 322.545524 329.595658 
L 322.765157 386.996407 
L 322.984789 290.95333 
L 323.204421 317.338398 
L 323.424053 573.324172 
L 323.643686 317.705861 
L 323.863318 467.246909 
L 324.302583 370.24898 
L 324.522215 325.186692 
L 324.741847 484.749056 
L 324.961479 406.639144 
L 325.181112 423.829644 
L 325.400744 390.269961 
L 325.620376 401.915021 
L 325.840009 316.002634 
L 326.059641 433.967133 
L 326.279273 381.442841 
L 326.498905 401.012204 
L 326.718538 375.753436 
L 326.93817 453.282556 
L 327.157802 351.414382 
L 327.377435 453.48282 
L 327.597067 275.838964 
L 327.816699 430.841833 
L 328.036331 459.860074 
L 328.255964 437.521578 
L 328.475596 451.214887 
L 328.695228 349.803656 
L 328.914861 361.729239 
L 329.134493 327.660686 
L 329.354125 422.92135 
L 329.79339 331.408642 
L 330.232654 435.138535 
L 330.452287 457.890674 
L 330.671919 348.058987 
L 330.891551 451.662664 
L 331.111183 361.889036 
L 331.330816 396.472725 
L 331.550448 312.196777 
L 331.77008 405.184635 
L 331.989713 299.263613 
L 332.428977 490.961097 
L 332.868242 327.163538 
L 333.087874 381.585063 
L 333.307506 258.8744 
L 333.527139 440.396198 
L 333.746771 506.498661 
L 333.966403 408.849984 
L 334.186035 368.009842 
L 334.405668 377.927253 
L 334.6253 364.897121 
L 334.844932 301.495954 
L 335.064564 410.483952 
L 335.284197 354.062941 
L 335.503829 434.458528 
L 335.723461 291.362805 
L 335.943094 424.002599 
L 336.162726 394.781845 
L 336.382358 307.647775 
L 336.60199 405.76059 
L 336.821623 333.492352 
L 337.041255 413.781006 
L 337.260887 388.810975 
L 337.48052 378.325219 
L 337.700152 356.559889 
L 337.919784 382.49271 
L 338.139416 480.557121 
L 338.359049 375.313023 
L 338.578681 373.270688 
L 338.798313 365.475703 
L 339.017946 232.484884 
L 339.237578 472.606946 
L 339.45721 459.53986 
L 339.676842 423.833534 
L 339.896475 349.57603 
L 340.335739 395.500896 
L 340.555372 265.687566 
L 340.775004 459.930401 
L 340.994636 369.817545 
L 341.214268 432.094996 
L 341.433901 399.131363 
L 341.653533 319.136977 
L 341.873165 296.803758 
L 342.092798 430.648569 
L 342.31243 403.425508 
L 342.532062 411.891904 
L 342.751694 276.034286 
L 342.971327 356.334062 
L 343.410591 416.448494 
L 343.630224 403.986363 
L 343.849856 422.62423 
L 344.069488 336.495394 
L 344.28912 369.345449 
L 344.508753 211.615876 
L 344.948017 419.423454 
L 345.16765 403.88564 
L 345.387282 345.011435 
L 345.606914 230.047313 
L 345.826546 333.375197 
L 346.046179 319.325145 
L 346.485443 380.295109 
L 346.924708 399.375807 
L 347.14434 313.365027 
L 347.363972 489.299505 
L 347.583605 255.968803 
L 347.803237 427.267559 
L 348.022869 268.008048 
L 348.462134 458.806113 
L 348.681766 363.858834 
L 349.121031 357.459825 
L 349.340663 257.05479 
L 349.560295 439.909542 
L 349.779927 293.340178 
L 350.219192 480.285028 
L 350.438824 472.828711 
L 350.658457 531.561035 
L 351.097721 302.197042 
L 351.317353 419.671371 
L 351.756618 341.599113 
L 351.97625 379.637894 
L 352.195883 365.668694 
L 352.415515 425.898442 
L 352.635147 441.497359 
L 353.074412 362.965281 
L 353.294044 422.334828 
L 353.513676 375.813493 
L 353.733309 235.197852 
L 353.952941 440.886516 
L 354.172573 356.115793 
L 354.392205 371.481222 
L 354.611838 455.558029 
L 354.83147 357.615577 
L 355.051102 402.668076 
L 355.709999 371.068694 
L 355.929631 382.155602 
L 356.149264 320.61242 
L 356.368896 460.048663 
L 356.588528 462.075572 
L 356.808161 418.610352 
L 357.027793 488.892678 
L 357.247425 337.877569 
L 357.467057 362.703752 
L 357.68669 326.780497 
L 357.906322 322.252374 
L 358.345587 441.845648 
L 358.565219 337.051147 
L 358.784851 462.477906 
L 359.004483 386.264414 
L 359.224116 365.471824 
L 359.443748 226.110074 
L 359.66338 369.313177 
L 359.883013 353.110079 
L 360.322277 432.355613 
L 360.541909 305.292282 
L 360.761542 350.640797 
L 360.981174 431.396974 
L 361.200806 384.562996 
L 361.420439 420.995695 
L 361.859703 362.672113 
L 362.079335 398.628645 
L 362.298968 460.971392 
L 362.5186 413.362804 
L 362.738232 448.470917 
L 362.957865 395.084647 
L 363.177497 456.753938 
L 363.397129 479.398005 
L 363.616761 405.006717 
L 363.836394 440.938044 
L 364.056026 502.851414 
L 364.275658 437.443475 
L 364.495291 435.713747 
L 364.714923 422.015094 
L 364.934555 249.121212 
L 365.154187 395.454089 
L 365.593452 513.168177 
L 366.032716 378.700963 
L 366.252349 273.716059 
L 366.691613 412.979811 
L 366.911246 408.384264 
L 367.130878 353.537025 
L 367.35051 423.715749 
L 367.789775 292.252454 
L 368.009407 513.868896 
L 368.229039 350.929177 
L 368.448672 318.553561 
L 368.668304 403.882098 
L 368.887936 374.746345 
L 369.107568 447.969866 
L 369.327201 386.095656 
L 369.546833 378.925905 
L 369.766465 416.691081 
L 369.986098 324.484603 
L 370.20573 411.009991 
L 370.425362 334.638764 
L 370.644994 419.287063 
L 370.864627 372.596946 
L 371.303891 423.221766 
L 371.523524 287.869816 
L 371.743156 295.034741 
L 371.962788 419.855359 
L 372.18242 441.062545 
L 372.402053 271.266453 
L 372.621685 237.878582 
L 373.06095 452.838925 
L 373.280582 347.984414 
L 373.500214 400.4615 
L 373.719846 416.964615 
L 373.939479 393.408489 
L 374.159111 346.380903 
L 374.378743 366.727967 
L 374.598376 284.778631 
L 374.818008 286.859559 
L 375.03764 426.62215 
L 375.257272 283.038442 
L 375.476905 320.317091 
L 375.696537 300.504344 
L 376.135802 429.513092 
L 376.355434 343.617638 
L 376.794698 424.540251 
L 377.014331 401.902417 
L 377.233963 440.113839 
L 377.453595 433.486797 
L 377.673228 465.048418 
L 378.112492 249.34509 
L 378.332124 457.06633 
L 378.551757 371.034869 
L 378.771389 391.571736 
L 378.991021 484.866394 
L 379.210654 290.143498 
L 379.430286 311.925038 
L 379.649918 464.95552 
L 379.86955 474.019186 
L 380.089183 322.241243 
L 380.308815 361.700414 
L 380.528447 363.528653 
L 380.748079 316.951132 
L 380.967712 321.269432 
L 381.406976 379.360472 
L 381.626609 378.023758 
L 381.846241 336.364761 
L 382.285505 495.538557 
L 382.505138 376.260167 
L 382.944402 412.325212 
L 383.164035 318.489692 
L 383.822931 514.178429 
L 384.042564 377.257443 
L 384.262196 352.534095 
L 384.701461 455.270277 
L 384.921093 352.746321 
L 385.140725 310.321693 
L 385.360357 461.571224 
L 385.57999 411.366559 
L 385.799622 543.081798 
L 386.019254 397.956566 
L 386.238887 443.478109 
L 386.458519 309.253491 
L 386.678151 344.436348 
L 386.897783 357.966712 
L 387.117416 321.760083 
L 387.337048 402.082565 
L 387.55668 348.214526 
L 387.776313 423.529235 
L 387.995945 400.940234 
L 388.215577 421.142825 
L 388.435209 271.565673 
L 388.654842 271.623958 
L 388.874474 427.770907 
L 389.094106 491.779826 
L 389.313739 304.004337 
L 389.533371 414.688609 
L 389.972635 322.243179 
L 390.192268 312.213459 
L 390.4119 331.987166 
L 390.631532 482.855918 
L 390.851165 298.548627 
L 391.070797 329.832792 
L 391.290429 427.874102 
L 391.510061 375.95691 
L 391.729694 369.377344 
L 391.949326 374.631809 
L 392.168958 410.205759 
L 392.388591 314.551356 
L 392.827855 510.41305 
L 393.047487 393.525147 
L 393.26712 405.239441 
L 393.486752 304.673969 
L 393.706384 272.232107 
L 393.926017 371.560328 
L 394.145649 313.584267 
L 394.365281 436.932139 
L 394.584913 410.950721 
L 395.024178 472.397368 
L 395.24381 321.935721 
L 395.463443 328.278988 
L 395.683075 327.501283 
L 396.122339 403.376009 
L 396.341972 377.850867 
L 396.561604 337.230248 
L 396.781236 421.181267 
L 397.000868 441.739908 
L 397.220501 356.213858 
L 397.440133 464.094099 
L 397.659765 421.634088 
L 397.879398 405.601788 
L 398.09903 371.351449 
L 398.318662 365.361715 
L 398.538294 459.628647 
L 398.757927 344.770744 
L 398.977559 322.71361 
L 399.197191 420.695041 
L 399.416824 421.563278 
L 399.636456 433.69399 
L 399.856088 473.379881 
L 400.07572 356.478826 
L 400.295353 449.403085 
L 400.514985 324.697879 
L 400.734617 340.307398 
L 400.95425 438.945974 
L 401.173882 247.832158 
L 401.393514 364.848814 
L 401.613146 314.712994 
L 401.832779 432.815619 
L 402.052411 392.333973 
L 402.272043 504.132466 
L 402.711308 383.765801 
L 402.93094 406.410007 
L 403.150572 366.141903 
L 403.370205 427.836867 
L 403.589837 450.795753 
L 403.809469 486.405554 
L 404.029102 329.981746 
L 404.248734 419.252826 
L 404.468366 390.071465 
L 404.687998 387.340392 
L 404.907631 426.900578 
L 405.127263 353.741229 
L 405.346895 413.32324 
L 405.566528 378.031993 
L 405.78616 444.133768 
L 406.005792 448.885745 
L 406.225424 359.060622 
L 406.445057 393.697534 
L 406.664689 448.827045 
L 406.884321 465.579628 
L 407.103954 418.614724 
L 407.323586 416.467063 
L 407.543218 402.182784 
L 407.982483 469.661182 
L 408.202115 348.023402 
L 408.421747 323.016631 
L 408.64138 460.81352 
L 408.861012 344.757251 
L 409.080644 389.402998 
L 409.300276 370.065022 
L 409.519909 399.292869 
L 409.739541 322.628116 
L 409.959173 427.405322 
L 410.178806 409.543837 
L 410.398438 363.674017 
L 410.61807 272.543664 
L 410.837702 358.375445 
L 411.057335 324.441254 
L 411.276967 386.833106 
L 411.496599 323.278628 
L 411.716231 440.134789 
L 411.935864 423.386353 
L 412.155496 388.800416 
L 412.375128 428.115815 
L 412.594761 310.77422 
L 412.814393 263.250317 
L 413.034025 371.270026 
L 413.47329 450.319764 
L 413.692922 332.219711 
L 413.912554 389.558799 
L 414.132187 376.354524 
L 414.351819 329.494894 
L 414.571451 419.043529 
L 414.791083 333.966304 
L 415.010716 490.217991 
L 415.230348 317.222916 
L 415.44998 450.870656 
L 415.669613 424.715443 
L 415.889245 379.531168 
L 416.328509 446.771215 
L 416.548142 337.976644 
L 416.767774 311.743867 
L 416.987406 366.313303 
L 417.207039 363.9881 
L 417.426671 408.031089 
L 417.646303 348.839089 
L 417.865935 374.06348 
L 418.085568 490.128761 
L 418.524832 393.823876 
L 418.744465 366.86011 
L 418.964097 298.837066 
L 419.183729 316.96606 
L 419.403361 263.921406 
L 419.622994 449.704431 
L 419.842626 455.320322 
L 420.062258 367.811253 
L 420.281891 366.423742 
L 420.501523 419.270263 
L 420.721155 521.522548 
L 420.940787 272.523269 
L 421.16042 407.522949 
L 421.380052 344.200412 
L 421.599684 364.762449 
L 421.819317 365.578113 
L 422.038949 350.355655 
L 422.258581 302.770003 
L 422.478213 453.165511 
L 422.697846 428.729862 
L 422.917478 368.982484 
L 423.13711 419.0503 
L 423.576375 389.70065 
L 424.015639 311.298381 
L 424.235272 409.324592 
L 424.454904 392.180562 
L 424.674536 332.452285 
L 424.894169 431.235493 
L 425.113801 348.159162 
L 425.333433 390.896432 
L 425.553065 512.440199 
L 425.772698 461.661626 
L 425.99233 353.130813 
L 426.211962 455.389901 
L 426.431594 395.00045 
L 426.651227 384.570194 
L 426.870859 479.29935 
L 427.090491 402.125689 
L 427.529756 409.87996 
L 427.749388 389.747202 
L 427.96902 343.339415 
L 428.188653 420.631407 
L 428.408285 450.533037 
L 428.627917 307.711976 
L 428.84755 428.969356 
L 429.067182 427.989454 
L 429.506446 364.275303 
L 429.726079 433.090299 
L 429.945711 445.959091 
L 430.165343 405.677546 
L 430.384976 406.454788 
L 430.604608 302.799369 
L 430.82424 438.212565 
L 431.043872 459.213543 
L 431.263505 317.457742 
L 431.483137 366.099611 
L 431.702769 335.631386 
L 432.142034 453.277388 
L 432.361666 370.016282 
L 432.581298 382.172973 
L 432.800931 301.187781 
L 433.020563 373.468024 
L 433.240195 393.79413 
L 433.459828 282.177467 
L 433.67946 453.458715 
L 433.899092 435.220047 
L 434.118724 258.739153 
L 434.338357 211.129942 
L 434.777621 514.34565 
L 434.997254 263.806429 
L 435.216886 521.734088 
L 435.436518 277.730261 
L 435.65615 464.13627 
L 435.875783 366.332762 
L 436.315047 460.972041 
L 436.53468 388.110695 
L 436.754312 398.413866 
L 436.973944 390.415248 
L 437.193576 321.721995 
L 437.413209 305.819002 
L 437.632841 413.722845 
L 437.852473 435.515447 
L 438.072106 484.844679 
L 438.291738 259.503949 
L 438.51137 447.951135 
L 438.731002 485.571997 
L 438.950635 403.555675 
L 439.170267 440.096464 
L 439.389899 369.568958 
L 439.609532 362.741802 
L 439.829164 417.883298 
L 440.048796 301.172616 
L 440.268428 250.077616 
L 440.707693 497.243746 
L 441.146958 349.475536 
L 441.36659 408.111375 
L 441.586222 359.663805 
L 441.805854 385.602537 
L 442.025487 326.853943 
L 442.245119 404.447712 
L 442.464751 399.146706 
L 442.684383 324.673172 
L 443.123648 490.031411 
L 443.34328 404.93129 
L 443.562913 460.778201 
L 443.782545 417.052308 
L 444.002177 312.615184 
L 444.221809 411.735564 
L 444.441442 327.513658 
L 444.661074 431.292024 
L 444.880706 403.318527 
L 445.100339 346.503665 
L 445.539603 318.232817 
L 445.759235 367.826541 
L 445.978868 385.32987 
L 446.1985 412.409301 
L 446.418132 390.906349 
L 446.637765 499.066854 
L 447.077029 347.128131 
L 447.296661 461.732983 
L 447.516294 342.497925 
L 447.735926 362.288864 
L 447.955558 360.485576 
L 448.175191 254.352561 
L 448.614455 463.098017 
L 448.834087 335.874635 
L 449.05372 327.098677 
L 449.273352 396.294564 
L 449.492984 305.333809 
L 449.712617 400.887834 
L 449.932249 383.310027 
L 450.151881 459.740755 
L 450.371513 404.614375 
L 450.591146 408.601375 
L 450.810778 335.836964 
L 451.03041 423.007534 
L 451.250043 373.79915 
L 451.469675 292.193986 
L 451.689307 347.972941 
L 451.908939 445.0273 
L 452.128572 486.04619 
L 452.348204 449.554274 
L 452.567836 201.291065 
L 452.787469 425.689611 
L 453.007101 402.141827 
L 453.226733 314.579308 
L 453.446365 372.27443 
L 453.665998 527.057631 
L 453.88563 422.869309 
L 454.105262 250.946374 
L 454.324895 443.566132 
L 454.544527 310.718065 
L 454.764159 416.665209 
L 454.983791 405.703754 
L 455.203424 315.65114 
L 455.423056 448.130984 
L 455.642688 394.537767 
L 455.862321 422.970316 
L 456.081953 301.681322 
L 456.301585 433.334808 
L 456.521217 323.087153 
L 456.74085 406.406688 
L 456.960482 241.656989 
L 457.180114 427.756213 
L 457.399746 330.554548 
L 457.619379 408.228042 
L 457.839011 441.203445 
L 458.058643 387.77743 
L 458.278276 390.088987 
L 458.497908 416.984165 
L 458.71754 344.503224 
L 458.937172 404.601069 
L 459.156805 408.873126 
L 459.376437 451.713766 
L 459.596069 355.047505 
L 459.815702 466.583323 
L 460.035334 343.091057 
L 460.254966 417.267879 
L 460.474598 450.418718 
L 460.694231 325.630401 
L 460.913863 438.890814 
L 461.353128 203.120569 
L 461.57276 350.205764 
L 461.792392 369.087699 
L 462.012024 403.26395 
L 462.231657 323.764175 
L 462.451289 437.8062 
L 462.670921 285.264305 
L 462.890554 377.477556 
L 463.110186 344.313765 
L 463.54945 447.020673 
L 463.769083 300.023923 
L 463.988715 355.989349 
L 464.208347 445.822154 
L 464.42798 394.466202 
L 464.647612 413.567728 
L 465.086876 333.438493 
L 465.306509 397.898384 
L 465.526141 346.431062 
L 465.745773 355.971138 
L 466.185038 441.504239 
L 466.40467 298.242805 
L 466.843935 420.567419 
L 467.063567 363.136083 
L 467.283199 388.296596 
L 467.502832 286.718945 
L 467.722464 457.676124 
L 467.942096 406.568122 
L 468.161728 455.357777 
L 468.381361 446.943574 
L 468.600993 393.375052 
L 468.820625 384.842994 
L 469.040258 430.028745 
L 469.25989 393.331629 
L 469.479522 268.453456 
L 469.918787 400.670454 
L 470.138419 434.836913 
L 470.358051 277.394004 
L 470.577684 281.784014 
L 470.797316 332.433982 
L 471.016948 254.346001 
L 471.23658 390.727007 
L 471.456213 385.579352 
L 471.675845 316.843336 
L 471.895477 425.28526 
L 472.11511 334.582465 
L 472.334742 578.790001 
L 472.774006 338.563343 
L 472.993639 427.660963 
L 473.213271 429.621263 
L 473.432903 378.386345 
L 473.652535 411.699826 
L 473.872168 470.509918 
L 474.0918 381.496744 
L 474.311432 131.763818 
L 474.531065 360.663936 
L 474.750697 461.609082 
L 474.970329 330.286374 
L 475.189961 426.440236 
L 475.409594 427.016113 
L 475.629226 477.991173 
L 475.848858 316.896837 
L 476.068491 381.535067 
L 476.288123 390.569436 
L 476.507755 325.506777 
L 477.166652 389.004345 
L 477.386284 365.801645 
L 477.605917 356.715663 
L 477.825549 305.843528 
L 478.045181 394.959184 
L 478.264813 310.467654 
L 478.484446 478.045576 
L 478.704078 375.797946 
L 478.92371 441.416637 
L 479.143343 446.903065 
L 479.362975 417.521837 
L 479.582607 406.980901 
L 479.802239 260.894393 
L 480.021872 447.007813 
L 480.241504 435.026226 
L 480.461136 382.018381 
L 480.680769 401.437314 
L 480.900401 440.779834 
L 481.120033 331.174845 
L 481.339665 370.964097 
L 481.559298 371.222821 
L 481.77893 372.610146 
L 481.998562 324.791047 
L 482.218195 392.028322 
L 482.437827 260.466767 
L 482.657459 360.019983 
L 482.877091 311.294342 
L 483.096724 371.555101 
L 483.316356 480.36 
L 483.535988 328.21981 
L 483.755621 373.311759 
L 483.975253 515.718078 
L 484.414517 255.390209 
L 484.63415 280.931556 
L 484.853782 453.175147 
L 485.073414 424.767298 
L 485.293047 328.230197 
L 485.512679 457.264339 
L 485.732311 485.807826 
L 486.171576 336.771041 
L 486.391208 380.211021 
L 486.61084 451.588599 
L 486.830473 298.029784 
L 487.050105 432.848714 
L 487.269737 296.705012 
L 487.489369 446.525303 
L 487.709002 445.201325 
L 487.928634 309.254902 
L 488.148266 435.979132 
L 488.367898 444.892606 
L 488.587531 416.131797 
L 488.807163 310.436978 
L 489.026795 575.411985 
L 489.246428 435.602091 
L 489.46606 443.985385 
L 489.905324 273.991046 
L 490.344589 441.137245 
L 490.564221 377.85357 
L 490.783854 491.517503 
L 491.003486 283.678506 
L 491.223118 438.991552 
L 491.44275 387.076809 
L 491.662383 368.173676 
L 491.882015 307.173967 
L 492.101647 529.729086 
L 492.32128 248.332631 
L 492.540912 413.737175 
L 492.760544 427.687462 
L 492.980176 343.128709 
L 493.199809 434.510032 
L 493.419441 374.988603 
L 493.639073 356.337595 
L 493.858706 352.939634 
L 494.078338 449.66524 
L 494.29797 388.990336 
L 494.517602 469.595115 
L 494.737235 469.544239 
L 495.176499 426.30194 
L 495.396132 368.291506 
L 495.615764 532.575223 
L 495.835396 369.725169 
L 496.055028 433.485866 
L 496.274661 462.382171 
L 496.494293 340.45659 
L 496.713925 474.533438 
L 496.933558 346.193673 
L 497.15319 352.601658 
L 497.372822 446.497978 
L 497.592454 417.959474 
L 497.812087 237.277067 
L 498.031719 326.481485 
L 498.251351 304.752295 
L 498.470984 395.099483 
L 498.690616 271.140601 
L 498.910248 429.343805 
L 499.12988 482.940962 
L 499.349513 249.769024 
L 499.569145 417.633625 
L 500.00841 248.497732 
L 500.228042 368.110264 
L 500.447674 310.402747 
L 500.886939 321.337646 
L 501.106571 334.966214 
L 501.326203 473.572779 
L 501.545836 355.059547 
L 501.765468 425.609714 
L 501.9851 220.783883 
L 502.424365 381.045708 
L 502.643997 445.098607 
L 502.863629 398.814725 
L 503.083262 169.086312 
L 503.302894 341.113546 
L 503.522526 421.966249 
L 503.742158 371.593971 
L 503.961791 383.905943 
L 504.401055 449.973307 
L 504.620687 446.051389 
L 504.84032 347.135534 
L 505.059952 391.179105 
L 505.279584 350.893837 
L 505.499217 453.668421 
L 505.718849 484.108694 
L 505.938481 440.875941 
L 506.158113 366.751643 
L 506.377746 451.437968 
L 506.81701 303.562502 
L 507.036643 494.343879 
L 507.475907 299.167069 
L 507.695539 291.19909 
L 507.915172 571.017545 
L 508.354436 417.107355 
L 508.574069 445.661629 
L 508.793701 405.538863 
L 509.013333 283.181121 
L 509.232965 272.414754 
L 509.452598 421.054367 
L 509.67223 424.659599 
L 509.891862 375.793652 
L 510.111495 373.077224 
L 510.331127 355.885406 
L 510.550759 504.197072 
L 510.770391 383.669248 
L 510.990024 376.653162 
L 511.209656 410.569907 
L 511.429288 355.832532 
L 511.648921 374.501868 
L 511.868553 314.553584 
L 512.088185 356.506451 
L 512.307817 269.556153 
L 512.747082 411.469189 
L 512.966714 355.260473 
L 513.186347 420.073491 
L 513.405979 430.316753 
L 513.625611 351.254871 
L 513.845243 451.879116 
L 514.064876 358.483575 
L 514.284508 440.274886 
L 514.50414 320.585872 
L 514.723773 368.701968 
L 514.943405 304.925651 
L 515.163037 580.503039 
L 515.602302 338.076303 
L 515.821934 439.361898 
L 516.041566 400.554347 
L 516.261199 476.157831 
L 516.700463 378.694196 
L 517.139728 492.667459 
L 517.35936 417.97136 
L 517.578992 429.562263 
L 517.798625 451.643029 
L 518.018257 302.50544 
L 518.237889 439.230299 
L 518.457521 467.82902 
L 518.677154 361.813642 
L 518.896786 426.995204 
L 519.33605 298.247864 
L 519.775315 418.609442 
L 519.994947 350.075075 
L 520.21458 371.558129 
L 520.434212 336.655483 
L 520.653844 349.635396 
L 520.873476 376.120605 
L 521.093109 464.17215 
L 521.312741 325.668656 
L 521.532373 430.901486 
L 521.752006 384.375826 
L 521.971638 517.492523 
L 522.19127 362.062729 
L 522.410902 387.836437 
L 522.630535 375.404287 
L 522.850167 249.044415 
L 523.509064 462.701424 
L 523.728696 394.957308 
L 524.167961 416.508199 
L 524.387593 490.270265 
L 524.607225 392.64769 
L 524.826858 541.619511 
L 525.04649 337.140694 
L 525.266122 281.308824 
L 525.485754 426.222144 
L 525.705387 424.233199 
L 525.925019 354.708516 
L 526.144651 418.053052 
L 526.364284 411.3066 
L 526.803548 303.031195 
L 527.02318 391.993328 
L 527.242813 387.209426 
L 527.462445 351.03202 
L 527.682077 348.034321 
L 527.90171 282.564575 
L 528.121342 454.580444 
L 528.560606 336.077576 
L 528.780239 361.898288 
L 528.999871 338.554645 
L 529.219503 503.548141 
L 529.439136 289.739802 
L 529.658768 351.588058 
L 529.8784 344.480835 
L 530.098032 315.28615 
L 530.317665 467.750415 
L 530.537297 337.744896 
L 530.756929 280.078259 
L 530.976562 458.617255 
L 531.196194 399.289852 
L 531.415826 398.307459 
L 531.635458 398.882707 
L 531.855091 421.06282 
L 532.074723 268.675254 
L 532.513988 381.638075 
L 532.73362 315.293313 
L 532.953252 456.505025 
L 533.172884 278.651016 
L 533.392517 410.424014 
L 533.612149 415.529542 
L 533.831781 349.659794 
L 534.271046 434.22084 
L 534.71031 352.910773 
L 534.929943 454.110672 
L 535.369207 259.226944 
L 535.808472 387.854043 
L 536.028104 385.728345 
L 536.247736 513.43095 
L 536.467369 319.235967 
L 536.687001 282.412537 
L 537.126265 448.731715 
L 537.345898 496.141771 
L 537.56553 507.265064 
L 537.785162 313.183727 
L 538.004795 445.82014 
L 538.224427 319.468717 
L 538.444059 416.174923 
L 538.663691 404.958083 
L 538.883324 294.719715 
L 539.102956 520.892465 
L 539.322588 418.417494 
L 539.542221 520.631606 
L 539.761853 491.351593 
L 539.981485 368.666336 
L 540.201117 506.214968 
L 540.640382 333.877908 
L 541.079647 473.122712 
L 541.299279 290.180364 
L 541.738543 411.05153 
L 541.958176 299.221705 
L 542.39744 459.662581 
L 542.617073 374.746881 
L 542.836705 430.250312 
L 543.056337 419.767895 
L 543.275969 400.017009 
L 543.495602 334.405588 
L 543.715234 380.621262 
L 543.934866 284.049748 
L 544.154499 406.11624 
L 544.374131 393.399489 
L 544.593763 328.444594 
L 544.813395 518.713733 
L 545.033028 426.157896 
L 545.25266 451.28901 
L 545.472292 323.301067 
L 545.691925 464.424489 
L 545.911557 279.051817 
L 545.911557 279.051817 
" style="fill:none;stroke:#96c69a;stroke-linecap:round;stroke-width:3;"/>
   </g>
   <g id="line2d_2"/>
   <g id="patch_3">
    <path d="M 84.914375 602.94 
L 84.914375 109.326857 
" style="fill:none;stroke:#262626;stroke-linecap:square;stroke-linejoin:miter;stroke-width:2.5;"/>
   </g>
   <g id="patch_4">
    <path d="M 84.914375 602.94 
L 567.863804 602.94 
" style="fill:none;stroke:#262626;stroke-linecap:square;stroke-linejoin:miter;stroke-width:2.5;"/>
   </g>
   <g id="legend_1">
    <g id="patch_5">
     <path d="M 507.990366 597.94 
L 560.863804 597.94 
Q 562.863804 597.94 562.863804 595.94 
L 562.863804 554.034375 
Q 562.863804 552.034375 560.863804 552.034375 
L 507.990366 552.034375 
Q 505.990366 552.034375 505.990366 554.034375 
L 505.990366 595.94 
Q 505.990366 597.94 507.990366 597.94 
z
" style="fill:#ffffff;opacity:0.8;stroke:#cccccc;stroke-linejoin:miter;stroke-width:2;"/>
    </g>
    <g id="text_16">
     <!-- $n_\tau$ -->
     <g style="fill:#262626;" transform="translate(521.347085 574.270625)scale(0.24 -0.24)">
      <defs>
       <path d="M 3566 2113 
L 3156 0 
L 2578 0 
L 2988 2091 
Q 3016 2238 3031 2350 
Q 3047 2463 3047 2528 
Q 3047 2791 2881 2937 
Q 2716 3084 2419 3084 
Q 1956 3084 1622 2776 
Q 1288 2469 1184 1941 
L 800 0 
L 225 0 
L 903 3500 
L 1478 3500 
L 1363 2950 
Q 1603 3253 1940 3418 
Q 2278 3584 2650 3584 
Q 3113 3584 3367 3334 
Q 3622 3084 3622 2631 
Q 3622 2519 3608 2391 
Q 3594 2263 3566 2113 
z
" id="DejaVuSans-Oblique-6e" transform="scale(0.015625)"/>
       <path d="M 2103 638 
Q 2188 488 2525 488 
L 2800 488 
L 2706 0 
L 2363 0 
Q 1800 0 1600 300 
Q 1403 606 1534 1269 
L 1856 2925 
L 541 2925 
L 653 3500 
L 3881 3500 
L 3769 2925 
L 2444 2925 
L 2113 1234 
Q 2025 781 2103 638 
z
" id="DejaVuSans-Oblique-3c4" transform="scale(0.015625)"/>
      </defs>
      <use xlink:href="#DejaVuSans-Oblique-6e"/>
      <use transform="translate(63.378906 -16.40625)scale(0.7)" xlink:href="#DejaVuSans-Oblique-3c4"/>
     </g>
    </g>
    <g id="line2d_3">
     <path d="M 509.990366 588.360312 
L 529.990366 588.360312 
" style="fill:none;stroke:#96c69a;stroke-linecap:round;stroke-width:3;"/>
    </g>
    <g id="line2d_4"/>
    <g id="text_17">
     <!-- 100 -->
     <g style="fill:#262626;" transform="translate(537.990366 591.860312)scale(0.1 -0.1)">
      <defs>
       <path d="M 750 831 
L 1813 831 
L 1813 3847 
L 722 3622 
L 722 4441 
L 1806 4666 
L 2950 4666 
L 2950 831 
L 4013 831 
L 4013 0 
L 750 0 
L 750 831 
z
" id="DejaVuSans-Bold-31" transform="scale(0.015625)"/>
       <path d="M 2944 2338 
Q 2944 3213 2780 3570 
Q 2616 3928 2228 3928 
Q 1841 3928 1675 3570 
Q 1509 3213 1509 2338 
Q 1509 1453 1675 1090 
Q 1841 728 2228 728 
Q 2613 728 2778 1090 
Q 2944 1453 2944 2338 
z
M 4147 2328 
Q 4147 1169 3647 539 
Q 3147 -91 2228 -91 
Q 1306 -91 806 539 
Q 306 1169 306 2328 
Q 306 3491 806 4120 
Q 1306 4750 2228 4750 
Q 3147 4750 3647 4120 
Q 4147 3491 4147 2328 
z
" id="DejaVuSans-Bold-30" transform="scale(0.015625)"/>
      </defs>
      <use xlink:href="#DejaVuSans-Bold-31"/>
      <use x="69.580078" xlink:href="#DejaVuSans-Bold-30"/>
      <use x="139.160156" xlink:href="#DejaVuSans-Bold-30"/>
     </g>
    </g>
   </g>
  </g>
  <g id="axes_2">
   <g id="patch_6">
    <path d="M 84.914375 92.305714 
L 567.863804 92.305714 
L 567.863804 7.2 
L 84.914375 7.2 
z
" style="fill:none;"/>
   </g>
   <g id="matplotlib.axis_3">
    <g id="xtick_7"/>
    <g id="xtick_8"/>
    <g id="xtick_9"/>
    <g id="xtick_10"/>
    <g id="xtick_11"/>
    <g id="xtick_12"/>
   </g>
   <g id="matplotlib.axis_4">
    <g id="ytick_8">
     <g id="text_18">
      <!-- 0 -->
      <g style="fill:#262626;" transform="translate(55.416875 100.663996)scale(0.22 -0.22)">
       <use xlink:href="#DejaVuSans-30"/>
      </g>
     </g>
    </g>
    <g id="ytick_9">
     <g id="text_19">
      <!-- 100 -->
      <g style="fill:#262626;" transform="translate(27.421875 48.032138)scale(0.22 -0.22)">
       <use xlink:href="#DejaVuSans-31"/>
       <use x="63.623047" xlink:href="#DejaVuSans-30"/>
       <use x="127.246094" xlink:href="#DejaVuSans-30"/>
      </g>
     </g>
    </g>
   </g>
   <g id="patch_7">
    <path clip-path="url(#p412af73878)" d="M 106.866622 92.305714 
L 140.639309 92.305714 
L 140.639309 11.252653 
L 106.866622 11.252653 
z
" style="fill:#96c69a;fill-opacity:0.5;stroke:#ffffff;stroke-linejoin:miter;stroke-width:2;"/>
   </g>
   <g id="patch_8">
    <path clip-path="url(#p412af73878)" d="M 140.639309 92.305714 
L 174.411996 92.305714 
L 174.411996 11.252653 
L 140.639309 11.252653 
z
" style="fill:#96c69a;fill-opacity:0.5;stroke:#ffffff;stroke-linejoin:miter;stroke-width:2;"/>
   </g>
   <g id="patch_9">
    <path clip-path="url(#p412af73878)" d="M 174.411996 92.305714 
L 208.184684 92.305714 
L 208.184684 11.252653 
L 174.411996 11.252653 
z
" style="fill:#96c69a;fill-opacity:0.5;stroke:#ffffff;stroke-linejoin:miter;stroke-width:2;"/>
   </g>
   <g id="patch_10">
    <path clip-path="url(#p412af73878)" d="M 208.184684 92.305714 
L 241.957371 92.305714 
L 241.957371 11.252653 
L 208.184684 11.252653 
z
" style="fill:#96c69a;fill-opacity:0.5;stroke:#ffffff;stroke-linejoin:miter;stroke-width:2;"/>
   </g>
   <g id="patch_11">
    <path clip-path="url(#p412af73878)" d="M 241.957371 92.305714 
L 275.730058 92.305714 
L 275.730058 11.778972 
L 241.957371 11.778972 
z
" style="fill:#96c69a;fill-opacity:0.5;stroke:#ffffff;stroke-linejoin:miter;stroke-width:2;"/>
   </g>
   <g id="patch_12">
    <path clip-path="url(#p412af73878)" d="M 275.730058 92.305714 
L 309.502746 92.305714 
L 309.502746 11.252653 
L 275.730058 11.252653 
z
" style="fill:#96c69a;fill-opacity:0.5;stroke:#ffffff;stroke-linejoin:miter;stroke-width:2;"/>
   </g>
   <g id="patch_13">
    <path clip-path="url(#p412af73878)" d="M 309.502746 92.305714 
L 343.275433 92.305714 
L 343.275433 11.252653 
L 309.502746 11.252653 
z
" style="fill:#96c69a;fill-opacity:0.5;stroke:#ffffff;stroke-linejoin:miter;stroke-width:2;"/>
   </g>
   <g id="patch_14">
    <path clip-path="url(#p412af73878)" d="M 343.275433 92.305714 
L 377.04812 92.305714 
L 377.04812 11.252653 
L 343.275433 11.252653 
z
" style="fill:#96c69a;fill-opacity:0.5;stroke:#ffffff;stroke-linejoin:miter;stroke-width:2;"/>
   </g>
   <g id="patch_15">
    <path clip-path="url(#p412af73878)" d="M 377.04812 92.305714 
L 410.820808 92.305714 
L 410.820808 11.778972 
L 377.04812 11.778972 
z
" style="fill:#96c69a;fill-opacity:0.5;stroke:#ffffff;stroke-linejoin:miter;stroke-width:2;"/>
   </g>
   <g id="patch_16">
    <path clip-path="url(#p412af73878)" d="M 410.820808 92.305714 
L 444.593495 92.305714 
L 444.593495 11.252653 
L 410.820808 11.252653 
z
" style="fill:#96c69a;fill-opacity:0.5;stroke:#ffffff;stroke-linejoin:miter;stroke-width:2;"/>
   </g>
   <g id="patch_17">
    <path clip-path="url(#p412af73878)" d="M 444.593495 92.305714 
L 478.366182 92.305714 
L 478.366182 11.252653 
L 444.593495 11.252653 
z
" style="fill:#96c69a;fill-opacity:0.5;stroke:#ffffff;stroke-linejoin:miter;stroke-width:2;"/>
   </g>
   <g id="patch_18">
    <path clip-path="url(#p412af73878)" d="M 478.366182 92.305714 
L 512.13887 92.305714 
L 512.13887 11.252653 
L 478.366182 11.252653 
z
" style="fill:#96c69a;fill-opacity:0.5;stroke:#ffffff;stroke-linejoin:miter;stroke-width:2;"/>
   </g>
   <g id="patch_19">
    <path clip-path="url(#p412af73878)" d="M 512.13887 92.305714 
L 545.911557 92.305714 
L 545.911557 11.252653 
L 512.13887 11.252653 
z
" style="fill:#96c69a;fill-opacity:0.5;stroke:#ffffff;stroke-linejoin:miter;stroke-width:2;"/>
   </g>
   <g id="patch_20">
    <path d="M 84.914375 92.305714 
L 84.914375 7.2 
" style="fill:none;stroke:#262626;stroke-linecap:square;stroke-linejoin:miter;stroke-width:2.5;"/>
   </g>
   <g id="patch_21">
    <path d="M 84.914375 92.305714 
L 567.863804 92.305714 
" style="fill:none;stroke:#262626;stroke-linecap:square;stroke-linejoin:miter;stroke-width:2.5;"/>
   </g>
  </g>
  <g id="axes_3">
   <g id="patch_22">
    <path d="M 584.517232 602.94 
L 667.784375 602.94 
L 667.784375 109.326857 
L 584.517232 109.326857 
z
" style="fill:none;"/>
   </g>
   <g id="matplotlib.axis_5">
    <g id="xtick_13">
     <g id="text_20">
      <!-- 0 -->
      <g style="fill:#262626;" transform="translate(577.518482 635.156562)scale(0.22 -0.22)">
       <use xlink:href="#DejaVuSans-30"/>
      </g>
     </g>
    </g>
    <g id="xtick_14">
     <g id="text_21">
      <!-- 100 -->
      <g style="fill:#262626;" transform="translate(610.169241 635.156562)scale(0.22 -0.22)">
       <use xlink:href="#DejaVuSans-31"/>
       <use x="63.623047" xlink:href="#DejaVuSans-30"/>
       <use x="127.246094" xlink:href="#DejaVuSans-30"/>
      </g>
     </g>
    </g>
   </g>
   <g id="matplotlib.axis_6">
    <g id="ytick_10"/>
    <g id="ytick_11"/>
    <g id="ytick_12"/>
    <g id="ytick_13"/>
    <g id="ytick_14"/>
    <g id="ytick_15"/>
    <g id="ytick_16"/>
   </g>
   <g id="patch_23">
    <path clip-path="url(#p1f164c9442)" d="M 584.517232 580.503039 
L 586.849645 580.503039 
L 586.849645 566.479938 
L 584.517232 566.479938 
z
" style="fill:#96c69a;fill-opacity:0.5;stroke:#ffffff;stroke-linejoin:miter;stroke-width:1.40231;"/>
   </g>
   <g id="patch_24">
    <path clip-path="url(#p1f164c9442)" d="M 584.517232 566.479938 
L 584.983715 566.479938 
L 584.983715 552.456838 
L 584.517232 552.456838 
z
" style="fill:#96c69a;fill-opacity:0.5;stroke:#ffffff;stroke-linejoin:miter;stroke-width:1.40231;"/>
   </g>
   <g id="patch_25">
    <path clip-path="url(#p1f164c9442)" d="M 584.517232 552.456838 
L 586.383163 552.456838 
L 586.383163 538.433737 
L 584.517232 538.433737 
z
" style="fill:#96c69a;fill-opacity:0.5;stroke:#ffffff;stroke-linejoin:miter;stroke-width:1.40231;"/>
   </g>
   <g id="patch_26">
    <path clip-path="url(#p1f164c9442)" d="M 584.517232 538.433737 
L 590.115023 538.433737 
L 590.115023 524.410636 
L 584.517232 524.410636 
z
" style="fill:#96c69a;fill-opacity:0.5;stroke:#ffffff;stroke-linejoin:miter;stroke-width:1.40231;"/>
   </g>
   <g id="patch_27">
    <path clip-path="url(#p1f164c9442)" d="M 584.517232 524.410636 
L 595.246332 524.410636 
L 595.246332 510.387536 
L 584.517232 510.387536 
z
" style="fill:#96c69a;fill-opacity:0.5;stroke:#ffffff;stroke-linejoin:miter;stroke-width:1.40231;"/>
   </g>
   <g id="patch_28">
    <path clip-path="url(#p1f164c9442)" d="M 584.517232 510.387536 
L 593.846884 510.387536 
L 593.846884 496.364435 
L 584.517232 496.364435 
z
" style="fill:#96c69a;fill-opacity:0.5;stroke:#ffffff;stroke-linejoin:miter;stroke-width:1.40231;"/>
   </g>
   <g id="patch_29">
    <path clip-path="url(#p1f164c9442)" d="M 584.517232 496.364435 
L 609.707292 496.364435 
L 609.707292 482.341334 
L 584.517232 482.341334 
z
" style="fill:#96c69a;fill-opacity:0.5;stroke:#ffffff;stroke-linejoin:miter;stroke-width:1.40231;"/>
   </g>
   <g id="patch_30">
    <path clip-path="url(#p1f164c9442)" d="M 584.517232 482.341334 
L 612.039705 482.341334 
L 612.039705 468.318234 
L 584.517232 468.318234 
z
" style="fill:#96c69a;fill-opacity:0.5;stroke:#ffffff;stroke-linejoin:miter;stroke-width:1.40231;"/>
   </g>
   <g id="patch_31">
    <path clip-path="url(#p1f164c9442)" d="M 584.517232 468.318234 
L 624.168253 468.318234 
L 624.168253 454.295133 
L 584.517232 454.295133 
z
" style="fill:#96c69a;fill-opacity:0.5;stroke:#ffffff;stroke-linejoin:miter;stroke-width:1.40231;"/>
   </g>
   <g id="patch_32">
    <path clip-path="url(#p1f164c9442)" d="M 584.517232 454.295133 
L 645.626452 454.295133 
L 645.626452 440.272032 
L 584.517232 440.272032 
z
" style="fill:#96c69a;fill-opacity:0.5;stroke:#ffffff;stroke-linejoin:miter;stroke-width:1.40231;"/>
   </g>
   <g id="patch_33">
    <path clip-path="url(#p1f164c9442)" d="M 584.517232 440.272032 
L 654.956104 440.272032 
L 654.956104 426.248932 
L 584.517232 426.248932 
z
" style="fill:#96c69a;fill-opacity:0.5;stroke:#ffffff;stroke-linejoin:miter;stroke-width:1.40231;"/>
   </g>
   <g id="patch_34">
    <path clip-path="url(#p1f164c9442)" d="M 584.517232 426.248932 
L 660.087412 426.248932 
L 660.087412 412.225831 
L 584.517232 412.225831 
z
" style="fill:#96c69a;fill-opacity:0.5;stroke:#ffffff;stroke-linejoin:miter;stroke-width:1.40231;"/>
   </g>
   <g id="patch_35">
    <path clip-path="url(#p1f164c9442)" d="M 584.517232 412.225831 
L 663.819273 412.225831 
L 663.819273 398.202731 
L 584.517232 398.202731 
z
" style="fill:#96c69a;fill-opacity:0.5;stroke:#ffffff;stroke-linejoin:miter;stroke-width:1.40231;"/>
   </g>
   <g id="patch_36">
    <path clip-path="url(#p1f164c9442)" d="M 584.517232 398.202731 
L 660.087412 398.202731 
L 660.087412 384.17963 
L 584.517232 384.17963 
z
" style="fill:#96c69a;fill-opacity:0.5;stroke:#ffffff;stroke-linejoin:miter;stroke-width:1.40231;"/>
   </g>
   <g id="patch_37">
    <path clip-path="url(#p1f164c9442)" d="M 584.517232 384.17963 
L 658.687964 384.17963 
L 658.687964 370.156529 
L 584.517232 370.156529 
z
" style="fill:#96c69a;fill-opacity:0.5;stroke:#ffffff;stroke-linejoin:miter;stroke-width:1.40231;"/>
   </g>
   <g id="patch_38">
    <path clip-path="url(#p1f164c9442)" d="M 584.517232 370.156529 
L 662.886308 370.156529 
L 662.886308 356.133429 
L 584.517232 356.133429 
z
" style="fill:#96c69a;fill-opacity:0.5;stroke:#ffffff;stroke-linejoin:miter;stroke-width:1.40231;"/>
   </g>
   <g id="patch_39">
    <path clip-path="url(#p1f164c9442)" d="M 584.517232 356.133429 
L 643.760521 356.133429 
L 643.760521 342.110328 
L 584.517232 342.110328 
z
" style="fill:#96c69a;fill-opacity:0.5;stroke:#ffffff;stroke-linejoin:miter;stroke-width:1.40231;"/>
   </g>
   <g id="patch_40">
    <path clip-path="url(#p1f164c9442)" d="M 584.517232 342.110328 
L 641.894591 342.110328 
L 641.894591 328.087227 
L 584.517232 328.087227 
z
" style="fill:#96c69a;fill-opacity:0.5;stroke:#ffffff;stroke-linejoin:miter;stroke-width:1.40231;"/>
   </g>
   <g id="patch_41">
    <path clip-path="url(#p1f164c9442)" d="M 584.517232 328.087227 
L 636.763283 328.087227 
L 636.763283 314.064127 
L 584.517232 314.064127 
z
" style="fill:#96c69a;fill-opacity:0.5;stroke:#ffffff;stroke-linejoin:miter;stroke-width:1.40231;"/>
   </g>
   <g id="patch_42">
    <path clip-path="url(#p1f164c9442)" d="M 584.517232 314.064127 
L 620.436392 314.064127 
L 620.436392 300.041026 
L 584.517232 300.041026 
z
" style="fill:#96c69a;fill-opacity:0.5;stroke:#ffffff;stroke-linejoin:miter;stroke-width:1.40231;"/>
   </g>
   <g id="patch_43">
    <path clip-path="url(#p1f164c9442)" d="M 584.517232 300.041026 
L 609.707292 300.041026 
L 609.707292 286.017925 
L 584.517232 286.017925 
z
" style="fill:#96c69a;fill-opacity:0.5;stroke:#ffffff;stroke-linejoin:miter;stroke-width:1.40231;"/>
   </g>
   <g id="patch_44">
    <path clip-path="url(#p1f164c9442)" d="M 584.517232 286.017925 
L 604.575984 286.017925 
L 604.575984 271.994825 
L 584.517232 271.994825 
z
" style="fill:#96c69a;fill-opacity:0.5;stroke:#ffffff;stroke-linejoin:miter;stroke-width:1.40231;"/>
   </g>
   <g id="patch_45">
    <path clip-path="url(#p1f164c9442)" d="M 584.517232 271.994825 
L 602.243571 271.994825 
L 602.243571 257.971724 
L 584.517232 257.971724 
z
" style="fill:#96c69a;fill-opacity:0.5;stroke:#ffffff;stroke-linejoin:miter;stroke-width:1.40231;"/>
   </g>
   <g id="patch_46">
    <path clip-path="url(#p1f164c9442)" d="M 584.517232 257.971724 
L 593.380401 257.971724 
L 593.380401 243.948623 
L 584.517232 243.948623 
z
" style="fill:#96c69a;fill-opacity:0.5;stroke:#ffffff;stroke-linejoin:miter;stroke-width:1.40231;"/>
   </g>
   <g id="patch_47">
    <path clip-path="url(#p1f164c9442)" d="M 584.517232 243.948623 
L 592.447436 243.948623 
L 592.447436 229.925523 
L 584.517232 229.925523 
z
" style="fill:#96c69a;fill-opacity:0.5;stroke:#ffffff;stroke-linejoin:miter;stroke-width:1.40231;"/>
   </g>
   <g id="patch_48">
    <path clip-path="url(#p1f164c9442)" d="M 584.517232 229.925523 
L 590.581506 229.925523 
L 590.581506 215.902422 
L 584.517232 215.902422 
z
" style="fill:#96c69a;fill-opacity:0.5;stroke:#ffffff;stroke-linejoin:miter;stroke-width:1.40231;"/>
   </g>
   <g id="patch_49">
    <path clip-path="url(#p1f164c9442)" d="M 584.517232 215.902422 
L 586.849645 215.902422 
L 586.849645 201.879321 
L 584.517232 201.879321 
z
" style="fill:#96c69a;fill-opacity:0.5;stroke:#ffffff;stroke-linejoin:miter;stroke-width:1.40231;"/>
   </g>
   <g id="patch_50">
    <path clip-path="url(#p1f164c9442)" d="M 584.517232 201.879321 
L 585.91668 201.879321 
L 585.91668 187.856221 
L 584.517232 187.856221 
z
" style="fill:#96c69a;fill-opacity:0.5;stroke:#ffffff;stroke-linejoin:miter;stroke-width:1.40231;"/>
   </g>
   <g id="patch_51">
    <path clip-path="url(#p1f164c9442)" d="M 584.517232 187.856221 
L 584.517232 187.856221 
L 584.517232 173.83312 
L 584.517232 173.83312 
z
" style="fill:#96c69a;fill-opacity:0.5;stroke:#ffffff;stroke-linejoin:miter;stroke-width:1.40231;"/>
   </g>
   <g id="patch_52">
    <path clip-path="url(#p1f164c9442)" d="M 584.517232 173.83312 
L 584.983715 173.83312 
L 584.983715 159.810019 
L 584.517232 159.810019 
z
" style="fill:#96c69a;fill-opacity:0.5;stroke:#ffffff;stroke-linejoin:miter;stroke-width:1.40231;"/>
   </g>
   <g id="patch_53">
    <path clip-path="url(#p1f164c9442)" d="M 584.517232 159.810019 
L 584.983715 159.810019 
L 584.983715 145.786919 
L 584.517232 145.786919 
z
" style="fill:#96c69a;fill-opacity:0.5;stroke:#ffffff;stroke-linejoin:miter;stroke-width:1.40231;"/>
   </g>
   <g id="patch_54">
    <path clip-path="url(#p1f164c9442)" d="M 584.517232 145.786919 
L 584.983715 145.786919 
L 584.983715 131.763818 
L 584.517232 131.763818 
z
" style="fill:#96c69a;fill-opacity:0.5;stroke:#ffffff;stroke-linejoin:miter;stroke-width:1.40231;"/>
   </g>
   <g id="patch_55">
    <path d="M 584.517232 602.94 
L 584.517232 109.326857 
" style="fill:none;stroke:#262626;stroke-linecap:square;stroke-linejoin:miter;stroke-width:2.5;"/>
   </g>
   <g id="patch_56">
    <path d="M 584.517232 602.94 
L 667.784375 602.94 
" style="fill:none;stroke:#262626;stroke-linecap:square;stroke-linejoin:miter;stroke-width:2.5;"/>
   </g>
  </g>
 </g>
 <defs>
  <clipPath id="p531f8e1b59">
   <rect height="493.613143" width="482.949429" x="84.914375" y="109.326857"/>
  </clipPath>
  <clipPath id="p412af73878">
   <rect height="85.105714" width="482.949429" x="84.914375" y="7.2"/>
  </clipPath>
  <clipPath id="p1f164c9442">
   <rect height="493.613143" width="83.267143" x="584.517232" y="109.326857"/>
  </clipPath>
 </defs>
</svg>
