<?xml version="1.0" encoding="utf-8" standalone="no"?>
<!DOCTYPE svg PUBLIC "-//W3C//DTD SVG 1.1//EN"
  "http://www.w3.org/Graphics/SVG/1.1/DTD/svg11.dtd">
<svg height="674.159375pt" version="1.1" viewBox="0 0 674.984375 674.159375" width="674.984375pt" xmlns="http://www.w3.org/2000/svg" xmlns:xlink="http://www.w3.org/1999/xlink">
 <metadata>
  <rdf:RDF xmlns:cc="http://creativecommons.org/ns#" xmlns:dc="http://purl.org/dc/elements/1.1/" xmlns:rdf="http://www.w3.org/1999/02/22-rdf-syntax-ns#">
   <cc:Work>
    <dc:type rdf:resource="http://purl.org/dc/dcmitype/StillImage"/>
    <dc:date>2021-07-24T14:58:24.089687</dc:date>
    <dc:format>image/svg+xml</dc:format>
    <dc:creator>
     <cc:Agent>
      <dc:title>Matplotlib v3.4.2, https://matplotlib.org/</dc:title>
     </cc:Agent>
    </dc:creator>
   </cc:Work>
  </rdf:RDF>
 </metadata>
 <defs>
  <style type="text/css">*{stroke-linecap:butt;stroke-linejoin:round;}</style>
 </defs>
 <g id="figure_1">
  <g id="patch_1">
   <path d="M 0 674.159375 
L 674.984375 674.159375 
L 674.984375 0 
L 0 0 
z
" style="fill:#ffffff;"/>
  </g>
  <g id="axes_1">
   <g id="patch_2">
    <path d="M 84.914375 602.94 
L 567.863804 602.94 
L 567.863804 109.326857 
L 84.914375 109.326857 
z
" style="fill:none;"/>
   </g>
   <g id="matplotlib.axis_1">
    <g id="xtick_1">
     <g id="text_1">
      <!-- 0 -->
      <g style="fill:#262626;" transform="translate(99.648239 635.156562)scale(0.22 -0.22)">
       <defs>
        <path d="M 2034 4250 
Q 1547 4250 1301 3770 
Q 1056 3291 1056 2328 
Q 1056 1369 1301 889 
Q 1547 409 2034 409 
Q 2525 409 2770 889 
Q 3016 1369 3016 2328 
Q 3016 3291 2770 3770 
Q 2525 4250 2034 4250 
z
M 2034 4750 
Q 2819 4750 3233 4129 
Q 3647 3509 3647 2328 
Q 3647 1150 3233 529 
Q 2819 -91 2034 -91 
Q 1250 -91 836 529 
Q 422 1150 422 2328 
Q 422 3509 836 4129 
Q 1250 4750 2034 4750 
z
" id="DejaVuSans-30" transform="scale(0.015625)"/>
       </defs>
       <use xlink:href="#DejaVuSans-30"/>
      </g>
     </g>
    </g>
    <g id="xtick_2">
     <g id="text_2">
      <!-- 20000 -->
      <g style="fill:#262626;" transform="translate(159.506153 635.156562)scale(0.22 -0.22)">
       <defs>
        <path d="M 1228 531 
L 3431 531 
L 3431 0 
L 469 0 
L 469 531 
Q 828 903 1448 1529 
Q 2069 2156 2228 2338 
Q 2531 2678 2651 2914 
Q 2772 3150 2772 3378 
Q 2772 3750 2511 3984 
Q 2250 4219 1831 4219 
Q 1534 4219 1204 4116 
Q 875 4013 500 3803 
L 500 4441 
Q 881 4594 1212 4672 
Q 1544 4750 1819 4750 
Q 2544 4750 2975 4387 
Q 3406 4025 3406 3419 
Q 3406 3131 3298 2873 
Q 3191 2616 2906 2266 
Q 2828 2175 2409 1742 
Q 1991 1309 1228 531 
z
" id="DejaVuSans-32" transform="scale(0.015625)"/>
       </defs>
       <use xlink:href="#DejaVuSans-32"/>
       <use x="63.623047" xlink:href="#DejaVuSans-30"/>
       <use x="127.246094" xlink:href="#DejaVuSans-30"/>
       <use x="190.869141" xlink:href="#DejaVuSans-30"/>
       <use x="254.492188" xlink:href="#DejaVuSans-30"/>
      </g>
     </g>
    </g>
    <g id="xtick_3">
     <g id="text_3">
      <!-- 40000 -->
      <g style="fill:#262626;" transform="translate(247.359066 635.156562)scale(0.22 -0.22)">
       <defs>
        <path d="M 2419 4116 
L 825 1625 
L 2419 1625 
L 2419 4116 
z
M 2253 4666 
L 3047 4666 
L 3047 1625 
L 3713 1625 
L 3713 1100 
L 3047 1100 
L 3047 0 
L 2419 0 
L 2419 1100 
L 313 1100 
L 313 1709 
L 2253 4666 
z
" id="DejaVuSans-34" transform="scale(0.015625)"/>
       </defs>
       <use xlink:href="#DejaVuSans-34"/>
       <use x="63.623047" xlink:href="#DejaVuSans-30"/>
       <use x="127.246094" xlink:href="#DejaVuSans-30"/>
       <use x="190.869141" xlink:href="#DejaVuSans-30"/>
       <use x="254.492188" xlink:href="#DejaVuSans-30"/>
      </g>
     </g>
    </g>
    <g id="xtick_4">
     <g id="text_4">
      <!-- 60000 -->
      <g style="fill:#262626;" transform="translate(335.21198 635.156562)scale(0.22 -0.22)">
       <defs>
        <path d="M 2113 2584 
Q 1688 2584 1439 2293 
Q 1191 2003 1191 1497 
Q 1191 994 1439 701 
Q 1688 409 2113 409 
Q 2538 409 2786 701 
Q 3034 994 3034 1497 
Q 3034 2003 2786 2293 
Q 2538 2584 2113 2584 
z
M 3366 4563 
L 3366 3988 
Q 3128 4100 2886 4159 
Q 2644 4219 2406 4219 
Q 1781 4219 1451 3797 
Q 1122 3375 1075 2522 
Q 1259 2794 1537 2939 
Q 1816 3084 2150 3084 
Q 2853 3084 3261 2657 
Q 3669 2231 3669 1497 
Q 3669 778 3244 343 
Q 2819 -91 2113 -91 
Q 1303 -91 875 529 
Q 447 1150 447 2328 
Q 447 3434 972 4092 
Q 1497 4750 2381 4750 
Q 2619 4750 2861 4703 
Q 3103 4656 3366 4563 
z
" id="DejaVuSans-36" transform="scale(0.015625)"/>
       </defs>
       <use xlink:href="#DejaVuSans-36"/>
       <use x="63.623047" xlink:href="#DejaVuSans-30"/>
       <use x="127.246094" xlink:href="#DejaVuSans-30"/>
       <use x="190.869141" xlink:href="#DejaVuSans-30"/>
       <use x="254.492188" xlink:href="#DejaVuSans-30"/>
      </g>
     </g>
    </g>
    <g id="xtick_5">
     <g id="text_5">
      <!-- 80000 -->
      <g style="fill:#262626;" transform="translate(423.064893 635.156562)scale(0.22 -0.22)">
       <defs>
        <path d="M 2034 2216 
Q 1584 2216 1326 1975 
Q 1069 1734 1069 1313 
Q 1069 891 1326 650 
Q 1584 409 2034 409 
Q 2484 409 2743 651 
Q 3003 894 3003 1313 
Q 3003 1734 2745 1975 
Q 2488 2216 2034 2216 
z
M 1403 2484 
Q 997 2584 770 2862 
Q 544 3141 544 3541 
Q 544 4100 942 4425 
Q 1341 4750 2034 4750 
Q 2731 4750 3128 4425 
Q 3525 4100 3525 3541 
Q 3525 3141 3298 2862 
Q 3072 2584 2669 2484 
Q 3125 2378 3379 2068 
Q 3634 1759 3634 1313 
Q 3634 634 3220 271 
Q 2806 -91 2034 -91 
Q 1263 -91 848 271 
Q 434 634 434 1313 
Q 434 1759 690 2068 
Q 947 2378 1403 2484 
z
M 1172 3481 
Q 1172 3119 1398 2916 
Q 1625 2713 2034 2713 
Q 2441 2713 2670 2916 
Q 2900 3119 2900 3481 
Q 2900 3844 2670 4047 
Q 2441 4250 2034 4250 
Q 1625 4250 1398 4047 
Q 1172 3844 1172 3481 
z
" id="DejaVuSans-38" transform="scale(0.015625)"/>
       </defs>
       <use xlink:href="#DejaVuSans-38"/>
       <use x="63.623047" xlink:href="#DejaVuSans-30"/>
       <use x="127.246094" xlink:href="#DejaVuSans-30"/>
       <use x="190.869141" xlink:href="#DejaVuSans-30"/>
       <use x="254.492188" xlink:href="#DejaVuSans-30"/>
      </g>
     </g>
    </g>
    <g id="xtick_6">
     <g id="text_6">
      <!-- 100000 -->
      <g style="fill:#262626;" transform="translate(503.919057 635.156562)scale(0.22 -0.22)">
       <defs>
        <path d="M 794 531 
L 1825 531 
L 1825 4091 
L 703 3866 
L 703 4441 
L 1819 4666 
L 2450 4666 
L 2450 531 
L 3481 531 
L 3481 0 
L 794 0 
L 794 531 
z
" id="DejaVuSans-31" transform="scale(0.015625)"/>
       </defs>
       <use xlink:href="#DejaVuSans-31"/>
       <use x="63.623047" xlink:href="#DejaVuSans-30"/>
       <use x="127.246094" xlink:href="#DejaVuSans-30"/>
       <use x="190.869141" xlink:href="#DejaVuSans-30"/>
       <use x="254.492188" xlink:href="#DejaVuSans-30"/>
       <use x="318.115234" xlink:href="#DejaVuSans-30"/>
      </g>
     </g>
    </g>
    <g id="text_7">
     <!-- MDTU -->
     <g style="fill:#262626;" transform="translate(290.683464 661.968125)scale(0.24 -0.24)">
      <defs>
       <path d="M 628 4666 
L 1569 4666 
L 2759 1491 
L 3956 4666 
L 4897 4666 
L 4897 0 
L 4281 0 
L 4281 4097 
L 3078 897 
L 2444 897 
L 1241 4097 
L 1241 0 
L 628 0 
L 628 4666 
z
" id="DejaVuSans-4d" transform="scale(0.015625)"/>
       <path d="M 1259 4147 
L 1259 519 
L 2022 519 
Q 2988 519 3436 956 
Q 3884 1394 3884 2338 
Q 3884 3275 3436 3711 
Q 2988 4147 2022 4147 
L 1259 4147 
z
M 628 4666 
L 1925 4666 
Q 3281 4666 3915 4102 
Q 4550 3538 4550 2338 
Q 4550 1131 3912 565 
Q 3275 0 1925 0 
L 628 0 
L 628 4666 
z
" id="DejaVuSans-44" transform="scale(0.015625)"/>
       <path d="M -19 4666 
L 3928 4666 
L 3928 4134 
L 2272 4134 
L 2272 0 
L 1638 0 
L 1638 4134 
L -19 4134 
L -19 4666 
z
" id="DejaVuSans-54" transform="scale(0.015625)"/>
       <path d="M 556 4666 
L 1191 4666 
L 1191 1831 
Q 1191 1081 1462 751 
Q 1734 422 2344 422 
Q 2950 422 3222 751 
Q 3494 1081 3494 1831 
L 3494 4666 
L 4128 4666 
L 4128 1753 
Q 4128 841 3676 375 
Q 3225 -91 2344 -91 
Q 1459 -91 1007 375 
Q 556 841 556 1753 
L 556 4666 
z
" id="DejaVuSans-55" transform="scale(0.015625)"/>
      </defs>
      <use xlink:href="#DejaVuSans-4d"/>
      <use x="86.279297" xlink:href="#DejaVuSans-44"/>
      <use x="163.28125" xlink:href="#DejaVuSans-54"/>
      <use x="224.365234" xlink:href="#DejaVuSans-55"/>
     </g>
    </g>
   </g>
   <g id="matplotlib.axis_2">
    <g id="ytick_1">
     <g id="text_8">
      <!-- 0.6 -->
      <g style="fill:#262626;" transform="translate(34.4275 544.017103)scale(0.22 -0.22)">
       <defs>
        <path d="M 684 794 
L 1344 794 
L 1344 0 
L 684 0 
L 684 794 
z
" id="DejaVuSans-2e" transform="scale(0.015625)"/>
       </defs>
       <use xlink:href="#DejaVuSans-30"/>
       <use x="63.623047" xlink:href="#DejaVuSans-2e"/>
       <use x="95.410156" xlink:href="#DejaVuSans-36"/>
      </g>
     </g>
    </g>
    <g id="ytick_2">
     <g id="text_9">
      <!-- 0.7 -->
      <g style="fill:#262626;" transform="translate(34.4275 476.600754)scale(0.22 -0.22)">
       <defs>
        <path d="M 525 4666 
L 3525 4666 
L 3525 4397 
L 1831 0 
L 1172 0 
L 2766 4134 
L 525 4134 
L 525 4666 
z
" id="DejaVuSans-37" transform="scale(0.015625)"/>
       </defs>
       <use xlink:href="#DejaVuSans-30"/>
       <use x="63.623047" xlink:href="#DejaVuSans-2e"/>
       <use x="95.410156" xlink:href="#DejaVuSans-37"/>
      </g>
     </g>
    </g>
    <g id="ytick_3">
     <g id="text_10">
      <!-- 0.8 -->
      <g style="fill:#262626;" transform="translate(34.4275 409.184405)scale(0.22 -0.22)">
       <use xlink:href="#DejaVuSans-30"/>
       <use x="63.623047" xlink:href="#DejaVuSans-2e"/>
       <use x="95.410156" xlink:href="#DejaVuSans-38"/>
      </g>
     </g>
    </g>
    <g id="ytick_4">
     <g id="text_11">
      <!-- 0.9 -->
      <g style="fill:#262626;" transform="translate(34.4275 341.768056)scale(0.22 -0.22)">
       <defs>
        <path d="M 703 97 
L 703 672 
Q 941 559 1184 500 
Q 1428 441 1663 441 
Q 2288 441 2617 861 
Q 2947 1281 2994 2138 
Q 2813 1869 2534 1725 
Q 2256 1581 1919 1581 
Q 1219 1581 811 2004 
Q 403 2428 403 3163 
Q 403 3881 828 4315 
Q 1253 4750 1959 4750 
Q 2769 4750 3195 4129 
Q 3622 3509 3622 2328 
Q 3622 1225 3098 567 
Q 2575 -91 1691 -91 
Q 1453 -91 1209 -44 
Q 966 3 703 97 
z
M 1959 2075 
Q 2384 2075 2632 2365 
Q 2881 2656 2881 3163 
Q 2881 3666 2632 3958 
Q 2384 4250 1959 4250 
Q 1534 4250 1286 3958 
Q 1038 3666 1038 3163 
Q 1038 2656 1286 2365 
Q 1534 2075 1959 2075 
z
" id="DejaVuSans-39" transform="scale(0.015625)"/>
       </defs>
       <use xlink:href="#DejaVuSans-30"/>
       <use x="63.623047" xlink:href="#DejaVuSans-2e"/>
       <use x="95.410156" xlink:href="#DejaVuSans-39"/>
      </g>
     </g>
    </g>
    <g id="ytick_5">
     <g id="text_12">
      <!-- 1.0 -->
      <g style="fill:#262626;" transform="translate(34.4275 274.351707)scale(0.22 -0.22)">
       <use xlink:href="#DejaVuSans-31"/>
       <use x="63.623047" xlink:href="#DejaVuSans-2e"/>
       <use x="95.410156" xlink:href="#DejaVuSans-30"/>
      </g>
     </g>
    </g>
    <g id="ytick_6">
     <g id="text_13">
      <!-- 1.1 -->
      <g style="fill:#262626;" transform="translate(34.4275 206.935359)scale(0.22 -0.22)">
       <use xlink:href="#DejaVuSans-31"/>
       <use x="63.623047" xlink:href="#DejaVuSans-2e"/>
       <use x="95.410156" xlink:href="#DejaVuSans-31"/>
      </g>
     </g>
    </g>
    <g id="ytick_7">
     <g id="text_14">
      <!-- 1.2 -->
      <g style="fill:#262626;" transform="translate(34.4275 139.51901)scale(0.22 -0.22)">
       <use xlink:href="#DejaVuSans-31"/>
       <use x="63.623047" xlink:href="#DejaVuSans-2e"/>
       <use x="95.410156" xlink:href="#DejaVuSans-32"/>
      </g>
     </g>
    </g>
    <g id="text_15">
     <!-- $E$ -->
     <g style="fill:#262626;" transform="translate(25.43625 363.813429)rotate(-90)scale(0.24 -0.24)">
      <defs>
       <path d="M 1081 4666 
L 4031 4666 
L 3928 4134 
L 1606 4134 
L 1338 2753 
L 3566 2753 
L 3463 2222 
L 1234 2222 
L 909 531 
L 3284 531 
L 3181 0 
L 172 0 
L 1081 4666 
z
" id="DejaVuSans-Oblique-45" transform="scale(0.015625)"/>
      </defs>
      <use transform="translate(0 0.09375)" xlink:href="#DejaVuSans-Oblique-45"/>
     </g>
    </g>
   </g>
   <g id="line2d_1">
    <path clip-path="url(#p8c4e8c81c3)" d="M 106.866622 439.616972 
L 107.086254 449.79501 
L 107.305886 426.961534 
L 107.525519 438.283164 
L 107.745151 393.586676 
L 107.964783 295.109278 
L 108.184415 440.483221 
L 108.404048 404.016483 
L 108.62368 413.715362 
L 108.843312 412.853437 
L 109.062945 436.579832 
L 109.282577 479.787221 
L 109.721841 415.554909 
L 109.941474 431.806731 
L 110.380738 382.58631 
L 110.600371 443.281926 
L 110.820003 383.623061 
L 111.039635 437.694522 
L 111.259267 410.893336 
L 111.4789 431.076289 
L 111.698532 466.571814 
L 111.918164 341.137123 
L 112.137797 426.648924 
L 112.357429 408.228719 
L 112.577061 402.229999 
L 112.796693 304.199137 
L 113.016326 460.292002 
L 113.235958 330.052365 
L 113.45559 411.218474 
L 113.675223 407.525863 
L 113.894855 524.585185 
L 114.114487 439.260782 
L 114.334119 407.89988 
L 114.553752 411.602288 
L 114.773384 344.228398 
L 114.993016 397.983836 
L 115.212649 317.500606 
L 115.651913 485.486872 
L 115.871545 378.199144 
L 116.091178 427.94956 
L 116.31081 370.2354 
L 116.530442 455.663459 
L 116.750075 388.631987 
L 116.969707 451.783128 
L 117.408971 325.789653 
L 117.628604 412.616658 
L 117.848236 335.115021 
L 118.067868 487.664239 
L 118.287501 257.08262 
L 118.507133 384.320009 
L 118.726765 411.682404 
L 119.16603 376.41858 
L 119.385662 415.449059 
L 119.605294 500.495968 
L 119.824926 377.371432 
L 120.044559 419.660374 
L 120.264191 391.070892 
L 120.483823 409.925015 
L 120.703456 397.347091 
L 120.923088 464.709396 
L 121.14272 420.804592 
L 121.362352 321.108476 
L 121.581985 319.499044 
L 121.801617 411.125082 
L 122.021249 455.415583 
L 122.680146 294.854153 
L 122.899778 446.04092 
L 123.119411 406.521349 
L 123.339043 521.73455 
L 123.558675 385.979744 
L 123.778308 384.959892 
L 123.99794 379.630044 
L 124.437204 359.736054 
L 124.656837 371.038196 
L 124.876469 292.573992 
L 125.096101 412.304799 
L 125.315734 424.019899 
L 125.754998 319.488069 
L 125.97463 191.134714 
L 126.194263 398.231847 
L 126.413895 356.887809 
L 126.633527 337.714363 
L 127.072792 370.226655 
L 127.292424 428.518943 
L 127.512056 398.699975 
L 127.731689 277.337564 
L 127.951321 431.046325 
L 128.170953 466.722735 
L 128.610218 358.031266 
L 128.82985 500.159912 
L 129.049482 428.37208 
L 129.269115 423.652732 
L 129.488747 434.769207 
L 129.708379 376.746175 
L 129.928012 429.179961 
L 130.367276 379.213517 
L 130.586908 413.02698 
L 130.806541 492.436531 
L 131.026173 500.534086 
L 131.245805 402.799909 
L 131.465438 372.76369 
L 131.68507 390.409243 
L 131.904702 347.166704 
L 132.124334 479.114269 
L 132.563599 321.625762 
L 132.783231 367.457611 
L 133.002864 500.187994 
L 133.222496 353.202938 
L 133.442128 383.929299 
L 133.66176 477.260546 
L 133.881393 355.979131 
L 134.101025 346.722561 
L 134.320657 430.293376 
L 134.540289 298.411356 
L 134.759922 377.947786 
L 134.979554 345.261776 
L 135.199186 363.327707 
L 135.418819 338.332808 
L 135.638451 450.35541 
L 135.858083 308.899654 
L 136.077715 442.790905 
L 136.297348 441.088761 
L 136.51698 405.543987 
L 136.736612 418.694569 
L 136.956245 408.277357 
L 137.175877 461.410662 
L 137.395509 324.083335 
L 137.615141 372.40401 
L 137.834774 463.561319 
L 138.054406 486.746165 
L 138.493671 392.684458 
L 138.713303 424.333798 
L 138.932935 406.254374 
L 139.3722 424.036608 
L 139.591832 426.047738 
L 139.811464 324.530465 
L 140.031097 374.064128 
L 140.250729 381.912237 
L 140.470361 367.299276 
L 140.689993 485.95541 
L 140.909626 343.381192 
L 141.129258 348.587189 
L 141.34889 338.424501 
L 141.568523 334.809575 
L 141.788155 413.152078 
L 142.007787 414.200588 
L 142.227419 325.378018 
L 142.666684 418.556437 
L 143.105949 313.827326 
L 143.545213 487.562538 
L 143.764845 385.872824 
L 143.984478 480.571948 
L 144.423742 419.385481 
L 144.643375 580.503039 
L 144.863007 535.759704 
L 145.082639 432.311039 
L 145.302271 408.108554 
L 145.521904 368.822572 
L 145.741536 422.339772 
L 145.961168 447.330374 
L 146.180801 458.034579 
L 146.400433 443.692765 
L 146.620065 350.134053 
L 146.839697 312.656387 
L 147.05933 414.402716 
L 147.278962 390.254478 
L 147.498594 435.992716 
L 147.718227 312.792243 
L 148.157491 516.484013 
L 148.596756 336.061606 
L 148.816388 355.747407 
L 149.03602 318.033174 
L 149.255653 449.226775 
L 149.475285 351.463005 
L 149.694917 376.017631 
L 149.914549 314.556648 
L 150.134182 343.314578 
L 150.353814 439.404733 
L 150.573446 338.996767 
L 151.012711 373.834227 
L 151.232343 414.397901 
L 151.451975 261.999373 
L 151.671608 385.533273 
L 151.89124 353.997315 
L 152.110872 384.064771 
L 152.330504 365.973125 
L 152.550137 415.489624 
L 152.769769 424.124543 
L 152.989401 368.098845 
L 153.209034 376.814151 
L 153.428666 327.969684 
L 153.648298 395.413801 
L 153.86793 412.822619 
L 154.087563 459.302162 
L 154.307195 369.790309 
L 154.526827 394.64724 
L 154.74646 371.431582 
L 154.966092 399.953254 
L 155.185724 230.795698 
L 155.405356 415.913324 
L 155.624989 372.217749 
L 155.844621 448.804845 
L 156.064253 327.853449 
L 156.283886 487.047745 
L 156.503518 338.963483 
L 156.72315 332.287304 
L 157.162415 386.031142 
L 157.382047 301.886392 
L 157.601679 337.066706 
L 157.821312 347.836948 
L 158.040944 409.193877 
L 158.260576 328.123889 
L 158.480208 423.127187 
L 158.699841 411.832456 
L 158.919473 444.170577 
L 159.139105 296.090882 
L 159.57837 410.433729 
L 159.798002 318.821499 
L 160.017634 441.247093 
L 160.237267 347.537223 
L 160.456899 331.7401 
L 160.676531 378.700603 
L 160.896164 388.458916 
L 161.115796 316.265535 
L 161.335428 337.039858 
L 161.55506 340.339745 
L 161.994325 363.9193 
L 162.213957 453.637556 
L 162.43359 492.170759 
L 162.653222 400.710653 
L 162.872854 244.030492 
L 163.092486 455.578024 
L 163.531751 346.540799 
L 163.971016 414.970079 
L 164.190648 371.68398 
L 164.41028 394.98088 
L 164.629912 347.660867 
L 164.849545 459.079433 
L 165.508441 305.07611 
L 165.728074 460.674476 
L 165.947706 508.796831 
L 166.167338 353.807284 
L 166.826235 488.533339 
L 167.045867 472.675276 
L 167.485132 318.7985 
L 167.704764 398.140341 
L 167.924397 397.658745 
L 168.144029 327.870544 
L 168.583293 472.115499 
L 168.802926 398.740168 
L 169.022558 413.722961 
L 169.24219 364.039993 
L 169.681455 391.32957 
L 169.901087 422.412982 
L 170.120719 345.774106 
L 170.340352 434.657295 
L 170.559984 375.583151 
L 170.999249 389.946516 
L 171.218881 382.536138 
L 171.438513 361.275605 
L 171.658145 321.595149 
L 171.877778 377.973276 
L 172.09741 340.91004 
L 172.317042 403.224634 
L 172.536675 378.662658 
L 172.756307 393.843349 
L 172.975939 444.31352 
L 173.195571 444.172156 
L 173.415204 425.500782 
L 173.634836 325.61558 
L 173.854468 512.40006 
L 174.074101 390.529014 
L 174.293733 372.068737 
L 174.513365 444.479296 
L 174.732997 319.042922 
L 174.95263 477.906404 
L 175.172262 268.496844 
L 175.831159 491.06492 
L 176.050791 338.261053 
L 176.270423 390.817626 
L 176.490056 368.683086 
L 176.709688 428.225069 
L 176.92932 350.940336 
L 177.148953 452.977786 
L 177.368585 405.060613 
L 177.588217 420.267178 
L 177.807849 474.578783 
L 178.027482 481.358737 
L 178.247114 347.77305 
L 178.466746 306.685949 
L 178.686379 481.168182 
L 178.906011 342.969554 
L 179.125643 332.515259 
L 179.345275 334.888597 
L 179.564908 417.952738 
L 180.004172 343.334534 
L 180.223805 372.371818 
L 180.443437 426.434645 
L 180.663069 382.521326 
L 180.882701 404.585903 
L 181.102334 371.131022 
L 181.321966 408.378282 
L 181.541598 372.042114 
L 181.76123 410.70316 
L 181.980863 483.464931 
L 182.200495 489.074204 
L 182.420127 409.559364 
L 182.63976 387.05625 
L 182.859392 425.848435 
L 183.079024 392.158792 
L 183.298656 392.123351 
L 183.518289 258.59885 
L 183.957553 470.642305 
L 184.177186 505.310821 
L 184.396818 197.008897 
L 184.836082 449.727629 
L 185.055715 486.048902 
L 185.275347 433.031178 
L 185.494979 336.975888 
L 185.714612 357.047818 
L 185.934244 456.97724 
L 186.153876 467.166829 
L 186.373508 351.262235 
L 186.593141 377.754673 
L 186.812773 296.760195 
L 187.032405 317.930503 
L 187.252038 434.652816 
L 187.47167 391.307725 
L 187.691302 434.087002 
L 187.910934 444.907164 
L 188.130567 350.224489 
L 188.350199 345.113099 
L 188.569831 405.662206 
L 188.789464 498.899248 
L 189.009096 519.397083 
L 189.228728 369.873932 
L 189.44836 438.72117 
L 189.667993 313.557226 
L 190.107257 431.759356 
L 190.32689 318.64483 
L 190.766154 418.21564 
L 190.985786 373.436498 
L 191.205419 384.439593 
L 191.425051 336.647169 
L 191.644683 337.931619 
L 191.864316 405.285023 
L 192.523212 371.179733 
L 192.742845 200.561557 
L 192.962477 453.483749 
L 193.182109 380.319403 
L 193.401742 436.835076 
L 193.621374 406.171836 
L 193.841006 343.414064 
L 194.280271 472.888106 
L 194.499903 321.449602 
L 194.719535 379.02344 
L 194.939168 347.065453 
L 195.1588 391.576091 
L 195.378432 468.265358 
L 195.817697 332.372112 
L 196.037329 346.946326 
L 196.256961 445.952488 
L 196.476593 438.098279 
L 196.696226 435.242513 
L 196.915858 440.709041 
L 197.13549 429.919977 
L 197.355123 376.75757 
L 197.574755 478.278175 
L 197.794387 308.431609 
L 198.014019 388.632279 
L 198.233652 290.619887 
L 198.453284 469.849939 
L 198.672916 430.085303 
L 198.892549 320.65964 
L 199.112181 460.311661 
L 199.551445 342.535938 
L 199.771078 314.691027 
L 199.99071 326.040571 
L 200.210342 240.047066 
L 200.429975 398.955331 
L 200.649607 410.863363 
L 200.869239 388.395771 
L 201.088871 334.36595 
L 201.308504 344.459236 
L 201.528136 456.782604 
L 201.747768 387.833352 
L 201.967401 410.539781 
L 202.187033 474.512283 
L 202.406665 469.759323 
L 202.626297 511.669882 
L 202.84593 447.457757 
L 203.065562 331.632078 
L 203.285194 348.765599 
L 203.504827 393.333425 
L 203.724459 390.122182 
L 203.944091 314.368759 
L 204.163723 429.943184 
L 204.383356 327.354849 
L 204.602988 400.644751 
L 204.82262 519.382525 
L 205.042253 394.697421 
L 205.261885 407.671702 
L 205.701149 331.133728 
L 205.920782 357.833749 
L 206.140414 430.75118 
L 206.579679 281.593771 
L 206.799311 522.345066 
L 207.018943 359.805886 
L 207.458208 427.975469 
L 207.67784 333.167702 
L 207.897472 340.234835 
L 208.117105 499.183099 
L 208.556369 258.399242 
L 208.776001 334.981941 
L 208.995634 458.710031 
L 209.215266 360.274142 
L 209.434898 441.691031 
L 209.654531 356.849956 
L 209.874163 319.263288 
L 210.093795 432.58383 
L 210.313427 424.944012 
L 210.53306 435.262543 
L 210.752692 432.688123 
L 210.972324 468.298937 
L 211.411589 413.655629 
L 211.631221 399.898048 
L 211.850853 491.005247 
L 212.070486 315.651094 
L 212.290118 317.328022 
L 212.50975 435.622874 
L 212.729382 371.55332 
L 212.949015 380.245697 
L 213.168647 417.756868 
L 213.388279 258.538801 
L 213.607912 507.11672 
L 213.827544 363.473563 
L 214.047176 472.407114 
L 214.266808 371.459691 
L 214.486441 403.597345 
L 214.925705 320.686862 
L 215.36497 449.496251 
L 215.584602 411.072684 
L 215.804234 447.076356 
L 216.243499 427.651739 
L 216.463131 398.180682 
L 216.682764 431.171286 
L 216.902396 404.435054 
L 217.122028 430.189652 
L 217.34166 326.51347 
L 217.780925 468.451074 
L 218.000557 398.882783 
L 218.22019 379.980694 
L 218.659454 322.311166 
L 218.879086 432.402309 
L 219.098719 433.287145 
L 219.318351 448.573143 
L 219.537983 411.836369 
L 219.757616 339.381239 
L 219.977248 347.073501 
L 220.19688 374.733193 
L 220.416512 435.438306 
L 220.855777 305.21886 
L 221.295042 349.047056 
L 221.514674 351.343869 
L 221.953938 468.500919 
L 222.173571 360.142884 
L 222.393203 382.050483 
L 222.832468 473.07482 
L 223.0521 328.533756 
L 223.271732 292.62962 
L 223.491364 378.679922 
L 223.710997 363.000763 
L 223.930629 373.004601 
L 224.150261 413.507181 
L 224.369894 413.704156 
L 224.589526 408.98732 
L 224.809158 427.622747 
L 225.02879 429.514262 
L 225.248423 353.786648 
L 225.468055 411.586701 
L 225.687687 427.574666 
L 226.126952 329.247332 
L 226.346584 445.04978 
L 226.566216 382.286452 
L 226.785849 481.524266 
L 227.005481 427.904315 
L 227.225113 467.249786 
L 227.444745 405.87914 
L 227.664378 424.726865 
L 227.88401 309.738615 
L 228.103642 304.534335 
L 228.323275 408.623574 
L 228.542907 422.515331 
L 228.762539 421.3307 
L 228.982171 399.461975 
L 229.201804 463.988457 
L 229.641068 285.336925 
L 229.860701 324.611829 
L 230.080333 406.344681 
L 230.299965 414.91339 
L 230.73923 377.268807 
L 230.958862 419.634126 
L 231.178494 330.314268 
L 231.398127 438.139299 
L 231.617759 373.603334 
L 231.837391 455.119149 
L 232.057023 410.578352 
L 232.276656 528.965272 
L 232.496288 385.925613 
L 232.71592 320.121856 
L 232.935553 417.738472 
L 233.155185 387.157253 
L 233.374817 294.784408 
L 233.594449 396.83203 
L 233.814082 366.753509 
L 234.033714 467.360245 
L 234.472979 412.956856 
L 234.692611 478.191174 
L 234.912243 326.270622 
L 235.131875 419.301895 
L 235.351508 375.99849 
L 235.57114 435.556701 
L 235.790772 418.17797 
L 236.010405 438.236593 
L 236.230037 365.474315 
L 236.449669 437.058409 
L 236.669301 399.622467 
L 236.888934 292.223731 
L 237.108566 434.156432 
L 237.547831 298.628565 
L 237.767463 423.791949 
L 237.987095 320.293962 
L 238.206727 497.008427 
L 238.645992 365.494396 
L 239.085257 414.146665 
L 239.304889 347.887566 
L 239.524521 330.338314 
L 239.744153 397.069396 
L 239.963786 413.20846 
L 240.183418 455.691063 
L 240.40305 460.489194 
L 240.842315 394.19192 
L 241.281579 438.949094 
L 241.501212 351.472008 
L 241.720844 458.137706 
L 241.940476 345.632038 
L 242.160108 433.537952 
L 242.379741 362.158096 
L 242.819005 477.315828 
L 243.038638 378.594616 
L 243.25827 380.75805 
L 243.477902 347.685923 
L 243.697534 463.613303 
L 244.136799 368.395236 
L 244.356431 385.077585 
L 244.576064 250.439949 
L 244.795696 458.733453 
L 245.015328 427.440244 
L 245.23496 372.288559 
L 245.454593 413.384986 
L 245.893857 306.342044 
L 246.11349 432.771203 
L 246.333122 392.718722 
L 246.772386 481.772084 
L 246.992019 349.048942 
L 247.211651 387.215627 
L 247.431283 353.616837 
L 247.650916 371.198114 
L 248.09018 491.553782 
L 248.309812 429.347567 
L 248.529445 252.592047 
L 248.749077 382.318324 
L 248.968709 423.110088 
L 249.188342 375.995178 
L 249.407974 472.089908 
L 249.627606 448.015607 
L 249.847238 309.193891 
L 250.066871 447.521033 
L 250.286503 336.251222 
L 250.725768 424.859549 
L 250.9454 378.716584 
L 251.165032 427.811437 
L 251.384664 432.504735 
L 251.604297 341.984826 
L 251.823929 394.67209 
L 252.263194 328.228604 
L 252.482826 342.383393 
L 252.702458 374.564025 
L 252.92209 329.269708 
L 253.141723 421.573778 
L 253.361355 462.526369 
L 253.580987 362.388001 
L 253.80062 397.601134 
L 254.020252 364.274941 
L 254.239884 407.475563 
L 254.459516 290.257091 
L 254.679149 403.697299 
L 254.898781 388.510137 
L 255.118413 391.192171 
L 255.338046 438.086755 
L 255.557678 429.936189 
L 256.436207 324.733498 
L 256.655839 417.601471 
L 256.875472 435.688772 
L 257.314736 316.790514 
L 257.534368 363.622118 
L 257.754001 345.104481 
L 257.973633 338.009941 
L 258.412897 453.865694 
L 258.63253 290.108029 
L 258.852162 369.524912 
L 259.071794 348.437132 
L 259.511059 418.4944 
L 259.730691 409.184357 
L 259.950323 445.185279 
L 260.169956 450.358474 
L 260.389588 508.96466 
L 260.60922 445.015541 
L 260.828853 324.076652 
L 261.048485 375.800583 
L 261.268117 333.942015 
L 261.487749 411.690161 
L 261.707382 427.708306 
L 261.927014 366.73031 
L 262.146646 366.960902 
L 262.366279 564.307 
L 262.585911 332.25298 
L 262.805543 434.63168 
L 263.025175 400.625089 
L 263.244808 462.183835 
L 263.46444 397.233035 
L 263.684072 528.011006 
L 263.903705 462.737916 
L 264.123337 339.56321 
L 264.342969 339.901621 
L 264.562601 298.390135 
L 264.782234 431.982281 
L 265.001866 392.202846 
L 265.221498 509.645119 
L 265.441131 374.143352 
L 265.660763 382.180696 
L 265.880395 324.316621 
L 266.100027 394.470679 
L 266.31966 350.061473 
L 266.539292 356.281042 
L 266.758924 429.192989 
L 266.978557 459.609781 
L 267.198189 473.249453 
L 267.637453 345.251963 
L 267.857086 424.915776 
L 268.076718 346.960156 
L 268.29635 432.815752 
L 268.515983 325.659863 
L 268.955247 401.566191 
L 269.174879 407.158346 
L 269.394512 360.55688 
L 269.614144 411.456751 
L 269.833776 389.836963 
L 270.053409 463.226544 
L 270.273041 452.649838 
L 270.492673 350.844156 
L 270.712305 457.602647 
L 270.931938 260.249264 
L 271.15157 416.577633 
L 271.371202 272.216937 
L 271.590835 365.08781 
L 271.810467 343.941728 
L 272.249731 393.594528 
L 272.469364 349.426163 
L 272.688996 391.91304 
L 272.908628 367.78907 
L 273.12826 307.914163 
L 273.347893 371.09284 
L 273.567525 291.768412 
L 273.787157 379.275789 
L 274.00679 407.300528 
L 274.226422 374.015622 
L 274.446054 396.040997 
L 274.665686 349.514677 
L 274.885319 474.216492 
L 275.104951 499.565276 
L 275.324583 438.426872 
L 275.544216 417.493202 
L 275.763848 413.350635 
L 275.98348 454.408536 
L 276.203112 436.442446 
L 276.422745 495.659275 
L 276.642377 437.648769 
L 276.862009 483.75451 
L 277.081642 425.082928 
L 277.301274 457.12306 
L 277.520906 370.628038 
L 277.960171 483.604625 
L 278.179803 341.58479 
L 278.8387 390.311479 
L 279.058332 439.676798 
L 279.277964 285.350258 
L 279.497597 423.40054 
L 279.717229 453.195214 
L 279.936861 331.009426 
L 280.156494 371.739573 
L 280.376126 473.869317 
L 280.595758 415.134574 
L 280.81539 442.951285 
L 281.035023 379.517275 
L 281.254655 427.900665 
L 281.474287 402.344018 
L 281.69392 340.786017 
L 281.913552 316.339243 
L 282.133184 388.291519 
L 282.352816 327.222442 
L 282.572449 430.669619 
L 282.792081 422.285271 
L 283.011713 423.734955 
L 283.231346 406.820982 
L 283.67061 309.115332 
L 283.890242 470.599107 
L 284.109875 449.338949 
L 284.329507 307.322743 
L 284.549139 281.022205 
L 284.768772 448.607722 
L 284.988404 428.81855 
L 285.208036 453.118353 
L 285.427668 296.928812 
L 285.866933 504.336209 
L 286.086565 410.930676 
L 286.52583 351.587399 
L 286.745462 386.520681 
L 286.965094 441.623421 
L 287.404359 283.706532 
L 287.623991 389.533954 
L 287.843624 382.040669 
L 288.063256 404.949144 
L 288.282888 365.128134 
L 288.50252 362.396878 
L 288.722153 434.910778 
L 288.941785 352.454263 
L 289.161417 389.787309 
L 289.381049 456.53603 
L 289.820314 376.255246 
L 290.039946 291.274134 
L 290.259579 415.234366 
L 290.479211 386.661654 
L 290.698843 415.249351 
L 290.918475 415.984197 
L 291.138108 472.77654 
L 291.35774 449.140076 
L 291.577372 448.425134 
L 291.797005 406.781854 
L 292.016637 489.191208 
L 292.236269 394.357947 
L 292.455901 455.983448 
L 292.675534 452.975569 
L 292.895166 502.108985 
L 293.114798 276.521022 
L 293.334431 425.18831 
L 293.554063 376.08896 
L 293.773695 292.694563 
L 293.993327 466.019639 
L 294.21296 468.62014 
L 294.652224 452.53966 
L 294.871857 399.443067 
L 295.091489 491.144139 
L 295.311121 361.195567 
L 295.530753 388.046491 
L 295.750386 441.201475 
L 295.970018 375.981171 
L 296.18965 384.459011 
L 296.409283 424.622352 
L 296.628915 412.396535 
L 296.848547 433.964126 
L 297.068179 374.438462 
L 297.287812 277.66823 
L 297.507444 434.209528 
L 297.727076 419.811439 
L 297.946709 357.911132 
L 298.385973 412.858177 
L 298.605605 425.633157 
L 298.825238 474.580411 
L 299.264502 387.309483 
L 299.484135 438.911285 
L 299.703767 412.899186 
L 299.923399 361.970193 
L 300.362664 448.006715 
L 300.582296 386.265846 
L 300.801928 281.082443 
L 301.021561 436.962782 
L 301.241193 312.349558 
L 301.460825 376.450914 
L 301.680457 283.081822 
L 301.90009 477.631162 
L 302.119722 347.359211 
L 302.339354 446.55757 
L 302.558987 466.772388 
L 302.998251 328.948655 
L 303.217883 280.453694 
L 303.437516 304.139131 
L 303.657148 256.897935 
L 303.87678 440.567641 
L 304.316045 324.190653 
L 304.535677 400.374569 
L 304.755309 373.486379 
L 305.414206 446.152818 
L 305.633838 216.932764 
L 305.853471 390.172605 
L 306.073103 239.647219 
L 306.292735 445.70204 
L 306.512368 394.064505 
L 306.732 388.45894 
L 307.171264 301.008613 
L 307.390897 442.4274 
L 307.610529 458.062773 
L 308.049794 384.077092 
L 308.269426 395.31872 
L 308.489058 400.314464 
L 308.70869 316.876973 
L 308.928323 319.444907 
L 309.147955 458.589082 
L 309.367587 470.248844 
L 309.58722 417.920325 
L 309.806852 305.271811 
L 310.026484 336.537644 
L 310.246116 426.872756 
L 310.465749 388.371447 
L 310.905013 463.388484 
L 311.344278 399.89397 
L 311.56391 413.259677 
L 311.783542 328.322791 
L 312.003175 362.849005 
L 312.222807 444.514507 
L 312.442439 364.255672 
L 312.662072 411.195082 
L 312.881704 423.031719 
L 313.101336 309.876869 
L 313.320968 415.978945 
L 313.540601 419.280638 
L 313.760233 366.605696 
L 313.979865 511.121216 
L 314.41913 372.510923 
L 314.638762 455.910808 
L 314.858394 494.812641 
L 315.078027 328.408845 
L 315.297659 425.730456 
L 315.517291 245.104908 
L 315.736924 348.705657 
L 315.956556 365.33306 
L 316.176188 442.384678 
L 316.39582 476.063439 
L 316.615453 306.821618 
L 316.835085 304.093244 
L 317.054717 414.030337 
L 317.27435 458.231458 
L 317.493982 398.964462 
L 317.713614 441.195407 
L 317.933246 388.51745 
L 318.152879 442.22623 
L 318.372511 438.945697 
L 318.592143 487.289689 
L 319.031408 308.846351 
L 319.25104 420.100771 
L 319.470672 447.577135 
L 319.690305 429.762499 
L 319.909937 358.331527 
L 320.129569 371.126812 
L 320.349201 403.551626 
L 320.568834 383.983717 
L 320.788466 341.541209 
L 321.008098 449.612607 
L 321.227731 337.894312 
L 321.447363 377.710407 
L 321.666995 329.294455 
L 321.886627 424.843631 
L 322.10626 440.34356 
L 322.325892 355.61672 
L 322.545524 383.759089 
L 322.765157 491.113446 
L 322.984789 394.425539 
L 323.204421 429.141079 
L 323.424053 439.924129 
L 323.643686 440.60616 
L 324.08295 404.940699 
L 324.302583 458.158624 
L 324.522215 368.602154 
L 324.961479 315.68886 
L 325.181112 340.751208 
L 325.400744 394.603776 
L 326.059641 236.527423 
L 326.279273 386.899962 
L 326.498905 439.590472 
L 326.718538 455.6158 
L 327.157802 336.881837 
L 327.377435 298.501799 
L 327.597067 412.082252 
L 327.816699 415.347504 
L 328.036331 430.802741 
L 328.255964 371.113359 
L 328.475596 377.362769 
L 328.695228 436.472797 
L 328.914861 405.340964 
L 329.134493 431.804954 
L 329.354125 405.389828 
L 329.573757 282.654982 
L 329.79339 402.979628 
L 330.013022 384.108797 
L 330.232654 284.937949 
L 330.452287 337.592392 
L 330.671919 456.159331 
L 330.891551 318.446962 
L 331.111183 451.904812 
L 331.330816 350.143742 
L 331.550448 367.743792 
L 331.77008 401.901207 
L 331.989713 462.240727 
L 332.209345 431.955924 
L 332.428977 347.890636 
L 332.648609 452.606137 
L 332.868242 306.757741 
L 333.307506 445.590021 
L 333.527139 421.680749 
L 333.746771 373.414085 
L 333.966403 421.169441 
L 334.186035 359.422909 
L 334.405668 355.273902 
L 334.6253 273.986121 
L 334.844932 569.1211 
L 335.064564 205.62117 
L 335.284197 335.558723 
L 335.503829 269.386911 
L 335.723461 335.413251 
L 335.943094 465.679489 
L 336.162726 383.303071 
L 336.382358 495.469369 
L 336.60199 328.955495 
L 336.821623 408.508158 
L 337.041255 291.36052 
L 337.48052 413.813403 
L 337.700152 338.544166 
L 337.919784 410.392232 
L 338.359049 397.494046 
L 338.578681 410.820375 
L 338.798313 317.64945 
L 339.237578 441.433914 
L 339.45721 388.70471 
L 339.896475 441.87213 
L 340.116107 484.613234 
L 340.555372 419.378108 
L 340.775004 241.401733 
L 340.994636 435.995207 
L 341.214268 322.33006 
L 341.433901 424.288663 
L 341.653533 393.521463 
L 342.092798 465.762876 
L 342.31243 387.232697 
L 342.532062 442.642259 
L 342.751694 380.465067 
L 342.971327 277.572238 
L 343.190959 437.680281 
L 343.410591 379.6702 
L 343.630224 454.087285 
L 343.849856 449.294266 
L 344.069488 281.937505 
L 344.28912 407.524659 
L 344.508753 442.144983 
L 344.948017 334.080596 
L 345.16765 380.334864 
L 345.387282 464.483294 
L 345.606914 379.346426 
L 345.826546 344.186261 
L 346.046179 357.993776 
L 346.265811 408.054966 
L 346.485443 424.856555 
L 346.705076 542.817546 
L 347.14434 400.413597 
L 347.363972 320.731058 
L 347.803237 489.363145 
L 348.022869 327.085087 
L 348.242502 484.136415 
L 348.462134 258.861479 
L 348.681766 356.237679 
L 348.901398 337.395676 
L 349.121031 208.709363 
L 349.340663 197.90088 
L 349.560295 369.577702 
L 349.779927 302.758441 
L 350.219192 451.506939 
L 350.438824 436.308801 
L 350.658457 454.958375 
L 350.878089 457.182519 
L 351.317353 287.122091 
L 351.756618 449.840852 
L 351.97625 417.96181 
L 352.195883 345.75962 
L 352.415515 359.255469 
L 352.635147 201.318364 
L 352.854779 392.721878 
L 353.074412 379.013837 
L 353.294044 379.406914 
L 353.513676 390.677814 
L 353.733309 362.685928 
L 353.952941 367.890487 
L 354.172573 352.616144 
L 354.392205 526.458797 
L 354.611838 358.910038 
L 354.83147 376.54569 
L 355.051102 515.901958 
L 355.270735 475.525673 
L 355.490367 258.739959 
L 355.709999 460.821429 
L 355.929631 365.621475 
L 356.149264 321.710371 
L 356.368896 457.730485 
L 356.588528 397.033597 
L 356.808161 420.439637 
L 357.027793 420.78218 
L 357.247425 265.589947 
L 357.467057 496.199829 
L 357.68669 436.439409 
L 357.906322 408.865236 
L 358.125954 435.906979 
L 358.345587 431.903123 
L 358.565219 398.026306 
L 358.784851 401.160208 
L 359.004483 310.774197 
L 359.224116 420.554761 
L 359.443748 389.406985 
L 359.66338 393.35353 
L 359.883013 338.419299 
L 360.102645 499.088054 
L 360.761542 345.981009 
L 360.981174 446.457447 
L 361.200806 342.15148 
L 361.420439 421.360253 
L 361.640071 406.343551 
L 361.859703 367.101868 
L 362.079335 424.304962 
L 362.298968 355.95333 
L 362.5186 476.829608 
L 362.738232 318.845843 
L 362.957865 413.62469 
L 363.177497 424.450861 
L 363.397129 450.255693 
L 363.616761 421.64909 
L 363.836394 416.787928 
L 364.056026 468.336468 
L 364.275658 471.957846 
L 364.714923 267.308159 
L 364.934555 338.998007 
L 365.154187 131.763818 
L 365.37382 480.353879 
L 365.593452 356.012183 
L 365.813084 337.840671 
L 366.252349 404.33468 
L 366.471981 505.945772 
L 366.691613 383.724177 
L 366.911246 414.564836 
L 367.130878 399.244834 
L 367.35051 345.547336 
L 367.789775 417.668804 
L 368.009407 253.118938 
L 368.229039 447.665109 
L 368.448672 380.777215 
L 368.668304 466.70774 
L 368.887936 356.13784 
L 369.107568 335.62565 
L 369.327201 463.4105 
L 369.546833 369.389891 
L 369.986098 432.522753 
L 370.20573 483.129336 
L 370.425362 446.05059 
L 370.864627 352.472526 
L 371.084259 354.734921 
L 371.303891 376.456878 
L 371.523524 325.601126 
L 371.743156 459.506976 
L 371.962788 442.843179 
L 372.18242 416.096401 
L 372.402053 404.306659 
L 372.621685 345.948708 
L 372.841317 387.628617 
L 373.06095 301.632723 
L 373.280582 334.247613 
L 373.500214 418.461221 
L 373.939479 366.999921 
L 374.159111 394.160076 
L 374.378743 383.318767 
L 374.598376 451.582222 
L 374.818008 420.912159 
L 375.257272 317.446182 
L 375.476905 486.120761 
L 375.696537 372.101437 
L 375.916169 384.783527 
L 376.135802 319.582331 
L 376.355434 351.057718 
L 376.575066 458.672823 
L 376.794698 420.038421 
L 377.014331 406.4222 
L 377.233963 336.488719 
L 377.453595 384.51213 
L 377.673228 402.470347 
L 377.89286 458.857729 
L 378.112492 345.405293 
L 378.332124 456.240662 
L 378.551757 297.213642 
L 378.771389 344.408117 
L 378.991021 332.065337 
L 379.430286 275.479643 
L 379.649918 400.649191 
L 379.86955 389.937991 
L 380.089183 268.578678 
L 380.308815 433.469118 
L 380.528447 412.370506 
L 380.967712 396.717927 
L 381.187344 314.551588 
L 381.406976 405.217092 
L 381.626609 314.237078 
L 382.065873 492.821473 
L 382.505138 338.046741 
L 382.72477 386.125896 
L 382.944402 460.994693 
L 383.164035 371.440903 
L 383.383667 448.397597 
L 383.603299 381.95676 
L 383.822931 496.613007 
L 384.042564 306.19885 
L 384.262196 386.697443 
L 384.481828 401.030046 
L 384.701461 338.193512 
L 384.921093 340.014982 
L 385.360357 434.89838 
L 385.57999 416.822867 
L 385.799622 525.772727 
L 386.019254 330.905676 
L 386.238887 469.23986 
L 386.458519 490.877878 
L 386.897783 280.602737 
L 387.117416 510.471001 
L 387.337048 360.361174 
L 387.55668 398.755385 
L 387.776313 389.921527 
L 387.995945 365.642637 
L 388.215577 491.631838 
L 388.435209 395.01435 
L 388.654842 426.496756 
L 388.874474 389.42149 
L 389.094106 433.306751 
L 389.313739 367.787619 
L 389.533371 363.754024 
L 389.753003 413.351347 
L 389.972635 303.507744 
L 390.192268 398.01447 
L 390.4119 422.747558 
L 390.631532 424.410172 
L 390.851165 327.785251 
L 391.070797 442.590086 
L 391.290429 438.971653 
L 391.729694 327.607921 
L 391.949326 401.5418 
L 392.168958 414.973658 
L 392.388591 327.64326 
L 392.608223 461.465185 
L 392.827855 394.215361 
L 393.047487 361.814959 
L 393.486752 398.197728 
L 393.706384 477.466473 
L 393.926017 443.105954 
L 394.365281 331.980566 
L 394.804546 327.408495 
L 395.024178 373.347909 
L 395.24381 281.34412 
L 395.463443 397.138809 
L 395.683075 311.851172 
L 395.902707 388.950286 
L 396.341972 281.292725 
L 396.561604 324.806138 
L 396.781236 419.729185 
L 397.000868 415.853827 
L 397.220501 371.46608 
L 397.440133 303.19166 
L 397.659765 450.716222 
L 398.09903 325.709855 
L 398.318662 476.30772 
L 398.538294 414.660297 
L 398.757927 272.374044 
L 398.977559 275.305547 
L 399.197191 461.078587 
L 399.416824 450.151866 
L 399.636456 451.477261 
L 399.856088 398.330646 
L 400.07572 395.54591 
L 400.295353 374.097127 
L 400.514985 373.950165 
L 400.734617 345.219122 
L 400.95425 434.180116 
L 401.173882 421.260548 
L 401.393514 371.493642 
L 401.613146 422.01754 
L 401.832779 429.882507 
L 402.052411 300.200316 
L 402.272043 419.886329 
L 402.491676 446.812041 
L 402.711308 496.001714 
L 403.150572 450.198083 
L 403.370205 379.609761 
L 403.589837 392.840638 
L 403.809469 321.577868 
L 404.029102 462.163722 
L 404.248734 404.227708 
L 404.468366 406.088199 
L 404.687998 484.564453 
L 404.907631 380.633031 
L 405.127263 343.28991 
L 405.346895 350.427743 
L 405.566528 361.914188 
L 405.78616 260.089672 
L 406.005792 384.305915 
L 406.225424 233.515932 
L 406.445057 441.1652 
L 406.664689 449.674372 
L 406.884321 368.43028 
L 407.103954 440.091432 
L 407.323586 413.90902 
L 407.543218 402.567005 
L 407.76285 335.699388 
L 407.982483 353.902069 
L 408.202115 339.099774 
L 408.421747 358.066158 
L 408.64138 458.163906 
L 408.861012 363.033084 
L 409.080644 388.585564 
L 409.300276 399.112126 
L 409.519909 322.984993 
L 409.739541 400.696185 
L 409.959173 391.257749 
L 410.178806 287.163287 
L 410.398438 321.943979 
L 410.61807 503.051956 
L 410.837702 397.557561 
L 411.057335 425.15835 
L 411.276967 533.547946 
L 411.716231 291.122484 
L 411.935864 493.541411 
L 412.155496 484.104291 
L 412.375128 270.57528 
L 412.594761 407.469298 
L 412.814393 390.897754 
L 413.034025 392.979395 
L 413.253657 444.345012 
L 413.47329 243.587979 
L 413.692922 411.324977 
L 414.132187 346.118801 
L 414.571451 476.136781 
L 414.791083 450.43326 
L 415.44998 301.9099 
L 415.669613 471.239935 
L 415.889245 354.079721 
L 416.108877 472.774183 
L 416.328509 398.513683 
L 416.548142 367.91804 
L 416.767774 451.230184 
L 416.987406 432.78481 
L 417.207039 389.329367 
L 417.426671 274.931254 
L 417.646303 440.097643 
L 417.865935 303.58168 
L 418.3052 451.679007 
L 418.524832 384.409592 
L 418.964097 462.336181 
L 419.183729 442.702153 
L 419.403361 436.842373 
L 419.622994 424.629439 
L 419.842626 360.434181 
L 420.062258 373.926066 
L 420.281891 491.774592 
L 420.501523 391.311186 
L 421.16042 491.409093 
L 421.380052 360.403272 
L 421.599684 396.62762 
L 422.038949 338.41724 
L 422.258581 366.855828 
L 422.478213 436.217479 
L 422.697846 376.068616 
L 422.917478 361.235444 
L 423.13711 354.149693 
L 423.356743 408.505596 
L 423.576375 340.288919 
L 423.796007 394.688887 
L 424.015639 397.312739 
L 424.235272 375.195506 
L 424.454904 320.895631 
L 424.674536 490.241627 
L 424.894169 330.769812 
L 425.113801 412.309536 
L 425.333433 403.646633 
L 425.553065 404.448559 
L 425.772698 497.747619 
L 425.99233 336.499906 
L 426.211962 324.9902 
L 426.431594 389.908953 
L 426.651227 340.258907 
L 426.870859 388.488796 
L 427.090491 405.485715 
L 427.310124 439.081987 
L 427.529756 397.814201 
L 427.749388 401.757334 
L 427.96902 328.60858 
L 428.188653 414.861987 
L 428.408285 304.801263 
L 428.627917 391.001979 
L 428.84755 411.895183 
L 429.067182 345.791557 
L 429.506446 433.93113 
L 429.726079 435.344754 
L 429.945711 378.67386 
L 430.165343 353.805433 
L 430.384976 388.66252 
L 430.604608 386.905639 
L 430.82424 413.71629 
L 431.043872 458.288292 
L 431.483137 328.034316 
L 431.922402 471.706317 
L 432.142034 345.684645 
L 432.361666 320.157945 
L 432.581298 363.873643 
L 432.800931 439.863922 
L 433.020563 446.022842 
L 433.240195 439.836828 
L 433.459828 373.624015 
L 433.67946 347.261263 
L 433.899092 340.153796 
L 434.118724 420.152073 
L 434.338357 415.731078 
L 434.557989 402.344693 
L 434.777621 479.865985 
L 434.997254 360.631763 
L 435.216886 369.593544 
L 435.436518 443.543373 
L 435.875783 347.77574 
L 436.095415 293.313916 
L 436.315047 435.690207 
L 436.53468 407.208742 
L 436.754312 461.976683 
L 437.193576 366.458902 
L 437.413209 363.900715 
L 437.632841 353.639813 
L 437.852473 427.54411 
L 438.072106 429.455797 
L 438.291738 361.034907 
L 438.51137 398.830467 
L 438.731002 394.893947 
L 438.950635 367.854987 
L 439.170267 453.873857 
L 439.609532 363.549321 
L 439.829164 474.753889 
L 440.048796 337.862888 
L 440.268428 436.122337 
L 440.488061 433.975303 
L 440.707693 395.24685 
L 440.927325 395.895014 
L 441.146958 375.774249 
L 441.36659 332.520706 
L 441.586222 400.652758 
L 441.805854 323.179387 
L 442.025487 379.895205 
L 442.245119 345.282386 
L 442.464751 381.893721 
L 442.684383 392.873443 
L 442.904016 332.385152 
L 443.123648 470.063863 
L 443.34328 498.775638 
L 443.562913 358.209061 
L 443.782545 311.3803 
L 444.002177 385.22306 
L 444.221809 385.004425 
L 444.441442 544.078854 
L 444.661074 375.991014 
L 444.880706 421.469124 
L 445.100339 442.663594 
L 445.319971 323.422899 
L 445.539603 368.75908 
L 445.759235 330.401005 
L 445.978868 421.350734 
L 446.1985 295.260505 
L 446.418132 454.832675 
L 446.637765 442.781439 
L 446.857397 415.418537 
L 447.077029 305.133919 
L 447.296661 384.007756 
L 447.516294 342.259397 
L 447.735926 375.765124 
L 447.955558 379.404137 
L 448.175191 479.703043 
L 448.394823 339.572571 
L 448.614455 448.285556 
L 448.834087 408.840415 
L 449.05372 418.427835 
L 449.273352 373.791793 
L 449.492984 290.919568 
L 449.712617 365.381483 
L 449.932249 359.475825 
L 450.151881 426.87494 
L 450.371513 370.046372 
L 450.591146 383.130016 
L 450.810778 349.333187 
L 451.03041 265.431126 
L 451.250043 491.578595 
L 451.469675 345.415437 
L 451.689307 373.710668 
L 451.908939 479.757166 
L 452.128572 444.469256 
L 452.348204 328.277162 
L 452.787469 417.236251 
L 453.007101 290.491726 
L 453.226733 422.048405 
L 453.446365 349.742502 
L 453.665998 370.092703 
L 453.88563 351.983607 
L 454.105262 366.335023 
L 454.324895 440.755663 
L 454.544527 428.198465 
L 454.764159 265.610616 
L 454.983791 371.880424 
L 455.203424 410.753516 
L 455.423056 365.020475 
L 455.642688 358.205748 
L 455.862321 474.629783 
L 456.081953 420.263067 
L 456.301585 439.000941 
L 456.521217 430.49171 
L 456.74085 316.742013 
L 456.960482 331.676196 
L 457.399746 451.838951 
L 457.619379 333.783508 
L 457.839011 376.898279 
L 458.278276 352.20001 
L 458.497908 415.783067 
L 458.71754 400.527424 
L 458.937172 403.578666 
L 459.156805 327.660804 
L 459.376437 476.284244 
L 459.596069 382.213993 
L 459.815702 386.384623 
L 460.035334 416.181797 
L 460.254966 404.604234 
L 460.474598 482.587467 
L 460.694231 475.02876 
L 460.913863 323.356303 
L 461.353128 463.135215 
L 461.57276 372.238462 
L 461.792392 347.388656 
L 462.012024 359.310576 
L 462.231657 341.250295 
L 462.670921 424.788185 
L 462.890554 329.451913 
L 463.110186 330.948503 
L 463.329818 318.079711 
L 463.769083 397.392057 
L 463.988715 360.464973 
L 464.208347 418.327904 
L 464.42798 353.089482 
L 464.647612 454.899147 
L 464.867244 200.123347 
L 465.086876 403.900867 
L 465.306509 403.287122 
L 465.526141 423.082488 
L 465.745773 410.322714 
L 465.965406 455.568153 
L 466.185038 344.490873 
L 466.40467 308.652532 
L 466.624302 499.140097 
L 467.063567 414.52178 
L 467.283199 445.192398 
L 467.502832 375.111174 
L 467.722464 358.995884 
L 467.942096 314.845759 
L 468.161728 353.160936 
L 468.381361 426.212693 
L 468.600993 287.97506 
L 468.820625 426.960539 
L 469.040258 396.749053 
L 469.25989 327.984664 
L 469.479522 352.515735 
L 469.699154 363.222107 
L 469.918787 388.086984 
L 470.138419 355.063643 
L 470.358051 354.167553 
L 470.577684 494.145424 
L 470.797316 412.058376 
L 471.016948 399.130443 
L 471.23658 403.689879 
L 471.456213 458.503007 
L 471.675845 422.223555 
L 471.895477 421.547959 
L 472.11511 387.115044 
L 472.334742 409.828647 
L 472.554374 453.620615 
L 472.993639 411.012748 
L 473.213271 477.99447 
L 473.432903 473.747226 
L 473.652535 351.872332 
L 474.0918 370.237065 
L 474.311432 378.922059 
L 474.531065 340.757943 
L 474.750697 414.319887 
L 474.970329 377.424626 
L 475.189961 365.774115 
L 475.409594 398.494676 
L 475.629226 294.474946 
L 476.068491 417.165438 
L 476.288123 369.566341 
L 476.507755 406.416487 
L 476.727387 360.11423 
L 477.166652 489.718546 
L 477.386284 444.194767 
L 477.605917 346.71825 
L 477.825549 360.723634 
L 478.045181 225.573335 
L 478.484446 426.041172 
L 478.704078 384.733114 
L 478.92371 452.719046 
L 479.143343 267.720306 
L 479.362975 402.89839 
L 479.582607 412.930871 
L 479.802239 408.467518 
L 480.021872 485.266989 
L 480.241504 374.952078 
L 480.461136 358.814304 
L 480.680769 284.667252 
L 480.900401 372.751147 
L 481.120033 335.298143 
L 481.339665 457.106065 
L 481.559298 451.425938 
L 481.77893 340.594881 
L 481.998562 467.597542 
L 482.218195 351.974035 
L 482.437827 353.912807 
L 482.657459 351.920071 
L 482.877091 445.386168 
L 483.096724 371.203688 
L 483.316356 408.680814 
L 483.535988 324.103695 
L 483.755621 421.703504 
L 483.975253 265.750954 
L 484.194885 484.429467 
L 484.414517 485.218112 
L 484.63415 419.970718 
L 484.853782 489.213025 
L 485.073414 329.323402 
L 485.293047 441.994354 
L 485.512679 427.095332 
L 485.732311 434.587071 
L 485.951943 401.175687 
L 486.171576 423.22941 
L 486.391208 333.658715 
L 486.61084 424.156466 
L 486.830473 313.168501 
L 487.050105 426.976465 
L 487.269737 430.947407 
L 487.489369 288.240721 
L 487.709002 386.772187 
L 488.148266 362.149118 
L 488.367898 322.224632 
L 488.807163 485.228752 
L 489.026795 369.270783 
L 489.246428 372.392365 
L 489.46606 304.084093 
L 489.685692 422.996355 
L 489.905324 216.756565 
L 490.124957 503.115642 
L 490.344589 300.735839 
L 490.564221 396.970179 
L 490.783854 414.987273 
L 491.003486 391.153764 
L 491.44275 485.740004 
L 491.662383 420.404763 
L 491.882015 251.696788 
L 492.32128 463.261802 
L 492.540912 380.782696 
L 492.980176 491.270295 
L 493.199809 425.222556 
L 493.419441 459.478974 
L 493.639073 443.249644 
L 493.858706 303.817761 
L 494.078338 287.962807 
L 494.29797 358.291994 
L 494.517602 376.270634 
L 494.737235 265.760388 
L 494.956867 429.349834 
L 495.176499 422.915804 
L 495.396132 234.802921 
L 495.615764 483.944781 
L 495.835396 412.412912 
L 496.055028 454.875555 
L 496.713925 299.921516 
L 496.933558 370.705621 
L 497.15319 309.460496 
L 497.592454 471.246323 
L 497.812087 412.75045 
L 498.031719 495.211573 
L 498.251351 357.50286 
L 498.470984 499.764721 
L 498.910248 410.893361 
L 499.12988 439.411542 
L 499.349513 373.037008 
L 499.569145 365.454804 
L 499.788777 339.37733 
L 500.00841 380.385549 
L 500.228042 377.560518 
L 500.447674 380.267206 
L 500.667306 507.01438 
L 500.886939 447.948501 
L 501.106571 454.988281 
L 501.326203 438.899563 
L 501.545836 362.93307 
L 501.765468 371.474006 
L 501.9851 352.287238 
L 502.204732 381.990837 
L 502.424365 380.414727 
L 502.643997 423.778985 
L 502.863629 398.02319 
L 503.083262 323.664616 
L 503.302894 499.902963 
L 503.522526 464.256181 
L 503.742158 323.537171 
L 503.961791 412.814669 
L 504.181423 401.448177 
L 504.401055 378.469006 
L 504.620687 466.875769 
L 504.84032 406.536779 
L 505.059952 418.001255 
L 505.279584 335.202762 
L 505.499217 444.109128 
L 505.718849 490.54815 
L 505.938481 379.827799 
L 506.158113 443.174028 
L 506.377746 362.95089 
L 506.597378 361.460433 
L 506.81701 366.36251 
L 507.036643 345.82022 
L 507.256275 490.025422 
L 507.475907 316.32568 
L 507.695539 465.73929 
L 508.134804 430.816012 
L 508.354436 411.963227 
L 508.574069 310.534577 
L 508.793701 432.270765 
L 509.232965 317.110204 
L 509.452598 432.906358 
L 509.67223 406.224235 
L 509.891862 431.835764 
L 510.111495 334.506278 
L 510.331127 431.252963 
L 510.550759 427.618815 
L 510.770391 351.314239 
L 510.990024 355.850326 
L 511.209656 451.937396 
L 511.429288 437.533035 
L 511.648921 348.40706 
L 511.868553 326.225262 
L 512.088185 403.785371 
L 512.307817 334.812438 
L 512.747082 544.65906 
L 512.966714 413.571957 
L 513.186347 368.824424 
L 513.405979 372.588601 
L 513.625611 333.128557 
L 513.845243 414.272504 
L 514.064876 354.83472 
L 514.284508 244.5513 
L 514.50414 457.127528 
L 514.723773 437.360314 
L 514.943405 402.504581 
L 515.163037 321.831317 
L 515.382669 377.781154 
L 515.602302 495.962439 
L 515.821934 350.536784 
L 516.041566 475.377721 
L 516.261199 422.148243 
L 516.480831 463.857215 
L 516.700463 440.849849 
L 516.920095 313.735124 
L 517.139728 368.97877 
L 517.35936 323.335247 
L 517.578992 424.931235 
L 517.798625 433.266693 
L 518.018257 480.834432 
L 518.237889 365.122831 
L 518.457521 477.915353 
L 518.677154 415.195885 
L 518.896786 450.625572 
L 519.116418 322.415021 
L 519.33605 460.956783 
L 519.555683 410.64362 
L 519.775315 410.851721 
L 519.994947 364.240514 
L 520.21458 444.468572 
L 520.434212 429.714676 
L 520.653844 372.190456 
L 520.873476 428.997394 
L 521.093109 351.697826 
L 521.532373 516.954263 
L 521.752006 402.396403 
L 521.971638 399.014688 
L 522.19127 501.355371 
L 522.410902 395.079001 
L 522.630535 447.260933 
L 522.850167 418.037897 
L 523.069799 326.734649 
L 523.289432 412.625129 
L 523.509064 381.944382 
L 524.167961 459.432722 
L 524.607225 319.274979 
L 524.826858 353.147986 
L 525.04649 350.64026 
L 525.266122 406.783661 
L 525.485754 432.440353 
L 525.705387 321.062332 
L 525.925019 336.929506 
L 526.364284 508.877948 
L 526.583916 318.068475 
L 526.803548 395.078657 
L 527.02318 421.991772 
L 527.242813 286.785098 
L 527.462445 383.935805 
L 527.682077 376.373369 
L 527.90171 319.722391 
L 528.121342 448.911424 
L 528.340974 306.764488 
L 528.560606 491.847908 
L 528.780239 377.398101 
L 528.999871 424.834598 
L 529.219503 387.517952 
L 529.439136 321.626744 
L 529.658768 469.463259 
L 529.8784 462.350761 
L 530.098032 375.943414 
L 530.756929 506.697732 
L 530.976562 370.143867 
L 531.196194 344.110118 
L 531.415826 350.83397 
L 531.635458 333.035387 
L 531.855091 299.736768 
L 532.074723 310.375475 
L 532.294355 345.407285 
L 532.513988 268.231491 
L 532.73362 400.862875 
L 532.953252 411.790624 
L 533.172884 404.587867 
L 533.392517 423.977301 
L 533.612149 330.540825 
L 534.271046 394.359834 
L 534.490678 491.32381 
L 534.71031 468.182514 
L 534.929943 428.524093 
L 535.149575 313.844196 
L 535.369207 408.996246 
L 535.588839 433.688676 
L 535.808472 372.149309 
L 536.028104 435.338124 
L 536.247736 264.488809 
L 536.687001 294.352724 
L 536.906633 352.084302 
L 537.126265 450.747858 
L 537.345898 455.804329 
L 537.56553 498.951035 
L 537.785162 441.255453 
L 538.004795 420.637865 
L 538.224427 536.714404 
L 538.444059 310.470814 
L 538.663691 248.734135 
L 538.883324 408.881272 
L 539.102956 300.111919 
L 539.322588 406.421673 
L 539.542221 357.220392 
L 539.761853 371.953301 
L 540.201117 423.546418 
L 540.42075 363.744233 
L 540.640382 441.010224 
L 540.860014 391.27892 
L 541.079647 455.997899 
L 541.299279 481.790217 
L 541.518911 461.166292 
L 541.738543 296.744786 
L 541.958176 430.554767 
L 542.177808 305.075332 
L 542.39744 420.134906 
L 542.617073 419.0723 
L 542.836705 327.338159 
L 543.056337 428.909213 
L 543.275969 298.931433 
L 543.495602 361.786923 
L 543.715234 355.185568 
L 543.934866 468.983572 
L 544.154499 455.138038 
L 544.374131 461.213434 
L 544.593763 361.51069 
L 544.813395 400.456807 
L 545.033028 384.430836 
L 545.25266 377.572737 
L 545.472292 346.482372 
L 545.691925 417.733211 
L 545.911557 355.093612 
L 545.911557 355.093612 
" style="fill:none;stroke:#96c69a;stroke-linecap:round;stroke-width:3;"/>
   </g>
   <g id="line2d_2"/>
   <g id="patch_3">
    <path d="M 84.914375 602.94 
L 84.914375 109.326857 
" style="fill:none;stroke:#262626;stroke-linecap:square;stroke-linejoin:miter;stroke-width:2.5;"/>
   </g>
   <g id="patch_4">
    <path d="M 84.914375 602.94 
L 567.863804 602.94 
" style="fill:none;stroke:#262626;stroke-linecap:square;stroke-linejoin:miter;stroke-width:2.5;"/>
   </g>
   <g id="legend_1">
    <g id="patch_5">
     <path d="M 514.948179 597.94 
L 560.863804 597.94 
Q 562.863804 597.94 562.863804 595.94 
L 562.863804 554.034375 
Q 562.863804 552.034375 560.863804 552.034375 
L 514.948179 552.034375 
Q 512.948179 552.034375 512.948179 554.034375 
L 512.948179 595.94 
Q 512.948179 597.94 514.948179 597.94 
z
" style="fill:#ffffff;opacity:0.8;stroke:#cccccc;stroke-linejoin:miter;stroke-width:2;"/>
    </g>
    <g id="text_16">
     <!-- $n_\tau$ -->
     <g style="fill:#262626;" transform="translate(524.825991 574.270625)scale(0.24 -0.24)">
      <defs>
       <path d="M 3566 2113 
L 3156 0 
L 2578 0 
L 2988 2091 
Q 3016 2238 3031 2350 
Q 3047 2463 3047 2528 
Q 3047 2791 2881 2937 
Q 2716 3084 2419 3084 
Q 1956 3084 1622 2776 
Q 1288 2469 1184 1941 
L 800 0 
L 225 0 
L 903 3500 
L 1478 3500 
L 1363 2950 
Q 1603 3253 1940 3418 
Q 2278 3584 2650 3584 
Q 3113 3584 3367 3334 
Q 3622 3084 3622 2631 
Q 3622 2519 3608 2391 
Q 3594 2263 3566 2113 
z
" id="DejaVuSans-Oblique-6e" transform="scale(0.015625)"/>
       <path d="M 2103 638 
Q 2188 488 2525 488 
L 2800 488 
L 2706 0 
L 2363 0 
Q 1800 0 1600 300 
Q 1403 606 1534 1269 
L 1856 2925 
L 541 2925 
L 653 3500 
L 3881 3500 
L 3769 2925 
L 2444 2925 
L 2113 1234 
Q 2025 781 2103 638 
z
" id="DejaVuSans-Oblique-3c4" transform="scale(0.015625)"/>
      </defs>
      <use xlink:href="#DejaVuSans-Oblique-6e"/>
      <use transform="translate(63.378906 -16.40625)scale(0.7)" xlink:href="#DejaVuSans-Oblique-3c4"/>
     </g>
    </g>
    <g id="line2d_3">
     <path d="M 516.948179 588.360312 
L 536.948179 588.360312 
" style="fill:none;stroke:#96c69a;stroke-linecap:round;stroke-width:3;"/>
    </g>
    <g id="line2d_4"/>
    <g id="text_17">
     <!-- 25 -->
     <g style="fill:#262626;" transform="translate(544.948179 591.860312)scale(0.1 -0.1)">
      <defs>
       <path d="M 1844 884 
L 3897 884 
L 3897 0 
L 506 0 
L 506 884 
L 2209 2388 
Q 2438 2594 2547 2791 
Q 2656 2988 2656 3200 
Q 2656 3528 2436 3728 
Q 2216 3928 1850 3928 
Q 1569 3928 1234 3808 
Q 900 3688 519 3450 
L 519 4475 
Q 925 4609 1322 4679 
Q 1719 4750 2100 4750 
Q 2938 4750 3402 4381 
Q 3866 4013 3866 3353 
Q 3866 2972 3669 2642 
Q 3472 2313 2841 1759 
L 1844 884 
z
" id="DejaVuSans-Bold-32" transform="scale(0.015625)"/>
       <path d="M 678 4666 
L 3669 4666 
L 3669 3781 
L 1638 3781 
L 1638 3059 
Q 1775 3097 1914 3117 
Q 2053 3138 2203 3138 
Q 3056 3138 3531 2711 
Q 4006 2284 4006 1522 
Q 4006 766 3489 337 
Q 2972 -91 2053 -91 
Q 1656 -91 1267 -14 
Q 878 63 494 219 
L 494 1166 
Q 875 947 1217 837 
Q 1559 728 1863 728 
Q 2300 728 2551 942 
Q 2803 1156 2803 1522 
Q 2803 1891 2551 2103 
Q 2300 2316 1863 2316 
Q 1603 2316 1309 2248 
Q 1016 2181 678 2041 
L 678 4666 
z
" id="DejaVuSans-Bold-35" transform="scale(0.015625)"/>
      </defs>
      <use xlink:href="#DejaVuSans-Bold-32"/>
      <use x="69.580078" xlink:href="#DejaVuSans-Bold-35"/>
     </g>
    </g>
   </g>
  </g>
  <g id="axes_2">
   <g id="patch_6">
    <path d="M 84.914375 92.305714 
L 567.863804 92.305714 
L 567.863804 7.2 
L 84.914375 7.2 
z
" style="fill:none;"/>
   </g>
   <g id="matplotlib.axis_3">
    <g id="xtick_7"/>
    <g id="xtick_8"/>
    <g id="xtick_9"/>
    <g id="xtick_10"/>
    <g id="xtick_11"/>
    <g id="xtick_12"/>
   </g>
   <g id="matplotlib.axis_4">
    <g id="ytick_8">
     <g id="text_18">
      <!-- 0 -->
      <g style="fill:#262626;" transform="translate(55.416875 100.663996)scale(0.22 -0.22)">
       <use xlink:href="#DejaVuSans-30"/>
      </g>
     </g>
    </g>
    <g id="ytick_9">
     <g id="text_19">
      <!-- 100 -->
      <g style="fill:#262626;" transform="translate(27.421875 48.032138)scale(0.22 -0.22)">
       <use xlink:href="#DejaVuSans-31"/>
       <use x="63.623047" xlink:href="#DejaVuSans-30"/>
       <use x="127.246094" xlink:href="#DejaVuSans-30"/>
      </g>
     </g>
    </g>
   </g>
   <g id="patch_7">
    <path clip-path="url(#pa7674a23b1)" d="M 106.866622 92.305714 
L 140.639309 92.305714 
L 140.639309 11.252653 
L 106.866622 11.252653 
z
" style="fill:#96c69a;fill-opacity:0.5;stroke:#ffffff;stroke-linejoin:miter;stroke-width:2;"/>
   </g>
   <g id="patch_8">
    <path clip-path="url(#pa7674a23b1)" d="M 140.639309 92.305714 
L 174.411996 92.305714 
L 174.411996 11.252653 
L 140.639309 11.252653 
z
" style="fill:#96c69a;fill-opacity:0.5;stroke:#ffffff;stroke-linejoin:miter;stroke-width:2;"/>
   </g>
   <g id="patch_9">
    <path clip-path="url(#pa7674a23b1)" d="M 174.411996 92.305714 
L 208.184684 92.305714 
L 208.184684 11.252653 
L 174.411996 11.252653 
z
" style="fill:#96c69a;fill-opacity:0.5;stroke:#ffffff;stroke-linejoin:miter;stroke-width:2;"/>
   </g>
   <g id="patch_10">
    <path clip-path="url(#pa7674a23b1)" d="M 208.184684 92.305714 
L 241.957371 92.305714 
L 241.957371 11.252653 
L 208.184684 11.252653 
z
" style="fill:#96c69a;fill-opacity:0.5;stroke:#ffffff;stroke-linejoin:miter;stroke-width:2;"/>
   </g>
   <g id="patch_11">
    <path clip-path="url(#pa7674a23b1)" d="M 241.957371 92.305714 
L 275.730058 92.305714 
L 275.730058 11.778972 
L 241.957371 11.778972 
z
" style="fill:#96c69a;fill-opacity:0.5;stroke:#ffffff;stroke-linejoin:miter;stroke-width:2;"/>
   </g>
   <g id="patch_12">
    <path clip-path="url(#pa7674a23b1)" d="M 275.730058 92.305714 
L 309.502746 92.305714 
L 309.502746 11.252653 
L 275.730058 11.252653 
z
" style="fill:#96c69a;fill-opacity:0.5;stroke:#ffffff;stroke-linejoin:miter;stroke-width:2;"/>
   </g>
   <g id="patch_13">
    <path clip-path="url(#pa7674a23b1)" d="M 309.502746 92.305714 
L 343.275433 92.305714 
L 343.275433 11.252653 
L 309.502746 11.252653 
z
" style="fill:#96c69a;fill-opacity:0.5;stroke:#ffffff;stroke-linejoin:miter;stroke-width:2;"/>
   </g>
   <g id="patch_14">
    <path clip-path="url(#pa7674a23b1)" d="M 343.275433 92.305714 
L 377.04812 92.305714 
L 377.04812 11.252653 
L 343.275433 11.252653 
z
" style="fill:#96c69a;fill-opacity:0.5;stroke:#ffffff;stroke-linejoin:miter;stroke-width:2;"/>
   </g>
   <g id="patch_15">
    <path clip-path="url(#pa7674a23b1)" d="M 377.04812 92.305714 
L 410.820808 92.305714 
L 410.820808 11.778972 
L 377.04812 11.778972 
z
" style="fill:#96c69a;fill-opacity:0.5;stroke:#ffffff;stroke-linejoin:miter;stroke-width:2;"/>
   </g>
   <g id="patch_16">
    <path clip-path="url(#pa7674a23b1)" d="M 410.820808 92.305714 
L 444.593495 92.305714 
L 444.593495 11.252653 
L 410.820808 11.252653 
z
" style="fill:#96c69a;fill-opacity:0.5;stroke:#ffffff;stroke-linejoin:miter;stroke-width:2;"/>
   </g>
   <g id="patch_17">
    <path clip-path="url(#pa7674a23b1)" d="M 444.593495 92.305714 
L 478.366182 92.305714 
L 478.366182 11.252653 
L 444.593495 11.252653 
z
" style="fill:#96c69a;fill-opacity:0.5;stroke:#ffffff;stroke-linejoin:miter;stroke-width:2;"/>
   </g>
   <g id="patch_18">
    <path clip-path="url(#pa7674a23b1)" d="M 478.366182 92.305714 
L 512.13887 92.305714 
L 512.13887 11.252653 
L 478.366182 11.252653 
z
" style="fill:#96c69a;fill-opacity:0.5;stroke:#ffffff;stroke-linejoin:miter;stroke-width:2;"/>
   </g>
   <g id="patch_19">
    <path clip-path="url(#pa7674a23b1)" d="M 512.13887 92.305714 
L 545.911557 92.305714 
L 545.911557 11.252653 
L 512.13887 11.252653 
z
" style="fill:#96c69a;fill-opacity:0.5;stroke:#ffffff;stroke-linejoin:miter;stroke-width:2;"/>
   </g>
   <g id="patch_20">
    <path d="M 84.914375 92.305714 
L 84.914375 7.2 
" style="fill:none;stroke:#262626;stroke-linecap:square;stroke-linejoin:miter;stroke-width:2.5;"/>
   </g>
   <g id="patch_21">
    <path d="M 84.914375 92.305714 
L 567.863804 92.305714 
" style="fill:none;stroke:#262626;stroke-linecap:square;stroke-linejoin:miter;stroke-width:2.5;"/>
   </g>
  </g>
  <g id="axes_3">
   <g id="patch_22">
    <path d="M 584.517232 602.94 
L 667.784375 602.94 
L 667.784375 109.326857 
L 584.517232 109.326857 
z
" style="fill:none;"/>
   </g>
   <g id="matplotlib.axis_5">
    <g id="xtick_13">
     <g id="text_20">
      <!-- 0 -->
      <g style="fill:#262626;" transform="translate(577.518482 635.156562)scale(0.22 -0.22)">
       <use xlink:href="#DejaVuSans-30"/>
      </g>
     </g>
    </g>
    <g id="xtick_14">
     <g id="text_21">
      <!-- 100 -->
      <g style="fill:#262626;" transform="translate(608.57896 635.156562)scale(0.22 -0.22)">
       <use xlink:href="#DejaVuSans-31"/>
       <use x="63.623047" xlink:href="#DejaVuSans-30"/>
       <use x="127.246094" xlink:href="#DejaVuSans-30"/>
      </g>
     </g>
    </g>
   </g>
   <g id="matplotlib.axis_6">
    <g id="ytick_10"/>
    <g id="ytick_11"/>
    <g id="ytick_12"/>
    <g id="ytick_13"/>
    <g id="ytick_14"/>
    <g id="ytick_15"/>
    <g id="ytick_16"/>
   </g>
   <g id="patch_23">
    <path clip-path="url(#p7f56a7161e)" d="M 584.517232 580.503039 
L 585.418392 580.503039 
L 585.418392 568.038061 
L 584.517232 568.038061 
z
" style="fill:#96c69a;fill-opacity:0.5;stroke:#ffffff;stroke-linejoin:miter;stroke-width:1.246498;"/>
   </g>
   <g id="patch_24">
    <path clip-path="url(#p7f56a7161e)" d="M 584.517232 568.038061 
L 584.967812 568.038061 
L 584.967812 555.573082 
L 584.517232 555.573082 
z
" style="fill:#96c69a;fill-opacity:0.5;stroke:#ffffff;stroke-linejoin:miter;stroke-width:1.246498;"/>
   </g>
   <g id="patch_25">
    <path clip-path="url(#p7f56a7161e)" d="M 584.517232 555.573082 
L 585.418392 555.573082 
L 585.418392 543.108104 
L 584.517232 543.108104 
z
" style="fill:#96c69a;fill-opacity:0.5;stroke:#ffffff;stroke-linejoin:miter;stroke-width:1.246498;"/>
   </g>
   <g id="patch_26">
    <path clip-path="url(#p7f56a7161e)" d="M 584.517232 543.108104 
L 586.319551 543.108104 
L 586.319551 530.643126 
L 584.517232 530.643126 
z
" style="fill:#96c69a;fill-opacity:0.5;stroke:#ffffff;stroke-linejoin:miter;stroke-width:1.246498;"/>
   </g>
   <g id="patch_27">
    <path clip-path="url(#p7f56a7161e)" d="M 584.517232 530.643126 
L 588.57245 530.643126 
L 588.57245 518.178147 
L 584.517232 518.178147 
z
" style="fill:#96c69a;fill-opacity:0.5;stroke:#ffffff;stroke-linejoin:miter;stroke-width:1.246498;"/>
   </g>
   <g id="patch_28">
    <path clip-path="url(#p7f56a7161e)" d="M 584.517232 518.178147 
L 591.275929 518.178147 
L 591.275929 505.713169 
L 584.517232 505.713169 
z
" style="fill:#96c69a;fill-opacity:0.5;stroke:#ffffff;stroke-linejoin:miter;stroke-width:1.246498;"/>
   </g>
   <g id="patch_29">
    <path clip-path="url(#p7f56a7161e)" d="M 584.517232 505.713169 
L 598.485205 505.713169 
L 598.485205 493.24819 
L 584.517232 493.24819 
z
" style="fill:#96c69a;fill-opacity:0.5;stroke:#ffffff;stroke-linejoin:miter;stroke-width:1.246498;"/>
   </g>
   <g id="patch_30">
    <path clip-path="url(#p7f56a7161e)" d="M 584.517232 493.24819 
L 609.29912 493.24819 
L 609.29912 480.783212 
L 584.517232 480.783212 
z
" style="fill:#96c69a;fill-opacity:0.5;stroke:#ffffff;stroke-linejoin:miter;stroke-width:1.246498;"/>
   </g>
   <g id="patch_31">
    <path clip-path="url(#p7f56a7161e)" d="M 584.517232 480.783212 
L 611.552019 480.783212 
L 611.552019 468.318234 
L 584.517232 468.318234 
z
" style="fill:#96c69a;fill-opacity:0.5;stroke:#ffffff;stroke-linejoin:miter;stroke-width:1.246498;"/>
   </g>
   <g id="patch_32">
    <path clip-path="url(#p7f56a7161e)" d="M 584.517232 468.318234 
L 621.915354 468.318234 
L 621.915354 455.853255 
L 584.517232 455.853255 
z
" style="fill:#96c69a;fill-opacity:0.5;stroke:#ffffff;stroke-linejoin:miter;stroke-width:1.246498;"/>
   </g>
   <g id="patch_33">
    <path clip-path="url(#p7f56a7161e)" d="M 584.517232 455.853255 
L 635.432747 455.853255 
L 635.432747 443.388277 
L 584.517232 443.388277 
z
" style="fill:#96c69a;fill-opacity:0.5;stroke:#ffffff;stroke-linejoin:miter;stroke-width:1.246498;"/>
   </g>
   <g id="patch_34">
    <path clip-path="url(#p7f56a7161e)" d="M 584.517232 443.388277 
L 649.40072 443.388277 
L 649.40072 430.923299 
L 584.517232 430.923299 
z
" style="fill:#96c69a;fill-opacity:0.5;stroke:#ffffff;stroke-linejoin:miter;stroke-width:1.246498;"/>
   </g>
   <g id="patch_35">
    <path clip-path="url(#p7f56a7161e)" d="M 584.517232 430.923299 
L 660.214635 430.923299 
L 660.214635 418.45832 
L 584.517232 418.45832 
z
" style="fill:#96c69a;fill-opacity:0.5;stroke:#ffffff;stroke-linejoin:miter;stroke-width:1.246498;"/>
   </g>
   <g id="patch_36">
    <path clip-path="url(#p7f56a7161e)" d="M 584.517232 418.45832 
L 662.918113 418.45832 
L 662.918113 405.993342 
L 584.517232 405.993342 
z
" style="fill:#96c69a;fill-opacity:0.5;stroke:#ffffff;stroke-linejoin:miter;stroke-width:1.246498;"/>
   </g>
   <g id="patch_37">
    <path clip-path="url(#p7f56a7161e)" d="M 584.517232 405.993342 
L 657.961736 405.993342 
L 657.961736 393.528364 
L 584.517232 393.528364 
z
" style="fill:#96c69a;fill-opacity:0.5;stroke:#ffffff;stroke-linejoin:miter;stroke-width:1.246498;"/>
   </g>
   <g id="patch_38">
    <path clip-path="url(#p7f56a7161e)" d="M 584.517232 393.528364 
L 651.203039 393.528364 
L 651.203039 381.063385 
L 584.517232 381.063385 
z
" style="fill:#96c69a;fill-opacity:0.5;stroke:#ffffff;stroke-linejoin:miter;stroke-width:1.246498;"/>
   </g>
   <g id="patch_39">
    <path clip-path="url(#p7f56a7161e)" d="M 584.517232 381.063385 
L 663.819273 381.063385 
L 663.819273 368.598407 
L 584.517232 368.598407 
z
" style="fill:#96c69a;fill-opacity:0.5;stroke:#ffffff;stroke-linejoin:miter;stroke-width:1.246498;"/>
   </g>
   <g id="patch_40">
    <path clip-path="url(#p7f56a7161e)" d="M 584.517232 368.598407 
L 641.740864 368.598407 
L 641.740864 356.133429 
L 584.517232 356.133429 
z
" style="fill:#96c69a;fill-opacity:0.5;stroke:#ffffff;stroke-linejoin:miter;stroke-width:1.246498;"/>
   </g>
   <g id="patch_41">
    <path clip-path="url(#p7f56a7161e)" d="M 584.517232 356.133429 
L 642.191444 356.133429 
L 642.191444 343.66845 
L 584.517232 343.66845 
z
" style="fill:#96c69a;fill-opacity:0.5;stroke:#ffffff;stroke-linejoin:miter;stroke-width:1.246498;"/>
   </g>
   <g id="patch_42">
    <path clip-path="url(#p7f56a7161e)" d="M 584.517232 343.66845 
L 630.02579 343.66845 
L 630.02579 331.203472 
L 584.517232 331.203472 
z
" style="fill:#96c69a;fill-opacity:0.5;stroke:#ffffff;stroke-linejoin:miter;stroke-width:1.246498;"/>
   </g>
   <g id="patch_43">
    <path clip-path="url(#p7f56a7161e)" d="M 584.517232 331.203472 
L 629.57521 331.203472 
L 629.57521 318.738494 
L 584.517232 318.738494 
z
" style="fill:#96c69a;fill-opacity:0.5;stroke:#ffffff;stroke-linejoin:miter;stroke-width:1.246498;"/>
   </g>
   <g id="patch_44">
    <path clip-path="url(#p7f56a7161e)" d="M 584.517232 318.738494 
L 609.29912 318.738494 
L 609.29912 306.273515 
L 584.517232 306.273515 
z
" style="fill:#96c69a;fill-opacity:0.5;stroke:#ffffff;stroke-linejoin:miter;stroke-width:1.246498;"/>
   </g>
   <g id="patch_45">
    <path clip-path="url(#p7f56a7161e)" d="M 584.517232 306.273515 
L 604.342742 306.273515 
L 604.342742 293.808537 
L 584.517232 293.808537 
z
" style="fill:#96c69a;fill-opacity:0.5;stroke:#ffffff;stroke-linejoin:miter;stroke-width:1.246498;"/>
   </g>
   <g id="patch_46">
    <path clip-path="url(#p7f56a7161e)" d="M 584.517232 293.808537 
L 598.485205 293.808537 
L 598.485205 281.343558 
L 584.517232 281.343558 
z
" style="fill:#96c69a;fill-opacity:0.5;stroke:#ffffff;stroke-linejoin:miter;stroke-width:1.246498;"/>
   </g>
   <g id="patch_47">
    <path clip-path="url(#p7f56a7161e)" d="M 584.517232 281.343558 
L 592.177088 281.343558 
L 592.177088 268.87858 
L 584.517232 268.87858 
z
" style="fill:#96c69a;fill-opacity:0.5;stroke:#ffffff;stroke-linejoin:miter;stroke-width:1.246498;"/>
   </g>
   <g id="patch_48">
    <path clip-path="url(#p7f56a7161e)" d="M 584.517232 268.87858 
L 593.979407 268.87858 
L 593.979407 256.413602 
L 584.517232 256.413602 
z
" style="fill:#96c69a;fill-opacity:0.5;stroke:#ffffff;stroke-linejoin:miter;stroke-width:1.246498;"/>
   </g>
   <g id="patch_49">
    <path clip-path="url(#p7f56a7161e)" d="M 584.517232 256.413602 
L 588.12187 256.413602 
L 588.12187 243.948623 
L 584.517232 243.948623 
z
" style="fill:#96c69a;fill-opacity:0.5;stroke:#ffffff;stroke-linejoin:miter;stroke-width:1.246498;"/>
   </g>
   <g id="patch_50">
    <path clip-path="url(#p7f56a7161e)" d="M 584.517232 243.948623 
L 587.671291 243.948623 
L 587.671291 231.483645 
L 584.517232 231.483645 
z
" style="fill:#96c69a;fill-opacity:0.5;stroke:#ffffff;stroke-linejoin:miter;stroke-width:1.246498;"/>
   </g>
   <g id="patch_51">
    <path clip-path="url(#p7f56a7161e)" d="M 584.517232 231.483645 
L 585.418392 231.483645 
L 585.418392 219.018667 
L 584.517232 219.018667 
z
" style="fill:#96c69a;fill-opacity:0.5;stroke:#ffffff;stroke-linejoin:miter;stroke-width:1.246498;"/>
   </g>
   <g id="patch_52">
    <path clip-path="url(#p7f56a7161e)" d="M 584.517232 219.018667 
L 585.868971 219.018667 
L 585.868971 206.553688 
L 584.517232 206.553688 
z
" style="fill:#96c69a;fill-opacity:0.5;stroke:#ffffff;stroke-linejoin:miter;stroke-width:1.246498;"/>
   </g>
   <g id="patch_53">
    <path clip-path="url(#p7f56a7161e)" d="M 584.517232 206.553688 
L 587.220711 206.553688 
L 587.220711 194.08871 
L 584.517232 194.08871 
z
" style="fill:#96c69a;fill-opacity:0.5;stroke:#ffffff;stroke-linejoin:miter;stroke-width:1.246498;"/>
   </g>
   <g id="patch_54">
    <path clip-path="url(#p7f56a7161e)" d="M 584.517232 194.08871 
L 584.967812 194.08871 
L 584.967812 181.623732 
L 584.517232 181.623732 
z
" style="fill:#96c69a;fill-opacity:0.5;stroke:#ffffff;stroke-linejoin:miter;stroke-width:1.246498;"/>
   </g>
   <g id="patch_55">
    <path clip-path="url(#p7f56a7161e)" d="M 584.517232 181.623732 
L 584.517232 181.623732 
L 584.517232 169.158753 
L 584.517232 169.158753 
z
" style="fill:#96c69a;fill-opacity:0.5;stroke:#ffffff;stroke-linejoin:miter;stroke-width:1.246498;"/>
   </g>
   <g id="patch_56">
    <path clip-path="url(#p7f56a7161e)" d="M 584.517232 169.158753 
L 584.517232 169.158753 
L 584.517232 156.693775 
L 584.517232 156.693775 
z
" style="fill:#96c69a;fill-opacity:0.5;stroke:#ffffff;stroke-linejoin:miter;stroke-width:1.246498;"/>
   </g>
   <g id="patch_57">
    <path clip-path="url(#p7f56a7161e)" d="M 584.517232 156.693775 
L 584.517232 156.693775 
L 584.517232 144.228797 
L 584.517232 144.228797 
z
" style="fill:#96c69a;fill-opacity:0.5;stroke:#ffffff;stroke-linejoin:miter;stroke-width:1.246498;"/>
   </g>
   <g id="patch_58">
    <path clip-path="url(#p7f56a7161e)" d="M 584.517232 144.228797 
L 584.967812 144.228797 
L 584.967812 131.763818 
L 584.517232 131.763818 
z
" style="fill:#96c69a;fill-opacity:0.5;stroke:#ffffff;stroke-linejoin:miter;stroke-width:1.246498;"/>
   </g>
   <g id="patch_59">
    <path d="M 584.517232 602.94 
L 584.517232 109.326857 
" style="fill:none;stroke:#262626;stroke-linecap:square;stroke-linejoin:miter;stroke-width:2.5;"/>
   </g>
   <g id="patch_60">
    <path d="M 584.517232 602.94 
L 667.784375 602.94 
" style="fill:none;stroke:#262626;stroke-linecap:square;stroke-linejoin:miter;stroke-width:2.5;"/>
   </g>
  </g>
 </g>
 <defs>
  <clipPath id="p8c4e8c81c3">
   <rect height="493.613143" width="482.949429" x="84.914375" y="109.326857"/>
  </clipPath>
  <clipPath id="pa7674a23b1">
   <rect height="85.105714" width="482.949429" x="84.914375" y="7.2"/>
  </clipPath>
  <clipPath id="p7f56a7161e">
   <rect height="493.613143" width="83.267143" x="584.517232" y="109.326857"/>
  </clipPath>
 </defs>
</svg>
