<?xml version="1.0" encoding="utf-8" standalone="no"?>
<!DOCTYPE svg PUBLIC "-//W3C//DTD SVG 1.1//EN"
  "http://www.w3.org/Graphics/SVG/1.1/DTD/svg11.dtd">
<svg height="674.159375pt" version="1.1" viewBox="0 0 674.984375 674.159375" width="674.984375pt" xmlns="http://www.w3.org/2000/svg" xmlns:xlink="http://www.w3.org/1999/xlink">
 <metadata>
  <rdf:RDF xmlns:cc="http://creativecommons.org/ns#" xmlns:dc="http://purl.org/dc/elements/1.1/" xmlns:rdf="http://www.w3.org/1999/02/22-rdf-syntax-ns#">
   <cc:Work>
    <dc:type rdf:resource="http://purl.org/dc/dcmitype/StillImage"/>
    <dc:date>2021-07-24T14:58:23.037359</dc:date>
    <dc:format>image/svg+xml</dc:format>
    <dc:creator>
     <cc:Agent>
      <dc:title>Matplotlib v3.4.2, https://matplotlib.org/</dc:title>
     </cc:Agent>
    </dc:creator>
   </cc:Work>
  </rdf:RDF>
 </metadata>
 <defs>
  <style type="text/css">*{stroke-linecap:butt;stroke-linejoin:round;}</style>
 </defs>
 <g id="figure_1">
  <g id="patch_1">
   <path d="M 0 674.159375 
L 674.984375 674.159375 
L 674.984375 0 
L 0 0 
z
" style="fill:#ffffff;"/>
  </g>
  <g id="axes_1">
   <g id="patch_2">
    <path d="M 84.914375 602.94 
L 567.863804 602.94 
L 567.863804 109.326857 
L 84.914375 109.326857 
z
" style="fill:none;"/>
   </g>
   <g id="matplotlib.axis_1">
    <g id="xtick_1">
     <g id="text_1">
      <!-- 0 -->
      <g style="fill:#262626;" transform="translate(99.648239 635.156562)scale(0.22 -0.22)">
       <defs>
        <path d="M 2034 4250 
Q 1547 4250 1301 3770 
Q 1056 3291 1056 2328 
Q 1056 1369 1301 889 
Q 1547 409 2034 409 
Q 2525 409 2770 889 
Q 3016 1369 3016 2328 
Q 3016 3291 2770 3770 
Q 2525 4250 2034 4250 
z
M 2034 4750 
Q 2819 4750 3233 4129 
Q 3647 3509 3647 2328 
Q 3647 1150 3233 529 
Q 2819 -91 2034 -91 
Q 1250 -91 836 529 
Q 422 1150 422 2328 
Q 422 3509 836 4129 
Q 1250 4750 2034 4750 
z
" id="DejaVuSans-30" transform="scale(0.015625)"/>
       </defs>
       <use xlink:href="#DejaVuSans-30"/>
      </g>
     </g>
    </g>
    <g id="xtick_2">
     <g id="text_2">
      <!-- 20000 -->
      <g style="fill:#262626;" transform="translate(159.506153 635.156562)scale(0.22 -0.22)">
       <defs>
        <path d="M 1228 531 
L 3431 531 
L 3431 0 
L 469 0 
L 469 531 
Q 828 903 1448 1529 
Q 2069 2156 2228 2338 
Q 2531 2678 2651 2914 
Q 2772 3150 2772 3378 
Q 2772 3750 2511 3984 
Q 2250 4219 1831 4219 
Q 1534 4219 1204 4116 
Q 875 4013 500 3803 
L 500 4441 
Q 881 4594 1212 4672 
Q 1544 4750 1819 4750 
Q 2544 4750 2975 4387 
Q 3406 4025 3406 3419 
Q 3406 3131 3298 2873 
Q 3191 2616 2906 2266 
Q 2828 2175 2409 1742 
Q 1991 1309 1228 531 
z
" id="DejaVuSans-32" transform="scale(0.015625)"/>
       </defs>
       <use xlink:href="#DejaVuSans-32"/>
       <use x="63.623047" xlink:href="#DejaVuSans-30"/>
       <use x="127.246094" xlink:href="#DejaVuSans-30"/>
       <use x="190.869141" xlink:href="#DejaVuSans-30"/>
       <use x="254.492188" xlink:href="#DejaVuSans-30"/>
      </g>
     </g>
    </g>
    <g id="xtick_3">
     <g id="text_3">
      <!-- 40000 -->
      <g style="fill:#262626;" transform="translate(247.359066 635.156562)scale(0.22 -0.22)">
       <defs>
        <path d="M 2419 4116 
L 825 1625 
L 2419 1625 
L 2419 4116 
z
M 2253 4666 
L 3047 4666 
L 3047 1625 
L 3713 1625 
L 3713 1100 
L 3047 1100 
L 3047 0 
L 2419 0 
L 2419 1100 
L 313 1100 
L 313 1709 
L 2253 4666 
z
" id="DejaVuSans-34" transform="scale(0.015625)"/>
       </defs>
       <use xlink:href="#DejaVuSans-34"/>
       <use x="63.623047" xlink:href="#DejaVuSans-30"/>
       <use x="127.246094" xlink:href="#DejaVuSans-30"/>
       <use x="190.869141" xlink:href="#DejaVuSans-30"/>
       <use x="254.492188" xlink:href="#DejaVuSans-30"/>
      </g>
     </g>
    </g>
    <g id="xtick_4">
     <g id="text_4">
      <!-- 60000 -->
      <g style="fill:#262626;" transform="translate(335.21198 635.156562)scale(0.22 -0.22)">
       <defs>
        <path d="M 2113 2584 
Q 1688 2584 1439 2293 
Q 1191 2003 1191 1497 
Q 1191 994 1439 701 
Q 1688 409 2113 409 
Q 2538 409 2786 701 
Q 3034 994 3034 1497 
Q 3034 2003 2786 2293 
Q 2538 2584 2113 2584 
z
M 3366 4563 
L 3366 3988 
Q 3128 4100 2886 4159 
Q 2644 4219 2406 4219 
Q 1781 4219 1451 3797 
Q 1122 3375 1075 2522 
Q 1259 2794 1537 2939 
Q 1816 3084 2150 3084 
Q 2853 3084 3261 2657 
Q 3669 2231 3669 1497 
Q 3669 778 3244 343 
Q 2819 -91 2113 -91 
Q 1303 -91 875 529 
Q 447 1150 447 2328 
Q 447 3434 972 4092 
Q 1497 4750 2381 4750 
Q 2619 4750 2861 4703 
Q 3103 4656 3366 4563 
z
" id="DejaVuSans-36" transform="scale(0.015625)"/>
       </defs>
       <use xlink:href="#DejaVuSans-36"/>
       <use x="63.623047" xlink:href="#DejaVuSans-30"/>
       <use x="127.246094" xlink:href="#DejaVuSans-30"/>
       <use x="190.869141" xlink:href="#DejaVuSans-30"/>
       <use x="254.492188" xlink:href="#DejaVuSans-30"/>
      </g>
     </g>
    </g>
    <g id="xtick_5">
     <g id="text_5">
      <!-- 80000 -->
      <g style="fill:#262626;" transform="translate(423.064893 635.156562)scale(0.22 -0.22)">
       <defs>
        <path d="M 2034 2216 
Q 1584 2216 1326 1975 
Q 1069 1734 1069 1313 
Q 1069 891 1326 650 
Q 1584 409 2034 409 
Q 2484 409 2743 651 
Q 3003 894 3003 1313 
Q 3003 1734 2745 1975 
Q 2488 2216 2034 2216 
z
M 1403 2484 
Q 997 2584 770 2862 
Q 544 3141 544 3541 
Q 544 4100 942 4425 
Q 1341 4750 2034 4750 
Q 2731 4750 3128 4425 
Q 3525 4100 3525 3541 
Q 3525 3141 3298 2862 
Q 3072 2584 2669 2484 
Q 3125 2378 3379 2068 
Q 3634 1759 3634 1313 
Q 3634 634 3220 271 
Q 2806 -91 2034 -91 
Q 1263 -91 848 271 
Q 434 634 434 1313 
Q 434 1759 690 2068 
Q 947 2378 1403 2484 
z
M 1172 3481 
Q 1172 3119 1398 2916 
Q 1625 2713 2034 2713 
Q 2441 2713 2670 2916 
Q 2900 3119 2900 3481 
Q 2900 3844 2670 4047 
Q 2441 4250 2034 4250 
Q 1625 4250 1398 4047 
Q 1172 3844 1172 3481 
z
" id="DejaVuSans-38" transform="scale(0.015625)"/>
       </defs>
       <use xlink:href="#DejaVuSans-38"/>
       <use x="63.623047" xlink:href="#DejaVuSans-30"/>
       <use x="127.246094" xlink:href="#DejaVuSans-30"/>
       <use x="190.869141" xlink:href="#DejaVuSans-30"/>
       <use x="254.492188" xlink:href="#DejaVuSans-30"/>
      </g>
     </g>
    </g>
    <g id="xtick_6">
     <g id="text_6">
      <!-- 100000 -->
      <g style="fill:#262626;" transform="translate(503.919057 635.156562)scale(0.22 -0.22)">
       <defs>
        <path d="M 794 531 
L 1825 531 
L 1825 4091 
L 703 3866 
L 703 4441 
L 1819 4666 
L 2450 4666 
L 2450 531 
L 3481 531 
L 3481 0 
L 794 0 
L 794 531 
z
" id="DejaVuSans-31" transform="scale(0.015625)"/>
       </defs>
       <use xlink:href="#DejaVuSans-31"/>
       <use x="63.623047" xlink:href="#DejaVuSans-30"/>
       <use x="127.246094" xlink:href="#DejaVuSans-30"/>
       <use x="190.869141" xlink:href="#DejaVuSans-30"/>
       <use x="254.492188" xlink:href="#DejaVuSans-30"/>
       <use x="318.115234" xlink:href="#DejaVuSans-30"/>
      </g>
     </g>
    </g>
    <g id="text_7">
     <!-- MDTU -->
     <g style="fill:#262626;" transform="translate(290.683464 661.968125)scale(0.24 -0.24)">
      <defs>
       <path d="M 628 4666 
L 1569 4666 
L 2759 1491 
L 3956 4666 
L 4897 4666 
L 4897 0 
L 4281 0 
L 4281 4097 
L 3078 897 
L 2444 897 
L 1241 4097 
L 1241 0 
L 628 0 
L 628 4666 
z
" id="DejaVuSans-4d" transform="scale(0.015625)"/>
       <path d="M 1259 4147 
L 1259 519 
L 2022 519 
Q 2988 519 3436 956 
Q 3884 1394 3884 2338 
Q 3884 3275 3436 3711 
Q 2988 4147 2022 4147 
L 1259 4147 
z
M 628 4666 
L 1925 4666 
Q 3281 4666 3915 4102 
Q 4550 3538 4550 2338 
Q 4550 1131 3912 565 
Q 3275 0 1925 0 
L 628 0 
L 628 4666 
z
" id="DejaVuSans-44" transform="scale(0.015625)"/>
       <path d="M -19 4666 
L 3928 4666 
L 3928 4134 
L 2272 4134 
L 2272 0 
L 1638 0 
L 1638 4134 
L -19 4134 
L -19 4666 
z
" id="DejaVuSans-54" transform="scale(0.015625)"/>
       <path d="M 556 4666 
L 1191 4666 
L 1191 1831 
Q 1191 1081 1462 751 
Q 1734 422 2344 422 
Q 2950 422 3222 751 
Q 3494 1081 3494 1831 
L 3494 4666 
L 4128 4666 
L 4128 1753 
Q 4128 841 3676 375 
Q 3225 -91 2344 -91 
Q 1459 -91 1007 375 
Q 556 841 556 1753 
L 556 4666 
z
" id="DejaVuSans-55" transform="scale(0.015625)"/>
      </defs>
      <use xlink:href="#DejaVuSans-4d"/>
      <use x="86.279297" xlink:href="#DejaVuSans-44"/>
      <use x="163.28125" xlink:href="#DejaVuSans-54"/>
      <use x="224.365234" xlink:href="#DejaVuSans-55"/>
     </g>
    </g>
   </g>
   <g id="matplotlib.axis_2">
    <g id="ytick_1">
     <g id="text_8">
      <!-- 0.4 -->
      <g style="fill:#262626;" transform="translate(34.4275 602.839955)scale(0.22 -0.22)">
       <defs>
        <path d="M 684 794 
L 1344 794 
L 1344 0 
L 684 0 
L 684 794 
z
" id="DejaVuSans-2e" transform="scale(0.015625)"/>
       </defs>
       <use xlink:href="#DejaVuSans-30"/>
       <use x="63.623047" xlink:href="#DejaVuSans-2e"/>
       <use x="95.410156" xlink:href="#DejaVuSans-34"/>
      </g>
     </g>
    </g>
    <g id="ytick_2">
     <g id="text_9">
      <!-- 0.6 -->
      <g style="fill:#262626;" transform="translate(34.4275 531.067545)scale(0.22 -0.22)">
       <use xlink:href="#DejaVuSans-30"/>
       <use x="63.623047" xlink:href="#DejaVuSans-2e"/>
       <use x="95.410156" xlink:href="#DejaVuSans-36"/>
      </g>
     </g>
    </g>
    <g id="ytick_3">
     <g id="text_10">
      <!-- 0.8 -->
      <g style="fill:#262626;" transform="translate(34.4275 459.295135)scale(0.22 -0.22)">
       <use xlink:href="#DejaVuSans-30"/>
       <use x="63.623047" xlink:href="#DejaVuSans-2e"/>
       <use x="95.410156" xlink:href="#DejaVuSans-38"/>
      </g>
     </g>
    </g>
    <g id="ytick_4">
     <g id="text_11">
      <!-- 1.0 -->
      <g style="fill:#262626;" transform="translate(34.4275 387.522725)scale(0.22 -0.22)">
       <use xlink:href="#DejaVuSans-31"/>
       <use x="63.623047" xlink:href="#DejaVuSans-2e"/>
       <use x="95.410156" xlink:href="#DejaVuSans-30"/>
      </g>
     </g>
    </g>
    <g id="ytick_5">
     <g id="text_12">
      <!-- 1.2 -->
      <g style="fill:#262626;" transform="translate(34.4275 315.750314)scale(0.22 -0.22)">
       <use xlink:href="#DejaVuSans-31"/>
       <use x="63.623047" xlink:href="#DejaVuSans-2e"/>
       <use x="95.410156" xlink:href="#DejaVuSans-32"/>
      </g>
     </g>
    </g>
    <g id="ytick_6">
     <g id="text_13">
      <!-- 1.4 -->
      <g style="fill:#262626;" transform="translate(34.4275 243.977904)scale(0.22 -0.22)">
       <use xlink:href="#DejaVuSans-31"/>
       <use x="63.623047" xlink:href="#DejaVuSans-2e"/>
       <use x="95.410156" xlink:href="#DejaVuSans-34"/>
      </g>
     </g>
    </g>
    <g id="ytick_7">
     <g id="text_14">
      <!-- 1.6 -->
      <g style="fill:#262626;" transform="translate(34.4275 172.205494)scale(0.22 -0.22)">
       <use xlink:href="#DejaVuSans-31"/>
       <use x="63.623047" xlink:href="#DejaVuSans-2e"/>
       <use x="95.410156" xlink:href="#DejaVuSans-36"/>
      </g>
     </g>
    </g>
    <g id="text_15">
     <!-- $E$ -->
     <g style="fill:#262626;" transform="translate(25.43625 363.813429)rotate(-90)scale(0.24 -0.24)">
      <defs>
       <path d="M 1081 4666 
L 4031 4666 
L 3928 4134 
L 1606 4134 
L 1338 2753 
L 3566 2753 
L 3463 2222 
L 1234 2222 
L 909 531 
L 3284 531 
L 3181 0 
L 172 0 
L 1081 4666 
z
" id="DejaVuSans-Oblique-45" transform="scale(0.015625)"/>
      </defs>
      <use transform="translate(0 0.09375)" xlink:href="#DejaVuSans-Oblique-45"/>
     </g>
    </g>
   </g>
   <g id="line2d_1">
    <path clip-path="url(#pb0ed6069df)" d="M 106.866622 232.678272 
L 107.086254 460.420272 
L 107.305886 409.77993 
L 107.745151 486.590228 
L 108.184415 313.225303 
L 108.404048 433.771518 
L 108.62368 277.728701 
L 108.843312 244.362892 
L 109.062945 373.444613 
L 109.282577 376.455537 
L 109.502209 416.178978 
L 109.721841 405.393758 
L 109.941474 313.250407 
L 110.600371 522.612271 
L 111.4789 431.281011 
L 111.698532 487.585956 
L 111.918164 473.260053 
L 112.137797 477.78433 
L 112.357429 405.673104 
L 112.577061 400.449845 
L 112.796693 489.594299 
L 113.016326 390.947125 
L 113.45559 445.01408 
L 113.675223 346.874899 
L 113.894855 441.802718 
L 114.114487 409.934379 
L 114.553752 465.89654 
L 114.773384 458.092207 
L 114.993016 338.218332 
L 115.212649 381.744979 
L 115.432281 377.874088 
L 115.651913 436.330135 
L 116.091178 248.209394 
L 116.530442 471.539766 
L 116.750075 435.05833 
L 116.969707 322.644493 
L 117.189339 339.769306 
L 117.408971 431.754871 
L 117.628604 466.166586 
L 117.848236 450.818132 
L 118.067868 474.22211 
L 118.287501 445.194138 
L 118.507133 537.008059 
L 118.726765 467.665873 
L 118.946397 478.838712 
L 119.16603 394.08278 
L 119.385662 398.696163 
L 119.605294 379.943426 
L 119.824926 377.018192 
L 120.044559 356.664478 
L 120.264191 447.918216 
L 120.483823 452.022306 
L 120.703456 447.409765 
L 120.923088 536.655737 
L 121.14272 396.234161 
L 121.362352 154.757867 
L 121.581985 387.177799 
L 121.801617 409.223968 
L 122.240882 308.817221 
L 122.460514 420.28539 
L 122.680146 291.189003 
L 122.899778 240.212859 
L 123.339043 523.239374 
L 123.558675 358.712508 
L 123.778308 434.495317 
L 123.99794 459.002616 
L 124.217572 406.397 
L 124.437204 441.34312 
L 124.656837 431.687768 
L 124.876469 442.722509 
L 125.096101 439.113179 
L 125.315734 370.191026 
L 125.535366 356.098508 
L 125.754998 390.356555 
L 125.97463 486.094614 
L 126.194263 354.003578 
L 126.413895 342.499645 
L 126.633527 412.300844 
L 126.85316 317.378371 
L 127.072792 394.533054 
L 127.292424 564.637525 
L 127.512056 425.650211 
L 127.731689 514.997279 
L 127.951321 467.66235 
L 128.170953 489.447732 
L 128.390586 479.379589 
L 128.610218 422.606769 
L 129.049482 470.446752 
L 129.269115 397.593206 
L 129.488747 422.279596 
L 129.708379 425.842083 
L 129.928012 471.381716 
L 130.367276 435.213413 
L 130.586908 421.356875 
L 130.806541 391.62803 
L 131.245805 484.080912 
L 131.68507 340.297738 
L 131.904702 470.640948 
L 132.124334 459.464156 
L 132.343967 361.518329 
L 132.563599 445.819956 
L 132.783231 371.995287 
L 133.222496 448.638171 
L 133.442128 371.581481 
L 133.66176 451.445238 
L 134.101025 372.09723 
L 134.320657 491.09152 
L 134.540289 401.774998 
L 134.759922 510.433448 
L 134.979554 300.354745 
L 135.199186 258.757822 
L 135.418819 467.79815 
L 135.638451 482.098182 
L 135.858083 463.790303 
L 136.077715 377.151448 
L 136.297348 463.846753 
L 136.51698 481.878088 
L 136.736612 389.802854 
L 136.956245 411.331553 
L 137.175877 406.262048 
L 137.615141 515.960243 
L 137.834774 497.688087 
L 138.054406 227.767237 
L 138.274038 448.239732 
L 138.713303 490.135277 
L 138.932935 429.320667 
L 139.152567 409.126529 
L 139.3722 491.605171 
L 139.811464 308.724139 
L 140.250729 473.075902 
L 140.470361 188.2567 
L 140.689993 370.536442 
L 140.909626 356.050347 
L 141.34889 474.31059 
L 141.568523 393.281287 
L 141.788155 490.791729 
L 142.007787 384.692541 
L 142.227419 489.495568 
L 142.447052 536.797126 
L 142.666684 438.173201 
L 142.886316 448.990078 
L 143.325581 355.190627 
L 143.545213 498.125012 
L 143.764845 455.522917 
L 143.984478 463.339087 
L 144.20411 389.159447 
L 144.643375 504.635194 
L 144.863007 367.897139 
L 145.082639 464.301579 
L 145.521904 495.073989 
L 145.741536 468.481973 
L 145.961168 355.489445 
L 146.400433 469.324665 
L 146.620065 409.827948 
L 146.839697 287.238218 
L 147.05933 447.584417 
L 147.278962 358.105392 
L 147.718227 504.835209 
L 147.937859 410.149164 
L 148.157491 414.897999 
L 148.377123 437.398588 
L 148.596756 372.579285 
L 148.816388 491.441576 
L 149.03602 515.845764 
L 149.475285 370.074811 
L 149.914549 494.415556 
L 150.134182 442.642335 
L 150.353814 428.831638 
L 150.573446 443.082033 
L 150.793078 445.715164 
L 151.012711 443.030694 
L 151.232343 507.760662 
L 151.451975 475.26641 
L 151.671608 482.449873 
L 151.89124 430.275258 
L 152.110872 323.008798 
L 152.330504 428.260695 
L 152.550137 419.217559 
L 152.769769 519.869862 
L 152.989401 523.758213 
L 153.209034 365.361901 
L 153.428666 328.736339 
L 153.648298 477.111955 
L 153.86793 263.636058 
L 154.087563 397.040933 
L 154.526827 490.230208 
L 154.74646 357.636439 
L 154.966092 487.839026 
L 155.185724 520.480932 
L 155.405356 302.217134 
L 155.624989 415.235002 
L 155.844621 423.555596 
L 156.064253 436.338974 
L 156.283886 411.009142 
L 156.503518 325.888234 
L 156.72315 319.241281 
L 156.942782 477.141112 
L 157.382047 398.597159 
L 157.601679 423.069511 
L 157.821312 287.209023 
L 158.040944 275.046826 
L 158.260576 448.497852 
L 158.480208 462.147719 
L 158.699841 459.095161 
L 159.139105 294.960944 
L 159.57837 400.39927 
L 159.798002 361.335586 
L 160.017634 458.423794 
L 160.237267 392.317175 
L 160.676531 335.464767 
L 161.115796 522.47104 
L 161.335428 398.44013 
L 161.774693 464.572701 
L 161.994325 486.911504 
L 162.213957 238.806786 
L 162.43359 513.847425 
L 162.653222 336.535368 
L 162.872854 432.1537 
L 163.092486 262.521884 
L 163.312119 505.691557 
L 163.531751 506.821948 
L 163.751383 392.980501 
L 163.971016 452.882579 
L 164.190648 355.709851 
L 164.41028 437.509105 
L 164.629912 348.350891 
L 164.849545 364.195797 
L 165.069177 523.772447 
L 165.508441 456.771882 
L 165.728074 456.267986 
L 165.947706 472.59788 
L 166.386971 382.241031 
L 166.606603 415.242237 
L 166.826235 520.058065 
L 167.045867 303.482397 
L 167.2655 499.821391 
L 167.485132 523.410928 
L 167.924397 393.75196 
L 168.144029 470.617419 
L 168.363661 422.467846 
L 168.583293 522.835117 
L 168.802926 437.337945 
L 169.022558 466.964503 
L 169.24219 354.207991 
L 169.461823 397.69632 
L 169.681455 467.345969 
L 169.901087 277.489505 
L 170.120719 422.433887 
L 170.559984 519.09575 
L 170.779616 490.299442 
L 170.999249 429.985048 
L 171.218881 507.414968 
L 171.438513 365.080227 
L 171.658145 432.016355 
L 171.877778 399.965735 
L 172.09741 553.541811 
L 172.317042 269.739232 
L 172.536675 283.772881 
L 172.756307 462.466392 
L 172.975939 436.442394 
L 173.195571 372.179545 
L 173.634836 500.19074 
L 174.074101 356.535961 
L 174.293733 400.030222 
L 174.513365 415.530077 
L 174.732997 403.410371 
L 174.95263 342.442042 
L 175.172262 352.66923 
L 175.611527 533.28189 
L 175.831159 340.83353 
L 176.050791 295.892461 
L 176.270423 488.766884 
L 176.490056 402.23155 
L 176.709688 496.411189 
L 176.92932 511.8794 
L 177.148953 371.250814 
L 177.368585 410.434467 
L 177.588217 428.761872 
L 177.807849 410.101263 
L 178.027482 338.154576 
L 178.247114 432.752669 
L 178.466746 406.502868 
L 178.686379 422.111331 
L 178.906011 406.825451 
L 179.125643 432.572673 
L 179.345275 404.056754 
L 179.564908 529.814684 
L 179.78454 178.58484 
L 180.004172 508.963286 
L 180.223805 415.604949 
L 180.663069 548.561505 
L 180.882701 455.046864 
L 181.102334 452.625333 
L 181.321966 346.279734 
L 181.541598 370.093942 
L 181.76123 509.155378 
L 181.980863 343.667699 
L 182.200495 430.89622 
L 182.420127 463.475034 
L 182.63976 393.673585 
L 182.859392 445.566536 
L 183.079024 366.960865 
L 183.298656 430.503762 
L 183.518289 315.478026 
L 183.737921 425.61848 
L 183.957553 419.321606 
L 184.177186 321.26635 
L 184.396818 465.227541 
L 184.61645 397.549587 
L 184.836082 417.2624 
L 185.055715 292.568142 
L 185.275347 496.996043 
L 185.714612 459.178628 
L 185.934244 404.100041 
L 186.153876 403.877067 
L 186.373508 443.90585 
L 186.593141 455.557421 
L 186.812773 497.952393 
L 187.032405 426.215064 
L 187.252038 423.221819 
L 187.47167 411.466543 
L 187.691302 331.203373 
L 187.910934 423.223682 
L 188.130567 413.654206 
L 188.350199 499.506064 
L 188.569831 326.145974 
L 188.789464 370.417491 
L 189.009096 378.138784 
L 189.228728 453.725273 
L 189.44836 428.817243 
L 189.667993 236.895772 
L 189.887625 455.885359 
L 190.107257 450.03823 
L 190.32689 532.811409 
L 190.546522 425.190129 
L 190.766154 394.607898 
L 190.985786 416.808728 
L 191.205419 393.916392 
L 191.644683 241.231254 
L 191.864316 465.625007 
L 192.083948 487.917879 
L 192.30358 494.166433 
L 192.523212 462.186781 
L 192.742845 412.237331 
L 192.962477 453.877319 
L 193.182109 257.54399 
L 193.401742 220.256832 
L 193.621374 435.079781 
L 193.841006 489.668479 
L 194.060638 495.891546 
L 194.280271 247.515313 
L 194.499903 381.297243 
L 194.719535 407.726523 
L 194.939168 332.941807 
L 195.1588 449.371175 
L 195.378432 342.576352 
L 195.817697 426.983275 
L 196.037329 418.853678 
L 196.256961 493.847887 
L 196.476593 416.693269 
L 196.696226 466.255763 
L 196.915858 414.794733 
L 197.13549 409.498131 
L 197.355123 459.97089 
L 197.574755 390.418439 
L 197.794387 425.382252 
L 198.014019 389.584658 
L 198.233652 456.831752 
L 198.672916 366.62342 
L 198.892549 463.499697 
L 199.112181 399.698105 
L 199.331813 499.723043 
L 199.771078 410.336559 
L 199.99071 453.092597 
L 200.210342 453.089562 
L 200.429975 388.629795 
L 200.869239 453.296816 
L 201.088871 462.514848 
L 201.308504 506.665385 
L 201.747768 448.874592 
L 201.967401 450.002064 
L 202.406665 386.504878 
L 202.626297 561.922293 
L 202.84593 323.438358 
L 203.065562 505.690261 
L 203.285194 302.179569 
L 203.504827 370.695825 
L 203.944091 407.357526 
L 204.163723 279.707364 
L 204.383356 389.482442 
L 204.602988 388.440951 
L 204.82262 319.283966 
L 205.042253 436.833507 
L 205.261885 368.319369 
L 205.481517 496.131908 
L 205.920782 414.672183 
L 206.140414 395.596359 
L 206.360046 328.668524 
L 206.579679 491.283878 
L 207.018943 452.395915 
L 207.238575 277.438367 
L 207.458208 464.557455 
L 207.67784 346.352855 
L 207.897472 392.659461 
L 208.117105 305.75623 
L 208.336737 510.375174 
L 208.776001 454.050145 
L 209.215266 261.365723 
L 209.434898 388.158512 
L 209.654531 430.884802 
L 209.874163 198.329851 
L 210.093795 482.059259 
L 210.313427 344.65963 
L 210.53306 521.906671 
L 210.972324 262.054256 
L 211.191956 511.716288 
L 211.631221 171.186538 
L 211.850853 379.685645 
L 212.290118 328.178206 
L 212.50975 500.897112 
L 212.729382 427.206041 
L 212.949015 263.651033 
L 213.168647 306.812887 
L 213.388279 436.863208 
L 213.607912 406.798379 
L 213.827544 478.706156 
L 214.047176 334.372474 
L 214.266808 438.623534 
L 214.486441 424.84837 
L 214.706073 463.233232 
L 214.925705 369.42539 
L 215.145338 509.501405 
L 215.36497 383.277216 
L 215.584602 442.666743 
L 215.804234 430.405723 
L 216.023867 427.271319 
L 216.463131 486.560265 
L 216.682764 524.98122 
L 216.902396 319.355035 
L 217.122028 436.844848 
L 217.34166 305.394406 
L 217.561293 340.142926 
L 217.780925 465.439943 
L 218.000557 336.403173 
L 218.22019 463.813532 
L 218.439822 480.495548 
L 218.879086 315.778549 
L 219.098719 495.008039 
L 219.537983 346.209044 
L 219.757616 378.900971 
L 219.977248 324.990033 
L 220.19688 426.911268 
L 220.416512 416.750568 
L 220.636145 397.361545 
L 221.075409 459.394969 
L 221.295042 403.167049 
L 221.514674 465.105474 
L 221.734306 343.107117 
L 221.953938 374.710924 
L 222.173571 474.516121 
L 222.393203 492.494774 
L 222.612835 359.543447 
L 222.832468 500.140627 
L 223.0521 422.744018 
L 223.271732 414.679334 
L 223.491364 527.808289 
L 223.930629 480.695334 
L 224.150261 461.540869 
L 224.369894 209.400546 
L 224.589526 382.994205 
L 225.02879 472.842749 
L 225.248423 486.415649 
L 225.468055 298.089266 
L 225.90732 462.389946 
L 226.126952 373.168467 
L 226.346584 472.440117 
L 226.566216 481.914731 
L 226.785849 344.842368 
L 227.225113 509.681007 
L 227.664378 313.744776 
L 227.88401 479.342206 
L 228.103642 514.797098 
L 228.323275 399.839116 
L 228.542907 527.07856 
L 228.762539 404.656943 
L 228.982171 448.562749 
L 229.201804 366.975293 
L 229.421436 412.385767 
L 229.641068 433.260498 
L 229.860701 345.333877 
L 230.080333 516.511569 
L 230.73923 218.603057 
L 231.178494 476.069892 
L 231.398127 495.262495 
L 231.617759 388.780272 
L 231.837391 404.856416 
L 232.057023 348.823413 
L 232.276656 485.594335 
L 232.496288 371.749163 
L 232.71592 343.125881 
L 233.155185 416.856474 
L 233.374817 349.242352 
L 233.594449 491.251794 
L 233.814082 407.513885 
L 234.033714 440.987019 
L 234.253346 322.122081 
L 234.472979 434.803609 
L 234.912243 259.514379 
L 235.131875 523.664587 
L 235.351508 479.863231 
L 235.57114 492.728157 
L 235.790772 239.886854 
L 236.010405 481.944592 
L 236.230037 404.230666 
L 236.449669 380.897765 
L 236.669301 484.055674 
L 236.888934 533.211252 
L 237.108566 528.051187 
L 237.328198 400.983949 
L 237.547831 485.74759 
L 237.767463 385.435197 
L 237.987095 336.16435 
L 238.206727 447.401936 
L 238.42636 382.229463 
L 238.645992 512.393123 
L 238.865624 426.813308 
L 239.085257 497.835648 
L 239.304889 437.653974 
L 239.524521 485.368505 
L 239.744153 374.199661 
L 239.963786 482.775015 
L 240.183418 423.810094 
L 240.40305 317.529217 
L 240.622683 393.358299 
L 240.842315 338.30474 
L 241.061947 475.985514 
L 241.281579 418.320423 
L 241.501212 441.288657 
L 241.720844 429.55716 
L 241.940476 369.99331 
L 242.160108 415.90376 
L 242.379741 393.790905 
L 242.819005 383.418488 
L 243.038638 455.744743 
L 243.25827 421.579358 
L 243.477902 454.846275 
L 243.697534 429.524566 
L 243.917167 385.764687 
L 244.136799 474.246627 
L 244.356431 448.476858 
L 244.576064 455.328913 
L 244.795696 340.540396 
L 245.015328 333.600819 
L 245.23496 453.53931 
L 245.454593 499.327241 
L 245.674225 386.409441 
L 245.893857 429.170565 
L 246.11349 370.889797 
L 246.333122 406.429024 
L 246.552754 399.114149 
L 246.772386 339.947753 
L 246.992019 456.934749 
L 247.211651 360.96044 
L 247.431283 456.662681 
L 247.650916 386.362424 
L 247.870548 546.926849 
L 248.09018 405.408186 
L 248.309812 395.774181 
L 248.529445 539.953401 
L 248.749077 441.990326 
L 248.968709 415.737951 
L 249.188342 473.672637 
L 249.407974 405.338418 
L 249.627606 417.503221 
L 249.847238 501.161539 
L 250.066871 453.813023 
L 250.286503 293.365915 
L 250.506135 419.184116 
L 250.725768 347.681902 
L 250.9454 463.399112 
L 251.165032 443.203264 
L 251.384664 440.404684 
L 251.604297 255.627462 
L 251.823929 488.3833 
L 252.043561 362.547303 
L 252.263194 422.554373 
L 252.482826 290.485203 
L 252.702458 441.008556 
L 252.92209 417.984294 
L 253.361355 262.023344 
L 253.580987 487.39239 
L 253.80062 464.93205 
L 254.239884 291.119284 
L 254.459516 493.453287 
L 254.898781 368.127127 
L 255.118413 464.079323 
L 255.338046 409.272931 
L 255.557678 530.915855 
L 255.77731 409.782299 
L 255.996942 557.376193 
L 256.216575 412.021345 
L 256.436207 421.684698 
L 256.655839 515.212587 
L 256.875472 394.473904 
L 257.095104 389.336595 
L 257.314736 462.64311 
L 257.534368 492.068321 
L 257.754001 457.89238 
L 257.973633 353.686561 
L 258.193265 363.063462 
L 258.412897 394.994929 
L 258.63253 464.28307 
L 258.852162 326.936393 
L 259.071794 339.832931 
L 259.511059 529.596034 
L 259.950323 339.55617 
L 260.169956 452.065149 
L 260.389588 310.455971 
L 260.60922 398.283444 
L 260.828853 427.372464 
L 261.048485 420.770453 
L 261.268117 489.777674 
L 261.487749 285.358276 
L 261.707382 395.383019 
L 261.927014 375.338981 
L 262.146646 447.253409 
L 262.366279 288.387332 
L 262.585911 416.098343 
L 262.805543 392.199094 
L 263.025175 386.741395 
L 263.244808 461.946172 
L 263.46444 424.039445 
L 263.684072 405.682142 
L 263.903705 361.375361 
L 264.123337 440.516021 
L 264.342969 199.818742 
L 264.562601 506.682853 
L 264.782234 365.528092 
L 265.001866 516.01462 
L 265.221498 406.226215 
L 265.441131 372.399693 
L 265.660763 469.307177 
L 265.880395 367.24934 
L 266.100027 419.552796 
L 266.31966 441.21498 
L 266.539292 413.457181 
L 266.758924 580.503039 
L 266.978557 438.735636 
L 267.198189 459.729786 
L 267.417821 400.825941 
L 267.637453 381.785893 
L 267.857086 451.76742 
L 268.076718 358.460856 
L 268.29635 469.911022 
L 268.515983 275.06359 
L 268.735615 434.359736 
L 268.955247 394.38872 
L 269.174879 433.241422 
L 269.394512 409.822273 
L 269.614144 413.380377 
L 269.833776 423.795553 
L 270.053409 515.140691 
L 270.273041 396.615048 
L 270.712305 521.498327 
L 271.371202 297.027652 
L 271.590835 390.14585 
L 271.810467 413.403714 
L 272.030099 497.135248 
L 272.249731 327.722182 
L 272.469364 504.671641 
L 272.688996 443.023845 
L 272.908628 266.732032 
L 273.347893 502.507564 
L 273.567525 413.179234 
L 273.787157 489.65572 
L 274.00679 494.657237 
L 274.446054 492.551416 
L 274.665686 523.440804 
L 274.885319 328.533667 
L 275.104951 395.572294 
L 275.324583 321.270974 
L 275.763848 420.24939 
L 275.98348 393.954568 
L 276.203112 453.032646 
L 276.422745 436.273377 
L 276.862009 361.178336 
L 277.081642 391.679628 
L 277.301274 467.007457 
L 277.740538 422.508571 
L 277.960171 478.542736 
L 278.179803 308.461834 
L 278.399435 527.392858 
L 278.8387 276.673163 
L 279.058332 433.8227 
L 279.277964 372.858809 
L 279.497597 471.568882 
L 279.717229 297.673183 
L 279.936861 421.754576 
L 280.156494 440.788701 
L 280.376126 424.024001 
L 280.595758 421.712703 
L 280.81539 406.718811 
L 281.035023 480.763472 
L 281.254655 465.856492 
L 281.474287 345.371547 
L 281.69392 319.55444 
L 281.913552 460.785709 
L 282.133184 512.704357 
L 282.352816 371.731657 
L 282.792081 455.86873 
L 283.011713 436.115858 
L 283.231346 550.677789 
L 283.67061 349.360781 
L 283.890242 478.09232 
L 284.109875 461.308166 
L 284.329507 472.97995 
L 284.549139 311.012443 
L 284.988404 479.246321 
L 285.208036 505.793332 
L 285.427668 458.941779 
L 285.647301 448.708487 
L 285.866933 287.010217 
L 286.086565 419.4545 
L 286.306198 451.002954 
L 286.52583 393.218433 
L 286.965094 338.283118 
L 287.184727 312.609864 
L 287.404359 220.709363 
L 287.623991 253.480141 
L 287.843624 416.606844 
L 288.063256 485.291923 
L 288.50252 427.598633 
L 288.722153 297.2167 
L 288.941785 472.743952 
L 289.161417 499.233412 
L 289.381049 311.074896 
L 289.600682 271.402073 
L 289.820314 399.986202 
L 290.039946 406.94202 
L 290.259579 386.875127 
L 290.479211 421.148663 
L 290.698843 429.838157 
L 290.918475 342.54304 
L 291.35774 462.365012 
L 291.577372 321.276104 
L 291.797005 496.450171 
L 292.016637 496.774177 
L 292.236269 495.583097 
L 292.455901 344.217512 
L 292.895166 484.282057 
L 293.114798 468.699801 
L 293.334431 285.436437 
L 293.554063 325.575156 
L 293.993327 461.948285 
L 294.21296 395.373567 
L 294.432592 508.115225 
L 294.652224 473.865259 
L 294.871857 353.54479 
L 295.091489 500.715335 
L 295.311121 281.343132 
L 295.750386 535.477121 
L 295.970018 362.874773 
L 296.18965 372.352376 
L 296.409283 514.079643 
L 296.628915 474.812787 
L 296.848547 468.890191 
L 297.068179 456.61947 
L 297.507444 333.145931 
L 297.727076 531.665693 
L 298.166341 407.836536 
L 298.385973 465.199352 
L 298.605605 574.665365 
L 298.825238 474.26015 
L 299.04487 440.819892 
L 299.264502 436.766369 
L 299.484135 487.521638 
L 299.703767 439.930096 
L 299.923399 467.75471 
L 300.143031 443.588397 
L 300.362664 511.152457 
L 300.582296 497.009652 
L 300.801928 265.39007 
L 301.021561 315.08968 
L 301.241193 294.243213 
L 301.460825 471.124613 
L 301.680457 333.663454 
L 301.90009 489.067971 
L 302.119722 299.572441 
L 302.339354 504.265972 
L 302.558987 367.6694 
L 302.778619 341.926142 
L 302.998251 491.428071 
L 303.217883 519.170829 
L 303.437516 431.857893 
L 303.657148 431.145058 
L 303.87678 442.783694 
L 304.096412 551.777176 
L 304.316045 312.737034 
L 304.755309 444.487013 
L 304.974942 365.893808 
L 305.194574 450.092154 
L 305.414206 340.322419 
L 305.633838 457.838265 
L 305.853471 403.931001 
L 306.073103 418.420689 
L 306.292735 441.851618 
L 306.512368 510.47836 
L 306.732 457.949486 
L 306.951632 476.088467 
L 307.171264 469.66946 
L 307.390897 447.866066 
L 307.830161 281.669314 
L 308.049794 311.695434 
L 308.269426 255.021638 
L 308.70869 530.53322 
L 308.928323 445.645564 
L 309.147955 520.533211 
L 309.367587 312.620992 
L 309.58722 388.03227 
L 309.806852 329.458563 
L 310.026484 195.551663 
L 310.246116 436.170349 
L 310.465749 519.585528 
L 310.685381 537.619094 
L 310.905013 313.444075 
L 311.124646 227.92301 
L 311.344278 239.868541 
L 311.56391 243.997868 
L 311.783542 485.400228 
L 312.222807 441.183514 
L 312.442439 392.368341 
L 312.662072 469.188503 
L 312.881704 366.574022 
L 313.101336 317.301532 
L 313.320968 381.955615 
L 313.540601 499.734246 
L 313.979865 308.330672 
L 314.199498 231.681912 
L 314.41913 419.046545 
L 314.638762 385.021241 
L 314.858394 318.74909 
L 315.078027 461.317273 
L 315.297659 169.405646 
L 315.517291 477.642458 
L 315.736924 446.162785 
L 315.956556 443.622395 
L 316.176188 393.591903 
L 316.39582 276.029725 
L 316.615453 308.283327 
L 317.054717 469.849255 
L 317.27435 353.854442 
L 317.493982 131.763818 
L 317.713614 435.142169 
L 318.152879 481.886018 
L 318.372511 343.308525 
L 318.592143 471.921628 
L 318.811775 486.243324 
L 319.031408 486.888686 
L 319.25104 352.267239 
L 319.470672 431.557308 
L 319.690305 458.992834 
L 319.909937 438.656301 
L 320.129569 266.652621 
L 320.349201 449.532658 
L 320.568834 423.315405 
L 320.788466 422.091059 
L 321.008098 437.738222 
L 321.227731 392.465471 
L 321.447363 412.973664 
L 321.666995 415.664702 
L 321.886627 513.767124 
L 322.10626 395.086357 
L 322.325892 435.95882 
L 322.545524 424.957041 
L 322.765157 492.71479 
L 322.984789 364.36084 
L 323.204421 506.279232 
L 323.643686 368.468234 
L 323.863318 449.445095 
L 324.302583 328.720988 
L 324.522215 477.982679 
L 324.741847 400.447715 
L 324.961479 539.375416 
L 325.181112 393.528346 
L 325.400744 505.122001 
L 325.840009 275.793683 
L 326.059641 423.248769 
L 326.279273 457.236321 
L 326.498905 350.731103 
L 326.718538 386.311432 
L 326.93817 499.530424 
L 327.157802 474.399945 
L 327.377435 392.974559 
L 327.597067 448.086993 
L 327.816699 474.030909 
L 328.036331 386.188965 
L 328.255964 459.312543 
L 328.475596 478.679486 
L 328.695228 346.795893 
L 328.914861 330.14798 
L 329.134493 470.83508 
L 329.354125 427.839486 
L 329.573757 457.671305 
L 330.013022 308.074496 
L 330.232654 366.33166 
L 330.452287 248.761931 
L 330.671919 359.997656 
L 330.891551 387.282983 
L 331.111183 392.464808 
L 331.330816 436.10848 
L 331.550448 442.883121 
L 331.77008 298.879857 
L 332.209345 413.845093 
L 332.428977 372.026766 
L 332.868242 398.138344 
L 333.087874 449.213324 
L 333.307506 325.02066 
L 333.527139 371.353208 
L 333.746771 261.08299 
L 333.966403 475.556342 
L 334.186035 422.183013 
L 334.405668 276.063087 
L 334.6253 548.075287 
L 334.844932 412.098167 
L 335.064564 465.917876 
L 335.284197 551.329672 
L 335.503829 436.287604 
L 335.723461 400.968872 
L 335.943094 388.642318 
L 336.162726 490.232162 
L 336.382358 402.264754 
L 336.60199 415.694741 
L 336.821623 316.692381 
L 337.041255 309.37696 
L 337.260887 458.812794 
L 337.700152 295.386348 
L 337.919784 367.415251 
L 338.139416 508.304242 
L 338.359049 464.615855 
L 338.578681 545.517633 
L 338.798313 412.809596 
L 339.237578 375.346929 
L 339.45721 469.866924 
L 339.676842 427.844723 
L 339.896475 221.902644 
L 340.116107 445.676631 
L 340.555372 357.030381 
L 340.994636 435.443796 
L 341.214268 410.319006 
L 341.433901 370.486993 
L 341.653533 390.107073 
L 341.873165 494.724822 
L 342.092798 452.215498 
L 342.31243 542.789091 
L 342.532062 439.563394 
L 342.751694 399.181854 
L 342.971327 263.709489 
L 343.190959 358.778512 
L 343.410591 522.372996 
L 343.849856 421.307367 
L 344.069488 370.806008 
L 344.28912 437.034714 
L 344.508753 342.660837 
L 344.728385 473.673134 
L 344.948017 483.454111 
L 345.16765 445.255119 
L 345.387282 524.573626 
L 345.606914 517.241526 
L 345.826546 475.395747 
L 346.265811 363.059125 
L 346.485443 351.173896 
L 346.705076 295.06138 
L 346.924708 309.562553 
L 347.363972 500.980376 
L 347.583605 452.578065 
L 347.803237 377.73977 
L 348.022869 350.311572 
L 348.462134 486.741224 
L 348.681766 446.051778 
L 348.901398 384.148007 
L 349.121031 269.536695 
L 349.340663 445.626614 
L 349.560295 458.198974 
L 349.779927 249.872175 
L 349.99956 408.238726 
L 350.219192 462.133066 
L 350.438824 364.579859 
L 350.658457 351.336721 
L 350.878089 450.657026 
L 351.317353 415.521548 
L 351.536986 445.270484 
L 351.756618 440.175072 
L 352.195883 504.464495 
L 352.415515 368.574378 
L 352.854779 519.884813 
L 353.074412 280.199655 
L 353.294044 493.328203 
L 353.513676 476.547317 
L 353.733309 318.245403 
L 353.952941 249.496737 
L 354.172573 448.113239 
L 354.392205 464.519108 
L 354.611838 490.333507 
L 354.83147 411.663636 
L 355.051102 384.786607 
L 355.270735 478.478368 
L 355.490367 314.050681 
L 355.929631 469.712581 
L 356.149264 447.298873 
L 356.368896 252.119655 
L 356.588528 308.900991 
L 356.808161 503.6842 
L 357.027793 450.982727 
L 357.467057 416.595069 
L 357.68669 523.713112 
L 358.125954 291.845126 
L 358.345587 397.167321 
L 358.565219 393.945902 
L 358.784851 455.226077 
L 359.004483 422.517366 
L 359.224116 278.090532 
L 359.443748 372.477591 
L 359.66338 410.775236 
L 359.883013 312.512773 
L 360.102645 535.939079 
L 360.761542 307.989396 
L 361.420439 543.412131 
L 361.640071 529.846934 
L 361.859703 285.092566 
L 362.079335 485.881427 
L 362.298968 389.639454 
L 362.738232 518.095962 
L 362.957865 425.762311 
L 363.177497 512.539343 
L 363.397129 314.63451 
L 363.616761 424.742149 
L 363.836394 201.414697 
L 364.056026 512.523298 
L 364.275658 474.519544 
L 364.495291 393.048059 
L 364.934555 504.625813 
L 365.154187 501.451523 
L 365.37382 335.353042 
L 365.593452 511.422754 
L 365.813084 513.658063 
L 366.032716 262.120139 
L 366.252349 444.180849 
L 366.471981 514.146969 
L 366.691613 491.240029 
L 366.911246 368.046172 
L 367.35051 467.930614 
L 367.570142 326.914953 
L 367.789775 427.917763 
L 368.009407 387.960216 
L 368.229039 242.651432 
L 368.448672 525.845658 
L 368.887936 338.785924 
L 369.107568 512.474019 
L 369.327201 368.403764 
L 369.546833 370.773876 
L 369.766465 253.024997 
L 369.986098 408.325163 
L 370.20573 380.519408 
L 370.425362 334.825047 
L 370.644994 416.480546 
L 370.864627 357.781612 
L 371.084259 453.434768 
L 371.303891 469.492698 
L 371.523524 389.832443 
L 371.743156 410.529839 
L 371.962788 305.704966 
L 372.18242 439.645465 
L 372.402053 466.749349 
L 372.841317 323.341326 
L 373.06095 445.805472 
L 373.280582 392.979836 
L 373.500214 434.652722 
L 373.719846 314.838623 
L 373.939479 436.568511 
L 374.159111 403.885256 
L 374.378743 466.376777 
L 374.598376 400.011403 
L 374.818008 436.303652 
L 375.03764 441.036893 
L 375.257272 323.673953 
L 375.476905 493.731285 
L 375.696537 575.52161 
L 375.916169 287.346585 
L 376.135802 463.234056 
L 376.355434 383.06775 
L 376.575066 481.48925 
L 376.794698 420.18634 
L 377.014331 308.814865 
L 377.233963 516.396414 
L 377.453595 354.453667 
L 377.673228 316.78185 
L 377.89286 446.507019 
L 378.112492 403.634507 
L 378.332124 241.065641 
L 378.551757 486.841264 
L 378.771389 408.94689 
L 378.991021 403.534194 
L 379.210654 451.795456 
L 379.430286 379.018496 
L 379.649918 468.141792 
L 379.86955 354.491503 
L 380.089183 459.446738 
L 380.308815 473.25622 
L 380.528447 349.973749 
L 380.748079 356.009124 
L 380.967712 399.97526 
L 381.187344 507.56886 
L 381.406976 173.705343 
L 381.626609 530.119973 
L 381.846241 269.276221 
L 382.065873 415.080109 
L 382.285505 397.236346 
L 382.505138 402.434678 
L 382.72477 444.631363 
L 382.944402 364.576437 
L 383.164035 488.462919 
L 383.383667 463.636759 
L 383.603299 506.750041 
L 384.042564 399.542338 
L 384.262196 271.083057 
L 384.481828 317.905689 
L 384.701461 486.775141 
L 384.921093 538.629804 
L 385.140725 527.710921 
L 385.360357 389.296891 
L 385.57999 347.487832 
L 385.799622 522.399716 
L 386.019254 379.653265 
L 386.238887 470.479832 
L 386.458519 453.319785 
L 386.678151 461.616373 
L 387.117416 439.22778 
L 387.337048 446.342264 
L 387.55668 419.167774 
L 387.776313 378.205408 
L 387.995945 390.714626 
L 388.215577 468.585468 
L 388.435209 419.788664 
L 388.654842 455.6254 
L 388.874474 387.351943 
L 389.313739 432.507298 
L 389.533371 391.877545 
L 389.753003 444.308476 
L 389.972635 463.845183 
L 390.192268 305.638132 
L 390.4119 420.401309 
L 390.631532 365.542695 
L 390.851165 359.682276 
L 391.070797 412.365515 
L 391.290429 426.85935 
L 391.510061 253.992305 
L 391.729694 399.422397 
L 391.949326 343.349581 
L 392.168958 200.654527 
L 392.388591 509.895569 
L 392.608223 342.149126 
L 392.827855 403.690513 
L 393.047487 287.884857 
L 393.26712 427.31052 
L 393.486752 452.076481 
L 393.706384 380.836969 
L 393.926017 427.878492 
L 394.145649 387.492344 
L 394.365281 428.465452 
L 394.584913 439.240271 
L 394.804546 442.550913 
L 395.024178 409.481068 
L 395.24381 515.690444 
L 395.463443 366.038989 
L 395.683075 376.009262 
L 395.902707 500.608663 
L 396.122339 466.950677 
L 396.341972 557.07109 
L 396.561604 402.98374 
L 396.781236 428.697173 
L 397.000868 343.392248 
L 397.220501 480.30359 
L 397.440133 494.428483 
L 398.09903 279.264187 
L 398.318662 447.231916 
L 398.538294 449.230336 
L 398.977559 274.117383 
L 399.197191 419.43978 
L 399.416824 397.352951 
L 399.636456 420.495043 
L 399.856088 417.626585 
L 400.07572 524.412315 
L 400.295353 362.37354 
L 400.514985 431.096041 
L 400.734617 357.038499 
L 400.95425 386.431496 
L 401.173882 348.115495 
L 401.393514 437.500367 
L 401.613146 458.176963 
L 401.832779 556.356922 
L 402.052411 371.496526 
L 402.272043 408.522929 
L 402.491676 419.362682 
L 402.711308 513.342936 
L 403.370205 377.344982 
L 403.589837 548.432576 
L 403.809469 387.729274 
L 404.029102 461.009837 
L 404.248734 340.083199 
L 404.468366 434.270718 
L 404.687998 341.831496 
L 404.907631 469.623775 
L 405.127263 364.976714 
L 405.346895 374.152441 
L 405.566528 420.50405 
L 405.78616 529.973834 
L 406.005792 456.028333 
L 406.225424 479.362567 
L 406.445057 451.956135 
L 406.664689 231.939873 
L 406.884321 477.827292 
L 407.103954 274.689917 
L 407.543218 511.995897 
L 407.76285 437.339035 
L 407.982483 415.313571 
L 408.202115 418.459503 
L 408.421747 470.173937 
L 408.64138 350.53732 
L 409.080644 499.393259 
L 409.300276 341.913318 
L 409.519909 379.804182 
L 409.739541 264.487982 
L 409.959173 440.281611 
L 410.178806 517.592662 
L 410.398438 467.46414 
L 410.61807 475.949054 
L 410.837702 415.159411 
L 411.057335 405.079888 
L 411.276967 402.456217 
L 411.496599 383.278685 
L 411.716231 514.395909 
L 411.935864 389.846124 
L 412.155496 441.780675 
L 412.375128 434.030534 
L 412.594761 475.613991 
L 412.814393 416.061175 
L 413.034025 542.377943 
L 413.253657 534.430605 
L 413.692922 278.24179 
L 414.132187 468.87185 
L 414.571451 341.946958 
L 414.791083 571.443857 
L 415.230348 239.367635 
L 415.44998 485.603801 
L 415.669613 493.60465 
L 415.889245 213.447462 
L 416.108877 451.167513 
L 416.328509 372.045684 
L 416.548142 428.158378 
L 416.767774 370.870357 
L 416.987406 475.426779 
L 417.207039 399.576878 
L 417.426671 484.067609 
L 417.646303 306.141396 
L 417.865935 467.476437 
L 418.085568 390.017767 
L 418.3052 421.445099 
L 418.524832 423.129482 
L 418.744465 526.106856 
L 419.403361 321.556847 
L 419.842626 493.512228 
L 420.062258 380.794428 
L 420.281891 479.381566 
L 420.501523 362.632473 
L 420.940787 426.069416 
L 421.16042 360.3927 
L 421.380052 346.230637 
L 421.599684 425.339325 
L 422.038949 273.15318 
L 422.258581 306.073266 
L 422.478213 281.219423 
L 422.697846 367.672147 
L 422.917478 301.766366 
L 423.13711 412.246643 
L 423.356743 296.593215 
L 423.576375 470.456053 
L 423.796007 489.424759 
L 424.015639 424.244822 
L 424.235272 508.299504 
L 424.674536 245.890721 
L 425.113801 462.690053 
L 425.553065 397.833076 
L 425.772698 524.887971 
L 425.99233 256.890585 
L 426.211962 393.220944 
L 426.431594 448.542987 
L 426.870859 322.520008 
L 427.090491 459.746553 
L 427.310124 354.967197 
L 427.529756 419.997789 
L 427.749388 431.614219 
L 427.96902 390.83471 
L 428.188653 310.42655 
L 428.408285 431.923004 
L 428.627917 443.678113 
L 428.84755 423.097419 
L 429.067182 492.936822 
L 429.506446 318.831846 
L 429.726079 436.535393 
L 429.945711 417.190795 
L 430.165343 499.102701 
L 430.384976 295.502498 
L 430.604608 455.057599 
L 431.043872 344.470014 
L 431.263505 391.877999 
L 431.702769 384.488526 
L 431.922402 496.561559 
L 432.361666 462.804409 
L 432.581298 427.755849 
L 432.800931 368.437639 
L 433.020563 358.237834 
L 433.240195 385.144463 
L 433.459828 356.570629 
L 433.67946 247.593044 
L 433.899092 336.101886 
L 434.338357 401.898659 
L 434.557989 429.666647 
L 434.777621 322.464348 
L 434.997254 384.813263 
L 435.436518 313.369531 
L 435.65615 408.362111 
L 435.875783 388.765506 
L 436.095415 330.157903 
L 436.315047 420.771973 
L 436.53468 371.164922 
L 436.754312 358.730982 
L 436.973944 337.356693 
L 437.413209 491.470951 
L 437.632841 317.856014 
L 437.852473 395.183855 
L 438.072106 430.521845 
L 438.291738 440.783131 
L 438.51137 468.001093 
L 438.731002 438.940113 
L 438.950635 454.973417 
L 439.170267 386.627297 
L 439.389899 458.794559 
L 439.609532 457.014441 
L 439.829164 466.772004 
L 440.048796 344.957115 
L 440.268428 501.274248 
L 440.488061 332.558579 
L 440.707693 485.373893 
L 440.927325 409.440643 
L 441.146958 284.639139 
L 441.36659 549.684175 
L 441.586222 454.928543 
L 441.805854 536.176651 
L 442.025487 403.621157 
L 442.245119 525.866668 
L 442.464751 451.808302 
L 442.684383 476.60248 
L 442.904016 397.37686 
L 443.123648 433.741705 
L 443.34328 526.7853 
L 443.562913 481.79603 
L 443.782545 376.103972 
L 444.002177 335.509342 
L 444.221809 490.336609 
L 444.661074 307.817945 
L 444.880706 392.119608 
L 445.100339 396.355348 
L 445.319971 442.497902 
L 445.539603 315.254644 
L 445.759235 311.505001 
L 445.978868 440.92292 
L 446.1985 261.612405 
L 446.418132 417.466407 
L 446.637765 473.285483 
L 446.857397 346.160636 
L 447.077029 538.760929 
L 447.296661 273.51983 
L 447.516294 444.577465 
L 447.735926 439.094432 
L 447.955558 364.325144 
L 448.175191 545.409737 
L 448.394823 414.529237 
L 448.614455 367.755503 
L 448.834087 490.031111 
L 449.05372 487.904392 
L 449.273352 529.957956 
L 449.492984 440.429016 
L 449.712617 463.062079 
L 449.932249 521.330031 
L 450.151881 432.182298 
L 450.371513 440.872708 
L 450.591146 526.147308 
L 450.810778 323.254505 
L 451.03041 479.105455 
L 451.250043 329.726019 
L 451.469675 536.374636 
L 451.689307 479.12815 
L 451.908939 320.051263 
L 452.348204 434.393167 
L 452.567836 348.753045 
L 452.787469 342.25439 
L 453.007101 520.979307 
L 453.226733 351.566449 
L 453.446365 349.261104 
L 453.665998 530.537762 
L 453.88563 441.030824 
L 454.105262 417.531368 
L 454.324895 476.808948 
L 454.544527 418.20851 
L 454.983791 251.582597 
L 455.203424 465.306398 
L 455.423056 507.564052 
L 455.642688 231.5749 
L 455.862321 443.338062 
L 456.081953 484.737442 
L 456.301585 366.512698 
L 456.521217 441.740009 
L 456.74085 233.493226 
L 457.180114 469.639864 
L 457.399746 489.320048 
L 457.619379 241.958857 
L 457.839011 476.388183 
L 458.058643 541.494585 
L 458.278276 413.755401 
L 458.497908 401.032298 
L 458.71754 432.150792 
L 458.937172 377.294797 
L 459.156805 372.008947 
L 459.376437 458.768147 
L 459.596069 487.238495 
L 459.815702 398.820026 
L 460.035334 410.104394 
L 460.254966 391.248251 
L 460.474598 483.620693 
L 460.694231 396.807804 
L 460.913863 451.056384 
L 461.133495 460.461697 
L 461.353128 397.718232 
L 461.57276 509.519574 
L 461.792392 506.297517 
L 462.231657 356.497516 
L 462.451289 408.514112 
L 462.670921 363.880161 
L 462.890554 431.796457 
L 463.110186 389.919073 
L 463.54945 476.868006 
L 463.769083 441.611727 
L 463.988715 471.116324 
L 464.208347 415.335448 
L 464.42798 498.8349 
L 464.647612 268.593661 
L 464.867244 412.46095 
L 465.086876 471.41014 
L 465.306509 363.732888 
L 465.745773 402.887836 
L 465.965406 459.084953 
L 466.185038 447.273641 
L 466.40467 356.944603 
L 466.624302 329.431986 
L 466.843935 408.132887 
L 467.063567 366.582718 
L 467.283199 458.374946 
L 467.502832 397.366345 
L 467.722464 453.663882 
L 467.942096 470.061453 
L 468.381361 295.164575 
L 468.600993 418.504349 
L 468.820625 345.729128 
L 469.040258 373.228086 
L 469.25989 496.222454 
L 469.479522 288.511829 
L 469.699154 442.64866 
L 469.918787 383.217777 
L 470.138419 447.305156 
L 470.358051 405.033755 
L 470.577684 302.583163 
L 470.797316 485.549437 
L 471.016948 437.171081 
L 471.23658 519.01414 
L 471.456213 430.392405 
L 471.675845 394.996984 
L 471.895477 446.087559 
L 472.11511 541.466943 
L 472.334742 397.44894 
L 472.554374 491.636821 
L 472.774006 399.843501 
L 472.993639 530.898782 
L 473.213271 395.654697 
L 473.432903 537.652086 
L 473.652535 476.714433 
L 473.872168 351.742748 
L 474.0918 390.55558 
L 474.311432 497.932924 
L 474.531065 334.815737 
L 474.750697 326.540624 
L 474.970329 507.711198 
L 475.189961 476.36572 
L 475.409594 379.039568 
L 475.629226 395.141505 
L 475.848858 380.078568 
L 476.068491 476.973925 
L 476.507755 384.424142 
L 476.727387 285.631164 
L 476.94702 473.260581 
L 477.166652 404.555442 
L 477.386284 518.953749 
L 477.605917 353.96718 
L 477.825549 511.909696 
L 478.045181 402.854727 
L 478.484446 499.873571 
L 478.92371 560.693974 
L 479.143343 385.876985 
L 479.362975 429.967501 
L 479.582607 392.908872 
L 479.802239 496.930077 
L 480.021872 510.062952 
L 480.241504 470.459933 
L 480.461136 347.204739 
L 480.680769 360.095427 
L 481.120033 413.490647 
L 481.339665 425.794344 
L 481.559298 323.908527 
L 481.77893 456.243805 
L 481.998562 363.054428 
L 482.218195 495.373409 
L 482.437827 264.212083 
L 482.657459 513.197724 
L 482.877091 448.508634 
L 483.096724 518.055527 
L 483.975253 249.101987 
L 484.414517 490.627153 
L 484.63415 503.073054 
L 484.853782 428.916617 
L 485.073414 449.610043 
L 485.293047 372.862973 
L 485.512679 360.262961 
L 485.732311 495.993598 
L 485.951943 440.761027 
L 486.171576 272.017058 
L 486.61084 451.395782 
L 486.830473 401.669647 
L 487.050105 475.136701 
L 487.489369 391.060262 
L 487.709002 312.539041 
L 487.928634 401.812417 
L 488.148266 541.518883 
L 488.367898 399.699746 
L 488.587531 436.683741 
L 488.807163 439.975729 
L 489.026795 449.984612 
L 489.246428 472.171359 
L 489.685692 377.498553 
L 489.905324 339.873174 
L 490.124957 273.705542 
L 490.344589 455.095458 
L 490.564221 405.19441 
L 490.783854 415.431208 
L 491.003486 344.101426 
L 491.223118 521.327927 
L 491.44275 462.840661 
L 491.662383 315.7472 
L 491.882015 449.979227 
L 492.101647 377.458942 
L 492.32128 441.258442 
L 492.760544 351.75712 
L 492.980176 327.008464 
L 493.199809 257.626164 
L 493.419441 445.638735 
L 493.639073 454.032163 
L 493.858706 443.789158 
L 494.078338 443.277489 
L 494.29797 415.45726 
L 494.517602 279.947311 
L 494.737235 416.853428 
L 494.956867 382.349298 
L 495.176499 389.69178 
L 495.396132 446.933821 
L 495.615764 454.744787 
L 495.835396 399.170976 
L 496.055028 414.967083 
L 496.274661 417.146812 
L 496.494293 267.866425 
L 496.713925 450.765946 
L 496.933558 473.854582 
L 497.15319 478.853084 
L 497.372822 419.894751 
L 497.592454 221.509777 
L 497.812087 542.219564 
L 498.031719 413.454497 
L 498.251351 410.074081 
L 498.470984 419.365734 
L 498.690616 321.439032 
L 498.910248 513.430686 
L 499.12988 434.243706 
L 499.349513 306.840165 
L 499.788777 499.478049 
L 500.00841 488.03582 
L 500.228042 376.954275 
L 500.447674 466.492658 
L 500.667306 359.394268 
L 500.886939 371.173835 
L 501.106571 467.841946 
L 501.326203 466.170554 
L 501.545836 455.287824 
L 501.765468 498.935876 
L 501.9851 356.446953 
L 502.204732 512.834054 
L 502.424365 364.887565 
L 502.863629 521.507731 
L 503.302894 341.894224 
L 503.522526 437.641989 
L 503.742158 392.662904 
L 503.961791 469.139018 
L 504.181423 394.101326 
L 504.401055 505.208886 
L 504.620687 460.794212 
L 504.84032 478.493808 
L 505.059952 351.971487 
L 505.279584 463.988175 
L 505.718849 269.049768 
L 505.938481 412.982759 
L 506.158113 431.085214 
L 506.377746 379.114327 
L 506.597378 495.044501 
L 506.81701 384.850876 
L 507.036643 446.174159 
L 507.256275 426.932321 
L 507.475907 531.651126 
L 507.695539 440.659445 
L 507.915172 461.572772 
L 508.134804 349.287274 
L 508.574069 470.92263 
L 508.793701 307.209358 
L 509.013333 434.671923 
L 509.232965 404.563472 
L 509.452598 459.782608 
L 509.67223 478.548934 
L 509.891862 523.168839 
L 510.331127 430.136747 
L 510.550759 357.231238 
L 510.770391 418.033492 
L 510.990024 412.087028 
L 511.209656 438.3131 
L 511.429288 536.726516 
L 511.648921 501.880732 
L 511.868553 415.537695 
L 512.088185 282.285332 
L 512.307817 484.336283 
L 512.52745 311.5409 
L 512.747082 482.5319 
L 512.966714 489.681313 
L 513.186347 478.108759 
L 513.625611 425.536844 
L 513.845243 446.2954 
L 514.064876 246.991514 
L 514.284508 335.247133 
L 514.50414 367.118709 
L 514.943405 473.286114 
L 515.163037 368.093624 
L 515.382669 391.080777 
L 515.602302 463.150775 
L 515.821934 433.311236 
L 516.041566 523.447558 
L 516.480831 432.69962 
L 516.700463 466.431686 
L 516.920095 476.795571 
L 517.139728 355.82423 
L 517.578992 503.773169 
L 517.798625 526.839561 
L 518.018257 324.419165 
L 518.457521 435.427415 
L 518.677154 382.000126 
L 518.896786 365.844836 
L 519.116418 384.645425 
L 519.33605 365.649494 
L 519.555683 371.99751 
L 519.775315 397.670347 
L 519.994947 436.902912 
L 520.21458 416.279042 
L 520.434212 424.828713 
L 520.653844 372.992456 
L 520.873476 569.244048 
L 521.093109 379.434752 
L 521.312741 467.155302 
L 521.532373 366.081333 
L 521.971638 520.173982 
L 522.19127 325.691803 
L 522.410902 415.528296 
L 522.630535 393.876827 
L 522.850167 410.818866 
L 523.069799 328.643193 
L 523.289432 397.321561 
L 523.509064 359.611175 
L 523.728696 462.825047 
L 523.948328 457.252329 
L 524.167961 319.119216 
L 524.387593 525.245212 
L 524.607225 429.910164 
L 524.826858 484.467431 
L 525.04649 455.307716 
L 525.266122 391.314566 
L 525.485754 221.813323 
L 525.705387 384.84897 
L 525.925019 348.050759 
L 526.144651 500.586479 
L 526.364284 315.156527 
L 526.583916 471.375258 
L 526.803548 431.728681 
L 527.02318 508.576308 
L 527.242813 370.507671 
L 527.462445 543.554693 
L 528.121342 171.127835 
L 528.340974 440.384272 
L 528.560606 495.080521 
L 528.780239 417.944481 
L 528.999871 444.137057 
L 529.219503 511.763435 
L 529.439136 416.837094 
L 529.8784 386.577729 
L 530.098032 469.903129 
L 530.537297 377.094411 
L 530.756929 478.158487 
L 530.976562 432.414625 
L 531.196194 464.596145 
L 531.415826 463.086395 
L 531.635458 403.69455 
L 531.855091 516.450555 
L 532.294355 341.495118 
L 532.73362 486.329236 
L 532.953252 431.197698 
L 533.172884 436.516229 
L 533.392517 365.422125 
L 533.831781 444.530232 
L 534.051413 445.892244 
L 534.271046 387.183254 
L 534.490678 460.341926 
L 534.71031 442.895157 
L 534.929943 405.417051 
L 535.149575 341.845846 
L 535.369207 498.808788 
L 535.588839 456.621358 
L 535.808472 488.165022 
L 536.028104 324.897191 
L 536.247736 378.398297 
L 536.467369 386.200547 
L 536.687001 449.715059 
L 536.906633 378.067235 
L 537.126265 454.457795 
L 537.345898 428.835076 
L 537.56553 445.704626 
L 537.785162 504.173499 
L 538.004795 516.63285 
L 538.224427 494.38288 
L 538.444059 376.739535 
L 538.663691 447.722975 
L 538.883324 279.64224 
L 539.102956 427.870003 
L 539.322588 452.740473 
L 539.542221 398.131464 
L 539.761853 509.204659 
L 540.201117 312.474558 
L 540.640382 555.416309 
L 541.079647 323.31842 
L 541.299279 428.342069 
L 541.518911 449.815956 
L 541.738543 337.861097 
L 541.958176 471.004616 
L 542.177808 420.369615 
L 542.39744 340.677835 
L 542.617073 422.502082 
L 542.836705 452.62371 
L 543.056337 502.723285 
L 543.275969 484.321294 
L 543.495602 372.219816 
L 543.715234 410.324557 
L 543.934866 385.247038 
L 544.154499 487.33837 
L 544.374131 486.086052 
L 544.593763 410.24542 
L 544.813395 399.567038 
L 545.033028 341.379988 
L 545.25266 456.473756 
L 545.472292 320.026757 
L 545.691925 481.744829 
L 545.911557 380.292838 
L 545.911557 380.292838 
" style="fill:none;stroke:#96c69a;stroke-linecap:round;stroke-width:3;"/>
   </g>
   <g id="line2d_2"/>
   <g id="patch_3">
    <path d="M 84.914375 602.94 
L 84.914375 109.326857 
" style="fill:none;stroke:#262626;stroke-linecap:square;stroke-linejoin:miter;stroke-width:2.5;"/>
   </g>
   <g id="patch_4">
    <path d="M 84.914375 602.94 
L 567.863804 602.94 
" style="fill:none;stroke:#262626;stroke-linecap:square;stroke-linejoin:miter;stroke-width:2.5;"/>
   </g>
   <g id="legend_1">
    <g id="patch_5">
     <path d="M 514.948179 597.94 
L 560.863804 597.94 
Q 562.863804 597.94 562.863804 595.94 
L 562.863804 554.034375 
Q 562.863804 552.034375 560.863804 552.034375 
L 514.948179 552.034375 
Q 512.948179 552.034375 512.948179 554.034375 
L 512.948179 595.94 
Q 512.948179 597.94 514.948179 597.94 
z
" style="fill:#ffffff;opacity:0.8;stroke:#cccccc;stroke-linejoin:miter;stroke-width:2;"/>
    </g>
    <g id="text_16">
     <!-- $n_\tau$ -->
     <g style="fill:#262626;" transform="translate(524.825991 574.270625)scale(0.24 -0.24)">
      <defs>
       <path d="M 3566 2113 
L 3156 0 
L 2578 0 
L 2988 2091 
Q 3016 2238 3031 2350 
Q 3047 2463 3047 2528 
Q 3047 2791 2881 2937 
Q 2716 3084 2419 3084 
Q 1956 3084 1622 2776 
Q 1288 2469 1184 1941 
L 800 0 
L 225 0 
L 903 3500 
L 1478 3500 
L 1363 2950 
Q 1603 3253 1940 3418 
Q 2278 3584 2650 3584 
Q 3113 3584 3367 3334 
Q 3622 3084 3622 2631 
Q 3622 2519 3608 2391 
Q 3594 2263 3566 2113 
z
" id="DejaVuSans-Oblique-6e" transform="scale(0.015625)"/>
       <path d="M 2103 638 
Q 2188 488 2525 488 
L 2800 488 
L 2706 0 
L 2363 0 
Q 1800 0 1600 300 
Q 1403 606 1534 1269 
L 1856 2925 
L 541 2925 
L 653 3500 
L 3881 3500 
L 3769 2925 
L 2444 2925 
L 2113 1234 
Q 2025 781 2103 638 
z
" id="DejaVuSans-Oblique-3c4" transform="scale(0.015625)"/>
      </defs>
      <use xlink:href="#DejaVuSans-Oblique-6e"/>
      <use transform="translate(63.378906 -16.40625)scale(0.7)" xlink:href="#DejaVuSans-Oblique-3c4"/>
     </g>
    </g>
    <g id="line2d_3">
     <path d="M 516.948179 588.360312 
L 536.948179 588.360312 
" style="fill:none;stroke:#96c69a;stroke-linecap:round;stroke-width:3;"/>
    </g>
    <g id="line2d_4"/>
    <g id="text_17">
     <!-- 40 -->
     <g style="fill:#262626;" transform="translate(544.948179 591.860312)scale(0.1 -0.1)">
      <defs>
       <path d="M 2356 3675 
L 1038 1722 
L 2356 1722 
L 2356 3675 
z
M 2156 4666 
L 3494 4666 
L 3494 1722 
L 4159 1722 
L 4159 850 
L 3494 850 
L 3494 0 
L 2356 0 
L 2356 850 
L 288 850 
L 288 1881 
L 2156 4666 
z
" id="DejaVuSans-Bold-34" transform="scale(0.015625)"/>
       <path d="M 2944 2338 
Q 2944 3213 2780 3570 
Q 2616 3928 2228 3928 
Q 1841 3928 1675 3570 
Q 1509 3213 1509 2338 
Q 1509 1453 1675 1090 
Q 1841 728 2228 728 
Q 2613 728 2778 1090 
Q 2944 1453 2944 2338 
z
M 4147 2328 
Q 4147 1169 3647 539 
Q 3147 -91 2228 -91 
Q 1306 -91 806 539 
Q 306 1169 306 2328 
Q 306 3491 806 4120 
Q 1306 4750 2228 4750 
Q 3147 4750 3647 4120 
Q 4147 3491 4147 2328 
z
" id="DejaVuSans-Bold-30" transform="scale(0.015625)"/>
      </defs>
      <use xlink:href="#DejaVuSans-Bold-34"/>
      <use x="69.580078" xlink:href="#DejaVuSans-Bold-30"/>
     </g>
    </g>
   </g>
  </g>
  <g id="axes_2">
   <g id="patch_6">
    <path d="M 84.914375 92.305714 
L 567.863804 92.305714 
L 567.863804 7.2 
L 84.914375 7.2 
z
" style="fill:none;"/>
   </g>
   <g id="matplotlib.axis_3">
    <g id="xtick_7"/>
    <g id="xtick_8"/>
    <g id="xtick_9"/>
    <g id="xtick_10"/>
    <g id="xtick_11"/>
    <g id="xtick_12"/>
   </g>
   <g id="matplotlib.axis_4">
    <g id="ytick_8">
     <g id="text_18">
      <!-- 0 -->
      <g style="fill:#262626;" transform="translate(55.416875 100.663996)scale(0.22 -0.22)">
       <use xlink:href="#DejaVuSans-30"/>
      </g>
     </g>
    </g>
    <g id="ytick_9">
     <g id="text_19">
      <!-- 100 -->
      <g style="fill:#262626;" transform="translate(27.421875 48.032138)scale(0.22 -0.22)">
       <use xlink:href="#DejaVuSans-31"/>
       <use x="63.623047" xlink:href="#DejaVuSans-30"/>
       <use x="127.246094" xlink:href="#DejaVuSans-30"/>
      </g>
     </g>
    </g>
   </g>
   <g id="patch_7">
    <path clip-path="url(#p607870cda7)" d="M 106.866622 92.305714 
L 140.639309 92.305714 
L 140.639309 11.252653 
L 106.866622 11.252653 
z
" style="fill:#96c69a;fill-opacity:0.5;stroke:#ffffff;stroke-linejoin:miter;stroke-width:2;"/>
   </g>
   <g id="patch_8">
    <path clip-path="url(#p607870cda7)" d="M 140.639309 92.305714 
L 174.411996 92.305714 
L 174.411996 11.252653 
L 140.639309 11.252653 
z
" style="fill:#96c69a;fill-opacity:0.5;stroke:#ffffff;stroke-linejoin:miter;stroke-width:2;"/>
   </g>
   <g id="patch_9">
    <path clip-path="url(#p607870cda7)" d="M 174.411996 92.305714 
L 208.184684 92.305714 
L 208.184684 11.252653 
L 174.411996 11.252653 
z
" style="fill:#96c69a;fill-opacity:0.5;stroke:#ffffff;stroke-linejoin:miter;stroke-width:2;"/>
   </g>
   <g id="patch_10">
    <path clip-path="url(#p607870cda7)" d="M 208.184684 92.305714 
L 241.957371 92.305714 
L 241.957371 11.252653 
L 208.184684 11.252653 
z
" style="fill:#96c69a;fill-opacity:0.5;stroke:#ffffff;stroke-linejoin:miter;stroke-width:2;"/>
   </g>
   <g id="patch_11">
    <path clip-path="url(#p607870cda7)" d="M 241.957371 92.305714 
L 275.730058 92.305714 
L 275.730058 11.778972 
L 241.957371 11.778972 
z
" style="fill:#96c69a;fill-opacity:0.5;stroke:#ffffff;stroke-linejoin:miter;stroke-width:2;"/>
   </g>
   <g id="patch_12">
    <path clip-path="url(#p607870cda7)" d="M 275.730058 92.305714 
L 309.502746 92.305714 
L 309.502746 11.252653 
L 275.730058 11.252653 
z
" style="fill:#96c69a;fill-opacity:0.5;stroke:#ffffff;stroke-linejoin:miter;stroke-width:2;"/>
   </g>
   <g id="patch_13">
    <path clip-path="url(#p607870cda7)" d="M 309.502746 92.305714 
L 343.275433 92.305714 
L 343.275433 11.252653 
L 309.502746 11.252653 
z
" style="fill:#96c69a;fill-opacity:0.5;stroke:#ffffff;stroke-linejoin:miter;stroke-width:2;"/>
   </g>
   <g id="patch_14">
    <path clip-path="url(#p607870cda7)" d="M 343.275433 92.305714 
L 377.04812 92.305714 
L 377.04812 11.252653 
L 343.275433 11.252653 
z
" style="fill:#96c69a;fill-opacity:0.5;stroke:#ffffff;stroke-linejoin:miter;stroke-width:2;"/>
   </g>
   <g id="patch_15">
    <path clip-path="url(#p607870cda7)" d="M 377.04812 92.305714 
L 410.820808 92.305714 
L 410.820808 11.778972 
L 377.04812 11.778972 
z
" style="fill:#96c69a;fill-opacity:0.5;stroke:#ffffff;stroke-linejoin:miter;stroke-width:2;"/>
   </g>
   <g id="patch_16">
    <path clip-path="url(#p607870cda7)" d="M 410.820808 92.305714 
L 444.593495 92.305714 
L 444.593495 11.252653 
L 410.820808 11.252653 
z
" style="fill:#96c69a;fill-opacity:0.5;stroke:#ffffff;stroke-linejoin:miter;stroke-width:2;"/>
   </g>
   <g id="patch_17">
    <path clip-path="url(#p607870cda7)" d="M 444.593495 92.305714 
L 478.366182 92.305714 
L 478.366182 11.252653 
L 444.593495 11.252653 
z
" style="fill:#96c69a;fill-opacity:0.5;stroke:#ffffff;stroke-linejoin:miter;stroke-width:2;"/>
   </g>
   <g id="patch_18">
    <path clip-path="url(#p607870cda7)" d="M 478.366182 92.305714 
L 512.13887 92.305714 
L 512.13887 11.252653 
L 478.366182 11.252653 
z
" style="fill:#96c69a;fill-opacity:0.5;stroke:#ffffff;stroke-linejoin:miter;stroke-width:2;"/>
   </g>
   <g id="patch_19">
    <path clip-path="url(#p607870cda7)" d="M 512.13887 92.305714 
L 545.911557 92.305714 
L 545.911557 11.252653 
L 512.13887 11.252653 
z
" style="fill:#96c69a;fill-opacity:0.5;stroke:#ffffff;stroke-linejoin:miter;stroke-width:2;"/>
   </g>
   <g id="patch_20">
    <path d="M 84.914375 92.305714 
L 84.914375 7.2 
" style="fill:none;stroke:#262626;stroke-linecap:square;stroke-linejoin:miter;stroke-width:2.5;"/>
   </g>
   <g id="patch_21">
    <path d="M 84.914375 92.305714 
L 567.863804 92.305714 
" style="fill:none;stroke:#262626;stroke-linecap:square;stroke-linejoin:miter;stroke-width:2.5;"/>
   </g>
  </g>
  <g id="axes_3">
   <g id="patch_22">
    <path d="M 584.517232 602.94 
L 667.784375 602.94 
L 667.784375 109.326857 
L 584.517232 109.326857 
z
" style="fill:none;"/>
   </g>
   <g id="matplotlib.axis_5">
    <g id="xtick_13">
     <g id="text_20">
      <!-- 0 -->
      <g style="fill:#262626;" transform="translate(577.518482 635.156562)scale(0.22 -0.22)">
       <use xlink:href="#DejaVuSans-30"/>
      </g>
     </g>
    </g>
    <g id="xtick_14">
     <g id="text_21">
      <!-- 100 -->
      <g style="fill:#262626;" transform="translate(607.577671 635.156562)scale(0.22 -0.22)">
       <use xlink:href="#DejaVuSans-31"/>
       <use x="63.623047" xlink:href="#DejaVuSans-30"/>
       <use x="127.246094" xlink:href="#DejaVuSans-30"/>
      </g>
     </g>
    </g>
   </g>
   <g id="matplotlib.axis_6">
    <g id="ytick_10"/>
    <g id="ytick_11"/>
    <g id="ytick_12"/>
    <g id="ytick_13"/>
    <g id="ytick_14"/>
    <g id="ytick_15"/>
    <g id="ytick_16"/>
   </g>
   <g id="patch_23">
    <path clip-path="url(#p3fcfe2ab5c)" d="M 584.517232 580.503039 
L 586.720067 580.503039 
L 586.720067 566.02758 
L 584.517232 566.02758 
z
" style="fill:#96c69a;fill-opacity:0.5;stroke:#ffffff;stroke-linejoin:miter;stroke-width:1.447546;"/>
   </g>
   <g id="patch_24">
    <path clip-path="url(#p3fcfe2ab5c)" d="M 584.517232 566.02758 
L 588.482334 566.02758 
L 588.482334 551.552121 
L 584.517232 551.552121 
z
" style="fill:#96c69a;fill-opacity:0.5;stroke:#ffffff;stroke-linejoin:miter;stroke-width:1.447546;"/>
   </g>
   <g id="patch_25">
    <path clip-path="url(#p3fcfe2ab5c)" d="M 584.517232 551.552121 
L 594.650271 551.552121 
L 594.650271 537.076663 
L 584.517232 537.076663 
z
" style="fill:#96c69a;fill-opacity:0.5;stroke:#ffffff;stroke-linejoin:miter;stroke-width:1.447546;"/>
   </g>
   <g id="patch_26">
    <path clip-path="url(#p3fcfe2ab5c)" d="M 584.517232 537.076663 
L 607.426711 537.076663 
L 607.426711 522.601204 
L 584.517232 522.601204 
z
" style="fill:#96c69a;fill-opacity:0.5;stroke:#ffffff;stroke-linejoin:miter;stroke-width:1.447546;"/>
   </g>
   <g id="patch_27">
    <path clip-path="url(#p3fcfe2ab5c)" d="M 584.517232 522.601204 
L 616.238048 522.601204 
L 616.238048 508.125745 
L 584.517232 508.125745 
z
" style="fill:#96c69a;fill-opacity:0.5;stroke:#ffffff;stroke-linejoin:miter;stroke-width:1.447546;"/>
   </g>
   <g id="patch_28">
    <path clip-path="url(#p3fcfe2ab5c)" d="M 584.517232 508.125745 
L 623.727686 508.125745 
L 623.727686 493.650287 
L 584.517232 493.650287 
z
" style="fill:#96c69a;fill-opacity:0.5;stroke:#ffffff;stroke-linejoin:miter;stroke-width:1.447546;"/>
   </g>
   <g id="patch_29">
    <path clip-path="url(#p3fcfe2ab5c)" d="M 584.517232 493.650287 
L 632.098457 493.650287 
L 632.098457 479.174828 
L 584.517232 479.174828 
z
" style="fill:#96c69a;fill-opacity:0.5;stroke:#ffffff;stroke-linejoin:miter;stroke-width:1.447546;"/>
   </g>
   <g id="patch_30">
    <path clip-path="url(#p3fcfe2ab5c)" d="M 584.517232 479.174828 
L 647.958865 479.174828 
L 647.958865 464.699369 
L 584.517232 464.699369 
z
" style="fill:#96c69a;fill-opacity:0.5;stroke:#ffffff;stroke-linejoin:miter;stroke-width:1.447546;"/>
   </g>
   <g id="patch_31">
    <path clip-path="url(#p3fcfe2ab5c)" d="M 584.517232 464.699369 
L 656.329636 464.699369 
L 656.329636 450.22391 
L 584.517232 450.22391 
z
" style="fill:#96c69a;fill-opacity:0.5;stroke:#ffffff;stroke-linejoin:miter;stroke-width:1.447546;"/>
   </g>
   <g id="patch_32">
    <path clip-path="url(#p3fcfe2ab5c)" d="M 584.517232 450.22391 
L 663.819273 450.22391 
L 663.819273 435.748452 
L 584.517232 435.748452 
z
" style="fill:#96c69a;fill-opacity:0.5;stroke:#ffffff;stroke-linejoin:miter;stroke-width:1.447546;"/>
   </g>
   <g id="patch_33">
    <path clip-path="url(#p3fcfe2ab5c)" d="M 584.517232 435.748452 
L 657.651336 435.748452 
L 657.651336 421.272993 
L 584.517232 421.272993 
z
" style="fill:#96c69a;fill-opacity:0.5;stroke:#ffffff;stroke-linejoin:miter;stroke-width:1.447546;"/>
   </g>
   <g id="patch_34">
    <path clip-path="url(#p3fcfe2ab5c)" d="M 584.517232 421.272993 
L 655.448502 421.272993 
L 655.448502 406.797534 
L 584.517232 406.797534 
z
" style="fill:#96c69a;fill-opacity:0.5;stroke:#ffffff;stroke-linejoin:miter;stroke-width:1.447546;"/>
   </g>
   <g id="patch_35">
    <path clip-path="url(#p3fcfe2ab5c)" d="M 584.517232 406.797534 
L 655.448502 406.797534 
L 655.448502 392.322075 
L 584.517232 392.322075 
z
" style="fill:#96c69a;fill-opacity:0.5;stroke:#ffffff;stroke-linejoin:miter;stroke-width:1.447546;"/>
   </g>
   <g id="patch_36">
    <path clip-path="url(#p3fcfe2ab5c)" d="M 584.517232 392.322075 
L 642.672062 392.322075 
L 642.672062 377.846617 
L 584.517232 377.846617 
z
" style="fill:#96c69a;fill-opacity:0.5;stroke:#ffffff;stroke-linejoin:miter;stroke-width:1.447546;"/>
   </g>
   <g id="patch_37">
    <path clip-path="url(#p3fcfe2ab5c)" d="M 584.517232 377.846617 
L 632.539024 377.846617 
L 632.539024 363.371158 
L 584.517232 363.371158 
z
" style="fill:#96c69a;fill-opacity:0.5;stroke:#ffffff;stroke-linejoin:miter;stroke-width:1.447546;"/>
   </g>
   <g id="patch_38">
    <path clip-path="url(#p3fcfe2ab5c)" d="M 584.517232 363.371158 
L 619.762584 363.371158 
L 619.762584 348.895699 
L 584.517232 348.895699 
z
" style="fill:#96c69a;fill-opacity:0.5;stroke:#ffffff;stroke-linejoin:miter;stroke-width:1.447546;"/>
   </g>
   <g id="patch_39">
    <path clip-path="url(#p3fcfe2ab5c)" d="M 584.517232 348.895699 
L 618.000316 348.895699 
L 618.000316 334.42024 
L 584.517232 334.42024 
z
" style="fill:#96c69a;fill-opacity:0.5;stroke:#ffffff;stroke-linejoin:miter;stroke-width:1.447546;"/>
   </g>
   <g id="patch_40">
    <path clip-path="url(#p3fcfe2ab5c)" d="M 584.517232 334.42024 
L 608.307844 334.42024 
L 608.307844 319.944782 
L 584.517232 319.944782 
z
" style="fill:#96c69a;fill-opacity:0.5;stroke:#ffffff;stroke-linejoin:miter;stroke-width:1.447546;"/>
   </g>
   <g id="patch_41">
    <path clip-path="url(#p3fcfe2ab5c)" d="M 584.517232 319.944782 
L 613.15408 319.944782 
L 613.15408 305.469323 
L 584.517232 305.469323 
z
" style="fill:#96c69a;fill-opacity:0.5;stroke:#ffffff;stroke-linejoin:miter;stroke-width:1.447546;"/>
   </g>
   <g id="patch_42">
    <path clip-path="url(#p3fcfe2ab5c)" d="M 584.517232 305.469323 
L 596.412538 305.469323 
L 596.412538 290.993864 
L 584.517232 290.993864 
z
" style="fill:#96c69a;fill-opacity:0.5;stroke:#ffffff;stroke-linejoin:miter;stroke-width:1.447546;"/>
   </g>
   <g id="patch_43">
    <path clip-path="url(#p3fcfe2ab5c)" d="M 584.517232 290.993864 
L 597.293672 290.993864 
L 597.293672 276.518406 
L 584.517232 276.518406 
z
" style="fill:#96c69a;fill-opacity:0.5;stroke:#ffffff;stroke-linejoin:miter;stroke-width:1.447546;"/>
   </g>
   <g id="patch_44">
    <path clip-path="url(#p3fcfe2ab5c)" d="M 584.517232 276.518406 
L 597.734239 276.518406 
L 597.734239 262.042947 
L 584.517232 262.042947 
z
" style="fill:#96c69a;fill-opacity:0.5;stroke:#ffffff;stroke-linejoin:miter;stroke-width:1.447546;"/>
   </g>
   <g id="patch_45">
    <path clip-path="url(#p3fcfe2ab5c)" d="M 584.517232 262.042947 
L 594.209704 262.042947 
L 594.209704 247.567488 
L 584.517232 247.567488 
z
" style="fill:#96c69a;fill-opacity:0.5;stroke:#ffffff;stroke-linejoin:miter;stroke-width:1.447546;"/>
   </g>
   <g id="patch_46">
    <path clip-path="url(#p3fcfe2ab5c)" d="M 584.517232 247.567488 
L 591.566302 247.567488 
L 591.566302 233.092029 
L 584.517232 233.092029 
z
" style="fill:#96c69a;fill-opacity:0.5;stroke:#ffffff;stroke-linejoin:miter;stroke-width:1.447546;"/>
   </g>
   <g id="patch_47">
    <path clip-path="url(#p3fcfe2ab5c)" d="M 584.517232 233.092029 
L 589.363468 233.092029 
L 589.363468 218.616571 
L 584.517232 218.616571 
z
" style="fill:#96c69a;fill-opacity:0.5;stroke:#ffffff;stroke-linejoin:miter;stroke-width:1.447546;"/>
   </g>
   <g id="patch_48">
    <path clip-path="url(#p3fcfe2ab5c)" d="M 584.517232 218.616571 
L 585.838933 218.616571 
L 585.838933 204.141112 
L 584.517232 204.141112 
z
" style="fill:#96c69a;fill-opacity:0.5;stroke:#ffffff;stroke-linejoin:miter;stroke-width:1.447546;"/>
   </g>
   <g id="patch_49">
    <path clip-path="url(#p3fcfe2ab5c)" d="M 584.517232 204.141112 
L 586.720067 204.141112 
L 586.720067 189.665653 
L 584.517232 189.665653 
z
" style="fill:#96c69a;fill-opacity:0.5;stroke:#ffffff;stroke-linejoin:miter;stroke-width:1.447546;"/>
   </g>
   <g id="patch_50">
    <path clip-path="url(#p3fcfe2ab5c)" d="M 584.517232 189.665653 
L 585.398366 189.665653 
L 585.398366 175.190194 
L 584.517232 175.190194 
z
" style="fill:#96c69a;fill-opacity:0.5;stroke:#ffffff;stroke-linejoin:miter;stroke-width:1.447546;"/>
   </g>
   <g id="patch_51">
    <path clip-path="url(#p3fcfe2ab5c)" d="M 584.517232 175.190194 
L 586.2795 175.190194 
L 586.2795 160.714736 
L 584.517232 160.714736 
z
" style="fill:#96c69a;fill-opacity:0.5;stroke:#ffffff;stroke-linejoin:miter;stroke-width:1.447546;"/>
   </g>
   <g id="patch_52">
    <path clip-path="url(#p3fcfe2ab5c)" d="M 584.517232 160.714736 
L 584.957799 160.714736 
L 584.957799 146.239277 
L 584.517232 146.239277 
z
" style="fill:#96c69a;fill-opacity:0.5;stroke:#ffffff;stroke-linejoin:miter;stroke-width:1.447546;"/>
   </g>
   <g id="patch_53">
    <path clip-path="url(#p3fcfe2ab5c)" d="M 584.517232 146.239277 
L 584.957799 146.239277 
L 584.957799 131.763818 
L 584.517232 131.763818 
z
" style="fill:#96c69a;fill-opacity:0.5;stroke:#ffffff;stroke-linejoin:miter;stroke-width:1.447546;"/>
   </g>
   <g id="patch_54">
    <path d="M 584.517232 602.94 
L 584.517232 109.326857 
" style="fill:none;stroke:#262626;stroke-linecap:square;stroke-linejoin:miter;stroke-width:2.5;"/>
   </g>
   <g id="patch_55">
    <path d="M 584.517232 602.94 
L 667.784375 602.94 
" style="fill:none;stroke:#262626;stroke-linecap:square;stroke-linejoin:miter;stroke-width:2.5;"/>
   </g>
  </g>
 </g>
 <defs>
  <clipPath id="pb0ed6069df">
   <rect height="493.613143" width="482.949429" x="84.914375" y="109.326857"/>
  </clipPath>
  <clipPath id="p607870cda7">
   <rect height="85.105714" width="482.949429" x="84.914375" y="7.2"/>
  </clipPath>
  <clipPath id="p3fcfe2ab5c">
   <rect height="493.613143" width="83.267143" x="584.517232" y="109.326857"/>
  </clipPath>
 </defs>
</svg>
