<?xml version="1.0" encoding="utf-8" standalone="no"?>
<!DOCTYPE svg PUBLIC "-//W3C//DTD SVG 1.1//EN"
  "http://www.w3.org/Graphics/SVG/1.1/DTD/svg11.dtd">
<svg height="674.159375pt" version="1.1" viewBox="0 0 674.984375 674.159375" width="674.984375pt" xmlns="http://www.w3.org/2000/svg" xmlns:xlink="http://www.w3.org/1999/xlink">
 <metadata>
  <rdf:RDF xmlns:cc="http://creativecommons.org/ns#" xmlns:dc="http://purl.org/dc/elements/1.1/" xmlns:rdf="http://www.w3.org/1999/02/22-rdf-syntax-ns#">
   <cc:Work>
    <dc:type rdf:resource="http://purl.org/dc/dcmitype/StillImage"/>
    <dc:date>2021-07-24T14:50:35.163248</dc:date>
    <dc:format>image/svg+xml</dc:format>
    <dc:creator>
     <cc:Agent>
      <dc:title>Matplotlib v3.4.2, https://matplotlib.org/</dc:title>
     </cc:Agent>
    </dc:creator>
   </cc:Work>
  </rdf:RDF>
 </metadata>
 <defs>
  <style type="text/css">*{stroke-linecap:butt;stroke-linejoin:round;}</style>
 </defs>
 <g id="figure_1">
  <g id="patch_1">
   <path d="M 0 674.159375 
L 674.984375 674.159375 
L 674.984375 0 
L 0 0 
z
" style="fill:#ffffff;"/>
  </g>
  <g id="axes_1">
   <g id="patch_2">
    <path d="M 84.914375 602.94 
L 567.863804 602.94 
L 567.863804 109.326857 
L 84.914375 109.326857 
z
" style="fill:none;"/>
   </g>
   <g id="matplotlib.axis_1">
    <g id="xtick_1">
     <g id="text_1">
      <!-- 0 -->
      <g style="fill:#262626;" transform="translate(99.726199 635.156562)scale(0.22 -0.22)">
       <defs>
        <path d="M 2034 4250 
Q 1547 4250 1301 3770 
Q 1056 3291 1056 2328 
Q 1056 1369 1301 889 
Q 1547 409 2034 409 
Q 2525 409 2770 889 
Q 3016 1369 3016 2328 
Q 3016 3291 2770 3770 
Q 2525 4250 2034 4250 
z
M 2034 4750 
Q 2819 4750 3233 4129 
Q 3647 3509 3647 2328 
Q 3647 1150 3233 529 
Q 2819 -91 2034 -91 
Q 1250 -91 836 529 
Q 422 1150 422 2328 
Q 422 3509 836 4129 
Q 1250 4750 2034 4750 
z
" id="DejaVuSans-30" transform="scale(0.015625)"/>
       </defs>
       <use xlink:href="#DejaVuSans-30"/>
      </g>
     </g>
    </g>
    <g id="xtick_2">
     <g id="text_2">
      <!-- 5000 -->
      <g style="fill:#262626;" transform="translate(149.566498 635.156562)scale(0.22 -0.22)">
       <defs>
        <path d="M 691 4666 
L 3169 4666 
L 3169 4134 
L 1269 4134 
L 1269 2991 
Q 1406 3038 1543 3061 
Q 1681 3084 1819 3084 
Q 2600 3084 3056 2656 
Q 3513 2228 3513 1497 
Q 3513 744 3044 326 
Q 2575 -91 1722 -91 
Q 1428 -91 1123 -41 
Q 819 9 494 109 
L 494 744 
Q 775 591 1075 516 
Q 1375 441 1709 441 
Q 2250 441 2565 725 
Q 2881 1009 2881 1497 
Q 2881 1984 2565 2268 
Q 2250 2553 1709 2553 
Q 1456 2553 1204 2497 
Q 953 2441 691 2322 
L 691 4666 
z
" id="DejaVuSans-35" transform="scale(0.015625)"/>
       </defs>
       <use xlink:href="#DejaVuSans-35"/>
       <use x="63.623047" xlink:href="#DejaVuSans-30"/>
       <use x="127.246094" xlink:href="#DejaVuSans-30"/>
       <use x="190.869141" xlink:href="#DejaVuSans-30"/>
      </g>
     </g>
    </g>
    <g id="xtick_3">
     <g id="text_3">
      <!-- 10000 -->
      <g style="fill:#262626;" transform="translate(213.404298 635.156562)scale(0.22 -0.22)">
       <defs>
        <path d="M 794 531 
L 1825 531 
L 1825 4091 
L 703 3866 
L 703 4441 
L 1819 4666 
L 2450 4666 
L 2450 531 
L 3481 531 
L 3481 0 
L 794 0 
L 794 531 
z
" id="DejaVuSans-31" transform="scale(0.015625)"/>
       </defs>
       <use xlink:href="#DejaVuSans-31"/>
       <use x="63.623047" xlink:href="#DejaVuSans-30"/>
       <use x="127.246094" xlink:href="#DejaVuSans-30"/>
       <use x="190.869141" xlink:href="#DejaVuSans-30"/>
       <use x="254.492188" xlink:href="#DejaVuSans-30"/>
      </g>
     </g>
    </g>
    <g id="xtick_4">
     <g id="text_4">
      <!-- 15000 -->
      <g style="fill:#262626;" transform="translate(284.240848 635.156562)scale(0.22 -0.22)">
       <use xlink:href="#DejaVuSans-31"/>
       <use x="63.623047" xlink:href="#DejaVuSans-35"/>
       <use x="127.246094" xlink:href="#DejaVuSans-30"/>
       <use x="190.869141" xlink:href="#DejaVuSans-30"/>
       <use x="254.492188" xlink:href="#DejaVuSans-30"/>
      </g>
     </g>
    </g>
    <g id="xtick_5">
     <g id="text_5">
      <!-- 20000 -->
      <g style="fill:#262626;" transform="translate(355.077397 635.156562)scale(0.22 -0.22)">
       <defs>
        <path d="M 1228 531 
L 3431 531 
L 3431 0 
L 469 0 
L 469 531 
Q 828 903 1448 1529 
Q 2069 2156 2228 2338 
Q 2531 2678 2651 2914 
Q 2772 3150 2772 3378 
Q 2772 3750 2511 3984 
Q 2250 4219 1831 4219 
Q 1534 4219 1204 4116 
Q 875 4013 500 3803 
L 500 4441 
Q 881 4594 1212 4672 
Q 1544 4750 1819 4750 
Q 2544 4750 2975 4387 
Q 3406 4025 3406 3419 
Q 3406 3131 3298 2873 
Q 3191 2616 2906 2266 
Q 2828 2175 2409 1742 
Q 1991 1309 1228 531 
z
" id="DejaVuSans-32" transform="scale(0.015625)"/>
       </defs>
       <use xlink:href="#DejaVuSans-32"/>
       <use x="63.623047" xlink:href="#DejaVuSans-30"/>
       <use x="127.246094" xlink:href="#DejaVuSans-30"/>
       <use x="190.869141" xlink:href="#DejaVuSans-30"/>
       <use x="254.492188" xlink:href="#DejaVuSans-30"/>
      </g>
     </g>
    </g>
    <g id="xtick_6">
     <g id="text_6">
      <!-- 25000 -->
      <g style="fill:#262626;" transform="translate(425.913947 635.156562)scale(0.22 -0.22)">
       <use xlink:href="#DejaVuSans-32"/>
       <use x="63.623047" xlink:href="#DejaVuSans-35"/>
       <use x="127.246094" xlink:href="#DejaVuSans-30"/>
       <use x="190.869141" xlink:href="#DejaVuSans-30"/>
       <use x="254.492188" xlink:href="#DejaVuSans-30"/>
      </g>
     </g>
    </g>
    <g id="xtick_7">
     <g id="text_7">
      <!-- 30000 -->
      <g style="fill:#262626;" transform="translate(496.750497 635.156562)scale(0.22 -0.22)">
       <defs>
        <path d="M 2597 2516 
Q 3050 2419 3304 2112 
Q 3559 1806 3559 1356 
Q 3559 666 3084 287 
Q 2609 -91 1734 -91 
Q 1441 -91 1130 -33 
Q 819 25 488 141 
L 488 750 
Q 750 597 1062 519 
Q 1375 441 1716 441 
Q 2309 441 2620 675 
Q 2931 909 2931 1356 
Q 2931 1769 2642 2001 
Q 2353 2234 1838 2234 
L 1294 2234 
L 1294 2753 
L 1863 2753 
Q 2328 2753 2575 2939 
Q 2822 3125 2822 3475 
Q 2822 3834 2567 4026 
Q 2313 4219 1838 4219 
Q 1578 4219 1281 4162 
Q 984 4106 628 3988 
L 628 4550 
Q 988 4650 1302 4700 
Q 1616 4750 1894 4750 
Q 2613 4750 3031 4423 
Q 3450 4097 3450 3541 
Q 3450 3153 3228 2886 
Q 3006 2619 2597 2516 
z
" id="DejaVuSans-33" transform="scale(0.015625)"/>
       </defs>
       <use xlink:href="#DejaVuSans-33"/>
       <use x="63.623047" xlink:href="#DejaVuSans-30"/>
       <use x="127.246094" xlink:href="#DejaVuSans-30"/>
       <use x="190.869141" xlink:href="#DejaVuSans-30"/>
       <use x="254.492188" xlink:href="#DejaVuSans-30"/>
      </g>
     </g>
    </g>
    <g id="text_8">
     <!-- MDTU -->
     <g style="fill:#262626;" transform="translate(290.683464 661.968125)scale(0.24 -0.24)">
      <defs>
       <path d="M 628 4666 
L 1569 4666 
L 2759 1491 
L 3956 4666 
L 4897 4666 
L 4897 0 
L 4281 0 
L 4281 4097 
L 3078 897 
L 2444 897 
L 1241 4097 
L 1241 0 
L 628 0 
L 628 4666 
z
" id="DejaVuSans-4d" transform="scale(0.015625)"/>
       <path d="M 1259 4147 
L 1259 519 
L 2022 519 
Q 2988 519 3436 956 
Q 3884 1394 3884 2338 
Q 3884 3275 3436 3711 
Q 2988 4147 2022 4147 
L 1259 4147 
z
M 628 4666 
L 1925 4666 
Q 3281 4666 3915 4102 
Q 4550 3538 4550 2338 
Q 4550 1131 3912 565 
Q 3275 0 1925 0 
L 628 0 
L 628 4666 
z
" id="DejaVuSans-44" transform="scale(0.015625)"/>
       <path d="M -19 4666 
L 3928 4666 
L 3928 4134 
L 2272 4134 
L 2272 0 
L 1638 0 
L 1638 4134 
L -19 4134 
L -19 4666 
z
" id="DejaVuSans-54" transform="scale(0.015625)"/>
       <path d="M 556 4666 
L 1191 4666 
L 1191 1831 
Q 1191 1081 1462 751 
Q 1734 422 2344 422 
Q 2950 422 3222 751 
Q 3494 1081 3494 1831 
L 3494 4666 
L 4128 4666 
L 4128 1753 
Q 4128 841 3676 375 
Q 3225 -91 2344 -91 
Q 1459 -91 1007 375 
Q 556 841 556 1753 
L 556 4666 
z
" id="DejaVuSans-55" transform="scale(0.015625)"/>
      </defs>
      <use xlink:href="#DejaVuSans-4d"/>
      <use x="86.279297" xlink:href="#DejaVuSans-44"/>
      <use x="163.28125" xlink:href="#DejaVuSans-54"/>
      <use x="224.365234" xlink:href="#DejaVuSans-55"/>
     </g>
    </g>
   </g>
   <g id="matplotlib.axis_2">
    <g id="ytick_1">
     <g id="text_9">
      <!-- 0.6 -->
      <g style="fill:#262626;" transform="translate(34.4275 587.745212)scale(0.22 -0.22)">
       <defs>
        <path d="M 684 794 
L 1344 794 
L 1344 0 
L 684 0 
L 684 794 
z
" id="DejaVuSans-2e" transform="scale(0.015625)"/>
        <path d="M 2113 2584 
Q 1688 2584 1439 2293 
Q 1191 2003 1191 1497 
Q 1191 994 1439 701 
Q 1688 409 2113 409 
Q 2538 409 2786 701 
Q 3034 994 3034 1497 
Q 3034 2003 2786 2293 
Q 2538 2584 2113 2584 
z
M 3366 4563 
L 3366 3988 
Q 3128 4100 2886 4159 
Q 2644 4219 2406 4219 
Q 1781 4219 1451 3797 
Q 1122 3375 1075 2522 
Q 1259 2794 1537 2939 
Q 1816 3084 2150 3084 
Q 2853 3084 3261 2657 
Q 3669 2231 3669 1497 
Q 3669 778 3244 343 
Q 2819 -91 2113 -91 
Q 1303 -91 875 529 
Q 447 1150 447 2328 
Q 447 3434 972 4092 
Q 1497 4750 2381 4750 
Q 2619 4750 2861 4703 
Q 3103 4656 3366 4563 
z
" id="DejaVuSans-36" transform="scale(0.015625)"/>
       </defs>
       <use xlink:href="#DejaVuSans-30"/>
       <use x="63.623047" xlink:href="#DejaVuSans-2e"/>
       <use x="95.410156" xlink:href="#DejaVuSans-36"/>
      </g>
     </g>
    </g>
    <g id="ytick_2">
     <g id="text_10">
      <!-- 0.7 -->
      <g style="fill:#262626;" transform="translate(34.4275 509.889572)scale(0.22 -0.22)">
       <defs>
        <path d="M 525 4666 
L 3525 4666 
L 3525 4397 
L 1831 0 
L 1172 0 
L 2766 4134 
L 525 4134 
L 525 4666 
z
" id="DejaVuSans-37" transform="scale(0.015625)"/>
       </defs>
       <use xlink:href="#DejaVuSans-30"/>
       <use x="63.623047" xlink:href="#DejaVuSans-2e"/>
       <use x="95.410156" xlink:href="#DejaVuSans-37"/>
      </g>
     </g>
    </g>
    <g id="ytick_3">
     <g id="text_11">
      <!-- 0.8 -->
      <g style="fill:#262626;" transform="translate(34.4275 432.033932)scale(0.22 -0.22)">
       <defs>
        <path d="M 2034 2216 
Q 1584 2216 1326 1975 
Q 1069 1734 1069 1313 
Q 1069 891 1326 650 
Q 1584 409 2034 409 
Q 2484 409 2743 651 
Q 3003 894 3003 1313 
Q 3003 1734 2745 1975 
Q 2488 2216 2034 2216 
z
M 1403 2484 
Q 997 2584 770 2862 
Q 544 3141 544 3541 
Q 544 4100 942 4425 
Q 1341 4750 2034 4750 
Q 2731 4750 3128 4425 
Q 3525 4100 3525 3541 
Q 3525 3141 3298 2862 
Q 3072 2584 2669 2484 
Q 3125 2378 3379 2068 
Q 3634 1759 3634 1313 
Q 3634 634 3220 271 
Q 2806 -91 2034 -91 
Q 1263 -91 848 271 
Q 434 634 434 1313 
Q 434 1759 690 2068 
Q 947 2378 1403 2484 
z
M 1172 3481 
Q 1172 3119 1398 2916 
Q 1625 2713 2034 2713 
Q 2441 2713 2670 2916 
Q 2900 3119 2900 3481 
Q 2900 3844 2670 4047 
Q 2441 4250 2034 4250 
Q 1625 4250 1398 4047 
Q 1172 3844 1172 3481 
z
" id="DejaVuSans-38" transform="scale(0.015625)"/>
       </defs>
       <use xlink:href="#DejaVuSans-30"/>
       <use x="63.623047" xlink:href="#DejaVuSans-2e"/>
       <use x="95.410156" xlink:href="#DejaVuSans-38"/>
      </g>
     </g>
    </g>
    <g id="ytick_4">
     <g id="text_12">
      <!-- 0.9 -->
      <g style="fill:#262626;" transform="translate(34.4275 354.178293)scale(0.22 -0.22)">
       <defs>
        <path d="M 703 97 
L 703 672 
Q 941 559 1184 500 
Q 1428 441 1663 441 
Q 2288 441 2617 861 
Q 2947 1281 2994 2138 
Q 2813 1869 2534 1725 
Q 2256 1581 1919 1581 
Q 1219 1581 811 2004 
Q 403 2428 403 3163 
Q 403 3881 828 4315 
Q 1253 4750 1959 4750 
Q 2769 4750 3195 4129 
Q 3622 3509 3622 2328 
Q 3622 1225 3098 567 
Q 2575 -91 1691 -91 
Q 1453 -91 1209 -44 
Q 966 3 703 97 
z
M 1959 2075 
Q 2384 2075 2632 2365 
Q 2881 2656 2881 3163 
Q 2881 3666 2632 3958 
Q 2384 4250 1959 4250 
Q 1534 4250 1286 3958 
Q 1038 3666 1038 3163 
Q 1038 2656 1286 2365 
Q 1534 2075 1959 2075 
z
" id="DejaVuSans-39" transform="scale(0.015625)"/>
       </defs>
       <use xlink:href="#DejaVuSans-30"/>
       <use x="63.623047" xlink:href="#DejaVuSans-2e"/>
       <use x="95.410156" xlink:href="#DejaVuSans-39"/>
      </g>
     </g>
    </g>
    <g id="ytick_5">
     <g id="text_13">
      <!-- 1.0 -->
      <g style="fill:#262626;" transform="translate(34.4275 276.322653)scale(0.22 -0.22)">
       <use xlink:href="#DejaVuSans-31"/>
       <use x="63.623047" xlink:href="#DejaVuSans-2e"/>
       <use x="95.410156" xlink:href="#DejaVuSans-30"/>
      </g>
     </g>
    </g>
    <g id="ytick_6">
     <g id="text_14">
      <!-- 1.1 -->
      <g style="fill:#262626;" transform="translate(34.4275 198.467013)scale(0.22 -0.22)">
       <use xlink:href="#DejaVuSans-31"/>
       <use x="63.623047" xlink:href="#DejaVuSans-2e"/>
       <use x="95.410156" xlink:href="#DejaVuSans-31"/>
      </g>
     </g>
    </g>
    <g id="ytick_7">
     <g id="text_15">
      <!-- 1.2 -->
      <g style="fill:#262626;" transform="translate(34.4275 120.611374)scale(0.22 -0.22)">
       <use xlink:href="#DejaVuSans-31"/>
       <use x="63.623047" xlink:href="#DejaVuSans-2e"/>
       <use x="95.410156" xlink:href="#DejaVuSans-32"/>
      </g>
     </g>
    </g>
    <g id="text_16">
     <!-- $E$ -->
     <g style="fill:#262626;" transform="translate(25.43625 363.813429)rotate(-90)scale(0.24 -0.24)">
      <defs>
       <path d="M 1081 4666 
L 4031 4666 
L 3928 4134 
L 1606 4134 
L 1338 2753 
L 3566 2753 
L 3463 2222 
L 1234 2222 
L 909 531 
L 3284 531 
L 3181 0 
L 172 0 
L 1081 4666 
z
" id="DejaVuSans-Oblique-45" transform="scale(0.015625)"/>
      </defs>
      <use transform="translate(0 0.09375)" xlink:href="#DejaVuSans-Oblique-45"/>
     </g>
    </g>
   </g>
   <g id="line2d_1">
    <path clip-path="url(#pa43be68ae4)" d="M 113.950277 340.268552 
L 114.09195 341.462009 
L 114.233623 343.847422 
L 114.375296 453.965008 
L 114.658642 287.811441 
L 114.800315 432.703066 
L 114.941988 414.92818 
L 115.083662 346.182493 
L 115.225335 366.1944 
L 115.367008 427.018847 
L 115.508681 243.87494 
L 115.650354 338.95661 
L 115.792027 305.088547 
L 115.9337 336.316898 
L 116.075373 401.505282 
L 116.217046 315.67647 
L 116.358719 383.084634 
L 116.500393 380.629464 
L 116.642066 400.352538 
L 116.783739 380.259344 
L 116.925412 206.777036 
L 117.208758 400.763288 
L 117.350431 468.008369 
L 117.492104 340.083556 
L 117.77545 415.890393 
L 117.917124 272.189252 
L 118.058797 467.382244 
L 118.20047 358.841797 
L 118.342143 344.520408 
L 118.483816 435.868974 
L 118.625489 400.721151 
L 118.908835 458.298572 
L 119.050508 269.059957 
L 119.192181 303.460314 
L 119.333855 305.751681 
L 119.475528 422.757901 
L 119.617201 321.65733 
L 119.758874 445.366096 
L 119.900547 432.833684 
L 120.04222 405.861554 
L 120.183893 329.235582 
L 120.325566 370.835527 
L 120.467239 302.709812 
L 120.608912 288.510639 
L 120.750585 366.583508 
L 120.892259 334.888207 
L 121.033932 333.180966 
L 121.175605 414.683491 
L 121.317278 395.854336 
L 121.600624 429.995106 
L 121.742297 427.885622 
L 121.88397 459.226256 
L 122.167316 327.931506 
L 122.30899 333.679339 
L 122.450663 427.269499 
L 122.734009 375.966958 
L 122.875682 198.995793 
L 123.017355 379.287924 
L 123.159028 412.109137 
L 123.300701 332.01599 
L 123.584047 381.056329 
L 123.725721 328.005268 
L 123.867394 482.902392 
L 124.009067 300.845905 
L 124.15074 491.194009 
L 124.292413 405.934598 
L 124.434086 394.757639 
L 124.575759 340.374001 
L 124.717432 432.64081 
L 124.859105 358.06687 
L 125.000778 474.014199 
L 125.142452 285.347379 
L 125.284125 306.99165 
L 125.425798 431.24917 
L 125.567471 365.964264 
L 125.709144 376.926636 
L 125.850817 357.646631 
L 125.99249 456.644024 
L 126.134163 318.768587 
L 126.275836 381.121539 
L 126.417509 329.870556 
L 126.559183 368.421711 
L 126.700856 369.42976 
L 126.842529 490.209543 
L 127.125875 323.591056 
L 127.267548 324.955438 
L 127.409221 402.654926 
L 127.550894 330.765084 
L 127.692567 368.008039 
L 127.83424 331.762414 
L 127.975914 348.808783 
L 128.25926 489.021798 
L 128.400933 395.666575 
L 128.542606 434.213366 
L 128.825952 235.790986 
L 129.109298 427.310162 
L 129.250971 394.457304 
L 129.392645 282.518042 
L 129.675991 423.50126 
L 129.817664 367.184968 
L 129.959337 407.290323 
L 130.10101 485.086446 
L 130.242683 245.181181 
L 130.526029 446.447222 
L 130.667702 325.471677 
L 130.809376 431.897658 
L 130.951049 333.035538 
L 131.234395 459.413956 
L 131.376068 302.668655 
L 131.517741 393.857228 
L 131.659414 304.355053 
L 131.801087 372.728343 
L 131.94276 355.783484 
L 132.084433 248.313066 
L 132.226107 306.716911 
L 132.36778 298.732674 
L 132.509453 340.680672 
L 132.792799 434.910803 
L 132.934472 316.335231 
L 133.217818 359.291221 
L 133.359491 353.542071 
L 133.501164 359.492093 
L 133.642838 371.174891 
L 133.784511 358.470924 
L 133.926184 387.756788 
L 134.067857 253.355097 
L 134.20953 292.776605 
L 134.351203 288.226097 
L 134.492876 364.870901 
L 134.634549 295.651951 
L 134.776222 471.964509 
L 134.917895 407.957832 
L 135.059569 243.2754 
L 135.342915 397.563396 
L 135.484588 321.848475 
L 135.626261 407.718688 
L 135.767934 296.649164 
L 135.909607 362.322736 
L 136.05128 509.197631 
L 136.192953 317.639816 
L 136.334626 379.943005 
L 136.4763 352.989669 
L 136.617973 484.519072 
L 136.901319 321.959551 
L 137.184665 395.332394 
L 137.326338 286.951667 
L 137.893031 433.103907 
L 138.034704 426.218153 
L 138.176377 320.991807 
L 138.31805 311.546273 
L 138.459723 242.376677 
L 138.601396 434.639753 
L 138.743069 370.635034 
L 138.884742 502.873327 
L 139.026415 396.711653 
L 139.168088 402.026293 
L 139.309762 349.114535 
L 139.593108 408.117882 
L 139.734781 295.725589 
L 139.876454 371.004228 
L 140.018127 362.399551 
L 140.1598 328.398256 
L 140.443146 437.273116 
L 140.726493 283.849877 
L 141.009839 433.985192 
L 141.151512 296.946052 
L 141.293185 399.82594 
L 141.434858 299.77645 
L 141.576531 505.656899 
L 141.718204 338.66588 
L 141.859877 320.412087 
L 142.00155 399.332744 
L 142.143224 410.493905 
L 142.284897 304.90489 
L 142.42657 369.832363 
L 142.568243 372.799942 
L 142.709916 538.693064 
L 142.851589 389.602828 
L 143.134935 407.533552 
L 143.276608 296.576886 
L 143.418281 350.45025 
L 143.559954 456.503215 
L 143.701628 458.760287 
L 143.843301 347.774212 
L 143.984974 410.584427 
L 144.26832 318.044735 
L 144.409993 436.126703 
L 144.551666 357.629407 
L 144.693339 461.432804 
L 144.976685 401.543288 
L 145.118359 375.161487 
L 145.260032 434.000645 
L 145.401705 441.396343 
L 145.543378 254.452065 
L 145.685051 419.479296 
L 145.968397 274.13928 
L 146.11007 304.525768 
L 146.251743 359.937024 
L 146.393416 350.214708 
L 146.53509 427.557399 
L 146.676763 353.824728 
L 146.818436 469.172472 
L 146.960109 311.830082 
L 147.101782 442.588338 
L 147.243455 456.550545 
L 147.385128 426.671227 
L 147.526801 369.999146 
L 147.668474 394.57653 
L 147.810147 349.678517 
L 147.951821 366.707653 
L 148.093494 297.922465 
L 148.235167 439.34657 
L 148.37684 437.083085 
L 148.518513 437.049027 
L 148.660186 273.477092 
L 148.801859 354.21959 
L 148.943532 335.080426 
L 149.085205 270.732522 
L 149.368552 429.783222 
L 149.510225 447.814792 
L 150.076917 207.03389 
L 150.360263 414.907867 
L 150.643609 450.773034 
L 150.926956 359.813824 
L 151.068629 376.92877 
L 151.210302 378.248544 
L 151.351975 251.145901 
L 151.635321 420.287653 
L 151.776994 324.637243 
L 151.918667 414.570059 
L 152.06034 368.78146 
L 152.202014 492.050026 
L 152.343687 327.070882 
L 152.768706 407.046078 
L 153.052052 344.006624 
L 153.193725 461.398047 
L 153.477071 231.780312 
L 153.760418 354.860362 
L 153.902091 404.594562 
L 154.043764 301.623904 
L 154.32711 425.754961 
L 154.468783 437.042222 
L 154.610456 460.037408 
L 154.752129 345.458598 
L 154.893802 406.902575 
L 155.177149 300.693777 
L 155.318822 399.691754 
L 155.460495 294.258754 
L 155.602168 396.768584 
L 155.743841 404.536847 
L 155.885514 377.693505 
L 156.027187 384.736443 
L 156.16886 344.005364 
L 156.310533 489.068789 
L 156.59388 387.750554 
L 156.735553 437.245557 
L 156.877226 237.915329 
L 157.018899 420.831316 
L 157.160572 292.397631 
L 157.302245 292.372679 
L 157.443918 340.124417 
L 157.585591 330.229249 
L 157.727264 427.837442 
L 158.152284 348.386339 
L 158.293957 427.275893 
L 158.43563 360.871355 
L 158.577303 350.101801 
L 158.718976 429.062193 
L 158.860649 439.084193 
L 159.143995 340.069551 
L 159.285669 411.347433 
L 159.427342 347.037031 
L 159.569015 366.180805 
L 159.710688 352.460302 
L 159.852361 294.279449 
L 159.994034 482.071889 
L 160.135707 486.174677 
L 160.419053 313.303564 
L 160.560726 369.403031 
L 160.7024 367.09889 
L 160.985746 246.520186 
L 161.410765 452.87502 
L 161.694111 324.812141 
L 161.835784 360.107749 
L 161.977457 306.356652 
L 162.119131 347.087733 
L 162.260804 238.390553 
L 162.402477 404.174032 
L 162.54415 219.042539 
L 162.685823 271.150174 
L 162.827496 452.289698 
L 162.969169 329.666587 
L 163.110842 372.59051 
L 163.252515 222.500099 
L 163.394188 386.327649 
L 163.535862 396.814614 
L 163.677535 315.841279 
L 163.819208 418.11621 
L 163.960881 425.054272 
L 164.102554 335.085147 
L 164.244227 335.841995 
L 164.3859 431.626536 
L 164.810919 235.939605 
L 165.094266 417.793774 
L 165.377612 282.303134 
L 165.519285 390.269593 
L 165.660958 406.520686 
L 165.802631 348.993618 
L 166.085977 432.35724 
L 166.22765 340.983438 
L 166.369324 375.838455 
L 166.510997 376.157204 
L 166.65267 297.780008 
L 166.936016 392.204004 
L 167.077689 330.572631 
L 167.219362 332.88305 
L 167.361035 532.636957 
L 167.644381 342.796299 
L 167.786054 451.012878 
L 167.927728 269.112296 
L 168.211074 426.226817 
L 168.49442 331.427202 
L 168.636093 365.242376 
L 168.777766 362.648891 
L 168.919439 414.4763 
L 169.061112 421.865718 
L 169.202785 459.339244 
L 169.344459 330.910274 
L 169.486132 462.986818 
L 169.627805 469.439003 
L 169.769478 412.004353 
L 169.911151 499.698606 
L 170.052824 350.201727 
L 170.477843 500.189064 
L 170.619516 304.106396 
L 170.76119 466.212777 
L 170.902863 354.729992 
L 171.044536 372.107107 
L 171.186209 441.729752 
L 171.327882 417.979125 
L 171.469555 448.136973 
L 171.611228 299.730838 
L 171.894574 405.171509 
L 172.036247 403.115554 
L 172.177921 360.560752 
L 172.319594 400.569474 
L 172.461267 391.261032 
L 172.60294 481.327322 
L 172.744613 468.831969 
L 172.886286 474.02447 
L 173.027959 369.634685 
L 173.311305 337.954686 
L 173.452978 438.791596 
L 173.594652 430.757239 
L 173.736325 460.73593 
L 173.877998 455.199928 
L 174.019671 482.959811 
L 174.303017 383.589208 
L 174.44469 330.858147 
L 174.586363 381.086018 
L 174.728036 234.829176 
L 174.869709 374.938519 
L 175.011383 352.136471 
L 175.153056 263.095725 
L 175.436402 367.879568 
L 175.578075 305.212424 
L 175.719748 427.604693 
L 175.861421 306.669705 
L 176.003094 448.039456 
L 176.144767 344.234418 
L 176.28644 399.802909 
L 176.428114 339.132034 
L 176.569787 332.613336 
L 176.71146 356.419653 
L 176.853133 350.293259 
L 176.994806 474.864318 
L 177.136479 429.12266 
L 177.278152 315.210315 
L 177.419825 358.546973 
L 177.561498 233.115013 
L 177.703171 362.450029 
L 177.844845 383.839783 
L 177.986518 432.863196 
L 178.128191 286.011104 
L 178.411537 288.316324 
L 178.55321 416.315061 
L 178.694883 388.729918 
L 178.836556 442.813197 
L 178.978229 420.823684 
L 179.119902 331.835113 
L 179.261576 353.238178 
L 179.403249 454.738513 
L 179.544922 307.856455 
L 179.686595 278.600102 
L 179.828268 402.304125 
L 179.969941 395.398022 
L 180.111614 371.504156 
L 180.253287 454.429317 
L 180.39496 333.891105 
L 180.536633 390.457373 
L 180.678307 281.995683 
L 180.81998 358.565481 
L 180.961653 339.09428 
L 181.103326 339.174679 
L 181.244999 334.729308 
L 181.386672 472.067382 
L 181.670018 287.448679 
L 181.811691 368.585311 
L 181.953364 384.672287 
L 182.095038 243.054122 
L 182.236711 389.723875 
L 182.378384 336.009756 
L 182.520057 441.589489 
L 182.945076 348.651898 
L 183.086749 259.749019 
L 183.228422 363.158972 
L 183.370095 366.601472 
L 183.511769 384.25937 
L 183.653442 274.926847 
L 183.795115 409.650214 
L 183.936788 190.605481 
L 184.220134 409.232677 
L 184.50348 389.476352 
L 184.645153 465.425344 
L 184.786826 446.112604 
L 185.070173 370.305443 
L 185.211846 425.229695 
L 185.353519 363.376765 
L 185.495192 421.558679 
L 185.636865 380.017031 
L 185.778538 294.158008 
L 185.920211 514.021865 
L 186.061884 390.279928 
L 186.203557 470.610122 
L 186.486904 366.585334 
L 186.628577 376.013995 
L 186.77025 392.925243 
L 187.053596 196.408588 
L 187.195269 353.266986 
L 187.336942 330.102353 
L 187.478615 472.716167 
L 187.761962 269.318911 
L 187.903635 407.106764 
L 188.045308 347.882707 
L 188.186981 457.495778 
L 188.328654 315.524743 
L 188.470327 432.308469 
L 188.612 339.710465 
L 188.753673 347.523334 
L 188.895346 407.625619 
L 189.037019 349.260546 
L 189.178693 433.764017 
L 189.462039 358.608094 
L 189.603712 448.605977 
L 189.745385 297.881421 
L 189.887058 367.436519 
L 190.028731 295.409027 
L 190.170404 302.476546 
L 190.312077 315.563897 
L 190.45375 367.931338 
L 190.595424 291.20703 
L 190.737097 443.765693 
L 190.87877 405.445517 
L 191.020443 334.736373 
L 191.303789 447.016366 
L 191.445462 451.256473 
L 191.587135 421.381696 
L 191.728808 238.517799 
L 191.870481 287.184831 
L 192.012154 381.37469 
L 192.153828 364.950876 
L 192.295501 481.045842 
L 192.437174 321.13069 
L 192.578847 344.203162 
L 192.72052 433.80539 
L 193.003866 253.577441 
L 193.145539 422.302554 
L 193.287212 442.981398 
L 193.570559 313.421542 
L 193.712232 409.770341 
L 193.853905 351.555544 
L 193.995578 380.230031 
L 194.137251 336.257033 
L 194.278924 476.091605 
L 194.420597 343.922878 
L 194.56227 479.888984 
L 194.703943 335.426364 
L 194.845616 467.966195 
L 194.98729 194.843443 
L 195.128963 436.22362 
L 195.270636 356.57735 
L 195.412309 424.939652 
L 195.553982 323.88108 
L 195.837328 393.004097 
L 195.979001 412.368679 
L 196.262347 300.41707 
L 196.404021 393.246706 
L 196.545694 312.498059 
L 196.687367 471.750625 
L 196.82904 306.20864 
L 196.970713 348.988712 
L 197.112386 322.263492 
L 197.395732 483.744999 
L 197.537405 341.364242 
L 197.820752 336.451008 
L 197.962425 361.324571 
L 198.104098 297.997447 
L 198.245771 455.069965 
L 198.387444 247.920874 
L 198.67079 370.484272 
L 198.812463 358.318203 
L 198.954136 438.058692 
L 199.095809 335.441218 
L 199.237483 378.947922 
L 199.379156 328.699969 
L 199.520829 226.973953 
L 199.662502 402.940186 
L 199.804175 318.721765 
L 199.945848 446.470572 
L 200.087521 384.999528 
L 200.229194 405.656713 
L 200.370867 288.374511 
L 200.51254 331.335553 
L 200.795887 430.791437 
L 201.079233 331.488432 
L 201.220906 366.286093 
L 201.362579 444.502231 
L 201.504252 389.034762 
L 201.787598 402.083849 
L 201.929271 348.154943 
L 202.070945 389.172007 
L 202.212618 381.408542 
L 202.354291 319.7402 
L 202.637637 415.098639 
L 202.77931 372.207844 
L 202.920983 398.298618 
L 203.062656 263.661686 
L 203.204329 384.627016 
L 203.346002 372.355302 
L 203.487676 383.341556 
L 203.629349 382.020563 
L 203.771022 316.733805 
L 203.912695 508.002082 
L 204.054368 401.55382 
L 204.196041 442.874276 
L 204.337714 359.499361 
L 204.479387 346.595383 
L 204.62106 382.079307 
L 204.762733 452.688125 
L 204.904407 398.279315 
L 205.04608 403.087092 
L 205.187753 478.915759 
L 205.329426 364.554841 
L 205.471099 377.10319 
L 205.754445 518.112202 
L 205.896118 391.218426 
L 206.037791 377.030417 
L 206.179464 424.181048 
L 206.321138 369.808138 
L 206.462811 368.644933 
L 206.604484 420.422004 
L 206.746157 327.335307 
L 207.029503 483.312544 
L 207.171176 337.503308 
L 207.454522 403.885686 
L 207.596195 372.21833 
L 207.737869 421.191336 
L 207.879542 295.254982 
L 208.021215 340.686414 
L 208.162888 283.681988 
L 208.304561 382.04991 
L 208.446234 396.164412 
L 208.72958 285.281775 
L 208.871253 308.893555 
L 209.012926 388.71959 
L 209.1546 285.000866 
L 209.296273 271.464005 
L 209.721292 462.46292 
L 209.862965 376.838607 
L 210.004638 407.786684 
L 210.146311 473.73808 
L 210.287984 386.563968 
L 210.571331 372.497125 
L 210.713004 428.251362 
L 210.99635 327.339537 
L 211.138023 447.489829 
L 211.279696 390.598079 
L 211.421369 408.979211 
L 211.563042 411.558351 
L 211.704715 409.400585 
L 211.846388 219.507194 
L 211.988062 454.529048 
L 212.129735 401.132374 
L 212.271408 433.909898 
L 212.413081 310.932141 
L 212.696427 426.334555 
L 212.8381 402.785523 
L 212.979773 451.67262 
L 213.121446 306.464332 
L 213.546466 491.377244 
L 213.688139 452.640266 
L 213.829812 302.921971 
L 214.113158 367.485567 
L 214.254831 380.274488 
L 214.396504 280.351549 
L 214.538177 404.120452 
L 214.67985 403.548981 
L 214.963197 316.550105 
L 215.246543 465.433526 
L 215.388216 398.17657 
L 215.529889 489.601222 
L 215.813235 273.729337 
L 215.954908 446.560113 
L 216.096581 333.004445 
L 216.238254 408.85874 
L 216.379928 276.940908 
L 216.521601 361.57502 
L 216.663274 358.489079 
L 216.804947 359.714717 
L 216.94662 300.368964 
L 217.088293 415.195191 
L 217.229966 277.657343 
L 217.371639 359.292614 
L 217.513312 360.750225 
L 217.654985 486.812673 
L 217.938332 297.926326 
L 218.080005 404.623659 
L 218.221678 316.930838 
L 218.363351 367.203364 
L 218.505024 457.052334 
L 218.646697 276.308294 
L 218.78837 391.240173 
L 218.930043 391.2574 
L 219.071716 377.54329 
L 219.21339 458.01447 
L 219.355063 340.359948 
L 219.496736 447.839035 
L 220.205101 323.192876 
L 220.346774 351.874953 
L 220.488447 467.214869 
L 220.630121 364.673881 
L 220.771794 357.987129 
L 220.913467 459.145678 
L 221.05514 279.428082 
L 221.196813 288.220681 
L 221.338486 404.343144 
L 221.480159 299.96713 
L 221.621832 483.017919 
L 221.763505 346.992839 
L 221.905178 449.578277 
L 222.046852 450.760559 
L 222.330198 310.230784 
L 222.471871 327.132372 
L 222.613544 416.788882 
L 222.755217 383.173989 
L 222.89689 403.827508 
L 223.038563 394.791891 
L 223.180236 313.112433 
L 223.321909 322.398844 
L 223.463583 280.424394 
L 223.746929 486.514244 
L 223.888602 436.275976 
L 224.030275 252.493003 
L 224.171948 333.255752 
L 224.313621 304.021471 
L 224.596967 357.040258 
L 224.73864 363.759482 
L 224.880314 322.505097 
L 225.021987 385.708985 
L 225.16366 376.110403 
L 225.305333 348.734859 
L 225.447006 347.916176 
L 225.588679 293.289851 
L 225.730352 514.824205 
L 225.872025 326.531557 
L 226.013698 305.03816 
L 226.297045 467.246172 
L 226.580391 348.571043 
L 226.722064 411.088871 
L 226.863737 327.277061 
L 227.147083 383.770188 
L 227.430429 262.98752 
L 227.572102 373.552392 
L 227.713776 396.897473 
L 227.855449 449.996118 
L 227.997122 415.352435 
L 228.280468 204.626709 
L 228.422141 330.102733 
L 228.705487 285.899139 
L 228.84716 447.48992 
L 228.988833 466.450059 
L 229.130507 391.285695 
L 229.27218 459.930208 
L 229.413853 349.084478 
L 229.555526 363.154662 
L 229.697199 271.431597 
L 229.838872 418.984572 
L 229.980545 427.991471 
L 230.122218 331.472004 
L 230.263891 389.465439 
L 230.405564 291.366457 
L 230.688911 416.244132 
L 230.830584 503.771692 
L 230.972257 342.870007 
L 231.255603 434.348379 
L 231.397276 425.704954 
L 231.822295 287.641517 
L 231.963969 308.922742 
L 232.105642 269.263405 
L 232.247315 436.886476 
L 232.388988 391.599075 
L 232.530661 305.534749 
L 232.814007 470.828661 
L 232.95568 437.319454 
L 233.097353 295.19035 
L 233.239026 445.483914 
L 233.3807 353.042698 
L 233.522373 388.201854 
L 233.664046 291.363301 
L 233.805719 283.712886 
L 233.947392 375.702149 
L 234.230738 335.155341 
L 234.514084 379.09859 
L 234.797431 437.238867 
L 234.939104 374.184109 
L 235.22245 425.475056 
L 235.364123 356.470673 
L 235.647469 423.211353 
L 235.789142 304.738911 
L 235.930815 415.470948 
L 236.072488 380.041429 
L 236.214162 398.832037 
L 236.355835 399.901738 
L 236.639181 311.189275 
L 236.780854 438.476458 
L 236.922527 334.346344 
L 237.0642 435.777351 
L 237.205873 444.808745 
L 237.489219 356.036569 
L 237.630893 420.048701 
L 237.772566 400.06067 
L 237.914239 286.496407 
L 238.055912 423.95716 
L 238.339258 312.927216 
L 238.480931 390.873925 
L 238.622604 355.213496 
L 238.764277 421.846768 
L 238.90595 348.289939 
L 239.047624 374.033301 
L 239.189297 349.99648 
L 239.472643 198.741441 
L 239.755989 428.784156 
L 239.897662 317.965521 
L 240.039335 295.573782 
L 240.181008 425.387897 
L 240.322681 313.053692 
L 240.889374 504.344771 
L 241.031047 384.120539 
L 241.17272 466.026466 
L 241.314393 425.869499 
L 241.456066 440.174003 
L 241.597739 414.709642 
L 241.739412 435.85355 
L 241.881085 368.348355 
L 242.164432 442.790249 
L 242.306105 377.918568 
L 242.447778 474.423491 
L 242.589451 302.204058 
L 242.731124 479.039711 
L 242.872797 352.954473 
L 243.01447 391.847131 
L 243.156143 336.962835 
L 243.297816 357.265936 
L 243.43949 430.470884 
L 243.581163 397.294274 
L 243.722836 425.697275 
L 243.864509 363.666412 
L 244.006182 381.134458 
L 244.147855 418.407728 
L 244.289528 371.559093 
L 244.431201 414.597113 
L 244.572874 412.997801 
L 244.714547 458.254567 
L 244.997894 376.547237 
L 245.139567 284.317828 
L 245.28124 465.087608 
L 245.422913 358.242737 
L 245.564586 337.731539 
L 245.706259 293.663421 
L 245.847932 401.299049 
L 245.989605 262.785586 
L 246.131278 384.485918 
L 246.272952 400.336922 
L 246.414625 365.463258 
L 246.556298 392.64584 
L 246.697971 282.761068 
L 246.981317 441.78405 
L 247.12299 386.072106 
L 247.264663 478.409796 
L 247.406336 466.459215 
L 247.548009 227.897955 
L 247.689683 258.64431 
L 247.973029 449.046188 
L 248.256375 257.220321 
L 248.681394 429.556444 
L 248.823067 247.519686 
L 248.96474 411.366375 
L 249.106414 365.691471 
L 249.248087 374.271976 
L 249.38976 263.462744 
L 249.673106 460.095615 
L 249.814779 447.165045 
L 250.098125 339.704523 
L 250.239798 489.6508 
L 250.381471 344.200855 
L 250.523145 470.831184 
L 250.664818 481.822389 
L 250.948164 336.80272 
L 251.089837 289.142945 
L 251.23151 300.333256 
L 251.373183 219.850819 
L 251.514856 434.391205 
L 251.798202 361.218141 
L 251.939876 202.008324 
L 252.081549 458.966248 
L 252.223222 366.563224 
L 252.364895 366.929293 
L 252.506568 346.80206 
L 252.648241 217.813898 
L 252.931587 417.015538 
L 253.07326 450.808759 
L 253.214933 378.461687 
L 253.356607 412.126484 
L 253.49828 401.49328 
L 253.639953 296.220896 
L 253.781626 315.29794 
L 253.923299 379.984307 
L 254.064972 271.096649 
L 254.206645 456.188561 
L 254.348318 312.074227 
L 254.489991 471.699829 
L 254.631664 504.532433 
L 255.056684 312.170858 
L 255.34003 481.707346 
L 255.765049 339.9208 
L 256.048395 449.98008 
L 256.190069 214.881987 
L 256.473415 395.582989 
L 256.615088 360.792971 
L 256.756761 495.665402 
L 257.040107 370.460581 
L 257.18178 357.441144 
L 257.323453 580.503039 
L 257.465126 328.614959 
L 257.6068 334.414808 
L 257.748473 348.248532 
L 257.890146 442.644191 
L 258.031819 309.849823 
L 258.173492 390.475689 
L 258.315165 379.025313 
L 258.456838 534.376671 
L 258.598511 451.554125 
L 258.740184 436.986409 
L 258.881857 404.506021 
L 259.023531 430.992959 
L 259.165204 381.577615 
L 259.306877 443.775316 
L 259.44855 422.739993 
L 259.590223 325.623628 
L 259.731896 516.050558 
L 259.873569 400.683808 
L 260.015242 459.740607 
L 260.156915 434.705419 
L 260.298588 461.48973 
L 260.440262 462.994497 
L 260.581935 341.01302 
L 260.723608 377.728676 
L 260.865281 267.265651 
L 261.006954 460.265544 
L 261.148627 359.960941 
L 261.431973 457.89962 
L 261.715319 389.554176 
L 261.856993 463.639046 
L 262.282012 351.515706 
L 262.423685 349.44789 
L 262.565358 457.635356 
L 262.848704 362.342491 
L 263.13205 453.59205 
L 263.415397 451.574384 
L 263.698743 459.898501 
L 264.265435 383.53801 
L 264.548781 373.99303 
L 264.832128 354.752505 
L 265.115474 402.356174 
L 265.39882 334.76534 
L 265.682166 440.081419 
L 265.965512 401.304549 
L 266.248859 346.818395 
L 266.532205 357.784678 
L 266.815551 391.865168 
L 267.098897 343.162065 
L 267.382243 398.025041 
L 267.66559 400.480985 
L 267.948936 459.671568 
L 268.232282 308.775959 
L 268.515628 344.685544 
L 268.798974 446.098145 
L 269.082321 305.147333 
L 269.365667 408.765965 
L 269.649013 357.322901 
L 269.932359 378.945052 
L 270.215705 358.625479 
L 270.499052 441.691152 
L 270.782398 405.157922 
L 271.065744 429.361318 
L 271.34909 306.630089 
L 271.632436 369.633817 
L 271.915783 358.314536 
L 272.199129 431.186161 
L 272.482475 412.820805 
L 273.049167 274.995209 
L 273.332514 397.171406 
L 273.61586 376.062116 
L 274.182552 413.650343 
L 274.465898 430.936777 
L 274.749245 288.686994 
L 275.032591 383.845911 
L 275.315937 378.1565 
L 275.599283 303.668366 
L 275.882629 314.151505 
L 276.165976 394.715966 
L 276.449322 413.544923 
L 276.732668 194.35818 
L 277.016014 263.254491 
L 277.29936 398.340096 
L 277.582707 277.919091 
L 278.432745 555.53554 
L 278.716091 312.984958 
L 278.999438 494.769044 
L 279.282784 373.688459 
L 279.56613 323.245023 
L 279.849476 395.784799 
L 280.416169 441.903228 
L 280.699515 374.868766 
L 280.982861 344.899153 
L 281.266207 449.94023 
L 281.549553 427.89403 
L 282.116246 350.511865 
L 282.399592 357.285718 
L 282.682938 401.339031 
L 282.966284 361.008163 
L 283.249631 377.514011 
L 283.532977 296.007427 
L 283.816323 456.926471 
L 284.099669 391.331097 
L 284.383015 411.434032 
L 284.666362 374.046607 
L 284.949708 403.565611 
L 285.233054 335.703408 
L 285.5164 389.449231 
L 285.799746 287.126381 
L 286.083093 314.289965 
L 286.366439 370.17112 
L 286.649785 321.6744 
L 286.933131 343.332701 
L 287.216477 379.731466 
L 287.499823 366.339272 
L 287.78317 488.651793 
L 288.066516 432.574699 
L 288.349862 476.924696 
L 288.633208 223.143297 
L 288.916554 433.147024 
L 289.199901 385.627287 
L 289.483247 359.41363 
L 289.766593 344.474668 
L 290.049939 486.775391 
L 290.333285 449.659207 
L 290.616632 446.657525 
L 290.899978 459.05636 
L 291.183324 370.464438 
L 291.46667 449.50506 
L 291.750016 412.4951 
L 292.033363 427.912493 
L 292.316709 349.20929 
L 292.600055 526.577371 
L 292.883401 430.842577 
L 293.166747 252.604046 
L 293.73344 438.479237 
L 294.016786 383.046684 
L 294.300132 488.909418 
L 294.583478 365.808251 
L 294.866825 316.812468 
L 295.150171 411.498989 
L 295.433517 387.948475 
L 295.716863 352.89213 
L 296.000209 372.406531 
L 296.283556 381.131222 
L 296.566902 421.303011 
L 296.850248 334.294596 
L 297.133594 472.180931 
L 297.41694 400.517278 
L 297.700287 372.552871 
L 297.983633 478.112932 
L 298.266979 445.006211 
L 298.550325 383.781828 
L 298.833671 379.742604 
L 299.117018 280.883759 
L 299.400364 427.018293 
L 299.68371 390.070336 
L 299.967056 486.346641 
L 300.250402 388.628583 
L 300.533749 413.858688 
L 300.817095 377.349878 
L 301.100441 280.149159 
L 301.383787 441.160537 
L 301.667133 508.282757 
L 301.95048 311.68889 
L 302.233826 257.571239 
L 302.517172 426.037428 
L 302.800518 426.546283 
L 303.083864 436.619535 
L 303.367211 306.438925 
L 303.650557 499.026097 
L 303.933903 405.540044 
L 304.217249 359.728174 
L 304.500595 368.623003 
L 304.783942 370.44003 
L 305.067288 176.369526 
L 305.350634 358.018037 
L 305.63398 428.96246 
L 305.917326 215.279255 
L 306.200673 371.191836 
L 306.484019 340.945991 
L 306.767365 439.679683 
L 307.050711 351.409237 
L 307.334057 322.196503 
L 307.617404 392.19467 
L 307.90075 398.059168 
L 308.184096 274.15267 
L 308.467442 492.930873 
L 308.750788 320.326481 
L 309.034135 429.81759 
L 309.317481 412.663041 
L 309.600827 357.106587 
L 309.884173 387.488969 
L 310.167519 388.445645 
L 310.450866 351.537223 
L 310.734212 381.645549 
L 311.017558 394.726663 
L 311.300904 445.947561 
L 311.58425 282.115351 
L 311.867597 396.382608 
L 312.150943 351.062415 
L 312.434289 390.441412 
L 312.717635 343.575901 
L 313.000981 322.721722 
L 313.284328 379.731748 
L 313.567674 323.776358 
L 313.85102 427.242603 
L 314.134366 327.217714 
L 314.417712 310.13925 
L 314.701059 413.139568 
L 314.984405 331.513298 
L 315.267751 367.1458 
L 315.551097 379.621172 
L 315.834443 410.142581 
L 316.11779 383.853565 
L 316.401136 343.438637 
L 316.684482 406.349154 
L 317.251174 259.155831 
L 317.534521 414.035083 
L 317.817867 311.521909 
L 318.101213 394.06673 
L 318.384559 326.974516 
L 318.667905 325.197158 
L 318.951252 415.889345 
L 319.234598 373.003617 
L 319.517944 435.518448 
L 319.80129 441.940577 
L 320.084636 366.042183 
L 320.651329 294.82259 
L 320.934675 399.557347 
L 321.218021 419.439357 
L 321.501367 285.883971 
L 321.784714 348.418826 
L 322.06806 334.053539 
L 322.351406 353.463208 
L 322.634752 308.714074 
L 322.918098 420.803776 
L 323.201445 421.499589 
L 323.484791 414.946688 
L 323.768137 373.622511 
L 324.051483 361.96414 
L 324.334829 372.671699 
L 324.618176 314.390248 
L 324.901522 444.369062 
L 325.184868 445.362236 
L 325.468214 368.692979 
L 325.75156 348.703258 
L 326.034907 242.947892 
L 326.318253 351.348817 
L 326.601599 319.438347 
L 326.884945 227.362704 
L 327.168291 310.240043 
L 327.451638 312.277798 
L 327.734984 423.069325 
L 328.01833 386.237375 
L 328.301676 243.843824 
L 328.585022 365.808164 
L 329.151715 464.241939 
L 329.435061 457.775578 
L 329.718407 308.79419 
L 330.001753 379.705305 
L 330.2851 380.690493 
L 330.568446 313.049517 
L 330.851792 435.916256 
L 331.135138 409.227936 
L 331.418484 325.645882 
L 331.701831 340.187187 
L 331.985177 425.798691 
L 332.268523 470.96265 
L 332.551869 278.716223 
L 332.835215 461.539657 
L 333.118562 318.704498 
L 333.401908 417.352269 
L 333.685254 374.815787 
L 333.9686 468.415628 
L 334.251946 370.938874 
L 334.535293 331.671752 
L 334.818639 324.024837 
L 335.101985 412.140369 
L 335.385331 326.53249 
L 335.668677 376.802021 
L 335.952023 378.921921 
L 336.23537 357.017817 
L 336.518716 370.614491 
L 336.802062 392.819189 
L 337.085408 312.20567 
L 337.368754 375.89248 
L 337.652101 393.927197 
L 337.935447 456.455582 
L 338.218793 284.269786 
L 338.502139 244.605201 
L 338.785485 456.370845 
L 339.068832 323.45103 
L 339.352178 346.702146 
L 339.635524 318.484822 
L 339.91887 333.400366 
L 340.202216 407.168138 
L 340.485563 363.05925 
L 340.768909 413.017447 
L 341.052255 375.094472 
L 341.335601 402.65284 
L 341.618947 351.946483 
L 341.902294 365.136348 
L 342.468986 333.124621 
L 342.752332 377.05516 
L 343.035678 328.990819 
L 343.319025 391.380937 
L 343.602371 363.545274 
L 343.885717 437.238161 
L 344.452409 350.736988 
L 344.735756 435.171855 
L 345.019102 378.815381 
L 345.302448 400.30949 
L 345.585794 447.045243 
L 345.86914 337.666724 
L 346.152487 292.912442 
L 346.435833 323.697733 
L 346.719179 300.223562 
L 347.002525 327.087698 
L 347.285871 317.501114 
L 347.569218 357.342773 
L 347.852564 417.932981 
L 348.13591 343.967978 
L 348.419256 446.866173 
L 348.702602 423.706977 
L 348.985949 348.610858 
L 349.269295 333.512293 
L 349.552641 282.571871 
L 350.119333 375.374808 
L 350.40268 404.291936 
L 350.686026 279.851082 
L 350.969372 482.048823 
L 351.252718 359.933493 
L 351.536064 483.259528 
L 351.819411 404.897274 
L 352.102757 291.563297 
L 352.386103 350.568851 
L 352.669449 467.700649 
L 352.952795 458.558449 
L 353.236142 370.240147 
L 353.519488 400.428199 
L 353.802834 388.193422 
L 354.08618 212.942088 
L 354.369526 430.944578 
L 354.652873 408.444822 
L 354.936219 287.775486 
L 355.219565 433.541388 
L 355.502911 412.787464 
L 355.786257 454.093221 
L 356.069604 456.280705 
L 356.35295 278.879492 
L 356.636296 343.338074 
L 357.202988 432.631423 
L 357.486335 418.234064 
L 357.769681 512.671377 
L 358.053027 461.287696 
L 358.336373 516.783387 
L 358.619719 376.525563 
L 358.903066 341.140167 
L 359.469758 319.879311 
L 359.753104 327.652761 
L 360.03645 448.996594 
L 360.319797 191.685678 
L 360.603143 312.271248 
L 360.886489 291.225756 
L 361.169835 424.853012 
L 361.453181 401.744253 
L 361.736528 278.651496 
L 362.019874 428.895535 
L 362.30322 474.016047 
L 362.586566 270.970661 
L 362.869912 338.953135 
L 363.153259 222.067755 
L 363.719951 419.515029 
L 364.286643 303.544578 
L 364.56999 415.336103 
L 364.853336 428.121778 
L 365.136682 405.405963 
L 365.420028 364.960061 
L 365.703374 371.714216 
L 365.986721 454.991842 
L 366.553413 280.742604 
L 366.836759 420.781997 
L 367.120105 241.224351 
L 367.403452 375.101327 
L 367.686798 447.97509 
L 367.970144 337.060473 
L 368.25349 360.344871 
L 368.536836 342.830364 
L 368.820183 366.648594 
L 369.103529 365.819658 
L 369.386875 372.120173 
L 369.670221 429.995432 
L 369.953567 429.110969 
L 370.236914 415.977924 
L 370.52026 393.942884 
L 370.803606 384.39748 
L 371.086952 428.709138 
L 371.370298 362.046869 
L 371.653645 386.17534 
L 371.936991 395.797199 
L 372.220337 354.016352 
L 372.503683 430.979952 
L 372.787029 351.077992 
L 373.353722 487.072548 
L 373.637068 453.999657 
L 373.920414 383.462427 
L 374.20376 436.549529 
L 374.487107 391.481901 
L 374.770453 453.599532 
L 375.053799 264.156689 
L 375.337145 451.720828 
L 375.620491 288.273254 
L 375.903838 407.191872 
L 376.187184 385.029307 
L 376.47053 436.246523 
L 376.753876 314.926068 
L 377.037222 379.580128 
L 377.320569 487.624138 
L 377.603915 414.438058 
L 377.887261 383.080318 
L 378.170607 392.820777 
L 378.453953 255.640454 
L 378.7373 334.29713 
L 379.020646 328.791181 
L 379.303992 412.194717 
L 379.587338 403.442351 
L 379.870684 369.993216 
L 380.154031 441.762086 
L 380.437377 409.585894 
L 380.720723 309.733114 
L 381.004069 397.164934 
L 381.287415 345.825519 
L 381.570762 334.339455 
L 381.854108 369.873307 
L 382.137454 445.188371 
L 382.4208 336.644543 
L 382.704146 398.555101 
L 382.987492 379.870634 
L 383.270839 344.833467 
L 383.554185 337.386043 
L 383.837531 454.985907 
L 384.120877 249.084098 
L 384.404223 305.133591 
L 384.68757 326.974391 
L 384.970916 442.018946 
L 385.254262 396.810171 
L 385.537608 392.121286 
L 385.820954 315.794289 
L 386.104301 474.364407 
L 386.387647 450.933465 
L 386.670993 500.069797 
L 386.954339 411.762747 
L 387.237685 430.278671 
L 387.804378 291.762508 
L 388.087724 247.900035 
L 388.37107 422.616923 
L 388.654416 381.089119 
L 388.937763 258.203791 
L 389.221109 406.198297 
L 389.504455 480.398457 
L 389.787801 442.147987 
L 390.071147 370.54748 
L 390.354494 241.101027 
L 390.63784 398.88207 
L 390.921186 271.178439 
L 391.204532 406.090892 
L 391.487878 437.539125 
L 391.771225 177.776849 
L 392.054571 347.760334 
L 392.337917 436.837613 
L 392.621263 395.111256 
L 392.904609 445.431296 
L 393.187956 381.311728 
L 393.471302 412.199979 
L 393.754648 479.502562 
L 394.037994 444.514706 
L 394.32134 313.884173 
L 394.888033 357.209437 
L 395.171379 502.205345 
L 395.454725 419.314924 
L 395.738071 386.179969 
L 396.021418 376.140473 
L 396.304764 383.953236 
L 396.58811 410.370669 
L 396.871456 366.79299 
L 397.154802 266.481262 
L 397.438149 260.080641 
L 398.004841 413.792855 
L 398.288187 457.553397 
L 398.571533 454.737353 
L 398.85488 372.446978 
L 399.138226 234.415947 
L 399.421572 402.98807 
L 399.704918 456.242388 
L 399.988264 244.899966 
L 400.271611 388.343612 
L 400.554957 321.423599 
L 400.838303 370.619836 
L 401.404995 342.599352 
L 401.688342 368.697825 
L 401.971688 363.846625 
L 402.255034 488.139124 
L 402.53838 371.527048 
L 402.821726 326.497526 
L 403.105073 418.746362 
L 403.388419 419.300772 
L 403.671765 417.615246 
L 403.955111 358.003248 
L 404.238457 360.586014 
L 404.521804 409.392198 
L 404.80515 317.408182 
L 405.088496 340.815773 
L 405.371842 279.898047 
L 405.655188 375.057798 
L 405.938535 313.113625 
L 406.221881 287.223515 
L 406.505227 398.240173 
L 406.788573 463.463301 
L 407.071919 348.213226 
L 407.355266 346.123692 
L 407.638612 341.887617 
L 407.921958 455.549636 
L 408.205304 400.220121 
L 408.48865 416.187585 
L 408.771997 322.42806 
L 409.055343 439.3196 
L 409.338689 384.926397 
L 409.622035 296.292659 
L 409.905381 295.518994 
L 410.188728 408.35146 
L 410.472074 423.019371 
L 410.75542 353.780621 
L 411.038766 366.497012 
L 411.322112 350.219689 
L 411.605459 422.006789 
L 411.888805 384.444052 
L 412.172151 257.362936 
L 412.455497 445.264901 
L 412.738843 326.820527 
L 413.02219 373.766884 
L 413.305536 330.558055 
L 413.588882 327.641712 
L 413.872228 476.744206 
L 414.438921 346.594718 
L 414.722267 342.904097 
L 415.288959 464.255716 
L 415.855652 362.686509 
L 416.138998 470.930098 
L 416.422344 415.835605 
L 416.70569 403.693087 
L 416.989036 460.755081 
L 417.272383 410.406959 
L 417.555729 335.791064 
L 417.839075 387.920831 
L 418.405767 365.819717 
L 418.689114 409.867947 
L 418.97246 287.004652 
L 419.255806 462.503936 
L 419.539152 392.282499 
L 419.822498 282.109497 
L 420.105845 486.915691 
L 420.389191 284.669347 
L 420.955883 381.579276 
L 421.239229 365.951272 
L 421.522576 463.510865 
L 421.805922 405.048814 
L 422.089268 313.592884 
L 422.372614 488.423189 
L 422.939307 283.575001 
L 423.222653 348.632253 
L 423.789345 396.151733 
L 424.072691 304.183986 
L 424.356038 334.645896 
L 424.639384 421.949943 
L 424.92273 302.691362 
L 425.206076 413.318016 
L 425.489422 264.639448 
L 425.772769 333.977235 
L 426.056115 479.346149 
L 426.339461 392.524247 
L 426.622807 436.499905 
L 426.906153 296.6127 
L 427.1895 318.419019 
L 427.472846 308.484378 
L 427.756192 278.338884 
L 428.039538 481.980456 
L 428.322884 365.239977 
L 428.606231 467.559353 
L 428.889577 350.23941 
L 429.172923 469.101425 
L 429.456269 402.69201 
L 429.739615 396.635787 
L 430.022962 357.734931 
L 430.306308 412.395471 
L 430.589654 338.387989 
L 430.873 369.47453 
L 431.156346 432.530122 
L 431.439692 420.488758 
L 431.723039 326.152986 
L 432.006385 412.565804 
L 432.289731 378.536152 
L 432.573077 477.316225 
L 432.856423 354.251467 
L 433.13977 418.24697 
L 433.423116 301.474994 
L 433.989808 435.027902 
L 434.556501 461.942803 
L 434.839847 445.937941 
L 435.123193 360.228063 
L 435.406539 412.384264 
L 435.689885 339.370385 
L 435.973232 433.253037 
L 436.256578 396.517536 
L 436.539924 465.129509 
L 436.82327 431.30354 
L 437.106616 436.221037 
L 437.389963 255.891804 
L 437.673309 346.201431 
L 437.956655 378.328493 
L 438.240001 351.696944 
L 438.523347 180.68955 
L 439.09004 488.033855 
L 439.373386 387.83397 
L 439.656732 429.712702 
L 439.940078 362.286745 
L 440.223425 370.357584 
L 440.506771 334.536902 
L 440.790117 318.594411 
L 441.073463 250.310239 
L 441.356809 394.970559 
L 441.640156 355.705384 
L 441.923502 335.149201 
L 442.206848 397.111996 
L 442.490194 389.430413 
L 442.77354 315.57174 
L 443.056887 330.821279 
L 443.340233 381.450723 
L 443.623579 358.889553 
L 443.906925 309.661302 
L 444.190271 377.847988 
L 444.473618 389.249106 
L 444.756964 250.62061 
L 445.04031 366.042731 
L 445.323656 356.416814 
L 445.607002 380.177733 
L 445.890349 390.286499 
L 446.173695 388.394873 
L 446.457041 431.108631 
L 447.023733 363.830382 
L 447.30708 351.724617 
L 447.590426 292.148204 
L 447.873772 295.526836 
L 448.157118 445.172306 
L 448.440464 434.177465 
L 448.723811 307.925475 
L 449.007157 306.427655 
L 449.290503 346.355731 
L 449.573849 324.178317 
L 449.857195 377.496377 
L 450.140542 394.922375 
L 450.423888 374.792198 
L 450.707234 370.877584 
L 450.99058 404.064146 
L 451.273926 381.620606 
L 451.557273 369.335351 
L 451.840619 369.012369 
L 452.123965 386.207242 
L 452.407311 420.102055 
L 452.690657 180.974813 
L 452.974004 263.654071 
L 453.25735 487.094283 
L 453.540696 422.533739 
L 453.824042 384.332676 
L 454.107388 370.355766 
L 454.390735 441.626509 
L 454.674081 436.579412 
L 454.957427 465.015993 
L 455.240773 480.009781 
L 455.524119 457.008724 
L 455.807466 399.368087 
L 456.090812 488.826433 
L 456.374158 412.314471 
L 456.657504 408.777179 
L 456.94085 339.264946 
L 457.224197 348.007195 
L 457.507543 456.999469 
L 457.790889 354.882078 
L 458.074235 329.03983 
L 458.357581 477.00874 
L 459.20762 287.533069 
L 459.774312 426.793258 
L 460.057659 308.307168 
L 460.341005 367.375791 
L 460.624351 386.522432 
L 460.907697 316.827168 
L 461.191043 337.889553 
L 461.47439 390.177344 
L 462.041082 360.800516 
L 462.324428 257.065028 
L 462.607774 457.272778 
L 462.891121 294.382021 
L 463.174467 363.38973 
L 463.457813 372.528088 
L 463.741159 389.623729 
L 464.024505 421.437351 
L 464.307852 468.512425 
L 464.591198 418.069158 
L 464.874544 420.028724 
L 465.15789 281.042512 
L 465.441236 232.096352 
L 465.724583 363.229636 
L 466.007929 395.503012 
L 466.291275 349.732584 
L 466.574621 281.09894 
L 466.857967 444.482586 
L 467.141314 410.622538 
L 467.42466 403.782081 
L 467.708006 419.645982 
L 467.991352 405.660907 
L 468.274698 403.879361 
L 468.558045 495.886786 
L 468.841391 360.761511 
L 469.124737 325.6591 
L 469.408083 376.052066 
L 469.691429 475.175634 
L 469.974776 330.909293 
L 470.541468 423.272602 
L 470.824814 304.980741 
L 471.391507 378.81609 
L 471.958199 471.097009 
L 472.241545 421.675801 
L 472.524891 294.943 
L 472.808238 282.755346 
L 473.091584 303.954758 
L 473.941622 434.292699 
L 474.508315 302.248189 
L 474.791661 351.796167 
L 475.075007 336.409208 
L 475.358353 398.67427 
L 475.6417 361.185715 
L 475.925046 432.192909 
L 476.208392 445.462984 
L 476.491738 386.023358 
L 476.775084 410.970404 
L 477.058431 329.801936 
L 477.341777 389.020708 
L 477.625123 418.223298 
L 477.908469 303.316725 
L 478.475162 446.730663 
L 478.758508 322.894417 
L 479.041854 368.08096 
L 479.3252 322.3659 
L 479.608546 375.858061 
L 479.891892 376.369852 
L 480.175239 131.763818 
L 480.458585 410.493711 
L 480.741931 325.740108 
L 481.025277 352.971364 
L 481.308623 308.214112 
L 481.59197 365.735914 
L 481.875316 457.427737 
L 482.158662 387.585304 
L 482.442008 364.293521 
L 482.725354 438.168708 
L 483.008701 350.737112 
L 483.292047 338.615138 
L 483.575393 461.162281 
L 483.858739 462.681748 
L 484.142085 452.742675 
L 484.425432 366.512495 
L 484.708778 372.963178 
L 484.992124 339.612171 
L 485.27547 415.420068 
L 486.125509 287.624336 
L 486.408855 392.21271 
L 486.692201 330.314054 
L 486.975547 225.646988 
L 487.258894 397.210435 
L 487.54224 431.443642 
L 487.825586 339.697527 
L 488.108932 331.169084 
L 488.392278 406.2243 
L 488.675625 446.576343 
L 488.958971 351.137679 
L 489.242317 432.201998 
L 489.525663 373.155551 
L 489.809009 354.978195 
L 490.092356 390.723972 
L 490.375702 446.864368 
L 490.659048 432.48444 
L 490.942394 368.458539 
L 491.22574 341.690721 
L 491.509087 401.706697 
L 491.792433 396.739127 
L 492.075779 358.534761 
L 492.359125 360.70067 
L 492.642471 442.106583 
L 492.925818 379.331251 
L 493.209164 401.909992 
L 493.775856 333.282438 
L 494.059202 405.888636 
L 494.342549 432.464678 
L 494.625895 385.154948 
L 494.909241 310.844476 
L 495.192587 388.331827 
L 495.475933 366.811427 
L 495.75928 391.468011 
L 496.042626 385.374341 
L 496.325972 376.592986 
L 496.609318 468.144052 
L 496.892664 382.320989 
L 497.176011 352.723866 
L 497.459357 425.024881 
L 497.742703 364.355665 
L 498.026049 418.588426 
L 498.592742 389.63585 
L 498.876088 392.156595 
L 499.159434 413.316029 
L 499.44278 391.732678 
L 499.726126 349.927373 
L 500.009473 378.740362 
L 500.292819 238.509373 
L 500.576165 422.139198 
L 500.859511 409.473787 
L 501.142857 439.112306 
L 501.426204 362.661074 
L 501.70955 328.56519 
L 501.992896 379.780413 
L 502.276242 355.747014 
L 502.559588 387.664401 
L 502.842935 334.820219 
L 503.126281 396.083345 
L 503.409627 385.546734 
L 503.692973 333.362164 
L 503.976319 328.326329 
L 504.259666 376.190202 
L 504.543012 387.045293 
L 504.826358 311.82265 
L 505.109704 403.421034 
L 505.39305 392.86304 
L 505.676397 373.92988 
L 505.959743 424.196346 
L 506.243089 337.405217 
L 506.526435 386.455602 
L 506.809781 413.699587 
L 507.093128 468.475525 
L 507.376474 328.426804 
L 507.65982 354.800625 
L 507.943166 311.750034 
L 508.226512 399.826348 
L 508.509859 412.856619 
L 508.793205 366.527867 
L 509.076551 405.489601 
L 509.359897 382.94218 
L 509.643243 390.962919 
L 509.92659 426.358101 
L 510.209936 293.393167 
L 510.776628 262.006959 
L 511.059974 364.182583 
L 511.343321 375.46146 
L 511.626667 300.082556 
L 511.910013 308.235925 
L 512.193359 286.224116 
L 512.476705 384.944945 
L 512.760052 365.441399 
L 513.043398 379.901233 
L 513.326744 276.473719 
L 513.61009 360.564253 
L 513.893436 368.778453 
L 514.176783 362.936541 
L 514.460129 296.679931 
L 514.743475 390.98667 
L 515.026821 435.162407 
L 515.310167 339.53729 
L 515.593514 360.838612 
L 515.87686 294.689413 
L 516.160206 441.404109 
L 516.443552 288.102581 
L 516.726898 415.496053 
L 517.010245 370.004034 
L 517.293591 363.594593 
L 517.576937 365.965526 
L 517.860283 421.780518 
L 518.143629 390.015803 
L 518.426976 419.04168 
L 518.710322 331.710771 
L 518.993668 372.839728 
L 519.277014 383.710205 
L 519.56036 444.621723 
L 519.843707 444.941157 
L 520.127053 423.993614 
L 520.410399 326.484826 
L 520.693745 413.729293 
L 520.977091 416.298874 
L 521.260438 350.106557 
L 521.543784 389.559527 
L 521.82713 456.193472 
L 522.110476 353.672237 
L 522.393822 441.702207 
L 522.677169 404.638226 
L 522.960515 315.159756 
L 523.243861 499.188307 
L 523.527207 332.822268 
L 523.810553 436.86534 
L 524.0939 368.767593 
L 524.377246 442.306977 
L 524.660592 400.966469 
L 524.943938 210.518245 
L 525.510631 434.382922 
L 525.793977 245.589348 
L 526.077323 351.225842 
L 526.644015 437.53835 
L 527.210708 325.150065 
L 527.494054 259.309865 
L 527.7774 322.759338 
L 528.060746 477.688381 
L 528.910785 403.400001 
L 529.194131 430.891753 
L 529.477477 367.106627 
L 529.760823 339.344009 
L 530.04417 353.023239 
L 530.327516 278.722591 
L 530.610862 409.257783 
L 530.894208 262.613519 
L 531.460901 361.419274 
L 532.027593 233.302822 
L 532.594285 398.70491 
L 532.877632 354.607551 
L 533.160978 238.177301 
L 533.444324 286.046116 
L 533.72767 432.711295 
L 534.011016 369.988026 
L 534.294363 404.835703 
L 534.577709 309.413024 
L 534.861055 482.566689 
L 535.144401 363.132379 
L 535.427747 424.44035 
L 535.711094 331.586053 
L 535.99444 370.265843 
L 536.277786 379.063674 
L 536.844478 486.556145 
L 537.127825 385.180177 
L 537.411171 330.205004 
L 537.694517 308.770894 
L 537.977863 484.082031 
L 538.261209 452.093842 
L 538.544556 325.957319 
L 538.827902 352.401813 
L 539.111248 319.596151 
L 539.394594 266.125327 
L 539.67794 449.648376 
L 539.961287 242.912823 
L 540.244633 424.134429 
L 540.527979 402.267344 
L 540.811325 323.869335 
L 541.094671 373.498057 
L 541.378018 351.255081 
L 541.661364 365.84335 
L 541.94471 543.715215 
L 542.511402 330.845259 
L 542.794749 438.769578 
L 543.644787 370.010966 
L 543.928133 393.557759 
L 544.21148 407.129845 
L 544.494826 396.388529 
L 544.778172 236.606423 
L 545.061518 399.089967 
L 545.344864 286.140151 
L 545.628211 377.863055 
L 545.911557 398.254709 
L 545.911557 398.254709 
" style="fill:none;stroke:#96c69a;stroke-linecap:round;stroke-width:3;"/>
   </g>
   <g id="line2d_2">
    <path clip-path="url(#pa43be68ae4)" d="M 106.866622 369.090386 
L 107.008295 372.496202 
L 107.149968 299.731957 
L 107.291641 503.074372 
L 107.433314 389.200587 
L 107.574987 345.041985 
L 107.71666 381.72671 
L 107.858333 366.004914 
L 108.000007 362.394934 
L 108.14168 456.2967 
L 108.283353 328.094923 
L 108.425026 427.694061 
L 108.566699 462.314114 
L 108.708372 368.215415 
L 108.850045 370.063989 
L 108.991718 383.307431 
L 109.133391 308.530225 
L 109.275064 388.0848 
L 109.416738 342.454146 
L 109.558411 460.3088 
L 109.700084 443.019956 
L 109.841757 457.766485 
L 109.98343 397.51379 
L 110.125103 408.525801 
L 110.266776 327.267829 
L 110.408449 181.298872 
L 110.550122 389.955867 
L 110.691795 299.440447 
L 110.833469 317.81982 
L 110.975142 321.904427 
L 111.116815 351.829152 
L 111.258488 233.458628 
L 111.400161 436.227023 
L 111.541834 380.57346 
L 111.683507 380.969545 
L 111.82518 425.913627 
L 111.966853 433.725317 
L 112.108526 447.524244 
L 112.2502 401.895375 
L 112.391873 329.662462 
L 112.533546 341.975747 
L 112.675219 418.537253 
L 112.816892 321.287492 
L 112.958565 408.571829 
L 113.100238 357.287977 
L 113.241911 399.976836 
L 113.383584 317.234296 
L 113.525257 374.010346 
L 113.666931 410.150532 
L 113.808604 340.649615 
" style="fill:none;stroke:#1a283d;stroke-linecap:round;stroke-width:3;"/>
   </g>
   <g id="line2d_3"/>
   <g id="line2d_4"/>
   <g id="patch_3">
    <path d="M 84.914375 602.94 
L 84.914375 109.326857 
" style="fill:none;stroke:#262626;stroke-linecap:square;stroke-linejoin:miter;stroke-width:2.5;"/>
   </g>
   <g id="patch_4">
    <path d="M 84.914375 602.94 
L 567.863804 602.94 
" style="fill:none;stroke:#262626;stroke-linecap:square;stroke-linejoin:miter;stroke-width:2.5;"/>
   </g>
   <g id="legend_1">
    <g id="patch_5">
     <path d="M 514.948179 597.94 
L 560.863804 597.94 
Q 562.863804 597.94 562.863804 595.94 
L 562.863804 539.35625 
Q 562.863804 537.35625 560.863804 537.35625 
L 514.948179 537.35625 
Q 512.948179 537.35625 512.948179 539.35625 
L 512.948179 595.94 
Q 512.948179 597.94 514.948179 597.94 
z
" style="fill:#ffffff;opacity:0.8;stroke:#cccccc;stroke-linejoin:miter;stroke-width:2;"/>
    </g>
    <g id="text_17">
     <!-- $n_\tau$ -->
     <g style="fill:#262626;" transform="translate(524.825991 559.5925)scale(0.24 -0.24)">
      <defs>
       <path d="M 3566 2113 
L 3156 0 
L 2578 0 
L 2988 2091 
Q 3016 2238 3031 2350 
Q 3047 2463 3047 2528 
Q 3047 2791 2881 2937 
Q 2716 3084 2419 3084 
Q 1956 3084 1622 2776 
Q 1288 2469 1184 1941 
L 800 0 
L 225 0 
L 903 3500 
L 1478 3500 
L 1363 2950 
Q 1603 3253 1940 3418 
Q 2278 3584 2650 3584 
Q 3113 3584 3367 3334 
Q 3622 3084 3622 2631 
Q 3622 2519 3608 2391 
Q 3594 2263 3566 2113 
z
" id="DejaVuSans-Oblique-6e" transform="scale(0.015625)"/>
       <path d="M 2103 638 
Q 2188 488 2525 488 
L 2800 488 
L 2706 0 
L 2363 0 
Q 1800 0 1600 300 
Q 1403 606 1534 1269 
L 1856 2925 
L 541 2925 
L 653 3500 
L 3881 3500 
L 3769 2925 
L 2444 2925 
L 2113 1234 
Q 2025 781 2103 638 
z
" id="DejaVuSans-Oblique-3c4" transform="scale(0.015625)"/>
      </defs>
      <use xlink:href="#DejaVuSans-Oblique-6e"/>
      <use transform="translate(63.378906 -16.40625)scale(0.7)" xlink:href="#DejaVuSans-Oblique-3c4"/>
     </g>
    </g>
    <g id="line2d_5">
     <path d="M 516.948179 573.682187 
L 536.948179 573.682187 
" style="fill:none;stroke:#96c69a;stroke-linecap:round;stroke-width:3;"/>
    </g>
    <g id="line2d_6"/>
    <g id="text_18">
     <!-- 25 -->
     <g style="fill:#262626;" transform="translate(544.948179 577.182187)scale(0.1 -0.1)">
      <defs>
       <path d="M 1844 884 
L 3897 884 
L 3897 0 
L 506 0 
L 506 884 
L 2209 2388 
Q 2438 2594 2547 2791 
Q 2656 2988 2656 3200 
Q 2656 3528 2436 3728 
Q 2216 3928 1850 3928 
Q 1569 3928 1234 3808 
Q 900 3688 519 3450 
L 519 4475 
Q 925 4609 1322 4679 
Q 1719 4750 2100 4750 
Q 2938 4750 3402 4381 
Q 3866 4013 3866 3353 
Q 3866 2972 3669 2642 
Q 3472 2313 2841 1759 
L 1844 884 
z
" id="DejaVuSans-Bold-32" transform="scale(0.015625)"/>
       <path d="M 678 4666 
L 3669 4666 
L 3669 3781 
L 1638 3781 
L 1638 3059 
Q 1775 3097 1914 3117 
Q 2053 3138 2203 3138 
Q 3056 3138 3531 2711 
Q 4006 2284 4006 1522 
Q 4006 766 3489 337 
Q 2972 -91 2053 -91 
Q 1656 -91 1267 -14 
Q 878 63 494 219 
L 494 1166 
Q 875 947 1217 837 
Q 1559 728 1863 728 
Q 2300 728 2551 942 
Q 2803 1156 2803 1522 
Q 2803 1891 2551 2103 
Q 2300 2316 1863 2316 
Q 1603 2316 1309 2248 
Q 1016 2181 678 2041 
L 678 4666 
z
" id="DejaVuSans-Bold-35" transform="scale(0.015625)"/>
      </defs>
      <use xlink:href="#DejaVuSans-Bold-32"/>
      <use x="69.580078" xlink:href="#DejaVuSans-Bold-35"/>
     </g>
    </g>
    <g id="line2d_7">
     <path d="M 516.948179 588.360312 
L 536.948179 588.360312 
" style="fill:none;stroke:#1a283d;stroke-linecap:round;stroke-width:3;"/>
    </g>
    <g id="line2d_8"/>
    <g id="text_19">
     <!-- 40 -->
     <g style="fill:#262626;" transform="translate(544.948179 591.860312)scale(0.1 -0.1)">
      <defs>
       <path d="M 2356 3675 
L 1038 1722 
L 2356 1722 
L 2356 3675 
z
M 2156 4666 
L 3494 4666 
L 3494 1722 
L 4159 1722 
L 4159 850 
L 3494 850 
L 3494 0 
L 2356 0 
L 2356 850 
L 288 850 
L 288 1881 
L 2156 4666 
z
" id="DejaVuSans-Bold-34" transform="scale(0.015625)"/>
       <path d="M 2944 2338 
Q 2944 3213 2780 3570 
Q 2616 3928 2228 3928 
Q 1841 3928 1675 3570 
Q 1509 3213 1509 2338 
Q 1509 1453 1675 1090 
Q 1841 728 2228 728 
Q 2613 728 2778 1090 
Q 2944 1453 2944 2338 
z
M 4147 2328 
Q 4147 1169 3647 539 
Q 3147 -91 2228 -91 
Q 1306 -91 806 539 
Q 306 1169 306 2328 
Q 306 3491 806 4120 
Q 1306 4750 2228 4750 
Q 3147 4750 3647 4120 
Q 4147 3491 4147 2328 
z
" id="DejaVuSans-Bold-30" transform="scale(0.015625)"/>
      </defs>
      <use xlink:href="#DejaVuSans-Bold-34"/>
      <use x="69.580078" xlink:href="#DejaVuSans-Bold-30"/>
     </g>
    </g>
   </g>
  </g>
  <g id="axes_2">
   <g id="patch_6">
    <path d="M 84.914375 92.305714 
L 567.863804 92.305714 
L 567.863804 7.2 
L 84.914375 7.2 
z
" style="fill:none;"/>
   </g>
   <g id="matplotlib.axis_3">
    <g id="xtick_8"/>
    <g id="xtick_9"/>
    <g id="xtick_10"/>
    <g id="xtick_11"/>
    <g id="xtick_12"/>
    <g id="xtick_13"/>
    <g id="xtick_14"/>
   </g>
   <g id="matplotlib.axis_4">
    <g id="ytick_8">
     <g id="text_20">
      <!-- 0 -->
      <g style="fill:#262626;" transform="translate(55.416875 100.663996)scale(0.22 -0.22)">
       <use xlink:href="#DejaVuSans-30"/>
      </g>
     </g>
    </g>
    <g id="ytick_9">
     <g id="text_21">
      <!-- 200 -->
      <g style="fill:#262626;" transform="translate(27.421875 27.64322)scale(0.22 -0.22)">
       <use xlink:href="#DejaVuSans-32"/>
       <use x="63.623047" xlink:href="#DejaVuSans-30"/>
       <use x="127.246094" xlink:href="#DejaVuSans-30"/>
      </g>
     </g>
    </g>
   </g>
   <g id="patch_7">
    <path clip-path="url(#p93ecc5aa22)" d="M 106.866622 92.305714 
L 138.226974 92.305714 
L 138.226974 74.05052 
L 106.866622 74.05052 
z
" style="fill:#1a283d;fill-opacity:0.5;stroke:#ffffff;stroke-linejoin:miter;stroke-width:2;"/>
   </g>
   <g id="patch_8">
    <path clip-path="url(#p93ecc5aa22)" d="M 138.226974 92.305714 
L 169.587327 92.305714 
L 169.587327 92.305714 
L 138.226974 92.305714 
z
" style="fill:#1a283d;fill-opacity:0.5;stroke:#ffffff;stroke-linejoin:miter;stroke-width:2;"/>
   </g>
   <g id="patch_9">
    <path clip-path="url(#p93ecc5aa22)" d="M 169.587327 92.305714 
L 200.947679 92.305714 
L 200.947679 92.305714 
L 169.587327 92.305714 
z
" style="fill:#1a283d;fill-opacity:0.5;stroke:#ffffff;stroke-linejoin:miter;stroke-width:2;"/>
   </g>
   <g id="patch_10">
    <path clip-path="url(#p93ecc5aa22)" d="M 200.947679 92.305714 
L 232.308032 92.305714 
L 232.308032 92.305714 
L 200.947679 92.305714 
z
" style="fill:#1a283d;fill-opacity:0.5;stroke:#ffffff;stroke-linejoin:miter;stroke-width:2;"/>
   </g>
   <g id="patch_11">
    <path clip-path="url(#p93ecc5aa22)" d="M 232.308032 92.305714 
L 263.668384 92.305714 
L 263.668384 92.305714 
L 232.308032 92.305714 
z
" style="fill:#1a283d;fill-opacity:0.5;stroke:#ffffff;stroke-linejoin:miter;stroke-width:2;"/>
   </g>
   <g id="patch_12">
    <path clip-path="url(#p93ecc5aa22)" d="M 263.668384 92.305714 
L 295.028737 92.305714 
L 295.028737 92.305714 
L 263.668384 92.305714 
z
" style="fill:#1a283d;fill-opacity:0.5;stroke:#ffffff;stroke-linejoin:miter;stroke-width:2;"/>
   </g>
   <g id="patch_13">
    <path clip-path="url(#p93ecc5aa22)" d="M 295.028737 92.305714 
L 326.389089 92.305714 
L 326.389089 92.305714 
L 295.028737 92.305714 
z
" style="fill:#1a283d;fill-opacity:0.5;stroke:#ffffff;stroke-linejoin:miter;stroke-width:2;"/>
   </g>
   <g id="patch_14">
    <path clip-path="url(#p93ecc5aa22)" d="M 326.389089 92.305714 
L 357.749442 92.305714 
L 357.749442 92.305714 
L 326.389089 92.305714 
z
" style="fill:#1a283d;fill-opacity:0.5;stroke:#ffffff;stroke-linejoin:miter;stroke-width:2;"/>
   </g>
   <g id="patch_15">
    <path clip-path="url(#p93ecc5aa22)" d="M 357.749442 92.305714 
L 389.109794 92.305714 
L 389.109794 92.305714 
L 357.749442 92.305714 
z
" style="fill:#1a283d;fill-opacity:0.5;stroke:#ffffff;stroke-linejoin:miter;stroke-width:2;"/>
   </g>
   <g id="patch_16">
    <path clip-path="url(#p93ecc5aa22)" d="M 389.109794 92.305714 
L 420.470147 92.305714 
L 420.470147 92.305714 
L 389.109794 92.305714 
z
" style="fill:#1a283d;fill-opacity:0.5;stroke:#ffffff;stroke-linejoin:miter;stroke-width:2;"/>
   </g>
   <g id="patch_17">
    <path clip-path="url(#p93ecc5aa22)" d="M 420.470147 92.305714 
L 451.830499 92.305714 
L 451.830499 92.305714 
L 420.470147 92.305714 
z
" style="fill:#1a283d;fill-opacity:0.5;stroke:#ffffff;stroke-linejoin:miter;stroke-width:2;"/>
   </g>
   <g id="patch_18">
    <path clip-path="url(#p93ecc5aa22)" d="M 451.830499 92.305714 
L 483.190852 92.305714 
L 483.190852 92.305714 
L 451.830499 92.305714 
z
" style="fill:#1a283d;fill-opacity:0.5;stroke:#ffffff;stroke-linejoin:miter;stroke-width:2;"/>
   </g>
   <g id="patch_19">
    <path clip-path="url(#p93ecc5aa22)" d="M 483.190852 92.305714 
L 514.551204 92.305714 
L 514.551204 92.305714 
L 483.190852 92.305714 
z
" style="fill:#1a283d;fill-opacity:0.5;stroke:#ffffff;stroke-linejoin:miter;stroke-width:2;"/>
   </g>
   <g id="patch_20">
    <path clip-path="url(#p93ecc5aa22)" d="M 514.551204 92.305714 
L 545.911557 92.305714 
L 545.911557 92.305714 
L 514.551204 92.305714 
z
" style="fill:#1a283d;fill-opacity:0.5;stroke:#ffffff;stroke-linejoin:miter;stroke-width:2;"/>
   </g>
   <g id="patch_21">
    <path clip-path="url(#p93ecc5aa22)" d="M 106.866622 92.305714 
L 138.226974 92.305714 
L 138.226974 29.507847 
L 106.866622 29.507847 
z
" style="fill:#96c69a;fill-opacity:0.5;stroke:#ffffff;stroke-linejoin:miter;stroke-width:2;"/>
   </g>
   <g id="patch_22">
    <path clip-path="url(#p93ecc5aa22)" d="M 138.226974 92.305714 
L 169.587327 92.305714 
L 169.587327 11.617757 
L 138.226974 11.617757 
z
" style="fill:#96c69a;fill-opacity:0.5;stroke:#ffffff;stroke-linejoin:miter;stroke-width:2;"/>
   </g>
   <g id="patch_23">
    <path clip-path="url(#p93ecc5aa22)" d="M 169.587327 92.305714 
L 200.947679 92.305714 
L 200.947679 11.252653 
L 169.587327 11.252653 
z
" style="fill:#96c69a;fill-opacity:0.5;stroke:#ffffff;stroke-linejoin:miter;stroke-width:2;"/>
   </g>
   <g id="patch_24">
    <path clip-path="url(#p93ecc5aa22)" d="M 200.947679 92.305714 
L 232.308032 92.305714 
L 232.308032 11.617757 
L 200.947679 11.617757 
z
" style="fill:#96c69a;fill-opacity:0.5;stroke:#ffffff;stroke-linejoin:miter;stroke-width:2;"/>
   </g>
   <g id="patch_25">
    <path clip-path="url(#p93ecc5aa22)" d="M 232.308032 92.305714 
L 263.668384 92.305714 
L 263.668384 13.078172 
L 232.308032 13.078172 
z
" style="fill:#96c69a;fill-opacity:0.5;stroke:#ffffff;stroke-linejoin:miter;stroke-width:2;"/>
   </g>
   <g id="patch_26">
    <path clip-path="url(#p93ecc5aa22)" d="M 263.668384 92.305714 
L 295.028737 92.305714 
L 295.028737 51.779184 
L 263.668384 51.779184 
z
" style="fill:#96c69a;fill-opacity:0.5;stroke:#ffffff;stroke-linejoin:miter;stroke-width:2;"/>
   </g>
   <g id="patch_27">
    <path clip-path="url(#p93ecc5aa22)" d="M 295.028737 92.305714 
L 326.389089 92.305714 
L 326.389089 51.779184 
L 295.028737 51.779184 
z
" style="fill:#96c69a;fill-opacity:0.5;stroke:#ffffff;stroke-linejoin:miter;stroke-width:2;"/>
   </g>
   <g id="patch_28">
    <path clip-path="url(#p93ecc5aa22)" d="M 326.389089 92.305714 
L 357.749442 92.305714 
L 357.749442 52.144288 
L 326.389089 52.144288 
z
" style="fill:#96c69a;fill-opacity:0.5;stroke:#ffffff;stroke-linejoin:miter;stroke-width:2;"/>
   </g>
   <g id="patch_29">
    <path clip-path="url(#p93ecc5aa22)" d="M 357.749442 92.305714 
L 389.109794 92.305714 
L 389.109794 51.779184 
L 357.749442 51.779184 
z
" style="fill:#96c69a;fill-opacity:0.5;stroke:#ffffff;stroke-linejoin:miter;stroke-width:2;"/>
   </g>
   <g id="patch_30">
    <path clip-path="url(#p93ecc5aa22)" d="M 389.109794 92.305714 
L 420.470147 92.305714 
L 420.470147 51.779184 
L 389.109794 51.779184 
z
" style="fill:#96c69a;fill-opacity:0.5;stroke:#ffffff;stroke-linejoin:miter;stroke-width:2;"/>
   </g>
   <g id="patch_31">
    <path clip-path="url(#p93ecc5aa22)" d="M 420.470147 92.305714 
L 451.830499 92.305714 
L 451.830499 52.144288 
L 420.470147 52.144288 
z
" style="fill:#96c69a;fill-opacity:0.5;stroke:#ffffff;stroke-linejoin:miter;stroke-width:2;"/>
   </g>
   <g id="patch_32">
    <path clip-path="url(#p93ecc5aa22)" d="M 451.830499 92.305714 
L 483.190852 92.305714 
L 483.190852 51.779184 
L 451.830499 51.779184 
z
" style="fill:#96c69a;fill-opacity:0.5;stroke:#ffffff;stroke-linejoin:miter;stroke-width:2;"/>
   </g>
   <g id="patch_33">
    <path clip-path="url(#p93ecc5aa22)" d="M 483.190852 92.305714 
L 514.551204 92.305714 
L 514.551204 51.779184 
L 483.190852 51.779184 
z
" style="fill:#96c69a;fill-opacity:0.5;stroke:#ffffff;stroke-linejoin:miter;stroke-width:2;"/>
   </g>
   <g id="patch_34">
    <path clip-path="url(#p93ecc5aa22)" d="M 514.551204 92.305714 
L 545.911557 92.305714 
L 545.911557 51.779184 
L 514.551204 51.779184 
z
" style="fill:#96c69a;fill-opacity:0.5;stroke:#ffffff;stroke-linejoin:miter;stroke-width:2;"/>
   </g>
   <g id="patch_35">
    <path d="M 84.914375 92.305714 
L 84.914375 7.2 
" style="fill:none;stroke:#262626;stroke-linecap:square;stroke-linejoin:miter;stroke-width:2.5;"/>
   </g>
   <g id="patch_36">
    <path d="M 84.914375 92.305714 
L 567.863804 92.305714 
" style="fill:none;stroke:#262626;stroke-linecap:square;stroke-linejoin:miter;stroke-width:2.5;"/>
   </g>
  </g>
  <g id="axes_3">
   <g id="patch_37">
    <path d="M 584.517232 602.94 
L 667.784375 602.94 
L 667.784375 109.326857 
L 584.517232 109.326857 
z
" style="fill:none;"/>
   </g>
   <g id="matplotlib.axis_5">
    <g id="xtick_15">
     <g id="text_22">
      <!-- 0 -->
      <g style="fill:#262626;" transform="translate(577.518482 635.156562)scale(0.22 -0.22)">
       <use xlink:href="#DejaVuSans-30"/>
      </g>
     </g>
    </g>
    <g id="xtick_16">
     <g id="text_23">
      <!-- 100 -->
      <g style="fill:#262626;" transform="translate(606.38695 635.156562)scale(0.22 -0.22)">
       <use xlink:href="#DejaVuSans-31"/>
       <use x="63.623047" xlink:href="#DejaVuSans-30"/>
       <use x="127.246094" xlink:href="#DejaVuSans-30"/>
      </g>
     </g>
    </g>
   </g>
   <g id="matplotlib.axis_6">
    <g id="ytick_10"/>
    <g id="ytick_11"/>
    <g id="ytick_12"/>
    <g id="ytick_13"/>
    <g id="ytick_14"/>
    <g id="ytick_15"/>
    <g id="ytick_16"/>
   </g>
   <g id="patch_38">
    <path clip-path="url(#pc11834e02b)" d="M 584.517232 580.503039 
L 584.517232 580.503039 
L 584.517232 567.681918 
L 584.517232 567.681918 
z
" style="fill:#1a283d;fill-opacity:0.5;stroke:#ffffff;stroke-linejoin:miter;stroke-width:1.282112;"/>
   </g>
   <g id="patch_39">
    <path clip-path="url(#pc11834e02b)" d="M 584.517232 567.681918 
L 584.517232 567.681918 
L 584.517232 554.860798 
L 584.517232 554.860798 
z
" style="fill:#1a283d;fill-opacity:0.5;stroke:#ffffff;stroke-linejoin:miter;stroke-width:1.282112;"/>
   </g>
   <g id="patch_40">
    <path clip-path="url(#pc11834e02b)" d="M 584.517232 554.860798 
L 584.517232 554.860798 
L 584.517232 542.039677 
L 584.517232 542.039677 
z
" style="fill:#1a283d;fill-opacity:0.5;stroke:#ffffff;stroke-linejoin:miter;stroke-width:1.282112;"/>
   </g>
   <g id="patch_41">
    <path clip-path="url(#pc11834e02b)" d="M 584.517232 542.039677 
L 584.517232 542.039677 
L 584.517232 529.218557 
L 584.517232 529.218557 
z
" style="fill:#1a283d;fill-opacity:0.5;stroke:#ffffff;stroke-linejoin:miter;stroke-width:1.282112;"/>
   </g>
   <g id="patch_42">
    <path clip-path="url(#pc11834e02b)" d="M 584.517232 529.218557 
L 584.517232 529.218557 
L 584.517232 516.397436 
L 584.517232 516.397436 
z
" style="fill:#1a283d;fill-opacity:0.5;stroke:#ffffff;stroke-linejoin:miter;stroke-width:1.282112;"/>
   </g>
   <g id="patch_43">
    <path clip-path="url(#pc11834e02b)" d="M 584.517232 516.397436 
L 584.517232 516.397436 
L 584.517232 503.576315 
L 584.517232 503.576315 
z
" style="fill:#1a283d;fill-opacity:0.5;stroke:#ffffff;stroke-linejoin:miter;stroke-width:1.282112;"/>
   </g>
   <g id="patch_44">
    <path clip-path="url(#pc11834e02b)" d="M 584.517232 503.576315 
L 584.945892 503.576315 
L 584.945892 490.755195 
L 584.517232 490.755195 
z
" style="fill:#1a283d;fill-opacity:0.5;stroke:#ffffff;stroke-linejoin:miter;stroke-width:1.282112;"/>
   </g>
   <g id="patch_45">
    <path clip-path="url(#pc11834e02b)" d="M 584.517232 490.755195 
L 584.517232 490.755195 
L 584.517232 477.934074 
L 584.517232 477.934074 
z
" style="fill:#1a283d;fill-opacity:0.5;stroke:#ffffff;stroke-linejoin:miter;stroke-width:1.282112;"/>
   </g>
   <g id="patch_46">
    <path clip-path="url(#pc11834e02b)" d="M 584.517232 477.934074 
L 584.517232 477.934074 
L 584.517232 465.112954 
L 584.517232 465.112954 
z
" style="fill:#1a283d;fill-opacity:0.5;stroke:#ffffff;stroke-linejoin:miter;stroke-width:1.282112;"/>
   </g>
   <g id="patch_47">
    <path clip-path="url(#pc11834e02b)" d="M 584.517232 465.112954 
L 586.231871 465.112954 
L 586.231871 452.291833 
L 584.517232 452.291833 
z
" style="fill:#1a283d;fill-opacity:0.5;stroke:#ffffff;stroke-linejoin:miter;stroke-width:1.282112;"/>
   </g>
   <g id="patch_48">
    <path clip-path="url(#pc11834e02b)" d="M 584.517232 452.291833 
L 585.374552 452.291833 
L 585.374552 439.470712 
L 584.517232 439.470712 
z
" style="fill:#1a283d;fill-opacity:0.5;stroke:#ffffff;stroke-linejoin:miter;stroke-width:1.282112;"/>
   </g>
   <g id="patch_49">
    <path clip-path="url(#pc11834e02b)" d="M 584.517232 439.470712 
L 585.803211 439.470712 
L 585.803211 426.649592 
L 584.517232 426.649592 
z
" style="fill:#1a283d;fill-opacity:0.5;stroke:#ffffff;stroke-linejoin:miter;stroke-width:1.282112;"/>
   </g>
   <g id="patch_50">
    <path clip-path="url(#pc11834e02b)" d="M 584.517232 426.649592 
L 585.374552 426.649592 
L 585.374552 413.828471 
L 584.517232 413.828471 
z
" style="fill:#1a283d;fill-opacity:0.5;stroke:#ffffff;stroke-linejoin:miter;stroke-width:1.282112;"/>
   </g>
   <g id="patch_51">
    <path clip-path="url(#pc11834e02b)" d="M 584.517232 413.828471 
L 586.231871 413.828471 
L 586.231871 401.007351 
L 584.517232 401.007351 
z
" style="fill:#1a283d;fill-opacity:0.5;stroke:#ffffff;stroke-linejoin:miter;stroke-width:1.282112;"/>
   </g>
   <g id="patch_52">
    <path clip-path="url(#pc11834e02b)" d="M 584.517232 401.007351 
L 586.231871 401.007351 
L 586.231871 388.18623 
L 584.517232 388.18623 
z
" style="fill:#1a283d;fill-opacity:0.5;stroke:#ffffff;stroke-linejoin:miter;stroke-width:1.282112;"/>
   </g>
   <g id="patch_53">
    <path clip-path="url(#pc11834e02b)" d="M 584.517232 388.18623 
L 586.660531 388.18623 
L 586.660531 375.365109 
L 584.517232 375.365109 
z
" style="fill:#1a283d;fill-opacity:0.5;stroke:#ffffff;stroke-linejoin:miter;stroke-width:1.282112;"/>
   </g>
   <g id="patch_54">
    <path clip-path="url(#pc11834e02b)" d="M 584.517232 375.365109 
L 587.08919 375.365109 
L 587.08919 362.543989 
L 584.517232 362.543989 
z
" style="fill:#1a283d;fill-opacity:0.5;stroke:#ffffff;stroke-linejoin:miter;stroke-width:1.282112;"/>
   </g>
   <g id="patch_55">
    <path clip-path="url(#pc11834e02b)" d="M 584.517232 362.543989 
L 585.803211 362.543989 
L 585.803211 349.722868 
L 584.517232 349.722868 
z
" style="fill:#1a283d;fill-opacity:0.5;stroke:#ffffff;stroke-linejoin:miter;stroke-width:1.282112;"/>
   </g>
   <g id="patch_56">
    <path clip-path="url(#pc11834e02b)" d="M 584.517232 349.722868 
L 586.231871 349.722868 
L 586.231871 336.901748 
L 584.517232 336.901748 
z
" style="fill:#1a283d;fill-opacity:0.5;stroke:#ffffff;stroke-linejoin:miter;stroke-width:1.282112;"/>
   </g>
   <g id="patch_57">
    <path clip-path="url(#pc11834e02b)" d="M 584.517232 336.901748 
L 585.803211 336.901748 
L 585.803211 324.080627 
L 584.517232 324.080627 
z
" style="fill:#1a283d;fill-opacity:0.5;stroke:#ffffff;stroke-linejoin:miter;stroke-width:1.282112;"/>
   </g>
   <g id="patch_58">
    <path clip-path="url(#pc11834e02b)" d="M 584.517232 324.080627 
L 586.231871 324.080627 
L 586.231871 311.259506 
L 584.517232 311.259506 
z
" style="fill:#1a283d;fill-opacity:0.5;stroke:#ffffff;stroke-linejoin:miter;stroke-width:1.282112;"/>
   </g>
   <g id="patch_59">
    <path clip-path="url(#pc11834e02b)" d="M 584.517232 311.259506 
L 585.803211 311.259506 
L 585.803211 298.438386 
L 584.517232 298.438386 
z
" style="fill:#1a283d;fill-opacity:0.5;stroke:#ffffff;stroke-linejoin:miter;stroke-width:1.282112;"/>
   </g>
   <g id="patch_60">
    <path clip-path="url(#pc11834e02b)" d="M 584.517232 298.438386 
L 584.517232 298.438386 
L 584.517232 285.617265 
L 584.517232 285.617265 
z
" style="fill:#1a283d;fill-opacity:0.5;stroke:#ffffff;stroke-linejoin:miter;stroke-width:1.282112;"/>
   </g>
   <g id="patch_61">
    <path clip-path="url(#pc11834e02b)" d="M 584.517232 285.617265 
L 584.517232 285.617265 
L 584.517232 272.796145 
L 584.517232 272.796145 
z
" style="fill:#1a283d;fill-opacity:0.5;stroke:#ffffff;stroke-linejoin:miter;stroke-width:1.282112;"/>
   </g>
   <g id="patch_62">
    <path clip-path="url(#pc11834e02b)" d="M 584.517232 272.796145 
L 584.517232 272.796145 
L 584.517232 259.975024 
L 584.517232 259.975024 
z
" style="fill:#1a283d;fill-opacity:0.5;stroke:#ffffff;stroke-linejoin:miter;stroke-width:1.282112;"/>
   </g>
   <g id="patch_63">
    <path clip-path="url(#pc11834e02b)" d="M 584.517232 259.975024 
L 584.517232 259.975024 
L 584.517232 247.153904 
L 584.517232 247.153904 
z
" style="fill:#1a283d;fill-opacity:0.5;stroke:#ffffff;stroke-linejoin:miter;stroke-width:1.282112;"/>
   </g>
   <g id="patch_64">
    <path clip-path="url(#pc11834e02b)" d="M 584.517232 247.153904 
L 584.517232 247.153904 
L 584.517232 234.332783 
L 584.517232 234.332783 
z
" style="fill:#1a283d;fill-opacity:0.5;stroke:#ffffff;stroke-linejoin:miter;stroke-width:1.282112;"/>
   </g>
   <g id="patch_65">
    <path clip-path="url(#pc11834e02b)" d="M 584.517232 234.332783 
L 584.945892 234.332783 
L 584.945892 221.511662 
L 584.517232 221.511662 
z
" style="fill:#1a283d;fill-opacity:0.5;stroke:#ffffff;stroke-linejoin:miter;stroke-width:1.282112;"/>
   </g>
   <g id="patch_66">
    <path clip-path="url(#pc11834e02b)" d="M 584.517232 221.511662 
L 584.517232 221.511662 
L 584.517232 208.690542 
L 584.517232 208.690542 
z
" style="fill:#1a283d;fill-opacity:0.5;stroke:#ffffff;stroke-linejoin:miter;stroke-width:1.282112;"/>
   </g>
   <g id="patch_67">
    <path clip-path="url(#pc11834e02b)" d="M 584.517232 208.690542 
L 584.517232 208.690542 
L 584.517232 195.869421 
L 584.517232 195.869421 
z
" style="fill:#1a283d;fill-opacity:0.5;stroke:#ffffff;stroke-linejoin:miter;stroke-width:1.282112;"/>
   </g>
   <g id="patch_68">
    <path clip-path="url(#pc11834e02b)" d="M 584.517232 195.869421 
L 584.517232 195.869421 
L 584.517232 183.048301 
L 584.517232 183.048301 
z
" style="fill:#1a283d;fill-opacity:0.5;stroke:#ffffff;stroke-linejoin:miter;stroke-width:1.282112;"/>
   </g>
   <g id="patch_69">
    <path clip-path="url(#pc11834e02b)" d="M 584.517232 183.048301 
L 584.945892 183.048301 
L 584.945892 170.22718 
L 584.517232 170.22718 
z
" style="fill:#1a283d;fill-opacity:0.5;stroke:#ffffff;stroke-linejoin:miter;stroke-width:1.282112;"/>
   </g>
   <g id="patch_70">
    <path clip-path="url(#pc11834e02b)" d="M 584.517232 170.22718 
L 584.517232 170.22718 
L 584.517232 157.406059 
L 584.517232 157.406059 
z
" style="fill:#1a283d;fill-opacity:0.5;stroke:#ffffff;stroke-linejoin:miter;stroke-width:1.282112;"/>
   </g>
   <g id="patch_71">
    <path clip-path="url(#pc11834e02b)" d="M 584.517232 157.406059 
L 584.517232 157.406059 
L 584.517232 144.584939 
L 584.517232 144.584939 
z
" style="fill:#1a283d;fill-opacity:0.5;stroke:#ffffff;stroke-linejoin:miter;stroke-width:1.282112;"/>
   </g>
   <g id="patch_72">
    <path clip-path="url(#pc11834e02b)" d="M 584.517232 144.584939 
L 584.517232 144.584939 
L 584.517232 131.763818 
L 584.517232 131.763818 
z
" style="fill:#1a283d;fill-opacity:0.5;stroke:#ffffff;stroke-linejoin:miter;stroke-width:1.282112;"/>
   </g>
   <g id="patch_73">
    <path clip-path="url(#pc11834e02b)" d="M 584.517232 580.503039 
L 584.945892 580.503039 
L 584.945892 567.681918 
L 584.517232 567.681918 
z
" style="fill:#96c69a;fill-opacity:0.5;stroke:#ffffff;stroke-linejoin:miter;stroke-width:1.282112;"/>
   </g>
   <g id="patch_74">
    <path clip-path="url(#pc11834e02b)" d="M 584.517232 567.681918 
L 584.945892 567.681918 
L 584.945892 554.860798 
L 584.517232 554.860798 
z
" style="fill:#96c69a;fill-opacity:0.5;stroke:#ffffff;stroke-linejoin:miter;stroke-width:1.282112;"/>
   </g>
   <g id="patch_75">
    <path clip-path="url(#pc11834e02b)" d="M 584.517232 554.860798 
L 584.945892 554.860798 
L 584.945892 542.039677 
L 584.517232 542.039677 
z
" style="fill:#96c69a;fill-opacity:0.5;stroke:#ffffff;stroke-linejoin:miter;stroke-width:1.282112;"/>
   </g>
   <g id="patch_76">
    <path clip-path="url(#pc11834e02b)" d="M 584.517232 542.039677 
L 585.803211 542.039677 
L 585.803211 529.218557 
L 584.517232 529.218557 
z
" style="fill:#96c69a;fill-opacity:0.5;stroke:#ffffff;stroke-linejoin:miter;stroke-width:1.282112;"/>
   </g>
   <g id="patch_77">
    <path clip-path="url(#pc11834e02b)" d="M 584.517232 529.218557 
L 585.803211 529.218557 
L 585.803211 516.397436 
L 584.517232 516.397436 
z
" style="fill:#96c69a;fill-opacity:0.5;stroke:#ffffff;stroke-linejoin:miter;stroke-width:1.282112;"/>
   </g>
   <g id="patch_78">
    <path clip-path="url(#pc11834e02b)" d="M 584.517232 516.397436 
L 589.232489 516.397436 
L 589.232489 503.576315 
L 584.517232 503.576315 
z
" style="fill:#96c69a;fill-opacity:0.5;stroke:#ffffff;stroke-linejoin:miter;stroke-width:1.282112;"/>
   </g>
   <g id="patch_79">
    <path clip-path="url(#pc11834e02b)" d="M 584.517232 503.576315 
L 590.518468 503.576315 
L 590.518468 490.755195 
L 584.517232 490.755195 
z
" style="fill:#96c69a;fill-opacity:0.5;stroke:#ffffff;stroke-linejoin:miter;stroke-width:1.282112;"/>
   </g>
   <g id="patch_80">
    <path clip-path="url(#pc11834e02b)" d="M 584.517232 490.755195 
L 605.092897 490.755195 
L 605.092897 477.934074 
L 584.517232 477.934074 
z
" style="fill:#96c69a;fill-opacity:0.5;stroke:#ffffff;stroke-linejoin:miter;stroke-width:1.282112;"/>
   </g>
   <g id="patch_81">
    <path clip-path="url(#pc11834e02b)" d="M 584.517232 477.934074 
L 605.092897 477.934074 
L 605.092897 465.112954 
L 584.517232 465.112954 
z
" style="fill:#96c69a;fill-opacity:0.5;stroke:#ffffff;stroke-linejoin:miter;stroke-width:1.282112;"/>
   </g>
   <g id="patch_82">
    <path clip-path="url(#pc11834e02b)" d="M 584.517232 465.112954 
L 618.381347 465.112954 
L 618.381347 452.291833 
L 584.517232 452.291833 
z
" style="fill:#96c69a;fill-opacity:0.5;stroke:#ffffff;stroke-linejoin:miter;stroke-width:1.282112;"/>
   </g>
   <g id="patch_83">
    <path clip-path="url(#pc11834e02b)" d="M 584.517232 452.291833 
L 623.525263 452.291833 
L 623.525263 439.470712 
L 584.517232 439.470712 
z
" style="fill:#96c69a;fill-opacity:0.5;stroke:#ffffff;stroke-linejoin:miter;stroke-width:1.282112;"/>
   </g>
   <g id="patch_84">
    <path clip-path="url(#pc11834e02b)" d="M 584.517232 439.470712 
L 640.242991 439.470712 
L 640.242991 426.649592 
L 584.517232 426.649592 
z
" style="fill:#96c69a;fill-opacity:0.5;stroke:#ffffff;stroke-linejoin:miter;stroke-width:1.282112;"/>
   </g>
   <g id="patch_85">
    <path clip-path="url(#pc11834e02b)" d="M 584.517232 426.649592 
L 638.957012 426.649592 
L 638.957012 413.828471 
L 584.517232 413.828471 
z
" style="fill:#96c69a;fill-opacity:0.5;stroke:#ffffff;stroke-linejoin:miter;stroke-width:1.282112;"/>
   </g>
   <g id="patch_86">
    <path clip-path="url(#pc11834e02b)" d="M 584.517232 413.828471 
L 651.388142 413.828471 
L 651.388142 401.007351 
L 584.517232 401.007351 
z
" style="fill:#96c69a;fill-opacity:0.5;stroke:#ffffff;stroke-linejoin:miter;stroke-width:1.282112;"/>
   </g>
   <g id="patch_87">
    <path clip-path="url(#pc11834e02b)" d="M 584.517232 401.007351 
L 656.960718 401.007351 
L 656.960718 388.18623 
L 584.517232 388.18623 
z
" style="fill:#96c69a;fill-opacity:0.5;stroke:#ffffff;stroke-linejoin:miter;stroke-width:1.282112;"/>
   </g>
   <g id="patch_88">
    <path clip-path="url(#pc11834e02b)" d="M 584.517232 388.18623 
L 654.38876 388.18623 
L 654.38876 375.365109 
L 584.517232 375.365109 
z
" style="fill:#96c69a;fill-opacity:0.5;stroke:#ffffff;stroke-linejoin:miter;stroke-width:1.282112;"/>
   </g>
   <g id="patch_89">
    <path clip-path="url(#pc11834e02b)" d="M 584.517232 375.365109 
L 663.819273 375.365109 
L 663.819273 362.543989 
L 584.517232 362.543989 
z
" style="fill:#96c69a;fill-opacity:0.5;stroke:#ffffff;stroke-linejoin:miter;stroke-width:1.282112;"/>
   </g>
   <g id="patch_90">
    <path clip-path="url(#pc11834e02b)" d="M 584.517232 362.543989 
L 654.38876 362.543989 
L 654.38876 349.722868 
L 584.517232 349.722868 
z
" style="fill:#96c69a;fill-opacity:0.5;stroke:#ffffff;stroke-linejoin:miter;stroke-width:1.282112;"/>
   </g>
   <g id="patch_91">
    <path clip-path="url(#pc11834e02b)" d="M 584.517232 349.722868 
L 638.528352 349.722868 
L 638.528352 336.901748 
L 584.517232 336.901748 
z
" style="fill:#96c69a;fill-opacity:0.5;stroke:#ffffff;stroke-linejoin:miter;stroke-width:1.282112;"/>
   </g>
   <g id="patch_92">
    <path clip-path="url(#pc11834e02b)" d="M 584.517232 336.901748 
L 639.814331 336.901748 
L 639.814331 324.080627 
L 584.517232 324.080627 
z
" style="fill:#96c69a;fill-opacity:0.5;stroke:#ffffff;stroke-linejoin:miter;stroke-width:1.282112;"/>
   </g>
   <g id="patch_93">
    <path clip-path="url(#pc11834e02b)" d="M 584.517232 324.080627 
L 623.525263 324.080627 
L 623.525263 311.259506 
L 584.517232 311.259506 
z
" style="fill:#96c69a;fill-opacity:0.5;stroke:#ffffff;stroke-linejoin:miter;stroke-width:1.282112;"/>
   </g>
   <g id="patch_94">
    <path clip-path="url(#pc11834e02b)" d="M 584.517232 311.259506 
L 616.666708 311.259506 
L 616.666708 298.438386 
L 584.517232 298.438386 
z
" style="fill:#96c69a;fill-opacity:0.5;stroke:#ffffff;stroke-linejoin:miter;stroke-width:1.282112;"/>
   </g>
   <g id="patch_95">
    <path clip-path="url(#pc11834e02b)" d="M 584.517232 298.438386 
L 616.666708 298.438386 
L 616.666708 285.617265 
L 584.517232 285.617265 
z
" style="fill:#96c69a;fill-opacity:0.5;stroke:#ffffff;stroke-linejoin:miter;stroke-width:1.282112;"/>
   </g>
   <g id="patch_96">
    <path clip-path="url(#pc11834e02b)" d="M 584.517232 285.617265 
L 605.092897 285.617265 
L 605.092897 272.796145 
L 584.517232 272.796145 
z
" style="fill:#96c69a;fill-opacity:0.5;stroke:#ffffff;stroke-linejoin:miter;stroke-width:1.282112;"/>
   </g>
   <g id="patch_97">
    <path clip-path="url(#pc11834e02b)" d="M 584.517232 272.796145 
L 596.948363 272.796145 
L 596.948363 259.975024 
L 584.517232 259.975024 
z
" style="fill:#96c69a;fill-opacity:0.5;stroke:#ffffff;stroke-linejoin:miter;stroke-width:1.282112;"/>
   </g>
   <g id="patch_98">
    <path clip-path="url(#pc11834e02b)" d="M 584.517232 259.975024 
L 594.805064 259.975024 
L 594.805064 247.153904 
L 584.517232 247.153904 
z
" style="fill:#96c69a;fill-opacity:0.5;stroke:#ffffff;stroke-linejoin:miter;stroke-width:1.282112;"/>
   </g>
   <g id="patch_99">
    <path clip-path="url(#pc11834e02b)" d="M 584.517232 247.153904 
L 595.233724 247.153904 
L 595.233724 234.332783 
L 584.517232 234.332783 
z
" style="fill:#96c69a;fill-opacity:0.5;stroke:#ffffff;stroke-linejoin:miter;stroke-width:1.282112;"/>
   </g>
   <g id="patch_100">
    <path clip-path="url(#pc11834e02b)" d="M 584.517232 234.332783 
L 589.232489 234.332783 
L 589.232489 221.511662 
L 584.517232 221.511662 
z
" style="fill:#96c69a;fill-opacity:0.5;stroke:#ffffff;stroke-linejoin:miter;stroke-width:1.282112;"/>
   </g>
   <g id="patch_101">
    <path clip-path="url(#pc11834e02b)" d="M 584.517232 221.511662 
L 587.94651 221.511662 
L 587.94651 208.690542 
L 584.517232 208.690542 
z
" style="fill:#96c69a;fill-opacity:0.5;stroke:#ffffff;stroke-linejoin:miter;stroke-width:1.282112;"/>
   </g>
   <g id="patch_102">
    <path clip-path="url(#pc11834e02b)" d="M 584.517232 208.690542 
L 587.51785 208.690542 
L 587.51785 195.869421 
L 584.517232 195.869421 
z
" style="fill:#96c69a;fill-opacity:0.5;stroke:#ffffff;stroke-linejoin:miter;stroke-width:1.282112;"/>
   </g>
   <g id="patch_103">
    <path clip-path="url(#pc11834e02b)" d="M 584.517232 195.869421 
L 586.231871 195.869421 
L 586.231871 183.048301 
L 584.517232 183.048301 
z
" style="fill:#96c69a;fill-opacity:0.5;stroke:#ffffff;stroke-linejoin:miter;stroke-width:1.282112;"/>
   </g>
   <g id="patch_104">
    <path clip-path="url(#pc11834e02b)" d="M 584.517232 183.048301 
L 586.231871 183.048301 
L 586.231871 170.22718 
L 584.517232 170.22718 
z
" style="fill:#96c69a;fill-opacity:0.5;stroke:#ffffff;stroke-linejoin:miter;stroke-width:1.282112;"/>
   </g>
   <g id="patch_105">
    <path clip-path="url(#pc11834e02b)" d="M 584.517232 170.22718 
L 584.517232 170.22718 
L 584.517232 157.406059 
L 584.517232 157.406059 
z
" style="fill:#96c69a;fill-opacity:0.5;stroke:#ffffff;stroke-linejoin:miter;stroke-width:1.282112;"/>
   </g>
   <g id="patch_106">
    <path clip-path="url(#pc11834e02b)" d="M 584.517232 157.406059 
L 584.517232 157.406059 
L 584.517232 144.584939 
L 584.517232 144.584939 
z
" style="fill:#96c69a;fill-opacity:0.5;stroke:#ffffff;stroke-linejoin:miter;stroke-width:1.282112;"/>
   </g>
   <g id="patch_107">
    <path clip-path="url(#pc11834e02b)" d="M 584.517232 144.584939 
L 584.945892 144.584939 
L 584.945892 131.763818 
L 584.517232 131.763818 
z
" style="fill:#96c69a;fill-opacity:0.5;stroke:#ffffff;stroke-linejoin:miter;stroke-width:1.282112;"/>
   </g>
   <g id="patch_108">
    <path d="M 584.517232 602.94 
L 584.517232 109.326857 
" style="fill:none;stroke:#262626;stroke-linecap:square;stroke-linejoin:miter;stroke-width:2.5;"/>
   </g>
   <g id="patch_109">
    <path d="M 584.517232 602.94 
L 667.784375 602.94 
" style="fill:none;stroke:#262626;stroke-linecap:square;stroke-linejoin:miter;stroke-width:2.5;"/>
   </g>
  </g>
 </g>
 <defs>
  <clipPath id="pa43be68ae4">
   <rect height="493.613143" width="482.949429" x="84.914375" y="109.326857"/>
  </clipPath>
  <clipPath id="p93ecc5aa22">
   <rect height="85.105714" width="482.949429" x="84.914375" y="7.2"/>
  </clipPath>
  <clipPath id="pc11834e02b">
   <rect height="493.613143" width="83.267143" x="584.517232" y="109.326857"/>
  </clipPath>
 </defs>
</svg>
