<?xml version="1.0" encoding="utf-8" standalone="no"?>
<!DOCTYPE svg PUBLIC "-//W3C//DTD SVG 1.1//EN"
  "http://www.w3.org/Graphics/SVG/1.1/DTD/svg11.dtd">
<svg height="674.159375pt" version="1.1" viewBox="0 0 674.984375 674.159375" width="674.984375pt" xmlns="http://www.w3.org/2000/svg" xmlns:xlink="http://www.w3.org/1999/xlink">
 <metadata>
  <rdf:RDF xmlns:cc="http://creativecommons.org/ns#" xmlns:dc="http://purl.org/dc/elements/1.1/" xmlns:rdf="http://www.w3.org/1999/02/22-rdf-syntax-ns#">
   <cc:Work>
    <dc:type rdf:resource="http://purl.org/dc/dcmitype/StillImage"/>
    <dc:date>2021-07-24T14:57:22.259792</dc:date>
    <dc:format>image/svg+xml</dc:format>
    <dc:creator>
     <cc:Agent>
      <dc:title>Matplotlib v3.4.2, https://matplotlib.org/</dc:title>
     </cc:Agent>
    </dc:creator>
   </cc:Work>
  </rdf:RDF>
 </metadata>
 <defs>
  <style type="text/css">*{stroke-linecap:butt;stroke-linejoin:round;}</style>
 </defs>
 <g id="figure_1">
  <g id="patch_1">
   <path d="M 0 674.159375 
L 674.984375 674.159375 
L 674.984375 0 
L 0 0 
z
" style="fill:#ffffff;"/>
  </g>
  <g id="axes_1">
   <g id="patch_2">
    <path d="M 84.914375 602.94 
L 567.863804 602.94 
L 567.863804 109.326857 
L 84.914375 109.326857 
z
" style="fill:none;"/>
   </g>
   <g id="matplotlib.axis_1">
    <g id="xtick_1">
     <g id="text_1">
      <!-- 0 -->
      <g style="fill:#262626;" transform="translate(99.648239 635.156562)scale(0.22 -0.22)">
       <defs>
        <path d="M 2034 4250 
Q 1547 4250 1301 3770 
Q 1056 3291 1056 2328 
Q 1056 1369 1301 889 
Q 1547 409 2034 409 
Q 2525 409 2770 889 
Q 3016 1369 3016 2328 
Q 3016 3291 2770 3770 
Q 2525 4250 2034 4250 
z
M 2034 4750 
Q 2819 4750 3233 4129 
Q 3647 3509 3647 2328 
Q 3647 1150 3233 529 
Q 2819 -91 2034 -91 
Q 1250 -91 836 529 
Q 422 1150 422 2328 
Q 422 3509 836 4129 
Q 1250 4750 2034 4750 
z
" id="DejaVuSans-30" transform="scale(0.015625)"/>
       </defs>
       <use xlink:href="#DejaVuSans-30"/>
      </g>
     </g>
    </g>
    <g id="xtick_2">
     <g id="text_2">
      <!-- 20000 -->
      <g style="fill:#262626;" transform="translate(159.506153 635.156562)scale(0.22 -0.22)">
       <defs>
        <path d="M 1228 531 
L 3431 531 
L 3431 0 
L 469 0 
L 469 531 
Q 828 903 1448 1529 
Q 2069 2156 2228 2338 
Q 2531 2678 2651 2914 
Q 2772 3150 2772 3378 
Q 2772 3750 2511 3984 
Q 2250 4219 1831 4219 
Q 1534 4219 1204 4116 
Q 875 4013 500 3803 
L 500 4441 
Q 881 4594 1212 4672 
Q 1544 4750 1819 4750 
Q 2544 4750 2975 4387 
Q 3406 4025 3406 3419 
Q 3406 3131 3298 2873 
Q 3191 2616 2906 2266 
Q 2828 2175 2409 1742 
Q 1991 1309 1228 531 
z
" id="DejaVuSans-32" transform="scale(0.015625)"/>
       </defs>
       <use xlink:href="#DejaVuSans-32"/>
       <use x="63.623047" xlink:href="#DejaVuSans-30"/>
       <use x="127.246094" xlink:href="#DejaVuSans-30"/>
       <use x="190.869141" xlink:href="#DejaVuSans-30"/>
       <use x="254.492188" xlink:href="#DejaVuSans-30"/>
      </g>
     </g>
    </g>
    <g id="xtick_3">
     <g id="text_3">
      <!-- 40000 -->
      <g style="fill:#262626;" transform="translate(247.359066 635.156562)scale(0.22 -0.22)">
       <defs>
        <path d="M 2419 4116 
L 825 1625 
L 2419 1625 
L 2419 4116 
z
M 2253 4666 
L 3047 4666 
L 3047 1625 
L 3713 1625 
L 3713 1100 
L 3047 1100 
L 3047 0 
L 2419 0 
L 2419 1100 
L 313 1100 
L 313 1709 
L 2253 4666 
z
" id="DejaVuSans-34" transform="scale(0.015625)"/>
       </defs>
       <use xlink:href="#DejaVuSans-34"/>
       <use x="63.623047" xlink:href="#DejaVuSans-30"/>
       <use x="127.246094" xlink:href="#DejaVuSans-30"/>
       <use x="190.869141" xlink:href="#DejaVuSans-30"/>
       <use x="254.492188" xlink:href="#DejaVuSans-30"/>
      </g>
     </g>
    </g>
    <g id="xtick_4">
     <g id="text_4">
      <!-- 60000 -->
      <g style="fill:#262626;" transform="translate(335.21198 635.156562)scale(0.22 -0.22)">
       <defs>
        <path d="M 2113 2584 
Q 1688 2584 1439 2293 
Q 1191 2003 1191 1497 
Q 1191 994 1439 701 
Q 1688 409 2113 409 
Q 2538 409 2786 701 
Q 3034 994 3034 1497 
Q 3034 2003 2786 2293 
Q 2538 2584 2113 2584 
z
M 3366 4563 
L 3366 3988 
Q 3128 4100 2886 4159 
Q 2644 4219 2406 4219 
Q 1781 4219 1451 3797 
Q 1122 3375 1075 2522 
Q 1259 2794 1537 2939 
Q 1816 3084 2150 3084 
Q 2853 3084 3261 2657 
Q 3669 2231 3669 1497 
Q 3669 778 3244 343 
Q 2819 -91 2113 -91 
Q 1303 -91 875 529 
Q 447 1150 447 2328 
Q 447 3434 972 4092 
Q 1497 4750 2381 4750 
Q 2619 4750 2861 4703 
Q 3103 4656 3366 4563 
z
" id="DejaVuSans-36" transform="scale(0.015625)"/>
       </defs>
       <use xlink:href="#DejaVuSans-36"/>
       <use x="63.623047" xlink:href="#DejaVuSans-30"/>
       <use x="127.246094" xlink:href="#DejaVuSans-30"/>
       <use x="190.869141" xlink:href="#DejaVuSans-30"/>
       <use x="254.492188" xlink:href="#DejaVuSans-30"/>
      </g>
     </g>
    </g>
    <g id="xtick_5">
     <g id="text_5">
      <!-- 80000 -->
      <g style="fill:#262626;" transform="translate(423.064893 635.156562)scale(0.22 -0.22)">
       <defs>
        <path d="M 2034 2216 
Q 1584 2216 1326 1975 
Q 1069 1734 1069 1313 
Q 1069 891 1326 650 
Q 1584 409 2034 409 
Q 2484 409 2743 651 
Q 3003 894 3003 1313 
Q 3003 1734 2745 1975 
Q 2488 2216 2034 2216 
z
M 1403 2484 
Q 997 2584 770 2862 
Q 544 3141 544 3541 
Q 544 4100 942 4425 
Q 1341 4750 2034 4750 
Q 2731 4750 3128 4425 
Q 3525 4100 3525 3541 
Q 3525 3141 3298 2862 
Q 3072 2584 2669 2484 
Q 3125 2378 3379 2068 
Q 3634 1759 3634 1313 
Q 3634 634 3220 271 
Q 2806 -91 2034 -91 
Q 1263 -91 848 271 
Q 434 634 434 1313 
Q 434 1759 690 2068 
Q 947 2378 1403 2484 
z
M 1172 3481 
Q 1172 3119 1398 2916 
Q 1625 2713 2034 2713 
Q 2441 2713 2670 2916 
Q 2900 3119 2900 3481 
Q 2900 3844 2670 4047 
Q 2441 4250 2034 4250 
Q 1625 4250 1398 4047 
Q 1172 3844 1172 3481 
z
" id="DejaVuSans-38" transform="scale(0.015625)"/>
       </defs>
       <use xlink:href="#DejaVuSans-38"/>
       <use x="63.623047" xlink:href="#DejaVuSans-30"/>
       <use x="127.246094" xlink:href="#DejaVuSans-30"/>
       <use x="190.869141" xlink:href="#DejaVuSans-30"/>
       <use x="254.492188" xlink:href="#DejaVuSans-30"/>
      </g>
     </g>
    </g>
    <g id="xtick_6">
     <g id="text_6">
      <!-- 100000 -->
      <g style="fill:#262626;" transform="translate(503.919057 635.156562)scale(0.22 -0.22)">
       <defs>
        <path d="M 794 531 
L 1825 531 
L 1825 4091 
L 703 3866 
L 703 4441 
L 1819 4666 
L 2450 4666 
L 2450 531 
L 3481 531 
L 3481 0 
L 794 0 
L 794 531 
z
" id="DejaVuSans-31" transform="scale(0.015625)"/>
       </defs>
       <use xlink:href="#DejaVuSans-31"/>
       <use x="63.623047" xlink:href="#DejaVuSans-30"/>
       <use x="127.246094" xlink:href="#DejaVuSans-30"/>
       <use x="190.869141" xlink:href="#DejaVuSans-30"/>
       <use x="254.492188" xlink:href="#DejaVuSans-30"/>
       <use x="318.115234" xlink:href="#DejaVuSans-30"/>
      </g>
     </g>
    </g>
    <g id="text_7">
     <!-- MDTU -->
     <g style="fill:#262626;" transform="translate(290.683464 661.968125)scale(0.24 -0.24)">
      <defs>
       <path d="M 628 4666 
L 1569 4666 
L 2759 1491 
L 3956 4666 
L 4897 4666 
L 4897 0 
L 4281 0 
L 4281 4097 
L 3078 897 
L 2444 897 
L 1241 4097 
L 1241 0 
L 628 0 
L 628 4666 
z
" id="DejaVuSans-4d" transform="scale(0.015625)"/>
       <path d="M 1259 4147 
L 1259 519 
L 2022 519 
Q 2988 519 3436 956 
Q 3884 1394 3884 2338 
Q 3884 3275 3436 3711 
Q 2988 4147 2022 4147 
L 1259 4147 
z
M 628 4666 
L 1925 4666 
Q 3281 4666 3915 4102 
Q 4550 3538 4550 2338 
Q 4550 1131 3912 565 
Q 3275 0 1925 0 
L 628 0 
L 628 4666 
z
" id="DejaVuSans-44" transform="scale(0.015625)"/>
       <path d="M -19 4666 
L 3928 4666 
L 3928 4134 
L 2272 4134 
L 2272 0 
L 1638 0 
L 1638 4134 
L -19 4134 
L -19 4666 
z
" id="DejaVuSans-54" transform="scale(0.015625)"/>
       <path d="M 556 4666 
L 1191 4666 
L 1191 1831 
Q 1191 1081 1462 751 
Q 1734 422 2344 422 
Q 2950 422 3222 751 
Q 3494 1081 3494 1831 
L 3494 4666 
L 4128 4666 
L 4128 1753 
Q 4128 841 3676 375 
Q 3225 -91 2344 -91 
Q 1459 -91 1007 375 
Q 556 841 556 1753 
L 556 4666 
z
" id="DejaVuSans-55" transform="scale(0.015625)"/>
      </defs>
      <use xlink:href="#DejaVuSans-4d"/>
      <use x="86.279297" xlink:href="#DejaVuSans-44"/>
      <use x="163.28125" xlink:href="#DejaVuSans-54"/>
      <use x="224.365234" xlink:href="#DejaVuSans-55"/>
     </g>
    </g>
   </g>
   <g id="matplotlib.axis_2">
    <g id="ytick_1">
     <g id="text_8">
      <!-- 0.6 -->
      <g style="fill:#262626;" transform="translate(34.4275 565.342423)scale(0.22 -0.22)">
       <defs>
        <path d="M 684 794 
L 1344 794 
L 1344 0 
L 684 0 
L 684 794 
z
" id="DejaVuSans-2e" transform="scale(0.015625)"/>
       </defs>
       <use xlink:href="#DejaVuSans-30"/>
       <use x="63.623047" xlink:href="#DejaVuSans-2e"/>
       <use x="95.410156" xlink:href="#DejaVuSans-36"/>
      </g>
     </g>
    </g>
    <g id="ytick_2">
     <g id="text_9">
      <!-- 0.7 -->
      <g style="fill:#262626;" transform="translate(34.4275 482.209698)scale(0.22 -0.22)">
       <defs>
        <path d="M 525 4666 
L 3525 4666 
L 3525 4397 
L 1831 0 
L 1172 0 
L 2766 4134 
L 525 4134 
L 525 4666 
z
" id="DejaVuSans-37" transform="scale(0.015625)"/>
       </defs>
       <use xlink:href="#DejaVuSans-30"/>
       <use x="63.623047" xlink:href="#DejaVuSans-2e"/>
       <use x="95.410156" xlink:href="#DejaVuSans-37"/>
      </g>
     </g>
    </g>
    <g id="ytick_3">
     <g id="text_10">
      <!-- 0.8 -->
      <g style="fill:#262626;" transform="translate(34.4275 399.076973)scale(0.22 -0.22)">
       <use xlink:href="#DejaVuSans-30"/>
       <use x="63.623047" xlink:href="#DejaVuSans-2e"/>
       <use x="95.410156" xlink:href="#DejaVuSans-38"/>
      </g>
     </g>
    </g>
    <g id="ytick_4">
     <g id="text_11">
      <!-- 0.9 -->
      <g style="fill:#262626;" transform="translate(34.4275 315.944249)scale(0.22 -0.22)">
       <defs>
        <path d="M 703 97 
L 703 672 
Q 941 559 1184 500 
Q 1428 441 1663 441 
Q 2288 441 2617 861 
Q 2947 1281 2994 2138 
Q 2813 1869 2534 1725 
Q 2256 1581 1919 1581 
Q 1219 1581 811 2004 
Q 403 2428 403 3163 
Q 403 3881 828 4315 
Q 1253 4750 1959 4750 
Q 2769 4750 3195 4129 
Q 3622 3509 3622 2328 
Q 3622 1225 3098 567 
Q 2575 -91 1691 -91 
Q 1453 -91 1209 -44 
Q 966 3 703 97 
z
M 1959 2075 
Q 2384 2075 2632 2365 
Q 2881 2656 2881 3163 
Q 2881 3666 2632 3958 
Q 2384 4250 1959 4250 
Q 1534 4250 1286 3958 
Q 1038 3666 1038 3163 
Q 1038 2656 1286 2365 
Q 1534 2075 1959 2075 
z
" id="DejaVuSans-39" transform="scale(0.015625)"/>
       </defs>
       <use xlink:href="#DejaVuSans-30"/>
       <use x="63.623047" xlink:href="#DejaVuSans-2e"/>
       <use x="95.410156" xlink:href="#DejaVuSans-39"/>
      </g>
     </g>
    </g>
    <g id="ytick_5">
     <g id="text_12">
      <!-- 1.0 -->
      <g style="fill:#262626;" transform="translate(34.4275 232.811524)scale(0.22 -0.22)">
       <use xlink:href="#DejaVuSans-31"/>
       <use x="63.623047" xlink:href="#DejaVuSans-2e"/>
       <use x="95.410156" xlink:href="#DejaVuSans-30"/>
      </g>
     </g>
    </g>
    <g id="ytick_6">
     <g id="text_13">
      <!-- 1.1 -->
      <g style="fill:#262626;" transform="translate(34.4275 149.678799)scale(0.22 -0.22)">
       <use xlink:href="#DejaVuSans-31"/>
       <use x="63.623047" xlink:href="#DejaVuSans-2e"/>
       <use x="95.410156" xlink:href="#DejaVuSans-31"/>
      </g>
     </g>
    </g>
    <g id="text_14">
     <!-- $E$ -->
     <g style="fill:#262626;" transform="translate(25.43625 363.813429)rotate(-90)scale(0.24 -0.24)">
      <defs>
       <path d="M 1081 4666 
L 4031 4666 
L 3928 4134 
L 1606 4134 
L 1338 2753 
L 3566 2753 
L 3463 2222 
L 1234 2222 
L 909 531 
L 3284 531 
L 3181 0 
L 172 0 
L 1081 4666 
z
" id="DejaVuSans-Oblique-45" transform="scale(0.015625)"/>
      </defs>
      <use transform="translate(0 0.09375)" xlink:href="#DejaVuSans-Oblique-45"/>
     </g>
    </g>
   </g>
   <g id="line2d_1">
    <path clip-path="url(#p40a1207025)" d="M 111.259267 262.61889 
L 111.4789 404.593592 
L 111.698532 443.663528 
L 111.918164 371.338995 
L 112.357429 319.216824 
L 112.577061 403.02591 
L 112.796693 401.620894 
L 113.016326 484.42109 
L 113.235958 473.457564 
L 113.675223 328.925416 
L 114.114487 356.886621 
L 114.334119 316.484771 
L 114.553752 441.764656 
L 114.773384 267.653053 
L 114.993016 263.271331 
L 115.651913 495.970166 
L 116.091178 364.400308 
L 116.31081 464.600158 
L 116.530442 451.276093 
L 116.969707 482.237868 
L 117.189339 372.253696 
L 117.408971 343.835876 
L 117.628604 464.307546 
L 117.848236 422.270228 
L 118.067868 536.14753 
L 118.287501 503.782968 
L 118.726765 350.925103 
L 118.946397 372.23861 
L 119.16603 228.315783 
L 119.605294 408.376057 
L 119.824926 345.861011 
L 120.044559 403.992992 
L 120.264191 321.165079 
L 120.923088 503.859902 
L 121.14272 368.970402 
L 121.362352 439.33468 
L 121.581985 394.269296 
L 121.801617 497.894679 
L 122.021249 526.568803 
L 122.240882 335.637946 
L 122.460514 415.509458 
L 122.680146 377.41118 
L 122.899778 431.620636 
L 123.119411 321.348421 
L 123.339043 309.322726 
L 123.558675 369.804512 
L 123.778308 278.653453 
L 124.217572 493.844015 
L 124.437204 368.642415 
L 124.656837 367.255917 
L 124.876469 435.735579 
L 125.096101 336.825615 
L 125.315734 396.003206 
L 125.535366 283.380662 
L 125.754998 317.636416 
L 125.97463 259.20845 
L 126.194263 400.989025 
L 126.633527 441.944238 
L 126.85316 376.420948 
L 127.072792 244.001536 
L 127.292424 371.728051 
L 127.512056 395.15742 
L 127.731689 400.019459 
L 127.951321 319.212508 
L 128.170953 389.347141 
L 128.390586 385.773448 
L 128.610218 450.964964 
L 128.82985 285.197763 
L 129.049482 348.219749 
L 129.269115 363.661563 
L 129.488747 325.390708 
L 129.708379 365.378602 
L 129.928012 292.476375 
L 130.147644 483.817548 
L 130.367276 446.312033 
L 130.586908 430.002769 
L 131.026173 275.740468 
L 131.245805 315.317746 
L 131.465438 398.432086 
L 131.68507 431.035151 
L 132.124334 266.722973 
L 132.343967 433.736797 
L 132.563599 396.660229 
L 132.783231 396.159715 
L 133.002864 372.481912 
L 133.222496 312.042203 
L 133.66176 464.83825 
L 133.881393 466.786254 
L 134.101025 410.886407 
L 134.320657 463.866418 
L 134.540289 380.977476 
L 134.759922 352.298786 
L 134.979554 400.940265 
L 135.199186 229.963917 
L 135.418819 371.678915 
L 135.638451 279.154792 
L 136.077715 380.418037 
L 136.297348 302.945611 
L 136.51698 320.064994 
L 136.736612 371.500764 
L 136.956245 276.80671 
L 137.175877 307.487344 
L 137.395509 358.905273 
L 137.615141 486.207261 
L 137.834774 422.451465 
L 138.054406 423.275581 
L 138.274038 333.001897 
L 138.493671 358.571579 
L 138.713303 424.458603 
L 138.932935 366.42403 
L 139.152567 358.291163 
L 139.3722 436.178807 
L 139.591832 421.386649 
L 139.811464 371.929727 
L 140.031097 262.502721 
L 140.250729 413.637842 
L 140.470361 399.214283 
L 140.689993 508.458016 
L 141.129258 374.174142 
L 141.34889 408.517223 
L 141.568523 470.142247 
L 141.788155 286.616344 
L 142.007787 412.531815 
L 142.227419 325.377083 
L 142.447052 322.674006 
L 142.666684 431.197408 
L 142.886316 441.13997 
L 143.105949 302.635147 
L 143.325581 349.157642 
L 143.545213 301.781045 
L 143.764845 131.763818 
L 144.20411 424.692445 
L 144.423742 427.771118 
L 144.643375 470.93728 
L 144.863007 407.948199 
L 145.082639 385.053376 
L 145.302271 254.489967 
L 145.521904 193.234958 
L 145.741536 460.462831 
L 145.961168 248.829935 
L 146.180801 474.051976 
L 146.400433 376.215344 
L 146.620065 439.10067 
L 146.839697 340.636662 
L 147.05933 345.387264 
L 147.278962 416.134951 
L 147.498594 423.312196 
L 147.718227 381.766163 
L 147.937859 405.727143 
L 148.157491 322.017776 
L 148.377123 390.972736 
L 148.596756 417.704867 
L 148.816388 340.754384 
L 149.03602 364.210553 
L 149.255653 360.170942 
L 149.475285 374.147432 
L 149.694917 379.974296 
L 149.914549 400.201186 
L 150.353814 412.322396 
L 150.573446 477.959165 
L 150.793078 420.122585 
L 151.012711 461.73623 
L 151.232343 351.301756 
L 151.671608 548.950571 
L 152.110872 329.758011 
L 152.550137 478.511157 
L 152.769769 431.423616 
L 152.989401 545.34694 
L 153.428666 263.889943 
L 153.648298 368.963385 
L 153.86793 272.074716 
L 154.087563 456.591799 
L 154.307195 222.303688 
L 154.526827 405.302584 
L 154.74646 350.890114 
L 154.966092 387.353243 
L 155.185724 444.22486 
L 155.405356 387.0627 
L 155.624989 401.639625 
L 155.844621 512.620575 
L 156.064253 412.073116 
L 156.283886 415.249687 
L 156.503518 423.615153 
L 156.942782 360.600892 
L 157.162415 243.085787 
L 157.382047 344.473499 
L 157.601679 363.014205 
L 157.821312 355.187621 
L 158.040944 325.415447 
L 158.260576 335.063672 
L 158.480208 477.178318 
L 158.699841 531.256621 
L 159.139105 256.822048 
L 159.358738 400.91831 
L 159.57837 294.187675 
L 159.798002 376.966107 
L 160.017634 296.248181 
L 160.237267 316.27501 
L 160.456899 383.317155 
L 160.676531 349.326365 
L 160.896164 452.898293 
L 161.115796 397.641663 
L 161.335428 308.426925 
L 161.55506 316.077258 
L 161.774693 437.458701 
L 161.994325 360.401453 
L 162.213957 343.413547 
L 162.43359 315.34477 
L 162.653222 425.701371 
L 162.872854 418.936736 
L 163.092486 309.539954 
L 163.531751 354.276502 
L 163.751383 352.41391 
L 163.971016 356.360005 
L 164.190648 215.549976 
L 164.41028 497.327152 
L 164.629912 354.451085 
L 164.849545 474.160464 
L 165.069177 353.150849 
L 165.288809 445.017483 
L 165.508441 325.778831 
L 165.728074 462.531276 
L 165.947706 376.142207 
L 166.167338 387.472309 
L 166.386971 425.243637 
L 166.606603 310.373546 
L 166.826235 373.143184 
L 167.045867 321.121837 
L 167.2655 433.884709 
L 167.485132 402.505202 
L 167.704764 330.744668 
L 168.144029 479.927946 
L 168.583293 269.516373 
L 168.802926 327.002141 
L 169.022558 326.100091 
L 169.24219 352.038893 
L 169.461823 339.082883 
L 169.681455 318.668191 
L 169.901087 410.322417 
L 170.120719 382.672945 
L 170.340352 380.353016 
L 170.559984 479.045143 
L 170.779616 417.758263 
L 171.218881 447.988847 
L 171.438513 293.980742 
L 171.877778 494.363621 
L 172.09741 310.814251 
L 172.317042 521.838963 
L 172.756307 399.317737 
L 172.975939 427.237196 
L 173.195571 354.571663 
L 173.415204 356.284379 
L 173.634836 420.590829 
L 173.854468 281.996968 
L 174.074101 429.305463 
L 174.293733 342.479935 
L 174.513365 319.676037 
L 174.95263 374.009509 
L 175.172262 295.990285 
L 175.611527 523.34303 
L 175.831159 401.824284 
L 176.050791 410.859106 
L 176.270423 432.27523 
L 176.490056 411.214268 
L 176.709688 240.133278 
L 176.92932 318.585779 
L 177.148953 344.613109 
L 177.368585 436.692023 
L 177.588217 460.662544 
L 177.807849 331.570354 
L 178.027482 329.55916 
L 178.247114 438.183233 
L 178.466746 303.849221 
L 178.686379 379.276021 
L 178.906011 348.287299 
L 179.345275 504.90715 
L 179.564908 449.977286 
L 179.78454 317.155448 
L 180.004172 391.574289 
L 180.223805 402.467086 
L 180.443437 288.610445 
L 180.663069 329.451944 
L 180.882701 274.955514 
L 181.321966 422.722977 
L 181.541598 289.839907 
L 181.76123 369.945317 
L 181.980863 407.178585 
L 182.200495 306.767909 
L 182.420127 307.265872 
L 182.63976 480.000768 
L 182.859392 510.539572 
L 183.298656 371.245537 
L 183.518289 368.217402 
L 183.737921 331.176686 
L 183.957553 358.910195 
L 184.177186 341.665057 
L 184.396818 571.407303 
L 184.61645 320.926308 
L 184.836082 465.471827 
L 185.055715 440.256256 
L 185.275347 396.979981 
L 185.494979 327.034902 
L 185.714612 420.892308 
L 185.934244 352.221236 
L 186.153876 387.027767 
L 186.373508 322.513022 
L 186.812773 447.979666 
L 187.032405 348.806591 
L 187.252038 477.399038 
L 187.47167 362.417519 
L 187.691302 326.333816 
L 187.910934 399.656756 
L 188.130567 304.289452 
L 188.569831 387.853736 
L 188.789464 348.336017 
L 189.009096 413.81713 
L 189.228728 365.811956 
L 189.44836 284.094578 
L 189.667993 387.014391 
L 189.887625 323.142491 
L 190.107257 338.391503 
L 190.32689 433.04047 
L 190.766154 317.080835 
L 190.985786 440.782263 
L 191.205419 290.101227 
L 191.864316 486.874472 
L 192.083948 460.512984 
L 192.30358 331.186619 
L 192.523212 422.27697 
L 192.742845 344.972031 
L 193.401742 419.83772 
L 193.621374 371.962583 
L 193.841006 390.981034 
L 194.060638 469.747563 
L 194.280271 383.988225 
L 194.499903 383.462246 
L 194.719535 313.722844 
L 194.939168 387.226055 
L 195.1588 403.814049 
L 195.378432 331.203815 
L 195.817697 504.062564 
L 196.037329 410.397123 
L 196.256961 377.008541 
L 196.476593 419.394077 
L 196.696226 326.99333 
L 196.915858 389.903622 
L 197.13549 162.671777 
L 197.355123 380.369394 
L 197.574755 286.788763 
L 197.794387 435.496621 
L 198.014019 330.686112 
L 198.233652 407.03912 
L 198.453284 390.868084 
L 198.672916 336.043577 
L 198.892549 406.575796 
L 199.112181 299.186269 
L 199.331813 397.788815 
L 199.551445 419.629322 
L 199.771078 408.247432 
L 199.99071 433.891224 
L 200.210342 167.134109 
L 200.429975 462.589963 
L 200.649607 409.555931 
L 200.869239 488.592647 
L 201.088871 446.371607 
L 201.528136 214.439679 
L 201.747768 376.669272 
L 201.967401 425.207191 
L 202.187033 430.401444 
L 202.406665 400.668008 
L 202.626297 296.962566 
L 202.84593 288.202247 
L 203.065562 405.537326 
L 203.504827 343.483362 
L 203.944091 432.288312 
L 204.163723 386.558546 
L 204.383356 295.511268 
L 204.602988 283.779505 
L 205.042253 505.357117 
L 205.261885 280.182941 
L 205.481517 446.094456 
L 205.701149 359.296664 
L 205.920782 445.120667 
L 206.140414 435.431195 
L 206.360046 351.844049 
L 206.579679 432.037047 
L 206.799311 288.128749 
L 207.018943 447.170006 
L 207.238575 389.381575 
L 207.458208 292.611841 
L 207.67784 404.82974 
L 207.897472 315.083236 
L 208.117105 492.113774 
L 208.336737 305.805548 
L 208.556369 436.199397 
L 208.776001 380.944026 
L 208.995634 522.054968 
L 209.215266 398.188733 
L 209.654531 356.08553 
L 209.874163 376.154859 
L 210.093795 241.438201 
L 210.313427 420.114609 
L 210.53306 282.41189 
L 210.752692 331.634936 
L 210.972324 294.044174 
L 211.191956 411.188218 
L 211.411589 310.797531 
L 211.631221 335.643557 
L 211.850853 445.724712 
L 212.070486 419.518803 
L 212.290118 430.790271 
L 212.50975 372.031091 
L 212.729382 269.043966 
L 212.949015 337.163058 
L 213.168647 310.067589 
L 213.388279 390.526204 
L 213.607912 375.186154 
L 213.827544 457.605594 
L 214.047176 359.801195 
L 214.266808 443.896476 
L 214.486441 394.39552 
L 214.706073 404.597601 
L 214.925705 270.659526 
L 215.145338 296.246433 
L 215.36497 456.737051 
L 215.584602 459.993638 
L 216.243499 240.186609 
L 216.463131 374.818916 
L 216.682764 394.025709 
L 216.902396 362.536973 
L 217.122028 426.841742 
L 217.34166 232.273289 
L 217.561293 442.689767 
L 217.780925 335.602895 
L 218.000557 351.120226 
L 218.22019 352.236466 
L 218.439822 299.738597 
L 218.659454 336.627974 
L 218.879086 462.17321 
L 219.098719 344.879011 
L 219.537983 402.688795 
L 219.757616 382.904761 
L 219.977248 343.264258 
L 220.19688 378.542733 
L 220.416512 333.931221 
L 220.636145 375.46441 
L 220.855777 338.267998 
L 221.075409 381.177928 
L 221.295042 384.866927 
L 221.514674 290.795977 
L 221.734306 365.582054 
L 221.953938 349.410852 
L 222.173571 208.64209 
L 222.393203 432.451053 
L 222.612835 435.514411 
L 222.832468 507.671086 
L 223.0521 313.085492 
L 223.271732 437.772515 
L 223.491364 294.001753 
L 223.710997 418.997574 
L 223.930629 389.469963 
L 224.150261 334.863696 
L 224.369894 365.282521 
L 224.589526 441.474735 
L 224.809158 354.904877 
L 225.02879 331.733412 
L 225.248423 442.959256 
L 225.468055 441.029658 
L 225.687687 306.782113 
L 225.90732 417.9693 
L 226.126952 282.994464 
L 226.346584 315.353291 
L 226.566216 291.2611 
L 226.785849 486.226029 
L 227.444745 319.680558 
L 227.664378 387.440792 
L 227.88401 284.925691 
L 228.103642 391.290479 
L 228.323275 391.988377 
L 228.762539 448.573655 
L 228.982171 449.114657 
L 229.201804 411.717255 
L 229.421436 410.035665 
L 229.641068 423.81312 
L 229.860701 314.803313 
L 230.080333 293.758276 
L 230.299965 427.224939 
L 230.519597 427.772101 
L 230.73923 384.60833 
L 230.958862 385.914441 
L 231.178494 363.264925 
L 231.617759 480.115308 
L 231.837391 266.307417 
L 232.057023 356.503785 
L 232.276656 388.790169 
L 232.496288 301.876521 
L 232.71592 325.615466 
L 232.935553 334.168229 
L 233.155185 297.228255 
L 233.374817 471.565553 
L 233.594449 271.558156 
L 233.814082 404.753999 
L 234.033714 447.498793 
L 234.253346 353.194213 
L 234.472979 338.449299 
L 234.692611 245.712921 
L 234.912243 481.644126 
L 235.131875 277.225115 
L 235.351508 399.611882 
L 235.57114 341.820235 
L 235.790772 385.310938 
L 236.010405 353.704154 
L 236.230037 341.498614 
L 236.449669 480.094738 
L 236.669301 425.740312 
L 236.888934 433.23624 
L 237.108566 431.659883 
L 237.328198 425.715763 
L 237.547831 340.985224 
L 237.767463 431.48482 
L 237.987095 325.784506 
L 238.206727 421.776137 
L 238.42636 421.317705 
L 238.645992 287.876474 
L 238.865624 370.025777 
L 239.085257 359.108163 
L 239.304889 436.818336 
L 239.524521 286.593366 
L 239.744153 225.405809 
L 239.963786 408.43464 
L 240.183418 251.028171 
L 240.40305 389.454496 
L 240.622683 146.54679 
L 240.842315 252.626408 
L 241.061947 423.055374 
L 241.281579 355.381024 
L 241.501212 479.792005 
L 241.720844 298.04122 
L 241.940476 423.005695 
L 242.160108 389.221207 
L 242.379741 334.627609 
L 242.819005 387.087479 
L 243.038638 344.057352 
L 243.25827 431.862783 
L 243.477902 317.115734 
L 243.697534 410.528771 
L 243.917167 279.21733 
L 244.136799 325.021182 
L 244.576064 468.995411 
L 244.795696 313.23196 
L 245.015328 268.056543 
L 245.23496 344.057389 
L 245.454593 235.978296 
L 245.674225 283.052168 
L 245.893857 393.754263 
L 246.11349 365.612968 
L 246.333122 473.124765 
L 246.552754 351.169711 
L 246.772386 397.2637 
L 246.992019 349.026821 
L 247.211651 408.707982 
L 247.431283 372.007278 
L 247.870548 348.921016 
L 248.09018 304.870299 
L 248.309812 394.427919 
L 248.529445 279.058131 
L 248.749077 394.491185 
L 248.968709 429.768428 
L 249.188342 417.986259 
L 249.407974 396.367593 
L 249.627606 345.470229 
L 249.847238 460.058343 
L 250.066871 414.950136 
L 250.286503 255.264392 
L 250.506135 481.313281 
L 250.725768 388.999499 
L 250.9454 457.881088 
L 251.165032 431.777395 
L 251.384664 323.209753 
L 251.604297 419.347331 
L 251.823929 416.447871 
L 252.043561 401.085647 
L 252.263194 426.901673 
L 252.482826 331.034318 
L 252.702458 290.573766 
L 253.141723 537.428712 
L 253.580987 329.933208 
L 253.80062 423.449238 
L 254.020252 356.279968 
L 254.239884 340.912372 
L 254.459516 172.084045 
L 254.679149 420.82665 
L 254.898781 391.294469 
L 255.118413 406.677022 
L 255.338046 390.759085 
L 255.557678 332.733568 
L 255.77731 325.196882 
L 255.996942 431.135864 
L 256.216575 364.005863 
L 256.436207 428.40755 
L 256.655839 418.381416 
L 256.875472 401.223586 
L 257.095104 265.240524 
L 257.314736 374.247902 
L 257.534368 351.718752 
L 257.754001 371.299943 
L 257.973633 311.675569 
L 258.193265 457.517805 
L 258.412897 474.799124 
L 258.63253 423.969871 
L 258.852162 489.917473 
L 259.071794 430.25367 
L 259.730691 334.152067 
L 259.950323 387.651243 
L 260.169956 374.866003 
L 260.389588 377.84609 
L 260.60922 323.030458 
L 260.828853 350.519911 
L 261.048485 361.397429 
L 261.268117 389.227079 
L 261.487749 436.97235 
L 261.927014 284.172003 
L 262.146646 389.200297 
L 262.366279 382.177289 
L 262.585911 401.994246 
L 262.805543 304.288112 
L 263.025175 470.007358 
L 263.244808 337.350095 
L 263.684072 508.116337 
L 263.903705 327.473051 
L 264.123337 334.223718 
L 264.342969 347.69991 
L 264.782234 443.324238 
L 265.001866 335.902034 
L 265.221498 431.153171 
L 265.441131 250.661144 
L 265.660763 317.976113 
L 265.880395 269.923894 
L 266.100027 492.410123 
L 266.31966 230.396183 
L 266.539292 297.513371 
L 266.758924 419.825474 
L 266.978557 440.077488 
L 267.198189 197.542975 
L 267.417821 412.974878 
L 267.857086 357.872033 
L 268.076718 402.223511 
L 268.29635 286.291536 
L 268.515983 476.313216 
L 268.735615 449.022206 
L 268.955247 482.517964 
L 269.174879 442.725002 
L 269.394512 436.732036 
L 269.614144 325.020831 
L 269.833776 322.106461 
L 270.053409 405.53669 
L 270.273041 358.356725 
L 270.492673 287.039185 
L 270.712305 356.107397 
L 270.931938 316.908676 
L 271.15157 326.10873 
L 271.590835 412.396905 
L 271.810467 241.303529 
L 272.030099 378.344666 
L 272.249731 407.098727 
L 272.469364 392.437298 
L 272.688996 386.700094 
L 272.908628 335.516967 
L 273.347893 439.164336 
L 273.567525 325.488151 
L 273.787157 371.704127 
L 274.226422 269.244818 
L 274.446054 301.017916 
L 274.665686 237.106318 
L 274.885319 461.795886 
L 275.104951 374.88418 
L 275.324583 397.523235 
L 275.544216 293.16133 
L 275.98348 457.264958 
L 276.203112 349.164301 
L 276.422745 354.876817 
L 276.642377 277.947479 
L 276.862009 500.851908 
L 277.081642 359.574857 
L 277.301274 446.307996 
L 277.520906 396.249953 
L 277.740538 404.239284 
L 277.960171 399.358771 
L 278.179803 425.673276 
L 278.399435 409.585369 
L 278.619068 456.439346 
L 279.058332 325.086496 
L 279.277964 451.938909 
L 279.497597 310.584851 
L 279.717229 391.611334 
L 279.936861 377.32728 
L 280.156494 405.876291 
L 280.376126 367.379308 
L 280.595758 412.600624 
L 280.81539 322.752091 
L 281.035023 410.596267 
L 281.254655 446.500132 
L 281.474287 333.382165 
L 281.69392 329.457199 
L 281.913552 302.76208 
L 282.133184 498.550204 
L 282.352816 488.551333 
L 282.572449 291.65961 
L 282.792081 405.512609 
L 283.011713 320.449625 
L 283.231346 456.360548 
L 283.450978 431.399911 
L 283.67061 278.736449 
L 284.109875 371.592839 
L 284.329507 362.60569 
L 284.549139 377.044983 
L 284.768772 456.506194 
L 284.988404 272.399901 
L 285.208036 452.718924 
L 285.427668 334.408175 
L 285.866933 452.035431 
L 286.086565 405.443821 
L 286.306198 396.276193 
L 286.745462 305.260477 
L 286.965094 261.42371 
L 287.184727 420.425843 
L 287.404359 306.574724 
L 287.623991 491.406456 
L 287.843624 418.850917 
L 288.063256 401.745122 
L 288.50252 412.394177 
L 288.722153 204.567196 
L 288.941785 499.215129 
L 289.161417 393.49529 
L 289.381049 415.593143 
L 289.600682 292.617496 
L 289.820314 359.643877 
L 290.039946 497.666602 
L 290.479211 412.924081 
L 290.698843 408.591609 
L 290.918475 319.108237 
L 291.138108 384.596166 
L 291.35774 356.327281 
L 291.577372 367.660619 
L 291.797005 354.217703 
L 292.016637 470.710088 
L 292.236269 379.380307 
L 292.455901 411.761671 
L 292.675534 278.2712 
L 292.895166 448.895757 
L 293.114798 392.64166 
L 293.334431 472.9196 
L 293.554063 426.838854 
L 293.773695 420.822192 
L 293.993327 408.045941 
L 294.432592 345.004434 
L 294.652224 387.852183 
L 294.871857 283.809429 
L 295.091489 303.202967 
L 295.311121 420.419892 
L 295.530753 436.344811 
L 295.750386 394.484387 
L 295.970018 412.600467 
L 296.18965 446.824752 
L 296.409283 353.209394 
L 296.628915 513.467552 
L 296.848547 250.055732 
L 297.068179 368.994944 
L 297.287812 350.455987 
L 297.507444 351.093197 
L 297.727076 191.267217 
L 297.946709 393.041055 
L 298.166341 343.15716 
L 298.385973 396.508407 
L 298.605605 295.96788 
L 298.825238 453.447637 
L 299.04487 453.356126 
L 299.264502 497.062937 
L 299.484135 349.803316 
L 299.703767 326.39676 
L 299.923399 197.324405 
L 300.143031 386.811304 
L 300.362664 386.623169 
L 300.582296 361.637644 
L 300.801928 369.588975 
L 301.021561 473.275663 
L 301.241193 256.219564 
L 301.460825 343.968882 
L 301.680457 317.53619 
L 301.90009 380.024582 
L 302.119722 348.563841 
L 302.339354 475.089449 
L 302.558987 324.696231 
L 302.778619 456.457346 
L 303.217883 282.080373 
L 303.657148 430.972127 
L 303.87678 320.258557 
L 304.316045 409.864019 
L 304.535677 315.107152 
L 304.755309 417.588039 
L 304.974942 314.896393 
L 305.194574 492.011 
L 305.414206 343.921138 
L 305.633838 369.434973 
L 305.853471 363.751647 
L 306.073103 380.076888 
L 306.292735 469.068249 
L 306.512368 487.066979 
L 306.732 384.564412 
L 306.951632 460.277097 
L 307.171264 365.654447 
L 307.610529 422.003081 
L 307.830161 397.224882 
L 308.049794 330.756139 
L 308.269426 318.82734 
L 308.489058 521.983497 
L 308.70869 440.025512 
L 308.928323 271.471885 
L 309.147955 291.715217 
L 309.58722 404.433768 
L 309.806852 344.926145 
L 310.026484 319.780695 
L 310.246116 378.763406 
L 310.465749 356.928247 
L 310.685381 372.448338 
L 310.905013 482.046212 
L 311.124646 357.218111 
L 311.344278 388.283696 
L 311.56391 303.877404 
L 311.783542 284.507673 
L 312.003175 431.297999 
L 312.222807 488.853718 
L 312.442439 394.491445 
L 312.662072 382.542945 
L 312.881704 392.46089 
L 313.101336 283.909914 
L 313.320968 391.536841 
L 313.540601 331.888454 
L 313.760233 348.337846 
L 314.199498 482.809195 
L 314.41913 275.28689 
L 314.638762 410.494575 
L 314.858394 376.698116 
L 315.078027 470.604961 
L 315.517291 394.881314 
L 315.956556 327.595106 
L 316.176188 421.960714 
L 316.39582 388.637152 
L 316.615453 313.801982 
L 316.835085 534.619072 
L 317.054717 396.716818 
L 317.27435 380.221973 
L 317.713614 448.992428 
L 317.933246 403.473401 
L 318.372511 362.395566 
L 318.592143 406.63881 
L 318.811775 366.789301 
L 319.031408 244.34266 
L 319.25104 303.057174 
L 319.470672 325.548317 
L 319.690305 365.739174 
L 319.909937 431.43386 
L 320.129569 407.366895 
L 320.349201 333.205276 
L 320.568834 377.369948 
L 320.788466 207.409003 
L 321.008098 430.722558 
L 321.227731 229.682618 
L 321.666995 519.023832 
L 321.886627 334.205436 
L 322.10626 352.199328 
L 322.325892 380.940343 
L 322.545524 370.705816 
L 322.984789 295.109616 
L 323.204421 362.040384 
L 323.424053 362.541776 
L 323.643686 413.731171 
L 323.863318 350.358762 
L 324.08295 385.440133 
L 324.302583 379.582289 
L 324.522215 278.432608 
L 324.741847 339.520994 
L 324.961479 367.85234 
L 325.181112 298.514366 
L 325.400744 422.629956 
L 325.620376 455.152802 
L 325.840009 395.27258 
L 326.059641 425.78058 
L 326.279273 186.788829 
L 326.718538 473.525909 
L 326.93817 177.678584 
L 327.157802 255.974724 
L 327.377435 410.718619 
L 327.597067 412.741716 
L 327.816699 272.630904 
L 328.036331 551.085773 
L 328.255964 511.548218 
L 328.475596 192.754917 
L 328.695228 436.862521 
L 328.914861 471.547037 
L 329.134493 339.433802 
L 329.573757 414.194701 
L 329.79339 315.674347 
L 330.013022 448.155483 
L 330.232654 403.437982 
L 330.452287 393.981233 
L 330.671919 398.292425 
L 331.111183 350.44027 
L 331.330816 308.281141 
L 331.550448 299.961321 
L 331.77008 409.607596 
L 331.989713 274.301128 
L 332.209345 479.721724 
L 332.428977 301.012129 
L 332.648609 427.299895 
L 332.868242 338.096838 
L 333.087874 479.832512 
L 333.307506 344.392164 
L 333.527139 314.491184 
L 333.746771 238.314449 
L 333.966403 433.343948 
L 334.186035 265.116182 
L 334.405668 440.929998 
L 334.6253 458.55124 
L 334.844932 437.364516 
L 335.064564 448.6142 
L 335.284197 365.440045 
L 335.503829 496.706195 
L 335.723461 255.87103 
L 335.943094 400.318953 
L 336.162726 436.52792 
L 336.382358 422.986027 
L 336.60199 426.806908 
L 336.821623 445.246463 
L 337.041255 332.31004 
L 337.260887 367.254958 
L 337.48052 507.722833 
L 337.700152 360.680738 
L 337.919784 367.878406 
L 338.139416 263.126227 
L 338.359049 466.455003 
L 338.578681 245.301156 
L 338.798313 331.530087 
L 339.017946 464.730957 
L 339.237578 427.933922 
L 339.45721 284.169485 
L 339.676842 471.50572 
L 340.116107 258.097727 
L 340.775004 393.294695 
L 340.994636 402.408468 
L 341.214268 433.697193 
L 341.433901 389.20924 
L 341.653533 473.53323 
L 341.873165 308.07137 
L 342.31243 459.762387 
L 342.532062 332.15552 
L 342.751694 413.457569 
L 342.971327 345.051729 
L 343.190959 383.076636 
L 343.410591 505.190206 
L 343.630224 383.740643 
L 344.069488 536.485739 
L 344.28912 427.211639 
L 344.508753 385.649038 
L 344.728385 482.79369 
L 344.948017 431.983419 
L 345.16765 350.100386 
L 345.387282 322.330503 
L 345.606914 310.246175 
L 345.826546 382.896788 
L 346.046179 369.008751 
L 346.265811 370.840186 
L 346.485443 349.088156 
L 346.705076 302.841224 
L 347.14434 414.034961 
L 347.363972 403.224229 
L 347.583605 358.261533 
L 347.803237 434.230519 
L 348.022869 329.894502 
L 348.242502 382.499583 
L 348.462134 347.722777 
L 348.681766 423.1984 
L 348.901398 381.781857 
L 349.121031 304.307376 
L 349.340663 311.450997 
L 349.560295 279.849253 
L 349.779927 419.165821 
L 349.99956 341.755594 
L 350.219192 376.564676 
L 350.438824 179.176506 
L 350.658457 395.764692 
L 350.878089 275.201426 
L 351.097721 429.144784 
L 351.317353 279.693781 
L 351.536986 419.470748 
L 351.756618 318.008477 
L 351.97625 396.269725 
L 352.195883 411.683677 
L 352.415515 375.915849 
L 352.635147 406.67044 
L 352.854779 376.015609 
L 353.074412 329.807971 
L 353.294044 400.58028 
L 353.513676 379.836066 
L 353.733309 377.763673 
L 353.952941 370.492442 
L 354.172573 375.954735 
L 354.392205 341.172923 
L 354.611838 360.284299 
L 354.83147 349.757767 
L 355.051102 385.600254 
L 355.270735 366.883535 
L 355.490367 279.77302 
L 355.709999 315.993669 
L 355.929631 406.67237 
L 356.149264 395.208266 
L 356.368896 415.72858 
L 356.588528 243.233975 
L 356.808161 367.977971 
L 357.027793 381.196893 
L 357.247425 409.93098 
L 357.467057 387.49173 
L 357.68669 484.385769 
L 357.906322 274.948003 
L 358.345587 333.51443 
L 358.565219 308.452739 
L 359.004483 398.078861 
L 359.224116 323.942031 
L 359.443748 439.799654 
L 359.66338 418.919994 
L 359.883013 285.189802 
L 360.102645 333.117114 
L 360.322277 442.263698 
L 360.541909 358.342212 
L 360.761542 369.529957 
L 360.981174 321.678507 
L 361.200806 389.472247 
L 361.420439 419.52186 
L 361.640071 270.958464 
L 361.859703 397.112268 
L 362.079335 158.502729 
L 362.298968 489.193905 
L 362.5186 419.552623 
L 362.738232 417.945682 
L 362.957865 423.606159 
L 363.177497 384.727835 
L 363.397129 420.339346 
L 363.616761 321.381295 
L 363.836394 395.053174 
L 364.056026 306.70886 
L 364.495291 479.94842 
L 364.714923 385.221282 
L 364.934555 447.223346 
L 365.154187 277.451605 
L 365.37382 392.713609 
L 365.593452 383.517664 
L 365.813084 280.889631 
L 366.032716 277.226905 
L 366.252349 322.985284 
L 366.471981 301.716416 
L 366.911246 201.656222 
L 367.130878 383.593023 
L 367.35051 348.787947 
L 367.570142 405.879232 
L 367.789775 388.775976 
L 368.009407 212.437405 
L 368.229039 320.516849 
L 368.448672 515.234185 
L 368.668304 348.986859 
L 368.887936 476.936832 
L 369.107568 380.97921 
L 369.327201 374.42884 
L 369.766465 432.83946 
L 369.986098 381.449071 
L 370.20573 436.283322 
L 370.425362 457.568002 
L 370.644994 275.522994 
L 370.864627 448.404976 
L 371.084259 521.844316 
L 371.523524 311.729016 
L 371.743156 483.263342 
L 371.962788 490.405542 
L 372.18242 472.554096 
L 372.402053 305.563636 
L 372.841317 278.411479 
L 373.06095 311.106651 
L 373.280582 401.59694 
L 373.500214 289.30755 
L 373.719846 408.319243 
L 373.939479 244.820844 
L 374.159111 401.066976 
L 374.598376 438.730411 
L 375.03764 339.8955 
L 375.257272 300.541374 
L 375.476905 383.436018 
L 375.696537 353.039966 
L 375.916169 201.540504 
L 376.135802 438.95061 
L 376.355434 400.46692 
L 376.575066 432.629812 
L 376.794698 278.170198 
L 377.014331 335.407373 
L 377.233963 330.787071 
L 377.673228 490.215405 
L 377.89286 403.607004 
L 378.112492 405.782591 
L 378.332124 412.230075 
L 378.551757 448.611036 
L 378.771389 393.035508 
L 378.991021 415.43685 
L 379.210654 390.206559 
L 379.430286 288.040612 
L 379.649918 403.668107 
L 379.86955 408.469305 
L 380.089183 276.357888 
L 380.308815 467.455465 
L 380.528447 430.944661 
L 380.748079 190.915643 
L 380.967712 459.049109 
L 381.187344 355.818677 
L 381.406976 358.779742 
L 381.626609 378.489163 
L 382.065873 305.358257 
L 382.505138 408.660191 
L 382.72477 318.842917 
L 382.944402 369.395668 
L 383.383667 211.677902 
L 383.822931 417.110307 
L 384.042564 424.770818 
L 384.262196 388.865544 
L 384.481828 485.096852 
L 384.701461 502.192074 
L 384.921093 403.199803 
L 385.140725 393.770828 
L 385.360357 502.260581 
L 385.57999 278.122663 
L 385.799622 290.480133 
L 386.019254 341.118004 
L 386.238887 317.323992 
L 386.458519 198.422562 
L 386.678151 423.888857 
L 386.897783 421.954837 
L 387.117416 468.793245 
L 387.337048 415.161752 
L 387.55668 410.640378 
L 387.776313 418.480109 
L 387.995945 331.907328 
L 388.215577 423.212306 
L 388.435209 440.070888 
L 388.654842 259.545152 
L 388.874474 440.000759 
L 389.313739 324.463532 
L 389.533371 363.066144 
L 389.753003 356.229875 
L 389.972635 438.998864 
L 390.192268 253.052483 
L 390.4119 348.08169 
L 390.851165 407.705011 
L 391.070797 298.831226 
L 391.290429 401.024124 
L 391.729694 299.858111 
L 392.168958 447.215132 
L 392.388591 368.535737 
L 392.608223 408.215566 
L 392.827855 411.046395 
L 393.047487 351.537545 
L 393.26712 357.916631 
L 393.706384 492.860494 
L 393.926017 162.542659 
L 394.365281 496.302486 
L 394.584913 256.593572 
L 394.804546 350.739098 
L 395.024178 358.518148 
L 395.24381 440.03341 
L 395.463443 423.685746 
L 395.683075 362.555758 
L 395.902707 395.030711 
L 396.122339 324.830378 
L 396.341972 327.706817 
L 396.561604 391.721976 
L 396.781236 407.154324 
L 397.000868 447.182474 
L 397.220501 351.499091 
L 397.440133 343.565518 
L 398.09903 451.964875 
L 398.318662 279.091812 
L 398.538294 337.122976 
L 398.757927 360.364848 
L 398.977559 309.893185 
L 399.197191 387.615894 
L 399.416824 418.888007 
L 399.636456 377.401626 
L 399.856088 383.965441 
L 400.07572 249.523399 
L 400.295353 324.337537 
L 400.514985 463.877848 
L 400.95425 274.410147 
L 401.173882 434.896018 
L 401.393514 387.59518 
L 401.613146 464.723499 
L 401.832779 428.232332 
L 402.052411 492.304402 
L 402.272043 268.087022 
L 402.491676 444.866023 
L 402.711308 413.614848 
L 402.93094 490.602005 
L 403.370205 299.266975 
L 403.589837 510.503264 
L 403.809469 265.121243 
L 404.248734 430.60246 
L 404.468366 224.411945 
L 404.687998 368.394092 
L 404.907631 437.639176 
L 405.127263 385.208059 
L 405.346895 365.372425 
L 405.566528 371.27618 
L 405.78616 348.108676 
L 406.005792 489.43867 
L 406.225424 343.700116 
L 406.445057 295.802492 
L 406.884321 479.936499 
L 407.103954 527.013811 
L 407.543218 251.745162 
L 407.76285 385.766759 
L 407.982483 384.806254 
L 408.202115 257.058812 
L 408.421747 407.593854 
L 408.64138 428.53579 
L 409.300276 365.553277 
L 409.519909 377.447969 
L 409.739541 374.126744 
L 409.959173 287.06041 
L 410.178806 411.066181 
L 410.61807 377.854037 
L 410.837702 377.99701 
L 411.057335 286.849805 
L 411.276967 424.378724 
L 411.496599 306.94787 
L 411.716231 430.36342 
L 411.935864 364.452535 
L 412.155496 470.437023 
L 412.375128 300.245014 
L 412.594761 311.423537 
L 412.814393 388.506184 
L 413.034025 304.461255 
L 413.253657 457.662263 
L 413.47329 407.571545 
L 413.692922 482.340822 
L 413.912554 378.826957 
L 414.132187 474.968515 
L 414.571451 340.145972 
L 414.791083 214.029304 
L 415.010716 198.12671 
L 415.230348 389.160384 
L 415.44998 382.691436 
L 415.669613 332.770553 
L 415.889245 349.337652 
L 416.108877 281.191429 
L 416.328509 413.403698 
L 416.548142 464.454733 
L 416.767774 473.734673 
L 416.987406 473.06653 
L 417.207039 436.072534 
L 417.426671 266.359077 
L 417.646303 395.279494 
L 417.865935 448.782033 
L 418.085568 320.270861 
L 418.3052 377.782308 
L 418.524832 358.201397 
L 418.744465 315.968424 
L 418.964097 312.451863 
L 419.403361 459.984485 
L 419.622994 393.381193 
L 419.842626 440.938599 
L 420.281891 378.801298 
L 420.501523 384.936291 
L 420.721155 250.286681 
L 420.940787 454.154914 
L 421.16042 242.608441 
L 421.380052 284.146486 
L 421.819317 538.229323 
L 422.258581 307.425043 
L 422.478213 360.229063 
L 422.697846 362.814472 
L 422.917478 429.180835 
L 423.13711 298.835224 
L 423.576375 390.315631 
L 423.796007 408.33326 
L 424.015639 545.760934 
L 424.454904 283.533229 
L 424.674536 479.603588 
L 424.894169 335.876685 
L 425.113801 362.289891 
L 425.333433 253.149441 
L 425.553065 254.401752 
L 425.772698 409.504056 
L 425.99233 335.71998 
L 426.211962 312.452412 
L 426.431594 264.383477 
L 426.651227 459.450834 
L 427.090491 424.069405 
L 427.310124 372.217967 
L 427.96902 422.596325 
L 428.188653 336.370464 
L 428.408285 408.571819 
L 428.627917 395.534393 
L 428.84755 290.415599 
L 429.067182 363.83408 
L 429.286814 307.507374 
L 429.506446 494.863411 
L 429.726079 352.338035 
L 429.945711 447.409432 
L 430.165343 464.169758 
L 430.604608 368.167758 
L 430.82424 371.504786 
L 431.043872 357.165724 
L 431.263505 432.589744 
L 431.483137 370.147165 
L 431.702769 343.126333 
L 431.922402 429.618309 
L 432.361666 286.035712 
L 432.581298 457.375668 
L 432.800931 447.659462 
L 433.020563 321.684526 
L 433.459828 416.774227 
L 433.67946 337.896578 
L 433.899092 455.532846 
L 434.118724 465.675645 
L 434.338357 419.248595 
L 434.557989 278.375549 
L 434.777621 519.849785 
L 434.997254 384.793398 
L 435.216886 429.113031 
L 435.436518 441.557716 
L 435.65615 351.209278 
L 435.875783 459.151596 
L 436.315047 382.514636 
L 436.53468 392.856849 
L 436.754312 441.208486 
L 436.973944 348.276792 
L 437.193576 389.211296 
L 437.413209 302.032559 
L 437.852473 443.886049 
L 438.072106 296.711667 
L 438.51137 432.962444 
L 438.731002 246.944786 
L 439.389899 393.948271 
L 439.609532 315.026685 
L 439.829164 483.207714 
L 440.048796 386.452719 
L 440.268428 348.794286 
L 440.488061 236.484146 
L 440.707693 302.42078 
L 440.927325 492.622471 
L 441.146958 455.464015 
L 441.36659 336.667021 
L 441.586222 391.277478 
L 441.805854 365.845968 
L 442.025487 284.033891 
L 442.245119 286.978912 
L 442.464751 393.631984 
L 442.684383 341.990415 
L 442.904016 389.249269 
L 443.123648 240.725795 
L 443.34328 313.000303 
L 443.562913 493.62484 
L 443.782545 446.635284 
L 444.002177 437.653516 
L 444.221809 455.921533 
L 444.441442 375.758572 
L 444.661074 402.451927 
L 444.880706 337.609579 
L 445.100339 323.617021 
L 445.319971 228.730786 
L 445.539603 454.566951 
L 445.759235 416.131429 
L 445.978868 292.206049 
L 446.1985 388.050841 
L 446.418132 337.780661 
L 446.637765 423.014393 
L 446.857397 349.169021 
L 447.077029 399.001501 
L 447.296661 366.401372 
L 447.516294 577.935318 
L 447.735926 347.818049 
L 447.955558 442.574304 
L 448.175191 342.131802 
L 448.394823 304.98274 
L 448.614455 488.569733 
L 448.834087 298.240864 
L 449.05372 337.455996 
L 449.492984 437.382986 
L 449.932249 350.456043 
L 450.151881 468.33915 
L 450.371513 386.212641 
L 450.591146 202.12206 
L 450.810778 337.859504 
L 451.03041 285.577095 
L 451.250043 394.63502 
L 451.469675 246.824017 
L 451.689307 322.671856 
L 451.908939 466.902048 
L 452.128572 317.548967 
L 452.348204 260.855682 
L 452.567836 480.335471 
L 452.787469 477.054348 
L 453.007101 355.066125 
L 453.226733 423.719088 
L 453.446365 407.596939 
L 453.665998 379.685687 
L 454.105262 291.668052 
L 454.324895 334.218166 
L 454.544527 276.514262 
L 454.764159 389.514395 
L 454.983791 398.084141 
L 455.423056 328.329455 
L 455.642688 410.669452 
L 455.862321 294.704402 
L 456.081953 315.843357 
L 456.521217 470.293738 
L 456.74085 365.761815 
L 456.960482 370.304098 
L 457.180114 371.085697 
L 457.399746 342.708034 
L 457.619379 365.022307 
L 457.839011 406.09319 
L 458.058643 340.670576 
L 458.278276 412.802574 
L 458.497908 295.534288 
L 458.71754 395.162867 
L 458.937172 419.083049 
L 459.156805 181.026705 
L 459.376437 375.52355 
L 459.815702 525.497074 
L 460.035334 436.637634 
L 460.254966 441.168958 
L 460.474598 453.116865 
L 460.694231 398.869685 
L 460.913863 289.023743 
L 461.133495 459.951566 
L 461.353128 385.59396 
L 461.57276 420.505938 
L 461.792392 362.321722 
L 462.231657 439.509972 
L 462.451289 426.28825 
L 462.670921 267.760891 
L 462.890554 478.718409 
L 463.329818 235.313945 
L 463.54945 445.729301 
L 463.769083 520.588449 
L 463.988715 455.26083 
L 464.208347 439.867063 
L 464.42798 338.391581 
L 464.647612 479.57352 
L 464.867244 391.05166 
L 465.086876 433.982496 
L 465.306509 418.333928 
L 465.526141 296.170609 
L 465.745773 439.977831 
L 465.965406 292.009663 
L 466.185038 373.507541 
L 466.40467 496.358072 
L 466.624302 293.635634 
L 466.843935 221.967307 
L 467.063567 354.512914 
L 467.283199 288.944635 
L 467.502832 375.254415 
L 467.722464 344.889046 
L 467.942096 456.447708 
L 468.161728 390.292783 
L 468.381361 359.238048 
L 468.600993 267.650757 
L 468.820625 291.290759 
L 469.040258 290.639365 
L 469.25989 377.551699 
L 469.479522 328.477673 
L 469.699154 232.14744 
L 469.918787 400.376477 
L 470.138419 352.950412 
L 470.358051 474.527646 
L 470.577684 459.15451 
L 470.797316 310.841316 
L 471.016948 457.226386 
L 471.23658 365.921818 
L 471.456213 410.863256 
L 471.675845 427.044147 
L 471.895477 255.07237 
L 472.11511 420.119849 
L 472.334742 380.582465 
L 472.554374 365.16119 
L 472.774006 288.312709 
L 472.993639 371.300478 
L 473.213271 362.3748 
L 473.432903 346.439672 
L 473.652535 408.437027 
L 473.872168 357.45784 
L 474.0918 432.484536 
L 474.311432 464.416328 
L 474.531065 450.400467 
L 474.750697 314.771971 
L 474.970329 327.089815 
L 475.189961 364.233656 
L 475.409594 490.285624 
L 475.629226 371.102205 
L 475.848858 378.705398 
L 476.068491 432.848719 
L 476.288123 254.151843 
L 476.507755 398.325222 
L 476.727387 412.710428 
L 476.94702 442.518665 
L 477.166652 313.368787 
L 477.386284 409.943681 
L 477.605917 206.313388 
L 477.825549 301.911156 
L 478.045181 469.190396 
L 478.264813 342.776495 
L 478.704078 401.390013 
L 478.92371 301.627543 
L 479.143343 457.54282 
L 479.582607 274.534969 
L 479.802239 372.846591 
L 480.021872 326.571774 
L 480.241504 413.22957 
L 480.680769 227.345889 
L 480.900401 441.456397 
L 481.120033 437.495277 
L 481.339665 326.008571 
L 481.559298 504.426071 
L 481.77893 408.841901 
L 481.998562 480.071206 
L 482.437827 302.990529 
L 482.877091 388.303237 
L 483.096724 421.704239 
L 483.316356 367.74198 
L 483.535988 364.136866 
L 483.755621 332.356875 
L 483.975253 439.320667 
L 484.414517 427.575449 
L 484.63415 329.718821 
L 484.853782 290.565134 
L 485.073414 449.400398 
L 485.293047 339.712272 
L 485.512679 386.57625 
L 485.732311 305.365699 
L 485.951943 400.136738 
L 486.171576 431.920433 
L 486.391208 355.411045 
L 486.61084 180.82766 
L 486.830473 441.327343 
L 487.050105 443.059617 
L 487.269737 367.931142 
L 487.489369 383.592605 
L 487.709002 234.062445 
L 487.928634 244.220694 
L 488.367898 493.044724 
L 488.587531 350.026375 
L 488.807163 359.560916 
L 489.026795 415.706846 
L 489.246428 344.161062 
L 489.46606 324.463779 
L 489.685692 325.877454 
L 489.905324 417.885994 
L 490.124957 358.082447 
L 490.344589 496.638204 
L 490.564221 333.581581 
L 490.783854 456.12109 
L 491.003486 454.763377 
L 491.223118 320.297472 
L 491.662383 387.648742 
L 491.882015 348.915338 
L 492.101647 358.861938 
L 492.32128 407.834142 
L 492.540912 536.763905 
L 492.760544 488.067124 
L 492.980176 338.417233 
L 493.199809 316.223111 
L 493.419441 280.365705 
L 493.639073 280.551864 
L 494.29797 464.572501 
L 494.517602 438.943672 
L 494.737235 325.081226 
L 494.956867 427.422013 
L 495.176499 318.229437 
L 495.615764 444.121335 
L 495.835396 417.328517 
L 496.055028 333.912768 
L 496.274661 506.509813 
L 496.713925 340.57201 
L 496.933558 407.477187 
L 497.15319 307.068274 
L 497.372822 340.438048 
L 497.592454 276.413773 
L 497.812087 430.981003 
L 498.031719 398.292959 
L 498.251351 532.764809 
L 498.470984 436.051833 
L 498.690616 392.8162 
L 499.12988 264.739812 
L 499.569145 394.526967 
L 499.788777 306.013329 
L 500.00841 397.984397 
L 500.228042 411.390512 
L 500.667306 295.646692 
L 500.886939 355.095256 
L 501.106571 376.054089 
L 501.326203 488.66689 
L 501.545836 325.38929 
L 501.9851 386.24792 
L 502.204732 547.927412 
L 502.424365 280.634143 
L 502.643997 348.508183 
L 502.863629 368.43141 
L 503.302894 254.469969 
L 503.522526 388.365862 
L 503.742158 450.367323 
L 503.961791 352.414455 
L 504.181423 412.219599 
L 504.620687 384.067228 
L 504.84032 331.848551 
L 505.059952 339.745973 
L 505.279584 322.790041 
L 505.718849 449.147053 
L 505.938481 452.644549 
L 506.158113 372.816604 
L 506.377746 580.503039 
L 506.597378 396.547621 
L 506.81701 415.246469 
L 507.036643 487.511192 
L 507.256275 337.206107 
L 507.475907 426.410315 
L 507.695539 374.584007 
L 507.915172 477.073443 
L 508.134804 469.683781 
L 508.354436 285.710924 
L 508.574069 270.961286 
L 508.793701 440.85084 
L 509.013333 403.998935 
L 509.232965 501.830893 
L 509.452598 411.968613 
L 509.67223 380.761067 
L 509.891862 392.198901 
L 510.111495 275.308359 
L 510.331127 437.629926 
L 510.550759 445.918925 
L 510.770391 286.583094 
L 510.990024 317.468686 
L 511.209656 484.22254 
L 511.429288 350.852744 
L 511.648921 415.707607 
L 511.868553 388.637764 
L 512.088185 405.020491 
L 512.307817 314.71433 
L 512.52745 443.785114 
L 512.747082 383.376947 
L 512.966714 387.617402 
L 513.186347 332.153742 
L 513.405979 369.684307 
L 513.625611 462.99739 
L 513.845243 334.911267 
L 514.064876 410.333687 
L 514.284508 359.490553 
L 514.50414 438.619789 
L 514.723773 317.399986 
L 514.943405 309.012943 
L 515.163037 379.786605 
L 515.382669 401.033574 
L 515.602302 357.734306 
L 515.821934 228.119801 
L 516.041566 371.470761 
L 516.261199 417.195552 
L 516.480831 260.956185 
L 516.700463 273.344607 
L 516.920095 384.309051 
L 517.139728 427.49486 
L 517.578992 368.508475 
L 517.798625 364.251405 
L 518.018257 509.280141 
L 518.237889 321.0534 
L 518.457521 371.386077 
L 518.677154 212.807993 
L 518.896786 419.68349 
L 519.116418 407.250882 
L 519.33605 338.640849 
L 519.555683 368.284312 
L 519.775315 293.044971 
L 519.994947 393.225242 
L 520.21458 309.96294 
L 520.434212 356.598601 
L 520.653844 330.048516 
L 520.873476 411.25476 
L 521.093109 450.684453 
L 521.312741 401.912879 
L 521.532373 437.401893 
L 521.752006 427.90297 
L 521.971638 441.732228 
L 522.19127 482.514376 
L 522.410902 442.047537 
L 522.630535 375.925792 
L 522.850167 253.951081 
L 523.069799 409.322846 
L 523.289432 295.469751 
L 523.509064 296.586568 
L 523.728696 456.426253 
L 523.948328 439.95683 
L 524.167961 226.969404 
L 524.387593 385.988274 
L 524.607225 400.707565 
L 524.826858 390.155852 
L 525.04649 495.373265 
L 525.266122 384.325555 
L 525.485754 443.702021 
L 525.705387 340.522335 
L 525.925019 308.623418 
L 526.364284 448.448917 
L 526.583916 395.73135 
L 526.803548 425.047607 
L 527.02318 395.681356 
L 527.242813 403.720279 
L 527.462445 322.451438 
L 527.682077 459.207386 
L 527.90171 428.571585 
L 528.121342 337.210406 
L 528.340974 454.075871 
L 528.560606 250.15882 
L 528.780239 266.138526 
L 528.999871 386.435417 
L 529.219503 419.850685 
L 529.658768 372.612622 
L 530.317665 418.850953 
L 530.537297 396.257181 
L 530.756929 312.216559 
L 530.976562 433.077825 
L 531.196194 448.388845 
L 531.415826 452.495859 
L 531.635458 438.359205 
L 531.855091 371.622925 
L 532.074723 472.140322 
L 532.294355 410.258575 
L 532.513988 398.543721 
L 532.73362 426.057093 
L 532.953252 343.722262 
L 533.172884 471.183025 
L 533.392517 350.093528 
L 533.612149 353.201648 
L 533.831781 281.185507 
L 534.051413 345.303796 
L 534.271046 207.587699 
L 534.490678 381.93618 
L 534.71031 410.657979 
L 534.929943 313.366764 
L 535.149575 367.066636 
L 535.588839 310.9035 
L 535.808472 345.837084 
L 536.028104 358.69048 
L 536.247736 242.840851 
L 536.467369 374.213897 
L 536.687001 413.872476 
L 536.906633 371.363505 
L 537.126265 305.110567 
L 537.345898 319.240776 
L 537.56553 436.247718 
L 537.785162 231.382315 
L 538.224427 498.091757 
L 538.444059 331.607149 
L 538.663691 455.611862 
L 538.883324 469.666836 
L 539.102956 381.725015 
L 539.322588 243.219184 
L 539.542221 410.965807 
L 539.761853 263.847007 
L 539.981485 417.055307 
L 540.201117 371.597642 
L 540.42075 485.944307 
L 540.860014 316.879229 
L 541.299279 245.82671 
L 541.738543 425.367561 
L 541.958176 427.594086 
L 542.177808 416.337289 
L 542.39744 308.941144 
L 542.617073 356.410902 
L 542.836705 307.782894 
L 543.056337 483.931206 
L 543.495602 274.243603 
L 543.715234 341.134183 
L 544.154499 311.173764 
L 544.374131 229.909378 
L 544.593763 361.109212 
L 544.813395 347.847275 
L 545.033028 327.214013 
L 545.25266 239.760106 
L 545.472292 277.886743 
L 545.691925 432.011809 
L 545.911557 372.752316 
L 545.911557 372.752316 
" style="fill:none;stroke:#96c69a;stroke-linecap:round;stroke-width:3;"/>
   </g>
   <g id="line2d_2">
    <path clip-path="url(#p40a1207025)" d="M 106.866622 417.207387 
L 107.086254 338.773191 
L 107.305886 392.759937 
L 107.525519 396.981366 
L 107.745151 329.41834 
L 107.964783 359.492536 
L 108.184415 267.989971 
L 108.404048 410.866658 
L 108.62368 421.236943 
L 108.843312 397.262892 
L 109.062945 263.240166 
L 109.282577 350.471071 
L 109.502209 472.646182 
L 109.721841 337.18054 
L 109.941474 433.531673 
L 110.161106 369.471586 
L 110.380738 271.232999 
L 110.600371 472.126286 
L 110.820003 339.984608 
L 111.039635 335.2646 
" style="fill:none;stroke:#1a283d;stroke-linecap:round;stroke-width:3;"/>
   </g>
   <g id="line2d_3"/>
   <g id="line2d_4"/>
   <g id="patch_3">
    <path d="M 84.914375 602.94 
L 84.914375 109.326857 
" style="fill:none;stroke:#262626;stroke-linecap:square;stroke-linejoin:miter;stroke-width:2.5;"/>
   </g>
   <g id="patch_4">
    <path d="M 84.914375 602.94 
L 567.863804 602.94 
" style="fill:none;stroke:#262626;stroke-linecap:square;stroke-linejoin:miter;stroke-width:2.5;"/>
   </g>
   <g id="legend_1">
    <g id="patch_5">
     <path d="M 514.948179 597.94 
L 560.863804 597.94 
Q 562.863804 597.94 562.863804 595.94 
L 562.863804 539.35625 
Q 562.863804 537.35625 560.863804 537.35625 
L 514.948179 537.35625 
Q 512.948179 537.35625 512.948179 539.35625 
L 512.948179 595.94 
Q 512.948179 597.94 514.948179 597.94 
z
" style="fill:#ffffff;opacity:0.8;stroke:#cccccc;stroke-linejoin:miter;stroke-width:2;"/>
    </g>
    <g id="text_15">
     <!-- $n_\tau$ -->
     <g style="fill:#262626;" transform="translate(524.825991 559.5925)scale(0.24 -0.24)">
      <defs>
       <path d="M 3566 2113 
L 3156 0 
L 2578 0 
L 2988 2091 
Q 3016 2238 3031 2350 
Q 3047 2463 3047 2528 
Q 3047 2791 2881 2937 
Q 2716 3084 2419 3084 
Q 1956 3084 1622 2776 
Q 1288 2469 1184 1941 
L 800 0 
L 225 0 
L 903 3500 
L 1478 3500 
L 1363 2950 
Q 1603 3253 1940 3418 
Q 2278 3584 2650 3584 
Q 3113 3584 3367 3334 
Q 3622 3084 3622 2631 
Q 3622 2519 3608 2391 
Q 3594 2263 3566 2113 
z
" id="DejaVuSans-Oblique-6e" transform="scale(0.015625)"/>
       <path d="M 2103 638 
Q 2188 488 2525 488 
L 2800 488 
L 2706 0 
L 2363 0 
Q 1800 0 1600 300 
Q 1403 606 1534 1269 
L 1856 2925 
L 541 2925 
L 653 3500 
L 3881 3500 
L 3769 2925 
L 2444 2925 
L 2113 1234 
Q 2025 781 2103 638 
z
" id="DejaVuSans-Oblique-3c4" transform="scale(0.015625)"/>
      </defs>
      <use xlink:href="#DejaVuSans-Oblique-6e"/>
      <use transform="translate(63.378906 -16.40625)scale(0.7)" xlink:href="#DejaVuSans-Oblique-3c4"/>
     </g>
    </g>
    <g id="line2d_5">
     <path d="M 516.948179 573.682187 
L 536.948179 573.682187 
" style="fill:none;stroke:#96c69a;stroke-linecap:round;stroke-width:3;"/>
    </g>
    <g id="line2d_6"/>
    <g id="text_16">
     <!-- 40 -->
     <g style="fill:#262626;" transform="translate(544.948179 577.182187)scale(0.1 -0.1)">
      <defs>
       <path d="M 2356 3675 
L 1038 1722 
L 2356 1722 
L 2356 3675 
z
M 2156 4666 
L 3494 4666 
L 3494 1722 
L 4159 1722 
L 4159 850 
L 3494 850 
L 3494 0 
L 2356 0 
L 2356 850 
L 288 850 
L 288 1881 
L 2156 4666 
z
" id="DejaVuSans-Bold-34" transform="scale(0.015625)"/>
       <path d="M 2944 2338 
Q 2944 3213 2780 3570 
Q 2616 3928 2228 3928 
Q 1841 3928 1675 3570 
Q 1509 3213 1509 2338 
Q 1509 1453 1675 1090 
Q 1841 728 2228 728 
Q 2613 728 2778 1090 
Q 2944 1453 2944 2338 
z
M 4147 2328 
Q 4147 1169 3647 539 
Q 3147 -91 2228 -91 
Q 1306 -91 806 539 
Q 306 1169 306 2328 
Q 306 3491 806 4120 
Q 1306 4750 2228 4750 
Q 3147 4750 3647 4120 
Q 4147 3491 4147 2328 
z
" id="DejaVuSans-Bold-30" transform="scale(0.015625)"/>
      </defs>
      <use xlink:href="#DejaVuSans-Bold-34"/>
      <use x="69.580078" xlink:href="#DejaVuSans-Bold-30"/>
     </g>
    </g>
    <g id="line2d_7">
     <path d="M 516.948179 588.360312 
L 536.948179 588.360312 
" style="fill:none;stroke:#1a283d;stroke-linecap:round;stroke-width:3;"/>
    </g>
    <g id="line2d_8"/>
    <g id="text_17">
     <!-- 50 -->
     <g style="fill:#262626;" transform="translate(544.948179 591.860312)scale(0.1 -0.1)">
      <defs>
       <path d="M 678 4666 
L 3669 4666 
L 3669 3781 
L 1638 3781 
L 1638 3059 
Q 1775 3097 1914 3117 
Q 2053 3138 2203 3138 
Q 3056 3138 3531 2711 
Q 4006 2284 4006 1522 
Q 4006 766 3489 337 
Q 2972 -91 2053 -91 
Q 1656 -91 1267 -14 
Q 878 63 494 219 
L 494 1166 
Q 875 947 1217 837 
Q 1559 728 1863 728 
Q 2300 728 2551 942 
Q 2803 1156 2803 1522 
Q 2803 1891 2551 2103 
Q 2300 2316 1863 2316 
Q 1603 2316 1309 2248 
Q 1016 2181 678 2041 
L 678 4666 
z
" id="DejaVuSans-Bold-35" transform="scale(0.015625)"/>
      </defs>
      <use xlink:href="#DejaVuSans-Bold-35"/>
      <use x="69.580078" xlink:href="#DejaVuSans-Bold-30"/>
     </g>
    </g>
   </g>
  </g>
  <g id="axes_2">
   <g id="patch_6">
    <path d="M 84.914375 92.305714 
L 567.863804 92.305714 
L 567.863804 7.2 
L 84.914375 7.2 
z
" style="fill:none;"/>
   </g>
   <g id="matplotlib.axis_3">
    <g id="xtick_7"/>
    <g id="xtick_8"/>
    <g id="xtick_9"/>
    <g id="xtick_10"/>
    <g id="xtick_11"/>
    <g id="xtick_12"/>
   </g>
   <g id="matplotlib.axis_4">
    <g id="ytick_7">
     <g id="text_18">
      <!-- 0 -->
      <g style="fill:#262626;" transform="translate(55.416875 100.663996)scale(0.22 -0.22)">
       <use xlink:href="#DejaVuSans-30"/>
      </g>
     </g>
    </g>
    <g id="ytick_8">
     <g id="text_19">
      <!-- 100 -->
      <g style="fill:#262626;" transform="translate(27.421875 48.032138)scale(0.22 -0.22)">
       <use xlink:href="#DejaVuSans-31"/>
       <use x="63.623047" xlink:href="#DejaVuSans-30"/>
       <use x="127.246094" xlink:href="#DejaVuSans-30"/>
      </g>
     </g>
    </g>
   </g>
   <g id="patch_7">
    <path clip-path="url(#p888748fced)" d="M 106.866622 92.305714 
L 140.639309 92.305714 
L 140.639309 81.779343 
L 106.866622 81.779343 
z
" style="fill:#1a283d;fill-opacity:0.5;stroke:#ffffff;stroke-linejoin:miter;stroke-width:2;"/>
   </g>
   <g id="patch_8">
    <path clip-path="url(#p888748fced)" d="M 140.639309 92.305714 
L 174.411996 92.305714 
L 174.411996 92.305714 
L 140.639309 92.305714 
z
" style="fill:#1a283d;fill-opacity:0.5;stroke:#ffffff;stroke-linejoin:miter;stroke-width:2;"/>
   </g>
   <g id="patch_9">
    <path clip-path="url(#p888748fced)" d="M 174.411996 92.305714 
L 208.184684 92.305714 
L 208.184684 92.305714 
L 174.411996 92.305714 
z
" style="fill:#1a283d;fill-opacity:0.5;stroke:#ffffff;stroke-linejoin:miter;stroke-width:2;"/>
   </g>
   <g id="patch_10">
    <path clip-path="url(#p888748fced)" d="M 208.184684 92.305714 
L 241.957371 92.305714 
L 241.957371 92.305714 
L 208.184684 92.305714 
z
" style="fill:#1a283d;fill-opacity:0.5;stroke:#ffffff;stroke-linejoin:miter;stroke-width:2;"/>
   </g>
   <g id="patch_11">
    <path clip-path="url(#p888748fced)" d="M 241.957371 92.305714 
L 275.730058 92.305714 
L 275.730058 92.305714 
L 241.957371 92.305714 
z
" style="fill:#1a283d;fill-opacity:0.5;stroke:#ffffff;stroke-linejoin:miter;stroke-width:2;"/>
   </g>
   <g id="patch_12">
    <path clip-path="url(#p888748fced)" d="M 275.730058 92.305714 
L 309.502746 92.305714 
L 309.502746 92.305714 
L 275.730058 92.305714 
z
" style="fill:#1a283d;fill-opacity:0.5;stroke:#ffffff;stroke-linejoin:miter;stroke-width:2;"/>
   </g>
   <g id="patch_13">
    <path clip-path="url(#p888748fced)" d="M 309.502746 92.305714 
L 343.275433 92.305714 
L 343.275433 92.305714 
L 309.502746 92.305714 
z
" style="fill:#1a283d;fill-opacity:0.5;stroke:#ffffff;stroke-linejoin:miter;stroke-width:2;"/>
   </g>
   <g id="patch_14">
    <path clip-path="url(#p888748fced)" d="M 343.275433 92.305714 
L 377.04812 92.305714 
L 377.04812 92.305714 
L 343.275433 92.305714 
z
" style="fill:#1a283d;fill-opacity:0.5;stroke:#ffffff;stroke-linejoin:miter;stroke-width:2;"/>
   </g>
   <g id="patch_15">
    <path clip-path="url(#p888748fced)" d="M 377.04812 92.305714 
L 410.820808 92.305714 
L 410.820808 92.305714 
L 377.04812 92.305714 
z
" style="fill:#1a283d;fill-opacity:0.5;stroke:#ffffff;stroke-linejoin:miter;stroke-width:2;"/>
   </g>
   <g id="patch_16">
    <path clip-path="url(#p888748fced)" d="M 410.820808 92.305714 
L 444.593495 92.305714 
L 444.593495 92.305714 
L 410.820808 92.305714 
z
" style="fill:#1a283d;fill-opacity:0.5;stroke:#ffffff;stroke-linejoin:miter;stroke-width:2;"/>
   </g>
   <g id="patch_17">
    <path clip-path="url(#p888748fced)" d="M 444.593495 92.305714 
L 478.366182 92.305714 
L 478.366182 92.305714 
L 444.593495 92.305714 
z
" style="fill:#1a283d;fill-opacity:0.5;stroke:#ffffff;stroke-linejoin:miter;stroke-width:2;"/>
   </g>
   <g id="patch_18">
    <path clip-path="url(#p888748fced)" d="M 478.366182 92.305714 
L 512.13887 92.305714 
L 512.13887 92.305714 
L 478.366182 92.305714 
z
" style="fill:#1a283d;fill-opacity:0.5;stroke:#ffffff;stroke-linejoin:miter;stroke-width:2;"/>
   </g>
   <g id="patch_19">
    <path clip-path="url(#p888748fced)" d="M 512.13887 92.305714 
L 545.911557 92.305714 
L 545.911557 92.305714 
L 512.13887 92.305714 
z
" style="fill:#1a283d;fill-opacity:0.5;stroke:#ffffff;stroke-linejoin:miter;stroke-width:2;"/>
   </g>
   <g id="patch_20">
    <path clip-path="url(#p888748fced)" d="M 106.866622 92.305714 
L 140.639309 92.305714 
L 140.639309 21.779025 
L 106.866622 21.779025 
z
" style="fill:#96c69a;fill-opacity:0.5;stroke:#ffffff;stroke-linejoin:miter;stroke-width:2;"/>
   </g>
   <g id="patch_21">
    <path clip-path="url(#p888748fced)" d="M 140.639309 92.305714 
L 174.411996 92.305714 
L 174.411996 11.252653 
L 140.639309 11.252653 
z
" style="fill:#96c69a;fill-opacity:0.5;stroke:#ffffff;stroke-linejoin:miter;stroke-width:2;"/>
   </g>
   <g id="patch_22">
    <path clip-path="url(#p888748fced)" d="M 174.411996 92.305714 
L 208.184684 92.305714 
L 208.184684 11.252653 
L 174.411996 11.252653 
z
" style="fill:#96c69a;fill-opacity:0.5;stroke:#ffffff;stroke-linejoin:miter;stroke-width:2;"/>
   </g>
   <g id="patch_23">
    <path clip-path="url(#p888748fced)" d="M 208.184684 92.305714 
L 241.957371 92.305714 
L 241.957371 11.252653 
L 208.184684 11.252653 
z
" style="fill:#96c69a;fill-opacity:0.5;stroke:#ffffff;stroke-linejoin:miter;stroke-width:2;"/>
   </g>
   <g id="patch_24">
    <path clip-path="url(#p888748fced)" d="M 241.957371 92.305714 
L 275.730058 92.305714 
L 275.730058 11.778972 
L 241.957371 11.778972 
z
" style="fill:#96c69a;fill-opacity:0.5;stroke:#ffffff;stroke-linejoin:miter;stroke-width:2;"/>
   </g>
   <g id="patch_25">
    <path clip-path="url(#p888748fced)" d="M 275.730058 92.305714 
L 309.502746 92.305714 
L 309.502746 11.252653 
L 275.730058 11.252653 
z
" style="fill:#96c69a;fill-opacity:0.5;stroke:#ffffff;stroke-linejoin:miter;stroke-width:2;"/>
   </g>
   <g id="patch_26">
    <path clip-path="url(#p888748fced)" d="M 309.502746 92.305714 
L 343.275433 92.305714 
L 343.275433 11.252653 
L 309.502746 11.252653 
z
" style="fill:#96c69a;fill-opacity:0.5;stroke:#ffffff;stroke-linejoin:miter;stroke-width:2;"/>
   </g>
   <g id="patch_27">
    <path clip-path="url(#p888748fced)" d="M 343.275433 92.305714 
L 377.04812 92.305714 
L 377.04812 11.252653 
L 343.275433 11.252653 
z
" style="fill:#96c69a;fill-opacity:0.5;stroke:#ffffff;stroke-linejoin:miter;stroke-width:2;"/>
   </g>
   <g id="patch_28">
    <path clip-path="url(#p888748fced)" d="M 377.04812 92.305714 
L 410.820808 92.305714 
L 410.820808 11.778972 
L 377.04812 11.778972 
z
" style="fill:#96c69a;fill-opacity:0.5;stroke:#ffffff;stroke-linejoin:miter;stroke-width:2;"/>
   </g>
   <g id="patch_29">
    <path clip-path="url(#p888748fced)" d="M 410.820808 92.305714 
L 444.593495 92.305714 
L 444.593495 11.252653 
L 410.820808 11.252653 
z
" style="fill:#96c69a;fill-opacity:0.5;stroke:#ffffff;stroke-linejoin:miter;stroke-width:2;"/>
   </g>
   <g id="patch_30">
    <path clip-path="url(#p888748fced)" d="M 444.593495 92.305714 
L 478.366182 92.305714 
L 478.366182 11.252653 
L 444.593495 11.252653 
z
" style="fill:#96c69a;fill-opacity:0.5;stroke:#ffffff;stroke-linejoin:miter;stroke-width:2;"/>
   </g>
   <g id="patch_31">
    <path clip-path="url(#p888748fced)" d="M 478.366182 92.305714 
L 512.13887 92.305714 
L 512.13887 11.252653 
L 478.366182 11.252653 
z
" style="fill:#96c69a;fill-opacity:0.5;stroke:#ffffff;stroke-linejoin:miter;stroke-width:2;"/>
   </g>
   <g id="patch_32">
    <path clip-path="url(#p888748fced)" d="M 512.13887 92.305714 
L 545.911557 92.305714 
L 545.911557 11.252653 
L 512.13887 11.252653 
z
" style="fill:#96c69a;fill-opacity:0.5;stroke:#ffffff;stroke-linejoin:miter;stroke-width:2;"/>
   </g>
   <g id="patch_33">
    <path d="M 84.914375 92.305714 
L 84.914375 7.2 
" style="fill:none;stroke:#262626;stroke-linecap:square;stroke-linejoin:miter;stroke-width:2.5;"/>
   </g>
   <g id="patch_34">
    <path d="M 84.914375 92.305714 
L 567.863804 92.305714 
" style="fill:none;stroke:#262626;stroke-linecap:square;stroke-linejoin:miter;stroke-width:2.5;"/>
   </g>
  </g>
  <g id="axes_3">
   <g id="patch_35">
    <path d="M 584.517232 602.94 
L 667.784375 602.94 
L 667.784375 109.326857 
L 584.517232 109.326857 
z
" style="fill:none;"/>
   </g>
   <g id="matplotlib.axis_5">
    <g id="xtick_13">
     <g id="text_20">
      <!-- 0 -->
      <g style="fill:#262626;" transform="translate(577.518482 635.156562)scale(0.22 -0.22)">
       <use xlink:href="#DejaVuSans-30"/>
      </g>
     </g>
    </g>
    <g id="xtick_14">
     <g id="text_21">
      <!-- 100 -->
      <g style="fill:#262626;" transform="translate(608.324395 635.156562)scale(0.22 -0.22)">
       <use xlink:href="#DejaVuSans-31"/>
       <use x="63.623047" xlink:href="#DejaVuSans-30"/>
       <use x="127.246094" xlink:href="#DejaVuSans-30"/>
      </g>
     </g>
    </g>
   </g>
   <g id="matplotlib.axis_6">
    <g id="ytick_9"/>
    <g id="ytick_10"/>
    <g id="ytick_11"/>
    <g id="ytick_12"/>
    <g id="ytick_13"/>
    <g id="ytick_14"/>
   </g>
   <g id="patch_36">
    <path clip-path="url(#pf8ac3ad861)" d="M 584.517232 580.503039 
L 584.517232 580.503039 
L 584.517232 566.02758 
L 584.517232 566.02758 
z
" style="fill:#1a283d;fill-opacity:0.5;stroke:#ffffff;stroke-linejoin:miter;stroke-width:1.447546;"/>
   </g>
   <g id="patch_37">
    <path clip-path="url(#pf8ac3ad861)" d="M 584.517232 566.02758 
L 584.517232 566.02758 
L 584.517232 551.552121 
L 584.517232 551.552121 
z
" style="fill:#1a283d;fill-opacity:0.5;stroke:#ffffff;stroke-linejoin:miter;stroke-width:1.447546;"/>
   </g>
   <g id="patch_38">
    <path clip-path="url(#pf8ac3ad861)" d="M 584.517232 551.552121 
L 584.517232 551.552121 
L 584.517232 537.076663 
L 584.517232 537.076663 
z
" style="fill:#1a283d;fill-opacity:0.5;stroke:#ffffff;stroke-linejoin:miter;stroke-width:1.447546;"/>
   </g>
   <g id="patch_39">
    <path clip-path="url(#pf8ac3ad861)" d="M 584.517232 537.076663 
L 584.517232 537.076663 
L 584.517232 522.601204 
L 584.517232 522.601204 
z
" style="fill:#1a283d;fill-opacity:0.5;stroke:#ffffff;stroke-linejoin:miter;stroke-width:1.447546;"/>
   </g>
   <g id="patch_40">
    <path clip-path="url(#pf8ac3ad861)" d="M 584.517232 522.601204 
L 584.517232 522.601204 
L 584.517232 508.125745 
L 584.517232 508.125745 
z
" style="fill:#1a283d;fill-opacity:0.5;stroke:#ffffff;stroke-linejoin:miter;stroke-width:1.447546;"/>
   </g>
   <g id="patch_41">
    <path clip-path="url(#pf8ac3ad861)" d="M 584.517232 508.125745 
L 584.517232 508.125745 
L 584.517232 493.650287 
L 584.517232 493.650287 
z
" style="fill:#1a283d;fill-opacity:0.5;stroke:#ffffff;stroke-linejoin:miter;stroke-width:1.447546;"/>
   </g>
   <g id="patch_42">
    <path clip-path="url(#pf8ac3ad861)" d="M 584.517232 493.650287 
L 584.517232 493.650287 
L 584.517232 479.174828 
L 584.517232 479.174828 
z
" style="fill:#1a283d;fill-opacity:0.5;stroke:#ffffff;stroke-linejoin:miter;stroke-width:1.447546;"/>
   </g>
   <g id="patch_43">
    <path clip-path="url(#pf8ac3ad861)" d="M 584.517232 479.174828 
L 585.4133 479.174828 
L 585.4133 464.699369 
L 584.517232 464.699369 
z
" style="fill:#1a283d;fill-opacity:0.5;stroke:#ffffff;stroke-linejoin:miter;stroke-width:1.447546;"/>
   </g>
   <g id="patch_44">
    <path clip-path="url(#pf8ac3ad861)" d="M 584.517232 464.699369 
L 584.517232 464.699369 
L 584.517232 450.22391 
L 584.517232 450.22391 
z
" style="fill:#1a283d;fill-opacity:0.5;stroke:#ffffff;stroke-linejoin:miter;stroke-width:1.447546;"/>
   </g>
   <g id="patch_45">
    <path clip-path="url(#pf8ac3ad861)" d="M 584.517232 450.22391 
L 584.517232 450.22391 
L 584.517232 435.748452 
L 584.517232 435.748452 
z
" style="fill:#1a283d;fill-opacity:0.5;stroke:#ffffff;stroke-linejoin:miter;stroke-width:1.447546;"/>
   </g>
   <g id="patch_46">
    <path clip-path="url(#pf8ac3ad861)" d="M 584.517232 435.748452 
L 584.965266 435.748452 
L 584.965266 421.272993 
L 584.517232 421.272993 
z
" style="fill:#1a283d;fill-opacity:0.5;stroke:#ffffff;stroke-linejoin:miter;stroke-width:1.447546;"/>
   </g>
   <g id="patch_47">
    <path clip-path="url(#pf8ac3ad861)" d="M 584.517232 421.272993 
L 585.861335 421.272993 
L 585.861335 406.797534 
L 584.517232 406.797534 
z
" style="fill:#1a283d;fill-opacity:0.5;stroke:#ffffff;stroke-linejoin:miter;stroke-width:1.447546;"/>
   </g>
   <g id="patch_48">
    <path clip-path="url(#pf8ac3ad861)" d="M 584.517232 406.797534 
L 585.861335 406.797534 
L 585.861335 392.322075 
L 584.517232 392.322075 
z
" style="fill:#1a283d;fill-opacity:0.5;stroke:#ffffff;stroke-linejoin:miter;stroke-width:1.447546;"/>
   </g>
   <g id="patch_49">
    <path clip-path="url(#pf8ac3ad861)" d="M 584.517232 392.322075 
L 584.517232 392.322075 
L 584.517232 377.846617 
L 584.517232 377.846617 
z
" style="fill:#1a283d;fill-opacity:0.5;stroke:#ffffff;stroke-linejoin:miter;stroke-width:1.447546;"/>
   </g>
   <g id="patch_50">
    <path clip-path="url(#pf8ac3ad861)" d="M 584.517232 377.846617 
L 584.965266 377.846617 
L 584.965266 363.371158 
L 584.517232 363.371158 
z
" style="fill:#1a283d;fill-opacity:0.5;stroke:#ffffff;stroke-linejoin:miter;stroke-width:1.447546;"/>
   </g>
   <g id="patch_51">
    <path clip-path="url(#pf8ac3ad861)" d="M 584.517232 363.371158 
L 585.4133 363.371158 
L 585.4133 348.895699 
L 584.517232 348.895699 
z
" style="fill:#1a283d;fill-opacity:0.5;stroke:#ffffff;stroke-linejoin:miter;stroke-width:1.447546;"/>
   </g>
   <g id="patch_52">
    <path clip-path="url(#pf8ac3ad861)" d="M 584.517232 348.895699 
L 586.309369 348.895699 
L 586.309369 334.42024 
L 584.517232 334.42024 
z
" style="fill:#1a283d;fill-opacity:0.5;stroke:#ffffff;stroke-linejoin:miter;stroke-width:1.447546;"/>
   </g>
   <g id="patch_53">
    <path clip-path="url(#pf8ac3ad861)" d="M 584.517232 334.42024 
L 584.965266 334.42024 
L 584.965266 319.944782 
L 584.517232 319.944782 
z
" style="fill:#1a283d;fill-opacity:0.5;stroke:#ffffff;stroke-linejoin:miter;stroke-width:1.447546;"/>
   </g>
   <g id="patch_54">
    <path clip-path="url(#pf8ac3ad861)" d="M 584.517232 319.944782 
L 584.517232 319.944782 
L 584.517232 305.469323 
L 584.517232 305.469323 
z
" style="fill:#1a283d;fill-opacity:0.5;stroke:#ffffff;stroke-linejoin:miter;stroke-width:1.447546;"/>
   </g>
   <g id="patch_55">
    <path clip-path="url(#pf8ac3ad861)" d="M 584.517232 305.469323 
L 584.517232 305.469323 
L 584.517232 290.993864 
L 584.517232 290.993864 
z
" style="fill:#1a283d;fill-opacity:0.5;stroke:#ffffff;stroke-linejoin:miter;stroke-width:1.447546;"/>
   </g>
   <g id="patch_56">
    <path clip-path="url(#pf8ac3ad861)" d="M 584.517232 290.993864 
L 584.517232 290.993864 
L 584.517232 276.518406 
L 584.517232 276.518406 
z
" style="fill:#1a283d;fill-opacity:0.5;stroke:#ffffff;stroke-linejoin:miter;stroke-width:1.447546;"/>
   </g>
   <g id="patch_57">
    <path clip-path="url(#pf8ac3ad861)" d="M 584.517232 276.518406 
L 585.861335 276.518406 
L 585.861335 262.042947 
L 584.517232 262.042947 
z
" style="fill:#1a283d;fill-opacity:0.5;stroke:#ffffff;stroke-linejoin:miter;stroke-width:1.447546;"/>
   </g>
   <g id="patch_58">
    <path clip-path="url(#pf8ac3ad861)" d="M 584.517232 262.042947 
L 584.517232 262.042947 
L 584.517232 247.567488 
L 584.517232 247.567488 
z
" style="fill:#1a283d;fill-opacity:0.5;stroke:#ffffff;stroke-linejoin:miter;stroke-width:1.447546;"/>
   </g>
   <g id="patch_59">
    <path clip-path="url(#pf8ac3ad861)" d="M 584.517232 247.567488 
L 584.517232 247.567488 
L 584.517232 233.092029 
L 584.517232 233.092029 
z
" style="fill:#1a283d;fill-opacity:0.5;stroke:#ffffff;stroke-linejoin:miter;stroke-width:1.447546;"/>
   </g>
   <g id="patch_60">
    <path clip-path="url(#pf8ac3ad861)" d="M 584.517232 233.092029 
L 584.517232 233.092029 
L 584.517232 218.616571 
L 584.517232 218.616571 
z
" style="fill:#1a283d;fill-opacity:0.5;stroke:#ffffff;stroke-linejoin:miter;stroke-width:1.447546;"/>
   </g>
   <g id="patch_61">
    <path clip-path="url(#pf8ac3ad861)" d="M 584.517232 218.616571 
L 584.517232 218.616571 
L 584.517232 204.141112 
L 584.517232 204.141112 
z
" style="fill:#1a283d;fill-opacity:0.5;stroke:#ffffff;stroke-linejoin:miter;stroke-width:1.447546;"/>
   </g>
   <g id="patch_62">
    <path clip-path="url(#pf8ac3ad861)" d="M 584.517232 204.141112 
L 584.517232 204.141112 
L 584.517232 189.665653 
L 584.517232 189.665653 
z
" style="fill:#1a283d;fill-opacity:0.5;stroke:#ffffff;stroke-linejoin:miter;stroke-width:1.447546;"/>
   </g>
   <g id="patch_63">
    <path clip-path="url(#pf8ac3ad861)" d="M 584.517232 189.665653 
L 584.517232 189.665653 
L 584.517232 175.190194 
L 584.517232 175.190194 
z
" style="fill:#1a283d;fill-opacity:0.5;stroke:#ffffff;stroke-linejoin:miter;stroke-width:1.447546;"/>
   </g>
   <g id="patch_64">
    <path clip-path="url(#pf8ac3ad861)" d="M 584.517232 175.190194 
L 584.517232 175.190194 
L 584.517232 160.714736 
L 584.517232 160.714736 
z
" style="fill:#1a283d;fill-opacity:0.5;stroke:#ffffff;stroke-linejoin:miter;stroke-width:1.447546;"/>
   </g>
   <g id="patch_65">
    <path clip-path="url(#pf8ac3ad861)" d="M 584.517232 160.714736 
L 584.517232 160.714736 
L 584.517232 146.239277 
L 584.517232 146.239277 
z
" style="fill:#1a283d;fill-opacity:0.5;stroke:#ffffff;stroke-linejoin:miter;stroke-width:1.447546;"/>
   </g>
   <g id="patch_66">
    <path clip-path="url(#pf8ac3ad861)" d="M 584.517232 146.239277 
L 584.517232 146.239277 
L 584.517232 131.763818 
L 584.517232 131.763818 
z
" style="fill:#1a283d;fill-opacity:0.5;stroke:#ffffff;stroke-linejoin:miter;stroke-width:1.447546;"/>
   </g>
   <g id="patch_67">
    <path clip-path="url(#pf8ac3ad861)" d="M 584.517232 580.503039 
L 585.861335 580.503039 
L 585.861335 566.02758 
L 584.517232 566.02758 
z
" style="fill:#96c69a;fill-opacity:0.5;stroke:#ffffff;stroke-linejoin:miter;stroke-width:1.447546;"/>
   </g>
   <g id="patch_68">
    <path clip-path="url(#pf8ac3ad861)" d="M 584.517232 566.02758 
L 584.517232 566.02758 
L 584.517232 551.552121 
L 584.517232 551.552121 
z
" style="fill:#96c69a;fill-opacity:0.5;stroke:#ffffff;stroke-linejoin:miter;stroke-width:1.447546;"/>
   </g>
   <g id="patch_69">
    <path clip-path="url(#pf8ac3ad861)" d="M 584.517232 551.552121 
L 587.653471 551.552121 
L 587.653471 537.076663 
L 584.517232 537.076663 
z
" style="fill:#96c69a;fill-opacity:0.5;stroke:#ffffff;stroke-linejoin:miter;stroke-width:1.447546;"/>
   </g>
   <g id="patch_70">
    <path clip-path="url(#pf8ac3ad861)" d="M 584.517232 537.076663 
L 588.997573 537.076663 
L 588.997573 522.601204 
L 584.517232 522.601204 
z
" style="fill:#96c69a;fill-opacity:0.5;stroke:#ffffff;stroke-linejoin:miter;stroke-width:1.447546;"/>
   </g>
   <g id="patch_71">
    <path clip-path="url(#pf8ac3ad861)" d="M 584.517232 522.601204 
L 591.237744 522.601204 
L 591.237744 508.125745 
L 584.517232 508.125745 
z
" style="fill:#96c69a;fill-opacity:0.5;stroke:#ffffff;stroke-linejoin:miter;stroke-width:1.447546;"/>
   </g>
   <g id="patch_72">
    <path clip-path="url(#pf8ac3ad861)" d="M 584.517232 508.125745 
L 598.40629 508.125745 
L 598.40629 493.650287 
L 584.517232 493.650287 
z
" style="fill:#96c69a;fill-opacity:0.5;stroke:#ffffff;stroke-linejoin:miter;stroke-width:1.447546;"/>
   </g>
   <g id="patch_73">
    <path clip-path="url(#pf8ac3ad861)" d="M 584.517232 493.650287 
L 610.503212 493.650287 
L 610.503212 479.174828 
L 584.517232 479.174828 
z
" style="fill:#96c69a;fill-opacity:0.5;stroke:#ffffff;stroke-linejoin:miter;stroke-width:1.447546;"/>
   </g>
   <g id="patch_74">
    <path clip-path="url(#pf8ac3ad861)" d="M 584.517232 479.174828 
L 609.159109 479.174828 
L 609.159109 464.699369 
L 584.517232 464.699369 
z
" style="fill:#96c69a;fill-opacity:0.5;stroke:#ffffff;stroke-linejoin:miter;stroke-width:1.447546;"/>
   </g>
   <g id="patch_75">
    <path clip-path="url(#pf8ac3ad861)" d="M 584.517232 464.699369 
L 618.119792 464.699369 
L 618.119792 450.22391 
L 584.517232 450.22391 
z
" style="fill:#96c69a;fill-opacity:0.5;stroke:#ffffff;stroke-linejoin:miter;stroke-width:1.447546;"/>
   </g>
   <g id="patch_76">
    <path clip-path="url(#pf8ac3ad861)" d="M 584.517232 450.22391 
L 639.62543 450.22391 
L 639.62543 435.748452 
L 584.517232 435.748452 
z
" style="fill:#96c69a;fill-opacity:0.5;stroke:#ffffff;stroke-linejoin:miter;stroke-width:1.447546;"/>
   </g>
   <g id="patch_77">
    <path clip-path="url(#pf8ac3ad861)" d="M 584.517232 435.748452 
L 645.897908 435.748452 
L 645.897908 421.272993 
L 584.517232 421.272993 
z
" style="fill:#96c69a;fill-opacity:0.5;stroke:#ffffff;stroke-linejoin:miter;stroke-width:1.447546;"/>
   </g>
   <g id="patch_78">
    <path clip-path="url(#pf8ac3ad861)" d="M 584.517232 421.272993 
L 657.994829 421.272993 
L 657.994829 406.797534 
L 584.517232 406.797534 
z
" style="fill:#96c69a;fill-opacity:0.5;stroke:#ffffff;stroke-linejoin:miter;stroke-width:1.447546;"/>
   </g>
   <g id="patch_79">
    <path clip-path="url(#pf8ac3ad861)" d="M 584.517232 406.797534 
L 657.546795 406.797534 
L 657.546795 392.322075 
L 584.517232 392.322075 
z
" style="fill:#96c69a;fill-opacity:0.5;stroke:#ffffff;stroke-linejoin:miter;stroke-width:1.447546;"/>
   </g>
   <g id="patch_80">
    <path clip-path="url(#pf8ac3ad861)" d="M 584.517232 392.322075 
L 663.819273 392.322075 
L 663.819273 377.846617 
L 584.517232 377.846617 
z
" style="fill:#96c69a;fill-opacity:0.5;stroke:#ffffff;stroke-linejoin:miter;stroke-width:1.447546;"/>
   </g>
   <g id="patch_81">
    <path clip-path="url(#pf8ac3ad861)" d="M 584.517232 377.846617 
L 657.994829 377.846617 
L 657.994829 363.371158 
L 584.517232 363.371158 
z
" style="fill:#96c69a;fill-opacity:0.5;stroke:#ffffff;stroke-linejoin:miter;stroke-width:1.447546;"/>
   </g>
   <g id="patch_82">
    <path clip-path="url(#pf8ac3ad861)" d="M 584.517232 363.371158 
L 648.586113 363.371158 
L 648.586113 348.895699 
L 584.517232 348.895699 
z
" style="fill:#96c69a;fill-opacity:0.5;stroke:#ffffff;stroke-linejoin:miter;stroke-width:1.447546;"/>
   </g>
   <g id="patch_83">
    <path clip-path="url(#pf8ac3ad861)" d="M 584.517232 348.895699 
L 638.281328 348.895699 
L 638.281328 334.42024 
L 584.517232 334.42024 
z
" style="fill:#96c69a;fill-opacity:0.5;stroke:#ffffff;stroke-linejoin:miter;stroke-width:1.447546;"/>
   </g>
   <g id="patch_84">
    <path clip-path="url(#pf8ac3ad861)" d="M 584.517232 334.42024 
L 639.62543 334.42024 
L 639.62543 319.944782 
L 584.517232 319.944782 
z
" style="fill:#96c69a;fill-opacity:0.5;stroke:#ffffff;stroke-linejoin:miter;stroke-width:1.447546;"/>
   </g>
   <g id="patch_85">
    <path clip-path="url(#pf8ac3ad861)" d="M 584.517232 319.944782 
L 629.768679 319.944782 
L 629.768679 305.469323 
L 584.517232 305.469323 
z
" style="fill:#96c69a;fill-opacity:0.5;stroke:#ffffff;stroke-linejoin:miter;stroke-width:1.447546;"/>
   </g>
   <g id="patch_86">
    <path clip-path="url(#pf8ac3ad861)" d="M 584.517232 305.469323 
L 619.463894 305.469323 
L 619.463894 290.993864 
L 584.517232 290.993864 
z
" style="fill:#96c69a;fill-opacity:0.5;stroke:#ffffff;stroke-linejoin:miter;stroke-width:1.447546;"/>
   </g>
   <g id="patch_87">
    <path clip-path="url(#pf8ac3ad861)" d="M 584.517232 290.993864 
L 619.911928 290.993864 
L 619.911928 276.518406 
L 584.517232 276.518406 
z
" style="fill:#96c69a;fill-opacity:0.5;stroke:#ffffff;stroke-linejoin:miter;stroke-width:1.447546;"/>
   </g>
   <g id="patch_88">
    <path clip-path="url(#pf8ac3ad861)" d="M 584.517232 276.518406 
L 605.574836 276.518406 
L 605.574836 262.042947 
L 584.517232 262.042947 
z
" style="fill:#96c69a;fill-opacity:0.5;stroke:#ffffff;stroke-linejoin:miter;stroke-width:1.447546;"/>
   </g>
   <g id="patch_89">
    <path clip-path="url(#pf8ac3ad861)" d="M 584.517232 262.042947 
L 597.958256 262.042947 
L 597.958256 247.567488 
L 584.517232 247.567488 
z
" style="fill:#96c69a;fill-opacity:0.5;stroke:#ffffff;stroke-linejoin:miter;stroke-width:1.447546;"/>
   </g>
   <g id="patch_90">
    <path clip-path="url(#pf8ac3ad861)" d="M 584.517232 247.567488 
L 596.614154 247.567488 
L 596.614154 233.092029 
L 584.517232 233.092029 
z
" style="fill:#96c69a;fill-opacity:0.5;stroke:#ffffff;stroke-linejoin:miter;stroke-width:1.447546;"/>
   </g>
   <g id="patch_91">
    <path clip-path="url(#pf8ac3ad861)" d="M 584.517232 233.092029 
L 591.685778 233.092029 
L 591.685778 218.616571 
L 584.517232 218.616571 
z
" style="fill:#96c69a;fill-opacity:0.5;stroke:#ffffff;stroke-linejoin:miter;stroke-width:1.447546;"/>
   </g>
   <g id="patch_92">
    <path clip-path="url(#pf8ac3ad861)" d="M 584.517232 218.616571 
L 589.445608 218.616571 
L 589.445608 204.141112 
L 584.517232 204.141112 
z
" style="fill:#96c69a;fill-opacity:0.5;stroke:#ffffff;stroke-linejoin:miter;stroke-width:1.447546;"/>
   </g>
   <g id="patch_93">
    <path clip-path="url(#pf8ac3ad861)" d="M 584.517232 204.141112 
L 589.445608 204.141112 
L 589.445608 189.665653 
L 584.517232 189.665653 
z
" style="fill:#96c69a;fill-opacity:0.5;stroke:#ffffff;stroke-linejoin:miter;stroke-width:1.447546;"/>
   </g>
   <g id="patch_94">
    <path clip-path="url(#pf8ac3ad861)" d="M 584.517232 189.665653 
L 586.757403 189.665653 
L 586.757403 175.190194 
L 584.517232 175.190194 
z
" style="fill:#96c69a;fill-opacity:0.5;stroke:#ffffff;stroke-linejoin:miter;stroke-width:1.447546;"/>
   </g>
   <g id="patch_95">
    <path clip-path="url(#pf8ac3ad861)" d="M 584.517232 175.190194 
L 586.309369 175.190194 
L 586.309369 160.714736 
L 584.517232 160.714736 
z
" style="fill:#96c69a;fill-opacity:0.5;stroke:#ffffff;stroke-linejoin:miter;stroke-width:1.447546;"/>
   </g>
   <g id="patch_96">
    <path clip-path="url(#pf8ac3ad861)" d="M 584.517232 160.714736 
L 585.4133 160.714736 
L 585.4133 146.239277 
L 584.517232 146.239277 
z
" style="fill:#96c69a;fill-opacity:0.5;stroke:#ffffff;stroke-linejoin:miter;stroke-width:1.447546;"/>
   </g>
   <g id="patch_97">
    <path clip-path="url(#pf8ac3ad861)" d="M 584.517232 146.239277 
L 584.965266 146.239277 
L 584.965266 131.763818 
L 584.517232 131.763818 
z
" style="fill:#96c69a;fill-opacity:0.5;stroke:#ffffff;stroke-linejoin:miter;stroke-width:1.447546;"/>
   </g>
   <g id="patch_98">
    <path d="M 584.517232 602.94 
L 584.517232 109.326857 
" style="fill:none;stroke:#262626;stroke-linecap:square;stroke-linejoin:miter;stroke-width:2.5;"/>
   </g>
   <g id="patch_99">
    <path d="M 584.517232 602.94 
L 667.784375 602.94 
" style="fill:none;stroke:#262626;stroke-linecap:square;stroke-linejoin:miter;stroke-width:2.5;"/>
   </g>
  </g>
 </g>
 <defs>
  <clipPath id="p40a1207025">
   <rect height="493.613143" width="482.949429" x="84.914375" y="109.326857"/>
  </clipPath>
  <clipPath id="p888748fced">
   <rect height="85.105714" width="482.949429" x="84.914375" y="7.2"/>
  </clipPath>
  <clipPath id="pf8ac3ad861">
   <rect height="493.613143" width="83.267143" x="584.517232" y="109.326857"/>
  </clipPath>
 </defs>
</svg>
