<?xml version="1.0" encoding="utf-8" standalone="no"?>
<!DOCTYPE svg PUBLIC "-//W3C//DTD SVG 1.1//EN"
  "http://www.w3.org/Graphics/SVG/1.1/DTD/svg11.dtd">
<svg height="674.159375pt" version="1.1" viewBox="0 0 684.806247 674.159375" width="684.806247pt" xmlns="http://www.w3.org/2000/svg" xmlns:xlink="http://www.w3.org/1999/xlink">
 <metadata>
  <rdf:RDF xmlns:cc="http://creativecommons.org/ns#" xmlns:dc="http://purl.org/dc/elements/1.1/" xmlns:rdf="http://www.w3.org/1999/02/22-rdf-syntax-ns#">
   <cc:Work>
    <dc:type rdf:resource="http://purl.org/dc/dcmitype/StillImage"/>
    <dc:date>2021-07-24T14:50:38.932922</dc:date>
    <dc:format>image/svg+xml</dc:format>
    <dc:creator>
     <cc:Agent>
      <dc:title>Matplotlib v3.4.2, https://matplotlib.org/</dc:title>
     </cc:Agent>
    </dc:creator>
   </cc:Work>
  </rdf:RDF>
 </metadata>
 <defs>
  <style type="text/css">*{stroke-linecap:butt;stroke-linejoin:round;}</style>
 </defs>
 <g id="figure_1">
  <g id="patch_1">
   <path d="M 0 674.159375 
L 684.806247 674.159375 
L 684.806247 0 
L 0 0 
z
" style="fill:#ffffff;"/>
  </g>
  <g id="axes_1">
   <g id="patch_2">
    <path d="M 84.914375 602.94 
L 567.863804 602.94 
L 567.863804 109.326857 
L 84.914375 109.326857 
z
" style="fill:none;"/>
   </g>
   <g id="matplotlib.axis_1">
    <g id="xtick_1">
     <g id="text_1">
      <!-- 0 -->
      <g style="fill:#262626;" transform="translate(99.449335 635.156562)scale(0.22 -0.22)">
       <defs>
        <path d="M 2034 4250 
Q 1547 4250 1301 3770 
Q 1056 3291 1056 2328 
Q 1056 1369 1301 889 
Q 1547 409 2034 409 
Q 2525 409 2770 889 
Q 3016 1369 3016 2328 
Q 3016 3291 2770 3770 
Q 2525 4250 2034 4250 
z
M 2034 4750 
Q 2819 4750 3233 4129 
Q 3647 3509 3647 2328 
Q 3647 1150 3233 529 
Q 2819 -91 2034 -91 
Q 1250 -91 836 529 
Q 422 1150 422 2328 
Q 422 3509 836 4129 
Q 1250 4750 2034 4750 
z
" id="DejaVuSans-30" transform="scale(0.015625)"/>
       </defs>
       <use xlink:href="#DejaVuSans-30"/>
      </g>
     </g>
    </g>
    <g id="xtick_2">
     <g id="text_2">
      <!-- 2000 -->
      <g style="fill:#262626;" transform="translate(183.087245 635.156562)scale(0.22 -0.22)">
       <defs>
        <path d="M 1228 531 
L 3431 531 
L 3431 0 
L 469 0 
L 469 531 
Q 828 903 1448 1529 
Q 2069 2156 2228 2338 
Q 2531 2678 2651 2914 
Q 2772 3150 2772 3378 
Q 2772 3750 2511 3984 
Q 2250 4219 1831 4219 
Q 1534 4219 1204 4116 
Q 875 4013 500 3803 
L 500 4441 
Q 881 4594 1212 4672 
Q 1544 4750 1819 4750 
Q 2544 4750 2975 4387 
Q 3406 4025 3406 3419 
Q 3406 3131 3298 2873 
Q 3191 2616 2906 2266 
Q 2828 2175 2409 1742 
Q 1991 1309 1228 531 
z
" id="DejaVuSans-32" transform="scale(0.015625)"/>
       </defs>
       <use xlink:href="#DejaVuSans-32"/>
       <use x="63.623047" xlink:href="#DejaVuSans-30"/>
       <use x="127.246094" xlink:href="#DejaVuSans-30"/>
       <use x="190.869141" xlink:href="#DejaVuSans-30"/>
      </g>
     </g>
    </g>
    <g id="xtick_3">
     <g id="text_3">
      <!-- 4000 -->
      <g style="fill:#262626;" transform="translate(287.721405 635.156562)scale(0.22 -0.22)">
       <defs>
        <path d="M 2419 4116 
L 825 1625 
L 2419 1625 
L 2419 4116 
z
M 2253 4666 
L 3047 4666 
L 3047 1625 
L 3713 1625 
L 3713 1100 
L 3047 1100 
L 3047 0 
L 2419 0 
L 2419 1100 
L 313 1100 
L 313 1709 
L 2253 4666 
z
" id="DejaVuSans-34" transform="scale(0.015625)"/>
       </defs>
       <use xlink:href="#DejaVuSans-34"/>
       <use x="63.623047" xlink:href="#DejaVuSans-30"/>
       <use x="127.246094" xlink:href="#DejaVuSans-30"/>
       <use x="190.869141" xlink:href="#DejaVuSans-30"/>
      </g>
     </g>
    </g>
    <g id="xtick_4">
     <g id="text_4">
      <!-- 6000 -->
      <g style="fill:#262626;" transform="translate(392.355565 635.156562)scale(0.22 -0.22)">
       <defs>
        <path d="M 2113 2584 
Q 1688 2584 1439 2293 
Q 1191 2003 1191 1497 
Q 1191 994 1439 701 
Q 1688 409 2113 409 
Q 2538 409 2786 701 
Q 3034 994 3034 1497 
Q 3034 2003 2786 2293 
Q 2538 2584 2113 2584 
z
M 3366 4563 
L 3366 3988 
Q 3128 4100 2886 4159 
Q 2644 4219 2406 4219 
Q 1781 4219 1451 3797 
Q 1122 3375 1075 2522 
Q 1259 2794 1537 2939 
Q 1816 3084 2150 3084 
Q 2853 3084 3261 2657 
Q 3669 2231 3669 1497 
Q 3669 778 3244 343 
Q 2819 -91 2113 -91 
Q 1303 -91 875 529 
Q 447 1150 447 2328 
Q 447 3434 972 4092 
Q 1497 4750 2381 4750 
Q 2619 4750 2861 4703 
Q 3103 4656 3366 4563 
z
" id="DejaVuSans-36" transform="scale(0.015625)"/>
       </defs>
       <use xlink:href="#DejaVuSans-36"/>
       <use x="63.623047" xlink:href="#DejaVuSans-30"/>
       <use x="127.246094" xlink:href="#DejaVuSans-30"/>
       <use x="190.869141" xlink:href="#DejaVuSans-30"/>
      </g>
     </g>
    </g>
    <g id="xtick_5">
     <g id="text_5">
      <!-- 8000 -->
      <g style="fill:#262626;" transform="translate(496.989725 635.156562)scale(0.22 -0.22)">
       <defs>
        <path d="M 2034 2216 
Q 1584 2216 1326 1975 
Q 1069 1734 1069 1313 
Q 1069 891 1326 650 
Q 1584 409 2034 409 
Q 2484 409 2743 651 
Q 3003 894 3003 1313 
Q 3003 1734 2745 1975 
Q 2488 2216 2034 2216 
z
M 1403 2484 
Q 997 2584 770 2862 
Q 544 3141 544 3541 
Q 544 4100 942 4425 
Q 1341 4750 2034 4750 
Q 2731 4750 3128 4425 
Q 3525 4100 3525 3541 
Q 3525 3141 3298 2862 
Q 3072 2584 2669 2484 
Q 3125 2378 3379 2068 
Q 3634 1759 3634 1313 
Q 3634 634 3220 271 
Q 2806 -91 2034 -91 
Q 1263 -91 848 271 
Q 434 634 434 1313 
Q 434 1759 690 2068 
Q 947 2378 1403 2484 
z
M 1172 3481 
Q 1172 3119 1398 2916 
Q 1625 2713 2034 2713 
Q 2441 2713 2670 2916 
Q 2900 3119 2900 3481 
Q 2900 3844 2670 4047 
Q 2441 4250 2034 4250 
Q 1625 4250 1398 4047 
Q 1172 3844 1172 3481 
z
" id="DejaVuSans-38" transform="scale(0.015625)"/>
       </defs>
       <use xlink:href="#DejaVuSans-38"/>
       <use x="63.623047" xlink:href="#DejaVuSans-30"/>
       <use x="127.246094" xlink:href="#DejaVuSans-30"/>
       <use x="190.869141" xlink:href="#DejaVuSans-30"/>
      </g>
     </g>
    </g>
    <g id="text_6">
     <!-- MDTU -->
     <g style="fill:#262626;" transform="translate(290.683464 661.968125)scale(0.24 -0.24)">
      <defs>
       <path d="M 628 4666 
L 1569 4666 
L 2759 1491 
L 3956 4666 
L 4897 4666 
L 4897 0 
L 4281 0 
L 4281 4097 
L 3078 897 
L 2444 897 
L 1241 4097 
L 1241 0 
L 628 0 
L 628 4666 
z
" id="DejaVuSans-4d" transform="scale(0.015625)"/>
       <path d="M 1259 4147 
L 1259 519 
L 2022 519 
Q 2988 519 3436 956 
Q 3884 1394 3884 2338 
Q 3884 3275 3436 3711 
Q 2988 4147 2022 4147 
L 1259 4147 
z
M 628 4666 
L 1925 4666 
Q 3281 4666 3915 4102 
Q 4550 3538 4550 2338 
Q 4550 1131 3912 565 
Q 3275 0 1925 0 
L 628 0 
L 628 4666 
z
" id="DejaVuSans-44" transform="scale(0.015625)"/>
       <path d="M -19 4666 
L 3928 4666 
L 3928 4134 
L 2272 4134 
L 2272 0 
L 1638 0 
L 1638 4134 
L -19 4134 
L -19 4666 
z
" id="DejaVuSans-54" transform="scale(0.015625)"/>
       <path d="M 556 4666 
L 1191 4666 
L 1191 1831 
Q 1191 1081 1462 751 
Q 1734 422 2344 422 
Q 2950 422 3222 751 
Q 3494 1081 3494 1831 
L 3494 4666 
L 4128 4666 
L 4128 1753 
Q 4128 841 3676 375 
Q 3225 -91 2344 -91 
Q 1459 -91 1007 375 
Q 556 841 556 1753 
L 556 4666 
z
" id="DejaVuSans-55" transform="scale(0.015625)"/>
      </defs>
      <use xlink:href="#DejaVuSans-4d"/>
      <use x="86.279297" xlink:href="#DejaVuSans-44"/>
      <use x="163.28125" xlink:href="#DejaVuSans-54"/>
      <use x="224.365234" xlink:href="#DejaVuSans-55"/>
     </g>
    </g>
   </g>
   <g id="matplotlib.axis_2">
    <g id="ytick_1">
     <g id="text_7">
      <!-- 0.4 -->
      <g style="fill:#262626;" transform="translate(34.4275 604.712351)scale(0.22 -0.22)">
       <defs>
        <path d="M 684 794 
L 1344 794 
L 1344 0 
L 684 0 
L 684 794 
z
" id="DejaVuSans-2e" transform="scale(0.015625)"/>
       </defs>
       <use xlink:href="#DejaVuSans-30"/>
       <use x="63.623047" xlink:href="#DejaVuSans-2e"/>
       <use x="95.410156" xlink:href="#DejaVuSans-34"/>
      </g>
     </g>
    </g>
    <g id="ytick_2">
     <g id="text_8">
      <!-- 0.6 -->
      <g style="fill:#262626;" transform="translate(34.4275 543.624085)scale(0.22 -0.22)">
       <use xlink:href="#DejaVuSans-30"/>
       <use x="63.623047" xlink:href="#DejaVuSans-2e"/>
       <use x="95.410156" xlink:href="#DejaVuSans-36"/>
      </g>
     </g>
    </g>
    <g id="ytick_3">
     <g id="text_9">
      <!-- 0.8 -->
      <g style="fill:#262626;" transform="translate(34.4275 482.535818)scale(0.22 -0.22)">
       <use xlink:href="#DejaVuSans-30"/>
       <use x="63.623047" xlink:href="#DejaVuSans-2e"/>
       <use x="95.410156" xlink:href="#DejaVuSans-38"/>
      </g>
     </g>
    </g>
    <g id="ytick_4">
     <g id="text_10">
      <!-- 1.0 -->
      <g style="fill:#262626;" transform="translate(34.4275 421.447551)scale(0.22 -0.22)">
       <defs>
        <path d="M 794 531 
L 1825 531 
L 1825 4091 
L 703 3866 
L 703 4441 
L 1819 4666 
L 2450 4666 
L 2450 531 
L 3481 531 
L 3481 0 
L 794 0 
L 794 531 
z
" id="DejaVuSans-31" transform="scale(0.015625)"/>
       </defs>
       <use xlink:href="#DejaVuSans-31"/>
       <use x="63.623047" xlink:href="#DejaVuSans-2e"/>
       <use x="95.410156" xlink:href="#DejaVuSans-30"/>
      </g>
     </g>
    </g>
    <g id="ytick_5">
     <g id="text_11">
      <!-- 1.2 -->
      <g style="fill:#262626;" transform="translate(34.4275 360.359284)scale(0.22 -0.22)">
       <use xlink:href="#DejaVuSans-31"/>
       <use x="63.623047" xlink:href="#DejaVuSans-2e"/>
       <use x="95.410156" xlink:href="#DejaVuSans-32"/>
      </g>
     </g>
    </g>
    <g id="ytick_6">
     <g id="text_12">
      <!-- 1.4 -->
      <g style="fill:#262626;" transform="translate(34.4275 299.271017)scale(0.22 -0.22)">
       <use xlink:href="#DejaVuSans-31"/>
       <use x="63.623047" xlink:href="#DejaVuSans-2e"/>
       <use x="95.410156" xlink:href="#DejaVuSans-34"/>
      </g>
     </g>
    </g>
    <g id="ytick_7">
     <g id="text_13">
      <!-- 1.6 -->
      <g style="fill:#262626;" transform="translate(34.4275 238.18275)scale(0.22 -0.22)">
       <use xlink:href="#DejaVuSans-31"/>
       <use x="63.623047" xlink:href="#DejaVuSans-2e"/>
       <use x="95.410156" xlink:href="#DejaVuSans-36"/>
      </g>
     </g>
    </g>
    <g id="ytick_8">
     <g id="text_14">
      <!-- 1.8 -->
      <g style="fill:#262626;" transform="translate(34.4275 177.094483)scale(0.22 -0.22)">
       <use xlink:href="#DejaVuSans-31"/>
       <use x="63.623047" xlink:href="#DejaVuSans-2e"/>
       <use x="95.410156" xlink:href="#DejaVuSans-38"/>
      </g>
     </g>
    </g>
    <g id="text_15">
     <!-- $E$ -->
     <g style="fill:#262626;" transform="translate(25.43625 363.813429)rotate(-90)scale(0.24 -0.24)">
      <defs>
       <path d="M 1081 4666 
L 4031 4666 
L 3928 4134 
L 1606 4134 
L 1338 2753 
L 3566 2753 
L 3463 2222 
L 1234 2222 
L 909 531 
L 3284 531 
L 3181 0 
L 172 0 
L 1081 4666 
z
" id="DejaVuSans-Oblique-45" transform="scale(0.015625)"/>
      </defs>
      <use transform="translate(0 0.09375)" xlink:href="#DejaVuSans-Oblique-45"/>
     </g>
    </g>
   </g>
   <g id="line2d_1">
    <path clip-path="url(#pde8bbb6642)" d="M 106.866622 536.697328 
L 107.285158 469.923873 
L 107.703695 438.545344 
L 108.122232 433.899321 
L 108.540768 447.040152 
L 108.959305 385.955045 
L 109.377842 422.799774 
L 109.796378 431.180218 
L 110.633452 524.373645 
L 111.051988 465.37912 
L 111.470525 457.394348 
L 111.889061 487.790759 
L 112.307598 449.956515 
L 112.726135 511.881396 
L 113.144671 466.964642 
L 113.563208 395.720247 
L 113.981745 394.672699 
L 114.400281 408.256237 
L 114.818818 348.460903 
L 115.237355 364.023217 
L 115.655891 452.208715 
L 116.074428 461.828549 
L 116.492964 403.40516 
L 116.911501 460.65673 
L 117.330038 420.58622 
L 117.748574 522.068966 
L 118.585648 471.762574 
L 119.004184 487.251888 
L 119.422721 517.979146 
L 119.841258 494.712641 
L 120.259794 496.574757 
L 120.678331 413.349065 
L 121.096868 532.010074 
L 121.933941 496.450153 
L 122.352477 547.845898 
L 122.771014 569.259973 
L 123.189551 486.941416 
L 123.608087 454.504287 
L 124.026624 407.336413 
L 124.445161 299.241181 
L 124.863697 264.647232 
L 125.282234 308.79516 
L 125.700771 383.412863 
L 126.119307 304.618017 
L 126.537844 386.376595 
L 126.95638 369.257133 
L 127.374917 416.859495 
L 128.21199 483.000362 
L 128.630527 415.873985 
L 129.049064 424.192925 
L 129.4676 400.032542 
L 129.886137 473.827256 
L 130.304674 479.187421 
L 130.72321 402.523862 
L 131.141747 453.734763 
L 131.560283 424.921603 
L 131.97882 421.627453 
L 132.397357 433.810009 
L 132.815893 468.210654 
L 133.23443 483.840839 
L 133.652967 408.398378 
L 134.071503 471.920283 
L 134.49004 510.481179 
L 134.908577 464.490865 
L 135.327113 474.057363 
L 135.74565 526.102504 
L 136.582723 471.294298 
L 137.00126 460.393599 
L 137.419796 456.486891 
L 138.25687 395.27468 
L 138.675406 253.388465 
L 139.093943 361.847967 
L 139.51248 306.378811 
L 139.931016 404.223261 
L 140.349553 457.47504 
L 140.76809 450.663875 
L 141.186626 388.148371 
L 142.023699 464.427359 
L 142.442236 423.441009 
L 142.860773 463.289739 
L 143.279309 469.124635 
L 143.697846 492.803543 
L 144.116383 434.382598 
L 144.534919 479.571721 
L 145.371993 422.041736 
L 145.790529 302.786964 
L 146.209066 449.748489 
L 146.627603 518.889101 
L 147.046139 456.143084 
L 147.464676 344.003351 
L 147.883212 433.48978 
L 148.720286 540.293241 
L 149.557359 516.11628 
L 149.975896 515.482318 
L 150.394432 426.401367 
L 150.812969 455.527475 
L 151.231506 462.505188 
L 151.650042 394.157477 
L 152.068579 426.676137 
L 152.487115 416.419471 
L 152.905652 436.784513 
L 153.742725 524.785672 
L 154.161262 499.946716 
L 154.998335 531.556425 
L 156.253945 424.986746 
L 156.672482 386.078981 
L 157.091019 490.137024 
L 157.509555 400.962187 
L 157.928092 355.202069 
L 158.765165 512.053826 
L 159.183702 519.937356 
L 159.602238 477.443541 
L 160.020775 488.509055 
L 160.439312 527.98345 
L 160.857848 454.612194 
L 161.276385 425.460365 
L 161.694922 422.197107 
L 162.113458 426.436861 
L 162.531995 453.173444 
L 162.950531 417.603637 
L 163.369068 453.653253 
L 163.787605 447.109647 
L 164.206141 429.542617 
L 164.624678 374.465694 
L 165.043215 380.541164 
L 165.461751 352.508315 
L 165.880288 332.373595 
L 166.298825 273.455793 
L 166.717361 282.997603 
L 167.135898 297.791046 
L 167.554435 365.025318 
L 168.391508 304.796137 
L 168.810044 339.458392 
L 169.228581 295.519144 
L 169.647118 476.192727 
L 170.065654 461.672076 
L 170.484191 378.838347 
L 170.902728 441.587663 
L 171.321264 392.216687 
L 171.739801 431.192831 
L 172.158338 341.727895 
L 172.995411 376.957873 
L 173.413947 439.499088 
L 173.832484 365.655494 
L 174.251021 474.827454 
L 174.669557 443.618352 
L 175.506631 329.513487 
L 175.925167 378.423409 
L 176.343704 358.275876 
L 176.762241 386.046794 
L 177.180777 367.863957 
L 177.599314 356.453464 
L 178.017851 350.187862 
L 178.436387 408.040931 
L 178.854924 428.593092 
L 179.27346 415.48907 
L 179.691997 270.998735 
L 180.110534 301.861072 
L 180.52907 131.763818 
L 180.947607 308.678577 
L 181.366144 362.562572 
L 182.203217 289.568115 
L 182.621754 360.275606 
L 183.458827 445.711367 
L 183.877363 423.015184 
L 184.2959 424.523214 
L 184.714437 431.442787 
L 185.132973 425.146219 
L 185.55151 466.16592 
L 185.970047 455.952664 
L 186.388583 430.04897 
L 186.80712 442.459096 
L 187.225657 423.812473 
L 187.644193 338.622666 
L 188.06273 437.403919 
L 188.481266 456.498014 
L 188.899803 493.2967 
L 189.31834 455.986938 
L 189.736876 461.825741 
L 190.155413 408.612435 
L 190.57395 485.205919 
L 190.992486 437.680163 
L 191.411023 475.736839 
L 191.82956 524.812825 
L 192.248096 500.696831 
L 192.666633 439.565301 
L 193.08517 512.754208 
L 193.503706 502.563765 
L 193.922243 483.252469 
L 194.340779 517.854534 
L 194.759316 485.926495 
L 195.177853 479.617436 
L 195.596389 460.835109 
L 196.014926 434.290613 
L 196.433463 450.565266 
L 196.851999 485.801122 
L 197.270536 504.210724 
L 197.689073 510.590148 
L 198.107609 449.137538 
L 198.526146 468.142886 
L 198.944682 443.457341 
L 199.363219 427.595733 
L 199.781756 446.788384 
L 200.200292 415.910307 
L 200.618829 446.339558 
L 201.037366 459.937491 
L 201.455902 445.734819 
L 201.874439 411.973235 
L 202.292976 345.407128 
L 202.711512 400.529613 
L 203.130049 411.087989 
L 203.548586 350.12622 
L 203.967122 381.162447 
L 204.385659 436.289898 
L 204.804195 467.893047 
L 205.222732 448.773848 
L 205.641269 391.075855 
L 206.059805 405.006742 
L 206.478342 390.146814 
L 206.896879 308.656566 
L 207.315415 337.10486 
L 207.733952 456.594555 
L 208.152489 412.102234 
L 208.571025 431.339843 
L 208.989562 441.006576 
L 209.408098 423.12336 
L 209.826635 454.733633 
L 210.245172 442.285054 
L 210.663708 493.812347 
L 211.082245 422.091759 
L 211.500782 460.716761 
L 211.919318 456.981127 
L 212.337855 462.696348 
L 212.756392 474.003327 
L 213.174928 492.356726 
L 213.593465 450.630479 
L 214.012002 448.538492 
L 214.430538 475.295837 
L 214.849075 447.479602 
L 215.267611 451.637737 
L 215.686148 485.974906 
L 216.104685 470.833208 
L 216.523221 468.395312 
L 216.941758 448.233199 
L 217.360295 523.211196 
L 217.778831 467.805358 
L 218.197368 499.499393 
L 218.615905 403.032825 
L 219.034441 417.524389 
L 219.452978 404.23618 
L 220.708588 557.587329 
L 221.127124 554.907654 
L 221.964198 433.397128 
L 222.382734 419.399945 
L 222.801271 423.111011 
L 223.219808 454.851668 
L 223.638344 262.395594 
L 224.056881 434.199615 
L 224.475418 420.46817 
L 224.893954 485.997042 
L 225.312491 468.845835 
L 225.731027 425.39864 
L 226.149564 434.672917 
L 226.568101 491.235962 
L 226.986637 496.838699 
L 227.405174 467.979294 
L 227.823711 469.95173 
L 228.242247 458.841585 
L 228.660784 392.207264 
L 229.079321 481.720128 
L 229.497857 483.670565 
L 229.916394 444.74262 
L 230.33493 420.653427 
L 230.753467 364.839028 
L 231.172004 441.746403 
L 231.59054 433.579051 
L 232.009077 409.332843 
L 232.427614 395.971973 
L 232.84615 362.337254 
L 233.264687 437.710043 
L 233.683224 445.249025 
L 234.10176 409.547857 
L 234.520297 362.637447 
L 234.938834 459.750459 
L 235.35737 490.511434 
L 235.775907 473.182224 
L 236.194443 514.303931 
L 236.61298 465.282301 
L 237.031517 442.997315 
L 237.450053 477.577225 
L 237.86859 432.406772 
L 238.287127 420.98718 
L 238.705663 421.534455 
L 239.1242 368.67072 
L 239.961273 485.425035 
L 240.37981 442.478694 
L 240.798346 511.737946 
L 241.216883 527.398968 
L 241.63542 501.420796 
L 242.053956 485.122884 
L 242.472493 520.672529 
L 242.89103 528.014184 
L 243.309566 467.882879 
L 243.728103 539.383973 
L 244.14664 432.798811 
L 244.565176 430.193197 
L 244.983713 398.635113 
L 245.40225 476.840172 
L 246.239323 363.716946 
L 246.657859 407.498369 
L 247.076396 504.132429 
L 247.494933 469.758662 
L 247.913469 510.059977 
L 248.750543 456.1677 
L 249.169079 473.871429 
L 249.587616 390.847764 
L 250.424689 441.236408 
L 250.843226 404.249756 
L 251.261762 396.139126 
L 251.680299 284.699452 
L 252.098836 346.629065 
L 252.517372 244.242399 
L 252.935909 356.965662 
L 253.354446 354.015615 
L 253.772982 469.236064 
L 254.191519 432.138888 
L 254.610056 444.351636 
L 255.028592 401.593639 
L 255.447129 471.23705 
L 255.865665 449.281804 
L 256.284202 438.324479 
L 256.702739 422.842794 
L 257.121275 350.633498 
L 257.539812 491.434474 
L 257.958349 522.857608 
L 258.376885 420.051169 
L 258.795422 383.779038 
L 259.213959 433.144035 
L 259.632495 443.343869 
L 260.051032 399.124743 
L 260.469569 408.923537 
L 260.888105 484.149675 
L 261.306642 410.089927 
L 261.725178 368.56652 
L 262.143715 288.739987 
L 262.562252 405.191036 
L 262.980788 361.609008 
L 263.399325 375.625235 
L 263.817862 345.619885 
L 264.236398 372.788909 
L 264.654935 407.317163 
L 265.073472 411.187839 
L 265.492008 362.51844 
L 265.910545 436.482221 
L 266.329081 390.060164 
L 266.747618 314.180681 
L 267.166155 294.220639 
L 267.584691 479.414739 
L 268.003228 374.747333 
L 268.421765 405.735378 
L 268.840301 360.397128 
L 269.258838 296.34365 
L 269.677375 381.416229 
L 270.095911 427.824856 
L 270.514448 402.277996 
L 270.932985 438.621223 
L 271.351521 425.26918 
L 272.188594 340.175248 
L 272.607131 245.673896 
L 273.025668 331.506333 
L 273.444204 271.577892 
L 273.862741 406.697366 
L 274.281278 410.582637 
L 274.699814 475.823903 
L 275.118351 460.123495 
L 275.536888 429.635424 
L 275.955424 344.48373 
L 276.373961 481.900496 
L 276.792497 467.51259 
L 277.211034 526.124822 
L 277.629571 567.250243 
L 278.048107 475.885749 
L 278.466644 422.096651 
L 278.885181 391.092226 
L 279.303717 434.284953 
L 279.722254 436.128559 
L 280.559327 461.168648 
L 280.977864 416.517108 
L 281.396401 425.976568 
L 281.814937 423.282356 
L 282.233474 479.340564 
L 282.65201 471.479071 
L 283.070547 437.286107 
L 283.489084 495.651295 
L 283.90762 468.388339 
L 284.326157 483.363891 
L 285.16323 395.182872 
L 285.581767 424.546872 
L 286.000304 327.373008 
L 286.41884 383.279175 
L 286.837377 368.696134 
L 287.255913 401.304116 
L 287.67445 443.465224 
L 288.092987 470.082317 
L 288.511523 362.190506 
L 288.93006 463.180633 
L 289.348597 430.255109 
L 289.767133 442.909058 
L 290.18567 479.892255 
L 290.604207 469.660842 
L 291.44128 342.592222 
L 291.859817 377.504343 
L 292.278353 351.66674 
L 292.69689 454.911224 
L 293.533963 442.508206 
L 294.789573 548.082214 
L 295.626646 480.473941 
L 296.045183 456.604928 
L 296.46372 460.027571 
L 296.882256 412.983391 
L 297.300793 458.806745 
L 297.719329 522.063087 
L 298.137866 439.508298 
L 298.556403 381.297055 
L 298.974939 360.954075 
L 299.393476 318.601887 
L 299.812013 391.159432 
L 300.230549 378.428525 
L 301.067623 427.563599 
L 301.486159 364.234969 
L 301.904696 367.671934 
L 302.323233 364.687566 
L 302.741769 480.738727 
L 303.160306 414.122543 
L 303.578842 446.63807 
L 303.997379 462.639328 
L 304.415916 342.073305 
L 304.834452 367.660952 
L 305.252989 458.92178 
L 305.671526 359.828282 
L 306.090062 379.195042 
L 306.508599 275.497275 
L 306.927136 299.356708 
L 307.345672 436.126854 
L 307.764209 489.937258 
L 308.182745 420.384643 
L 308.601282 418.697285 
L 309.019819 377.96852 
L 309.438355 469.066047 
L 310.275429 548.368563 
L 310.693965 531.196131 
L 311.949575 288.914983 
L 312.368112 449.716555 
L 312.786648 441.267246 
L 313.205185 446.450519 
L 313.623722 372.001954 
L 314.042258 337.918165 
L 314.460795 378.936179 
L 314.879332 462.828031 
L 315.297868 420.17354 
L 315.716405 413.961852 
L 316.134942 401.427686 
L 316.553478 504.103226 
L 316.972015 530.939034 
L 317.390552 390.333233 
L 317.809088 343.770793 
L 318.227625 319.920558 
L 318.646161 325.92652 
L 319.064698 352.779326 
L 319.483235 439.866991 
L 319.901771 400.725302 
L 320.320308 452.487427 
L 320.738845 443.726736 
L 321.575918 358.279655 
L 321.994455 417.846891 
L 322.831528 441.987109 
L 323.668601 409.881549 
L 324.505674 580.503039 
L 324.924211 538.406736 
L 325.342748 480.808401 
L 325.761284 470.633274 
L 326.179821 447.732919 
L 326.598358 399.5829 
L 327.016894 398.688269 
L 327.435431 488.001118 
L 327.853968 435.485888 
L 328.272504 411.542614 
L 328.691041 352.558071 
L 329.109577 339.49654 
L 329.528114 399.033079 
L 329.946651 380.444665 
L 330.365187 444.835425 
L 331.202261 527.694961 
L 331.620797 501.756519 
L 332.039334 458.577792 
L 332.457871 463.70775 
L 332.876407 344.260957 
L 333.294944 437.176364 
L 333.71348 401.148987 
L 334.132017 409.797 
L 334.550554 443.421957 
L 334.96909 394.12566 
L 335.387627 434.712968 
L 335.806164 405.246966 
L 336.2247 439.509014 
L 336.643237 511.853693 
L 337.061774 472.148492 
L 337.48031 402.713496 
L 337.898847 393.851464 
L 338.317384 392.895625 
L 338.73592 420.716424 
L 339.154457 429.281828 
L 339.572993 427.897285 
L 339.99153 393.063683 
L 340.410067 399.656318 
L 340.828603 322.917595 
L 341.24714 422.953935 
L 341.665677 454.263407 
L 342.084213 502.378241 
L 342.50275 531.291253 
L 342.921287 533.079601 
L 343.339823 500.276941 
L 343.75836 528.479598 
L 344.176896 428.895275 
L 344.595433 432.913144 
L 345.01397 493.99907 
L 345.432506 436.147938 
L 345.851043 477.663314 
L 346.26958 473.958162 
L 346.688116 504.626283 
L 347.106653 443.13748 
L 347.943726 504.720111 
L 348.362263 484.815608 
L 348.7808 445.266422 
L 349.199336 470.483422 
L 349.617873 453.501057 
L 350.036409 376.308901 
L 350.454946 420.70958 
L 350.873483 414.832826 
L 351.292019 468.574786 
L 352.129093 427.521447 
L 352.547629 448.854958 
L 352.966166 489.518195 
L 353.384703 435.938395 
L 353.803239 462.713171 
L 355.058849 315.50926 
L 355.477386 240.50831 
L 355.895922 234.137742 
L 356.314459 343.129092 
L 356.732996 390.421014 
L 357.151532 385.98573 
L 357.570069 411.511216 
L 357.988606 405.366594 
L 358.407142 417.622403 
L 358.825679 402.681461 
L 359.244216 479.729505 
L 359.662752 490.517092 
L 360.081289 484.897711 
L 360.499825 482.457732 
L 360.918362 483.457474 
L 361.336899 482.090707 
L 361.755435 501.412693 
L 362.173972 405.356061 
L 362.592509 381.205065 
L 363.011045 316.117123 
L 363.429582 335.671149 
L 363.848119 331.736574 
L 364.266655 489.073931 
L 364.685192 504.376119 
L 365.103728 411.812334 
L 365.522265 387.739165 
L 365.940802 448.527233 
L 366.359338 430.395668 
L 366.777875 470.87612 
L 367.196412 426.856986 
L 367.614948 483.688728 
L 368.033485 521.730478 
L 368.870558 415.98134 
L 369.289095 446.107225 
L 369.707631 523.295262 
L 370.126168 560.784373 
L 370.544705 531.739773 
L 370.963241 477.99249 
L 371.381778 463.259228 
L 371.800315 434.868026 
L 372.218851 452.009368 
L 372.637388 489.931186 
L 373.055925 449.091731 
L 373.474461 484.464684 
L 373.892998 489.90014 
L 374.311535 485.345795 
L 374.730071 434.53793 
L 375.148608 368.659681 
L 375.567144 396.474887 
L 375.985681 410.694043 
L 376.404218 409.597513 
L 376.822754 365.176518 
L 377.241291 368.144419 
L 377.659828 430.196391 
L 378.078364 447.511732 
L 378.496901 400.767562 
L 378.915438 443.438789 
L 379.333974 473.511984 
L 379.752511 395.253286 
L 380.171047 447.669962 
L 380.589584 382.138431 
L 381.008121 404.378172 
L 381.426657 450.947658 
L 381.845194 460.757173 
L 382.263731 454.51076 
L 382.682267 397.25217 
L 383.519341 414.512898 
L 383.937877 383.20118 
L 384.356414 392.967809 
L 384.774951 390.226426 
L 385.193487 365.033262 
L 386.03056 532.61557 
L 386.449097 498.352066 
L 386.867634 477.547237 
L 387.28617 423.315537 
L 387.704707 435.763828 
L 388.123244 497.300803 
L 388.54178 532.551786 
L 389.378854 465.116222 
L 389.79739 392.634775 
L 390.215927 362.452554 
L 390.634463 394.671093 
L 391.053 406.202641 
L 391.471537 429.488334 
L 391.890073 420.637483 
L 392.30861 426.620185 
L 392.727147 313.722975 
L 393.145683 332.905925 
L 393.56422 435.571888 
L 393.982757 389.506653 
L 394.401293 440.395097 
L 394.81983 409.377031 
L 395.238367 369.591392 
L 396.493976 518.246871 
L 397.33105 387.832598 
L 397.749586 411.470053 
L 398.168123 539.347864 
L 398.58666 516.899215 
L 399.005196 512.069972 
L 399.423733 478.578339 
L 399.84227 434.89079 
L 400.260806 426.307633 
L 400.679343 479.115776 
L 401.097879 446.745156 
L 401.516416 505.909917 
L 401.934953 487.857362 
L 402.353489 344.219194 
L 402.772026 296.540502 
L 403.190563 279.985231 
L 403.609099 472.054144 
L 404.027636 365.796929 
L 404.446173 447.619182 
L 404.864709 505.459996 
L 405.283246 482.205646 
L 405.701783 467.060563 
L 406.120319 465.922098 
L 406.538856 518.009158 
L 406.957392 413.946905 
L 407.375929 469.388525 
L 407.794466 459.352753 
L 408.213002 422.507912 
L 408.631539 470.539577 
L 409.050076 441.267318 
L 409.468612 455.256142 
L 409.887149 406.517044 
L 410.305686 404.819875 
L 410.724222 306.181843 
L 411.142759 392.247462 
L 411.561295 385.642313 
L 411.979832 349.873714 
L 412.398369 433.634734 
L 412.816905 328.518954 
L 413.235442 397.319623 
L 413.653979 393.961008 
L 414.072515 405.558188 
L 414.491052 404.162607 
L 414.909589 434.662685 
L 415.328125 435.202081 
L 415.746662 446.635177 
L 416.583735 380.012371 
L 417.002272 412.437578 
L 417.420808 466.509277 
L 417.839345 415.721728 
L 418.257882 407.796784 
L 418.676418 405.872925 
L 419.094955 419.850026 
L 419.513492 463.682756 
L 419.932028 462.61844 
L 420.350565 376.570686 
L 420.769102 398.271578 
L 421.187638 403.102556 
L 421.606175 319.567934 
L 422.024711 355.959364 
L 422.443248 470.064939 
L 422.861785 460.423876 
L 423.280321 446.839171 
L 423.698858 452.512497 
L 424.117395 431.984287 
L 424.535931 445.598809 
L 424.954468 404.11046 
L 425.791541 500.317488 
L 426.210078 393.548761 
L 426.628614 331.243554 
L 427.047151 388.216461 
L 427.465688 393.347255 
L 427.884224 485.798056 
L 428.302761 498.549491 
L 428.721298 428.025271 
L 429.139834 430.128048 
L 429.558371 355.765467 
L 429.976908 323.785862 
L 430.395444 450.759303 
L 430.813981 374.497598 
L 431.232518 365.022146 
L 431.651054 417.584299 
L 432.069591 434.836686 
L 432.488127 420.532222 
L 432.906664 428.955533 
L 433.325201 428.441535 
L 433.743737 416.59638 
L 434.162274 252.888958 
L 434.580811 296.751111 
L 434.999347 422.378865 
L 435.417884 375.86776 
L 435.836421 364.261688 
L 436.254957 367.057661 
L 436.673494 462.297117 
L 437.510567 346.096719 
L 437.929104 451.722375 
L 438.34764 453.330508 
L 438.766177 428.444859 
L 439.184714 447.280601 
L 439.60325 508.984786 
L 440.021787 512.210942 
L 440.85886 458.801657 
L 441.277397 466.944185 
L 441.695934 493.062517 
L 442.11447 481.496653 
L 442.533007 413.238804 
L 442.951543 440.913639 
L 443.37008 335.072827 
L 443.788617 377.25546 
L 444.207153 433.631466 
L 444.62569 464.198637 
L 445.044227 442.327753 
L 445.462763 405.933535 
L 445.8813 436.90695 
L 446.718373 326.951416 
L 447.555446 299.615029 
L 447.973983 267.711594 
L 448.39252 255.709871 
L 448.811056 310.281665 
L 449.229593 303.442104 
L 449.64813 309.522961 
L 450.066666 367.184058 
L 450.485203 394.446822 
L 451.322276 428.052598 
L 451.740813 376.499435 
L 452.577886 382.963866 
L 453.414959 445.989049 
L 453.833496 467.180747 
L 454.252033 449.184459 
L 454.670569 487.619406 
L 455.089106 414.596879 
L 455.507643 459.834319 
L 455.926179 466.190936 
L 456.344716 480.732526 
L 456.763253 411.953283 
L 457.181789 399.729855 
L 457.600326 325.466074 
L 458.437399 358.244773 
L 458.855936 345.715106 
L 459.274472 361.04361 
L 459.693009 355.297441 
L 460.111546 371.01513 
L 460.530082 459.1353 
L 460.948619 476.558587 
L 461.367156 486.294808 
L 461.785692 434.465727 
L 462.204229 451.263256 
L 462.622766 397.062405 
L 463.459839 441.376626 
L 463.878375 398.546182 
L 464.296912 488.270637 
L 464.715449 498.100393 
L 465.133985 481.024373 
L 465.552522 503.318023 
L 465.971059 484.583263 
L 466.389595 406.743976 
L 467.226669 432.153904 
L 467.645205 547.586033 
L 468.063742 500.985263 
L 468.482278 483.772111 
L 468.900815 451.206399 
L 469.319352 505.974924 
L 469.737888 452.05863 
L 470.156425 457.862209 
L 470.574962 457.778556 
L 470.993498 472.725303 
L 471.412035 434.628876 
L 471.830572 328.883444 
L 472.249108 347.655026 
L 473.086182 441.229426 
L 473.504718 448.644867 
L 474.341791 493.790458 
L 474.760328 433.181432 
L 475.178865 393.820328 
L 475.597401 421.58262 
L 476.015938 323.501161 
L 476.434475 385.498895 
L 476.853011 349.530737 
L 477.690085 473.792381 
L 478.108621 454.59747 
L 478.527158 507.322658 
L 478.945694 461.1927 
L 479.364231 499.445519 
L 480.201304 479.045012 
L 480.619841 515.807465 
L 481.875451 361.103852 
L 482.293988 349.555993 
L 482.712524 410.722663 
L 483.549598 427.319308 
L 483.968134 441.079231 
L 484.386671 326.955222 
L 484.805207 357.637489 
L 485.223744 237.235233 
L 485.642281 203.246636 
L 486.479354 403.473028 
L 486.897891 466.020993 
L 487.316427 434.400466 
L 487.734964 393.720423 
L 488.153501 445.277403 
L 488.572037 523.720296 
L 488.990574 444.449669 
L 489.40911 421.617053 
L 489.827647 371.272317 
L 490.66472 499.530091 
L 491.083257 472.557933 
L 491.501794 408.754139 
L 492.338867 490.571544 
L 492.757404 475.721618 
L 493.17594 520.606955 
L 493.594477 511.37229 
L 494.013013 474.770537 
L 494.43155 473.581161 
L 494.850087 367.219496 
L 495.268623 401.040082 
L 495.68716 452.235398 
L 496.105697 421.487218 
L 496.524233 432.954966 
L 497.361307 411.589931 
L 497.779843 269.929899 
L 498.616917 493.734613 
L 499.035453 461.20759 
L 499.45399 448.031789 
L 499.872526 444.919762 
L 500.291063 382.682929 
L 500.7096 380.840727 
L 501.128136 431.382956 
L 501.546673 412.667298 
L 501.96521 386.233485 
L 502.383746 390.597875 
L 502.802283 452.235972 
L 503.22082 439.192246 
L 503.639356 327.653365 
L 504.057893 306.109835 
L 504.476429 296.750222 
L 505.732039 498.316643 
L 506.150576 524.266327 
L 506.569113 559.498384 
L 506.987649 508.492112 
L 507.406186 526.933116 
L 507.824723 368.23198 
L 508.243259 423.985789 
L 508.661796 346.460741 
L 509.080333 414.242534 
L 509.498869 388.09784 
L 510.335942 528.260156 
L 510.754479 467.293003 
L 511.591552 485.617804 
L 512.010089 460.432152 
L 512.428626 363.656162 
L 512.847162 370.720878 
L 513.684236 312.680782 
L 514.102772 378.255036 
L 514.521309 371.811815 
L 514.939845 318.299524 
L 515.358382 297.466003 
L 515.776919 397.043106 
L 516.195455 416.975138 
L 516.613992 398.889144 
L 517.032529 394.79168 
L 517.451065 434.193103 
L 517.869602 452.708833 
L 518.288139 317.358099 
L 518.706675 324.673554 
L 519.125212 338.898493 
L 519.543749 360.774145 
L 519.962285 403.234735 
L 520.380822 361.443362 
L 520.799358 418.71959 
L 521.217895 458.83506 
L 521.636432 300.242614 
L 522.054968 435.861573 
L 522.473505 389.535452 
L 522.892042 384.330044 
L 523.310578 364.842448 
L 523.729115 441.926546 
L 524.147652 453.817837 
L 524.984725 404.561516 
L 525.403261 394.325721 
L 525.821798 424.306451 
L 526.240335 493.287435 
L 526.658871 519.755134 
L 527.495945 491.13676 
L 527.914481 346.759614 
L 528.333018 408.008337 
L 528.751555 356.843547 
L 529.170091 439.600562 
L 529.588628 467.906878 
L 530.007165 410.517244 
L 530.425701 390.821156 
L 530.844238 383.310845 
L 531.262774 416.474476 
L 531.681311 480.569 
L 532.099848 494.334906 
L 532.518384 527.316164 
L 532.936921 487.872629 
L 533.355458 506.12012 
L 533.773994 511.374828 
L 534.192531 476.129677 
L 534.611068 402.22537 
L 535.029604 421.926083 
L 535.448141 379.929256 
L 535.866677 408.788282 
L 536.285214 381.493061 
L 536.703751 502.382957 
L 537.122287 495.679339 
L 537.540824 463.602106 
L 537.959361 408.768629 
L 538.796434 473.328627 
L 539.214971 430.612015 
L 539.633507 456.86742 
L 540.052044 392.666559 
L 540.470581 487.368677 
L 540.889117 464.563229 
L 541.307654 432.160379 
L 542.144727 514.047477 
L 542.563264 533.850304 
L 542.9818 456.159577 
L 543.400337 420.251507 
L 543.818874 407.290364 
L 544.23741 513.881729 
L 544.655947 423.312724 
L 545.074484 473.717224 
L 545.49302 497.962899 
L 545.911557 499.768015 
L 545.911557 499.768015 
" style="fill:none;stroke:#96c69a;stroke-linecap:round;stroke-width:3;"/>
   </g>
   <g id="line2d_2"/>
   <g id="patch_3">
    <path d="M 84.914375 602.94 
L 84.914375 109.326857 
" style="fill:none;stroke:#262626;stroke-linecap:square;stroke-linejoin:miter;stroke-width:2.5;"/>
   </g>
   <g id="patch_4">
    <path d="M 84.914375 602.94 
L 567.863804 602.94 
" style="fill:none;stroke:#262626;stroke-linecap:square;stroke-linejoin:miter;stroke-width:2.5;"/>
   </g>
   <g id="legend_1">
    <g id="patch_5">
     <path d="M 514.948179 597.94 
L 560.863804 597.94 
Q 562.863804 597.94 562.863804 595.94 
L 562.863804 554.034375 
Q 562.863804 552.034375 560.863804 552.034375 
L 514.948179 552.034375 
Q 512.948179 552.034375 512.948179 554.034375 
L 512.948179 595.94 
Q 512.948179 597.94 514.948179 597.94 
z
" style="fill:#ffffff;opacity:0.8;stroke:#cccccc;stroke-linejoin:miter;stroke-width:2;"/>
    </g>
    <g id="text_16">
     <!-- $n_\tau$ -->
     <g style="fill:#262626;" transform="translate(524.825991 574.270625)scale(0.24 -0.24)">
      <defs>
       <path d="M 3566 2113 
L 3156 0 
L 2578 0 
L 2988 2091 
Q 3016 2238 3031 2350 
Q 3047 2463 3047 2528 
Q 3047 2791 2881 2937 
Q 2716 3084 2419 3084 
Q 1956 3084 1622 2776 
Q 1288 2469 1184 1941 
L 800 0 
L 225 0 
L 903 3500 
L 1478 3500 
L 1363 2950 
Q 1603 3253 1940 3418 
Q 2278 3584 2650 3584 
Q 3113 3584 3367 3334 
Q 3622 3084 3622 2631 
Q 3622 2519 3608 2391 
Q 3594 2263 3566 2113 
z
" id="DejaVuSans-Oblique-6e" transform="scale(0.015625)"/>
       <path d="M 2103 638 
Q 2188 488 2525 488 
L 2800 488 
L 2706 0 
L 2363 0 
Q 1800 0 1600 300 
Q 1403 606 1534 1269 
L 1856 2925 
L 541 2925 
L 653 3500 
L 3881 3500 
L 3769 2925 
L 2444 2925 
L 2113 1234 
Q 2025 781 2103 638 
z
" id="DejaVuSans-Oblique-3c4" transform="scale(0.015625)"/>
      </defs>
      <use xlink:href="#DejaVuSans-Oblique-6e"/>
      <use transform="translate(63.378906 -16.40625)scale(0.7)" xlink:href="#DejaVuSans-Oblique-3c4"/>
     </g>
    </g>
    <g id="line2d_3">
     <path d="M 516.948179 588.360312 
L 536.948179 588.360312 
" style="fill:none;stroke:#96c69a;stroke-linecap:round;stroke-width:3;"/>
    </g>
    <g id="line2d_4"/>
    <g id="text_17">
     <!-- 50 -->
     <g style="fill:#262626;" transform="translate(544.948179 591.860312)scale(0.1 -0.1)">
      <defs>
       <path d="M 678 4666 
L 3669 4666 
L 3669 3781 
L 1638 3781 
L 1638 3059 
Q 1775 3097 1914 3117 
Q 2053 3138 2203 3138 
Q 3056 3138 3531 2711 
Q 4006 2284 4006 1522 
Q 4006 766 3489 337 
Q 2972 -91 2053 -91 
Q 1656 -91 1267 -14 
Q 878 63 494 219 
L 494 1166 
Q 875 947 1217 837 
Q 1559 728 1863 728 
Q 2300 728 2551 942 
Q 2803 1156 2803 1522 
Q 2803 1891 2551 2103 
Q 2300 2316 1863 2316 
Q 1603 2316 1309 2248 
Q 1016 2181 678 2041 
L 678 4666 
z
" id="DejaVuSans-Bold-35" transform="scale(0.015625)"/>
       <path d="M 2944 2338 
Q 2944 3213 2780 3570 
Q 2616 3928 2228 3928 
Q 1841 3928 1675 3570 
Q 1509 3213 1509 2338 
Q 1509 1453 1675 1090 
Q 1841 728 2228 728 
Q 2613 728 2778 1090 
Q 2944 1453 2944 2338 
z
M 4147 2328 
Q 4147 1169 3647 539 
Q 3147 -91 2228 -91 
Q 1306 -91 806 539 
Q 306 1169 306 2328 
Q 306 3491 806 4120 
Q 1306 4750 2228 4750 
Q 3147 4750 3647 4120 
Q 4147 3491 4147 2328 
z
" id="DejaVuSans-Bold-30" transform="scale(0.015625)"/>
      </defs>
      <use xlink:href="#DejaVuSans-Bold-35"/>
      <use x="69.580078" xlink:href="#DejaVuSans-Bold-30"/>
     </g>
    </g>
   </g>
  </g>
  <g id="axes_2">
   <g id="patch_6">
    <path d="M 84.914375 92.305714 
L 567.863804 92.305714 
L 567.863804 7.2 
L 84.914375 7.2 
z
" style="fill:none;"/>
   </g>
   <g id="matplotlib.axis_3">
    <g id="xtick_6"/>
    <g id="xtick_7"/>
    <g id="xtick_8"/>
    <g id="xtick_9"/>
    <g id="xtick_10"/>
   </g>
   <g id="matplotlib.axis_4">
    <g id="ytick_9">
     <g id="text_18">
      <!-- 0 -->
      <g style="fill:#262626;" transform="translate(55.416875 100.663996)scale(0.22 -0.22)">
       <use xlink:href="#DejaVuSans-30"/>
      </g>
     </g>
    </g>
    <g id="ytick_10">
     <g id="text_19">
      <!-- 50 -->
      <g style="fill:#262626;" transform="translate(41.419375 54.61112)scale(0.22 -0.22)">
       <defs>
        <path d="M 691 4666 
L 3169 4666 
L 3169 4134 
L 1269 4134 
L 1269 2991 
Q 1406 3038 1543 3061 
Q 1681 3084 1819 3084 
Q 2600 3084 3056 2656 
Q 3513 2228 3513 1497 
Q 3513 744 3044 326 
Q 2575 -91 1722 -91 
Q 1428 -91 1123 -41 
Q 819 9 494 109 
L 494 744 
Q 775 591 1075 516 
Q 1375 441 1709 441 
Q 2250 441 2565 725 
Q 2881 1009 2881 1497 
Q 2881 1984 2565 2268 
Q 2250 2553 1709 2553 
Q 1456 2553 1204 2497 
Q 953 2441 691 2322 
L 691 4666 
z
" id="DejaVuSans-35" transform="scale(0.015625)"/>
       </defs>
       <use xlink:href="#DejaVuSans-35"/>
       <use x="63.623047" xlink:href="#DejaVuSans-30"/>
      </g>
     </g>
    </g>
   </g>
   <g id="patch_7">
    <path clip-path="url(#p3652346c6d)" d="M 106.866622 92.305714 
L 143.4537 92.305714 
L 143.4537 11.252653 
L 106.866622 11.252653 
z
" style="fill:#96c69a;fill-opacity:0.5;stroke:#ffffff;stroke-linejoin:miter;stroke-width:2;"/>
   </g>
   <g id="patch_8">
    <path clip-path="url(#p3652346c6d)" d="M 143.4537 92.305714 
L 180.040778 92.305714 
L 180.040778 12.173711 
L 143.4537 12.173711 
z
" style="fill:#96c69a;fill-opacity:0.5;stroke:#ffffff;stroke-linejoin:miter;stroke-width:2;"/>
   </g>
   <g id="patch_9">
    <path clip-path="url(#p3652346c6d)" d="M 180.040778 92.305714 
L 216.627856 92.305714 
L 216.627856 11.252653 
L 180.040778 11.252653 
z
" style="fill:#96c69a;fill-opacity:0.5;stroke:#ffffff;stroke-linejoin:miter;stroke-width:2;"/>
   </g>
   <g id="patch_10">
    <path clip-path="url(#p3652346c6d)" d="M 216.627856 92.305714 
L 253.214933 92.305714 
L 253.214933 12.173711 
L 216.627856 12.173711 
z
" style="fill:#96c69a;fill-opacity:0.5;stroke:#ffffff;stroke-linejoin:miter;stroke-width:2;"/>
   </g>
   <g id="patch_11">
    <path clip-path="url(#p3652346c6d)" d="M 253.214933 92.305714 
L 289.802011 92.305714 
L 289.802011 11.252653 
L 253.214933 11.252653 
z
" style="fill:#96c69a;fill-opacity:0.5;stroke:#ffffff;stroke-linejoin:miter;stroke-width:2;"/>
   </g>
   <g id="patch_12">
    <path clip-path="url(#p3652346c6d)" d="M 289.802011 92.305714 
L 326.389089 92.305714 
L 326.389089 12.173711 
L 289.802011 12.173711 
z
" style="fill:#96c69a;fill-opacity:0.5;stroke:#ffffff;stroke-linejoin:miter;stroke-width:2;"/>
   </g>
   <g id="patch_13">
    <path clip-path="url(#p3652346c6d)" d="M 326.389089 92.305714 
L 362.976167 92.305714 
L 362.976167 12.173711 
L 326.389089 12.173711 
z
" style="fill:#96c69a;fill-opacity:0.5;stroke:#ffffff;stroke-linejoin:miter;stroke-width:2;"/>
   </g>
   <g id="patch_14">
    <path clip-path="url(#p3652346c6d)" d="M 362.976167 92.305714 
L 399.563245 92.305714 
L 399.563245 11.252653 
L 362.976167 11.252653 
z
" style="fill:#96c69a;fill-opacity:0.5;stroke:#ffffff;stroke-linejoin:miter;stroke-width:2;"/>
   </g>
   <g id="patch_15">
    <path clip-path="url(#p3652346c6d)" d="M 399.563245 92.305714 
L 436.150323 92.305714 
L 436.150323 12.173711 
L 399.563245 12.173711 
z
" style="fill:#96c69a;fill-opacity:0.5;stroke:#ffffff;stroke-linejoin:miter;stroke-width:2;"/>
   </g>
   <g id="patch_16">
    <path clip-path="url(#p3652346c6d)" d="M 436.150323 92.305714 
L 472.737401 92.305714 
L 472.737401 11.252653 
L 436.150323 11.252653 
z
" style="fill:#96c69a;fill-opacity:0.5;stroke:#ffffff;stroke-linejoin:miter;stroke-width:2;"/>
   </g>
   <g id="patch_17">
    <path clip-path="url(#p3652346c6d)" d="M 472.737401 92.305714 
L 509.324479 92.305714 
L 509.324479 12.173711 
L 472.737401 12.173711 
z
" style="fill:#96c69a;fill-opacity:0.5;stroke:#ffffff;stroke-linejoin:miter;stroke-width:2;"/>
   </g>
   <g id="patch_18">
    <path clip-path="url(#p3652346c6d)" d="M 509.324479 92.305714 
L 545.911557 92.305714 
L 545.911557 11.252653 
L 509.324479 11.252653 
z
" style="fill:#96c69a;fill-opacity:0.5;stroke:#ffffff;stroke-linejoin:miter;stroke-width:2;"/>
   </g>
   <g id="patch_19">
    <path d="M 84.914375 92.305714 
L 84.914375 7.2 
" style="fill:none;stroke:#262626;stroke-linecap:square;stroke-linejoin:miter;stroke-width:2.5;"/>
   </g>
   <g id="patch_20">
    <path d="M 84.914375 92.305714 
L 567.863804 92.305714 
" style="fill:none;stroke:#262626;stroke-linecap:square;stroke-linejoin:miter;stroke-width:2.5;"/>
   </g>
  </g>
  <g id="axes_3">
   <g id="patch_21">
    <path d="M 584.517232 602.94 
L 667.784375 602.94 
L 667.784375 109.326857 
L 584.517232 109.326857 
z
" style="fill:none;"/>
   </g>
   <g id="matplotlib.axis_5">
    <g id="xtick_11">
     <g id="text_20">
      <!-- 0 -->
      <g style="fill:#262626;" transform="translate(577.518482 635.156562)scale(0.22 -0.22)">
       <use xlink:href="#DejaVuSans-30"/>
      </g>
     </g>
    </g>
    <g id="xtick_12">
     <g id="text_21">
      <!-- 100 -->
      <g style="fill:#262626;" transform="translate(635.613747 635.156562)scale(0.22 -0.22)">
       <use xlink:href="#DejaVuSans-31"/>
       <use x="63.623047" xlink:href="#DejaVuSans-30"/>
       <use x="127.246094" xlink:href="#DejaVuSans-30"/>
      </g>
     </g>
    </g>
   </g>
   <g id="matplotlib.axis_6">
    <g id="ytick_11"/>
    <g id="ytick_12"/>
    <g id="ytick_13"/>
    <g id="ytick_14"/>
    <g id="ytick_15"/>
    <g id="ytick_16"/>
    <g id="ytick_17"/>
    <g id="ytick_18"/>
   </g>
   <g id="patch_22">
    <path clip-path="url(#p5a32fcdd70)" d="M 584.517232 580.503039 
L 586.680015 580.503039 
L 586.680015 565.545065 
L 584.517232 565.545065 
z
" style="fill:#96c69a;fill-opacity:0.5;stroke:#ffffff;stroke-linejoin:miter;stroke-width:1.495797;"/>
   </g>
   <g id="patch_23">
    <path clip-path="url(#p5a32fcdd70)" d="M 584.517232 565.545065 
L 587.400943 565.545065 
L 587.400943 550.587091 
L 584.517232 550.587091 
z
" style="fill:#96c69a;fill-opacity:0.5;stroke:#ffffff;stroke-linejoin:miter;stroke-width:1.495797;"/>
   </g>
   <g id="patch_24">
    <path clip-path="url(#p5a32fcdd70)" d="M 584.517232 550.587091 
L 591.005581 550.587091 
L 591.005581 535.629117 
L 584.517232 535.629117 
z
" style="fill:#96c69a;fill-opacity:0.5;stroke:#ffffff;stroke-linejoin:miter;stroke-width:1.495797;"/>
   </g>
   <g id="patch_25">
    <path clip-path="url(#p5a32fcdd70)" d="M 584.517232 535.629117 
L 609.028772 535.629117 
L 609.028772 520.671143 
L 584.517232 520.671143 
z
" style="fill:#96c69a;fill-opacity:0.5;stroke:#ffffff;stroke-linejoin:miter;stroke-width:1.495797;"/>
   </g>
   <g id="patch_26">
    <path clip-path="url(#p5a32fcdd70)" d="M 584.517232 520.671143 
L 611.912483 520.671143 
L 611.912483 505.713169 
L 584.517232 505.713169 
z
" style="fill:#96c69a;fill-opacity:0.5;stroke:#ffffff;stroke-linejoin:miter;stroke-width:1.495797;"/>
   </g>
   <g id="patch_27">
    <path clip-path="url(#p5a32fcdd70)" d="M 584.517232 505.713169 
L 624.168253 505.713169 
L 624.168253 490.755195 
L 584.517232 490.755195 
z
" style="fill:#96c69a;fill-opacity:0.5;stroke:#ffffff;stroke-linejoin:miter;stroke-width:1.495797;"/>
   </g>
   <g id="patch_28">
    <path clip-path="url(#p5a32fcdd70)" d="M 584.517232 490.755195 
L 645.796082 490.755195 
L 645.796082 475.797221 
L 584.517232 475.797221 
z
" style="fill:#96c69a;fill-opacity:0.5;stroke:#ffffff;stroke-linejoin:miter;stroke-width:1.495797;"/>
   </g>
   <g id="patch_29">
    <path clip-path="url(#p5a32fcdd70)" d="M 584.517232 475.797221 
L 653.726286 475.797221 
L 653.726286 460.839247 
L 584.517232 460.839247 
z
" style="fill:#96c69a;fill-opacity:0.5;stroke:#ffffff;stroke-linejoin:miter;stroke-width:1.495797;"/>
   </g>
   <g id="patch_30">
    <path clip-path="url(#p5a32fcdd70)" d="M 584.517232 460.839247 
L 663.098345 460.839247 
L 663.098345 445.881273 
L 584.517232 445.881273 
z
" style="fill:#96c69a;fill-opacity:0.5;stroke:#ffffff;stroke-linejoin:miter;stroke-width:1.495797;"/>
   </g>
   <g id="patch_31">
    <path clip-path="url(#p5a32fcdd70)" d="M 584.517232 445.881273 
L 663.819273 445.881273 
L 663.819273 430.923299 
L 584.517232 430.923299 
z
" style="fill:#96c69a;fill-opacity:0.5;stroke:#ffffff;stroke-linejoin:miter;stroke-width:1.495797;"/>
   </g>
   <g id="patch_32">
    <path clip-path="url(#p5a32fcdd70)" d="M 584.517232 430.923299 
L 662.377418 430.923299 
L 662.377418 415.965325 
L 584.517232 415.965325 
z
" style="fill:#96c69a;fill-opacity:0.5;stroke:#ffffff;stroke-linejoin:miter;stroke-width:1.495797;"/>
   </g>
   <g id="patch_33">
    <path clip-path="url(#p5a32fcdd70)" d="M 584.517232 415.965325 
L 653.726286 415.965325 
L 653.726286 401.007351 
L 584.517232 401.007351 
z
" style="fill:#96c69a;fill-opacity:0.5;stroke:#ffffff;stroke-linejoin:miter;stroke-width:1.495797;"/>
   </g>
   <g id="patch_34">
    <path clip-path="url(#p5a32fcdd70)" d="M 584.517232 401.007351 
L 636.424022 401.007351 
L 636.424022 386.049377 
L 584.517232 386.049377 
z
" style="fill:#96c69a;fill-opacity:0.5;stroke:#ffffff;stroke-linejoin:miter;stroke-width:1.495797;"/>
   </g>
   <g id="patch_35">
    <path clip-path="url(#p5a32fcdd70)" d="M 584.517232 386.049377 
L 620.563614 386.049377 
L 620.563614 371.091403 
L 584.517232 371.091403 
z
" style="fill:#96c69a;fill-opacity:0.5;stroke:#ffffff;stroke-linejoin:miter;stroke-width:1.495797;"/>
   </g>
   <g id="patch_36">
    <path clip-path="url(#p5a32fcdd70)" d="M 584.517232 371.091403 
L 624.88918 371.091403 
L 624.88918 356.133429 
L 584.517232 356.133429 
z
" style="fill:#96c69a;fill-opacity:0.5;stroke:#ffffff;stroke-linejoin:miter;stroke-width:1.495797;"/>
   </g>
   <g id="patch_37">
    <path clip-path="url(#p5a32fcdd70)" d="M 584.517232 356.133429 
L 609.7497 356.133429 
L 609.7497 341.175455 
L 584.517232 341.175455 
z
" style="fill:#96c69a;fill-opacity:0.5;stroke:#ffffff;stroke-linejoin:miter;stroke-width:1.495797;"/>
   </g>
   <g id="patch_38">
    <path clip-path="url(#p5a32fcdd70)" d="M 584.517232 341.175455 
L 600.37764 341.175455 
L 600.37764 326.217481 
L 584.517232 326.217481 
z
" style="fill:#96c69a;fill-opacity:0.5;stroke:#ffffff;stroke-linejoin:miter;stroke-width:1.495797;"/>
   </g>
   <g id="patch_39">
    <path clip-path="url(#p5a32fcdd70)" d="M 584.517232 326.217481 
L 597.49393 326.217481 
L 597.49393 311.259506 
L 584.517232 311.259506 
z
" style="fill:#96c69a;fill-opacity:0.5;stroke:#ffffff;stroke-linejoin:miter;stroke-width:1.495797;"/>
   </g>
   <g id="patch_40">
    <path clip-path="url(#p5a32fcdd70)" d="M 584.517232 311.259506 
L 601.819496 311.259506 
L 601.819496 296.301532 
L 584.517232 296.301532 
z
" style="fill:#96c69a;fill-opacity:0.5;stroke:#ffffff;stroke-linejoin:miter;stroke-width:1.495797;"/>
   </g>
   <g id="patch_41">
    <path clip-path="url(#p5a32fcdd70)" d="M 584.517232 296.301532 
L 589.563726 296.301532 
L 589.563726 281.343558 
L 584.517232 281.343558 
z
" style="fill:#96c69a;fill-opacity:0.5;stroke:#ffffff;stroke-linejoin:miter;stroke-width:1.495797;"/>
   </g>
   <g id="patch_42">
    <path clip-path="url(#p5a32fcdd70)" d="M 584.517232 281.343558 
L 589.563726 281.343558 
L 589.563726 266.385584 
L 584.517232 266.385584 
z
" style="fill:#96c69a;fill-opacity:0.5;stroke:#ffffff;stroke-linejoin:miter;stroke-width:1.495797;"/>
   </g>
   <g id="patch_43">
    <path clip-path="url(#p5a32fcdd70)" d="M 584.517232 266.385584 
L 588.12187 266.385584 
L 588.12187 251.42761 
L 584.517232 251.42761 
z
" style="fill:#96c69a;fill-opacity:0.5;stroke:#ffffff;stroke-linejoin:miter;stroke-width:1.495797;"/>
   </g>
   <g id="patch_44">
    <path clip-path="url(#p5a32fcdd70)" d="M 584.517232 251.42761 
L 587.400943 251.42761 
L 587.400943 236.469636 
L 584.517232 236.469636 
z
" style="fill:#96c69a;fill-opacity:0.5;stroke:#ffffff;stroke-linejoin:miter;stroke-width:1.495797;"/>
   </g>
   <g id="patch_45">
    <path clip-path="url(#p5a32fcdd70)" d="M 584.517232 236.469636 
L 585.23816 236.469636 
L 585.23816 221.511662 
L 584.517232 221.511662 
z
" style="fill:#96c69a;fill-opacity:0.5;stroke:#ffffff;stroke-linejoin:miter;stroke-width:1.495797;"/>
   </g>
   <g id="patch_46">
    <path clip-path="url(#p5a32fcdd70)" d="M 584.517232 221.511662 
L 584.517232 221.511662 
L 584.517232 206.553688 
L 584.517232 206.553688 
z
" style="fill:#96c69a;fill-opacity:0.5;stroke:#ffffff;stroke-linejoin:miter;stroke-width:1.495797;"/>
   </g>
   <g id="patch_47">
    <path clip-path="url(#p5a32fcdd70)" d="M 584.517232 206.553688 
L 585.23816 206.553688 
L 585.23816 191.595714 
L 584.517232 191.595714 
z
" style="fill:#96c69a;fill-opacity:0.5;stroke:#ffffff;stroke-linejoin:miter;stroke-width:1.495797;"/>
   </g>
   <g id="patch_48">
    <path clip-path="url(#p5a32fcdd70)" d="M 584.517232 191.595714 
L 584.517232 191.595714 
L 584.517232 176.63774 
L 584.517232 176.63774 
z
" style="fill:#96c69a;fill-opacity:0.5;stroke:#ffffff;stroke-linejoin:miter;stroke-width:1.495797;"/>
   </g>
   <g id="patch_49">
    <path clip-path="url(#p5a32fcdd70)" d="M 584.517232 176.63774 
L 584.517232 176.63774 
L 584.517232 161.679766 
L 584.517232 161.679766 
z
" style="fill:#96c69a;fill-opacity:0.5;stroke:#ffffff;stroke-linejoin:miter;stroke-width:1.495797;"/>
   </g>
   <g id="patch_50">
    <path clip-path="url(#p5a32fcdd70)" d="M 584.517232 161.679766 
L 584.517232 161.679766 
L 584.517232 146.721792 
L 584.517232 146.721792 
z
" style="fill:#96c69a;fill-opacity:0.5;stroke:#ffffff;stroke-linejoin:miter;stroke-width:1.495797;"/>
   </g>
   <g id="patch_51">
    <path clip-path="url(#p5a32fcdd70)" d="M 584.517232 146.721792 
L 585.23816 146.721792 
L 585.23816 131.763818 
L 584.517232 131.763818 
z
" style="fill:#96c69a;fill-opacity:0.5;stroke:#ffffff;stroke-linejoin:miter;stroke-width:1.495797;"/>
   </g>
   <g id="patch_52">
    <path d="M 584.517232 602.94 
L 584.517232 109.326857 
" style="fill:none;stroke:#262626;stroke-linecap:square;stroke-linejoin:miter;stroke-width:2.5;"/>
   </g>
   <g id="patch_53">
    <path d="M 584.517232 602.94 
L 667.784375 602.94 
" style="fill:none;stroke:#262626;stroke-linecap:square;stroke-linejoin:miter;stroke-width:2.5;"/>
   </g>
  </g>
 </g>
 <defs>
  <clipPath id="pde8bbb6642">
   <rect height="493.613143" width="482.949429" x="84.914375" y="109.326857"/>
  </clipPath>
  <clipPath id="p3652346c6d">
   <rect height="85.105714" width="482.949429" x="84.914375" y="7.2"/>
  </clipPath>
  <clipPath id="p5a32fcdd70">
   <rect height="493.613143" width="83.267143" x="584.517232" y="109.326857"/>
  </clipPath>
 </defs>
</svg>
