<?xml version="1.0" encoding="utf-8" standalone="no"?>
<!DOCTYPE svg PUBLIC "-//W3C//DTD SVG 1.1//EN"
  "http://www.w3.org/Graphics/SVG/1.1/DTD/svg11.dtd">
<svg height="674.159375pt" version="1.1" viewBox="0 0 674.984375 674.159375" width="674.984375pt" xmlns="http://www.w3.org/2000/svg" xmlns:xlink="http://www.w3.org/1999/xlink">
 <metadata>
  <rdf:RDF xmlns:cc="http://creativecommons.org/ns#" xmlns:dc="http://purl.org/dc/elements/1.1/" xmlns:rdf="http://www.w3.org/1999/02/22-rdf-syntax-ns#">
   <cc:Work>
    <dc:type rdf:resource="http://purl.org/dc/dcmitype/StillImage"/>
    <dc:date>2021-07-24T14:57:08.913425</dc:date>
    <dc:format>image/svg+xml</dc:format>
    <dc:creator>
     <cc:Agent>
      <dc:title>Matplotlib v3.4.2, https://matplotlib.org/</dc:title>
     </cc:Agent>
    </dc:creator>
   </cc:Work>
  </rdf:RDF>
 </metadata>
 <defs>
  <style type="text/css">*{stroke-linecap:butt;stroke-linejoin:round;}</style>
 </defs>
 <g id="figure_1">
  <g id="patch_1">
   <path d="M 0 674.159375 
L 674.984375 674.159375 
L 674.984375 0 
L 0 0 
z
" style="fill:#ffffff;"/>
  </g>
  <g id="axes_1">
   <g id="patch_2">
    <path d="M 84.914375 602.94 
L 567.863804 602.94 
L 567.863804 109.326857 
L 84.914375 109.326857 
z
" style="fill:none;"/>
   </g>
   <g id="matplotlib.axis_1">
    <g id="xtick_1">
     <g id="text_1">
      <!-- 0 -->
      <g style="fill:#262626;" transform="translate(99.648239 635.156562)scale(0.22 -0.22)">
       <defs>
        <path d="M 2034 4250 
Q 1547 4250 1301 3770 
Q 1056 3291 1056 2328 
Q 1056 1369 1301 889 
Q 1547 409 2034 409 
Q 2525 409 2770 889 
Q 3016 1369 3016 2328 
Q 3016 3291 2770 3770 
Q 2525 4250 2034 4250 
z
M 2034 4750 
Q 2819 4750 3233 4129 
Q 3647 3509 3647 2328 
Q 3647 1150 3233 529 
Q 2819 -91 2034 -91 
Q 1250 -91 836 529 
Q 422 1150 422 2328 
Q 422 3509 836 4129 
Q 1250 4750 2034 4750 
z
" id="DejaVuSans-30" transform="scale(0.015625)"/>
       </defs>
       <use xlink:href="#DejaVuSans-30"/>
      </g>
     </g>
    </g>
    <g id="xtick_2">
     <g id="text_2">
      <!-- 20000 -->
      <g style="fill:#262626;" transform="translate(159.506153 635.156562)scale(0.22 -0.22)">
       <defs>
        <path d="M 1228 531 
L 3431 531 
L 3431 0 
L 469 0 
L 469 531 
Q 828 903 1448 1529 
Q 2069 2156 2228 2338 
Q 2531 2678 2651 2914 
Q 2772 3150 2772 3378 
Q 2772 3750 2511 3984 
Q 2250 4219 1831 4219 
Q 1534 4219 1204 4116 
Q 875 4013 500 3803 
L 500 4441 
Q 881 4594 1212 4672 
Q 1544 4750 1819 4750 
Q 2544 4750 2975 4387 
Q 3406 4025 3406 3419 
Q 3406 3131 3298 2873 
Q 3191 2616 2906 2266 
Q 2828 2175 2409 1742 
Q 1991 1309 1228 531 
z
" id="DejaVuSans-32" transform="scale(0.015625)"/>
       </defs>
       <use xlink:href="#DejaVuSans-32"/>
       <use x="63.623047" xlink:href="#DejaVuSans-30"/>
       <use x="127.246094" xlink:href="#DejaVuSans-30"/>
       <use x="190.869141" xlink:href="#DejaVuSans-30"/>
       <use x="254.492188" xlink:href="#DejaVuSans-30"/>
      </g>
     </g>
    </g>
    <g id="xtick_3">
     <g id="text_3">
      <!-- 40000 -->
      <g style="fill:#262626;" transform="translate(247.359066 635.156562)scale(0.22 -0.22)">
       <defs>
        <path d="M 2419 4116 
L 825 1625 
L 2419 1625 
L 2419 4116 
z
M 2253 4666 
L 3047 4666 
L 3047 1625 
L 3713 1625 
L 3713 1100 
L 3047 1100 
L 3047 0 
L 2419 0 
L 2419 1100 
L 313 1100 
L 313 1709 
L 2253 4666 
z
" id="DejaVuSans-34" transform="scale(0.015625)"/>
       </defs>
       <use xlink:href="#DejaVuSans-34"/>
       <use x="63.623047" xlink:href="#DejaVuSans-30"/>
       <use x="127.246094" xlink:href="#DejaVuSans-30"/>
       <use x="190.869141" xlink:href="#DejaVuSans-30"/>
       <use x="254.492188" xlink:href="#DejaVuSans-30"/>
      </g>
     </g>
    </g>
    <g id="xtick_4">
     <g id="text_4">
      <!-- 60000 -->
      <g style="fill:#262626;" transform="translate(335.21198 635.156562)scale(0.22 -0.22)">
       <defs>
        <path d="M 2113 2584 
Q 1688 2584 1439 2293 
Q 1191 2003 1191 1497 
Q 1191 994 1439 701 
Q 1688 409 2113 409 
Q 2538 409 2786 701 
Q 3034 994 3034 1497 
Q 3034 2003 2786 2293 
Q 2538 2584 2113 2584 
z
M 3366 4563 
L 3366 3988 
Q 3128 4100 2886 4159 
Q 2644 4219 2406 4219 
Q 1781 4219 1451 3797 
Q 1122 3375 1075 2522 
Q 1259 2794 1537 2939 
Q 1816 3084 2150 3084 
Q 2853 3084 3261 2657 
Q 3669 2231 3669 1497 
Q 3669 778 3244 343 
Q 2819 -91 2113 -91 
Q 1303 -91 875 529 
Q 447 1150 447 2328 
Q 447 3434 972 4092 
Q 1497 4750 2381 4750 
Q 2619 4750 2861 4703 
Q 3103 4656 3366 4563 
z
" id="DejaVuSans-36" transform="scale(0.015625)"/>
       </defs>
       <use xlink:href="#DejaVuSans-36"/>
       <use x="63.623047" xlink:href="#DejaVuSans-30"/>
       <use x="127.246094" xlink:href="#DejaVuSans-30"/>
       <use x="190.869141" xlink:href="#DejaVuSans-30"/>
       <use x="254.492188" xlink:href="#DejaVuSans-30"/>
      </g>
     </g>
    </g>
    <g id="xtick_5">
     <g id="text_5">
      <!-- 80000 -->
      <g style="fill:#262626;" transform="translate(423.064893 635.156562)scale(0.22 -0.22)">
       <defs>
        <path d="M 2034 2216 
Q 1584 2216 1326 1975 
Q 1069 1734 1069 1313 
Q 1069 891 1326 650 
Q 1584 409 2034 409 
Q 2484 409 2743 651 
Q 3003 894 3003 1313 
Q 3003 1734 2745 1975 
Q 2488 2216 2034 2216 
z
M 1403 2484 
Q 997 2584 770 2862 
Q 544 3141 544 3541 
Q 544 4100 942 4425 
Q 1341 4750 2034 4750 
Q 2731 4750 3128 4425 
Q 3525 4100 3525 3541 
Q 3525 3141 3298 2862 
Q 3072 2584 2669 2484 
Q 3125 2378 3379 2068 
Q 3634 1759 3634 1313 
Q 3634 634 3220 271 
Q 2806 -91 2034 -91 
Q 1263 -91 848 271 
Q 434 634 434 1313 
Q 434 1759 690 2068 
Q 947 2378 1403 2484 
z
M 1172 3481 
Q 1172 3119 1398 2916 
Q 1625 2713 2034 2713 
Q 2441 2713 2670 2916 
Q 2900 3119 2900 3481 
Q 2900 3844 2670 4047 
Q 2441 4250 2034 4250 
Q 1625 4250 1398 4047 
Q 1172 3844 1172 3481 
z
" id="DejaVuSans-38" transform="scale(0.015625)"/>
       </defs>
       <use xlink:href="#DejaVuSans-38"/>
       <use x="63.623047" xlink:href="#DejaVuSans-30"/>
       <use x="127.246094" xlink:href="#DejaVuSans-30"/>
       <use x="190.869141" xlink:href="#DejaVuSans-30"/>
       <use x="254.492188" xlink:href="#DejaVuSans-30"/>
      </g>
     </g>
    </g>
    <g id="xtick_6">
     <g id="text_6">
      <!-- 100000 -->
      <g style="fill:#262626;" transform="translate(503.919057 635.156562)scale(0.22 -0.22)">
       <defs>
        <path d="M 794 531 
L 1825 531 
L 1825 4091 
L 703 3866 
L 703 4441 
L 1819 4666 
L 2450 4666 
L 2450 531 
L 3481 531 
L 3481 0 
L 794 0 
L 794 531 
z
" id="DejaVuSans-31" transform="scale(0.015625)"/>
       </defs>
       <use xlink:href="#DejaVuSans-31"/>
       <use x="63.623047" xlink:href="#DejaVuSans-30"/>
       <use x="127.246094" xlink:href="#DejaVuSans-30"/>
       <use x="190.869141" xlink:href="#DejaVuSans-30"/>
       <use x="254.492188" xlink:href="#DejaVuSans-30"/>
       <use x="318.115234" xlink:href="#DejaVuSans-30"/>
      </g>
     </g>
    </g>
    <g id="text_7">
     <!-- MDTU -->
     <g style="fill:#262626;" transform="translate(290.683464 661.968125)scale(0.24 -0.24)">
      <defs>
       <path d="M 628 4666 
L 1569 4666 
L 2759 1491 
L 3956 4666 
L 4897 4666 
L 4897 0 
L 4281 0 
L 4281 4097 
L 3078 897 
L 2444 897 
L 1241 4097 
L 1241 0 
L 628 0 
L 628 4666 
z
" id="DejaVuSans-4d" transform="scale(0.015625)"/>
       <path d="M 1259 4147 
L 1259 519 
L 2022 519 
Q 2988 519 3436 956 
Q 3884 1394 3884 2338 
Q 3884 3275 3436 3711 
Q 2988 4147 2022 4147 
L 1259 4147 
z
M 628 4666 
L 1925 4666 
Q 3281 4666 3915 4102 
Q 4550 3538 4550 2338 
Q 4550 1131 3912 565 
Q 3275 0 1925 0 
L 628 0 
L 628 4666 
z
" id="DejaVuSans-44" transform="scale(0.015625)"/>
       <path d="M -19 4666 
L 3928 4666 
L 3928 4134 
L 2272 4134 
L 2272 0 
L 1638 0 
L 1638 4134 
L -19 4134 
L -19 4666 
z
" id="DejaVuSans-54" transform="scale(0.015625)"/>
       <path d="M 556 4666 
L 1191 4666 
L 1191 1831 
Q 1191 1081 1462 751 
Q 1734 422 2344 422 
Q 2950 422 3222 751 
Q 3494 1081 3494 1831 
L 3494 4666 
L 4128 4666 
L 4128 1753 
Q 4128 841 3676 375 
Q 3225 -91 2344 -91 
Q 1459 -91 1007 375 
Q 556 841 556 1753 
L 556 4666 
z
" id="DejaVuSans-55" transform="scale(0.015625)"/>
      </defs>
      <use xlink:href="#DejaVuSans-4d"/>
      <use x="86.279297" xlink:href="#DejaVuSans-44"/>
      <use x="163.28125" xlink:href="#DejaVuSans-54"/>
      <use x="224.365234" xlink:href="#DejaVuSans-55"/>
     </g>
    </g>
   </g>
   <g id="matplotlib.axis_2">
    <g id="ytick_1">
     <g id="text_8">
      <!-- 0.5 -->
      <g style="fill:#262626;" transform="translate(34.4275 531.605115)scale(0.22 -0.22)">
       <defs>
        <path d="M 684 794 
L 1344 794 
L 1344 0 
L 684 0 
L 684 794 
z
" id="DejaVuSans-2e" transform="scale(0.015625)"/>
        <path d="M 691 4666 
L 3169 4666 
L 3169 4134 
L 1269 4134 
L 1269 2991 
Q 1406 3038 1543 3061 
Q 1681 3084 1819 3084 
Q 2600 3084 3056 2656 
Q 3513 2228 3513 1497 
Q 3513 744 3044 326 
Q 2575 -91 1722 -91 
Q 1428 -91 1123 -41 
Q 819 9 494 109 
L 494 744 
Q 775 591 1075 516 
Q 1375 441 1709 441 
Q 2250 441 2565 725 
Q 2881 1009 2881 1497 
Q 2881 1984 2565 2268 
Q 2250 2553 1709 2553 
Q 1456 2553 1204 2497 
Q 953 2441 691 2322 
L 691 4666 
z
" id="DejaVuSans-35" transform="scale(0.015625)"/>
       </defs>
       <use xlink:href="#DejaVuSans-30"/>
       <use x="63.623047" xlink:href="#DejaVuSans-2e"/>
       <use x="95.410156" xlink:href="#DejaVuSans-35"/>
      </g>
     </g>
    </g>
    <g id="ytick_2">
     <g id="text_9">
      <!-- 0.6 -->
      <g style="fill:#262626;" transform="translate(34.4275 445.985178)scale(0.22 -0.22)">
       <use xlink:href="#DejaVuSans-30"/>
       <use x="63.623047" xlink:href="#DejaVuSans-2e"/>
       <use x="95.410156" xlink:href="#DejaVuSans-36"/>
      </g>
     </g>
    </g>
    <g id="ytick_3">
     <g id="text_10">
      <!-- 0.7 -->
      <g style="fill:#262626;" transform="translate(34.4275 360.365241)scale(0.22 -0.22)">
       <defs>
        <path d="M 525 4666 
L 3525 4666 
L 3525 4397 
L 1831 0 
L 1172 0 
L 2766 4134 
L 525 4134 
L 525 4666 
z
" id="DejaVuSans-37" transform="scale(0.015625)"/>
       </defs>
       <use xlink:href="#DejaVuSans-30"/>
       <use x="63.623047" xlink:href="#DejaVuSans-2e"/>
       <use x="95.410156" xlink:href="#DejaVuSans-37"/>
      </g>
     </g>
    </g>
    <g id="ytick_4">
     <g id="text_11">
      <!-- 0.8 -->
      <g style="fill:#262626;" transform="translate(34.4275 274.745304)scale(0.22 -0.22)">
       <use xlink:href="#DejaVuSans-30"/>
       <use x="63.623047" xlink:href="#DejaVuSans-2e"/>
       <use x="95.410156" xlink:href="#DejaVuSans-38"/>
      </g>
     </g>
    </g>
    <g id="ytick_5">
     <g id="text_12">
      <!-- 0.9 -->
      <g style="fill:#262626;" transform="translate(34.4275 189.125367)scale(0.22 -0.22)">
       <defs>
        <path d="M 703 97 
L 703 672 
Q 941 559 1184 500 
Q 1428 441 1663 441 
Q 2288 441 2617 861 
Q 2947 1281 2994 2138 
Q 2813 1869 2534 1725 
Q 2256 1581 1919 1581 
Q 1219 1581 811 2004 
Q 403 2428 403 3163 
Q 403 3881 828 4315 
Q 1253 4750 1959 4750 
Q 2769 4750 3195 4129 
Q 3622 3509 3622 2328 
Q 3622 1225 3098 567 
Q 2575 -91 1691 -91 
Q 1453 -91 1209 -44 
Q 966 3 703 97 
z
M 1959 2075 
Q 2384 2075 2632 2365 
Q 2881 2656 2881 3163 
Q 2881 3666 2632 3958 
Q 2384 4250 1959 4250 
Q 1534 4250 1286 3958 
Q 1038 3666 1038 3163 
Q 1038 2656 1286 2365 
Q 1534 2075 1959 2075 
z
" id="DejaVuSans-39" transform="scale(0.015625)"/>
       </defs>
       <use xlink:href="#DejaVuSans-30"/>
       <use x="63.623047" xlink:href="#DejaVuSans-2e"/>
       <use x="95.410156" xlink:href="#DejaVuSans-39"/>
      </g>
     </g>
    </g>
    <g id="text_13">
     <!-- $E$ -->
     <g style="fill:#262626;" transform="translate(25.43625 363.813429)rotate(-90)scale(0.24 -0.24)">
      <defs>
       <path d="M 1081 4666 
L 4031 4666 
L 3928 4134 
L 1606 4134 
L 1338 2753 
L 3566 2753 
L 3463 2222 
L 1234 2222 
L 909 531 
L 3284 531 
L 3181 0 
L 172 0 
L 1081 4666 
z
" id="DejaVuSans-Oblique-45" transform="scale(0.015625)"/>
      </defs>
      <use transform="translate(0 0.09375)" xlink:href="#DejaVuSans-Oblique-45"/>
     </g>
    </g>
   </g>
   <g id="line2d_1">
    <path clip-path="url(#pbb96491a4a)" d="M 106.866622 431.820777 
L 107.086254 443.712881 
L 107.305886 482.092105 
L 107.525519 310.376891 
L 107.964783 412.149816 
L 108.184415 369.337583 
L 108.404048 408.620762 
L 108.62368 400.528644 
L 108.843312 369.943685 
L 109.282577 383.017476 
L 109.502209 500.358042 
L 109.721841 298.416779 
L 109.941474 446.01852 
L 110.161106 484.694263 
L 110.380738 376.585962 
L 110.820003 399.725484 
L 111.039635 439.592762 
L 111.259267 345.103233 
L 111.4789 339.735832 
L 111.698532 329.30128 
L 111.918164 363.523037 
L 112.137797 177.015433 
L 112.357429 436.331918 
L 112.577061 477.631504 
L 112.796693 477.76236 
L 113.016326 415.854976 
L 113.235958 408.241533 
L 113.45559 410.26813 
L 113.675223 463.635631 
L 113.894855 379.478432 
L 114.114487 426.265606 
L 114.334119 427.399309 
L 114.553752 454.58106 
L 114.993016 369.625342 
L 115.212649 453.58353 
L 115.432281 494.696157 
L 115.651913 375.511341 
L 115.871545 425.518459 
L 116.091178 331.10401 
L 116.31081 332.217811 
L 116.530442 322.442369 
L 116.969707 349.334444 
L 117.189339 519.464692 
L 117.408971 303.899121 
L 117.628604 340.803085 
L 117.848236 468.415826 
L 118.287501 290.656216 
L 118.507133 359.31556 
L 118.726765 389.48107 
L 118.946397 288.875124 
L 119.16603 424.694125 
L 119.385662 438.195812 
L 119.605294 518.706448 
L 119.824926 392.596805 
L 120.044559 341.839348 
L 120.264191 494.77332 
L 120.703456 420.782117 
L 120.923088 466.886046 
L 121.14272 390.160519 
L 121.362352 367.3373 
L 121.581985 419.127089 
L 122.021249 288.318539 
L 122.460514 451.069649 
L 122.680146 391.919002 
L 123.119411 390.556567 
L 123.339043 298.623956 
L 123.558675 536.405448 
L 123.778308 402.483603 
L 123.99794 434.817714 
L 124.217572 432.346151 
L 124.437204 419.559265 
L 124.656837 363.649222 
L 124.876469 437.683583 
L 125.096101 453.132555 
L 125.535366 350.115939 
L 125.97463 485.656134 
L 126.194263 289.299251 
L 126.413895 406.265828 
L 126.633527 350.398454 
L 126.85316 475.116169 
L 127.072792 292.544493 
L 127.512056 457.876438 
L 127.731689 315.644154 
L 127.951321 446.150607 
L 128.170953 357.467492 
L 128.390586 314.920821 
L 128.610218 436.746793 
L 128.82985 338.549175 
L 129.269115 447.250434 
L 129.488747 332.560012 
L 129.708379 390.537261 
L 129.928012 408.989964 
L 130.147644 283.238624 
L 130.367276 287.339782 
L 130.586908 444.189623 
L 130.806541 383.547334 
L 131.026173 364.688291 
L 131.245805 374.489313 
L 131.465438 401.406895 
L 131.68507 388.778586 
L 131.904702 411.565583 
L 132.124334 453.127639 
L 132.343967 389.758664 
L 132.563599 366.221872 
L 133.002864 412.433114 
L 133.222496 408.202854 
L 133.442128 390.590246 
L 133.66176 395.147876 
L 133.881393 327.24721 
L 134.101025 455.183441 
L 134.320657 409.517587 
L 134.540289 402.457783 
L 134.759922 367.322439 
L 134.979554 276.019833 
L 135.199186 434.647922 
L 135.418819 378.178208 
L 135.638451 464.233166 
L 135.858083 385.55405 
L 136.077715 536.130919 
L 136.51698 423.335854 
L 136.736612 460.454777 
L 136.956245 239.719281 
L 137.395509 472.299536 
L 137.615141 448.112948 
L 137.834774 387.639588 
L 138.274038 504.187782 
L 138.493671 500.9444 
L 138.932935 453.083462 
L 139.152567 499.698459 
L 139.3722 422.398886 
L 139.591832 441.644614 
L 139.811464 381.761676 
L 140.031097 191.519513 
L 140.470361 471.686862 
L 140.909626 538.122853 
L 141.129258 261.753998 
L 141.34889 419.723669 
L 141.568523 449.897264 
L 141.788155 278.606306 
L 142.007787 467.453962 
L 142.227419 515.763423 
L 142.447052 493.850882 
L 143.105949 308.228407 
L 143.325581 314.703793 
L 143.545213 436.976331 
L 143.764845 332.976215 
L 143.984478 366.081827 
L 144.423742 481.074994 
L 144.643375 418.957192 
L 144.863007 484.479637 
L 145.082639 335.10894 
L 145.302271 392.503113 
L 145.521904 494.326888 
L 145.741536 391.222664 
L 145.961168 356.221027 
L 146.180801 383.078208 
L 146.400433 479.302542 
L 146.620065 232.549291 
L 146.839697 400.207064 
L 147.05933 427.74316 
L 147.278962 396.59807 
L 147.498594 427.747525 
L 147.718227 378.800267 
L 147.937859 386.998578 
L 148.377123 292.357008 
L 148.596756 419.645021 
L 148.816388 377.210234 
L 149.03602 439.388044 
L 149.255653 320.163944 
L 149.475285 384.676992 
L 149.694917 482.318895 
L 150.134182 323.038603 
L 150.353814 493.024176 
L 150.573446 344.951387 
L 150.793078 535.656294 
L 151.012711 404.152439 
L 151.232343 411.642175 
L 151.451975 473.972363 
L 151.671608 376.658393 
L 151.89124 428.624138 
L 152.110872 416.69817 
L 152.330504 429.368193 
L 152.550137 277.131268 
L 152.769769 424.333924 
L 152.989401 418.983617 
L 153.209034 201.282067 
L 153.428666 446.317106 
L 153.86793 319.257056 
L 154.087563 304.861423 
L 154.526827 473.888796 
L 154.74646 503.4727 
L 154.966092 255.940575 
L 155.405356 492.854177 
L 155.624989 312.143849 
L 155.844621 464.58094 
L 156.064253 419.316426 
L 156.283886 418.643667 
L 156.503518 278.774734 
L 156.72315 334.036407 
L 156.942782 473.896241 
L 157.162415 482.190268 
L 157.382047 512.062284 
L 157.601679 334.495185 
L 157.821312 340.472453 
L 158.040944 454.104613 
L 158.260576 385.254135 
L 158.480208 352.329253 
L 158.699841 423.670869 
L 158.919473 438.856271 
L 159.139105 336.880282 
L 159.358738 415.46873 
L 159.57837 417.08219 
L 159.798002 513.179337 
L 160.017634 309.297295 
L 160.237267 355.617214 
L 160.676531 275.145685 
L 160.896164 472.541066 
L 161.335428 357.938823 
L 161.55506 345.458286 
L 161.774693 406.544393 
L 162.213957 316.915948 
L 162.43359 337.346708 
L 162.653222 375.705479 
L 162.872854 360.505445 
L 163.092486 441.342021 
L 163.531751 405.975879 
L 163.751383 483.919591 
L 163.971016 371.278697 
L 164.190648 436.849206 
L 164.41028 310.865569 
L 164.629912 388.037335 
L 164.849545 327.28267 
L 165.069177 340.384659 
L 165.288809 328.426927 
L 165.508441 439.482669 
L 165.947706 374.098279 
L 166.167338 394.103047 
L 166.386971 349.819848 
L 166.606603 442.993246 
L 166.826235 348.103555 
L 167.045867 393.959117 
L 167.2655 412.601165 
L 167.485132 283.249169 
L 167.924397 352.62828 
L 168.144029 362.567276 
L 168.363661 336.796452 
L 168.583293 550.218284 
L 168.802926 346.744031 
L 169.022558 495.677408 
L 169.461823 433.108779 
L 169.681455 478.943077 
L 169.901087 286.413104 
L 170.120719 404.462532 
L 170.340352 384.337341 
L 170.559984 501.959162 
L 170.779616 376.005966 
L 170.999249 359.300183 
L 171.218881 425.044184 
L 171.438513 303.015976 
L 171.658145 369.457069 
L 171.877778 555.06355 
L 172.09741 358.862794 
L 172.317042 436.011761 
L 172.756307 325.281982 
L 172.975939 435.817281 
L 173.195571 305.015062 
L 173.415204 472.710125 
L 173.634836 360.655758 
L 173.854468 357.866399 
L 174.074101 471.807619 
L 174.293733 386.759295 
L 174.513365 452.544974 
L 174.95263 294.857112 
L 175.172262 482.361513 
L 175.391894 297.208416 
L 175.831159 501.979865 
L 176.050791 322.33066 
L 176.270423 390.566132 
L 176.490056 319.473328 
L 176.92932 486.818683 
L 177.148953 413.374969 
L 177.588217 383.353663 
L 177.807849 333.829192 
L 178.027482 257.723865 
L 178.247114 381.795247 
L 178.686379 471.995554 
L 178.906011 381.014799 
L 179.125643 478.279479 
L 179.345275 227.142239 
L 179.564908 414.398263 
L 179.78454 309.254572 
L 180.004172 283.292644 
L 180.223805 298.572781 
L 180.663069 425.368168 
L 180.882701 374.432744 
L 181.102334 493.156961 
L 181.321966 402.839894 
L 181.541598 448.696527 
L 181.76123 397.214441 
L 181.980863 427.230662 
L 182.200495 336.333296 
L 182.420127 342.156876 
L 182.63976 477.449625 
L 182.859392 459.246508 
L 183.079024 257.665727 
L 183.298656 433.837948 
L 183.518289 488.98182 
L 183.737921 448.292005 
L 183.957553 451.74844 
L 184.177186 385.707469 
L 184.396818 368.772018 
L 184.61645 446.301831 
L 184.836082 385.288539 
L 185.055715 383.789746 
L 185.275347 465.287216 
L 185.494979 448.928853 
L 185.714612 261.461725 
L 185.934244 480.32322 
L 186.153876 381.305315 
L 186.373508 359.664982 
L 186.593141 403.741012 
L 187.032405 293.153437 
L 187.252038 407.695582 
L 187.47167 407.255774 
L 187.691302 327.012792 
L 187.910934 403.727261 
L 188.130567 305.061882 
L 188.350199 440.957009 
L 188.789464 348.687103 
L 189.009096 506.063388 
L 189.228728 336.487072 
L 189.667993 498.753843 
L 189.887625 492.933173 
L 190.107257 378.916243 
L 190.32689 415.017128 
L 190.546522 419.379302 
L 190.766154 312.997327 
L 190.985786 479.691221 
L 191.205419 364.731114 
L 191.425051 380.330175 
L 191.644683 315.302775 
L 191.864316 495.641643 
L 192.083948 394.531683 
L 192.30358 383.178691 
L 192.523212 429.417311 
L 192.742845 333.980154 
L 192.962477 454.145944 
L 193.182109 349.703378 
L 193.401742 497.540672 
L 193.621374 386.997131 
L 193.841006 332.518335 
L 194.060638 406.765151 
L 194.280271 399.443461 
L 194.499903 522.904084 
L 194.719535 271.862516 
L 195.1588 447.84673 
L 195.378432 352.766942 
L 195.598064 385.306403 
L 195.817697 456.281334 
L 196.037329 336.521498 
L 196.256961 392.451491 
L 196.476593 400.23894 
L 196.696226 323.964521 
L 196.915858 494.91676 
L 197.13549 388.272083 
L 197.355123 450.161441 
L 197.574755 389.801984 
L 197.794387 474.472661 
L 198.014019 399.723461 
L 198.233652 386.42233 
L 198.453284 332.275583 
L 198.672916 347.439464 
L 198.892549 390.396668 
L 199.112181 280.846002 
L 199.331813 428.651394 
L 199.99071 300.396854 
L 200.429975 462.7117 
L 200.649607 428.095824 
L 200.869239 366.548363 
L 201.088871 433.529329 
L 201.308504 414.451134 
L 201.528136 336.480089 
L 201.747768 318.011815 
L 201.967401 332.051131 
L 202.187033 445.210857 
L 202.406665 328.872381 
L 202.626297 404.617763 
L 202.84593 437.121199 
L 203.065562 435.570848 
L 203.285194 379.429813 
L 203.504827 452.763766 
L 203.724459 410.182908 
L 203.944091 423.883085 
L 204.163723 396.194813 
L 204.383356 384.357595 
L 204.602988 438.58003 
L 204.82262 261.488885 
L 205.042253 388.686333 
L 205.261885 397.760385 
L 205.481517 442.176736 
L 205.701149 450.211086 
L 205.920782 413.52826 
L 206.140414 406.792293 
L 206.360046 394.986916 
L 206.799311 441.455806 
L 207.018943 468.631998 
L 207.238575 438.233963 
L 207.458208 359.59583 
L 207.67784 338.43244 
L 207.897472 440.270383 
L 208.117105 437.949338 
L 208.336737 434.004408 
L 208.556369 379.939954 
L 208.776001 270.991812 
L 208.995634 394.349856 
L 209.215266 383.652057 
L 209.434898 357.556917 
L 209.654531 451.879515 
L 209.874163 313.590113 
L 210.093795 455.661323 
L 210.313427 461.415794 
L 210.53306 473.315333 
L 210.752692 418.805576 
L 210.972324 494.963347 
L 211.191956 495.458821 
L 211.411589 296.568136 
L 211.631221 368.860298 
L 211.850853 357.17473 
L 212.070486 356.441867 
L 212.290118 422.514176 
L 212.50975 393.813042 
L 212.729382 430.719593 
L 212.949015 356.972062 
L 213.168647 369.99914 
L 213.388279 480.069749 
L 213.607912 391.221996 
L 213.827544 435.250666 
L 214.266808 271.711734 
L 214.486441 399.40549 
L 214.706073 436.181863 
L 214.925705 371.696339 
L 215.145338 357.871077 
L 215.36497 315.738207 
L 215.804234 519.977828 
L 216.023867 422.332173 
L 216.243499 428.991682 
L 216.463131 319.536392 
L 216.682764 298.948727 
L 216.902396 305.388928 
L 217.34166 452.955179 
L 217.561293 385.389055 
L 217.780925 269.967529 
L 218.000557 256.949701 
L 218.22019 457.645446 
L 218.659454 393.401087 
L 218.879086 396.612952 
L 219.098719 319.783083 
L 219.318351 313.801057 
L 219.537983 359.280954 
L 219.757616 448.250763 
L 219.977248 456.737489 
L 220.19688 444.831047 
L 220.416512 338.225284 
L 220.636145 413.712148 
L 220.855777 431.820633 
L 221.075409 462.03851 
L 221.295042 360.154125 
L 221.514674 410.833913 
L 221.734306 270.971409 
L 221.953938 446.826208 
L 222.173571 464.606522 
L 222.393203 296.909047 
L 222.612835 401.084552 
L 222.832468 451.665746 
L 223.0521 433.166638 
L 223.271732 499.910328 
L 223.710997 292.299913 
L 223.930629 438.045301 
L 224.150261 473.517324 
L 224.369894 464.935591 
L 224.589526 344.088865 
L 224.809158 446.646612 
L 225.02879 425.680841 
L 225.248423 429.383326 
L 225.468055 288.794578 
L 225.687687 483.82259 
L 225.90732 273.425951 
L 226.126952 441.553536 
L 226.346584 480.917313 
L 226.785849 395.380078 
L 227.225113 431.750174 
L 227.444745 322.874801 
L 227.664378 450.22697 
L 227.88401 315.523421 
L 228.103642 396.167944 
L 228.323275 392.979897 
L 228.542907 331.140206 
L 228.982171 479.122777 
L 229.201804 438.950477 
L 229.421436 425.469962 
L 229.641068 369.664491 
L 229.860701 357.468349 
L 230.080333 461.139782 
L 230.299965 282.154369 
L 230.519597 411.170326 
L 230.73923 299.311706 
L 230.958862 468.19129 
L 231.178494 463.93791 
L 231.398127 438.04803 
L 231.617759 351.716722 
L 231.837391 366.746894 
L 232.057023 330.241933 
L 232.276656 353.798999 
L 232.71592 439.342741 
L 232.935553 384.126553 
L 233.374817 427.371749 
L 233.594449 420.172167 
L 233.814082 445.556282 
L 234.033714 377.714381 
L 234.253346 458.516648 
L 234.692611 375.936553 
L 234.912243 455.732329 
L 235.131875 294.291308 
L 235.351508 358.493523 
L 235.57114 549.479478 
L 235.790772 372.697047 
L 236.010405 339.872325 
L 236.230037 352.665978 
L 236.449669 428.905754 
L 236.669301 321.41186 
L 236.888934 371.525567 
L 237.108566 349.894115 
L 237.328198 434.384653 
L 237.547831 423.974 
L 237.767463 275.765404 
L 238.645992 430.031805 
L 239.085257 380.887045 
L 239.304889 397.387556 
L 239.524521 481.336195 
L 239.744153 454.345254 
L 239.963786 495.078319 
L 240.183418 402.221499 
L 240.40305 383.423537 
L 240.622683 442.232772 
L 241.061947 268.690178 
L 241.281579 434.497945 
L 241.501212 412.215462 
L 241.720844 297.21587 
L 241.940476 362.289202 
L 242.160108 370.356598 
L 242.379741 440.93447 
L 242.599373 458.090728 
L 242.819005 456.888301 
L 243.038638 416.080751 
L 243.25827 316.943934 
L 243.477902 428.980545 
L 243.697534 444.829714 
L 243.917167 386.656004 
L 244.136799 425.020691 
L 244.356431 443.804418 
L 244.576064 369.048562 
L 244.795696 347.980387 
L 245.015328 504.269656 
L 245.454593 249.83401 
L 245.674225 392.776202 
L 245.893857 316.121878 
L 246.11349 390.679244 
L 246.333122 369.390753 
L 246.552754 407.662955 
L 246.772386 414.521587 
L 246.992019 379.51243 
L 247.211651 499.247467 
L 247.431283 387.538786 
L 247.650916 391.76998 
L 247.870548 365.931879 
L 248.09018 381.351555 
L 248.309812 411.83523 
L 248.529445 398.40236 
L 248.749077 465.116452 
L 248.968709 399.616198 
L 249.188342 580.503039 
L 249.407974 445.380122 
L 249.627606 471.922664 
L 249.847238 469.420916 
L 250.066871 459.335082 
L 250.286503 479.440031 
L 250.506135 377.402543 
L 250.725768 403.907376 
L 250.9454 464.802422 
L 251.165032 300.605525 
L 251.384664 393.058487 
L 251.604297 188.061929 
L 251.823929 408.295548 
L 252.043561 318.314937 
L 252.263194 384.442467 
L 252.482826 305.198832 
L 252.702458 428.628032 
L 252.92209 396.712802 
L 253.141723 222.904081 
L 253.361355 395.191792 
L 253.580987 251.41984 
L 254.020252 510.175155 
L 254.239884 352.782407 
L 254.459516 426.736715 
L 254.679149 412.805332 
L 254.898781 413.646882 
L 255.118413 424.203629 
L 255.338046 481.44208 
L 255.557678 314.993498 
L 255.77731 385.632778 
L 255.996942 364.064352 
L 256.436207 475.325566 
L 256.655839 469.622292 
L 256.875472 485.557976 
L 257.095104 399.264089 
L 257.314736 480.028884 
L 257.754001 341.252052 
L 257.973633 368.367057 
L 258.193265 364.76136 
L 258.412897 174.409445 
L 258.63253 375.105022 
L 258.852162 422.110203 
L 259.071794 436.699083 
L 259.291427 371.866798 
L 259.511059 412.319404 
L 259.730691 487.926716 
L 259.950323 304.538439 
L 260.169956 285.000378 
L 260.389588 446.995784 
L 260.60922 228.53417 
L 260.828853 336.16767 
L 261.048485 381.936013 
L 261.268117 479.183262 
L 261.487749 481.302912 
L 261.707382 304.967304 
L 261.927014 342.595803 
L 262.146646 349.366318 
L 262.366279 561.07604 
L 262.805543 332.66801 
L 263.025175 374.700184 
L 263.244808 481.536237 
L 263.684072 388.135611 
L 263.903705 426.863351 
L 264.123337 320.480317 
L 264.342969 429.24172 
L 264.562601 308.391742 
L 264.782234 448.24081 
L 265.001866 374.591344 
L 265.221498 357.832759 
L 265.441131 490.640223 
L 265.660763 362.43461 
L 265.880395 346.898429 
L 266.100027 318.06706 
L 266.31966 399.074322 
L 266.539292 532.810355 
L 266.758924 397.567239 
L 266.978557 373.301723 
L 267.198189 400.460549 
L 267.417821 369.043245 
L 267.857086 425.360161 
L 268.076718 363.474331 
L 268.29635 466.411469 
L 268.515983 414.511904 
L 268.735615 422.005617 
L 268.955247 469.80009 
L 269.174879 405.096488 
L 269.394512 389.559635 
L 269.614144 392.502967 
L 269.833776 512.327523 
L 270.053409 422.211948 
L 270.273041 378.247561 
L 270.492673 497.204459 
L 270.712305 400.980275 
L 270.931938 461.847039 
L 271.371202 294.581556 
L 271.810467 495.295535 
L 272.030099 405.105842 
L 272.249731 410.527754 
L 272.469364 278.033396 
L 272.688996 468.125542 
L 273.347893 367.074735 
L 273.567525 394.321383 
L 273.787157 342.005697 
L 274.00679 379.681783 
L 274.226422 335.411652 
L 274.665686 488.025207 
L 274.885319 483.329171 
L 275.104951 408.709531 
L 275.324583 401.964073 
L 275.544216 332.358475 
L 275.763848 383.122562 
L 275.98348 385.384352 
L 276.203112 430.372158 
L 276.642377 263.214215 
L 276.862009 451.523187 
L 277.081642 376.170652 
L 277.301274 388.740773 
L 277.520906 408.928398 
L 277.740538 448.948731 
L 277.960171 358.967757 
L 278.179803 331.318006 
L 278.399435 447.753144 
L 278.619068 426.771514 
L 278.8387 417.756409 
L 279.058332 427.868698 
L 279.277964 386.874371 
L 279.717229 459.127283 
L 279.936861 460.380583 
L 280.156494 279.288308 
L 280.595758 435.517007 
L 280.81539 371.104607 
L 281.035023 364.661202 
L 281.254655 293.515325 
L 281.474287 380.518688 
L 281.69392 337.618856 
L 281.913552 415.555857 
L 282.133184 352.276454 
L 282.352816 332.317285 
L 282.572449 436.544769 
L 282.792081 413.46014 
L 283.011713 418.332798 
L 283.231346 324.405306 
L 283.450978 493.023088 
L 283.67061 432.790865 
L 283.890242 474.903762 
L 284.109875 392.881775 
L 284.329507 419.281802 
L 284.549139 526.726123 
L 284.768772 294.045142 
L 284.988404 495.419791 
L 285.208036 530.915673 
L 285.427668 357.618305 
L 285.647301 413.702055 
L 285.866933 377.246915 
L 286.086565 442.708059 
L 286.306198 409.763663 
L 286.52583 307.595152 
L 286.745462 430.504122 
L 286.965094 396.848301 
L 287.184727 384.208542 
L 287.404359 360.358442 
L 287.623991 441.820087 
L 287.843624 362.269488 
L 288.063256 347.47381 
L 288.282888 476.104325 
L 288.50252 417.778065 
L 288.722153 263.077512 
L 288.941785 358.978195 
L 289.161417 346.096943 
L 289.381049 417.252573 
L 289.600682 340.789186 
L 290.039946 493.311147 
L 290.259579 198.633016 
L 290.479211 460.446448 
L 290.698843 455.885273 
L 290.918475 259.014324 
L 291.138108 304.915858 
L 291.35774 425.005212 
L 291.577372 420.425908 
L 291.797005 379.583708 
L 292.016637 372.299366 
L 292.236269 393.74914 
L 292.455901 383.473239 
L 292.675534 345.006435 
L 292.895166 424.332113 
L 293.114798 366.078788 
L 293.334431 452.323399 
L 293.554063 417.921008 
L 293.773695 490.904288 
L 293.993327 463.723995 
L 294.21296 345.345357 
L 294.432592 395.755155 
L 294.652224 385.626883 
L 294.871857 382.276766 
L 295.311121 465.082741 
L 295.530753 441.435636 
L 295.750386 385.215679 
L 295.970018 534.92317 
L 296.409283 294.310061 
L 296.628915 273.935099 
L 296.848547 279.330567 
L 297.068179 253.902844 
L 297.287812 289.112212 
L 297.507444 371.731973 
L 297.727076 274.964864 
L 297.946709 407.2677 
L 298.166341 374.925825 
L 298.385973 487.504128 
L 298.605605 490.876882 
L 298.825238 397.701081 
L 299.04487 457.775201 
L 299.264502 309.259424 
L 299.484135 480.794497 
L 299.703767 355.650335 
L 299.923399 408.460679 
L 300.362664 340.177602 
L 300.582296 479.971992 
L 300.801928 360.233117 
L 301.021561 415.719399 
L 301.241193 341.139807 
L 301.460825 315.849946 
L 301.680457 394.298599 
L 301.90009 515.131408 
L 302.119722 385.160827 
L 302.558987 409.597197 
L 302.778619 335.492593 
L 302.998251 463.919973 
L 303.217883 369.417482 
L 303.437516 334.969322 
L 303.657148 131.763818 
L 303.87678 476.332755 
L 304.096412 386.477501 
L 304.316045 360.83414 
L 304.535677 285.559939 
L 304.755309 465.857177 
L 304.974942 431.936593 
L 305.194574 485.605953 
L 305.414206 496.285924 
L 305.853471 335.498123 
L 306.073103 502.374727 
L 306.292735 473.214617 
L 306.512368 291.465554 
L 306.732 431.766989 
L 306.951632 359.580612 
L 307.171264 356.927993 
L 307.390897 409.161951 
L 307.610529 284.009698 
L 307.830161 535.981716 
L 308.049794 369.566406 
L 308.269426 447.157742 
L 308.489058 355.568045 
L 308.928323 416.977561 
L 309.147955 357.069916 
L 309.367587 417.099289 
L 309.58722 350.139279 
L 309.806852 420.777666 
L 310.026484 274.470261 
L 310.246116 401.568553 
L 310.465749 208.060063 
L 310.685381 416.1707 
L 310.905013 449.415784 
L 311.124646 341.560461 
L 311.344278 426.579447 
L 311.783542 304.250379 
L 312.003175 428.055598 
L 312.222807 340.246215 
L 312.442439 397.20479 
L 312.662072 423.328881 
L 313.101336 242.477487 
L 313.540601 397.113431 
L 313.760233 409.36424 
L 313.979865 285.554983 
L 314.199498 375.230821 
L 314.41913 317.691932 
L 314.638762 509.417123 
L 314.858394 384.485439 
L 315.078027 412.563131 
L 315.297659 367.86769 
L 315.517291 373.418596 
L 315.736924 553.570781 
L 315.956556 434.907486 
L 316.176188 430.712276 
L 316.39582 302.083508 
L 316.615453 335.45332 
L 316.835085 348.778289 
L 317.054717 442.360407 
L 317.493982 338.828107 
L 317.713614 451.266547 
L 317.933246 452.194593 
L 318.152879 384.008171 
L 318.372511 512.159232 
L 318.592143 491.535277 
L 318.811775 417.712252 
L 319.031408 384.153872 
L 319.25104 427.15863 
L 319.470672 445.316622 
L 319.690305 223.809161 
L 319.909937 414.765758 
L 320.129569 324.03615 
L 320.349201 545.579415 
L 320.568834 305.372226 
L 320.788466 346.76464 
L 321.008098 338.166415 
L 321.227731 477.955618 
L 321.447363 406.283599 
L 321.666995 544.874631 
L 321.886627 318.585311 
L 322.10626 455.31259 
L 322.325892 272.70061 
L 322.984789 379.624894 
L 323.204421 340.232485 
L 323.424053 389.157472 
L 323.643686 266.405553 
L 323.863318 473.477284 
L 324.08295 335.146189 
L 324.302583 450.044754 
L 324.522215 453.217943 
L 324.961479 419.487268 
L 325.181112 448.354489 
L 325.400744 530.445633 
L 325.620376 444.227419 
L 325.840009 446.704261 
L 326.059641 410.697194 
L 326.279273 407.149206 
L 326.498905 262.765868 
L 326.718538 421.274874 
L 327.157802 412.317847 
L 327.377435 423.184371 
L 327.597067 372.353123 
L 327.816699 274.631976 
L 328.036331 360.62246 
L 328.255964 360.931968 
L 328.475596 377.013953 
L 328.914861 274.803331 
L 329.134493 389.475888 
L 329.354125 377.609001 
L 329.573757 475.557675 
L 329.79339 389.999781 
L 330.013022 383.821548 
L 330.232654 436.050736 
L 330.452287 427.570571 
L 330.671919 432.881924 
L 330.891551 428.684102 
L 331.111183 272.022128 
L 331.330816 214.759928 
L 331.550448 399.031477 
L 331.77008 435.562614 
L 331.989713 262.897438 
L 332.209345 464.334147 
L 332.428977 484.949261 
L 332.868242 402.312059 
L 333.087874 412.469464 
L 333.307506 363.117435 
L 333.527139 401.528127 
L 333.746771 464.032425 
L 333.966403 342.963542 
L 334.186035 352.762343 
L 334.405668 370.793912 
L 334.844932 475.643287 
L 335.064564 368.479278 
L 335.503829 327.282679 
L 335.723461 391.534489 
L 335.943094 308.957486 
L 336.162726 443.688559 
L 336.382358 368.448715 
L 336.60199 487.662705 
L 336.821623 443.682082 
L 337.041255 301.703299 
L 337.260887 397.484006 
L 337.48052 360.221411 
L 337.700152 404.472603 
L 337.919784 399.580786 
L 338.139416 363.681667 
L 338.359049 378.195752 
L 338.578681 356.400998 
L 338.798313 374.008855 
L 339.017946 340.856952 
L 339.237578 367.28742 
L 339.45721 443.310272 
L 339.676842 372.888627 
L 339.896475 428.277488 
L 340.116107 350.417 
L 340.775004 469.476386 
L 340.994636 473.381727 
L 341.214268 363.937002 
L 341.433901 406.993725 
L 341.653533 387.33112 
L 341.873165 345.636201 
L 342.092798 387.518809 
L 342.31243 283.652851 
L 342.532062 499.020837 
L 342.751694 376.080221 
L 342.971327 347.945491 
L 343.410591 471.461277 
L 343.630224 310.509005 
L 343.849856 426.831451 
L 344.069488 335.117832 
L 344.28912 175.33115 
L 344.508753 403.891142 
L 344.728385 480.552576 
L 344.948017 427.674941 
L 345.16765 321.352226 
L 345.387282 290.45127 
L 345.606914 350.408964 
L 345.826546 324.526152 
L 346.046179 415.35358 
L 346.265811 404.385653 
L 346.485443 319.1618 
L 346.705076 399.383496 
L 346.924708 384.181916 
L 347.14434 505.468421 
L 347.363972 404.73194 
L 347.583605 388.4915 
L 347.803237 426.937276 
L 348.022869 442.411075 
L 348.242502 390.594354 
L 348.462134 302.973132 
L 348.681766 411.374146 
L 349.121031 292.198628 
L 349.340663 401.086104 
L 349.560295 415.881465 
L 349.779927 292.101775 
L 349.99956 390.36516 
L 350.219192 402.960071 
L 350.438824 317.112749 
L 350.658457 304.123658 
L 350.878089 423.008752 
L 351.097721 435.312159 
L 351.317353 387.449183 
L 351.536986 395.599796 
L 351.756618 372.722217 
L 351.97625 396.189251 
L 352.195883 312.563695 
L 352.415515 441.895503 
L 352.635147 282.89241 
L 353.074412 505.944304 
L 353.294044 216.167166 
L 353.513676 412.955212 
L 353.733309 248.014889 
L 354.172573 353.097005 
L 354.392205 353.693107 
L 354.611838 433.336906 
L 354.83147 432.84748 
L 355.051102 371.579565 
L 355.490367 437.983036 
L 355.709999 308.205997 
L 355.929631 290.953654 
L 356.149264 311.862923 
L 356.368896 347.95139 
L 356.588528 424.359037 
L 356.808161 411.199705 
L 357.247425 356.656387 
L 357.467057 349.828062 
L 357.68669 441.346567 
L 357.906322 371.476258 
L 358.125954 454.028206 
L 358.784851 363.749708 
L 359.004483 361.652287 
L 359.224116 367.917384 
L 359.443748 403.506146 
L 359.66338 317.573408 
L 359.883013 411.746016 
L 360.102645 305.807766 
L 360.322277 343.028257 
L 360.761542 486.936962 
L 360.981174 414.689048 
L 361.200806 390.48613 
L 361.420439 332.92216 
L 361.640071 370.35149 
L 361.859703 357.899815 
L 362.079335 360.304492 
L 362.298968 424.561891 
L 362.5186 360.535989 
L 362.738232 489.770615 
L 362.957865 410.49391 
L 363.177497 413.146074 
L 363.397129 438.301536 
L 363.616761 322.302315 
L 363.836394 338.751083 
L 364.275658 547.378794 
L 364.714923 371.968785 
L 364.934555 381.630915 
L 365.154187 411.58624 
L 365.37382 325.924782 
L 365.593452 417.068731 
L 365.813084 297.833424 
L 366.032716 368.949023 
L 366.252349 335.094357 
L 366.471981 409.196915 
L 366.691613 441.746867 
L 366.911246 277.307431 
L 367.130878 352.394877 
L 367.35051 383.088584 
L 367.570142 479.647627 
L 367.789775 341.452268 
L 368.009407 405.396854 
L 368.448672 287.2772 
L 368.668304 427.152153 
L 368.887936 395.267703 
L 369.107568 322.087819 
L 369.327201 409.600761 
L 369.546833 390.012747 
L 369.766465 473.097883 
L 369.986098 328.448955 
L 370.20573 406.610396 
L 370.425362 345.577742 
L 370.864627 427.428547 
L 371.084259 326.24845 
L 371.303891 386.938009 
L 371.523524 223.021201 
L 371.743156 356.51073 
L 371.962788 346.473102 
L 372.18242 372.514535 
L 372.621685 227.261528 
L 372.841317 208.160851 
L 373.06095 212.787242 
L 373.280582 312.393714 
L 373.500214 350.690663 
L 373.719846 330.204112 
L 373.939479 492.534023 
L 374.159111 360.862687 
L 374.378743 489.595428 
L 374.598376 410.973944 
L 374.818008 447.350187 
L 375.03764 265.973504 
L 375.257272 486.164099 
L 375.696537 427.276731 
L 375.916169 363.789344 
L 376.135802 475.593917 
L 376.355434 407.890139 
L 376.575066 284.695423 
L 376.794698 431.251906 
L 377.014331 430.355236 
L 377.233963 501.436629 
L 377.453595 445.298352 
L 377.673228 446.452444 
L 377.89286 338.909542 
L 378.112492 381.405278 
L 378.332124 397.755125 
L 378.551757 402.023791 
L 378.771389 451.929491 
L 378.991021 424.284883 
L 379.210654 414.23491 
L 379.430286 553.643952 
L 379.649918 337.61487 
L 379.86955 525.527627 
L 380.089183 367.181862 
L 380.308815 389.616581 
L 380.528447 336.416284 
L 380.748079 253.62721 
L 380.967712 267.426828 
L 381.187344 454.491914 
L 381.406976 507.857992 
L 381.626609 373.067049 
L 382.065873 310.030425 
L 382.285505 397.618672 
L 382.505138 532.983154 
L 382.72477 478.34513 
L 382.944402 383.879892 
L 383.164035 376.732263 
L 383.383667 416.01328 
L 383.603299 250.433043 
L 383.822931 565.640829 
L 384.262196 393.934248 
L 384.481828 439.015582 
L 384.701461 439.65396 
L 384.921093 419.235097 
L 385.140725 335.338734 
L 385.360357 359.979151 
L 385.57999 463.921084 
L 385.799622 387.295212 
L 386.019254 447.691704 
L 386.238887 418.01297 
L 386.458519 334.079377 
L 386.678151 500.231163 
L 386.897783 359.252595 
L 387.117416 470.671859 
L 387.337048 420.532497 
L 387.776313 380.53015 
L 388.215577 454.779503 
L 388.654842 389.415816 
L 388.874474 394.043701 
L 389.094106 392.976537 
L 389.313739 404.398173 
L 389.533371 478.797189 
L 389.972635 305.711361 
L 390.192268 419.351557 
L 390.4119 394.949991 
L 390.631532 435.707725 
L 391.070797 350.643094 
L 391.290429 448.726767 
L 391.510061 225.615259 
L 391.949326 512.718612 
L 392.168958 316.888241 
L 392.388591 362.497699 
L 392.608223 336.046328 
L 393.047487 488.951092 
L 393.26712 402.450107 
L 393.486752 375.623026 
L 393.706384 382.386281 
L 393.926017 336.999644 
L 394.145649 369.82649 
L 394.365281 294.649439 
L 394.584913 376.007608 
L 394.804546 341.273285 
L 395.024178 395.197049 
L 395.463443 288.615567 
L 395.683075 377.96661 
L 395.902707 341.311297 
L 396.122339 469.757532 
L 396.561604 403.21871 
L 396.781236 403.975689 
L 397.000868 500.143356 
L 397.220501 313.116994 
L 397.440133 221.260908 
L 397.659765 431.255409 
L 397.879398 337.857669 
L 398.318662 445.920074 
L 398.538294 544.878106 
L 398.977559 374.78853 
L 399.197191 306.00054 
L 399.416824 405.911543 
L 399.636456 430.376028 
L 399.856088 493.231032 
L 400.07572 497.330229 
L 400.295353 319.477016 
L 400.514985 409.622714 
L 400.734617 411.444886 
L 400.95425 263.400828 
L 401.173882 464.020271 
L 401.393514 314.948083 
L 401.613146 339.473845 
L 401.832779 410.304104 
L 402.052411 385.48498 
L 402.491676 423.620379 
L 402.711308 427.896431 
L 402.93094 369.606965 
L 403.150572 452.335753 
L 403.589837 246.142177 
L 403.809469 424.698408 
L 404.029102 301.706923 
L 404.248734 334.955727 
L 404.468366 403.751239 
L 404.687998 382.77245 
L 404.907631 399.913742 
L 405.127263 288.83396 
L 405.346895 328.287582 
L 405.566528 453.278208 
L 405.78616 413.089603 
L 406.005792 445.075413 
L 406.225424 374.927447 
L 406.445057 365.094762 
L 406.664689 432.326085 
L 406.884321 287.190299 
L 407.103954 304.64086 
L 407.323586 375.418309 
L 407.543218 398.238574 
L 407.76285 378.952581 
L 407.982483 377.522903 
L 408.202115 433.043118 
L 408.421747 360.439896 
L 408.64138 399.988537 
L 408.861012 470.274706 
L 409.080644 434.820838 
L 409.300276 465.507379 
L 409.519909 363.086437 
L 409.739541 421.49766 
L 409.959173 287.586201 
L 410.178806 382.189321 
L 410.398438 331.112602 
L 410.61807 397.869712 
L 410.837702 401.873797 
L 411.057335 387.91044 
L 411.496599 291.043408 
L 411.716231 348.577265 
L 411.935864 367.803587 
L 412.375128 299.46588 
L 412.594761 235.475395 
L 412.814393 544.544314 
L 413.253657 191.801758 
L 413.47329 308.448644 
L 413.692922 276.312601 
L 413.912554 280.505618 
L 414.351819 371.416318 
L 414.791083 249.960008 
L 415.010716 329.778875 
L 415.230348 485.099557 
L 415.44998 341.622662 
L 415.669613 304.320151 
L 415.889245 424.334782 
L 416.108877 253.947041 
L 416.328509 423.362619 
L 416.548142 423.777689 
L 416.767774 292.033792 
L 416.987406 485.40763 
L 417.207039 348.145902 
L 417.646303 472.675719 
L 417.865935 452.640954 
L 418.085568 327.776646 
L 418.3052 302.648464 
L 418.524832 409.513164 
L 418.744465 381.526229 
L 418.964097 394.948538 
L 419.183729 450.90105 
L 419.403361 433.715227 
L 419.622994 341.685326 
L 419.842626 475.435882 
L 420.062258 430.917939 
L 420.281891 272.980453 
L 420.501523 390.96113 
L 420.721155 397.072478 
L 420.940787 410.865899 
L 421.16042 398.551548 
L 421.380052 344.974752 
L 421.599684 390.487375 
L 421.819317 251.950864 
L 422.258581 461.039134 
L 422.478213 364.690748 
L 422.697846 402.521832 
L 422.917478 314.465774 
L 423.13711 284.17899 
L 423.356743 414.101215 
L 423.576375 441.289852 
L 423.796007 393.404097 
L 424.015639 424.402734 
L 424.235272 366.872758 
L 424.454904 421.548085 
L 424.674536 389.954961 
L 424.894169 268.43147 
L 425.333433 449.662502 
L 425.553065 499.342096 
L 425.772698 449.966881 
L 425.99233 441.952483 
L 426.211962 301.899544 
L 426.651227 427.821982 
L 426.870859 444.550155 
L 427.090491 445.317715 
L 427.310124 317.499522 
L 427.529756 297.487186 
L 427.749388 448.8807 
L 427.96902 385.461288 
L 428.188653 422.905824 
L 428.408285 439.042295 
L 428.627917 335.72292 
L 429.067182 389.923728 
L 429.286814 393.539486 
L 429.506446 365.775461 
L 429.726079 436.063763 
L 429.945711 367.104563 
L 430.165343 418.895128 
L 430.384976 388.406319 
L 430.604608 481.49959 
L 430.82424 345.584445 
L 431.043872 445.182067 
L 431.263505 407.581778 
L 431.483137 440.690249 
L 431.922402 367.408487 
L 432.142034 504.938814 
L 432.361666 362.87378 
L 432.581298 500.05958 
L 433.020563 413.506318 
L 433.240195 401.783015 
L 433.459828 366.839306 
L 433.67946 424.367214 
L 433.899092 375.530312 
L 434.338357 350.04478 
L 434.557989 434.89935 
L 434.777621 294.753281 
L 434.997254 366.727603 
L 435.436518 418.816187 
L 435.65615 393.122983 
L 435.875783 318.718183 
L 436.095415 442.332646 
L 436.315047 226.336914 
L 436.53468 344.685172 
L 436.754312 312.284238 
L 436.973944 329.397137 
L 437.193576 329.819324 
L 437.413209 336.945075 
L 437.632841 440.283598 
L 437.852473 434.528896 
L 438.072106 369.289503 
L 438.291738 381.698663 
L 438.51137 333.698734 
L 438.731002 410.915763 
L 438.950635 418.800702 
L 439.170267 348.096159 
L 439.389899 500.07648 
L 439.829164 193.081844 
L 440.048796 231.626085 
L 440.268428 371.986624 
L 440.488061 422.022111 
L 440.707693 445.71523 
L 440.927325 448.844076 
L 441.146958 263.4167 
L 441.36659 426.748101 
L 441.586222 417.095951 
L 441.805854 437.593622 
L 442.025487 363.833019 
L 442.245119 436.308997 
L 442.464751 332.390443 
L 442.684383 337.092491 
L 442.904016 391.319233 
L 443.123648 401.367159 
L 443.34328 504.123557 
L 443.562913 357.894765 
L 443.782545 478.208311 
L 444.002177 291.19096 
L 444.221809 426.278025 
L 444.441442 362.482147 
L 444.880706 444.286474 
L 445.100339 378.088543 
L 445.539603 464.629798 
L 445.759235 469.869511 
L 446.1985 371.743289 
L 446.418132 403.03745 
L 446.637765 407.977123 
L 446.857397 435.071133 
L 447.077029 387.104426 
L 447.516294 440.08866 
L 447.735926 373.005317 
L 448.175191 464.146247 
L 448.614455 221.379637 
L 448.834087 526.718323 
L 449.05372 363.701034 
L 449.273352 447.439448 
L 449.492984 283.99413 
L 449.712617 319.903554 
L 449.932249 402.783441 
L 450.151881 263.351888 
L 450.371513 532.95725 
L 450.591146 372.98595 
L 450.810778 349.182876 
L 451.03041 255.577479 
L 451.250043 395.190095 
L 451.469675 401.289657 
L 451.689307 277.965653 
L 451.908939 376.051859 
L 452.128572 382.974569 
L 452.348204 380.215887 
L 452.567836 279.647737 
L 452.787469 385.927661 
L 453.007101 407.924594 
L 453.226733 332.360394 
L 453.446365 458.939472 
L 453.665998 419.65036 
L 453.88563 431.05361 
L 454.105262 354.005842 
L 454.324895 452.485309 
L 454.544527 327.625637 
L 454.764159 313.589538 
L 454.983791 461.699474 
L 455.203424 443.974517 
L 455.423056 472.894924 
L 455.642688 334.780657 
L 455.862321 440.8147 
L 456.081953 397.039521 
L 456.301585 429.193015 
L 456.521217 432.287189 
L 456.74085 475.967671 
L 456.960482 411.870122 
L 457.180114 431.11992 
L 457.619379 349.702293 
L 457.839011 365.075885 
L 458.058643 285.150678 
L 458.278276 453.90679 
L 458.497908 254.65159 
L 458.71754 381.118441 
L 458.937172 421.403302 
L 459.156805 436.917317 
L 459.376437 365.606202 
L 459.596069 364.048438 
L 459.815702 492.019208 
L 460.035334 341.109656 
L 460.474598 405.608728 
L 460.694231 334.911066 
L 461.133495 415.025031 
L 461.353128 342.787399 
L 461.57276 372.693599 
L 461.792392 329.326049 
L 462.012024 435.310602 
L 462.231657 439.011822 
L 462.451289 434.315409 
L 462.890554 322.62483 
L 463.110186 478.362943 
L 463.54945 342.401767 
L 463.769083 398.128166 
L 463.988715 354.731212 
L 464.208347 354.915061 
L 464.42798 540.829494 
L 464.647612 394.648311 
L 464.867244 384.255632 
L 465.086876 389.074495 
L 465.306509 422.916143 
L 465.526141 326.830697 
L 465.745773 322.717224 
L 466.185038 418.808712 
L 466.40467 511.13454 
L 466.624302 305.332248 
L 466.843935 430.050059 
L 467.063567 359.769883 
L 467.502832 463.01988 
L 467.722464 443.683459 
L 467.942096 400.066661 
L 468.161728 464.54039 
L 468.381361 351.418612 
L 468.600993 391.832726 
L 468.820625 397.857022 
L 469.040258 326.808421 
L 469.25989 421.961342 
L 469.479522 424.385878 
L 469.699154 264.261369 
L 469.918787 472.053848 
L 470.138419 329.189894 
L 470.358051 424.862445 
L 470.577684 458.115601 
L 470.797316 395.004249 
L 471.016948 222.824045 
L 471.23658 429.042993 
L 471.456213 345.538413 
L 471.675845 483.496574 
L 471.895477 407.106048 
L 472.11511 429.848642 
L 472.334742 348.596062 
L 472.554374 404.152708 
L 472.774006 366.92757 
L 472.993639 447.104853 
L 473.213271 343.642704 
L 473.872168 463.527749 
L 474.0918 471.49121 
L 474.311432 429.065823 
L 474.531065 429.76905 
L 474.750697 508.043831 
L 474.970329 371.682177 
L 475.189961 345.967026 
L 475.409594 467.180835 
L 475.848858 312.49374 
L 476.068491 365.789933 
L 476.288123 310.879266 
L 476.507755 345.15019 
L 476.727387 456.009909 
L 476.94702 333.019748 
L 477.386284 493.641061 
L 477.605917 488.729153 
L 478.045181 370.602528 
L 478.264813 399.172287 
L 478.484446 461.821204 
L 478.704078 378.15735 
L 478.92371 344.802646 
L 479.143343 338.285383 
L 479.362975 278.8274 
L 479.582607 361.752471 
L 479.802239 355.656233 
L 480.021872 389.382878 
L 480.241504 517.942338 
L 480.680769 350.79371 
L 481.120033 543.094688 
L 481.339665 407.247294 
L 481.559298 399.976655 
L 481.77893 357.479827 
L 481.998562 352.112172 
L 482.218195 362.247239 
L 482.437827 386.231899 
L 482.657459 499.33694 
L 482.877091 305.168929 
L 483.096724 429.817413 
L 483.316356 416.850246 
L 483.535988 476.648386 
L 483.755621 488.608549 
L 483.975253 425.241356 
L 484.194885 417.577448 
L 484.414517 335.34757 
L 484.63415 428.184015 
L 485.073414 372.338924 
L 485.293047 388.407358 
L 485.512679 366.354034 
L 485.732311 491.892532 
L 485.951943 368.713903 
L 486.171576 459.222291 
L 486.391208 346.647711 
L 486.61084 416.51052 
L 486.830473 322.648646 
L 487.050105 359.28344 
L 487.269737 312.230542 
L 487.489369 437.017056 
L 487.709002 431.998714 
L 487.928634 294.072213 
L 488.367898 427.430455 
L 488.587531 283.037902 
L 488.807163 459.638335 
L 489.026795 484.488871 
L 489.685692 371.850387 
L 489.905324 348.833221 
L 490.124957 338.22376 
L 490.344589 414.935778 
L 490.564221 396.864386 
L 490.783854 500.578431 
L 491.003486 308.763634 
L 491.223118 386.642379 
L 491.44275 366.89714 
L 491.662383 456.60161 
L 492.101647 313.154587 
L 492.32128 407.903248 
L 492.540912 302.881241 
L 492.760544 283.341321 
L 492.980176 409.885725 
L 493.199809 342.026777 
L 493.639073 483.858348 
L 493.858706 372.490682 
L 494.078338 348.741036 
L 494.29797 338.194493 
L 494.517602 396.777586 
L 494.737235 277.102613 
L 494.956867 378.006691 
L 495.176499 318.283508 
L 495.396132 416.106662 
L 495.835396 303.103316 
L 496.055028 305.896165 
L 496.274661 419.758813 
L 496.494293 462.832582 
L 496.713925 368.240668 
L 496.933558 482.058557 
L 497.15319 500.177572 
L 497.372822 505.177099 
L 497.592454 420.268115 
L 497.812087 395.065972 
L 498.031719 354.732326 
L 498.251351 420.485314 
L 498.470984 436.624053 
L 498.690616 480.842184 
L 498.910248 398.961189 
L 499.349513 328.974053 
L 499.569145 343.373616 
L 499.788777 479.416532 
L 500.00841 387.454988 
L 500.228042 398.967353 
L 500.447674 463.649564 
L 500.667306 395.533731 
L 500.886939 365.400216 
L 501.106571 406.717026 
L 501.326203 418.858197 
L 501.545836 484.367941 
L 501.765468 311.273531 
L 502.204732 535.936136 
L 502.424365 427.762811 
L 502.643997 447.15419 
L 503.302894 329.611581 
L 503.522526 410.615281 
L 503.742158 293.479347 
L 503.961791 436.308858 
L 504.181423 406.799367 
L 504.401055 454.099329 
L 504.620687 461.540073 
L 505.059952 371.88879 
L 505.279584 369.784968 
L 505.499217 453.07252 
L 505.718849 463.910351 
L 506.158113 363.996758 
L 506.377746 402.994854 
L 506.597378 348.387708 
L 506.81701 385.202796 
L 507.036643 360.798712 
L 507.256275 429.772364 
L 507.475907 443.801871 
L 507.695539 401.672328 
L 507.915172 300.447725 
L 508.134804 454.223134 
L 508.354436 306.177243 
L 508.574069 433.352268 
L 508.793701 314.361313 
L 509.232965 459.649997 
L 509.452598 356.178751 
L 509.67223 418.162003 
L 510.111495 455.049427 
L 510.331127 423.370102 
L 510.550759 361.607819 
L 510.770391 454.09854 
L 510.990024 437.818321 
L 511.209656 328.22097 
L 511.429288 489.58832 
L 511.648921 334.83932 
L 511.868553 460.717623 
L 512.088185 411.620976 
L 512.307817 411.988943 
L 512.52745 463.378582 
L 512.747082 444.524911 
L 512.966714 311.517575 
L 513.405979 460.764005 
L 513.625611 439.318639 
L 513.845243 394.896119 
L 514.064876 317.119086 
L 514.284508 387.539628 
L 514.50414 300.900948 
L 514.723773 440.585136 
L 514.943405 431.72488 
L 515.163037 384.961924 
L 515.382669 400.352032 
L 515.602302 443.586729 
L 515.821934 417.277513 
L 516.041566 418.806093 
L 516.261199 378.149168 
L 516.480831 429.086148 
L 516.700463 410.767394 
L 516.920095 291.915919 
L 517.139728 501.21722 
L 517.35936 305.997712 
L 517.578992 319.647128 
L 517.798625 322.596682 
L 518.018257 334.268715 
L 518.237889 406.041079 
L 518.457521 390.419153 
L 518.677154 458.499899 
L 518.896786 568.462639 
L 519.33605 404.475098 
L 519.555683 355.136471 
L 519.775315 470.862562 
L 519.994947 334.772814 
L 520.21458 327.300402 
L 520.434212 331.413016 
L 520.653844 218.033068 
L 520.873476 446.326122 
L 521.093109 453.696529 
L 521.312741 389.325475 
L 521.532373 494.121716 
L 521.752006 404.814939 
L 521.971638 434.218582 
L 522.19127 392.557754 
L 522.410902 299.10334 
L 522.630535 392.772422 
L 522.850167 427.715453 
L 523.069799 352.237701 
L 523.289432 503.715753 
L 523.509064 372.428288 
L 523.728696 414.628288 
L 523.948328 334.326659 
L 524.167961 339.539422 
L 524.387593 371.598413 
L 524.607225 383.673097 
L 524.826858 408.360661 
L 525.04649 488.078928 
L 525.266122 360.857913 
L 525.485754 439.747389 
L 525.705387 320.671129 
L 526.144651 538.908472 
L 526.364284 331.404988 
L 526.583916 314.635382 
L 526.803548 428.628274 
L 527.02318 433.855429 
L 527.462445 333.44803 
L 527.682077 404.410565 
L 527.90171 338.102494 
L 528.121342 446.300694 
L 528.340974 331.936977 
L 528.560606 376.598553 
L 528.780239 352.910018 
L 528.999871 365.004211 
L 529.219503 370.824863 
L 529.439136 315.948257 
L 529.658768 342.963184 
L 529.8784 341.663276 
L 530.098032 450.226696 
L 530.317665 317.396652 
L 530.537297 480.072806 
L 530.756929 328.774432 
L 531.196194 400.56778 
L 531.415826 374.41564 
L 531.635458 370.190673 
L 531.855091 407.763713 
L 532.074723 396.963892 
L 532.294355 370.438918 
L 532.73362 451.263153 
L 532.953252 424.803553 
L 533.172884 458.652334 
L 533.392517 434.950145 
L 533.612149 330.950396 
L 533.831781 398.945036 
L 534.051413 345.967784 
L 534.271046 441.315187 
L 534.490678 458.446109 
L 534.71031 324.157397 
L 534.929943 380.540661 
L 535.369207 408.934785 
L 535.588839 449.170277 
L 535.808472 433.776332 
L 536.028104 326.212148 
L 536.247736 433.473565 
L 536.467369 450.110625 
L 536.687001 450.235934 
L 536.906633 362.995769 
L 537.126265 440.578583 
L 537.345898 423.549101 
L 537.56553 429.028039 
L 537.785162 404.141338 
L 538.004795 319.390969 
L 538.224427 305.356071 
L 538.444059 400.896871 
L 538.883324 442.478292 
L 539.102956 484.993776 
L 539.322588 407.882475 
L 539.542221 276.695388 
L 539.761853 440.979161 
L 539.981485 326.876668 
L 540.201117 472.915817 
L 540.640382 312.10333 
L 540.860014 439.142358 
L 541.079647 350.172951 
L 541.299279 384.322369 
L 541.518911 287.421267 
L 541.738543 344.883719 
L 541.958176 490.401016 
L 542.177808 291.935114 
L 542.39744 398.901859 
L 542.617073 351.863646 
L 542.836705 362.447175 
L 543.056337 402.689271 
L 543.275969 399.901131 
L 543.495602 386.920839 
L 543.715234 314.688532 
L 544.154499 372.417707 
L 544.374131 325.682229 
L 544.593763 399.65783 
L 544.813395 321.805092 
L 545.033028 387.413407 
L 545.472292 443.784319 
L 545.691925 317.449839 
L 545.911557 502.597165 
L 545.911557 502.597165 
" style="fill:none;stroke:#96c69a;stroke-linecap:round;stroke-width:3;"/>
   </g>
   <g id="line2d_2"/>
   <g id="patch_3">
    <path d="M 84.914375 602.94 
L 84.914375 109.326857 
" style="fill:none;stroke:#262626;stroke-linecap:square;stroke-linejoin:miter;stroke-width:2.5;"/>
   </g>
   <g id="patch_4">
    <path d="M 84.914375 602.94 
L 567.863804 602.94 
" style="fill:none;stroke:#262626;stroke-linecap:square;stroke-linejoin:miter;stroke-width:2.5;"/>
   </g>
   <g id="legend_1">
    <g id="patch_5">
     <path d="M 514.948179 597.94 
L 560.863804 597.94 
Q 562.863804 597.94 562.863804 595.94 
L 562.863804 554.034375 
Q 562.863804 552.034375 560.863804 552.034375 
L 514.948179 552.034375 
Q 512.948179 552.034375 512.948179 554.034375 
L 512.948179 595.94 
Q 512.948179 597.94 514.948179 597.94 
z
" style="fill:#ffffff;opacity:0.8;stroke:#cccccc;stroke-linejoin:miter;stroke-width:2;"/>
    </g>
    <g id="text_14">
     <!-- $n_\tau$ -->
     <g style="fill:#262626;" transform="translate(524.825991 574.270625)scale(0.24 -0.24)">
      <defs>
       <path d="M 3566 2113 
L 3156 0 
L 2578 0 
L 2988 2091 
Q 3016 2238 3031 2350 
Q 3047 2463 3047 2528 
Q 3047 2791 2881 2937 
Q 2716 3084 2419 3084 
Q 1956 3084 1622 2776 
Q 1288 2469 1184 1941 
L 800 0 
L 225 0 
L 903 3500 
L 1478 3500 
L 1363 2950 
Q 1603 3253 1940 3418 
Q 2278 3584 2650 3584 
Q 3113 3584 3367 3334 
Q 3622 3084 3622 2631 
Q 3622 2519 3608 2391 
Q 3594 2263 3566 2113 
z
" id="DejaVuSans-Oblique-6e" transform="scale(0.015625)"/>
       <path d="M 2103 638 
Q 2188 488 2525 488 
L 2800 488 
L 2706 0 
L 2363 0 
Q 1800 0 1600 300 
Q 1403 606 1534 1269 
L 1856 2925 
L 541 2925 
L 653 3500 
L 3881 3500 
L 3769 2925 
L 2444 2925 
L 2113 1234 
Q 2025 781 2103 638 
z
" id="DejaVuSans-Oblique-3c4" transform="scale(0.015625)"/>
      </defs>
      <use xlink:href="#DejaVuSans-Oblique-6e"/>
      <use transform="translate(63.378906 -16.40625)scale(0.7)" xlink:href="#DejaVuSans-Oblique-3c4"/>
     </g>
    </g>
    <g id="line2d_3">
     <path d="M 516.948179 588.360312 
L 536.948179 588.360312 
" style="fill:none;stroke:#96c69a;stroke-linecap:round;stroke-width:3;"/>
    </g>
    <g id="line2d_4"/>
    <g id="text_15">
     <!-- 25 -->
     <g style="fill:#262626;" transform="translate(544.948179 591.860312)scale(0.1 -0.1)">
      <defs>
       <path d="M 1844 884 
L 3897 884 
L 3897 0 
L 506 0 
L 506 884 
L 2209 2388 
Q 2438 2594 2547 2791 
Q 2656 2988 2656 3200 
Q 2656 3528 2436 3728 
Q 2216 3928 1850 3928 
Q 1569 3928 1234 3808 
Q 900 3688 519 3450 
L 519 4475 
Q 925 4609 1322 4679 
Q 1719 4750 2100 4750 
Q 2938 4750 3402 4381 
Q 3866 4013 3866 3353 
Q 3866 2972 3669 2642 
Q 3472 2313 2841 1759 
L 1844 884 
z
" id="DejaVuSans-Bold-32" transform="scale(0.015625)"/>
       <path d="M 678 4666 
L 3669 4666 
L 3669 3781 
L 1638 3781 
L 1638 3059 
Q 1775 3097 1914 3117 
Q 2053 3138 2203 3138 
Q 3056 3138 3531 2711 
Q 4006 2284 4006 1522 
Q 4006 766 3489 337 
Q 2972 -91 2053 -91 
Q 1656 -91 1267 -14 
Q 878 63 494 219 
L 494 1166 
Q 875 947 1217 837 
Q 1559 728 1863 728 
Q 2300 728 2551 942 
Q 2803 1156 2803 1522 
Q 2803 1891 2551 2103 
Q 2300 2316 1863 2316 
Q 1603 2316 1309 2248 
Q 1016 2181 678 2041 
L 678 4666 
z
" id="DejaVuSans-Bold-35" transform="scale(0.015625)"/>
      </defs>
      <use xlink:href="#DejaVuSans-Bold-32"/>
      <use x="69.580078" xlink:href="#DejaVuSans-Bold-35"/>
     </g>
    </g>
   </g>
  </g>
  <g id="axes_2">
   <g id="patch_6">
    <path d="M 84.914375 92.305714 
L 567.863804 92.305714 
L 567.863804 7.2 
L 84.914375 7.2 
z
" style="fill:none;"/>
   </g>
   <g id="matplotlib.axis_3">
    <g id="xtick_7"/>
    <g id="xtick_8"/>
    <g id="xtick_9"/>
    <g id="xtick_10"/>
    <g id="xtick_11"/>
    <g id="xtick_12"/>
   </g>
   <g id="matplotlib.axis_4">
    <g id="ytick_6">
     <g id="text_16">
      <!-- 0 -->
      <g style="fill:#262626;" transform="translate(55.416875 100.663996)scale(0.22 -0.22)">
       <use xlink:href="#DejaVuSans-30"/>
      </g>
     </g>
    </g>
    <g id="ytick_7">
     <g id="text_17">
      <!-- 100 -->
      <g style="fill:#262626;" transform="translate(27.421875 48.032138)scale(0.22 -0.22)">
       <use xlink:href="#DejaVuSans-31"/>
       <use x="63.623047" xlink:href="#DejaVuSans-30"/>
       <use x="127.246094" xlink:href="#DejaVuSans-30"/>
      </g>
     </g>
    </g>
   </g>
   <g id="patch_7">
    <path clip-path="url(#p0ee026298a)" d="M 106.866622 92.305714 
L 140.639309 92.305714 
L 140.639309 11.252653 
L 106.866622 11.252653 
z
" style="fill:#96c69a;fill-opacity:0.5;stroke:#ffffff;stroke-linejoin:miter;stroke-width:2;"/>
   </g>
   <g id="patch_8">
    <path clip-path="url(#p0ee026298a)" d="M 140.639309 92.305714 
L 174.411996 92.305714 
L 174.411996 11.252653 
L 140.639309 11.252653 
z
" style="fill:#96c69a;fill-opacity:0.5;stroke:#ffffff;stroke-linejoin:miter;stroke-width:2;"/>
   </g>
   <g id="patch_9">
    <path clip-path="url(#p0ee026298a)" d="M 174.411996 92.305714 
L 208.184684 92.305714 
L 208.184684 11.252653 
L 174.411996 11.252653 
z
" style="fill:#96c69a;fill-opacity:0.5;stroke:#ffffff;stroke-linejoin:miter;stroke-width:2;"/>
   </g>
   <g id="patch_10">
    <path clip-path="url(#p0ee026298a)" d="M 208.184684 92.305714 
L 241.957371 92.305714 
L 241.957371 11.252653 
L 208.184684 11.252653 
z
" style="fill:#96c69a;fill-opacity:0.5;stroke:#ffffff;stroke-linejoin:miter;stroke-width:2;"/>
   </g>
   <g id="patch_11">
    <path clip-path="url(#p0ee026298a)" d="M 241.957371 92.305714 
L 275.730058 92.305714 
L 275.730058 11.778972 
L 241.957371 11.778972 
z
" style="fill:#96c69a;fill-opacity:0.5;stroke:#ffffff;stroke-linejoin:miter;stroke-width:2;"/>
   </g>
   <g id="patch_12">
    <path clip-path="url(#p0ee026298a)" d="M 275.730058 92.305714 
L 309.502746 92.305714 
L 309.502746 11.252653 
L 275.730058 11.252653 
z
" style="fill:#96c69a;fill-opacity:0.5;stroke:#ffffff;stroke-linejoin:miter;stroke-width:2;"/>
   </g>
   <g id="patch_13">
    <path clip-path="url(#p0ee026298a)" d="M 309.502746 92.305714 
L 343.275433 92.305714 
L 343.275433 11.252653 
L 309.502746 11.252653 
z
" style="fill:#96c69a;fill-opacity:0.5;stroke:#ffffff;stroke-linejoin:miter;stroke-width:2;"/>
   </g>
   <g id="patch_14">
    <path clip-path="url(#p0ee026298a)" d="M 343.275433 92.305714 
L 377.04812 92.305714 
L 377.04812 11.252653 
L 343.275433 11.252653 
z
" style="fill:#96c69a;fill-opacity:0.5;stroke:#ffffff;stroke-linejoin:miter;stroke-width:2;"/>
   </g>
   <g id="patch_15">
    <path clip-path="url(#p0ee026298a)" d="M 377.04812 92.305714 
L 410.820808 92.305714 
L 410.820808 11.778972 
L 377.04812 11.778972 
z
" style="fill:#96c69a;fill-opacity:0.5;stroke:#ffffff;stroke-linejoin:miter;stroke-width:2;"/>
   </g>
   <g id="patch_16">
    <path clip-path="url(#p0ee026298a)" d="M 410.820808 92.305714 
L 444.593495 92.305714 
L 444.593495 11.252653 
L 410.820808 11.252653 
z
" style="fill:#96c69a;fill-opacity:0.5;stroke:#ffffff;stroke-linejoin:miter;stroke-width:2;"/>
   </g>
   <g id="patch_17">
    <path clip-path="url(#p0ee026298a)" d="M 444.593495 92.305714 
L 478.366182 92.305714 
L 478.366182 11.252653 
L 444.593495 11.252653 
z
" style="fill:#96c69a;fill-opacity:0.5;stroke:#ffffff;stroke-linejoin:miter;stroke-width:2;"/>
   </g>
   <g id="patch_18">
    <path clip-path="url(#p0ee026298a)" d="M 478.366182 92.305714 
L 512.13887 92.305714 
L 512.13887 11.252653 
L 478.366182 11.252653 
z
" style="fill:#96c69a;fill-opacity:0.5;stroke:#ffffff;stroke-linejoin:miter;stroke-width:2;"/>
   </g>
   <g id="patch_19">
    <path clip-path="url(#p0ee026298a)" d="M 512.13887 92.305714 
L 545.911557 92.305714 
L 545.911557 11.252653 
L 512.13887 11.252653 
z
" style="fill:#96c69a;fill-opacity:0.5;stroke:#ffffff;stroke-linejoin:miter;stroke-width:2;"/>
   </g>
   <g id="patch_20">
    <path d="M 84.914375 92.305714 
L 84.914375 7.2 
" style="fill:none;stroke:#262626;stroke-linecap:square;stroke-linejoin:miter;stroke-width:2.5;"/>
   </g>
   <g id="patch_21">
    <path d="M 84.914375 92.305714 
L 567.863804 92.305714 
" style="fill:none;stroke:#262626;stroke-linecap:square;stroke-linejoin:miter;stroke-width:2.5;"/>
   </g>
  </g>
  <g id="axes_3">
   <g id="patch_22">
    <path d="M 584.517232 602.94 
L 667.784375 602.94 
L 667.784375 109.326857 
L 584.517232 109.326857 
z
" style="fill:none;"/>
   </g>
   <g id="matplotlib.axis_5">
    <g id="xtick_13">
     <g id="text_18">
      <!-- 0 -->
      <g style="fill:#262626;" transform="translate(577.518482 635.156562)scale(0.22 -0.22)">
       <use xlink:href="#DejaVuSans-30"/>
      </g>
     </g>
    </g>
    <g id="xtick_14">
     <g id="text_19">
      <!-- 100 -->
      <g style="fill:#262626;" transform="translate(609.096868 635.156562)scale(0.22 -0.22)">
       <use xlink:href="#DejaVuSans-31"/>
       <use x="63.623047" xlink:href="#DejaVuSans-30"/>
       <use x="127.246094" xlink:href="#DejaVuSans-30"/>
      </g>
     </g>
    </g>
   </g>
   <g id="matplotlib.axis_6">
    <g id="ytick_8"/>
    <g id="ytick_9"/>
    <g id="ytick_10"/>
    <g id="ytick_11"/>
    <g id="ytick_12"/>
   </g>
   <g id="patch_23">
    <path clip-path="url(#pbeb74a1cd1)" d="M 584.517232 580.503039 
L 585.42875 580.503039 
L 585.42875 566.904881 
L 584.517232 566.904881 
z
" style="fill:#96c69a;fill-opacity:0.5;stroke:#ffffff;stroke-linejoin:miter;stroke-width:1.359816;"/>
   </g>
   <g id="patch_24">
    <path clip-path="url(#pbeb74a1cd1)" d="M 584.517232 566.904881 
L 586.796026 566.904881 
L 586.796026 553.306723 
L 584.517232 553.306723 
z
" style="fill:#96c69a;fill-opacity:0.5;stroke:#ffffff;stroke-linejoin:miter;stroke-width:1.359816;"/>
   </g>
   <g id="patch_25">
    <path clip-path="url(#pbeb74a1cd1)" d="M 584.517232 553.306723 
L 588.619062 553.306723 
L 588.619062 539.708564 
L 584.517232 539.708564 
z
" style="fill:#96c69a;fill-opacity:0.5;stroke:#ffffff;stroke-linejoin:miter;stroke-width:1.359816;"/>
   </g>
   <g id="patch_26">
    <path clip-path="url(#pbeb74a1cd1)" d="M 584.517232 539.708564 
L 591.353615 539.708564 
L 591.353615 526.110406 
L 584.517232 526.110406 
z
" style="fill:#96c69a;fill-opacity:0.5;stroke:#ffffff;stroke-linejoin:miter;stroke-width:1.359816;"/>
   </g>
   <g id="patch_27">
    <path clip-path="url(#pbeb74a1cd1)" d="M 584.517232 526.110406 
L 589.074821 526.110406 
L 589.074821 512.512248 
L 584.517232 512.512248 
z
" style="fill:#96c69a;fill-opacity:0.5;stroke:#ffffff;stroke-linejoin:miter;stroke-width:1.359816;"/>
   </g>
   <g id="patch_28">
    <path clip-path="url(#pbeb74a1cd1)" d="M 584.517232 512.512248 
L 602.291827 512.512248 
L 602.291827 498.91409 
L 584.517232 498.91409 
z
" style="fill:#96c69a;fill-opacity:0.5;stroke:#ffffff;stroke-linejoin:miter;stroke-width:1.359816;"/>
   </g>
   <g id="patch_29">
    <path clip-path="url(#pbeb74a1cd1)" d="M 584.517232 498.91409 
L 608.672451 498.91409 
L 608.672451 485.315932 
L 584.517232 485.315932 
z
" style="fill:#96c69a;fill-opacity:0.5;stroke:#ffffff;stroke-linejoin:miter;stroke-width:1.359816;"/>
   </g>
   <g id="patch_30">
    <path clip-path="url(#pbeb74a1cd1)" d="M 584.517232 485.315932 
L 621.433699 485.315932 
L 621.433699 471.717773 
L 584.517232 471.717773 
z
" style="fill:#96c69a;fill-opacity:0.5;stroke:#ffffff;stroke-linejoin:miter;stroke-width:1.359816;"/>
   </g>
   <g id="patch_31">
    <path clip-path="url(#pbeb74a1cd1)" d="M 584.517232 471.717773 
L 621.433699 471.717773 
L 621.433699 458.119615 
L 584.517232 458.119615 
z
" style="fill:#96c69a;fill-opacity:0.5;stroke:#ffffff;stroke-linejoin:miter;stroke-width:1.359816;"/>
   </g>
   <g id="patch_32">
    <path clip-path="url(#pbeb74a1cd1)" d="M 584.517232 458.119615 
L 636.473742 458.119615 
L 636.473742 444.521457 
L 584.517232 444.521457 
z
" style="fill:#96c69a;fill-opacity:0.5;stroke:#ffffff;stroke-linejoin:miter;stroke-width:1.359816;"/>
   </g>
   <g id="patch_33">
    <path clip-path="url(#pbeb74a1cd1)" d="M 584.517232 444.521457 
L 651.058025 444.521457 
L 651.058025 430.923299 
L 584.517232 430.923299 
z
" style="fill:#96c69a;fill-opacity:0.5;stroke:#ffffff;stroke-linejoin:miter;stroke-width:1.359816;"/>
   </g>
   <g id="patch_34">
    <path clip-path="url(#pbeb74a1cd1)" d="M 584.517232 430.923299 
L 660.628961 430.923299 
L 660.628961 417.32514 
L 584.517232 417.32514 
z
" style="fill:#96c69a;fill-opacity:0.5;stroke:#ffffff;stroke-linejoin:miter;stroke-width:1.359816;"/>
   </g>
   <g id="patch_35">
    <path clip-path="url(#pbeb74a1cd1)" d="M 584.517232 417.32514 
L 663.819273 417.32514 
L 663.819273 403.726982 
L 584.517232 403.726982 
z
" style="fill:#96c69a;fill-opacity:0.5;stroke:#ffffff;stroke-linejoin:miter;stroke-width:1.359816;"/>
   </g>
   <g id="patch_36">
    <path clip-path="url(#pbeb74a1cd1)" d="M 584.517232 403.726982 
L 663.819273 403.726982 
L 663.819273 390.128824 
L 584.517232 390.128824 
z
" style="fill:#96c69a;fill-opacity:0.5;stroke:#ffffff;stroke-linejoin:miter;stroke-width:1.359816;"/>
   </g>
   <g id="patch_37">
    <path clip-path="url(#pbeb74a1cd1)" d="M 584.517232 390.128824 
L 658.805926 390.128824 
L 658.805926 376.530666 
L 584.517232 376.530666 
z
" style="fill:#96c69a;fill-opacity:0.5;stroke:#ffffff;stroke-linejoin:miter;stroke-width:1.359816;"/>
   </g>
   <g id="patch_38">
    <path clip-path="url(#pbeb74a1cd1)" d="M 584.517232 376.530666 
L 652.88106 376.530666 
L 652.88106 362.932508 
L 584.517232 362.932508 
z
" style="fill:#96c69a;fill-opacity:0.5;stroke:#ffffff;stroke-linejoin:miter;stroke-width:1.359816;"/>
   </g>
   <g id="patch_39">
    <path clip-path="url(#pbeb74a1cd1)" d="M 584.517232 362.932508 
L 638.296777 362.932508 
L 638.296777 349.334349 
L 584.517232 349.334349 
z
" style="fill:#96c69a;fill-opacity:0.5;stroke:#ffffff;stroke-linejoin:miter;stroke-width:1.359816;"/>
   </g>
   <g id="patch_40">
    <path clip-path="url(#pbeb74a1cd1)" d="M 584.517232 349.334349 
L 635.562224 349.334349 
L 635.562224 335.736191 
L 584.517232 335.736191 
z
" style="fill:#96c69a;fill-opacity:0.5;stroke:#ffffff;stroke-linejoin:miter;stroke-width:1.359816;"/>
   </g>
   <g id="patch_41">
    <path clip-path="url(#pbeb74a1cd1)" d="M 584.517232 335.736191 
L 630.093118 335.736191 
L 630.093118 322.138033 
L 584.517232 322.138033 
z
" style="fill:#96c69a;fill-opacity:0.5;stroke:#ffffff;stroke-linejoin:miter;stroke-width:1.359816;"/>
   </g>
   <g id="patch_42">
    <path clip-path="url(#pbeb74a1cd1)" d="M 584.517232 322.138033 
L 620.977941 322.138033 
L 620.977941 308.539875 
L 584.517232 308.539875 
z
" style="fill:#96c69a;fill-opacity:0.5;stroke:#ffffff;stroke-linejoin:miter;stroke-width:1.359816;"/>
   </g>
   <g id="patch_43">
    <path clip-path="url(#pbeb74a1cd1)" d="M 584.517232 308.539875 
L 610.039728 308.539875 
L 610.039728 294.941717 
L 584.517232 294.941717 
z
" style="fill:#96c69a;fill-opacity:0.5;stroke:#ffffff;stroke-linejoin:miter;stroke-width:1.359816;"/>
   </g>
   <g id="patch_44">
    <path clip-path="url(#pbeb74a1cd1)" d="M 584.517232 294.941717 
L 609.12821 294.941717 
L 609.12821 281.343558 
L 584.517232 281.343558 
z
" style="fill:#96c69a;fill-opacity:0.5;stroke:#ffffff;stroke-linejoin:miter;stroke-width:1.359816;"/>
   </g>
   <g id="patch_45">
    <path clip-path="url(#pbeb74a1cd1)" d="M 584.517232 281.343558 
L 600.013033 281.343558 
L 600.013033 267.7454 
L 584.517232 267.7454 
z
" style="fill:#96c69a;fill-opacity:0.5;stroke:#ffffff;stroke-linejoin:miter;stroke-width:1.359816;"/>
   </g>
   <g id="patch_46">
    <path clip-path="url(#pbeb74a1cd1)" d="M 584.517232 267.7454 
L 594.088168 267.7454 
L 594.088168 254.147242 
L 584.517232 254.147242 
z
" style="fill:#96c69a;fill-opacity:0.5;stroke:#ffffff;stroke-linejoin:miter;stroke-width:1.359816;"/>
   </g>
   <g id="patch_47">
    <path clip-path="url(#pbeb74a1cd1)" d="M 584.517232 254.147242 
L 589.53058 254.147242 
L 589.53058 240.549084 
L 584.517232 240.549084 
z
" style="fill:#96c69a;fill-opacity:0.5;stroke:#ffffff;stroke-linejoin:miter;stroke-width:1.359816;"/>
   </g>
   <g id="patch_48">
    <path clip-path="url(#pbeb74a1cd1)" d="M 584.517232 240.549084 
L 587.707544 240.549084 
L 587.707544 226.950926 
L 584.517232 226.950926 
z
" style="fill:#96c69a;fill-opacity:0.5;stroke:#ffffff;stroke-linejoin:miter;stroke-width:1.359816;"/>
   </g>
   <g id="patch_49">
    <path clip-path="url(#pbeb74a1cd1)" d="M 584.517232 226.950926 
L 589.53058 226.950926 
L 589.53058 213.352767 
L 584.517232 213.352767 
z
" style="fill:#96c69a;fill-opacity:0.5;stroke:#ffffff;stroke-linejoin:miter;stroke-width:1.359816;"/>
   </g>
   <g id="patch_50">
    <path clip-path="url(#pbeb74a1cd1)" d="M 584.517232 213.352767 
L 586.340268 213.352767 
L 586.340268 199.754609 
L 584.517232 199.754609 
z
" style="fill:#96c69a;fill-opacity:0.5;stroke:#ffffff;stroke-linejoin:miter;stroke-width:1.359816;"/>
   </g>
   <g id="patch_51">
    <path clip-path="url(#pbeb74a1cd1)" d="M 584.517232 199.754609 
L 586.796026 199.754609 
L 586.796026 186.156451 
L 584.517232 186.156451 
z
" style="fill:#96c69a;fill-opacity:0.5;stroke:#ffffff;stroke-linejoin:miter;stroke-width:1.359816;"/>
   </g>
   <g id="patch_52">
    <path clip-path="url(#pbeb74a1cd1)" d="M 584.517232 186.156451 
L 585.884509 186.156451 
L 585.884509 172.558293 
L 584.517232 172.558293 
z
" style="fill:#96c69a;fill-opacity:0.5;stroke:#ffffff;stroke-linejoin:miter;stroke-width:1.359816;"/>
   </g>
   <g id="patch_53">
    <path clip-path="url(#pbeb74a1cd1)" d="M 584.517232 172.558293 
L 584.517232 172.558293 
L 584.517232 158.960135 
L 584.517232 158.960135 
z
" style="fill:#96c69a;fill-opacity:0.5;stroke:#ffffff;stroke-linejoin:miter;stroke-width:1.359816;"/>
   </g>
   <g id="patch_54">
    <path clip-path="url(#pbeb74a1cd1)" d="M 584.517232 158.960135 
L 584.517232 158.960135 
L 584.517232 145.361976 
L 584.517232 145.361976 
z
" style="fill:#96c69a;fill-opacity:0.5;stroke:#ffffff;stroke-linejoin:miter;stroke-width:1.359816;"/>
   </g>
   <g id="patch_55">
    <path clip-path="url(#pbeb74a1cd1)" d="M 584.517232 145.361976 
L 584.972991 145.361976 
L 584.972991 131.763818 
L 584.517232 131.763818 
z
" style="fill:#96c69a;fill-opacity:0.5;stroke:#ffffff;stroke-linejoin:miter;stroke-width:1.359816;"/>
   </g>
   <g id="patch_56">
    <path d="M 584.517232 602.94 
L 584.517232 109.326857 
" style="fill:none;stroke:#262626;stroke-linecap:square;stroke-linejoin:miter;stroke-width:2.5;"/>
   </g>
   <g id="patch_57">
    <path d="M 584.517232 602.94 
L 667.784375 602.94 
" style="fill:none;stroke:#262626;stroke-linecap:square;stroke-linejoin:miter;stroke-width:2.5;"/>
   </g>
  </g>
 </g>
 <defs>
  <clipPath id="pbb96491a4a">
   <rect height="493.613143" width="482.949429" x="84.914375" y="109.326857"/>
  </clipPath>
  <clipPath id="p0ee026298a">
   <rect height="85.105714" width="482.949429" x="84.914375" y="7.2"/>
  </clipPath>
  <clipPath id="pbeb74a1cd1">
   <rect height="493.613143" width="83.267143" x="584.517232" y="109.326857"/>
  </clipPath>
 </defs>
</svg>
