<?xml version="1.0" encoding="utf-8" standalone="no"?>
<!DOCTYPE svg PUBLIC "-//W3C//DTD SVG 1.1//EN"
  "http://www.w3.org/Graphics/SVG/1.1/DTD/svg11.dtd">
<svg height="674.159375pt" version="1.1" viewBox="0 0 700.138798 674.159375" width="700.138798pt" xmlns="http://www.w3.org/2000/svg" xmlns:xlink="http://www.w3.org/1999/xlink">
 <metadata>
  <rdf:RDF xmlns:cc="http://creativecommons.org/ns#" xmlns:dc="http://purl.org/dc/elements/1.1/" xmlns:rdf="http://www.w3.org/1999/02/22-rdf-syntax-ns#">
   <cc:Work>
    <dc:type rdf:resource="http://purl.org/dc/dcmitype/StillImage"/>
    <dc:date>2021-07-24T14:50:52.734760</dc:date>
    <dc:format>image/svg+xml</dc:format>
    <dc:creator>
     <cc:Agent>
      <dc:title>Matplotlib v3.4.2, https://matplotlib.org/</dc:title>
     </cc:Agent>
    </dc:creator>
   </cc:Work>
  </rdf:RDF>
 </metadata>
 <defs>
  <style type="text/css">*{stroke-linecap:butt;stroke-linejoin:round;}</style>
 </defs>
 <g id="figure_1">
  <g id="patch_1">
   <path d="M 0 674.159375 
L 700.138798 674.159375 
L 700.138798 0 
L 0 0 
z
" style="fill:#ffffff;"/>
  </g>
  <g id="axes_1">
   <g id="patch_2">
    <path d="M 98.911875 602.94 
L 581.861304 602.94 
L 581.861304 109.326857 
L 98.911875 109.326857 
z
" style="fill:none;"/>
   </g>
   <g id="matplotlib.axis_1">
    <g id="xtick_1">
     <g id="text_1">
      <!-- 0 -->
      <g style="fill:#262626;" transform="translate(113.425887 635.156562)scale(0.22 -0.22)">
       <defs>
        <path d="M 2034 4250 
Q 1547 4250 1301 3770 
Q 1056 3291 1056 2328 
Q 1056 1369 1301 889 
Q 1547 409 2034 409 
Q 2525 409 2770 889 
Q 3016 1369 3016 2328 
Q 3016 3291 2770 3770 
Q 2525 4250 2034 4250 
z
M 2034 4750 
Q 2819 4750 3233 4129 
Q 3647 3509 3647 2328 
Q 3647 1150 3233 529 
Q 2819 -91 2034 -91 
Q 1250 -91 836 529 
Q 422 1150 422 2328 
Q 422 3509 836 4129 
Q 1250 4750 2034 4750 
z
" id="DejaVuSans-30" transform="scale(0.015625)"/>
       </defs>
       <use xlink:href="#DejaVuSans-30"/>
      </g>
     </g>
    </g>
    <g id="xtick_2">
     <g id="text_2">
      <!-- 20000 -->
      <g style="fill:#262626;" transform="translate(173.327771 635.156562)scale(0.22 -0.22)">
       <defs>
        <path d="M 1228 531 
L 3431 531 
L 3431 0 
L 469 0 
L 469 531 
Q 828 903 1448 1529 
Q 2069 2156 2228 2338 
Q 2531 2678 2651 2914 
Q 2772 3150 2772 3378 
Q 2772 3750 2511 3984 
Q 2250 4219 1831 4219 
Q 1534 4219 1204 4116 
Q 875 4013 500 3803 
L 500 4441 
Q 881 4594 1212 4672 
Q 1544 4750 1819 4750 
Q 2544 4750 2975 4387 
Q 3406 4025 3406 3419 
Q 3406 3131 3298 2873 
Q 3191 2616 2906 2266 
Q 2828 2175 2409 1742 
Q 1991 1309 1228 531 
z
" id="DejaVuSans-32" transform="scale(0.015625)"/>
       </defs>
       <use xlink:href="#DejaVuSans-32"/>
       <use x="63.623047" xlink:href="#DejaVuSans-30"/>
       <use x="127.246094" xlink:href="#DejaVuSans-30"/>
       <use x="190.869141" xlink:href="#DejaVuSans-30"/>
       <use x="254.492188" xlink:href="#DejaVuSans-30"/>
      </g>
     </g>
    </g>
    <g id="xtick_3">
     <g id="text_3">
      <!-- 40000 -->
      <g style="fill:#262626;" transform="translate(261.224655 635.156562)scale(0.22 -0.22)">
       <defs>
        <path d="M 2419 4116 
L 825 1625 
L 2419 1625 
L 2419 4116 
z
M 2253 4666 
L 3047 4666 
L 3047 1625 
L 3713 1625 
L 3713 1100 
L 3047 1100 
L 3047 0 
L 2419 0 
L 2419 1100 
L 313 1100 
L 313 1709 
L 2253 4666 
z
" id="DejaVuSans-34" transform="scale(0.015625)"/>
       </defs>
       <use xlink:href="#DejaVuSans-34"/>
       <use x="63.623047" xlink:href="#DejaVuSans-30"/>
       <use x="127.246094" xlink:href="#DejaVuSans-30"/>
       <use x="190.869141" xlink:href="#DejaVuSans-30"/>
       <use x="254.492188" xlink:href="#DejaVuSans-30"/>
      </g>
     </g>
    </g>
    <g id="xtick_4">
     <g id="text_4">
      <!-- 60000 -->
      <g style="fill:#262626;" transform="translate(349.121539 635.156562)scale(0.22 -0.22)">
       <defs>
        <path d="M 2113 2584 
Q 1688 2584 1439 2293 
Q 1191 2003 1191 1497 
Q 1191 994 1439 701 
Q 1688 409 2113 409 
Q 2538 409 2786 701 
Q 3034 994 3034 1497 
Q 3034 2003 2786 2293 
Q 2538 2584 2113 2584 
z
M 3366 4563 
L 3366 3988 
Q 3128 4100 2886 4159 
Q 2644 4219 2406 4219 
Q 1781 4219 1451 3797 
Q 1122 3375 1075 2522 
Q 1259 2794 1537 2939 
Q 1816 3084 2150 3084 
Q 2853 3084 3261 2657 
Q 3669 2231 3669 1497 
Q 3669 778 3244 343 
Q 2819 -91 2113 -91 
Q 1303 -91 875 529 
Q 447 1150 447 2328 
Q 447 3434 972 4092 
Q 1497 4750 2381 4750 
Q 2619 4750 2861 4703 
Q 3103 4656 3366 4563 
z
" id="DejaVuSans-36" transform="scale(0.015625)"/>
       </defs>
       <use xlink:href="#DejaVuSans-36"/>
       <use x="63.623047" xlink:href="#DejaVuSans-30"/>
       <use x="127.246094" xlink:href="#DejaVuSans-30"/>
       <use x="190.869141" xlink:href="#DejaVuSans-30"/>
       <use x="254.492188" xlink:href="#DejaVuSans-30"/>
      </g>
     </g>
    </g>
    <g id="xtick_5">
     <g id="text_5">
      <!-- 80000 -->
      <g style="fill:#262626;" transform="translate(437.018423 635.156562)scale(0.22 -0.22)">
       <defs>
        <path d="M 2034 2216 
Q 1584 2216 1326 1975 
Q 1069 1734 1069 1313 
Q 1069 891 1326 650 
Q 1584 409 2034 409 
Q 2484 409 2743 651 
Q 3003 894 3003 1313 
Q 3003 1734 2745 1975 
Q 2488 2216 2034 2216 
z
M 1403 2484 
Q 997 2584 770 2862 
Q 544 3141 544 3541 
Q 544 4100 942 4425 
Q 1341 4750 2034 4750 
Q 2731 4750 3128 4425 
Q 3525 4100 3525 3541 
Q 3525 3141 3298 2862 
Q 3072 2584 2669 2484 
Q 3125 2378 3379 2068 
Q 3634 1759 3634 1313 
Q 3634 634 3220 271 
Q 2806 -91 2034 -91 
Q 1263 -91 848 271 
Q 434 634 434 1313 
Q 434 1759 690 2068 
Q 947 2378 1403 2484 
z
M 1172 3481 
Q 1172 3119 1398 2916 
Q 1625 2713 2034 2713 
Q 2441 2713 2670 2916 
Q 2900 3119 2900 3481 
Q 2900 3844 2670 4047 
Q 2441 4250 2034 4250 
Q 1625 4250 1398 4047 
Q 1172 3844 1172 3481 
z
" id="DejaVuSans-38" transform="scale(0.015625)"/>
       </defs>
       <use xlink:href="#DejaVuSans-38"/>
       <use x="63.623047" xlink:href="#DejaVuSans-30"/>
       <use x="127.246094" xlink:href="#DejaVuSans-30"/>
       <use x="190.869141" xlink:href="#DejaVuSans-30"/>
       <use x="254.492188" xlink:href="#DejaVuSans-30"/>
      </g>
     </g>
    </g>
    <g id="xtick_6">
     <g id="text_6">
      <!-- 100000 -->
      <g style="fill:#262626;" transform="translate(517.916557 635.156562)scale(0.22 -0.22)">
       <defs>
        <path d="M 794 531 
L 1825 531 
L 1825 4091 
L 703 3866 
L 703 4441 
L 1819 4666 
L 2450 4666 
L 2450 531 
L 3481 531 
L 3481 0 
L 794 0 
L 794 531 
z
" id="DejaVuSans-31" transform="scale(0.015625)"/>
       </defs>
       <use xlink:href="#DejaVuSans-31"/>
       <use x="63.623047" xlink:href="#DejaVuSans-30"/>
       <use x="127.246094" xlink:href="#DejaVuSans-30"/>
       <use x="190.869141" xlink:href="#DejaVuSans-30"/>
       <use x="254.492188" xlink:href="#DejaVuSans-30"/>
       <use x="318.115234" xlink:href="#DejaVuSans-30"/>
      </g>
     </g>
    </g>
    <g id="text_7">
     <!-- MDTU -->
     <g style="fill:#262626;" transform="translate(304.680964 661.968125)scale(0.24 -0.24)">
      <defs>
       <path d="M 628 4666 
L 1569 4666 
L 2759 1491 
L 3956 4666 
L 4897 4666 
L 4897 0 
L 4281 0 
L 4281 4097 
L 3078 897 
L 2444 897 
L 1241 4097 
L 1241 0 
L 628 0 
L 628 4666 
z
" id="DejaVuSans-4d" transform="scale(0.015625)"/>
       <path d="M 1259 4147 
L 1259 519 
L 2022 519 
Q 2988 519 3436 956 
Q 3884 1394 3884 2338 
Q 3884 3275 3436 3711 
Q 2988 4147 2022 4147 
L 1259 4147 
z
M 628 4666 
L 1925 4666 
Q 3281 4666 3915 4102 
Q 4550 3538 4550 2338 
Q 4550 1131 3912 565 
Q 3275 0 1925 0 
L 628 0 
L 628 4666 
z
" id="DejaVuSans-44" transform="scale(0.015625)"/>
       <path d="M -19 4666 
L 3928 4666 
L 3928 4134 
L 2272 4134 
L 2272 0 
L 1638 0 
L 1638 4134 
L -19 4134 
L -19 4666 
z
" id="DejaVuSans-54" transform="scale(0.015625)"/>
       <path d="M 556 4666 
L 1191 4666 
L 1191 1831 
Q 1191 1081 1462 751 
Q 1734 422 2344 422 
Q 2950 422 3222 751 
Q 3494 1081 3494 1831 
L 3494 4666 
L 4128 4666 
L 4128 1753 
Q 4128 841 3676 375 
Q 3225 -91 2344 -91 
Q 1459 -91 1007 375 
Q 556 841 556 1753 
L 556 4666 
z
" id="DejaVuSans-55" transform="scale(0.015625)"/>
      </defs>
      <use xlink:href="#DejaVuSans-4d"/>
      <use x="86.279297" xlink:href="#DejaVuSans-44"/>
      <use x="163.28125" xlink:href="#DejaVuSans-54"/>
      <use x="224.365234" xlink:href="#DejaVuSans-55"/>
     </g>
    </g>
   </g>
   <g id="matplotlib.axis_2">
    <g id="ytick_1">
     <g id="text_8">
      <!-- 0.30 -->
      <g style="fill:#262626;" transform="translate(34.4275 576.286581)scale(0.22 -0.22)">
       <defs>
        <path d="M 684 794 
L 1344 794 
L 1344 0 
L 684 0 
L 684 794 
z
" id="DejaVuSans-2e" transform="scale(0.015625)"/>
        <path d="M 2597 2516 
Q 3050 2419 3304 2112 
Q 3559 1806 3559 1356 
Q 3559 666 3084 287 
Q 2609 -91 1734 -91 
Q 1441 -91 1130 -33 
Q 819 25 488 141 
L 488 750 
Q 750 597 1062 519 
Q 1375 441 1716 441 
Q 2309 441 2620 675 
Q 2931 909 2931 1356 
Q 2931 1769 2642 2001 
Q 2353 2234 1838 2234 
L 1294 2234 
L 1294 2753 
L 1863 2753 
Q 2328 2753 2575 2939 
Q 2822 3125 2822 3475 
Q 2822 3834 2567 4026 
Q 2313 4219 1838 4219 
Q 1578 4219 1281 4162 
Q 984 4106 628 3988 
L 628 4550 
Q 988 4650 1302 4700 
Q 1616 4750 1894 4750 
Q 2613 4750 3031 4423 
Q 3450 4097 3450 3541 
Q 3450 3153 3228 2886 
Q 3006 2619 2597 2516 
z
" id="DejaVuSans-33" transform="scale(0.015625)"/>
       </defs>
       <use xlink:href="#DejaVuSans-30"/>
       <use x="63.623047" xlink:href="#DejaVuSans-2e"/>
       <use x="95.410156" xlink:href="#DejaVuSans-33"/>
       <use x="159.033203" xlink:href="#DejaVuSans-30"/>
      </g>
     </g>
    </g>
    <g id="ytick_2">
     <g id="text_9">
      <!-- 0.35 -->
      <g style="fill:#262626;" transform="translate(34.4275 505.425831)scale(0.22 -0.22)">
       <defs>
        <path d="M 691 4666 
L 3169 4666 
L 3169 4134 
L 1269 4134 
L 1269 2991 
Q 1406 3038 1543 3061 
Q 1681 3084 1819 3084 
Q 2600 3084 3056 2656 
Q 3513 2228 3513 1497 
Q 3513 744 3044 326 
Q 2575 -91 1722 -91 
Q 1428 -91 1123 -41 
Q 819 9 494 109 
L 494 744 
Q 775 591 1075 516 
Q 1375 441 1709 441 
Q 2250 441 2565 725 
Q 2881 1009 2881 1497 
Q 2881 1984 2565 2268 
Q 2250 2553 1709 2553 
Q 1456 2553 1204 2497 
Q 953 2441 691 2322 
L 691 4666 
z
" id="DejaVuSans-35" transform="scale(0.015625)"/>
       </defs>
       <use xlink:href="#DejaVuSans-30"/>
       <use x="63.623047" xlink:href="#DejaVuSans-2e"/>
       <use x="95.410156" xlink:href="#DejaVuSans-33"/>
       <use x="159.033203" xlink:href="#DejaVuSans-35"/>
      </g>
     </g>
    </g>
    <g id="ytick_3">
     <g id="text_10">
      <!-- 0.40 -->
      <g style="fill:#262626;" transform="translate(34.4275 434.56508)scale(0.22 -0.22)">
       <use xlink:href="#DejaVuSans-30"/>
       <use x="63.623047" xlink:href="#DejaVuSans-2e"/>
       <use x="95.410156" xlink:href="#DejaVuSans-34"/>
       <use x="159.033203" xlink:href="#DejaVuSans-30"/>
      </g>
     </g>
    </g>
    <g id="ytick_4">
     <g id="text_11">
      <!-- 0.45 -->
      <g style="fill:#262626;" transform="translate(34.4275 363.704329)scale(0.22 -0.22)">
       <use xlink:href="#DejaVuSans-30"/>
       <use x="63.623047" xlink:href="#DejaVuSans-2e"/>
       <use x="95.410156" xlink:href="#DejaVuSans-34"/>
       <use x="159.033203" xlink:href="#DejaVuSans-35"/>
      </g>
     </g>
    </g>
    <g id="ytick_5">
     <g id="text_12">
      <!-- 0.50 -->
      <g style="fill:#262626;" transform="translate(34.4275 292.843578)scale(0.22 -0.22)">
       <use xlink:href="#DejaVuSans-30"/>
       <use x="63.623047" xlink:href="#DejaVuSans-2e"/>
       <use x="95.410156" xlink:href="#DejaVuSans-35"/>
       <use x="159.033203" xlink:href="#DejaVuSans-30"/>
      </g>
     </g>
    </g>
    <g id="ytick_6">
     <g id="text_13">
      <!-- 0.55 -->
      <g style="fill:#262626;" transform="translate(34.4275 221.982828)scale(0.22 -0.22)">
       <use xlink:href="#DejaVuSans-30"/>
       <use x="63.623047" xlink:href="#DejaVuSans-2e"/>
       <use x="95.410156" xlink:href="#DejaVuSans-35"/>
       <use x="159.033203" xlink:href="#DejaVuSans-35"/>
      </g>
     </g>
    </g>
    <g id="ytick_7">
     <g id="text_14">
      <!-- 0.60 -->
      <g style="fill:#262626;" transform="translate(34.4275 151.122077)scale(0.22 -0.22)">
       <use xlink:href="#DejaVuSans-30"/>
       <use x="63.623047" xlink:href="#DejaVuSans-2e"/>
       <use x="95.410156" xlink:href="#DejaVuSans-36"/>
       <use x="159.033203" xlink:href="#DejaVuSans-30"/>
      </g>
     </g>
    </g>
    <g id="text_15">
     <!-- $E$ -->
     <g style="fill:#262626;" transform="translate(25.43625 363.813429)rotate(-90)scale(0.24 -0.24)">
      <defs>
       <path d="M 1081 4666 
L 4031 4666 
L 3928 4134 
L 1606 4134 
L 1338 2753 
L 3566 2753 
L 3463 2222 
L 1234 2222 
L 909 531 
L 3284 531 
L 3181 0 
L 172 0 
L 1081 4666 
z
" id="DejaVuSans-Oblique-45" transform="scale(0.015625)"/>
      </defs>
      <use transform="translate(0 0.09375)" xlink:href="#DejaVuSans-Oblique-45"/>
     </g>
    </g>
   </g>
   <g id="line2d_1">
    <path clip-path="url(#p878dff1589)" d="M 120.864122 476.239573 
L 121.303606 262.164058 
L 121.743091 410.480753 
L 122.182575 358.456768 
L 122.622059 342.201739 
L 123.061544 341.363746 
L 123.501028 318.559608 
L 123.940513 402.925571 
L 124.379997 444.094057 
L 124.819482 409.207528 
L 125.258966 415.274035 
L 125.69845 319.866639 
L 126.137935 404.476364 
L 126.577419 362.725085 
L 127.016904 282.497595 
L 127.456388 350.781043 
L 127.895872 223.305811 
L 128.335357 431.644737 
L 128.774841 274.255802 
L 129.214326 395.932127 
L 129.65381 361.08252 
L 130.093295 406.675719 
L 130.532779 381.521796 
L 130.972263 320.879814 
L 131.411748 349.011793 
L 131.851232 330.26712 
L 132.290717 376.627378 
L 132.730201 442.305758 
L 133.169685 270.055381 
L 134.048654 460.374649 
L 134.927623 333.806535 
L 135.367108 182.498542 
L 135.806592 421.519595 
L 136.246076 296.540637 
L 136.685561 412.614828 
L 137.125045 327.889471 
L 137.56453 415.522514 
L 138.004014 350.480442 
L 138.882983 390.847693 
L 139.322467 333.943082 
L 139.761952 340.827851 
L 140.201436 362.502489 
L 140.640921 274.876742 
L 141.080405 343.683623 
L 141.519889 335.248577 
L 141.959374 419.92687 
L 142.398858 374.803832 
L 142.838343 379.71214 
L 143.277827 494.277822 
L 143.717312 351.966148 
L 144.156796 353.096385 
L 144.59628 376.25971 
L 145.035765 459.332088 
L 145.475249 428.23037 
L 145.914734 381.700822 
L 146.354218 352.361847 
L 147.233187 389.85312 
L 147.672671 386.467427 
L 148.112156 528.105627 
L 148.991125 381.103673 
L 149.430609 427.910174 
L 149.870093 360.459975 
L 150.309578 418.636447 
L 150.749062 417.684396 
L 151.188547 430.425731 
L 151.628031 394.691113 
L 152.067516 396.402674 
L 152.507 386.195037 
L 152.946484 422.376702 
L 153.385969 378.708672 
L 153.825453 376.054428 
L 154.264938 403.705284 
L 154.704422 446.164608 
L 155.143906 313.938671 
L 156.022875 467.367247 
L 156.46236 332.284977 
L 156.901844 322.719854 
L 157.341329 415.494082 
L 157.780813 452.741164 
L 158.220297 338.495803 
L 158.659782 288.492599 
L 159.099266 398.683322 
L 159.538751 348.475509 
L 159.978235 472.25864 
L 160.41772 443.897011 
L 161.296688 347.803269 
L 162.175657 296.038239 
L 162.615142 389.335668 
L 163.054626 344.84067 
L 163.49411 416.946598 
L 163.933595 405.614127 
L 164.373079 448.761604 
L 164.812564 292.949009 
L 165.252048 445.854196 
L 166.131017 365.245697 
L 166.570501 375.606786 
L 167.009986 335.688692 
L 167.44947 364.608459 
L 167.888955 403.09245 
L 168.328439 464.31646 
L 168.767923 426.311106 
L 169.207408 328.656899 
L 169.646892 396.500153 
L 170.525861 352.457057 
L 170.965346 263.699018 
L 171.40483 406.402506 
L 171.844314 367.226803 
L 172.283799 441.577503 
L 172.723283 284.521851 
L 173.162768 257.115213 
L 173.602252 487.672909 
L 174.041737 387.935317 
L 174.481221 401.324647 
L 174.920705 444.739118 
L 175.36019 427.317434 
L 175.799674 342.343075 
L 176.239159 416.870364 
L 176.678643 420.127601 
L 177.557612 350.727847 
L 177.997096 364.111965 
L 178.436581 448.039895 
L 178.876065 337.847822 
L 179.31555 450.370863 
L 179.755034 453.840861 
L 180.194518 357.1983 
L 180.634003 455.568352 
L 181.512972 363.176326 
L 181.952456 354.96033 
L 182.39194 384.258719 
L 182.831425 345.346558 
L 183.270909 492.417278 
L 183.710394 421.6215 
L 184.149878 261.087895 
L 184.589363 367.225934 
L 185.028847 290.604035 
L 185.468331 449.348439 
L 185.907816 473.733864 
L 186.3473 287.512305 
L 186.786785 493.977746 
L 187.226269 446.857856 
L 187.665754 372.706103 
L 188.105238 176.82435 
L 188.544722 352.370602 
L 188.984207 339.764442 
L 189.423691 321.247859 
L 189.863176 475.267058 
L 190.30266 386.245225 
L 190.742144 419.600968 
L 191.181629 359.356474 
L 191.621113 437.683373 
L 192.060598 420.701991 
L 192.500082 453.251034 
L 192.939567 263.552344 
L 193.379051 444.404712 
L 194.25802 336.970369 
L 194.697504 432.767623 
L 195.136989 380.239868 
L 195.576473 355.211442 
L 196.015957 427.485064 
L 196.455442 386.886562 
L 196.894926 393.492939 
L 197.334411 473.785715 
L 197.773895 378.353913 
L 198.21338 437.389336 
L 198.652864 433.424947 
L 199.092348 378.431727 
L 199.531833 491.029597 
L 199.971317 332.322077 
L 200.410802 276.39661 
L 200.850286 397.147814 
L 201.729255 471.275158 
L 202.168739 366.638524 
L 202.608224 374.571049 
L 203.047708 321.582261 
L 203.487193 337.819118 
L 203.926677 381.842627 
L 204.366161 377.069352 
L 204.805646 412.926678 
L 205.24513 352.691881 
L 205.684615 269.568958 
L 206.124099 317.316274 
L 206.563584 329.627487 
L 207.003068 443.426527 
L 207.442552 510.227862 
L 207.882037 433.306822 
L 208.321521 333.953532 
L 208.761006 343.51125 
L 209.20049 445.87443 
L 209.639974 455.917567 
L 210.518943 343.172456 
L 210.958428 387.161272 
L 211.397912 334.678565 
L 211.837397 325.402169 
L 212.276881 502.057472 
L 212.716365 287.133567 
L 213.15585 331.224234 
L 213.595334 390.032836 
L 214.034819 362.992213 
L 214.474303 440.911394 
L 214.913788 411.779326 
L 215.353272 474.776389 
L 215.792756 360.257294 
L 216.232241 456.201341 
L 217.11121 362.689772 
L 217.550694 375.862798 
L 217.990178 378.207762 
L 218.429663 456.857764 
L 218.869147 344.754836 
L 219.308632 391.914539 
L 219.748116 352.583931 
L 220.187601 262.176627 
L 220.627085 355.61684 
L 221.066569 365.236466 
L 221.506054 412.556402 
L 221.945538 435.641297 
L 222.385023 436.769428 
L 222.824507 364.454254 
L 223.263991 361.292842 
L 223.703476 362.718591 
L 224.14296 415.451663 
L 224.582445 259.87791 
L 225.461414 392.127178 
L 225.900898 338.59716 
L 226.779867 403.321275 
L 227.219351 402.986579 
L 227.658836 354.180691 
L 228.09832 375.902502 
L 228.537805 481.121942 
L 228.977289 337.101139 
L 229.416773 514.965552 
L 229.856258 366.582729 
L 230.735227 495.512302 
L 231.174711 339.51459 
L 231.614195 464.564097 
L 232.05368 343.424255 
L 232.493164 436.399294 
L 232.932649 454.453588 
L 233.372133 486.968628 
L 233.811618 372.488557 
L 234.251102 468.675901 
L 234.690586 352.427312 
L 235.130071 449.47087 
L 235.569555 409.818326 
L 236.00904 478.106256 
L 236.448524 486.46155 
L 236.888008 353.067617 
L 237.327493 358.128897 
L 238.206462 463.306488 
L 238.645946 453.19413 
L 239.085431 422.20787 
L 239.524915 339.962433 
L 240.403884 458.800727 
L 240.843368 453.329984 
L 241.282853 345.915235 
L 241.722337 374.497683 
L 242.161822 541.334616 
L 242.601306 447.922075 
L 243.04079 431.52809 
L 243.480275 327.874247 
L 243.919759 428.370405 
L 244.359244 346.982129 
L 244.798728 399.892104 
L 245.238212 253.535625 
L 245.677697 435.91366 
L 246.556666 271.668768 
L 247.435635 459.188593 
L 247.875119 409.800612 
L 248.314603 280.786237 
L 249.193572 340.597803 
L 249.633057 421.790822 
L 250.072541 298.227398 
L 250.512026 406.222254 
L 250.95151 405.173512 
L 251.390994 387.540335 
L 251.830479 280.484178 
L 252.269963 518.916324 
L 253.148932 327.986562 
L 253.588416 473.667454 
L 254.027901 445.243137 
L 254.467385 281.257484 
L 255.346354 370.81428 
L 255.785839 345.202925 
L 256.225323 398.263023 
L 256.664807 430.47756 
L 257.104292 419.75943 
L 257.543776 357.545692 
L 257.983261 394.320766 
L 258.422745 353.013791 
L 258.862229 395.348673 
L 259.301714 414.16373 
L 259.741198 421.898256 
L 260.180683 297.752346 
L 260.620167 396.165278 
L 261.059652 352.687925 
L 261.499136 397.578456 
L 262.378105 347.81788 
L 262.817589 371.791307 
L 263.257074 384.762002 
L 263.696558 175.496873 
L 264.136043 338.849857 
L 264.575527 357.758228 
L 265.015011 469.971956 
L 265.454496 479.717529 
L 265.89398 419.961307 
L 266.333465 391.263722 
L 266.772949 482.265035 
L 267.212433 381.760888 
L 267.651918 516.452176 
L 268.530887 331.186534 
L 268.970371 392.900602 
L 269.409856 409.69232 
L 269.84934 230.363832 
L 270.288824 357.135598 
L 270.728309 357.652429 
L 271.167793 435.667191 
L 271.607278 231.547805 
L 272.046762 370.473396 
L 272.486246 328.451215 
L 272.925731 404.488696 
L 273.365215 359.960918 
L 273.8047 393.216582 
L 274.244184 412.978626 
L 274.683669 330.429474 
L 275.123153 437.447219 
L 275.562637 384.40482 
L 276.002122 439.727464 
L 276.441606 439.985719 
L 276.881091 391.283672 
L 277.320575 415.232255 
L 277.76006 283.653571 
L 278.199544 420.736591 
L 278.639028 244.811383 
L 279.078513 410.763762 
L 279.517997 329.616557 
L 279.957482 473.707044 
L 280.396966 394.71326 
L 280.83645 416.380702 
L 281.275935 408.53227 
L 281.715419 481.592098 
L 282.154904 406.250609 
L 282.594388 379.892701 
L 283.033873 378.190468 
L 283.473357 377.52605 
L 283.912841 487.940446 
L 284.352326 447.309629 
L 284.79181 331.339853 
L 285.231295 403.025028 
L 285.670779 389.935147 
L 286.110263 449.980214 
L 286.549748 402.149854 
L 286.989232 291.839477 
L 287.428717 386.661321 
L 287.868201 379.05535 
L 288.307686 340.322036 
L 288.74717 317.503083 
L 289.186654 325.085001 
L 289.626139 369.507635 
L 290.065623 342.105111 
L 290.505108 390.726314 
L 290.944592 299.369289 
L 291.384077 332.317706 
L 291.823561 454.561023 
L 292.263045 266.958649 
L 292.70253 545.007301 
L 293.142014 432.749477 
L 293.581499 371.444471 
L 294.020983 408.767638 
L 294.460467 274.666808 
L 294.899952 458.953188 
L 295.339436 363.026795 
L 295.778921 399.588684 
L 296.218405 461.923976 
L 296.65789 375.928129 
L 297.097374 316.909622 
L 297.536858 439.145295 
L 297.976343 417.953786 
L 298.415827 347.623302 
L 298.855312 424.99751 
L 299.294796 468.541165 
L 299.73428 371.51597 
L 300.173765 350.798621 
L 300.613249 362.849525 
L 301.052734 371.286579 
L 301.492218 355.78029 
L 301.931703 406.012059 
L 302.371187 297.826543 
L 302.810671 366.617285 
L 303.250156 380.539147 
L 304.129125 365.962389 
L 304.568609 343.662476 
L 305.008094 342.883598 
L 305.447578 388.473069 
L 305.887062 462.555192 
L 306.326547 350.302724 
L 306.766031 373.715066 
L 307.205516 418.261738 
L 307.645 356.004765 
L 308.084484 353.32157 
L 308.523969 296.375548 
L 308.963453 376.704598 
L 309.402938 405.401978 
L 309.842422 362.504348 
L 310.281907 469.965317 
L 310.721391 429.840367 
L 311.160875 422.305776 
L 311.60036 485.975674 
L 312.039844 388.000277 
L 312.479329 462.536701 
L 312.918813 432.395795 
L 313.358297 319.395986 
L 313.797782 373.047832 
L 314.237266 365.881341 
L 314.676751 397.401831 
L 315.116235 327.029902 
L 315.55572 472.37314 
L 315.995204 419.034927 
L 316.434688 448.855133 
L 316.874173 217.042983 
L 317.313657 318.387296 
L 317.753142 375.733266 
L 318.192626 400.535951 
L 318.632111 331.727278 
L 319.071595 393.213161 
L 319.511079 399.342836 
L 319.950564 335.984163 
L 320.390048 364.930224 
L 320.829533 494.687142 
L 321.708501 308.288509 
L 322.147986 380.417651 
L 322.58747 349.661662 
L 323.026955 387.246143 
L 323.466439 380.521952 
L 323.905924 265.310712 
L 324.345408 365.048025 
L 324.784892 326.991468 
L 325.224377 369.681833 
L 325.663861 508.856047 
L 326.103346 387.110805 
L 326.54283 398.995493 
L 326.982314 437.564146 
L 327.421799 289.35676 
L 327.861283 399.252903 
L 328.300768 439.907575 
L 329.179737 334.409888 
L 329.619221 392.55303 
L 330.058705 373.307662 
L 330.49819 265.537384 
L 330.937674 319.144516 
L 331.377159 434.570041 
L 331.816643 363.423013 
L 332.256128 377.859028 
L 332.695612 417.363156 
L 333.135096 364.691212 
L 333.574581 465.53362 
L 334.45355 391.780763 
L 334.893034 392.008746 
L 335.332518 394.084422 
L 335.772003 371.995709 
L 336.211487 309.943223 
L 336.650972 498.024074 
L 337.090456 440.759825 
L 337.529941 334.33768 
L 337.969425 352.853939 
L 338.408909 415.133205 
L 338.848394 343.851217 
L 339.287878 471.440703 
L 339.727363 215.086 
L 340.166847 499.058675 
L 340.606331 374.350056 
L 341.045816 345.133328 
L 341.4853 403.703869 
L 341.924785 433.110866 
L 342.364269 400.285936 
L 342.803754 401.994261 
L 343.243238 420.031488 
L 343.682722 307.110131 
L 344.561691 435.911467 
L 345.001176 349.368888 
L 345.44066 381.944068 
L 345.880145 455.634209 
L 346.759113 296.788207 
L 347.198598 451.796614 
L 347.638082 445.08913 
L 348.077567 272.461598 
L 348.517051 413.426896 
L 348.956535 474.096072 
L 349.39602 432.708015 
L 349.835504 407.337637 
L 350.274989 435.44469 
L 350.714473 336.128047 
L 351.153958 428.869878 
L 351.593442 441.011177 
L 352.032926 424.836878 
L 352.472411 334.297749 
L 352.911895 370.990729 
L 353.790864 481.256488 
L 354.230348 352.74891 
L 354.669833 399.787607 
L 355.109317 476.690903 
L 355.548802 335.62528 
L 355.988286 258.149792 
L 356.427771 390.854063 
L 356.867255 339.983933 
L 357.306739 264.606599 
L 357.746224 360.909466 
L 358.185708 431.234218 
L 358.625193 444.709392 
L 359.504162 277.424023 
L 359.943646 425.158349 
L 360.38313 324.710026 
L 360.822615 529.226202 
L 361.262099 361.359593 
L 361.701584 308.459176 
L 362.141068 363.593581 
L 362.580552 473.817081 
L 363.020037 421.829368 
L 363.459521 472.063164 
L 363.899006 462.961187 
L 364.33849 415.327225 
L 364.777975 505.235885 
L 365.217459 430.160203 
L 365.656943 299.723892 
L 366.096428 346.430886 
L 366.535912 229.459155 
L 366.975397 409.147539 
L 367.414881 353.405212 
L 367.854366 455.171115 
L 368.29385 286.299479 
L 368.733334 423.001272 
L 369.172819 495.159949 
L 369.612303 424.021402 
L 370.051788 415.491905 
L 370.491272 346.971645 
L 370.930756 343.362216 
L 371.370241 306.887721 
L 371.809725 338.605603 
L 372.24921 378.932765 
L 372.688694 386.066128 
L 373.128179 426.518019 
L 373.567663 489.061943 
L 374.007147 376.124831 
L 374.446632 347.506371 
L 374.886116 336.697541 
L 375.765085 373.770865 
L 376.204569 320.811651 
L 376.644054 365.858079 
L 377.083538 325.397383 
L 377.523023 354.689412 
L 377.962507 401.11155 
L 378.401992 284.604356 
L 378.841476 383.471932 
L 379.28096 541.790673 
L 379.720445 366.559389 
L 380.599414 418.374877 
L 381.038898 361.714022 
L 381.478383 436.15496 
L 381.917867 353.828391 
L 382.357351 343.488042 
L 382.796836 381.005175 
L 383.23632 316.138644 
L 383.675805 429.020202 
L 384.115289 300.235557 
L 384.554773 346.770038 
L 384.994258 411.459926 
L 385.433742 392.421975 
L 385.873227 253.330317 
L 386.312711 360.911709 
L 386.752196 303.86994 
L 387.19168 315.425444 
L 387.631164 435.218829 
L 388.070649 427.246234 
L 388.510133 368.350113 
L 388.949618 343.183275 
L 389.389102 463.80578 
L 389.828586 414.542613 
L 390.268071 494.518976 
L 390.707555 510.219671 
L 391.586524 440.384513 
L 392.026009 482.115837 
L 392.465493 392.163725 
L 392.904977 366.155786 
L 393.344462 465.433571 
L 393.783946 437.402106 
L 394.223431 424.845904 
L 395.1024 303.147777 
L 395.541884 318.169703 
L 395.981368 373.629209 
L 396.420853 356.617411 
L 396.860337 286.395956 
L 397.299822 392.203924 
L 397.739306 371.134026 
L 398.17879 379.971682 
L 399.057759 462.248678 
L 399.497244 238.207018 
L 399.936728 396.652868 
L 400.376213 240.362919 
L 400.815697 355.94398 
L 401.255181 350.564906 
L 401.694666 303.66522 
L 402.13415 131.763818 
L 402.573635 447.418049 
L 403.013119 398.886598 
L 403.452603 374.06846 
L 403.892088 384.411897 
L 404.331572 385.960565 
L 404.771057 406.844285 
L 405.210541 367.313755 
L 405.650026 377.793091 
L 406.08951 374.589641 
L 406.528994 280.735353 
L 406.968479 385.67281 
L 407.407963 325.414938 
L 407.847448 468.906843 
L 408.286932 482.818471 
L 408.726417 397.251644 
L 409.165901 139.646846 
L 409.605385 450.779467 
L 410.04487 408.288817 
L 410.484354 497.96456 
L 410.923839 400.367063 
L 411.802807 301.338653 
L 412.242292 312.870659 
L 413.121261 390.677266 
L 413.560745 270.244473 
L 414.00023 404.845755 
L 414.439714 321.1392 
L 414.879198 388.348387 
L 415.318683 413.463432 
L 415.758167 394.228009 
L 416.197652 366.070227 
L 416.637136 403.691491 
L 417.07662 372.37021 
L 417.516105 470.410722 
L 417.955589 541.934138 
L 418.395074 371.629538 
L 418.834558 398.511794 
L 419.274043 456.83252 
L 419.713527 321.235964 
L 420.592496 263.566975 
L 421.471465 318.582963 
L 421.910949 460.344164 
L 422.350434 447.299614 
L 422.789918 379.143158 
L 423.229402 471.396828 
L 423.668887 504.36006 
L 424.108371 292.908361 
L 424.547856 449.605934 
L 424.98734 515.983247 
L 425.426824 433.237397 
L 425.866309 385.707181 
L 426.305793 382.46265 
L 426.745278 297.274106 
L 427.184762 395.492393 
L 428.063731 315.190162 
L 428.503215 447.489831 
L 428.9427 415.330718 
L 429.382184 394.006022 
L 429.821669 407.354201 
L 430.261153 340.114394 
L 430.700637 396.954624 
L 431.140122 367.4054 
L 431.579606 401.122189 
L 432.019091 361.396694 
L 432.458575 460.942223 
L 433.337544 410.788737 
L 433.777028 427.647952 
L 434.216513 289.123637 
L 434.655997 267.110884 
L 435.095482 424.720773 
L 435.534966 386.690684 
L 435.974451 314.985889 
L 436.413935 282.222519 
L 436.853419 421.004982 
L 437.292904 289.966556 
L 437.732388 360.244857 
L 438.171873 451.468281 
L 438.611357 441.99806 
L 439.050841 365.619516 
L 439.490326 517.930988 
L 439.92981 382.20817 
L 440.369295 371.355387 
L 440.808779 335.245856 
L 441.248264 342.688475 
L 441.687748 420.782722 
L 442.127232 349.227552 
L 442.566717 439.031466 
L 443.006201 380.085873 
L 443.445686 529.894369 
L 443.88517 386.759854 
L 444.324654 387.745714 
L 444.764139 362.791532 
L 445.203623 399.229714 
L 445.643108 312.796706 
L 446.082592 340.292208 
L 446.961561 374.651105 
L 447.401045 346.913113 
L 447.84053 365.603125 
L 448.280014 431.549414 
L 448.719499 290.192164 
L 449.158983 436.368764 
L 449.598468 450.675879 
L 450.037952 406.256177 
L 450.477436 466.540927 
L 450.916921 349.971134 
L 451.356405 392.006163 
L 451.79589 382.140844 
L 452.235374 429.342815 
L 452.674858 427.606418 
L 453.114343 398.205812 
L 453.993312 484.725682 
L 454.432796 283.779024 
L 454.872281 417.059796 
L 455.311765 389.033176 
L 455.751249 326.626398 
L 456.190734 376.421318 
L 456.630218 352.822079 
L 457.069703 316.045854 
L 457.948671 484.357458 
L 458.388156 373.304457 
L 458.82764 292.367566 
L 459.267125 304.190652 
L 460.146094 503.443825 
L 460.585578 387.472354 
L 461.025062 377.829521 
L 461.464547 212.4215 
L 461.904031 450.601142 
L 462.343516 464.764876 
L 462.783 409.936466 
L 463.222485 383.195352 
L 463.661969 370.025397 
L 464.101453 417.482812 
L 464.540938 225.867626 
L 464.980422 391.205684 
L 465.859391 464.047116 
L 466.298875 215.037329 
L 466.73836 488.148121 
L 467.177844 440.144084 
L 467.617329 481.203653 
L 468.056813 359.177812 
L 468.496298 457.704725 
L 468.935782 428.142282 
L 469.375266 427.747051 
L 469.814751 332.30776 
L 470.254235 303.612905 
L 470.69372 390.384246 
L 471.133204 385.486728 
L 471.572689 402.583154 
L 472.012173 361.536435 
L 472.451657 403.337414 
L 472.891142 427.643147 
L 473.330626 362.797443 
L 473.770111 402.731482 
L 474.649079 231.955032 
L 475.088564 309.649633 
L 475.528048 443.575141 
L 475.967533 357.78481 
L 476.407017 203.417901 
L 476.846502 320.224153 
L 477.285986 494.513631 
L 477.72547 409.103459 
L 478.164955 475.614883 
L 478.604439 369.503497 
L 479.043924 327.445019 
L 479.922892 343.112325 
L 480.362377 406.295359 
L 480.801861 285.49742 
L 481.241346 416.539887 
L 481.68083 352.010035 
L 482.120315 420.856185 
L 482.559799 207.892026 
L 483.438768 371.97038 
L 483.878252 428.857062 
L 484.317737 513.562194 
L 484.757221 287.409262 
L 485.196706 442.616879 
L 485.63619 367.897387 
L 486.075674 425.903676 
L 486.515159 368.653383 
L 486.954643 451.320185 
L 487.394128 391.843065 
L 487.833612 429.538005 
L 488.273096 447.285804 
L 488.712581 412.786031 
L 489.152065 420.923541 
L 489.59155 366.86303 
L 490.031034 409.070032 
L 490.470519 315.671243 
L 490.910003 415.988133 
L 491.349487 364.786041 
L 491.788972 426.854519 
L 492.228456 369.843865 
L 492.667941 447.116606 
L 493.107425 396.294428 
L 493.546909 328.672948 
L 493.986394 423.167117 
L 494.425878 423.234696 
L 494.865363 371.946095 
L 495.304847 337.186726 
L 495.744332 255.58465 
L 496.183816 352.413961 
L 496.6233 234.364523 
L 497.062785 363.894837 
L 497.502269 419.08823 
L 497.941754 330.904128 
L 498.381238 270.193847 
L 498.820723 331.525595 
L 499.260207 476.61509 
L 499.699691 362.049785 
L 500.139176 434.483866 
L 500.57866 414.094868 
L 501.018145 443.658533 
L 501.457629 377.547434 
L 501.897113 411.096559 
L 502.336598 360.56221 
L 502.776082 395.039606 
L 503.215567 454.701687 
L 503.655051 436.569456 
L 504.094536 308.783708 
L 504.53402 447.994132 
L 504.973504 386.092745 
L 505.412989 388.194704 
L 505.852473 470.797862 
L 506.291958 385.199205 
L 506.731442 266.354618 
L 507.170926 428.530799 
L 507.610411 451.916049 
L 508.049895 350.529663 
L 508.48938 428.014202 
L 508.928864 362.518134 
L 509.368349 402.230687 
L 509.807833 241.941615 
L 510.247317 490.58756 
L 510.686802 415.84312 
L 511.126286 260.182412 
L 511.565771 372.494728 
L 512.005255 218.389404 
L 512.44474 449.29467 
L 512.884224 355.371896 
L 513.763193 489.607889 
L 514.202677 346.72212 
L 514.642162 350.65049 
L 515.081646 301.31781 
L 516.400099 484.230485 
L 516.839584 389.190431 
L 517.279068 465.599534 
L 517.718553 395.255061 
L 518.158037 270.404052 
L 518.597521 233.873666 
L 519.037006 386.793126 
L 519.47649 357.874548 
L 519.915975 400.064245 
L 520.355459 298.168037 
L 520.794943 407.612219 
L 521.234428 376.844141 
L 521.673912 275.578926 
L 522.113397 331.721842 
L 522.552881 342.909436 
L 522.992366 402.456455 
L 523.43185 318.231908 
L 523.871334 456.676472 
L 524.310819 457.779095 
L 524.750303 358.569052 
L 525.189788 301.14594 
L 525.629272 411.935502 
L 526.068757 328.095764 
L 526.508241 354.651745 
L 526.947725 422.403499 
L 527.38721 316.509818 
L 527.826694 383.496668 
L 528.266179 412.784516 
L 528.705663 433.579379 
L 529.145147 331.737819 
L 529.584632 430.338779 
L 530.024116 317.131862 
L 530.463601 341.102101 
L 530.903085 398.447008 
L 531.34257 522.920591 
L 531.782054 421.329356 
L 532.221538 445.854166 
L 532.661023 304.713615 
L 533.100507 426.502556 
L 533.539992 226.33644 
L 533.979476 370.229575 
L 534.41896 346.523431 
L 534.858445 362.818539 
L 535.297929 387.323908 
L 535.737414 373.599327 
L 536.176898 433.021005 
L 536.616383 390.704018 
L 537.055867 327.244869 
L 537.495351 299.524657 
L 537.934836 431.943734 
L 538.37432 460.364567 
L 538.813805 301.125677 
L 539.253289 340.44015 
L 539.692774 362.354168 
L 540.132258 411.940957 
L 540.571742 338.21621 
L 541.450711 398.55205 
L 541.890196 456.769332 
L 542.32968 426.819019 
L 542.769164 346.766776 
L 543.208649 375.084885 
L 543.648133 362.708534 
L 544.087618 381.877217 
L 544.527102 473.112028 
L 544.966587 259.417122 
L 545.406071 451.52123 
L 545.845555 329.593573 
L 546.28504 518.355978 
L 546.724524 345.568568 
L 547.164009 423.353267 
L 547.603493 430.504534 
L 548.042977 405.289205 
L 548.482462 355.487465 
L 548.921946 273.781876 
L 549.361431 468.141627 
L 549.800915 430.018894 
L 550.2404 408.768738 
L 550.679884 453.208843 
L 551.119368 327.059486 
L 551.558853 580.503039 
L 551.998337 261.635444 
L 552.437822 254.594656 
L 552.877306 380.39979 
L 553.316791 453.197351 
L 553.756275 213.868939 
L 554.195759 433.53626 
L 554.635244 374.862966 
L 555.514213 328.884024 
L 556.393181 440.699926 
L 556.832666 372.426639 
L 557.27215 407.563844 
L 557.711635 288.262854 
L 558.151119 463.170559 
L 558.590604 436.189504 
L 559.030088 426.412756 
L 559.469572 507.581159 
L 559.909057 350.867687 
L 559.909057 350.867687 
" style="fill:none;stroke:#96c69a;stroke-linecap:round;stroke-width:3;"/>
   </g>
   <g id="line2d_2"/>
   <g id="patch_3">
    <path d="M 98.911875 602.94 
L 98.911875 109.326857 
" style="fill:none;stroke:#262626;stroke-linecap:square;stroke-linejoin:miter;stroke-width:2.5;"/>
   </g>
   <g id="patch_4">
    <path d="M 98.911875 602.94 
L 581.861304 602.94 
" style="fill:none;stroke:#262626;stroke-linecap:square;stroke-linejoin:miter;stroke-width:2.5;"/>
   </g>
   <g id="legend_1">
    <g id="patch_5">
     <path d="M 528.945679 597.94 
L 574.861304 597.94 
Q 576.861304 597.94 576.861304 595.94 
L 576.861304 554.034375 
Q 576.861304 552.034375 574.861304 552.034375 
L 528.945679 552.034375 
Q 526.945679 552.034375 526.945679 554.034375 
L 526.945679 595.94 
Q 526.945679 597.94 528.945679 597.94 
z
" style="fill:#ffffff;opacity:0.8;stroke:#cccccc;stroke-linejoin:miter;stroke-width:2;"/>
    </g>
    <g id="text_16">
     <!-- $n_\tau$ -->
     <g style="fill:#262626;" transform="translate(538.823491 574.270625)scale(0.24 -0.24)">
      <defs>
       <path d="M 3566 2113 
L 3156 0 
L 2578 0 
L 2988 2091 
Q 3016 2238 3031 2350 
Q 3047 2463 3047 2528 
Q 3047 2791 2881 2937 
Q 2716 3084 2419 3084 
Q 1956 3084 1622 2776 
Q 1288 2469 1184 1941 
L 800 0 
L 225 0 
L 903 3500 
L 1478 3500 
L 1363 2950 
Q 1603 3253 1940 3418 
Q 2278 3584 2650 3584 
Q 3113 3584 3367 3334 
Q 3622 3084 3622 2631 
Q 3622 2519 3608 2391 
Q 3594 2263 3566 2113 
z
" id="DejaVuSans-Oblique-6e" transform="scale(0.015625)"/>
       <path d="M 2103 638 
Q 2188 488 2525 488 
L 2800 488 
L 2706 0 
L 2363 0 
Q 1800 0 1600 300 
Q 1403 606 1534 1269 
L 1856 2925 
L 541 2925 
L 653 3500 
L 3881 3500 
L 3769 2925 
L 2444 2925 
L 2113 1234 
Q 2025 781 2103 638 
z
" id="DejaVuSans-Oblique-3c4" transform="scale(0.015625)"/>
      </defs>
      <use xlink:href="#DejaVuSans-Oblique-6e"/>
      <use transform="translate(63.378906 -16.40625)scale(0.7)" xlink:href="#DejaVuSans-Oblique-3c4"/>
     </g>
    </g>
    <g id="line2d_3">
     <path d="M 530.945679 588.360312 
L 550.945679 588.360312 
" style="fill:none;stroke:#96c69a;stroke-linecap:round;stroke-width:3;"/>
    </g>
    <g id="line2d_4"/>
    <g id="text_17">
     <!-- 20 -->
     <g style="fill:#262626;" transform="translate(558.945679 591.860312)scale(0.1 -0.1)">
      <defs>
       <path d="M 1844 884 
L 3897 884 
L 3897 0 
L 506 0 
L 506 884 
L 2209 2388 
Q 2438 2594 2547 2791 
Q 2656 2988 2656 3200 
Q 2656 3528 2436 3728 
Q 2216 3928 1850 3928 
Q 1569 3928 1234 3808 
Q 900 3688 519 3450 
L 519 4475 
Q 925 4609 1322 4679 
Q 1719 4750 2100 4750 
Q 2938 4750 3402 4381 
Q 3866 4013 3866 3353 
Q 3866 2972 3669 2642 
Q 3472 2313 2841 1759 
L 1844 884 
z
" id="DejaVuSans-Bold-32" transform="scale(0.015625)"/>
       <path d="M 2944 2338 
Q 2944 3213 2780 3570 
Q 2616 3928 2228 3928 
Q 1841 3928 1675 3570 
Q 1509 3213 1509 2338 
Q 1509 1453 1675 1090 
Q 1841 728 2228 728 
Q 2613 728 2778 1090 
Q 2944 1453 2944 2338 
z
M 4147 2328 
Q 4147 1169 3647 539 
Q 3147 -91 2228 -91 
Q 1306 -91 806 539 
Q 306 1169 306 2328 
Q 306 3491 806 4120 
Q 1306 4750 2228 4750 
Q 3147 4750 3647 4120 
Q 4147 3491 4147 2328 
z
" id="DejaVuSans-Bold-30" transform="scale(0.015625)"/>
      </defs>
      <use xlink:href="#DejaVuSans-Bold-32"/>
      <use x="69.580078" xlink:href="#DejaVuSans-Bold-30"/>
     </g>
    </g>
   </g>
  </g>
  <g id="axes_2">
   <g id="patch_6">
    <path d="M 98.911875 92.305714 
L 581.861304 92.305714 
L 581.861304 7.2 
L 98.911875 7.2 
z
" style="fill:none;"/>
   </g>
   <g id="matplotlib.axis_3">
    <g id="xtick_7"/>
    <g id="xtick_8"/>
    <g id="xtick_9"/>
    <g id="xtick_10"/>
    <g id="xtick_11"/>
    <g id="xtick_12"/>
   </g>
   <g id="matplotlib.axis_4">
    <g id="ytick_8">
     <g id="text_18">
      <!-- 0 -->
      <g style="fill:#262626;" transform="translate(69.414375 100.663996)scale(0.22 -0.22)">
       <use xlink:href="#DejaVuSans-30"/>
      </g>
     </g>
    </g>
    <g id="ytick_9">
     <g id="text_19">
      <!-- 50 -->
      <g style="fill:#262626;" transform="translate(55.416875 56.129347)scale(0.22 -0.22)">
       <use xlink:href="#DejaVuSans-35"/>
       <use x="63.623047" xlink:href="#DejaVuSans-30"/>
      </g>
     </g>
    </g>
   </g>
   <g id="patch_7">
    <path clip-path="url(#p3076e60941)" d="M 120.864122 92.305714 
L 160.777298 92.305714 
L 160.777298 11.252653 
L 120.864122 11.252653 
z
" style="fill:#96c69a;fill-opacity:0.5;stroke:#ffffff;stroke-linejoin:miter;stroke-width:2;"/>
   </g>
   <g id="patch_8">
    <path clip-path="url(#p3076e60941)" d="M 160.777298 92.305714 
L 200.690474 92.305714 
L 200.690474 11.252653 
L 160.777298 11.252653 
z
" style="fill:#96c69a;fill-opacity:0.5;stroke:#ffffff;stroke-linejoin:miter;stroke-width:2;"/>
   </g>
   <g id="patch_9">
    <path clip-path="url(#p3076e60941)" d="M 200.690474 92.305714 
L 240.603649 92.305714 
L 240.603649 11.252653 
L 200.690474 11.252653 
z
" style="fill:#96c69a;fill-opacity:0.5;stroke:#ffffff;stroke-linejoin:miter;stroke-width:2;"/>
   </g>
   <g id="patch_10">
    <path clip-path="url(#p3076e60941)" d="M 240.603649 92.305714 
L 280.516825 92.305714 
L 280.516825 11.252653 
L 240.603649 11.252653 
z
" style="fill:#96c69a;fill-opacity:0.5;stroke:#ffffff;stroke-linejoin:miter;stroke-width:2;"/>
   </g>
   <g id="patch_11">
    <path clip-path="url(#p3076e60941)" d="M 280.516825 92.305714 
L 320.430001 92.305714 
L 320.430001 11.252653 
L 280.516825 11.252653 
z
" style="fill:#96c69a;fill-opacity:0.5;stroke:#ffffff;stroke-linejoin:miter;stroke-width:2;"/>
   </g>
   <g id="patch_12">
    <path clip-path="url(#p3076e60941)" d="M 320.430001 92.305714 
L 360.343177 92.305714 
L 360.343177 12.143346 
L 320.430001 12.143346 
z
" style="fill:#96c69a;fill-opacity:0.5;stroke:#ffffff;stroke-linejoin:miter;stroke-width:2;"/>
   </g>
   <g id="patch_13">
    <path clip-path="url(#p3076e60941)" d="M 360.343177 92.305714 
L 400.256353 92.305714 
L 400.256353 11.252653 
L 360.343177 11.252653 
z
" style="fill:#96c69a;fill-opacity:0.5;stroke:#ffffff;stroke-linejoin:miter;stroke-width:2;"/>
   </g>
   <g id="patch_14">
    <path clip-path="url(#p3076e60941)" d="M 400.256353 92.305714 
L 440.169529 92.305714 
L 440.169529 11.252653 
L 400.256353 11.252653 
z
" style="fill:#96c69a;fill-opacity:0.5;stroke:#ffffff;stroke-linejoin:miter;stroke-width:2;"/>
   </g>
   <g id="patch_15">
    <path clip-path="url(#p3076e60941)" d="M 440.169529 92.305714 
L 480.082705 92.305714 
L 480.082705 11.252653 
L 440.169529 11.252653 
z
" style="fill:#96c69a;fill-opacity:0.5;stroke:#ffffff;stroke-linejoin:miter;stroke-width:2;"/>
   </g>
   <g id="patch_16">
    <path clip-path="url(#p3076e60941)" d="M 480.082705 92.305714 
L 519.995881 92.305714 
L 519.995881 11.252653 
L 480.082705 11.252653 
z
" style="fill:#96c69a;fill-opacity:0.5;stroke:#ffffff;stroke-linejoin:miter;stroke-width:2;"/>
   </g>
   <g id="patch_17">
    <path clip-path="url(#p3076e60941)" d="M 519.995881 92.305714 
L 559.909057 92.305714 
L 559.909057 11.252653 
L 519.995881 11.252653 
z
" style="fill:#96c69a;fill-opacity:0.5;stroke:#ffffff;stroke-linejoin:miter;stroke-width:2;"/>
   </g>
   <g id="patch_18">
    <path d="M 98.911875 92.305714 
L 98.911875 7.2 
" style="fill:none;stroke:#262626;stroke-linecap:square;stroke-linejoin:miter;stroke-width:2.5;"/>
   </g>
   <g id="patch_19">
    <path d="M 98.911875 92.305714 
L 581.861304 92.305714 
" style="fill:none;stroke:#262626;stroke-linecap:square;stroke-linejoin:miter;stroke-width:2.5;"/>
   </g>
  </g>
  <g id="axes_3">
   <g id="patch_20">
    <path d="M 598.514732 602.94 
L 681.781875 602.94 
L 681.781875 109.326857 
L 598.514732 109.326857 
z
" style="fill:none;"/>
   </g>
   <g id="matplotlib.axis_5">
    <g id="xtick_13">
     <g id="text_20">
      <!-- 0 -->
      <g style="fill:#262626;" transform="translate(591.515982 635.156562)scale(0.22 -0.22)">
       <use xlink:href="#DejaVuSans-30"/>
      </g>
     </g>
    </g>
    <g id="xtick_14">
     <g id="text_21">
      <!-- 100 -->
      <g style="fill:#262626;" transform="translate(650.946298 635.156562)scale(0.22 -0.22)">
       <use xlink:href="#DejaVuSans-31"/>
       <use x="63.623047" xlink:href="#DejaVuSans-30"/>
       <use x="127.246094" xlink:href="#DejaVuSans-30"/>
      </g>
     </g>
    </g>
   </g>
   <g id="matplotlib.axis_6">
    <g id="ytick_10"/>
    <g id="ytick_11"/>
    <g id="ytick_12"/>
    <g id="ytick_13"/>
    <g id="ytick_14"/>
    <g id="ytick_15"/>
    <g id="ytick_16"/>
   </g>
   <g id="patch_21">
    <path clip-path="url(#pa9c5d5e7d7)" d="M 598.514732 580.503039 
L 599.24901 580.503039 
L 599.24901 564.476638 
L 598.514732 564.476638 
z
" style="fill:#96c69a;fill-opacity:0.5;stroke:#ffffff;stroke-linejoin:miter;stroke-width:1.60264;"/>
   </g>
   <g id="patch_22">
    <path clip-path="url(#pa9c5d5e7d7)" d="M 598.514732 564.476638 
L 598.514732 564.476638 
L 598.514732 548.450237 
L 598.514732 548.450237 
z
" style="fill:#96c69a;fill-opacity:0.5;stroke:#ffffff;stroke-linejoin:miter;stroke-width:1.60264;"/>
   </g>
   <g id="patch_23">
    <path clip-path="url(#pa9c5d5e7d7)" d="M 598.514732 548.450237 
L 601.451845 548.450237 
L 601.451845 532.423837 
L 598.514732 532.423837 
z
" style="fill:#96c69a;fill-opacity:0.5;stroke:#ffffff;stroke-linejoin:miter;stroke-width:1.60264;"/>
   </g>
   <g id="patch_24">
    <path clip-path="url(#pa9c5d5e7d7)" d="M 598.514732 532.423837 
L 604.388957 532.423837 
L 604.388957 516.397436 
L 598.514732 516.397436 
z
" style="fill:#96c69a;fill-opacity:0.5;stroke:#ffffff;stroke-linejoin:miter;stroke-width:1.60264;"/>
   </g>
   <g id="patch_25">
    <path clip-path="url(#pa9c5d5e7d7)" d="M 598.514732 516.397436 
L 606.591792 516.397436 
L 606.591792 500.371035 
L 598.514732 500.371035 
z
" style="fill:#96c69a;fill-opacity:0.5;stroke:#ffffff;stroke-linejoin:miter;stroke-width:1.60264;"/>
   </g>
   <g id="patch_26">
    <path clip-path="url(#pa9c5d5e7d7)" d="M 598.514732 500.371035 
L 615.40313 500.371035 
L 615.40313 484.344635 
L 598.514732 484.344635 
z
" style="fill:#96c69a;fill-opacity:0.5;stroke:#ffffff;stroke-linejoin:miter;stroke-width:1.60264;"/>
   </g>
   <g id="patch_27">
    <path clip-path="url(#pa9c5d5e7d7)" d="M 598.514732 484.344635 
L 625.683024 484.344635 
L 625.683024 468.318234 
L 598.514732 468.318234 
z
" style="fill:#96c69a;fill-opacity:0.5;stroke:#ffffff;stroke-linejoin:miter;stroke-width:1.60264;"/>
   </g>
   <g id="patch_28">
    <path clip-path="url(#pa9c5d5e7d7)" d="M 598.514732 468.318234 
L 633.025805 468.318234 
L 633.025805 452.291833 
L 598.514732 452.291833 
z
" style="fill:#96c69a;fill-opacity:0.5;stroke:#ffffff;stroke-linejoin:miter;stroke-width:1.60264;"/>
   </g>
   <g id="patch_29">
    <path clip-path="url(#pa9c5d5e7d7)" d="M 598.514732 452.291833 
L 646.97709 452.291833 
L 646.97709 436.265432 
L 598.514732 436.265432 
z
" style="fill:#96c69a;fill-opacity:0.5;stroke:#ffffff;stroke-linejoin:miter;stroke-width:1.60264;"/>
   </g>
   <g id="patch_30">
    <path clip-path="url(#pa9c5d5e7d7)" d="M 598.514732 436.265432 
L 666.802601 436.265432 
L 666.802601 420.239032 
L 598.514732 420.239032 
z
" style="fill:#96c69a;fill-opacity:0.5;stroke:#ffffff;stroke-linejoin:miter;stroke-width:1.60264;"/>
   </g>
   <g id="patch_31">
    <path clip-path="url(#pa9c5d5e7d7)" d="M 598.514732 420.239032 
L 663.13121 420.239032 
L 663.13121 404.212631 
L 598.514732 404.212631 
z
" style="fill:#96c69a;fill-opacity:0.5;stroke:#ffffff;stroke-linejoin:miter;stroke-width:1.60264;"/>
   </g>
   <g id="patch_32">
    <path clip-path="url(#pa9c5d5e7d7)" d="M 598.514732 404.212631 
L 670.473991 404.212631 
L 670.473991 388.18623 
L 598.514732 388.18623 
z
" style="fill:#96c69a;fill-opacity:0.5;stroke:#ffffff;stroke-linejoin:miter;stroke-width:1.60264;"/>
   </g>
   <g id="patch_33">
    <path clip-path="url(#pa9c5d5e7d7)" d="M 598.514732 388.18623 
L 677.816773 388.18623 
L 677.816773 372.159829 
L 598.514732 372.159829 
z
" style="fill:#96c69a;fill-opacity:0.5;stroke:#ffffff;stroke-linejoin:miter;stroke-width:1.60264;"/>
   </g>
   <g id="patch_34">
    <path clip-path="url(#pa9c5d5e7d7)" d="M 598.514732 372.159829 
L 672.676826 372.159829 
L 672.676826 356.133429 
L 598.514732 356.133429 
z
" style="fill:#96c69a;fill-opacity:0.5;stroke:#ffffff;stroke-linejoin:miter;stroke-width:1.60264;"/>
   </g>
   <g id="patch_35">
    <path clip-path="url(#pa9c5d5e7d7)" d="M 598.514732 356.133429 
L 666.802601 356.133429 
L 666.802601 340.107028 
L 598.514732 340.107028 
z
" style="fill:#96c69a;fill-opacity:0.5;stroke:#ffffff;stroke-linejoin:miter;stroke-width:1.60264;"/>
   </g>
   <g id="patch_36">
    <path clip-path="url(#pa9c5d5e7d7)" d="M 598.514732 340.107028 
L 646.97709 340.107028 
L 646.97709 324.080627 
L 598.514732 324.080627 
z
" style="fill:#96c69a;fill-opacity:0.5;stroke:#ffffff;stroke-linejoin:miter;stroke-width:1.60264;"/>
   </g>
   <g id="patch_37">
    <path clip-path="url(#pa9c5d5e7d7)" d="M 598.514732 324.080627 
L 627.15158 324.080627 
L 627.15158 308.054226 
L 598.514732 308.054226 
z
" style="fill:#96c69a;fill-opacity:0.5;stroke:#ffffff;stroke-linejoin:miter;stroke-width:1.60264;"/>
   </g>
   <g id="patch_38">
    <path clip-path="url(#pa9c5d5e7d7)" d="M 598.514732 308.054226 
L 620.543077 308.054226 
L 620.543077 292.027826 
L 598.514732 292.027826 
z
" style="fill:#96c69a;fill-opacity:0.5;stroke:#ffffff;stroke-linejoin:miter;stroke-width:1.60264;"/>
   </g>
   <g id="patch_39">
    <path clip-path="url(#pa9c5d5e7d7)" d="M 598.514732 292.027826 
L 618.340242 292.027826 
L 618.340242 276.001425 
L 598.514732 276.001425 
z
" style="fill:#96c69a;fill-opacity:0.5;stroke:#ffffff;stroke-linejoin:miter;stroke-width:1.60264;"/>
   </g>
   <g id="patch_40">
    <path clip-path="url(#pa9c5d5e7d7)" d="M 598.514732 276.001425 
L 617.605964 276.001425 
L 617.605964 259.975024 
L 598.514732 259.975024 
z
" style="fill:#96c69a;fill-opacity:0.5;stroke:#ffffff;stroke-linejoin:miter;stroke-width:1.60264;"/>
   </g>
   <g id="patch_41">
    <path clip-path="url(#pa9c5d5e7d7)" d="M 598.514732 259.975024 
L 605.123236 259.975024 
L 605.123236 243.948623 
L 598.514732 243.948623 
z
" style="fill:#96c69a;fill-opacity:0.5;stroke:#ffffff;stroke-linejoin:miter;stroke-width:1.60264;"/>
   </g>
   <g id="patch_42">
    <path clip-path="url(#pa9c5d5e7d7)" d="M 598.514732 243.948623 
L 605.123236 243.948623 
L 605.123236 227.922223 
L 598.514732 227.922223 
z
" style="fill:#96c69a;fill-opacity:0.5;stroke:#ffffff;stroke-linejoin:miter;stroke-width:1.60264;"/>
   </g>
   <g id="patch_43">
    <path clip-path="url(#pa9c5d5e7d7)" d="M 598.514732 227.922223 
L 605.123236 227.922223 
L 605.123236 211.895822 
L 598.514732 211.895822 
z
" style="fill:#96c69a;fill-opacity:0.5;stroke:#ffffff;stroke-linejoin:miter;stroke-width:1.60264;"/>
   </g>
   <g id="patch_44">
    <path clip-path="url(#pa9c5d5e7d7)" d="M 598.514732 211.895822 
L 599.983288 211.895822 
L 599.983288 195.869421 
L 598.514732 195.869421 
z
" style="fill:#96c69a;fill-opacity:0.5;stroke:#ffffff;stroke-linejoin:miter;stroke-width:1.60264;"/>
   </g>
   <g id="patch_45">
    <path clip-path="url(#pa9c5d5e7d7)" d="M 598.514732 195.869421 
L 599.24901 195.869421 
L 599.24901 179.84302 
L 598.514732 179.84302 
z
" style="fill:#96c69a;fill-opacity:0.5;stroke:#ffffff;stroke-linejoin:miter;stroke-width:1.60264;"/>
   </g>
   <g id="patch_46">
    <path clip-path="url(#pa9c5d5e7d7)" d="M 598.514732 179.84302 
L 599.983288 179.84302 
L 599.983288 163.81662 
L 598.514732 163.81662 
z
" style="fill:#96c69a;fill-opacity:0.5;stroke:#ffffff;stroke-linejoin:miter;stroke-width:1.60264;"/>
   </g>
   <g id="patch_47">
    <path clip-path="url(#pa9c5d5e7d7)" d="M 598.514732 163.81662 
L 598.514732 163.81662 
L 598.514732 147.790219 
L 598.514732 147.790219 
z
" style="fill:#96c69a;fill-opacity:0.5;stroke:#ffffff;stroke-linejoin:miter;stroke-width:1.60264;"/>
   </g>
   <g id="patch_48">
    <path clip-path="url(#pa9c5d5e7d7)" d="M 598.514732 147.790219 
L 599.983288 147.790219 
L 599.983288 131.763818 
L 598.514732 131.763818 
z
" style="fill:#96c69a;fill-opacity:0.5;stroke:#ffffff;stroke-linejoin:miter;stroke-width:1.60264;"/>
   </g>
   <g id="patch_49">
    <path d="M 598.514732 602.94 
L 598.514732 109.326857 
" style="fill:none;stroke:#262626;stroke-linecap:square;stroke-linejoin:miter;stroke-width:2.5;"/>
   </g>
   <g id="patch_50">
    <path d="M 598.514732 602.94 
L 681.781875 602.94 
" style="fill:none;stroke:#262626;stroke-linecap:square;stroke-linejoin:miter;stroke-width:2.5;"/>
   </g>
  </g>
 </g>
 <defs>
  <clipPath id="p878dff1589">
   <rect height="493.613143" width="482.949429" x="98.911875" y="109.326857"/>
  </clipPath>
  <clipPath id="p3076e60941">
   <rect height="85.105714" width="482.949429" x="98.911875" y="7.2"/>
  </clipPath>
  <clipPath id="pa9c5d5e7d7">
   <rect height="493.613143" width="83.267143" x="598.514732" y="109.326857"/>
  </clipPath>
 </defs>
</svg>
