<?xml version="1.0" encoding="utf-8" standalone="no"?>
<!DOCTYPE svg PUBLIC "-//W3C//DTD SVG 1.1//EN"
  "http://www.w3.org/Graphics/SVG/1.1/DTD/svg11.dtd">
<svg height="675.079375pt" version="1.1" viewBox="0 0 674.774375 675.079375" width="674.774375pt" xmlns="http://www.w3.org/2000/svg" xmlns:xlink="http://www.w3.org/1999/xlink">
 <metadata>
  <rdf:RDF xmlns:cc="http://creativecommons.org/ns#" xmlns:dc="http://purl.org/dc/elements/1.1/" xmlns:rdf="http://www.w3.org/1999/02/22-rdf-syntax-ns#">
   <cc:Work>
    <dc:type rdf:resource="http://purl.org/dc/dcmitype/StillImage"/>
    <dc:date>2021-07-16T22:21:42.869564</dc:date>
    <dc:format>image/svg+xml</dc:format>
    <dc:creator>
     <cc:Agent>
      <dc:title>Matplotlib v3.4.2, https://matplotlib.org/</dc:title>
     </cc:Agent>
    </dc:creator>
   </cc:Work>
  </rdf:RDF>
 </metadata>
 <defs>
  <style type="text/css">*{stroke-linecap:butt;stroke-linejoin:round;}</style>
 </defs>
 <g id="figure_1">
  <g id="patch_1">
   <path d="M 0 675.079375 
L 674.774375 675.079375 
L 674.774375 0 
L 0 0 
z
" style="fill:#ffffff;"/>
  </g>
  <g id="axes_1">
   <g id="patch_2">
    <path d="M 84.914375 603.86 
L 567.689804 603.86 
L 567.689804 109.484571 
L 84.914375 109.484571 
z
" style="fill:none;"/>
   </g>
   <g id="matplotlib.axis_1">
    <g id="xtick_1">
     <g id="text_1">
      <!-- 0 -->
      <g style="fill:#262626;" transform="translate(99.64041 636.076563)scale(0.22 -0.22)">
       <defs>
        <path d="M 2034 4250 
Q 1547 4250 1301 3770 
Q 1056 3291 1056 2328 
Q 1056 1369 1301 889 
Q 1547 409 2034 409 
Q 2525 409 2770 889 
Q 3016 1369 3016 2328 
Q 3016 3291 2770 3770 
Q 2525 4250 2034 4250 
z
M 2034 4750 
Q 2819 4750 3233 4129 
Q 3647 3509 3647 2328 
Q 3647 1150 3233 529 
Q 2819 -91 2034 -91 
Q 1250 -91 836 529 
Q 422 1150 422 2328 
Q 422 3509 836 4129 
Q 1250 4750 2034 4750 
z
" id="DejaVuSans-30" transform="scale(0.015625)"/>
       </defs>
       <use xlink:href="#DejaVuSans-30"/>
      </g>
     </g>
    </g>
    <g id="xtick_2">
     <g id="text_2">
      <!-- 20000 -->
      <g style="fill:#262626;" transform="translate(159.466671 636.076563)scale(0.22 -0.22)">
       <defs>
        <path d="M 1228 531 
L 3431 531 
L 3431 0 
L 469 0 
L 469 531 
Q 828 903 1448 1529 
Q 2069 2156 2228 2338 
Q 2531 2678 2651 2914 
Q 2772 3150 2772 3378 
Q 2772 3750 2511 3984 
Q 2250 4219 1831 4219 
Q 1534 4219 1204 4116 
Q 875 4013 500 3803 
L 500 4441 
Q 881 4594 1212 4672 
Q 1544 4750 1819 4750 
Q 2544 4750 2975 4387 
Q 3406 4025 3406 3419 
Q 3406 3131 3298 2873 
Q 3191 2616 2906 2266 
Q 2828 2175 2409 1742 
Q 1991 1309 1228 531 
z
" id="DejaVuSans-32" transform="scale(0.015625)"/>
       </defs>
       <use xlink:href="#DejaVuSans-32"/>
       <use x="63.623047" xlink:href="#DejaVuSans-30"/>
       <use x="127.246094" xlink:href="#DejaVuSans-30"/>
       <use x="190.869141" xlink:href="#DejaVuSans-30"/>
       <use x="254.492188" xlink:href="#DejaVuSans-30"/>
      </g>
     </g>
    </g>
    <g id="xtick_3">
     <g id="text_3">
      <!-- 40000 -->
      <g style="fill:#262626;" transform="translate(247.287932 636.076563)scale(0.22 -0.22)">
       <defs>
        <path d="M 2419 4116 
L 825 1625 
L 2419 1625 
L 2419 4116 
z
M 2253 4666 
L 3047 4666 
L 3047 1625 
L 3713 1625 
L 3713 1100 
L 3047 1100 
L 3047 0 
L 2419 0 
L 2419 1100 
L 313 1100 
L 313 1709 
L 2253 4666 
z
" id="DejaVuSans-34" transform="scale(0.015625)"/>
       </defs>
       <use xlink:href="#DejaVuSans-34"/>
       <use x="63.623047" xlink:href="#DejaVuSans-30"/>
       <use x="127.246094" xlink:href="#DejaVuSans-30"/>
       <use x="190.869141" xlink:href="#DejaVuSans-30"/>
       <use x="254.492188" xlink:href="#DejaVuSans-30"/>
      </g>
     </g>
    </g>
    <g id="xtick_4">
     <g id="text_4">
      <!-- 60000 -->
      <g style="fill:#262626;" transform="translate(335.109193 636.076563)scale(0.22 -0.22)">
       <defs>
        <path d="M 2113 2584 
Q 1688 2584 1439 2293 
Q 1191 2003 1191 1497 
Q 1191 994 1439 701 
Q 1688 409 2113 409 
Q 2538 409 2786 701 
Q 3034 994 3034 1497 
Q 3034 2003 2786 2293 
Q 2538 2584 2113 2584 
z
M 3366 4563 
L 3366 3988 
Q 3128 4100 2886 4159 
Q 2644 4219 2406 4219 
Q 1781 4219 1451 3797 
Q 1122 3375 1075 2522 
Q 1259 2794 1537 2939 
Q 1816 3084 2150 3084 
Q 2853 3084 3261 2657 
Q 3669 2231 3669 1497 
Q 3669 778 3244 343 
Q 2819 -91 2113 -91 
Q 1303 -91 875 529 
Q 447 1150 447 2328 
Q 447 3434 972 4092 
Q 1497 4750 2381 4750 
Q 2619 4750 2861 4703 
Q 3103 4656 3366 4563 
z
" id="DejaVuSans-36" transform="scale(0.015625)"/>
       </defs>
       <use xlink:href="#DejaVuSans-36"/>
       <use x="63.623047" xlink:href="#DejaVuSans-30"/>
       <use x="127.246094" xlink:href="#DejaVuSans-30"/>
       <use x="190.869141" xlink:href="#DejaVuSans-30"/>
       <use x="254.492188" xlink:href="#DejaVuSans-30"/>
      </g>
     </g>
    </g>
    <g id="xtick_5">
     <g id="text_5">
      <!-- 80000 -->
      <g style="fill:#262626;" transform="translate(422.930455 636.076563)scale(0.22 -0.22)">
       <defs>
        <path d="M 2034 2216 
Q 1584 2216 1326 1975 
Q 1069 1734 1069 1313 
Q 1069 891 1326 650 
Q 1584 409 2034 409 
Q 2484 409 2743 651 
Q 3003 894 3003 1313 
Q 3003 1734 2745 1975 
Q 2488 2216 2034 2216 
z
M 1403 2484 
Q 997 2584 770 2862 
Q 544 3141 544 3541 
Q 544 4100 942 4425 
Q 1341 4750 2034 4750 
Q 2731 4750 3128 4425 
Q 3525 4100 3525 3541 
Q 3525 3141 3298 2862 
Q 3072 2584 2669 2484 
Q 3125 2378 3379 2068 
Q 3634 1759 3634 1313 
Q 3634 634 3220 271 
Q 2806 -91 2034 -91 
Q 1263 -91 848 271 
Q 434 634 434 1313 
Q 434 1759 690 2068 
Q 947 2378 1403 2484 
z
M 1172 3481 
Q 1172 3119 1398 2916 
Q 1625 2713 2034 2713 
Q 2441 2713 2670 2916 
Q 2900 3119 2900 3481 
Q 2900 3844 2670 4047 
Q 2441 4250 2034 4250 
Q 1625 4250 1398 4047 
Q 1172 3844 1172 3481 
z
" id="DejaVuSans-38" transform="scale(0.015625)"/>
       </defs>
       <use xlink:href="#DejaVuSans-38"/>
       <use x="63.623047" xlink:href="#DejaVuSans-30"/>
       <use x="127.246094" xlink:href="#DejaVuSans-30"/>
       <use x="190.869141" xlink:href="#DejaVuSans-30"/>
       <use x="254.492188" xlink:href="#DejaVuSans-30"/>
      </g>
     </g>
    </g>
    <g id="xtick_6">
     <g id="text_6">
      <!-- 100000 -->
      <g style="fill:#262626;" transform="translate(503.752966 636.076563)scale(0.22 -0.22)">
       <defs>
        <path d="M 794 531 
L 1825 531 
L 1825 4091 
L 703 3866 
L 703 4441 
L 1819 4666 
L 2450 4666 
L 2450 531 
L 3481 531 
L 3481 0 
L 794 0 
L 794 531 
z
" id="DejaVuSans-31" transform="scale(0.015625)"/>
       </defs>
       <use xlink:href="#DejaVuSans-31"/>
       <use x="63.623047" xlink:href="#DejaVuSans-30"/>
       <use x="127.246094" xlink:href="#DejaVuSans-30"/>
       <use x="190.869141" xlink:href="#DejaVuSans-30"/>
       <use x="254.492188" xlink:href="#DejaVuSans-30"/>
       <use x="318.115234" xlink:href="#DejaVuSans-30"/>
      </g>
     </g>
    </g>
    <g id="text_7">
     <!-- MDTU -->
     <g style="fill:#262626;" transform="translate(290.596464 662.888125)scale(0.24 -0.24)">
      <defs>
       <path d="M 628 4666 
L 1569 4666 
L 2759 1491 
L 3956 4666 
L 4897 4666 
L 4897 0 
L 4281 0 
L 4281 4097 
L 3078 897 
L 2444 897 
L 1241 4097 
L 1241 0 
L 628 0 
L 628 4666 
z
" id="DejaVuSans-4d" transform="scale(0.015625)"/>
       <path d="M 1259 4147 
L 1259 519 
L 2022 519 
Q 2988 519 3436 956 
Q 3884 1394 3884 2338 
Q 3884 3275 3436 3711 
Q 2988 4147 2022 4147 
L 1259 4147 
z
M 628 4666 
L 1925 4666 
Q 3281 4666 3915 4102 
Q 4550 3538 4550 2338 
Q 4550 1131 3912 565 
Q 3275 0 1925 0 
L 628 0 
L 628 4666 
z
" id="DejaVuSans-44" transform="scale(0.015625)"/>
       <path d="M -19 4666 
L 3928 4666 
L 3928 4134 
L 2272 4134 
L 2272 0 
L 1638 0 
L 1638 4134 
L -19 4134 
L -19 4666 
z
" id="DejaVuSans-54" transform="scale(0.015625)"/>
       <path d="M 556 4666 
L 1191 4666 
L 1191 1831 
Q 1191 1081 1462 751 
Q 1734 422 2344 422 
Q 2950 422 3222 751 
Q 3494 1081 3494 1831 
L 3494 4666 
L 4128 4666 
L 4128 1753 
Q 4128 841 3676 375 
Q 3225 -91 2344 -91 
Q 1459 -91 1007 375 
Q 556 841 556 1753 
L 556 4666 
z
" id="DejaVuSans-55" transform="scale(0.015625)"/>
      </defs>
      <use xlink:href="#DejaVuSans-4d"/>
      <use x="86.279297" xlink:href="#DejaVuSans-44"/>
      <use x="163.28125" xlink:href="#DejaVuSans-54"/>
      <use x="224.365234" xlink:href="#DejaVuSans-55"/>
     </g>
    </g>
   </g>
   <g id="matplotlib.axis_2">
    <g id="ytick_1">
     <g id="text_8">
      <!-- 0.2 -->
      <g style="fill:#262626;" transform="translate(34.4275 605.731472)scale(0.22 -0.22)">
       <defs>
        <path d="M 684 794 
L 1344 794 
L 1344 0 
L 684 0 
L 684 794 
z
" id="DejaVuSans-2e" transform="scale(0.015625)"/>
       </defs>
       <use xlink:href="#DejaVuSans-30"/>
       <use x="63.623047" xlink:href="#DejaVuSans-2e"/>
       <use x="95.410156" xlink:href="#DejaVuSans-32"/>
      </g>
     </g>
    </g>
    <g id="ytick_2">
     <g id="text_9">
      <!-- 0.4 -->
      <g style="fill:#262626;" transform="translate(34.4275 547.859136)scale(0.22 -0.22)">
       <use xlink:href="#DejaVuSans-30"/>
       <use x="63.623047" xlink:href="#DejaVuSans-2e"/>
       <use x="95.410156" xlink:href="#DejaVuSans-34"/>
      </g>
     </g>
    </g>
    <g id="ytick_3">
     <g id="text_10">
      <!-- 0.6 -->
      <g style="fill:#262626;" transform="translate(34.4275 489.9868)scale(0.22 -0.22)">
       <use xlink:href="#DejaVuSans-30"/>
       <use x="63.623047" xlink:href="#DejaVuSans-2e"/>
       <use x="95.410156" xlink:href="#DejaVuSans-36"/>
      </g>
     </g>
    </g>
    <g id="ytick_4">
     <g id="text_11">
      <!-- 0.8 -->
      <g style="fill:#262626;" transform="translate(34.4275 432.114464)scale(0.22 -0.22)">
       <use xlink:href="#DejaVuSans-30"/>
       <use x="63.623047" xlink:href="#DejaVuSans-2e"/>
       <use x="95.410156" xlink:href="#DejaVuSans-38"/>
      </g>
     </g>
    </g>
    <g id="ytick_5">
     <g id="text_12">
      <!-- 1.0 -->
      <g style="fill:#262626;" transform="translate(34.4275 374.242128)scale(0.22 -0.22)">
       <use xlink:href="#DejaVuSans-31"/>
       <use x="63.623047" xlink:href="#DejaVuSans-2e"/>
       <use x="95.410156" xlink:href="#DejaVuSans-30"/>
      </g>
     </g>
    </g>
    <g id="ytick_6">
     <g id="text_13">
      <!-- 1.2 -->
      <g style="fill:#262626;" transform="translate(34.4275 316.369792)scale(0.22 -0.22)">
       <use xlink:href="#DejaVuSans-31"/>
       <use x="63.623047" xlink:href="#DejaVuSans-2e"/>
       <use x="95.410156" xlink:href="#DejaVuSans-32"/>
      </g>
     </g>
    </g>
    <g id="ytick_7">
     <g id="text_14">
      <!-- 1.4 -->
      <g style="fill:#262626;" transform="translate(34.4275 258.497456)scale(0.22 -0.22)">
       <use xlink:href="#DejaVuSans-31"/>
       <use x="63.623047" xlink:href="#DejaVuSans-2e"/>
       <use x="95.410156" xlink:href="#DejaVuSans-34"/>
      </g>
     </g>
    </g>
    <g id="ytick_8">
     <g id="text_15">
      <!-- 1.6 -->
      <g style="fill:#262626;" transform="translate(34.4275 200.62512)scale(0.22 -0.22)">
       <use xlink:href="#DejaVuSans-31"/>
       <use x="63.623047" xlink:href="#DejaVuSans-2e"/>
       <use x="95.410156" xlink:href="#DejaVuSans-36"/>
      </g>
     </g>
    </g>
    <g id="ytick_9">
     <g id="text_16">
      <!-- 1.8 -->
      <g style="fill:#262626;" transform="translate(34.4275 142.752784)scale(0.22 -0.22)">
       <use xlink:href="#DejaVuSans-31"/>
       <use x="63.623047" xlink:href="#DejaVuSans-2e"/>
       <use x="95.410156" xlink:href="#DejaVuSans-38"/>
      </g>
     </g>
    </g>
    <g id="text_17">
     <!-- $E$ -->
     <g style="fill:#262626;" transform="translate(25.43625 364.352286)rotate(-90)scale(0.24 -0.24)">
      <defs>
       <path d="M 1081 4666 
L 4031 4666 
L 3928 4134 
L 1606 4134 
L 1338 2753 
L 3566 2753 
L 3463 2222 
L 1234 2222 
L 909 531 
L 3284 531 
L 3181 0 
L 172 0 
L 1081 4666 
z
" id="DejaVuSans-Oblique-45" transform="scale(0.015625)"/>
      </defs>
      <use transform="translate(0 0.09375)" xlink:href="#DejaVuSans-Oblique-45"/>
     </g>
    </g>
   </g>
   <g id="line2d_1">
    <path clip-path="url(#p9b765d71ee)" d="M 106.858713 454.091523 
L 107.078266 530.10192 
L 107.517372 420.590212 
L 107.736925 410.314948 
L 107.956478 552.144358 
L 108.176032 535.690534 
L 108.834691 394.638515 
L 109.054244 463.512556 
L 109.273797 452.48038 
L 109.493351 461.760358 
L 109.712904 455.411347 
L 109.932457 503.687755 
L 110.15201 295.870142 
L 110.371563 474.646838 
L 110.591116 366.424229 
L 110.810669 377.823615 
L 111.030223 397.045934 
L 111.249776 477.049958 
L 111.469329 445.199536 
L 111.688882 468.957342 
L 111.908435 391.259309 
L 112.347541 540.382248 
L 112.786648 377.247159 
L 113.006201 408.950081 
L 113.225754 495.643578 
L 113.445307 411.336596 
L 113.66486 499.471121 
L 113.884414 454.507322 
L 114.103967 511.405149 
L 114.32352 499.084986 
L 114.543073 466.74415 
L 114.762626 494.16936 
L 114.982179 486.80254 
L 115.201732 332.395173 
L 115.421286 391.099108 
L 115.640839 503.268639 
L 115.860392 411.240145 
L 116.079945 412.169218 
L 116.519051 539.303401 
L 116.738605 341.449093 
L 116.958158 514.86507 
L 117.177711 360.244327 
L 117.397264 557.638866 
L 117.616817 531.709637 
L 117.83637 332.448385 
L 118.055923 509.100153 
L 118.275477 483.540833 
L 118.49503 365.783984 
L 118.714583 537.067409 
L 118.934136 492.32675 
L 119.153689 506.058446 
L 119.373242 485.603351 
L 119.592796 518.742687 
L 119.812349 534.31523 
L 120.031902 405.502553 
L 120.251455 489.504344 
L 120.471008 467.508546 
L 120.690561 468.555759 
L 120.910114 398.024412 
L 121.129668 427.600116 
L 121.349221 480.498067 
L 121.568774 421.291714 
L 121.788327 469.677429 
L 122.00788 465.103147 
L 122.227433 529.660484 
L 122.446987 462.707912 
L 122.66654 487.547541 
L 123.105646 421.287203 
L 123.325199 549.918021 
L 123.544752 519.317193 
L 123.764305 557.071353 
L 123.983859 391.972331 
L 124.203412 421.266592 
L 124.422965 553.976645 
L 124.862071 455.407581 
L 125.081624 285.0642 
L 125.301178 507.853413 
L 125.520731 454.054791 
L 125.740284 478.501379 
L 125.959837 305.859922 
L 126.398943 522.878507 
L 126.618496 478.956341 
L 126.83805 394.695293 
L 127.057603 499.711612 
L 127.277156 440.237408 
L 127.496709 424.791283 
L 127.716262 547.752634 
L 128.155369 386.747157 
L 128.374922 466.396077 
L 128.594475 490.396815 
L 128.814028 457.191039 
L 129.033581 463.077665 
L 129.253134 482.217789 
L 129.472687 574.23818 
L 129.692241 391.920738 
L 129.911794 402.758045 
L 130.131347 467.971779 
L 130.3509 450.185497 
L 130.570453 468.226855 
L 130.790006 458.906301 
L 131.00956 471.704259 
L 131.229113 439.633477 
L 131.448666 444.296697 
L 131.668219 503.542027 
L 131.887772 531.763571 
L 132.107325 390.819927 
L 132.326878 561.284675 
L 132.546432 481.214606 
L 132.765985 501.924092 
L 132.985538 379.668247 
L 133.205091 540.13256 
L 133.424644 493.207519 
L 133.644197 518.644485 
L 133.863751 522.157145 
L 134.302857 317.295799 
L 134.52241 481.59957 
L 134.741963 473.611864 
L 135.181069 552.508008 
L 135.400623 434.999178 
L 135.620176 504.833435 
L 135.839729 409.858199 
L 136.059282 437.432617 
L 136.278835 341.761112 
L 136.498388 368.4889 
L 136.717941 379.928864 
L 137.157048 541.085504 
L 137.596154 474.62464 
L 137.815707 517.035074 
L 138.03526 325.554645 
L 138.254814 420.881994 
L 138.474367 408.189033 
L 138.69392 534.680592 
L 138.913473 450.960337 
L 139.352579 388.895018 
L 139.572132 408.791714 
L 139.791686 413.179566 
L 140.011239 409.837435 
L 140.230792 487.886981 
L 140.450345 488.52728 
L 140.669898 428.888619 
L 140.889451 574.712377 
L 141.328558 279.32196 
L 141.548111 490.939091 
L 141.767664 527.132991 
L 141.987217 455.430324 
L 142.20677 501.555315 
L 142.426323 514.571353 
L 142.645877 471.334144 
L 142.86543 521.036354 
L 143.084983 458.202672 
L 143.304536 298.107092 
L 143.524089 477.793123 
L 143.743642 532.83506 
L 143.963196 510.457788 
L 144.182749 328.69533 
L 144.621855 516.838544 
L 144.841408 465.537704 
L 145.060961 492.154358 
L 145.280514 364.046999 
L 145.500068 506.304057 
L 145.719621 439.762214 
L 145.939174 431.768425 
L 146.158727 514.183606 
L 146.37828 553.87768 
L 146.597833 557.360254 
L 146.817387 506.770748 
L 147.03694 516.588951 
L 147.256493 408.398115 
L 147.476046 503.457945 
L 147.695599 484.87747 
L 147.915152 554.385787 
L 148.134705 521.17869 
L 148.354259 523.546798 
L 148.573812 408.413417 
L 148.793365 370.289316 
L 149.012918 380.965992 
L 149.232471 471.568908 
L 149.452024 406.21173 
L 149.671578 414.922176 
L 149.891131 446.923811 
L 150.110684 438.338865 
L 150.330237 514.360551 
L 150.54979 468.466814 
L 150.769343 340.138744 
L 150.988896 504.707351 
L 151.20845 439.199153 
L 151.428003 460.903569 
L 151.867109 393.029699 
L 152.086662 367.462586 
L 152.306215 461.279229 
L 152.525769 455.825317 
L 152.745322 515.387304 
L 152.964875 417.340602 
L 153.184428 550.219448 
L 153.403981 535.064492 
L 153.623534 539.220938 
L 153.843087 452.953842 
L 154.062641 513.209507 
L 154.282194 402.259556 
L 154.501747 442.564249 
L 154.940853 393.153106 
L 155.160406 359.322416 
L 155.37996 369.009757 
L 155.599513 407.170207 
L 155.819066 297.183822 
L 156.038619 502.416312 
L 156.258172 465.051745 
L 156.477725 527.419546 
L 156.916832 372.482245 
L 157.136385 451.583824 
L 157.355938 411.348572 
L 157.575491 443.491762 
L 157.795044 436.500448 
L 158.014597 514.340316 
L 158.234151 390.311718 
L 158.453704 498.827868 
L 158.673257 224.617464 
L 158.89281 421.163203 
L 159.112363 378.559403 
L 159.551469 503.738421 
L 159.771023 389.335467 
L 159.990576 532.484425 
L 160.210129 316.742716 
L 160.429682 457.761206 
L 160.649235 419.269572 
L 160.868788 508.338674 
L 161.088342 312.871186 
L 161.307895 471.858233 
L 161.747001 413.749628 
L 161.966554 446.592199 
L 162.186107 505.723428 
L 162.40566 495.550107 
L 162.625214 507.463109 
L 162.844767 329.712023 
L 163.06432 569.421114 
L 163.283873 425.372892 
L 163.503426 528.281872 
L 163.942532 474.18321 
L 164.162086 346.201507 
L 164.601192 479.59638 
L 164.820745 438.921827 
L 165.040298 457.467901 
L 165.259851 373.714129 
L 165.698958 505.244315 
L 165.918511 424.514244 
L 166.138064 434.111828 
L 166.357617 475.511339 
L 166.57717 336.392886 
L 166.796723 518.901538 
L 167.016277 531.139552 
L 167.23583 428.992566 
L 167.455383 383.408635 
L 167.674936 460.245117 
L 168.114042 431.537469 
L 168.333596 534.777654 
L 168.553149 344.55944 
L 168.772702 521.669131 
L 168.992255 349.519379 
L 169.211808 492.478028 
L 169.431361 342.402098 
L 169.650914 294.615561 
L 169.870468 457.505438 
L 170.090021 426.015185 
L 170.309574 420.898572 
L 170.529127 454.231345 
L 170.74868 460.507634 
L 170.968233 379.355052 
L 171.187787 412.862496 
L 171.40734 361.161844 
L 171.846446 477.379791 
L 172.065999 462.88454 
L 172.285552 350.117105 
L 172.505105 416.645721 
L 172.724659 422.178424 
L 172.944212 413.492809 
L 173.163765 472.964791 
L 173.383318 462.642738 
L 173.602871 516.87083 
L 173.822424 521.334877 
L 174.261531 449.017981 
L 174.481084 572.301336 
L 174.700637 325.22813 
L 174.92019 444.554039 
L 175.139743 370.767856 
L 175.57885 481.68603 
L 175.798403 455.957914 
L 176.017956 497.303534 
L 176.237509 445.951026 
L 176.457062 364.261545 
L 176.676615 494.406244 
L 176.896169 253.479246 
L 177.115722 457.97017 
L 177.335275 433.29848 
L 177.554828 552.548587 
L 177.774381 431.130034 
L 177.993934 448.804313 
L 178.213487 488.401616 
L 178.433041 403.40139 
L 178.872147 540.968175 
L 179.0917 545.421557 
L 179.311253 418.069181 
L 179.75036 523.53015 
L 179.969913 479.98753 
L 180.189466 492.823553 
L 180.409019 404.32099 
L 180.628572 463.431918 
L 180.848125 475.134642 
L 181.067678 529.94658 
L 181.287232 525.846488 
L 181.506785 159.809635 
L 181.726338 503.17549 
L 181.945891 367.343921 
L 182.165444 449.162351 
L 182.384997 432.49284 
L 182.604551 433.987266 
L 182.824104 451.362264 
L 183.043657 517.462673 
L 183.26321 536.296024 
L 183.482763 374.138862 
L 183.702316 526.081621 
L 183.921869 426.474428 
L 184.360976 539.336706 
L 184.580529 425.501471 
L 184.800082 445.318351 
L 185.019635 482.528778 
L 185.239188 447.856309 
L 185.458742 322.732195 
L 185.678295 374.718979 
L 185.897848 317.187137 
L 186.117401 458.170667 
L 186.556507 528.249299 
L 186.77606 525.576673 
L 186.995614 376.618029 
L 187.215167 382.796368 
L 187.43472 510.848913 
L 187.654273 556.527855 
L 188.093379 376.14068 
L 188.312932 532.004136 
L 188.532486 390.610489 
L 188.752039 424.176364 
L 188.971592 525.526245 
L 189.191145 410.475905 
L 189.410698 383.21049 
L 189.630251 463.828255 
L 189.849805 459.376121 
L 190.069358 536.064034 
L 190.508464 438.5229 
L 190.728017 450.592184 
L 190.94757 557.866076 
L 191.167123 413.459917 
L 191.386677 376.379546 
L 191.825783 561.211365 
L 192.045336 388.619231 
L 192.264889 406.770317 
L 192.484442 367.317181 
L 192.923549 550.914001 
L 193.362655 472.550936 
L 193.582208 332.539325 
L 193.801761 394.92418 
L 194.021314 422.170288 
L 194.240868 548.30615 
L 194.460421 459.59349 
L 194.679974 515.760502 
L 194.899527 393.375148 
L 195.11908 478.420123 
L 195.338633 473.426782 
L 195.558187 395.407192 
L 195.77774 508.773536 
L 195.997293 532.251241 
L 196.216846 419.104964 
L 196.436399 372.311032 
L 196.655952 483.371109 
L 196.875505 513.548705 
L 197.095059 498.700742 
L 197.534165 371.008742 
L 197.753718 383.002916 
L 197.973271 407.595985 
L 198.192824 517.447389 
L 198.412378 425.850378 
L 198.851484 485.644448 
L 199.071037 359.884517 
L 199.29059 482.349785 
L 199.510143 443.784861 
L 199.729696 306.342723 
L 199.94925 507.922441 
L 200.168803 441.449004 
L 200.388356 501.383666 
L 200.607909 426.236639 
L 200.827462 475.729821 
L 201.047015 448.046145 
L 201.266569 503.399096 
L 201.486122 451.676025 
L 201.705675 347.444311 
L 201.925228 329.176883 
L 202.144781 430.605396 
L 202.364334 422.870662 
L 202.583887 457.2295 
L 203.022994 348.487139 
L 203.681653 526.158673 
L 203.901206 494.161505 
L 204.12076 561.599054 
L 204.340313 529.930706 
L 204.559866 451.072699 
L 204.779419 439.17751 
L 204.998972 241.189167 
L 205.218525 523.883081 
L 205.438078 415.376412 
L 205.657632 455.256358 
L 205.877185 536.66051 
L 206.096738 500.332285 
L 206.316291 517.892966 
L 206.535844 549.850344 
L 206.755397 484.791541 
L 206.974951 315.353081 
L 207.194504 458.59824 
L 207.414057 478.372792 
L 207.63361 536.341134 
L 207.853163 486.765625 
L 208.072716 468.735858 
L 208.292269 474.518143 
L 208.511823 526.427153 
L 208.731376 432.99969 
L 208.950929 433.80839 
L 209.170482 544.335868 
L 209.390035 456.616164 
L 209.609588 523.194631 
L 209.829142 376.813845 
L 210.487801 521.206679 
L 210.707354 490.01451 
L 210.926907 519.130996 
L 211.14646 338.28051 
L 211.366014 461.656865 
L 211.585567 476.557189 
L 211.80512 480.765567 
L 212.024673 429.736366 
L 212.244226 286.177044 
L 212.463779 343.048163 
L 212.683333 526.979698 
L 212.902886 519.203564 
L 213.122439 477.088436 
L 213.341992 511.368229 
L 213.561545 492.004174 
L 213.781098 513.869756 
L 214.000651 439.281079 
L 214.220205 539.50923 
L 214.439758 467.567437 
L 214.659311 507.016144 
L 214.878864 378.682115 
L 215.098417 532.991352 
L 215.31797 450.864334 
L 215.537523 473.09607 
L 215.757077 457.90265 
L 215.97663 416.0275 
L 216.196183 473.671871 
L 216.415736 489.169464 
L 216.635289 530.586442 
L 216.854842 365.347907 
L 217.074396 494.950125 
L 217.293949 513.379404 
L 217.513502 478.021671 
L 217.733055 483.425525 
L 217.952608 485.854535 
L 218.172161 485.279496 
L 218.391714 474.92191 
L 218.611268 331.665178 
L 218.830821 499.261674 
L 219.050374 490.078691 
L 219.269927 435.444562 
L 219.48948 491.074777 
L 219.709033 279.520336 
L 220.14814 549.692413 
L 220.367693 239.754812 
L 220.587246 447.29209 
L 220.806799 460.904861 
L 221.026352 524.195022 
L 221.245905 426.05171 
L 221.465459 432.388111 
L 221.685012 536.569884 
L 222.124118 522.471536 
L 222.343671 252.402585 
L 222.782778 495.587605 
L 223.002331 547.003038 
L 223.221884 477.837881 
L 223.441437 447.990191 
L 223.66099 475.454807 
L 223.880543 450.312538 
L 224.100096 512.731945 
L 224.31965 365.36908 
L 224.539203 497.707295 
L 224.758756 391.306615 
L 224.978309 367.739825 
L 225.417415 564.107044 
L 225.636969 460.314479 
L 225.856522 474.723859 
L 226.076075 438.729868 
L 226.295628 523.6641 
L 226.515181 477.86196 
L 226.734734 460.403866 
L 226.954287 397.406562 
L 227.173841 552.175258 
L 227.393394 425.861227 
L 227.612947 460.931406 
L 227.8325 514.90774 
L 228.052053 470.92729 
L 228.271606 368.515227 
L 228.49116 496.6961 
L 228.710713 510.821548 
L 228.930266 459.668022 
L 229.149819 440.182611 
L 229.369372 338.442626 
L 229.588925 417.178916 
L 229.808478 386.485399 
L 230.028032 395.051441 
L 230.247585 424.433996 
L 230.467138 488.237261 
L 230.686691 443.613239 
L 230.906244 467.579442 
L 231.125797 543.024721 
L 231.345351 546.365881 
L 231.564904 415.226497 
L 231.784457 428.611444 
L 232.00401 420.564562 
L 232.223563 511.874094 
L 232.443116 390.782307 
L 232.662669 416.16646 
L 232.882223 392.294268 
L 233.101776 430.211587 
L 233.321329 444.830761 
L 233.540882 516.621901 
L 233.760435 472.321895 
L 233.979988 467.127519 
L 234.199542 352.820455 
L 234.419095 495.928574 
L 234.858201 484.08678 
L 235.077754 412.175399 
L 235.297307 561.61639 
L 235.51686 394.165657 
L 235.736414 488.809423 
L 235.955967 376.918595 
L 236.17552 455.353805 
L 236.395073 451.578487 
L 236.614626 456.987888 
L 236.834179 544.838727 
L 237.053733 419.361127 
L 237.712392 543.92763 
L 237.931945 300.148902 
L 238.151498 317.474749 
L 238.371051 533.728467 
L 238.590605 538.933897 
L 238.810158 402.467998 
L 239.029711 402.379612 
L 239.249264 288.242202 
L 239.468817 438.659585 
L 239.68837 299.533229 
L 239.907924 497.463518 
L 240.127477 530.437896 
L 240.34703 531.609616 
L 240.566583 334.184312 
L 241.005689 504.150764 
L 241.225242 367.842845 
L 241.444796 390.378193 
L 241.883902 492.355115 
L 242.103455 236.3333 
L 242.323008 443.154013 
L 242.542561 433.704459 
L 242.762114 507.952365 
L 242.981668 511.578633 
L 243.201221 476.96912 
L 243.420774 415.799808 
L 243.640327 485.352738 
L 243.85988 497.223274 
L 244.079433 436.195477 
L 244.298987 512.844298 
L 244.51854 431.670331 
L 244.738093 461.849572 
L 244.957646 579.300999 
L 245.177199 380.718659 
L 245.396752 331.515488 
L 245.835859 527.993486 
L 246.055412 415.802179 
L 246.274965 484.995316 
L 246.494518 470.376556 
L 246.714071 440.100311 
L 246.933624 392.339473 
L 247.153178 509.085232 
L 247.372731 482.473708 
L 247.592284 387.090044 
L 247.811837 465.03439 
L 248.03139 499.291543 
L 248.470496 477.568968 
L 248.69005 391.497886 
L 249.129156 528.345748 
L 249.568262 272.66893 
L 249.787815 544.740591 
L 250.007369 420.677367 
L 250.446475 513.461343 
L 250.666028 489.068646 
L 250.885581 480.870904 
L 251.105134 438.019832 
L 251.324687 449.85014 
L 251.544241 430.714745 
L 251.763794 448.152004 
L 251.983347 480.33214 
L 252.2029 489.804864 
L 252.422453 388.310376 
L 252.642006 529.919949 
L 252.86156 422.231442 
L 253.081113 400.102595 
L 253.300666 464.540292 
L 253.520219 429.778212 
L 253.739772 264.652271 
L 254.178878 476.902039 
L 254.398432 362.508906 
L 254.837538 391.188987 
L 255.057091 471.819107 
L 255.276644 485.87144 
L 255.496197 460.834038 
L 255.715751 461.242866 
L 255.935304 409.738793 
L 256.37441 530.057669 
L 256.593963 476.208511 
L 256.813516 537.266652 
L 257.033069 553.184992 
L 257.252623 550.261972 
L 257.472176 411.55626 
L 257.691729 497.618771 
L 257.911282 481.083006 
L 258.130835 401.706556 
L 258.569942 534.068944 
L 258.789495 495.974083 
L 259.009048 435.080116 
L 259.228601 417.334942 
L 259.448154 517.738046 
L 259.667707 516.609045 
L 259.88726 551.296614 
L 260.106814 509.931334 
L 260.326367 530.089033 
L 260.54592 409.796441 
L 260.765473 419.665874 
L 260.985026 510.13764 
L 261.204579 442.485584 
L 261.424133 509.317174 
L 261.643686 362.834885 
L 261.863239 489.819419 
L 262.082792 357.885604 
L 262.302345 462.214895 
L 262.521898 506.33769 
L 262.741451 442.313202 
L 262.961005 533.325294 
L 263.180558 386.38482 
L 263.400111 512.239972 
L 263.619664 418.226868 
L 263.839217 474.584049 
L 264.05877 277.395152 
L 264.278324 465.929081 
L 264.497877 505.994405 
L 264.71743 499.652673 
L 264.936983 434.956599 
L 265.156536 530.845983 
L 265.376089 413.971699 
L 265.595642 402.207056 
L 265.815196 439.779513 
L 266.034749 532.867358 
L 266.473855 417.040192 
L 266.693408 486.127879 
L 266.912961 430.291368 
L 267.132514 542.137038 
L 267.352068 434.420251 
L 267.571621 490.163239 
L 267.791174 423.982806 
L 268.010727 393.526642 
L 268.23028 508.159032 
L 268.449833 315.358638 
L 268.669387 349.188344 
L 268.88894 472.022021 
L 269.108493 458.854371 
L 269.328046 460.049905 
L 269.547599 504.04744 
L 269.767152 328.425239 
L 269.986705 534.818093 
L 270.425812 446.19689 
L 270.645365 504.275447 
L 270.864918 509.756818 
L 271.084471 442.898754 
L 271.304024 504.539488 
L 271.523578 468.347455 
L 271.743131 456.547368 
L 271.962684 236.858056 
L 272.182237 494.275456 
L 272.40179 486.354949 
L 272.621343 433.262584 
L 272.840896 522.453821 
L 273.06045 481.019528 
L 273.280003 404.836231 
L 273.499556 379.324575 
L 273.719109 496.181285 
L 273.938662 489.643531 
L 274.158215 392.802091 
L 274.377769 393.217231 
L 274.597322 568.973517 
L 274.816875 408.413492 
L 275.036428 433.084692 
L 275.255981 197.192909 
L 275.695087 458.45546 
L 275.914641 501.246587 
L 276.134194 502.711021 
L 276.353747 455.882466 
L 276.5733 248.971355 
L 276.792853 490.457009 
L 277.012406 386.714312 
L 277.23196 488.470266 
L 277.451513 452.022304 
L 277.671066 488.332835 
L 277.890619 384.57145 
L 278.329725 489.373623 
L 278.549278 383.391182 
L 278.768832 494.418878 
L 278.988385 505.515402 
L 279.207938 542.209565 
L 279.647044 416.005946 
L 279.866597 514.198908 
L 280.086151 405.670235 
L 280.305704 422.850344 
L 280.525257 472.075181 
L 280.74481 434.324519 
L 280.964363 496.308578 
L 281.183916 508.50007 
L 281.403469 408.896949 
L 281.623023 529.626469 
L 281.842576 432.782656 
L 282.062129 512.79464 
L 282.281682 376.828021 
L 282.501235 454.649102 
L 282.720788 458.991509 
L 282.940342 490.908905 
L 283.159895 476.194215 
L 283.379448 436.658529 
L 283.599001 443.238576 
L 283.818554 321.049007 
L 284.25766 540.190231 
L 284.477214 377.508561 
L 284.696767 487.241609 
L 284.91632 466.427869 
L 285.135873 512.205204 
L 285.355426 462.037183 
L 285.794533 505.35217 
L 286.233639 399.741027 
L 286.453192 359.275043 
L 286.672745 343.964566 
L 286.892298 474.242131 
L 287.111851 485.179115 
L 287.550958 438.644465 
L 287.770511 499.942732 
L 287.990064 457.910865 
L 288.209617 517.953406 
L 288.42917 427.345014 
L 288.868277 549.917726 
L 289.307383 378.981738 
L 289.526936 384.886377 
L 289.746489 490.9198 
L 289.966042 542.828708 
L 290.185596 431.914801 
L 290.405149 386.991165 
L 290.624702 519.285942 
L 291.063808 549.661339 
L 291.283361 419.840329 
L 291.502915 434.545967 
L 291.722468 359.853472 
L 291.942021 566.81282 
L 292.161574 494.205538 
L 292.381127 503.935417 
L 292.60068 507.64732 
L 292.820233 426.760328 
L 293.25934 495.28774 
L 293.478893 428.896166 
L 293.698446 521.480428 
L 293.917999 527.101712 
L 294.357105 482.232831 
L 294.576659 454.4548 
L 295.015765 554.116561 
L 295.235318 498.198263 
L 295.454871 382.655299 
L 295.674424 469.674372 
L 295.893978 306.830026 
L 296.113531 448.191992 
L 296.333084 489.035399 
L 296.552637 434.417107 
L 296.77219 425.411118 
L 296.991743 428.538259 
L 297.211296 404.428708 
L 297.43085 397.216618 
L 297.650403 482.763194 
L 297.869956 470.340867 
L 298.089509 447.419901 
L 298.309062 466.959636 
L 298.528615 500.081849 
L 298.748169 460.405615 
L 298.967722 372.809198 
L 299.626381 554.164517 
L 299.845934 459.496573 
L 300.065487 464.64313 
L 300.285041 529.973418 
L 300.504594 419.066612 
L 300.724147 467.203131 
L 300.9437 463.608843 
L 301.163253 506.53006 
L 301.382806 396.972977 
L 301.60236 230.780254 
L 301.821913 430.424861 
L 302.041466 481.703902 
L 302.480572 484.110764 
L 302.700125 529.692209 
L 302.919678 318.811973 
L 303.139232 533.113133 
L 303.358785 406.288552 
L 303.578338 461.546087 
L 303.797891 479.724776 
L 304.017444 339.475392 
L 304.236997 493.751538 
L 304.456551 441.192689 
L 304.676104 519.908158 
L 305.11521 334.363247 
L 305.334763 531.080346 
L 305.554316 529.349592 
L 305.773869 538.989679 
L 305.993423 501.711042 
L 306.212976 543.192881 
L 306.432529 405.202397 
L 306.652082 450.139701 
L 306.871635 423.817395 
L 307.091188 471.180321 
L 307.310742 474.750657 
L 307.530295 400.929916 
L 307.749848 452.271094 
L 307.969401 373.937562 
L 308.188954 392.962679 
L 308.408507 464.616422 
L 308.62806 430.020235 
L 308.847614 471.002393 
L 309.067167 441.019564 
L 309.28672 512.362259 
L 309.506273 456.835981 
L 309.725826 474.301702 
L 309.945379 424.14923 
L 310.164933 556.484764 
L 310.384486 463.287202 
L 310.604039 512.968645 
L 310.823592 532.783964 
L 311.043145 511.489458 
L 311.262698 391.118139 
L 311.482251 430.018858 
L 311.701805 432.608686 
L 311.921358 546.267338 
L 312.140911 523.817805 
L 312.360464 526.48896 
L 312.580017 493.669765 
L 312.79957 484.073498 
L 313.238677 430.722396 
L 313.45823 546.740346 
L 313.677783 383.040475 
L 313.897336 502.46139 
L 314.116889 321.70058 
L 314.336442 528.213383 
L 314.555996 451.953446 
L 314.775549 451.42737 
L 314.995102 489.691987 
L 315.214655 437.360152 
L 315.434208 514.930692 
L 315.873315 462.005904 
L 316.092868 408.025729 
L 316.312421 527.489903 
L 316.531974 490.348706 
L 316.751527 364.862437 
L 316.97108 417.560498 
L 317.410187 402.678563 
L 317.62974 554.364801 
L 317.849293 406.796613 
L 318.068846 408.886277 
L 318.288399 448.256644 
L 318.507952 552.811568 
L 318.727506 548.015085 
L 318.947059 395.41619 
L 319.166612 521.190848 
L 319.386165 537.106259 
L 319.605718 496.403117 
L 319.825271 522.778041 
L 320.044824 385.948197 
L 320.264378 479.823762 
L 320.483931 525.023502 
L 320.703484 476.271272 
L 320.923037 469.968605 
L 321.14259 440.766411 
L 321.362143 431.1102 
L 321.581696 464.945039 
L 321.80125 553.707508 
L 322.240356 388.517492 
L 322.459909 487.820532 
L 322.679462 426.292979 
L 322.899015 511.067854 
L 323.557675 412.541951 
L 323.777228 496.62818 
L 323.996781 440.718749 
L 324.216334 441.047712 
L 324.435887 438.053086 
L 324.655441 437.070566 
L 324.874994 418.004619 
L 325.094547 490.897146 
L 325.533653 341.568991 
L 325.753206 527.401568 
L 325.97276 532.863023 
L 326.411866 365.884171 
L 326.850972 414.831022 
L 327.070525 486.760653 
L 327.290078 518.597356 
L 327.509632 530.885566 
L 327.729185 529.742911 
L 327.948738 450.463808 
L 328.168291 415.778112 
L 328.387844 453.759047 
L 328.607397 431.341629 
L 328.826951 480.79886 
L 329.046504 443.53623 
L 329.266057 491.955373 
L 329.48561 488.319734 
L 329.705163 328.696766 
L 329.924716 385.091713 
L 330.144269 527.36547 
L 330.363823 489.208333 
L 330.583376 497.53744 
L 330.802929 410.409986 
L 331.022482 447.667713 
L 331.242035 415.477594 
L 331.461588 339.497545 
L 331.681142 459.033825 
L 331.900695 478.020082 
L 332.120248 457.909214 
L 332.339801 550.628663 
L 332.559354 523.948932 
L 332.778907 417.951231 
L 332.99846 442.052262 
L 333.218014 551.670151 
L 333.437567 443.516193 
L 333.65712 395.397218 
L 333.876673 461.576175 
L 334.096226 334.602041 
L 334.535333 454.441618 
L 334.754886 470.940666 
L 334.974439 379.27116 
L 335.193992 468.692442 
L 335.413545 305.172211 
L 335.633098 464.961978 
L 335.852651 469.154332 
L 336.072205 495.521311 
L 336.291758 379.691282 
L 336.511311 366.295465 
L 336.730864 488.664686 
L 336.950417 376.502946 
L 337.16997 430.925454 
L 337.389524 451.478596 
L 337.609077 375.729728 
L 337.82863 471.844789 
L 338.048183 505.189006 
L 338.267736 468.05176 
L 338.487289 458.662167 
L 338.706842 404.497646 
L 338.926396 514.752099 
L 339.145949 434.002483 
L 339.585055 528.247628 
L 339.804608 282.421047 
L 340.024161 324.402346 
L 340.463268 451.962864 
L 340.682821 474.726589 
L 340.902374 475.617907 
L 341.121927 369.677466 
L 341.561033 533.360447 
L 342.00014 472.451659 
L 342.219693 492.52888 
L 342.439246 472.565836 
L 342.658799 516.851051 
L 343.097906 427.240654 
L 343.317459 398.978223 
L 343.537012 415.449686 
L 343.756565 392.035849 
L 343.976118 540.417977 
L 344.195671 350.246931 
L 344.415224 483.216229 
L 344.634778 494.807307 
L 344.854331 326.5766 
L 345.073884 467.29741 
L 345.293437 383.495275 
L 345.51299 543.78182 
L 345.732543 415.911831 
L 345.952096 492.223157 
L 346.17165 415.528196 
L 346.391203 547.346265 
L 346.610756 532.129107 
L 346.830309 347.563049 
L 347.049862 484.657213 
L 347.269415 528.704044 
L 347.488969 458.965724 
L 347.708522 432.562066 
L 347.928075 512.838565 
L 348.147628 458.955598 
L 348.367181 462.744237 
L 348.586734 410.456877 
L 348.806287 491.890523 
L 349.025841 364.316225 
L 349.245394 546.178637 
L 349.464947 404.526163 
L 349.6845 515.92556 
L 349.904053 473.252786 
L 350.123606 535.127055 
L 350.34316 507.40033 
L 350.562713 344.230558 
L 350.782266 495.201261 
L 351.001819 456.728145 
L 351.221372 471.456496 
L 351.440925 446.824224 
L 351.660478 279.443688 
L 351.880032 410.291719 
L 352.099585 440.147438 
L 352.319138 366.303497 
L 352.538691 483.295571 
L 352.758244 521.790593 
L 352.977797 348.818717 
L 353.197351 348.632202 
L 353.416904 524.088062 
L 353.636457 481.191823 
L 353.85601 507.429393 
L 354.075563 505.545011 
L 354.295116 513.923339 
L 354.514669 483.270491 
L 354.734223 325.20135 
L 355.173329 495.075731 
L 355.392882 515.385062 
L 355.612435 452.256049 
L 356.051542 539.960075 
L 356.271095 462.396388 
L 356.490648 472.907857 
L 356.710201 488.791972 
L 356.929754 395.167547 
L 357.149307 490.075202 
L 357.36886 367.678462 
L 357.588414 360.337064 
L 357.807967 448.793702 
L 358.02752 434.430129 
L 358.466626 553.957115 
L 358.686179 447.051295 
L 358.905733 421.964082 
L 359.125286 485.472319 
L 359.344839 415.426388 
L 359.564392 542.689861 
L 359.783945 455.49734 
L 360.003498 521.248073 
L 360.223051 397.362251 
L 360.442605 504.975313 
L 360.662158 428.383367 
L 360.881711 396.294711 
L 361.101264 451.954881 
L 361.320817 450.148215 
L 361.759924 319.81537 
L 361.979477 334.433747 
L 362.418583 504.403739 
L 362.638136 476.123238 
L 362.857689 505.409606 
L 363.077242 466.944475 
L 363.296796 508.847544 
L 363.516349 503.843084 
L 363.735902 540.325783 
L 363.955455 459.720151 
L 364.175008 452.962273 
L 364.394561 489.041336 
L 364.614115 471.837726 
L 364.833668 468.119297 
L 365.053221 538.966835 
L 365.272774 532.597547 
L 365.492327 475.420315 
L 365.71188 535.216196 
L 365.931433 547.917108 
L 366.150987 330.935479 
L 366.37054 363.972178 
L 366.590093 522.579669 
L 367.248752 394.372203 
L 367.468306 509.983281 
L 367.687859 365.382168 
L 368.126965 499.192664 
L 368.346518 494.005671 
L 368.566071 492.304058 
L 368.785624 444.733194 
L 369.005178 370.621384 
L 369.224731 470.588455 
L 369.444284 373.064021 
L 369.663837 532.026114 
L 369.88339 437.553011 
L 370.102943 499.245529 
L 370.322497 478.319748 
L 370.54205 539.013971 
L 370.761603 486.206948 
L 370.981156 396.217101 
L 371.200709 414.75384 
L 371.420262 455.965557 
L 371.639815 376.054281 
L 372.078922 442.972525 
L 372.298475 459.933 
L 372.737581 505.014348 
L 372.957134 364.997109 
L 373.176687 394.975146 
L 373.396241 263.594416 
L 373.615794 419.455037 
L 373.835347 434.148696 
L 374.0549 534.667299 
L 374.494006 443.151138 
L 374.71356 515.612111 
L 374.933113 428.510746 
L 375.152666 505.158807 
L 375.372219 521.030963 
L 375.591772 321.893008 
L 375.811325 518.4105 
L 376.030878 528.984844 
L 376.250432 367.986391 
L 376.469985 486.54567 
L 376.689538 481.707919 
L 376.909091 402.780452 
L 377.128644 436.68401 
L 377.348197 365.45092 
L 377.567751 338.647125 
L 377.787304 511.099978 
L 378.006857 485.593516 
L 378.22641 440.880981 
L 378.445963 523.702182 
L 378.665516 477.59732 
L 378.885069 483.251581 
L 379.104623 461.02326 
L 379.324176 551.580294 
L 379.543729 364.066335 
L 379.763282 574.31604 
L 380.202388 444.640958 
L 380.421942 410.337295 
L 380.641495 356.708504 
L 380.861048 481.378683 
L 381.080601 425.727233 
L 381.300154 439.377935 
L 381.519707 504.595419 
L 382.178367 396.611888 
L 382.39792 408.227411 
L 382.617473 487.196765 
L 382.837026 461.701772 
L 383.056579 511.030801 
L 383.276133 433.256798 
L 383.495686 469.23812 
L 383.715239 401.088695 
L 383.934792 515.358697 
L 384.154345 458.379297 
L 384.373898 452.674398 
L 384.593451 322.86858 
L 384.813005 488.237399 
L 385.032558 533.396231 
L 385.252111 407.274224 
L 385.471664 396.144142 
L 385.691217 544.68391 
L 385.91077 451.570902 
L 386.130324 439.384978 
L 386.349877 541.178782 
L 386.56943 535.875337 
L 386.788983 482.201562 
L 387.008536 463.55881 
L 387.228089 512.877829 
L 387.447642 375.993516 
L 387.667196 317.129371 
L 387.886749 424.234106 
L 388.106302 433.386252 
L 388.325855 435.253626 
L 388.764961 562.422342 
L 388.984515 475.408877 
L 389.204068 529.257689 
L 389.423621 401.538617 
L 389.643174 420.721736 
L 389.862727 478.756943 
L 390.08228 385.71981 
L 390.301833 501.843559 
L 390.521387 482.194982 
L 390.74094 327.468785 
L 390.960493 548.370583 
L 391.180046 500.294778 
L 391.619152 464.850138 
L 391.838706 188.582269 
L 392.058259 447.274761 
L 392.277812 511.045335 
L 392.497365 382.423219 
L 392.716918 504.801706 
L 392.936471 404.884041 
L 393.595131 520.698681 
L 393.814684 512.367477 
L 394.034237 405.483748 
L 394.25379 538.6481 
L 394.473343 495.755665 
L 394.692897 497.390267 
L 394.91245 442.437239 
L 395.132003 507.010182 
L 395.351556 533.355753 
L 395.571109 514.577379 
L 395.790662 567.142733 
L 396.229769 436.257575 
L 396.449322 469.544948 
L 396.668875 358.346643 
L 397.107981 458.41483 
L 397.327534 428.557804 
L 397.547087 432.0774 
L 397.766641 470.314652 
L 397.986194 362.143523 
L 398.205747 495.4845 
L 398.4253 515.871594 
L 398.864406 351.018598 
L 399.08396 358.072478 
L 399.303513 527.461322 
L 399.523066 440.142072 
L 399.742619 422.554602 
L 399.962172 446.770572 
L 400.181725 494.468007 
L 400.401278 473.510664 
L 400.620832 477.927635 
L 400.840385 412.894241 
L 401.059938 513.217935 
L 401.279491 466.314984 
L 401.499044 487.359329 
L 401.718597 462.501424 
L 401.938151 504.62731 
L 402.157704 473.857604 
L 402.377257 375.52889 
L 402.59681 365.24761 
L 402.816363 493.834061 
L 403.035916 430.806514 
L 403.255469 468.339551 
L 403.475023 404.545691 
L 403.694576 573.434895 
L 403.914129 475.209593 
L 404.133682 250.190558 
L 404.353235 349.173174 
L 404.572788 363.585777 
L 404.792342 392.236589 
L 405.011895 537.184775 
L 405.231448 523.738258 
L 405.670554 363.331385 
L 406.10966 443.822639 
L 406.329214 533.005337 
L 406.548767 394.346993 
L 406.76832 460.154873 
L 406.987873 427.036754 
L 407.207426 500.54698 
L 407.426979 434.933642 
L 407.646533 459.504553 
L 407.866086 505.629284 
L 408.085639 434.537161 
L 408.305192 425.398541 
L 408.524745 515.618863 
L 408.744298 449.594218 
L 408.963851 533.03907 
L 409.183405 544.10702 
L 409.402958 436.669043 
L 409.622511 503.642399 
L 409.842064 505.413948 
L 410.061617 462.577765 
L 410.28117 522.554708 
L 410.93983 354.283564 
L 411.159383 474.770406 
L 411.378936 369.103257 
L 411.598489 542.039624 
L 411.818042 472.639272 
L 412.037596 448.392614 
L 412.257149 455.537805 
L 412.476702 551.842472 
L 412.696255 461.32722 
L 412.915808 471.502677 
L 413.135361 529.572252 
L 413.354915 485.492101 
L 413.574468 395.562642 
L 413.794021 498.027243 
L 414.013574 464.887059 
L 414.233127 534.502912 
L 414.45268 499.502281 
L 414.891787 306.90877 
L 415.11134 428.100745 
L 415.330893 414.010715 
L 415.550446 474.711946 
L 415.769999 366.729391 
L 415.989552 521.706605 
L 416.209106 473.702874 
L 416.428659 519.664791 
L 416.648212 532.481697 
L 417.087318 453.354528 
L 417.306871 481.027736 
L 417.526424 493.853407 
L 417.745978 469.38998 
L 417.965531 512.44578 
L 418.62419 300.272273 
L 418.843743 495.887611 
L 419.063297 445.864829 
L 419.28285 547.378349 
L 419.502403 457.53836 
L 419.721956 462.144295 
L 419.941509 243.564764 
L 420.161062 486.006422 
L 420.380615 541.493878 
L 420.600169 397.227311 
L 420.819722 406.115289 
L 421.039275 532.299939 
L 421.258828 548.170619 
L 421.478381 493.209516 
L 421.697934 494.601049 
L 421.917488 507.117994 
L 422.137041 495.033507 
L 422.356594 428.000862 
L 422.576147 439.940577 
L 422.7957 415.152482 
L 423.015253 581.38839 
L 423.234806 456.16696 
L 423.45436 520.529048 
L 423.893466 412.660266 
L 424.113019 311.188162 
L 424.552125 562.897088 
L 424.771678 441.217744 
L 424.991232 431.035186 
L 425.210785 484.514628 
L 425.430338 388.811459 
L 425.649891 450.630916 
L 425.869444 323.97252 
L 426.088997 487.604847 
L 426.308551 543.291021 
L 426.528104 500.614469 
L 426.747657 371.026802 
L 426.96721 440.896133 
L 427.186763 403.028909 
L 427.406316 469.633243 
L 427.625869 371.91912 
L 427.845423 508.741714 
L 428.064976 297.986755 
L 428.284529 486.439965 
L 428.504082 470.319719 
L 428.723635 502.575621 
L 428.943188 555.815337 
L 429.162742 552.615114 
L 429.382295 292.290695 
L 429.601848 476.772397 
L 429.821401 467.577081 
L 430.040954 541.074712 
L 430.260507 576.317966 
L 430.48006 437.369127 
L 430.699614 505.680608 
L 430.919167 442.528187 
L 431.13872 520.655897 
L 431.577826 289.16586 
L 431.797379 400.539073 
L 432.016933 413.606825 
L 432.236486 503.737763 
L 432.456039 463.235877 
L 432.675592 398.196894 
L 432.895145 555.227244 
L 433.114698 547.54516 
L 433.334251 483.545784 
L 433.553805 544.508055 
L 433.773358 328.913716 
L 433.992911 498.884667 
L 434.212464 498.877797 
L 434.432017 429.08837 
L 434.65157 411.539519 
L 434.871124 458.389197 
L 435.090677 423.684029 
L 435.31023 421.920093 
L 435.749336 346.957045 
L 435.968889 526.775885 
L 436.188442 428.558323 
L 436.407996 403.140214 
L 436.627549 448.652258 
L 436.847102 554.998265 
L 437.066655 340.827354 
L 437.286208 447.237411 
L 437.505761 468.042621 
L 437.725315 452.198067 
L 437.944868 548.697122 
L 438.164421 374.110655 
L 438.383974 308.184719 
L 438.603527 355.280425 
L 438.82308 327.102552 
L 439.042633 493.753306 
L 439.262187 434.783206 
L 439.48174 536.248546 
L 440.140399 349.912953 
L 440.359952 390.712416 
L 440.579506 501.354469 
L 440.799059 521.761113 
L 441.018612 485.143917 
L 441.238165 390.081741 
L 441.457718 384.176343 
L 441.677271 544.288277 
L 441.896824 299.531295 
L 442.116378 362.094518 
L 442.335931 268.922025 
L 442.775037 509.006064 
L 442.99459 363.842192 
L 443.214143 509.490613 
L 443.433697 512.170545 
L 443.872803 485.671542 
L 444.092356 489.402384 
L 444.311909 472.338304 
L 444.751015 410.259411 
L 444.970569 491.2722 
L 445.629228 336.131838 
L 445.848781 458.600265 
L 446.068334 371.016011 
L 446.287888 497.014158 
L 446.507441 368.765503 
L 446.726994 479.302037 
L 446.946547 367.65213 
L 447.1661 492.417752 
L 447.385653 418.224394 
L 447.605206 526.99068 
L 447.82476 535.790302 
L 448.483419 373.854073 
L 448.702972 296.68607 
L 448.922525 438.544442 
L 449.142079 495.783306 
L 449.361632 485.510055 
L 449.581185 423.08776 
L 449.800738 457.103757 
L 450.020291 436.214405 
L 450.239844 340.4475 
L 450.459397 478.410752 
L 450.678951 295.564805 
L 450.898504 462.797031 
L 451.118057 466.053188 
L 451.33761 407.489799 
L 451.557163 441.869607 
L 451.996269 453.113283 
L 452.215823 374.01469 
L 452.654929 515.856444 
L 452.874482 554.949554 
L 453.094035 404.444671 
L 453.313588 498.262051 
L 453.533142 499.044584 
L 453.752695 189.473953 
L 453.972248 511.142675 
L 454.191801 492.813158 
L 454.411354 528.584673 
L 454.630907 414.689699 
L 454.85046 372.180828 
L 455.070014 513.965573 
L 455.289567 520.279182 
L 455.50912 344.25841 
L 455.728673 479.432336 
L 456.167779 308.214202 
L 456.387333 517.016686 
L 456.606886 530.935022 
L 456.826439 434.414185 
L 457.265545 486.008863 
L 457.485098 338.175461 
L 457.704651 418.934955 
L 457.924205 400.322616 
L 458.143758 462.077924 
L 458.363311 366.035996 
L 458.582864 539.670201 
L 458.802417 484.429721 
L 459.02197 511.112654 
L 459.241524 487.901051 
L 459.461077 372.504134 
L 459.68063 451.194447 
L 459.900183 414.230414 
L 460.119736 317.896919 
L 460.339289 430.231528 
L 460.778396 546.816915 
L 460.997949 520.892042 
L 461.217502 520.225168 
L 461.437055 561.988743 
L 461.656608 431.412854 
L 461.876161 456.892822 
L 462.095715 452.200859 
L 462.315268 544.190404 
L 462.534821 338.687195 
L 462.754374 437.29427 
L 462.973927 414.935193 
L 463.19348 482.056697 
L 463.413033 427.062251 
L 463.632587 502.441358 
L 463.85214 478.05032 
L 464.071693 537.086133 
L 464.291246 285.075642 
L 464.730352 502.970406 
L 464.949906 371.161823 
L 465.169459 404.451689 
L 465.389012 479.028104 
L 465.608565 511.748251 
L 466.047671 435.284112 
L 466.267224 468.53394 
L 466.486778 430.802494 
L 466.706331 450.869181 
L 466.925884 440.778085 
L 467.145437 527.224052 
L 467.36499 511.162175 
L 467.584543 441.155565 
L 467.804097 206.287248 
L 468.02365 516.411378 
L 468.243203 436.223418 
L 468.462756 440.157599 
L 468.682309 447.32276 
L 468.901862 541.675759 
L 469.121415 511.657845 
L 469.340969 430.231835 
L 469.560522 488.058319 
L 469.780075 352.162183 
L 469.999628 461.790506 
L 470.219181 470.607134 
L 470.438734 415.004393 
L 470.658288 470.291668 
L 470.877841 417.10714 
L 471.097394 515.963007 
L 471.316947 427.907267 
L 471.5365 455.705832 
L 471.756053 361.820985 
L 471.975606 516.214555 
L 472.19516 368.771298 
L 472.414713 490.933546 
L 472.634266 492.982065 
L 472.853819 406.499924 
L 473.073372 497.350383 
L 473.292925 473.05962 
L 473.512479 387.391754 
L 473.732032 361.710211 
L 473.951585 442.42105 
L 474.390691 459.422805 
L 474.610244 417.008564 
L 474.829797 440.003627 
L 475.049351 519.266687 
L 475.268904 484.652891 
L 475.488457 387.350701 
L 475.70801 392.061415 
L 475.927563 502.112065 
L 476.147116 370.382357 
L 476.366669 422.8512 
L 476.586223 427.066408 
L 476.805776 416.881296 
L 477.025329 381.284158 
L 477.683988 533.602669 
L 477.903542 569.501198 
L 478.123095 433.727421 
L 478.342648 451.730692 
L 478.562201 568.839731 
L 478.781754 462.019511 
L 479.22086 495.318785 
L 479.440414 343.841868 
L 479.659967 389.783761 
L 479.87952 548.119396 
L 480.099073 438.469706 
L 480.538179 474.975719 
L 480.757733 405.853061 
L 480.977286 480.826051 
L 481.196839 390.11172 
L 481.635945 518.80474 
L 481.855498 463.220166 
L 482.075051 332.427584 
L 482.514158 491.956419 
L 482.733711 469.302428 
L 482.953264 464.713219 
L 483.172817 338.193908 
L 483.39237 429.574261 
L 483.611924 356.684593 
L 483.831477 440.044526 
L 484.05103 391.322422 
L 484.270583 425.980631 
L 484.709689 377.32996 
L 484.929242 457.941356 
L 485.148796 399.177763 
L 485.368349 476.385142 
L 485.587902 248.796429 
L 485.807455 449.828484 
L 486.027008 430.819184 
L 486.246561 352.388093 
L 486.466115 441.687628 
L 486.685668 477.677242 
L 486.905221 131.956182 
L 487.124774 419.049371 
L 487.344327 496.652003 
L 487.56388 422.966104 
L 487.783433 483.576365 
L 488.002987 445.267542 
L 488.22254 461.836499 
L 488.442093 294.07662 
L 488.661646 534.257089 
L 488.881199 494.072101 
L 489.100752 477.894039 
L 489.320306 423.317564 
L 489.759412 503.526923 
L 489.978965 507.415886 
L 490.418071 437.864602 
L 490.637624 280.080885 
L 490.857178 552.973589 
L 491.076731 447.189929 
L 491.515837 510.579579 
L 491.73539 464.320373 
L 491.954943 543.147396 
L 492.174497 465.689107 
L 492.39405 457.379902 
L 492.613603 370.666729 
L 492.833156 475.170294 
L 493.052709 500.832856 
L 493.272262 344.896624 
L 493.491815 427.581066 
L 493.711369 329.861437 
L 493.930922 458.155366 
L 494.150475 450.018796 
L 494.370028 351.346378 
L 494.809134 530.469907 
L 495.028688 470.636349 
L 495.248241 450.725603 
L 495.467794 402.428266 
L 495.687347 456.107432 
L 495.9069 320.615152 
L 496.126453 524.597985 
L 496.346006 545.364968 
L 496.56556 429.841771 
L 496.785113 416.230371 
L 497.004666 419.126812 
L 497.224219 538.82134 
L 497.443772 328.896097 
L 497.663325 481.638599 
L 497.882879 523.160609 
L 498.102432 328.327183 
L 498.321985 486.849586 
L 498.541538 422.346721 
L 498.761091 504.431678 
L 498.980644 398.903174 
L 499.200197 417.814307 
L 499.639304 544.222999 
L 499.858857 329.398869 
L 500.297963 479.466694 
L 500.517516 409.58052 
L 500.73707 389.286492 
L 500.956623 457.476432 
L 501.176176 485.633375 
L 501.395729 428.721426 
L 501.834835 552.069803 
L 502.054388 462.737675 
L 502.273942 457.328201 
L 502.493495 336.952054 
L 502.713048 436.666311 
L 503.152154 477.939904 
L 503.371707 455.940584 
L 503.59126 516.352629 
L 504.030367 487.070122 
L 504.24992 499.709132 
L 504.469473 519.344094 
L 504.689026 343.608254 
L 505.128133 511.308154 
L 505.347686 445.705568 
L 505.567239 482.583519 
L 505.786792 482.23629 
L 506.006345 442.251292 
L 506.225898 543.01067 
L 506.445451 514.581352 
L 506.665005 464.278736 
L 506.884558 499.624335 
L 507.104111 446.431705 
L 507.323664 430.789343 
L 507.543217 442.457925 
L 507.982324 401.188026 
L 508.201877 509.020801 
L 508.42143 344.856984 
L 508.640983 401.193762 
L 508.860536 538.455644 
L 509.080089 535.154531 
L 509.299642 513.514154 
L 509.519196 407.174881 
L 509.738749 456.274411 
L 509.958302 429.594025 
L 510.177855 441.590728 
L 510.397408 416.368842 
L 510.616961 448.445355 
L 510.836515 447.27045 
L 511.056068 551.922685 
L 511.275621 527.456436 
L 511.495174 432.114284 
L 511.714727 534.493949 
L 511.93428 478.293247 
L 512.153833 554.646696 
L 512.59294 369.216864 
L 512.812493 465.538788 
L 513.032046 461.211771 
L 513.251599 376.961382 
L 513.471152 419.54528 
L 513.910259 533.771482 
L 514.349365 556.880768 
L 514.568918 456.042657 
L 514.788471 516.531006 
L 515.008024 486.754783 
L 515.227578 521.355945 
L 515.447131 488.539804 
L 515.886237 490.598684 
L 516.10579 369.496112 
L 516.325343 552.038137 
L 516.544897 401.724658 
L 516.76445 390.761108 
L 516.984003 405.791461 
L 517.203556 485.591606 
L 517.423109 448.533129 
L 517.642662 465.696093 
L 517.862215 422.744394 
L 518.081769 410.212639 
L 518.301322 301.470846 
L 518.520875 362.614294 
L 518.740428 474.586396 
L 518.959981 497.386095 
L 519.179534 552.343115 
L 519.399088 457.065749 
L 519.618641 483.001767 
L 519.838194 443.673995 
L 520.057747 523.844567 
L 520.2773 531.285836 
L 520.496853 479.298148 
L 520.716406 483.322855 
L 520.93596 480.119582 
L 521.155513 522.654901 
L 521.375066 448.388809 
L 521.594619 544.828658 
L 521.814172 541.783614 
L 522.033725 556.336299 
L 522.253279 465.198261 
L 522.472832 522.694723 
L 522.692385 438.851193 
L 522.911938 511.361649 
L 523.131491 186.496311 
L 523.351044 446.752877 
L 523.570597 444.459003 
L 523.790151 439.206948 
L 524.009704 453.880003 
L 524.229257 532.787379 
L 524.44881 504.808453 
L 524.668363 397.251165 
L 524.887916 403.105587 
L 525.10747 396.6497 
L 525.327023 324.184745 
L 525.546576 450.743637 
L 525.766129 397.303852 
L 525.985682 506.17327 
L 526.205235 452.487694 
L 526.863895 493.162354 
L 527.083448 483.964532 
L 527.303001 499.60871 
L 527.522554 550.346656 
L 527.742107 552.207965 
L 527.96166 315.621493 
L 528.839873 518.346964 
L 529.059426 490.75583 
L 529.278979 492.125113 
L 529.718086 443.072652 
L 530.157192 517.207366 
L 530.376745 531.072034 
L 530.596298 472.706352 
L 530.815851 502.752502 
L 531.035405 424.582059 
L 531.254958 452.897791 
L 531.474511 356.201289 
L 531.694064 414.877023 
L 531.913617 271.603322 
L 532.13317 503.298271 
L 532.352724 465.465731 
L 532.572277 460.489969 
L 532.79183 272.506155 
L 533.011383 412.768841 
L 533.230936 419.682907 
L 533.450489 456.450267 
L 533.670042 343.00954 
L 533.889596 475.196701 
L 534.109149 368.733495 
L 534.328702 399.672 
L 534.548255 491.747077 
L 534.767808 420.418557 
L 534.987361 464.535187 
L 535.206915 406.396533 
L 535.426468 382.571862 
L 535.646021 457.207318 
L 535.865574 397.293881 
L 536.085127 542.753585 
L 536.524233 331.234598 
L 536.743787 565.276261 
L 536.96334 475.105874 
L 537.182893 515.080688 
L 537.402446 432.544748 
L 537.621999 471.704009 
L 537.841552 439.211775 
L 538.061106 448.433423 
L 538.280659 468.941824 
L 538.500212 509.402965 
L 538.719765 453.066989 
L 538.939318 425.748715 
L 539.158871 419.410736 
L 539.378424 416.757633 
L 539.597978 404.976513 
L 539.817531 408.981178 
L 540.037084 453.397441 
L 540.695743 494.123331 
L 540.915297 545.682637 
L 541.13485 504.738297 
L 541.354403 491.702184 
L 541.573956 494.70921 
L 541.793509 531.758161 
L 542.013062 367.408333 
L 542.232615 490.910003 
L 542.452169 419.82955 
L 542.671722 506.879047 
L 542.891275 314.876382 
L 543.110828 514.155124 
L 543.330381 461.938485 
L 543.769488 289.703598 
L 544.208594 489.276399 
L 544.428147 518.907253 
L 544.6477 437.044852 
L 544.867253 490.669351 
L 545.086806 299.547351 
L 545.525913 508.428186 
L 545.745466 475.179773 
L 545.745466 475.179773 
" style="fill:none;stroke:#96c69a;stroke-linecap:round;stroke-width:3;"/>
   </g>
   <g id="line2d_2"/>
   <g id="patch_3">
    <path d="M 84.914375 603.86 
L 84.914375 109.484571 
" style="fill:none;stroke:#262626;stroke-linecap:square;stroke-linejoin:miter;stroke-width:2.5;"/>
   </g>
   <g id="patch_4">
    <path d="M 84.914375 603.86 
L 567.689804 603.86 
" style="fill:none;stroke:#262626;stroke-linecap:square;stroke-linejoin:miter;stroke-width:2.5;"/>
   </g>
   <g id="legend_1">
    <g id="patch_5">
     <path d="M 514.774179 598.86 
L 560.689804 598.86 
Q 562.689804 598.86 562.689804 596.86 
L 562.689804 554.954375 
Q 562.689804 552.954375 560.689804 552.954375 
L 514.774179 552.954375 
Q 512.774179 552.954375 512.774179 554.954375 
L 512.774179 596.86 
Q 512.774179 598.86 514.774179 598.86 
z
" style="fill:#ffffff;opacity:0.8;stroke:#cccccc;stroke-linejoin:miter;stroke-width:2;"/>
    </g>
    <g id="text_18">
     <!-- $n_\tau$ -->
     <g style="fill:#262626;" transform="translate(524.651991 575.190625)scale(0.24 -0.24)">
      <defs>
       <path d="M 3566 2113 
L 3156 0 
L 2578 0 
L 2988 2091 
Q 3016 2238 3031 2350 
Q 3047 2463 3047 2528 
Q 3047 2791 2881 2937 
Q 2716 3084 2419 3084 
Q 1956 3084 1622 2776 
Q 1288 2469 1184 1941 
L 800 0 
L 225 0 
L 903 3500 
L 1478 3500 
L 1363 2950 
Q 1603 3253 1940 3418 
Q 2278 3584 2650 3584 
Q 3113 3584 3367 3334 
Q 3622 3084 3622 2631 
Q 3622 2519 3608 2391 
Q 3594 2263 3566 2113 
z
" id="DejaVuSans-Oblique-6e" transform="scale(0.015625)"/>
       <path d="M 2103 638 
Q 2188 488 2525 488 
L 2800 488 
L 2706 0 
L 2363 0 
Q 1800 0 1600 300 
Q 1403 606 1534 1269 
L 1856 2925 
L 541 2925 
L 653 3500 
L 3881 3500 
L 3769 2925 
L 2444 2925 
L 2113 1234 
Q 2025 781 2103 638 
z
" id="DejaVuSans-Oblique-3c4" transform="scale(0.015625)"/>
      </defs>
      <use xlink:href="#DejaVuSans-Oblique-6e"/>
      <use transform="translate(63.378906 -16.40625)scale(0.7)" xlink:href="#DejaVuSans-Oblique-3c4"/>
     </g>
    </g>
    <g id="line2d_3">
     <path d="M 516.774179 589.280313 
L 536.774179 589.280313 
" style="fill:none;stroke:#96c69a;stroke-linecap:round;stroke-width:3;"/>
    </g>
    <g id="line2d_4"/>
    <g id="text_19">
     <!-- 20 -->
     <g style="fill:#262626;" transform="translate(544.774179 592.780313)scale(0.1 -0.1)">
      <defs>
       <path d="M 1844 884 
L 3897 884 
L 3897 0 
L 506 0 
L 506 884 
L 2209 2388 
Q 2438 2594 2547 2791 
Q 2656 2988 2656 3200 
Q 2656 3528 2436 3728 
Q 2216 3928 1850 3928 
Q 1569 3928 1234 3808 
Q 900 3688 519 3450 
L 519 4475 
Q 925 4609 1322 4679 
Q 1719 4750 2100 4750 
Q 2938 4750 3402 4381 
Q 3866 4013 3866 3353 
Q 3866 2972 3669 2642 
Q 3472 2313 2841 1759 
L 1844 884 
z
" id="DejaVuSans-Bold-32" transform="scale(0.015625)"/>
       <path d="M 2944 2338 
Q 2944 3213 2780 3570 
Q 2616 3928 2228 3928 
Q 1841 3928 1675 3570 
Q 1509 3213 1509 2338 
Q 1509 1453 1675 1090 
Q 1841 728 2228 728 
Q 2613 728 2778 1090 
Q 2944 1453 2944 2338 
z
M 4147 2328 
Q 4147 1169 3647 539 
Q 3147 -91 2228 -91 
Q 1306 -91 806 539 
Q 306 1169 306 2328 
Q 306 3491 806 4120 
Q 1306 4750 2228 4750 
Q 3147 4750 3647 4120 
Q 4147 3491 4147 2328 
z
" id="DejaVuSans-Bold-30" transform="scale(0.015625)"/>
      </defs>
      <use xlink:href="#DejaVuSans-Bold-32"/>
      <use x="69.580078" xlink:href="#DejaVuSans-Bold-30"/>
     </g>
    </g>
   </g>
  </g>
  <g id="axes_2">
   <g id="patch_6">
    <path d="M 84.914375 92.437143 
L 567.689804 92.437143 
L 567.689804 7.2 
L 84.914375 7.2 
z
" style="fill:none;"/>
   </g>
   <g id="matplotlib.axis_3">
    <g id="xtick_7"/>
    <g id="xtick_8"/>
    <g id="xtick_9"/>
    <g id="xtick_10"/>
    <g id="xtick_11"/>
    <g id="xtick_12"/>
   </g>
   <g id="matplotlib.axis_4">
    <g id="ytick_10">
     <g id="text_20">
      <!-- 0 -->
      <g style="fill:#262626;" transform="translate(55.416875 100.795424)scale(0.22 -0.22)">
       <use xlink:href="#DejaVuSans-30"/>
      </g>
     </g>
    </g>
    <g id="ytick_11">
     <g id="text_21">
      <!-- 100 -->
      <g style="fill:#262626;" transform="translate(27.421875 48.082287)scale(0.22 -0.22)">
       <use xlink:href="#DejaVuSans-31"/>
       <use x="63.623047" xlink:href="#DejaVuSans-30"/>
       <use x="127.246094" xlink:href="#DejaVuSans-30"/>
      </g>
     </g>
    </g>
   </g>
   <g id="patch_7">
    <path clip-path="url(#pb8e6eae1e8)" d="M 106.858713 92.437143 
L 140.619232 92.437143 
L 140.619232 11.258912 
L 106.858713 11.258912 
z
" style="fill:#96c69a;fill-opacity:0.5;stroke:#ffffff;stroke-linejoin:miter;stroke-width:2;"/>
   </g>
   <g id="patch_8">
    <path clip-path="url(#pb8e6eae1e8)" d="M 140.619232 92.437143 
L 174.379752 92.437143 
L 174.379752 11.258912 
L 140.619232 11.258912 
z
" style="fill:#96c69a;fill-opacity:0.5;stroke:#ffffff;stroke-linejoin:miter;stroke-width:2;"/>
   </g>
   <g id="patch_9">
    <path clip-path="url(#pb8e6eae1e8)" d="M 174.379752 92.437143 
L 208.140271 92.437143 
L 208.140271 11.258912 
L 174.379752 11.258912 
z
" style="fill:#96c69a;fill-opacity:0.5;stroke:#ffffff;stroke-linejoin:miter;stroke-width:2;"/>
   </g>
   <g id="patch_10">
    <path clip-path="url(#pb8e6eae1e8)" d="M 208.140271 92.437143 
L 241.900791 92.437143 
L 241.900791 11.258912 
L 208.140271 11.258912 
z
" style="fill:#96c69a;fill-opacity:0.5;stroke:#ffffff;stroke-linejoin:miter;stroke-width:2;"/>
   </g>
   <g id="patch_11">
    <path clip-path="url(#pb8e6eae1e8)" d="M 241.900791 92.437143 
L 275.66131 92.437143 
L 275.66131 11.786043 
L 241.900791 11.786043 
z
" style="fill:#96c69a;fill-opacity:0.5;stroke:#ffffff;stroke-linejoin:miter;stroke-width:2;"/>
   </g>
   <g id="patch_12">
    <path clip-path="url(#pb8e6eae1e8)" d="M 275.66131 92.437143 
L 309.42183 92.437143 
L 309.42183 11.258912 
L 275.66131 11.258912 
z
" style="fill:#96c69a;fill-opacity:0.5;stroke:#ffffff;stroke-linejoin:miter;stroke-width:2;"/>
   </g>
   <g id="patch_13">
    <path clip-path="url(#pb8e6eae1e8)" d="M 309.42183 92.437143 
L 343.182349 92.437143 
L 343.182349 11.258912 
L 309.42183 11.258912 
z
" style="fill:#96c69a;fill-opacity:0.5;stroke:#ffffff;stroke-linejoin:miter;stroke-width:2;"/>
   </g>
   <g id="patch_14">
    <path clip-path="url(#pb8e6eae1e8)" d="M 343.182349 92.437143 
L 376.942869 92.437143 
L 376.942869 11.258912 
L 343.182349 11.258912 
z
" style="fill:#96c69a;fill-opacity:0.5;stroke:#ffffff;stroke-linejoin:miter;stroke-width:2;"/>
   </g>
   <g id="patch_15">
    <path clip-path="url(#pb8e6eae1e8)" d="M 376.942869 92.437143 
L 410.703388 92.437143 
L 410.703388 11.786043 
L 376.942869 11.786043 
z
" style="fill:#96c69a;fill-opacity:0.5;stroke:#ffffff;stroke-linejoin:miter;stroke-width:2;"/>
   </g>
   <g id="patch_16">
    <path clip-path="url(#pb8e6eae1e8)" d="M 410.703388 92.437143 
L 444.463907 92.437143 
L 444.463907 11.258912 
L 410.703388 11.258912 
z
" style="fill:#96c69a;fill-opacity:0.5;stroke:#ffffff;stroke-linejoin:miter;stroke-width:2;"/>
   </g>
   <g id="patch_17">
    <path clip-path="url(#pb8e6eae1e8)" d="M 444.463907 92.437143 
L 478.224427 92.437143 
L 478.224427 11.258912 
L 444.463907 11.258912 
z
" style="fill:#96c69a;fill-opacity:0.5;stroke:#ffffff;stroke-linejoin:miter;stroke-width:2;"/>
   </g>
   <g id="patch_18">
    <path clip-path="url(#pb8e6eae1e8)" d="M 478.224427 92.437143 
L 511.984946 92.437143 
L 511.984946 11.258912 
L 478.224427 11.258912 
z
" style="fill:#96c69a;fill-opacity:0.5;stroke:#ffffff;stroke-linejoin:miter;stroke-width:2;"/>
   </g>
   <g id="patch_19">
    <path clip-path="url(#pb8e6eae1e8)" d="M 511.984946 92.437143 
L 545.745466 92.437143 
L 545.745466 11.258912 
L 511.984946 11.258912 
z
" style="fill:#96c69a;fill-opacity:0.5;stroke:#ffffff;stroke-linejoin:miter;stroke-width:2;"/>
   </g>
   <g id="patch_20">
    <path d="M 84.914375 92.437143 
L 84.914375 7.2 
" style="fill:none;stroke:#262626;stroke-linecap:square;stroke-linejoin:miter;stroke-width:2.5;"/>
   </g>
   <g id="patch_21">
    <path d="M 84.914375 92.437143 
L 567.689804 92.437143 
" style="fill:none;stroke:#262626;stroke-linecap:square;stroke-linejoin:miter;stroke-width:2.5;"/>
   </g>
  </g>
  <g id="axes_3">
   <g id="patch_22">
    <path d="M 584.337232 603.86 
L 667.574375 603.86 
L 667.574375 109.484571 
L 584.337232 109.484571 
z
" style="fill:none;"/>
   </g>
   <g id="matplotlib.axis_5">
    <g id="xtick_13">
     <g id="text_22">
      <!-- 0 -->
      <g style="fill:#262626;" transform="translate(577.338482 636.076563)scale(0.22 -0.22)">
       <use xlink:href="#DejaVuSans-30"/>
      </g>
     </g>
    </g>
    <g id="xtick_14">
     <g id="text_23">
      <!-- 100 -->
      <g style="fill:#262626;" transform="translate(608.382726 636.076563)scale(0.22 -0.22)">
       <use xlink:href="#DejaVuSans-31"/>
       <use x="63.623047" xlink:href="#DejaVuSans-30"/>
       <use x="127.246094" xlink:href="#DejaVuSans-30"/>
      </g>
     </g>
    </g>
   </g>
   <g id="matplotlib.axis_6">
    <g id="ytick_12"/>
    <g id="ytick_13"/>
    <g id="ytick_14"/>
    <g id="ytick_15"/>
    <g id="ytick_16"/>
    <g id="ytick_17"/>
    <g id="ytick_18"/>
    <g id="ytick_19"/>
    <g id="ytick_20"/>
   </g>
   <g id="patch_23">
    <path clip-path="url(#p81ece2e539)" d="M 584.337232 581.38839 
L 589.742241 581.38839 
L 589.742241 568.169795 
L 584.337232 568.169795 
z
" style="fill:#96c69a;fill-opacity:0.5;stroke:#ffffff;stroke-linejoin:miter;stroke-width:1.321859;"/>
   </g>
   <g id="patch_24">
    <path clip-path="url(#p81ece2e539)" d="M 584.337232 568.169795 
L 594.246416 568.169795 
L 594.246416 554.951201 
L 584.337232 554.951201 
z
" style="fill:#96c69a;fill-opacity:0.5;stroke:#ffffff;stroke-linejoin:miter;stroke-width:1.321859;"/>
   </g>
   <g id="patch_25">
    <path clip-path="url(#p81ece2e539)" d="M 584.337232 554.951201 
L 621.271462 554.951201 
L 621.271462 541.732607 
L 584.337232 541.732607 
z
" style="fill:#96c69a;fill-opacity:0.5;stroke:#ffffff;stroke-linejoin:miter;stroke-width:1.321859;"/>
   </g>
   <g id="patch_26">
    <path clip-path="url(#p81ece2e539)" d="M 584.337232 541.732607 
L 632.531898 541.732607 
L 632.531898 528.514012 
L 584.337232 528.514012 
z
" style="fill:#96c69a;fill-opacity:0.5;stroke:#ffffff;stroke-linejoin:miter;stroke-width:1.321859;"/>
   </g>
   <g id="patch_27">
    <path clip-path="url(#p81ece2e539)" d="M 584.337232 528.514012 
L 636.585655 528.514012 
L 636.585655 515.295418 
L 584.337232 515.295418 
z
" style="fill:#96c69a;fill-opacity:0.5;stroke:#ffffff;stroke-linejoin:miter;stroke-width:1.321859;"/>
   </g>
   <g id="patch_28">
    <path clip-path="url(#p81ece2e539)" d="M 584.337232 515.295418 
L 647.395674 515.295418 
L 647.395674 502.076824 
L 584.337232 502.076824 
z
" style="fill:#96c69a;fill-opacity:0.5;stroke:#ffffff;stroke-linejoin:miter;stroke-width:1.321859;"/>
   </g>
   <g id="patch_29">
    <path clip-path="url(#p81ece2e539)" d="M 584.337232 502.076824 
L 655.05277 502.076824 
L 655.05277 488.858229 
L 584.337232 488.858229 
z
" style="fill:#96c69a;fill-opacity:0.5;stroke:#ffffff;stroke-linejoin:miter;stroke-width:1.321859;"/>
   </g>
   <g id="patch_30">
    <path clip-path="url(#p81ece2e539)" d="M 584.337232 488.858229 
L 663.610702 488.858229 
L 663.610702 475.639635 
L 584.337232 475.639635 
z
" style="fill:#96c69a;fill-opacity:0.5;stroke:#ffffff;stroke-linejoin:miter;stroke-width:1.321859;"/>
   </g>
   <g id="patch_31">
    <path clip-path="url(#p81ece2e539)" d="M 584.337232 475.639635 
L 659.106527 475.639635 
L 659.106527 462.42104 
L 584.337232 462.42104 
z
" style="fill:#96c69a;fill-opacity:0.5;stroke:#ffffff;stroke-linejoin:miter;stroke-width:1.321859;"/>
   </g>
   <g id="patch_32">
    <path clip-path="url(#p81ece2e539)" d="M 584.337232 462.42104 
L 660.457779 462.42104 
L 660.457779 449.202446 
L 584.337232 449.202446 
z
" style="fill:#96c69a;fill-opacity:0.5;stroke:#ffffff;stroke-linejoin:miter;stroke-width:1.321859;"/>
   </g>
   <g id="patch_33">
    <path clip-path="url(#p81ece2e539)" d="M 584.337232 449.202446 
L 651.899848 449.202446 
L 651.899848 435.983852 
L 584.337232 435.983852 
z
" style="fill:#96c69a;fill-opacity:0.5;stroke:#ffffff;stroke-linejoin:miter;stroke-width:1.321859;"/>
   </g>
   <g id="patch_34">
    <path clip-path="url(#p81ece2e539)" d="M 584.337232 435.983852 
L 641.990664 435.983852 
L 641.990664 422.765257 
L 584.337232 422.765257 
z
" style="fill:#96c69a;fill-opacity:0.5;stroke:#ffffff;stroke-linejoin:miter;stroke-width:1.321859;"/>
   </g>
   <g id="patch_35">
    <path clip-path="url(#p81ece2e539)" d="M 584.337232 422.765257 
L 639.738577 422.765257 
L 639.738577 409.546663 
L 584.337232 409.546663 
z
" style="fill:#96c69a;fill-opacity:0.5;stroke:#ffffff;stroke-linejoin:miter;stroke-width:1.321859;"/>
   </g>
   <g id="patch_36">
    <path clip-path="url(#p81ece2e539)" d="M 584.337232 409.546663 
L 624.424384 409.546663 
L 624.424384 396.328069 
L 584.337232 396.328069 
z
" style="fill:#96c69a;fill-opacity:0.5;stroke:#ffffff;stroke-linejoin:miter;stroke-width:1.321859;"/>
   </g>
   <g id="patch_37">
    <path clip-path="url(#p81ece2e539)" d="M 584.337232 396.328069 
L 619.469792 396.328069 
L 619.469792 383.109474 
L 584.337232 383.109474 
z
" style="fill:#96c69a;fill-opacity:0.5;stroke:#ffffff;stroke-linejoin:miter;stroke-width:1.321859;"/>
   </g>
   <g id="patch_38">
    <path clip-path="url(#p81ece2e539)" d="M 584.337232 383.109474 
L 612.263113 383.109474 
L 612.263113 369.89088 
L 584.337232 369.89088 
z
" style="fill:#96c69a;fill-opacity:0.5;stroke:#ffffff;stroke-linejoin:miter;stroke-width:1.321859;"/>
   </g>
   <g id="patch_39">
    <path clip-path="url(#p81ece2e539)" d="M 584.337232 369.89088 
L 612.713531 369.89088 
L 612.713531 356.672286 
L 584.337232 356.672286 
z
" style="fill:#96c69a;fill-opacity:0.5;stroke:#ffffff;stroke-linejoin:miter;stroke-width:1.321859;"/>
   </g>
   <g id="patch_40">
    <path clip-path="url(#p81ece2e539)" d="M 584.337232 356.672286 
L 597.849755 356.672286 
L 597.849755 343.453691 
L 584.337232 343.453691 
z
" style="fill:#96c69a;fill-opacity:0.5;stroke:#ffffff;stroke-linejoin:miter;stroke-width:1.321859;"/>
   </g>
   <g id="patch_41">
    <path clip-path="url(#p81ece2e539)" d="M 584.337232 343.453691 
L 598.75059 343.453691 
L 598.75059 330.235097 
L 584.337232 330.235097 
z
" style="fill:#96c69a;fill-opacity:0.5;stroke:#ffffff;stroke-linejoin:miter;stroke-width:1.321859;"/>
   </g>
   <g id="patch_42">
    <path clip-path="url(#p81ece2e539)" d="M 584.337232 330.235097 
L 598.75059 330.235097 
L 598.75059 317.016503 
L 584.337232 317.016503 
z
" style="fill:#96c69a;fill-opacity:0.5;stroke:#ffffff;stroke-linejoin:miter;stroke-width:1.321859;"/>
   </g>
   <g id="patch_43">
    <path clip-path="url(#p81ece2e539)" d="M 584.337232 317.016503 
L 590.643076 317.016503 
L 590.643076 303.797908 
L 584.337232 303.797908 
z
" style="fill:#96c69a;fill-opacity:0.5;stroke:#ffffff;stroke-linejoin:miter;stroke-width:1.321859;"/>
   </g>
   <g id="patch_44">
    <path clip-path="url(#p81ece2e539)" d="M 584.337232 303.797908 
L 591.093494 303.797908 
L 591.093494 290.579314 
L 584.337232 290.579314 
z
" style="fill:#96c69a;fill-opacity:0.5;stroke:#ffffff;stroke-linejoin:miter;stroke-width:1.321859;"/>
   </g>
   <g id="patch_45">
    <path clip-path="url(#p81ece2e539)" d="M 584.337232 290.579314 
L 589.742241 290.579314 
L 589.742241 277.36072 
L 584.337232 277.36072 
z
" style="fill:#96c69a;fill-opacity:0.5;stroke:#ffffff;stroke-linejoin:miter;stroke-width:1.321859;"/>
   </g>
   <g id="patch_46">
    <path clip-path="url(#p81ece2e539)" d="M 584.337232 277.36072 
L 586.589319 277.36072 
L 586.589319 264.142125 
L 584.337232 264.142125 
z
" style="fill:#96c69a;fill-opacity:0.5;stroke:#ffffff;stroke-linejoin:miter;stroke-width:1.321859;"/>
   </g>
   <g id="patch_47">
    <path clip-path="url(#p81ece2e539)" d="M 584.337232 264.142125 
L 585.688484 264.142125 
L 585.688484 250.923531 
L 584.337232 250.923531 
z
" style="fill:#96c69a;fill-opacity:0.5;stroke:#ffffff;stroke-linejoin:miter;stroke-width:1.321859;"/>
   </g>
   <g id="patch_48">
    <path clip-path="url(#p81ece2e539)" d="M 584.337232 250.923531 
L 587.039737 250.923531 
L 587.039737 237.704937 
L 584.337232 237.704937 
z
" style="fill:#96c69a;fill-opacity:0.5;stroke:#ffffff;stroke-linejoin:miter;stroke-width:1.321859;"/>
   </g>
   <g id="patch_49">
    <path clip-path="url(#p81ece2e539)" d="M 584.337232 237.704937 
L 586.138902 237.704937 
L 586.138902 224.486342 
L 584.337232 224.486342 
z
" style="fill:#96c69a;fill-opacity:0.5;stroke:#ffffff;stroke-linejoin:miter;stroke-width:1.321859;"/>
   </g>
   <g id="patch_50">
    <path clip-path="url(#p81ece2e539)" d="M 584.337232 224.486342 
L 584.337232 224.486342 
L 584.337232 211.267748 
L 584.337232 211.267748 
z
" style="fill:#96c69a;fill-opacity:0.5;stroke:#ffffff;stroke-linejoin:miter;stroke-width:1.321859;"/>
   </g>
   <g id="patch_51">
    <path clip-path="url(#p81ece2e539)" d="M 584.337232 211.267748 
L 584.78765 211.267748 
L 584.78765 198.049154 
L 584.337232 198.049154 
z
" style="fill:#96c69a;fill-opacity:0.5;stroke:#ffffff;stroke-linejoin:miter;stroke-width:1.321859;"/>
   </g>
   <g id="patch_52">
    <path clip-path="url(#p81ece2e539)" d="M 584.337232 198.049154 
L 586.138902 198.049154 
L 586.138902 184.830559 
L 584.337232 184.830559 
z
" style="fill:#96c69a;fill-opacity:0.5;stroke:#ffffff;stroke-linejoin:miter;stroke-width:1.321859;"/>
   </g>
   <g id="patch_53">
    <path clip-path="url(#p81ece2e539)" d="M 584.337232 184.830559 
L 584.337232 184.830559 
L 584.337232 171.611965 
L 584.337232 171.611965 
z
" style="fill:#96c69a;fill-opacity:0.5;stroke:#ffffff;stroke-linejoin:miter;stroke-width:1.321859;"/>
   </g>
   <g id="patch_54">
    <path clip-path="url(#p81ece2e539)" d="M 584.337232 171.611965 
L 584.78765 171.611965 
L 584.78765 158.393371 
L 584.337232 158.393371 
z
" style="fill:#96c69a;fill-opacity:0.5;stroke:#ffffff;stroke-linejoin:miter;stroke-width:1.321859;"/>
   </g>
   <g id="patch_55">
    <path clip-path="url(#p81ece2e539)" d="M 584.337232 158.393371 
L 584.337232 158.393371 
L 584.337232 145.174776 
L 584.337232 145.174776 
z
" style="fill:#96c69a;fill-opacity:0.5;stroke:#ffffff;stroke-linejoin:miter;stroke-width:1.321859;"/>
   </g>
   <g id="patch_56">
    <path clip-path="url(#p81ece2e539)" d="M 584.337232 145.174776 
L 584.78765 145.174776 
L 584.78765 131.956182 
L 584.337232 131.956182 
z
" style="fill:#96c69a;fill-opacity:0.5;stroke:#ffffff;stroke-linejoin:miter;stroke-width:1.321859;"/>
   </g>
   <g id="patch_57">
    <path d="M 584.337232 603.86 
L 584.337232 109.484571 
" style="fill:none;stroke:#262626;stroke-linecap:square;stroke-linejoin:miter;stroke-width:2.5;"/>
   </g>
   <g id="patch_58">
    <path d="M 584.337232 603.86 
L 667.574375 603.86 
" style="fill:none;stroke:#262626;stroke-linecap:square;stroke-linejoin:miter;stroke-width:2.5;"/>
   </g>
  </g>
 </g>
 <defs>
  <clipPath id="p9b765d71ee">
   <rect height="494.375429" width="482.775429" x="84.914375" y="109.484571"/>
  </clipPath>
  <clipPath id="pb8e6eae1e8">
   <rect height="85.237143" width="482.775429" x="84.914375" y="7.2"/>
  </clipPath>
  <clipPath id="p81ece2e539">
   <rect height="494.375429" width="83.237143" x="584.337232" y="109.484571"/>
  </clipPath>
 </defs>
</svg>
