<?xml version="1.0" encoding="utf-8" standalone="no"?>
<!DOCTYPE svg PUBLIC "-//W3C//DTD SVG 1.1//EN"
  "http://www.w3.org/Graphics/SVG/1.1/DTD/svg11.dtd">
<svg height="674.159375pt" version="1.1" viewBox="0 0 691.184186 674.159375" width="691.184186pt" xmlns="http://www.w3.org/2000/svg" xmlns:xlink="http://www.w3.org/1999/xlink">
 <metadata>
  <rdf:RDF xmlns:cc="http://creativecommons.org/ns#" xmlns:dc="http://purl.org/dc/elements/1.1/" xmlns:rdf="http://www.w3.org/1999/02/22-rdf-syntax-ns#">
   <cc:Work>
    <dc:type rdf:resource="http://purl.org/dc/dcmitype/StillImage"/>
    <dc:date>2021-07-24T14:50:57.700231</dc:date>
    <dc:format>image/svg+xml</dc:format>
    <dc:creator>
     <cc:Agent>
      <dc:title>Matplotlib v3.4.2, https://matplotlib.org/</dc:title>
     </cc:Agent>
    </dc:creator>
   </cc:Work>
  </rdf:RDF>
 </metadata>
 <defs>
  <style type="text/css">*{stroke-linecap:butt;stroke-linejoin:round;}</style>
 </defs>
 <g id="figure_1">
  <g id="patch_1">
   <path d="M 0 674.159375 
L 691.184186 674.159375 
L 691.184186 0 
L 0 0 
z
" style="fill:#ffffff;"/>
  </g>
  <g id="axes_1">
   <g id="patch_2">
    <path d="M 98.911875 602.94 
L 581.861304 602.94 
L 581.861304 109.326857 
L 98.911875 109.326857 
z
" style="fill:none;"/>
   </g>
   <g id="matplotlib.axis_1">
    <g id="xtick_1">
     <g id="text_1">
      <!-- 0 -->
      <g style="fill:#262626;" transform="translate(113.425887 635.156562)scale(0.22 -0.22)">
       <defs>
        <path d="M 2034 4250 
Q 1547 4250 1301 3770 
Q 1056 3291 1056 2328 
Q 1056 1369 1301 889 
Q 1547 409 2034 409 
Q 2525 409 2770 889 
Q 3016 1369 3016 2328 
Q 3016 3291 2770 3770 
Q 2525 4250 2034 4250 
z
M 2034 4750 
Q 2819 4750 3233 4129 
Q 3647 3509 3647 2328 
Q 3647 1150 3233 529 
Q 2819 -91 2034 -91 
Q 1250 -91 836 529 
Q 422 1150 422 2328 
Q 422 3509 836 4129 
Q 1250 4750 2034 4750 
z
" id="DejaVuSans-30" transform="scale(0.015625)"/>
       </defs>
       <use xlink:href="#DejaVuSans-30"/>
      </g>
     </g>
    </g>
    <g id="xtick_2">
     <g id="text_2">
      <!-- 20000 -->
      <g style="fill:#262626;" transform="translate(171.604303 635.156562)scale(0.22 -0.22)">
       <defs>
        <path d="M 1228 531 
L 3431 531 
L 3431 0 
L 469 0 
L 469 531 
Q 828 903 1448 1529 
Q 2069 2156 2228 2338 
Q 2531 2678 2651 2914 
Q 2772 3150 2772 3378 
Q 2772 3750 2511 3984 
Q 2250 4219 1831 4219 
Q 1534 4219 1204 4116 
Q 875 4013 500 3803 
L 500 4441 
Q 881 4594 1212 4672 
Q 1544 4750 1819 4750 
Q 2544 4750 2975 4387 
Q 3406 4025 3406 3419 
Q 3406 3131 3298 2873 
Q 3191 2616 2906 2266 
Q 2828 2175 2409 1742 
Q 1991 1309 1228 531 
z
" id="DejaVuSans-32" transform="scale(0.015625)"/>
       </defs>
       <use xlink:href="#DejaVuSans-32"/>
       <use x="63.623047" xlink:href="#DejaVuSans-30"/>
       <use x="127.246094" xlink:href="#DejaVuSans-30"/>
       <use x="190.869141" xlink:href="#DejaVuSans-30"/>
       <use x="254.492188" xlink:href="#DejaVuSans-30"/>
      </g>
     </g>
    </g>
    <g id="xtick_3">
     <g id="text_3">
      <!-- 40000 -->
      <g style="fill:#262626;" transform="translate(257.777719 635.156562)scale(0.22 -0.22)">
       <defs>
        <path d="M 2419 4116 
L 825 1625 
L 2419 1625 
L 2419 4116 
z
M 2253 4666 
L 3047 4666 
L 3047 1625 
L 3713 1625 
L 3713 1100 
L 3047 1100 
L 3047 0 
L 2419 0 
L 2419 1100 
L 313 1100 
L 313 1709 
L 2253 4666 
z
" id="DejaVuSans-34" transform="scale(0.015625)"/>
       </defs>
       <use xlink:href="#DejaVuSans-34"/>
       <use x="63.623047" xlink:href="#DejaVuSans-30"/>
       <use x="127.246094" xlink:href="#DejaVuSans-30"/>
       <use x="190.869141" xlink:href="#DejaVuSans-30"/>
       <use x="254.492188" xlink:href="#DejaVuSans-30"/>
      </g>
     </g>
    </g>
    <g id="xtick_4">
     <g id="text_4">
      <!-- 60000 -->
      <g style="fill:#262626;" transform="translate(343.951134 635.156562)scale(0.22 -0.22)">
       <defs>
        <path d="M 2113 2584 
Q 1688 2584 1439 2293 
Q 1191 2003 1191 1497 
Q 1191 994 1439 701 
Q 1688 409 2113 409 
Q 2538 409 2786 701 
Q 3034 994 3034 1497 
Q 3034 2003 2786 2293 
Q 2538 2584 2113 2584 
z
M 3366 4563 
L 3366 3988 
Q 3128 4100 2886 4159 
Q 2644 4219 2406 4219 
Q 1781 4219 1451 3797 
Q 1122 3375 1075 2522 
Q 1259 2794 1537 2939 
Q 1816 3084 2150 3084 
Q 2853 3084 3261 2657 
Q 3669 2231 3669 1497 
Q 3669 778 3244 343 
Q 2819 -91 2113 -91 
Q 1303 -91 875 529 
Q 447 1150 447 2328 
Q 447 3434 972 4092 
Q 1497 4750 2381 4750 
Q 2619 4750 2861 4703 
Q 3103 4656 3366 4563 
z
" id="DejaVuSans-36" transform="scale(0.015625)"/>
       </defs>
       <use xlink:href="#DejaVuSans-36"/>
       <use x="63.623047" xlink:href="#DejaVuSans-30"/>
       <use x="127.246094" xlink:href="#DejaVuSans-30"/>
       <use x="190.869141" xlink:href="#DejaVuSans-30"/>
       <use x="254.492188" xlink:href="#DejaVuSans-30"/>
      </g>
     </g>
    </g>
    <g id="xtick_5">
     <g id="text_5">
      <!-- 80000 -->
      <g style="fill:#262626;" transform="translate(430.12455 635.156562)scale(0.22 -0.22)">
       <defs>
        <path d="M 2034 2216 
Q 1584 2216 1326 1975 
Q 1069 1734 1069 1313 
Q 1069 891 1326 650 
Q 1584 409 2034 409 
Q 2484 409 2743 651 
Q 3003 894 3003 1313 
Q 3003 1734 2745 1975 
Q 2488 2216 2034 2216 
z
M 1403 2484 
Q 997 2584 770 2862 
Q 544 3141 544 3541 
Q 544 4100 942 4425 
Q 1341 4750 2034 4750 
Q 2731 4750 3128 4425 
Q 3525 4100 3525 3541 
Q 3525 3141 3298 2862 
Q 3072 2584 2669 2484 
Q 3125 2378 3379 2068 
Q 3634 1759 3634 1313 
Q 3634 634 3220 271 
Q 2806 -91 2034 -91 
Q 1263 -91 848 271 
Q 434 634 434 1313 
Q 434 1759 690 2068 
Q 947 2378 1403 2484 
z
M 1172 3481 
Q 1172 3119 1398 2916 
Q 1625 2713 2034 2713 
Q 2441 2713 2670 2916 
Q 2900 3119 2900 3481 
Q 2900 3844 2670 4047 
Q 2441 4250 2034 4250 
Q 1625 4250 1398 4047 
Q 1172 3844 1172 3481 
z
" id="DejaVuSans-38" transform="scale(0.015625)"/>
       </defs>
       <use xlink:href="#DejaVuSans-38"/>
       <use x="63.623047" xlink:href="#DejaVuSans-30"/>
       <use x="127.246094" xlink:href="#DejaVuSans-30"/>
       <use x="190.869141" xlink:href="#DejaVuSans-30"/>
       <use x="254.492188" xlink:href="#DejaVuSans-30"/>
      </g>
     </g>
    </g>
    <g id="xtick_6">
     <g id="text_6">
      <!-- 100000 -->
      <g style="fill:#262626;" transform="translate(509.299215 635.156562)scale(0.22 -0.22)">
       <defs>
        <path d="M 794 531 
L 1825 531 
L 1825 4091 
L 703 3866 
L 703 4441 
L 1819 4666 
L 2450 4666 
L 2450 531 
L 3481 531 
L 3481 0 
L 794 0 
L 794 531 
z
" id="DejaVuSans-31" transform="scale(0.015625)"/>
       </defs>
       <use xlink:href="#DejaVuSans-31"/>
       <use x="63.623047" xlink:href="#DejaVuSans-30"/>
       <use x="127.246094" xlink:href="#DejaVuSans-30"/>
       <use x="190.869141" xlink:href="#DejaVuSans-30"/>
       <use x="254.492188" xlink:href="#DejaVuSans-30"/>
       <use x="318.115234" xlink:href="#DejaVuSans-30"/>
      </g>
     </g>
    </g>
    <g id="text_7">
     <!-- MDTU -->
     <g style="fill:#262626;" transform="translate(304.680964 661.968125)scale(0.24 -0.24)">
      <defs>
       <path d="M 628 4666 
L 1569 4666 
L 2759 1491 
L 3956 4666 
L 4897 4666 
L 4897 0 
L 4281 0 
L 4281 4097 
L 3078 897 
L 2444 897 
L 1241 4097 
L 1241 0 
L 628 0 
L 628 4666 
z
" id="DejaVuSans-4d" transform="scale(0.015625)"/>
       <path d="M 1259 4147 
L 1259 519 
L 2022 519 
Q 2988 519 3436 956 
Q 3884 1394 3884 2338 
Q 3884 3275 3436 3711 
Q 2988 4147 2022 4147 
L 1259 4147 
z
M 628 4666 
L 1925 4666 
Q 3281 4666 3915 4102 
Q 4550 3538 4550 2338 
Q 4550 1131 3912 565 
Q 3275 0 1925 0 
L 628 0 
L 628 4666 
z
" id="DejaVuSans-44" transform="scale(0.015625)"/>
       <path d="M -19 4666 
L 3928 4666 
L 3928 4134 
L 2272 4134 
L 2272 0 
L 1638 0 
L 1638 4134 
L -19 4134 
L -19 4666 
z
" id="DejaVuSans-54" transform="scale(0.015625)"/>
       <path d="M 556 4666 
L 1191 4666 
L 1191 1831 
Q 1191 1081 1462 751 
Q 1734 422 2344 422 
Q 2950 422 3222 751 
Q 3494 1081 3494 1831 
L 3494 4666 
L 4128 4666 
L 4128 1753 
Q 4128 841 3676 375 
Q 3225 -91 2344 -91 
Q 1459 -91 1007 375 
Q 556 841 556 1753 
L 556 4666 
z
" id="DejaVuSans-55" transform="scale(0.015625)"/>
      </defs>
      <use xlink:href="#DejaVuSans-4d"/>
      <use x="86.279297" xlink:href="#DejaVuSans-44"/>
      <use x="163.28125" xlink:href="#DejaVuSans-54"/>
      <use x="224.365234" xlink:href="#DejaVuSans-55"/>
     </g>
    </g>
   </g>
   <g id="matplotlib.axis_2">
    <g id="ytick_1">
     <g id="text_8">
      <!-- 0.50 -->
      <g style="fill:#262626;" transform="translate(34.4275 588.666595)scale(0.22 -0.22)">
       <defs>
        <path d="M 684 794 
L 1344 794 
L 1344 0 
L 684 0 
L 684 794 
z
" id="DejaVuSans-2e" transform="scale(0.015625)"/>
        <path d="M 691 4666 
L 3169 4666 
L 3169 4134 
L 1269 4134 
L 1269 2991 
Q 1406 3038 1543 3061 
Q 1681 3084 1819 3084 
Q 2600 3084 3056 2656 
Q 3513 2228 3513 1497 
Q 3513 744 3044 326 
Q 2575 -91 1722 -91 
Q 1428 -91 1123 -41 
Q 819 9 494 109 
L 494 744 
Q 775 591 1075 516 
Q 1375 441 1709 441 
Q 2250 441 2565 725 
Q 2881 1009 2881 1497 
Q 2881 1984 2565 2268 
Q 2250 2553 1709 2553 
Q 1456 2553 1204 2497 
Q 953 2441 691 2322 
L 691 4666 
z
" id="DejaVuSans-35" transform="scale(0.015625)"/>
       </defs>
       <use xlink:href="#DejaVuSans-30"/>
       <use x="63.623047" xlink:href="#DejaVuSans-2e"/>
       <use x="95.410156" xlink:href="#DejaVuSans-35"/>
       <use x="159.033203" xlink:href="#DejaVuSans-30"/>
      </g>
     </g>
    </g>
    <g id="ytick_2">
     <g id="text_9">
      <!-- 0.55 -->
      <g style="fill:#262626;" transform="translate(34.4275 517.686493)scale(0.22 -0.22)">
       <use xlink:href="#DejaVuSans-30"/>
       <use x="63.623047" xlink:href="#DejaVuSans-2e"/>
       <use x="95.410156" xlink:href="#DejaVuSans-35"/>
       <use x="159.033203" xlink:href="#DejaVuSans-35"/>
      </g>
     </g>
    </g>
    <g id="ytick_3">
     <g id="text_10">
      <!-- 0.60 -->
      <g style="fill:#262626;" transform="translate(34.4275 446.706391)scale(0.22 -0.22)">
       <use xlink:href="#DejaVuSans-30"/>
       <use x="63.623047" xlink:href="#DejaVuSans-2e"/>
       <use x="95.410156" xlink:href="#DejaVuSans-36"/>
       <use x="159.033203" xlink:href="#DejaVuSans-30"/>
      </g>
     </g>
    </g>
    <g id="ytick_4">
     <g id="text_11">
      <!-- 0.65 -->
      <g style="fill:#262626;" transform="translate(34.4275 375.726289)scale(0.22 -0.22)">
       <use xlink:href="#DejaVuSans-30"/>
       <use x="63.623047" xlink:href="#DejaVuSans-2e"/>
       <use x="95.410156" xlink:href="#DejaVuSans-36"/>
       <use x="159.033203" xlink:href="#DejaVuSans-35"/>
      </g>
     </g>
    </g>
    <g id="ytick_5">
     <g id="text_12">
      <!-- 0.70 -->
      <g style="fill:#262626;" transform="translate(34.4275 304.746187)scale(0.22 -0.22)">
       <defs>
        <path d="M 525 4666 
L 3525 4666 
L 3525 4397 
L 1831 0 
L 1172 0 
L 2766 4134 
L 525 4134 
L 525 4666 
z
" id="DejaVuSans-37" transform="scale(0.015625)"/>
       </defs>
       <use xlink:href="#DejaVuSans-30"/>
       <use x="63.623047" xlink:href="#DejaVuSans-2e"/>
       <use x="95.410156" xlink:href="#DejaVuSans-37"/>
       <use x="159.033203" xlink:href="#DejaVuSans-30"/>
      </g>
     </g>
    </g>
    <g id="ytick_6">
     <g id="text_13">
      <!-- 0.75 -->
      <g style="fill:#262626;" transform="translate(34.4275 233.766085)scale(0.22 -0.22)">
       <use xlink:href="#DejaVuSans-30"/>
       <use x="63.623047" xlink:href="#DejaVuSans-2e"/>
       <use x="95.410156" xlink:href="#DejaVuSans-37"/>
       <use x="159.033203" xlink:href="#DejaVuSans-35"/>
      </g>
     </g>
    </g>
    <g id="ytick_7">
     <g id="text_14">
      <!-- 0.80 -->
      <g style="fill:#262626;" transform="translate(34.4275 162.785983)scale(0.22 -0.22)">
       <use xlink:href="#DejaVuSans-30"/>
       <use x="63.623047" xlink:href="#DejaVuSans-2e"/>
       <use x="95.410156" xlink:href="#DejaVuSans-38"/>
       <use x="159.033203" xlink:href="#DejaVuSans-30"/>
      </g>
     </g>
    </g>
    <g id="text_15">
     <!-- $E$ -->
     <g style="fill:#262626;" transform="translate(25.43625 363.813429)rotate(-90)scale(0.24 -0.24)">
      <defs>
       <path d="M 1081 4666 
L 4031 4666 
L 3928 4134 
L 1606 4134 
L 1338 2753 
L 3566 2753 
L 3463 2222 
L 1234 2222 
L 909 531 
L 3284 531 
L 3181 0 
L 172 0 
L 1081 4666 
z
" id="DejaVuSans-Oblique-45" transform="scale(0.015625)"/>
      </defs>
      <use transform="translate(0 0.09375)" xlink:href="#DejaVuSans-Oblique-45"/>
     </g>
    </g>
   </g>
   <g id="line2d_1">
    <path clip-path="url(#pe62a770367)" d="M 120.864122 393.197682 
L 121.303606 406.374997 
L 121.743091 311.501249 
L 122.182575 430.71628 
L 122.622059 435.878008 
L 123.061544 258.970526 
L 123.501028 389.532424 
L 123.940513 379.377417 
L 124.379997 382.711166 
L 124.819482 414.230179 
L 125.258966 276.679244 
L 125.69845 378.281809 
L 126.137935 410.828381 
L 126.577419 386.635472 
L 127.016904 403.486307 
L 127.456388 387.189986 
L 127.895872 317.455756 
L 128.335357 386.038036 
L 128.774841 413.511245 
L 129.214326 424.515631 
L 129.65381 314.205417 
L 130.093295 489.784464 
L 130.532779 354.135401 
L 130.972263 369.031794 
L 131.411748 338.19487 
L 131.851232 408.702297 
L 132.290717 519.239578 
L 132.730201 342.947649 
L 133.169685 479.466768 
L 133.60917 392.819473 
L 134.048654 369.688212 
L 134.488139 366.190212 
L 134.927623 233.490635 
L 135.367108 339.637448 
L 135.806592 358.857079 
L 136.246076 458.490613 
L 136.685561 385.163566 
L 137.125045 336.885482 
L 137.56453 337.376508 
L 138.004014 529.980437 
L 138.443499 331.335844 
L 138.882983 412.661783 
L 139.322467 431.536861 
L 139.761952 372.617246 
L 140.201436 277.505652 
L 140.640921 295.544503 
L 141.080405 449.454511 
L 141.519889 411.770885 
L 141.959374 283.084282 
L 142.398858 343.060648 
L 142.838343 432.301611 
L 143.277827 452.445734 
L 143.717312 247.032917 
L 144.59628 462.345845 
L 145.035765 488.289177 
L 145.475249 292.315956 
L 145.914734 361.387181 
L 146.354218 337.057544 
L 146.793703 422.98205 
L 147.233187 387.478479 
L 147.672671 459.167318 
L 148.112156 414.110517 
L 148.55164 490.66193 
L 148.991125 325.176313 
L 149.430609 397.30495 
L 149.870093 325.567564 
L 150.309578 491.006621 
L 150.749062 330.472581 
L 151.188547 387.628404 
L 151.628031 477.566674 
L 152.067516 219.186668 
L 152.507 370.674772 
L 152.946484 477.441823 
L 153.385969 312.197662 
L 153.825453 437.043911 
L 154.264938 277.026171 
L 154.704422 265.309076 
L 155.143906 416.318201 
L 155.583391 414.217008 
L 156.022875 429.278515 
L 156.46236 401.276594 
L 156.901844 342.704787 
L 157.341329 312.847549 
L 157.780813 458.569239 
L 158.220297 337.670347 
L 158.659782 352.480723 
L 159.099266 382.374361 
L 159.538751 334.342349 
L 159.978235 249.329936 
L 160.41772 364.476887 
L 161.296688 540.134619 
L 161.736173 429.775865 
L 162.175657 289.213065 
L 163.054626 427.264337 
L 163.49411 475.117543 
L 163.933595 481.68087 
L 164.373079 437.480875 
L 164.812564 349.472491 
L 165.252048 367.800833 
L 165.691533 524.186449 
L 166.131017 389.555281 
L 166.570501 404.304461 
L 167.009986 454.809776 
L 167.44947 356.21343 
L 167.888955 373.579797 
L 168.328439 342.660163 
L 168.767923 327.297642 
L 169.207408 416.517576 
L 169.646892 411.863458 
L 170.086377 379.080362 
L 170.525861 477.980525 
L 170.965346 294.930438 
L 171.40483 293.054356 
L 171.844314 447.245585 
L 172.283799 528.264004 
L 172.723283 545.247408 
L 173.162768 380.508849 
L 173.602252 317.656301 
L 174.041737 448.893401 
L 174.481221 356.108911 
L 174.920705 377.079469 
L 175.36019 411.151295 
L 175.799674 293.144927 
L 176.239159 443.523167 
L 176.678643 474.704172 
L 177.557612 445.167928 
L 177.997096 295.765914 
L 178.436581 327.322859 
L 178.876065 508.521163 
L 179.31555 361.588538 
L 179.755034 449.364149 
L 180.194518 430.678411 
L 180.634003 403.490285 
L 181.073487 457.756889 
L 181.512972 276.636479 
L 181.952456 410.799277 
L 182.39194 488.378897 
L 182.831425 437.148804 
L 183.270909 331.716204 
L 183.710394 425.22208 
L 184.149878 476.488828 
L 184.589363 392.252805 
L 185.028847 377.471061 
L 185.907816 309.542914 
L 186.3473 273.860558 
L 186.786785 427.718448 
L 187.226269 333.953155 
L 187.665754 452.677709 
L 188.105238 434.21763 
L 188.544722 421.82586 
L 188.984207 343.561571 
L 189.423691 420.089971 
L 189.863176 472.952321 
L 190.30266 410.29475 
L 190.742144 155.825324 
L 191.181629 492.04227 
L 192.060598 282.179385 
L 192.500082 311.027286 
L 192.939567 284.382034 
L 193.379051 338.433782 
L 193.818535 357.860673 
L 194.25802 383.755384 
L 194.697504 298.704739 
L 195.136989 432.919306 
L 195.576473 419.020869 
L 196.015957 516.595103 
L 196.894926 325.37712 
L 197.334411 352.007389 
L 197.773895 426.00436 
L 198.21338 237.334069 
L 198.652864 551.538632 
L 199.092348 411.113518 
L 199.531833 473.317418 
L 199.971317 449.152879 
L 200.410802 342.08847 
L 200.850286 457.950865 
L 201.289771 437.161517 
L 201.729255 264.656077 
L 202.168739 325.797158 
L 202.608224 475.41744 
L 203.047708 303.50328 
L 203.487193 369.441879 
L 203.926677 342.648692 
L 204.366161 352.566044 
L 204.805646 499.977107 
L 205.24513 312.497849 
L 205.684615 422.855452 
L 206.124099 393.901759 
L 206.563584 398.577923 
L 207.442552 418.872942 
L 207.882037 441.624566 
L 208.321521 336.66769 
L 208.761006 417.265045 
L 209.20049 405.306688 
L 209.639974 235.385753 
L 210.079459 419.675526 
L 210.518943 390.250521 
L 210.958428 450.294735 
L 211.397912 441.089767 
L 211.837397 243.185243 
L 212.276881 467.214658 
L 212.716365 497.621202 
L 213.15585 486.91631 
L 213.595334 303.251518 
L 214.034819 360.908915 
L 214.474303 378.957641 
L 214.913788 407.681901 
L 215.353272 337.835445 
L 215.792756 386.482236 
L 216.232241 338.853582 
L 216.671725 441.784072 
L 217.11121 332.765957 
L 217.550694 311.356618 
L 217.990178 215.291655 
L 218.429663 414.661031 
L 218.869147 236.65952 
L 219.308632 418.611263 
L 219.748116 406.812813 
L 220.187601 382.601697 
L 220.627085 324.174837 
L 221.066569 394.640544 
L 221.506054 395.179362 
L 221.945538 260.795278 
L 222.385023 475.475801 
L 222.824507 391.354713 
L 223.263991 387.56533 
L 223.703476 390.638929 
L 224.14296 354.880471 
L 224.582445 435.550407 
L 225.021929 292.855003 
L 225.461414 403.350569 
L 225.900898 375.545962 
L 226.340382 294.826423 
L 226.779867 469.172805 
L 227.219351 458.963637 
L 227.658836 481.194532 
L 228.09832 544.850355 
L 228.537805 439.322801 
L 228.977289 307.086534 
L 230.295742 455.180683 
L 230.735227 474.850527 
L 231.174711 387.323991 
L 231.614195 372.2474 
L 232.05368 412.344039 
L 232.493164 356.969533 
L 232.932649 413.288731 
L 233.372133 287.317107 
L 233.811618 290.916227 
L 234.251102 408.948429 
L 235.130071 294.456707 
L 235.569555 288.72202 
L 236.00904 416.594612 
L 236.448524 416.028759 
L 236.888008 437.032127 
L 237.327493 484.583919 
L 237.766977 442.048776 
L 238.206462 303.76706 
L 238.645946 370.605142 
L 239.085431 516.491858 
L 239.964399 370.03999 
L 240.403884 416.659763 
L 240.843368 347.916849 
L 241.282853 470.564243 
L 241.722337 406.904843 
L 242.161822 472.01072 
L 242.601306 346.19565 
L 243.04079 441.414858 
L 243.480275 337.408731 
L 243.919759 432.010492 
L 244.359244 403.91743 
L 244.798728 501.485305 
L 245.238212 472.539499 
L 245.677697 387.677803 
L 246.117181 402.733835 
L 246.556666 286.916426 
L 247.435635 556.969353 
L 247.875119 437.4797 
L 248.314603 449.603658 
L 248.754088 322.338206 
L 249.633057 429.384739 
L 250.072541 322.175734 
L 250.512026 350.374704 
L 250.95151 485.824549 
L 251.390994 470.530052 
L 251.830479 356.990524 
L 252.269963 340.715707 
L 252.709448 457.357012 
L 253.148932 249.705384 
L 253.588416 286.985348 
L 254.027901 372.053741 
L 254.467385 434.699661 
L 254.90687 431.053334 
L 255.346354 250.33639 
L 255.785839 419.658234 
L 256.225323 380.463331 
L 256.664807 229.729741 
L 257.104292 235.007399 
L 257.543776 500.746603 
L 258.422745 207.332827 
L 258.862229 461.429086 
L 259.301714 287.454386 
L 259.741198 401.261317 
L 260.180683 363.776986 
L 260.620167 343.642837 
L 261.059652 382.523091 
L 261.499136 473.235519 
L 261.93862 411.919979 
L 262.378105 415.575465 
L 262.817589 480.251354 
L 263.257074 345.034453 
L 263.696558 289.161684 
L 264.136043 319.293853 
L 264.575527 328.766974 
L 265.015011 378.047264 
L 265.454496 289.241983 
L 265.89398 354.540959 
L 266.333465 496.804411 
L 266.772949 277.510022 
L 267.212433 259.851945 
L 267.651918 399.341585 
L 268.530887 283.350415 
L 268.970371 311.685075 
L 269.409856 414.230745 
L 269.84934 468.07272 
L 270.288824 401.638749 
L 270.728309 423.058254 
L 271.167793 372.968323 
L 271.607278 345.899132 
L 272.046762 326.986981 
L 272.486246 289.410621 
L 272.925731 270.654035 
L 273.365215 560.147815 
L 273.8047 499.362206 
L 274.244184 393.965364 
L 274.683669 442.846564 
L 275.123153 399.821877 
L 275.562637 452.977358 
L 276.002122 385.410928 
L 276.441606 432.523771 
L 276.881091 355.355466 
L 277.320575 491.977822 
L 277.76006 357.595225 
L 278.199544 344.027418 
L 278.639028 444.548425 
L 279.078513 434.432098 
L 279.517997 580.503039 
L 279.957482 300.021603 
L 280.396966 380.886742 
L 280.83645 302.000684 
L 281.275935 414.237412 
L 281.715419 337.086177 
L 282.154904 428.821943 
L 282.594388 251.107283 
L 283.033873 327.510443 
L 283.473357 502.283414 
L 283.912841 463.296494 
L 284.352326 408.413986 
L 284.79181 337.366239 
L 285.231295 317.60403 
L 285.670779 375.616224 
L 286.110263 338.238298 
L 286.549748 392.139293 
L 286.989232 351.823923 
L 287.428717 337.746952 
L 287.868201 415.983208 
L 288.307686 447.379859 
L 288.74717 347.273883 
L 289.186654 512.022991 
L 289.626139 227.025259 
L 290.065623 355.074815 
L 290.505108 365.424783 
L 290.944592 383.45112 
L 291.384077 461.214569 
L 291.823561 513.885017 
L 292.263045 304.876027 
L 293.142014 530.98146 
L 293.581499 356.195343 
L 294.020983 422.582458 
L 294.460467 385.588255 
L 294.899952 406.019263 
L 295.339436 194.849496 
L 295.778921 454.982 
L 296.218405 556.139208 
L 296.65789 325.246328 
L 297.097374 401.355318 
L 297.536858 307.480824 
L 297.976343 324.780175 
L 298.415827 447.652489 
L 298.855312 345.040944 
L 299.294796 355.597088 
L 299.73428 290.363293 
L 300.173765 382.236181 
L 300.613249 424.782778 
L 301.052734 435.265345 
L 301.492218 346.692945 
L 301.931703 436.461404 
L 302.371187 423.639209 
L 302.810671 415.232252 
L 303.250156 272.417004 
L 303.68964 343.951509 
L 304.129125 473.084037 
L 304.568609 464.740195 
L 305.008094 371.22282 
L 305.447578 405.039783 
L 305.887062 533.336446 
L 306.326547 401.025387 
L 306.766031 387.449947 
L 307.205516 467.862935 
L 307.645 369.182961 
L 308.084484 360.442607 
L 308.523969 401.976346 
L 308.963453 356.298653 
L 309.402938 368.500484 
L 310.281907 287.438588 
L 310.721391 419.036926 
L 311.160875 357.870005 
L 311.60036 394.195109 
L 312.039844 311.82706 
L 312.479329 431.608333 
L 312.918813 447.787607 
L 313.358297 249.699634 
L 313.797782 279.283135 
L 314.237266 336.906183 
L 314.676751 483.088722 
L 315.116235 406.122367 
L 315.55572 466.13097 
L 315.995204 417.176543 
L 316.434688 329.63495 
L 316.874173 506.80633 
L 317.313657 367.64417 
L 317.753142 383.496156 
L 318.192626 271.072509 
L 318.632111 389.763493 
L 319.071595 416.485949 
L 319.511079 486.213871 
L 319.950564 356.701551 
L 320.390048 417.249556 
L 320.829533 422.292752 
L 321.269017 400.402722 
L 321.708501 438.833748 
L 322.147986 357.480525 
L 322.58747 405.893206 
L 323.026955 408.939675 
L 323.466439 421.222285 
L 323.905924 268.314981 
L 324.784892 491.295195 
L 325.224377 266.765667 
L 325.663861 372.239029 
L 326.103346 307.975559 
L 326.54283 330.960297 
L 326.982314 470.091317 
L 327.421799 312.866963 
L 327.861283 405.413695 
L 328.300768 315.671217 
L 328.740252 442.443485 
L 329.179737 429.340513 
L 329.619221 454.660836 
L 330.058705 501.531835 
L 330.49819 497.034218 
L 330.937674 439.429276 
L 331.377159 487.251205 
L 332.256128 375.53429 
L 332.695612 356.696163 
L 333.135096 429.130637 
L 333.574581 399.378918 
L 334.014065 305.367945 
L 334.45355 329.243362 
L 334.893034 372.559446 
L 335.332518 435.472976 
L 335.772003 440.525816 
L 336.211487 326.873101 
L 336.650972 413.483436 
L 337.090456 390.010736 
L 337.529941 515.04406 
L 337.969425 280.618646 
L 338.408909 507.654233 
L 338.848394 333.81264 
L 339.287878 507.675009 
L 339.727363 364.136238 
L 340.166847 508.162816 
L 340.606331 467.895749 
L 341.045816 278.934747 
L 341.4853 425.628553 
L 341.924785 377.067366 
L 342.364269 404.86615 
L 342.803754 339.290946 
L 343.243238 358.963901 
L 343.682722 393.863104 
L 344.122207 462.214925 
L 344.561691 409.406226 
L 345.001176 439.692064 
L 345.44066 351.562179 
L 345.880145 488.469613 
L 346.319629 353.057386 
L 346.759113 404.001476 
L 347.638082 370.192787 
L 348.077567 434.165579 
L 348.517051 470.56616 
L 348.956535 414.722171 
L 349.39602 290.900543 
L 349.835504 274.679426 
L 350.274989 422.501019 
L 350.714473 372.878976 
L 351.153958 294.764166 
L 351.593442 452.803244 
L 352.032926 389.246278 
L 352.472411 522.117708 
L 352.911895 336.930733 
L 353.35138 333.818528 
L 353.790864 515.469056 
L 354.669833 356.719026 
L 355.109317 374.252324 
L 355.548802 347.788461 
L 355.988286 443.647312 
L 356.427771 369.198801 
L 356.867255 462.692922 
L 357.306739 404.388889 
L 357.746224 456.137302 
L 358.185708 383.638997 
L 358.625193 399.134769 
L 359.064677 477.833754 
L 359.504162 326.130509 
L 359.943646 362.318276 
L 360.38313 425.10771 
L 360.822615 406.81122 
L 361.262099 396.055901 
L 362.141068 333.356444 
L 363.020037 507.018228 
L 363.459521 494.239978 
L 363.899006 373.880241 
L 364.33849 438.634642 
L 364.777975 291.153374 
L 365.217459 301.594339 
L 365.656943 236.153354 
L 366.096428 439.886113 
L 366.535912 204.792477 
L 366.975397 251.633531 
L 367.414881 346.382335 
L 367.854366 472.710664 
L 368.29385 546.819929 
L 368.733334 354.099373 
L 369.172819 495.353245 
L 369.612303 463.329932 
L 370.051788 368.179682 
L 370.491272 440.997663 
L 371.370241 377.407478 
L 371.809725 487.282777 
L 372.24921 382.340298 
L 372.688694 385.422524 
L 373.128179 309.782209 
L 373.567663 476.695118 
L 374.007147 311.288475 
L 374.446632 408.340503 
L 374.886116 561.53739 
L 375.325601 511.152212 
L 375.765085 373.299188 
L 376.204569 360.334051 
L 376.644054 427.555286 
L 377.083538 407.913094 
L 377.523023 298.568622 
L 377.962507 268.059526 
L 378.401992 348.990999 
L 378.841476 458.475305 
L 379.28096 452.725756 
L 379.720445 493.485622 
L 380.159929 346.819988 
L 380.599414 424.90415 
L 381.038898 433.572274 
L 381.478383 238.518978 
L 381.917867 495.491742 
L 382.357351 405.434944 
L 382.796836 399.60787 
L 383.23632 402.496273 
L 383.675805 487.798556 
L 384.115289 393.570208 
L 384.554773 438.910203 
L 384.994258 499.315297 
L 385.433742 436.273342 
L 385.873227 503.22954 
L 386.312711 379.750191 
L 386.752196 322.609607 
L 387.19168 348.138222 
L 387.631164 402.343969 
L 388.070649 377.874455 
L 388.510133 446.964685 
L 388.949618 496.332571 
L 389.389102 467.738432 
L 389.828586 334.900969 
L 390.268071 450.083045 
L 390.707555 149.319287 
L 391.14704 308.431461 
L 391.586524 420.259245 
L 392.026009 439.07551 
L 392.465493 397.056934 
L 392.904977 439.382978 
L 393.344462 376.643229 
L 393.783946 253.753687 
L 394.223431 282.590151 
L 394.662915 396.962735 
L 395.1024 365.253702 
L 395.541884 414.839538 
L 395.981368 370.610833 
L 396.420853 468.091549 
L 396.860337 404.559154 
L 397.739306 345.915565 
L 398.17879 375.369173 
L 398.618275 485.826082 
L 399.057759 406.316429 
L 399.497244 401.439307 
L 399.936728 410.103379 
L 400.376213 401.526744 
L 400.815697 438.394634 
L 401.255181 196.376087 
L 401.694666 432.033764 
L 402.13415 418.65792 
L 402.573635 493.60115 
L 403.013119 372.077851 
L 403.452603 481.370489 
L 403.892088 138.198742 
L 404.331572 570.740612 
L 404.771057 284.240764 
L 405.210541 307.089622 
L 405.650026 447.20035 
L 406.08951 336.84727 
L 406.528994 342.645226 
L 406.968479 507.303227 
L 407.407963 317.073277 
L 407.847448 303.412185 
L 408.286932 427.831158 
L 408.726417 510.073669 
L 409.165901 377.296936 
L 409.605385 490.493488 
L 410.04487 562.303603 
L 410.484354 407.841397 
L 410.923839 357.751107 
L 411.363323 282.588489 
L 412.242292 371.276122 
L 412.681776 343.157914 
L 413.121261 413.089899 
L 413.560745 415.688165 
L 414.00023 431.094304 
L 414.439714 321.103344 
L 414.879198 380.712018 
L 415.318683 491.921236 
L 415.758167 547.307823 
L 416.197652 350.648828 
L 416.637136 380.492002 
L 417.07662 545.190686 
L 417.516105 365.870933 
L 417.955589 327.447495 
L 418.395074 300.799549 
L 418.834558 452.405102 
L 419.274043 333.653592 
L 419.713527 324.66437 
L 420.153011 393.133609 
L 421.471465 458.086669 
L 421.910949 377.216158 
L 422.350434 373.541193 
L 422.789918 420.687092 
L 423.229402 420.353241 
L 423.668887 415.917166 
L 424.108371 352.471179 
L 424.547856 390.646229 
L 424.98734 469.147573 
L 425.426824 293.88802 
L 425.866309 505.200817 
L 426.305793 311.993559 
L 426.745278 470.725631 
L 427.184762 447.912499 
L 427.624247 394.1698 
L 428.063731 439.464779 
L 428.503215 382.811608 
L 428.9427 397.479614 
L 429.382184 441.688501 
L 429.821669 535.517838 
L 430.261153 349.103326 
L 430.700637 531.010746 
L 431.140122 546.481465 
L 431.579606 438.631597 
L 432.019091 431.7432 
L 432.458575 131.763818 
L 432.89806 339.592126 
L 433.337544 451.128213 
L 433.777028 301.838091 
L 434.216513 337.379796 
L 434.655997 204.498469 
L 435.095482 386.005016 
L 435.534966 315.413844 
L 435.974451 422.466439 
L 436.413935 379.79665 
L 436.853419 449.324916 
L 437.292904 223.300213 
L 437.732388 333.912799 
L 438.171873 255.478515 
L 438.611357 424.008759 
L 439.050841 459.070406 
L 439.490326 379.376322 
L 439.92981 453.792973 
L 440.369295 396.344539 
L 440.808779 435.800077 
L 441.248264 357.248495 
L 441.687748 434.448769 
L 442.127232 320.871925 
L 442.566717 522.248539 
L 443.006201 346.330935 
L 443.445686 310.979466 
L 443.88517 350.120732 
L 444.324654 334.66141 
L 444.764139 434.749599 
L 445.203623 457.028857 
L 445.643108 407.695947 
L 446.082592 338.403635 
L 446.522077 466.92267 
L 446.961561 420.2084 
L 447.401045 406.558868 
L 447.84053 349.879368 
L 448.280014 161.453977 
L 448.719499 254.563598 
L 449.158983 290.869892 
L 449.598468 410.381909 
L 450.037952 412.771188 
L 450.477436 451.229025 
L 450.916921 412.248789 
L 451.356405 293.840359 
L 451.79589 361.750113 
L 452.674858 426.585885 
L 453.114343 410.776441 
L 453.553827 362.712226 
L 453.993312 357.726994 
L 454.432796 315.667474 
L 454.872281 321.776939 
L 455.311765 395.28353 
L 455.751249 331.803006 
L 456.630218 396.577032 
L 457.069703 246.883235 
L 457.509187 308.090834 
L 457.948671 436.061008 
L 458.388156 410.751748 
L 458.82764 372.249405 
L 459.267125 389.376088 
L 459.706609 344.542874 
L 460.146094 343.189065 
L 460.585578 259.573536 
L 461.025062 430.753807 
L 461.464547 345.231342 
L 461.904031 323.895159 
L 462.343516 285.146415 
L 462.783 307.073597 
L 463.222485 262.388752 
L 463.661969 402.456123 
L 464.101453 440.751616 
L 464.540938 431.412417 
L 464.980422 402.166641 
L 465.419907 403.479873 
L 465.859391 477.675132 
L 466.298875 391.319986 
L 466.73836 432.340024 
L 467.177844 395.005631 
L 467.617329 500.230085 
L 468.056813 325.526464 
L 468.496298 412.860122 
L 468.935782 439.507807 
L 469.375266 172.63948 
L 469.814751 397.975437 
L 470.254235 450.261089 
L 470.69372 331.81662 
L 471.133204 480.777477 
L 471.572689 314.989932 
L 472.012173 300.229833 
L 472.451657 256.926524 
L 472.891142 538.734602 
L 473.330626 336.423779 
L 473.770111 401.400034 
L 474.209595 237.742914 
L 474.649079 423.582991 
L 475.088564 339.574844 
L 475.528048 336.872354 
L 476.407017 393.780999 
L 476.846502 157.850994 
L 477.285986 532.902755 
L 477.72547 416.697264 
L 478.164955 413.143681 
L 478.604439 459.275668 
L 479.043924 319.964281 
L 479.483408 356.905353 
L 479.922892 409.793027 
L 480.362377 550.33854 
L 480.801861 394.082277 
L 481.241346 454.046671 
L 481.68083 284.620625 
L 482.120315 289.822098 
L 482.559799 335.941705 
L 482.999283 363.934105 
L 483.438768 523.762364 
L 483.878252 247.227824 
L 484.317737 543.185912 
L 484.757221 479.157265 
L 485.196706 443.677947 
L 485.63619 453.399037 
L 486.075674 443.314762 
L 486.515159 342.189629 
L 486.954643 324.689311 
L 487.394128 379.980013 
L 487.833612 360.540372 
L 488.273096 376.257246 
L 488.712581 502.276571 
L 489.59155 314.573622 
L 490.031034 257.741028 
L 490.470519 394.025916 
L 490.910003 490.835786 
L 491.349487 454.917034 
L 491.788972 352.743076 
L 492.667941 573.632831 
L 493.107425 363.717679 
L 493.546909 467.653283 
L 493.986394 477.805026 
L 494.425878 464.719907 
L 494.865363 381.882981 
L 495.304847 482.465828 
L 495.744332 354.598978 
L 496.183816 351.408681 
L 496.6233 289.669957 
L 497.062785 417.718615 
L 497.502269 295.79842 
L 497.941754 411.264711 
L 498.381238 287.571436 
L 498.820723 212.893529 
L 499.260207 182.373031 
L 499.699691 384.935462 
L 500.139176 328.248611 
L 500.57866 369.438166 
L 501.018145 366.491391 
L 501.457629 384.544548 
L 501.897113 275.553969 
L 502.336598 349.564701 
L 502.776082 380.518948 
L 503.215567 420.148061 
L 503.655051 407.049156 
L 504.094536 385.229183 
L 504.53402 503.043794 
L 504.973504 412.229045 
L 505.412989 457.32293 
L 505.852473 477.401615 
L 506.731442 308.49939 
L 507.170926 145.489905 
L 507.610411 365.531437 
L 508.049895 374.514291 
L 508.48938 443.223242 
L 509.368349 337.11375 
L 509.807833 375.531642 
L 510.247317 274.522871 
L 510.686802 409.932889 
L 511.126286 334.620009 
L 511.565771 374.431211 
L 512.005255 331.015623 
L 512.44474 444.807446 
L 512.884224 481.762525 
L 513.323708 279.894644 
L 513.763193 430.066469 
L 514.202677 382.415957 
L 514.642162 453.723914 
L 515.081646 334.539417 
L 515.52113 326.908013 
L 515.960615 411.887722 
L 516.400099 370.475344 
L 516.839584 351.945434 
L 517.279068 311.591144 
L 517.718553 389.330453 
L 518.158037 310.099231 
L 518.597521 295.791431 
L 519.037006 420.913296 
L 519.47649 398.716199 
L 519.915975 400.786694 
L 520.355459 365.866659 
L 520.794943 470.832833 
L 521.234428 399.391571 
L 521.673912 520.330353 
L 522.113397 395.973644 
L 522.552881 329.902564 
L 522.992366 302.71266 
L 523.43185 451.438143 
L 523.871334 503.268833 
L 524.310819 352.096908 
L 525.189788 417.803595 
L 525.629272 442.594553 
L 526.068757 325.543079 
L 526.508241 418.649758 
L 526.947725 330.83625 
L 527.38721 312.644596 
L 527.826694 473.503961 
L 528.266179 154.581636 
L 528.705663 269.709825 
L 529.145147 435.169445 
L 529.584632 330.812102 
L 530.024116 363.783815 
L 530.463601 342.93331 
L 530.903085 365.268832 
L 531.34257 310.572524 
L 531.782054 513.001606 
L 532.661023 319.824957 
L 533.100507 378.560196 
L 533.979476 312.253586 
L 534.41896 447.605929 
L 534.858445 385.246968 
L 535.297929 352.08127 
L 535.737414 457.152877 
L 536.176898 313.302699 
L 536.616383 428.256703 
L 537.055867 304.898991 
L 537.495351 444.37803 
L 537.934836 427.940033 
L 538.37432 416.831933 
L 538.813805 274.32442 
L 539.253289 297.728891 
L 539.692774 408.856685 
L 540.132258 416.347226 
L 540.571742 377.036855 
L 541.011227 303.080383 
L 541.450711 408.175294 
L 541.890196 384.637381 
L 542.32968 248.7866 
L 543.208649 488.096122 
L 543.648133 439.590601 
L 544.087618 415.744737 
L 544.527102 370.680172 
L 544.966587 410.699271 
L 545.406071 336.191822 
L 545.845555 384.0874 
L 546.28504 450.124914 
L 546.724524 408.782974 
L 547.164009 419.332065 
L 547.603493 419.253519 
L 548.042977 465.974674 
L 548.482462 496.612656 
L 548.921946 408.926742 
L 549.361431 369.241025 
L 549.800915 412.964583 
L 550.2404 427.678129 
L 550.679884 419.601972 
L 551.119368 354.246932 
L 551.558853 430.932244 
L 551.998337 353.176774 
L 552.437822 367.559463 
L 552.877306 480.174176 
L 553.316791 286.399767 
L 553.756275 384.028242 
L 554.195759 386.2246 
L 554.635244 298.149736 
L 555.074728 301.936099 
L 555.514213 283.278216 
L 555.953697 328.3895 
L 556.393181 407.945315 
L 556.832666 466.982188 
L 557.27215 347.962427 
L 557.711635 474.022897 
L 558.151119 503.614148 
L 558.590604 465.079726 
L 559.030088 354.831053 
L 559.469572 330.91951 
L 559.909057 365.909225 
L 559.909057 365.909225 
" style="fill:none;stroke:#96c69a;stroke-linecap:round;stroke-width:3;"/>
   </g>
   <g id="line2d_2"/>
   <g id="patch_3">
    <path d="M 98.911875 602.94 
L 98.911875 109.326857 
" style="fill:none;stroke:#262626;stroke-linecap:square;stroke-linejoin:miter;stroke-width:2.5;"/>
   </g>
   <g id="patch_4">
    <path d="M 98.911875 602.94 
L 581.861304 602.94 
" style="fill:none;stroke:#262626;stroke-linecap:square;stroke-linejoin:miter;stroke-width:2.5;"/>
   </g>
   <g id="legend_1">
    <g id="patch_5">
     <path d="M 528.945679 597.94 
L 574.861304 597.94 
Q 576.861304 597.94 576.861304 595.94 
L 576.861304 554.034375 
Q 576.861304 552.034375 574.861304 552.034375 
L 528.945679 552.034375 
Q 526.945679 552.034375 526.945679 554.034375 
L 526.945679 595.94 
Q 526.945679 597.94 528.945679 597.94 
z
" style="fill:#ffffff;opacity:0.8;stroke:#cccccc;stroke-linejoin:miter;stroke-width:2;"/>
    </g>
    <g id="text_16">
     <!-- $n_\tau$ -->
     <g style="fill:#262626;" transform="translate(538.823491 574.270625)scale(0.24 -0.24)">
      <defs>
       <path d="M 3566 2113 
L 3156 0 
L 2578 0 
L 2988 2091 
Q 3016 2238 3031 2350 
Q 3047 2463 3047 2528 
Q 3047 2791 2881 2937 
Q 2716 3084 2419 3084 
Q 1956 3084 1622 2776 
Q 1288 2469 1184 1941 
L 800 0 
L 225 0 
L 903 3500 
L 1478 3500 
L 1363 2950 
Q 1603 3253 1940 3418 
Q 2278 3584 2650 3584 
Q 3113 3584 3367 3334 
Q 3622 3084 3622 2631 
Q 3622 2519 3608 2391 
Q 3594 2263 3566 2113 
z
" id="DejaVuSans-Oblique-6e" transform="scale(0.015625)"/>
       <path d="M 2103 638 
Q 2188 488 2525 488 
L 2800 488 
L 2706 0 
L 2363 0 
Q 1800 0 1600 300 
Q 1403 606 1534 1269 
L 1856 2925 
L 541 2925 
L 653 3500 
L 3881 3500 
L 3769 2925 
L 2444 2925 
L 2113 1234 
Q 2025 781 2103 638 
z
" id="DejaVuSans-Oblique-3c4" transform="scale(0.015625)"/>
      </defs>
      <use xlink:href="#DejaVuSans-Oblique-6e"/>
      <use transform="translate(63.378906 -16.40625)scale(0.7)" xlink:href="#DejaVuSans-Oblique-3c4"/>
     </g>
    </g>
    <g id="line2d_3">
     <path d="M 530.945679 588.360312 
L 550.945679 588.360312 
" style="fill:none;stroke:#96c69a;stroke-linecap:round;stroke-width:3;"/>
    </g>
    <g id="line2d_4"/>
    <g id="text_17">
     <!-- 34 -->
     <g style="fill:#262626;" transform="translate(558.945679 591.860312)scale(0.1 -0.1)">
      <defs>
       <path d="M 2981 2516 
Q 3453 2394 3698 2092 
Q 3944 1791 3944 1325 
Q 3944 631 3412 270 
Q 2881 -91 1863 -91 
Q 1503 -91 1142 -33 
Q 781 25 428 141 
L 428 1069 
Q 766 900 1098 814 
Q 1431 728 1753 728 
Q 2231 728 2486 893 
Q 2741 1059 2741 1369 
Q 2741 1688 2480 1852 
Q 2219 2016 1709 2016 
L 1228 2016 
L 1228 2791 
L 1734 2791 
Q 2188 2791 2409 2933 
Q 2631 3075 2631 3366 
Q 2631 3634 2415 3781 
Q 2200 3928 1806 3928 
Q 1516 3928 1219 3862 
Q 922 3797 628 3669 
L 628 4550 
Q 984 4650 1334 4700 
Q 1684 4750 2022 4750 
Q 2931 4750 3382 4451 
Q 3834 4153 3834 3553 
Q 3834 3144 3618 2883 
Q 3403 2622 2981 2516 
z
" id="DejaVuSans-Bold-33" transform="scale(0.015625)"/>
       <path d="M 2356 3675 
L 1038 1722 
L 2356 1722 
L 2356 3675 
z
M 2156 4666 
L 3494 4666 
L 3494 1722 
L 4159 1722 
L 4159 850 
L 3494 850 
L 3494 0 
L 2356 0 
L 2356 850 
L 288 850 
L 288 1881 
L 2156 4666 
z
" id="DejaVuSans-Bold-34" transform="scale(0.015625)"/>
      </defs>
      <use xlink:href="#DejaVuSans-Bold-33"/>
      <use x="69.580078" xlink:href="#DejaVuSans-Bold-34"/>
     </g>
    </g>
   </g>
  </g>
  <g id="axes_2">
   <g id="patch_6">
    <path d="M 98.911875 92.305714 
L 581.861304 92.305714 
L 581.861304 7.2 
L 98.911875 7.2 
z
" style="fill:none;"/>
   </g>
   <g id="matplotlib.axis_3">
    <g id="xtick_7"/>
    <g id="xtick_8"/>
    <g id="xtick_9"/>
    <g id="xtick_10"/>
    <g id="xtick_11"/>
    <g id="xtick_12"/>
   </g>
   <g id="matplotlib.axis_4">
    <g id="ytick_8">
     <g id="text_18">
      <!-- 0 -->
      <g style="fill:#262626;" transform="translate(69.414375 100.663996)scale(0.22 -0.22)">
       <use xlink:href="#DejaVuSans-30"/>
      </g>
     </g>
    </g>
    <g id="ytick_9">
     <g id="text_19">
      <!-- 50 -->
      <g style="fill:#262626;" transform="translate(55.416875 56.129347)scale(0.22 -0.22)">
       <use xlink:href="#DejaVuSans-35"/>
       <use x="63.623047" xlink:href="#DejaVuSans-30"/>
      </g>
     </g>
    </g>
   </g>
   <g id="patch_7">
    <path clip-path="url(#p32d38b0b26)" d="M 120.864122 92.305714 
L 160.777298 92.305714 
L 160.777298 11.252653 
L 120.864122 11.252653 
z
" style="fill:#96c69a;fill-opacity:0.5;stroke:#ffffff;stroke-linejoin:miter;stroke-width:2;"/>
   </g>
   <g id="patch_8">
    <path clip-path="url(#p32d38b0b26)" d="M 160.777298 92.305714 
L 200.690474 92.305714 
L 200.690474 11.252653 
L 160.777298 11.252653 
z
" style="fill:#96c69a;fill-opacity:0.5;stroke:#ffffff;stroke-linejoin:miter;stroke-width:2;"/>
   </g>
   <g id="patch_9">
    <path clip-path="url(#p32d38b0b26)" d="M 200.690474 92.305714 
L 240.603649 92.305714 
L 240.603649 11.252653 
L 200.690474 11.252653 
z
" style="fill:#96c69a;fill-opacity:0.5;stroke:#ffffff;stroke-linejoin:miter;stroke-width:2;"/>
   </g>
   <g id="patch_10">
    <path clip-path="url(#p32d38b0b26)" d="M 240.603649 92.305714 
L 280.516825 92.305714 
L 280.516825 11.252653 
L 240.603649 11.252653 
z
" style="fill:#96c69a;fill-opacity:0.5;stroke:#ffffff;stroke-linejoin:miter;stroke-width:2;"/>
   </g>
   <g id="patch_11">
    <path clip-path="url(#p32d38b0b26)" d="M 280.516825 92.305714 
L 320.430001 92.305714 
L 320.430001 11.252653 
L 280.516825 11.252653 
z
" style="fill:#96c69a;fill-opacity:0.5;stroke:#ffffff;stroke-linejoin:miter;stroke-width:2;"/>
   </g>
   <g id="patch_12">
    <path clip-path="url(#p32d38b0b26)" d="M 320.430001 92.305714 
L 360.343177 92.305714 
L 360.343177 12.143346 
L 320.430001 12.143346 
z
" style="fill:#96c69a;fill-opacity:0.5;stroke:#ffffff;stroke-linejoin:miter;stroke-width:2;"/>
   </g>
   <g id="patch_13">
    <path clip-path="url(#p32d38b0b26)" d="M 360.343177 92.305714 
L 400.256353 92.305714 
L 400.256353 11.252653 
L 360.343177 11.252653 
z
" style="fill:#96c69a;fill-opacity:0.5;stroke:#ffffff;stroke-linejoin:miter;stroke-width:2;"/>
   </g>
   <g id="patch_14">
    <path clip-path="url(#p32d38b0b26)" d="M 400.256353 92.305714 
L 440.169529 92.305714 
L 440.169529 11.252653 
L 400.256353 11.252653 
z
" style="fill:#96c69a;fill-opacity:0.5;stroke:#ffffff;stroke-linejoin:miter;stroke-width:2;"/>
   </g>
   <g id="patch_15">
    <path clip-path="url(#p32d38b0b26)" d="M 440.169529 92.305714 
L 480.082705 92.305714 
L 480.082705 11.252653 
L 440.169529 11.252653 
z
" style="fill:#96c69a;fill-opacity:0.5;stroke:#ffffff;stroke-linejoin:miter;stroke-width:2;"/>
   </g>
   <g id="patch_16">
    <path clip-path="url(#p32d38b0b26)" d="M 480.082705 92.305714 
L 519.995881 92.305714 
L 519.995881 11.252653 
L 480.082705 11.252653 
z
" style="fill:#96c69a;fill-opacity:0.5;stroke:#ffffff;stroke-linejoin:miter;stroke-width:2;"/>
   </g>
   <g id="patch_17">
    <path clip-path="url(#p32d38b0b26)" d="M 519.995881 92.305714 
L 559.909057 92.305714 
L 559.909057 11.252653 
L 519.995881 11.252653 
z
" style="fill:#96c69a;fill-opacity:0.5;stroke:#ffffff;stroke-linejoin:miter;stroke-width:2;"/>
   </g>
   <g id="patch_18">
    <path d="M 98.911875 92.305714 
L 98.911875 7.2 
" style="fill:none;stroke:#262626;stroke-linecap:square;stroke-linejoin:miter;stroke-width:2.5;"/>
   </g>
   <g id="patch_19">
    <path d="M 98.911875 92.305714 
L 581.861304 92.305714 
" style="fill:none;stroke:#262626;stroke-linecap:square;stroke-linejoin:miter;stroke-width:2.5;"/>
   </g>
  </g>
  <g id="axes_3">
   <g id="patch_20">
    <path d="M 598.514732 602.94 
L 681.781875 602.94 
L 681.781875 109.326857 
L 598.514732 109.326857 
z
" style="fill:none;"/>
   </g>
   <g id="matplotlib.axis_5">
    <g id="xtick_13">
     <g id="text_20">
      <!-- 0 -->
      <g style="fill:#262626;" transform="translate(591.515982 635.156562)scale(0.22 -0.22)">
       <use xlink:href="#DejaVuSans-30"/>
      </g>
     </g>
    </g>
    <g id="xtick_14">
     <g id="text_21">
      <!-- 100 -->
      <g style="fill:#262626;" transform="translate(641.991686 635.156562)scale(0.22 -0.22)">
       <use xlink:href="#DejaVuSans-31"/>
       <use x="63.623047" xlink:href="#DejaVuSans-30"/>
       <use x="127.246094" xlink:href="#DejaVuSans-30"/>
      </g>
     </g>
    </g>
   </g>
   <g id="matplotlib.axis_6">
    <g id="ytick_10"/>
    <g id="ytick_11"/>
    <g id="ytick_12"/>
    <g id="ytick_13"/>
    <g id="ytick_14"/>
    <g id="ytick_15"/>
    <g id="ytick_16"/>
   </g>
   <g id="patch_21">
    <path clip-path="url(#pc910cabf6d)" d="M 598.514732 580.503039 
L 601.738392 580.503039 
L 601.738392 560.992638 
L 598.514732 560.992638 
z
" style="fill:#96c69a;fill-opacity:0.5;stroke:#ffffff;stroke-linejoin:miter;stroke-width:1.95104;"/>
   </g>
   <g id="patch_22">
    <path clip-path="url(#pc910cabf6d)" d="M 598.514732 560.992638 
L 606.251517 560.992638 
L 606.251517 541.482237 
L 598.514732 541.482237 
z
" style="fill:#96c69a;fill-opacity:0.5;stroke:#ffffff;stroke-linejoin:miter;stroke-width:1.95104;"/>
   </g>
   <g id="patch_23">
    <path clip-path="url(#pc910cabf6d)" d="M 598.514732 541.482237 
L 606.896249 541.482237 
L 606.896249 521.971836 
L 598.514732 521.971836 
z
" style="fill:#96c69a;fill-opacity:0.5;stroke:#ffffff;stroke-linejoin:miter;stroke-width:1.95104;"/>
   </g>
   <g id="patch_24">
    <path clip-path="url(#pc910cabf6d)" d="M 598.514732 521.971836 
L 613.343569 521.971836 
L 613.343569 502.461435 
L 598.514732 502.461435 
z
" style="fill:#96c69a;fill-opacity:0.5;stroke:#ffffff;stroke-linejoin:miter;stroke-width:1.95104;"/>
   </g>
   <g id="patch_25">
    <path clip-path="url(#pc910cabf6d)" d="M 598.514732 502.461435 
L 624.948746 502.461435 
L 624.948746 482.951034 
L 598.514732 482.951034 
z
" style="fill:#96c69a;fill-opacity:0.5;stroke:#ffffff;stroke-linejoin:miter;stroke-width:1.95104;"/>
   </g>
   <g id="patch_26">
    <path clip-path="url(#pc910cabf6d)" d="M 598.514732 482.951034 
L 634.619726 482.951034 
L 634.619726 463.440634 
L 598.514732 463.440634 
z
" style="fill:#96c69a;fill-opacity:0.5;stroke:#ffffff;stroke-linejoin:miter;stroke-width:1.95104;"/>
   </g>
   <g id="patch_27">
    <path clip-path="url(#pc910cabf6d)" d="M 598.514732 463.440634 
L 639.777583 463.440634 
L 639.777583 443.930233 
L 598.514732 443.930233 
z
" style="fill:#96c69a;fill-opacity:0.5;stroke:#ffffff;stroke-linejoin:miter;stroke-width:1.95104;"/>
   </g>
   <g id="patch_28">
    <path clip-path="url(#pc910cabf6d)" d="M 598.514732 443.930233 
L 661.698472 443.930233 
L 661.698472 424.419832 
L 598.514732 424.419832 
z
" style="fill:#96c69a;fill-opacity:0.5;stroke:#ffffff;stroke-linejoin:miter;stroke-width:1.95104;"/>
   </g>
   <g id="patch_29">
    <path clip-path="url(#pc910cabf6d)" d="M 598.514732 424.419832 
L 677.816773 424.419832 
L 677.816773 404.909431 
L 598.514732 404.909431 
z
" style="fill:#96c69a;fill-opacity:0.5;stroke:#ffffff;stroke-linejoin:miter;stroke-width:1.95104;"/>
   </g>
   <g id="patch_30">
    <path clip-path="url(#pc910cabf6d)" d="M 598.514732 404.909431 
L 657.83008 404.909431 
L 657.83008 385.39903 
L 598.514732 385.39903 
z
" style="fill:#96c69a;fill-opacity:0.5;stroke:#ffffff;stroke-linejoin:miter;stroke-width:1.95104;"/>
   </g>
   <g id="patch_31">
    <path clip-path="url(#pc910cabf6d)" d="M 598.514732 385.39903 
L 661.698472 385.39903 
L 661.698472 365.888629 
L 598.514732 365.888629 
z
" style="fill:#96c69a;fill-opacity:0.5;stroke:#ffffff;stroke-linejoin:miter;stroke-width:1.95104;"/>
   </g>
   <g id="patch_32">
    <path clip-path="url(#pc910cabf6d)" d="M 598.514732 365.888629 
L 654.60642 365.888629 
L 654.60642 346.378228 
L 598.514732 346.378228 
z
" style="fill:#96c69a;fill-opacity:0.5;stroke:#ffffff;stroke-linejoin:miter;stroke-width:1.95104;"/>
   </g>
   <g id="patch_33">
    <path clip-path="url(#pc910cabf6d)" d="M 598.514732 346.378228 
L 657.185348 346.378228 
L 657.185348 326.867827 
L 598.514732 326.867827 
z
" style="fill:#96c69a;fill-opacity:0.5;stroke:#ffffff;stroke-linejoin:miter;stroke-width:1.95104;"/>
   </g>
   <g id="patch_34">
    <path clip-path="url(#pc910cabf6d)" d="M 598.514732 326.867827 
L 635.90919 326.867827 
L 635.90919 307.357426 
L 598.514732 307.357426 
z
" style="fill:#96c69a;fill-opacity:0.5;stroke:#ffffff;stroke-linejoin:miter;stroke-width:1.95104;"/>
   </g>
   <g id="patch_35">
    <path clip-path="url(#pc910cabf6d)" d="M 598.514732 307.357426 
L 630.106602 307.357426 
L 630.106602 287.847025 
L 598.514732 287.847025 
z
" style="fill:#96c69a;fill-opacity:0.5;stroke:#ffffff;stroke-linejoin:miter;stroke-width:1.95104;"/>
   </g>
   <g id="patch_36">
    <path clip-path="url(#pc910cabf6d)" d="M 598.514732 287.847025 
L 621.080354 287.847025 
L 621.080354 268.336625 
L 598.514732 268.336625 
z
" style="fill:#96c69a;fill-opacity:0.5;stroke:#ffffff;stroke-linejoin:miter;stroke-width:1.95104;"/>
   </g>
   <g id="patch_37">
    <path clip-path="url(#pc910cabf6d)" d="M 598.514732 268.336625 
L 612.054105 268.336625 
L 612.054105 248.826224 
L 598.514732 248.826224 
z
" style="fill:#96c69a;fill-opacity:0.5;stroke:#ffffff;stroke-linejoin:miter;stroke-width:1.95104;"/>
   </g>
   <g id="patch_38">
    <path clip-path="url(#pc910cabf6d)" d="M 598.514732 248.826224 
L 607.540981 248.826224 
L 607.540981 229.315823 
L 598.514732 229.315823 
z
" style="fill:#96c69a;fill-opacity:0.5;stroke:#ffffff;stroke-linejoin:miter;stroke-width:1.95104;"/>
   </g>
   <g id="patch_39">
    <path clip-path="url(#pc910cabf6d)" d="M 598.514732 229.315823 
L 601.738392 229.315823 
L 601.738392 209.805422 
L 598.514732 209.805422 
z
" style="fill:#96c69a;fill-opacity:0.5;stroke:#ffffff;stroke-linejoin:miter;stroke-width:1.95104;"/>
   </g>
   <g id="patch_40">
    <path clip-path="url(#pc910cabf6d)" d="M 598.514732 209.805422 
L 601.738392 209.805422 
L 601.738392 190.295021 
L 598.514732 190.295021 
z
" style="fill:#96c69a;fill-opacity:0.5;stroke:#ffffff;stroke-linejoin:miter;stroke-width:1.95104;"/>
   </g>
   <g id="patch_41">
    <path clip-path="url(#pc910cabf6d)" d="M 598.514732 190.295021 
L 599.804196 190.295021 
L 599.804196 170.78462 
L 598.514732 170.78462 
z
" style="fill:#96c69a;fill-opacity:0.5;stroke:#ffffff;stroke-linejoin:miter;stroke-width:1.95104;"/>
   </g>
   <g id="patch_42">
    <path clip-path="url(#pc910cabf6d)" d="M 598.514732 170.78462 
L 601.09366 170.78462 
L 601.09366 151.274219 
L 598.514732 151.274219 
z
" style="fill:#96c69a;fill-opacity:0.5;stroke:#ffffff;stroke-linejoin:miter;stroke-width:1.95104;"/>
   </g>
   <g id="patch_43">
    <path clip-path="url(#pc910cabf6d)" d="M 598.514732 151.274219 
L 601.09366 151.274219 
L 601.09366 131.763818 
L 598.514732 131.763818 
z
" style="fill:#96c69a;fill-opacity:0.5;stroke:#ffffff;stroke-linejoin:miter;stroke-width:1.95104;"/>
   </g>
   <g id="patch_44">
    <path d="M 598.514732 602.94 
L 598.514732 109.326857 
" style="fill:none;stroke:#262626;stroke-linecap:square;stroke-linejoin:miter;stroke-width:2.5;"/>
   </g>
   <g id="patch_45">
    <path d="M 598.514732 602.94 
L 681.781875 602.94 
" style="fill:none;stroke:#262626;stroke-linecap:square;stroke-linejoin:miter;stroke-width:2.5;"/>
   </g>
  </g>
 </g>
 <defs>
  <clipPath id="pe62a770367">
   <rect height="493.613143" width="482.949429" x="98.911875" y="109.326857"/>
  </clipPath>
  <clipPath id="p32d38b0b26">
   <rect height="85.105714" width="482.949429" x="98.911875" y="7.2"/>
  </clipPath>
  <clipPath id="pc910cabf6d">
   <rect height="493.613143" width="83.267143" x="598.514732" y="109.326857"/>
  </clipPath>
 </defs>
</svg>
