<?xml version="1.0" encoding="utf-8" standalone="no"?>
<!DOCTYPE svg PUBLIC "-//W3C//DTD SVG 1.1//EN"
  "http://www.w3.org/Graphics/SVG/1.1/DTD/svg11.dtd">
<svg height="674.159375pt" version="1.1" viewBox="0 0 674.984375 674.159375" width="674.984375pt" xmlns="http://www.w3.org/2000/svg" xmlns:xlink="http://www.w3.org/1999/xlink">
 <metadata>
  <rdf:RDF xmlns:cc="http://creativecommons.org/ns#" xmlns:dc="http://purl.org/dc/elements/1.1/" xmlns:rdf="http://www.w3.org/1999/02/22-rdf-syntax-ns#">
   <cc:Work>
    <dc:type rdf:resource="http://purl.org/dc/dcmitype/StillImage"/>
    <dc:date>2021-07-24T14:50:44.924472</dc:date>
    <dc:format>image/svg+xml</dc:format>
    <dc:creator>
     <cc:Agent>
      <dc:title>Matplotlib v3.4.2, https://matplotlib.org/</dc:title>
     </cc:Agent>
    </dc:creator>
   </cc:Work>
  </rdf:RDF>
 </metadata>
 <defs>
  <style type="text/css">*{stroke-linecap:butt;stroke-linejoin:round;}</style>
 </defs>
 <g id="figure_1">
  <g id="patch_1">
   <path d="M 0 674.159375 
L 674.984375 674.159375 
L 674.984375 0 
L 0 0 
z
" style="fill:#ffffff;"/>
  </g>
  <g id="axes_1">
   <g id="patch_2">
    <path d="M 84.914375 602.94 
L 567.863804 602.94 
L 567.863804 109.326857 
L 84.914375 109.326857 
z
" style="fill:none;"/>
   </g>
   <g id="matplotlib.axis_1">
    <g id="xtick_1">
     <g id="text_1">
      <!-- 0 -->
      <g style="fill:#262626;" transform="translate(99.648239 635.156562)scale(0.22 -0.22)">
       <defs>
        <path d="M 2034 4250 
Q 1547 4250 1301 3770 
Q 1056 3291 1056 2328 
Q 1056 1369 1301 889 
Q 1547 409 2034 409 
Q 2525 409 2770 889 
Q 3016 1369 3016 2328 
Q 3016 3291 2770 3770 
Q 2525 4250 2034 4250 
z
M 2034 4750 
Q 2819 4750 3233 4129 
Q 3647 3509 3647 2328 
Q 3647 1150 3233 529 
Q 2819 -91 2034 -91 
Q 1250 -91 836 529 
Q 422 1150 422 2328 
Q 422 3509 836 4129 
Q 1250 4750 2034 4750 
z
" id="DejaVuSans-30" transform="scale(0.015625)"/>
       </defs>
       <use xlink:href="#DejaVuSans-30"/>
      </g>
     </g>
    </g>
    <g id="xtick_2">
     <g id="text_2">
      <!-- 20000 -->
      <g style="fill:#262626;" transform="translate(159.506153 635.156562)scale(0.22 -0.22)">
       <defs>
        <path d="M 1228 531 
L 3431 531 
L 3431 0 
L 469 0 
L 469 531 
Q 828 903 1448 1529 
Q 2069 2156 2228 2338 
Q 2531 2678 2651 2914 
Q 2772 3150 2772 3378 
Q 2772 3750 2511 3984 
Q 2250 4219 1831 4219 
Q 1534 4219 1204 4116 
Q 875 4013 500 3803 
L 500 4441 
Q 881 4594 1212 4672 
Q 1544 4750 1819 4750 
Q 2544 4750 2975 4387 
Q 3406 4025 3406 3419 
Q 3406 3131 3298 2873 
Q 3191 2616 2906 2266 
Q 2828 2175 2409 1742 
Q 1991 1309 1228 531 
z
" id="DejaVuSans-32" transform="scale(0.015625)"/>
       </defs>
       <use xlink:href="#DejaVuSans-32"/>
       <use x="63.623047" xlink:href="#DejaVuSans-30"/>
       <use x="127.246094" xlink:href="#DejaVuSans-30"/>
       <use x="190.869141" xlink:href="#DejaVuSans-30"/>
       <use x="254.492188" xlink:href="#DejaVuSans-30"/>
      </g>
     </g>
    </g>
    <g id="xtick_3">
     <g id="text_3">
      <!-- 40000 -->
      <g style="fill:#262626;" transform="translate(247.359066 635.156562)scale(0.22 -0.22)">
       <defs>
        <path d="M 2419 4116 
L 825 1625 
L 2419 1625 
L 2419 4116 
z
M 2253 4666 
L 3047 4666 
L 3047 1625 
L 3713 1625 
L 3713 1100 
L 3047 1100 
L 3047 0 
L 2419 0 
L 2419 1100 
L 313 1100 
L 313 1709 
L 2253 4666 
z
" id="DejaVuSans-34" transform="scale(0.015625)"/>
       </defs>
       <use xlink:href="#DejaVuSans-34"/>
       <use x="63.623047" xlink:href="#DejaVuSans-30"/>
       <use x="127.246094" xlink:href="#DejaVuSans-30"/>
       <use x="190.869141" xlink:href="#DejaVuSans-30"/>
       <use x="254.492188" xlink:href="#DejaVuSans-30"/>
      </g>
     </g>
    </g>
    <g id="xtick_4">
     <g id="text_4">
      <!-- 60000 -->
      <g style="fill:#262626;" transform="translate(335.21198 635.156562)scale(0.22 -0.22)">
       <defs>
        <path d="M 2113 2584 
Q 1688 2584 1439 2293 
Q 1191 2003 1191 1497 
Q 1191 994 1439 701 
Q 1688 409 2113 409 
Q 2538 409 2786 701 
Q 3034 994 3034 1497 
Q 3034 2003 2786 2293 
Q 2538 2584 2113 2584 
z
M 3366 4563 
L 3366 3988 
Q 3128 4100 2886 4159 
Q 2644 4219 2406 4219 
Q 1781 4219 1451 3797 
Q 1122 3375 1075 2522 
Q 1259 2794 1537 2939 
Q 1816 3084 2150 3084 
Q 2853 3084 3261 2657 
Q 3669 2231 3669 1497 
Q 3669 778 3244 343 
Q 2819 -91 2113 -91 
Q 1303 -91 875 529 
Q 447 1150 447 2328 
Q 447 3434 972 4092 
Q 1497 4750 2381 4750 
Q 2619 4750 2861 4703 
Q 3103 4656 3366 4563 
z
" id="DejaVuSans-36" transform="scale(0.015625)"/>
       </defs>
       <use xlink:href="#DejaVuSans-36"/>
       <use x="63.623047" xlink:href="#DejaVuSans-30"/>
       <use x="127.246094" xlink:href="#DejaVuSans-30"/>
       <use x="190.869141" xlink:href="#DejaVuSans-30"/>
       <use x="254.492188" xlink:href="#DejaVuSans-30"/>
      </g>
     </g>
    </g>
    <g id="xtick_5">
     <g id="text_5">
      <!-- 80000 -->
      <g style="fill:#262626;" transform="translate(423.064893 635.156562)scale(0.22 -0.22)">
       <defs>
        <path d="M 2034 2216 
Q 1584 2216 1326 1975 
Q 1069 1734 1069 1313 
Q 1069 891 1326 650 
Q 1584 409 2034 409 
Q 2484 409 2743 651 
Q 3003 894 3003 1313 
Q 3003 1734 2745 1975 
Q 2488 2216 2034 2216 
z
M 1403 2484 
Q 997 2584 770 2862 
Q 544 3141 544 3541 
Q 544 4100 942 4425 
Q 1341 4750 2034 4750 
Q 2731 4750 3128 4425 
Q 3525 4100 3525 3541 
Q 3525 3141 3298 2862 
Q 3072 2584 2669 2484 
Q 3125 2378 3379 2068 
Q 3634 1759 3634 1313 
Q 3634 634 3220 271 
Q 2806 -91 2034 -91 
Q 1263 -91 848 271 
Q 434 634 434 1313 
Q 434 1759 690 2068 
Q 947 2378 1403 2484 
z
M 1172 3481 
Q 1172 3119 1398 2916 
Q 1625 2713 2034 2713 
Q 2441 2713 2670 2916 
Q 2900 3119 2900 3481 
Q 2900 3844 2670 4047 
Q 2441 4250 2034 4250 
Q 1625 4250 1398 4047 
Q 1172 3844 1172 3481 
z
" id="DejaVuSans-38" transform="scale(0.015625)"/>
       </defs>
       <use xlink:href="#DejaVuSans-38"/>
       <use x="63.623047" xlink:href="#DejaVuSans-30"/>
       <use x="127.246094" xlink:href="#DejaVuSans-30"/>
       <use x="190.869141" xlink:href="#DejaVuSans-30"/>
       <use x="254.492188" xlink:href="#DejaVuSans-30"/>
      </g>
     </g>
    </g>
    <g id="xtick_6">
     <g id="text_6">
      <!-- 100000 -->
      <g style="fill:#262626;" transform="translate(503.919057 635.156562)scale(0.22 -0.22)">
       <defs>
        <path d="M 794 531 
L 1825 531 
L 1825 4091 
L 703 3866 
L 703 4441 
L 1819 4666 
L 2450 4666 
L 2450 531 
L 3481 531 
L 3481 0 
L 794 0 
L 794 531 
z
" id="DejaVuSans-31" transform="scale(0.015625)"/>
       </defs>
       <use xlink:href="#DejaVuSans-31"/>
       <use x="63.623047" xlink:href="#DejaVuSans-30"/>
       <use x="127.246094" xlink:href="#DejaVuSans-30"/>
       <use x="190.869141" xlink:href="#DejaVuSans-30"/>
       <use x="254.492188" xlink:href="#DejaVuSans-30"/>
       <use x="318.115234" xlink:href="#DejaVuSans-30"/>
      </g>
     </g>
    </g>
    <g id="text_7">
     <!-- MDTU -->
     <g style="fill:#262626;" transform="translate(290.683464 661.968125)scale(0.24 -0.24)">
      <defs>
       <path d="M 628 4666 
L 1569 4666 
L 2759 1491 
L 3956 4666 
L 4897 4666 
L 4897 0 
L 4281 0 
L 4281 4097 
L 3078 897 
L 2444 897 
L 1241 4097 
L 1241 0 
L 628 0 
L 628 4666 
z
" id="DejaVuSans-4d" transform="scale(0.015625)"/>
       <path d="M 1259 4147 
L 1259 519 
L 2022 519 
Q 2988 519 3436 956 
Q 3884 1394 3884 2338 
Q 3884 3275 3436 3711 
Q 2988 4147 2022 4147 
L 1259 4147 
z
M 628 4666 
L 1925 4666 
Q 3281 4666 3915 4102 
Q 4550 3538 4550 2338 
Q 4550 1131 3912 565 
Q 3275 0 1925 0 
L 628 0 
L 628 4666 
z
" id="DejaVuSans-44" transform="scale(0.015625)"/>
       <path d="M -19 4666 
L 3928 4666 
L 3928 4134 
L 2272 4134 
L 2272 0 
L 1638 0 
L 1638 4134 
L -19 4134 
L -19 4666 
z
" id="DejaVuSans-54" transform="scale(0.015625)"/>
       <path d="M 556 4666 
L 1191 4666 
L 1191 1831 
Q 1191 1081 1462 751 
Q 1734 422 2344 422 
Q 2950 422 3222 751 
Q 3494 1081 3494 1831 
L 3494 4666 
L 4128 4666 
L 4128 1753 
Q 4128 841 3676 375 
Q 3225 -91 2344 -91 
Q 1459 -91 1007 375 
Q 556 841 556 1753 
L 556 4666 
z
" id="DejaVuSans-55" transform="scale(0.015625)"/>
      </defs>
      <use xlink:href="#DejaVuSans-4d"/>
      <use x="86.279297" xlink:href="#DejaVuSans-44"/>
      <use x="163.28125" xlink:href="#DejaVuSans-54"/>
      <use x="224.365234" xlink:href="#DejaVuSans-55"/>
     </g>
    </g>
   </g>
   <g id="matplotlib.axis_2">
    <g id="ytick_1">
     <g id="text_8">
      <!-- 0.4 -->
      <g style="fill:#262626;" transform="translate(34.4275 598.439251)scale(0.22 -0.22)">
       <defs>
        <path d="M 684 794 
L 1344 794 
L 1344 0 
L 684 0 
L 684 794 
z
" id="DejaVuSans-2e" transform="scale(0.015625)"/>
       </defs>
       <use xlink:href="#DejaVuSans-30"/>
       <use x="63.623047" xlink:href="#DejaVuSans-2e"/>
       <use x="95.410156" xlink:href="#DejaVuSans-34"/>
      </g>
     </g>
    </g>
    <g id="ytick_2">
     <g id="text_9">
      <!-- 0.6 -->
      <g style="fill:#262626;" transform="translate(34.4275 540.846443)scale(0.22 -0.22)">
       <use xlink:href="#DejaVuSans-30"/>
       <use x="63.623047" xlink:href="#DejaVuSans-2e"/>
       <use x="95.410156" xlink:href="#DejaVuSans-36"/>
      </g>
     </g>
    </g>
    <g id="ytick_3">
     <g id="text_10">
      <!-- 0.8 -->
      <g style="fill:#262626;" transform="translate(34.4275 483.253634)scale(0.22 -0.22)">
       <use xlink:href="#DejaVuSans-30"/>
       <use x="63.623047" xlink:href="#DejaVuSans-2e"/>
       <use x="95.410156" xlink:href="#DejaVuSans-38"/>
      </g>
     </g>
    </g>
    <g id="ytick_4">
     <g id="text_11">
      <!-- 1.0 -->
      <g style="fill:#262626;" transform="translate(34.4275 425.660826)scale(0.22 -0.22)">
       <use xlink:href="#DejaVuSans-31"/>
       <use x="63.623047" xlink:href="#DejaVuSans-2e"/>
       <use x="95.410156" xlink:href="#DejaVuSans-30"/>
      </g>
     </g>
    </g>
    <g id="ytick_5">
     <g id="text_12">
      <!-- 1.2 -->
      <g style="fill:#262626;" transform="translate(34.4275 368.068018)scale(0.22 -0.22)">
       <use xlink:href="#DejaVuSans-31"/>
       <use x="63.623047" xlink:href="#DejaVuSans-2e"/>
       <use x="95.410156" xlink:href="#DejaVuSans-32"/>
      </g>
     </g>
    </g>
    <g id="ytick_6">
     <g id="text_13">
      <!-- 1.4 -->
      <g style="fill:#262626;" transform="translate(34.4275 310.47521)scale(0.22 -0.22)">
       <use xlink:href="#DejaVuSans-31"/>
       <use x="63.623047" xlink:href="#DejaVuSans-2e"/>
       <use x="95.410156" xlink:href="#DejaVuSans-34"/>
      </g>
     </g>
    </g>
    <g id="ytick_7">
     <g id="text_14">
      <!-- 1.6 -->
      <g style="fill:#262626;" transform="translate(34.4275 252.882402)scale(0.22 -0.22)">
       <use xlink:href="#DejaVuSans-31"/>
       <use x="63.623047" xlink:href="#DejaVuSans-2e"/>
       <use x="95.410156" xlink:href="#DejaVuSans-36"/>
      </g>
     </g>
    </g>
    <g id="ytick_8">
     <g id="text_15">
      <!-- 1.8 -->
      <g style="fill:#262626;" transform="translate(34.4275 195.289594)scale(0.22 -0.22)">
       <use xlink:href="#DejaVuSans-31"/>
       <use x="63.623047" xlink:href="#DejaVuSans-2e"/>
       <use x="95.410156" xlink:href="#DejaVuSans-38"/>
      </g>
     </g>
    </g>
    <g id="ytick_9">
     <g id="text_16">
      <!-- 2.0 -->
      <g style="fill:#262626;" transform="translate(34.4275 137.696786)scale(0.22 -0.22)">
       <use xlink:href="#DejaVuSans-32"/>
       <use x="63.623047" xlink:href="#DejaVuSans-2e"/>
       <use x="95.410156" xlink:href="#DejaVuSans-30"/>
      </g>
     </g>
    </g>
    <g id="text_17">
     <!-- $E$ -->
     <g style="fill:#262626;" transform="translate(25.43625 363.813429)rotate(-90)scale(0.24 -0.24)">
      <defs>
       <path d="M 1081 4666 
L 4031 4666 
L 3928 4134 
L 1606 4134 
L 1338 2753 
L 3566 2753 
L 3463 2222 
L 1234 2222 
L 909 531 
L 3284 531 
L 3181 0 
L 172 0 
L 1081 4666 
z
" id="DejaVuSans-Oblique-45" transform="scale(0.015625)"/>
      </defs>
      <use transform="translate(0 0.09375)" xlink:href="#DejaVuSans-Oblique-45"/>
     </g>
    </g>
   </g>
   <g id="line2d_1">
    <path clip-path="url(#p1ed2833e00)" d="M 111.259267 468.101652 
L 111.4789 435.736869 
L 111.698532 377.859583 
L 111.918164 176.044099 
L 112.137797 454.865132 
L 112.796693 378.007399 
L 113.016326 539.589252 
L 113.45559 384.705369 
L 113.894855 500.205078 
L 114.114487 456.188894 
L 114.334119 517.653566 
L 114.553752 453.399142 
L 114.773384 486.497479 
L 114.993016 470.033251 
L 115.212649 385.316016 
L 115.432281 507.055088 
L 115.651913 413.943111 
L 115.871545 403.638881 
L 116.091178 404.370777 
L 116.31081 233.319626 
L 116.530442 401.661394 
L 116.750075 483.571997 
L 116.969707 504.101908 
L 117.189339 420.074117 
L 117.408971 473.72551 
L 117.628604 283.285938 
L 117.848236 489.695162 
L 118.067868 450.947595 
L 118.287501 497.531852 
L 118.726765 329.914574 
L 118.946397 481.406342 
L 119.16603 514.568296 
L 119.385662 395.210403 
L 119.605294 422.550366 
L 119.824926 427.219843 
L 120.044559 310.216678 
L 120.264191 469.701732 
L 120.483823 474.470971 
L 120.703456 386.336183 
L 120.923088 470.203854 
L 121.14272 387.340672 
L 121.362352 476.286168 
L 121.581985 399.481908 
L 121.801617 475.218463 
L 122.021249 394.098657 
L 122.240882 396.457164 
L 122.460514 418.948962 
L 122.680146 467.549665 
L 122.899778 355.13424 
L 123.119411 418.687387 
L 123.339043 442.763354 
L 123.558675 450.080468 
L 123.778308 340.933375 
L 123.99794 447.036701 
L 124.217572 395.320021 
L 124.437204 460.012829 
L 124.656837 433.197396 
L 124.876469 320.804429 
L 125.096101 451.321178 
L 125.315734 495.600121 
L 125.535366 410.254688 
L 125.754998 467.475131 
L 125.97463 482.875685 
L 126.194263 387.249737 
L 126.413895 510.062026 
L 126.633527 393.874564 
L 126.85316 371.706194 
L 127.072792 382.915827 
L 127.512056 450.952164 
L 127.731689 431.090609 
L 127.951321 443.00467 
L 128.170953 197.515532 
L 128.390586 441.467229 
L 128.610218 455.426454 
L 128.82985 461.183351 
L 129.049482 519.014559 
L 129.269115 464.437092 
L 129.488747 351.95478 
L 129.708379 477.068936 
L 129.928012 453.25342 
L 130.147644 404.689726 
L 130.367276 396.633958 
L 130.586908 453.350784 
L 130.806541 458.790353 
L 131.245805 341.59183 
L 131.465438 518.030571 
L 131.68507 525.531022 
L 131.904702 473.222039 
L 132.124334 315.753363 
L 132.343967 511.038734 
L 132.563599 458.157903 
L 132.783231 332.162164 
L 133.002864 419.310616 
L 133.222496 400.392591 
L 133.442128 471.928477 
L 133.66176 402.730153 
L 133.881393 372.907416 
L 134.101025 509.034304 
L 134.320657 419.41706 
L 134.540289 444.149826 
L 134.759922 425.425385 
L 135.199186 328.82436 
L 135.418819 454.133749 
L 135.638451 424.728815 
L 135.858083 507.304258 
L 136.297348 447.823675 
L 136.51698 452.398566 
L 136.736612 516.041162 
L 137.175877 412.67796 
L 137.395509 489.667226 
L 137.615141 451.679854 
L 137.834774 451.456039 
L 138.054406 492.87311 
L 138.493671 430.154912 
L 138.932935 500.887027 
L 139.3722 376.772033 
L 139.591832 410.901546 
L 139.811464 512.235187 
L 140.031097 417.202278 
L 140.250729 404.205275 
L 140.470361 456.107794 
L 140.689993 370.145624 
L 141.129258 511.223975 
L 141.34889 381.421644 
L 141.568523 430.072867 
L 141.788155 443.879042 
L 142.007787 423.550111 
L 142.227419 430.403549 
L 142.447052 420.877651 
L 142.666684 425.756948 
L 142.886316 318.893369 
L 143.105949 439.576131 
L 143.325581 416.806179 
L 143.545213 322.354132 
L 143.764845 438.355713 
L 143.984478 469.750346 
L 144.20411 463.688023 
L 144.423742 464.656286 
L 144.643375 520.466213 
L 144.863007 476.288524 
L 145.082639 381.133702 
L 145.302271 468.729789 
L 145.741536 339.739542 
L 145.961168 439.030913 
L 146.180801 452.019084 
L 146.400433 411.712586 
L 146.620065 399.770725 
L 147.05933 494.156115 
L 147.278962 445.441139 
L 147.498594 435.936684 
L 147.718227 432.281489 
L 147.937859 458.340486 
L 148.157491 357.991082 
L 148.377123 452.558931 
L 148.596756 468.204918 
L 148.816388 498.173436 
L 149.03602 469.670688 
L 149.255653 479.159936 
L 149.475285 388.054843 
L 149.694917 473.302303 
L 149.914549 406.444723 
L 150.134182 242.792807 
L 150.573446 461.309775 
L 150.793078 427.030125 
L 151.012711 354.087268 
L 151.451975 464.08105 
L 151.671608 381.676786 
L 151.89124 499.666497 
L 152.330504 445.12125 
L 152.769769 401.439522 
L 152.989401 479.728352 
L 153.209034 445.931588 
L 153.428666 486.256312 
L 153.648298 492.773569 
L 153.86793 449.35711 
L 154.087563 444.557783 
L 154.307195 392.277459 
L 154.74646 487.867188 
L 154.966092 390.487793 
L 155.405356 503.618688 
L 155.844621 420.226822 
L 156.064253 526.760661 
L 156.283886 410.51326 
L 156.503518 359.932145 
L 156.72315 522.193816 
L 157.162415 466.71792 
L 157.382047 524.151167 
L 157.601679 420.725435 
L 158.040944 354.71639 
L 158.260576 499.25179 
L 158.699841 460.712111 
L 158.919473 410.190397 
L 159.139105 474.981096 
L 159.358738 461.120301 
L 159.57837 428.441433 
L 159.798002 435.986759 
L 160.017634 484.923296 
L 160.237267 566.094799 
L 160.676531 387.853495 
L 160.896164 378.003826 
L 161.335428 485.845643 
L 161.55506 487.334947 
L 161.994325 236.942481 
L 162.213957 443.615377 
L 162.43359 492.981453 
L 162.653222 413.431715 
L 162.872854 449.181793 
L 163.092486 462.984048 
L 163.312119 383.259073 
L 163.531751 418.609878 
L 163.751383 428.050945 
L 163.971016 488.596079 
L 164.190648 424.575882 
L 164.41028 449.130406 
L 164.629912 456.976728 
L 164.849545 501.238235 
L 165.069177 366.748967 
L 165.288809 418.927709 
L 165.508441 369.356378 
L 165.728074 536.495853 
L 165.947706 509.485513 
L 166.167338 516.198065 
L 166.386971 382.450205 
L 167.045867 578.976427 
L 167.2655 446.773945 
L 167.485132 407.555261 
L 167.704764 347.952198 
L 167.924397 457.340845 
L 168.144029 372.389961 
L 168.363661 409.76273 
L 168.583293 483.127413 
L 168.802926 358.443528 
L 169.022558 505.155483 
L 169.24219 373.529377 
L 169.461823 513.627441 
L 169.901087 458.47973 
L 170.120719 506.049424 
L 170.340352 417.823143 
L 170.559984 410.665058 
L 170.779616 507.420053 
L 170.999249 441.848764 
L 171.218881 499.15262 
L 171.438513 525.495533 
L 171.658145 455.338759 
L 171.877778 474.979333 
L 172.09741 467.005974 
L 172.317042 403.894097 
L 172.536675 510.275623 
L 172.756307 384.098386 
L 172.975939 490.265274 
L 173.415204 414.310717 
L 173.634836 486.070268 
L 173.854468 495.399965 
L 174.074101 327.90335 
L 174.732997 527.01065 
L 174.95263 370.861761 
L 175.172262 345.754497 
L 175.391894 504.807602 
L 175.831159 402.805786 
L 176.050791 427.643527 
L 176.270423 427.159537 
L 176.490056 421.534953 
L 176.709688 537.987325 
L 176.92932 500.367364 
L 177.148953 502.188111 
L 177.368585 420.537526 
L 177.588217 506.000737 
L 178.027482 413.885152 
L 178.247114 507.780677 
L 178.466746 324.444905 
L 178.906011 491.067652 
L 179.125643 493.293364 
L 179.345275 389.255928 
L 179.564908 399.408649 
L 179.78454 428.819517 
L 180.004172 411.659701 
L 180.223805 470.719517 
L 180.443437 420.315997 
L 180.663069 457.125333 
L 180.882701 391.507957 
L 181.102334 402.868739 
L 181.321966 515.028648 
L 181.541598 309.216867 
L 181.76123 470.147034 
L 181.980863 384.512107 
L 182.200495 508.013991 
L 182.420127 403.097038 
L 182.63976 437.512829 
L 182.859392 364.30313 
L 183.079024 200.574608 
L 183.298656 339.156331 
L 183.518289 340.365439 
L 183.737921 431.644389 
L 183.957553 436.298763 
L 184.177186 482.604379 
L 184.396818 467.949493 
L 184.61645 294.45963 
L 184.836082 390.300352 
L 185.055715 434.364183 
L 185.275347 403.472627 
L 185.494979 391.456597 
L 185.714612 411.322674 
L 185.934244 461.927916 
L 186.153876 422.686657 
L 186.373508 431.174012 
L 186.593141 512.628125 
L 186.812773 501.487768 
L 187.032405 524.898913 
L 187.252038 438.93395 
L 187.691302 509.911188 
L 187.910934 346.445458 
L 188.350199 470.625432 
L 188.569831 437.273063 
L 188.789464 439.908947 
L 189.009096 435.570468 
L 189.228728 457.999513 
L 189.44836 492.052958 
L 189.667993 390.816388 
L 189.887625 448.25678 
L 190.107257 382.863149 
L 190.32689 357.92642 
L 190.546522 433.698434 
L 190.766154 434.590346 
L 190.985786 452.413537 
L 191.205419 442.343129 
L 191.425051 479.829936 
L 191.644683 418.297982 
L 191.864316 456.097275 
L 192.083948 554.860585 
L 192.30358 471.317673 
L 192.523212 489.81066 
L 192.742845 417.613314 
L 192.962477 477.651757 
L 193.182109 423.689985 
L 193.401742 497.335668 
L 193.621374 410.504881 
L 193.841006 383.991044 
L 194.060638 399.587387 
L 194.280271 181.950826 
L 194.719535 400.490712 
L 194.939168 406.092945 
L 195.1588 359.089353 
L 195.378432 491.649948 
L 195.598064 503.111284 
L 195.817697 524.635736 
L 196.256961 464.43483 
L 196.476593 402.557051 
L 196.696226 513.300655 
L 197.13549 430.755444 
L 197.355123 410.012029 
L 197.574755 507.625688 
L 197.794387 418.349558 
L 198.233652 438.234456 
L 198.453284 281.957753 
L 198.672916 232.528069 
L 198.892549 504.203033 
L 199.112181 363.153542 
L 199.331813 346.056995 
L 199.551445 364.090051 
L 199.771078 483.145114 
L 199.99071 323.581492 
L 200.210342 551.318641 
L 200.649607 452.636289 
L 200.869239 484.299432 
L 201.088871 397.81018 
L 201.308504 508.689357 
L 201.528136 377.345764 
L 201.747768 331.655578 
L 201.967401 479.441095 
L 202.406665 432.247062 
L 202.626297 352.609468 
L 202.84593 319.292365 
L 203.065562 372.172875 
L 203.285194 351.735977 
L 203.504827 511.349201 
L 203.724459 425.739954 
L 203.944091 537.870096 
L 204.163723 397.916179 
L 204.383356 493.701343 
L 204.602988 379.227025 
L 204.82262 436.927616 
L 205.042253 429.546 
L 205.261885 445.710948 
L 205.481517 484.712434 
L 205.701149 479.43252 
L 206.140414 357.346188 
L 206.360046 478.300024 
L 206.579679 468.550078 
L 206.799311 402.168627 
L 207.018943 434.190609 
L 207.238575 347.238095 
L 207.67784 507.414982 
L 207.897472 388.721512 
L 208.117105 386.140061 
L 208.336737 516.034579 
L 208.556369 489.018539 
L 208.776001 494.107434 
L 208.995634 426.773021 
L 209.215266 486.575906 
L 209.434898 500.009032 
L 209.654531 482.436032 
L 209.874163 494.58252 
L 210.093795 436.493499 
L 210.313427 458.305526 
L 210.53306 301.739633 
L 210.752692 340.980976 
L 210.972324 442.980913 
L 211.191956 456.969289 
L 211.411589 510.754441 
L 211.631221 504.618573 
L 211.850853 492.156166 
L 212.070486 504.365607 
L 212.290118 427.360757 
L 212.50975 435.108006 
L 212.729382 416.642875 
L 212.949015 464.553868 
L 213.168647 401.435475 
L 213.388279 435.609057 
L 213.607912 491.419088 
L 213.827544 494.666923 
L 214.047176 285.99819 
L 214.266808 488.053012 
L 214.486441 286.82358 
L 214.706073 425.197672 
L 214.925705 426.653551 
L 215.145338 497.227706 
L 215.36497 478.765731 
L 215.584602 437.376605 
L 215.804234 485.838372 
L 216.023867 430.060467 
L 216.243499 503.678638 
L 216.463131 396.633129 
L 216.682764 377.700316 
L 216.902396 489.950602 
L 217.122028 375.597066 
L 217.561293 333.692394 
L 217.780925 410.673389 
L 218.000557 409.564142 
L 218.22019 423.956942 
L 218.439822 251.767762 
L 218.659454 486.33894 
L 218.879086 497.384483 
L 219.098719 487.461382 
L 219.537983 380.840463 
L 219.757616 445.187613 
L 219.977248 423.250552 
L 220.19688 489.840597 
L 220.416512 416.101671 
L 220.636145 439.2996 
L 220.855777 381.805329 
L 221.075409 470.65181 
L 221.295042 447.771199 
L 221.514674 469.644602 
L 221.734306 517.479632 
L 221.953938 219.813099 
L 222.173571 478.679294 
L 222.393203 415.611973 
L 222.612835 272.818546 
L 222.832468 468.937191 
L 223.0521 347.300493 
L 223.271732 580.503039 
L 223.710997 427.35395 
L 223.930629 441.141253 
L 224.150261 424.39308 
L 224.369894 478.699816 
L 224.589526 469.869844 
L 224.809158 515.562316 
L 225.02879 505.458078 
L 225.248423 363.826473 
L 225.468055 439.966651 
L 225.687687 363.428403 
L 225.90732 375.544686 
L 226.126952 509.189888 
L 226.346584 375.205617 
L 226.566216 461.11883 
L 226.785849 454.389548 
L 227.005481 475.280236 
L 227.225113 396.239591 
L 227.444745 495.245743 
L 227.664378 446.682674 
L 227.88401 442.444017 
L 228.103642 440.621063 
L 228.323275 409.867349 
L 228.542907 408.552807 
L 228.762539 426.780789 
L 228.982171 467.140604 
L 229.201804 373.647285 
L 229.421436 403.308469 
L 229.641068 510.658633 
L 229.860701 359.464003 
L 230.080333 288.5413 
L 230.73923 498.56826 
L 230.958862 476.383516 
L 231.178494 411.47889 
L 231.398127 284.152021 
L 231.837391 538.900389 
L 232.057023 404.950757 
L 232.276656 510.00633 
L 232.496288 404.968733 
L 232.935553 468.263954 
L 233.155185 363.936881 
L 233.374817 428.108554 
L 233.594449 432.085687 
L 233.814082 447.292865 
L 234.033714 406.834613 
L 234.253346 283.497328 
L 234.472979 473.519801 
L 234.692611 346.07922 
L 234.912243 440.746528 
L 235.131875 436.03093 
L 235.351508 353.612944 
L 235.790772 358.752691 
L 236.010405 468.116325 
L 236.230037 477.436531 
L 236.449669 398.593073 
L 236.669301 509.669768 
L 236.888934 410.230315 
L 237.328198 486.136567 
L 237.767463 387.345558 
L 237.987095 441.709709 
L 238.206727 319.523165 
L 238.42636 481.701696 
L 238.645992 455.331212 
L 238.865624 493.932682 
L 239.085257 488.145086 
L 239.304889 334.552149 
L 239.744153 479.356969 
L 239.963786 449.334937 
L 240.183418 359.243468 
L 240.40305 478.322201 
L 240.622683 458.900116 
L 240.842315 389.563534 
L 241.061947 385.274019 
L 241.281579 291.328938 
L 241.501212 481.606719 
L 241.720844 483.294417 
L 241.940476 497.121247 
L 242.160108 460.705878 
L 242.379741 482.975594 
L 242.599373 537.029971 
L 242.819005 326.793238 
L 243.038638 424.304136 
L 243.25827 405.745446 
L 243.697534 534.002018 
L 243.917167 501.568741 
L 244.136799 380.532218 
L 244.356431 480.28326 
L 244.576064 376.49468 
L 245.23496 512.164675 
L 245.454593 465.178449 
L 245.674225 469.838345 
L 245.893857 419.78036 
L 246.11349 465.734891 
L 246.333122 484.960544 
L 246.552754 444.722072 
L 246.772386 431.470441 
L 246.992019 519.211695 
L 247.211651 411.790335 
L 247.431283 427.147034 
L 247.650916 411.630434 
L 247.870548 435.181697 
L 248.09018 419.100173 
L 248.309812 353.559729 
L 248.749077 481.354062 
L 248.968709 485.891266 
L 249.188342 481.174535 
L 249.407974 423.037739 
L 249.627606 418.117671 
L 249.847238 512.47234 
L 250.066871 451.254748 
L 250.286503 447.61436 
L 250.506135 304.204986 
L 250.725768 501.854148 
L 250.9454 485.230363 
L 251.165032 492.346236 
L 251.604297 312.439212 
L 251.823929 405.10144 
L 252.043561 361.170123 
L 252.263194 518.633408 
L 252.482826 515.762446 
L 252.702458 383.37076 
L 252.92209 322.477644 
L 253.141723 423.59703 
L 253.361355 402.572239 
L 253.580987 428.969875 
L 253.80062 398.024438 
L 254.020252 445.535599 
L 254.239884 438.810414 
L 254.459516 394.842453 
L 254.679149 467.671956 
L 254.898781 481.864696 
L 255.338046 312.943878 
L 255.557678 527.232298 
L 255.77731 479.372381 
L 255.996942 482.101643 
L 256.216575 304.304294 
L 256.436207 433.374493 
L 256.655839 436.92874 
L 257.095104 546.578163 
L 257.314736 480.157333 
L 257.534368 310.870328 
L 257.754001 358.079985 
L 257.973633 360.698669 
L 258.193265 483.97682 
L 258.412897 483.524696 
L 258.63253 447.50892 
L 258.852162 441.308823 
L 259.071794 518.296866 
L 259.291427 348.332837 
L 259.730691 458.383898 
L 259.950323 447.014266 
L 260.389588 477.618201 
L 260.60922 429.633928 
L 261.048485 511.146962 
L 261.268117 471.324528 
L 261.487749 529.503137 
L 261.707382 447.417407 
L 262.146646 482.709986 
L 262.585911 451.228013 
L 262.805543 451.81915 
L 263.025175 347.52454 
L 263.244808 374.432601 
L 263.46444 501.163388 
L 263.903705 375.890253 
L 264.123337 399.558122 
L 264.562601 468.998155 
L 264.782234 452.507529 
L 265.001866 445.46238 
L 265.221498 421.495031 
L 265.441131 536.840057 
L 265.660763 459.037338 
L 265.880395 442.764503 
L 266.100027 443.292635 
L 266.31966 574.687069 
L 266.978557 367.776351 
L 267.198189 463.680968 
L 267.417821 450.396971 
L 267.637453 466.318119 
L 267.857086 457.846088 
L 268.076718 423.884168 
L 268.29635 461.163027 
L 268.515983 538.9932 
L 268.955247 344.407614 
L 269.174879 506.2608 
L 269.394512 463.221533 
L 269.614144 508.045368 
L 270.053409 525.153645 
L 270.273041 493.789603 
L 270.492673 490.666861 
L 270.931938 353.771536 
L 271.15157 437.280852 
L 271.371202 453.92786 
L 271.590835 444.400229 
L 271.810467 386.715487 
L 272.030099 393.013448 
L 272.249731 516.734876 
L 272.469364 415.861374 
L 272.688996 420.3266 
L 272.908628 494.098925 
L 273.12826 375.511486 
L 273.567525 509.417569 
L 273.787157 487.465176 
L 274.00679 331.763122 
L 274.226422 414.455939 
L 274.446054 339.499094 
L 274.665686 371.355336 
L 274.885319 447.831225 
L 275.104951 354.292451 
L 275.544216 523.521474 
L 275.763848 385.270538 
L 275.98348 407.573794 
L 276.422745 509.537786 
L 276.642377 371.255881 
L 276.862009 476.983688 
L 277.081642 355.915541 
L 277.520906 460.216112 
L 277.960171 355.423844 
L 278.179803 427.38511 
L 278.399435 458.429034 
L 278.619068 434.386554 
L 278.8387 345.251929 
L 279.058332 363.230253 
L 279.277964 336.964034 
L 279.497597 473.075033 
L 279.717229 297.625878 
L 279.936861 494.561896 
L 280.376126 286.389282 
L 280.595758 476.376353 
L 280.81539 412.470661 
L 281.035023 437.944507 
L 281.254655 379.22868 
L 281.474287 473.155825 
L 281.69392 342.502061 
L 281.913552 372.187568 
L 282.133184 379.105227 
L 282.572449 471.283543 
L 282.792081 358.284177 
L 283.011713 320.885006 
L 283.231346 419.538546 
L 283.450978 415.771316 
L 283.67061 349.986058 
L 283.890242 493.100713 
L 284.329507 313.719691 
L 284.768772 473.715551 
L 284.988404 405.390222 
L 285.208036 477.219185 
L 285.427668 421.149659 
L 285.647301 455.723482 
L 285.866933 223.770871 
L 286.086565 418.676281 
L 286.306198 469.910924 
L 286.52583 480.140528 
L 286.745462 450.233195 
L 286.965094 353.708382 
L 287.184727 363.401659 
L 287.404359 491.583498 
L 287.623991 500.144729 
L 287.843624 464.01234 
L 288.063256 490.964672 
L 288.282888 326.554165 
L 288.50252 412.158851 
L 288.941785 474.26065 
L 289.161417 455.07826 
L 289.381049 453.75241 
L 289.600682 307.1316 
L 289.820314 459.824034 
L 290.039946 414.791475 
L 290.259579 500.990696 
L 290.479211 459.468786 
L 290.698843 394.263555 
L 290.918475 386.447719 
L 291.138108 477.709187 
L 291.35774 466.181794 
L 291.577372 402.222771 
L 291.797005 437.12627 
L 292.016637 358.373618 
L 292.236269 326.284155 
L 292.455901 418.937631 
L 292.675534 461.69986 
L 292.895166 380.837776 
L 293.114798 386.878116 
L 293.334431 423.551242 
L 293.554063 530.846761 
L 293.773695 524.784227 
L 293.993327 527.533032 
L 294.21296 450.679097 
L 294.432592 471.225981 
L 294.652224 452.186821 
L 294.871857 523.085406 
L 295.311121 369.447107 
L 295.530753 390.874694 
L 295.750386 443.203401 
L 296.18965 331.813559 
L 296.628915 464.725381 
L 296.848547 455.595961 
L 297.068179 515.949201 
L 297.287812 407.105299 
L 297.507444 418.623741 
L 297.727076 384.195702 
L 297.946709 496.162598 
L 298.166341 435.693253 
L 298.385973 444.18728 
L 298.605605 261.636838 
L 298.825238 498.575788 
L 299.04487 406.896083 
L 299.264502 417.29303 
L 299.484135 345.651265 
L 299.923399 455.054295 
L 300.143031 422.913679 
L 300.362664 436.591333 
L 300.582296 515.237718 
L 300.801928 497.657091 
L 301.021561 430.649123 
L 301.241193 449.130357 
L 301.460825 345.522267 
L 301.680457 416.731536 
L 301.90009 419.322082 
L 302.339354 508.677721 
L 302.558987 467.169117 
L 302.778619 290.949107 
L 303.437516 509.408577 
L 303.657148 514.567492 
L 304.316045 315.833297 
L 304.535677 454.602631 
L 304.755309 417.679478 
L 304.974942 473.778455 
L 305.194574 368.035561 
L 305.414206 455.656344 
L 305.853471 386.298352 
L 306.073103 481.895859 
L 306.292735 473.569393 
L 306.512368 417.990451 
L 306.732 446.691627 
L 306.951632 339.123045 
L 307.171264 549.67325 
L 307.390897 379.736337 
L 307.610529 378.865471 
L 307.830161 542.8491 
L 308.049794 419.625391 
L 308.269426 394.486329 
L 308.489058 535.115013 
L 308.70869 376.183961 
L 309.147955 469.963081 
L 309.58722 317.314021 
L 310.246116 495.958182 
L 310.465749 446.35245 
L 310.685381 548.367291 
L 310.905013 423.495422 
L 311.124646 418.724191 
L 311.344278 489.973343 
L 311.56391 509.21934 
L 311.783542 465.540438 
L 312.003175 444.191811 
L 312.222807 410.627964 
L 312.442439 357.034345 
L 312.662072 368.233314 
L 312.881704 404.452253 
L 313.101336 467.396822 
L 313.320968 418.326489 
L 313.540601 543.548495 
L 313.760233 352.900385 
L 313.979865 474.10378 
L 314.199498 461.57464 
L 314.41913 494.480735 
L 314.638762 383.232306 
L 314.858394 499.992902 
L 315.297659 462.020692 
L 315.517291 502.014974 
L 315.736924 494.698308 
L 315.956556 373.835687 
L 316.176188 463.998152 
L 316.39582 501.687291 
L 316.615453 468.576196 
L 316.835085 356.234863 
L 317.054717 463.655499 
L 317.27435 492.012626 
L 317.493982 455.648818 
L 317.713614 388.224271 
L 317.933246 477.024494 
L 318.152879 453.703745 
L 318.372511 404.200917 
L 318.592143 504.015519 
L 318.811775 491.8959 
L 319.031408 464.858266 
L 319.25104 472.24134 
L 319.470672 491.736656 
L 319.690305 485.81184 
L 319.909937 471.719181 
L 320.129569 366.724396 
L 320.349201 428.889279 
L 320.568834 354.116615 
L 321.008098 514.465379 
L 321.227731 418.072129 
L 321.447363 402.070675 
L 321.666995 396.244452 
L 321.886627 448.140233 
L 322.10626 406.904104 
L 322.325892 472.311923 
L 322.545524 417.410595 
L 322.765157 424.821097 
L 322.984789 413.377201 
L 323.204421 515.887359 
L 323.424053 518.752046 
L 323.863318 367.695414 
L 324.08295 470.40103 
L 324.302583 466.322461 
L 324.522215 423.134873 
L 324.741847 501.276844 
L 324.961479 284.842513 
L 325.181112 347.415796 
L 325.400744 488.754059 
L 325.620376 481.167807 
L 325.840009 321.441205 
L 326.059641 403.884207 
L 326.279273 410.27739 
L 326.498905 403.136488 
L 326.718538 464.665483 
L 326.93817 380.243182 
L 327.157802 403.335904 
L 327.377435 387.894446 
L 327.597067 402.970579 
L 327.816699 449.582803 
L 328.036331 295.716149 
L 328.255964 500.044149 
L 328.475596 446.273961 
L 328.695228 483.639458 
L 328.914861 485.591929 
L 329.134493 447.44979 
L 329.354125 481.239911 
L 329.573757 477.477699 
L 329.79339 467.988956 
L 330.013022 389.652547 
L 330.232654 482.178061 
L 330.671919 491.789905 
L 330.891551 432.52851 
L 331.111183 413.6318 
L 331.330816 418.205684 
L 331.550448 457.543572 
L 331.77008 465.733044 
L 331.989713 179.486158 
L 332.209345 474.171312 
L 332.428977 437.24466 
L 332.648609 290.158509 
L 332.868242 320.704956 
L 333.087874 554.009045 
L 333.307506 253.77107 
L 333.527139 500.190554 
L 333.746771 131.763818 
L 333.966403 449.496861 
L 334.186035 556.131125 
L 334.405668 456.68147 
L 334.6253 409.738596 
L 334.844932 474.651929 
L 335.064564 463.793437 
L 335.284197 329.575573 
L 335.723461 535.899908 
L 335.943094 419.782761 
L 336.162726 371.40188 
L 336.382358 408.887378 
L 336.60199 247.987364 
L 336.821623 233.072152 
L 337.260887 455.979705 
L 337.48052 522.364019 
L 337.700152 427.230984 
L 337.919784 441.435922 
L 338.139416 472.486725 
L 338.359049 395.047679 
L 338.578681 488.757722 
L 339.017946 417.322835 
L 339.237578 480.770856 
L 339.45721 414.063095 
L 339.676842 408.698657 
L 339.896475 341.152227 
L 340.116107 442.918323 
L 340.335739 460.810101 
L 340.555372 398.086758 
L 340.775004 497.411135 
L 340.994636 412.263823 
L 341.214268 440.218104 
L 341.433901 358.009056 
L 341.653533 362.553217 
L 341.873165 477.239953 
L 342.092798 519.241449 
L 342.31243 455.519738 
L 342.532062 513.595365 
L 342.751694 457.388977 
L 342.971327 503.430751 
L 343.190959 469.794275 
L 343.410591 361.037084 
L 343.849856 480.2275 
L 344.069488 504.408076 
L 344.28912 373.349964 
L 344.508753 477.715112 
L 344.728385 441.364626 
L 344.948017 482.698538 
L 345.16765 294.510916 
L 345.387282 438.951663 
L 345.606914 363.349991 
L 345.826546 490.556381 
L 346.046179 429.390797 
L 346.265811 417.093909 
L 346.485443 246.403924 
L 346.705076 443.567846 
L 347.14434 393.370479 
L 347.363972 453.481417 
L 347.583605 318.478323 
L 348.022869 431.472924 
L 348.462134 542.107883 
L 348.681766 392.42995 
L 348.901398 506.076256 
L 349.121031 412.451575 
L 349.340663 420.455036 
L 349.560295 261.430307 
L 349.779927 441.157293 
L 349.99956 354.10078 
L 350.438824 515.134826 
L 350.658457 404.452186 
L 350.878089 478.425495 
L 351.097721 473.809659 
L 351.317353 401.085489 
L 351.536986 435.583443 
L 351.756618 508.625543 
L 351.97625 368.574891 
L 352.635147 477.742857 
L 352.854779 374.683544 
L 353.074412 500.3505 
L 353.733309 272.989634 
L 353.952941 485.31003 
L 354.172573 425.664833 
L 354.392205 500.766395 
L 354.611838 397.99976 
L 354.83147 366.15807 
L 355.051102 465.207911 
L 355.270735 403.548455 
L 355.490367 426.239861 
L 355.709999 430.187026 
L 355.929631 479.217911 
L 356.149264 484.447844 
L 356.368896 355.598447 
L 356.588528 472.110628 
L 356.808161 390.029248 
L 357.027793 523.021012 
L 357.247425 408.893076 
L 357.467057 499.49348 
L 357.68669 468.711767 
L 357.906322 471.069579 
L 358.125954 501.450891 
L 358.345587 457.537273 
L 358.565219 489.812499 
L 358.784851 492.382003 
L 359.004483 502.819756 
L 359.224116 321.360129 
L 359.443748 452.47219 
L 359.66338 330.544954 
L 359.883013 397.427482 
L 360.102645 416.493063 
L 360.322277 365.167274 
L 360.761542 550.350125 
L 360.981174 409.477843 
L 361.200806 501.066912 
L 361.420439 421.012238 
L 361.640071 395.730389 
L 361.859703 435.535202 
L 362.079335 422.342116 
L 362.298968 509.9341 
L 362.5186 427.412709 
L 362.738232 472.04278 
L 362.957865 450.386571 
L 363.177497 476.11948 
L 363.397129 518.522357 
L 363.616761 342.172556 
L 363.836394 502.225001 
L 364.056026 427.050611 
L 364.275658 495.420673 
L 364.495291 476.166986 
L 364.714923 434.217257 
L 364.934555 417.153279 
L 365.154187 438.997 
L 365.37382 292.066467 
L 365.593452 484.391981 
L 365.813084 478.266909 
L 366.032716 423.090378 
L 366.252349 439.499015 
L 366.471981 369.9427 
L 367.130878 475.025096 
L 367.35051 477.212797 
L 367.570142 449.275931 
L 367.789775 449.027376 
L 368.009407 299.015827 
L 368.229039 575.225012 
L 368.448672 343.612787 
L 368.668304 432.711113 
L 368.887936 464.727219 
L 369.107568 521.518101 
L 369.327201 424.593748 
L 369.546833 435.261501 
L 369.766465 468.96612 
L 369.986098 381.452118 
L 370.20573 403.515978 
L 370.425362 488.138704 
L 370.644994 419.338019 
L 370.864627 510.525207 
L 371.303891 569.476924 
L 371.743156 444.554649 
L 371.962788 528.01882 
L 372.18242 295.819873 
L 372.402053 455.208186 
L 372.621685 387.861406 
L 372.841317 428.195899 
L 373.06095 330.288624 
L 373.280582 366.012348 
L 373.500214 341.056498 
L 373.719846 491.767269 
L 373.939479 453.997093 
L 374.159111 462.48373 
L 374.378743 464.280386 
L 374.598376 365.24597 
L 374.818008 425.766205 
L 375.03764 358.186985 
L 375.257272 419.883037 
L 375.476905 384.032338 
L 375.696537 414.742367 
L 375.916169 549.301623 
L 376.135802 570.34073 
L 376.355434 423.37806 
L 376.575066 503.408077 
L 376.794698 390.820441 
L 377.014331 543.444239 
L 377.233963 499.466728 
L 377.453595 424.976041 
L 377.673228 455.503597 
L 377.89286 394.662704 
L 378.112492 419.553433 
L 378.332124 392.981778 
L 378.551757 485.525655 
L 378.771389 475.608567 
L 378.991021 283.261706 
L 379.210654 510.423658 
L 379.430286 403.382645 
L 379.649918 417.95292 
L 379.86955 424.956966 
L 380.089183 389.227654 
L 380.308815 460.655309 
L 380.528447 407.217963 
L 380.748079 497.990984 
L 380.967712 479.244978 
L 381.187344 279.69662 
L 381.406976 531.995011 
L 381.626609 356.865276 
L 381.846241 447.332674 
L 382.065873 360.982602 
L 382.285505 461.67943 
L 382.505138 483.174629 
L 382.72477 412.887369 
L 382.944402 541.520136 
L 383.164035 387.283783 
L 383.383667 476.588539 
L 383.603299 313.166209 
L 383.822931 508.90535 
L 384.042564 370.215406 
L 384.262196 351.409837 
L 384.481828 474.161087 
L 384.701461 461.51422 
L 384.921093 320.45853 
L 385.140725 426.717923 
L 385.360357 325.425893 
L 385.57999 424.496369 
L 385.799622 469.583144 
L 386.019254 442.195842 
L 386.238887 431.50818 
L 386.458519 381.764665 
L 386.678151 516.385943 
L 386.897783 385.134526 
L 387.117416 352.330092 
L 387.337048 495.828329 
L 387.776313 399.732725 
L 387.995945 480.053216 
L 388.435209 389.195713 
L 388.654842 413.848984 
L 388.874474 365.989174 
L 389.094106 392.033578 
L 389.313739 488.133139 
L 389.533371 494.270769 
L 389.972635 488.533766 
L 390.192268 433.382366 
L 390.4119 455.806478 
L 390.631532 380.965293 
L 390.851165 361.96636 
L 391.070797 520.070274 
L 391.290429 436.187824 
L 391.510061 418.295325 
L 391.729694 466.102386 
L 391.949326 381.434926 
L 392.168958 465.496302 
L 392.388591 468.453803 
L 392.608223 203.807386 
L 392.827855 497.847758 
L 393.047487 363.052745 
L 393.26712 389.539237 
L 393.486752 490.332345 
L 393.706384 418.745506 
L 393.926017 475.841656 
L 394.145649 458.125955 
L 394.365281 400.140928 
L 394.584913 399.154786 
L 394.804546 565.087845 
L 395.024178 441.320996 
L 395.24381 456.43322 
L 395.463443 392.484624 
L 395.683075 396.725741 
L 395.902707 384.130163 
L 396.122339 385.868064 
L 396.341972 445.998811 
L 396.561604 287.854728 
L 396.781236 418.029925 
L 397.000868 477.76972 
L 397.220501 444.609267 
L 397.659765 458.808531 
L 397.879398 439.085122 
L 398.09903 393.092759 
L 398.318662 493.193058 
L 398.538294 415.148196 
L 398.757927 421.788434 
L 398.977559 370.18213 
L 399.197191 518.975586 
L 399.416824 452.771491 
L 399.636456 448.617082 
L 399.856088 518.918515 
L 400.07572 481.918396 
L 400.295353 479.955937 
L 400.514985 446.429095 
L 400.734617 343.537211 
L 400.95425 423.764889 
L 401.173882 314.130736 
L 401.393514 441.941596 
L 401.613146 489.71152 
L 401.832779 500.26939 
L 402.052411 432.836716 
L 402.272043 295.022126 
L 402.491676 466.339318 
L 402.711308 381.971328 
L 403.370205 488.225234 
L 403.589837 340.137151 
L 403.809469 409.594323 
L 404.029102 353.144801 
L 404.248734 462.829662 
L 404.468366 403.536345 
L 404.687998 494.354256 
L 404.907631 533.29768 
L 405.127263 302.913469 
L 405.346895 314.477503 
L 405.566528 423.310734 
L 405.78616 370.499467 
L 406.005792 491.624168 
L 406.225424 460.440324 
L 406.445057 514.86511 
L 406.664689 518.414556 
L 406.884321 440.459785 
L 407.103954 492.339338 
L 407.323586 402.809101 
L 407.543218 423.37017 
L 407.76285 491.265278 
L 407.982483 288.409493 
L 408.202115 479.108529 
L 408.421747 534.075294 
L 408.64138 433.854879 
L 408.861012 485.094323 
L 409.080644 485.816867 
L 409.300276 308.641378 
L 409.519909 333.528165 
L 409.739541 466.932661 
L 409.959173 447.645022 
L 410.178806 484.020439 
L 410.398438 359.423709 
L 410.61807 405.526713 
L 410.837702 371.946209 
L 411.057335 452.787127 
L 411.276967 427.375218 
L 411.496599 379.45581 
L 411.716231 471.840859 
L 411.935864 289.71409 
L 412.155496 420.374557 
L 412.375128 477.409895 
L 412.594761 449.211721 
L 413.034025 513.388417 
L 413.253657 418.554253 
L 413.47329 396.483875 
L 413.692922 464.266808 
L 414.132187 373.303672 
L 414.351819 463.629101 
L 414.571451 417.669761 
L 414.791083 448.093266 
L 415.230348 337.506871 
L 415.44998 520.495452 
L 415.669613 447.719773 
L 415.889245 496.073055 
L 416.108877 433.763252 
L 416.328509 310.675531 
L 416.767774 474.026373 
L 416.987406 429.08846 
L 417.426671 474.099868 
L 417.646303 386.802813 
L 417.865935 454.797677 
L 418.085568 445.247025 
L 418.3052 332.955595 
L 418.744465 428.069748 
L 418.964097 512.138574 
L 419.403361 490.447203 
L 419.622994 304.757176 
L 419.842626 442.216466 
L 420.062258 348.381556 
L 420.281891 402.79626 
L 420.501523 414.253782 
L 420.721155 453.580663 
L 420.940787 366.463304 
L 421.16042 384.897278 
L 421.380052 506.137644 
L 421.819317 392.579225 
L 422.258581 511.125332 
L 422.478213 439.933579 
L 422.697846 473.639328 
L 423.13711 338.924418 
L 423.356743 395.64185 
L 423.576375 494.793199 
L 423.796007 366.704071 
L 424.015639 512.244607 
L 424.235272 360.91255 
L 424.454904 479.129719 
L 424.674536 421.865478 
L 425.333433 364.63199 
L 425.553065 443.403789 
L 425.772698 476.807228 
L 425.99233 468.798142 
L 426.211962 471.129058 
L 426.431594 495.691373 
L 426.651227 463.307286 
L 426.870859 359.071167 
L 427.090491 461.216012 
L 427.310124 397.070685 
L 427.529756 458.813838 
L 427.749388 313.18669 
L 427.96902 473.204925 
L 428.188653 384.474414 
L 428.408285 468.159314 
L 428.627917 462.630086 
L 428.84755 364.797769 
L 429.067182 470.048152 
L 429.286814 472.519137 
L 429.506446 506.490421 
L 429.726079 425.434267 
L 429.945711 259.471166 
L 430.165343 461.949413 
L 430.604608 403.818287 
L 430.82424 401.980617 
L 431.043872 516.616889 
L 431.263505 411.837712 
L 431.483137 507.203716 
L 431.702769 435.325872 
L 431.922402 437.901646 
L 432.142034 497.028145 
L 432.361666 480.895521 
L 432.800931 425.355269 
L 433.020563 402.196422 
L 433.240195 480.297473 
L 433.459828 461.76679 
L 433.67946 492.511195 
L 433.899092 430.270178 
L 434.118724 437.660746 
L 434.338357 433.093082 
L 434.557989 475.07464 
L 434.777621 323.073611 
L 435.216886 363.081136 
L 435.436518 449.855816 
L 435.65615 470.058986 
L 435.875783 519.946453 
L 436.095415 465.923698 
L 436.315047 369.768362 
L 436.53468 388.680124 
L 436.754312 354.136861 
L 436.973944 504.676869 
L 437.193576 508.792031 
L 437.413209 334.527809 
L 437.632841 256.976843 
L 438.072106 422.689555 
L 438.51137 450.88299 
L 438.731002 402.222328 
L 438.950635 487.205348 
L 439.170267 506.776491 
L 439.609532 442.937629 
L 439.829164 434.476875 
L 440.048796 504.102625 
L 440.268428 530.631856 
L 440.927325 395.080812 
L 441.146958 466.24783 
L 441.36659 381.895521 
L 441.586222 474.578347 
L 441.805854 351.533468 
L 442.025487 470.563138 
L 442.245119 453.118263 
L 442.464751 457.180665 
L 442.684383 390.577713 
L 443.123648 492.718807 
L 443.34328 479.593914 
L 443.782545 340.839224 
L 444.221809 460.769709 
L 444.441442 404.891398 
L 444.661074 492.496432 
L 444.880706 367.756693 
L 445.100339 510.78298 
L 445.319971 387.151519 
L 445.539603 385.701764 
L 445.759235 502.297229 
L 445.978868 439.692319 
L 446.1985 434.379618 
L 446.418132 472.055075 
L 446.637765 467.42858 
L 447.077029 373.543854 
L 447.296661 383.796883 
L 447.516294 498.120083 
L 447.735926 404.688617 
L 447.955558 427.835218 
L 448.175191 508.617886 
L 448.394823 432.257229 
L 448.614455 419.471999 
L 448.834087 456.785352 
L 449.05372 454.082209 
L 449.273352 492.887028 
L 449.712617 446.459122 
L 449.932249 323.184217 
L 450.151881 484.489454 
L 450.371513 374.0348 
L 450.591146 394.577973 
L 450.810778 512.989404 
L 451.03041 412.872613 
L 451.250043 379.170477 
L 451.469675 488.110178 
L 451.689307 460.721485 
L 451.908939 340.027019 
L 452.128572 371.162736 
L 452.348204 453.422846 
L 452.787469 427.178022 
L 453.007101 385.300038 
L 453.226733 412.491648 
L 453.446365 395.414937 
L 453.665998 514.083267 
L 454.105262 399.745746 
L 454.324895 470.091984 
L 454.544527 472.877545 
L 454.764159 514.829811 
L 454.983791 468.00896 
L 455.203424 471.692501 
L 455.423056 479.5941 
L 455.642688 431.888448 
L 455.862321 470.54533 
L 456.081953 208.896492 
L 456.301585 323.606731 
L 456.521217 365.604978 
L 456.74085 475.731062 
L 456.960482 389.686728 
L 457.180114 500.354969 
L 457.399746 365.298202 
L 457.619379 426.585141 
L 457.839011 379.070742 
L 458.058643 414.691577 
L 458.278276 397.480874 
L 458.497908 472.268492 
L 458.71754 447.3717 
L 458.937172 384.367809 
L 459.156805 444.571565 
L 459.376437 432.45652 
L 459.596069 485.521268 
L 459.815702 438.239585 
L 460.035334 320.745636 
L 460.254966 357.704302 
L 460.474598 526.318836 
L 460.694231 421.504099 
L 461.133495 496.803849 
L 461.353128 422.89085 
L 461.57276 434.781919 
L 462.012024 492.944568 
L 462.231657 403.565669 
L 462.451289 178.375146 
L 462.670921 471.206241 
L 463.110186 328.778726 
L 463.329818 482.288065 
L 463.54945 374.820709 
L 463.769083 457.530718 
L 463.988715 455.788086 
L 464.208347 492.936992 
L 464.42798 290.436776 
L 464.647612 511.540703 
L 464.867244 565.344758 
L 465.086876 416.601433 
L 465.306509 411.056999 
L 465.745773 429.787925 
L 465.965406 419.256055 
L 466.185038 476.281718 
L 466.40467 461.221548 
L 466.624302 409.642692 
L 466.843935 399.912466 
L 467.063567 463.652269 
L 467.283199 398.294126 
L 467.502832 384.259845 
L 467.942096 413.04983 
L 468.161728 389.989926 
L 468.600993 539.939806 
L 468.820625 386.781523 
L 469.040258 498.383136 
L 469.25989 425.055979 
L 469.479522 527.501619 
L 469.699154 328.417767 
L 469.918787 386.931287 
L 470.138419 347.000148 
L 470.358051 266.022267 
L 470.577684 449.621544 
L 470.797316 439.410287 
L 471.23658 504.813842 
L 471.456213 397.244555 
L 471.675845 483.475673 
L 471.895477 386.779068 
L 472.11511 426.868189 
L 472.334742 375.672092 
L 472.554374 510.130022 
L 472.774006 262.474209 
L 472.993639 521.022327 
L 473.213271 303.563444 
L 473.432903 341.75515 
L 473.652535 353.258006 
L 473.872168 448.77476 
L 474.0918 475.115661 
L 474.311432 421.51333 
L 474.750697 500.64606 
L 474.970329 472.273003 
L 475.189961 477.28708 
L 475.409594 549.925407 
L 475.629226 447.919366 
L 475.848858 548.598026 
L 476.068491 435.792739 
L 476.288123 536.430046 
L 476.507755 410.864453 
L 476.727387 436.71334 
L 476.94702 318.187013 
L 477.166652 394.700127 
L 477.386284 511.613884 
L 477.605917 419.430186 
L 477.825549 495.790325 
L 478.045181 426.743797 
L 478.264813 409.359861 
L 478.484446 453.72887 
L 478.704078 457.268382 
L 478.92371 453.865172 
L 479.143343 446.330704 
L 479.362975 452.03397 
L 479.582607 430.109889 
L 479.802239 424.661079 
L 480.021872 430.340965 
L 480.241504 367.723688 
L 480.461136 466.718373 
L 480.900401 306.744957 
L 481.339665 426.806101 
L 481.559298 431.738837 
L 481.998562 556.345688 
L 482.218195 477.505034 
L 482.437827 450.215593 
L 482.657459 401.783474 
L 483.096724 458.301402 
L 483.316356 428.928206 
L 483.535988 475.182958 
L 483.755621 338.450818 
L 483.975253 499.565272 
L 484.194885 334.782556 
L 484.414517 473.84921 
L 484.853782 399.878375 
L 485.073414 377.535377 
L 485.293047 417.304655 
L 485.512679 430.732011 
L 485.951943 381.714034 
L 486.171576 380.879154 
L 486.391208 291.844389 
L 486.61084 457.965865 
L 486.830473 404.880372 
L 487.269737 485.321824 
L 487.489369 413.336626 
L 487.709002 475.120564 
L 487.928634 439.958698 
L 488.148266 369.555742 
L 488.367898 536.817622 
L 488.587531 488.078793 
L 488.807163 485.75989 
L 489.026795 477.798496 
L 489.246428 427.628213 
L 489.46606 441.016364 
L 489.685692 545.705367 
L 489.905324 412.259248 
L 490.124957 467.922691 
L 490.344589 471.387981 
L 490.564221 505.352109 
L 490.783854 395.743701 
L 491.003486 384.822252 
L 491.223118 412.49235 
L 491.44275 411.43791 
L 491.662383 497.45263 
L 491.882015 412.093614 
L 492.101647 488.402902 
L 492.540912 430.288917 
L 492.760544 358.18116 
L 492.980176 418.392072 
L 493.199809 516.518342 
L 493.639073 385.634032 
L 493.858706 480.474342 
L 494.078338 427.957653 
L 494.29797 485.944912 
L 494.517602 436.372327 
L 494.737235 493.144434 
L 494.956867 399.023335 
L 495.176499 524.384462 
L 495.396132 363.141655 
L 495.615764 407.56569 
L 495.835396 518.362252 
L 496.055028 473.357289 
L 496.274661 377.567248 
L 496.494293 492.441226 
L 496.713925 482.236072 
L 496.933558 387.683934 
L 497.15319 358.429327 
L 497.812087 523.57855 
L 498.031719 505.105558 
L 498.251351 457.460727 
L 498.470984 457.14869 
L 498.690616 422.959935 
L 498.910248 233.748826 
L 499.12988 389.054364 
L 499.349513 415.079638 
L 499.569145 384.316291 
L 499.788777 495.000149 
L 500.00841 522.780998 
L 500.447674 363.341711 
L 500.667306 471.547242 
L 500.886939 411.811825 
L 501.106571 443.35143 
L 501.326203 285.867502 
L 501.765468 490.402061 
L 501.9851 367.288878 
L 502.204732 450.272925 
L 502.424365 306.416143 
L 502.643997 420.118708 
L 502.863629 379.923588 
L 503.083262 306.388098 
L 503.302894 479.084391 
L 503.522526 441.659774 
L 503.742158 461.436803 
L 503.961791 510.68951 
L 504.181423 437.525982 
L 504.401055 440.190983 
L 504.620687 433.04173 
L 504.84032 461.316861 
L 505.059952 365.541858 
L 505.279584 419.985833 
L 505.499217 530.435848 
L 505.718849 468.515614 
L 505.938481 455.193393 
L 506.158113 429.498724 
L 506.377746 470.31865 
L 506.597378 435.268548 
L 506.81701 352.485438 
L 507.036643 494.068437 
L 507.256275 459.696088 
L 507.475907 489.289103 
L 507.695539 470.142025 
L 507.915172 355.420119 
L 508.134804 486.461874 
L 508.354436 314.903426 
L 508.574069 477.784604 
L 508.793701 459.327319 
L 509.232965 475.346683 
L 509.452598 413.176091 
L 509.67223 510.818852 
L 509.891862 413.221058 
L 510.111495 414.741605 
L 510.331127 480.262887 
L 510.550759 422.345013 
L 510.770391 479.086567 
L 510.990024 494.563504 
L 511.209656 467.624538 
L 511.429288 487.287276 
L 511.648921 473.744368 
L 511.868553 485.952961 
L 512.088185 446.453042 
L 512.307817 438.814146 
L 512.52745 451.232925 
L 512.747082 346.093169 
L 512.966714 499.045176 
L 513.405979 423.738799 
L 513.625611 239.144377 
L 513.845243 520.768569 
L 514.284508 375.487437 
L 514.50414 478.133691 
L 514.723773 503.081362 
L 514.943405 314.393082 
L 515.163037 479.994424 
L 515.382669 411.246517 
L 515.602302 454.087475 
L 515.821934 438.914684 
L 516.261199 399.006208 
L 516.480831 428.479151 
L 516.700463 369.517814 
L 516.920095 418.203489 
L 517.139728 543.517445 
L 517.35936 361.339938 
L 517.578992 530.845401 
L 517.798625 434.411128 
L 518.018257 468.896484 
L 518.237889 313.303758 
L 518.457521 454.664705 
L 518.677154 491.112532 
L 518.896786 404.350282 
L 519.116418 403.173105 
L 519.33605 475.648617 
L 519.555683 286.984003 
L 519.775315 416.979288 
L 519.994947 392.547918 
L 520.21458 514.907945 
L 520.434212 430.475296 
L 520.653844 389.820118 
L 520.873476 422.261273 
L 521.093109 395.859312 
L 521.312741 421.915747 
L 521.532373 488.967825 
L 521.752006 465.898757 
L 521.971638 361.520453 
L 522.410902 462.980699 
L 522.630535 355.600847 
L 522.850167 360.861094 
L 523.069799 447.967365 
L 523.289432 431.989941 
L 523.509064 391.351348 
L 523.948328 460.275383 
L 524.167961 480.586215 
L 524.387593 483.139496 
L 524.607225 394.41901 
L 525.04649 525.224586 
L 525.266122 292.315972 
L 525.485754 480.280885 
L 525.705387 359.523004 
L 525.925019 473.035226 
L 526.144651 440.093346 
L 526.364284 427.650985 
L 526.583916 455.096087 
L 526.803548 458.393244 
L 527.02318 490.975946 
L 527.242813 410.616015 
L 527.462445 430.643789 
L 527.682077 422.367587 
L 527.90171 444.01386 
L 528.121342 482.494179 
L 528.340974 353.307188 
L 528.560606 322.127663 
L 528.780239 464.73846 
L 528.999871 463.530368 
L 529.439136 478.655965 
L 529.658768 454.211321 
L 529.8784 460.7299 
L 530.098032 512.506228 
L 530.317665 439.225414 
L 530.537297 474.553856 
L 530.756929 396.057556 
L 530.976562 390.568362 
L 531.635458 498.163874 
L 531.855091 532.411222 
L 532.074723 356.680124 
L 532.294355 389.798546 
L 532.513988 314.890403 
L 532.953252 542.128311 
L 533.172884 416.711282 
L 533.392517 502.659112 
L 533.612149 412.592732 
L 533.831781 424.182718 
L 534.051413 356.069199 
L 534.271046 472.349388 
L 534.490678 360.297758 
L 534.71031 416.402493 
L 534.929943 324.142944 
L 535.149575 517.852692 
L 535.369207 448.057287 
L 535.588839 446.789404 
L 535.808472 502.083932 
L 536.028104 501.77563 
L 536.247736 418.508088 
L 536.467369 428.243472 
L 536.687001 369.595206 
L 536.906633 457.024247 
L 537.126265 386.904388 
L 537.345898 460.949215 
L 537.56553 395.410041 
L 538.004795 482.244541 
L 538.224427 453.810658 
L 538.444059 446.178865 
L 538.663691 429.704949 
L 539.102956 352.543176 
L 539.322588 451.793193 
L 539.761853 478.854694 
L 539.981485 347.321257 
L 540.42075 472.268613 
L 540.640382 378.042948 
L 540.860014 375.816962 
L 541.079647 434.458968 
L 541.299279 439.253346 
L 541.518911 406.570597 
L 541.738543 404.744817 
L 541.958176 496.129587 
L 542.177808 415.944759 
L 542.39744 422.860428 
L 542.617073 399.22567 
L 542.836705 439.061511 
L 543.056337 457.537711 
L 543.275969 437.858272 
L 543.495602 349.297484 
L 543.715234 309.733216 
L 543.934866 358.934349 
L 544.154499 350.341346 
L 544.374131 470.21872 
L 544.593763 409.723753 
L 544.813395 412.410077 
L 545.033028 467.717569 
L 545.25266 451.380871 
L 545.472292 385.983583 
L 545.691925 441.368344 
L 545.911557 393.381532 
L 545.911557 393.381532 
" style="fill:none;stroke:#96c69a;stroke-linecap:round;stroke-width:3;"/>
   </g>
   <g id="line2d_2">
    <path clip-path="url(#p1ed2833e00)" d="M 106.866622 518.038687 
L 107.086254 295.01482 
L 107.305886 511.141592 
L 107.525519 489.013566 
L 107.745151 501.378049 
L 107.964783 430.95825 
L 108.184415 503.022441 
L 108.404048 351.726694 
L 108.62368 517.970847 
L 108.843312 451.653279 
L 109.062945 448.489082 
L 109.282577 486.286704 
L 109.502209 490.945943 
L 109.721841 399.79042 
L 109.941474 454.670719 
L 110.161106 469.169858 
L 110.380738 388.709284 
L 110.600371 360.177278 
L 110.820003 430.358495 
L 111.039635 397.863661 
" style="fill:none;stroke:#1a283d;stroke-linecap:round;stroke-width:3;"/>
   </g>
   <g id="line2d_3"/>
   <g id="line2d_4"/>
   <g id="patch_3">
    <path d="M 84.914375 602.94 
L 84.914375 109.326857 
" style="fill:none;stroke:#262626;stroke-linecap:square;stroke-linejoin:miter;stroke-width:2.5;"/>
   </g>
   <g id="patch_4">
    <path d="M 84.914375 602.94 
L 567.863804 602.94 
" style="fill:none;stroke:#262626;stroke-linecap:square;stroke-linejoin:miter;stroke-width:2.5;"/>
   </g>
   <g id="legend_1">
    <g id="patch_5">
     <path d="M 507.990366 597.94 
L 560.863804 597.94 
Q 562.863804 597.94 562.863804 595.94 
L 562.863804 539.35625 
Q 562.863804 537.35625 560.863804 537.35625 
L 507.990366 537.35625 
Q 505.990366 537.35625 505.990366 539.35625 
L 505.990366 595.94 
Q 505.990366 597.94 507.990366 597.94 
z
" style="fill:#ffffff;opacity:0.8;stroke:#cccccc;stroke-linejoin:miter;stroke-width:2;"/>
    </g>
    <g id="text_18">
     <!-- $n_\tau$ -->
     <g style="fill:#262626;" transform="translate(521.347085 559.5925)scale(0.24 -0.24)">
      <defs>
       <path d="M 3566 2113 
L 3156 0 
L 2578 0 
L 2988 2091 
Q 3016 2238 3031 2350 
Q 3047 2463 3047 2528 
Q 3047 2791 2881 2937 
Q 2716 3084 2419 3084 
Q 1956 3084 1622 2776 
Q 1288 2469 1184 1941 
L 800 0 
L 225 0 
L 903 3500 
L 1478 3500 
L 1363 2950 
Q 1603 3253 1940 3418 
Q 2278 3584 2650 3584 
Q 3113 3584 3367 3334 
Q 3622 3084 3622 2631 
Q 3622 2519 3608 2391 
Q 3594 2263 3566 2113 
z
" id="DejaVuSans-Oblique-6e" transform="scale(0.015625)"/>
       <path d="M 2103 638 
Q 2188 488 2525 488 
L 2800 488 
L 2706 0 
L 2363 0 
Q 1800 0 1600 300 
Q 1403 606 1534 1269 
L 1856 2925 
L 541 2925 
L 653 3500 
L 3881 3500 
L 3769 2925 
L 2444 2925 
L 2113 1234 
Q 2025 781 2103 638 
z
" id="DejaVuSans-Oblique-3c4" transform="scale(0.015625)"/>
      </defs>
      <use xlink:href="#DejaVuSans-Oblique-6e"/>
      <use transform="translate(63.378906 -16.40625)scale(0.7)" xlink:href="#DejaVuSans-Oblique-3c4"/>
     </g>
    </g>
    <g id="line2d_5">
     <path d="M 509.990366 573.682187 
L 529.990366 573.682187 
" style="fill:none;stroke:#96c69a;stroke-linecap:round;stroke-width:3;"/>
    </g>
    <g id="line2d_6"/>
    <g id="text_19">
     <!-- 160 -->
     <g style="fill:#262626;" transform="translate(537.990366 577.182187)scale(0.1 -0.1)">
      <defs>
       <path d="M 750 831 
L 1813 831 
L 1813 3847 
L 722 3622 
L 722 4441 
L 1806 4666 
L 2950 4666 
L 2950 831 
L 4013 831 
L 4013 0 
L 750 0 
L 750 831 
z
" id="DejaVuSans-Bold-31" transform="scale(0.015625)"/>
       <path d="M 2316 2303 
Q 2000 2303 1842 2098 
Q 1684 1894 1684 1484 
Q 1684 1075 1842 870 
Q 2000 666 2316 666 
Q 2634 666 2792 870 
Q 2950 1075 2950 1484 
Q 2950 1894 2792 2098 
Q 2634 2303 2316 2303 
z
M 3803 4544 
L 3803 3681 
Q 3506 3822 3243 3889 
Q 2981 3956 2731 3956 
Q 2194 3956 1894 3657 
Q 1594 3359 1544 2772 
Q 1750 2925 1990 3001 
Q 2231 3078 2516 3078 
Q 3231 3078 3670 2659 
Q 4109 2241 4109 1563 
Q 4109 813 3618 361 
Q 3128 -91 2303 -91 
Q 1394 -91 895 523 
Q 397 1138 397 2266 
Q 397 3422 980 4083 
Q 1563 4744 2578 4744 
Q 2900 4744 3203 4694 
Q 3506 4644 3803 4544 
z
" id="DejaVuSans-Bold-36" transform="scale(0.015625)"/>
       <path d="M 2944 2338 
Q 2944 3213 2780 3570 
Q 2616 3928 2228 3928 
Q 1841 3928 1675 3570 
Q 1509 3213 1509 2338 
Q 1509 1453 1675 1090 
Q 1841 728 2228 728 
Q 2613 728 2778 1090 
Q 2944 1453 2944 2338 
z
M 4147 2328 
Q 4147 1169 3647 539 
Q 3147 -91 2228 -91 
Q 1306 -91 806 539 
Q 306 1169 306 2328 
Q 306 3491 806 4120 
Q 1306 4750 2228 4750 
Q 3147 4750 3647 4120 
Q 4147 3491 4147 2328 
z
" id="DejaVuSans-Bold-30" transform="scale(0.015625)"/>
      </defs>
      <use xlink:href="#DejaVuSans-Bold-31"/>
      <use x="69.580078" xlink:href="#DejaVuSans-Bold-36"/>
      <use x="139.160156" xlink:href="#DejaVuSans-Bold-30"/>
     </g>
    </g>
    <g id="line2d_7">
     <path d="M 509.990366 588.360312 
L 529.990366 588.360312 
" style="fill:none;stroke:#1a283d;stroke-linecap:round;stroke-width:3;"/>
    </g>
    <g id="line2d_8"/>
    <g id="text_20">
     <!-- 200 -->
     <g style="fill:#262626;" transform="translate(537.990366 591.860312)scale(0.1 -0.1)">
      <defs>
       <path d="M 1844 884 
L 3897 884 
L 3897 0 
L 506 0 
L 506 884 
L 2209 2388 
Q 2438 2594 2547 2791 
Q 2656 2988 2656 3200 
Q 2656 3528 2436 3728 
Q 2216 3928 1850 3928 
Q 1569 3928 1234 3808 
Q 900 3688 519 3450 
L 519 4475 
Q 925 4609 1322 4679 
Q 1719 4750 2100 4750 
Q 2938 4750 3402 4381 
Q 3866 4013 3866 3353 
Q 3866 2972 3669 2642 
Q 3472 2313 2841 1759 
L 1844 884 
z
" id="DejaVuSans-Bold-32" transform="scale(0.015625)"/>
      </defs>
      <use xlink:href="#DejaVuSans-Bold-32"/>
      <use x="69.580078" xlink:href="#DejaVuSans-Bold-30"/>
      <use x="139.160156" xlink:href="#DejaVuSans-Bold-30"/>
     </g>
    </g>
   </g>
  </g>
  <g id="axes_2">
   <g id="patch_6">
    <path d="M 84.914375 92.305714 
L 567.863804 92.305714 
L 567.863804 7.2 
L 84.914375 7.2 
z
" style="fill:none;"/>
   </g>
   <g id="matplotlib.axis_3">
    <g id="xtick_7"/>
    <g id="xtick_8"/>
    <g id="xtick_9"/>
    <g id="xtick_10"/>
    <g id="xtick_11"/>
    <g id="xtick_12"/>
   </g>
   <g id="matplotlib.axis_4">
    <g id="ytick_10">
     <g id="text_21">
      <!-- 0 -->
      <g style="fill:#262626;" transform="translate(55.416875 100.663996)scale(0.22 -0.22)">
       <use xlink:href="#DejaVuSans-30"/>
      </g>
     </g>
    </g>
    <g id="ytick_11">
     <g id="text_22">
      <!-- 100 -->
      <g style="fill:#262626;" transform="translate(27.421875 48.032138)scale(0.22 -0.22)">
       <use xlink:href="#DejaVuSans-31"/>
       <use x="63.623047" xlink:href="#DejaVuSans-30"/>
       <use x="127.246094" xlink:href="#DejaVuSans-30"/>
      </g>
     </g>
    </g>
   </g>
   <g id="patch_7">
    <path clip-path="url(#pe53481ef5e)" d="M 106.866622 92.305714 
L 140.639309 92.305714 
L 140.639309 81.779343 
L 106.866622 81.779343 
z
" style="fill:#1a283d;fill-opacity:0.5;stroke:#ffffff;stroke-linejoin:miter;stroke-width:2;"/>
   </g>
   <g id="patch_8">
    <path clip-path="url(#pe53481ef5e)" d="M 140.639309 92.305714 
L 174.411996 92.305714 
L 174.411996 92.305714 
L 140.639309 92.305714 
z
" style="fill:#1a283d;fill-opacity:0.5;stroke:#ffffff;stroke-linejoin:miter;stroke-width:2;"/>
   </g>
   <g id="patch_9">
    <path clip-path="url(#pe53481ef5e)" d="M 174.411996 92.305714 
L 208.184684 92.305714 
L 208.184684 92.305714 
L 174.411996 92.305714 
z
" style="fill:#1a283d;fill-opacity:0.5;stroke:#ffffff;stroke-linejoin:miter;stroke-width:2;"/>
   </g>
   <g id="patch_10">
    <path clip-path="url(#pe53481ef5e)" d="M 208.184684 92.305714 
L 241.957371 92.305714 
L 241.957371 92.305714 
L 208.184684 92.305714 
z
" style="fill:#1a283d;fill-opacity:0.5;stroke:#ffffff;stroke-linejoin:miter;stroke-width:2;"/>
   </g>
   <g id="patch_11">
    <path clip-path="url(#pe53481ef5e)" d="M 241.957371 92.305714 
L 275.730058 92.305714 
L 275.730058 92.305714 
L 241.957371 92.305714 
z
" style="fill:#1a283d;fill-opacity:0.5;stroke:#ffffff;stroke-linejoin:miter;stroke-width:2;"/>
   </g>
   <g id="patch_12">
    <path clip-path="url(#pe53481ef5e)" d="M 275.730058 92.305714 
L 309.502746 92.305714 
L 309.502746 92.305714 
L 275.730058 92.305714 
z
" style="fill:#1a283d;fill-opacity:0.5;stroke:#ffffff;stroke-linejoin:miter;stroke-width:2;"/>
   </g>
   <g id="patch_13">
    <path clip-path="url(#pe53481ef5e)" d="M 309.502746 92.305714 
L 343.275433 92.305714 
L 343.275433 92.305714 
L 309.502746 92.305714 
z
" style="fill:#1a283d;fill-opacity:0.5;stroke:#ffffff;stroke-linejoin:miter;stroke-width:2;"/>
   </g>
   <g id="patch_14">
    <path clip-path="url(#pe53481ef5e)" d="M 343.275433 92.305714 
L 377.04812 92.305714 
L 377.04812 92.305714 
L 343.275433 92.305714 
z
" style="fill:#1a283d;fill-opacity:0.5;stroke:#ffffff;stroke-linejoin:miter;stroke-width:2;"/>
   </g>
   <g id="patch_15">
    <path clip-path="url(#pe53481ef5e)" d="M 377.04812 92.305714 
L 410.820808 92.305714 
L 410.820808 92.305714 
L 377.04812 92.305714 
z
" style="fill:#1a283d;fill-opacity:0.5;stroke:#ffffff;stroke-linejoin:miter;stroke-width:2;"/>
   </g>
   <g id="patch_16">
    <path clip-path="url(#pe53481ef5e)" d="M 410.820808 92.305714 
L 444.593495 92.305714 
L 444.593495 92.305714 
L 410.820808 92.305714 
z
" style="fill:#1a283d;fill-opacity:0.5;stroke:#ffffff;stroke-linejoin:miter;stroke-width:2;"/>
   </g>
   <g id="patch_17">
    <path clip-path="url(#pe53481ef5e)" d="M 444.593495 92.305714 
L 478.366182 92.305714 
L 478.366182 92.305714 
L 444.593495 92.305714 
z
" style="fill:#1a283d;fill-opacity:0.5;stroke:#ffffff;stroke-linejoin:miter;stroke-width:2;"/>
   </g>
   <g id="patch_18">
    <path clip-path="url(#pe53481ef5e)" d="M 478.366182 92.305714 
L 512.13887 92.305714 
L 512.13887 92.305714 
L 478.366182 92.305714 
z
" style="fill:#1a283d;fill-opacity:0.5;stroke:#ffffff;stroke-linejoin:miter;stroke-width:2;"/>
   </g>
   <g id="patch_19">
    <path clip-path="url(#pe53481ef5e)" d="M 512.13887 92.305714 
L 545.911557 92.305714 
L 545.911557 92.305714 
L 512.13887 92.305714 
z
" style="fill:#1a283d;fill-opacity:0.5;stroke:#ffffff;stroke-linejoin:miter;stroke-width:2;"/>
   </g>
   <g id="patch_20">
    <path clip-path="url(#pe53481ef5e)" d="M 106.866622 92.305714 
L 140.639309 92.305714 
L 140.639309 21.779025 
L 106.866622 21.779025 
z
" style="fill:#96c69a;fill-opacity:0.5;stroke:#ffffff;stroke-linejoin:miter;stroke-width:2;"/>
   </g>
   <g id="patch_21">
    <path clip-path="url(#pe53481ef5e)" d="M 140.639309 92.305714 
L 174.411996 92.305714 
L 174.411996 11.252653 
L 140.639309 11.252653 
z
" style="fill:#96c69a;fill-opacity:0.5;stroke:#ffffff;stroke-linejoin:miter;stroke-width:2;"/>
   </g>
   <g id="patch_22">
    <path clip-path="url(#pe53481ef5e)" d="M 174.411996 92.305714 
L 208.184684 92.305714 
L 208.184684 11.252653 
L 174.411996 11.252653 
z
" style="fill:#96c69a;fill-opacity:0.5;stroke:#ffffff;stroke-linejoin:miter;stroke-width:2;"/>
   </g>
   <g id="patch_23">
    <path clip-path="url(#pe53481ef5e)" d="M 208.184684 92.305714 
L 241.957371 92.305714 
L 241.957371 11.252653 
L 208.184684 11.252653 
z
" style="fill:#96c69a;fill-opacity:0.5;stroke:#ffffff;stroke-linejoin:miter;stroke-width:2;"/>
   </g>
   <g id="patch_24">
    <path clip-path="url(#pe53481ef5e)" d="M 241.957371 92.305714 
L 275.730058 92.305714 
L 275.730058 11.778972 
L 241.957371 11.778972 
z
" style="fill:#96c69a;fill-opacity:0.5;stroke:#ffffff;stroke-linejoin:miter;stroke-width:2;"/>
   </g>
   <g id="patch_25">
    <path clip-path="url(#pe53481ef5e)" d="M 275.730058 92.305714 
L 309.502746 92.305714 
L 309.502746 11.252653 
L 275.730058 11.252653 
z
" style="fill:#96c69a;fill-opacity:0.5;stroke:#ffffff;stroke-linejoin:miter;stroke-width:2;"/>
   </g>
   <g id="patch_26">
    <path clip-path="url(#pe53481ef5e)" d="M 309.502746 92.305714 
L 343.275433 92.305714 
L 343.275433 11.252653 
L 309.502746 11.252653 
z
" style="fill:#96c69a;fill-opacity:0.5;stroke:#ffffff;stroke-linejoin:miter;stroke-width:2;"/>
   </g>
   <g id="patch_27">
    <path clip-path="url(#pe53481ef5e)" d="M 343.275433 92.305714 
L 377.04812 92.305714 
L 377.04812 11.252653 
L 343.275433 11.252653 
z
" style="fill:#96c69a;fill-opacity:0.5;stroke:#ffffff;stroke-linejoin:miter;stroke-width:2;"/>
   </g>
   <g id="patch_28">
    <path clip-path="url(#pe53481ef5e)" d="M 377.04812 92.305714 
L 410.820808 92.305714 
L 410.820808 11.778972 
L 377.04812 11.778972 
z
" style="fill:#96c69a;fill-opacity:0.5;stroke:#ffffff;stroke-linejoin:miter;stroke-width:2;"/>
   </g>
   <g id="patch_29">
    <path clip-path="url(#pe53481ef5e)" d="M 410.820808 92.305714 
L 444.593495 92.305714 
L 444.593495 11.252653 
L 410.820808 11.252653 
z
" style="fill:#96c69a;fill-opacity:0.5;stroke:#ffffff;stroke-linejoin:miter;stroke-width:2;"/>
   </g>
   <g id="patch_30">
    <path clip-path="url(#pe53481ef5e)" d="M 444.593495 92.305714 
L 478.366182 92.305714 
L 478.366182 11.252653 
L 444.593495 11.252653 
z
" style="fill:#96c69a;fill-opacity:0.5;stroke:#ffffff;stroke-linejoin:miter;stroke-width:2;"/>
   </g>
   <g id="patch_31">
    <path clip-path="url(#pe53481ef5e)" d="M 478.366182 92.305714 
L 512.13887 92.305714 
L 512.13887 11.252653 
L 478.366182 11.252653 
z
" style="fill:#96c69a;fill-opacity:0.5;stroke:#ffffff;stroke-linejoin:miter;stroke-width:2;"/>
   </g>
   <g id="patch_32">
    <path clip-path="url(#pe53481ef5e)" d="M 512.13887 92.305714 
L 545.911557 92.305714 
L 545.911557 11.252653 
L 512.13887 11.252653 
z
" style="fill:#96c69a;fill-opacity:0.5;stroke:#ffffff;stroke-linejoin:miter;stroke-width:2;"/>
   </g>
   <g id="patch_33">
    <path d="M 84.914375 92.305714 
L 84.914375 7.2 
" style="fill:none;stroke:#262626;stroke-linecap:square;stroke-linejoin:miter;stroke-width:2.5;"/>
   </g>
   <g id="patch_34">
    <path d="M 84.914375 92.305714 
L 567.863804 92.305714 
" style="fill:none;stroke:#262626;stroke-linecap:square;stroke-linejoin:miter;stroke-width:2.5;"/>
   </g>
  </g>
  <g id="axes_3">
   <g id="patch_35">
    <path d="M 584.517232 602.94 
L 667.784375 602.94 
L 667.784375 109.326857 
L 584.517232 109.326857 
z
" style="fill:none;"/>
   </g>
   <g id="matplotlib.axis_5">
    <g id="xtick_13">
     <g id="text_23">
      <!-- 0 -->
      <g style="fill:#262626;" transform="translate(577.518482 635.156562)scale(0.22 -0.22)">
       <use xlink:href="#DejaVuSans-30"/>
      </g>
     </g>
    </g>
    <g id="xtick_14">
     <g id="text_24">
      <!-- 100 -->
      <g style="fill:#262626;" transform="translate(606.38695 635.156562)scale(0.22 -0.22)">
       <use xlink:href="#DejaVuSans-31"/>
       <use x="63.623047" xlink:href="#DejaVuSans-30"/>
       <use x="127.246094" xlink:href="#DejaVuSans-30"/>
      </g>
     </g>
    </g>
   </g>
   <g id="matplotlib.axis_6">
    <g id="ytick_12"/>
    <g id="ytick_13"/>
    <g id="ytick_14"/>
    <g id="ytick_15"/>
    <g id="ytick_16"/>
    <g id="ytick_17"/>
    <g id="ytick_18"/>
    <g id="ytick_19"/>
    <g id="ytick_20"/>
   </g>
   <g id="patch_36">
    <path clip-path="url(#pb88796f92b)" d="M 584.517232 580.503039 
L 584.517232 580.503039 
L 584.517232 568.038061 
L 584.517232 568.038061 
z
" style="fill:#1a283d;fill-opacity:0.5;stroke:#ffffff;stroke-linejoin:miter;stroke-width:1.246498;"/>
   </g>
   <g id="patch_37">
    <path clip-path="url(#pb88796f92b)" d="M 584.517232 568.038061 
L 584.517232 568.038061 
L 584.517232 555.573082 
L 584.517232 555.573082 
z
" style="fill:#1a283d;fill-opacity:0.5;stroke:#ffffff;stroke-linejoin:miter;stroke-width:1.246498;"/>
   </g>
   <g id="patch_38">
    <path clip-path="url(#pb88796f92b)" d="M 584.517232 555.573082 
L 584.517232 555.573082 
L 584.517232 543.108104 
L 584.517232 543.108104 
z
" style="fill:#1a283d;fill-opacity:0.5;stroke:#ffffff;stroke-linejoin:miter;stroke-width:1.246498;"/>
   </g>
   <g id="patch_39">
    <path clip-path="url(#pb88796f92b)" d="M 584.517232 543.108104 
L 584.517232 543.108104 
L 584.517232 530.643126 
L 584.517232 530.643126 
z
" style="fill:#1a283d;fill-opacity:0.5;stroke:#ffffff;stroke-linejoin:miter;stroke-width:1.246498;"/>
   </g>
   <g id="patch_40">
    <path clip-path="url(#pb88796f92b)" d="M 584.517232 530.643126 
L 584.517232 530.643126 
L 584.517232 518.178147 
L 584.517232 518.178147 
z
" style="fill:#1a283d;fill-opacity:0.5;stroke:#ffffff;stroke-linejoin:miter;stroke-width:1.246498;"/>
   </g>
   <g id="patch_41">
    <path clip-path="url(#pb88796f92b)" d="M 584.517232 518.178147 
L 585.803211 518.178147 
L 585.803211 505.713169 
L 584.517232 505.713169 
z
" style="fill:#1a283d;fill-opacity:0.5;stroke:#ffffff;stroke-linejoin:miter;stroke-width:1.246498;"/>
   </g>
   <g id="patch_42">
    <path clip-path="url(#pb88796f92b)" d="M 584.517232 505.713169 
L 585.374552 505.713169 
L 585.374552 493.24819 
L 584.517232 493.24819 
z
" style="fill:#1a283d;fill-opacity:0.5;stroke:#ffffff;stroke-linejoin:miter;stroke-width:1.246498;"/>
   </g>
   <g id="patch_43">
    <path clip-path="url(#pb88796f92b)" d="M 584.517232 493.24819 
L 585.803211 493.24819 
L 585.803211 480.783212 
L 584.517232 480.783212 
z
" style="fill:#1a283d;fill-opacity:0.5;stroke:#ffffff;stroke-linejoin:miter;stroke-width:1.246498;"/>
   </g>
   <g id="patch_44">
    <path clip-path="url(#pb88796f92b)" d="M 584.517232 480.783212 
L 584.945892 480.783212 
L 584.945892 468.318234 
L 584.517232 468.318234 
z
" style="fill:#1a283d;fill-opacity:0.5;stroke:#ffffff;stroke-linejoin:miter;stroke-width:1.246498;"/>
   </g>
   <g id="patch_45">
    <path clip-path="url(#pb88796f92b)" d="M 584.517232 468.318234 
L 584.517232 468.318234 
L 584.517232 455.853255 
L 584.517232 455.853255 
z
" style="fill:#1a283d;fill-opacity:0.5;stroke:#ffffff;stroke-linejoin:miter;stroke-width:1.246498;"/>
   </g>
   <g id="patch_46">
    <path clip-path="url(#pb88796f92b)" d="M 584.517232 455.853255 
L 585.803211 455.853255 
L 585.803211 443.388277 
L 584.517232 443.388277 
z
" style="fill:#1a283d;fill-opacity:0.5;stroke:#ffffff;stroke-linejoin:miter;stroke-width:1.246498;"/>
   </g>
   <g id="patch_47">
    <path clip-path="url(#pb88796f92b)" d="M 584.517232 443.388277 
L 584.945892 443.388277 
L 584.945892 430.923299 
L 584.517232 430.923299 
z
" style="fill:#1a283d;fill-opacity:0.5;stroke:#ffffff;stroke-linejoin:miter;stroke-width:1.246498;"/>
   </g>
   <g id="patch_48">
    <path clip-path="url(#pb88796f92b)" d="M 584.517232 430.923299 
L 584.945892 430.923299 
L 584.945892 418.45832 
L 584.517232 418.45832 
z
" style="fill:#1a283d;fill-opacity:0.5;stroke:#ffffff;stroke-linejoin:miter;stroke-width:1.246498;"/>
   </g>
   <g id="patch_49">
    <path clip-path="url(#pb88796f92b)" d="M 584.517232 418.45832 
L 584.517232 418.45832 
L 584.517232 405.993342 
L 584.517232 405.993342 
z
" style="fill:#1a283d;fill-opacity:0.5;stroke:#ffffff;stroke-linejoin:miter;stroke-width:1.246498;"/>
   </g>
   <g id="patch_50">
    <path clip-path="url(#pb88796f92b)" d="M 584.517232 405.993342 
L 585.374552 405.993342 
L 585.374552 393.528364 
L 584.517232 393.528364 
z
" style="fill:#1a283d;fill-opacity:0.5;stroke:#ffffff;stroke-linejoin:miter;stroke-width:1.246498;"/>
   </g>
   <g id="patch_51">
    <path clip-path="url(#pb88796f92b)" d="M 584.517232 393.528364 
L 584.945892 393.528364 
L 584.945892 381.063385 
L 584.517232 381.063385 
z
" style="fill:#1a283d;fill-opacity:0.5;stroke:#ffffff;stroke-linejoin:miter;stroke-width:1.246498;"/>
   </g>
   <g id="patch_52">
    <path clip-path="url(#pb88796f92b)" d="M 584.517232 381.063385 
L 584.517232 381.063385 
L 584.517232 368.598407 
L 584.517232 368.598407 
z
" style="fill:#1a283d;fill-opacity:0.5;stroke:#ffffff;stroke-linejoin:miter;stroke-width:1.246498;"/>
   </g>
   <g id="patch_53">
    <path clip-path="url(#pb88796f92b)" d="M 584.517232 368.598407 
L 584.945892 368.598407 
L 584.945892 356.133429 
L 584.517232 356.133429 
z
" style="fill:#1a283d;fill-opacity:0.5;stroke:#ffffff;stroke-linejoin:miter;stroke-width:1.246498;"/>
   </g>
   <g id="patch_54">
    <path clip-path="url(#pb88796f92b)" d="M 584.517232 356.133429 
L 584.945892 356.133429 
L 584.945892 343.66845 
L 584.517232 343.66845 
z
" style="fill:#1a283d;fill-opacity:0.5;stroke:#ffffff;stroke-linejoin:miter;stroke-width:1.246498;"/>
   </g>
   <g id="patch_55">
    <path clip-path="url(#pb88796f92b)" d="M 584.517232 343.66845 
L 584.517232 343.66845 
L 584.517232 331.203472 
L 584.517232 331.203472 
z
" style="fill:#1a283d;fill-opacity:0.5;stroke:#ffffff;stroke-linejoin:miter;stroke-width:1.246498;"/>
   </g>
   <g id="patch_56">
    <path clip-path="url(#pb88796f92b)" d="M 584.517232 331.203472 
L 584.517232 331.203472 
L 584.517232 318.738494 
L 584.517232 318.738494 
z
" style="fill:#1a283d;fill-opacity:0.5;stroke:#ffffff;stroke-linejoin:miter;stroke-width:1.246498;"/>
   </g>
   <g id="patch_57">
    <path clip-path="url(#pb88796f92b)" d="M 584.517232 318.738494 
L 584.517232 318.738494 
L 584.517232 306.273515 
L 584.517232 306.273515 
z
" style="fill:#1a283d;fill-opacity:0.5;stroke:#ffffff;stroke-linejoin:miter;stroke-width:1.246498;"/>
   </g>
   <g id="patch_58">
    <path clip-path="url(#pb88796f92b)" d="M 584.517232 306.273515 
L 584.945892 306.273515 
L 584.945892 293.808537 
L 584.517232 293.808537 
z
" style="fill:#1a283d;fill-opacity:0.5;stroke:#ffffff;stroke-linejoin:miter;stroke-width:1.246498;"/>
   </g>
   <g id="patch_59">
    <path clip-path="url(#pb88796f92b)" d="M 584.517232 293.808537 
L 584.517232 293.808537 
L 584.517232 281.343558 
L 584.517232 281.343558 
z
" style="fill:#1a283d;fill-opacity:0.5;stroke:#ffffff;stroke-linejoin:miter;stroke-width:1.246498;"/>
   </g>
   <g id="patch_60">
    <path clip-path="url(#pb88796f92b)" d="M 584.517232 281.343558 
L 584.517232 281.343558 
L 584.517232 268.87858 
L 584.517232 268.87858 
z
" style="fill:#1a283d;fill-opacity:0.5;stroke:#ffffff;stroke-linejoin:miter;stroke-width:1.246498;"/>
   </g>
   <g id="patch_61">
    <path clip-path="url(#pb88796f92b)" d="M 584.517232 268.87858 
L 584.517232 268.87858 
L 584.517232 256.413602 
L 584.517232 256.413602 
z
" style="fill:#1a283d;fill-opacity:0.5;stroke:#ffffff;stroke-linejoin:miter;stroke-width:1.246498;"/>
   </g>
   <g id="patch_62">
    <path clip-path="url(#pb88796f92b)" d="M 584.517232 256.413602 
L 584.517232 256.413602 
L 584.517232 243.948623 
L 584.517232 243.948623 
z
" style="fill:#1a283d;fill-opacity:0.5;stroke:#ffffff;stroke-linejoin:miter;stroke-width:1.246498;"/>
   </g>
   <g id="patch_63">
    <path clip-path="url(#pb88796f92b)" d="M 584.517232 243.948623 
L 584.517232 243.948623 
L 584.517232 231.483645 
L 584.517232 231.483645 
z
" style="fill:#1a283d;fill-opacity:0.5;stroke:#ffffff;stroke-linejoin:miter;stroke-width:1.246498;"/>
   </g>
   <g id="patch_64">
    <path clip-path="url(#pb88796f92b)" d="M 584.517232 231.483645 
L 584.517232 231.483645 
L 584.517232 219.018667 
L 584.517232 219.018667 
z
" style="fill:#1a283d;fill-opacity:0.5;stroke:#ffffff;stroke-linejoin:miter;stroke-width:1.246498;"/>
   </g>
   <g id="patch_65">
    <path clip-path="url(#pb88796f92b)" d="M 584.517232 219.018667 
L 584.517232 219.018667 
L 584.517232 206.553688 
L 584.517232 206.553688 
z
" style="fill:#1a283d;fill-opacity:0.5;stroke:#ffffff;stroke-linejoin:miter;stroke-width:1.246498;"/>
   </g>
   <g id="patch_66">
    <path clip-path="url(#pb88796f92b)" d="M 584.517232 206.553688 
L 584.517232 206.553688 
L 584.517232 194.08871 
L 584.517232 194.08871 
z
" style="fill:#1a283d;fill-opacity:0.5;stroke:#ffffff;stroke-linejoin:miter;stroke-width:1.246498;"/>
   </g>
   <g id="patch_67">
    <path clip-path="url(#pb88796f92b)" d="M 584.517232 194.08871 
L 584.517232 194.08871 
L 584.517232 181.623732 
L 584.517232 181.623732 
z
" style="fill:#1a283d;fill-opacity:0.5;stroke:#ffffff;stroke-linejoin:miter;stroke-width:1.246498;"/>
   </g>
   <g id="patch_68">
    <path clip-path="url(#pb88796f92b)" d="M 584.517232 181.623732 
L 584.517232 181.623732 
L 584.517232 169.158753 
L 584.517232 169.158753 
z
" style="fill:#1a283d;fill-opacity:0.5;stroke:#ffffff;stroke-linejoin:miter;stroke-width:1.246498;"/>
   </g>
   <g id="patch_69">
    <path clip-path="url(#pb88796f92b)" d="M 584.517232 169.158753 
L 584.517232 169.158753 
L 584.517232 156.693775 
L 584.517232 156.693775 
z
" style="fill:#1a283d;fill-opacity:0.5;stroke:#ffffff;stroke-linejoin:miter;stroke-width:1.246498;"/>
   </g>
   <g id="patch_70">
    <path clip-path="url(#pb88796f92b)" d="M 584.517232 156.693775 
L 584.517232 156.693775 
L 584.517232 144.228797 
L 584.517232 144.228797 
z
" style="fill:#1a283d;fill-opacity:0.5;stroke:#ffffff;stroke-linejoin:miter;stroke-width:1.246498;"/>
   </g>
   <g id="patch_71">
    <path clip-path="url(#pb88796f92b)" d="M 584.517232 144.228797 
L 584.517232 144.228797 
L 584.517232 131.763818 
L 584.517232 131.763818 
z
" style="fill:#1a283d;fill-opacity:0.5;stroke:#ffffff;stroke-linejoin:miter;stroke-width:1.246498;"/>
   </g>
   <g id="patch_72">
    <path clip-path="url(#pb88796f92b)" d="M 584.517232 580.503039 
L 587.08919 580.503039 
L 587.08919 568.038061 
L 584.517232 568.038061 
z
" style="fill:#96c69a;fill-opacity:0.5;stroke:#ffffff;stroke-linejoin:miter;stroke-width:1.246498;"/>
   </g>
   <g id="patch_73">
    <path clip-path="url(#pb88796f92b)" d="M 584.517232 568.038061 
L 586.660531 568.038061 
L 586.660531 555.573082 
L 584.517232 555.573082 
z
" style="fill:#96c69a;fill-opacity:0.5;stroke:#ffffff;stroke-linejoin:miter;stroke-width:1.246498;"/>
   </g>
   <g id="patch_74">
    <path clip-path="url(#pb88796f92b)" d="M 584.517232 555.573082 
L 590.947127 555.573082 
L 590.947127 543.108104 
L 584.517232 543.108104 
z
" style="fill:#96c69a;fill-opacity:0.5;stroke:#ffffff;stroke-linejoin:miter;stroke-width:1.246498;"/>
   </g>
   <g id="patch_75">
    <path clip-path="url(#pb88796f92b)" d="M 584.517232 543.108104 
L 594.805064 543.108104 
L 594.805064 530.643126 
L 584.517232 530.643126 
z
" style="fill:#96c69a;fill-opacity:0.5;stroke:#ffffff;stroke-linejoin:miter;stroke-width:1.246498;"/>
   </g>
   <g id="patch_76">
    <path clip-path="url(#pb88796f92b)" d="M 584.517232 530.643126 
L 603.806918 530.643126 
L 603.806918 518.178147 
L 584.517232 518.178147 
z
" style="fill:#96c69a;fill-opacity:0.5;stroke:#ffffff;stroke-linejoin:miter;stroke-width:1.246498;"/>
   </g>
   <g id="patch_77">
    <path clip-path="url(#pb88796f92b)" d="M 584.517232 518.178147 
L 622.239284 518.178147 
L 622.239284 505.713169 
L 584.517232 505.713169 
z
" style="fill:#96c69a;fill-opacity:0.5;stroke:#ffffff;stroke-linejoin:miter;stroke-width:1.246498;"/>
   </g>
   <g id="patch_78">
    <path clip-path="url(#pb88796f92b)" d="M 584.517232 505.713169 
L 632.955776 505.713169 
L 632.955776 493.24819 
L 584.517232 493.24819 
z
" style="fill:#96c69a;fill-opacity:0.5;stroke:#ffffff;stroke-linejoin:miter;stroke-width:1.246498;"/>
   </g>
   <g id="patch_79">
    <path clip-path="url(#pb88796f92b)" d="M 584.517232 493.24819 
L 642.386289 493.24819 
L 642.386289 480.783212 
L 584.517232 480.783212 
z
" style="fill:#96c69a;fill-opacity:0.5;stroke:#ffffff;stroke-linejoin:miter;stroke-width:1.246498;"/>
   </g>
   <g id="patch_80">
    <path clip-path="url(#pb88796f92b)" d="M 584.517232 480.783212 
L 663.819273 480.783212 
L 663.819273 468.318234 
L 584.517232 468.318234 
z
" style="fill:#96c69a;fill-opacity:0.5;stroke:#ffffff;stroke-linejoin:miter;stroke-width:1.246498;"/>
   </g>
   <g id="patch_81">
    <path clip-path="url(#pb88796f92b)" d="M 584.517232 468.318234 
L 653.9601 468.318234 
L 653.9601 455.853255 
L 584.517232 455.853255 
z
" style="fill:#96c69a;fill-opacity:0.5;stroke:#ffffff;stroke-linejoin:miter;stroke-width:1.246498;"/>
   </g>
   <g id="patch_82">
    <path clip-path="url(#pb88796f92b)" d="M 584.517232 455.853255 
L 653.102781 455.853255 
L 653.102781 443.388277 
L 584.517232 443.388277 
z
" style="fill:#96c69a;fill-opacity:0.5;stroke:#ffffff;stroke-linejoin:miter;stroke-width:1.246498;"/>
   </g>
   <g id="patch_83">
    <path clip-path="url(#pb88796f92b)" d="M 584.517232 443.388277 
L 647.958865 443.388277 
L 647.958865 430.923299 
L 584.517232 430.923299 
z
" style="fill:#96c69a;fill-opacity:0.5;stroke:#ffffff;stroke-linejoin:miter;stroke-width:1.246498;"/>
   </g>
   <g id="patch_84">
    <path clip-path="url(#pb88796f92b)" d="M 584.517232 430.923299 
L 658.246697 430.923299 
L 658.246697 418.45832 
L 584.517232 418.45832 
z
" style="fill:#96c69a;fill-opacity:0.5;stroke:#ffffff;stroke-linejoin:miter;stroke-width:1.246498;"/>
   </g>
   <g id="patch_85">
    <path clip-path="url(#pb88796f92b)" d="M 584.517232 418.45832 
L 644.958247 418.45832 
L 644.958247 405.993342 
L 584.517232 405.993342 
z
" style="fill:#96c69a;fill-opacity:0.5;stroke:#ffffff;stroke-linejoin:miter;stroke-width:1.246498;"/>
   </g>
   <g id="patch_86">
    <path clip-path="url(#pb88796f92b)" d="M 584.517232 405.993342 
L 633.813095 405.993342 
L 633.813095 393.528364 
L 584.517232 393.528364 
z
" style="fill:#96c69a;fill-opacity:0.5;stroke:#ffffff;stroke-linejoin:miter;stroke-width:1.246498;"/>
   </g>
   <g id="patch_87">
    <path clip-path="url(#pb88796f92b)" d="M 584.517232 393.528364 
L 632.098457 393.528364 
L 632.098457 381.063385 
L 584.517232 381.063385 
z
" style="fill:#96c69a;fill-opacity:0.5;stroke:#ffffff;stroke-linejoin:miter;stroke-width:1.246498;"/>
   </g>
   <g id="patch_88">
    <path clip-path="url(#pb88796f92b)" d="M 584.517232 381.063385 
L 614.52341 381.063385 
L 614.52341 368.598407 
L 584.517232 368.598407 
z
" style="fill:#96c69a;fill-opacity:0.5;stroke:#ffffff;stroke-linejoin:miter;stroke-width:1.246498;"/>
   </g>
   <g id="patch_89">
    <path clip-path="url(#pb88796f92b)" d="M 584.517232 368.598407 
L 616.666708 368.598407 
L 616.666708 356.133429 
L 584.517232 356.133429 
z
" style="fill:#96c69a;fill-opacity:0.5;stroke:#ffffff;stroke-linejoin:miter;stroke-width:1.246498;"/>
   </g>
   <g id="patch_90">
    <path clip-path="url(#pb88796f92b)" d="M 584.517232 356.133429 
L 606.807536 356.133429 
L 606.807536 343.66845 
L 584.517232 343.66845 
z
" style="fill:#96c69a;fill-opacity:0.5;stroke:#ffffff;stroke-linejoin:miter;stroke-width:1.246498;"/>
   </g>
   <g id="patch_91">
    <path clip-path="url(#pb88796f92b)" d="M 584.517232 343.66845 
L 599.091661 343.66845 
L 599.091661 331.203472 
L 584.517232 331.203472 
z
" style="fill:#96c69a;fill-opacity:0.5;stroke:#ffffff;stroke-linejoin:miter;stroke-width:1.246498;"/>
   </g>
   <g id="patch_92">
    <path clip-path="url(#pb88796f92b)" d="M 584.517232 331.203472 
L 597.805682 331.203472 
L 597.805682 318.738494 
L 584.517232 318.738494 
z
" style="fill:#96c69a;fill-opacity:0.5;stroke:#ffffff;stroke-linejoin:miter;stroke-width:1.246498;"/>
   </g>
   <g id="patch_93">
    <path clip-path="url(#pb88796f92b)" d="M 584.517232 318.738494 
L 595.662384 318.738494 
L 595.662384 306.273515 
L 584.517232 306.273515 
z
" style="fill:#96c69a;fill-opacity:0.5;stroke:#ffffff;stroke-linejoin:miter;stroke-width:1.246498;"/>
   </g>
   <g id="patch_94">
    <path clip-path="url(#pb88796f92b)" d="M 584.517232 306.273515 
L 590.518468 306.273515 
L 590.518468 293.808537 
L 584.517232 293.808537 
z
" style="fill:#96c69a;fill-opacity:0.5;stroke:#ffffff;stroke-linejoin:miter;stroke-width:1.246498;"/>
   </g>
   <g id="patch_95">
    <path clip-path="url(#pb88796f92b)" d="M 584.517232 293.808537 
L 593.947745 293.808537 
L 593.947745 281.343558 
L 584.517232 281.343558 
z
" style="fill:#96c69a;fill-opacity:0.5;stroke:#ffffff;stroke-linejoin:miter;stroke-width:1.246498;"/>
   </g>
   <g id="patch_96">
    <path clip-path="url(#pb88796f92b)" d="M 584.517232 281.343558 
L 585.803211 281.343558 
L 585.803211 268.87858 
L 584.517232 268.87858 
z
" style="fill:#96c69a;fill-opacity:0.5;stroke:#ffffff;stroke-linejoin:miter;stroke-width:1.246498;"/>
   </g>
   <g id="patch_97">
    <path clip-path="url(#pb88796f92b)" d="M 584.517232 268.87858 
L 587.08919 268.87858 
L 587.08919 256.413602 
L 584.517232 256.413602 
z
" style="fill:#96c69a;fill-opacity:0.5;stroke:#ffffff;stroke-linejoin:miter;stroke-width:1.246498;"/>
   </g>
   <g id="patch_98">
    <path clip-path="url(#pb88796f92b)" d="M 584.517232 256.413602 
L 586.231871 256.413602 
L 586.231871 243.948623 
L 584.517232 243.948623 
z
" style="fill:#96c69a;fill-opacity:0.5;stroke:#ffffff;stroke-linejoin:miter;stroke-width:1.246498;"/>
   </g>
   <g id="patch_99">
    <path clip-path="url(#pb88796f92b)" d="M 584.517232 243.948623 
L 587.51785 243.948623 
L 587.51785 231.483645 
L 584.517232 231.483645 
z
" style="fill:#96c69a;fill-opacity:0.5;stroke:#ffffff;stroke-linejoin:miter;stroke-width:1.246498;"/>
   </g>
   <g id="patch_100">
    <path clip-path="url(#pb88796f92b)" d="M 584.517232 231.483645 
L 585.374552 231.483645 
L 585.374552 219.018667 
L 584.517232 219.018667 
z
" style="fill:#96c69a;fill-opacity:0.5;stroke:#ffffff;stroke-linejoin:miter;stroke-width:1.246498;"/>
   </g>
   <g id="patch_101">
    <path clip-path="url(#pb88796f92b)" d="M 584.517232 219.018667 
L 584.945892 219.018667 
L 584.945892 206.553688 
L 584.517232 206.553688 
z
" style="fill:#96c69a;fill-opacity:0.5;stroke:#ffffff;stroke-linejoin:miter;stroke-width:1.246498;"/>
   </g>
   <g id="patch_102">
    <path clip-path="url(#pb88796f92b)" d="M 584.517232 206.553688 
L 585.803211 206.553688 
L 585.803211 194.08871 
L 584.517232 194.08871 
z
" style="fill:#96c69a;fill-opacity:0.5;stroke:#ffffff;stroke-linejoin:miter;stroke-width:1.246498;"/>
   </g>
   <g id="patch_103">
    <path clip-path="url(#pb88796f92b)" d="M 584.517232 194.08871 
L 584.945892 194.08871 
L 584.945892 181.623732 
L 584.517232 181.623732 
z
" style="fill:#96c69a;fill-opacity:0.5;stroke:#ffffff;stroke-linejoin:miter;stroke-width:1.246498;"/>
   </g>
   <g id="patch_104">
    <path clip-path="url(#pb88796f92b)" d="M 584.517232 181.623732 
L 585.803211 181.623732 
L 585.803211 169.158753 
L 584.517232 169.158753 
z
" style="fill:#96c69a;fill-opacity:0.5;stroke:#ffffff;stroke-linejoin:miter;stroke-width:1.246498;"/>
   </g>
   <g id="patch_105">
    <path clip-path="url(#pb88796f92b)" d="M 584.517232 169.158753 
L 584.517232 169.158753 
L 584.517232 156.693775 
L 584.517232 156.693775 
z
" style="fill:#96c69a;fill-opacity:0.5;stroke:#ffffff;stroke-linejoin:miter;stroke-width:1.246498;"/>
   </g>
   <g id="patch_106">
    <path clip-path="url(#pb88796f92b)" d="M 584.517232 156.693775 
L 584.517232 156.693775 
L 584.517232 144.228797 
L 584.517232 144.228797 
z
" style="fill:#96c69a;fill-opacity:0.5;stroke:#ffffff;stroke-linejoin:miter;stroke-width:1.246498;"/>
   </g>
   <g id="patch_107">
    <path clip-path="url(#pb88796f92b)" d="M 584.517232 144.228797 
L 584.945892 144.228797 
L 584.945892 131.763818 
L 584.517232 131.763818 
z
" style="fill:#96c69a;fill-opacity:0.5;stroke:#ffffff;stroke-linejoin:miter;stroke-width:1.246498;"/>
   </g>
   <g id="patch_108">
    <path d="M 584.517232 602.94 
L 584.517232 109.326857 
" style="fill:none;stroke:#262626;stroke-linecap:square;stroke-linejoin:miter;stroke-width:2.5;"/>
   </g>
   <g id="patch_109">
    <path d="M 584.517232 602.94 
L 667.784375 602.94 
" style="fill:none;stroke:#262626;stroke-linecap:square;stroke-linejoin:miter;stroke-width:2.5;"/>
   </g>
  </g>
 </g>
 <defs>
  <clipPath id="p1ed2833e00">
   <rect height="493.613143" width="482.949429" x="84.914375" y="109.326857"/>
  </clipPath>
  <clipPath id="pe53481ef5e">
   <rect height="85.105714" width="482.949429" x="84.914375" y="7.2"/>
  </clipPath>
  <clipPath id="pb88796f92b">
   <rect height="493.613143" width="83.267143" x="584.517232" y="109.326857"/>
  </clipPath>
 </defs>
</svg>
