<?xml version="1.0" encoding="utf-8" standalone="no"?>
<!DOCTYPE svg PUBLIC "-//W3C//DTD SVG 1.1//EN"
  "http://www.w3.org/Graphics/SVG/1.1/DTD/svg11.dtd">
<svg height="311.267375pt" version="1.1" viewBox="0 0 352.847472 311.267375" width="352.847472pt" xmlns="http://www.w3.org/2000/svg" xmlns:xlink="http://www.w3.org/1999/xlink">
 <metadata>
  <rdf:RDF xmlns:cc="http://creativecommons.org/ns#" xmlns:dc="http://purl.org/dc/elements/1.1/" xmlns:rdf="http://www.w3.org/1999/02/22-rdf-syntax-ns#">
   <cc:Work>
    <dc:type rdf:resource="http://purl.org/dc/dcmitype/StillImage"/>
    <dc:date>2021-07-24T15:31:24.374214</dc:date>
    <dc:format>image/svg+xml</dc:format>
    <dc:creator>
     <cc:Agent>
      <dc:title>Matplotlib v3.4.2, https://matplotlib.org/</dc:title>
     </cc:Agent>
    </dc:creator>
   </cc:Work>
  </rdf:RDF>
 </metadata>
 <defs>
  <style type="text/css">*{stroke-linecap:butt;stroke-linejoin:round;}</style>
 </defs>
 <g id="figure_1">
  <g id="patch_1">
   <path d="M 0 311.267375 
L 352.847472 311.267375 
L 352.847472 0 
L 0 0 
z
" style="fill:#ffffff;"/>
  </g>
  <g id="axes_1">
   <g id="patch_2">
    <path d="M 10.847472 49.536 
L 345.647472 49.536 
L 345.647472 7.2 
L 10.847472 7.2 
z
" style="fill:none;"/>
   </g>
   <g id="matplotlib.axis_1">
    <g id="xtick_1"/>
    <g id="xtick_2"/>
    <g id="xtick_3"/>
    <g id="xtick_4"/>
   </g>
   <g id="matplotlib.axis_2"/>
   <g id="PolyCollection_1">
    <defs>
     <path d="M 51.620068 -261.733667 
L 51.620068 -261.731375 
L 52.032291 -261.731375 
L 52.444514 -261.731375 
L 52.856737 -261.731375 
L 53.26896 -261.731375 
L 53.681183 -261.731375 
L 54.093406 -261.731375 
L 54.505628 -261.731375 
L 54.917851 -261.731375 
L 55.330074 -261.731375 
L 55.742297 -261.731375 
L 56.15452 -261.731375 
L 56.566743 -261.731375 
L 56.978966 -261.731375 
L 57.391189 -261.731375 
L 57.803412 -261.731375 
L 58.215635 -261.731375 
L 58.627858 -261.731375 
L 59.040081 -261.731375 
L 59.452304 -261.731375 
L 59.864527 -261.731375 
L 60.27675 -261.731375 
L 60.688973 -261.731375 
L 61.101195 -261.731375 
L 61.513418 -261.731375 
L 61.925641 -261.731375 
L 62.337864 -261.731375 
L 62.750087 -261.731375 
L 63.16231 -261.731375 
L 63.574533 -261.731375 
L 63.986756 -261.731375 
L 64.398979 -261.731375 
L 64.811202 -261.731375 
L 65.223425 -261.731375 
L 65.635648 -261.731375 
L 66.047871 -261.731375 
L 66.460094 -261.731375 
L 66.872317 -261.731375 
L 67.28454 -261.731375 
L 67.696762 -261.731375 
L 68.108985 -261.731375 
L 68.521208 -261.731375 
L 68.933431 -261.731375 
L 69.345654 -261.731375 
L 69.757877 -261.731375 
L 70.1701 -261.731375 
L 70.582323 -261.731375 
L 70.994546 -261.731375 
L 71.406769 -261.731375 
L 71.818992 -261.731375 
L 72.231215 -261.731375 
L 72.643438 -261.731375 
L 73.055661 -261.731375 
L 73.467884 -261.731375 
L 73.880107 -261.731375 
L 74.29233 -261.731375 
L 74.704552 -261.731375 
L 75.116775 -261.731375 
L 75.528998 -261.731375 
L 75.941221 -261.731375 
L 76.353444 -261.731375 
L 76.765667 -261.731375 
L 77.17789 -261.731375 
L 77.590113 -261.731375 
L 78.002336 -261.731375 
L 78.414559 -261.731375 
L 78.826782 -261.731375 
L 79.239005 -261.731375 
L 79.651228 -261.731375 
L 80.063451 -261.731375 
L 80.475674 -261.731375 
L 80.887897 -261.731375 
L 81.300119 -261.731375 
L 81.712342 -261.731375 
L 82.124565 -261.731375 
L 82.536788 -261.731375 
L 82.949011 -261.731375 
L 83.361234 -261.731375 
L 83.773457 -261.731375 
L 84.18568 -261.731375 
L 84.597903 -261.731375 
L 85.010126 -261.731375 
L 85.422349 -261.731375 
L 85.834572 -261.731375 
L 86.246795 -261.731375 
L 86.659018 -261.731375 
L 87.071241 -261.731375 
L 87.483464 -261.731375 
L 87.895687 -261.731375 
L 88.307909 -261.731375 
L 88.720132 -261.731375 
L 89.132355 -261.731375 
L 89.544578 -261.731375 
L 89.956801 -261.731375 
L 90.369024 -261.731375 
L 90.781247 -261.731375 
L 91.19347 -261.731375 
L 91.605693 -261.731375 
L 92.017916 -261.731375 
L 92.430139 -261.731375 
L 92.842362 -261.731375 
L 93.254585 -261.731375 
L 93.666808 -261.731375 
L 94.079031 -261.731375 
L 94.491254 -261.731375 
L 94.903476 -261.731375 
L 95.315699 -261.731375 
L 95.727922 -261.731375 
L 96.140145 -261.731375 
L 96.552368 -261.731375 
L 96.964591 -261.731375 
L 97.376814 -261.731375 
L 97.789037 -261.731375 
L 98.20126 -261.731375 
L 98.613483 -261.731375 
L 99.025706 -261.731375 
L 99.437929 -261.731375 
L 99.850152 -261.731375 
L 100.262375 -261.731375 
L 100.674598 -261.731375 
L 101.086821 -261.731375 
L 101.499043 -261.731375 
L 101.911266 -261.731375 
L 102.323489 -261.731375 
L 102.735712 -261.731375 
L 103.147935 -261.731375 
L 103.560158 -261.731375 
L 103.972381 -261.731375 
L 104.384604 -261.731375 
L 104.796827 -261.731375 
L 105.20905 -261.731375 
L 105.621273 -261.731375 
L 106.033496 -261.731375 
L 106.445719 -261.731375 
L 106.857942 -261.731375 
L 107.270165 -261.731375 
L 107.682388 -261.731375 
L 108.094611 -261.731375 
L 108.506833 -261.731375 
L 108.919056 -261.731375 
L 109.331279 -261.731375 
L 109.743502 -261.731375 
L 110.155725 -261.731375 
L 110.567948 -261.731375 
L 110.980171 -261.731375 
L 111.392394 -261.731375 
L 111.804617 -261.731375 
L 112.21684 -261.731375 
L 112.629063 -261.731375 
L 113.041286 -261.731375 
L 113.453509 -261.731375 
L 113.865732 -261.731375 
L 114.277955 -261.731375 
L 114.690178 -261.731375 
L 115.1024 -261.731375 
L 115.514623 -261.731375 
L 115.926846 -261.731375 
L 116.339069 -261.731375 
L 116.751292 -261.731375 
L 117.163515 -261.731375 
L 117.575738 -261.731375 
L 117.987961 -261.731375 
L 118.400184 -261.731375 
L 118.812407 -261.731375 
L 119.22463 -261.731375 
L 119.636853 -261.731375 
L 120.049076 -261.731375 
L 120.461299 -261.731375 
L 120.873522 -261.731375 
L 121.285745 -261.731375 
L 121.697968 -261.731375 
L 122.11019 -261.731375 
L 122.522413 -261.731375 
L 122.934636 -261.731375 
L 123.346859 -261.731375 
L 123.759082 -261.731375 
L 124.171305 -261.731375 
L 124.583528 -261.731375 
L 124.995751 -261.731375 
L 125.407974 -261.731375 
L 125.820197 -261.731375 
L 126.23242 -261.731375 
L 126.644643 -261.731375 
L 127.056866 -261.731375 
L 127.469089 -261.731375 
L 127.881312 -261.731375 
L 128.293535 -261.731375 
L 128.705757 -261.731375 
L 129.11798 -261.731375 
L 129.530203 -261.731375 
L 129.942426 -261.731375 
L 130.354649 -261.731375 
L 130.766872 -261.731375 
L 131.179095 -261.731375 
L 131.591318 -261.731375 
L 132.003541 -261.731375 
L 132.415764 -261.731375 
L 132.827987 -261.731375 
L 133.24021 -261.731375 
L 133.652433 -261.731375 
L 133.652433 -261.733388 
L 133.652433 -261.733388 
L 133.24021 -261.736385 
L 132.827987 -261.742683 
L 132.415764 -261.754578 
L 132.003541 -261.774823 
L 131.591318 -261.806046 
L 131.179095 -261.850154 
L 130.766872 -261.908263 
L 130.354649 -261.981406 
L 129.942426 -262.071408 
L 129.530203 -262.180497 
L 129.11798 -262.308607 
L 128.705757 -262.449275 
L 128.293535 -262.587118 
L 127.881312 -262.700043 
L 127.469089 -262.766669 
L 127.056866 -262.775558 
L 126.644643 -262.730921 
L 126.23242 -262.651267 
L 125.820197 -262.561873 
L 125.407974 -262.485798 
L 124.995751 -262.438498 
L 124.583528 -262.427632 
L 124.171305 -262.455346 
L 123.759082 -262.518948 
L 123.346859 -262.608891 
L 122.934636 -262.707334 
L 122.522413 -262.791687 
L 122.11019 -262.84362 
L 121.697968 -262.858593 
L 121.285745 -262.849301 
L 120.873522 -262.840355 
L 120.461299 -262.857579 
L 120.049076 -262.918394 
L 119.636853 -263.02804 
L 119.22463 -263.182046 
L 118.812407 -263.371776 
L 118.400184 -263.589 
L 117.987961 -263.827267 
L 117.575738 -264.080703 
L 117.163515 -264.342619 
L 116.751292 -264.605644 
L 116.339069 -264.86289 
L 115.926846 -265.108325 
L 115.514623 -265.335577 
L 115.1024 -265.536835 
L 114.690178 -265.704713 
L 114.277955 -265.838433 
L 113.865732 -265.952267 
L 113.453509 -266.081063 
L 113.041286 -266.277273 
L 112.629063 -266.596919 
L 112.21684 -267.077579 
L 111.804617 -267.717042 
L 111.392394 -268.463455 
L 110.980171 -269.224508 
L 110.567948 -269.895222 
L 110.155725 -270.394687 
L 109.743502 -270.696477 
L 109.331279 -270.838654 
L 108.919056 -270.907567 
L 108.506833 -271.001826 
L 108.094611 -271.193187 
L 107.682388 -271.503462 
L 107.270165 -271.908366 
L 106.857942 -272.363658 
L 106.445719 -272.835234 
L 106.033496 -273.312828 
L 105.621273 -273.799692 
L 105.20905 -274.289908 
L 104.796827 -274.755921 
L 104.384604 -275.161292 
L 103.972381 -275.492211 
L 103.560158 -275.783685 
L 103.147935 -276.118056 
L 102.735712 -276.593945 
L 102.323489 -277.28516 
L 101.911266 -278.213913 
L 101.499043 -279.349074 
L 101.086821 -280.622435 
L 100.674598 -281.948889 
L 100.262375 -283.241974 
L 99.850152 -284.425135 
L 99.437929 -285.442155 
L 99.025706 -286.266711 
L 98.613483 -286.906791 
L 98.20126 -287.40019 
L 97.789037 -287.802566 
L 97.376814 -288.174233 
L 96.964591 -288.57027 
L 96.552368 -289.031991 
L 96.140145 -289.574619 
L 95.727922 -290.172382 
L 95.315699 -290.753356 
L 94.903476 -291.218438 
L 94.491254 -291.484648 
L 94.079031 -291.531824 
L 93.666808 -291.423054 
L 93.254585 -291.283478 
L 92.842362 -291.249645 
L 92.430139 -291.420541 
L 92.017916 -291.837185 
L 91.605693 -292.494926 
L 91.19347 -293.370059 
L 90.781247 -294.436611 
L 90.369024 -295.662233 
L 89.956801 -296.991859 
L 89.544578 -298.338135 
L 89.132355 -299.591437 
L 88.720132 -300.645918 
L 88.307909 -301.425389 
L 87.895687 -301.894156 
L 87.483464 -302.051375 
L 87.071241 -301.921261 
L 86.659018 -301.552758 
L 86.246795 -301.029331 
L 85.834572 -300.473738 
L 85.422349 -300.029936 
L 85.010126 -299.819839 
L 84.597903 -299.894488 
L 84.18568 -300.208483 
L 83.773457 -300.634573 
L 83.361234 -301.011462 
L 82.949011 -301.199808 
L 82.536788 -301.12045 
L 82.124565 -300.76304 
L 81.712342 -300.170903 
L 81.300119 -299.417642 
L 80.887897 -298.588045 
L 80.475674 -297.765195 
L 80.063451 -297.017574 
L 79.651228 -296.381777 
L 79.239005 -295.846241 
L 78.826782 -295.348976 
L 78.414559 -294.798512 
L 78.002336 -294.11283 
L 77.590113 -293.257168 
L 77.17789 -292.260087 
L 76.765667 -291.199671 
L 76.353444 -290.168552 
L 75.941221 -289.235931 
L 75.528998 -288.42293 
L 75.116775 -287.698899 
L 74.704552 -286.997325 
L 74.29233 -286.243642 
L 73.880107 -285.383578 
L 73.467884 -284.400571 
L 73.055661 -283.315921 
L 72.643438 -282.17433 
L 72.231215 -281.024514 
L 71.818992 -279.90422 
L 71.406769 -278.832709 
L 70.994546 -277.809015 
L 70.582323 -276.814975 
L 70.1701 -275.8245 
L 69.757877 -274.818315 
L 69.345654 -273.79731 
L 68.933431 -272.785104 
L 68.521208 -271.816372 
L 68.108985 -270.917814 
L 67.696762 -270.094088 
L 67.28454 -269.327418 
L 66.872317 -268.590379 
L 66.460094 -267.863749 
L 66.047871 -267.149396 
L 65.635648 -266.471683 
L 65.223425 -265.867114 
L 64.811202 -265.367751 
L 64.398979 -264.986709 
L 63.986756 -264.712312 
L 63.574533 -264.512381 
L 63.16231 -264.345099 
L 62.750087 -264.171215 
L 62.337864 -263.963959 
L 61.925641 -263.715262 
L 61.513418 -263.437299 
L 61.101195 -263.158138 
L 60.688973 -262.91152 
L 60.27675 -262.72406 
L 59.864527 -262.605586 
L 59.452304 -262.547308 
L 59.040081 -262.528198 
L 58.627858 -262.525348 
L 58.215635 -262.522379 
L 57.803412 -262.511952 
L 57.391189 -262.492566 
L 56.978966 -262.463308 
L 56.566743 -262.420848 
L 56.15452 -262.360604 
L 55.742297 -262.280537 
L 55.330074 -262.184237 
L 54.917851 -262.080856 
L 54.505628 -261.981978 
L 54.093406 -261.897499 
L 53.681183 -261.832794 
L 53.26896 -261.788232 
L 52.856737 -261.760574 
L 52.444514 -261.745083 
L 52.032291 -261.737248 
L 51.620068 -261.733667 
z
" id="mecb26079e9" style="stroke:#364c6e;stroke-width:1.5;"/>
    </defs>
    <g>
     <use style="fill:#364c6e;stroke:#364c6e;stroke-width:1.5;" x="0" xlink:href="#mecb26079e9" y="311.267375"/>
    </g>
   </g>
   <g id="line2d_1">
    <path d="M 51.620068 49.533708 
L 53.681183 49.434581 
L 55.330074 49.083138 
L 56.978966 48.804067 
L 60.27675 48.543315 
L 61.101195 48.109237 
L 62.750087 47.09616 
L 64.398979 46.280666 
L 65.223425 45.400261 
L 66.460094 43.403626 
L 68.108985 40.349561 
L 69.345654 37.470065 
L 72.643438 29.093045 
L 73.880107 25.883797 
L 74.704552 24.27005 
L 75.941221 22.031444 
L 77.17789 19.007288 
L 78.002336 17.154545 
L 78.826782 15.918399 
L 79.651228 14.885598 
L 80.475674 13.50218 
L 81.712342 11.096472 
L 82.124565 10.504335 
L 82.536788 10.146925 
L 82.949011 10.067567 
L 83.361234 10.255913 
L 84.597903 11.372887 
L 85.010126 11.447536 
L 85.422349 11.237439 
L 86.246795 10.238044 
L 87.071241 9.346114 
L 87.483464 9.216 
L 87.895687 9.373219 
L 88.307909 9.841986 
L 88.720132 10.621457 
L 89.544578 12.92924 
L 90.781247 16.830764 
L 91.605693 18.772449 
L 92.017916 19.43019 
L 92.430139 19.846834 
L 92.842362 20.01773 
L 93.666808 19.844321 
L 94.079031 19.735551 
L 94.491254 19.782727 
L 94.903476 20.048937 
L 95.727922 21.094993 
L 96.964591 22.697105 
L 98.613483 24.360584 
L 99.437929 25.82522 
L 100.262375 28.025401 
L 101.911266 33.053462 
L 102.735712 34.67343 
L 103.560158 35.48369 
L 104.384604 36.106083 
L 105.621273 37.467683 
L 107.682388 39.763913 
L 108.506833 40.265549 
L 109.743502 40.570898 
L 110.155725 40.872688 
L 110.980171 42.042867 
L 112.21684 44.189796 
L 113.041286 44.990102 
L 113.865732 45.315108 
L 115.1024 45.73054 
L 116.339069 46.404485 
L 119.22463 48.085329 
L 120.049076 48.348981 
L 120.873522 48.42702 
L 122.522413 48.475688 
L 124.583528 48.839743 
L 125.820197 48.705502 
L 127.056866 48.491817 
L 127.881312 48.567332 
L 131.179095 49.417221 
L 133.24021 49.53099 
L 133.652433 49.533987 
L 133.652433 49.533987 
" style="fill:none;stroke:#ffffff;stroke-linecap:round;stroke-width:2;"/>
   </g>
   <g id="line2d_2">
    <path d="M 10.847472 49.536 
L 345.647472 49.536 
" style="fill:none;stroke:#364c6e;stroke-linecap:round;stroke-width:2;"/>
   </g>
   <g id="text_1">
    <!-- 0.05 -->
    <g style="fill:#364c6e;" transform="translate(261.947472 47.6913)scale(0.24 -0.24)">
     <defs>
      <path d="M 2944 2338 
Q 2944 3213 2780 3570 
Q 2616 3928 2228 3928 
Q 1841 3928 1675 3570 
Q 1509 3213 1509 2338 
Q 1509 1453 1675 1090 
Q 1841 728 2228 728 
Q 2613 728 2778 1090 
Q 2944 1453 2944 2338 
z
M 4147 2328 
Q 4147 1169 3647 539 
Q 3147 -91 2228 -91 
Q 1306 -91 806 539 
Q 306 1169 306 2328 
Q 306 3491 806 4120 
Q 1306 4750 2228 4750 
Q 3147 4750 3647 4120 
Q 4147 3491 4147 2328 
z
" id="DejaVuSans-Bold-30" transform="scale(0.015625)"/>
      <path d="M 653 1209 
L 1778 1209 
L 1778 0 
L 653 0 
L 653 1209 
z
" id="DejaVuSans-Bold-2e" transform="scale(0.015625)"/>
      <path d="M 678 4666 
L 3669 4666 
L 3669 3781 
L 1638 3781 
L 1638 3059 
Q 1775 3097 1914 3117 
Q 2053 3138 2203 3138 
Q 3056 3138 3531 2711 
Q 4006 2284 4006 1522 
Q 4006 766 3489 337 
Q 2972 -91 2053 -91 
Q 1656 -91 1267 -14 
Q 878 63 494 219 
L 494 1166 
Q 875 947 1217 837 
Q 1559 728 1863 728 
Q 2300 728 2551 942 
Q 2803 1156 2803 1522 
Q 2803 1891 2551 2103 
Q 2300 2316 1863 2316 
Q 1603 2316 1309 2248 
Q 1016 2181 678 2041 
L 678 4666 
z
" id="DejaVuSans-Bold-35" transform="scale(0.015625)"/>
     </defs>
     <use xlink:href="#DejaVuSans-Bold-30"/>
     <use x="69.580078" xlink:href="#DejaVuSans-Bold-2e"/>
     <use x="107.568359" xlink:href="#DejaVuSans-Bold-30"/>
     <use x="177.148438" xlink:href="#DejaVuSans-Bold-35"/>
    </g>
   </g>
  </g>
  <g id="axes_2">
   <g id="patch_3">
    <path d="M 10.847472 81.288 
L 345.647472 81.288 
L 345.647472 38.952 
L 10.847472 38.952 
z
" style="fill:none;"/>
   </g>
   <g id="matplotlib.axis_3">
    <g id="xtick_5"/>
    <g id="xtick_6"/>
    <g id="xtick_7"/>
    <g id="xtick_8"/>
   </g>
   <g id="matplotlib.axis_4"/>
   <g id="PolyCollection_2">
    <defs>
     <path d="M 47.580327 -229.981191 
L 47.580327 -229.979375 
L 48.30749 -229.979375 
L 49.034653 -229.979375 
L 49.761816 -229.979375 
L 50.488979 -229.979375 
L 51.216141 -229.979375 
L 51.943304 -229.979375 
L 52.670467 -229.979375 
L 53.39763 -229.979375 
L 54.124793 -229.979375 
L 54.851956 -229.979375 
L 55.579119 -229.979375 
L 56.306282 -229.979375 
L 57.033445 -229.979375 
L 57.760608 -229.979375 
L 58.487771 -229.979375 
L 59.214933 -229.979375 
L 59.942096 -229.979375 
L 60.669259 -229.979375 
L 61.396422 -229.979375 
L 62.123585 -229.979375 
L 62.850748 -229.979375 
L 63.577911 -229.979375 
L 64.305074 -229.979375 
L 65.032237 -229.979375 
L 65.7594 -229.979375 
L 66.486563 -229.979375 
L 67.213726 -229.979375 
L 67.940888 -229.979375 
L 68.668051 -229.979375 
L 69.395214 -229.979375 
L 70.122377 -229.979375 
L 70.84954 -229.979375 
L 71.576703 -229.979375 
L 72.303866 -229.979375 
L 73.031029 -229.979375 
L 73.758192 -229.979375 
L 74.485355 -229.979375 
L 75.212518 -229.979375 
L 75.939681 -229.979375 
L 76.666843 -229.979375 
L 77.394006 -229.979375 
L 78.121169 -229.979375 
L 78.848332 -229.979375 
L 79.575495 -229.979375 
L 80.302658 -229.979375 
L 81.029821 -229.979375 
L 81.756984 -229.979375 
L 82.484147 -229.979375 
L 83.21131 -229.979375 
L 83.938473 -229.979375 
L 84.665636 -229.979375 
L 85.392798 -229.979375 
L 86.119961 -229.979375 
L 86.847124 -229.979375 
L 87.574287 -229.979375 
L 88.30145 -229.979375 
L 89.028613 -229.979375 
L 89.755776 -229.979375 
L 90.482939 -229.979375 
L 91.210102 -229.979375 
L 91.937265 -229.979375 
L 92.664428 -229.979375 
L 93.391591 -229.979375 
L 94.118753 -229.979375 
L 94.845916 -229.979375 
L 95.573079 -229.979375 
L 96.300242 -229.979375 
L 97.027405 -229.979375 
L 97.754568 -229.979375 
L 98.481731 -229.979375 
L 99.208894 -229.979375 
L 99.936057 -229.979375 
L 100.66322 -229.979375 
L 101.390383 -229.979375 
L 102.117546 -229.979375 
L 102.844708 -229.979375 
L 103.571871 -229.979375 
L 104.299034 -229.979375 
L 105.026197 -229.979375 
L 105.75336 -229.979375 
L 106.480523 -229.979375 
L 107.207686 -229.979375 
L 107.934849 -229.979375 
L 108.662012 -229.979375 
L 109.389175 -229.979375 
L 110.116338 -229.979375 
L 110.8435 -229.979375 
L 111.570663 -229.979375 
L 112.297826 -229.979375 
L 113.024989 -229.979375 
L 113.752152 -229.979375 
L 114.479315 -229.979375 
L 115.206478 -229.979375 
L 115.933641 -229.979375 
L 116.660804 -229.979375 
L 117.387967 -229.979375 
L 118.11513 -229.979375 
L 118.842293 -229.979375 
L 119.569455 -229.979375 
L 120.296618 -229.979375 
L 121.023781 -229.979375 
L 121.750944 -229.979375 
L 122.478107 -229.979375 
L 123.20527 -229.979375 
L 123.932433 -229.979375 
L 124.659596 -229.979375 
L 125.386759 -229.979375 
L 126.113922 -229.979375 
L 126.841085 -229.979375 
L 127.568248 -229.979375 
L 128.29541 -229.979375 
L 129.022573 -229.979375 
L 129.749736 -229.979375 
L 130.476899 -229.979375 
L 131.204062 -229.979375 
L 131.931225 -229.979375 
L 132.658388 -229.979375 
L 133.385551 -229.979375 
L 134.112714 -229.979375 
L 134.839877 -229.979375 
L 135.56704 -229.979375 
L 136.294203 -229.979375 
L 137.021365 -229.979375 
L 137.748528 -229.979375 
L 138.475691 -229.979375 
L 139.202854 -229.979375 
L 139.930017 -229.979375 
L 140.65718 -229.979375 
L 141.384343 -229.979375 
L 142.111506 -229.979375 
L 142.838669 -229.979375 
L 143.565832 -229.979375 
L 144.292995 -229.979375 
L 145.020158 -229.979375 
L 145.74732 -229.979375 
L 146.474483 -229.979375 
L 147.201646 -229.979375 
L 147.928809 -229.979375 
L 148.655972 -229.979375 
L 149.383135 -229.979375 
L 150.110298 -229.979375 
L 150.837461 -229.979375 
L 151.564624 -229.979375 
L 152.291787 -229.979375 
L 153.01895 -229.979375 
L 153.746113 -229.979375 
L 154.473275 -229.979375 
L 155.200438 -229.979375 
L 155.927601 -229.979375 
L 156.654764 -229.979375 
L 157.381927 -229.979375 
L 158.10909 -229.979375 
L 158.836253 -229.979375 
L 159.563416 -229.979375 
L 160.290579 -229.979375 
L 161.017742 -229.979375 
L 161.744905 -229.979375 
L 162.472067 -229.979375 
L 163.19923 -229.979375 
L 163.926393 -229.979375 
L 164.653556 -229.979375 
L 165.380719 -229.979375 
L 166.107882 -229.979375 
L 166.835045 -229.979375 
L 167.562208 -229.979375 
L 168.289371 -229.979375 
L 169.016534 -229.979375 
L 169.743697 -229.979375 
L 170.47086 -229.979375 
L 171.198022 -229.979375 
L 171.925185 -229.979375 
L 172.652348 -229.979375 
L 173.379511 -229.979375 
L 174.106674 -229.979375 
L 174.833837 -229.979375 
L 175.561 -229.979375 
L 176.288163 -229.979375 
L 177.015326 -229.979375 
L 177.742489 -229.979375 
L 178.469652 -229.979375 
L 179.196815 -229.979375 
L 179.923977 -229.979375 
L 180.65114 -229.979375 
L 181.378303 -229.979375 
L 182.105466 -229.979375 
L 182.832629 -229.979375 
L 183.559792 -229.979375 
L 184.286955 -229.979375 
L 185.014118 -229.979375 
L 185.741281 -229.979375 
L 186.468444 -229.979375 
L 187.195607 -229.979375 
L 187.92277 -229.979375 
L 188.649932 -229.979375 
L 189.377095 -229.979375 
L 190.104258 -229.979375 
L 190.831421 -229.979375 
L 191.558584 -229.979375 
L 192.285747 -229.979375 
L 192.285747 -229.980715 
L 192.285747 -229.980715 
L 191.558584 -229.983255 
L 190.831421 -229.98911 
L 190.104258 -230.000546 
L 189.377095 -230.019284 
L 188.649932 -230.044582 
L 187.92277 -230.07172 
L 187.195607 -230.092727 
L 186.468444 -230.099972 
L 185.741281 -230.090585 
L 185.014118 -230.068264 
L 184.286955 -230.040956 
L 183.559792 -230.016353 
L 182.832629 -229.99862 
L 182.105466 -229.988057 
L 181.378303 -229.98277 
L 180.65114 -229.980525 
L 179.923977 -229.979713 
L 179.196815 -229.979461 
L 178.469652 -229.979394 
L 177.742489 -229.979379 
L 177.015326 -229.979376 
L 176.288163 -229.979375 
L 175.561 -229.979375 
L 174.833837 -229.979375 
L 174.106674 -229.979375 
L 173.379511 -229.979375 
L 172.652348 -229.979375 
L 171.925185 -229.979375 
L 171.198022 -229.979375 
L 170.47086 -229.979376 
L 169.743697 -229.979379 
L 169.016534 -229.979395 
L 168.289371 -229.97947 
L 167.562208 -229.97977 
L 166.835045 -229.980798 
L 166.107882 -229.983842 
L 165.380719 -229.991593 
L 164.653556 -230.00853 
L 163.926393 -230.040159 
L 163.19923 -230.090328 
L 162.472067 -230.157186 
L 161.744905 -230.230552 
L 161.017742 -230.294054 
L 160.290579 -230.332537 
L 159.563416 -230.340451 
L 158.836253 -230.324838 
L 158.10909 -230.300159 
L 157.381927 -230.278677 
L 156.654764 -230.263729 
L 155.927601 -230.25078 
L 155.200438 -230.234875 
L 154.473275 -230.218348 
L 153.746113 -230.212557 
L 153.01895 -230.231829 
L 152.291787 -230.283504 
L 151.564624 -230.361584 
L 150.837461 -230.450136 
L 150.110298 -230.535777 
L 149.383135 -230.620039 
L 148.655972 -230.719768 
L 147.928809 -230.852072 
L 147.201646 -231.014998 
L 146.474483 -231.182062 
L 145.74732 -231.318405 
L 145.020158 -231.406333 
L 144.292995 -231.458789 
L 143.565832 -231.510831 
L 142.838669 -231.598483 
L 142.111506 -231.740772 
L 141.384343 -231.93182 
L 140.65718 -232.14084 
L 139.930017 -232.319094 
L 139.202854 -232.416955 
L 138.475691 -232.409354 
L 137.748528 -232.315846 
L 137.021365 -232.197351 
L 136.294203 -232.126435 
L 135.56704 -232.151095 
L 134.839877 -232.279061 
L 134.112714 -232.490655 
L 133.385551 -232.76246 
L 132.658388 -233.078709 
L 131.931225 -233.425458 
L 131.204062 -233.781694 
L 130.476899 -234.121213 
L 129.749736 -234.424227 
L 129.022573 -234.68756 
L 128.29541 -234.925827 
L 127.568248 -235.164263 
L 126.841085 -235.427655 
L 126.113922 -235.73042 
L 125.386759 -236.073259 
L 124.659596 -236.448904 
L 123.932433 -236.851429 
L 123.20527 -237.278771 
L 122.478107 -237.724816 
L 121.750944 -238.170787 
L 121.023781 -238.58962 
L 120.296618 -238.964083 
L 119.569455 -239.302575 
L 118.842293 -239.636026 
L 118.11513 -239.997825 
L 117.387967 -240.406288 
L 116.660804 -240.866251 
L 115.933641 -241.386302 
L 115.206478 -241.991325 
L 114.479315 -242.712125 
L 113.752152 -243.55402 
L 113.024989 -244.468727 
L 112.297826 -245.357585 
L 111.570663 -246.111221 
L 110.8435 -246.659952 
L 110.116338 -247.000157 
L 109.389175 -247.182881 
L 108.662012 -247.280429 
L 107.934849 -247.357708 
L 107.207686 -247.462103 
L 106.480523 -247.627426 
L 105.75336 -247.882626 
L 105.026197 -248.260636 
L 104.299034 -248.80063 
L 103.571871 -249.531407 
L 102.844708 -250.436981 
L 102.117546 -251.434996 
L 101.390383 -252.403162 
L 100.66322 -253.24569 
L 99.936057 -253.942948 
L 99.208894 -254.535862 
L 98.481731 -255.059994 
L 97.754568 -255.494043 
L 97.027405 -255.771071 
L 96.300242 -255.840104 
L 95.573079 -255.722728 
L 94.845916 -255.517262 
L 94.118753 -255.34697 
L 93.391591 -255.291664 
L 92.664428 -255.352629 
L 91.937265 -255.471373 
L 91.210102 -255.578606 
L 90.482939 -255.632499 
L 89.755776 -255.627965 
L 89.028613 -255.59008 
L 88.30145 -255.568026 
L 87.574287 -255.625104 
L 86.847124 -255.81142 
L 86.119961 -256.126688 
L 85.392798 -256.505246 
L 84.665636 -256.844934 
L 83.938473 -257.058217 
L 83.21131 -257.097414 
L 82.484147 -256.933053 
L 81.756984 -256.518317 
L 81.029821 -255.790749 
L 80.302658 -254.722593 
L 79.575495 -253.376161 
L 78.848332 -251.907057 
L 78.121169 -250.497612 
L 77.394006 -249.259811 
L 76.666843 -248.176067 
L 75.939681 -247.12498 
L 75.212518 -245.979868 
L 74.485355 -244.711888 
L 73.758192 -243.421815 
L 73.031029 -242.276308 
L 72.303866 -241.397762 
L 71.576703 -240.790168 
L 70.84954 -240.347485 
L 70.122377 -239.922202 
L 69.395214 -239.39613 
L 68.668051 -238.716216 
L 67.940888 -237.896319 
L 67.213726 -236.999073 
L 66.486563 -236.105103 
L 65.7594 -235.277947 
L 65.032237 -234.543386 
L 64.305074 -233.897636 
L 63.577911 -233.33403 
L 62.850748 -232.85976 
L 62.123585 -232.486648 
L 61.396422 -232.20953 
L 60.669259 -231.998076 
L 59.942096 -231.810957 
L 59.214933 -231.617682 
L 58.487771 -231.409267 
L 57.760608 -231.193672 
L 57.033445 -230.985397 
L 56.306282 -230.798027 
L 55.579119 -230.640398 
L 54.851956 -230.513866 
L 54.124793 -230.41167 
L 53.39763 -230.322968 
L 52.670467 -230.239962 
L 51.943304 -230.162367 
L 51.216141 -230.095585 
L 50.488979 -230.045071 
L 49.761816 -230.012117 
L 49.034653 -229.993678 
L 48.30749 -229.984833 
L 47.580327 -229.981191 
z
" id="md21cb82f7b" style="stroke:#426082;stroke-width:1.5;"/>
    </defs>
    <g>
     <use style="fill:#426082;stroke:#426082;stroke-width:1.5;" x="0" xlink:href="#md21cb82f7b" y="311.267375"/>
    </g>
   </g>
   <g id="line2d_3">
    <path d="M 47.580327 81.286184 
L 51.216141 81.17179 
L 54.851956 80.753509 
L 57.033445 80.281978 
L 62.123585 78.780727 
L 63.577911 77.933345 
L 65.032237 76.723989 
L 66.486563 75.162272 
L 68.668051 72.551159 
L 69.395214 71.871245 
L 70.84954 70.91989 
L 71.576703 70.477207 
L 72.303866 69.869613 
L 73.031029 68.991067 
L 74.485355 66.555487 
L 75.939681 64.142395 
L 77.394006 62.007564 
L 78.848332 59.360318 
L 80.302658 56.544782 
L 81.029821 55.476626 
L 81.756984 54.749058 
L 82.484147 54.334322 
L 83.21131 54.169961 
L 83.938473 54.209158 
L 84.665636 54.422441 
L 86.847124 55.455955 
L 87.574287 55.642271 
L 89.028613 55.677295 
L 90.482939 55.634876 
L 91.937265 55.796002 
L 93.391591 55.975711 
L 94.118753 55.920405 
L 96.300242 55.427271 
L 97.027405 55.496304 
L 97.754568 55.773332 
L 99.208894 56.731513 
L 100.66322 58.021685 
L 102.117546 59.832379 
L 103.571871 61.735968 
L 104.299034 62.466745 
L 105.026197 63.006739 
L 106.480523 63.639949 
L 107.934849 63.909667 
L 109.389175 64.084494 
L 110.116338 64.267218 
L 110.8435 64.607423 
L 111.570663 65.156154 
L 113.024989 66.798648 
L 114.479315 68.55525 
L 115.933641 69.881073 
L 117.387967 70.861087 
L 119.569455 71.9648 
L 121.750944 73.096588 
L 124.659596 74.818471 
L 126.841085 75.83972 
L 131.204062 77.485681 
L 133.385551 78.504915 
L 134.839877 78.988314 
L 136.294203 79.14094 
L 139.202854 78.85042 
L 140.65718 79.126535 
L 142.838669 79.668892 
L 147.201646 80.252377 
L 149.383135 80.647336 
L 153.746113 81.054818 
L 161.744905 81.036823 
L 164.653556 81.258845 
L 170.47086 81.287999 
L 185.014118 81.199111 
L 187.92277 81.195655 
L 192.285747 81.28666 
L 192.285747 81.28666 
" style="fill:none;stroke:#ffffff;stroke-linecap:round;stroke-width:2;"/>
   </g>
   <g id="line2d_4">
    <path d="M 10.847472 81.288 
L 345.647472 81.288 
" style="fill:none;stroke:#426082;stroke-linecap:round;stroke-width:2;"/>
   </g>
   <g id="text_2">
    <!-- 0.1 -->
    <g style="fill:#426082;" transform="translate(261.947472 79.4433)scale(0.24 -0.24)">
     <defs>
      <path d="M 750 831 
L 1813 831 
L 1813 3847 
L 722 3622 
L 722 4441 
L 1806 4666 
L 2950 4666 
L 2950 831 
L 4013 831 
L 4013 0 
L 750 0 
L 750 831 
z
" id="DejaVuSans-Bold-31" transform="scale(0.015625)"/>
     </defs>
     <use xlink:href="#DejaVuSans-Bold-30"/>
     <use x="69.580078" xlink:href="#DejaVuSans-Bold-2e"/>
     <use x="107.568359" xlink:href="#DejaVuSans-Bold-31"/>
    </g>
   </g>
  </g>
  <g id="axes_3">
   <g id="patch_4">
    <path d="M 10.847472 113.04 
L 345.647472 113.04 
L 345.647472 70.704 
L 10.847472 70.704 
z
" style="fill:none;"/>
   </g>
   <g id="matplotlib.axis_5">
    <g id="xtick_9"/>
    <g id="xtick_10"/>
    <g id="xtick_11"/>
    <g id="xtick_12"/>
   </g>
   <g id="matplotlib.axis_6"/>
   <g id="PolyCollection_3">
    <defs>
     <path d="M 39.72672 -198.228709 
L 39.72672 -198.227375 
L 40.660536 -198.227375 
L 41.594351 -198.227375 
L 42.528166 -198.227375 
L 43.461982 -198.227375 
L 44.395797 -198.227375 
L 45.329612 -198.227375 
L 46.263428 -198.227375 
L 47.197243 -198.227375 
L 48.131059 -198.227375 
L 49.064874 -198.227375 
L 49.998689 -198.227375 
L 50.932505 -198.227375 
L 51.86632 -198.227375 
L 52.800135 -198.227375 
L 53.733951 -198.227375 
L 54.667766 -198.227375 
L 55.601581 -198.227375 
L 56.535397 -198.227375 
L 57.469212 -198.227375 
L 58.403027 -198.227375 
L 59.336843 -198.227375 
L 60.270658 -198.227375 
L 61.204474 -198.227375 
L 62.138289 -198.227375 
L 63.072104 -198.227375 
L 64.00592 -198.227375 
L 64.939735 -198.227375 
L 65.87355 -198.227375 
L 66.807366 -198.227375 
L 67.741181 -198.227375 
L 68.674996 -198.227375 
L 69.608812 -198.227375 
L 70.542627 -198.227375 
L 71.476442 -198.227375 
L 72.410258 -198.227375 
L 73.344073 -198.227375 
L 74.277889 -198.227375 
L 75.211704 -198.227375 
L 76.145519 -198.227375 
L 77.079335 -198.227375 
L 78.01315 -198.227375 
L 78.946965 -198.227375 
L 79.880781 -198.227375 
L 80.814596 -198.227375 
L 81.748411 -198.227375 
L 82.682227 -198.227375 
L 83.616042 -198.227375 
L 84.549857 -198.227375 
L 85.483673 -198.227375 
L 86.417488 -198.227375 
L 87.351304 -198.227375 
L 88.285119 -198.227375 
L 89.218934 -198.227375 
L 90.15275 -198.227375 
L 91.086565 -198.227375 
L 92.02038 -198.227375 
L 92.954196 -198.227375 
L 93.888011 -198.227375 
L 94.821826 -198.227375 
L 95.755642 -198.227375 
L 96.689457 -198.227375 
L 97.623272 -198.227375 
L 98.557088 -198.227375 
L 99.490903 -198.227375 
L 100.424719 -198.227375 
L 101.358534 -198.227375 
L 102.292349 -198.227375 
L 103.226165 -198.227375 
L 104.15998 -198.227375 
L 105.093795 -198.227375 
L 106.027611 -198.227375 
L 106.961426 -198.227375 
L 107.895241 -198.227375 
L 108.829057 -198.227375 
L 109.762872 -198.227375 
L 110.696687 -198.227375 
L 111.630503 -198.227375 
L 112.564318 -198.227375 
L 113.498134 -198.227375 
L 114.431949 -198.227375 
L 115.365764 -198.227375 
L 116.29958 -198.227375 
L 117.233395 -198.227375 
L 118.16721 -198.227375 
L 119.101026 -198.227375 
L 120.034841 -198.227375 
L 120.968656 -198.227375 
L 121.902472 -198.227375 
L 122.836287 -198.227375 
L 123.770102 -198.227375 
L 124.703918 -198.227375 
L 125.637733 -198.227375 
L 126.571549 -198.227375 
L 127.505364 -198.227375 
L 128.439179 -198.227375 
L 129.372995 -198.227375 
L 130.30681 -198.227375 
L 131.240625 -198.227375 
L 132.174441 -198.227375 
L 133.108256 -198.227375 
L 134.042071 -198.227375 
L 134.975887 -198.227375 
L 135.909702 -198.227375 
L 136.843517 -198.227375 
L 137.777333 -198.227375 
L 138.711148 -198.227375 
L 139.644964 -198.227375 
L 140.578779 -198.227375 
L 141.512594 -198.227375 
L 142.44641 -198.227375 
L 143.380225 -198.227375 
L 144.31404 -198.227375 
L 145.247856 -198.227375 
L 146.181671 -198.227375 
L 147.115486 -198.227375 
L 148.049302 -198.227375 
L 148.983117 -198.227375 
L 149.916932 -198.227375 
L 150.850748 -198.227375 
L 151.784563 -198.227375 
L 152.718379 -198.227375 
L 153.652194 -198.227375 
L 154.586009 -198.227375 
L 155.519825 -198.227375 
L 156.45364 -198.227375 
L 157.387455 -198.227375 
L 158.321271 -198.227375 
L 159.255086 -198.227375 
L 160.188901 -198.227375 
L 161.122717 -198.227375 
L 162.056532 -198.227375 
L 162.990347 -198.227375 
L 163.924163 -198.227375 
L 164.857978 -198.227375 
L 165.791794 -198.227375 
L 166.725609 -198.227375 
L 167.659424 -198.227375 
L 168.59324 -198.227375 
L 169.527055 -198.227375 
L 170.46087 -198.227375 
L 171.394686 -198.227375 
L 172.328501 -198.227375 
L 173.262316 -198.227375 
L 174.196132 -198.227375 
L 175.129947 -198.227375 
L 176.063762 -198.227375 
L 176.997578 -198.227375 
L 177.931393 -198.227375 
L 178.865209 -198.227375 
L 179.799024 -198.227375 
L 180.732839 -198.227375 
L 181.666655 -198.227375 
L 182.60047 -198.227375 
L 183.534285 -198.227375 
L 184.468101 -198.227375 
L 185.401916 -198.227375 
L 186.335731 -198.227375 
L 187.269547 -198.227375 
L 188.203362 -198.227375 
L 189.137177 -198.227375 
L 190.070993 -198.227375 
L 191.004808 -198.227375 
L 191.938624 -198.227375 
L 192.872439 -198.227375 
L 193.806254 -198.227375 
L 194.74007 -198.227375 
L 195.673885 -198.227375 
L 196.6077 -198.227375 
L 197.541516 -198.227375 
L 198.475331 -198.227375 
L 199.409146 -198.227375 
L 200.342962 -198.227375 
L 201.276777 -198.227375 
L 202.210592 -198.227375 
L 203.144408 -198.227375 
L 204.078223 -198.227375 
L 205.012038 -198.227375 
L 205.945854 -198.227375 
L 206.879669 -198.227375 
L 207.813485 -198.227375 
L 208.7473 -198.227375 
L 209.681115 -198.227375 
L 210.614931 -198.227375 
L 211.548746 -198.227375 
L 212.482561 -198.227375 
L 213.416377 -198.227375 
L 214.350192 -198.227375 
L 215.284007 -198.227375 
L 216.217823 -198.227375 
L 217.151638 -198.227375 
L 218.085453 -198.227375 
L 219.019269 -198.227375 
L 219.953084 -198.227375 
L 220.8869 -198.227375 
L 221.820715 -198.227375 
L 222.75453 -198.227375 
L 223.688346 -198.227375 
L 224.622161 -198.227375 
L 225.555976 -198.227375 
L 225.555976 -198.228463 
L 225.555976 -198.228463 
L 224.622161 -198.23066 
L 223.688346 -198.235866 
L 222.75453 -198.246162 
L 221.820715 -198.262962 
L 220.8869 -198.285092 
L 219.953084 -198.307557 
L 219.019269 -198.32293 
L 218.085453 -198.325536 
L 217.151638 -198.315677 
L 216.217823 -198.300283 
L 215.284007 -198.289099 
L 214.350192 -198.288995 
L 213.416377 -198.300035 
L 212.482561 -198.315437 
L 211.548746 -198.325462 
L 210.614931 -198.323088 
L 209.681115 -198.307894 
L 208.7473 -198.285485 
L 207.813485 -198.263298 
L 206.879669 -198.24639 
L 205.945854 -198.235998 
L 205.012038 -198.230756 
L 204.078223 -198.228661 
L 203.144408 -198.228376 
L 202.210592 -198.22975 
L 201.276777 -198.234034 
L 200.342962 -198.243937 
L 199.409146 -198.263008 
L 198.475331 -198.293643 
L 197.541516 -198.333996 
L 196.6077 -198.375922 
L 195.673885 -198.406724 
L 194.74007 -198.415178 
L 193.806254 -198.398247 
L 192.872439 -198.363369 
L 191.938624 -198.324553 
L 191.004808 -198.295479 
L 190.070993 -198.284259 
L 189.137177 -198.291879 
L 188.203362 -198.31339 
L 187.269547 -198.340517 
L 186.335731 -198.364897 
L 185.401916 -198.380879 
L 184.468101 -198.386704 
L 183.534285 -198.384341 
L 182.60047 -198.37911 
L 181.666655 -198.378562 
L 180.732839 -198.388725 
L 179.799024 -198.408574 
L 178.865209 -198.427889 
L 177.931393 -198.432731 
L 176.997578 -198.415624 
L 176.063762 -198.381982 
L 175.129947 -198.347322 
L 174.196132 -198.328003 
L 173.262316 -198.332685 
L 172.328501 -198.359292 
L 171.394686 -198.39781 
L 170.46087 -198.436602 
L 169.527055 -198.468785 
L 168.59324 -198.4949 
L 167.659424 -198.520231 
L 166.725609 -198.549529 
L 165.791794 -198.583871 
L 164.857978 -198.621308 
L 163.924163 -198.65895 
L 162.990347 -198.694255 
L 162.056532 -198.72584 
L 161.122717 -198.754413 
L 160.188901 -198.783663 
L 159.255086 -198.821814 
L 158.321271 -198.88393 
L 157.387455 -198.990519 
L 156.45364 -199.157605 
L 155.519825 -199.383423 
L 154.586009 -199.64534 
L 153.652194 -199.911317 
L 152.718379 -200.152299 
L 151.784563 -200.342708 
L 150.850748 -200.457711 
L 149.916932 -200.484835 
L 148.983117 -200.445245 
L 148.049302 -200.396959 
L 147.115486 -200.405347 
L 146.181671 -200.502587 
L 145.247856 -200.671447 
L 144.31404 -200.864495 
L 143.380225 -201.038847 
L 142.44641 -201.180514 
L 141.512594 -201.30836 
L 140.578779 -201.462563 
L 139.644964 -201.685452 
L 138.711148 -202.001586 
L 137.777333 -202.40559 
L 136.843517 -202.86479 
L 135.909702 -203.334378 
L 134.975887 -203.774485 
L 134.042071 -204.160892 
L 133.108256 -204.488528 
L 132.174441 -204.768695 
L 131.240625 -205.018904 
L 130.30681 -205.248611 
L 129.372995 -205.45249 
L 128.439179 -205.620942 
L 127.505364 -205.762146 
L 126.571549 -205.91754 
L 125.637733 -206.157005 
L 124.703918 -206.554129 
L 123.770102 -207.152253 
L 122.836287 -207.935572 
L 121.902472 -208.820832 
L 120.968656 -209.680996 
L 120.034841 -210.395315 
L 119.101026 -210.897976 
L 118.16721 -211.194124 
L 117.233395 -211.338305 
L 116.29958 -211.400851 
L 115.365764 -211.448605 
L 114.431949 -211.54101 
L 113.498134 -211.726718 
L 112.564318 -212.036001 
L 111.630503 -212.476277 
L 110.696687 -213.031571 
L 109.762872 -213.659568 
L 108.829057 -214.292472 
L 107.895241 -214.860593 
L 106.961426 -215.338262 
L 106.027611 -215.773358 
L 105.093795 -216.258014 
L 104.15998 -216.85223 
L 103.226165 -217.531068 
L 102.292349 -218.211635 
L 101.358534 -218.830066 
L 100.424719 -219.381293 
L 99.490903 -219.881773 
L 98.557088 -220.31011 
L 97.623272 -220.603783 
L 96.689457 -220.718577 
L 95.755642 -220.683217 
L 94.821826 -220.588002 
L 93.888011 -220.519089 
L 92.954196 -220.506785 
L 92.02038 -220.5342 
L 91.086565 -220.579502 
L 90.15275 -220.631588 
L 89.218934 -220.66428 
L 88.285119 -220.612676 
L 87.351304 -220.392502 
L 86.417488 -219.953665 
L 85.483673 -219.326492 
L 84.549857 -218.626726 
L 83.616042 -218.010895 
L 82.682227 -217.598753 
L 81.748411 -217.402205 
L 80.814596 -217.308481 
L 79.880781 -217.136758 
L 78.946965 -216.731482 
L 78.01315 -216.028362 
L 77.079335 -215.064336 
L 76.145519 -213.952204 
L 75.211704 -212.840746 
L 74.277889 -211.85659 
L 73.344073 -211.040186 
L 72.410258 -210.325748 
L 71.476442 -209.595987 
L 70.542627 -208.770387 
L 69.608812 -207.852888 
L 68.674996 -206.912418 
L 67.741181 -206.033672 
L 66.807366 -205.283191 
L 65.87355 -204.696448 
L 64.939735 -204.266445 
L 64.00592 -203.932093 
L 63.072104 -203.590141 
L 62.138289 -203.143187 
L 61.204474 -202.55673 
L 60.270658 -201.879246 
L 59.336843 -201.206632 
L 58.403027 -200.619899 
L 57.469212 -200.146257 
L 56.535397 -199.768142 
L 55.601581 -199.459081 
L 54.667766 -199.206768 
L 53.733951 -199.008267 
L 52.800135 -198.855988 
L 51.86632 -198.736421 
L 50.932505 -198.640113 
L 49.998689 -198.566297 
L 49.064874 -198.515644 
L 48.131059 -198.481416 
L 47.197243 -198.450377 
L 46.263428 -198.412011 
L 45.329612 -198.365591 
L 44.395797 -198.318655 
L 43.461982 -198.279899 
L 42.528166 -198.25355 
L 41.594351 -198.238637 
L 40.660536 -198.231552 
L 39.72672 -198.228709 
z
" id="mc25da9bb7e" style="stroke:#4e7493;stroke-width:1.5;"/>
    </defs>
    <g>
     <use style="fill:#4e7493;stroke:#4e7493;stroke-width:1.5;" x="0" xlink:href="#mc25da9bb7e" y="311.267375"/>
    </g>
   </g>
   <g id="line2d_5">
    <path d="M 39.72672 113.038666 
L 44.395797 112.94872 
L 51.86632 112.530954 
L 54.667766 112.060607 
L 56.535397 111.499233 
L 58.403027 110.647476 
L 60.270658 109.388129 
L 62.138289 108.124188 
L 64.00592 107.335282 
L 65.87355 106.570927 
L 66.807366 105.984184 
L 68.674996 104.354957 
L 71.476442 101.671388 
L 74.277889 99.410785 
L 76.145519 97.315171 
L 78.01315 95.239013 
L 78.946965 94.535893 
L 79.880781 94.130617 
L 82.682227 93.668622 
L 83.616042 93.25648 
L 87.351304 90.874873 
L 88.285119 90.654699 
L 90.15275 90.635787 
L 93.888011 90.748286 
L 96.689457 90.548798 
L 97.623272 90.663592 
L 98.557088 90.957265 
L 100.424719 91.886082 
L 102.292349 93.05574 
L 105.093795 95.009361 
L 108.829057 96.974903 
L 111.630503 98.791098 
L 112.564318 99.231374 
L 113.498134 99.540657 
L 115.365764 99.81877 
L 118.16721 100.073251 
L 119.101026 100.369399 
L 120.034841 100.87206 
L 120.968656 101.586379 
L 123.770102 104.115122 
L 124.703918 104.713246 
L 125.637733 105.11037 
L 127.505364 105.505229 
L 130.30681 106.018764 
L 133.108256 106.778847 
L 134.975887 107.49289 
L 139.644964 109.581923 
L 141.512594 109.959015 
L 144.31404 110.40288 
L 146.181671 110.764788 
L 148.049302 110.870416 
L 150.850748 110.809664 
L 152.718379 111.115076 
L 157.387455 112.276856 
L 159.255086 112.445561 
L 173.262316 112.93469 
L 176.997578 112.851751 
L 180.732839 112.87865 
L 192.872439 112.904006 
L 195.673885 112.860651 
L 204.078223 113.038714 
L 225.555976 113.038912 
L 225.555976 113.038912 
" style="fill:none;stroke:#ffffff;stroke-linecap:round;stroke-width:2;"/>
   </g>
   <g id="line2d_6">
    <path d="M 10.847472 113.04 
L 345.647472 113.04 
" style="fill:none;stroke:#4e7493;stroke-linecap:round;stroke-width:2;"/>
   </g>
   <g id="text_3">
    <!-- 0.15 -->
    <g style="fill:#4e7493;" transform="translate(261.947472 111.1953)scale(0.24 -0.24)">
     <use xlink:href="#DejaVuSans-Bold-30"/>
     <use x="69.580078" xlink:href="#DejaVuSans-Bold-2e"/>
     <use x="107.568359" xlink:href="#DejaVuSans-Bold-31"/>
     <use x="177.148438" xlink:href="#DejaVuSans-Bold-35"/>
    </g>
   </g>
  </g>
  <g id="axes_4">
   <g id="patch_5">
    <path d="M 10.847472 144.792 
L 345.647472 144.792 
L 345.647472 102.456 
L 10.847472 102.456 
z
" style="fill:none;"/>
   </g>
   <g id="matplotlib.axis_7">
    <g id="xtick_13"/>
    <g id="xtick_14"/>
    <g id="xtick_15"/>
    <g id="xtick_16"/>
   </g>
   <g id="matplotlib.axis_8"/>
   <g id="PolyCollection_4">
    <defs>
     <path d="M 37.403321 -166.476363 
L 37.403321 -166.475375 
L 38.283564 -166.475375 
L 39.163807 -166.475375 
L 40.044051 -166.475375 
L 40.924294 -166.475375 
L 41.804537 -166.475375 
L 42.68478 -166.475375 
L 43.565024 -166.475375 
L 44.445267 -166.475375 
L 45.32551 -166.475375 
L 46.205754 -166.475375 
L 47.085997 -166.475375 
L 47.96624 -166.475375 
L 48.846483 -166.475375 
L 49.726727 -166.475375 
L 50.60697 -166.475375 
L 51.487213 -166.475375 
L 52.367456 -166.475375 
L 53.2477 -166.475375 
L 54.127943 -166.475375 
L 55.008186 -166.475375 
L 55.888429 -166.475375 
L 56.768673 -166.475375 
L 57.648916 -166.475375 
L 58.529159 -166.475375 
L 59.409402 -166.475375 
L 60.289646 -166.475375 
L 61.169889 -166.475375 
L 62.050132 -166.475375 
L 62.930375 -166.475375 
L 63.810619 -166.475375 
L 64.690862 -166.475375 
L 65.571105 -166.475375 
L 66.451349 -166.475375 
L 67.331592 -166.475375 
L 68.211835 -166.475375 
L 69.092078 -166.475375 
L 69.972322 -166.475375 
L 70.852565 -166.475375 
L 71.732808 -166.475375 
L 72.613051 -166.475375 
L 73.493295 -166.475375 
L 74.373538 -166.475375 
L 75.253781 -166.475375 
L 76.134024 -166.475375 
L 77.014268 -166.475375 
L 77.894511 -166.475375 
L 78.774754 -166.475375 
L 79.654997 -166.475375 
L 80.535241 -166.475375 
L 81.415484 -166.475375 
L 82.295727 -166.475375 
L 83.17597 -166.475375 
L 84.056214 -166.475375 
L 84.936457 -166.475375 
L 85.8167 -166.475375 
L 86.696944 -166.475375 
L 87.577187 -166.475375 
L 88.45743 -166.475375 
L 89.337673 -166.475375 
L 90.217917 -166.475375 
L 91.09816 -166.475375 
L 91.978403 -166.475375 
L 92.858646 -166.475375 
L 93.73889 -166.475375 
L 94.619133 -166.475375 
L 95.499376 -166.475375 
L 96.379619 -166.475375 
L 97.259863 -166.475375 
L 98.140106 -166.475375 
L 99.020349 -166.475375 
L 99.900592 -166.475375 
L 100.780836 -166.475375 
L 101.661079 -166.475375 
L 102.541322 -166.475375 
L 103.421565 -166.475375 
L 104.301809 -166.475375 
L 105.182052 -166.475375 
L 106.062295 -166.475375 
L 106.942539 -166.475375 
L 107.822782 -166.475375 
L 108.703025 -166.475375 
L 109.583268 -166.475375 
L 110.463512 -166.475375 
L 111.343755 -166.475375 
L 112.223998 -166.475375 
L 113.104241 -166.475375 
L 113.984485 -166.475375 
L 114.864728 -166.475375 
L 115.744971 -166.475375 
L 116.625214 -166.475375 
L 117.505458 -166.475375 
L 118.385701 -166.475375 
L 119.265944 -166.475375 
L 120.146187 -166.475375 
L 121.026431 -166.475375 
L 121.906674 -166.475375 
L 122.786917 -166.475375 
L 123.667161 -166.475375 
L 124.547404 -166.475375 
L 125.427647 -166.475375 
L 126.30789 -166.475375 
L 127.188134 -166.475375 
L 128.068377 -166.475375 
L 128.94862 -166.475375 
L 129.828863 -166.475375 
L 130.709107 -166.475375 
L 131.58935 -166.475375 
L 132.469593 -166.475375 
L 133.349836 -166.475375 
L 134.23008 -166.475375 
L 135.110323 -166.475375 
L 135.990566 -166.475375 
L 136.870809 -166.475375 
L 137.751053 -166.475375 
L 138.631296 -166.475375 
L 139.511539 -166.475375 
L 140.391782 -166.475375 
L 141.272026 -166.475375 
L 142.152269 -166.475375 
L 143.032512 -166.475375 
L 143.912756 -166.475375 
L 144.792999 -166.475375 
L 145.673242 -166.475375 
L 146.553485 -166.475375 
L 147.433729 -166.475375 
L 148.313972 -166.475375 
L 149.194215 -166.475375 
L 150.074458 -166.475375 
L 150.954702 -166.475375 
L 151.834945 -166.475375 
L 152.715188 -166.475375 
L 153.595431 -166.475375 
L 154.475675 -166.475375 
L 155.355918 -166.475375 
L 156.236161 -166.475375 
L 157.116404 -166.475375 
L 157.996648 -166.475375 
L 158.876891 -166.475375 
L 159.757134 -166.475375 
L 160.637377 -166.475375 
L 161.517621 -166.475375 
L 162.397864 -166.475375 
L 163.278107 -166.475375 
L 164.158351 -166.475375 
L 165.038594 -166.475375 
L 165.918837 -166.475375 
L 166.79908 -166.475375 
L 167.679324 -166.475375 
L 168.559567 -166.475375 
L 169.43981 -166.475375 
L 170.320053 -166.475375 
L 171.200297 -166.475375 
L 172.08054 -166.475375 
L 172.960783 -166.475375 
L 173.841026 -166.475375 
L 174.72127 -166.475375 
L 175.601513 -166.475375 
L 176.481756 -166.475375 
L 177.361999 -166.475375 
L 178.242243 -166.475375 
L 179.122486 -166.475375 
L 180.002729 -166.475375 
L 180.882972 -166.475375 
L 181.763216 -166.475375 
L 182.643459 -166.475375 
L 183.523702 -166.475375 
L 184.403946 -166.475375 
L 185.284189 -166.475375 
L 186.164432 -166.475375 
L 187.044675 -166.475375 
L 187.924919 -166.475375 
L 188.805162 -166.475375 
L 189.685405 -166.475375 
L 190.565648 -166.475375 
L 191.445892 -166.475375 
L 192.326135 -166.475375 
L 193.206378 -166.475375 
L 194.086621 -166.475375 
L 194.966865 -166.475375 
L 195.847108 -166.475375 
L 196.727351 -166.475375 
L 197.607594 -166.475375 
L 198.487838 -166.475375 
L 199.368081 -166.475375 
L 200.248324 -166.475375 
L 201.128567 -166.475375 
L 202.008811 -166.475375 
L 202.889054 -166.475375 
L 203.769297 -166.475375 
L 204.649541 -166.475375 
L 205.529784 -166.475375 
L 206.410027 -166.475375 
L 207.29027 -166.475375 
L 208.170514 -166.475375 
L 209.050757 -166.475375 
L 209.931 -166.475375 
L 210.811243 -166.475375 
L 211.691487 -166.475375 
L 212.57173 -166.475375 
L 212.57173 -166.476407 
L 212.57173 -166.476407 
L 211.691487 -166.478008 
L 210.811243 -166.48146 
L 209.931 -166.488126 
L 209.050757 -166.499633 
L 208.170514 -166.517327 
L 207.29027 -166.541443 
L 206.410027 -166.570333 
L 205.529784 -166.600317 
L 204.649541 -166.626581 
L 203.769297 -166.64498 
L 202.889054 -166.653942 
L 202.008811 -166.655389 
L 201.128567 -166.654045 
L 200.248324 -166.655397 
L 199.368081 -166.663441 
L 198.487838 -166.679402 
L 197.607594 -166.702058 
L 196.727351 -166.729376 
L 195.847108 -166.760546 
L 194.966865 -166.797193 
L 194.086621 -166.842826 
L 193.206378 -166.900448 
L 192.326135 -166.969511 
L 191.445892 -167.044213 
L 190.565648 -167.114611 
L 189.685405 -167.170238 
L 188.805162 -167.204277 
L 187.924919 -167.216077 
L 187.044675 -167.211011 
L 186.164432 -167.19809 
L 185.284189 -167.186565 
L 184.403946 -167.182788 
L 183.523702 -167.188509 
L 182.643459 -167.201425 
L 181.763216 -167.217803 
L 180.882972 -167.235589 
L 180.002729 -167.255699 
L 179.122486 -167.280312 
L 178.242243 -167.309374 
L 177.361999 -167.338229 
L 176.481756 -167.358597 
L 175.601513 -167.362392 
L 174.72127 -167.34561 
L 173.841026 -167.309673 
L 172.960783 -167.260184 
L 172.08054 -167.205243 
L 171.200297 -167.155281 
L 170.320053 -167.12384 
L 169.43981 -167.126689 
L 168.559567 -167.177348 
L 167.679324 -167.280396 
L 166.79908 -167.426846 
L 165.918837 -167.595654 
L 165.038594 -167.761581 
L 164.158351 -167.905142 
L 163.278107 -168.018754 
L 162.397864 -168.106037 
L 161.517621 -168.175999 
L 160.637377 -168.23676 
L 159.757134 -168.292553 
L 158.876891 -168.34447 
L 157.996648 -168.392914 
L 157.116404 -168.439488 
L 156.236161 -168.487326 
L 155.355918 -168.540178 
L 154.475675 -168.601046 
L 153.595431 -168.671132 
L 152.715188 -168.749587 
L 151.834945 -168.834207 
L 150.954702 -168.922938 
L 150.074458 -169.015913 
L 149.194215 -169.117591 
L 148.313972 -169.238251 
L 147.433729 -169.393505 
L 146.553485 -169.600292 
L 145.673242 -169.868866 
L 144.792999 -170.193054 
L 143.912756 -170.544236 
L 143.032512 -170.875125 
L 142.152269 -171.135318 
L 141.272026 -171.292966 
L 140.391782 -171.351094 
L 139.511539 -171.348236 
L 138.631296 -171.341717 
L 137.751053 -171.382509 
L 136.870809 -171.49558 
L 135.990566 -171.675446 
L 135.110323 -171.896692 
L 134.23008 -172.131177 
L 133.349836 -172.362338 
L 132.469593 -172.591183 
L 131.58935 -172.833271 
L 130.709107 -173.108659 
L 129.828863 -173.428785 
L 128.94862 -173.786752 
L 128.068377 -174.158111 
L 127.188134 -174.514298 
L 126.30789 -174.841475 
L 125.427647 -175.151328 
L 124.547404 -175.474663 
L 123.667161 -175.841604 
L 122.786917 -176.262865 
L 121.906674 -176.724923 
L 121.026431 -177.199551 
L 120.146187 -177.65732 
L 119.265944 -178.075196 
L 118.385701 -178.437771 
L 117.505458 -178.738547 
L 116.625214 -178.984833 
L 115.744971 -179.201972 
L 114.864728 -179.429755 
L 113.984485 -179.709562 
L 113.104241 -180.068958 
L 112.223998 -180.512921 
L 111.343755 -181.025534 
L 110.463512 -181.578227 
L 109.583268 -182.137291 
L 108.703025 -182.666681 
L 107.822782 -183.128799 
L 106.942539 -183.489707 
L 106.062295 -183.731907 
L 105.182052 -183.86907 
L 104.301809 -183.950832 
L 103.421565 -184.049359 
L 102.541322 -184.231988 
L 101.661079 -184.535097 
L 100.780836 -184.953471 
L 99.900592 -185.447904 
L 99.020349 -185.962619 
L 98.140106 -186.441943 
L 97.259863 -186.841291 
L 96.379619 -187.133383 
L 95.499376 -187.312195 
L 94.619133 -187.395129 
L 93.73889 -187.421232 
L 92.858646 -187.442376 
L 91.978403 -187.506602 
L 91.09816 -187.638184 
L 90.217917 -187.824134 
L 89.337673 -188.01643 
L 88.45743 -188.151189 
L 87.577187 -188.175059 
L 86.696944 -188.063651 
L 85.8167 -187.821811 
L 84.936457 -187.467741 
L 84.056214 -187.013663 
L 83.17597 -186.457269 
L 82.295727 -185.789299 
L 81.415484 -185.009974 
L 80.535241 -184.140417 
L 79.654997 -183.220206 
L 78.774754 -182.294152 
L 77.894511 -181.399399 
L 77.014268 -180.560772 
L 76.134024 -179.792469 
L 75.253781 -179.098833 
L 74.373538 -178.471887 
L 73.493295 -177.891776 
L 72.613051 -177.336639 
L 71.732808 -176.798087 
L 70.852565 -176.288428 
L 69.972322 -175.82916 
L 69.092078 -175.426591 
L 68.211835 -175.054271 
L 67.331592 -174.658706 
L 66.451349 -174.186295 
L 65.571105 -173.612533 
L 64.690862 -172.953964 
L 63.810619 -172.257933 
L 62.930375 -171.580592 
L 62.050132 -170.967662 
L 61.169889 -170.445243 
L 60.289646 -170.018943 
L 59.409402 -169.676479 
L 58.529159 -169.391762 
L 57.648916 -169.131601 
L 56.768673 -168.865612 
L 55.888429 -168.576505 
L 55.008186 -168.265831 
L 54.127943 -167.951866 
L 53.2477 -167.66063 
L 52.367456 -167.414683 
L 51.487213 -167.224964 
L 50.60697 -167.088659 
L 49.726727 -166.992797 
L 48.846483 -166.920838 
L 47.96624 -166.858841 
L 47.085997 -166.798792 
L 46.205754 -166.738638 
L 45.32551 -166.680191 
L 44.445267 -166.626642 
L 43.565024 -166.580799 
L 42.68478 -166.544279 
L 41.804537 -166.517329 
L 40.924294 -166.499015 
L 40.044051 -166.487629 
L 39.163807 -166.481188 
L 38.283564 -166.477889 
L 37.403321 -166.476363 
z
" id="mba144d49ab" style="stroke:#5b89a2;stroke-width:1.5;"/>
    </defs>
    <g>
     <use style="fill:#5b89a2;stroke:#5b89a2;stroke-width:1.5;" x="0" xlink:href="#mba144d49ab" y="311.267375"/>
    </g>
   </g>
   <g id="line2d_7">
    <path d="M 37.403321 144.791012 
L 43.565024 144.686576 
L 49.726727 144.274578 
L 51.487213 144.042411 
L 53.2477 143.606745 
L 60.289646 141.248432 
L 62.050132 140.299713 
L 63.810619 139.009442 
L 65.571105 137.654842 
L 67.331592 136.608669 
L 70.852565 134.978947 
L 73.493295 133.375599 
L 75.253781 132.168542 
L 77.014268 130.706603 
L 79.654997 128.047169 
L 81.415484 126.257401 
L 83.17597 124.810106 
L 84.936457 123.799634 
L 86.696944 123.203724 
L 87.577187 123.092316 
L 89.337673 123.250945 
L 91.978403 123.760773 
L 96.379619 124.133992 
L 98.140106 124.825432 
L 101.661079 126.732278 
L 102.541322 127.035387 
L 104.301809 127.316543 
L 106.062295 127.535468 
L 106.942539 127.777668 
L 108.703025 128.600694 
L 113.104241 131.198417 
L 114.864728 131.83762 
L 118.385701 132.829604 
L 120.146187 133.610055 
L 124.547404 135.792712 
L 132.469593 138.676192 
L 136.870809 139.771795 
L 138.631296 139.925658 
L 141.272026 139.974409 
L 143.032512 140.39225 
L 146.553485 141.667083 
L 148.313972 142.029124 
L 151.834945 142.433168 
L 156.236161 142.780049 
L 163.278107 143.248621 
L 165.918837 143.671721 
L 168.559567 144.090027 
L 170.320053 144.143535 
L 178.242243 143.958001 
L 185.284189 144.08081 
L 189.685405 144.097137 
L 199.368081 144.603934 
L 212.57173 144.790968 
L 212.57173 144.790968 
" style="fill:none;stroke:#ffffff;stroke-linecap:round;stroke-width:2;"/>
   </g>
   <g id="line2d_8">
    <path d="M 10.847472 144.792 
L 345.647472 144.792 
" style="fill:none;stroke:#5b89a2;stroke-linecap:round;stroke-width:2;"/>
   </g>
   <g id="text_4">
    <!-- 0.2 -->
    <g style="fill:#5b89a2;" transform="translate(261.947472 142.9473)scale(0.24 -0.24)">
     <defs>
      <path d="M 1844 884 
L 3897 884 
L 3897 0 
L 506 0 
L 506 884 
L 2209 2388 
Q 2438 2594 2547 2791 
Q 2656 2988 2656 3200 
Q 2656 3528 2436 3728 
Q 2216 3928 1850 3928 
Q 1569 3928 1234 3808 
Q 900 3688 519 3450 
L 519 4475 
Q 925 4609 1322 4679 
Q 1719 4750 2100 4750 
Q 2938 4750 3402 4381 
Q 3866 4013 3866 3353 
Q 3866 2972 3669 2642 
Q 3472 2313 2841 1759 
L 1844 884 
z
" id="DejaVuSans-Bold-32" transform="scale(0.015625)"/>
     </defs>
     <use xlink:href="#DejaVuSans-Bold-30"/>
     <use x="69.580078" xlink:href="#DejaVuSans-Bold-2e"/>
     <use x="107.568359" xlink:href="#DejaVuSans-Bold-32"/>
    </g>
   </g>
  </g>
  <g id="axes_5">
   <g id="patch_6">
    <path d="M 10.847472 176.544 
L 345.647472 176.544 
L 345.647472 134.208 
L 10.847472 134.208 
z
" style="fill:none;"/>
   </g>
   <g id="matplotlib.axis_9">
    <g id="xtick_17"/>
    <g id="xtick_18"/>
    <g id="xtick_19"/>
    <g id="xtick_20"/>
   </g>
   <g id="matplotlib.axis_10"/>
   <g id="PolyCollection_5">
    <defs>
     <path d="M 34.372056 -134.724849 
L 34.372056 -134.723375 
L 35.546335 -134.723375 
L 36.720614 -134.723375 
L 37.894893 -134.723375 
L 39.069172 -134.723375 
L 40.24345 -134.723375 
L 41.417729 -134.723375 
L 42.592008 -134.723375 
L 43.766287 -134.723375 
L 44.940566 -134.723375 
L 46.114844 -134.723375 
L 47.289123 -134.723375 
L 48.463402 -134.723375 
L 49.637681 -134.723375 
L 50.81196 -134.723375 
L 51.986239 -134.723375 
L 53.160517 -134.723375 
L 54.334796 -134.723375 
L 55.509075 -134.723375 
L 56.683354 -134.723375 
L 57.857633 -134.723375 
L 59.031911 -134.723375 
L 60.20619 -134.723375 
L 61.380469 -134.723375 
L 62.554748 -134.723375 
L 63.729027 -134.723375 
L 64.903305 -134.723375 
L 66.077584 -134.723375 
L 67.251863 -134.723375 
L 68.426142 -134.723375 
L 69.600421 -134.723375 
L 70.7747 -134.723375 
L 71.948978 -134.723375 
L 73.123257 -134.723375 
L 74.297536 -134.723375 
L 75.471815 -134.723375 
L 76.646094 -134.723375 
L 77.820372 -134.723375 
L 78.994651 -134.723375 
L 80.16893 -134.723375 
L 81.343209 -134.723375 
L 82.517488 -134.723375 
L 83.691766 -134.723375 
L 84.866045 -134.723375 
L 86.040324 -134.723375 
L 87.214603 -134.723375 
L 88.388882 -134.723375 
L 89.563161 -134.723375 
L 90.737439 -134.723375 
L 91.911718 -134.723375 
L 93.085997 -134.723375 
L 94.260276 -134.723375 
L 95.434555 -134.723375 
L 96.608833 -134.723375 
L 97.783112 -134.723375 
L 98.957391 -134.723375 
L 100.13167 -134.723375 
L 101.305949 -134.723375 
L 102.480227 -134.723375 
L 103.654506 -134.723375 
L 104.828785 -134.723375 
L 106.003064 -134.723375 
L 107.177343 -134.723375 
L 108.351622 -134.723375 
L 109.5259 -134.723375 
L 110.700179 -134.723375 
L 111.874458 -134.723375 
L 113.048737 -134.723375 
L 114.223016 -134.723375 
L 115.397294 -134.723375 
L 116.571573 -134.723375 
L 117.745852 -134.723375 
L 118.920131 -134.723375 
L 120.09441 -134.723375 
L 121.268688 -134.723375 
L 122.442967 -134.723375 
L 123.617246 -134.723375 
L 124.791525 -134.723375 
L 125.965804 -134.723375 
L 127.140083 -134.723375 
L 128.314361 -134.723375 
L 129.48864 -134.723375 
L 130.662919 -134.723375 
L 131.837198 -134.723375 
L 133.011477 -134.723375 
L 134.185755 -134.723375 
L 135.360034 -134.723375 
L 136.534313 -134.723375 
L 137.708592 -134.723375 
L 138.882871 -134.723375 
L 140.057149 -134.723375 
L 141.231428 -134.723375 
L 142.405707 -134.723375 
L 143.579986 -134.723375 
L 144.754265 -134.723375 
L 145.928544 -134.723375 
L 147.102822 -134.723375 
L 148.277101 -134.723375 
L 149.45138 -134.723375 
L 150.625659 -134.723375 
L 151.799938 -134.723375 
L 152.974216 -134.723375 
L 154.148495 -134.723375 
L 155.322774 -134.723375 
L 156.497053 -134.723375 
L 157.671332 -134.723375 
L 158.84561 -134.723375 
L 160.019889 -134.723375 
L 161.194168 -134.723375 
L 162.368447 -134.723375 
L 163.542726 -134.723375 
L 164.717005 -134.723375 
L 165.891283 -134.723375 
L 167.065562 -134.723375 
L 168.239841 -134.723375 
L 169.41412 -134.723375 
L 170.588399 -134.723375 
L 171.762677 -134.723375 
L 172.936956 -134.723375 
L 174.111235 -134.723375 
L 175.285514 -134.723375 
L 176.459793 -134.723375 
L 177.634071 -134.723375 
L 178.80835 -134.723375 
L 179.982629 -134.723375 
L 181.156908 -134.723375 
L 182.331187 -134.723375 
L 183.505466 -134.723375 
L 184.679744 -134.723375 
L 185.854023 -134.723375 
L 187.028302 -134.723375 
L 188.202581 -134.723375 
L 189.37686 -134.723375 
L 190.551138 -134.723375 
L 191.725417 -134.723375 
L 192.899696 -134.723375 
L 194.073975 -134.723375 
L 195.248254 -134.723375 
L 196.422532 -134.723375 
L 197.596811 -134.723375 
L 198.77109 -134.723375 
L 199.945369 -134.723375 
L 201.119648 -134.723375 
L 202.293927 -134.723375 
L 203.468205 -134.723375 
L 204.642484 -134.723375 
L 205.816763 -134.723375 
L 206.991042 -134.723375 
L 208.165321 -134.723375 
L 209.339599 -134.723375 
L 210.513878 -134.723375 
L 211.688157 -134.723375 
L 212.862436 -134.723375 
L 214.036715 -134.723375 
L 215.210994 -134.723375 
L 216.385272 -134.723375 
L 217.559551 -134.723375 
L 218.73383 -134.723375 
L 219.908109 -134.723375 
L 221.082388 -134.723375 
L 222.256666 -134.723375 
L 223.430945 -134.723375 
L 224.605224 -134.723375 
L 225.779503 -134.723375 
L 226.953782 -134.723375 
L 228.12806 -134.723375 
L 229.302339 -134.723375 
L 230.476618 -134.723375 
L 231.650897 -134.723375 
L 232.825176 -134.723375 
L 233.999455 -134.723375 
L 235.173733 -134.723375 
L 236.348012 -134.723375 
L 237.522291 -134.723375 
L 238.69657 -134.723375 
L 239.870849 -134.723375 
L 241.045127 -134.723375 
L 242.219406 -134.723375 
L 243.393685 -134.723375 
L 244.567964 -134.723375 
L 245.742243 -134.723375 
L 246.916521 -134.723375 
L 248.0908 -134.723375 
L 249.265079 -134.723375 
L 250.439358 -134.723375 
L 251.613637 -134.723375 
L 252.787916 -134.723375 
L 253.962194 -134.723375 
L 255.136473 -134.723375 
L 256.310752 -134.723375 
L 257.485031 -134.723375 
L 258.65931 -134.723375 
L 259.833588 -134.723375 
L 261.007867 -134.723375 
L 262.182146 -134.723375 
L 263.356425 -134.723375 
L 264.530704 -134.723375 
L 265.704982 -134.723375 
L 266.879261 -134.723375 
L 268.05354 -134.723375 
L 268.05354 -134.724203 
L 268.05354 -134.724203 
L 266.879261 -134.725769 
L 265.704982 -134.729374 
L 264.530704 -134.736413 
L 263.356425 -134.747946 
L 262.182146 -134.763532 
L 261.007867 -134.780288 
L 259.833588 -134.793325 
L 258.65931 -134.797931 
L 257.485031 -134.792292 
L 256.310752 -134.778642 
L 255.136473 -134.761902 
L 253.962194 -134.746995 
L 252.787916 -134.73695 
L 251.613637 -134.732819 
L 250.439358 -134.734735 
L 249.265079 -134.742661 
L 248.0908 -134.756018 
L 246.916521 -134.77258 
L 245.742243 -134.787994 
L 244.567964 -134.797027 
L 243.393685 -134.796206 
L 242.219406 -134.785923 
L 241.045127 -134.770309 
L 239.870849 -134.755062 
L 238.69657 -134.745166 
L 237.522291 -134.744022 
L 236.348012 -134.753716 
L 235.173733 -134.774847 
L 233.999455 -134.805121 
L 232.825176 -134.837913 
L 231.650897 -134.863188 
L 230.476618 -134.871691 
L 229.302339 -134.860065 
L 228.12806 -134.832905 
L 226.953782 -134.800017 
L 225.779503 -134.771196 
L 224.605224 -134.752497 
L 223.430945 -134.745783 
L 222.256666 -134.750252 
L 221.082388 -134.763701 
L 219.908109 -134.782784 
L 218.73383 -134.803191 
L 217.559551 -134.820683 
L 216.385272 -134.832504 
L 215.210994 -134.837953 
L 214.036715 -134.837931 
L 212.862436 -134.834665 
L 211.688157 -134.832345 
L 210.513878 -134.83743 
L 209.339599 -134.856854 
L 208.165321 -134.894379 
L 206.991042 -134.947627 
L 205.816763 -135.008094 
L 204.642484 -135.064147 
L 203.468205 -135.105323 
L 202.293927 -135.126258 
L 201.119648 -135.129082 
L 199.945369 -135.123157 
L 198.77109 -135.121628 
L 197.596811 -135.136038 
L 196.422532 -135.171701 
L 195.248254 -135.226077 
L 194.073975 -135.290656 
L 192.899696 -135.355291 
L 191.725417 -135.412946 
L 190.551138 -135.462626 
L 189.37686 -135.509142 
L 188.202581 -135.559813 
L 187.028302 -135.619376 
L 185.854023 -135.685035 
L 184.679744 -135.744386 
L 183.505466 -135.778976 
L 182.331187 -135.773569 
L 181.156908 -135.726543 
L 179.982629 -135.654321 
L 178.80835 -135.586106 
L 177.634071 -135.552015 
L 176.459793 -135.5718 
L 175.285514 -135.649419 
L 174.111235 -135.773663 
L 172.936956 -135.92201 
L 171.762677 -136.065755 
L 170.588399 -136.176763 
L 169.41412 -136.236039 
L 168.239841 -136.241027 
L 167.065562 -136.206354 
L 165.891283 -136.155911 
L 164.717005 -136.111339 
L 163.542726 -136.085735 
L 162.368447 -136.086649 
L 161.194168 -136.123357 
L 160.019889 -136.209512 
L 158.84561 -136.357518 
L 157.671332 -136.569421 
L 156.497053 -136.831871 
L 155.322774 -137.118336 
L 154.148495 -137.396075 
L 152.974216 -137.633842 
L 151.799938 -137.808565 
L 150.625659 -137.911738 
L 149.45138 -137.956052 
L 148.277101 -137.979419 
L 147.102822 -138.03947 
L 145.928544 -138.193213 
L 144.754265 -138.468023 
L 143.579986 -138.843633 
L 142.405707 -139.263167 
L 141.231428 -139.66916 
L 140.057149 -140.037178 
L 138.882871 -140.380293 
L 137.708592 -140.72417 
L 136.534313 -141.078064 
L 135.360034 -141.426005 
L 134.185755 -141.739436 
L 133.011477 -141.995075 
L 131.837198 -142.185329 
L 130.662919 -142.320656 
L 129.48864 -142.426656 
L 128.314361 -142.535668 
L 127.140083 -142.675465 
L 125.965804 -142.864125 
L 124.791525 -143.116565 
L 123.617246 -143.454484 
L 122.442967 -143.904723 
L 121.268688 -144.481581 
L 120.09441 -145.164697 
L 118.920131 -145.889584 
L 117.745852 -146.560876 
L 116.571573 -147.087026 
L 115.397294 -147.424446 
L 114.223016 -147.609967 
L 113.048737 -147.758575 
L 111.874458 -148.017248 
L 110.700179 -148.493341 
L 109.5259 -149.197547 
L 108.351622 -150.035288 
L 107.177343 -150.848324 
L 106.003064 -151.47826 
L 104.828785 -151.820025 
L 103.654506 -151.850706 
L 102.480227 -151.633086 
L 101.305949 -151.294494 
L 100.13167 -150.983903 
L 98.957391 -150.822027 
L 97.783112 -150.867552 
L 96.608833 -151.113461 
L 95.434555 -151.508196 
L 94.260276 -151.984847 
L 93.085997 -152.483001 
L 91.911718 -152.95515 
L 90.737439 -153.358134 
L 89.563161 -153.640512 
L 88.388882 -153.743722 
L 87.214603 -153.626364 
L 86.040324 -153.297027 
L 84.866045 -152.825009 
L 83.691766 -152.312921 
L 82.517488 -151.848522 
L 81.343209 -151.46907 
L 80.16893 -151.156186 
L 78.994651 -150.855607 
L 77.820372 -150.506494 
L 76.646094 -150.066296 
L 75.471815 -149.520936 
L 74.297536 -148.878199 
L 73.123257 -148.153375 
L 71.948978 -147.359845 
L 70.7747 -146.509683 
L 69.600421 -145.620502 
L 68.426142 -144.722333 
L 67.251863 -143.85872 
L 66.077584 -143.077221 
L 64.903305 -142.409969 
L 63.729027 -141.85444 
L 62.554748 -141.368632 
L 61.380469 -140.887823 
L 60.20619 -140.356168 
L 59.031911 -139.755417 
L 57.857633 -139.1125 
L 56.683354 -138.480405 
L 55.509075 -137.905752 
L 54.334796 -137.406362 
L 53.160517 -136.97293 
L 51.986239 -136.588637 
L 50.81196 -136.247559 
L 49.637681 -135.957116 
L 48.463402 -135.725692 
L 47.289123 -135.549151 
L 46.114844 -135.409073 
L 44.940566 -135.283426 
L 43.766287 -135.159476 
L 42.592008 -135.038544 
L 41.417729 -134.930812 
L 40.24345 -134.846197 
L 39.069172 -134.78827 
L 37.894893 -134.753801 
L 36.720614 -134.735981 
L 35.546335 -134.727975 
L 34.372056 -134.724849 
z
" id="mb785050b31" style="stroke:#6b9daf;stroke-width:1.5;"/>
    </defs>
    <g>
     <use style="fill:#6b9daf;stroke:#6b9daf;stroke-width:1.5;" x="0" xlink:href="#mb785050b31" y="311.267375"/>
    </g>
   </g>
   <g id="line2d_9">
    <path d="M 34.372056 176.542526 
L 40.24345 176.421178 
L 44.940566 175.983949 
L 48.463402 175.541683 
L 50.81196 175.019816 
L 53.160517 174.294445 
L 55.509075 173.361623 
L 57.857633 172.154875 
L 60.20619 170.911207 
L 66.077584 168.190154 
L 68.426142 166.545042 
L 71.948978 163.90753 
L 74.297536 162.389176 
L 76.646094 161.201079 
L 78.994651 160.411768 
L 82.517488 159.418853 
L 87.214603 157.641011 
L 88.388882 157.523653 
L 89.563161 157.626863 
L 90.737439 157.909241 
L 93.085997 158.784374 
L 95.434555 159.759179 
L 96.608833 160.153914 
L 97.783112 160.399823 
L 98.957391 160.445348 
L 100.13167 160.283472 
L 103.654506 159.416669 
L 104.828785 159.44735 
L 106.003064 159.789115 
L 107.177343 160.419051 
L 110.700179 162.774034 
L 111.874458 163.250127 
L 114.223016 163.657408 
L 115.397294 163.842929 
L 116.571573 164.180349 
L 117.745852 164.706499 
L 122.442967 167.362652 
L 124.791525 168.15081 
L 127.140083 168.59191 
L 134.185755 169.527939 
L 138.882871 170.887082 
L 142.405707 172.004208 
L 144.754265 172.799352 
L 145.928544 173.074162 
L 148.277101 173.287956 
L 151.799938 173.45881 
L 154.148495 173.8713 
L 158.84561 174.909857 
L 161.194168 175.144018 
L 164.717005 175.156036 
L 169.41412 175.031336 
L 171.762677 175.20162 
L 176.459793 175.695575 
L 178.80835 175.681269 
L 183.505466 175.488399 
L 190.551138 175.804749 
L 199.945369 176.144218 
L 204.642484 176.203228 
L 211.688157 176.43503 
L 235.173733 176.492528 
L 241.045127 176.497066 
L 248.0908 176.511357 
L 255.136473 176.505473 
L 262.182146 176.503843 
L 268.05354 176.543172 
L 268.05354 176.543172 
" style="fill:none;stroke:#ffffff;stroke-linecap:round;stroke-width:2;"/>
   </g>
   <g id="line2d_10">
    <path d="M 10.847472 176.544 
L 345.647472 176.544 
" style="fill:none;stroke:#6b9daf;stroke-linecap:round;stroke-width:2;"/>
   </g>
   <g id="text_5">
    <!-- 0.25 -->
    <g style="fill:#6b9daf;" transform="translate(261.947472 174.6993)scale(0.24 -0.24)">
     <use xlink:href="#DejaVuSans-Bold-30"/>
     <use x="69.580078" xlink:href="#DejaVuSans-Bold-2e"/>
     <use x="107.568359" xlink:href="#DejaVuSans-Bold-32"/>
     <use x="177.148438" xlink:href="#DejaVuSans-Bold-35"/>
    </g>
   </g>
  </g>
  <g id="axes_6">
   <g id="patch_7">
    <path d="M 10.847472 208.296 
L 345.647472 208.296 
L 345.647472 165.96 
L 10.847472 165.96 
z
" style="fill:none;"/>
   </g>
   <g id="matplotlib.axis_11">
    <g id="xtick_21"/>
    <g id="xtick_22"/>
    <g id="xtick_23"/>
    <g id="xtick_24"/>
   </g>
   <g id="matplotlib.axis_12"/>
   <g id="PolyCollection_6">
    <defs>
     <path d="M 29.707897 -102.972163 
L 29.707897 -102.971375 
L 31.15021 -102.971375 
L 32.592523 -102.971375 
L 34.034836 -102.971375 
L 35.477149 -102.971375 
L 36.919462 -102.971375 
L 38.361775 -102.971375 
L 39.804088 -102.971375 
L 41.246401 -102.971375 
L 42.688714 -102.971375 
L 44.131026 -102.971375 
L 45.573339 -102.971375 
L 47.015652 -102.971375 
L 48.457965 -102.971375 
L 49.900278 -102.971375 
L 51.342591 -102.971375 
L 52.784904 -102.971375 
L 54.227217 -102.971375 
L 55.66953 -102.971375 
L 57.111843 -102.971375 
L 58.554156 -102.971375 
L 59.996469 -102.971375 
L 61.438782 -102.971375 
L 62.881095 -102.971375 
L 64.323408 -102.971375 
L 65.765721 -102.971375 
L 67.208034 -102.971375 
L 68.650347 -102.971375 
L 70.09266 -102.971375 
L 71.534972 -102.971375 
L 72.977285 -102.971375 
L 74.419598 -102.971375 
L 75.861911 -102.971375 
L 77.304224 -102.971375 
L 78.746537 -102.971375 
L 80.18885 -102.971375 
L 81.631163 -102.971375 
L 83.073476 -102.971375 
L 84.515789 -102.971375 
L 85.958102 -102.971375 
L 87.400415 -102.971375 
L 88.842728 -102.971375 
L 90.285041 -102.971375 
L 91.727354 -102.971375 
L 93.169667 -102.971375 
L 94.61198 -102.971375 
L 96.054293 -102.971375 
L 97.496606 -102.971375 
L 98.938918 -102.971375 
L 100.381231 -102.971375 
L 101.823544 -102.971375 
L 103.265857 -102.971375 
L 104.70817 -102.971375 
L 106.150483 -102.971375 
L 107.592796 -102.971375 
L 109.035109 -102.971375 
L 110.477422 -102.971375 
L 111.919735 -102.971375 
L 113.362048 -102.971375 
L 114.804361 -102.971375 
L 116.246674 -102.971375 
L 117.688987 -102.971375 
L 119.1313 -102.971375 
L 120.573613 -102.971375 
L 122.015926 -102.971375 
L 123.458239 -102.971375 
L 124.900551 -102.971375 
L 126.342864 -102.971375 
L 127.785177 -102.971375 
L 129.22749 -102.971375 
L 130.669803 -102.971375 
L 132.112116 -102.971375 
L 133.554429 -102.971375 
L 134.996742 -102.971375 
L 136.439055 -102.971375 
L 137.881368 -102.971375 
L 139.323681 -102.971375 
L 140.765994 -102.971375 
L 142.208307 -102.971375 
L 143.65062 -102.971375 
L 145.092933 -102.971375 
L 146.535246 -102.971375 
L 147.977559 -102.971375 
L 149.419872 -102.971375 
L 150.862185 -102.971375 
L 152.304497 -102.971375 
L 153.74681 -102.971375 
L 155.189123 -102.971375 
L 156.631436 -102.971375 
L 158.073749 -102.971375 
L 159.516062 -102.971375 
L 160.958375 -102.971375 
L 162.400688 -102.971375 
L 163.843001 -102.971375 
L 165.285314 -102.971375 
L 166.727627 -102.971375 
L 168.16994 -102.971375 
L 169.612253 -102.971375 
L 171.054566 -102.971375 
L 172.496879 -102.971375 
L 173.939192 -102.971375 
L 175.381505 -102.971375 
L 176.823818 -102.971375 
L 178.266131 -102.971375 
L 179.708443 -102.971375 
L 181.150756 -102.971375 
L 182.593069 -102.971375 
L 184.035382 -102.971375 
L 185.477695 -102.971375 
L 186.920008 -102.971375 
L 188.362321 -102.971375 
L 189.804634 -102.971375 
L 191.246947 -102.971375 
L 192.68926 -102.971375 
L 194.131573 -102.971375 
L 195.573886 -102.971375 
L 197.016199 -102.971375 
L 198.458512 -102.971375 
L 199.900825 -102.971375 
L 201.343138 -102.971375 
L 202.785451 -102.971375 
L 204.227764 -102.971375 
L 205.670077 -102.971375 
L 207.112389 -102.971375 
L 208.554702 -102.971375 
L 209.997015 -102.971375 
L 211.439328 -102.971375 
L 212.881641 -102.971375 
L 214.323954 -102.971375 
L 215.766267 -102.971375 
L 217.20858 -102.971375 
L 218.650893 -102.971375 
L 220.093206 -102.971375 
L 221.535519 -102.971375 
L 222.977832 -102.971375 
L 224.420145 -102.971375 
L 225.862458 -102.971375 
L 227.304771 -102.971375 
L 228.747084 -102.971375 
L 230.189397 -102.971375 
L 231.63171 -102.971375 
L 233.074022 -102.971375 
L 234.516335 -102.971375 
L 235.958648 -102.971375 
L 237.400961 -102.971375 
L 238.843274 -102.971375 
L 240.285587 -102.971375 
L 241.7279 -102.971375 
L 243.170213 -102.971375 
L 244.612526 -102.971375 
L 246.054839 -102.971375 
L 247.497152 -102.971375 
L 248.939465 -102.971375 
L 250.381778 -102.971375 
L 251.824091 -102.971375 
L 253.266404 -102.971375 
L 254.708717 -102.971375 
L 256.15103 -102.971375 
L 257.593343 -102.971375 
L 259.035656 -102.971375 
L 260.477968 -102.971375 
L 261.920281 -102.971375 
L 263.362594 -102.971375 
L 264.804907 -102.971375 
L 266.24722 -102.971375 
L 267.689533 -102.971375 
L 269.131846 -102.971375 
L 270.574159 -102.971375 
L 272.016472 -102.971375 
L 273.458785 -102.971375 
L 274.901098 -102.971375 
L 276.343411 -102.971375 
L 277.785724 -102.971375 
L 279.228037 -102.971375 
L 280.67035 -102.971375 
L 282.112663 -102.971375 
L 283.554976 -102.971375 
L 284.997289 -102.971375 
L 286.439602 -102.971375 
L 287.881914 -102.971375 
L 289.324227 -102.971375 
L 290.76654 -102.971375 
L 292.208853 -102.971375 
L 293.651166 -102.971375 
L 295.093479 -102.971375 
L 296.535792 -102.971375 
L 297.978105 -102.971375 
L 299.420418 -102.971375 
L 300.862731 -102.971375 
L 302.305044 -102.971375 
L 303.747357 -102.971375 
L 305.18967 -102.971375 
L 306.631983 -102.971375 
L 308.074296 -102.971375 
L 309.516609 -102.971375 
L 310.958922 -102.971375 
L 312.401235 -102.971375 
L 313.843548 -102.971375 
L 315.28586 -102.971375 
L 316.728173 -102.971375 
L 316.728173 -102.972122 
L 316.728173 -102.972122 
L 315.28586 -102.973772 
L 313.843548 -102.977836 
L 312.401235 -102.986001 
L 310.958922 -102.999182 
L 309.516609 -103.01577 
L 308.074296 -103.030898 
L 306.631983 -103.038394 
L 305.18967 -103.034745 
L 303.747357 -103.021694 
L 302.305044 -103.004929 
L 300.862731 -102.990165 
L 299.420418 -102.980211 
L 297.978105 -102.974865 
L 296.535792 -102.972532 
L 295.093479 -102.971697 
L 293.651166 -102.97145 
L 292.208853 -102.97139 
L 290.76654 -102.971377 
L 289.324227 -102.971375 
L 287.881914 -102.971376 
L 286.439602 -102.971379 
L 284.997289 -102.971399 
L 283.554976 -102.971493 
L 282.112663 -102.971853 
L 280.67035 -102.973006 
L 279.228037 -102.976045 
L 277.785724 -102.982609 
L 276.343411 -102.994068 
L 274.901098 -103.009876 
L 273.458785 -103.026254 
L 272.016472 -103.037172 
L 270.574159 -103.038031 
L 269.131846 -103.029388 
L 267.689533 -103.01726 
L 266.24722 -103.009495 
L 264.804907 -103.010972 
L 263.362594 -103.02077 
L 261.920281 -103.032691 
L 260.477968 -103.038917 
L 259.035656 -103.034826 
L 257.593343 -103.02164 
L 256.15103 -103.004854 
L 254.708717 -102.990122 
L 253.266404 -102.980274 
L 251.824091 -102.975292 
L 250.381778 -102.974188 
L 248.939465 -102.976923 
L 247.497152 -102.985277 
L 246.054839 -103.00215 
L 244.612526 -103.028939 
L 243.170213 -103.061979 
L 241.7279 -103.091338 
L 240.285587 -103.104989 
L 238.843274 -103.096596 
L 237.400961 -103.070273 
L 235.958648 -103.037801 
L 234.516335 -103.011336 
L 233.074022 -102.998383 
L 231.63171 -103.001717 
L 230.189397 -103.021005 
L 228.747084 -103.052594 
L 227.304771 -103.088562 
L 225.862458 -103.119195 
L 224.420145 -103.139572 
L 222.977832 -103.154355 
L 221.535519 -103.174335 
L 220.093206 -103.206329 
L 218.650893 -103.245551 
L 217.20858 -103.277721 
L 215.766267 -103.289426 
L 214.323954 -103.278431 
L 212.881641 -103.255825 
L 211.439328 -103.238466 
L 209.997015 -103.238338 
L 208.554702 -103.257478 
L 207.112389 -103.290885 
L 205.670077 -103.332417 
L 204.227764 -103.378014 
L 202.785451 -103.425288 
L 201.343138 -103.471917 
L 199.900825 -103.515153 
L 198.458512 -103.553258 
L 197.016199 -103.588106 
L 195.573886 -103.626671 
L 194.131573 -103.678634 
L 192.68926 -103.749811 
L 191.246947 -103.835561 
L 189.804634 -103.920291 
L 188.362321 -103.984811 
L 186.920008 -104.016642 
L 185.477695 -104.016967 
L 184.035382 -104.001294 
L 182.593069 -103.9933 
L 181.150756 -104.013834 
L 179.708443 -104.072032 
L 178.266131 -104.16556 
L 176.823818 -104.287856 
L 175.381505 -104.433959 
L 173.939192 -104.601536 
L 172.496879 -104.78814 
L 171.054566 -104.98301 
L 169.612253 -105.157309 
L 168.16994 -105.271362 
L 166.727627 -105.308671 
L 165.285314 -105.307677 
L 163.843001 -105.347623 
L 162.400688 -105.490679 
L 160.958375 -105.735446 
L 159.516062 -106.024857 
L 158.073749 -106.291793 
L 156.631436 -106.496168 
L 155.189123 -106.632728 
L 153.74681 -106.721329 
L 152.304497 -106.793443 
L 150.862185 -106.877812 
L 149.419872 -106.99045 
L 147.977559 -107.137811 
L 146.535246 -107.328663 
L 145.092933 -107.575801 
L 143.65062 -107.879436 
L 142.208307 -108.210367 
L 140.765994 -108.517424 
L 139.323681 -108.759621 
L 137.881368 -108.937122 
L 136.439055 -109.094869 
L 134.996742 -109.294642 
L 133.554429 -109.57392 
L 132.112116 -109.92045 
L 130.669803 -110.283631 
L 129.22749 -110.615896 
L 127.785177 -110.910278 
L 126.342864 -111.203303 
L 124.900551 -111.541743 
L 123.458239 -111.939316 
L 122.015926 -112.359705 
L 120.573613 -112.747345 
L 119.1313 -113.084683 
L 117.688987 -113.420953 
L 116.246674 -113.841119 
L 114.804361 -114.403409 
L 113.362048 -115.098338 
L 111.919735 -115.85256 
L 110.477422 -116.564031 
L 109.035109 -117.143831 
L 107.592796 -117.545824 
L 106.150483 -117.775199 
L 104.70817 -117.87825 
L 103.265857 -117.924544 
L 101.823544 -117.992042 
L 100.381231 -118.155736 
L 98.938918 -118.469244 
L 97.496606 -118.932595 
L 96.054293 -119.464866 
L 94.61198 -119.919248 
L 93.169667 -120.152426 
L 91.727354 -120.107421 
L 90.285041 -119.849914 
L 88.842728 -119.530998 
L 87.400415 -119.298777 
L 85.958102 -119.215322 
L 84.515789 -119.234855 
L 83.073476 -119.253177 
L 81.631163 -119.181578 
L 80.18885 -118.989278 
L 78.746537 -118.698247 
L 77.304224 -118.349337 
L 75.861911 -117.963105 
L 74.419598 -117.514354 
L 72.977285 -116.939493 
L 71.534972 -116.180842 
L 70.09266 -115.236907 
L 68.650347 -114.172236 
L 67.208034 -113.075468 
L 65.765721 -112.005583 
L 64.323408 -110.974866 
L 62.881095 -109.975885 
L 61.438782 -109.016691 
L 59.996469 -108.127355 
L 58.554156 -107.338459 
L 57.111843 -106.662967 
L 55.66953 -106.100008 
L 54.227217 -105.644183 
L 52.784904 -105.279278 
L 51.342591 -104.966925 
L 49.900278 -104.657644 
L 48.457965 -104.324074 
L 47.015652 -103.982263 
L 45.573339 -103.67631 
L 44.131026 -103.442218 
L 42.688714 -103.285609 
L 41.246401 -103.187168 
L 39.804088 -103.121921 
L 38.361775 -103.073242 
L 36.919462 -103.035053 
L 35.477149 -103.006883 
L 34.034836 -102.988656 
L 32.592523 -102.978618 
L 31.15021 -102.973967 
L 29.707897 -102.972163 
z
" id="m4638a106d6" style="stroke:#7cafbb;stroke-width:1.5;"/>
    </defs>
    <g>
     <use style="fill:#7cafbb;stroke:#7cafbb;stroke-width:1.5;" x="0" xlink:href="#m4638a106d6" y="311.267375"/>
    </g>
   </g>
   <g id="line2d_11">
    <path d="M 29.707897 208.295212 
L 38.361775 208.194133 
L 42.688714 207.981766 
L 45.573339 207.591065 
L 52.784904 205.988097 
L 55.66953 205.167367 
L 58.554156 203.928916 
L 61.438782 202.250684 
L 65.765721 199.261792 
L 71.534972 195.086533 
L 72.977285 194.327882 
L 74.419598 193.753021 
L 77.304224 192.918038 
L 80.18885 192.278097 
L 81.631163 192.085797 
L 84.515789 192.03252 
L 87.400415 191.968598 
L 93.169667 191.114949 
L 94.61198 191.348127 
L 100.381231 193.111639 
L 103.265857 193.342831 
L 106.150483 193.492176 
L 107.592796 193.721551 
L 109.035109 194.123544 
L 110.477422 194.703344 
L 116.246674 197.426256 
L 119.1313 198.182692 
L 122.015926 198.90767 
L 126.342864 200.064072 
L 132.112116 201.346925 
L 134.996742 201.972733 
L 142.208307 203.057008 
L 146.535246 203.938712 
L 149.419872 204.276925 
L 158.073749 204.975582 
L 162.400688 205.776696 
L 165.285314 205.959698 
L 168.16994 205.996013 
L 171.054566 206.284365 
L 176.823818 206.979519 
L 181.150756 207.253541 
L 192.68926 207.517564 
L 198.458512 207.714117 
L 212.881641 208.01155 
L 218.650893 208.021824 
L 231.63171 208.265658 
L 237.400961 208.197102 
L 241.7279 208.176037 
L 251.824091 208.292083 
L 282.112663 208.295522 
L 316.728173 208.295253 
L 316.728173 208.295253 
" style="fill:none;stroke:#ffffff;stroke-linecap:round;stroke-width:2;"/>
   </g>
   <g id="line2d_12">
    <path d="M 10.847472 208.296 
L 345.647472 208.296 
" style="fill:none;stroke:#7cafbb;stroke-linecap:round;stroke-width:2;"/>
   </g>
   <g id="text_6">
    <!-- 0.3 -->
    <g style="fill:#7cafbb;" transform="translate(261.947472 206.4513)scale(0.24 -0.24)">
     <defs>
      <path d="M 2981 2516 
Q 3453 2394 3698 2092 
Q 3944 1791 3944 1325 
Q 3944 631 3412 270 
Q 2881 -91 1863 -91 
Q 1503 -91 1142 -33 
Q 781 25 428 141 
L 428 1069 
Q 766 900 1098 814 
Q 1431 728 1753 728 
Q 2231 728 2486 893 
Q 2741 1059 2741 1369 
Q 2741 1688 2480 1852 
Q 2219 2016 1709 2016 
L 1228 2016 
L 1228 2791 
L 1734 2791 
Q 2188 2791 2409 2933 
Q 2631 3075 2631 3366 
Q 2631 3634 2415 3781 
Q 2200 3928 1806 3928 
Q 1516 3928 1219 3862 
Q 922 3797 628 3669 
L 628 4550 
Q 984 4650 1334 4700 
Q 1684 4750 2022 4750 
Q 2931 4750 3382 4451 
Q 3834 4153 3834 3553 
Q 3834 3144 3618 2883 
Q 3403 2622 2981 2516 
z
" id="DejaVuSans-Bold-33" transform="scale(0.015625)"/>
     </defs>
     <use xlink:href="#DejaVuSans-Bold-30"/>
     <use x="69.580078" xlink:href="#DejaVuSans-Bold-2e"/>
     <use x="107.568359" xlink:href="#DejaVuSans-Bold-33"/>
    </g>
   </g>
  </g>
  <g id="axes_7">
   <g id="patch_8">
    <path d="M 10.847472 240.048 
L 345.647472 240.048 
L 345.647472 197.712 
L 10.847472 197.712 
z
" style="fill:none;"/>
   </g>
   <g id="matplotlib.axis_13">
    <g id="xtick_25">
     <g id="text_7">
      <!-- 0 -->
      <g style="fill:#262626;" transform="translate(7.2 272.264563)scale(0.22 -0.22)">
       <defs>
        <path d="M 2034 4250 
Q 1547 4250 1301 3770 
Q 1056 3291 1056 2328 
Q 1056 1369 1301 889 
Q 1547 409 2034 409 
Q 2525 409 2770 889 
Q 3016 1369 3016 2328 
Q 3016 3291 2770 3770 
Q 2525 4250 2034 4250 
z
M 2034 4750 
Q 2819 4750 3233 4129 
Q 3647 3509 3647 2328 
Q 3647 1150 3233 529 
Q 2819 -91 2034 -91 
Q 1250 -91 836 529 
Q 422 1150 422 2328 
Q 422 3509 836 4129 
Q 1250 4750 2034 4750 
z
" id="DejaVuSans-30" transform="scale(0.015625)"/>
       </defs>
       <use xlink:href="#DejaVuSans-30"/>
      </g>
     </g>
    </g>
    <g id="xtick_26">
     <g id="text_8">
      <!-- 1 -->
      <g style="fill:#262626;" transform="translate(114.470014 272.264563)scale(0.22 -0.22)">
       <defs>
        <path d="M 794 531 
L 1825 531 
L 1825 4091 
L 703 3866 
L 703 4441 
L 1819 4666 
L 2450 4666 
L 2450 531 
L 3481 531 
L 3481 0 
L 794 0 
L 794 531 
z
" id="DejaVuSans-31" transform="scale(0.015625)"/>
       </defs>
       <use xlink:href="#DejaVuSans-31"/>
      </g>
     </g>
    </g>
    <g id="xtick_27">
     <g id="text_9">
      <!-- 2 -->
      <g style="fill:#262626;" transform="translate(221.740028 272.264563)scale(0.22 -0.22)">
       <defs>
        <path d="M 1228 531 
L 3431 531 
L 3431 0 
L 469 0 
L 469 531 
Q 828 903 1448 1529 
Q 2069 2156 2228 2338 
Q 2531 2678 2651 2914 
Q 2772 3150 2772 3378 
Q 2772 3750 2511 3984 
Q 2250 4219 1831 4219 
Q 1534 4219 1204 4116 
Q 875 4013 500 3803 
L 500 4441 
Q 881 4594 1212 4672 
Q 1544 4750 1819 4750 
Q 2544 4750 2975 4387 
Q 3406 4025 3406 3419 
Q 3406 3131 3298 2873 
Q 3191 2616 2906 2266 
Q 2828 2175 2409 1742 
Q 1991 1309 1228 531 
z
" id="DejaVuSans-32" transform="scale(0.015625)"/>
       </defs>
       <use xlink:href="#DejaVuSans-32"/>
      </g>
     </g>
    </g>
    <g id="xtick_28">
     <g id="text_10">
      <!-- 3 -->
      <g style="fill:#262626;" transform="translate(329.010042 272.264563)scale(0.22 -0.22)">
       <defs>
        <path d="M 2597 2516 
Q 3050 2419 3304 2112 
Q 3559 1806 3559 1356 
Q 3559 666 3084 287 
Q 2609 -91 1734 -91 
Q 1441 -91 1130 -33 
Q 819 25 488 141 
L 488 750 
Q 750 597 1062 519 
Q 1375 441 1716 441 
Q 2309 441 2620 675 
Q 2931 909 2931 1356 
Q 2931 1769 2642 2001 
Q 2353 2234 1838 2234 
L 1294 2234 
L 1294 2753 
L 1863 2753 
Q 2328 2753 2575 2939 
Q 2822 3125 2822 3475 
Q 2822 3834 2567 4026 
Q 2313 4219 1838 4219 
Q 1578 4219 1281 4162 
Q 984 4106 628 3988 
L 628 4550 
Q 988 4650 1302 4700 
Q 1616 4750 1894 4750 
Q 2613 4750 3031 4423 
Q 3450 4097 3450 3541 
Q 3450 3153 3228 2886 
Q 3006 2619 2597 2516 
z
" id="DejaVuSans-33" transform="scale(0.015625)"/>
       </defs>
       <use xlink:href="#DejaVuSans-33"/>
      </g>
     </g>
    </g>
    <g id="text_11">
     <!-- $E$ -->
     <g style="fill:#262626;" transform="translate(170.567472 299.076125)scale(0.24 -0.24)">
      <defs>
       <path d="M 1081 4666 
L 4031 4666 
L 3928 4134 
L 1606 4134 
L 1338 2753 
L 3566 2753 
L 3463 2222 
L 1234 2222 
L 909 531 
L 3284 531 
L 3181 0 
L 172 0 
L 1081 4666 
z
" id="DejaVuSans-Oblique-45" transform="scale(0.015625)"/>
      </defs>
      <use transform="translate(0 0.09375)" xlink:href="#DejaVuSans-Oblique-45"/>
     </g>
    </g>
   </g>
   <g id="matplotlib.axis_14"/>
   <g id="PolyCollection_7">
    <defs>
     <path d="M 26.065654 -71.220384 
L 26.065654 -71.219375 
L 27.595119 -71.219375 
L 29.124585 -71.219375 
L 30.65405 -71.219375 
L 32.183516 -71.219375 
L 33.712981 -71.219375 
L 35.242447 -71.219375 
L 36.771912 -71.219375 
L 38.301378 -71.219375 
L 39.830843 -71.219375 
L 41.360309 -71.219375 
L 42.889774 -71.219375 
L 44.41924 -71.219375 
L 45.948705 -71.219375 
L 47.478171 -71.219375 
L 49.007636 -71.219375 
L 50.537102 -71.219375 
L 52.066567 -71.219375 
L 53.596033 -71.219375 
L 55.125498 -71.219375 
L 56.654964 -71.219375 
L 58.184429 -71.219375 
L 59.713895 -71.219375 
L 61.24336 -71.219375 
L 62.772826 -71.219375 
L 64.302291 -71.219375 
L 65.831757 -71.219375 
L 67.361222 -71.219375 
L 68.890688 -71.219375 
L 70.420153 -71.219375 
L 71.949619 -71.219375 
L 73.479085 -71.219375 
L 75.00855 -71.219375 
L 76.538016 -71.219375 
L 78.067481 -71.219375 
L 79.596947 -71.219375 
L 81.126412 -71.219375 
L 82.655878 -71.219375 
L 84.185343 -71.219375 
L 85.714809 -71.219375 
L 87.244274 -71.219375 
L 88.77374 -71.219375 
L 90.303205 -71.219375 
L 91.832671 -71.219375 
L 93.362136 -71.219375 
L 94.891602 -71.219375 
L 96.421067 -71.219375 
L 97.950533 -71.219375 
L 99.479998 -71.219375 
L 101.009464 -71.219375 
L 102.538929 -71.219375 
L 104.068395 -71.219375 
L 105.59786 -71.219375 
L 107.127326 -71.219375 
L 108.656791 -71.219375 
L 110.186257 -71.219375 
L 111.715722 -71.219375 
L 113.245188 -71.219375 
L 114.774653 -71.219375 
L 116.304119 -71.219375 
L 117.833584 -71.219375 
L 119.36305 -71.219375 
L 120.892515 -71.219375 
L 122.421981 -71.219375 
L 123.951446 -71.219375 
L 125.480912 -71.219375 
L 127.010377 -71.219375 
L 128.539843 -71.219375 
L 130.069308 -71.219375 
L 131.598774 -71.219375 
L 133.128239 -71.219375 
L 134.657705 -71.219375 
L 136.18717 -71.219375 
L 137.716636 -71.219375 
L 139.246101 -71.219375 
L 140.775567 -71.219375 
L 142.305032 -71.219375 
L 143.834498 -71.219375 
L 145.363963 -71.219375 
L 146.893429 -71.219375 
L 148.422894 -71.219375 
L 149.95236 -71.219375 
L 151.481825 -71.219375 
L 153.011291 -71.219375 
L 154.540757 -71.219375 
L 156.070222 -71.219375 
L 157.599688 -71.219375 
L 159.129153 -71.219375 
L 160.658619 -71.219375 
L 162.188084 -71.219375 
L 163.71755 -71.219375 
L 165.247015 -71.219375 
L 166.776481 -71.219375 
L 168.305946 -71.219375 
L 169.835412 -71.219375 
L 171.364877 -71.219375 
L 172.894343 -71.219375 
L 174.423808 -71.219375 
L 175.953274 -71.219375 
L 177.482739 -71.219375 
L 179.012205 -71.219375 
L 180.54167 -71.219375 
L 182.071136 -71.219375 
L 183.600601 -71.219375 
L 185.130067 -71.219375 
L 186.659532 -71.219375 
L 188.188998 -71.219375 
L 189.718463 -71.219375 
L 191.247929 -71.219375 
L 192.777394 -71.219375 
L 194.30686 -71.219375 
L 195.836325 -71.219375 
L 197.365791 -71.219375 
L 198.895256 -71.219375 
L 200.424722 -71.219375 
L 201.954187 -71.219375 
L 203.483653 -71.219375 
L 205.013118 -71.219375 
L 206.542584 -71.219375 
L 208.072049 -71.219375 
L 209.601515 -71.219375 
L 211.13098 -71.219375 
L 212.660446 -71.219375 
L 214.189911 -71.219375 
L 215.719377 -71.219375 
L 217.248842 -71.219375 
L 218.778308 -71.219375 
L 220.307773 -71.219375 
L 221.837239 -71.219375 
L 223.366704 -71.219375 
L 224.89617 -71.219375 
L 226.425635 -71.219375 
L 227.955101 -71.219375 
L 229.484566 -71.219375 
L 231.014032 -71.219375 
L 232.543497 -71.219375 
L 234.072963 -71.219375 
L 235.602429 -71.219375 
L 237.131894 -71.219375 
L 238.66136 -71.219375 
L 240.190825 -71.219375 
L 241.720291 -71.219375 
L 243.249756 -71.219375 
L 244.779222 -71.219375 
L 246.308687 -71.219375 
L 247.838153 -71.219375 
L 249.367618 -71.219375 
L 250.897084 -71.219375 
L 252.426549 -71.219375 
L 253.956015 -71.219375 
L 255.48548 -71.219375 
L 257.014946 -71.219375 
L 258.544411 -71.219375 
L 260.073877 -71.219375 
L 261.603342 -71.219375 
L 263.132808 -71.219375 
L 264.662273 -71.219375 
L 266.191739 -71.219375 
L 267.721204 -71.219375 
L 269.25067 -71.219375 
L 270.780135 -71.219375 
L 272.309601 -71.219375 
L 273.839066 -71.219375 
L 275.368532 -71.219375 
L 276.897997 -71.219375 
L 278.427463 -71.219375 
L 279.956928 -71.219375 
L 281.486394 -71.219375 
L 283.015859 -71.219375 
L 284.545325 -71.219375 
L 286.07479 -71.219375 
L 287.604256 -71.219375 
L 289.133721 -71.219375 
L 290.663187 -71.219375 
L 292.192652 -71.219375 
L 293.722118 -71.219375 
L 295.251583 -71.219375 
L 296.781049 -71.219375 
L 298.310514 -71.219375 
L 299.83998 -71.219375 
L 301.369445 -71.219375 
L 302.898911 -71.219375 
L 304.428376 -71.219375 
L 305.957842 -71.219375 
L 307.487307 -71.219375 
L 309.016773 -71.219375 
L 310.546238 -71.219375 
L 312.075704 -71.219375 
L 313.605169 -71.219375 
L 315.134635 -71.219375 
L 316.664101 -71.219375 
L 318.193566 -71.219375 
L 319.723032 -71.219375 
L 321.252497 -71.219375 
L 322.781963 -71.219375 
L 324.311428 -71.219375 
L 325.840894 -71.219375 
L 327.370359 -71.219375 
L 328.899825 -71.219375 
L 330.42929 -71.219375 
L 330.42929 -71.220003 
L 330.42929 -71.220003 
L 328.899825 -71.221168 
L 327.370359 -71.223829 
L 325.840894 -71.229004 
L 324.311428 -71.23749 
L 322.781963 -71.249033 
L 321.252497 -71.261634 
L 319.723032 -71.271787 
L 318.193566 -71.275991 
L 316.664101 -71.272758 
L 315.134635 -71.263683 
L 313.605169 -71.252743 
L 312.075704 -71.24442 
L 310.546238 -71.241909 
L 309.016773 -71.246152 
L 307.487307 -71.255638 
L 305.957842 -71.266867 
L 304.428376 -71.275693 
L 302.898911 -71.279444 
L 301.369445 -71.278739 
L 299.83998 -71.27753 
L 298.310514 -71.280856 
L 296.781049 -71.291552 
L 295.251583 -71.308116 
L 293.722118 -71.325369 
L 292.192652 -71.337705 
L 290.663187 -71.342808 
L 289.133721 -71.342973 
L 287.604256 -71.34277 
L 286.07479 -71.344749 
L 284.545325 -71.346829 
L 283.015859 -71.343748 
L 281.486394 -71.33138 
L 279.956928 -71.310213 
L 278.427463 -71.285314 
L 276.897997 -71.263405 
L 275.368532 -71.249786 
L 273.839066 -71.247042 
L 272.309601 -71.255222 
L 270.780135 -71.272187 
L 269.25067 -71.29359 
L 267.721204 -71.313254 
L 266.191739 -71.324799 
L 264.662273 -71.324182 
L 263.132808 -71.311593 
L 261.603342 -71.291331 
L 260.073877 -71.269727 
L 258.544411 -71.252669 
L 257.014946 -71.244273 
L 255.48548 -71.247028 
L 253.956015 -71.262328 
L 252.426549 -71.29019 
L 250.897084 -71.328026 
L 249.367618 -71.369773 
L 247.838153 -71.40693 
L 246.308687 -71.431698 
L 244.779222 -71.440496 
L 243.249756 -71.435411 
L 241.720291 -71.422609 
L 240.190825 -71.40894 
L 238.66136 -71.399036 
L 237.131894 -71.394343 
L 235.602429 -71.393873 
L 234.072963 -71.3957 
L 232.543497 -71.398508 
L 231.014032 -71.402952 
L 229.484566 -71.412344 
L 227.955101 -71.431912 
L 226.425635 -71.466538 
L 224.89617 -71.518115 
L 223.366704 -71.584028 
L 221.837239 -71.657247 
L 220.307773 -71.72761 
L 218.778308 -71.784074 
L 217.248842 -71.817983 
L 215.719377 -71.826522 
L 214.189911 -71.814496 
L 212.660446 -71.793014 
L 211.13098 -71.775352 
L 209.601515 -71.771893 
L 208.072049 -71.78682 
L 206.542584 -71.818796 
L 205.013118 -71.865247 
L 203.483653 -71.926367 
L 201.954187 -72.004456 
L 200.424722 -72.098577 
L 198.895256 -72.1996 
L 197.365791 -72.291043 
L 195.836325 -72.356083 
L 194.30686 -72.386102 
L 192.777394 -72.38563 
L 191.247929 -72.371738 
L 189.718463 -72.368772 
L 188.188998 -72.400411 
L 186.659532 -72.481734 
L 185.130067 -72.614653 
L 183.600601 -72.788726 
L 182.071136 -72.986077 
L 180.54167 -73.186831 
L 179.012205 -73.372765 
L 177.482739 -73.529795 
L 175.953274 -73.650785 
L 174.423808 -73.737824 
L 172.894343 -73.801053 
L 171.364877 -73.852908 
L 169.835412 -73.901264 
L 168.305946 -73.947368 
L 166.776481 -73.990813 
L 165.247015 -74.036873 
L 163.71755 -74.098415 
L 162.188084 -74.189308 
L 160.658619 -74.31447 
L 159.129153 -74.464823 
L 157.599688 -74.620735 
L 156.070222 -74.761029 
L 154.540757 -74.872617 
L 153.011291 -74.957111 
L 151.481825 -75.031157 
L 149.95236 -75.118434 
L 148.422894 -75.236708 
L 146.893429 -75.389649 
L 145.363963 -75.57091 
L 143.834498 -75.776209 
L 142.305032 -76.009932 
L 140.775567 -76.278114 
L 139.246101 -76.575068 
L 137.716636 -76.878964 
L 136.18717 -77.162402 
L 134.657705 -77.407961 
L 133.128239 -77.614252 
L 131.598774 -77.789884 
L 130.069308 -77.946692 
L 128.539843 -78.103469 
L 127.010377 -78.296504 
L 125.480912 -78.580035 
L 123.951446 -79.004594 
L 122.421981 -79.583096 
L 120.892515 -80.272238 
L 119.36305 -80.989018 
L 117.833584 -81.65264 
L 116.304119 -82.219996 
L 114.774653 -82.691506 
L 113.245188 -83.092336 
L 111.715722 -83.450396 
L 110.186257 -83.784326 
L 108.656791 -84.099731 
L 107.127326 -84.389422 
L 105.59786 -84.6386 
L 104.068395 -84.834274 
L 102.538929 -84.972117 
L 101.009464 -85.056441 
L 99.479998 -85.098103 
L 97.950533 -85.115956 
L 96.421067 -85.137575 
L 94.891602 -85.190244 
L 93.362136 -85.282646 
L 91.832671 -85.391265 
L 90.303205 -85.467054 
L 88.77374 -85.463227 
L 87.244274 -85.365455 
L 85.714809 -85.20012 
L 84.185343 -85.013989 
L 82.655878 -84.844747 
L 81.126412 -84.707768 
L 79.596947 -84.603346 
L 78.067481 -84.526529 
L 76.538016 -84.465036 
L 75.00855 -84.39145 
L 73.479085 -84.265283 
L 71.949619 -84.048385 
L 70.420153 -83.721323 
L 68.890688 -83.287644 
L 67.361222 -82.765266 
L 65.831757 -82.174204 
L 64.302291 -81.528747 
L 62.772826 -80.835477 
L 61.24336 -80.095259 
L 59.713895 -79.308615 
L 58.184429 -78.484079 
L 56.654964 -77.645349 
L 55.125498 -76.830207 
L 53.596033 -76.078415 
L 52.066567 -75.415323 
L 50.537102 -74.842997 
L 49.007636 -74.344598 
L 47.478171 -73.896592 
L 45.948705 -73.479228 
L 44.41924 -73.081238 
L 42.889774 -72.70092 
L 41.360309 -72.345655 
L 39.830843 -72.028987 
L 38.301378 -71.764817 
L 36.771912 -71.56123 
L 35.242447 -71.417414 
L 33.712981 -71.324763 
L 32.183516 -71.27057 
L 30.65405 -71.241929 
L 29.124585 -71.228329 
L 27.595119 -71.222559 
L 26.065654 -71.220384 
z
" id="m44e75b85f5" style="stroke:#90c1c6;stroke-width:1.5;"/>
    </defs>
    <g>
     <use style="fill:#90c1c6;stroke:#90c1c6;stroke-width:1.5;" x="0" xlink:href="#m44e75b85f5" y="311.267375"/>
    </g>
   </g>
   <g id="line2d_13">
    <path d="M 26.065654 240.046991 
L 33.712981 239.942612 
L 36.771912 239.706145 
L 39.830843 239.238388 
L 44.41924 238.186137 
L 49.007636 236.922777 
L 52.066567 235.852052 
L 55.125498 234.437168 
L 62.772826 230.431898 
L 65.831757 229.093171 
L 68.890688 227.979731 
L 71.949619 227.21899 
L 75.00855 226.875925 
L 82.655878 226.422628 
L 88.77374 225.804148 
L 91.832671 225.87611 
L 96.421067 226.1298 
L 102.538929 226.295258 
L 105.59786 226.628775 
L 110.186257 227.483049 
L 114.774653 228.575869 
L 117.833584 229.614735 
L 123.951446 232.262781 
L 125.480912 232.68734 
L 128.539843 233.163906 
L 134.657705 233.859414 
L 139.246101 234.692307 
L 143.834498 235.491166 
L 148.422894 236.030667 
L 154.540757 236.394758 
L 159.129153 236.802552 
L 163.71755 237.16896 
L 179.012205 237.89461 
L 186.659532 238.785641 
L 189.718463 238.898603 
L 197.365791 238.976332 
L 206.542584 239.448579 
L 212.660446 239.474361 
L 218.778308 239.483301 
L 231.014032 239.864423 
L 289.133721 239.924402 
L 325.840894 240.038371 
L 330.42929 240.047372 
L 330.42929 240.047372 
" style="fill:none;stroke:#ffffff;stroke-linecap:round;stroke-width:2;"/>
   </g>
   <g id="line2d_14">
    <path d="M 10.847472 240.048 
L 345.647472 240.048 
" style="fill:none;stroke:#90c1c6;stroke-linecap:round;stroke-width:2;"/>
   </g>
   <g id="text_12">
    <!-- 0.4 -->
    <g style="fill:#90c1c6;" transform="translate(261.947472 238.2033)scale(0.24 -0.24)">
     <defs>
      <path d="M 2356 3675 
L 1038 1722 
L 2356 1722 
L 2356 3675 
z
M 2156 4666 
L 3494 4666 
L 3494 1722 
L 4159 1722 
L 4159 850 
L 3494 850 
L 3494 0 
L 2356 0 
L 2356 850 
L 288 850 
L 288 1881 
L 2156 4666 
z
" id="DejaVuSans-Bold-34" transform="scale(0.015625)"/>
     </defs>
     <use xlink:href="#DejaVuSans-Bold-30"/>
     <use x="69.580078" xlink:href="#DejaVuSans-Bold-2e"/>
     <use x="107.568359" xlink:href="#DejaVuSans-Bold-34"/>
    </g>
   </g>
  </g>
 </g>
</svg>
