<?xml version="1.0" encoding="utf-8" standalone="no"?>
<!DOCTYPE svg PUBLIC "-//W3C//DTD SVG 1.1//EN"
  "http://www.w3.org/Graphics/SVG/1.1/DTD/svg11.dtd">
<svg height="675.079375pt" version="1.1" viewBox="0 0 688.771875 675.079375" width="688.771875pt" xmlns="http://www.w3.org/2000/svg" xmlns:xlink="http://www.w3.org/1999/xlink">
 <metadata>
  <rdf:RDF xmlns:cc="http://creativecommons.org/ns#" xmlns:dc="http://purl.org/dc/elements/1.1/" xmlns:rdf="http://www.w3.org/1999/02/22-rdf-syntax-ns#">
   <cc:Work>
    <dc:type rdf:resource="http://purl.org/dc/dcmitype/StillImage"/>
    <dc:date>2021-07-16T22:22:17.310628</dc:date>
    <dc:format>image/svg+xml</dc:format>
    <dc:creator>
     <cc:Agent>
      <dc:title>Matplotlib v3.4.2, https://matplotlib.org/</dc:title>
     </cc:Agent>
    </dc:creator>
   </cc:Work>
  </rdf:RDF>
 </metadata>
 <defs>
  <style type="text/css">*{stroke-linecap:butt;stroke-linejoin:round;}</style>
 </defs>
 <g id="figure_1">
  <g id="patch_1">
   <path d="M 0 675.079375 
L 688.771875 675.079375 
L 688.771875 0 
L 0 0 
z
" style="fill:#ffffff;"/>
  </g>
  <g id="axes_1">
   <g id="patch_2">
    <path d="M 98.911875 603.86 
L 581.687304 603.86 
L 581.687304 109.484571 
L 98.911875 109.484571 
z
" style="fill:none;"/>
   </g>
   <g id="matplotlib.axis_1">
    <g id="xtick_1">
     <g id="text_1">
      <!-- 0 -->
      <g style="fill:#262626;" transform="translate(113.63791 636.076563)scale(0.22 -0.22)">
       <defs>
        <path d="M 2034 4250 
Q 1547 4250 1301 3770 
Q 1056 3291 1056 2328 
Q 1056 1369 1301 889 
Q 1547 409 2034 409 
Q 2525 409 2770 889 
Q 3016 1369 3016 2328 
Q 3016 3291 2770 3770 
Q 2525 4250 2034 4250 
z
M 2034 4750 
Q 2819 4750 3233 4129 
Q 3647 3509 3647 2328 
Q 3647 1150 3233 529 
Q 2819 -91 2034 -91 
Q 1250 -91 836 529 
Q 422 1150 422 2328 
Q 422 3509 836 4129 
Q 1250 4750 2034 4750 
z
" id="DejaVuSans-30" transform="scale(0.015625)"/>
       </defs>
       <use xlink:href="#DejaVuSans-30"/>
      </g>
     </g>
    </g>
    <g id="xtick_2">
     <g id="text_2">
      <!-- 20000 -->
      <g style="fill:#262626;" transform="translate(173.464171 636.076563)scale(0.22 -0.22)">
       <defs>
        <path d="M 1228 531 
L 3431 531 
L 3431 0 
L 469 0 
L 469 531 
Q 828 903 1448 1529 
Q 2069 2156 2228 2338 
Q 2531 2678 2651 2914 
Q 2772 3150 2772 3378 
Q 2772 3750 2511 3984 
Q 2250 4219 1831 4219 
Q 1534 4219 1204 4116 
Q 875 4013 500 3803 
L 500 4441 
Q 881 4594 1212 4672 
Q 1544 4750 1819 4750 
Q 2544 4750 2975 4387 
Q 3406 4025 3406 3419 
Q 3406 3131 3298 2873 
Q 3191 2616 2906 2266 
Q 2828 2175 2409 1742 
Q 1991 1309 1228 531 
z
" id="DejaVuSans-32" transform="scale(0.015625)"/>
       </defs>
       <use xlink:href="#DejaVuSans-32"/>
       <use x="63.623047" xlink:href="#DejaVuSans-30"/>
       <use x="127.246094" xlink:href="#DejaVuSans-30"/>
       <use x="190.869141" xlink:href="#DejaVuSans-30"/>
       <use x="254.492188" xlink:href="#DejaVuSans-30"/>
      </g>
     </g>
    </g>
    <g id="xtick_3">
     <g id="text_3">
      <!-- 40000 -->
      <g style="fill:#262626;" transform="translate(261.285432 636.076563)scale(0.22 -0.22)">
       <defs>
        <path d="M 2419 4116 
L 825 1625 
L 2419 1625 
L 2419 4116 
z
M 2253 4666 
L 3047 4666 
L 3047 1625 
L 3713 1625 
L 3713 1100 
L 3047 1100 
L 3047 0 
L 2419 0 
L 2419 1100 
L 313 1100 
L 313 1709 
L 2253 4666 
z
" id="DejaVuSans-34" transform="scale(0.015625)"/>
       </defs>
       <use xlink:href="#DejaVuSans-34"/>
       <use x="63.623047" xlink:href="#DejaVuSans-30"/>
       <use x="127.246094" xlink:href="#DejaVuSans-30"/>
       <use x="190.869141" xlink:href="#DejaVuSans-30"/>
       <use x="254.492188" xlink:href="#DejaVuSans-30"/>
      </g>
     </g>
    </g>
    <g id="xtick_4">
     <g id="text_4">
      <!-- 60000 -->
      <g style="fill:#262626;" transform="translate(349.106693 636.076563)scale(0.22 -0.22)">
       <defs>
        <path d="M 2113 2584 
Q 1688 2584 1439 2293 
Q 1191 2003 1191 1497 
Q 1191 994 1439 701 
Q 1688 409 2113 409 
Q 2538 409 2786 701 
Q 3034 994 3034 1497 
Q 3034 2003 2786 2293 
Q 2538 2584 2113 2584 
z
M 3366 4563 
L 3366 3988 
Q 3128 4100 2886 4159 
Q 2644 4219 2406 4219 
Q 1781 4219 1451 3797 
Q 1122 3375 1075 2522 
Q 1259 2794 1537 2939 
Q 1816 3084 2150 3084 
Q 2853 3084 3261 2657 
Q 3669 2231 3669 1497 
Q 3669 778 3244 343 
Q 2819 -91 2113 -91 
Q 1303 -91 875 529 
Q 447 1150 447 2328 
Q 447 3434 972 4092 
Q 1497 4750 2381 4750 
Q 2619 4750 2861 4703 
Q 3103 4656 3366 4563 
z
" id="DejaVuSans-36" transform="scale(0.015625)"/>
       </defs>
       <use xlink:href="#DejaVuSans-36"/>
       <use x="63.623047" xlink:href="#DejaVuSans-30"/>
       <use x="127.246094" xlink:href="#DejaVuSans-30"/>
       <use x="190.869141" xlink:href="#DejaVuSans-30"/>
       <use x="254.492188" xlink:href="#DejaVuSans-30"/>
      </g>
     </g>
    </g>
    <g id="xtick_5">
     <g id="text_5">
      <!-- 80000 -->
      <g style="fill:#262626;" transform="translate(436.927955 636.076563)scale(0.22 -0.22)">
       <defs>
        <path d="M 2034 2216 
Q 1584 2216 1326 1975 
Q 1069 1734 1069 1313 
Q 1069 891 1326 650 
Q 1584 409 2034 409 
Q 2484 409 2743 651 
Q 3003 894 3003 1313 
Q 3003 1734 2745 1975 
Q 2488 2216 2034 2216 
z
M 1403 2484 
Q 997 2584 770 2862 
Q 544 3141 544 3541 
Q 544 4100 942 4425 
Q 1341 4750 2034 4750 
Q 2731 4750 3128 4425 
Q 3525 4100 3525 3541 
Q 3525 3141 3298 2862 
Q 3072 2584 2669 2484 
Q 3125 2378 3379 2068 
Q 3634 1759 3634 1313 
Q 3634 634 3220 271 
Q 2806 -91 2034 -91 
Q 1263 -91 848 271 
Q 434 634 434 1313 
Q 434 1759 690 2068 
Q 947 2378 1403 2484 
z
M 1172 3481 
Q 1172 3119 1398 2916 
Q 1625 2713 2034 2713 
Q 2441 2713 2670 2916 
Q 2900 3119 2900 3481 
Q 2900 3844 2670 4047 
Q 2441 4250 2034 4250 
Q 1625 4250 1398 4047 
Q 1172 3844 1172 3481 
z
" id="DejaVuSans-38" transform="scale(0.015625)"/>
       </defs>
       <use xlink:href="#DejaVuSans-38"/>
       <use x="63.623047" xlink:href="#DejaVuSans-30"/>
       <use x="127.246094" xlink:href="#DejaVuSans-30"/>
       <use x="190.869141" xlink:href="#DejaVuSans-30"/>
       <use x="254.492188" xlink:href="#DejaVuSans-30"/>
      </g>
     </g>
    </g>
    <g id="xtick_6">
     <g id="text_6">
      <!-- 100000 -->
      <g style="fill:#262626;" transform="translate(517.750466 636.076563)scale(0.22 -0.22)">
       <defs>
        <path d="M 794 531 
L 1825 531 
L 1825 4091 
L 703 3866 
L 703 4441 
L 1819 4666 
L 2450 4666 
L 2450 531 
L 3481 531 
L 3481 0 
L 794 0 
L 794 531 
z
" id="DejaVuSans-31" transform="scale(0.015625)"/>
       </defs>
       <use xlink:href="#DejaVuSans-31"/>
       <use x="63.623047" xlink:href="#DejaVuSans-30"/>
       <use x="127.246094" xlink:href="#DejaVuSans-30"/>
       <use x="190.869141" xlink:href="#DejaVuSans-30"/>
       <use x="254.492188" xlink:href="#DejaVuSans-30"/>
       <use x="318.115234" xlink:href="#DejaVuSans-30"/>
      </g>
     </g>
    </g>
    <g id="text_7">
     <!-- MDTU -->
     <g style="fill:#262626;" transform="translate(304.593964 662.888125)scale(0.24 -0.24)">
      <defs>
       <path d="M 628 4666 
L 1569 4666 
L 2759 1491 
L 3956 4666 
L 4897 4666 
L 4897 0 
L 4281 0 
L 4281 4097 
L 3078 897 
L 2444 897 
L 1241 4097 
L 1241 0 
L 628 0 
L 628 4666 
z
" id="DejaVuSans-4d" transform="scale(0.015625)"/>
       <path d="M 1259 4147 
L 1259 519 
L 2022 519 
Q 2988 519 3436 956 
Q 3884 1394 3884 2338 
Q 3884 3275 3436 3711 
Q 2988 4147 2022 4147 
L 1259 4147 
z
M 628 4666 
L 1925 4666 
Q 3281 4666 3915 4102 
Q 4550 3538 4550 2338 
Q 4550 1131 3912 565 
Q 3275 0 1925 0 
L 628 0 
L 628 4666 
z
" id="DejaVuSans-44" transform="scale(0.015625)"/>
       <path d="M -19 4666 
L 3928 4666 
L 3928 4134 
L 2272 4134 
L 2272 0 
L 1638 0 
L 1638 4134 
L -19 4134 
L -19 4666 
z
" id="DejaVuSans-54" transform="scale(0.015625)"/>
       <path d="M 556 4666 
L 1191 4666 
L 1191 1831 
Q 1191 1081 1462 751 
Q 1734 422 2344 422 
Q 2950 422 3222 751 
Q 3494 1081 3494 1831 
L 3494 4666 
L 4128 4666 
L 4128 1753 
Q 4128 841 3676 375 
Q 3225 -91 2344 -91 
Q 1459 -91 1007 375 
Q 556 841 556 1753 
L 556 4666 
z
" id="DejaVuSans-55" transform="scale(0.015625)"/>
      </defs>
      <use xlink:href="#DejaVuSans-4d"/>
      <use x="86.279297" xlink:href="#DejaVuSans-44"/>
      <use x="163.28125" xlink:href="#DejaVuSans-54"/>
      <use x="224.365234" xlink:href="#DejaVuSans-55"/>
     </g>
    </g>
   </g>
   <g id="matplotlib.axis_2">
    <g id="ytick_1">
     <g id="text_8">
      <!-- 0.25 -->
      <g style="fill:#262626;" transform="translate(34.4275 585.393291)scale(0.22 -0.22)">
       <defs>
        <path d="M 684 794 
L 1344 794 
L 1344 0 
L 684 0 
L 684 794 
z
" id="DejaVuSans-2e" transform="scale(0.015625)"/>
        <path d="M 691 4666 
L 3169 4666 
L 3169 4134 
L 1269 4134 
L 1269 2991 
Q 1406 3038 1543 3061 
Q 1681 3084 1819 3084 
Q 2600 3084 3056 2656 
Q 3513 2228 3513 1497 
Q 3513 744 3044 326 
Q 2575 -91 1722 -91 
Q 1428 -91 1123 -41 
Q 819 9 494 109 
L 494 744 
Q 775 591 1075 516 
Q 1375 441 1709 441 
Q 2250 441 2565 725 
Q 2881 1009 2881 1497 
Q 2881 1984 2565 2268 
Q 2250 2553 1709 2553 
Q 1456 2553 1204 2497 
Q 953 2441 691 2322 
L 691 4666 
z
" id="DejaVuSans-35" transform="scale(0.015625)"/>
       </defs>
       <use xlink:href="#DejaVuSans-30"/>
       <use x="63.623047" xlink:href="#DejaVuSans-2e"/>
       <use x="95.410156" xlink:href="#DejaVuSans-32"/>
       <use x="159.033203" xlink:href="#DejaVuSans-35"/>
      </g>
     </g>
    </g>
    <g id="ytick_2">
     <g id="text_9">
      <!-- 0.50 -->
      <g style="fill:#262626;" transform="translate(34.4275 527.082186)scale(0.22 -0.22)">
       <use xlink:href="#DejaVuSans-30"/>
       <use x="63.623047" xlink:href="#DejaVuSans-2e"/>
       <use x="95.410156" xlink:href="#DejaVuSans-35"/>
       <use x="159.033203" xlink:href="#DejaVuSans-30"/>
      </g>
     </g>
    </g>
    <g id="ytick_3">
     <g id="text_10">
      <!-- 0.75 -->
      <g style="fill:#262626;" transform="translate(34.4275 468.77108)scale(0.22 -0.22)">
       <defs>
        <path d="M 525 4666 
L 3525 4666 
L 3525 4397 
L 1831 0 
L 1172 0 
L 2766 4134 
L 525 4134 
L 525 4666 
z
" id="DejaVuSans-37" transform="scale(0.015625)"/>
       </defs>
       <use xlink:href="#DejaVuSans-30"/>
       <use x="63.623047" xlink:href="#DejaVuSans-2e"/>
       <use x="95.410156" xlink:href="#DejaVuSans-37"/>
       <use x="159.033203" xlink:href="#DejaVuSans-35"/>
      </g>
     </g>
    </g>
    <g id="ytick_4">
     <g id="text_11">
      <!-- 1.00 -->
      <g style="fill:#262626;" transform="translate(34.4275 410.459974)scale(0.22 -0.22)">
       <use xlink:href="#DejaVuSans-31"/>
       <use x="63.623047" xlink:href="#DejaVuSans-2e"/>
       <use x="95.410156" xlink:href="#DejaVuSans-30"/>
       <use x="159.033203" xlink:href="#DejaVuSans-30"/>
      </g>
     </g>
    </g>
    <g id="ytick_5">
     <g id="text_12">
      <!-- 1.25 -->
      <g style="fill:#262626;" transform="translate(34.4275 352.148868)scale(0.22 -0.22)">
       <use xlink:href="#DejaVuSans-31"/>
       <use x="63.623047" xlink:href="#DejaVuSans-2e"/>
       <use x="95.410156" xlink:href="#DejaVuSans-32"/>
       <use x="159.033203" xlink:href="#DejaVuSans-35"/>
      </g>
     </g>
    </g>
    <g id="ytick_6">
     <g id="text_13">
      <!-- 1.50 -->
      <g style="fill:#262626;" transform="translate(34.4275 293.837762)scale(0.22 -0.22)">
       <use xlink:href="#DejaVuSans-31"/>
       <use x="63.623047" xlink:href="#DejaVuSans-2e"/>
       <use x="95.410156" xlink:href="#DejaVuSans-35"/>
       <use x="159.033203" xlink:href="#DejaVuSans-30"/>
      </g>
     </g>
    </g>
    <g id="ytick_7">
     <g id="text_14">
      <!-- 1.75 -->
      <g style="fill:#262626;" transform="translate(34.4275 235.526656)scale(0.22 -0.22)">
       <use xlink:href="#DejaVuSans-31"/>
       <use x="63.623047" xlink:href="#DejaVuSans-2e"/>
       <use x="95.410156" xlink:href="#DejaVuSans-37"/>
       <use x="159.033203" xlink:href="#DejaVuSans-35"/>
      </g>
     </g>
    </g>
    <g id="ytick_8">
     <g id="text_15">
      <!-- 2.00 -->
      <g style="fill:#262626;" transform="translate(34.4275 177.21555)scale(0.22 -0.22)">
       <use xlink:href="#DejaVuSans-32"/>
       <use x="63.623047" xlink:href="#DejaVuSans-2e"/>
       <use x="95.410156" xlink:href="#DejaVuSans-30"/>
       <use x="159.033203" xlink:href="#DejaVuSans-30"/>
      </g>
     </g>
    </g>
    <g id="ytick_9">
     <g id="text_16">
      <!-- 2.25 -->
      <g style="fill:#262626;" transform="translate(34.4275 118.904444)scale(0.22 -0.22)">
       <use xlink:href="#DejaVuSans-32"/>
       <use x="63.623047" xlink:href="#DejaVuSans-2e"/>
       <use x="95.410156" xlink:href="#DejaVuSans-32"/>
       <use x="159.033203" xlink:href="#DejaVuSans-35"/>
      </g>
     </g>
    </g>
    <g id="text_17">
     <!-- $E$ -->
     <g style="fill:#262626;" transform="translate(25.43625 364.352286)rotate(-90)scale(0.24 -0.24)">
      <defs>
       <path d="M 1081 4666 
L 4031 4666 
L 3928 4134 
L 1606 4134 
L 1338 2753 
L 3566 2753 
L 3463 2222 
L 1234 2222 
L 909 531 
L 3284 531 
L 3181 0 
L 172 0 
L 1081 4666 
z
" id="DejaVuSans-Oblique-45" transform="scale(0.015625)"/>
      </defs>
      <use transform="translate(0 0.09375)" xlink:href="#DejaVuSans-Oblique-45"/>
     </g>
    </g>
   </g>
   <g id="line2d_1">
    <path clip-path="url(#p186abe6814)" d="M 120.856213 513.773581 
L 121.075766 472.988303 
L 121.295319 275.271956 
L 121.514872 457.472832 
L 121.953978 558.796529 
L 122.173532 410.099254 
L 122.393085 515.149556 
L 122.612638 533.742904 
L 122.832191 389.491172 
L 123.271297 403.201823 
L 123.490851 333.284277 
L 123.710404 397.532669 
L 123.929957 522.645441 
L 124.14951 539.877109 
L 124.369063 452.462822 
L 124.588616 530.362398 
L 125.027723 505.982033 
L 125.247276 518.456805 
L 125.466829 450.126388 
L 125.686382 450.797654 
L 125.905935 417.207855 
L 126.345041 511.488809 
L 126.784148 372.914586 
L 127.003701 519.475432 
L 127.223254 489.601382 
L 127.442807 500.160347 
L 127.66236 363.834514 
L 127.881914 478.916136 
L 128.101467 366.901082 
L 128.540573 545.602071 
L 128.760126 434.980814 
L 129.199232 525.393319 
L 129.418786 527.281913 
L 129.638339 530.628546 
L 129.857892 424.928275 
L 130.077445 541.986415 
L 130.296998 519.077778 
L 130.516551 402.92208 
L 130.736105 446.06384 
L 130.955658 542.963822 
L 131.175211 472.918141 
L 131.394764 502.760682 
L 131.614317 446.05638 
L 131.83387 482.808929 
L 132.272977 494.854928 
L 132.49253 433.742838 
L 132.712083 404.797335 
L 132.931636 423.756803 
L 133.151189 513.457275 
L 133.590296 340.266752 
L 134.029402 420.022859 
L 134.248955 432.553288 
L 134.468508 461.331506 
L 134.688061 467.455623 
L 134.907614 484.265344 
L 135.127168 485.256341 
L 135.346721 390.72729 
L 135.566274 395.234313 
L 135.785827 494.4276 
L 136.00538 389.654001 
L 136.224933 487.658085 
L 136.444487 409.439993 
L 136.66404 466.79241 
L 136.883593 475.724 
L 137.103146 355.998167 
L 137.322699 346.761411 
L 137.761805 571.420807 
L 137.981359 483.965296 
L 138.200912 475.33875 
L 138.420465 501.05474 
L 138.859571 306.843927 
L 139.079124 516.556119 
L 139.298678 533.910782 
L 139.518231 463.772754 
L 139.737784 469.703654 
L 139.957337 481.23562 
L 140.17689 398.577738 
L 140.396443 492.928265 
L 140.615996 455.517902 
L 140.83555 363.646268 
L 141.055103 535.528278 
L 141.274656 454.652595 
L 141.494209 466.26668 
L 141.713762 464.564951 
L 141.933315 402.271077 
L 142.152869 393.11917 
L 142.372422 478.009745 
L 142.591975 468.13894 
L 143.031081 518.944084 
L 143.250634 498.509096 
L 143.470187 443.775823 
L 143.689741 425.230409 
L 144.128847 543.526919 
L 144.3484 296.990367 
L 144.567953 511.485256 
L 145.00706 415.295778 
L 145.226613 465.678855 
L 145.446166 407.033636 
L 145.665719 458.704097 
L 145.885272 419.242359 
L 146.104825 505.795763 
L 146.324378 439.880263 
L 146.543932 430.90396 
L 146.763485 487.018508 
L 146.983038 513.434357 
L 147.202591 371.642188 
L 147.422144 430.476696 
L 147.641697 440.868634 
L 147.861251 525.882919 
L 148.080804 361.996792 
L 148.300357 540.670968 
L 148.51991 269.829604 
L 148.739463 368.784463 
L 148.959016 542.723091 
L 149.178569 324.889447 
L 149.398123 500.742379 
L 149.617676 473.431485 
L 149.837229 473.144751 
L 150.056782 436.521211 
L 150.276335 544.600998 
L 150.495888 253.256268 
L 150.715441 391.040362 
L 150.934995 376.41338 
L 151.154548 389.751975 
L 151.374101 433.028471 
L 151.593654 567.062984 
L 151.813207 484.152546 
L 152.03276 555.896841 
L 152.252314 454.091327 
L 152.471867 531.680888 
L 152.69142 378.500174 
L 153.130526 535.413628 
L 153.350079 550.926467 
L 153.569632 276.318147 
L 153.789186 534.053758 
L 154.008739 519.284999 
L 154.228292 374.775584 
L 154.447845 505.068369 
L 154.667398 536.90079 
L 154.886951 437.082525 
L 155.106505 473.762461 
L 155.326058 468.821742 
L 155.545611 422.832486 
L 155.765164 340.244209 
L 155.984717 466.989179 
L 156.20427 393.597476 
L 156.423823 500.147344 
L 156.86293 424.734386 
L 157.082483 431.601783 
L 157.302036 497.950124 
L 157.521589 277.117406 
L 157.741142 451.7077 
L 157.960696 430.354608 
L 158.180249 485.076526 
L 158.399802 378.474259 
L 158.619355 547.857855 
L 158.838908 404.129 
L 159.058461 543.780765 
L 159.278014 423.26597 
L 159.497568 397.732885 
L 159.717121 472.080644 
L 159.936674 402.081703 
L 160.156227 373.791105 
L 160.595333 513.934883 
L 160.814887 552.989252 
L 161.03444 487.138546 
L 161.253993 524.183641 
L 161.473546 473.718199 
L 161.693099 456.945892 
L 161.912652 323.142582 
L 162.351759 542.796406 
L 162.571312 304.914194 
L 162.790865 448.314343 
L 163.010418 431.005895 
L 163.229971 481.640534 
L 164.108184 529.706 
L 164.327737 365.676473 
L 164.54729 410.477462 
L 164.766843 400.490037 
L 164.986396 423.387848 
L 165.20595 422.944697 
L 165.425503 526.096501 
L 165.645056 431.636596 
L 165.864609 515.614311 
L 166.084162 338.532674 
L 166.303715 499.484867 
L 166.523269 211.751356 
L 166.742822 463.255366 
L 166.962375 297.928335 
L 167.181928 529.619857 
L 167.401481 566.128302 
L 167.621034 488.266271 
L 167.840587 536.341117 
L 168.060141 246.319193 
L 168.279694 323.757607 
L 168.499247 487.789513 
L 168.7188 436.281755 
L 168.938353 281.614053 
L 169.157906 227.420603 
L 169.37746 453.865089 
L 169.597013 459.439958 
L 169.816566 377.120368 
L 170.036119 431.17055 
L 170.255672 528.334871 
L 170.694778 345.686002 
L 170.914332 454.390311 
L 171.133885 456.317447 
L 171.353438 466.310197 
L 171.572991 393.591373 
L 171.792544 419.641103 
L 172.012097 139.438804 
L 172.231651 558.865153 
L 172.451204 502.800156 
L 172.670757 545.021638 
L 172.89031 407.354702 
L 173.109863 495.442378 
L 173.329416 488.309166 
L 173.548969 541.922436 
L 173.768523 496.537176 
L 173.988076 503.510538 
L 174.207629 467.2358 
L 174.427182 341.577555 
L 174.646735 464.456935 
L 174.866288 491.966405 
L 175.085842 399.485973 
L 175.305395 494.612054 
L 175.524948 324.986423 
L 175.744501 454.303871 
L 175.964054 363.074757 
L 176.40316 549.962799 
L 176.622714 535.273563 
L 176.842267 531.769114 
L 177.06182 361.749759 
L 177.281373 537.679784 
L 177.720479 449.9893 
L 177.940032 477.63944 
L 178.159586 382.470489 
L 178.379139 505.547117 
L 178.598692 487.482628 
L 178.818245 554.103722 
L 179.037798 424.850099 
L 179.257351 374.399141 
L 179.476905 488.548811 
L 179.696458 408.262235 
L 179.916011 415.472254 
L 180.135564 561.2518 
L 180.355117 493.56491 
L 180.57467 511.398716 
L 180.794223 423.305909 
L 181.013777 401.971851 
L 181.23333 351.609925 
L 181.452883 433.070691 
L 181.672436 469.176045 
L 181.891989 564.07982 
L 182.111542 463.272079 
L 182.331096 480.836964 
L 182.550649 541.59655 
L 182.770202 547.348037 
L 182.989755 372.865484 
L 183.209308 542.577761 
L 183.428861 437.692487 
L 183.648414 525.305331 
L 183.867968 416.220175 
L 184.087521 487.703878 
L 184.307074 500.737055 
L 184.526627 460.35325 
L 184.74618 521.14964 
L 184.965733 461.336128 
L 185.185287 543.90015 
L 185.40484 520.387679 
L 185.624393 539.889971 
L 185.843946 499.11835 
L 186.063499 558.70134 
L 186.283052 476.084092 
L 186.502605 447.715211 
L 186.722159 525.149188 
L 186.941712 522.823047 
L 187.161265 424.817638 
L 187.380818 415.785873 
L 187.600371 486.323501 
L 187.819924 305.42293 
L 188.039478 407.563229 
L 188.259031 456.138224 
L 188.478584 460.325789 
L 188.698137 507.882047 
L 188.91769 487.794022 
L 189.137243 428.883892 
L 189.57635 506.79879 
L 189.795903 374.329454 
L 190.015456 539.613292 
L 190.235009 540.136935 
L 190.454562 522.477844 
L 190.674115 404.52582 
L 190.893669 537.086445 
L 191.113222 359.367857 
L 191.332775 514.582523 
L 191.552328 516.838482 
L 191.771881 383.592653 
L 191.991434 459.828597 
L 192.210987 429.559117 
L 192.430541 493.72104 
L 192.650094 463.394921 
L 192.869647 533.468656 
L 193.0892 416.933167 
L 193.308753 500.742581 
L 193.528306 444.470835 
L 193.74786 457.179435 
L 193.967413 504.427141 
L 194.186966 458.941027 
L 194.406519 384.759927 
L 194.626072 406.633175 
L 194.845625 546.083503 
L 195.065178 443.748072 
L 195.284732 457.338365 
L 195.504285 496.462283 
L 195.723838 382.176381 
L 195.943391 395.248694 
L 196.162944 397.480116 
L 196.382497 450.990145 
L 196.602051 545.753871 
L 197.041157 441.148423 
L 197.26071 519.654612 
L 197.480263 515.070198 
L 197.699816 379.829387 
L 198.138923 516.242637 
L 198.358476 514.11362 
L 198.578029 309.814631 
L 199.017135 466.73998 
L 199.236688 390.762271 
L 199.456242 260.485517 
L 199.675795 529.599183 
L 199.895348 507.237707 
L 200.114901 469.525542 
L 200.334454 498.865131 
L 200.554007 436.466428 
L 200.77356 405.912934 
L 200.993114 540.971485 
L 201.212667 511.353803 
L 201.651773 374.157542 
L 201.871326 510.311244 
L 202.090879 488.202216 
L 202.310432 453.849138 
L 202.529986 457.628315 
L 202.749539 420.661647 
L 202.969092 536.41537 
L 203.408198 449.423133 
L 203.627751 505.627295 
L 203.847305 489.527846 
L 204.066858 516.068943 
L 204.286411 421.363638 
L 204.505964 432.653712 
L 204.725517 423.351661 
L 204.94507 436.67189 
L 205.164623 516.650198 
L 205.384177 353.330654 
L 205.60373 474.523709 
L 205.823283 485.172512 
L 206.042836 519.555983 
L 206.262389 472.243131 
L 206.481942 478.253744 
L 206.701496 494.608523 
L 206.921049 525.736609 
L 207.360155 377.983436 
L 207.579708 521.596538 
L 207.799261 517.721804 
L 208.018814 502.082853 
L 208.238368 437.136466 
L 208.457921 492.674088 
L 208.677474 453.638059 
L 208.897027 547.966256 
L 209.11658 457.551463 
L 209.336133 431.580095 
L 209.555687 329.204811 
L 209.77524 466.420275 
L 209.994793 483.522041 
L 210.214346 538.924991 
L 210.433899 517.010489 
L 210.653452 447.452536 
L 210.873005 533.926222 
L 211.092559 492.306661 
L 211.312112 363.60472 
L 211.531665 477.392801 
L 211.751218 503.751939 
L 211.970771 516.619146 
L 212.190324 392.718946 
L 212.409878 399.616371 
L 212.629431 410.274135 
L 212.848984 479.390224 
L 213.068537 398.923167 
L 213.28809 370.588588 
L 213.507643 373.76725 
L 213.727196 469.557443 
L 213.94675 474.552085 
L 214.385856 540.147257 
L 214.605409 226.533277 
L 214.824962 441.073167 
L 215.044515 364.149191 
L 215.264069 410.66262 
L 215.483622 502.530651 
L 215.703175 312.971242 
L 215.922728 489.090768 
L 216.142281 462.291977 
L 216.361834 517.850852 
L 216.581387 403.193972 
L 216.800941 543.959437 
L 217.020494 474.461059 
L 217.240047 440.782116 
L 217.4596 369.12027 
L 217.679153 510.035391 
L 217.898706 376.333043 
L 218.11826 481.520028 
L 218.337813 466.383259 
L 218.557366 481.470807 
L 218.776919 535.898426 
L 218.996472 338.603443 
L 219.216025 429.667378 
L 219.435578 442.868512 
L 219.655132 489.462432 
L 219.874685 504.218982 
L 220.094238 438.744803 
L 220.313791 501.027564 
L 220.533344 512.753875 
L 220.752897 488.91163 
L 220.972451 533.376923 
L 221.192004 477.457596 
L 221.411557 514.793266 
L 221.63111 502.074779 
L 221.850663 479.548659 
L 222.070216 405.26766 
L 222.289769 182.536545 
L 222.509323 421.995815 
L 222.728876 511.520579 
L 222.948429 465.938444 
L 223.167982 303.976193 
L 223.387535 503.675616 
L 223.826642 460.330029 
L 224.046195 345.146389 
L 224.485301 503.911829 
L 224.704854 485.478131 
L 224.924407 425.989706 
L 225.14396 473.570064 
L 225.363514 394.529446 
L 225.583067 414.892779 
L 225.80262 508.037286 
L 226.022173 432.036109 
L 226.241726 513.274748 
L 226.461279 503.095928 
L 226.680833 518.704461 
L 226.900386 454.478815 
L 227.119939 524.721999 
L 227.559045 424.178988 
L 227.778598 467.867791 
L 227.998151 484.427158 
L 228.217705 548.306408 
L 228.437258 368.228868 
L 228.656811 545.353063 
L 229.095917 256.515923 
L 229.31547 488.968114 
L 229.535023 502.741094 
L 229.754577 408.428876 
L 229.97413 515.450777 
L 230.193683 226.025538 
L 230.413236 396.81665 
L 230.632789 453.566518 
L 230.852342 465.552642 
L 231.071896 440.494807 
L 231.291449 431.78561 
L 231.511002 493.932886 
L 231.730555 414.321653 
L 231.950108 439.275434 
L 232.389214 528.436875 
L 232.608768 252.624074 
L 232.828321 439.35662 
L 233.047874 496.877328 
L 233.267427 151.726321 
L 233.48698 498.988979 
L 233.706533 532.522607 
L 233.926087 458.694975 
L 234.14564 502.43094 
L 234.365193 446.472228 
L 234.584746 519.078402 
L 234.804299 431.65305 
L 235.023852 457.984343 
L 235.243405 335.659271 
L 235.462959 429.549376 
L 235.682512 378.143365 
L 235.902065 396.110141 
L 236.121618 554.710236 
L 236.341171 434.618508 
L 236.560724 464.887819 
L 236.780278 453.144986 
L 236.999831 291.127577 
L 237.438937 537.909911 
L 237.65849 521.184362 
L 237.878043 472.580603 
L 238.097596 393.486599 
L 238.31715 458.672726 
L 238.536703 460.322261 
L 238.756256 454.929329 
L 238.975809 536.145809 
L 239.195362 514.619421 
L 239.414915 429.421851 
L 239.634469 478.524641 
L 239.854022 405.861822 
L 240.073575 533.31662 
L 240.293128 451.7845 
L 240.512681 528.27031 
L 240.732234 493.280523 
L 240.951787 520.916699 
L 241.171341 422.3974 
L 241.390894 403.135524 
L 241.610447 397.499221 
L 241.83 463.299203 
L 242.049553 489.372468 
L 242.269106 471.268057 
L 242.48866 414.963813 
L 242.708213 287.098044 
L 242.927766 473.266644 
L 243.147319 465.745449 
L 243.586425 519.290492 
L 243.805978 501.688108 
L 244.025532 533.756224 
L 244.245085 336.21449 
L 244.464638 279.142085 
L 244.684191 439.793329 
L 245.123297 346.567865 
L 245.342851 529.247095 
L 245.562404 498.288841 
L 245.781957 494.761455 
L 246.00151 399.334682 
L 246.440616 479.283299 
L 246.660169 454.06476 
L 246.879723 457.610794 
L 247.099276 473.314596 
L 247.318829 389.199327 
L 247.538382 369.961345 
L 247.757935 496.753471 
L 247.977488 429.360339 
L 248.197042 490.211134 
L 248.416595 462.027685 
L 248.636148 514.104299 
L 248.855701 495.827631 
L 249.075254 490.742737 
L 249.294807 333.775342 
L 249.733914 501.443185 
L 249.953467 422.87197 
L 250.17302 496.006931 
L 250.392573 438.246222 
L 250.612126 409.820055 
L 250.831679 246.731939 
L 251.051233 489.779484 
L 251.270786 382.524976 
L 251.490339 470.11566 
L 251.709892 481.871832 
L 251.929445 511.140369 
L 252.368551 385.838829 
L 252.588105 468.387614 
L 252.807658 437.455403 
L 253.246764 544.975513 
L 253.466317 340.695319 
L 253.68587 477.972638 
L 253.905424 504.590287 
L 254.124977 466.395244 
L 254.34453 517.31114 
L 254.564083 530.644349 
L 254.783636 425.128861 
L 255.003189 533.713958 
L 255.222742 265.0634 
L 255.442296 340.652562 
L 255.661849 513.532544 
L 255.881402 512.692033 
L 256.320508 397.668941 
L 256.540061 527.41994 
L 256.759614 428.982765 
L 256.979168 522.638274 
L 257.198721 522.405401 
L 257.637827 380.427801 
L 257.85738 396.337569 
L 258.076933 393.209532 
L 258.296487 333.355526 
L 258.51604 476.828299 
L 258.735593 396.549183 
L 258.955146 515.905216 
L 259.394252 339.815095 
L 259.613805 478.94571 
L 259.833359 421.052276 
L 260.052912 512.653284 
L 260.272465 525.014087 
L 260.492018 446.258753 
L 260.711571 575.628504 
L 260.931124 375.584838 
L 261.150678 364.75068 
L 261.370231 482.466835 
L 261.589784 452.033415 
L 261.809337 233.567893 
L 262.02889 426.777804 
L 262.248443 294.61916 
L 262.68755 441.155619 
L 262.907103 467.77046 
L 263.126656 469.662911 
L 263.346209 365.677495 
L 263.565762 359.061821 
L 264.004869 510.016632 
L 264.224422 445.683489 
L 264.443975 494.54339 
L 264.663528 445.704065 
L 264.883081 494.303465 
L 265.102634 453.42602 
L 265.322187 465.851313 
L 265.761294 554.221141 
L 266.2004 380.499484 
L 266.639506 435.620044 
L 266.85906 445.42944 
L 267.078613 537.995295 
L 267.298166 507.891895 
L 267.517719 527.889983 
L 267.737272 386.903697 
L 267.956825 453.404523 
L 268.176378 460.369185 
L 268.395932 524.08509 
L 268.615485 470.550934 
L 268.835038 354.650036 
L 269.054591 480.019832 
L 269.274144 537.690205 
L 269.493697 434.494688 
L 269.713251 455.329719 
L 269.932804 522.423566 
L 270.152357 436.366444 
L 270.37191 476.140637 
L 270.591463 443.335665 
L 270.811016 457.318952 
L 271.030569 515.939502 
L 271.250123 365.466351 
L 271.689229 529.071962 
L 271.908782 491.488496 
L 272.128335 532.249876 
L 272.347888 480.777157 
L 272.567442 456.380694 
L 273.006548 532.140385 
L 273.88476 421.851073 
L 274.104314 516.963787 
L 274.323867 432.007723 
L 274.54342 423.323689 
L 274.762973 554.141117 
L 274.982526 466.486058 
L 275.202079 508.181286 
L 275.421633 521.091499 
L 275.641186 509.637301 
L 275.860739 513.82649 
L 276.080292 546.860455 
L 276.299845 495.45897 
L 276.519398 518.672046 
L 276.738951 514.072187 
L 276.958505 447.430942 
L 277.178058 441.81233 
L 277.397611 528.975967 
L 277.617164 403.263031 
L 277.836717 508.435686 
L 278.05627 499.150204 
L 278.275824 499.226611 
L 278.495377 480.69639 
L 278.71493 431.971102 
L 278.934483 542.103432 
L 279.154036 447.271978 
L 279.373589 439.549788 
L 279.593142 357.780699 
L 279.812696 512.6149 
L 280.471355 322.541911 
L 280.690908 505.31127 
L 281.349568 456.763009 
L 281.569121 393.416286 
L 281.788674 391.095758 
L 282.008227 527.043292 
L 282.22778 469.576205 
L 282.447333 469.071317 
L 282.666887 441.207806 
L 282.88644 511.310516 
L 283.105993 363.616694 
L 283.325546 493.111271 
L 283.545099 449.152447 
L 283.764652 511.319264 
L 283.984205 376.111828 
L 284.203759 319.174659 
L 284.423312 552.84605 
L 284.862418 306.997602 
L 285.081971 440.849254 
L 285.521078 326.826809 
L 285.740631 481.985486 
L 285.960184 546.107419 
L 286.179737 414.300945 
L 286.39929 465.941835 
L 286.618843 448.832475 
L 286.838396 446.180092 
L 287.05795 505.717036 
L 287.277503 426.389316 
L 287.497056 445.929526 
L 287.716609 505.111875 
L 287.936162 373.664121 
L 288.375269 545.506223 
L 288.594822 326.815618 
L 288.814375 536.812857 
L 289.033928 476.520245 
L 289.253481 485.073086 
L 289.473034 461.762901 
L 289.912141 361.723429 
L 290.131694 482.548269 
L 290.351247 496.56973 
L 290.5708 454.969225 
L 290.790353 307.921649 
L 291.009906 529.91713 
L 291.22946 562.975382 
L 291.449013 489.289032 
L 291.668566 487.247442 
L 291.888119 414.269066 
L 292.107672 538.986431 
L 292.327225 556.768111 
L 292.766332 445.003124 
L 292.985885 458.03892 
L 293.424991 544.712324 
L 293.864097 483.959861 
L 294.083651 511.564836 
L 294.303204 473.167334 
L 294.522757 494.936371 
L 294.74231 363.247028 
L 294.961863 464.910826 
L 295.181416 399.493952 
L 295.400969 571.464993 
L 295.620523 429.461597 
L 296.059629 296.103607 
L 296.279182 464.21105 
L 296.498735 527.700585 
L 296.718288 391.371697 
L 296.937842 507.47681 
L 297.157395 490.384249 
L 297.376948 276.954615 
L 297.596501 479.403939 
L 297.816054 498.535909 
L 298.035607 474.875865 
L 298.25516 486.879431 
L 298.474714 472.407996 
L 298.694267 439.405655 
L 298.91382 460.64895 
L 299.133373 400.463559 
L 299.352926 489.205534 
L 299.572479 511.257601 
L 299.792033 468.772617 
L 300.011586 295.287689 
L 300.231139 474.085012 
L 300.450692 541.110174 
L 300.670245 499.147773 
L 300.889798 494.120068 
L 301.109351 391.194008 
L 301.328905 543.039365 
L 301.768011 347.45176 
L 301.987564 343.067618 
L 302.207117 537.238924 
L 302.42667 446.162744 
L 302.646224 483.266956 
L 302.865777 449.100665 
L 303.08533 343.893069 
L 303.304883 416.178176 
L 303.524436 447.2291 
L 303.743989 454.548412 
L 303.963542 410.698355 
L 304.183096 563.457467 
L 304.402649 454.920846 
L 304.622202 455.224214 
L 304.841755 480.977005 
L 305.280861 356.184209 
L 305.500415 363.643332 
L 305.719968 545.730488 
L 305.939521 463.92501 
L 306.159074 337.015221 
L 306.378627 535.164671 
L 306.817733 377.130172 
L 307.037287 394.598788 
L 307.25684 453.244024 
L 307.476393 447.445115 
L 307.695946 510.337793 
L 307.915499 492.953859 
L 308.354605 420.581387 
L 308.574159 444.227033 
L 309.013265 369.405928 
L 309.232818 455.084907 
L 309.452371 161.047278 
L 309.671924 536.218386 
L 309.891478 523.373275 
L 310.111031 453.341844 
L 310.330584 483.550261 
L 310.550137 286.139984 
L 310.76969 501.765142 
L 310.989243 499.337529 
L 311.208796 552.032459 
L 311.647903 362.097792 
L 311.867456 473.720166 
L 312.087009 516.904863 
L 312.745669 382.881504 
L 312.965222 426.862208 
L 313.184775 507.563763 
L 313.404328 396.7143 
L 313.623881 564.459372 
L 313.843434 528.149801 
L 314.062987 448.114295 
L 314.502094 530.833282 
L 314.721647 397.317293 
L 314.9412 517.492603 
L 315.160753 504.615661 
L 315.59986 450.331683 
L 315.819413 364.230077 
L 316.038966 523.286328 
L 316.258519 380.283658 
L 316.478072 540.323 
L 316.697625 424.080604 
L 316.917178 456.116012 
L 317.136732 388.808039 
L 317.356285 229.871614 
L 317.575838 574.489544 
L 317.795391 455.718774 
L 318.234497 555.65652 
L 318.454051 412.663282 
L 318.893157 500.52579 
L 319.11271 484.721768 
L 319.332263 489.050543 
L 319.551816 509.399966 
L 319.771369 383.169742 
L 320.210476 478.214777 
L 320.430029 402.129012 
L 320.649582 371.507103 
L 321.088688 545.768965 
L 321.308242 420.803065 
L 321.747348 559.070475 
L 321.966901 384.732091 
L 322.186454 486.754541 
L 322.406007 472.707221 
L 322.62556 448.28456 
L 322.845114 407.458239 
L 323.064667 462.100955 
L 323.28422 416.294201 
L 323.503773 500.523941 
L 323.723326 401.421798 
L 323.942879 466.631254 
L 324.162433 480.399894 
L 324.381986 416.467037 
L 324.601539 495.356866 
L 324.821092 410.063915 
L 325.040645 526.963576 
L 325.260198 442.262223 
L 325.479751 491.492075 
L 325.699305 441.198223 
L 325.918858 564.248323 
L 326.138411 383.596306 
L 326.357964 424.453524 
L 326.577517 418.49881 
L 326.79707 441.860763 
L 327.016624 532.61262 
L 327.236177 481.577189 
L 327.45573 516.89711 
L 328.114389 328.911844 
L 328.333942 523.988166 
L 328.553496 397.511733 
L 328.773049 416.776719 
L 328.992602 502.2669 
L 329.212155 384.986507 
L 329.431708 529.127439 
L 329.651261 518.926124 
L 329.870815 469.941243 
L 330.090368 330.056099 
L 330.309921 542.834431 
L 330.529474 496.860935 
L 330.749027 403.072003 
L 330.96858 480.013432 
L 331.188133 427.549747 
L 331.407687 347.687194 
L 331.62724 369.517687 
L 331.846793 483.276364 
L 332.066346 426.294289 
L 332.505452 528.431672 
L 332.725006 339.003178 
L 333.164112 539.386879 
L 333.383665 304.898401 
L 333.603218 436.293876 
L 333.822771 375.586317 
L 334.042324 521.724513 
L 334.261878 526.661566 
L 334.481431 472.852746 
L 334.700984 486.972116 
L 334.920537 482.337568 
L 335.14009 416.162449 
L 335.359643 463.320823 
L 335.579196 482.682455 
L 335.79875 464.562353 
L 336.018303 387.335789 
L 336.237856 490.571386 
L 336.457409 441.715833 
L 336.676962 431.679219 
L 336.896515 466.328578 
L 337.116069 482.033985 
L 337.335622 442.482393 
L 337.555175 444.977321 
L 337.774728 558.267333 
L 337.994281 465.049083 
L 338.213834 432.405968 
L 338.433387 417.775343 
L 338.652941 487.900642 
L 338.872494 261.963587 
L 339.092047 443.212953 
L 339.3116 464.261065 
L 339.531153 421.618539 
L 339.750706 521.052724 
L 339.97026 550.696402 
L 340.189813 433.494209 
L 340.409366 491.704907 
L 340.628919 440.354372 
L 340.848472 524.892066 
L 341.068025 389.74786 
L 341.287578 443.21164 
L 341.507132 431.352312 
L 341.726685 405.851763 
L 341.946238 483.101561 
L 342.165791 477.883017 
L 342.385344 337.740282 
L 342.604897 352.191439 
L 342.824451 500.677647 
L 343.044004 566.105364 
L 343.263557 546.49802 
L 343.48311 351.577536 
L 343.702663 506.220006 
L 343.922216 425.954419 
L 344.141769 408.003856 
L 344.361323 480.738688 
L 344.580876 468.288749 
L 344.800429 472.353993 
L 345.019982 560.443575 
L 345.239535 423.841945 
L 345.459088 414.828891 
L 345.678642 492.057458 
L 345.898195 452.672097 
L 346.117748 485.921961 
L 346.337301 476.804036 
L 346.556854 415.307165 
L 346.776407 488.474525 
L 346.99596 479.726431 
L 347.215514 523.268272 
L 347.65462 512.436549 
L 347.874173 437.207472 
L 348.093726 476.179999 
L 348.313279 436.13509 
L 348.532833 497.571209 
L 348.752386 448.967402 
L 348.971939 510.786995 
L 349.411045 436.043911 
L 349.630598 458.888127 
L 349.850151 395.957498 
L 350.508811 556.278588 
L 350.728364 515.029975 
L 350.947917 501.583912 
L 351.16747 498.534589 
L 351.387024 448.515968 
L 351.606577 468.304142 
L 351.82613 350.541138 
L 352.045683 506.594847 
L 352.265236 415.382597 
L 352.484789 499.41593 
L 352.704342 459.736225 
L 352.923896 567.534368 
L 353.143449 443.221159 
L 353.582555 527.129249 
L 353.802108 547.985173 
L 354.021661 521.692472 
L 354.241215 428.802849 
L 354.460768 514.324779 
L 354.680321 517.047674 
L 354.899874 399.986193 
L 355.119427 452.721985 
L 355.33898 350.354565 
L 355.558533 530.219428 
L 355.778087 415.483038 
L 355.99764 551.203262 
L 356.436746 344.960671 
L 356.656299 545.024785 
L 356.875852 495.346235 
L 357.095406 503.041883 
L 357.534512 471.654157 
L 357.973618 373.42639 
L 358.193171 460.64045 
L 358.412724 419.313231 
L 358.632278 525.494335 
L 358.851831 512.770462 
L 359.071384 445.113745 
L 359.290937 449.725514 
L 359.51049 552.780259 
L 359.949596 422.130287 
L 360.16915 442.017936 
L 360.388703 269.41143 
L 360.608256 459.395847 
L 361.047362 563.823215 
L 361.266915 479.055405 
L 361.486469 438.670801 
L 361.706022 470.367706 
L 361.925575 159.762784 
L 362.145128 406.470683 
L 362.364681 407.902668 
L 362.803787 468.235764 
L 363.023341 359.00847 
L 363.242894 506.44684 
L 363.462447 522.732581 
L 363.682 316.099119 
L 363.901553 434.023745 
L 364.121106 479.402364 
L 364.34066 308.623414 
L 364.560213 529.573892 
L 364.779766 445.834192 
L 364.999319 486.565195 
L 365.218872 435.244401 
L 365.438425 437.060922 
L 365.657978 471.639452 
L 365.877532 475.154329 
L 366.097085 344.289643 
L 366.316638 481.003854 
L 366.536191 470.065722 
L 366.755744 484.191924 
L 366.975297 539.919439 
L 367.194851 497.558667 
L 367.414404 534.957008 
L 367.633957 387.552638 
L 367.85351 531.643901 
L 368.073063 521.174288 
L 368.292616 340.997156 
L 368.512169 430.1646 
L 368.731723 347.741395 
L 369.170829 518.944432 
L 369.390382 477.448212 
L 369.609935 467.013651 
L 369.829488 501.621969 
L 370.049042 455.622172 
L 370.268595 481.528297 
L 370.488148 482.751411 
L 370.707701 504.802016 
L 370.927254 540.100805 
L 371.146807 432.356205 
L 371.36636 487.244918 
L 371.585914 511.582196 
L 371.805467 491.812727 
L 372.244573 386.846622 
L 372.683679 575.576186 
L 373.122786 336.117901 
L 373.342339 457.739278 
L 373.561892 388.217617 
L 373.781445 530.726317 
L 374.000998 533.507783 
L 374.220551 500.309315 
L 374.440105 199.480703 
L 374.659658 131.956182 
L 374.879211 496.515072 
L 375.318317 503.709275 
L 375.53787 532.702261 
L 375.757424 495.899638 
L 375.976977 483.812948 
L 376.19653 515.256521 
L 376.416083 453.550689 
L 376.635636 333.918013 
L 376.855189 465.854099 
L 377.074742 462.249493 
L 377.513849 528.095758 
L 377.733402 448.825263 
L 377.952955 499.900622 
L 378.172508 458.269607 
L 378.392061 533.418462 
L 378.611615 458.971821 
L 378.831168 504.665167 
L 379.050721 448.548937 
L 379.270274 277.103144 
L 379.489827 471.235991 
L 379.70938 466.964082 
L 379.928933 493.973495 
L 380.148487 428.268281 
L 380.36804 527.01974 
L 380.587593 380.392947 
L 380.807146 483.544316 
L 381.026699 486.991974 
L 381.246252 487.954974 
L 381.465806 186.658515 
L 381.685359 433.279359 
L 381.904912 416.981529 
L 382.124465 435.751926 
L 382.344018 470.546124 
L 382.563571 487.306018 
L 382.783124 521.270566 
L 383.002678 396.388359 
L 383.222231 470.057804 
L 383.441784 432.64365 
L 383.661337 492.763158 
L 384.100443 387.514221 
L 384.319997 523.693983 
L 384.53955 512.337259 
L 384.759103 478.795163 
L 384.978656 375.363372 
L 385.198209 422.478388 
L 385.417762 525.532738 
L 385.637315 512.941843 
L 385.856869 523.886791 
L 386.076422 516.900741 
L 386.295975 420.209851 
L 386.515528 474.217457 
L 386.954634 504.850598 
L 387.174187 493.644282 
L 387.393741 440.81173 
L 387.613294 490.030013 
L 388.0524 514.996561 
L 388.491506 395.979897 
L 388.71106 515.577034 
L 388.930613 518.598681 
L 389.369719 442.739052 
L 389.589272 420.900836 
L 389.808825 455.073981 
L 390.028378 397.399379 
L 390.247932 476.381705 
L 390.467485 455.881019 
L 390.687038 455.428593 
L 390.906591 471.037123 
L 391.126144 362.925317 
L 391.345697 506.1375 
L 391.565251 519.982479 
L 391.784804 470.414395 
L 392.004357 447.43803 
L 392.22391 394.14493 
L 392.443463 405.95166 
L 392.882569 498.423265 
L 393.102123 469.503087 
L 393.321676 347.388973 
L 393.541229 536.781203 
L 393.760782 428.534804 
L 393.980335 386.924867 
L 394.419442 517.511438 
L 394.638995 531.575048 
L 394.858548 500.918988 
L 395.078101 435.586975 
L 395.297654 537.351608 
L 395.517207 450.078573 
L 395.73676 489.956303 
L 395.956314 283.255339 
L 396.175867 524.880943 
L 396.39542 365.77143 
L 396.614973 352.812807 
L 396.834526 442.309292 
L 397.054079 258.981243 
L 397.493186 519.858776 
L 397.712739 528.805549 
L 397.932292 432.90737 
L 398.151845 404.428694 
L 398.371398 509.947587 
L 398.590951 399.250888 
L 398.810505 502.154445 
L 399.030058 412.926044 
L 399.249611 389.048556 
L 399.469164 493.771001 
L 399.688717 334.731019 
L 399.90827 518.783321 
L 400.127824 455.920763 
L 400.347377 534.747004 
L 400.56693 281.652955 
L 400.786483 544.632773 
L 401.006036 433.826323 
L 401.225589 516.806713 
L 401.445142 527.380807 
L 401.664696 322.214278 
L 401.884249 429.115769 
L 402.323355 484.827065 
L 402.542908 461.890705 
L 402.762461 309.222126 
L 402.982015 523.106863 
L 403.201568 408.08694 
L 403.421121 529.440811 
L 403.640674 477.745851 
L 403.860227 465.141381 
L 404.07978 462.490921 
L 404.299333 439.35178 
L 404.518887 377.215913 
L 404.73844 463.539914 
L 404.957993 440.306334 
L 405.177546 561.116795 
L 405.397099 416.083404 
L 405.616652 551.265561 
L 405.836206 393.922176 
L 406.055759 374.4703 
L 406.275312 500.038598 
L 406.494865 522.125275 
L 406.714418 409.837737 
L 406.933971 563.652539 
L 407.373078 343.110084 
L 407.592631 534.854792 
L 407.812184 467.452884 
L 408.031737 481.44888 
L 408.25129 399.574395 
L 408.470843 438.511418 
L 408.690397 370.158017 
L 408.90995 368.077945 
L 409.129503 554.693517 
L 409.349056 444.355018 
L 409.568609 544.803446 
L 409.788162 444.909789 
L 410.007715 421.642118 
L 410.227269 513.420769 
L 410.446822 448.062076 
L 410.666375 445.080425 
L 410.885928 503.389027 
L 411.325034 453.044923 
L 411.544587 428.41318 
L 411.764141 354.023588 
L 411.983694 501.0654 
L 412.203247 532.12875 
L 412.4228 438.303703 
L 412.642353 495.417208 
L 412.861906 392.556377 
L 413.08146 367.099867 
L 413.959672 543.34248 
L 414.179225 487.478354 
L 414.618332 469.737899 
L 415.057438 523.481867 
L 415.276991 433.495408 
L 415.496544 471.002546 
L 415.716097 453.278224 
L 415.935651 378.351335 
L 416.155204 517.490377 
L 416.374757 433.230702 
L 416.59431 406.762395 
L 416.813863 431.230211 
L 417.033416 532.98769 
L 417.252969 424.773493 
L 417.472523 496.733886 
L 417.692076 386.639578 
L 417.911629 441.33679 
L 418.131182 402.553832 
L 418.350735 483.312403 
L 418.570288 452.848165 
L 419.009395 485.745042 
L 419.228948 483.226955 
L 419.448501 415.403022 
L 419.668054 502.492375 
L 419.887607 447.350323 
L 420.10716 447.750431 
L 420.326714 516.357453 
L 420.546267 285.641229 
L 420.76582 342.54656 
L 420.985373 340.795721 
L 421.204926 463.389389 
L 421.424479 441.379388 
L 421.644033 307.726047 
L 421.863586 482.160579 
L 422.083139 545.692458 
L 422.302692 487.868241 
L 422.522245 581.38839 
L 422.741798 440.289051 
L 422.961351 410.91726 
L 423.180905 515.603088 
L 423.400458 355.458167 
L 423.620011 499.307028 
L 423.839564 437.307551 
L 424.059117 515.018449 
L 424.27867 457.370366 
L 424.498224 243.607541 
L 424.717777 449.658298 
L 425.156883 547.637355 
L 425.376436 349.713578 
L 425.595989 367.794136 
L 425.815542 491.210209 
L 426.035096 400.943904 
L 426.254649 531.718141 
L 426.474202 545.440668 
L 426.693755 419.017486 
L 426.913308 422.510479 
L 427.132861 469.359258 
L 427.352415 182.659225 
L 427.571968 434.054405 
L 427.791521 285.349552 
L 428.011074 458.390134 
L 428.230627 517.168739 
L 428.669733 388.3048 
L 428.889287 536.839388 
L 429.10884 474.364124 
L 429.328393 311.093039 
L 429.547946 365.217281 
L 429.767499 528.518289 
L 429.987052 341.425781 
L 430.206606 393.029875 
L 430.426159 470.80823 
L 430.645712 269.004007 
L 430.865265 307.686713 
L 431.084818 487.008014 
L 431.304371 472.820885 
L 431.523924 397.669198 
L 431.743478 510.189263 
L 431.963031 275.433737 
L 432.182584 454.224261 
L 432.402137 426.086321 
L 432.62169 519.709502 
L 432.841243 532.646353 
L 433.060797 464.765265 
L 433.28035 524.708942 
L 433.499903 441.340616 
L 433.719456 508.860918 
L 433.939009 274.455946 
L 434.158562 439.401597 
L 434.378115 409.866911 
L 434.597669 512.905203 
L 435.036775 365.961921 
L 435.256328 506.631023 
L 435.475881 454.483471 
L 435.695434 370.151342 
L 435.914988 505.267331 
L 436.134541 430.246998 
L 436.573647 551.874028 
L 436.7932 449.077568 
L 437.012753 522.670654 
L 437.232306 455.112311 
L 437.45186 449.262518 
L 437.671413 255.418838 
L 437.890966 441.862614 
L 438.110519 486.718249 
L 438.330072 471.160064 
L 438.549625 483.147385 
L 438.769178 384.749948 
L 438.988732 533.853084 
L 439.208285 394.850119 
L 439.427838 367.688084 
L 439.647391 470.32524 
L 439.866944 516.928656 
L 440.086497 399.484808 
L 440.306051 409.738478 
L 440.525604 438.254095 
L 440.745157 505.961962 
L 440.96471 444.646117 
L 441.184263 502.42355 
L 441.403816 493.730483 
L 441.623369 379.292111 
L 441.842923 511.818116 
L 442.062476 531.716393 
L 442.282029 433.070482 
L 442.721135 542.662412 
L 442.940688 462.797217 
L 443.160242 452.885253 
L 443.379795 433.790755 
L 443.599348 426.734285 
L 443.818901 404.900371 
L 444.038454 328.491561 
L 444.258007 412.856248 
L 444.47756 391.344365 
L 444.697114 408.999272 
L 444.916667 478.035545 
L 445.13622 488.699088 
L 445.355773 444.661666 
L 445.575326 464.942994 
L 445.794879 518.682512 
L 446.014433 495.790574 
L 446.233986 363.269153 
L 446.673092 500.552665 
L 446.892645 471.286345 
L 447.112198 465.363064 
L 447.331751 455.703826 
L 447.551305 266.021788 
L 447.770858 521.927909 
L 447.990411 434.637766 
L 448.209964 467.974822 
L 448.429517 472.911431 
L 448.64907 451.904923 
L 448.868624 259.795869 
L 449.088177 477.564637 
L 449.30773 400.541481 
L 449.527283 537.658194 
L 449.746836 323.05912 
L 449.966389 442.500059 
L 450.405496 533.828233 
L 450.625049 407.660191 
L 450.844602 386.145695 
L 451.283708 521.330035 
L 451.503261 332.557907 
L 451.722815 412.878565 
L 451.942368 437.724182 
L 452.161921 558.563608 
L 452.381474 365.379109 
L 452.82058 499.388783 
L 453.040133 315.034644 
L 453.259687 515.004178 
L 453.47924 537.675366 
L 453.698793 437.537136 
L 453.918346 471.630505 
L 454.137899 468.501839 
L 454.357452 535.275854 
L 454.577006 529.298777 
L 454.796559 445.438976 
L 455.016112 502.642443 
L 455.235665 503.367942 
L 455.455218 368.188821 
L 455.674771 394.372453 
L 455.894324 229.180661 
L 456.113878 390.924834 
L 456.333431 403.581139 
L 456.552984 379.624069 
L 456.772537 372.31804 
L 457.211643 538.473468 
L 457.431197 494.691044 
L 457.65075 511.794201 
L 457.870303 497.197065 
L 458.089856 566.364123 
L 458.528962 503.207707 
L 458.748515 157.447946 
L 458.968069 478.726736 
L 459.187622 431.418986 
L 459.407175 485.395751 
L 459.626728 409.68847 
L 459.846281 473.480159 
L 460.065834 460.325972 
L 460.285388 527.292336 
L 460.504941 415.55516 
L 460.724494 444.527877 
L 460.944047 397.323521 
L 461.1636 486.628955 
L 461.383153 359.484478 
L 461.602706 531.934762 
L 461.82226 521.842616 
L 462.041813 494.493229 
L 462.261366 494.153834 
L 462.480919 397.116664 
L 462.700472 391.241439 
L 462.920025 519.154359 
L 463.139579 467.132997 
L 463.359132 531.509472 
L 463.798238 406.463813 
L 464.017791 478.728549 
L 464.237344 490.535547 
L 464.456897 486.998371 
L 464.676451 440.399336 
L 464.896004 529.099216 
L 465.115557 449.942302 
L 465.33511 531.815944 
L 465.554663 433.873479 
L 465.993769 496.523624 
L 466.213323 516.08655 
L 466.652429 453.103759 
L 466.871982 478.158336 
L 467.091535 416.771267 
L 467.311088 480.389224 
L 467.530642 472.313221 
L 467.750195 438.120426 
L 467.969748 530.722867 
L 468.189301 444.86034 
L 468.408854 458.949867 
L 468.628407 415.790119 
L 468.84796 481.205185 
L 469.067514 352.353068 
L 469.287067 535.162369 
L 469.50662 380.348186 
L 469.726173 336.655758 
L 469.945726 365.775196 
L 470.165279 462.620849 
L 470.384833 463.795313 
L 470.604386 415.03446 
L 471.043492 503.57048 
L 471.263045 486.61581 
L 471.482598 445.075808 
L 471.702151 464.904678 
L 471.921705 446.452757 
L 472.141258 469.357214 
L 472.360811 467.767099 
L 472.580364 449.200331 
L 472.799917 510.523649 
L 473.01947 470.403033 
L 473.239024 459.629836 
L 473.67813 497.071147 
L 473.897683 547.223058 
L 474.117236 388.572928 
L 474.336789 499.505943 
L 474.556342 540.540206 
L 474.775896 529.15857 
L 474.995449 339.10527 
L 475.215002 469.224074 
L 475.434555 440.719301 
L 475.654108 491.898795 
L 475.873661 481.64216 
L 476.093215 320.209335 
L 476.312768 448.725533 
L 476.532321 442.908591 
L 476.751874 376.569958 
L 476.971427 353.8129 
L 477.19098 497.196811 
L 477.410533 467.019997 
L 477.84964 237.875808 
L 478.069193 450.5798 
L 478.288746 531.150659 
L 478.508299 524.959302 
L 478.727852 502.294754 
L 478.947406 502.751268 
L 479.386512 465.816948 
L 479.606065 382.412656 
L 479.825618 499.271164 
L 480.045171 413.925902 
L 480.264724 550.623357 
L 480.703831 461.740459 
L 480.923384 449.757621 
L 481.142937 447.948107 
L 481.36249 384.573186 
L 481.582043 507.5868 
L 481.801597 379.497677 
L 482.02115 505.549648 
L 482.240703 508.054788 
L 482.460256 218.770604 
L 482.679809 457.037496 
L 482.899362 454.174127 
L 483.118915 481.383161 
L 483.338469 523.954996 
L 483.558022 477.739437 
L 483.777575 463.069357 
L 483.997128 354.240255 
L 484.216681 476.140358 
L 484.655788 534.165401 
L 485.094894 418.379377 
L 485.314447 533.836596 
L 485.534 434.649204 
L 485.753553 452.243644 
L 485.973106 415.330564 
L 486.19266 494.396101 
L 486.412213 412.365372 
L 486.631766 476.392248 
L 486.851319 496.863744 
L 487.290425 435.561118 
L 487.509979 524.67653 
L 487.729532 547.111074 
L 487.949085 291.56087 
L 488.168638 454.560401 
L 488.388191 445.081212 
L 488.607744 517.07454 
L 488.827297 495.51757 
L 489.266404 410.430176 
L 489.485957 447.02673 
L 489.70551 415.839338 
L 489.925063 451.349723 
L 490.144616 371.50556 
L 490.364169 475.526292 
L 490.583723 493.449783 
L 490.803276 525.411844 
L 491.022829 501.836007 
L 491.242382 530.337 
L 491.461935 349.394415 
L 491.681488 535.045817 
L 491.901042 494.39033 
L 492.120595 272.636601 
L 492.340148 573.519246 
L 492.559701 546.583507 
L 492.779254 477.757939 
L 492.998807 450.044457 
L 493.21836 556.018274 
L 493.437914 515.128572 
L 493.657467 398.583744 
L 493.87702 479.923411 
L 494.096573 370.55318 
L 494.316126 391.995637 
L 494.535679 386.644612 
L 494.755233 500.399242 
L 494.974786 321.827101 
L 495.194339 393.228195 
L 495.413892 385.343892 
L 495.633445 401.268523 
L 495.852998 446.722013 
L 496.072551 467.890234 
L 496.292105 471.50309 
L 496.511658 519.260186 
L 496.731211 419.141666 
L 497.170317 554.951186 
L 497.38987 484.79297 
L 497.609424 455.141131 
L 497.828977 518.713998 
L 498.04853 455.349108 
L 498.268083 475.962857 
L 498.487636 482.503952 
L 498.707189 510.298481 
L 498.926742 417.661929 
L 499.146296 500.550832 
L 499.365849 482.326229 
L 499.804955 476.809029 
L 500.024508 301.470568 
L 500.244061 409.682555 
L 500.463615 413.333229 
L 500.683168 549.593868 
L 500.902721 425.82865 
L 501.122274 496.304275 
L 501.341827 526.750099 
L 501.56138 500.262352 
L 501.780933 449.18455 
L 502.000487 532.90031 
L 502.22004 533.814067 
L 502.439593 418.165238 
L 502.659146 455.589695 
L 502.878699 441.688178 
L 503.098252 418.674065 
L 503.317806 278.977394 
L 503.537359 438.674739 
L 503.756912 344.361976 
L 504.196018 533.58579 
L 504.415571 379.175307 
L 504.635124 516.486069 
L 504.854678 485.699484 
L 505.074231 406.39593 
L 505.293784 462.633637 
L 505.513337 565.948218 
L 505.73289 501.568748 
L 506.171997 269.981767 
L 506.39155 462.062043 
L 506.611103 514.094197 
L 506.830656 459.372528 
L 507.050209 494.133525 
L 507.269762 499.820482 
L 507.489315 497.704538 
L 507.708869 501.044878 
L 507.928422 452.874787 
L 508.147975 492.74357 
L 508.367528 390.313772 
L 508.587081 481.890171 
L 508.806634 305.120888 
L 509.245741 544.112543 
L 509.465294 275.148234 
L 509.684847 427.812715 
L 509.9044 393.031815 
L 510.123953 461.929173 
L 510.343506 267.241381 
L 510.56306 547.240304 
L 510.782613 471.977488 
L 511.002166 540.208668 
L 511.221719 428.060606 
L 511.441272 545.760714 
L 511.660825 480.373597 
L 511.880379 496.744161 
L 512.099932 523.450929 
L 512.319485 513.173381 
L 512.539038 473.048971 
L 512.758591 326.189447 
L 512.978144 477.930942 
L 513.197697 509.171551 
L 513.417251 501.108131 
L 513.636804 441.788577 
L 513.856357 298.584337 
L 514.07591 443.326998 
L 514.295463 494.325871 
L 514.515016 442.524779 
L 514.73457 487.070093 
L 514.954123 489.795399 
L 515.393229 433.282012 
L 515.612782 554.940037 
L 516.051888 387.02474 
L 516.271442 531.621667 
L 516.490995 493.438984 
L 516.710548 476.539089 
L 516.930101 492.0198 
L 517.149654 548.299505 
L 517.58876 407.751621 
L 517.808314 361.665419 
L 518.027867 234.160585 
L 518.24742 488.898894 
L 518.466973 403.535503 
L 518.686526 397.484803 
L 518.906079 373.483471 
L 519.125633 477.368006 
L 519.345186 446.405794 
L 519.564739 462.384955 
L 519.784292 432.619661 
L 520.003845 362.837077 
L 520.223398 500.340575 
L 520.442951 501.448674 
L 520.662505 546.765858 
L 520.882058 510.886596 
L 521.101611 503.231455 
L 521.321164 431.693965 
L 521.540717 535.357636 
L 521.76027 414.593904 
L 522.199377 527.496105 
L 522.41893 421.82948 
L 522.638483 439.232671 
L 522.858036 441.449009 
L 523.077589 468.235515 
L 523.297142 451.317818 
L 523.516696 520.727318 
L 523.736249 375.930208 
L 523.955802 537.488528 
L 524.175355 374.025788 
L 524.394908 508.53225 
L 524.614461 500.955294 
L 524.834015 522.12465 
L 525.053568 432.225042 
L 525.273121 477.370694 
L 525.492674 457.12335 
L 525.712227 533.695977 
L 525.93178 492.895271 
L 526.151333 490.061465 
L 526.370887 502.411661 
L 526.59044 450.966081 
L 526.809993 479.825785 
L 527.029546 489.766971 
L 527.249099 439.296921 
L 527.468652 443.607089 
L 527.688206 439.290674 
L 527.907759 459.547383 
L 528.127312 440.222434 
L 528.346865 274.276146 
L 528.566418 504.67378 
L 528.785971 522.713246 
L 529.005524 526.779122 
L 529.225078 481.404978 
L 529.444631 510.992446 
L 529.664184 502.780052 
L 529.883737 484.211676 
L 530.322843 384.426553 
L 530.542397 489.736402 
L 530.981503 249.985682 
L 531.201056 538.134079 
L 531.420609 421.159501 
L 531.640162 513.106758 
L 531.859715 465.920985 
L 532.079269 348.113686 
L 532.298822 373.629697 
L 532.518375 357.424202 
L 532.737928 567.483388 
L 532.957481 472.284202 
L 533.177034 455.495282 
L 533.396588 502.686354 
L 533.616141 470.125827 
L 533.835694 489.530597 
L 534.055247 438.603752 
L 534.2748 418.984847 
L 534.494353 498.684699 
L 534.93346 431.557259 
L 535.372566 567.716564 
L 535.592119 551.714821 
L 535.811672 546.918901 
L 536.031225 430.076597 
L 536.250779 559.020713 
L 536.470332 404.779392 
L 536.689885 530.589004 
L 536.909438 546.642184 
L 537.128991 512.011957 
L 537.348544 428.668055 
L 537.568097 523.77339 
L 538.007204 331.618628 
L 538.226757 403.3344 
L 538.44631 533.533786 
L 538.665863 553.465437 
L 538.885416 425.579949 
L 539.324523 383.841526 
L 539.544076 476.95121 
L 539.763629 460.368334 
L 539.983182 544.4761 
L 540.202735 554.246212 
L 540.422288 442.205042 
L 540.641842 561.93325 
L 540.861395 339.807289 
L 541.080948 482.069021 
L 541.300501 489.108233 
L 541.520054 376.198143 
L 541.739607 510.255159 
L 541.95916 530.327933 
L 542.178714 512.839704 
L 542.398267 415.88232 
L 542.61782 427.568831 
L 542.837373 382.804658 
L 543.056926 372.894894 
L 543.276479 512.609387 
L 543.496033 375.87632 
L 543.715586 533.586138 
L 543.935139 560.269156 
L 544.154692 377.807045 
L 544.374245 507.374679 
L 544.593798 499.198295 
L 544.813351 387.55526 
L 545.032905 530.047914 
L 545.252458 474.289414 
L 545.472011 375.688817 
L 545.691564 522.738015 
L 545.911117 496.484744 
L 546.13067 520.667178 
L 546.350224 471.044524 
L 546.569777 272.626967 
L 546.78933 471.805732 
L 547.008883 444.213297 
L 547.228436 454.714571 
L 547.447989 543.027052 
L 547.667542 479.689528 
L 547.887096 494.462671 
L 548.326202 348.886444 
L 548.545755 449.813506 
L 548.765308 415.939239 
L 549.204415 515.337991 
L 549.423968 514.539682 
L 549.643521 493.08082 
L 549.863074 386.441722 
L 550.082627 354.456166 
L 550.521733 419.431586 
L 550.741287 402.53319 
L 550.96084 464.249561 
L 551.180393 472.776314 
L 551.399946 453.447681 
L 551.619499 423.844525 
L 552.058606 513.24292 
L 552.278159 150.237024 
L 552.497712 476.729354 
L 552.717265 479.941909 
L 552.936818 401.259855 
L 553.156371 462.369818 
L 553.375924 350.886412 
L 553.595478 504.636279 
L 553.815031 416.067347 
L 554.034584 467.526636 
L 554.254137 445.825788 
L 554.47369 290.602522 
L 554.693243 444.276781 
L 554.912797 470.767772 
L 555.13235 550.353515 
L 555.351903 496.231506 
L 555.791009 362.945266 
L 556.010562 461.24676 
L 556.230115 498.60991 
L 556.449669 456.65471 
L 556.669222 442.809516 
L 556.888775 463.564259 
L 557.108328 514.381654 
L 557.327881 525.443707 
L 557.547434 490.539232 
L 557.766988 434.251445 
L 557.986541 544.121329 
L 558.6452 379.885114 
L 559.084306 549.303949 
L 559.30386 380.584722 
L 559.523413 433.553817 
L 559.742966 554.638503 
L 559.742966 554.638503 
" style="fill:none;stroke:#96c69a;stroke-linecap:round;stroke-width:3;"/>
   </g>
   <g id="line2d_2"/>
   <g id="patch_3">
    <path d="M 98.911875 603.86 
L 98.911875 109.484571 
" style="fill:none;stroke:#262626;stroke-linecap:square;stroke-linejoin:miter;stroke-width:2.5;"/>
   </g>
   <g id="patch_4">
    <path d="M 98.911875 603.86 
L 581.687304 603.86 
" style="fill:none;stroke:#262626;stroke-linecap:square;stroke-linejoin:miter;stroke-width:2.5;"/>
   </g>
   <g id="legend_1">
    <g id="patch_5">
     <path d="M 528.771679 598.86 
L 574.687304 598.86 
Q 576.687304 598.86 576.687304 596.86 
L 576.687304 554.954375 
Q 576.687304 552.954375 574.687304 552.954375 
L 528.771679 552.954375 
Q 526.771679 552.954375 526.771679 554.954375 
L 526.771679 596.86 
Q 526.771679 598.86 528.771679 598.86 
z
" style="fill:#ffffff;opacity:0.8;stroke:#cccccc;stroke-linejoin:miter;stroke-width:2;"/>
    </g>
    <g id="text_18">
     <!-- $n_\tau$ -->
     <g style="fill:#262626;" transform="translate(538.649491 575.190625)scale(0.24 -0.24)">
      <defs>
       <path d="M 3566 2113 
L 3156 0 
L 2578 0 
L 2988 2091 
Q 3016 2238 3031 2350 
Q 3047 2463 3047 2528 
Q 3047 2791 2881 2937 
Q 2716 3084 2419 3084 
Q 1956 3084 1622 2776 
Q 1288 2469 1184 1941 
L 800 0 
L 225 0 
L 903 3500 
L 1478 3500 
L 1363 2950 
Q 1603 3253 1940 3418 
Q 2278 3584 2650 3584 
Q 3113 3584 3367 3334 
Q 3622 3084 3622 2631 
Q 3622 2519 3608 2391 
Q 3594 2263 3566 2113 
z
" id="DejaVuSans-Oblique-6e" transform="scale(0.015625)"/>
       <path d="M 2103 638 
Q 2188 488 2525 488 
L 2800 488 
L 2706 0 
L 2363 0 
Q 1800 0 1600 300 
Q 1403 606 1534 1269 
L 1856 2925 
L 541 2925 
L 653 3500 
L 3881 3500 
L 3769 2925 
L 2444 2925 
L 2113 1234 
Q 2025 781 2103 638 
z
" id="DejaVuSans-Oblique-3c4" transform="scale(0.015625)"/>
      </defs>
      <use xlink:href="#DejaVuSans-Oblique-6e"/>
      <use transform="translate(63.378906 -16.40625)scale(0.7)" xlink:href="#DejaVuSans-Oblique-3c4"/>
     </g>
    </g>
    <g id="line2d_3">
     <path d="M 530.771679 589.280313 
L 550.771679 589.280313 
" style="fill:none;stroke:#96c69a;stroke-linecap:round;stroke-width:3;"/>
    </g>
    <g id="line2d_4"/>
    <g id="text_19">
     <!-- 40 -->
     <g style="fill:#262626;" transform="translate(558.771679 592.780313)scale(0.1 -0.1)">
      <defs>
       <path d="M 2356 3675 
L 1038 1722 
L 2356 1722 
L 2356 3675 
z
M 2156 4666 
L 3494 4666 
L 3494 1722 
L 4159 1722 
L 4159 850 
L 3494 850 
L 3494 0 
L 2356 0 
L 2356 850 
L 288 850 
L 288 1881 
L 2156 4666 
z
" id="DejaVuSans-Bold-34" transform="scale(0.015625)"/>
       <path d="M 2944 2338 
Q 2944 3213 2780 3570 
Q 2616 3928 2228 3928 
Q 1841 3928 1675 3570 
Q 1509 3213 1509 2338 
Q 1509 1453 1675 1090 
Q 1841 728 2228 728 
Q 2613 728 2778 1090 
Q 2944 1453 2944 2338 
z
M 4147 2328 
Q 4147 1169 3647 539 
Q 3147 -91 2228 -91 
Q 1306 -91 806 539 
Q 306 1169 306 2328 
Q 306 3491 806 4120 
Q 1306 4750 2228 4750 
Q 3147 4750 3647 4120 
Q 4147 3491 4147 2328 
z
" id="DejaVuSans-Bold-30" transform="scale(0.015625)"/>
      </defs>
      <use xlink:href="#DejaVuSans-Bold-34"/>
      <use x="69.580078" xlink:href="#DejaVuSans-Bold-30"/>
     </g>
    </g>
   </g>
  </g>
  <g id="axes_2">
   <g id="patch_6">
    <path d="M 98.911875 92.437143 
L 581.687304 92.437143 
L 581.687304 7.2 
L 98.911875 7.2 
z
" style="fill:none;"/>
   </g>
   <g id="matplotlib.axis_3">
    <g id="xtick_7"/>
    <g id="xtick_8"/>
    <g id="xtick_9"/>
    <g id="xtick_10"/>
    <g id="xtick_11"/>
    <g id="xtick_12"/>
   </g>
   <g id="matplotlib.axis_4">
    <g id="ytick_10">
     <g id="text_20">
      <!-- 0 -->
      <g style="fill:#262626;" transform="translate(69.414375 100.795424)scale(0.22 -0.22)">
       <use xlink:href="#DejaVuSans-30"/>
      </g>
     </g>
    </g>
    <g id="ytick_11">
     <g id="text_21">
      <!-- 100 -->
      <g style="fill:#262626;" transform="translate(41.419375 48.082287)scale(0.22 -0.22)">
       <use xlink:href="#DejaVuSans-31"/>
       <use x="63.623047" xlink:href="#DejaVuSans-30"/>
       <use x="127.246094" xlink:href="#DejaVuSans-30"/>
      </g>
     </g>
    </g>
   </g>
   <g id="patch_7">
    <path clip-path="url(#p61d54c9136)" d="M 120.856213 92.437143 
L 154.616732 92.437143 
L 154.616732 11.258912 
L 120.856213 11.258912 
z
" style="fill:#96c69a;fill-opacity:0.5;stroke:#ffffff;stroke-linejoin:miter;stroke-width:2;"/>
   </g>
   <g id="patch_8">
    <path clip-path="url(#p61d54c9136)" d="M 154.616732 92.437143 
L 188.377252 92.437143 
L 188.377252 11.258912 
L 154.616732 11.258912 
z
" style="fill:#96c69a;fill-opacity:0.5;stroke:#ffffff;stroke-linejoin:miter;stroke-width:2;"/>
   </g>
   <g id="patch_9">
    <path clip-path="url(#p61d54c9136)" d="M 188.377252 92.437143 
L 222.137771 92.437143 
L 222.137771 11.258912 
L 188.377252 11.258912 
z
" style="fill:#96c69a;fill-opacity:0.5;stroke:#ffffff;stroke-linejoin:miter;stroke-width:2;"/>
   </g>
   <g id="patch_10">
    <path clip-path="url(#p61d54c9136)" d="M 222.137771 92.437143 
L 255.898291 92.437143 
L 255.898291 11.258912 
L 222.137771 11.258912 
z
" style="fill:#96c69a;fill-opacity:0.5;stroke:#ffffff;stroke-linejoin:miter;stroke-width:2;"/>
   </g>
   <g id="patch_11">
    <path clip-path="url(#p61d54c9136)" d="M 255.898291 92.437143 
L 289.65881 92.437143 
L 289.65881 11.786043 
L 255.898291 11.786043 
z
" style="fill:#96c69a;fill-opacity:0.5;stroke:#ffffff;stroke-linejoin:miter;stroke-width:2;"/>
   </g>
   <g id="patch_12">
    <path clip-path="url(#p61d54c9136)" d="M 289.65881 92.437143 
L 323.41933 92.437143 
L 323.41933 11.258912 
L 289.65881 11.258912 
z
" style="fill:#96c69a;fill-opacity:0.5;stroke:#ffffff;stroke-linejoin:miter;stroke-width:2;"/>
   </g>
   <g id="patch_13">
    <path clip-path="url(#p61d54c9136)" d="M 323.41933 92.437143 
L 357.179849 92.437143 
L 357.179849 11.258912 
L 323.41933 11.258912 
z
" style="fill:#96c69a;fill-opacity:0.5;stroke:#ffffff;stroke-linejoin:miter;stroke-width:2;"/>
   </g>
   <g id="patch_14">
    <path clip-path="url(#p61d54c9136)" d="M 357.179849 92.437143 
L 390.940369 92.437143 
L 390.940369 11.258912 
L 357.179849 11.258912 
z
" style="fill:#96c69a;fill-opacity:0.5;stroke:#ffffff;stroke-linejoin:miter;stroke-width:2;"/>
   </g>
   <g id="patch_15">
    <path clip-path="url(#p61d54c9136)" d="M 390.940369 92.437143 
L 424.700888 92.437143 
L 424.700888 11.786043 
L 390.940369 11.786043 
z
" style="fill:#96c69a;fill-opacity:0.5;stroke:#ffffff;stroke-linejoin:miter;stroke-width:2;"/>
   </g>
   <g id="patch_16">
    <path clip-path="url(#p61d54c9136)" d="M 424.700888 92.437143 
L 458.461407 92.437143 
L 458.461407 11.258912 
L 424.700888 11.258912 
z
" style="fill:#96c69a;fill-opacity:0.5;stroke:#ffffff;stroke-linejoin:miter;stroke-width:2;"/>
   </g>
   <g id="patch_17">
    <path clip-path="url(#p61d54c9136)" d="M 458.461407 92.437143 
L 492.221927 92.437143 
L 492.221927 11.258912 
L 458.461407 11.258912 
z
" style="fill:#96c69a;fill-opacity:0.5;stroke:#ffffff;stroke-linejoin:miter;stroke-width:2;"/>
   </g>
   <g id="patch_18">
    <path clip-path="url(#p61d54c9136)" d="M 492.221927 92.437143 
L 525.982446 92.437143 
L 525.982446 11.258912 
L 492.221927 11.258912 
z
" style="fill:#96c69a;fill-opacity:0.5;stroke:#ffffff;stroke-linejoin:miter;stroke-width:2;"/>
   </g>
   <g id="patch_19">
    <path clip-path="url(#p61d54c9136)" d="M 525.982446 92.437143 
L 559.742966 92.437143 
L 559.742966 11.258912 
L 525.982446 11.258912 
z
" style="fill:#96c69a;fill-opacity:0.5;stroke:#ffffff;stroke-linejoin:miter;stroke-width:2;"/>
   </g>
   <g id="patch_20">
    <path d="M 98.911875 92.437143 
L 98.911875 7.2 
" style="fill:none;stroke:#262626;stroke-linecap:square;stroke-linejoin:miter;stroke-width:2.5;"/>
   </g>
   <g id="patch_21">
    <path d="M 98.911875 92.437143 
L 581.687304 92.437143 
" style="fill:none;stroke:#262626;stroke-linecap:square;stroke-linejoin:miter;stroke-width:2.5;"/>
   </g>
  </g>
  <g id="axes_3">
   <g id="patch_22">
    <path d="M 598.334732 603.86 
L 681.571875 603.86 
L 681.571875 109.484571 
L 598.334732 109.484571 
z
" style="fill:none;"/>
   </g>
   <g id="matplotlib.axis_5">
    <g id="xtick_13">
     <g id="text_22">
      <!-- 0 -->
      <g style="fill:#262626;" transform="translate(591.335982 636.076563)scale(0.22 -0.22)">
       <use xlink:href="#DejaVuSans-30"/>
      </g>
     </g>
    </g>
    <g id="xtick_14">
     <g id="text_23">
      <!-- 100 -->
      <g style="fill:#262626;" transform="translate(620.895333 636.076563)scale(0.22 -0.22)">
       <use xlink:href="#DejaVuSans-31"/>
       <use x="63.623047" xlink:href="#DejaVuSans-30"/>
       <use x="127.246094" xlink:href="#DejaVuSans-30"/>
      </g>
     </g>
    </g>
   </g>
   <g id="matplotlib.axis_6">
    <g id="ytick_12"/>
    <g id="ytick_13"/>
    <g id="ytick_14"/>
    <g id="ytick_15"/>
    <g id="ytick_16"/>
    <g id="ytick_17"/>
    <g id="ytick_18"/>
    <g id="ytick_19"/>
    <g id="ytick_20"/>
   </g>
   <g id="patch_23">
    <path clip-path="url(#p198e71d425)" d="M 598.334732 581.38839 
L 601.383712 581.38839 
L 601.383712 568.169795 
L 598.334732 568.169795 
z
" style="fill:#96c69a;fill-opacity:0.5;stroke:#ffffff;stroke-linejoin:miter;stroke-width:1.321859;"/>
   </g>
   <g id="patch_24">
    <path clip-path="url(#p198e71d425)" d="M 598.334732 568.169795 
L 612.272925 568.169795 
L 612.272925 554.951201 
L 598.334732 554.951201 
z
" style="fill:#96c69a;fill-opacity:0.5;stroke:#ffffff;stroke-linejoin:miter;stroke-width:1.321859;"/>
   </g>
   <g id="patch_25">
    <path clip-path="url(#p198e71d425)" d="M 598.334732 554.951201 
L 632.309076 554.951201 
L 632.309076 541.732607 
L 598.334732 541.732607 
z
" style="fill:#96c69a;fill-opacity:0.5;stroke:#ffffff;stroke-linejoin:miter;stroke-width:1.321859;"/>
   </g>
   <g id="patch_26">
    <path clip-path="url(#p198e71d425)" d="M 598.334732 541.732607 
L 648.86068 541.732607 
L 648.86068 528.514012 
L 598.334732 528.514012 
z
" style="fill:#96c69a;fill-opacity:0.5;stroke:#ffffff;stroke-linejoin:miter;stroke-width:1.321859;"/>
   </g>
   <g id="patch_27">
    <path clip-path="url(#p198e71d425)" d="M 598.334732 528.514012 
L 658.443187 528.514012 
L 658.443187 515.295418 
L 598.334732 515.295418 
z
" style="fill:#96c69a;fill-opacity:0.5;stroke:#ffffff;stroke-linejoin:miter;stroke-width:1.321859;"/>
   </g>
   <g id="patch_28">
    <path clip-path="url(#p198e71d425)" d="M 598.334732 515.295418 
L 661.056598 515.295418 
L 661.056598 502.076824 
L 598.334732 502.076824 
z
" style="fill:#96c69a;fill-opacity:0.5;stroke:#ffffff;stroke-linejoin:miter;stroke-width:1.321859;"/>
   </g>
   <g id="patch_29">
    <path clip-path="url(#p198e71d425)" d="M 598.334732 502.076824 
L 677.608202 502.076824 
L 677.608202 488.858229 
L 598.334732 488.858229 
z
" style="fill:#96c69a;fill-opacity:0.5;stroke:#ffffff;stroke-linejoin:miter;stroke-width:1.321859;"/>
   </g>
   <g id="patch_30">
    <path clip-path="url(#p198e71d425)" d="M 598.334732 488.858229 
L 671.510242 488.858229 
L 671.510242 475.639635 
L 598.334732 475.639635 
z
" style="fill:#96c69a;fill-opacity:0.5;stroke:#ffffff;stroke-linejoin:miter;stroke-width:1.321859;"/>
   </g>
   <g id="patch_31">
    <path clip-path="url(#p198e71d425)" d="M 598.334732 475.639635 
L 674.123653 475.639635 
L 674.123653 462.42104 
L 598.334732 462.42104 
z
" style="fill:#96c69a;fill-opacity:0.5;stroke:#ffffff;stroke-linejoin:miter;stroke-width:1.321859;"/>
   </g>
   <g id="patch_32">
    <path clip-path="url(#p198e71d425)" d="M 598.334732 462.42104 
L 666.718989 462.42104 
L 666.718989 449.202446 
L 598.334732 449.202446 
z
" style="fill:#96c69a;fill-opacity:0.5;stroke:#ffffff;stroke-linejoin:miter;stroke-width:1.321859;"/>
   </g>
   <g id="patch_33">
    <path clip-path="url(#p198e71d425)" d="M 598.334732 449.202446 
L 666.718989 449.202446 
L 666.718989 435.983852 
L 598.334732 435.983852 
z
" style="fill:#96c69a;fill-opacity:0.5;stroke:#ffffff;stroke-linejoin:miter;stroke-width:1.321859;"/>
   </g>
   <g id="patch_34">
    <path clip-path="url(#p198e71d425)" d="M 598.334732 435.983852 
L 648.425111 435.983852 
L 648.425111 422.765257 
L 598.334732 422.765257 
z
" style="fill:#96c69a;fill-opacity:0.5;stroke:#ffffff;stroke-linejoin:miter;stroke-width:1.321859;"/>
   </g>
   <g id="patch_35">
    <path clip-path="url(#p198e71d425)" d="M 598.334732 422.765257 
L 638.407035 422.765257 
L 638.407035 409.546663 
L 598.334732 409.546663 
z
" style="fill:#96c69a;fill-opacity:0.5;stroke:#ffffff;stroke-linejoin:miter;stroke-width:1.321859;"/>
   </g>
   <g id="patch_36">
    <path clip-path="url(#p198e71d425)" d="M 598.334732 409.546663 
L 637.535898 409.546663 
L 637.535898 396.328069 
L 598.334732 396.328069 
z
" style="fill:#96c69a;fill-opacity:0.5;stroke:#ffffff;stroke-linejoin:miter;stroke-width:1.321859;"/>
   </g>
   <g id="patch_37">
    <path clip-path="url(#p198e71d425)" d="M 598.334732 396.328069 
L 628.38896 396.328069 
L 628.38896 383.109474 
L 598.334732 383.109474 
z
" style="fill:#96c69a;fill-opacity:0.5;stroke:#ffffff;stroke-linejoin:miter;stroke-width:1.321859;"/>
   </g>
   <g id="patch_38">
    <path clip-path="url(#p198e71d425)" d="M 598.334732 383.109474 
L 627.517823 383.109474 
L 627.517823 369.89088 
L 598.334732 369.89088 
z
" style="fill:#96c69a;fill-opacity:0.5;stroke:#ffffff;stroke-linejoin:miter;stroke-width:1.321859;"/>
   </g>
   <g id="patch_39">
    <path clip-path="url(#p198e71d425)" d="M 598.334732 369.89088 
L 618.370884 369.89088 
L 618.370884 356.672286 
L 598.334732 356.672286 
z
" style="fill:#96c69a;fill-opacity:0.5;stroke:#ffffff;stroke-linejoin:miter;stroke-width:1.321859;"/>
   </g>
   <g id="patch_40">
    <path clip-path="url(#p198e71d425)" d="M 598.334732 356.672286 
L 613.144062 356.672286 
L 613.144062 343.453691 
L 598.334732 343.453691 
z
" style="fill:#96c69a;fill-opacity:0.5;stroke:#ffffff;stroke-linejoin:miter;stroke-width:1.321859;"/>
   </g>
   <g id="patch_41">
    <path clip-path="url(#p198e71d425)" d="M 598.334732 343.453691 
L 611.401788 343.453691 
L 611.401788 330.235097 
L 598.334732 330.235097 
z
" style="fill:#96c69a;fill-opacity:0.5;stroke:#ffffff;stroke-linejoin:miter;stroke-width:1.321859;"/>
   </g>
   <g id="patch_42">
    <path clip-path="url(#p198e71d425)" d="M 598.334732 330.235097 
L 605.739397 330.235097 
L 605.739397 317.016503 
L 598.334732 317.016503 
z
" style="fill:#96c69a;fill-opacity:0.5;stroke:#ffffff;stroke-linejoin:miter;stroke-width:1.321859;"/>
   </g>
   <g id="patch_43">
    <path clip-path="url(#p198e71d425)" d="M 598.334732 317.016503 
L 605.739397 317.016503 
L 605.739397 303.797908 
L 598.334732 303.797908 
z
" style="fill:#96c69a;fill-opacity:0.5;stroke:#ffffff;stroke-linejoin:miter;stroke-width:1.321859;"/>
   </g>
   <g id="patch_44">
    <path clip-path="url(#p198e71d425)" d="M 598.334732 303.797908 
L 602.690417 303.797908 
L 602.690417 290.579314 
L 598.334732 290.579314 
z
" style="fill:#96c69a;fill-opacity:0.5;stroke:#ffffff;stroke-linejoin:miter;stroke-width:1.321859;"/>
   </g>
   <g id="patch_45">
    <path clip-path="url(#p198e71d425)" d="M 598.334732 290.579314 
L 602.254849 290.579314 
L 602.254849 277.36072 
L 598.334732 277.36072 
z
" style="fill:#96c69a;fill-opacity:0.5;stroke:#ffffff;stroke-linejoin:miter;stroke-width:1.321859;"/>
   </g>
   <g id="patch_46">
    <path clip-path="url(#p198e71d425)" d="M 598.334732 277.36072 
L 606.174965 277.36072 
L 606.174965 264.142125 
L 598.334732 264.142125 
z
" style="fill:#96c69a;fill-opacity:0.5;stroke:#ffffff;stroke-linejoin:miter;stroke-width:1.321859;"/>
   </g>
   <g id="patch_47">
    <path clip-path="url(#p198e71d425)" d="M 598.334732 264.142125 
L 601.81928 264.142125 
L 601.81928 250.923531 
L 598.334732 250.923531 
z
" style="fill:#96c69a;fill-opacity:0.5;stroke:#ffffff;stroke-linejoin:miter;stroke-width:1.321859;"/>
   </g>
   <g id="patch_48">
    <path clip-path="url(#p198e71d425)" d="M 598.334732 250.923531 
L 600.512575 250.923531 
L 600.512575 237.704937 
L 598.334732 237.704937 
z
" style="fill:#96c69a;fill-opacity:0.5;stroke:#ffffff;stroke-linejoin:miter;stroke-width:1.321859;"/>
   </g>
   <g id="patch_49">
    <path clip-path="url(#p198e71d425)" d="M 598.334732 237.704937 
L 601.383712 237.704937 
L 601.383712 224.486342 
L 598.334732 224.486342 
z
" style="fill:#96c69a;fill-opacity:0.5;stroke:#ffffff;stroke-linejoin:miter;stroke-width:1.321859;"/>
   </g>
   <g id="patch_50">
    <path clip-path="url(#p198e71d425)" d="M 598.334732 224.486342 
L 599.205869 224.486342 
L 599.205869 211.267748 
L 598.334732 211.267748 
z
" style="fill:#96c69a;fill-opacity:0.5;stroke:#ffffff;stroke-linejoin:miter;stroke-width:1.321859;"/>
   </g>
   <g id="patch_51">
    <path clip-path="url(#p198e71d425)" d="M 598.334732 211.267748 
L 598.770301 211.267748 
L 598.770301 198.049154 
L 598.334732 198.049154 
z
" style="fill:#96c69a;fill-opacity:0.5;stroke:#ffffff;stroke-linejoin:miter;stroke-width:1.321859;"/>
   </g>
   <g id="patch_52">
    <path clip-path="url(#p198e71d425)" d="M 598.334732 198.049154 
L 598.770301 198.049154 
L 598.770301 184.830559 
L 598.334732 184.830559 
z
" style="fill:#96c69a;fill-opacity:0.5;stroke:#ffffff;stroke-linejoin:miter;stroke-width:1.321859;"/>
   </g>
   <g id="patch_53">
    <path clip-path="url(#p198e71d425)" d="M 598.334732 184.830559 
L 599.205869 184.830559 
L 599.205869 171.611965 
L 598.334732 171.611965 
z
" style="fill:#96c69a;fill-opacity:0.5;stroke:#ffffff;stroke-linejoin:miter;stroke-width:1.321859;"/>
   </g>
   <g id="patch_54">
    <path clip-path="url(#p198e71d425)" d="M 598.334732 171.611965 
L 599.205869 171.611965 
L 599.205869 158.393371 
L 598.334732 158.393371 
z
" style="fill:#96c69a;fill-opacity:0.5;stroke:#ffffff;stroke-linejoin:miter;stroke-width:1.321859;"/>
   </g>
   <g id="patch_55">
    <path clip-path="url(#p198e71d425)" d="M 598.334732 158.393371 
L 599.641438 158.393371 
L 599.641438 145.174776 
L 598.334732 145.174776 
z
" style="fill:#96c69a;fill-opacity:0.5;stroke:#ffffff;stroke-linejoin:miter;stroke-width:1.321859;"/>
   </g>
   <g id="patch_56">
    <path clip-path="url(#p198e71d425)" d="M 598.334732 145.174776 
L 599.205869 145.174776 
L 599.205869 131.956182 
L 598.334732 131.956182 
z
" style="fill:#96c69a;fill-opacity:0.5;stroke:#ffffff;stroke-linejoin:miter;stroke-width:1.321859;"/>
   </g>
   <g id="patch_57">
    <path d="M 598.334732 603.86 
L 598.334732 109.484571 
" style="fill:none;stroke:#262626;stroke-linecap:square;stroke-linejoin:miter;stroke-width:2.5;"/>
   </g>
   <g id="patch_58">
    <path d="M 598.334732 603.86 
L 681.571875 603.86 
" style="fill:none;stroke:#262626;stroke-linecap:square;stroke-linejoin:miter;stroke-width:2.5;"/>
   </g>
  </g>
 </g>
 <defs>
  <clipPath id="p186abe6814">
   <rect height="494.375429" width="482.775429" x="98.911875" y="109.484571"/>
  </clipPath>
  <clipPath id="p61d54c9136">
   <rect height="85.237143" width="482.775429" x="98.911875" y="7.2"/>
  </clipPath>
  <clipPath id="p198e71d425">
   <rect height="494.375429" width="83.237143" x="598.334732" y="109.484571"/>
  </clipPath>
 </defs>
</svg>
