<?xml version="1.0" encoding="utf-8" standalone="no"?>
<!DOCTYPE svg PUBLIC "-//W3C//DTD SVG 1.1//EN"
  "http://www.w3.org/Graphics/SVG/1.1/DTD/svg11.dtd">
<svg height="674.159375pt" version="1.1" viewBox="0 0 674.984375 674.159375" width="674.984375pt" xmlns="http://www.w3.org/2000/svg" xmlns:xlink="http://www.w3.org/1999/xlink">
 <metadata>
  <rdf:RDF xmlns:cc="http://creativecommons.org/ns#" xmlns:dc="http://purl.org/dc/elements/1.1/" xmlns:rdf="http://www.w3.org/1999/02/22-rdf-syntax-ns#">
   <cc:Work>
    <dc:type rdf:resource="http://purl.org/dc/dcmitype/StillImage"/>
    <dc:date>2021-07-24T14:57:17.739631</dc:date>
    <dc:format>image/svg+xml</dc:format>
    <dc:creator>
     <cc:Agent>
      <dc:title>Matplotlib v3.4.2, https://matplotlib.org/</dc:title>
     </cc:Agent>
    </dc:creator>
   </cc:Work>
  </rdf:RDF>
 </metadata>
 <defs>
  <style type="text/css">*{stroke-linecap:butt;stroke-linejoin:round;}</style>
 </defs>
 <g id="figure_1">
  <g id="patch_1">
   <path d="M 0 674.159375 
L 674.984375 674.159375 
L 674.984375 0 
L 0 0 
z
" style="fill:#ffffff;"/>
  </g>
  <g id="axes_1">
   <g id="patch_2">
    <path d="M 84.914375 602.94 
L 567.863804 602.94 
L 567.863804 109.326857 
L 84.914375 109.326857 
z
" style="fill:none;"/>
   </g>
   <g id="matplotlib.axis_1">
    <g id="xtick_1">
     <g id="text_1">
      <!-- 0 -->
      <g style="fill:#262626;" transform="translate(99.648239 635.156562)scale(0.22 -0.22)">
       <defs>
        <path d="M 2034 4250 
Q 1547 4250 1301 3770 
Q 1056 3291 1056 2328 
Q 1056 1369 1301 889 
Q 1547 409 2034 409 
Q 2525 409 2770 889 
Q 3016 1369 3016 2328 
Q 3016 3291 2770 3770 
Q 2525 4250 2034 4250 
z
M 2034 4750 
Q 2819 4750 3233 4129 
Q 3647 3509 3647 2328 
Q 3647 1150 3233 529 
Q 2819 -91 2034 -91 
Q 1250 -91 836 529 
Q 422 1150 422 2328 
Q 422 3509 836 4129 
Q 1250 4750 2034 4750 
z
" id="DejaVuSans-30" transform="scale(0.015625)"/>
       </defs>
       <use xlink:href="#DejaVuSans-30"/>
      </g>
     </g>
    </g>
    <g id="xtick_2">
     <g id="text_2">
      <!-- 20000 -->
      <g style="fill:#262626;" transform="translate(159.506153 635.156562)scale(0.22 -0.22)">
       <defs>
        <path d="M 1228 531 
L 3431 531 
L 3431 0 
L 469 0 
L 469 531 
Q 828 903 1448 1529 
Q 2069 2156 2228 2338 
Q 2531 2678 2651 2914 
Q 2772 3150 2772 3378 
Q 2772 3750 2511 3984 
Q 2250 4219 1831 4219 
Q 1534 4219 1204 4116 
Q 875 4013 500 3803 
L 500 4441 
Q 881 4594 1212 4672 
Q 1544 4750 1819 4750 
Q 2544 4750 2975 4387 
Q 3406 4025 3406 3419 
Q 3406 3131 3298 2873 
Q 3191 2616 2906 2266 
Q 2828 2175 2409 1742 
Q 1991 1309 1228 531 
z
" id="DejaVuSans-32" transform="scale(0.015625)"/>
       </defs>
       <use xlink:href="#DejaVuSans-32"/>
       <use x="63.623047" xlink:href="#DejaVuSans-30"/>
       <use x="127.246094" xlink:href="#DejaVuSans-30"/>
       <use x="190.869141" xlink:href="#DejaVuSans-30"/>
       <use x="254.492188" xlink:href="#DejaVuSans-30"/>
      </g>
     </g>
    </g>
    <g id="xtick_3">
     <g id="text_3">
      <!-- 40000 -->
      <g style="fill:#262626;" transform="translate(247.359066 635.156562)scale(0.22 -0.22)">
       <defs>
        <path d="M 2419 4116 
L 825 1625 
L 2419 1625 
L 2419 4116 
z
M 2253 4666 
L 3047 4666 
L 3047 1625 
L 3713 1625 
L 3713 1100 
L 3047 1100 
L 3047 0 
L 2419 0 
L 2419 1100 
L 313 1100 
L 313 1709 
L 2253 4666 
z
" id="DejaVuSans-34" transform="scale(0.015625)"/>
       </defs>
       <use xlink:href="#DejaVuSans-34"/>
       <use x="63.623047" xlink:href="#DejaVuSans-30"/>
       <use x="127.246094" xlink:href="#DejaVuSans-30"/>
       <use x="190.869141" xlink:href="#DejaVuSans-30"/>
       <use x="254.492188" xlink:href="#DejaVuSans-30"/>
      </g>
     </g>
    </g>
    <g id="xtick_4">
     <g id="text_4">
      <!-- 60000 -->
      <g style="fill:#262626;" transform="translate(335.21198 635.156562)scale(0.22 -0.22)">
       <defs>
        <path d="M 2113 2584 
Q 1688 2584 1439 2293 
Q 1191 2003 1191 1497 
Q 1191 994 1439 701 
Q 1688 409 2113 409 
Q 2538 409 2786 701 
Q 3034 994 3034 1497 
Q 3034 2003 2786 2293 
Q 2538 2584 2113 2584 
z
M 3366 4563 
L 3366 3988 
Q 3128 4100 2886 4159 
Q 2644 4219 2406 4219 
Q 1781 4219 1451 3797 
Q 1122 3375 1075 2522 
Q 1259 2794 1537 2939 
Q 1816 3084 2150 3084 
Q 2853 3084 3261 2657 
Q 3669 2231 3669 1497 
Q 3669 778 3244 343 
Q 2819 -91 2113 -91 
Q 1303 -91 875 529 
Q 447 1150 447 2328 
Q 447 3434 972 4092 
Q 1497 4750 2381 4750 
Q 2619 4750 2861 4703 
Q 3103 4656 3366 4563 
z
" id="DejaVuSans-36" transform="scale(0.015625)"/>
       </defs>
       <use xlink:href="#DejaVuSans-36"/>
       <use x="63.623047" xlink:href="#DejaVuSans-30"/>
       <use x="127.246094" xlink:href="#DejaVuSans-30"/>
       <use x="190.869141" xlink:href="#DejaVuSans-30"/>
       <use x="254.492188" xlink:href="#DejaVuSans-30"/>
      </g>
     </g>
    </g>
    <g id="xtick_5">
     <g id="text_5">
      <!-- 80000 -->
      <g style="fill:#262626;" transform="translate(423.064893 635.156562)scale(0.22 -0.22)">
       <defs>
        <path d="M 2034 2216 
Q 1584 2216 1326 1975 
Q 1069 1734 1069 1313 
Q 1069 891 1326 650 
Q 1584 409 2034 409 
Q 2484 409 2743 651 
Q 3003 894 3003 1313 
Q 3003 1734 2745 1975 
Q 2488 2216 2034 2216 
z
M 1403 2484 
Q 997 2584 770 2862 
Q 544 3141 544 3541 
Q 544 4100 942 4425 
Q 1341 4750 2034 4750 
Q 2731 4750 3128 4425 
Q 3525 4100 3525 3541 
Q 3525 3141 3298 2862 
Q 3072 2584 2669 2484 
Q 3125 2378 3379 2068 
Q 3634 1759 3634 1313 
Q 3634 634 3220 271 
Q 2806 -91 2034 -91 
Q 1263 -91 848 271 
Q 434 634 434 1313 
Q 434 1759 690 2068 
Q 947 2378 1403 2484 
z
M 1172 3481 
Q 1172 3119 1398 2916 
Q 1625 2713 2034 2713 
Q 2441 2713 2670 2916 
Q 2900 3119 2900 3481 
Q 2900 3844 2670 4047 
Q 2441 4250 2034 4250 
Q 1625 4250 1398 4047 
Q 1172 3844 1172 3481 
z
" id="DejaVuSans-38" transform="scale(0.015625)"/>
       </defs>
       <use xlink:href="#DejaVuSans-38"/>
       <use x="63.623047" xlink:href="#DejaVuSans-30"/>
       <use x="127.246094" xlink:href="#DejaVuSans-30"/>
       <use x="190.869141" xlink:href="#DejaVuSans-30"/>
       <use x="254.492188" xlink:href="#DejaVuSans-30"/>
      </g>
     </g>
    </g>
    <g id="xtick_6">
     <g id="text_6">
      <!-- 100000 -->
      <g style="fill:#262626;" transform="translate(503.919057 635.156562)scale(0.22 -0.22)">
       <defs>
        <path d="M 794 531 
L 1825 531 
L 1825 4091 
L 703 3866 
L 703 4441 
L 1819 4666 
L 2450 4666 
L 2450 531 
L 3481 531 
L 3481 0 
L 794 0 
L 794 531 
z
" id="DejaVuSans-31" transform="scale(0.015625)"/>
       </defs>
       <use xlink:href="#DejaVuSans-31"/>
       <use x="63.623047" xlink:href="#DejaVuSans-30"/>
       <use x="127.246094" xlink:href="#DejaVuSans-30"/>
       <use x="190.869141" xlink:href="#DejaVuSans-30"/>
       <use x="254.492188" xlink:href="#DejaVuSans-30"/>
       <use x="318.115234" xlink:href="#DejaVuSans-30"/>
      </g>
     </g>
    </g>
    <g id="text_7">
     <!-- MDTU -->
     <g style="fill:#262626;" transform="translate(290.683464 661.968125)scale(0.24 -0.24)">
      <defs>
       <path d="M 628 4666 
L 1569 4666 
L 2759 1491 
L 3956 4666 
L 4897 4666 
L 4897 0 
L 4281 0 
L 4281 4097 
L 3078 897 
L 2444 897 
L 1241 4097 
L 1241 0 
L 628 0 
L 628 4666 
z
" id="DejaVuSans-4d" transform="scale(0.015625)"/>
       <path d="M 1259 4147 
L 1259 519 
L 2022 519 
Q 2988 519 3436 956 
Q 3884 1394 3884 2338 
Q 3884 3275 3436 3711 
Q 2988 4147 2022 4147 
L 1259 4147 
z
M 628 4666 
L 1925 4666 
Q 3281 4666 3915 4102 
Q 4550 3538 4550 2338 
Q 4550 1131 3912 565 
Q 3275 0 1925 0 
L 628 0 
L 628 4666 
z
" id="DejaVuSans-44" transform="scale(0.015625)"/>
       <path d="M -19 4666 
L 3928 4666 
L 3928 4134 
L 2272 4134 
L 2272 0 
L 1638 0 
L 1638 4134 
L -19 4134 
L -19 4666 
z
" id="DejaVuSans-54" transform="scale(0.015625)"/>
       <path d="M 556 4666 
L 1191 4666 
L 1191 1831 
Q 1191 1081 1462 751 
Q 1734 422 2344 422 
Q 2950 422 3222 751 
Q 3494 1081 3494 1831 
L 3494 4666 
L 4128 4666 
L 4128 1753 
Q 4128 841 3676 375 
Q 3225 -91 2344 -91 
Q 1459 -91 1007 375 
Q 556 841 556 1753 
L 556 4666 
z
" id="DejaVuSans-55" transform="scale(0.015625)"/>
      </defs>
      <use xlink:href="#DejaVuSans-4d"/>
      <use x="86.279297" xlink:href="#DejaVuSans-44"/>
      <use x="163.28125" xlink:href="#DejaVuSans-54"/>
      <use x="224.365234" xlink:href="#DejaVuSans-55"/>
     </g>
    </g>
   </g>
   <g id="matplotlib.axis_2">
    <g id="ytick_1">
     <g id="text_8">
      <!-- 0.6 -->
      <g style="fill:#262626;" transform="translate(34.4275 577.982651)scale(0.22 -0.22)">
       <defs>
        <path d="M 684 794 
L 1344 794 
L 1344 0 
L 684 0 
L 684 794 
z
" id="DejaVuSans-2e" transform="scale(0.015625)"/>
       </defs>
       <use xlink:href="#DejaVuSans-30"/>
       <use x="63.623047" xlink:href="#DejaVuSans-2e"/>
       <use x="95.410156" xlink:href="#DejaVuSans-36"/>
      </g>
     </g>
    </g>
    <g id="ytick_2">
     <g id="text_9">
      <!-- 0.7 -->
      <g style="fill:#262626;" transform="translate(34.4275 488.307682)scale(0.22 -0.22)">
       <defs>
        <path d="M 525 4666 
L 3525 4666 
L 3525 4397 
L 1831 0 
L 1172 0 
L 2766 4134 
L 525 4134 
L 525 4666 
z
" id="DejaVuSans-37" transform="scale(0.015625)"/>
       </defs>
       <use xlink:href="#DejaVuSans-30"/>
       <use x="63.623047" xlink:href="#DejaVuSans-2e"/>
       <use x="95.410156" xlink:href="#DejaVuSans-37"/>
      </g>
     </g>
    </g>
    <g id="ytick_3">
     <g id="text_10">
      <!-- 0.8 -->
      <g style="fill:#262626;" transform="translate(34.4275 398.632713)scale(0.22 -0.22)">
       <use xlink:href="#DejaVuSans-30"/>
       <use x="63.623047" xlink:href="#DejaVuSans-2e"/>
       <use x="95.410156" xlink:href="#DejaVuSans-38"/>
      </g>
     </g>
    </g>
    <g id="ytick_4">
     <g id="text_11">
      <!-- 0.9 -->
      <g style="fill:#262626;" transform="translate(34.4275 308.957743)scale(0.22 -0.22)">
       <defs>
        <path d="M 703 97 
L 703 672 
Q 941 559 1184 500 
Q 1428 441 1663 441 
Q 2288 441 2617 861 
Q 2947 1281 2994 2138 
Q 2813 1869 2534 1725 
Q 2256 1581 1919 1581 
Q 1219 1581 811 2004 
Q 403 2428 403 3163 
Q 403 3881 828 4315 
Q 1253 4750 1959 4750 
Q 2769 4750 3195 4129 
Q 3622 3509 3622 2328 
Q 3622 1225 3098 567 
Q 2575 -91 1691 -91 
Q 1453 -91 1209 -44 
Q 966 3 703 97 
z
M 1959 2075 
Q 2384 2075 2632 2365 
Q 2881 2656 2881 3163 
Q 2881 3666 2632 3958 
Q 2384 4250 1959 4250 
Q 1534 4250 1286 3958 
Q 1038 3666 1038 3163 
Q 1038 2656 1286 2365 
Q 1534 2075 1959 2075 
z
" id="DejaVuSans-39" transform="scale(0.015625)"/>
       </defs>
       <use xlink:href="#DejaVuSans-30"/>
       <use x="63.623047" xlink:href="#DejaVuSans-2e"/>
       <use x="95.410156" xlink:href="#DejaVuSans-39"/>
      </g>
     </g>
    </g>
    <g id="ytick_5">
     <g id="text_12">
      <!-- 1.0 -->
      <g style="fill:#262626;" transform="translate(34.4275 219.282774)scale(0.22 -0.22)">
       <use xlink:href="#DejaVuSans-31"/>
       <use x="63.623047" xlink:href="#DejaVuSans-2e"/>
       <use x="95.410156" xlink:href="#DejaVuSans-30"/>
      </g>
     </g>
    </g>
    <g id="ytick_6">
     <g id="text_13">
      <!-- 1.1 -->
      <g style="fill:#262626;" transform="translate(34.4275 129.607805)scale(0.22 -0.22)">
       <use xlink:href="#DejaVuSans-31"/>
       <use x="63.623047" xlink:href="#DejaVuSans-2e"/>
       <use x="95.410156" xlink:href="#DejaVuSans-31"/>
      </g>
     </g>
    </g>
    <g id="text_14">
     <!-- $E$ -->
     <g style="fill:#262626;" transform="translate(25.43625 363.813429)rotate(-90)scale(0.24 -0.24)">
      <defs>
       <path d="M 1081 4666 
L 4031 4666 
L 3928 4134 
L 1606 4134 
L 1338 2753 
L 3566 2753 
L 3463 2222 
L 1234 2222 
L 909 531 
L 3284 531 
L 3181 0 
L 172 0 
L 1081 4666 
z
" id="DejaVuSans-Oblique-45" transform="scale(0.015625)"/>
      </defs>
      <use transform="translate(0 0.09375)" xlink:href="#DejaVuSans-Oblique-45"/>
     </g>
    </g>
   </g>
   <g id="line2d_1">
    <path clip-path="url(#p067596d717)" d="M 106.866622 485.081046 
L 107.086254 390.801271 
L 107.305886 440.92689 
L 107.525519 353.891883 
L 107.745151 359.734532 
L 107.964783 547.623143 
L 108.184415 445.143292 
L 108.404048 413.672925 
L 108.843312 241.75191 
L 109.062945 475.857595 
L 109.282577 349.9107 
L 109.502209 437.749852 
L 109.721841 363.098544 
L 109.941474 411.931139 
L 110.161106 403.255149 
L 110.380738 457.089166 
L 110.820003 316.51175 
L 111.039635 377.067066 
L 111.259267 332.455091 
L 111.4789 359.221893 
L 111.698532 478.352763 
L 112.137797 297.537807 
L 112.357429 429.354788 
L 112.577061 403.881435 
L 112.796693 523.071107 
L 113.016326 406.211625 
L 113.235958 497.99845 
L 113.45559 362.623546 
L 113.675223 364.834399 
L 113.894855 432.101151 
L 114.114487 363.138219 
L 114.334119 463.895901 
L 114.553752 431.2842 
L 114.773384 371.293187 
L 114.993016 353.618925 
L 115.212649 362.000268 
L 115.432281 497.714362 
L 115.651913 438.132523 
L 115.871545 304.992112 
L 116.091178 320.803719 
L 116.31081 487.267701 
L 116.530442 433.123657 
L 116.750075 512.079102 
L 116.969707 432.592696 
L 117.189339 441.109907 
L 117.628604 336.315503 
L 117.848236 419.385615 
L 118.067868 440.255078 
L 118.287501 526.052996 
L 118.507133 475.996774 
L 119.16603 429.128468 
L 119.385662 451.526663 
L 119.605294 433.894728 
L 119.824926 371.676519 
L 120.264191 450.167465 
L 120.483823 387.067078 
L 120.703456 260.218289 
L 120.923088 474.883344 
L 121.14272 279.271287 
L 121.362352 412.775348 
L 121.581985 326.643832 
L 121.801617 411.977952 
L 122.021249 284.382145 
L 122.240882 558.703441 
L 122.460514 362.532521 
L 122.680146 269.404085 
L 122.899778 309.575872 
L 123.119411 390.379613 
L 123.558675 480.350067 
L 123.778308 373.512642 
L 123.99794 488.939978 
L 124.217572 465.68388 
L 124.437204 354.255452 
L 124.656837 382.588904 
L 124.876469 356.650942 
L 125.096101 433.005102 
L 125.535366 354.012437 
L 125.754998 386.483795 
L 125.97463 556.510578 
L 126.194263 377.353393 
L 126.413895 431.759339 
L 126.633527 379.103943 
L 126.85316 492.172878 
L 127.072792 402.885862 
L 127.292424 466.858629 
L 127.512056 282.053704 
L 127.731689 391.553926 
L 128.170953 494.727279 
L 128.390586 504.535709 
L 128.82985 388.959091 
L 129.269115 482.932542 
L 129.488747 418.985505 
L 129.708379 517.820407 
L 129.928012 334.648779 
L 130.147644 453.335198 
L 130.367276 390.450027 
L 130.586908 469.309517 
L 130.806541 353.327307 
L 131.026173 479.031279 
L 131.245805 368.768109 
L 131.465438 368.739659 
L 131.68507 472.746857 
L 131.904702 277.800939 
L 132.343967 524.711845 
L 132.563599 327.053252 
L 132.783231 302.418319 
L 133.002864 331.601144 
L 133.222496 471.305852 
L 133.442128 448.365788 
L 133.66176 270.096005 
L 133.881393 464.449609 
L 134.101025 284.412189 
L 134.320657 251.642629 
L 134.540289 374.986161 
L 134.759922 392.194786 
L 134.979554 349.213014 
L 135.199186 486.586034 
L 135.418819 413.720902 
L 135.638451 400.709736 
L 135.858083 281.095816 
L 136.077715 385.0842 
L 136.51698 429.716128 
L 136.736612 441.61687 
L 136.956245 431.0168 
L 137.175877 429.060028 
L 137.395509 377.588506 
L 137.834774 530.386726 
L 138.054406 463.507453 
L 138.274038 504.347892 
L 138.493671 497.508708 
L 138.713303 416.084 
L 138.932935 395.907556 
L 139.152567 430.974927 
L 139.3722 324.395883 
L 139.591832 492.840904 
L 139.811464 425.960869 
L 140.031097 393.508232 
L 140.250729 412.690543 
L 140.470361 498.243164 
L 140.689993 387.667999 
L 140.909626 542.280834 
L 141.129258 501.233783 
L 141.34889 496.777039 
L 141.568523 517.628128 
L 141.788155 410.866036 
L 142.007787 432.376179 
L 142.227419 442.062863 
L 142.447052 437.290125 
L 142.666684 350.366603 
L 142.886316 414.249509 
L 143.105949 313.331951 
L 143.325581 422.68593 
L 143.545213 472.44121 
L 143.764845 346.683914 
L 143.984478 401.316889 
L 144.20411 377.722525 
L 144.423742 425.059409 
L 144.643375 272.381502 
L 144.863007 397.188886 
L 145.082639 311.96395 
L 145.302271 501.838197 
L 145.521904 308.759775 
L 145.961168 477.018808 
L 146.180801 366.419524 
L 146.400433 417.24086 
L 146.620065 414.288836 
L 146.839697 368.224423 
L 147.05933 465.377317 
L 147.278962 476.026079 
L 147.498594 413.029827 
L 147.718227 295.002097 
L 147.937859 395.542104 
L 148.157491 308.890103 
L 148.377123 361.626367 
L 148.596756 475.318088 
L 148.816388 432.498994 
L 149.03602 309.359526 
L 149.255653 353.928775 
L 149.475285 351.605244 
L 149.694917 276.488065 
L 149.914549 480.29771 
L 150.134182 537.28349 
L 150.353814 361.17987 
L 150.573446 302.931961 
L 150.793078 377.203439 
L 151.012711 358.792504 
L 151.451975 474.965653 
L 151.671608 500.023089 
L 151.89124 373.242819 
L 152.110872 387.369721 
L 152.330504 375.110447 
L 152.550137 304.509756 
L 152.769769 520.253708 
L 152.989401 521.241616 
L 153.428666 395.033745 
L 153.648298 393.030231 
L 153.86793 436.163111 
L 154.087563 330.270966 
L 154.307195 416.188389 
L 154.526827 342.090533 
L 154.74646 470.025801 
L 154.966092 378.638632 
L 155.185724 486.404609 
L 155.624989 410.170062 
L 155.844621 485.89812 
L 156.064253 507.813988 
L 156.283886 358.941662 
L 156.503518 528.715455 
L 156.72315 403.122599 
L 156.942782 347.387469 
L 157.162415 534.659073 
L 157.382047 345.298441 
L 157.821312 442.720567 
L 158.040944 357.309177 
L 158.260576 363.493699 
L 158.480208 334.795973 
L 158.699841 422.193892 
L 158.919473 463.650523 
L 159.139105 439.549586 
L 159.358738 320.93001 
L 159.57837 529.733405 
L 159.798002 420.610653 
L 160.017634 459.621007 
L 160.237267 318.008068 
L 160.456899 412.715657 
L 160.676531 418.112428 
L 161.115796 468.446305 
L 161.335428 410.614163 
L 161.55506 316.392374 
L 161.774693 319.419528 
L 161.994325 331.427958 
L 162.213957 470.993233 
L 163.312119 341.352 
L 163.531751 474.533082 
L 163.751383 453.648627 
L 163.971016 468.603736 
L 164.190648 362.79485 
L 164.41028 404.998943 
L 164.629912 371.007192 
L 164.849545 307.045152 
L 165.069177 534.445245 
L 165.288809 261.865519 
L 165.508441 402.80329 
L 165.728074 466.779961 
L 166.386971 397.663637 
L 166.606603 392.371824 
L 166.826235 551.582021 
L 167.2655 388.034646 
L 167.485132 346.12682 
L 167.704764 468.0753 
L 167.924397 461.92591 
L 168.144029 422.71105 
L 168.363661 505.685777 
L 168.583293 533.255915 
L 169.022558 278.904325 
L 169.24219 513.633579 
L 169.461823 324.11442 
L 169.681455 332.434225 
L 170.120719 496.914983 
L 170.340352 440.340809 
L 170.559984 414.808909 
L 170.779616 558.406198 
L 170.999249 292.637415 
L 171.438513 325.501266 
L 171.658145 241.216149 
L 171.877778 415.585641 
L 172.09741 425.210538 
L 172.317042 392.024311 
L 172.536675 506.679462 
L 172.756307 502.880511 
L 172.975939 512.986073 
L 173.195571 432.445932 
L 173.415204 442.826328 
L 173.634836 442.448077 
L 173.854468 454.746534 
L 174.074101 442.618047 
L 174.293733 506.385445 
L 174.513365 504.536927 
L 174.732997 431.824385 
L 174.95263 305.636404 
L 175.391894 442.178996 
L 175.611527 287.645053 
L 175.831159 478.806348 
L 176.050791 484.627633 
L 176.270423 395.987393 
L 176.490056 417.747681 
L 176.709688 331.514404 
L 176.92932 421.507916 
L 177.148953 318.468436 
L 177.368585 298.213167 
L 178.027482 447.113902 
L 178.247114 432.647306 
L 178.466746 331.617929 
L 178.686379 324.088003 
L 178.906011 270.740439 
L 179.125643 439.436752 
L 179.345275 422.02981 
L 179.564908 429.705014 
L 179.78454 363.775089 
L 180.004172 435.068357 
L 180.223805 454.42096 
L 180.443437 348.804938 
L 180.882701 401.594639 
L 181.102334 515.007465 
L 181.321966 391.260174 
L 181.541598 439.478813 
L 181.980863 327.160895 
L 182.200495 528.289795 
L 182.420127 521.476637 
L 183.079024 378.338056 
L 183.298656 404.766731 
L 183.737921 538.003379 
L 183.957553 346.792887 
L 184.396818 433.466835 
L 184.61645 446.375629 
L 184.836082 429.187031 
L 185.055715 381.929432 
L 185.275347 414.568567 
L 185.494979 339.121796 
L 185.714612 305.788552 
L 185.934244 437.784856 
L 186.153876 416.922861 
L 186.373508 341.289417 
L 186.593141 339.744378 
L 186.812773 365.055302 
L 187.032405 466.954954 
L 187.47167 358.185247 
L 187.691302 420.734235 
L 187.910934 399.129781 
L 188.130567 473.110862 
L 188.350199 372.925315 
L 188.569831 342.140012 
L 188.789464 515.245367 
L 189.009096 379.76702 
L 189.44836 469.508364 
L 189.667993 403.823363 
L 189.887625 388.336551 
L 190.107257 443.384122 
L 190.32689 415.915122 
L 190.985786 308.480334 
L 191.205419 323.470532 
L 191.425051 367.488768 
L 191.644683 487.311452 
L 192.083948 358.072939 
L 192.30358 443.595807 
L 192.523212 428.44277 
L 192.742845 459.412889 
L 192.962477 305.864806 
L 193.182109 432.7559 
L 193.401742 326.128839 
L 193.621374 525.856385 
L 193.841006 415.822794 
L 194.060638 512.361618 
L 194.280271 457.829386 
L 194.499903 514.438581 
L 194.719535 529.661846 
L 194.939168 310.288234 
L 195.1588 435.460811 
L 195.378432 393.356247 
L 195.598064 487.676018 
L 195.817697 349.223815 
L 196.256961 478.19623 
L 196.476593 357.04153 
L 196.696226 370.89157 
L 196.915858 470.722463 
L 197.13549 458.693344 
L 197.355123 381.905465 
L 197.574755 490.681504 
L 197.794387 410.254386 
L 198.014019 531.522258 
L 198.453284 381.238138 
L 198.892549 341.904579 
L 199.331813 488.836763 
L 199.551445 316.011142 
L 199.771078 329.941614 
L 199.99071 442.684286 
L 200.210342 276.032228 
L 200.429975 480.957315 
L 200.649607 368.744652 
L 200.869239 388.019679 
L 201.088871 540.66525 
L 201.308504 399.442205 
L 201.528136 497.230975 
L 201.747768 447.448716 
L 201.967401 481.494766 
L 202.187033 413.96167 
L 202.406665 443.822628 
L 202.626297 445.198352 
L 202.84593 403.804553 
L 203.285194 374.283548 
L 203.504827 379.755088 
L 203.724459 352.258541 
L 203.944091 448.175868 
L 204.163723 467.445794 
L 204.383356 420.161915 
L 204.602988 131.763818 
L 204.82262 367.482227 
L 205.042253 440.585275 
L 205.261885 345.974658 
L 205.481517 359.032764 
L 205.701149 490.461256 
L 205.920782 188.763835 
L 206.140414 408.660786 
L 206.360046 370.324631 
L 206.579679 277.439246 
L 207.018943 542.958131 
L 207.67784 373.278975 
L 207.897472 434.087475 
L 208.117105 418.619157 
L 208.336737 394.662898 
L 208.776001 561.269712 
L 208.995634 430.260974 
L 209.215266 372.604459 
L 209.654531 451.695155 
L 210.093795 383.449504 
L 210.313427 439.550041 
L 210.53306 390.556235 
L 210.752692 394.282717 
L 211.191956 242.217915 
L 211.631221 483.500598 
L 212.070486 391.354374 
L 212.290118 485.873955 
L 212.50975 371.752239 
L 212.729382 423.908952 
L 212.949015 420.532084 
L 213.168647 311.573177 
L 213.388279 320.77562 
L 213.607912 558.059541 
L 213.827544 331.574105 
L 214.047176 288.399572 
L 214.266808 472.183816 
L 214.486441 312.198442 
L 214.925705 487.555014 
L 215.36497 309.079238 
L 215.584602 475.524971 
L 216.023867 397.522228 
L 216.243499 520.959389 
L 216.463131 338.996705 
L 216.682764 352.158758 
L 216.902396 555.115464 
L 217.122028 329.180474 
L 217.34166 355.591861 
L 217.561293 443.229169 
L 217.780925 467.937918 
L 218.000557 312.387873 
L 218.439822 471.898248 
L 218.659454 366.90963 
L 218.879086 458.186579 
L 219.098719 358.821403 
L 219.318351 449.736049 
L 219.757616 315.936352 
L 219.977248 441.20897 
L 220.19688 259.171503 
L 220.416512 457.307594 
L 220.636145 543.263691 
L 220.855777 412.896166 
L 221.075409 411.767661 
L 221.295042 497.931998 
L 221.514674 353.132579 
L 221.734306 542.288869 
L 221.953938 341.673211 
L 222.173571 449.535417 
L 222.393203 446.831328 
L 222.612835 454.144489 
L 222.832468 326.805319 
L 223.0521 549.121051 
L 223.271732 362.529978 
L 223.491364 574.960481 
L 223.710997 466.607731 
L 223.930629 506.06394 
L 224.150261 384.537487 
L 224.369894 389.897948 
L 224.589526 506.475383 
L 224.809158 551.268802 
L 225.02879 351.65502 
L 225.248423 387.12541 
L 225.468055 456.634674 
L 225.687687 562.655358 
L 225.90732 369.922573 
L 226.126952 523.296626 
L 226.346584 472.500545 
L 226.566216 517.425824 
L 226.785849 465.415793 
L 227.005481 301.733789 
L 227.225113 470.34696 
L 227.444745 461.709465 
L 227.664378 548.757233 
L 228.103642 396.242851 
L 228.323275 372.021559 
L 228.542907 499.164963 
L 228.982171 308.770809 
L 229.201804 405.792746 
L 229.421436 363.277109 
L 229.641068 251.782195 
L 229.860701 513.972948 
L 230.080333 461.424223 
L 230.299965 350.745513 
L 230.519597 529.761663 
L 230.73923 409.590377 
L 230.958862 489.088429 
L 231.178494 444.811366 
L 231.398127 477.549093 
L 231.837391 393.357949 
L 232.057023 472.773717 
L 232.276656 377.638876 
L 232.71592 452.74838 
L 232.935553 379.03917 
L 233.155185 502.741411 
L 233.374817 319.197364 
L 233.594449 455.266884 
L 233.814082 416.90281 
L 234.033714 424.653436 
L 234.253346 360.569032 
L 234.472979 411.189129 
L 234.692611 512.360594 
L 234.912243 489.436568 
L 235.131875 368.201704 
L 235.351508 441.777581 
L 235.57114 335.191432 
L 235.790772 415.89052 
L 236.010405 385.462795 
L 236.230037 414.471585 
L 236.449669 383.138803 
L 236.669301 438.886025 
L 236.888934 373.918626 
L 237.108566 485.979782 
L 237.328198 420.381144 
L 237.547831 436.926417 
L 237.767463 388.899479 
L 237.987095 502.431455 
L 238.206727 403.111542 
L 238.42636 423.1665 
L 238.645992 392.586404 
L 238.865624 417.896598 
L 239.304889 356.169055 
L 239.524521 360.238058 
L 239.963786 427.3812 
L 240.183418 351.714206 
L 240.40305 471.916859 
L 240.622683 340.097926 
L 240.842315 485.985165 
L 241.061947 493.561049 
L 241.501212 353.152921 
L 241.720844 360.824213 
L 241.940476 443.594451 
L 242.160108 441.038331 
L 242.379741 304.561842 
L 242.599373 509.845353 
L 242.819005 514.094623 
L 243.25827 433.658101 
L 243.477902 433.158877 
L 243.697534 334.991226 
L 243.917167 509.892217 
L 244.136799 466.730954 
L 244.356431 326.906508 
L 244.795696 541.063125 
L 245.015328 532.477822 
L 245.23496 401.050726 
L 245.454593 382.619588 
L 245.674225 378.411105 
L 245.893857 327.200972 
L 246.11349 453.979675 
L 246.333122 288.863896 
L 246.772386 498.67271 
L 246.992019 345.533202 
L 247.211651 383.377858 
L 247.431283 458.727078 
L 247.650916 464.793638 
L 247.870548 466.972458 
L 248.09018 294.672085 
L 248.309812 497.183539 
L 248.529445 365.850944 
L 248.749077 445.353174 
L 248.968709 348.996185 
L 249.188342 451.934014 
L 249.407974 420.843725 
L 249.627606 324.215718 
L 249.847238 358.678918 
L 250.066871 355.17081 
L 250.506135 538.545504 
L 250.725768 501.911029 
L 250.9454 413.7752 
L 251.165032 414.179342 
L 251.384664 332.484369 
L 251.604297 497.212096 
L 251.823929 500.197198 
L 252.263194 353.442502 
L 252.482826 452.997497 
L 252.702458 409.419557 
L 253.141723 542.075696 
L 253.361355 329.900393 
L 253.580987 474.228785 
L 253.80062 381.548427 
L 254.020252 509.068815 
L 254.459516 443.490931 
L 254.679149 227.625734 
L 254.898781 511.634577 
L 255.118413 580.503039 
L 255.557678 260.596868 
L 255.77731 310.302667 
L 256.216575 491.875872 
L 256.436207 460.349221 
L 256.655839 552.795674 
L 256.875472 513.049359 
L 257.095104 327.323367 
L 257.314736 484.612084 
L 257.534368 462.260362 
L 257.754001 369.905454 
L 257.973633 467.371593 
L 258.193265 398.856653 
L 258.412897 277.607854 
L 258.63253 432.890244 
L 258.852162 431.06065 
L 259.071794 491.809739 
L 259.291427 505.956691 
L 259.511059 271.690201 
L 259.730691 409.104163 
L 259.950323 369.770781 
L 260.169956 424.96191 
L 260.389588 332.448227 
L 260.60922 410.222976 
L 260.828853 341.836017 
L 261.048485 236.145912 
L 261.268117 404.37717 
L 261.487749 370.443301 
L 261.707382 361.733245 
L 261.927014 341.418674 
L 262.146646 443.507313 
L 262.366279 425.03888 
L 262.585911 543.176103 
L 263.025175 379.355091 
L 263.244808 424.676625 
L 263.46444 429.960903 
L 263.684072 412.924314 
L 263.903705 473.907856 
L 264.123337 495.660636 
L 264.342969 564.396732 
L 265.001866 399.094934 
L 265.221498 404.391795 
L 265.441131 438.688632 
L 265.660763 519.073638 
L 265.880395 422.20758 
L 266.100027 472.305078 
L 266.539292 269.183159 
L 267.198189 550.041774 
L 267.417821 513.869194 
L 267.637453 541.617402 
L 267.857086 421.428465 
L 268.076718 441.375728 
L 268.29635 406.32892 
L 268.515983 493.101437 
L 268.735615 267.640089 
L 268.955247 387.915894 
L 269.174879 388.358124 
L 269.394512 460.353256 
L 269.614144 429.044455 
L 269.833776 494.252669 
L 270.053409 194.320573 
L 270.273041 405.92883 
L 270.492673 303.00643 
L 270.712305 400.698406 
L 271.15157 493.669364 
L 271.371202 435.76516 
L 271.590835 502.852552 
L 271.810467 366.893697 
L 272.030099 423.69893 
L 272.249731 323.192797 
L 272.469364 311.174607 
L 272.688996 437.123327 
L 273.12826 503.695253 
L 273.347893 202.683533 
L 273.787157 435.432678 
L 274.00679 455.39133 
L 274.226422 508.77535 
L 274.446054 476.041883 
L 274.665686 367.19321 
L 274.885319 373.10398 
L 275.104951 409.786919 
L 275.324583 418.324935 
L 275.544216 227.78913 
L 275.763848 537.760232 
L 275.98348 420.56266 
L 276.203112 487.138418 
L 276.422745 380.040555 
L 276.642377 406.990942 
L 276.862009 496.760673 
L 277.081642 459.500399 
L 277.520906 275.842883 
L 277.740538 335.021638 
L 277.960171 446.75277 
L 278.179803 431.399585 
L 278.399435 347.549316 
L 278.619068 452.95736 
L 279.058332 501.03806 
L 279.277964 372.425397 
L 279.497597 466.280397 
L 279.936861 266.736745 
L 280.156494 296.369973 
L 280.376126 416.825957 
L 280.595758 475.681726 
L 280.81539 368.826516 
L 281.035023 486.037882 
L 281.254655 284.662275 
L 281.474287 445.90571 
L 281.69392 431.46259 
L 281.913552 460.340517 
L 282.133184 406.344859 
L 282.352816 463.708449 
L 282.572449 446.79506 
L 282.792081 393.268482 
L 283.231346 510.846824 
L 283.450978 464.563765 
L 283.67061 371.817815 
L 283.890242 454.455347 
L 284.109875 438.953372 
L 284.329507 381.476174 
L 284.549139 242.496853 
L 284.768772 355.540037 
L 284.988404 399.769061 
L 285.208036 383.713323 
L 285.427668 313.536851 
L 285.866933 472.408027 
L 286.086565 358.676733 
L 286.306198 464.878227 
L 286.52583 357.081397 
L 286.745462 489.538135 
L 286.965094 397.387308 
L 287.184727 477.362687 
L 287.404359 351.252857 
L 287.623991 465.601093 
L 287.843624 340.292556 
L 288.063256 464.011187 
L 288.282888 393.975617 
L 288.50252 375.309442 
L 288.722153 261.042958 
L 288.941785 405.384265 
L 289.161417 296.037833 
L 289.600682 512.176828 
L 289.820314 430.932295 
L 290.039946 430.457553 
L 290.259579 484.994245 
L 290.479211 310.534969 
L 290.918475 454.106915 
L 291.138108 464.116245 
L 291.35774 497.446312 
L 291.577372 400.836596 
L 291.797005 361.403692 
L 292.016637 501.460566 
L 292.455901 318.286297 
L 292.675534 464.851687 
L 292.895166 475.651571 
L 293.114798 463.209697 
L 293.334431 183.063079 
L 293.554063 403.650344 
L 293.773695 378.295928 
L 293.993327 452.862709 
L 294.21296 408.991109 
L 294.432592 415.944313 
L 294.652224 372.491889 
L 294.871857 427.737915 
L 295.091489 366.276263 
L 295.311121 353.736968 
L 295.530753 428.469844 
L 295.750386 380.573217 
L 295.970018 471.943862 
L 296.18965 384.200049 
L 296.409283 413.034876 
L 296.848547 442.094046 
L 297.068179 342.603286 
L 297.287812 387.611003 
L 297.507444 401.951579 
L 297.727076 556.480177 
L 297.946709 407.344047 
L 298.166341 436.256104 
L 298.385973 404.832468 
L 298.605605 329.71449 
L 299.04487 429.61354 
L 299.264502 396.038107 
L 299.484135 397.083303 
L 299.703767 409.527592 
L 300.143031 369.321823 
L 300.362664 378.08315 
L 300.582296 470.818304 
L 300.801928 372.525221 
L 301.021561 527.033975 
L 301.241193 484.095249 
L 301.460825 319.083826 
L 301.680457 383.973973 
L 301.90009 358.873561 
L 302.119722 371.324412 
L 302.339354 457.352245 
L 302.558987 418.403924 
L 302.778619 405.156486 
L 302.998251 349.627517 
L 303.217883 403.449359 
L 303.437516 369.202328 
L 303.657148 412.847777 
L 303.87678 326.633473 
L 304.096412 370.138245 
L 304.316045 465.262909 
L 304.535677 443.215162 
L 304.755309 248.309683 
L 304.974942 510.499751 
L 305.194574 400.035014 
L 305.414206 365.357526 
L 305.633838 465.588311 
L 305.853471 426.398307 
L 306.073103 447.322202 
L 306.292735 394.222062 
L 306.512368 412.745405 
L 306.732 405.725896 
L 306.951632 490.944892 
L 307.171264 360.165351 
L 307.390897 336.505304 
L 307.610529 455.868377 
L 307.830161 306.306435 
L 308.049794 426.928563 
L 308.489058 317.126956 
L 308.70869 397.966684 
L 308.928323 428.823761 
L 309.147955 418.722816 
L 309.367587 385.471516 
L 309.58722 458.870623 
L 309.806852 359.039293 
L 310.026484 531.088587 
L 310.246116 349.992634 
L 310.465749 521.78739 
L 310.685381 395.858593 
L 310.905013 487.354117 
L 311.124646 507.345351 
L 311.56391 435.905835 
L 311.783542 307.205987 
L 312.003175 397.504168 
L 312.222807 539.606126 
L 312.442439 488.247401 
L 312.662072 536.156263 
L 312.881704 475.757153 
L 313.101336 473.255305 
L 313.320968 452.055419 
L 313.540601 341.352709 
L 313.760233 301.117771 
L 314.199498 446.985927 
L 314.41913 364.93781 
L 314.638762 428.319774 
L 314.858394 433.025362 
L 315.078027 403.900784 
L 315.297659 422.021694 
L 315.517291 356.375161 
L 315.736924 533.103359 
L 315.956556 439.859456 
L 316.176188 567.387316 
L 316.39582 363.634433 
L 316.615453 375.999899 
L 316.835085 285.40103 
L 317.054717 444.999605 
L 317.27435 408.906681 
L 317.493982 416.52513 
L 317.713614 354.668129 
L 318.372511 573.981196 
L 318.592143 439.870231 
L 318.811775 394.197451 
L 319.031408 172.435481 
L 319.25104 443.291954 
L 319.470672 448.871524 
L 319.690305 435.0456 
L 319.909937 446.826281 
L 320.129569 400.395892 
L 320.349201 531.162746 
L 320.568834 351.570883 
L 320.788466 431.819348 
L 321.008098 429.528587 
L 321.227731 376.944295 
L 321.447363 446.378388 
L 321.666995 287.062255 
L 321.886627 448.866319 
L 322.10626 518.766749 
L 322.765157 451.115107 
L 322.984789 475.582593 
L 323.204421 525.276168 
L 323.424053 288.939441 
L 323.643686 510.238648 
L 324.08295 288.127967 
L 324.302583 548.460288 
L 324.522215 472.256743 
L 324.741847 560.387801 
L 324.961479 415.037516 
L 325.181112 459.383457 
L 325.400744 448.43791 
L 325.620376 467.096033 
L 325.840009 399.779904 
L 326.059641 469.627837 
L 326.279273 383.84852 
L 326.498905 405.565385 
L 326.718538 452.827095 
L 326.93817 390.680835 
L 327.157802 398.253275 
L 327.377435 434.179043 
L 327.597067 386.580547 
L 327.816699 446.667956 
L 328.036331 279.282774 
L 328.255964 439.759883 
L 328.475596 441.526193 
L 328.695228 497.932445 
L 328.914861 353.781802 
L 329.134493 317.057646 
L 329.354125 378.447629 
L 329.573757 355.471704 
L 329.79339 284.224428 
L 330.013022 475.475779 
L 330.232654 436.869641 
L 330.452287 486.24328 
L 330.671919 500.824573 
L 330.891551 333.948042 
L 331.111183 455.9319 
L 331.330816 306.690029 
L 331.550448 418.059707 
L 331.77008 395.714515 
L 331.989713 468.9448 
L 332.428977 304.870013 
L 332.648609 379.252271 
L 332.868242 379.933217 
L 333.087874 456.534777 
L 333.307506 476.678892 
L 333.527139 437.716848 
L 333.746771 445.542721 
L 333.966403 329.445585 
L 334.186035 362.9192 
L 334.405668 246.837787 
L 334.6253 506.439692 
L 334.844932 433.769129 
L 335.064564 262.045584 
L 335.503829 369.200095 
L 335.723461 357.572609 
L 335.943094 304.043932 
L 336.162726 548.737753 
L 336.382358 489.15657 
L 336.60199 228.070074 
L 336.821623 497.874937 
L 337.041255 541.846016 
L 337.260887 432.144846 
L 337.48052 387.081967 
L 337.700152 519.779018 
L 337.919784 442.030018 
L 338.139416 475.632551 
L 338.359049 379.245577 
L 338.578681 431.012343 
L 338.798313 413.739431 
L 339.017946 434.935768 
L 339.237578 371.810601 
L 339.45721 353.499772 
L 339.676842 352.707142 
L 339.896475 296.35917 
L 340.116107 308.267776 
L 340.335739 378.997288 
L 340.555372 271.865898 
L 340.775004 448.111333 
L 340.994636 367.186685 
L 341.214268 556.699334 
L 341.433901 356.105371 
L 341.653533 294.586766 
L 341.873165 299.723725 
L 342.092798 440.200146 
L 342.31243 497.266011 
L 342.532062 428.02589 
L 342.751694 404.599365 
L 342.971327 471.583649 
L 343.190959 405.276113 
L 343.410591 416.41056 
L 343.630224 362.934355 
L 343.849856 490.398915 
L 344.069488 415.944106 
L 344.28912 492.541181 
L 344.728385 435.732862 
L 344.948017 543.372292 
L 345.16765 408.773067 
L 345.387282 424.856561 
L 345.606914 404.660682 
L 345.826546 497.575601 
L 346.046179 464.192359 
L 346.265811 460.907831 
L 346.485443 358.125031 
L 346.705076 489.697045 
L 346.924708 471.021802 
L 347.14434 344.095673 
L 347.583605 440.466567 
L 347.803237 339.000833 
L 348.022869 453.590108 
L 348.242502 417.114602 
L 348.462134 502.575554 
L 348.681766 304.906401 
L 348.901398 402.312098 
L 349.121031 433.520268 
L 349.340663 297.453483 
L 349.779927 485.178164 
L 349.99956 454.038394 
L 350.219192 512.924273 
L 350.438824 441.18545 
L 350.658457 406.663209 
L 350.878089 400.029093 
L 351.097721 329.708528 
L 351.317353 467.717515 
L 351.756618 343.711483 
L 351.97625 390.0935 
L 352.195883 375.154524 
L 352.415515 488.913475 
L 352.635147 528.679121 
L 353.074412 394.93162 
L 353.294044 457.584417 
L 353.513676 461.992186 
L 353.733309 374.172292 
L 353.952941 404.231328 
L 354.172573 321.841218 
L 354.392205 418.839142 
L 354.611838 411.490442 
L 354.83147 378.869425 
L 355.270735 552.259629 
L 355.490367 476.64314 
L 355.709999 294.580544 
L 356.149264 534.995389 
L 356.588528 382.28374 
L 356.808161 514.276169 
L 357.027793 324.951919 
L 357.247425 471.900615 
L 357.467057 489.477972 
L 357.68669 366.107652 
L 357.906322 479.616877 
L 358.345587 354.795526 
L 358.565219 324.115177 
L 358.784851 398.666379 
L 359.004483 305.235373 
L 359.224116 477.574482 
L 359.443748 393.453229 
L 359.66338 419.257007 
L 359.883013 365.970695 
L 360.102645 538.374109 
L 360.322277 445.444881 
L 360.541909 471.994022 
L 360.761542 381.5164 
L 360.981174 484.947771 
L 361.200806 452.585036 
L 361.420439 347.663013 
L 361.859703 471.28167 
L 362.079335 406.766568 
L 362.298968 429.401144 
L 362.5186 402.530225 
L 362.738232 401.247319 
L 362.957865 373.331298 
L 363.177497 328.870915 
L 363.397129 343.547691 
L 363.616761 520.975391 
L 363.836394 333.45395 
L 364.056026 361.883816 
L 364.495291 444.591783 
L 364.714923 467.042592 
L 364.934555 403.783305 
L 365.154187 489.354422 
L 365.37382 481.602293 
L 365.593452 505.746834 
L 365.813084 308.371043 
L 366.032716 404.516762 
L 366.252349 330.568169 
L 366.471981 322.102864 
L 366.691613 536.414047 
L 367.130878 318.630536 
L 367.35051 359.269463 
L 367.570142 444.771299 
L 367.789775 418.210415 
L 368.009407 409.551687 
L 368.229039 352.501132 
L 368.448672 378.906569 
L 368.668304 445.727793 
L 368.887936 348.266816 
L 369.107568 415.356286 
L 369.327201 352.918583 
L 369.546833 369.890431 
L 369.766465 359.314272 
L 369.986098 439.194917 
L 370.20573 423.998761 
L 370.425362 360.678034 
L 370.644994 334.590903 
L 370.864627 417.079871 
L 371.084259 545.778741 
L 371.303891 333.117324 
L 371.523524 423.125801 
L 371.743156 449.380055 
L 371.962788 349.167929 
L 372.18242 408.755611 
L 372.402053 281.688572 
L 372.621685 405.245953 
L 372.841317 397.237897 
L 373.06095 521.044858 
L 373.280582 428.488136 
L 373.500214 417.465536 
L 373.719846 482.345183 
L 373.939479 343.022533 
L 374.159111 489.678132 
L 374.378743 380.320774 
L 374.598376 367.190832 
L 374.818008 520.002107 
L 375.03764 508.922552 
L 375.476905 440.054744 
L 375.696537 427.528234 
L 375.916169 481.695346 
L 376.135802 458.008421 
L 376.355434 451.152214 
L 376.575066 342.927181 
L 376.794698 486.001548 
L 377.014331 366.561723 
L 377.233963 443.53577 
L 377.453595 376.257316 
L 377.673228 383.205549 
L 377.89286 552.601962 
L 378.112492 377.793459 
L 378.332124 343.324389 
L 378.551757 407.332632 
L 378.771389 533.883828 
L 378.991021 326.767508 
L 379.210654 526.417357 
L 379.430286 269.265409 
L 379.649918 343.397619 
L 379.86955 486.57897 
L 380.089183 294.663795 
L 380.308815 504.961856 
L 380.528447 273.873794 
L 380.748079 463.371578 
L 380.967712 526.183367 
L 381.187344 441.517416 
L 381.406976 311.026863 
L 381.626609 384.402519 
L 381.846241 410.585872 
L 382.065873 408.572241 
L 382.285505 427.614747 
L 382.505138 388.357996 
L 382.72477 415.157566 
L 382.944402 416.755069 
L 383.164035 417.361596 
L 383.383667 459.064321 
L 383.603299 528.644194 
L 383.822931 496.726291 
L 384.042564 395.090503 
L 384.262196 355.042339 
L 384.481828 515.071781 
L 384.701461 505.544321 
L 384.921093 388.452681 
L 385.140725 156.181149 
L 385.360357 439.432691 
L 385.57999 448.792586 
L 385.799622 476.697248 
L 386.019254 433.280205 
L 386.238887 418.895332 
L 386.458519 379.823764 
L 386.678151 419.000667 
L 386.897783 397.743219 
L 387.117416 460.355074 
L 387.337048 296.126683 
L 387.55668 457.072089 
L 387.776313 429.550087 
L 387.995945 477.371067 
L 388.215577 332.885269 
L 388.435209 439.228312 
L 388.654842 447.028029 
L 388.874474 367.395361 
L 389.094106 462.161286 
L 389.313739 468.760032 
L 389.533371 356.128104 
L 389.753003 424.810082 
L 389.972635 396.424954 
L 390.192268 456.423428 
L 390.4119 448.020147 
L 390.631532 380.313678 
L 390.851165 265.310709 
L 391.070797 462.224538 
L 391.510061 362.939394 
L 391.729694 323.493201 
L 391.949326 372.418536 
L 392.168958 332.923834 
L 392.388591 418.69027 
L 392.608223 560.646987 
L 392.827855 300.283311 
L 393.047487 436.97607 
L 393.26712 402.263776 
L 393.486752 482.274938 
L 393.706384 427.093873 
L 393.926017 457.860309 
L 394.365281 375.262307 
L 394.584913 463.289446 
L 394.804546 307.818858 
L 395.024178 267.129256 
L 395.24381 449.258068 
L 395.463443 325.433236 
L 395.683075 351.956752 
L 395.902707 466.546005 
L 396.122339 438.924807 
L 396.341972 305.53815 
L 396.561604 345.863971 
L 396.781236 416.830662 
L 397.220501 328.635417 
L 397.440133 450.69104 
L 397.659765 431.024935 
L 397.879398 318.704912 
L 398.318662 489.143526 
L 398.538294 512.594836 
L 398.757927 411.961671 
L 398.977559 440.020024 
L 399.197191 424.540085 
L 399.636456 439.275919 
L 399.856088 377.840323 
L 400.07572 466.462619 
L 400.514985 424.929219 
L 400.734617 336.339643 
L 400.95425 326.429528 
L 401.393514 558.47345 
L 401.613146 434.057856 
L 401.832779 473.767499 
L 402.052411 486.999015 
L 402.272043 337.506315 
L 402.491676 409.175975 
L 402.711308 336.225695 
L 402.93094 570.675905 
L 403.150572 337.038031 
L 403.370205 453.224487 
L 403.589837 413.638736 
L 403.809469 431.584854 
L 404.029102 439.975944 
L 404.248734 372.258525 
L 404.468366 501.56915 
L 404.687998 342.606149 
L 405.127263 452.998994 
L 405.566528 344.929227 
L 405.78616 396.433578 
L 406.005792 414.883629 
L 406.225424 488.426809 
L 406.445057 459.198172 
L 406.664689 334.932683 
L 406.884321 341.235498 
L 407.103954 496.121913 
L 407.323586 417.10881 
L 407.543218 469.422076 
L 407.76285 467.481093 
L 407.982483 482.742544 
L 408.202115 367.13434 
L 408.421747 523.927441 
L 408.861012 439.241617 
L 409.080644 501.119901 
L 409.300276 402.275909 
L 409.519909 560.35079 
L 409.739541 288.057224 
L 409.959173 390.429716 
L 410.178806 300.847581 
L 410.398438 336.306955 
L 410.61807 315.248868 
L 410.837702 472.843647 
L 411.057335 459.339509 
L 411.276967 412.52559 
L 411.716231 432.299418 
L 411.935864 558.444643 
L 412.155496 443.904165 
L 412.375128 443.124363 
L 412.594761 436.795802 
L 412.814393 488.839426 
L 413.034025 434.967408 
L 413.253657 441.709548 
L 413.47329 454.413859 
L 413.692922 380.225397 
L 413.912554 347.88651 
L 414.132187 472.912521 
L 414.351819 496.093462 
L 414.571451 445.117909 
L 414.791083 350.261136 
L 415.010716 398.604528 
L 415.230348 340.87768 
L 415.44998 446.241819 
L 415.669613 467.765726 
L 415.889245 454.579817 
L 416.108877 362.388049 
L 416.328509 385.443388 
L 416.548142 474.14905 
L 416.767774 343.073865 
L 416.987406 441.933112 
L 417.207039 387.378564 
L 417.426671 476.865452 
L 417.646303 321.783082 
L 417.865935 469.553503 
L 418.085568 517.350879 
L 418.3052 386.156984 
L 418.524832 450.970257 
L 418.744465 281.165886 
L 418.964097 444.395619 
L 419.183729 519.892114 
L 419.403361 453.180113 
L 419.622994 504.336137 
L 419.842626 438.43009 
L 420.501523 535.959121 
L 420.721155 333.818062 
L 420.940787 403.653596 
L 421.16042 279.841729 
L 421.380052 412.553336 
L 421.599684 441.205072 
L 421.819317 512.549226 
L 422.038949 365.432056 
L 422.478213 419.42411 
L 422.697846 224.526613 
L 422.917478 397.973851 
L 423.13711 471.504571 
L 423.576375 357.706459 
L 424.015639 457.502306 
L 424.235272 408.607882 
L 424.454904 398.672026 
L 424.674536 417.479288 
L 424.894169 376.478214 
L 425.113801 444.402782 
L 425.333433 351.33954 
L 425.553065 420.743888 
L 425.772698 197.27317 
L 425.99233 423.616415 
L 426.211962 362.176034 
L 426.431594 373.319122 
L 426.651227 269.120446 
L 427.310124 531.928411 
L 427.529756 316.065645 
L 427.749388 454.003784 
L 427.96902 392.636447 
L 428.188653 378.574205 
L 428.627917 291.102117 
L 428.84755 509.602241 
L 429.067182 400.020236 
L 429.286814 502.748293 
L 429.506446 488.752865 
L 429.726079 449.309321 
L 429.945711 442.062021 
L 430.165343 423.071728 
L 430.384976 277.392018 
L 430.604608 457.109789 
L 430.82424 338.955269 
L 431.043872 431.146577 
L 431.263505 363.756305 
L 431.483137 371.03113 
L 431.702769 466.24685 
L 431.922402 491.390389 
L 432.142034 332.235503 
L 432.361666 551.010031 
L 432.581298 419.014475 
L 432.800931 364.236042 
L 433.020563 502.979386 
L 433.240195 406.876373 
L 433.459828 414.372793 
L 433.67946 457.503441 
L 433.899092 383.516141 
L 434.118724 493.985882 
L 434.338357 462.147026 
L 434.557989 332.730524 
L 434.997254 446.795669 
L 435.436518 411.998237 
L 435.65615 348.586993 
L 435.875783 459.903548 
L 436.095415 404.992386 
L 436.315047 306.716454 
L 436.53468 424.811339 
L 436.754312 377.086048 
L 436.973944 375.18435 
L 437.193576 331.368308 
L 437.413209 439.383413 
L 437.632841 470.773504 
L 437.852473 483.035983 
L 438.51137 304.208042 
L 438.950635 506.118559 
L 439.170267 230.051339 
L 439.389899 386.043497 
L 439.609532 338.458355 
L 439.829164 398.963941 
L 440.048796 353.275207 
L 440.268428 447.869098 
L 440.488061 482.438402 
L 440.927325 358.951484 
L 441.146958 415.140122 
L 441.36659 421.180184 
L 441.586222 519.964502 
L 442.025487 255.87283 
L 442.245119 326.230719 
L 442.464751 551.772287 
L 442.684383 466.011909 
L 442.904016 486.690034 
L 443.123648 396.559813 
L 443.34328 490.351594 
L 443.562913 391.210317 
L 443.782545 476.86889 
L 444.002177 406.913337 
L 444.221809 299.607275 
L 444.441442 450.438458 
L 444.661074 464.646642 
L 444.880706 316.105631 
L 445.100339 265.624655 
L 445.319971 410.131479 
L 445.539603 481.126349 
L 445.759235 406.003725 
L 445.978868 409.930662 
L 446.1985 367.099526 
L 446.418132 346.53055 
L 446.637765 472.20547 
L 447.296661 380.635618 
L 447.516294 483.406964 
L 447.735926 419.557485 
L 447.955558 444.207276 
L 448.175191 454.507967 
L 448.614455 433.744576 
L 448.834087 330.219402 
L 449.05372 517.243968 
L 449.273352 481.098464 
L 449.492984 479.563842 
L 449.712617 358.347805 
L 449.932249 524.078898 
L 450.151881 445.777159 
L 450.371513 450.406844 
L 450.591146 421.524863 
L 450.810778 444.86542 
L 451.03041 384.217806 
L 451.250043 483.683325 
L 451.689307 371.969438 
L 451.908939 376.87366 
L 452.128572 371.498029 
L 452.348204 532.042473 
L 452.567836 484.158274 
L 452.787469 339.951664 
L 453.007101 354.4244 
L 453.226733 458.571026 
L 453.446365 389.756946 
L 453.665998 472.957347 
L 453.88563 368.748128 
L 454.105262 434.472293 
L 454.544527 334.621892 
L 454.764159 446.650725 
L 454.983791 452.773893 
L 455.203424 516.289833 
L 455.423056 381.643251 
L 455.642688 351.635312 
L 456.081953 218.858674 
L 456.301585 516.689349 
L 456.521217 470.491459 
L 456.74085 377.622508 
L 456.960482 410.02971 
L 457.180114 400.963544 
L 457.399746 518.018482 
L 457.839011 422.919961 
L 458.058643 412.000491 
L 458.278276 461.588256 
L 458.497908 350.312447 
L 458.71754 444.876406 
L 458.937172 425.9149 
L 459.156805 509.639593 
L 459.376437 412.261763 
L 459.596069 434.576132 
L 459.815702 574.631968 
L 460.254966 373.645171 
L 460.474598 342.69707 
L 460.694231 371.780923 
L 460.913863 543.966714 
L 461.133495 433.467458 
L 461.353128 483.642946 
L 461.57276 326.069799 
L 461.792392 292.312017 
L 462.012024 460.746226 
L 462.231657 356.807522 
L 462.451289 426.696452 
L 462.670921 281.358663 
L 462.890554 257.22306 
L 463.110186 466.8953 
L 463.329818 494.024844 
L 463.54945 399.019726 
L 463.769083 495.696586 
L 463.988715 496.14215 
L 464.208347 415.48262 
L 464.42798 484.745662 
L 464.647612 421.92611 
L 464.867244 412.916885 
L 465.086876 314.452916 
L 465.306509 476.668428 
L 465.526141 466.897723 
L 465.745773 558.110212 
L 465.965406 271.410463 
L 466.185038 370.366087 
L 466.40467 388.606684 
L 466.624302 311.341958 
L 466.843935 480.345831 
L 467.063567 555.523215 
L 467.283199 307.429863 
L 467.502832 507.054686 
L 467.722464 374.126188 
L 467.942096 370.186241 
L 468.381361 417.096092 
L 468.600993 497.47457 
L 468.820625 341.915721 
L 469.040258 365.220527 
L 469.25989 572.169719 
L 469.479522 430.017802 
L 469.918787 403.7892 
L 470.138419 312.777427 
L 470.358051 406.853976 
L 470.577684 437.614012 
L 471.016948 272.89636 
L 471.23658 325.81266 
L 471.456213 475.780596 
L 471.675845 343.309389 
L 472.11511 425.183254 
L 472.334742 384.732724 
L 472.554374 284.348835 
L 472.774006 486.842184 
L 473.213271 243.978531 
L 473.432903 488.312073 
L 473.872168 286.484922 
L 474.0918 316.023074 
L 474.311432 502.927808 
L 474.531065 319.752691 
L 474.750697 510.086712 
L 474.970329 561.715505 
L 475.189961 428.996529 
L 475.409594 532.650933 
L 475.629226 393.472629 
L 475.848858 361.282915 
L 476.068491 397.908604 
L 476.288123 406.799586 
L 476.507755 395.369745 
L 476.727387 465.88062 
L 476.94702 305.391129 
L 477.166652 540.489837 
L 477.386284 437.433716 
L 477.605917 408.766017 
L 477.825549 333.412956 
L 478.045181 339.247304 
L 478.264813 484.359611 
L 478.484446 166.171521 
L 478.704078 424.458454 
L 478.92371 528.52038 
L 479.362975 310.77667 
L 479.582607 398.511276 
L 479.802239 424.03553 
L 480.021872 254.013152 
L 480.241504 472.259475 
L 480.680769 352.972015 
L 481.339665 548.030397 
L 481.559298 416.070432 
L 481.77893 367.656463 
L 481.998562 424.087541 
L 482.218195 429.461536 
L 482.437827 388.417542 
L 482.657459 542.680056 
L 482.877091 375.932488 
L 483.096724 323.79338 
L 483.316356 402.321271 
L 483.535988 399.503937 
L 483.755621 477.604657 
L 484.194885 405.912541 
L 484.414517 296.358555 
L 484.63415 444.353205 
L 484.853782 366.943681 
L 485.073414 397.671305 
L 485.293047 470.371685 
L 485.512679 456.143955 
L 485.732311 334.710422 
L 485.951943 447.244427 
L 486.171576 403.242835 
L 486.391208 470.095547 
L 486.61084 341.921783 
L 486.830473 450.008705 
L 487.050105 457.317048 
L 487.269737 394.39967 
L 487.709002 412.206976 
L 488.148266 347.629629 
L 488.367898 504.104125 
L 488.807163 326.063497 
L 489.026795 478.798461 
L 489.246428 459.334221 
L 489.46606 404.985796 
L 489.685692 484.083652 
L 489.905324 433.514844 
L 490.124957 490.542423 
L 490.344589 429.737648 
L 490.564221 509.32249 
L 490.783854 393.288825 
L 491.003486 379.710024 
L 491.223118 409.762877 
L 491.44275 571.231755 
L 491.662383 451.836374 
L 491.882015 554.995266 
L 492.101647 436.650625 
L 492.32128 555.631859 
L 492.540912 329.517237 
L 492.760544 397.089009 
L 492.980176 420.090853 
L 493.199809 282.98045 
L 493.419441 551.771985 
L 493.639073 404.916011 
L 493.858706 454.408528 
L 494.078338 356.908513 
L 494.29797 464.784075 
L 494.517602 472.464251 
L 494.737235 284.676706 
L 494.956867 446.553097 
L 495.176499 413.967585 
L 495.615764 245.948457 
L 495.835396 395.493905 
L 496.055028 316.201414 
L 496.274661 371.784991 
L 496.494293 465.712378 
L 496.713925 309.177157 
L 496.933558 463.252836 
L 497.15319 473.284822 
L 497.592454 389.161993 
L 497.812087 445.895673 
L 498.031719 552.09547 
L 498.251351 422.494027 
L 498.470984 367.845921 
L 498.690616 424.386689 
L 498.910248 448.861056 
L 499.12988 367.348028 
L 499.349513 342.340469 
L 499.569145 458.114635 
L 499.788777 473.530952 
L 500.00841 283.032243 
L 500.228042 450.30012 
L 500.447674 476.371559 
L 500.667306 308.751367 
L 500.886939 485.944096 
L 501.106571 432.390522 
L 501.326203 337.759255 
L 501.545836 333.814928 
L 501.765468 488.581284 
L 501.9851 482.934704 
L 502.204732 458.737053 
L 502.424365 267.401123 
L 502.863629 411.199829 
L 503.083262 390.222206 
L 503.302894 401.494947 
L 503.522526 488.684229 
L 503.742158 410.75132 
L 504.181423 533.082278 
L 504.401055 365.924703 
L 504.620687 349.875316 
L 505.059952 438.969666 
L 505.279584 447.740383 
L 505.499217 338.841137 
L 505.718849 352.284844 
L 505.938481 466.181762 
L 506.377746 256.237486 
L 506.597378 476.993569 
L 506.81701 265.652944 
L 507.036643 465.431304 
L 507.256275 451.153915 
L 507.475907 491.060453 
L 507.695539 450.544032 
L 507.915172 312.492593 
L 508.354436 405.77461 
L 508.574069 500.628286 
L 508.793701 315.276278 
L 509.232965 496.500968 
L 509.452598 471.042756 
L 509.67223 394.277491 
L 509.891862 379.956121 
L 510.111495 458.955807 
L 510.331127 301.201949 
L 510.550759 449.926089 
L 510.770391 241.398193 
L 510.990024 423.921478 
L 511.209656 367.228269 
L 511.429288 435.228913 
L 511.648921 350.235945 
L 511.868553 406.534595 
L 512.088185 305.351903 
L 512.307817 429.706444 
L 512.52745 387.78255 
L 513.186347 528.021827 
L 513.625611 366.56629 
L 513.845243 387.908026 
L 514.064876 332.15654 
L 514.284508 370.040758 
L 514.723773 522.788686 
L 514.943405 428.222842 
L 515.163037 446.076149 
L 515.382669 433.899878 
L 515.602302 462.249853 
L 515.821934 428.697694 
L 516.041566 365.446752 
L 516.261199 484.63197 
L 516.700463 336.819925 
L 516.920095 405.47356 
L 517.139728 371.764292 
L 517.35936 457.082328 
L 517.578992 460.357894 
L 517.798625 414.151629 
L 518.237889 470.722119 
L 518.457521 353.399577 
L 519.116418 510.344939 
L 519.33605 467.727229 
L 519.775315 295.58242 
L 520.21458 406.75297 
L 520.434212 399.091328 
L 520.653844 520.970908 
L 520.873476 283.54772 
L 521.093109 329.262328 
L 521.312741 491.556827 
L 521.532373 386.085118 
L 521.752006 348.201417 
L 521.971638 400.665898 
L 522.19127 403.02786 
L 522.630535 508.128996 
L 522.850167 297.064208 
L 523.509064 504.245768 
L 523.728696 352.708644 
L 523.948328 450.400691 
L 524.167961 391.090248 
L 524.387593 443.68444 
L 524.607225 409.810514 
L 524.826858 316.666553 
L 525.04649 325.205723 
L 525.266122 395.370066 
L 525.485754 345.794026 
L 525.705387 388.354451 
L 525.925019 472.684263 
L 526.144651 361.926507 
L 526.364284 322.831952 
L 526.583916 420.840472 
L 526.803548 444.77234 
L 527.02318 321.689636 
L 527.242813 454.275792 
L 527.462445 357.285594 
L 527.682077 435.017062 
L 527.90171 199.648358 
L 528.121342 390.794488 
L 528.340974 480.577036 
L 528.560606 471.886387 
L 528.780239 316.472765 
L 528.999871 538.09676 
L 529.219503 379.408172 
L 529.439136 461.67609 
L 529.658768 349.834374 
L 529.8784 461.019887 
L 530.098032 431.604419 
L 530.317665 419.355468 
L 530.537297 440.880113 
L 530.756929 326.876036 
L 530.976562 467.706343 
L 531.196194 276.641174 
L 531.635458 327.842428 
L 531.855091 536.161442 
L 532.074723 430.083341 
L 532.294355 451.573778 
L 532.73362 305.140185 
L 532.953252 516.09044 
L 533.172884 200.373528 
L 533.612149 499.424734 
L 533.831781 493.381896 
L 534.051413 337.193583 
L 534.271046 403.524016 
L 534.490678 315.157922 
L 534.71031 439.341126 
L 534.929943 417.828054 
L 535.149575 474.748406 
L 535.369207 300.919152 
L 535.588839 495.894762 
L 535.808472 388.384849 
L 536.028104 366.635747 
L 536.247736 478.144193 
L 536.467369 445.488174 
L 536.687001 517.50166 
L 536.906633 435.76193 
L 537.126265 520.550587 
L 537.56553 316.593203 
L 537.785162 338.915372 
L 538.004795 346.839568 
L 538.224427 338.809541 
L 538.444059 320.24677 
L 538.883324 560.96787 
L 539.102956 414.458315 
L 539.322588 397.440087 
L 539.542221 285.698186 
L 539.761853 479.870698 
L 539.981485 331.477754 
L 540.201117 528.459241 
L 540.42075 356.73662 
L 540.860014 515.200352 
L 541.079647 290.931904 
L 541.518911 504.795699 
L 541.958176 385.182925 
L 542.177808 532.026475 
L 542.39744 298.157596 
L 542.836705 534.331554 
L 543.056337 471.258173 
L 543.275969 535.152596 
L 543.495602 523.9464 
L 543.934866 288.446672 
L 544.374131 344.856203 
L 544.593763 461.638035 
L 544.813395 361.986558 
L 545.033028 413.078081 
L 545.25266 383.717368 
L 545.472292 336.12091 
L 545.691925 250.172364 
L 545.911557 376.940623 
L 545.911557 376.940623 
" style="fill:none;stroke:#96c69a;stroke-linecap:round;stroke-width:3;"/>
   </g>
   <g id="line2d_2"/>
   <g id="patch_3">
    <path d="M 84.914375 602.94 
L 84.914375 109.326857 
" style="fill:none;stroke:#262626;stroke-linecap:square;stroke-linejoin:miter;stroke-width:2.5;"/>
   </g>
   <g id="patch_4">
    <path d="M 84.914375 602.94 
L 567.863804 602.94 
" style="fill:none;stroke:#262626;stroke-linecap:square;stroke-linejoin:miter;stroke-width:2.5;"/>
   </g>
   <g id="legend_1">
    <g id="patch_5">
     <path d="M 514.948179 597.94 
L 560.863804 597.94 
Q 562.863804 597.94 562.863804 595.94 
L 562.863804 554.034375 
Q 562.863804 552.034375 560.863804 552.034375 
L 514.948179 552.034375 
Q 512.948179 552.034375 512.948179 554.034375 
L 512.948179 595.94 
Q 512.948179 597.94 514.948179 597.94 
z
" style="fill:#ffffff;opacity:0.8;stroke:#cccccc;stroke-linejoin:miter;stroke-width:2;"/>
    </g>
    <g id="text_15">
     <!-- $n_\tau$ -->
     <g style="fill:#262626;" transform="translate(524.825991 574.270625)scale(0.24 -0.24)">
      <defs>
       <path d="M 3566 2113 
L 3156 0 
L 2578 0 
L 2988 2091 
Q 3016 2238 3031 2350 
Q 3047 2463 3047 2528 
Q 3047 2791 2881 2937 
Q 2716 3084 2419 3084 
Q 1956 3084 1622 2776 
Q 1288 2469 1184 1941 
L 800 0 
L 225 0 
L 903 3500 
L 1478 3500 
L 1363 2950 
Q 1603 3253 1940 3418 
Q 2278 3584 2650 3584 
Q 3113 3584 3367 3334 
Q 3622 3084 3622 2631 
Q 3622 2519 3608 2391 
Q 3594 2263 3566 2113 
z
" id="DejaVuSans-Oblique-6e" transform="scale(0.015625)"/>
       <path d="M 2103 638 
Q 2188 488 2525 488 
L 2800 488 
L 2706 0 
L 2363 0 
Q 1800 0 1600 300 
Q 1403 606 1534 1269 
L 1856 2925 
L 541 2925 
L 653 3500 
L 3881 3500 
L 3769 2925 
L 2444 2925 
L 2113 1234 
Q 2025 781 2103 638 
z
" id="DejaVuSans-Oblique-3c4" transform="scale(0.015625)"/>
      </defs>
      <use xlink:href="#DejaVuSans-Oblique-6e"/>
      <use transform="translate(63.378906 -16.40625)scale(0.7)" xlink:href="#DejaVuSans-Oblique-3c4"/>
     </g>
    </g>
    <g id="line2d_3">
     <path d="M 516.948179 588.360312 
L 536.948179 588.360312 
" style="fill:none;stroke:#96c69a;stroke-linecap:round;stroke-width:3;"/>
    </g>
    <g id="line2d_4"/>
    <g id="text_16">
     <!-- 32 -->
     <g style="fill:#262626;" transform="translate(544.948179 591.860312)scale(0.1 -0.1)">
      <defs>
       <path d="M 2981 2516 
Q 3453 2394 3698 2092 
Q 3944 1791 3944 1325 
Q 3944 631 3412 270 
Q 2881 -91 1863 -91 
Q 1503 -91 1142 -33 
Q 781 25 428 141 
L 428 1069 
Q 766 900 1098 814 
Q 1431 728 1753 728 
Q 2231 728 2486 893 
Q 2741 1059 2741 1369 
Q 2741 1688 2480 1852 
Q 2219 2016 1709 2016 
L 1228 2016 
L 1228 2791 
L 1734 2791 
Q 2188 2791 2409 2933 
Q 2631 3075 2631 3366 
Q 2631 3634 2415 3781 
Q 2200 3928 1806 3928 
Q 1516 3928 1219 3862 
Q 922 3797 628 3669 
L 628 4550 
Q 984 4650 1334 4700 
Q 1684 4750 2022 4750 
Q 2931 4750 3382 4451 
Q 3834 4153 3834 3553 
Q 3834 3144 3618 2883 
Q 3403 2622 2981 2516 
z
" id="DejaVuSans-Bold-33" transform="scale(0.015625)"/>
       <path d="M 1844 884 
L 3897 884 
L 3897 0 
L 506 0 
L 506 884 
L 2209 2388 
Q 2438 2594 2547 2791 
Q 2656 2988 2656 3200 
Q 2656 3528 2436 3728 
Q 2216 3928 1850 3928 
Q 1569 3928 1234 3808 
Q 900 3688 519 3450 
L 519 4475 
Q 925 4609 1322 4679 
Q 1719 4750 2100 4750 
Q 2938 4750 3402 4381 
Q 3866 4013 3866 3353 
Q 3866 2972 3669 2642 
Q 3472 2313 2841 1759 
L 1844 884 
z
" id="DejaVuSans-Bold-32" transform="scale(0.015625)"/>
      </defs>
      <use xlink:href="#DejaVuSans-Bold-33"/>
      <use x="69.580078" xlink:href="#DejaVuSans-Bold-32"/>
     </g>
    </g>
   </g>
  </g>
  <g id="axes_2">
   <g id="patch_6">
    <path d="M 84.914375 92.305714 
L 567.863804 92.305714 
L 567.863804 7.2 
L 84.914375 7.2 
z
" style="fill:none;"/>
   </g>
   <g id="matplotlib.axis_3">
    <g id="xtick_7"/>
    <g id="xtick_8"/>
    <g id="xtick_9"/>
    <g id="xtick_10"/>
    <g id="xtick_11"/>
    <g id="xtick_12"/>
   </g>
   <g id="matplotlib.axis_4">
    <g id="ytick_7">
     <g id="text_17">
      <!-- 0 -->
      <g style="fill:#262626;" transform="translate(55.416875 100.663996)scale(0.22 -0.22)">
       <use xlink:href="#DejaVuSans-30"/>
      </g>
     </g>
    </g>
    <g id="ytick_8">
     <g id="text_18">
      <!-- 100 -->
      <g style="fill:#262626;" transform="translate(27.421875 48.032138)scale(0.22 -0.22)">
       <use xlink:href="#DejaVuSans-31"/>
       <use x="63.623047" xlink:href="#DejaVuSans-30"/>
       <use x="127.246094" xlink:href="#DejaVuSans-30"/>
      </g>
     </g>
    </g>
   </g>
   <g id="patch_7">
    <path clip-path="url(#p2892baddfc)" d="M 106.866622 92.305714 
L 140.639309 92.305714 
L 140.639309 11.252653 
L 106.866622 11.252653 
z
" style="fill:#96c69a;fill-opacity:0.5;stroke:#ffffff;stroke-linejoin:miter;stroke-width:2;"/>
   </g>
   <g id="patch_8">
    <path clip-path="url(#p2892baddfc)" d="M 140.639309 92.305714 
L 174.411996 92.305714 
L 174.411996 11.252653 
L 140.639309 11.252653 
z
" style="fill:#96c69a;fill-opacity:0.5;stroke:#ffffff;stroke-linejoin:miter;stroke-width:2;"/>
   </g>
   <g id="patch_9">
    <path clip-path="url(#p2892baddfc)" d="M 174.411996 92.305714 
L 208.184684 92.305714 
L 208.184684 11.252653 
L 174.411996 11.252653 
z
" style="fill:#96c69a;fill-opacity:0.5;stroke:#ffffff;stroke-linejoin:miter;stroke-width:2;"/>
   </g>
   <g id="patch_10">
    <path clip-path="url(#p2892baddfc)" d="M 208.184684 92.305714 
L 241.957371 92.305714 
L 241.957371 11.252653 
L 208.184684 11.252653 
z
" style="fill:#96c69a;fill-opacity:0.5;stroke:#ffffff;stroke-linejoin:miter;stroke-width:2;"/>
   </g>
   <g id="patch_11">
    <path clip-path="url(#p2892baddfc)" d="M 241.957371 92.305714 
L 275.730058 92.305714 
L 275.730058 11.778972 
L 241.957371 11.778972 
z
" style="fill:#96c69a;fill-opacity:0.5;stroke:#ffffff;stroke-linejoin:miter;stroke-width:2;"/>
   </g>
   <g id="patch_12">
    <path clip-path="url(#p2892baddfc)" d="M 275.730058 92.305714 
L 309.502746 92.305714 
L 309.502746 11.252653 
L 275.730058 11.252653 
z
" style="fill:#96c69a;fill-opacity:0.5;stroke:#ffffff;stroke-linejoin:miter;stroke-width:2;"/>
   </g>
   <g id="patch_13">
    <path clip-path="url(#p2892baddfc)" d="M 309.502746 92.305714 
L 343.275433 92.305714 
L 343.275433 11.252653 
L 309.502746 11.252653 
z
" style="fill:#96c69a;fill-opacity:0.5;stroke:#ffffff;stroke-linejoin:miter;stroke-width:2;"/>
   </g>
   <g id="patch_14">
    <path clip-path="url(#p2892baddfc)" d="M 343.275433 92.305714 
L 377.04812 92.305714 
L 377.04812 11.252653 
L 343.275433 11.252653 
z
" style="fill:#96c69a;fill-opacity:0.5;stroke:#ffffff;stroke-linejoin:miter;stroke-width:2;"/>
   </g>
   <g id="patch_15">
    <path clip-path="url(#p2892baddfc)" d="M 377.04812 92.305714 
L 410.820808 92.305714 
L 410.820808 11.778972 
L 377.04812 11.778972 
z
" style="fill:#96c69a;fill-opacity:0.5;stroke:#ffffff;stroke-linejoin:miter;stroke-width:2;"/>
   </g>
   <g id="patch_16">
    <path clip-path="url(#p2892baddfc)" d="M 410.820808 92.305714 
L 444.593495 92.305714 
L 444.593495 11.252653 
L 410.820808 11.252653 
z
" style="fill:#96c69a;fill-opacity:0.5;stroke:#ffffff;stroke-linejoin:miter;stroke-width:2;"/>
   </g>
   <g id="patch_17">
    <path clip-path="url(#p2892baddfc)" d="M 444.593495 92.305714 
L 478.366182 92.305714 
L 478.366182 11.252653 
L 444.593495 11.252653 
z
" style="fill:#96c69a;fill-opacity:0.5;stroke:#ffffff;stroke-linejoin:miter;stroke-width:2;"/>
   </g>
   <g id="patch_18">
    <path clip-path="url(#p2892baddfc)" d="M 478.366182 92.305714 
L 512.13887 92.305714 
L 512.13887 11.252653 
L 478.366182 11.252653 
z
" style="fill:#96c69a;fill-opacity:0.5;stroke:#ffffff;stroke-linejoin:miter;stroke-width:2;"/>
   </g>
   <g id="patch_19">
    <path clip-path="url(#p2892baddfc)" d="M 512.13887 92.305714 
L 545.911557 92.305714 
L 545.911557 11.252653 
L 512.13887 11.252653 
z
" style="fill:#96c69a;fill-opacity:0.5;stroke:#ffffff;stroke-linejoin:miter;stroke-width:2;"/>
   </g>
   <g id="patch_20">
    <path d="M 84.914375 92.305714 
L 84.914375 7.2 
" style="fill:none;stroke:#262626;stroke-linecap:square;stroke-linejoin:miter;stroke-width:2.5;"/>
   </g>
   <g id="patch_21">
    <path d="M 84.914375 92.305714 
L 567.863804 92.305714 
" style="fill:none;stroke:#262626;stroke-linecap:square;stroke-linejoin:miter;stroke-width:2.5;"/>
   </g>
  </g>
  <g id="axes_3">
   <g id="patch_22">
    <path d="M 584.517232 602.94 
L 667.784375 602.94 
L 667.784375 109.326857 
L 584.517232 109.326857 
z
" style="fill:none;"/>
   </g>
   <g id="matplotlib.axis_5">
    <g id="xtick_13">
     <g id="text_19">
      <!-- 0 -->
      <g style="fill:#262626;" transform="translate(577.518482 635.156562)scale(0.22 -0.22)">
       <use xlink:href="#DejaVuSans-30"/>
      </g>
     </g>
    </g>
    <g id="xtick_14">
     <g id="text_20">
      <!-- 100 -->
      <g style="fill:#262626;" transform="translate(608.07269 635.156562)scale(0.22 -0.22)">
       <use xlink:href="#DejaVuSans-31"/>
       <use x="63.623047" xlink:href="#DejaVuSans-30"/>
       <use x="127.246094" xlink:href="#DejaVuSans-30"/>
      </g>
     </g>
    </g>
   </g>
   <g id="matplotlib.axis_6">
    <g id="ytick_9"/>
    <g id="ytick_10"/>
    <g id="ytick_11"/>
    <g id="ytick_12"/>
    <g id="ytick_13"/>
    <g id="ytick_14"/>
   </g>
   <g id="patch_23">
    <path clip-path="url(#ped02eab04f)" d="M 584.517232 580.503039 
L 588.081369 580.503039 
L 588.081369 565.029273 
L 584.517232 565.029273 
z
" style="fill:#96c69a;fill-opacity:0.5;stroke:#ffffff;stroke-linejoin:miter;stroke-width:1.547377;"/>
   </g>
   <g id="patch_24">
    <path clip-path="url(#ped02eab04f)" d="M 584.517232 565.029273 
L 598.328262 565.029273 
L 598.328262 549.555506 
L 584.517232 549.555506 
z
" style="fill:#96c69a;fill-opacity:0.5;stroke:#ffffff;stroke-linejoin:miter;stroke-width:1.547377;"/>
   </g>
   <g id="patch_25">
    <path clip-path="url(#ped02eab04f)" d="M 584.517232 549.555506 
L 601.001364 549.555506 
L 601.001364 534.08174 
L 584.517232 534.08174 
z
" style="fill:#96c69a;fill-opacity:0.5;stroke:#ffffff;stroke-linejoin:miter;stroke-width:1.547377;"/>
   </g>
   <g id="patch_26">
    <path clip-path="url(#ped02eab04f)" d="M 584.517232 534.08174 
L 608.129638 534.08174 
L 608.129638 518.607974 
L 584.517232 518.607974 
z
" style="fill:#96c69a;fill-opacity:0.5;stroke:#ffffff;stroke-linejoin:miter;stroke-width:1.547377;"/>
   </g>
   <g id="patch_27">
    <path clip-path="url(#ped02eab04f)" d="M 584.517232 518.607974 
L 614.366877 518.607974 
L 614.366877 503.134208 
L 584.517232 503.134208 
z
" style="fill:#96c69a;fill-opacity:0.5;stroke:#ffffff;stroke-linejoin:miter;stroke-width:1.547377;"/>
   </g>
   <g id="patch_28">
    <path clip-path="url(#ped02eab04f)" d="M 584.517232 503.134208 
L 625.059287 503.134208 
L 625.059287 487.660442 
L 584.517232 487.660442 
z
" style="fill:#96c69a;fill-opacity:0.5;stroke:#ffffff;stroke-linejoin:miter;stroke-width:1.547377;"/>
   </g>
   <g id="patch_29">
    <path clip-path="url(#ped02eab04f)" d="M 584.517232 487.660442 
L 639.315833 487.660442 
L 639.315833 472.186675 
L 584.517232 472.186675 
z
" style="fill:#96c69a;fill-opacity:0.5;stroke:#ffffff;stroke-linejoin:miter;stroke-width:1.547377;"/>
   </g>
   <g id="patch_30">
    <path clip-path="url(#ped02eab04f)" d="M 584.517232 472.186675 
L 653.126863 472.186675 
L 653.126863 456.712909 
L 584.517232 456.712909 
z
" style="fill:#96c69a;fill-opacity:0.5;stroke:#ffffff;stroke-linejoin:miter;stroke-width:1.547377;"/>
   </g>
   <g id="patch_31">
    <path clip-path="url(#ped02eab04f)" d="M 584.517232 456.712909 
L 654.463414 456.712909 
L 654.463414 441.239143 
L 584.517232 441.239143 
z
" style="fill:#96c69a;fill-opacity:0.5;stroke:#ffffff;stroke-linejoin:miter;stroke-width:1.547377;"/>
   </g>
   <g id="patch_32">
    <path clip-path="url(#ped02eab04f)" d="M 584.517232 441.239143 
L 661.591688 441.239143 
L 661.591688 425.765377 
L 584.517232 425.765377 
z
" style="fill:#96c69a;fill-opacity:0.5;stroke:#ffffff;stroke-linejoin:miter;stroke-width:1.547377;"/>
   </g>
   <g id="patch_33">
    <path clip-path="url(#ped02eab04f)" d="M 584.517232 425.765377 
L 663.819273 425.765377 
L 663.819273 410.29161 
L 584.517232 410.29161 
z
" style="fill:#96c69a;fill-opacity:0.5;stroke:#ffffff;stroke-linejoin:miter;stroke-width:1.547377;"/>
   </g>
   <g id="patch_34">
    <path clip-path="url(#ped02eab04f)" d="M 584.517232 410.29161 
L 658.918585 410.29161 
L 658.918585 394.817844 
L 584.517232 394.817844 
z
" style="fill:#96c69a;fill-opacity:0.5;stroke:#ffffff;stroke-linejoin:miter;stroke-width:1.547377;"/>
   </g>
   <g id="patch_35">
    <path clip-path="url(#ped02eab04f)" d="M 584.517232 394.817844 
L 644.216521 394.817844 
L 644.216521 379.344078 
L 584.517232 379.344078 
z
" style="fill:#96c69a;fill-opacity:0.5;stroke:#ffffff;stroke-linejoin:miter;stroke-width:1.547377;"/>
   </g>
   <g id="patch_36">
    <path clip-path="url(#ped02eab04f)" d="M 584.517232 379.344078 
L 644.662038 379.344078 
L 644.662038 363.870312 
L 584.517232 363.870312 
z
" style="fill:#96c69a;fill-opacity:0.5;stroke:#ffffff;stroke-linejoin:miter;stroke-width:1.547377;"/>
   </g>
   <g id="patch_37">
    <path clip-path="url(#ped02eab04f)" d="M 584.517232 363.870312 
L 640.652385 363.870312 
L 640.652385 348.396545 
L 584.517232 348.396545 
z
" style="fill:#96c69a;fill-opacity:0.5;stroke:#ffffff;stroke-linejoin:miter;stroke-width:1.547377;"/>
   </g>
   <g id="patch_38">
    <path clip-path="url(#ped02eab04f)" d="M 584.517232 348.396545 
L 624.61377 348.396545 
L 624.61377 332.922779 
L 584.517232 332.922779 
z
" style="fill:#96c69a;fill-opacity:0.5;stroke:#ffffff;stroke-linejoin:miter;stroke-width:1.547377;"/>
   </g>
   <g id="patch_39">
    <path clip-path="url(#ped02eab04f)" d="M 584.517232 332.922779 
L 619.713082 332.922779 
L 619.713082 317.449013 
L 584.517232 317.449013 
z
" style="fill:#96c69a;fill-opacity:0.5;stroke:#ffffff;stroke-linejoin:miter;stroke-width:1.547377;"/>
   </g>
   <g id="patch_40">
    <path clip-path="url(#ped02eab04f)" d="M 584.517232 317.449013 
L 616.594462 317.449013 
L 616.594462 301.975247 
L 584.517232 301.975247 
z
" style="fill:#96c69a;fill-opacity:0.5;stroke:#ffffff;stroke-linejoin:miter;stroke-width:1.547377;"/>
   </g>
   <g id="patch_41">
    <path clip-path="url(#ped02eab04f)" d="M 584.517232 301.975247 
L 600.555847 301.975247 
L 600.555847 286.501481 
L 584.517232 286.501481 
z
" style="fill:#96c69a;fill-opacity:0.5;stroke:#ffffff;stroke-linejoin:miter;stroke-width:1.547377;"/>
   </g>
   <g id="patch_42">
    <path clip-path="url(#ped02eab04f)" d="M 584.517232 286.501481 
L 600.555847 286.501481 
L 600.555847 271.027714 
L 584.517232 271.027714 
z
" style="fill:#96c69a;fill-opacity:0.5;stroke:#ffffff;stroke-linejoin:miter;stroke-width:1.547377;"/>
   </g>
   <g id="patch_43">
    <path clip-path="url(#ped02eab04f)" d="M 584.517232 271.027714 
L 594.318608 271.027714 
L 594.318608 255.553948 
L 584.517232 255.553948 
z
" style="fill:#96c69a;fill-opacity:0.5;stroke:#ffffff;stroke-linejoin:miter;stroke-width:1.547377;"/>
   </g>
   <g id="patch_44">
    <path clip-path="url(#ped02eab04f)" d="M 584.517232 255.553948 
L 590.308954 255.553948 
L 590.308954 240.080182 
L 584.517232 240.080182 
z
" style="fill:#96c69a;fill-opacity:0.5;stroke:#ffffff;stroke-linejoin:miter;stroke-width:1.547377;"/>
   </g>
   <g id="patch_45">
    <path clip-path="url(#ped02eab04f)" d="M 584.517232 240.080182 
L 586.744818 240.080182 
L 586.744818 224.606416 
L 584.517232 224.606416 
z
" style="fill:#96c69a;fill-opacity:0.5;stroke:#ffffff;stroke-linejoin:miter;stroke-width:1.547377;"/>
   </g>
   <g id="patch_46">
    <path clip-path="url(#ped02eab04f)" d="M 584.517232 224.606416 
L 585.408266 224.606416 
L 585.408266 209.132649 
L 584.517232 209.132649 
z
" style="fill:#96c69a;fill-opacity:0.5;stroke:#ffffff;stroke-linejoin:miter;stroke-width:1.547377;"/>
   </g>
   <g id="patch_47">
    <path clip-path="url(#ped02eab04f)" d="M 584.517232 209.132649 
L 586.744818 209.132649 
L 586.744818 193.658883 
L 584.517232 193.658883 
z
" style="fill:#96c69a;fill-opacity:0.5;stroke:#ffffff;stroke-linejoin:miter;stroke-width:1.547377;"/>
   </g>
   <g id="patch_48">
    <path clip-path="url(#ped02eab04f)" d="M 584.517232 193.658883 
L 585.408266 193.658883 
L 585.408266 178.185117 
L 584.517232 178.185117 
z
" style="fill:#96c69a;fill-opacity:0.5;stroke:#ffffff;stroke-linejoin:miter;stroke-width:1.547377;"/>
   </g>
   <g id="patch_49">
    <path clip-path="url(#ped02eab04f)" d="M 584.517232 178.185117 
L 585.408266 178.185117 
L 585.408266 162.711351 
L 584.517232 162.711351 
z
" style="fill:#96c69a;fill-opacity:0.5;stroke:#ffffff;stroke-linejoin:miter;stroke-width:1.547377;"/>
   </g>
   <g id="patch_50">
    <path clip-path="url(#ped02eab04f)" d="M 584.517232 162.711351 
L 584.962749 162.711351 
L 584.962749 147.237584 
L 584.517232 147.237584 
z
" style="fill:#96c69a;fill-opacity:0.5;stroke:#ffffff;stroke-linejoin:miter;stroke-width:1.547377;"/>
   </g>
   <g id="patch_51">
    <path clip-path="url(#ped02eab04f)" d="M 584.517232 147.237584 
L 584.962749 147.237584 
L 584.962749 131.763818 
L 584.517232 131.763818 
z
" style="fill:#96c69a;fill-opacity:0.5;stroke:#ffffff;stroke-linejoin:miter;stroke-width:1.547377;"/>
   </g>
   <g id="patch_52">
    <path d="M 584.517232 602.94 
L 584.517232 109.326857 
" style="fill:none;stroke:#262626;stroke-linecap:square;stroke-linejoin:miter;stroke-width:2.5;"/>
   </g>
   <g id="patch_53">
    <path d="M 584.517232 602.94 
L 667.784375 602.94 
" style="fill:none;stroke:#262626;stroke-linecap:square;stroke-linejoin:miter;stroke-width:2.5;"/>
   </g>
  </g>
 </g>
 <defs>
  <clipPath id="p067596d717">
   <rect height="493.613143" width="482.949429" x="84.914375" y="109.326857"/>
  </clipPath>
  <clipPath id="p2892baddfc">
   <rect height="85.105714" width="482.949429" x="84.914375" y="7.2"/>
  </clipPath>
  <clipPath id="ped02eab04f">
   <rect height="493.613143" width="83.267143" x="584.517232" y="109.326857"/>
  </clipPath>
 </defs>
</svg>
