<?xml version="1.0" encoding="utf-8" standalone="no"?>
<!DOCTYPE svg PUBLIC "-//W3C//DTD SVG 1.1//EN"
  "http://www.w3.org/Graphics/SVG/1.1/DTD/svg11.dtd">
<svg height="675.079375pt" version="1.1" viewBox="0 0 688.771875 675.079375" width="688.771875pt" xmlns="http://www.w3.org/2000/svg" xmlns:xlink="http://www.w3.org/1999/xlink">
 <metadata>
  <rdf:RDF xmlns:cc="http://creativecommons.org/ns#" xmlns:dc="http://purl.org/dc/elements/1.1/" xmlns:rdf="http://www.w3.org/1999/02/22-rdf-syntax-ns#">
   <cc:Work>
    <dc:type rdf:resource="http://purl.org/dc/dcmitype/StillImage"/>
    <dc:date>2021-07-16T22:22:29.987152</dc:date>
    <dc:format>image/svg+xml</dc:format>
    <dc:creator>
     <cc:Agent>
      <dc:title>Matplotlib v3.4.2, https://matplotlib.org/</dc:title>
     </cc:Agent>
    </dc:creator>
   </cc:Work>
  </rdf:RDF>
 </metadata>
 <defs>
  <style type="text/css">*{stroke-linecap:butt;stroke-linejoin:round;}</style>
 </defs>
 <g id="figure_1">
  <g id="patch_1">
   <path d="M 0 675.079375 
L 688.771875 675.079375 
L 688.771875 0 
L 0 0 
z
" style="fill:#ffffff;"/>
  </g>
  <g id="axes_1">
   <g id="patch_2">
    <path d="M 98.911875 603.86 
L 581.687304 603.86 
L 581.687304 109.484571 
L 98.911875 109.484571 
z
" style="fill:none;"/>
   </g>
   <g id="matplotlib.axis_1">
    <g id="xtick_1">
     <g id="text_1">
      <!-- 0 -->
      <g style="fill:#262626;" transform="translate(113.63791 636.076563)scale(0.22 -0.22)">
       <defs>
        <path d="M 2034 4250 
Q 1547 4250 1301 3770 
Q 1056 3291 1056 2328 
Q 1056 1369 1301 889 
Q 1547 409 2034 409 
Q 2525 409 2770 889 
Q 3016 1369 3016 2328 
Q 3016 3291 2770 3770 
Q 2525 4250 2034 4250 
z
M 2034 4750 
Q 2819 4750 3233 4129 
Q 3647 3509 3647 2328 
Q 3647 1150 3233 529 
Q 2819 -91 2034 -91 
Q 1250 -91 836 529 
Q 422 1150 422 2328 
Q 422 3509 836 4129 
Q 1250 4750 2034 4750 
z
" id="DejaVuSans-30" transform="scale(0.015625)"/>
       </defs>
       <use xlink:href="#DejaVuSans-30"/>
      </g>
     </g>
    </g>
    <g id="xtick_2">
     <g id="text_2">
      <!-- 20000 -->
      <g style="fill:#262626;" transform="translate(173.464171 636.076563)scale(0.22 -0.22)">
       <defs>
        <path d="M 1228 531 
L 3431 531 
L 3431 0 
L 469 0 
L 469 531 
Q 828 903 1448 1529 
Q 2069 2156 2228 2338 
Q 2531 2678 2651 2914 
Q 2772 3150 2772 3378 
Q 2772 3750 2511 3984 
Q 2250 4219 1831 4219 
Q 1534 4219 1204 4116 
Q 875 4013 500 3803 
L 500 4441 
Q 881 4594 1212 4672 
Q 1544 4750 1819 4750 
Q 2544 4750 2975 4387 
Q 3406 4025 3406 3419 
Q 3406 3131 3298 2873 
Q 3191 2616 2906 2266 
Q 2828 2175 2409 1742 
Q 1991 1309 1228 531 
z
" id="DejaVuSans-32" transform="scale(0.015625)"/>
       </defs>
       <use xlink:href="#DejaVuSans-32"/>
       <use x="63.623047" xlink:href="#DejaVuSans-30"/>
       <use x="127.246094" xlink:href="#DejaVuSans-30"/>
       <use x="190.869141" xlink:href="#DejaVuSans-30"/>
       <use x="254.492188" xlink:href="#DejaVuSans-30"/>
      </g>
     </g>
    </g>
    <g id="xtick_3">
     <g id="text_3">
      <!-- 40000 -->
      <g style="fill:#262626;" transform="translate(261.285432 636.076563)scale(0.22 -0.22)">
       <defs>
        <path d="M 2419 4116 
L 825 1625 
L 2419 1625 
L 2419 4116 
z
M 2253 4666 
L 3047 4666 
L 3047 1625 
L 3713 1625 
L 3713 1100 
L 3047 1100 
L 3047 0 
L 2419 0 
L 2419 1100 
L 313 1100 
L 313 1709 
L 2253 4666 
z
" id="DejaVuSans-34" transform="scale(0.015625)"/>
       </defs>
       <use xlink:href="#DejaVuSans-34"/>
       <use x="63.623047" xlink:href="#DejaVuSans-30"/>
       <use x="127.246094" xlink:href="#DejaVuSans-30"/>
       <use x="190.869141" xlink:href="#DejaVuSans-30"/>
       <use x="254.492188" xlink:href="#DejaVuSans-30"/>
      </g>
     </g>
    </g>
    <g id="xtick_4">
     <g id="text_4">
      <!-- 60000 -->
      <g style="fill:#262626;" transform="translate(349.106693 636.076563)scale(0.22 -0.22)">
       <defs>
        <path d="M 2113 2584 
Q 1688 2584 1439 2293 
Q 1191 2003 1191 1497 
Q 1191 994 1439 701 
Q 1688 409 2113 409 
Q 2538 409 2786 701 
Q 3034 994 3034 1497 
Q 3034 2003 2786 2293 
Q 2538 2584 2113 2584 
z
M 3366 4563 
L 3366 3988 
Q 3128 4100 2886 4159 
Q 2644 4219 2406 4219 
Q 1781 4219 1451 3797 
Q 1122 3375 1075 2522 
Q 1259 2794 1537 2939 
Q 1816 3084 2150 3084 
Q 2853 3084 3261 2657 
Q 3669 2231 3669 1497 
Q 3669 778 3244 343 
Q 2819 -91 2113 -91 
Q 1303 -91 875 529 
Q 447 1150 447 2328 
Q 447 3434 972 4092 
Q 1497 4750 2381 4750 
Q 2619 4750 2861 4703 
Q 3103 4656 3366 4563 
z
" id="DejaVuSans-36" transform="scale(0.015625)"/>
       </defs>
       <use xlink:href="#DejaVuSans-36"/>
       <use x="63.623047" xlink:href="#DejaVuSans-30"/>
       <use x="127.246094" xlink:href="#DejaVuSans-30"/>
       <use x="190.869141" xlink:href="#DejaVuSans-30"/>
       <use x="254.492188" xlink:href="#DejaVuSans-30"/>
      </g>
     </g>
    </g>
    <g id="xtick_5">
     <g id="text_5">
      <!-- 80000 -->
      <g style="fill:#262626;" transform="translate(436.927955 636.076563)scale(0.22 -0.22)">
       <defs>
        <path d="M 2034 2216 
Q 1584 2216 1326 1975 
Q 1069 1734 1069 1313 
Q 1069 891 1326 650 
Q 1584 409 2034 409 
Q 2484 409 2743 651 
Q 3003 894 3003 1313 
Q 3003 1734 2745 1975 
Q 2488 2216 2034 2216 
z
M 1403 2484 
Q 997 2584 770 2862 
Q 544 3141 544 3541 
Q 544 4100 942 4425 
Q 1341 4750 2034 4750 
Q 2731 4750 3128 4425 
Q 3525 4100 3525 3541 
Q 3525 3141 3298 2862 
Q 3072 2584 2669 2484 
Q 3125 2378 3379 2068 
Q 3634 1759 3634 1313 
Q 3634 634 3220 271 
Q 2806 -91 2034 -91 
Q 1263 -91 848 271 
Q 434 634 434 1313 
Q 434 1759 690 2068 
Q 947 2378 1403 2484 
z
M 1172 3481 
Q 1172 3119 1398 2916 
Q 1625 2713 2034 2713 
Q 2441 2713 2670 2916 
Q 2900 3119 2900 3481 
Q 2900 3844 2670 4047 
Q 2441 4250 2034 4250 
Q 1625 4250 1398 4047 
Q 1172 3844 1172 3481 
z
" id="DejaVuSans-38" transform="scale(0.015625)"/>
       </defs>
       <use xlink:href="#DejaVuSans-38"/>
       <use x="63.623047" xlink:href="#DejaVuSans-30"/>
       <use x="127.246094" xlink:href="#DejaVuSans-30"/>
       <use x="190.869141" xlink:href="#DejaVuSans-30"/>
       <use x="254.492188" xlink:href="#DejaVuSans-30"/>
      </g>
     </g>
    </g>
    <g id="xtick_6">
     <g id="text_6">
      <!-- 100000 -->
      <g style="fill:#262626;" transform="translate(517.750466 636.076563)scale(0.22 -0.22)">
       <defs>
        <path d="M 794 531 
L 1825 531 
L 1825 4091 
L 703 3866 
L 703 4441 
L 1819 4666 
L 2450 4666 
L 2450 531 
L 3481 531 
L 3481 0 
L 794 0 
L 794 531 
z
" id="DejaVuSans-31" transform="scale(0.015625)"/>
       </defs>
       <use xlink:href="#DejaVuSans-31"/>
       <use x="63.623047" xlink:href="#DejaVuSans-30"/>
       <use x="127.246094" xlink:href="#DejaVuSans-30"/>
       <use x="190.869141" xlink:href="#DejaVuSans-30"/>
       <use x="254.492188" xlink:href="#DejaVuSans-30"/>
       <use x="318.115234" xlink:href="#DejaVuSans-30"/>
      </g>
     </g>
    </g>
    <g id="text_7">
     <!-- MDTU -->
     <g style="fill:#262626;" transform="translate(304.593964 662.888125)scale(0.24 -0.24)">
      <defs>
       <path d="M 628 4666 
L 1569 4666 
L 2759 1491 
L 3956 4666 
L 4897 4666 
L 4897 0 
L 4281 0 
L 4281 4097 
L 3078 897 
L 2444 897 
L 1241 4097 
L 1241 0 
L 628 0 
L 628 4666 
z
" id="DejaVuSans-4d" transform="scale(0.015625)"/>
       <path d="M 1259 4147 
L 1259 519 
L 2022 519 
Q 2988 519 3436 956 
Q 3884 1394 3884 2338 
Q 3884 3275 3436 3711 
Q 2988 4147 2022 4147 
L 1259 4147 
z
M 628 4666 
L 1925 4666 
Q 3281 4666 3915 4102 
Q 4550 3538 4550 2338 
Q 4550 1131 3912 565 
Q 3275 0 1925 0 
L 628 0 
L 628 4666 
z
" id="DejaVuSans-44" transform="scale(0.015625)"/>
       <path d="M -19 4666 
L 3928 4666 
L 3928 4134 
L 2272 4134 
L 2272 0 
L 1638 0 
L 1638 4134 
L -19 4134 
L -19 4666 
z
" id="DejaVuSans-54" transform="scale(0.015625)"/>
       <path d="M 556 4666 
L 1191 4666 
L 1191 1831 
Q 1191 1081 1462 751 
Q 1734 422 2344 422 
Q 2950 422 3222 751 
Q 3494 1081 3494 1831 
L 3494 4666 
L 4128 4666 
L 4128 1753 
Q 4128 841 3676 375 
Q 3225 -91 2344 -91 
Q 1459 -91 1007 375 
Q 556 841 556 1753 
L 556 4666 
z
" id="DejaVuSans-55" transform="scale(0.015625)"/>
      </defs>
      <use xlink:href="#DejaVuSans-4d"/>
      <use x="86.279297" xlink:href="#DejaVuSans-44"/>
      <use x="163.28125" xlink:href="#DejaVuSans-54"/>
      <use x="224.365234" xlink:href="#DejaVuSans-55"/>
     </g>
    </g>
   </g>
   <g id="matplotlib.axis_2">
    <g id="ytick_1">
     <g id="text_8">
      <!-- 0.25 -->
      <g style="fill:#262626;" transform="translate(34.4275 612.006575)scale(0.22 -0.22)">
       <defs>
        <path d="M 684 794 
L 1344 794 
L 1344 0 
L 684 0 
L 684 794 
z
" id="DejaVuSans-2e" transform="scale(0.015625)"/>
        <path d="M 691 4666 
L 3169 4666 
L 3169 4134 
L 1269 4134 
L 1269 2991 
Q 1406 3038 1543 3061 
Q 1681 3084 1819 3084 
Q 2600 3084 3056 2656 
Q 3513 2228 3513 1497 
Q 3513 744 3044 326 
Q 2575 -91 1722 -91 
Q 1428 -91 1123 -41 
Q 819 9 494 109 
L 494 744 
Q 775 591 1075 516 
Q 1375 441 1709 441 
Q 2250 441 2565 725 
Q 2881 1009 2881 1497 
Q 2881 1984 2565 2268 
Q 2250 2553 1709 2553 
Q 1456 2553 1204 2497 
Q 953 2441 691 2322 
L 691 4666 
z
" id="DejaVuSans-35" transform="scale(0.015625)"/>
       </defs>
       <use xlink:href="#DejaVuSans-30"/>
       <use x="63.623047" xlink:href="#DejaVuSans-2e"/>
       <use x="95.410156" xlink:href="#DejaVuSans-32"/>
       <use x="159.033203" xlink:href="#DejaVuSans-35"/>
      </g>
     </g>
    </g>
    <g id="ytick_2">
     <g id="text_9">
      <!-- 0.50 -->
      <g style="fill:#262626;" transform="translate(34.4275 549.573514)scale(0.22 -0.22)">
       <use xlink:href="#DejaVuSans-30"/>
       <use x="63.623047" xlink:href="#DejaVuSans-2e"/>
       <use x="95.410156" xlink:href="#DejaVuSans-35"/>
       <use x="159.033203" xlink:href="#DejaVuSans-30"/>
      </g>
     </g>
    </g>
    <g id="ytick_3">
     <g id="text_10">
      <!-- 0.75 -->
      <g style="fill:#262626;" transform="translate(34.4275 487.140452)scale(0.22 -0.22)">
       <defs>
        <path d="M 525 4666 
L 3525 4666 
L 3525 4397 
L 1831 0 
L 1172 0 
L 2766 4134 
L 525 4134 
L 525 4666 
z
" id="DejaVuSans-37" transform="scale(0.015625)"/>
       </defs>
       <use xlink:href="#DejaVuSans-30"/>
       <use x="63.623047" xlink:href="#DejaVuSans-2e"/>
       <use x="95.410156" xlink:href="#DejaVuSans-37"/>
       <use x="159.033203" xlink:href="#DejaVuSans-35"/>
      </g>
     </g>
    </g>
    <g id="ytick_4">
     <g id="text_11">
      <!-- 1.00 -->
      <g style="fill:#262626;" transform="translate(34.4275 424.707391)scale(0.22 -0.22)">
       <use xlink:href="#DejaVuSans-31"/>
       <use x="63.623047" xlink:href="#DejaVuSans-2e"/>
       <use x="95.410156" xlink:href="#DejaVuSans-30"/>
       <use x="159.033203" xlink:href="#DejaVuSans-30"/>
      </g>
     </g>
    </g>
    <g id="ytick_5">
     <g id="text_12">
      <!-- 1.25 -->
      <g style="fill:#262626;" transform="translate(34.4275 362.274329)scale(0.22 -0.22)">
       <use xlink:href="#DejaVuSans-31"/>
       <use x="63.623047" xlink:href="#DejaVuSans-2e"/>
       <use x="95.410156" xlink:href="#DejaVuSans-32"/>
       <use x="159.033203" xlink:href="#DejaVuSans-35"/>
      </g>
     </g>
    </g>
    <g id="ytick_6">
     <g id="text_13">
      <!-- 1.50 -->
      <g style="fill:#262626;" transform="translate(34.4275 299.841268)scale(0.22 -0.22)">
       <use xlink:href="#DejaVuSans-31"/>
       <use x="63.623047" xlink:href="#DejaVuSans-2e"/>
       <use x="95.410156" xlink:href="#DejaVuSans-35"/>
       <use x="159.033203" xlink:href="#DejaVuSans-30"/>
      </g>
     </g>
    </g>
    <g id="ytick_7">
     <g id="text_14">
      <!-- 1.75 -->
      <g style="fill:#262626;" transform="translate(34.4275 237.408206)scale(0.22 -0.22)">
       <use xlink:href="#DejaVuSans-31"/>
       <use x="63.623047" xlink:href="#DejaVuSans-2e"/>
       <use x="95.410156" xlink:href="#DejaVuSans-37"/>
       <use x="159.033203" xlink:href="#DejaVuSans-35"/>
      </g>
     </g>
    </g>
    <g id="ytick_8">
     <g id="text_15">
      <!-- 2.00 -->
      <g style="fill:#262626;" transform="translate(34.4275 174.975144)scale(0.22 -0.22)">
       <use xlink:href="#DejaVuSans-32"/>
       <use x="63.623047" xlink:href="#DejaVuSans-2e"/>
       <use x="95.410156" xlink:href="#DejaVuSans-30"/>
       <use x="159.033203" xlink:href="#DejaVuSans-30"/>
      </g>
     </g>
    </g>
    <g id="text_16">
     <!-- $E$ -->
     <g style="fill:#262626;" transform="translate(25.43625 364.352286)rotate(-90)scale(0.24 -0.24)">
      <defs>
       <path d="M 1081 4666 
L 4031 4666 
L 3928 4134 
L 1606 4134 
L 1338 2753 
L 3566 2753 
L 3463 2222 
L 1234 2222 
L 909 531 
L 3284 531 
L 3181 0 
L 172 0 
L 1081 4666 
z
" id="DejaVuSans-Oblique-45" transform="scale(0.015625)"/>
      </defs>
      <use transform="translate(0 0.09375)" xlink:href="#DejaVuSans-Oblique-45"/>
     </g>
    </g>
   </g>
   <g id="line2d_1">
    <path clip-path="url(#p9cfa7a03fb)" d="M 120.856213 509.532524 
L 121.075766 475.826518 
L 121.295319 466.408434 
L 121.514872 491.686592 
L 121.734425 422.497518 
L 121.953978 482.93613 
L 122.393085 540.660989 
L 122.612638 381.956936 
L 123.051744 543.724757 
L 123.490851 440.375503 
L 123.710404 504.857492 
L 123.929957 346.233696 
L 124.369063 502.582421 
L 124.588616 463.560502 
L 124.808169 464.438975 
L 125.027723 492.78808 
L 125.247276 450.028895 
L 125.466829 487.082679 
L 125.686382 493.364233 
L 125.905935 485.981916 
L 126.125488 461.988666 
L 126.345041 573.252213 
L 126.564595 427.950543 
L 126.784148 483.099263 
L 127.003701 479.592972 
L 127.442807 436.684182 
L 127.66236 480.577869 
L 127.881914 499.305209 
L 128.101467 427.061641 
L 128.32102 489.006328 
L 128.540573 473.655804 
L 128.760126 388.043073 
L 128.979679 525.388204 
L 129.199232 464.657973 
L 129.418786 464.863965 
L 129.638339 414.060569 
L 129.857892 464.933434 
L 130.296998 393.163521 
L 130.516551 473.952018 
L 130.736105 361.521937 
L 130.955658 556.921837 
L 131.175211 440.880086 
L 131.394764 482.856133 
L 131.614317 496.634131 
L 131.83387 464.587473 
L 132.053423 370.21131 
L 132.272977 477.253814 
L 132.49253 472.035825 
L 132.712083 504.268508 
L 132.931636 450.297945 
L 133.151189 547.561532 
L 133.370742 476.359444 
L 133.590296 516.068463 
L 134.029402 469.812491 
L 134.248955 488.905604 
L 134.468508 454.311688 
L 134.688061 449.316625 
L 134.907614 464.731396 
L 135.127168 510.330469 
L 135.346721 438.477443 
L 135.566274 527.025707 
L 135.785827 479.523326 
L 136.00538 459.505246 
L 136.224933 422.337501 
L 136.444487 524.788574 
L 136.66404 515.171272 
L 136.883593 515.144941 
L 137.103146 514.328507 
L 137.322699 437.663625 
L 137.542252 457.503495 
L 137.761805 521.734082 
L 137.981359 367.508885 
L 138.420465 415.598269 
L 138.640018 464.738457 
L 138.859571 467.689286 
L 139.079124 483.211056 
L 139.518231 392.247202 
L 139.737784 513.560296 
L 140.17689 391.762853 
L 140.396443 468.99416 
L 140.615996 447.071833 
L 140.83555 513.910516 
L 141.055103 377.381616 
L 141.274656 464.050834 
L 141.494209 424.817203 
L 142.152869 547.547205 
L 142.372422 455.197443 
L 142.591975 489.735365 
L 142.811528 415.479853 
L 143.031081 539.73454 
L 143.250634 474.409198 
L 143.470187 483.760821 
L 143.909294 434.447642 
L 144.128847 399.589918 
L 144.3484 523.239219 
L 144.787506 430.065765 
L 145.00706 455.617811 
L 145.226613 552.057013 
L 145.665719 388.86014 
L 145.885272 487.843611 
L 146.104825 492.513724 
L 146.543932 468.41868 
L 146.763485 344.523882 
L 146.983038 439.948758 
L 147.202591 334.500532 
L 147.641697 509.943194 
L 147.861251 476.760625 
L 148.080804 490.506002 
L 148.300357 457.976727 
L 148.51991 463.611651 
L 148.739463 399.603327 
L 148.959016 484.748585 
L 149.178569 487.972784 
L 149.398123 528.889446 
L 149.837229 418.198327 
L 150.056782 536.784816 
L 150.495888 441.567594 
L 150.715441 418.148156 
L 150.934995 421.898306 
L 151.154548 489.835941 
L 151.374101 418.618265 
L 151.593654 462.177495 
L 151.813207 436.114243 
L 152.03276 361.916266 
L 152.252314 363.879157 
L 152.471867 529.599769 
L 152.69142 531.11191 
L 152.910973 364.088891 
L 153.130526 336.761881 
L 153.350079 430.751632 
L 153.569632 381.320728 
L 154.008739 504.149808 
L 154.228292 345.589658 
L 154.447845 451.018381 
L 154.667398 445.030768 
L 154.886951 524.657798 
L 155.326058 396.953268 
L 155.545611 376.285715 
L 155.984717 475.889858 
L 156.20427 467.74807 
L 156.423823 522.324523 
L 156.86293 516.184085 
L 157.082483 409.196136 
L 157.302036 472.537813 
L 157.521589 490.817752 
L 157.741142 474.199067 
L 157.960696 483.65592 
L 158.180249 558.748068 
L 158.399802 541.955398 
L 158.619355 381.535452 
L 158.838908 406.424371 
L 159.058461 467.047934 
L 159.278014 404.020368 
L 159.497568 414.838184 
L 159.717121 431.913189 
L 159.936674 493.323857 
L 160.156227 446.272253 
L 160.37578 520.767665 
L 160.595333 498.766046 
L 160.814887 536.123867 
L 161.03444 441.578943 
L 161.253993 435.002178 
L 161.473546 508.103326 
L 161.693099 479.216996 
L 161.912652 490.66059 
L 162.132205 391.754806 
L 162.351759 497.422679 
L 162.571312 456.028192 
L 162.790865 524.964003 
L 163.010418 329.50987 
L 163.229971 443.765567 
L 163.449524 466.129107 
L 163.669078 472.765367 
L 163.888631 419.350964 
L 164.108184 451.038029 
L 164.327737 411.233559 
L 164.54729 464.136571 
L 164.766843 474.423428 
L 164.986396 512.173356 
L 165.425503 396.559411 
L 165.645056 474.814146 
L 165.864609 455.210748 
L 166.084162 406.064123 
L 166.303715 447.154608 
L 166.523269 445.155856 
L 166.742822 450.76262 
L 166.962375 513.444383 
L 167.181928 449.513064 
L 167.401481 419.098818 
L 167.621034 536.216067 
L 167.840587 453.259799 
L 168.060141 496.537905 
L 168.279694 400.028309 
L 168.499247 462.554603 
L 168.7188 465.113722 
L 168.938353 436.875116 
L 169.157906 450.238887 
L 169.37746 409.968052 
L 169.597013 490.362574 
L 169.816566 502.67796 
L 170.036119 408.050601 
L 170.255672 477.005952 
L 170.475225 487.517168 
L 170.694778 438.478082 
L 170.914332 508.880266 
L 171.133885 510.438029 
L 171.353438 472.30767 
L 171.572991 537.994013 
L 172.012097 391.174556 
L 172.231651 472.558828 
L 172.451204 505.701703 
L 172.670757 466.411357 
L 172.89031 450.549649 
L 173.109863 444.448922 
L 173.329416 531.825979 
L 173.548969 470.658799 
L 173.768523 450.969402 
L 174.427182 517.488052 
L 174.646735 400.779399 
L 174.866288 514.9837 
L 175.085842 477.135327 
L 175.305395 472.03796 
L 175.524948 420.335465 
L 175.744501 482.275055 
L 175.964054 445.217717 
L 176.183607 441.720567 
L 176.40316 416.412101 
L 176.622714 581.38839 
L 176.842267 549.126048 
L 177.281373 339.191301 
L 177.500926 507.959197 
L 177.940032 445.078634 
L 178.159586 445.089692 
L 178.598692 447.711369 
L 179.257351 550.230819 
L 179.476905 474.378723 
L 179.696458 506.67246 
L 179.916011 442.833951 
L 180.135564 511.872166 
L 180.355117 422.76673 
L 180.57467 480.79112 
L 180.794223 443.121811 
L 181.013777 467.591795 
L 181.23333 523.290263 
L 181.452883 344.568222 
L 181.672436 427.127978 
L 181.891989 434.03122 
L 182.111542 476.261018 
L 182.331096 394.582529 
L 182.550649 541.618827 
L 182.989755 426.840796 
L 183.209308 450.548177 
L 183.428861 508.168228 
L 183.648414 507.023426 
L 183.867968 387.632345 
L 184.087521 498.234502 
L 184.307074 371.398436 
L 184.526627 412.062315 
L 184.74618 497.557131 
L 184.965733 352.845089 
L 185.40484 460.960002 
L 185.624393 462.64967 
L 185.843946 444.51871 
L 186.063499 493.09223 
L 186.283052 440.012282 
L 186.502605 548.103283 
L 186.722159 391.003358 
L 186.941712 431.041067 
L 187.161265 508.183068 
L 187.380818 410.643916 
L 187.600371 405.857869 
L 187.819924 509.733122 
L 188.039478 438.748618 
L 188.259031 412.45957 
L 188.478584 486.556143 
L 188.698137 490.762039 
L 188.91769 345.63775 
L 189.137243 475.949984 
L 189.356796 491.9816 
L 189.57635 466.510776 
L 189.795903 512.541522 
L 190.015456 511.587061 
L 190.235009 506.290959 
L 190.454562 486.519759 
L 190.674115 499.992839 
L 190.893669 416.838494 
L 191.113222 385.928058 
L 191.332775 437.930354 
L 191.552328 364.930192 
L 191.771881 500.015292 
L 191.991434 434.373335 
L 192.210987 474.070789 
L 192.430541 475.193723 
L 192.650094 459.125025 
L 192.869647 409.966933 
L 193.0892 449.413823 
L 193.308753 448.557775 
L 193.528306 466.326294 
L 193.74786 439.270517 
L 193.967413 507.098669 
L 194.186966 411.925723 
L 194.406519 492.837111 
L 194.626072 478.657522 
L 194.845625 517.054974 
L 195.065178 471.079153 
L 195.284732 468.57238 
L 195.504285 510.284645 
L 195.723838 485.121365 
L 195.943391 436.646581 
L 196.162944 507.173258 
L 196.382497 364.360642 
L 196.821604 484.439154 
L 197.041157 389.166546 
L 197.480263 460.037753 
L 197.699816 468.949635 
L 197.919369 497.38975 
L 198.138923 437.24704 
L 198.358476 450.436478 
L 198.578029 433.95958 
L 198.797582 481.050366 
L 199.017135 451.873499 
L 199.236688 495.647972 
L 199.456242 431.639162 
L 199.675795 464.111959 
L 199.895348 442.584684 
L 200.114901 504.874498 
L 200.334454 496.792387 
L 200.554007 444.622085 
L 200.77356 487.423598 
L 200.993114 492.470827 
L 201.212667 513.504798 
L 201.43222 402.682627 
L 201.651773 513.110186 
L 201.871326 412.219181 
L 202.090879 479.50553 
L 202.310432 480.672966 
L 202.529986 469.127366 
L 202.749539 478.243059 
L 202.969092 444.300976 
L 203.408198 466.28736 
L 203.627751 408.292054 
L 203.847305 497.082952 
L 204.066858 435.519742 
L 204.286411 425.835127 
L 204.505964 446.146265 
L 204.725517 481.290188 
L 204.94507 368.179395 
L 205.164623 486.535389 
L 205.384177 444.703266 
L 205.60373 468.12759 
L 205.823283 249.339719 
L 206.042836 467.898222 
L 206.481942 440.766056 
L 206.701496 438.0189 
L 206.921049 475.564388 
L 207.140602 490.159497 
L 207.360155 491.227777 
L 207.579708 333.134494 
L 207.799261 484.178328 
L 208.018814 442.726031 
L 208.238368 530.829617 
L 208.677474 411.21085 
L 208.897027 511.808832 
L 209.11658 454.225435 
L 209.336133 438.690438 
L 209.555687 498.959927 
L 209.77524 382.113208 
L 209.994793 524.613676 
L 210.214346 526.754564 
L 210.653452 425.571278 
L 210.873005 412.491036 
L 211.092559 438.568705 
L 211.312112 536.218103 
L 211.531665 464.399037 
L 211.751218 467.415305 
L 211.970771 441.955594 
L 212.190324 382.283055 
L 212.629431 439.7487 
L 212.848984 461.357805 
L 213.068537 435.717946 
L 213.28809 480.361032 
L 213.507643 418.251948 
L 213.727196 484.835224 
L 213.94675 386.921513 
L 214.166303 412.165362 
L 214.385856 398.735642 
L 214.605409 465.777003 
L 215.044515 483.83442 
L 215.264069 439.736248 
L 215.483622 508.729182 
L 215.703175 384.090852 
L 215.922728 477.948973 
L 216.142281 481.34388 
L 216.361834 432.649059 
L 216.581387 445.868618 
L 216.800941 539.911797 
L 217.020494 438.603263 
L 217.240047 570.044418 
L 217.4596 493.495001 
L 217.679153 480.428325 
L 218.11826 497.804919 
L 218.337813 395.771158 
L 218.557366 397.306748 
L 218.996472 468.346588 
L 219.435578 431.265527 
L 219.655132 482.589969 
L 220.094238 438.208818 
L 220.313791 354.227638 
L 220.533344 471.313786 
L 220.752897 512.651407 
L 220.972451 497.261335 
L 221.192004 518.962212 
L 221.63111 513.108914 
L 221.850663 482.571447 
L 222.070216 475.433423 
L 222.289769 519.627689 
L 222.509323 424.232722 
L 222.728876 476.444218 
L 222.948429 483.305498 
L 223.167982 453.911674 
L 223.387535 404.04151 
L 223.607088 478.697948 
L 223.826642 459.959522 
L 224.046195 541.397717 
L 224.265748 498.281281 
L 224.485301 429.445943 
L 224.704854 405.704585 
L 224.924407 437.926572 
L 225.14396 434.9794 
L 225.363514 503.743143 
L 225.583067 486.727067 
L 225.80262 527.614821 
L 226.022173 482.860859 
L 226.241726 358.169066 
L 226.461279 457.287464 
L 226.680833 435.548647 
L 226.900386 452.901464 
L 227.119939 489.186362 
L 227.339492 466.049722 
L 227.559045 476.727303 
L 227.778598 402.671566 
L 227.998151 402.731809 
L 228.217705 520.255641 
L 228.437258 509.067707 
L 228.656811 446.129363 
L 228.876364 483.66863 
L 229.095917 480.972494 
L 229.31547 401.530696 
L 229.535023 435.163707 
L 229.754577 525.73735 
L 229.97413 430.809179 
L 230.413236 492.882925 
L 230.632789 437.407209 
L 230.852342 486.549394 
L 231.071896 482.245045 
L 231.291449 371.713636 
L 231.511002 473.084083 
L 231.730555 516.639414 
L 231.950108 421.400586 
L 232.169661 486.740057 
L 232.389214 499.836222 
L 232.608768 453.545242 
L 233.047874 479.237092 
L 233.267427 431.492598 
L 233.48698 427.373921 
L 233.706533 453.821544 
L 233.926087 519.248624 
L 234.14564 479.830709 
L 234.365193 408.528477 
L 234.584746 487.734858 
L 234.804299 347.274539 
L 235.023852 437.045534 
L 235.243405 430.430393 
L 235.462959 398.271729 
L 235.902065 446.777496 
L 236.121618 459.838349 
L 236.341171 549.043755 
L 236.560724 475.97567 
L 236.780278 544.478563 
L 236.999831 510.555976 
L 237.219384 450.460517 
L 237.438937 474.58993 
L 237.878043 440.972154 
L 238.097596 460.505274 
L 238.31715 503.437805 
L 238.536703 311.401131 
L 238.756256 401.85762 
L 238.975809 405.485316 
L 239.195362 447.759624 
L 239.414915 417.357418 
L 239.634469 463.228805 
L 239.854022 363.236396 
L 240.293128 451.75602 
L 240.512681 365.835821 
L 240.732234 417.081498 
L 240.951787 427.956126 
L 241.171341 523.55038 
L 241.390894 489.525864 
L 241.610447 420.217128 
L 241.83 502.976541 
L 242.049553 422.183655 
L 242.269106 426.209879 
L 242.48866 516.508556 
L 242.708213 515.087104 
L 242.927766 383.234289 
L 243.147319 412.302583 
L 243.366872 554.515309 
L 243.586425 492.994924 
L 244.025532 489.941194 
L 244.464638 390.661606 
L 244.684191 456.771992 
L 244.903744 453.473113 
L 245.123297 482.006307 
L 245.342851 464.071274 
L 245.562404 434.441989 
L 245.781957 433.656751 
L 246.00151 529.062709 
L 246.221063 327.931718 
L 246.440616 420.871609 
L 246.660169 446.884507 
L 246.879723 498.793755 
L 247.099276 431.819351 
L 247.318829 453.232683 
L 247.538382 539.182134 
L 247.977488 434.490366 
L 248.197042 487.191613 
L 248.416595 480.118545 
L 248.636148 539.961879 
L 248.855701 351.327835 
L 249.075254 390.734374 
L 249.294807 497.970682 
L 249.733914 403.320446 
L 249.953467 509.151515 
L 250.17302 376.584598 
L 250.612126 496.867105 
L 250.831679 426.32955 
L 251.051233 431.942212 
L 251.270786 452.387429 
L 251.490339 487.672931 
L 251.709892 474.686579 
L 251.929445 489.050882 
L 252.148998 369.697054 
L 252.368551 502.768987 
L 252.807658 454.326037 
L 253.027211 459.784162 
L 253.246764 448.550858 
L 253.466317 506.055549 
L 253.68587 481.867278 
L 253.905424 473.754349 
L 254.34453 559.301598 
L 254.783636 478.810678 
L 255.003189 547.775337 
L 255.222742 265.599462 
L 255.442296 476.358593 
L 255.661849 452.781479 
L 255.881402 487.123549 
L 256.100955 471.253709 
L 256.320508 416.863667 
L 256.540061 524.467627 
L 256.759614 475.709169 
L 256.979168 481.977719 
L 257.198721 433.967488 
L 257.418274 513.999948 
L 257.637827 531.401852 
L 257.85738 467.998552 
L 258.076933 363.404086 
L 258.296487 385.892401 
L 258.735593 478.144906 
L 258.955146 466.037966 
L 259.174699 415.557079 
L 259.394252 473.405852 
L 259.613805 423.173865 
L 260.052912 509.688058 
L 260.272465 493.414438 
L 260.492018 357.335561 
L 260.711571 413.831246 
L 260.931124 407.486952 
L 261.150678 392.463412 
L 261.370231 403.067358 
L 261.589784 262.7235 
L 261.809337 468.788327 
L 262.02889 457.740745 
L 262.248443 419.145024 
L 262.467996 468.560376 
L 262.68755 449.595652 
L 262.907103 475.825136 
L 263.126656 449.686352 
L 263.346209 463.578371 
L 263.565762 417.651734 
L 263.785315 457.238791 
L 264.004869 443.540907 
L 264.224422 473.359735 
L 264.443975 375.534652 
L 264.883081 482.464051 
L 265.102634 477.386722 
L 265.322187 521.874227 
L 265.541741 410.541303 
L 265.761294 519.556451 
L 265.980847 433.936894 
L 266.2004 541.851127 
L 266.419953 491.294841 
L 266.639506 487.851889 
L 266.85906 452.51357 
L 267.078613 459.882343 
L 267.298166 519.146619 
L 267.737272 348.145116 
L 267.956825 551.719548 
L 268.176378 396.116586 
L 268.395932 455.870406 
L 268.615485 464.669747 
L 268.835038 509.051923 
L 269.054591 319.642622 
L 269.274144 453.074694 
L 269.493697 330.931621 
L 269.932804 487.713823 
L 270.152357 383.512058 
L 270.37191 428.542203 
L 270.591463 325.583488 
L 270.811016 480.19024 
L 271.030569 506.635037 
L 271.469676 440.179862 
L 271.689229 495.129167 
L 271.908782 447.161131 
L 272.128335 474.210113 
L 272.347888 535.098807 
L 272.567442 443.454365 
L 272.786995 479.35912 
L 273.006548 483.996217 
L 273.226101 452.55166 
L 273.445654 492.852465 
L 273.665207 482.534986 
L 273.88476 404.823208 
L 274.104314 529.294813 
L 274.54342 418.779589 
L 274.762973 447.155382 
L 274.982526 447.351232 
L 275.202079 490.6521 
L 275.421633 470.762233 
L 275.641186 462.794793 
L 275.860739 403.370997 
L 276.080292 495.068703 
L 276.299845 489.244882 
L 276.738951 421.164695 
L 276.958505 541.478209 
L 277.178058 497.687019 
L 277.397611 407.84278 
L 277.836717 540.847221 
L 278.05627 386.729197 
L 278.275824 451.938618 
L 278.495377 453.74505 
L 278.71493 452.90198 
L 278.934483 455.500066 
L 279.154036 402.914765 
L 279.373589 502.152193 
L 279.593142 493.383132 
L 279.812696 453.528506 
L 280.251802 295.118551 
L 280.471355 466.791958 
L 280.690908 445.214845 
L 280.910461 500.255336 
L 281.130014 316.601735 
L 281.349568 451.873351 
L 281.569121 476.589763 
L 281.788674 479.976773 
L 282.008227 559.001958 
L 282.22778 468.103685 
L 282.447333 518.797565 
L 282.666887 436.922322 
L 282.88644 497.21613 
L 283.105993 446.332444 
L 283.325546 462.092587 
L 283.545099 387.860622 
L 283.764652 462.471706 
L 283.984205 343.659896 
L 284.423312 475.882499 
L 284.642865 392.246553 
L 284.862418 493.443353 
L 285.081971 376.332363 
L 285.301524 426.659418 
L 285.521078 426.263563 
L 285.740631 468.825527 
L 285.960184 455.385839 
L 286.179737 475.699594 
L 286.39929 374.596294 
L 286.838396 474.381021 
L 287.05795 423.908778 
L 287.277503 523.366988 
L 287.497056 444.343723 
L 287.716609 492.257396 
L 287.936162 410.939655 
L 288.375269 543.655583 
L 288.594822 557.669258 
L 289.033928 453.247368 
L 289.253481 516.363182 
L 289.473034 477.405797 
L 289.692587 467.934877 
L 289.912141 470.692487 
L 290.131694 484.090927 
L 290.351247 401.331374 
L 290.5708 381.102361 
L 290.790353 470.495637 
L 291.009906 461.417298 
L 291.22946 474.095054 
L 291.449013 496.11614 
L 291.668566 504.719884 
L 292.107672 362.838343 
L 292.327225 427.398385 
L 292.546778 445.903065 
L 292.766332 433.816679 
L 293.205438 468.190651 
L 293.424991 517.733902 
L 293.644544 454.874496 
L 293.864097 507.098535 
L 294.303204 438.123111 
L 294.522757 512.591412 
L 294.74231 485.078593 
L 294.961863 405.881185 
L 295.181416 418.094314 
L 295.620523 509.775399 
L 295.840076 416.708167 
L 296.059629 547.9241 
L 296.279182 432.616013 
L 296.718288 540.459716 
L 296.937842 444.871982 
L 297.157395 422.632376 
L 297.376948 481.551541 
L 297.596501 447.971776 
L 297.816054 459.553048 
L 298.035607 358.962407 
L 298.25516 453.104894 
L 298.694267 478.064091 
L 298.91382 459.831507 
L 299.133373 414.899824 
L 299.352926 527.903886 
L 299.572479 475.742699 
L 299.792033 471.522127 
L 300.011586 442.916877 
L 300.231139 467.032739 
L 300.450692 538.405335 
L 300.670245 506.834862 
L 301.109351 480.980407 
L 301.328905 497.434118 
L 301.548458 550.284922 
L 301.768011 422.610866 
L 301.987564 494.608411 
L 302.207117 467.802828 
L 302.42667 523.280533 
L 302.646224 478.983999 
L 302.865777 538.802881 
L 303.08533 487.637292 
L 303.304883 486.885479 
L 303.524436 503.63401 
L 303.743989 415.316899 
L 303.963542 437.95098 
L 304.183096 472.236214 
L 304.402649 452.129511 
L 304.622202 460.575313 
L 305.061308 422.080741 
L 305.280861 469.270335 
L 305.500415 424.378976 
L 305.939521 495.930277 
L 306.159074 502.980264 
L 306.378627 477.308763 
L 306.59818 475.483327 
L 306.817733 391.176678 
L 307.037287 471.585037 
L 307.25684 352.67431 
L 307.476393 466.026302 
L 307.695946 454.456134 
L 307.915499 498.219414 
L 308.135052 516.319333 
L 308.574159 489.860847 
L 308.793712 564.557821 
L 309.013265 457.851429 
L 309.232818 426.819736 
L 309.452371 520.216518 
L 309.671924 444.662758 
L 310.111031 492.96026 
L 310.330584 393.149694 
L 310.550137 479.96043 
L 310.76969 488.628412 
L 310.989243 474.107746 
L 311.42835 484.033996 
L 311.647903 433.131 
L 311.867456 472.158982 
L 312.087009 301.227131 
L 312.306562 507.976287 
L 312.526115 493.379054 
L 312.745669 394.647655 
L 312.965222 460.186751 
L 313.184775 450.626978 
L 313.404328 495.750284 
L 313.623881 473.989806 
L 313.843434 501.383968 
L 314.062987 449.941647 
L 314.282541 518.977531 
L 314.502094 409.199431 
L 314.721647 504.745255 
L 314.9412 476.449718 
L 315.160753 503.529549 
L 315.380306 486.722304 
L 315.59986 510.010918 
L 315.819413 478.418644 
L 316.038966 561.903935 
L 316.478072 499.535377 
L 316.697625 324.4805 
L 317.356285 473.630678 
L 317.575838 497.193233 
L 317.795391 493.883071 
L 318.014944 433.758382 
L 318.234497 480.375728 
L 318.454051 436.828542 
L 318.673604 497.438152 
L 318.893157 485.102273 
L 319.11271 497.829618 
L 319.332263 401.110446 
L 319.551816 419.239472 
L 319.771369 509.149027 
L 319.990923 516.774618 
L 320.210476 424.783022 
L 320.430029 459.030651 
L 320.649582 456.355847 
L 320.869135 438.302446 
L 321.088688 440.282 
L 321.308242 378.220962 
L 321.527795 406.307053 
L 321.747348 475.362148 
L 321.966901 425.123061 
L 322.186454 425.040945 
L 322.406007 512.28022 
L 322.62556 509.483989 
L 322.845114 342.277245 
L 323.064667 423.252665 
L 323.28422 443.073654 
L 323.503773 488.745344 
L 323.723326 416.035021 
L 323.942879 507.681266 
L 324.162433 433.220823 
L 324.381986 460.319752 
L 324.601539 508.723148 
L 324.821092 414.886235 
L 325.040645 448.595477 
L 325.260198 462.417274 
L 325.479751 512.67677 
L 325.699305 400.779135 
L 326.138411 481.820539 
L 326.577517 394.170576 
L 326.79707 446.02824 
L 327.016624 339.21951 
L 327.236177 437.55432 
L 327.45573 339.453888 
L 327.675283 501.227845 
L 327.894836 477.543777 
L 328.114389 474.618344 
L 328.333942 482.120155 
L 328.553496 499.678594 
L 328.773049 507.933201 
L 328.992602 460.790629 
L 329.431708 512.161201 
L 329.651261 489.508272 
L 329.870815 395.430677 
L 330.309921 527.24297 
L 330.529474 406.944898 
L 330.749027 502.970675 
L 330.96858 466.739176 
L 331.188133 461.556637 
L 331.407687 336.73272 
L 331.62724 467.816963 
L 331.846793 525.165847 
L 332.066346 458.084093 
L 332.285899 453.433973 
L 332.505452 518.536038 
L 332.725006 487.323535 
L 332.944559 394.800075 
L 333.164112 366.194873 
L 333.383665 485.846908 
L 333.603218 413.227607 
L 333.822771 475.866335 
L 334.042324 450.753561 
L 334.261878 518.797832 
L 334.481431 439.73553 
L 334.700984 491.379237 
L 334.920537 392.07115 
L 335.14009 405.687104 
L 335.359643 410.479559 
L 336.018303 492.175912 
L 336.237856 393.982428 
L 336.457409 468.544549 
L 336.896515 497.8926 
L 337.116069 444.651467 
L 337.335622 463.806523 
L 337.555175 429.556726 
L 337.774728 470.986075 
L 337.994281 446.607904 
L 338.213834 497.729694 
L 338.433387 455.57399 
L 338.652941 487.492708 
L 338.872494 378.77027 
L 339.092047 520.968154 
L 339.531153 428.271218 
L 339.750706 463.342311 
L 339.97026 480.376402 
L 340.189813 428.136493 
L 340.409366 489.687409 
L 340.628919 473.277942 
L 340.848472 469.53332 
L 341.068025 342.695132 
L 341.507132 538.078154 
L 341.726685 495.485033 
L 341.946238 540.848802 
L 342.385344 448.185722 
L 342.604897 508.512195 
L 343.044004 379.777599 
L 343.263557 451.284801 
L 343.48311 484.592097 
L 343.702663 435.104732 
L 343.922216 478.382152 
L 344.361323 506.490106 
L 344.580876 416.372633 
L 344.800429 544.603435 
L 345.019982 413.657075 
L 345.239535 374.253118 
L 345.459088 464.451344 
L 345.898195 386.435167 
L 346.117748 444.383001 
L 346.337301 432.427033 
L 346.556854 460.129187 
L 346.776407 391.341338 
L 346.99596 549.010996 
L 347.215514 390.891252 
L 347.65462 435.352241 
L 347.874173 477.677476 
L 348.093726 444.560323 
L 348.313279 476.411593 
L 348.752386 440.727939 
L 348.971939 491.53478 
L 349.191492 371.896971 
L 349.411045 482.112841 
L 349.630598 418.024399 
L 349.850151 498.432167 
L 350.069705 522.032746 
L 350.289258 502.635647 
L 350.508811 494.047983 
L 350.728364 476.38988 
L 351.16747 397.931167 
L 351.387024 538.092584 
L 351.606577 452.746429 
L 351.82613 463.523033 
L 352.045683 412.580023 
L 352.265236 494.305882 
L 352.484789 378.248289 
L 352.704342 495.528397 
L 352.923896 395.780129 
L 353.143449 409.853527 
L 353.363002 479.071629 
L 353.582555 443.031006 
L 353.802108 464.674553 
L 354.021661 455.035095 
L 354.241215 491.469738 
L 354.460768 464.365096 
L 354.680321 408.449466 
L 354.899874 455.43617 
L 355.119427 399.865576 
L 355.33898 305.551338 
L 355.778087 488.006782 
L 355.99764 453.51993 
L 356.217193 506.98458 
L 356.436746 452.052599 
L 356.656299 504.538188 
L 356.875852 480.850643 
L 357.095406 430.45414 
L 357.314959 528.946528 
L 357.534512 308.593371 
L 357.754065 396.121598 
L 358.193171 340.354722 
L 358.412724 476.527584 
L 358.632278 442.756805 
L 358.851831 481.224392 
L 359.071384 488.107768 
L 359.290937 471.265523 
L 359.51049 467.875345 
L 359.730043 561.885587 
L 359.949596 394.072012 
L 360.16915 411.735044 
L 360.388703 131.956182 
L 360.608256 533.495308 
L 360.827809 481.523109 
L 361.047362 498.472852 
L 361.266915 364.436454 
L 361.486469 443.216802 
L 361.706022 425.853983 
L 361.925575 507.830525 
L 362.364681 543.012346 
L 362.584234 430.092585 
L 363.023341 499.818236 
L 363.242894 487.324916 
L 363.462447 508.993495 
L 363.682 415.007332 
L 363.901553 483.855468 
L 364.121106 493.164367 
L 364.34066 410.179879 
L 364.560213 374.440417 
L 365.218872 546.969413 
L 365.438425 495.491691 
L 365.657978 508.104366 
L 365.877532 496.315098 
L 366.097085 521.593817 
L 366.316638 447.20102 
L 366.536191 488.003907 
L 366.755744 379.094298 
L 367.194851 474.740062 
L 367.414404 408.218068 
L 367.633957 503.036352 
L 367.85351 510.136515 
L 368.073063 508.711317 
L 368.292616 485.726007 
L 368.512169 529.265585 
L 368.731723 535.679452 
L 368.951276 403.844381 
L 369.390382 442.756696 
L 369.609935 485.042002 
L 369.829488 383.13867 
L 370.049042 451.728448 
L 370.268595 465.872045 
L 370.488148 505.206597 
L 370.707701 445.258606 
L 370.927254 477.2711 
L 371.146807 377.911335 
L 371.36636 407.966776 
L 371.585914 487.938875 
L 371.805467 480.591572 
L 372.02502 448.400795 
L 372.244573 440.154694 
L 372.683679 503.039975 
L 372.903233 404.161078 
L 373.122786 443.157987 
L 373.342339 514.301791 
L 373.561892 347.26422 
L 373.781445 542.894866 
L 374.000998 420.483389 
L 374.220551 545.394288 
L 374.440105 403.738923 
L 374.659658 551.688596 
L 375.098764 338.750163 
L 375.318317 389.776504 
L 375.53787 399.312213 
L 375.757424 435.046525 
L 375.976977 389.028683 
L 376.19653 469.899719 
L 376.416083 374.780142 
L 376.635636 490.952274 
L 376.855189 421.708618 
L 377.074742 459.617615 
L 377.294296 368.272304 
L 377.733402 459.673689 
L 377.952955 480.195466 
L 378.172508 478.64187 
L 378.392061 418.948862 
L 378.611615 499.805109 
L 378.831168 499.045955 
L 379.050721 493.353796 
L 379.270274 509.486494 
L 379.489827 462.254913 
L 379.70938 461.49404 
L 379.928933 462.7138 
L 380.148487 415.873986 
L 380.36804 306.44646 
L 380.587593 465.025917 
L 380.807146 409.203531 
L 381.026699 547.571719 
L 381.246252 446.437121 
L 381.465806 502.997316 
L 381.685359 499.242205 
L 381.904912 412.140264 
L 382.124465 415.860716 
L 382.563571 503.848686 
L 382.783124 460.19733 
L 383.002678 467.463465 
L 383.222231 478.693792 
L 383.441784 440.081867 
L 383.661337 483.373881 
L 383.88089 492.156065 
L 384.100443 398.536195 
L 384.319997 457.424292 
L 384.53955 433.561677 
L 384.978656 510.953243 
L 385.198209 462.053648 
L 385.417762 485.183643 
L 385.637315 403.857159 
L 385.856869 506.561233 
L 386.295975 397.233145 
L 386.515528 355.959684 
L 386.735081 510.304363 
L 386.954634 515.038978 
L 387.174187 409.820092 
L 387.393741 536.043086 
L 387.613294 474.939756 
L 387.832847 483.08484 
L 388.0524 386.762382 
L 388.271953 457.93194 
L 388.491506 436.797287 
L 388.930613 503.311568 
L 389.369719 417.363898 
L 389.589272 502.54977 
L 389.808825 376.028973 
L 390.028378 518.057004 
L 390.247932 513.540948 
L 390.467485 491.444379 
L 390.687038 552.106059 
L 391.126144 450.227695 
L 391.345697 409.60297 
L 391.784804 443.844818 
L 392.004357 332.910268 
L 392.22391 519.655742 
L 392.443463 443.720552 
L 392.663016 529.68975 
L 392.882569 449.677548 
L 393.102123 495.56463 
L 393.321676 460.09051 
L 393.541229 485.374424 
L 393.760782 453.221693 
L 393.980335 473.856106 
L 394.199888 460.791168 
L 394.419442 490.126755 
L 394.638995 414.76524 
L 395.078101 439.511656 
L 395.297654 522.212977 
L 395.517207 510.027789 
L 395.73676 425.793187 
L 395.956314 399.075346 
L 396.175867 525.353165 
L 396.39542 515.040103 
L 396.614973 526.742127 
L 396.834526 505.551505 
L 397.054079 381.401858 
L 397.493186 487.999351 
L 397.932292 356.725764 
L 398.151845 524.274332 
L 398.371398 489.573349 
L 398.590951 346.224388 
L 399.030058 455.556697 
L 399.249611 478.689632 
L 399.469164 364.099212 
L 399.688717 467.122825 
L 399.90827 447.212203 
L 400.127824 412.799669 
L 400.347377 422.579711 
L 400.56693 445.798565 
L 401.006036 417.904694 
L 401.445142 483.819205 
L 401.664696 386.470744 
L 401.884249 484.816372 
L 402.103802 423.783326 
L 402.323355 398.214181 
L 402.542908 477.829085 
L 402.762461 393.758344 
L 402.982015 449.16345 
L 403.201568 451.820612 
L 403.421121 538.027138 
L 403.640674 417.457851 
L 404.07978 451.365214 
L 404.299333 477.883462 
L 404.518887 487.105884 
L 404.957993 379.029685 
L 405.177546 436.706503 
L 405.397099 422.419606 
L 405.616652 458.428324 
L 405.836206 452.350219 
L 406.275312 546.231541 
L 406.714418 407.139654 
L 406.933971 497.375886 
L 407.153524 394.44932 
L 407.592631 497.43842 
L 407.812184 394.270318 
L 408.031737 488.003081 
L 408.25129 456.409666 
L 408.470843 533.76664 
L 408.690397 459.787234 
L 409.349056 538.167488 
L 409.568609 372.849226 
L 409.788162 397.460466 
L 410.007715 518.62172 
L 410.227269 465.305662 
L 410.446822 456.781274 
L 410.666375 425.044555 
L 410.885928 472.102653 
L 411.325034 512.864733 
L 411.544587 463.710672 
L 411.764141 488.826524 
L 412.203247 404.588185 
L 412.4228 448.078864 
L 412.642353 371.661855 
L 412.861906 470.176313 
L 413.08146 444.417348 
L 413.301013 484.061094 
L 413.520566 501.172681 
L 413.740119 399.98957 
L 413.959672 495.84743 
L 414.179225 420.255767 
L 414.398778 425.218654 
L 414.618332 455.139329 
L 414.837885 505.535436 
L 415.057438 509.351721 
L 415.276991 410.92259 
L 415.496544 511.721747 
L 415.716097 530.636672 
L 415.935651 423.280909 
L 416.155204 432.296966 
L 416.374757 485.388654 
L 416.59431 452.346171 
L 416.813863 482.784119 
L 417.252969 370.616079 
L 417.472523 504.407906 
L 417.692076 472.619945 
L 417.911629 465.986965 
L 418.350735 509.865253 
L 418.570288 520.796673 
L 419.009395 378.88308 
L 419.448501 446.773662 
L 419.668054 384.657036 
L 419.887607 465.817831 
L 420.10716 409.740624 
L 420.326714 496.610685 
L 420.546267 462.649082 
L 420.76582 471.330403 
L 420.985373 457.987798 
L 421.204926 435.178279 
L 421.424479 514.701308 
L 421.644033 431.018686 
L 421.863586 443.619797 
L 422.083139 388.088942 
L 422.302692 536.30762 
L 422.522245 514.960906 
L 422.741798 464.04668 
L 422.961351 504.096124 
L 423.180905 442.146671 
L 423.620011 240.518853 
L 423.839564 529.118244 
L 424.059117 515.903636 
L 424.27867 488.965184 
L 424.717777 540.774964 
L 425.156883 362.822604 
L 425.376436 417.118576 
L 425.595989 359.93271 
L 425.815542 418.679056 
L 426.035096 368.099285 
L 426.254649 548.178561 
L 426.913308 442.291661 
L 427.132861 433.67643 
L 427.352415 476.887312 
L 427.571968 486.771847 
L 427.791521 437.831017 
L 428.011074 539.23848 
L 428.230627 380.220465 
L 428.45018 486.30201 
L 428.669733 367.515928 
L 428.889287 534.372394 
L 429.10884 357.444098 
L 429.328393 498.53351 
L 429.547946 494.580466 
L 429.767499 447.907904 
L 429.987052 461.285485 
L 430.206606 545.868236 
L 430.426159 451.548786 
L 430.865265 389.934756 
L 431.084818 478.003939 
L 431.304371 419.150152 
L 431.523924 328.882132 
L 431.743478 493.162826 
L 432.182584 400.762904 
L 432.402137 448.202184 
L 432.62169 459.128505 
L 432.841243 412.46883 
L 433.060797 405.963076 
L 433.28035 442.822871 
L 433.499903 453.212531 
L 433.719456 415.983266 
L 433.939009 530.89424 
L 434.158562 369.987808 
L 434.378115 519.313194 
L 434.597669 445.747087 
L 434.817222 491.878004 
L 435.036775 513.981348 
L 435.256328 438.023987 
L 435.475881 488.339334 
L 435.695434 442.012502 
L 435.914988 442.669021 
L 436.134541 500.877924 
L 436.573647 483.996368 
L 436.7932 439.123565 
L 437.012753 510.589651 
L 437.232306 503.185203 
L 437.45186 424.008292 
L 437.671413 465.331775 
L 437.890966 394.845868 
L 438.110519 500.023315 
L 438.330072 452.112239 
L 438.549625 469.695526 
L 438.769178 347.678152 
L 438.988732 467.436932 
L 439.208285 518.209883 
L 439.647391 403.331071 
L 439.866944 432.694243 
L 440.086497 436.394923 
L 440.306051 494.538966 
L 440.525604 370.673398 
L 440.745157 360.168895 
L 440.96471 471.519836 
L 441.184263 408.005549 
L 441.403816 457.556765 
L 441.623369 436.677079 
L 441.842923 525.328219 
L 442.062476 399.210882 
L 442.282029 483.223284 
L 442.501582 424.040105 
L 442.721135 437.846943 
L 442.940688 494.209413 
L 443.160242 503.861181 
L 443.379795 438.013198 
L 443.599348 511.785302 
L 443.818901 423.983287 
L 444.038454 522.396211 
L 444.258007 434.811402 
L 444.47756 427.479631 
L 444.697114 428.244497 
L 444.916667 504.640278 
L 445.13622 500.461331 
L 445.575326 415.423991 
L 445.794879 514.405335 
L 446.014433 448.932997 
L 446.233986 471.798895 
L 446.453539 509.464177 
L 446.673092 404.673898 
L 446.892645 404.455667 
L 447.112198 330.754938 
L 447.551305 500.280129 
L 447.770858 505.147524 
L 447.990411 434.68239 
L 448.209964 490.392563 
L 448.429517 452.830654 
L 448.64907 501.759159 
L 448.868624 427.362083 
L 449.30773 463.207382 
L 449.746836 479.050766 
L 449.966389 544.785317 
L 450.185942 407.572844 
L 450.625049 424.62148 
L 450.844602 514.544646 
L 451.064155 394.69203 
L 451.283708 534.517587 
L 451.503261 411.783596 
L 451.722815 386.17564 
L 451.942368 429.766696 
L 452.161921 417.437208 
L 452.381474 502.205602 
L 452.601027 509.781116 
L 452.82058 418.578578 
L 453.040133 486.995383 
L 453.259687 397.212862 
L 453.47924 503.381489 
L 453.698793 436.107738 
L 453.918346 451.262981 
L 454.357452 530.423601 
L 455.016112 450.605691 
L 455.235665 490.136846 
L 455.455218 424.945109 
L 455.674771 460.496182 
L 455.894324 352.816084 
L 456.113878 451.420454 
L 456.333431 418.260147 
L 456.552984 503.752671 
L 456.772537 462.920435 
L 456.99209 390.033298 
L 457.211643 494.513848 
L 457.431197 481.685514 
L 457.65075 520.752781 
L 458.089856 444.7782 
L 458.309409 456.94182 
L 458.528962 509.926799 
L 458.748515 484.707679 
L 458.968069 486.41798 
L 459.187622 372.742883 
L 459.407175 513.432812 
L 459.626728 509.004217 
L 459.846281 435.4087 
L 460.065834 479.410958 
L 460.504941 443.292364 
L 460.724494 370.803991 
L 460.944047 443.254413 
L 461.1636 448.660762 
L 461.383153 430.187185 
L 461.602706 389.07659 
L 461.82226 469.785454 
L 462.041813 385.785144 
L 462.261366 501.2814 
L 462.480919 456.950383 
L 462.700472 533.189427 
L 463.139579 407.607864 
L 463.359132 483.59815 
L 463.578685 479.827077 
L 463.798238 462.054161 
L 464.017791 508.311199 
L 464.237344 515.060666 
L 464.676451 430.625623 
L 464.896004 560.280111 
L 465.115557 448.471954 
L 465.33511 461.553921 
L 465.554663 441.566746 
L 465.774216 511.316681 
L 465.993769 476.873603 
L 466.213323 504.508314 
L 466.652429 427.635005 
L 466.871982 411.031333 
L 467.091535 455.357154 
L 467.311088 528.881674 
L 467.530642 488.854825 
L 467.750195 495.617011 
L 467.969748 455.212624 
L 468.189301 488.173189 
L 468.408854 466.340088 
L 468.628407 420.944841 
L 468.84796 419.474736 
L 469.287067 450.881589 
L 469.50662 488.091457 
L 469.726173 490.709387 
L 469.945726 544.196774 
L 470.384833 499.818948 
L 470.604386 382.567044 
L 470.823939 334.948559 
L 471.043492 462.400239 
L 471.263045 495.674462 
L 471.482598 411.167429 
L 471.702151 535.033429 
L 471.921705 481.917225 
L 472.141258 474.059301 
L 472.360811 439.871521 
L 472.580364 463.51679 
L 472.799917 467.768861 
L 473.01947 467.231369 
L 473.239024 428.576046 
L 473.458577 509.709757 
L 473.67813 442.191863 
L 473.897683 444.077632 
L 474.117236 457.613276 
L 474.336789 426.865652 
L 474.556342 448.178497 
L 474.775896 444.743803 
L 474.995449 343.056411 
L 475.215002 392.383545 
L 475.434555 471.346883 
L 475.654108 473.32315 
L 475.873661 481.472897 
L 476.093215 465.297975 
L 476.312768 503.016675 
L 476.751874 444.464446 
L 476.971427 512.504986 
L 477.19098 498.509507 
L 477.410533 514.496404 
L 477.630087 502.199593 
L 477.84964 453.431554 
L 478.069193 496.203903 
L 478.288746 432.57633 
L 478.508299 428.963332 
L 478.727852 421.144295 
L 478.947406 491.305426 
L 479.386512 350.67397 
L 479.606065 505.547605 
L 480.045171 454.581416 
L 480.264724 525.896354 
L 480.484278 482.300899 
L 480.703831 499.328828 
L 480.923384 476.424393 
L 481.142937 381.141268 
L 481.36249 427.633249 
L 481.582043 418.36063 
L 481.801597 489.307482 
L 482.02115 316.713387 
L 482.240703 366.314897 
L 482.460256 526.217234 
L 482.679809 545.011565 
L 482.899362 416.695751 
L 483.118915 401.670413 
L 483.558022 474.933929 
L 483.777575 502.772533 
L 483.997128 321.458468 
L 484.216681 517.604123 
L 484.436234 437.228066 
L 484.655788 512.567269 
L 484.875341 462.242598 
L 485.094894 490.346013 
L 485.314447 540.458549 
L 485.534 496.748161 
L 485.753553 429.095254 
L 485.973106 402.071088 
L 486.19266 472.531837 
L 486.631766 401.160934 
L 486.851319 479.341476 
L 487.290425 513.314642 
L 487.509979 487.844918 
L 487.729532 327.570624 
L 487.949085 404.769975 
L 488.168638 441.158534 
L 488.388191 534.19793 
L 488.607744 307.415235 
L 488.827297 483.539224 
L 489.046851 462.04596 
L 489.266404 459.910084 
L 489.485957 420.628561 
L 489.70551 526.501364 
L 489.925063 480.576716 
L 490.144616 491.446781 
L 490.364169 489.759712 
L 490.583723 383.140464 
L 491.022829 458.908611 
L 491.242382 422.945934 
L 491.461935 481.101 
L 491.681488 450.62286 
L 491.901042 350.156206 
L 492.120595 470.421776 
L 492.559701 441.35792 
L 492.779254 359.092888 
L 492.998807 511.335045 
L 493.21836 331.135105 
L 493.437914 504.32238 
L 493.657467 548.448433 
L 493.87702 497.749272 
L 494.096573 492.313832 
L 494.316126 536.690816 
L 494.535679 504.261308 
L 494.755233 494.566184 
L 494.974786 477.108024 
L 495.413892 523.896311 
L 495.633445 489.223358 
L 495.852998 510.535183 
L 496.072551 488.123897 
L 496.292105 404.925447 
L 496.511658 423.712111 
L 496.950764 524.354428 
L 497.170317 427.715758 
L 497.38987 452.197054 
L 497.609424 453.239652 
L 497.828977 463.551924 
L 498.04853 445.864961 
L 498.268083 364.986248 
L 498.707189 438.491754 
L 498.926742 409.193183 
L 499.146296 416.77321 
L 499.365849 516.909157 
L 499.585402 413.218183 
L 499.804955 429.377755 
L 500.024508 538.767842 
L 500.244061 365.022196 
L 500.463615 508.033822 
L 500.683168 348.1596 
L 500.902721 485.989294 
L 501.122274 470.774612 
L 501.341827 432.078183 
L 501.56138 459.229395 
L 501.780933 440.935127 
L 502.000487 369.125412 
L 502.22004 532.924774 
L 502.439593 511.089793 
L 502.659146 369.690061 
L 503.098252 474.467706 
L 503.317806 402.227685 
L 503.537359 477.010314 
L 503.756912 410.018493 
L 503.976465 484.45328 
L 504.196018 439.876807 
L 504.415571 465.36999 
L 504.635124 406.535283 
L 504.854678 437.757914 
L 505.074231 494.718949 
L 505.293784 388.458532 
L 505.513337 488.455161 
L 505.73289 461.422685 
L 505.952443 472.461593 
L 506.171997 414.232393 
L 506.39155 404.600851 
L 506.611103 415.351983 
L 506.830656 482.739136 
L 507.050209 454.463966 
L 507.269762 373.299134 
L 507.489315 517.612858 
L 507.708869 509.677477 
L 507.928422 380.700439 
L 508.147975 457.141356 
L 508.367528 460.822482 
L 508.587081 421.015821 
L 508.806634 454.700529 
L 509.026188 438.990831 
L 509.245741 443.527829 
L 509.465294 508.641163 
L 509.684847 524.634892 
L 509.9044 477.41901 
L 510.123953 456.289407 
L 510.343506 466.450396 
L 510.56306 527.104895 
L 510.782613 488.160379 
L 511.002166 526.586232 
L 511.221719 399.30843 
L 511.441272 511.825272 
L 511.660825 496.197984 
L 511.880379 531.885437 
L 512.099932 477.78031 
L 512.319485 533.637414 
L 512.539038 472.018573 
L 512.758591 502.518698 
L 512.978144 442.396655 
L 513.197697 508.858519 
L 513.417251 403.729307 
L 513.636804 382.986794 
L 513.856357 495.473725 
L 514.07591 381.714597 
L 514.295463 476.025394 
L 514.515016 456.561067 
L 514.73457 471.006581 
L 514.954123 385.677566 
L 515.173676 365.021888 
L 515.393229 442.512159 
L 515.612782 447.556077 
L 515.832335 519.364463 
L 516.051888 521.219291 
L 516.271442 440.858897 
L 516.490995 453.02518 
L 516.710548 387.843055 
L 516.930101 471.463025 
L 517.149654 463.829386 
L 517.369207 471.874446 
L 517.58876 467.429581 
L 517.808314 523.035961 
L 518.027867 399.643042 
L 518.24742 478.407678 
L 518.466973 500.196025 
L 518.686526 416.716963 
L 518.906079 426.503215 
L 519.125633 446.854817 
L 519.345186 495.932725 
L 519.564739 461.646478 
L 519.784292 522.531695 
L 520.003845 403.199494 
L 520.223398 427.386871 
L 520.442951 529.732488 
L 520.662505 471.899187 
L 520.882058 488.327153 
L 521.101611 565.396893 
L 521.321164 437.785195 
L 521.540717 454.894953 
L 521.76027 377.510498 
L 521.979824 449.996032 
L 522.199377 466.09489 
L 522.41893 490.59418 
L 522.638483 416.059372 
L 522.858036 446.087094 
L 523.077589 418.625975 
L 523.297142 485.452811 
L 523.516696 490.978913 
L 523.736249 413.070088 
L 523.955802 477.966359 
L 524.614461 460.466252 
L 524.834015 425.973251 
L 525.053568 359.52714 
L 525.273121 487.040085 
L 525.492674 380.686539 
L 525.712227 488.472828 
L 525.93178 376.109897 
L 526.151333 369.57336 
L 526.370887 512.929633 
L 526.809993 473.149433 
L 527.249099 535.420773 
L 527.468652 510.513087 
L 527.907759 490.923423 
L 528.127312 463.537907 
L 528.346865 411.112891 
L 528.785971 511.890575 
L 529.005524 509.241663 
L 529.225078 481.986899 
L 529.444631 440.120577 
L 529.664184 482.298327 
L 530.10329 522.926545 
L 530.542397 398.928618 
L 530.981503 516.115558 
L 531.201056 445.17809 
L 531.640162 486.967945 
L 531.859715 443.565762 
L 532.079269 508.045366 
L 532.298822 482.760667 
L 532.737928 495.29869 
L 532.957481 349.987202 
L 533.177034 473.297884 
L 533.396588 510.704955 
L 533.616141 490.733179 
L 533.835694 419.882414 
L 534.055247 457.665971 
L 534.2748 431.066358 
L 534.494353 385.698731 
L 534.713906 466.665449 
L 534.93346 490.193058 
L 535.153013 463.659955 
L 535.372566 452.853092 
L 535.592119 523.163164 
L 535.811672 498.282744 
L 536.031225 413.479574 
L 536.250779 499.236399 
L 536.470332 459.192845 
L 536.689885 489.149539 
L 536.909438 485.776423 
L 537.128991 533.329986 
L 537.568097 457.197439 
L 537.787651 534.787688 
L 538.007204 439.085422 
L 538.44631 477.416227 
L 538.665863 451.60431 
L 538.885416 545.567966 
L 539.10497 436.907514 
L 539.324523 422.806829 
L 539.763629 483.491846 
L 539.983182 447.415636 
L 540.202735 505.546595 
L 540.422288 366.049686 
L 540.861395 457.357332 
L 541.080948 329.290363 
L 541.300501 549.039842 
L 541.520054 454.378598 
L 541.739607 442.973829 
L 541.95916 502.654136 
L 542.178714 488.714857 
L 542.398267 426.991988 
L 542.61782 504.169312 
L 542.837373 302.265808 
L 543.056926 466.650714 
L 543.276479 406.734129 
L 543.496033 421.688518 
L 543.715586 446.661223 
L 543.935139 504.220842 
L 544.154692 416.387984 
L 544.374245 513.283405 
L 544.813351 389.600869 
L 545.252458 481.71963 
L 545.472011 436.705919 
L 545.691564 483.760735 
L 545.911117 410.35168 
L 546.13067 523.143918 
L 546.350224 455.734618 
L 546.569777 539.844829 
L 547.008883 375.654255 
L 547.228436 523.041117 
L 547.447989 463.288892 
L 547.667542 508.344729 
L 547.887096 496.152838 
L 548.106649 410.779055 
L 548.326202 459.940664 
L 548.545755 482.815915 
L 548.765308 430.566464 
L 548.984861 408.764577 
L 549.204415 467.323156 
L 549.423968 469.124828 
L 549.643521 487.168946 
L 549.863074 431.595834 
L 550.082627 290.522699 
L 550.30218 501.362126 
L 550.521733 377.835029 
L 550.741287 482.496568 
L 550.96084 500.854031 
L 551.180393 394.161604 
L 551.399946 535.812874 
L 551.619499 377.393196 
L 551.839052 469.024301 
L 552.058606 477.925255 
L 552.278159 497.016526 
L 552.497712 426.753391 
L 552.717265 500.798543 
L 552.936818 430.943507 
L 553.156371 532.117021 
L 553.375924 508.596247 
L 553.595478 419.488743 
L 553.815031 445.522689 
L 554.034584 511.858009 
L 554.254137 448.099026 
L 554.47369 504.890949 
L 554.693243 492.524777 
L 554.912797 466.602041 
L 555.13235 463.603264 
L 555.351903 394.516714 
L 555.571456 456.007997 
L 555.791009 467.453867 
L 556.010562 489.871133 
L 556.230115 384.910504 
L 556.449669 526.337339 
L 556.669222 399.098225 
L 556.888775 490.554632 
L 557.108328 514.062799 
L 557.327881 413.143157 
L 557.547434 434.790345 
L 557.766988 339.948906 
L 557.986541 474.757378 
L 558.206094 429.491804 
L 558.6452 387.2311 
L 558.864753 513.372678 
L 559.084306 402.952097 
L 559.30386 530.211539 
L 559.523413 427.783658 
L 559.742966 514.793847 
L 559.742966 514.793847 
" style="fill:none;stroke:#96c69a;stroke-linecap:round;stroke-width:3;"/>
   </g>
   <g id="line2d_2"/>
   <g id="patch_3">
    <path d="M 98.911875 603.86 
L 98.911875 109.484571 
" style="fill:none;stroke:#262626;stroke-linecap:square;stroke-linejoin:miter;stroke-width:2.5;"/>
   </g>
   <g id="patch_4">
    <path d="M 98.911875 603.86 
L 581.687304 603.86 
" style="fill:none;stroke:#262626;stroke-linecap:square;stroke-linejoin:miter;stroke-width:2.5;"/>
   </g>
   <g id="legend_1">
    <g id="patch_5">
     <path d="M 528.771679 598.86 
L 574.687304 598.86 
Q 576.687304 598.86 576.687304 596.86 
L 576.687304 554.954375 
Q 576.687304 552.954375 574.687304 552.954375 
L 528.771679 552.954375 
Q 526.771679 552.954375 526.771679 554.954375 
L 526.771679 596.86 
Q 526.771679 598.86 528.771679 598.86 
z
" style="fill:#ffffff;opacity:0.8;stroke:#cccccc;stroke-linejoin:miter;stroke-width:2;"/>
    </g>
    <g id="text_17">
     <!-- $n_\tau$ -->
     <g style="fill:#262626;" transform="translate(538.649491 575.190625)scale(0.24 -0.24)">
      <defs>
       <path d="M 3566 2113 
L 3156 0 
L 2578 0 
L 2988 2091 
Q 3016 2238 3031 2350 
Q 3047 2463 3047 2528 
Q 3047 2791 2881 2937 
Q 2716 3084 2419 3084 
Q 1956 3084 1622 2776 
Q 1288 2469 1184 1941 
L 800 0 
L 225 0 
L 903 3500 
L 1478 3500 
L 1363 2950 
Q 1603 3253 1940 3418 
Q 2278 3584 2650 3584 
Q 3113 3584 3367 3334 
Q 3622 3084 3622 2631 
Q 3622 2519 3608 2391 
Q 3594 2263 3566 2113 
z
" id="DejaVuSans-Oblique-6e" transform="scale(0.015625)"/>
       <path d="M 2103 638 
Q 2188 488 2525 488 
L 2800 488 
L 2706 0 
L 2363 0 
Q 1800 0 1600 300 
Q 1403 606 1534 1269 
L 1856 2925 
L 541 2925 
L 653 3500 
L 3881 3500 
L 3769 2925 
L 2444 2925 
L 2113 1234 
Q 2025 781 2103 638 
z
" id="DejaVuSans-Oblique-3c4" transform="scale(0.015625)"/>
      </defs>
      <use xlink:href="#DejaVuSans-Oblique-6e"/>
      <use transform="translate(63.378906 -16.40625)scale(0.7)" xlink:href="#DejaVuSans-Oblique-3c4"/>
     </g>
    </g>
    <g id="line2d_3">
     <path d="M 530.771679 589.280313 
L 550.771679 589.280313 
" style="fill:none;stroke:#96c69a;stroke-linecap:round;stroke-width:3;"/>
    </g>
    <g id="line2d_4"/>
    <g id="text_18">
     <!-- 80 -->
     <g style="fill:#262626;" transform="translate(558.771679 592.780313)scale(0.1 -0.1)">
      <defs>
       <path d="M 2228 2088 
Q 1891 2088 1709 1903 
Q 1528 1719 1528 1375 
Q 1528 1031 1709 848 
Q 1891 666 2228 666 
Q 2563 666 2741 848 
Q 2919 1031 2919 1375 
Q 2919 1722 2741 1905 
Q 2563 2088 2228 2088 
z
M 1350 2484 
Q 925 2613 709 2878 
Q 494 3144 494 3541 
Q 494 4131 934 4440 
Q 1375 4750 2228 4750 
Q 3075 4750 3515 4442 
Q 3956 4134 3956 3541 
Q 3956 3144 3739 2878 
Q 3522 2613 3097 2484 
Q 3572 2353 3814 2058 
Q 4056 1763 4056 1313 
Q 4056 619 3595 264 
Q 3134 -91 2228 -91 
Q 1319 -91 855 264 
Q 391 619 391 1313 
Q 391 1763 633 2058 
Q 875 2353 1350 2484 
z
M 1631 3419 
Q 1631 3141 1786 2991 
Q 1941 2841 2228 2841 
Q 2509 2841 2662 2991 
Q 2816 3141 2816 3419 
Q 2816 3697 2662 3845 
Q 2509 3994 2228 3994 
Q 1941 3994 1786 3844 
Q 1631 3694 1631 3419 
z
" id="DejaVuSans-Bold-38" transform="scale(0.015625)"/>
       <path d="M 2944 2338 
Q 2944 3213 2780 3570 
Q 2616 3928 2228 3928 
Q 1841 3928 1675 3570 
Q 1509 3213 1509 2338 
Q 1509 1453 1675 1090 
Q 1841 728 2228 728 
Q 2613 728 2778 1090 
Q 2944 1453 2944 2338 
z
M 4147 2328 
Q 4147 1169 3647 539 
Q 3147 -91 2228 -91 
Q 1306 -91 806 539 
Q 306 1169 306 2328 
Q 306 3491 806 4120 
Q 1306 4750 2228 4750 
Q 3147 4750 3647 4120 
Q 4147 3491 4147 2328 
z
" id="DejaVuSans-Bold-30" transform="scale(0.015625)"/>
      </defs>
      <use xlink:href="#DejaVuSans-Bold-38"/>
      <use x="69.580078" xlink:href="#DejaVuSans-Bold-30"/>
     </g>
    </g>
   </g>
  </g>
  <g id="axes_2">
   <g id="patch_6">
    <path d="M 98.911875 92.437143 
L 581.687304 92.437143 
L 581.687304 7.2 
L 98.911875 7.2 
z
" style="fill:none;"/>
   </g>
   <g id="matplotlib.axis_3">
    <g id="xtick_7"/>
    <g id="xtick_8"/>
    <g id="xtick_9"/>
    <g id="xtick_10"/>
    <g id="xtick_11"/>
    <g id="xtick_12"/>
   </g>
   <g id="matplotlib.axis_4">
    <g id="ytick_9">
     <g id="text_19">
      <!-- 0 -->
      <g style="fill:#262626;" transform="translate(69.414375 100.795424)scale(0.22 -0.22)">
       <use xlink:href="#DejaVuSans-30"/>
      </g>
     </g>
    </g>
    <g id="ytick_10">
     <g id="text_20">
      <!-- 100 -->
      <g style="fill:#262626;" transform="translate(41.419375 48.082287)scale(0.22 -0.22)">
       <use xlink:href="#DejaVuSans-31"/>
       <use x="63.623047" xlink:href="#DejaVuSans-30"/>
       <use x="127.246094" xlink:href="#DejaVuSans-30"/>
      </g>
     </g>
    </g>
   </g>
   <g id="patch_7">
    <path clip-path="url(#pfc9c840985)" d="M 120.856213 92.437143 
L 154.616732 92.437143 
L 154.616732 11.258912 
L 120.856213 11.258912 
z
" style="fill:#96c69a;fill-opacity:0.5;stroke:#ffffff;stroke-linejoin:miter;stroke-width:2;"/>
   </g>
   <g id="patch_8">
    <path clip-path="url(#pfc9c840985)" d="M 154.616732 92.437143 
L 188.377252 92.437143 
L 188.377252 11.258912 
L 154.616732 11.258912 
z
" style="fill:#96c69a;fill-opacity:0.5;stroke:#ffffff;stroke-linejoin:miter;stroke-width:2;"/>
   </g>
   <g id="patch_9">
    <path clip-path="url(#pfc9c840985)" d="M 188.377252 92.437143 
L 222.137771 92.437143 
L 222.137771 11.258912 
L 188.377252 11.258912 
z
" style="fill:#96c69a;fill-opacity:0.5;stroke:#ffffff;stroke-linejoin:miter;stroke-width:2;"/>
   </g>
   <g id="patch_10">
    <path clip-path="url(#pfc9c840985)" d="M 222.137771 92.437143 
L 255.898291 92.437143 
L 255.898291 11.258912 
L 222.137771 11.258912 
z
" style="fill:#96c69a;fill-opacity:0.5;stroke:#ffffff;stroke-linejoin:miter;stroke-width:2;"/>
   </g>
   <g id="patch_11">
    <path clip-path="url(#pfc9c840985)" d="M 255.898291 92.437143 
L 289.65881 92.437143 
L 289.65881 11.786043 
L 255.898291 11.786043 
z
" style="fill:#96c69a;fill-opacity:0.5;stroke:#ffffff;stroke-linejoin:miter;stroke-width:2;"/>
   </g>
   <g id="patch_12">
    <path clip-path="url(#pfc9c840985)" d="M 289.65881 92.437143 
L 323.41933 92.437143 
L 323.41933 11.258912 
L 289.65881 11.258912 
z
" style="fill:#96c69a;fill-opacity:0.5;stroke:#ffffff;stroke-linejoin:miter;stroke-width:2;"/>
   </g>
   <g id="patch_13">
    <path clip-path="url(#pfc9c840985)" d="M 323.41933 92.437143 
L 357.179849 92.437143 
L 357.179849 11.258912 
L 323.41933 11.258912 
z
" style="fill:#96c69a;fill-opacity:0.5;stroke:#ffffff;stroke-linejoin:miter;stroke-width:2;"/>
   </g>
   <g id="patch_14">
    <path clip-path="url(#pfc9c840985)" d="M 357.179849 92.437143 
L 390.940369 92.437143 
L 390.940369 11.258912 
L 357.179849 11.258912 
z
" style="fill:#96c69a;fill-opacity:0.5;stroke:#ffffff;stroke-linejoin:miter;stroke-width:2;"/>
   </g>
   <g id="patch_15">
    <path clip-path="url(#pfc9c840985)" d="M 390.940369 92.437143 
L 424.700888 92.437143 
L 424.700888 11.786043 
L 390.940369 11.786043 
z
" style="fill:#96c69a;fill-opacity:0.5;stroke:#ffffff;stroke-linejoin:miter;stroke-width:2;"/>
   </g>
   <g id="patch_16">
    <path clip-path="url(#pfc9c840985)" d="M 424.700888 92.437143 
L 458.461407 92.437143 
L 458.461407 11.258912 
L 424.700888 11.258912 
z
" style="fill:#96c69a;fill-opacity:0.5;stroke:#ffffff;stroke-linejoin:miter;stroke-width:2;"/>
   </g>
   <g id="patch_17">
    <path clip-path="url(#pfc9c840985)" d="M 458.461407 92.437143 
L 492.221927 92.437143 
L 492.221927 11.258912 
L 458.461407 11.258912 
z
" style="fill:#96c69a;fill-opacity:0.5;stroke:#ffffff;stroke-linejoin:miter;stroke-width:2;"/>
   </g>
   <g id="patch_18">
    <path clip-path="url(#pfc9c840985)" d="M 492.221927 92.437143 
L 525.982446 92.437143 
L 525.982446 11.258912 
L 492.221927 11.258912 
z
" style="fill:#96c69a;fill-opacity:0.5;stroke:#ffffff;stroke-linejoin:miter;stroke-width:2;"/>
   </g>
   <g id="patch_19">
    <path clip-path="url(#pfc9c840985)" d="M 525.982446 92.437143 
L 559.742966 92.437143 
L 559.742966 11.258912 
L 525.982446 11.258912 
z
" style="fill:#96c69a;fill-opacity:0.5;stroke:#ffffff;stroke-linejoin:miter;stroke-width:2;"/>
   </g>
   <g id="patch_20">
    <path d="M 98.911875 92.437143 
L 98.911875 7.2 
" style="fill:none;stroke:#262626;stroke-linecap:square;stroke-linejoin:miter;stroke-width:2.5;"/>
   </g>
   <g id="patch_21">
    <path d="M 98.911875 92.437143 
L 581.687304 92.437143 
" style="fill:none;stroke:#262626;stroke-linecap:square;stroke-linejoin:miter;stroke-width:2.5;"/>
   </g>
  </g>
  <g id="axes_3">
   <g id="patch_22">
    <path d="M 598.334732 603.86 
L 681.571875 603.86 
L 681.571875 109.484571 
L 598.334732 109.484571 
z
" style="fill:none;"/>
   </g>
   <g id="matplotlib.axis_5">
    <g id="xtick_13">
     <g id="text_21">
      <!-- 0 -->
      <g style="fill:#262626;" transform="translate(591.335982 636.076563)scale(0.22 -0.22)">
       <use xlink:href="#DejaVuSans-30"/>
      </g>
     </g>
    </g>
    <g id="xtick_14">
     <g id="text_22">
      <!-- 100 -->
      <g style="fill:#262626;" transform="translate(621.625337 636.076563)scale(0.22 -0.22)">
       <use xlink:href="#DejaVuSans-31"/>
       <use x="63.623047" xlink:href="#DejaVuSans-30"/>
       <use x="127.246094" xlink:href="#DejaVuSans-30"/>
      </g>
     </g>
    </g>
   </g>
   <g id="matplotlib.axis_6">
    <g id="ytick_11"/>
    <g id="ytick_12"/>
    <g id="ytick_13"/>
    <g id="ytick_14"/>
    <g id="ytick_15"/>
    <g id="ytick_16"/>
    <g id="ytick_17"/>
    <g id="ytick_18"/>
   </g>
   <g id="patch_23">
    <path clip-path="url(#pfcca8da1e0)" d="M 598.334732 581.38839 
L 599.220469 581.38839 
L 599.220469 571.174021 
L 598.334732 571.174021 
z
" style="fill:#96c69a;fill-opacity:0.5;stroke:#ffffff;stroke-linejoin:miter;stroke-width:1.021437;"/>
   </g>
   <g id="patch_24">
    <path clip-path="url(#pfcca8da1e0)" d="M 598.334732 571.174021 
L 600.549075 571.174021 
L 600.549075 560.959653 
L 598.334732 560.959653 
z
" style="fill:#96c69a;fill-opacity:0.5;stroke:#ffffff;stroke-linejoin:miter;stroke-width:1.021437;"/>
   </g>
   <g id="patch_25">
    <path clip-path="url(#pfcca8da1e0)" d="M 598.334732 560.959653 
L 603.206286 560.959653 
L 603.206286 550.745285 
L 598.334732 550.745285 
z
" style="fill:#96c69a;fill-opacity:0.5;stroke:#ffffff;stroke-linejoin:miter;stroke-width:1.021437;"/>
   </g>
   <g id="patch_26">
    <path clip-path="url(#pfcca8da1e0)" d="M 598.334732 550.745285 
L 614.720868 550.745285 
L 614.720868 540.530916 
L 598.334732 540.530916 
z
" style="fill:#96c69a;fill-opacity:0.5;stroke:#ffffff;stroke-linejoin:miter;stroke-width:1.021437;"/>
   </g>
   <g id="patch_27">
    <path clip-path="url(#pfcca8da1e0)" d="M 598.334732 540.530916 
L 619.149554 540.530916 
L 619.149554 530.316548 
L 598.334732 530.316548 
z
" style="fill:#96c69a;fill-opacity:0.5;stroke:#ffffff;stroke-linejoin:miter;stroke-width:1.021437;"/>
   </g>
   <g id="patch_28">
    <path clip-path="url(#pfcca8da1e0)" d="M 598.334732 530.316548 
L 628.006925 530.316548 
L 628.006925 520.102179 
L 598.334732 520.102179 
z
" style="fill:#96c69a;fill-opacity:0.5;stroke:#ffffff;stroke-linejoin:miter;stroke-width:1.021437;"/>
   </g>
   <g id="patch_29">
    <path clip-path="url(#pfcca8da1e0)" d="M 598.334732 520.102179 
L 643.507324 520.102179 
L 643.507324 509.887811 
L 598.334732 509.887811 
z
" style="fill:#96c69a;fill-opacity:0.5;stroke:#ffffff;stroke-linejoin:miter;stroke-width:1.021437;"/>
   </g>
   <g id="patch_30">
    <path clip-path="url(#pfcca8da1e0)" d="M 598.334732 509.887811 
L 657.679117 509.887811 
L 657.679117 499.673443 
L 598.334732 499.673443 
z
" style="fill:#96c69a;fill-opacity:0.5;stroke:#ffffff;stroke-linejoin:miter;stroke-width:1.021437;"/>
   </g>
   <g id="patch_31">
    <path clip-path="url(#pfcca8da1e0)" d="M 598.334732 499.673443 
L 665.650751 499.673443 
L 665.650751 489.459074 
L 598.334732 489.459074 
z
" style="fill:#96c69a;fill-opacity:0.5;stroke:#ffffff;stroke-linejoin:miter;stroke-width:1.021437;"/>
   </g>
   <g id="patch_32">
    <path clip-path="url(#pfcca8da1e0)" d="M 598.334732 489.459074 
L 677.608202 489.459074 
L 677.608202 479.244706 
L 598.334732 479.244706 
z
" style="fill:#96c69a;fill-opacity:0.5;stroke:#ffffff;stroke-linejoin:miter;stroke-width:1.021437;"/>
   </g>
   <g id="patch_33">
    <path clip-path="url(#pfcca8da1e0)" d="M 598.334732 479.244706 
L 672.293779 479.244706 
L 672.293779 469.030338 
L 598.334732 469.030338 
z
" style="fill:#96c69a;fill-opacity:0.5;stroke:#ffffff;stroke-linejoin:miter;stroke-width:1.021437;"/>
   </g>
   <g id="patch_34">
    <path clip-path="url(#pfcca8da1e0)" d="M 598.334732 469.030338 
L 674.95099 469.030338 
L 674.95099 458.815969 
L 598.334732 458.815969 
z
" style="fill:#96c69a;fill-opacity:0.5;stroke:#ffffff;stroke-linejoin:miter;stroke-width:1.021437;"/>
   </g>
   <g id="patch_35">
    <path clip-path="url(#pfcca8da1e0)" d="M 598.334732 458.815969 
L 663.879277 458.815969 
L 663.879277 448.601601 
L 598.334732 448.601601 
z
" style="fill:#96c69a;fill-opacity:0.5;stroke:#ffffff;stroke-linejoin:miter;stroke-width:1.021437;"/>
   </g>
   <g id="patch_36">
    <path clip-path="url(#pfcca8da1e0)" d="M 598.334732 448.601601 
L 662.99354 448.601601 
L 662.99354 438.387233 
L 598.334732 438.387233 
z
" style="fill:#96c69a;fill-opacity:0.5;stroke:#ffffff;stroke-linejoin:miter;stroke-width:1.021437;"/>
   </g>
   <g id="patch_37">
    <path clip-path="url(#pfcca8da1e0)" d="M 598.334732 438.387233 
L 652.364695 438.387233 
L 652.364695 428.172864 
L 598.334732 428.172864 
z
" style="fill:#96c69a;fill-opacity:0.5;stroke:#ffffff;stroke-linejoin:miter;stroke-width:1.021437;"/>
   </g>
   <g id="patch_38">
    <path clip-path="url(#pfcca8da1e0)" d="M 598.334732 428.172864 
L 646.607403 428.172864 
L 646.607403 417.958496 
L 598.334732 417.958496 
z
" style="fill:#96c69a;fill-opacity:0.5;stroke:#ffffff;stroke-linejoin:miter;stroke-width:1.021437;"/>
   </g>
   <g id="patch_39">
    <path clip-path="url(#pfcca8da1e0)" d="M 598.334732 417.958496 
L 643.064455 417.958496 
L 643.064455 407.744128 
L 598.334732 407.744128 
z
" style="fill:#96c69a;fill-opacity:0.5;stroke:#ffffff;stroke-linejoin:miter;stroke-width:1.021437;"/>
   </g>
   <g id="patch_40">
    <path clip-path="url(#pfcca8da1e0)" d="M 598.334732 407.744128 
L 629.33553 407.744128 
L 629.33553 397.529759 
L 598.334732 397.529759 
z
" style="fill:#96c69a;fill-opacity:0.5;stroke:#ffffff;stroke-linejoin:miter;stroke-width:1.021437;"/>
   </g>
   <g id="patch_41">
    <path clip-path="url(#pfcca8da1e0)" d="M 598.334732 397.529759 
L 622.692502 397.529759 
L 622.692502 387.315391 
L 598.334732 387.315391 
z
" style="fill:#96c69a;fill-opacity:0.5;stroke:#ffffff;stroke-linejoin:miter;stroke-width:1.021437;"/>
   </g>
   <g id="patch_42">
    <path clip-path="url(#pfcca8da1e0)" d="M 598.334732 387.315391 
L 619.149554 387.315391 
L 619.149554 377.101022 
L 598.334732 377.101022 
z
" style="fill:#96c69a;fill-opacity:0.5;stroke:#ffffff;stroke-linejoin:miter;stroke-width:1.021437;"/>
   </g>
   <g id="patch_43">
    <path clip-path="url(#pfcca8da1e0)" d="M 598.334732 377.101022 
L 612.949394 377.101022 
L 612.949394 366.886654 
L 598.334732 366.886654 
z
" style="fill:#96c69a;fill-opacity:0.5;stroke:#ffffff;stroke-linejoin:miter;stroke-width:1.021437;"/>
   </g>
   <g id="patch_44">
    <path clip-path="url(#pfcca8da1e0)" d="M 598.334732 366.886654 
L 610.735051 366.886654 
L 610.735051 356.672286 
L 598.334732 356.672286 
z
" style="fill:#96c69a;fill-opacity:0.5;stroke:#ffffff;stroke-linejoin:miter;stroke-width:1.021437;"/>
   </g>
   <g id="patch_45">
    <path clip-path="url(#pfcca8da1e0)" d="M 598.334732 356.672286 
L 604.534892 356.672286 
L 604.534892 346.457917 
L 598.334732 346.457917 
z
" style="fill:#96c69a;fill-opacity:0.5;stroke:#ffffff;stroke-linejoin:miter;stroke-width:1.021437;"/>
   </g>
   <g id="patch_46">
    <path clip-path="url(#pfcca8da1e0)" d="M 598.334732 346.457917 
L 606.306366 346.457917 
L 606.306366 336.243549 
L 598.334732 336.243549 
z
" style="fill:#96c69a;fill-opacity:0.5;stroke:#ffffff;stroke-linejoin:miter;stroke-width:1.021437;"/>
   </g>
   <g id="patch_47">
    <path clip-path="url(#pfcca8da1e0)" d="M 598.334732 336.243549 
L 604.092023 336.243549 
L 604.092023 326.029181 
L 598.334732 326.029181 
z
" style="fill:#96c69a;fill-opacity:0.5;stroke:#ffffff;stroke-linejoin:miter;stroke-width:1.021437;"/>
   </g>
   <g id="patch_48">
    <path clip-path="url(#pfcca8da1e0)" d="M 598.334732 326.029181 
L 600.991943 326.029181 
L 600.991943 315.814812 
L 598.334732 315.814812 
z
" style="fill:#96c69a;fill-opacity:0.5;stroke:#ffffff;stroke-linejoin:miter;stroke-width:1.021437;"/>
   </g>
   <g id="patch_49">
    <path clip-path="url(#pfcca8da1e0)" d="M 598.334732 315.814812 
L 600.106206 315.814812 
L 600.106206 305.600444 
L 598.334732 305.600444 
z
" style="fill:#96c69a;fill-opacity:0.5;stroke:#ffffff;stroke-linejoin:miter;stroke-width:1.021437;"/>
   </g>
   <g id="patch_50">
    <path clip-path="url(#pfcca8da1e0)" d="M 598.334732 305.600444 
L 599.663338 305.600444 
L 599.663338 295.386076 
L 598.334732 295.386076 
z
" style="fill:#96c69a;fill-opacity:0.5;stroke:#ffffff;stroke-linejoin:miter;stroke-width:1.021437;"/>
   </g>
   <g id="patch_51">
    <path clip-path="url(#pfcca8da1e0)" d="M 598.334732 295.386076 
L 599.220469 295.386076 
L 599.220469 285.171707 
L 598.334732 285.171707 
z
" style="fill:#96c69a;fill-opacity:0.5;stroke:#ffffff;stroke-linejoin:miter;stroke-width:1.021437;"/>
   </g>
   <g id="patch_52">
    <path clip-path="url(#pfcca8da1e0)" d="M 598.334732 285.171707 
L 598.334732 285.171707 
L 598.334732 274.957339 
L 598.334732 274.957339 
z
" style="fill:#96c69a;fill-opacity:0.5;stroke:#ffffff;stroke-linejoin:miter;stroke-width:1.021437;"/>
   </g>
   <g id="patch_53">
    <path clip-path="url(#pfcca8da1e0)" d="M 598.334732 274.957339 
L 598.777601 274.957339 
L 598.777601 264.74297 
L 598.334732 264.74297 
z
" style="fill:#96c69a;fill-opacity:0.5;stroke:#ffffff;stroke-linejoin:miter;stroke-width:1.021437;"/>
   </g>
   <g id="patch_54">
    <path clip-path="url(#pfcca8da1e0)" d="M 598.334732 264.74297 
L 598.777601 264.74297 
L 598.777601 254.528602 
L 598.334732 254.528602 
z
" style="fill:#96c69a;fill-opacity:0.5;stroke:#ffffff;stroke-linejoin:miter;stroke-width:1.021437;"/>
   </g>
   <g id="patch_55">
    <path clip-path="url(#pfcca8da1e0)" d="M 598.334732 254.528602 
L 598.777601 254.528602 
L 598.777601 244.314234 
L 598.334732 244.314234 
z
" style="fill:#96c69a;fill-opacity:0.5;stroke:#ffffff;stroke-linejoin:miter;stroke-width:1.021437;"/>
   </g>
   <g id="patch_56">
    <path clip-path="url(#pfcca8da1e0)" d="M 598.334732 244.314234 
L 598.777601 244.314234 
L 598.777601 234.099865 
L 598.334732 234.099865 
z
" style="fill:#96c69a;fill-opacity:0.5;stroke:#ffffff;stroke-linejoin:miter;stroke-width:1.021437;"/>
   </g>
   <g id="patch_57">
    <path clip-path="url(#pfcca8da1e0)" d="M 598.334732 234.099865 
L 598.334732 234.099865 
L 598.334732 223.885497 
L 598.334732 223.885497 
z
" style="fill:#96c69a;fill-opacity:0.5;stroke:#ffffff;stroke-linejoin:miter;stroke-width:1.021437;"/>
   </g>
   <g id="patch_58">
    <path clip-path="url(#pfcca8da1e0)" d="M 598.334732 223.885497 
L 598.334732 223.885497 
L 598.334732 213.671129 
L 598.334732 213.671129 
z
" style="fill:#96c69a;fill-opacity:0.5;stroke:#ffffff;stroke-linejoin:miter;stroke-width:1.021437;"/>
   </g>
   <g id="patch_59">
    <path clip-path="url(#pfcca8da1e0)" d="M 598.334732 213.671129 
L 598.334732 213.671129 
L 598.334732 203.45676 
L 598.334732 203.45676 
z
" style="fill:#96c69a;fill-opacity:0.5;stroke:#ffffff;stroke-linejoin:miter;stroke-width:1.021437;"/>
   </g>
   <g id="patch_60">
    <path clip-path="url(#pfcca8da1e0)" d="M 598.334732 203.45676 
L 598.334732 203.45676 
L 598.334732 193.242392 
L 598.334732 193.242392 
z
" style="fill:#96c69a;fill-opacity:0.5;stroke:#ffffff;stroke-linejoin:miter;stroke-width:1.021437;"/>
   </g>
   <g id="patch_61">
    <path clip-path="url(#pfcca8da1e0)" d="M 598.334732 193.242392 
L 598.334732 193.242392 
L 598.334732 183.028024 
L 598.334732 183.028024 
z
" style="fill:#96c69a;fill-opacity:0.5;stroke:#ffffff;stroke-linejoin:miter;stroke-width:1.021437;"/>
   </g>
   <g id="patch_62">
    <path clip-path="url(#pfcca8da1e0)" d="M 598.334732 183.028024 
L 598.334732 183.028024 
L 598.334732 172.813655 
L 598.334732 172.813655 
z
" style="fill:#96c69a;fill-opacity:0.5;stroke:#ffffff;stroke-linejoin:miter;stroke-width:1.021437;"/>
   </g>
   <g id="patch_63">
    <path clip-path="url(#pfcca8da1e0)" d="M 598.334732 172.813655 
L 598.334732 172.813655 
L 598.334732 162.599287 
L 598.334732 162.599287 
z
" style="fill:#96c69a;fill-opacity:0.5;stroke:#ffffff;stroke-linejoin:miter;stroke-width:1.021437;"/>
   </g>
   <g id="patch_64">
    <path clip-path="url(#pfcca8da1e0)" d="M 598.334732 162.599287 
L 598.334732 162.599287 
L 598.334732 152.384919 
L 598.334732 152.384919 
z
" style="fill:#96c69a;fill-opacity:0.5;stroke:#ffffff;stroke-linejoin:miter;stroke-width:1.021437;"/>
   </g>
   <g id="patch_65">
    <path clip-path="url(#pfcca8da1e0)" d="M 598.334732 152.384919 
L 598.334732 152.384919 
L 598.334732 142.17055 
L 598.334732 142.17055 
z
" style="fill:#96c69a;fill-opacity:0.5;stroke:#ffffff;stroke-linejoin:miter;stroke-width:1.021437;"/>
   </g>
   <g id="patch_66">
    <path clip-path="url(#pfcca8da1e0)" d="M 598.334732 142.17055 
L 598.777601 142.17055 
L 598.777601 131.956182 
L 598.334732 131.956182 
z
" style="fill:#96c69a;fill-opacity:0.5;stroke:#ffffff;stroke-linejoin:miter;stroke-width:1.021437;"/>
   </g>
   <g id="patch_67">
    <path d="M 598.334732 603.86 
L 598.334732 109.484571 
" style="fill:none;stroke:#262626;stroke-linecap:square;stroke-linejoin:miter;stroke-width:2.5;"/>
   </g>
   <g id="patch_68">
    <path d="M 598.334732 603.86 
L 681.571875 603.86 
" style="fill:none;stroke:#262626;stroke-linecap:square;stroke-linejoin:miter;stroke-width:2.5;"/>
   </g>
  </g>
 </g>
 <defs>
  <clipPath id="p9cfa7a03fb">
   <rect height="494.375429" width="482.775429" x="98.911875" y="109.484571"/>
  </clipPath>
  <clipPath id="pfc9c840985">
   <rect height="85.237143" width="482.775429" x="98.911875" y="7.2"/>
  </clipPath>
  <clipPath id="pfcca8da1e0">
   <rect height="494.375429" width="83.237143" x="598.334732" y="109.484571"/>
  </clipPath>
 </defs>
</svg>
