<?xml version="1.0" encoding="utf-8" standalone="no"?>
<!DOCTYPE svg PUBLIC "-//W3C//DTD SVG 1.1//EN"
  "http://www.w3.org/Graphics/SVG/1.1/DTD/svg11.dtd">
<svg height="674.159375pt" version="1.1" viewBox="0 0 674.984375 674.159375" width="674.984375pt" xmlns="http://www.w3.org/2000/svg" xmlns:xlink="http://www.w3.org/1999/xlink">
 <metadata>
  <rdf:RDF xmlns:cc="http://creativecommons.org/ns#" xmlns:dc="http://purl.org/dc/elements/1.1/" xmlns:rdf="http://www.w3.org/1999/02/22-rdf-syntax-ns#">
   <cc:Work>
    <dc:type rdf:resource="http://purl.org/dc/dcmitype/StillImage"/>
    <dc:date>2021-07-24T14:58:09.821108</dc:date>
    <dc:format>image/svg+xml</dc:format>
    <dc:creator>
     <cc:Agent>
      <dc:title>Matplotlib v3.4.2, https://matplotlib.org/</dc:title>
     </cc:Agent>
    </dc:creator>
   </cc:Work>
  </rdf:RDF>
 </metadata>
 <defs>
  <style type="text/css">*{stroke-linecap:butt;stroke-linejoin:round;}</style>
 </defs>
 <g id="figure_1">
  <g id="patch_1">
   <path d="M 0 674.159375 
L 674.984375 674.159375 
L 674.984375 0 
L 0 0 
z
" style="fill:#ffffff;"/>
  </g>
  <g id="axes_1">
   <g id="patch_2">
    <path d="M 84.914375 602.94 
L 567.863804 602.94 
L 567.863804 109.326857 
L 84.914375 109.326857 
z
" style="fill:none;"/>
   </g>
   <g id="matplotlib.axis_1">
    <g id="xtick_1">
     <g id="text_1">
      <!-- 0 -->
      <g style="fill:#262626;" transform="translate(99.648239 635.156562)scale(0.22 -0.22)">
       <defs>
        <path d="M 2034 4250 
Q 1547 4250 1301 3770 
Q 1056 3291 1056 2328 
Q 1056 1369 1301 889 
Q 1547 409 2034 409 
Q 2525 409 2770 889 
Q 3016 1369 3016 2328 
Q 3016 3291 2770 3770 
Q 2525 4250 2034 4250 
z
M 2034 4750 
Q 2819 4750 3233 4129 
Q 3647 3509 3647 2328 
Q 3647 1150 3233 529 
Q 2819 -91 2034 -91 
Q 1250 -91 836 529 
Q 422 1150 422 2328 
Q 422 3509 836 4129 
Q 1250 4750 2034 4750 
z
" id="DejaVuSans-30" transform="scale(0.015625)"/>
       </defs>
       <use xlink:href="#DejaVuSans-30"/>
      </g>
     </g>
    </g>
    <g id="xtick_2">
     <g id="text_2">
      <!-- 20000 -->
      <g style="fill:#262626;" transform="translate(159.506153 635.156562)scale(0.22 -0.22)">
       <defs>
        <path d="M 1228 531 
L 3431 531 
L 3431 0 
L 469 0 
L 469 531 
Q 828 903 1448 1529 
Q 2069 2156 2228 2338 
Q 2531 2678 2651 2914 
Q 2772 3150 2772 3378 
Q 2772 3750 2511 3984 
Q 2250 4219 1831 4219 
Q 1534 4219 1204 4116 
Q 875 4013 500 3803 
L 500 4441 
Q 881 4594 1212 4672 
Q 1544 4750 1819 4750 
Q 2544 4750 2975 4387 
Q 3406 4025 3406 3419 
Q 3406 3131 3298 2873 
Q 3191 2616 2906 2266 
Q 2828 2175 2409 1742 
Q 1991 1309 1228 531 
z
" id="DejaVuSans-32" transform="scale(0.015625)"/>
       </defs>
       <use xlink:href="#DejaVuSans-32"/>
       <use x="63.623047" xlink:href="#DejaVuSans-30"/>
       <use x="127.246094" xlink:href="#DejaVuSans-30"/>
       <use x="190.869141" xlink:href="#DejaVuSans-30"/>
       <use x="254.492188" xlink:href="#DejaVuSans-30"/>
      </g>
     </g>
    </g>
    <g id="xtick_3">
     <g id="text_3">
      <!-- 40000 -->
      <g style="fill:#262626;" transform="translate(247.359066 635.156562)scale(0.22 -0.22)">
       <defs>
        <path d="M 2419 4116 
L 825 1625 
L 2419 1625 
L 2419 4116 
z
M 2253 4666 
L 3047 4666 
L 3047 1625 
L 3713 1625 
L 3713 1100 
L 3047 1100 
L 3047 0 
L 2419 0 
L 2419 1100 
L 313 1100 
L 313 1709 
L 2253 4666 
z
" id="DejaVuSans-34" transform="scale(0.015625)"/>
       </defs>
       <use xlink:href="#DejaVuSans-34"/>
       <use x="63.623047" xlink:href="#DejaVuSans-30"/>
       <use x="127.246094" xlink:href="#DejaVuSans-30"/>
       <use x="190.869141" xlink:href="#DejaVuSans-30"/>
       <use x="254.492188" xlink:href="#DejaVuSans-30"/>
      </g>
     </g>
    </g>
    <g id="xtick_4">
     <g id="text_4">
      <!-- 60000 -->
      <g style="fill:#262626;" transform="translate(335.21198 635.156562)scale(0.22 -0.22)">
       <defs>
        <path d="M 2113 2584 
Q 1688 2584 1439 2293 
Q 1191 2003 1191 1497 
Q 1191 994 1439 701 
Q 1688 409 2113 409 
Q 2538 409 2786 701 
Q 3034 994 3034 1497 
Q 3034 2003 2786 2293 
Q 2538 2584 2113 2584 
z
M 3366 4563 
L 3366 3988 
Q 3128 4100 2886 4159 
Q 2644 4219 2406 4219 
Q 1781 4219 1451 3797 
Q 1122 3375 1075 2522 
Q 1259 2794 1537 2939 
Q 1816 3084 2150 3084 
Q 2853 3084 3261 2657 
Q 3669 2231 3669 1497 
Q 3669 778 3244 343 
Q 2819 -91 2113 -91 
Q 1303 -91 875 529 
Q 447 1150 447 2328 
Q 447 3434 972 4092 
Q 1497 4750 2381 4750 
Q 2619 4750 2861 4703 
Q 3103 4656 3366 4563 
z
" id="DejaVuSans-36" transform="scale(0.015625)"/>
       </defs>
       <use xlink:href="#DejaVuSans-36"/>
       <use x="63.623047" xlink:href="#DejaVuSans-30"/>
       <use x="127.246094" xlink:href="#DejaVuSans-30"/>
       <use x="190.869141" xlink:href="#DejaVuSans-30"/>
       <use x="254.492188" xlink:href="#DejaVuSans-30"/>
      </g>
     </g>
    </g>
    <g id="xtick_5">
     <g id="text_5">
      <!-- 80000 -->
      <g style="fill:#262626;" transform="translate(423.064893 635.156562)scale(0.22 -0.22)">
       <defs>
        <path d="M 2034 2216 
Q 1584 2216 1326 1975 
Q 1069 1734 1069 1313 
Q 1069 891 1326 650 
Q 1584 409 2034 409 
Q 2484 409 2743 651 
Q 3003 894 3003 1313 
Q 3003 1734 2745 1975 
Q 2488 2216 2034 2216 
z
M 1403 2484 
Q 997 2584 770 2862 
Q 544 3141 544 3541 
Q 544 4100 942 4425 
Q 1341 4750 2034 4750 
Q 2731 4750 3128 4425 
Q 3525 4100 3525 3541 
Q 3525 3141 3298 2862 
Q 3072 2584 2669 2484 
Q 3125 2378 3379 2068 
Q 3634 1759 3634 1313 
Q 3634 634 3220 271 
Q 2806 -91 2034 -91 
Q 1263 -91 848 271 
Q 434 634 434 1313 
Q 434 1759 690 2068 
Q 947 2378 1403 2484 
z
M 1172 3481 
Q 1172 3119 1398 2916 
Q 1625 2713 2034 2713 
Q 2441 2713 2670 2916 
Q 2900 3119 2900 3481 
Q 2900 3844 2670 4047 
Q 2441 4250 2034 4250 
Q 1625 4250 1398 4047 
Q 1172 3844 1172 3481 
z
" id="DejaVuSans-38" transform="scale(0.015625)"/>
       </defs>
       <use xlink:href="#DejaVuSans-38"/>
       <use x="63.623047" xlink:href="#DejaVuSans-30"/>
       <use x="127.246094" xlink:href="#DejaVuSans-30"/>
       <use x="190.869141" xlink:href="#DejaVuSans-30"/>
       <use x="254.492188" xlink:href="#DejaVuSans-30"/>
      </g>
     </g>
    </g>
    <g id="xtick_6">
     <g id="text_6">
      <!-- 100000 -->
      <g style="fill:#262626;" transform="translate(503.919057 635.156562)scale(0.22 -0.22)">
       <defs>
        <path d="M 794 531 
L 1825 531 
L 1825 4091 
L 703 3866 
L 703 4441 
L 1819 4666 
L 2450 4666 
L 2450 531 
L 3481 531 
L 3481 0 
L 794 0 
L 794 531 
z
" id="DejaVuSans-31" transform="scale(0.015625)"/>
       </defs>
       <use xlink:href="#DejaVuSans-31"/>
       <use x="63.623047" xlink:href="#DejaVuSans-30"/>
       <use x="127.246094" xlink:href="#DejaVuSans-30"/>
       <use x="190.869141" xlink:href="#DejaVuSans-30"/>
       <use x="254.492188" xlink:href="#DejaVuSans-30"/>
       <use x="318.115234" xlink:href="#DejaVuSans-30"/>
      </g>
     </g>
    </g>
    <g id="text_7">
     <!-- MDTU -->
     <g style="fill:#262626;" transform="translate(290.683464 661.968125)scale(0.24 -0.24)">
      <defs>
       <path d="M 628 4666 
L 1569 4666 
L 2759 1491 
L 3956 4666 
L 4897 4666 
L 4897 0 
L 4281 0 
L 4281 4097 
L 3078 897 
L 2444 897 
L 1241 4097 
L 1241 0 
L 628 0 
L 628 4666 
z
" id="DejaVuSans-4d" transform="scale(0.015625)"/>
       <path d="M 1259 4147 
L 1259 519 
L 2022 519 
Q 2988 519 3436 956 
Q 3884 1394 3884 2338 
Q 3884 3275 3436 3711 
Q 2988 4147 2022 4147 
L 1259 4147 
z
M 628 4666 
L 1925 4666 
Q 3281 4666 3915 4102 
Q 4550 3538 4550 2338 
Q 4550 1131 3912 565 
Q 3275 0 1925 0 
L 628 0 
L 628 4666 
z
" id="DejaVuSans-44" transform="scale(0.015625)"/>
       <path d="M -19 4666 
L 3928 4666 
L 3928 4134 
L 2272 4134 
L 2272 0 
L 1638 0 
L 1638 4134 
L -19 4134 
L -19 4666 
z
" id="DejaVuSans-54" transform="scale(0.015625)"/>
       <path d="M 556 4666 
L 1191 4666 
L 1191 1831 
Q 1191 1081 1462 751 
Q 1734 422 2344 422 
Q 2950 422 3222 751 
Q 3494 1081 3494 1831 
L 3494 4666 
L 4128 4666 
L 4128 1753 
Q 4128 841 3676 375 
Q 3225 -91 2344 -91 
Q 1459 -91 1007 375 
Q 556 841 556 1753 
L 556 4666 
z
" id="DejaVuSans-55" transform="scale(0.015625)"/>
      </defs>
      <use xlink:href="#DejaVuSans-4d"/>
      <use x="86.279297" xlink:href="#DejaVuSans-44"/>
      <use x="163.28125" xlink:href="#DejaVuSans-54"/>
      <use x="224.365234" xlink:href="#DejaVuSans-55"/>
     </g>
    </g>
   </g>
   <g id="matplotlib.axis_2">
    <g id="ytick_1">
     <g id="text_8">
      <!-- 0.5 -->
      <g style="fill:#262626;" transform="translate(34.4275 583.285251)scale(0.22 -0.22)">
       <defs>
        <path d="M 684 794 
L 1344 794 
L 1344 0 
L 684 0 
L 684 794 
z
" id="DejaVuSans-2e" transform="scale(0.015625)"/>
        <path d="M 691 4666 
L 3169 4666 
L 3169 4134 
L 1269 4134 
L 1269 2991 
Q 1406 3038 1543 3061 
Q 1681 3084 1819 3084 
Q 2600 3084 3056 2656 
Q 3513 2228 3513 1497 
Q 3513 744 3044 326 
Q 2575 -91 1722 -91 
Q 1428 -91 1123 -41 
Q 819 9 494 109 
L 494 744 
Q 775 591 1075 516 
Q 1375 441 1709 441 
Q 2250 441 2565 725 
Q 2881 1009 2881 1497 
Q 2881 1984 2565 2268 
Q 2250 2553 1709 2553 
Q 1456 2553 1204 2497 
Q 953 2441 691 2322 
L 691 4666 
z
" id="DejaVuSans-35" transform="scale(0.015625)"/>
       </defs>
       <use xlink:href="#DejaVuSans-30"/>
       <use x="63.623047" xlink:href="#DejaVuSans-2e"/>
       <use x="95.410156" xlink:href="#DejaVuSans-35"/>
      </g>
     </g>
    </g>
    <g id="ytick_2">
     <g id="text_9">
      <!-- 1.0 -->
      <g style="fill:#262626;" transform="translate(34.4275 473.670565)scale(0.22 -0.22)">
       <use xlink:href="#DejaVuSans-31"/>
       <use x="63.623047" xlink:href="#DejaVuSans-2e"/>
       <use x="95.410156" xlink:href="#DejaVuSans-30"/>
      </g>
     </g>
    </g>
    <g id="ytick_3">
     <g id="text_10">
      <!-- 1.5 -->
      <g style="fill:#262626;" transform="translate(34.4275 364.055879)scale(0.22 -0.22)">
       <use xlink:href="#DejaVuSans-31"/>
       <use x="63.623047" xlink:href="#DejaVuSans-2e"/>
       <use x="95.410156" xlink:href="#DejaVuSans-35"/>
      </g>
     </g>
    </g>
    <g id="ytick_4">
     <g id="text_11">
      <!-- 2.0 -->
      <g style="fill:#262626;" transform="translate(34.4275 254.441194)scale(0.22 -0.22)">
       <use xlink:href="#DejaVuSans-32"/>
       <use x="63.623047" xlink:href="#DejaVuSans-2e"/>
       <use x="95.410156" xlink:href="#DejaVuSans-30"/>
      </g>
     </g>
    </g>
    <g id="ytick_5">
     <g id="text_12">
      <!-- 2.5 -->
      <g style="fill:#262626;" transform="translate(34.4275 144.826508)scale(0.22 -0.22)">
       <use xlink:href="#DejaVuSans-32"/>
       <use x="63.623047" xlink:href="#DejaVuSans-2e"/>
       <use x="95.410156" xlink:href="#DejaVuSans-35"/>
      </g>
     </g>
    </g>
    <g id="text_13">
     <!-- $E$ -->
     <g style="fill:#262626;" transform="translate(25.43625 363.813429)rotate(-90)scale(0.24 -0.24)">
      <defs>
       <path d="M 1081 4666 
L 4031 4666 
L 3928 4134 
L 1606 4134 
L 1338 2753 
L 3566 2753 
L 3463 2222 
L 1234 2222 
L 909 531 
L 3284 531 
L 3181 0 
L 172 0 
L 1081 4666 
z
" id="DejaVuSans-Oblique-45" transform="scale(0.015625)"/>
      </defs>
      <use transform="translate(0 0.09375)" xlink:href="#DejaVuSans-Oblique-45"/>
     </g>
    </g>
   </g>
   <g id="line2d_1">
    <path clip-path="url(#pf0880ae045)" d="M 106.866622 373.093232 
L 107.086254 472.67591 
L 107.305886 487.098175 
L 107.525519 446.776823 
L 107.745151 538.820634 
L 107.964783 451.491143 
L 108.184415 481.12736 
L 108.62368 449.551359 
L 108.843312 487.292388 
L 109.062945 409.289358 
L 109.282577 434.112768 
L 109.502209 500.036161 
L 109.721841 397.217648 
L 109.941474 517.802045 
L 110.161106 379.504269 
L 110.380738 387.526712 
L 110.820003 462.469967 
L 111.039635 453.10884 
L 111.259267 373.445422 
L 111.698532 490.294236 
L 112.357429 334.659857 
L 112.796693 519.303705 
L 113.016326 537.525781 
L 113.235958 395.016462 
L 113.45559 388.796554 
L 113.675223 475.588956 
L 113.894855 450.812296 
L 114.114487 463.378696 
L 114.334119 405.941989 
L 114.553752 504.898443 
L 114.773384 475.73828 
L 114.993016 506.739107 
L 115.212649 409.259511 
L 115.651913 499.851476 
L 115.871545 484.236191 
L 116.091178 494.492665 
L 116.31081 460.723945 
L 116.530442 511.846949 
L 116.750075 443.955467 
L 117.408971 513.693276 
L 117.628604 415.878782 
L 117.848236 471.583452 
L 118.067868 484.63246 
L 118.287501 478.437371 
L 118.507133 424.569816 
L 118.946397 467.130275 
L 119.16603 384.084634 
L 119.385662 485.030889 
L 119.605294 454.384842 
L 119.824926 461.362824 
L 120.044559 456.232014 
L 120.264191 369.770318 
L 120.483823 465.912303 
L 120.703456 460.792932 
L 120.923088 541.491218 
L 121.14272 390.046603 
L 121.362352 490.865195 
L 121.581985 390.606541 
L 121.801617 452.048958 
L 122.021249 469.237014 
L 122.240882 416.713833 
L 122.460514 472.9639 
L 122.680146 454.748296 
L 122.899778 422.543841 
L 123.119411 524.793596 
L 123.339043 414.54408 
L 123.558675 566.622897 
L 123.778308 389.707831 
L 123.99794 303.682067 
L 124.217572 457.136724 
L 124.437204 492.578138 
L 124.656837 460.620973 
L 124.876469 543.74356 
L 125.096101 473.675903 
L 125.315734 491.289381 
L 125.535366 372.252145 
L 125.754998 468.565351 
L 125.97463 415.615879 
L 126.194263 458.671016 
L 126.413895 462.736095 
L 126.633527 502.224255 
L 127.072792 422.846583 
L 127.292424 491.580377 
L 127.512056 470.590223 
L 127.731689 487.417131 
L 127.951321 485.242433 
L 128.170953 293.063462 
L 128.390586 424.051679 
L 128.610218 434.717776 
L 128.82985 482.425584 
L 129.049482 458.603618 
L 129.269115 461.90181 
L 129.488747 452.832047 
L 129.708379 405.5333 
L 129.928012 396.51724 
L 130.147644 461.608338 
L 130.367276 432.494645 
L 130.806541 401.042395 
L 131.026173 315.604781 
L 131.245805 408.808684 
L 131.465438 394.794895 
L 131.68507 510.157821 
L 132.124334 473.332539 
L 132.343967 468.014541 
L 132.783231 412.162138 
L 133.222496 523.198536 
L 133.442128 458.397063 
L 133.66176 458.259018 
L 133.881393 486.574106 
L 134.101025 443.614039 
L 134.320657 470.379148 
L 134.540289 514.644022 
L 134.759922 379.21711 
L 135.418819 517.594746 
L 135.638451 409.633658 
L 135.858083 420.437852 
L 136.077715 469.050705 
L 136.297348 486.16022 
L 136.51698 369.761594 
L 136.736612 458.76947 
L 136.956245 458.765273 
L 137.395509 524.908824 
L 137.615141 450.200796 
L 137.834774 494.3498 
L 138.054406 310.8312 
L 138.274038 471.037073 
L 138.713303 405.120835 
L 138.932935 467.579034 
L 139.152567 485.05646 
L 139.591832 419.269277 
L 139.811464 478.556292 
L 140.031097 408.646416 
L 140.250729 515.405751 
L 140.470361 494.293361 
L 140.689993 458.035608 
L 141.129258 417.636576 
L 141.34889 397.413784 
L 141.568523 415.050627 
L 141.788155 469.466838 
L 142.007787 429.568283 
L 142.227419 426.499055 
L 142.447052 413.321625 
L 142.666684 452.161993 
L 142.886316 394.208094 
L 143.545213 507.459385 
L 143.764845 436.290966 
L 144.20411 501.620571 
L 144.423742 547.002088 
L 144.643375 331.962657 
L 144.863007 435.900588 
L 145.082639 333.241704 
L 145.302271 354.246758 
L 145.521904 498.432924 
L 145.741536 352.715935 
L 145.961168 444.398874 
L 146.180801 406.593852 
L 146.620065 533.775564 
L 146.839697 388.821143 
L 147.05933 482.864065 
L 147.278962 476.340028 
L 147.498594 424.382813 
L 147.718227 407.579045 
L 147.937859 493.018832 
L 148.157491 278.939958 
L 148.377123 352.484762 
L 148.596756 475.912 
L 148.816388 517.199504 
L 149.03602 442.695108 
L 149.255653 245.139565 
L 149.475285 461.771107 
L 149.694917 452.623218 
L 149.914549 389.248796 
L 150.134182 482.696845 
L 150.353814 417.462622 
L 150.573446 399.670685 
L 150.793078 408.17189 
L 151.012711 455.624921 
L 151.232343 442.93951 
L 151.451975 455.836354 
L 151.671608 452.458196 
L 151.89124 385.140994 
L 152.110872 494.675402 
L 152.330504 434.63912 
L 152.769769 413.7305 
L 152.989401 449.956041 
L 153.209034 351.335873 
L 153.648298 433.465056 
L 153.86793 435.937477 
L 154.087563 512.348884 
L 154.307195 361.296562 
L 154.526827 351.113487 
L 154.74646 454.772449 
L 154.966092 428.268067 
L 155.185724 520.532166 
L 155.405356 472.607777 
L 155.624989 465.679028 
L 155.844621 471.71117 
L 156.064253 313.231985 
L 156.503518 493.124608 
L 156.72315 487.476638 
L 156.942782 515.247859 
L 157.162415 421.201021 
L 157.382047 417.672236 
L 157.601679 283.831163 
L 157.821312 466.919362 
L 158.040944 427.456248 
L 158.260576 490.325818 
L 158.480208 489.468397 
L 158.699841 500.150937 
L 158.919473 518.881109 
L 159.139105 400.745915 
L 159.358738 530.767405 
L 159.57837 404.327402 
L 159.798002 568.904275 
L 160.017634 446.507513 
L 160.237267 504.907855 
L 160.456899 499.380531 
L 160.676531 381.1984 
L 161.115796 469.582899 
L 161.335428 462.880669 
L 161.55506 446.250602 
L 161.774693 452.393306 
L 161.994325 412.68239 
L 162.43359 500.984404 
L 162.653222 452.182824 
L 162.872854 475.672428 
L 163.092486 481.855054 
L 163.312119 503.354147 
L 163.531751 454.157825 
L 163.751383 515.339449 
L 163.971016 339.442725 
L 164.190648 388.209702 
L 164.41028 362.656015 
L 164.629912 456.296391 
L 164.849545 410.574274 
L 165.069177 460.714105 
L 165.288809 458.331514 
L 165.508441 331.368031 
L 165.728074 468.159321 
L 165.947706 494.11451 
L 166.167338 319.479845 
L 166.606603 460.483506 
L 166.826235 449.925058 
L 167.045867 416.97496 
L 167.2655 473.201157 
L 167.485132 375.342883 
L 167.704764 416.172552 
L 167.924397 368.150796 
L 168.144029 390.732365 
L 168.363661 455.328599 
L 168.583293 397.666457 
L 168.802926 534.743615 
L 169.022558 504.019335 
L 169.24219 455.577224 
L 169.461823 455.594219 
L 170.120719 531.126862 
L 170.340352 412.529892 
L 170.559984 537.199639 
L 170.779616 260.037929 
L 170.999249 419.255014 
L 171.218881 425.925406 
L 171.438513 491.563608 
L 171.658145 494.678236 
L 171.877778 435.346745 
L 172.09741 250.002165 
L 172.536675 527.962947 
L 172.756307 372.078637 
L 172.975939 491.968086 
L 173.195571 440.745048 
L 173.415204 434.871864 
L 173.854468 499.358851 
L 174.074101 405.904903 
L 174.293733 465.76048 
L 174.513365 464.632033 
L 174.732997 494.522426 
L 174.95263 263.246013 
L 175.172262 357.652522 
L 175.391894 379.968194 
L 175.611527 442.411434 
L 175.831159 371.666646 
L 176.050791 429.497667 
L 176.270423 421.944319 
L 176.490056 489.003446 
L 177.148953 533.125514 
L 177.368585 438.550214 
L 177.588217 513.991574 
L 177.807849 344.250825 
L 178.027482 523.719043 
L 178.247114 394.007382 
L 178.906011 488.684345 
L 179.345275 270.071045 
L 179.564908 334.424293 
L 179.78454 461.828532 
L 180.004172 492.007441 
L 180.223805 489.881836 
L 180.443437 454.523151 
L 180.663069 499.695117 
L 180.882701 505.784203 
L 181.102334 489.916535 
L 181.541598 413.49551 
L 181.76123 490.598255 
L 181.980863 419.946253 
L 182.200495 539.780682 
L 182.420127 378.904605 
L 182.63976 358.107087 
L 182.859392 416.868993 
L 183.079024 393.687931 
L 183.298656 485.426983 
L 183.518289 485.438533 
L 183.737921 440.761944 
L 183.957553 475.615254 
L 184.177186 414.657063 
L 184.396818 509.400603 
L 184.61645 423.943172 
L 184.836082 475.867507 
L 185.275347 404.156912 
L 185.494979 519.672283 
L 185.714612 502.42815 
L 185.934244 382.032398 
L 186.153876 420.024587 
L 186.373508 486.622722 
L 186.593141 372.020128 
L 186.812773 437.479543 
L 187.032405 347.704863 
L 187.252038 498.040745 
L 187.47167 481.740507 
L 187.691302 473.946723 
L 187.910934 528.575616 
L 188.130567 405.974645 
L 188.350199 385.102799 
L 188.569831 425.806185 
L 188.789464 519.141024 
L 189.009096 521.538 
L 189.228728 476.214929 
L 189.44836 470.697062 
L 189.667993 311.699861 
L 189.887625 418.419661 
L 190.107257 446.491348 
L 190.32689 335.780198 
L 190.546522 534.254292 
L 190.985786 412.910105 
L 191.205419 445.147909 
L 191.425051 390.992795 
L 191.644683 414.937244 
L 191.864316 518.537668 
L 192.083948 480.534956 
L 192.30358 470.464071 
L 192.523212 306.674726 
L 192.742845 535.664794 
L 193.182109 419.844888 
L 193.401742 518.956303 
L 193.621374 417.485801 
L 193.841006 403.767784 
L 194.060638 536.264461 
L 194.280271 531.929988 
L 194.719535 361.216302 
L 194.939168 498.768798 
L 195.1588 407.336054 
L 195.598064 516.965407 
L 195.817697 397.9101 
L 196.037329 519.673665 
L 196.256961 449.111784 
L 196.476593 435.274457 
L 196.696226 402.616055 
L 197.13549 434.291262 
L 197.355123 481.643105 
L 197.794387 403.4044 
L 198.014019 495.861005 
L 198.233652 505.585186 
L 198.892549 372.143168 
L 199.112181 472.193854 
L 199.331813 434.086497 
L 199.551445 308.059625 
L 199.771078 454.004906 
L 199.99071 496.847048 
L 200.210342 421.833738 
L 200.429975 448.927528 
L 200.649607 401.005548 
L 200.869239 439.651178 
L 201.088871 373.166978 
L 201.308504 363.300261 
L 201.747768 568.970035 
L 201.967401 428.858198 
L 202.406665 520.755903 
L 202.84593 433.122266 
L 203.285194 548.535171 
L 203.504827 405.075309 
L 203.724459 500.106582 
L 203.944091 466.835083 
L 204.163723 387.37063 
L 204.82262 475.542443 
L 205.042253 480.218355 
L 205.261885 338.319893 
L 205.481517 450.250857 
L 205.701149 438.56491 
L 206.140414 479.20849 
L 206.360046 457.999444 
L 206.579679 454.772209 
L 206.799311 509.927227 
L 207.238575 356.503105 
L 207.458208 516.681331 
L 207.67784 435.49315 
L 207.897472 436.420099 
L 208.117105 352.492464 
L 208.336737 423.989854 
L 208.556369 386.88003 
L 208.776001 410.608011 
L 208.995634 548.199039 
L 209.215266 497.814678 
L 209.434898 374.079653 
L 209.654531 458.288726 
L 209.874163 437.227165 
L 210.093795 349.14538 
L 210.313427 388.013221 
L 210.53306 461.829447 
L 210.752692 401.532424 
L 210.972324 535.486907 
L 211.191956 449.044714 
L 211.411589 416.808437 
L 211.631221 457.378417 
L 211.850853 467.116221 
L 212.070486 365.93789 
L 212.290118 354.947672 
L 212.50975 403.800148 
L 212.729382 512.406279 
L 213.168647 324.032454 
L 213.388279 282.860273 
L 213.607912 393.76315 
L 213.827544 445.534787 
L 214.047176 347.156944 
L 214.266808 496.260877 
L 214.486441 504.968521 
L 214.706073 418.063523 
L 214.925705 419.708524 
L 215.145338 380.320734 
L 215.584602 551.666942 
L 215.804234 396.650904 
L 216.023867 359.372778 
L 216.243499 520.779508 
L 216.463131 355.471389 
L 217.122028 509.971829 
L 217.34166 493.244144 
L 217.561293 486.233038 
L 217.780925 541.581589 
L 218.000557 333.739267 
L 218.22019 359.32586 
L 218.439822 489.49961 
L 218.659454 462.10018 
L 218.879086 405.901965 
L 219.098719 312.529022 
L 219.318351 353.177114 
L 219.537983 461.052204 
L 219.757616 477.314223 
L 219.977248 450.819079 
L 220.19688 382.869231 
L 220.416512 409.051984 
L 220.636145 377.908628 
L 220.855777 483.126368 
L 221.075409 409.994021 
L 221.295042 451.952915 
L 221.514674 429.834255 
L 221.953938 512.213565 
L 222.173571 468.991091 
L 222.393203 476.787996 
L 222.612835 457.327167 
L 222.832468 403.600598 
L 223.0521 522.241414 
L 223.271732 516.707407 
L 223.491364 427.835718 
L 223.710997 478.387891 
L 223.930629 460.89947 
L 224.150261 458.828678 
L 224.369894 314.591323 
L 224.589526 434.272403 
L 224.809158 478.78128 
L 225.02879 448.704962 
L 225.248423 539.027763 
L 225.468055 481.112418 
L 225.687687 392.010637 
L 225.90732 382.32292 
L 226.126952 386.500212 
L 226.346584 496.369274 
L 226.566216 397.769789 
L 226.785849 408.069483 
L 227.005481 449.83728 
L 227.225113 395.352637 
L 227.444745 381.531625 
L 227.664378 405.866176 
L 227.88401 494.348378 
L 228.103642 487.109873 
L 228.323275 510.379177 
L 228.542907 438.519579 
L 228.762539 531.04326 
L 228.982171 414.475532 
L 229.201804 366.225316 
L 229.421436 371.948109 
L 229.641068 486.421535 
L 229.860701 474.663635 
L 230.080333 439.005662 
L 230.299965 486.714146 
L 230.519597 377.312778 
L 230.958862 508.189897 
L 231.178494 376.116984 
L 231.398127 471.545307 
L 231.617759 468.450889 
L 231.837391 369.441646 
L 232.057023 397.781202 
L 232.276656 542.381773 
L 232.496288 410.180538 
L 232.71592 502.820028 
L 232.935553 345.800472 
L 233.155185 345.283388 
L 233.374817 518.245874 
L 233.594449 336.97717 
L 233.814082 380.402967 
L 234.033714 325.123663 
L 234.472979 425.887174 
L 234.692611 505.870931 
L 234.912243 450.986124 
L 235.131875 526.117311 
L 235.351508 472.576584 
L 235.57114 501.200364 
L 235.790772 562.757649 
L 236.010405 384.270764 
L 236.230037 498.528809 
L 236.449669 335.022832 
L 236.669301 285.711991 
L 236.888934 486.711505 
L 237.328198 421.848841 
L 237.547831 497.834589 
L 237.767463 430.076137 
L 237.987095 565.254591 
L 238.206727 451.10739 
L 238.42636 442.172909 
L 238.645992 328.110599 
L 238.865624 494.68191 
L 239.085257 388.68315 
L 239.524521 488.235205 
L 239.744153 408.004087 
L 239.963786 464.493453 
L 240.183418 440.392213 
L 240.40305 459.71296 
L 240.622683 431.3618 
L 240.842315 532.583816 
L 241.061947 486.660129 
L 241.281579 487.787817 
L 241.501212 499.65644 
L 241.720844 363.965393 
L 241.940476 446.621858 
L 242.160108 392.4074 
L 242.379741 293.327666 
L 242.599373 416.885062 
L 242.819005 433.806726 
L 243.25827 332.590673 
L 243.697534 505.621228 
L 243.917167 405.832941 
L 244.136799 375.456291 
L 244.356431 470.507516 
L 244.576064 483.472228 
L 244.795696 427.559092 
L 245.015328 517.936003 
L 245.23496 370.043207 
L 245.454593 476.667502 
L 245.674225 497.799868 
L 245.893857 488.331985 
L 246.11349 409.11125 
L 246.333122 394.208779 
L 246.552754 493.544933 
L 246.772386 391.669952 
L 246.992019 448.03806 
L 247.211651 433.489323 
L 247.431283 379.949173 
L 247.650916 458.139268 
L 247.870548 481.179041 
L 248.09018 409.120826 
L 248.309812 466.761791 
L 248.529445 412.523604 
L 248.749077 492.543729 
L 248.968709 445.796907 
L 249.188342 467.678889 
L 249.407974 555.102232 
L 249.627606 425.548489 
L 249.847238 422.739419 
L 250.066871 437.182211 
L 250.286503 485.159784 
L 250.506135 334.9594 
L 250.725768 392.301788 
L 250.9454 312.321356 
L 251.165032 505.20791 
L 251.384664 474.13626 
L 251.604297 343.549139 
L 251.823929 509.865136 
L 252.043561 458.276796 
L 252.263194 462.371253 
L 252.482826 398.387353 
L 252.702458 425.401742 
L 252.92209 431.105115 
L 253.141723 518.752316 
L 253.361355 446.84923 
L 253.580987 459.068141 
L 253.80062 460.106008 
L 254.020252 378.156352 
L 254.459516 466.131793 
L 254.679149 408.292114 
L 254.898781 450.555697 
L 255.118413 316.194796 
L 255.338046 427.08683 
L 255.557678 349.872838 
L 255.77731 392.814356 
L 256.216575 512.946596 
L 256.655839 377.447309 
L 256.875472 499.24153 
L 257.095104 278.54303 
L 257.314736 452.793885 
L 257.534368 401.37909 
L 257.754001 472.930657 
L 257.973633 504.006419 
L 258.193265 404.478495 
L 258.412897 389.342658 
L 258.63253 556.536912 
L 258.852162 449.553266 
L 259.291427 380.680921 
L 259.511059 345.447667 
L 259.730691 450.771287 
L 259.950323 442.823639 
L 260.169956 452.788824 
L 260.389588 489.321016 
L 260.60922 437.923331 
L 260.828853 514.669723 
L 261.048485 352.264916 
L 261.487749 473.22226 
L 261.707382 417.309381 
L 261.927014 551.60214 
L 262.366279 381.600574 
L 262.585911 466.4875 
L 262.805543 445.980626 
L 263.025175 499.51531 
L 263.244808 423.880662 
L 263.46444 304.23992 
L 263.684072 515.770172 
L 263.903705 458.736772 
L 264.123337 524.396776 
L 264.342969 459.12814 
L 264.562601 494.544937 
L 264.782234 406.297427 
L 265.001866 510.476808 
L 265.221498 494.450476 
L 265.441131 509.719429 
L 265.880395 403.978328 
L 266.100027 449.734746 
L 266.31966 520.510396 
L 266.539292 428.227095 
L 266.758924 404.036814 
L 266.978557 434.183445 
L 267.198189 425.354063 
L 267.417821 436.719084 
L 267.637453 492.132848 
L 267.857086 458.831325 
L 268.076718 311.915996 
L 268.29635 495.524359 
L 268.515983 494.880383 
L 268.735615 535.746727 
L 268.955247 332.006546 
L 269.174879 526.183856 
L 269.394512 509.656779 
L 269.614144 520.690309 
L 269.833776 430.447819 
L 270.053409 508.876514 
L 270.273041 410.567641 
L 270.492673 482.657249 
L 270.712305 355.45791 
L 270.931938 484.15833 
L 271.15157 510.15763 
L 271.371202 414.61805 
L 271.590835 397.772518 
L 272.030099 382.101877 
L 272.249731 382.551733 
L 272.469364 509.318984 
L 272.688996 488.607263 
L 272.908628 359.178534 
L 273.12826 550.150977 
L 273.347893 409.719267 
L 273.567525 480.155798 
L 274.00679 490.406762 
L 274.226422 551.450758 
L 274.446054 478.389131 
L 274.665686 479.914731 
L 274.885319 472.39714 
L 275.104951 503.647964 
L 275.544216 456.083205 
L 275.763848 434.837339 
L 275.98348 469.498479 
L 276.203112 462.932709 
L 276.422745 294.987282 
L 276.642377 471.396349 
L 276.862009 458.200184 
L 277.081642 480.644031 
L 277.301274 517.286238 
L 277.740538 351.179374 
L 278.179803 422.106135 
L 278.399435 529.287136 
L 278.619068 483.876897 
L 278.8387 410.532014 
L 279.058332 441.557303 
L 279.277964 325.055359 
L 279.497597 487.756647 
L 279.717229 477.226532 
L 279.936861 344.06467 
L 280.156494 569.267 
L 280.376126 466.281307 
L 280.595758 498.746576 
L 280.81539 424.487859 
L 281.035023 437.216491 
L 281.254655 306.708037 
L 281.69392 449.472595 
L 281.913552 407.105394 
L 282.133184 454.155222 
L 282.352816 572.007534 
L 282.572449 327.37318 
L 282.792081 481.788792 
L 283.011713 344.676459 
L 283.231346 423.128366 
L 283.450978 405.406959 
L 283.67061 376.519848 
L 283.890242 400.070784 
L 284.109875 373.588368 
L 284.329507 516.97451 
L 284.549139 421.536058 
L 284.768772 539.474115 
L 284.988404 540.719238 
L 285.208036 512.62744 
L 285.427668 442.995514 
L 285.866933 391.528639 
L 286.086565 461.497977 
L 286.306198 353.424417 
L 286.52583 446.680606 
L 286.745462 451.653652 
L 286.965094 499.318214 
L 287.184727 447.530664 
L 287.404359 447.510893 
L 287.623991 434.403803 
L 287.843624 325.102561 
L 288.063256 479.334335 
L 288.282888 402.819156 
L 288.50252 522.918695 
L 288.722153 407.258007 
L 288.941785 382.760382 
L 289.161417 490.716419 
L 289.381049 344.01139 
L 289.820314 522.563261 
L 290.259579 400.365952 
L 290.479211 427.572824 
L 290.698843 479.67453 
L 290.918475 488.844315 
L 291.138108 481.46516 
L 291.35774 526.1728 
L 291.577372 487.352039 
L 292.016637 467.75206 
L 292.236269 431.290095 
L 292.455901 514.694069 
L 292.675534 366.567853 
L 292.895166 530.274145 
L 293.114798 397.723356 
L 293.334431 406.338852 
L 293.554063 433.417438 
L 293.773695 394.468709 
L 293.993327 459.278359 
L 294.21296 361.758506 
L 294.432592 421.647038 
L 294.652224 544.251812 
L 294.871857 459.017627 
L 295.091489 468.114888 
L 295.311121 508.060254 
L 295.750386 482.935323 
L 295.970018 500.2831 
L 296.18965 353.16733 
L 296.628915 538.301315 
L 296.848547 425.424043 
L 297.068179 468.522859 
L 297.287812 574.995994 
L 297.507444 327.848742 
L 297.727076 504.252891 
L 297.946709 407.860205 
L 298.166341 526.160308 
L 298.385973 475.945099 
L 298.605605 339.274105 
L 299.04487 466.233969 
L 299.264502 455.075778 
L 299.484135 391.151589 
L 299.703767 199.264384 
L 300.143031 508.164893 
L 300.362664 445.713499 
L 300.582296 536.625635 
L 300.801928 388.467253 
L 301.021561 494.948154 
L 301.241193 495.091742 
L 301.680457 430.289114 
L 301.90009 444.042581 
L 302.119722 519.004442 
L 302.339354 437.826191 
L 302.558987 463.182819 
L 302.778619 504.878044 
L 303.217883 321.126327 
L 303.657148 545.533665 
L 303.87678 513.339886 
L 304.096412 461.609596 
L 304.316045 517.098046 
L 304.535677 477.453566 
L 304.755309 407.663929 
L 304.974942 494.758488 
L 305.194574 495.912285 
L 305.414206 485.711359 
L 305.633838 427.717907 
L 305.853471 495.515428 
L 306.073103 406.409395 
L 306.292735 407.031927 
L 306.512368 476.741254 
L 306.732 426.52322 
L 306.951632 476.99828 
L 307.390897 458.006018 
L 307.610529 485.636105 
L 307.830161 444.898727 
L 308.049794 441.138537 
L 308.269426 463.192388 
L 308.70869 340.713547 
L 308.928323 545.922949 
L 309.147955 428.629814 
L 309.367587 478.206591 
L 309.58722 434.131882 
L 309.806852 490.860323 
L 310.026484 439.613416 
L 310.246116 466.801213 
L 310.465749 452.196606 
L 310.685381 493.073625 
L 310.905013 469.14696 
L 311.56391 508.392361 
L 311.783542 492.04477 
L 312.003175 463.249904 
L 312.222807 373.481427 
L 312.442439 522.417858 
L 312.662072 451.145292 
L 312.881704 467.293986 
L 313.101336 512.626221 
L 313.320968 437.18896 
L 313.540601 491.60631 
L 313.760233 466.817139 
L 313.979865 482.176891 
L 314.199498 489.098182 
L 314.41913 482.133586 
L 314.858394 421.439653 
L 315.078027 445.275072 
L 315.297659 506.465079 
L 315.517291 433.117285 
L 315.736924 481.548744 
L 315.956556 398.373793 
L 316.176188 425.733782 
L 316.39582 358.435233 
L 316.835085 462.953767 
L 317.27435 397.107876 
L 317.493982 442.600276 
L 317.713614 534.867841 
L 317.933246 453.999856 
L 318.152879 468.765837 
L 318.372511 389.171995 
L 318.592143 542.046893 
L 319.031408 336.650426 
L 319.25104 370.085176 
L 319.470672 504.748734 
L 319.690305 477.34379 
L 319.909937 379.908782 
L 320.129569 408.01654 
L 320.349201 241.664026 
L 320.568834 474.023824 
L 320.788466 436.057329 
L 321.008098 368.737277 
L 321.227731 538.619852 
L 321.447363 372.777049 
L 321.666995 507.169633 
L 321.886627 417.357724 
L 322.325892 453.136196 
L 322.545524 491.619526 
L 322.765157 453.412218 
L 322.984789 489.194739 
L 323.204421 500.837232 
L 323.424053 489.024086 
L 323.643686 438.734608 
L 323.863318 482.339563 
L 324.08295 490.649423 
L 324.302583 464.506865 
L 324.522215 465.910235 
L 324.741847 447.891875 
L 324.961479 508.674238 
L 325.181112 468.299682 
L 325.400744 459.325811 
L 325.620376 402.57188 
L 325.840009 410.272205 
L 326.059641 414.06216 
L 326.279273 434.163782 
L 326.498905 408.87043 
L 326.718538 265.642021 
L 326.93817 396.968045 
L 327.377435 436.388879 
L 327.597067 437.416473 
L 327.816699 344.664101 
L 328.036331 535.245852 
L 328.255964 540.81815 
L 328.695228 416.276052 
L 328.914861 525.90516 
L 329.354125 390.348917 
L 329.573757 507.189102 
L 329.79339 389.994953 
L 330.013022 494.042035 
L 330.232654 491.716618 
L 330.452287 363.135389 
L 330.891551 566.332059 
L 331.111183 276.525866 
L 331.330816 476.595344 
L 331.550448 387.588579 
L 331.77008 450.073781 
L 331.989713 455.636969 
L 332.209345 479.884967 
L 332.428977 411.649632 
L 332.648609 450.804494 
L 332.868242 368.883657 
L 333.087874 442.883735 
L 333.307506 424.382506 
L 333.527139 431.634923 
L 333.966403 367.759648 
L 334.186035 503.795255 
L 334.405668 405.701565 
L 334.6253 448.739358 
L 335.064564 411.485388 
L 335.284197 400.629887 
L 335.503829 473.205714 
L 335.723461 461.546802 
L 335.943094 463.010191 
L 336.382358 526.420249 
L 336.60199 391.458897 
L 336.821623 525.346544 
L 337.041255 395.614875 
L 337.260887 447.271927 
L 337.48052 363.49354 
L 337.700152 396.743307 
L 337.919784 477.024101 
L 338.139416 368.8876 
L 338.359049 486.798861 
L 338.578681 472.229933 
L 338.798313 285.142995 
L 339.017946 483.860135 
L 339.237578 455.105919 
L 339.45721 522.569677 
L 339.896475 471.676658 
L 340.116107 520.392838 
L 340.335739 419.21324 
L 340.555372 431.077121 
L 340.775004 409.389166 
L 340.994636 449.291554 
L 341.214268 354.581632 
L 341.433901 499.788374 
L 341.653533 466.928133 
L 341.873165 487.747429 
L 342.092798 467.041872 
L 342.31243 433.58066 
L 342.532062 464.204679 
L 342.751694 451.888153 
L 343.190959 534.026741 
L 343.410591 447.21053 
L 343.630224 466.184126 
L 343.849856 435.216056 
L 344.069488 536.16957 
L 344.28912 374.692114 
L 344.508753 434.475748 
L 344.728385 461.759425 
L 344.948017 467.926672 
L 345.16765 540.202796 
L 345.387282 501.617034 
L 345.606914 418.945216 
L 346.265811 491.756164 
L 346.485443 421.89163 
L 346.705076 474.650076 
L 346.924708 413.338847 
L 347.14434 423.424652 
L 347.363972 445.696228 
L 347.583605 439.891284 
L 347.803237 402.751759 
L 348.022869 444.137789 
L 348.242502 342.639346 
L 348.462134 410.508766 
L 348.681766 437.512208 
L 348.901398 524.413363 
L 349.340663 396.131781 
L 349.560295 398.058882 
L 349.779927 502.080768 
L 349.99956 436.203851 
L 350.219192 472.48061 
L 350.438824 470.449036 
L 350.658457 443.034308 
L 350.878089 480.162718 
L 351.097721 428.030865 
L 351.317353 476.407491 
L 351.536986 388.319386 
L 351.756618 408.889372 
L 351.97625 509.848822 
L 352.195883 500.188698 
L 352.415515 501.861973 
L 352.635147 519.190956 
L 352.854779 517.18071 
L 353.074412 481.788842 
L 353.294044 468.455774 
L 353.513676 361.969769 
L 353.733309 443.121178 
L 353.952941 392.177071 
L 354.172573 389.32379 
L 354.392205 431.54766 
L 354.611838 445.684443 
L 354.83147 413.671418 
L 355.051102 404.796082 
L 355.709999 486.617494 
L 355.929631 493.184259 
L 356.149264 435.152853 
L 356.588528 481.741203 
L 356.808161 478.456121 
L 357.027793 400.662552 
L 357.247425 394.370294 
L 357.467057 503.887806 
L 357.68669 484.665372 
L 358.125954 378.548655 
L 358.345587 415.814774 
L 358.565219 413.824172 
L 358.784851 417.544176 
L 359.004483 468.204671 
L 359.224116 434.418727 
L 359.443748 483.396464 
L 359.66338 456.545107 
L 359.883013 330.144686 
L 360.322277 483.359698 
L 360.761542 359.375337 
L 360.981174 464.634405 
L 361.200806 462.537619 
L 361.420439 451.596389 
L 361.640071 447.507683 
L 361.859703 424.500877 
L 362.079335 382.251194 
L 362.298968 517.155689 
L 362.5186 506.306665 
L 362.738232 391.889775 
L 362.957865 366.383371 
L 363.616761 472.616369 
L 363.836394 396.30308 
L 364.056026 369.81835 
L 364.495291 442.70745 
L 364.714923 351.046186 
L 364.934555 500.88173 
L 365.154187 454.79955 
L 365.37382 477.64025 
L 365.593452 341.039868 
L 365.813084 351.268211 
L 366.252349 402.003447 
L 366.471981 429.649035 
L 366.691613 406.047075 
L 366.911246 491.199991 
L 367.130878 399.429531 
L 367.35051 485.21842 
L 367.570142 482.864835 
L 367.789775 493.193333 
L 368.009407 484.413496 
L 368.229039 419.205598 
L 368.448672 510.178759 
L 368.887936 453.435774 
L 369.327201 282.568702 
L 369.546833 498.665907 
L 369.766465 450.932525 
L 369.986098 454.939082 
L 370.20573 435.592431 
L 370.425362 470.074064 
L 370.644994 464.010191 
L 370.864627 496.081924 
L 371.084259 383.090218 
L 371.303891 409.417369 
L 371.523524 508.909815 
L 371.962788 419.780263 
L 372.18242 436.212886 
L 372.402053 570.34828 
L 372.621685 521.880011 
L 372.841317 506.506883 
L 373.280582 410.115122 
L 373.719846 427.893601 
L 373.939479 396.082165 
L 374.159111 525.05492 
L 374.378743 448.359011 
L 374.598376 474.911009 
L 374.818008 387.196233 
L 375.03764 522.250183 
L 375.476905 427.922429 
L 375.696537 491.746253 
L 375.916169 520.369704 
L 376.135802 416.963509 
L 376.355434 417.460814 
L 376.575066 418.961725 
L 376.794698 477.178311 
L 377.014331 420.574818 
L 377.233963 422.272955 
L 377.453595 401.438735 
L 377.673228 489.964711 
L 378.112492 416.410603 
L 378.332124 485.461001 
L 378.551757 474.8248 
L 378.771389 420.143437 
L 378.991021 393.566836 
L 379.210654 461.265453 
L 379.430286 385.333514 
L 379.649918 478.423016 
L 379.86955 487.296936 
L 380.089183 392.737683 
L 380.528447 480.422535 
L 380.748079 469.14322 
L 380.967712 418.347541 
L 381.187344 450.202565 
L 381.406976 435.70018 
L 381.626609 441.360128 
L 381.846241 383.33351 
L 382.065873 532.002462 
L 382.285505 463.225298 
L 382.505138 498.00827 
L 382.72477 436.142953 
L 382.944402 433.618331 
L 383.164035 516.467077 
L 383.383667 427.472084 
L 383.603299 476.64369 
L 383.822931 495.746148 
L 384.042564 462.294689 
L 384.262196 580.503039 
L 384.481828 438.143416 
L 384.701461 437.201387 
L 385.140725 382.128776 
L 385.360357 493.72906 
L 385.57999 310.221535 
L 385.799622 370.903338 
L 386.019254 303.882141 
L 386.458519 531.685807 
L 386.678151 399.631736 
L 386.897783 339.62282 
L 387.117416 329.810636 
L 387.337048 461.869973 
L 387.55668 403.552855 
L 387.776313 474.762164 
L 387.995945 502.911458 
L 388.215577 381.944776 
L 388.874474 494.636053 
L 389.094106 470.796243 
L 389.313739 485.633866 
L 389.533371 409.33638 
L 389.753003 408.574441 
L 389.972635 500.850784 
L 390.192268 242.647842 
L 390.4119 476.992909 
L 390.631532 460.166722 
L 390.851165 428.602854 
L 391.070797 491.573274 
L 391.290429 482.761246 
L 391.510061 459.53706 
L 391.729694 479.25524 
L 391.949326 235.171443 
L 392.168958 478.795017 
L 392.388591 340.04742 
L 392.608223 325.563495 
L 392.827855 399.863057 
L 393.26712 383.791632 
L 393.486752 434.33154 
L 393.706384 513.446306 
L 393.926017 461.982022 
L 394.145649 462.557569 
L 394.365281 448.036521 
L 394.584913 486.332281 
L 394.804546 380.66995 
L 395.024178 402.746595 
L 395.463443 542.183576 
L 395.683075 395.863876 
L 395.902707 423.393456 
L 396.122339 287.734168 
L 396.341972 504.473616 
L 396.561604 486.215937 
L 396.781236 556.555656 
L 397.000868 389.225447 
L 397.220501 405.974103 
L 397.440133 280.453376 
L 397.659765 522.027137 
L 398.09903 332.495666 
L 398.318662 496.399879 
L 398.538294 479.3019 
L 398.757927 369.247205 
L 398.977559 553.205779 
L 399.197191 475.962391 
L 399.416824 452.677262 
L 399.636456 493.230202 
L 399.856088 470.430792 
L 400.07572 415.811939 
L 400.295353 527.207003 
L 400.514985 512.493743 
L 400.734617 534.496589 
L 400.95425 507.639214 
L 401.173882 526.702776 
L 401.393514 461.548061 
L 401.613146 436.798136 
L 401.832779 371.741632 
L 402.052411 383.234527 
L 402.272043 348.373047 
L 402.491676 433.632322 
L 402.711308 468.770197 
L 402.93094 448.722964 
L 403.150572 448.940578 
L 403.370205 421.44497 
L 403.589837 420.873725 
L 403.809469 531.805277 
L 404.248734 367.327922 
L 404.468366 448.534982 
L 404.687998 474.452892 
L 404.907631 390.186002 
L 405.127263 429.016542 
L 405.346895 504.55895 
L 405.78616 336.305875 
L 406.005792 495.792209 
L 406.225424 386.429808 
L 406.445057 460.662098 
L 406.664689 401.344699 
L 406.884321 458.478192 
L 407.323586 366.549706 
L 407.543218 477.87162 
L 407.76285 498.931462 
L 408.202115 457.166939 
L 408.421747 509.134898 
L 408.64138 338.339864 
L 408.861012 438.401326 
L 409.080644 481.787048 
L 409.300276 440.859682 
L 409.519909 436.365219 
L 409.739541 493.017278 
L 409.959173 497.011778 
L 410.178806 459.750776 
L 410.398438 350.578918 
L 410.61807 480.612728 
L 410.837702 489.348877 
L 411.057335 488.43635 
L 411.276967 471.258059 
L 411.496599 398.461512 
L 411.716231 394.181706 
L 411.935864 370.30966 
L 412.155496 385.045866 
L 412.375128 443.774866 
L 412.594761 413.788148 
L 412.814393 509.783962 
L 413.034025 440.451842 
L 413.253657 319.352478 
L 413.47329 466.906713 
L 413.692922 465.443399 
L 413.912554 433.294885 
L 414.351819 486.719045 
L 414.791083 402.150701 
L 415.010716 472.777072 
L 415.230348 373.418243 
L 415.44998 424.760383 
L 415.669613 408.784537 
L 415.889245 486.449016 
L 416.108877 449.564367 
L 416.328509 391.90718 
L 416.548142 494.358332 
L 416.767774 465.44782 
L 416.987406 467.133256 
L 417.207039 506.459438 
L 417.426671 465.538512 
L 417.865935 517.723228 
L 418.085568 414.569167 
L 418.3052 487.478235 
L 418.524832 493.836018 
L 418.744465 439.91867 
L 418.964097 442.248287 
L 419.183729 496.769595 
L 419.403361 419.26938 
L 419.622994 506.617501 
L 420.062258 372.326055 
L 420.281891 398.62726 
L 420.501523 372.391678 
L 420.940787 492.37665 
L 421.16042 518.459111 
L 421.380052 298.956194 
L 421.599684 454.8325 
L 421.819317 458.012719 
L 422.038949 443.112112 
L 422.258581 359.578494 
L 422.478213 466.452726 
L 422.697846 487.045594 
L 422.917478 385.163951 
L 423.13711 398.48986 
L 423.356743 382.410595 
L 423.796007 467.958787 
L 424.015639 450.392886 
L 424.235272 484.890039 
L 424.454904 423.434869 
L 424.674536 478.34265 
L 424.894169 446.343532 
L 425.113801 451.647578 
L 425.333433 476.864489 
L 425.553065 442.014924 
L 425.772698 435.597882 
L 425.99233 417.749785 
L 426.211962 303.203866 
L 426.431594 473.255207 
L 426.651227 402.108376 
L 426.870859 505.253399 
L 427.090491 449.323666 
L 427.310124 487.044494 
L 427.529756 377.331729 
L 427.749388 487.518964 
L 427.96902 401.753899 
L 428.188653 501.744614 
L 428.627917 367.187786 
L 428.84755 392.950828 
L 429.067182 522.462578 
L 429.286814 474.020631 
L 429.506446 490.102696 
L 429.726079 538.699053 
L 429.945711 530.276545 
L 430.165343 314.254203 
L 430.384976 462.450983 
L 430.604608 431.670829 
L 430.82424 485.55052 
L 431.043872 380.448296 
L 431.263505 438.16764 
L 431.483137 454.038515 
L 431.702769 510.376883 
L 431.922402 500.01077 
L 432.142034 305.817254 
L 432.361666 513.663945 
L 432.581298 443.562102 
L 432.800931 501.273382 
L 433.020563 426.971648 
L 433.240195 419.430221 
L 433.459828 468.254691 
L 433.899092 314.106846 
L 434.118724 467.810207 
L 434.338357 471.556561 
L 434.557989 304.40093 
L 434.997254 399.829352 
L 435.216886 489.790528 
L 435.436518 525.519595 
L 435.65615 446.689552 
L 435.875783 495.257428 
L 436.315047 406.388108 
L 436.53468 385.156696 
L 436.754312 491.663897 
L 436.973944 131.763818 
L 437.193576 381.78396 
L 437.632841 519.976548 
L 437.852473 404.898922 
L 438.072106 533.164863 
L 438.291738 464.934172 
L 438.51137 450.889128 
L 438.731002 398.582258 
L 438.950635 448.76531 
L 439.170267 412.361392 
L 439.389899 477.191492 
L 439.609532 424.467638 
L 439.829164 509.789527 
L 440.048796 464.567837 
L 440.268428 371.042291 
L 440.488061 522.609935 
L 440.707693 346.860735 
L 440.927325 401.39783 
L 441.146958 558.107631 
L 441.36659 476.870384 
L 441.586222 496.374359 
L 441.805854 526.572673 
L 442.025487 356.334299 
L 442.245119 405.100251 
L 442.464751 372.737862 
L 442.684383 437.710026 
L 442.904016 356.527748 
L 443.123648 362.56386 
L 443.34328 525.337744 
L 443.562913 419.32893 
L 443.782545 454.884042 
L 444.002177 465.626285 
L 444.221809 456.07872 
L 444.441442 358.865927 
L 444.661074 190.805862 
L 444.880706 376.337848 
L 445.100339 457.649188 
L 445.319971 326.11394 
L 445.539603 419.262935 
L 445.759235 358.101207 
L 445.978868 334.223807 
L 446.1985 486.908762 
L 446.418132 515.937503 
L 446.637765 277.305736 
L 446.857397 387.595668 
L 447.077029 193.50115 
L 447.296661 479.118003 
L 447.516294 433.174384 
L 447.735926 478.74912 
L 447.955558 376.114382 
L 448.175191 400.225688 
L 448.394823 463.905013 
L 448.614455 400.238007 
L 448.834087 482.112154 
L 449.05372 471.926505 
L 449.273352 409.862154 
L 449.492984 462.291823 
L 449.712617 418.766726 
L 450.151881 532.340989 
L 450.371513 397.257696 
L 450.591146 428.517047 
L 450.810778 511.980306 
L 451.03041 486.121319 
L 451.250043 518.162088 
L 451.469675 513.209785 
L 451.689307 471.687009 
L 451.908939 457.17962 
L 452.128572 366.699444 
L 452.348204 563.893055 
L 452.567836 476.55985 
L 452.787469 506.444077 
L 453.007101 485.893185 
L 453.226733 330.164463 
L 453.446365 470.426334 
L 453.665998 486.346101 
L 453.88563 383.456951 
L 454.105262 465.652608 
L 454.324895 484.003149 
L 454.544527 420.815854 
L 454.764159 539.261606 
L 454.983791 438.142844 
L 455.203424 431.407829 
L 455.423056 478.33235 
L 455.642688 387.826639 
L 455.862321 410.935615 
L 456.081953 359.592804 
L 456.301585 488.625823 
L 456.521217 506.818637 
L 456.74085 327.210059 
L 457.180114 522.025783 
L 457.399746 477.855287 
L 457.619379 394.449426 
L 457.839011 476.106466 
L 458.058643 435.837063 
L 458.278276 501.123115 
L 458.497908 495.284002 
L 458.71754 365.958101 
L 458.937172 472.955503 
L 459.156805 457.401682 
L 459.376437 427.156004 
L 459.815702 524.675262 
L 460.035334 476.897811 
L 460.254966 529.438305 
L 460.474598 489.861107 
L 460.694231 498.84375 
L 460.913863 446.464884 
L 461.133495 510.713834 
L 461.353128 479.05595 
L 461.57276 537.664726 
L 461.792392 393.007181 
L 462.012024 414.444284 
L 462.231657 407.364543 
L 462.451289 473.613054 
L 462.670921 453.044245 
L 462.890554 323.946099 
L 463.110186 449.72702 
L 463.329818 506.120915 
L 463.54945 412.998095 
L 463.769083 530.121049 
L 463.988715 521.717937 
L 464.42798 484.103766 
L 464.647612 504.75678 
L 465.086876 454.409926 
L 465.306509 503.930496 
L 465.526141 423.606092 
L 465.745773 515.310517 
L 465.965406 367.074216 
L 466.40467 463.595 
L 466.624302 370.139582 
L 466.843935 494.232882 
L 467.063567 525.235488 
L 467.283199 373.997812 
L 467.502832 518.610729 
L 467.722464 512.228795 
L 467.942096 410.140342 
L 468.161728 422.540243 
L 468.381361 455.200242 
L 468.600993 442.239095 
L 468.820625 386.023329 
L 469.040258 281.253948 
L 469.25989 462.387728 
L 469.479522 518.307445 
L 469.699154 442.650701 
L 469.918787 456.355053 
L 470.138419 501.691134 
L 470.358051 448.587326 
L 470.577684 498.093389 
L 470.797316 446.989054 
L 471.016948 463.163083 
L 471.23658 456.616136 
L 471.456213 527.631746 
L 471.675845 441.890963 
L 471.895477 451.026627 
L 472.11511 478.2882 
L 472.554374 352.659252 
L 472.774006 420.153876 
L 472.993639 410.591428 
L 473.213271 457.46182 
L 473.432903 446.54886 
L 473.652535 492.083966 
L 473.872168 430.751698 
L 474.0918 546.052141 
L 474.311432 460.734817 
L 474.531065 562.230636 
L 474.750697 461.670982 
L 474.970329 417.835191 
L 475.189961 487.226975 
L 475.409594 356.051746 
L 475.629226 475.192042 
L 476.068491 333.428915 
L 476.288123 488.643638 
L 476.507755 459.967771 
L 476.727387 460.773817 
L 476.94702 441.147793 
L 477.166652 467.221696 
L 477.386284 357.919448 
L 477.605917 419.024697 
L 477.825549 374.115196 
L 478.045181 490.399714 
L 478.264813 463.820734 
L 478.484446 422.496779 
L 478.704078 421.04259 
L 478.92371 413.625933 
L 479.143343 492.60851 
L 479.362975 508.37046 
L 479.582607 454.923922 
L 479.802239 301.840002 
L 480.021872 436.549977 
L 480.241504 477.817452 
L 480.461136 421.845926 
L 480.680769 495.094577 
L 480.900401 492.178896 
L 481.120033 421.865151 
L 481.339665 449.24124 
L 481.559298 320.747722 
L 481.77893 480.0532 
L 481.998562 457.442398 
L 482.218195 365.6209 
L 482.437827 399.295485 
L 482.657459 520.581929 
L 482.877091 377.800447 
L 483.535988 504.314974 
L 483.755621 512.501676 
L 483.975253 446.828406 
L 484.194885 494.201846 
L 484.414517 423.255937 
L 484.63415 410.644091 
L 484.853782 420.506382 
L 485.073414 410.956246 
L 485.293047 458.468208 
L 485.512679 471.556836 
L 485.951943 391.715053 
L 486.171576 310.647108 
L 486.61084 527.1579 
L 486.830473 511.410102 
L 487.050105 392.095796 
L 487.489369 452.482297 
L 487.709002 405.967843 
L 487.928634 510.378228 
L 488.148266 348.165374 
L 488.587531 480.994046 
L 488.807163 450.18759 
L 489.246428 539.179875 
L 489.46606 452.540865 
L 489.685692 515.403848 
L 489.905324 314.747885 
L 490.124957 493.950116 
L 490.344589 485.107638 
L 490.564221 508.678 
L 490.783854 506.665068 
L 491.003486 482.00823 
L 491.223118 426.109197 
L 491.44275 506.319324 
L 491.662383 434.564232 
L 491.882015 399.891828 
L 492.101647 481.709849 
L 492.32128 487.959055 
L 492.540912 489.315838 
L 492.760544 419.577869 
L 493.199809 395.11989 
L 493.639073 488.979669 
L 493.858706 369.894803 
L 494.29797 518.356862 
L 494.517602 444.830587 
L 494.737235 432.519454 
L 495.176499 525.378431 
L 495.396132 419.382172 
L 495.615764 412.079454 
L 495.835396 467.8949 
L 496.055028 480.951636 
L 496.274661 447.6637 
L 496.494293 504.990839 
L 496.713925 512.372987 
L 496.933558 541.702723 
L 497.15319 542.418793 
L 497.372822 353.539881 
L 497.592454 448.680701 
L 497.812087 427.072504 
L 498.031719 524.728793 
L 498.251351 511.505222 
L 498.470984 434.293965 
L 498.910248 516.528199 
L 499.12988 401.346551 
L 499.349513 464.886044 
L 499.569145 449.33854 
L 499.788777 336.435248 
L 500.00841 482.288331 
L 500.228042 386.752711 
L 500.667306 466.43551 
L 500.886939 429.024532 
L 501.106571 321.646229 
L 501.326203 521.292398 
L 501.545836 526.863347 
L 501.765468 349.988767 
L 501.9851 518.592891 
L 502.204732 460.690965 
L 502.424365 538.63195 
L 502.643997 496.562604 
L 502.863629 515.849736 
L 503.083262 570.230738 
L 503.302894 376.445833 
L 503.522526 455.97978 
L 503.742158 435.186579 
L 503.961791 543.804092 
L 504.181423 502.584172 
L 504.401055 410.426432 
L 504.620687 431.537994 
L 504.84032 478.46463 
L 505.059952 370.098043 
L 505.279584 467.483314 
L 505.499217 399.64028 
L 505.938481 447.999398 
L 506.158113 367.647866 
L 506.377746 487.632252 
L 506.597378 424.060664 
L 506.81701 505.754443 
L 507.036643 508.25591 
L 507.256275 436.522414 
L 507.475907 494.127494 
L 507.915172 397.555122 
L 508.354436 495.246789 
L 508.574069 409.161839 
L 508.793701 490.2821 
L 509.013333 439.550152 
L 509.232965 500.618607 
L 509.452598 400.285809 
L 509.67223 471.866069 
L 509.891862 477.030543 
L 510.111495 527.514359 
L 510.331127 404.82474 
L 510.550759 472.215214 
L 510.770391 406.325812 
L 510.990024 457.636551 
L 511.209656 441.286258 
L 511.429288 501.849615 
L 511.868553 412.69627 
L 512.088185 445.212635 
L 512.307817 518.586312 
L 512.52745 492.142911 
L 512.747082 404.325026 
L 512.966714 511.257573 
L 513.186347 425.643962 
L 513.405979 474.182245 
L 513.625611 426.994359 
L 513.845243 418.195778 
L 514.064876 314.418784 
L 514.284508 445.627784 
L 514.50414 411.311897 
L 514.723773 510.805286 
L 514.943405 250.60311 
L 515.382669 554.400072 
L 515.602302 497.049502 
L 515.821934 480.423209 
L 516.041566 432.412206 
L 516.261199 452.435111 
L 516.480831 346.963984 
L 516.700463 472.546804 
L 516.920095 455.247197 
L 517.139728 504.399783 
L 517.35936 519.539122 
L 517.578992 393.93443 
L 517.798625 412.347685 
L 518.018257 419.021986 
L 518.237889 432.479683 
L 518.457521 392.77596 
L 518.677154 438.528461 
L 518.896786 443.956637 
L 519.116418 473.140715 
L 519.555683 350.054754 
L 519.775315 480.009144 
L 519.994947 247.256903 
L 520.21458 448.015394 
L 520.434212 459.944261 
L 520.653844 517.902544 
L 520.873476 404.583937 
L 521.093109 524.412443 
L 521.312741 539.461175 
L 521.532373 451.684662 
L 521.752006 467.065547 
L 521.971638 451.014042 
L 522.19127 519.806684 
L 522.410902 455.165918 
L 522.630535 524.920657 
L 522.850167 379.032775 
L 523.069799 528.791219 
L 523.509064 334.689053 
L 523.728696 460.677501 
L 523.948328 429.228401 
L 524.167961 420.391114 
L 524.387593 453.30475 
L 524.607225 286.366026 
L 524.826858 449.20875 
L 525.04649 451.699435 
L 525.266122 423.574444 
L 525.485754 373.786119 
L 525.705387 451.021381 
L 525.925019 477.209213 
L 526.144651 462.54963 
L 526.364284 484.976864 
L 526.583916 409.327743 
L 526.803548 437.750462 
L 527.02318 529.803451 
L 527.462445 402.194743 
L 527.90171 471.411904 
L 528.340974 419.519355 
L 528.560606 502.61989 
L 528.780239 482.533986 
L 528.999871 333.148218 
L 529.439136 478.675614 
L 529.658768 441.075768 
L 529.8784 515.779165 
L 530.098032 405.307817 
L 530.317665 391.465142 
L 530.537297 476.66855 
L 530.756929 452.755057 
L 530.976562 508.954102 
L 531.196194 480.200124 
L 531.415826 323.319848 
L 531.635458 456.750709 
L 531.855091 438.721345 
L 532.074723 495.956507 
L 532.294355 325.937091 
L 532.513988 499.66821 
L 532.73362 494.898763 
L 533.172884 434.363957 
L 533.392517 502.121933 
L 533.612149 448.985708 
L 533.831781 454.716807 
L 534.051413 488.272027 
L 534.271046 426.953765 
L 534.490678 515.676605 
L 534.929943 329.662211 
L 535.149575 455.417213 
L 535.369207 443.109266 
L 535.588839 452.183992 
L 535.808472 470.240759 
L 536.028104 285.21043 
L 536.247736 466.854919 
L 536.467369 522.379206 
L 536.687001 422.361134 
L 536.906633 551.995015 
L 537.126265 475.723472 
L 537.345898 309.899923 
L 538.004795 512.390391 
L 538.224427 431.162184 
L 538.444059 419.626014 
L 538.663691 394.057207 
L 538.883324 392.6761 
L 539.102956 404.175795 
L 539.322588 435.454547 
L 539.542221 353.337836 
L 539.761853 475.135712 
L 539.981485 514.375639 
L 540.201117 392.596945 
L 540.42075 410.75423 
L 540.640382 480.847096 
L 540.860014 448.493774 
L 541.079647 385.758617 
L 541.518911 473.313208 
L 541.738543 338.827455 
L 541.958176 498.472789 
L 542.177808 383.125403 
L 542.39744 450.073405 
L 542.617073 325.975902 
L 542.836705 271.312829 
L 543.056337 502.40954 
L 543.275969 319.254124 
L 543.715234 427.770546 
L 543.934866 323.569539 
L 544.154499 424.794261 
L 544.374131 471.203548 
L 544.593763 448.872997 
L 544.813395 296.278209 
L 545.033028 463.957434 
L 545.25266 428.449241 
L 545.472292 508.805112 
L 545.691925 505.567337 
L 545.911557 451.050629 
L 545.911557 451.050629 
" style="fill:none;stroke:#96c69a;stroke-linecap:round;stroke-width:3;"/>
   </g>
   <g id="line2d_2"/>
   <g id="patch_3">
    <path d="M 84.914375 602.94 
L 84.914375 109.326857 
" style="fill:none;stroke:#262626;stroke-linecap:square;stroke-linejoin:miter;stroke-width:2.5;"/>
   </g>
   <g id="patch_4">
    <path d="M 84.914375 602.94 
L 567.863804 602.94 
" style="fill:none;stroke:#262626;stroke-linecap:square;stroke-linejoin:miter;stroke-width:2.5;"/>
   </g>
   <g id="legend_1">
    <g id="patch_5">
     <path d="M 507.990366 597.94 
L 560.863804 597.94 
Q 562.863804 597.94 562.863804 595.94 
L 562.863804 554.034375 
Q 562.863804 552.034375 560.863804 552.034375 
L 507.990366 552.034375 
Q 505.990366 552.034375 505.990366 554.034375 
L 505.990366 595.94 
Q 505.990366 597.94 507.990366 597.94 
z
" style="fill:#ffffff;opacity:0.8;stroke:#cccccc;stroke-linejoin:miter;stroke-width:2;"/>
    </g>
    <g id="text_14">
     <!-- $n_\tau$ -->
     <g style="fill:#262626;" transform="translate(521.347085 574.270625)scale(0.24 -0.24)">
      <defs>
       <path d="M 3566 2113 
L 3156 0 
L 2578 0 
L 2988 2091 
Q 3016 2238 3031 2350 
Q 3047 2463 3047 2528 
Q 3047 2791 2881 2937 
Q 2716 3084 2419 3084 
Q 1956 3084 1622 2776 
Q 1288 2469 1184 1941 
L 800 0 
L 225 0 
L 903 3500 
L 1478 3500 
L 1363 2950 
Q 1603 3253 1940 3418 
Q 2278 3584 2650 3584 
Q 3113 3584 3367 3334 
Q 3622 3084 3622 2631 
Q 3622 2519 3608 2391 
Q 3594 2263 3566 2113 
z
" id="DejaVuSans-Oblique-6e" transform="scale(0.015625)"/>
       <path d="M 2103 638 
Q 2188 488 2525 488 
L 2800 488 
L 2706 0 
L 2363 0 
Q 1800 0 1600 300 
Q 1403 606 1534 1269 
L 1856 2925 
L 541 2925 
L 653 3500 
L 3881 3500 
L 3769 2925 
L 2444 2925 
L 2113 1234 
Q 2025 781 2103 638 
z
" id="DejaVuSans-Oblique-3c4" transform="scale(0.015625)"/>
      </defs>
      <use xlink:href="#DejaVuSans-Oblique-6e"/>
      <use transform="translate(63.378906 -16.40625)scale(0.7)" xlink:href="#DejaVuSans-Oblique-3c4"/>
     </g>
    </g>
    <g id="line2d_3">
     <path d="M 509.990366 588.360312 
L 529.990366 588.360312 
" style="fill:none;stroke:#96c69a;stroke-linecap:round;stroke-width:3;"/>
    </g>
    <g id="line2d_4"/>
    <g id="text_15">
     <!-- 160 -->
     <g style="fill:#262626;" transform="translate(537.990366 591.860312)scale(0.1 -0.1)">
      <defs>
       <path d="M 750 831 
L 1813 831 
L 1813 3847 
L 722 3622 
L 722 4441 
L 1806 4666 
L 2950 4666 
L 2950 831 
L 4013 831 
L 4013 0 
L 750 0 
L 750 831 
z
" id="DejaVuSans-Bold-31" transform="scale(0.015625)"/>
       <path d="M 2316 2303 
Q 2000 2303 1842 2098 
Q 1684 1894 1684 1484 
Q 1684 1075 1842 870 
Q 2000 666 2316 666 
Q 2634 666 2792 870 
Q 2950 1075 2950 1484 
Q 2950 1894 2792 2098 
Q 2634 2303 2316 2303 
z
M 3803 4544 
L 3803 3681 
Q 3506 3822 3243 3889 
Q 2981 3956 2731 3956 
Q 2194 3956 1894 3657 
Q 1594 3359 1544 2772 
Q 1750 2925 1990 3001 
Q 2231 3078 2516 3078 
Q 3231 3078 3670 2659 
Q 4109 2241 4109 1563 
Q 4109 813 3618 361 
Q 3128 -91 2303 -91 
Q 1394 -91 895 523 
Q 397 1138 397 2266 
Q 397 3422 980 4083 
Q 1563 4744 2578 4744 
Q 2900 4744 3203 4694 
Q 3506 4644 3803 4544 
z
" id="DejaVuSans-Bold-36" transform="scale(0.015625)"/>
       <path d="M 2944 2338 
Q 2944 3213 2780 3570 
Q 2616 3928 2228 3928 
Q 1841 3928 1675 3570 
Q 1509 3213 1509 2338 
Q 1509 1453 1675 1090 
Q 1841 728 2228 728 
Q 2613 728 2778 1090 
Q 2944 1453 2944 2338 
z
M 4147 2328 
Q 4147 1169 3647 539 
Q 3147 -91 2228 -91 
Q 1306 -91 806 539 
Q 306 1169 306 2328 
Q 306 3491 806 4120 
Q 1306 4750 2228 4750 
Q 3147 4750 3647 4120 
Q 4147 3491 4147 2328 
z
" id="DejaVuSans-Bold-30" transform="scale(0.015625)"/>
      </defs>
      <use xlink:href="#DejaVuSans-Bold-31"/>
      <use x="69.580078" xlink:href="#DejaVuSans-Bold-36"/>
      <use x="139.160156" xlink:href="#DejaVuSans-Bold-30"/>
     </g>
    </g>
   </g>
  </g>
  <g id="axes_2">
   <g id="patch_6">
    <path d="M 84.914375 92.305714 
L 567.863804 92.305714 
L 567.863804 7.2 
L 84.914375 7.2 
z
" style="fill:none;"/>
   </g>
   <g id="matplotlib.axis_3">
    <g id="xtick_7"/>
    <g id="xtick_8"/>
    <g id="xtick_9"/>
    <g id="xtick_10"/>
    <g id="xtick_11"/>
    <g id="xtick_12"/>
   </g>
   <g id="matplotlib.axis_4">
    <g id="ytick_6">
     <g id="text_16">
      <!-- 0 -->
      <g style="fill:#262626;" transform="translate(55.416875 100.663996)scale(0.22 -0.22)">
       <use xlink:href="#DejaVuSans-30"/>
      </g>
     </g>
    </g>
    <g id="ytick_7">
     <g id="text_17">
      <!-- 100 -->
      <g style="fill:#262626;" transform="translate(27.421875 48.032138)scale(0.22 -0.22)">
       <use xlink:href="#DejaVuSans-31"/>
       <use x="63.623047" xlink:href="#DejaVuSans-30"/>
       <use x="127.246094" xlink:href="#DejaVuSans-30"/>
      </g>
     </g>
    </g>
   </g>
   <g id="patch_7">
    <path clip-path="url(#p210cb4fdbb)" d="M 106.866622 92.305714 
L 140.639309 92.305714 
L 140.639309 11.252653 
L 106.866622 11.252653 
z
" style="fill:#96c69a;fill-opacity:0.5;stroke:#ffffff;stroke-linejoin:miter;stroke-width:2;"/>
   </g>
   <g id="patch_8">
    <path clip-path="url(#p210cb4fdbb)" d="M 140.639309 92.305714 
L 174.411996 92.305714 
L 174.411996 11.252653 
L 140.639309 11.252653 
z
" style="fill:#96c69a;fill-opacity:0.5;stroke:#ffffff;stroke-linejoin:miter;stroke-width:2;"/>
   </g>
   <g id="patch_9">
    <path clip-path="url(#p210cb4fdbb)" d="M 174.411996 92.305714 
L 208.184684 92.305714 
L 208.184684 11.252653 
L 174.411996 11.252653 
z
" style="fill:#96c69a;fill-opacity:0.5;stroke:#ffffff;stroke-linejoin:miter;stroke-width:2;"/>
   </g>
   <g id="patch_10">
    <path clip-path="url(#p210cb4fdbb)" d="M 208.184684 92.305714 
L 241.957371 92.305714 
L 241.957371 11.252653 
L 208.184684 11.252653 
z
" style="fill:#96c69a;fill-opacity:0.5;stroke:#ffffff;stroke-linejoin:miter;stroke-width:2;"/>
   </g>
   <g id="patch_11">
    <path clip-path="url(#p210cb4fdbb)" d="M 241.957371 92.305714 
L 275.730058 92.305714 
L 275.730058 11.778972 
L 241.957371 11.778972 
z
" style="fill:#96c69a;fill-opacity:0.5;stroke:#ffffff;stroke-linejoin:miter;stroke-width:2;"/>
   </g>
   <g id="patch_12">
    <path clip-path="url(#p210cb4fdbb)" d="M 275.730058 92.305714 
L 309.502746 92.305714 
L 309.502746 11.252653 
L 275.730058 11.252653 
z
" style="fill:#96c69a;fill-opacity:0.5;stroke:#ffffff;stroke-linejoin:miter;stroke-width:2;"/>
   </g>
   <g id="patch_13">
    <path clip-path="url(#p210cb4fdbb)" d="M 309.502746 92.305714 
L 343.275433 92.305714 
L 343.275433 11.252653 
L 309.502746 11.252653 
z
" style="fill:#96c69a;fill-opacity:0.5;stroke:#ffffff;stroke-linejoin:miter;stroke-width:2;"/>
   </g>
   <g id="patch_14">
    <path clip-path="url(#p210cb4fdbb)" d="M 343.275433 92.305714 
L 377.04812 92.305714 
L 377.04812 11.252653 
L 343.275433 11.252653 
z
" style="fill:#96c69a;fill-opacity:0.5;stroke:#ffffff;stroke-linejoin:miter;stroke-width:2;"/>
   </g>
   <g id="patch_15">
    <path clip-path="url(#p210cb4fdbb)" d="M 377.04812 92.305714 
L 410.820808 92.305714 
L 410.820808 11.778972 
L 377.04812 11.778972 
z
" style="fill:#96c69a;fill-opacity:0.5;stroke:#ffffff;stroke-linejoin:miter;stroke-width:2;"/>
   </g>
   <g id="patch_16">
    <path clip-path="url(#p210cb4fdbb)" d="M 410.820808 92.305714 
L 444.593495 92.305714 
L 444.593495 11.252653 
L 410.820808 11.252653 
z
" style="fill:#96c69a;fill-opacity:0.5;stroke:#ffffff;stroke-linejoin:miter;stroke-width:2;"/>
   </g>
   <g id="patch_17">
    <path clip-path="url(#p210cb4fdbb)" d="M 444.593495 92.305714 
L 478.366182 92.305714 
L 478.366182 11.252653 
L 444.593495 11.252653 
z
" style="fill:#96c69a;fill-opacity:0.5;stroke:#ffffff;stroke-linejoin:miter;stroke-width:2;"/>
   </g>
   <g id="patch_18">
    <path clip-path="url(#p210cb4fdbb)" d="M 478.366182 92.305714 
L 512.13887 92.305714 
L 512.13887 11.252653 
L 478.366182 11.252653 
z
" style="fill:#96c69a;fill-opacity:0.5;stroke:#ffffff;stroke-linejoin:miter;stroke-width:2;"/>
   </g>
   <g id="patch_19">
    <path clip-path="url(#p210cb4fdbb)" d="M 512.13887 92.305714 
L 545.911557 92.305714 
L 545.911557 11.252653 
L 512.13887 11.252653 
z
" style="fill:#96c69a;fill-opacity:0.5;stroke:#ffffff;stroke-linejoin:miter;stroke-width:2;"/>
   </g>
   <g id="patch_20">
    <path d="M 84.914375 92.305714 
L 84.914375 7.2 
" style="fill:none;stroke:#262626;stroke-linecap:square;stroke-linejoin:miter;stroke-width:2.5;"/>
   </g>
   <g id="patch_21">
    <path d="M 84.914375 92.305714 
L 567.863804 92.305714 
" style="fill:none;stroke:#262626;stroke-linecap:square;stroke-linejoin:miter;stroke-width:2.5;"/>
   </g>
  </g>
  <g id="axes_3">
   <g id="patch_22">
    <path d="M 584.517232 602.94 
L 667.784375 602.94 
L 667.784375 109.326857 
L 584.517232 109.326857 
z
" style="fill:none;"/>
   </g>
   <g id="matplotlib.axis_5">
    <g id="xtick_13">
     <g id="text_18">
      <!-- 0 -->
      <g style="fill:#262626;" transform="translate(577.518482 635.156562)scale(0.22 -0.22)">
       <use xlink:href="#DejaVuSans-30"/>
      </g>
     </g>
    </g>
    <g id="xtick_14">
     <g id="text_19">
      <!-- 100 -->
      <g style="fill:#262626;" transform="translate(607.334264 635.156562)scale(0.22 -0.22)">
       <use xlink:href="#DejaVuSans-31"/>
       <use x="63.623047" xlink:href="#DejaVuSans-30"/>
       <use x="127.246094" xlink:href="#DejaVuSans-30"/>
      </g>
     </g>
    </g>
   </g>
   <g id="matplotlib.axis_6">
    <g id="ytick_8"/>
    <g id="ytick_9"/>
    <g id="ytick_10"/>
    <g id="ytick_11"/>
    <g id="ytick_12"/>
   </g>
   <g id="patch_23">
    <path clip-path="url(#pb06899e710)" d="M 584.517232 580.503039 
L 588.022295 580.503039 
L 588.022295 568.374952 
L 584.517232 568.374952 
z
" style="fill:#96c69a;fill-opacity:0.5;stroke:#ffffff;stroke-linejoin:miter;stroke-width:1.212809;"/>
   </g>
   <g id="patch_24">
    <path clip-path="url(#pb06899e710)" d="M 584.517232 568.374952 
L 588.460428 568.374952 
L 588.460428 556.246865 
L 584.517232 556.246865 
z
" style="fill:#96c69a;fill-opacity:0.5;stroke:#ffffff;stroke-linejoin:miter;stroke-width:1.212809;"/>
   </g>
   <g id="patch_25">
    <path clip-path="url(#pb06899e710)" d="M 584.517232 556.246865 
L 591.089224 556.246865 
L 591.089224 544.118778 
L 584.517232 544.118778 
z
" style="fill:#96c69a;fill-opacity:0.5;stroke:#ffffff;stroke-linejoin:miter;stroke-width:1.212809;"/>
   </g>
   <g id="patch_26">
    <path clip-path="url(#pb06899e710)" d="M 584.517232 544.118778 
L 603.795076 544.118778 
L 603.795076 531.990691 
L 584.517232 531.990691 
z
" style="fill:#96c69a;fill-opacity:0.5;stroke:#ffffff;stroke-linejoin:miter;stroke-width:1.212809;"/>
   </g>
   <g id="patch_27">
    <path clip-path="url(#pb06899e710)" d="M 584.517232 531.990691 
L 614.310264 531.990691 
L 614.310264 519.862604 
L 584.517232 519.862604 
z
" style="fill:#96c69a;fill-opacity:0.5;stroke:#ffffff;stroke-linejoin:miter;stroke-width:1.212809;"/>
   </g>
   <g id="patch_28">
    <path clip-path="url(#pb06899e710)" d="M 584.517232 519.862604 
L 630.959311 519.862604 
L 630.959311 507.734517 
L 584.517232 507.734517 
z
" style="fill:#96c69a;fill-opacity:0.5;stroke:#ffffff;stroke-linejoin:miter;stroke-width:1.212809;"/>
   </g>
   <g id="patch_29">
    <path clip-path="url(#pb06899e710)" d="M 584.517232 507.734517 
L 636.216905 507.734517 
L 636.216905 495.60643 
L 584.517232 495.60643 
z
" style="fill:#96c69a;fill-opacity:0.5;stroke:#ffffff;stroke-linejoin:miter;stroke-width:1.212809;"/>
   </g>
   <g id="patch_30">
    <path clip-path="url(#pb06899e710)" d="M 584.517232 495.60643 
L 657.685413 495.60643 
L 657.685413 483.478343 
L 584.517232 483.478343 
z
" style="fill:#96c69a;fill-opacity:0.5;stroke:#ffffff;stroke-linejoin:miter;stroke-width:1.212809;"/>
   </g>
   <g id="patch_31">
    <path clip-path="url(#pb06899e710)" d="M 584.517232 483.478343 
L 659.437945 483.478343 
L 659.437945 471.350256 
L 584.517232 471.350256 
z
" style="fill:#96c69a;fill-opacity:0.5;stroke:#ffffff;stroke-linejoin:miter;stroke-width:1.212809;"/>
   </g>
   <g id="patch_32">
    <path clip-path="url(#pb06899e710)" d="M 584.517232 471.350256 
L 658.561679 471.350256 
L 658.561679 459.222168 
L 584.517232 459.222168 
z
" style="fill:#96c69a;fill-opacity:0.5;stroke:#ffffff;stroke-linejoin:miter;stroke-width:1.212809;"/>
   </g>
   <g id="patch_33">
    <path clip-path="url(#pb06899e710)" d="M 584.517232 459.222168 
L 663.819273 459.222168 
L 663.819273 447.094081 
L 584.517232 447.094081 
z
" style="fill:#96c69a;fill-opacity:0.5;stroke:#ffffff;stroke-linejoin:miter;stroke-width:1.212809;"/>
   </g>
   <g id="patch_34">
    <path clip-path="url(#pb06899e710)" d="M 584.517232 447.094081 
L 649.799023 447.094081 
L 649.799023 434.965994 
L 584.517232 434.965994 
z
" style="fill:#96c69a;fill-opacity:0.5;stroke:#ffffff;stroke-linejoin:miter;stroke-width:1.212809;"/>
   </g>
   <g id="patch_35">
    <path clip-path="url(#pb06899e710)" d="M 584.517232 434.965994 
L 641.036366 434.965994 
L 641.036366 422.837907 
L 584.517232 422.837907 
z
" style="fill:#96c69a;fill-opacity:0.5;stroke:#ffffff;stroke-linejoin:miter;stroke-width:1.212809;"/>
   </g>
   <g id="patch_36">
    <path clip-path="url(#pb06899e710)" d="M 584.517232 422.837907 
L 643.22703 422.837907 
L 643.22703 410.70982 
L 584.517232 410.70982 
z
" style="fill:#96c69a;fill-opacity:0.5;stroke:#ffffff;stroke-linejoin:miter;stroke-width:1.212809;"/>
   </g>
   <g id="patch_37">
    <path clip-path="url(#pb06899e710)" d="M 584.517232 410.70982 
L 641.036366 410.70982 
L 641.036366 398.581733 
L 584.517232 398.581733 
z
" style="fill:#96c69a;fill-opacity:0.5;stroke:#ffffff;stroke-linejoin:miter;stroke-width:1.212809;"/>
   </g>
   <g id="patch_38">
    <path clip-path="url(#pb06899e710)" d="M 584.517232 398.581733 
L 629.20678 398.581733 
L 629.20678 386.453646 
L 584.517232 386.453646 
z
" style="fill:#96c69a;fill-opacity:0.5;stroke:#ffffff;stroke-linejoin:miter;stroke-width:1.212809;"/>
   </g>
   <g id="patch_39">
    <path clip-path="url(#pb06899e710)" d="M 584.517232 386.453646 
L 612.995866 386.453646 
L 612.995866 374.325559 
L 584.517232 374.325559 
z
" style="fill:#96c69a;fill-opacity:0.5;stroke:#ffffff;stroke-linejoin:miter;stroke-width:1.212809;"/>
   </g>
   <g id="patch_40">
    <path clip-path="url(#pb06899e710)" d="M 584.517232 374.325559 
L 609.928936 374.325559 
L 609.928936 362.197472 
L 584.517232 362.197472 
z
" style="fill:#96c69a;fill-opacity:0.5;stroke:#ffffff;stroke-linejoin:miter;stroke-width:1.212809;"/>
   </g>
   <g id="patch_41">
    <path clip-path="url(#pb06899e710)" d="M 584.517232 362.197472 
L 602.918811 362.197472 
L 602.918811 350.069385 
L 584.517232 350.069385 
z
" style="fill:#96c69a;fill-opacity:0.5;stroke:#ffffff;stroke-linejoin:miter;stroke-width:1.212809;"/>
   </g>
   <g id="patch_42">
    <path clip-path="url(#pb06899e710)" d="M 584.517232 350.069385 
L 597.661217 350.069385 
L 597.661217 337.941298 
L 584.517232 337.941298 
z
" style="fill:#96c69a;fill-opacity:0.5;stroke:#ffffff;stroke-linejoin:miter;stroke-width:1.212809;"/>
   </g>
   <g id="patch_43">
    <path clip-path="url(#pb06899e710)" d="M 584.517232 337.941298 
L 598.09935 337.941298 
L 598.09935 325.813211 
L 584.517232 325.813211 
z
" style="fill:#96c69a;fill-opacity:0.5;stroke:#ffffff;stroke-linejoin:miter;stroke-width:1.212809;"/>
   </g>
   <g id="patch_44">
    <path clip-path="url(#pb06899e710)" d="M 584.517232 325.813211 
L 593.718021 325.813211 
L 593.718021 313.685124 
L 584.517232 313.685124 
z
" style="fill:#96c69a;fill-opacity:0.5;stroke:#ffffff;stroke-linejoin:miter;stroke-width:1.212809;"/>
   </g>
   <g id="patch_45">
    <path clip-path="url(#pb06899e710)" d="M 584.517232 313.685124 
L 592.841756 313.685124 
L 592.841756 301.557037 
L 584.517232 301.557037 
z
" style="fill:#96c69a;fill-opacity:0.5;stroke:#ffffff;stroke-linejoin:miter;stroke-width:1.212809;"/>
   </g>
   <g id="patch_46">
    <path clip-path="url(#pb06899e710)" d="M 584.517232 301.557037 
L 586.707896 301.557037 
L 586.707896 289.42895 
L 584.517232 289.42895 
z
" style="fill:#96c69a;fill-opacity:0.5;stroke:#ffffff;stroke-linejoin:miter;stroke-width:1.212809;"/>
   </g>
   <g id="patch_47">
    <path clip-path="url(#pb06899e710)" d="M 584.517232 289.42895 
L 590.212959 289.42895 
L 590.212959 277.300863 
L 584.517232 277.300863 
z
" style="fill:#96c69a;fill-opacity:0.5;stroke:#ffffff;stroke-linejoin:miter;stroke-width:1.212809;"/>
   </g>
   <g id="patch_48">
    <path clip-path="url(#pb06899e710)" d="M 584.517232 277.300863 
L 586.269763 277.300863 
L 586.269763 265.172776 
L 584.517232 265.172776 
z
" style="fill:#96c69a;fill-opacity:0.5;stroke:#ffffff;stroke-linejoin:miter;stroke-width:1.212809;"/>
   </g>
   <g id="patch_49">
    <path clip-path="url(#pb06899e710)" d="M 584.517232 265.172776 
L 585.393498 265.172776 
L 585.393498 253.044689 
L 584.517232 253.044689 
z
" style="fill:#96c69a;fill-opacity:0.5;stroke:#ffffff;stroke-linejoin:miter;stroke-width:1.212809;"/>
   </g>
   <g id="patch_50">
    <path clip-path="url(#pb06899e710)" d="M 584.517232 253.044689 
L 587.146029 253.044689 
L 587.146029 240.916602 
L 584.517232 240.916602 
z
" style="fill:#96c69a;fill-opacity:0.5;stroke:#ffffff;stroke-linejoin:miter;stroke-width:1.212809;"/>
   </g>
   <g id="patch_51">
    <path clip-path="url(#pb06899e710)" d="M 584.517232 240.916602 
L 584.955365 240.916602 
L 584.955365 228.788515 
L 584.517232 228.788515 
z
" style="fill:#96c69a;fill-opacity:0.5;stroke:#ffffff;stroke-linejoin:miter;stroke-width:1.212809;"/>
   </g>
   <g id="patch_52">
    <path clip-path="url(#pb06899e710)" d="M 584.517232 228.788515 
L 584.517232 228.788515 
L 584.517232 216.660428 
L 584.517232 216.660428 
z
" style="fill:#96c69a;fill-opacity:0.5;stroke:#ffffff;stroke-linejoin:miter;stroke-width:1.212809;"/>
   </g>
   <g id="patch_53">
    <path clip-path="url(#pb06899e710)" d="M 584.517232 216.660428 
L 584.517232 216.660428 
L 584.517232 204.53234 
L 584.517232 204.53234 
z
" style="fill:#96c69a;fill-opacity:0.5;stroke:#ffffff;stroke-linejoin:miter;stroke-width:1.212809;"/>
   </g>
   <g id="patch_54">
    <path clip-path="url(#pb06899e710)" d="M 584.517232 204.53234 
L 585.393498 204.53234 
L 585.393498 192.404253 
L 584.517232 192.404253 
z
" style="fill:#96c69a;fill-opacity:0.5;stroke:#ffffff;stroke-linejoin:miter;stroke-width:1.212809;"/>
   </g>
   <g id="patch_55">
    <path clip-path="url(#pb06899e710)" d="M 584.517232 192.404253 
L 584.955365 192.404253 
L 584.955365 180.276166 
L 584.517232 180.276166 
z
" style="fill:#96c69a;fill-opacity:0.5;stroke:#ffffff;stroke-linejoin:miter;stroke-width:1.212809;"/>
   </g>
   <g id="patch_56">
    <path clip-path="url(#pb06899e710)" d="M 584.517232 180.276166 
L 584.517232 180.276166 
L 584.517232 168.148079 
L 584.517232 168.148079 
z
" style="fill:#96c69a;fill-opacity:0.5;stroke:#ffffff;stroke-linejoin:miter;stroke-width:1.212809;"/>
   </g>
   <g id="patch_57">
    <path clip-path="url(#pb06899e710)" d="M 584.517232 168.148079 
L 584.517232 168.148079 
L 584.517232 156.019992 
L 584.517232 156.019992 
z
" style="fill:#96c69a;fill-opacity:0.5;stroke:#ffffff;stroke-linejoin:miter;stroke-width:1.212809;"/>
   </g>
   <g id="patch_58">
    <path clip-path="url(#pb06899e710)" d="M 584.517232 156.019992 
L 584.517232 156.019992 
L 584.517232 143.891905 
L 584.517232 143.891905 
z
" style="fill:#96c69a;fill-opacity:0.5;stroke:#ffffff;stroke-linejoin:miter;stroke-width:1.212809;"/>
   </g>
   <g id="patch_59">
    <path clip-path="url(#pb06899e710)" d="M 584.517232 143.891905 
L 584.955365 143.891905 
L 584.955365 131.763818 
L 584.517232 131.763818 
z
" style="fill:#96c69a;fill-opacity:0.5;stroke:#ffffff;stroke-linejoin:miter;stroke-width:1.212809;"/>
   </g>
   <g id="patch_60">
    <path d="M 584.517232 602.94 
L 584.517232 109.326857 
" style="fill:none;stroke:#262626;stroke-linecap:square;stroke-linejoin:miter;stroke-width:2.5;"/>
   </g>
   <g id="patch_61">
    <path d="M 584.517232 602.94 
L 667.784375 602.94 
" style="fill:none;stroke:#262626;stroke-linecap:square;stroke-linejoin:miter;stroke-width:2.5;"/>
   </g>
  </g>
 </g>
 <defs>
  <clipPath id="pf0880ae045">
   <rect height="493.613143" width="482.949429" x="84.914375" y="109.326857"/>
  </clipPath>
  <clipPath id="p210cb4fdbb">
   <rect height="85.105714" width="482.949429" x="84.914375" y="7.2"/>
  </clipPath>
  <clipPath id="pb06899e710">
   <rect height="493.613143" width="83.267143" x="584.517232" y="109.326857"/>
  </clipPath>
 </defs>
</svg>
