<?xml version="1.0" encoding="utf-8" standalone="no"?>
<!DOCTYPE svg PUBLIC "-//W3C//DTD SVG 1.1//EN"
  "http://www.w3.org/Graphics/SVG/1.1/DTD/svg11.dtd">
<svg height="674.159375pt" version="1.1" viewBox="0 0 674.984375 674.159375" width="674.984375pt" xmlns="http://www.w3.org/2000/svg" xmlns:xlink="http://www.w3.org/1999/xlink">
 <metadata>
  <rdf:RDF xmlns:cc="http://creativecommons.org/ns#" xmlns:dc="http://purl.org/dc/elements/1.1/" xmlns:rdf="http://www.w3.org/1999/02/22-rdf-syntax-ns#">
   <cc:Work>
    <dc:type rdf:resource="http://purl.org/dc/dcmitype/StillImage"/>
    <dc:date>2021-07-24T14:58:32.201511</dc:date>
    <dc:format>image/svg+xml</dc:format>
    <dc:creator>
     <cc:Agent>
      <dc:title>Matplotlib v3.4.2, https://matplotlib.org/</dc:title>
     </cc:Agent>
    </dc:creator>
   </cc:Work>
  </rdf:RDF>
 </metadata>
 <defs>
  <style type="text/css">*{stroke-linecap:butt;stroke-linejoin:round;}</style>
 </defs>
 <g id="figure_1">
  <g id="patch_1">
   <path d="M 0 674.159375 
L 674.984375 674.159375 
L 674.984375 0 
L 0 0 
z
" style="fill:#ffffff;"/>
  </g>
  <g id="axes_1">
   <g id="patch_2">
    <path d="M 84.914375 602.94 
L 567.863804 602.94 
L 567.863804 109.326857 
L 84.914375 109.326857 
z
" style="fill:none;"/>
   </g>
   <g id="matplotlib.axis_1">
    <g id="xtick_1">
     <g id="text_1">
      <!-- 0 -->
      <g style="fill:#262626;" transform="translate(99.648239 635.156562)scale(0.22 -0.22)">
       <defs>
        <path d="M 2034 4250 
Q 1547 4250 1301 3770 
Q 1056 3291 1056 2328 
Q 1056 1369 1301 889 
Q 1547 409 2034 409 
Q 2525 409 2770 889 
Q 3016 1369 3016 2328 
Q 3016 3291 2770 3770 
Q 2525 4250 2034 4250 
z
M 2034 4750 
Q 2819 4750 3233 4129 
Q 3647 3509 3647 2328 
Q 3647 1150 3233 529 
Q 2819 -91 2034 -91 
Q 1250 -91 836 529 
Q 422 1150 422 2328 
Q 422 3509 836 4129 
Q 1250 4750 2034 4750 
z
" id="DejaVuSans-30" transform="scale(0.015625)"/>
       </defs>
       <use xlink:href="#DejaVuSans-30"/>
      </g>
     </g>
    </g>
    <g id="xtick_2">
     <g id="text_2">
      <!-- 20000 -->
      <g style="fill:#262626;" transform="translate(159.506153 635.156562)scale(0.22 -0.22)">
       <defs>
        <path d="M 1228 531 
L 3431 531 
L 3431 0 
L 469 0 
L 469 531 
Q 828 903 1448 1529 
Q 2069 2156 2228 2338 
Q 2531 2678 2651 2914 
Q 2772 3150 2772 3378 
Q 2772 3750 2511 3984 
Q 2250 4219 1831 4219 
Q 1534 4219 1204 4116 
Q 875 4013 500 3803 
L 500 4441 
Q 881 4594 1212 4672 
Q 1544 4750 1819 4750 
Q 2544 4750 2975 4387 
Q 3406 4025 3406 3419 
Q 3406 3131 3298 2873 
Q 3191 2616 2906 2266 
Q 2828 2175 2409 1742 
Q 1991 1309 1228 531 
z
" id="DejaVuSans-32" transform="scale(0.015625)"/>
       </defs>
       <use xlink:href="#DejaVuSans-32"/>
       <use x="63.623047" xlink:href="#DejaVuSans-30"/>
       <use x="127.246094" xlink:href="#DejaVuSans-30"/>
       <use x="190.869141" xlink:href="#DejaVuSans-30"/>
       <use x="254.492188" xlink:href="#DejaVuSans-30"/>
      </g>
     </g>
    </g>
    <g id="xtick_3">
     <g id="text_3">
      <!-- 40000 -->
      <g style="fill:#262626;" transform="translate(247.359066 635.156562)scale(0.22 -0.22)">
       <defs>
        <path d="M 2419 4116 
L 825 1625 
L 2419 1625 
L 2419 4116 
z
M 2253 4666 
L 3047 4666 
L 3047 1625 
L 3713 1625 
L 3713 1100 
L 3047 1100 
L 3047 0 
L 2419 0 
L 2419 1100 
L 313 1100 
L 313 1709 
L 2253 4666 
z
" id="DejaVuSans-34" transform="scale(0.015625)"/>
       </defs>
       <use xlink:href="#DejaVuSans-34"/>
       <use x="63.623047" xlink:href="#DejaVuSans-30"/>
       <use x="127.246094" xlink:href="#DejaVuSans-30"/>
       <use x="190.869141" xlink:href="#DejaVuSans-30"/>
       <use x="254.492188" xlink:href="#DejaVuSans-30"/>
      </g>
     </g>
    </g>
    <g id="xtick_4">
     <g id="text_4">
      <!-- 60000 -->
      <g style="fill:#262626;" transform="translate(335.21198 635.156562)scale(0.22 -0.22)">
       <defs>
        <path d="M 2113 2584 
Q 1688 2584 1439 2293 
Q 1191 2003 1191 1497 
Q 1191 994 1439 701 
Q 1688 409 2113 409 
Q 2538 409 2786 701 
Q 3034 994 3034 1497 
Q 3034 2003 2786 2293 
Q 2538 2584 2113 2584 
z
M 3366 4563 
L 3366 3988 
Q 3128 4100 2886 4159 
Q 2644 4219 2406 4219 
Q 1781 4219 1451 3797 
Q 1122 3375 1075 2522 
Q 1259 2794 1537 2939 
Q 1816 3084 2150 3084 
Q 2853 3084 3261 2657 
Q 3669 2231 3669 1497 
Q 3669 778 3244 343 
Q 2819 -91 2113 -91 
Q 1303 -91 875 529 
Q 447 1150 447 2328 
Q 447 3434 972 4092 
Q 1497 4750 2381 4750 
Q 2619 4750 2861 4703 
Q 3103 4656 3366 4563 
z
" id="DejaVuSans-36" transform="scale(0.015625)"/>
       </defs>
       <use xlink:href="#DejaVuSans-36"/>
       <use x="63.623047" xlink:href="#DejaVuSans-30"/>
       <use x="127.246094" xlink:href="#DejaVuSans-30"/>
       <use x="190.869141" xlink:href="#DejaVuSans-30"/>
       <use x="254.492188" xlink:href="#DejaVuSans-30"/>
      </g>
     </g>
    </g>
    <g id="xtick_5">
     <g id="text_5">
      <!-- 80000 -->
      <g style="fill:#262626;" transform="translate(423.064893 635.156562)scale(0.22 -0.22)">
       <defs>
        <path d="M 2034 2216 
Q 1584 2216 1326 1975 
Q 1069 1734 1069 1313 
Q 1069 891 1326 650 
Q 1584 409 2034 409 
Q 2484 409 2743 651 
Q 3003 894 3003 1313 
Q 3003 1734 2745 1975 
Q 2488 2216 2034 2216 
z
M 1403 2484 
Q 997 2584 770 2862 
Q 544 3141 544 3541 
Q 544 4100 942 4425 
Q 1341 4750 2034 4750 
Q 2731 4750 3128 4425 
Q 3525 4100 3525 3541 
Q 3525 3141 3298 2862 
Q 3072 2584 2669 2484 
Q 3125 2378 3379 2068 
Q 3634 1759 3634 1313 
Q 3634 634 3220 271 
Q 2806 -91 2034 -91 
Q 1263 -91 848 271 
Q 434 634 434 1313 
Q 434 1759 690 2068 
Q 947 2378 1403 2484 
z
M 1172 3481 
Q 1172 3119 1398 2916 
Q 1625 2713 2034 2713 
Q 2441 2713 2670 2916 
Q 2900 3119 2900 3481 
Q 2900 3844 2670 4047 
Q 2441 4250 2034 4250 
Q 1625 4250 1398 4047 
Q 1172 3844 1172 3481 
z
" id="DejaVuSans-38" transform="scale(0.015625)"/>
       </defs>
       <use xlink:href="#DejaVuSans-38"/>
       <use x="63.623047" xlink:href="#DejaVuSans-30"/>
       <use x="127.246094" xlink:href="#DejaVuSans-30"/>
       <use x="190.869141" xlink:href="#DejaVuSans-30"/>
       <use x="254.492188" xlink:href="#DejaVuSans-30"/>
      </g>
     </g>
    </g>
    <g id="xtick_6">
     <g id="text_6">
      <!-- 100000 -->
      <g style="fill:#262626;" transform="translate(503.919057 635.156562)scale(0.22 -0.22)">
       <defs>
        <path d="M 794 531 
L 1825 531 
L 1825 4091 
L 703 3866 
L 703 4441 
L 1819 4666 
L 2450 4666 
L 2450 531 
L 3481 531 
L 3481 0 
L 794 0 
L 794 531 
z
" id="DejaVuSans-31" transform="scale(0.015625)"/>
       </defs>
       <use xlink:href="#DejaVuSans-31"/>
       <use x="63.623047" xlink:href="#DejaVuSans-30"/>
       <use x="127.246094" xlink:href="#DejaVuSans-30"/>
       <use x="190.869141" xlink:href="#DejaVuSans-30"/>
       <use x="254.492188" xlink:href="#DejaVuSans-30"/>
       <use x="318.115234" xlink:href="#DejaVuSans-30"/>
      </g>
     </g>
    </g>
    <g id="text_7">
     <!-- MDTU -->
     <g style="fill:#262626;" transform="translate(290.683464 661.968125)scale(0.24 -0.24)">
      <defs>
       <path d="M 628 4666 
L 1569 4666 
L 2759 1491 
L 3956 4666 
L 4897 4666 
L 4897 0 
L 4281 0 
L 4281 4097 
L 3078 897 
L 2444 897 
L 1241 4097 
L 1241 0 
L 628 0 
L 628 4666 
z
" id="DejaVuSans-4d" transform="scale(0.015625)"/>
       <path d="M 1259 4147 
L 1259 519 
L 2022 519 
Q 2988 519 3436 956 
Q 3884 1394 3884 2338 
Q 3884 3275 3436 3711 
Q 2988 4147 2022 4147 
L 1259 4147 
z
M 628 4666 
L 1925 4666 
Q 3281 4666 3915 4102 
Q 4550 3538 4550 2338 
Q 4550 1131 3912 565 
Q 3275 0 1925 0 
L 628 0 
L 628 4666 
z
" id="DejaVuSans-44" transform="scale(0.015625)"/>
       <path d="M -19 4666 
L 3928 4666 
L 3928 4134 
L 2272 4134 
L 2272 0 
L 1638 0 
L 1638 4134 
L -19 4134 
L -19 4666 
z
" id="DejaVuSans-54" transform="scale(0.015625)"/>
       <path d="M 556 4666 
L 1191 4666 
L 1191 1831 
Q 1191 1081 1462 751 
Q 1734 422 2344 422 
Q 2950 422 3222 751 
Q 3494 1081 3494 1831 
L 3494 4666 
L 4128 4666 
L 4128 1753 
Q 4128 841 3676 375 
Q 3225 -91 2344 -91 
Q 1459 -91 1007 375 
Q 556 841 556 1753 
L 556 4666 
z
" id="DejaVuSans-55" transform="scale(0.015625)"/>
      </defs>
      <use xlink:href="#DejaVuSans-4d"/>
      <use x="86.279297" xlink:href="#DejaVuSans-44"/>
      <use x="163.28125" xlink:href="#DejaVuSans-54"/>
      <use x="224.365234" xlink:href="#DejaVuSans-55"/>
     </g>
    </g>
   </g>
   <g id="matplotlib.axis_2">
    <g id="ytick_1">
     <g id="text_8">
      <!-- 0.4 -->
      <g style="fill:#262626;" transform="translate(34.4275 608.367037)scale(0.22 -0.22)">
       <defs>
        <path d="M 684 794 
L 1344 794 
L 1344 0 
L 684 0 
L 684 794 
z
" id="DejaVuSans-2e" transform="scale(0.015625)"/>
       </defs>
       <use xlink:href="#DejaVuSans-30"/>
       <use x="63.623047" xlink:href="#DejaVuSans-2e"/>
       <use x="95.410156" xlink:href="#DejaVuSans-34"/>
      </g>
     </g>
    </g>
    <g id="ytick_2">
     <g id="text_9">
      <!-- 0.6 -->
      <g style="fill:#262626;" transform="translate(34.4275 545.228276)scale(0.22 -0.22)">
       <use xlink:href="#DejaVuSans-30"/>
       <use x="63.623047" xlink:href="#DejaVuSans-2e"/>
       <use x="95.410156" xlink:href="#DejaVuSans-36"/>
      </g>
     </g>
    </g>
    <g id="ytick_3">
     <g id="text_10">
      <!-- 0.8 -->
      <g style="fill:#262626;" transform="translate(34.4275 482.089516)scale(0.22 -0.22)">
       <use xlink:href="#DejaVuSans-30"/>
       <use x="63.623047" xlink:href="#DejaVuSans-2e"/>
       <use x="95.410156" xlink:href="#DejaVuSans-38"/>
      </g>
     </g>
    </g>
    <g id="ytick_4">
     <g id="text_11">
      <!-- 1.0 -->
      <g style="fill:#262626;" transform="translate(34.4275 418.950756)scale(0.22 -0.22)">
       <use xlink:href="#DejaVuSans-31"/>
       <use x="63.623047" xlink:href="#DejaVuSans-2e"/>
       <use x="95.410156" xlink:href="#DejaVuSans-30"/>
      </g>
     </g>
    </g>
    <g id="ytick_5">
     <g id="text_12">
      <!-- 1.2 -->
      <g style="fill:#262626;" transform="translate(34.4275 355.811996)scale(0.22 -0.22)">
       <use xlink:href="#DejaVuSans-31"/>
       <use x="63.623047" xlink:href="#DejaVuSans-2e"/>
       <use x="95.410156" xlink:href="#DejaVuSans-32"/>
      </g>
     </g>
    </g>
    <g id="ytick_6">
     <g id="text_13">
      <!-- 1.4 -->
      <g style="fill:#262626;" transform="translate(34.4275 292.673235)scale(0.22 -0.22)">
       <use xlink:href="#DejaVuSans-31"/>
       <use x="63.623047" xlink:href="#DejaVuSans-2e"/>
       <use x="95.410156" xlink:href="#DejaVuSans-34"/>
      </g>
     </g>
    </g>
    <g id="ytick_7">
     <g id="text_14">
      <!-- 1.6 -->
      <g style="fill:#262626;" transform="translate(34.4275 229.534475)scale(0.22 -0.22)">
       <use xlink:href="#DejaVuSans-31"/>
       <use x="63.623047" xlink:href="#DejaVuSans-2e"/>
       <use x="95.410156" xlink:href="#DejaVuSans-36"/>
      </g>
     </g>
    </g>
    <g id="ytick_8">
     <g id="text_15">
      <!-- 1.8 -->
      <g style="fill:#262626;" transform="translate(34.4275 166.395715)scale(0.22 -0.22)">
       <use xlink:href="#DejaVuSans-31"/>
       <use x="63.623047" xlink:href="#DejaVuSans-2e"/>
       <use x="95.410156" xlink:href="#DejaVuSans-38"/>
      </g>
     </g>
    </g>
    <g id="text_16">
     <!-- $E$ -->
     <g style="fill:#262626;" transform="translate(25.43625 363.813429)rotate(-90)scale(0.24 -0.24)">
      <defs>
       <path d="M 1081 4666 
L 4031 4666 
L 3928 4134 
L 1606 4134 
L 1338 2753 
L 3566 2753 
L 3463 2222 
L 1234 2222 
L 909 531 
L 3284 531 
L 3181 0 
L 172 0 
L 1081 4666 
z
" id="DejaVuSans-Oblique-45" transform="scale(0.015625)"/>
      </defs>
      <use transform="translate(0 0.09375)" xlink:href="#DejaVuSans-Oblique-45"/>
     </g>
    </g>
   </g>
   <g id="line2d_1">
    <path clip-path="url(#p3b773d1ea3)" d="M 106.866622 491.346834 
L 107.086254 580.503039 
L 107.305886 503.94558 
L 107.525519 466.429249 
L 107.745151 310.998162 
L 107.964783 499.240647 
L 108.184415 353.173306 
L 108.404048 349.620505 
L 108.62368 446.489891 
L 108.843312 374.251625 
L 109.062945 477.071587 
L 109.282577 498.730076 
L 109.721841 336.118711 
L 110.161106 487.40738 
L 110.600371 357.024046 
L 110.820003 428.352563 
L 111.039635 426.440749 
L 111.259267 484.892608 
L 111.698532 389.49041 
L 111.918164 507.574461 
L 112.137797 464.940284 
L 112.577061 249.769514 
L 112.796693 420.740397 
L 113.016326 436.895815 
L 113.235958 353.327891 
L 113.45559 456.197938 
L 113.675223 461.013473 
L 113.894855 429.957109 
L 114.114487 369.278173 
L 114.334119 483.91281 
L 114.553752 441.164945 
L 114.993016 478.972905 
L 115.212649 341.201567 
L 115.432281 443.485495 
L 115.651913 490.23704 
L 115.871545 411.743519 
L 116.091178 432.570497 
L 116.31081 303.202866 
L 116.530442 376.435895 
L 116.750075 498.264603 
L 116.969707 307.91059 
L 117.189339 506.545907 
L 117.408971 332.564431 
L 117.628604 524.441572 
L 117.848236 442.864701 
L 118.067868 439.667297 
L 118.287501 434.477629 
L 118.507133 443.712443 
L 118.726765 199.684086 
L 118.946397 415.664805 
L 119.16603 262.637514 
L 119.385662 376.806561 
L 119.605294 429.269849 
L 119.824926 384.474379 
L 120.044559 186.296284 
L 120.264191 385.41938 
L 120.483823 438.172415 
L 120.703456 230.344232 
L 120.923088 418.877673 
L 121.14272 311.373474 
L 121.362352 412.832283 
L 121.581985 421.825006 
L 121.801617 310.279194 
L 122.021249 399.316456 
L 122.240882 302.037663 
L 122.460514 483.439986 
L 122.680146 360.745906 
L 122.899778 423.126653 
L 123.119411 306.805232 
L 123.339043 439.189144 
L 123.558675 326.966852 
L 123.778308 455.974751 
L 123.99794 428.521036 
L 124.437204 450.942966 
L 124.656837 321.795898 
L 124.876469 481.071664 
L 125.096101 496.381933 
L 125.315734 398.459023 
L 125.535366 415.371684 
L 125.754998 491.535302 
L 125.97463 435.877258 
L 126.194263 468.896124 
L 126.633527 398.618599 
L 127.072792 462.409192 
L 127.292424 429.94292 
L 127.512056 345.396416 
L 127.731689 383.886094 
L 127.951321 343.196064 
L 128.170953 346.807394 
L 128.390586 273.386286 
L 128.610218 474.514075 
L 128.82985 444.029124 
L 129.049482 441.320506 
L 129.269115 352.592817 
L 129.488747 327.886873 
L 129.708379 377.675344 
L 129.928012 348.14792 
L 130.147644 397.248309 
L 130.367276 346.167231 
L 130.586908 428.858689 
L 130.806541 392.039576 
L 131.026173 313.594721 
L 131.245805 362.658664 
L 131.465438 443.843244 
L 131.68507 441.185477 
L 131.904702 375.751622 
L 132.124334 261.876873 
L 132.343967 314.878843 
L 132.563599 286.48257 
L 132.783231 445.749536 
L 133.002864 418.526001 
L 133.222496 431.286426 
L 133.442128 414.730045 
L 133.66176 343.70223 
L 133.881393 372.749666 
L 134.101025 283.815419 
L 134.320657 425.316855 
L 134.540289 454.037876 
L 134.759922 446.705731 
L 134.979554 470.338377 
L 135.199186 422.832168 
L 135.418819 209.951607 
L 135.858083 527.172928 
L 136.297348 288.98493 
L 136.51698 400.094372 
L 136.736612 414.908226 
L 136.956245 440.59377 
L 137.175877 419.155228 
L 137.395509 516.764986 
L 137.615141 368.097735 
L 137.834774 363.353974 
L 138.054406 406.697205 
L 138.274038 412.989302 
L 138.493671 499.392829 
L 138.932935 247.819781 
L 139.152567 455.050791 
L 139.3722 435.169899 
L 139.591832 309.089065 
L 139.811464 393.070768 
L 140.031097 211.396006 
L 140.250729 460.982162 
L 140.470361 359.216555 
L 140.689993 426.753238 
L 140.909626 427.839465 
L 141.129258 458.274433 
L 141.34889 351.426449 
L 141.568523 372.363774 
L 141.788155 412.617144 
L 142.007787 425.586079 
L 142.227419 380.595075 
L 142.447052 522.829231 
L 142.886316 348.740256 
L 143.105949 326.322413 
L 143.325581 504.864596 
L 143.764845 241.927162 
L 143.984478 438.467979 
L 144.20411 418.159598 
L 144.423742 376.495631 
L 144.643375 387.177245 
L 144.863007 373.737491 
L 145.082639 457.888172 
L 145.302271 434.715017 
L 145.521904 435.598429 
L 145.741536 331.649997 
L 145.961168 369.835114 
L 146.180801 452.487788 
L 146.400433 286.017845 
L 146.620065 287.856093 
L 146.839697 429.688258 
L 147.05933 350.803708 
L 147.278962 409.456185 
L 147.498594 374.318052 
L 147.718227 444.814508 
L 147.937859 382.395933 
L 148.157491 359.337363 
L 148.377123 381.745853 
L 148.596756 379.584261 
L 148.816388 294.867171 
L 149.03602 320.45748 
L 149.255653 380.371283 
L 149.475285 371.837748 
L 149.694917 354.946513 
L 149.914549 376.268762 
L 150.134182 354.524735 
L 150.353814 488.751785 
L 150.573446 321.650088 
L 150.793078 413.071147 
L 151.232343 252.132142 
L 151.451975 249.560761 
L 151.671608 472.881412 
L 151.89124 331.01674 
L 152.110872 372.446213 
L 152.330504 263.028568 
L 152.550137 425.520758 
L 152.769769 422.294039 
L 152.989401 415.964107 
L 153.209034 484.214121 
L 153.428666 345.126371 
L 153.648298 428.505238 
L 153.86793 467.727959 
L 154.087563 435.154811 
L 154.307195 337.332072 
L 154.526827 376.143342 
L 154.74646 395.183345 
L 154.966092 293.719168 
L 155.185724 421.854176 
L 155.405356 370.622691 
L 155.624989 451.896853 
L 155.844621 374.465794 
L 156.064253 354.869519 
L 156.283886 452.480462 
L 156.503518 358.705924 
L 156.942782 424.886627 
L 157.162415 522.433018 
L 157.601679 289.809438 
L 157.821312 495.703055 
L 158.040944 481.533519 
L 158.260576 415.692954 
L 158.480208 450.842249 
L 158.699841 448.556226 
L 158.919473 361.347077 
L 159.139105 387.967681 
L 159.358738 358.270262 
L 159.57837 389.645746 
L 160.017634 288.961315 
L 160.237267 398.690768 
L 160.456899 401.832085 
L 160.676531 328.486348 
L 161.115796 290.410341 
L 161.335428 467.379312 
L 161.55506 392.721549 
L 161.774693 429.569178 
L 161.994325 434.897204 
L 162.213957 341.03063 
L 162.43359 376.220165 
L 162.872854 474.732777 
L 163.092486 363.759721 
L 163.312119 523.0898 
L 163.531751 297.369983 
L 163.751383 391.961976 
L 163.971016 403.822022 
L 164.190648 451.292575 
L 164.41028 328.687584 
L 164.629912 348.1911 
L 164.849545 451.460326 
L 165.069177 451.82099 
L 165.288809 356.446044 
L 165.947706 404.432821 
L 166.167338 357.577207 
L 166.386971 457.807169 
L 166.826235 316.089832 
L 167.045867 380.711857 
L 167.2655 383.57931 
L 167.485132 268.156996 
L 167.704764 385.596349 
L 167.924397 427.826144 
L 168.144029 417.601777 
L 168.363661 294.11631 
L 168.583293 412.362407 
L 168.802926 386.262427 
L 169.022558 459.421132 
L 169.24219 420.415994 
L 169.461823 267.691589 
L 169.681455 421.733988 
L 169.901087 347.438573 
L 170.120719 545.256243 
L 170.559984 210.630774 
L 170.999249 478.553933 
L 171.218881 365.276281 
L 171.438513 405.438439 
L 171.658145 359.225033 
L 171.877778 448.919168 
L 172.09741 299.992347 
L 172.317042 422.173122 
L 172.536675 426.555035 
L 172.756307 373.360925 
L 173.195571 387.889056 
L 173.415204 431.615414 
L 173.634836 413.221393 
L 173.854468 442.011515 
L 174.074101 420.140674 
L 174.293733 460.950688 
L 174.513365 410.5444 
L 174.732997 206.044329 
L 174.95263 385.854156 
L 175.172262 430.020896 
L 175.391894 444.419488 
L 175.611527 495.861187 
L 175.831159 427.548455 
L 176.050791 302.542456 
L 176.270423 525.004799 
L 176.490056 296.50672 
L 176.709688 505.956099 
L 177.148953 351.71264 
L 177.368585 323.502983 
L 177.588217 357.238616 
L 177.807849 461.788408 
L 178.027482 446.253058 
L 178.247114 460.128873 
L 178.466746 466.706444 
L 178.686379 320.938816 
L 178.906011 459.983672 
L 179.125643 376.976042 
L 179.345275 472.075373 
L 179.564908 231.714438 
L 179.78454 401.535305 
L 180.004172 396.261943 
L 180.223805 457.047359 
L 180.443437 379.810881 
L 180.663069 434.702003 
L 181.102334 404.295049 
L 181.321966 533.758978 
L 181.541598 284.067742 
L 181.76123 396.446166 
L 181.980863 320.121945 
L 182.200495 365.521265 
L 182.420127 335.508332 
L 182.63976 445.203612 
L 182.859392 396.969019 
L 183.079024 408.084206 
L 183.298656 379.344249 
L 183.518289 460.814147 
L 183.737921 445.401157 
L 183.957553 324.872227 
L 184.177186 409.957712 
L 184.396818 404.416908 
L 184.61645 422.069106 
L 184.836082 361.464168 
L 185.055715 438.260912 
L 185.275347 348.462687 
L 185.494979 363.52497 
L 185.714612 394.758463 
L 185.934244 477.494917 
L 186.153876 463.522285 
L 186.373508 425.389602 
L 186.593141 343.562081 
L 186.812773 349.490019 
L 187.252038 489.539629 
L 187.47167 398.912347 
L 187.691302 470.549091 
L 187.910934 474.741215 
L 188.130567 449.288458 
L 188.350199 342.435149 
L 188.569831 414.964614 
L 188.789464 345.034384 
L 189.009096 431.151031 
L 189.228728 347.990338 
L 189.44836 471.55136 
L 189.667993 355.022346 
L 190.107257 404.606051 
L 190.32689 467.524961 
L 190.546522 475.979899 
L 190.766154 413.730679 
L 190.985786 442.595138 
L 191.205419 405.433964 
L 191.425051 431.382398 
L 191.644683 359.961791 
L 191.864316 381.03134 
L 192.083948 338.335101 
L 192.30358 372.434046 
L 192.523212 495.0538 
L 192.742845 344.075228 
L 192.962477 394.133901 
L 193.182109 512.015072 
L 193.401742 388.777181 
L 193.621374 536.257258 
L 193.841006 392.809726 
L 194.060638 461.348389 
L 194.280271 373.639173 
L 194.499903 340.068431 
L 194.719535 422.468068 
L 194.939168 292.354353 
L 195.1588 366.860766 
L 195.378432 395.551849 
L 195.598064 404.582357 
L 195.817697 408.025885 
L 196.037329 458.813816 
L 196.256961 396.59409 
L 196.476593 429.446858 
L 196.696226 525.748394 
L 196.915858 322.403787 
L 197.13549 452.243784 
L 197.355123 406.410216 
L 197.574755 462.776706 
L 197.794387 389.414657 
L 198.014019 249.171368 
L 198.233652 371.525148 
L 198.453284 390.833613 
L 198.672916 434.514383 
L 198.892549 335.776763 
L 199.112181 475.438418 
L 199.331813 426.981524 
L 199.551445 345.03167 
L 199.99071 409.005299 
L 200.210342 324.305356 
L 200.429975 469.193363 
L 200.649607 355.165946 
L 200.869239 494.557251 
L 201.308504 329.547995 
L 201.528136 430.060647 
L 201.967401 383.290863 
L 202.187033 427.329544 
L 202.406665 400.925033 
L 202.626297 268.432293 
L 202.84593 328.713296 
L 203.065562 501.711884 
L 203.285194 519.68039 
L 203.724459 341.965897 
L 203.944091 438.46632 
L 204.163723 432.693049 
L 204.383356 285.573209 
L 204.602988 253.412792 
L 204.82262 442.922171 
L 205.042253 471.093933 
L 205.261885 394.872114 
L 205.481517 417.235083 
L 205.701149 340.753891 
L 205.920782 407.559666 
L 206.140414 391.513718 
L 206.360046 405.105857 
L 206.579679 473.801823 
L 207.018943 315.442009 
L 207.238575 447.817329 
L 207.458208 426.440291 
L 207.67784 421.182407 
L 207.897472 288.162642 
L 208.117105 506.205657 
L 208.336737 494.504681 
L 208.995634 436.392421 
L 209.215266 370.625958 
L 209.434898 377.110986 
L 209.654531 402.475246 
L 210.093795 316.419959 
L 210.313427 293.572716 
L 210.53306 386.43713 
L 210.752692 419.699053 
L 210.972324 390.243706 
L 211.191956 397.66568 
L 211.631221 418.334775 
L 211.850853 438.04111 
L 212.070486 335.74031 
L 212.290118 353.37234 
L 212.50975 479.47028 
L 212.729382 382.775347 
L 212.949015 493.557401 
L 213.168647 270.056848 
L 213.607912 436.271399 
L 213.827544 366.581799 
L 214.047176 431.543588 
L 214.266808 452.627714 
L 214.706073 392.071316 
L 214.925705 433.048687 
L 215.145338 320.111198 
L 215.36497 444.963366 
L 215.584602 467.660799 
L 215.804234 469.795104 
L 216.243499 281.31035 
L 216.463131 248.611413 
L 216.682764 261.776161 
L 217.122028 417.362561 
L 217.34166 400.836482 
L 217.561293 322.279164 
L 217.780925 445.749425 
L 218.000557 452.295894 
L 218.22019 433.249543 
L 218.439822 385.935957 
L 218.659454 470.410186 
L 218.879086 215.878669 
L 219.098719 428.608198 
L 219.318351 376.228644 
L 219.537983 361.386736 
L 219.757616 366.784825 
L 220.19688 459.388149 
L 220.416512 322.796567 
L 220.636145 379.800914 
L 220.855777 310.559891 
L 221.075409 430.045702 
L 221.295042 382.275518 
L 221.734306 493.284814 
L 221.953938 328.881573 
L 222.173571 400.322809 
L 222.393203 425.043513 
L 222.612835 429.301474 
L 222.832468 446.548179 
L 223.0521 394.877597 
L 223.271732 474.614394 
L 223.491364 339.110191 
L 223.710997 300.471206 
L 223.930629 434.013014 
L 224.150261 328.900708 
L 224.369894 414.311576 
L 225.248423 472.880209 
L 225.468055 470.421541 
L 225.687687 441.09889 
L 225.90732 389.716503 
L 226.126952 369.923018 
L 226.346584 409.116475 
L 226.785849 340.648512 
L 227.005481 427.83587 
L 227.225113 411.118927 
L 227.664378 486.671644 
L 228.103642 399.469345 
L 228.323275 484.211077 
L 228.542907 370.836753 
L 228.762539 506.628942 
L 229.201804 360.314359 
L 229.421436 417.218359 
L 229.641068 293.0657 
L 229.860701 483.195476 
L 230.080333 522.62021 
L 230.299965 409.331659 
L 230.519597 469.56161 
L 230.958862 350.110831 
L 231.178494 418.161113 
L 231.398127 373.367854 
L 231.617759 405.508026 
L 231.837391 375.769318 
L 232.057023 429.716821 
L 232.496288 222.992741 
L 232.71592 396.184755 
L 232.935553 261.497682 
L 233.155185 446.949164 
L 233.374817 463.073659 
L 233.594449 308.031561 
L 233.814082 462.0568 
L 234.033714 419.356256 
L 234.253346 462.619513 
L 234.472979 433.027753 
L 234.692611 353.207185 
L 234.912243 402.577056 
L 235.131875 369.455024 
L 235.351508 370.517971 
L 235.57114 478.315469 
L 235.790772 521.333969 
L 236.010405 430.38097 
L 236.230037 402.604101 
L 236.449669 432.017918 
L 236.669301 378.815961 
L 236.888934 378.199396 
L 237.108566 479.807986 
L 237.328198 390.674168 
L 237.547831 430.568122 
L 237.767463 337.501927 
L 237.987095 445.153607 
L 238.206727 345.449903 
L 238.42636 425.275364 
L 238.645992 548.111367 
L 238.865624 469.945215 
L 239.524521 369.728222 
L 239.744153 407.537804 
L 239.963786 414.737782 
L 240.183418 442.106827 
L 240.40305 416.686286 
L 240.622683 464.409878 
L 240.842315 384.95692 
L 241.061947 385.987611 
L 241.281579 438.668504 
L 241.501212 422.310048 
L 241.720844 501.892531 
L 241.940476 463.411138 
L 242.160108 328.701152 
L 242.379741 414.421142 
L 242.599373 405.954908 
L 242.819005 358.997577 
L 243.038638 350.631192 
L 243.25827 316.029051 
L 243.477902 341.699561 
L 243.697534 468.725856 
L 243.917167 427.371558 
L 244.136799 300.462264 
L 244.356431 445.22472 
L 244.576064 393.517619 
L 244.795696 417.666556 
L 245.015328 274.049744 
L 245.454593 541.803603 
L 245.674225 322.338134 
L 245.893857 387.258373 
L 246.11349 348.081977 
L 246.333122 426.008271 
L 246.552754 384.430183 
L 246.772386 422.367698 
L 246.992019 337.619814 
L 247.431283 491.25712 
L 247.650916 409.862858 
L 247.870548 402.08039 
L 248.09018 413.456215 
L 248.309812 471.484477 
L 248.529445 418.196344 
L 248.749077 293.428911 
L 249.188342 438.37776 
L 249.407974 225.56006 
L 249.627606 474.474623 
L 250.286503 252.595813 
L 250.506135 354.791202 
L 250.725768 378.664457 
L 250.9454 427.526512 
L 251.165032 362.194343 
L 251.384664 422.724243 
L 251.604297 369.145922 
L 251.823929 353.469345 
L 252.043561 362.501169 
L 252.263194 379.783474 
L 252.482826 473.963421 
L 252.702458 444.679866 
L 252.92209 462.491064 
L 253.141723 425.323744 
L 253.361355 294.221825 
L 253.580987 423.631584 
L 253.80062 459.965322 
L 254.020252 406.057668 
L 254.239884 297.102948 
L 254.459516 455.276642 
L 254.679149 506.588612 
L 254.898781 340.685187 
L 255.118413 369.21629 
L 255.338046 372.134288 
L 255.557678 325.974428 
L 255.77731 378.046718 
L 255.996942 397.103164 
L 256.216575 433.394514 
L 256.436207 278.634812 
L 256.655839 359.420271 
L 256.875472 331.104579 
L 257.095104 470.571725 
L 257.314736 263.582468 
L 257.534368 345.569388 
L 257.754001 310.687418 
L 257.973633 518.410752 
L 258.193265 425.481637 
L 258.412897 412.349873 
L 258.63253 407.790182 
L 258.852162 440.659893 
L 259.511059 346.409752 
L 259.730691 436.222358 
L 260.169956 377.951626 
L 260.60922 483.067694 
L 260.828853 377.088065 
L 261.048485 415.796109 
L 261.268117 268.189009 
L 261.487749 379.499578 
L 261.707382 429.111271 
L 261.927014 329.425899 
L 262.146646 435.648237 
L 262.366279 261.323252 
L 262.585911 450.076323 
L 262.805543 384.907598 
L 263.025175 434.173589 
L 263.244808 368.889075 
L 263.46444 377.169401 
L 263.684072 466.688 
L 263.903705 327.005648 
L 264.123337 355.524904 
L 264.342969 413.985437 
L 264.562601 285.588032 
L 264.782234 432.343202 
L 265.001866 302.663796 
L 265.221498 356.739458 
L 265.441131 252.624032 
L 265.660763 456.325556 
L 265.880395 463.049846 
L 266.31966 387.426652 
L 266.539292 304.894293 
L 266.758924 442.065346 
L 266.978557 438.309864 
L 267.198189 235.39154 
L 267.417821 441.529236 
L 267.637453 469.600724 
L 267.857086 347.203339 
L 268.076718 399.380894 
L 268.29635 403.618067 
L 268.515983 402.706938 
L 268.735615 452.155634 
L 268.955247 475.151961 
L 269.174879 300.933584 
L 269.394512 485.251777 
L 269.614144 308.696745 
L 269.833776 385.223405 
L 270.053409 412.361271 
L 270.273041 475.650717 
L 270.492673 424.374277 
L 270.712305 307.24161 
L 270.931938 426.776586 
L 271.15157 350.112129 
L 271.371202 344.868744 
L 271.590835 472.001324 
L 271.810467 418.559851 
L 272.030099 336.712508 
L 272.249731 318.296729 
L 272.469364 273.918471 
L 272.688996 485.07941 
L 272.908628 357.149665 
L 273.12826 323.022729 
L 273.347893 446.938609 
L 273.567525 507.764635 
L 274.00679 396.522696 
L 274.446054 492.221036 
L 274.665686 430.426783 
L 274.885319 335.91386 
L 275.104951 324.300225 
L 275.544216 419.448586 
L 275.763848 425.917882 
L 275.98348 493.2379 
L 276.203112 506.086085 
L 276.422745 348.155667 
L 276.642377 422.554234 
L 276.862009 282.731101 
L 277.081642 533.923867 
L 277.520906 384.18741 
L 277.740538 404.503006 
L 277.960171 293.331866 
L 278.179803 417.841276 
L 278.399435 373.346892 
L 278.619068 480.377659 
L 278.8387 426.728398 
L 279.058332 275.015859 
L 279.277964 364.447283 
L 279.497597 378.203344 
L 279.717229 326.179916 
L 279.936861 472.365767 
L 280.156494 389.313958 
L 280.595758 444.107613 
L 280.81539 415.377271 
L 281.035023 226.452187 
L 281.254655 239.835193 
L 281.474287 377.0446 
L 282.133184 405.756073 
L 282.352816 342.89675 
L 282.572449 357.958751 
L 282.792081 410.121177 
L 283.231346 448.891889 
L 283.450978 345.336296 
L 283.67061 427.495481 
L 283.890242 395.660145 
L 284.109875 335.409296 
L 284.329507 213.207013 
L 284.549139 306.007759 
L 284.768772 346.337281 
L 284.988404 479.38052 
L 285.427668 404.71425 
L 285.647301 434.327001 
L 285.866933 407.456168 
L 286.086565 532.878819 
L 286.306198 279.761117 
L 286.745462 500.432688 
L 286.965094 260.59228 
L 287.184727 297.62953 
L 287.404359 273.822499 
L 287.623991 457.315328 
L 287.843624 228.290852 
L 288.063256 406.647268 
L 288.282888 278.818503 
L 288.50252 350.411462 
L 288.722153 321.665165 
L 288.941785 384.487636 
L 289.161417 367.287599 
L 289.381049 420.916688 
L 289.600682 441.469184 
L 289.820314 360.398832 
L 290.039946 472.987123 
L 290.259579 414.625356 
L 290.479211 455.538789 
L 290.698843 371.704303 
L 290.918475 365.347139 
L 291.138108 431.726163 
L 291.35774 404.940421 
L 291.577372 264.222005 
L 291.797005 514.754618 
L 292.016637 407.438508 
L 292.236269 391.024108 
L 292.455901 454.452444 
L 292.675534 373.472003 
L 292.895166 390.509945 
L 293.114798 383.580414 
L 293.334431 400.445431 
L 293.554063 389.475131 
L 293.773695 389.269653 
L 293.993327 518.245829 
L 294.21296 420.455134 
L 294.432592 460.713635 
L 294.652224 260.716207 
L 294.871857 405.815146 
L 295.091489 253.475278 
L 295.311121 442.861126 
L 295.750386 462.858607 
L 295.970018 466.502591 
L 296.18965 383.389256 
L 296.628915 356.967365 
L 296.848547 395.178345 
L 297.068179 362.685332 
L 297.287812 456.814481 
L 297.507444 342.221714 
L 297.727076 431.440375 
L 297.946709 379.229198 
L 298.166341 439.416506 
L 298.385973 416.486808 
L 298.605605 407.005861 
L 298.825238 426.236626 
L 299.04487 258.213128 
L 299.264502 380.678533 
L 299.484135 287.80545 
L 299.703767 398.221816 
L 299.923399 388.84857 
L 300.143031 331.230617 
L 300.362664 384.214501 
L 300.582296 355.845952 
L 301.021561 408.369373 
L 301.241193 501.953946 
L 301.460825 329.664676 
L 301.680457 354.899409 
L 301.90009 518.770442 
L 302.119722 364.579317 
L 302.339354 410.683136 
L 302.558987 390.623742 
L 302.778619 440.740897 
L 302.998251 317.02534 
L 303.217883 451.927673 
L 303.437516 471.658744 
L 303.657148 327.190919 
L 303.87678 383.650377 
L 304.096412 494.55897 
L 304.316045 404.206479 
L 304.535677 391.487596 
L 304.755309 489.471464 
L 304.974942 460.640359 
L 305.194574 446.590248 
L 305.414206 476.623569 
L 305.853471 240.577967 
L 306.073103 429.457191 
L 306.292735 486.542566 
L 306.512368 390.76718 
L 306.732 237.540718 
L 306.951632 435.004205 
L 307.171264 403.454779 
L 307.390897 229.989342 
L 307.610529 471.188297 
L 307.830161 469.189654 
L 308.049794 405.399944 
L 308.269426 543.651909 
L 308.928323 248.022214 
L 309.147955 449.315517 
L 309.367587 319.098142 
L 309.58722 483.234407 
L 309.806852 392.031365 
L 310.026484 476.761574 
L 310.246116 466.68887 
L 310.465749 469.724554 
L 310.685381 410.361214 
L 310.905013 274.324332 
L 311.124646 445.846442 
L 311.344278 435.264387 
L 311.783542 381.97816 
L 312.003175 385.881575 
L 312.222807 348.905647 
L 312.442439 355.772024 
L 312.662072 430.400326 
L 312.881704 419.474035 
L 313.101336 319.331835 
L 313.540601 464.604463 
L 313.760233 343.077789 
L 314.199498 472.539412 
L 314.41913 324.790411 
L 314.638762 359.344543 
L 314.858394 513.131774 
L 315.078027 359.395822 
L 315.517291 414.56338 
L 315.736924 342.584679 
L 315.956556 410.379154 
L 316.176188 403.250313 
L 316.39582 476.394777 
L 316.615453 355.067279 
L 316.835085 459.464518 
L 317.054717 342.61724 
L 317.27435 430.933668 
L 317.493982 452.694561 
L 317.713614 454.957064 
L 317.933246 372.802575 
L 318.152879 345.64019 
L 318.372511 387.976034 
L 318.592143 402.693831 
L 318.811775 429.968356 
L 319.031408 367.669816 
L 319.25104 199.481269 
L 319.470672 398.515266 
L 319.690305 260.053527 
L 319.909937 314.605683 
L 320.129569 305.034363 
L 320.568834 333.556013 
L 320.788466 372.738411 
L 321.008098 469.602348 
L 321.227731 380.33287 
L 321.447363 352.306953 
L 321.666995 408.526819 
L 322.10626 371.237962 
L 322.325892 448.397372 
L 322.545524 470.490293 
L 322.765157 252.331907 
L 322.984789 394.098897 
L 323.204421 440.272672 
L 323.424053 362.565164 
L 323.643686 420.659973 
L 323.863318 407.78119 
L 324.08295 290.464817 
L 324.302583 487.263559 
L 324.522215 271.54583 
L 324.741847 416.739541 
L 324.961479 414.697631 
L 325.181112 407.084836 
L 325.400744 426.121393 
L 325.620376 395.626986 
L 325.840009 329.351396 
L 326.059641 405.863613 
L 326.279273 377.95539 
L 326.498905 371.325678 
L 327.157802 266.174775 
L 327.377435 387.987874 
L 327.597067 402.158479 
L 327.816699 396.410798 
L 328.036331 508.783835 
L 328.255964 351.93614 
L 328.475596 312.863435 
L 328.695228 473.67912 
L 329.134493 421.931944 
L 329.354125 338.587905 
L 329.573757 465.046588 
L 329.79339 459.012163 
L 330.013022 306.893575 
L 330.232654 373.924098 
L 330.452287 405.270832 
L 330.671919 330.314182 
L 330.891551 381.571977 
L 331.111183 404.597599 
L 331.330816 297.698316 
L 331.550448 374.456732 
L 331.77008 347.248296 
L 331.989713 456.569905 
L 332.209345 419.03583 
L 332.428977 467.505025 
L 332.648609 285.369624 
L 332.868242 444.842049 
L 333.087874 370.722845 
L 333.307506 417.086729 
L 333.527139 341.663041 
L 333.746771 345.728718 
L 333.966403 401.204482 
L 334.186035 491.970469 
L 334.405668 408.664186 
L 334.6253 448.805754 
L 334.844932 337.143414 
L 335.064564 409.089363 
L 335.284197 274.069405 
L 335.503829 234.426021 
L 335.723461 318.127303 
L 335.943094 456.857853 
L 336.162726 433.969053 
L 336.382358 504.963814 
L 336.60199 418.374153 
L 336.821623 457.445812 
L 337.041255 344.192609 
L 337.260887 399.833906 
L 337.48052 302.315978 
L 337.919784 500.004816 
L 338.139416 472.229323 
L 338.359049 458.877132 
L 338.578681 393.681654 
L 338.798313 492.518578 
L 339.237578 287.434018 
L 339.45721 395.941576 
L 339.676842 328.612943 
L 339.896475 360.226078 
L 340.335739 455.761918 
L 340.555372 411.536906 
L 340.775004 323.193398 
L 341.214268 394.844718 
L 341.433901 395.302374 
L 341.653533 367.017545 
L 341.873165 367.452533 
L 342.092798 368.454616 
L 342.31243 351.038304 
L 342.751694 453.427214 
L 342.971327 393.403346 
L 343.190959 382.583287 
L 343.410591 469.654557 
L 343.630224 328.546099 
L 343.849856 405.425589 
L 344.069488 413.459303 
L 344.28912 378.735604 
L 344.508753 254.372019 
L 344.728385 504.86031 
L 344.948017 381.779589 
L 345.16765 409.234971 
L 345.387282 420.883776 
L 345.606914 400.214129 
L 345.826546 361.751988 
L 346.046179 417.326769 
L 346.265811 268.450493 
L 346.485443 468.506769 
L 346.705076 509.482782 
L 346.924708 313.066004 
L 347.14434 417.516165 
L 347.363972 397.325529 
L 347.583605 358.721368 
L 347.803237 411.81225 
L 348.022869 403.585731 
L 348.242502 407.00615 
L 348.462134 417.390532 
L 348.681766 413.416009 
L 348.901398 270.000175 
L 349.340663 348.023455 
L 349.560295 267.83018 
L 349.779927 458.511545 
L 349.99956 345.310513 
L 350.219192 339.049259 
L 350.658457 469.427955 
L 350.878089 416.611641 
L 351.097721 495.0358 
L 351.317353 417.712896 
L 351.536986 446.974261 
L 351.756618 429.746167 
L 351.97625 455.513423 
L 352.195883 422.848319 
L 352.415515 277.991619 
L 352.635147 478.031432 
L 352.854779 316.919329 
L 353.074412 485.957788 
L 353.513676 349.203566 
L 353.733309 397.235471 
L 353.952941 420.250937 
L 354.172573 336.97905 
L 354.392205 409.764968 
L 354.611838 381.761008 
L 354.83147 437.404696 
L 355.051102 247.53718 
L 355.270735 387.412212 
L 355.490367 302.865798 
L 355.709999 399.770466 
L 355.929631 436.675884 
L 356.149264 428.566594 
L 356.368896 463.236259 
L 356.588528 440.86994 
L 356.808161 383.443115 
L 357.027793 451.221624 
L 357.247425 340.370235 
L 357.467057 474.38611 
L 357.68669 393.194779 
L 357.906322 261.848106 
L 358.125954 399.395354 
L 358.345587 406.497852 
L 358.565219 377.571959 
L 358.784851 436.622705 
L 359.004483 445.758193 
L 359.224116 461.372009 
L 359.443748 405.657364 
L 359.66338 429.55968 
L 359.883013 390.72697 
L 360.102645 391.514984 
L 360.322277 421.239178 
L 360.761542 313.479876 
L 360.981174 373.532666 
L 361.200806 350.611971 
L 361.420439 416.426975 
L 361.640071 417.132804 
L 361.859703 483.996951 
L 362.079335 214.264624 
L 362.298968 335.534984 
L 362.5186 377.22245 
L 362.738232 469.014988 
L 362.957865 366.453424 
L 363.177497 440.332279 
L 363.397129 400.527776 
L 363.616761 383.603086 
L 364.056026 493.923511 
L 364.495291 390.010554 
L 364.714923 467.158409 
L 365.154187 417.941218 
L 365.37382 410.850024 
L 365.593452 381.893638 
L 365.813084 406.672895 
L 366.032716 466.430573 
L 366.252349 351.842117 
L 366.471981 455.486576 
L 366.691613 308.21545 
L 367.130878 367.074824 
L 367.35051 443.062129 
L 367.570142 364.44653 
L 367.789775 487.41362 
L 368.009407 352.444504 
L 368.229039 372.638951 
L 368.448672 291.936286 
L 368.668304 476.641325 
L 368.887936 432.110303 
L 369.107568 269.476653 
L 369.327201 290.063588 
L 369.546833 398.085527 
L 369.766465 360.475063 
L 369.986098 231.291385 
L 370.20573 396.514498 
L 370.425362 458.650225 
L 370.644994 442.089173 
L 370.864627 414.381365 
L 371.084259 490.504574 
L 371.523524 294.362024 
L 371.743156 468.376048 
L 372.18242 307.270576 
L 372.402053 448.688072 
L 372.621685 402.46371 
L 372.841317 415.207207 
L 373.06095 267.927449 
L 373.280582 382.997406 
L 373.500214 363.245708 
L 373.719846 290.955187 
L 373.939479 349.48776 
L 374.159111 346.057282 
L 374.378743 351.911056 
L 374.598376 295.846419 
L 374.818008 458.048122 
L 375.03764 427.896313 
L 375.257272 361.629242 
L 375.696537 443.913737 
L 375.916169 458.649353 
L 376.135802 350.083756 
L 376.355434 432.642925 
L 376.575066 421.605953 
L 377.014331 313.737903 
L 377.233963 310.750286 
L 377.673228 382.271254 
L 377.89286 205.311302 
L 378.112492 264.883994 
L 378.332124 368.318367 
L 378.551757 399.144712 
L 378.771389 345.332131 
L 378.991021 515.560738 
L 379.210654 381.061788 
L 379.430286 407.729186 
L 379.649918 307.707735 
L 379.86955 349.238436 
L 380.089183 338.739644 
L 380.308815 423.789079 
L 380.528447 218.732555 
L 380.748079 470.803082 
L 380.967712 335.922449 
L 381.187344 274.107318 
L 381.406976 415.8045 
L 381.626609 385.720179 
L 382.065873 290.118223 
L 382.285505 341.988165 
L 382.505138 433.004017 
L 382.944402 345.522403 
L 383.164035 342.798631 
L 383.383667 260.434082 
L 383.603299 384.759626 
L 383.822931 306.287854 
L 384.042564 403.258282 
L 384.262196 377.724715 
L 384.481828 376.797649 
L 384.701461 339.996613 
L 384.921093 368.666229 
L 385.140725 336.689911 
L 385.57999 419.447808 
L 385.799622 422.252313 
L 386.019254 429.039869 
L 386.238887 417.162259 
L 386.458519 430.399239 
L 386.678151 317.533307 
L 386.897783 328.989977 
L 387.117416 372.364605 
L 387.337048 381.78922 
L 387.55668 367.594544 
L 387.776313 365.591808 
L 387.995945 423.899372 
L 388.215577 350.894329 
L 388.435209 382.878306 
L 388.654842 443.346651 
L 388.874474 386.251361 
L 389.094106 394.449293 
L 389.313739 397.719568 
L 389.533371 325.900863 
L 389.753003 402.444251 
L 389.972635 386.446104 
L 390.192268 384.678657 
L 390.4119 439.904376 
L 390.631532 451.931261 
L 390.851165 412.586596 
L 391.070797 338.89013 
L 391.290429 372.990284 
L 391.510061 236.422545 
L 391.949326 453.948383 
L 392.388591 378.728324 
L 392.608223 419.033898 
L 392.827855 416.98531 
L 393.047487 455.925667 
L 393.26712 383.377419 
L 393.486752 396.269373 
L 393.706384 438.588244 
L 393.926017 426.744073 
L 394.145649 442.316337 
L 394.584913 425.198039 
L 394.804546 300.176229 
L 395.024178 427.811911 
L 395.24381 357.700397 
L 395.463443 457.794691 
L 395.902707 502.510411 
L 396.122339 466.799329 
L 396.341972 347.852228 
L 396.561604 346.929506 
L 396.781236 507.372189 
L 397.000868 366.043687 
L 397.220501 366.08378 
L 397.440133 378.291099 
L 397.879398 429.345234 
L 398.09903 351.653743 
L 398.318662 384.623229 
L 398.538294 316.059713 
L 398.977559 502.034559 
L 399.197191 370.186561 
L 399.416824 381.345089 
L 399.636456 403.174763 
L 400.07572 169.566228 
L 400.514985 330.719371 
L 400.734617 433.488181 
L 400.95425 465.288385 
L 401.173882 371.100097 
L 401.393514 479.965963 
L 401.613146 439.924657 
L 401.832779 311.421581 
L 402.052411 387.324263 
L 402.272043 503.471334 
L 402.491676 350.669691 
L 402.711308 365.658935 
L 402.93094 414.851258 
L 403.150572 381.716816 
L 403.370205 386.829571 
L 403.589837 271.31544 
L 403.809469 446.279584 
L 404.029102 306.386416 
L 404.248734 285.614218 
L 404.468366 318.596539 
L 404.687998 517.049377 
L 404.907631 466.755115 
L 405.127263 453.551359 
L 405.346895 373.906585 
L 405.566528 366.725786 
L 405.78616 191.882635 
L 406.005792 369.373463 
L 406.225424 328.464065 
L 406.445057 373.158369 
L 406.664689 352.994165 
L 406.884321 515.274429 
L 407.103954 330.788837 
L 407.323586 453.976555 
L 407.543218 264.089177 
L 407.76285 543.231987 
L 407.982483 469.730954 
L 408.202115 294.697124 
L 408.421747 412.173546 
L 408.64138 301.207356 
L 409.080644 427.73308 
L 409.300276 418.207908 
L 409.519909 316.875151 
L 409.739541 423.585467 
L 409.959173 395.597757 
L 410.178806 521.03896 
L 410.398438 360.139967 
L 410.61807 439.685328 
L 410.837702 395.177924 
L 411.057335 424.348792 
L 411.276967 418.567848 
L 411.496599 261.864873 
L 412.375128 492.357155 
L 412.594761 305.614412 
L 412.814393 326.638449 
L 413.034025 405.00545 
L 413.253657 434.546758 
L 413.692922 360.705627 
L 413.912554 412.850134 
L 414.132187 373.840312 
L 414.351819 375.80559 
L 414.571451 394.409129 
L 414.791083 449.516923 
L 415.010716 393.888396 
L 415.230348 389.612653 
L 415.44998 404.37806 
L 415.669613 457.170332 
L 416.108877 411.896132 
L 416.328509 415.115414 
L 416.548142 425.217357 
L 416.767774 510.260408 
L 416.987406 463.857334 
L 417.207039 347.446194 
L 417.426671 388.263055 
L 417.646303 387.615651 
L 418.085568 365.69306 
L 418.3052 454.048171 
L 418.524832 223.634193 
L 418.744465 479.877299 
L 418.964097 443.046579 
L 419.183729 471.733093 
L 419.403361 355.00449 
L 419.622994 404.264893 
L 419.842626 309.874509 
L 420.062258 413.245522 
L 420.281891 358.502819 
L 420.501523 468.017335 
L 420.721155 466.984023 
L 420.940787 484.780003 
L 421.16042 417.088841 
L 421.380052 243.266109 
L 421.599684 456.35245 
L 421.819317 408.694989 
L 422.038949 336.287947 
L 422.258581 311.408153 
L 422.697846 464.393017 
L 422.917478 376.566672 
L 423.13711 375.115598 
L 423.356743 301.690889 
L 423.576375 371.63504 
L 423.796007 300.379872 
L 424.015639 452.836816 
L 424.235272 299.028695 
L 424.454904 450.426743 
L 424.674536 369.491139 
L 424.894169 480.023893 
L 425.113801 404.03676 
L 425.333433 400.84854 
L 425.553065 434.431724 
L 425.772698 449.7901 
L 425.99233 344.949582 
L 426.211962 442.860152 
L 426.431594 446.994706 
L 426.870859 354.685257 
L 427.090491 353.433307 
L 427.310124 342.552874 
L 427.749388 470.414451 
L 427.96902 482.828068 
L 428.188653 441.813462 
L 428.408285 352.865909 
L 428.627917 353.916465 
L 428.84755 384.794768 
L 429.067182 367.328288 
L 429.286814 317.361189 
L 429.506446 499.280343 
L 429.945711 369.899429 
L 430.165343 526.402316 
L 430.384976 442.920774 
L 430.604608 414.447331 
L 431.043872 506.541867 
L 431.263505 504.555294 
L 431.483137 409.238302 
L 431.702769 527.030035 
L 432.142034 322.179371 
L 432.361666 309.827506 
L 432.581298 281.211457 
L 432.800931 418.265971 
L 433.020563 320.040266 
L 433.240195 348.159666 
L 433.459828 304.357586 
L 433.67946 421.824502 
L 433.899092 310.178968 
L 434.118724 258.950018 
L 434.338357 403.268861 
L 434.557989 404.134686 
L 434.777621 357.370239 
L 434.997254 432.554417 
L 435.216886 386.680876 
L 435.436518 488.680408 
L 435.65615 294.274043 
L 436.095415 419.768414 
L 436.315047 330.191977 
L 436.53468 472.166066 
L 436.754312 384.960844 
L 436.973944 456.861504 
L 437.413209 335.425042 
L 437.632841 474.931294 
L 437.852473 420.743187 
L 438.072106 323.454646 
L 438.291738 364.976787 
L 438.51137 347.58957 
L 438.731002 506.773538 
L 439.170267 374.183352 
L 439.389899 455.120732 
L 439.609532 392.972904 
L 439.829164 230.163132 
L 440.048796 416.985797 
L 440.268428 337.496977 
L 440.488061 404.591022 
L 440.707693 400.343836 
L 440.927325 322.497083 
L 441.146958 439.31454 
L 441.36659 335.278658 
L 441.586222 328.624031 
L 441.805854 365.673515 
L 442.025487 462.373791 
L 442.245119 419.379825 
L 442.464751 338.984596 
L 442.904016 537.652081 
L 443.123648 448.891958 
L 443.34328 527.171493 
L 443.562913 464.484169 
L 443.782545 483.153698 
L 444.002177 361.258602 
L 444.221809 354.067822 
L 444.441442 363.993217 
L 444.661074 400.538054 
L 444.880706 401.522545 
L 445.100339 393.207943 
L 445.319971 393.658938 
L 445.539603 528.827105 
L 445.978868 315.568006 
L 446.1985 421.566082 
L 446.418132 356.702728 
L 447.077029 431.046323 
L 447.296661 460.85939 
L 447.516294 362.095713 
L 447.735926 485.614934 
L 447.955558 440.220875 
L 448.175191 275.670803 
L 448.394823 405.188138 
L 448.614455 313.701796 
L 448.834087 460.629611 
L 449.05372 354.145405 
L 449.273352 448.849547 
L 449.712617 396.596138 
L 449.932249 388.746548 
L 450.151881 396.315836 
L 450.371513 498.863088 
L 450.591146 328.359236 
L 450.810778 353.15587 
L 451.03041 316.763326 
L 451.250043 443.585406 
L 451.469675 437.681724 
L 451.689307 353.732727 
L 452.128572 470.25384 
L 452.348204 376.190592 
L 452.567836 474.658418 
L 452.787469 435.493067 
L 453.007101 372.787773 
L 453.226733 479.509922 
L 453.446365 484.003622 
L 453.88563 356.38864 
L 454.105262 454.832053 
L 454.324895 323.249709 
L 454.544527 343.55247 
L 454.764159 428.926558 
L 454.983791 461.327117 
L 455.203424 425.099155 
L 455.423056 433.8464 
L 455.642688 394.664344 
L 455.862321 441.671736 
L 456.081953 237.241742 
L 456.301585 378.352362 
L 456.521217 398.006593 
L 456.74085 450.77075 
L 456.960482 362.275381 
L 457.180114 409.851897 
L 457.399746 355.753187 
L 457.619379 472.648958 
L 457.839011 264.613064 
L 458.278276 429.970975 
L 458.497908 425.315881 
L 458.937172 404.431554 
L 459.156805 418.079357 
L 459.376437 424.644998 
L 459.596069 497.339827 
L 460.035334 352.486519 
L 460.254966 455.992149 
L 460.474598 474.696622 
L 460.694231 456.839362 
L 460.913863 328.542679 
L 461.133495 405.143105 
L 461.353128 362.261093 
L 461.57276 365.895704 
L 461.792392 295.456882 
L 462.231657 443.381891 
L 462.451289 385.821796 
L 462.670921 289.090448 
L 462.890554 414.86189 
L 463.329818 370.21916 
L 463.54945 515.164955 
L 463.769083 526.307044 
L 463.988715 370.067142 
L 464.208347 450.232899 
L 464.42798 484.407375 
L 464.647612 238.320622 
L 464.867244 444.625742 
L 465.086876 412.12058 
L 465.306509 293.25201 
L 465.526141 337.715077 
L 465.745773 325.360483 
L 465.965406 452.574461 
L 466.185038 485.683459 
L 466.40467 483.868707 
L 466.624302 316.986822 
L 466.843935 448.561925 
L 467.063567 450.212494 
L 467.283199 342.409276 
L 467.502832 483.867263 
L 467.722464 367.847985 
L 467.942096 420.287829 
L 468.161728 434.138303 
L 468.381361 434.459325 
L 468.600993 427.589464 
L 469.040258 352.757265 
L 469.25989 360.402447 
L 469.479522 383.514302 
L 469.699154 332.806566 
L 469.918787 381.094447 
L 470.138419 351.546401 
L 470.358051 441.081155 
L 470.577684 397.885317 
L 470.797316 301.145424 
L 471.016948 456.066783 
L 471.23658 335.889812 
L 471.456213 465.893478 
L 471.675845 394.237818 
L 471.895477 407.348833 
L 472.11511 359.058314 
L 472.334742 432.076796 
L 472.554374 406.203213 
L 472.774006 348.846146 
L 472.993639 390.609045 
L 473.213271 406.979895 
L 473.432903 459.593213 
L 473.652535 463.239818 
L 473.872168 451.543619 
L 474.0918 386.232382 
L 474.311432 432.21832 
L 474.531065 360.332147 
L 474.970329 414.660043 
L 475.189961 482.909464 
L 475.409594 406.393019 
L 475.629226 416.63677 
L 475.848858 259.243854 
L 476.068491 477.207321 
L 476.288123 394.242239 
L 476.507755 474.902693 
L 476.94702 298.974397 
L 477.166652 444.299332 
L 477.386284 469.165369 
L 477.605917 456.321587 
L 477.825549 228.320862 
L 478.264813 468.972503 
L 478.484446 361.069845 
L 478.704078 381.897335 
L 478.92371 453.309874 
L 479.143343 316.237909 
L 479.362975 372.539154 
L 479.582607 365.313404 
L 479.802239 427.755452 
L 480.021872 392.350806 
L 480.461136 512.084147 
L 480.680769 322.512154 
L 480.900401 303.420034 
L 481.120033 326.063881 
L 481.339665 385.374084 
L 481.559298 401.010186 
L 481.77893 306.238174 
L 481.998562 318.220568 
L 482.218195 416.079613 
L 482.437827 442.0113 
L 482.657459 372.991923 
L 483.096724 460.607843 
L 483.316356 264.714434 
L 483.535988 514.185757 
L 483.755621 317.748845 
L 483.975253 422.967108 
L 484.194885 338.093281 
L 484.414517 366.431004 
L 484.63415 358.350713 
L 484.853782 303.42522 
L 485.073414 407.142346 
L 485.293047 311.407577 
L 485.512679 427.085473 
L 485.732311 371.674083 
L 485.951943 435.47688 
L 486.171576 398.927405 
L 486.391208 425.150846 
L 486.61084 352.689616 
L 486.830473 347.522621 
L 487.050105 417.130671 
L 487.269737 434.842925 
L 487.709002 389.762959 
L 487.928634 285.431435 
L 488.148266 469.36574 
L 488.367898 357.030447 
L 488.587531 391.81096 
L 488.807163 327.374787 
L 489.246428 439.952212 
L 489.46606 317.505887 
L 489.685692 306.164995 
L 489.905324 361.040943 
L 490.124957 447.075931 
L 490.344589 355.540048 
L 490.564221 373.686666 
L 490.783854 406.873812 
L 491.003486 466.86654 
L 491.223118 383.618185 
L 491.44275 454.768632 
L 491.662383 388.482404 
L 491.882015 393.948328 
L 492.101647 393.097777 
L 492.32128 419.129254 
L 492.540912 323.581633 
L 492.760544 454.214947 
L 492.980176 283.823339 
L 493.199809 514.770029 
L 493.419441 420.563226 
L 493.639073 402.011461 
L 494.078338 263.875292 
L 494.29797 442.976449 
L 494.517602 459.479841 
L 494.737235 343.120153 
L 494.956867 368.727281 
L 495.176499 437.411055 
L 495.396132 408.372006 
L 495.615764 478.758109 
L 495.835396 368.632371 
L 496.055028 395.171923 
L 496.274661 376.778168 
L 496.494293 411.583955 
L 496.713925 375.090806 
L 496.933558 360.492978 
L 497.15319 414.345068 
L 497.372822 374.891302 
L 497.592454 513.229428 
L 497.812087 521.469927 
L 498.031719 484.448194 
L 498.251351 368.557499 
L 498.470984 458.668949 
L 498.690616 491.242349 
L 498.910248 358.413333 
L 499.12988 449.730209 
L 499.349513 417.213721 
L 499.569145 303.995303 
L 499.788777 436.559201 
L 500.00841 342.64465 
L 500.447674 456.850343 
L 500.667306 398.857253 
L 500.886939 417.553427 
L 501.106571 199.851888 
L 501.326203 380.998792 
L 501.545836 383.034451 
L 501.765468 409.725907 
L 501.9851 406.848993 
L 502.204732 378.867219 
L 502.424365 464.448407 
L 502.643997 453.493163 
L 502.863629 426.905901 
L 503.083262 363.296242 
L 503.302894 482.266252 
L 503.522526 451.752581 
L 503.742158 353.416539 
L 503.961791 342.297702 
L 504.181423 374.188612 
L 504.401055 370.069004 
L 504.620687 449.505152 
L 504.84032 433.07618 
L 505.059952 386.316958 
L 505.499217 433.031 
L 505.718849 379.969063 
L 505.938481 261.766427 
L 506.158113 296.475594 
L 506.377746 395.934332 
L 506.597378 321.345734 
L 507.256275 455.659719 
L 507.475907 330.29877 
L 507.695539 331.214965 
L 508.134804 520.891522 
L 508.354436 340.506721 
L 508.574069 334.104925 
L 509.013333 431.39005 
L 509.232965 327.432808 
L 509.452598 448.006535 
L 509.891862 298.433129 
L 510.111495 349.504461 
L 510.331127 483.918592 
L 510.550759 378.514735 
L 510.770391 491.252465 
L 510.990024 405.412859 
L 511.209656 463.078252 
L 511.429288 272.941843 
L 511.648921 395.016134 
L 511.868553 418.398862 
L 512.088185 276.355871 
L 512.307817 474.710089 
L 512.52745 301.407928 
L 512.747082 378.765737 
L 512.966714 384.640226 
L 513.186347 251.65896 
L 513.405979 534.475778 
L 513.625611 421.808941 
L 513.845243 529.755912 
L 514.064876 456.532783 
L 514.284508 239.0943 
L 514.50414 419.114006 
L 514.723773 337.263099 
L 514.943405 435.605524 
L 515.163037 352.465478 
L 515.382669 433.781368 
L 515.602302 378.201304 
L 515.821934 460.86843 
L 516.041566 292.945525 
L 516.261199 327.91529 
L 516.700463 502.948295 
L 516.920095 344.118011 
L 517.139728 453.516358 
L 517.35936 410.909018 
L 517.578992 463.882661 
L 517.798625 357.540384 
L 518.018257 379.885648 
L 518.237889 340.470359 
L 518.457521 334.051314 
L 518.896786 444.965918 
L 519.116418 396.121371 
L 519.33605 454.67895 
L 519.775315 257.283328 
L 520.434212 491.199382 
L 520.653844 362.831387 
L 520.873476 356.664285 
L 521.093109 408.24292 
L 521.312741 301.084543 
L 521.532373 442.30508 
L 521.752006 449.336604 
L 521.971638 399.268582 
L 522.19127 487.968312 
L 522.410902 473.031769 
L 522.630535 367.730658 
L 522.850167 391.262751 
L 523.069799 462.494123 
L 523.289432 387.925462 
L 523.728696 331.44557 
L 523.948328 387.649713 
L 524.167961 304.18281 
L 524.607225 421.941524 
L 525.04649 484.85058 
L 525.266122 131.763818 
L 525.485754 367.427876 
L 525.705387 471.575409 
L 525.925019 406.062443 
L 526.144651 390.105018 
L 526.364284 501.627074 
L 526.583916 334.767267 
L 526.803548 433.672581 
L 527.02318 446.803575 
L 527.242813 398.831087 
L 527.462445 392.224606 
L 527.682077 448.905534 
L 527.90171 136.096473 
L 528.121342 384.298589 
L 528.340974 433.228567 
L 528.560606 446.503387 
L 528.780239 335.223905 
L 528.999871 491.66064 
L 529.219503 347.191945 
L 529.439136 414.979515 
L 529.658768 446.477773 
L 530.098032 387.029424 
L 530.317665 480.221763 
L 530.537297 448.698636 
L 530.756929 201.896122 
L 530.976562 447.868478 
L 531.196194 426.305541 
L 531.415826 460.975062 
L 531.635458 387.220335 
L 531.855091 456.887385 
L 532.294355 423.267817 
L 532.513988 483.368661 
L 532.73362 384.10646 
L 532.953252 395.831197 
L 533.172884 366.502942 
L 533.392517 415.490968 
L 533.612149 418.860283 
L 533.831781 385.551648 
L 534.051413 458.415211 
L 534.271046 365.439148 
L 534.490678 217.73784 
L 534.71031 457.406637 
L 534.929943 269.682518 
L 535.149575 436.588419 
L 535.369207 459.608761 
L 535.588839 400.26647 
L 535.808472 376.081109 
L 536.028104 436.210558 
L 536.247736 401.170258 
L 536.467369 292.838316 
L 536.687001 429.669483 
L 537.126265 388.22596 
L 537.345898 447.339165 
L 537.56553 353.197407 
L 537.785162 376.605269 
L 538.004795 371.641299 
L 538.224427 303.074711 
L 538.444059 395.244433 
L 538.663691 318.59184 
L 538.883324 334.777336 
L 539.102956 455.00728 
L 539.322588 314.922851 
L 539.542221 407.291643 
L 539.761853 433.248907 
L 539.981485 385.56407 
L 540.201117 246.713976 
L 540.42075 442.678626 
L 540.860014 284.491351 
L 541.079647 329.693292 
L 541.299279 252.091048 
L 541.518911 431.945373 
L 541.738543 506.548574 
L 542.177808 312.926287 
L 542.39744 346.622565 
L 542.617073 398.520163 
L 542.836705 420.662506 
L 543.056337 519.240863 
L 543.275969 376.598265 
L 543.495602 406.591627 
L 543.715234 482.902054 
L 543.934866 484.053209 
L 544.154499 341.664403 
L 544.374131 475.110834 
L 544.593763 290.859097 
L 544.813395 452.784987 
L 545.25266 395.614383 
L 545.472292 449.586303 
L 545.691925 452.438069 
L 545.911557 396.263639 
L 545.911557 396.263639 
" style="fill:none;stroke:#96c69a;stroke-linecap:round;stroke-width:3;"/>
   </g>
   <g id="line2d_2"/>
   <g id="patch_3">
    <path d="M 84.914375 602.94 
L 84.914375 109.326857 
" style="fill:none;stroke:#262626;stroke-linecap:square;stroke-linejoin:miter;stroke-width:2.5;"/>
   </g>
   <g id="patch_4">
    <path d="M 84.914375 602.94 
L 567.863804 602.94 
" style="fill:none;stroke:#262626;stroke-linecap:square;stroke-linejoin:miter;stroke-width:2.5;"/>
   </g>
   <g id="legend_1">
    <g id="patch_5">
     <path d="M 514.948179 597.94 
L 560.863804 597.94 
Q 562.863804 597.94 562.863804 595.94 
L 562.863804 554.034375 
Q 562.863804 552.034375 560.863804 552.034375 
L 514.948179 552.034375 
Q 512.948179 552.034375 512.948179 554.034375 
L 512.948179 595.94 
Q 512.948179 597.94 514.948179 597.94 
z
" style="fill:#ffffff;opacity:0.8;stroke:#cccccc;stroke-linejoin:miter;stroke-width:2;"/>
    </g>
    <g id="text_17">
     <!-- $n_\tau$ -->
     <g style="fill:#262626;" transform="translate(524.825991 574.270625)scale(0.24 -0.24)">
      <defs>
       <path d="M 3566 2113 
L 3156 0 
L 2578 0 
L 2988 2091 
Q 3016 2238 3031 2350 
Q 3047 2463 3047 2528 
Q 3047 2791 2881 2937 
Q 2716 3084 2419 3084 
Q 1956 3084 1622 2776 
Q 1288 2469 1184 1941 
L 800 0 
L 225 0 
L 903 3500 
L 1478 3500 
L 1363 2950 
Q 1603 3253 1940 3418 
Q 2278 3584 2650 3584 
Q 3113 3584 3367 3334 
Q 3622 3084 3622 2631 
Q 3622 2519 3608 2391 
Q 3594 2263 3566 2113 
z
" id="DejaVuSans-Oblique-6e" transform="scale(0.015625)"/>
       <path d="M 2103 638 
Q 2188 488 2525 488 
L 2800 488 
L 2706 0 
L 2363 0 
Q 1800 0 1600 300 
Q 1403 606 1534 1269 
L 1856 2925 
L 541 2925 
L 653 3500 
L 3881 3500 
L 3769 2925 
L 2444 2925 
L 2113 1234 
Q 2025 781 2103 638 
z
" id="DejaVuSans-Oblique-3c4" transform="scale(0.015625)"/>
      </defs>
      <use xlink:href="#DejaVuSans-Oblique-6e"/>
      <use transform="translate(63.378906 -16.40625)scale(0.7)" xlink:href="#DejaVuSans-Oblique-3c4"/>
     </g>
    </g>
    <g id="line2d_3">
     <path d="M 516.948179 588.360312 
L 536.948179 588.360312 
" style="fill:none;stroke:#96c69a;stroke-linecap:round;stroke-width:3;"/>
    </g>
    <g id="line2d_4"/>
    <g id="text_18">
     <!-- 80 -->
     <g style="fill:#262626;" transform="translate(544.948179 591.860312)scale(0.1 -0.1)">
      <defs>
       <path d="M 2228 2088 
Q 1891 2088 1709 1903 
Q 1528 1719 1528 1375 
Q 1528 1031 1709 848 
Q 1891 666 2228 666 
Q 2563 666 2741 848 
Q 2919 1031 2919 1375 
Q 2919 1722 2741 1905 
Q 2563 2088 2228 2088 
z
M 1350 2484 
Q 925 2613 709 2878 
Q 494 3144 494 3541 
Q 494 4131 934 4440 
Q 1375 4750 2228 4750 
Q 3075 4750 3515 4442 
Q 3956 4134 3956 3541 
Q 3956 3144 3739 2878 
Q 3522 2613 3097 2484 
Q 3572 2353 3814 2058 
Q 4056 1763 4056 1313 
Q 4056 619 3595 264 
Q 3134 -91 2228 -91 
Q 1319 -91 855 264 
Q 391 619 391 1313 
Q 391 1763 633 2058 
Q 875 2353 1350 2484 
z
M 1631 3419 
Q 1631 3141 1786 2991 
Q 1941 2841 2228 2841 
Q 2509 2841 2662 2991 
Q 2816 3141 2816 3419 
Q 2816 3697 2662 3845 
Q 2509 3994 2228 3994 
Q 1941 3994 1786 3844 
Q 1631 3694 1631 3419 
z
" id="DejaVuSans-Bold-38" transform="scale(0.015625)"/>
       <path d="M 2944 2338 
Q 2944 3213 2780 3570 
Q 2616 3928 2228 3928 
Q 1841 3928 1675 3570 
Q 1509 3213 1509 2338 
Q 1509 1453 1675 1090 
Q 1841 728 2228 728 
Q 2613 728 2778 1090 
Q 2944 1453 2944 2338 
z
M 4147 2328 
Q 4147 1169 3647 539 
Q 3147 -91 2228 -91 
Q 1306 -91 806 539 
Q 306 1169 306 2328 
Q 306 3491 806 4120 
Q 1306 4750 2228 4750 
Q 3147 4750 3647 4120 
Q 4147 3491 4147 2328 
z
" id="DejaVuSans-Bold-30" transform="scale(0.015625)"/>
      </defs>
      <use xlink:href="#DejaVuSans-Bold-38"/>
      <use x="69.580078" xlink:href="#DejaVuSans-Bold-30"/>
     </g>
    </g>
   </g>
  </g>
  <g id="axes_2">
   <g id="patch_6">
    <path d="M 84.914375 92.305714 
L 567.863804 92.305714 
L 567.863804 7.2 
L 84.914375 7.2 
z
" style="fill:none;"/>
   </g>
   <g id="matplotlib.axis_3">
    <g id="xtick_7"/>
    <g id="xtick_8"/>
    <g id="xtick_9"/>
    <g id="xtick_10"/>
    <g id="xtick_11"/>
    <g id="xtick_12"/>
   </g>
   <g id="matplotlib.axis_4">
    <g id="ytick_9">
     <g id="text_19">
      <!-- 0 -->
      <g style="fill:#262626;" transform="translate(55.416875 100.663996)scale(0.22 -0.22)">
       <use xlink:href="#DejaVuSans-30"/>
      </g>
     </g>
    </g>
    <g id="ytick_10">
     <g id="text_20">
      <!-- 100 -->
      <g style="fill:#262626;" transform="translate(27.421875 48.032138)scale(0.22 -0.22)">
       <use xlink:href="#DejaVuSans-31"/>
       <use x="63.623047" xlink:href="#DejaVuSans-30"/>
       <use x="127.246094" xlink:href="#DejaVuSans-30"/>
      </g>
     </g>
    </g>
   </g>
   <g id="patch_7">
    <path clip-path="url(#p949430b4f3)" d="M 106.866622 92.305714 
L 140.639309 92.305714 
L 140.639309 11.252653 
L 106.866622 11.252653 
z
" style="fill:#96c69a;fill-opacity:0.5;stroke:#ffffff;stroke-linejoin:miter;stroke-width:2;"/>
   </g>
   <g id="patch_8">
    <path clip-path="url(#p949430b4f3)" d="M 140.639309 92.305714 
L 174.411996 92.305714 
L 174.411996 11.252653 
L 140.639309 11.252653 
z
" style="fill:#96c69a;fill-opacity:0.5;stroke:#ffffff;stroke-linejoin:miter;stroke-width:2;"/>
   </g>
   <g id="patch_9">
    <path clip-path="url(#p949430b4f3)" d="M 174.411996 92.305714 
L 208.184684 92.305714 
L 208.184684 11.252653 
L 174.411996 11.252653 
z
" style="fill:#96c69a;fill-opacity:0.5;stroke:#ffffff;stroke-linejoin:miter;stroke-width:2;"/>
   </g>
   <g id="patch_10">
    <path clip-path="url(#p949430b4f3)" d="M 208.184684 92.305714 
L 241.957371 92.305714 
L 241.957371 11.252653 
L 208.184684 11.252653 
z
" style="fill:#96c69a;fill-opacity:0.5;stroke:#ffffff;stroke-linejoin:miter;stroke-width:2;"/>
   </g>
   <g id="patch_11">
    <path clip-path="url(#p949430b4f3)" d="M 241.957371 92.305714 
L 275.730058 92.305714 
L 275.730058 11.778972 
L 241.957371 11.778972 
z
" style="fill:#96c69a;fill-opacity:0.5;stroke:#ffffff;stroke-linejoin:miter;stroke-width:2;"/>
   </g>
   <g id="patch_12">
    <path clip-path="url(#p949430b4f3)" d="M 275.730058 92.305714 
L 309.502746 92.305714 
L 309.502746 11.252653 
L 275.730058 11.252653 
z
" style="fill:#96c69a;fill-opacity:0.5;stroke:#ffffff;stroke-linejoin:miter;stroke-width:2;"/>
   </g>
   <g id="patch_13">
    <path clip-path="url(#p949430b4f3)" d="M 309.502746 92.305714 
L 343.275433 92.305714 
L 343.275433 11.252653 
L 309.502746 11.252653 
z
" style="fill:#96c69a;fill-opacity:0.5;stroke:#ffffff;stroke-linejoin:miter;stroke-width:2;"/>
   </g>
   <g id="patch_14">
    <path clip-path="url(#p949430b4f3)" d="M 343.275433 92.305714 
L 377.04812 92.305714 
L 377.04812 11.252653 
L 343.275433 11.252653 
z
" style="fill:#96c69a;fill-opacity:0.5;stroke:#ffffff;stroke-linejoin:miter;stroke-width:2;"/>
   </g>
   <g id="patch_15">
    <path clip-path="url(#p949430b4f3)" d="M 377.04812 92.305714 
L 410.820808 92.305714 
L 410.820808 11.778972 
L 377.04812 11.778972 
z
" style="fill:#96c69a;fill-opacity:0.5;stroke:#ffffff;stroke-linejoin:miter;stroke-width:2;"/>
   </g>
   <g id="patch_16">
    <path clip-path="url(#p949430b4f3)" d="M 410.820808 92.305714 
L 444.593495 92.305714 
L 444.593495 11.252653 
L 410.820808 11.252653 
z
" style="fill:#96c69a;fill-opacity:0.5;stroke:#ffffff;stroke-linejoin:miter;stroke-width:2;"/>
   </g>
   <g id="patch_17">
    <path clip-path="url(#p949430b4f3)" d="M 444.593495 92.305714 
L 478.366182 92.305714 
L 478.366182 11.252653 
L 444.593495 11.252653 
z
" style="fill:#96c69a;fill-opacity:0.5;stroke:#ffffff;stroke-linejoin:miter;stroke-width:2;"/>
   </g>
   <g id="patch_18">
    <path clip-path="url(#p949430b4f3)" d="M 478.366182 92.305714 
L 512.13887 92.305714 
L 512.13887 11.252653 
L 478.366182 11.252653 
z
" style="fill:#96c69a;fill-opacity:0.5;stroke:#ffffff;stroke-linejoin:miter;stroke-width:2;"/>
   </g>
   <g id="patch_19">
    <path clip-path="url(#p949430b4f3)" d="M 512.13887 92.305714 
L 545.911557 92.305714 
L 545.911557 11.252653 
L 512.13887 11.252653 
z
" style="fill:#96c69a;fill-opacity:0.5;stroke:#ffffff;stroke-linejoin:miter;stroke-width:2;"/>
   </g>
   <g id="patch_20">
    <path d="M 84.914375 92.305714 
L 84.914375 7.2 
" style="fill:none;stroke:#262626;stroke-linecap:square;stroke-linejoin:miter;stroke-width:2.5;"/>
   </g>
   <g id="patch_21">
    <path d="M 84.914375 92.305714 
L 567.863804 92.305714 
" style="fill:none;stroke:#262626;stroke-linecap:square;stroke-linejoin:miter;stroke-width:2.5;"/>
   </g>
  </g>
  <g id="axes_3">
   <g id="patch_22">
    <path d="M 584.517232 602.94 
L 667.784375 602.94 
L 667.784375 109.326857 
L 584.517232 109.326857 
z
" style="fill:none;"/>
   </g>
   <g id="matplotlib.axis_5">
    <g id="xtick_13">
     <g id="text_21">
      <!-- 0 -->
      <g style="fill:#262626;" transform="translate(577.518482 635.156562)scale(0.22 -0.22)">
       <use xlink:href="#DejaVuSans-30"/>
      </g>
     </g>
    </g>
    <g id="xtick_14">
     <g id="text_22">
      <!-- 100 -->
      <g style="fill:#262626;" transform="translate(606.855431 635.156562)scale(0.22 -0.22)">
       <use xlink:href="#DejaVuSans-31"/>
       <use x="63.623047" xlink:href="#DejaVuSans-30"/>
       <use x="127.246094" xlink:href="#DejaVuSans-30"/>
      </g>
     </g>
    </g>
   </g>
   <g id="matplotlib.axis_6">
    <g id="ytick_11"/>
    <g id="ytick_12"/>
    <g id="ytick_13"/>
    <g id="ytick_14"/>
    <g id="ytick_15"/>
    <g id="ytick_16"/>
    <g id="ytick_17"/>
    <g id="ytick_18"/>
   </g>
   <g id="patch_23">
    <path clip-path="url(#pc51c9e9e46)" d="M 584.517232 580.503039 
L 584.950577 580.503039 
L 584.950577 566.904881 
L 584.517232 566.904881 
z
" style="fill:#96c69a;fill-opacity:0.5;stroke:#ffffff;stroke-linejoin:miter;stroke-width:1.359816;"/>
   </g>
   <g id="patch_24">
    <path clip-path="url(#pc51c9e9e46)" d="M 584.517232 566.904881 
L 584.517232 566.904881 
L 584.517232 553.306723 
L 584.517232 553.306723 
z
" style="fill:#96c69a;fill-opacity:0.5;stroke:#ffffff;stroke-linejoin:miter;stroke-width:1.359816;"/>
   </g>
   <g id="patch_25">
    <path clip-path="url(#pc51c9e9e46)" d="M 584.517232 553.306723 
L 586.683955 553.306723 
L 586.683955 539.708564 
L 584.517232 539.708564 
z
" style="fill:#96c69a;fill-opacity:0.5;stroke:#ffffff;stroke-linejoin:miter;stroke-width:1.359816;"/>
   </g>
   <g id="patch_26">
    <path clip-path="url(#pc51c9e9e46)" d="M 584.517232 539.708564 
L 590.15071 539.708564 
L 590.15071 526.110406 
L 584.517232 526.110406 
z
" style="fill:#96c69a;fill-opacity:0.5;stroke:#ffffff;stroke-linejoin:miter;stroke-width:1.359816;"/>
   </g>
   <g id="patch_27">
    <path clip-path="url(#pc51c9e9e46)" d="M 584.517232 526.110406 
L 595.784189 526.110406 
L 595.784189 512.512248 
L 584.517232 512.512248 
z
" style="fill:#96c69a;fill-opacity:0.5;stroke:#ffffff;stroke-linejoin:miter;stroke-width:1.359816;"/>
   </g>
   <g id="patch_28">
    <path clip-path="url(#pc51c9e9e46)" d="M 584.517232 512.512248 
L 599.684289 512.512248 
L 599.684289 498.91409 
L 584.517232 498.91409 
z
" style="fill:#96c69a;fill-opacity:0.5;stroke:#ffffff;stroke-linejoin:miter;stroke-width:1.359816;"/>
   </g>
   <g id="patch_29">
    <path clip-path="url(#pc51c9e9e46)" d="M 584.517232 498.91409 
L 602.717701 498.91409 
L 602.717701 485.315932 
L 584.517232 485.315932 
z
" style="fill:#96c69a;fill-opacity:0.5;stroke:#ffffff;stroke-linejoin:miter;stroke-width:1.359816;"/>
   </g>
   <g id="patch_30">
    <path clip-path="url(#pc51c9e9e46)" d="M 584.517232 485.315932 
L 620.484824 485.315932 
L 620.484824 471.717773 
L 584.517232 471.717773 
z
" style="fill:#96c69a;fill-opacity:0.5;stroke:#ffffff;stroke-linejoin:miter;stroke-width:1.359816;"/>
   </g>
   <g id="patch_31">
    <path clip-path="url(#pc51c9e9e46)" d="M 584.517232 471.717773 
L 633.918503 471.717773 
L 633.918503 458.119615 
L 584.517232 458.119615 
z
" style="fill:#96c69a;fill-opacity:0.5;stroke:#ffffff;stroke-linejoin:miter;stroke-width:1.359816;"/>
   </g>
   <g id="patch_32">
    <path clip-path="url(#pc51c9e9e46)" d="M 584.517232 458.119615 
L 643.018738 458.119615 
L 643.018738 444.521457 
L 584.517232 444.521457 
z
" style="fill:#96c69a;fill-opacity:0.5;stroke:#ffffff;stroke-linejoin:miter;stroke-width:1.359816;"/>
   </g>
   <g id="patch_33">
    <path clip-path="url(#pc51c9e9e46)" d="M 584.517232 444.521457 
L 652.118972 444.521457 
L 652.118972 430.923299 
L 584.517232 430.923299 
z
" style="fill:#96c69a;fill-opacity:0.5;stroke:#ffffff;stroke-linejoin:miter;stroke-width:1.359816;"/>
   </g>
   <g id="patch_34">
    <path clip-path="url(#pc51c9e9e46)" d="M 584.517232 430.923299 
L 657.319106 430.923299 
L 657.319106 417.32514 
L 584.517232 417.32514 
z
" style="fill:#96c69a;fill-opacity:0.5;stroke:#ffffff;stroke-linejoin:miter;stroke-width:1.359816;"/>
   </g>
   <g id="patch_35">
    <path clip-path="url(#pc51c9e9e46)" d="M 584.517232 417.32514 
L 663.819273 417.32514 
L 663.819273 403.726982 
L 584.517232 403.726982 
z
" style="fill:#96c69a;fill-opacity:0.5;stroke:#ffffff;stroke-linejoin:miter;stroke-width:1.359816;"/>
   </g>
   <g id="patch_36">
    <path clip-path="url(#pc51c9e9e46)" d="M 584.517232 403.726982 
L 655.152383 403.726982 
L 655.152383 390.128824 
L 584.517232 390.128824 
z
" style="fill:#96c69a;fill-opacity:0.5;stroke:#ffffff;stroke-linejoin:miter;stroke-width:1.359816;"/>
   </g>
   <g id="patch_37">
    <path clip-path="url(#pc51c9e9e46)" d="M 584.517232 390.128824 
L 652.552316 390.128824 
L 652.552316 376.530666 
L 584.517232 376.530666 
z
" style="fill:#96c69a;fill-opacity:0.5;stroke:#ffffff;stroke-linejoin:miter;stroke-width:1.359816;"/>
   </g>
   <g id="patch_38">
    <path clip-path="url(#pc51c9e9e46)" d="M 584.517232 376.530666 
L 644.752116 376.530666 
L 644.752116 362.932508 
L 584.517232 362.932508 
z
" style="fill:#96c69a;fill-opacity:0.5;stroke:#ffffff;stroke-linejoin:miter;stroke-width:1.359816;"/>
   </g>
   <g id="patch_39">
    <path clip-path="url(#pc51c9e9e46)" d="M 584.517232 362.932508 
L 637.818604 362.932508 
L 637.818604 349.334349 
L 584.517232 349.334349 
z
" style="fill:#96c69a;fill-opacity:0.5;stroke:#ffffff;stroke-linejoin:miter;stroke-width:1.359816;"/>
   </g>
   <g id="patch_40">
    <path clip-path="url(#pc51c9e9e46)" d="M 584.517232 349.334349 
L 630.885092 349.334349 
L 630.885092 335.736191 
L 584.517232 335.736191 
z
" style="fill:#96c69a;fill-opacity:0.5;stroke:#ffffff;stroke-linejoin:miter;stroke-width:1.359816;"/>
   </g>
   <g id="patch_41">
    <path clip-path="url(#pc51c9e9e46)" d="M 584.517232 335.736191 
L 619.184791 335.736191 
L 619.184791 322.138033 
L 584.517232 322.138033 
z
" style="fill:#96c69a;fill-opacity:0.5;stroke:#ffffff;stroke-linejoin:miter;stroke-width:1.359816;"/>
   </g>
   <g id="patch_42">
    <path clip-path="url(#pc51c9e9e46)" d="M 584.517232 322.138033 
L 610.951246 322.138033 
L 610.951246 308.539875 
L 584.517232 308.539875 
z
" style="fill:#96c69a;fill-opacity:0.5;stroke:#ffffff;stroke-linejoin:miter;stroke-width:1.359816;"/>
   </g>
   <g id="patch_43">
    <path clip-path="url(#pc51c9e9e46)" d="M 584.517232 308.539875 
L 607.48449 308.539875 
L 607.48449 294.941717 
L 584.517232 294.941717 
z
" style="fill:#96c69a;fill-opacity:0.5;stroke:#ffffff;stroke-linejoin:miter;stroke-width:1.359816;"/>
   </g>
   <g id="patch_44">
    <path clip-path="url(#pc51c9e9e46)" d="M 584.517232 294.941717 
L 602.717701 294.941717 
L 602.717701 281.343558 
L 584.517232 281.343558 
z
" style="fill:#96c69a;fill-opacity:0.5;stroke:#ffffff;stroke-linejoin:miter;stroke-width:1.359816;"/>
   </g>
   <g id="patch_45">
    <path clip-path="url(#pc51c9e9e46)" d="M 584.517232 281.343558 
L 597.517567 281.343558 
L 597.517567 267.7454 
L 584.517232 267.7454 
z
" style="fill:#96c69a;fill-opacity:0.5;stroke:#ffffff;stroke-linejoin:miter;stroke-width:1.359816;"/>
   </g>
   <g id="patch_46">
    <path clip-path="url(#pc51c9e9e46)" d="M 584.517232 267.7454 
L 596.217533 267.7454 
L 596.217533 254.147242 
L 584.517232 254.147242 
z
" style="fill:#96c69a;fill-opacity:0.5;stroke:#ffffff;stroke-linejoin:miter;stroke-width:1.359816;"/>
   </g>
   <g id="patch_47">
    <path clip-path="url(#pc51c9e9e46)" d="M 584.517232 254.147242 
L 592.750777 254.147242 
L 592.750777 240.549084 
L 584.517232 240.549084 
z
" style="fill:#96c69a;fill-opacity:0.5;stroke:#ffffff;stroke-linejoin:miter;stroke-width:1.359816;"/>
   </g>
   <g id="patch_48">
    <path clip-path="url(#pc51c9e9e46)" d="M 584.517232 240.549084 
L 591.017399 240.549084 
L 591.017399 226.950926 
L 584.517232 226.950926 
z
" style="fill:#96c69a;fill-opacity:0.5;stroke:#ffffff;stroke-linejoin:miter;stroke-width:1.359816;"/>
   </g>
   <g id="patch_49">
    <path clip-path="url(#pc51c9e9e46)" d="M 584.517232 226.950926 
L 587.983988 226.950926 
L 587.983988 213.352767 
L 584.517232 213.352767 
z
" style="fill:#96c69a;fill-opacity:0.5;stroke:#ffffff;stroke-linejoin:miter;stroke-width:1.359816;"/>
   </g>
   <g id="patch_50">
    <path clip-path="url(#pc51c9e9e46)" d="M 584.517232 213.352767 
L 587.983988 213.352767 
L 587.983988 199.754609 
L 584.517232 199.754609 
z
" style="fill:#96c69a;fill-opacity:0.5;stroke:#ffffff;stroke-linejoin:miter;stroke-width:1.359816;"/>
   </g>
   <g id="patch_51">
    <path clip-path="url(#pc51c9e9e46)" d="M 584.517232 199.754609 
L 586.25061 199.754609 
L 586.25061 186.156451 
L 584.517232 186.156451 
z
" style="fill:#96c69a;fill-opacity:0.5;stroke:#ffffff;stroke-linejoin:miter;stroke-width:1.359816;"/>
   </g>
   <g id="patch_52">
    <path clip-path="url(#pc51c9e9e46)" d="M 584.517232 186.156451 
L 584.517232 186.156451 
L 584.517232 172.558293 
L 584.517232 172.558293 
z
" style="fill:#96c69a;fill-opacity:0.5;stroke:#ffffff;stroke-linejoin:miter;stroke-width:1.359816;"/>
   </g>
   <g id="patch_53">
    <path clip-path="url(#pc51c9e9e46)" d="M 584.517232 172.558293 
L 584.950577 172.558293 
L 584.950577 158.960135 
L 584.517232 158.960135 
z
" style="fill:#96c69a;fill-opacity:0.5;stroke:#ffffff;stroke-linejoin:miter;stroke-width:1.359816;"/>
   </g>
   <g id="patch_54">
    <path clip-path="url(#pc51c9e9e46)" d="M 584.517232 158.960135 
L 584.517232 158.960135 
L 584.517232 145.361976 
L 584.517232 145.361976 
z
" style="fill:#96c69a;fill-opacity:0.5;stroke:#ffffff;stroke-linejoin:miter;stroke-width:1.359816;"/>
   </g>
   <g id="patch_55">
    <path clip-path="url(#pc51c9e9e46)" d="M 584.517232 145.361976 
L 585.383921 145.361976 
L 585.383921 131.763818 
L 584.517232 131.763818 
z
" style="fill:#96c69a;fill-opacity:0.5;stroke:#ffffff;stroke-linejoin:miter;stroke-width:1.359816;"/>
   </g>
   <g id="patch_56">
    <path d="M 584.517232 602.94 
L 584.517232 109.326857 
" style="fill:none;stroke:#262626;stroke-linecap:square;stroke-linejoin:miter;stroke-width:2.5;"/>
   </g>
   <g id="patch_57">
    <path d="M 584.517232 602.94 
L 667.784375 602.94 
" style="fill:none;stroke:#262626;stroke-linecap:square;stroke-linejoin:miter;stroke-width:2.5;"/>
   </g>
  </g>
 </g>
 <defs>
  <clipPath id="p3b773d1ea3">
   <rect height="493.613143" width="482.949429" x="84.914375" y="109.326857"/>
  </clipPath>
  <clipPath id="p949430b4f3">
   <rect height="85.105714" width="482.949429" x="84.914375" y="7.2"/>
  </clipPath>
  <clipPath id="pc51c9e9e46">
   <rect height="493.613143" width="83.267143" x="584.517232" y="109.326857"/>
  </clipPath>
 </defs>
</svg>
