<?xml version="1.0" encoding="utf-8" standalone="no"?>
<!DOCTYPE svg PUBLIC "-//W3C//DTD SVG 1.1//EN"
  "http://www.w3.org/Graphics/SVG/1.1/DTD/svg11.dtd">
<svg height="674.159375pt" version="1.1" viewBox="0 0 674.984375 674.159375" width="674.984375pt" xmlns="http://www.w3.org/2000/svg" xmlns:xlink="http://www.w3.org/1999/xlink">
 <metadata>
  <rdf:RDF xmlns:cc="http://creativecommons.org/ns#" xmlns:dc="http://purl.org/dc/elements/1.1/" xmlns:rdf="http://www.w3.org/1999/02/22-rdf-syntax-ns#">
   <cc:Work>
    <dc:type rdf:resource="http://purl.org/dc/dcmitype/StillImage"/>
    <dc:date>2021-07-24T14:58:25.575016</dc:date>
    <dc:format>image/svg+xml</dc:format>
    <dc:creator>
     <cc:Agent>
      <dc:title>Matplotlib v3.4.2, https://matplotlib.org/</dc:title>
     </cc:Agent>
    </dc:creator>
   </cc:Work>
  </rdf:RDF>
 </metadata>
 <defs>
  <style type="text/css">*{stroke-linecap:butt;stroke-linejoin:round;}</style>
 </defs>
 <g id="figure_1">
  <g id="patch_1">
   <path d="M 0 674.159375 
L 674.984375 674.159375 
L 674.984375 0 
L 0 0 
z
" style="fill:#ffffff;"/>
  </g>
  <g id="axes_1">
   <g id="patch_2">
    <path d="M 84.914375 602.94 
L 567.863804 602.94 
L 567.863804 109.326857 
L 84.914375 109.326857 
z
" style="fill:none;"/>
   </g>
   <g id="matplotlib.axis_1">
    <g id="xtick_1">
     <g id="text_1">
      <!-- 0 -->
      <g style="fill:#262626;" transform="translate(99.648239 635.156562)scale(0.22 -0.22)">
       <defs>
        <path d="M 2034 4250 
Q 1547 4250 1301 3770 
Q 1056 3291 1056 2328 
Q 1056 1369 1301 889 
Q 1547 409 2034 409 
Q 2525 409 2770 889 
Q 3016 1369 3016 2328 
Q 3016 3291 2770 3770 
Q 2525 4250 2034 4250 
z
M 2034 4750 
Q 2819 4750 3233 4129 
Q 3647 3509 3647 2328 
Q 3647 1150 3233 529 
Q 2819 -91 2034 -91 
Q 1250 -91 836 529 
Q 422 1150 422 2328 
Q 422 3509 836 4129 
Q 1250 4750 2034 4750 
z
" id="DejaVuSans-30" transform="scale(0.015625)"/>
       </defs>
       <use xlink:href="#DejaVuSans-30"/>
      </g>
     </g>
    </g>
    <g id="xtick_2">
     <g id="text_2">
      <!-- 20000 -->
      <g style="fill:#262626;" transform="translate(159.506153 635.156562)scale(0.22 -0.22)">
       <defs>
        <path d="M 1228 531 
L 3431 531 
L 3431 0 
L 469 0 
L 469 531 
Q 828 903 1448 1529 
Q 2069 2156 2228 2338 
Q 2531 2678 2651 2914 
Q 2772 3150 2772 3378 
Q 2772 3750 2511 3984 
Q 2250 4219 1831 4219 
Q 1534 4219 1204 4116 
Q 875 4013 500 3803 
L 500 4441 
Q 881 4594 1212 4672 
Q 1544 4750 1819 4750 
Q 2544 4750 2975 4387 
Q 3406 4025 3406 3419 
Q 3406 3131 3298 2873 
Q 3191 2616 2906 2266 
Q 2828 2175 2409 1742 
Q 1991 1309 1228 531 
z
" id="DejaVuSans-32" transform="scale(0.015625)"/>
       </defs>
       <use xlink:href="#DejaVuSans-32"/>
       <use x="63.623047" xlink:href="#DejaVuSans-30"/>
       <use x="127.246094" xlink:href="#DejaVuSans-30"/>
       <use x="190.869141" xlink:href="#DejaVuSans-30"/>
       <use x="254.492188" xlink:href="#DejaVuSans-30"/>
      </g>
     </g>
    </g>
    <g id="xtick_3">
     <g id="text_3">
      <!-- 40000 -->
      <g style="fill:#262626;" transform="translate(247.359066 635.156562)scale(0.22 -0.22)">
       <defs>
        <path d="M 2419 4116 
L 825 1625 
L 2419 1625 
L 2419 4116 
z
M 2253 4666 
L 3047 4666 
L 3047 1625 
L 3713 1625 
L 3713 1100 
L 3047 1100 
L 3047 0 
L 2419 0 
L 2419 1100 
L 313 1100 
L 313 1709 
L 2253 4666 
z
" id="DejaVuSans-34" transform="scale(0.015625)"/>
       </defs>
       <use xlink:href="#DejaVuSans-34"/>
       <use x="63.623047" xlink:href="#DejaVuSans-30"/>
       <use x="127.246094" xlink:href="#DejaVuSans-30"/>
       <use x="190.869141" xlink:href="#DejaVuSans-30"/>
       <use x="254.492188" xlink:href="#DejaVuSans-30"/>
      </g>
     </g>
    </g>
    <g id="xtick_4">
     <g id="text_4">
      <!-- 60000 -->
      <g style="fill:#262626;" transform="translate(335.21198 635.156562)scale(0.22 -0.22)">
       <defs>
        <path d="M 2113 2584 
Q 1688 2584 1439 2293 
Q 1191 2003 1191 1497 
Q 1191 994 1439 701 
Q 1688 409 2113 409 
Q 2538 409 2786 701 
Q 3034 994 3034 1497 
Q 3034 2003 2786 2293 
Q 2538 2584 2113 2584 
z
M 3366 4563 
L 3366 3988 
Q 3128 4100 2886 4159 
Q 2644 4219 2406 4219 
Q 1781 4219 1451 3797 
Q 1122 3375 1075 2522 
Q 1259 2794 1537 2939 
Q 1816 3084 2150 3084 
Q 2853 3084 3261 2657 
Q 3669 2231 3669 1497 
Q 3669 778 3244 343 
Q 2819 -91 2113 -91 
Q 1303 -91 875 529 
Q 447 1150 447 2328 
Q 447 3434 972 4092 
Q 1497 4750 2381 4750 
Q 2619 4750 2861 4703 
Q 3103 4656 3366 4563 
z
" id="DejaVuSans-36" transform="scale(0.015625)"/>
       </defs>
       <use xlink:href="#DejaVuSans-36"/>
       <use x="63.623047" xlink:href="#DejaVuSans-30"/>
       <use x="127.246094" xlink:href="#DejaVuSans-30"/>
       <use x="190.869141" xlink:href="#DejaVuSans-30"/>
       <use x="254.492188" xlink:href="#DejaVuSans-30"/>
      </g>
     </g>
    </g>
    <g id="xtick_5">
     <g id="text_5">
      <!-- 80000 -->
      <g style="fill:#262626;" transform="translate(423.064893 635.156562)scale(0.22 -0.22)">
       <defs>
        <path d="M 2034 2216 
Q 1584 2216 1326 1975 
Q 1069 1734 1069 1313 
Q 1069 891 1326 650 
Q 1584 409 2034 409 
Q 2484 409 2743 651 
Q 3003 894 3003 1313 
Q 3003 1734 2745 1975 
Q 2488 2216 2034 2216 
z
M 1403 2484 
Q 997 2584 770 2862 
Q 544 3141 544 3541 
Q 544 4100 942 4425 
Q 1341 4750 2034 4750 
Q 2731 4750 3128 4425 
Q 3525 4100 3525 3541 
Q 3525 3141 3298 2862 
Q 3072 2584 2669 2484 
Q 3125 2378 3379 2068 
Q 3634 1759 3634 1313 
Q 3634 634 3220 271 
Q 2806 -91 2034 -91 
Q 1263 -91 848 271 
Q 434 634 434 1313 
Q 434 1759 690 2068 
Q 947 2378 1403 2484 
z
M 1172 3481 
Q 1172 3119 1398 2916 
Q 1625 2713 2034 2713 
Q 2441 2713 2670 2916 
Q 2900 3119 2900 3481 
Q 2900 3844 2670 4047 
Q 2441 4250 2034 4250 
Q 1625 4250 1398 4047 
Q 1172 3844 1172 3481 
z
" id="DejaVuSans-38" transform="scale(0.015625)"/>
       </defs>
       <use xlink:href="#DejaVuSans-38"/>
       <use x="63.623047" xlink:href="#DejaVuSans-30"/>
       <use x="127.246094" xlink:href="#DejaVuSans-30"/>
       <use x="190.869141" xlink:href="#DejaVuSans-30"/>
       <use x="254.492188" xlink:href="#DejaVuSans-30"/>
      </g>
     </g>
    </g>
    <g id="xtick_6">
     <g id="text_6">
      <!-- 100000 -->
      <g style="fill:#262626;" transform="translate(503.919057 635.156562)scale(0.22 -0.22)">
       <defs>
        <path d="M 794 531 
L 1825 531 
L 1825 4091 
L 703 3866 
L 703 4441 
L 1819 4666 
L 2450 4666 
L 2450 531 
L 3481 531 
L 3481 0 
L 794 0 
L 794 531 
z
" id="DejaVuSans-31" transform="scale(0.015625)"/>
       </defs>
       <use xlink:href="#DejaVuSans-31"/>
       <use x="63.623047" xlink:href="#DejaVuSans-30"/>
       <use x="127.246094" xlink:href="#DejaVuSans-30"/>
       <use x="190.869141" xlink:href="#DejaVuSans-30"/>
       <use x="254.492188" xlink:href="#DejaVuSans-30"/>
       <use x="318.115234" xlink:href="#DejaVuSans-30"/>
      </g>
     </g>
    </g>
    <g id="text_7">
     <!-- MDTU -->
     <g style="fill:#262626;" transform="translate(290.683464 661.968125)scale(0.24 -0.24)">
      <defs>
       <path d="M 628 4666 
L 1569 4666 
L 2759 1491 
L 3956 4666 
L 4897 4666 
L 4897 0 
L 4281 0 
L 4281 4097 
L 3078 897 
L 2444 897 
L 1241 4097 
L 1241 0 
L 628 0 
L 628 4666 
z
" id="DejaVuSans-4d" transform="scale(0.015625)"/>
       <path d="M 1259 4147 
L 1259 519 
L 2022 519 
Q 2988 519 3436 956 
Q 3884 1394 3884 2338 
Q 3884 3275 3436 3711 
Q 2988 4147 2022 4147 
L 1259 4147 
z
M 628 4666 
L 1925 4666 
Q 3281 4666 3915 4102 
Q 4550 3538 4550 2338 
Q 4550 1131 3912 565 
Q 3275 0 1925 0 
L 628 0 
L 628 4666 
z
" id="DejaVuSans-44" transform="scale(0.015625)"/>
       <path d="M -19 4666 
L 3928 4666 
L 3928 4134 
L 2272 4134 
L 2272 0 
L 1638 0 
L 1638 4134 
L -19 4134 
L -19 4666 
z
" id="DejaVuSans-54" transform="scale(0.015625)"/>
       <path d="M 556 4666 
L 1191 4666 
L 1191 1831 
Q 1191 1081 1462 751 
Q 1734 422 2344 422 
Q 2950 422 3222 751 
Q 3494 1081 3494 1831 
L 3494 4666 
L 4128 4666 
L 4128 1753 
Q 4128 841 3676 375 
Q 3225 -91 2344 -91 
Q 1459 -91 1007 375 
Q 556 841 556 1753 
L 556 4666 
z
" id="DejaVuSans-55" transform="scale(0.015625)"/>
      </defs>
      <use xlink:href="#DejaVuSans-4d"/>
      <use x="86.279297" xlink:href="#DejaVuSans-44"/>
      <use x="163.28125" xlink:href="#DejaVuSans-54"/>
      <use x="224.365234" xlink:href="#DejaVuSans-55"/>
     </g>
    </g>
   </g>
   <g id="matplotlib.axis_2">
    <g id="ytick_1">
     <g id="text_8">
      <!-- 0.6 -->
      <g style="fill:#262626;" transform="translate(34.4275 560.211476)scale(0.22 -0.22)">
       <defs>
        <path d="M 684 794 
L 1344 794 
L 1344 0 
L 684 0 
L 684 794 
z
" id="DejaVuSans-2e" transform="scale(0.015625)"/>
       </defs>
       <use xlink:href="#DejaVuSans-30"/>
       <use x="63.623047" xlink:href="#DejaVuSans-2e"/>
       <use x="95.410156" xlink:href="#DejaVuSans-36"/>
      </g>
     </g>
    </g>
    <g id="ytick_2">
     <g id="text_9">
      <!-- 0.8 -->
      <g style="fill:#262626;" transform="translate(34.4275 454.050893)scale(0.22 -0.22)">
       <use xlink:href="#DejaVuSans-30"/>
       <use x="63.623047" xlink:href="#DejaVuSans-2e"/>
       <use x="95.410156" xlink:href="#DejaVuSans-38"/>
      </g>
     </g>
    </g>
    <g id="ytick_3">
     <g id="text_10">
      <!-- 1.0 -->
      <g style="fill:#262626;" transform="translate(34.4275 347.89031)scale(0.22 -0.22)">
       <use xlink:href="#DejaVuSans-31"/>
       <use x="63.623047" xlink:href="#DejaVuSans-2e"/>
       <use x="95.410156" xlink:href="#DejaVuSans-30"/>
      </g>
     </g>
    </g>
    <g id="ytick_4">
     <g id="text_11">
      <!-- 1.2 -->
      <g style="fill:#262626;" transform="translate(34.4275 241.729727)scale(0.22 -0.22)">
       <use xlink:href="#DejaVuSans-31"/>
       <use x="63.623047" xlink:href="#DejaVuSans-2e"/>
       <use x="95.410156" xlink:href="#DejaVuSans-32"/>
      </g>
     </g>
    </g>
    <g id="ytick_5">
     <g id="text_12">
      <!-- 1.4 -->
      <g style="fill:#262626;" transform="translate(34.4275 135.569144)scale(0.22 -0.22)">
       <use xlink:href="#DejaVuSans-31"/>
       <use x="63.623047" xlink:href="#DejaVuSans-2e"/>
       <use x="95.410156" xlink:href="#DejaVuSans-34"/>
      </g>
     </g>
    </g>
    <g id="text_13">
     <!-- $E$ -->
     <g style="fill:#262626;" transform="translate(25.43625 363.813429)rotate(-90)scale(0.24 -0.24)">
      <defs>
       <path d="M 1081 4666 
L 4031 4666 
L 3928 4134 
L 1606 4134 
L 1338 2753 
L 3566 2753 
L 3463 2222 
L 1234 2222 
L 909 531 
L 3284 531 
L 3181 0 
L 172 0 
L 1081 4666 
z
" id="DejaVuSans-Oblique-45" transform="scale(0.015625)"/>
      </defs>
      <use transform="translate(0 0.09375)" xlink:href="#DejaVuSans-Oblique-45"/>
     </g>
    </g>
   </g>
   <g id="line2d_1">
    <path clip-path="url(#p8db142c0b0)" d="M 106.866622 426.006676 
L 107.086254 306.004697 
L 107.305886 437.403847 
L 107.745151 279.512409 
L 107.964783 309.132159 
L 108.184415 407.335623 
L 108.404048 411.247911 
L 108.62368 347.662044 
L 109.062945 464.776223 
L 109.282577 384.742128 
L 109.502209 434.555259 
L 109.721841 310.664885 
L 109.941474 378.94832 
L 110.161106 360.974714 
L 110.380738 429.567678 
L 110.600371 453.680406 
L 110.820003 353.509348 
L 111.259267 462.127014 
L 112.137797 299.122719 
L 112.357429 489.401946 
L 112.796693 287.38051 
L 113.016326 344.60182 
L 113.235958 467.368453 
L 113.45559 411.29041 
L 113.675223 399.1887 
L 113.894855 322.109679 
L 114.114487 320.904003 
L 114.334119 269.353047 
L 114.553752 461.406094 
L 114.993016 386.082859 
L 115.212649 484.092878 
L 115.432281 448.266878 
L 115.651913 394.060735 
L 116.091178 188.766781 
L 116.31081 484.101722 
L 116.530442 333.678292 
L 116.750075 426.170021 
L 116.969707 401.012766 
L 117.189339 424.183183 
L 117.408971 250.430297 
L 117.628604 375.088208 
L 117.848236 319.491345 
L 118.067868 400.527217 
L 118.287501 359.407077 
L 118.507133 457.078089 
L 118.726765 366.180395 
L 118.946397 421.602089 
L 119.16603 404.731115 
L 119.385662 373.660956 
L 119.605294 402.225091 
L 119.824926 390.618415 
L 120.044559 366.333634 
L 120.264191 412.813384 
L 120.483823 359.160894 
L 120.703456 131.763818 
L 120.923088 436.048629 
L 121.14272 427.011879 
L 121.362352 358.759959 
L 121.581985 432.37286 
L 121.801617 328.82235 
L 122.240882 461.421424 
L 122.460514 337.524638 
L 122.680146 386.039496 
L 122.899778 287.902135 
L 123.339043 537.379109 
L 123.558675 300.670407 
L 123.778308 282.205272 
L 124.217572 479.45439 
L 124.437204 369.369377 
L 124.656837 359.88095 
L 124.876469 377.796243 
L 125.096101 418.813352 
L 125.315734 424.329066 
L 125.535366 372.913562 
L 125.754998 371.112091 
L 125.97463 433.184133 
L 126.194263 254.049167 
L 126.413895 323.414502 
L 126.633527 440.791406 
L 126.85316 372.521327 
L 127.072792 386.536672 
L 127.292424 434.86955 
L 127.512056 347.060355 
L 127.731689 317.865393 
L 128.610218 488.192593 
L 128.82985 422.852432 
L 129.269115 380.112957 
L 129.928012 336.283159 
L 130.147644 458.442809 
L 130.586908 273.068837 
L 130.806541 379.877414 
L 131.026173 432.15772 
L 131.245805 398.905149 
L 131.465438 426.597031 
L 131.68507 327.817006 
L 131.904702 461.905966 
L 132.124334 425.563065 
L 132.343967 421.429303 
L 132.563599 318.890285 
L 133.222496 365.817171 
L 133.442128 327.005429 
L 133.66176 355.525304 
L 133.881393 434.510754 
L 134.101025 382.020519 
L 134.320657 357.806352 
L 134.540289 318.817905 
L 134.759922 421.876999 
L 134.979554 383.706684 
L 135.199186 381.263461 
L 135.638451 452.582699 
L 135.858083 424.787769 
L 136.077715 457.158023 
L 136.297348 342.561752 
L 136.736612 481.439028 
L 136.956245 422.455191 
L 137.175877 285.055518 
L 137.395509 293.13165 
L 137.615141 463.68991 
L 137.834774 308.100259 
L 138.054406 418.331229 
L 138.274038 293.890358 
L 138.493671 339.256222 
L 138.713303 445.777342 
L 138.932935 324.576827 
L 139.152567 405.594499 
L 139.591832 291.517344 
L 139.811464 363.591679 
L 140.031097 338.61335 
L 140.470361 468.261072 
L 140.689993 265.231771 
L 140.909626 387.521055 
L 141.129258 383.804737 
L 141.34889 364.708127 
L 141.568523 418.172579 
L 141.788155 291.322666 
L 142.007787 323.746145 
L 142.227419 382.827104 
L 142.447052 400.344161 
L 142.886316 342.524034 
L 143.105949 377.089274 
L 143.325581 381.934684 
L 143.545213 451.750821 
L 143.764845 365.332734 
L 143.984478 352.021915 
L 144.20411 398.544534 
L 144.423742 283.827477 
L 144.643375 363.094894 
L 144.863007 367.100672 
L 145.082639 454.566103 
L 145.302271 477.304756 
L 145.741536 383.73304 
L 145.961168 270.371461 
L 146.180801 395.534842 
L 146.620065 314.680269 
L 147.05933 416.521987 
L 147.278962 327.68492 
L 147.498594 457.122749 
L 147.718227 441.674948 
L 147.937859 450.518469 
L 148.157491 437.977353 
L 148.377123 488.195823 
L 148.596756 338.26 
L 148.816388 455.146936 
L 149.255653 406.918023 
L 149.475285 486.845004 
L 149.694917 526.121352 
L 149.914549 335.464101 
L 150.134182 258.424518 
L 150.353814 397.688269 
L 150.793078 261.250775 
L 151.012711 423.4611 
L 151.232343 360.106137 
L 151.451975 431.081957 
L 151.671608 393.077484 
L 152.110872 254.52161 
L 152.769769 486.347372 
L 152.989401 425.577823 
L 153.209034 417.026729 
L 153.428666 434.991846 
L 153.648298 307.234803 
L 153.86793 346.401229 
L 154.087563 340.809319 
L 154.307195 275.678212 
L 154.526827 415.085487 
L 154.74646 335.858696 
L 154.966092 403.181955 
L 155.185724 335.173876 
L 155.405356 379.244092 
L 155.624989 316.868983 
L 155.844621 362.661223 
L 156.064253 351.559949 
L 156.283886 281.067059 
L 156.503518 448.60042 
L 156.72315 316.079615 
L 157.162415 436.981249 
L 157.382047 473.764831 
L 157.601679 291.369566 
L 157.821312 349.535656 
L 158.040944 352.934427 
L 158.260576 363.235668 
L 158.699841 434.138377 
L 158.919473 323.863526 
L 159.139105 408.300172 
L 159.358738 319.321437 
L 159.57837 354.47426 
L 159.798002 367.491457 
L 160.017634 430.136376 
L 160.237267 457.718546 
L 160.676531 329.135577 
L 160.896164 461.905336 
L 161.335428 370.756129 
L 161.55506 425.558343 
L 161.774693 377.766703 
L 161.994325 471.093457 
L 162.213957 361.380064 
L 162.43359 416.277728 
L 162.653222 352.301051 
L 162.872854 375.486184 
L 163.092486 455.96437 
L 163.312119 438.443174 
L 163.531751 336.652167 
L 163.751383 291.052886 
L 163.971016 292.672097 
L 164.190648 393.024506 
L 164.41028 416.216739 
L 164.629912 396.402393 
L 164.849545 465.209482 
L 165.069177 297.4865 
L 165.288809 394.753015 
L 165.508441 247.492262 
L 165.947706 521.62144 
L 166.167338 218.237044 
L 166.386971 247.205546 
L 166.606603 323.375989 
L 166.826235 299.21678 
L 167.2655 524.752853 
L 167.485132 302.795713 
L 167.704764 331.519963 
L 167.924397 290.866881 
L 168.144029 400.105455 
L 168.363661 424.009395 
L 168.583293 331.267164 
L 168.802926 425.868322 
L 169.022558 426.246183 
L 169.24219 477.519836 
L 169.461823 424.695374 
L 169.681455 446.965151 
L 169.901087 409.635957 
L 170.340352 478.574322 
L 170.559984 331.330822 
L 170.779616 341.496243 
L 170.999249 218.943528 
L 171.218881 272.33122 
L 171.438513 462.468853 
L 171.658145 347.604326 
L 171.877778 475.419245 
L 172.09741 367.09971 
L 172.536675 325.855438 
L 172.756307 375.572423 
L 172.975939 391.749906 
L 173.195571 274.38616 
L 173.415204 437.47803 
L 173.634836 491.198388 
L 173.854468 387.374721 
L 174.074101 469.477903 
L 174.293733 241.157119 
L 174.732997 461.100908 
L 174.95263 495.591007 
L 175.172262 363.913164 
L 175.391894 500.250429 
L 175.611527 379.189394 
L 175.831159 437.582398 
L 176.270423 445.136034 
L 176.490056 231.01554 
L 176.709688 388.207442 
L 176.92932 419.041471 
L 177.148953 276.388405 
L 177.368585 457.598568 
L 177.588217 399.310872 
L 177.807849 418.034281 
L 178.027482 500.195985 
L 178.247114 346.987715 
L 178.466746 294.915835 
L 178.686379 453.881045 
L 178.906011 364.307287 
L 179.125643 425.19007 
L 179.345275 330.140151 
L 179.564908 506.621645 
L 179.78454 362.233568 
L 180.004172 472.932043 
L 180.223805 384.065738 
L 180.443437 364.577548 
L 180.663069 438.594092 
L 181.102334 415.479905 
L 181.321966 417.494283 
L 181.541598 291.122621 
L 181.76123 386.713074 
L 181.980863 323.420959 
L 182.420127 457.196901 
L 182.63976 363.788713 
L 182.859392 371.479394 
L 183.079024 342.419187 
L 183.298656 199.454086 
L 183.737921 476.154757 
L 183.957553 479.752424 
L 184.177186 403.218552 
L 184.396818 373.684692 
L 184.61645 289.827794 
L 184.836082 453.300026 
L 185.055715 329.147551 
L 185.275347 283.829216 
L 185.494979 328.483596 
L 185.714612 316.546517 
L 185.934244 266.864105 
L 186.153876 335.45963 
L 186.373508 447.340172 
L 186.593141 386.319456 
L 186.812773 485.908971 
L 187.032405 363.502626 
L 187.252038 347.576116 
L 187.47167 317.090152 
L 187.691302 458.498636 
L 187.910934 373.871703 
L 188.130567 394.559417 
L 188.350199 343.971663 
L 188.569831 361.662313 
L 188.789464 435.276834 
L 189.009096 419.685921 
L 189.667993 339.906374 
L 189.887625 417.888517 
L 190.32689 471.41508 
L 190.546522 355.046035 
L 190.766154 452.066691 
L 191.205419 343.200981 
L 191.425051 391.177929 
L 191.644683 408.425695 
L 191.864316 264.501402 
L 192.083948 365.703054 
L 192.30358 242.473524 
L 192.523212 407.54731 
L 192.742845 422.041278 
L 193.401742 337.722403 
L 193.621374 405.207215 
L 193.841006 367.647948 
L 194.060638 417.205538 
L 194.280271 402.875993 
L 194.499903 348.10388 
L 194.719535 451.329642 
L 194.939168 360.180403 
L 195.1588 430.750912 
L 195.378432 393.164475 
L 195.598064 301.3557 
L 195.817697 376.327988 
L 196.037329 371.5635 
L 196.256961 487.940869 
L 196.476593 377.590388 
L 196.696226 424.325745 
L 196.915858 350.00949 
L 197.13549 390.455852 
L 197.355123 380.413115 
L 197.574755 311.647542 
L 197.794387 432.020245 
L 198.014019 347.268733 
L 198.233652 474.738916 
L 198.453284 308.10576 
L 198.672916 341.532526 
L 198.892549 392.463077 
L 199.112181 381.402354 
L 199.331813 278.067165 
L 199.551445 419.444343 
L 199.771078 225.436178 
L 199.99071 365.955545 
L 200.210342 308.538272 
L 200.429975 334.078916 
L 200.649607 372.664162 
L 200.869239 349.696611 
L 201.088871 305.425638 
L 201.308504 403.7998 
L 201.528136 389.544891 
L 201.747768 464.230126 
L 201.967401 451.023356 
L 202.187033 333.006803 
L 202.406665 283.562389 
L 202.84593 431.254176 
L 203.065562 341.565216 
L 203.285194 199.428058 
L 203.504827 334.756331 
L 203.724459 273.491079 
L 203.944091 376.726998 
L 204.163723 418.822696 
L 204.602988 396.167069 
L 204.82262 436.409674 
L 205.042253 393.663852 
L 205.261885 425.854804 
L 205.481517 388.312213 
L 205.701149 440.013127 
L 205.920782 291.552641 
L 206.140414 375.066767 
L 206.360046 308.55189 
L 206.579679 436.769627 
L 206.799311 317.836957 
L 207.018943 467.239516 
L 207.238575 427.141135 
L 207.458208 322.477618 
L 208.117105 397.62208 
L 208.336737 295.411027 
L 208.556369 483.812318 
L 208.776001 392.118406 
L 209.215266 351.245849 
L 209.434898 283.606382 
L 209.654531 262.435568 
L 209.874163 439.294 
L 210.093795 464.317467 
L 210.313427 405.568499 
L 210.53306 278.245778 
L 210.752692 290.090611 
L 210.972324 353.40585 
L 211.191956 353.653991 
L 211.411589 362.216482 
L 211.631221 409.948055 
L 211.850853 320.970785 
L 212.070486 332.555924 
L 212.290118 304.835817 
L 212.50975 396.837131 
L 212.729382 354.180315 
L 212.949015 370.87516 
L 213.168647 268.323677 
L 213.388279 251.259464 
L 213.607912 328.731555 
L 213.827544 449.663043 
L 214.047176 342.629666 
L 214.266808 390.19462 
L 214.486441 395.878816 
L 214.706073 412.294911 
L 214.925705 397.362259 
L 215.145338 473.577018 
L 215.36497 432.525328 
L 215.584602 458.409329 
L 216.023867 323.991063 
L 216.243499 410.997653 
L 216.463131 246.741435 
L 216.682764 248.699905 
L 216.902396 463.952487 
L 217.122028 297.808347 
L 217.34166 263.170108 
L 217.780925 367.418762 
L 218.000557 364.465358 
L 218.22019 400.774184 
L 218.439822 401.893376 
L 218.659454 303.399905 
L 218.879086 445.463166 
L 219.098719 345.750523 
L 219.318351 334.292806 
L 219.537983 376.087087 
L 219.757616 312.829547 
L 220.19688 440.388405 
L 220.416512 373.642623 
L 220.636145 350.95376 
L 220.855777 404.639336 
L 221.295042 354.239029 
L 221.734306 492.441216 
L 221.953938 449.185328 
L 222.173571 361.761443 
L 222.393203 352.015518 
L 222.612835 408.051315 
L 222.832468 332.891537 
L 223.0521 399.178025 
L 223.271732 417.133468 
L 223.491364 274.14847 
L 223.930629 359.215595 
L 224.150261 278.266092 
L 224.369894 334.074996 
L 224.589526 311.507777 
L 224.809158 403.123094 
L 225.02879 393.190984 
L 225.248423 375.278767 
L 225.468055 423.955421 
L 225.687687 418.661027 
L 226.126952 322.945166 
L 226.346584 348.122462 
L 226.566216 313.62411 
L 226.785849 391.50257 
L 227.005481 425.733763 
L 227.225113 336.11536 
L 227.444745 511.346408 
L 227.88401 300.449746 
L 228.103642 410.66702 
L 228.323275 239.641458 
L 228.542907 277.85359 
L 228.762539 242.673625 
L 228.982171 396.160946 
L 229.421436 309.888423 
L 229.641068 290.459026 
L 229.860701 293.395183 
L 230.080333 395.46191 
L 230.299965 308.063742 
L 230.73923 486.511576 
L 230.958862 265.119164 
L 231.398127 444.184635 
L 231.617759 381.567859 
L 231.837391 465.748266 
L 232.496288 344.716356 
L 232.71592 367.694943 
L 232.935553 324.903864 
L 233.155185 458.765599 
L 233.374817 407.013954 
L 233.594449 419.579282 
L 233.814082 472.942511 
L 234.253346 285.141833 
L 234.472979 282.551665 
L 234.692611 454.51326 
L 235.131875 162.834638 
L 235.351508 436.908344 
L 235.57114 387.138209 
L 235.790772 366.080789 
L 236.010405 364.211685 
L 236.230037 399.93323 
L 236.449669 406.199552 
L 236.669301 338.625748 
L 236.888934 358.275647 
L 237.108566 407.466511 
L 237.328198 365.707436 
L 237.547831 445.858806 
L 237.767463 229.372608 
L 237.987095 398.796232 
L 238.206727 177.549619 
L 238.42636 360.596137 
L 238.645992 366.112801 
L 238.865624 391.184432 
L 239.085257 343.447672 
L 239.304889 320.471508 
L 239.963786 400.038686 
L 240.183418 284.036109 
L 240.622683 440.424807 
L 240.842315 355.987687 
L 241.061947 359.944709 
L 241.281579 253.318059 
L 241.501212 251.880797 
L 241.720844 420.987567 
L 241.940476 313.382483 
L 242.160108 468.658835 
L 242.379741 299.333858 
L 242.599373 363.759172 
L 242.819005 237.15878 
L 243.25827 459.742702 
L 243.477902 450.38851 
L 243.697534 285.076809 
L 243.917167 288.77385 
L 244.136799 436.93699 
L 244.356431 278.03115 
L 244.576064 483.596368 
L 245.015328 331.694113 
L 245.23496 492.897936 
L 245.674225 347.54463 
L 246.11349 365.145645 
L 246.333122 477.391518 
L 246.552754 356.397373 
L 246.772386 383.567139 
L 246.992019 464.837658 
L 247.211651 447.037742 
L 247.431283 393.924037 
L 247.650916 389.736691 
L 247.870548 305.409679 
L 248.09018 404.559605 
L 248.309812 442.174891 
L 248.529445 443.898774 
L 248.749077 287.78258 
L 248.968709 414.49746 
L 249.188342 272.86303 
L 249.407974 346.184949 
L 249.627606 369.006445 
L 249.847238 283.182755 
L 250.286503 437.805232 
L 250.506135 421.523134 
L 250.725768 287.814907 
L 250.9454 500.372191 
L 251.165032 405.645057 
L 251.604297 529.369375 
L 251.823929 298.296138 
L 252.043561 425.461791 
L 252.263194 302.009345 
L 252.482826 253.38774 
L 252.702458 372.655185 
L 252.92209 373.39782 
L 253.141723 410.851227 
L 253.361355 262.271855 
L 253.580987 291.006613 
L 253.80062 399.356784 
L 254.020252 264.06276 
L 254.239884 335.096978 
L 254.459516 264.284877 
L 254.679149 462.166099 
L 254.898781 336.616941 
L 255.118413 387.30015 
L 255.338046 380.944768 
L 255.557678 358.256823 
L 255.77731 394.091277 
L 255.996942 355.157651 
L 256.216575 346.226424 
L 256.436207 349.707755 
L 256.655839 329.893353 
L 256.875472 253.726407 
L 257.095104 443.043964 
L 257.314736 446.48127 
L 257.534368 372.753674 
L 257.754001 459.36424 
L 257.973633 221.993111 
L 258.193265 286.28947 
L 258.412897 428.377095 
L 258.63253 344.667312 
L 258.852162 348.74362 
L 259.071794 493.786749 
L 259.291427 396.868499 
L 259.511059 405.371025 
L 259.730691 432.927101 
L 259.950323 401.976886 
L 260.169956 393.691938 
L 260.389588 310.153794 
L 260.60922 429.651912 
L 260.828853 341.404932 
L 261.048485 461.453379 
L 261.268117 475.546712 
L 261.487749 368.506065 
L 261.707382 439.192332 
L 261.927014 462.471709 
L 262.146646 368.803913 
L 262.366279 415.78088 
L 262.585911 238.922944 
L 262.805543 453.028352 
L 263.025175 441.84493 
L 263.244808 358.08738 
L 263.46444 414.680544 
L 263.684072 257.397411 
L 263.903705 382.441077 
L 264.123337 322.467199 
L 264.562601 436.593056 
L 264.782234 339.106746 
L 265.001866 347.315244 
L 265.221498 351.122168 
L 265.441131 417.815949 
L 265.660763 416.998272 
L 265.880395 423.777718 
L 266.100027 253.163726 
L 266.31966 284.554318 
L 266.539292 340.090537 
L 266.758924 434.971393 
L 266.978557 315.560931 
L 267.198189 280.524706 
L 267.417821 401.49421 
L 267.637453 420.897861 
L 267.857086 356.013776 
L 268.076718 379.495083 
L 268.29635 356.726182 
L 268.515983 432.25709 
L 268.735615 401.871258 
L 269.174879 450.103458 
L 269.394512 329.650888 
L 269.614144 428.121124 
L 269.833776 352.211682 
L 270.053409 335.828349 
L 270.492673 437.286944 
L 270.712305 446.393131 
L 270.931938 481.613001 
L 271.15157 253.216851 
L 271.371202 402.35746 
L 271.590835 302.712519 
L 272.030099 510.422272 
L 272.908628 261.472608 
L 273.12826 534.597586 
L 273.567525 242.415408 
L 273.787157 373.279588 
L 274.00679 337.807819 
L 274.226422 332.935608 
L 274.446054 348.344662 
L 274.665686 322.707264 
L 274.885319 266.806439 
L 275.104951 473.882508 
L 275.324583 488.345329 
L 275.544216 462.641017 
L 275.763848 499.288312 
L 275.98348 296.335741 
L 276.203112 480.405907 
L 276.422745 417.633611 
L 276.642377 270.349041 
L 276.862009 515.661645 
L 277.081642 413.900665 
L 277.301274 372.850295 
L 277.520906 384.488737 
L 277.740538 459.80864 
L 277.960171 288.929957 
L 278.179803 382.276552 
L 278.399435 389.676016 
L 278.619068 319.619581 
L 278.8387 393.233714 
L 279.058332 426.464671 
L 279.277964 418.421587 
L 279.497597 442.397316 
L 279.717229 450.621049 
L 279.936861 479.638369 
L 280.156494 371.721839 
L 280.376126 440.394341 
L 280.595758 450.298532 
L 280.81539 383.624153 
L 281.035023 441.764741 
L 281.254655 190.380456 
L 281.474287 319.817265 
L 281.69392 341.473165 
L 281.913552 393.588874 
L 282.133184 405.886442 
L 282.352816 377.573152 
L 282.572449 382.92086 
L 282.792081 391.831211 
L 283.011713 442.989431 
L 283.231346 411.057177 
L 283.67061 447.939898 
L 283.890242 454.831943 
L 284.109875 389.118849 
L 284.329507 486.92408 
L 284.549139 388.575044 
L 284.768772 418.959369 
L 284.988404 373.122697 
L 285.208036 451.873202 
L 285.427668 340.089572 
L 285.647301 433.110127 
L 285.866933 437.214971 
L 286.086565 417.92773 
L 286.306198 366.708087 
L 286.745462 465.548236 
L 286.965094 284.508813 
L 287.184727 392.08727 
L 287.404359 279.811569 
L 287.623991 479.838654 
L 287.843624 290.490822 
L 288.063256 492.647781 
L 288.282888 379.983262 
L 288.50252 469.827385 
L 288.722153 327.343679 
L 288.941785 432.187109 
L 289.161417 304.384964 
L 289.381049 345.138308 
L 289.600682 420.627562 
L 289.820314 335.280471 
L 290.039946 308.822093 
L 290.259579 482.784699 
L 290.479211 451.420749 
L 290.698843 313.923282 
L 290.918475 329.525451 
L 291.138108 291.057785 
L 291.35774 452.48566 
L 291.577372 422.852512 
L 291.797005 312.198967 
L 292.016637 401.269886 
L 292.236269 374.808022 
L 292.455901 300.66408 
L 292.675534 432.838611 
L 292.895166 447.186406 
L 293.114798 364.992467 
L 293.334431 344.61915 
L 293.554063 435.306552 
L 293.773695 426.743432 
L 293.993327 362.735831 
L 294.21296 434.55898 
L 294.652224 387.529697 
L 294.871857 365.098585 
L 295.091489 444.271244 
L 295.311121 345.03035 
L 295.530753 427.77692 
L 295.750386 422.009533 
L 295.970018 337.357981 
L 296.18965 361.95149 
L 296.409283 296.885474 
L 296.628915 413.326553 
L 296.848547 159.313311 
L 297.068179 464.753285 
L 297.287812 312.429009 
L 297.507444 307.277116 
L 297.727076 423.751646 
L 297.946709 403.463499 
L 298.166341 418.582639 
L 298.385973 389.475984 
L 298.605605 442.850457 
L 298.825238 362.31228 
L 299.04487 357.454243 
L 299.264502 333.411885 
L 299.484135 280.864614 
L 299.923399 413.055261 
L 300.143031 282.383911 
L 300.362664 443.752859 
L 300.582296 334.50791 
L 300.801928 432.612627 
L 301.021561 374.171108 
L 301.241193 456.442647 
L 301.680457 412.660704 
L 301.90009 417.983633 
L 302.119722 303.99884 
L 302.339354 373.788245 
L 302.558987 518.283712 
L 302.778619 397.172493 
L 302.998251 394.984312 
L 303.217883 333.921951 
L 303.437516 393.73432 
L 303.657148 219.252002 
L 303.87678 262.435765 
L 304.096412 399.307549 
L 304.316045 443.338954 
L 304.535677 360.317767 
L 304.755309 491.885696 
L 304.974942 390.249044 
L 305.194574 463.106034 
L 305.414206 310.104572 
L 305.633838 352.935018 
L 305.853471 481.44704 
L 306.073103 334.912557 
L 306.292735 398.284083 
L 306.951632 314.202508 
L 307.171264 349.422314 
L 307.390897 331.095111 
L 307.610529 455.214442 
L 307.830161 514.047166 
L 308.049794 347.960823 
L 308.489058 490.514444 
L 308.928323 298.902608 
L 309.147955 348.976405 
L 309.367587 439.011343 
L 309.806852 341.433077 
L 310.026484 420.911804 
L 310.246116 283.317845 
L 310.465749 447.357604 
L 310.685381 295.047822 
L 310.905013 334.705149 
L 311.124646 479.080201 
L 311.344278 321.279001 
L 311.56391 386.435886 
L 311.783542 385.527737 
L 312.003175 276.302272 
L 312.222807 380.517714 
L 312.442439 418.347885 
L 312.662072 289.285818 
L 312.881704 358.460086 
L 313.101336 265.045465 
L 313.320968 398.279204 
L 313.540601 364.098124 
L 313.760233 450.271381 
L 313.979865 347.905612 
L 314.199498 348.276348 
L 314.41913 462.354677 
L 314.638762 331.115877 
L 314.858394 299.048797 
L 315.078027 352.915016 
L 315.297659 370.865605 
L 315.517291 326.568891 
L 315.736924 478.325545 
L 315.956556 425.289472 
L 316.176188 430.680289 
L 316.39582 458.80699 
L 316.615453 366.929798 
L 316.835085 444.764114 
L 317.054717 416.352182 
L 317.27435 403.430985 
L 317.493982 460.220347 
L 317.933246 364.251093 
L 318.152879 343.702465 
L 318.372511 285.721537 
L 318.592143 443.106382 
L 318.811775 382.607731 
L 319.25104 436.8987 
L 319.470672 514.988551 
L 319.690305 374.99718 
L 319.909937 430.637736 
L 320.349201 322.875284 
L 320.568834 310.187787 
L 320.788466 418.433307 
L 321.447363 463.601219 
L 321.666995 346.918038 
L 321.886627 371.7924 
L 322.10626 370.552523 
L 322.545524 426.992362 
L 322.984789 204.692871 
L 323.204421 295.781633 
L 323.424053 320.212332 
L 323.643686 267.510913 
L 323.863318 395.608588 
L 324.08295 342.453824 
L 324.302583 479.803471 
L 324.522215 368.757906 
L 324.741847 384.117589 
L 324.961479 440.171133 
L 325.181112 358.694333 
L 325.400744 210.174408 
L 325.620376 365.26615 
L 325.840009 326.545909 
L 326.059641 359.5976 
L 326.279273 446.582661 
L 326.498905 273.109301 
L 326.718538 401.545357 
L 326.93817 395.355232 
L 327.157802 225.669268 
L 327.377435 355.67452 
L 327.597067 413.886898 
L 327.816699 435.157503 
L 328.255964 369.725714 
L 328.475596 400.242467 
L 328.695228 341.830696 
L 328.914861 510.894004 
L 329.134493 280.987473 
L 329.354125 388.813158 
L 329.573757 430.312211 
L 329.79339 423.797663 
L 330.013022 383.358856 
L 330.232654 407.550057 
L 330.452287 414.5685 
L 330.671919 376.8495 
L 330.891551 278.115549 
L 331.111183 410.995491 
L 331.330816 374.952128 
L 331.550448 264.136248 
L 332.428977 434.066533 
L 332.648609 277.966382 
L 332.868242 320.498321 
L 333.087874 318.581377 
L 333.307506 402.18425 
L 333.527139 379.013737 
L 333.746771 272.199564 
L 333.966403 373.887702 
L 334.186035 352.311712 
L 334.405668 398.421126 
L 334.6253 270.507889 
L 334.844932 316.562943 
L 335.064564 315.049952 
L 335.284197 279.093132 
L 335.503829 421.249537 
L 335.723461 458.908775 
L 335.943094 360.929284 
L 336.162726 382.726143 
L 336.382358 342.218457 
L 336.60199 179.214441 
L 336.821623 425.754927 
L 337.041255 499.35456 
L 337.48052 375.985948 
L 337.700152 383.827037 
L 337.919784 406.37111 
L 338.139416 239.567915 
L 338.359049 449.724581 
L 338.798313 322.874124 
L 339.017946 505.515563 
L 339.237578 387.848628 
L 339.45721 379.236375 
L 339.676842 389.177526 
L 339.896475 390.121782 
L 340.116107 435.851231 
L 340.335739 337.363175 
L 340.555372 455.067766 
L 340.775004 422.943914 
L 340.994636 445.708581 
L 341.214268 381.621814 
L 341.653533 328.162482 
L 341.873165 381.77222 
L 342.092798 291.549768 
L 342.31243 510.607086 
L 342.532062 373.892854 
L 342.751694 366.296519 
L 342.971327 272.665997 
L 343.190959 277.956051 
L 343.410591 212.779238 
L 343.630224 446.38041 
L 343.849856 364.457289 
L 344.069488 439.305076 
L 344.28912 408.766268 
L 344.508753 406.561844 
L 344.728385 312.328972 
L 344.948017 427.773081 
L 345.16765 295.952063 
L 345.387282 428.424339 
L 345.606914 436.281615 
L 345.826546 489.79207 
L 346.265811 370.872917 
L 346.485443 462.064484 
L 346.924708 221.489744 
L 347.363972 387.216913 
L 347.583605 444.50631 
L 347.803237 282.475688 
L 348.022869 325.261629 
L 348.242502 405.421705 
L 348.462134 259.093499 
L 348.681766 326.721219 
L 348.901398 284.465073 
L 349.121031 424.936025 
L 349.340663 374.010136 
L 349.560295 354.245748 
L 349.779927 423.71905 
L 349.99956 359.969469 
L 350.219192 356.128598 
L 350.438824 443.476305 
L 350.658457 394.59185 
L 350.878089 461.518428 
L 351.097721 305.287826 
L 351.317353 382.136928 
L 351.536986 360.170671 
L 351.756618 386.57576 
L 351.97625 304.899398 
L 352.195883 434.018464 
L 352.415515 326.902826 
L 352.635147 349.063899 
L 352.854779 309.854728 
L 353.074412 374.752168 
L 353.294044 390.177562 
L 353.513676 386.693835 
L 353.733309 355.415727 
L 353.952941 357.925485 
L 354.172573 458.470394 
L 354.392205 376.379264 
L 354.83147 399.614745 
L 355.051102 305.899125 
L 355.270735 397.489216 
L 355.490367 366.690803 
L 355.709999 379.788242 
L 355.929631 341.441205 
L 356.149264 397.047023 
L 356.368896 333.029558 
L 356.588528 476.333026 
L 356.808161 385.153173 
L 357.027793 384.90227 
L 357.247425 374.921599 
L 357.467057 357.661777 
L 357.906322 457.786375 
L 358.125954 423.076901 
L 358.345587 438.464917 
L 358.565219 519.515106 
L 358.784851 342.810356 
L 359.004483 391.412646 
L 359.224116 372.674287 
L 359.443748 299.91841 
L 359.66338 407.814715 
L 360.102645 334.145525 
L 360.322277 445.551572 
L 360.541909 305.013499 
L 360.761542 445.634223 
L 360.981174 341.814013 
L 361.200806 373.317801 
L 361.420439 345.983936 
L 361.640071 371.714888 
L 361.859703 363.583109 
L 362.079335 474.148146 
L 362.298968 436.850174 
L 362.5186 447.619055 
L 362.738232 474.4981 
L 363.177497 364.115635 
L 363.616761 427.551705 
L 363.836394 422.826852 
L 364.056026 302.64889 
L 364.275658 476.675743 
L 364.495291 297.955386 
L 364.714923 233.699923 
L 364.934555 470.924702 
L 365.154187 413.300781 
L 365.37382 425.15901 
L 365.813084 408.807651 
L 366.032716 310.541431 
L 366.252349 361.141198 
L 366.471981 349.34627 
L 366.691613 364.210385 
L 366.911246 339.848256 
L 367.130878 464.126812 
L 367.35051 414.817477 
L 367.570142 307.718015 
L 367.789775 498.468458 
L 368.009407 273.11581 
L 368.229039 363.80969 
L 368.448672 398.307343 
L 368.668304 467.011565 
L 368.887936 471.840576 
L 369.107568 404.565891 
L 369.327201 296.247295 
L 369.546833 396.41927 
L 369.986098 471.802561 
L 370.20573 327.512787 
L 370.425362 354.539366 
L 370.644994 335.083781 
L 370.864627 301.509068 
L 371.084259 401.653888 
L 371.303891 314.976741 
L 371.523524 474.087065 
L 371.962788 420.181144 
L 372.18242 344.120389 
L 372.402053 412.627119 
L 372.621685 275.235263 
L 372.841317 368.712101 
L 373.06095 314.736395 
L 373.280582 310.184518 
L 373.500214 369.762827 
L 373.719846 388.552433 
L 373.939479 443.429571 
L 374.159111 388.300274 
L 374.378743 371.458327 
L 374.598376 365.555581 
L 374.818008 531.191299 
L 375.03764 412.0432 
L 375.257272 385.155705 
L 375.476905 314.828153 
L 376.575066 428.230991 
L 376.794698 486.476972 
L 377.014331 408.109269 
L 377.233963 463.108446 
L 377.453595 348.064726 
L 377.673228 316.105283 
L 378.112492 435.513938 
L 378.332124 487.651255 
L 378.551757 390.934607 
L 378.771389 515.221778 
L 379.210654 282.984583 
L 379.430286 437.946597 
L 379.649918 460.091761 
L 380.089183 368.557437 
L 380.308815 368.023558 
L 380.528447 283.524116 
L 380.748079 332.011373 
L 380.967712 498.033089 
L 381.187344 340.496366 
L 381.406976 401.541693 
L 381.846241 352.307515 
L 382.065873 252.078689 
L 382.285505 445.224252 
L 382.505138 428.003689 
L 382.72477 389.219042 
L 382.944402 385.08999 
L 383.164035 449.262478 
L 383.383667 354.82446 
L 383.603299 333.631661 
L 383.822931 342.755538 
L 384.042564 493.627017 
L 384.262196 358.575061 
L 384.481828 470.466092 
L 384.701461 262.378139 
L 384.921093 456.51517 
L 385.140725 394.051223 
L 385.360357 380.977428 
L 385.57999 310.084419 
L 385.799622 450.692771 
L 386.019254 264.270791 
L 386.678151 345.538627 
L 386.897783 308.853466 
L 387.337048 390.501594 
L 387.55668 336.210931 
L 387.776313 361.766078 
L 387.995945 434.496472 
L 388.215577 415.893139 
L 388.435209 232.469612 
L 388.654842 402.528361 
L 388.874474 365.857671 
L 389.094106 433.173396 
L 389.313739 439.677208 
L 389.533371 358.073488 
L 389.753003 430.564595 
L 390.192268 317.888883 
L 390.4119 356.477039 
L 390.631532 340.440959 
L 390.851165 390.592667 
L 391.070797 309.129031 
L 391.290429 496.751796 
L 391.729694 416.594579 
L 391.949326 441.515699 
L 392.168958 419.68026 
L 392.388591 249.015016 
L 392.608223 391.28992 
L 392.827855 422.813471 
L 393.047487 415.544056 
L 393.26712 417.441506 
L 393.486752 328.755121 
L 393.706384 303.119086 
L 393.926017 385.466274 
L 394.145649 344.984228 
L 394.365281 279.027721 
L 394.584913 275.565617 
L 394.804546 357.582951 
L 395.024178 378.942142 
L 395.24381 477.833263 
L 395.463443 263.598057 
L 395.683075 459.839546 
L 395.902707 313.60931 
L 396.122339 444.495658 
L 396.341972 420.474654 
L 396.561604 279.601597 
L 396.781236 367.291684 
L 397.000868 296.015528 
L 397.220501 321.91052 
L 397.440133 442.81991 
L 397.659765 414.486768 
L 397.879398 320.938339 
L 398.09903 335.959703 
L 398.318662 250.716132 
L 398.538294 376.719876 
L 398.757927 299.524841 
L 398.977559 344.11663 
L 399.197191 360.06601 
L 399.416824 341.561889 
L 399.636456 411.597468 
L 399.856088 359.406018 
L 400.07572 481.228026 
L 400.514985 223.685653 
L 400.734617 471.667134 
L 401.173882 270.522569 
L 401.393514 425.477242 
L 401.613146 325.240706 
L 401.832779 370.115843 
L 402.052411 339.423378 
L 402.272043 384.00749 
L 402.491676 388.351979 
L 402.711308 377.580179 
L 402.93094 343.891734 
L 403.370205 415.902419 
L 403.589837 399.120335 
L 403.809469 277.222593 
L 404.029102 424.114858 
L 404.248734 364.728886 
L 404.468366 368.395558 
L 404.687998 467.486713 
L 404.907631 449.156252 
L 405.127263 385.485068 
L 405.566528 341.419079 
L 405.78616 265.647547 
L 406.005792 393.938871 
L 406.225424 406.267512 
L 406.445057 349.737915 
L 406.664689 366.033386 
L 406.884321 392.738013 
L 407.103954 448.39045 
L 407.323586 532.318564 
L 407.543218 390.707719 
L 407.76285 357.012983 
L 408.202115 445.412779 
L 408.421747 286.992347 
L 408.64138 375.994934 
L 408.861012 326.949562 
L 409.080644 458.228662 
L 409.300276 343.656726 
L 409.519909 311.985754 
L 409.739541 397.84934 
L 409.959173 377.555536 
L 410.178806 382.68557 
L 410.398438 348.70464 
L 410.837702 392.595624 
L 411.057335 402.330977 
L 411.276967 352.341272 
L 411.496599 376.023678 
L 411.716231 375.012309 
L 411.935864 363.783656 
L 412.155496 288.958857 
L 412.375128 373.065324 
L 412.594761 405.376866 
L 412.814393 387.890227 
L 413.034025 406.191459 
L 413.253657 484.074998 
L 413.692922 378.816467 
L 413.912554 429.303691 
L 414.132187 420.568609 
L 414.351819 479.149423 
L 414.571451 467.069877 
L 414.791083 369.144117 
L 415.230348 493.425101 
L 415.44998 372.228081 
L 415.669613 387.076112 
L 416.108877 343.688126 
L 416.328509 405.976643 
L 416.548142 391.138018 
L 416.767774 477.776623 
L 416.987406 422.354857 
L 417.207039 299.159481 
L 417.426671 340.270664 
L 417.646303 306.114155 
L 417.865935 391.554084 
L 418.085568 382.110668 
L 418.3052 473.943694 
L 418.524832 444.081091 
L 418.964097 328.007909 
L 419.183729 502.651019 
L 419.403361 402.831372 
L 419.622994 406.603956 
L 419.842626 502.692682 
L 420.062258 546.586755 
L 420.281891 369.642468 
L 420.501523 363.773936 
L 421.380052 459.090745 
L 421.599684 332.747459 
L 421.819317 344.163136 
L 422.038949 450.41209 
L 422.258581 438.0487 
L 422.478213 339.996119 
L 422.917478 494.157334 
L 423.13711 436.904997 
L 423.356743 347.357448 
L 423.576375 455.147721 
L 423.796007 333.737554 
L 424.015639 370.200576 
L 424.235272 345.104468 
L 424.454904 425.672024 
L 424.674536 395.627014 
L 424.894169 338.690137 
L 425.113801 394.075749 
L 425.333433 530.434818 
L 425.553065 295.773089 
L 425.772698 439.437672 
L 425.99233 311.678334 
L 426.211962 465.891073 
L 426.431594 408.00815 
L 426.651227 417.782139 
L 426.870859 393.292685 
L 427.090491 321.818993 
L 427.310124 312.771961 
L 427.529756 289.879608 
L 427.749388 446.194717 
L 427.96902 338.342958 
L 428.188653 361.625297 
L 428.408285 303.618756 
L 428.627917 347.023718 
L 428.84755 449.979142 
L 429.067182 424.422697 
L 429.286814 373.422362 
L 429.506446 430.286529 
L 429.726079 291.669201 
L 429.945711 334.083089 
L 430.165343 429.896167 
L 430.604608 320.692963 
L 430.82424 442.571819 
L 431.263505 206.955839 
L 431.702769 424.502571 
L 431.922402 390.704851 
L 432.361666 290.285752 
L 432.581298 479.034212 
L 433.020563 277.256939 
L 433.240195 343.45864 
L 433.459828 341.314575 
L 433.67946 421.271687 
L 433.899092 365.433544 
L 434.118724 359.552129 
L 434.338357 429.054389 
L 434.557989 408.102752 
L 434.777621 492.448974 
L 434.997254 308.655579 
L 435.216886 419.117418 
L 435.436518 296.711691 
L 435.65615 436.291027 
L 435.875783 407.247708 
L 436.095415 347.020776 
L 436.315047 360.01972 
L 436.53468 472.872924 
L 436.754312 317.039642 
L 436.973944 394.638829 
L 437.193576 388.62916 
L 437.413209 359.938076 
L 437.632841 368.30733 
L 437.852473 457.780489 
L 438.291738 490.190357 
L 438.51137 382.285524 
L 438.731002 400.450758 
L 438.950635 434.780397 
L 439.170267 377.422115 
L 439.389899 385.706124 
L 439.609532 440.589912 
L 440.048796 329.739568 
L 440.488061 472.955605 
L 440.707693 187.723751 
L 440.927325 186.860138 
L 441.586222 427.835161 
L 441.805854 383.296052 
L 442.025487 370.367444 
L 442.245119 431.173779 
L 442.464751 287.825997 
L 442.684383 414.718138 
L 442.904016 347.169226 
L 443.123648 371.647869 
L 443.34328 428.587833 
L 443.562913 314.964229 
L 443.782545 298.613831 
L 444.002177 436.348242 
L 444.441442 297.300215 
L 444.661074 552.319135 
L 445.100339 309.265553 
L 445.319971 410.210112 
L 445.539603 425.651103 
L 445.759235 378.57391 
L 445.978868 432.968375 
L 446.1985 382.941812 
L 446.418132 365.601286 
L 446.637765 402.423835 
L 446.857397 383.034295 
L 447.077029 343.229474 
L 447.296661 360.44556 
L 447.516294 353.869092 
L 447.735926 381.712978 
L 447.955558 464.116884 
L 448.394823 310.84482 
L 448.614455 346.604412 
L 448.834087 470.139035 
L 449.05372 355.147253 
L 449.273352 379.228412 
L 449.492984 325.681268 
L 449.712617 343.257149 
L 449.932249 384.538272 
L 450.151881 347.901427 
L 450.591146 455.551919 
L 450.810778 580.503039 
L 451.03041 330.920838 
L 451.250043 374.526798 
L 451.469675 467.602875 
L 451.689307 325.881936 
L 451.908939 387.32151 
L 452.128572 354.983255 
L 452.348204 369.007226 
L 452.567836 366.335758 
L 452.787469 279.194507 
L 453.007101 488.898845 
L 453.226733 481.657417 
L 453.446365 309.179736 
L 453.88563 432.53736 
L 454.324895 374.077733 
L 454.544527 406.968036 
L 454.764159 344.44572 
L 454.983791 433.245796 
L 455.203424 298.114108 
L 455.423056 427.102764 
L 455.642688 446.927748 
L 455.862321 392.656125 
L 456.081953 449.168363 
L 456.301585 440.966918 
L 456.521217 264.77098 
L 456.960482 410.664047 
L 457.180114 403.50625 
L 457.399746 511.067267 
L 457.839011 356.412827 
L 458.058643 372.85067 
L 458.497908 280.740815 
L 458.71754 428.368186 
L 458.937172 301.821285 
L 459.156805 292.547146 
L 459.376437 437.915517 
L 459.596069 454.331952 
L 459.815702 392.230519 
L 460.035334 298.087043 
L 460.254966 363.194381 
L 460.474598 322.012237 
L 460.694231 240.911848 
L 460.913863 414.634518 
L 461.133495 336.668465 
L 461.353128 453.95931 
L 461.792392 333.780038 
L 462.012024 376.192826 
L 462.231657 365.550936 
L 462.451289 421.005374 
L 462.670921 414.524421 
L 462.890554 276.91758 
L 463.110186 370.540231 
L 463.329818 350.949865 
L 463.54945 379.850289 
L 463.769083 389.903204 
L 463.988715 394.857351 
L 464.208347 369.023894 
L 464.42798 497.263869 
L 464.647612 349.022082 
L 464.867244 500.133152 
L 465.086876 220.475326 
L 465.306509 471.913914 
L 465.526141 277.59893 
L 465.745773 453.401818 
L 465.965406 374.334388 
L 466.185038 357.244847 
L 466.40467 371.305209 
L 466.624302 408.474421 
L 466.843935 357.76718 
L 467.283199 434.913354 
L 467.502832 440.69978 
L 467.722464 467.282099 
L 467.942096 346.463865 
L 468.161728 375.548743 
L 468.381361 448.024127 
L 468.600993 417.261582 
L 468.820625 357.251847 
L 469.040258 419.147928 
L 469.25989 348.321638 
L 469.479522 313.375476 
L 469.699154 296.646693 
L 470.138419 465.189714 
L 470.577684 329.446642 
L 470.797316 331.923693 
L 471.016948 454.665063 
L 471.23658 431.302329 
L 471.675845 252.28179 
L 471.895477 428.316388 
L 472.11511 370.64913 
L 472.334742 432.516618 
L 472.554374 366.724655 
L 472.774006 482.139687 
L 473.213271 209.302964 
L 473.432903 440.689548 
L 473.652535 367.2376 
L 474.0918 490.943302 
L 474.311432 344.917115 
L 474.531065 498.550886 
L 474.970329 416.516644 
L 475.409594 391.74931 
L 475.629226 414.418953 
L 475.848858 501.035201 
L 476.068491 385.636266 
L 476.288123 415.426968 
L 476.507755 388.863824 
L 476.727387 329.162643 
L 476.94702 449.921167 
L 477.166652 337.832978 
L 477.386284 447.628309 
L 477.605917 409.561307 
L 477.825549 489.508521 
L 478.045181 279.550034 
L 478.264813 433.881501 
L 478.484446 198.705062 
L 478.704078 398.749035 
L 478.92371 328.617622 
L 479.143343 457.32534 
L 479.362975 502.458186 
L 479.582607 421.491659 
L 479.802239 283.755042 
L 480.021872 425.270523 
L 480.900401 282.056089 
L 481.120033 373.656687 
L 481.339665 388.065215 
L 481.559298 373.917611 
L 481.77893 470.379709 
L 481.998562 303.584601 
L 482.218195 391.092628 
L 482.437827 365.188274 
L 482.657459 440.049736 
L 482.877091 332.134991 
L 483.096724 495.955298 
L 483.535988 360.405152 
L 483.755621 463.810767 
L 483.975253 496.31381 
L 484.194885 417.235168 
L 484.414517 444.459812 
L 484.63415 392.137269 
L 484.853782 435.358095 
L 485.073414 411.953897 
L 485.293047 304.167228 
L 485.512679 334.284325 
L 485.732311 424.030735 
L 486.171576 268.977989 
L 486.391208 392.734941 
L 486.61084 389.91958 
L 486.830473 481.67986 
L 487.050105 497.434582 
L 487.269737 367.799377 
L 487.489369 374.3933 
L 487.928634 454.04263 
L 488.367898 375.776666 
L 488.587531 293.564296 
L 488.807163 495.692606 
L 489.026795 309.696643 
L 489.246428 302.899361 
L 489.46606 361.574838 
L 489.685692 340.587724 
L 489.905324 478.662353 
L 490.124957 426.719319 
L 490.344589 457.238398 
L 490.564221 418.999551 
L 490.783854 261.27589 
L 491.003486 399.527522 
L 491.44275 376.700327 
L 491.662383 296.701769 
L 491.882015 395.584367 
L 492.101647 340.272902 
L 492.32128 194.854073 
L 492.760544 383.064369 
L 492.980176 315.128987 
L 493.199809 371.633208 
L 493.419441 342.905845 
L 493.639073 341.459225 
L 493.858706 235.811577 
L 494.078338 459.582798 
L 494.29797 383.149363 
L 494.517602 355.96688 
L 494.737235 369.393416 
L 494.956867 425.779191 
L 495.176499 306.86357 
L 495.396132 394.084139 
L 495.615764 260.102695 
L 495.835396 476.889765 
L 496.055028 373.149171 
L 496.274661 478.395768 
L 496.494293 438.755031 
L 496.713925 331.586702 
L 496.933558 341.982381 
L 497.15319 425.862334 
L 497.372822 467.169273 
L 497.592454 256.084928 
L 498.031719 404.197514 
L 498.251351 319.781492 
L 498.470984 371.862052 
L 498.690616 250.179884 
L 498.910248 353.969337 
L 499.12988 367.212753 
L 499.349513 268.155598 
L 499.569145 377.829672 
L 500.00841 194.982412 
L 500.228042 389.633824 
L 500.447674 265.708702 
L 500.667306 426.493045 
L 500.886939 364.664563 
L 501.106571 214.102321 
L 501.545836 268.753788 
L 501.9851 447.907861 
L 502.204732 355.263842 
L 502.424365 358.818852 
L 502.643997 340.975451 
L 502.863629 380.862681 
L 503.083262 492.336354 
L 503.302894 358.500694 
L 503.522526 361.889025 
L 503.742158 435.889238 
L 503.961791 296.837304 
L 504.181423 394.894991 
L 504.401055 312.274795 
L 504.620687 315.07427 
L 504.84032 215.072389 
L 505.059952 352.324415 
L 505.279584 369.554957 
L 505.499217 229.497865 
L 505.718849 348.048154 
L 505.938481 377.411877 
L 506.158113 495.752535 
L 506.597378 521.284204 
L 506.81701 267.342319 
L 507.036643 453.270694 
L 507.256275 348.002243 
L 507.475907 493.552539 
L 507.695539 476.785286 
L 507.915172 502.057384 
L 508.134804 365.015822 
L 508.354436 313.751261 
L 508.574069 368.204656 
L 508.793701 359.557067 
L 509.013333 478.877764 
L 509.232965 453.613103 
L 509.452598 325.949401 
L 509.67223 383.418821 
L 509.891862 371.551738 
L 510.111495 390.580053 
L 510.331127 320.579225 
L 510.550759 444.073034 
L 510.770391 357.447536 
L 510.990024 452.726249 
L 511.209656 440.919272 
L 511.429288 335.795714 
L 511.648921 398.902869 
L 511.868553 196.24215 
L 512.307817 431.576986 
L 512.52745 492.113057 
L 512.966714 345.503329 
L 513.186347 485.044141 
L 513.405979 352.749947 
L 513.625611 488.026441 
L 513.845243 404.644807 
L 514.064876 417.666908 
L 514.284508 304.882237 
L 514.50414 294.160134 
L 514.723773 331.037164 
L 514.943405 472.731278 
L 515.163037 362.175915 
L 515.382669 540.244509 
L 515.602302 383.443017 
L 515.821934 330.03259 
L 516.041566 421.273268 
L 516.261199 463.933436 
L 516.480831 282.147616 
L 516.700463 420.6238 
L 516.920095 342.218077 
L 517.578992 385.151795 
L 517.798625 391.897758 
L 518.018257 391.201964 
L 518.237889 410.563177 
L 518.457521 268.787456 
L 518.896786 426.345164 
L 519.33605 235.11059 
L 519.555683 502.567779 
L 519.775315 369.405371 
L 519.994947 312.258271 
L 520.21458 495.74285 
L 520.653844 392.284593 
L 520.873476 506.209071 
L 521.093109 363.238979 
L 521.312741 466.758796 
L 521.532373 440.635088 
L 521.752006 383.986179 
L 521.971638 425.693194 
L 522.19127 298.534433 
L 522.410902 435.602891 
L 522.850167 276.524572 
L 523.069799 455.178864 
L 523.289432 413.314818 
L 523.509064 325.044563 
L 523.728696 342.045352 
L 523.948328 497.423261 
L 524.167961 392.434331 
L 524.387593 415.337923 
L 524.607225 290.344799 
L 524.826858 313.442459 
L 525.04649 353.164025 
L 525.485754 312.912506 
L 525.925019 461.933029 
L 526.144651 456.988304 
L 526.583916 436.451142 
L 526.803548 387.001621 
L 527.02318 397.889015 
L 527.242813 457.27342 
L 527.462445 435.396606 
L 527.682077 380.430116 
L 527.90171 398.899501 
L 528.121342 353.428262 
L 528.340974 232.123278 
L 528.560606 333.385808 
L 528.780239 293.697712 
L 528.999871 455.374605 
L 529.219503 450.546224 
L 529.439136 430.654612 
L 529.658768 383.51676 
L 529.8784 378.940276 
L 530.098032 408.542771 
L 530.317665 303.906942 
L 530.537297 395.221401 
L 530.756929 275.197575 
L 530.976562 418.278638 
L 531.196194 351.857961 
L 531.415826 379.84499 
L 531.855091 466.674391 
L 532.074723 446.877657 
L 532.294355 405.974384 
L 532.513988 485.958498 
L 532.73362 355.022849 
L 532.953252 471.717908 
L 533.172884 381.646442 
L 533.392517 185.994176 
L 533.612149 339.858011 
L 533.831781 385.45482 
L 534.051413 390.008545 
L 534.271046 319.669559 
L 534.490678 381.699984 
L 534.71031 382.331582 
L 534.929943 387.790663 
L 535.149575 431.609906 
L 535.369207 320.941409 
L 535.808472 419.568706 
L 536.028104 428.832534 
L 536.247736 399.904517 
L 536.467369 445.492341 
L 536.687001 383.020745 
L 536.906633 416.576727 
L 537.126265 210.710839 
L 537.345898 352.544928 
L 537.56553 227.464915 
L 537.785162 353.973242 
L 538.004795 339.354861 
L 538.444059 461.240605 
L 538.883324 372.330708 
L 539.322588 392.144017 
L 539.542221 299.458665 
L 539.761853 402.478255 
L 539.981485 393.923109 
L 540.201117 448.81453 
L 540.42075 244.300397 
L 540.640382 551.028327 
L 541.299279 312.082188 
L 541.518911 486.798873 
L 541.738543 424.480523 
L 541.958176 416.000002 
L 542.177808 312.806729 
L 542.39744 289.849815 
L 542.617073 447.170738 
L 543.056337 238.985035 
L 543.275969 385.297027 
L 543.715234 511.7079 
L 544.154499 324.84719 
L 544.374131 315.979533 
L 544.593763 383.98582 
L 545.033028 307.139865 
L 545.25266 427.071371 
L 545.691925 349.778858 
L 545.911557 342.680627 
L 545.911557 342.680627 
" style="fill:none;stroke:#96c69a;stroke-linecap:round;stroke-width:3;"/>
   </g>
   <g id="line2d_2"/>
   <g id="patch_3">
    <path d="M 84.914375 602.94 
L 84.914375 109.326857 
" style="fill:none;stroke:#262626;stroke-linecap:square;stroke-linejoin:miter;stroke-width:2.5;"/>
   </g>
   <g id="patch_4">
    <path d="M 84.914375 602.94 
L 567.863804 602.94 
" style="fill:none;stroke:#262626;stroke-linecap:square;stroke-linejoin:miter;stroke-width:2.5;"/>
   </g>
   <g id="legend_1">
    <g id="patch_5">
     <path d="M 514.948179 597.94 
L 560.863804 597.94 
Q 562.863804 597.94 562.863804 595.94 
L 562.863804 554.034375 
Q 562.863804 552.034375 560.863804 552.034375 
L 514.948179 552.034375 
Q 512.948179 552.034375 512.948179 554.034375 
L 512.948179 595.94 
Q 512.948179 597.94 514.948179 597.94 
z
" style="fill:#ffffff;opacity:0.8;stroke:#cccccc;stroke-linejoin:miter;stroke-width:2;"/>
    </g>
    <g id="text_14">
     <!-- $n_\tau$ -->
     <g style="fill:#262626;" transform="translate(524.825991 574.270625)scale(0.24 -0.24)">
      <defs>
       <path d="M 3566 2113 
L 3156 0 
L 2578 0 
L 2988 2091 
Q 3016 2238 3031 2350 
Q 3047 2463 3047 2528 
Q 3047 2791 2881 2937 
Q 2716 3084 2419 3084 
Q 1956 3084 1622 2776 
Q 1288 2469 1184 1941 
L 800 0 
L 225 0 
L 903 3500 
L 1478 3500 
L 1363 2950 
Q 1603 3253 1940 3418 
Q 2278 3584 2650 3584 
Q 3113 3584 3367 3334 
Q 3622 3084 3622 2631 
Q 3622 2519 3608 2391 
Q 3594 2263 3566 2113 
z
" id="DejaVuSans-Oblique-6e" transform="scale(0.015625)"/>
       <path d="M 2103 638 
Q 2188 488 2525 488 
L 2800 488 
L 2706 0 
L 2363 0 
Q 1800 0 1600 300 
Q 1403 606 1534 1269 
L 1856 2925 
L 541 2925 
L 653 3500 
L 3881 3500 
L 3769 2925 
L 2444 2925 
L 2113 1234 
Q 2025 781 2103 638 
z
" id="DejaVuSans-Oblique-3c4" transform="scale(0.015625)"/>
      </defs>
      <use xlink:href="#DejaVuSans-Oblique-6e"/>
      <use transform="translate(63.378906 -16.40625)scale(0.7)" xlink:href="#DejaVuSans-Oblique-3c4"/>
     </g>
    </g>
    <g id="line2d_3">
     <path d="M 516.948179 588.360312 
L 536.948179 588.360312 
" style="fill:none;stroke:#96c69a;stroke-linecap:round;stroke-width:3;"/>
    </g>
    <g id="line2d_4"/>
    <g id="text_15">
     <!-- 40 -->
     <g style="fill:#262626;" transform="translate(544.948179 591.860312)scale(0.1 -0.1)">
      <defs>
       <path d="M 2356 3675 
L 1038 1722 
L 2356 1722 
L 2356 3675 
z
M 2156 4666 
L 3494 4666 
L 3494 1722 
L 4159 1722 
L 4159 850 
L 3494 850 
L 3494 0 
L 2356 0 
L 2356 850 
L 288 850 
L 288 1881 
L 2156 4666 
z
" id="DejaVuSans-Bold-34" transform="scale(0.015625)"/>
       <path d="M 2944 2338 
Q 2944 3213 2780 3570 
Q 2616 3928 2228 3928 
Q 1841 3928 1675 3570 
Q 1509 3213 1509 2338 
Q 1509 1453 1675 1090 
Q 1841 728 2228 728 
Q 2613 728 2778 1090 
Q 2944 1453 2944 2338 
z
M 4147 2328 
Q 4147 1169 3647 539 
Q 3147 -91 2228 -91 
Q 1306 -91 806 539 
Q 306 1169 306 2328 
Q 306 3491 806 4120 
Q 1306 4750 2228 4750 
Q 3147 4750 3647 4120 
Q 4147 3491 4147 2328 
z
" id="DejaVuSans-Bold-30" transform="scale(0.015625)"/>
      </defs>
      <use xlink:href="#DejaVuSans-Bold-34"/>
      <use x="69.580078" xlink:href="#DejaVuSans-Bold-30"/>
     </g>
    </g>
   </g>
  </g>
  <g id="axes_2">
   <g id="patch_6">
    <path d="M 84.914375 92.305714 
L 567.863804 92.305714 
L 567.863804 7.2 
L 84.914375 7.2 
z
" style="fill:none;"/>
   </g>
   <g id="matplotlib.axis_3">
    <g id="xtick_7"/>
    <g id="xtick_8"/>
    <g id="xtick_9"/>
    <g id="xtick_10"/>
    <g id="xtick_11"/>
    <g id="xtick_12"/>
   </g>
   <g id="matplotlib.axis_4">
    <g id="ytick_6">
     <g id="text_16">
      <!-- 0 -->
      <g style="fill:#262626;" transform="translate(55.416875 100.663996)scale(0.22 -0.22)">
       <use xlink:href="#DejaVuSans-30"/>
      </g>
     </g>
    </g>
    <g id="ytick_7">
     <g id="text_17">
      <!-- 100 -->
      <g style="fill:#262626;" transform="translate(27.421875 48.032138)scale(0.22 -0.22)">
       <use xlink:href="#DejaVuSans-31"/>
       <use x="63.623047" xlink:href="#DejaVuSans-30"/>
       <use x="127.246094" xlink:href="#DejaVuSans-30"/>
      </g>
     </g>
    </g>
   </g>
   <g id="patch_7">
    <path clip-path="url(#pfb27928990)" d="M 106.866622 92.305714 
L 140.639309 92.305714 
L 140.639309 11.252653 
L 106.866622 11.252653 
z
" style="fill:#96c69a;fill-opacity:0.5;stroke:#ffffff;stroke-linejoin:miter;stroke-width:2;"/>
   </g>
   <g id="patch_8">
    <path clip-path="url(#pfb27928990)" d="M 140.639309 92.305714 
L 174.411996 92.305714 
L 174.411996 11.252653 
L 140.639309 11.252653 
z
" style="fill:#96c69a;fill-opacity:0.5;stroke:#ffffff;stroke-linejoin:miter;stroke-width:2;"/>
   </g>
   <g id="patch_9">
    <path clip-path="url(#pfb27928990)" d="M 174.411996 92.305714 
L 208.184684 92.305714 
L 208.184684 11.252653 
L 174.411996 11.252653 
z
" style="fill:#96c69a;fill-opacity:0.5;stroke:#ffffff;stroke-linejoin:miter;stroke-width:2;"/>
   </g>
   <g id="patch_10">
    <path clip-path="url(#pfb27928990)" d="M 208.184684 92.305714 
L 241.957371 92.305714 
L 241.957371 11.252653 
L 208.184684 11.252653 
z
" style="fill:#96c69a;fill-opacity:0.5;stroke:#ffffff;stroke-linejoin:miter;stroke-width:2;"/>
   </g>
   <g id="patch_11">
    <path clip-path="url(#pfb27928990)" d="M 241.957371 92.305714 
L 275.730058 92.305714 
L 275.730058 11.778972 
L 241.957371 11.778972 
z
" style="fill:#96c69a;fill-opacity:0.5;stroke:#ffffff;stroke-linejoin:miter;stroke-width:2;"/>
   </g>
   <g id="patch_12">
    <path clip-path="url(#pfb27928990)" d="M 275.730058 92.305714 
L 309.502746 92.305714 
L 309.502746 11.252653 
L 275.730058 11.252653 
z
" style="fill:#96c69a;fill-opacity:0.5;stroke:#ffffff;stroke-linejoin:miter;stroke-width:2;"/>
   </g>
   <g id="patch_13">
    <path clip-path="url(#pfb27928990)" d="M 309.502746 92.305714 
L 343.275433 92.305714 
L 343.275433 11.252653 
L 309.502746 11.252653 
z
" style="fill:#96c69a;fill-opacity:0.5;stroke:#ffffff;stroke-linejoin:miter;stroke-width:2;"/>
   </g>
   <g id="patch_14">
    <path clip-path="url(#pfb27928990)" d="M 343.275433 92.305714 
L 377.04812 92.305714 
L 377.04812 11.252653 
L 343.275433 11.252653 
z
" style="fill:#96c69a;fill-opacity:0.5;stroke:#ffffff;stroke-linejoin:miter;stroke-width:2;"/>
   </g>
   <g id="patch_15">
    <path clip-path="url(#pfb27928990)" d="M 377.04812 92.305714 
L 410.820808 92.305714 
L 410.820808 11.778972 
L 377.04812 11.778972 
z
" style="fill:#96c69a;fill-opacity:0.5;stroke:#ffffff;stroke-linejoin:miter;stroke-width:2;"/>
   </g>
   <g id="patch_16">
    <path clip-path="url(#pfb27928990)" d="M 410.820808 92.305714 
L 444.593495 92.305714 
L 444.593495 11.252653 
L 410.820808 11.252653 
z
" style="fill:#96c69a;fill-opacity:0.5;stroke:#ffffff;stroke-linejoin:miter;stroke-width:2;"/>
   </g>
   <g id="patch_17">
    <path clip-path="url(#pfb27928990)" d="M 444.593495 92.305714 
L 478.366182 92.305714 
L 478.366182 11.252653 
L 444.593495 11.252653 
z
" style="fill:#96c69a;fill-opacity:0.5;stroke:#ffffff;stroke-linejoin:miter;stroke-width:2;"/>
   </g>
   <g id="patch_18">
    <path clip-path="url(#pfb27928990)" d="M 478.366182 92.305714 
L 512.13887 92.305714 
L 512.13887 11.252653 
L 478.366182 11.252653 
z
" style="fill:#96c69a;fill-opacity:0.5;stroke:#ffffff;stroke-linejoin:miter;stroke-width:2;"/>
   </g>
   <g id="patch_19">
    <path clip-path="url(#pfb27928990)" d="M 512.13887 92.305714 
L 545.911557 92.305714 
L 545.911557 11.252653 
L 512.13887 11.252653 
z
" style="fill:#96c69a;fill-opacity:0.5;stroke:#ffffff;stroke-linejoin:miter;stroke-width:2;"/>
   </g>
   <g id="patch_20">
    <path d="M 84.914375 92.305714 
L 84.914375 7.2 
" style="fill:none;stroke:#262626;stroke-linecap:square;stroke-linejoin:miter;stroke-width:2.5;"/>
   </g>
   <g id="patch_21">
    <path d="M 84.914375 92.305714 
L 567.863804 92.305714 
" style="fill:none;stroke:#262626;stroke-linecap:square;stroke-linejoin:miter;stroke-width:2.5;"/>
   </g>
  </g>
  <g id="axes_3">
   <g id="patch_22">
    <path d="M 584.517232 602.94 
L 667.784375 602.94 
L 667.784375 109.326857 
L 584.517232 109.326857 
z
" style="fill:none;"/>
   </g>
   <g id="matplotlib.axis_5">
    <g id="xtick_13">
     <g id="text_18">
      <!-- 0 -->
      <g style="fill:#262626;" transform="translate(577.518482 635.156562)scale(0.22 -0.22)">
       <use xlink:href="#DejaVuSans-30"/>
      </g>
     </g>
    </g>
    <g id="xtick_14">
     <g id="text_19">
      <!-- 100 -->
      <g style="fill:#262626;" transform="translate(607.334264 635.156562)scale(0.22 -0.22)">
       <use xlink:href="#DejaVuSans-31"/>
       <use x="63.623047" xlink:href="#DejaVuSans-30"/>
       <use x="127.246094" xlink:href="#DejaVuSans-30"/>
      </g>
     </g>
    </g>
   </g>
   <g id="matplotlib.axis_6">
    <g id="ytick_8"/>
    <g id="ytick_9"/>
    <g id="ytick_10"/>
    <g id="ytick_11"/>
    <g id="ytick_12"/>
   </g>
   <g id="patch_23">
    <path clip-path="url(#p76c6a7da9a)" d="M 584.517232 580.503039 
L 584.955365 580.503039 
L 584.955365 566.479938 
L 584.517232 566.479938 
z
" style="fill:#96c69a;fill-opacity:0.5;stroke:#ffffff;stroke-linejoin:miter;stroke-width:1.40231;"/>
   </g>
   <g id="patch_24">
    <path clip-path="url(#p76c6a7da9a)" d="M 584.517232 566.479938 
L 584.517232 566.479938 
L 584.517232 552.456838 
L 584.517232 552.456838 
z
" style="fill:#96c69a;fill-opacity:0.5;stroke:#ffffff;stroke-linejoin:miter;stroke-width:1.40231;"/>
   </g>
   <g id="patch_25">
    <path clip-path="url(#p76c6a7da9a)" d="M 584.517232 552.456838 
L 586.269763 552.456838 
L 586.269763 538.433737 
L 584.517232 538.433737 
z
" style="fill:#96c69a;fill-opacity:0.5;stroke:#ffffff;stroke-linejoin:miter;stroke-width:1.40231;"/>
   </g>
   <g id="patch_26">
    <path clip-path="url(#p76c6a7da9a)" d="M 584.517232 538.433737 
L 588.022295 538.433737 
L 588.022295 524.410636 
L 584.517232 524.410636 
z
" style="fill:#96c69a;fill-opacity:0.5;stroke:#ffffff;stroke-linejoin:miter;stroke-width:1.40231;"/>
   </g>
   <g id="patch_27">
    <path clip-path="url(#p76c6a7da9a)" d="M 584.517232 524.410636 
L 590.651092 524.410636 
L 590.651092 510.387536 
L 584.517232 510.387536 
z
" style="fill:#96c69a;fill-opacity:0.5;stroke:#ffffff;stroke-linejoin:miter;stroke-width:1.40231;"/>
   </g>
   <g id="patch_28">
    <path clip-path="url(#p76c6a7da9a)" d="M 584.517232 510.387536 
L 594.594287 510.387536 
L 594.594287 496.364435 
L 584.517232 496.364435 
z
" style="fill:#96c69a;fill-opacity:0.5;stroke:#ffffff;stroke-linejoin:miter;stroke-width:1.40231;"/>
   </g>
   <g id="patch_29">
    <path clip-path="url(#p76c6a7da9a)" d="M 584.517232 496.364435 
L 605.109475 496.364435 
L 605.109475 482.341334 
L 584.517232 482.341334 
z
" style="fill:#96c69a;fill-opacity:0.5;stroke:#ffffff;stroke-linejoin:miter;stroke-width:1.40231;"/>
   </g>
   <g id="patch_30">
    <path clip-path="url(#p76c6a7da9a)" d="M 584.517232 482.341334 
L 611.681467 482.341334 
L 611.681467 468.318234 
L 584.517232 468.318234 
z
" style="fill:#96c69a;fill-opacity:0.5;stroke:#ffffff;stroke-linejoin:miter;stroke-width:1.40231;"/>
   </g>
   <g id="patch_31">
    <path clip-path="url(#p76c6a7da9a)" d="M 584.517232 468.318234 
L 624.825452 468.318234 
L 624.825452 454.295133 
L 584.517232 454.295133 
z
" style="fill:#96c69a;fill-opacity:0.5;stroke:#ffffff;stroke-linejoin:miter;stroke-width:1.40231;"/>
   </g>
   <g id="patch_32">
    <path clip-path="url(#p76c6a7da9a)" d="M 584.517232 454.295133 
L 634.902507 454.295133 
L 634.902507 440.272032 
L 584.517232 440.272032 
z
" style="fill:#96c69a;fill-opacity:0.5;stroke:#ffffff;stroke-linejoin:miter;stroke-width:1.40231;"/>
   </g>
   <g id="patch_33">
    <path clip-path="url(#p76c6a7da9a)" d="M 584.517232 440.272032 
L 641.474499 440.272032 
L 641.474499 426.248932 
L 584.517232 426.248932 
z
" style="fill:#96c69a;fill-opacity:0.5;stroke:#ffffff;stroke-linejoin:miter;stroke-width:1.40231;"/>
   </g>
   <g id="patch_34">
    <path clip-path="url(#p76c6a7da9a)" d="M 584.517232 426.248932 
L 655.056617 426.248932 
L 655.056617 412.225831 
L 584.517232 412.225831 
z
" style="fill:#96c69a;fill-opacity:0.5;stroke:#ffffff;stroke-linejoin:miter;stroke-width:1.40231;"/>
   </g>
   <g id="patch_35">
    <path clip-path="url(#p76c6a7da9a)" d="M 584.517232 412.225831 
L 642.350765 412.225831 
L 642.350765 398.202731 
L 584.517232 398.202731 
z
" style="fill:#96c69a;fill-opacity:0.5;stroke:#ffffff;stroke-linejoin:miter;stroke-width:1.40231;"/>
   </g>
   <g id="patch_36">
    <path clip-path="url(#p76c6a7da9a)" d="M 584.517232 398.202731 
L 659.876078 398.202731 
L 659.876078 384.17963 
L 584.517232 384.17963 
z
" style="fill:#96c69a;fill-opacity:0.5;stroke:#ffffff;stroke-linejoin:miter;stroke-width:1.40231;"/>
   </g>
   <g id="patch_37">
    <path clip-path="url(#p76c6a7da9a)" d="M 584.517232 384.17963 
L 663.819273 384.17963 
L 663.819273 370.156529 
L 584.517232 370.156529 
z
" style="fill:#96c69a;fill-opacity:0.5;stroke:#ffffff;stroke-linejoin:miter;stroke-width:1.40231;"/>
   </g>
   <g id="patch_38">
    <path clip-path="url(#p76c6a7da9a)" d="M 584.517232 370.156529 
L 657.685413 370.156529 
L 657.685413 356.133429 
L 584.517232 356.133429 
z
" style="fill:#96c69a;fill-opacity:0.5;stroke:#ffffff;stroke-linejoin:miter;stroke-width:1.40231;"/>
   </g>
   <g id="patch_39">
    <path clip-path="url(#p76c6a7da9a)" d="M 584.517232 356.133429 
L 647.608359 356.133429 
L 647.608359 342.110328 
L 584.517232 342.110328 
z
" style="fill:#96c69a;fill-opacity:0.5;stroke:#ffffff;stroke-linejoin:miter;stroke-width:1.40231;"/>
   </g>
   <g id="patch_40">
    <path clip-path="url(#p76c6a7da9a)" d="M 584.517232 342.110328 
L 638.407569 342.110328 
L 638.407569 328.087227 
L 584.517232 328.087227 
z
" style="fill:#96c69a;fill-opacity:0.5;stroke:#ffffff;stroke-linejoin:miter;stroke-width:1.40231;"/>
   </g>
   <g id="patch_41">
    <path clip-path="url(#p76c6a7da9a)" d="M 584.517232 328.087227 
L 623.07292 328.087227 
L 623.07292 314.064127 
L 584.517232 314.064127 
z
" style="fill:#96c69a;fill-opacity:0.5;stroke:#ffffff;stroke-linejoin:miter;stroke-width:1.40231;"/>
   </g>
   <g id="patch_42">
    <path clip-path="url(#p76c6a7da9a)" d="M 584.517232 314.064127 
L 622.196655 314.064127 
L 622.196655 300.041026 
L 584.517232 300.041026 
z
" style="fill:#96c69a;fill-opacity:0.5;stroke:#ffffff;stroke-linejoin:miter;stroke-width:1.40231;"/>
   </g>
   <g id="patch_43">
    <path clip-path="url(#p76c6a7da9a)" d="M 584.517232 300.041026 
L 616.062795 300.041026 
L 616.062795 286.017925 
L 584.517232 286.017925 
z
" style="fill:#96c69a;fill-opacity:0.5;stroke:#ffffff;stroke-linejoin:miter;stroke-width:1.40231;"/>
   </g>
   <g id="patch_44">
    <path clip-path="url(#p76c6a7da9a)" d="M 584.517232 286.017925 
L 612.995866 286.017925 
L 612.995866 271.994825 
L 584.517232 271.994825 
z
" style="fill:#96c69a;fill-opacity:0.5;stroke:#ffffff;stroke-linejoin:miter;stroke-width:1.40231;"/>
   </g>
   <g id="patch_45">
    <path clip-path="url(#p76c6a7da9a)" d="M 584.517232 271.994825 
L 600.728147 271.994825 
L 600.728147 257.971724 
L 584.517232 257.971724 
z
" style="fill:#96c69a;fill-opacity:0.5;stroke:#ffffff;stroke-linejoin:miter;stroke-width:1.40231;"/>
   </g>
   <g id="patch_46">
    <path clip-path="url(#p76c6a7da9a)" d="M 584.517232 257.971724 
L 594.594287 257.971724 
L 594.594287 243.948623 
L 584.517232 243.948623 
z
" style="fill:#96c69a;fill-opacity:0.5;stroke:#ffffff;stroke-linejoin:miter;stroke-width:1.40231;"/>
   </g>
   <g id="patch_47">
    <path clip-path="url(#p76c6a7da9a)" d="M 584.517232 243.948623 
L 591.96549 243.948623 
L 591.96549 229.925523 
L 584.517232 229.925523 
z
" style="fill:#96c69a;fill-opacity:0.5;stroke:#ffffff;stroke-linejoin:miter;stroke-width:1.40231;"/>
   </g>
   <g id="patch_48">
    <path clip-path="url(#p76c6a7da9a)" d="M 584.517232 229.925523 
L 589.774826 229.925523 
L 589.774826 215.902422 
L 584.517232 215.902422 
z
" style="fill:#96c69a;fill-opacity:0.5;stroke:#ffffff;stroke-linejoin:miter;stroke-width:1.40231;"/>
   </g>
   <g id="patch_49">
    <path clip-path="url(#p76c6a7da9a)" d="M 584.517232 215.902422 
L 588.022295 215.902422 
L 588.022295 201.879321 
L 584.517232 201.879321 
z
" style="fill:#96c69a;fill-opacity:0.5;stroke:#ffffff;stroke-linejoin:miter;stroke-width:1.40231;"/>
   </g>
   <g id="patch_50">
    <path clip-path="url(#p76c6a7da9a)" d="M 584.517232 201.879321 
L 588.022295 201.879321 
L 588.022295 187.856221 
L 584.517232 187.856221 
z
" style="fill:#96c69a;fill-opacity:0.5;stroke:#ffffff;stroke-linejoin:miter;stroke-width:1.40231;"/>
   </g>
   <g id="patch_51">
    <path clip-path="url(#p76c6a7da9a)" d="M 584.517232 187.856221 
L 586.707896 187.856221 
L 586.707896 173.83312 
L 584.517232 173.83312 
z
" style="fill:#96c69a;fill-opacity:0.5;stroke:#ffffff;stroke-linejoin:miter;stroke-width:1.40231;"/>
   </g>
   <g id="patch_52">
    <path clip-path="url(#p76c6a7da9a)" d="M 584.517232 173.83312 
L 584.955365 173.83312 
L 584.955365 159.810019 
L 584.517232 159.810019 
z
" style="fill:#96c69a;fill-opacity:0.5;stroke:#ffffff;stroke-linejoin:miter;stroke-width:1.40231;"/>
   </g>
   <g id="patch_53">
    <path clip-path="url(#p76c6a7da9a)" d="M 584.517232 159.810019 
L 584.955365 159.810019 
L 584.955365 145.786919 
L 584.517232 145.786919 
z
" style="fill:#96c69a;fill-opacity:0.5;stroke:#ffffff;stroke-linejoin:miter;stroke-width:1.40231;"/>
   </g>
   <g id="patch_54">
    <path clip-path="url(#p76c6a7da9a)" d="M 584.517232 145.786919 
L 584.955365 145.786919 
L 584.955365 131.763818 
L 584.517232 131.763818 
z
" style="fill:#96c69a;fill-opacity:0.5;stroke:#ffffff;stroke-linejoin:miter;stroke-width:1.40231;"/>
   </g>
   <g id="patch_55">
    <path d="M 584.517232 602.94 
L 584.517232 109.326857 
" style="fill:none;stroke:#262626;stroke-linecap:square;stroke-linejoin:miter;stroke-width:2.5;"/>
   </g>
   <g id="patch_56">
    <path d="M 584.517232 602.94 
L 667.784375 602.94 
" style="fill:none;stroke:#262626;stroke-linecap:square;stroke-linejoin:miter;stroke-width:2.5;"/>
   </g>
  </g>
 </g>
 <defs>
  <clipPath id="p8db142c0b0">
   <rect height="493.613143" width="482.949429" x="84.914375" y="109.326857"/>
  </clipPath>
  <clipPath id="pfb27928990">
   <rect height="85.105714" width="482.949429" x="84.914375" y="7.2"/>
  </clipPath>
  <clipPath id="p76c6a7da9a">
   <rect height="493.613143" width="83.267143" x="584.517232" y="109.326857"/>
  </clipPath>
 </defs>
</svg>
