<?xml version="1.0" encoding="utf-8" standalone="no"?>
<!DOCTYPE svg PUBLIC "-//W3C//DTD SVG 1.1//EN"
  "http://www.w3.org/Graphics/SVG/1.1/DTD/svg11.dtd">
<svg height="675.079375pt" version="1.1" viewBox="0 0 674.774375 675.079375" width="674.774375pt" xmlns="http://www.w3.org/2000/svg" xmlns:xlink="http://www.w3.org/1999/xlink">
 <metadata>
  <rdf:RDF xmlns:cc="http://creativecommons.org/ns#" xmlns:dc="http://purl.org/dc/elements/1.1/" xmlns:rdf="http://www.w3.org/1999/02/22-rdf-syntax-ns#">
   <cc:Work>
    <dc:type rdf:resource="http://purl.org/dc/dcmitype/StillImage"/>
    <dc:date>2021-07-16T22:22:34.788456</dc:date>
    <dc:format>image/svg+xml</dc:format>
    <dc:creator>
     <cc:Agent>
      <dc:title>Matplotlib v3.4.2, https://matplotlib.org/</dc:title>
     </cc:Agent>
    </dc:creator>
   </cc:Work>
  </rdf:RDF>
 </metadata>
 <defs>
  <style type="text/css">*{stroke-linecap:butt;stroke-linejoin:round;}</style>
 </defs>
 <g id="figure_1">
  <g id="patch_1">
   <path d="M 0 675.079375 
L 674.774375 675.079375 
L 674.774375 0 
L 0 0 
z
" style="fill:#ffffff;"/>
  </g>
  <g id="axes_1">
   <g id="patch_2">
    <path d="M 84.914375 603.86 
L 567.689804 603.86 
L 567.689804 109.484571 
L 84.914375 109.484571 
z
" style="fill:none;"/>
   </g>
   <g id="matplotlib.axis_1">
    <g id="xtick_1">
     <g id="text_1">
      <!-- 0 -->
      <g style="fill:#262626;" transform="translate(99.64041 636.076563)scale(0.22 -0.22)">
       <defs>
        <path d="M 2034 4250 
Q 1547 4250 1301 3770 
Q 1056 3291 1056 2328 
Q 1056 1369 1301 889 
Q 1547 409 2034 409 
Q 2525 409 2770 889 
Q 3016 1369 3016 2328 
Q 3016 3291 2770 3770 
Q 2525 4250 2034 4250 
z
M 2034 4750 
Q 2819 4750 3233 4129 
Q 3647 3509 3647 2328 
Q 3647 1150 3233 529 
Q 2819 -91 2034 -91 
Q 1250 -91 836 529 
Q 422 1150 422 2328 
Q 422 3509 836 4129 
Q 1250 4750 2034 4750 
z
" id="DejaVuSans-30" transform="scale(0.015625)"/>
       </defs>
       <use xlink:href="#DejaVuSans-30"/>
      </g>
     </g>
    </g>
    <g id="xtick_2">
     <g id="text_2">
      <!-- 20000 -->
      <g style="fill:#262626;" transform="translate(159.466671 636.076563)scale(0.22 -0.22)">
       <defs>
        <path d="M 1228 531 
L 3431 531 
L 3431 0 
L 469 0 
L 469 531 
Q 828 903 1448 1529 
Q 2069 2156 2228 2338 
Q 2531 2678 2651 2914 
Q 2772 3150 2772 3378 
Q 2772 3750 2511 3984 
Q 2250 4219 1831 4219 
Q 1534 4219 1204 4116 
Q 875 4013 500 3803 
L 500 4441 
Q 881 4594 1212 4672 
Q 1544 4750 1819 4750 
Q 2544 4750 2975 4387 
Q 3406 4025 3406 3419 
Q 3406 3131 3298 2873 
Q 3191 2616 2906 2266 
Q 2828 2175 2409 1742 
Q 1991 1309 1228 531 
z
" id="DejaVuSans-32" transform="scale(0.015625)"/>
       </defs>
       <use xlink:href="#DejaVuSans-32"/>
       <use x="63.623047" xlink:href="#DejaVuSans-30"/>
       <use x="127.246094" xlink:href="#DejaVuSans-30"/>
       <use x="190.869141" xlink:href="#DejaVuSans-30"/>
       <use x="254.492188" xlink:href="#DejaVuSans-30"/>
      </g>
     </g>
    </g>
    <g id="xtick_3">
     <g id="text_3">
      <!-- 40000 -->
      <g style="fill:#262626;" transform="translate(247.287932 636.076563)scale(0.22 -0.22)">
       <defs>
        <path d="M 2419 4116 
L 825 1625 
L 2419 1625 
L 2419 4116 
z
M 2253 4666 
L 3047 4666 
L 3047 1625 
L 3713 1625 
L 3713 1100 
L 3047 1100 
L 3047 0 
L 2419 0 
L 2419 1100 
L 313 1100 
L 313 1709 
L 2253 4666 
z
" id="DejaVuSans-34" transform="scale(0.015625)"/>
       </defs>
       <use xlink:href="#DejaVuSans-34"/>
       <use x="63.623047" xlink:href="#DejaVuSans-30"/>
       <use x="127.246094" xlink:href="#DejaVuSans-30"/>
       <use x="190.869141" xlink:href="#DejaVuSans-30"/>
       <use x="254.492188" xlink:href="#DejaVuSans-30"/>
      </g>
     </g>
    </g>
    <g id="xtick_4">
     <g id="text_4">
      <!-- 60000 -->
      <g style="fill:#262626;" transform="translate(335.109193 636.076563)scale(0.22 -0.22)">
       <defs>
        <path d="M 2113 2584 
Q 1688 2584 1439 2293 
Q 1191 2003 1191 1497 
Q 1191 994 1439 701 
Q 1688 409 2113 409 
Q 2538 409 2786 701 
Q 3034 994 3034 1497 
Q 3034 2003 2786 2293 
Q 2538 2584 2113 2584 
z
M 3366 4563 
L 3366 3988 
Q 3128 4100 2886 4159 
Q 2644 4219 2406 4219 
Q 1781 4219 1451 3797 
Q 1122 3375 1075 2522 
Q 1259 2794 1537 2939 
Q 1816 3084 2150 3084 
Q 2853 3084 3261 2657 
Q 3669 2231 3669 1497 
Q 3669 778 3244 343 
Q 2819 -91 2113 -91 
Q 1303 -91 875 529 
Q 447 1150 447 2328 
Q 447 3434 972 4092 
Q 1497 4750 2381 4750 
Q 2619 4750 2861 4703 
Q 3103 4656 3366 4563 
z
" id="DejaVuSans-36" transform="scale(0.015625)"/>
       </defs>
       <use xlink:href="#DejaVuSans-36"/>
       <use x="63.623047" xlink:href="#DejaVuSans-30"/>
       <use x="127.246094" xlink:href="#DejaVuSans-30"/>
       <use x="190.869141" xlink:href="#DejaVuSans-30"/>
       <use x="254.492188" xlink:href="#DejaVuSans-30"/>
      </g>
     </g>
    </g>
    <g id="xtick_5">
     <g id="text_5">
      <!-- 80000 -->
      <g style="fill:#262626;" transform="translate(422.930455 636.076563)scale(0.22 -0.22)">
       <defs>
        <path d="M 2034 2216 
Q 1584 2216 1326 1975 
Q 1069 1734 1069 1313 
Q 1069 891 1326 650 
Q 1584 409 2034 409 
Q 2484 409 2743 651 
Q 3003 894 3003 1313 
Q 3003 1734 2745 1975 
Q 2488 2216 2034 2216 
z
M 1403 2484 
Q 997 2584 770 2862 
Q 544 3141 544 3541 
Q 544 4100 942 4425 
Q 1341 4750 2034 4750 
Q 2731 4750 3128 4425 
Q 3525 4100 3525 3541 
Q 3525 3141 3298 2862 
Q 3072 2584 2669 2484 
Q 3125 2378 3379 2068 
Q 3634 1759 3634 1313 
Q 3634 634 3220 271 
Q 2806 -91 2034 -91 
Q 1263 -91 848 271 
Q 434 634 434 1313 
Q 434 1759 690 2068 
Q 947 2378 1403 2484 
z
M 1172 3481 
Q 1172 3119 1398 2916 
Q 1625 2713 2034 2713 
Q 2441 2713 2670 2916 
Q 2900 3119 2900 3481 
Q 2900 3844 2670 4047 
Q 2441 4250 2034 4250 
Q 1625 4250 1398 4047 
Q 1172 3844 1172 3481 
z
" id="DejaVuSans-38" transform="scale(0.015625)"/>
       </defs>
       <use xlink:href="#DejaVuSans-38"/>
       <use x="63.623047" xlink:href="#DejaVuSans-30"/>
       <use x="127.246094" xlink:href="#DejaVuSans-30"/>
       <use x="190.869141" xlink:href="#DejaVuSans-30"/>
       <use x="254.492188" xlink:href="#DejaVuSans-30"/>
      </g>
     </g>
    </g>
    <g id="xtick_6">
     <g id="text_6">
      <!-- 100000 -->
      <g style="fill:#262626;" transform="translate(503.752966 636.076563)scale(0.22 -0.22)">
       <defs>
        <path d="M 794 531 
L 1825 531 
L 1825 4091 
L 703 3866 
L 703 4441 
L 1819 4666 
L 2450 4666 
L 2450 531 
L 3481 531 
L 3481 0 
L 794 0 
L 794 531 
z
" id="DejaVuSans-31" transform="scale(0.015625)"/>
       </defs>
       <use xlink:href="#DejaVuSans-31"/>
       <use x="63.623047" xlink:href="#DejaVuSans-30"/>
       <use x="127.246094" xlink:href="#DejaVuSans-30"/>
       <use x="190.869141" xlink:href="#DejaVuSans-30"/>
       <use x="254.492188" xlink:href="#DejaVuSans-30"/>
       <use x="318.115234" xlink:href="#DejaVuSans-30"/>
      </g>
     </g>
    </g>
    <g id="text_7">
     <!-- MDTU -->
     <g style="fill:#262626;" transform="translate(290.596464 662.888125)scale(0.24 -0.24)">
      <defs>
       <path d="M 628 4666 
L 1569 4666 
L 2759 1491 
L 3956 4666 
L 4897 4666 
L 4897 0 
L 4281 0 
L 4281 4097 
L 3078 897 
L 2444 897 
L 1241 4097 
L 1241 0 
L 628 0 
L 628 4666 
z
" id="DejaVuSans-4d" transform="scale(0.015625)"/>
       <path d="M 1259 4147 
L 1259 519 
L 2022 519 
Q 2988 519 3436 956 
Q 3884 1394 3884 2338 
Q 3884 3275 3436 3711 
Q 2988 4147 2022 4147 
L 1259 4147 
z
M 628 4666 
L 1925 4666 
Q 3281 4666 3915 4102 
Q 4550 3538 4550 2338 
Q 4550 1131 3912 565 
Q 3275 0 1925 0 
L 628 0 
L 628 4666 
z
" id="DejaVuSans-44" transform="scale(0.015625)"/>
       <path d="M -19 4666 
L 3928 4666 
L 3928 4134 
L 2272 4134 
L 2272 0 
L 1638 0 
L 1638 4134 
L -19 4134 
L -19 4666 
z
" id="DejaVuSans-54" transform="scale(0.015625)"/>
       <path d="M 556 4666 
L 1191 4666 
L 1191 1831 
Q 1191 1081 1462 751 
Q 1734 422 2344 422 
Q 2950 422 3222 751 
Q 3494 1081 3494 1831 
L 3494 4666 
L 4128 4666 
L 4128 1753 
Q 4128 841 3676 375 
Q 3225 -91 2344 -91 
Q 1459 -91 1007 375 
Q 556 841 556 1753 
L 556 4666 
z
" id="DejaVuSans-55" transform="scale(0.015625)"/>
      </defs>
      <use xlink:href="#DejaVuSans-4d"/>
      <use x="86.279297" xlink:href="#DejaVuSans-44"/>
      <use x="163.28125" xlink:href="#DejaVuSans-54"/>
      <use x="224.365234" xlink:href="#DejaVuSans-55"/>
     </g>
    </g>
   </g>
   <g id="matplotlib.axis_2">
    <g id="ytick_1">
     <g id="text_8">
      <!-- 0.4 -->
      <g style="fill:#262626;" transform="translate(34.4275 580.029448)scale(0.22 -0.22)">
       <defs>
        <path d="M 684 794 
L 1344 794 
L 1344 0 
L 684 0 
L 684 794 
z
" id="DejaVuSans-2e" transform="scale(0.015625)"/>
       </defs>
       <use xlink:href="#DejaVuSans-30"/>
       <use x="63.623047" xlink:href="#DejaVuSans-2e"/>
       <use x="95.410156" xlink:href="#DejaVuSans-34"/>
      </g>
     </g>
    </g>
    <g id="ytick_2">
     <g id="text_9">
      <!-- 0.5 -->
      <g style="fill:#262626;" transform="translate(34.4275 515.117371)scale(0.22 -0.22)">
       <defs>
        <path d="M 691 4666 
L 3169 4666 
L 3169 4134 
L 1269 4134 
L 1269 2991 
Q 1406 3038 1543 3061 
Q 1681 3084 1819 3084 
Q 2600 3084 3056 2656 
Q 3513 2228 3513 1497 
Q 3513 744 3044 326 
Q 2575 -91 1722 -91 
Q 1428 -91 1123 -41 
Q 819 9 494 109 
L 494 744 
Q 775 591 1075 516 
Q 1375 441 1709 441 
Q 2250 441 2565 725 
Q 2881 1009 2881 1497 
Q 2881 1984 2565 2268 
Q 2250 2553 1709 2553 
Q 1456 2553 1204 2497 
Q 953 2441 691 2322 
L 691 4666 
z
" id="DejaVuSans-35" transform="scale(0.015625)"/>
       </defs>
       <use xlink:href="#DejaVuSans-30"/>
       <use x="63.623047" xlink:href="#DejaVuSans-2e"/>
       <use x="95.410156" xlink:href="#DejaVuSans-35"/>
      </g>
     </g>
    </g>
    <g id="ytick_3">
     <g id="text_10">
      <!-- 0.6 -->
      <g style="fill:#262626;" transform="translate(34.4275 450.205294)scale(0.22 -0.22)">
       <use xlink:href="#DejaVuSans-30"/>
       <use x="63.623047" xlink:href="#DejaVuSans-2e"/>
       <use x="95.410156" xlink:href="#DejaVuSans-36"/>
      </g>
     </g>
    </g>
    <g id="ytick_4">
     <g id="text_11">
      <!-- 0.7 -->
      <g style="fill:#262626;" transform="translate(34.4275 385.293217)scale(0.22 -0.22)">
       <defs>
        <path d="M 525 4666 
L 3525 4666 
L 3525 4397 
L 1831 0 
L 1172 0 
L 2766 4134 
L 525 4134 
L 525 4666 
z
" id="DejaVuSans-37" transform="scale(0.015625)"/>
       </defs>
       <use xlink:href="#DejaVuSans-30"/>
       <use x="63.623047" xlink:href="#DejaVuSans-2e"/>
       <use x="95.410156" xlink:href="#DejaVuSans-37"/>
      </g>
     </g>
    </g>
    <g id="ytick_5">
     <g id="text_12">
      <!-- 0.8 -->
      <g style="fill:#262626;" transform="translate(34.4275 320.381141)scale(0.22 -0.22)">
       <use xlink:href="#DejaVuSans-30"/>
       <use x="63.623047" xlink:href="#DejaVuSans-2e"/>
       <use x="95.410156" xlink:href="#DejaVuSans-38"/>
      </g>
     </g>
    </g>
    <g id="ytick_6">
     <g id="text_13">
      <!-- 0.9 -->
      <g style="fill:#262626;" transform="translate(34.4275 255.469064)scale(0.22 -0.22)">
       <defs>
        <path d="M 703 97 
L 703 672 
Q 941 559 1184 500 
Q 1428 441 1663 441 
Q 2288 441 2617 861 
Q 2947 1281 2994 2138 
Q 2813 1869 2534 1725 
Q 2256 1581 1919 1581 
Q 1219 1581 811 2004 
Q 403 2428 403 3163 
Q 403 3881 828 4315 
Q 1253 4750 1959 4750 
Q 2769 4750 3195 4129 
Q 3622 3509 3622 2328 
Q 3622 1225 3098 567 
Q 2575 -91 1691 -91 
Q 1453 -91 1209 -44 
Q 966 3 703 97 
z
M 1959 2075 
Q 2384 2075 2632 2365 
Q 2881 2656 2881 3163 
Q 2881 3666 2632 3958 
Q 2384 4250 1959 4250 
Q 1534 4250 1286 3958 
Q 1038 3666 1038 3163 
Q 1038 2656 1286 2365 
Q 1534 2075 1959 2075 
z
" id="DejaVuSans-39" transform="scale(0.015625)"/>
       </defs>
       <use xlink:href="#DejaVuSans-30"/>
       <use x="63.623047" xlink:href="#DejaVuSans-2e"/>
       <use x="95.410156" xlink:href="#DejaVuSans-39"/>
      </g>
     </g>
    </g>
    <g id="ytick_7">
     <g id="text_14">
      <!-- 1.0 -->
      <g style="fill:#262626;" transform="translate(34.4275 190.556987)scale(0.22 -0.22)">
       <use xlink:href="#DejaVuSans-31"/>
       <use x="63.623047" xlink:href="#DejaVuSans-2e"/>
       <use x="95.410156" xlink:href="#DejaVuSans-30"/>
      </g>
     </g>
    </g>
    <g id="ytick_8">
     <g id="text_15">
      <!-- 1.1 -->
      <g style="fill:#262626;" transform="translate(34.4275 125.64491)scale(0.22 -0.22)">
       <use xlink:href="#DejaVuSans-31"/>
       <use x="63.623047" xlink:href="#DejaVuSans-2e"/>
       <use x="95.410156" xlink:href="#DejaVuSans-31"/>
      </g>
     </g>
    </g>
    <g id="text_16">
     <!-- $E$ -->
     <g style="fill:#262626;" transform="translate(25.43625 364.352286)rotate(-90)scale(0.24 -0.24)">
      <defs>
       <path d="M 1081 4666 
L 4031 4666 
L 3928 4134 
L 1606 4134 
L 1338 2753 
L 3566 2753 
L 3463 2222 
L 1234 2222 
L 909 531 
L 3284 531 
L 3181 0 
L 172 0 
L 1081 4666 
z
" id="DejaVuSans-Oblique-45" transform="scale(0.015625)"/>
      </defs>
      <use transform="translate(0 0.09375)" xlink:href="#DejaVuSans-Oblique-45"/>
     </g>
    </g>
   </g>
   <g id="line2d_1">
    <path clip-path="url(#p9fb7f1d68b)" d="M 111.249776 312.503089 
L 111.469329 312.110601 
L 111.688882 414.609058 
L 111.908435 249.749903 
L 112.127988 471.533643 
L 112.347541 404.53406 
L 112.567095 253.984983 
L 112.786648 380.134567 
L 113.006201 336.659695 
L 113.225754 398.875021 
L 113.445307 380.126399 
L 113.66486 519.00368 
L 113.884414 334.637006 
L 114.103967 459.67264 
L 114.32352 447.002441 
L 114.543073 383.628777 
L 114.762626 412.990102 
L 114.982179 409.808916 
L 115.201732 422.655917 
L 115.421286 407.027615 
L 115.640839 380.657997 
L 115.860392 424.244998 
L 116.079945 423.598494 
L 116.299498 420.642171 
L 116.519051 300.868735 
L 116.738605 544.08361 
L 116.958158 440.838959 
L 117.177711 429.511722 
L 117.397264 402.179353 
L 117.616817 426.45486 
L 117.83637 471.785916 
L 118.055923 321.768603 
L 118.275477 381.348274 
L 118.49503 260.846796 
L 118.714583 430.560387 
L 118.934136 279.12391 
L 119.153689 405.702467 
L 119.373242 148.29504 
L 119.812349 398.709628 
L 120.031902 387.042051 
L 120.251455 330.369138 
L 120.471008 387.611762 
L 120.690561 356.195018 
L 121.129668 450.654265 
L 121.349221 301.672792 
L 121.568774 293.568987 
L 122.00788 417.738428 
L 122.227433 315.91669 
L 122.66654 450.425011 
L 122.886093 414.837937 
L 123.105646 352.72313 
L 123.325199 437.034483 
L 123.544752 461.00433 
L 123.764305 287.544385 
L 123.983859 431.75586 
L 124.203412 406.262151 
L 124.422965 432.952945 
L 124.642518 274.804576 
L 124.862071 413.031555 
L 125.081624 329.213317 
L 125.301178 365.299093 
L 125.520731 257.58687 
L 126.17939 473.316482 
L 126.398943 396.574593 
L 126.618496 439.881549 
L 126.83805 346.884362 
L 127.057603 346.880031 
L 127.496709 396.092883 
L 127.716262 289.016791 
L 127.935815 392.284967 
L 128.155369 313.440866 
L 128.374922 469.8957 
L 128.594475 319.375868 
L 129.033581 482.495005 
L 129.472687 374.307262 
L 129.692241 363.979917 
L 129.911794 424.587102 
L 130.131347 450.057722 
L 130.3509 525.510404 
L 130.570453 491.94296 
L 130.790006 331.571997 
L 131.00956 450.624708 
L 131.229113 346.243194 
L 131.448666 415.611088 
L 131.668219 242.969413 
L 131.887772 383.757808 
L 132.107325 263.332375 
L 132.326878 532.869217 
L 132.546432 399.374668 
L 132.765985 357.415954 
L 132.985538 457.908198 
L 133.205091 205.656699 
L 133.424644 448.767633 
L 133.644197 483.06845 
L 133.863751 322.90484 
L 134.083304 353.566936 
L 134.302857 419.350512 
L 134.52241 347.535054 
L 134.741963 428.071212 
L 135.181069 377.522792 
L 135.400623 395.999061 
L 135.620176 445.67711 
L 135.839729 415.875533 
L 136.059282 465.602628 
L 136.278835 352.847463 
L 136.498388 441.606189 
L 136.717941 257.268059 
L 136.937495 215.027769 
L 137.157048 395.994182 
L 137.376601 448.788245 
L 137.596154 414.870111 
L 138.03526 433.120472 
L 138.474367 386.365592 
L 138.69392 429.507137 
L 138.913473 443.96221 
L 139.133026 245.624765 
L 139.352579 469.923925 
L 139.572132 555.740264 
L 139.791686 304.68265 
L 140.011239 460.633455 
L 140.230792 372.51731 
L 140.450345 350.917131 
L 140.669898 405.650291 
L 140.889451 323.005903 
L 141.109005 342.334742 
L 141.328558 410.520305 
L 141.548111 514.084806 
L 141.767664 391.77954 
L 141.987217 450.65196 
L 142.20677 476.938322 
L 142.426323 338.256715 
L 142.645877 373.237349 
L 142.86543 459.695729 
L 143.084983 306.210069 
L 143.304536 487.584645 
L 143.524089 431.606932 
L 143.743642 489.419295 
L 144.182749 312.476762 
L 144.621855 470.743438 
L 144.841408 414.867653 
L 145.060961 314.015334 
L 145.280514 391.831549 
L 145.500068 360.387744 
L 145.719621 365.781538 
L 145.939174 408.746671 
L 146.158727 428.314494 
L 146.37828 382.755703 
L 146.597833 394.917538 
L 146.817387 319.622419 
L 147.256493 492.703463 
L 147.695599 323.195933 
L 148.134705 474.990512 
L 148.354259 352.366097 
L 148.573812 328.798053 
L 148.793365 476.635372 
L 149.012918 360.058187 
L 149.232471 348.256175 
L 149.452024 461.833337 
L 149.671578 423.358243 
L 149.891131 458.750627 
L 150.110684 360.870003 
L 150.330237 482.429931 
L 150.54979 465.185861 
L 150.769343 324.719131 
L 150.988896 449.98699 
L 151.20845 337.266235 
L 151.428003 463.276602 
L 151.647556 443.839281 
L 152.086662 242.447017 
L 152.306215 411.147995 
L 152.525769 410.812508 
L 152.745322 469.369825 
L 152.964875 346.00416 
L 153.184428 346.32902 
L 153.403981 434.685271 
L 153.623534 403.809616 
L 153.843087 499.76962 
L 154.062641 437.729347 
L 154.501747 381.116807 
L 154.940853 424.211318 
L 155.160406 380.545961 
L 155.37996 361.949374 
L 155.599513 384.409061 
L 155.819066 424.424369 
L 156.038619 440.705948 
L 156.258172 262.682299 
L 156.697278 566.457812 
L 156.916832 428.100418 
L 157.136385 475.947378 
L 157.575491 400.151203 
L 157.795044 416.504864 
L 158.014597 263.77491 
L 158.234151 350.586569 
L 158.453704 220.037342 
L 158.673257 429.575372 
L 158.89281 328.689313 
L 159.112363 456.988963 
L 159.331916 318.728624 
L 159.551469 334.477596 
L 159.771023 229.256885 
L 160.210129 397.454999 
L 160.429682 366.274935 
L 160.649235 252.139988 
L 161.088342 515.663276 
L 161.307895 373.397072 
L 161.527448 380.271063 
L 161.747001 302.029532 
L 161.966554 342.290355 
L 162.186107 248.520332 
L 162.40566 436.507813 
L 162.844767 352.623311 
L 163.06432 443.550212 
L 163.283873 399.771333 
L 163.503426 329.141898 
L 163.722979 368.02852 
L 163.942532 338.446957 
L 164.162086 449.856986 
L 164.381639 464.190028 
L 164.601192 360.660381 
L 164.820745 355.844614 
L 165.040298 439.043919 
L 165.479405 273.360518 
L 165.698958 266.42663 
L 165.918511 423.792954 
L 166.138064 441.466727 
L 166.357617 369.120202 
L 166.57717 380.578792 
L 166.796723 446.324812 
L 167.016277 473.645812 
L 167.23583 477.778373 
L 167.455383 371.818545 
L 167.674936 497.857516 
L 167.894489 388.400613 
L 168.333596 450.872424 
L 168.553149 391.579021 
L 168.772702 404.439937 
L 168.992255 397.931154 
L 169.211808 332.11825 
L 169.650914 418.115147 
L 169.870468 313.712084 
L 170.090021 357.143305 
L 170.309574 318.781119 
L 170.529127 369.078225 
L 170.74868 323.916846 
L 170.968233 463.144263 
L 171.40734 255.868341 
L 171.626893 495.717778 
L 171.846446 480.809067 
L 172.065999 241.131731 
L 172.285552 367.543447 
L 172.724659 454.188334 
L 172.944212 310.392319 
L 173.163765 395.355909 
L 173.383318 418.883098 
L 173.602871 280.742464 
L 173.822424 498.674725 
L 174.041978 363.907315 
L 174.261531 335.652071 
L 174.481084 329.46079 
L 174.700637 432.188307 
L 174.92019 459.293226 
L 175.139743 383.50464 
L 175.359296 454.668122 
L 175.57885 433.035925 
L 175.798403 384.945051 
L 176.237509 462.923933 
L 176.457062 269.258338 
L 176.676615 442.664289 
L 176.896169 342.479781 
L 177.115722 365.062437 
L 177.335275 241.202552 
L 177.554828 460.4045 
L 177.774381 473.548435 
L 177.993934 311.243992 
L 178.433041 369.219331 
L 178.652594 374.477098 
L 178.872147 387.691857 
L 179.0917 496.773909 
L 179.311253 297.465445 
L 179.530806 465.431579 
L 179.75036 397.272783 
L 179.969913 391.549708 
L 180.189466 411.666682 
L 180.409019 373.463728 
L 180.628572 494.768831 
L 180.848125 365.013398 
L 181.067678 319.049818 
L 181.287232 311.049376 
L 181.506785 267.896926 
L 181.726338 404.926486 
L 182.165444 273.191743 
L 182.384997 367.113214 
L 182.604551 534.889863 
L 182.824104 345.516705 
L 183.043657 378.598558 
L 183.26321 319.338121 
L 183.482763 379.959341 
L 183.702316 317.321944 
L 183.921869 454.312369 
L 184.141423 338.97519 
L 184.360976 373.930936 
L 184.580529 251.074865 
L 184.800082 399.702433 
L 185.019635 396.842649 
L 185.239188 443.058571 
L 185.458742 376.362967 
L 185.678295 343.749693 
L 185.897848 418.259974 
L 186.117401 447.366636 
L 186.556507 385.653023 
L 186.77606 479.542384 
L 187.215167 390.702916 
L 187.43472 310.480286 
L 187.654273 411.228669 
L 187.873826 444.095316 
L 188.312932 325.502675 
L 188.532486 413.494225 
L 188.752039 395.121389 
L 188.971592 446.112057 
L 189.191145 333.059877 
L 189.410698 424.581898 
L 189.630251 368.469947 
L 189.849805 342.521847 
L 190.069358 432.854846 
L 190.288911 341.478271 
L 190.508464 417.926109 
L 190.728017 414.675189 
L 190.94757 509.603878 
L 191.167123 282.599976 
L 191.60623 469.060664 
L 191.825783 223.397503 
L 192.045336 345.669037 
L 192.264889 143.931701 
L 192.484442 505.863317 
L 192.703996 482.088996 
L 192.923549 403.642619 
L 193.143102 418.532977 
L 193.362655 347.631839 
L 193.582208 365.048939 
L 193.801761 425.464787 
L 194.021314 448.898666 
L 194.240868 301.119835 
L 194.460421 421.908872 
L 194.679974 342.785071 
L 194.899527 385.121654 
L 195.11908 368.782356 
L 195.338633 311.372539 
L 195.558187 384.931506 
L 195.77774 290.10422 
L 195.997293 351.441492 
L 196.216846 296.286714 
L 196.655952 365.888379 
L 196.875505 331.810384 
L 197.095059 325.807944 
L 197.314612 443.951819 
L 197.753718 390.757786 
L 197.973271 275.608517 
L 198.192824 500.87646 
L 198.412378 341.895055 
L 198.631931 316.060964 
L 198.851484 337.050357 
L 199.071037 274.161628 
L 199.29059 391.433348 
L 199.510143 269.321256 
L 199.729696 426.927591 
L 199.94925 448.548404 
L 200.168803 330.489791 
L 200.388356 436.446421 
L 200.607909 334.603513 
L 200.827462 334.994334 
L 201.047015 380.083764 
L 201.266569 398.986927 
L 201.486122 427.767393 
L 201.705675 505.582481 
L 201.925228 402.879118 
L 202.144781 475.317017 
L 202.364334 444.131134 
L 202.583887 527.775852 
L 202.803441 287.808524 
L 203.022994 323.638792 
L 203.242547 329.876281 
L 203.4621 292.302361 
L 203.681653 453.119939 
L 203.901206 365.362203 
L 204.12076 354.304953 
L 204.559866 292.227296 
L 204.779419 473.673095 
L 204.998972 399.203422 
L 205.218525 372.347567 
L 205.438078 317.925728 
L 205.657632 493.371718 
L 206.096738 131.956182 
L 206.316291 318.329449 
L 206.535844 402.537933 
L 206.755397 379.638743 
L 206.974951 410.427648 
L 207.194504 368.567606 
L 207.414057 494.790647 
L 207.63361 273.986019 
L 207.853163 387.812282 
L 208.072716 434.717008 
L 208.292269 436.659011 
L 208.511823 326.425494 
L 208.731376 427.55925 
L 208.950929 457.486502 
L 209.170482 377.469654 
L 209.390035 435.458678 
L 209.609588 443.899114 
L 209.829142 388.520286 
L 210.048695 462.606336 
L 210.268248 408.607918 
L 210.487801 422.740022 
L 210.707354 399.745992 
L 210.926907 398.988046 
L 211.14646 313.04833 
L 211.366014 313.709628 
L 211.585567 470.753208 
L 211.80512 433.206769 
L 212.024673 262.532717 
L 212.244226 353.636428 
L 212.463779 373.769306 
L 212.683333 322.940415 
L 213.122439 461.560596 
L 213.341992 561.108127 
L 213.561545 346.232848 
L 213.781098 318.233204 
L 214.000651 370.450989 
L 214.220205 463.709627 
L 214.659311 303.429626 
L 214.878864 483.41439 
L 215.098417 453.291987 
L 215.31797 270.611619 
L 215.537523 511.927843 
L 215.757077 309.366684 
L 215.97663 269.146775 
L 216.196183 308.594956 
L 216.415736 248.537172 
L 216.635289 418.150606 
L 216.854842 369.972646 
L 217.074396 368.246658 
L 217.293949 377.566404 
L 217.513502 254.330728 
L 217.733055 464.608544 
L 217.952608 487.048269 
L 218.172161 337.749161 
L 218.391714 426.645753 
L 218.611268 397.575494 
L 218.830821 281.141338 
L 219.050374 316.107298 
L 219.269927 414.999005 
L 219.48948 321.066323 
L 219.709033 467.447778 
L 219.928587 372.159617 
L 220.14814 486.511875 
L 220.367693 359.471547 
L 220.587246 435.805141 
L 220.806799 351.073434 
L 221.026352 440.375465 
L 221.245905 393.287145 
L 221.465459 575.645514 
L 221.685012 543.451117 
L 221.904565 394.519913 
L 222.124118 336.431949 
L 222.343671 346.839822 
L 222.563224 308.959062 
L 222.782778 394.295283 
L 223.002331 231.712416 
L 223.221884 425.696716 
L 223.441437 391.635561 
L 223.66099 272.579512 
L 224.100096 483.757866 
L 224.31965 563.116748 
L 224.539203 417.954983 
L 224.758756 351.397123 
L 224.978309 442.92547 
L 225.197862 283.776974 
L 225.417415 450.329914 
L 225.636969 491.385069 
L 225.856522 408.794264 
L 226.076075 454.438635 
L 226.295628 391.250385 
L 226.515181 273.623961 
L 227.173841 459.939852 
L 227.393394 456.427119 
L 227.612947 319.95377 
L 227.8325 386.261118 
L 228.052053 350.317483 
L 228.271606 380.22221 
L 228.49116 329.592723 
L 228.710713 225.225963 
L 228.930266 315.474543 
L 229.588925 446.121285 
L 229.808478 506.456359 
L 230.247585 350.987982 
L 230.467138 404.351048 
L 230.686691 377.401644 
L 230.906244 319.817995 
L 231.125797 368.067326 
L 231.345351 351.890701 
L 231.564904 320.293244 
L 231.784457 472.187262 
L 232.00401 257.241763 
L 232.223563 358.234466 
L 232.443116 310.183754 
L 232.662669 486.599932 
L 232.882223 262.743844 
L 233.101776 390.20631 
L 233.321329 413.493585 
L 233.540882 328.799776 
L 233.760435 441.137752 
L 233.979988 300.418974 
L 234.199542 474.654101 
L 234.419095 382.750288 
L 234.638648 344.696556 
L 234.858201 381.353206 
L 235.077754 379.712607 
L 235.297307 358.598209 
L 235.51686 359.953534 
L 235.736414 414.415888 
L 235.955967 434.566255 
L 236.17552 502.655967 
L 236.395073 363.503186 
L 236.614626 327.366057 
L 236.834179 501.490573 
L 237.053733 450.172209 
L 237.492839 304.506542 
L 237.712392 339.186272 
L 237.931945 456.851519 
L 238.151498 438.722805 
L 238.371051 275.007853 
L 238.590605 340.883267 
L 238.810158 345.164354 
L 239.029711 388.523985 
L 239.249264 255.952126 
L 239.468817 406.982125 
L 239.68837 335.244011 
L 239.907924 374.150309 
L 240.127477 328.208766 
L 240.34703 472.330759 
L 240.566583 531.646968 
L 241.005689 397.92441 
L 241.225242 455.20011 
L 241.664349 287.133084 
L 241.883902 298.565739 
L 242.103455 434.628224 
L 242.542561 324.958244 
L 242.762114 407.588439 
L 242.981668 422.895962 
L 243.201221 400.154383 
L 243.420774 299.164458 
L 243.640327 390.141778 
L 243.85988 403.557688 
L 244.079433 248.382842 
L 244.298987 295.548213 
L 244.51854 432.880982 
L 244.738093 418.967614 
L 244.957646 430.308858 
L 245.177199 316.985468 
L 245.396752 481.640055 
L 245.616305 486.305242 
L 245.835859 363.695228 
L 246.055412 345.078913 
L 246.494518 474.142842 
L 246.714071 435.70023 
L 247.153178 494.42991 
L 247.592284 228.079986 
L 247.811837 377.148798 
L 248.03139 349.201983 
L 248.470496 469.621845 
L 248.69005 388.915827 
L 248.909603 379.011324 
L 249.129156 357.742868 
L 249.348709 427.196594 
L 249.568262 392.914915 
L 249.787815 427.550182 
L 250.226922 224.618846 
L 250.446475 429.967357 
L 250.666028 303.625359 
L 250.885581 344.544505 
L 251.105134 245.18898 
L 251.324687 516.540152 
L 251.544241 388.344826 
L 251.763794 467.421367 
L 251.983347 423.910198 
L 252.2029 487.536928 
L 252.422453 412.094995 
L 252.642006 463.430546 
L 253.081113 393.166574 
L 253.300666 382.812548 
L 253.520219 486.618585 
L 253.739772 395.352079 
L 253.959325 475.649023 
L 254.178878 352.233402 
L 254.398432 371.339982 
L 254.617985 284.591241 
L 254.837538 455.468938 
L 255.276644 443.777193 
L 255.496197 468.176167 
L 255.715751 353.30354 
L 255.935304 428.543262 
L 256.154857 372.542354 
L 256.37441 433.310556 
L 256.593963 308.10644 
L 256.813516 302.73115 
L 257.252623 458.251127 
L 257.472176 421.886315 
L 257.691729 505.601378 
L 257.911282 367.788086 
L 258.130835 314.846967 
L 258.350388 422.173667 
L 258.569942 413.243904 
L 258.789495 365.491723 
L 259.009048 440.253501 
L 259.228601 330.230922 
L 259.448154 313.036397 
L 259.88726 435.319784 
L 260.106814 300.199827 
L 260.326367 257.292084 
L 260.54592 414.765122 
L 260.765473 311.568892 
L 260.985026 287.558736 
L 261.204579 483.41988 
L 261.424133 500.367531 
L 261.643686 374.845039 
L 261.863239 452.81162 
L 262.302345 286.446781 
L 262.521898 375.530979 
L 262.741451 334.095144 
L 262.961005 399.069962 
L 263.180558 381.147759 
L 263.400111 575.108017 
L 263.619664 393.696242 
L 263.839217 365.833907 
L 264.05877 402.214283 
L 264.278324 542.913422 
L 264.497877 462.361803 
L 264.71743 466.829588 
L 264.936983 331.011419 
L 265.156536 413.727268 
L 265.376089 284.710033 
L 265.595642 305.442076 
L 265.815196 296.769822 
L 266.034749 235.729788 
L 266.254302 328.154981 
L 266.473855 336.594709 
L 266.693408 409.223323 
L 266.912961 405.602191 
L 267.132514 520.075239 
L 267.352068 285.070731 
L 267.571621 437.310954 
L 267.791174 422.799253 
L 268.010727 334.812287 
L 268.23028 387.967997 
L 268.449833 236.647758 
L 268.669387 470.756583 
L 268.88894 473.94812 
L 269.108493 418.868294 
L 269.328046 331.606751 
L 269.547599 332.919065 
L 269.986705 406.83905 
L 270.206259 315.529751 
L 270.425812 280.119056 
L 270.645365 452.16912 
L 270.864918 394.056952 
L 271.084471 214.974711 
L 271.304024 363.465594 
L 271.523578 406.369897 
L 271.743131 398.62478 
L 271.962684 418.173824 
L 272.182237 411.97761 
L 272.40179 455.682511 
L 272.621343 473.140305 
L 272.840896 457.995089 
L 273.06045 377.139908 
L 273.280003 457.339419 
L 273.499556 305.709692 
L 273.719109 445.085126 
L 273.938662 468.004411 
L 274.377769 346.815515 
L 274.597322 434.844105 
L 274.816875 476.57268 
L 275.255981 418.797035 
L 275.475534 442.615423 
L 276.134194 277.925601 
L 276.353747 289.499279 
L 276.5733 381.990807 
L 276.792853 373.065694 
L 277.012406 409.350569 
L 277.23196 470.060838 
L 277.451513 406.387318 
L 277.671066 439.822836 
L 277.890619 518.016066 
L 278.110172 234.553011 
L 278.329725 375.695963 
L 278.549278 313.403728 
L 278.768832 342.431957 
L 278.988385 329.890628 
L 279.207938 351.932825 
L 279.427491 412.294769 
L 279.647044 142.807038 
L 279.866597 298.990784 
L 280.086151 255.920111 
L 280.305704 389.309534 
L 280.525257 362.078788 
L 280.964363 447.412611 
L 281.183916 453.103763 
L 281.403469 331.918676 
L 281.623023 463.372284 
L 281.842576 356.907047 
L 282.281682 502.036741 
L 282.501235 382.634665 
L 282.720788 411.81705 
L 282.940342 463.645757 
L 283.159895 251.925937 
L 283.379448 455.847658 
L 283.599001 310.713771 
L 283.818554 424.932804 
L 284.038107 406.052281 
L 284.25766 404.65551 
L 284.696767 371.375408 
L 284.91632 517.38298 
L 285.135873 349.735517 
L 285.355426 451.757373 
L 285.574979 467.237061 
L 285.794533 348.02534 
L 286.014086 509.665115 
L 286.233639 179.937458 
L 286.453192 445.263018 
L 286.672745 464.962151 
L 286.892298 339.914429 
L 287.111851 446.996766 
L 287.331405 479.393156 
L 287.550958 389.717982 
L 287.770511 483.251895 
L 287.990064 340.671506 
L 288.209617 416.754676 
L 288.648724 442.266172 
L 288.868277 404.816756 
L 289.08783 536.072379 
L 289.526936 363.736202 
L 289.746489 403.406502 
L 289.966042 355.223017 
L 290.185596 269.418893 
L 290.624702 436.185839 
L 290.844255 352.81579 
L 291.063808 378.309183 
L 291.283361 438.694125 
L 291.502915 247.418205 
L 291.722468 479.694528 
L 291.942021 295.685898 
L 292.161574 326.903222 
L 292.381127 486.559584 
L 292.820233 329.388385 
L 293.039787 448.421282 
L 293.478893 255.736324 
L 293.698446 361.292476 
L 293.917999 316.966678 
L 294.137552 438.14687 
L 294.576659 379.794879 
L 294.796212 443.698869 
L 295.015765 346.668533 
L 295.235318 391.468068 
L 295.454871 353.908795 
L 295.674424 251.060901 
L 295.893978 396.74131 
L 296.113531 330.808654 
L 296.333084 448.765066 
L 296.552637 232.338419 
L 296.77219 321.805513 
L 297.211296 365.490179 
L 297.43085 453.046913 
L 297.650403 274.088595 
L 297.869956 434.617335 
L 298.089509 318.806679 
L 298.309062 307.461246 
L 298.528615 440.852286 
L 298.748169 391.093175 
L 298.967722 386.538302 
L 299.187275 416.221947 
L 299.406828 241.21155 
L 299.626381 351.633149 
L 300.065487 425.743104 
L 300.285041 402.960413 
L 300.504594 260.310817 
L 300.724147 213.937125 
L 300.9437 418.958002 
L 301.382806 393.995338 
L 301.60236 511.721269 
L 301.821913 371.673943 
L 302.041466 443.921766 
L 302.261019 414.446269 
L 302.480572 493.189171 
L 302.919678 338.151688 
L 303.139232 344.672668 
L 303.358785 448.058042 
L 303.578338 362.455817 
L 303.797891 384.21151 
L 304.017444 462.559177 
L 304.456551 324.139283 
L 304.676104 439.781147 
L 304.895657 321.438912 
L 305.11521 373.201704 
L 305.334763 471.04027 
L 305.554316 389.024799 
L 305.773869 398.389342 
L 305.993423 318.952474 
L 306.432529 371.07708 
L 306.652082 416.19226 
L 306.871635 368.144053 
L 307.091188 367.065627 
L 307.310742 423.3174 
L 307.530295 399.557399 
L 307.749848 349.349527 
L 307.969401 451.52497 
L 308.188954 244.684711 
L 308.408507 378.917196 
L 308.62806 376.611477 
L 308.847614 379.316222 
L 309.067167 446.682128 
L 309.28672 394.565392 
L 309.506273 397.786191 
L 309.725826 436.14394 
L 309.945379 325.075436 
L 310.164933 408.74776 
L 310.384486 336.649305 
L 310.604039 341.488524 
L 310.823592 396.052137 
L 311.043145 327.891441 
L 311.262698 299.602901 
L 311.482251 416.527127 
L 311.701805 378.193943 
L 311.921358 396.446194 
L 312.140911 308.884855 
L 312.360464 342.618594 
L 312.580017 324.564279 
L 312.79957 419.57821 
L 313.019124 270.34488 
L 313.238677 311.096075 
L 313.45823 414.756214 
L 313.677783 400.282131 
L 313.897336 268.707645 
L 314.116889 481.104409 
L 314.336442 478.41739 
L 314.555996 428.674777 
L 314.775549 449.508883 
L 314.995102 415.711801 
L 315.214655 208.312547 
L 315.434208 467.56998 
L 315.653761 430.55969 
L 315.873315 433.387767 
L 316.092868 281.032789 
L 316.312421 431.804389 
L 316.531974 419.806404 
L 316.751527 344.239462 
L 316.97108 411.627689 
L 317.190633 384.161623 
L 317.410187 476.462818 
L 317.62974 387.553855 
L 317.849293 511.070601 
L 318.068846 375.85469 
L 318.288399 361.997119 
L 318.507952 391.416628 
L 318.947059 507.285835 
L 319.166612 234.650791 
L 319.386165 318.639014 
L 319.605718 469.874388 
L 319.825271 492.422405 
L 320.044824 324.392923 
L 320.264378 417.061742 
L 320.483931 244.099222 
L 320.703484 318.387537 
L 320.923037 474.778708 
L 321.362143 363.989815 
L 321.581696 382.597467 
L 321.80125 430.6049 
L 322.020803 311.680172 
L 322.240356 291.333454 
L 322.459909 449.517067 
L 322.679462 382.922938 
L 322.899015 353.650188 
L 323.118569 473.868962 
L 323.338122 420.573671 
L 323.557675 436.288118 
L 323.777228 394.335024 
L 323.996781 430.256881 
L 324.216334 393.428717 
L 324.435887 445.063595 
L 324.655441 433.965048 
L 324.874994 329.55091 
L 325.094547 364.601604 
L 325.3141 477.967078 
L 325.753206 336.646837 
L 326.192313 457.457163 
L 326.631419 328.331771 
L 326.850972 435.213035 
L 327.070525 314.164653 
L 327.290078 480.602894 
L 327.509632 400.829925 
L 327.729185 453.433882 
L 327.948738 388.274331 
L 328.168291 465.85133 
L 328.387844 410.376582 
L 328.607397 394.013052 
L 328.826951 368.146463 
L 329.046504 458.249272 
L 329.266057 273.174632 
L 329.48561 445.723775 
L 329.705163 378.301377 
L 329.924716 396.852687 
L 330.144269 268.838767 
L 330.583376 420.988646 
L 330.802929 281.572716 
L 331.022482 435.027368 
L 331.242035 496.341155 
L 331.461588 407.384961 
L 331.681142 431.021895 
L 331.900695 426.901944 
L 332.120248 496.514115 
L 332.339801 491.898052 
L 332.559354 331.801543 
L 332.778907 455.263439 
L 332.99846 343.356768 
L 333.218014 433.841127 
L 333.437567 437.933492 
L 333.876673 329.763335 
L 334.096226 320.347389 
L 334.315779 350.262431 
L 334.535333 401.76663 
L 334.754886 357.030521 
L 334.974439 470.67532 
L 335.193992 302.310027 
L 335.413545 372.086695 
L 335.633098 395.533592 
L 335.852651 377.597818 
L 336.072205 310.932865 
L 336.291758 374.676708 
L 336.511311 400.831186 
L 336.730864 339.86056 
L 337.389524 459.55938 
L 337.609077 385.064334 
L 337.82863 391.623365 
L 338.048183 314.166108 
L 338.267736 362.168648 
L 338.487289 364.208605 
L 338.706842 253.603894 
L 338.926396 404.993144 
L 339.145949 410.874719 
L 339.365502 360.988916 
L 339.585055 360.678114 
L 339.804608 419.478927 
L 340.024161 399.404395 
L 340.243715 347.55491 
L 340.463268 416.315262 
L 340.682821 402.328451 
L 340.902374 354.413581 
L 341.121927 409.531132 
L 341.34148 360.56116 
L 341.561033 502.935855 
L 341.780587 451.182111 
L 342.00014 445.714291 
L 342.219693 338.103455 
L 342.439246 472.137216 
L 342.658799 392.227062 
L 342.878352 432.598768 
L 343.097906 345.491614 
L 343.317459 346.223733 
L 343.537012 431.486426 
L 343.756565 310.417759 
L 343.976118 443.807161 
L 344.195671 438.520467 
L 344.415224 427.584151 
L 344.634778 322.717335 
L 344.854331 450.082814 
L 345.073884 444.887614 
L 345.293437 251.344388 
L 345.732543 419.412357 
L 345.952096 377.774064 
L 346.17165 513.880692 
L 346.391203 374.957937 
L 346.610756 388.144113 
L 346.830309 417.226468 
L 347.049862 389.81513 
L 347.269415 415.45548 
L 347.488969 176.820019 
L 347.708522 356.02645 
L 347.928075 423.988948 
L 348.147628 332.802236 
L 348.367181 410.358178 
L 348.586734 356.327565 
L 348.806287 437.408077 
L 349.025841 309.334264 
L 349.245394 419.935571 
L 349.464947 454.245587 
L 349.904053 386.020446 
L 350.123606 372.487284 
L 350.34316 404.286927 
L 350.562713 288.362835 
L 350.782266 375.789749 
L 351.001819 275.394582 
L 351.221372 396.257888 
L 351.440925 374.792702 
L 351.660478 411.380043 
L 351.880032 394.146 
L 352.099585 299.830322 
L 352.319138 319.845871 
L 352.538691 383.316402 
L 352.758244 322.222363 
L 352.977797 388.200437 
L 353.197351 416.794275 
L 353.416904 397.992585 
L 353.636457 367.263675 
L 353.85601 385.894568 
L 354.075563 229.696014 
L 354.295116 305.881522 
L 354.514669 496.073909 
L 354.953776 301.251716 
L 355.173329 414.743627 
L 355.392882 428.594579 
L 355.831988 310.276868 
L 356.051542 350.824961 
L 356.271095 441.544606 
L 356.490648 409.423774 
L 356.710201 409.137312 
L 356.929754 454.773292 
L 357.149307 414.891722 
L 357.36886 424.412506 
L 357.588414 428.287208 
L 357.807967 278.434315 
L 358.02752 433.812356 
L 358.466626 334.53202 
L 358.686179 495.754384 
L 358.905733 373.106682 
L 359.125286 358.120163 
L 359.564392 480.41799 
L 359.783945 310.589571 
L 360.003498 508.773524 
L 360.223051 391.178396 
L 360.442605 419.584735 
L 360.662158 297.305736 
L 360.881711 345.90683 
L 361.101264 496.252639 
L 361.320817 315.609962 
L 361.54037 292.64762 
L 361.759924 396.369858 
L 361.979477 354.060717 
L 362.19903 494.966081 
L 362.418583 395.754493 
L 362.857689 285.664446 
L 363.077242 439.831519 
L 363.296796 388.790616 
L 363.516349 286.351386 
L 363.735902 501.93162 
L 363.955455 289.633074 
L 364.175008 327.185015 
L 364.394561 329.814844 
L 364.833668 487.972039 
L 365.053221 316.267429 
L 365.272774 306.445664 
L 365.492327 466.113047 
L 365.71188 428.908653 
L 365.931433 488.063444 
L 366.150987 299.506861 
L 366.37054 461.520309 
L 366.590093 406.934628 
L 366.809646 455.401949 
L 367.248752 285.544621 
L 367.468306 428.027133 
L 367.687859 340.364273 
L 367.907412 545.232657 
L 368.126965 383.869405 
L 368.346518 492.004622 
L 368.566071 506.553349 
L 368.785624 419.206164 
L 369.005178 437.804203 
L 369.224731 381.372644 
L 369.444284 459.427227 
L 369.663837 493.088014 
L 370.102943 318.266113 
L 370.322497 463.224616 
L 370.54205 387.703362 
L 370.761603 420.091115 
L 370.981156 410.437024 
L 371.200709 318.422785 
L 371.420262 476.043369 
L 371.859369 245.81562 
L 372.298475 484.73965 
L 372.518028 390.618838 
L 372.737581 409.940684 
L 373.176687 419.342328 
L 373.396241 330.803361 
L 373.835347 431.52744 
L 374.0549 399.940828 
L 374.274453 431.767277 
L 374.494006 426.675796 
L 374.71356 467.45853 
L 374.933113 361.481036 
L 375.152666 357.310058 
L 375.372219 198.806344 
L 375.591772 371.599025 
L 375.811325 220.258641 
L 376.250432 420.771132 
L 376.689538 356.127486 
L 376.909091 416.824537 
L 377.128644 355.113802 
L 377.348197 385.634425 
L 377.567751 382.459342 
L 378.006857 488.619066 
L 378.22641 416.742453 
L 378.445963 286.336904 
L 378.665516 516.635662 
L 378.885069 386.578121 
L 379.104623 337.774818 
L 379.324176 261.06498 
L 379.763282 443.520464 
L 380.202388 383.454544 
L 380.421942 377.693711 
L 380.641495 284.309326 
L 381.080601 455.949751 
L 381.300154 264.081241 
L 381.519707 431.152556 
L 381.73926 411.404515 
L 381.958814 531.813996 
L 382.178367 328.04031 
L 382.39792 427.520444 
L 382.617473 450.0941 
L 382.837026 268.996577 
L 383.056579 410.998462 
L 383.276133 268.648414 
L 383.495686 458.759121 
L 383.934792 316.809009 
L 384.154345 502.271425 
L 384.373898 330.904899 
L 384.593451 247.890485 
L 384.813005 392.429223 
L 385.252111 425.919123 
L 385.471664 278.621917 
L 385.91077 439.779706 
L 386.349877 302.907901 
L 386.56943 350.631009 
L 387.008536 246.796154 
L 387.228089 377.357442 
L 387.447642 408.165857 
L 387.667196 382.557398 
L 387.886749 453.245178 
L 388.106302 275.78791 
L 388.325855 505.154323 
L 388.764961 297.578439 
L 388.984515 405.914474 
L 389.204068 307.413634 
L 389.423621 479.257286 
L 389.643174 314.285061 
L 389.862727 393.211281 
L 390.08228 337.517124 
L 390.301833 383.565599 
L 390.521387 344.866819 
L 390.74094 431.180961 
L 390.960493 365.832741 
L 391.180046 347.880786 
L 391.399599 342.362292 
L 391.619152 256.480814 
L 391.838706 467.964828 
L 392.277812 149.782731 
L 392.497365 463.294961 
L 392.936471 279.443315 
L 393.156024 354.824762 
L 393.375578 208.442391 
L 393.595131 491.459438 
L 393.814684 320.386418 
L 394.034237 266.097914 
L 394.25379 451.271748 
L 394.473343 253.619336 
L 394.91245 388.325991 
L 395.132003 369.627622 
L 395.351556 462.906191 
L 395.571109 370.221381 
L 395.790662 529.311283 
L 396.010215 325.677997 
L 396.229769 294.177238 
L 396.449322 339.234518 
L 396.668875 439.424549 
L 396.888428 378.184994 
L 397.327534 523.825761 
L 397.547087 347.889965 
L 397.766641 358.52109 
L 397.986194 465.72142 
L 398.4253 249.336512 
L 398.644853 454.839138 
L 398.864406 412.608729 
L 399.08396 397.960281 
L 399.303513 433.645237 
L 399.523066 325.217698 
L 399.742619 320.036095 
L 399.962172 415.389373 
L 400.181725 204.072638 
L 400.401278 425.967372 
L 400.620832 462.746364 
L 400.840385 478.029523 
L 401.059938 429.411348 
L 401.279491 286.948045 
L 401.499044 366.281809 
L 401.718597 351.377418 
L 401.938151 401.811757 
L 402.157704 517.868188 
L 402.377257 327.330672 
L 402.59681 281.165096 
L 402.816363 450.500926 
L 403.035916 482.267441 
L 403.255469 486.083773 
L 403.475023 403.369086 
L 403.694576 489.766992 
L 404.133682 196.940356 
L 404.353235 395.551748 
L 404.572788 291.914847 
L 404.792342 355.426289 
L 405.011895 349.094626 
L 405.231448 419.668949 
L 405.451001 386.547349 
L 405.670554 397.205729 
L 405.890107 348.510828 
L 406.10966 425.635319 
L 406.329214 248.606604 
L 406.548767 343.744596 
L 406.76832 527.165801 
L 406.987873 412.898753 
L 407.207426 435.126723 
L 407.426979 380.304757 
L 407.646533 520.421209 
L 407.866086 300.532453 
L 408.085639 427.413178 
L 408.305192 333.754084 
L 408.744298 453.586887 
L 408.963851 427.691262 
L 409.183405 490.891199 
L 409.402958 361.674522 
L 409.622511 340.892265 
L 409.842064 394.3177 
L 410.28117 266.132946 
L 410.500724 395.07128 
L 410.720277 291.380517 
L 410.93983 481.050857 
L 411.159383 443.612627 
L 411.378936 286.91623 
L 411.598489 391.111001 
L 412.037596 499.899349 
L 412.257149 394.699802 
L 412.476702 407.664155 
L 412.696255 391.160195 
L 412.915808 460.038721 
L 413.135361 467.748147 
L 413.354915 392.584429 
L 413.574468 475.820596 
L 414.013574 371.192852 
L 414.233127 435.467822 
L 414.45268 271.900685 
L 414.672233 321.375732 
L 414.891787 500.023658 
L 415.11134 280.351326 
L 415.330893 449.180398 
L 415.550446 470.370033 
L 415.769999 367.77281 
L 415.989552 396.048546 
L 416.209106 211.492805 
L 416.428659 277.167779 
L 416.648212 210.61773 
L 416.867765 455.683828 
L 417.087318 509.401818 
L 417.306871 378.10742 
L 417.526424 445.813207 
L 417.965531 335.315785 
L 418.185084 432.964028 
L 418.404637 370.752949 
L 418.62419 356.789668 
L 418.843743 462.027267 
L 419.28285 376.331227 
L 419.502403 520.520978 
L 419.941509 216.117786 
L 420.161062 250.638282 
L 420.380615 400.776557 
L 420.600169 336.095985 
L 420.819722 481.841036 
L 421.039275 398.874112 
L 421.258828 380.85707 
L 421.478381 343.593283 
L 421.697934 335.860459 
L 421.917488 409.483053 
L 422.137041 373.88131 
L 422.576147 444.337658 
L 422.7957 298.221535 
L 423.015253 283.28971 
L 423.234806 334.561695 
L 423.45436 464.537749 
L 423.673913 394.940623 
L 424.113019 377.050177 
L 424.332572 387.385882 
L 424.552125 471.349379 
L 424.771678 376.194294 
L 424.991232 466.495657 
L 425.210785 386.994427 
L 425.430338 474.503687 
L 425.649891 388.788533 
L 425.869444 219.755995 
L 426.308551 336.563989 
L 426.528104 509.110694 
L 426.747657 331.04052 
L 426.96721 307.328556 
L 427.186763 503.540381 
L 427.406316 401.546621 
L 427.625869 449.957174 
L 427.845423 358.966231 
L 428.064976 424.626103 
L 428.284529 325.852939 
L 428.504082 370.246797 
L 428.723635 368.279938 
L 428.943188 430.458979 
L 429.382295 311.3073 
L 429.821401 386.776451 
L 430.040954 448.122427 
L 430.260507 363.177665 
L 430.48006 406.68226 
L 430.699614 188.354735 
L 430.919167 376.122547 
L 431.13872 326.404122 
L 431.358273 332.507916 
L 431.577826 458.505718 
L 432.016933 361.970407 
L 432.236486 534.171354 
L 432.456039 475.360716 
L 432.675592 365.918098 
L 432.895145 346.05182 
L 433.334251 468.384587 
L 433.773358 412.951565 
L 433.992911 416.059343 
L 434.212464 229.103321 
L 434.432017 333.117512 
L 434.65157 509.458689 
L 434.871124 321.394961 
L 435.31023 443.03639 
L 435.529783 474.37226 
L 435.749336 436.74207 
L 435.968889 229.034185 
L 436.188442 445.331335 
L 436.407996 340.630545 
L 436.627549 415.009626 
L 436.847102 288.148844 
L 437.066655 284.102479 
L 437.286208 358.722135 
L 437.505761 495.768077 
L 437.725315 294.750372 
L 437.944868 315.183259 
L 438.164421 422.464028 
L 438.383974 378.1402 
L 438.603527 408.779054 
L 438.82308 247.993997 
L 439.042633 351.026919 
L 439.262187 177.254208 
L 439.48174 362.926464 
L 439.920846 494.050164 
L 440.140399 460.292014 
L 440.359952 470.632403 
L 440.579506 286.151258 
L 440.799059 407.503455 
L 441.018612 421.56604 
L 441.238165 493.124725 
L 441.457718 489.991957 
L 441.677271 476.373915 
L 441.896824 416.908032 
L 442.116378 287.655186 
L 442.335931 252.857235 
L 442.555484 415.211083 
L 442.775037 286.986725 
L 442.99459 482.053743 
L 443.214143 222.019118 
L 443.433697 367.397406 
L 443.65325 407.783164 
L 443.872803 286.978313 
L 444.531462 486.304421 
L 444.751015 335.359959 
L 444.970569 467.128173 
L 445.190122 494.53069 
L 445.409675 287.225944 
L 445.629228 259.22707 
L 445.848781 440.576477 
L 446.068334 322.367108 
L 446.287888 440.508255 
L 446.507441 389.460106 
L 446.726994 207.734216 
L 446.946547 540.910214 
L 447.1661 380.625268 
L 447.385653 349.702854 
L 447.605206 471.032469 
L 447.82476 243.466704 
L 448.044313 446.487503 
L 448.263866 432.804263 
L 448.483419 467.070163 
L 448.702972 419.207284 
L 448.922525 469.760893 
L 449.361632 363.856901 
L 449.581185 358.204907 
L 449.800738 301.325001 
L 450.239844 501.883858 
L 450.459397 324.567497 
L 450.678951 462.761083 
L 450.898504 412.013036 
L 451.118057 408.191493 
L 451.33761 373.126423 
L 451.557163 362.32857 
L 451.776716 464.885269 
L 451.996269 344.254987 
L 452.215823 451.361141 
L 452.435376 357.938586 
L 452.654929 371.621298 
L 452.874482 302.270081 
L 453.313588 471.254263 
L 453.533142 382.547296 
L 453.752695 471.591264 
L 453.972248 440.267265 
L 454.191801 451.591148 
L 454.411354 260.901806 
L 454.630907 477.679971 
L 455.070014 378.938415 
L 455.289567 512.887425 
L 455.948226 336.128832 
L 456.167779 453.507686 
L 456.387333 335.433128 
L 456.826439 396.399692 
L 457.045992 282.423874 
L 457.265545 384.179974 
L 457.485098 345.793149 
L 457.704651 441.044166 
L 457.924205 356.484931 
L 458.143758 382.725371 
L 458.363311 236.75564 
L 458.582864 328.031526 
L 458.802417 329.964878 
L 459.02197 500.967594 
L 459.241524 288.169577 
L 459.461077 444.537812 
L 459.900183 363.904359 
L 460.119736 349.198364 
L 460.339289 581.38839 
L 460.558842 438.23707 
L 460.997949 392.287094 
L 461.217502 277.98193 
L 461.437055 427.203452 
L 461.656608 406.337787 
L 461.876161 441.415098 
L 462.534821 389.8223 
L 462.754374 408.763664 
L 462.973927 360.82475 
L 463.19348 364.535241 
L 463.413033 386.058147 
L 463.85214 295.715104 
L 464.071693 421.118132 
L 464.291246 379.337617 
L 464.510799 405.534693 
L 464.730352 384.060145 
L 464.949906 412.940366 
L 465.169459 402.517421 
L 465.389012 465.515752 
L 465.608565 359.393512 
L 465.828118 323.052987 
L 466.047671 316.092157 
L 466.267224 424.22676 
L 466.486778 460.442857 
L 466.706331 381.776814 
L 466.925884 424.163097 
L 467.145437 385.760101 
L 467.36499 459.470646 
L 467.584543 467.677272 
L 467.804097 313.863535 
L 468.02365 269.878586 
L 468.243203 433.351108 
L 468.462756 482.715173 
L 468.682309 457.82481 
L 468.901862 361.438624 
L 469.121415 432.281929 
L 469.340969 421.752432 
L 469.560522 253.958628 
L 469.780075 417.209961 
L 469.999628 487.587361 
L 470.219181 330.446226 
L 470.438734 428.755559 
L 470.658288 396.340998 
L 470.877841 392.844237 
L 471.097394 471.330177 
L 471.316947 440.028228 
L 471.5365 256.138899 
L 471.756053 422.779298 
L 471.975606 412.660141 
L 472.19516 416.793866 
L 472.414713 393.038484 
L 472.634266 454.739737 
L 472.853819 416.465999 
L 473.073372 292.121597 
L 473.512479 446.403018 
L 473.732032 333.821465 
L 474.390691 494.772516 
L 474.610244 371.720806 
L 474.829797 518.177202 
L 475.049351 324.591855 
L 475.488457 393.540368 
L 475.927563 283.278142 
L 476.147116 286.877238 
L 476.366669 450.007473 
L 476.586223 393.647306 
L 476.805776 437.15822 
L 477.025329 309.960916 
L 477.464435 383.982261 
L 477.683988 345.832412 
L 477.903542 457.597206 
L 478.123095 237.964351 
L 478.342648 433.513386 
L 478.562201 330.48285 
L 478.781754 344.856515 
L 479.001307 307.811062 
L 479.22086 328.891808 
L 479.659967 428.799511 
L 480.099073 387.022317 
L 480.318626 484.51861 
L 480.538179 460.23567 
L 480.757733 353.610042 
L 480.977286 344.274977 
L 481.196839 379.367161 
L 481.416392 301.982081 
L 481.635945 372.911292 
L 481.855498 483.676338 
L 482.075051 289.374126 
L 482.294605 469.721939 
L 482.514158 423.074549 
L 482.733711 488.371996 
L 482.953264 252.829036 
L 483.172817 337.895016 
L 483.39237 325.167871 
L 483.611924 394.12458 
L 483.831477 303.37919 
L 484.05103 405.551368 
L 484.270583 272.07241 
L 485.148796 484.465268 
L 485.368349 375.360341 
L 485.807455 540.257707 
L 486.027008 398.834996 
L 486.246561 388.681974 
L 486.466115 407.922684 
L 486.685668 346.101792 
L 486.905221 397.565326 
L 487.124774 302.592736 
L 487.344327 449.494361 
L 487.56388 289.958229 
L 487.783433 435.911367 
L 488.002987 383.737618 
L 488.22254 358.657852 
L 488.442093 431.882922 
L 488.661646 393.813992 
L 488.881199 483.435166 
L 489.100752 482.823037 
L 489.320306 356.585642 
L 489.539859 445.705977 
L 489.759412 392.070031 
L 489.978965 368.385008 
L 490.198518 367.537946 
L 490.418071 298.739384 
L 490.637624 271.255998 
L 490.857178 405.317802 
L 491.076731 309.212393 
L 491.296284 428.64121 
L 491.515837 399.519146 
L 491.73539 337.054676 
L 491.954943 437.455405 
L 492.174497 408.705188 
L 492.39405 145.483426 
L 492.613603 490.578543 
L 492.833156 461.848428 
L 493.052709 324.375912 
L 493.272262 508.517764 
L 493.491815 343.968981 
L 493.711369 428.354168 
L 493.930922 435.205901 
L 494.150475 497.567158 
L 494.370028 480.820185 
L 494.589581 351.393547 
L 494.809134 383.137957 
L 495.028688 397.307495 
L 495.248241 357.152503 
L 495.467794 468.422469 
L 495.687347 274.232461 
L 495.9069 226.848119 
L 496.126453 430.825641 
L 496.346006 284.968892 
L 496.56556 455.92268 
L 497.443772 320.135802 
L 497.663325 448.581246 
L 498.102432 152.819118 
L 498.321985 383.158373 
L 498.541538 473.301404 
L 498.761091 307.755459 
L 498.980644 467.318434 
L 499.200197 342.660973 
L 499.419751 399.774075 
L 499.639304 424.16464 
L 499.858857 408.368325 
L 500.07841 268.937398 
L 500.517516 382.258219 
L 500.73707 409.882423 
L 501.176176 341.098362 
L 501.395729 478.435011 
L 501.615282 319.175239 
L 501.834835 383.97188 
L 502.054388 361.008573 
L 502.273942 380.72097 
L 502.493495 476.262809 
L 502.713048 482.8851 
L 502.932601 481.967827 
L 503.152154 413.81955 
L 503.371707 302.099256 
L 503.59126 438.911587 
L 503.810814 316.616322 
L 504.030367 439.562892 
L 504.24992 425.80971 
L 504.469473 219.764609 
L 504.689026 480.010901 
L 504.908579 371.882409 
L 505.128133 385.468777 
L 505.347686 333.467731 
L 505.567239 222.012665 
L 505.786792 308.904938 
L 506.006345 538.973729 
L 506.225898 425.148119 
L 506.445451 512.821875 
L 506.665005 502.180302 
L 506.884558 325.119026 
L 507.104111 443.319615 
L 507.323664 456.922068 
L 507.76277 396.773235 
L 507.982324 408.206151 
L 508.201877 450.947718 
L 508.42143 313.523631 
L 508.640983 421.089312 
L 508.860536 445.901997 
L 509.080089 339.420458 
L 509.299642 351.846308 
L 509.519196 341.090122 
L 509.738749 424.21111 
L 509.958302 443.848296 
L 510.177855 356.97896 
L 510.397408 375.684419 
L 510.836515 440.438756 
L 511.056068 413.120654 
L 511.275621 403.85208 
L 511.495174 363.235122 
L 511.714727 419.787059 
L 511.93428 314.365066 
L 512.153833 329.562767 
L 512.373387 447.112237 
L 512.59294 414.688776 
L 512.812493 300.218729 
L 513.032046 445.506214 
L 513.251599 457.571193 
L 513.471152 441.428465 
L 513.690706 369.219591 
L 513.910259 384.451742 
L 514.129812 329.984963 
L 514.349365 392.126142 
L 514.568918 310.916279 
L 514.788471 460.88142 
L 515.227578 416.68423 
L 515.447131 428.992663 
L 515.666684 310.891742 
L 515.886237 350.741524 
L 516.325343 179.230461 
L 516.544897 438.019881 
L 516.76445 163.137083 
L 516.984003 382.055242 
L 517.203556 434.365154 
L 517.423109 427.641373 
L 517.642662 461.438059 
L 517.862215 349.211902 
L 518.081769 361.42724 
L 518.301322 442.925651 
L 518.959981 252.221836 
L 519.179534 492.347732 
L 519.399088 248.692242 
L 519.618641 229.658679 
L 519.838194 442.2557 
L 520.2773 323.414503 
L 520.496853 382.845292 
L 520.716406 306.237012 
L 520.93596 307.629227 
L 521.155513 373.400873 
L 521.375066 375.816787 
L 521.594619 355.549812 
L 521.814172 443.293426 
L 522.033725 377.800553 
L 522.253279 424.733523 
L 522.472832 421.052743 
L 522.692385 444.256908 
L 522.911938 343.988958 
L 523.351044 264.449807 
L 523.570597 302.226364 
L 523.790151 493.616595 
L 524.009704 352.927225 
L 524.229257 305.296056 
L 524.44881 455.433915 
L 524.668363 452.365273 
L 524.887916 276.258349 
L 525.10747 402.059902 
L 525.327023 360.057286 
L 525.546576 409.39065 
L 525.766129 308.179611 
L 525.985682 456.411965 
L 526.205235 317.255562 
L 526.424788 416.910524 
L 526.644342 320.880662 
L 526.863895 176.003563 
L 527.083448 457.414097 
L 527.303001 338.584625 
L 527.522554 381.35651 
L 527.742107 315.127088 
L 527.96166 480.35091 
L 528.181214 472.409027 
L 528.400767 425.089551 
L 528.839873 259.323402 
L 529.059426 490.931941 
L 529.278979 466.109602 
L 529.498533 320.521047 
L 529.718086 401.563182 
L 529.937639 377.073741 
L 530.157192 387.119848 
L 530.376745 343.718832 
L 530.596298 427.051812 
L 530.815851 344.066577 
L 531.035405 367.223178 
L 531.254958 451.821029 
L 531.474511 395.375132 
L 531.694064 388.417623 
L 531.913617 447.85454 
L 532.13317 224.957708 
L 532.352724 198.415195 
L 532.572277 430.176123 
L 532.79183 368.034376 
L 533.011383 374.573031 
L 533.230936 465.019439 
L 533.450489 412.190711 
L 533.670042 467.096376 
L 533.889596 431.049468 
L 534.109149 342.099448 
L 534.328702 345.873342 
L 534.767808 457.411893 
L 534.987361 370.328232 
L 535.206915 493.26211 
L 535.426468 354.956725 
L 535.646021 330.207856 
L 535.865574 409.211376 
L 536.085127 266.472204 
L 536.30468 394.603089 
L 536.524233 420.704068 
L 536.743787 398.51043 
L 536.96334 328.325606 
L 537.182893 446.25772 
L 537.402446 337.93779 
L 537.621999 463.307477 
L 537.841552 291.267307 
L 538.061106 513.149053 
L 538.500212 392.948664 
L 538.719765 441.167878 
L 539.158871 189.741378 
L 539.378424 440.990209 
L 539.597978 380.024371 
L 539.817531 266.024536 
L 540.037084 245.677031 
L 540.256637 447.121563 
L 540.47619 510.931024 
L 540.695743 198.402613 
L 541.13485 416.083849 
L 541.354403 163.854744 
L 541.573956 472.183087 
L 541.793509 396.637715 
L 542.013062 252.026576 
L 542.232615 361.881456 
L 542.671722 449.28247 
L 542.891275 304.771624 
L 543.110828 476.969952 
L 543.330381 213.254283 
L 543.549934 301.834298 
L 543.769488 468.724871 
L 543.989041 487.112481 
L 544.208594 376.196616 
L 544.428147 341.353207 
L 544.6477 480.523817 
L 544.867253 479.450621 
L 545.086806 410.351646 
L 545.30636 272.767621 
L 545.525913 364.873736 
L 545.745466 292.49341 
L 545.745466 292.49341 
" style="fill:none;stroke:#96c69a;stroke-linecap:round;stroke-width:3;"/>
   </g>
   <g id="line2d_2">
    <path clip-path="url(#p9fb7f1d68b)" d="M 106.858713 495.155962 
L 107.078266 420.772581 
L 107.297819 420.829617 
L 107.517372 424.863398 
L 107.736925 320.204149 
L 107.956478 481.517495 
L 108.176032 396.227493 
L 108.395585 323.037742 
L 108.615138 317.981633 
L 108.834691 306.627203 
L 109.054244 366.447987 
L 109.273797 434.765596 
L 109.493351 349.807305 
L 109.712904 374.630569 
L 109.932457 354.537104 
L 110.15201 385.642727 
L 110.371563 373.348887 
L 110.591116 383.231669 
L 110.810669 312.210071 
L 111.030223 344.507171 
" style="fill:none;stroke:#1a283d;stroke-linecap:round;stroke-width:3;"/>
   </g>
   <g id="line2d_3"/>
   <g id="line2d_4"/>
   <g id="patch_3">
    <path d="M 84.914375 603.86 
L 84.914375 109.484571 
" style="fill:none;stroke:#262626;stroke-linecap:square;stroke-linejoin:miter;stroke-width:2.5;"/>
   </g>
   <g id="patch_4">
    <path d="M 84.914375 603.86 
L 567.689804 603.86 
" style="fill:none;stroke:#262626;stroke-linecap:square;stroke-linejoin:miter;stroke-width:2.5;"/>
   </g>
   <g id="legend_1">
    <g id="patch_5">
     <path d="M 514.774179 598.86 
L 560.689804 598.86 
Q 562.689804 598.86 562.689804 596.86 
L 562.689804 540.27625 
Q 562.689804 538.27625 560.689804 538.27625 
L 514.774179 538.27625 
Q 512.774179 538.27625 512.774179 540.27625 
L 512.774179 596.86 
Q 512.774179 598.86 514.774179 598.86 
z
" style="fill:#ffffff;opacity:0.8;stroke:#cccccc;stroke-linejoin:miter;stroke-width:2;"/>
    </g>
    <g id="text_17">
     <!-- $n_\tau$ -->
     <g style="fill:#262626;" transform="translate(524.651991 560.5125)scale(0.24 -0.24)">
      <defs>
       <path d="M 3566 2113 
L 3156 0 
L 2578 0 
L 2988 2091 
Q 3016 2238 3031 2350 
Q 3047 2463 3047 2528 
Q 3047 2791 2881 2937 
Q 2716 3084 2419 3084 
Q 1956 3084 1622 2776 
Q 1288 2469 1184 1941 
L 800 0 
L 225 0 
L 903 3500 
L 1478 3500 
L 1363 2950 
Q 1603 3253 1940 3418 
Q 2278 3584 2650 3584 
Q 3113 3584 3367 3334 
Q 3622 3084 3622 2631 
Q 3622 2519 3608 2391 
Q 3594 2263 3566 2113 
z
" id="DejaVuSans-Oblique-6e" transform="scale(0.015625)"/>
       <path d="M 2103 638 
Q 2188 488 2525 488 
L 2800 488 
L 2706 0 
L 2363 0 
Q 1800 0 1600 300 
Q 1403 606 1534 1269 
L 1856 2925 
L 541 2925 
L 653 3500 
L 3881 3500 
L 3769 2925 
L 2444 2925 
L 2113 1234 
Q 2025 781 2103 638 
z
" id="DejaVuSans-Oblique-3c4" transform="scale(0.015625)"/>
      </defs>
      <use xlink:href="#DejaVuSans-Oblique-6e"/>
      <use transform="translate(63.378906 -16.40625)scale(0.7)" xlink:href="#DejaVuSans-Oblique-3c4"/>
     </g>
    </g>
    <g id="line2d_5">
     <path d="M 516.774179 574.602188 
L 536.774179 574.602188 
" style="fill:none;stroke:#96c69a;stroke-linecap:round;stroke-width:3;"/>
    </g>
    <g id="line2d_6"/>
    <g id="text_18">
     <!-- 40 -->
     <g style="fill:#262626;" transform="translate(544.774179 578.102188)scale(0.1 -0.1)">
      <defs>
       <path d="M 2356 3675 
L 1038 1722 
L 2356 1722 
L 2356 3675 
z
M 2156 4666 
L 3494 4666 
L 3494 1722 
L 4159 1722 
L 4159 850 
L 3494 850 
L 3494 0 
L 2356 0 
L 2356 850 
L 288 850 
L 288 1881 
L 2156 4666 
z
" id="DejaVuSans-Bold-34" transform="scale(0.015625)"/>
       <path d="M 2944 2338 
Q 2944 3213 2780 3570 
Q 2616 3928 2228 3928 
Q 1841 3928 1675 3570 
Q 1509 3213 1509 2338 
Q 1509 1453 1675 1090 
Q 1841 728 2228 728 
Q 2613 728 2778 1090 
Q 2944 1453 2944 2338 
z
M 4147 2328 
Q 4147 1169 3647 539 
Q 3147 -91 2228 -91 
Q 1306 -91 806 539 
Q 306 1169 306 2328 
Q 306 3491 806 4120 
Q 1306 4750 2228 4750 
Q 3147 4750 3647 4120 
Q 4147 3491 4147 2328 
z
" id="DejaVuSans-Bold-30" transform="scale(0.015625)"/>
      </defs>
      <use xlink:href="#DejaVuSans-Bold-34"/>
      <use x="69.580078" xlink:href="#DejaVuSans-Bold-30"/>
     </g>
    </g>
    <g id="line2d_7">
     <path d="M 516.774179 589.280313 
L 536.774179 589.280313 
" style="fill:none;stroke:#1a283d;stroke-linecap:round;stroke-width:3;"/>
    </g>
    <g id="line2d_8"/>
    <g id="text_19">
     <!-- 50 -->
     <g style="fill:#262626;" transform="translate(544.774179 592.780313)scale(0.1 -0.1)">
      <defs>
       <path d="M 678 4666 
L 3669 4666 
L 3669 3781 
L 1638 3781 
L 1638 3059 
Q 1775 3097 1914 3117 
Q 2053 3138 2203 3138 
Q 3056 3138 3531 2711 
Q 4006 2284 4006 1522 
Q 4006 766 3489 337 
Q 2972 -91 2053 -91 
Q 1656 -91 1267 -14 
Q 878 63 494 219 
L 494 1166 
Q 875 947 1217 837 
Q 1559 728 1863 728 
Q 2300 728 2551 942 
Q 2803 1156 2803 1522 
Q 2803 1891 2551 2103 
Q 2300 2316 1863 2316 
Q 1603 2316 1309 2248 
Q 1016 2181 678 2041 
L 678 4666 
z
" id="DejaVuSans-Bold-35" transform="scale(0.015625)"/>
      </defs>
      <use xlink:href="#DejaVuSans-Bold-35"/>
      <use x="69.580078" xlink:href="#DejaVuSans-Bold-30"/>
     </g>
    </g>
   </g>
  </g>
  <g id="axes_2">
   <g id="patch_6">
    <path d="M 84.914375 92.437143 
L 567.689804 92.437143 
L 567.689804 7.2 
L 84.914375 7.2 
z
" style="fill:none;"/>
   </g>
   <g id="matplotlib.axis_3">
    <g id="xtick_7"/>
    <g id="xtick_8"/>
    <g id="xtick_9"/>
    <g id="xtick_10"/>
    <g id="xtick_11"/>
    <g id="xtick_12"/>
   </g>
   <g id="matplotlib.axis_4">
    <g id="ytick_9">
     <g id="text_20">
      <!-- 0 -->
      <g style="fill:#262626;" transform="translate(55.416875 100.795424)scale(0.22 -0.22)">
       <use xlink:href="#DejaVuSans-30"/>
      </g>
     </g>
    </g>
    <g id="ytick_10">
     <g id="text_21">
      <!-- 100 -->
      <g style="fill:#262626;" transform="translate(27.421875 48.082287)scale(0.22 -0.22)">
       <use xlink:href="#DejaVuSans-31"/>
       <use x="63.623047" xlink:href="#DejaVuSans-30"/>
       <use x="127.246094" xlink:href="#DejaVuSans-30"/>
      </g>
     </g>
    </g>
   </g>
   <g id="patch_7">
    <path clip-path="url(#pc9d3e7833e)" d="M 106.858713 92.437143 
L 140.619232 92.437143 
L 140.619232 81.894515 
L 106.858713 81.894515 
z
" style="fill:#1a283d;fill-opacity:0.5;stroke:#ffffff;stroke-linejoin:miter;stroke-width:2;"/>
   </g>
   <g id="patch_8">
    <path clip-path="url(#pc9d3e7833e)" d="M 140.619232 92.437143 
L 174.379752 92.437143 
L 174.379752 92.437143 
L 140.619232 92.437143 
z
" style="fill:#1a283d;fill-opacity:0.5;stroke:#ffffff;stroke-linejoin:miter;stroke-width:2;"/>
   </g>
   <g id="patch_9">
    <path clip-path="url(#pc9d3e7833e)" d="M 174.379752 92.437143 
L 208.140271 92.437143 
L 208.140271 92.437143 
L 174.379752 92.437143 
z
" style="fill:#1a283d;fill-opacity:0.5;stroke:#ffffff;stroke-linejoin:miter;stroke-width:2;"/>
   </g>
   <g id="patch_10">
    <path clip-path="url(#pc9d3e7833e)" d="M 208.140271 92.437143 
L 241.900791 92.437143 
L 241.900791 92.437143 
L 208.140271 92.437143 
z
" style="fill:#1a283d;fill-opacity:0.5;stroke:#ffffff;stroke-linejoin:miter;stroke-width:2;"/>
   </g>
   <g id="patch_11">
    <path clip-path="url(#pc9d3e7833e)" d="M 241.900791 92.437143 
L 275.66131 92.437143 
L 275.66131 92.437143 
L 241.900791 92.437143 
z
" style="fill:#1a283d;fill-opacity:0.5;stroke:#ffffff;stroke-linejoin:miter;stroke-width:2;"/>
   </g>
   <g id="patch_12">
    <path clip-path="url(#pc9d3e7833e)" d="M 275.66131 92.437143 
L 309.42183 92.437143 
L 309.42183 92.437143 
L 275.66131 92.437143 
z
" style="fill:#1a283d;fill-opacity:0.5;stroke:#ffffff;stroke-linejoin:miter;stroke-width:2;"/>
   </g>
   <g id="patch_13">
    <path clip-path="url(#pc9d3e7833e)" d="M 309.42183 92.437143 
L 343.182349 92.437143 
L 343.182349 92.437143 
L 309.42183 92.437143 
z
" style="fill:#1a283d;fill-opacity:0.5;stroke:#ffffff;stroke-linejoin:miter;stroke-width:2;"/>
   </g>
   <g id="patch_14">
    <path clip-path="url(#pc9d3e7833e)" d="M 343.182349 92.437143 
L 376.942869 92.437143 
L 376.942869 92.437143 
L 343.182349 92.437143 
z
" style="fill:#1a283d;fill-opacity:0.5;stroke:#ffffff;stroke-linejoin:miter;stroke-width:2;"/>
   </g>
   <g id="patch_15">
    <path clip-path="url(#pc9d3e7833e)" d="M 376.942869 92.437143 
L 410.703388 92.437143 
L 410.703388 92.437143 
L 376.942869 92.437143 
z
" style="fill:#1a283d;fill-opacity:0.5;stroke:#ffffff;stroke-linejoin:miter;stroke-width:2;"/>
   </g>
   <g id="patch_16">
    <path clip-path="url(#pc9d3e7833e)" d="M 410.703388 92.437143 
L 444.463907 92.437143 
L 444.463907 92.437143 
L 410.703388 92.437143 
z
" style="fill:#1a283d;fill-opacity:0.5;stroke:#ffffff;stroke-linejoin:miter;stroke-width:2;"/>
   </g>
   <g id="patch_17">
    <path clip-path="url(#pc9d3e7833e)" d="M 444.463907 92.437143 
L 478.224427 92.437143 
L 478.224427 92.437143 
L 444.463907 92.437143 
z
" style="fill:#1a283d;fill-opacity:0.5;stroke:#ffffff;stroke-linejoin:miter;stroke-width:2;"/>
   </g>
   <g id="patch_18">
    <path clip-path="url(#pc9d3e7833e)" d="M 478.224427 92.437143 
L 511.984946 92.437143 
L 511.984946 92.437143 
L 478.224427 92.437143 
z
" style="fill:#1a283d;fill-opacity:0.5;stroke:#ffffff;stroke-linejoin:miter;stroke-width:2;"/>
   </g>
   <g id="patch_19">
    <path clip-path="url(#pc9d3e7833e)" d="M 511.984946 92.437143 
L 545.745466 92.437143 
L 545.745466 92.437143 
L 511.984946 92.437143 
z
" style="fill:#1a283d;fill-opacity:0.5;stroke:#ffffff;stroke-linejoin:miter;stroke-width:2;"/>
   </g>
   <g id="patch_20">
    <path clip-path="url(#pc9d3e7833e)" d="M 106.858713 92.437143 
L 140.619232 92.437143 
L 140.619232 21.801539 
L 106.858713 21.801539 
z
" style="fill:#96c69a;fill-opacity:0.5;stroke:#ffffff;stroke-linejoin:miter;stroke-width:2;"/>
   </g>
   <g id="patch_21">
    <path clip-path="url(#pc9d3e7833e)" d="M 140.619232 92.437143 
L 174.379752 92.437143 
L 174.379752 11.258912 
L 140.619232 11.258912 
z
" style="fill:#96c69a;fill-opacity:0.5;stroke:#ffffff;stroke-linejoin:miter;stroke-width:2;"/>
   </g>
   <g id="patch_22">
    <path clip-path="url(#pc9d3e7833e)" d="M 174.379752 92.437143 
L 208.140271 92.437143 
L 208.140271 11.258912 
L 174.379752 11.258912 
z
" style="fill:#96c69a;fill-opacity:0.5;stroke:#ffffff;stroke-linejoin:miter;stroke-width:2;"/>
   </g>
   <g id="patch_23">
    <path clip-path="url(#pc9d3e7833e)" d="M 208.140271 92.437143 
L 241.900791 92.437143 
L 241.900791 11.258912 
L 208.140271 11.258912 
z
" style="fill:#96c69a;fill-opacity:0.5;stroke:#ffffff;stroke-linejoin:miter;stroke-width:2;"/>
   </g>
   <g id="patch_24">
    <path clip-path="url(#pc9d3e7833e)" d="M 241.900791 92.437143 
L 275.66131 92.437143 
L 275.66131 11.786043 
L 241.900791 11.786043 
z
" style="fill:#96c69a;fill-opacity:0.5;stroke:#ffffff;stroke-linejoin:miter;stroke-width:2;"/>
   </g>
   <g id="patch_25">
    <path clip-path="url(#pc9d3e7833e)" d="M 275.66131 92.437143 
L 309.42183 92.437143 
L 309.42183 11.258912 
L 275.66131 11.258912 
z
" style="fill:#96c69a;fill-opacity:0.5;stroke:#ffffff;stroke-linejoin:miter;stroke-width:2;"/>
   </g>
   <g id="patch_26">
    <path clip-path="url(#pc9d3e7833e)" d="M 309.42183 92.437143 
L 343.182349 92.437143 
L 343.182349 11.258912 
L 309.42183 11.258912 
z
" style="fill:#96c69a;fill-opacity:0.5;stroke:#ffffff;stroke-linejoin:miter;stroke-width:2;"/>
   </g>
   <g id="patch_27">
    <path clip-path="url(#pc9d3e7833e)" d="M 343.182349 92.437143 
L 376.942869 92.437143 
L 376.942869 11.258912 
L 343.182349 11.258912 
z
" style="fill:#96c69a;fill-opacity:0.5;stroke:#ffffff;stroke-linejoin:miter;stroke-width:2;"/>
   </g>
   <g id="patch_28">
    <path clip-path="url(#pc9d3e7833e)" d="M 376.942869 92.437143 
L 410.703388 92.437143 
L 410.703388 11.786043 
L 376.942869 11.786043 
z
" style="fill:#96c69a;fill-opacity:0.5;stroke:#ffffff;stroke-linejoin:miter;stroke-width:2;"/>
   </g>
   <g id="patch_29">
    <path clip-path="url(#pc9d3e7833e)" d="M 410.703388 92.437143 
L 444.463907 92.437143 
L 444.463907 11.258912 
L 410.703388 11.258912 
z
" style="fill:#96c69a;fill-opacity:0.5;stroke:#ffffff;stroke-linejoin:miter;stroke-width:2;"/>
   </g>
   <g id="patch_30">
    <path clip-path="url(#pc9d3e7833e)" d="M 444.463907 92.437143 
L 478.224427 92.437143 
L 478.224427 11.258912 
L 444.463907 11.258912 
z
" style="fill:#96c69a;fill-opacity:0.5;stroke:#ffffff;stroke-linejoin:miter;stroke-width:2;"/>
   </g>
   <g id="patch_31">
    <path clip-path="url(#pc9d3e7833e)" d="M 478.224427 92.437143 
L 511.984946 92.437143 
L 511.984946 11.258912 
L 478.224427 11.258912 
z
" style="fill:#96c69a;fill-opacity:0.5;stroke:#ffffff;stroke-linejoin:miter;stroke-width:2;"/>
   </g>
   <g id="patch_32">
    <path clip-path="url(#pc9d3e7833e)" d="M 511.984946 92.437143 
L 545.745466 92.437143 
L 545.745466 11.258912 
L 511.984946 11.258912 
z
" style="fill:#96c69a;fill-opacity:0.5;stroke:#ffffff;stroke-linejoin:miter;stroke-width:2;"/>
   </g>
   <g id="patch_33">
    <path d="M 84.914375 92.437143 
L 84.914375 7.2 
" style="fill:none;stroke:#262626;stroke-linecap:square;stroke-linejoin:miter;stroke-width:2.5;"/>
   </g>
   <g id="patch_34">
    <path d="M 84.914375 92.437143 
L 567.689804 92.437143 
" style="fill:none;stroke:#262626;stroke-linecap:square;stroke-linejoin:miter;stroke-width:2.5;"/>
   </g>
  </g>
  <g id="axes_3">
   <g id="patch_35">
    <path d="M 584.337232 603.86 
L 667.574375 603.86 
L 667.574375 109.484571 
L 584.337232 109.484571 
z
" style="fill:none;"/>
   </g>
   <g id="matplotlib.axis_5">
    <g id="xtick_13">
     <g id="text_22">
      <!-- 0 -->
      <g style="fill:#262626;" transform="translate(577.338482 636.076563)scale(0.22 -0.22)">
       <use xlink:href="#DejaVuSans-30"/>
      </g>
     </g>
    </g>
    <g id="xtick_14">
     <g id="text_23">
      <!-- 100 -->
      <g style="fill:#262626;" transform="translate(606.659818 636.076563)scale(0.22 -0.22)">
       <use xlink:href="#DejaVuSans-31"/>
       <use x="63.623047" xlink:href="#DejaVuSans-30"/>
       <use x="127.246094" xlink:href="#DejaVuSans-30"/>
      </g>
     </g>
    </g>
   </g>
   <g id="matplotlib.axis_6">
    <g id="ytick_11"/>
    <g id="ytick_12"/>
    <g id="ytick_13"/>
    <g id="ytick_14"/>
    <g id="ytick_15"/>
    <g id="ytick_16"/>
    <g id="ytick_17"/>
    <g id="ytick_18"/>
   </g>
   <g id="patch_36">
    <path clip-path="url(#p1f00df0ad5)" d="M 584.337232 581.38839 
L 584.337232 581.38839 
L 584.337232 565.890727 
L 584.337232 565.890727 
z
" style="fill:#1a283d;fill-opacity:0.5;stroke:#ffffff;stroke-linejoin:miter;stroke-width:1.549766;"/>
   </g>
   <g id="patch_37">
    <path clip-path="url(#p1f00df0ad5)" d="M 584.337232 565.890727 
L 584.337232 565.890727 
L 584.337232 550.393065 
L 584.337232 550.393065 
z
" style="fill:#1a283d;fill-opacity:0.5;stroke:#ffffff;stroke-linejoin:miter;stroke-width:1.549766;"/>
   </g>
   <g id="patch_38">
    <path clip-path="url(#p1f00df0ad5)" d="M 584.337232 550.393065 
L 584.337232 550.393065 
L 584.337232 534.895403 
L 584.337232 534.895403 
z
" style="fill:#1a283d;fill-opacity:0.5;stroke:#ffffff;stroke-linejoin:miter;stroke-width:1.549766;"/>
   </g>
   <g id="patch_39">
    <path clip-path="url(#p1f00df0ad5)" d="M 584.337232 534.895403 
L 584.337232 534.895403 
L 584.337232 519.39774 
L 584.337232 519.39774 
z
" style="fill:#1a283d;fill-opacity:0.5;stroke:#ffffff;stroke-linejoin:miter;stroke-width:1.549766;"/>
   </g>
   <g id="patch_40">
    <path clip-path="url(#p1f00df0ad5)" d="M 584.337232 519.39774 
L 584.337232 519.39774 
L 584.337232 503.900078 
L 584.337232 503.900078 
z
" style="fill:#1a283d;fill-opacity:0.5;stroke:#ffffff;stroke-linejoin:miter;stroke-width:1.549766;"/>
   </g>
   <g id="patch_41">
    <path clip-path="url(#p1f00df0ad5)" d="M 584.337232 503.900078 
L 584.770421 503.900078 
L 584.770421 488.402416 
L 584.337232 488.402416 
z
" style="fill:#1a283d;fill-opacity:0.5;stroke:#ffffff;stroke-linejoin:miter;stroke-width:1.549766;"/>
   </g>
   <g id="patch_42">
    <path clip-path="url(#p1f00df0ad5)" d="M 584.337232 488.402416 
L 584.770421 488.402416 
L 584.770421 472.904753 
L 584.337232 472.904753 
z
" style="fill:#1a283d;fill-opacity:0.5;stroke:#ffffff;stroke-linejoin:miter;stroke-width:1.549766;"/>
   </g>
   <g id="patch_43">
    <path clip-path="url(#p1f00df0ad5)" d="M 584.337232 472.904753 
L 584.337232 472.904753 
L 584.337232 457.407091 
L 584.337232 457.407091 
z
" style="fill:#1a283d;fill-opacity:0.5;stroke:#ffffff;stroke-linejoin:miter;stroke-width:1.549766;"/>
   </g>
   <g id="patch_44">
    <path clip-path="url(#p1f00df0ad5)" d="M 584.337232 457.407091 
L 584.337232 457.407091 
L 584.337232 441.909429 
L 584.337232 441.909429 
z
" style="fill:#1a283d;fill-opacity:0.5;stroke:#ffffff;stroke-linejoin:miter;stroke-width:1.549766;"/>
   </g>
   <g id="patch_45">
    <path clip-path="url(#p1f00df0ad5)" d="M 584.337232 441.909429 
L 584.770421 441.909429 
L 584.770421 426.411766 
L 584.337232 426.411766 
z
" style="fill:#1a283d;fill-opacity:0.5;stroke:#ffffff;stroke-linejoin:miter;stroke-width:1.549766;"/>
   </g>
   <g id="patch_46">
    <path clip-path="url(#p1f00df0ad5)" d="M 584.337232 426.411766 
L 585.636797 426.411766 
L 585.636797 410.914104 
L 584.337232 410.914104 
z
" style="fill:#1a283d;fill-opacity:0.5;stroke:#ffffff;stroke-linejoin:miter;stroke-width:1.549766;"/>
   </g>
   <g id="patch_47">
    <path clip-path="url(#p1f00df0ad5)" d="M 584.337232 410.914104 
L 584.770421 410.914104 
L 584.770421 395.416442 
L 584.337232 395.416442 
z
" style="fill:#1a283d;fill-opacity:0.5;stroke:#ffffff;stroke-linejoin:miter;stroke-width:1.549766;"/>
   </g>
   <g id="patch_48">
    <path clip-path="url(#p1f00df0ad5)" d="M 584.337232 395.416442 
L 585.203609 395.416442 
L 585.203609 379.918779 
L 584.337232 379.918779 
z
" style="fill:#1a283d;fill-opacity:0.5;stroke:#ffffff;stroke-linejoin:miter;stroke-width:1.549766;"/>
   </g>
   <g id="patch_49">
    <path clip-path="url(#p1f00df0ad5)" d="M 584.337232 379.918779 
L 585.636797 379.918779 
L 585.636797 364.421117 
L 584.337232 364.421117 
z
" style="fill:#1a283d;fill-opacity:0.5;stroke:#ffffff;stroke-linejoin:miter;stroke-width:1.549766;"/>
   </g>
   <g id="patch_50">
    <path clip-path="url(#p1f00df0ad5)" d="M 584.337232 364.421117 
L 585.203609 364.421117 
L 585.203609 348.923455 
L 584.337232 348.923455 
z
" style="fill:#1a283d;fill-opacity:0.5;stroke:#ffffff;stroke-linejoin:miter;stroke-width:1.549766;"/>
   </g>
   <g id="patch_51">
    <path clip-path="url(#p1f00df0ad5)" d="M 584.337232 348.923455 
L 584.770421 348.923455 
L 584.770421 333.425792 
L 584.337232 333.425792 
z
" style="fill:#1a283d;fill-opacity:0.5;stroke:#ffffff;stroke-linejoin:miter;stroke-width:1.549766;"/>
   </g>
   <g id="patch_52">
    <path clip-path="url(#p1f00df0ad5)" d="M 584.337232 333.425792 
L 585.636797 333.425792 
L 585.636797 317.92813 
L 584.337232 317.92813 
z
" style="fill:#1a283d;fill-opacity:0.5;stroke:#ffffff;stroke-linejoin:miter;stroke-width:1.549766;"/>
   </g>
   <g id="patch_53">
    <path clip-path="url(#p1f00df0ad5)" d="M 584.337232 317.92813 
L 585.203609 317.92813 
L 585.203609 302.430468 
L 584.337232 302.430468 
z
" style="fill:#1a283d;fill-opacity:0.5;stroke:#ffffff;stroke-linejoin:miter;stroke-width:1.549766;"/>
   </g>
   <g id="patch_54">
    <path clip-path="url(#p1f00df0ad5)" d="M 584.337232 302.430468 
L 584.337232 302.430468 
L 584.337232 286.932805 
L 584.337232 286.932805 
z
" style="fill:#1a283d;fill-opacity:0.5;stroke:#ffffff;stroke-linejoin:miter;stroke-width:1.549766;"/>
   </g>
   <g id="patch_55">
    <path clip-path="url(#p1f00df0ad5)" d="M 584.337232 286.932805 
L 584.337232 286.932805 
L 584.337232 271.435143 
L 584.337232 271.435143 
z
" style="fill:#1a283d;fill-opacity:0.5;stroke:#ffffff;stroke-linejoin:miter;stroke-width:1.549766;"/>
   </g>
   <g id="patch_56">
    <path clip-path="url(#p1f00df0ad5)" d="M 584.337232 271.435143 
L 584.337232 271.435143 
L 584.337232 255.937481 
L 584.337232 255.937481 
z
" style="fill:#1a283d;fill-opacity:0.5;stroke:#ffffff;stroke-linejoin:miter;stroke-width:1.549766;"/>
   </g>
   <g id="patch_57">
    <path clip-path="url(#p1f00df0ad5)" d="M 584.337232 255.937481 
L 584.337232 255.937481 
L 584.337232 240.439818 
L 584.337232 240.439818 
z
" style="fill:#1a283d;fill-opacity:0.5;stroke:#ffffff;stroke-linejoin:miter;stroke-width:1.549766;"/>
   </g>
   <g id="patch_58">
    <path clip-path="url(#p1f00df0ad5)" d="M 584.337232 240.439818 
L 584.337232 240.439818 
L 584.337232 224.942156 
L 584.337232 224.942156 
z
" style="fill:#1a283d;fill-opacity:0.5;stroke:#ffffff;stroke-linejoin:miter;stroke-width:1.549766;"/>
   </g>
   <g id="patch_59">
    <path clip-path="url(#p1f00df0ad5)" d="M 584.337232 224.942156 
L 584.337232 224.942156 
L 584.337232 209.444494 
L 584.337232 209.444494 
z
" style="fill:#1a283d;fill-opacity:0.5;stroke:#ffffff;stroke-linejoin:miter;stroke-width:1.549766;"/>
   </g>
   <g id="patch_60">
    <path clip-path="url(#p1f00df0ad5)" d="M 584.337232 209.444494 
L 584.337232 209.444494 
L 584.337232 193.946831 
L 584.337232 193.946831 
z
" style="fill:#1a283d;fill-opacity:0.5;stroke:#ffffff;stroke-linejoin:miter;stroke-width:1.549766;"/>
   </g>
   <g id="patch_61">
    <path clip-path="url(#p1f00df0ad5)" d="M 584.337232 193.946831 
L 584.337232 193.946831 
L 584.337232 178.449169 
L 584.337232 178.449169 
z
" style="fill:#1a283d;fill-opacity:0.5;stroke:#ffffff;stroke-linejoin:miter;stroke-width:1.549766;"/>
   </g>
   <g id="patch_62">
    <path clip-path="url(#p1f00df0ad5)" d="M 584.337232 178.449169 
L 584.337232 178.449169 
L 584.337232 162.951506 
L 584.337232 162.951506 
z
" style="fill:#1a283d;fill-opacity:0.5;stroke:#ffffff;stroke-linejoin:miter;stroke-width:1.549766;"/>
   </g>
   <g id="patch_63">
    <path clip-path="url(#p1f00df0ad5)" d="M 584.337232 162.951506 
L 584.337232 162.951506 
L 584.337232 147.453844 
L 584.337232 147.453844 
z
" style="fill:#1a283d;fill-opacity:0.5;stroke:#ffffff;stroke-linejoin:miter;stroke-width:1.549766;"/>
   </g>
   <g id="patch_64">
    <path clip-path="url(#p1f00df0ad5)" d="M 584.337232 147.453844 
L 584.337232 147.453844 
L 584.337232 131.956182 
L 584.337232 131.956182 
z
" style="fill:#1a283d;fill-opacity:0.5;stroke:#ffffff;stroke-linejoin:miter;stroke-width:1.549766;"/>
   </g>
   <g id="patch_65">
    <path clip-path="url(#p1f00df0ad5)" d="M 584.337232 581.38839 
L 586.069986 581.38839 
L 586.069986 565.890727 
L 584.337232 565.890727 
z
" style="fill:#96c69a;fill-opacity:0.5;stroke:#ffffff;stroke-linejoin:miter;stroke-width:1.549766;"/>
   </g>
   <g id="patch_66">
    <path clip-path="url(#p1f00df0ad5)" d="M 584.337232 565.890727 
L 585.636797 565.890727 
L 585.636797 550.393065 
L 584.337232 550.393065 
z
" style="fill:#96c69a;fill-opacity:0.5;stroke:#ffffff;stroke-linejoin:miter;stroke-width:1.549766;"/>
   </g>
   <g id="patch_67">
    <path clip-path="url(#p1f00df0ad5)" d="M 584.337232 550.393065 
L 587.802739 550.393065 
L 587.802739 534.895403 
L 584.337232 534.895403 
z
" style="fill:#96c69a;fill-opacity:0.5;stroke:#ffffff;stroke-linejoin:miter;stroke-width:1.549766;"/>
   </g>
   <g id="patch_68">
    <path clip-path="url(#p1f00df0ad5)" d="M 584.337232 534.895403 
L 589.968681 534.895403 
L 589.968681 519.39774 
L 584.337232 519.39774 
z
" style="fill:#96c69a;fill-opacity:0.5;stroke:#ffffff;stroke-linejoin:miter;stroke-width:1.549766;"/>
   </g>
   <g id="patch_69">
    <path clip-path="url(#p1f00df0ad5)" d="M 584.337232 519.39774 
L 597.766071 519.39774 
L 597.766071 503.900078 
L 584.337232 503.900078 
z
" style="fill:#96c69a;fill-opacity:0.5;stroke:#ffffff;stroke-linejoin:miter;stroke-width:1.549766;"/>
   </g>
   <g id="patch_70">
    <path clip-path="url(#p1f00df0ad5)" d="M 584.337232 503.900078 
L 607.729403 503.900078 
L 607.729403 488.402416 
L 584.337232 488.402416 
z
" style="fill:#96c69a;fill-opacity:0.5;stroke:#ffffff;stroke-linejoin:miter;stroke-width:1.549766;"/>
   </g>
   <g id="patch_71">
    <path clip-path="url(#p1f00df0ad5)" d="M 584.337232 488.402416 
L 620.291866 488.402416 
L 620.291866 472.904753 
L 584.337232 472.904753 
z
" style="fill:#96c69a;fill-opacity:0.5;stroke:#ffffff;stroke-linejoin:miter;stroke-width:1.549766;"/>
   </g>
   <g id="patch_72">
    <path clip-path="url(#p1f00df0ad5)" d="M 584.337232 472.904753 
L 634.153893 472.904753 
L 634.153893 457.407091 
L 584.337232 457.407091 
z
" style="fill:#96c69a;fill-opacity:0.5;stroke:#ffffff;stroke-linejoin:miter;stroke-width:1.549766;"/>
   </g>
   <g id="patch_73">
    <path clip-path="url(#p1f00df0ad5)" d="M 584.337232 457.407091 
L 643.250849 457.407091 
L 643.250849 441.909429 
L 584.337232 441.909429 
z
" style="fill:#96c69a;fill-opacity:0.5;stroke:#ffffff;stroke-linejoin:miter;stroke-width:1.549766;"/>
   </g>
   <g id="patch_74">
    <path clip-path="url(#p1f00df0ad5)" d="M 584.337232 441.909429 
L 649.748674 441.909429 
L 649.748674 426.411766 
L 584.337232 426.411766 
z
" style="fill:#96c69a;fill-opacity:0.5;stroke:#ffffff;stroke-linejoin:miter;stroke-width:1.549766;"/>
   </g>
   <g id="patch_75">
    <path clip-path="url(#p1f00df0ad5)" d="M 584.337232 426.411766 
L 660.145195 426.411766 
L 660.145195 410.914104 
L 584.337232 410.914104 
z
" style="fill:#96c69a;fill-opacity:0.5;stroke:#ffffff;stroke-linejoin:miter;stroke-width:1.549766;"/>
   </g>
   <g id="patch_76">
    <path clip-path="url(#p1f00df0ad5)" d="M 584.337232 410.914104 
L 654.080558 410.914104 
L 654.080558 395.416442 
L 584.337232 395.416442 
z
" style="fill:#96c69a;fill-opacity:0.5;stroke:#ffffff;stroke-linejoin:miter;stroke-width:1.549766;"/>
   </g>
   <g id="patch_77">
    <path clip-path="url(#p1f00df0ad5)" d="M 584.337232 395.416442 
L 663.610702 395.416442 
L 663.610702 379.918779 
L 584.337232 379.918779 
z
" style="fill:#96c69a;fill-opacity:0.5;stroke:#ffffff;stroke-linejoin:miter;stroke-width:1.549766;"/>
   </g>
   <g id="patch_78">
    <path clip-path="url(#p1f00df0ad5)" d="M 584.337232 379.918779 
L 648.015921 379.918779 
L 648.015921 364.421117 
L 584.337232 364.421117 
z
" style="fill:#96c69a;fill-opacity:0.5;stroke:#ffffff;stroke-linejoin:miter;stroke-width:1.549766;"/>
   </g>
   <g id="patch_79">
    <path clip-path="url(#p1f00df0ad5)" d="M 584.337232 364.421117 
L 638.052588 364.421117 
L 638.052588 348.923455 
L 584.337232 348.923455 
z
" style="fill:#96c69a;fill-opacity:0.5;stroke:#ffffff;stroke-linejoin:miter;stroke-width:1.549766;"/>
   </g>
   <g id="patch_80">
    <path clip-path="url(#p1f00df0ad5)" d="M 584.337232 348.923455 
L 641.084907 348.923455 
L 641.084907 333.425792 
L 584.337232 333.425792 
z
" style="fill:#96c69a;fill-opacity:0.5;stroke:#ffffff;stroke-linejoin:miter;stroke-width:1.549766;"/>
   </g>
   <g id="patch_81">
    <path clip-path="url(#p1f00df0ad5)" d="M 584.337232 333.425792 
L 635.02027 333.425792 
L 635.02027 317.92813 
L 584.337232 317.92813 
z
" style="fill:#96c69a;fill-opacity:0.5;stroke:#ffffff;stroke-linejoin:miter;stroke-width:1.549766;"/>
   </g>
   <g id="patch_82">
    <path clip-path="url(#p1f00df0ad5)" d="M 584.337232 317.92813 
L 621.591431 317.92813 
L 621.591431 302.430468 
L 584.337232 302.430468 
z
" style="fill:#96c69a;fill-opacity:0.5;stroke:#ffffff;stroke-linejoin:miter;stroke-width:1.549766;"/>
   </g>
   <g id="patch_83">
    <path clip-path="url(#p1f00df0ad5)" d="M 584.337232 302.430468 
L 613.360852 302.430468 
L 613.360852 286.932805 
L 584.337232 286.932805 
z
" style="fill:#96c69a;fill-opacity:0.5;stroke:#ffffff;stroke-linejoin:miter;stroke-width:1.549766;"/>
   </g>
   <g id="patch_84">
    <path clip-path="url(#p1f00df0ad5)" d="M 584.337232 286.932805 
L 607.296215 286.932805 
L 607.296215 271.435143 
L 584.337232 271.435143 
z
" style="fill:#96c69a;fill-opacity:0.5;stroke:#ffffff;stroke-linejoin:miter;stroke-width:1.549766;"/>
   </g>
   <g id="patch_85">
    <path clip-path="url(#p1f00df0ad5)" d="M 584.337232 271.435143 
L 601.664766 271.435143 
L 601.664766 255.937481 
L 584.337232 255.937481 
z
" style="fill:#96c69a;fill-opacity:0.5;stroke:#ffffff;stroke-linejoin:miter;stroke-width:1.549766;"/>
   </g>
   <g id="patch_86">
    <path clip-path="url(#p1f00df0ad5)" d="M 584.337232 255.937481 
L 602.097955 255.937481 
L 602.097955 240.439818 
L 584.337232 240.439818 
z
" style="fill:#96c69a;fill-opacity:0.5;stroke:#ffffff;stroke-linejoin:miter;stroke-width:1.549766;"/>
   </g>
   <g id="patch_87">
    <path clip-path="url(#p1f00df0ad5)" d="M 584.337232 240.439818 
L 591.701434 240.439818 
L 591.701434 224.942156 
L 584.337232 224.942156 
z
" style="fill:#96c69a;fill-opacity:0.5;stroke:#ffffff;stroke-linejoin:miter;stroke-width:1.549766;"/>
   </g>
   <g id="patch_88">
    <path clip-path="url(#p1f00df0ad5)" d="M 584.337232 224.942156 
L 590.835058 224.942156 
L 590.835058 209.444494 
L 584.337232 209.444494 
z
" style="fill:#96c69a;fill-opacity:0.5;stroke:#ffffff;stroke-linejoin:miter;stroke-width:1.549766;"/>
   </g>
   <g id="patch_89">
    <path clip-path="url(#p1f00df0ad5)" d="M 584.337232 209.444494 
L 588.235927 209.444494 
L 588.235927 193.946831 
L 584.337232 193.946831 
z
" style="fill:#96c69a;fill-opacity:0.5;stroke:#ffffff;stroke-linejoin:miter;stroke-width:1.549766;"/>
   </g>
   <g id="patch_90">
    <path clip-path="url(#p1f00df0ad5)" d="M 584.337232 193.946831 
L 586.069986 193.946831 
L 586.069986 178.449169 
L 584.337232 178.449169 
z
" style="fill:#96c69a;fill-opacity:0.5;stroke:#ffffff;stroke-linejoin:miter;stroke-width:1.549766;"/>
   </g>
   <g id="patch_91">
    <path clip-path="url(#p1f00df0ad5)" d="M 584.337232 178.449169 
L 586.503174 178.449169 
L 586.503174 162.951506 
L 584.337232 162.951506 
z
" style="fill:#96c69a;fill-opacity:0.5;stroke:#ffffff;stroke-linejoin:miter;stroke-width:1.549766;"/>
   </g>
   <g id="patch_92">
    <path clip-path="url(#p1f00df0ad5)" d="M 584.337232 162.951506 
L 585.636797 162.951506 
L 585.636797 147.453844 
L 584.337232 147.453844 
z
" style="fill:#96c69a;fill-opacity:0.5;stroke:#ffffff;stroke-linejoin:miter;stroke-width:1.549766;"/>
   </g>
   <g id="patch_93">
    <path clip-path="url(#p1f00df0ad5)" d="M 584.337232 147.453844 
L 586.069986 147.453844 
L 586.069986 131.956182 
L 584.337232 131.956182 
z
" style="fill:#96c69a;fill-opacity:0.5;stroke:#ffffff;stroke-linejoin:miter;stroke-width:1.549766;"/>
   </g>
   <g id="patch_94">
    <path d="M 584.337232 603.86 
L 584.337232 109.484571 
" style="fill:none;stroke:#262626;stroke-linecap:square;stroke-linejoin:miter;stroke-width:2.5;"/>
   </g>
   <g id="patch_95">
    <path d="M 584.337232 603.86 
L 667.574375 603.86 
" style="fill:none;stroke:#262626;stroke-linecap:square;stroke-linejoin:miter;stroke-width:2.5;"/>
   </g>
  </g>
 </g>
 <defs>
  <clipPath id="p9fb7f1d68b">
   <rect height="494.375429" width="482.775429" x="84.914375" y="109.484571"/>
  </clipPath>
  <clipPath id="pc9d3e7833e">
   <rect height="85.237143" width="482.775429" x="84.914375" y="7.2"/>
  </clipPath>
  <clipPath id="p1f00df0ad5">
   <rect height="494.375429" width="83.237143" x="584.337232" y="109.484571"/>
  </clipPath>
 </defs>
</svg>
