<?xml version="1.0" encoding="utf-8" standalone="no"?>
<!DOCTYPE svg PUBLIC "-//W3C//DTD SVG 1.1//EN"
  "http://www.w3.org/Graphics/SVG/1.1/DTD/svg11.dtd">
<svg height="311.267375pt" version="1.1" viewBox="0 0 352.064525 311.267375" width="352.064525pt" xmlns="http://www.w3.org/2000/svg" xmlns:xlink="http://www.w3.org/1999/xlink">
 <metadata>
  <rdf:RDF xmlns:cc="http://creativecommons.org/ns#" xmlns:dc="http://purl.org/dc/elements/1.1/" xmlns:rdf="http://www.w3.org/1999/02/22-rdf-syntax-ns#">
   <cc:Work>
    <dc:type rdf:resource="http://purl.org/dc/dcmitype/StillImage"/>
    <dc:date>2021-07-24T15:32:04.565279</dc:date>
    <dc:format>image/svg+xml</dc:format>
    <dc:creator>
     <cc:Agent>
      <dc:title>Matplotlib v3.4.2, https://matplotlib.org/</dc:title>
     </cc:Agent>
    </dc:creator>
   </cc:Work>
  </rdf:RDF>
 </metadata>
 <defs>
  <style type="text/css">*{stroke-linecap:butt;stroke-linejoin:round;}</style>
 </defs>
 <g id="figure_1">
  <g id="patch_1">
   <path d="M 0 311.267375 
L 352.064525 311.267375 
L 352.064525 0 
L 0 0 
z
" style="fill:#ffffff;"/>
  </g>
  <g id="axes_1">
   <g id="patch_2">
    <path d="M 10.064525 49.536 
L 344.864525 49.536 
L 344.864525 7.2 
L 10.064525 7.2 
z
" style="fill:none;"/>
   </g>
   <g id="matplotlib.axis_1">
    <g id="xtick_1"/>
    <g id="xtick_2"/>
    <g id="xtick_3"/>
    <g id="xtick_4"/>
   </g>
   <g id="matplotlib.axis_2"/>
   <g id="PolyCollection_1">
    <defs>
     <path d="M 60.670007 -261.734178 
L 60.670007 -261.731375 
L 61.113939 -261.731375 
L 61.557871 -261.731375 
L 62.001803 -261.731375 
L 62.445735 -261.731375 
L 62.889667 -261.731375 
L 63.333599 -261.731375 
L 63.777531 -261.731375 
L 64.221462 -261.731375 
L 64.665394 -261.731375 
L 65.109326 -261.731375 
L 65.553258 -261.731375 
L 65.99719 -261.731375 
L 66.441122 -261.731375 
L 66.885054 -261.731375 
L 67.328986 -261.731375 
L 67.772918 -261.731375 
L 68.21685 -261.731375 
L 68.660782 -261.731375 
L 69.104714 -261.731375 
L 69.548645 -261.731375 
L 69.992577 -261.731375 
L 70.436509 -261.731375 
L 70.880441 -261.731375 
L 71.324373 -261.731375 
L 71.768305 -261.731375 
L 72.212237 -261.731375 
L 72.656169 -261.731375 
L 73.100101 -261.731375 
L 73.544033 -261.731375 
L 73.987965 -261.731375 
L 74.431897 -261.731375 
L 74.875828 -261.731375 
L 75.31976 -261.731375 
L 75.763692 -261.731375 
L 76.207624 -261.731375 
L 76.651556 -261.731375 
L 77.095488 -261.731375 
L 77.53942 -261.731375 
L 77.983352 -261.731375 
L 78.427284 -261.731375 
L 78.871216 -261.731375 
L 79.315148 -261.731375 
L 79.75908 -261.731375 
L 80.203011 -261.731375 
L 80.646943 -261.731375 
L 81.090875 -261.731375 
L 81.534807 -261.731375 
L 81.978739 -261.731375 
L 82.422671 -261.731375 
L 82.866603 -261.731375 
L 83.310535 -261.731375 
L 83.754467 -261.731375 
L 84.198399 -261.731375 
L 84.642331 -261.731375 
L 85.086263 -261.731375 
L 85.530194 -261.731375 
L 85.974126 -261.731375 
L 86.418058 -261.731375 
L 86.86199 -261.731375 
L 87.305922 -261.731375 
L 87.749854 -261.731375 
L 88.193786 -261.731375 
L 88.637718 -261.731375 
L 89.08165 -261.731375 
L 89.525582 -261.731375 
L 89.969514 -261.731375 
L 90.413446 -261.731375 
L 90.857377 -261.731375 
L 91.301309 -261.731375 
L 91.745241 -261.731375 
L 92.189173 -261.731375 
L 92.633105 -261.731375 
L 93.077037 -261.731375 
L 93.520969 -261.731375 
L 93.964901 -261.731375 
L 94.408833 -261.731375 
L 94.852765 -261.731375 
L 95.296697 -261.731375 
L 95.740629 -261.731375 
L 96.18456 -261.731375 
L 96.628492 -261.731375 
L 97.072424 -261.731375 
L 97.516356 -261.731375 
L 97.960288 -261.731375 
L 98.40422 -261.731375 
L 98.848152 -261.731375 
L 99.292084 -261.731375 
L 99.736016 -261.731375 
L 100.179948 -261.731375 
L 100.62388 -261.731375 
L 101.067812 -261.731375 
L 101.511743 -261.731375 
L 101.955675 -261.731375 
L 102.399607 -261.731375 
L 102.843539 -261.731375 
L 103.287471 -261.731375 
L 103.731403 -261.731375 
L 104.175335 -261.731375 
L 104.619267 -261.731375 
L 105.063199 -261.731375 
L 105.507131 -261.731375 
L 105.951063 -261.731375 
L 106.394995 -261.731375 
L 106.838926 -261.731375 
L 107.282858 -261.731375 
L 107.72679 -261.731375 
L 108.170722 -261.731375 
L 108.614654 -261.731375 
L 109.058586 -261.731375 
L 109.502518 -261.731375 
L 109.94645 -261.731375 
L 110.390382 -261.731375 
L 110.834314 -261.731375 
L 111.278246 -261.731375 
L 111.722178 -261.731375 
L 112.166109 -261.731375 
L 112.610041 -261.731375 
L 113.053973 -261.731375 
L 113.497905 -261.731375 
L 113.941837 -261.731375 
L 114.385769 -261.731375 
L 114.829701 -261.731375 
L 115.273633 -261.731375 
L 115.717565 -261.731375 
L 116.161497 -261.731375 
L 116.605429 -261.731375 
L 117.049361 -261.731375 
L 117.493292 -261.731375 
L 117.937224 -261.731375 
L 118.381156 -261.731375 
L 118.825088 -261.731375 
L 119.26902 -261.731375 
L 119.712952 -261.731375 
L 120.156884 -261.731375 
L 120.600816 -261.731375 
L 121.044748 -261.731375 
L 121.48868 -261.731375 
L 121.932612 -261.731375 
L 122.376544 -261.731375 
L 122.820475 -261.731375 
L 123.264407 -261.731375 
L 123.708339 -261.731375 
L 124.152271 -261.731375 
L 124.596203 -261.731375 
L 125.040135 -261.731375 
L 125.484067 -261.731375 
L 125.927999 -261.731375 
L 126.371931 -261.731375 
L 126.815863 -261.731375 
L 127.259795 -261.731375 
L 127.703727 -261.731375 
L 128.147658 -261.731375 
L 128.59159 -261.731375 
L 129.035522 -261.731375 
L 129.479454 -261.731375 
L 129.923386 -261.731375 
L 130.367318 -261.731375 
L 130.81125 -261.731375 
L 131.255182 -261.731375 
L 131.699114 -261.731375 
L 132.143046 -261.731375 
L 132.586978 -261.731375 
L 133.03091 -261.731375 
L 133.474841 -261.731375 
L 133.918773 -261.731375 
L 134.362705 -261.731375 
L 134.806637 -261.731375 
L 135.250569 -261.731375 
L 135.694501 -261.731375 
L 136.138433 -261.731375 
L 136.582365 -261.731375 
L 137.026297 -261.731375 
L 137.470229 -261.731375 
L 137.914161 -261.731375 
L 138.358093 -261.731375 
L 138.802024 -261.731375 
L 139.245956 -261.731375 
L 139.689888 -261.731375 
L 140.13382 -261.731375 
L 140.577752 -261.731375 
L 141.021684 -261.731375 
L 141.465616 -261.731375 
L 141.909548 -261.731375 
L 142.35348 -261.731375 
L 142.797412 -261.731375 
L 143.241344 -261.731375 
L 143.685276 -261.731375 
L 144.129208 -261.731375 
L 144.573139 -261.731375 
L 145.017071 -261.731375 
L 145.461003 -261.731375 
L 145.904935 -261.731375 
L 146.348867 -261.731375 
L 146.792799 -261.731375 
L 147.236731 -261.731375 
L 147.680663 -261.731375 
L 148.124595 -261.731375 
L 148.568527 -261.731375 
L 149.012459 -261.731375 
L 149.012459 -261.733417 
L 149.012459 -261.733417 
L 148.568527 -261.736586 
L 148.124595 -261.743369 
L 147.680663 -261.756312 
L 147.236731 -261.778337 
L 146.792799 -261.811794 
L 146.348867 -261.857264 
L 145.904935 -261.912809 
L 145.461003 -261.974237 
L 145.017071 -262.036281 
L 144.573139 -262.093852 
L 144.129208 -262.142581 
L 143.685276 -262.178768 
L 143.241344 -262.199614 
L 142.797412 -262.204161 
L 142.35348 -262.194255 
L 141.909548 -262.174348 
L 141.465616 -262.149788 
L 141.021684 -262.124583 
L 140.577752 -262.099973 
L 140.13382 -262.074608 
L 139.689888 -262.046267 
L 139.245956 -262.014554 
L 138.802024 -261.983582 
L 138.358093 -261.96326 
L 137.914161 -261.967919 
L 137.470229 -262.011909 
L 137.026297 -262.103358 
L 136.582365 -262.238718 
L 136.138433 -262.401285 
L 135.694501 -262.565857 
L 135.250569 -262.708767 
L 134.806637 -262.818937 
L 134.362705 -262.903739 
L 133.918773 -262.985467 
L 133.474841 -263.089388 
L 133.03091 -263.229501 
L 132.586978 -263.399833 
L 132.143046 -263.576173 
L 131.699114 -263.727328 
L 131.255182 -263.829755 
L 130.81125 -263.878201 
L 130.367318 -263.88826 
L 129.923386 -263.891533 
L 129.479454 -263.926374 
L 129.035522 -264.02646 
L 128.59159 -264.20882 
L 128.147658 -264.464731 
L 127.703727 -264.758913 
L 127.259795 -265.040468 
L 126.815863 -265.262697 
L 126.371931 -265.402707 
L 125.927999 -265.470809 
L 125.484067 -265.504785 
L 125.040135 -265.552147 
L 124.596203 -265.649762 
L 124.152271 -265.811421 
L 123.708339 -266.028843 
L 123.264407 -266.283142 
L 122.820475 -266.557871 
L 122.376544 -266.846075 
L 121.932612 -267.150575 
L 121.48868 -267.482052 
L 121.044748 -267.858432 
L 120.600816 -268.303973 
L 120.156884 -268.843881 
L 119.712952 -269.493545 
L 119.26902 -270.246991 
L 118.825088 -271.071131 
L 118.381156 -271.909192 
L 117.937224 -272.692369 
L 117.493292 -273.357024 
L 117.049361 -273.864327 
L 116.605429 -274.216586 
L 116.161497 -274.460756 
L 115.717565 -274.671634 
L 115.273633 -274.919034 
L 114.829701 -275.237911 
L 114.385769 -275.623386 
L 113.941837 -276.056374 
L 113.497905 -276.540453 
L 113.053973 -277.118479 
L 112.610041 -277.851441 
L 112.166109 -278.772125 
L 111.722178 -279.847183 
L 111.278246 -280.976054 
L 110.834314 -282.029028 
L 110.390382 -282.90088 
L 109.94645 -283.548309 
L 109.502518 -283.992118 
L 109.058586 -284.288723 
L 108.614654 -284.494823 
L 108.170722 -284.650907 
L 107.72679 -284.791682 
L 107.282858 -284.96794 
L 106.838926 -285.25452 
L 106.394995 -285.731254 
L 105.951063 -286.446858 
L 105.507131 -287.390409 
L 105.063199 -288.490994 
L 104.619267 -289.648147 
L 104.175335 -290.77628 
L 103.731403 -291.837292 
L 103.287471 -292.842618 
L 102.843539 -293.825566 
L 102.399607 -294.803736 
L 101.955675 -295.755425 
L 101.511743 -296.621367 
L 101.067812 -297.326381 
L 100.62388 -297.808369 
L 100.179948 -298.045112 
L 99.736016 -298.072497 
L 99.292084 -297.985988 
L 98.848152 -297.917695 
L 98.40422 -297.992373 
L 97.960288 -298.281916 
L 97.516356 -298.783306 
L 97.072424 -299.431007 
L 96.628492 -300.131809 
L 96.18456 -300.79777 
L 95.740629 -301.361012 
L 95.296697 -301.773269 
L 94.852765 -302.004794 
L 94.408833 -302.051375 
L 93.964901 -301.942771 
L 93.520969 -301.738616 
L 93.077037 -301.507766 
L 92.633105 -301.30408 
L 92.189173 -301.156469 
L 91.745241 -301.076907 
L 91.301309 -301.071209 
L 90.857377 -301.134577 
L 90.413446 -301.231557 
L 89.969514 -301.280737 
L 89.525582 -301.166589 
L 89.08165 -300.780642 
L 88.637718 -300.069572 
L 88.193786 -299.060684 
L 87.749854 -297.851033 
L 87.305922 -296.570232 
L 86.86199 -295.339364 
L 86.418058 -294.242775 
L 85.974126 -293.31533 
L 85.530194 -292.538799 
L 85.086263 -291.843001 
L 84.642331 -291.114972 
L 84.198399 -290.223035 
L 83.754467 -289.056529 
L 83.310535 -287.569053 
L 82.866603 -285.804133 
L 82.422671 -283.886926 
L 81.978739 -281.982985 
L 81.534807 -280.243346 
L 81.090875 -278.761764 
L 80.646943 -277.561129 
L 80.203011 -276.608636 
L 79.75908 -275.843902 
L 79.315148 -275.200395 
L 78.871216 -274.610718 
L 78.427284 -274.003042 
L 77.983352 -273.305134 
L 77.53942 -272.465051 
L 77.095488 -271.479177 
L 76.651556 -270.405657 
L 76.207624 -269.347048 
L 75.763692 -268.407219 
L 75.31976 -267.647471 
L 74.875828 -267.069011 
L 74.431897 -266.630441 
L 73.987965 -266.283904 
L 73.544033 -266.001869 
L 73.100101 -265.777487 
L 72.656169 -265.604933 
L 72.212237 -265.461641 
L 71.768305 -265.309429 
L 71.324373 -265.112671 
L 70.880441 -264.857144 
L 70.436509 -264.554741 
L 69.992577 -264.23287 
L 69.548645 -263.918872 
L 69.104714 -263.63039 
L 68.660782 -263.37503 
L 68.21685 -263.15555 
L 67.772918 -262.974722 
L 67.328986 -262.836 
L 66.885054 -262.739634 
L 66.441122 -262.677353 
L 65.99719 -262.630635 
L 65.553258 -262.57574 
L 65.109326 -262.493693 
L 64.665394 -262.379046 
L 64.221462 -262.241704 
L 63.777531 -262.100968 
L 63.333599 -261.976105 
L 62.889667 -261.879083 
L 62.445735 -261.812483 
L 62.001803 -261.771844 
L 61.557871 -261.749704 
L 61.113939 -261.738904 
L 60.670007 -261.734178 
z
" id="m41708ed9f2" style="stroke:#364c6e;stroke-width:1.5;"/>
    </defs>
    <g>
     <use style="fill:#364c6e;stroke:#364c6e;stroke-width:1.5;" x="0" xlink:href="#m41708ed9f2" y="311.267375"/>
    </g>
   </g>
   <g id="line2d_1">
    <path d="M 60.670007 49.533197 
L 62.445735 49.454892 
L 63.777531 49.166407 
L 65.553258 48.691635 
L 67.328986 48.431375 
L 68.21685 48.111825 
L 69.548645 47.348503 
L 71.324373 46.154704 
L 72.656169 45.662442 
L 73.544033 45.265506 
L 74.431897 44.636934 
L 75.31976 43.619904 
L 76.207624 41.920327 
L 77.983352 37.962241 
L 79.315148 36.06698 
L 80.203011 34.658739 
L 81.090875 32.505611 
L 81.978739 29.28439 
L 83.310535 23.698322 
L 84.198399 21.04434 
L 85.086263 19.424374 
L 85.974126 17.952045 
L 86.86199 15.928011 
L 88.637718 11.197803 
L 89.08165 10.486733 
L 89.525582 10.100786 
L 89.969514 9.986638 
L 91.745241 10.190468 
L 92.633105 9.963295 
L 94.408833 9.216 
L 94.852765 9.262581 
L 95.296697 9.494106 
L 96.18456 10.469605 
L 97.960288 12.985459 
L 98.40422 13.275002 
L 98.848152 13.34968 
L 100.179948 13.222263 
L 100.62388 13.459006 
L 101.067812 13.940994 
L 101.955675 15.51195 
L 104.175335 20.491095 
L 105.951063 24.820517 
L 106.394995 25.536121 
L 106.838926 26.012855 
L 107.72679 26.475693 
L 109.058586 26.978652 
L 109.502518 27.275257 
L 109.94645 27.719066 
L 110.390382 28.366495 
L 111.278246 30.291321 
L 112.610041 33.415934 
L 113.497905 34.726922 
L 114.829701 36.029464 
L 115.717565 36.595741 
L 116.605429 37.050789 
L 117.049361 37.403048 
L 117.937224 38.575006 
L 120.156884 42.423494 
L 121.044748 43.408943 
L 122.376544 44.4213 
L 124.152271 45.455954 
L 125.040135 45.715228 
L 126.815863 46.004678 
L 127.703727 46.508462 
L 128.59159 47.058555 
L 129.479454 47.341001 
L 131.699114 47.540047 
L 134.362705 48.363636 
L 135.694501 48.701518 
L 137.470229 49.255466 
L 138.802024 49.283793 
L 143.241344 49.067761 
L 145.017071 49.231094 
L 147.680663 49.511063 
L 149.012459 49.533958 
L 149.012459 49.533958 
" style="fill:none;stroke:#ffffff;stroke-linecap:round;stroke-width:2;"/>
   </g>
   <g id="line2d_2">
    <path d="M 10.064525 49.536 
L 344.864525 49.536 
" style="fill:none;stroke:#364c6e;stroke-linecap:round;stroke-width:2;"/>
   </g>
   <g id="text_1">
    <!-- 0.05 -->
    <g style="fill:#364c6e;" transform="translate(261.164525 47.6913)scale(0.24 -0.24)">
     <defs>
      <path d="M 2944 2338 
Q 2944 3213 2780 3570 
Q 2616 3928 2228 3928 
Q 1841 3928 1675 3570 
Q 1509 3213 1509 2338 
Q 1509 1453 1675 1090 
Q 1841 728 2228 728 
Q 2613 728 2778 1090 
Q 2944 1453 2944 2338 
z
M 4147 2328 
Q 4147 1169 3647 539 
Q 3147 -91 2228 -91 
Q 1306 -91 806 539 
Q 306 1169 306 2328 
Q 306 3491 806 4120 
Q 1306 4750 2228 4750 
Q 3147 4750 3647 4120 
Q 4147 3491 4147 2328 
z
" id="DejaVuSans-Bold-30" transform="scale(0.015625)"/>
      <path d="M 653 1209 
L 1778 1209 
L 1778 0 
L 653 0 
L 653 1209 
z
" id="DejaVuSans-Bold-2e" transform="scale(0.015625)"/>
      <path d="M 678 4666 
L 3669 4666 
L 3669 3781 
L 1638 3781 
L 1638 3059 
Q 1775 3097 1914 3117 
Q 2053 3138 2203 3138 
Q 3056 3138 3531 2711 
Q 4006 2284 4006 1522 
Q 4006 766 3489 337 
Q 2972 -91 2053 -91 
Q 1656 -91 1267 -14 
Q 878 63 494 219 
L 494 1166 
Q 875 947 1217 837 
Q 1559 728 1863 728 
Q 2300 728 2551 942 
Q 2803 1156 2803 1522 
Q 2803 1891 2551 2103 
Q 2300 2316 1863 2316 
Q 1603 2316 1309 2248 
Q 1016 2181 678 2041 
L 678 4666 
z
" id="DejaVuSans-Bold-35" transform="scale(0.015625)"/>
     </defs>
     <use xlink:href="#DejaVuSans-Bold-30"/>
     <use x="69.580078" xlink:href="#DejaVuSans-Bold-2e"/>
     <use x="107.568359" xlink:href="#DejaVuSans-Bold-30"/>
     <use x="177.148438" xlink:href="#DejaVuSans-Bold-35"/>
    </g>
   </g>
  </g>
  <g id="axes_2">
   <g id="patch_3">
    <path d="M 10.064525 81.288 
L 344.864525 81.288 
L 344.864525 38.952 
L 10.064525 38.952 
z
" style="fill:none;"/>
   </g>
   <g id="matplotlib.axis_3">
    <g id="xtick_5"/>
    <g id="xtick_6"/>
    <g id="xtick_7"/>
    <g id="xtick_8"/>
   </g>
   <g id="matplotlib.axis_4"/>
   <g id="PolyCollection_2">
    <defs>
     <path d="M 54.786942 -229.982582 
L 54.786942 -229.979375 
L 55.417427 -229.979375 
L 56.047912 -229.979375 
L 56.678396 -229.979375 
L 57.308881 -229.979375 
L 57.939366 -229.979375 
L 58.569851 -229.979375 
L 59.200336 -229.979375 
L 59.830821 -229.979375 
L 60.461306 -229.979375 
L 61.09179 -229.979375 
L 61.722275 -229.979375 
L 62.35276 -229.979375 
L 62.983245 -229.979375 
L 63.61373 -229.979375 
L 64.244215 -229.979375 
L 64.874699 -229.979375 
L 65.505184 -229.979375 
L 66.135669 -229.979375 
L 66.766154 -229.979375 
L 67.396639 -229.979375 
L 68.027124 -229.979375 
L 68.657608 -229.979375 
L 69.288093 -229.979375 
L 69.918578 -229.979375 
L 70.549063 -229.979375 
L 71.179548 -229.979375 
L 71.810033 -229.979375 
L 72.440517 -229.979375 
L 73.071002 -229.979375 
L 73.701487 -229.979375 
L 74.331972 -229.979375 
L 74.962457 -229.979375 
L 75.592942 -229.979375 
L 76.223426 -229.979375 
L 76.853911 -229.979375 
L 77.484396 -229.979375 
L 78.114881 -229.979375 
L 78.745366 -229.979375 
L 79.375851 -229.979375 
L 80.006336 -229.979375 
L 80.63682 -229.979375 
L 81.267305 -229.979375 
L 81.89779 -229.979375 
L 82.528275 -229.979375 
L 83.15876 -229.979375 
L 83.789245 -229.979375 
L 84.419729 -229.979375 
L 85.050214 -229.979375 
L 85.680699 -229.979375 
L 86.311184 -229.979375 
L 86.941669 -229.979375 
L 87.572154 -229.979375 
L 88.202638 -229.979375 
L 88.833123 -229.979375 
L 89.463608 -229.979375 
L 90.094093 -229.979375 
L 90.724578 -229.979375 
L 91.355063 -229.979375 
L 91.985547 -229.979375 
L 92.616032 -229.979375 
L 93.246517 -229.979375 
L 93.877002 -229.979375 
L 94.507487 -229.979375 
L 95.137972 -229.979375 
L 95.768456 -229.979375 
L 96.398941 -229.979375 
L 97.029426 -229.979375 
L 97.659911 -229.979375 
L 98.290396 -229.979375 
L 98.920881 -229.979375 
L 99.551365 -229.979375 
L 100.18185 -229.979375 
L 100.812335 -229.979375 
L 101.44282 -229.979375 
L 102.073305 -229.979375 
L 102.70379 -229.979375 
L 103.334275 -229.979375 
L 103.964759 -229.979375 
L 104.595244 -229.979375 
L 105.225729 -229.979375 
L 105.856214 -229.979375 
L 106.486699 -229.979375 
L 107.117184 -229.979375 
L 107.747668 -229.979375 
L 108.378153 -229.979375 
L 109.008638 -229.979375 
L 109.639123 -229.979375 
L 110.269608 -229.979375 
L 110.900093 -229.979375 
L 111.530577 -229.979375 
L 112.161062 -229.979375 
L 112.791547 -229.979375 
L 113.422032 -229.979375 
L 114.052517 -229.979375 
L 114.683002 -229.979375 
L 115.313486 -229.979375 
L 115.943971 -229.979375 
L 116.574456 -229.979375 
L 117.204941 -229.979375 
L 117.835426 -229.979375 
L 118.465911 -229.979375 
L 119.096395 -229.979375 
L 119.72688 -229.979375 
L 120.357365 -229.979375 
L 120.98785 -229.979375 
L 121.618335 -229.979375 
L 122.24882 -229.979375 
L 122.879305 -229.979375 
L 123.509789 -229.979375 
L 124.140274 -229.979375 
L 124.770759 -229.979375 
L 125.401244 -229.979375 
L 126.031729 -229.979375 
L 126.662214 -229.979375 
L 127.292698 -229.979375 
L 127.923183 -229.979375 
L 128.553668 -229.979375 
L 129.184153 -229.979375 
L 129.814638 -229.979375 
L 130.445123 -229.979375 
L 131.075607 -229.979375 
L 131.706092 -229.979375 
L 132.336577 -229.979375 
L 132.967062 -229.979375 
L 133.597547 -229.979375 
L 134.228032 -229.979375 
L 134.858516 -229.979375 
L 135.489001 -229.979375 
L 136.119486 -229.979375 
L 136.749971 -229.979375 
L 137.380456 -229.979375 
L 138.010941 -229.979375 
L 138.641425 -229.979375 
L 139.27191 -229.979375 
L 139.902395 -229.979375 
L 140.53288 -229.979375 
L 141.163365 -229.979375 
L 141.79385 -229.979375 
L 142.424335 -229.979375 
L 143.054819 -229.979375 
L 143.685304 -229.979375 
L 144.315789 -229.979375 
L 144.946274 -229.979375 
L 145.576759 -229.979375 
L 146.207244 -229.979375 
L 146.837728 -229.979375 
L 147.468213 -229.979375 
L 148.098698 -229.979375 
L 148.729183 -229.979375 
L 149.359668 -229.979375 
L 149.990153 -229.979375 
L 150.620637 -229.979375 
L 151.251122 -229.979375 
L 151.881607 -229.979375 
L 152.512092 -229.979375 
L 153.142577 -229.979375 
L 153.773062 -229.979375 
L 154.403546 -229.979375 
L 155.034031 -229.979375 
L 155.664516 -229.979375 
L 156.295001 -229.979375 
L 156.925486 -229.979375 
L 157.555971 -229.979375 
L 158.186455 -229.979375 
L 158.81694 -229.979375 
L 159.447425 -229.979375 
L 160.07791 -229.979375 
L 160.708395 -229.979375 
L 161.33888 -229.979375 
L 161.969364 -229.979375 
L 162.599849 -229.979375 
L 163.230334 -229.979375 
L 163.860819 -229.979375 
L 164.491304 -229.979375 
L 165.121789 -229.979375 
L 165.752274 -229.979375 
L 166.382758 -229.979375 
L 167.013243 -229.979375 
L 167.643728 -229.979375 
L 168.274213 -229.979375 
L 168.904698 -229.979375 
L 169.535183 -229.979375 
L 170.165667 -229.979375 
L 170.796152 -229.979375 
L 171.426637 -229.979375 
L 172.057122 -229.979375 
L 172.687607 -229.979375 
L 173.318092 -229.979375 
L 173.948576 -229.979375 
L 174.579061 -229.979375 
L 175.209546 -229.979375 
L 175.840031 -229.979375 
L 176.470516 -229.979375 
L 177.101001 -229.979375 
L 177.731485 -229.979375 
L 178.36197 -229.979375 
L 178.992455 -229.979375 
L 179.62294 -229.979375 
L 180.253425 -229.979375 
L 180.253425 -229.980818 
L 180.253425 -229.980818 
L 179.62294 -229.983047 
L 178.992455 -229.987814 
L 178.36197 -229.996917 
L 177.731485 -230.012416 
L 177.101001 -230.035923 
L 176.470516 -230.067622 
L 175.840031 -230.10552 
L 175.209546 -230.145491 
L 174.579061 -230.182331 
L 173.948576 -230.211378 
L 173.318092 -230.229881 
L 172.687607 -230.237374 
L 172.057122 -230.234995 
L 171.426637 -230.224312 
L 170.796152 -230.206584 
L 170.165667 -230.18303 
L 169.535183 -230.155921 
L 168.904698 -230.12953 
L 168.274213 -230.109895 
L 167.643728 -230.103053 
L 167.013243 -230.112446 
L 166.382758 -230.136868 
L 165.752274 -230.170145 
L 165.121789 -230.203013 
L 164.491304 -230.226566 
L 163.860819 -230.235755 
L 163.230334 -230.231189 
L 162.599849 -230.218265 
L 161.969364 -230.204176 
L 161.33888 -230.194674 
L 160.708395 -230.192505 
L 160.07791 -230.198109 
L 159.447425 -230.211442 
L 158.81694 -230.233156 
L 158.186455 -230.264224 
L 157.555971 -230.30457 
L 156.925486 -230.352109 
L 156.295001 -230.403201 
L 155.664516 -230.454509 
L 155.034031 -230.505268 
L 154.403546 -230.558695 
L 153.773062 -230.621739 
L 153.142577 -230.703264 
L 152.512092 -230.811275 
L 151.881607 -230.949633 
L 151.251122 -231.114742 
L 150.620637 -231.293555 
L 149.990153 -231.46534 
L 149.359668 -231.608687 
L 148.729183 -231.711479 
L 148.098698 -231.777731 
L 147.468213 -231.825764 
L 146.837728 -231.877823 
L 146.207244 -231.94761 
L 145.576759 -232.033454 
L 144.946274 -232.120468 
L 144.315789 -232.18944 
L 143.685304 -232.227719 
L 143.054819 -232.237917 
L 142.424335 -232.24141 
L 141.79385 -232.274504 
L 141.163365 -232.377102 
L 140.53288 -232.577391 
L 139.902395 -232.879214 
L 139.27191 -233.258524 
L 138.641425 -233.671043 
L 138.010941 -234.067465 
L 137.380456 -234.409152 
L 136.749971 -234.678038 
L 136.119486 -234.878087 
L 135.489001 -235.029292 
L 134.858516 -235.157317 
L 134.228032 -235.282798 
L 133.597547 -235.414649 
L 132.967062 -235.550763 
L 132.336577 -235.686554 
L 131.706092 -235.827557 
L 131.075607 -235.999254 
L 130.445123 -236.247163 
L 129.814638 -236.623751 
L 129.184153 -237.164871 
L 128.553668 -237.865369 
L 127.923183 -238.667424 
L 127.292698 -239.472029 
L 126.662214 -240.172475 
L 126.031729 -240.694702 
L 125.401244 -241.023151 
L 124.770759 -241.198902 
L 124.140274 -241.294389 
L 123.509789 -241.382299 
L 122.879305 -241.515601 
L 122.24882 -241.723652 
L 121.618335 -242.017691 
L 120.98785 -242.396825 
L 120.357365 -242.851613 
L 119.72688 -243.368446 
L 119.096395 -243.936974 
L 118.465911 -244.55601 
L 117.835426 -245.22917 
L 117.204941 -245.948036 
L 116.574456 -246.674488 
L 115.943971 -247.340725 
L 115.313486 -247.874426 
L 114.683002 -248.234993 
L 114.052517 -248.435437 
L 113.422032 -248.535208 
L 112.791547 -248.611581 
L 112.161062 -248.730314 
L 111.530577 -248.931031 
L 110.900093 -249.228348 
L 110.269608 -249.620118 
L 109.639123 -250.094337 
L 109.008638 -250.631433 
L 108.378153 -251.203428 
L 107.747668 -251.773776 
L 107.117184 -252.301767 
L 106.486699 -252.752978 
L 105.856214 -253.11285 
L 105.225729 -253.396669 
L 104.595244 -253.649608 
L 103.964759 -253.935295 
L 103.334275 -254.317046 
L 102.70379 -254.838491 
L 102.073305 -255.509645 
L 101.44282 -256.302483 
L 100.812335 -257.157409 
L 100.18185 -257.998226 
L 99.551365 -258.749608 
L 98.920881 -259.350951 
L 98.290396 -259.764 
L 97.659911 -259.975395 
L 97.029426 -259.995669 
L 96.398941 -259.854491 
L 95.768456 -259.591284 
L 95.137972 -259.242033 
L 94.507487 -258.825737 
L 93.877002 -258.336365 
L 93.246517 -257.747168 
L 92.616032 -257.031124 
L 91.985547 -256.191882 
L 91.355063 -255.288315 
L 90.724578 -254.433244 
L 90.094093 -253.759561 
L 89.463608 -253.367977 
L 88.833123 -253.284238 
L 88.202638 -253.449255 
L 87.572154 -253.746365 
L 86.941669 -254.048881 
L 86.311184 -254.261084 
L 85.680699 -254.332058 
L 85.050214 -254.240479 
L 84.419729 -253.967868 
L 83.789245 -253.484579 
L 83.15876 -252.76115 
L 82.528275 -251.796207 
L 81.89779 -250.638117 
L 81.267305 -249.382021 
L 80.63682 -248.141449 
L 80.006336 -247.009489 
L 79.375851 -246.028494 
L 78.745366 -245.180893 
L 78.114881 -244.403689 
L 77.484396 -243.620013 
L 76.853911 -242.774293 
L 76.223426 -241.855506 
L 75.592942 -240.898423 
L 74.962457 -239.964143 
L 74.331972 -239.111791 
L 73.701487 -238.375974 
L 73.071002 -237.758752 
L 72.440517 -237.235658 
L 71.810033 -236.768962 
L 71.179548 -236.320729 
L 70.549063 -235.861634 
L 69.918578 -235.375283 
L 69.288093 -234.859245 
L 68.657608 -234.323328 
L 68.027124 -233.785135 
L 67.396639 -233.263974 
L 66.766154 -232.775638 
L 66.135669 -232.330269 
L 65.505184 -231.933448 
L 64.874699 -231.58858 
L 64.244215 -231.298342 
L 63.61373 -231.064092 
L 62.983245 -230.88364 
L 62.35276 -230.748978 
L 61.722275 -230.646045 
L 61.09179 -230.557867 
L 60.461306 -230.470228 
L 59.830821 -230.376783 
L 59.200336 -230.280356 
L 58.569851 -230.189638 
L 57.939366 -230.113623 
L 57.308881 -230.05726 
L 56.678396 -230.020286 
L 56.047912 -229.998788 
L 55.417427 -229.987686 
L 54.786942 -229.982582 
z
" id="m8c782e0ce7" style="stroke:#426082;stroke-width:1.5;"/>
    </defs>
    <g>
     <use style="fill:#426082;stroke:#426082;stroke-width:1.5;" x="0" xlink:href="#m8c782e0ce7" y="311.267375"/>
    </g>
   </g>
   <g id="line2d_3">
    <path d="M 54.786942 81.284793 
L 57.939366 81.153752 
L 62.35276 80.518397 
L 63.61373 80.203283 
L 64.874699 79.678795 
L 66.135669 78.937106 
L 68.027124 77.48224 
L 70.549063 75.405741 
L 73.071002 73.508623 
L 74.331972 72.155584 
L 76.223426 69.411869 
L 77.484396 67.647362 
L 79.375851 65.238881 
L 80.63682 63.125926 
L 82.528275 59.471168 
L 83.15876 58.506225 
L 83.789245 57.782796 
L 84.419729 57.299507 
L 85.050214 57.026896 
L 85.680699 56.935317 
L 86.311184 57.006291 
L 87.572154 57.52101 
L 88.202638 57.81812 
L 88.833123 57.983137 
L 89.463608 57.899398 
L 90.094093 57.507814 
L 90.724578 56.834131 
L 93.246517 53.520207 
L 94.507487 52.441638 
L 95.768456 51.676091 
L 96.398941 51.412884 
L 97.029426 51.271706 
L 97.659911 51.29198 
L 98.290396 51.503375 
L 98.920881 51.916424 
L 100.18185 53.269149 
L 102.073305 55.75773 
L 103.334275 56.950329 
L 104.595244 57.617767 
L 105.856214 58.154525 
L 107.117184 58.965608 
L 110.900093 62.039027 
L 112.161062 62.537061 
L 114.683002 63.032382 
L 115.313486 63.392949 
L 116.574456 64.592887 
L 119.096395 67.330401 
L 120.357365 68.415762 
L 121.618335 69.249684 
L 122.879305 69.751774 
L 125.401244 70.244224 
L 126.031729 70.572673 
L 126.662214 71.0949 
L 127.923183 72.599951 
L 129.184153 74.102504 
L 129.814638 74.643624 
L 131.075607 75.268121 
L 133.597547 75.852726 
L 136.749971 76.589337 
L 138.010941 77.19991 
L 140.53288 78.689984 
L 141.79385 78.992871 
L 146.207244 79.319765 
L 149.990153 79.802035 
L 153.142577 80.564111 
L 156.295001 80.864174 
L 160.07791 81.069266 
L 170.796152 81.060791 
L 173.948576 81.055997 
L 180.253425 81.286557 
L 180.253425 81.286557 
" style="fill:none;stroke:#ffffff;stroke-linecap:round;stroke-width:2;"/>
   </g>
   <g id="line2d_4">
    <path d="M 10.064525 81.288 
L 344.864525 81.288 
" style="fill:none;stroke:#426082;stroke-linecap:round;stroke-width:2;"/>
   </g>
   <g id="text_2">
    <!-- 0.1 -->
    <g style="fill:#426082;" transform="translate(261.164525 79.4433)scale(0.24 -0.24)">
     <defs>
      <path d="M 750 831 
L 1813 831 
L 1813 3847 
L 722 3622 
L 722 4441 
L 1806 4666 
L 2950 4666 
L 2950 831 
L 4013 831 
L 4013 0 
L 750 0 
L 750 831 
z
" id="DejaVuSans-Bold-31" transform="scale(0.015625)"/>
     </defs>
     <use xlink:href="#DejaVuSans-Bold-30"/>
     <use x="69.580078" xlink:href="#DejaVuSans-Bold-2e"/>
     <use x="107.568359" xlink:href="#DejaVuSans-Bold-31"/>
    </g>
   </g>
  </g>
  <g id="axes_3">
   <g id="patch_4">
    <path d="M 10.064525 113.04 
L 344.864525 113.04 
L 344.864525 70.704 
L 10.064525 70.704 
z
" style="fill:none;"/>
   </g>
   <g id="matplotlib.axis_5">
    <g id="xtick_9"/>
    <g id="xtick_10"/>
    <g id="xtick_11"/>
    <g id="xtick_12"/>
   </g>
   <g id="matplotlib.axis_6"/>
   <g id="PolyCollection_3">
    <defs>
     <path d="M 46.536847 -198.230012 
L 46.536847 -198.227375 
L 47.331176 -198.227375 
L 48.125505 -198.227375 
L 48.919834 -198.227375 
L 49.714163 -198.227375 
L 50.508492 -198.227375 
L 51.302821 -198.227375 
L 52.09715 -198.227375 
L 52.891479 -198.227375 
L 53.685808 -198.227375 
L 54.480138 -198.227375 
L 55.274467 -198.227375 
L 56.068796 -198.227375 
L 56.863125 -198.227375 
L 57.657454 -198.227375 
L 58.451783 -198.227375 
L 59.246112 -198.227375 
L 60.040441 -198.227375 
L 60.83477 -198.227375 
L 61.629099 -198.227375 
L 62.423428 -198.227375 
L 63.217757 -198.227375 
L 64.012087 -198.227375 
L 64.806416 -198.227375 
L 65.600745 -198.227375 
L 66.395074 -198.227375 
L 67.189403 -198.227375 
L 67.983732 -198.227375 
L 68.778061 -198.227375 
L 69.57239 -198.227375 
L 70.366719 -198.227375 
L 71.161048 -198.227375 
L 71.955377 -198.227375 
L 72.749706 -198.227375 
L 73.544035 -198.227375 
L 74.338365 -198.227375 
L 75.132694 -198.227375 
L 75.927023 -198.227375 
L 76.721352 -198.227375 
L 77.515681 -198.227375 
L 78.31001 -198.227375 
L 79.104339 -198.227375 
L 79.898668 -198.227375 
L 80.692997 -198.227375 
L 81.487326 -198.227375 
L 82.281655 -198.227375 
L 83.075984 -198.227375 
L 83.870314 -198.227375 
L 84.664643 -198.227375 
L 85.458972 -198.227375 
L 86.253301 -198.227375 
L 87.04763 -198.227375 
L 87.841959 -198.227375 
L 88.636288 -198.227375 
L 89.430617 -198.227375 
L 90.224946 -198.227375 
L 91.019275 -198.227375 
L 91.813604 -198.227375 
L 92.607933 -198.227375 
L 93.402263 -198.227375 
L 94.196592 -198.227375 
L 94.990921 -198.227375 
L 95.78525 -198.227375 
L 96.579579 -198.227375 
L 97.373908 -198.227375 
L 98.168237 -198.227375 
L 98.962566 -198.227375 
L 99.756895 -198.227375 
L 100.551224 -198.227375 
L 101.345553 -198.227375 
L 102.139882 -198.227375 
L 102.934212 -198.227375 
L 103.728541 -198.227375 
L 104.52287 -198.227375 
L 105.317199 -198.227375 
L 106.111528 -198.227375 
L 106.905857 -198.227375 
L 107.700186 -198.227375 
L 108.494515 -198.227375 
L 109.288844 -198.227375 
L 110.083173 -198.227375 
L 110.877502 -198.227375 
L 111.671831 -198.227375 
L 112.466161 -198.227375 
L 113.26049 -198.227375 
L 114.054819 -198.227375 
L 114.849148 -198.227375 
L 115.643477 -198.227375 
L 116.437806 -198.227375 
L 117.232135 -198.227375 
L 118.026464 -198.227375 
L 118.820793 -198.227375 
L 119.615122 -198.227375 
L 120.409451 -198.227375 
L 121.20378 -198.227375 
L 121.998109 -198.227375 
L 122.792439 -198.227375 
L 123.586768 -198.227375 
L 124.381097 -198.227375 
L 125.175426 -198.227375 
L 125.969755 -198.227375 
L 126.764084 -198.227375 
L 127.558413 -198.227375 
L 128.352742 -198.227375 
L 129.147071 -198.227375 
L 129.9414 -198.227375 
L 130.735729 -198.227375 
L 131.530058 -198.227375 
L 132.324388 -198.227375 
L 133.118717 -198.227375 
L 133.913046 -198.227375 
L 134.707375 -198.227375 
L 135.501704 -198.227375 
L 136.296033 -198.227375 
L 137.090362 -198.227375 
L 137.884691 -198.227375 
L 138.67902 -198.227375 
L 139.473349 -198.227375 
L 140.267678 -198.227375 
L 141.062007 -198.227375 
L 141.856337 -198.227375 
L 142.650666 -198.227375 
L 143.444995 -198.227375 
L 144.239324 -198.227375 
L 145.033653 -198.227375 
L 145.827982 -198.227375 
L 146.622311 -198.227375 
L 147.41664 -198.227375 
L 148.210969 -198.227375 
L 149.005298 -198.227375 
L 149.799627 -198.227375 
L 150.593956 -198.227375 
L 151.388286 -198.227375 
L 152.182615 -198.227375 
L 152.976944 -198.227375 
L 153.771273 -198.227375 
L 154.565602 -198.227375 
L 155.359931 -198.227375 
L 156.15426 -198.227375 
L 156.948589 -198.227375 
L 157.742918 -198.227375 
L 158.537247 -198.227375 
L 159.331576 -198.227375 
L 160.125905 -198.227375 
L 160.920235 -198.227375 
L 161.714564 -198.227375 
L 162.508893 -198.227375 
L 163.303222 -198.227375 
L 164.097551 -198.227375 
L 164.89188 -198.227375 
L 165.686209 -198.227375 
L 166.480538 -198.227375 
L 167.274867 -198.227375 
L 168.069196 -198.227375 
L 168.863525 -198.227375 
L 169.657854 -198.227375 
L 170.452184 -198.227375 
L 171.246513 -198.227375 
L 172.040842 -198.227375 
L 172.835171 -198.227375 
L 173.6295 -198.227375 
L 174.423829 -198.227375 
L 175.218158 -198.227375 
L 176.012487 -198.227375 
L 176.806816 -198.227375 
L 177.601145 -198.227375 
L 178.395474 -198.227375 
L 179.189803 -198.227375 
L 179.984132 -198.227375 
L 180.778462 -198.227375 
L 181.572791 -198.227375 
L 182.36712 -198.227375 
L 183.161449 -198.227375 
L 183.955778 -198.227375 
L 184.750107 -198.227375 
L 185.544436 -198.227375 
L 186.338765 -198.227375 
L 187.133094 -198.227375 
L 187.927423 -198.227375 
L 188.721752 -198.227375 
L 189.516081 -198.227375 
L 190.310411 -198.227375 
L 191.10474 -198.227375 
L 191.899069 -198.227375 
L 192.693398 -198.227375 
L 193.487727 -198.227375 
L 194.282056 -198.227375 
L 195.076385 -198.227375 
L 195.870714 -198.227375 
L 196.665043 -198.227375 
L 197.459372 -198.227375 
L 198.253701 -198.227375 
L 199.04803 -198.227375 
L 199.84236 -198.227375 
L 200.636689 -198.227375 
L 201.431018 -198.227375 
L 202.225347 -198.227375 
L 203.019676 -198.227375 
L 203.814005 -198.227375 
L 204.608334 -198.227375 
L 204.608334 -198.228514 
L 204.608334 -198.228514 
L 203.814005 -198.230296 
L 203.019676 -198.234088 
L 202.225347 -198.2412 
L 201.431018 -198.252907 
L 200.636689 -198.269714 
L 199.84236 -198.290562 
L 199.04803 -198.312608 
L 198.253701 -198.332072 
L 197.459372 -198.345959 
L 196.665043 -198.353565 
L 195.870714 -198.356538 
L 195.076385 -198.357278 
L 194.282056 -198.356944 
L 193.487727 -198.354814 
L 192.693398 -198.349718 
L 191.899069 -198.342469 
L 191.10474 -198.337273 
L 190.310411 -198.340761 
L 189.516081 -198.358923 
L 188.721752 -198.393632 
L 187.927423 -198.440816 
L 187.133094 -198.491605 
L 186.338765 -198.536157 
L 185.544436 -198.568208 
L 184.750107 -198.587694 
L 183.955778 -198.599899 
L 183.161449 -198.611861 
L 182.36712 -198.628606 
L 181.572791 -198.651546 
L 180.778462 -198.679511 
L 179.984132 -198.710945 
L 179.189803 -198.745408 
L 178.395474 -198.783644 
L 177.601145 -198.826919 
L 176.806816 -198.876761 
L 176.012487 -198.93545 
L 175.218158 -199.006205 
L 174.423829 -199.09159 
L 173.6295 -199.19002 
L 172.835171 -199.292728 
L 172.040842 -199.384609 
L 171.246513 -199.449965 
L 170.452184 -199.479977 
L 169.657854 -199.476514 
L 168.863525 -199.449504 
L 168.069196 -199.410172 
L 167.274867 -199.365483 
L 166.480538 -199.317541 
L 165.686209 -199.267438 
L 164.89188 -199.220085 
L 164.097551 -199.186399 
L 163.303222 -199.181348 
L 162.508893 -199.218622 
L 161.714564 -199.304356 
L 160.920235 -199.432803 
L 160.125905 -199.58628 
L 159.331576 -199.739956 
L 158.537247 -199.86988 
L 157.742918 -199.961091 
L 156.948589 -200.012642 
L 156.15426 -200.037839 
L 155.359931 -200.059958 
L 154.565602 -200.105112 
L 153.771273 -200.19434 
L 152.976944 -200.336878 
L 152.182615 -200.526534 
L 151.388286 -200.743154 
L 150.593956 -200.960179 
L 149.799627 -201.156524 
L 149.005298 -201.327425 
L 148.210969 -201.487502 
L 147.41664 -201.662598 
L 146.622311 -201.873884 
L 145.827982 -202.123372 
L 145.033653 -202.389805 
L 144.239324 -202.637652 
L 143.444995 -202.834 
L 142.650666 -202.963799 
L 141.856337 -203.035786 
L 141.062007 -203.077399 
L 140.267678 -203.122821 
L 139.473349 -203.200484 
L 138.67902 -203.32505 
L 137.884691 -203.496037 
L 137.090362 -203.702405 
L 136.296033 -203.930382 
L 135.501704 -204.170959 
L 134.707375 -204.424233 
L 133.913046 -204.699433 
L 133.118717 -205.011036 
L 132.324388 -205.372607 
L 131.530058 -205.790881 
L 130.735729 -206.262637 
L 129.9414 -206.775356 
L 129.147071 -207.310235 
L 128.352742 -207.84489 
L 127.558413 -208.35458 
L 126.764084 -208.813607 
L 125.969755 -209.199929 
L 125.175426 -209.50398 
L 124.381097 -209.738416 
L 123.586768 -209.942616 
L 122.792439 -210.176705 
L 121.998109 -210.504496 
L 121.20378 -210.97031 
L 120.409451 -211.578292 
L 119.615122 -212.283207 
L 118.820793 -212.998706 
L 118.026464 -213.623275 
L 117.232135 -214.076589 
L 116.437806 -214.331997 
L 115.643477 -214.429105 
L 114.849148 -214.457807 
L 114.054819 -214.52019 
L 113.26049 -214.690268 
L 112.466161 -214.992572 
L 111.671831 -215.407827 
L 110.877502 -215.897072 
L 110.083173 -216.427264 
L 109.288844 -216.985224 
L 108.494515 -217.576532 
L 107.700186 -218.213865 
L 106.905857 -218.902315 
L 106.111528 -219.628687 
L 105.317199 -220.359549 
L 104.52287 -221.049522 
L 103.728541 -221.65681 
L 102.934212 -222.15817 
L 102.139882 -222.553876 
L 101.345553 -222.858766 
L 100.551224 -223.086161 
L 99.756895 -223.237755 
L 98.962566 -223.306769 
L 98.168237 -223.28886 
L 97.373908 -223.189031 
L 96.579579 -223.019521 
L 95.78525 -222.794185 
L 94.990921 -222.52688 
L 94.196592 -222.233943 
L 93.402263 -221.934897 
L 92.607933 -221.648287 
L 91.813604 -221.386651 
L 91.019275 -221.156431 
L 90.224946 -220.962812 
L 89.430617 -220.812548 
L 88.636288 -220.707343 
L 87.841959 -220.627769 
L 87.04763 -220.518389 
L 86.253301 -220.290689 
L 85.458972 -219.853869 
L 84.664643 -219.164135 
L 83.870314 -218.263214 
L 83.075984 -217.275218 
L 82.281655 -216.354652 
L 81.487326 -215.611881 
L 80.692997 -215.059216 
L 79.898668 -214.60763 
L 79.104339 -214.112369 
L 78.31001 -213.439298 
L 77.515681 -212.51855 
L 76.721352 -211.365776 
L 75.927023 -210.070134 
L 75.132694 -208.759988 
L 74.338365 -207.559831 
L 73.544035 -206.550984 
L 72.749706 -205.748277 
L 71.955377 -205.102646 
L 71.161048 -204.530296 
L 70.366719 -203.955202 
L 69.57239 -203.343223 
L 68.778061 -202.711147 
L 67.983732 -202.109427 
L 67.189403 -201.591886 
L 66.395074 -201.189833 
L 65.600745 -200.901587 
L 64.806416 -200.697969 
L 64.012087 -200.536906 
L 63.217757 -200.378784 
L 62.423428 -200.19697 
L 61.629099 -199.981954 
L 60.83477 -199.740301 
L 60.040441 -199.49027 
L 59.246112 -199.255466 
L 58.451783 -199.05756 
L 57.657454 -198.909651 
L 56.863125 -198.812375 
L 56.068796 -198.754267 
L 55.274467 -198.716312 
L 54.480138 -198.678929 
L 53.685808 -198.628706 
L 52.891479 -198.562204 
L 52.09715 -198.48536 
L 51.302821 -198.409076 
L 50.508492 -198.343598 
L 49.714163 -198.294607 
L 48.919834 -198.26245 
L 48.125505 -198.243847 
L 47.331176 -198.234329 
L 46.536847 -198.230012 
z
" id="m40d29f8a2a" style="stroke:#4e7493;stroke-width:1.5;"/>
    </defs>
    <g>
     <use style="fill:#4e7493;stroke:#4e7493;stroke-width:1.5;" x="0" xlink:href="#m40d29f8a2a" y="311.267375"/>
    </g>
   </g>
   <g id="line2d_5">
    <path d="M 46.536847 113.037363 
L 50.508492 112.923777 
L 58.451783 112.209815 
L 60.83477 111.527074 
L 63.217757 110.888591 
L 65.600745 110.365788 
L 67.189403 109.675489 
L 68.778061 108.556228 
L 73.544035 104.716391 
L 74.338365 103.707544 
L 75.927023 101.197241 
L 77.515681 98.748825 
L 78.31001 97.828077 
L 79.104339 97.155006 
L 81.487326 95.655494 
L 82.281655 94.912723 
L 84.664643 92.10324 
L 85.458972 91.413506 
L 86.253301 90.976686 
L 87.04763 90.748986 
L 91.019275 90.110944 
L 93.402263 89.332478 
L 96.579579 88.247854 
L 98.168237 87.978515 
L 99.756895 88.02962 
L 101.345553 88.408609 
L 102.934212 89.109205 
L 104.52287 90.217853 
L 109.288844 94.282151 
L 111.671831 95.859548 
L 113.26049 96.577107 
L 114.849148 96.809568 
L 116.437806 96.935378 
L 117.232135 97.190786 
L 118.026464 97.6441 
L 119.615122 98.984168 
L 121.20378 100.297065 
L 121.998109 100.762879 
L 123.586768 101.324759 
L 125.175426 101.763395 
L 126.764084 102.453768 
L 129.147071 103.95714 
L 131.530058 105.476494 
L 133.118717 106.256339 
L 135.501704 107.096416 
L 137.884691 107.771338 
L 139.473349 108.066891 
L 144.239324 108.629723 
L 148.210969 109.779873 
L 151.388286 110.524221 
L 153.771273 111.073035 
L 156.15426 111.229536 
L 158.537247 111.397495 
L 163.303222 112.086027 
L 165.686209 111.999937 
L 170.452184 111.787398 
L 172.835171 111.974647 
L 176.806816 112.390614 
L 182.36712 112.638769 
L 188.721752 112.873743 
L 191.899069 112.924906 
L 199.04803 112.954767 
L 204.608334 113.038861 
L 204.608334 113.038861 
" style="fill:none;stroke:#ffffff;stroke-linecap:round;stroke-width:2;"/>
   </g>
   <g id="line2d_6">
    <path d="M 10.064525 113.04 
L 344.864525 113.04 
" style="fill:none;stroke:#4e7493;stroke-linecap:round;stroke-width:2;"/>
   </g>
   <g id="text_3">
    <!-- 0.15 -->
    <g style="fill:#4e7493;" transform="translate(261.164525 111.1953)scale(0.24 -0.24)">
     <use xlink:href="#DejaVuSans-Bold-30"/>
     <use x="69.580078" xlink:href="#DejaVuSans-Bold-2e"/>
     <use x="107.568359" xlink:href="#DejaVuSans-Bold-31"/>
     <use x="177.148438" xlink:href="#DejaVuSans-Bold-35"/>
    </g>
   </g>
  </g>
  <g id="axes_4">
   <g id="patch_5">
    <path d="M 10.064525 144.792 
L 344.864525 144.792 
L 344.864525 102.456 
L 10.064525 102.456 
z
" style="fill:none;"/>
   </g>
   <g id="matplotlib.axis_7">
    <g id="xtick_13"/>
    <g id="xtick_14"/>
    <g id="xtick_15"/>
    <g id="xtick_16"/>
   </g>
   <g id="matplotlib.axis_8"/>
   <g id="PolyCollection_4">
    <defs>
     <path d="M 39.918863 -166.477028 
L 39.918863 -166.475375 
L 40.812649 -166.475375 
L 41.706435 -166.475375 
L 42.600222 -166.475375 
L 43.494008 -166.475375 
L 44.387794 -166.475375 
L 45.28158 -166.475375 
L 46.175367 -166.475375 
L 47.069153 -166.475375 
L 47.962939 -166.475375 
L 48.856725 -166.475375 
L 49.750512 -166.475375 
L 50.644298 -166.475375 
L 51.538084 -166.475375 
L 52.431871 -166.475375 
L 53.325657 -166.475375 
L 54.219443 -166.475375 
L 55.113229 -166.475375 
L 56.007016 -166.475375 
L 56.900802 -166.475375 
L 57.794588 -166.475375 
L 58.688374 -166.475375 
L 59.582161 -166.475375 
L 60.475947 -166.475375 
L 61.369733 -166.475375 
L 62.263519 -166.475375 
L 63.157306 -166.475375 
L 64.051092 -166.475375 
L 64.944878 -166.475375 
L 65.838665 -166.475375 
L 66.732451 -166.475375 
L 67.626237 -166.475375 
L 68.520023 -166.475375 
L 69.41381 -166.475375 
L 70.307596 -166.475375 
L 71.201382 -166.475375 
L 72.095168 -166.475375 
L 72.988955 -166.475375 
L 73.882741 -166.475375 
L 74.776527 -166.475375 
L 75.670314 -166.475375 
L 76.5641 -166.475375 
L 77.457886 -166.475375 
L 78.351672 -166.475375 
L 79.245459 -166.475375 
L 80.139245 -166.475375 
L 81.033031 -166.475375 
L 81.926817 -166.475375 
L 82.820604 -166.475375 
L 83.71439 -166.475375 
L 84.608176 -166.475375 
L 85.501962 -166.475375 
L 86.395749 -166.475375 
L 87.289535 -166.475375 
L 88.183321 -166.475375 
L 89.077108 -166.475375 
L 89.970894 -166.475375 
L 90.86468 -166.475375 
L 91.758466 -166.475375 
L 92.652253 -166.475375 
L 93.546039 -166.475375 
L 94.439825 -166.475375 
L 95.333611 -166.475375 
L 96.227398 -166.475375 
L 97.121184 -166.475375 
L 98.01497 -166.475375 
L 98.908757 -166.475375 
L 99.802543 -166.475375 
L 100.696329 -166.475375 
L 101.590115 -166.475375 
L 102.483902 -166.475375 
L 103.377688 -166.475375 
L 104.271474 -166.475375 
L 105.16526 -166.475375 
L 106.059047 -166.475375 
L 106.952833 -166.475375 
L 107.846619 -166.475375 
L 108.740405 -166.475375 
L 109.634192 -166.475375 
L 110.527978 -166.475375 
L 111.421764 -166.475375 
L 112.315551 -166.475375 
L 113.209337 -166.475375 
L 114.103123 -166.475375 
L 114.996909 -166.475375 
L 115.890696 -166.475375 
L 116.784482 -166.475375 
L 117.678268 -166.475375 
L 118.572054 -166.475375 
L 119.465841 -166.475375 
L 120.359627 -166.475375 
L 121.253413 -166.475375 
L 122.1472 -166.475375 
L 123.040986 -166.475375 
L 123.934772 -166.475375 
L 124.828558 -166.475375 
L 125.722345 -166.475375 
L 126.616131 -166.475375 
L 127.509917 -166.475375 
L 128.403703 -166.475375 
L 129.29749 -166.475375 
L 130.191276 -166.475375 
L 131.085062 -166.475375 
L 131.978848 -166.475375 
L 132.872635 -166.475375 
L 133.766421 -166.475375 
L 134.660207 -166.475375 
L 135.553994 -166.475375 
L 136.44778 -166.475375 
L 137.341566 -166.475375 
L 138.235352 -166.475375 
L 139.129139 -166.475375 
L 140.022925 -166.475375 
L 140.916711 -166.475375 
L 141.810497 -166.475375 
L 142.704284 -166.475375 
L 143.59807 -166.475375 
L 144.491856 -166.475375 
L 145.385643 -166.475375 
L 146.279429 -166.475375 
L 147.173215 -166.475375 
L 148.067001 -166.475375 
L 148.960788 -166.475375 
L 149.854574 -166.475375 
L 150.74836 -166.475375 
L 151.642146 -166.475375 
L 152.535933 -166.475375 
L 153.429719 -166.475375 
L 154.323505 -166.475375 
L 155.217291 -166.475375 
L 156.111078 -166.475375 
L 157.004864 -166.475375 
L 157.89865 -166.475375 
L 158.792437 -166.475375 
L 159.686223 -166.475375 
L 160.580009 -166.475375 
L 161.473795 -166.475375 
L 162.367582 -166.475375 
L 163.261368 -166.475375 
L 164.155154 -166.475375 
L 165.04894 -166.475375 
L 165.942727 -166.475375 
L 166.836513 -166.475375 
L 167.730299 -166.475375 
L 168.624086 -166.475375 
L 169.517872 -166.475375 
L 170.411658 -166.475375 
L 171.305444 -166.475375 
L 172.199231 -166.475375 
L 173.093017 -166.475375 
L 173.986803 -166.475375 
L 174.880589 -166.475375 
L 175.774376 -166.475375 
L 176.668162 -166.475375 
L 177.561948 -166.475375 
L 178.455734 -166.475375 
L 179.349521 -166.475375 
L 180.243307 -166.475375 
L 181.137093 -166.475375 
L 182.03088 -166.475375 
L 182.924666 -166.475375 
L 183.818452 -166.475375 
L 184.712238 -166.475375 
L 185.606025 -166.475375 
L 186.499811 -166.475375 
L 187.393597 -166.475375 
L 188.287383 -166.475375 
L 189.18117 -166.475375 
L 190.074956 -166.475375 
L 190.968742 -166.475375 
L 191.862529 -166.475375 
L 192.756315 -166.475375 
L 193.650101 -166.475375 
L 194.543887 -166.475375 
L 195.437674 -166.475375 
L 196.33146 -166.475375 
L 197.225246 -166.475375 
L 198.119032 -166.475375 
L 199.012819 -166.475375 
L 199.906605 -166.475375 
L 200.800391 -166.475375 
L 201.694177 -166.475375 
L 202.587964 -166.475375 
L 203.48175 -166.475375 
L 204.375536 -166.475375 
L 205.269323 -166.475375 
L 206.163109 -166.475375 
L 207.056895 -166.475375 
L 207.950681 -166.475375 
L 208.844468 -166.475375 
L 209.738254 -166.475375 
L 210.63204 -166.475375 
L 211.525826 -166.475375 
L 212.419613 -166.475375 
L 213.313399 -166.475375 
L 214.207185 -166.475375 
L 215.100972 -166.475375 
L 215.994758 -166.475375 
L 216.888544 -166.475375 
L 217.78233 -166.475375 
L 217.78233 -166.47661 
L 217.78233 -166.47661 
L 216.888544 -166.478599 
L 215.994758 -166.483008 
L 215.100972 -166.491775 
L 214.207185 -166.507389 
L 213.313399 -166.532228 
L 212.419613 -166.567364 
L 211.525826 -166.611228 
L 210.63204 -166.65894 
L 209.738254 -166.703076 
L 208.844468 -166.735997 
L 207.950681 -166.752792 
L 207.056895 -166.75324 
L 206.163109 -166.741546 
L 205.269323 -166.723944 
L 204.375536 -166.705594 
L 203.48175 -166.688595 
L 202.587964 -166.672086 
L 201.694177 -166.65408 
L 200.800391 -166.633769 
L 199.906605 -166.612991 
L 199.012819 -166.596155 
L 198.119032 -166.588728 
L 197.225246 -166.595037 
L 196.33146 -166.616456 
L 195.437674 -166.650831 
L 194.543887 -166.693451 
L 193.650101 -166.739086 
L 192.756315 -166.784126 
L 191.862529 -166.827818 
L 190.968742 -166.872013 
L 190.074956 -166.919555 
L 189.18117 -166.972103 
L 188.287383 -167.02855 
L 187.393597 -167.085058 
L 186.499811 -167.136805 
L 185.606025 -167.180349 
L 184.712238 -167.215046 
L 183.818452 -167.242661 
L 182.924666 -167.265793 
L 182.03088 -167.286487 
L 181.137093 -167.305922 
L 180.243307 -167.324896 
L 179.349521 -167.344197 
L 178.455734 -167.364343 
L 177.561948 -167.385091 
L 176.668162 -167.405648 
L 175.774376 -167.426163 
L 174.880589 -167.44999 
L 173.986803 -167.485121 
L 173.093017 -167.542962 
L 172.199231 -167.633833 
L 171.305444 -167.760673 
L 170.411658 -167.914149 
L 169.517872 -168.072373 
L 168.624086 -168.206541 
L 167.730299 -168.290829 
L 166.836513 -168.312306 
L 165.942727 -168.276036 
L 165.04894 -168.202528 
L 164.155154 -168.118636 
L 163.261368 -168.04653 
L 162.367582 -167.996275 
L 161.473795 -167.965349 
L 160.580009 -167.944646 
L 159.686223 -167.927335 
L 158.792437 -167.915731 
L 157.89865 -167.9226 
L 157.004864 -167.966669 
L 156.111078 -168.065908 
L 155.217291 -168.23324 
L 154.323505 -168.476508 
L 153.429719 -168.799726 
L 152.535933 -169.20074 
L 151.642146 -169.664052 
L 150.74836 -170.153959 
L 149.854574 -170.616267 
L 148.960788 -170.992769 
L 148.067001 -171.243865 
L 147.173215 -171.36794 
L 146.279429 -171.406529 
L 145.385643 -171.431483 
L 144.491856 -171.519262 
L 143.59807 -171.723187 
L 142.704284 -172.055102 
L 141.810497 -172.483889 
L 140.916711 -172.951131 
L 140.022925 -173.396374 
L 139.129139 -173.779687 
L 138.235352 -174.090994 
L 137.341566 -174.343607 
L 136.44778 -174.558541 
L 135.553994 -174.75034 
L 134.660207 -174.922021 
L 133.766421 -175.069592 
L 132.872635 -175.190828 
L 131.978848 -175.291621 
L 131.085062 -175.386037 
L 130.191276 -175.490848 
L 129.29749 -175.619385 
L 128.403703 -175.780727 
L 127.509917 -175.986821 
L 126.616131 -176.263037 
L 125.722345 -176.651443 
L 124.828558 -177.197222 
L 123.934772 -177.919126 
L 123.040986 -178.779099 
L 122.1472 -179.673057 
L 121.253413 -180.45646 
L 120.359627 -180.997764 
L 119.465841 -181.233381 
L 118.572054 -181.193731 
L 117.678268 -180.9856 
L 116.784482 -180.741623 
L 115.890696 -180.566177 
L 114.996909 -180.50631 
L 114.103123 -180.55817 
L 113.209337 -180.69721 
L 112.315551 -180.909186 
L 111.421764 -181.204082 
L 110.527978 -181.609741 
L 109.634192 -182.154202 
L 108.740405 -182.848331 
L 107.846619 -183.67546 
L 106.952833 -184.589516 
L 106.059047 -185.5213 
L 105.16526 -186.392251 
L 104.271474 -187.132719 
L 103.377688 -187.697962 
L 102.483902 -188.074302 
L 101.590115 -188.272896 
L 100.696329 -188.316488 
L 99.802543 -188.228668 
L 98.908757 -188.0319 
L 98.01497 -187.752863 
L 97.121184 -187.428272 
L 96.227398 -187.105059 
L 95.333611 -186.833439 
L 94.439825 -186.655275 
L 93.546039 -186.591324 
L 92.652253 -186.630924 
L 91.758466 -186.728372 
L 90.86468 -186.810273 
L 89.970894 -186.795251 
L 89.077108 -186.621485 
L 88.183321 -186.272048 
L 87.289535 -185.786348 
L 86.395749 -185.249902 
L 85.501962 -184.763167 
L 84.608176 -184.400543 
L 83.71439 -184.177536 
L 82.820604 -184.042357 
L 81.926817 -183.896941 
L 81.033031 -183.637511 
L 80.139245 -183.195009 
L 79.245459 -182.556638 
L 78.351672 -181.760664 
L 77.457886 -180.871285 
L 76.5641 -179.95019 
L 75.670314 -179.040466 
L 74.776527 -178.167639 
L 73.882741 -177.350199 
L 72.988955 -176.607281 
L 72.095168 -175.956903 
L 71.201382 -175.407738 
L 70.307596 -174.952085 
L 69.41381 -174.565096 
L 68.520023 -174.209889 
L 67.626237 -173.845455 
L 66.732451 -173.434971 
L 65.838665 -172.95327 
L 64.944878 -172.391987 
L 64.051092 -171.760595 
L 63.157306 -171.08296 
L 62.263519 -170.391456 
L 61.369733 -169.721448 
L 60.475947 -169.107127 
L 59.582161 -168.577468 
L 58.688374 -168.151354 
L 57.794588 -167.833262 
L 56.900802 -167.612358 
L 56.007016 -167.466452 
L 55.113229 -167.369196 
L 54.219443 -167.297087 
L 53.325657 -167.233553 
L 52.431871 -167.169489 
L 51.538084 -167.101408 
L 50.644298 -167.028916 
L 49.750512 -166.952821 
L 48.856725 -166.874414 
L 47.962939 -166.795707 
L 47.069153 -166.719841 
L 46.175367 -166.650875 
L 45.28158 -166.592738 
L 44.387794 -166.54788 
L 43.494008 -166.516479 
L 42.600222 -166.49665 
L 41.706435 -166.485391 
L 40.812649 -166.479652 
L 39.918863 -166.477028 
z
" id="mf4d4ef2da0" style="stroke:#5b89a2;stroke-width:1.5;"/>
    </defs>
    <g>
     <use style="fill:#5b89a2;stroke:#5b89a2;stroke-width:1.5;" x="0" xlink:href="#mf4d4ef2da0" y="311.267375"/>
    </g>
   </g>
   <g id="line2d_7">
    <path d="M 39.918863 144.790347 
L 45.28158 144.674637 
L 51.538084 144.165967 
L 56.900802 143.655017 
L 58.688374 143.116021 
L 60.475947 142.160248 
L 63.157306 140.184415 
L 64.944878 138.875388 
L 66.732451 137.832404 
L 69.41381 136.702279 
L 71.201382 135.859637 
L 72.988955 134.660094 
L 74.776527 133.099736 
L 79.245459 128.710737 
L 80.139245 128.072366 
L 81.033031 127.629864 
L 82.820604 127.225018 
L 84.608176 126.866832 
L 85.501962 126.504208 
L 89.077108 124.64589 
L 89.970894 124.472124 
L 91.758466 124.539003 
L 93.546039 124.676051 
L 94.439825 124.6121 
L 96.227398 124.162316 
L 98.908757 123.235475 
L 100.696329 122.950887 
L 101.590115 122.994479 
L 102.483902 123.193073 
L 103.377688 123.569413 
L 104.271474 124.134656 
L 106.059047 125.746075 
L 108.740405 128.419044 
L 109.634192 129.113173 
L 110.527978 129.657634 
L 112.315551 130.358189 
L 114.103123 130.709205 
L 114.996909 130.761065 
L 115.890696 130.701198 
L 119.465841 130.033994 
L 120.359627 130.269611 
L 121.253413 130.810915 
L 123.040986 132.488276 
L 124.828558 134.070153 
L 125.722345 134.615932 
L 127.509917 135.280554 
L 129.29749 135.64799 
L 136.44778 136.708834 
L 138.235352 137.176381 
L 140.022925 137.871001 
L 143.59807 139.544188 
L 144.491856 139.748113 
L 146.279429 139.860846 
L 148.067001 140.02351 
L 148.960788 140.274606 
L 150.74836 141.113416 
L 153.429719 142.467649 
L 155.217291 143.034135 
L 157.004864 143.300706 
L 159.686223 143.34004 
L 164.155154 143.148739 
L 166.836513 142.955069 
L 168.624086 143.060834 
L 173.986803 143.782254 
L 181.137093 143.961453 
L 187.393597 144.182317 
L 196.33146 144.650919 
L 199.906605 144.654384 
L 208.844468 144.531378 
L 217.78233 144.790765 
L 217.78233 144.790765 
" style="fill:none;stroke:#ffffff;stroke-linecap:round;stroke-width:2;"/>
   </g>
   <g id="line2d_8">
    <path d="M 10.064525 144.792 
L 344.864525 144.792 
" style="fill:none;stroke:#5b89a2;stroke-linecap:round;stroke-width:2;"/>
   </g>
   <g id="text_4">
    <!-- 0.2 -->
    <g style="fill:#5b89a2;" transform="translate(261.164525 142.9473)scale(0.24 -0.24)">
     <defs>
      <path d="M 1844 884 
L 3897 884 
L 3897 0 
L 506 0 
L 506 884 
L 2209 2388 
Q 2438 2594 2547 2791 
Q 2656 2988 2656 3200 
Q 2656 3528 2436 3728 
Q 2216 3928 1850 3928 
Q 1569 3928 1234 3808 
Q 900 3688 519 3450 
L 519 4475 
Q 925 4609 1322 4679 
Q 1719 4750 2100 4750 
Q 2938 4750 3402 4381 
Q 3866 4013 3866 3353 
Q 3866 2972 3669 2642 
Q 3472 2313 2841 1759 
L 1844 884 
z
" id="DejaVuSans-Bold-32" transform="scale(0.015625)"/>
     </defs>
     <use xlink:href="#DejaVuSans-Bold-30"/>
     <use x="69.580078" xlink:href="#DejaVuSans-Bold-2e"/>
     <use x="107.568359" xlink:href="#DejaVuSans-Bold-32"/>
    </g>
   </g>
  </g>
  <g id="axes_5">
   <g id="patch_6">
    <path d="M 10.064525 176.544 
L 344.864525 176.544 
L 344.864525 134.208 
L 10.064525 134.208 
z
" style="fill:none;"/>
   </g>
   <g id="matplotlib.axis_9">
    <g id="xtick_17"/>
    <g id="xtick_18"/>
    <g id="xtick_19"/>
    <g id="xtick_20"/>
   </g>
   <g id="matplotlib.axis_10"/>
   <g id="PolyCollection_5">
    <defs>
     <path d="M 25.71657 -134.724242 
L 25.71657 -134.723375 
L 26.898811 -134.723375 
L 28.081052 -134.723375 
L 29.263293 -134.723375 
L 30.445534 -134.723375 
L 31.627775 -134.723375 
L 32.810016 -134.723375 
L 33.992257 -134.723375 
L 35.174499 -134.723375 
L 36.35674 -134.723375 
L 37.538981 -134.723375 
L 38.721222 -134.723375 
L 39.903463 -134.723375 
L 41.085704 -134.723375 
L 42.267945 -134.723375 
L 43.450186 -134.723375 
L 44.632428 -134.723375 
L 45.814669 -134.723375 
L 46.99691 -134.723375 
L 48.179151 -134.723375 
L 49.361392 -134.723375 
L 50.543633 -134.723375 
L 51.725874 -134.723375 
L 52.908115 -134.723375 
L 54.090357 -134.723375 
L 55.272598 -134.723375 
L 56.454839 -134.723375 
L 57.63708 -134.723375 
L 58.819321 -134.723375 
L 60.001562 -134.723375 
L 61.183803 -134.723375 
L 62.366044 -134.723375 
L 63.548286 -134.723375 
L 64.730527 -134.723375 
L 65.912768 -134.723375 
L 67.095009 -134.723375 
L 68.27725 -134.723375 
L 69.459491 -134.723375 
L 70.641732 -134.723375 
L 71.823973 -134.723375 
L 73.006215 -134.723375 
L 74.188456 -134.723375 
L 75.370697 -134.723375 
L 76.552938 -134.723375 
L 77.735179 -134.723375 
L 78.91742 -134.723375 
L 80.099661 -134.723375 
L 81.281902 -134.723375 
L 82.464144 -134.723375 
L 83.646385 -134.723375 
L 84.828626 -134.723375 
L 86.010867 -134.723375 
L 87.193108 -134.723375 
L 88.375349 -134.723375 
L 89.55759 -134.723375 
L 90.739831 -134.723375 
L 91.922073 -134.723375 
L 93.104314 -134.723375 
L 94.286555 -134.723375 
L 95.468796 -134.723375 
L 96.651037 -134.723375 
L 97.833278 -134.723375 
L 99.015519 -134.723375 
L 100.19776 -134.723375 
L 101.380002 -134.723375 
L 102.562243 -134.723375 
L 103.744484 -134.723375 
L 104.926725 -134.723375 
L 106.108966 -134.723375 
L 107.291207 -134.723375 
L 108.473448 -134.723375 
L 109.655689 -134.723375 
L 110.837931 -134.723375 
L 112.020172 -134.723375 
L 113.202413 -134.723375 
L 114.384654 -134.723375 
L 115.566895 -134.723375 
L 116.749136 -134.723375 
L 117.931377 -134.723375 
L 119.113618 -134.723375 
L 120.29586 -134.723375 
L 121.478101 -134.723375 
L 122.660342 -134.723375 
L 123.842583 -134.723375 
L 125.024824 -134.723375 
L 126.207065 -134.723375 
L 127.389306 -134.723375 
L 128.571547 -134.723375 
L 129.753789 -134.723375 
L 130.93603 -134.723375 
L 132.118271 -134.723375 
L 133.300512 -134.723375 
L 134.482753 -134.723375 
L 135.664994 -134.723375 
L 136.847235 -134.723375 
L 138.029476 -134.723375 
L 139.211718 -134.723375 
L 140.393959 -134.723375 
L 141.5762 -134.723375 
L 142.758441 -134.723375 
L 143.940682 -134.723375 
L 145.122923 -134.723375 
L 146.305164 -134.723375 
L 147.487405 -134.723375 
L 148.669647 -134.723375 
L 149.851888 -134.723375 
L 151.034129 -134.723375 
L 152.21637 -134.723375 
L 153.398611 -134.723375 
L 154.580852 -134.723375 
L 155.763093 -134.723375 
L 156.945334 -134.723375 
L 158.127576 -134.723375 
L 159.309817 -134.723375 
L 160.492058 -134.723375 
L 161.674299 -134.723375 
L 162.85654 -134.723375 
L 164.038781 -134.723375 
L 165.221022 -134.723375 
L 166.403263 -134.723375 
L 167.585505 -134.723375 
L 168.767746 -134.723375 
L 169.949987 -134.723375 
L 171.132228 -134.723375 
L 172.314469 -134.723375 
L 173.49671 -134.723375 
L 174.678951 -134.723375 
L 175.861192 -134.723375 
L 177.043434 -134.723375 
L 178.225675 -134.723375 
L 179.407916 -134.723375 
L 180.590157 -134.723375 
L 181.772398 -134.723375 
L 182.954639 -134.723375 
L 184.13688 -134.723375 
L 185.319121 -134.723375 
L 186.501363 -134.723375 
L 187.683604 -134.723375 
L 188.865845 -134.723375 
L 190.048086 -134.723375 
L 191.230327 -134.723375 
L 192.412568 -134.723375 
L 193.594809 -134.723375 
L 194.77705 -134.723375 
L 195.959292 -134.723375 
L 197.141533 -134.723375 
L 198.323774 -134.723375 
L 199.506015 -134.723375 
L 200.688256 -134.723375 
L 201.870497 -134.723375 
L 203.052738 -134.723375 
L 204.234979 -134.723375 
L 205.417221 -134.723375 
L 206.599462 -134.723375 
L 207.781703 -134.723375 
L 208.963944 -134.723375 
L 210.146185 -134.723375 
L 211.328426 -134.723375 
L 212.510667 -134.723375 
L 213.692908 -134.723375 
L 214.87515 -134.723375 
L 216.057391 -134.723375 
L 217.239632 -134.723375 
L 218.421873 -134.723375 
L 219.604114 -134.723375 
L 220.786355 -134.723375 
L 221.968596 -134.723375 
L 223.150837 -134.723375 
L 224.333079 -134.723375 
L 225.51532 -134.723375 
L 226.697561 -134.723375 
L 227.879802 -134.723375 
L 229.062043 -134.723375 
L 230.244284 -134.723375 
L 231.426525 -134.723375 
L 232.608766 -134.723375 
L 233.791008 -134.723375 
L 234.973249 -134.723375 
L 236.15549 -134.723375 
L 237.337731 -134.723375 
L 238.519972 -134.723375 
L 239.702213 -134.723375 
L 240.884454 -134.723375 
L 242.066696 -134.723375 
L 243.248937 -134.723375 
L 244.431178 -134.723375 
L 245.613419 -134.723375 
L 246.79566 -134.723375 
L 247.977901 -134.723375 
L 249.160142 -134.723375 
L 250.342383 -134.723375 
L 251.524625 -134.723375 
L 252.706866 -134.723375 
L 253.889107 -134.723375 
L 255.071348 -134.723375 
L 256.253589 -134.723375 
L 257.43583 -134.723375 
L 258.618071 -134.723375 
L 259.800312 -134.723375 
L 260.982554 -134.723375 
L 260.982554 -134.724242 
L 260.982554 -134.724242 
L 259.800312 -134.725878 
L 258.618071 -134.72964 
L 257.43583 -134.736982 
L 256.253589 -134.749022 
L 255.071348 -134.765337 
L 253.889107 -134.783029 
L 252.706866 -134.797256 
L 251.524625 -134.80365 
L 250.342383 -134.8013 
L 249.160142 -134.793896 
L 247.977901 -134.787704 
L 246.79566 -134.787531 
L 245.613419 -134.793508 
L 244.431178 -134.801004 
L 243.248937 -134.803727 
L 242.066696 -134.797785 
L 240.884454 -134.783863 
L 239.702213 -134.76623 
L 238.519972 -134.7498 
L 237.337731 -134.737683 
L 236.15549 -134.730652 
L 234.973249 -134.728207 
L 233.791008 -134.729975 
L 232.608766 -134.736439 
L 231.426525 -134.748638 
L 230.244284 -134.767072 
L 229.062043 -134.790591 
L 227.879802 -134.816251 
L 226.697561 -134.84055 
L 225.51532 -134.861226 
L 224.333079 -134.878207 
L 223.150837 -134.893129 
L 221.968596 -134.908008 
L 220.786355 -134.923955 
L 219.604114 -134.940269 
L 218.421873 -134.954122 
L 217.239632 -134.961385 
L 216.057391 -134.958717 
L 214.87515 -134.945839 
L 213.692908 -134.926311 
L 212.510667 -134.906429 
L 211.328426 -134.893424 
L 210.146185 -134.893921 
L 208.963944 -134.912297 
L 207.781703 -134.948506 
L 206.599462 -134.99669 
L 205.417221 -135.046651 
L 204.234979 -135.088615 
L 203.052738 -135.119017 
L 201.870497 -135.143367 
L 200.688256 -135.173045 
L 199.506015 -135.216753 
L 198.323774 -135.27265 
L 197.141533 -135.328301 
L 195.959292 -135.369341 
L 194.77705 -135.389583 
L 193.594809 -135.394326 
L 192.412568 -135.395653 
L 191.230327 -135.404964 
L 190.048086 -135.427809 
L 188.865845 -135.462259 
L 187.683604 -135.500175 
L 186.501363 -135.531432 
L 185.319121 -135.550594 
L 184.13688 -135.562268 
L 182.954639 -135.579635 
L 181.772398 -135.614987 
L 180.590157 -135.669055 
L 179.407916 -135.729035 
L 178.225675 -135.778642 
L 177.043434 -135.812881 
L 175.861192 -135.845088 
L 174.678951 -135.899219 
L 173.49671 -135.99225 
L 172.314469 -136.12072 
L 171.132228 -136.26333 
L 169.949987 -136.398058 
L 168.767746 -136.518695 
L 167.585505 -136.635985 
L 166.403263 -136.76333 
L 165.221022 -136.901258 
L 164.038781 -137.034384 
L 162.85654 -137.142247 
L 161.674299 -137.214798 
L 160.492058 -137.261906 
L 159.309817 -137.311311 
L 158.127576 -137.396422 
L 156.945334 -137.541711 
L 155.763093 -137.754775 
L 154.580852 -138.028096 
L 153.398611 -138.345599 
L 152.21637 -138.68762 
L 151.034129 -139.032731 
L 149.851888 -139.359362 
L 148.669647 -139.650718 
L 147.487405 -139.903527 
L 146.305164 -140.135624 
L 145.122923 -140.383137 
L 143.940682 -140.682032 
L 142.758441 -141.041868 
L 141.5762 -141.430848 
L 140.393959 -141.788236 
L 139.211718 -142.062271 
L 138.029476 -142.250654 
L 136.847235 -142.412416 
L 135.664994 -142.635365 
L 134.482753 -142.977067 
L 133.300512 -143.423501 
L 132.118271 -143.898886 
L 130.93603 -144.316063 
L 129.753789 -144.622712 
L 128.571547 -144.811434 
L 127.389306 -144.904019 
L 126.207065 -144.940636 
L 125.024824 -144.982932 
L 123.842583 -145.109193 
L 122.660342 -145.381538 
L 121.478101 -145.799414 
L 120.29586 -146.2812 
L 119.113618 -146.702598 
L 117.931377 -146.974045 
L 116.749136 -147.101641 
L 115.566895 -147.184311 
L 114.384654 -147.350357 
L 113.202413 -147.684521 
L 112.020172 -148.197734 
L 110.837931 -148.847573 
L 109.655689 -149.575891 
L 108.473448 -150.330232 
L 107.291207 -151.065097 
L 106.108966 -151.737802 
L 104.926725 -152.308202 
L 103.744484 -152.742149 
L 102.562243 -153.018655 
L 101.380002 -153.140328 
L 100.19776 -153.138753 
L 99.015519 -153.064606 
L 97.833278 -152.966189 
L 96.651037 -152.874139 
L 95.468796 -152.803611 
L 94.286555 -152.764918 
L 93.104314 -152.76633 
L 91.922073 -152.807332 
L 90.739831 -152.875937 
L 89.55759 -152.958003 
L 88.375349 -153.047884 
L 87.193108 -153.14461 
L 86.010867 -153.234025 
L 84.828626 -153.275064 
L 83.646385 -153.207468 
L 82.464144 -152.980137 
L 81.281902 -152.580457 
L 80.099661 -152.041015 
L 78.91742 -151.415636 
L 77.735179 -150.740541 
L 76.552938 -150.009932 
L 75.370697 -149.186935 
L 74.188456 -148.244949 
L 73.006215 -147.208092 
L 71.823973 -146.15508 
L 70.641732 -145.178005 
L 69.459491 -144.326497 
L 68.27725 -143.581341 
L 67.095009 -142.875897 
L 65.912768 -142.14481 
L 64.730527 -141.363464 
L 63.548286 -140.55585 
L 62.366044 -139.773544 
L 61.183803 -139.064396 
L 60.001562 -138.450573 
L 58.819321 -137.925633 
L 57.63708 -137.466934 
L 56.454839 -137.051313 
L 55.272598 -136.663857 
L 54.090357 -136.298435 
L 52.908115 -135.955318 
L 51.725874 -135.640162 
L 50.543633 -135.363304 
L 49.361392 -135.136427 
L 48.179151 -134.96681 
L 46.99691 -134.853054 
L 45.814669 -134.785469 
L 44.632428 -134.750465 
L 43.450186 -134.735601 
L 42.267945 -134.732533 
L 41.085704 -134.737206 
L 39.903463 -134.748132 
L 38.721222 -134.763947 
L 37.538981 -134.781498 
L 36.35674 -134.795692 
L 35.174499 -134.80145 
L 33.992257 -134.796507 
L 32.810016 -134.782808 
L 31.627775 -134.76528 
L 30.445534 -134.749009 
L 29.263293 -134.73698 
L 28.081052 -134.72964 
L 26.898811 -134.725878 
L 25.71657 -134.724242 
z
" id="mc55cfc04d7" style="stroke:#6b9daf;stroke-width:1.5;"/>
    </defs>
    <g>
     <use style="fill:#6b9daf;stroke:#6b9daf;stroke-width:1.5;" x="0" xlink:href="#mc55cfc04d7" y="311.267375"/>
    </g>
   </g>
   <g id="line2d_9">
    <path d="M 25.71657 176.543133 
L 46.99691 176.414321 
L 49.361392 176.130948 
L 51.725874 175.627213 
L 55.272598 174.603518 
L 58.819321 173.341742 
L 61.183803 172.202979 
L 63.548286 170.711525 
L 67.095009 168.391478 
L 69.459491 166.940878 
L 71.823973 165.112295 
L 75.370697 162.08044 
L 77.735179 160.526834 
L 80.099661 159.22636 
L 81.281902 158.686918 
L 82.464144 158.287238 
L 83.646385 158.059907 
L 86.010867 158.03335 
L 93.104314 158.501045 
L 95.468796 158.463764 
L 101.380002 158.127047 
L 102.562243 158.24872 
L 103.744484 158.525226 
L 104.926725 158.959173 
L 107.291207 160.202278 
L 112.020172 163.069641 
L 113.202413 163.582854 
L 114.384654 163.917018 
L 116.749136 164.165734 
L 117.931377 164.29333 
L 119.113618 164.564777 
L 123.842583 166.158182 
L 126.207065 166.326739 
L 128.571547 166.455941 
L 129.753789 166.644663 
L 132.118271 167.368489 
L 134.482753 168.290308 
L 135.664994 168.63201 
L 141.5762 169.836527 
L 143.940682 170.585343 
L 146.305164 171.131751 
L 149.851888 171.908013 
L 155.763093 173.5126 
L 158.127576 173.870953 
L 167.585505 174.63139 
L 175.861192 175.422287 
L 212.510667 176.360946 
L 219.604114 176.327106 
L 239.702213 176.501145 
L 247.977901 176.479671 
L 257.43583 176.530393 
L 260.982554 176.543133 
L 260.982554 176.543133 
" style="fill:none;stroke:#ffffff;stroke-linecap:round;stroke-width:2;"/>
   </g>
   <g id="line2d_10">
    <path d="M 10.064525 176.544 
L 344.864525 176.544 
" style="fill:none;stroke:#6b9daf;stroke-linecap:round;stroke-width:2;"/>
   </g>
   <g id="text_5">
    <!-- 0.25 -->
    <g style="fill:#6b9daf;" transform="translate(261.164525 174.6993)scale(0.24 -0.24)">
     <use xlink:href="#DejaVuSans-Bold-30"/>
     <use x="69.580078" xlink:href="#DejaVuSans-Bold-2e"/>
     <use x="107.568359" xlink:href="#DejaVuSans-Bold-32"/>
     <use x="177.148438" xlink:href="#DejaVuSans-Bold-35"/>
    </g>
   </g>
  </g>
  <g id="axes_6">
   <g id="patch_7">
    <path d="M 10.064525 208.296 
L 344.864525 208.296 
L 344.864525 165.96 
L 10.064525 165.96 
z
" style="fill:none;"/>
   </g>
   <g id="matplotlib.axis_11">
    <g id="xtick_21"/>
    <g id="xtick_22"/>
    <g id="xtick_23"/>
    <g id="xtick_24"/>
   </g>
   <g id="matplotlib.axis_12"/>
   <g id="PolyCollection_6">
    <defs>
     <path d="M 31.00335 -102.972232 
L 31.00335 -102.971375 
L 32.197839 -102.971375 
L 33.392328 -102.971375 
L 34.586817 -102.971375 
L 35.781306 -102.971375 
L 36.975795 -102.971375 
L 38.170284 -102.971375 
L 39.364773 -102.971375 
L 40.559262 -102.971375 
L 41.753751 -102.971375 
L 42.94824 -102.971375 
L 44.142729 -102.971375 
L 45.337218 -102.971375 
L 46.531707 -102.971375 
L 47.726196 -102.971375 
L 48.920685 -102.971375 
L 50.115174 -102.971375 
L 51.309663 -102.971375 
L 52.504152 -102.971375 
L 53.698641 -102.971375 
L 54.89313 -102.971375 
L 56.087619 -102.971375 
L 57.282108 -102.971375 
L 58.476597 -102.971375 
L 59.671086 -102.971375 
L 60.865575 -102.971375 
L 62.060064 -102.971375 
L 63.254553 -102.971375 
L 64.449042 -102.971375 
L 65.643531 -102.971375 
L 66.83802 -102.971375 
L 68.032509 -102.971375 
L 69.226998 -102.971375 
L 70.421487 -102.971375 
L 71.615976 -102.971375 
L 72.810465 -102.971375 
L 74.004954 -102.971375 
L 75.199443 -102.971375 
L 76.393931 -102.971375 
L 77.58842 -102.971375 
L 78.782909 -102.971375 
L 79.977398 -102.971375 
L 81.171887 -102.971375 
L 82.366376 -102.971375 
L 83.560865 -102.971375 
L 84.755354 -102.971375 
L 85.949843 -102.971375 
L 87.144332 -102.971375 
L 88.338821 -102.971375 
L 89.53331 -102.971375 
L 90.727799 -102.971375 
L 91.922288 -102.971375 
L 93.116777 -102.971375 
L 94.311266 -102.971375 
L 95.505755 -102.971375 
L 96.700244 -102.971375 
L 97.894733 -102.971375 
L 99.089222 -102.971375 
L 100.283711 -102.971375 
L 101.4782 -102.971375 
L 102.672689 -102.971375 
L 103.867178 -102.971375 
L 105.061667 -102.971375 
L 106.256156 -102.971375 
L 107.450645 -102.971375 
L 108.645134 -102.971375 
L 109.839623 -102.971375 
L 111.034112 -102.971375 
L 112.228601 -102.971375 
L 113.42309 -102.971375 
L 114.617579 -102.971375 
L 115.812068 -102.971375 
L 117.006557 -102.971375 
L 118.201046 -102.971375 
L 119.395535 -102.971375 
L 120.590024 -102.971375 
L 121.784513 -102.971375 
L 122.979002 -102.971375 
L 124.173491 -102.971375 
L 125.36798 -102.971375 
L 126.562469 -102.971375 
L 127.756958 -102.971375 
L 128.951447 -102.971375 
L 130.145936 -102.971375 
L 131.340425 -102.971375 
L 132.534914 -102.971375 
L 133.729403 -102.971375 
L 134.923892 -102.971375 
L 136.118381 -102.971375 
L 137.31287 -102.971375 
L 138.507359 -102.971375 
L 139.701848 -102.971375 
L 140.896337 -102.971375 
L 142.090826 -102.971375 
L 143.285315 -102.971375 
L 144.479804 -102.971375 
L 145.674293 -102.971375 
L 146.868782 -102.971375 
L 148.063271 -102.971375 
L 149.25776 -102.971375 
L 150.452249 -102.971375 
L 151.646738 -102.971375 
L 152.841227 -102.971375 
L 154.035716 -102.971375 
L 155.230205 -102.971375 
L 156.424694 -102.971375 
L 157.619183 -102.971375 
L 158.813672 -102.971375 
L 160.008161 -102.971375 
L 161.20265 -102.971375 
L 162.397139 -102.971375 
L 163.591628 -102.971375 
L 164.786117 -102.971375 
L 165.980606 -102.971375 
L 167.175095 -102.971375 
L 168.369584 -102.971375 
L 169.564073 -102.971375 
L 170.758562 -102.971375 
L 171.953051 -102.971375 
L 173.14754 -102.971375 
L 174.342029 -102.971375 
L 175.536518 -102.971375 
L 176.731007 -102.971375 
L 177.925496 -102.971375 
L 179.119985 -102.971375 
L 180.314474 -102.971375 
L 181.508963 -102.971375 
L 182.703452 -102.971375 
L 183.897941 -102.971375 
L 185.09243 -102.971375 
L 186.286919 -102.971375 
L 187.481408 -102.971375 
L 188.675897 -102.971375 
L 189.870386 -102.971375 
L 191.064875 -102.971375 
L 192.259364 -102.971375 
L 193.453853 -102.971375 
L 194.648342 -102.971375 
L 195.842831 -102.971375 
L 197.03732 -102.971375 
L 198.231809 -102.971375 
L 199.426298 -102.971375 
L 200.620787 -102.971375 
L 201.815276 -102.971375 
L 203.009765 -102.971375 
L 204.204254 -102.971375 
L 205.398743 -102.971375 
L 206.593232 -102.971375 
L 207.787721 -102.971375 
L 208.98221 -102.971375 
L 210.176699 -102.971375 
L 211.371188 -102.971375 
L 212.565677 -102.971375 
L 213.760166 -102.971375 
L 214.954655 -102.971375 
L 216.149144 -102.971375 
L 217.343633 -102.971375 
L 218.538122 -102.971375 
L 219.732611 -102.971375 
L 220.9271 -102.971375 
L 222.121589 -102.971375 
L 223.316078 -102.971375 
L 224.510567 -102.971375 
L 225.705056 -102.971375 
L 226.899545 -102.971375 
L 228.094034 -102.971375 
L 229.288523 -102.971375 
L 230.483012 -102.971375 
L 231.677501 -102.971375 
L 232.87199 -102.971375 
L 234.066479 -102.971375 
L 235.260968 -102.971375 
L 236.455457 -102.971375 
L 237.649946 -102.971375 
L 238.844435 -102.971375 
L 240.038924 -102.971375 
L 241.233413 -102.971375 
L 242.427902 -102.971375 
L 243.622391 -102.971375 
L 244.81688 -102.971375 
L 246.011369 -102.971375 
L 247.205858 -102.971375 
L 248.400347 -102.971375 
L 249.594836 -102.971375 
L 250.789325 -102.971375 
L 251.983814 -102.971375 
L 253.178303 -102.971375 
L 254.372792 -102.971375 
L 255.567281 -102.971375 
L 256.76177 -102.971375 
L 257.956259 -102.971375 
L 259.150748 -102.971375 
L 260.345237 -102.971375 
L 261.539726 -102.971375 
L 262.734215 -102.971375 
L 263.928704 -102.971375 
L 265.123193 -102.971375 
L 266.317682 -102.971375 
L 267.512171 -102.971375 
L 268.70666 -102.971375 
L 268.70666 -102.972184 
L 268.70666 -102.972184 
L 267.512171 -102.973581 
L 266.317682 -102.976676 
L 265.123193 -102.9826 
L 263.928704 -102.992327 
L 262.734215 -103.005844 
L 261.539726 -103.021357 
L 260.345237 -103.035255 
L 259.150748 -103.043336 
L 257.956259 -103.042825 
L 256.76177 -103.033904 
L 255.567281 -103.019608 
L 254.372792 -103.004168 
L 253.178303 -102.991026 
L 251.983814 -102.981754 
L 250.789325 -102.976207 
L 249.594836 -102.973358 
L 248.400347 -102.972094 
L 247.205858 -102.971612 
L 246.011369 -102.971476 
L 244.81688 -102.971538 
L 243.622391 -102.971896 
L 242.427902 -102.972994 
L 241.233413 -102.975862 
L 240.038924 -102.982415 
L 238.844435 -102.995511 
L 237.649946 -103.018323 
L 236.455457 -103.052775 
L 235.260968 -103.097532 
L 234.066479 -103.146955 
L 232.87199 -103.192484 
L 231.677501 -103.226501 
L 230.483012 -103.246515 
L 229.288523 -103.25665 
L 228.094034 -103.265061 
L 226.899545 -103.278962 
L 225.705056 -103.300633 
L 224.510567 -103.326839 
L 223.316078 -103.351434 
L 222.121589 -103.368929 
L 220.9271 -103.376885 
L 219.732611 -103.376444 
L 218.538122 -103.371577 
L 217.343633 -103.367536 
L 216.149144 -103.368534 
L 214.954655 -103.375146 
L 213.760166 -103.383109 
L 212.565677 -103.385406 
L 211.371188 -103.377477 
L 210.176699 -103.362457 
L 208.98221 -103.352207 
L 207.787721 -103.362232 
L 206.593232 -103.40304 
L 205.398743 -103.473514 
L 204.204254 -103.560795 
L 203.009765 -103.646621 
L 201.815276 -103.715748 
L 200.620787 -103.761329 
L 199.426298 -103.784912 
L 198.231809 -103.792338 
L 197.03732 -103.788866 
L 195.842831 -103.776649 
L 194.648342 -103.75564 
L 193.453853 -103.726409 
L 192.259364 -103.692133 
L 191.064875 -103.658429 
L 189.870386 -103.631839 
L 188.675897 -103.618212 
L 187.481408 -103.621273 
L 186.286919 -103.641423 
L 185.09243 -103.675747 
L 183.897941 -103.71995 
L 182.703452 -103.771139 
L 181.508963 -103.829359 
L 180.314474 -103.897038 
L 179.119985 -103.976931 
L 177.925496 -104.069188 
L 176.731007 -104.168111 
L 175.536518 -104.260481 
L 174.342029 -104.32825 
L 173.14754 -104.356203 
L 171.953051 -104.340959 
L 170.758562 -104.295555 
L 169.564073 -104.246353 
L 168.369584 -104.224081 
L 167.175095 -104.254331 
L 165.980606 -104.352139 
L 164.786117 -104.521269 
L 163.591628 -104.755394 
L 162.397139 -105.038805 
L 161.20265 -105.347783 
L 160.008161 -105.655783 
L 158.813672 -105.942469 
L 157.619183 -106.201044 
L 156.424694 -106.437008 
L 155.230205 -106.657919 
L 154.035716 -106.862526 
L 152.841227 -107.039409 
L 151.646738 -107.17703 
L 150.452249 -107.276753 
L 149.25776 -107.357917 
L 148.063271 -107.451064 
L 146.868782 -107.584162 
L 145.674293 -107.769987 
L 144.479804 -108.000902 
L 143.285315 -108.253843 
L 142.090826 -108.5043 
L 140.896337 -108.742914 
L 139.701848 -108.984914 
L 138.507359 -109.265725 
L 137.31287 -109.625037 
L 136.118381 -110.088788 
L 134.923892 -110.657282 
L 133.729403 -111.30159 
L 132.534914 -111.96775 
L 131.340425 -112.590109 
L 130.145936 -113.113378 
L 128.951447 -113.514343 
L 127.756958 -113.808425 
L 126.562469 -114.035179 
L 125.36798 -114.235052 
L 124.173491 -114.43773 
L 122.979002 -114.668965 
L 121.784513 -114.960994 
L 120.590024 -115.346058 
L 119.395535 -115.831303 
L 118.201046 -116.377168 
L 117.006557 -116.903824 
L 115.812068 -117.326735 
L 114.617579 -117.595802 
L 113.42309 -117.709471 
L 112.228601 -117.698566 
L 111.034112 -117.600921 
L 109.839623 -117.451616 
L 108.645134 -117.293244 
L 107.450645 -117.188713 
L 106.256156 -117.216549 
L 105.061667 -117.444149 
L 103.867178 -117.891823 
L 102.672689 -118.508327 
L 101.4782 -119.175783 
L 100.283711 -119.749352 
L 99.089222 -120.117003 
L 97.894733 -120.247356 
L 96.700244 -120.195523 
L 95.505755 -120.062887 
L 94.311266 -119.938451 
L 93.116777 -119.859639 
L 91.922288 -119.811583 
L 90.727799 -119.754783 
L 89.53331 -119.656733 
L 88.338821 -119.509892 
L 87.144332 -119.332537 
L 85.949843 -119.156502 
L 84.755354 -119.007304 
L 83.560865 -118.885575 
L 82.366376 -118.762003 
L 81.171887 -118.591584 
L 79.977398 -118.337655 
L 78.782909 -117.98768 
L 77.58842 -117.551749 
L 76.393931 -117.05143 
L 75.199443 -116.512622 
L 74.004954 -115.966803 
L 72.810465 -115.452858 
L 71.615976 -115.009472 
L 70.421487 -114.656393 
L 69.226998 -114.373761 
L 68.032509 -114.094332 
L 66.83802 -113.720093 
L 65.643531 -113.161921 
L 64.449042 -112.383594 
L 63.254553 -111.422879 
L 62.060064 -110.374116 
L 60.865575 -109.343491 
L 59.671086 -108.407364 
L 58.476597 -107.597867 
L 57.282108 -106.915298 
L 56.087619 -106.348018 
L 54.89313 -105.882625 
L 53.698641 -105.502733 
L 52.504152 -105.185726 
L 51.309663 -104.905259 
L 50.115174 -104.638917 
L 48.920685 -104.375332 
L 47.726196 -104.116125 
L 46.531707 -103.872121 
L 45.337218 -103.656411 
L 44.142729 -103.477918 
L 42.94824 -103.338285 
L 41.753751 -103.232825 
L 40.559262 -103.154 
L 39.364773 -103.094886 
L 38.170284 -103.050821 
L 36.975795 -103.019084 
L 35.781306 -102.997699 
L 34.586817 -102.984557 
L 33.392328 -102.977313 
L 32.197839 -102.973766 
L 31.00335 -102.972232 
z
" id="md4b8234323" style="stroke:#7cafbb;stroke-width:1.5;"/>
    </defs>
    <g>
     <use style="fill:#7cafbb;stroke:#7cafbb;stroke-width:1.5;" x="0" xlink:href="#md4b8234323" y="311.267375"/>
    </g>
   </g>
   <g id="line2d_11">
    <path d="M 31.00335 208.295143 
L 38.170284 208.216554 
L 41.753751 208.03455 
L 45.337218 207.610964 
L 48.920685 206.892043 
L 53.698641 205.764642 
L 56.087619 204.919357 
L 58.476597 203.669508 
L 60.865575 201.923884 
L 64.449042 198.883781 
L 65.643531 198.105454 
L 66.83802 197.547282 
L 69.226998 196.893614 
L 71.615976 196.257903 
L 74.004954 195.300572 
L 77.58842 193.715626 
L 79.977398 192.92972 
L 82.366376 192.505372 
L 87.144332 191.934838 
L 90.727799 191.512592 
L 95.505755 191.204488 
L 97.894733 191.020019 
L 99.089222 191.150372 
L 100.283711 191.518023 
L 102.672689 192.759048 
L 103.867178 193.375552 
L 105.061667 193.823226 
L 106.256156 194.050826 
L 107.450645 194.078662 
L 113.42309 193.557904 
L 114.617579 193.671573 
L 115.812068 193.94064 
L 118.201046 194.890207 
L 120.590024 195.921317 
L 122.979002 196.59841 
L 128.951447 197.753032 
L 130.145936 198.153997 
L 132.534914 199.299625 
L 136.118381 201.178587 
L 138.507359 202.00165 
L 143.285315 203.013532 
L 146.868782 203.683213 
L 150.452249 203.990622 
L 152.841227 204.227966 
L 156.424694 204.830367 
L 160.008161 205.611592 
L 164.786117 206.746106 
L 167.175095 207.013044 
L 169.564073 207.021022 
L 173.14754 206.911172 
L 176.731007 207.099264 
L 182.703452 207.496236 
L 188.675897 207.649163 
L 201.815276 207.551627 
L 208.98221 207.915168 
L 222.121589 207.898446 
L 236.455457 208.2146 
L 242.427902 208.294381 
L 268.70666 208.295191 
L 268.70666 208.295191 
" style="fill:none;stroke:#ffffff;stroke-linecap:round;stroke-width:2;"/>
   </g>
   <g id="line2d_12">
    <path d="M 10.064525 208.296 
L 344.864525 208.296 
" style="fill:none;stroke:#7cafbb;stroke-linecap:round;stroke-width:2;"/>
   </g>
   <g id="text_6">
    <!-- 0.3 -->
    <g style="fill:#7cafbb;" transform="translate(261.164525 206.4513)scale(0.24 -0.24)">
     <defs>
      <path d="M 2981 2516 
Q 3453 2394 3698 2092 
Q 3944 1791 3944 1325 
Q 3944 631 3412 270 
Q 2881 -91 1863 -91 
Q 1503 -91 1142 -33 
Q 781 25 428 141 
L 428 1069 
Q 766 900 1098 814 
Q 1431 728 1753 728 
Q 2231 728 2486 893 
Q 2741 1059 2741 1369 
Q 2741 1688 2480 1852 
Q 2219 2016 1709 2016 
L 1228 2016 
L 1228 2791 
L 1734 2791 
Q 2188 2791 2409 2933 
Q 2631 3075 2631 3366 
Q 2631 3634 2415 3781 
Q 2200 3928 1806 3928 
Q 1516 3928 1219 3862 
Q 922 3797 628 3669 
L 628 4550 
Q 984 4650 1334 4700 
Q 1684 4750 2022 4750 
Q 2931 4750 3382 4451 
Q 3834 4153 3834 3553 
Q 3834 3144 3618 2883 
Q 3403 2622 2981 2516 
z
" id="DejaVuSans-Bold-33" transform="scale(0.015625)"/>
     </defs>
     <use xlink:href="#DejaVuSans-Bold-30"/>
     <use x="69.580078" xlink:href="#DejaVuSans-Bold-2e"/>
     <use x="107.568359" xlink:href="#DejaVuSans-Bold-33"/>
    </g>
   </g>
  </g>
  <g id="axes_7">
   <g id="patch_8">
    <path d="M 10.064525 240.048 
L 344.864525 240.048 
L 344.864525 197.712 
L 10.064525 197.712 
z
" style="fill:none;"/>
   </g>
   <g id="matplotlib.axis_13">
    <g id="xtick_25">
     <g id="text_7">
      <!-- 0 -->
      <g style="fill:#262626;" transform="translate(7.2 272.264563)scale(0.22 -0.22)">
       <defs>
        <path d="M 2034 4250 
Q 1547 4250 1301 3770 
Q 1056 3291 1056 2328 
Q 1056 1369 1301 889 
Q 1547 409 2034 409 
Q 2525 409 2770 889 
Q 3016 1369 3016 2328 
Q 3016 3291 2770 3770 
Q 2525 4250 2034 4250 
z
M 2034 4750 
Q 2819 4750 3233 4129 
Q 3647 3509 3647 2328 
Q 3647 1150 3233 529 
Q 2819 -91 2034 -91 
Q 1250 -91 836 529 
Q 422 1150 422 2328 
Q 422 3509 836 4129 
Q 1250 4750 2034 4750 
z
" id="DejaVuSans-30" transform="scale(0.015625)"/>
       </defs>
       <use xlink:href="#DejaVuSans-30"/>
      </g>
     </g>
    </g>
    <g id="xtick_26">
     <g id="text_8">
      <!-- 1 -->
      <g style="fill:#262626;" transform="translate(104.296698 272.264563)scale(0.22 -0.22)">
       <defs>
        <path d="M 794 531 
L 1825 531 
L 1825 4091 
L 703 3866 
L 703 4441 
L 1819 4666 
L 2450 4666 
L 2450 531 
L 3481 531 
L 3481 0 
L 794 0 
L 794 531 
z
" id="DejaVuSans-31" transform="scale(0.015625)"/>
       </defs>
       <use xlink:href="#DejaVuSans-31"/>
      </g>
     </g>
    </g>
    <g id="xtick_27">
     <g id="text_9">
      <!-- 2 -->
      <g style="fill:#262626;" transform="translate(201.393396 272.264563)scale(0.22 -0.22)">
       <defs>
        <path d="M 1228 531 
L 3431 531 
L 3431 0 
L 469 0 
L 469 531 
Q 828 903 1448 1529 
Q 2069 2156 2228 2338 
Q 2531 2678 2651 2914 
Q 2772 3150 2772 3378 
Q 2772 3750 2511 3984 
Q 2250 4219 1831 4219 
Q 1534 4219 1204 4116 
Q 875 4013 500 3803 
L 500 4441 
Q 881 4594 1212 4672 
Q 1544 4750 1819 4750 
Q 2544 4750 2975 4387 
Q 3406 4025 3406 3419 
Q 3406 3131 3298 2873 
Q 3191 2616 2906 2266 
Q 2828 2175 2409 1742 
Q 1991 1309 1228 531 
z
" id="DejaVuSans-32" transform="scale(0.015625)"/>
       </defs>
       <use xlink:href="#DejaVuSans-32"/>
      </g>
     </g>
    </g>
    <g id="xtick_28">
     <g id="text_10">
      <!-- 3 -->
      <g style="fill:#262626;" transform="translate(298.490094 272.264563)scale(0.22 -0.22)">
       <defs>
        <path d="M 2597 2516 
Q 3050 2419 3304 2112 
Q 3559 1806 3559 1356 
Q 3559 666 3084 287 
Q 2609 -91 1734 -91 
Q 1441 -91 1130 -33 
Q 819 25 488 141 
L 488 750 
Q 750 597 1062 519 
Q 1375 441 1716 441 
Q 2309 441 2620 675 
Q 2931 909 2931 1356 
Q 2931 1769 2642 2001 
Q 2353 2234 1838 2234 
L 1294 2234 
L 1294 2753 
L 1863 2753 
Q 2328 2753 2575 2939 
Q 2822 3125 2822 3475 
Q 2822 3834 2567 4026 
Q 2313 4219 1838 4219 
Q 1578 4219 1281 4162 
Q 984 4106 628 3988 
L 628 4550 
Q 988 4650 1302 4700 
Q 1616 4750 1894 4750 
Q 2613 4750 3031 4423 
Q 3450 4097 3450 3541 
Q 3450 3153 3228 2886 
Q 3006 2619 2597 2516 
z
" id="DejaVuSans-33" transform="scale(0.015625)"/>
       </defs>
       <use xlink:href="#DejaVuSans-33"/>
      </g>
     </g>
    </g>
    <g id="text_11">
     <!-- $E$ -->
     <g style="fill:#262626;" transform="translate(169.784525 299.076125)scale(0.24 -0.24)">
      <defs>
       <path d="M 1081 4666 
L 4031 4666 
L 3928 4134 
L 1606 4134 
L 1338 2753 
L 3566 2753 
L 3463 2222 
L 1234 2222 
L 909 531 
L 3284 531 
L 3181 0 
L 172 0 
L 1081 4666 
z
" id="DejaVuSans-Oblique-45" transform="scale(0.015625)"/>
      </defs>
      <use transform="translate(0 0.09375)" xlink:href="#DejaVuSans-Oblique-45"/>
     </g>
    </g>
   </g>
   <g id="matplotlib.axis_14"/>
   <g id="PolyCollection_7">
    <defs>
     <path d="M 25.282706 -71.220186 
L 25.282706 -71.219375 
L 26.812172 -71.219375 
L 28.341638 -71.219375 
L 29.871103 -71.219375 
L 31.400569 -71.219375 
L 32.930034 -71.219375 
L 34.4595 -71.219375 
L 35.988965 -71.219375 
L 37.518431 -71.219375 
L 39.047896 -71.219375 
L 40.577362 -71.219375 
L 42.106827 -71.219375 
L 43.636293 -71.219375 
L 45.165758 -71.219375 
L 46.695224 -71.219375 
L 48.224689 -71.219375 
L 49.754155 -71.219375 
L 51.28362 -71.219375 
L 52.813086 -71.219375 
L 54.342551 -71.219375 
L 55.872017 -71.219375 
L 57.401482 -71.219375 
L 58.930948 -71.219375 
L 60.460413 -71.219375 
L 61.989879 -71.219375 
L 63.519344 -71.219375 
L 65.04881 -71.219375 
L 66.578275 -71.219375 
L 68.107741 -71.219375 
L 69.637206 -71.219375 
L 71.166672 -71.219375 
L 72.696137 -71.219375 
L 74.225603 -71.219375 
L 75.755068 -71.219375 
L 77.284534 -71.219375 
L 78.813999 -71.219375 
L 80.343465 -71.219375 
L 81.87293 -71.219375 
L 83.402396 -71.219375 
L 84.931861 -71.219375 
L 86.461327 -71.219375 
L 87.990792 -71.219375 
L 89.520258 -71.219375 
L 91.049723 -71.219375 
L 92.579189 -71.219375 
L 94.108654 -71.219375 
L 95.63812 -71.219375 
L 97.167585 -71.219375 
L 98.697051 -71.219375 
L 100.226516 -71.219375 
L 101.755982 -71.219375 
L 103.285447 -71.219375 
L 104.814913 -71.219375 
L 106.344378 -71.219375 
L 107.873844 -71.219375 
L 109.403309 -71.219375 
L 110.932775 -71.219375 
L 112.462241 -71.219375 
L 113.991706 -71.219375 
L 115.521172 -71.219375 
L 117.050637 -71.219375 
L 118.580103 -71.219375 
L 120.109568 -71.219375 
L 121.639034 -71.219375 
L 123.168499 -71.219375 
L 124.697965 -71.219375 
L 126.22743 -71.219375 
L 127.756896 -71.219375 
L 129.286361 -71.219375 
L 130.815827 -71.219375 
L 132.345292 -71.219375 
L 133.874758 -71.219375 
L 135.404223 -71.219375 
L 136.933689 -71.219375 
L 138.463154 -71.219375 
L 139.99262 -71.219375 
L 141.522085 -71.219375 
L 143.051551 -71.219375 
L 144.581016 -71.219375 
L 146.110482 -71.219375 
L 147.639947 -71.219375 
L 149.169413 -71.219375 
L 150.698878 -71.219375 
L 152.228344 -71.219375 
L 153.757809 -71.219375 
L 155.287275 -71.219375 
L 156.81674 -71.219375 
L 158.346206 -71.219375 
L 159.875671 -71.219375 
L 161.405137 -71.219375 
L 162.934602 -71.219375 
L 164.464068 -71.219375 
L 165.993533 -71.219375 
L 167.522999 -71.219375 
L 169.052464 -71.219375 
L 170.58193 -71.219375 
L 172.111395 -71.219375 
L 173.640861 -71.219375 
L 175.170326 -71.219375 
L 176.699792 -71.219375 
L 178.229257 -71.219375 
L 179.758723 -71.219375 
L 181.288188 -71.219375 
L 182.817654 -71.219375 
L 184.347119 -71.219375 
L 185.876585 -71.219375 
L 187.40605 -71.219375 
L 188.935516 -71.219375 
L 190.464981 -71.219375 
L 191.994447 -71.219375 
L 193.523913 -71.219375 
L 195.053378 -71.219375 
L 196.582844 -71.219375 
L 198.112309 -71.219375 
L 199.641775 -71.219375 
L 201.17124 -71.219375 
L 202.700706 -71.219375 
L 204.230171 -71.219375 
L 205.759637 -71.219375 
L 207.289102 -71.219375 
L 208.818568 -71.219375 
L 210.348033 -71.219375 
L 211.877499 -71.219375 
L 213.406964 -71.219375 
L 214.93643 -71.219375 
L 216.465895 -71.219375 
L 217.995361 -71.219375 
L 219.524826 -71.219375 
L 221.054292 -71.219375 
L 222.583757 -71.219375 
L 224.113223 -71.219375 
L 225.642688 -71.219375 
L 227.172154 -71.219375 
L 228.701619 -71.219375 
L 230.231085 -71.219375 
L 231.76055 -71.219375 
L 233.290016 -71.219375 
L 234.819481 -71.219375 
L 236.348947 -71.219375 
L 237.878412 -71.219375 
L 239.407878 -71.219375 
L 240.937343 -71.219375 
L 242.466809 -71.219375 
L 243.996274 -71.219375 
L 245.52574 -71.219375 
L 247.055205 -71.219375 
L 248.584671 -71.219375 
L 250.114136 -71.219375 
L 251.643602 -71.219375 
L 253.173067 -71.219375 
L 254.702533 -71.219375 
L 256.231998 -71.219375 
L 257.761464 -71.219375 
L 259.290929 -71.219375 
L 260.820395 -71.219375 
L 262.34986 -71.219375 
L 263.879326 -71.219375 
L 265.408791 -71.219375 
L 266.938257 -71.219375 
L 268.467722 -71.219375 
L 269.997188 -71.219375 
L 271.526653 -71.219375 
L 273.056119 -71.219375 
L 274.585585 -71.219375 
L 276.11505 -71.219375 
L 277.644516 -71.219375 
L 279.173981 -71.219375 
L 280.703447 -71.219375 
L 282.232912 -71.219375 
L 283.762378 -71.219375 
L 285.291843 -71.219375 
L 286.821309 -71.219375 
L 288.350774 -71.219375 
L 289.88024 -71.219375 
L 291.409705 -71.219375 
L 292.939171 -71.219375 
L 294.468636 -71.219375 
L 295.998102 -71.219375 
L 297.527567 -71.219375 
L 299.057033 -71.219375 
L 300.586498 -71.219375 
L 302.115964 -71.219375 
L 303.645429 -71.219375 
L 305.174895 -71.219375 
L 306.70436 -71.219375 
L 308.233826 -71.219375 
L 309.763291 -71.219375 
L 311.292757 -71.219375 
L 312.822222 -71.219375 
L 314.351688 -71.219375 
L 315.881153 -71.219375 
L 317.410619 -71.219375 
L 318.940084 -71.219375 
L 320.46955 -71.219375 
L 321.999015 -71.219375 
L 323.528481 -71.219375 
L 325.057946 -71.219375 
L 326.587412 -71.219375 
L 328.116877 -71.219375 
L 329.646343 -71.219375 
L 329.646343 -71.220061 
L 329.646343 -71.220061 
L 328.116877 -71.221402 
L 326.587412 -71.224535 
L 325.057946 -71.230691 
L 323.528481 -71.24076 
L 321.999015 -71.254198 
L 320.46955 -71.268239 
L 318.940084 -71.278458 
L 317.410619 -71.280934 
L 315.881153 -71.274643 
L 314.351688 -71.262132 
L 312.822222 -71.247879 
L 311.292757 -71.235749 
L 309.763291 -71.227483 
L 308.233826 -71.222847 
L 306.70436 -71.220711 
L 305.174895 -71.220031 
L 303.645429 -71.220332 
L 302.115964 -71.221834 
L 300.586498 -71.225407 
L 299.057033 -71.232237 
L 297.527567 -71.243024 
L 295.998102 -71.256848 
L 294.468636 -71.27054 
L 292.939171 -71.279572 
L 291.409705 -71.280405 
L 289.88024 -71.272691 
L 288.350774 -71.259512 
L 286.821309 -71.245415 
L 285.291843 -71.233953 
L 283.762378 -71.226495 
L 282.232912 -71.222689 
L 280.703447 -71.221692 
L 279.173981 -71.223168 
L 277.644516 -71.227595 
L 276.11505 -71.235816 
L 274.585585 -71.247947 
L 273.056119 -71.2622 
L 271.526653 -71.274697 
L 269.997188 -71.28098 
L 268.467722 -71.278585 
L 266.938257 -71.268772 
L 265.408791 -71.256074 
L 263.879326 -71.246278 
L 262.34986 -71.244728 
L 260.820395 -71.255913 
L 259.290929 -71.28351 
L 257.761464 -71.329407 
L 256.231998 -71.391449 
L 254.702533 -71.461584 
L 253.173067 -71.526912 
L 251.643602 -71.574374 
L 250.114136 -71.596478 
L 248.584671 -71.593767 
L 247.055205 -71.572221 
L 245.52574 -71.538541 
L 243.996274 -71.497884 
L 242.466809 -71.45531 
L 240.937343 -71.417739 
L 239.407878 -71.392901 
L 237.878412 -71.385611 
L 236.348947 -71.395251 
L 234.819481 -71.417361 
L 233.290016 -71.447875 
L 231.76055 -71.485738 
L 230.231085 -71.531823 
L 228.701619 -71.586494 
L 227.172154 -71.64914 
L 225.642688 -71.719375 
L 224.113223 -71.7961 
L 222.583757 -71.872938 
L 221.054292 -71.935065 
L 219.524826 -71.964525 
L 217.995361 -71.953155 
L 216.465895 -71.911837 
L 214.93643 -71.865595 
L 213.406964 -71.837301 
L 211.877499 -71.833625 
L 210.348033 -71.843813 
L 208.818568 -71.850233 
L 207.289102 -71.841731 
L 205.759637 -71.820748 
L 204.230171 -71.799916 
L 202.700706 -71.791011 
L 201.17124 -71.795303 
L 199.641775 -71.803647 
L 198.112309 -71.806039 
L 196.582844 -71.802048 
L 195.053378 -71.803651 
L 193.523913 -71.829108 
L 191.994447 -71.893197 
L 190.464981 -72.000463 
L 188.935516 -72.144792 
L 187.40605 -72.31385 
L 185.876585 -72.494241 
L 184.347119 -72.674605 
L 182.817654 -72.847163 
L 181.288188 -73.008976 
L 179.758723 -73.161582 
L 178.229257 -73.306483 
L 176.699792 -73.4383 
L 175.170326 -73.54311 
L 173.640861 -73.607701 
L 172.111395 -73.634896 
L 170.58193 -73.651399 
L 169.052464 -73.698686 
L 167.522999 -73.811369 
L 165.993533 -73.997369 
L 164.464068 -74.231974 
L 162.934602 -74.468202 
L 161.405137 -74.657745 
L 159.875671 -74.772638 
L 158.346206 -74.816859 
L 156.81674 -74.821081 
L 155.287275 -74.824181 
L 153.757809 -74.855012 
L 152.228344 -74.927504 
L 150.698878 -75.050038 
L 149.169413 -75.23682 
L 147.639947 -75.506887 
L 146.110482 -75.868533 
L 144.581016 -76.302519 
L 143.051551 -76.760417 
L 141.522085 -77.181127 
L 139.99262 -77.513123 
L 138.463154 -77.728769 
L 136.933689 -77.82858 
L 135.404223 -77.841673 
L 133.874758 -77.825096 
L 132.345292 -77.856381 
L 130.815827 -78.013584 
L 129.286361 -78.347426 
L 127.756896 -78.860931 
L 126.22743 -79.51104 
L 124.697965 -80.23185 
L 123.168499 -80.962067 
L 121.639034 -81.65638 
L 120.109568 -82.276771 
L 118.580103 -82.780759 
L 117.050637 -83.127019 
L 115.521172 -83.298897 
L 113.991706 -83.324344 
L 112.462241 -83.272324 
L 110.932775 -83.228465 
L 109.403309 -83.268694 
L 107.873844 -83.443251 
L 106.344378 -83.769312 
L 104.814913 -84.227926 
L 103.285447 -84.768355 
L 101.755982 -85.325087 
L 100.226516 -85.842704 
L 98.697051 -86.291892 
L 97.167585 -86.663539 
L 95.63812 -86.948855 
L 94.108654 -87.129716 
L 92.579189 -87.193186 
L 91.049723 -87.156396 
L 89.520258 -87.073605 
L 87.990792 -87.01268 
L 86.461327 -87.016802 
L 84.931861 -87.079337 
L 83.402396 -87.146155 
L 81.87293 -87.139561 
L 80.343465 -86.991369 
L 78.813999 -86.673891 
L 77.284534 -86.21426 
L 75.755068 -85.679917 
L 74.225603 -85.143612 
L 72.696137 -84.654489 
L 71.166672 -84.230312 
L 69.637206 -83.859526 
L 68.107741 -83.499258 
L 66.578275 -83.077738 
L 65.04881 -82.518158 
L 63.519344 -81.777553 
L 61.989879 -80.870083 
L 60.460413 -79.854916 
L 58.930948 -78.803101 
L 57.401482 -77.77309 
L 55.872017 -76.806675 
L 54.342551 -75.933937 
L 52.813086 -75.173644 
L 51.28362 -74.528724 
L 49.754155 -73.984738 
L 48.224689 -73.516065 
L 46.695224 -73.097372 
L 45.165758 -72.71413 
L 43.636293 -72.366483 
L 42.106827 -72.06456 
L 40.577362 -71.818637 
L 39.047896 -71.631014 
L 37.518431 -71.494665 
L 35.988965 -71.397895 
L 34.4595 -71.32993 
L 32.930034 -71.28334 
L 31.400569 -71.253205 
L 29.871103 -71.235444 
L 28.341638 -71.226143 
L 26.812172 -71.221881 
L 25.282706 -71.220186 
z
" id="mb8d21affb0" style="stroke:#90c1c6;stroke-width:1.5;"/>
    </defs>
    <g>
     <use style="fill:#90c1c6;stroke:#90c1c6;stroke-width:1.5;" x="0" xlink:href="#mb8d21affb0" y="311.267375"/>
    </g>
   </g>
   <g id="line2d_13">
    <path d="M 25.282706 240.047189 
L 34.4595 239.937445 
L 39.047896 239.636361 
L 42.106827 239.202815 
L 45.165758 238.553245 
L 48.224689 237.75131 
L 51.28362 236.738651 
L 54.342551 235.333438 
L 57.401482 233.494285 
L 63.519344 229.489822 
L 65.04881 228.749217 
L 66.578275 228.189637 
L 75.755068 225.587458 
L 78.813999 224.593484 
L 80.343465 224.276006 
L 81.87293 224.127814 
L 84.931861 224.188038 
L 87.990792 224.254695 
L 92.579189 224.074189 
L 94.108654 224.137659 
L 97.167585 224.603836 
L 100.226516 225.424671 
L 106.344378 227.498063 
L 107.873844 227.824124 
L 109.403309 227.998681 
L 112.462241 227.995051 
L 115.521172 227.968478 
L 117.050637 228.140356 
L 118.580103 228.486616 
L 121.639034 229.610995 
L 127.756896 232.406444 
L 129.286361 232.919949 
L 130.815827 233.253791 
L 132.345292 233.410994 
L 138.463154 233.538606 
L 139.99262 233.754252 
L 143.051551 234.506958 
L 146.110482 235.398842 
L 149.169413 236.030555 
L 152.228344 236.339871 
L 156.81674 236.446294 
L 159.875671 236.494737 
L 162.934602 236.799173 
L 167.522999 237.456006 
L 170.58193 237.615976 
L 175.170326 237.724265 
L 179.758723 238.105793 
L 193.523913 239.438267 
L 201.17124 239.472072 
L 214.93643 239.40178 
L 219.524826 239.30285 
L 224.113223 239.471275 
L 231.76055 239.781637 
L 239.407878 239.874474 
L 253.173067 239.740463 
L 262.34986 240.022647 
L 329.646343 240.047314 
L 329.646343 240.047314 
" style="fill:none;stroke:#ffffff;stroke-linecap:round;stroke-width:2;"/>
   </g>
   <g id="line2d_14">
    <path d="M 10.064525 240.048 
L 344.864525 240.048 
" style="fill:none;stroke:#90c1c6;stroke-linecap:round;stroke-width:2;"/>
   </g>
   <g id="text_12">
    <!-- 0.4 -->
    <g style="fill:#90c1c6;" transform="translate(261.164525 238.2033)scale(0.24 -0.24)">
     <defs>
      <path d="M 2356 3675 
L 1038 1722 
L 2356 1722 
L 2356 3675 
z
M 2156 4666 
L 3494 4666 
L 3494 1722 
L 4159 1722 
L 4159 850 
L 3494 850 
L 3494 0 
L 2356 0 
L 2356 850 
L 288 850 
L 288 1881 
L 2156 4666 
z
" id="DejaVuSans-Bold-34" transform="scale(0.015625)"/>
     </defs>
     <use xlink:href="#DejaVuSans-Bold-30"/>
     <use x="69.580078" xlink:href="#DejaVuSans-Bold-2e"/>
     <use x="107.568359" xlink:href="#DejaVuSans-Bold-34"/>
    </g>
   </g>
  </g>
 </g>
</svg>
