<?xml version="1.0" encoding="utf-8" standalone="no"?>
<!DOCTYPE svg PUBLIC "-//W3C//DTD SVG 1.1//EN"
  "http://www.w3.org/Graphics/SVG/1.1/DTD/svg11.dtd">
<svg height="674.159375pt" version="1.1" viewBox="0 0 688.981875 674.159375" width="688.981875pt" xmlns="http://www.w3.org/2000/svg" xmlns:xlink="http://www.w3.org/1999/xlink">
 <metadata>
  <rdf:RDF xmlns:cc="http://creativecommons.org/ns#" xmlns:dc="http://purl.org/dc/elements/1.1/" xmlns:rdf="http://www.w3.org/1999/02/22-rdf-syntax-ns#">
   <cc:Work>
    <dc:type rdf:resource="http://purl.org/dc/dcmitype/StillImage"/>
    <dc:date>2021-07-24T14:58:23.538312</dc:date>
    <dc:format>image/svg+xml</dc:format>
    <dc:creator>
     <cc:Agent>
      <dc:title>Matplotlib v3.4.2, https://matplotlib.org/</dc:title>
     </cc:Agent>
    </dc:creator>
   </cc:Work>
  </rdf:RDF>
 </metadata>
 <defs>
  <style type="text/css">*{stroke-linecap:butt;stroke-linejoin:round;}</style>
 </defs>
 <g id="figure_1">
  <g id="patch_1">
   <path d="M 0 674.159375 
L 688.981875 674.159375 
L 688.981875 0 
L 0 0 
z
" style="fill:#ffffff;"/>
  </g>
  <g id="axes_1">
   <g id="patch_2">
    <path d="M 98.911875 602.94 
L 581.861304 602.94 
L 581.861304 109.326857 
L 98.911875 109.326857 
z
" style="fill:none;"/>
   </g>
   <g id="matplotlib.axis_1">
    <g id="xtick_1">
     <g id="text_1">
      <!-- 0 -->
      <g style="fill:#262626;" transform="translate(113.645739 635.156562)scale(0.22 -0.22)">
       <defs>
        <path d="M 2034 4250 
Q 1547 4250 1301 3770 
Q 1056 3291 1056 2328 
Q 1056 1369 1301 889 
Q 1547 409 2034 409 
Q 2525 409 2770 889 
Q 3016 1369 3016 2328 
Q 3016 3291 2770 3770 
Q 2525 4250 2034 4250 
z
M 2034 4750 
Q 2819 4750 3233 4129 
Q 3647 3509 3647 2328 
Q 3647 1150 3233 529 
Q 2819 -91 2034 -91 
Q 1250 -91 836 529 
Q 422 1150 422 2328 
Q 422 3509 836 4129 
Q 1250 4750 2034 4750 
z
" id="DejaVuSans-30" transform="scale(0.015625)"/>
       </defs>
       <use xlink:href="#DejaVuSans-30"/>
      </g>
     </g>
    </g>
    <g id="xtick_2">
     <g id="text_2">
      <!-- 20000 -->
      <g style="fill:#262626;" transform="translate(173.503653 635.156562)scale(0.22 -0.22)">
       <defs>
        <path d="M 1228 531 
L 3431 531 
L 3431 0 
L 469 0 
L 469 531 
Q 828 903 1448 1529 
Q 2069 2156 2228 2338 
Q 2531 2678 2651 2914 
Q 2772 3150 2772 3378 
Q 2772 3750 2511 3984 
Q 2250 4219 1831 4219 
Q 1534 4219 1204 4116 
Q 875 4013 500 3803 
L 500 4441 
Q 881 4594 1212 4672 
Q 1544 4750 1819 4750 
Q 2544 4750 2975 4387 
Q 3406 4025 3406 3419 
Q 3406 3131 3298 2873 
Q 3191 2616 2906 2266 
Q 2828 2175 2409 1742 
Q 1991 1309 1228 531 
z
" id="DejaVuSans-32" transform="scale(0.015625)"/>
       </defs>
       <use xlink:href="#DejaVuSans-32"/>
       <use x="63.623047" xlink:href="#DejaVuSans-30"/>
       <use x="127.246094" xlink:href="#DejaVuSans-30"/>
       <use x="190.869141" xlink:href="#DejaVuSans-30"/>
       <use x="254.492188" xlink:href="#DejaVuSans-30"/>
      </g>
     </g>
    </g>
    <g id="xtick_3">
     <g id="text_3">
      <!-- 40000 -->
      <g style="fill:#262626;" transform="translate(261.356566 635.156562)scale(0.22 -0.22)">
       <defs>
        <path d="M 2419 4116 
L 825 1625 
L 2419 1625 
L 2419 4116 
z
M 2253 4666 
L 3047 4666 
L 3047 1625 
L 3713 1625 
L 3713 1100 
L 3047 1100 
L 3047 0 
L 2419 0 
L 2419 1100 
L 313 1100 
L 313 1709 
L 2253 4666 
z
" id="DejaVuSans-34" transform="scale(0.015625)"/>
       </defs>
       <use xlink:href="#DejaVuSans-34"/>
       <use x="63.623047" xlink:href="#DejaVuSans-30"/>
       <use x="127.246094" xlink:href="#DejaVuSans-30"/>
       <use x="190.869141" xlink:href="#DejaVuSans-30"/>
       <use x="254.492188" xlink:href="#DejaVuSans-30"/>
      </g>
     </g>
    </g>
    <g id="xtick_4">
     <g id="text_4">
      <!-- 60000 -->
      <g style="fill:#262626;" transform="translate(349.20948 635.156562)scale(0.22 -0.22)">
       <defs>
        <path d="M 2113 2584 
Q 1688 2584 1439 2293 
Q 1191 2003 1191 1497 
Q 1191 994 1439 701 
Q 1688 409 2113 409 
Q 2538 409 2786 701 
Q 3034 994 3034 1497 
Q 3034 2003 2786 2293 
Q 2538 2584 2113 2584 
z
M 3366 4563 
L 3366 3988 
Q 3128 4100 2886 4159 
Q 2644 4219 2406 4219 
Q 1781 4219 1451 3797 
Q 1122 3375 1075 2522 
Q 1259 2794 1537 2939 
Q 1816 3084 2150 3084 
Q 2853 3084 3261 2657 
Q 3669 2231 3669 1497 
Q 3669 778 3244 343 
Q 2819 -91 2113 -91 
Q 1303 -91 875 529 
Q 447 1150 447 2328 
Q 447 3434 972 4092 
Q 1497 4750 2381 4750 
Q 2619 4750 2861 4703 
Q 3103 4656 3366 4563 
z
" id="DejaVuSans-36" transform="scale(0.015625)"/>
       </defs>
       <use xlink:href="#DejaVuSans-36"/>
       <use x="63.623047" xlink:href="#DejaVuSans-30"/>
       <use x="127.246094" xlink:href="#DejaVuSans-30"/>
       <use x="190.869141" xlink:href="#DejaVuSans-30"/>
       <use x="254.492188" xlink:href="#DejaVuSans-30"/>
      </g>
     </g>
    </g>
    <g id="xtick_5">
     <g id="text_5">
      <!-- 80000 -->
      <g style="fill:#262626;" transform="translate(437.062393 635.156562)scale(0.22 -0.22)">
       <defs>
        <path d="M 2034 2216 
Q 1584 2216 1326 1975 
Q 1069 1734 1069 1313 
Q 1069 891 1326 650 
Q 1584 409 2034 409 
Q 2484 409 2743 651 
Q 3003 894 3003 1313 
Q 3003 1734 2745 1975 
Q 2488 2216 2034 2216 
z
M 1403 2484 
Q 997 2584 770 2862 
Q 544 3141 544 3541 
Q 544 4100 942 4425 
Q 1341 4750 2034 4750 
Q 2731 4750 3128 4425 
Q 3525 4100 3525 3541 
Q 3525 3141 3298 2862 
Q 3072 2584 2669 2484 
Q 3125 2378 3379 2068 
Q 3634 1759 3634 1313 
Q 3634 634 3220 271 
Q 2806 -91 2034 -91 
Q 1263 -91 848 271 
Q 434 634 434 1313 
Q 434 1759 690 2068 
Q 947 2378 1403 2484 
z
M 1172 3481 
Q 1172 3119 1398 2916 
Q 1625 2713 2034 2713 
Q 2441 2713 2670 2916 
Q 2900 3119 2900 3481 
Q 2900 3844 2670 4047 
Q 2441 4250 2034 4250 
Q 1625 4250 1398 4047 
Q 1172 3844 1172 3481 
z
" id="DejaVuSans-38" transform="scale(0.015625)"/>
       </defs>
       <use xlink:href="#DejaVuSans-38"/>
       <use x="63.623047" xlink:href="#DejaVuSans-30"/>
       <use x="127.246094" xlink:href="#DejaVuSans-30"/>
       <use x="190.869141" xlink:href="#DejaVuSans-30"/>
       <use x="254.492188" xlink:href="#DejaVuSans-30"/>
      </g>
     </g>
    </g>
    <g id="xtick_6">
     <g id="text_6">
      <!-- 100000 -->
      <g style="fill:#262626;" transform="translate(517.916557 635.156562)scale(0.22 -0.22)">
       <defs>
        <path d="M 794 531 
L 1825 531 
L 1825 4091 
L 703 3866 
L 703 4441 
L 1819 4666 
L 2450 4666 
L 2450 531 
L 3481 531 
L 3481 0 
L 794 0 
L 794 531 
z
" id="DejaVuSans-31" transform="scale(0.015625)"/>
       </defs>
       <use xlink:href="#DejaVuSans-31"/>
       <use x="63.623047" xlink:href="#DejaVuSans-30"/>
       <use x="127.246094" xlink:href="#DejaVuSans-30"/>
       <use x="190.869141" xlink:href="#DejaVuSans-30"/>
       <use x="254.492188" xlink:href="#DejaVuSans-30"/>
       <use x="318.115234" xlink:href="#DejaVuSans-30"/>
      </g>
     </g>
    </g>
    <g id="text_7">
     <!-- MDTU -->
     <g style="fill:#262626;" transform="translate(304.680964 661.968125)scale(0.24 -0.24)">
      <defs>
       <path d="M 628 4666 
L 1569 4666 
L 2759 1491 
L 3956 4666 
L 4897 4666 
L 4897 0 
L 4281 0 
L 4281 4097 
L 3078 897 
L 2444 897 
L 1241 4097 
L 1241 0 
L 628 0 
L 628 4666 
z
" id="DejaVuSans-4d" transform="scale(0.015625)"/>
       <path d="M 1259 4147 
L 1259 519 
L 2022 519 
Q 2988 519 3436 956 
Q 3884 1394 3884 2338 
Q 3884 3275 3436 3711 
Q 2988 4147 2022 4147 
L 1259 4147 
z
M 628 4666 
L 1925 4666 
Q 3281 4666 3915 4102 
Q 4550 3538 4550 2338 
Q 4550 1131 3912 565 
Q 3275 0 1925 0 
L 628 0 
L 628 4666 
z
" id="DejaVuSans-44" transform="scale(0.015625)"/>
       <path d="M -19 4666 
L 3928 4666 
L 3928 4134 
L 2272 4134 
L 2272 0 
L 1638 0 
L 1638 4134 
L -19 4134 
L -19 4666 
z
" id="DejaVuSans-54" transform="scale(0.015625)"/>
       <path d="M 556 4666 
L 1191 4666 
L 1191 1831 
Q 1191 1081 1462 751 
Q 1734 422 2344 422 
Q 2950 422 3222 751 
Q 3494 1081 3494 1831 
L 3494 4666 
L 4128 4666 
L 4128 1753 
Q 4128 841 3676 375 
Q 3225 -91 2344 -91 
Q 1459 -91 1007 375 
Q 556 841 556 1753 
L 556 4666 
z
" id="DejaVuSans-55" transform="scale(0.015625)"/>
      </defs>
      <use xlink:href="#DejaVuSans-4d"/>
      <use x="86.279297" xlink:href="#DejaVuSans-44"/>
      <use x="163.28125" xlink:href="#DejaVuSans-54"/>
      <use x="224.365234" xlink:href="#DejaVuSans-55"/>
     </g>
    </g>
   </g>
   <g id="matplotlib.axis_2">
    <g id="ytick_1">
     <g id="text_8">
      <!-- 0.50 -->
      <g style="fill:#262626;" transform="translate(34.4275 576.554337)scale(0.22 -0.22)">
       <defs>
        <path d="M 684 794 
L 1344 794 
L 1344 0 
L 684 0 
L 684 794 
z
" id="DejaVuSans-2e" transform="scale(0.015625)"/>
        <path d="M 691 4666 
L 3169 4666 
L 3169 4134 
L 1269 4134 
L 1269 2991 
Q 1406 3038 1543 3061 
Q 1681 3084 1819 3084 
Q 2600 3084 3056 2656 
Q 3513 2228 3513 1497 
Q 3513 744 3044 326 
Q 2575 -91 1722 -91 
Q 1428 -91 1123 -41 
Q 819 9 494 109 
L 494 744 
Q 775 591 1075 516 
Q 1375 441 1709 441 
Q 2250 441 2565 725 
Q 2881 1009 2881 1497 
Q 2881 1984 2565 2268 
Q 2250 2553 1709 2553 
Q 1456 2553 1204 2497 
Q 953 2441 691 2322 
L 691 4666 
z
" id="DejaVuSans-35" transform="scale(0.015625)"/>
       </defs>
       <use xlink:href="#DejaVuSans-30"/>
       <use x="63.623047" xlink:href="#DejaVuSans-2e"/>
       <use x="95.410156" xlink:href="#DejaVuSans-35"/>
       <use x="159.033203" xlink:href="#DejaVuSans-30"/>
      </g>
     </g>
    </g>
    <g id="ytick_2">
     <g id="text_9">
      <!-- 0.75 -->
      <g style="fill:#262626;" transform="translate(34.4275 514.194558)scale(0.22 -0.22)">
       <defs>
        <path d="M 525 4666 
L 3525 4666 
L 3525 4397 
L 1831 0 
L 1172 0 
L 2766 4134 
L 525 4134 
L 525 4666 
z
" id="DejaVuSans-37" transform="scale(0.015625)"/>
       </defs>
       <use xlink:href="#DejaVuSans-30"/>
       <use x="63.623047" xlink:href="#DejaVuSans-2e"/>
       <use x="95.410156" xlink:href="#DejaVuSans-37"/>
       <use x="159.033203" xlink:href="#DejaVuSans-35"/>
      </g>
     </g>
    </g>
    <g id="ytick_3">
     <g id="text_10">
      <!-- 1.00 -->
      <g style="fill:#262626;" transform="translate(34.4275 451.834779)scale(0.22 -0.22)">
       <use xlink:href="#DejaVuSans-31"/>
       <use x="63.623047" xlink:href="#DejaVuSans-2e"/>
       <use x="95.410156" xlink:href="#DejaVuSans-30"/>
       <use x="159.033203" xlink:href="#DejaVuSans-30"/>
      </g>
     </g>
    </g>
    <g id="ytick_4">
     <g id="text_11">
      <!-- 1.25 -->
      <g style="fill:#262626;" transform="translate(34.4275 389.475)scale(0.22 -0.22)">
       <use xlink:href="#DejaVuSans-31"/>
       <use x="63.623047" xlink:href="#DejaVuSans-2e"/>
       <use x="95.410156" xlink:href="#DejaVuSans-32"/>
       <use x="159.033203" xlink:href="#DejaVuSans-35"/>
      </g>
     </g>
    </g>
    <g id="ytick_5">
     <g id="text_12">
      <!-- 1.50 -->
      <g style="fill:#262626;" transform="translate(34.4275 327.115221)scale(0.22 -0.22)">
       <use xlink:href="#DejaVuSans-31"/>
       <use x="63.623047" xlink:href="#DejaVuSans-2e"/>
       <use x="95.410156" xlink:href="#DejaVuSans-35"/>
       <use x="159.033203" xlink:href="#DejaVuSans-30"/>
      </g>
     </g>
    </g>
    <g id="ytick_6">
     <g id="text_13">
      <!-- 1.75 -->
      <g style="fill:#262626;" transform="translate(34.4275 264.755442)scale(0.22 -0.22)">
       <use xlink:href="#DejaVuSans-31"/>
       <use x="63.623047" xlink:href="#DejaVuSans-2e"/>
       <use x="95.410156" xlink:href="#DejaVuSans-37"/>
       <use x="159.033203" xlink:href="#DejaVuSans-35"/>
      </g>
     </g>
    </g>
    <g id="ytick_7">
     <g id="text_14">
      <!-- 2.00 -->
      <g style="fill:#262626;" transform="translate(34.4275 202.395663)scale(0.22 -0.22)">
       <use xlink:href="#DejaVuSans-32"/>
       <use x="63.623047" xlink:href="#DejaVuSans-2e"/>
       <use x="95.410156" xlink:href="#DejaVuSans-30"/>
       <use x="159.033203" xlink:href="#DejaVuSans-30"/>
      </g>
     </g>
    </g>
    <g id="ytick_8">
     <g id="text_15">
      <!-- 2.25 -->
      <g style="fill:#262626;" transform="translate(34.4275 140.035884)scale(0.22 -0.22)">
       <use xlink:href="#DejaVuSans-32"/>
       <use x="63.623047" xlink:href="#DejaVuSans-2e"/>
       <use x="95.410156" xlink:href="#DejaVuSans-32"/>
       <use x="159.033203" xlink:href="#DejaVuSans-35"/>
      </g>
     </g>
    </g>
    <g id="text_16">
     <!-- $E$ -->
     <g style="fill:#262626;" transform="translate(25.43625 363.813429)rotate(-90)scale(0.24 -0.24)">
      <defs>
       <path d="M 1081 4666 
L 4031 4666 
L 3928 4134 
L 1606 4134 
L 1338 2753 
L 3566 2753 
L 3463 2222 
L 1234 2222 
L 909 531 
L 3284 531 
L 3181 0 
L 172 0 
L 1081 4666 
z
" id="DejaVuSans-Oblique-45" transform="scale(0.015625)"/>
      </defs>
      <use transform="translate(0 0.09375)" xlink:href="#DejaVuSans-Oblique-45"/>
     </g>
    </g>
   </g>
   <g id="line2d_1">
    <path clip-path="url(#p4a8ad850d6)" d="M 120.864122 467.776874 
L 121.083754 360.65776 
L 121.303386 467.16812 
L 121.523019 505.532372 
L 121.742651 290.722766 
L 121.962283 489.449516 
L 122.181915 418.291703 
L 122.401548 468.661497 
L 122.62118 295.625917 
L 122.840812 382.473048 
L 123.060445 357.353662 
L 123.280077 383.571631 
L 123.499709 534.36175 
L 123.938974 485.348683 
L 124.158606 457.066982 
L 124.378238 320.835164 
L 124.597871 431.847788 
L 124.817503 404.293972 
L 125.037135 437.489884 
L 125.256767 264.558912 
L 125.4764 443.63639 
L 125.696032 479.795548 
L 125.915664 423.829559 
L 126.354929 492.133781 
L 126.574561 485.963595 
L 126.794193 365.42323 
L 127.013826 408.487345 
L 127.233458 475.282118 
L 127.45309 308.050731 
L 127.672723 430.87841 
L 127.892355 369.213204 
L 128.111987 441.571893 
L 128.331619 421.288586 
L 128.551252 422.791443 
L 128.770884 404.881287 
L 128.990516 322.307872 
L 129.210149 459.621088 
L 129.429781 337.344044 
L 129.649413 520.791282 
L 129.869045 454.187656 
L 130.088678 303.381939 
L 130.30831 530.754306 
L 130.527942 391.117446 
L 130.747575 506.1436 
L 130.967207 367.132729 
L 131.186839 347.308434 
L 131.406471 359.531707 
L 131.626104 457.593493 
L 132.065368 239.950927 
L 132.285001 427.987124 
L 132.504633 518.940158 
L 132.724265 446.789903 
L 132.943897 506.040003 
L 133.16353 331.698754 
L 133.383162 446.555451 
L 133.602794 409.285467 
L 133.822426 494.426402 
L 134.042059 401.354784 
L 134.261691 360.85219 
L 134.481323 479.406715 
L 134.700956 318.836841 
L 134.920588 449.412673 
L 135.14022 387.268408 
L 135.359852 508.773906 
L 135.579485 444.445254 
L 135.799117 498.426117 
L 136.018749 391.977787 
L 136.238382 498.988311 
L 136.458014 326.837503 
L 136.677646 411.458403 
L 136.897278 423.325713 
L 137.116911 428.293823 
L 137.336543 403.405942 
L 137.556175 353.326338 
L 137.775808 381.217711 
L 138.215072 500.952952 
L 138.434704 510.248969 
L 138.654337 495.183208 
L 138.873969 468.664014 
L 139.093601 385.256759 
L 139.313234 437.313794 
L 139.532866 444.307778 
L 139.752498 434.856017 
L 139.97213 468.324829 
L 140.191763 389.717134 
L 140.411395 384.606997 
L 140.631027 404.861165 
L 140.85066 383.635843 
L 141.070292 410.08872 
L 141.289924 508.747178 
L 141.509556 438.927549 
L 141.948821 273.869922 
L 142.168453 437.451879 
L 142.388086 498.015319 
L 142.607718 321.619018 
L 142.82735 497.921804 
L 143.046982 469.323641 
L 143.266615 522.953441 
L 143.486247 400.947749 
L 143.705879 543.598515 
L 143.925512 480.87504 
L 144.145144 315.167322 
L 144.364776 417.240845 
L 144.584408 319.73478 
L 144.804041 468.629509 
L 145.023673 384.555598 
L 145.243305 453.78092 
L 145.462938 426.765139 
L 145.68257 446.713289 
L 145.902202 443.082179 
L 146.121834 525.552176 
L 146.561099 413.725451 
L 146.780731 535.98818 
L 147.000364 528.229081 
L 147.219996 412.062732 
L 147.439628 489.679025 
L 147.65926 478.705793 
L 147.878893 413.325385 
L 148.098525 473.324152 
L 148.318157 417.286044 
L 148.537789 468.503606 
L 148.757422 446.881664 
L 148.977054 497.405244 
L 149.196686 334.164415 
L 149.416319 418.030021 
L 149.855583 225.597712 
L 150.075215 467.867965 
L 150.294848 381.30336 
L 150.51448 429.570445 
L 150.734112 308.397 
L 150.953745 432.197535 
L 151.173377 430.776094 
L 151.393009 520.281161 
L 151.612641 421.371919 
L 151.832274 493.585412 
L 152.051906 365.724466 
L 152.271538 464.635132 
L 152.491171 335.671774 
L 152.710803 425.085334 
L 152.930435 342.092004 
L 153.150067 474.654678 
L 153.3697 529.98603 
L 153.589332 486.575654 
L 153.808964 553.578796 
L 154.028597 514.792468 
L 154.248229 451.981711 
L 154.467861 455.917695 
L 154.687493 422.969784 
L 154.907126 475.018183 
L 155.126758 354.289262 
L 155.566023 487.808485 
L 155.785655 407.152851 
L 156.005287 422.331645 
L 156.224919 389.543357 
L 156.444552 490.10324 
L 156.664184 520.63474 
L 156.883816 285.987503 
L 157.103449 405.124072 
L 157.323081 421.452821 
L 157.542713 514.59651 
L 157.762345 321.567753 
L 158.20161 519.778221 
L 158.421242 463.850163 
L 158.640875 455.213482 
L 159.080139 350.69076 
L 159.299771 446.549323 
L 159.519404 472.254609 
L 159.739036 294.829206 
L 159.958668 341.345678 
L 160.178301 286.427958 
L 160.397933 453.857976 
L 160.617565 441.257484 
L 160.837197 453.739412 
L 161.05683 448.002763 
L 161.276462 267.105064 
L 161.496094 518.521133 
L 161.715727 507.741784 
L 161.935359 366.891927 
L 162.154991 471.670024 
L 162.594256 385.518759 
L 163.03352 461.641453 
L 163.253153 414.967494 
L 163.472785 407.501405 
L 163.692417 222.205065 
L 164.351314 430.89705 
L 164.570946 324.380432 
L 165.010211 445.335066 
L 165.229843 437.504714 
L 165.449475 436.67972 
L 165.669108 345.631733 
L 165.88874 481.283743 
L 166.328004 507.561832 
L 166.547637 514.166176 
L 166.767269 431.049138 
L 166.986901 462.48217 
L 167.206534 426.789779 
L 167.426166 348.141667 
L 167.645798 430.821754 
L 167.86543 449.291575 
L 168.085063 522.774646 
L 168.304695 337.478881 
L 168.74396 474.277602 
L 168.963592 348.855425 
L 169.183224 395.303128 
L 169.402856 467.718907 
L 169.622489 461.965522 
L 169.842121 490.98127 
L 170.061753 428.672607 
L 170.281386 433.433205 
L 170.501018 499.130783 
L 170.72065 414.627886 
L 171.159915 482.198234 
L 171.379547 182.694807 
L 171.599179 405.88269 
L 171.818812 345.35699 
L 172.258076 537.169074 
L 172.697341 415.737915 
L 172.916973 512.180918 
L 173.356238 401.960482 
L 173.57587 505.75503 
L 173.795502 339.87443 
L 174.015134 518.401849 
L 174.234767 375.063834 
L 174.454399 315.322319 
L 174.674031 445.087449 
L 174.893664 400.867232 
L 175.113296 468.183244 
L 175.332928 355.539031 
L 175.55256 443.581497 
L 175.772193 446.400015 
L 175.991825 267.143286 
L 176.211457 419.279189 
L 176.43109 379.203546 
L 176.650722 276.038141 
L 176.870354 438.154001 
L 177.089986 310.180512 
L 177.309619 505.758896 
L 177.529251 372.07927 
L 177.748883 375.509865 
L 177.968516 422.114524 
L 178.188148 404.504375 
L 178.627412 281.610027 
L 178.847045 501.730254 
L 179.286309 404.910905 
L 179.505941 427.797512 
L 179.725574 349.9066 
L 179.945206 469.601759 
L 180.164838 474.070766 
L 180.384471 498.682473 
L 180.604103 484.662932 
L 180.823735 434.402033 
L 181.043367 466.316663 
L 181.263 539.901441 
L 181.702264 399.621247 
L 181.921897 452.475485 
L 182.141529 371.629813 
L 182.580793 458.404806 
L 182.800426 383.277819 
L 183.020058 385.513267 
L 183.23969 427.267417 
L 183.459323 267.976259 
L 183.678955 376.16153 
L 183.898587 352.306061 
L 184.118219 505.765014 
L 184.337852 457.706429 
L 184.557484 537.591757 
L 184.996749 337.298567 
L 185.216381 446.975445 
L 185.436013 342.869064 
L 185.655645 406.562087 
L 185.875278 370.124376 
L 186.09491 446.955165 
L 186.314542 457.286706 
L 186.534175 294.374349 
L 186.753807 399.198025 
L 186.973439 412.521478 
L 187.193071 481.693272 
L 187.412704 421.131105 
L 187.632336 280.271515 
L 187.851968 442.600824 
L 188.071601 343.858461 
L 188.291233 433.15783 
L 188.510865 371.92415 
L 188.730497 500.89626 
L 188.95013 485.937159 
L 189.169762 518.061328 
L 189.389394 288.694306 
L 189.609027 501.114163 
L 189.828659 405.747922 
L 190.048291 419.158528 
L 190.267923 407.440672 
L 190.487556 490.460425 
L 190.707188 339.227372 
L 190.92682 404.633854 
L 191.146453 569.644584 
L 191.366085 456.863708 
L 191.585717 535.929499 
L 191.805349 416.256081 
L 192.024982 361.601691 
L 192.244614 425.352123 
L 192.464246 441.774036 
L 192.683879 427.645786 
L 192.903511 505.711671 
L 193.123143 396.923723 
L 193.342775 374.436947 
L 193.562408 423.042383 
L 193.78204 394.418916 
L 194.001672 397.990289 
L 194.221305 457.063601 
L 194.440937 445.815892 
L 194.880201 489.437112 
L 195.099834 496.822444 
L 195.319466 485.697338 
L 195.539098 415.778286 
L 195.75873 382.64598 
L 195.978363 375.590787 
L 196.197995 500.565815 
L 196.417627 549.396096 
L 196.63726 550.774928 
L 196.856892 364.858638 
L 197.076524 428.577626 
L 197.296156 338.167822 
L 197.515789 485.917026 
L 197.735421 510.091695 
L 198.174686 319.463305 
L 198.394318 515.136252 
L 198.833582 292.120851 
L 199.053215 475.55854 
L 199.272847 492.217927 
L 199.492479 345.06296 
L 199.712112 451.947979 
L 199.931744 333.558578 
L 200.151376 552.393451 
L 200.371008 468.665379 
L 200.590641 454.831878 
L 200.810273 407.42829 
L 201.029905 296.646191 
L 201.249538 326.805152 
L 201.688802 496.580287 
L 201.908434 341.079662 
L 202.128067 453.223168 
L 202.347699 448.719528 
L 202.567331 435.571868 
L 202.786964 383.575215 
L 203.006596 404.380271 
L 203.226228 504.754625 
L 203.44586 388.561788 
L 203.665493 523.838559 
L 203.885125 524.226929 
L 204.104757 441.644001 
L 204.32439 410.743182 
L 204.544022 241.863135 
L 204.763654 321.816383 
L 204.983286 358.808122 
L 205.202919 493.24075 
L 205.422551 403.585709 
L 205.642183 457.939464 
L 205.861816 455.039961 
L 206.30108 393.724976 
L 206.520712 437.958611 
L 206.740345 442.73844 
L 206.959977 434.314731 
L 207.179609 439.435239 
L 207.399242 492.982541 
L 207.618874 386.580602 
L 207.838506 418.310492 
L 208.058138 370.928249 
L 208.277771 484.878308 
L 208.717035 278.008765 
L 208.936668 545.561854 
L 209.1563 493.141217 
L 209.375932 495.850001 
L 209.595564 487.993272 
L 209.815197 385.17142 
L 210.034829 380.195937 
L 210.254461 351.935768 
L 210.474093 477.183702 
L 210.693726 325.170802 
L 211.13299 438.621796 
L 211.352623 490.998451 
L 211.572255 262.919991 
L 211.791887 457.887227 
L 212.011519 451.005606 
L 212.231152 456.536105 
L 212.450784 505.153416 
L 212.670416 324.047975 
L 212.890049 351.247246 
L 213.109681 510.12987 
L 213.329313 439.513797 
L 213.548945 421.590633 
L 213.768578 434.59299 
L 213.98821 513.802834 
L 214.207842 395.131052 
L 214.427475 482.740096 
L 214.647107 466.695721 
L 214.866739 437.980841 
L 215.086371 456.041366 
L 215.525636 349.213451 
L 215.745268 414.978576 
L 215.964901 439.253919 
L 216.184533 265.431011 
L 216.404165 307.446407 
L 216.623797 468.61784 
L 216.84343 479.076081 
L 217.063062 450.481453 
L 217.502327 484.726442 
L 217.721959 444.116742 
L 217.941591 333.050905 
L 218.161223 492.082243 
L 218.380856 250.898643 
L 218.82012 513.365516 
L 219.039753 347.801304 
L 219.259385 370.877269 
L 219.479017 446.55224 
L 219.698649 443.379899 
L 219.918282 364.920453 
L 220.137914 494.667209 
L 220.357546 393.835433 
L 220.577179 544.669679 
L 220.796811 380.640604 
L 221.016443 379.909404 
L 221.236075 401.412014 
L 221.455708 472.217329 
L 221.67534 462.987959 
L 222.114605 370.31657 
L 222.334237 393.685203 
L 222.553869 225.198854 
L 222.773501 507.015731 
L 222.993134 364.112793 
L 223.212766 463.834252 
L 223.432398 407.237159 
L 223.871663 486.768246 
L 224.091295 504.653746 
L 224.310927 432.422804 
L 224.53056 413.297729 
L 224.750192 466.053176 
L 224.969824 425.691075 
L 225.189456 340.983968 
L 225.409089 485.356141 
L 225.628721 344.183135 
L 225.848353 476.004511 
L 226.067986 435.682096 
L 226.287618 428.938819 
L 226.50725 534.699855 
L 226.726882 386.247328 
L 226.946515 467.885393 
L 227.166147 427.669774 
L 227.385779 464.663265 
L 227.605412 443.856648 
L 227.825044 484.096828 
L 228.044676 346.577325 
L 228.264308 436.014736 
L 228.483941 443.692213 
L 228.703573 477.30896 
L 228.923205 487.052413 
L 229.142838 331.794449 
L 229.36247 306.046469 
L 229.582102 508.59151 
L 229.801734 528.347222 
L 230.021367 516.695391 
L 230.240999 455.117525 
L 230.460631 476.37397 
L 230.680264 368.197774 
L 230.899896 441.391573 
L 231.33916 400.595127 
L 231.558793 329.341879 
L 231.778425 472.75536 
L 231.998057 455.488304 
L 232.21769 458.786328 
L 232.437322 438.760141 
L 232.656954 482.582835 
L 232.876586 445.840854 
L 233.096219 431.740846 
L 233.315851 460.649001 
L 233.535483 325.67032 
L 233.755116 304.770879 
L 233.974748 262.328997 
L 234.19438 488.374409 
L 234.414012 339.48249 
L 234.633645 423.107123 
L 234.853277 350.122191 
L 235.292542 487.890462 
L 235.512174 411.410926 
L 235.731806 413.561928 
L 235.951438 420.889861 
L 236.171071 445.475889 
L 236.390703 396.386849 
L 236.610335 427.79779 
L 236.829968 426.73747 
L 237.0496 403.231826 
L 237.269232 520.327481 
L 237.708497 406.43015 
L 238.367394 513.661713 
L 238.587026 510.074947 
L 238.806658 383.440742 
L 239.02629 505.015339 
L 239.245923 382.765945 
L 239.465555 359.181205 
L 239.90482 479.882732 
L 240.124452 366.425256 
L 240.344084 352.156744 
L 240.563716 447.211785 
L 240.783349 435.379241 
L 241.222613 395.859904 
L 241.661878 525.940582 
L 242.101142 342.239066 
L 242.320775 469.743805 
L 242.540407 462.29561 
L 242.760039 428.773322 
L 242.979671 456.473664 
L 243.199304 411.328519 
L 243.418936 342.88052 
L 243.638568 409.635896 
L 243.858201 412.398168 
L 244.077833 423.277091 
L 244.297465 471.18426 
L 244.517097 459.662106 
L 244.956362 414.593753 
L 245.175994 489.960162 
L 245.395627 380.354349 
L 245.615259 427.145484 
L 245.834891 503.786638 
L 246.054523 412.089107 
L 246.274156 173.317816 
L 246.493788 276.291171 
L 246.71342 469.421091 
L 246.933053 457.517611 
L 247.152685 372.715141 
L 247.372317 411.10838 
L 247.591949 471.549577 
L 247.811582 330.141297 
L 248.031214 514.712401 
L 248.470479 452.050759 
L 248.909743 474.798376 
L 249.129375 397.031773 
L 249.349008 436.647657 
L 249.56864 356.018189 
L 249.788272 443.77976 
L 250.007905 413.553385 
L 250.227537 419.538831 
L 250.447169 453.626642 
L 250.886434 412.66284 
L 251.106066 412.863601 
L 251.325698 398.792883 
L 251.545331 437.071868 
L 251.764963 371.464786 
L 251.984595 446.051384 
L 252.204227 322.698135 
L 252.42386 520.152041 
L 252.643492 428.820043 
L 252.863124 464.483826 
L 253.082757 364.981798 
L 253.302389 373.382408 
L 253.522021 464.247731 
L 253.741653 291.092562 
L 253.961286 465.393178 
L 254.180918 387.440712 
L 254.40055 370.053034 
L 254.620183 418.656671 
L 254.839815 551.807925 
L 255.279079 404.625781 
L 255.498712 409.818138 
L 255.718344 427.022888 
L 255.937976 372.884726 
L 256.157608 434.996877 
L 256.377241 365.713068 
L 256.596873 498.551844 
L 256.816505 352.828733 
L 257.036138 388.139658 
L 257.25577 457.4436 
L 257.475402 465.18223 
L 257.695034 391.952794 
L 257.914667 515.033093 
L 258.353931 422.467824 
L 258.573564 459.008761 
L 258.793196 458.672795 
L 259.012828 344.492391 
L 259.23246 479.405648 
L 259.452093 349.000211 
L 259.671725 479.173066 
L 259.891357 502.277931 
L 260.11099 395.38656 
L 260.330622 420.60823 
L 260.550254 471.543771 
L 260.769886 462.122078 
L 260.989519 392.8049 
L 261.209151 451.939621 
L 261.648416 390.926114 
L 262.307312 505.531068 
L 262.526945 279.526907 
L 263.185842 449.924951 
L 263.405474 436.088053 
L 263.625106 380.729568 
L 263.844738 449.966007 
L 264.064371 331.267393 
L 264.284003 384.809933 
L 264.503635 498.797029 
L 264.723268 290.701795 
L 264.9429 513.904898 
L 265.162532 461.819196 
L 265.382164 478.607398 
L 265.601797 297.306263 
L 265.821429 440.89754 
L 266.041061 405.584657 
L 266.260694 518.676095 
L 266.480326 383.536746 
L 266.699958 455.190921 
L 266.91959 478.737366 
L 267.139223 411.934926 
L 267.358855 407.034813 
L 267.578487 484.657749 
L 267.79812 484.813499 
L 268.017752 519.021787 
L 268.237384 380.41903 
L 268.457016 404.500639 
L 268.676649 325.334333 
L 268.896281 427.575551 
L 269.115913 421.052058 
L 269.335546 419.103974 
L 269.555178 439.804517 
L 269.77481 363.682927 
L 270.214075 554.036835 
L 270.433707 518.892888 
L 270.872972 359.414996 
L 271.092604 427.189263 
L 271.312236 385.747106 
L 271.531868 473.110718 
L 271.751501 469.371202 
L 271.971133 420.322356 
L 272.190765 435.146975 
L 272.410397 498.981418 
L 272.63003 399.957232 
L 272.849662 535.398493 
L 273.728191 284.970191 
L 273.947823 423.151134 
L 274.167456 374.925156 
L 274.387088 396.278106 
L 274.60672 477.962176 
L 274.826353 445.350915 
L 275.045985 533.16739 
L 275.265617 398.350183 
L 275.485249 423.679601 
L 275.704882 373.068547 
L 275.924514 489.475477 
L 276.144146 526.8119 
L 276.363779 481.250539 
L 276.583411 242.630518 
L 276.803043 401.427335 
L 277.022675 427.371101 
L 277.242308 395.711698 
L 277.46194 533.252256 
L 277.681572 485.436513 
L 277.901205 485.951108 
L 278.120837 465.611189 
L 278.340469 485.299417 
L 278.560101 473.155738 
L 278.779734 521.561636 
L 278.999366 490.586702 
L 279.218998 484.314368 
L 279.438631 544.987972 
L 279.658263 374.236175 
L 279.877895 528.634766 
L 280.31716 435.398513 
L 280.536792 354.155551 
L 280.756424 432.136223 
L 281.195689 355.636302 
L 281.415321 415.909673 
L 281.634953 361.508615 
L 281.854586 362.921711 
L 282.074218 521.913971 
L 282.29385 476.336022 
L 282.513483 401.475971 
L 282.733115 457.201121 
L 282.952747 469.298774 
L 283.172379 504.721382 
L 283.392012 432.18742 
L 283.611644 467.157052 
L 283.831276 482.488385 
L 284.050909 429.605993 
L 284.270541 142.586956 
L 284.490173 520.377611 
L 284.709805 307.640277 
L 284.929438 279.51624 
L 285.368702 465.356123 
L 285.588335 468.180442 
L 285.807967 422.568283 
L 286.027599 403.992242 
L 286.247231 490.258756 
L 286.466864 417.209631 
L 286.686496 399.740998 
L 286.906128 392.959792 
L 287.12576 462.552337 
L 287.345393 434.043499 
L 287.784657 335.902603 
L 288.223922 494.547146 
L 288.443554 372.738266 
L 288.663186 329.735394 
L 288.882819 439.007153 
L 289.102451 427.453868 
L 289.322083 462.186539 
L 289.541716 309.596544 
L 289.761348 342.397472 
L 289.98098 458.648034 
L 290.200612 475.406682 
L 290.420245 435.493481 
L 290.639877 450.8456 
L 290.859509 301.740482 
L 291.079142 406.422763 
L 291.298774 365.567485 
L 291.518406 349.460999 
L 291.738038 461.473843 
L 291.957671 479.370125 
L 292.177303 450.967925 
L 292.616568 131.763818 
L 292.8362 454.090316 
L 293.055832 475.20998 
L 293.275464 372.235413 
L 293.495097 517.184043 
L 293.934361 324.676923 
L 294.373626 493.137706 
L 294.593258 355.816734 
L 294.81289 492.064569 
L 295.032523 420.184054 
L 295.252155 424.837576 
L 295.471787 378.080404 
L 295.69142 471.379969 
L 295.911052 454.985784 
L 296.130684 354.953108 
L 296.350316 420.669158 
L 296.569949 370.75705 
L 297.009213 495.291859 
L 297.228846 486.452814 
L 297.448478 394.657707 
L 297.66811 466.530521 
L 297.887742 392.538705 
L 298.327007 423.8908 
L 298.546639 472.80898 
L 298.766272 424.850695 
L 299.205536 531.294568 
L 299.644801 362.058214 
L 299.864433 486.994155 
L 300.084065 486.582456 
L 300.52333 225.344326 
L 300.742962 485.886524 
L 300.962594 467.364912 
L 301.182227 434.515209 
L 301.401859 424.430273 
L 301.621491 484.993037 
L 301.841124 433.785983 
L 302.060756 355.287209 
L 302.280388 472.371881 
L 302.50002 403.08534 
L 302.719653 487.943052 
L 302.939285 426.592633 
L 303.158917 454.877514 
L 303.378549 431.944334 
L 303.598182 464.16088 
L 303.817814 433.289206 
L 304.037446 424.792977 
L 304.257079 444.771995 
L 304.476711 448.536324 
L 304.696343 457.968114 
L 304.915975 394.487179 
L 305.135608 557.482561 
L 305.35524 439.464103 
L 305.574872 511.410929 
L 305.794505 503.125391 
L 306.014137 177.337302 
L 306.233769 499.780136 
L 306.453401 361.338126 
L 306.673034 480.196345 
L 306.892666 395.982633 
L 307.112298 384.208664 
L 307.331931 494.949671 
L 307.551563 487.924219 
L 307.771195 437.265736 
L 307.990827 447.144999 
L 308.21046 395.421764 
L 308.430092 412.75909 
L 308.649724 399.313662 
L 308.869357 396.528068 
L 309.088989 404.002561 
L 309.308621 359.397235 
L 309.528253 441.345618 
L 309.747886 408.263008 
L 309.967518 450.281783 
L 310.406783 456.135584 
L 310.626415 338.176983 
L 310.846047 468.791309 
L 311.065679 453.855329 
L 311.285312 466.221122 
L 311.504944 455.324558 
L 311.724576 455.799048 
L 312.163841 418.658016 
L 312.383473 417.101716 
L 312.603105 406.403473 
L 312.822738 478.873064 
L 313.262002 426.853974 
L 313.481635 420.35694 
L 313.701267 333.803486 
L 313.920899 467.56206 
L 314.360164 358.225186 
L 314.579796 338.776614 
L 314.799428 506.887932 
L 315.019061 458.834787 
L 315.238693 441.903552 
L 315.677957 526.940003 
L 315.89759 484.479963 
L 316.117222 326.138654 
L 316.556487 457.776267 
L 316.776119 394.380274 
L 316.995751 410.363224 
L 317.215383 381.30721 
L 317.435016 447.262011 
L 317.654648 173.941601 
L 318.093912 462.115582 
L 318.313545 454.110816 
L 318.533177 428.105973 
L 318.752809 462.783503 
L 318.972442 430.514612 
L 319.192074 242.115111 
L 319.411706 393.838642 
L 319.850971 511.456226 
L 320.290235 434.324921 
L 320.509868 456.587837 
L 320.7295 450.657323 
L 320.949132 332.527183 
L 321.388397 458.936075 
L 321.608029 425.431739 
L 321.827661 279.648214 
L 322.047294 374.149263 
L 322.266926 368.297018 
L 322.486558 510.373576 
L 322.70619 381.235587 
L 322.925823 383.404159 
L 323.145455 489.601382 
L 323.58472 352.459759 
L 323.804352 461.883004 
L 324.023984 385.950474 
L 324.243616 392.618238 
L 324.463249 459.940858 
L 324.682881 443.890153 
L 324.902513 520.398831 
L 325.122146 439.054212 
L 325.341778 456.47875 
L 325.56141 437.163063 
L 325.781042 499.771142 
L 326.220307 542.675005 
L 326.439939 458.755372 
L 326.659572 420.447254 
L 326.879204 465.063817 
L 327.098836 459.38196 
L 327.318468 265.479119 
L 327.538101 469.735541 
L 327.757733 450.889362 
L 327.977365 468.110152 
L 328.196998 470.858714 
L 328.41663 334.448925 
L 328.855894 455.074154 
L 329.075527 463.408594 
L 329.514791 426.836825 
L 329.734424 356.262837 
L 329.954056 454.908046 
L 330.173688 350.381004 
L 330.39332 463.297722 
L 330.612953 481.056727 
L 330.832585 473.204326 
L 331.052217 469.765404 
L 331.27185 484.853644 
L 331.491482 327.153775 
L 331.711114 502.236274 
L 331.930746 469.363728 
L 332.150379 484.436977 
L 332.370011 280.407575 
L 332.589643 403.734351 
L 332.809275 446.575391 
L 333.24854 475.399638 
L 333.468172 478.862536 
L 333.687805 427.665255 
L 333.907437 440.514752 
L 334.127069 306.112714 
L 334.346701 464.390015 
L 334.566334 466.97338 
L 334.785966 495.451284 
L 335.005598 347.170031 
L 335.225231 521.616376 
L 335.444863 432.534597 
L 335.664495 390.888396 
L 335.884127 411.559651 
L 336.323392 542.644665 
L 336.543024 347.411619 
L 336.762657 367.475815 
L 336.982289 480.405006 
L 337.201921 464.343923 
L 337.641186 332.009078 
L 337.860818 427.889672 
L 338.08045 421.958045 
L 338.300083 501.631536 
L 338.739347 353.693877 
L 338.958979 489.571253 
L 339.178612 483.741486 
L 339.837509 417.324417 
L 340.057141 341.641267 
L 340.276773 366.623713 
L 340.496405 553.439711 
L 340.716038 402.827437 
L 340.93567 456.425292 
L 341.155302 386.787117 
L 341.374935 357.328159 
L 341.594567 524.593976 
L 341.814199 424.177589 
L 342.033831 412.522289 
L 342.473096 440.405348 
L 342.692728 458.485831 
L 343.131993 395.444489 
L 343.351625 522.768056 
L 343.571257 331.77378 
L 343.79089 407.147333 
L 344.010522 337.676718 
L 344.230154 364.820324 
L 344.449787 293.500923 
L 344.669419 496.817763 
L 344.889051 456.868789 
L 345.108683 441.48567 
L 345.328316 466.227924 
L 345.547948 451.159013 
L 345.76758 249.243616 
L 345.987213 511.381156 
L 346.206845 417.779229 
L 346.426477 540.28524 
L 346.646109 293.459486 
L 346.865742 459.578412 
L 347.085374 465.843069 
L 347.305006 387.046305 
L 347.524639 482.842864 
L 347.744271 387.719467 
L 347.963903 450.409506 
L 348.183535 477.365157 
L 348.842432 383.209017 
L 349.062064 414.4828 
L 349.501329 341.492212 
L 349.720961 432.54003 
L 349.940594 290.468078 
L 350.160226 266.523894 
L 350.379858 404.335267 
L 350.819123 300.332395 
L 351.038755 352.555326 
L 351.258387 303.941534 
L 351.47802 489.61104 
L 351.697652 429.239745 
L 351.917284 452.861018 
L 352.136916 304.527267 
L 352.356549 477.489094 
L 352.576181 487.170102 
L 352.795813 270.821958 
L 353.015446 406.761141 
L 353.235078 351.861527 
L 353.45471 390.274911 
L 353.674342 491.902959 
L 354.113607 397.961015 
L 354.333239 421.134078 
L 354.552872 374.405648 
L 354.992136 546.875278 
L 355.211768 303.165297 
L 355.431401 511.687301 
L 355.651033 461.541562 
L 355.870665 448.012091 
L 356.090298 381.698118 
L 356.30993 472.441803 
L 356.529562 470.920059 
L 356.749194 388.44298 
L 356.968827 489.460433 
L 357.188459 203.770073 
L 357.408091 483.523872 
L 357.627724 469.310178 
L 357.847356 463.409036 
L 358.066988 467.473129 
L 358.28662 420.438381 
L 358.506253 527.686621 
L 358.725885 445.227766 
L 358.945517 409.527717 
L 359.16515 465.123742 
L 359.384782 363.434433 
L 359.604414 441.056344 
L 359.824046 341.329809 
L 360.043679 508.160256 
L 360.263311 346.823317 
L 360.922208 463.68533 
L 361.14184 400.812658 
L 361.361472 469.894163 
L 361.581105 457.506938 
L 361.800737 341.062734 
L 362.240002 457.031439 
L 362.459634 328.26777 
L 362.679266 428.195819 
L 362.898898 374.577391 
L 363.118531 424.30726 
L 363.338163 395.560559 
L 363.557795 446.161289 
L 363.777427 378.939909 
L 363.99706 395.599335 
L 364.216692 437.717414 
L 364.436324 327.885429 
L 364.655957 464.308738 
L 364.875589 462.964224 
L 365.095221 388.606137 
L 365.314853 432.286628 
L 365.534486 441.05521 
L 365.754118 352.989891 
L 365.97375 457.437692 
L 366.193383 418.211518 
L 366.413015 458.288937 
L 366.632647 471.851808 
L 366.852279 430.434431 
L 367.071912 424.586599 
L 367.291544 402.316418 
L 367.730809 297.16985 
L 367.950441 288.514325 
L 368.389705 510.895598 
L 368.609338 458.347006 
L 368.82897 576.89701 
L 369.268235 435.618515 
L 369.487867 419.972713 
L 369.707499 498.293503 
L 369.927131 374.916019 
L 370.146764 473.398729 
L 370.586028 385.306348 
L 370.805661 286.3493 
L 371.025293 439.878639 
L 371.244925 338.155638 
L 371.464557 380.746235 
L 371.68419 478.014854 
L 371.903822 502.812115 
L 372.123454 440.830319 
L 372.343087 478.220322 
L 372.562719 229.074193 
L 372.782351 450.378567 
L 373.001983 314.399315 
L 373.221616 430.667376 
L 373.66088 503.184897 
L 373.880513 364.614026 
L 374.100145 510.334991 
L 374.319777 456.575682 
L 374.539409 472.182571 
L 374.759042 369.329285 
L 374.978674 422.428361 
L 375.198306 406.658305 
L 375.417939 461.265601 
L 375.637571 409.487984 
L 375.857203 453.045435 
L 376.076835 527.272315 
L 376.296468 396.189433 
L 376.5161 469.432097 
L 376.735732 334.766918 
L 376.955365 508.604388 
L 377.394629 349.007988 
L 377.614261 254.539083 
L 377.833894 501.318603 
L 378.053526 477.636929 
L 378.273158 470.391715 
L 378.492791 432.815467 
L 378.712423 452.331894 
L 378.932055 377.01081 
L 379.151687 468.387757 
L 379.37132 506.008318 
L 379.810584 371.223832 
L 380.030216 472.961363 
L 380.249849 452.432187 
L 380.469481 525.332747 
L 380.689113 514.930118 
L 380.908746 496.147025 
L 381.128378 502.212658 
L 381.34801 519.123949 
L 381.567642 415.839166 
L 381.787275 471.198236 
L 382.006907 462.477631 
L 382.226539 401.797593 
L 382.446172 494.176567 
L 382.665804 426.951067 
L 382.885436 431.531663 
L 383.105068 508.354014 
L 383.324701 410.02438 
L 383.544333 460.69907 
L 383.763965 480.451586 
L 383.983598 389.666823 
L 384.20323 546.196675 
L 384.642494 372.630144 
L 384.862127 491.031792 
L 385.081759 402.003558 
L 385.301391 451.111922 
L 385.521024 421.864799 
L 385.740656 411.537098 
L 385.960288 408.616926 
L 386.399553 457.493148 
L 386.838817 330.202722 
L 387.05845 517.372782 
L 387.278082 389.397625 
L 387.717346 440.999623 
L 387.936979 504.585647 
L 388.156611 519.298442 
L 388.376243 226.085089 
L 388.595876 484.948742 
L 388.815508 524.346938 
L 389.03514 423.242888 
L 389.254772 519.09713 
L 389.474405 398.993055 
L 389.913669 492.038822 
L 390.133302 508.99692 
L 390.352934 507.126116 
L 390.572566 441.550182 
L 390.792198 475.310788 
L 391.011831 250.156483 
L 391.231463 314.083624 
L 391.451095 467.182949 
L 391.670728 421.428006 
L 391.89036 460.709088 
L 392.109992 437.163753 
L 392.329624 385.32018 
L 392.549257 396.90928 
L 392.988521 497.80072 
L 393.208154 434.665339 
L 393.427786 275.481587 
L 393.647418 477.085153 
L 393.86705 340.655077 
L 394.086683 315.413979 
L 394.306315 439.809829 
L 394.745579 374.327106 
L 394.965212 555.945817 
L 395.184844 311.987749 
L 395.404476 448.360371 
L 395.624109 506.417026 
L 395.843741 391.134911 
L 396.283005 458.209931 
L 396.502638 414.557769 
L 396.941902 493.435946 
L 397.161535 490.79941 
L 397.381167 358.650158 
L 397.600799 500.200678 
L 397.820431 287.296402 
L 398.040064 428.974843 
L 398.259696 349.632515 
L 398.479328 428.191328 
L 398.698961 219.628476 
L 398.918593 387.691545 
L 399.138225 356.795079 
L 399.357857 436.683795 
L 399.57749 359.220364 
L 400.016754 417.810523 
L 400.236387 407.060492 
L 400.456019 359.781478 
L 400.675651 391.773571 
L 400.895283 531.310621 
L 401.114916 464.124386 
L 401.334548 494.716979 
L 401.55418 336.008398 
L 401.773813 430.045025 
L 401.993445 416.329781 
L 402.213077 379.610943 
L 402.432709 448.721371 
L 402.652342 454.023351 
L 402.871974 437.870896 
L 403.091606 450.473718 
L 403.311239 536.59983 
L 403.530871 435.168875 
L 403.750503 461.564838 
L 403.970135 351.178999 
L 404.189768 455.527515 
L 404.4094 362.506129 
L 404.629032 415.050263 
L 404.848665 337.839737 
L 405.068297 202.921113 
L 405.287929 445.302195 
L 405.507561 371.253415 
L 406.166458 542.942498 
L 406.386091 447.797204 
L 406.605723 467.16529 
L 406.825355 409.483397 
L 407.044987 410.972345 
L 407.26462 499.114081 
L 407.484252 528.528357 
L 407.703884 475.02171 
L 407.923517 258.636897 
L 408.143149 438.488906 
L 408.362781 400.433713 
L 408.582413 447.898733 
L 408.802046 353.269975 
L 409.021678 322.744581 
L 409.24131 421.40224 
L 409.460943 315.582316 
L 409.680575 453.685593 
L 409.900207 390.617242 
L 410.119839 465.993212 
L 410.339472 415.535649 
L 410.559104 403.421546 
L 410.778736 366.83528 
L 410.998368 410.071925 
L 411.218001 562.888646 
L 411.437633 533.119189 
L 411.657265 438.552349 
L 411.876898 423.908964 
L 412.09653 447.50735 
L 412.316162 511.460716 
L 412.755427 404.931432 
L 412.975059 482.028128 
L 413.194691 472.146913 
L 413.414324 371.781458 
L 413.633956 442.096357 
L 413.853588 401.201174 
L 414.07322 465.704913 
L 414.292853 452.30256 
L 414.512485 474.82235 
L 414.732117 571.805102 
L 414.95175 391.664409 
L 415.171382 510.798426 
L 415.391014 514.100561 
L 415.610646 492.710803 
L 415.830279 410.158743 
L 416.049911 384.242293 
L 416.269543 382.397009 
L 416.489176 451.210769 
L 416.708808 430.311851 
L 416.92844 398.812078 
L 417.367705 523.312931 
L 417.587337 503.625151 
L 417.806969 320.795802 
L 418.026602 491.911297 
L 418.246234 394.687027 
L 418.905131 513.515103 
L 419.124763 526.791414 
L 419.344395 502.891557 
L 419.564028 436.426057 
L 419.78366 500.813922 
L 420.222924 403.32886 
L 420.442557 560.761755 
L 420.662189 456.42246 
L 420.881821 467.24655 
L 421.101454 349.570491 
L 421.321086 318.956067 
L 421.540718 472.788187 
L 421.76035 399.838173 
L 421.979983 456.694277 
L 422.419247 368.781792 
L 422.63888 487.799834 
L 423.078144 357.269929 
L 423.737041 501.313082 
L 423.956673 434.642815 
L 424.176306 493.173639 
L 424.395938 341.298231 
L 424.61557 475.139929 
L 424.835202 377.810913 
L 425.054835 467.867043 
L 425.274467 343.465178 
L 425.494099 506.745445 
L 425.713731 396.213238 
L 425.933364 346.76361 
L 426.152996 324.308883 
L 426.372628 463.725688 
L 426.592261 297.108992 
L 426.811893 505.100091 
L 427.031525 465.518516 
L 427.251157 554.769811 
L 427.47079 394.162943 
L 427.690422 415.55693 
L 427.910054 372.060104 
L 428.129687 370.020841 
L 428.349319 381.849642 
L 428.568951 501.03725 
L 428.788583 427.705389 
L 429.008216 263.834956 
L 429.227848 520.809941 
L 429.44748 391.930671 
L 429.667113 478.751482 
L 429.886745 387.908987 
L 430.106377 425.52135 
L 430.326009 405.888019 
L 430.545642 409.043978 
L 430.765274 467.715329 
L 430.984906 427.883676 
L 431.204539 467.09845 
L 431.424171 293.547209 
L 431.643803 285.984665 
L 431.863435 535.950938 
L 432.083068 424.605609 
L 432.3027 507.544024 
L 432.522332 441.694312 
L 432.741965 418.940492 
L 432.961597 444.689571 
L 433.181229 412.843449 
L 433.620494 528.475023 
L 433.840126 458.147327 
L 434.059758 460.014398 
L 434.279391 482.029443 
L 434.499023 286.086465 
L 434.718655 407.27998 
L 434.938287 339.97805 
L 435.15792 403.313186 
L 435.377552 386.279307 
L 435.597184 468.091835 
L 436.036449 429.400936 
L 436.256081 472.326122 
L 436.475713 338.271091 
L 436.695346 445.511795 
L 436.914978 413.373442 
L 437.13461 463.794075 
L 437.354243 404.434695 
L 437.573875 476.780685 
L 437.793507 467.455017 
L 438.013139 426.004638 
L 438.232772 279.124947 
L 438.452404 432.172944 
L 438.672036 461.086342 
L 438.891669 427.423672 
L 439.111301 458.306098 
L 439.550565 333.561762 
L 439.770198 373.960809 
L 439.98983 441.914304 
L 440.209462 409.329654 
L 440.429094 339.622678 
L 440.648727 477.724783 
L 440.868359 474.848094 
L 441.087991 450.9821 
L 441.307624 456.923088 
L 441.527256 510.855748 
L 441.96652 453.351025 
L 442.186153 472.352136 
L 442.405785 394.801168 
L 442.625417 415.81963 
L 442.84505 422.563028 
L 443.064682 510.296897 
L 443.284314 533.27542 
L 443.723579 379.15579 
L 444.162843 516.004975 
L 444.382476 469.99464 
L 444.602108 465.105954 
L 444.82174 525.638924 
L 445.041372 517.757125 
L 445.261005 520.516535 
L 445.700269 403.268359 
L 445.919902 494.961508 
L 446.139534 405.72224 
L 446.578798 517.008782 
L 446.798431 421.644438 
L 447.018063 531.258748 
L 447.457328 418.682865 
L 447.67696 520.035762 
L 447.896592 440.517454 
L 448.116224 416.566586 
L 448.335857 452.306384 
L 448.555489 443.302224 
L 448.775121 451.366251 
L 448.994754 567.757241 
L 449.214386 499.292922 
L 449.434018 370.058998 
L 449.65365 367.200055 
L 449.873283 467.736488 
L 450.092915 402.142426 
L 450.312547 477.734643 
L 450.53218 422.916393 
L 450.751812 265.832789 
L 450.971444 282.039256 
L 451.191076 447.221553 
L 451.410709 341.448872 
L 451.630341 521.327758 
L 451.849973 429.789629 
L 452.069606 405.068913 
L 452.50887 489.365805 
L 452.728502 463.725737 
L 452.948135 490.324742 
L 453.167767 479.579826 
L 453.387399 447.043217 
L 453.607032 328.16769 
L 454.046296 444.042835 
L 454.265928 441.121658 
L 454.485561 465.752892 
L 454.705193 334.780577 
L 454.924825 488.155979 
L 455.144458 463.876282 
L 455.36409 458.871817 
L 455.583722 474.220892 
L 455.803354 514.799526 
L 456.022987 580.503039 
L 456.242619 239.442176 
L 456.462251 427.964969 
L 456.681883 338.763501 
L 456.901516 429.109413 
L 457.121148 442.14827 
L 457.34078 435.199921 
L 457.560413 404.013352 
L 457.780045 467.185723 
L 457.999677 427.43931 
L 458.219309 353.219163 
L 458.438942 404.837147 
L 458.658574 424.965 
L 458.878206 368.227015 
L 459.097839 491.925669 
L 459.317471 410.835302 
L 459.537103 447.786525 
L 459.756735 427.916248 
L 459.976368 349.897325 
L 460.196 419.801866 
L 460.415632 412.747899 
L 460.635265 385.112946 
L 460.854897 509.078459 
L 461.074529 371.177844 
L 461.294161 431.443849 
L 461.513794 361.899099 
L 461.733426 467.122663 
L 461.953058 453.692019 
L 462.172691 457.497021 
L 462.392323 210.391198 
L 462.611955 412.46977 
L 462.831587 501.849213 
L 463.05122 413.153588 
L 463.270852 416.752342 
L 463.490484 507.755436 
L 463.710117 422.715583 
L 463.929749 418.339504 
L 464.149381 495.365096 
L 464.369013 497.161354 
L 464.588646 354.913441 
L 464.808278 526.128636 
L 465.02791 329.418383 
L 465.247543 437.198522 
L 465.467175 408.541001 
L 465.686807 354.805364 
L 465.906439 520.516007 
L 466.126072 414.019963 
L 466.565336 465.507165 
L 466.784969 335.999258 
L 467.004601 422.398092 
L 467.224233 321.941708 
L 467.443865 351.369996 
L 467.663498 425.967895 
L 467.88313 280.987441 
L 468.102762 463.767152 
L 468.322395 442.559201 
L 468.542027 373.120154 
L 468.761659 442.474189 
L 468.981291 427.918887 
L 469.200924 447.839325 
L 469.420556 409.056242 
L 469.859821 509.988013 
L 470.299085 333.968479 
L 470.518717 420.78572 
L 470.73835 366.1667 
L 470.957982 450.39213 
L 471.177614 383.477121 
L 471.397246 439.459955 
L 471.616879 394.787972 
L 471.836511 230.147688 
L 472.056143 420.048596 
L 472.275776 414.416366 
L 472.495408 416.060459 
L 472.71504 266.130206 
L 472.934672 234.141868 
L 473.154305 461.500676 
L 473.373937 496.268739 
L 473.593569 466.331334 
L 473.813202 464.33003 
L 474.032834 343.093889 
L 474.252466 533.278544 
L 474.472098 401.875946 
L 474.691731 478.713888 
L 474.911363 389.814042 
L 475.130995 445.608098 
L 475.350628 383.95661 
L 475.57026 469.420413 
L 475.789892 348.103078 
L 476.009524 476.385342 
L 476.229157 412.024902 
L 476.448789 466.380517 
L 476.668421 421.993255 
L 476.888054 498.890939 
L 477.327318 445.311032 
L 477.54695 510.967804 
L 477.766583 436.574208 
L 477.986215 410.091242 
L 478.42548 547.657721 
L 478.645112 320.068305 
L 478.864744 416.555549 
L 479.084376 369.434385 
L 479.304009 420.771783 
L 479.523641 438.000855 
L 479.743273 417.03743 
L 479.962906 469.16207 
L 480.182538 450.862473 
L 480.40217 290.135074 
L 480.621802 395.815981 
L 480.841435 436.706382 
L 481.061067 424.280371 
L 481.280699 429.07335 
L 481.500332 411.173047 
L 481.719964 426.188561 
L 481.939596 504.918293 
L 482.159228 385.56097 
L 482.378861 457.123142 
L 482.598493 401.412381 
L 482.818125 459.462279 
L 483.037758 351.498432 
L 483.477022 434.916268 
L 483.696654 520.53055 
L 483.916287 461.737896 
L 484.135919 321.824046 
L 484.355551 445.734991 
L 484.575184 452.980699 
L 484.794816 355.730925 
L 485.014448 553.160877 
L 485.23408 372.583642 
L 485.453713 453.736952 
L 485.673345 428.000969 
L 485.892977 494.040904 
L 486.11261 464.791142 
L 486.332242 344.083134 
L 486.551874 406.79545 
L 486.771506 347.648485 
L 486.991139 488.961192 
L 487.210771 421.374715 
L 487.430403 536.080529 
L 487.650035 330.614215 
L 488.0893 521.15946 
L 488.308932 477.603419 
L 488.528565 457.925243 
L 488.748197 408.328774 
L 488.967829 280.366802 
L 489.187461 333.639922 
L 489.407094 429.969262 
L 489.626726 349.914298 
L 489.846358 484.888443 
L 490.285623 342.761411 
L 490.505255 457.016914 
L 490.724887 426.618497 
L 491.164152 525.81468 
L 491.383784 363.411182 
L 491.603417 351.39709 
L 491.823049 396.8327 
L 492.042681 520.161846 
L 492.262313 424.563946 
L 492.481946 479.737149 
L 492.701578 381.44793 
L 492.92121 420.149994 
L 493.140843 561.296903 
L 493.360475 262.561189 
L 493.580107 441.867968 
L 493.799739 389.187629 
L 494.239004 473.208921 
L 494.458636 380.52572 
L 494.678269 392.201209 
L 494.897901 520.257597 
L 495.117533 486.943927 
L 495.337165 258.597673 
L 495.556798 533.278396 
L 495.77643 522.80491 
L 495.996062 361.027902 
L 496.435327 540.260786 
L 496.874591 440.484981 
L 497.094224 440.376113 
L 497.313856 356.046624 
L 497.533488 410.198125 
L 497.753121 407.559162 
L 497.972753 377.642501 
L 498.192385 431.618497 
L 498.412017 518.652617 
L 498.63165 514.127032 
L 498.851282 377.465315 
L 499.070914 530.918316 
L 499.290547 477.860902 
L 499.510179 466.285973 
L 499.729811 322.836191 
L 499.949443 519.604889 
L 500.169076 171.77555 
L 500.388708 381.599768 
L 500.60834 467.589558 
L 500.827973 380.980223 
L 501.047605 419.257052 
L 501.267237 389.041797 
L 501.486869 379.929932 
L 501.706502 478.9922 
L 501.926134 474.80578 
L 502.145766 495.751183 
L 502.365398 460.198196 
L 502.585031 229.314858 
L 503.024295 491.90996 
L 503.46356 359.850683 
L 503.683192 405.408466 
L 503.902824 490.737495 
L 504.122457 482.234977 
L 504.342089 435.848622 
L 504.561721 491.775448 
L 504.781354 392.642408 
L 505.000986 476.310831 
L 505.220618 496.674112 
L 505.44025 346.27274 
L 505.659883 363.922375 
L 505.879515 363.089257 
L 506.099147 496.929841 
L 506.31878 486.919504 
L 506.538412 426.65355 
L 506.758044 440.885816 
L 506.977676 355.509538 
L 507.197309 393.978768 
L 507.416941 472.441305 
L 507.636573 381.580406 
L 507.856206 385.625498 
L 508.075838 507.819309 
L 508.29547 530.566881 
L 508.515102 390.81398 
L 508.734735 489.222689 
L 508.954367 499.390374 
L 509.393632 184.699669 
L 509.613264 474.622235 
L 510.052528 537.024811 
L 510.272161 407.681982 
L 510.491793 424.003455 
L 510.711425 406.279422 
L 510.931058 429.65856 
L 511.15069 477.731744 
L 511.370322 349.098805 
L 511.589954 338.353616 
L 511.809587 447.919462 
L 512.248851 481.146091 
L 512.688116 298.508803 
L 512.907748 453.195551 
L 513.12738 377.751983 
L 513.347013 401.977641 
L 513.566645 375.804193 
L 513.786277 322.047628 
L 514.00591 466.115197 
L 514.225542 361.70191 
L 514.445174 499.421052 
L 514.664806 407.769082 
L 514.884439 444.97599 
L 515.104071 388.333321 
L 515.543336 476.69448 
L 515.762968 484.871654 
L 515.9826 487.013646 
L 516.202232 448.411438 
L 516.421865 300.544589 
L 516.641497 317.983274 
L 516.861129 469.373661 
L 517.080762 466.322416 
L 517.300394 489.438091 
L 517.520026 497.070181 
L 517.739658 390.870191 
L 518.178923 287.41069 
L 518.398555 555.909624 
L 518.618187 304.373439 
L 518.83782 400.094399 
L 519.057452 357.799535 
L 519.277084 398.254724 
L 519.496717 471.14851 
L 519.935981 461.669827 
L 520.155613 389.811664 
L 520.375246 466.456498 
L 520.594878 391.479255 
L 520.81451 424.430393 
L 521.034143 354.355856 
L 521.253775 384.365992 
L 521.473407 312.410632 
L 521.693039 511.268251 
L 521.912672 362.917833 
L 522.132304 293.997834 
L 522.571569 501.246687 
L 522.791201 339.912304 
L 523.010833 498.43511 
L 523.230465 428.294766 
L 523.450098 500.134077 
L 523.889362 448.689773 
L 524.108995 485.998454 
L 524.328627 496.837718 
L 524.548259 458.235968 
L 524.767891 440.724878 
L 525.207156 482.816318 
L 525.426788 359.270429 
L 525.646421 472.119657 
L 525.866053 437.258625 
L 526.085685 464.957431 
L 526.305317 412.006988 
L 526.744582 457.637662 
L 526.964214 261.006747 
L 527.403479 467.889947 
L 527.623111 468.983851 
L 527.842743 367.859399 
L 528.062376 358.744319 
L 528.282008 445.370765 
L 528.50164 422.662012 
L 528.721273 494.198956 
L 528.940905 439.356827 
L 529.380169 517.319541 
L 529.599802 479.828071 
L 529.819434 332.152336 
L 530.039066 429.411039 
L 530.258699 405.511469 
L 530.478331 505.567446 
L 530.697963 327.125663 
L 530.917595 398.985154 
L 531.137228 508.805869 
L 531.35686 542.958352 
L 531.576492 447.461816 
L 531.796125 477.680213 
L 532.015757 431.381549 
L 532.235389 322.940477 
L 532.455021 411.172018 
L 532.674654 379.216853 
L 532.894286 380.483488 
L 533.113918 306.640876 
L 533.33355 414.361642 
L 533.553183 415.7486 
L 533.772815 392.03071 
L 533.992447 482.855709 
L 534.21208 469.792666 
L 534.431712 397.595547 
L 534.651344 390.121384 
L 534.870976 359.244053 
L 535.090609 409.583168 
L 535.310241 333.960847 
L 535.529873 388.615346 
L 535.749506 490.939826 
L 535.969138 507.488525 
L 536.18877 436.849186 
L 536.408402 493.993241 
L 536.847667 435.884963 
L 537.286932 409.060613 
L 537.506564 477.294532 
L 537.726196 390.983396 
L 537.945828 408.076677 
L 538.165461 444.158187 
L 538.604725 459.68612 
L 538.824358 350.932465 
L 539.263622 425.066652 
L 539.483254 533.901097 
L 539.702887 485.865093 
L 539.922519 495.015746 
L 540.142151 524.863941 
L 540.361784 309.061546 
L 540.581416 477.827502 
L 541.02068 381.553811 
L 541.240313 379.979094 
L 541.459945 557.794534 
L 541.679577 287.233439 
L 541.89921 524.290371 
L 542.118842 499.022047 
L 542.338474 500.297015 
L 542.558106 421.452527 
L 542.777739 477.78032 
L 542.997371 483.155997 
L 543.436636 400.214037 
L 543.656268 411.772915 
L 543.8759 504.129561 
L 544.095532 490.370388 
L 544.315165 403.244163 
L 544.534797 410.438052 
L 544.754429 408.575896 
L 544.974062 506.742151 
L 545.193694 377.138042 
L 545.413326 506.907165 
L 545.632958 394.114556 
L 545.852591 364.73491 
L 546.072223 471.460014 
L 546.291855 442.767863 
L 546.511488 433.807714 
L 546.73112 436.499687 
L 546.950752 454.835083 
L 547.170384 374.737915 
L 547.390017 551.030598 
L 547.609649 272.662466 
L 547.829281 459.743081 
L 548.048913 440.102048 
L 548.268546 445.235436 
L 548.488178 461.916019 
L 548.70781 368.329187 
L 548.927443 483.801783 
L 549.147075 397.32336 
L 549.366707 412.544394 
L 549.586339 410.393313 
L 550.025604 484.14883 
L 550.245236 476.870605 
L 550.464869 485.337695 
L 550.684501 338.165629 
L 551.123765 428.346232 
L 551.343398 273.443719 
L 552.002295 501.083896 
L 552.441559 451.412717 
L 552.661191 441.599061 
L 552.880824 460.686981 
L 553.320088 354.957665 
L 553.539721 426.76995 
L 553.759353 306.281847 
L 553.978985 408.541613 
L 554.198617 352.97089 
L 554.41825 397.583123 
L 554.637882 483.686713 
L 554.857514 353.850342 
L 555.077147 449.366062 
L 555.296779 375.702227 
L 555.516411 355.300394 
L 555.736043 446.965021 
L 555.955676 368.174463 
L 556.39494 440.376832 
L 556.614573 429.143898 
L 557.053837 338.331106 
L 557.273469 500.387003 
L 557.493102 406.361968 
L 557.712734 380.728369 
L 557.932366 448.028537 
L 558.151999 415.18709 
L 558.371631 463.792027 
L 558.591263 469.095969 
L 558.810895 491.721556 
L 559.030528 400.549766 
L 559.25016 501.814274 
L 559.469792 376.57466 
L 559.689425 471.487057 
L 559.909057 443.367861 
L 559.909057 443.367861 
" style="fill:none;stroke:#96c69a;stroke-linecap:round;stroke-width:3;"/>
   </g>
   <g id="line2d_2"/>
   <g id="patch_3">
    <path d="M 98.911875 602.94 
L 98.911875 109.326857 
" style="fill:none;stroke:#262626;stroke-linecap:square;stroke-linejoin:miter;stroke-width:2.5;"/>
   </g>
   <g id="patch_4">
    <path d="M 98.911875 602.94 
L 581.861304 602.94 
" style="fill:none;stroke:#262626;stroke-linecap:square;stroke-linejoin:miter;stroke-width:2.5;"/>
   </g>
   <g id="legend_1">
    <g id="patch_5">
     <path d="M 528.945679 597.94 
L 574.861304 597.94 
Q 576.861304 597.94 576.861304 595.94 
L 576.861304 554.034375 
Q 576.861304 552.034375 574.861304 552.034375 
L 528.945679 552.034375 
Q 526.945679 552.034375 526.945679 554.034375 
L 526.945679 595.94 
Q 526.945679 597.94 528.945679 597.94 
z
" style="fill:#ffffff;opacity:0.8;stroke:#cccccc;stroke-linejoin:miter;stroke-width:2;"/>
    </g>
    <g id="text_17">
     <!-- $n_\tau$ -->
     <g style="fill:#262626;" transform="translate(538.823491 574.270625)scale(0.24 -0.24)">
      <defs>
       <path d="M 3566 2113 
L 3156 0 
L 2578 0 
L 2988 2091 
Q 3016 2238 3031 2350 
Q 3047 2463 3047 2528 
Q 3047 2791 2881 2937 
Q 2716 3084 2419 3084 
Q 1956 3084 1622 2776 
Q 1288 2469 1184 1941 
L 800 0 
L 225 0 
L 903 3500 
L 1478 3500 
L 1363 2950 
Q 1603 3253 1940 3418 
Q 2278 3584 2650 3584 
Q 3113 3584 3367 3334 
Q 3622 3084 3622 2631 
Q 3622 2519 3608 2391 
Q 3594 2263 3566 2113 
z
" id="DejaVuSans-Oblique-6e" transform="scale(0.015625)"/>
       <path d="M 2103 638 
Q 2188 488 2525 488 
L 2800 488 
L 2706 0 
L 2363 0 
Q 1800 0 1600 300 
Q 1403 606 1534 1269 
L 1856 2925 
L 541 2925 
L 653 3500 
L 3881 3500 
L 3769 2925 
L 2444 2925 
L 2113 1234 
Q 2025 781 2103 638 
z
" id="DejaVuSans-Oblique-3c4" transform="scale(0.015625)"/>
      </defs>
      <use xlink:href="#DejaVuSans-Oblique-6e"/>
      <use transform="translate(63.378906 -16.40625)scale(0.7)" xlink:href="#DejaVuSans-Oblique-3c4"/>
     </g>
    </g>
    <g id="line2d_3">
     <path d="M 530.945679 588.360312 
L 550.945679 588.360312 
" style="fill:none;stroke:#96c69a;stroke-linecap:round;stroke-width:3;"/>
    </g>
    <g id="line2d_4"/>
    <g id="text_18">
     <!-- 80 -->
     <g style="fill:#262626;" transform="translate(558.945679 591.860312)scale(0.1 -0.1)">
      <defs>
       <path d="M 2228 2088 
Q 1891 2088 1709 1903 
Q 1528 1719 1528 1375 
Q 1528 1031 1709 848 
Q 1891 666 2228 666 
Q 2563 666 2741 848 
Q 2919 1031 2919 1375 
Q 2919 1722 2741 1905 
Q 2563 2088 2228 2088 
z
M 1350 2484 
Q 925 2613 709 2878 
Q 494 3144 494 3541 
Q 494 4131 934 4440 
Q 1375 4750 2228 4750 
Q 3075 4750 3515 4442 
Q 3956 4134 3956 3541 
Q 3956 3144 3739 2878 
Q 3522 2613 3097 2484 
Q 3572 2353 3814 2058 
Q 4056 1763 4056 1313 
Q 4056 619 3595 264 
Q 3134 -91 2228 -91 
Q 1319 -91 855 264 
Q 391 619 391 1313 
Q 391 1763 633 2058 
Q 875 2353 1350 2484 
z
M 1631 3419 
Q 1631 3141 1786 2991 
Q 1941 2841 2228 2841 
Q 2509 2841 2662 2991 
Q 2816 3141 2816 3419 
Q 2816 3697 2662 3845 
Q 2509 3994 2228 3994 
Q 1941 3994 1786 3844 
Q 1631 3694 1631 3419 
z
" id="DejaVuSans-Bold-38" transform="scale(0.015625)"/>
       <path d="M 2944 2338 
Q 2944 3213 2780 3570 
Q 2616 3928 2228 3928 
Q 1841 3928 1675 3570 
Q 1509 3213 1509 2338 
Q 1509 1453 1675 1090 
Q 1841 728 2228 728 
Q 2613 728 2778 1090 
Q 2944 1453 2944 2338 
z
M 4147 2328 
Q 4147 1169 3647 539 
Q 3147 -91 2228 -91 
Q 1306 -91 806 539 
Q 306 1169 306 2328 
Q 306 3491 806 4120 
Q 1306 4750 2228 4750 
Q 3147 4750 3647 4120 
Q 4147 3491 4147 2328 
z
" id="DejaVuSans-Bold-30" transform="scale(0.015625)"/>
      </defs>
      <use xlink:href="#DejaVuSans-Bold-38"/>
      <use x="69.580078" xlink:href="#DejaVuSans-Bold-30"/>
     </g>
    </g>
   </g>
  </g>
  <g id="axes_2">
   <g id="patch_6">
    <path d="M 98.911875 92.305714 
L 581.861304 92.305714 
L 581.861304 7.2 
L 98.911875 7.2 
z
" style="fill:none;"/>
   </g>
   <g id="matplotlib.axis_3">
    <g id="xtick_7"/>
    <g id="xtick_8"/>
    <g id="xtick_9"/>
    <g id="xtick_10"/>
    <g id="xtick_11"/>
    <g id="xtick_12"/>
   </g>
   <g id="matplotlib.axis_4">
    <g id="ytick_9">
     <g id="text_19">
      <!-- 0 -->
      <g style="fill:#262626;" transform="translate(69.414375 100.663996)scale(0.22 -0.22)">
       <use xlink:href="#DejaVuSans-30"/>
      </g>
     </g>
    </g>
    <g id="ytick_10">
     <g id="text_20">
      <!-- 100 -->
      <g style="fill:#262626;" transform="translate(41.419375 48.032138)scale(0.22 -0.22)">
       <use xlink:href="#DejaVuSans-31"/>
       <use x="63.623047" xlink:href="#DejaVuSans-30"/>
       <use x="127.246094" xlink:href="#DejaVuSans-30"/>
      </g>
     </g>
    </g>
   </g>
   <g id="patch_7">
    <path clip-path="url(#p9249819c17)" d="M 120.864122 92.305714 
L 154.636809 92.305714 
L 154.636809 11.252653 
L 120.864122 11.252653 
z
" style="fill:#96c69a;fill-opacity:0.5;stroke:#ffffff;stroke-linejoin:miter;stroke-width:2;"/>
   </g>
   <g id="patch_8">
    <path clip-path="url(#p9249819c17)" d="M 154.636809 92.305714 
L 188.409496 92.305714 
L 188.409496 11.252653 
L 154.636809 11.252653 
z
" style="fill:#96c69a;fill-opacity:0.5;stroke:#ffffff;stroke-linejoin:miter;stroke-width:2;"/>
   </g>
   <g id="patch_9">
    <path clip-path="url(#p9249819c17)" d="M 188.409496 92.305714 
L 222.182184 92.305714 
L 222.182184 11.252653 
L 188.409496 11.252653 
z
" style="fill:#96c69a;fill-opacity:0.5;stroke:#ffffff;stroke-linejoin:miter;stroke-width:2;"/>
   </g>
   <g id="patch_10">
    <path clip-path="url(#p9249819c17)" d="M 222.182184 92.305714 
L 255.954871 92.305714 
L 255.954871 11.252653 
L 222.182184 11.252653 
z
" style="fill:#96c69a;fill-opacity:0.5;stroke:#ffffff;stroke-linejoin:miter;stroke-width:2;"/>
   </g>
   <g id="patch_11">
    <path clip-path="url(#p9249819c17)" d="M 255.954871 92.305714 
L 289.727558 92.305714 
L 289.727558 11.778972 
L 255.954871 11.778972 
z
" style="fill:#96c69a;fill-opacity:0.5;stroke:#ffffff;stroke-linejoin:miter;stroke-width:2;"/>
   </g>
   <g id="patch_12">
    <path clip-path="url(#p9249819c17)" d="M 289.727558 92.305714 
L 323.500246 92.305714 
L 323.500246 11.252653 
L 289.727558 11.252653 
z
" style="fill:#96c69a;fill-opacity:0.5;stroke:#ffffff;stroke-linejoin:miter;stroke-width:2;"/>
   </g>
   <g id="patch_13">
    <path clip-path="url(#p9249819c17)" d="M 323.500246 92.305714 
L 357.272933 92.305714 
L 357.272933 11.252653 
L 323.500246 11.252653 
z
" style="fill:#96c69a;fill-opacity:0.5;stroke:#ffffff;stroke-linejoin:miter;stroke-width:2;"/>
   </g>
   <g id="patch_14">
    <path clip-path="url(#p9249819c17)" d="M 357.272933 92.305714 
L 391.04562 92.305714 
L 391.04562 11.252653 
L 357.272933 11.252653 
z
" style="fill:#96c69a;fill-opacity:0.5;stroke:#ffffff;stroke-linejoin:miter;stroke-width:2;"/>
   </g>
   <g id="patch_15">
    <path clip-path="url(#p9249819c17)" d="M 391.04562 92.305714 
L 424.818308 92.305714 
L 424.818308 11.778972 
L 391.04562 11.778972 
z
" style="fill:#96c69a;fill-opacity:0.5;stroke:#ffffff;stroke-linejoin:miter;stroke-width:2;"/>
   </g>
   <g id="patch_16">
    <path clip-path="url(#p9249819c17)" d="M 424.818308 92.305714 
L 458.590995 92.305714 
L 458.590995 11.252653 
L 424.818308 11.252653 
z
" style="fill:#96c69a;fill-opacity:0.5;stroke:#ffffff;stroke-linejoin:miter;stroke-width:2;"/>
   </g>
   <g id="patch_17">
    <path clip-path="url(#p9249819c17)" d="M 458.590995 92.305714 
L 492.363682 92.305714 
L 492.363682 11.252653 
L 458.590995 11.252653 
z
" style="fill:#96c69a;fill-opacity:0.5;stroke:#ffffff;stroke-linejoin:miter;stroke-width:2;"/>
   </g>
   <g id="patch_18">
    <path clip-path="url(#p9249819c17)" d="M 492.363682 92.305714 
L 526.13637 92.305714 
L 526.13637 11.252653 
L 492.363682 11.252653 
z
" style="fill:#96c69a;fill-opacity:0.5;stroke:#ffffff;stroke-linejoin:miter;stroke-width:2;"/>
   </g>
   <g id="patch_19">
    <path clip-path="url(#p9249819c17)" d="M 526.13637 92.305714 
L 559.909057 92.305714 
L 559.909057 11.252653 
L 526.13637 11.252653 
z
" style="fill:#96c69a;fill-opacity:0.5;stroke:#ffffff;stroke-linejoin:miter;stroke-width:2;"/>
   </g>
   <g id="patch_20">
    <path d="M 98.911875 92.305714 
L 98.911875 7.2 
" style="fill:none;stroke:#262626;stroke-linecap:square;stroke-linejoin:miter;stroke-width:2.5;"/>
   </g>
   <g id="patch_21">
    <path d="M 98.911875 92.305714 
L 581.861304 92.305714 
" style="fill:none;stroke:#262626;stroke-linecap:square;stroke-linejoin:miter;stroke-width:2.5;"/>
   </g>
  </g>
  <g id="axes_3">
   <g id="patch_22">
    <path d="M 598.514732 602.94 
L 681.781875 602.94 
L 681.781875 109.326857 
L 598.514732 109.326857 
z
" style="fill:none;"/>
   </g>
   <g id="matplotlib.axis_5">
    <g id="xtick_13">
     <g id="text_21">
      <!-- 0 -->
      <g style="fill:#262626;" transform="translate(591.515982 635.156562)scale(0.22 -0.22)">
       <use xlink:href="#DejaVuSans-30"/>
      </g>
     </g>
    </g>
    <g id="xtick_14">
     <g id="text_22">
      <!-- 100 -->
      <g style="fill:#262626;" transform="translate(620.38445 635.156562)scale(0.22 -0.22)">
       <use xlink:href="#DejaVuSans-31"/>
       <use x="63.623047" xlink:href="#DejaVuSans-30"/>
       <use x="127.246094" xlink:href="#DejaVuSans-30"/>
      </g>
     </g>
    </g>
   </g>
   <g id="matplotlib.axis_6">
    <g id="ytick_11"/>
    <g id="ytick_12"/>
    <g id="ytick_13"/>
    <g id="ytick_14"/>
    <g id="ytick_15"/>
    <g id="ytick_16"/>
    <g id="ytick_17"/>
    <g id="ytick_18"/>
   </g>
   <g id="patch_23">
    <path clip-path="url(#p41e5b13cee)" d="M 598.514732 580.503039 
L 600.658031 580.503039 
L 600.658031 567.304827 
L 598.514732 567.304827 
z
" style="fill:#96c69a;fill-opacity:0.5;stroke:#ffffff;stroke-linejoin:miter;stroke-width:1.319821;"/>
   </g>
   <g id="patch_24">
    <path clip-path="url(#p41e5b13cee)" d="M 598.514732 567.304827 
L 601.94401 567.304827 
L 601.94401 554.106614 
L 598.514732 554.106614 
z
" style="fill:#96c69a;fill-opacity:0.5;stroke:#ffffff;stroke-linejoin:miter;stroke-width:1.319821;"/>
   </g>
   <g id="patch_25">
    <path clip-path="url(#p41e5b13cee)" d="M 598.514732 554.106614 
L 607.087926 554.106614 
L 607.087926 540.908402 
L 598.514732 540.908402 
z
" style="fill:#96c69a;fill-opacity:0.5;stroke:#ffffff;stroke-linejoin:miter;stroke-width:1.319821;"/>
   </g>
   <g id="patch_26">
    <path clip-path="url(#p41e5b13cee)" d="M 598.514732 540.908402 
L 612.660502 540.908402 
L 612.660502 527.710189 
L 598.514732 527.710189 
z
" style="fill:#96c69a;fill-opacity:0.5;stroke:#ffffff;stroke-linejoin:miter;stroke-width:1.319821;"/>
   </g>
   <g id="patch_27">
    <path clip-path="url(#p41e5b13cee)" d="M 598.514732 527.710189 
L 628.52091 527.710189 
L 628.52091 514.511977 
L 598.514732 514.511977 
z
" style="fill:#96c69a;fill-opacity:0.5;stroke:#ffffff;stroke-linejoin:miter;stroke-width:1.319821;"/>
   </g>
   <g id="patch_28">
    <path clip-path="url(#p41e5b13cee)" d="M 598.514732 514.511977 
L 634.522145 514.511977 
L 634.522145 501.313765 
L 598.514732 501.313765 
z
" style="fill:#96c69a;fill-opacity:0.5;stroke:#ffffff;stroke-linejoin:miter;stroke-width:1.319821;"/>
   </g>
   <g id="patch_29">
    <path clip-path="url(#p41e5b13cee)" d="M 598.514732 501.313765 
L 647.810595 501.313765 
L 647.810595 488.115552 
L 598.514732 488.115552 
z
" style="fill:#96c69a;fill-opacity:0.5;stroke:#ffffff;stroke-linejoin:miter;stroke-width:1.319821;"/>
   </g>
   <g id="patch_30">
    <path clip-path="url(#p41e5b13cee)" d="M 598.514732 488.115552 
L 655.52647 488.115552 
L 655.52647 474.91734 
L 598.514732 474.91734 
z
" style="fill:#96c69a;fill-opacity:0.5;stroke:#ffffff;stroke-linejoin:miter;stroke-width:1.319821;"/>
   </g>
   <g id="patch_31">
    <path clip-path="url(#p41e5b13cee)" d="M 598.514732 474.91734 
L 677.816773 474.91734 
L 677.816773 461.719128 
L 598.514732 461.719128 
z
" style="fill:#96c69a;fill-opacity:0.5;stroke:#ffffff;stroke-linejoin:miter;stroke-width:1.319821;"/>
   </g>
   <g id="patch_32">
    <path clip-path="url(#p41e5b13cee)" d="M 598.514732 461.719128 
L 667.100281 461.719128 
L 667.100281 448.520915 
L 598.514732 448.520915 
z
" style="fill:#96c69a;fill-opacity:0.5;stroke:#ffffff;stroke-linejoin:miter;stroke-width:1.319821;"/>
   </g>
   <g id="patch_33">
    <path clip-path="url(#p41e5b13cee)" d="M 598.514732 448.520915 
L 671.815537 448.520915 
L 671.815537 435.322703 
L 598.514732 435.322703 
z
" style="fill:#96c69a;fill-opacity:0.5;stroke:#ffffff;stroke-linejoin:miter;stroke-width:1.319821;"/>
   </g>
   <g id="patch_34">
    <path clip-path="url(#p41e5b13cee)" d="M 598.514732 435.322703 
L 668.81492 435.322703 
L 668.81492 422.12449 
L 598.514732 422.12449 
z
" style="fill:#96c69a;fill-opacity:0.5;stroke:#ffffff;stroke-linejoin:miter;stroke-width:1.319821;"/>
   </g>
   <g id="patch_35">
    <path clip-path="url(#p41e5b13cee)" d="M 598.514732 422.12449 
L 663.242344 422.12449 
L 663.242344 408.926278 
L 598.514732 408.926278 
z
" style="fill:#96c69a;fill-opacity:0.5;stroke:#ffffff;stroke-linejoin:miter;stroke-width:1.319821;"/>
   </g>
   <g id="patch_36">
    <path clip-path="url(#p41e5b13cee)" d="M 598.514732 408.926278 
L 655.09781 408.926278 
L 655.09781 395.728066 
L 598.514732 395.728066 
z
" style="fill:#96c69a;fill-opacity:0.5;stroke:#ffffff;stroke-linejoin:miter;stroke-width:1.319821;"/>
   </g>
   <g id="patch_37">
    <path clip-path="url(#p41e5b13cee)" d="M 598.514732 395.728066 
L 646.095957 395.728066 
L 646.095957 382.529853 
L 598.514732 382.529853 
z
" style="fill:#96c69a;fill-opacity:0.5;stroke:#ffffff;stroke-linejoin:miter;stroke-width:1.319821;"/>
   </g>
   <g id="patch_38">
    <path clip-path="url(#p41e5b13cee)" d="M 598.514732 382.529853 
L 635.808124 382.529853 
L 635.808124 369.331641 
L 598.514732 369.331641 
z
" style="fill:#96c69a;fill-opacity:0.5;stroke:#ffffff;stroke-linejoin:miter;stroke-width:1.319821;"/>
   </g>
   <g id="patch_39">
    <path clip-path="url(#p41e5b13cee)" d="M 598.514732 369.331641 
L 627.234931 369.331641 
L 627.234931 356.133429 
L 598.514732 356.133429 
z
" style="fill:#96c69a;fill-opacity:0.5;stroke:#ffffff;stroke-linejoin:miter;stroke-width:1.319821;"/>
   </g>
   <g id="patch_40">
    <path clip-path="url(#p41e5b13cee)" d="M 598.514732 356.133429 
L 631.950187 356.133429 
L 631.950187 342.935216 
L 598.514732 342.935216 
z
" style="fill:#96c69a;fill-opacity:0.5;stroke:#ffffff;stroke-linejoin:miter;stroke-width:1.319821;"/>
   </g>
   <g id="patch_41">
    <path clip-path="url(#p41e5b13cee)" d="M 598.514732 342.935216 
L 625.520292 342.935216 
L 625.520292 329.737004 
L 598.514732 329.737004 
z
" style="fill:#96c69a;fill-opacity:0.5;stroke:#ffffff;stroke-linejoin:miter;stroke-width:1.319821;"/>
   </g>
   <g id="patch_42">
    <path clip-path="url(#p41e5b13cee)" d="M 598.514732 329.737004 
L 616.089779 329.737004 
L 616.089779 316.538791 
L 598.514732 316.538791 
z
" style="fill:#96c69a;fill-opacity:0.5;stroke:#ffffff;stroke-linejoin:miter;stroke-width:1.319821;"/>
   </g>
   <g id="patch_43">
    <path clip-path="url(#p41e5b13cee)" d="M 598.514732 316.538791 
L 608.802564 316.538791 
L 608.802564 303.340579 
L 598.514732 303.340579 
z
" style="fill:#96c69a;fill-opacity:0.5;stroke:#ffffff;stroke-linejoin:miter;stroke-width:1.319821;"/>
   </g>
   <g id="patch_44">
    <path clip-path="url(#p41e5b13cee)" d="M 598.514732 303.340579 
L 607.516585 303.340579 
L 607.516585 290.142367 
L 598.514732 290.142367 
z
" style="fill:#96c69a;fill-opacity:0.5;stroke:#ffffff;stroke-linejoin:miter;stroke-width:1.319821;"/>
   </g>
   <g id="patch_45">
    <path clip-path="url(#p41e5b13cee)" d="M 598.514732 290.142367 
L 608.802564 290.142367 
L 608.802564 276.944154 
L 598.514732 276.944154 
z
" style="fill:#96c69a;fill-opacity:0.5;stroke:#ffffff;stroke-linejoin:miter;stroke-width:1.319821;"/>
   </g>
   <g id="patch_46">
    <path clip-path="url(#p41e5b13cee)" d="M 598.514732 276.944154 
L 605.801947 276.944154 
L 605.801947 263.745942 
L 598.514732 263.745942 
z
" style="fill:#96c69a;fill-opacity:0.5;stroke:#ffffff;stroke-linejoin:miter;stroke-width:1.319821;"/>
   </g>
   <g id="patch_47">
    <path clip-path="url(#p41e5b13cee)" d="M 598.514732 263.745942 
L 601.94401 263.745942 
L 601.94401 250.54773 
L 598.514732 250.54773 
z
" style="fill:#96c69a;fill-opacity:0.5;stroke:#ffffff;stroke-linejoin:miter;stroke-width:1.319821;"/>
   </g>
   <g id="patch_48">
    <path clip-path="url(#p41e5b13cee)" d="M 598.514732 250.54773 
L 601.51535 250.54773 
L 601.51535 237.349517 
L 598.514732 237.349517 
z
" style="fill:#96c69a;fill-opacity:0.5;stroke:#ffffff;stroke-linejoin:miter;stroke-width:1.319821;"/>
   </g>
   <g id="patch_49">
    <path clip-path="url(#p41e5b13cee)" d="M 598.514732 237.349517 
L 601.94401 237.349517 
L 601.94401 224.151305 
L 598.514732 224.151305 
z
" style="fill:#96c69a;fill-opacity:0.5;stroke:#ffffff;stroke-linejoin:miter;stroke-width:1.319821;"/>
   </g>
   <g id="patch_50">
    <path clip-path="url(#p41e5b13cee)" d="M 598.514732 224.151305 
L 599.372052 224.151305 
L 599.372052 210.953092 
L 598.514732 210.953092 
z
" style="fill:#96c69a;fill-opacity:0.5;stroke:#ffffff;stroke-linejoin:miter;stroke-width:1.319821;"/>
   </g>
   <g id="patch_51">
    <path clip-path="url(#p41e5b13cee)" d="M 598.514732 210.953092 
L 599.800711 210.953092 
L 599.800711 197.75488 
L 598.514732 197.75488 
z
" style="fill:#96c69a;fill-opacity:0.5;stroke:#ffffff;stroke-linejoin:miter;stroke-width:1.319821;"/>
   </g>
   <g id="patch_52">
    <path clip-path="url(#p41e5b13cee)" d="M 598.514732 197.75488 
L 598.943392 197.75488 
L 598.943392 184.556668 
L 598.514732 184.556668 
z
" style="fill:#96c69a;fill-opacity:0.5;stroke:#ffffff;stroke-linejoin:miter;stroke-width:1.319821;"/>
   </g>
   <g id="patch_53">
    <path clip-path="url(#p41e5b13cee)" d="M 598.514732 184.556668 
L 600.658031 184.556668 
L 600.658031 171.358455 
L 598.514732 171.358455 
z
" style="fill:#96c69a;fill-opacity:0.5;stroke:#ffffff;stroke-linejoin:miter;stroke-width:1.319821;"/>
   </g>
   <g id="patch_54">
    <path clip-path="url(#p41e5b13cee)" d="M 598.514732 171.358455 
L 598.514732 171.358455 
L 598.514732 158.160243 
L 598.514732 158.160243 
z
" style="fill:#96c69a;fill-opacity:0.5;stroke:#ffffff;stroke-linejoin:miter;stroke-width:1.319821;"/>
   </g>
   <g id="patch_55">
    <path clip-path="url(#p41e5b13cee)" d="M 598.514732 158.160243 
L 598.514732 158.160243 
L 598.514732 144.962031 
L 598.514732 144.962031 
z
" style="fill:#96c69a;fill-opacity:0.5;stroke:#ffffff;stroke-linejoin:miter;stroke-width:1.319821;"/>
   </g>
   <g id="patch_56">
    <path clip-path="url(#p41e5b13cee)" d="M 598.514732 144.962031 
L 599.372052 144.962031 
L 599.372052 131.763818 
L 598.514732 131.763818 
z
" style="fill:#96c69a;fill-opacity:0.5;stroke:#ffffff;stroke-linejoin:miter;stroke-width:1.319821;"/>
   </g>
   <g id="patch_57">
    <path d="M 598.514732 602.94 
L 598.514732 109.326857 
" style="fill:none;stroke:#262626;stroke-linecap:square;stroke-linejoin:miter;stroke-width:2.5;"/>
   </g>
   <g id="patch_58">
    <path d="M 598.514732 602.94 
L 681.781875 602.94 
" style="fill:none;stroke:#262626;stroke-linecap:square;stroke-linejoin:miter;stroke-width:2.5;"/>
   </g>
  </g>
 </g>
 <defs>
  <clipPath id="p4a8ad850d6">
   <rect height="493.613143" width="482.949429" x="98.911875" y="109.326857"/>
  </clipPath>
  <clipPath id="p9249819c17">
   <rect height="85.105714" width="482.949429" x="98.911875" y="7.2"/>
  </clipPath>
  <clipPath id="p41e5b13cee">
   <rect height="493.613143" width="83.267143" x="598.514732" y="109.326857"/>
  </clipPath>
 </defs>
</svg>
