<?xml version="1.0" encoding="utf-8" standalone="no"?>
<!DOCTYPE svg PUBLIC "-//W3C//DTD SVG 1.1//EN"
  "http://www.w3.org/Graphics/SVG/1.1/DTD/svg11.dtd">
<svg height="674.159375pt" version="1.1" viewBox="0 0 674.984375 674.159375" width="674.984375pt" xmlns="http://www.w3.org/2000/svg" xmlns:xlink="http://www.w3.org/1999/xlink">
 <metadata>
  <rdf:RDF xmlns:cc="http://creativecommons.org/ns#" xmlns:dc="http://purl.org/dc/elements/1.1/" xmlns:rdf="http://www.w3.org/1999/02/22-rdf-syntax-ns#">
   <cc:Work>
    <dc:type rdf:resource="http://purl.org/dc/dcmitype/StillImage"/>
    <dc:date>2021-07-24T14:51:04.457297</dc:date>
    <dc:format>image/svg+xml</dc:format>
    <dc:creator>
     <cc:Agent>
      <dc:title>Matplotlib v3.4.2, https://matplotlib.org/</dc:title>
     </cc:Agent>
    </dc:creator>
   </cc:Work>
  </rdf:RDF>
 </metadata>
 <defs>
  <style type="text/css">*{stroke-linecap:butt;stroke-linejoin:round;}</style>
 </defs>
 <g id="figure_1">
  <g id="patch_1">
   <path d="M 0 674.159375 
L 674.984375 674.159375 
L 674.984375 0 
L 0 0 
z
" style="fill:#ffffff;"/>
  </g>
  <g id="axes_1">
   <g id="patch_2">
    <path d="M 84.914375 602.94 
L 567.863804 602.94 
L 567.863804 109.326857 
L 84.914375 109.326857 
z
" style="fill:none;"/>
   </g>
   <g id="matplotlib.axis_1">
    <g id="xtick_1">
     <g id="text_1">
      <!-- 0 -->
      <g style="fill:#262626;" transform="translate(99.648239 635.156562)scale(0.22 -0.22)">
       <defs>
        <path d="M 2034 4250 
Q 1547 4250 1301 3770 
Q 1056 3291 1056 2328 
Q 1056 1369 1301 889 
Q 1547 409 2034 409 
Q 2525 409 2770 889 
Q 3016 1369 3016 2328 
Q 3016 3291 2770 3770 
Q 2525 4250 2034 4250 
z
M 2034 4750 
Q 2819 4750 3233 4129 
Q 3647 3509 3647 2328 
Q 3647 1150 3233 529 
Q 2819 -91 2034 -91 
Q 1250 -91 836 529 
Q 422 1150 422 2328 
Q 422 3509 836 4129 
Q 1250 4750 2034 4750 
z
" id="DejaVuSans-30" transform="scale(0.015625)"/>
       </defs>
       <use xlink:href="#DejaVuSans-30"/>
      </g>
     </g>
    </g>
    <g id="xtick_2">
     <g id="text_2">
      <!-- 20000 -->
      <g style="fill:#262626;" transform="translate(159.506153 635.156562)scale(0.22 -0.22)">
       <defs>
        <path d="M 1228 531 
L 3431 531 
L 3431 0 
L 469 0 
L 469 531 
Q 828 903 1448 1529 
Q 2069 2156 2228 2338 
Q 2531 2678 2651 2914 
Q 2772 3150 2772 3378 
Q 2772 3750 2511 3984 
Q 2250 4219 1831 4219 
Q 1534 4219 1204 4116 
Q 875 4013 500 3803 
L 500 4441 
Q 881 4594 1212 4672 
Q 1544 4750 1819 4750 
Q 2544 4750 2975 4387 
Q 3406 4025 3406 3419 
Q 3406 3131 3298 2873 
Q 3191 2616 2906 2266 
Q 2828 2175 2409 1742 
Q 1991 1309 1228 531 
z
" id="DejaVuSans-32" transform="scale(0.015625)"/>
       </defs>
       <use xlink:href="#DejaVuSans-32"/>
       <use x="63.623047" xlink:href="#DejaVuSans-30"/>
       <use x="127.246094" xlink:href="#DejaVuSans-30"/>
       <use x="190.869141" xlink:href="#DejaVuSans-30"/>
       <use x="254.492188" xlink:href="#DejaVuSans-30"/>
      </g>
     </g>
    </g>
    <g id="xtick_3">
     <g id="text_3">
      <!-- 40000 -->
      <g style="fill:#262626;" transform="translate(247.359066 635.156562)scale(0.22 -0.22)">
       <defs>
        <path d="M 2419 4116 
L 825 1625 
L 2419 1625 
L 2419 4116 
z
M 2253 4666 
L 3047 4666 
L 3047 1625 
L 3713 1625 
L 3713 1100 
L 3047 1100 
L 3047 0 
L 2419 0 
L 2419 1100 
L 313 1100 
L 313 1709 
L 2253 4666 
z
" id="DejaVuSans-34" transform="scale(0.015625)"/>
       </defs>
       <use xlink:href="#DejaVuSans-34"/>
       <use x="63.623047" xlink:href="#DejaVuSans-30"/>
       <use x="127.246094" xlink:href="#DejaVuSans-30"/>
       <use x="190.869141" xlink:href="#DejaVuSans-30"/>
       <use x="254.492188" xlink:href="#DejaVuSans-30"/>
      </g>
     </g>
    </g>
    <g id="xtick_4">
     <g id="text_4">
      <!-- 60000 -->
      <g style="fill:#262626;" transform="translate(335.21198 635.156562)scale(0.22 -0.22)">
       <defs>
        <path d="M 2113 2584 
Q 1688 2584 1439 2293 
Q 1191 2003 1191 1497 
Q 1191 994 1439 701 
Q 1688 409 2113 409 
Q 2538 409 2786 701 
Q 3034 994 3034 1497 
Q 3034 2003 2786 2293 
Q 2538 2584 2113 2584 
z
M 3366 4563 
L 3366 3988 
Q 3128 4100 2886 4159 
Q 2644 4219 2406 4219 
Q 1781 4219 1451 3797 
Q 1122 3375 1075 2522 
Q 1259 2794 1537 2939 
Q 1816 3084 2150 3084 
Q 2853 3084 3261 2657 
Q 3669 2231 3669 1497 
Q 3669 778 3244 343 
Q 2819 -91 2113 -91 
Q 1303 -91 875 529 
Q 447 1150 447 2328 
Q 447 3434 972 4092 
Q 1497 4750 2381 4750 
Q 2619 4750 2861 4703 
Q 3103 4656 3366 4563 
z
" id="DejaVuSans-36" transform="scale(0.015625)"/>
       </defs>
       <use xlink:href="#DejaVuSans-36"/>
       <use x="63.623047" xlink:href="#DejaVuSans-30"/>
       <use x="127.246094" xlink:href="#DejaVuSans-30"/>
       <use x="190.869141" xlink:href="#DejaVuSans-30"/>
       <use x="254.492188" xlink:href="#DejaVuSans-30"/>
      </g>
     </g>
    </g>
    <g id="xtick_5">
     <g id="text_5">
      <!-- 80000 -->
      <g style="fill:#262626;" transform="translate(423.064893 635.156562)scale(0.22 -0.22)">
       <defs>
        <path d="M 2034 2216 
Q 1584 2216 1326 1975 
Q 1069 1734 1069 1313 
Q 1069 891 1326 650 
Q 1584 409 2034 409 
Q 2484 409 2743 651 
Q 3003 894 3003 1313 
Q 3003 1734 2745 1975 
Q 2488 2216 2034 2216 
z
M 1403 2484 
Q 997 2584 770 2862 
Q 544 3141 544 3541 
Q 544 4100 942 4425 
Q 1341 4750 2034 4750 
Q 2731 4750 3128 4425 
Q 3525 4100 3525 3541 
Q 3525 3141 3298 2862 
Q 3072 2584 2669 2484 
Q 3125 2378 3379 2068 
Q 3634 1759 3634 1313 
Q 3634 634 3220 271 
Q 2806 -91 2034 -91 
Q 1263 -91 848 271 
Q 434 634 434 1313 
Q 434 1759 690 2068 
Q 947 2378 1403 2484 
z
M 1172 3481 
Q 1172 3119 1398 2916 
Q 1625 2713 2034 2713 
Q 2441 2713 2670 2916 
Q 2900 3119 2900 3481 
Q 2900 3844 2670 4047 
Q 2441 4250 2034 4250 
Q 1625 4250 1398 4047 
Q 1172 3844 1172 3481 
z
" id="DejaVuSans-38" transform="scale(0.015625)"/>
       </defs>
       <use xlink:href="#DejaVuSans-38"/>
       <use x="63.623047" xlink:href="#DejaVuSans-30"/>
       <use x="127.246094" xlink:href="#DejaVuSans-30"/>
       <use x="190.869141" xlink:href="#DejaVuSans-30"/>
       <use x="254.492188" xlink:href="#DejaVuSans-30"/>
      </g>
     </g>
    </g>
    <g id="xtick_6">
     <g id="text_6">
      <!-- 100000 -->
      <g style="fill:#262626;" transform="translate(503.919057 635.156562)scale(0.22 -0.22)">
       <defs>
        <path d="M 794 531 
L 1825 531 
L 1825 4091 
L 703 3866 
L 703 4441 
L 1819 4666 
L 2450 4666 
L 2450 531 
L 3481 531 
L 3481 0 
L 794 0 
L 794 531 
z
" id="DejaVuSans-31" transform="scale(0.015625)"/>
       </defs>
       <use xlink:href="#DejaVuSans-31"/>
       <use x="63.623047" xlink:href="#DejaVuSans-30"/>
       <use x="127.246094" xlink:href="#DejaVuSans-30"/>
       <use x="190.869141" xlink:href="#DejaVuSans-30"/>
       <use x="254.492188" xlink:href="#DejaVuSans-30"/>
       <use x="318.115234" xlink:href="#DejaVuSans-30"/>
      </g>
     </g>
    </g>
    <g id="text_7">
     <!-- MDTU -->
     <g style="fill:#262626;" transform="translate(290.683464 661.968125)scale(0.24 -0.24)">
      <defs>
       <path d="M 628 4666 
L 1569 4666 
L 2759 1491 
L 3956 4666 
L 4897 4666 
L 4897 0 
L 4281 0 
L 4281 4097 
L 3078 897 
L 2444 897 
L 1241 4097 
L 1241 0 
L 628 0 
L 628 4666 
z
" id="DejaVuSans-4d" transform="scale(0.015625)"/>
       <path d="M 1259 4147 
L 1259 519 
L 2022 519 
Q 2988 519 3436 956 
Q 3884 1394 3884 2338 
Q 3884 3275 3436 3711 
Q 2988 4147 2022 4147 
L 1259 4147 
z
M 628 4666 
L 1925 4666 
Q 3281 4666 3915 4102 
Q 4550 3538 4550 2338 
Q 4550 1131 3912 565 
Q 3275 0 1925 0 
L 628 0 
L 628 4666 
z
" id="DejaVuSans-44" transform="scale(0.015625)"/>
       <path d="M -19 4666 
L 3928 4666 
L 3928 4134 
L 2272 4134 
L 2272 0 
L 1638 0 
L 1638 4134 
L -19 4134 
L -19 4666 
z
" id="DejaVuSans-54" transform="scale(0.015625)"/>
       <path d="M 556 4666 
L 1191 4666 
L 1191 1831 
Q 1191 1081 1462 751 
Q 1734 422 2344 422 
Q 2950 422 3222 751 
Q 3494 1081 3494 1831 
L 3494 4666 
L 4128 4666 
L 4128 1753 
Q 4128 841 3676 375 
Q 3225 -91 2344 -91 
Q 1459 -91 1007 375 
Q 556 841 556 1753 
L 556 4666 
z
" id="DejaVuSans-55" transform="scale(0.015625)"/>
      </defs>
      <use xlink:href="#DejaVuSans-4d"/>
      <use x="86.279297" xlink:href="#DejaVuSans-44"/>
      <use x="163.28125" xlink:href="#DejaVuSans-54"/>
      <use x="224.365234" xlink:href="#DejaVuSans-55"/>
     </g>
    </g>
   </g>
   <g id="matplotlib.axis_2">
    <g id="ytick_1">
     <g id="text_8">
      <!-- 0.4 -->
      <g style="fill:#262626;" transform="translate(34.4275 599.916189)scale(0.22 -0.22)">
       <defs>
        <path d="M 684 794 
L 1344 794 
L 1344 0 
L 684 0 
L 684 794 
z
" id="DejaVuSans-2e" transform="scale(0.015625)"/>
       </defs>
       <use xlink:href="#DejaVuSans-30"/>
       <use x="63.623047" xlink:href="#DejaVuSans-2e"/>
       <use x="95.410156" xlink:href="#DejaVuSans-34"/>
      </g>
     </g>
    </g>
    <g id="ytick_2">
     <g id="text_9">
      <!-- 0.6 -->
      <g style="fill:#262626;" transform="translate(34.4275 539.265969)scale(0.22 -0.22)">
       <use xlink:href="#DejaVuSans-30"/>
       <use x="63.623047" xlink:href="#DejaVuSans-2e"/>
       <use x="95.410156" xlink:href="#DejaVuSans-36"/>
      </g>
     </g>
    </g>
    <g id="ytick_3">
     <g id="text_10">
      <!-- 0.8 -->
      <g style="fill:#262626;" transform="translate(34.4275 478.615749)scale(0.22 -0.22)">
       <use xlink:href="#DejaVuSans-30"/>
       <use x="63.623047" xlink:href="#DejaVuSans-2e"/>
       <use x="95.410156" xlink:href="#DejaVuSans-38"/>
      </g>
     </g>
    </g>
    <g id="ytick_4">
     <g id="text_11">
      <!-- 1.0 -->
      <g style="fill:#262626;" transform="translate(34.4275 417.965529)scale(0.22 -0.22)">
       <use xlink:href="#DejaVuSans-31"/>
       <use x="63.623047" xlink:href="#DejaVuSans-2e"/>
       <use x="95.410156" xlink:href="#DejaVuSans-30"/>
      </g>
     </g>
    </g>
    <g id="ytick_5">
     <g id="text_12">
      <!-- 1.2 -->
      <g style="fill:#262626;" transform="translate(34.4275 357.315309)scale(0.22 -0.22)">
       <use xlink:href="#DejaVuSans-31"/>
       <use x="63.623047" xlink:href="#DejaVuSans-2e"/>
       <use x="95.410156" xlink:href="#DejaVuSans-32"/>
      </g>
     </g>
    </g>
    <g id="ytick_6">
     <g id="text_13">
      <!-- 1.4 -->
      <g style="fill:#262626;" transform="translate(34.4275 296.665089)scale(0.22 -0.22)">
       <use xlink:href="#DejaVuSans-31"/>
       <use x="63.623047" xlink:href="#DejaVuSans-2e"/>
       <use x="95.410156" xlink:href="#DejaVuSans-34"/>
      </g>
     </g>
    </g>
    <g id="ytick_7">
     <g id="text_14">
      <!-- 1.6 -->
      <g style="fill:#262626;" transform="translate(34.4275 236.014869)scale(0.22 -0.22)">
       <use xlink:href="#DejaVuSans-31"/>
       <use x="63.623047" xlink:href="#DejaVuSans-2e"/>
       <use x="95.410156" xlink:href="#DejaVuSans-36"/>
      </g>
     </g>
    </g>
    <g id="ytick_8">
     <g id="text_15">
      <!-- 1.8 -->
      <g style="fill:#262626;" transform="translate(34.4275 175.364649)scale(0.22 -0.22)">
       <use xlink:href="#DejaVuSans-31"/>
       <use x="63.623047" xlink:href="#DejaVuSans-2e"/>
       <use x="95.410156" xlink:href="#DejaVuSans-38"/>
      </g>
     </g>
    </g>
    <g id="text_16">
     <!-- $E$ -->
     <g style="fill:#262626;" transform="translate(25.43625 363.813429)rotate(-90)scale(0.24 -0.24)">
      <defs>
       <path d="M 1081 4666 
L 4031 4666 
L 3928 4134 
L 1606 4134 
L 1338 2753 
L 3566 2753 
L 3463 2222 
L 1234 2222 
L 909 531 
L 3284 531 
L 3181 0 
L 172 0 
L 1081 4666 
z
" id="DejaVuSans-Oblique-45" transform="scale(0.015625)"/>
      </defs>
      <use transform="translate(0 0.09375)" xlink:href="#DejaVuSans-Oblique-45"/>
     </g>
    </g>
   </g>
   <g id="line2d_1">
    <path clip-path="url(#pfaf86fb97a)" d="M 106.866622 424.207492 
L 107.086254 413.140351 
L 107.305886 526.28669 
L 107.525519 420.752503 
L 107.745151 383.973515 
L 108.184415 454.064304 
L 108.62368 432.59639 
L 108.843312 498.239905 
L 109.062945 346.767685 
L 109.282577 474.468919 
L 109.502209 328.955567 
L 109.721841 519.880786 
L 109.941474 462.065289 
L 110.161106 473.440865 
L 110.380738 470.644354 
L 110.600371 509.615907 
L 110.820003 401.889431 
L 111.039635 413.337124 
L 111.259267 415.117072 
L 111.4789 477.737859 
L 111.698532 330.961367 
L 111.918164 268.34746 
L 112.137797 418.057969 
L 112.577061 509.386088 
L 112.796693 408.618816 
L 113.45559 504.592394 
L 113.675223 401.794381 
L 113.894855 509.728042 
L 114.114487 230.864522 
L 114.334119 402.650697 
L 114.553752 416.342758 
L 114.773384 413.015374 
L 114.993016 373.74445 
L 115.432281 411.634181 
L 115.651913 387.134599 
L 115.871545 421.514591 
L 116.091178 502.558344 
L 116.31081 391.270867 
L 116.530442 510.323541 
L 116.969707 326.957019 
L 117.408971 516.718064 
L 117.628604 393.727489 
L 117.848236 470.645544 
L 118.067868 452.117459 
L 118.287501 307.957053 
L 118.507133 468.751429 
L 118.726765 345.935494 
L 118.946397 536.222104 
L 119.16603 280.13536 
L 119.385662 501.450068 
L 119.605294 446.500696 
L 119.824926 480.650533 
L 120.044559 408.152558 
L 120.264191 389.218796 
L 120.483823 428.265388 
L 120.703456 506.623919 
L 121.14272 411.534108 
L 121.362352 449.774067 
L 121.581985 466.700818 
L 121.801617 494.818738 
L 122.021249 452.500623 
L 122.240882 488.013552 
L 122.460514 412.112634 
L 122.680146 473.102894 
L 122.899778 485.239289 
L 123.119411 400.835598 
L 123.339043 431.631477 
L 123.558675 421.277666 
L 123.778308 438.339013 
L 123.99794 437.177153 
L 124.217572 379.748803 
L 124.437204 546.670568 
L 124.656837 468.595656 
L 125.096101 402.71679 
L 125.315734 496.696609 
L 125.535366 510.012217 
L 125.754998 422.930113 
L 125.97463 444.818607 
L 126.194263 373.320004 
L 126.413895 441.635369 
L 126.633527 404.703355 
L 126.85316 477.204712 
L 127.072792 333.063795 
L 127.292424 414.089224 
L 127.512056 401.775346 
L 127.731689 364.057162 
L 128.170953 470.034842 
L 128.610218 428.527927 
L 128.82985 381.518917 
L 129.269115 497.508458 
L 129.488747 402.519276 
L 129.708379 529.918828 
L 130.147644 426.121859 
L 130.367276 512.705716 
L 130.586908 434.262207 
L 130.806541 432.9468 
L 131.026173 485.395902 
L 131.245805 439.737967 
L 131.465438 360.086656 
L 131.68507 443.882956 
L 131.904702 359.780253 
L 132.343967 437.705707 
L 132.563599 466.072122 
L 132.783231 478.53841 
L 133.002864 406.279253 
L 133.222496 468.36212 
L 133.442128 488.930019 
L 133.66176 529.496215 
L 134.101025 311.100098 
L 134.320657 350.324794 
L 134.540289 434.070865 
L 134.759922 352.022493 
L 135.199186 376.922265 
L 135.638451 496.520092 
L 135.858083 477.856575 
L 136.077715 476.36943 
L 136.297348 499.462759 
L 136.51698 374.59782 
L 136.736612 477.425218 
L 136.956245 490.717915 
L 137.175877 459.704541 
L 137.395509 334.11142 
L 137.615141 387.070596 
L 137.834774 366.001917 
L 138.274038 424.450023 
L 138.493671 437.603152 
L 138.713303 460.345324 
L 139.152567 400.028118 
L 139.3722 408.281038 
L 139.591832 534.948166 
L 139.811464 396.477466 
L 140.031097 427.406323 
L 140.250729 399.423545 
L 140.470361 474.995339 
L 140.689993 502.265666 
L 140.909626 289.407366 
L 141.129258 538.985024 
L 141.568523 190.011189 
L 141.788155 514.949708 
L 142.007787 419.202599 
L 142.227419 419.28066 
L 142.447052 483.1082 
L 142.666684 508.875641 
L 142.886316 489.674627 
L 143.105949 383.888721 
L 143.325581 549.202148 
L 143.545213 407.96535 
L 143.764845 470.272367 
L 143.984478 423.689789 
L 144.20411 469.344228 
L 144.423742 325.75812 
L 144.643375 459.737077 
L 144.863007 442.951479 
L 145.082639 441.141796 
L 145.521904 361.186523 
L 145.741536 512.33651 
L 145.961168 488.609532 
L 146.180801 498.276021 
L 146.400433 412.534853 
L 146.620065 455.231119 
L 146.839697 460.249053 
L 147.05933 437.01238 
L 147.278962 525.323313 
L 147.498594 401.420063 
L 147.937859 544.842371 
L 148.157491 464.612796 
L 148.377123 214.810952 
L 148.816388 380.420018 
L 149.475285 497.199695 
L 149.694917 407.327615 
L 149.914549 476.605159 
L 150.134182 268.724151 
L 150.353814 448.308994 
L 150.573446 398.223275 
L 150.793078 309.47128 
L 151.232343 535.171284 
L 151.451975 482.600972 
L 151.671608 398.533101 
L 151.89124 389.347111 
L 152.110872 462.14371 
L 152.330504 197.143496 
L 152.550137 422.284908 
L 152.769769 511.301809 
L 152.989401 279.796293 
L 153.209034 360.806408 
L 153.428666 311.34339 
L 153.648298 537.585559 
L 153.86793 303.968793 
L 154.087563 473.839766 
L 154.526827 159.393761 
L 154.74646 410.030215 
L 154.966092 501.197962 
L 155.185724 467.376916 
L 155.405356 471.340004 
L 155.624989 300.821322 
L 155.844621 449.563904 
L 156.064253 327.159362 
L 156.283886 493.039921 
L 156.503518 352.775219 
L 156.72315 494.40348 
L 156.942782 396.069536 
L 157.162415 396.741947 
L 157.382047 359.098211 
L 157.601679 364.54825 
L 157.821312 479.183922 
L 158.040944 366.676468 
L 158.260576 330.80884 
L 158.480208 405.973895 
L 158.699841 434.646682 
L 158.919473 484.673392 
L 159.139105 353.229988 
L 159.358738 320.706832 
L 159.57837 457.162672 
L 159.798002 520.299769 
L 160.017634 429.788818 
L 160.237267 428.311001 
L 160.456899 406.516319 
L 160.676531 519.33455 
L 160.896164 401.24425 
L 161.115796 487.730102 
L 161.335428 471.127013 
L 161.55506 420.62251 
L 161.774693 515.735123 
L 162.213957 427.291159 
L 162.43359 448.452415 
L 162.653222 491.313355 
L 162.872854 559.615684 
L 163.092486 412.368653 
L 163.312119 493.472197 
L 163.531751 378.718136 
L 163.751383 509.832706 
L 163.971016 417.984653 
L 164.190648 150.948446 
L 164.41028 457.537723 
L 164.629912 395.174984 
L 165.069177 518.457109 
L 165.288809 333.082665 
L 166.167338 532.02629 
L 166.386971 437.738669 
L 166.606603 440.76456 
L 166.826235 419.915899 
L 167.045867 488.155972 
L 167.2655 467.062496 
L 167.704764 383.740126 
L 167.924397 370.387014 
L 168.144029 483.730379 
L 168.363661 327.876783 
L 168.583293 513.143444 
L 168.802926 391.674247 
L 169.022558 433.46514 
L 169.24219 361.19576 
L 170.120719 509.770392 
L 170.559984 350.741795 
L 170.999249 472.198806 
L 171.658145 375.307771 
L 171.877778 466.645058 
L 172.09741 413.329083 
L 172.317042 295.609187 
L 172.536675 521.925326 
L 172.756307 405.703183 
L 172.975939 391.213028 
L 173.195571 451.354627 
L 173.415204 334.280716 
L 173.634836 310.371206 
L 173.854468 451.008427 
L 174.074101 495.999006 
L 174.293733 384.019601 
L 174.513365 406.089626 
L 174.732997 402.00314 
L 174.95263 533.430519 
L 175.172262 361.589616 
L 175.391894 352.285076 
L 175.611527 402.10625 
L 175.831159 487.10334 
L 176.050791 416.602736 
L 176.270423 412.311144 
L 176.490056 501.277959 
L 176.709688 489.596746 
L 176.92932 507.404513 
L 177.148953 502.023569 
L 177.368585 447.087496 
L 177.588217 506.247575 
L 177.807849 409.181595 
L 178.027482 419.754055 
L 178.247114 412.39048 
L 178.466746 524.386125 
L 178.686379 467.953276 
L 178.906011 492.338972 
L 179.125643 481.864488 
L 179.345275 538.688894 
L 179.564908 483.389642 
L 179.78454 462.955384 
L 180.004172 381.293564 
L 180.223805 430.054281 
L 180.443437 411.230884 
L 180.663069 306.357957 
L 181.102334 470.961427 
L 181.321966 514.866905 
L 181.541598 433.237397 
L 181.76123 430.833584 
L 181.980863 469.846332 
L 182.200495 419.278427 
L 182.420127 433.527262 
L 182.859392 487.429139 
L 183.079024 440.108418 
L 183.298656 425.980186 
L 183.518289 337.627677 
L 183.737921 472.682311 
L 183.957553 204.978703 
L 184.177186 440.64264 
L 184.396818 437.524211 
L 184.61645 527.453782 
L 184.836082 407.547943 
L 185.055715 427.676898 
L 185.275347 481.618407 
L 185.714612 257.21103 
L 185.934244 440.522151 
L 186.153876 399.411458 
L 186.593141 376.789674 
L 186.812773 482.362754 
L 187.032405 315.705936 
L 187.252038 410.691911 
L 187.47167 329.28558 
L 187.691302 386.084159 
L 187.910934 562.607231 
L 188.350199 385.055655 
L 188.569831 386.683629 
L 188.789464 525.924815 
L 189.009096 472.05225 
L 189.228728 501.847224 
L 189.44836 419.868264 
L 189.667993 484.566973 
L 189.887625 445.984922 
L 190.107257 481.497125 
L 190.32689 485.852637 
L 190.546522 369.626805 
L 190.985786 475.042319 
L 191.205419 473.741071 
L 191.425051 324.349082 
L 191.644683 456.723242 
L 191.864316 376.88684 
L 192.30358 490.0961 
L 192.742845 426.148187 
L 192.962477 435.297445 
L 193.182109 456.694602 
L 193.621374 420.194266 
L 193.841006 373.845663 
L 194.060638 489.891455 
L 194.280271 378.471609 
L 194.499903 504.413861 
L 194.939168 324.218048 
L 195.1588 437.120948 
L 195.378432 446.744485 
L 195.598064 530.582545 
L 195.817697 488.668874 
L 196.037329 376.515231 
L 196.256961 467.194896 
L 196.476593 355.686818 
L 196.696226 436.612844 
L 196.915858 392.66876 
L 197.13549 466.966987 
L 197.355123 367.386178 
L 197.574755 495.323428 
L 197.794387 526.178532 
L 198.233652 372.153541 
L 198.453284 448.629122 
L 198.672916 392.680424 
L 198.892549 548.853697 
L 199.331813 428.937942 
L 199.551445 472.334785 
L 199.771078 322.230391 
L 199.99071 443.777368 
L 200.210342 480.535015 
L 200.429975 438.051953 
L 200.649607 425.747699 
L 200.869239 479.646653 
L 201.308504 412.266271 
L 201.528136 392.098084 
L 201.747768 500.58991 
L 201.967401 465.429677 
L 202.187033 373.128167 
L 202.406665 379.776245 
L 202.626297 443.136664 
L 202.84593 415.315037 
L 203.065562 352.313918 
L 203.285194 571.325119 
L 203.724459 391.334664 
L 203.944091 467.428154 
L 204.163723 458.212621 
L 204.383356 358.898298 
L 204.602988 379.510627 
L 204.82262 470.938656 
L 205.042253 417.399697 
L 205.261885 439.818488 
L 205.701149 325.494128 
L 205.920782 315.500544 
L 206.140414 229.493487 
L 206.360046 457.390753 
L 206.579679 304.906417 
L 206.799311 508.64286 
L 207.018943 546.251091 
L 207.458208 380.302443 
L 207.67784 406.537239 
L 207.897472 348.835308 
L 208.117105 438.358809 
L 208.336737 394.70397 
L 208.556369 412.634737 
L 208.776001 373.171714 
L 208.995634 415.181195 
L 209.215266 507.619843 
L 209.434898 453.028881 
L 209.654531 443.543223 
L 209.874163 544.154827 
L 210.313427 257.171764 
L 210.53306 436.927855 
L 210.752692 369.752203 
L 210.972324 391.150657 
L 211.191956 516.372014 
L 211.411589 418.706571 
L 212.070486 455.043958 
L 212.50975 580.503039 
L 212.729382 469.592817 
L 212.949015 502.057974 
L 213.388279 307.033503 
L 213.827544 466.485065 
L 214.047176 487.780733 
L 214.266808 476.530432 
L 214.486441 474.181706 
L 214.706073 475.921951 
L 214.925705 461.626862 
L 215.145338 516.789917 
L 215.36497 474.255183 
L 215.584602 337.163988 
L 215.804234 424.351684 
L 216.023867 449.591571 
L 216.243499 496.678347 
L 216.463131 454.958413 
L 216.682764 341.048773 
L 217.122028 488.986197 
L 217.34166 408.509712 
L 217.561293 416.65395 
L 217.780925 402.895281 
L 218.000557 454.936896 
L 218.22019 441.971707 
L 218.439822 247.386408 
L 218.659454 574.166046 
L 218.879086 503.31944 
L 219.098719 540.832441 
L 219.318351 469.915267 
L 219.537983 315.436469 
L 219.977248 430.259591 
L 220.19688 319.870557 
L 220.416512 485.664959 
L 220.855777 372.334845 
L 221.295042 528.097203 
L 221.734306 350.321562 
L 221.953938 395.752838 
L 222.173571 324.957333 
L 222.393203 497.657746 
L 222.612835 384.546903 
L 222.832468 424.992936 
L 223.0521 304.524196 
L 223.271732 266.900324 
L 223.930629 433.177449 
L 224.150261 406.246966 
L 224.369894 406.349355 
L 224.589526 387.740884 
L 224.809158 503.430271 
L 225.02879 505.271759 
L 225.248423 381.955844 
L 225.468055 502.275895 
L 225.687687 437.272171 
L 225.90732 420.005799 
L 226.126952 392.742423 
L 226.346584 388.80188 
L 226.566216 447.775658 
L 226.785849 472.562356 
L 227.005481 380.351237 
L 227.225113 487.496966 
L 227.444745 456.224751 
L 227.664378 345.873592 
L 227.88401 426.324909 
L 228.323275 313.954555 
L 228.542907 431.823434 
L 228.762539 468.379102 
L 228.982171 424.789752 
L 229.201804 407.42813 
L 229.421436 420.310668 
L 229.641068 378.489202 
L 229.860701 503.17813 
L 230.080333 368.348345 
L 230.519597 461.164444 
L 230.73923 479.882196 
L 230.958862 482.704 
L 231.178494 412.561281 
L 231.398127 438.812283 
L 231.617759 481.594399 
L 231.837391 492.82832 
L 232.057023 460.444447 
L 232.276656 406.423394 
L 232.496288 493.664543 
L 232.71592 451.28594 
L 232.935553 460.595739 
L 233.155185 551.439293 
L 233.374817 469.071192 
L 233.594449 460.301895 
L 233.814082 444.090818 
L 234.033714 463.471318 
L 234.253346 469.563446 
L 234.472979 468.418693 
L 234.692611 441.750178 
L 234.912243 503.036913 
L 235.131875 437.652216 
L 235.351508 225.228778 
L 235.57114 463.133483 
L 235.790772 367.064924 
L 236.010405 480.846087 
L 236.230037 376.296647 
L 236.449669 489.957491 
L 236.669301 543.874612 
L 236.888934 309.901378 
L 237.108566 458.951356 
L 237.328198 383.435453 
L 237.547831 507.564949 
L 237.767463 508.789267 
L 237.987095 456.085671 
L 238.206727 542.532798 
L 238.42636 565.482407 
L 238.865624 468.493135 
L 239.085257 539.909722 
L 239.304889 334.608246 
L 239.524521 324.169653 
L 239.744153 450.220402 
L 239.963786 429.422196 
L 240.183418 433.354318 
L 240.40305 352.542751 
L 240.622683 476.140201 
L 240.842315 382.96137 
L 241.281579 404.525108 
L 241.501212 408.036929 
L 241.720844 403.436431 
L 241.940476 431.700261 
L 242.160108 432.111121 
L 242.379741 440.504999 
L 242.599373 482.167534 
L 242.819005 486.394832 
L 243.25827 513.85756 
L 243.477902 308.404577 
L 243.697534 483.791993 
L 243.917167 494.248522 
L 244.136799 466.17145 
L 244.356431 496.495734 
L 245.015328 340.873129 
L 245.23496 409.836244 
L 245.674225 475.992329 
L 245.893857 458.892257 
L 246.11349 383.355031 
L 246.333122 365.007353 
L 246.552754 425.323617 
L 246.772386 337.475059 
L 246.992019 301.089472 
L 247.431283 471.878972 
L 247.650916 478.01337 
L 247.870548 406.732136 
L 248.09018 397.842483 
L 248.309812 529.652321 
L 248.529445 482.889153 
L 248.749077 347.80568 
L 248.968709 435.137353 
L 249.407974 279.760526 
L 249.847238 508.968201 
L 250.066871 297.05096 
L 250.286503 491.189756 
L 250.506135 446.591405 
L 250.725768 457.768329 
L 250.9454 417.990171 
L 251.165032 436.871114 
L 251.384664 468.966962 
L 251.604297 448.612409 
L 251.823929 467.024502 
L 252.263194 217.431927 
L 252.482826 473.049645 
L 252.702458 327.031357 
L 252.92209 426.351371 
L 253.141723 373.967293 
L 253.361355 478.524711 
L 253.580987 350.74044 
L 253.80062 373.453571 
L 254.020252 422.448787 
L 254.239884 384.21386 
L 254.459516 487.018616 
L 254.679149 484.566766 
L 254.898781 365.819933 
L 255.118413 464.447005 
L 255.338046 392.386673 
L 255.557678 391.618436 
L 255.77731 373.322877 
L 255.996942 469.852438 
L 256.216575 293.257811 
L 256.436207 422.427461 
L 256.875472 340.416368 
L 257.095104 457.606018 
L 257.314736 486.565565 
L 257.534368 361.902478 
L 257.754001 456.901792 
L 257.973633 357.748224 
L 258.193265 430.034709 
L 258.63253 444.386935 
L 258.852162 348.637281 
L 259.071794 492.929224 
L 259.291427 437.450077 
L 259.511059 419.187536 
L 259.730691 477.394661 
L 259.950323 394.99252 
L 260.169956 372.95665 
L 260.389588 490.59422 
L 260.60922 364.212878 
L 260.828853 450.513777 
L 261.048485 326.300178 
L 261.268117 422.66481 
L 261.487749 306.241192 
L 261.707382 322.092454 
L 262.366279 427.449188 
L 262.585911 372.988031 
L 262.805543 507.016146 
L 263.025175 498.988548 
L 263.244808 402.541274 
L 263.46444 371.062954 
L 263.684072 358.919314 
L 263.903705 326.131891 
L 264.123337 370.753424 
L 264.342969 389.600829 
L 264.562601 325.804492 
L 264.782234 439.69997 
L 265.441131 368.116136 
L 265.660763 544.820027 
L 265.880395 502.347265 
L 266.100027 432.217948 
L 266.31966 420.580816 
L 266.539292 395.333215 
L 266.758924 529.205134 
L 266.978557 381.936793 
L 267.198189 508.424166 
L 267.417821 433.08366 
L 267.637453 437.795573 
L 267.857086 367.890587 
L 268.076718 419.502021 
L 268.29635 279.079085 
L 268.515983 376.332442 
L 268.735615 377.221992 
L 268.955247 439.964336 
L 269.174879 441.97024 
L 269.394512 436.825738 
L 269.614144 530.235287 
L 269.833776 336.281412 
L 270.053409 479.542682 
L 270.273041 448.442891 
L 270.492673 461.170801 
L 271.15157 335.010181 
L 271.371202 508.631472 
L 271.590835 450.095558 
L 271.810467 485.644673 
L 272.030099 360.435884 
L 272.249731 403.765957 
L 272.469364 367.199489 
L 272.908628 520.418296 
L 273.12826 542.464179 
L 273.347893 412.95116 
L 273.567525 388.364968 
L 273.787157 444.031141 
L 274.00679 464.144995 
L 274.226422 420.27904 
L 274.446054 401.294567 
L 274.665686 549.91779 
L 274.885319 385.142669 
L 275.104951 457.203572 
L 275.324583 423.587168 
L 275.544216 472.408712 
L 275.763848 461.465878 
L 275.98348 375.582383 
L 276.203112 371.8084 
L 276.422745 462.775573 
L 276.642377 321.421808 
L 276.862009 459.997496 
L 277.081642 527.239913 
L 277.520906 410.082183 
L 277.740538 440.314731 
L 277.960171 365.42172 
L 278.179803 499.956204 
L 278.399435 492.678861 
L 278.619068 472.001045 
L 278.8387 323.708779 
L 279.058332 455.268647 
L 279.277964 331.401522 
L 279.497597 549.276349 
L 279.717229 503.579745 
L 279.936861 382.343792 
L 280.156494 423.595649 
L 280.376126 316.990381 
L 280.595758 380.839164 
L 280.81539 383.121444 
L 281.035023 422.346331 
L 281.254655 418.638511 
L 281.474287 329.2945 
L 281.69392 519.711443 
L 281.913552 403.955149 
L 282.352816 497.628374 
L 282.572449 494.883943 
L 282.792081 469.515652 
L 283.011713 330.024495 
L 283.450978 518.561875 
L 283.67061 538.2747 
L 283.890242 404.252496 
L 284.109875 408.140347 
L 284.329507 355.184245 
L 284.549139 346.751162 
L 285.208036 525.272844 
L 285.427668 255.209716 
L 285.866933 471.545218 
L 286.086565 463.36154 
L 286.306198 447.096281 
L 286.52583 399.425541 
L 286.745462 394.056806 
L 286.965094 542.214059 
L 287.184727 393.828815 
L 287.404359 435.227991 
L 287.623991 239.328142 
L 288.063256 516.855885 
L 288.50252 402.650125 
L 288.722153 408.53555 
L 288.941785 441.946488 
L 289.161417 437.911268 
L 289.381049 443.465474 
L 289.820314 308.215709 
L 290.039946 399.635483 
L 290.259579 387.209585 
L 290.698843 521.778967 
L 290.918475 497.274613 
L 291.138108 488.467042 
L 291.577372 337.093387 
L 291.797005 451.719373 
L 292.016637 477.786295 
L 292.675534 369.772906 
L 292.895166 350.767414 
L 293.114798 245.998069 
L 293.334431 440.384841 
L 293.554063 361.083634 
L 293.773695 371.727896 
L 293.993327 471.719974 
L 294.21296 413.962773 
L 294.432592 424.576332 
L 294.652224 398.100377 
L 294.871857 329.651553 
L 295.091489 465.587854 
L 295.311121 464.092634 
L 295.530753 489.332977 
L 295.750386 423.690973 
L 295.970018 480.580197 
L 296.18965 358.907633 
L 296.409283 382.956116 
L 296.628915 463.180202 
L 296.848547 467.3122 
L 297.068179 453.73904 
L 297.287812 457.707447 
L 297.727076 435.835395 
L 297.946709 382.874949 
L 298.166341 375.032325 
L 298.385973 451.634319 
L 298.605605 350.583234 
L 298.825238 461.474989 
L 299.04487 416.82846 
L 299.264502 461.799193 
L 299.484135 541.215053 
L 299.703767 449.1973 
L 299.923399 300.287459 
L 300.143031 522.700263 
L 300.362664 382.710837 
L 300.582296 437.066473 
L 300.801928 444.677017 
L 301.021561 392.201442 
L 301.241193 515.092567 
L 301.460825 299.857122 
L 301.680457 395.197735 
L 301.90009 419.232085 
L 302.119722 478.073112 
L 302.339354 379.344691 
L 302.558987 394.013546 
L 302.778619 461.578947 
L 302.998251 389.33108 
L 303.217883 384.131937 
L 303.437516 448.223519 
L 303.657148 371.889081 
L 303.87678 362.406125 
L 304.096412 381.888663 
L 304.316045 521.005768 
L 304.535677 423.21468 
L 304.755309 544.002779 
L 304.974942 468.877668 
L 305.194574 447.166167 
L 305.414206 469.10853 
L 305.633838 340.868372 
L 306.073103 467.296282 
L 306.292735 419.44841 
L 306.512368 491.034421 
L 306.732 398.670374 
L 307.171264 439.646761 
L 307.390897 410.105693 
L 307.610529 418.179322 
L 307.830161 526.563341 
L 308.049794 392.709365 
L 308.269426 380.518042 
L 308.489058 532.408131 
L 308.70869 523.29856 
L 308.928323 425.812576 
L 309.147955 502.813529 
L 309.367587 437.023671 
L 309.58722 422.129156 
L 310.026484 519.529572 
L 310.246116 459.042453 
L 310.465749 534.115863 
L 310.905013 280.398438 
L 311.124646 397.515605 
L 311.344278 383.898159 
L 311.56391 454.922501 
L 312.003175 363.689508 
L 312.222807 465.60781 
L 312.442439 319.244208 
L 312.662072 467.196534 
L 312.881704 353.187456 
L 313.101336 440.765552 
L 313.320968 478.128175 
L 313.540601 437.286017 
L 313.979865 537.162207 
L 314.199498 531.312019 
L 314.41913 434.755806 
L 314.638762 433.717369 
L 314.858394 470.946677 
L 315.078027 535.476226 
L 315.297659 485.275997 
L 315.517291 494.712492 
L 315.736924 463.127746 
L 315.956556 506.615996 
L 316.39582 284.841188 
L 316.615453 435.312382 
L 316.835085 358.573592 
L 317.054717 393.586038 
L 317.27435 542.09076 
L 317.493982 493.726304 
L 317.713614 407.729525 
L 317.933246 511.639459 
L 318.152879 534.908868 
L 318.372511 502.868987 
L 318.592143 435.268886 
L 319.031408 380.092948 
L 319.25104 487.031959 
L 319.470672 373.510172 
L 319.909937 323.997969 
L 320.129569 432.213668 
L 320.349201 400.125225 
L 320.568834 532.824883 
L 320.788466 381.652132 
L 321.008098 346.052239 
L 321.227731 412.457518 
L 321.447363 419.93231 
L 321.666995 432.565558 
L 322.10626 387.181955 
L 322.325892 411.843723 
L 322.545524 473.153443 
L 322.765157 478.796028 
L 322.984789 406.528518 
L 323.204421 488.889733 
L 323.424053 496.740953 
L 323.643686 434.620972 
L 323.863318 491.837052 
L 324.08295 432.223569 
L 324.302583 233.238189 
L 324.522215 437.860194 
L 324.741847 472.457536 
L 324.961479 403.307592 
L 325.181112 419.026606 
L 325.400744 515.674478 
L 325.620376 423.072036 
L 326.059641 479.300742 
L 326.279273 394.325449 
L 326.498905 362.995142 
L 326.718538 498.49987 
L 326.93817 560.95122 
L 327.377435 407.143887 
L 327.597067 417.282021 
L 327.816699 439.143831 
L 328.036331 432.117391 
L 328.255964 372.738598 
L 328.695228 455.55145 
L 328.914861 540.596597 
L 329.134493 439.060545 
L 329.354125 538.358521 
L 329.573757 322.51708 
L 329.79339 448.402869 
L 330.013022 430.78312 
L 330.232654 545.95569 
L 330.671919 419.356835 
L 330.891551 440.884994 
L 331.111183 397.182503 
L 331.330816 378.665922 
L 331.550448 376.382705 
L 331.77008 414.312716 
L 331.989713 426.364314 
L 332.209345 453.195588 
L 332.428977 410.794562 
L 332.648609 399.403572 
L 332.868242 312.17675 
L 333.307506 521.464529 
L 333.527139 440.611344 
L 333.746771 478.323917 
L 333.966403 374.636129 
L 334.186035 481.82979 
L 334.405668 433.170191 
L 334.6253 261.254353 
L 334.844932 486.315321 
L 335.064564 396.955379 
L 335.284197 501.918156 
L 335.503829 512.506869 
L 335.723461 515.40344 
L 335.943094 493.739628 
L 336.162726 528.573137 
L 336.382358 344.482088 
L 336.60199 482.22068 
L 336.821623 484.625207 
L 337.041255 282.337682 
L 337.48052 483.572345 
L 337.700152 486.444927 
L 337.919784 382.6956 
L 338.139416 446.055881 
L 338.359049 311.594075 
L 338.578681 514.186797 
L 338.798313 447.852482 
L 339.017946 482.198965 
L 339.237578 244.68661 
L 339.45721 474.449093 
L 339.676842 400.340075 
L 339.896475 472.479403 
L 340.116107 473.320969 
L 340.335739 401.444693 
L 340.555372 258.99382 
L 340.775004 459.447999 
L 340.994636 454.168692 
L 341.214268 454.449843 
L 341.433901 477.540164 
L 341.653533 424.492621 
L 341.873165 462.488239 
L 342.092798 424.190583 
L 342.31243 434.060287 
L 342.532062 394.684982 
L 342.751694 522.160084 
L 342.971327 487.453231 
L 343.190959 562.525112 
L 343.410591 482.918774 
L 343.630224 458.696947 
L 344.069488 481.440004 
L 344.28912 293.891777 
L 344.508753 450.206844 
L 344.728385 284.95173 
L 344.948017 483.59367 
L 345.16765 519.567661 
L 345.387282 292.58133 
L 345.606914 423.630961 
L 346.046179 464.905982 
L 346.265811 465.377129 
L 346.485443 403.309179 
L 346.705076 415.868912 
L 346.924708 317.831124 
L 347.14434 485.326755 
L 347.363972 492.333957 
L 347.583605 385.547252 
L 347.803237 447.365804 
L 348.022869 439.174042 
L 348.242502 419.321365 
L 348.462134 500.877664 
L 348.681766 443.944512 
L 349.121031 479.920415 
L 349.340663 516.527191 
L 349.560295 446.57915 
L 349.779927 507.334556 
L 349.99956 395.529256 
L 350.219192 359.095325 
L 350.438824 408.271264 
L 350.658457 381.671833 
L 350.878089 379.609016 
L 351.097721 364.093476 
L 351.317353 382.599496 
L 351.536986 297.696179 
L 351.97625 486.403947 
L 352.195883 452.670471 
L 352.415515 438.196627 
L 352.635147 483.308632 
L 352.854779 473.960686 
L 353.074412 403.843149 
L 353.294044 469.944025 
L 353.513676 386.229664 
L 353.733309 416.548957 
L 353.952941 361.517156 
L 354.172573 477.820666 
L 354.611838 418.605892 
L 354.83147 370.808484 
L 355.051102 440.845316 
L 355.270735 386.114666 
L 355.490367 511.78764 
L 355.709999 446.94164 
L 355.929631 452.511573 
L 356.149264 415.14208 
L 356.368896 481.173818 
L 356.588528 429.91968 
L 356.808161 313.976623 
L 357.027793 470.662239 
L 357.247425 480.231726 
L 357.467057 435.751115 
L 357.68669 471.564233 
L 357.906322 351.385343 
L 358.345587 516.972577 
L 358.565219 376.785267 
L 358.784851 337.246049 
L 359.004483 435.294096 
L 359.224116 391.214162 
L 359.443748 393.03918 
L 359.66338 483.868255 
L 359.883013 310.866478 
L 360.102645 406.161722 
L 360.322277 304.425835 
L 360.541909 399.045074 
L 360.761542 409.151179 
L 360.981174 437.080403 
L 361.200806 394.350812 
L 361.420439 449.336686 
L 361.640071 454.693118 
L 361.859703 421.092623 
L 362.079335 409.343959 
L 362.298968 451.855898 
L 362.5186 305.563618 
L 362.738232 429.531557 
L 362.957865 424.329536 
L 363.177497 456.943141 
L 363.836394 293.393891 
L 364.056026 396.957602 
L 364.275658 389.3693 
L 364.495291 425.750274 
L 364.714923 484.386356 
L 365.154187 381.177824 
L 365.593452 489.148148 
L 365.813084 426.050478 
L 366.032716 432.495136 
L 366.252349 539.275484 
L 366.471981 419.205721 
L 366.691613 450.78081 
L 366.911246 448.64825 
L 367.130878 364.128423 
L 367.35051 440.999179 
L 367.570142 281.241549 
L 367.789775 479.193457 
L 368.009407 289.075195 
L 368.229039 399.951453 
L 368.448672 417.998989 
L 368.668304 371.485191 
L 368.887936 511.156142 
L 369.107568 410.470339 
L 369.327201 433.832223 
L 369.546833 349.969501 
L 369.766465 459.850704 
L 369.986098 329.65691 
L 370.20573 491.344348 
L 370.425362 425.981508 
L 370.644994 442.970416 
L 370.864627 495.786789 
L 371.084259 455.687128 
L 371.303891 555.039889 
L 371.523524 502.686353 
L 371.743156 490.75176 
L 371.962788 380.578143 
L 372.18242 474.866065 
L 372.402053 493.790633 
L 372.621685 454.662874 
L 372.841317 354.776504 
L 373.06095 477.761533 
L 373.280582 375.052404 
L 373.500214 366.650365 
L 373.719846 279.706866 
L 373.939479 273.08777 
L 374.159111 438.166424 
L 374.378743 302.538847 
L 374.598376 397.148947 
L 374.818008 214.803989 
L 375.03764 449.490475 
L 375.257272 466.944095 
L 375.476905 503.532543 
L 375.696537 362.185577 
L 375.916169 502.035337 
L 376.135802 443.895925 
L 376.355434 455.585146 
L 376.575066 481.823491 
L 376.794698 490.882949 
L 377.014331 459.221792 
L 377.233963 517.630509 
L 377.453595 420.927426 
L 377.673228 427.09578 
L 377.89286 348.881337 
L 378.112492 501.415459 
L 378.332124 239.743373 
L 378.551757 433.976853 
L 378.771389 450.926538 
L 378.991021 326.073969 
L 379.430286 447.84147 
L 379.649918 470.779555 
L 380.089183 328.794438 
L 380.308815 461.192206 
L 380.528447 435.835001 
L 380.748079 390.979487 
L 380.967712 416.010171 
L 381.187344 372.03928 
L 381.406976 477.970418 
L 381.626609 507.14994 
L 381.846241 494.501694 
L 382.065873 424.946949 
L 382.285505 431.103314 
L 382.505138 523.453727 
L 382.72477 491.227907 
L 382.944402 404.247503 
L 383.164035 400.082272 
L 383.383667 443.942329 
L 383.603299 392.046531 
L 383.822931 573.105963 
L 384.042564 518.943219 
L 384.262196 405.370359 
L 384.481828 464.872346 
L 384.701461 470.262873 
L 384.921093 442.619921 
L 385.140725 387.676857 
L 385.360357 374.24008 
L 385.57999 444.264327 
L 385.799622 390.436866 
L 386.019254 426.410096 
L 386.238887 541.489568 
L 386.678151 369.234805 
L 386.897783 398.466838 
L 387.117416 320.135637 
L 387.337048 461.33542 
L 387.55668 465.591031 
L 387.776313 427.577633 
L 387.995945 495.338101 
L 388.215577 333.233559 
L 388.435209 385.811657 
L 388.654842 404.240144 
L 389.094106 523.310855 
L 389.313739 289.69022 
L 389.533371 424.21908 
L 389.753003 427.657817 
L 389.972635 422.940439 
L 390.192268 428.424604 
L 390.4119 512.473812 
L 390.631532 432.296181 
L 390.851165 500.69788 
L 391.070797 414.862485 
L 391.290429 415.803584 
L 391.510061 482.03557 
L 391.729694 450.095529 
L 391.949326 496.802742 
L 392.168958 453.369985 
L 392.388591 467.933519 
L 392.608223 461.2242 
L 392.827855 423.626715 
L 393.047487 474.134092 
L 393.26712 357.388404 
L 393.486752 351.250313 
L 393.706384 478.818114 
L 393.926017 444.263742 
L 394.145649 442.596711 
L 394.365281 408.292164 
L 394.804546 472.800185 
L 395.024178 454.938681 
L 395.24381 414.19766 
L 395.463443 477.087571 
L 395.683075 403.124878 
L 395.902707 484.319903 
L 396.122339 327.376658 
L 396.341972 354.55745 
L 396.561604 425.91283 
L 396.781236 399.491972 
L 397.000868 519.088172 
L 397.220501 384.529578 
L 397.440133 463.862747 
L 397.659765 445.418175 
L 397.879398 310.49326 
L 398.09903 363.276977 
L 398.318662 381.381584 
L 398.538294 414.329967 
L 398.757927 416.900674 
L 398.977559 381.739673 
L 399.197191 418.449611 
L 399.416824 409.156353 
L 399.636456 439.411019 
L 399.856088 443.035871 
L 400.07572 511.304867 
L 400.295353 489.582975 
L 400.514985 427.855562 
L 400.734617 459.816919 
L 400.95425 400.925178 
L 401.393514 473.207551 
L 402.052411 312.626076 
L 402.272043 432.161726 
L 402.491676 430.098758 
L 402.711308 479.962268 
L 402.93094 493.206279 
L 403.150572 481.558272 
L 403.370205 446.781686 
L 403.589837 455.7115 
L 403.809469 424.113355 
L 404.029102 444.283451 
L 404.248734 442.453126 
L 404.687998 326.399095 
L 404.907631 313.371762 
L 405.127263 492.837032 
L 405.346895 355.076821 
L 405.566528 313.800967 
L 405.78616 525.663871 
L 406.005792 396.405302 
L 406.225424 421.40025 
L 406.445057 310.068741 
L 406.664689 559.208557 
L 406.884321 438.868562 
L 407.103954 511.389782 
L 407.323586 241.858523 
L 407.543218 387.30165 
L 407.76285 381.311471 
L 407.982483 421.675748 
L 408.202115 500.936873 
L 408.64138 379.872399 
L 408.861012 484.492595 
L 409.080644 463.328089 
L 409.300276 430.215683 
L 409.519909 424.078821 
L 409.959173 524.17034 
L 410.178806 396.839869 
L 410.398438 484.272365 
L 410.837702 184.22304 
L 411.057335 411.176114 
L 411.496599 510.464462 
L 411.935864 406.014609 
L 412.155496 470.16776 
L 412.375128 480.897307 
L 412.594761 423.788229 
L 412.814393 447.649342 
L 413.034025 348.292256 
L 413.253657 309.784043 
L 413.47329 461.993066 
L 413.692922 335.3222 
L 413.912554 477.709433 
L 414.132187 490.192222 
L 414.571451 524.284236 
L 414.791083 315.833745 
L 415.010716 437.594455 
L 415.230348 305.84717 
L 415.44998 433.088277 
L 415.669613 444.103649 
L 415.889245 407.836427 
L 416.108877 463.503928 
L 416.328509 457.013418 
L 416.548142 496.253743 
L 416.987406 426.301424 
L 417.207039 418.441293 
L 417.426671 456.583857 
L 417.646303 344.794634 
L 417.865935 563.018588 
L 418.085568 373.502854 
L 418.3052 489.466404 
L 418.524832 449.450657 
L 418.744465 528.378909 
L 418.964097 487.161319 
L 419.183729 404.229933 
L 419.403361 422.361292 
L 419.622994 498.884588 
L 419.842626 470.1773 
L 420.062258 396.699117 
L 420.281891 426.207481 
L 420.501523 424.034505 
L 420.721155 419.958371 
L 420.940787 396.248005 
L 421.16042 466.088477 
L 421.380052 443.404359 
L 421.599684 468.396017 
L 422.038949 447.15632 
L 422.258581 388.3531 
L 422.478213 482.467519 
L 422.697846 382.88224 
L 423.13711 477.139914 
L 423.356743 301.739379 
L 423.576375 450.669548 
L 424.015639 435.16192 
L 424.235272 433.795497 
L 424.454904 431.074347 
L 424.674536 451.144655 
L 424.894169 564.716074 
L 425.113801 350.055638 
L 425.333433 434.049955 
L 425.553065 462.013308 
L 425.772698 470.964405 
L 425.99233 419.957538 
L 426.211962 474.0277 
L 426.431594 369.797141 
L 426.651227 515.087922 
L 426.870859 516.120629 
L 427.090491 384.182849 
L 427.529756 546.620937 
L 427.96902 428.277927 
L 428.188653 467.169348 
L 428.408285 305.994832 
L 428.627917 341.780597 
L 428.84755 426.597344 
L 429.067182 438.196636 
L 429.286814 508.826978 
L 429.506446 191.398513 
L 429.726079 448.045736 
L 429.945711 418.858646 
L 430.384976 542.197611 
L 430.82424 378.323239 
L 431.043872 455.436976 
L 431.263505 476.09186 
L 431.483137 459.119332 
L 431.922402 351.342058 
L 432.142034 403.413975 
L 432.361666 326.436939 
L 432.581298 460.918838 
L 432.800931 379.72687 
L 433.020563 415.588095 
L 433.240195 274.282552 
L 433.459828 476.813993 
L 433.67946 430.8767 
L 433.899092 450.025967 
L 434.118724 501.840526 
L 434.338357 482.589272 
L 434.557989 366.158075 
L 434.997254 479.052431 
L 435.216886 481.545054 
L 435.436518 417.669902 
L 435.65615 466.364828 
L 435.875783 365.641551 
L 436.095415 504.029858 
L 436.315047 392.904605 
L 436.53468 376.773319 
L 436.754312 446.717813 
L 436.973944 425.652759 
L 437.413209 496.466324 
L 437.632841 490.274825 
L 437.852473 380.993472 
L 438.291738 462.714602 
L 438.51137 372.805518 
L 438.731002 477.875508 
L 438.950635 402.73995 
L 439.170267 442.328269 
L 439.389899 328.378162 
L 439.609532 335.664408 
L 439.829164 475.606046 
L 440.048796 477.135832 
L 440.268428 480.295593 
L 440.488061 468.789978 
L 440.707693 492.409837 
L 440.927325 499.652503 
L 441.36659 397.881286 
L 441.805854 408.090437 
L 442.025487 513.294037 
L 442.245119 418.488479 
L 442.464751 547.632521 
L 442.684383 429.720962 
L 442.904016 561.6157 
L 443.123648 367.890286 
L 443.34328 385.593084 
L 443.562913 385.898026 
L 443.782545 434.203011 
L 444.002177 431.929565 
L 444.221809 361.931901 
L 444.661074 474.325527 
L 444.880706 474.712989 
L 445.319971 389.300997 
L 445.539603 534.989812 
L 445.759235 536.528526 
L 445.978868 410.400638 
L 446.1985 454.463447 
L 446.418132 465.032583 
L 446.637765 394.018106 
L 446.857397 269.249705 
L 447.296661 479.206653 
L 447.516294 393.046891 
L 447.735926 429.456758 
L 447.955558 485.265825 
L 448.175191 419.926856 
L 448.614455 429.122933 
L 448.834087 406.933008 
L 449.05372 469.605215 
L 449.273352 346.924652 
L 449.492984 385.446906 
L 449.712617 475.223834 
L 449.932249 242.239486 
L 450.151881 476.700899 
L 450.371513 489.664992 
L 450.591146 400.083522 
L 450.810778 491.150026 
L 451.03041 372.378714 
L 451.469675 416.318746 
L 451.689307 403.150356 
L 451.908939 376.277325 
L 452.128572 420.653854 
L 452.348204 487.977443 
L 452.567836 399.247561 
L 452.787469 388.334132 
L 453.007101 478.936343 
L 453.226733 498.931791 
L 453.446365 353.356006 
L 453.665998 337.74199 
L 453.88563 461.427976 
L 454.105262 494.525571 
L 454.324895 497.42767 
L 454.544527 425.903955 
L 454.764159 437.917003 
L 454.983791 357.859645 
L 455.423056 406.409718 
L 455.642688 366.03344 
L 455.862321 480.889003 
L 456.081953 457.615856 
L 456.301585 408.030398 
L 456.521217 481.095758 
L 456.74085 363.637033 
L 456.960482 483.774205 
L 457.180114 496.566378 
L 457.399746 470.466657 
L 457.619379 430.599699 
L 457.839011 411.816751 
L 458.058643 329.686077 
L 458.278276 528.386278 
L 458.497908 490.137669 
L 458.71754 361.895976 
L 458.937172 425.292996 
L 459.156805 527.092189 
L 459.376437 404.98656 
L 459.815702 521.863794 
L 460.035334 509.568397 
L 460.254966 504.95868 
L 460.474598 383.585093 
L 460.694231 456.399881 
L 460.913863 423.256106 
L 461.133495 497.413964 
L 461.353128 485.091416 
L 461.57276 381.847585 
L 461.792392 517.930845 
L 462.012024 424.638441 
L 462.231657 418.636669 
L 462.451289 440.221662 
L 462.670921 382.70242 
L 462.890554 366.253717 
L 463.110186 468.690424 
L 463.329818 368.933864 
L 463.54945 472.38409 
L 463.769083 487.166769 
L 463.988715 526.791739 
L 464.208347 327.432522 
L 464.42798 493.108688 
L 464.647612 452.746928 
L 464.867244 448.72984 
L 465.086876 478.604366 
L 465.526141 377.138923 
L 465.745773 363.173714 
L 465.965406 317.82477 
L 466.185038 432.093888 
L 466.40467 444.64639 
L 466.624302 325.879779 
L 466.843935 342.667487 
L 467.063567 257.423496 
L 467.283199 440.438103 
L 467.502832 406.697644 
L 467.722464 430.647564 
L 467.942096 429.909191 
L 468.161728 440.598646 
L 468.381361 389.290681 
L 468.600993 466.516301 
L 468.820625 394.387867 
L 469.040258 408.096205 
L 469.25989 310.66306 
L 469.479522 480.483428 
L 469.918787 370.100042 
L 470.138419 450.846982 
L 470.358051 477.249027 
L 470.577684 392.631366 
L 470.797316 412.432213 
L 471.016948 447.454297 
L 471.23658 273.81044 
L 471.456213 467.427312 
L 471.675845 404.827523 
L 471.895477 441.01513 
L 472.11511 329.740899 
L 472.334742 448.705876 
L 472.774006 415.37037 
L 472.993639 480.808041 
L 473.213271 352.651294 
L 473.432903 380.726837 
L 473.652535 489.817502 
L 473.872168 425.410478 
L 474.0918 465.381812 
L 474.311432 453.351712 
L 474.531065 393.64998 
L 474.750697 451.666786 
L 474.970329 470.769707 
L 475.189961 499.797588 
L 475.409594 390.014598 
L 475.629226 456.418315 
L 475.848858 448.822667 
L 476.068491 475.346572 
L 476.288123 405.030838 
L 476.727387 494.625565 
L 476.94702 520.281111 
L 477.166652 381.481309 
L 477.605917 448.868335 
L 478.045181 285.40769 
L 478.264813 362.530309 
L 478.484446 384.156484 
L 478.704078 383.498388 
L 478.92371 408.661425 
L 479.362975 504.388416 
L 479.582607 331.860931 
L 480.021872 449.126573 
L 480.241504 374.192466 
L 480.461136 385.803874 
L 480.680769 486.681417 
L 480.900401 388.749969 
L 481.120033 380.510356 
L 481.339665 490.89872 
L 481.559298 356.285553 
L 481.77893 299.338664 
L 482.218195 426.812605 
L 482.437827 434.185605 
L 482.877091 551.278063 
L 483.096724 470.745367 
L 483.316356 451.877388 
L 483.535988 530.324112 
L 483.755621 381.042405 
L 483.975253 453.473177 
L 484.194885 479.126489 
L 484.414517 439.254118 
L 484.63415 337.847276 
L 484.853782 467.103479 
L 485.073414 360.051118 
L 485.293047 448.060092 
L 485.512679 479.83762 
L 485.951943 411.023222 
L 486.171576 471.970259 
L 486.61084 286.637306 
L 486.830473 406.661059 
L 487.050105 358.246344 
L 487.269737 358.32991 
L 487.489369 389.862032 
L 487.709002 492.380652 
L 487.928634 230.645077 
L 488.148266 516.184717 
L 488.587531 303.440943 
L 488.807163 331.738234 
L 489.026795 340.282273 
L 489.246428 370.475074 
L 489.46606 428.87269 
L 489.905324 405.840893 
L 490.124957 421.917426 
L 490.344589 386.082224 
L 490.564221 428.948145 
L 490.783854 408.442816 
L 491.003486 455.397901 
L 491.223118 435.953445 
L 491.44275 457.555667 
L 491.662383 522.172178 
L 491.882015 490.999175 
L 492.101647 403.181673 
L 492.32128 399.71033 
L 492.540912 496.20385 
L 492.760544 467.931793 
L 492.980176 503.603659 
L 493.199809 492.417365 
L 493.419441 442.043847 
L 493.639073 446.886432 
L 493.858706 327.992585 
L 494.078338 464.185168 
L 494.29797 456.713603 
L 494.517602 425.988019 
L 494.737235 490.305156 
L 494.956867 345.90776 
L 495.176499 332.699637 
L 495.396132 392.813259 
L 495.615764 406.483316 
L 495.835396 488.650582 
L 496.055028 131.763818 
L 496.274661 426.642677 
L 496.494293 474.196765 
L 496.713925 312.697539 
L 497.15319 480.168491 
L 497.372822 427.967723 
L 497.592454 435.765568 
L 497.812087 491.333232 
L 498.031719 414.710093 
L 498.251351 273.106177 
L 498.470984 462.683141 
L 498.690616 490.35576 
L 499.349513 402.380252 
L 499.569145 412.677129 
L 499.788777 461.987173 
L 500.00841 403.078911 
L 500.228042 499.106847 
L 500.447674 457.415244 
L 500.886939 299.548654 
L 501.106571 423.848274 
L 501.326203 401.179895 
L 501.545836 286.68764 
L 501.765468 430.201417 
L 501.9851 422.584212 
L 502.204732 318.514018 
L 502.424365 425.239244 
L 502.643997 428.186626 
L 502.863629 451.886014 
L 503.083262 358.986791 
L 503.302894 366.453846 
L 503.522526 532.337027 
L 503.742158 397.124416 
L 503.961791 454.226432 
L 504.181423 338.45909 
L 504.401055 406.635661 
L 504.620687 397.680936 
L 505.059952 498.290918 
L 505.279584 453.487632 
L 505.499217 449.831544 
L 505.718849 531.833118 
L 506.377746 404.617064 
L 506.597378 420.770552 
L 506.81701 466.200818 
L 507.036643 260.447544 
L 507.256275 486.430445 
L 507.475907 499.922452 
L 507.915172 400.760199 
L 508.574069 518.45243 
L 508.793701 515.910637 
L 509.013333 418.731262 
L 509.232965 255.408511 
L 509.452598 505.766228 
L 509.67223 380.629298 
L 509.891862 470.78302 
L 510.111495 346.580597 
L 510.331127 449.039513 
L 510.550759 352.127675 
L 510.770391 466.57413 
L 510.990024 468.790407 
L 511.209656 416.634114 
L 511.429288 453.006286 
L 511.648921 322.555203 
L 511.868553 333.431756 
L 512.088185 449.501813 
L 512.307817 462.652898 
L 512.747082 372.753933 
L 512.966714 576.350303 
L 513.405979 356.878989 
L 513.625611 410.258196 
L 513.845243 421.372003 
L 514.064876 389.780381 
L 514.284508 517.453357 
L 514.50414 500.248211 
L 514.723773 417.362945 
L 515.163037 543.576051 
L 515.382669 385.613089 
L 515.602302 423.351766 
L 515.821934 396.089506 
L 516.041566 513.558054 
L 516.261199 355.140555 
L 516.480831 439.994513 
L 516.700463 459.761204 
L 516.920095 512.042188 
L 517.139728 392.594967 
L 517.35936 339.995321 
L 517.798625 470.550256 
L 518.018257 199.715228 
L 518.237889 374.684114 
L 518.457521 442.917076 
L 518.896786 455.648121 
L 519.116418 464.674876 
L 519.33605 523.813074 
L 519.555683 454.405121 
L 519.775315 285.443899 
L 519.994947 475.726018 
L 520.21458 413.757692 
L 520.434212 436.242354 
L 520.653844 375.925548 
L 520.873476 496.484278 
L 521.093109 510.274212 
L 521.312741 416.832796 
L 521.532373 229.6444 
L 521.752006 428.606002 
L 521.971638 280.951774 
L 522.19127 526.589285 
L 522.410902 316.56506 
L 522.850167 455.889244 
L 523.069799 507.949152 
L 523.289432 415.808172 
L 523.509064 510.372053 
L 523.728696 422.796188 
L 523.948328 437.654294 
L 524.167961 414.661954 
L 524.387593 461.185909 
L 524.607225 541.294677 
L 524.826858 384.948831 
L 525.04649 384.700161 
L 525.266122 341.520164 
L 525.485754 486.953788 
L 525.705387 422.20077 
L 525.925019 469.943278 
L 526.364284 351.341862 
L 526.583916 353.974615 
L 526.803548 285.102244 
L 527.02318 344.551484 
L 527.242813 476.348893 
L 527.462445 456.615 
L 527.682077 463.976396 
L 527.90171 461.859429 
L 528.121342 408.994052 
L 528.340974 425.889838 
L 528.560606 472.032681 
L 528.780239 463.378583 
L 528.999871 516.556407 
L 529.219503 330.737041 
L 529.439136 454.180119 
L 529.658768 484.315891 
L 529.8784 496.426928 
L 530.317665 384.528973 
L 530.537297 405.132202 
L 530.756929 465.906874 
L 530.976562 489.484148 
L 531.196194 480.949358 
L 531.415826 499.496449 
L 531.855091 313.213604 
L 532.074723 409.19604 
L 532.294355 415.348874 
L 532.513988 390.894546 
L 532.953252 493.893457 
L 533.172884 385.417429 
L 533.392517 335.930025 
L 533.612149 504.759247 
L 533.831781 385.893762 
L 534.051413 376.657617 
L 534.271046 429.462723 
L 534.490678 425.661697 
L 534.71031 407.411026 
L 534.929943 499.454051 
L 535.149575 477.517523 
L 535.369207 402.057062 
L 535.588839 379.522887 
L 535.808472 527.821435 
L 536.028104 497.251021 
L 536.247736 523.952688 
L 536.467369 465.624379 
L 536.687001 516.766397 
L 536.906633 478.910382 
L 537.126265 419.341493 
L 537.345898 486.75772 
L 537.56553 338.795095 
L 537.785162 488.407663 
L 538.004795 484.088188 
L 538.224427 417.082398 
L 538.444059 411.020019 
L 538.663691 480.82596 
L 538.883324 375.007478 
L 539.102956 464.067663 
L 539.542221 381.140502 
L 539.761853 252.924761 
L 539.981485 391.165603 
L 540.201117 396.794387 
L 540.42075 538.254735 
L 540.640382 479.185529 
L 540.860014 485.209172 
L 541.079647 402.167745 
L 541.299279 530.966938 
L 541.518911 469.03144 
L 541.738543 372.683547 
L 542.177808 512.248916 
L 542.39744 328.403495 
L 542.617073 540.849726 
L 543.056337 388.289867 
L 543.275969 460.84327 
L 543.495602 385.881628 
L 543.715234 444.140468 
L 543.934866 453.460772 
L 544.154499 318.740148 
L 544.374131 529.092838 
L 544.593763 448.805687 
L 544.813395 439.272286 
L 545.25266 517.905909 
L 545.472292 215.737936 
L 545.691925 410.667463 
L 545.911557 378.933158 
L 545.911557 378.933158 
" style="fill:none;stroke:#96c69a;stroke-linecap:round;stroke-width:3;"/>
   </g>
   <g id="line2d_2"/>
   <g id="patch_3">
    <path d="M 84.914375 602.94 
L 84.914375 109.326857 
" style="fill:none;stroke:#262626;stroke-linecap:square;stroke-linejoin:miter;stroke-width:2.5;"/>
   </g>
   <g id="patch_4">
    <path d="M 84.914375 602.94 
L 567.863804 602.94 
" style="fill:none;stroke:#262626;stroke-linecap:square;stroke-linejoin:miter;stroke-width:2.5;"/>
   </g>
   <g id="legend_1">
    <g id="patch_5">
     <path d="M 507.990366 597.94 
L 560.863804 597.94 
Q 562.863804 597.94 562.863804 595.94 
L 562.863804 554.034375 
Q 562.863804 552.034375 560.863804 552.034375 
L 507.990366 552.034375 
Q 505.990366 552.034375 505.990366 554.034375 
L 505.990366 595.94 
Q 505.990366 597.94 507.990366 597.94 
z
" style="fill:#ffffff;opacity:0.8;stroke:#cccccc;stroke-linejoin:miter;stroke-width:2;"/>
    </g>
    <g id="text_17">
     <!-- $n_\tau$ -->
     <g style="fill:#262626;" transform="translate(521.347085 574.270625)scale(0.24 -0.24)">
      <defs>
       <path d="M 3566 2113 
L 3156 0 
L 2578 0 
L 2988 2091 
Q 3016 2238 3031 2350 
Q 3047 2463 3047 2528 
Q 3047 2791 2881 2937 
Q 2716 3084 2419 3084 
Q 1956 3084 1622 2776 
Q 1288 2469 1184 1941 
L 800 0 
L 225 0 
L 903 3500 
L 1478 3500 
L 1363 2950 
Q 1603 3253 1940 3418 
Q 2278 3584 2650 3584 
Q 3113 3584 3367 3334 
Q 3622 3084 3622 2631 
Q 3622 2519 3608 2391 
Q 3594 2263 3566 2113 
z
" id="DejaVuSans-Oblique-6e" transform="scale(0.015625)"/>
       <path d="M 2103 638 
Q 2188 488 2525 488 
L 2800 488 
L 2706 0 
L 2363 0 
Q 1800 0 1600 300 
Q 1403 606 1534 1269 
L 1856 2925 
L 541 2925 
L 653 3500 
L 3881 3500 
L 3769 2925 
L 2444 2925 
L 2113 1234 
Q 2025 781 2103 638 
z
" id="DejaVuSans-Oblique-3c4" transform="scale(0.015625)"/>
      </defs>
      <use xlink:href="#DejaVuSans-Oblique-6e"/>
      <use transform="translate(63.378906 -16.40625)scale(0.7)" xlink:href="#DejaVuSans-Oblique-3c4"/>
     </g>
    </g>
    <g id="line2d_3">
     <path d="M 509.990366 588.360312 
L 529.990366 588.360312 
" style="fill:none;stroke:#96c69a;stroke-linecap:round;stroke-width:3;"/>
    </g>
    <g id="line2d_4"/>
    <g id="text_18">
     <!-- 100 -->
     <g style="fill:#262626;" transform="translate(537.990366 591.860312)scale(0.1 -0.1)">
      <defs>
       <path d="M 750 831 
L 1813 831 
L 1813 3847 
L 722 3622 
L 722 4441 
L 1806 4666 
L 2950 4666 
L 2950 831 
L 4013 831 
L 4013 0 
L 750 0 
L 750 831 
z
" id="DejaVuSans-Bold-31" transform="scale(0.015625)"/>
       <path d="M 2944 2338 
Q 2944 3213 2780 3570 
Q 2616 3928 2228 3928 
Q 1841 3928 1675 3570 
Q 1509 3213 1509 2338 
Q 1509 1453 1675 1090 
Q 1841 728 2228 728 
Q 2613 728 2778 1090 
Q 2944 1453 2944 2338 
z
M 4147 2328 
Q 4147 1169 3647 539 
Q 3147 -91 2228 -91 
Q 1306 -91 806 539 
Q 306 1169 306 2328 
Q 306 3491 806 4120 
Q 1306 4750 2228 4750 
Q 3147 4750 3647 4120 
Q 4147 3491 4147 2328 
z
" id="DejaVuSans-Bold-30" transform="scale(0.015625)"/>
      </defs>
      <use xlink:href="#DejaVuSans-Bold-31"/>
      <use x="69.580078" xlink:href="#DejaVuSans-Bold-30"/>
      <use x="139.160156" xlink:href="#DejaVuSans-Bold-30"/>
     </g>
    </g>
   </g>
  </g>
  <g id="axes_2">
   <g id="patch_6">
    <path d="M 84.914375 92.305714 
L 567.863804 92.305714 
L 567.863804 7.2 
L 84.914375 7.2 
z
" style="fill:none;"/>
   </g>
   <g id="matplotlib.axis_3">
    <g id="xtick_7"/>
    <g id="xtick_8"/>
    <g id="xtick_9"/>
    <g id="xtick_10"/>
    <g id="xtick_11"/>
    <g id="xtick_12"/>
   </g>
   <g id="matplotlib.axis_4">
    <g id="ytick_9">
     <g id="text_19">
      <!-- 0 -->
      <g style="fill:#262626;" transform="translate(55.416875 100.663996)scale(0.22 -0.22)">
       <use xlink:href="#DejaVuSans-30"/>
      </g>
     </g>
    </g>
    <g id="ytick_10">
     <g id="text_20">
      <!-- 100 -->
      <g style="fill:#262626;" transform="translate(27.421875 48.032138)scale(0.22 -0.22)">
       <use xlink:href="#DejaVuSans-31"/>
       <use x="63.623047" xlink:href="#DejaVuSans-30"/>
       <use x="127.246094" xlink:href="#DejaVuSans-30"/>
      </g>
     </g>
    </g>
   </g>
   <g id="patch_7">
    <path clip-path="url(#p2da934c110)" d="M 106.866622 92.305714 
L 140.639309 92.305714 
L 140.639309 11.252653 
L 106.866622 11.252653 
z
" style="fill:#96c69a;fill-opacity:0.5;stroke:#ffffff;stroke-linejoin:miter;stroke-width:2;"/>
   </g>
   <g id="patch_8">
    <path clip-path="url(#p2da934c110)" d="M 140.639309 92.305714 
L 174.411996 92.305714 
L 174.411996 11.252653 
L 140.639309 11.252653 
z
" style="fill:#96c69a;fill-opacity:0.5;stroke:#ffffff;stroke-linejoin:miter;stroke-width:2;"/>
   </g>
   <g id="patch_9">
    <path clip-path="url(#p2da934c110)" d="M 174.411996 92.305714 
L 208.184684 92.305714 
L 208.184684 11.252653 
L 174.411996 11.252653 
z
" style="fill:#96c69a;fill-opacity:0.5;stroke:#ffffff;stroke-linejoin:miter;stroke-width:2;"/>
   </g>
   <g id="patch_10">
    <path clip-path="url(#p2da934c110)" d="M 208.184684 92.305714 
L 241.957371 92.305714 
L 241.957371 11.252653 
L 208.184684 11.252653 
z
" style="fill:#96c69a;fill-opacity:0.5;stroke:#ffffff;stroke-linejoin:miter;stroke-width:2;"/>
   </g>
   <g id="patch_11">
    <path clip-path="url(#p2da934c110)" d="M 241.957371 92.305714 
L 275.730058 92.305714 
L 275.730058 11.778972 
L 241.957371 11.778972 
z
" style="fill:#96c69a;fill-opacity:0.5;stroke:#ffffff;stroke-linejoin:miter;stroke-width:2;"/>
   </g>
   <g id="patch_12">
    <path clip-path="url(#p2da934c110)" d="M 275.730058 92.305714 
L 309.502746 92.305714 
L 309.502746 11.252653 
L 275.730058 11.252653 
z
" style="fill:#96c69a;fill-opacity:0.5;stroke:#ffffff;stroke-linejoin:miter;stroke-width:2;"/>
   </g>
   <g id="patch_13">
    <path clip-path="url(#p2da934c110)" d="M 309.502746 92.305714 
L 343.275433 92.305714 
L 343.275433 11.252653 
L 309.502746 11.252653 
z
" style="fill:#96c69a;fill-opacity:0.5;stroke:#ffffff;stroke-linejoin:miter;stroke-width:2;"/>
   </g>
   <g id="patch_14">
    <path clip-path="url(#p2da934c110)" d="M 343.275433 92.305714 
L 377.04812 92.305714 
L 377.04812 11.252653 
L 343.275433 11.252653 
z
" style="fill:#96c69a;fill-opacity:0.5;stroke:#ffffff;stroke-linejoin:miter;stroke-width:2;"/>
   </g>
   <g id="patch_15">
    <path clip-path="url(#p2da934c110)" d="M 377.04812 92.305714 
L 410.820808 92.305714 
L 410.820808 11.778972 
L 377.04812 11.778972 
z
" style="fill:#96c69a;fill-opacity:0.5;stroke:#ffffff;stroke-linejoin:miter;stroke-width:2;"/>
   </g>
   <g id="patch_16">
    <path clip-path="url(#p2da934c110)" d="M 410.820808 92.305714 
L 444.593495 92.305714 
L 444.593495 11.252653 
L 410.820808 11.252653 
z
" style="fill:#96c69a;fill-opacity:0.5;stroke:#ffffff;stroke-linejoin:miter;stroke-width:2;"/>
   </g>
   <g id="patch_17">
    <path clip-path="url(#p2da934c110)" d="M 444.593495 92.305714 
L 478.366182 92.305714 
L 478.366182 11.252653 
L 444.593495 11.252653 
z
" style="fill:#96c69a;fill-opacity:0.5;stroke:#ffffff;stroke-linejoin:miter;stroke-width:2;"/>
   </g>
   <g id="patch_18">
    <path clip-path="url(#p2da934c110)" d="M 478.366182 92.305714 
L 512.13887 92.305714 
L 512.13887 11.252653 
L 478.366182 11.252653 
z
" style="fill:#96c69a;fill-opacity:0.5;stroke:#ffffff;stroke-linejoin:miter;stroke-width:2;"/>
   </g>
   <g id="patch_19">
    <path clip-path="url(#p2da934c110)" d="M 512.13887 92.305714 
L 545.911557 92.305714 
L 545.911557 11.252653 
L 512.13887 11.252653 
z
" style="fill:#96c69a;fill-opacity:0.5;stroke:#ffffff;stroke-linejoin:miter;stroke-width:2;"/>
   </g>
   <g id="patch_20">
    <path d="M 84.914375 92.305714 
L 84.914375 7.2 
" style="fill:none;stroke:#262626;stroke-linecap:square;stroke-linejoin:miter;stroke-width:2.5;"/>
   </g>
   <g id="patch_21">
    <path d="M 84.914375 92.305714 
L 567.863804 92.305714 
" style="fill:none;stroke:#262626;stroke-linecap:square;stroke-linejoin:miter;stroke-width:2.5;"/>
   </g>
  </g>
  <g id="axes_3">
   <g id="patch_22">
    <path d="M 584.517232 602.94 
L 667.784375 602.94 
L 667.784375 109.326857 
L 584.517232 109.326857 
z
" style="fill:none;"/>
   </g>
   <g id="matplotlib.axis_5">
    <g id="xtick_13">
     <g id="text_21">
      <!-- 0 -->
      <g style="fill:#262626;" transform="translate(577.518482 635.156562)scale(0.22 -0.22)">
       <use xlink:href="#DejaVuSans-30"/>
      </g>
     </g>
    </g>
    <g id="xtick_14">
     <g id="text_22">
      <!-- 100 -->
      <g style="fill:#262626;" transform="translate(609.896445 635.156562)scale(0.22 -0.22)">
       <use xlink:href="#DejaVuSans-31"/>
       <use x="63.623047" xlink:href="#DejaVuSans-30"/>
       <use x="127.246094" xlink:href="#DejaVuSans-30"/>
      </g>
     </g>
    </g>
   </g>
   <g id="matplotlib.axis_6">
    <g id="ytick_11"/>
    <g id="ytick_12"/>
    <g id="ytick_13"/>
    <g id="ytick_14"/>
    <g id="ytick_15"/>
    <g id="ytick_16"/>
    <g id="ytick_17"/>
    <g id="ytick_18"/>
   </g>
   <g id="patch_23">
    <path clip-path="url(#padb876733b)" d="M 584.517232 580.503039 
L 586.836005 580.503039 
L 586.836005 567.304827 
L 584.517232 567.304827 
z
" style="fill:#96c69a;fill-opacity:0.5;stroke:#ffffff;stroke-linejoin:miter;stroke-width:1.319821;"/>
   </g>
   <g id="patch_24">
    <path clip-path="url(#padb876733b)" d="M 584.517232 567.304827 
L 589.154778 567.304827 
L 589.154778 554.106614 
L 584.517232 554.106614 
z
" style="fill:#96c69a;fill-opacity:0.5;stroke:#ffffff;stroke-linejoin:miter;stroke-width:1.319821;"/>
   </g>
   <g id="patch_25">
    <path clip-path="url(#padb876733b)" d="M 584.517232 554.106614 
L 596.111098 554.106614 
L 596.111098 540.908402 
L 584.517232 540.908402 
z
" style="fill:#96c69a;fill-opacity:0.5;stroke:#ffffff;stroke-linejoin:miter;stroke-width:1.319821;"/>
   </g>
   <g id="patch_26">
    <path clip-path="url(#padb876733b)" d="M 584.517232 540.908402 
L 603.994926 540.908402 
L 603.994926 527.710189 
L 584.517232 527.710189 
z
" style="fill:#96c69a;fill-opacity:0.5;stroke:#ffffff;stroke-linejoin:miter;stroke-width:1.319821;"/>
   </g>
   <g id="patch_27">
    <path clip-path="url(#padb876733b)" d="M 584.517232 527.710189 
L 613.733773 527.710189 
L 613.733773 514.511977 
L 584.517232 514.511977 
z
" style="fill:#96c69a;fill-opacity:0.5;stroke:#ffffff;stroke-linejoin:miter;stroke-width:1.319821;"/>
   </g>
   <g id="patch_28">
    <path clip-path="url(#padb876733b)" d="M 584.517232 514.511977 
L 620.226338 514.511977 
L 620.226338 501.313765 
L 584.517232 501.313765 
z
" style="fill:#96c69a;fill-opacity:0.5;stroke:#ffffff;stroke-linejoin:miter;stroke-width:1.319821;"/>
   </g>
   <g id="patch_29">
    <path clip-path="url(#padb876733b)" d="M 584.517232 501.313765 
L 638.776523 501.313765 
L 638.776523 488.115552 
L 584.517232 488.115552 
z
" style="fill:#96c69a;fill-opacity:0.5;stroke:#ffffff;stroke-linejoin:miter;stroke-width:1.319821;"/>
   </g>
   <g id="patch_30">
    <path clip-path="url(#padb876733b)" d="M 584.517232 488.115552 
L 654.080426 488.115552 
L 654.080426 474.91734 
L 584.517232 474.91734 
z
" style="fill:#96c69a;fill-opacity:0.5;stroke:#ffffff;stroke-linejoin:miter;stroke-width:1.319821;"/>
   </g>
   <g id="patch_31">
    <path clip-path="url(#padb876733b)" d="M 584.517232 474.91734 
L 663.819273 474.91734 
L 663.819273 461.719128 
L 584.517232 461.719128 
z
" style="fill:#96c69a;fill-opacity:0.5;stroke:#ffffff;stroke-linejoin:miter;stroke-width:1.319821;"/>
   </g>
   <g id="patch_32">
    <path clip-path="url(#padb876733b)" d="M 584.517232 461.719128 
L 657.326708 461.719128 
L 657.326708 448.520915 
L 584.517232 448.520915 
z
" style="fill:#96c69a;fill-opacity:0.5;stroke:#ffffff;stroke-linejoin:miter;stroke-width:1.319821;"/>
   </g>
   <g id="patch_33">
    <path clip-path="url(#padb876733b)" d="M 584.517232 448.520915 
L 660.572991 448.520915 
L 660.572991 435.322703 
L 584.517232 435.322703 
z
" style="fill:#96c69a;fill-opacity:0.5;stroke:#ffffff;stroke-linejoin:miter;stroke-width:1.319821;"/>
   </g>
   <g id="patch_34">
    <path clip-path="url(#padb876733b)" d="M 584.517232 435.322703 
L 662.891764 435.322703 
L 662.891764 422.12449 
L 584.517232 422.12449 
z
" style="fill:#96c69a;fill-opacity:0.5;stroke:#ffffff;stroke-linejoin:miter;stroke-width:1.319821;"/>
   </g>
   <g id="patch_35">
    <path clip-path="url(#padb876733b)" d="M 584.517232 422.12449 
L 651.297898 422.12449 
L 651.297898 408.926278 
L 584.517232 408.926278 
z
" style="fill:#96c69a;fill-opacity:0.5;stroke:#ffffff;stroke-linejoin:miter;stroke-width:1.319821;"/>
   </g>
   <g id="patch_36">
    <path clip-path="url(#padb876733b)" d="M 584.517232 408.926278 
L 656.399199 408.926278 
L 656.399199 395.728066 
L 584.517232 395.728066 
z
" style="fill:#96c69a;fill-opacity:0.5;stroke:#ffffff;stroke-linejoin:miter;stroke-width:1.319821;"/>
   </g>
   <g id="patch_37">
    <path clip-path="url(#padb876733b)" d="M 584.517232 395.728066 
L 641.559051 395.728066 
L 641.559051 382.529853 
L 584.517232 382.529853 
z
" style="fill:#96c69a;fill-opacity:0.5;stroke:#ffffff;stroke-linejoin:miter;stroke-width:1.319821;"/>
   </g>
   <g id="patch_38">
    <path clip-path="url(#padb876733b)" d="M 584.517232 382.529853 
L 635.993995 382.529853 
L 635.993995 369.331641 
L 584.517232 369.331641 
z
" style="fill:#96c69a;fill-opacity:0.5;stroke:#ffffff;stroke-linejoin:miter;stroke-width:1.319821;"/>
   </g>
   <g id="patch_39">
    <path clip-path="url(#padb876733b)" d="M 584.517232 369.331641 
L 615.588792 369.331641 
L 615.588792 356.133429 
L 584.517232 356.133429 
z
" style="fill:#96c69a;fill-opacity:0.5;stroke:#ffffff;stroke-linejoin:miter;stroke-width:1.319821;"/>
   </g>
   <g id="patch_40">
    <path clip-path="url(#padb876733b)" d="M 584.517232 356.133429 
L 606.777454 356.133429 
L 606.777454 342.935216 
L 584.517232 342.935216 
z
" style="fill:#96c69a;fill-opacity:0.5;stroke:#ffffff;stroke-linejoin:miter;stroke-width:1.319821;"/>
   </g>
   <g id="patch_41">
    <path clip-path="url(#padb876733b)" d="M 584.517232 342.935216 
L 603.067417 342.935216 
L 603.067417 329.737004 
L 584.517232 329.737004 
z
" style="fill:#96c69a;fill-opacity:0.5;stroke:#ffffff;stroke-linejoin:miter;stroke-width:1.319821;"/>
   </g>
   <g id="patch_42">
    <path clip-path="url(#padb876733b)" d="M 584.517232 329.737004 
L 606.3137 329.737004 
L 606.3137 316.538791 
L 584.517232 316.538791 
z
" style="fill:#96c69a;fill-opacity:0.5;stroke:#ffffff;stroke-linejoin:miter;stroke-width:1.319821;"/>
   </g>
   <g id="patch_43">
    <path clip-path="url(#padb876733b)" d="M 584.517232 316.538791 
L 602.139908 316.538791 
L 602.139908 303.340579 
L 584.517232 303.340579 
z
" style="fill:#96c69a;fill-opacity:0.5;stroke:#ffffff;stroke-linejoin:miter;stroke-width:1.319821;"/>
   </g>
   <g id="patch_44">
    <path clip-path="url(#padb876733b)" d="M 584.517232 303.340579 
L 591.473552 303.340579 
L 591.473552 290.142367 
L 584.517232 290.142367 
z
" style="fill:#96c69a;fill-opacity:0.5;stroke:#ffffff;stroke-linejoin:miter;stroke-width:1.319821;"/>
   </g>
   <g id="patch_45">
    <path clip-path="url(#padb876733b)" d="M 584.517232 290.142367 
L 593.32857 290.142367 
L 593.32857 276.944154 
L 584.517232 276.944154 
z
" style="fill:#96c69a;fill-opacity:0.5;stroke:#ffffff;stroke-linejoin:miter;stroke-width:1.319821;"/>
   </g>
   <g id="patch_46">
    <path clip-path="url(#padb876733b)" d="M 584.517232 276.944154 
L 588.227269 276.944154 
L 588.227269 263.745942 
L 584.517232 263.745942 
z
" style="fill:#96c69a;fill-opacity:0.5;stroke:#ffffff;stroke-linejoin:miter;stroke-width:1.319821;"/>
   </g>
   <g id="patch_47">
    <path clip-path="url(#padb876733b)" d="M 584.517232 263.745942 
L 588.691024 263.745942 
L 588.691024 250.54773 
L 584.517232 250.54773 
z
" style="fill:#96c69a;fill-opacity:0.5;stroke:#ffffff;stroke-linejoin:miter;stroke-width:1.319821;"/>
   </g>
   <g id="patch_48">
    <path clip-path="url(#padb876733b)" d="M 584.517232 250.54773 
L 587.763515 250.54773 
L 587.763515 237.349517 
L 584.517232 237.349517 
z
" style="fill:#96c69a;fill-opacity:0.5;stroke:#ffffff;stroke-linejoin:miter;stroke-width:1.319821;"/>
   </g>
   <g id="patch_49">
    <path clip-path="url(#padb876733b)" d="M 584.517232 237.349517 
L 587.29976 237.349517 
L 587.29976 224.151305 
L 584.517232 224.151305 
z
" style="fill:#96c69a;fill-opacity:0.5;stroke:#ffffff;stroke-linejoin:miter;stroke-width:1.319821;"/>
   </g>
   <g id="patch_50">
    <path clip-path="url(#padb876733b)" d="M 584.517232 224.151305 
L 586.372251 224.151305 
L 586.372251 210.953092 
L 584.517232 210.953092 
z
" style="fill:#96c69a;fill-opacity:0.5;stroke:#ffffff;stroke-linejoin:miter;stroke-width:1.319821;"/>
   </g>
   <g id="patch_51">
    <path clip-path="url(#padb876733b)" d="M 584.517232 210.953092 
L 585.444741 210.953092 
L 585.444741 197.75488 
L 584.517232 197.75488 
z
" style="fill:#96c69a;fill-opacity:0.5;stroke:#ffffff;stroke-linejoin:miter;stroke-width:1.319821;"/>
   </g>
   <g id="patch_52">
    <path clip-path="url(#padb876733b)" d="M 584.517232 197.75488 
L 585.908496 197.75488 
L 585.908496 184.556668 
L 584.517232 184.556668 
z
" style="fill:#96c69a;fill-opacity:0.5;stroke:#ffffff;stroke-linejoin:miter;stroke-width:1.319821;"/>
   </g>
   <g id="patch_53">
    <path clip-path="url(#padb876733b)" d="M 584.517232 184.556668 
L 584.980987 184.556668 
L 584.980987 171.358455 
L 584.517232 171.358455 
z
" style="fill:#96c69a;fill-opacity:0.5;stroke:#ffffff;stroke-linejoin:miter;stroke-width:1.319821;"/>
   </g>
   <g id="patch_54">
    <path clip-path="url(#padb876733b)" d="M 584.517232 171.358455 
L 584.980987 171.358455 
L 584.980987 158.160243 
L 584.517232 158.160243 
z
" style="fill:#96c69a;fill-opacity:0.5;stroke:#ffffff;stroke-linejoin:miter;stroke-width:1.319821;"/>
   </g>
   <g id="patch_55">
    <path clip-path="url(#padb876733b)" d="M 584.517232 158.160243 
L 584.980987 158.160243 
L 584.980987 144.962031 
L 584.517232 144.962031 
z
" style="fill:#96c69a;fill-opacity:0.5;stroke:#ffffff;stroke-linejoin:miter;stroke-width:1.319821;"/>
   </g>
   <g id="patch_56">
    <path clip-path="url(#padb876733b)" d="M 584.517232 144.962031 
L 584.980987 144.962031 
L 584.980987 131.763818 
L 584.517232 131.763818 
z
" style="fill:#96c69a;fill-opacity:0.5;stroke:#ffffff;stroke-linejoin:miter;stroke-width:1.319821;"/>
   </g>
   <g id="patch_57">
    <path d="M 584.517232 602.94 
L 584.517232 109.326857 
" style="fill:none;stroke:#262626;stroke-linecap:square;stroke-linejoin:miter;stroke-width:2.5;"/>
   </g>
   <g id="patch_58">
    <path d="M 584.517232 602.94 
L 667.784375 602.94 
" style="fill:none;stroke:#262626;stroke-linecap:square;stroke-linejoin:miter;stroke-width:2.5;"/>
   </g>
  </g>
 </g>
 <defs>
  <clipPath id="pfaf86fb97a">
   <rect height="493.613143" width="482.949429" x="84.914375" y="109.326857"/>
  </clipPath>
  <clipPath id="p2da934c110">
   <rect height="85.105714" width="482.949429" x="84.914375" y="7.2"/>
  </clipPath>
  <clipPath id="padb876733b">
   <rect height="493.613143" width="83.267143" x="584.517232" y="109.326857"/>
  </clipPath>
 </defs>
</svg>
