<?xml version="1.0" encoding="utf-8" standalone="no"?>
<!DOCTYPE svg PUBLIC "-//W3C//DTD SVG 1.1//EN"
  "http://www.w3.org/Graphics/SVG/1.1/DTD/svg11.dtd">
<svg height="674.159375pt" version="1.1" viewBox="0 0 688.981875 674.159375" width="688.981875pt" xmlns="http://www.w3.org/2000/svg" xmlns:xlink="http://www.w3.org/1999/xlink">
 <metadata>
  <rdf:RDF xmlns:cc="http://creativecommons.org/ns#" xmlns:dc="http://purl.org/dc/elements/1.1/" xmlns:rdf="http://www.w3.org/1999/02/22-rdf-syntax-ns#">
   <cc:Work>
    <dc:type rdf:resource="http://purl.org/dc/dcmitype/StillImage"/>
    <dc:date>2021-07-24T14:57:18.703435</dc:date>
    <dc:format>image/svg+xml</dc:format>
    <dc:creator>
     <cc:Agent>
      <dc:title>Matplotlib v3.4.2, https://matplotlib.org/</dc:title>
     </cc:Agent>
    </dc:creator>
   </cc:Work>
  </rdf:RDF>
 </metadata>
 <defs>
  <style type="text/css">*{stroke-linecap:butt;stroke-linejoin:round;}</style>
 </defs>
 <g id="figure_1">
  <g id="patch_1">
   <path d="M 0 674.159375 
L 688.981875 674.159375 
L 688.981875 0 
L 0 0 
z
" style="fill:#ffffff;"/>
  </g>
  <g id="axes_1">
   <g id="patch_2">
    <path d="M 98.911875 602.94 
L 581.861304 602.94 
L 581.861304 109.326857 
L 98.911875 109.326857 
z
" style="fill:none;"/>
   </g>
   <g id="matplotlib.axis_1">
    <g id="xtick_1">
     <g id="text_1">
      <!-- 0 -->
      <g style="fill:#262626;" transform="translate(113.645739 635.156562)scale(0.22 -0.22)">
       <defs>
        <path d="M 2034 4250 
Q 1547 4250 1301 3770 
Q 1056 3291 1056 2328 
Q 1056 1369 1301 889 
Q 1547 409 2034 409 
Q 2525 409 2770 889 
Q 3016 1369 3016 2328 
Q 3016 3291 2770 3770 
Q 2525 4250 2034 4250 
z
M 2034 4750 
Q 2819 4750 3233 4129 
Q 3647 3509 3647 2328 
Q 3647 1150 3233 529 
Q 2819 -91 2034 -91 
Q 1250 -91 836 529 
Q 422 1150 422 2328 
Q 422 3509 836 4129 
Q 1250 4750 2034 4750 
z
" id="DejaVuSans-30" transform="scale(0.015625)"/>
       </defs>
       <use xlink:href="#DejaVuSans-30"/>
      </g>
     </g>
    </g>
    <g id="xtick_2">
     <g id="text_2">
      <!-- 20000 -->
      <g style="fill:#262626;" transform="translate(173.503653 635.156562)scale(0.22 -0.22)">
       <defs>
        <path d="M 1228 531 
L 3431 531 
L 3431 0 
L 469 0 
L 469 531 
Q 828 903 1448 1529 
Q 2069 2156 2228 2338 
Q 2531 2678 2651 2914 
Q 2772 3150 2772 3378 
Q 2772 3750 2511 3984 
Q 2250 4219 1831 4219 
Q 1534 4219 1204 4116 
Q 875 4013 500 3803 
L 500 4441 
Q 881 4594 1212 4672 
Q 1544 4750 1819 4750 
Q 2544 4750 2975 4387 
Q 3406 4025 3406 3419 
Q 3406 3131 3298 2873 
Q 3191 2616 2906 2266 
Q 2828 2175 2409 1742 
Q 1991 1309 1228 531 
z
" id="DejaVuSans-32" transform="scale(0.015625)"/>
       </defs>
       <use xlink:href="#DejaVuSans-32"/>
       <use x="63.623047" xlink:href="#DejaVuSans-30"/>
       <use x="127.246094" xlink:href="#DejaVuSans-30"/>
       <use x="190.869141" xlink:href="#DejaVuSans-30"/>
       <use x="254.492188" xlink:href="#DejaVuSans-30"/>
      </g>
     </g>
    </g>
    <g id="xtick_3">
     <g id="text_3">
      <!-- 40000 -->
      <g style="fill:#262626;" transform="translate(261.356566 635.156562)scale(0.22 -0.22)">
       <defs>
        <path d="M 2419 4116 
L 825 1625 
L 2419 1625 
L 2419 4116 
z
M 2253 4666 
L 3047 4666 
L 3047 1625 
L 3713 1625 
L 3713 1100 
L 3047 1100 
L 3047 0 
L 2419 0 
L 2419 1100 
L 313 1100 
L 313 1709 
L 2253 4666 
z
" id="DejaVuSans-34" transform="scale(0.015625)"/>
       </defs>
       <use xlink:href="#DejaVuSans-34"/>
       <use x="63.623047" xlink:href="#DejaVuSans-30"/>
       <use x="127.246094" xlink:href="#DejaVuSans-30"/>
       <use x="190.869141" xlink:href="#DejaVuSans-30"/>
       <use x="254.492188" xlink:href="#DejaVuSans-30"/>
      </g>
     </g>
    </g>
    <g id="xtick_4">
     <g id="text_4">
      <!-- 60000 -->
      <g style="fill:#262626;" transform="translate(349.20948 635.156562)scale(0.22 -0.22)">
       <defs>
        <path d="M 2113 2584 
Q 1688 2584 1439 2293 
Q 1191 2003 1191 1497 
Q 1191 994 1439 701 
Q 1688 409 2113 409 
Q 2538 409 2786 701 
Q 3034 994 3034 1497 
Q 3034 2003 2786 2293 
Q 2538 2584 2113 2584 
z
M 3366 4563 
L 3366 3988 
Q 3128 4100 2886 4159 
Q 2644 4219 2406 4219 
Q 1781 4219 1451 3797 
Q 1122 3375 1075 2522 
Q 1259 2794 1537 2939 
Q 1816 3084 2150 3084 
Q 2853 3084 3261 2657 
Q 3669 2231 3669 1497 
Q 3669 778 3244 343 
Q 2819 -91 2113 -91 
Q 1303 -91 875 529 
Q 447 1150 447 2328 
Q 447 3434 972 4092 
Q 1497 4750 2381 4750 
Q 2619 4750 2861 4703 
Q 3103 4656 3366 4563 
z
" id="DejaVuSans-36" transform="scale(0.015625)"/>
       </defs>
       <use xlink:href="#DejaVuSans-36"/>
       <use x="63.623047" xlink:href="#DejaVuSans-30"/>
       <use x="127.246094" xlink:href="#DejaVuSans-30"/>
       <use x="190.869141" xlink:href="#DejaVuSans-30"/>
       <use x="254.492188" xlink:href="#DejaVuSans-30"/>
      </g>
     </g>
    </g>
    <g id="xtick_5">
     <g id="text_5">
      <!-- 80000 -->
      <g style="fill:#262626;" transform="translate(437.062393 635.156562)scale(0.22 -0.22)">
       <defs>
        <path d="M 2034 2216 
Q 1584 2216 1326 1975 
Q 1069 1734 1069 1313 
Q 1069 891 1326 650 
Q 1584 409 2034 409 
Q 2484 409 2743 651 
Q 3003 894 3003 1313 
Q 3003 1734 2745 1975 
Q 2488 2216 2034 2216 
z
M 1403 2484 
Q 997 2584 770 2862 
Q 544 3141 544 3541 
Q 544 4100 942 4425 
Q 1341 4750 2034 4750 
Q 2731 4750 3128 4425 
Q 3525 4100 3525 3541 
Q 3525 3141 3298 2862 
Q 3072 2584 2669 2484 
Q 3125 2378 3379 2068 
Q 3634 1759 3634 1313 
Q 3634 634 3220 271 
Q 2806 -91 2034 -91 
Q 1263 -91 848 271 
Q 434 634 434 1313 
Q 434 1759 690 2068 
Q 947 2378 1403 2484 
z
M 1172 3481 
Q 1172 3119 1398 2916 
Q 1625 2713 2034 2713 
Q 2441 2713 2670 2916 
Q 2900 3119 2900 3481 
Q 2900 3844 2670 4047 
Q 2441 4250 2034 4250 
Q 1625 4250 1398 4047 
Q 1172 3844 1172 3481 
z
" id="DejaVuSans-38" transform="scale(0.015625)"/>
       </defs>
       <use xlink:href="#DejaVuSans-38"/>
       <use x="63.623047" xlink:href="#DejaVuSans-30"/>
       <use x="127.246094" xlink:href="#DejaVuSans-30"/>
       <use x="190.869141" xlink:href="#DejaVuSans-30"/>
       <use x="254.492188" xlink:href="#DejaVuSans-30"/>
      </g>
     </g>
    </g>
    <g id="xtick_6">
     <g id="text_6">
      <!-- 100000 -->
      <g style="fill:#262626;" transform="translate(517.916557 635.156562)scale(0.22 -0.22)">
       <defs>
        <path d="M 794 531 
L 1825 531 
L 1825 4091 
L 703 3866 
L 703 4441 
L 1819 4666 
L 2450 4666 
L 2450 531 
L 3481 531 
L 3481 0 
L 794 0 
L 794 531 
z
" id="DejaVuSans-31" transform="scale(0.015625)"/>
       </defs>
       <use xlink:href="#DejaVuSans-31"/>
       <use x="63.623047" xlink:href="#DejaVuSans-30"/>
       <use x="127.246094" xlink:href="#DejaVuSans-30"/>
       <use x="190.869141" xlink:href="#DejaVuSans-30"/>
       <use x="254.492188" xlink:href="#DejaVuSans-30"/>
       <use x="318.115234" xlink:href="#DejaVuSans-30"/>
      </g>
     </g>
    </g>
    <g id="text_7">
     <!-- MDTU -->
     <g style="fill:#262626;" transform="translate(304.680964 661.968125)scale(0.24 -0.24)">
      <defs>
       <path d="M 628 4666 
L 1569 4666 
L 2759 1491 
L 3956 4666 
L 4897 4666 
L 4897 0 
L 4281 0 
L 4281 4097 
L 3078 897 
L 2444 897 
L 1241 4097 
L 1241 0 
L 628 0 
L 628 4666 
z
" id="DejaVuSans-4d" transform="scale(0.015625)"/>
       <path d="M 1259 4147 
L 1259 519 
L 2022 519 
Q 2988 519 3436 956 
Q 3884 1394 3884 2338 
Q 3884 3275 3436 3711 
Q 2988 4147 2022 4147 
L 1259 4147 
z
M 628 4666 
L 1925 4666 
Q 3281 4666 3915 4102 
Q 4550 3538 4550 2338 
Q 4550 1131 3912 565 
Q 3275 0 1925 0 
L 628 0 
L 628 4666 
z
" id="DejaVuSans-44" transform="scale(0.015625)"/>
       <path d="M -19 4666 
L 3928 4666 
L 3928 4134 
L 2272 4134 
L 2272 0 
L 1638 0 
L 1638 4134 
L -19 4134 
L -19 4666 
z
" id="DejaVuSans-54" transform="scale(0.015625)"/>
       <path d="M 556 4666 
L 1191 4666 
L 1191 1831 
Q 1191 1081 1462 751 
Q 1734 422 2344 422 
Q 2950 422 3222 751 
Q 3494 1081 3494 1831 
L 3494 4666 
L 4128 4666 
L 4128 1753 
Q 4128 841 3676 375 
Q 3225 -91 2344 -91 
Q 1459 -91 1007 375 
Q 556 841 556 1753 
L 556 4666 
z
" id="DejaVuSans-55" transform="scale(0.015625)"/>
      </defs>
      <use xlink:href="#DejaVuSans-4d"/>
      <use x="86.279297" xlink:href="#DejaVuSans-44"/>
      <use x="163.28125" xlink:href="#DejaVuSans-54"/>
      <use x="224.365234" xlink:href="#DejaVuSans-55"/>
     </g>
    </g>
   </g>
   <g id="matplotlib.axis_2">
    <g id="ytick_1">
     <g id="text_8">
      <!-- 0.50 -->
      <g style="fill:#262626;" transform="translate(34.4275 560.750066)scale(0.22 -0.22)">
       <defs>
        <path d="M 684 794 
L 1344 794 
L 1344 0 
L 684 0 
L 684 794 
z
" id="DejaVuSans-2e" transform="scale(0.015625)"/>
        <path d="M 691 4666 
L 3169 4666 
L 3169 4134 
L 1269 4134 
L 1269 2991 
Q 1406 3038 1543 3061 
Q 1681 3084 1819 3084 
Q 2600 3084 3056 2656 
Q 3513 2228 3513 1497 
Q 3513 744 3044 326 
Q 2575 -91 1722 -91 
Q 1428 -91 1123 -41 
Q 819 9 494 109 
L 494 744 
Q 775 591 1075 516 
Q 1375 441 1709 441 
Q 2250 441 2565 725 
Q 2881 1009 2881 1497 
Q 2881 1984 2565 2268 
Q 2250 2553 1709 2553 
Q 1456 2553 1204 2497 
Q 953 2441 691 2322 
L 691 4666 
z
" id="DejaVuSans-35" transform="scale(0.015625)"/>
       </defs>
       <use xlink:href="#DejaVuSans-30"/>
       <use x="63.623047" xlink:href="#DejaVuSans-2e"/>
       <use x="95.410156" xlink:href="#DejaVuSans-35"/>
       <use x="159.033203" xlink:href="#DejaVuSans-30"/>
      </g>
     </g>
    </g>
    <g id="ytick_2">
     <g id="text_9">
      <!-- 0.55 -->
      <g style="fill:#262626;" transform="translate(34.4275 500.830992)scale(0.22 -0.22)">
       <use xlink:href="#DejaVuSans-30"/>
       <use x="63.623047" xlink:href="#DejaVuSans-2e"/>
       <use x="95.410156" xlink:href="#DejaVuSans-35"/>
       <use x="159.033203" xlink:href="#DejaVuSans-35"/>
      </g>
     </g>
    </g>
    <g id="ytick_3">
     <g id="text_10">
      <!-- 0.60 -->
      <g style="fill:#262626;" transform="translate(34.4275 440.911917)scale(0.22 -0.22)">
       <use xlink:href="#DejaVuSans-30"/>
       <use x="63.623047" xlink:href="#DejaVuSans-2e"/>
       <use x="95.410156" xlink:href="#DejaVuSans-36"/>
       <use x="159.033203" xlink:href="#DejaVuSans-30"/>
      </g>
     </g>
    </g>
    <g id="ytick_4">
     <g id="text_11">
      <!-- 0.65 -->
      <g style="fill:#262626;" transform="translate(34.4275 380.992842)scale(0.22 -0.22)">
       <use xlink:href="#DejaVuSans-30"/>
       <use x="63.623047" xlink:href="#DejaVuSans-2e"/>
       <use x="95.410156" xlink:href="#DejaVuSans-36"/>
       <use x="159.033203" xlink:href="#DejaVuSans-35"/>
      </g>
     </g>
    </g>
    <g id="ytick_5">
     <g id="text_12">
      <!-- 0.70 -->
      <g style="fill:#262626;" transform="translate(34.4275 321.073767)scale(0.22 -0.22)">
       <defs>
        <path d="M 525 4666 
L 3525 4666 
L 3525 4397 
L 1831 0 
L 1172 0 
L 2766 4134 
L 525 4134 
L 525 4666 
z
" id="DejaVuSans-37" transform="scale(0.015625)"/>
       </defs>
       <use xlink:href="#DejaVuSans-30"/>
       <use x="63.623047" xlink:href="#DejaVuSans-2e"/>
       <use x="95.410156" xlink:href="#DejaVuSans-37"/>
       <use x="159.033203" xlink:href="#DejaVuSans-30"/>
      </g>
     </g>
    </g>
    <g id="ytick_6">
     <g id="text_13">
      <!-- 0.75 -->
      <g style="fill:#262626;" transform="translate(34.4275 261.154693)scale(0.22 -0.22)">
       <use xlink:href="#DejaVuSans-30"/>
       <use x="63.623047" xlink:href="#DejaVuSans-2e"/>
       <use x="95.410156" xlink:href="#DejaVuSans-37"/>
       <use x="159.033203" xlink:href="#DejaVuSans-35"/>
      </g>
     </g>
    </g>
    <g id="ytick_7">
     <g id="text_14">
      <!-- 0.80 -->
      <g style="fill:#262626;" transform="translate(34.4275 201.235618)scale(0.22 -0.22)">
       <use xlink:href="#DejaVuSans-30"/>
       <use x="63.623047" xlink:href="#DejaVuSans-2e"/>
       <use x="95.410156" xlink:href="#DejaVuSans-38"/>
       <use x="159.033203" xlink:href="#DejaVuSans-30"/>
      </g>
     </g>
    </g>
    <g id="ytick_8">
     <g id="text_15">
      <!-- 0.85 -->
      <g style="fill:#262626;" transform="translate(34.4275 141.316543)scale(0.22 -0.22)">
       <use xlink:href="#DejaVuSans-30"/>
       <use x="63.623047" xlink:href="#DejaVuSans-2e"/>
       <use x="95.410156" xlink:href="#DejaVuSans-38"/>
       <use x="159.033203" xlink:href="#DejaVuSans-35"/>
      </g>
     </g>
    </g>
    <g id="text_16">
     <!-- $E$ -->
     <g style="fill:#262626;" transform="translate(25.43625 363.813429)rotate(-90)scale(0.24 -0.24)">
      <defs>
       <path d="M 1081 4666 
L 4031 4666 
L 3928 4134 
L 1606 4134 
L 1338 2753 
L 3566 2753 
L 3463 2222 
L 1234 2222 
L 909 531 
L 3284 531 
L 3181 0 
L 172 0 
L 1081 4666 
z
" id="DejaVuSans-Oblique-45" transform="scale(0.015625)"/>
      </defs>
      <use transform="translate(0 0.09375)" xlink:href="#DejaVuSans-Oblique-45"/>
     </g>
    </g>
   </g>
   <g id="line2d_1">
    <path clip-path="url(#pce4717e2f8)" d="M 120.864122 310.585811 
L 121.083754 323.033461 
L 121.303386 322.405546 
L 121.523019 360.496107 
L 121.742651 329.22854 
L 122.181915 420.28063 
L 122.401548 354.599258 
L 122.62118 348.218555 
L 122.840812 333.993077 
L 123.060445 454.774472 
L 123.499709 303.935813 
L 123.719341 291.222988 
L 123.938974 379.56909 
L 124.158606 222.763308 
L 124.378238 380.092218 
L 124.597871 427.017741 
L 125.037135 378.03207 
L 125.256767 479.459891 
L 125.4764 327.456815 
L 125.696032 409.449907 
L 125.915664 312.320551 
L 126.135297 396.817622 
L 126.354929 303.365289 
L 126.574561 440.013023 
L 126.794193 324.653096 
L 127.013826 399.082847 
L 127.45309 245.099204 
L 127.672723 491.27884 
L 128.111987 346.513037 
L 128.331619 372.679543 
L 128.551252 240.748741 
L 128.770884 394.457014 
L 128.990516 359.087099 
L 129.210149 508.643198 
L 129.649413 324.184621 
L 129.869045 293.84596 
L 130.088678 215.897897 
L 130.30831 319.780196 
L 130.527942 348.748234 
L 130.747575 471.247855 
L 130.967207 464.292777 
L 131.186839 350.217215 
L 131.406471 345.287265 
L 131.626104 286.532586 
L 131.845736 406.532633 
L 132.065368 233.745981 
L 132.285001 223.801258 
L 132.724265 396.577069 
L 132.943897 357.113474 
L 133.16353 502.592266 
L 133.383162 388.783782 
L 133.602794 413.051118 
L 133.822426 288.826571 
L 134.042059 325.352488 
L 134.261691 458.562535 
L 134.481323 383.741735 
L 134.700956 411.068533 
L 134.920588 423.781864 
L 135.14022 373.280034 
L 135.359852 487.086272 
L 135.579485 434.594754 
L 135.799117 440.312591 
L 136.238382 333.015663 
L 136.458014 378.425095 
L 136.677646 234.938267 
L 136.897278 425.075245 
L 137.116911 302.728122 
L 137.336543 481.106372 
L 137.556175 448.906733 
L 137.775808 398.899534 
L 138.215072 347.614715 
L 138.434704 300.662954 
L 138.654337 412.409527 
L 139.093601 333.807513 
L 139.313234 394.414133 
L 139.532866 296.179988 
L 139.752498 400.975879 
L 139.97213 326.107455 
L 140.191763 353.409263 
L 140.411395 326.236322 
L 140.631027 384.815632 
L 140.85066 372.046118 
L 141.070292 398.422046 
L 141.289924 451.798669 
L 141.509556 381.758643 
L 141.729189 364.46102 
L 141.948821 266.224996 
L 142.168453 328.695791 
L 142.607718 361.927551 
L 142.82735 456.73586 
L 143.046982 448.193075 
L 143.266615 230.308896 
L 143.486247 387.976383 
L 143.705879 302.69909 
L 143.925512 451.584219 
L 144.145144 440.167843 
L 144.364776 416.660793 
L 144.584408 439.154991 
L 145.243305 322.906358 
L 145.462938 383.716653 
L 145.68257 478.565161 
L 145.902202 298.60512 
L 146.121834 320.967151 
L 146.341467 324.324523 
L 146.561099 461.634793 
L 146.780731 305.826865 
L 147.000364 252.861604 
L 147.219996 343.096536 
L 147.439628 276.60513 
L 147.65926 409.049301 
L 147.878893 341.619764 
L 148.098525 521.723105 
L 148.318157 372.568716 
L 148.537789 360.421712 
L 148.757422 441.759011 
L 148.977054 449.511061 
L 149.196686 486.430868 
L 149.635951 353.076326 
L 149.855583 388.580538 
L 150.294848 284.702714 
L 150.51448 350.730311 
L 150.734112 333.394067 
L 150.953745 397.74109 
L 151.173377 290.936531 
L 151.393009 444.32424 
L 151.612641 195.384408 
L 151.832274 249.28115 
L 152.051906 396.074318 
L 152.271538 273.992824 
L 152.491171 347.926795 
L 152.710803 375.710902 
L 153.150067 295.604128 
L 153.3697 324.474023 
L 153.589332 282.560176 
L 153.808964 303.274972 
L 154.248229 415.374504 
L 154.467861 339.51866 
L 154.687493 342.909064 
L 154.907126 327.120342 
L 155.126758 455.41402 
L 155.34639 418.918141 
L 155.566023 263.304312 
L 155.785655 400.435774 
L 156.005287 288.561696 
L 156.224919 283.766833 
L 156.444552 329.596462 
L 156.664184 287.879813 
L 156.883816 466.915566 
L 157.103449 438.785388 
L 157.542713 333.802348 
L 157.762345 397.254892 
L 157.981978 370.62845 
L 158.20161 506.478014 
L 158.421242 398.17634 
L 158.640875 411.76138 
L 158.860507 377.490065 
L 159.080139 394.823924 
L 159.299771 479.061139 
L 159.519404 243.634099 
L 159.739036 396.03781 
L 160.178301 349.23851 
L 160.397933 396.048452 
L 160.837197 427.11793 
L 161.05683 357.799936 
L 161.276462 403.949805 
L 161.496094 289.219967 
L 161.935359 346.627775 
L 162.154991 339.885634 
L 162.374623 286.859579 
L 162.594256 411.736142 
L 163.03352 270.924531 
L 163.253153 405.990541 
L 163.472785 305.834871 
L 163.692417 277.815622 
L 164.131682 370.63163 
L 164.351314 473.929889 
L 164.570946 362.473704 
L 164.790578 311.686054 
L 165.229843 276.988348 
L 165.449475 513.025763 
L 165.669108 371.262634 
L 165.88874 461.256747 
L 166.328004 377.448436 
L 166.547637 461.60591 
L 166.767269 349.974697 
L 166.986901 306.412353 
L 167.206534 322.77658 
L 167.426166 304.864882 
L 167.645798 310.73814 
L 167.86543 365.173602 
L 168.085063 467.062524 
L 168.524327 244.5166 
L 168.74396 438.27634 
L 168.963592 312.038213 
L 169.183224 255.109762 
L 169.622489 437.344126 
L 169.842121 294.914653 
L 170.061753 407.405672 
L 170.281386 305.106324 
L 170.501018 539.651167 
L 170.940282 354.448387 
L 171.159915 505.643251 
L 171.379547 325.629027 
L 171.599179 367.550836 
L 171.818812 369.729223 
L 172.038444 356.958777 
L 172.258076 386.079777 
L 172.477708 351.093604 
L 172.697341 280.331162 
L 172.916973 320.315616 
L 173.356238 426.441996 
L 173.57587 407.614048 
L 174.015134 346.111256 
L 174.234767 481.882542 
L 174.454399 305.166105 
L 174.674031 390.100409 
L 174.893664 362.550952 
L 175.113296 385.98345 
L 175.332928 338.626592 
L 175.55256 381.19368 
L 175.772193 327.012958 
L 175.991825 468.154297 
L 176.211457 302.313582 
L 176.43109 321.99655 
L 176.650722 273.005301 
L 176.870354 444.838402 
L 177.089986 396.132261 
L 177.309619 432.742551 
L 177.529251 357.676229 
L 177.748883 325.764948 
L 177.968516 442.838025 
L 178.188148 312.833388 
L 178.40778 317.85674 
L 178.627412 330.244571 
L 178.847045 426.350962 
L 179.066677 355.008841 
L 179.286309 334.764813 
L 179.505941 262.294956 
L 179.725574 421.588646 
L 179.945206 336.288744 
L 180.164838 369.100619 
L 180.384471 426.411068 
L 180.604103 385.408729 
L 180.823735 371.886597 
L 181.043367 329.585289 
L 181.263 403.338227 
L 181.482632 415.748853 
L 181.702264 406.112102 
L 181.921897 413.832055 
L 182.141529 376.040756 
L 182.361161 421.319833 
L 182.580793 308.67395 
L 182.800426 322.53749 
L 183.020058 274.166194 
L 183.23969 360.494667 
L 183.459323 350.730709 
L 183.678955 238.052509 
L 183.898587 388.412217 
L 184.118219 368.606269 
L 184.337852 365.996805 
L 184.557484 366.491145 
L 184.777116 425.038967 
L 184.996749 360.878838 
L 185.216381 408.016803 
L 185.436013 329.094282 
L 185.655645 443.479264 
L 185.875278 333.084095 
L 186.09491 309.979052 
L 186.314542 305.207411 
L 186.534175 413.308496 
L 186.753807 385.754413 
L 186.973439 381.823245 
L 187.412704 409.345505 
L 187.632336 338.322116 
L 187.851968 403.620503 
L 188.071601 424.135799 
L 188.291233 330.808144 
L 188.510865 462.638489 
L 188.730497 361.772788 
L 188.95013 354.850363 
L 189.169762 476.09357 
L 189.609027 285.223084 
L 189.828659 449.758954 
L 190.267923 308.853364 
L 190.487556 389.057853 
L 190.707188 368.911917 
L 190.92682 433.403268 
L 191.146453 425.569405 
L 191.366085 289.766419 
L 191.585717 404.446081 
L 191.805349 304.017131 
L 192.464246 395.233191 
L 192.683879 420.85307 
L 192.903511 469.389765 
L 193.123143 319.38328 
L 193.342775 340.315584 
L 193.562408 491.533506 
L 193.78204 310.246392 
L 194.221305 445.018475 
L 194.660569 436.223142 
L 194.880201 254.19363 
L 195.319466 444.488928 
L 195.539098 346.533714 
L 195.75873 338.897989 
L 195.978363 464.865037 
L 196.197995 479.545017 
L 196.417627 391.13757 
L 196.63726 368.925813 
L 196.856892 403.097451 
L 197.076524 338.838971 
L 197.296156 376.022362 
L 197.515789 315.190792 
L 197.735421 332.212551 
L 197.955053 447.565739 
L 198.174686 426.737309 
L 198.394318 307.654371 
L 198.61395 467.659176 
L 198.833582 336.196964 
L 199.272847 425.895801 
L 199.492479 366.632858 
L 199.712112 382.408561 
L 199.931744 328.076744 
L 200.151376 389.117728 
L 200.371008 354.248891 
L 200.590641 468.21849 
L 200.810273 351.933972 
L 201.029905 341.611187 
L 201.249538 352.585365 
L 201.46917 294.082273 
L 201.688802 452.322758 
L 201.908434 316.014036 
L 202.128067 389.521434 
L 202.347699 390.227518 
L 202.567331 341.872691 
L 202.786964 423.597587 
L 203.226228 178.088244 
L 203.665493 454.971094 
L 203.885125 328.680782 
L 204.104757 425.660665 
L 204.32439 363.337547 
L 204.544022 362.998388 
L 204.763654 368.098255 
L 204.983286 199.638683 
L 205.422551 430.715756 
L 205.642183 386.576093 
L 205.861816 215.070351 
L 206.081448 356.969583 
L 206.30108 357.904781 
L 206.520712 433.867532 
L 206.740345 356.656075 
L 206.959977 331.369851 
L 207.179609 349.246238 
L 207.399242 538.688346 
L 207.618874 400.156878 
L 207.838506 365.316284 
L 208.058138 436.823281 
L 208.277771 440.271625 
L 208.497403 341.586905 
L 208.717035 365.108485 
L 208.936668 302.416055 
L 209.1563 412.357324 
L 209.375932 345.341711 
L 209.595564 424.570726 
L 209.815197 300.670465 
L 210.034829 294.253907 
L 210.254461 471.231043 
L 210.474093 368.061534 
L 210.693726 360.301604 
L 210.913358 408.026581 
L 211.13299 345.59167 
L 211.352623 330.522442 
L 211.572255 392.196905 
L 211.791887 398.396218 
L 212.011519 344.659122 
L 212.231152 349.440004 
L 212.450784 406.001308 
L 212.670416 287.369804 
L 212.890049 423.169989 
L 213.109681 283.356542 
L 213.329313 461.104782 
L 213.548945 258.251425 
L 213.768578 433.09739 
L 213.98821 428.291791 
L 214.207842 386.967415 
L 214.427475 286.485263 
L 214.647107 398.576022 
L 214.866739 399.069251 
L 215.086371 368.329615 
L 215.306004 291.514519 
L 215.525636 441.539015 
L 215.745268 336.272822 
L 215.964901 412.149386 
L 216.184533 439.922972 
L 216.404165 516.384109 
L 216.623797 419.086931 
L 216.84343 406.373901 
L 217.063062 435.425384 
L 217.282694 402.845878 
L 217.502327 317.557334 
L 217.721959 296.5087 
L 217.941591 438.396374 
L 218.380856 405.205766 
L 218.600488 254.657194 
L 218.82012 355.864368 
L 219.039753 361.184388 
L 219.259385 447.972306 
L 219.479017 296.141623 
L 219.698649 348.27021 
L 219.918282 343.864846 
L 220.137914 316.875229 
L 220.357546 356.88967 
L 220.577179 320.700194 
L 220.796811 488.01822 
L 221.016443 471.544811 
L 221.455708 415.650439 
L 221.67534 432.830296 
L 221.894972 406.247491 
L 222.114605 311.440093 
L 222.334237 469.93573 
L 222.553869 393.74762 
L 222.773501 434.960418 
L 222.993134 322.880036 
L 223.432398 377.881104 
L 223.652031 290.901148 
L 223.871663 428.531798 
L 224.091295 334.368009 
L 224.310927 330.530934 
L 224.53056 215.479946 
L 224.969824 365.04887 
L 225.189456 418.520542 
L 225.409089 361.887472 
L 225.628721 371.901872 
L 225.848353 497.314902 
L 226.067986 513.552737 
L 226.287618 351.375486 
L 226.50725 377.702624 
L 226.726882 461.853929 
L 227.166147 314.054426 
L 227.385779 508.472675 
L 227.605412 316.494412 
L 227.825044 394.880967 
L 228.044676 186.76614 
L 228.264308 355.86794 
L 228.483941 319.81148 
L 228.703573 323.797597 
L 228.923205 280.870276 
L 229.36247 472.108823 
L 229.582102 291.549096 
L 229.801734 345.190613 
L 230.021367 256.020965 
L 230.240999 359.441627 
L 230.460631 355.96454 
L 230.680264 434.145818 
L 230.899896 345.811813 
L 231.119528 344.728287 
L 231.33916 423.994569 
L 231.558793 282.348394 
L 231.998057 404.224471 
L 232.21769 398.137565 
L 232.437322 300.168575 
L 232.656954 387.197555 
L 232.876586 316.619105 
L 233.096219 411.827381 
L 233.315851 326.493851 
L 233.535483 330.430337 
L 233.755116 257.092141 
L 233.974748 348.283537 
L 234.19438 260.983876 
L 234.414012 463.381966 
L 234.633645 352.01321 
L 234.853277 334.820955 
L 235.072909 348.684964 
L 235.292542 252.372916 
L 235.512174 468.837832 
L 235.731806 342.453848 
L 235.951438 355.531117 
L 236.171071 348.848187 
L 236.390703 435.967192 
L 236.610335 399.281235 
L 236.829968 314.861341 
L 237.0496 423.95647 
L 237.269232 356.270231 
L 237.488864 468.432467 
L 237.708497 322.865492 
L 237.928129 326.794851 
L 238.147761 393.315576 
L 238.367394 355.765439 
L 238.587026 350.628951 
L 239.02629 445.929204 
L 239.245923 344.092126 
L 239.465555 410.928604 
L 239.685187 376.80482 
L 239.90482 452.243496 
L 240.124452 440.383065 
L 240.344084 442.021503 
L 240.563716 396.781554 
L 240.783349 272.284113 
L 241.002981 421.571685 
L 241.222613 450.237988 
L 241.442245 394.58318 
L 241.661878 392.149913 
L 241.88151 339.943922 
L 242.101142 415.819781 
L 242.320775 355.682072 
L 242.540407 383.59897 
L 242.760039 336.954646 
L 242.979671 484.483114 
L 243.199304 395.47748 
L 243.418936 393.811939 
L 243.638568 298.734541 
L 243.858201 335.044073 
L 244.077833 508.841326 
L 244.297465 364.28934 
L 244.517097 376.742202 
L 244.73673 323.187457 
L 244.956362 348.985655 
L 245.175994 351.937504 
L 245.395627 411.458109 
L 245.615259 362.787068 
L 245.834891 455.471772 
L 246.274156 407.336233 
L 246.493788 342.207736 
L 246.71342 335.473335 
L 246.933053 377.384424 
L 247.152685 297.703523 
L 247.372317 382.020007 
L 247.591949 286.331096 
L 247.811582 298.837205 
L 248.031214 395.036538 
L 248.250846 320.987686 
L 248.470479 370.868663 
L 248.690111 304.029212 
L 248.909743 422.868141 
L 249.129375 358.540395 
L 249.349008 337.096555 
L 249.56864 432.30743 
L 249.788272 460.7553 
L 250.007905 336.232916 
L 250.227537 348.595459 
L 250.447169 333.392016 
L 250.666801 439.694597 
L 250.886434 432.365379 
L 251.106066 395.877791 
L 251.325698 469.943316 
L 251.545331 375.293475 
L 251.764963 450.856315 
L 251.984595 322.510817 
L 252.204227 333.160492 
L 252.42386 417.794704 
L 252.643492 375.415726 
L 252.863124 301.989539 
L 253.082757 395.44606 
L 253.302389 384.922597 
L 253.522021 265.984565 
L 253.741653 392.74377 
L 253.961286 385.711777 
L 254.180918 344.422708 
L 254.40055 428.267378 
L 254.620183 314.590802 
L 254.839815 500.728935 
L 255.059447 343.092744 
L 255.279079 406.319433 
L 255.498712 287.304028 
L 255.718344 333.302616 
L 255.937976 292.670539 
L 256.157608 337.749229 
L 256.377241 355.606188 
L 256.596873 405.364366 
L 256.816505 331.903077 
L 257.036138 347.058458 
L 257.25577 453.348981 
L 257.475402 404.841271 
L 257.695034 425.97634 
L 257.914667 407.199728 
L 258.134299 334.935295 
L 258.353931 320.51223 
L 258.573564 361.287854 
L 258.793196 487.992355 
L 259.23246 233.732722 
L 259.452093 374.061763 
L 259.671725 365.665537 
L 259.891357 394.594609 
L 260.11099 344.477939 
L 260.330622 481.373869 
L 260.550254 467.503782 
L 260.769886 293.89653 
L 260.989519 474.553957 
L 261.209151 333.360334 
L 261.648416 295.724745 
L 261.868048 259.886405 
L 262.08768 309.202063 
L 262.307312 333.284578 
L 262.526945 395.318256 
L 262.746577 395.130605 
L 262.966209 424.389737 
L 263.405474 386.507216 
L 263.625106 379.21224 
L 263.844738 305.977268 
L 264.064371 353.696637 
L 264.503635 483.236952 
L 264.723268 359.285591 
L 265.162532 453.78521 
L 265.382164 412.974793 
L 265.601797 513.251863 
L 265.821429 388.246649 
L 266.041061 442.920209 
L 266.260694 329.246516 
L 266.480326 325.165461 
L 266.699958 323.568755 
L 266.91959 428.097577 
L 267.139223 380.931074 
L 267.578487 430.67818 
L 267.79812 432.306952 
L 268.457016 326.533611 
L 268.676649 320.643713 
L 268.896281 221.458784 
L 269.115913 363.693609 
L 269.335546 386.43458 
L 269.555178 350.20082 
L 269.77481 210.016479 
L 270.433707 457.691537 
L 270.653339 406.360171 
L 270.872972 390.961339 
L 271.092604 311.299543 
L 271.312236 314.079977 
L 271.531868 307.707204 
L 271.751501 358.862882 
L 272.190765 388.674776 
L 272.410397 436.245324 
L 272.63003 454.504825 
L 272.849662 437.860455 
L 273.069294 294.86616 
L 273.288927 300.12251 
L 273.508559 421.484484 
L 273.947823 342.825659 
L 274.167456 401.497395 
L 274.387088 352.897044 
L 274.60672 442.587246 
L 274.826353 303.720824 
L 275.045985 440.318947 
L 275.265617 482.190173 
L 275.485249 316.084114 
L 275.704882 253.145654 
L 275.924514 446.478855 
L 276.144146 434.388298 
L 276.363779 466.306683 
L 276.583411 433.310324 
L 277.022675 245.541273 
L 277.242308 366.666074 
L 277.46194 315.132135 
L 277.681572 420.816399 
L 278.120837 363.515447 
L 278.340469 420.952212 
L 278.560101 306.206365 
L 278.779734 289.433428 
L 278.999366 261.955071 
L 279.438631 420.740429 
L 279.658263 393.00911 
L 279.877895 297.915412 
L 280.097527 294.421131 
L 280.31716 447.974019 
L 280.536792 245.238481 
L 280.976057 460.500754 
L 281.415321 339.23179 
L 281.634953 229.915456 
L 281.854586 422.141345 
L 282.074218 458.520136 
L 282.29385 317.183897 
L 282.513483 473.120937 
L 282.733115 349.885703 
L 282.952747 338.591605 
L 283.172379 335.050246 
L 283.392012 381.071957 
L 283.611644 349.419397 
L 283.831276 398.937349 
L 284.050909 398.284983 
L 284.270541 256.861383 
L 284.490173 401.594169 
L 284.709805 308.966711 
L 284.929438 397.604343 
L 285.14907 403.721463 
L 285.368702 316.880207 
L 285.588335 278.713508 
L 285.807967 374.312715 
L 286.027599 272.414987 
L 286.247231 396.423965 
L 286.466864 389.091001 
L 286.686496 404.158522 
L 286.906128 357.176992 
L 287.12576 423.268929 
L 287.345393 235.521509 
L 287.565025 446.046922 
L 288.00429 221.792318 
L 288.223922 296.803766 
L 288.443554 311.453142 
L 288.663186 260.879578 
L 288.882819 375.864 
L 289.102451 354.612308 
L 289.322083 401.606169 
L 289.761348 322.75606 
L 290.200612 486.626538 
L 290.420245 275.178427 
L 290.639877 382.046615 
L 290.859509 311.083087 
L 291.079142 276.560657 
L 291.298774 376.005748 
L 291.518406 378.961345 
L 291.738038 395.59286 
L 291.957671 488.173195 
L 292.177303 399.023696 
L 292.396935 382.226856 
L 292.616568 381.748624 
L 292.8362 368.867417 
L 293.055832 366.409537 
L 293.275464 351.857743 
L 293.495097 345.665835 
L 293.714729 295.718916 
L 293.934361 357.842935 
L 294.153994 292.211027 
L 294.593258 434.96708 
L 294.81289 340.588451 
L 295.032523 380.56051 
L 295.252155 456.81765 
L 295.471787 348.243538 
L 295.69142 438.86325 
L 295.911052 431.595246 
L 296.130684 381.927859 
L 296.350316 382.869481 
L 296.569949 504.791683 
L 296.789581 378.366218 
L 297.009213 450.753432 
L 297.228846 398.139625 
L 297.448478 398.173058 
L 297.66811 391.334756 
L 297.887742 452.045426 
L 298.107375 305.301476 
L 298.546639 402.976828 
L 298.766272 295.283991 
L 298.985904 252.32191 
L 299.205536 421.765978 
L 299.425168 425.295677 
L 299.644801 373.806013 
L 299.864433 395.316144 
L 300.084065 392.899586 
L 300.303698 324.546934 
L 300.52333 339.293205 
L 300.962594 424.048898 
L 301.182227 353.582752 
L 301.621491 466.013433 
L 301.841124 379.302346 
L 302.060756 359.785002 
L 302.280388 310.881483 
L 302.50002 422.74304 
L 302.719653 458.363393 
L 302.939285 260.2764 
L 303.158917 221.149673 
L 303.378549 341.882718 
L 303.817814 316.810473 
L 304.037446 373.35361 
L 304.476711 423.501296 
L 304.696343 396.055092 
L 304.915975 283.415736 
L 305.135608 426.258721 
L 305.35524 381.377051 
L 305.574872 299.150967 
L 306.673034 516.761692 
L 306.892666 432.981976 
L 307.112298 394.287247 
L 307.331931 324.971844 
L 307.551563 350.885943 
L 307.771195 394.756649 
L 307.990827 328.805269 
L 308.21046 380.91639 
L 308.430092 356.36779 
L 308.649724 442.799833 
L 308.869357 312.015602 
L 309.088989 381.905518 
L 309.308621 401.104892 
L 309.528253 352.01532 
L 309.747886 347.613689 
L 309.967518 357.305685 
L 310.18715 131.763818 
L 310.406783 475.528715 
L 310.626415 438.641942 
L 310.846047 271.09888 
L 311.065679 370.611661 
L 311.285312 270.332745 
L 311.504944 310.012988 
L 311.724576 580.503039 
L 311.944209 458.509478 
L 312.163841 471.480463 
L 312.383473 424.750871 
L 312.603105 344.917461 
L 312.822738 310.999492 
L 313.04237 421.666966 
L 313.262002 435.206288 
L 313.701267 332.861135 
L 313.920899 402.929903 
L 314.140531 220.260904 
L 314.360164 430.358169 
L 314.579796 300.577191 
L 314.799428 404.524696 
L 315.019061 342.161709 
L 315.238693 321.421775 
L 315.458325 375.421682 
L 315.677957 363.885568 
L 315.89759 417.995598 
L 316.117222 297.690957 
L 316.336854 281.930796 
L 316.556487 323.293068 
L 316.776119 318.621335 
L 316.995751 451.525214 
L 317.435016 280.4759 
L 317.654648 375.268094 
L 317.87428 287.882393 
L 318.093912 286.492327 
L 318.313545 497.921595 
L 318.533177 219.196933 
L 318.752809 403.380437 
L 318.972442 341.101084 
L 319.192074 459.867643 
L 319.411706 301.693879 
L 319.850971 250.234234 
L 320.070603 387.567195 
L 320.290235 324.080492 
L 320.509868 441.833289 
L 320.7295 444.367602 
L 320.949132 406.660724 
L 321.168764 424.823767 
L 321.388397 410.358318 
L 321.608029 410.197032 
L 321.827661 418.577558 
L 322.047294 460.354903 
L 322.266926 425.81145 
L 322.486558 342.386934 
L 322.70619 386.644009 
L 322.925823 316.32049 
L 323.145455 394.754213 
L 323.365087 383.830967 
L 323.58472 345.272241 
L 323.804352 395.482187 
L 324.023984 358.59239 
L 324.243616 438.3694 
L 324.463249 425.145231 
L 324.682881 359.934547 
L 324.902513 482.023865 
L 325.341778 214.952757 
L 325.56141 369.629321 
L 325.781042 360.166428 
L 326.220307 448.167535 
L 326.659572 378.92612 
L 326.879204 288.927928 
L 327.098836 350.728204 
L 327.318468 348.912888 
L 327.538101 479.782025 
L 327.757733 368.812774 
L 327.977365 316.345123 
L 328.196998 440.784201 
L 328.636262 270.235225 
L 328.855894 297.347127 
L 329.075527 346.878125 
L 329.295159 429.175135 
L 329.514791 354.789913 
L 329.734424 350.624392 
L 329.954056 473.261433 
L 330.173688 244.921162 
L 330.39332 411.652982 
L 330.612953 443.693277 
L 331.052217 314.714758 
L 331.27185 428.27392 
L 331.491482 379.548289 
L 331.711114 417.042436 
L 331.930746 310.604404 
L 332.150379 293.099553 
L 332.370011 440.744431 
L 332.589643 409.583679 
L 332.809275 264.33562 
L 333.028908 465.533654 
L 333.24854 372.893566 
L 333.468172 348.984758 
L 333.687805 339.320234 
L 334.127069 359.319382 
L 334.566334 439.572348 
L 334.785966 420.067385 
L 335.005598 484.118695 
L 335.444863 283.127532 
L 335.664495 310.838458 
L 335.884127 305.500292 
L 336.10376 321.217176 
L 336.323392 500.519344 
L 336.982289 259.497725 
L 337.201921 258.085655 
L 337.421553 451.066904 
L 337.641186 409.237011 
L 337.860818 409.267397 
L 338.08045 298.738403 
L 338.300083 352.49729 
L 338.739347 408.816182 
L 338.958979 273.466529 
L 339.178612 404.823178 
L 339.398244 310.09769 
L 339.617876 416.037348 
L 339.837509 350.756591 
L 340.057141 339.705874 
L 340.496405 215.054904 
L 340.93567 443.708868 
L 341.155302 475.187934 
L 341.374935 485.582046 
L 341.594567 397.342051 
L 341.814199 477.422678 
L 342.033831 313.493878 
L 342.253464 320.693879 
L 342.473096 432.563049 
L 342.692728 294.762488 
L 342.912361 380.624249 
L 343.131993 301.950217 
L 343.351625 380.394689 
L 343.571257 314.275585 
L 343.79089 433.693536 
L 344.010522 316.649258 
L 344.230154 445.58038 
L 344.889051 315.937312 
L 345.328316 342.722758 
L 345.547948 358.803635 
L 345.76758 393.194228 
L 346.206845 425.976533 
L 346.426477 299.783652 
L 346.646109 373.29374 
L 346.865742 388.031292 
L 347.085374 335.050885 
L 347.305006 410.176389 
L 347.524639 421.432505 
L 347.744271 465.924838 
L 348.183535 328.110956 
L 348.403168 448.036429 
L 348.6228 280.842628 
L 348.842432 414.43284 
L 349.062064 307.733105 
L 349.281697 322.029991 
L 349.501329 415.497093 
L 349.720961 308.726131 
L 349.940594 408.685243 
L 350.160226 280.483559 
L 350.379858 418.491686 
L 350.819123 243.105112 
L 351.258387 441.251547 
L 351.47802 501.486919 
L 351.697652 455.649341 
L 351.917284 349.101585 
L 352.136916 346.828493 
L 352.356549 337.107067 
L 352.576181 349.422102 
L 352.795813 335.922135 
L 353.235078 437.254856 
L 353.45471 294.957343 
L 353.674342 313.494491 
L 354.113607 529.611775 
L 354.333239 390.678497 
L 354.552872 401.654173 
L 354.772504 384.345927 
L 354.992136 388.172242 
L 355.211768 305.849316 
L 355.431401 370.520553 
L 355.651033 471.587033 
L 355.870665 355.534008 
L 356.090298 327.81173 
L 356.30993 348.829771 
L 356.529562 400.571491 
L 356.749194 266.093895 
L 356.968827 365.353555 
L 357.188459 382.956431 
L 357.627724 254.22439 
L 358.066988 327.944278 
L 358.28662 436.186193 
L 358.506253 308.10603 
L 358.725885 308.18712 
L 358.945517 299.317486 
L 359.16515 409.130502 
L 359.604414 462.921614 
L 359.824046 225.753205 
L 360.043679 399.820362 
L 360.263311 343.060197 
L 360.482943 400.726776 
L 360.702576 385.867647 
L 360.922208 324.345187 
L 361.14184 352.030347 
L 361.361472 479.045794 
L 361.581105 341.08892 
L 361.800737 369.56242 
L 362.020369 477.4958 
L 362.240002 331.450204 
L 362.679266 439.148536 
L 362.898898 260.169271 
L 363.118531 390.546845 
L 363.338163 437.498276 
L 363.557795 244.629525 
L 363.777427 268.838654 
L 363.99706 459.749507 
L 364.216692 313.646189 
L 364.436324 318.126855 
L 364.655957 459.411038 
L 365.095221 265.457999 
L 365.314853 442.657877 
L 365.534486 424.540084 
L 365.754118 419.90813 
L 365.97375 275.176302 
L 366.193383 431.895555 
L 366.413015 390.909892 
L 366.632647 443.07805 
L 367.071912 321.110606 
L 367.511176 372.867605 
L 367.730809 464.642584 
L 367.950441 443.295509 
L 368.170073 352.195439 
L 368.389705 407.786197 
L 368.609338 398.639928 
L 368.82897 284.325007 
L 369.048602 292.477088 
L 369.268235 390.840073 
L 369.487867 385.642058 
L 369.707499 412.496614 
L 369.927131 301.665116 
L 370.146764 315.642178 
L 370.366396 392.752711 
L 370.586028 184.728015 
L 371.025293 392.523009 
L 371.244925 292.577172 
L 371.464557 288.90604 
L 371.68419 244.806114 
L 371.903822 413.178536 
L 372.123454 343.721152 
L 372.343087 426.298664 
L 372.562719 360.773187 
L 372.782351 390.638336 
L 373.001983 468.570245 
L 373.221616 345.687608 
L 373.441248 358.172099 
L 373.66088 377.424062 
L 373.880513 421.323831 
L 374.100145 335.124089 
L 374.319777 383.963273 
L 374.539409 314.913107 
L 374.978674 496.658921 
L 375.417939 323.411796 
L 375.637571 369.924264 
L 375.857203 364.161027 
L 376.076835 334.501699 
L 376.296468 419.057453 
L 376.5161 367.554862 
L 376.735732 445.4063 
L 376.955365 479.091872 
L 377.174997 447.259175 
L 377.394629 267.992831 
L 377.614261 434.185295 
L 377.833894 351.346504 
L 378.053526 389.810053 
L 378.273158 348.492791 
L 378.492791 482.031913 
L 379.151687 275.264644 
L 379.37132 340.086674 
L 379.590952 361.640107 
L 379.810584 335.331453 
L 380.030216 390.573924 
L 380.249849 381.260349 
L 380.469481 320.163504 
L 380.689113 446.807814 
L 380.908746 394.79561 
L 381.128378 410.60533 
L 381.34801 463.634811 
L 381.567642 407.801243 
L 381.787275 427.128294 
L 382.006907 365.964402 
L 382.226539 390.540059 
L 382.446172 342.166344 
L 382.665804 350.862377 
L 382.885436 440.564358 
L 383.105068 407.211192 
L 383.324701 292.562507 
L 383.544333 403.473605 
L 383.763965 398.49057 
L 384.422862 250.681715 
L 384.642494 440.761266 
L 384.862127 331.526901 
L 385.081759 330.190498 
L 385.301391 291.36049 
L 385.740656 390.902759 
L 385.960288 202.980622 
L 386.17992 364.536317 
L 386.399553 333.43308 
L 386.619185 432.014887 
L 386.838817 290.038386 
L 387.05845 372.537217 
L 387.278082 380.26998 
L 387.497714 357.081079 
L 387.717346 411.870751 
L 387.936979 389.938094 
L 388.156611 383.158675 
L 388.376243 468.337861 
L 388.595876 382.60902 
L 388.815508 487.678007 
L 389.03514 320.565731 
L 389.254772 394.406376 
L 389.474405 348.046259 
L 389.694037 435.152913 
L 389.913669 454.342263 
L 390.133302 378.557963 
L 390.792198 346.376251 
L 391.011831 374.602805 
L 391.231463 331.592619 
L 391.451095 426.600556 
L 391.670728 463.06667 
L 391.89036 269.516718 
L 392.109992 427.604912 
L 392.329624 402.155413 
L 392.549257 294.649506 
L 392.768889 362.008513 
L 392.988521 385.536048 
L 393.208154 382.726191 
L 393.647418 297.330829 
L 393.86705 473.285835 
L 394.086683 416.045494 
L 394.306315 319.549708 
L 394.525947 418.564534 
L 394.745579 280.722676 
L 394.965212 388.197183 
L 395.184844 356.407525 
L 395.404476 387.641082 
L 395.624109 339.226782 
L 395.843741 357.292135 
L 396.063373 363.428547 
L 396.283005 373.883325 
L 396.502638 322.793092 
L 396.72227 310.74073 
L 396.941902 365.848994 
L 397.161535 387.205043 
L 397.381167 351.636295 
L 397.600799 279.102538 
L 397.820431 331.529498 
L 398.040064 307.120064 
L 398.259696 407.016886 
L 398.479328 371.093639 
L 398.698961 389.151916 
L 398.918593 418.128927 
L 399.357857 291.291264 
L 399.57749 474.223085 
L 399.797122 349.800377 
L 400.236387 394.813421 
L 400.456019 304.65154 
L 400.895283 427.278171 
L 401.334548 237.510463 
L 401.773813 429.454102 
L 401.993445 412.950492 
L 402.213077 312.272475 
L 402.432709 323.885414 
L 402.652342 257.251485 
L 403.091606 362.25772 
L 403.530871 302.532644 
L 403.750503 373.903313 
L 403.970135 363.867391 
L 404.4094 460.905506 
L 404.629032 352.252131 
L 404.848665 370.370005 
L 405.068297 377.132045 
L 405.287929 403.855654 
L 405.507561 395.304127 
L 405.727194 310.870558 
L 405.946826 490.268677 
L 406.166458 368.123352 
L 406.386091 360.134647 
L 406.605723 225.496221 
L 407.044987 449.79259 
L 407.26462 361.645886 
L 407.484252 443.23609 
L 407.703884 307.306127 
L 407.923517 406.878234 
L 408.143149 374.349879 
L 408.362781 320.315477 
L 408.582413 404.088705 
L 408.802046 335.545294 
L 409.021678 434.665283 
L 409.24131 383.848866 
L 409.460943 282.97975 
L 409.680575 414.763706 
L 409.900207 279.467943 
L 410.119839 431.269769 
L 410.339472 366.0307 
L 410.559104 474.581779 
L 410.778736 235.437882 
L 411.218001 416.857488 
L 411.437633 437.976358 
L 411.657265 353.134749 
L 411.876898 417.564857 
L 412.09653 423.605723 
L 412.316162 212.4567 
L 412.535794 262.003251 
L 412.755427 245.065385 
L 412.975059 393.9539 
L 413.194691 459.467891 
L 413.414324 404.45748 
L 413.633956 378.544017 
L 413.853588 403.59609 
L 414.07322 354.334439 
L 414.292853 348.686496 
L 414.512485 424.570294 
L 414.732117 370.990797 
L 414.95175 432.180131 
L 415.171382 315.163412 
L 415.391014 461.553352 
L 415.610646 429.298643 
L 415.830279 363.519294 
L 416.049911 444.18389 
L 416.489176 349.105574 
L 416.708808 389.331826 
L 416.92844 379.683104 
L 417.148072 328.284931 
L 417.367705 432.396865 
L 417.587337 296.543449 
L 418.026602 347.306021 
L 418.246234 369.742941 
L 418.465866 319.888372 
L 418.685498 428.552523 
L 418.905131 472.327884 
L 419.124763 370.309638 
L 419.344395 405.653294 
L 419.564028 316.911123 
L 419.78366 419.48287 
L 420.003292 423.362215 
L 420.222924 331.666022 
L 420.442557 423.884778 
L 420.662189 449.444421 
L 420.881821 342.950878 
L 421.101454 330.797825 
L 421.321086 487.867984 
L 421.540718 345.96233 
L 421.76035 385.430334 
L 421.979983 482.916951 
L 422.199615 442.5034 
L 422.419247 463.034398 
L 422.63888 393.095801 
L 422.858512 407.183468 
L 423.078144 321.730955 
L 423.297776 318.718886 
L 423.517409 393.91936 
L 423.737041 421.224331 
L 423.956673 314.023833 
L 424.176306 335.329864 
L 424.395938 397.300724 
L 424.61557 382.124785 
L 424.835202 501.183258 
L 425.054835 311.563171 
L 425.274467 272.421977 
L 425.713731 459.822153 
L 425.933364 309.48182 
L 426.152996 418.296549 
L 426.372628 407.97841 
L 426.592261 387.203523 
L 426.811893 353.020961 
L 427.031525 426.330916 
L 427.251157 383.487955 
L 427.47079 407.508399 
L 427.690422 372.869996 
L 427.910054 214.293523 
L 428.129687 312.308827 
L 428.568951 347.880802 
L 428.788583 348.733613 
L 429.008216 285.171123 
L 429.227848 362.603904 
L 429.44748 361.818549 
L 429.667113 374.420752 
L 429.886745 353.040613 
L 430.106377 355.017259 
L 430.326009 428.502553 
L 430.545642 370.454431 
L 430.765274 432.502935 
L 430.984906 301.585764 
L 431.204539 285.86081 
L 431.424171 471.337787 
L 431.643803 434.383197 
L 431.863435 448.785777 
L 432.3027 353.814592 
L 432.522332 415.106819 
L 432.741965 384.506027 
L 432.961597 396.805543 
L 433.181229 345.826752 
L 433.400861 345.096537 
L 433.840126 410.743718 
L 434.059758 392.264729 
L 434.279391 320.566944 
L 434.499023 418.250963 
L 434.718655 270.997523 
L 434.938287 288.7055 
L 435.377552 351.534922 
L 435.597184 323.639838 
L 435.816817 426.559536 
L 436.036449 341.087378 
L 436.256081 412.224656 
L 436.475713 415.61626 
L 436.695346 335.055291 
L 436.914978 386.278184 
L 437.13461 359.429424 
L 437.354243 304.453182 
L 437.573875 386.95766 
L 437.793507 339.219219 
L 438.013139 333.003266 
L 438.232772 431.227789 
L 438.452404 355.655779 
L 438.672036 409.824016 
L 438.891669 352.274793 
L 439.111301 367.828226 
L 439.330933 348.866949 
L 439.550565 351.221522 
L 439.770198 421.924533 
L 439.98983 420.504419 
L 440.209462 345.919288 
L 440.429094 313.094029 
L 440.868359 516.141024 
L 441.087991 364.385426 
L 441.307624 326.330953 
L 441.746888 395.745404 
L 441.96652 356.266877 
L 442.186153 394.652131 
L 442.625417 355.261087 
L 442.84505 379.704325 
L 443.064682 254.648772 
L 443.284314 505.976622 
L 443.503946 365.406732 
L 443.723579 401.98978 
L 443.943211 372.617621 
L 444.162843 319.897903 
L 444.382476 431.813119 
L 444.602108 326.998921 
L 444.82174 307.088062 
L 445.041372 413.49463 
L 445.261005 399.082466 
L 445.480637 280.670629 
L 445.700269 325.542124 
L 445.919902 333.422206 
L 446.359166 257.79798 
L 446.578798 380.434002 
L 446.798431 282.626629 
L 447.018063 450.710421 
L 447.237695 377.907149 
L 447.457328 248.637359 
L 447.67696 259.573026 
L 447.896592 373.860885 
L 448.116224 204.807385 
L 448.335857 374.118694 
L 448.555489 414.529755 
L 448.775121 306.844954 
L 448.994754 340.075404 
L 449.214386 222.530267 
L 449.434018 363.558352 
L 449.65365 428.614591 
L 449.873283 242.746057 
L 450.092915 396.127161 
L 450.53218 288.033498 
L 450.751812 449.740024 
L 450.971444 382.962795 
L 451.191076 465.549252 
L 451.410709 361.542621 
L 451.630341 379.073767 
L 451.849973 326.44082 
L 452.069606 196.005299 
L 452.289238 466.149852 
L 452.50887 224.297604 
L 452.728502 378.098491 
L 453.167767 357.279796 
L 453.387399 321.523809 
L 453.607032 374.500751 
L 453.826664 314.114053 
L 454.046296 369.274843 
L 454.265928 345.435727 
L 454.485561 463.42512 
L 454.924825 392.132396 
L 455.144458 480.323496 
L 455.583722 340.487388 
L 455.803354 457.975342 
L 456.022987 484.316312 
L 456.242619 306.359102 
L 456.462251 449.467889 
L 456.681883 318.509434 
L 456.901516 342.727607 
L 457.121148 296.832848 
L 457.34078 388.722109 
L 457.560413 385.354876 
L 457.780045 404.906711 
L 457.999677 317.83832 
L 458.219309 343.583831 
L 458.438942 402.701698 
L 458.658574 391.646433 
L 458.878206 311.764482 
L 459.317471 375.990223 
L 459.537103 297.582236 
L 459.756735 260.2082 
L 459.976368 358.045928 
L 460.196 394.855507 
L 460.415632 356.653221 
L 460.635265 342.483455 
L 460.854897 384.954096 
L 461.074529 467.095866 
L 461.294161 422.16109 
L 461.513794 409.082906 
L 461.733426 362.131061 
L 461.953058 410.930322 
L 462.172691 391.732161 
L 462.392323 326.692221 
L 462.611955 358.492978 
L 462.831587 420.610448 
L 463.05122 339.606945 
L 463.270852 337.093066 
L 463.490484 494.626709 
L 463.710117 503.64834 
L 463.929749 303.945579 
L 464.149381 414.351819 
L 464.369013 341.833751 
L 464.588646 388.877962 
L 464.808278 347.143146 
L 465.02791 371.491601 
L 465.247543 445.629597 
L 465.686807 248.650131 
L 465.906439 372.851353 
L 466.126072 374.039438 
L 466.345704 262.231263 
L 466.565336 468.124055 
L 466.784969 265.020814 
L 467.004601 433.95761 
L 467.224233 266.133788 
L 467.443865 289.581912 
L 467.663498 293.168827 
L 467.88313 403.611513 
L 468.102762 343.318536 
L 468.542027 448.000277 
L 468.761659 331.286625 
L 468.981291 421.177334 
L 469.200924 319.862908 
L 469.420556 427.855408 
L 469.640188 435.141018 
L 470.079453 305.752095 
L 470.299085 340.429543 
L 470.518717 356.945819 
L 470.73835 445.943822 
L 470.957982 338.353508 
L 471.177614 420.937177 
L 471.397246 387.458299 
L 471.616879 386.641893 
L 471.836511 376.664159 
L 472.056143 393.640026 
L 472.275776 460.63949 
L 472.495408 235.082451 
L 472.71504 405.752803 
L 472.934672 386.05426 
L 473.154305 237.767558 
L 473.373937 416.475594 
L 473.593569 449.783806 
L 473.813202 333.814181 
L 474.032834 466.496557 
L 474.252466 422.177097 
L 474.472098 470.478103 
L 474.691731 386.690055 
L 474.911363 515.304732 
L 475.130995 335.692096 
L 475.350628 388.953618 
L 475.57026 342.655772 
L 475.789892 407.465105 
L 476.009524 295.03425 
L 476.229157 443.461827 
L 476.448789 362.102953 
L 477.107686 449.982529 
L 477.327318 289.763045 
L 477.54695 341.744934 
L 477.766583 333.031949 
L 478.205847 445.237313 
L 478.42548 333.474249 
L 478.645112 376.94435 
L 478.864744 274.157499 
L 479.084376 354.212589 
L 479.304009 315.615986 
L 479.523641 411.089876 
L 479.743273 330.310713 
L 479.962906 364.341229 
L 480.182538 376.430364 
L 480.40217 327.140369 
L 480.841435 446.245635 
L 481.061067 434.180437 
L 481.280699 288.701361 
L 481.500332 314.630855 
L 481.719964 406.545606 
L 481.939596 367.654348 
L 482.159228 432.400343 
L 482.378861 306.185649 
L 482.598493 375.846391 
L 482.818125 346.712479 
L 483.037758 369.784942 
L 483.25739 365.908956 
L 483.477022 354.008123 
L 483.916287 458.364694 
L 484.135919 337.370054 
L 484.355551 400.664384 
L 484.575184 416.943278 
L 484.794816 407.374871 
L 485.014448 245.986506 
L 485.23408 298.328265 
L 485.453713 384.211872 
L 485.673345 371.314235 
L 485.892977 292.103216 
L 486.11261 343.145084 
L 486.332242 445.692041 
L 486.551874 323.623005 
L 486.991139 406.665304 
L 487.210771 364.591836 
L 487.430403 366.629599 
L 487.650035 447.608807 
L 487.869668 312.396582 
L 488.0893 403.655771 
L 488.308932 359.331505 
L 488.528565 355.217362 
L 488.748197 292.047232 
L 488.967829 424.223509 
L 489.187461 329.214781 
L 489.407094 413.333591 
L 489.626726 267.377641 
L 489.846358 394.51583 
L 490.065991 444.729391 
L 490.285623 322.440422 
L 490.505255 412.687328 
L 490.724887 416.877825 
L 490.94452 404.030648 
L 491.164152 363.200238 
L 491.383784 354.295806 
L 491.603417 351.487763 
L 491.823049 368.118977 
L 492.042681 279.110205 
L 492.262313 330.938826 
L 492.481946 318.189216 
L 492.701578 332.083253 
L 492.92121 287.966368 
L 493.140843 405.513314 
L 493.360475 321.15101 
L 493.799739 265.678607 
L 494.019372 215.798403 
L 494.239004 392.510415 
L 494.678269 332.149812 
L 494.897901 331.770204 
L 495.117533 403.05268 
L 495.337165 343.526571 
L 495.556798 417.423137 
L 495.996062 327.47442 
L 496.435327 434.327296 
L 496.874591 338.700458 
L 497.094224 393.983872 
L 497.313856 325.29512 
L 497.533488 302.77048 
L 497.753121 317.228792 
L 497.972753 301.52745 
L 498.192385 498.229999 
L 498.412017 279.239519 
L 498.63165 379.450163 
L 498.851282 313.06587 
L 499.070914 317.272042 
L 499.290547 404.280297 
L 499.510179 324.884092 
L 499.729811 379.499143 
L 499.949443 321.228337 
L 500.169076 328.607552 
L 500.388708 398.804214 
L 500.60834 385.315697 
L 501.047605 307.484506 
L 501.267237 466.566172 
L 501.706502 348.162399 
L 501.926134 440.561889 
L 502.145766 329.666338 
L 502.365398 432.318657 
L 502.585031 423.667506 
L 502.804663 316.137349 
L 503.024295 274.713802 
L 503.243928 398.177146 
L 503.46356 239.648139 
L 503.683192 333.944917 
L 503.902824 337.099334 
L 504.122457 354.611015 
L 504.342089 304.574604 
L 504.561721 404.102547 
L 504.781354 350.533066 
L 505.000986 238.173097 
L 505.220618 372.605546 
L 505.44025 317.524391 
L 505.659883 332.256175 
L 505.879515 297.843853 
L 506.099147 521.750461 
L 506.31878 333.860121 
L 506.538412 479.538944 
L 506.758044 490.765203 
L 506.977676 389.36424 
L 507.197309 474.799551 
L 507.416941 334.086858 
L 507.636573 333.86272 
L 507.856206 466.224268 
L 508.075838 265.882721 
L 508.29547 348.713625 
L 508.515102 274.300085 
L 508.734735 338.247594 
L 508.954367 354.525576 
L 509.173999 357.521343 
L 509.393632 322.129437 
L 509.613264 340.173558 
L 509.832896 303.338792 
L 510.052528 408.234534 
L 510.272161 278.023312 
L 510.491793 380.356349 
L 510.711425 245.472808 
L 510.931058 259.384034 
L 511.15069 344.228401 
L 511.370322 246.573772 
L 511.589954 307.803341 
L 511.809587 318.019942 
L 512.029219 385.765524 
L 512.248851 325.705466 
L 512.468484 180.01502 
L 512.688116 318.899289 
L 512.907748 378.068562 
L 513.12738 323.489667 
L 513.347013 364.156548 
L 513.566645 380.567075 
L 513.786277 420.79081 
L 514.225542 397.617285 
L 514.445174 436.573446 
L 514.664806 401.08699 
L 514.884439 446.881611 
L 515.104071 345.080378 
L 515.323703 413.892067 
L 515.543336 303.398365 
L 515.762968 386.025106 
L 515.9826 426.749964 
L 516.202232 308.480666 
L 516.421865 388.462695 
L 516.641497 366.452128 
L 516.861129 430.906996 
L 517.080762 448.649287 
L 517.300394 476.77916 
L 517.520026 406.595319 
L 517.739658 439.843964 
L 517.959291 395.434964 
L 518.178923 208.447384 
L 518.398555 424.248698 
L 518.618187 309.497164 
L 518.83782 378.934699 
L 519.057452 389.303711 
L 519.277084 292.947769 
L 519.496717 360.64888 
L 519.716349 294.371449 
L 519.935981 401.370666 
L 520.155613 385.966917 
L 520.375246 407.423836 
L 520.594878 301.573928 
L 520.81451 371.478738 
L 521.034143 483.648633 
L 521.253775 365.718809 
L 521.473407 386.816539 
L 521.693039 371.706206 
L 521.912672 306.180962 
L 522.132304 360.149285 
L 522.351936 360.223892 
L 522.571569 417.012969 
L 522.791201 226.259981 
L 523.010833 189.614714 
L 523.230465 371.262439 
L 523.450098 352.319178 
L 523.66973 395.471278 
L 524.108995 289.959544 
L 524.328627 439.630779 
L 524.548259 320.223698 
L 524.767891 451.530045 
L 524.987524 355.697618 
L 525.207156 335.042941 
L 525.426788 354.833192 
L 525.646421 429.012075 
L 526.085685 225.002586 
L 526.305317 503.957464 
L 526.744582 236.971172 
L 526.964214 310.063653 
L 527.183847 265.211291 
L 527.403479 351.887537 
L 527.623111 340.223575 
L 527.842743 394.923439 
L 528.062376 375.995326 
L 528.282008 413.068055 
L 528.50164 329.287712 
L 528.721273 470.75794 
L 528.940905 365.051979 
L 529.160537 409.846215 
L 529.380169 348.350425 
L 529.599802 438.873016 
L 529.819434 423.125541 
L 530.039066 346.045715 
L 530.258699 342.918818 
L 530.478331 379.847141 
L 530.697963 310.649896 
L 530.917595 299.171649 
L 531.137228 389.239169 
L 531.35686 261.773017 
L 531.576492 560.524823 
L 531.796125 391.388586 
L 532.015757 386.990661 
L 532.235389 315.645582 
L 532.674654 478.964273 
L 532.894286 465.387655 
L 533.33355 282.612294 
L 533.553183 362.762233 
L 533.772815 390.878208 
L 534.21208 520.595212 
L 534.431712 417.754465 
L 534.651344 372.137303 
L 534.870976 369.341245 
L 535.090609 320.315829 
L 535.310241 461.38928 
L 535.529873 370.294688 
L 535.749506 419.379332 
L 535.969138 368.231274 
L 536.18877 404.421782 
L 536.408402 336.939581 
L 536.628035 341.907405 
L 536.847667 495.08017 
L 537.067299 324.991323 
L 537.286932 323.947572 
L 537.506564 340.001946 
L 537.726196 486.241969 
L 537.945828 363.734054 
L 538.165461 502.501112 
L 538.385093 386.018309 
L 538.604725 338.181386 
L 538.824358 387.801026 
L 539.04399 311.558853 
L 539.263622 436.933953 
L 539.483254 386.638463 
L 539.702887 404.203186 
L 539.922519 364.269056 
L 540.142151 463.426142 
L 540.361784 370.851392 
L 540.801048 403.232879 
L 541.02068 440.773436 
L 541.240313 384.296708 
L 541.459945 410.532874 
L 541.679577 409.249692 
L 542.118842 328.362197 
L 542.338474 331.523983 
L 542.558106 384.504704 
L 542.777739 400.199174 
L 542.997371 529.742516 
L 543.217003 355.102258 
L 543.436636 343.094698 
L 543.656268 406.086216 
L 543.8759 335.205692 
L 544.095532 397.849309 
L 544.315165 327.30757 
L 544.534797 340.173187 
L 544.754429 377.285012 
L 544.974062 225.32088 
L 545.193694 331.18067 
L 545.413326 324.95286 
L 545.632958 287.636731 
L 545.852591 431.347474 
L 546.072223 180.801816 
L 546.291855 370.986564 
L 546.511488 355.762585 
L 546.73112 378.199044 
L 546.950752 276.616284 
L 547.390017 456.384727 
L 547.609649 245.449836 
L 547.829281 404.575253 
L 548.048913 296.034832 
L 548.268546 372.215972 
L 548.488178 334.882321 
L 548.70781 340.156478 
L 548.927443 375.021282 
L 549.147075 333.430058 
L 549.366707 481.291098 
L 549.586339 456.371619 
L 549.805972 348.539187 
L 550.025604 406.735404 
L 550.245236 391.051958 
L 550.464869 408.115703 
L 550.684501 343.128311 
L 550.904133 375.06289 
L 551.123765 374.358669 
L 551.343398 307.891953 
L 551.56303 338.901023 
L 551.782662 398.915646 
L 552.002295 351.254823 
L 552.221927 429.181438 
L 552.441559 259.67738 
L 552.661191 405.865373 
L 552.880824 329.724957 
L 553.100456 399.944107 
L 553.320088 297.371388 
L 553.539721 303.968861 
L 553.759353 340.191664 
L 553.978985 289.439616 
L 554.198617 500.239308 
L 554.41825 458.506285 
L 554.637882 388.05961 
L 554.857514 449.052886 
L 555.077147 437.518924 
L 555.296779 409.524678 
L 555.516411 353.762241 
L 555.736043 348.309998 
L 555.955676 508.626984 
L 556.175308 377.413898 
L 556.39494 341.903859 
L 556.614573 446.40713 
L 556.834205 381.398227 
L 557.053837 466.497218 
L 557.273469 374.281009 
L 557.712734 285.436305 
L 558.151999 403.494057 
L 558.371631 325.664353 
L 558.591263 379.305387 
L 558.810895 390.071915 
L 559.030528 447.403994 
L 559.25016 334.086863 
L 559.689425 271.329702 
L 559.909057 272.318267 
L 559.909057 272.318267 
" style="fill:none;stroke:#96c69a;stroke-linecap:round;stroke-width:3;"/>
   </g>
   <g id="line2d_2"/>
   <g id="patch_3">
    <path d="M 98.911875 602.94 
L 98.911875 109.326857 
" style="fill:none;stroke:#262626;stroke-linecap:square;stroke-linejoin:miter;stroke-width:2.5;"/>
   </g>
   <g id="patch_4">
    <path d="M 98.911875 602.94 
L 581.861304 602.94 
" style="fill:none;stroke:#262626;stroke-linecap:square;stroke-linejoin:miter;stroke-width:2.5;"/>
   </g>
   <g id="legend_1">
    <g id="patch_5">
     <path d="M 528.945679 597.94 
L 574.861304 597.94 
Q 576.861304 597.94 576.861304 595.94 
L 576.861304 554.034375 
Q 576.861304 552.034375 574.861304 552.034375 
L 528.945679 552.034375 
Q 526.945679 552.034375 526.945679 554.034375 
L 526.945679 595.94 
Q 526.945679 597.94 528.945679 597.94 
z
" style="fill:#ffffff;opacity:0.8;stroke:#cccccc;stroke-linejoin:miter;stroke-width:2;"/>
    </g>
    <g id="text_17">
     <!-- $n_\tau$ -->
     <g style="fill:#262626;" transform="translate(538.823491 574.270625)scale(0.24 -0.24)">
      <defs>
       <path d="M 3566 2113 
L 3156 0 
L 2578 0 
L 2988 2091 
Q 3016 2238 3031 2350 
Q 3047 2463 3047 2528 
Q 3047 2791 2881 2937 
Q 2716 3084 2419 3084 
Q 1956 3084 1622 2776 
Q 1288 2469 1184 1941 
L 800 0 
L 225 0 
L 903 3500 
L 1478 3500 
L 1363 2950 
Q 1603 3253 1940 3418 
Q 2278 3584 2650 3584 
Q 3113 3584 3367 3334 
Q 3622 3084 3622 2631 
Q 3622 2519 3608 2391 
Q 3594 2263 3566 2113 
z
" id="DejaVuSans-Oblique-6e" transform="scale(0.015625)"/>
       <path d="M 2103 638 
Q 2188 488 2525 488 
L 2800 488 
L 2706 0 
L 2363 0 
Q 1800 0 1600 300 
Q 1403 606 1534 1269 
L 1856 2925 
L 541 2925 
L 653 3500 
L 3881 3500 
L 3769 2925 
L 2444 2925 
L 2113 1234 
Q 2025 781 2103 638 
z
" id="DejaVuSans-Oblique-3c4" transform="scale(0.015625)"/>
      </defs>
      <use xlink:href="#DejaVuSans-Oblique-6e"/>
      <use transform="translate(63.378906 -16.40625)scale(0.7)" xlink:href="#DejaVuSans-Oblique-3c4"/>
     </g>
    </g>
    <g id="line2d_3">
     <path d="M 530.945679 588.360312 
L 550.945679 588.360312 
" style="fill:none;stroke:#96c69a;stroke-linecap:round;stroke-width:3;"/>
    </g>
    <g id="line2d_4"/>
    <g id="text_18">
     <!-- 20 -->
     <g style="fill:#262626;" transform="translate(558.945679 591.860312)scale(0.1 -0.1)">
      <defs>
       <path d="M 1844 884 
L 3897 884 
L 3897 0 
L 506 0 
L 506 884 
L 2209 2388 
Q 2438 2594 2547 2791 
Q 2656 2988 2656 3200 
Q 2656 3528 2436 3728 
Q 2216 3928 1850 3928 
Q 1569 3928 1234 3808 
Q 900 3688 519 3450 
L 519 4475 
Q 925 4609 1322 4679 
Q 1719 4750 2100 4750 
Q 2938 4750 3402 4381 
Q 3866 4013 3866 3353 
Q 3866 2972 3669 2642 
Q 3472 2313 2841 1759 
L 1844 884 
z
" id="DejaVuSans-Bold-32" transform="scale(0.015625)"/>
       <path d="M 2944 2338 
Q 2944 3213 2780 3570 
Q 2616 3928 2228 3928 
Q 1841 3928 1675 3570 
Q 1509 3213 1509 2338 
Q 1509 1453 1675 1090 
Q 1841 728 2228 728 
Q 2613 728 2778 1090 
Q 2944 1453 2944 2338 
z
M 4147 2328 
Q 4147 1169 3647 539 
Q 3147 -91 2228 -91 
Q 1306 -91 806 539 
Q 306 1169 306 2328 
Q 306 3491 806 4120 
Q 1306 4750 2228 4750 
Q 3147 4750 3647 4120 
Q 4147 3491 4147 2328 
z
" id="DejaVuSans-Bold-30" transform="scale(0.015625)"/>
      </defs>
      <use xlink:href="#DejaVuSans-Bold-32"/>
      <use x="69.580078" xlink:href="#DejaVuSans-Bold-30"/>
     </g>
    </g>
   </g>
  </g>
  <g id="axes_2">
   <g id="patch_6">
    <path d="M 98.911875 92.305714 
L 581.861304 92.305714 
L 581.861304 7.2 
L 98.911875 7.2 
z
" style="fill:none;"/>
   </g>
   <g id="matplotlib.axis_3">
    <g id="xtick_7"/>
    <g id="xtick_8"/>
    <g id="xtick_9"/>
    <g id="xtick_10"/>
    <g id="xtick_11"/>
    <g id="xtick_12"/>
   </g>
   <g id="matplotlib.axis_4">
    <g id="ytick_9">
     <g id="text_19">
      <!-- 0 -->
      <g style="fill:#262626;" transform="translate(69.414375 100.663996)scale(0.22 -0.22)">
       <use xlink:href="#DejaVuSans-30"/>
      </g>
     </g>
    </g>
    <g id="ytick_10">
     <g id="text_20">
      <!-- 100 -->
      <g style="fill:#262626;" transform="translate(41.419375 48.032138)scale(0.22 -0.22)">
       <use xlink:href="#DejaVuSans-31"/>
       <use x="63.623047" xlink:href="#DejaVuSans-30"/>
       <use x="127.246094" xlink:href="#DejaVuSans-30"/>
      </g>
     </g>
    </g>
   </g>
   <g id="patch_7">
    <path clip-path="url(#p3e5e6160f7)" d="M 120.864122 92.305714 
L 154.636809 92.305714 
L 154.636809 11.252653 
L 120.864122 11.252653 
z
" style="fill:#96c69a;fill-opacity:0.5;stroke:#ffffff;stroke-linejoin:miter;stroke-width:2;"/>
   </g>
   <g id="patch_8">
    <path clip-path="url(#p3e5e6160f7)" d="M 154.636809 92.305714 
L 188.409496 92.305714 
L 188.409496 11.252653 
L 154.636809 11.252653 
z
" style="fill:#96c69a;fill-opacity:0.5;stroke:#ffffff;stroke-linejoin:miter;stroke-width:2;"/>
   </g>
   <g id="patch_9">
    <path clip-path="url(#p3e5e6160f7)" d="M 188.409496 92.305714 
L 222.182184 92.305714 
L 222.182184 11.252653 
L 188.409496 11.252653 
z
" style="fill:#96c69a;fill-opacity:0.5;stroke:#ffffff;stroke-linejoin:miter;stroke-width:2;"/>
   </g>
   <g id="patch_10">
    <path clip-path="url(#p3e5e6160f7)" d="M 222.182184 92.305714 
L 255.954871 92.305714 
L 255.954871 11.252653 
L 222.182184 11.252653 
z
" style="fill:#96c69a;fill-opacity:0.5;stroke:#ffffff;stroke-linejoin:miter;stroke-width:2;"/>
   </g>
   <g id="patch_11">
    <path clip-path="url(#p3e5e6160f7)" d="M 255.954871 92.305714 
L 289.727558 92.305714 
L 289.727558 11.778972 
L 255.954871 11.778972 
z
" style="fill:#96c69a;fill-opacity:0.5;stroke:#ffffff;stroke-linejoin:miter;stroke-width:2;"/>
   </g>
   <g id="patch_12">
    <path clip-path="url(#p3e5e6160f7)" d="M 289.727558 92.305714 
L 323.500246 92.305714 
L 323.500246 11.252653 
L 289.727558 11.252653 
z
" style="fill:#96c69a;fill-opacity:0.5;stroke:#ffffff;stroke-linejoin:miter;stroke-width:2;"/>
   </g>
   <g id="patch_13">
    <path clip-path="url(#p3e5e6160f7)" d="M 323.500246 92.305714 
L 357.272933 92.305714 
L 357.272933 11.252653 
L 323.500246 11.252653 
z
" style="fill:#96c69a;fill-opacity:0.5;stroke:#ffffff;stroke-linejoin:miter;stroke-width:2;"/>
   </g>
   <g id="patch_14">
    <path clip-path="url(#p3e5e6160f7)" d="M 357.272933 92.305714 
L 391.04562 92.305714 
L 391.04562 11.252653 
L 357.272933 11.252653 
z
" style="fill:#96c69a;fill-opacity:0.5;stroke:#ffffff;stroke-linejoin:miter;stroke-width:2;"/>
   </g>
   <g id="patch_15">
    <path clip-path="url(#p3e5e6160f7)" d="M 391.04562 92.305714 
L 424.818308 92.305714 
L 424.818308 11.778972 
L 391.04562 11.778972 
z
" style="fill:#96c69a;fill-opacity:0.5;stroke:#ffffff;stroke-linejoin:miter;stroke-width:2;"/>
   </g>
   <g id="patch_16">
    <path clip-path="url(#p3e5e6160f7)" d="M 424.818308 92.305714 
L 458.590995 92.305714 
L 458.590995 11.252653 
L 424.818308 11.252653 
z
" style="fill:#96c69a;fill-opacity:0.5;stroke:#ffffff;stroke-linejoin:miter;stroke-width:2;"/>
   </g>
   <g id="patch_17">
    <path clip-path="url(#p3e5e6160f7)" d="M 458.590995 92.305714 
L 492.363682 92.305714 
L 492.363682 11.252653 
L 458.590995 11.252653 
z
" style="fill:#96c69a;fill-opacity:0.5;stroke:#ffffff;stroke-linejoin:miter;stroke-width:2;"/>
   </g>
   <g id="patch_18">
    <path clip-path="url(#p3e5e6160f7)" d="M 492.363682 92.305714 
L 526.13637 92.305714 
L 526.13637 11.252653 
L 492.363682 11.252653 
z
" style="fill:#96c69a;fill-opacity:0.5;stroke:#ffffff;stroke-linejoin:miter;stroke-width:2;"/>
   </g>
   <g id="patch_19">
    <path clip-path="url(#p3e5e6160f7)" d="M 526.13637 92.305714 
L 559.909057 92.305714 
L 559.909057 11.252653 
L 526.13637 11.252653 
z
" style="fill:#96c69a;fill-opacity:0.5;stroke:#ffffff;stroke-linejoin:miter;stroke-width:2;"/>
   </g>
   <g id="patch_20">
    <path d="M 98.911875 92.305714 
L 98.911875 7.2 
" style="fill:none;stroke:#262626;stroke-linecap:square;stroke-linejoin:miter;stroke-width:2.5;"/>
   </g>
   <g id="patch_21">
    <path d="M 98.911875 92.305714 
L 581.861304 92.305714 
" style="fill:none;stroke:#262626;stroke-linecap:square;stroke-linejoin:miter;stroke-width:2.5;"/>
   </g>
  </g>
  <g id="axes_3">
   <g id="patch_22">
    <path d="M 598.514732 602.94 
L 681.781875 602.94 
L 681.781875 109.326857 
L 598.514732 109.326857 
z
" style="fill:none;"/>
   </g>
   <g id="matplotlib.axis_5">
    <g id="xtick_13">
     <g id="text_21">
      <!-- 0 -->
      <g style="fill:#262626;" transform="translate(591.515982 635.156562)scale(0.22 -0.22)">
       <use xlink:href="#DejaVuSans-30"/>
      </g>
     </g>
    </g>
    <g id="xtick_14">
     <g id="text_22">
      <!-- 100 -->
      <g style="fill:#262626;" transform="translate(623.893945 635.156562)scale(0.22 -0.22)">
       <use xlink:href="#DejaVuSans-31"/>
       <use x="63.623047" xlink:href="#DejaVuSans-30"/>
       <use x="127.246094" xlink:href="#DejaVuSans-30"/>
      </g>
     </g>
    </g>
   </g>
   <g id="matplotlib.axis_6">
    <g id="ytick_11"/>
    <g id="ytick_12"/>
    <g id="ytick_13"/>
    <g id="ytick_14"/>
    <g id="ytick_15"/>
    <g id="ytick_16"/>
    <g id="ytick_17"/>
    <g id="ytick_18"/>
   </g>
   <g id="patch_23">
    <path clip-path="url(#p6aa2f8bbc9)" d="M 598.514732 580.503039 
L 598.978487 580.503039 
L 598.978487 567.304827 
L 598.514732 567.304827 
z
" style="fill:#96c69a;fill-opacity:0.5;stroke:#ffffff;stroke-linejoin:miter;stroke-width:1.319821;"/>
   </g>
   <g id="patch_24">
    <path clip-path="url(#p6aa2f8bbc9)" d="M 598.514732 567.304827 
L 598.978487 567.304827 
L 598.978487 554.106614 
L 598.514732 554.106614 
z
" style="fill:#96c69a;fill-opacity:0.5;stroke:#ffffff;stroke-linejoin:miter;stroke-width:1.319821;"/>
   </g>
   <g id="patch_25">
    <path clip-path="url(#p6aa2f8bbc9)" d="M 598.514732 554.106614 
L 598.514732 554.106614 
L 598.514732 540.908402 
L 598.514732 540.908402 
z
" style="fill:#96c69a;fill-opacity:0.5;stroke:#ffffff;stroke-linejoin:miter;stroke-width:1.319821;"/>
   </g>
   <g id="patch_26">
    <path clip-path="url(#p6aa2f8bbc9)" d="M 598.514732 540.908402 
L 600.369751 540.908402 
L 600.369751 527.710189 
L 598.514732 527.710189 
z
" style="fill:#96c69a;fill-opacity:0.5;stroke:#ffffff;stroke-linejoin:miter;stroke-width:1.319821;"/>
   </g>
   <g id="patch_27">
    <path clip-path="url(#p6aa2f8bbc9)" d="M 598.514732 527.710189 
L 601.761015 527.710189 
L 601.761015 514.511977 
L 598.514732 514.511977 
z
" style="fill:#96c69a;fill-opacity:0.5;stroke:#ffffff;stroke-linejoin:miter;stroke-width:1.319821;"/>
   </g>
   <g id="patch_28">
    <path clip-path="url(#p6aa2f8bbc9)" d="M 598.514732 514.511977 
L 605.934806 514.511977 
L 605.934806 501.313765 
L 598.514732 501.313765 
z
" style="fill:#96c69a;fill-opacity:0.5;stroke:#ffffff;stroke-linejoin:miter;stroke-width:1.319821;"/>
   </g>
   <g id="patch_29">
    <path clip-path="url(#p6aa2f8bbc9)" d="M 598.514732 501.313765 
L 605.471052 501.313765 
L 605.471052 488.115552 
L 598.514732 488.115552 
z
" style="fill:#96c69a;fill-opacity:0.5;stroke:#ffffff;stroke-linejoin:miter;stroke-width:1.319821;"/>
   </g>
   <g id="patch_30">
    <path clip-path="url(#p6aa2f8bbc9)" d="M 598.514732 488.115552 
L 617.064917 488.115552 
L 617.064917 474.91734 
L 598.514732 474.91734 
z
" style="fill:#96c69a;fill-opacity:0.5;stroke:#ffffff;stroke-linejoin:miter;stroke-width:1.319821;"/>
   </g>
   <g id="patch_31">
    <path clip-path="url(#p6aa2f8bbc9)" d="M 598.514732 474.91734 
L 624.484991 474.91734 
L 624.484991 461.719128 
L 598.514732 461.719128 
z
" style="fill:#96c69a;fill-opacity:0.5;stroke:#ffffff;stroke-linejoin:miter;stroke-width:1.319821;"/>
   </g>
   <g id="patch_32">
    <path clip-path="url(#p6aa2f8bbc9)" d="M 598.514732 461.719128 
L 627.267519 461.719128 
L 627.267519 448.520915 
L 598.514732 448.520915 
z
" style="fill:#96c69a;fill-opacity:0.5;stroke:#ffffff;stroke-linejoin:miter;stroke-width:1.319821;"/>
   </g>
   <g id="patch_33">
    <path clip-path="url(#p6aa2f8bbc9)" d="M 598.514732 448.520915 
L 640.716403 448.520915 
L 640.716403 435.322703 
L 598.514732 435.322703 
z
" style="fill:#96c69a;fill-opacity:0.5;stroke:#ffffff;stroke-linejoin:miter;stroke-width:1.319821;"/>
   </g>
   <g id="patch_34">
    <path clip-path="url(#p6aa2f8bbc9)" d="M 598.514732 435.322703 
L 650.919005 435.322703 
L 650.919005 422.12449 
L 598.514732 422.12449 
z
" style="fill:#96c69a;fill-opacity:0.5;stroke:#ffffff;stroke-linejoin:miter;stroke-width:1.319821;"/>
   </g>
   <g id="patch_35">
    <path clip-path="url(#p6aa2f8bbc9)" d="M 598.514732 422.12449 
L 652.774023 422.12449 
L 652.774023 408.926278 
L 598.514732 408.926278 
z
" style="fill:#96c69a;fill-opacity:0.5;stroke:#ffffff;stroke-linejoin:miter;stroke-width:1.319821;"/>
   </g>
   <g id="patch_36">
    <path clip-path="url(#p6aa2f8bbc9)" d="M 598.514732 408.926278 
L 670.396699 408.926278 
L 670.396699 395.728066 
L 598.514732 395.728066 
z
" style="fill:#96c69a;fill-opacity:0.5;stroke:#ffffff;stroke-linejoin:miter;stroke-width:1.319821;"/>
   </g>
   <g id="patch_37">
    <path clip-path="url(#p6aa2f8bbc9)" d="M 598.514732 395.728066 
L 677.816773 395.728066 
L 677.816773 382.529853 
L 598.514732 382.529853 
z
" style="fill:#96c69a;fill-opacity:0.5;stroke:#ffffff;stroke-linejoin:miter;stroke-width:1.319821;"/>
   </g>
   <g id="patch_38">
    <path clip-path="url(#p6aa2f8bbc9)" d="M 598.514732 382.529853 
L 671.787963 382.529853 
L 671.787963 369.331641 
L 598.514732 369.331641 
z
" style="fill:#96c69a;fill-opacity:0.5;stroke:#ffffff;stroke-linejoin:miter;stroke-width:1.319821;"/>
   </g>
   <g id="patch_39">
    <path clip-path="url(#p6aa2f8bbc9)" d="M 598.514732 369.331641 
L 663.904134 369.331641 
L 663.904134 356.133429 
L 598.514732 356.133429 
z
" style="fill:#96c69a;fill-opacity:0.5;stroke:#ffffff;stroke-linejoin:miter;stroke-width:1.319821;"/>
   </g>
   <g id="patch_40">
    <path clip-path="url(#p6aa2f8bbc9)" d="M 598.514732 356.133429 
L 677.353018 356.133429 
L 677.353018 342.935216 
L 598.514732 342.935216 
z
" style="fill:#96c69a;fill-opacity:0.5;stroke:#ffffff;stroke-linejoin:miter;stroke-width:1.319821;"/>
   </g>
   <g id="patch_41">
    <path clip-path="url(#p6aa2f8bbc9)" d="M 598.514732 342.935216 
L 668.54168 342.935216 
L 668.54168 329.737004 
L 598.514732 329.737004 
z
" style="fill:#96c69a;fill-opacity:0.5;stroke:#ffffff;stroke-linejoin:miter;stroke-width:1.319821;"/>
   </g>
   <g id="patch_42">
    <path clip-path="url(#p6aa2f8bbc9)" d="M 598.514732 329.737004 
L 662.51287 329.737004 
L 662.51287 316.538791 
L 598.514732 316.538791 
z
" style="fill:#96c69a;fill-opacity:0.5;stroke:#ffffff;stroke-linejoin:miter;stroke-width:1.319821;"/>
   </g>
   <g id="patch_43">
    <path clip-path="url(#p6aa2f8bbc9)" d="M 598.514732 316.538791 
L 649.991495 316.538791 
L 649.991495 303.340579 
L 598.514732 303.340579 
z
" style="fill:#96c69a;fill-opacity:0.5;stroke:#ffffff;stroke-linejoin:miter;stroke-width:1.319821;"/>
   </g>
   <g id="patch_44">
    <path clip-path="url(#p6aa2f8bbc9)" d="M 598.514732 303.340579 
L 637.006366 303.340579 
L 637.006366 290.142367 
L 598.514732 290.142367 
z
" style="fill:#96c69a;fill-opacity:0.5;stroke:#ffffff;stroke-linejoin:miter;stroke-width:1.319821;"/>
   </g>
   <g id="patch_45">
    <path clip-path="url(#p6aa2f8bbc9)" d="M 598.514732 290.142367 
L 624.948746 290.142367 
L 624.948746 276.944154 
L 598.514732 276.944154 
z
" style="fill:#96c69a;fill-opacity:0.5;stroke:#ffffff;stroke-linejoin:miter;stroke-width:1.319821;"/>
   </g>
   <g id="patch_46">
    <path clip-path="url(#p6aa2f8bbc9)" d="M 598.514732 276.944154 
L 616.137408 276.944154 
L 616.137408 263.745942 
L 598.514732 263.745942 
z
" style="fill:#96c69a;fill-opacity:0.5;stroke:#ffffff;stroke-linejoin:miter;stroke-width:1.319821;"/>
   </g>
   <g id="patch_47">
    <path clip-path="url(#p6aa2f8bbc9)" d="M 598.514732 263.745942 
L 614.282389 263.745942 
L 614.282389 250.54773 
L 598.514732 250.54773 
z
" style="fill:#96c69a;fill-opacity:0.5;stroke:#ffffff;stroke-linejoin:miter;stroke-width:1.319821;"/>
   </g>
   <g id="patch_48">
    <path clip-path="url(#p6aa2f8bbc9)" d="M 598.514732 250.54773 
L 610.108598 250.54773 
L 610.108598 237.349517 
L 598.514732 237.349517 
z
" style="fill:#96c69a;fill-opacity:0.5;stroke:#ffffff;stroke-linejoin:miter;stroke-width:1.319821;"/>
   </g>
   <g id="patch_49">
    <path clip-path="url(#p6aa2f8bbc9)" d="M 598.514732 237.349517 
L 605.471052 237.349517 
L 605.471052 224.151305 
L 598.514732 224.151305 
z
" style="fill:#96c69a;fill-opacity:0.5;stroke:#ffffff;stroke-linejoin:miter;stroke-width:1.319821;"/>
   </g>
   <g id="patch_50">
    <path clip-path="url(#p6aa2f8bbc9)" d="M 598.514732 224.151305 
L 605.934806 224.151305 
L 605.934806 210.953092 
L 598.514732 210.953092 
z
" style="fill:#96c69a;fill-opacity:0.5;stroke:#ffffff;stroke-linejoin:miter;stroke-width:1.319821;"/>
   </g>
   <g id="patch_51">
    <path clip-path="url(#p6aa2f8bbc9)" d="M 598.514732 210.953092 
L 600.833505 210.953092 
L 600.833505 197.75488 
L 598.514732 197.75488 
z
" style="fill:#96c69a;fill-opacity:0.5;stroke:#ffffff;stroke-linejoin:miter;stroke-width:1.319821;"/>
   </g>
   <g id="patch_52">
    <path clip-path="url(#p6aa2f8bbc9)" d="M 598.514732 197.75488 
L 600.833505 197.75488 
L 600.833505 184.556668 
L 598.514732 184.556668 
z
" style="fill:#96c69a;fill-opacity:0.5;stroke:#ffffff;stroke-linejoin:miter;stroke-width:1.319821;"/>
   </g>
   <g id="patch_53">
    <path clip-path="url(#p6aa2f8bbc9)" d="M 598.514732 184.556668 
L 599.905996 184.556668 
L 599.905996 171.358455 
L 598.514732 171.358455 
z
" style="fill:#96c69a;fill-opacity:0.5;stroke:#ffffff;stroke-linejoin:miter;stroke-width:1.319821;"/>
   </g>
   <g id="patch_54">
    <path clip-path="url(#p6aa2f8bbc9)" d="M 598.514732 171.358455 
L 598.514732 171.358455 
L 598.514732 158.160243 
L 598.514732 158.160243 
z
" style="fill:#96c69a;fill-opacity:0.5;stroke:#ffffff;stroke-linejoin:miter;stroke-width:1.319821;"/>
   </g>
   <g id="patch_55">
    <path clip-path="url(#p6aa2f8bbc9)" d="M 598.514732 158.160243 
L 598.514732 158.160243 
L 598.514732 144.962031 
L 598.514732 144.962031 
z
" style="fill:#96c69a;fill-opacity:0.5;stroke:#ffffff;stroke-linejoin:miter;stroke-width:1.319821;"/>
   </g>
   <g id="patch_56">
    <path clip-path="url(#p6aa2f8bbc9)" d="M 598.514732 144.962031 
L 598.978487 144.962031 
L 598.978487 131.763818 
L 598.514732 131.763818 
z
" style="fill:#96c69a;fill-opacity:0.5;stroke:#ffffff;stroke-linejoin:miter;stroke-width:1.319821;"/>
   </g>
   <g id="patch_57">
    <path d="M 598.514732 602.94 
L 598.514732 109.326857 
" style="fill:none;stroke:#262626;stroke-linecap:square;stroke-linejoin:miter;stroke-width:2.5;"/>
   </g>
   <g id="patch_58">
    <path d="M 598.514732 602.94 
L 681.781875 602.94 
" style="fill:none;stroke:#262626;stroke-linecap:square;stroke-linejoin:miter;stroke-width:2.5;"/>
   </g>
  </g>
 </g>
 <defs>
  <clipPath id="pce4717e2f8">
   <rect height="493.613143" width="482.949429" x="98.911875" y="109.326857"/>
  </clipPath>
  <clipPath id="p3e5e6160f7">
   <rect height="85.105714" width="482.949429" x="98.911875" y="7.2"/>
  </clipPath>
  <clipPath id="p6aa2f8bbc9">
   <rect height="493.613143" width="83.267143" x="598.514732" y="109.326857"/>
  </clipPath>
 </defs>
</svg>
