<?xml version="1.0" encoding="utf-8" standalone="no"?>
<!DOCTYPE svg PUBLIC "-//W3C//DTD SVG 1.1//EN"
  "http://www.w3.org/Graphics/SVG/1.1/DTD/svg11.dtd">
<svg height="675.079375pt" version="1.1" viewBox="0 0 674.774375 675.079375" width="674.774375pt" xmlns="http://www.w3.org/2000/svg" xmlns:xlink="http://www.w3.org/1999/xlink">
 <metadata>
  <rdf:RDF xmlns:cc="http://creativecommons.org/ns#" xmlns:dc="http://purl.org/dc/elements/1.1/" xmlns:rdf="http://www.w3.org/1999/02/22-rdf-syntax-ns#">
   <cc:Work>
    <dc:type rdf:resource="http://purl.org/dc/dcmitype/StillImage"/>
    <dc:date>2021-07-16T22:22:02.949414</dc:date>
    <dc:format>image/svg+xml</dc:format>
    <dc:creator>
     <cc:Agent>
      <dc:title>Matplotlib v3.4.2, https://matplotlib.org/</dc:title>
     </cc:Agent>
    </dc:creator>
   </cc:Work>
  </rdf:RDF>
 </metadata>
 <defs>
  <style type="text/css">*{stroke-linecap:butt;stroke-linejoin:round;}</style>
 </defs>
 <g id="figure_1">
  <g id="patch_1">
   <path d="M 0 675.079375 
L 674.774375 675.079375 
L 674.774375 0 
L 0 0 
z
" style="fill:#ffffff;"/>
  </g>
  <g id="axes_1">
   <g id="patch_2">
    <path d="M 84.914375 603.86 
L 567.689804 603.86 
L 567.689804 109.484571 
L 84.914375 109.484571 
z
" style="fill:none;"/>
   </g>
   <g id="matplotlib.axis_1">
    <g id="xtick_1">
     <g id="text_1">
      <!-- 0 -->
      <g style="fill:#262626;" transform="translate(99.64041 636.076563)scale(0.22 -0.22)">
       <defs>
        <path d="M 2034 4250 
Q 1547 4250 1301 3770 
Q 1056 3291 1056 2328 
Q 1056 1369 1301 889 
Q 1547 409 2034 409 
Q 2525 409 2770 889 
Q 3016 1369 3016 2328 
Q 3016 3291 2770 3770 
Q 2525 4250 2034 4250 
z
M 2034 4750 
Q 2819 4750 3233 4129 
Q 3647 3509 3647 2328 
Q 3647 1150 3233 529 
Q 2819 -91 2034 -91 
Q 1250 -91 836 529 
Q 422 1150 422 2328 
Q 422 3509 836 4129 
Q 1250 4750 2034 4750 
z
" id="DejaVuSans-30" transform="scale(0.015625)"/>
       </defs>
       <use xlink:href="#DejaVuSans-30"/>
      </g>
     </g>
    </g>
    <g id="xtick_2">
     <g id="text_2">
      <!-- 20000 -->
      <g style="fill:#262626;" transform="translate(159.466671 636.076563)scale(0.22 -0.22)">
       <defs>
        <path d="M 1228 531 
L 3431 531 
L 3431 0 
L 469 0 
L 469 531 
Q 828 903 1448 1529 
Q 2069 2156 2228 2338 
Q 2531 2678 2651 2914 
Q 2772 3150 2772 3378 
Q 2772 3750 2511 3984 
Q 2250 4219 1831 4219 
Q 1534 4219 1204 4116 
Q 875 4013 500 3803 
L 500 4441 
Q 881 4594 1212 4672 
Q 1544 4750 1819 4750 
Q 2544 4750 2975 4387 
Q 3406 4025 3406 3419 
Q 3406 3131 3298 2873 
Q 3191 2616 2906 2266 
Q 2828 2175 2409 1742 
Q 1991 1309 1228 531 
z
" id="DejaVuSans-32" transform="scale(0.015625)"/>
       </defs>
       <use xlink:href="#DejaVuSans-32"/>
       <use x="63.623047" xlink:href="#DejaVuSans-30"/>
       <use x="127.246094" xlink:href="#DejaVuSans-30"/>
       <use x="190.869141" xlink:href="#DejaVuSans-30"/>
       <use x="254.492188" xlink:href="#DejaVuSans-30"/>
      </g>
     </g>
    </g>
    <g id="xtick_3">
     <g id="text_3">
      <!-- 40000 -->
      <g style="fill:#262626;" transform="translate(247.287932 636.076563)scale(0.22 -0.22)">
       <defs>
        <path d="M 2419 4116 
L 825 1625 
L 2419 1625 
L 2419 4116 
z
M 2253 4666 
L 3047 4666 
L 3047 1625 
L 3713 1625 
L 3713 1100 
L 3047 1100 
L 3047 0 
L 2419 0 
L 2419 1100 
L 313 1100 
L 313 1709 
L 2253 4666 
z
" id="DejaVuSans-34" transform="scale(0.015625)"/>
       </defs>
       <use xlink:href="#DejaVuSans-34"/>
       <use x="63.623047" xlink:href="#DejaVuSans-30"/>
       <use x="127.246094" xlink:href="#DejaVuSans-30"/>
       <use x="190.869141" xlink:href="#DejaVuSans-30"/>
       <use x="254.492188" xlink:href="#DejaVuSans-30"/>
      </g>
     </g>
    </g>
    <g id="xtick_4">
     <g id="text_4">
      <!-- 60000 -->
      <g style="fill:#262626;" transform="translate(335.109193 636.076563)scale(0.22 -0.22)">
       <defs>
        <path d="M 2113 2584 
Q 1688 2584 1439 2293 
Q 1191 2003 1191 1497 
Q 1191 994 1439 701 
Q 1688 409 2113 409 
Q 2538 409 2786 701 
Q 3034 994 3034 1497 
Q 3034 2003 2786 2293 
Q 2538 2584 2113 2584 
z
M 3366 4563 
L 3366 3988 
Q 3128 4100 2886 4159 
Q 2644 4219 2406 4219 
Q 1781 4219 1451 3797 
Q 1122 3375 1075 2522 
Q 1259 2794 1537 2939 
Q 1816 3084 2150 3084 
Q 2853 3084 3261 2657 
Q 3669 2231 3669 1497 
Q 3669 778 3244 343 
Q 2819 -91 2113 -91 
Q 1303 -91 875 529 
Q 447 1150 447 2328 
Q 447 3434 972 4092 
Q 1497 4750 2381 4750 
Q 2619 4750 2861 4703 
Q 3103 4656 3366 4563 
z
" id="DejaVuSans-36" transform="scale(0.015625)"/>
       </defs>
       <use xlink:href="#DejaVuSans-36"/>
       <use x="63.623047" xlink:href="#DejaVuSans-30"/>
       <use x="127.246094" xlink:href="#DejaVuSans-30"/>
       <use x="190.869141" xlink:href="#DejaVuSans-30"/>
       <use x="254.492188" xlink:href="#DejaVuSans-30"/>
      </g>
     </g>
    </g>
    <g id="xtick_5">
     <g id="text_5">
      <!-- 80000 -->
      <g style="fill:#262626;" transform="translate(422.930455 636.076563)scale(0.22 -0.22)">
       <defs>
        <path d="M 2034 2216 
Q 1584 2216 1326 1975 
Q 1069 1734 1069 1313 
Q 1069 891 1326 650 
Q 1584 409 2034 409 
Q 2484 409 2743 651 
Q 3003 894 3003 1313 
Q 3003 1734 2745 1975 
Q 2488 2216 2034 2216 
z
M 1403 2484 
Q 997 2584 770 2862 
Q 544 3141 544 3541 
Q 544 4100 942 4425 
Q 1341 4750 2034 4750 
Q 2731 4750 3128 4425 
Q 3525 4100 3525 3541 
Q 3525 3141 3298 2862 
Q 3072 2584 2669 2484 
Q 3125 2378 3379 2068 
Q 3634 1759 3634 1313 
Q 3634 634 3220 271 
Q 2806 -91 2034 -91 
Q 1263 -91 848 271 
Q 434 634 434 1313 
Q 434 1759 690 2068 
Q 947 2378 1403 2484 
z
M 1172 3481 
Q 1172 3119 1398 2916 
Q 1625 2713 2034 2713 
Q 2441 2713 2670 2916 
Q 2900 3119 2900 3481 
Q 2900 3844 2670 4047 
Q 2441 4250 2034 4250 
Q 1625 4250 1398 4047 
Q 1172 3844 1172 3481 
z
" id="DejaVuSans-38" transform="scale(0.015625)"/>
       </defs>
       <use xlink:href="#DejaVuSans-38"/>
       <use x="63.623047" xlink:href="#DejaVuSans-30"/>
       <use x="127.246094" xlink:href="#DejaVuSans-30"/>
       <use x="190.869141" xlink:href="#DejaVuSans-30"/>
       <use x="254.492188" xlink:href="#DejaVuSans-30"/>
      </g>
     </g>
    </g>
    <g id="xtick_6">
     <g id="text_6">
      <!-- 100000 -->
      <g style="fill:#262626;" transform="translate(503.752966 636.076563)scale(0.22 -0.22)">
       <defs>
        <path d="M 794 531 
L 1825 531 
L 1825 4091 
L 703 3866 
L 703 4441 
L 1819 4666 
L 2450 4666 
L 2450 531 
L 3481 531 
L 3481 0 
L 794 0 
L 794 531 
z
" id="DejaVuSans-31" transform="scale(0.015625)"/>
       </defs>
       <use xlink:href="#DejaVuSans-31"/>
       <use x="63.623047" xlink:href="#DejaVuSans-30"/>
       <use x="127.246094" xlink:href="#DejaVuSans-30"/>
       <use x="190.869141" xlink:href="#DejaVuSans-30"/>
       <use x="254.492188" xlink:href="#DejaVuSans-30"/>
       <use x="318.115234" xlink:href="#DejaVuSans-30"/>
      </g>
     </g>
    </g>
    <g id="text_7">
     <!-- MDTU -->
     <g style="fill:#262626;" transform="translate(290.596464 662.888125)scale(0.24 -0.24)">
      <defs>
       <path d="M 628 4666 
L 1569 4666 
L 2759 1491 
L 3956 4666 
L 4897 4666 
L 4897 0 
L 4281 0 
L 4281 4097 
L 3078 897 
L 2444 897 
L 1241 4097 
L 1241 0 
L 628 0 
L 628 4666 
z
" id="DejaVuSans-4d" transform="scale(0.015625)"/>
       <path d="M 1259 4147 
L 1259 519 
L 2022 519 
Q 2988 519 3436 956 
Q 3884 1394 3884 2338 
Q 3884 3275 3436 3711 
Q 2988 4147 2022 4147 
L 1259 4147 
z
M 628 4666 
L 1925 4666 
Q 3281 4666 3915 4102 
Q 4550 3538 4550 2338 
Q 4550 1131 3912 565 
Q 3275 0 1925 0 
L 628 0 
L 628 4666 
z
" id="DejaVuSans-44" transform="scale(0.015625)"/>
       <path d="M -19 4666 
L 3928 4666 
L 3928 4134 
L 2272 4134 
L 2272 0 
L 1638 0 
L 1638 4134 
L -19 4134 
L -19 4666 
z
" id="DejaVuSans-54" transform="scale(0.015625)"/>
       <path d="M 556 4666 
L 1191 4666 
L 1191 1831 
Q 1191 1081 1462 751 
Q 1734 422 2344 422 
Q 2950 422 3222 751 
Q 3494 1081 3494 1831 
L 3494 4666 
L 4128 4666 
L 4128 1753 
Q 4128 841 3676 375 
Q 3225 -91 2344 -91 
Q 1459 -91 1007 375 
Q 556 841 556 1753 
L 556 4666 
z
" id="DejaVuSans-55" transform="scale(0.015625)"/>
      </defs>
      <use xlink:href="#DejaVuSans-4d"/>
      <use x="86.279297" xlink:href="#DejaVuSans-44"/>
      <use x="163.28125" xlink:href="#DejaVuSans-54"/>
      <use x="224.365234" xlink:href="#DejaVuSans-55"/>
     </g>
    </g>
   </g>
   <g id="matplotlib.axis_2">
    <g id="ytick_1">
     <g id="text_8">
      <!-- 0.6 -->
      <g style="fill:#262626;" transform="translate(34.4275 527.032987)scale(0.22 -0.22)">
       <defs>
        <path d="M 684 794 
L 1344 794 
L 1344 0 
L 684 0 
L 684 794 
z
" id="DejaVuSans-2e" transform="scale(0.015625)"/>
       </defs>
       <use xlink:href="#DejaVuSans-30"/>
       <use x="63.623047" xlink:href="#DejaVuSans-2e"/>
       <use x="95.410156" xlink:href="#DejaVuSans-36"/>
      </g>
     </g>
    </g>
    <g id="ytick_2">
     <g id="text_9">
      <!-- 0.8 -->
      <g style="fill:#262626;" transform="translate(34.4275 424.33277)scale(0.22 -0.22)">
       <use xlink:href="#DejaVuSans-30"/>
       <use x="63.623047" xlink:href="#DejaVuSans-2e"/>
       <use x="95.410156" xlink:href="#DejaVuSans-38"/>
      </g>
     </g>
    </g>
    <g id="ytick_3">
     <g id="text_10">
      <!-- 1.0 -->
      <g style="fill:#262626;" transform="translate(34.4275 321.632553)scale(0.22 -0.22)">
       <use xlink:href="#DejaVuSans-31"/>
       <use x="63.623047" xlink:href="#DejaVuSans-2e"/>
       <use x="95.410156" xlink:href="#DejaVuSans-30"/>
      </g>
     </g>
    </g>
    <g id="ytick_4">
     <g id="text_11">
      <!-- 1.2 -->
      <g style="fill:#262626;" transform="translate(34.4275 218.932335)scale(0.22 -0.22)">
       <use xlink:href="#DejaVuSans-31"/>
       <use x="63.623047" xlink:href="#DejaVuSans-2e"/>
       <use x="95.410156" xlink:href="#DejaVuSans-32"/>
      </g>
     </g>
    </g>
    <g id="text_12">
     <!-- $E$ -->
     <g style="fill:#262626;" transform="translate(25.43625 364.352286)rotate(-90)scale(0.24 -0.24)">
      <defs>
       <path d="M 1081 4666 
L 4031 4666 
L 3928 4134 
L 1606 4134 
L 1338 2753 
L 3566 2753 
L 3463 2222 
L 1234 2222 
L 909 531 
L 3284 531 
L 3181 0 
L 172 0 
L 1081 4666 
z
" id="DejaVuSans-Oblique-45" transform="scale(0.015625)"/>
      </defs>
      <use transform="translate(0 0.09375)" xlink:href="#DejaVuSans-Oblique-45"/>
     </g>
    </g>
   </g>
   <g id="line2d_1">
    <path clip-path="url(#p2c9bb99393)" d="M 106.858713 454.086591 
L 107.078266 421.39568 
L 107.297819 477.610451 
L 107.517372 472.379915 
L 107.736925 423.346748 
L 107.956478 455.656609 
L 108.176032 439.859172 
L 108.395585 330.88975 
L 108.615138 457.236877 
L 109.054244 413.174167 
L 109.273797 479.113816 
L 109.493351 380.931033 
L 109.712904 483.41353 
L 109.932457 451.37906 
L 110.15201 397.37637 
L 110.371563 438.310768 
L 110.591116 429.706386 
L 110.810669 394.489181 
L 111.030223 459.297374 
L 111.249776 444.375744 
L 111.469329 369.837483 
L 111.688882 423.477336 
L 111.908435 301.207901 
L 112.127988 365.849042 
L 112.347541 372.546407 
L 112.567095 277.080609 
L 112.786648 477.237294 
L 113.006201 377.339939 
L 113.225754 581.38839 
L 113.445307 510.686038 
L 113.66486 311.409122 
L 114.103967 450.471136 
L 114.32352 347.498462 
L 114.762626 531.135061 
L 114.982179 376.789094 
L 115.201732 388.978678 
L 115.421286 424.481152 
L 115.640839 494.289925 
L 115.860392 468.580036 
L 116.079945 273.968319 
L 116.299498 431.198911 
L 116.519051 411.583951 
L 116.738605 419.173225 
L 116.958158 431.015504 
L 117.177711 394.952536 
L 117.397264 381.157067 
L 117.83637 488.386474 
L 118.055923 407.213328 
L 118.275477 459.273987 
L 118.49503 315.071279 
L 118.714583 467.509665 
L 118.934136 319.283428 
L 119.373242 493.528998 
L 119.592796 243.843545 
L 119.812349 275.92838 
L 120.031902 416.860815 
L 120.251455 418.985899 
L 120.471008 384.833348 
L 121.129668 472.624333 
L 121.349221 526.01092 
L 121.568774 318.410665 
L 122.00788 398.900077 
L 122.227433 491.603053 
L 122.446987 360.643209 
L 122.66654 449.97106 
L 122.886093 483.896142 
L 123.105646 425.219123 
L 123.325199 440.314267 
L 123.544752 307.946412 
L 123.764305 500.241274 
L 124.203412 357.675437 
L 124.422965 484.497973 
L 124.642518 467.550669 
L 124.862071 492.63581 
L 125.081624 350.332273 
L 125.301178 376.278098 
L 125.520731 471.85733 
L 125.740284 326.956759 
L 125.959837 403.925997 
L 126.17939 386.810006 
L 126.398943 533.331233 
L 126.618496 420.613768 
L 126.83805 433.969377 
L 127.057603 377.329297 
L 127.277156 356.018633 
L 127.496709 455.291317 
L 127.935815 420.697211 
L 128.155369 416.563032 
L 128.374922 401.029643 
L 128.594475 375.307486 
L 128.814028 435.172543 
L 129.033581 399.817587 
L 129.253134 458.388991 
L 129.472687 457.503152 
L 129.692241 319.612446 
L 129.911794 498.898837 
L 130.131347 468.210278 
L 130.3509 369.650244 
L 130.570453 374.473629 
L 130.790006 470.704604 
L 131.00956 392.088713 
L 131.229113 459.888726 
L 131.448666 482.706351 
L 131.887772 387.011573 
L 132.107325 382.664081 
L 132.326878 501.295572 
L 132.546432 462.480744 
L 132.765985 471.94016 
L 132.985538 385.703433 
L 133.424644 482.092074 
L 133.644197 458.318797 
L 133.863751 450.930904 
L 134.083304 378.625575 
L 134.302857 418.098651 
L 134.52241 432.175261 
L 134.961516 393.815731 
L 135.181069 467.446593 
L 135.400623 392.410195 
L 135.620176 358.834 
L 135.839729 416.937973 
L 136.278835 296.6306 
L 136.498388 319.65184 
L 136.717941 405.524537 
L 136.937495 427.654315 
L 137.157048 338.543542 
L 137.376601 467.158695 
L 137.596154 405.555584 
L 137.815707 513.546501 
L 138.474367 401.144373 
L 138.69392 433.94328 
L 138.913473 365.482934 
L 139.133026 363.164068 
L 139.352579 516.262515 
L 139.791686 370.345483 
L 140.230792 356.30956 
L 140.669898 465.657499 
L 140.889451 441.330559 
L 141.109005 472.007985 
L 141.328558 544.592386 
L 141.548111 434.863159 
L 141.767664 435.993871 
L 141.987217 337.247679 
L 142.20677 454.950069 
L 142.426323 306.794235 
L 142.645877 282.451296 
L 143.084983 575.18383 
L 143.304536 494.456846 
L 143.524089 477.653179 
L 143.743642 377.440604 
L 143.963196 338.846023 
L 144.182749 413.26896 
L 144.402302 367.335964 
L 144.621855 452.66498 
L 144.841408 493.941969 
L 145.060961 331.368137 
L 145.280514 419.904757 
L 145.719621 361.925861 
L 146.158727 471.678462 
L 146.37828 460.871932 
L 146.597833 521.799997 
L 146.817387 418.464305 
L 147.03694 471.354128 
L 147.256493 426.947952 
L 147.695599 437.102074 
L 147.915152 454.631924 
L 148.134705 338.985291 
L 148.573812 479.870749 
L 148.793365 432.69508 
L 149.012918 522.429897 
L 149.232471 399.379271 
L 149.671578 435.587195 
L 149.891131 401.569168 
L 150.110684 480.753281 
L 150.330237 379.758402 
L 150.54979 413.51193 
L 150.769343 398.140167 
L 150.988896 493.289249 
L 151.428003 347.064247 
L 151.647556 442.48466 
L 152.086662 314.656619 
L 152.306215 497.914809 
L 152.525769 515.553341 
L 152.745322 220.567526 
L 152.964875 465.62301 
L 153.184428 555.346195 
L 153.403981 476.969257 
L 153.623534 276.934053 
L 153.843087 413.140375 
L 154.062641 321.697918 
L 154.282194 364.448577 
L 154.501747 321.287909 
L 154.7213 413.471987 
L 154.940853 248.031206 
L 155.160406 449.922539 
L 155.37996 457.459126 
L 155.599513 459.436911 
L 155.819066 403.098614 
L 156.038619 496.547403 
L 156.258172 478.834451 
L 156.477725 385.644272 
L 156.697278 402.993527 
L 156.916832 520.319192 
L 157.136385 406.161546 
L 157.355938 421.779607 
L 157.575491 338.196081 
L 158.014597 467.593155 
L 158.234151 488.709071 
L 158.453704 441.268066 
L 158.673257 445.476946 
L 158.89281 401.81079 
L 159.112363 403.110179 
L 159.551469 337.287571 
L 159.771023 397.48142 
L 159.990576 399.029636 
L 160.210129 463.380829 
L 160.429682 448.321682 
L 160.649235 464.152637 
L 160.868788 325.892296 
L 161.088342 445.006179 
L 161.307895 476.600179 
L 161.527448 312.123984 
L 161.747001 406.387787 
L 161.966554 395.788461 
L 162.186107 504.249037 
L 162.40566 355.222063 
L 162.844767 435.810129 
L 163.06432 343.114479 
L 163.283873 482.072535 
L 163.503426 458.417381 
L 163.722979 450.390805 
L 163.942532 407.878448 
L 164.162086 496.540573 
L 164.381639 387.282495 
L 164.820745 522.285922 
L 165.040298 479.745144 
L 165.259851 382.636284 
L 165.479405 418.074569 
L 165.698958 352.656872 
L 165.918511 472.421141 
L 166.138064 447.496068 
L 166.357617 391.737111 
L 166.57717 489.864835 
L 166.796723 420.522722 
L 167.016277 386.400783 
L 167.455383 447.278631 
L 167.674936 383.786049 
L 168.114042 464.877145 
L 168.333596 343.395456 
L 168.772702 421.560084 
L 168.992255 506.582229 
L 169.211808 394.099931 
L 169.431361 504.658237 
L 169.870468 331.146169 
L 170.090021 484.418241 
L 170.309574 315.732426 
L 170.529127 482.314639 
L 170.74868 500.12015 
L 171.187787 340.860532 
L 171.40734 299.981037 
L 171.626893 451.204965 
L 171.846446 470.619669 
L 172.065999 368.827258 
L 172.285552 483.45287 
L 172.505105 383.736672 
L 172.724659 429.638485 
L 172.944212 511.122357 
L 173.163765 408.876156 
L 173.383318 446.196947 
L 173.602871 334.003339 
L 173.822424 487.538542 
L 174.041978 389.771945 
L 174.261531 386.183316 
L 174.481084 259.881239 
L 174.92019 489.081858 
L 175.139743 444.339283 
L 175.359296 351.075766 
L 175.57885 509.871833 
L 176.017956 354.593605 
L 176.457062 437.774451 
L 176.676615 424.210661 
L 176.896169 494.24219 
L 177.115722 441.227259 
L 177.335275 317.848426 
L 177.554828 437.275227 
L 177.774381 443.117501 
L 177.993934 415.279669 
L 178.433041 539.527794 
L 178.652594 435.401644 
L 178.872147 516.651981 
L 179.0917 418.869506 
L 179.311253 530.887406 
L 179.530806 465.911014 
L 179.75036 457.074047 
L 179.969913 463.397632 
L 180.189466 528.721266 
L 180.409019 385.400168 
L 180.628572 499.388934 
L 181.067678 354.617334 
L 181.287232 416.263331 
L 181.506785 564.012579 
L 181.726338 422.839184 
L 181.945891 464.834248 
L 182.165444 359.756026 
L 182.384997 481.462181 
L 182.604551 455.503825 
L 182.824104 452.381907 
L 183.043657 434.971506 
L 183.26321 299.519282 
L 183.482763 318.622631 
L 183.702316 477.134473 
L 183.921869 486.788597 
L 184.141423 479.179226 
L 184.360976 318.678436 
L 184.580529 453.595594 
L 184.800082 514.567615 
L 185.019635 342.547725 
L 185.239188 356.489664 
L 185.458742 270.41352 
L 185.678295 344.165259 
L 185.897848 483.737708 
L 186.117401 466.276222 
L 186.336954 376.755437 
L 186.556507 420.415141 
L 186.77606 515.763258 
L 186.995614 386.012926 
L 187.215167 488.676544 
L 187.43472 489.537228 
L 187.654273 512.232551 
L 187.873826 465.855139 
L 188.093379 325.031322 
L 188.312932 290.800511 
L 188.532486 230.866363 
L 188.971592 463.364907 
L 189.191145 429.493502 
L 189.410698 510.08311 
L 189.630251 476.406648 
L 189.849805 406.994797 
L 190.069358 415.641214 
L 190.288911 471.711324 
L 190.508464 458.389048 
L 190.728017 230.980233 
L 190.94757 439.733851 
L 191.167123 509.666951 
L 191.386677 364.31748 
L 191.60623 390.723057 
L 191.825783 448.998733 
L 192.045336 545.306821 
L 192.264889 469.654494 
L 192.484442 313.766543 
L 192.703996 304.132632 
L 192.923549 538.101614 
L 193.362655 348.063383 
L 193.582208 401.445061 
L 193.801761 394.249117 
L 194.021314 471.911738 
L 194.240868 420.964633 
L 194.460421 242.033496 
L 194.679974 310.755049 
L 194.899527 427.700152 
L 195.11908 301.170954 
L 195.338633 438.503041 
L 195.77774 381.200658 
L 195.997293 401.701495 
L 196.216846 464.032646 
L 196.655952 491.003799 
L 196.875505 517.498158 
L 197.314612 423.594765 
L 197.534165 433.856677 
L 197.753718 414.076723 
L 197.973271 480.103728 
L 198.192824 368.653283 
L 198.412378 439.694833 
L 198.631931 286.041458 
L 198.851484 347.053918 
L 199.071037 250.727309 
L 199.29059 455.581176 
L 199.510143 454.241694 
L 199.729696 417.030093 
L 199.94925 331.441362 
L 200.168803 486.083331 
L 200.388356 383.726342 
L 200.607909 451.114183 
L 200.827462 438.528531 
L 201.047015 366.160912 
L 201.266569 484.053821 
L 201.486122 433.442552 
L 201.705675 443.504262 
L 201.925228 333.660876 
L 202.144781 446.512317 
L 202.364334 388.640921 
L 202.583887 408.967676 
L 202.803441 521.780706 
L 203.022994 351.810252 
L 203.4621 414.02485 
L 203.681653 533.401629 
L 203.901206 480.509067 
L 204.12076 388.680418 
L 204.340313 361.91723 
L 204.559866 472.108632 
L 204.779419 389.457841 
L 204.998972 441.365697 
L 205.218525 368.829109 
L 205.438078 455.812249 
L 205.657632 449.594111 
L 205.877185 502.263274 
L 206.096738 288.77033 
L 206.316291 456.76504 
L 206.535844 310.548691 
L 206.974951 491.204643 
L 207.194504 366.445518 
L 207.414057 532.759286 
L 207.853163 387.121834 
L 208.072716 451.507797 
L 208.292269 476.799145 
L 208.731376 394.653221 
L 208.950929 465.048003 
L 209.170482 384.146465 
L 209.390035 431.914061 
L 209.609588 526.679915 
L 209.829142 504.035836 
L 210.048695 391.277019 
L 210.268248 463.096028 
L 210.487801 287.383436 
L 211.14646 485.633778 
L 211.366014 419.373809 
L 211.585567 478.41867 
L 211.80512 431.944501 
L 212.024673 470.714702 
L 212.244226 464.900367 
L 212.463779 489.200075 
L 212.683333 479.13609 
L 212.902886 487.776027 
L 213.122439 334.178202 
L 213.341992 425.940373 
L 213.561545 387.607733 
L 213.781098 435.426757 
L 214.000651 348.828431 
L 214.220205 451.400479 
L 214.439758 458.556562 
L 214.659311 436.490552 
L 214.878864 503.874636 
L 215.31797 395.000272 
L 215.537523 471.197551 
L 215.757077 343.11758 
L 215.97663 376.606134 
L 216.196183 494.41841 
L 216.415736 432.695064 
L 216.635289 407.018104 
L 216.854842 410.226112 
L 217.074396 368.022083 
L 217.293949 476.957122 
L 217.513502 445.912383 
L 217.733055 437.936601 
L 218.172161 373.08733 
L 218.391714 294.45995 
L 218.611268 297.138752 
L 218.830821 465.492953 
L 219.050374 474.147448 
L 219.269927 304.575766 
L 219.48948 426.111728 
L 219.709033 478.052302 
L 220.14814 356.141316 
L 220.367693 448.497514 
L 220.587246 404.513975 
L 220.806799 532.870068 
L 221.026352 533.9847 
L 221.245905 447.923031 
L 221.465459 464.447924 
L 221.685012 370.242857 
L 221.904565 344.131149 
L 222.124118 519.24334 
L 222.343671 446.816004 
L 222.563224 448.128382 
L 222.782778 516.881375 
L 223.002331 416.647428 
L 223.221884 447.964456 
L 223.441437 411.080421 
L 223.66099 438.604855 
L 223.880543 368.27008 
L 224.100096 495.279844 
L 224.31965 343.131455 
L 224.539203 440.868969 
L 224.758756 444.381854 
L 224.978309 420.661422 
L 225.197862 428.90976 
L 225.417415 385.151965 
L 225.636969 440.287495 
L 225.856522 386.8488 
L 226.076075 461.791895 
L 226.295628 450.608742 
L 226.515181 362.287709 
L 226.734734 456.119204 
L 227.173841 386.348533 
L 227.393394 443.878102 
L 227.612947 352.81843 
L 227.8325 373.508872 
L 228.052053 564.524949 
L 228.271606 358.53079 
L 228.49116 477.609169 
L 228.710713 420.448343 
L 228.930266 444.484496 
L 229.149819 427.88256 
L 229.369372 425.188266 
L 229.588925 508.749495 
L 229.808478 327.146051 
L 230.028032 370.71971 
L 230.247585 507.988985 
L 230.467138 428.455057 
L 230.686691 485.888063 
L 230.906244 305.485723 
L 231.125797 297.669804 
L 231.345351 425.458783 
L 231.564904 389.680177 
L 231.784457 547.523237 
L 232.00401 492.750535 
L 232.223563 307.025072 
L 232.443116 507.724447 
L 232.662669 443.54621 
L 232.882223 314.468071 
L 233.101776 318.774471 
L 233.321329 365.191838 
L 233.540882 531.83671 
L 233.760435 364.6155 
L 233.979988 545.852573 
L 234.199542 498.045718 
L 234.419095 301.723583 
L 234.638648 466.482704 
L 234.858201 428.003387 
L 235.077754 464.134875 
L 235.297307 299.553613 
L 235.51686 409.821483 
L 235.736414 448.929794 
L 235.955967 335.23203 
L 236.17552 481.000723 
L 236.395073 550.835613 
L 237.053733 327.597653 
L 237.273286 398.08101 
L 237.492839 542.883258 
L 237.712392 405.789967 
L 237.931945 493.283929 
L 238.151498 313.79483 
L 238.371051 474.864434 
L 238.590605 420.561975 
L 238.810158 283.045931 
L 239.249264 448.907781 
L 239.468817 370.881988 
L 239.907924 500.753469 
L 240.127477 239.958135 
L 240.34703 426.880614 
L 240.566583 407.43619 
L 240.786136 331.39235 
L 241.005689 439.482086 
L 241.225242 185.062882 
L 241.444796 444.307415 
L 241.664349 438.381791 
L 241.883902 512.529666 
L 242.323008 344.643837 
L 242.762114 395.69626 
L 242.981668 371.822369 
L 243.201221 389.688081 
L 243.640327 467.961588 
L 243.85988 352.559157 
L 244.079433 474.385289 
L 244.298987 429.537884 
L 244.51854 293.937619 
L 244.738093 454.503298 
L 244.957646 423.441978 
L 245.177199 458.930341 
L 245.396752 474.245864 
L 245.616305 368.383839 
L 245.835859 475.068342 
L 246.055412 407.303117 
L 246.274965 447.345704 
L 246.494518 386.27295 
L 246.714071 461.97903 
L 246.933624 457.938908 
L 247.153178 401.971716 
L 247.592284 458.454161 
L 248.03139 329.427269 
L 248.250943 514.015104 
L 248.470496 420.641916 
L 248.69005 429.35066 
L 248.909603 540.573347 
L 249.129156 388.289158 
L 249.348709 376.607406 
L 249.568262 356.893474 
L 249.787815 469.126004 
L 250.007369 475.921046 
L 250.226922 435.690618 
L 250.666028 510.514524 
L 250.885581 487.662453 
L 251.105134 358.850468 
L 251.324687 439.399606 
L 251.544241 472.986387 
L 251.763794 378.996909 
L 251.983347 419.604354 
L 252.2029 404.893871 
L 252.422453 426.629086 
L 252.642006 396.501542 
L 252.86156 447.917712 
L 253.081113 376.255732 
L 253.300666 445.728927 
L 253.520219 313.191438 
L 253.739772 515.167657 
L 253.959325 296.444628 
L 254.178878 486.27686 
L 254.398432 427.868229 
L 254.617985 514.012244 
L 254.837538 502.830154 
L 255.057091 428.922667 
L 255.276644 509.142207 
L 255.496197 407.971262 
L 255.935304 343.109965 
L 256.154857 439.76604 
L 256.37441 363.650474 
L 256.593963 376.61655 
L 256.813516 455.334867 
L 257.033069 351.466447 
L 257.252623 303.97086 
L 257.472176 422.252138 
L 257.691729 358.218282 
L 257.911282 495.898779 
L 258.130835 326.397676 
L 258.350388 497.403832 
L 258.569942 428.012268 
L 258.789495 437.268179 
L 259.009048 457.643631 
L 259.228601 445.113429 
L 259.448154 357.227385 
L 259.667707 373.345965 
L 259.88726 440.879574 
L 260.106814 394.115675 
L 260.326367 392.294511 
L 260.54592 387.363235 
L 260.985026 469.938927 
L 261.204579 394.445041 
L 261.424133 480.821229 
L 261.863239 317.635727 
L 262.302345 491.105015 
L 262.521898 352.241671 
L 262.741451 476.657664 
L 262.961005 519.223641 
L 263.180558 394.708903 
L 263.400111 522.798874 
L 263.619664 369.873313 
L 264.05877 477.24036 
L 264.278324 407.163593 
L 264.497877 451.59044 
L 264.936983 291.507854 
L 265.156536 400.510872 
L 265.376089 386.97369 
L 265.595642 428.377158 
L 265.815196 299.540406 
L 266.034749 353.231995 
L 266.254302 339.494197 
L 266.473855 222.036498 
L 266.693408 274.786885 
L 266.912961 373.877601 
L 267.352068 453.364306 
L 267.571621 402.378606 
L 267.791174 414.238813 
L 268.010727 448.536126 
L 268.23028 525.094118 
L 268.669387 449.555903 
L 268.88894 348.129769 
L 269.108493 391.859879 
L 269.328046 458.762613 
L 269.547599 411.75269 
L 269.767152 485.020803 
L 269.986705 436.098355 
L 270.206259 350.991181 
L 270.425812 500.294094 
L 270.864918 340.651847 
L 271.084471 317.046609 
L 271.304024 462.025813 
L 271.523578 472.485371 
L 271.743131 297.68521 
L 271.962684 321.953419 
L 272.182237 433.010202 
L 272.40179 370.241603 
L 272.621343 470.228699 
L 272.840896 456.53729 
L 273.06045 458.95634 
L 273.499556 410.774138 
L 273.719109 446.076227 
L 274.158215 362.491649 
L 274.377769 459.405514 
L 274.597322 374.314498 
L 274.816875 408.655495 
L 275.036428 390.330261 
L 275.255981 452.041096 
L 275.475534 350.431987 
L 275.695087 519.384553 
L 275.914641 404.28891 
L 276.134194 359.429817 
L 276.353747 378.699376 
L 276.5733 451.433642 
L 276.792853 402.318786 
L 277.012406 385.685837 
L 277.23196 328.095201 
L 277.451513 373.659225 
L 277.890619 482.763612 
L 278.110172 446.586008 
L 278.329725 507.964055 
L 278.549278 427.426887 
L 278.768832 419.863409 
L 278.988385 357.45784 
L 279.207938 509.141414 
L 279.427491 513.40176 
L 279.647044 412.98198 
L 280.086151 511.387028 
L 280.305704 373.568182 
L 280.525257 422.747429 
L 280.74481 352.832701 
L 280.964363 468.992541 
L 281.183916 447.329242 
L 281.403469 484.201471 
L 281.623023 445.077725 
L 281.842576 299.357366 
L 282.281682 453.843067 
L 282.501235 439.099458 
L 282.720788 479.944198 
L 282.940342 345.816085 
L 283.159895 404.104348 
L 283.379448 387.943617 
L 283.818554 464.490577 
L 284.038107 364.44444 
L 284.25766 492.166252 
L 284.477214 404.503474 
L 284.696767 468.395217 
L 284.91632 462.451834 
L 285.355426 372.915221 
L 285.794533 453.606998 
L 286.233639 399.661297 
L 286.453192 516.714007 
L 286.892298 445.638677 
L 287.331405 404.420399 
L 287.550958 431.851293 
L 287.770511 498.681318 
L 287.990064 484.025034 
L 288.209617 502.19223 
L 288.42917 444.443617 
L 288.648724 445.287209 
L 288.868277 462.863221 
L 289.08783 343.344014 
L 289.307383 453.309341 
L 289.526936 459.961688 
L 289.746489 471.50091 
L 289.966042 476.990307 
L 290.185596 411.924677 
L 290.405149 515.978598 
L 290.844255 391.863911 
L 291.063808 406.071083 
L 291.283361 343.39361 
L 291.502915 353.61566 
L 291.722468 341.515129 
L 291.942021 401.290241 
L 292.161574 396.853192 
L 292.381127 474.918981 
L 292.60068 347.292821 
L 292.820233 440.768855 
L 293.039787 321.122005 
L 293.25934 480.302399 
L 293.478893 343.921325 
L 293.698446 413.641288 
L 293.917999 345.14069 
L 294.137552 393.296475 
L 294.357105 468.929957 
L 294.576659 436.79804 
L 294.796212 497.58207 
L 295.015765 483.646336 
L 295.235318 412.70677 
L 295.454871 401.768965 
L 295.674424 319.997151 
L 295.893978 463.963532 
L 296.113531 489.035232 
L 296.552637 433.66546 
L 296.77219 387.637857 
L 296.991743 499.050721 
L 297.211296 335.561935 
L 297.43085 449.204642 
L 297.650403 396.005711 
L 297.869956 390.567059 
L 298.309062 410.820319 
L 298.528615 443.439941 
L 298.748169 394.152645 
L 298.967722 408.965648 
L 299.187275 500.908878 
L 299.406828 291.867 
L 299.845934 473.899667 
L 300.065487 433.562071 
L 300.285041 462.822686 
L 300.504594 467.061659 
L 300.724147 439.727972 
L 300.9437 325.914585 
L 301.163253 456.922992 
L 301.382806 491.14981 
L 301.60236 471.867387 
L 301.821913 464.745346 
L 302.041466 286.420136 
L 302.261019 407.573691 
L 302.480572 447.937192 
L 302.700125 458.870682 
L 302.919678 418.91617 
L 303.139232 472.29752 
L 303.578338 442.596413 
L 303.797891 406.392542 
L 304.017444 417.314397 
L 304.236997 332.681067 
L 304.456551 426.772901 
L 304.676104 423.851163 
L 304.895657 404.374816 
L 305.554316 471.808137 
L 305.773869 462.420479 
L 305.993423 489.315924 
L 306.212976 399.17167 
L 306.432529 452.346441 
L 306.652082 409.780483 
L 306.871635 491.359891 
L 307.091188 407.050045 
L 307.310742 463.862922 
L 307.530295 473.139755 
L 307.749848 453.6247 
L 307.969401 490.103649 
L 308.408507 361.809531 
L 308.62806 419.135342 
L 308.847614 355.533172 
L 309.067167 409.635067 
L 309.28672 348.99912 
L 309.506273 459.418461 
L 309.725826 420.102294 
L 309.945379 435.060375 
L 310.164933 260.72902 
L 310.384486 502.002967 
L 310.604039 449.678893 
L 310.823592 480.41429 
L 311.043145 479.615469 
L 311.482251 380.956552 
L 311.701805 440.283457 
L 311.921358 401.480984 
L 312.140911 445.929941 
L 312.360464 362.832193 
L 312.580017 453.241217 
L 312.79957 484.911717 
L 313.238677 407.5776 
L 313.45823 399.325606 
L 313.677783 482.889334 
L 313.897336 488.919157 
L 314.116889 469.452411 
L 314.336442 403.969813 
L 314.555996 250.380406 
L 314.775549 364.768555 
L 314.995102 554.557674 
L 315.214655 377.186668 
L 315.434208 374.248468 
L 315.653761 421.31644 
L 315.873315 439.390132 
L 316.092868 296.746358 
L 316.312421 437.160443 
L 316.531974 481.771633 
L 316.751527 439.295567 
L 316.97108 450.045646 
L 317.190633 518.924127 
L 317.410187 367.504674 
L 317.62974 379.159176 
L 317.849293 432.643523 
L 318.068846 340.406464 
L 318.288399 467.887748 
L 318.507952 471.498734 
L 318.727506 497.177013 
L 318.947059 370.866401 
L 319.166612 478.337812 
L 319.386165 375.832086 
L 319.605718 343.918184 
L 319.825271 424.908277 
L 320.044824 417.016673 
L 320.264378 509.564691 
L 320.483931 398.977472 
L 320.703484 420.658414 
L 320.923037 502.366664 
L 321.14259 312.815419 
L 321.362143 247.20944 
L 321.581696 383.210743 
L 322.020803 488.304759 
L 322.679462 393.981405 
L 322.899015 397.966733 
L 323.118569 383.702525 
L 323.338122 448.400851 
L 323.557675 356.027763 
L 323.777228 380.379351 
L 323.996781 309.98753 
L 324.435887 428.143564 
L 324.655441 435.938801 
L 324.874994 450.142061 
L 325.094547 446.630166 
L 325.3141 425.191277 
L 325.533653 459.101255 
L 325.753206 296.446849 
L 326.192313 476.337211 
L 326.411866 410.739609 
L 326.631419 449.916833 
L 326.850972 390.577141 
L 327.070525 401.636207 
L 327.290078 477.66444 
L 327.509632 462.316293 
L 327.729185 428.138251 
L 327.948738 466.105214 
L 328.168291 460.394757 
L 328.387844 448.75686 
L 328.607397 334.030298 
L 328.826951 523.105735 
L 329.046504 445.32123 
L 329.266057 464.595714 
L 329.48561 438.823187 
L 329.705163 386.428537 
L 329.924716 439.642778 
L 330.144269 388.710255 
L 330.363823 460.231156 
L 330.583376 454.375929 
L 330.802929 131.956182 
L 331.242035 484.01696 
L 331.461588 469.730597 
L 331.681142 438.049858 
L 332.120248 308.437707 
L 332.559354 459.159742 
L 332.778907 468.886884 
L 332.99846 459.304732 
L 333.218014 473.899184 
L 333.437567 370.650467 
L 333.65712 356.58113 
L 333.876673 502.716584 
L 334.096226 381.397224 
L 334.535333 405.73182 
L 334.754886 405.738663 
L 335.193992 428.716648 
L 335.413545 519.24271 
L 335.633098 529.306448 
L 335.852651 366.735623 
L 336.072205 364.472036 
L 336.291758 478.218405 
L 336.730864 452.160875 
L 336.950417 373.852505 
L 337.16997 513.881015 
L 337.389524 407.906152 
L 337.609077 488.049093 
L 337.82863 449.837369 
L 338.048183 322.362958 
L 338.267736 286.64797 
L 338.487289 434.269215 
L 338.706842 423.947637 
L 338.926396 366.11799 
L 339.145949 387.019632 
L 339.365502 363.167564 
L 339.585055 505.861713 
L 339.804608 447.275164 
L 340.024161 431.081022 
L 340.243715 351.268189 
L 340.463268 505.45078 
L 340.682821 326.303472 
L 340.902374 418.973272 
L 341.121927 394.267267 
L 341.561033 436.585508 
L 341.780587 402.355771 
L 342.00014 430.599305 
L 342.219693 434.072937 
L 342.439246 527.748111 
L 342.658799 418.101731 
L 342.878352 473.14799 
L 343.097906 410.544187 
L 343.317459 514.283608 
L 343.756565 451.604089 
L 343.976118 495.691106 
L 344.415224 388.329603 
L 344.634778 428.92271 
L 344.854331 538.539666 
L 345.073884 308.434886 
L 345.293437 436.626992 
L 345.51299 354.838536 
L 345.732543 380.54352 
L 345.952096 555.724943 
L 346.17165 355.149751 
L 346.391203 426.985493 
L 346.610756 395.533377 
L 346.830309 433.639584 
L 347.049862 319.541829 
L 347.269415 449.919734 
L 347.708522 409.198415 
L 347.928075 505.917342 
L 348.147628 528.173968 
L 348.367181 507.852518 
L 348.586734 446.805105 
L 349.025841 247.319784 
L 349.6845 422.999231 
L 349.904053 354.318487 
L 350.123606 346.483353 
L 350.34316 387.794831 
L 350.562713 464.321065 
L 350.782266 348.569923 
L 351.001819 483.57137 
L 351.221372 340.023552 
L 351.440925 376.344879 
L 351.660478 461.133107 
L 352.099585 396.087443 
L 352.319138 439.690908 
L 352.538691 323.305382 
L 352.758244 421.52112 
L 352.977797 410.612749 
L 353.197351 202.376414 
L 353.416904 437.327601 
L 353.636457 327.231614 
L 353.85601 473.488709 
L 354.075563 452.246284 
L 354.295116 387.173663 
L 354.514669 439.228131 
L 354.734223 295.483218 
L 354.953776 474.806699 
L 355.173329 407.270101 
L 355.392882 411.314865 
L 355.612435 508.559723 
L 355.831988 431.468119 
L 356.051542 286.304112 
L 356.271095 290.461978 
L 356.490648 494.13133 
L 356.710201 507.665922 
L 356.929754 367.488725 
L 357.149307 424.409648 
L 357.36886 296.78894 
L 357.588414 433.69091 
L 357.807967 440.97502 
L 358.02752 265.903907 
L 358.247073 422.488429 
L 358.905733 454.398902 
L 359.125286 432.414472 
L 359.564392 472.352643 
L 359.783945 431.895048 
L 360.003498 418.12747 
L 360.223051 393.332825 
L 360.442605 269.712761 
L 360.662158 384.167467 
L 360.881711 405.677427 
L 361.101264 486.43467 
L 361.320817 443.057189 
L 361.54037 532.127259 
L 361.759924 466.679024 
L 361.979477 276.040132 
L 362.19903 311.420157 
L 362.418583 421.584312 
L 362.638136 393.717438 
L 362.857689 479.556211 
L 363.077242 403.732111 
L 363.296796 412.264463 
L 363.516349 386.54888 
L 363.735902 496.546825 
L 363.955455 322.877328 
L 364.175008 415.890897 
L 364.394561 446.010971 
L 364.614115 361.92804 
L 364.833668 410.063246 
L 365.053221 398.575164 
L 365.272774 479.435418 
L 365.492327 464.803102 
L 365.71188 471.987534 
L 365.931433 340.556537 
L 366.150987 329.086464 
L 366.37054 458.011118 
L 366.590093 483.826442 
L 366.809646 478.332873 
L 367.248752 429.287544 
L 367.468306 474.228149 
L 367.907412 506.425769 
L 368.566071 332.355852 
L 368.785624 367.787162 
L 369.005178 275.99072 
L 369.224731 459.358996 
L 369.444284 371.234377 
L 369.663837 398.115474 
L 369.88339 358.27658 
L 370.102943 465.658491 
L 370.322497 361.786064 
L 370.54205 401.312261 
L 370.761603 410.456826 
L 370.981156 376.341226 
L 371.200709 283.702494 
L 371.639815 441.887783 
L 371.859369 470.954273 
L 372.078922 519.682481 
L 372.298475 292.55419 
L 372.518028 451.087814 
L 372.737581 493.984253 
L 372.957134 357.181594 
L 373.176687 385.356807 
L 373.396241 489.80445 
L 373.835347 340.488195 
L 374.0549 355.006961 
L 374.494006 495.552845 
L 374.71356 376.140331 
L 374.933113 334.453309 
L 375.152666 375.50091 
L 375.372219 481.019684 
L 375.591772 427.434773 
L 376.030878 379.925569 
L 376.250432 446.787259 
L 376.469985 459.680428 
L 376.689538 426.606455 
L 376.909091 432.136975 
L 377.128644 402.692549 
L 377.348197 406.812562 
L 377.567751 406.926324 
L 377.787304 329.610118 
L 378.006857 377.176251 
L 378.22641 459.481405 
L 378.445963 482.296541 
L 378.665516 411.419493 
L 378.885069 376.805137 
L 379.104623 396.915274 
L 379.324176 279.689974 
L 379.543729 422.149043 
L 379.763282 432.218209 
L 379.982835 330.13 
L 380.202388 515.344946 
L 380.421942 515.872331 
L 380.641495 528.231493 
L 380.861048 452.903542 
L 381.080601 542.138149 
L 381.300154 361.778478 
L 381.519707 387.98339 
L 381.73926 363.80096 
L 382.178367 414.213321 
L 382.39792 415.179263 
L 382.617473 480.815989 
L 382.837026 395.118419 
L 383.056579 361.187096 
L 383.276133 491.359924 
L 383.495686 448.819246 
L 383.715239 279.975106 
L 384.154345 464.152493 
L 384.373898 258.952515 
L 384.813005 425.262871 
L 385.032558 393.081744 
L 385.252111 397.331337 
L 385.471664 526.995507 
L 385.691217 313.547824 
L 385.91077 472.88974 
L 386.349877 363.242301 
L 386.56943 383.703282 
L 386.788983 279.545845 
L 387.008536 488.766647 
L 387.228089 538.089087 
L 387.447642 401.048619 
L 387.886749 453.717398 
L 388.106302 382.492701 
L 388.325855 544.965774 
L 388.545408 459.479051 
L 388.764961 451.94506 
L 388.984515 224.442708 
L 389.204068 434.45357 
L 389.423621 525.588393 
L 389.643174 425.220779 
L 389.862727 384.232733 
L 390.08228 471.789137 
L 390.521387 322.154818 
L 390.74094 470.427722 
L 390.960493 493.115945 
L 391.399599 366.407232 
L 391.619152 264.846247 
L 391.838706 420.855839 
L 392.058259 339.916663 
L 392.277812 376.455398 
L 392.497365 488.253123 
L 392.716918 477.061749 
L 392.936471 489.526329 
L 393.156024 451.555405 
L 393.375578 440.987438 
L 393.595131 508.012672 
L 393.814684 423.393004 
L 394.034237 470.999351 
L 394.25379 415.961665 
L 394.473343 389.124853 
L 394.692897 474.775794 
L 394.91245 458.146884 
L 395.351556 318.398255 
L 395.571109 401.021387 
L 395.790662 562.611149 
L 396.229769 441.232849 
L 396.449322 477.18653 
L 396.668875 395.513681 
L 396.888428 501.672469 
L 397.107981 343.52624 
L 397.327534 427.086536 
L 397.547087 347.865486 
L 397.766641 329.808536 
L 397.986194 479.83997 
L 398.205747 500.999623 
L 398.4253 475.01228 
L 398.644853 387.367454 
L 398.864406 491.144742 
L 399.08396 412.168321 
L 399.303513 440.611859 
L 399.523066 385.495197 
L 399.742619 433.167989 
L 399.962172 327.867692 
L 400.181725 473.136816 
L 400.401278 359.012885 
L 400.620832 389.398709 
L 400.840385 450.25647 
L 401.059938 342.105771 
L 401.279491 389.023197 
L 401.499044 389.578005 
L 401.718597 318.950903 
L 401.938151 487.686676 
L 402.157704 400.164897 
L 402.377257 472.302739 
L 402.59681 330.450045 
L 402.816363 357.691537 
L 403.035916 507.928719 
L 403.255469 435.542619 
L 403.475023 433.740827 
L 403.914129 501.54931 
L 404.133682 352.13193 
L 404.353235 438.204789 
L 404.572788 454.968164 
L 405.011895 420.914532 
L 405.231448 429.777425 
L 405.670554 525.866754 
L 405.890107 410.162729 
L 406.10966 468.212302 
L 406.329214 467.373347 
L 406.548767 485.351812 
L 406.76832 478.462226 
L 406.987873 405.001614 
L 407.207426 473.703595 
L 407.646533 294.721877 
L 407.866086 414.095836 
L 408.085639 359.669743 
L 408.524745 495.022301 
L 408.744298 357.119884 
L 408.963851 316.269459 
L 409.183405 414.8332 
L 409.402958 379.228899 
L 409.842064 490.644825 
L 410.061617 493.969579 
L 410.28117 451.462172 
L 410.500724 439.592141 
L 410.720277 479.918374 
L 410.93983 451.016221 
L 411.159383 380.422401 
L 411.378936 348.93032 
L 411.598489 504.326993 
L 411.818042 429.502241 
L 412.037596 432.874431 
L 412.257149 440.406562 
L 412.476702 336.085681 
L 412.696255 336.363816 
L 412.915808 407.620412 
L 413.135361 424.650376 
L 413.354915 396.144533 
L 413.574468 473.722705 
L 413.794021 416.522968 
L 414.013574 293.607823 
L 414.233127 388.130413 
L 414.45268 371.493531 
L 414.672233 528.109096 
L 414.891787 433.03609 
L 415.11134 447.841226 
L 415.330893 446.354725 
L 415.550446 468.998821 
L 415.989552 440.756997 
L 416.209106 396.984128 
L 416.428659 422.102728 
L 416.648212 360.46617 
L 416.867765 423.472727 
L 417.306871 462.930263 
L 417.745978 355.991438 
L 417.965531 453.525836 
L 418.185084 367.553002 
L 418.404637 428.630329 
L 418.62419 407.509461 
L 418.843743 346.014729 
L 419.28285 512.968012 
L 419.502403 327.444166 
L 419.721956 359.066629 
L 419.941509 502.763993 
L 420.161062 427.460136 
L 420.380615 421.163895 
L 420.600169 477.644034 
L 420.819722 367.078289 
L 421.039275 455.219263 
L 421.258828 367.947414 
L 421.697934 422.358533 
L 421.917488 373.906632 
L 422.137041 435.384842 
L 422.356594 394.468666 
L 422.576147 463.340052 
L 422.7957 400.629702 
L 423.015253 419.187878 
L 423.234806 537.842059 
L 423.45436 383.658992 
L 423.673913 393.449803 
L 423.893466 555.716665 
L 424.113019 368.98352 
L 424.332572 382.782504 
L 424.552125 385.397699 
L 424.771678 347.359652 
L 424.991232 356.98178 
L 425.210785 438.923953 
L 425.430338 439.012478 
L 425.649891 358.305163 
L 426.088997 306.03169 
L 426.308551 420.622469 
L 426.528104 363.303859 
L 426.747657 464.669992 
L 426.96721 401.032334 
L 427.186763 484.900133 
L 427.406316 520.863678 
L 427.845423 466.511817 
L 428.064976 388.428522 
L 428.284529 447.551752 
L 428.504082 294.601804 
L 428.723635 370.022262 
L 428.943188 351.059298 
L 429.162742 428.667271 
L 429.382295 407.18265 
L 429.601848 453.443827 
L 429.821401 298.350507 
L 430.040954 442.955822 
L 430.260507 451.558816 
L 430.699614 327.390508 
L 430.919167 348.725205 
L 431.13872 516.137566 
L 431.358273 448.576264 
L 431.577826 435.443293 
L 431.797379 323.950383 
L 432.016933 328.548361 
L 432.236486 408.168181 
L 432.456039 354.184672 
L 432.675592 353.818595 
L 432.895145 344.468395 
L 433.114698 416.137516 
L 433.334251 422.982165 
L 433.553805 385.393559 
L 433.773358 501.095598 
L 433.992911 410.300819 
L 434.212464 251.525772 
L 434.432017 505.228583 
L 434.65157 408.555432 
L 434.871124 466.87299 
L 435.090677 359.046176 
L 435.529783 489.168682 
L 435.968889 368.486201 
L 436.188442 445.054022 
L 436.847102 495.401505 
L 437.066655 340.397787 
L 437.286208 466.321182 
L 437.505761 392.759998 
L 437.725315 435.135942 
L 437.944868 423.940014 
L 438.164421 504.04074 
L 438.383974 325.400923 
L 438.603527 492.027077 
L 439.042633 343.737336 
L 439.262187 436.499755 
L 439.48174 423.319017 
L 439.701293 340.908571 
L 439.920846 342.688869 
L 440.140399 455.104166 
L 440.359952 475.262817 
L 440.579506 474.658117 
L 440.799059 414.965887 
L 441.238165 444.122073 
L 441.457718 443.963651 
L 441.677271 419.900844 
L 442.116378 446.854148 
L 442.335931 436.670608 
L 442.555484 479.593935 
L 442.775037 439.483282 
L 442.99459 340.501347 
L 443.214143 419.75725 
L 443.433697 402.931004 
L 443.65325 329.629155 
L 443.872803 353.26883 
L 444.092356 408.03291 
L 444.311909 418.903291 
L 444.531462 512.692426 
L 444.970569 322.330095 
L 445.190122 421.465289 
L 445.409675 367.968056 
L 445.629228 567.227196 
L 445.848781 324.806597 
L 446.068334 454.488684 
L 446.287888 488.674264 
L 446.726994 323.869098 
L 446.946547 412.277871 
L 447.1661 383.573988 
L 447.385653 408.615894 
L 447.605206 479.265808 
L 447.82476 352.34067 
L 448.263866 530.963499 
L 448.702972 322.624489 
L 448.922525 446.650943 
L 449.142079 422.102944 
L 449.361632 374.239461 
L 449.581185 379.113721 
L 449.800738 390.638026 
L 450.020291 500.509396 
L 450.459397 332.969744 
L 450.898504 437.617218 
L 451.118057 428.35295 
L 451.33761 477.393444 
L 451.776716 458.835258 
L 451.996269 508.889789 
L 452.215823 414.055149 
L 452.435376 487.751628 
L 452.654929 330.192432 
L 452.874482 296.865959 
L 453.094035 495.046064 
L 453.313588 375.19701 
L 453.533142 465.513372 
L 453.752695 460.648651 
L 453.972248 310.835019 
L 454.411354 480.233455 
L 454.630907 498.935783 
L 454.85046 459.538924 
L 455.070014 348.784515 
L 455.289567 466.203943 
L 455.50912 484.391016 
L 455.728673 361.882786 
L 455.948226 445.276494 
L 456.167779 334.32218 
L 456.606886 467.27454 
L 456.826439 359.79288 
L 457.045992 448.815251 
L 457.265545 440.15955 
L 457.485098 320.587631 
L 457.704651 412.482602 
L 457.924205 327.432053 
L 458.143758 463.012827 
L 458.582864 408.463209 
L 458.802417 287.836605 
L 459.02197 490.172267 
L 459.241524 433.911346 
L 459.461077 438.645311 
L 459.68063 505.362751 
L 459.900183 501.990578 
L 460.119736 505.936066 
L 460.339289 445.827419 
L 460.558842 334.336212 
L 460.778396 533.051942 
L 460.997949 462.778907 
L 461.217502 436.465523 
L 461.437055 424.174269 
L 461.656608 532.324867 
L 461.876161 436.669281 
L 462.095715 426.269376 
L 462.315268 391.249823 
L 462.534821 531.808642 
L 462.754374 352.499516 
L 462.973927 425.002484 
L 463.19348 395.732193 
L 463.413033 443.365685 
L 463.632587 450.824599 
L 463.85214 479.095969 
L 464.071693 429.465096 
L 464.291246 463.814237 
L 464.510799 472.641444 
L 464.730352 464.45673 
L 464.949906 494.23167 
L 465.169459 450.962779 
L 465.389012 478.934275 
L 465.608565 314.841115 
L 465.828118 467.371014 
L 466.047671 502.951942 
L 466.267224 381.570872 
L 466.486778 348.67062 
L 466.706331 443.773517 
L 466.925884 484.990806 
L 467.145437 428.090985 
L 467.36499 489.958314 
L 467.584543 461.109052 
L 467.804097 511.1913 
L 468.243203 307.964684 
L 468.462756 436.349567 
L 468.682309 348.284402 
L 469.121415 442.17 
L 469.340969 512.690234 
L 469.560522 498.911018 
L 469.780075 229.147574 
L 469.999628 384.739846 
L 470.219181 436.50119 
L 470.438734 423.825043 
L 470.658288 453.731553 
L 470.877841 419.557259 
L 471.316947 475.710223 
L 471.5365 417.843777 
L 471.756053 447.637542 
L 471.975606 338.650243 
L 472.19516 403.645824 
L 472.414713 520.031366 
L 472.634266 420.008042 
L 473.292925 498.532831 
L 473.512479 486.843417 
L 473.732032 464.246794 
L 473.951585 415.023385 
L 474.171138 432.76987 
L 474.390691 393.678712 
L 474.610244 287.208329 
L 474.829797 391.378277 
L 475.049351 357.102327 
L 475.268904 427.354259 
L 475.488457 393.295415 
L 475.70801 298.468236 
L 475.927563 414.408946 
L 476.147116 399.462517 
L 476.366669 332.049176 
L 476.586223 439.402003 
L 476.805776 340.453305 
L 477.244882 500.41948 
L 477.464435 384.27987 
L 477.683988 379.205266 
L 477.903542 310.465156 
L 478.342648 480.699574 
L 478.562201 300.417687 
L 478.781754 493.633108 
L 479.001307 512.38007 
L 479.22086 362.674037 
L 479.440414 327.583776 
L 479.659967 272.510622 
L 479.87952 486.218095 
L 480.318626 326.247787 
L 480.538179 398.694617 
L 480.757733 434.096284 
L 480.977286 400.895441 
L 481.196839 314.912684 
L 481.635945 434.939621 
L 481.855498 564.426324 
L 482.294605 387.851194 
L 482.733711 517.931338 
L 482.953264 439.173708 
L 483.39237 411.721459 
L 483.611924 365.042758 
L 483.831477 402.044933 
L 484.05103 272.912862 
L 484.270583 331.294189 
L 484.490136 419.788532 
L 484.709689 457.555946 
L 484.929242 389.254461 
L 485.148796 366.379958 
L 485.368349 422.333145 
L 485.587902 530.770257 
L 485.807455 395.259114 
L 486.027008 350.571005 
L 486.246561 428.678527 
L 486.466115 357.243978 
L 486.685668 377.771198 
L 487.344327 490.381507 
L 487.56388 439.945938 
L 487.783433 353.713616 
L 488.002987 366.570655 
L 488.22254 484.614546 
L 488.442093 405.423263 
L 488.661646 399.764901 
L 488.881199 443.583756 
L 489.100752 534.422608 
L 489.320306 404.073015 
L 489.539859 492.485905 
L 489.759412 506.704355 
L 489.978965 411.791195 
L 490.198518 514.801242 
L 490.418071 268.568691 
L 490.637624 430.718008 
L 490.857178 448.483334 
L 491.076731 454.832683 
L 491.296284 495.538396 
L 491.515837 505.142806 
L 491.73539 392.841841 
L 492.174497 483.97805 
L 492.39405 470.874886 
L 492.833156 379.857402 
L 493.052709 305.738373 
L 493.272262 408.498605 
L 493.491815 382.841983 
L 493.711369 554.24596 
L 493.930922 447.728414 
L 494.150475 407.087614 
L 494.370028 420.378753 
L 494.589581 347.763666 
L 494.809134 447.743324 
L 495.248241 359.465946 
L 495.467794 399.941509 
L 495.687347 529.892167 
L 495.9069 298.394215 
L 496.126453 499.532631 
L 496.346006 455.247015 
L 496.785113 282.75702 
L 497.004666 397.811411 
L 497.224219 437.858316 
L 497.443772 535.602789 
L 497.663325 359.589799 
L 497.882879 363.652589 
L 498.102432 370.955098 
L 498.321985 428.556729 
L 498.541538 381.504673 
L 498.761091 457.2391 
L 498.980644 414.273488 
L 499.200197 479.230992 
L 499.419751 385.521739 
L 499.639304 389.389098 
L 499.858857 385.084287 
L 500.07841 472.902342 
L 500.297963 358.814219 
L 500.517516 340.25446 
L 500.73707 368.217024 
L 500.956623 433.732892 
L 501.176176 363.390796 
L 501.395729 502.783728 
L 501.615282 456.439657 
L 501.834835 374.348484 
L 502.054388 366.161579 
L 502.273942 308.568807 
L 502.493495 502.759354 
L 502.713048 480.847909 
L 502.932601 364.617153 
L 503.152154 459.282619 
L 503.371707 438.176767 
L 503.59126 511.130182 
L 503.810814 445.353166 
L 504.030367 463.241219 
L 504.24992 459.91517 
L 504.469473 404.277501 
L 504.689026 432.423461 
L 504.908579 346.141655 
L 505.128133 318.38163 
L 505.347686 388.558197 
L 505.567239 414.885462 
L 505.786792 457.317262 
L 506.006345 456.892807 
L 506.225898 469.468547 
L 506.445451 459.431056 
L 506.665005 485.910927 
L 507.104111 418.783403 
L 507.323664 405.800906 
L 507.543217 479.392493 
L 507.76277 477.061403 
L 507.982324 306.472226 
L 508.201877 547.543682 
L 508.42143 380.976087 
L 508.640983 311.304954 
L 508.860536 475.307242 
L 509.080089 446.828324 
L 509.299642 292.919155 
L 509.519196 458.290917 
L 509.738749 445.776367 
L 509.958302 363.956396 
L 510.397408 428.695779 
L 510.836515 455.955277 
L 511.056068 373.844828 
L 511.275621 470.480657 
L 511.495174 397.346625 
L 511.714727 397.689023 
L 511.93428 419.593602 
L 512.153833 481.892211 
L 512.373387 466.686212 
L 512.59294 485.492786 
L 512.812493 440.02754 
L 513.032046 444.827448 
L 513.251599 507.988218 
L 513.471152 414.218715 
L 513.690706 478.944183 
L 513.910259 356.026972 
L 514.129812 455.717898 
L 514.349365 405.84688 
L 514.568918 391.766468 
L 514.788471 441.418954 
L 515.008024 426.509764 
L 515.227578 438.240033 
L 515.447131 325.370188 
L 515.666684 483.768644 
L 515.886237 410.092137 
L 516.10579 469.690437 
L 516.325343 389.381716 
L 516.544897 397.902249 
L 516.76445 304.750289 
L 516.984003 397.608738 
L 517.203556 345.385263 
L 517.423109 441.383866 
L 517.642662 295.14304 
L 517.862215 270.809856 
L 518.081769 300.58926 
L 518.301322 477.630008 
L 518.520875 433.951967 
L 518.740428 457.134726 
L 518.959981 439.430727 
L 519.179534 441.974486 
L 519.618641 550.346941 
L 519.838194 453.762031 
L 520.057747 441.641408 
L 520.2773 357.89457 
L 520.496853 390.520435 
L 520.716406 346.116289 
L 521.155513 438.189865 
L 521.375066 405.605527 
L 521.814172 528.770008 
L 522.033725 496.213655 
L 522.253279 350.94655 
L 522.692385 459.348217 
L 522.911938 454.084489 
L 523.131491 361.571663 
L 523.351044 397.562018 
L 523.570597 400.823638 
L 523.790151 441.141983 
L 524.009704 452.431541 
L 524.229257 432.039864 
L 524.44881 347.016684 
L 524.668363 326.761449 
L 524.887916 559.170894 
L 525.327023 250.191813 
L 525.766129 407.97773 
L 525.985682 394.301262 
L 526.205235 451.540216 
L 526.424788 440.590923 
L 526.644342 446.001263 
L 526.863895 526.635351 
L 527.083448 398.069124 
L 527.303001 448.254278 
L 527.522554 334.760808 
L 527.742107 446.68815 
L 527.96166 489.627255 
L 528.181214 402.136684 
L 528.400767 361.665793 
L 528.62032 383.674374 
L 528.839873 327.602428 
L 529.059426 454.775871 
L 529.278979 445.178406 
L 529.498533 304.844819 
L 529.718086 435.359132 
L 529.937639 393.466002 
L 530.157192 434.000626 
L 530.376745 406.350491 
L 530.596298 246.849551 
L 530.815851 509.703375 
L 531.254958 395.403825 
L 531.474511 395.81547 
L 531.694064 402.080023 
L 531.913617 334.647199 
L 532.13317 438.432668 
L 532.352724 321.064897 
L 532.572277 358.125457 
L 533.011383 515.431682 
L 533.230936 431.891217 
L 533.450489 448.719705 
L 533.670042 313.306375 
L 533.889596 482.921442 
L 534.109149 405.354664 
L 534.328702 476.436635 
L 534.548255 322.353444 
L 534.767808 372.618799 
L 534.987361 517.446523 
L 535.426468 427.237639 
L 535.646021 534.930159 
L 536.085127 385.843035 
L 536.30468 430.317948 
L 536.524233 344.661374 
L 536.743787 520.787069 
L 536.96334 440.876366 
L 537.182893 544.315525 
L 537.402446 482.950589 
L 537.621999 465.880974 
L 537.841552 375.937215 
L 538.061106 507.153308 
L 538.280659 499.984294 
L 538.500212 396.217343 
L 538.719765 423.489331 
L 538.939318 479.395753 
L 539.378424 341.518322 
L 539.597978 383.623549 
L 539.817531 460.012527 
L 540.037084 247.825783 
L 540.47619 446.868192 
L 540.695743 451.441242 
L 541.13485 434.367334 
L 541.354403 330.688054 
L 541.573956 472.476154 
L 542.013062 356.004358 
L 542.232615 383.531039 
L 542.452169 454.36672 
L 542.891275 239.554086 
L 543.110828 355.801247 
L 543.769488 477.371274 
L 544.208594 390.18909 
L 544.428147 417.044041 
L 544.6477 392.979093 
L 544.867253 558.250772 
L 545.086806 338.341742 
L 545.30636 380.286489 
L 545.525913 389.874117 
L 545.745466 463.223256 
L 545.745466 463.223256 
" style="fill:none;stroke:#96c69a;stroke-linecap:round;stroke-width:3;"/>
   </g>
   <g id="line2d_2"/>
   <g id="patch_3">
    <path d="M 84.914375 603.86 
L 84.914375 109.484571 
" style="fill:none;stroke:#262626;stroke-linecap:square;stroke-linejoin:miter;stroke-width:2.5;"/>
   </g>
   <g id="patch_4">
    <path d="M 84.914375 603.86 
L 567.689804 603.86 
" style="fill:none;stroke:#262626;stroke-linecap:square;stroke-linejoin:miter;stroke-width:2.5;"/>
   </g>
   <g id="legend_1">
    <g id="patch_5">
     <path d="M 514.774179 598.86 
L 560.689804 598.86 
Q 562.689804 598.86 562.689804 596.86 
L 562.689804 554.954375 
Q 562.689804 552.954375 560.689804 552.954375 
L 514.774179 552.954375 
Q 512.774179 552.954375 512.774179 554.954375 
L 512.774179 596.86 
Q 512.774179 598.86 514.774179 598.86 
z
" style="fill:#ffffff;opacity:0.8;stroke:#cccccc;stroke-linejoin:miter;stroke-width:2;"/>
    </g>
    <g id="text_13">
     <!-- $n_\tau$ -->
     <g style="fill:#262626;" transform="translate(524.651991 575.190625)scale(0.24 -0.24)">
      <defs>
       <path d="M 3566 2113 
L 3156 0 
L 2578 0 
L 2988 2091 
Q 3016 2238 3031 2350 
Q 3047 2463 3047 2528 
Q 3047 2791 2881 2937 
Q 2716 3084 2419 3084 
Q 1956 3084 1622 2776 
Q 1288 2469 1184 1941 
L 800 0 
L 225 0 
L 903 3500 
L 1478 3500 
L 1363 2950 
Q 1603 3253 1940 3418 
Q 2278 3584 2650 3584 
Q 3113 3584 3367 3334 
Q 3622 3084 3622 2631 
Q 3622 2519 3608 2391 
Q 3594 2263 3566 2113 
z
" id="DejaVuSans-Oblique-6e" transform="scale(0.015625)"/>
       <path d="M 2103 638 
Q 2188 488 2525 488 
L 2800 488 
L 2706 0 
L 2363 0 
Q 1800 0 1600 300 
Q 1403 606 1534 1269 
L 1856 2925 
L 541 2925 
L 653 3500 
L 3881 3500 
L 3769 2925 
L 2444 2925 
L 2113 1234 
Q 2025 781 2103 638 
z
" id="DejaVuSans-Oblique-3c4" transform="scale(0.015625)"/>
      </defs>
      <use xlink:href="#DejaVuSans-Oblique-6e"/>
      <use transform="translate(63.378906 -16.40625)scale(0.7)" xlink:href="#DejaVuSans-Oblique-3c4"/>
     </g>
    </g>
    <g id="line2d_3">
     <path d="M 516.774179 589.280313 
L 536.774179 589.280313 
" style="fill:none;stroke:#96c69a;stroke-linecap:round;stroke-width:3;"/>
    </g>
    <g id="line2d_4"/>
    <g id="text_14">
     <!-- 50 -->
     <g style="fill:#262626;" transform="translate(544.774179 592.780313)scale(0.1 -0.1)">
      <defs>
       <path d="M 678 4666 
L 3669 4666 
L 3669 3781 
L 1638 3781 
L 1638 3059 
Q 1775 3097 1914 3117 
Q 2053 3138 2203 3138 
Q 3056 3138 3531 2711 
Q 4006 2284 4006 1522 
Q 4006 766 3489 337 
Q 2972 -91 2053 -91 
Q 1656 -91 1267 -14 
Q 878 63 494 219 
L 494 1166 
Q 875 947 1217 837 
Q 1559 728 1863 728 
Q 2300 728 2551 942 
Q 2803 1156 2803 1522 
Q 2803 1891 2551 2103 
Q 2300 2316 1863 2316 
Q 1603 2316 1309 2248 
Q 1016 2181 678 2041 
L 678 4666 
z
" id="DejaVuSans-Bold-35" transform="scale(0.015625)"/>
       <path d="M 2944 2338 
Q 2944 3213 2780 3570 
Q 2616 3928 2228 3928 
Q 1841 3928 1675 3570 
Q 1509 3213 1509 2338 
Q 1509 1453 1675 1090 
Q 1841 728 2228 728 
Q 2613 728 2778 1090 
Q 2944 1453 2944 2338 
z
M 4147 2328 
Q 4147 1169 3647 539 
Q 3147 -91 2228 -91 
Q 1306 -91 806 539 
Q 306 1169 306 2328 
Q 306 3491 806 4120 
Q 1306 4750 2228 4750 
Q 3147 4750 3647 4120 
Q 4147 3491 4147 2328 
z
" id="DejaVuSans-Bold-30" transform="scale(0.015625)"/>
      </defs>
      <use xlink:href="#DejaVuSans-Bold-35"/>
      <use x="69.580078" xlink:href="#DejaVuSans-Bold-30"/>
     </g>
    </g>
   </g>
  </g>
  <g id="axes_2">
   <g id="patch_6">
    <path d="M 84.914375 92.437143 
L 567.689804 92.437143 
L 567.689804 7.2 
L 84.914375 7.2 
z
" style="fill:none;"/>
   </g>
   <g id="matplotlib.axis_3">
    <g id="xtick_7"/>
    <g id="xtick_8"/>
    <g id="xtick_9"/>
    <g id="xtick_10"/>
    <g id="xtick_11"/>
    <g id="xtick_12"/>
   </g>
   <g id="matplotlib.axis_4">
    <g id="ytick_5">
     <g id="text_15">
      <!-- 0 -->
      <g style="fill:#262626;" transform="translate(55.416875 100.795424)scale(0.22 -0.22)">
       <use xlink:href="#DejaVuSans-30"/>
      </g>
     </g>
    </g>
    <g id="ytick_6">
     <g id="text_16">
      <!-- 100 -->
      <g style="fill:#262626;" transform="translate(27.421875 48.082287)scale(0.22 -0.22)">
       <use xlink:href="#DejaVuSans-31"/>
       <use x="63.623047" xlink:href="#DejaVuSans-30"/>
       <use x="127.246094" xlink:href="#DejaVuSans-30"/>
      </g>
     </g>
    </g>
   </g>
   <g id="patch_7">
    <path clip-path="url(#p6d25a923b0)" d="M 106.858713 92.437143 
L 140.619232 92.437143 
L 140.619232 11.258912 
L 106.858713 11.258912 
z
" style="fill:#96c69a;fill-opacity:0.5;stroke:#ffffff;stroke-linejoin:miter;stroke-width:2;"/>
   </g>
   <g id="patch_8">
    <path clip-path="url(#p6d25a923b0)" d="M 140.619232 92.437143 
L 174.379752 92.437143 
L 174.379752 11.258912 
L 140.619232 11.258912 
z
" style="fill:#96c69a;fill-opacity:0.5;stroke:#ffffff;stroke-linejoin:miter;stroke-width:2;"/>
   </g>
   <g id="patch_9">
    <path clip-path="url(#p6d25a923b0)" d="M 174.379752 92.437143 
L 208.140271 92.437143 
L 208.140271 11.258912 
L 174.379752 11.258912 
z
" style="fill:#96c69a;fill-opacity:0.5;stroke:#ffffff;stroke-linejoin:miter;stroke-width:2;"/>
   </g>
   <g id="patch_10">
    <path clip-path="url(#p6d25a923b0)" d="M 208.140271 92.437143 
L 241.900791 92.437143 
L 241.900791 11.258912 
L 208.140271 11.258912 
z
" style="fill:#96c69a;fill-opacity:0.5;stroke:#ffffff;stroke-linejoin:miter;stroke-width:2;"/>
   </g>
   <g id="patch_11">
    <path clip-path="url(#p6d25a923b0)" d="M 241.900791 92.437143 
L 275.66131 92.437143 
L 275.66131 11.786043 
L 241.900791 11.786043 
z
" style="fill:#96c69a;fill-opacity:0.5;stroke:#ffffff;stroke-linejoin:miter;stroke-width:2;"/>
   </g>
   <g id="patch_12">
    <path clip-path="url(#p6d25a923b0)" d="M 275.66131 92.437143 
L 309.42183 92.437143 
L 309.42183 11.258912 
L 275.66131 11.258912 
z
" style="fill:#96c69a;fill-opacity:0.5;stroke:#ffffff;stroke-linejoin:miter;stroke-width:2;"/>
   </g>
   <g id="patch_13">
    <path clip-path="url(#p6d25a923b0)" d="M 309.42183 92.437143 
L 343.182349 92.437143 
L 343.182349 11.258912 
L 309.42183 11.258912 
z
" style="fill:#96c69a;fill-opacity:0.5;stroke:#ffffff;stroke-linejoin:miter;stroke-width:2;"/>
   </g>
   <g id="patch_14">
    <path clip-path="url(#p6d25a923b0)" d="M 343.182349 92.437143 
L 376.942869 92.437143 
L 376.942869 11.258912 
L 343.182349 11.258912 
z
" style="fill:#96c69a;fill-opacity:0.5;stroke:#ffffff;stroke-linejoin:miter;stroke-width:2;"/>
   </g>
   <g id="patch_15">
    <path clip-path="url(#p6d25a923b0)" d="M 376.942869 92.437143 
L 410.703388 92.437143 
L 410.703388 11.786043 
L 376.942869 11.786043 
z
" style="fill:#96c69a;fill-opacity:0.5;stroke:#ffffff;stroke-linejoin:miter;stroke-width:2;"/>
   </g>
   <g id="patch_16">
    <path clip-path="url(#p6d25a923b0)" d="M 410.703388 92.437143 
L 444.463907 92.437143 
L 444.463907 11.258912 
L 410.703388 11.258912 
z
" style="fill:#96c69a;fill-opacity:0.5;stroke:#ffffff;stroke-linejoin:miter;stroke-width:2;"/>
   </g>
   <g id="patch_17">
    <path clip-path="url(#p6d25a923b0)" d="M 444.463907 92.437143 
L 478.224427 92.437143 
L 478.224427 11.258912 
L 444.463907 11.258912 
z
" style="fill:#96c69a;fill-opacity:0.5;stroke:#ffffff;stroke-linejoin:miter;stroke-width:2;"/>
   </g>
   <g id="patch_18">
    <path clip-path="url(#p6d25a923b0)" d="M 478.224427 92.437143 
L 511.984946 92.437143 
L 511.984946 11.258912 
L 478.224427 11.258912 
z
" style="fill:#96c69a;fill-opacity:0.5;stroke:#ffffff;stroke-linejoin:miter;stroke-width:2;"/>
   </g>
   <g id="patch_19">
    <path clip-path="url(#p6d25a923b0)" d="M 511.984946 92.437143 
L 545.745466 92.437143 
L 545.745466 11.258912 
L 511.984946 11.258912 
z
" style="fill:#96c69a;fill-opacity:0.5;stroke:#ffffff;stroke-linejoin:miter;stroke-width:2;"/>
   </g>
   <g id="patch_20">
    <path d="M 84.914375 92.437143 
L 84.914375 7.2 
" style="fill:none;stroke:#262626;stroke-linecap:square;stroke-linejoin:miter;stroke-width:2.5;"/>
   </g>
   <g id="patch_21">
    <path d="M 84.914375 92.437143 
L 567.689804 92.437143 
" style="fill:none;stroke:#262626;stroke-linecap:square;stroke-linejoin:miter;stroke-width:2.5;"/>
   </g>
  </g>
  <g id="axes_3">
   <g id="patch_22">
    <path d="M 584.337232 603.86 
L 667.574375 603.86 
L 667.574375 109.484571 
L 584.337232 109.484571 
z
" style="fill:none;"/>
   </g>
   <g id="matplotlib.axis_5">
    <g id="xtick_13">
     <g id="text_17">
      <!-- 0 -->
      <g style="fill:#262626;" transform="translate(577.338482 636.076563)scale(0.22 -0.22)">
       <use xlink:href="#DejaVuSans-30"/>
      </g>
     </g>
    </g>
    <g id="xtick_14">
     <g id="text_18">
      <!-- 100 -->
      <g style="fill:#262626;" transform="translate(605.063861 636.076563)scale(0.22 -0.22)">
       <use xlink:href="#DejaVuSans-31"/>
       <use x="63.623047" xlink:href="#DejaVuSans-30"/>
       <use x="127.246094" xlink:href="#DejaVuSans-30"/>
      </g>
     </g>
    </g>
   </g>
   <g id="matplotlib.axis_6">
    <g id="ytick_7"/>
    <g id="ytick_8"/>
    <g id="ytick_9"/>
    <g id="ytick_10"/>
   </g>
   <g id="patch_23">
    <path clip-path="url(#p67bce89d48)" d="M 584.337232 581.38839 
L 585.17169 581.38839 
L 585.17169 568.169795 
L 584.337232 568.169795 
z
" style="fill:#96c69a;fill-opacity:0.5;stroke:#ffffff;stroke-linejoin:miter;stroke-width:1.321859;"/>
   </g>
   <g id="patch_24">
    <path clip-path="url(#p67bce89d48)" d="M 584.337232 568.169795 
L 588.50952 568.169795 
L 588.50952 554.951201 
L 584.337232 554.951201 
z
" style="fill:#96c69a;fill-opacity:0.5;stroke:#ffffff;stroke-linejoin:miter;stroke-width:1.321859;"/>
   </g>
   <g id="patch_25">
    <path clip-path="url(#p67bce89d48)" d="M 584.337232 554.951201 
L 589.761206 554.951201 
L 589.761206 541.732607 
L 584.337232 541.732607 
z
" style="fill:#96c69a;fill-opacity:0.5;stroke:#ffffff;stroke-linejoin:miter;stroke-width:1.321859;"/>
   </g>
   <g id="patch_26">
    <path clip-path="url(#p67bce89d48)" d="M 584.337232 541.732607 
L 595.602409 541.732607 
L 595.602409 528.514012 
L 584.337232 528.514012 
z
" style="fill:#96c69a;fill-opacity:0.5;stroke:#ffffff;stroke-linejoin:miter;stroke-width:1.321859;"/>
   </g>
   <g id="patch_27">
    <path clip-path="url(#p67bce89d48)" d="M 584.337232 528.514012 
L 601.443612 528.514012 
L 601.443612 515.295418 
L 584.337232 515.295418 
z
" style="fill:#96c69a;fill-opacity:0.5;stroke:#ffffff;stroke-linejoin:miter;stroke-width:1.321859;"/>
   </g>
   <g id="patch_28">
    <path clip-path="url(#p67bce89d48)" d="M 584.337232 515.295418 
L 611.457103 515.295418 
L 611.457103 502.076824 
L 584.337232 502.076824 
z
" style="fill:#96c69a;fill-opacity:0.5;stroke:#ffffff;stroke-linejoin:miter;stroke-width:1.321859;"/>
   </g>
   <g id="patch_29">
    <path clip-path="url(#p67bce89d48)" d="M 584.337232 502.076824 
L 620.636137 502.076824 
L 620.636137 488.858229 
L 584.337232 488.858229 
z
" style="fill:#96c69a;fill-opacity:0.5;stroke:#ffffff;stroke-linejoin:miter;stroke-width:1.321859;"/>
   </g>
   <g id="patch_30">
    <path clip-path="url(#p67bce89d48)" d="M 584.337232 488.858229 
L 638.576974 488.858229 
L 638.576974 475.639635 
L 584.337232 475.639635 
z
" style="fill:#96c69a;fill-opacity:0.5;stroke:#ffffff;stroke-linejoin:miter;stroke-width:1.321859;"/>
   </g>
   <g id="patch_31">
    <path clip-path="url(#p67bce89d48)" d="M 584.337232 475.639635 
L 645.252635 475.639635 
L 645.252635 462.42104 
L 584.337232 462.42104 
z
" style="fill:#96c69a;fill-opacity:0.5;stroke:#ffffff;stroke-linejoin:miter;stroke-width:1.321859;"/>
   </g>
   <g id="patch_32">
    <path clip-path="url(#p67bce89d48)" d="M 584.337232 462.42104 
L 648.590465 462.42104 
L 648.590465 449.202446 
L 584.337232 449.202446 
z
" style="fill:#96c69a;fill-opacity:0.5;stroke:#ffffff;stroke-linejoin:miter;stroke-width:1.321859;"/>
   </g>
   <g id="patch_33">
    <path clip-path="url(#p67bce89d48)" d="M 584.337232 449.202446 
L 663.610702 449.202446 
L 663.610702 435.983852 
L 584.337232 435.983852 
z
" style="fill:#96c69a;fill-opacity:0.5;stroke:#ffffff;stroke-linejoin:miter;stroke-width:1.321859;"/>
   </g>
   <g id="patch_34">
    <path clip-path="url(#p67bce89d48)" d="M 584.337232 435.983852 
L 656.517812 435.983852 
L 656.517812 422.765257 
L 584.337232 422.765257 
z
" style="fill:#96c69a;fill-opacity:0.5;stroke:#ffffff;stroke-linejoin:miter;stroke-width:1.321859;"/>
   </g>
   <g id="patch_35">
    <path clip-path="url(#p67bce89d48)" d="M 584.337232 422.765257 
L 646.504321 422.765257 
L 646.504321 409.546663 
L 584.337232 409.546663 
z
" style="fill:#96c69a;fill-opacity:0.5;stroke:#ffffff;stroke-linejoin:miter;stroke-width:1.321859;"/>
   </g>
   <g id="patch_36">
    <path clip-path="url(#p67bce89d48)" d="M 584.337232 409.546663 
L 645.669864 409.546663 
L 645.669864 396.328069 
L 584.337232 396.328069 
z
" style="fill:#96c69a;fill-opacity:0.5;stroke:#ffffff;stroke-linejoin:miter;stroke-width:1.321859;"/>
   </g>
   <g id="patch_37">
    <path clip-path="url(#p67bce89d48)" d="M 584.337232 396.328069 
L 644.835406 396.328069 
L 644.835406 383.109474 
L 584.337232 383.109474 
z
" style="fill:#96c69a;fill-opacity:0.5;stroke:#ffffff;stroke-linejoin:miter;stroke-width:1.321859;"/>
   </g>
   <g id="patch_38">
    <path clip-path="url(#p67bce89d48)" d="M 584.337232 383.109474 
L 622.72228 383.109474 
L 622.72228 369.89088 
L 584.337232 369.89088 
z
" style="fill:#96c69a;fill-opacity:0.5;stroke:#ffffff;stroke-linejoin:miter;stroke-width:1.321859;"/>
   </g>
   <g id="patch_39">
    <path clip-path="url(#p67bce89d48)" d="M 584.337232 369.89088 
L 625.225653 369.89088 
L 625.225653 356.672286 
L 584.337232 356.672286 
z
" style="fill:#96c69a;fill-opacity:0.5;stroke:#ffffff;stroke-linejoin:miter;stroke-width:1.321859;"/>
   </g>
   <g id="patch_40">
    <path clip-path="url(#p67bce89d48)" d="M 584.337232 356.672286 
L 618.549993 356.672286 
L 618.549993 343.453691 
L 584.337232 343.453691 
z
" style="fill:#96c69a;fill-opacity:0.5;stroke:#ffffff;stroke-linejoin:miter;stroke-width:1.321859;"/>
   </g>
   <g id="patch_41">
    <path clip-path="url(#p67bce89d48)" d="M 584.337232 343.453691 
L 608.953731 343.453691 
L 608.953731 330.235097 
L 584.337232 330.235097 
z
" style="fill:#96c69a;fill-opacity:0.5;stroke:#ffffff;stroke-linejoin:miter;stroke-width:1.321859;"/>
   </g>
   <g id="patch_42">
    <path clip-path="url(#p67bce89d48)" d="M 584.337232 330.235097 
L 609.788188 330.235097 
L 609.788188 317.016503 
L 584.337232 317.016503 
z
" style="fill:#96c69a;fill-opacity:0.5;stroke:#ffffff;stroke-linejoin:miter;stroke-width:1.321859;"/>
   </g>
   <g id="patch_43">
    <path clip-path="url(#p67bce89d48)" d="M 584.337232 317.016503 
L 600.609155 317.016503 
L 600.609155 303.797908 
L 584.337232 303.797908 
z
" style="fill:#96c69a;fill-opacity:0.5;stroke:#ffffff;stroke-linejoin:miter;stroke-width:1.321859;"/>
   </g>
   <g id="patch_44">
    <path clip-path="url(#p67bce89d48)" d="M 584.337232 303.797908 
L 598.523011 303.797908 
L 598.523011 290.579314 
L 584.337232 290.579314 
z
" style="fill:#96c69a;fill-opacity:0.5;stroke:#ffffff;stroke-linejoin:miter;stroke-width:1.321859;"/>
   </g>
   <g id="patch_45">
    <path clip-path="url(#p67bce89d48)" d="M 584.337232 290.579314 
L 591.012893 290.579314 
L 591.012893 277.36072 
L 584.337232 277.36072 
z
" style="fill:#96c69a;fill-opacity:0.5;stroke:#ffffff;stroke-linejoin:miter;stroke-width:1.321859;"/>
   </g>
   <g id="patch_46">
    <path clip-path="url(#p67bce89d48)" d="M 584.337232 277.36072 
L 590.595664 277.36072 
L 590.595664 264.142125 
L 584.337232 264.142125 
z
" style="fill:#96c69a;fill-opacity:0.5;stroke:#ffffff;stroke-linejoin:miter;stroke-width:1.321859;"/>
   </g>
   <g id="patch_47">
    <path clip-path="url(#p67bce89d48)" d="M 584.337232 264.142125 
L 586.006147 264.142125 
L 586.006147 250.923531 
L 584.337232 250.923531 
z
" style="fill:#96c69a;fill-opacity:0.5;stroke:#ffffff;stroke-linejoin:miter;stroke-width:1.321859;"/>
   </g>
   <g id="patch_48">
    <path clip-path="url(#p67bce89d48)" d="M 584.337232 250.923531 
L 589.343978 250.923531 
L 589.343978 237.704937 
L 584.337232 237.704937 
z
" style="fill:#96c69a;fill-opacity:0.5;stroke:#ffffff;stroke-linejoin:miter;stroke-width:1.321859;"/>
   </g>
   <g id="patch_49">
    <path clip-path="url(#p67bce89d48)" d="M 584.337232 237.704937 
L 585.588919 237.704937 
L 585.588919 224.486342 
L 584.337232 224.486342 
z
" style="fill:#96c69a;fill-opacity:0.5;stroke:#ffffff;stroke-linejoin:miter;stroke-width:1.321859;"/>
   </g>
   <g id="patch_50">
    <path clip-path="url(#p67bce89d48)" d="M 584.337232 224.486342 
L 585.588919 224.486342 
L 585.588919 211.267748 
L 584.337232 211.267748 
z
" style="fill:#96c69a;fill-opacity:0.5;stroke:#ffffff;stroke-linejoin:miter;stroke-width:1.321859;"/>
   </g>
   <g id="patch_51">
    <path clip-path="url(#p67bce89d48)" d="M 584.337232 211.267748 
L 584.754461 211.267748 
L 584.754461 198.049154 
L 584.337232 198.049154 
z
" style="fill:#96c69a;fill-opacity:0.5;stroke:#ffffff;stroke-linejoin:miter;stroke-width:1.321859;"/>
   </g>
   <g id="patch_52">
    <path clip-path="url(#p67bce89d48)" d="M 584.337232 198.049154 
L 584.754461 198.049154 
L 584.754461 184.830559 
L 584.337232 184.830559 
z
" style="fill:#96c69a;fill-opacity:0.5;stroke:#ffffff;stroke-linejoin:miter;stroke-width:1.321859;"/>
   </g>
   <g id="patch_53">
    <path clip-path="url(#p67bce89d48)" d="M 584.337232 184.830559 
L 584.337232 184.830559 
L 584.337232 171.611965 
L 584.337232 171.611965 
z
" style="fill:#96c69a;fill-opacity:0.5;stroke:#ffffff;stroke-linejoin:miter;stroke-width:1.321859;"/>
   </g>
   <g id="patch_54">
    <path clip-path="url(#p67bce89d48)" d="M 584.337232 171.611965 
L 584.337232 171.611965 
L 584.337232 158.393371 
L 584.337232 158.393371 
z
" style="fill:#96c69a;fill-opacity:0.5;stroke:#ffffff;stroke-linejoin:miter;stroke-width:1.321859;"/>
   </g>
   <g id="patch_55">
    <path clip-path="url(#p67bce89d48)" d="M 584.337232 158.393371 
L 584.337232 158.393371 
L 584.337232 145.174776 
L 584.337232 145.174776 
z
" style="fill:#96c69a;fill-opacity:0.5;stroke:#ffffff;stroke-linejoin:miter;stroke-width:1.321859;"/>
   </g>
   <g id="patch_56">
    <path clip-path="url(#p67bce89d48)" d="M 584.337232 145.174776 
L 584.754461 145.174776 
L 584.754461 131.956182 
L 584.337232 131.956182 
z
" style="fill:#96c69a;fill-opacity:0.5;stroke:#ffffff;stroke-linejoin:miter;stroke-width:1.321859;"/>
   </g>
   <g id="patch_57">
    <path d="M 584.337232 603.86 
L 584.337232 109.484571 
" style="fill:none;stroke:#262626;stroke-linecap:square;stroke-linejoin:miter;stroke-width:2.5;"/>
   </g>
   <g id="patch_58">
    <path d="M 584.337232 603.86 
L 667.574375 603.86 
" style="fill:none;stroke:#262626;stroke-linecap:square;stroke-linejoin:miter;stroke-width:2.5;"/>
   </g>
  </g>
 </g>
 <defs>
  <clipPath id="p2c9bb99393">
   <rect height="494.375429" width="482.775429" x="84.914375" y="109.484571"/>
  </clipPath>
  <clipPath id="p6d25a923b0">
   <rect height="85.237143" width="482.775429" x="84.914375" y="7.2"/>
  </clipPath>
  <clipPath id="p67bce89d48">
   <rect height="494.375429" width="83.237143" x="584.337232" y="109.484571"/>
  </clipPath>
 </defs>
</svg>
