<?xml version="1.0" encoding="utf-8" standalone="no"?>
<!DOCTYPE svg PUBLIC "-//W3C//DTD SVG 1.1//EN"
  "http://www.w3.org/Graphics/SVG/1.1/DTD/svg11.dtd">
<svg height="675.079375pt" version="1.1" viewBox="0 0 674.774375 675.079375" width="674.774375pt" xmlns="http://www.w3.org/2000/svg" xmlns:xlink="http://www.w3.org/1999/xlink">
 <metadata>
  <rdf:RDF xmlns:cc="http://creativecommons.org/ns#" xmlns:dc="http://purl.org/dc/elements/1.1/" xmlns:rdf="http://www.w3.org/1999/02/22-rdf-syntax-ns#">
   <cc:Work>
    <dc:type rdf:resource="http://purl.org/dc/dcmitype/StillImage"/>
    <dc:date>2021-07-16T22:22:04.110367</dc:date>
    <dc:format>image/svg+xml</dc:format>
    <dc:creator>
     <cc:Agent>
      <dc:title>Matplotlib v3.4.2, https://matplotlib.org/</dc:title>
     </cc:Agent>
    </dc:creator>
   </cc:Work>
  </rdf:RDF>
 </metadata>
 <defs>
  <style type="text/css">*{stroke-linecap:butt;stroke-linejoin:round;}</style>
 </defs>
 <g id="figure_1">
  <g id="patch_1">
   <path d="M 0 675.079375 
L 674.774375 675.079375 
L 674.774375 0 
L 0 0 
z
" style="fill:#ffffff;"/>
  </g>
  <g id="axes_1">
   <g id="patch_2">
    <path d="M 84.914375 603.86 
L 567.689804 603.86 
L 567.689804 109.484571 
L 84.914375 109.484571 
z
" style="fill:none;"/>
   </g>
   <g id="matplotlib.axis_1">
    <g id="xtick_1">
     <g id="text_1">
      <!-- 0 -->
      <g style="fill:#262626;" transform="translate(99.64041 636.076563)scale(0.22 -0.22)">
       <defs>
        <path d="M 2034 4250 
Q 1547 4250 1301 3770 
Q 1056 3291 1056 2328 
Q 1056 1369 1301 889 
Q 1547 409 2034 409 
Q 2525 409 2770 889 
Q 3016 1369 3016 2328 
Q 3016 3291 2770 3770 
Q 2525 4250 2034 4250 
z
M 2034 4750 
Q 2819 4750 3233 4129 
Q 3647 3509 3647 2328 
Q 3647 1150 3233 529 
Q 2819 -91 2034 -91 
Q 1250 -91 836 529 
Q 422 1150 422 2328 
Q 422 3509 836 4129 
Q 1250 4750 2034 4750 
z
" id="DejaVuSans-30" transform="scale(0.015625)"/>
       </defs>
       <use xlink:href="#DejaVuSans-30"/>
      </g>
     </g>
    </g>
    <g id="xtick_2">
     <g id="text_2">
      <!-- 20000 -->
      <g style="fill:#262626;" transform="translate(159.466671 636.076563)scale(0.22 -0.22)">
       <defs>
        <path d="M 1228 531 
L 3431 531 
L 3431 0 
L 469 0 
L 469 531 
Q 828 903 1448 1529 
Q 2069 2156 2228 2338 
Q 2531 2678 2651 2914 
Q 2772 3150 2772 3378 
Q 2772 3750 2511 3984 
Q 2250 4219 1831 4219 
Q 1534 4219 1204 4116 
Q 875 4013 500 3803 
L 500 4441 
Q 881 4594 1212 4672 
Q 1544 4750 1819 4750 
Q 2544 4750 2975 4387 
Q 3406 4025 3406 3419 
Q 3406 3131 3298 2873 
Q 3191 2616 2906 2266 
Q 2828 2175 2409 1742 
Q 1991 1309 1228 531 
z
" id="DejaVuSans-32" transform="scale(0.015625)"/>
       </defs>
       <use xlink:href="#DejaVuSans-32"/>
       <use x="63.623047" xlink:href="#DejaVuSans-30"/>
       <use x="127.246094" xlink:href="#DejaVuSans-30"/>
       <use x="190.869141" xlink:href="#DejaVuSans-30"/>
       <use x="254.492188" xlink:href="#DejaVuSans-30"/>
      </g>
     </g>
    </g>
    <g id="xtick_3">
     <g id="text_3">
      <!-- 40000 -->
      <g style="fill:#262626;" transform="translate(247.287932 636.076563)scale(0.22 -0.22)">
       <defs>
        <path d="M 2419 4116 
L 825 1625 
L 2419 1625 
L 2419 4116 
z
M 2253 4666 
L 3047 4666 
L 3047 1625 
L 3713 1625 
L 3713 1100 
L 3047 1100 
L 3047 0 
L 2419 0 
L 2419 1100 
L 313 1100 
L 313 1709 
L 2253 4666 
z
" id="DejaVuSans-34" transform="scale(0.015625)"/>
       </defs>
       <use xlink:href="#DejaVuSans-34"/>
       <use x="63.623047" xlink:href="#DejaVuSans-30"/>
       <use x="127.246094" xlink:href="#DejaVuSans-30"/>
       <use x="190.869141" xlink:href="#DejaVuSans-30"/>
       <use x="254.492188" xlink:href="#DejaVuSans-30"/>
      </g>
     </g>
    </g>
    <g id="xtick_4">
     <g id="text_4">
      <!-- 60000 -->
      <g style="fill:#262626;" transform="translate(335.109193 636.076563)scale(0.22 -0.22)">
       <defs>
        <path d="M 2113 2584 
Q 1688 2584 1439 2293 
Q 1191 2003 1191 1497 
Q 1191 994 1439 701 
Q 1688 409 2113 409 
Q 2538 409 2786 701 
Q 3034 994 3034 1497 
Q 3034 2003 2786 2293 
Q 2538 2584 2113 2584 
z
M 3366 4563 
L 3366 3988 
Q 3128 4100 2886 4159 
Q 2644 4219 2406 4219 
Q 1781 4219 1451 3797 
Q 1122 3375 1075 2522 
Q 1259 2794 1537 2939 
Q 1816 3084 2150 3084 
Q 2853 3084 3261 2657 
Q 3669 2231 3669 1497 
Q 3669 778 3244 343 
Q 2819 -91 2113 -91 
Q 1303 -91 875 529 
Q 447 1150 447 2328 
Q 447 3434 972 4092 
Q 1497 4750 2381 4750 
Q 2619 4750 2861 4703 
Q 3103 4656 3366 4563 
z
" id="DejaVuSans-36" transform="scale(0.015625)"/>
       </defs>
       <use xlink:href="#DejaVuSans-36"/>
       <use x="63.623047" xlink:href="#DejaVuSans-30"/>
       <use x="127.246094" xlink:href="#DejaVuSans-30"/>
       <use x="190.869141" xlink:href="#DejaVuSans-30"/>
       <use x="254.492188" xlink:href="#DejaVuSans-30"/>
      </g>
     </g>
    </g>
    <g id="xtick_5">
     <g id="text_5">
      <!-- 80000 -->
      <g style="fill:#262626;" transform="translate(422.930455 636.076563)scale(0.22 -0.22)">
       <defs>
        <path d="M 2034 2216 
Q 1584 2216 1326 1975 
Q 1069 1734 1069 1313 
Q 1069 891 1326 650 
Q 1584 409 2034 409 
Q 2484 409 2743 651 
Q 3003 894 3003 1313 
Q 3003 1734 2745 1975 
Q 2488 2216 2034 2216 
z
M 1403 2484 
Q 997 2584 770 2862 
Q 544 3141 544 3541 
Q 544 4100 942 4425 
Q 1341 4750 2034 4750 
Q 2731 4750 3128 4425 
Q 3525 4100 3525 3541 
Q 3525 3141 3298 2862 
Q 3072 2584 2669 2484 
Q 3125 2378 3379 2068 
Q 3634 1759 3634 1313 
Q 3634 634 3220 271 
Q 2806 -91 2034 -91 
Q 1263 -91 848 271 
Q 434 634 434 1313 
Q 434 1759 690 2068 
Q 947 2378 1403 2484 
z
M 1172 3481 
Q 1172 3119 1398 2916 
Q 1625 2713 2034 2713 
Q 2441 2713 2670 2916 
Q 2900 3119 2900 3481 
Q 2900 3844 2670 4047 
Q 2441 4250 2034 4250 
Q 1625 4250 1398 4047 
Q 1172 3844 1172 3481 
z
" id="DejaVuSans-38" transform="scale(0.015625)"/>
       </defs>
       <use xlink:href="#DejaVuSans-38"/>
       <use x="63.623047" xlink:href="#DejaVuSans-30"/>
       <use x="127.246094" xlink:href="#DejaVuSans-30"/>
       <use x="190.869141" xlink:href="#DejaVuSans-30"/>
       <use x="254.492188" xlink:href="#DejaVuSans-30"/>
      </g>
     </g>
    </g>
    <g id="xtick_6">
     <g id="text_6">
      <!-- 100000 -->
      <g style="fill:#262626;" transform="translate(503.752966 636.076563)scale(0.22 -0.22)">
       <defs>
        <path d="M 794 531 
L 1825 531 
L 1825 4091 
L 703 3866 
L 703 4441 
L 1819 4666 
L 2450 4666 
L 2450 531 
L 3481 531 
L 3481 0 
L 794 0 
L 794 531 
z
" id="DejaVuSans-31" transform="scale(0.015625)"/>
       </defs>
       <use xlink:href="#DejaVuSans-31"/>
       <use x="63.623047" xlink:href="#DejaVuSans-30"/>
       <use x="127.246094" xlink:href="#DejaVuSans-30"/>
       <use x="190.869141" xlink:href="#DejaVuSans-30"/>
       <use x="254.492188" xlink:href="#DejaVuSans-30"/>
       <use x="318.115234" xlink:href="#DejaVuSans-30"/>
      </g>
     </g>
    </g>
    <g id="text_7">
     <!-- MDTU -->
     <g style="fill:#262626;" transform="translate(290.596464 662.888125)scale(0.24 -0.24)">
      <defs>
       <path d="M 628 4666 
L 1569 4666 
L 2759 1491 
L 3956 4666 
L 4897 4666 
L 4897 0 
L 4281 0 
L 4281 4097 
L 3078 897 
L 2444 897 
L 1241 4097 
L 1241 0 
L 628 0 
L 628 4666 
z
" id="DejaVuSans-4d" transform="scale(0.015625)"/>
       <path d="M 1259 4147 
L 1259 519 
L 2022 519 
Q 2988 519 3436 956 
Q 3884 1394 3884 2338 
Q 3884 3275 3436 3711 
Q 2988 4147 2022 4147 
L 1259 4147 
z
M 628 4666 
L 1925 4666 
Q 3281 4666 3915 4102 
Q 4550 3538 4550 2338 
Q 4550 1131 3912 565 
Q 3275 0 1925 0 
L 628 0 
L 628 4666 
z
" id="DejaVuSans-44" transform="scale(0.015625)"/>
       <path d="M -19 4666 
L 3928 4666 
L 3928 4134 
L 2272 4134 
L 2272 0 
L 1638 0 
L 1638 4134 
L -19 4134 
L -19 4666 
z
" id="DejaVuSans-54" transform="scale(0.015625)"/>
       <path d="M 556 4666 
L 1191 4666 
L 1191 1831 
Q 1191 1081 1462 751 
Q 1734 422 2344 422 
Q 2950 422 3222 751 
Q 3494 1081 3494 1831 
L 3494 4666 
L 4128 4666 
L 4128 1753 
Q 4128 841 3676 375 
Q 3225 -91 2344 -91 
Q 1459 -91 1007 375 
Q 556 841 556 1753 
L 556 4666 
z
" id="DejaVuSans-55" transform="scale(0.015625)"/>
      </defs>
      <use xlink:href="#DejaVuSans-4d"/>
      <use x="86.279297" xlink:href="#DejaVuSans-44"/>
      <use x="163.28125" xlink:href="#DejaVuSans-54"/>
      <use x="224.365234" xlink:href="#DejaVuSans-55"/>
     </g>
    </g>
   </g>
   <g id="matplotlib.axis_2">
    <g id="ytick_1">
     <g id="text_8">
      <!-- 0.4 -->
      <g style="fill:#262626;" transform="translate(34.4275 605.455196)scale(0.22 -0.22)">
       <defs>
        <path d="M 684 794 
L 1344 794 
L 1344 0 
L 684 0 
L 684 794 
z
" id="DejaVuSans-2e" transform="scale(0.015625)"/>
       </defs>
       <use xlink:href="#DejaVuSans-30"/>
       <use x="63.623047" xlink:href="#DejaVuSans-2e"/>
       <use x="95.410156" xlink:href="#DejaVuSans-34"/>
      </g>
     </g>
    </g>
    <g id="ytick_2">
     <g id="text_9">
      <!-- 0.6 -->
      <g style="fill:#262626;" transform="translate(34.4275 517.002249)scale(0.22 -0.22)">
       <use xlink:href="#DejaVuSans-30"/>
       <use x="63.623047" xlink:href="#DejaVuSans-2e"/>
       <use x="95.410156" xlink:href="#DejaVuSans-36"/>
      </g>
     </g>
    </g>
    <g id="ytick_3">
     <g id="text_10">
      <!-- 0.8 -->
      <g style="fill:#262626;" transform="translate(34.4275 428.549302)scale(0.22 -0.22)">
       <use xlink:href="#DejaVuSans-30"/>
       <use x="63.623047" xlink:href="#DejaVuSans-2e"/>
       <use x="95.410156" xlink:href="#DejaVuSans-38"/>
      </g>
     </g>
    </g>
    <g id="ytick_4">
     <g id="text_11">
      <!-- 1.0 -->
      <g style="fill:#262626;" transform="translate(34.4275 340.096355)scale(0.22 -0.22)">
       <use xlink:href="#DejaVuSans-31"/>
       <use x="63.623047" xlink:href="#DejaVuSans-2e"/>
       <use x="95.410156" xlink:href="#DejaVuSans-30"/>
      </g>
     </g>
    </g>
    <g id="ytick_5">
     <g id="text_12">
      <!-- 1.2 -->
      <g style="fill:#262626;" transform="translate(34.4275 251.643408)scale(0.22 -0.22)">
       <use xlink:href="#DejaVuSans-31"/>
       <use x="63.623047" xlink:href="#DejaVuSans-2e"/>
       <use x="95.410156" xlink:href="#DejaVuSans-32"/>
      </g>
     </g>
    </g>
    <g id="ytick_6">
     <g id="text_13">
      <!-- 1.4 -->
      <g style="fill:#262626;" transform="translate(34.4275 163.190461)scale(0.22 -0.22)">
       <use xlink:href="#DejaVuSans-31"/>
       <use x="63.623047" xlink:href="#DejaVuSans-2e"/>
       <use x="95.410156" xlink:href="#DejaVuSans-34"/>
      </g>
     </g>
    </g>
    <g id="text_14">
     <!-- $E$ -->
     <g style="fill:#262626;" transform="translate(25.43625 364.352286)rotate(-90)scale(0.24 -0.24)">
      <defs>
       <path d="M 1081 4666 
L 4031 4666 
L 3928 4134 
L 1606 4134 
L 1338 2753 
L 3566 2753 
L 3463 2222 
L 1234 2222 
L 909 531 
L 3284 531 
L 3181 0 
L 172 0 
L 1081 4666 
z
" id="DejaVuSans-Oblique-45" transform="scale(0.015625)"/>
      </defs>
      <use transform="translate(0 0.09375)" xlink:href="#DejaVuSans-Oblique-45"/>
     </g>
    </g>
   </g>
   <g id="line2d_1">
    <path clip-path="url(#p91b796bb8f)" d="M 106.858713 466.111495 
L 107.297819 544.313148 
L 107.736925 336.332577 
L 107.956478 463.274751 
L 108.176032 501.865975 
L 108.395585 574.281651 
L 108.615138 532.814607 
L 109.054244 360.512923 
L 109.273797 421.355343 
L 109.493351 370.6323 
L 109.712904 467.470983 
L 109.932457 380.751608 
L 110.371563 523.010502 
L 110.591116 176.348845 
L 110.810669 382.648455 
L 111.030223 413.522893 
L 111.249776 385.257192 
L 111.469329 336.867006 
L 111.688882 379.872046 
L 111.908435 314.574269 
L 112.127988 286.10608 
L 112.567095 501.888138 
L 112.786648 493.207964 
L 113.006201 423.916194 
L 113.225754 422.643036 
L 113.445307 433.656039 
L 113.66486 536.958968 
L 113.884414 518.675153 
L 114.103967 374.620469 
L 114.32352 448.660398 
L 114.543073 461.794477 
L 114.762626 502.250649 
L 114.982179 363.831149 
L 115.201732 418.682811 
L 115.421286 409.914765 
L 115.860392 483.188594 
L 116.079945 501.262695 
L 116.299498 373.932154 
L 116.519051 318.920724 
L 116.738605 302.558231 
L 116.958158 430.595568 
L 117.177711 378.443296 
L 117.397264 501.389879 
L 117.616817 389.563008 
L 117.83637 481.732884 
L 118.055923 430.331841 
L 118.275477 412.210535 
L 118.49503 420.779105 
L 118.714583 392.235005 
L 118.934136 443.504514 
L 119.153689 409.283099 
L 119.373242 429.818903 
L 119.592796 304.468205 
L 119.812349 440.41564 
L 120.031902 323.366463 
L 120.471008 459.494198 
L 120.690561 196.031336 
L 121.129668 532.190613 
L 121.349221 345.362941 
L 121.788327 498.941163 
L 122.227433 373.578576 
L 122.446987 361.663474 
L 122.66654 289.232451 
L 122.886093 437.404436 
L 123.105646 445.2757 
L 123.325199 464.519303 
L 123.544752 366.118694 
L 123.764305 436.543235 
L 123.983859 349.39768 
L 124.422965 443.828413 
L 124.642518 326.442981 
L 124.862071 300.154771 
L 125.301178 398.737581 
L 125.520731 387.585813 
L 125.959837 510.072623 
L 126.17939 415.813694 
L 126.398943 419.565243 
L 126.618496 447.175697 
L 126.83805 421.818793 
L 127.277156 515.304484 
L 127.496709 362.772586 
L 127.716262 346.949793 
L 127.935815 430.635084 
L 128.155369 326.767503 
L 128.374922 471.827175 
L 128.594475 381.400583 
L 128.814028 417.596487 
L 129.033581 376.320047 
L 129.253134 401.862087 
L 129.692241 488.433909 
L 129.911794 547.557573 
L 130.131347 365.073919 
L 130.3509 365.476482 
L 130.570453 269.95162 
L 130.790006 391.18666 
L 131.00956 435.467122 
L 131.229113 241.97931 
L 131.448666 361.012325 
L 131.668219 373.444079 
L 131.887772 486.489659 
L 132.107325 286.23449 
L 132.326878 506.26521 
L 132.546432 362.812232 
L 132.765985 476.873612 
L 132.985538 439.84742 
L 133.205091 502.470226 
L 133.424644 352.085327 
L 133.644197 537.371559 
L 133.863751 415.089313 
L 134.302857 324.658882 
L 134.52241 430.923138 
L 134.741963 228.260332 
L 134.961516 321.092021 
L 135.181069 251.334698 
L 135.400623 473.942558 
L 135.620176 320.608077 
L 135.839729 340.271698 
L 136.059282 497.60564 
L 136.278835 450.572077 
L 136.498388 430.76863 
L 136.717941 479.70228 
L 136.937495 430.543882 
L 137.157048 353.943815 
L 137.596154 497.979121 
L 137.815707 378.569585 
L 138.03526 400.738544 
L 138.254814 524.430691 
L 138.474367 334.414444 
L 138.69392 252.231112 
L 138.913473 455.65912 
L 139.133026 427.230295 
L 139.352579 272.066155 
L 139.572132 519.980576 
L 139.791686 507.257042 
L 140.011239 452.580512 
L 140.230792 470.797737 
L 140.450345 377.612595 
L 140.669898 418.730803 
L 140.889451 497.588118 
L 141.109005 406.815424 
L 141.328558 514.482599 
L 141.548111 375.887919 
L 141.767664 368.721314 
L 141.987217 281.543662 
L 142.20677 480.560511 
L 142.426323 361.671616 
L 142.645877 318.215336 
L 142.86543 336.374759 
L 143.084983 318.607912 
L 143.304536 355.285376 
L 143.524089 533.86856 
L 143.743642 304.248434 
L 143.963196 378.942318 
L 144.182749 374.332093 
L 144.402302 455.297187 
L 144.621855 342.228035 
L 144.841408 392.841649 
L 145.060961 410.355629 
L 145.280514 505.00127 
L 145.500068 465.661629 
L 145.719621 479.786805 
L 145.939174 467.032791 
L 146.37828 363.879151 
L 146.597833 457.859831 
L 146.817387 316.088609 
L 147.256493 510.238316 
L 147.476046 393.77956 
L 147.695599 352.204123 
L 147.915152 493.535071 
L 148.134705 463.103346 
L 148.354259 383.037872 
L 148.573812 499.280206 
L 148.793365 370.016819 
L 149.012918 504.014768 
L 149.232471 411.375453 
L 149.452024 478.28053 
L 149.671578 480.737907 
L 149.891131 485.737055 
L 150.110684 476.031924 
L 150.330237 362.101675 
L 150.54979 371.543368 
L 150.769343 451.5759 
L 150.988896 432.629954 
L 151.20845 458.764287 
L 151.428003 517.142302 
L 151.647556 488.653277 
L 151.867109 310.517358 
L 152.086662 371.459089 
L 152.306215 308.613112 
L 152.525769 497.255221 
L 152.745322 352.385441 
L 152.964875 429.912495 
L 153.184428 552.728117 
L 153.403981 404.52008 
L 153.623534 378.707922 
L 154.062641 460.748709 
L 154.282194 402.127102 
L 154.501747 245.227133 
L 154.7213 515.316544 
L 154.940853 376.584107 
L 155.160406 427.54359 
L 155.37996 528.877032 
L 155.819066 471.488918 
L 156.038619 321.485161 
L 156.258172 330.526437 
L 156.477725 416.237504 
L 156.697278 310.051507 
L 156.916832 448.98332 
L 157.136385 453.453455 
L 157.355938 354.424858 
L 157.575491 323.675817 
L 157.795044 388.066299 
L 158.014597 550.265766 
L 158.234151 299.447208 
L 158.453704 357.965399 
L 158.673257 365.05502 
L 158.89281 356.840822 
L 159.112363 415.575087 
L 159.331916 504.836339 
L 159.551469 487.74609 
L 159.771023 310.382927 
L 159.990576 418.871026 
L 160.210129 280.875929 
L 160.429682 391.650713 
L 160.649235 371.259574 
L 160.868788 391.159113 
L 161.088342 491.881548 
L 161.307895 432.660331 
L 161.527448 422.46427 
L 161.966554 207.749099 
L 162.186107 280.971146 
L 162.40566 393.093053 
L 162.625214 368.280098 
L 163.06432 469.88694 
L 163.283873 445.918687 
L 163.503426 343.544043 
L 163.942532 479.527785 
L 164.162086 230.577872 
L 164.381639 443.021705 
L 164.601192 291.67478 
L 164.820745 415.288234 
L 165.040298 276.395967 
L 165.259851 441.008795 
L 165.698958 480.888008 
L 165.918511 370.68812 
L 166.138064 485.337668 
L 166.357617 485.512318 
L 166.57717 552.377535 
L 166.796723 516.180949 
L 167.23583 326.561062 
L 167.455383 466.774911 
L 167.674936 529.818967 
L 167.894489 549.164405 
L 168.114042 409.016151 
L 168.553149 399.846473 
L 168.772702 470.210963 
L 168.992255 414.968153 
L 169.211808 418.978731 
L 169.431361 475.703642 
L 169.650914 193.97213 
L 169.870468 379.940464 
L 170.090021 354.603362 
L 170.309574 362.647182 
L 170.529127 389.370571 
L 170.74868 376.318987 
L 170.968233 380.369923 
L 171.187787 512.191929 
L 171.40734 536.375417 
L 171.846446 372.814919 
L 172.065999 353.735071 
L 172.285552 350.064196 
L 172.724659 423.637566 
L 172.944212 276.899461 
L 173.163765 284.775526 
L 173.383318 312.18438 
L 173.602871 515.111162 
L 173.822424 300.370802 
L 174.041978 441.901233 
L 174.261531 274.323701 
L 174.481084 493.985741 
L 174.700637 555.171855 
L 175.359296 425.678285 
L 175.57885 192.209843 
L 176.017956 411.331034 
L 176.237509 462.476033 
L 176.457062 163.355743 
L 176.896169 414.453824 
L 177.115722 500.721108 
L 177.554828 435.559958 
L 177.774381 421.844276 
L 177.993934 468.650445 
L 178.433041 305.874538 
L 178.652594 429.833387 
L 178.872147 322.418316 
L 179.311253 425.230957 
L 179.530806 499.776488 
L 179.75036 401.738336 
L 179.969913 455.375817 
L 180.189466 433.722655 
L 180.409019 274.808083 
L 180.848125 460.639857 
L 181.067678 433.247094 
L 181.287232 347.072462 
L 181.726338 516.526026 
L 181.945891 483.038387 
L 182.384997 295.789657 
L 182.824104 509.212365 
L 183.043657 346.540247 
L 183.26321 362.150766 
L 183.482763 492.271164 
L 183.702316 430.305749 
L 183.921869 479.289054 
L 184.360976 192.893683 
L 184.800082 443.230748 
L 185.239188 492.183226 
L 185.458742 460.155787 
L 185.678295 544.955517 
L 185.897848 263.424714 
L 186.117401 456.325112 
L 186.336954 490.620993 
L 186.556507 363.835211 
L 186.77606 360.226336 
L 186.995614 417.535375 
L 187.215167 395.103574 
L 187.43472 430.135193 
L 187.654273 421.487577 
L 187.873826 336.085571 
L 188.093379 447.190976 
L 188.312932 338.295263 
L 188.532486 315.957852 
L 188.752039 406.07265 
L 189.191145 285.682576 
L 189.410698 300.585677 
L 189.630251 268.18698 
L 189.849805 407.145953 
L 190.069358 332.465434 
L 190.288911 469.57983 
L 190.508464 511.779972 
L 190.728017 411.641977 
L 190.94757 362.559923 
L 191.167123 366.500864 
L 191.386677 526.958634 
L 191.60623 502.031062 
L 191.825783 518.557392 
L 192.264889 313.279181 
L 192.484442 317.368371 
L 192.703996 428.618969 
L 192.923549 362.009331 
L 193.143102 464.108281 
L 193.362655 486.564065 
L 193.582208 346.776927 
L 193.801761 424.300367 
L 194.021314 415.258734 
L 194.240868 420.027014 
L 194.460421 438.792367 
L 194.679974 324.339384 
L 194.899527 575.72894 
L 195.11908 313.611081 
L 195.338633 414.056435 
L 195.558187 391.424422 
L 195.77774 348.429263 
L 195.997293 278.397139 
L 196.216846 432.809369 
L 196.436399 443.240324 
L 197.095059 353.404267 
L 197.314612 450.968008 
L 197.534165 421.627051 
L 197.753718 469.078348 
L 197.973271 486.108155 
L 198.192824 430.700852 
L 198.412378 440.481891 
L 198.631931 468.947456 
L 198.851484 257.203299 
L 199.071037 468.457404 
L 199.510143 394.670503 
L 199.729696 491.531687 
L 199.94925 199.30168 
L 200.168803 399.787465 
L 200.388356 394.66734 
L 200.607909 430.338946 
L 200.827462 355.579789 
L 201.047015 406.429321 
L 201.266569 348.13218 
L 201.486122 341.975133 
L 201.705675 411.498052 
L 201.925228 581.38839 
L 202.144781 402.852161 
L 202.364334 380.008689 
L 202.583887 289.730939 
L 202.803441 280.944097 
L 203.022994 457.563931 
L 203.4621 379.421107 
L 203.681653 516.950794 
L 203.901206 491.708772 
L 204.340313 357.788794 
L 204.559866 479.891525 
L 204.779419 441.539756 
L 204.998972 287.729038 
L 205.438078 412.746648 
L 205.657632 391.677482 
L 206.096738 378.020933 
L 206.316291 328.386143 
L 206.755397 515.42296 
L 207.194504 325.046853 
L 207.414057 395.223176 
L 207.63361 281.475131 
L 207.853163 465.562249 
L 208.072716 430.940041 
L 208.292269 416.028435 
L 208.511823 417.398507 
L 208.731376 435.770444 
L 208.950929 372.829979 
L 209.170482 401.858631 
L 209.390035 247.33014 
L 209.609588 411.126691 
L 209.829142 422.256367 
L 210.048695 334.657911 
L 210.268248 366.287667 
L 210.487801 453.945354 
L 210.926907 347.959294 
L 211.366014 482.158911 
L 211.585567 480.476701 
L 211.80512 408.358318 
L 212.024673 504.69835 
L 212.244226 520.707941 
L 212.463779 483.786061 
L 212.683333 295.118959 
L 213.122439 564.645938 
L 213.341992 254.159292 
L 213.561545 491.479491 
L 214.000651 392.881036 
L 214.220205 453.076241 
L 214.439758 291.184524 
L 214.878864 496.795228 
L 215.098417 358.534258 
L 215.31797 337.642364 
L 215.537523 341.843809 
L 215.757077 422.470918 
L 215.97663 462.092255 
L 216.196183 437.329941 
L 216.415736 435.09001 
L 216.635289 411.369008 
L 216.854842 410.603986 
L 217.293949 328.727326 
L 217.513502 425.366547 
L 217.733055 472.255344 
L 217.952608 435.701642 
L 218.172161 362.671216 
L 218.391714 513.628301 
L 218.611268 426.996038 
L 218.830821 465.439656 
L 219.050374 426.753706 
L 219.269927 365.914874 
L 219.48948 235.695773 
L 219.709033 364.682849 
L 219.928587 379.029813 
L 220.14814 356.337349 
L 220.587246 284.265499 
L 220.806799 398.812983 
L 221.026352 445.324629 
L 221.245905 435.485239 
L 221.465459 375.585049 
L 221.685012 420.647589 
L 221.904565 323.933719 
L 222.124118 456.455845 
L 222.343671 492.214553 
L 222.563224 419.383672 
L 222.782778 418.853837 
L 223.221884 265.546681 
L 223.66099 471.639129 
L 223.880543 393.108508 
L 224.100096 443.076404 
L 224.31965 396.935418 
L 224.539203 414.852915 
L 224.758756 361.263822 
L 224.978309 398.010241 
L 225.197862 370.040252 
L 225.417415 411.949762 
L 225.636969 475.21403 
L 225.856522 392.928287 
L 226.076075 251.328865 
L 226.515181 454.35289 
L 226.734734 304.128802 
L 226.954287 319.988523 
L 227.393394 393.543 
L 227.612947 317.542306 
L 228.052053 466.296883 
L 228.271606 303.068754 
L 228.49116 539.806407 
L 228.710713 486.113287 
L 228.930266 387.311351 
L 229.149819 392.999959 
L 229.369372 435.103082 
L 229.588925 515.877125 
L 229.808478 509.201028 
L 230.028032 239.821802 
L 230.247585 364.863808 
L 230.467138 425.215615 
L 230.686691 423.679282 
L 231.125797 390.990984 
L 231.564904 481.689918 
L 231.784457 443.34787 
L 232.00401 356.339312 
L 232.223563 381.371291 
L 232.662669 487.005384 
L 232.882223 467.910733 
L 233.101776 422.853521 
L 233.321329 467.922166 
L 233.540882 450.246595 
L 233.760435 328.183966 
L 234.199542 436.385773 
L 234.419095 409.963768 
L 234.638648 286.295852 
L 235.297307 556.453642 
L 235.51686 389.440679 
L 235.736414 405.669919 
L 235.955967 373.355821 
L 236.17552 442.421091 
L 236.395073 372.397526 
L 236.614626 431.310716 
L 236.834179 437.248136 
L 237.053733 426.029842 
L 237.273286 432.793646 
L 237.492839 427.957688 
L 237.712392 490.819486 
L 238.151498 296.55397 
L 238.371051 502.35428 
L 238.590605 412.32208 
L 238.810158 426.582485 
L 239.029711 483.837255 
L 239.249264 356.915132 
L 239.468817 475.716947 
L 239.68837 439.437919 
L 239.907924 510.563702 
L 240.127477 298.035886 
L 240.34703 410.188197 
L 240.566583 304.938337 
L 240.786136 327.238532 
L 241.005689 495.778942 
L 241.225242 410.197425 
L 241.444796 536.982331 
L 241.664349 439.684637 
L 241.883902 411.238682 
L 242.103455 332.51435 
L 242.323008 336.388864 
L 242.542561 462.053501 
L 242.762114 498.04091 
L 242.981668 371.827954 
L 243.201221 453.01653 
L 243.420774 312.463076 
L 243.640327 433.234227 
L 244.079433 253.697597 
L 244.298987 458.93697 
L 244.738093 303.335165 
L 244.957646 438.518272 
L 245.177199 365.410491 
L 245.396752 535.301027 
L 245.835859 321.817867 
L 246.055412 299.729332 
L 246.274965 478.687572 
L 246.714071 354.035481 
L 246.933624 319.361061 
L 247.153178 469.514681 
L 247.592284 353.552247 
L 247.811837 387.966881 
L 248.03139 348.956923 
L 248.250943 538.43361 
L 248.470496 354.947494 
L 248.69005 453.402862 
L 249.129156 299.298954 
L 249.348709 470.5579 
L 249.568262 424.091425 
L 249.787815 432.613135 
L 250.007369 446.778977 
L 250.446475 349.137892 
L 250.666028 428.650474 
L 250.885581 455.383174 
L 251.324687 404.259096 
L 251.544241 458.036464 
L 251.763794 419.299493 
L 251.983347 404.876884 
L 252.2029 492.710679 
L 252.422453 397.444133 
L 252.642006 408.037682 
L 252.86156 484.123865 
L 253.300666 266.845823 
L 253.520219 428.386842 
L 253.739772 348.376629 
L 253.959325 443.430511 
L 254.178878 395.551648 
L 254.398432 423.650098 
L 254.617985 502.737287 
L 254.837538 329.208254 
L 255.057091 500.053342 
L 255.276644 527.276846 
L 255.496197 368.600473 
L 255.715751 407.689738 
L 255.935304 470.810324 
L 256.154857 335.808985 
L 256.593963 512.47617 
L 256.813516 415.843069 
L 257.033069 459.875977 
L 257.252623 435.752166 
L 257.472176 331.102732 
L 257.691729 389.757555 
L 258.130835 326.685335 
L 258.350388 485.119807 
L 258.569942 422.264383 
L 258.789495 423.01818 
L 259.009048 474.007188 
L 259.228601 425.297891 
L 259.448154 303.467677 
L 259.667707 518.571926 
L 259.88726 431.9102 
L 260.106814 484.932125 
L 260.326367 468.867341 
L 260.54592 442.846893 
L 260.765473 331.007342 
L 261.204579 467.789014 
L 261.424133 431.417604 
L 261.643686 314.182688 
L 261.863239 469.938411 
L 262.302345 510.908619 
L 262.521898 449.19046 
L 262.741451 452.634201 
L 262.961005 340.734172 
L 263.180558 351.65571 
L 263.400111 483.174244 
L 263.619664 509.28652 
L 263.839217 333.994463 
L 264.05877 330.402333 
L 264.278324 422.03565 
L 264.497877 377.985021 
L 264.71743 458.471329 
L 264.936983 372.649086 
L 265.156536 417.249731 
L 265.376089 253.783482 
L 265.595642 339.949912 
L 265.815196 332.331832 
L 266.034749 284.291121 
L 266.254302 327.025718 
L 266.473855 264.636438 
L 266.693408 399.928282 
L 266.912961 452.205689 
L 267.132514 469.280435 
L 267.352068 496.417269 
L 267.571621 376.297075 
L 267.791174 445.366275 
L 268.010727 463.388121 
L 268.23028 431.423248 
L 268.449833 323.680044 
L 268.669387 439.057238 
L 268.88894 388.493126 
L 269.108493 476.52895 
L 269.547599 366.539169 
L 269.767152 435.853989 
L 269.986705 439.351627 
L 270.206259 430.189922 
L 270.425812 339.777181 
L 270.645365 314.564345 
L 270.864918 481.643546 
L 271.084471 481.186568 
L 271.304024 344.676388 
L 271.523578 372.885136 
L 271.743131 436.332312 
L 271.962684 355.297108 
L 272.182237 392.428862 
L 272.40179 277.474733 
L 272.621343 419.777015 
L 272.840896 367.939641 
L 273.06045 348.325391 
L 273.280003 357.659692 
L 273.499556 250.395712 
L 273.719109 531.344229 
L 273.938662 392.731369 
L 274.158215 407.013598 
L 274.377769 389.694281 
L 274.816875 501.063606 
L 275.036428 256.187171 
L 275.255981 366.07783 
L 275.475534 379.679061 
L 275.695087 419.330558 
L 275.914641 327.601744 
L 276.134194 395.694022 
L 276.353747 541.397494 
L 276.792853 422.356462 
L 277.012406 371.418398 
L 277.23196 449.183866 
L 277.451513 444.361439 
L 277.671066 276.305285 
L 277.890619 432.803021 
L 278.110172 467.375944 
L 278.329725 321.347888 
L 278.549278 310.053423 
L 278.768832 400.554396 
L 278.988385 397.810946 
L 279.207938 187.213646 
L 279.427491 314.347367 
L 279.647044 520.014392 
L 279.866597 497.188517 
L 280.086151 347.426658 
L 280.305704 436.429727 
L 280.525257 385.358646 
L 280.74481 480.609323 
L 280.964363 339.494349 
L 281.183916 285.240738 
L 281.623023 517.252359 
L 281.842576 316.0847 
L 282.062129 258.375873 
L 282.281682 453.178035 
L 282.501235 525.008953 
L 282.720788 510.385058 
L 282.940342 394.095105 
L 283.159895 444.754203 
L 283.599001 284.339584 
L 283.818554 359.018463 
L 284.038107 497.981025 
L 284.25766 477.235049 
L 284.477214 267.937821 
L 284.91632 440.159681 
L 285.135873 426.21971 
L 285.355426 253.320599 
L 285.574979 295.872319 
L 285.794533 366.597466 
L 286.014086 317.458051 
L 286.233639 385.547694 
L 286.453192 370.44911 
L 286.672745 433.800008 
L 286.892298 349.93674 
L 287.111851 356.023754 
L 287.331405 426.724324 
L 287.550958 407.325129 
L 287.770511 309.634372 
L 287.990064 394.497639 
L 288.42917 466.139717 
L 288.868277 399.465613 
L 289.08783 487.74516 
L 289.307383 356.710982 
L 289.526936 408.520984 
L 289.746489 269.326263 
L 289.966042 436.573515 
L 290.185596 341.835907 
L 290.405149 473.117878 
L 290.624702 470.679546 
L 290.844255 352.164473 
L 291.063808 476.112293 
L 291.283361 464.516346 
L 291.502915 251.952537 
L 291.722468 284.680792 
L 291.942021 506.908279 
L 292.161574 264.38297 
L 292.381127 414.379243 
L 292.60068 427.22948 
L 292.820233 367.222859 
L 293.039787 390.247694 
L 293.25934 466.72004 
L 293.478893 410.621464 
L 293.698446 495.867546 
L 293.917999 359.290571 
L 294.137552 537.186673 
L 294.357105 329.126612 
L 294.796212 443.810513 
L 295.015765 439.0836 
L 295.235318 390.887096 
L 295.454871 315.486786 
L 295.674424 433.029153 
L 295.893978 389.08036 
L 296.113531 478.917583 
L 296.333084 375.098159 
L 296.77219 287.83338 
L 297.211296 454.017726 
L 297.43085 388.539733 
L 297.869956 419.171413 
L 298.089509 457.212072 
L 298.309062 467.621166 
L 298.748169 338.874844 
L 298.967722 391.107291 
L 299.187275 395.540447 
L 299.406828 396.77333 
L 299.626381 318.287402 
L 299.845934 312.03594 
L 300.065487 328.880874 
L 300.285041 413.823808 
L 300.504594 415.750339 
L 300.724147 387.174277 
L 300.9437 270.210692 
L 301.163253 377.313376 
L 301.382806 373.647267 
L 301.60236 325.516161 
L 301.821913 508.893271 
L 302.041466 446.677748 
L 302.261019 489.717298 
L 302.700125 208.898175 
L 302.919678 412.668117 
L 303.139232 442.506821 
L 303.358785 404.245392 
L 303.578338 406.648475 
L 303.797891 252.6586 
L 304.236997 545.878173 
L 304.456551 506.83368 
L 304.676104 410.502007 
L 304.895657 409.876845 
L 305.11521 380.105456 
L 305.554316 424.950892 
L 305.773869 271.041466 
L 305.993423 406.231029 
L 306.212976 429.528312 
L 306.432529 327.352238 
L 306.652082 366.268357 
L 306.871635 435.921836 
L 307.091188 391.673877 
L 307.310742 472.377373 
L 307.530295 373.197078 
L 307.749848 357.672562 
L 307.969401 478.684531 
L 308.188954 460.72486 
L 308.408507 408.187498 
L 308.62806 411.748374 
L 308.847614 442.857082 
L 309.067167 353.112409 
L 309.28672 483.425233 
L 309.725826 366.036585 
L 309.945379 400.167295 
L 310.164933 378.501608 
L 310.604039 266.85219 
L 310.823592 416.252294 
L 311.043145 315.402441 
L 311.482251 422.48303 
L 311.701805 412.93715 
L 311.921358 363.081819 
L 312.140911 395.901862 
L 312.360464 449.722596 
L 312.580017 429.159446 
L 313.019124 327.53806 
L 313.238677 339.544302 
L 313.45823 237.072102 
L 313.677783 278.236609 
L 313.897336 211.442933 
L 314.116889 303.821854 
L 314.336442 323.561538 
L 314.555996 320.620308 
L 314.775549 372.784306 
L 314.995102 327.892049 
L 315.214655 523.805052 
L 315.434208 299.488116 
L 315.653761 458.532468 
L 315.873315 536.135367 
L 316.092868 533.912992 
L 316.312421 357.697463 
L 316.531974 485.744649 
L 316.751527 420.42513 
L 316.97108 299.758013 
L 317.190633 400.059417 
L 317.410187 418.697448 
L 317.62974 306.635694 
L 317.849293 321.249763 
L 318.068846 325.871548 
L 318.507952 419.65879 
L 318.727506 426.977278 
L 318.947059 328.617432 
L 319.166612 381.195903 
L 319.386165 373.7337 
L 319.605718 504.96596 
L 320.044824 310.905606 
L 320.264378 447.767399 
L 320.703484 381.64247 
L 320.923037 502.48089 
L 321.14259 334.236119 
L 321.362143 395.626938 
L 321.581696 319.816844 
L 321.80125 329.861035 
L 322.020803 451.204065 
L 322.240356 327.600993 
L 322.459909 502.53852 
L 322.679462 413.0228 
L 322.899015 510.578501 
L 323.118569 419.009305 
L 323.338122 443.542753 
L 323.557675 427.674863 
L 323.996781 550.51505 
L 324.216334 310.046466 
L 324.874994 501.092647 
L 325.094547 400.6427 
L 325.3141 364.214992 
L 325.753206 372.48277 
L 326.192313 488.568125 
L 326.411866 424.349063 
L 326.631419 463.586911 
L 326.850972 443.873129 
L 327.070525 358.531676 
L 327.290078 454.54435 
L 327.509632 391.64769 
L 327.729185 478.145723 
L 327.948738 408.083581 
L 328.168291 397.237901 
L 328.387844 454.752666 
L 328.826951 424.839387 
L 329.046504 467.304986 
L 329.266057 377.332445 
L 329.48561 478.844903 
L 329.705163 456.417053 
L 330.144269 510.314245 
L 330.363823 385.490416 
L 330.583376 405.133236 
L 330.802929 389.827329 
L 331.022482 460.765263 
L 331.242035 394.793314 
L 331.681142 507.083667 
L 331.900695 440.054437 
L 332.120248 451.457042 
L 332.339801 380.017913 
L 332.559354 459.596676 
L 332.778907 446.773254 
L 332.99846 471.470518 
L 333.218014 220.008004 
L 333.437567 459.619669 
L 333.65712 386.454964 
L 334.096226 441.463913 
L 334.315779 464.08986 
L 334.535333 301.059364 
L 334.754886 511.425467 
L 334.974439 354.443961 
L 335.193992 471.41634 
L 335.413545 324.84962 
L 335.633098 334.93997 
L 335.852651 432.369346 
L 336.072205 456.82135 
L 336.291758 545.491566 
L 336.511311 481.565711 
L 336.730864 482.519578 
L 336.950417 431.983311 
L 337.389524 459.74521 
L 337.609077 404.285726 
L 337.82863 416.667118 
L 338.048183 476.33991 
L 338.267736 413.286339 
L 338.487289 304.526103 
L 338.706842 252.204961 
L 338.926396 535.329965 
L 339.145949 420.070604 
L 339.365502 458.568751 
L 339.585055 447.141468 
L 339.804608 262.608148 
L 340.024161 395.486257 
L 340.243715 444.492779 
L 340.682821 301.167426 
L 341.121927 536.737166 
L 341.34148 417.383948 
L 341.561033 458.609512 
L 341.780587 386.829831 
L 342.219693 488.659872 
L 342.439246 441.964824 
L 342.658799 483.367895 
L 342.878352 479.730199 
L 343.097906 446.760172 
L 343.317459 320.046501 
L 343.537012 473.10692 
L 343.756565 440.437658 
L 343.976118 425.284886 
L 344.195671 430.700916 
L 344.415224 413.636749 
L 344.634778 492.714862 
L 344.854331 201.187673 
L 345.073884 381.331261 
L 345.51299 439.925166 
L 345.952096 413.217643 
L 346.17165 416.806255 
L 346.391203 325.239873 
L 346.610756 417.73089 
L 346.830309 363.033333 
L 347.049862 480.035742 
L 347.269415 313.743642 
L 347.488969 382.926131 
L 347.708522 411.812214 
L 347.928075 462.129565 
L 348.147628 412.687857 
L 348.367181 484.153243 
L 348.806287 336.312979 
L 349.025841 352.905216 
L 349.245394 497.48389 
L 349.6845 324.857505 
L 349.904053 452.100792 
L 350.123606 501.003324 
L 350.34316 320.526277 
L 350.562713 426.983391 
L 350.782266 415.55697 
L 351.001819 521.371307 
L 351.221372 392.555826 
L 351.440925 490.034917 
L 351.660478 321.729215 
L 351.880032 475.475181 
L 352.099585 510.576663 
L 352.319138 249.491181 
L 352.538691 471.288848 
L 352.758244 447.521724 
L 352.977797 308.230509 
L 353.197351 359.053671 
L 353.416904 440.168955 
L 353.636457 418.766289 
L 353.85601 432.067549 
L 354.075563 491.41834 
L 354.295116 361.040419 
L 354.514669 433.998853 
L 354.734223 398.610037 
L 354.953776 525.931639 
L 355.173329 450.523899 
L 355.392882 477.069844 
L 355.612435 410.74357 
L 355.831988 494.54431 
L 356.051542 471.146593 
L 356.271095 484.470942 
L 356.490648 267.417561 
L 356.710201 302.217954 
L 356.929754 486.959745 
L 357.149307 434.893743 
L 357.36886 351.561129 
L 357.807967 399.49007 
L 358.247073 561.5814 
L 358.466626 305.552624 
L 358.905733 481.924116 
L 359.125286 444.002153 
L 359.344839 368.823884 
L 359.564392 367.792429 
L 359.783945 356.697363 
L 360.003498 400.455318 
L 360.223051 534.432555 
L 360.442605 431.179589 
L 361.101264 346.702343 
L 361.54037 392.628103 
L 361.759924 362.899747 
L 361.979477 441.012981 
L 362.19903 438.208945 
L 362.418583 468.820677 
L 362.638136 468.799055 
L 362.857689 345.097825 
L 363.077242 475.89405 
L 363.296796 288.581261 
L 363.516349 419.565814 
L 363.955455 265.522058 
L 364.394561 469.952199 
L 364.614115 444.560439 
L 364.833668 263.230897 
L 365.272774 443.131227 
L 365.492327 280.852137 
L 365.71188 417.44312 
L 365.931433 456.825359 
L 366.150987 321.707283 
L 366.37054 405.143685 
L 366.590093 411.087137 
L 366.809646 400.174423 
L 367.029199 507.624084 
L 367.248752 399.817758 
L 367.468306 408.841473 
L 367.687859 568.209982 
L 367.907412 472.549029 
L 368.126965 491.51329 
L 368.346518 404.024968 
L 368.566071 419.267539 
L 368.785624 465.941386 
L 369.224731 335.476378 
L 369.444284 479.484703 
L 369.663837 430.290881 
L 369.88339 311.324188 
L 370.102943 403.302083 
L 370.322497 372.320597 
L 370.54205 390.945646 
L 370.761603 394.900822 
L 370.981156 307.760028 
L 371.200709 431.338673 
L 371.420262 465.895549 
L 371.639815 468.062439 
L 371.859369 460.120119 
L 372.298475 381.750746 
L 372.518028 398.894613 
L 372.737581 271.102176 
L 372.957134 371.955503 
L 373.176687 410.225002 
L 373.396241 265.168113 
L 373.615794 505.944399 
L 373.835347 343.269481 
L 374.0549 440.05666 
L 374.274453 364.634677 
L 374.494006 495.922763 
L 374.71356 472.514837 
L 374.933113 561.347309 
L 375.152666 343.110664 
L 375.372219 393.215354 
L 375.811325 326.870649 
L 376.030878 479.068545 
L 376.250432 485.589147 
L 376.469985 457.014648 
L 376.689538 370.825769 
L 376.909091 447.73044 
L 377.128644 420.202212 
L 377.348197 357.737867 
L 377.567751 530.012937 
L 377.787304 357.625132 
L 378.006857 404.550619 
L 378.22641 335.961158 
L 378.445963 455.647191 
L 378.885069 358.25809 
L 379.104623 464.516575 
L 379.324176 284.306649 
L 379.543729 360.965792 
L 379.763282 538.333512 
L 379.982835 515.275081 
L 380.202388 439.510359 
L 380.421942 463.806938 
L 380.641495 459.120809 
L 380.861048 322.724075 
L 381.080601 470.257715 
L 381.300154 387.959176 
L 381.519707 455.910406 
L 381.73926 402.307082 
L 381.958814 389.856817 
L 382.178367 499.205382 
L 382.39792 436.487463 
L 382.837026 488.103137 
L 383.056579 445.084437 
L 383.276133 448.850288 
L 383.715239 275.777985 
L 383.934792 506.86151 
L 384.154345 460.119995 
L 384.373898 568.27932 
L 384.593451 435.132946 
L 384.813005 400.279515 
L 385.032558 404.127879 
L 385.252111 498.906964 
L 385.691217 349.135743 
L 385.91077 468.582813 
L 386.130324 398.373902 
L 386.349877 534.244387 
L 386.788983 352.423863 
L 387.008536 418.600361 
L 387.228089 420.846164 
L 387.447642 378.568096 
L 387.667196 504.205936 
L 388.106302 384.581482 
L 388.325855 407.452987 
L 388.545408 391.91409 
L 388.764961 470.692868 
L 388.984515 423.366824 
L 389.204068 455.357526 
L 389.643174 303.869539 
L 389.862727 502.845405 
L 390.08228 481.927782 
L 390.301833 415.128815 
L 390.521387 498.292668 
L 390.74094 412.898302 
L 390.960493 409.501578 
L 391.180046 443.15456 
L 391.399599 381.368409 
L 391.619152 482.644546 
L 391.838706 345.944555 
L 392.058259 510.893962 
L 392.277812 535.695141 
L 392.497365 418.651943 
L 392.716918 361.779935 
L 392.936471 435.009709 
L 393.156024 353.967568 
L 393.375578 443.221293 
L 393.814684 321.63589 
L 394.034237 392.345426 
L 394.25379 372.380506 
L 394.473343 411.061885 
L 394.692897 417.568755 
L 394.91245 387.308574 
L 395.132003 393.18717 
L 395.351556 457.254092 
L 395.571109 378.159236 
L 395.790662 412.841252 
L 396.010215 486.029987 
L 396.229769 477.146949 
L 396.449322 516.246687 
L 396.668875 437.579108 
L 397.107981 424.036024 
L 397.327534 231.430101 
L 397.547087 377.297185 
L 397.766641 431.163183 
L 397.986194 312.041735 
L 398.205747 444.197976 
L 398.4253 330.843633 
L 398.644853 338.918592 
L 398.864406 387.510959 
L 399.303513 415.220709 
L 399.523066 494.840935 
L 399.742619 490.694257 
L 399.962172 329.856382 
L 400.181725 388.637667 
L 400.401278 375.136508 
L 400.620832 443.389254 
L 400.840385 300.441086 
L 401.059938 345.837441 
L 401.279491 454.204084 
L 401.499044 402.906011 
L 401.718597 410.961728 
L 401.938151 425.171412 
L 402.157704 322.988662 
L 402.377257 489.320612 
L 402.59681 264.121288 
L 403.035916 452.648465 
L 403.255469 438.665655 
L 403.475023 512.465901 
L 403.694576 324.263065 
L 403.914129 382.762384 
L 404.133682 490.069909 
L 404.353235 331.582952 
L 404.572788 354.849089 
L 404.792342 352.170764 
L 405.011895 481.24105 
L 405.231448 498.865071 
L 405.451001 443.355746 
L 405.670554 537.392051 
L 405.890107 336.324271 
L 406.10966 389.97854 
L 406.987873 265.120952 
L 407.207426 205.745022 
L 407.426979 398.073937 
L 407.646533 427.825761 
L 407.866086 299.852882 
L 408.085639 259.156296 
L 408.305192 523.50153 
L 408.524745 439.584869 
L 408.744298 428.205586 
L 408.963851 508.856855 
L 409.402958 283.435833 
L 409.622511 296.002409 
L 409.842064 233.192054 
L 410.061617 438.534242 
L 410.28117 416.811381 
L 410.500724 347.131382 
L 410.720277 226.860408 
L 410.93983 428.130594 
L 411.159383 367.868683 
L 411.378936 450.231323 
L 411.598489 471.387504 
L 411.818042 369.464058 
L 412.257149 481.261291 
L 412.476702 292.626868 
L 412.696255 309.983559 
L 412.915808 269.192342 
L 413.135361 507.777775 
L 413.354915 328.14717 
L 413.794021 507.424516 
L 414.013574 433.247148 
L 414.45268 195.494756 
L 414.672233 433.243369 
L 414.891787 308.592073 
L 415.330893 482.633267 
L 415.550446 362.453613 
L 415.769999 468.57974 
L 415.989552 362.205236 
L 416.209106 458.51647 
L 416.428659 315.703976 
L 416.648212 281.049774 
L 417.087318 482.184224 
L 417.965531 273.550293 
L 418.185084 513.226247 
L 418.404637 375.299397 
L 418.843743 472.453129 
L 419.063297 446.341369 
L 419.28285 373.694479 
L 419.502403 405.892137 
L 419.721956 337.668457 
L 419.941509 416.777458 
L 420.161062 450.86008 
L 420.380615 423.958663 
L 420.600169 470.550204 
L 420.819722 451.751562 
L 421.039275 285.828518 
L 421.258828 364.830259 
L 421.478381 348.326457 
L 421.697934 357.361867 
L 421.917488 324.515156 
L 422.137041 537.45485 
L 422.576147 395.577248 
L 422.7957 499.262119 
L 423.015253 416.402548 
L 423.234806 502.005811 
L 423.45436 317.870484 
L 423.673913 439.766274 
L 423.893466 373.818794 
L 424.113019 477.54255 
L 424.332572 303.759699 
L 424.552125 388.81293 
L 424.771678 389.739102 
L 424.991232 468.289642 
L 425.210785 425.948113 
L 425.430338 419.050615 
L 425.649891 463.847175 
L 425.869444 309.611147 
L 426.088997 464.800444 
L 426.308551 421.983616 
L 426.528104 279.052709 
L 426.747657 564.253869 
L 426.96721 408.840117 
L 427.406316 517.343679 
L 427.625869 407.536285 
L 427.845423 452.482497 
L 428.064976 419.889243 
L 428.284529 451.986189 
L 428.504082 513.784292 
L 428.723635 371.216582 
L 428.943188 418.827538 
L 429.382295 333.428756 
L 429.601848 516.281237 
L 429.821401 233.302494 
L 430.040954 422.704321 
L 430.260507 283.370465 
L 430.48006 534.607134 
L 430.699614 513.181094 
L 431.13872 387.582826 
L 431.358273 207.093428 
L 431.577826 261.554891 
L 432.016933 556.599412 
L 432.236486 525.947255 
L 432.675592 366.7822 
L 432.895145 359.626048 
L 433.114698 418.74819 
L 433.334251 354.726678 
L 433.553805 483.867891 
L 433.992911 319.627383 
L 434.212464 385.390625 
L 434.432017 357.367854 
L 434.65157 406.427117 
L 434.871124 427.363587 
L 435.31023 373.295395 
L 435.529783 442.642156 
L 435.749336 401.890506 
L 435.968889 310.592267 
L 436.188442 501.581598 
L 436.407996 577.195447 
L 436.627549 175.306587 
L 436.847102 359.410282 
L 437.066655 406.847129 
L 437.286208 387.899753 
L 437.505761 357.193961 
L 437.725315 474.359722 
L 437.944868 457.555539 
L 438.164421 262.438115 
L 438.383974 370.367082 
L 438.603527 373.660273 
L 438.82308 417.160355 
L 439.042633 390.5975 
L 439.262187 490.671418 
L 439.920846 319.799887 
L 440.140399 493.856918 
L 440.359952 209.963158 
L 440.579506 450.113072 
L 440.799059 514.750027 
L 441.018612 368.757268 
L 441.238165 443.51677 
L 441.457718 403.934195 
L 441.677271 434.685367 
L 441.896824 527.316048 
L 442.116378 346.509266 
L 442.555484 312.518157 
L 442.775037 483.970956 
L 442.99459 335.343828 
L 443.214143 483.227864 
L 443.433697 481.047139 
L 443.65325 501.926642 
L 443.872803 457.560697 
L 444.092356 377.287011 
L 444.311909 535.09017 
L 444.531462 548.446663 
L 444.751015 373.468841 
L 444.970569 353.170438 
L 445.190122 244.445477 
L 445.409675 341.116782 
L 445.629228 375.75817 
L 445.848781 462.065917 
L 446.068334 329.752517 
L 446.507441 400.604408 
L 446.726994 308.192894 
L 447.1661 519.965767 
L 447.385653 456.088755 
L 447.605206 322.688873 
L 447.82476 404.958292 
L 448.044313 343.635754 
L 448.263866 401.046901 
L 448.483419 409.337542 
L 448.702972 479.181882 
L 448.922525 402.816087 
L 449.142079 281.658666 
L 449.581185 421.669205 
L 449.800738 321.053712 
L 450.020291 393.461515 
L 450.239844 419.433427 
L 450.459397 496.134854 
L 450.678951 398.100518 
L 450.898504 472.114352 
L 451.118057 237.210453 
L 451.557163 506.887673 
L 451.776716 481.793451 
L 451.996269 411.905006 
L 452.215823 468.149765 
L 452.435376 259.808714 
L 452.654929 419.879787 
L 452.874482 343.513801 
L 453.094035 420.823958 
L 453.313588 365.735434 
L 453.533142 350.935946 
L 453.752695 361.8182 
L 453.972248 483.882457 
L 454.191801 384.06534 
L 454.411354 443.473665 
L 454.630907 347.475067 
L 454.85046 388.681424 
L 455.070014 328.078597 
L 455.289567 445.443686 
L 455.50912 289.769755 
L 455.728673 402.60821 
L 455.948226 448.502416 
L 456.167779 412.613037 
L 456.387333 266.536354 
L 456.606886 442.482927 
L 456.826439 251.903106 
L 457.265545 478.574627 
L 457.485098 383.109345 
L 457.704651 446.58137 
L 458.143758 246.888353 
L 458.363311 435.75007 
L 458.582864 471.648979 
L 458.802417 360.295942 
L 459.02197 471.164441 
L 459.241524 273.121393 
L 459.461077 398.609706 
L 459.900183 302.313159 
L 460.119736 449.374746 
L 460.558842 271.793676 
L 460.778396 516.166425 
L 460.997949 480.179369 
L 461.217502 419.909876 
L 461.437055 469.888214 
L 461.656608 351.951326 
L 461.876161 489.895958 
L 462.095715 440.087382 
L 462.315268 315.925422 
L 462.534821 422.481403 
L 462.754374 273.513353 
L 462.973927 366.902132 
L 463.19348 325.928714 
L 463.632587 496.062018 
L 464.071693 312.514196 
L 464.291246 292.229286 
L 464.730352 492.102582 
L 464.949906 459.644166 
L 465.169459 238.003247 
L 465.608565 496.295806 
L 465.828118 369.930179 
L 466.047671 484.249904 
L 466.267224 361.78391 
L 466.486778 541.197778 
L 466.706331 474.036633 
L 466.925884 324.807638 
L 467.145437 429.479015 
L 467.36499 390.733195 
L 467.584543 393.239021 
L 467.804097 363.173875 
L 468.02365 446.178153 
L 468.243203 392.495619 
L 468.462756 525.035412 
L 468.682309 442.302934 
L 468.901862 289.962975 
L 469.121415 443.216281 
L 469.340969 433.576512 
L 469.560522 387.687949 
L 469.780075 223.339177 
L 469.999628 469.779504 
L 470.219181 383.715472 
L 470.438734 430.731959 
L 470.658288 446.040329 
L 470.877841 392.698936 
L 471.097394 386.694939 
L 471.316947 302.57815 
L 471.5365 491.933135 
L 471.756053 294.299838 
L 471.975606 468.948037 
L 472.19516 323.183182 
L 472.414713 339.218109 
L 472.634266 460.742779 
L 472.853819 378.106253 
L 473.073372 367.03373 
L 473.292925 454.38288 
L 473.512479 435.778447 
L 473.732032 212.015867 
L 473.951585 476.929566 
L 474.171138 451.292879 
L 474.390691 442.245426 
L 474.610244 313.373045 
L 474.829797 413.443364 
L 475.049351 428.226309 
L 475.268904 468.483028 
L 475.488457 373.031182 
L 475.70801 429.842367 
L 475.927563 252.646966 
L 476.147116 468.577799 
L 476.366669 348.121448 
L 476.805776 499.871061 
L 477.025329 528.33241 
L 477.244882 403.406754 
L 477.683988 333.317361 
L 477.903542 398.834933 
L 478.123095 504.850406 
L 478.342648 490.897137 
L 478.781754 421.685101 
L 479.001307 467.949961 
L 479.22086 436.397177 
L 479.440414 377.804551 
L 479.659967 516.390337 
L 479.87952 477.158409 
L 480.318626 318.574078 
L 480.757733 416.670408 
L 480.977286 395.703758 
L 481.196839 358.186061 
L 481.416392 417.281987 
L 481.635945 273.021003 
L 481.855498 398.932895 
L 482.294605 483.097892 
L 482.514158 482.086032 
L 482.733711 473.98993 
L 482.953264 398.466621 
L 483.172817 420.724549 
L 483.39237 388.439637 
L 483.611924 269.723751 
L 483.831477 424.472904 
L 484.05103 285.250668 
L 484.270583 428.33633 
L 484.490136 405.603438 
L 484.709689 412.163286 
L 484.929242 396.684927 
L 485.148796 357.860894 
L 485.587902 488.97433 
L 485.807455 383.356927 
L 486.027008 474.340479 
L 486.246561 459.511464 
L 486.466115 303.651834 
L 486.905221 384.106049 
L 487.124774 527.084749 
L 487.344327 384.72803 
L 487.56388 442.219588 
L 488.002987 324.886132 
L 488.22254 380.977479 
L 488.442093 336.079946 
L 488.661646 520.779759 
L 488.881199 286.435836 
L 489.100752 423.012281 
L 489.320306 468.467877 
L 489.539859 354.583278 
L 489.759412 349.390131 
L 489.978965 325.537592 
L 490.198518 459.884126 
L 490.418071 441.23033 
L 490.637624 459.901899 
L 490.857178 361.302524 
L 491.076731 403.92421 
L 491.296284 308.907822 
L 491.515837 405.088935 
L 491.73539 402.198756 
L 491.954943 494.424187 
L 492.174497 215.107802 
L 492.39405 526.166912 
L 492.613603 325.603494 
L 493.052709 526.947837 
L 493.272262 492.109817 
L 493.491815 502.154211 
L 493.711369 432.160662 
L 493.930922 261.363399 
L 494.370028 470.036338 
L 494.809134 412.49968 
L 495.028688 493.307493 
L 495.248241 493.146324 
L 495.467794 552.742404 
L 495.687347 392.106551 
L 495.9069 337.980125 
L 496.126453 399.955149 
L 496.346006 553.230344 
L 496.785113 336.349447 
L 497.004666 357.131254 
L 497.224219 331.053629 
L 497.443772 520.128626 
L 497.663325 343.348171 
L 497.882879 495.456777 
L 498.102432 361.081391 
L 498.321985 312.387507 
L 498.541538 472.441983 
L 498.761091 497.670725 
L 499.200197 327.301162 
L 499.419751 438.895754 
L 499.639304 425.604697 
L 499.858857 318.106869 
L 500.297963 521.111135 
L 500.73707 324.478183 
L 500.956623 368.63258 
L 501.176176 482.845615 
L 501.395729 437.609479 
L 501.615282 495.592255 
L 501.834835 399.186212 
L 502.054388 456.132493 
L 502.273942 466.223687 
L 502.713048 316.93531 
L 502.932601 486.528447 
L 503.152154 481.051261 
L 503.59126 415.013551 
L 503.810814 297.868989 
L 504.030367 410.750963 
L 504.24992 332.730756 
L 504.469473 451.692943 
L 504.689026 445.067052 
L 504.908579 487.184997 
L 505.128133 558.903147 
L 505.347686 383.686599 
L 505.567239 472.668263 
L 505.786792 304.451836 
L 506.006345 440.509148 
L 506.225898 337.344954 
L 506.445451 309.83628 
L 506.665005 426.912105 
L 506.884558 409.311894 
L 507.104111 508.153317 
L 507.323664 418.838111 
L 507.543217 493.987667 
L 507.982324 296.423176 
L 508.42143 412.343132 
L 508.640983 352.70865 
L 508.860536 387.973212 
L 509.080089 362.49189 
L 509.299642 364.009632 
L 509.519196 474.04992 
L 509.738749 357.629132 
L 509.958302 487.039564 
L 510.177855 463.099409 
L 510.397408 402.232008 
L 510.616961 302.980197 
L 510.836515 438.648459 
L 511.056068 428.971612 
L 511.275621 543.414178 
L 511.495174 491.547319 
L 511.93428 131.956182 
L 512.153833 468.640229 
L 512.373387 456.979716 
L 512.59294 513.192243 
L 513.032046 206.594562 
L 513.471152 485.578522 
L 513.690706 470.795605 
L 513.910259 421.23414 
L 514.129812 555.20011 
L 514.349365 372.393366 
L 514.568918 282.11754 
L 514.788471 430.029475 
L 515.008024 368.42993 
L 515.227578 396.300079 
L 515.447131 341.297455 
L 515.666684 478.910169 
L 515.886237 334.258339 
L 516.10579 491.192341 
L 516.325343 367.056885 
L 516.544897 451.065456 
L 516.76445 324.79776 
L 516.984003 447.280891 
L 517.203556 290.542896 
L 517.423109 449.714436 
L 517.642662 322.199077 
L 517.862215 322.572782 
L 518.301322 514.008945 
L 518.520875 444.060482 
L 518.959981 427.742382 
L 519.179534 310.789169 
L 519.399088 375.518454 
L 519.618641 325.454526 
L 520.057747 521.556305 
L 520.2773 352.55952 
L 520.496853 451.104287 
L 520.716406 332.751673 
L 520.93596 441.637799 
L 521.155513 433.294349 
L 521.594619 256.980489 
L 521.814172 438.096674 
L 522.253279 516.986771 
L 522.472832 359.489172 
L 522.692385 461.596362 
L 522.911938 494.943433 
L 523.570597 400.805009 
L 523.790151 493.942118 
L 524.009704 360.699425 
L 524.44881 453.070893 
L 524.668363 350.418353 
L 524.887916 496.809269 
L 525.327023 350.661388 
L 525.546576 410.128909 
L 525.766129 505.423028 
L 525.985682 270.880637 
L 526.424788 533.077917 
L 526.644342 417.951575 
L 526.863895 501.309835 
L 527.083448 486.863498 
L 527.303001 402.671617 
L 527.522554 462.866341 
L 527.742107 373.128156 
L 527.96166 460.041364 
L 528.181214 344.459117 
L 528.400767 307.092117 
L 528.62032 362.84593 
L 528.839873 371.327942 
L 529.059426 346.577475 
L 529.278979 373.513353 
L 529.498533 308.684473 
L 529.718086 501.264163 
L 529.937639 377.688478 
L 530.157192 351.662 
L 530.376745 449.214114 
L 530.596298 347.385827 
L 530.815851 374.37793 
L 531.035405 456.8273 
L 531.254958 432.368001 
L 531.474511 381.004012 
L 531.694064 380.658846 
L 531.913617 384.959824 
L 532.13317 305.541149 
L 532.572277 503.226011 
L 533.230936 289.858775 
L 533.450489 469.954531 
L 533.670042 452.193055 
L 533.889596 378.281715 
L 534.109149 419.666475 
L 534.328702 424.856452 
L 534.548255 394.953227 
L 534.767808 503.686753 
L 534.987361 475.154697 
L 535.206915 397.338638 
L 535.426468 394.393632 
L 535.646021 290.578244 
L 536.085127 455.82659 
L 536.30468 419.534085 
L 536.524233 354.964558 
L 536.743787 410.773501 
L 536.96334 424.584339 
L 537.182893 283.524121 
L 537.402446 427.091406 
L 537.621999 482.306448 
L 537.841552 386.305957 
L 538.061106 369.280643 
L 538.280659 398.01325 
L 538.500212 457.782246 
L 538.719765 419.847961 
L 538.939318 449.816987 
L 539.158871 425.907709 
L 539.378424 486.96343 
L 539.597978 360.319684 
L 539.817531 311.944967 
L 540.037084 554.237884 
L 540.47619 354.418005 
L 540.695743 513.252011 
L 540.915297 311.713412 
L 541.354403 516.841695 
L 541.573956 408.435215 
L 541.793509 395.302208 
L 542.013062 363.815332 
L 542.232615 424.83338 
L 542.452169 420.211808 
L 542.671722 504.749893 
L 542.891275 383.902978 
L 543.110828 362.620048 
L 543.330381 404.304106 
L 543.549934 418.66845 
L 543.769488 335.214639 
L 543.989041 498.983749 
L 544.208594 436.634642 
L 544.428147 426.902921 
L 544.6477 265.461823 
L 544.867253 370.110276 
L 545.086806 272.483061 
L 545.30636 453.149497 
L 545.525913 480.875417 
L 545.745466 394.959247 
L 545.745466 394.959247 
" style="fill:none;stroke:#96c69a;stroke-linecap:round;stroke-width:3;"/>
   </g>
   <g id="line2d_2"/>
   <g id="patch_3">
    <path d="M 84.914375 603.86 
L 84.914375 109.484571 
" style="fill:none;stroke:#262626;stroke-linecap:square;stroke-linejoin:miter;stroke-width:2.5;"/>
   </g>
   <g id="patch_4">
    <path d="M 84.914375 603.86 
L 567.689804 603.86 
" style="fill:none;stroke:#262626;stroke-linecap:square;stroke-linejoin:miter;stroke-width:2.5;"/>
   </g>
   <g id="legend_1">
    <g id="patch_5">
     <path d="M 514.774179 598.86 
L 560.689804 598.86 
Q 562.689804 598.86 562.689804 596.86 
L 562.689804 554.954375 
Q 562.689804 552.954375 560.689804 552.954375 
L 514.774179 552.954375 
Q 512.774179 552.954375 512.774179 554.954375 
L 512.774179 596.86 
Q 512.774179 598.86 514.774179 598.86 
z
" style="fill:#ffffff;opacity:0.8;stroke:#cccccc;stroke-linejoin:miter;stroke-width:2;"/>
    </g>
    <g id="text_15">
     <!-- $n_\tau$ -->
     <g style="fill:#262626;" transform="translate(524.651991 575.190625)scale(0.24 -0.24)">
      <defs>
       <path d="M 3566 2113 
L 3156 0 
L 2578 0 
L 2988 2091 
Q 3016 2238 3031 2350 
Q 3047 2463 3047 2528 
Q 3047 2791 2881 2937 
Q 2716 3084 2419 3084 
Q 1956 3084 1622 2776 
Q 1288 2469 1184 1941 
L 800 0 
L 225 0 
L 903 3500 
L 1478 3500 
L 1363 2950 
Q 1603 3253 1940 3418 
Q 2278 3584 2650 3584 
Q 3113 3584 3367 3334 
Q 3622 3084 3622 2631 
Q 3622 2519 3608 2391 
Q 3594 2263 3566 2113 
z
" id="DejaVuSans-Oblique-6e" transform="scale(0.015625)"/>
       <path d="M 2103 638 
Q 2188 488 2525 488 
L 2800 488 
L 2706 0 
L 2363 0 
Q 1800 0 1600 300 
Q 1403 606 1534 1269 
L 1856 2925 
L 541 2925 
L 653 3500 
L 3881 3500 
L 3769 2925 
L 2444 2925 
L 2113 1234 
Q 2025 781 2103 638 
z
" id="DejaVuSans-Oblique-3c4" transform="scale(0.015625)"/>
      </defs>
      <use xlink:href="#DejaVuSans-Oblique-6e"/>
      <use transform="translate(63.378906 -16.40625)scale(0.7)" xlink:href="#DejaVuSans-Oblique-3c4"/>
     </g>
    </g>
    <g id="line2d_3">
     <path d="M 516.774179 589.280313 
L 536.774179 589.280313 
" style="fill:none;stroke:#96c69a;stroke-linecap:round;stroke-width:3;"/>
    </g>
    <g id="line2d_4"/>
    <g id="text_16">
     <!-- 80 -->
     <g style="fill:#262626;" transform="translate(544.774179 592.780313)scale(0.1 -0.1)">
      <defs>
       <path d="M 2228 2088 
Q 1891 2088 1709 1903 
Q 1528 1719 1528 1375 
Q 1528 1031 1709 848 
Q 1891 666 2228 666 
Q 2563 666 2741 848 
Q 2919 1031 2919 1375 
Q 2919 1722 2741 1905 
Q 2563 2088 2228 2088 
z
M 1350 2484 
Q 925 2613 709 2878 
Q 494 3144 494 3541 
Q 494 4131 934 4440 
Q 1375 4750 2228 4750 
Q 3075 4750 3515 4442 
Q 3956 4134 3956 3541 
Q 3956 3144 3739 2878 
Q 3522 2613 3097 2484 
Q 3572 2353 3814 2058 
Q 4056 1763 4056 1313 
Q 4056 619 3595 264 
Q 3134 -91 2228 -91 
Q 1319 -91 855 264 
Q 391 619 391 1313 
Q 391 1763 633 2058 
Q 875 2353 1350 2484 
z
M 1631 3419 
Q 1631 3141 1786 2991 
Q 1941 2841 2228 2841 
Q 2509 2841 2662 2991 
Q 2816 3141 2816 3419 
Q 2816 3697 2662 3845 
Q 2509 3994 2228 3994 
Q 1941 3994 1786 3844 
Q 1631 3694 1631 3419 
z
" id="DejaVuSans-Bold-38" transform="scale(0.015625)"/>
       <path d="M 2944 2338 
Q 2944 3213 2780 3570 
Q 2616 3928 2228 3928 
Q 1841 3928 1675 3570 
Q 1509 3213 1509 2338 
Q 1509 1453 1675 1090 
Q 1841 728 2228 728 
Q 2613 728 2778 1090 
Q 2944 1453 2944 2338 
z
M 4147 2328 
Q 4147 1169 3647 539 
Q 3147 -91 2228 -91 
Q 1306 -91 806 539 
Q 306 1169 306 2328 
Q 306 3491 806 4120 
Q 1306 4750 2228 4750 
Q 3147 4750 3647 4120 
Q 4147 3491 4147 2328 
z
" id="DejaVuSans-Bold-30" transform="scale(0.015625)"/>
      </defs>
      <use xlink:href="#DejaVuSans-Bold-38"/>
      <use x="69.580078" xlink:href="#DejaVuSans-Bold-30"/>
     </g>
    </g>
   </g>
  </g>
  <g id="axes_2">
   <g id="patch_6">
    <path d="M 84.914375 92.437143 
L 567.689804 92.437143 
L 567.689804 7.2 
L 84.914375 7.2 
z
" style="fill:none;"/>
   </g>
   <g id="matplotlib.axis_3">
    <g id="xtick_7"/>
    <g id="xtick_8"/>
    <g id="xtick_9"/>
    <g id="xtick_10"/>
    <g id="xtick_11"/>
    <g id="xtick_12"/>
   </g>
   <g id="matplotlib.axis_4">
    <g id="ytick_7">
     <g id="text_17">
      <!-- 0 -->
      <g style="fill:#262626;" transform="translate(55.416875 100.795424)scale(0.22 -0.22)">
       <use xlink:href="#DejaVuSans-30"/>
      </g>
     </g>
    </g>
    <g id="ytick_8">
     <g id="text_18">
      <!-- 100 -->
      <g style="fill:#262626;" transform="translate(27.421875 48.082287)scale(0.22 -0.22)">
       <use xlink:href="#DejaVuSans-31"/>
       <use x="63.623047" xlink:href="#DejaVuSans-30"/>
       <use x="127.246094" xlink:href="#DejaVuSans-30"/>
      </g>
     </g>
    </g>
   </g>
   <g id="patch_7">
    <path clip-path="url(#p2376f644f8)" d="M 106.858713 92.437143 
L 140.619232 92.437143 
L 140.619232 11.258912 
L 106.858713 11.258912 
z
" style="fill:#96c69a;fill-opacity:0.5;stroke:#ffffff;stroke-linejoin:miter;stroke-width:2;"/>
   </g>
   <g id="patch_8">
    <path clip-path="url(#p2376f644f8)" d="M 140.619232 92.437143 
L 174.379752 92.437143 
L 174.379752 11.258912 
L 140.619232 11.258912 
z
" style="fill:#96c69a;fill-opacity:0.5;stroke:#ffffff;stroke-linejoin:miter;stroke-width:2;"/>
   </g>
   <g id="patch_9">
    <path clip-path="url(#p2376f644f8)" d="M 174.379752 92.437143 
L 208.140271 92.437143 
L 208.140271 11.258912 
L 174.379752 11.258912 
z
" style="fill:#96c69a;fill-opacity:0.5;stroke:#ffffff;stroke-linejoin:miter;stroke-width:2;"/>
   </g>
   <g id="patch_10">
    <path clip-path="url(#p2376f644f8)" d="M 208.140271 92.437143 
L 241.900791 92.437143 
L 241.900791 11.258912 
L 208.140271 11.258912 
z
" style="fill:#96c69a;fill-opacity:0.5;stroke:#ffffff;stroke-linejoin:miter;stroke-width:2;"/>
   </g>
   <g id="patch_11">
    <path clip-path="url(#p2376f644f8)" d="M 241.900791 92.437143 
L 275.66131 92.437143 
L 275.66131 11.786043 
L 241.900791 11.786043 
z
" style="fill:#96c69a;fill-opacity:0.5;stroke:#ffffff;stroke-linejoin:miter;stroke-width:2;"/>
   </g>
   <g id="patch_12">
    <path clip-path="url(#p2376f644f8)" d="M 275.66131 92.437143 
L 309.42183 92.437143 
L 309.42183 11.258912 
L 275.66131 11.258912 
z
" style="fill:#96c69a;fill-opacity:0.5;stroke:#ffffff;stroke-linejoin:miter;stroke-width:2;"/>
   </g>
   <g id="patch_13">
    <path clip-path="url(#p2376f644f8)" d="M 309.42183 92.437143 
L 343.182349 92.437143 
L 343.182349 11.258912 
L 309.42183 11.258912 
z
" style="fill:#96c69a;fill-opacity:0.5;stroke:#ffffff;stroke-linejoin:miter;stroke-width:2;"/>
   </g>
   <g id="patch_14">
    <path clip-path="url(#p2376f644f8)" d="M 343.182349 92.437143 
L 376.942869 92.437143 
L 376.942869 11.258912 
L 343.182349 11.258912 
z
" style="fill:#96c69a;fill-opacity:0.5;stroke:#ffffff;stroke-linejoin:miter;stroke-width:2;"/>
   </g>
   <g id="patch_15">
    <path clip-path="url(#p2376f644f8)" d="M 376.942869 92.437143 
L 410.703388 92.437143 
L 410.703388 11.786043 
L 376.942869 11.786043 
z
" style="fill:#96c69a;fill-opacity:0.5;stroke:#ffffff;stroke-linejoin:miter;stroke-width:2;"/>
   </g>
   <g id="patch_16">
    <path clip-path="url(#p2376f644f8)" d="M 410.703388 92.437143 
L 444.463907 92.437143 
L 444.463907 11.258912 
L 410.703388 11.258912 
z
" style="fill:#96c69a;fill-opacity:0.5;stroke:#ffffff;stroke-linejoin:miter;stroke-width:2;"/>
   </g>
   <g id="patch_17">
    <path clip-path="url(#p2376f644f8)" d="M 444.463907 92.437143 
L 478.224427 92.437143 
L 478.224427 11.258912 
L 444.463907 11.258912 
z
" style="fill:#96c69a;fill-opacity:0.5;stroke:#ffffff;stroke-linejoin:miter;stroke-width:2;"/>
   </g>
   <g id="patch_18">
    <path clip-path="url(#p2376f644f8)" d="M 478.224427 92.437143 
L 511.984946 92.437143 
L 511.984946 11.258912 
L 478.224427 11.258912 
z
" style="fill:#96c69a;fill-opacity:0.5;stroke:#ffffff;stroke-linejoin:miter;stroke-width:2;"/>
   </g>
   <g id="patch_19">
    <path clip-path="url(#p2376f644f8)" d="M 511.984946 92.437143 
L 545.745466 92.437143 
L 545.745466 11.258912 
L 511.984946 11.258912 
z
" style="fill:#96c69a;fill-opacity:0.5;stroke:#ffffff;stroke-linejoin:miter;stroke-width:2;"/>
   </g>
   <g id="patch_20">
    <path d="M 84.914375 92.437143 
L 84.914375 7.2 
" style="fill:none;stroke:#262626;stroke-linecap:square;stroke-linejoin:miter;stroke-width:2.5;"/>
   </g>
   <g id="patch_21">
    <path d="M 84.914375 92.437143 
L 567.689804 92.437143 
" style="fill:none;stroke:#262626;stroke-linecap:square;stroke-linejoin:miter;stroke-width:2.5;"/>
   </g>
  </g>
  <g id="axes_3">
   <g id="patch_22">
    <path d="M 584.337232 603.86 
L 667.574375 603.86 
L 667.574375 109.484571 
L 584.337232 109.484571 
z
" style="fill:none;"/>
   </g>
   <g id="matplotlib.axis_5">
    <g id="xtick_13">
     <g id="text_19">
      <!-- 0 -->
      <g style="fill:#262626;" transform="translate(577.338482 636.076563)scale(0.22 -0.22)">
       <use xlink:href="#DejaVuSans-30"/>
      </g>
     </g>
    </g>
    <g id="xtick_14">
     <g id="text_20">
      <!-- 100 -->
      <g style="fill:#262626;" transform="translate(605.284617 636.076563)scale(0.22 -0.22)">
       <use xlink:href="#DejaVuSans-31"/>
       <use x="63.623047" xlink:href="#DejaVuSans-30"/>
       <use x="127.246094" xlink:href="#DejaVuSans-30"/>
      </g>
     </g>
    </g>
   </g>
   <g id="matplotlib.axis_6">
    <g id="ytick_9"/>
    <g id="ytick_10"/>
    <g id="ytick_11"/>
    <g id="ytick_12"/>
    <g id="ytick_13"/>
    <g id="ytick_14"/>
   </g>
   <g id="patch_23">
    <path clip-path="url(#pe8b96e8b0e)" d="M 584.337232 581.38839 
L 586.85385 581.38839 
L 586.85385 565.890727 
L 584.337232 565.890727 
z
" style="fill:#96c69a;fill-opacity:0.5;stroke:#ffffff;stroke-linejoin:miter;stroke-width:1.549766;"/>
   </g>
   <g id="patch_24">
    <path clip-path="url(#pe8b96e8b0e)" d="M 584.337232 565.890727 
L 590.628777 565.890727 
L 590.628777 550.393065 
L 584.337232 550.393065 
z
" style="fill:#96c69a;fill-opacity:0.5;stroke:#ffffff;stroke-linejoin:miter;stroke-width:1.549766;"/>
   </g>
   <g id="patch_25">
    <path clip-path="url(#pe8b96e8b0e)" d="M 584.337232 550.393065 
L 595.662013 550.393065 
L 595.662013 534.895403 
L 584.337232 534.895403 
z
" style="fill:#96c69a;fill-opacity:0.5;stroke:#ffffff;stroke-linejoin:miter;stroke-width:1.549766;"/>
   </g>
   <g id="patch_26">
    <path clip-path="url(#pe8b96e8b0e)" d="M 584.337232 534.895403 
L 599.856377 534.895403 
L 599.856377 519.39774 
L 584.337232 519.39774 
z
" style="fill:#96c69a;fill-opacity:0.5;stroke:#ffffff;stroke-linejoin:miter;stroke-width:1.549766;"/>
   </g>
   <g id="patch_27">
    <path clip-path="url(#pe8b96e8b0e)" d="M 584.337232 519.39774 
L 614.536649 519.39774 
L 614.536649 503.900078 
L 584.337232 503.900078 
z
" style="fill:#96c69a;fill-opacity:0.5;stroke:#ffffff;stroke-linejoin:miter;stroke-width:1.549766;"/>
   </g>
   <g id="patch_28">
    <path clip-path="url(#pe8b96e8b0e)" d="M 584.337232 503.900078 
L 626.700303 503.900078 
L 626.700303 488.402416 
L 584.337232 488.402416 
z
" style="fill:#96c69a;fill-opacity:0.5;stroke:#ffffff;stroke-linejoin:miter;stroke-width:1.549766;"/>
   </g>
   <g id="patch_29">
    <path clip-path="url(#pe8b96e8b0e)" d="M 584.337232 488.402416 
L 632.152976 488.402416 
L 632.152976 472.904753 
L 584.337232 472.904753 
z
" style="fill:#96c69a;fill-opacity:0.5;stroke:#ffffff;stroke-linejoin:miter;stroke-width:1.549766;"/>
   </g>
   <g id="patch_30">
    <path clip-path="url(#pe8b96e8b0e)" d="M 584.337232 472.904753 
L 641.800012 472.904753 
L 641.800012 457.407091 
L 584.337232 457.407091 
z
" style="fill:#96c69a;fill-opacity:0.5;stroke:#ffffff;stroke-linejoin:miter;stroke-width:1.549766;"/>
   </g>
   <g id="patch_31">
    <path clip-path="url(#pe8b96e8b0e)" d="M 584.337232 457.407091 
L 647.67212 457.407091 
L 647.67212 441.909429 
L 584.337232 441.909429 
z
" style="fill:#96c69a;fill-opacity:0.5;stroke:#ffffff;stroke-linejoin:miter;stroke-width:1.549766;"/>
   </g>
   <g id="patch_32">
    <path clip-path="url(#pe8b96e8b0e)" d="M 584.337232 441.909429 
L 655.221975 441.909429 
L 655.221975 426.411766 
L 584.337232 426.411766 
z
" style="fill:#96c69a;fill-opacity:0.5;stroke:#ffffff;stroke-linejoin:miter;stroke-width:1.549766;"/>
   </g>
   <g id="patch_33">
    <path clip-path="url(#pe8b96e8b0e)" d="M 584.337232 426.411766 
L 663.610702 426.411766 
L 663.610702 410.914104 
L 584.337232 410.914104 
z
" style="fill:#96c69a;fill-opacity:0.5;stroke:#ffffff;stroke-linejoin:miter;stroke-width:1.549766;"/>
   </g>
   <g id="patch_34">
    <path clip-path="url(#pe8b96e8b0e)" d="M 584.337232 410.914104 
L 646.413811 410.914104 
L 646.413811 395.416442 
L 584.337232 395.416442 
z
" style="fill:#96c69a;fill-opacity:0.5;stroke:#ffffff;stroke-linejoin:miter;stroke-width:1.549766;"/>
   </g>
   <g id="patch_35">
    <path clip-path="url(#pe8b96e8b0e)" d="M 584.337232 395.416442 
L 643.058321 395.416442 
L 643.058321 379.918779 
L 584.337232 379.918779 
z
" style="fill:#96c69a;fill-opacity:0.5;stroke:#ffffff;stroke-linejoin:miter;stroke-width:1.549766;"/>
   </g>
   <g id="patch_36">
    <path clip-path="url(#pe8b96e8b0e)" d="M 584.337232 379.918779 
L 641.380575 379.918779 
L 641.380575 364.421117 
L 584.337232 364.421117 
z
" style="fill:#96c69a;fill-opacity:0.5;stroke:#ffffff;stroke-linejoin:miter;stroke-width:1.549766;"/>
   </g>
   <g id="patch_37">
    <path clip-path="url(#pe8b96e8b0e)" d="M 584.337232 364.421117 
L 640.541703 364.421117 
L 640.541703 348.923455 
L 584.337232 348.923455 
z
" style="fill:#96c69a;fill-opacity:0.5;stroke:#ffffff;stroke-linejoin:miter;stroke-width:1.549766;"/>
   </g>
   <g id="patch_38">
    <path clip-path="url(#pe8b96e8b0e)" d="M 584.337232 348.923455 
L 618.731013 348.923455 
L 618.731013 333.425792 
L 584.337232 333.425792 
z
" style="fill:#96c69a;fill-opacity:0.5;stroke:#ffffff;stroke-linejoin:miter;stroke-width:1.549766;"/>
   </g>
   <g id="patch_39">
    <path clip-path="url(#pe8b96e8b0e)" d="M 584.337232 333.425792 
L 625.86143 333.425792 
L 625.86143 317.92813 
L 584.337232 317.92813 
z
" style="fill:#96c69a;fill-opacity:0.5;stroke:#ffffff;stroke-linejoin:miter;stroke-width:1.549766;"/>
   </g>
   <g id="patch_40">
    <path clip-path="url(#pe8b96e8b0e)" d="M 584.337232 317.92813 
L 614.956085 317.92813 
L 614.956085 302.430468 
L 584.337232 302.430468 
z
" style="fill:#96c69a;fill-opacity:0.5;stroke:#ffffff;stroke-linejoin:miter;stroke-width:1.549766;"/>
   </g>
   <g id="patch_41">
    <path clip-path="url(#pe8b96e8b0e)" d="M 584.337232 302.430468 
L 600.69525 302.430468 
L 600.69525 286.932805 
L 584.337232 286.932805 
z
" style="fill:#96c69a;fill-opacity:0.5;stroke:#ffffff;stroke-linejoin:miter;stroke-width:1.549766;"/>
   </g>
   <g id="patch_42">
    <path clip-path="url(#pe8b96e8b0e)" d="M 584.337232 286.932805 
L 602.792431 286.932805 
L 602.792431 271.435143 
L 584.337232 271.435143 
z
" style="fill:#96c69a;fill-opacity:0.5;stroke:#ffffff;stroke-linejoin:miter;stroke-width:1.549766;"/>
   </g>
   <g id="patch_43">
    <path clip-path="url(#pe8b96e8b0e)" d="M 584.337232 271.435143 
L 598.598068 271.435143 
L 598.598068 255.937481 
L 584.337232 255.937481 
z
" style="fill:#96c69a;fill-opacity:0.5;stroke:#ffffff;stroke-linejoin:miter;stroke-width:1.549766;"/>
   </g>
   <g id="patch_44">
    <path clip-path="url(#pe8b96e8b0e)" d="M 584.337232 255.937481 
L 592.306523 255.937481 
L 592.306523 240.439818 
L 584.337232 240.439818 
z
" style="fill:#96c69a;fill-opacity:0.5;stroke:#ffffff;stroke-linejoin:miter;stroke-width:1.549766;"/>
   </g>
   <g id="patch_45">
    <path clip-path="url(#pe8b96e8b0e)" d="M 584.337232 240.439818 
L 588.951032 240.439818 
L 588.951032 224.942156 
L 584.337232 224.942156 
z
" style="fill:#96c69a;fill-opacity:0.5;stroke:#ffffff;stroke-linejoin:miter;stroke-width:1.549766;"/>
   </g>
   <g id="patch_46">
    <path clip-path="url(#pe8b96e8b0e)" d="M 584.337232 224.942156 
L 586.85385 224.942156 
L 586.85385 209.444494 
L 584.337232 209.444494 
z
" style="fill:#96c69a;fill-opacity:0.5;stroke:#ffffff;stroke-linejoin:miter;stroke-width:1.549766;"/>
   </g>
   <g id="patch_47">
    <path clip-path="url(#pe8b96e8b0e)" d="M 584.337232 209.444494 
L 588.531596 209.444494 
L 588.531596 193.946831 
L 584.337232 193.946831 
z
" style="fill:#96c69a;fill-opacity:0.5;stroke:#ffffff;stroke-linejoin:miter;stroke-width:1.549766;"/>
   </g>
   <g id="patch_48">
    <path clip-path="url(#pe8b96e8b0e)" d="M 584.337232 193.946831 
L 585.595541 193.946831 
L 585.595541 178.449169 
L 584.337232 178.449169 
z
" style="fill:#96c69a;fill-opacity:0.5;stroke:#ffffff;stroke-linejoin:miter;stroke-width:1.549766;"/>
   </g>
   <g id="patch_49">
    <path clip-path="url(#pe8b96e8b0e)" d="M 584.337232 178.449169 
L 585.595541 178.449169 
L 585.595541 162.951506 
L 584.337232 162.951506 
z
" style="fill:#96c69a;fill-opacity:0.5;stroke:#ffffff;stroke-linejoin:miter;stroke-width:1.549766;"/>
   </g>
   <g id="patch_50">
    <path clip-path="url(#pe8b96e8b0e)" d="M 584.337232 162.951506 
L 584.337232 162.951506 
L 584.337232 147.453844 
L 584.337232 147.453844 
z
" style="fill:#96c69a;fill-opacity:0.5;stroke:#ffffff;stroke-linejoin:miter;stroke-width:1.549766;"/>
   </g>
   <g id="patch_51">
    <path clip-path="url(#pe8b96e8b0e)" d="M 584.337232 147.453844 
L 584.756668 147.453844 
L 584.756668 131.956182 
L 584.337232 131.956182 
z
" style="fill:#96c69a;fill-opacity:0.5;stroke:#ffffff;stroke-linejoin:miter;stroke-width:1.549766;"/>
   </g>
   <g id="patch_52">
    <path d="M 584.337232 603.86 
L 584.337232 109.484571 
" style="fill:none;stroke:#262626;stroke-linecap:square;stroke-linejoin:miter;stroke-width:2.5;"/>
   </g>
   <g id="patch_53">
    <path d="M 584.337232 603.86 
L 667.574375 603.86 
" style="fill:none;stroke:#262626;stroke-linecap:square;stroke-linejoin:miter;stroke-width:2.5;"/>
   </g>
  </g>
 </g>
 <defs>
  <clipPath id="p91b796bb8f">
   <rect height="494.375429" width="482.775429" x="84.914375" y="109.484571"/>
  </clipPath>
  <clipPath id="p2376f644f8">
   <rect height="85.237143" width="482.775429" x="84.914375" y="7.2"/>
  </clipPath>
  <clipPath id="pe8b96e8b0e">
   <rect height="494.375429" width="83.237143" x="584.337232" y="109.484571"/>
  </clipPath>
 </defs>
</svg>
