<?xml version="1.0" encoding="utf-8" standalone="no"?>
<!DOCTYPE svg PUBLIC "-//W3C//DTD SVG 1.1//EN"
  "http://www.w3.org/Graphics/SVG/1.1/DTD/svg11.dtd">
<svg height="674.159375pt" version="1.1" viewBox="0 0 688.981875 674.159375" width="688.981875pt" xmlns="http://www.w3.org/2000/svg" xmlns:xlink="http://www.w3.org/1999/xlink">
 <metadata>
  <rdf:RDF xmlns:cc="http://creativecommons.org/ns#" xmlns:dc="http://purl.org/dc/elements/1.1/" xmlns:rdf="http://www.w3.org/1999/02/22-rdf-syntax-ns#">
   <cc:Work>
    <dc:type rdf:resource="http://purl.org/dc/dcmitype/StillImage"/>
    <dc:date>2021-07-24T14:56:50.807116</dc:date>
    <dc:format>image/svg+xml</dc:format>
    <dc:creator>
     <cc:Agent>
      <dc:title>Matplotlib v3.4.2, https://matplotlib.org/</dc:title>
     </cc:Agent>
    </dc:creator>
   </cc:Work>
  </rdf:RDF>
 </metadata>
 <defs>
  <style type="text/css">*{stroke-linecap:butt;stroke-linejoin:round;}</style>
 </defs>
 <g id="figure_1">
  <g id="patch_1">
   <path d="M 0 674.159375 
L 688.981875 674.159375 
L 688.981875 0 
L 0 0 
z
" style="fill:#ffffff;"/>
  </g>
  <g id="axes_1">
   <g id="patch_2">
    <path d="M 98.911875 602.94 
L 581.861304 602.94 
L 581.861304 109.326857 
L 98.911875 109.326857 
z
" style="fill:none;"/>
   </g>
   <g id="matplotlib.axis_1">
    <g id="xtick_1">
     <g id="text_1">
      <!-- 0 -->
      <g style="fill:#262626;" transform="translate(113.645739 635.156562)scale(0.22 -0.22)">
       <defs>
        <path d="M 2034 4250 
Q 1547 4250 1301 3770 
Q 1056 3291 1056 2328 
Q 1056 1369 1301 889 
Q 1547 409 2034 409 
Q 2525 409 2770 889 
Q 3016 1369 3016 2328 
Q 3016 3291 2770 3770 
Q 2525 4250 2034 4250 
z
M 2034 4750 
Q 2819 4750 3233 4129 
Q 3647 3509 3647 2328 
Q 3647 1150 3233 529 
Q 2819 -91 2034 -91 
Q 1250 -91 836 529 
Q 422 1150 422 2328 
Q 422 3509 836 4129 
Q 1250 4750 2034 4750 
z
" id="DejaVuSans-30" transform="scale(0.015625)"/>
       </defs>
       <use xlink:href="#DejaVuSans-30"/>
      </g>
     </g>
    </g>
    <g id="xtick_2">
     <g id="text_2">
      <!-- 20000 -->
      <g style="fill:#262626;" transform="translate(173.503653 635.156562)scale(0.22 -0.22)">
       <defs>
        <path d="M 1228 531 
L 3431 531 
L 3431 0 
L 469 0 
L 469 531 
Q 828 903 1448 1529 
Q 2069 2156 2228 2338 
Q 2531 2678 2651 2914 
Q 2772 3150 2772 3378 
Q 2772 3750 2511 3984 
Q 2250 4219 1831 4219 
Q 1534 4219 1204 4116 
Q 875 4013 500 3803 
L 500 4441 
Q 881 4594 1212 4672 
Q 1544 4750 1819 4750 
Q 2544 4750 2975 4387 
Q 3406 4025 3406 3419 
Q 3406 3131 3298 2873 
Q 3191 2616 2906 2266 
Q 2828 2175 2409 1742 
Q 1991 1309 1228 531 
z
" id="DejaVuSans-32" transform="scale(0.015625)"/>
       </defs>
       <use xlink:href="#DejaVuSans-32"/>
       <use x="63.623047" xlink:href="#DejaVuSans-30"/>
       <use x="127.246094" xlink:href="#DejaVuSans-30"/>
       <use x="190.869141" xlink:href="#DejaVuSans-30"/>
       <use x="254.492188" xlink:href="#DejaVuSans-30"/>
      </g>
     </g>
    </g>
    <g id="xtick_3">
     <g id="text_3">
      <!-- 40000 -->
      <g style="fill:#262626;" transform="translate(261.356566 635.156562)scale(0.22 -0.22)">
       <defs>
        <path d="M 2419 4116 
L 825 1625 
L 2419 1625 
L 2419 4116 
z
M 2253 4666 
L 3047 4666 
L 3047 1625 
L 3713 1625 
L 3713 1100 
L 3047 1100 
L 3047 0 
L 2419 0 
L 2419 1100 
L 313 1100 
L 313 1709 
L 2253 4666 
z
" id="DejaVuSans-34" transform="scale(0.015625)"/>
       </defs>
       <use xlink:href="#DejaVuSans-34"/>
       <use x="63.623047" xlink:href="#DejaVuSans-30"/>
       <use x="127.246094" xlink:href="#DejaVuSans-30"/>
       <use x="190.869141" xlink:href="#DejaVuSans-30"/>
       <use x="254.492188" xlink:href="#DejaVuSans-30"/>
      </g>
     </g>
    </g>
    <g id="xtick_4">
     <g id="text_4">
      <!-- 60000 -->
      <g style="fill:#262626;" transform="translate(349.20948 635.156562)scale(0.22 -0.22)">
       <defs>
        <path d="M 2113 2584 
Q 1688 2584 1439 2293 
Q 1191 2003 1191 1497 
Q 1191 994 1439 701 
Q 1688 409 2113 409 
Q 2538 409 2786 701 
Q 3034 994 3034 1497 
Q 3034 2003 2786 2293 
Q 2538 2584 2113 2584 
z
M 3366 4563 
L 3366 3988 
Q 3128 4100 2886 4159 
Q 2644 4219 2406 4219 
Q 1781 4219 1451 3797 
Q 1122 3375 1075 2522 
Q 1259 2794 1537 2939 
Q 1816 3084 2150 3084 
Q 2853 3084 3261 2657 
Q 3669 2231 3669 1497 
Q 3669 778 3244 343 
Q 2819 -91 2113 -91 
Q 1303 -91 875 529 
Q 447 1150 447 2328 
Q 447 3434 972 4092 
Q 1497 4750 2381 4750 
Q 2619 4750 2861 4703 
Q 3103 4656 3366 4563 
z
" id="DejaVuSans-36" transform="scale(0.015625)"/>
       </defs>
       <use xlink:href="#DejaVuSans-36"/>
       <use x="63.623047" xlink:href="#DejaVuSans-30"/>
       <use x="127.246094" xlink:href="#DejaVuSans-30"/>
       <use x="190.869141" xlink:href="#DejaVuSans-30"/>
       <use x="254.492188" xlink:href="#DejaVuSans-30"/>
      </g>
     </g>
    </g>
    <g id="xtick_5">
     <g id="text_5">
      <!-- 80000 -->
      <g style="fill:#262626;" transform="translate(437.062393 635.156562)scale(0.22 -0.22)">
       <defs>
        <path d="M 2034 2216 
Q 1584 2216 1326 1975 
Q 1069 1734 1069 1313 
Q 1069 891 1326 650 
Q 1584 409 2034 409 
Q 2484 409 2743 651 
Q 3003 894 3003 1313 
Q 3003 1734 2745 1975 
Q 2488 2216 2034 2216 
z
M 1403 2484 
Q 997 2584 770 2862 
Q 544 3141 544 3541 
Q 544 4100 942 4425 
Q 1341 4750 2034 4750 
Q 2731 4750 3128 4425 
Q 3525 4100 3525 3541 
Q 3525 3141 3298 2862 
Q 3072 2584 2669 2484 
Q 3125 2378 3379 2068 
Q 3634 1759 3634 1313 
Q 3634 634 3220 271 
Q 2806 -91 2034 -91 
Q 1263 -91 848 271 
Q 434 634 434 1313 
Q 434 1759 690 2068 
Q 947 2378 1403 2484 
z
M 1172 3481 
Q 1172 3119 1398 2916 
Q 1625 2713 2034 2713 
Q 2441 2713 2670 2916 
Q 2900 3119 2900 3481 
Q 2900 3844 2670 4047 
Q 2441 4250 2034 4250 
Q 1625 4250 1398 4047 
Q 1172 3844 1172 3481 
z
" id="DejaVuSans-38" transform="scale(0.015625)"/>
       </defs>
       <use xlink:href="#DejaVuSans-38"/>
       <use x="63.623047" xlink:href="#DejaVuSans-30"/>
       <use x="127.246094" xlink:href="#DejaVuSans-30"/>
       <use x="190.869141" xlink:href="#DejaVuSans-30"/>
       <use x="254.492188" xlink:href="#DejaVuSans-30"/>
      </g>
     </g>
    </g>
    <g id="xtick_6">
     <g id="text_6">
      <!-- 100000 -->
      <g style="fill:#262626;" transform="translate(517.916557 635.156562)scale(0.22 -0.22)">
       <defs>
        <path d="M 794 531 
L 1825 531 
L 1825 4091 
L 703 3866 
L 703 4441 
L 1819 4666 
L 2450 4666 
L 2450 531 
L 3481 531 
L 3481 0 
L 794 0 
L 794 531 
z
" id="DejaVuSans-31" transform="scale(0.015625)"/>
       </defs>
       <use xlink:href="#DejaVuSans-31"/>
       <use x="63.623047" xlink:href="#DejaVuSans-30"/>
       <use x="127.246094" xlink:href="#DejaVuSans-30"/>
       <use x="190.869141" xlink:href="#DejaVuSans-30"/>
       <use x="254.492188" xlink:href="#DejaVuSans-30"/>
       <use x="318.115234" xlink:href="#DejaVuSans-30"/>
      </g>
     </g>
    </g>
    <g id="text_7">
     <!-- MDTU -->
     <g style="fill:#262626;" transform="translate(304.680964 661.968125)scale(0.24 -0.24)">
      <defs>
       <path d="M 628 4666 
L 1569 4666 
L 2759 1491 
L 3956 4666 
L 4897 4666 
L 4897 0 
L 4281 0 
L 4281 4097 
L 3078 897 
L 2444 897 
L 1241 4097 
L 1241 0 
L 628 0 
L 628 4666 
z
" id="DejaVuSans-4d" transform="scale(0.015625)"/>
       <path d="M 1259 4147 
L 1259 519 
L 2022 519 
Q 2988 519 3436 956 
Q 3884 1394 3884 2338 
Q 3884 3275 3436 3711 
Q 2988 4147 2022 4147 
L 1259 4147 
z
M 628 4666 
L 1925 4666 
Q 3281 4666 3915 4102 
Q 4550 3538 4550 2338 
Q 4550 1131 3912 565 
Q 3275 0 1925 0 
L 628 0 
L 628 4666 
z
" id="DejaVuSans-44" transform="scale(0.015625)"/>
       <path d="M -19 4666 
L 3928 4666 
L 3928 4134 
L 2272 4134 
L 2272 0 
L 1638 0 
L 1638 4134 
L -19 4134 
L -19 4666 
z
" id="DejaVuSans-54" transform="scale(0.015625)"/>
       <path d="M 556 4666 
L 1191 4666 
L 1191 1831 
Q 1191 1081 1462 751 
Q 1734 422 2344 422 
Q 2950 422 3222 751 
Q 3494 1081 3494 1831 
L 3494 4666 
L 4128 4666 
L 4128 1753 
Q 4128 841 3676 375 
Q 3225 -91 2344 -91 
Q 1459 -91 1007 375 
Q 556 841 556 1753 
L 556 4666 
z
" id="DejaVuSans-55" transform="scale(0.015625)"/>
      </defs>
      <use xlink:href="#DejaVuSans-4d"/>
      <use x="86.279297" xlink:href="#DejaVuSans-44"/>
      <use x="163.28125" xlink:href="#DejaVuSans-54"/>
      <use x="224.365234" xlink:href="#DejaVuSans-55"/>
     </g>
    </g>
   </g>
   <g id="matplotlib.axis_2">
    <g id="ytick_1">
     <g id="text_8">
      <!-- 0.50 -->
      <g style="fill:#262626;" transform="translate(34.4275 560.902485)scale(0.22 -0.22)">
       <defs>
        <path d="M 684 794 
L 1344 794 
L 1344 0 
L 684 0 
L 684 794 
z
" id="DejaVuSans-2e" transform="scale(0.015625)"/>
        <path d="M 691 4666 
L 3169 4666 
L 3169 4134 
L 1269 4134 
L 1269 2991 
Q 1406 3038 1543 3061 
Q 1681 3084 1819 3084 
Q 2600 3084 3056 2656 
Q 3513 2228 3513 1497 
Q 3513 744 3044 326 
Q 2575 -91 1722 -91 
Q 1428 -91 1123 -41 
Q 819 9 494 109 
L 494 744 
Q 775 591 1075 516 
Q 1375 441 1709 441 
Q 2250 441 2565 725 
Q 2881 1009 2881 1497 
Q 2881 1984 2565 2268 
Q 2250 2553 1709 2553 
Q 1456 2553 1204 2497 
Q 953 2441 691 2322 
L 691 4666 
z
" id="DejaVuSans-35" transform="scale(0.015625)"/>
       </defs>
       <use xlink:href="#DejaVuSans-30"/>
       <use x="63.623047" xlink:href="#DejaVuSans-2e"/>
       <use x="95.410156" xlink:href="#DejaVuSans-35"/>
       <use x="159.033203" xlink:href="#DejaVuSans-30"/>
      </g>
     </g>
    </g>
    <g id="ytick_2">
     <g id="text_9">
      <!-- 0.75 -->
      <g style="fill:#262626;" transform="translate(34.4275 493.961555)scale(0.22 -0.22)">
       <defs>
        <path d="M 525 4666 
L 3525 4666 
L 3525 4397 
L 1831 0 
L 1172 0 
L 2766 4134 
L 525 4134 
L 525 4666 
z
" id="DejaVuSans-37" transform="scale(0.015625)"/>
       </defs>
       <use xlink:href="#DejaVuSans-30"/>
       <use x="63.623047" xlink:href="#DejaVuSans-2e"/>
       <use x="95.410156" xlink:href="#DejaVuSans-37"/>
       <use x="159.033203" xlink:href="#DejaVuSans-35"/>
      </g>
     </g>
    </g>
    <g id="ytick_3">
     <g id="text_10">
      <!-- 1.00 -->
      <g style="fill:#262626;" transform="translate(34.4275 427.020625)scale(0.22 -0.22)">
       <use xlink:href="#DejaVuSans-31"/>
       <use x="63.623047" xlink:href="#DejaVuSans-2e"/>
       <use x="95.410156" xlink:href="#DejaVuSans-30"/>
       <use x="159.033203" xlink:href="#DejaVuSans-30"/>
      </g>
     </g>
    </g>
    <g id="ytick_4">
     <g id="text_11">
      <!-- 1.25 -->
      <g style="fill:#262626;" transform="translate(34.4275 360.079695)scale(0.22 -0.22)">
       <use xlink:href="#DejaVuSans-31"/>
       <use x="63.623047" xlink:href="#DejaVuSans-2e"/>
       <use x="95.410156" xlink:href="#DejaVuSans-32"/>
       <use x="159.033203" xlink:href="#DejaVuSans-35"/>
      </g>
     </g>
    </g>
    <g id="ytick_5">
     <g id="text_12">
      <!-- 1.50 -->
      <g style="fill:#262626;" transform="translate(34.4275 293.138764)scale(0.22 -0.22)">
       <use xlink:href="#DejaVuSans-31"/>
       <use x="63.623047" xlink:href="#DejaVuSans-2e"/>
       <use x="95.410156" xlink:href="#DejaVuSans-35"/>
       <use x="159.033203" xlink:href="#DejaVuSans-30"/>
      </g>
     </g>
    </g>
    <g id="ytick_6">
     <g id="text_13">
      <!-- 1.75 -->
      <g style="fill:#262626;" transform="translate(34.4275 226.197834)scale(0.22 -0.22)">
       <use xlink:href="#DejaVuSans-31"/>
       <use x="63.623047" xlink:href="#DejaVuSans-2e"/>
       <use x="95.410156" xlink:href="#DejaVuSans-37"/>
       <use x="159.033203" xlink:href="#DejaVuSans-35"/>
      </g>
     </g>
    </g>
    <g id="ytick_7">
     <g id="text_14">
      <!-- 2.00 -->
      <g style="fill:#262626;" transform="translate(34.4275 159.256904)scale(0.22 -0.22)">
       <use xlink:href="#DejaVuSans-32"/>
       <use x="63.623047" xlink:href="#DejaVuSans-2e"/>
       <use x="95.410156" xlink:href="#DejaVuSans-30"/>
       <use x="159.033203" xlink:href="#DejaVuSans-30"/>
      </g>
     </g>
    </g>
    <g id="text_15">
     <!-- $E$ -->
     <g style="fill:#262626;" transform="translate(25.43625 363.813429)rotate(-90)scale(0.24 -0.24)">
      <defs>
       <path d="M 1081 4666 
L 4031 4666 
L 3928 4134 
L 1606 4134 
L 1338 2753 
L 3566 2753 
L 3463 2222 
L 1234 2222 
L 909 531 
L 3284 531 
L 3181 0 
L 172 0 
L 1081 4666 
z
" id="DejaVuSans-Oblique-45" transform="scale(0.015625)"/>
      </defs>
      <use transform="translate(0 0.09375)" xlink:href="#DejaVuSans-Oblique-45"/>
     </g>
    </g>
   </g>
   <g id="line2d_1">
    <path clip-path="url(#pc0b6267c73)" d="M 120.864122 409.705684 
L 121.083754 348.814436 
L 121.303386 524.452906 
L 121.523019 445.232545 
L 121.742651 307.433565 
L 122.181915 432.975645 
L 122.401548 302.95062 
L 122.62118 429.57459 
L 122.840812 381.306102 
L 123.280077 475.501237 
L 123.499709 253.533887 
L 123.719341 248.839044 
L 123.938974 502.374493 
L 124.158606 495.216113 
L 124.378238 498.007122 
L 124.597871 297.072819 
L 124.817503 427.449675 
L 125.037135 347.169617 
L 125.256767 454.66788 
L 125.696032 430.399151 
L 125.915664 504.128187 
L 126.135297 504.196384 
L 126.354929 453.733798 
L 126.574561 456.25387 
L 126.794193 433.542263 
L 127.013826 429.331642 
L 127.233458 371.439614 
L 127.45309 400.746315 
L 127.672723 402.279886 
L 127.892355 467.029261 
L 128.331619 375.351024 
L 128.551252 506.866215 
L 128.770884 390.062828 
L 128.990516 459.510266 
L 129.210149 450.767588 
L 129.429781 467.265329 
L 129.649413 512.941146 
L 129.869045 471.091222 
L 130.088678 457.391897 
L 130.30831 429.027043 
L 130.527942 437.622899 
L 130.747575 393.682345 
L 130.967207 403.790309 
L 131.406471 476.165653 
L 131.626104 396.178614 
L 131.845736 403.054543 
L 132.285001 466.008848 
L 132.504633 306.272854 
L 132.724265 422.397364 
L 132.943897 419.074705 
L 133.16353 411.217549 
L 133.602794 480.235231 
L 133.822426 467.181586 
L 134.042059 365.862102 
L 134.261691 404.924091 
L 134.481323 369.979953 
L 134.920588 495.709632 
L 135.14022 362.578254 
L 135.359852 466.801149 
L 135.579485 320.149929 
L 135.799117 440.528254 
L 136.018749 400.791272 
L 136.238382 437.789937 
L 136.458014 495.073882 
L 136.677646 406.708894 
L 136.897278 438.559748 
L 137.116911 404.487999 
L 137.336543 424.421803 
L 137.556175 512.508953 
L 137.775808 246.033333 
L 137.99544 403.20035 
L 138.215072 413.551754 
L 138.654337 511.783672 
L 139.313234 371.483457 
L 139.532866 508.402035 
L 139.752498 376.380831 
L 139.97213 427.021277 
L 140.191763 389.639656 
L 140.631027 452.100129 
L 140.85066 436.511955 
L 141.070292 460.854091 
L 141.289924 439.058036 
L 141.509556 472.491772 
L 141.729189 413.808101 
L 141.948821 539.19508 
L 142.168453 429.117893 
L 142.388086 438.108666 
L 142.607718 522.093482 
L 142.82735 451.072301 
L 143.046982 488.194518 
L 143.266615 476.983071 
L 143.486247 394.906596 
L 143.705879 426.658744 
L 143.925512 390.279574 
L 144.145144 439.976652 
L 144.584408 404.670619 
L 144.804041 405.962371 
L 145.023673 414.030398 
L 145.243305 466.568006 
L 145.68257 387.137818 
L 145.902202 481.998888 
L 146.121834 327.541468 
L 146.341467 490.717314 
L 146.561099 481.55366 
L 146.780731 438.157213 
L 147.000364 331.646556 
L 147.219996 441.682335 
L 147.439628 399.974661 
L 148.318157 425.02964 
L 148.537789 484.240568 
L 148.757422 354.658028 
L 148.977054 387.806859 
L 149.196686 470.84743 
L 149.416319 354.878245 
L 149.635951 349.862854 
L 149.855583 482.825894 
L 150.075215 390.737747 
L 150.294848 481.161032 
L 150.51448 487.754228 
L 150.734112 415.599657 
L 150.953745 476.81698 
L 151.173377 243.228285 
L 151.393009 500.480086 
L 151.612641 501.935921 
L 152.051906 408.041783 
L 152.271538 423.451632 
L 152.491171 492.782181 
L 152.710803 487.031343 
L 152.930435 413.714607 
L 153.150067 224.868623 
L 153.3697 433.49133 
L 153.589332 330.474916 
L 153.808964 448.478384 
L 154.028597 456.056079 
L 154.248229 343.351172 
L 154.467861 502.652662 
L 154.687493 496.064122 
L 154.907126 374.825329 
L 155.126758 405.448378 
L 155.34639 384.93876 
L 155.566023 417.377202 
L 155.785655 392.698493 
L 156.005287 417.669391 
L 156.224919 396.23114 
L 156.444552 473.721593 
L 156.664184 408.835018 
L 156.883816 466.086497 
L 157.103449 337.405947 
L 157.323081 416.665157 
L 157.542713 364.458979 
L 157.762345 398.308064 
L 157.981978 494.380388 
L 158.20161 405.559338 
L 158.421242 490.335551 
L 158.640875 383.763851 
L 158.860507 492.813655 
L 159.299771 263.184529 
L 159.519404 508.119528 
L 159.739036 491.847662 
L 159.958668 456.602422 
L 160.178301 346.245502 
L 160.397933 503.244751 
L 160.617565 420.409524 
L 160.837197 490.104631 
L 161.05683 445.783682 
L 161.276462 509.54577 
L 161.496094 384.779016 
L 161.715727 360.850421 
L 162.154991 498.518724 
L 162.594256 242.971071 
L 162.813888 448.427728 
L 163.03352 488.830125 
L 163.253153 463.309917 
L 163.472785 529.369824 
L 163.692417 509.657368 
L 163.912049 514.75382 
L 164.351314 204.299045 
L 164.570946 416.404158 
L 165.010211 441.625365 
L 165.229843 461.35006 
L 165.449475 542.34682 
L 165.669108 523.444886 
L 165.88874 456.421558 
L 166.108372 538.615942 
L 166.328004 390.13421 
L 166.547637 317.134623 
L 166.767269 475.818745 
L 166.986901 402.418949 
L 167.426166 538.242867 
L 167.645798 432.92923 
L 167.86543 463.478983 
L 168.304695 376.940754 
L 168.74396 470.810245 
L 168.963592 545.260133 
L 169.183224 265.884378 
L 169.402856 439.408585 
L 169.622489 449.905301 
L 169.842121 381.506276 
L 170.061753 360.007937 
L 170.281386 513.448116 
L 170.501018 369.259672 
L 170.72065 420.017375 
L 170.940282 343.020308 
L 171.159915 495.175136 
L 171.379547 432.526651 
L 171.599179 425.654578 
L 171.818812 504.081585 
L 172.038444 316.639034 
L 172.258076 395.160935 
L 172.477708 330.372277 
L 172.697341 522.156546 
L 172.916973 555.856939 
L 173.136605 445.592162 
L 173.356238 523.925683 
L 173.57587 411.244797 
L 173.795502 415.979288 
L 174.015134 496.292116 
L 174.234767 335.249728 
L 174.454399 371.137759 
L 174.674031 428.060749 
L 174.893664 451.160973 
L 175.113296 426.087229 
L 175.332928 456.240215 
L 175.55256 419.98728 
L 175.772193 406.789173 
L 175.991825 441.991908 
L 176.211457 423.436796 
L 176.43109 448.708893 
L 176.650722 533.37965 
L 176.870354 324.587447 
L 177.309619 497.071328 
L 177.529251 417.237102 
L 177.748883 480.793484 
L 177.968516 508.815914 
L 178.188148 405.394659 
L 178.40778 419.312203 
L 178.847045 475.736209 
L 179.066677 507.885243 
L 179.286309 435.304797 
L 179.505941 258.625914 
L 179.725574 394.144924 
L 179.945206 318.613005 
L 180.164838 480.981991 
L 180.384471 465.40728 
L 180.604103 343.956483 
L 180.823735 381.126999 
L 181.043367 528.717715 
L 181.263 400.715203 
L 181.482632 488.898528 
L 181.702264 447.832502 
L 182.141529 553.053843 
L 182.361161 377.226313 
L 182.580793 418.625435 
L 182.800426 385.879589 
L 183.23969 504.551151 
L 183.459323 459.922213 
L 183.678955 320.839582 
L 183.898587 343.568275 
L 184.118219 492.37302 
L 184.337852 427.138 
L 184.557484 395.306595 
L 184.777116 476.386219 
L 184.996749 415.034852 
L 185.216381 423.515992 
L 185.436013 420.444358 
L 185.655645 441.884913 
L 185.875278 451.916227 
L 186.09491 518.170693 
L 186.314542 385.541515 
L 186.534175 389.942261 
L 186.753807 290.749058 
L 187.193071 472.311285 
L 187.412704 449.496393 
L 187.632336 336.356519 
L 187.851968 367.143571 
L 188.071601 378.573764 
L 188.291233 409.374269 
L 188.510865 404.239916 
L 188.730497 457.761183 
L 188.95013 344.551319 
L 189.169762 431.839457 
L 189.389394 411.144948 
L 189.609027 492.765629 
L 190.048291 443.650822 
L 190.267923 502.963625 
L 190.487556 504.782297 
L 190.707188 462.607395 
L 190.92682 358.776163 
L 191.146453 375.930995 
L 191.366085 339.339452 
L 191.585717 509.354913 
L 191.805349 270.306541 
L 192.024982 499.515229 
L 192.244614 499.672067 
L 192.683879 466.598328 
L 192.903511 364.518006 
L 193.123143 386.933362 
L 193.342775 367.289923 
L 193.562408 392.255355 
L 193.78204 489.367687 
L 194.001672 369.935212 
L 194.221305 497.584718 
L 194.660569 365.012472 
L 195.099834 506.462819 
L 195.319466 453.782749 
L 195.539098 472.890664 
L 195.75873 465.596341 
L 195.978363 411.269647 
L 196.197995 445.763841 
L 196.417627 441.874066 
L 196.63726 372.779474 
L 196.856892 423.02583 
L 197.076524 304.909279 
L 197.296156 446.922333 
L 197.515789 357.545191 
L 197.735421 345.823964 
L 197.955053 442.028508 
L 198.174686 449.675274 
L 198.394318 352.450694 
L 198.61395 320.109128 
L 198.833582 447.774407 
L 199.053215 419.020882 
L 199.272847 515.792488 
L 199.492479 520.876132 
L 199.931744 401.457026 
L 200.151376 400.807513 
L 200.371008 510.313918 
L 200.590641 428.054809 
L 200.810273 457.836755 
L 201.029905 334.590198 
L 201.249538 447.584557 
L 201.46917 442.572369 
L 201.688802 469.40133 
L 202.128067 387.425218 
L 202.347699 472.030385 
L 202.567331 345.704895 
L 202.786964 287.408033 
L 203.006596 300.170574 
L 203.226228 440.122632 
L 203.44586 455.23606 
L 203.665493 461.494405 
L 203.885125 563.463035 
L 204.104757 312.045294 
L 204.32439 456.467295 
L 204.544022 348.978588 
L 204.763654 477.169399 
L 204.983286 211.246627 
L 205.202919 380.831573 
L 205.422551 302.878855 
L 205.642183 423.933995 
L 205.861816 464.659844 
L 206.081448 355.35781 
L 206.30108 342.504206 
L 206.520712 470.428691 
L 206.740345 344.946693 
L 206.959977 385.144812 
L 207.179609 452.197226 
L 207.399242 460.567281 
L 207.618874 484.301067 
L 207.838506 355.593077 
L 208.058138 399.638507 
L 208.277771 538.444717 
L 208.497403 535.25085 
L 208.717035 488.57769 
L 208.936668 465.798181 
L 209.1563 367.447929 
L 209.375932 466.592223 
L 209.595564 388.628866 
L 209.815197 463.644754 
L 210.034829 364.469362 
L 210.254461 355.332075 
L 210.474093 468.432292 
L 210.693726 268.735496 
L 210.913358 560.869653 
L 211.13299 498.134016 
L 211.572255 298.095272 
L 212.011519 503.908256 
L 212.231152 315.432702 
L 212.450784 509.183683 
L 212.890049 371.528826 
L 213.109681 501.842564 
L 213.329313 241.395236 
L 213.548945 457.88955 
L 213.768578 296.519485 
L 213.98821 421.39871 
L 214.207842 454.147605 
L 214.427475 381.347232 
L 214.647107 404.636413 
L 214.866739 328.062958 
L 215.086371 375.733173 
L 215.306004 398.484065 
L 215.525636 361.649464 
L 215.745268 444.454486 
L 215.964901 445.128544 
L 216.184533 331.4786 
L 216.623797 490.848849 
L 216.84343 424.310484 
L 217.063062 441.494297 
L 217.502327 423.106666 
L 217.721959 374.421062 
L 217.941591 496.198161 
L 218.380856 414.613493 
L 218.600488 470.802992 
L 218.82012 406.630376 
L 219.039753 400.25823 
L 219.259385 496.335931 
L 219.479017 409.98264 
L 219.698649 470.324284 
L 219.918282 406.019442 
L 220.137914 473.678183 
L 220.577179 420.843159 
L 220.796811 443.933871 
L 221.016443 345.04654 
L 221.236075 421.916291 
L 221.455708 451.991151 
L 221.67534 444.629597 
L 221.894972 460.255996 
L 222.114605 448.926723 
L 222.334237 404.121205 
L 222.553869 387.095781 
L 222.773501 451.689701 
L 222.993134 410.817365 
L 223.871663 522.75441 
L 224.310927 400.663414 
L 224.53056 506.546539 
L 224.969824 417.316298 
L 225.189456 546.933118 
L 225.409089 443.174693 
L 225.628721 515.799148 
L 225.848353 402.567507 
L 226.067986 413.23621 
L 226.287618 513.517365 
L 226.726882 430.042439 
L 226.946515 416.000639 
L 227.166147 447.854155 
L 227.385779 496.506984 
L 227.605412 475.332344 
L 227.825044 526.124679 
L 228.044676 411.446836 
L 228.483941 514.616722 
L 228.923205 411.021097 
L 229.142838 496.99805 
L 229.36247 433.644464 
L 229.582102 421.846961 
L 229.801734 448.267246 
L 230.021367 435.271819 
L 230.240999 323.642748 
L 230.460631 388.78614 
L 230.680264 398.502915 
L 230.899896 430.048522 
L 231.119528 440.920887 
L 231.33916 346.499507 
L 231.558793 360.125393 
L 231.998057 502.097691 
L 232.21769 496.311193 
L 232.437322 497.813646 
L 232.656954 314.465747 
L 232.876586 502.737198 
L 233.096219 463.006316 
L 233.315851 486.227155 
L 233.535483 444.40025 
L 233.755116 433.780761 
L 233.974748 517.758646 
L 234.19438 472.991429 
L 234.414012 472.987563 
L 234.633645 451.855808 
L 235.072909 442.151804 
L 235.292542 298.717144 
L 235.512174 441.889359 
L 235.731806 363.153124 
L 235.951438 415.975889 
L 236.171071 425.055433 
L 236.390703 569.307813 
L 236.610335 403.141346 
L 236.829968 524.845206 
L 237.0496 471.665014 
L 237.269232 486.432969 
L 237.488864 389.201577 
L 237.708497 438.065897 
L 237.928129 402.958883 
L 238.147761 480.264703 
L 238.367394 386.392133 
L 239.02629 490.027115 
L 239.245923 395.557494 
L 239.465555 356.143406 
L 239.685187 484.68868 
L 239.90482 429.579519 
L 240.124452 468.248423 
L 240.344084 479.624492 
L 240.563716 389.899483 
L 240.783349 352.970126 
L 241.002981 453.092356 
L 241.222613 458.422978 
L 241.442245 350.640733 
L 241.88151 501.023122 
L 242.101142 424.786127 
L 242.320775 470.636215 
L 242.760039 349.623113 
L 242.979671 339.501117 
L 243.199304 425.252804 
L 243.418936 417.642198 
L 243.638568 512.525677 
L 243.858201 319.915751 
L 244.077833 490.479934 
L 244.297465 495.023654 
L 244.517097 439.240496 
L 244.73673 421.944509 
L 245.175994 489.38815 
L 245.395627 397.209392 
L 245.615259 397.73895 
L 245.834891 410.170864 
L 246.054523 472.929004 
L 246.274156 430.3344 
L 246.493788 313.099133 
L 246.71342 453.546862 
L 246.933053 445.602837 
L 247.152685 367.153488 
L 247.372317 483.621738 
L 247.811582 509.188709 
L 248.031214 394.32845 
L 248.250846 483.286701 
L 248.470479 322.946718 
L 248.690111 503.301928 
L 248.909743 496.360867 
L 249.129375 502.963922 
L 249.349008 431.346959 
L 249.56864 281.727538 
L 250.007905 484.685221 
L 250.227537 484.73949 
L 250.447169 491.357491 
L 250.666801 551.305823 
L 250.886434 467.757765 
L 251.325698 219.499807 
L 251.764963 488.914648 
L 251.984595 448.5013 
L 252.204227 471.581048 
L 252.42386 551.152462 
L 252.643492 336.168467 
L 252.863124 306.533121 
L 253.082757 460.672533 
L 253.302389 410.086507 
L 253.522021 415.54532 
L 253.741653 465.894493 
L 253.961286 374.022116 
L 254.180918 471.431946 
L 254.40055 443.126823 
L 254.839815 518.623123 
L 255.059447 396.677987 
L 255.279079 493.165804 
L 255.498712 279.322417 
L 255.718344 318.907377 
L 255.937976 378.778447 
L 256.157608 394.827058 
L 256.377241 487.633959 
L 256.596873 392.492516 
L 256.816505 402.549045 
L 257.036138 548.426006 
L 257.475402 395.284788 
L 257.695034 459.08818 
L 257.914667 442.795081 
L 258.134299 447.611691 
L 258.353931 479.623672 
L 258.573564 390.011606 
L 258.793196 448.274263 
L 259.012828 469.729493 
L 259.23246 337.764125 
L 259.452093 461.188127 
L 259.671725 474.264157 
L 259.891357 350.968954 
L 260.11099 427.965488 
L 260.330622 405.439737 
L 260.550254 419.301703 
L 260.769886 394.625985 
L 260.989519 472.729066 
L 261.209151 286.48192 
L 261.428783 430.313743 
L 261.648416 435.781883 
L 261.868048 376.064947 
L 262.08768 458.466034 
L 262.307312 395.778717 
L 262.526945 486.239044 
L 262.746577 421.394614 
L 262.966209 508.968128 
L 263.185842 322.271231 
L 263.405474 461.122992 
L 263.625106 477.559944 
L 263.844738 440.048034 
L 264.064371 337.476938 
L 264.284003 395.309826 
L 264.503635 503.746012 
L 264.9429 378.397009 
L 265.162532 362.060292 
L 265.382164 432.510767 
L 265.601797 341.688378 
L 265.821429 374.988723 
L 266.041061 476.249676 
L 266.260694 392.881951 
L 266.480326 354.978193 
L 266.699958 518.953407 
L 266.91959 384.601133 
L 267.139223 337.591605 
L 267.358855 449.423551 
L 267.578487 422.99889 
L 267.79812 423.254672 
L 268.017752 411.599929 
L 268.237384 280.390657 
L 268.457016 354.872463 
L 268.676649 503.81436 
L 268.896281 335.12876 
L 269.115913 463.795977 
L 269.555178 403.384077 
L 269.77481 447.592421 
L 269.994442 415.716005 
L 270.433707 500.309692 
L 270.653339 419.70833 
L 270.872972 463.539372 
L 271.092604 309.368786 
L 271.312236 467.663905 
L 271.531868 421.932537 
L 271.751501 465.505281 
L 271.971133 426.143227 
L 272.190765 461.734732 
L 272.410397 458.572382 
L 272.849662 331.294798 
L 273.069294 379.042906 
L 273.288927 458.796784 
L 273.508559 409.303912 
L 273.728191 399.607953 
L 273.947823 332.039401 
L 274.387088 425.041315 
L 274.60672 355.922276 
L 274.826353 368.530073 
L 275.045985 491.2237 
L 275.265617 520.902582 
L 275.485249 405.704805 
L 275.704882 445.288281 
L 275.924514 417.655044 
L 276.144146 335.420398 
L 276.363779 406.670214 
L 276.583411 421.37854 
L 276.803043 375.503738 
L 277.022675 445.681736 
L 277.242308 421.322745 
L 277.46194 331.713964 
L 277.681572 346.826873 
L 278.120837 422.545972 
L 278.340469 352.226982 
L 278.560101 460.947347 
L 278.779734 371.83017 
L 278.999366 502.776696 
L 279.218998 380.275236 
L 279.438631 485.461884 
L 279.658263 243.943448 
L 279.877895 494.052329 
L 280.31716 324.741711 
L 280.536792 320.801937 
L 280.756424 445.278603 
L 280.976057 447.993419 
L 281.195689 409.754417 
L 281.415321 408.261523 
L 281.634953 416.371322 
L 281.854586 384.744547 
L 282.074218 447.03372 
L 282.29385 429.824407 
L 282.513483 255.862276 
L 282.733115 503.822048 
L 282.952747 443.092628 
L 283.172379 448.815144 
L 283.392012 450.000943 
L 283.611644 502.400814 
L 283.831276 445.475873 
L 284.050909 521.328479 
L 284.270541 452.590516 
L 284.490173 457.829066 
L 284.709805 435.159451 
L 284.929438 228.196262 
L 285.14907 506.124746 
L 285.368702 319.040378 
L 285.588335 465.833322 
L 285.807967 441.628222 
L 286.027599 441.42821 
L 286.247231 482.372692 
L 286.466864 452.705621 
L 286.686496 399.0264 
L 286.906128 407.102327 
L 287.12576 430.931109 
L 287.345393 373.694383 
L 287.565025 497.93587 
L 287.784657 471.72529 
L 288.00429 463.016791 
L 288.443554 467.294806 
L 288.663186 391.018714 
L 288.882819 418.141766 
L 289.102451 482.879794 
L 289.322083 446.101713 
L 289.541716 487.622139 
L 289.761348 413.236372 
L 289.98098 383.82304 
L 290.200612 527.386494 
L 290.420245 412.252087 
L 290.639877 503.537115 
L 290.859509 433.54383 
L 291.079142 414.49864 
L 291.298774 454.80381 
L 291.518406 464.884806 
L 291.738038 448.301813 
L 291.957671 258.95955 
L 292.177303 513.788249 
L 292.396935 284.14843 
L 292.616568 344.248208 
L 292.8362 305.730434 
L 293.055832 425.552083 
L 293.275464 355.823537 
L 293.495097 441.334686 
L 293.714729 445.68827 
L 293.934361 512.576295 
L 294.153994 377.522276 
L 294.373626 323.376693 
L 294.593258 478.143394 
L 294.81289 512.764186 
L 295.032523 349.975191 
L 295.252155 500.78951 
L 295.471787 397.562683 
L 295.69142 417.266171 
L 295.911052 511.085409 
L 296.130684 479.667352 
L 296.350316 489.331685 
L 296.569949 515.570218 
L 296.789581 485.191004 
L 297.009213 425.604574 
L 297.228846 268.650435 
L 297.66811 580.503039 
L 297.887742 387.926893 
L 298.107375 463.747692 
L 298.546639 483.999103 
L 298.766272 412.610497 
L 298.985904 540.726819 
L 299.205536 516.704258 
L 299.425168 434.331623 
L 299.864433 538.542143 
L 300.084065 360.610686 
L 300.303698 446.928074 
L 300.52333 380.207156 
L 300.742962 505.969841 
L 301.182227 440.454589 
L 301.401859 477.841542 
L 301.621491 458.602315 
L 301.841124 359.445776 
L 302.060756 392.712 
L 302.280388 493.678623 
L 302.50002 309.938347 
L 302.719653 502.411487 
L 302.939285 505.432606 
L 303.158917 486.086063 
L 303.378549 240.688179 
L 303.598182 241.306671 
L 303.817814 447.261711 
L 304.037446 498.760824 
L 304.257079 460.413431 
L 304.476711 384.46871 
L 304.696343 378.442882 
L 304.915975 304.070518 
L 305.135608 359.735836 
L 305.35524 314.438426 
L 305.574872 355.197354 
L 305.794505 305.046896 
L 306.014137 429.156041 
L 306.233769 317.231228 
L 306.453401 482.296689 
L 306.673034 456.774883 
L 306.892666 521.010383 
L 307.331931 356.836843 
L 307.551563 484.251893 
L 307.771195 348.32449 
L 307.990827 505.403034 
L 308.21046 489.609092 
L 308.430092 345.404711 
L 308.649724 539.472463 
L 308.869357 464.278145 
L 309.088989 432.716706 
L 309.308621 325.3674 
L 309.528253 360.043515 
L 309.747886 417.330402 
L 309.967518 440.711187 
L 310.18715 506.328207 
L 310.626415 425.179122 
L 310.846047 506.141697 
L 311.065679 425.539728 
L 311.285312 504.374054 
L 311.724576 376.903259 
L 311.944209 426.22259 
L 312.163841 403.984984 
L 312.383473 477.349131 
L 312.603105 499.552018 
L 312.822738 496.916834 
L 313.04237 477.040121 
L 313.262002 314.810932 
L 313.481635 395.394363 
L 313.701267 362.130086 
L 313.920899 468.238496 
L 314.360164 382.788539 
L 314.579796 464.982115 
L 314.799428 312.220457 
L 315.019061 471.218303 
L 315.238693 444.673188 
L 315.458325 374.106992 
L 315.89759 499.014105 
L 316.117222 289.545535 
L 316.336854 456.336329 
L 316.556487 456.296557 
L 316.776119 218.426543 
L 316.995751 417.864013 
L 317.215383 428.707367 
L 317.435016 431.989238 
L 317.654648 453.602289 
L 318.093912 283.555756 
L 318.313545 337.114703 
L 318.533177 424.654746 
L 318.752809 430.005394 
L 318.972442 442.883191 
L 319.192074 391.797611 
L 319.411706 432.700519 
L 319.631338 376.207851 
L 319.850971 518.158154 
L 320.070603 523.031365 
L 320.290235 351.990813 
L 320.509868 455.078132 
L 320.7295 430.086012 
L 320.949132 420.366358 
L 321.168764 516.636496 
L 321.388397 290.890175 
L 321.608029 473.917718 
L 321.827661 470.113606 
L 322.047294 407.234634 
L 322.486558 449.771734 
L 322.70619 368.187223 
L 322.925823 432.140571 
L 323.145455 430.124484 
L 323.365087 381.91383 
L 323.58472 501.119091 
L 323.804352 388.895914 
L 324.023984 388.268665 
L 324.243616 422.495626 
L 324.463249 327.972677 
L 324.682881 502.467708 
L 324.902513 509.98155 
L 325.341778 367.935298 
L 325.56141 468.388938 
L 325.781042 505.66613 
L 326.000675 506.854755 
L 326.220307 402.234973 
L 326.439939 372.076357 
L 326.659572 512.607606 
L 327.098836 462.743972 
L 327.318468 498.33561 
L 327.538101 367.644607 
L 327.757733 355.150335 
L 327.977365 381.244398 
L 328.196998 427.273 
L 328.41663 409.751939 
L 328.636262 376.451306 
L 328.855894 428.242538 
L 329.075527 542.08369 
L 329.295159 413.297408 
L 329.514791 419.013264 
L 329.734424 459.172369 
L 329.954056 423.650454 
L 330.39332 406.631603 
L 330.612953 492.791644 
L 330.832585 463.94221 
L 331.052217 379.080274 
L 331.27185 457.909628 
L 331.491482 446.145234 
L 331.711114 460.360478 
L 331.930746 482.200985 
L 332.150379 486.098727 
L 332.370011 403.529544 
L 332.589643 456.365537 
L 332.809275 437.587011 
L 333.028908 340.126208 
L 333.24854 493.627127 
L 333.468172 503.023221 
L 333.687805 495.452136 
L 333.907437 391.228143 
L 334.127069 386.925559 
L 334.346701 448.715118 
L 334.566334 467.23836 
L 334.785966 508.067828 
L 335.005598 480.154778 
L 335.225231 475.458216 
L 335.444863 474.249827 
L 335.664495 523.038793 
L 335.884127 413.008479 
L 336.10376 440.495683 
L 336.323392 391.722939 
L 336.543024 470.694619 
L 336.762657 330.405774 
L 336.982289 484.840019 
L 337.201921 505.10062 
L 337.421553 415.533416 
L 337.641186 442.098851 
L 337.860818 392.831817 
L 338.08045 477.205636 
L 338.300083 462.92161 
L 338.519715 373.262176 
L 338.958979 337.782772 
L 339.178612 433.845036 
L 339.398244 330.78487 
L 339.617876 368.217793 
L 339.837509 366.880063 
L 340.057141 482.093284 
L 340.276773 491.158879 
L 340.496405 340.655254 
L 340.716038 267.479923 
L 340.93567 489.435119 
L 341.155302 524.907589 
L 341.594567 306.852438 
L 341.814199 557.46334 
L 342.033831 430.295635 
L 342.253464 447.345905 
L 342.692728 496.262435 
L 342.912361 433.037187 
L 343.131993 478.733486 
L 343.351625 369.784882 
L 343.571257 485.772951 
L 343.79089 495.513263 
L 344.010522 350.502925 
L 344.230154 474.755146 
L 344.669419 373.335042 
L 344.889051 331.486821 
L 345.108683 492.881696 
L 345.328316 318.473543 
L 345.547948 399.180273 
L 345.76758 522.080629 
L 346.206845 434.87294 
L 346.426477 476.583088 
L 346.646109 421.370596 
L 346.865742 433.152933 
L 347.085374 431.385543 
L 347.305006 443.047223 
L 347.524639 511.843622 
L 347.744271 427.151635 
L 347.963903 510.380839 
L 348.183535 466.938953 
L 348.403168 331.098145 
L 348.6228 427.543886 
L 348.842432 381.899996 
L 349.062064 403.001628 
L 349.281697 445.656171 
L 349.501329 518.717118 
L 349.720961 455.818472 
L 349.940594 447.138708 
L 350.160226 201.349158 
L 350.379858 369.724865 
L 350.819123 505.932158 
L 351.038755 421.642028 
L 351.258387 459.781474 
L 351.47802 442.074262 
L 351.697652 441.216572 
L 351.917284 428.443754 
L 352.136916 539.143154 
L 352.356549 442.163958 
L 352.795813 512.581117 
L 353.235078 290.092065 
L 353.45471 440.467431 
L 353.674342 379.706444 
L 353.893975 408.108451 
L 354.113607 473.419169 
L 354.552872 315.91079 
L 354.992136 481.625685 
L 355.211768 477.418423 
L 355.431401 459.351907 
L 355.651033 312.464186 
L 355.870665 420.143257 
L 356.090298 439.09173 
L 356.30993 496.251582 
L 356.529562 488.341606 
L 356.749194 439.809255 
L 356.968827 345.145441 
L 357.188459 476.22184 
L 357.408091 501.600277 
L 357.627724 345.063375 
L 357.847356 459.000139 
L 358.066988 467.114645 
L 358.28662 499.102555 
L 358.506253 467.118077 
L 358.725885 210.967375 
L 358.945517 478.674152 
L 359.16515 458.862774 
L 359.384782 424.973724 
L 359.604414 556.172253 
L 359.824046 506.722027 
L 360.043679 520.49189 
L 360.263311 473.048721 
L 360.482943 519.748461 
L 360.702576 204.785385 
L 360.922208 462.6692 
L 361.14184 506.307276 
L 361.361472 445.724373 
L 361.581105 466.777895 
L 361.800737 416.670159 
L 362.020369 398.667056 
L 362.240002 334.16357 
L 362.459634 427.754916 
L 362.679266 425.959464 
L 362.898898 516.442652 
L 363.118531 315.997632 
L 363.338163 310.627259 
L 363.557795 436.596117 
L 363.777427 347.20356 
L 363.99706 467.447159 
L 364.216692 476.881241 
L 364.436324 494.345738 
L 364.655957 405.86771 
L 364.875589 484.368571 
L 365.314853 393.407669 
L 365.534486 473.616406 
L 365.754118 486.491927 
L 365.97375 515.262821 
L 366.193383 365.711655 
L 366.413015 524.494488 
L 366.632647 215.355511 
L 366.852279 496.805911 
L 367.071912 394.945528 
L 367.291544 455.174285 
L 367.511176 378.637141 
L 367.730809 441.228225 
L 367.950441 439.299901 
L 368.170073 293.0939 
L 368.389705 411.32501 
L 368.609338 322.367509 
L 369.048602 486.023349 
L 369.268235 474.155628 
L 369.487867 391.444268 
L 369.707499 224.854031 
L 369.927131 326.107307 
L 370.146764 480.496726 
L 370.366396 483.130396 
L 370.586028 359.346155 
L 370.805661 410.834276 
L 371.244925 451.964097 
L 371.464557 527.659269 
L 371.68419 449.440637 
L 371.903822 246.326054 
L 372.123454 258.307372 
L 372.343087 494.084774 
L 372.782351 413.707442 
L 373.001983 444.037898 
L 373.441248 465.122039 
L 373.66088 427.367658 
L 373.880513 429.691849 
L 374.100145 353.216507 
L 374.319777 458.02344 
L 374.539409 354.921542 
L 374.759042 435.778836 
L 374.978674 562.110909 
L 375.417939 401.301691 
L 375.857203 478.600973 
L 376.076835 381.921686 
L 376.296468 487.791831 
L 376.5161 501.677991 
L 376.735732 456.594962 
L 376.955365 202.173878 
L 377.174997 467.944902 
L 377.394629 380.029241 
L 377.614261 392.509353 
L 378.053526 454.697966 
L 378.273158 399.177743 
L 378.712423 473.440779 
L 378.932055 454.179308 
L 379.151687 394.275502 
L 379.37132 427.301526 
L 379.590952 372.653142 
L 379.810584 412.836991 
L 380.030216 504.953293 
L 380.249849 443.328887 
L 380.469481 308.56188 
L 381.128378 501.609387 
L 381.34801 470.76923 
L 381.567642 410.501073 
L 382.006907 484.922476 
L 382.226539 391.001165 
L 382.446172 448.587541 
L 382.665804 415.915843 
L 382.885436 464.015688 
L 383.105068 359.697236 
L 383.324701 338.620261 
L 383.544333 555.399392 
L 383.763965 409.568026 
L 383.983598 425.516347 
L 384.20323 527.455579 
L 384.422862 495.434622 
L 384.642494 419.163233 
L 384.862127 448.286916 
L 385.081759 284.758855 
L 385.301391 521.546025 
L 385.521024 360.713797 
L 385.740656 362.383457 
L 386.17992 442.971632 
L 386.399553 399.025655 
L 386.619185 424.402129 
L 386.838817 333.584298 
L 387.05845 491.708072 
L 387.278082 407.424822 
L 387.497714 423.162293 
L 387.717346 404.567054 
L 388.156611 469.798387 
L 388.376243 379.845846 
L 388.595876 406.946393 
L 388.815508 346.587738 
L 389.03514 504.616644 
L 389.254772 457.226938 
L 389.474405 351.604897 
L 389.694037 437.603022 
L 389.913669 432.794738 
L 390.133302 453.943256 
L 390.352934 331.774317 
L 390.792198 497.947501 
L 391.231463 324.26086 
L 391.451095 499.502321 
L 391.670728 248.067065 
L 391.89036 407.2268 
L 392.109992 356.991065 
L 392.329624 431.126388 
L 392.549257 462.709474 
L 392.768889 417.9599 
L 393.208154 548.113147 
L 393.427786 468.28571 
L 393.647418 470.606272 
L 393.86705 416.692678 
L 394.086683 502.702801 
L 394.525947 364.622949 
L 394.745579 507.546954 
L 394.965212 369.295584 
L 395.624109 536.744818 
L 396.063373 405.008953 
L 396.283005 483.276775 
L 396.502638 425.095611 
L 396.72227 486.159943 
L 396.941902 477.290128 
L 397.161535 404.746696 
L 397.381167 485.174878 
L 397.600799 419.207271 
L 398.040064 545.223795 
L 398.259696 351.044684 
L 398.479328 486.524605 
L 398.698961 371.026711 
L 398.918593 481.02273 
L 399.138225 431.961198 
L 399.357857 427.134343 
L 399.57749 512.902161 
L 399.797122 423.22395 
L 400.016754 463.001422 
L 400.236387 289.40445 
L 400.456019 431.527874 
L 400.675651 468.489031 
L 400.895283 449.331466 
L 401.114916 284.599803 
L 401.334548 410.954241 
L 401.55418 455.749545 
L 401.773813 450.218246 
L 401.993445 484.749632 
L 402.213077 544.382274 
L 402.652342 389.924431 
L 402.871974 403.715051 
L 403.091606 509.016366 
L 403.311239 421.621216 
L 403.530871 550.398626 
L 403.750503 464.970213 
L 403.970135 446.505602 
L 404.189768 389.042489 
L 404.4094 433.413843 
L 404.629032 388.938957 
L 404.848665 380.834291 
L 405.068297 388.184872 
L 405.287929 338.260719 
L 405.507561 430.36772 
L 405.727194 359.633508 
L 405.946826 473.508455 
L 406.166458 433.898221 
L 406.386091 493.568819 
L 406.825355 415.650612 
L 407.044987 493.20334 
L 407.484252 378.331726 
L 407.703884 493.31175 
L 407.923517 298.246568 
L 408.143149 415.708129 
L 408.362781 448.677149 
L 408.582413 358.31134 
L 408.802046 389.888853 
L 409.021678 505.71723 
L 409.460943 375.835416 
L 409.680575 387.96136 
L 409.900207 306.071357 
L 410.119839 486.435135 
L 410.339472 385.609521 
L 410.559104 360.845602 
L 410.778736 455.631485 
L 410.998368 449.396437 
L 411.218001 418.606278 
L 411.437633 495.561639 
L 411.657265 470.372399 
L 411.876898 409.945854 
L 412.09653 481.558177 
L 412.316162 474.738982 
L 412.535794 430.516276 
L 412.755427 525.570986 
L 412.975059 348.189672 
L 413.194691 426.179256 
L 413.414324 333.929841 
L 413.633956 416.959787 
L 413.853588 355.043318 
L 414.07322 469.738592 
L 414.292853 275.846097 
L 414.512485 476.071521 
L 414.732117 436.055945 
L 414.95175 254.61193 
L 415.171382 490.664623 
L 415.391014 462.897088 
L 415.610646 250.971157 
L 416.049911 511.254038 
L 416.489176 429.295787 
L 416.708808 376.606598 
L 417.148072 168.170591 
L 417.367705 401.06722 
L 417.587337 499.869853 
L 417.806969 423.533344 
L 418.026602 426.843693 
L 418.246234 439.348121 
L 418.465866 220.728882 
L 418.685498 330.807779 
L 418.905131 328.602257 
L 419.124763 499.307213 
L 419.344395 506.276263 
L 419.564028 467.054227 
L 419.78366 499.226948 
L 420.003292 469.823433 
L 420.222924 547.485791 
L 420.662189 380.511084 
L 420.881821 492.568401 
L 421.101454 457.081342 
L 421.321086 475.848416 
L 421.540718 301.902167 
L 421.979983 509.095106 
L 422.199615 492.799543 
L 422.63888 432.037194 
L 422.858512 342.288648 
L 423.078144 435.422369 
L 423.297776 399.673149 
L 423.737041 499.948753 
L 423.956673 407.372019 
L 424.176306 149.254739 
L 424.395938 496.721198 
L 424.61557 396.217655 
L 424.835202 534.014073 
L 425.054835 381.125723 
L 425.274467 523.536276 
L 425.494099 303.037068 
L 425.713731 336.205 
L 425.933364 438.23495 
L 426.152996 347.164152 
L 426.372628 436.446329 
L 426.592261 462.179469 
L 426.811893 326.139792 
L 427.031525 440.429318 
L 427.251157 389.070362 
L 427.47079 488.526218 
L 427.690422 420.582269 
L 427.910054 443.377031 
L 428.129687 449.153829 
L 428.349319 388.532683 
L 428.568951 387.530304 
L 428.788583 432.90934 
L 429.008216 354.518633 
L 429.227848 388.388693 
L 429.667113 522.523085 
L 429.886745 495.591359 
L 430.106377 514.823788 
L 430.326009 382.680692 
L 430.545642 481.815845 
L 430.765274 353.863532 
L 430.984906 394.055278 
L 431.204539 231.378747 
L 431.424171 419.427459 
L 431.643803 422.714286 
L 431.863435 268.561091 
L 432.083068 419.985292 
L 432.3027 367.993791 
L 432.522332 376.730781 
L 432.741965 307.902164 
L 432.961597 463.006927 
L 433.181229 518.500122 
L 433.400861 529.725525 
L 433.620494 392.511078 
L 433.840126 435.532552 
L 434.059758 449.32411 
L 434.279391 274.745398 
L 434.499023 474.305752 
L 434.718655 354.072439 
L 434.938287 381.583891 
L 435.15792 328.466026 
L 435.377552 525.0957 
L 435.597184 482.841239 
L 435.816817 404.945154 
L 436.036449 390.518374 
L 436.256081 432.050142 
L 436.475713 304.191366 
L 436.695346 525.598888 
L 436.914978 454.352232 
L 437.13461 342.632838 
L 437.573875 429.879184 
L 437.793507 423.304432 
L 438.013139 382.132983 
L 438.232772 462.408513 
L 438.452404 496.353168 
L 438.672036 383.097686 
L 438.891669 374.223843 
L 439.111301 435.122915 
L 439.330933 294.199936 
L 439.550565 417.221601 
L 439.770198 448.563354 
L 439.98983 450.871347 
L 440.209462 472.830066 
L 440.429094 362.934186 
L 440.648727 375.022546 
L 441.087991 470.367955 
L 441.307624 420.11458 
L 441.527256 429.298827 
L 441.746888 378.003093 
L 441.96652 408.687246 
L 442.186153 351.299703 
L 442.405785 469.22897 
L 442.84505 355.630177 
L 443.064682 388.798911 
L 443.284314 365.602323 
L 443.503946 500.053299 
L 444.162843 408.278359 
L 444.382476 459.161907 
L 444.82174 387.932099 
L 445.041372 466.679911 
L 445.261005 435.860636 
L 445.480637 477.140552 
L 445.919902 403.695428 
L 446.139534 462.071584 
L 446.359166 432.378782 
L 446.578798 378.43625 
L 446.798431 469.382722 
L 447.018063 419.897482 
L 447.237695 450.020022 
L 447.457328 431.467532 
L 447.67696 397.9173 
L 447.896592 468.604068 
L 448.116224 413.922623 
L 448.335857 413.431699 
L 448.555489 478.391369 
L 448.775121 288.187569 
L 449.214386 534.762723 
L 449.434018 376.954626 
L 449.65365 402.689915 
L 449.873283 414.931371 
L 450.312547 491.73132 
L 450.53218 446.547528 
L 450.751812 507.565621 
L 450.971444 453.152257 
L 451.191076 273.014887 
L 451.410709 483.980237 
L 451.630341 473.561627 
L 451.849973 450.889771 
L 452.069606 295.993265 
L 452.289238 513.336239 
L 452.50887 458.198278 
L 452.728502 454.293241 
L 452.948135 392.485338 
L 453.167767 242.461957 
L 453.387399 424.799686 
L 453.607032 430.047509 
L 453.826664 477.514156 
L 454.046296 408.705411 
L 454.265928 423.980839 
L 454.485561 335.665896 
L 454.705193 491.622166 
L 455.144458 297.398909 
L 455.36409 389.428766 
L 455.583722 326.851891 
L 455.803354 450.111357 
L 456.022987 433.179012 
L 456.242619 542.039596 
L 456.462251 534.79326 
L 456.681883 383.875205 
L 456.901516 448.517697 
L 457.121148 308.772022 
L 457.34078 462.557405 
L 457.560413 414.369963 
L 457.780045 250.216196 
L 457.999677 546.630922 
L 458.438942 385.075737 
L 458.658574 534.987984 
L 458.878206 408.316195 
L 459.097839 414.228592 
L 459.317471 397.856937 
L 459.537103 421.49106 
L 459.756735 359.329652 
L 459.976368 380.34027 
L 460.196 507.190405 
L 460.415632 397.628909 
L 460.635265 450.93861 
L 460.854897 258.198871 
L 461.074529 338.391258 
L 461.294161 482.840942 
L 461.513794 422.965725 
L 461.733426 484.524041 
L 461.953058 389.909733 
L 462.172691 470.171344 
L 462.392323 406.346256 
L 462.831587 208.310243 
L 463.05122 281.169984 
L 463.270852 485.177299 
L 463.490484 428.034371 
L 463.710117 455.390766 
L 463.929749 455.14175 
L 464.149381 441.924855 
L 464.369013 417.115899 
L 464.588646 372.221624 
L 464.808278 435.171291 
L 465.247543 131.763818 
L 465.467175 472.452191 
L 465.686807 324.18061 
L 465.906439 546.862789 
L 466.126072 491.066576 
L 466.345704 379.78023 
L 466.565336 326.829845 
L 466.784969 344.506806 
L 467.004601 504.38223 
L 467.224233 472.793804 
L 467.443865 484.770729 
L 467.663498 515.533697 
L 467.88313 496.488824 
L 468.102762 404.994824 
L 468.322395 398.58197 
L 468.542027 415.747968 
L 468.761659 409.234631 
L 468.981291 450.834685 
L 469.200924 374.921098 
L 469.640188 523.737376 
L 469.859821 508.5278 
L 470.079453 396.800774 
L 470.299085 427.846433 
L 470.518717 342.648179 
L 470.73835 422.771247 
L 470.957982 315.900203 
L 471.397246 447.483591 
L 471.616879 466.620326 
L 472.056143 392.999963 
L 472.275776 465.88801 
L 472.495408 473.541251 
L 472.71504 469.994177 
L 472.934672 419.405261 
L 473.154305 432.346392 
L 473.373937 357.707676 
L 473.593569 374.374576 
L 473.813202 293.117485 
L 474.032834 495.989892 
L 474.252466 343.541696 
L 474.472098 407.761551 
L 474.691731 522.565016 
L 474.911363 347.718462 
L 475.130995 506.632818 
L 475.350628 500.260516 
L 475.57026 480.719654 
L 475.789892 389.570552 
L 476.229157 479.350339 
L 476.668421 409.817376 
L 476.888054 444.619306 
L 477.107686 286.29417 
L 477.327318 310.433669 
L 477.54695 536.64778 
L 477.766583 350.562518 
L 477.986215 475.880265 
L 478.205847 491.878378 
L 478.42548 423.71757 
L 478.645112 454.485063 
L 478.864744 254.103526 
L 479.084376 511.964919 
L 479.304009 319.08518 
L 479.523641 393.320185 
L 479.743273 357.740777 
L 480.182538 509.077747 
L 480.40217 483.3454 
L 480.621802 471.072742 
L 480.841435 519.39358 
L 481.061067 434.904346 
L 481.280699 465.149505 
L 481.500332 478.272384 
L 481.719964 320.317078 
L 481.939596 504.878454 
L 482.159228 356.165173 
L 482.378861 502.812298 
L 482.598493 258.400087 
L 482.818125 546.619805 
L 483.037758 536.907382 
L 483.25739 420.215642 
L 483.477022 464.104538 
L 483.696654 482.157233 
L 483.916287 469.406116 
L 484.135919 473.187136 
L 484.575184 430.331832 
L 484.794816 340.193217 
L 485.014448 435.130012 
L 485.23408 480.442445 
L 485.453713 459.77865 
L 485.673345 420.54352 
L 485.892977 249.808067 
L 486.11261 507.088291 
L 486.332242 413.559693 
L 486.551874 471.92537 
L 486.771506 488.947451 
L 487.430403 293.511015 
L 487.650035 465.603316 
L 487.869668 465.22248 
L 488.0893 486.120082 
L 488.308932 475.271945 
L 488.528565 424.136582 
L 488.748197 498.229006 
L 488.967829 513.083638 
L 489.187461 453.172241 
L 489.407094 525.359174 
L 489.626726 373.16999 
L 489.846358 448.770061 
L 490.065991 450.070152 
L 490.285623 449.72834 
L 490.505255 332.572855 
L 490.724887 400.722695 
L 491.164152 246.773889 
L 491.383784 424.677538 
L 491.603417 397.501588 
L 491.823049 479.794469 
L 492.042681 372.581599 
L 492.262313 397.911112 
L 492.481946 302.649337 
L 492.701578 431.724848 
L 492.92121 473.781873 
L 493.140843 494.437556 
L 493.580107 354.119812 
L 493.799739 418.164078 
L 494.019372 391.293809 
L 494.239004 424.484979 
L 494.458636 511.551531 
L 494.897901 415.670712 
L 495.117533 515.714457 
L 495.337165 520.23791 
L 495.556798 451.549796 
L 495.77643 328.72461 
L 495.996062 505.710749 
L 496.435327 427.691419 
L 497.094224 349.492101 
L 497.313856 477.703686 
L 497.533488 477.413246 
L 497.753121 474.554991 
L 497.972753 302.883361 
L 498.192385 393.145877 
L 498.412017 433.219338 
L 498.63165 439.649171 
L 498.851282 449.913568 
L 499.070914 414.432295 
L 499.290547 331.814703 
L 499.729811 471.656253 
L 499.949443 519.019363 
L 500.169076 448.819665 
L 500.388708 342.782925 
L 500.60834 379.108865 
L 500.827973 386.483027 
L 501.047605 339.217988 
L 501.267237 363.317091 
L 501.486869 487.351641 
L 501.706502 472.276054 
L 501.926134 234.077816 
L 502.145766 431.570413 
L 502.365398 469.54158 
L 502.585031 443.566042 
L 502.804663 371.985923 
L 503.024295 479.896172 
L 503.243928 408.13986 
L 503.46356 495.941897 
L 503.683192 475.337001 
L 503.902824 398.142586 
L 504.122457 489.104715 
L 504.342089 520.022984 
L 504.561721 306.340329 
L 504.781354 401.212652 
L 505.000986 382.273161 
L 505.220618 328.276812 
L 505.44025 479.520925 
L 505.879515 328.815705 
L 506.099147 472.900981 
L 506.31878 459.511992 
L 506.538412 420.137932 
L 506.758044 493.43323 
L 506.977676 440.743766 
L 507.197309 436.356877 
L 507.416941 297.602678 
L 507.856206 447.414164 
L 508.075838 407.52088 
L 508.29547 501.369633 
L 508.515102 410.065357 
L 508.734735 490.70188 
L 508.954367 268.130912 
L 509.393632 505.951485 
L 509.613264 505.2028 
L 509.832896 489.547855 
L 510.052528 402.931321 
L 510.272161 535.378728 
L 510.491793 379.535699 
L 510.711425 386.597215 
L 510.931058 487.453546 
L 511.15069 406.904361 
L 511.370322 217.097369 
L 511.589954 512.836477 
L 511.809587 357.775028 
L 512.029219 506.97071 
L 512.248851 178.957482 
L 512.468484 420.876922 
L 512.688116 445.06279 
L 512.907748 362.313969 
L 513.12738 342.999553 
L 513.347013 448.673896 
L 513.566645 327.708513 
L 514.00591 557.376788 
L 514.445174 374.923555 
L 514.664806 433.562172 
L 514.884439 453.284494 
L 515.104071 408.976343 
L 515.323703 475.074981 
L 515.543336 398.882223 
L 515.762968 412.37805 
L 515.9826 368.255344 
L 516.202232 504.288155 
L 516.421865 419.832761 
L 516.641497 451.57454 
L 516.861129 465.888344 
L 517.080762 514.00009 
L 517.300394 428.362245 
L 517.520026 439.903406 
L 517.739658 366.068867 
L 517.959291 186.626013 
L 518.178923 466.448531 
L 518.398555 385.3013 
L 518.83782 496.533549 
L 519.057452 450.75571 
L 519.277084 372.045951 
L 519.496717 471.764338 
L 519.716349 338.649214 
L 519.935981 502.293064 
L 520.155613 336.495406 
L 520.375246 510.687878 
L 520.594878 459.086814 
L 520.81451 490.616552 
L 521.034143 367.528782 
L 521.253775 404.751908 
L 521.473407 461.163582 
L 521.693039 407.746717 
L 521.912672 386.056403 
L 522.132304 410.994575 
L 522.351936 408.577674 
L 522.571569 427.901303 
L 522.791201 482.266405 
L 523.010833 348.073401 
L 523.230465 442.992276 
L 523.450098 409.537051 
L 523.66973 324.345932 
L 523.889362 476.936611 
L 524.108995 512.644799 
L 524.328627 333.912932 
L 524.548259 454.070011 
L 524.767891 393.18647 
L 524.987524 382.064212 
L 525.207156 414.340607 
L 525.426788 500.142091 
L 525.646421 392.410036 
L 525.866053 411.436326 
L 526.085685 452.952505 
L 526.305317 372.672189 
L 526.52495 396.190318 
L 526.744582 354.805046 
L 526.964214 380.786738 
L 527.183847 444.708332 
L 527.403479 390.39546 
L 527.623111 395.83728 
L 527.842743 292.957777 
L 528.282008 443.123615 
L 528.721273 388.114713 
L 528.940905 391.313814 
L 529.160537 451.167141 
L 529.380169 315.167666 
L 529.599802 535.688766 
L 529.819434 465.573018 
L 530.039066 345.110951 
L 530.258699 460.388561 
L 530.478331 367.580239 
L 530.697963 482.815077 
L 530.917595 349.356394 
L 531.35686 490.609029 
L 531.576492 422.723356 
L 531.796125 401.848882 
L 532.015757 401.505467 
L 532.235389 461.801893 
L 532.455021 356.769421 
L 532.674654 492.792048 
L 532.894286 398.065432 
L 533.113918 424.017943 
L 533.33355 375.912848 
L 533.553183 479.870958 
L 533.772815 419.667353 
L 533.992447 490.859895 
L 534.21208 366.290089 
L 534.431712 411.098284 
L 534.651344 358.271749 
L 534.870976 529.282164 
L 535.090609 436.969048 
L 535.310241 498.273426 
L 535.529873 414.026332 
L 535.749506 477.806243 
L 536.18877 417.285957 
L 536.408402 461.583797 
L 536.628035 458.024006 
L 536.847667 448.765269 
L 537.067299 498.517405 
L 537.286932 464.128544 
L 537.506564 247.970382 
L 537.726196 414.245493 
L 537.945828 409.070012 
L 538.165461 330.007512 
L 538.385093 455.987034 
L 538.604725 446.712869 
L 538.824358 425.349258 
L 539.04399 423.731205 
L 539.263622 413.44194 
L 539.483254 363.648664 
L 539.702887 487.829374 
L 539.922519 423.298277 
L 540.142151 312.270095 
L 540.361784 362.754975 
L 540.581416 455.616065 
L 540.801048 473.052765 
L 541.02068 505.343964 
L 541.240313 405.364023 
L 541.459945 423.905636 
L 541.679577 366.834276 
L 541.89921 510.8692 
L 542.118842 449.41487 
L 542.558106 391.168818 
L 542.777739 528.759505 
L 542.997371 466.383652 
L 543.217003 470.687411 
L 543.436636 535.115073 
L 543.656268 460.872258 
L 543.8759 454.456754 
L 544.095532 414.706255 
L 544.315165 499.767144 
L 544.534797 478.680859 
L 544.754429 475.598289 
L 544.974062 485.927926 
L 545.193694 544.245365 
L 545.413326 354.426409 
L 545.632958 380.497153 
L 545.852591 429.920517 
L 546.072223 505.085603 
L 546.291855 380.742619 
L 546.511488 390.156815 
L 546.73112 393.637315 
L 546.950752 516.933796 
L 547.170384 355.691386 
L 547.390017 480.251517 
L 547.609649 421.392685 
L 547.829281 487.589989 
L 548.268546 480.908419 
L 548.70781 358.120339 
L 548.927443 383.040094 
L 549.147075 371.089623 
L 549.586339 404.445971 
L 549.805972 553.733467 
L 550.025604 483.283134 
L 550.245236 451.708223 
L 550.464869 439.853898 
L 550.684501 469.773947 
L 550.904133 446.299072 
L 551.123765 448.408397 
L 551.343398 438.09339 
L 551.56303 404.541247 
L 551.782662 431.385095 
L 552.002295 416.468813 
L 552.221927 445.973965 
L 552.441559 447.075828 
L 552.661191 428.761535 
L 552.880824 422.27418 
L 553.100456 425.228348 
L 553.320088 353.360612 
L 553.539721 503.227725 
L 553.759353 467.496826 
L 553.978985 455.154977 
L 554.198617 484.84809 
L 554.41825 281.068351 
L 554.637882 492.994976 
L 554.857514 441.556119 
L 555.077147 497.351877 
L 555.296779 442.43942 
L 555.516411 355.51881 
L 555.736043 397.617872 
L 555.955676 496.467073 
L 556.39494 384.197206 
L 556.614573 477.290081 
L 556.834205 419.402343 
L 557.053837 504.482479 
L 557.273469 531.216922 
L 557.493102 384.202438 
L 557.712734 391.498101 
L 557.932366 490.969698 
L 558.151999 484.860656 
L 558.371631 501.450768 
L 558.810895 379.967011 
L 559.030528 469.720465 
L 559.25016 468.532272 
L 559.469792 391.689144 
L 559.689425 466.98877 
L 559.909057 288.421526 
L 559.909057 288.421526 
" style="fill:none;stroke:#96c69a;stroke-linecap:round;stroke-width:3;"/>
   </g>
   <g id="line2d_2"/>
   <g id="patch_3">
    <path d="M 98.911875 602.94 
L 98.911875 109.326857 
" style="fill:none;stroke:#262626;stroke-linecap:square;stroke-linejoin:miter;stroke-width:2.5;"/>
   </g>
   <g id="patch_4">
    <path d="M 98.911875 602.94 
L 581.861304 602.94 
" style="fill:none;stroke:#262626;stroke-linecap:square;stroke-linejoin:miter;stroke-width:2.5;"/>
   </g>
   <g id="legend_1">
    <g id="patch_5">
     <path d="M 528.945679 597.94 
L 574.861304 597.94 
Q 576.861304 597.94 576.861304 595.94 
L 576.861304 554.034375 
Q 576.861304 552.034375 574.861304 552.034375 
L 528.945679 552.034375 
Q 526.945679 552.034375 526.945679 554.034375 
L 526.945679 595.94 
Q 526.945679 597.94 528.945679 597.94 
z
" style="fill:#ffffff;opacity:0.8;stroke:#cccccc;stroke-linejoin:miter;stroke-width:2;"/>
    </g>
    <g id="text_16">
     <!-- $n_\tau$ -->
     <g style="fill:#262626;" transform="translate(538.823491 574.270625)scale(0.24 -0.24)">
      <defs>
       <path d="M 3566 2113 
L 3156 0 
L 2578 0 
L 2988 2091 
Q 3016 2238 3031 2350 
Q 3047 2463 3047 2528 
Q 3047 2791 2881 2937 
Q 2716 3084 2419 3084 
Q 1956 3084 1622 2776 
Q 1288 2469 1184 1941 
L 800 0 
L 225 0 
L 903 3500 
L 1478 3500 
L 1363 2950 
Q 1603 3253 1940 3418 
Q 2278 3584 2650 3584 
Q 3113 3584 3367 3334 
Q 3622 3084 3622 2631 
Q 3622 2519 3608 2391 
Q 3594 2263 3566 2113 
z
" id="DejaVuSans-Oblique-6e" transform="scale(0.015625)"/>
       <path d="M 2103 638 
Q 2188 488 2525 488 
L 2800 488 
L 2706 0 
L 2363 0 
Q 1800 0 1600 300 
Q 1403 606 1534 1269 
L 1856 2925 
L 541 2925 
L 653 3500 
L 3881 3500 
L 3769 2925 
L 2444 2925 
L 2113 1234 
Q 2025 781 2103 638 
z
" id="DejaVuSans-Oblique-3c4" transform="scale(0.015625)"/>
      </defs>
      <use xlink:href="#DejaVuSans-Oblique-6e"/>
      <use transform="translate(63.378906 -16.40625)scale(0.7)" xlink:href="#DejaVuSans-Oblique-3c4"/>
     </g>
    </g>
    <g id="line2d_3">
     <path d="M 530.945679 588.360312 
L 550.945679 588.360312 
" style="fill:none;stroke:#96c69a;stroke-linecap:round;stroke-width:3;"/>
    </g>
    <g id="line2d_4"/>
    <g id="text_17">
     <!-- 80 -->
     <g style="fill:#262626;" transform="translate(558.945679 591.860312)scale(0.1 -0.1)">
      <defs>
       <path d="M 2228 2088 
Q 1891 2088 1709 1903 
Q 1528 1719 1528 1375 
Q 1528 1031 1709 848 
Q 1891 666 2228 666 
Q 2563 666 2741 848 
Q 2919 1031 2919 1375 
Q 2919 1722 2741 1905 
Q 2563 2088 2228 2088 
z
M 1350 2484 
Q 925 2613 709 2878 
Q 494 3144 494 3541 
Q 494 4131 934 4440 
Q 1375 4750 2228 4750 
Q 3075 4750 3515 4442 
Q 3956 4134 3956 3541 
Q 3956 3144 3739 2878 
Q 3522 2613 3097 2484 
Q 3572 2353 3814 2058 
Q 4056 1763 4056 1313 
Q 4056 619 3595 264 
Q 3134 -91 2228 -91 
Q 1319 -91 855 264 
Q 391 619 391 1313 
Q 391 1763 633 2058 
Q 875 2353 1350 2484 
z
M 1631 3419 
Q 1631 3141 1786 2991 
Q 1941 2841 2228 2841 
Q 2509 2841 2662 2991 
Q 2816 3141 2816 3419 
Q 2816 3697 2662 3845 
Q 2509 3994 2228 3994 
Q 1941 3994 1786 3844 
Q 1631 3694 1631 3419 
z
" id="DejaVuSans-Bold-38" transform="scale(0.015625)"/>
       <path d="M 2944 2338 
Q 2944 3213 2780 3570 
Q 2616 3928 2228 3928 
Q 1841 3928 1675 3570 
Q 1509 3213 1509 2338 
Q 1509 1453 1675 1090 
Q 1841 728 2228 728 
Q 2613 728 2778 1090 
Q 2944 1453 2944 2338 
z
M 4147 2328 
Q 4147 1169 3647 539 
Q 3147 -91 2228 -91 
Q 1306 -91 806 539 
Q 306 1169 306 2328 
Q 306 3491 806 4120 
Q 1306 4750 2228 4750 
Q 3147 4750 3647 4120 
Q 4147 3491 4147 2328 
z
" id="DejaVuSans-Bold-30" transform="scale(0.015625)"/>
      </defs>
      <use xlink:href="#DejaVuSans-Bold-38"/>
      <use x="69.580078" xlink:href="#DejaVuSans-Bold-30"/>
     </g>
    </g>
   </g>
  </g>
  <g id="axes_2">
   <g id="patch_6">
    <path d="M 98.911875 92.305714 
L 581.861304 92.305714 
L 581.861304 7.2 
L 98.911875 7.2 
z
" style="fill:none;"/>
   </g>
   <g id="matplotlib.axis_3">
    <g id="xtick_7"/>
    <g id="xtick_8"/>
    <g id="xtick_9"/>
    <g id="xtick_10"/>
    <g id="xtick_11"/>
    <g id="xtick_12"/>
   </g>
   <g id="matplotlib.axis_4">
    <g id="ytick_8">
     <g id="text_18">
      <!-- 0 -->
      <g style="fill:#262626;" transform="translate(69.414375 100.663996)scale(0.22 -0.22)">
       <use xlink:href="#DejaVuSans-30"/>
      </g>
     </g>
    </g>
    <g id="ytick_9">
     <g id="text_19">
      <!-- 100 -->
      <g style="fill:#262626;" transform="translate(41.419375 48.032138)scale(0.22 -0.22)">
       <use xlink:href="#DejaVuSans-31"/>
       <use x="63.623047" xlink:href="#DejaVuSans-30"/>
       <use x="127.246094" xlink:href="#DejaVuSans-30"/>
      </g>
     </g>
    </g>
   </g>
   <g id="patch_7">
    <path clip-path="url(#pf26695050b)" d="M 120.864122 92.305714 
L 154.636809 92.305714 
L 154.636809 11.252653 
L 120.864122 11.252653 
z
" style="fill:#96c69a;fill-opacity:0.5;stroke:#ffffff;stroke-linejoin:miter;stroke-width:2;"/>
   </g>
   <g id="patch_8">
    <path clip-path="url(#pf26695050b)" d="M 154.636809 92.305714 
L 188.409496 92.305714 
L 188.409496 11.252653 
L 154.636809 11.252653 
z
" style="fill:#96c69a;fill-opacity:0.5;stroke:#ffffff;stroke-linejoin:miter;stroke-width:2;"/>
   </g>
   <g id="patch_9">
    <path clip-path="url(#pf26695050b)" d="M 188.409496 92.305714 
L 222.182184 92.305714 
L 222.182184 11.252653 
L 188.409496 11.252653 
z
" style="fill:#96c69a;fill-opacity:0.5;stroke:#ffffff;stroke-linejoin:miter;stroke-width:2;"/>
   </g>
   <g id="patch_10">
    <path clip-path="url(#pf26695050b)" d="M 222.182184 92.305714 
L 255.954871 92.305714 
L 255.954871 11.252653 
L 222.182184 11.252653 
z
" style="fill:#96c69a;fill-opacity:0.5;stroke:#ffffff;stroke-linejoin:miter;stroke-width:2;"/>
   </g>
   <g id="patch_11">
    <path clip-path="url(#pf26695050b)" d="M 255.954871 92.305714 
L 289.727558 92.305714 
L 289.727558 11.778972 
L 255.954871 11.778972 
z
" style="fill:#96c69a;fill-opacity:0.5;stroke:#ffffff;stroke-linejoin:miter;stroke-width:2;"/>
   </g>
   <g id="patch_12">
    <path clip-path="url(#pf26695050b)" d="M 289.727558 92.305714 
L 323.500246 92.305714 
L 323.500246 11.252653 
L 289.727558 11.252653 
z
" style="fill:#96c69a;fill-opacity:0.5;stroke:#ffffff;stroke-linejoin:miter;stroke-width:2;"/>
   </g>
   <g id="patch_13">
    <path clip-path="url(#pf26695050b)" d="M 323.500246 92.305714 
L 357.272933 92.305714 
L 357.272933 11.252653 
L 323.500246 11.252653 
z
" style="fill:#96c69a;fill-opacity:0.5;stroke:#ffffff;stroke-linejoin:miter;stroke-width:2;"/>
   </g>
   <g id="patch_14">
    <path clip-path="url(#pf26695050b)" d="M 357.272933 92.305714 
L 391.04562 92.305714 
L 391.04562 11.252653 
L 357.272933 11.252653 
z
" style="fill:#96c69a;fill-opacity:0.5;stroke:#ffffff;stroke-linejoin:miter;stroke-width:2;"/>
   </g>
   <g id="patch_15">
    <path clip-path="url(#pf26695050b)" d="M 391.04562 92.305714 
L 424.818308 92.305714 
L 424.818308 11.778972 
L 391.04562 11.778972 
z
" style="fill:#96c69a;fill-opacity:0.5;stroke:#ffffff;stroke-linejoin:miter;stroke-width:2;"/>
   </g>
   <g id="patch_16">
    <path clip-path="url(#pf26695050b)" d="M 424.818308 92.305714 
L 458.590995 92.305714 
L 458.590995 11.252653 
L 424.818308 11.252653 
z
" style="fill:#96c69a;fill-opacity:0.5;stroke:#ffffff;stroke-linejoin:miter;stroke-width:2;"/>
   </g>
   <g id="patch_17">
    <path clip-path="url(#pf26695050b)" d="M 458.590995 92.305714 
L 492.363682 92.305714 
L 492.363682 11.252653 
L 458.590995 11.252653 
z
" style="fill:#96c69a;fill-opacity:0.5;stroke:#ffffff;stroke-linejoin:miter;stroke-width:2;"/>
   </g>
   <g id="patch_18">
    <path clip-path="url(#pf26695050b)" d="M 492.363682 92.305714 
L 526.13637 92.305714 
L 526.13637 11.252653 
L 492.363682 11.252653 
z
" style="fill:#96c69a;fill-opacity:0.5;stroke:#ffffff;stroke-linejoin:miter;stroke-width:2;"/>
   </g>
   <g id="patch_19">
    <path clip-path="url(#pf26695050b)" d="M 526.13637 92.305714 
L 559.909057 92.305714 
L 559.909057 11.252653 
L 526.13637 11.252653 
z
" style="fill:#96c69a;fill-opacity:0.5;stroke:#ffffff;stroke-linejoin:miter;stroke-width:2;"/>
   </g>
   <g id="patch_20">
    <path d="M 98.911875 92.305714 
L 98.911875 7.2 
" style="fill:none;stroke:#262626;stroke-linecap:square;stroke-linejoin:miter;stroke-width:2.5;"/>
   </g>
   <g id="patch_21">
    <path d="M 98.911875 92.305714 
L 581.861304 92.305714 
" style="fill:none;stroke:#262626;stroke-linecap:square;stroke-linejoin:miter;stroke-width:2.5;"/>
   </g>
  </g>
  <g id="axes_3">
   <g id="patch_22">
    <path d="M 598.514732 602.94 
L 681.781875 602.94 
L 681.781875 109.326857 
L 598.514732 109.326857 
z
" style="fill:none;"/>
   </g>
   <g id="matplotlib.axis_5">
    <g id="xtick_13">
     <g id="text_20">
      <!-- 0 -->
      <g style="fill:#262626;" transform="translate(591.515982 635.156562)scale(0.22 -0.22)">
       <use xlink:href="#DejaVuSans-30"/>
      </g>
     </g>
    </g>
    <g id="xtick_14">
     <g id="text_21">
      <!-- 100 -->
      <g style="fill:#262626;" transform="translate(621.575171 635.156562)scale(0.22 -0.22)">
       <use xlink:href="#DejaVuSans-31"/>
       <use x="63.623047" xlink:href="#DejaVuSans-30"/>
       <use x="127.246094" xlink:href="#DejaVuSans-30"/>
      </g>
     </g>
    </g>
   </g>
   <g id="matplotlib.axis_6">
    <g id="ytick_10"/>
    <g id="ytick_11"/>
    <g id="ytick_12"/>
    <g id="ytick_13"/>
    <g id="ytick_14"/>
    <g id="ytick_15"/>
    <g id="ytick_16"/>
   </g>
   <g id="patch_23">
    <path clip-path="url(#pe1d6d435ea)" d="M 598.514732 580.503039 
L 599.395866 580.503039 
L 599.395866 567.304827 
L 598.514732 567.304827 
z
" style="fill:#96c69a;fill-opacity:0.5;stroke:#ffffff;stroke-linejoin:miter;stroke-width:1.319821;"/>
   </g>
   <g id="patch_24">
    <path clip-path="url(#pe1d6d435ea)" d="M 598.514732 567.304827 
L 602.039267 567.304827 
L 602.039267 554.106614 
L 598.514732 554.106614 
z
" style="fill:#96c69a;fill-opacity:0.5;stroke:#ffffff;stroke-linejoin:miter;stroke-width:1.319821;"/>
   </g>
   <g id="patch_25">
    <path clip-path="url(#pe1d6d435ea)" d="M 598.514732 554.106614 
L 606.885503 554.106614 
L 606.885503 540.908402 
L 598.514732 540.908402 
z
" style="fill:#96c69a;fill-opacity:0.5;stroke:#ffffff;stroke-linejoin:miter;stroke-width:1.319821;"/>
   </g>
   <g id="patch_26">
    <path clip-path="url(#pe1d6d435ea)" d="M 598.514732 540.908402 
L 609.969471 540.908402 
L 609.969471 527.710189 
L 598.514732 527.710189 
z
" style="fill:#96c69a;fill-opacity:0.5;stroke:#ffffff;stroke-linejoin:miter;stroke-width:1.319821;"/>
   </g>
   <g id="patch_27">
    <path clip-path="url(#pe1d6d435ea)" d="M 598.514732 527.710189 
L 622.745911 527.710189 
L 622.745911 514.511977 
L 598.514732 514.511977 
z
" style="fill:#96c69a;fill-opacity:0.5;stroke:#ffffff;stroke-linejoin:miter;stroke-width:1.319821;"/>
   </g>
   <g id="patch_28">
    <path clip-path="url(#pe1d6d435ea)" d="M 598.514732 514.511977 
L 647.417657 514.511977 
L 647.417657 501.313765 
L 598.514732 501.313765 
z
" style="fill:#96c69a;fill-opacity:0.5;stroke:#ffffff;stroke-linejoin:miter;stroke-width:1.319821;"/>
   </g>
   <g id="patch_29">
    <path clip-path="url(#pe1d6d435ea)" d="M 598.514732 501.313765 
L 652.263893 501.313765 
L 652.263893 488.115552 
L 598.514732 488.115552 
z
" style="fill:#96c69a;fill-opacity:0.5;stroke:#ffffff;stroke-linejoin:miter;stroke-width:1.319821;"/>
   </g>
   <g id="patch_30">
    <path clip-path="url(#pe1d6d435ea)" d="M 598.514732 488.115552 
L 657.991263 488.115552 
L 657.991263 474.91734 
L 598.514732 474.91734 
z
" style="fill:#96c69a;fill-opacity:0.5;stroke:#ffffff;stroke-linejoin:miter;stroke-width:1.319821;"/>
   </g>
   <g id="patch_31">
    <path clip-path="url(#pe1d6d435ea)" d="M 598.514732 474.91734 
L 672.089403 474.91734 
L 672.089403 461.719128 
L 598.514732 461.719128 
z
" style="fill:#96c69a;fill-opacity:0.5;stroke:#ffffff;stroke-linejoin:miter;stroke-width:1.319821;"/>
   </g>
   <g id="patch_32">
    <path clip-path="url(#pe1d6d435ea)" d="M 598.514732 461.719128 
L 668.124301 461.719128 
L 668.124301 448.520915 
L 598.514732 448.520915 
z
" style="fill:#96c69a;fill-opacity:0.5;stroke:#ffffff;stroke-linejoin:miter;stroke-width:1.319821;"/>
   </g>
   <g id="patch_33">
    <path clip-path="url(#pe1d6d435ea)" d="M 598.514732 448.520915 
L 668.564868 448.520915 
L 668.564868 435.322703 
L 598.514732 435.322703 
z
" style="fill:#96c69a;fill-opacity:0.5;stroke:#ffffff;stroke-linejoin:miter;stroke-width:1.319821;"/>
   </g>
   <g id="patch_34">
    <path clip-path="url(#pe1d6d435ea)" d="M 598.514732 435.322703 
L 677.816773 435.322703 
L 677.816773 422.12449 
L 598.514732 422.12449 
z
" style="fill:#96c69a;fill-opacity:0.5;stroke:#ffffff;stroke-linejoin:miter;stroke-width:1.319821;"/>
   </g>
   <g id="patch_35">
    <path clip-path="url(#pe1d6d435ea)" d="M 598.514732 422.12449 
L 668.564868 422.12449 
L 668.564868 408.926278 
L 598.514732 408.926278 
z
" style="fill:#96c69a;fill-opacity:0.5;stroke:#ffffff;stroke-linejoin:miter;stroke-width:1.319821;"/>
   </g>
   <g id="patch_36">
    <path clip-path="url(#pe1d6d435ea)" d="M 598.514732 408.926278 
L 653.145027 408.926278 
L 653.145027 395.728066 
L 598.514732 395.728066 
z
" style="fill:#96c69a;fill-opacity:0.5;stroke:#ffffff;stroke-linejoin:miter;stroke-width:1.319821;"/>
   </g>
   <g id="patch_37">
    <path clip-path="url(#pe1d6d435ea)" d="M 598.514732 395.728066 
L 650.501626 395.728066 
L 650.501626 382.529853 
L 598.514732 382.529853 
z
" style="fill:#96c69a;fill-opacity:0.5;stroke:#ffffff;stroke-linejoin:miter;stroke-width:1.319821;"/>
   </g>
   <g id="patch_38">
    <path clip-path="url(#pe1d6d435ea)" d="M 598.514732 382.529853 
L 641.690288 382.529853 
L 641.690288 369.331641 
L 598.514732 369.331641 
z
" style="fill:#96c69a;fill-opacity:0.5;stroke:#ffffff;stroke-linejoin:miter;stroke-width:1.319821;"/>
   </g>
   <g id="patch_39">
    <path clip-path="url(#pe1d6d435ea)" d="M 598.514732 369.331641 
L 627.15158 369.331641 
L 627.15158 356.133429 
L 598.514732 356.133429 
z
" style="fill:#96c69a;fill-opacity:0.5;stroke:#ffffff;stroke-linejoin:miter;stroke-width:1.319821;"/>
   </g>
   <g id="patch_40">
    <path clip-path="url(#pe1d6d435ea)" d="M 598.514732 356.133429 
L 630.235548 356.133429 
L 630.235548 342.935216 
L 598.514732 342.935216 
z
" style="fill:#96c69a;fill-opacity:0.5;stroke:#ffffff;stroke-linejoin:miter;stroke-width:1.319821;"/>
   </g>
   <g id="patch_41">
    <path clip-path="url(#pe1d6d435ea)" d="M 598.514732 342.935216 
L 620.983644 342.935216 
L 620.983644 329.737004 
L 598.514732 329.737004 
z
" style="fill:#96c69a;fill-opacity:0.5;stroke:#ffffff;stroke-linejoin:miter;stroke-width:1.319821;"/>
   </g>
   <g id="patch_42">
    <path clip-path="url(#pe1d6d435ea)" d="M 598.514732 329.737004 
L 615.256274 329.737004 
L 615.256274 316.538791 
L 598.514732 316.538791 
z
" style="fill:#96c69a;fill-opacity:0.5;stroke:#ffffff;stroke-linejoin:miter;stroke-width:1.319821;"/>
   </g>
   <g id="patch_43">
    <path clip-path="url(#pe1d6d435ea)" d="M 598.514732 316.538791 
L 613.05344 316.538791 
L 613.05344 303.340579 
L 598.514732 303.340579 
z
" style="fill:#96c69a;fill-opacity:0.5;stroke:#ffffff;stroke-linejoin:miter;stroke-width:1.319821;"/>
   </g>
   <g id="patch_44">
    <path clip-path="url(#pe1d6d435ea)" d="M 598.514732 303.340579 
L 608.647771 303.340579 
L 608.647771 290.142367 
L 598.514732 290.142367 
z
" style="fill:#96c69a;fill-opacity:0.5;stroke:#ffffff;stroke-linejoin:miter;stroke-width:1.319821;"/>
   </g>
   <g id="patch_45">
    <path clip-path="url(#pe1d6d435ea)" d="M 598.514732 290.142367 
L 606.444936 290.142367 
L 606.444936 276.944154 
L 598.514732 276.944154 
z
" style="fill:#96c69a;fill-opacity:0.5;stroke:#ffffff;stroke-linejoin:miter;stroke-width:1.319821;"/>
   </g>
   <g id="patch_46">
    <path clip-path="url(#pe1d6d435ea)" d="M 598.514732 276.944154 
L 603.360968 276.944154 
L 603.360968 263.745942 
L 598.514732 263.745942 
z
" style="fill:#96c69a;fill-opacity:0.5;stroke:#ffffff;stroke-linejoin:miter;stroke-width:1.319821;"/>
   </g>
   <g id="patch_47">
    <path clip-path="url(#pe1d6d435ea)" d="M 598.514732 263.745942 
L 603.360968 263.745942 
L 603.360968 250.54773 
L 598.514732 250.54773 
z
" style="fill:#96c69a;fill-opacity:0.5;stroke:#ffffff;stroke-linejoin:miter;stroke-width:1.319821;"/>
   </g>
   <g id="patch_48">
    <path clip-path="url(#pe1d6d435ea)" d="M 598.514732 250.54773 
L 605.123236 250.54773 
L 605.123236 237.349517 
L 598.514732 237.349517 
z
" style="fill:#96c69a;fill-opacity:0.5;stroke:#ffffff;stroke-linejoin:miter;stroke-width:1.319821;"/>
   </g>
   <g id="patch_49">
    <path clip-path="url(#pe1d6d435ea)" d="M 598.514732 237.349517 
L 600.717567 237.349517 
L 600.717567 224.151305 
L 598.514732 224.151305 
z
" style="fill:#96c69a;fill-opacity:0.5;stroke:#ffffff;stroke-linejoin:miter;stroke-width:1.319821;"/>
   </g>
   <g id="patch_50">
    <path clip-path="url(#pe1d6d435ea)" d="M 598.514732 224.151305 
L 601.5987 224.151305 
L 601.5987 210.953092 
L 598.514732 210.953092 
z
" style="fill:#96c69a;fill-opacity:0.5;stroke:#ffffff;stroke-linejoin:miter;stroke-width:1.319821;"/>
   </g>
   <g id="patch_51">
    <path clip-path="url(#pe1d6d435ea)" d="M 598.514732 210.953092 
L 600.717567 210.953092 
L 600.717567 197.75488 
L 598.514732 197.75488 
z
" style="fill:#96c69a;fill-opacity:0.5;stroke:#ffffff;stroke-linejoin:miter;stroke-width:1.319821;"/>
   </g>
   <g id="patch_52">
    <path clip-path="url(#pe1d6d435ea)" d="M 598.514732 197.75488 
L 598.955299 197.75488 
L 598.955299 184.556668 
L 598.514732 184.556668 
z
" style="fill:#96c69a;fill-opacity:0.5;stroke:#ffffff;stroke-linejoin:miter;stroke-width:1.319821;"/>
   </g>
   <g id="patch_53">
    <path clip-path="url(#pe1d6d435ea)" d="M 598.514732 184.556668 
L 598.955299 184.556668 
L 598.955299 171.358455 
L 598.514732 171.358455 
z
" style="fill:#96c69a;fill-opacity:0.5;stroke:#ffffff;stroke-linejoin:miter;stroke-width:1.319821;"/>
   </g>
   <g id="patch_54">
    <path clip-path="url(#pe1d6d435ea)" d="M 598.514732 171.358455 
L 598.955299 171.358455 
L 598.955299 158.160243 
L 598.514732 158.160243 
z
" style="fill:#96c69a;fill-opacity:0.5;stroke:#ffffff;stroke-linejoin:miter;stroke-width:1.319821;"/>
   </g>
   <g id="patch_55">
    <path clip-path="url(#pe1d6d435ea)" d="M 598.514732 158.160243 
L 598.955299 158.160243 
L 598.955299 144.962031 
L 598.514732 144.962031 
z
" style="fill:#96c69a;fill-opacity:0.5;stroke:#ffffff;stroke-linejoin:miter;stroke-width:1.319821;"/>
   </g>
   <g id="patch_56">
    <path clip-path="url(#pe1d6d435ea)" d="M 598.514732 144.962031 
L 598.955299 144.962031 
L 598.955299 131.763818 
L 598.514732 131.763818 
z
" style="fill:#96c69a;fill-opacity:0.5;stroke:#ffffff;stroke-linejoin:miter;stroke-width:1.319821;"/>
   </g>
   <g id="patch_57">
    <path d="M 598.514732 602.94 
L 598.514732 109.326857 
" style="fill:none;stroke:#262626;stroke-linecap:square;stroke-linejoin:miter;stroke-width:2.5;"/>
   </g>
   <g id="patch_58">
    <path d="M 598.514732 602.94 
L 681.781875 602.94 
" style="fill:none;stroke:#262626;stroke-linecap:square;stroke-linejoin:miter;stroke-width:2.5;"/>
   </g>
  </g>
 </g>
 <defs>
  <clipPath id="pc0b6267c73">
   <rect height="493.613143" width="482.949429" x="98.911875" y="109.326857"/>
  </clipPath>
  <clipPath id="pf26695050b">
   <rect height="85.105714" width="482.949429" x="98.911875" y="7.2"/>
  </clipPath>
  <clipPath id="pe1d6d435ea">
   <rect height="493.613143" width="83.267143" x="598.514732" y="109.326857"/>
  </clipPath>
 </defs>
</svg>
