<?xml version="1.0" encoding="utf-8" standalone="no"?>
<!DOCTYPE svg PUBLIC "-//W3C//DTD SVG 1.1//EN"
  "http://www.w3.org/Graphics/SVG/1.1/DTD/svg11.dtd">
<svg height="674.159375pt" version="1.1" viewBox="0 0 688.981875 674.159375" width="688.981875pt" xmlns="http://www.w3.org/2000/svg" xmlns:xlink="http://www.w3.org/1999/xlink">
 <metadata>
  <rdf:RDF xmlns:cc="http://creativecommons.org/ns#" xmlns:dc="http://purl.org/dc/elements/1.1/" xmlns:rdf="http://www.w3.org/1999/02/22-rdf-syntax-ns#">
   <cc:Work>
    <dc:type rdf:resource="http://purl.org/dc/dcmitype/StillImage"/>
    <dc:date>2021-07-24T14:57:06.928783</dc:date>
    <dc:format>image/svg+xml</dc:format>
    <dc:creator>
     <cc:Agent>
      <dc:title>Matplotlib v3.4.2, https://matplotlib.org/</dc:title>
     </cc:Agent>
    </dc:creator>
   </cc:Work>
  </rdf:RDF>
 </metadata>
 <defs>
  <style type="text/css">*{stroke-linecap:butt;stroke-linejoin:round;}</style>
 </defs>
 <g id="figure_1">
  <g id="patch_1">
   <path d="M 0 674.159375 
L 688.981875 674.159375 
L 688.981875 0 
L 0 0 
z
" style="fill:#ffffff;"/>
  </g>
  <g id="axes_1">
   <g id="patch_2">
    <path d="M 98.911875 602.94 
L 581.861304 602.94 
L 581.861304 109.326857 
L 98.911875 109.326857 
z
" style="fill:none;"/>
   </g>
   <g id="matplotlib.axis_1">
    <g id="xtick_1">
     <g id="text_1">
      <!-- 0 -->
      <g style="fill:#262626;" transform="translate(113.645739 635.156562)scale(0.22 -0.22)">
       <defs>
        <path d="M 2034 4250 
Q 1547 4250 1301 3770 
Q 1056 3291 1056 2328 
Q 1056 1369 1301 889 
Q 1547 409 2034 409 
Q 2525 409 2770 889 
Q 3016 1369 3016 2328 
Q 3016 3291 2770 3770 
Q 2525 4250 2034 4250 
z
M 2034 4750 
Q 2819 4750 3233 4129 
Q 3647 3509 3647 2328 
Q 3647 1150 3233 529 
Q 2819 -91 2034 -91 
Q 1250 -91 836 529 
Q 422 1150 422 2328 
Q 422 3509 836 4129 
Q 1250 4750 2034 4750 
z
" id="DejaVuSans-30" transform="scale(0.015625)"/>
       </defs>
       <use xlink:href="#DejaVuSans-30"/>
      </g>
     </g>
    </g>
    <g id="xtick_2">
     <g id="text_2">
      <!-- 20000 -->
      <g style="fill:#262626;" transform="translate(173.503653 635.156562)scale(0.22 -0.22)">
       <defs>
        <path d="M 1228 531 
L 3431 531 
L 3431 0 
L 469 0 
L 469 531 
Q 828 903 1448 1529 
Q 2069 2156 2228 2338 
Q 2531 2678 2651 2914 
Q 2772 3150 2772 3378 
Q 2772 3750 2511 3984 
Q 2250 4219 1831 4219 
Q 1534 4219 1204 4116 
Q 875 4013 500 3803 
L 500 4441 
Q 881 4594 1212 4672 
Q 1544 4750 1819 4750 
Q 2544 4750 2975 4387 
Q 3406 4025 3406 3419 
Q 3406 3131 3298 2873 
Q 3191 2616 2906 2266 
Q 2828 2175 2409 1742 
Q 1991 1309 1228 531 
z
" id="DejaVuSans-32" transform="scale(0.015625)"/>
       </defs>
       <use xlink:href="#DejaVuSans-32"/>
       <use x="63.623047" xlink:href="#DejaVuSans-30"/>
       <use x="127.246094" xlink:href="#DejaVuSans-30"/>
       <use x="190.869141" xlink:href="#DejaVuSans-30"/>
       <use x="254.492188" xlink:href="#DejaVuSans-30"/>
      </g>
     </g>
    </g>
    <g id="xtick_3">
     <g id="text_3">
      <!-- 40000 -->
      <g style="fill:#262626;" transform="translate(261.356566 635.156562)scale(0.22 -0.22)">
       <defs>
        <path d="M 2419 4116 
L 825 1625 
L 2419 1625 
L 2419 4116 
z
M 2253 4666 
L 3047 4666 
L 3047 1625 
L 3713 1625 
L 3713 1100 
L 3047 1100 
L 3047 0 
L 2419 0 
L 2419 1100 
L 313 1100 
L 313 1709 
L 2253 4666 
z
" id="DejaVuSans-34" transform="scale(0.015625)"/>
       </defs>
       <use xlink:href="#DejaVuSans-34"/>
       <use x="63.623047" xlink:href="#DejaVuSans-30"/>
       <use x="127.246094" xlink:href="#DejaVuSans-30"/>
       <use x="190.869141" xlink:href="#DejaVuSans-30"/>
       <use x="254.492188" xlink:href="#DejaVuSans-30"/>
      </g>
     </g>
    </g>
    <g id="xtick_4">
     <g id="text_4">
      <!-- 60000 -->
      <g style="fill:#262626;" transform="translate(349.20948 635.156562)scale(0.22 -0.22)">
       <defs>
        <path d="M 2113 2584 
Q 1688 2584 1439 2293 
Q 1191 2003 1191 1497 
Q 1191 994 1439 701 
Q 1688 409 2113 409 
Q 2538 409 2786 701 
Q 3034 994 3034 1497 
Q 3034 2003 2786 2293 
Q 2538 2584 2113 2584 
z
M 3366 4563 
L 3366 3988 
Q 3128 4100 2886 4159 
Q 2644 4219 2406 4219 
Q 1781 4219 1451 3797 
Q 1122 3375 1075 2522 
Q 1259 2794 1537 2939 
Q 1816 3084 2150 3084 
Q 2853 3084 3261 2657 
Q 3669 2231 3669 1497 
Q 3669 778 3244 343 
Q 2819 -91 2113 -91 
Q 1303 -91 875 529 
Q 447 1150 447 2328 
Q 447 3434 972 4092 
Q 1497 4750 2381 4750 
Q 2619 4750 2861 4703 
Q 3103 4656 3366 4563 
z
" id="DejaVuSans-36" transform="scale(0.015625)"/>
       </defs>
       <use xlink:href="#DejaVuSans-36"/>
       <use x="63.623047" xlink:href="#DejaVuSans-30"/>
       <use x="127.246094" xlink:href="#DejaVuSans-30"/>
       <use x="190.869141" xlink:href="#DejaVuSans-30"/>
       <use x="254.492188" xlink:href="#DejaVuSans-30"/>
      </g>
     </g>
    </g>
    <g id="xtick_5">
     <g id="text_5">
      <!-- 80000 -->
      <g style="fill:#262626;" transform="translate(437.062393 635.156562)scale(0.22 -0.22)">
       <defs>
        <path d="M 2034 2216 
Q 1584 2216 1326 1975 
Q 1069 1734 1069 1313 
Q 1069 891 1326 650 
Q 1584 409 2034 409 
Q 2484 409 2743 651 
Q 3003 894 3003 1313 
Q 3003 1734 2745 1975 
Q 2488 2216 2034 2216 
z
M 1403 2484 
Q 997 2584 770 2862 
Q 544 3141 544 3541 
Q 544 4100 942 4425 
Q 1341 4750 2034 4750 
Q 2731 4750 3128 4425 
Q 3525 4100 3525 3541 
Q 3525 3141 3298 2862 
Q 3072 2584 2669 2484 
Q 3125 2378 3379 2068 
Q 3634 1759 3634 1313 
Q 3634 634 3220 271 
Q 2806 -91 2034 -91 
Q 1263 -91 848 271 
Q 434 634 434 1313 
Q 434 1759 690 2068 
Q 947 2378 1403 2484 
z
M 1172 3481 
Q 1172 3119 1398 2916 
Q 1625 2713 2034 2713 
Q 2441 2713 2670 2916 
Q 2900 3119 2900 3481 
Q 2900 3844 2670 4047 
Q 2441 4250 2034 4250 
Q 1625 4250 1398 4047 
Q 1172 3844 1172 3481 
z
" id="DejaVuSans-38" transform="scale(0.015625)"/>
       </defs>
       <use xlink:href="#DejaVuSans-38"/>
       <use x="63.623047" xlink:href="#DejaVuSans-30"/>
       <use x="127.246094" xlink:href="#DejaVuSans-30"/>
       <use x="190.869141" xlink:href="#DejaVuSans-30"/>
       <use x="254.492188" xlink:href="#DejaVuSans-30"/>
      </g>
     </g>
    </g>
    <g id="xtick_6">
     <g id="text_6">
      <!-- 100000 -->
      <g style="fill:#262626;" transform="translate(517.916557 635.156562)scale(0.22 -0.22)">
       <defs>
        <path d="M 794 531 
L 1825 531 
L 1825 4091 
L 703 3866 
L 703 4441 
L 1819 4666 
L 2450 4666 
L 2450 531 
L 3481 531 
L 3481 0 
L 794 0 
L 794 531 
z
" id="DejaVuSans-31" transform="scale(0.015625)"/>
       </defs>
       <use xlink:href="#DejaVuSans-31"/>
       <use x="63.623047" xlink:href="#DejaVuSans-30"/>
       <use x="127.246094" xlink:href="#DejaVuSans-30"/>
       <use x="190.869141" xlink:href="#DejaVuSans-30"/>
       <use x="254.492188" xlink:href="#DejaVuSans-30"/>
       <use x="318.115234" xlink:href="#DejaVuSans-30"/>
      </g>
     </g>
    </g>
    <g id="text_7">
     <!-- MDTU -->
     <g style="fill:#262626;" transform="translate(304.680964 661.968125)scale(0.24 -0.24)">
      <defs>
       <path d="M 628 4666 
L 1569 4666 
L 2759 1491 
L 3956 4666 
L 4897 4666 
L 4897 0 
L 4281 0 
L 4281 4097 
L 3078 897 
L 2444 897 
L 1241 4097 
L 1241 0 
L 628 0 
L 628 4666 
z
" id="DejaVuSans-4d" transform="scale(0.015625)"/>
       <path d="M 1259 4147 
L 1259 519 
L 2022 519 
Q 2988 519 3436 956 
Q 3884 1394 3884 2338 
Q 3884 3275 3436 3711 
Q 2988 4147 2022 4147 
L 1259 4147 
z
M 628 4666 
L 1925 4666 
Q 3281 4666 3915 4102 
Q 4550 3538 4550 2338 
Q 4550 1131 3912 565 
Q 3275 0 1925 0 
L 628 0 
L 628 4666 
z
" id="DejaVuSans-44" transform="scale(0.015625)"/>
       <path d="M -19 4666 
L 3928 4666 
L 3928 4134 
L 2272 4134 
L 2272 0 
L 1638 0 
L 1638 4134 
L -19 4134 
L -19 4666 
z
" id="DejaVuSans-54" transform="scale(0.015625)"/>
       <path d="M 556 4666 
L 1191 4666 
L 1191 1831 
Q 1191 1081 1462 751 
Q 1734 422 2344 422 
Q 2950 422 3222 751 
Q 3494 1081 3494 1831 
L 3494 4666 
L 4128 4666 
L 4128 1753 
Q 4128 841 3676 375 
Q 3225 -91 2344 -91 
Q 1459 -91 1007 375 
Q 556 841 556 1753 
L 556 4666 
z
" id="DejaVuSans-55" transform="scale(0.015625)"/>
      </defs>
      <use xlink:href="#DejaVuSans-4d"/>
      <use x="86.279297" xlink:href="#DejaVuSans-44"/>
      <use x="163.28125" xlink:href="#DejaVuSans-54"/>
      <use x="224.365234" xlink:href="#DejaVuSans-55"/>
     </g>
    </g>
   </g>
   <g id="matplotlib.axis_2">
    <g id="ytick_1">
     <g id="text_8">
      <!-- 0.50 -->
      <g style="fill:#262626;" transform="translate(34.4275 582.666367)scale(0.22 -0.22)">
       <defs>
        <path d="M 684 794 
L 1344 794 
L 1344 0 
L 684 0 
L 684 794 
z
" id="DejaVuSans-2e" transform="scale(0.015625)"/>
        <path d="M 691 4666 
L 3169 4666 
L 3169 4134 
L 1269 4134 
L 1269 2991 
Q 1406 3038 1543 3061 
Q 1681 3084 1819 3084 
Q 2600 3084 3056 2656 
Q 3513 2228 3513 1497 
Q 3513 744 3044 326 
Q 2575 -91 1722 -91 
Q 1428 -91 1123 -41 
Q 819 9 494 109 
L 494 744 
Q 775 591 1075 516 
Q 1375 441 1709 441 
Q 2250 441 2565 725 
Q 2881 1009 2881 1497 
Q 2881 1984 2565 2268 
Q 2250 2553 1709 2553 
Q 1456 2553 1204 2497 
Q 953 2441 691 2322 
L 691 4666 
z
" id="DejaVuSans-35" transform="scale(0.015625)"/>
       </defs>
       <use xlink:href="#DejaVuSans-30"/>
       <use x="63.623047" xlink:href="#DejaVuSans-2e"/>
       <use x="95.410156" xlink:href="#DejaVuSans-35"/>
       <use x="159.033203" xlink:href="#DejaVuSans-30"/>
      </g>
     </g>
    </g>
    <g id="ytick_2">
     <g id="text_9">
      <!-- 0.75 -->
      <g style="fill:#262626;" transform="translate(34.4275 516.18266)scale(0.22 -0.22)">
       <defs>
        <path d="M 525 4666 
L 3525 4666 
L 3525 4397 
L 1831 0 
L 1172 0 
L 2766 4134 
L 525 4134 
L 525 4666 
z
" id="DejaVuSans-37" transform="scale(0.015625)"/>
       </defs>
       <use xlink:href="#DejaVuSans-30"/>
       <use x="63.623047" xlink:href="#DejaVuSans-2e"/>
       <use x="95.410156" xlink:href="#DejaVuSans-37"/>
       <use x="159.033203" xlink:href="#DejaVuSans-35"/>
      </g>
     </g>
    </g>
    <g id="ytick_3">
     <g id="text_10">
      <!-- 1.00 -->
      <g style="fill:#262626;" transform="translate(34.4275 449.698953)scale(0.22 -0.22)">
       <use xlink:href="#DejaVuSans-31"/>
       <use x="63.623047" xlink:href="#DejaVuSans-2e"/>
       <use x="95.410156" xlink:href="#DejaVuSans-30"/>
       <use x="159.033203" xlink:href="#DejaVuSans-30"/>
      </g>
     </g>
    </g>
    <g id="ytick_4">
     <g id="text_11">
      <!-- 1.25 -->
      <g style="fill:#262626;" transform="translate(34.4275 383.215246)scale(0.22 -0.22)">
       <use xlink:href="#DejaVuSans-31"/>
       <use x="63.623047" xlink:href="#DejaVuSans-2e"/>
       <use x="95.410156" xlink:href="#DejaVuSans-32"/>
       <use x="159.033203" xlink:href="#DejaVuSans-35"/>
      </g>
     </g>
    </g>
    <g id="ytick_5">
     <g id="text_12">
      <!-- 1.50 -->
      <g style="fill:#262626;" transform="translate(34.4275 316.731539)scale(0.22 -0.22)">
       <use xlink:href="#DejaVuSans-31"/>
       <use x="63.623047" xlink:href="#DejaVuSans-2e"/>
       <use x="95.410156" xlink:href="#DejaVuSans-35"/>
       <use x="159.033203" xlink:href="#DejaVuSans-30"/>
      </g>
     </g>
    </g>
    <g id="ytick_6">
     <g id="text_13">
      <!-- 1.75 -->
      <g style="fill:#262626;" transform="translate(34.4275 250.247832)scale(0.22 -0.22)">
       <use xlink:href="#DejaVuSans-31"/>
       <use x="63.623047" xlink:href="#DejaVuSans-2e"/>
       <use x="95.410156" xlink:href="#DejaVuSans-37"/>
       <use x="159.033203" xlink:href="#DejaVuSans-35"/>
      </g>
     </g>
    </g>
    <g id="ytick_7">
     <g id="text_14">
      <!-- 2.00 -->
      <g style="fill:#262626;" transform="translate(34.4275 183.764125)scale(0.22 -0.22)">
       <use xlink:href="#DejaVuSans-32"/>
       <use x="63.623047" xlink:href="#DejaVuSans-2e"/>
       <use x="95.410156" xlink:href="#DejaVuSans-30"/>
       <use x="159.033203" xlink:href="#DejaVuSans-30"/>
      </g>
     </g>
    </g>
    <g id="text_15">
     <!-- $E$ -->
     <g style="fill:#262626;" transform="translate(25.43625 363.813429)rotate(-90)scale(0.24 -0.24)">
      <defs>
       <path d="M 1081 4666 
L 4031 4666 
L 3928 4134 
L 1606 4134 
L 1338 2753 
L 3566 2753 
L 3463 2222 
L 1234 2222 
L 909 531 
L 3284 531 
L 3181 0 
L 172 0 
L 1081 4666 
z
" id="DejaVuSans-Oblique-45" transform="scale(0.015625)"/>
      </defs>
      <use transform="translate(0 0.09375)" xlink:href="#DejaVuSans-Oblique-45"/>
     </g>
    </g>
   </g>
   <g id="line2d_1">
    <path clip-path="url(#p39c35e2201)" d="M 120.864122 419.178083 
L 121.083754 486.114044 
L 121.962283 342.10435 
L 122.181915 322.015047 
L 122.401548 397.714271 
L 122.62118 332.217753 
L 122.840812 496.154972 
L 123.060445 412.506204 
L 123.280077 553.162754 
L 123.499709 386.304335 
L 123.719341 367.691343 
L 123.938974 504.629687 
L 124.158606 426.142198 
L 124.378238 490.942132 
L 124.597871 418.957446 
L 125.256767 479.630274 
L 125.4764 246.017118 
L 125.696032 500.073487 
L 125.915664 375.402345 
L 126.135297 448.686206 
L 126.354929 468.531079 
L 126.574561 446.258332 
L 126.794193 387.827354 
L 127.013826 478.738832 
L 127.233458 453.002012 
L 127.45309 450.172448 
L 127.672723 351.217761 
L 127.892355 491.420953 
L 128.111987 521.494296 
L 128.331619 429.981706 
L 128.551252 461.29472 
L 128.770884 399.461419 
L 128.990516 428.562368 
L 129.210149 521.784998 
L 129.649413 406.584716 
L 129.869045 429.272853 
L 130.088678 422.135606 
L 130.30831 494.332845 
L 130.747575 465.982706 
L 130.967207 463.023082 
L 131.186839 294.947386 
L 131.406471 419.681446 
L 132.065368 510.23388 
L 132.285001 421.080366 
L 132.504633 387.643111 
L 132.724265 461.976453 
L 132.943897 400.176962 
L 133.383162 467.284127 
L 133.602794 416.865233 
L 133.822426 465.023239 
L 134.042059 415.985812 
L 134.261691 392.454129 
L 134.481323 469.578959 
L 134.700956 420.443875 
L 134.920588 439.326194 
L 135.14022 369.611414 
L 135.359852 488.419069 
L 135.579485 467.148907 
L 135.799117 471.349732 
L 136.018749 389.181546 
L 136.238382 478.754003 
L 136.458014 519.993818 
L 136.897278 441.242578 
L 137.116911 429.668801 
L 137.336543 459.055814 
L 137.556175 349.34004 
L 137.775808 499.976935 
L 137.99544 433.739197 
L 138.215072 481.768383 
L 138.434704 478.625355 
L 138.654337 393.849199 
L 138.873969 464.221136 
L 139.093601 408.323692 
L 139.313234 440.860073 
L 139.532866 517.235652 
L 139.752498 529.003065 
L 139.97213 501.102862 
L 140.191763 508.146469 
L 140.411395 401.422635 
L 140.631027 459.674624 
L 140.85066 477.391468 
L 141.070292 454.614943 
L 141.289924 388.173829 
L 141.509556 507.948298 
L 141.948821 308.825282 
L 142.388086 466.68949 
L 142.607718 322.26823 
L 142.82735 358.068352 
L 143.046982 444.911599 
L 143.266615 479.187483 
L 143.486247 487.064539 
L 143.705879 474.173994 
L 143.925512 489.333733 
L 144.145144 407.045028 
L 144.584408 508.589596 
L 144.804041 322.833666 
L 145.023673 424.258797 
L 145.243305 386.543191 
L 145.462938 493.408411 
L 145.68257 447.798705 
L 145.902202 521.64856 
L 146.121834 451.307716 
L 146.341467 481.343727 
L 146.561099 393.64422 
L 146.780731 521.588867 
L 147.000364 396.091049 
L 147.219996 463.908235 
L 147.439628 489.3832 
L 147.65926 426.2594 
L 147.878893 529.525369 
L 148.098525 398.998652 
L 148.318157 420.914736 
L 148.537789 496.216759 
L 148.977054 376.795366 
L 149.196686 451.38068 
L 149.635951 406.294304 
L 149.855583 245.097476 
L 150.075215 546.227374 
L 150.294848 334.209229 
L 150.953745 481.676874 
L 151.173377 425.501442 
L 151.393009 515.485178 
L 151.612641 402.188789 
L 151.832274 459.304428 
L 152.051906 484.170847 
L 152.271538 477.184074 
L 152.491171 326.703996 
L 152.710803 348.944445 
L 152.930435 482.889129 
L 153.150067 374.989815 
L 153.3697 433.715361 
L 153.589332 524.781643 
L 153.808964 423.402208 
L 154.028597 380.467797 
L 154.248229 191.024142 
L 154.467861 421.450941 
L 154.687493 349.525853 
L 154.907126 440.332207 
L 155.126758 388.591019 
L 155.34639 380.774284 
L 155.566023 461.353971 
L 155.785655 331.437446 
L 156.224919 503.694618 
L 156.444552 416.00165 
L 156.664184 400.958316 
L 156.883816 476.376127 
L 157.103449 490.662245 
L 157.323081 418.607593 
L 157.542713 464.336314 
L 157.762345 455.438136 
L 157.981978 405.314638 
L 158.20161 429.048551 
L 158.421242 418.814966 
L 158.640875 417.022976 
L 158.860507 452.250099 
L 159.080139 465.616496 
L 159.299771 451.959038 
L 159.519404 499.978745 
L 159.739036 227.203882 
L 159.958668 469.044654 
L 160.178301 458.652397 
L 160.397933 517.807466 
L 160.837197 408.865131 
L 161.05683 503.656613 
L 161.276462 474.883626 
L 161.496094 411.254806 
L 161.715727 511.484883 
L 161.935359 501.764611 
L 162.154991 422.412411 
L 162.374623 438.38883 
L 162.594256 284.963872 
L 163.03352 465.923286 
L 163.253153 405.589243 
L 163.472785 430.245969 
L 163.692417 491.986472 
L 163.912049 390.087945 
L 164.131682 454.362498 
L 164.351314 344.482837 
L 164.570946 528.172654 
L 164.790578 396.16812 
L 165.010211 476.936513 
L 165.229843 434.772869 
L 165.449475 358.806349 
L 165.669108 412.603982 
L 166.108372 289.227464 
L 166.328004 453.653392 
L 166.547637 367.018784 
L 166.767269 508.035135 
L 166.986901 453.247621 
L 167.206534 455.320496 
L 167.426166 383.746813 
L 167.645798 462.330216 
L 168.085063 427.798576 
L 168.304695 389.694464 
L 168.524327 500.473983 
L 168.74396 411.718484 
L 168.963592 461.00569 
L 169.183224 459.281088 
L 169.402856 386.802984 
L 169.622489 413.556641 
L 169.842121 419.342795 
L 170.061753 465.015958 
L 170.281386 427.716472 
L 170.501018 429.138808 
L 170.72065 499.86051 
L 170.940282 464.885964 
L 171.159915 402.014784 
L 171.379547 373.569996 
L 171.599179 368.53604 
L 172.038444 422.40391 
L 172.258076 514.136906 
L 172.477708 477.628829 
L 172.697341 478.827217 
L 172.916973 490.534576 
L 173.136605 511.897657 
L 173.356238 567.19741 
L 173.57587 465.555902 
L 173.795502 539.971711 
L 174.015134 413.674692 
L 174.234767 476.158594 
L 174.454399 418.449449 
L 174.674031 499.638152 
L 174.893664 481.797759 
L 175.113296 449.672982 
L 175.332928 493.66885 
L 175.55256 377.549879 
L 175.772193 486.04347 
L 175.991825 497.469095 
L 176.211457 455.074063 
L 176.43109 444.413025 
L 176.650722 489.97334 
L 176.870354 368.213481 
L 177.089986 438.228909 
L 177.309619 451.028508 
L 177.529251 484.72713 
L 177.748883 406.442363 
L 177.968516 494.588926 
L 178.188148 483.570882 
L 178.40778 396.311956 
L 178.627412 363.275568 
L 178.847045 391.625592 
L 179.066677 391.802851 
L 179.286309 426.667049 
L 179.505941 370.007921 
L 179.725574 513.680282 
L 179.945206 383.508308 
L 180.164838 437.738344 
L 180.384471 431.154807 
L 180.604103 338.150411 
L 180.823735 461.082676 
L 181.043367 438.261839 
L 181.263 441.094914 
L 181.482632 445.587387 
L 181.702264 410.619338 
L 181.921897 465.1911 
L 182.580793 526.246763 
L 182.800426 372.171297 
L 183.23969 484.221547 
L 183.459323 491.481117 
L 183.678955 467.509769 
L 183.898587 465.765858 
L 184.118219 421.393982 
L 184.337852 421.124238 
L 184.557484 517.285457 
L 184.777116 464.176839 
L 184.996749 465.478526 
L 185.216381 420.719654 
L 185.436013 444.42903 
L 185.655645 385.869821 
L 185.875278 534.14801 
L 186.09491 499.303769 
L 186.534175 364.815853 
L 186.753807 382.968208 
L 186.973439 460.656987 
L 187.193071 439.940921 
L 187.412704 457.589849 
L 187.632336 406.549323 
L 187.851968 472.086606 
L 188.071601 418.764086 
L 188.510865 462.498532 
L 188.730497 462.521747 
L 189.169762 527.069663 
L 189.389394 409.652797 
L 189.609027 479.56582 
L 189.828659 317.054142 
L 190.048291 464.408964 
L 190.267923 478.083533 
L 190.487556 480.755613 
L 190.707188 357.616312 
L 190.92682 417.162408 
L 191.146453 532.469965 
L 191.366085 433.981279 
L 191.585717 240.574467 
L 191.805349 477.40967 
L 192.024982 316.21987 
L 192.244614 489.681089 
L 192.464246 356.802625 
L 192.683879 471.273145 
L 192.903511 462.578986 
L 193.123143 519.227934 
L 193.342775 418.260536 
L 193.562408 422.04919 
L 193.78204 460.182725 
L 194.001672 521.970022 
L 194.221305 422.035554 
L 194.440937 473.681176 
L 194.660569 360.013192 
L 194.880201 439.842531 
L 195.319466 361.483216 
L 195.539098 411.818963 
L 195.75873 390.00364 
L 195.978363 416.772922 
L 196.197995 469.95758 
L 196.63726 391.298294 
L 196.856892 257.25386 
L 197.076524 462.464551 
L 197.296156 382.195251 
L 197.515789 473.246853 
L 197.735421 473.655767 
L 197.955053 452.96873 
L 198.174686 498.472018 
L 198.394318 518.505801 
L 198.61395 445.687256 
L 198.833582 489.882543 
L 199.053215 463.67141 
L 199.272847 459.301527 
L 199.492479 375.010238 
L 199.712112 445.783081 
L 199.931744 424.905681 
L 200.151376 371.443481 
L 200.590641 535.00441 
L 200.810273 486.995641 
L 201.029905 529.999933 
L 201.249538 424.458313 
L 201.46917 428.643583 
L 201.688802 410.551478 
L 201.908434 378.286418 
L 202.128067 491.033869 
L 202.347699 468.303021 
L 202.567331 501.88463 
L 203.226228 362.315167 
L 203.665493 461.506757 
L 204.104757 490.060933 
L 204.544022 395.029921 
L 204.763654 491.111867 
L 205.202919 373.773768 
L 205.422551 533.848204 
L 205.642183 498.134693 
L 205.861816 431.813741 
L 206.081448 489.313402 
L 206.30108 474.992937 
L 206.520712 344.285321 
L 206.740345 314.059188 
L 206.959977 453.187064 
L 207.179609 420.557475 
L 207.399242 428.855893 
L 207.618874 318.846874 
L 207.838506 477.411564 
L 208.277771 290.265658 
L 208.497403 422.187057 
L 208.717035 409.720355 
L 208.936668 475.203269 
L 209.1563 461.341172 
L 209.375932 503.02671 
L 209.595564 508.671326 
L 209.815197 498.46958 
L 210.034829 406.311641 
L 210.254461 473.004752 
L 210.693726 525.5997 
L 210.913358 499.531521 
L 211.13299 421.302459 
L 211.352623 461.870675 
L 211.572255 449.311367 
L 211.791887 494.714435 
L 212.011519 388.72645 
L 212.231152 485.273172 
L 212.450784 424.628786 
L 212.670416 516.326172 
L 213.329313 431.855799 
L 213.548945 501.492503 
L 213.768578 453.840014 
L 213.98821 324.587935 
L 214.207842 335.639629 
L 214.427475 302.625053 
L 214.647107 344.981516 
L 214.866739 410.64225 
L 215.086371 435.620092 
L 215.306004 482.480725 
L 215.525636 469.984472 
L 215.745268 428.141827 
L 215.964901 523.439586 
L 216.184533 452.107776 
L 216.404165 437.609879 
L 216.623797 519.940603 
L 216.84343 419.377219 
L 217.063062 477.440341 
L 217.282694 434.393967 
L 217.502327 482.888214 
L 217.721959 412.894759 
L 217.941591 523.324965 
L 218.161223 362.411284 
L 218.380856 530.474337 
L 218.600488 437.939626 
L 218.82012 477.744028 
L 219.039753 434.953542 
L 219.259385 561.164735 
L 219.479017 311.362128 
L 219.698649 461.949982 
L 219.918282 515.686432 
L 220.137914 401.603692 
L 220.357546 366.283769 
L 220.577179 373.096379 
L 220.796811 483.872099 
L 221.016443 476.203699 
L 221.236075 521.466438 
L 221.455708 361.444072 
L 221.67534 420.604971 
L 221.894972 533.559858 
L 222.114605 478.079438 
L 222.334237 378.713698 
L 222.773501 477.045892 
L 222.993134 369.098045 
L 223.212766 415.006487 
L 223.432398 504.880862 
L 223.652031 529.500138 
L 223.871663 399.582312 
L 224.091295 439.752935 
L 224.310927 392.099835 
L 224.53056 475.291997 
L 224.750192 418.760396 
L 224.969824 540.186233 
L 225.189456 527.716079 
L 225.409089 482.073515 
L 225.628721 490.486577 
L 225.848353 343.151462 
L 226.287618 505.880116 
L 226.726882 439.606455 
L 226.946515 432.015891 
L 227.166147 522.116573 
L 227.385779 275.478436 
L 227.605412 507.587616 
L 227.825044 513.322298 
L 228.044676 415.128913 
L 228.264308 501.8068 
L 228.483941 453.822873 
L 228.703573 510.2536 
L 228.923205 507.227769 
L 229.142838 476.128264 
L 229.36247 489.813287 
L 229.582102 553.134164 
L 230.021367 319.593707 
L 230.240999 483.685748 
L 230.460631 376.870724 
L 230.680264 475.191198 
L 230.899896 394.971952 
L 231.119528 469.404311 
L 231.33916 479.860346 
L 231.558793 461.768937 
L 231.998057 317.173705 
L 232.21769 464.9166 
L 232.437322 435.857108 
L 232.656954 449.410818 
L 232.876586 453.692402 
L 233.096219 433.547785 
L 233.315851 471.139059 
L 233.535483 455.366931 
L 233.755116 505.276352 
L 233.974748 498.270146 
L 234.19438 462.468614 
L 234.414012 471.570805 
L 234.633645 535.890176 
L 234.853277 359.680927 
L 235.072909 511.829883 
L 235.292542 450.388045 
L 235.512174 514.4613 
L 235.731806 476.683674 
L 235.951438 527.071006 
L 236.171071 403.256501 
L 236.390703 437.286646 
L 236.610335 523.76563 
L 236.829968 394.92031 
L 237.0496 474.635971 
L 237.269232 439.092033 
L 237.488864 371.467736 
L 237.708497 377.191928 
L 237.928129 423.363244 
L 238.147761 361.506568 
L 238.806658 478.364696 
L 239.02629 416.217317 
L 239.245923 317.765154 
L 239.465555 457.185353 
L 240.124452 365.603942 
L 240.344084 362.123664 
L 240.563716 489.685091 
L 240.783349 370.799651 
L 241.002981 411.619351 
L 241.222613 413.101524 
L 241.442245 459.668865 
L 241.661878 325.385027 
L 241.88151 432.811917 
L 242.101142 293.196491 
L 242.320775 428.966253 
L 242.540407 184.840198 
L 242.760039 402.697198 
L 242.979671 310.058014 
L 243.418936 503.30561 
L 243.638568 445.091019 
L 243.858201 461.393778 
L 244.077833 512.647393 
L 244.517097 430.486642 
L 244.73673 461.441176 
L 244.956362 466.92321 
L 245.175994 407.801488 
L 245.395627 465.862291 
L 245.615259 406.759016 
L 245.834891 463.762629 
L 246.054523 464.558081 
L 246.274156 382.293982 
L 246.71342 479.485262 
L 246.933053 398.765825 
L 247.152685 394.988646 
L 247.372317 359.656502 
L 247.591949 352.97336 
L 247.811582 474.753189 
L 248.031214 516.382156 
L 248.250846 407.298704 
L 248.470479 507.971092 
L 248.690111 510.599866 
L 248.909743 501.922005 
L 249.129375 340.531046 
L 249.349008 366.700005 
L 249.56864 529.183376 
L 249.788272 475.962312 
L 250.007905 544.852749 
L 250.227537 450.37083 
L 250.666801 385.454731 
L 251.106066 489.43765 
L 251.325698 382.776514 
L 251.764963 490.084658 
L 251.984595 461.089708 
L 252.204227 556.48074 
L 252.42386 416.504345 
L 252.643492 348.766075 
L 252.863124 549.258873 
L 253.082757 420.190891 
L 253.302389 404.852587 
L 253.522021 431.759578 
L 253.741653 510.489361 
L 253.961286 413.635799 
L 254.180918 428.228372 
L 254.40055 420.712476 
L 254.620183 450.055224 
L 254.839815 441.351064 
L 255.059447 491.551826 
L 255.279079 512.400357 
L 255.498712 374.042307 
L 255.937976 416.858493 
L 256.157608 350.746496 
L 256.596873 523.039417 
L 256.816505 464.677648 
L 257.036138 368.890735 
L 257.25577 450.903988 
L 257.475402 375.738254 
L 257.695034 404.595488 
L 257.914667 267.959309 
L 258.134299 428.334181 
L 258.353931 467.671554 
L 258.573564 538.141337 
L 258.793196 385.484765 
L 259.012828 471.957621 
L 259.23246 494.784397 
L 259.452093 345.993957 
L 259.671725 514.526589 
L 259.891357 446.499987 
L 260.11099 442.567795 
L 260.330622 480.703827 
L 260.550254 398.265151 
L 260.769886 458.60566 
L 260.989519 472.054323 
L 261.209151 399.632299 
L 261.428783 520.046229 
L 261.648416 403.829324 
L 261.868048 399.944596 
L 262.08768 463.550455 
L 262.307312 390.740301 
L 262.746577 447.848398 
L 262.966209 378.466256 
L 263.185842 494.246483 
L 263.844738 381.147009 
L 264.064371 454.213539 
L 264.284003 452.868868 
L 264.503635 403.162888 
L 264.723268 423.205849 
L 264.9429 290.402082 
L 265.162532 462.325986 
L 265.382164 429.22941 
L 265.601797 430.975302 
L 265.821429 377.400767 
L 266.041061 428.235832 
L 266.260694 438.280042 
L 266.480326 488.175609 
L 266.699958 390.848696 
L 266.91959 455.196234 
L 267.139223 412.486147 
L 267.358855 564.46282 
L 267.578487 359.708511 
L 267.79812 526.894926 
L 268.017752 417.996063 
L 268.237384 464.650422 
L 268.457016 405.478514 
L 268.676649 489.418793 
L 268.896281 458.512278 
L 269.115913 458.630887 
L 269.335546 420.815779 
L 269.555178 494.85972 
L 269.77481 326.729692 
L 269.994442 455.678085 
L 270.214075 477.371311 
L 270.433707 526.797656 
L 270.653339 478.750021 
L 270.872972 402.638788 
L 271.092604 457.772947 
L 271.312236 433.553727 
L 271.751501 497.749284 
L 272.190765 457.425487 
L 272.410397 468.707875 
L 272.63003 528.814285 
L 272.849662 231.66314 
L 273.069294 397.029434 
L 273.508559 496.861795 
L 273.728191 447.814518 
L 273.947823 550.62884 
L 274.167456 330.220793 
L 274.387088 481.940184 
L 274.60672 489.486765 
L 274.826353 463.7686 
L 275.045985 497.492725 
L 275.265617 440.508555 
L 275.704882 517.8454 
L 275.924514 397.316648 
L 276.144146 490.441073 
L 276.363779 431.254001 
L 276.803043 463.077365 
L 277.022675 430.984299 
L 277.46194 493.002956 
L 277.681572 464.168604 
L 277.901205 467.661716 
L 278.120837 543.650038 
L 278.340469 517.203887 
L 278.560101 446.026347 
L 279.438631 507.797147 
L 279.658263 405.182119 
L 280.097527 451.021851 
L 280.31716 460.676512 
L 280.536792 326.824978 
L 280.756424 526.484659 
L 280.976057 433.137212 
L 281.195689 414.101497 
L 281.415321 492.68882 
L 281.634953 462.093875 
L 281.854586 396.908796 
L 282.074218 521.380675 
L 282.29385 423.149306 
L 282.513483 411.033189 
L 282.733115 502.529081 
L 282.952747 376.174358 
L 283.172379 450.345255 
L 283.611644 383.604697 
L 284.050909 508.167687 
L 284.270541 459.914619 
L 284.490173 356.132031 
L 284.709805 483.463223 
L 284.929438 504.916784 
L 285.14907 401.790472 
L 285.368702 450.867226 
L 285.588335 435.071039 
L 285.807967 371.489549 
L 286.027599 361.173124 
L 286.247231 411.147629 
L 286.466864 409.960581 
L 286.906128 526.446872 
L 287.12576 432.201179 
L 287.345393 446.872319 
L 287.565025 422.813822 
L 287.784657 461.277043 
L 288.00429 424.724117 
L 288.223922 470.736801 
L 288.443554 295.37033 
L 288.663186 426.791599 
L 288.882819 323.378384 
L 289.102451 434.402437 
L 289.322083 464.718882 
L 289.541716 471.669324 
L 289.761348 401.490941 
L 290.200612 482.287512 
L 290.420245 471.253052 
L 290.639877 434.080193 
L 290.859509 420.07271 
L 291.079142 435.552626 
L 291.518406 482.55944 
L 291.738038 395.180753 
L 291.957671 367.003752 
L 292.177303 520.575472 
L 292.396935 328.613551 
L 292.616568 386.784067 
L 292.8362 338.093409 
L 293.055832 476.597491 
L 293.275464 483.8874 
L 293.495097 481.284686 
L 293.714729 512.510034 
L 293.934361 513.464221 
L 294.153994 489.192847 
L 294.373626 361.022837 
L 294.593258 419.330124 
L 294.81289 417.564296 
L 295.032523 485.50404 
L 295.471787 416.059013 
L 295.69142 435.851517 
L 295.911052 467.345978 
L 296.130684 516.331937 
L 296.350316 337.073452 
L 296.569949 357.680604 
L 296.789581 309.78103 
L 297.009213 451.415678 
L 297.228846 403.793526 
L 297.448478 294.315335 
L 297.887742 375.215724 
L 298.107375 364.162272 
L 298.327007 299.896012 
L 298.546639 458.584344 
L 298.766272 370.677802 
L 298.985904 374.202805 
L 299.205536 387.908369 
L 299.425168 386.998405 
L 299.644801 452.368826 
L 299.864433 390.176944 
L 300.084065 396.891132 
L 300.742962 482.501685 
L 300.962594 474.776248 
L 301.182227 451.774451 
L 301.401859 416.731358 
L 301.621491 402.505849 
L 301.841124 562.252903 
L 302.060756 422.147858 
L 302.280388 419.653339 
L 302.719653 395.460157 
L 302.939285 432.077233 
L 303.158917 534.467931 
L 303.378549 398.65594 
L 303.598182 404.703892 
L 303.817814 418.211498 
L 304.037446 443.834046 
L 304.257079 348.227323 
L 304.476711 461.862381 
L 304.696343 380.86241 
L 304.915975 515.617726 
L 305.135608 516.675017 
L 305.35524 385.618872 
L 305.574872 531.372642 
L 306.014137 374.216556 
L 306.233769 498.136193 
L 306.892666 337.356092 
L 307.112298 418.525224 
L 307.551563 324.653004 
L 307.771195 460.08425 
L 307.990827 424.104734 
L 308.21046 487.714395 
L 308.430092 341.806742 
L 308.649724 518.871869 
L 308.869357 470.572804 
L 309.088989 464.22549 
L 309.308621 526.825987 
L 309.528253 467.869338 
L 309.747886 486.786277 
L 309.967518 452.281396 
L 310.18715 324.231191 
L 310.626415 453.969934 
L 310.846047 366.047581 
L 311.065679 368.023533 
L 311.285312 458.338681 
L 311.504944 482.637215 
L 311.944209 440.144917 
L 312.163841 383.236495 
L 312.383473 422.304339 
L 312.603105 357.029465 
L 312.822738 491.147345 
L 313.04237 479.632485 
L 313.262002 416.743767 
L 313.481635 415.395716 
L 313.701267 362.050679 
L 313.920899 505.163944 
L 314.140531 473.721817 
L 314.360164 461.98988 
L 314.579796 497.850739 
L 314.799428 444.630246 
L 315.019061 422.072907 
L 315.238693 531.151884 
L 315.89759 296.571109 
L 316.336854 497.246949 
L 316.556487 434.996672 
L 316.776119 454.978247 
L 316.995751 509.827842 
L 317.215383 487.247809 
L 317.435016 365.710739 
L 317.654648 424.172004 
L 317.87428 399.481209 
L 318.093912 397.460575 
L 318.313545 377.294888 
L 318.533177 455.63886 
L 318.752809 396.909765 
L 318.972442 475.864981 
L 319.192074 340.068533 
L 319.411706 375.252042 
L 319.631338 513.552417 
L 319.850971 456.979809 
L 320.070603 529.773918 
L 320.509868 403.720038 
L 320.7295 529.223792 
L 320.949132 419.285066 
L 321.168764 448.343998 
L 321.388397 459.174769 
L 321.608029 315.53888 
L 322.047294 491.62483 
L 322.266926 475.012548 
L 322.486558 484.74852 
L 322.70619 415.92127 
L 322.925823 432.359747 
L 323.365087 491.11087 
L 323.58472 465.226478 
L 323.804352 371.764822 
L 324.023984 461.530127 
L 324.682881 382.190595 
L 324.902513 477.784935 
L 325.122146 366.399318 
L 325.341778 419.076257 
L 325.56141 391.806984 
L 325.781042 515.076054 
L 326.000675 453.163273 
L 326.220307 483.886466 
L 326.439939 471.542815 
L 326.659572 393.862436 
L 326.879204 410.553545 
L 327.098836 409.400337 
L 327.318468 436.913254 
L 327.538101 519.670908 
L 327.757733 425.655209 
L 327.977365 462.857069 
L 328.196998 455.740317 
L 328.41663 422.528027 
L 328.636262 475.266239 
L 328.855894 395.456862 
L 329.075527 488.386686 
L 329.295159 448.666722 
L 329.514791 526.550153 
L 329.734424 280.691568 
L 329.954056 434.59069 
L 330.173688 422.852165 
L 330.39332 351.448401 
L 330.612953 471.501464 
L 330.832585 462.986631 
L 331.052217 339.225983 
L 331.27185 447.674031 
L 331.491482 407.213602 
L 331.930746 440.835662 
L 332.150379 455.042505 
L 332.370011 397.596776 
L 332.809275 445.519615 
L 333.028908 316.576138 
L 333.24854 512.974902 
L 333.468172 461.643992 
L 333.687805 456.216893 
L 333.907437 467.79512 
L 334.127069 509.194509 
L 334.346701 446.945579 
L 334.566334 516.602497 
L 334.785966 465.552837 
L 335.005598 443.869195 
L 335.225231 496.805776 
L 335.444863 373.994351 
L 335.664495 437.670065 
L 335.884127 359.303386 
L 336.10376 501.257257 
L 336.323392 493.577558 
L 336.543024 359.146119 
L 336.762657 460.036989 
L 336.982289 506.922598 
L 337.201921 491.599216 
L 337.421553 485.517767 
L 337.641186 530.030041 
L 337.860818 374.609443 
L 338.08045 407.649615 
L 338.300083 567.830831 
L 338.739347 309.681232 
L 338.958979 408.134852 
L 339.178612 360.098999 
L 339.398244 518.106156 
L 339.837509 371.409749 
L 340.057141 483.40977 
L 340.276773 435.388548 
L 340.496405 455.962091 
L 340.716038 498.289774 
L 340.93567 517.998675 
L 341.155302 298.859127 
L 341.374935 515.320457 
L 341.594567 439.311296 
L 341.814199 440.604078 
L 342.253464 488.757975 
L 342.473096 438.318077 
L 342.692728 506.040554 
L 342.912361 436.188152 
L 343.131993 488.095822 
L 343.351625 497.682669 
L 343.571257 512.990147 
L 344.010522 404.20806 
L 344.230154 497.110681 
L 344.449787 504.73785 
L 344.669419 507.02425 
L 344.889051 526.832006 
L 345.328316 355.246615 
L 345.547948 355.444546 
L 345.76758 468.156775 
L 345.987213 480.56834 
L 346.206845 471.860429 
L 346.426477 487.772115 
L 346.646109 434.028414 
L 346.865742 524.084884 
L 347.085374 457.027883 
L 347.305006 458.203931 
L 347.524639 305.279195 
L 347.744271 285.017626 
L 347.963903 414.831908 
L 348.183535 361.354478 
L 348.403168 354.149709 
L 348.6228 514.56307 
L 348.842432 473.760474 
L 349.062064 473.347762 
L 349.501329 307.31084 
L 349.720961 495.670068 
L 349.940594 416.288823 
L 350.160226 410.74576 
L 350.379858 358.670255 
L 350.59949 392.248339 
L 350.819123 466.264621 
L 351.038755 474.666105 
L 351.258387 342.563967 
L 351.697652 439.87117 
L 351.917284 436.915646 
L 352.136916 448.873553 
L 352.356549 443.901407 
L 352.576181 372.667022 
L 352.795813 386.986215 
L 353.015446 530.383654 
L 353.235078 486.404975 
L 353.45471 304.83953 
L 353.893975 502.599729 
L 354.113607 435.973586 
L 354.333239 472.126848 
L 354.552872 357.776165 
L 354.772504 381.933069 
L 354.992136 318.676607 
L 355.211768 505.436347 
L 355.431401 402.351832 
L 355.651033 411.74882 
L 355.870665 476.021986 
L 356.090298 419.574802 
L 356.30993 391.988448 
L 356.529562 490.996727 
L 356.749194 431.571297 
L 356.968827 461.368575 
L 357.188459 453.629206 
L 357.408091 509.770278 
L 357.627724 402.666713 
L 357.847356 451.556096 
L 358.066988 461.895603 
L 358.28662 460.455304 
L 358.506253 384.532734 
L 358.725885 398.86886 
L 358.945517 510.573617 
L 359.16515 477.727849 
L 359.384782 479.087788 
L 359.604414 432.923589 
L 360.043679 483.353453 
L 360.263311 485.122854 
L 360.482943 430.872078 
L 360.702576 474.700005 
L 361.361472 432.32513 
L 361.581105 475.265859 
L 361.800737 477.433614 
L 362.020369 417.008831 
L 362.240002 471.25523 
L 362.459634 408.684015 
L 362.679266 499.970238 
L 362.898898 521.384602 
L 363.118531 400.620686 
L 363.338163 473.793156 
L 363.557795 325.368422 
L 363.777427 344.512819 
L 363.99706 447.165355 
L 364.216692 494.890485 
L 364.436324 475.677712 
L 364.655957 366.81396 
L 364.875589 492.182474 
L 365.095221 327.427999 
L 365.314853 504.721182 
L 365.534486 425.416666 
L 365.754118 430.73413 
L 365.97375 480.093064 
L 366.193383 390.057695 
L 366.632647 458.036153 
L 366.852279 389.014382 
L 367.071912 515.331659 
L 367.291544 519.765446 
L 367.730809 398.178143 
L 367.950441 500.525202 
L 368.170073 393.285244 
L 368.389705 491.797287 
L 368.609338 415.743645 
L 368.82897 436.854774 
L 369.048602 398.623491 
L 369.268235 411.378885 
L 369.487867 491.273296 
L 369.707499 449.911306 
L 369.927131 460.976453 
L 370.366396 504.382573 
L 370.805661 369.29852 
L 371.025293 474.727971 
L 371.244925 480.034796 
L 371.464557 443.311554 
L 371.68419 444.85425 
L 371.903822 409.688566 
L 372.343087 483.414653 
L 372.562719 476.857969 
L 372.782351 392.077414 
L 373.001983 523.492591 
L 373.441248 443.157514 
L 373.66088 484.846504 
L 373.880513 454.873477 
L 374.100145 397.999861 
L 374.319777 417.000832 
L 374.539409 504.015776 
L 374.759042 471.56122 
L 374.978674 369.001602 
L 375.198306 527.458674 
L 375.417939 509.097562 
L 375.637571 458.162659 
L 375.857203 444.331531 
L 376.076835 447.898501 
L 376.296468 448.857921 
L 376.5161 482.889209 
L 376.735732 488.855641 
L 376.955365 513.516038 
L 377.174997 447.463621 
L 377.394629 330.833864 
L 377.614261 324.113807 
L 378.053526 433.749995 
L 378.273158 406.904189 
L 378.492791 416.499771 
L 378.712423 473.059788 
L 378.932055 385.637132 
L 379.151687 425.617816 
L 379.37132 537.390557 
L 379.590952 469.464738 
L 379.810584 461.505749 
L 380.249849 337.371369 
L 380.908746 513.502166 
L 381.128378 427.814749 
L 381.34801 519.85503 
L 381.567642 463.710824 
L 381.787275 476.307113 
L 382.006907 361.415416 
L 382.226539 540.521736 
L 382.446172 381.590584 
L 382.665804 500.048886 
L 382.885436 428.895823 
L 383.105068 460.071924 
L 383.324701 366.152899 
L 383.544333 411.016345 
L 383.763965 386.150631 
L 384.20323 500.633393 
L 384.422862 435.35204 
L 384.642494 465.625428 
L 384.862127 434.32759 
L 385.081759 439.321647 
L 385.301391 488.672171 
L 385.521024 439.524394 
L 385.740656 318.434233 
L 385.960288 407.873101 
L 386.17992 448.541029 
L 386.399553 421.892159 
L 386.619185 443.387821 
L 386.838817 403.147649 
L 387.05845 309.035648 
L 387.278082 467.336997 
L 387.497714 413.950817 
L 387.717346 480.627125 
L 387.936979 435.264066 
L 388.156611 467.101207 
L 388.376243 352.105282 
L 388.595876 464.901074 
L 388.815508 387.212861 
L 389.03514 475.032895 
L 389.254772 505.106709 
L 389.474405 332.317001 
L 389.694037 492.951213 
L 389.913669 387.867369 
L 390.133302 454.859308 
L 390.352934 319.453526 
L 390.792198 337.800326 
L 391.011831 424.383245 
L 391.231463 444.151769 
L 391.451095 445.535323 
L 391.670728 460.571748 
L 391.89036 444.811422 
L 392.109992 450.780538 
L 392.329624 433.290746 
L 392.549257 397.36618 
L 392.988521 451.702356 
L 393.208154 518.479851 
L 393.427786 441.504297 
L 393.647418 413.849199 
L 393.86705 482.570124 
L 394.086683 391.637709 
L 394.306315 351.68675 
L 394.525947 477.204211 
L 394.745579 506.476449 
L 394.965212 448.392874 
L 395.184844 449.250363 
L 395.404476 497.29686 
L 395.843741 438.57679 
L 396.063373 504.28496 
L 396.502638 402.218876 
L 396.72227 399.766404 
L 397.161535 468.793265 
L 397.381167 440.860092 
L 397.600799 430.210401 
L 397.820431 485.933601 
L 398.040064 450.218631 
L 398.259696 510.365239 
L 398.479328 406.111747 
L 398.698961 550.706536 
L 398.918593 469.442388 
L 399.138225 528.733606 
L 399.357857 465.402831 
L 399.57749 457.981724 
L 399.797122 385.470014 
L 400.016754 483.102334 
L 400.236387 457.25003 
L 400.456019 471.03176 
L 400.675651 379.935608 
L 400.895283 518.887468 
L 401.114916 408.231628 
L 401.334548 440.365194 
L 401.55418 447.930576 
L 401.773813 406.34567 
L 401.993445 524.437466 
L 402.213077 319.12316 
L 402.432709 528.003613 
L 402.652342 408.140568 
L 402.871974 480.353288 
L 403.091606 450.890436 
L 403.311239 520.780685 
L 403.750503 364.246284 
L 404.189768 501.592613 
L 404.4094 412.452573 
L 404.629032 441.487817 
L 404.848665 439.758367 
L 405.068297 467.220987 
L 405.287929 376.604344 
L 405.727194 504.124325 
L 405.946826 443.316542 
L 406.166458 475.24418 
L 406.386091 341.472502 
L 406.605723 525.194464 
L 406.825355 557.956435 
L 407.26462 497.046518 
L 407.484252 365.750684 
L 407.703884 388.788199 
L 407.923517 396.878807 
L 408.143149 439.287724 
L 408.362781 448.629049 
L 408.582413 500.502703 
L 408.802046 417.51937 
L 409.021678 415.844398 
L 409.460943 524.511644 
L 409.680575 395.761731 
L 409.900207 460.241979 
L 410.339472 340.966523 
L 410.778736 440.343601 
L 410.998368 491.541929 
L 411.218001 408.49823 
L 411.657265 491.465026 
L 411.876898 448.829347 
L 412.09653 468.364449 
L 412.316162 462.236692 
L 412.535794 445.632728 
L 412.755427 495.268762 
L 412.975059 467.431895 
L 413.633956 525.867013 
L 413.853588 383.789129 
L 414.07322 488.648448 
L 414.292853 494.023221 
L 414.512485 539.622253 
L 414.732117 427.358262 
L 414.95175 544.081272 
L 415.171382 470.693906 
L 415.391014 485.040877 
L 415.610646 368.931114 
L 415.830279 394.64096 
L 416.049911 449.069154 
L 416.269543 540.153259 
L 416.708808 361.656939 
L 417.148072 418.710139 
L 417.367705 527.263392 
L 417.587337 487.069999 
L 417.806969 338.21075 
L 418.026602 460.807457 
L 418.246234 517.287027 
L 418.465866 483.279596 
L 418.685498 499.974335 
L 418.905131 557.291183 
L 419.124763 490.240323 
L 419.344395 515.094076 
L 419.564028 408.297897 
L 419.78366 372.047884 
L 420.003292 460.668274 
L 420.222924 421.771108 
L 420.442557 487.920606 
L 420.662189 484.09212 
L 420.881821 462.421909 
L 421.101454 498.321219 
L 421.321086 488.521768 
L 421.540718 450.809027 
L 421.76035 449.801266 
L 421.979983 405.39972 
L 422.199615 131.763818 
L 422.419247 415.435566 
L 422.63888 440.555238 
L 422.858512 350.993278 
L 423.078144 504.803446 
L 423.517409 428.638103 
L 423.737041 401.055517 
L 424.395938 486.74049 
L 424.61557 353.109752 
L 424.835202 455.558103 
L 425.054835 488.232557 
L 425.274467 473.403846 
L 425.494099 432.272385 
L 425.713731 484.331345 
L 425.933364 508.154054 
L 426.152996 513.187114 
L 426.372628 484.102915 
L 426.592261 490.579819 
L 426.811893 316.519405 
L 427.031525 396.998875 
L 427.251157 407.569172 
L 427.47079 456.801356 
L 427.690422 449.15186 
L 427.910054 468.46111 
L 428.129687 446.641906 
L 428.349319 474.167115 
L 428.568951 456.373426 
L 428.788583 377.661728 
L 429.008216 477.568816 
L 429.227848 473.701384 
L 429.44748 423.291051 
L 429.667113 426.457707 
L 429.886745 380.068637 
L 430.106377 521.1923 
L 430.326009 460.246342 
L 430.545642 474.501268 
L 430.765274 509.912054 
L 431.204539 290.446276 
L 431.424171 488.945729 
L 431.643803 357.467398 
L 431.863435 505.445291 
L 432.3027 441.758551 
L 432.522332 376.25152 
L 432.741965 389.925145 
L 432.961597 365.420325 
L 433.181229 471.767864 
L 433.400861 477.972511 
L 433.620494 459.713894 
L 433.840126 336.979155 
L 434.059758 481.326706 
L 434.279391 484.179595 
L 434.499023 370.914345 
L 434.718655 468.779822 
L 434.938287 449.78244 
L 435.15792 322.410971 
L 435.377552 463.734799 
L 435.597184 432.4609 
L 435.816817 523.612379 
L 436.036449 390.316716 
L 436.256081 495.369191 
L 436.475713 440.227577 
L 436.695346 430.21688 
L 436.914978 501.836989 
L 437.13461 399.335228 
L 437.354243 420.162422 
L 437.573875 476.244947 
L 437.793507 336.986619 
L 438.232772 473.793992 
L 438.452404 493.624204 
L 438.672036 428.481725 
L 439.111301 498.193615 
L 439.330933 395.568981 
L 439.550565 434.412153 
L 439.770198 383.781682 
L 439.98983 442.535218 
L 440.209462 400.660527 
L 440.429094 435.434979 
L 440.648727 449.931004 
L 440.868359 511.809145 
L 441.087991 483.054384 
L 441.307624 496.038783 
L 441.527256 394.816794 
L 441.746888 432.949464 
L 441.96652 437.361512 
L 442.186153 458.249526 
L 442.405785 465.37558 
L 442.625417 458.728795 
L 442.84505 486.946485 
L 443.064682 463.943735 
L 443.284314 474.293196 
L 443.503946 542.463432 
L 443.723579 457.879628 
L 443.943211 458.979854 
L 444.162843 472.288639 
L 444.382476 436.566723 
L 444.602108 472.07276 
L 444.82174 463.927515 
L 445.041372 368.863278 
L 445.261005 500.891801 
L 445.919902 409.425094 
L 446.139534 485.159635 
L 446.359166 374.443097 
L 446.578798 477.692495 
L 446.798431 515.39853 
L 447.018063 508.171462 
L 447.237695 368.678618 
L 447.457328 476.67633 
L 447.67696 369.340906 
L 447.896592 496.526202 
L 448.116224 459.532472 
L 448.335857 344.804242 
L 448.555489 295.488318 
L 448.994754 499.237265 
L 449.214386 370.089403 
L 449.434018 346.671066 
L 449.65365 478.251295 
L 449.873283 500.173069 
L 450.092915 336.060515 
L 450.312547 444.375766 
L 450.53218 442.400442 
L 450.751812 426.62765 
L 450.971444 524.823679 
L 451.191076 326.907701 
L 451.410709 433.635104 
L 451.849973 395.694728 
L 452.069606 316.667182 
L 452.289238 482.349861 
L 452.728502 359.537797 
L 452.948135 341.099388 
L 453.167767 471.963295 
L 453.387399 462.610002 
L 453.607032 511.519623 
L 453.826664 432.209507 
L 454.046296 430.335645 
L 454.265928 501.948793 
L 454.485561 336.510478 
L 454.705193 523.7463 
L 454.924825 349.201714 
L 455.144458 407.993535 
L 455.36409 522.343609 
L 455.583722 382.026446 
L 455.803354 328.12219 
L 456.022987 440.89434 
L 456.242619 307.479028 
L 456.681883 515.54573 
L 457.34078 406.742553 
L 457.560413 473.049601 
L 457.780045 401.752687 
L 457.999677 468.489613 
L 458.219309 466.595659 
L 458.658574 402.90405 
L 458.878206 434.439977 
L 459.097839 407.474391 
L 459.317471 306.556666 
L 459.756735 534.732161 
L 460.196 452.695721 
L 460.415632 448.714838 
L 460.854897 500.01073 
L 461.074529 466.685569 
L 461.294161 392.036002 
L 461.513794 481.875929 
L 461.733426 504.830913 
L 461.953058 485.973778 
L 462.172691 476.716916 
L 462.392323 436.553219 
L 462.611955 500.196246 
L 462.831587 413.460754 
L 463.05122 433.222697 
L 463.270852 488.132447 
L 463.490484 414.081464 
L 463.710117 444.548123 
L 464.369013 346.558151 
L 464.588646 412.011043 
L 464.808278 409.854001 
L 465.02791 474.283037 
L 465.247543 500.005967 
L 465.467175 400.181494 
L 465.686807 432.67505 
L 465.906439 484.458975 
L 466.126072 469.260399 
L 466.345704 426.560839 
L 466.565336 523.722722 
L 466.784969 482.955233 
L 467.004601 408.948787 
L 467.224233 496.535345 
L 467.443865 448.335172 
L 467.663498 507.218991 
L 467.88313 444.136149 
L 468.102762 469.033438 
L 468.322395 479.562454 
L 468.542027 476.97689 
L 468.761659 489.165115 
L 468.981291 436.933994 
L 469.200924 504.339138 
L 469.420556 448.529481 
L 469.640188 459.328371 
L 469.859821 489.5894 
L 470.079453 466.687113 
L 470.299085 486.9128 
L 470.518717 521.081212 
L 470.73835 420.42831 
L 470.957982 392.467841 
L 471.177614 478.471162 
L 471.397246 392.621803 
L 471.616879 400.017699 
L 471.836511 344.27337 
L 472.056143 503.313846 
L 472.275776 347.256501 
L 472.495408 433.22852 
L 472.71504 361.773131 
L 472.934672 466.684875 
L 473.154305 490.827747 
L 473.373937 546.84596 
L 473.813202 376.650531 
L 474.032834 408.920136 
L 474.252466 350.065329 
L 474.472098 483.483667 
L 474.691731 396.593457 
L 475.130995 519.163754 
L 475.350628 429.290815 
L 475.57026 288.748394 
L 475.789892 453.642755 
L 476.009524 407.747171 
L 476.229157 464.433669 
L 476.668421 383.085499 
L 476.888054 420.998381 
L 477.107686 429.564227 
L 477.327318 365.502937 
L 477.54695 506.141345 
L 477.766583 456.98185 
L 477.986215 486.594404 
L 478.205847 414.744724 
L 478.42548 410.373262 
L 478.645112 467.71842 
L 478.864744 398.941104 
L 479.084376 510.7238 
L 479.304009 522.501858 
L 479.523641 447.031745 
L 479.743273 465.070729 
L 479.962906 376.338174 
L 480.40217 437.389991 
L 480.621802 365.400374 
L 480.841435 488.744679 
L 481.061067 492.101385 
L 481.500332 392.259115 
L 481.719964 376.190896 
L 481.939596 487.373091 
L 482.159228 436.298433 
L 482.378861 469.368329 
L 482.598493 404.983753 
L 483.037758 499.07519 
L 483.25739 534.467227 
L 483.696654 317.157888 
L 483.916287 368.208724 
L 484.135919 498.152378 
L 484.355551 488.501316 
L 484.575184 527.44795 
L 485.014448 427.393266 
L 485.23408 430.401575 
L 485.673345 532.860207 
L 485.892977 403.799807 
L 486.11261 545.07167 
L 486.332242 321.679067 
L 486.551874 451.366528 
L 486.771506 450.461657 
L 486.991139 306.727965 
L 487.210771 451.611217 
L 487.430403 389.652376 
L 487.650035 509.212441 
L 487.869668 426.468802 
L 488.0893 403.03021 
L 488.308932 334.960556 
L 488.528565 393.873743 
L 488.748197 318.656954 
L 488.967829 486.959719 
L 489.187461 254.837973 
L 489.626726 522.175967 
L 489.846358 312.625521 
L 490.065991 349.687716 
L 490.285623 433.853636 
L 490.505255 425.984572 
L 490.724887 365.023411 
L 490.94452 499.738761 
L 491.164152 436.799725 
L 491.383784 436.4162 
L 491.603417 462.92792 
L 491.823049 521.176391 
L 492.042681 535.041835 
L 492.262313 502.674927 
L 492.481946 449.175289 
L 492.701578 514.884582 
L 492.92121 474.687241 
L 493.360475 338.745113 
L 493.580107 450.319501 
L 493.799739 461.163919 
L 494.019372 452.701527 
L 494.239004 533.229648 
L 494.458636 442.203213 
L 494.678269 492.948701 
L 494.897901 418.370018 
L 495.117533 498.728204 
L 495.337165 460.122256 
L 495.556798 335.528568 
L 495.996062 506.35083 
L 496.215695 435.463262 
L 496.435327 424.694586 
L 496.654959 489.504613 
L 496.874591 471.215817 
L 497.094224 428.849459 
L 497.313856 417.359253 
L 497.533488 441.706741 
L 497.753121 487.322806 
L 497.972753 404.890544 
L 498.192385 523.674551 
L 498.412017 448.284768 
L 498.63165 493.670074 
L 498.851282 405.639841 
L 499.070914 502.808621 
L 499.290547 293.617597 
L 499.510179 497.272437 
L 499.729811 391.430126 
L 499.949443 537.271372 
L 500.388708 446.03452 
L 500.60834 447.632019 
L 500.827973 501.347762 
L 501.047605 440.603087 
L 501.267237 551.952949 
L 501.926134 380.03449 
L 502.145766 472.59514 
L 502.585031 515.720041 
L 503.024295 435.84664 
L 503.243928 321.496455 
L 503.46356 453.532697 
L 503.683192 434.715297 
L 504.122457 470.186831 
L 504.342089 401.584594 
L 504.561721 435.718849 
L 505.000986 472.931794 
L 505.220618 429.219135 
L 505.44025 502.574549 
L 505.659883 393.979221 
L 505.879515 473.207937 
L 506.099147 362.014599 
L 506.31878 438.361155 
L 506.538412 358.280266 
L 506.758044 497.141518 
L 506.977676 510.06653 
L 507.197309 532.125452 
L 507.416941 511.710624 
L 507.636573 532.701985 
L 507.856206 436.843658 
L 508.075838 474.544288 
L 508.29547 431.637165 
L 508.515102 435.713769 
L 508.734735 365.019698 
L 508.954367 405.538815 
L 509.173999 393.505327 
L 509.393632 356.126962 
L 509.832896 498.036179 
L 510.052528 544.162748 
L 510.272161 483.495952 
L 510.491793 513.849034 
L 510.711425 454.200057 
L 510.931058 484.962447 
L 511.15069 381.349873 
L 511.370322 480.677513 
L 511.589954 444.435673 
L 511.809587 502.805941 
L 512.029219 485.157247 
L 512.248851 382.677414 
L 512.468484 441.875408 
L 512.688116 429.594402 
L 512.907748 485.870902 
L 513.12738 489.310678 
L 513.347013 417.862063 
L 513.566645 396.111861 
L 514.00591 513.068997 
L 514.445174 452.083338 
L 514.664806 512.233868 
L 515.323703 419.725087 
L 515.543336 334.355272 
L 515.9826 501.106963 
L 516.202232 520.550842 
L 516.421865 387.86557 
L 516.641497 458.844496 
L 516.861129 473.508328 
L 517.080762 421.342474 
L 517.300394 398.275093 
L 517.520026 419.157764 
L 517.739658 388.289154 
L 517.959291 450.132081 
L 518.178923 458.547007 
L 518.398555 418.222755 
L 518.618187 448.379548 
L 518.83782 366.409972 
L 519.057452 482.39705 
L 519.277084 472.111447 
L 519.496717 389.953406 
L 519.716349 363.847817 
L 520.155613 484.62259 
L 520.375246 377.71585 
L 521.034143 468.925793 
L 521.253775 482.91176 
L 521.473407 462.290009 
L 521.693039 518.176871 
L 521.912672 529.633959 
L 522.132304 361.647558 
L 522.351936 509.652649 
L 523.010833 408.442321 
L 523.230465 459.843772 
L 523.450098 458.023152 
L 523.66973 404.047611 
L 523.889362 521.039986 
L 524.108995 495.750306 
L 524.328627 443.863314 
L 524.548259 497.25168 
L 524.767891 423.242117 
L 524.987524 490.540421 
L 525.207156 474.08924 
L 525.426788 324.548637 
L 525.646421 500.412643 
L 525.866053 433.682615 
L 526.085685 524.282614 
L 526.305317 416.888545 
L 526.52495 406.553217 
L 526.744582 380.77758 
L 526.964214 322.159786 
L 527.183847 392.418848 
L 527.403479 407.730821 
L 527.623111 347.87578 
L 527.842743 498.13554 
L 528.062376 397.917662 
L 528.282008 503.216168 
L 528.50164 475.877209 
L 528.721273 357.117609 
L 528.940905 454.376291 
L 529.380169 400.304556 
L 529.599802 360.512625 
L 529.819434 472.782985 
L 530.039066 462.156535 
L 530.258699 433.719729 
L 530.478331 447.613087 
L 530.697963 320.261813 
L 530.917595 458.439644 
L 531.137228 421.926705 
L 531.35686 462.449527 
L 531.796125 431.058737 
L 532.015757 442.68566 
L 532.235389 476.662683 
L 532.455021 483.80739 
L 532.894286 423.725221 
L 533.113918 474.226908 
L 533.33355 439.815389 
L 533.553183 461.234546 
L 533.772815 389.201883 
L 533.992447 469.993114 
L 534.21208 475.885728 
L 534.431712 389.473836 
L 534.651344 426.833678 
L 534.870976 509.889536 
L 535.090609 433.883263 
L 535.310241 440.187759 
L 535.529873 393.880784 
L 535.749506 471.749022 
L 535.969138 477.019543 
L 536.18877 385.386758 
L 536.408402 376.3402 
L 536.847667 479.112331 
L 537.067299 500.178455 
L 537.286932 580.503039 
L 537.506564 436.116808 
L 537.726196 466.200261 
L 537.945828 511.604596 
L 538.165461 405.333665 
L 538.385093 440.902508 
L 538.604725 334.21479 
L 538.824358 460.122776 
L 539.04399 489.087124 
L 539.263622 468.847755 
L 539.483254 421.413587 
L 539.702887 400.145175 
L 540.361784 491.074136 
L 540.581416 423.340431 
L 540.801048 413.284673 
L 541.02068 464.494269 
L 541.240313 380.356589 
L 541.459945 393.900709 
L 541.679577 423.954178 
L 541.89921 540.912767 
L 542.118842 474.834269 
L 542.338474 354.547465 
L 542.558106 428.683555 
L 542.777739 433.030927 
L 542.997371 451.046766 
L 543.217003 529.919807 
L 543.436636 443.720563 
L 543.656268 421.014274 
L 543.8759 506.182528 
L 544.095532 506.554681 
L 544.315165 464.526748 
L 544.534797 476.630901 
L 544.754429 385.591631 
L 544.974062 431.019372 
L 545.193694 397.160693 
L 545.413326 513.738398 
L 545.852591 396.333694 
L 546.072223 414.479722 
L 546.511488 507.942748 
L 546.73112 487.526824 
L 546.950752 540.831991 
L 547.170384 425.386892 
L 547.390017 384.764017 
L 548.048913 504.698589 
L 548.268546 399.864741 
L 548.70781 505.493271 
L 548.927443 393.99416 
L 549.366707 453.491587 
L 549.586339 338.484646 
L 549.805972 470.797708 
L 550.025604 519.162863 
L 550.245236 429.181251 
L 550.464869 404.108773 
L 550.684501 451.004965 
L 551.123765 382.992608 
L 551.343398 485.808183 
L 551.56303 494.079349 
L 551.782662 442.87856 
L 552.002295 431.729237 
L 552.221927 487.015653 
L 552.661191 507.739545 
L 552.880824 431.185027 
L 553.100456 448.608075 
L 553.320088 501.36413 
L 553.539721 472.693931 
L 553.759353 523.699957 
L 553.978985 386.940346 
L 554.198617 471.533082 
L 554.41825 438.333217 
L 554.637882 515.358323 
L 554.857514 444.702377 
L 555.077147 428.284803 
L 555.296779 498.249021 
L 555.516411 437.442388 
L 555.736043 417.187766 
L 555.955676 502.846057 
L 556.614573 445.029238 
L 556.834205 516.149195 
L 557.053837 445.694072 
L 557.273469 533.789839 
L 557.493102 423.803842 
L 557.712734 549.487227 
L 557.932366 424.212439 
L 558.151999 527.674937 
L 558.371631 469.513702 
L 558.591263 440.921942 
L 558.810895 434.882612 
L 559.030528 357.528782 
L 559.25016 495.100939 
L 559.469792 393.979239 
L 559.689425 486.40589 
L 559.909057 474.151194 
L 559.909057 474.151194 
" style="fill:none;stroke:#96c69a;stroke-linecap:round;stroke-width:3;"/>
   </g>
   <g id="line2d_2"/>
   <g id="patch_3">
    <path d="M 98.911875 602.94 
L 98.911875 109.326857 
" style="fill:none;stroke:#262626;stroke-linecap:square;stroke-linejoin:miter;stroke-width:2.5;"/>
   </g>
   <g id="patch_4">
    <path d="M 98.911875 602.94 
L 581.861304 602.94 
" style="fill:none;stroke:#262626;stroke-linecap:square;stroke-linejoin:miter;stroke-width:2.5;"/>
   </g>
   <g id="legend_1">
    <g id="patch_5">
     <path d="M 521.987866 597.94 
L 574.861304 597.94 
Q 576.861304 597.94 576.861304 595.94 
L 576.861304 554.034375 
Q 576.861304 552.034375 574.861304 552.034375 
L 521.987866 552.034375 
Q 519.987866 552.034375 519.987866 554.034375 
L 519.987866 595.94 
Q 519.987866 597.94 521.987866 597.94 
z
" style="fill:#ffffff;opacity:0.8;stroke:#cccccc;stroke-linejoin:miter;stroke-width:2;"/>
    </g>
    <g id="text_16">
     <!-- $n_\tau$ -->
     <g style="fill:#262626;" transform="translate(535.344585 574.270625)scale(0.24 -0.24)">
      <defs>
       <path d="M 3566 2113 
L 3156 0 
L 2578 0 
L 2988 2091 
Q 3016 2238 3031 2350 
Q 3047 2463 3047 2528 
Q 3047 2791 2881 2937 
Q 2716 3084 2419 3084 
Q 1956 3084 1622 2776 
Q 1288 2469 1184 1941 
L 800 0 
L 225 0 
L 903 3500 
L 1478 3500 
L 1363 2950 
Q 1603 3253 1940 3418 
Q 2278 3584 2650 3584 
Q 3113 3584 3367 3334 
Q 3622 3084 3622 2631 
Q 3622 2519 3608 2391 
Q 3594 2263 3566 2113 
z
" id="DejaVuSans-Oblique-6e" transform="scale(0.015625)"/>
       <path d="M 2103 638 
Q 2188 488 2525 488 
L 2800 488 
L 2706 0 
L 2363 0 
Q 1800 0 1600 300 
Q 1403 606 1534 1269 
L 1856 2925 
L 541 2925 
L 653 3500 
L 3881 3500 
L 3769 2925 
L 2444 2925 
L 2113 1234 
Q 2025 781 2103 638 
z
" id="DejaVuSans-Oblique-3c4" transform="scale(0.015625)"/>
      </defs>
      <use xlink:href="#DejaVuSans-Oblique-6e"/>
      <use transform="translate(63.378906 -16.40625)scale(0.7)" xlink:href="#DejaVuSans-Oblique-3c4"/>
     </g>
    </g>
    <g id="line2d_3">
     <path d="M 523.987866 588.360312 
L 543.987866 588.360312 
" style="fill:none;stroke:#96c69a;stroke-linecap:round;stroke-width:3;"/>
    </g>
    <g id="line2d_4"/>
    <g id="text_17">
     <!-- 125 -->
     <g style="fill:#262626;" transform="translate(551.987866 591.860312)scale(0.1 -0.1)">
      <defs>
       <path d="M 750 831 
L 1813 831 
L 1813 3847 
L 722 3622 
L 722 4441 
L 1806 4666 
L 2950 4666 
L 2950 831 
L 4013 831 
L 4013 0 
L 750 0 
L 750 831 
z
" id="DejaVuSans-Bold-31" transform="scale(0.015625)"/>
       <path d="M 1844 884 
L 3897 884 
L 3897 0 
L 506 0 
L 506 884 
L 2209 2388 
Q 2438 2594 2547 2791 
Q 2656 2988 2656 3200 
Q 2656 3528 2436 3728 
Q 2216 3928 1850 3928 
Q 1569 3928 1234 3808 
Q 900 3688 519 3450 
L 519 4475 
Q 925 4609 1322 4679 
Q 1719 4750 2100 4750 
Q 2938 4750 3402 4381 
Q 3866 4013 3866 3353 
Q 3866 2972 3669 2642 
Q 3472 2313 2841 1759 
L 1844 884 
z
" id="DejaVuSans-Bold-32" transform="scale(0.015625)"/>
       <path d="M 678 4666 
L 3669 4666 
L 3669 3781 
L 1638 3781 
L 1638 3059 
Q 1775 3097 1914 3117 
Q 2053 3138 2203 3138 
Q 3056 3138 3531 2711 
Q 4006 2284 4006 1522 
Q 4006 766 3489 337 
Q 2972 -91 2053 -91 
Q 1656 -91 1267 -14 
Q 878 63 494 219 
L 494 1166 
Q 875 947 1217 837 
Q 1559 728 1863 728 
Q 2300 728 2551 942 
Q 2803 1156 2803 1522 
Q 2803 1891 2551 2103 
Q 2300 2316 1863 2316 
Q 1603 2316 1309 2248 
Q 1016 2181 678 2041 
L 678 4666 
z
" id="DejaVuSans-Bold-35" transform="scale(0.015625)"/>
      </defs>
      <use xlink:href="#DejaVuSans-Bold-31"/>
      <use x="69.580078" xlink:href="#DejaVuSans-Bold-32"/>
      <use x="139.160156" xlink:href="#DejaVuSans-Bold-35"/>
     </g>
    </g>
   </g>
  </g>
  <g id="axes_2">
   <g id="patch_6">
    <path d="M 98.911875 92.305714 
L 581.861304 92.305714 
L 581.861304 7.2 
L 98.911875 7.2 
z
" style="fill:none;"/>
   </g>
   <g id="matplotlib.axis_3">
    <g id="xtick_7"/>
    <g id="xtick_8"/>
    <g id="xtick_9"/>
    <g id="xtick_10"/>
    <g id="xtick_11"/>
    <g id="xtick_12"/>
   </g>
   <g id="matplotlib.axis_4">
    <g id="ytick_8">
     <g id="text_18">
      <!-- 0 -->
      <g style="fill:#262626;" transform="translate(69.414375 100.663996)scale(0.22 -0.22)">
       <use xlink:href="#DejaVuSans-30"/>
      </g>
     </g>
    </g>
    <g id="ytick_9">
     <g id="text_19">
      <!-- 100 -->
      <g style="fill:#262626;" transform="translate(41.419375 48.032138)scale(0.22 -0.22)">
       <use xlink:href="#DejaVuSans-31"/>
       <use x="63.623047" xlink:href="#DejaVuSans-30"/>
       <use x="127.246094" xlink:href="#DejaVuSans-30"/>
      </g>
     </g>
    </g>
   </g>
   <g id="patch_7">
    <path clip-path="url(#pab22d6beef)" d="M 120.864122 92.305714 
L 154.636809 92.305714 
L 154.636809 11.252653 
L 120.864122 11.252653 
z
" style="fill:#96c69a;fill-opacity:0.5;stroke:#ffffff;stroke-linejoin:miter;stroke-width:2;"/>
   </g>
   <g id="patch_8">
    <path clip-path="url(#pab22d6beef)" d="M 154.636809 92.305714 
L 188.409496 92.305714 
L 188.409496 11.252653 
L 154.636809 11.252653 
z
" style="fill:#96c69a;fill-opacity:0.5;stroke:#ffffff;stroke-linejoin:miter;stroke-width:2;"/>
   </g>
   <g id="patch_9">
    <path clip-path="url(#pab22d6beef)" d="M 188.409496 92.305714 
L 222.182184 92.305714 
L 222.182184 11.252653 
L 188.409496 11.252653 
z
" style="fill:#96c69a;fill-opacity:0.5;stroke:#ffffff;stroke-linejoin:miter;stroke-width:2;"/>
   </g>
   <g id="patch_10">
    <path clip-path="url(#pab22d6beef)" d="M 222.182184 92.305714 
L 255.954871 92.305714 
L 255.954871 11.252653 
L 222.182184 11.252653 
z
" style="fill:#96c69a;fill-opacity:0.5;stroke:#ffffff;stroke-linejoin:miter;stroke-width:2;"/>
   </g>
   <g id="patch_11">
    <path clip-path="url(#pab22d6beef)" d="M 255.954871 92.305714 
L 289.727558 92.305714 
L 289.727558 11.778972 
L 255.954871 11.778972 
z
" style="fill:#96c69a;fill-opacity:0.5;stroke:#ffffff;stroke-linejoin:miter;stroke-width:2;"/>
   </g>
   <g id="patch_12">
    <path clip-path="url(#pab22d6beef)" d="M 289.727558 92.305714 
L 323.500246 92.305714 
L 323.500246 11.252653 
L 289.727558 11.252653 
z
" style="fill:#96c69a;fill-opacity:0.5;stroke:#ffffff;stroke-linejoin:miter;stroke-width:2;"/>
   </g>
   <g id="patch_13">
    <path clip-path="url(#pab22d6beef)" d="M 323.500246 92.305714 
L 357.272933 92.305714 
L 357.272933 11.252653 
L 323.500246 11.252653 
z
" style="fill:#96c69a;fill-opacity:0.5;stroke:#ffffff;stroke-linejoin:miter;stroke-width:2;"/>
   </g>
   <g id="patch_14">
    <path clip-path="url(#pab22d6beef)" d="M 357.272933 92.305714 
L 391.04562 92.305714 
L 391.04562 11.252653 
L 357.272933 11.252653 
z
" style="fill:#96c69a;fill-opacity:0.5;stroke:#ffffff;stroke-linejoin:miter;stroke-width:2;"/>
   </g>
   <g id="patch_15">
    <path clip-path="url(#pab22d6beef)" d="M 391.04562 92.305714 
L 424.818308 92.305714 
L 424.818308 11.778972 
L 391.04562 11.778972 
z
" style="fill:#96c69a;fill-opacity:0.5;stroke:#ffffff;stroke-linejoin:miter;stroke-width:2;"/>
   </g>
   <g id="patch_16">
    <path clip-path="url(#pab22d6beef)" d="M 424.818308 92.305714 
L 458.590995 92.305714 
L 458.590995 11.252653 
L 424.818308 11.252653 
z
" style="fill:#96c69a;fill-opacity:0.5;stroke:#ffffff;stroke-linejoin:miter;stroke-width:2;"/>
   </g>
   <g id="patch_17">
    <path clip-path="url(#pab22d6beef)" d="M 458.590995 92.305714 
L 492.363682 92.305714 
L 492.363682 11.252653 
L 458.590995 11.252653 
z
" style="fill:#96c69a;fill-opacity:0.5;stroke:#ffffff;stroke-linejoin:miter;stroke-width:2;"/>
   </g>
   <g id="patch_18">
    <path clip-path="url(#pab22d6beef)" d="M 492.363682 92.305714 
L 526.13637 92.305714 
L 526.13637 11.252653 
L 492.363682 11.252653 
z
" style="fill:#96c69a;fill-opacity:0.5;stroke:#ffffff;stroke-linejoin:miter;stroke-width:2;"/>
   </g>
   <g id="patch_19">
    <path clip-path="url(#pab22d6beef)" d="M 526.13637 92.305714 
L 559.909057 92.305714 
L 559.909057 11.252653 
L 526.13637 11.252653 
z
" style="fill:#96c69a;fill-opacity:0.5;stroke:#ffffff;stroke-linejoin:miter;stroke-width:2;"/>
   </g>
   <g id="patch_20">
    <path d="M 98.911875 92.305714 
L 98.911875 7.2 
" style="fill:none;stroke:#262626;stroke-linecap:square;stroke-linejoin:miter;stroke-width:2.5;"/>
   </g>
   <g id="patch_21">
    <path d="M 98.911875 92.305714 
L 581.861304 92.305714 
" style="fill:none;stroke:#262626;stroke-linecap:square;stroke-linejoin:miter;stroke-width:2.5;"/>
   </g>
  </g>
  <g id="axes_3">
   <g id="patch_22">
    <path d="M 598.514732 602.94 
L 681.781875 602.94 
L 681.781875 109.326857 
L 598.514732 109.326857 
z
" style="fill:none;"/>
   </g>
   <g id="matplotlib.axis_5">
    <g id="xtick_13">
     <g id="text_20">
      <!-- 0 -->
      <g style="fill:#262626;" transform="translate(591.515982 635.156562)scale(0.22 -0.22)">
       <use xlink:href="#DejaVuSans-30"/>
      </g>
     </g>
    </g>
    <g id="xtick_14">
     <g id="text_21">
      <!-- 100 -->
      <g style="fill:#262626;" transform="translate(621.821298 635.156562)scale(0.22 -0.22)">
       <use xlink:href="#DejaVuSans-31"/>
       <use x="63.623047" xlink:href="#DejaVuSans-30"/>
       <use x="127.246094" xlink:href="#DejaVuSans-30"/>
      </g>
     </g>
    </g>
   </g>
   <g id="matplotlib.axis_6">
    <g id="ytick_10"/>
    <g id="ytick_11"/>
    <g id="ytick_12"/>
    <g id="ytick_13"/>
    <g id="ytick_14"/>
    <g id="ytick_15"/>
    <g id="ytick_16"/>
   </g>
   <g id="patch_23">
    <path clip-path="url(#p76bf9003be)" d="M 598.514732 580.503039 
L 598.95776 580.503039 
L 598.95776 568.694112 
L 598.514732 568.694112 
z
" style="fill:#96c69a;fill-opacity:0.5;stroke:#ffffff;stroke-linejoin:miter;stroke-width:1.180893;"/>
   </g>
   <g id="patch_24">
    <path clip-path="url(#p76bf9003be)" d="M 598.514732 568.694112 
L 601.615929 568.694112 
L 601.615929 556.885185 
L 598.514732 556.885185 
z
" style="fill:#96c69a;fill-opacity:0.5;stroke:#ffffff;stroke-linejoin:miter;stroke-width:1.180893;"/>
   </g>
   <g id="patch_25">
    <path clip-path="url(#p76bf9003be)" d="M 598.514732 556.885185 
L 602.945014 556.885185 
L 602.945014 545.076258 
L 598.514732 545.076258 
z
" style="fill:#96c69a;fill-opacity:0.5;stroke:#ffffff;stroke-linejoin:miter;stroke-width:1.180893;"/>
   </g>
   <g id="patch_26">
    <path clip-path="url(#p76bf9003be)" d="M 598.514732 545.076258 
L 610.033464 545.076258 
L 610.033464 533.267332 
L 598.514732 533.267332 
z
" style="fill:#96c69a;fill-opacity:0.5;stroke:#ffffff;stroke-linejoin:miter;stroke-width:1.180893;"/>
   </g>
   <g id="patch_27">
    <path clip-path="url(#p76bf9003be)" d="M 598.514732 533.267332 
L 628.640647 533.267332 
L 628.640647 521.458405 
L 598.514732 521.458405 
z
" style="fill:#96c69a;fill-opacity:0.5;stroke:#ffffff;stroke-linejoin:miter;stroke-width:1.180893;"/>
   </g>
   <g id="patch_28">
    <path clip-path="url(#p76bf9003be)" d="M 598.514732 521.458405 
L 638.387267 521.458405 
L 638.387267 509.649478 
L 598.514732 509.649478 
z
" style="fill:#96c69a;fill-opacity:0.5;stroke:#ffffff;stroke-linejoin:miter;stroke-width:1.180893;"/>
   </g>
   <g id="patch_29">
    <path clip-path="url(#p76bf9003be)" d="M 598.514732 509.649478 
L 649.462971 509.649478 
L 649.462971 497.840551 
L 598.514732 497.840551 
z
" style="fill:#96c69a;fill-opacity:0.5;stroke:#ffffff;stroke-linejoin:miter;stroke-width:1.180893;"/>
   </g>
   <g id="patch_30">
    <path clip-path="url(#p76bf9003be)" d="M 598.514732 497.840551 
L 656.994449 497.840551 
L 656.994449 486.031624 
L 598.514732 486.031624 
z
" style="fill:#96c69a;fill-opacity:0.5;stroke:#ffffff;stroke-linejoin:miter;stroke-width:1.180893;"/>
   </g>
   <g id="patch_31">
    <path clip-path="url(#p76bf9003be)" d="M 598.514732 486.031624 
L 670.285294 486.031624 
L 670.285294 474.222697 
L 598.514732 474.222697 
z
" style="fill:#96c69a;fill-opacity:0.5;stroke:#ffffff;stroke-linejoin:miter;stroke-width:1.180893;"/>
   </g>
   <g id="patch_32">
    <path clip-path="url(#p76bf9003be)" d="M 598.514732 474.222697 
L 675.158604 474.222697 
L 675.158604 462.41377 
L 598.514732 462.41377 
z
" style="fill:#96c69a;fill-opacity:0.5;stroke:#ffffff;stroke-linejoin:miter;stroke-width:1.180893;"/>
   </g>
   <g id="patch_33">
    <path clip-path="url(#p76bf9003be)" d="M 598.514732 462.41377 
L 677.816773 462.41377 
L 677.816773 450.604843 
L 598.514732 450.604843 
z
" style="fill:#96c69a;fill-opacity:0.5;stroke:#ffffff;stroke-linejoin:miter;stroke-width:1.180893;"/>
   </g>
   <g id="patch_34">
    <path clip-path="url(#p76bf9003be)" d="M 598.514732 450.604843 
L 665.855013 450.604843 
L 665.855013 438.795917 
L 598.514732 438.795917 
z
" style="fill:#96c69a;fill-opacity:0.5;stroke:#ffffff;stroke-linejoin:miter;stroke-width:1.180893;"/>
   </g>
   <g id="patch_35">
    <path clip-path="url(#p76bf9003be)" d="M 598.514732 438.795917 
L 669.842266 438.795917 
L 669.842266 426.98699 
L 598.514732 426.98699 
z
" style="fill:#96c69a;fill-opacity:0.5;stroke:#ffffff;stroke-linejoin:miter;stroke-width:1.180893;"/>
   </g>
   <g id="patch_36">
    <path clip-path="url(#p76bf9003be)" d="M 598.514732 426.98699 
L 660.538675 426.98699 
L 660.538675 415.178063 
L 598.514732 415.178063 
z
" style="fill:#96c69a;fill-opacity:0.5;stroke:#ffffff;stroke-linejoin:miter;stroke-width:1.180893;"/>
   </g>
   <g id="patch_37">
    <path clip-path="url(#p76bf9003be)" d="M 598.514732 415.178063 
L 648.133886 415.178063 
L 648.133886 403.369136 
L 598.514732 403.369136 
z
" style="fill:#96c69a;fill-opacity:0.5;stroke:#ffffff;stroke-linejoin:miter;stroke-width:1.180893;"/>
   </g>
   <g id="patch_38">
    <path clip-path="url(#p76bf9003be)" d="M 598.514732 403.369136 
L 648.576914 403.369136 
L 648.576914 391.560209 
L 598.514732 391.560209 
z
" style="fill:#96c69a;fill-opacity:0.5;stroke:#ffffff;stroke-linejoin:miter;stroke-width:1.180893;"/>
   </g>
   <g id="patch_39">
    <path clip-path="url(#p76bf9003be)" d="M 598.514732 391.560209 
L 634.843041 391.560209 
L 634.843041 379.751282 
L 598.514732 379.751282 
z
" style="fill:#96c69a;fill-opacity:0.5;stroke:#ffffff;stroke-linejoin:miter;stroke-width:1.180893;"/>
   </g>
   <g id="patch_40">
    <path clip-path="url(#p76bf9003be)" d="M 598.514732 379.751282 
L 625.982478 379.751282 
L 625.982478 367.942355 
L 598.514732 367.942355 
z
" style="fill:#96c69a;fill-opacity:0.5;stroke:#ffffff;stroke-linejoin:miter;stroke-width:1.180893;"/>
   </g>
   <g id="patch_41">
    <path clip-path="url(#p76bf9003be)" d="M 598.514732 367.942355 
L 625.096422 367.942355 
L 625.096422 356.133429 
L 598.514732 356.133429 
z
" style="fill:#96c69a;fill-opacity:0.5;stroke:#ffffff;stroke-linejoin:miter;stroke-width:1.180893;"/>
   </g>
   <g id="patch_42">
    <path clip-path="url(#p76bf9003be)" d="M 598.514732 356.133429 
L 614.020718 356.133429 
L 614.020718 344.324502 
L 598.514732 344.324502 
z
" style="fill:#96c69a;fill-opacity:0.5;stroke:#ffffff;stroke-linejoin:miter;stroke-width:1.180893;"/>
   </g>
   <g id="patch_43">
    <path clip-path="url(#p76bf9003be)" d="M 598.514732 344.324502 
L 612.248605 344.324502 
L 612.248605 332.515575 
L 598.514732 332.515575 
z
" style="fill:#96c69a;fill-opacity:0.5;stroke:#ffffff;stroke-linejoin:miter;stroke-width:1.180893;"/>
   </g>
   <g id="patch_44">
    <path clip-path="url(#p76bf9003be)" d="M 598.514732 332.515575 
L 610.919521 332.515575 
L 610.919521 320.706648 
L 598.514732 320.706648 
z
" style="fill:#96c69a;fill-opacity:0.5;stroke:#ffffff;stroke-linejoin:miter;stroke-width:1.180893;"/>
   </g>
   <g id="patch_45">
    <path clip-path="url(#p76bf9003be)" d="M 598.514732 320.706648 
L 609.147408 320.706648 
L 609.147408 308.897721 
L 598.514732 308.897721 
z
" style="fill:#96c69a;fill-opacity:0.5;stroke:#ffffff;stroke-linejoin:miter;stroke-width:1.180893;"/>
   </g>
   <g id="patch_46">
    <path clip-path="url(#p76bf9003be)" d="M 598.514732 308.897721 
L 602.945014 308.897721 
L 602.945014 297.088794 
L 598.514732 297.088794 
z
" style="fill:#96c69a;fill-opacity:0.5;stroke:#ffffff;stroke-linejoin:miter;stroke-width:1.180893;"/>
   </g>
   <g id="patch_47">
    <path clip-path="url(#p76bf9003be)" d="M 598.514732 297.088794 
L 603.83107 297.088794 
L 603.83107 285.279867 
L 598.514732 285.279867 
z
" style="fill:#96c69a;fill-opacity:0.5;stroke:#ffffff;stroke-linejoin:miter;stroke-width:1.180893;"/>
   </g>
   <g id="patch_48">
    <path clip-path="url(#p76bf9003be)" d="M 598.514732 285.279867 
L 600.286845 285.279867 
L 600.286845 273.470941 
L 598.514732 273.470941 
z
" style="fill:#96c69a;fill-opacity:0.5;stroke:#ffffff;stroke-linejoin:miter;stroke-width:1.180893;"/>
   </g>
   <g id="patch_49">
    <path clip-path="url(#p76bf9003be)" d="M 598.514732 273.470941 
L 598.95776 273.470941 
L 598.95776 261.662014 
L 598.514732 261.662014 
z
" style="fill:#96c69a;fill-opacity:0.5;stroke:#ffffff;stroke-linejoin:miter;stroke-width:1.180893;"/>
   </g>
   <g id="patch_50">
    <path clip-path="url(#p76bf9003be)" d="M 598.514732 261.662014 
L 599.400788 261.662014 
L 599.400788 249.853087 
L 598.514732 249.853087 
z
" style="fill:#96c69a;fill-opacity:0.5;stroke:#ffffff;stroke-linejoin:miter;stroke-width:1.180893;"/>
   </g>
   <g id="patch_51">
    <path clip-path="url(#p76bf9003be)" d="M 598.514732 249.853087 
L 599.843817 249.853087 
L 599.843817 238.04416 
L 598.514732 238.04416 
z
" style="fill:#96c69a;fill-opacity:0.5;stroke:#ffffff;stroke-linejoin:miter;stroke-width:1.180893;"/>
   </g>
   <g id="patch_52">
    <path clip-path="url(#p76bf9003be)" d="M 598.514732 238.04416 
L 599.400788 238.04416 
L 599.400788 226.235233 
L 598.514732 226.235233 
z
" style="fill:#96c69a;fill-opacity:0.5;stroke:#ffffff;stroke-linejoin:miter;stroke-width:1.180893;"/>
   </g>
   <g id="patch_53">
    <path clip-path="url(#p76bf9003be)" d="M 598.514732 226.235233 
L 598.514732 226.235233 
L 598.514732 214.426306 
L 598.514732 214.426306 
z
" style="fill:#96c69a;fill-opacity:0.5;stroke:#ffffff;stroke-linejoin:miter;stroke-width:1.180893;"/>
   </g>
   <g id="patch_54">
    <path clip-path="url(#p76bf9003be)" d="M 598.514732 214.426306 
L 598.514732 214.426306 
L 598.514732 202.617379 
L 598.514732 202.617379 
z
" style="fill:#96c69a;fill-opacity:0.5;stroke:#ffffff;stroke-linejoin:miter;stroke-width:1.180893;"/>
   </g>
   <g id="patch_55">
    <path clip-path="url(#p76bf9003be)" d="M 598.514732 202.617379 
L 598.95776 202.617379 
L 598.95776 190.808452 
L 598.514732 190.808452 
z
" style="fill:#96c69a;fill-opacity:0.5;stroke:#ffffff;stroke-linejoin:miter;stroke-width:1.180893;"/>
   </g>
   <g id="patch_56">
    <path clip-path="url(#p76bf9003be)" d="M 598.514732 190.808452 
L 598.95776 190.808452 
L 598.95776 178.999526 
L 598.514732 178.999526 
z
" style="fill:#96c69a;fill-opacity:0.5;stroke:#ffffff;stroke-linejoin:miter;stroke-width:1.180893;"/>
   </g>
   <g id="patch_57">
    <path clip-path="url(#p76bf9003be)" d="M 598.514732 178.999526 
L 598.514732 178.999526 
L 598.514732 167.190599 
L 598.514732 167.190599 
z
" style="fill:#96c69a;fill-opacity:0.5;stroke:#ffffff;stroke-linejoin:miter;stroke-width:1.180893;"/>
   </g>
   <g id="patch_58">
    <path clip-path="url(#p76bf9003be)" d="M 598.514732 167.190599 
L 598.514732 167.190599 
L 598.514732 155.381672 
L 598.514732 155.381672 
z
" style="fill:#96c69a;fill-opacity:0.5;stroke:#ffffff;stroke-linejoin:miter;stroke-width:1.180893;"/>
   </g>
   <g id="patch_59">
    <path clip-path="url(#p76bf9003be)" d="M 598.514732 155.381672 
L 598.514732 155.381672 
L 598.514732 143.572745 
L 598.514732 143.572745 
z
" style="fill:#96c69a;fill-opacity:0.5;stroke:#ffffff;stroke-linejoin:miter;stroke-width:1.180893;"/>
   </g>
   <g id="patch_60">
    <path clip-path="url(#p76bf9003be)" d="M 598.514732 143.572745 
L 598.95776 143.572745 
L 598.95776 131.763818 
L 598.514732 131.763818 
z
" style="fill:#96c69a;fill-opacity:0.5;stroke:#ffffff;stroke-linejoin:miter;stroke-width:1.180893;"/>
   </g>
   <g id="patch_61">
    <path d="M 598.514732 602.94 
L 598.514732 109.326857 
" style="fill:none;stroke:#262626;stroke-linecap:square;stroke-linejoin:miter;stroke-width:2.5;"/>
   </g>
   <g id="patch_62">
    <path d="M 598.514732 602.94 
L 681.781875 602.94 
" style="fill:none;stroke:#262626;stroke-linecap:square;stroke-linejoin:miter;stroke-width:2.5;"/>
   </g>
  </g>
 </g>
 <defs>
  <clipPath id="p39c35e2201">
   <rect height="493.613143" width="482.949429" x="98.911875" y="109.326857"/>
  </clipPath>
  <clipPath id="pab22d6beef">
   <rect height="85.105714" width="482.949429" x="98.911875" y="7.2"/>
  </clipPath>
  <clipPath id="p76bf9003be">
   <rect height="493.613143" width="83.267143" x="598.514732" y="109.326857"/>
  </clipPath>
 </defs>
</svg>
