<?xml version="1.0" encoding="utf-8" standalone="no"?>
<!DOCTYPE svg PUBLIC "-//W3C//DTD SVG 1.1//EN"
  "http://www.w3.org/Graphics/SVG/1.1/DTD/svg11.dtd">
<svg height="311.267375pt" version="1.1" viewBox="0 0 353.568896 311.267375" width="353.568896pt" xmlns="http://www.w3.org/2000/svg" xmlns:xlink="http://www.w3.org/1999/xlink">
 <metadata>
  <rdf:RDF xmlns:cc="http://creativecommons.org/ns#" xmlns:dc="http://purl.org/dc/elements/1.1/" xmlns:rdf="http://www.w3.org/1999/02/22-rdf-syntax-ns#">
   <cc:Work>
    <dc:type rdf:resource="http://purl.org/dc/dcmitype/StillImage"/>
    <dc:date>2021-07-24T15:31:05.584891</dc:date>
    <dc:format>image/svg+xml</dc:format>
    <dc:creator>
     <cc:Agent>
      <dc:title>Matplotlib v3.4.2, https://matplotlib.org/</dc:title>
     </cc:Agent>
    </dc:creator>
   </cc:Work>
  </rdf:RDF>
 </metadata>
 <defs>
  <style type="text/css">*{stroke-linecap:butt;stroke-linejoin:round;}</style>
 </defs>
 <g id="figure_1">
  <g id="patch_1">
   <path d="M 0 311.267375 
L 353.568896 311.267375 
L 353.568896 0 
L 0 0 
z
" style="fill:#ffffff;"/>
  </g>
  <g id="axes_1">
   <g id="patch_2">
    <path d="M 11.568896 49.536 
L 346.368896 49.536 
L 346.368896 7.2 
L 11.568896 7.2 
z
" style="fill:none;"/>
   </g>
   <g id="matplotlib.axis_1">
    <g id="xtick_1"/>
    <g id="xtick_2"/>
    <g id="xtick_3"/>
   </g>
   <g id="matplotlib.axis_2"/>
   <g id="PolyCollection_1">
    <defs>
     <path d="M 54.678692 -261.733272 
L 54.678692 -261.731375 
L 55.236625 -261.731375 
L 55.794559 -261.731375 
L 56.352492 -261.731375 
L 56.910426 -261.731375 
L 57.468359 -261.731375 
L 58.026293 -261.731375 
L 58.584226 -261.731375 
L 59.14216 -261.731375 
L 59.700093 -261.731375 
L 60.258027 -261.731375 
L 60.815961 -261.731375 
L 61.373894 -261.731375 
L 61.931828 -261.731375 
L 62.489761 -261.731375 
L 63.047695 -261.731375 
L 63.605628 -261.731375 
L 64.163562 -261.731375 
L 64.721495 -261.731375 
L 65.279429 -261.731375 
L 65.837362 -261.731375 
L 66.395296 -261.731375 
L 66.953229 -261.731375 
L 67.511163 -261.731375 
L 68.069097 -261.731375 
L 68.62703 -261.731375 
L 69.184964 -261.731375 
L 69.742897 -261.731375 
L 70.300831 -261.731375 
L 70.858764 -261.731375 
L 71.416698 -261.731375 
L 71.974631 -261.731375 
L 72.532565 -261.731375 
L 73.090498 -261.731375 
L 73.648432 -261.731375 
L 74.206365 -261.731375 
L 74.764299 -261.731375 
L 75.322233 -261.731375 
L 75.880166 -261.731375 
L 76.4381 -261.731375 
L 76.996033 -261.731375 
L 77.553967 -261.731375 
L 78.1119 -261.731375 
L 78.669834 -261.731375 
L 79.227767 -261.731375 
L 79.785701 -261.731375 
L 80.343634 -261.731375 
L 80.901568 -261.731375 
L 81.459501 -261.731375 
L 82.017435 -261.731375 
L 82.575369 -261.731375 
L 83.133302 -261.731375 
L 83.691236 -261.731375 
L 84.249169 -261.731375 
L 84.807103 -261.731375 
L 85.365036 -261.731375 
L 85.92297 -261.731375 
L 86.480903 -261.731375 
L 87.038837 -261.731375 
L 87.59677 -261.731375 
L 88.154704 -261.731375 
L 88.712637 -261.731375 
L 89.270571 -261.731375 
L 89.828505 -261.731375 
L 90.386438 -261.731375 
L 90.944372 -261.731375 
L 91.502305 -261.731375 
L 92.060239 -261.731375 
L 92.618172 -261.731375 
L 93.176106 -261.731375 
L 93.734039 -261.731375 
L 94.291973 -261.731375 
L 94.849906 -261.731375 
L 95.40784 -261.731375 
L 95.965773 -261.731375 
L 96.523707 -261.731375 
L 97.081641 -261.731375 
L 97.639574 -261.731375 
L 98.197508 -261.731375 
L 98.755441 -261.731375 
L 99.313375 -261.731375 
L 99.871308 -261.731375 
L 100.429242 -261.731375 
L 100.987175 -261.731375 
L 101.545109 -261.731375 
L 102.103042 -261.731375 
L 102.660976 -261.731375 
L 103.218909 -261.731375 
L 103.776843 -261.731375 
L 104.334777 -261.731375 
L 104.89271 -261.731375 
L 105.450644 -261.731375 
L 106.008577 -261.731375 
L 106.566511 -261.731375 
L 107.124444 -261.731375 
L 107.682378 -261.731375 
L 108.240311 -261.731375 
L 108.798245 -261.731375 
L 109.356178 -261.731375 
L 109.914112 -261.731375 
L 110.472045 -261.731375 
L 111.029979 -261.731375 
L 111.587913 -261.731375 
L 112.145846 -261.731375 
L 112.70378 -261.731375 
L 113.261713 -261.731375 
L 113.819647 -261.731375 
L 114.37758 -261.731375 
L 114.935514 -261.731375 
L 115.493447 -261.731375 
L 116.051381 -261.731375 
L 116.609314 -261.731375 
L 117.167248 -261.731375 
L 117.725182 -261.731375 
L 118.283115 -261.731375 
L 118.841049 -261.731375 
L 119.398982 -261.731375 
L 119.956916 -261.731375 
L 120.514849 -261.731375 
L 121.072783 -261.731375 
L 121.630716 -261.731375 
L 122.18865 -261.731375 
L 122.746583 -261.731375 
L 123.304517 -261.731375 
L 123.86245 -261.731375 
L 124.420384 -261.731375 
L 124.978318 -261.731375 
L 125.536251 -261.731375 
L 126.094185 -261.731375 
L 126.652118 -261.731375 
L 127.210052 -261.731375 
L 127.767985 -261.731375 
L 128.325919 -261.731375 
L 128.883852 -261.731375 
L 129.441786 -261.731375 
L 129.999719 -261.731375 
L 130.557653 -261.731375 
L 131.115586 -261.731375 
L 131.67352 -261.731375 
L 132.231454 -261.731375 
L 132.789387 -261.731375 
L 133.347321 -261.731375 
L 133.905254 -261.731375 
L 134.463188 -261.731375 
L 135.021121 -261.731375 
L 135.579055 -261.731375 
L 136.136988 -261.731375 
L 136.694922 -261.731375 
L 137.252855 -261.731375 
L 137.810789 -261.731375 
L 138.368722 -261.731375 
L 138.926656 -261.731375 
L 139.48459 -261.731375 
L 140.042523 -261.731375 
L 140.600457 -261.731375 
L 141.15839 -261.731375 
L 141.716324 -261.731375 
L 142.274257 -261.731375 
L 142.832191 -261.731375 
L 143.390124 -261.731375 
L 143.948058 -261.731375 
L 144.505991 -261.731375 
L 145.063925 -261.731375 
L 145.621858 -261.731375 
L 146.179792 -261.731375 
L 146.737726 -261.731375 
L 147.295659 -261.731375 
L 147.853593 -261.731375 
L 148.411526 -261.731375 
L 148.96946 -261.731375 
L 149.527393 -261.731375 
L 150.085327 -261.731375 
L 150.64326 -261.731375 
L 151.201194 -261.731375 
L 151.759127 -261.731375 
L 152.317061 -261.731375 
L 152.874994 -261.731375 
L 153.432928 -261.731375 
L 153.990862 -261.731375 
L 154.548795 -261.731375 
L 155.106729 -261.731375 
L 155.664662 -261.731375 
L 156.222596 -261.731375 
L 156.780529 -261.731375 
L 157.338463 -261.731375 
L 157.896396 -261.731375 
L 158.45433 -261.731375 
L 159.012263 -261.731375 
L 159.570197 -261.731375 
L 160.12813 -261.731375 
L 160.686064 -261.731375 
L 161.243998 -261.731375 
L 161.801931 -261.731375 
L 162.359865 -261.731375 
L 162.917798 -261.731375 
L 163.475732 -261.731375 
L 164.033665 -261.731375 
L 164.591599 -261.731375 
L 165.149532 -261.731375 
L 165.707466 -261.731375 
L 165.707466 -261.733223 
L 165.707466 -261.733223 
L 165.149532 -261.736871 
L 164.591599 -261.745431 
L 164.033665 -261.762289 
L 163.475732 -261.789841 
L 162.917798 -261.826458 
L 162.359865 -261.864344 
L 161.801931 -261.891277 
L 161.243998 -261.896726 
L 160.686064 -261.878408 
L 160.12813 -261.843811 
L 159.570197 -261.805353 
L 159.012263 -261.773419 
L 158.45433 -261.752635 
L 157.896396 -261.742911 
L 157.338463 -261.742891 
L 156.780529 -261.752572 
L 156.222596 -261.773309 
L 155.664662 -261.805205 
L 155.106729 -261.843672 
L 154.548795 -261.878394 
L 153.990862 -261.897128 
L 153.432928 -261.892886 
L 152.874994 -261.869205 
L 152.317061 -261.83912 
L 151.759127 -261.818637 
L 151.201194 -261.81944 
L 150.64326 -261.844646 
L 150.085327 -261.888494 
L 149.527393 -261.939266 
L 148.96946 -261.984262 
L 148.411526 -262.014667 
L 147.853593 -262.027941 
L 147.295659 -262.026982 
L 146.737726 -262.017067 
L 146.179792 -262.00203 
L 145.621858 -261.981697 
L 145.063925 -261.952826 
L 144.505991 -261.913509 
L 143.948058 -261.867143 
L 143.390124 -261.822063 
L 142.832191 -261.787634 
L 142.274257 -261.771339 
L 141.716324 -261.779542 
L 141.15839 -261.819761 
L 140.600457 -261.899848 
L 140.042523 -262.022083 
L 139.48459 -262.176036 
L 138.926656 -262.337666 
L 138.368722 -262.478368 
L 137.810789 -262.578402 
L 137.252855 -262.634174 
L 136.694922 -262.654514 
L 136.136988 -262.650922 
L 135.579055 -262.62997 
L 135.021121 -262.591901 
L 134.463188 -262.535171 
L 133.905254 -262.464815 
L 133.347321 -262.39989 
L 132.789387 -262.372509 
L 132.231454 -262.414388 
L 131.67352 -262.5378 
L 131.115586 -262.726247 
L 130.557653 -262.94421 
L 129.999719 -263.158314 
L 129.441786 -263.351926 
L 128.883852 -263.523608 
L 128.325919 -263.677245 
L 127.767985 -263.817856 
L 127.210052 -263.956588 
L 126.652118 -264.115736 
L 126.094185 -264.323844 
L 125.536251 -264.599751 
L 124.978318 -264.933997 
L 124.420384 -265.28312 
L 123.86245 -265.591209 
L 123.304517 -265.834459 
L 122.746583 -266.056307 
L 122.18865 -266.354315 
L 121.630716 -266.814793 
L 121.072783 -267.441756 
L 120.514849 -268.141696 
L 119.956916 -268.782297 
L 119.398982 -269.277972 
L 118.841049 -269.632293 
L 118.283115 -269.909958 
L 117.725182 -270.172645 
L 117.167248 -270.432953 
L 116.609314 -270.654167 
L 116.051381 -270.79132 
L 115.493447 -270.850495 
L 114.935514 -270.927627 
L 114.37758 -271.18461 
L 113.819647 -271.759731 
L 113.261713 -272.67511 
L 112.70378 -273.82213 
L 112.145846 -275.03819 
L 111.587913 -276.201469 
L 111.029979 -277.264128 
L 110.472045 -278.221921 
L 109.914112 -279.080223 
L 109.356178 -279.853675 
L 108.798245 -280.578019 
L 108.240311 -281.30238 
L 107.682378 -282.064607 
L 107.124444 -282.867889 
L 106.566511 -283.665868 
L 106.008577 -284.368589 
L 105.450644 -284.894479 
L 104.89271 -285.257668 
L 104.334777 -285.611416 
L 103.776843 -286.171765 
L 103.218909 -287.059677 
L 102.660976 -288.204057 
L 102.103042 -289.40416 
L 101.545109 -290.494137 
L 100.987175 -291.455997 
L 100.429242 -292.386951 
L 99.871308 -293.368471 
L 99.313375 -294.364989 
L 98.755441 -295.233769 
L 98.197508 -295.815383 
L 97.639574 -296.016799 
L 97.081641 -295.842377 
L 96.523707 -295.392708 
L 95.965773 -294.852145 
L 95.40784 -294.453504 
L 94.849906 -294.416338 
L 94.291973 -294.887549 
L 93.734039 -295.906566 
L 93.176106 -297.384052 
L 92.618172 -299.086812 
L 92.060239 -300.660856 
L 91.502305 -301.730409 
L 90.944372 -302.051375 
L 90.386438 -301.627435 
L 89.828505 -300.697449 
L 89.270571 -299.593209 
L 88.712637 -298.571913 
L 88.154704 -297.742373 
L 87.59677 -297.106687 
L 87.038837 -296.631313 
L 86.480903 -296.260145 
L 85.92297 -295.878311 
L 85.365036 -295.306334 
L 84.807103 -294.37046 
L 84.249169 -293.007858 
L 83.691236 -291.322878 
L 83.133302 -289.545008 
L 82.575369 -287.912108 
L 82.017435 -286.557357 
L 81.459501 -285.473629 
L 80.901568 -284.566068 
L 80.343634 -283.735805 
L 79.785701 -282.92617 
L 79.227767 -282.110937 
L 78.669834 -281.258493 
L 78.1119 -280.317771 
L 77.553967 -279.242926 
L 76.996033 -278.036473 
L 76.4381 -276.770763 
L 75.880166 -275.557346 
L 75.322233 -274.475199 
L 74.764299 -273.515178 
L 74.206365 -272.596316 
L 73.648432 -271.644548 
L 73.090498 -270.660251 
L 72.532565 -269.713733 
L 71.974631 -268.88386 
L 71.416698 -268.205127 
L 70.858764 -267.662086 
L 70.300831 -267.213064 
L 69.742897 -266.808433 
L 69.184964 -266.397219 
L 68.62703 -265.937495 
L 68.069097 -265.413335 
L 67.511163 -264.84195 
L 66.953229 -264.261352 
L 66.395296 -263.710421 
L 65.837362 -263.218328 
L 65.279429 -262.804691 
L 64.721495 -262.480309 
L 64.163562 -262.244583 
L 63.605628 -262.085838 
L 63.047695 -261.988235 
L 62.489761 -261.939241 
L 61.931828 -261.930205 
L 61.373894 -261.950976 
L 60.815961 -261.985906 
L 60.258027 -262.015969 
L 59.700093 -262.025119 
L 59.14216 -262.005982 
L 58.584226 -261.961701 
L 58.026293 -261.903482 
L 57.468359 -261.845181 
L 56.910426 -261.797546 
L 56.352492 -261.765016 
L 55.794559 -261.746261 
L 55.236625 -261.737088 
L 54.678692 -261.733272 
z
" id="m963523ebaa" style="stroke:#364c6e;stroke-width:1.5;"/>
    </defs>
    <g>
     <use style="fill:#364c6e;stroke:#364c6e;stroke-width:1.5;" x="0" xlink:href="#m963523ebaa" y="311.267375"/>
    </g>
   </g>
   <g id="line2d_1">
    <path d="M 54.678692 49.534103 
L 57.468359 49.422194 
L 59.700093 49.242256 
L 63.047695 49.27914 
L 64.163562 49.022792 
L 65.279429 48.462684 
L 66.395296 47.556954 
L 69.184964 44.870156 
L 70.858764 43.605289 
L 71.974631 42.383515 
L 73.090498 40.607124 
L 76.4381 34.496612 
L 78.1119 30.949604 
L 79.785701 28.341205 
L 81.459501 25.793746 
L 82.017435 24.710018 
L 83.133302 21.722367 
L 84.249169 18.259517 
L 84.807103 16.896915 
L 85.365036 15.961041 
L 85.92297 15.389064 
L 87.59677 14.160688 
L 88.154704 13.525002 
L 89.270571 11.674166 
L 90.386438 9.63994 
L 90.944372 9.216 
L 91.502305 9.536966 
L 92.060239 10.606519 
L 93.734039 15.360809 
L 94.291973 16.379826 
L 94.849906 16.851037 
L 95.40784 16.813871 
L 95.965773 16.41523 
L 97.081641 15.424998 
L 97.639574 15.250576 
L 98.197508 15.451992 
L 98.755441 16.033606 
L 99.871308 17.898904 
L 102.103042 21.863215 
L 103.218909 24.207698 
L 103.776843 25.09561 
L 104.334777 25.655959 
L 105.450644 26.372896 
L 106.008577 26.898786 
L 107.124444 28.399486 
L 108.798245 30.689356 
L 109.914112 32.187152 
L 111.029979 34.003247 
L 112.145846 36.229185 
L 113.261713 38.592265 
L 113.819647 39.507644 
L 114.37758 40.082765 
L 114.935514 40.339748 
L 116.609314 40.613208 
L 118.283115 41.357417 
L 119.398982 41.989403 
L 120.514849 43.125679 
L 121.630716 44.452582 
L 122.18865 44.91306 
L 123.304517 45.432916 
L 124.420384 45.984255 
L 126.094185 46.943531 
L 127.767985 47.449519 
L 129.999719 48.109061 
L 132.231454 48.852987 
L 133.347321 48.867485 
L 136.136988 48.616453 
L 137.810789 48.688973 
L 139.48459 49.091339 
L 141.15839 49.447614 
L 142.832191 49.479741 
L 147.853593 49.239434 
L 150.085327 49.378881 
L 151.759127 49.448738 
L 155.106729 49.423703 
L 157.896396 49.524464 
L 164.033665 49.505086 
L 165.707466 49.534152 
L 165.707466 49.534152 
" style="fill:none;stroke:#ffffff;stroke-linecap:round;stroke-width:2;"/>
   </g>
   <g id="line2d_2">
    <path d="M 11.568896 49.536 
L 346.368896 49.536 
" style="fill:none;stroke:#364c6e;stroke-linecap:round;stroke-width:2;"/>
   </g>
   <g id="text_1">
    <!-- 0.05 -->
    <g style="fill:#364c6e;" transform="translate(262.668896 47.6913)scale(0.24 -0.24)">
     <defs>
      <path d="M 2944 2338 
Q 2944 3213 2780 3570 
Q 2616 3928 2228 3928 
Q 1841 3928 1675 3570 
Q 1509 3213 1509 2338 
Q 1509 1453 1675 1090 
Q 1841 728 2228 728 
Q 2613 728 2778 1090 
Q 2944 1453 2944 2338 
z
M 4147 2328 
Q 4147 1169 3647 539 
Q 3147 -91 2228 -91 
Q 1306 -91 806 539 
Q 306 1169 306 2328 
Q 306 3491 806 4120 
Q 1306 4750 2228 4750 
Q 3147 4750 3647 4120 
Q 4147 3491 4147 2328 
z
" id="DejaVuSans-Bold-30" transform="scale(0.015625)"/>
      <path d="M 653 1209 
L 1778 1209 
L 1778 0 
L 653 0 
L 653 1209 
z
" id="DejaVuSans-Bold-2e" transform="scale(0.015625)"/>
      <path d="M 678 4666 
L 3669 4666 
L 3669 3781 
L 1638 3781 
L 1638 3059 
Q 1775 3097 1914 3117 
Q 2053 3138 2203 3138 
Q 3056 3138 3531 2711 
Q 4006 2284 4006 1522 
Q 4006 766 3489 337 
Q 2972 -91 2053 -91 
Q 1656 -91 1267 -14 
Q 878 63 494 219 
L 494 1166 
Q 875 947 1217 837 
Q 1559 728 1863 728 
Q 2300 728 2551 942 
Q 2803 1156 2803 1522 
Q 2803 1891 2551 2103 
Q 2300 2316 1863 2316 
Q 1603 2316 1309 2248 
Q 1016 2181 678 2041 
L 678 4666 
z
" id="DejaVuSans-Bold-35" transform="scale(0.015625)"/>
     </defs>
     <use xlink:href="#DejaVuSans-Bold-30"/>
     <use x="69.580078" xlink:href="#DejaVuSans-Bold-2e"/>
     <use x="107.568359" xlink:href="#DejaVuSans-Bold-30"/>
     <use x="177.148438" xlink:href="#DejaVuSans-Bold-35"/>
    </g>
   </g>
  </g>
  <g id="axes_2">
   <g id="patch_3">
    <path d="M 11.568896 81.288 
L 346.368896 81.288 
L 346.368896 38.952 
L 11.568896 38.952 
z
" style="fill:none;"/>
   </g>
   <g id="matplotlib.axis_3">
    <g id="xtick_4"/>
    <g id="xtick_5"/>
    <g id="xtick_6"/>
   </g>
   <g id="matplotlib.axis_4"/>
   <g id="PolyCollection_2">
    <defs>
     <path d="M 45.704848 -229.980616 
L 45.704848 -229.979375 
L 46.533698 -229.979375 
L 47.362549 -229.979375 
L 48.1914 -229.979375 
L 49.02025 -229.979375 
L 49.849101 -229.979375 
L 50.677951 -229.979375 
L 51.506802 -229.979375 
L 52.335653 -229.979375 
L 53.164503 -229.979375 
L 53.993354 -229.979375 
L 54.822204 -229.979375 
L 55.651055 -229.979375 
L 56.479905 -229.979375 
L 57.308756 -229.979375 
L 58.137607 -229.979375 
L 58.966457 -229.979375 
L 59.795308 -229.979375 
L 60.624158 -229.979375 
L 61.453009 -229.979375 
L 62.281859 -229.979375 
L 63.11071 -229.979375 
L 63.939561 -229.979375 
L 64.768411 -229.979375 
L 65.597262 -229.979375 
L 66.426112 -229.979375 
L 67.254963 -229.979375 
L 68.083813 -229.979375 
L 68.912664 -229.979375 
L 69.741515 -229.979375 
L 70.570365 -229.979375 
L 71.399216 -229.979375 
L 72.228066 -229.979375 
L 73.056917 -229.979375 
L 73.885768 -229.979375 
L 74.714618 -229.979375 
L 75.543469 -229.979375 
L 76.372319 -229.979375 
L 77.20117 -229.979375 
L 78.03002 -229.979375 
L 78.858871 -229.979375 
L 79.687722 -229.979375 
L 80.516572 -229.979375 
L 81.345423 -229.979375 
L 82.174273 -229.979375 
L 83.003124 -229.979375 
L 83.831974 -229.979375 
L 84.660825 -229.979375 
L 85.489676 -229.979375 
L 86.318526 -229.979375 
L 87.147377 -229.979375 
L 87.976227 -229.979375 
L 88.805078 -229.979375 
L 89.633928 -229.979375 
L 90.462779 -229.979375 
L 91.29163 -229.979375 
L 92.12048 -229.979375 
L 92.949331 -229.979375 
L 93.778181 -229.979375 
L 94.607032 -229.979375 
L 95.435883 -229.979375 
L 96.264733 -229.979375 
L 97.093584 -229.979375 
L 97.922434 -229.979375 
L 98.751285 -229.979375 
L 99.580135 -229.979375 
L 100.408986 -229.979375 
L 101.237837 -229.979375 
L 102.066687 -229.979375 
L 102.895538 -229.979375 
L 103.724388 -229.979375 
L 104.553239 -229.979375 
L 105.382089 -229.979375 
L 106.21094 -229.979375 
L 107.039791 -229.979375 
L 107.868641 -229.979375 
L 108.697492 -229.979375 
L 109.526342 -229.979375 
L 110.355193 -229.979375 
L 111.184043 -229.979375 
L 112.012894 -229.979375 
L 112.841745 -229.979375 
L 113.670595 -229.979375 
L 114.499446 -229.979375 
L 115.328296 -229.979375 
L 116.157147 -229.979375 
L 116.985998 -229.979375 
L 117.814848 -229.979375 
L 118.643699 -229.979375 
L 119.472549 -229.979375 
L 120.3014 -229.979375 
L 121.13025 -229.979375 
L 121.959101 -229.979375 
L 122.787952 -229.979375 
L 123.616802 -229.979375 
L 124.445653 -229.979375 
L 125.274503 -229.979375 
L 126.103354 -229.979375 
L 126.932204 -229.979375 
L 127.761055 -229.979375 
L 128.589906 -229.979375 
L 129.418756 -229.979375 
L 130.247607 -229.979375 
L 131.076457 -229.979375 
L 131.905308 -229.979375 
L 132.734158 -229.979375 
L 133.563009 -229.979375 
L 134.39186 -229.979375 
L 135.22071 -229.979375 
L 136.049561 -229.979375 
L 136.878411 -229.979375 
L 137.707262 -229.979375 
L 138.536113 -229.979375 
L 139.364963 -229.979375 
L 140.193814 -229.979375 
L 141.022664 -229.979375 
L 141.851515 -229.979375 
L 142.680365 -229.979375 
L 143.509216 -229.979375 
L 144.338067 -229.979375 
L 145.166917 -229.979375 
L 145.995768 -229.979375 
L 146.824618 -229.979375 
L 147.653469 -229.979375 
L 148.482319 -229.979375 
L 149.31117 -229.979375 
L 150.140021 -229.979375 
L 150.968871 -229.979375 
L 151.797722 -229.979375 
L 152.626572 -229.979375 
L 153.455423 -229.979375 
L 154.284273 -229.979375 
L 155.113124 -229.979375 
L 155.941975 -229.979375 
L 156.770825 -229.979375 
L 157.599676 -229.979375 
L 158.428526 -229.979375 
L 159.257377 -229.979375 
L 160.086228 -229.979375 
L 160.915078 -229.979375 
L 161.743929 -229.979375 
L 162.572779 -229.979375 
L 163.40163 -229.979375 
L 164.23048 -229.979375 
L 165.059331 -229.979375 
L 165.888182 -229.979375 
L 166.717032 -229.979375 
L 167.545883 -229.979375 
L 168.374733 -229.979375 
L 169.203584 -229.979375 
L 170.032434 -229.979375 
L 170.861285 -229.979375 
L 171.690136 -229.979375 
L 172.518986 -229.979375 
L 173.347837 -229.979375 
L 174.176687 -229.979375 
L 175.005538 -229.979375 
L 175.834388 -229.979375 
L 176.663239 -229.979375 
L 177.49209 -229.979375 
L 178.32094 -229.979375 
L 179.149791 -229.979375 
L 179.978641 -229.979375 
L 180.807492 -229.979375 
L 181.636342 -229.979375 
L 182.465193 -229.979375 
L 183.294044 -229.979375 
L 184.122894 -229.979375 
L 184.951745 -229.979375 
L 185.780595 -229.979375 
L 186.609446 -229.979375 
L 187.438297 -229.979375 
L 188.267147 -229.979375 
L 189.095998 -229.979375 
L 189.924848 -229.979375 
L 190.753699 -229.979375 
L 191.582549 -229.979375 
L 192.4114 -229.979375 
L 193.240251 -229.979375 
L 194.069101 -229.979375 
L 194.897952 -229.979375 
L 195.726802 -229.979375 
L 196.555653 -229.979375 
L 197.384503 -229.979375 
L 198.213354 -229.979375 
L 199.042205 -229.979375 
L 199.871055 -229.979375 
L 200.699906 -229.979375 
L 201.528756 -229.979375 
L 202.357607 -229.979375 
L 203.186457 -229.979375 
L 204.015308 -229.979375 
L 204.844159 -229.979375 
L 205.673009 -229.979375 
L 206.50186 -229.979375 
L 207.33071 -229.979375 
L 208.159561 -229.979375 
L 208.988412 -229.979375 
L 209.817262 -229.979375 
L 210.646113 -229.979375 
L 210.646113 -229.980616 
L 210.646113 -229.980616 
L 209.817262 -229.983059 
L 208.988412 -229.988783 
L 208.159561 -230.000048 
L 207.33071 -230.018463 
L 206.50186 -230.04297 
L 205.673009 -230.068402 
L 204.844159 -230.086615 
L 204.015308 -230.090537 
L 203.186457 -230.078574 
L 202.357607 -230.055757 
L 201.528756 -230.03075 
L 200.699906 -230.011508 
L 199.871055 -230.003074 
L 199.042205 -230.008154 
L 198.213354 -230.028276 
L 197.384503 -230.063135 
L 196.555653 -230.108184 
L 195.726802 -230.15313 
L 194.897952 -230.184249 
L 194.069101 -230.19048 
L 193.240251 -230.169466 
L 192.4114 -230.128903 
L 191.582549 -230.082063 
L 190.753699 -230.040966 
L 189.924848 -230.011946 
L 189.095998 -229.995679 
L 188.267147 -229.990153 
L 187.438297 -229.993658 
L 186.609446 -230.005779 
L 185.780595 -230.02608 
L 184.951745 -230.051709 
L 184.122894 -230.076325 
L 183.294044 -230.092262 
L 182.465193 -230.095276 
L 181.636342 -230.088194 
L 180.807492 -230.079804 
L 179.978641 -230.079183 
L 179.149791 -230.089806 
L 178.32094 -230.108124 
L 177.49209 -230.127346 
L 176.663239 -230.142708 
L 175.834388 -230.153616 
L 175.005538 -230.161682 
L 174.176687 -230.167645 
L 173.347837 -230.170245 
L 172.518986 -230.167259 
L 171.690136 -230.157366 
L 170.861285 -230.142078 
L 170.032434 -230.127054 
L 169.203584 -230.121455 
L 168.374733 -230.135088 
L 167.545883 -230.175398 
L 166.717032 -230.246029 
L 165.888182 -230.345728 
L 165.059331 -230.465842 
L 164.23048 -230.589102 
L 163.40163 -230.694874 
L 162.572779 -230.770264 
L 161.743929 -230.818061 
L 160.915078 -230.854061 
L 160.086228 -230.897498 
L 159.257377 -230.964294 
L 158.428526 -231.066111 
L 157.599676 -231.209692 
L 156.770825 -231.393246 
L 155.941975 -231.60439 
L 155.113124 -231.824744 
L 154.284273 -232.038774 
L 153.455423 -232.239311 
L 152.626572 -232.424919 
L 151.797722 -232.591529 
L 150.968871 -232.726281 
L 150.140021 -232.810739 
L 149.31117 -232.832644 
L 148.482319 -232.796741 
L 147.653469 -232.725571 
L 146.824618 -232.651215 
L 145.995768 -232.607296 
L 145.166917 -232.626648 
L 144.338067 -232.738772 
L 143.509216 -232.958956 
L 142.680365 -233.273875 
L 141.851515 -233.640546 
L 141.022664 -234.00763 
L 140.193814 -234.345885 
L 139.364963 -234.664053 
L 138.536113 -234.999605 
L 137.707262 -235.394238 
L 136.878411 -235.871002 
L 136.049561 -236.423187 
L 135.22071 -237.017295 
L 134.39186 -237.608109 
L 133.563009 -238.159301 
L 132.734158 -238.658827 
L 131.905308 -239.120352 
L 131.076457 -239.57157 
L 130.247607 -240.039946 
L 129.418756 -240.545315 
L 128.589906 -241.097297 
L 127.761055 -241.689989 
L 126.932204 -242.297415 
L 126.103354 -242.883726 
L 125.274503 -243.428944 
L 124.445653 -243.94534 
L 123.616802 -244.458814 
L 122.787952 -244.965636 
L 121.959101 -245.40975 
L 121.13025 -245.713493 
L 120.3014 -245.840463 
L 119.472549 -245.832371 
L 118.643699 -245.787588 
L 117.814848 -245.808398 
L 116.985998 -245.965559 
L 116.157147 -246.293583 
L 115.328296 -246.79442 
L 114.499446 -247.436017 
L 113.670595 -248.158691 
L 112.841745 -248.900286 
L 112.012894 -249.626652 
L 111.184043 -250.344497 
L 110.355193 -251.087399 
L 109.526342 -251.881227 
L 108.697492 -252.703403 
L 107.868641 -253.46088 
L 107.039791 -254.017889 
L 106.21094 -254.279647 
L 105.382089 -254.282502 
L 104.553239 -254.208192 
L 103.724388 -254.284202 
L 102.895538 -254.632221 
L 102.066687 -255.185606 
L 101.237837 -255.742409 
L 100.408986 -256.098847 
L 99.580135 -256.146672 
L 98.751285 -255.879089 
L 97.922434 -255.352251 
L 97.093584 -254.668955 
L 96.264733 -253.978978 
L 95.435883 -253.438421 
L 94.607032 -253.118912 
L 93.778181 -252.945345 
L 92.949331 -252.74447 
L 92.12048 -252.383083 
L 91.29163 -251.876468 
L 90.462779 -251.367458 
L 89.633928 -250.996461 
L 88.805078 -250.780396 
L 87.976227 -250.600679 
L 87.147377 -250.294073 
L 86.318526 -249.755969 
L 85.489676 -248.979901 
L 84.660825 -248.034587 
L 83.831974 -247.0251 
L 83.003124 -246.061566 
L 82.174273 -245.223476 
L 81.345423 -244.516678 
L 80.516572 -243.854081 
L 79.687722 -243.093478 
L 78.858871 -242.123026 
L 78.03002 -240.938511 
L 77.20117 -239.654657 
L 76.372319 -238.441652 
L 75.543469 -237.435103 
L 74.714618 -236.680947 
L 73.885768 -236.139452 
L 73.056917 -235.727053 
L 72.228066 -235.360908 
L 71.399216 -234.985658 
L 70.570365 -234.578974 
L 69.741515 -234.141339 
L 68.912664 -233.680681 
L 68.083813 -233.203707 
L 67.254963 -232.717977 
L 66.426112 -232.237537 
L 65.597262 -231.782953 
L 64.768411 -231.374846 
L 63.939561 -231.026919 
L 63.11071 -230.743231 
L 62.281859 -230.519789 
L 61.453009 -230.348243 
L 60.624158 -230.2196 
L 59.795308 -230.126402 
L 58.966457 -230.062846 
L 58.137607 -230.023842 
L 57.308756 -230.004598 
L 56.479905 -230.001146 
L 55.651055 -230.010681 
L 54.822204 -230.030455 
L 53.993354 -230.055668 
L 53.164503 -230.078551 
L 52.335653 -230.090532 
L 51.506802 -230.086614 
L 50.677951 -230.068402 
L 49.849101 -230.04297 
L 49.02025 -230.018463 
L 48.1914 -230.000048 
L 47.362549 -229.988783 
L 46.533698 -229.983059 
L 45.704848 -229.980616 
z
" id="mf61c1bc86a" style="stroke:#426082;stroke-width:1.5;"/>
    </defs>
    <g>
     <use style="fill:#426082;stroke:#426082;stroke-width:1.5;" x="0" xlink:href="#mf61c1bc86a" y="311.267375"/>
    </g>
   </g>
   <g id="line2d_3">
    <path d="M 45.704848 81.286759 
L 59.795308 81.140973 
L 61.453009 80.919132 
L 63.11071 80.524144 
L 64.768411 79.892529 
L 67.254963 78.549398 
L 70.570365 76.688401 
L 74.714618 74.586428 
L 75.543469 73.832272 
L 76.372319 72.825723 
L 78.858871 69.144349 
L 79.687722 68.173897 
L 81.345423 66.750697 
L 83.003124 65.205809 
L 86.318526 61.511406 
L 87.147377 60.973302 
L 87.976227 60.666696 
L 89.633928 60.270914 
L 90.462779 59.899917 
L 92.12048 58.884292 
L 92.949331 58.522905 
L 95.435883 57.828954 
L 96.264733 57.288397 
L 97.922434 55.915124 
L 98.751285 55.388286 
L 99.580135 55.120703 
L 100.408986 55.168528 
L 101.237837 55.524966 
L 102.895538 56.635154 
L 103.724388 56.983173 
L 104.553239 57.059183 
L 106.21094 56.987728 
L 107.039791 57.249486 
L 107.868641 57.806495 
L 114.499446 63.831358 
L 115.328296 64.472955 
L 116.157147 64.973792 
L 116.985998 65.301816 
L 117.814848 65.458977 
L 121.13025 65.553882 
L 121.959101 65.857625 
L 123.616802 66.808561 
L 126.932204 68.96996 
L 129.418756 70.72206 
L 131.905308 72.147023 
L 133.563009 73.108074 
L 137.707262 75.873137 
L 139.364963 76.603322 
L 144.338067 78.528603 
L 145.995768 78.660079 
L 150.140021 78.456636 
L 151.797722 78.675846 
L 155.113124 79.442631 
L 157.599676 80.057683 
L 159.257377 80.303081 
L 165.888182 80.921647 
L 168.374733 81.132287 
L 172.518986 81.100116 
L 179.149791 81.177569 
L 190.753699 81.226409 
L 194.897952 81.083126 
L 201.528756 81.236625 
L 205.673009 81.198973 
L 210.646113 81.286759 
L 210.646113 81.286759 
" style="fill:none;stroke:#ffffff;stroke-linecap:round;stroke-width:2;"/>
   </g>
   <g id="line2d_4">
    <path d="M 11.568896 81.288 
L 346.368896 81.288 
" style="fill:none;stroke:#426082;stroke-linecap:round;stroke-width:2;"/>
   </g>
   <g id="text_2">
    <!-- 0.1 -->
    <g style="fill:#426082;" transform="translate(262.668896 79.4433)scale(0.24 -0.24)">
     <defs>
      <path d="M 750 831 
L 1813 831 
L 1813 3847 
L 722 3622 
L 722 4441 
L 1806 4666 
L 2950 4666 
L 2950 831 
L 4013 831 
L 4013 0 
L 750 0 
L 750 831 
z
" id="DejaVuSans-Bold-31" transform="scale(0.015625)"/>
     </defs>
     <use xlink:href="#DejaVuSans-Bold-30"/>
     <use x="69.580078" xlink:href="#DejaVuSans-Bold-2e"/>
     <use x="107.568359" xlink:href="#DejaVuSans-Bold-31"/>
    </g>
   </g>
  </g>
  <g id="axes_3">
   <g id="patch_4">
    <path d="M 11.568896 113.04 
L 346.368896 113.04 
L 346.368896 70.704 
L 11.568896 70.704 
z
" style="fill:none;"/>
   </g>
   <g id="matplotlib.axis_5">
    <g id="xtick_7"/>
    <g id="xtick_8"/>
    <g id="xtick_9"/>
   </g>
   <g id="matplotlib.axis_6"/>
   <g id="PolyCollection_3">
    <defs>
     <path d="M 47.641232 -198.228884 
L 47.641232 -198.227375 
L 48.795352 -198.227375 
L 49.949472 -198.227375 
L 51.103592 -198.227375 
L 52.257713 -198.227375 
L 53.411833 -198.227375 
L 54.565953 -198.227375 
L 55.720073 -198.227375 
L 56.874193 -198.227375 
L 58.028314 -198.227375 
L 59.182434 -198.227375 
L 60.336554 -198.227375 
L 61.490674 -198.227375 
L 62.644794 -198.227375 
L 63.798915 -198.227375 
L 64.953035 -198.227375 
L 66.107155 -198.227375 
L 67.261275 -198.227375 
L 68.415395 -198.227375 
L 69.569516 -198.227375 
L 70.723636 -198.227375 
L 71.877756 -198.227375 
L 73.031876 -198.227375 
L 74.185996 -198.227375 
L 75.340117 -198.227375 
L 76.494237 -198.227375 
L 77.648357 -198.227375 
L 78.802477 -198.227375 
L 79.956597 -198.227375 
L 81.110718 -198.227375 
L 82.264838 -198.227375 
L 83.418958 -198.227375 
L 84.573078 -198.227375 
L 85.727198 -198.227375 
L 86.881319 -198.227375 
L 88.035439 -198.227375 
L 89.189559 -198.227375 
L 90.343679 -198.227375 
L 91.497799 -198.227375 
L 92.65192 -198.227375 
L 93.80604 -198.227375 
L 94.96016 -198.227375 
L 96.11428 -198.227375 
L 97.2684 -198.227375 
L 98.422521 -198.227375 
L 99.576641 -198.227375 
L 100.730761 -198.227375 
L 101.884881 -198.227375 
L 103.039001 -198.227375 
L 104.193121 -198.227375 
L 105.347242 -198.227375 
L 106.501362 -198.227375 
L 107.655482 -198.227375 
L 108.809602 -198.227375 
L 109.963722 -198.227375 
L 111.117843 -198.227375 
L 112.271963 -198.227375 
L 113.426083 -198.227375 
L 114.580203 -198.227375 
L 115.734323 -198.227375 
L 116.888444 -198.227375 
L 118.042564 -198.227375 
L 119.196684 -198.227375 
L 120.350804 -198.227375 
L 121.504924 -198.227375 
L 122.659045 -198.227375 
L 123.813165 -198.227375 
L 124.967285 -198.227375 
L 126.121405 -198.227375 
L 127.275525 -198.227375 
L 128.429646 -198.227375 
L 129.583766 -198.227375 
L 130.737886 -198.227375 
L 131.892006 -198.227375 
L 133.046126 -198.227375 
L 134.200247 -198.227375 
L 135.354367 -198.227375 
L 136.508487 -198.227375 
L 137.662607 -198.227375 
L 138.816727 -198.227375 
L 139.970848 -198.227375 
L 141.124968 -198.227375 
L 142.279088 -198.227375 
L 143.433208 -198.227375 
L 144.587328 -198.227375 
L 145.741449 -198.227375 
L 146.895569 -198.227375 
L 148.049689 -198.227375 
L 149.203809 -198.227375 
L 150.357929 -198.227375 
L 151.51205 -198.227375 
L 152.66617 -198.227375 
L 153.82029 -198.227375 
L 154.97441 -198.227375 
L 156.12853 -198.227375 
L 157.282651 -198.227375 
L 158.436771 -198.227375 
L 159.590891 -198.227375 
L 160.745011 -198.227375 
L 161.899131 -198.227375 
L 163.053252 -198.227375 
L 164.207372 -198.227375 
L 165.361492 -198.227375 
L 166.515612 -198.227375 
L 167.669732 -198.227375 
L 168.823853 -198.227375 
L 169.977973 -198.227375 
L 171.132093 -198.227375 
L 172.286213 -198.227375 
L 173.440333 -198.227375 
L 174.594454 -198.227375 
L 175.748574 -198.227375 
L 176.902694 -198.227375 
L 178.056814 -198.227375 
L 179.210934 -198.227375 
L 180.365055 -198.227375 
L 181.519175 -198.227375 
L 182.673295 -198.227375 
L 183.827415 -198.227375 
L 184.981535 -198.227375 
L 186.135656 -198.227375 
L 187.289776 -198.227375 
L 188.443896 -198.227375 
L 189.598016 -198.227375 
L 190.752136 -198.227375 
L 191.906256 -198.227375 
L 193.060377 -198.227375 
L 194.214497 -198.227375 
L 195.368617 -198.227375 
L 196.522737 -198.227375 
L 197.676857 -198.227375 
L 198.830978 -198.227375 
L 199.985098 -198.227375 
L 201.139218 -198.227375 
L 202.293338 -198.227375 
L 203.447458 -198.227375 
L 204.601579 -198.227375 
L 205.755699 -198.227375 
L 206.909819 -198.227375 
L 208.063939 -198.227375 
L 209.218059 -198.227375 
L 210.37218 -198.227375 
L 211.5263 -198.227375 
L 212.68042 -198.227375 
L 213.83454 -198.227375 
L 214.98866 -198.227375 
L 216.142781 -198.227375 
L 217.296901 -198.227375 
L 218.451021 -198.227375 
L 219.605141 -198.227375 
L 220.759261 -198.227375 
L 221.913382 -198.227375 
L 223.067502 -198.227375 
L 224.221622 -198.227375 
L 225.375742 -198.227375 
L 226.529862 -198.227375 
L 227.683983 -198.227375 
L 228.838103 -198.227375 
L 229.992223 -198.227375 
L 231.146343 -198.227375 
L 232.300463 -198.227375 
L 233.454584 -198.227375 
L 234.608704 -198.227375 
L 235.762824 -198.227375 
L 236.916944 -198.227375 
L 238.071064 -198.227375 
L 239.225185 -198.227375 
L 240.379305 -198.227375 
L 241.533425 -198.227375 
L 242.687545 -198.227375 
L 243.841665 -198.227375 
L 244.995786 -198.227375 
L 246.149906 -198.227375 
L 247.304026 -198.227375 
L 248.458146 -198.227375 
L 249.612266 -198.227375 
L 250.766387 -198.227375 
L 251.920507 -198.227375 
L 253.074627 -198.227375 
L 254.228747 -198.227375 
L 255.382867 -198.227375 
L 256.536988 -198.227375 
L 257.691108 -198.227375 
L 258.845228 -198.227375 
L 259.999348 -198.227375 
L 261.153468 -198.227375 
L 262.307589 -198.227375 
L 263.461709 -198.227375 
L 264.615829 -198.227375 
L 265.769949 -198.227375 
L 266.924069 -198.227375 
L 268.07819 -198.227375 
L 269.23231 -198.227375 
L 270.38643 -198.227375 
L 271.54055 -198.227375 
L 272.69467 -198.227375 
L 273.848791 -198.227375 
L 275.002911 -198.227375 
L 276.157031 -198.227375 
L 277.311151 -198.227375 
L 277.311151 -198.228364 
L 277.311151 -198.228364 
L 276.157031 -198.230651 
L 275.002911 -198.236396 
L 273.848791 -198.248018 
L 272.69467 -198.266636 
L 271.54055 -198.289433 
L 270.38643 -198.308901 
L 269.23231 -198.316386 
L 268.07819 -198.308144 
L 266.924069 -198.288287 
L 265.769949 -198.265553 
L 264.615829 -198.247262 
L 263.461709 -198.235985 
L 262.307589 -198.230473 
L 261.153468 -198.228301 
L 259.999348 -198.227605 
L 258.845228 -198.227423 
L 257.691108 -198.227383 
L 256.536988 -198.227376 
L 255.382867 -198.227375 
L 254.228747 -198.227375 
L 253.074627 -198.227375 
L 251.920507 -198.227375 
L 250.766387 -198.227375 
L 249.612266 -198.227375 
L 248.458146 -198.227375 
L 247.304026 -198.227375 
L 246.149906 -198.227375 
L 244.995786 -198.227375 
L 243.841665 -198.227375 
L 242.687545 -198.227375 
L 241.533425 -198.227375 
L 240.379305 -198.227375 
L 239.225185 -198.227375 
L 238.071064 -198.227375 
L 236.916944 -198.227375 
L 235.762824 -198.227375 
L 234.608704 -198.227375 
L 233.454584 -198.227375 
L 232.300463 -198.227375 
L 231.146343 -198.227375 
L 229.992223 -198.227375 
L 228.838103 -198.227375 
L 227.683983 -198.227375 
L 226.529862 -198.227375 
L 225.375742 -198.227375 
L 224.221622 -198.227375 
L 223.067502 -198.227375 
L 221.913382 -198.227375 
L 220.759261 -198.227377 
L 219.605141 -198.227388 
L 218.451021 -198.227449 
L 217.296901 -198.227723 
L 216.142781 -198.228747 
L 214.98866 -198.231916 
L 213.83454 -198.240041 
L 212.68042 -198.257327 
L 211.5263 -198.287876 
L 210.37218 -198.332757 
L 209.218059 -198.387459 
L 208.063939 -198.442023 
L 206.909819 -198.48425 
L 205.755699 -198.503979 
L 204.601579 -198.496505 
L 203.447458 -198.464669 
L 202.293338 -198.419521 
L 201.139218 -198.378401 
L 199.985098 -198.359181 
L 198.830978 -198.371663 
L 197.676857 -198.410635 
L 196.522737 -198.456734 
L 195.368617 -198.48767 
L 194.214497 -198.493933 
L 193.060377 -198.486989 
L 191.906256 -198.492109 
L 190.752136 -198.530612 
L 189.598016 -198.605676 
L 188.443896 -198.70259 
L 187.289776 -198.801197 
L 186.135656 -198.888424 
L 184.981535 -198.961853 
L 183.827415 -199.025978 
L 182.673295 -199.087044 
L 181.519175 -199.147664 
L 180.365055 -199.201462 
L 179.210934 -199.234212 
L 178.056814 -199.23596 
L 176.902694 -199.213997 
L 175.748574 -199.190736 
L 174.594454 -199.186951 
L 173.440333 -199.208476 
L 172.286213 -199.248587 
L 171.132093 -199.298707 
L 169.977973 -199.354146 
L 168.823853 -199.411575 
L 167.669732 -199.463202 
L 166.515612 -199.494716 
L 165.361492 -199.494091 
L 164.207372 -199.470576 
L 163.053252 -199.468314 
L 161.899131 -199.555751 
L 160.745011 -199.789129 
L 159.590891 -200.170287 
L 158.436771 -200.629162 
L 157.282651 -201.053785 
L 156.12853 -201.360228 
L 154.97441 -201.55322 
L 153.82029 -201.719796 
L 152.66617 -201.9545 
L 151.51205 -202.286029 
L 150.357929 -202.672347 
L 149.203809 -203.05185 
L 148.049689 -203.386132 
L 146.895569 -203.66674 
L 145.741449 -203.912763 
L 144.587328 -204.17543 
L 143.433208 -204.52415 
L 142.279088 -204.996197 
L 141.124968 -205.548223 
L 139.970848 -206.072702 
L 138.816727 -206.483888 
L 137.662607 -206.790952 
L 136.508487 -207.079371 
L 135.354367 -207.430237 
L 134.200247 -207.873623 
L 133.046126 -208.399782 
L 131.892006 -208.965575 
L 130.737886 -209.477009 
L 129.583766 -209.812975 
L 128.429646 -209.9171 
L 127.275525 -209.875998 
L 126.121405 -209.893656 
L 124.967285 -210.173684 
L 123.813165 -210.801489 
L 122.659045 -211.706198 
L 121.504924 -212.714437 
L 120.350804 -213.648867 
L 119.196684 -214.409475 
L 118.042564 -214.995804 
L 116.888444 -215.461567 
L 115.734323 -215.840767 
L 114.580203 -216.119971 
L 113.426083 -216.288515 
L 112.271963 -216.398669 
L 111.117843 -216.545956 
L 109.963722 -216.782997 
L 108.809602 -217.072237 
L 107.655482 -217.337729 
L 106.501362 -217.555456 
L 105.347242 -217.776866 
L 104.193121 -218.058428 
L 103.039001 -218.377092 
L 101.884881 -218.629867 
L 100.730761 -218.723651 
L 99.576641 -218.657953 
L 98.422521 -218.508467 
L 97.2684 -218.33378 
L 96.11428 -218.116324 
L 94.96016 -217.804528 
L 93.80604 -217.403137 
L 92.65192 -217.00496 
L 91.497799 -216.718019 
L 90.343679 -216.545775 
L 89.189559 -216.335832 
L 88.035439 -215.872687 
L 86.881319 -215.059675 
L 85.727198 -214.025203 
L 84.573078 -213.037544 
L 83.418958 -212.296836 
L 82.264838 -211.794282 
L 81.110718 -211.354409 
L 79.956597 -210.797941 
L 78.802477 -210.068829 
L 77.648357 -209.232587 
L 76.494237 -208.383929 
L 75.340117 -207.565844 
L 74.185996 -206.760401 
L 73.031876 -205.933952 
L 71.877756 -205.08359 
L 70.723636 -204.247091 
L 69.569516 -203.475313 
L 68.415395 -202.797052 
L 67.261275 -202.209248 
L 66.107155 -201.695131 
L 64.953035 -201.241613 
L 63.798915 -200.835506 
L 62.644794 -200.454068 
L 61.490674 -200.074044 
L 60.336554 -199.692576 
L 59.182434 -199.332632 
L 58.028314 -199.024654 
L 56.874193 -198.784001 
L 55.720073 -198.60513 
L 54.565953 -198.472889 
L 53.411833 -198.375494 
L 52.257713 -198.307527 
L 51.103592 -198.265221 
L 49.949472 -198.24268 
L 48.795352 -198.232616 
L 47.641232 -198.228884 
z
" id="mb6a68f176e" style="stroke:#4e7493;stroke-width:1.5;"/>
    </defs>
    <g>
     <use style="fill:#4e7493;stroke:#4e7493;stroke-width:1.5;" x="0" xlink:href="#mb6a68f176e" y="311.267375"/>
    </g>
   </g>
   <g id="line2d_5">
    <path d="M 47.641232 113.038491 
L 52.257713 112.959848 
L 55.720073 112.662245 
L 58.028314 112.242721 
L 60.336554 111.574799 
L 66.107155 109.572244 
L 68.415395 108.470323 
L 70.723636 107.020284 
L 78.802477 101.198546 
L 79.956597 100.469434 
L 82.264838 99.473093 
L 83.418958 98.970539 
L 84.573078 98.229831 
L 88.035439 95.394688 
L 89.189559 94.931543 
L 92.65192 94.262415 
L 96.11428 93.151051 
L 99.576641 92.609422 
L 100.730761 92.543724 
L 101.884881 92.637508 
L 112.271963 94.868706 
L 114.580203 95.147404 
L 116.888444 95.805808 
L 118.042564 96.271571 
L 119.196684 96.8579 
L 120.350804 97.618508 
L 123.813165 100.465886 
L 124.967285 101.093691 
L 126.121405 101.373719 
L 129.583766 101.4544 
L 130.737886 101.790366 
L 135.354367 103.837138 
L 139.970848 105.194673 
L 143.433208 106.743225 
L 145.741449 107.354612 
L 148.049689 107.881243 
L 153.82029 109.547579 
L 156.12853 109.907147 
L 157.282651 110.21359 
L 160.745011 111.478246 
L 161.899131 111.711624 
L 164.207372 111.796799 
L 167.669732 111.804173 
L 175.748574 112.076639 
L 180.365055 112.065913 
L 187.289776 112.466178 
L 191.906256 112.775266 
L 210.37218 112.934618 
L 214.98866 113.035459 
L 256.536988 113.039999 
L 277.311151 113.039011 
L 277.311151 113.039011 
" style="fill:none;stroke:#ffffff;stroke-linecap:round;stroke-width:2;"/>
   </g>
   <g id="line2d_6">
    <path d="M 11.568896 113.04 
L 346.368896 113.04 
" style="fill:none;stroke:#4e7493;stroke-linecap:round;stroke-width:2;"/>
   </g>
   <g id="text_3">
    <!-- 0.15 -->
    <g style="fill:#4e7493;" transform="translate(262.668896 111.1953)scale(0.24 -0.24)">
     <use xlink:href="#DejaVuSans-Bold-30"/>
     <use x="69.580078" xlink:href="#DejaVuSans-Bold-2e"/>
     <use x="107.568359" xlink:href="#DejaVuSans-Bold-31"/>
     <use x="177.148438" xlink:href="#DejaVuSans-Bold-35"/>
    </g>
   </g>
  </g>
  <g id="axes_4">
   <g id="patch_5">
    <path d="M 11.568896 144.792 
L 346.368896 144.792 
L 346.368896 102.456 
L 11.568896 102.456 
z
" style="fill:none;"/>
   </g>
   <g id="matplotlib.axis_7">
    <g id="xtick_10"/>
    <g id="xtick_11"/>
    <g id="xtick_12"/>
   </g>
   <g id="matplotlib.axis_8"/>
   <g id="PolyCollection_4">
    <defs>
     <path d="M 40.314141 -166.476201 
L 40.314141 -166.475375 
L 41.599196 -166.475375 
L 42.88425 -166.475375 
L 44.169304 -166.475375 
L 45.454359 -166.475375 
L 46.739413 -166.475375 
L 48.024468 -166.475375 
L 49.309522 -166.475375 
L 50.594576 -166.475375 
L 51.879631 -166.475375 
L 53.164685 -166.475375 
L 54.449739 -166.475375 
L 55.734794 -166.475375 
L 57.019848 -166.475375 
L 58.304903 -166.475375 
L 59.589957 -166.475375 
L 60.875011 -166.475375 
L 62.160066 -166.475375 
L 63.44512 -166.475375 
L 64.730174 -166.475375 
L 66.015229 -166.475375 
L 67.300283 -166.475375 
L 68.585338 -166.475375 
L 69.870392 -166.475375 
L 71.155446 -166.475375 
L 72.440501 -166.475375 
L 73.725555 -166.475375 
L 75.01061 -166.475375 
L 76.295664 -166.475375 
L 77.580718 -166.475375 
L 78.865773 -166.475375 
L 80.150827 -166.475375 
L 81.435881 -166.475375 
L 82.720936 -166.475375 
L 84.00599 -166.475375 
L 85.291045 -166.475375 
L 86.576099 -166.475375 
L 87.861153 -166.475375 
L 89.146208 -166.475375 
L 90.431262 -166.475375 
L 91.716316 -166.475375 
L 93.001371 -166.475375 
L 94.286425 -166.475375 
L 95.57148 -166.475375 
L 96.856534 -166.475375 
L 98.141588 -166.475375 
L 99.426643 -166.475375 
L 100.711697 -166.475375 
L 101.996752 -166.475375 
L 103.281806 -166.475375 
L 104.56686 -166.475375 
L 105.851915 -166.475375 
L 107.136969 -166.475375 
L 108.422023 -166.475375 
L 109.707078 -166.475375 
L 110.992132 -166.475375 
L 112.277187 -166.475375 
L 113.562241 -166.475375 
L 114.847295 -166.475375 
L 116.13235 -166.475375 
L 117.417404 -166.475375 
L 118.702458 -166.475375 
L 119.987513 -166.475375 
L 121.272567 -166.475375 
L 122.557622 -166.475375 
L 123.842676 -166.475375 
L 125.12773 -166.475375 
L 126.412785 -166.475375 
L 127.697839 -166.475375 
L 128.982893 -166.475375 
L 130.267948 -166.475375 
L 131.553002 -166.475375 
L 132.838057 -166.475375 
L 134.123111 -166.475375 
L 135.408165 -166.475375 
L 136.69322 -166.475375 
L 137.978274 -166.475375 
L 139.263329 -166.475375 
L 140.548383 -166.475375 
L 141.833437 -166.475375 
L 143.118492 -166.475375 
L 144.403546 -166.475375 
L 145.6886 -166.475375 
L 146.973655 -166.475375 
L 148.258709 -166.475375 
L 149.543764 -166.475375 
L 150.828818 -166.475375 
L 152.113872 -166.475375 
L 153.398927 -166.475375 
L 154.683981 -166.475375 
L 155.969035 -166.475375 
L 157.25409 -166.475375 
L 158.539144 -166.475375 
L 159.824199 -166.475375 
L 161.109253 -166.475375 
L 162.394307 -166.475375 
L 163.679362 -166.475375 
L 164.964416 -166.475375 
L 166.249471 -166.475375 
L 167.534525 -166.475375 
L 168.819579 -166.475375 
L 170.104634 -166.475375 
L 171.389688 -166.475375 
L 172.674742 -166.475375 
L 173.959797 -166.475375 
L 175.244851 -166.475375 
L 176.529906 -166.475375 
L 177.81496 -166.475375 
L 179.100014 -166.475375 
L 180.385069 -166.475375 
L 181.670123 -166.475375 
L 182.955177 -166.475375 
L 184.240232 -166.475375 
L 185.525286 -166.475375 
L 186.810341 -166.475375 
L 188.095395 -166.475375 
L 189.380449 -166.475375 
L 190.665504 -166.475375 
L 191.950558 -166.475375 
L 193.235613 -166.475375 
L 194.520667 -166.475375 
L 195.805721 -166.475375 
L 197.090776 -166.475375 
L 198.37583 -166.475375 
L 199.660884 -166.475375 
L 200.945939 -166.475375 
L 202.230993 -166.475375 
L 203.516048 -166.475375 
L 204.801102 -166.475375 
L 206.086156 -166.475375 
L 207.371211 -166.475375 
L 208.656265 -166.475375 
L 209.941319 -166.475375 
L 211.226374 -166.475375 
L 212.511428 -166.475375 
L 213.796483 -166.475375 
L 215.081537 -166.475375 
L 216.366591 -166.475375 
L 217.651646 -166.475375 
L 218.9367 -166.475375 
L 220.221755 -166.475375 
L 221.506809 -166.475375 
L 222.791863 -166.475375 
L 224.076918 -166.475375 
L 225.361972 -166.475375 
L 226.647026 -166.475375 
L 227.932081 -166.475375 
L 229.217135 -166.475375 
L 230.50219 -166.475375 
L 231.787244 -166.475375 
L 233.072298 -166.475375 
L 234.357353 -166.475375 
L 235.642407 -166.475375 
L 236.927461 -166.475375 
L 238.212516 -166.475375 
L 239.49757 -166.475375 
L 240.782625 -166.475375 
L 242.067679 -166.475375 
L 243.352733 -166.475375 
L 244.637788 -166.475375 
L 245.922842 -166.475375 
L 247.207897 -166.475375 
L 248.492951 -166.475375 
L 249.778005 -166.475375 
L 251.06306 -166.475375 
L 252.348114 -166.475375 
L 253.633168 -166.475375 
L 254.918223 -166.475375 
L 256.203277 -166.475375 
L 257.488332 -166.475375 
L 258.773386 -166.475375 
L 260.05844 -166.475375 
L 261.343495 -166.475375 
L 262.628549 -166.475375 
L 263.913603 -166.475375 
L 265.198658 -166.475375 
L 266.483712 -166.475375 
L 267.768767 -166.475375 
L 269.053821 -166.475375 
L 270.338875 -166.475375 
L 271.62393 -166.475375 
L 272.908984 -166.475375 
L 274.194039 -166.475375 
L 275.479093 -166.475375 
L 276.764147 -166.475375 
L 278.049202 -166.475375 
L 279.334256 -166.475375 
L 280.61931 -166.475375 
L 281.904365 -166.475375 
L 283.189419 -166.475375 
L 284.474474 -166.475375 
L 285.759528 -166.475375 
L 287.044582 -166.475375 
L 288.329637 -166.475375 
L 289.614691 -166.475375 
L 290.899745 -166.475375 
L 292.1848 -166.475375 
L 293.469854 -166.475375 
L 294.754909 -166.475375 
L 296.039963 -166.475375 
L 296.039963 -166.4762 
L 296.039963 -166.4762 
L 294.754909 -166.477902 
L 293.469854 -166.481972 
L 292.1848 -166.490053 
L 290.899745 -166.503211 
L 289.614691 -166.520367 
L 288.329637 -166.537361 
L 287.044582 -166.548165 
L 285.759528 -166.548231 
L 284.474474 -166.53753 
L 283.189419 -166.520571 
L 281.904365 -166.503387 
L 280.61931 -166.490173 
L 279.334256 -166.482038 
L 278.049202 -166.477932 
L 276.764147 -166.476212 
L 275.479093 -166.475608 
L 274.194039 -166.47543 
L 272.908984 -166.475386 
L 271.62393 -166.475377 
L 270.338875 -166.475375 
L 269.053821 -166.475375 
L 267.768767 -166.475375 
L 266.483712 -166.475375 
L 265.198658 -166.475375 
L 263.913603 -166.475375 
L 262.628549 -166.475376 
L 261.343495 -166.475378 
L 260.05844 -166.475394 
L 258.773386 -166.475464 
L 257.488332 -166.475731 
L 256.203277 -166.47659 
L 254.918223 -166.478904 
L 253.633168 -166.484115 
L 252.348114 -166.493831 
L 251.06306 -166.508617 
L 249.778005 -166.526517 
L 248.492951 -166.542856 
L 247.207897 -166.552635 
L 245.922842 -166.554553 
L 244.637788 -166.553313 
L 243.352733 -166.557312 
L 242.067679 -166.572432 
L 240.782625 -166.596447 
L 239.49757 -166.618994 
L 238.212516 -166.628288 
L 236.927461 -166.620101 
L 235.642407 -166.601907 
L 234.357353 -166.5887 
L 233.072298 -166.593802 
L 231.787244 -166.621476 
L 230.50219 -166.665962 
L 229.217135 -166.7166 
L 227.932081 -166.764563 
L 226.647026 -166.805807 
L 225.361972 -166.838405 
L 224.076918 -166.858378 
L 222.791863 -166.860021 
L 221.506809 -166.841334 
L 220.221755 -166.808534 
L 218.9367 -166.774279 
L 217.651646 -166.751056 
L 216.366591 -166.745485 
L 215.081537 -166.757007 
L 213.796483 -166.779959 
L 212.511428 -166.806207 
L 211.226374 -166.8268 
L 209.941319 -166.83333 
L 208.656265 -166.820576 
L 207.371211 -166.790054 
L 206.086156 -166.751485 
L 204.801102 -166.719795 
L 203.516048 -166.708849 
L 202.230993 -166.725682 
L 200.945939 -166.768456 
L 199.660884 -166.829596 
L 198.37583 -166.902901 
L 197.090776 -166.989983 
L 195.805721 -167.099944 
L 194.520667 -167.240722 
L 193.235613 -167.408666 
L 191.950558 -167.585275 
L 190.665504 -167.742865 
L 189.380449 -167.853779 
L 188.095395 -167.899376 
L 186.810341 -167.879042 
L 185.525286 -167.816037 
L 184.240232 -167.752012 
L 182.955177 -167.72805 
L 181.670123 -167.76378 
L 180.385069 -167.850914 
L 179.100014 -167.965864 
L 177.81496 -168.089692 
L 176.529906 -168.219602 
L 175.244851 -168.366681 
L 173.959797 -168.545679 
L 172.674742 -168.763516 
L 171.389688 -169.009642 
L 170.104634 -169.253113 
L 168.819579 -169.453689 
L 167.534525 -169.585956 
L 166.249471 -169.659719 
L 164.964416 -169.71642 
L 163.679362 -169.799974 
L 162.394307 -169.9251 
L 161.109253 -170.070777 
L 159.824199 -170.204409 
L 158.539144 -170.313988 
L 157.25409 -170.418966 
L 155.969035 -170.553144 
L 154.683981 -170.74181 
L 153.398927 -170.996982 
L 152.113872 -171.325767 
L 150.828818 -171.727363 
L 149.543764 -172.175371 
L 148.258709 -172.614268 
L 146.973655 -172.989552 
L 145.6886 -173.287472 
L 144.403546 -173.544046 
L 143.118492 -173.817131 
L 141.833437 -174.151649 
L 140.548383 -174.56275 
L 139.263329 -175.035413 
L 137.978274 -175.532215 
L 136.69322 -176.010241 
L 135.408165 -176.44321 
L 134.123111 -176.829378 
L 132.838057 -177.173209 
L 131.553002 -177.461738 
L 130.267948 -177.671536 
L 128.982893 -177.809974 
L 127.697839 -177.947157 
L 126.412785 -178.191751 
L 125.12773 -178.617148 
L 123.842676 -179.199273 
L 122.557622 -179.823023 
L 121.272567 -180.354193 
L 119.987513 -180.719534 
L 118.702458 -180.938517 
L 117.417404 -181.094722 
L 116.13235 -181.276095 
L 114.847295 -181.525648 
L 113.562241 -181.831657 
L 112.277187 -182.158509 
L 110.992132 -182.487896 
L 109.707078 -182.83137 
L 108.422023 -183.204883 
L 107.136969 -183.595859 
L 105.851915 -183.959154 
L 104.56686 -184.246164 
L 103.281806 -184.438105 
L 101.996752 -184.552402 
L 100.711697 -184.619728 
L 99.426643 -184.65812 
L 98.141588 -184.667953 
L 96.856534 -184.644646 
L 95.57148 -184.59093 
L 94.286425 -184.517095 
L 93.001371 -184.426617 
L 91.716316 -184.29413 
L 90.431262 -184.058421 
L 89.146208 -183.651462 
L 87.861153 -183.048498 
L 86.576099 -182.292069 
L 85.291045 -181.462274 
L 84.00599 -180.620088 
L 82.720936 -179.776643 
L 81.435881 -178.910542 
L 80.150827 -178.006163 
L 78.865773 -177.072411 
L 77.580718 -176.131241 
L 76.295664 -175.199592 
L 75.01061 -174.290241 
L 73.725555 -173.428573 
L 72.440501 -172.658479 
L 71.155446 -172.020798 
L 69.870392 -171.520619 
L 68.585338 -171.115718 
L 67.300283 -170.738749 
L 66.015229 -170.334574 
L 64.730174 -169.884329 
L 63.44512 -169.403852 
L 62.160066 -168.924841 
L 60.875011 -168.47478 
L 59.589957 -168.066774 
L 58.304903 -167.701948 
L 57.019848 -167.379615 
L 55.734794 -167.105517 
L 54.449739 -166.89037 
L 53.164685 -166.740304 
L 51.879631 -166.648847 
L 50.594576 -166.598125 
L 49.309522 -166.567836 
L 48.024468 -166.544154 
L 46.739413 -166.522415 
L 45.454359 -166.503748 
L 44.169304 -166.490176 
L 42.88425 -166.481997 
L 41.599196 -166.477907 
L 40.314141 -166.476201 
z
" id="m0cb3227e4d" style="stroke:#5b89a2;stroke-width:1.5;"/>
    </defs>
    <g>
     <use style="fill:#5b89a2;stroke:#5b89a2;stroke-width:1.5;" x="0" xlink:href="#m0cb3227e4d" y="311.267375"/>
    </g>
   </g>
   <g id="line2d_7">
    <path d="M 40.314141 144.791174 
L 50.594576 144.66925 
L 53.164685 144.527071 
L 55.734794 144.161858 
L 58.304903 143.565427 
L 60.875011 142.792595 
L 71.155446 139.246577 
L 72.440501 138.608896 
L 75.01061 136.977134 
L 85.291045 129.805101 
L 87.861153 128.218877 
L 89.146208 127.615913 
L 90.431262 127.208954 
L 93.001371 126.840758 
L 96.856534 126.622729 
L 100.711697 126.647647 
L 103.281806 126.82927 
L 105.851915 127.308221 
L 114.847295 129.741727 
L 117.417404 130.172653 
L 119.987513 130.547841 
L 121.272567 130.913182 
L 123.842676 132.068102 
L 125.12773 132.650227 
L 126.412785 133.075624 
L 128.982893 133.457401 
L 131.553002 133.805637 
L 134.123111 134.437997 
L 136.69322 135.257134 
L 141.833437 137.115726 
L 144.403546 137.723329 
L 146.973655 138.277823 
L 149.543764 139.092004 
L 152.113872 139.941608 
L 154.683981 140.525565 
L 157.25409 140.848409 
L 168.819579 141.813686 
L 177.81496 143.177683 
L 181.670123 143.503595 
L 184.240232 143.515363 
L 188.095395 143.367999 
L 190.665504 143.52451 
L 198.37583 144.364474 
L 203.516048 144.558526 
L 226.647026 144.461568 
L 235.642407 144.665468 
L 240.782625 144.670928 
L 251.06306 144.758758 
L 262.628549 144.791999 
L 296.039963 144.791175 
L 296.039963 144.791175 
" style="fill:none;stroke:#ffffff;stroke-linecap:round;stroke-width:2;"/>
   </g>
   <g id="line2d_8">
    <path d="M 11.568896 144.792 
L 346.368896 144.792 
" style="fill:none;stroke:#5b89a2;stroke-linecap:round;stroke-width:2;"/>
   </g>
   <g id="text_4">
    <!-- 0.2 -->
    <g style="fill:#5b89a2;" transform="translate(262.668896 142.9473)scale(0.24 -0.24)">
     <defs>
      <path d="M 1844 884 
L 3897 884 
L 3897 0 
L 506 0 
L 506 884 
L 2209 2388 
Q 2438 2594 2547 2791 
Q 2656 2988 2656 3200 
Q 2656 3528 2436 3728 
Q 2216 3928 1850 3928 
Q 1569 3928 1234 3808 
Q 900 3688 519 3450 
L 519 4475 
Q 925 4609 1322 4679 
Q 1719 4750 2100 4750 
Q 2938 4750 3402 4381 
Q 3866 4013 3866 3353 
Q 3866 2972 3669 2642 
Q 3472 2313 2841 1759 
L 1844 884 
z
" id="DejaVuSans-Bold-32" transform="scale(0.015625)"/>
     </defs>
     <use xlink:href="#DejaVuSans-Bold-30"/>
     <use x="69.580078" xlink:href="#DejaVuSans-Bold-2e"/>
     <use x="107.568359" xlink:href="#DejaVuSans-Bold-32"/>
    </g>
   </g>
  </g>
  <g id="axes_5">
   <g id="patch_6">
    <path d="M 11.568896 176.544 
L 346.368896 176.544 
L 346.368896 134.208 
L 11.568896 134.208 
z
" style="fill:none;"/>
   </g>
   <g id="matplotlib.axis_9">
    <g id="xtick_13"/>
    <g id="xtick_14"/>
    <g id="xtick_15"/>
   </g>
   <g id="matplotlib.axis_10"/>
   <g id="PolyCollection_5">
    <defs>
     <path d="M 36.121311 -134.724608 
L 36.121311 -134.723375 
L 37.489617 -134.723375 
L 38.857923 -134.723375 
L 40.226229 -134.723375 
L 41.594535 -134.723375 
L 42.962841 -134.723375 
L 44.331147 -134.723375 
L 45.699453 -134.723375 
L 47.06776 -134.723375 
L 48.436066 -134.723375 
L 49.804372 -134.723375 
L 51.172678 -134.723375 
L 52.540984 -134.723375 
L 53.90929 -134.723375 
L 55.277596 -134.723375 
L 56.645902 -134.723375 
L 58.014208 -134.723375 
L 59.382514 -134.723375 
L 60.750821 -134.723375 
L 62.119127 -134.723375 
L 63.487433 -134.723375 
L 64.855739 -134.723375 
L 66.224045 -134.723375 
L 67.592351 -134.723375 
L 68.960657 -134.723375 
L 70.328963 -134.723375 
L 71.697269 -134.723375 
L 73.065575 -134.723375 
L 74.433881 -134.723375 
L 75.802188 -134.723375 
L 77.170494 -134.723375 
L 78.5388 -134.723375 
L 79.907106 -134.723375 
L 81.275412 -134.723375 
L 82.643718 -134.723375 
L 84.012024 -134.723375 
L 85.38033 -134.723375 
L 86.748636 -134.723375 
L 88.116942 -134.723375 
L 89.485249 -134.723375 
L 90.853555 -134.723375 
L 92.221861 -134.723375 
L 93.590167 -134.723375 
L 94.958473 -134.723375 
L 96.326779 -134.723375 
L 97.695085 -134.723375 
L 99.063391 -134.723375 
L 100.431697 -134.723375 
L 101.800003 -134.723375 
L 103.16831 -134.723375 
L 104.536616 -134.723375 
L 105.904922 -134.723375 
L 107.273228 -134.723375 
L 108.641534 -134.723375 
L 110.00984 -134.723375 
L 111.378146 -134.723375 
L 112.746452 -134.723375 
L 114.114758 -134.723375 
L 115.483064 -134.723375 
L 116.85137 -134.723375 
L 118.219677 -134.723375 
L 119.587983 -134.723375 
L 120.956289 -134.723375 
L 122.324595 -134.723375 
L 123.692901 -134.723375 
L 125.061207 -134.723375 
L 126.429513 -134.723375 
L 127.797819 -134.723375 
L 129.166125 -134.723375 
L 130.534431 -134.723375 
L 131.902738 -134.723375 
L 133.271044 -134.723375 
L 134.63935 -134.723375 
L 136.007656 -134.723375 
L 137.375962 -134.723375 
L 138.744268 -134.723375 
L 140.112574 -134.723375 
L 141.48088 -134.723375 
L 142.849186 -134.723375 
L 144.217492 -134.723375 
L 145.585799 -134.723375 
L 146.954105 -134.723375 
L 148.322411 -134.723375 
L 149.690717 -134.723375 
L 151.059023 -134.723375 
L 152.427329 -134.723375 
L 153.795635 -134.723375 
L 155.163941 -134.723375 
L 156.532247 -134.723375 
L 157.900553 -134.723375 
L 159.268859 -134.723375 
L 160.637166 -134.723375 
L 162.005472 -134.723375 
L 163.373778 -134.723375 
L 164.742084 -134.723375 
L 166.11039 -134.723375 
L 167.478696 -134.723375 
L 168.847002 -134.723375 
L 170.215308 -134.723375 
L 171.583614 -134.723375 
L 172.95192 -134.723375 
L 174.320227 -134.723375 
L 175.688533 -134.723375 
L 177.056839 -134.723375 
L 178.425145 -134.723375 
L 179.793451 -134.723375 
L 181.161757 -134.723375 
L 182.530063 -134.723375 
L 183.898369 -134.723375 
L 185.266675 -134.723375 
L 186.634981 -134.723375 
L 188.003288 -134.723375 
L 189.371594 -134.723375 
L 190.7399 -134.723375 
L 192.108206 -134.723375 
L 193.476512 -134.723375 
L 194.844818 -134.723375 
L 196.213124 -134.723375 
L 197.58143 -134.723375 
L 198.949736 -134.723375 
L 200.318042 -134.723375 
L 201.686348 -134.723375 
L 203.054655 -134.723375 
L 204.422961 -134.723375 
L 205.791267 -134.723375 
L 207.159573 -134.723375 
L 208.527879 -134.723375 
L 209.896185 -134.723375 
L 211.264491 -134.723375 
L 212.632797 -134.723375 
L 214.001103 -134.723375 
L 215.369409 -134.723375 
L 216.737716 -134.723375 
L 218.106022 -134.723375 
L 219.474328 -134.723375 
L 220.842634 -134.723375 
L 222.21094 -134.723375 
L 223.579246 -134.723375 
L 224.947552 -134.723375 
L 226.315858 -134.723375 
L 227.684164 -134.723375 
L 229.05247 -134.723375 
L 230.420777 -134.723375 
L 231.789083 -134.723375 
L 233.157389 -134.723375 
L 234.525695 -134.723375 
L 235.894001 -134.723375 
L 237.262307 -134.723375 
L 238.630613 -134.723375 
L 239.998919 -134.723375 
L 241.367225 -134.723375 
L 242.735531 -134.723375 
L 244.103837 -134.723375 
L 245.472144 -134.723375 
L 246.84045 -134.723375 
L 248.208756 -134.723375 
L 249.577062 -134.723375 
L 250.945368 -134.723375 
L 252.313674 -134.723375 
L 253.68198 -134.723375 
L 255.050286 -134.723375 
L 256.418592 -134.723375 
L 257.786898 -134.723375 
L 259.155205 -134.723375 
L 260.523511 -134.723375 
L 261.891817 -134.723375 
L 263.260123 -134.723375 
L 264.628429 -134.723375 
L 265.996735 -134.723375 
L 267.365041 -134.723375 
L 268.733347 -134.723375 
L 270.101653 -134.723375 
L 271.469959 -134.723375 
L 272.838266 -134.723375 
L 274.206572 -134.723375 
L 275.574878 -134.723375 
L 276.943184 -134.723375 
L 278.31149 -134.723375 
L 279.679796 -134.723375 
L 281.048102 -134.723375 
L 282.416408 -134.723375 
L 283.784714 -134.723375 
L 285.15302 -134.723375 
L 286.521326 -134.723375 
L 287.889633 -134.723375 
L 289.257939 -134.723375 
L 290.626245 -134.723375 
L 291.994551 -134.723375 
L 293.362857 -134.723375 
L 294.731163 -134.723375 
L 296.099469 -134.723375 
L 297.467775 -134.723375 
L 298.836081 -134.723375 
L 300.204387 -134.723375 
L 301.572694 -134.723375 
L 302.941 -134.723375 
L 304.309306 -134.723375 
L 305.677612 -134.723375 
L 307.045918 -134.723375 
L 308.414224 -134.723375 
L 308.414224 -134.724121 
L 308.414224 -134.724121 
L 307.045918 -134.725573 
L 305.677612 -134.728959 
L 304.309306 -134.735608 
L 302.941 -134.746486 
L 301.572694 -134.761027 
L 300.204387 -134.776274 
L 298.836081 -134.787467 
L 297.467775 -134.79034 
L 296.099469 -134.783713 
L 294.731163 -134.770258 
L 293.362857 -134.75479 
L 291.994551 -134.741528 
L 290.626245 -134.732421 
L 289.257939 -134.727263 
L 287.889633 -134.724817 
L 286.521326 -134.723841 
L 285.15302 -134.72353 
L 283.784714 -134.723523 
L 282.416408 -134.723813 
L 281.048102 -134.724738 
L 279.679796 -134.727079 
L 278.31149 -134.732067 
L 276.943184 -134.740978 
L 275.574878 -134.754175 
L 274.206572 -134.770057 
L 272.838266 -134.785056 
L 271.469959 -134.79549 
L 270.101653 -134.80045 
L 268.733347 -134.803316 
L 267.365041 -134.810017 
L 265.996735 -134.824863 
L 264.628429 -134.847073 
L 263.260123 -134.87066 
L 261.891817 -134.887597 
L 260.523511 -134.891803 
L 259.155205 -134.881553 
L 257.786898 -134.859685 
L 256.418592 -134.832371 
L 255.050286 -134.807117 
L 253.68198 -134.790231 
L 252.313674 -134.784284 
L 250.945368 -134.786866 
L 249.577062 -134.791781 
L 248.208756 -134.79247 
L 246.84045 -134.785637 
L 245.472144 -134.772725 
L 244.103837 -134.758591 
L 242.735531 -134.749005 
L 241.367225 -134.749122 
L 239.998919 -134.763334 
L 238.630613 -134.795061 
L 237.262307 -134.845043 
L 235.894001 -134.908713 
L 234.525695 -134.975122 
L 233.157389 -135.029583 
L 231.789083 -135.059535 
L 230.420777 -135.060482 
L 229.05247 -135.038552 
L 227.684164 -135.008274 
L 226.315858 -134.986666 
L 224.947552 -134.986381 
L 223.579246 -135.011052 
L 222.21094 -135.055024 
L 220.842634 -135.107123 
L 219.474328 -135.155563 
L 218.106022 -135.191144 
L 216.737716 -135.208447 
L 215.369409 -135.206683 
L 214.001103 -135.191031 
L 212.632797 -135.173334 
L 211.264491 -135.170504 
L 209.896185 -135.199992 
L 208.527879 -135.273102 
L 207.159573 -135.388379 
L 205.791267 -135.528753 
L 204.422961 -135.666053 
L 203.054655 -135.773085 
L 201.686348 -135.837652 
L 200.318042 -135.869558 
L 198.949736 -135.895166 
L 197.58143 -135.942629 
L 196.213124 -136.026879 
L 194.844818 -136.141908 
L 193.476512 -136.262443 
L 192.108206 -136.353801 
L 190.7399 -136.387365 
L 189.371594 -136.355758 
L 188.003288 -136.278656 
L 186.634981 -136.19418 
L 185.266675 -136.14133 
L 183.898369 -136.145033 
L 182.530063 -136.210796 
L 181.161757 -136.327816 
L 179.793451 -136.47685 
L 178.425145 -136.64041 
L 177.056839 -136.811173 
L 175.688533 -136.992319 
L 174.320227 -137.188075 
L 172.95192 -137.392341 
L 171.583614 -137.58692 
L 170.215308 -137.75283 
L 168.847002 -137.885853 
L 167.478696 -138.002898 
L 166.11039 -138.133324 
L 164.742084 -138.301488 
L 163.373778 -138.5124 
L 162.005472 -138.748426 
L 160.637166 -138.978252 
L 159.268859 -139.174696 
L 157.900553 -139.333366 
L 156.532247 -139.479613 
L 155.163941 -139.654515 
L 153.795635 -139.885657 
L 152.427329 -140.163653 
L 151.059023 -140.444026 
L 149.690717 -140.67469 
L 148.322411 -140.829844 
L 146.954105 -140.928951 
L 145.585799 -141.032275 
L 144.217492 -141.217693 
L 142.849186 -141.549372 
L 141.48088 -142.049871 
L 140.112574 -142.686128 
L 138.744268 -143.376669 
L 137.375962 -144.021614 
L 136.007656 -144.546849 
L 134.63935 -144.940443 
L 133.271044 -145.255189 
L 131.902738 -145.569229 
L 130.534431 -145.930142 
L 129.166125 -146.326462 
L 127.797819 -146.709412 
L 126.429513 -147.040479 
L 125.061207 -147.316277 
L 123.692901 -147.551495 
L 122.324595 -147.749941 
L 120.956289 -147.902329 
L 119.587983 -148.010405 
L 118.219677 -148.104283 
L 116.85137 -148.231663 
L 115.483064 -148.430696 
L 114.114758 -148.7114 
L 112.746452 -149.056661 
L 111.378146 -149.43452 
L 110.00984 -149.807497 
L 108.641534 -150.135631 
L 107.273228 -150.384622 
L 105.904922 -150.547591 
L 104.536616 -150.665994 
L 103.16831 -150.820863 
L 101.800003 -151.085626 
L 100.431697 -151.46986 
L 99.063391 -151.897806 
L 97.695085 -152.240794 
L 96.326779 -152.382846 
L 94.958473 -152.276021 
L 93.590167 -151.951142 
L 92.221861 -151.483235 
L 90.853555 -150.943433 
L 89.485249 -150.37262 
L 88.116942 -149.785755 
L 86.748636 -149.188475 
L 85.38033 -148.584782 
L 84.012024 -147.972441 
L 82.643718 -147.338286 
L 81.275412 -146.663908 
L 79.907106 -145.939135 
L 78.5388 -145.17219 
L 77.170494 -144.388536 
L 75.802188 -143.619715 
L 74.433881 -142.891076 
L 73.065575 -142.217296 
L 71.697269 -141.605847 
L 70.328963 -141.058776 
L 68.960657 -140.565468 
L 67.592351 -140.093718 
L 66.224045 -139.59557 
L 64.855739 -139.032805 
L 63.487433 -138.404635 
L 62.119127 -137.752607 
L 60.750821 -137.136193 
L 59.382514 -136.599284 
L 58.014208 -136.15471 
L 56.645902 -135.794274 
L 55.277596 -135.50782 
L 53.90929 -135.291603 
L 52.540984 -135.14272 
L 51.172678 -135.050888 
L 49.804372 -134.997433 
L 48.436066 -134.96136 
L 47.06776 -134.926676 
L 45.699453 -134.886472 
L 44.331147 -134.842471 
L 42.962841 -134.801008 
L 41.594535 -134.768006 
L 40.226229 -134.745831 
L 38.857923 -134.733215 
L 37.489617 -134.727118 
L 36.121311 -134.724608 
z
" id="m860aa6c38d" style="stroke:#6b9daf;stroke-width:1.5;"/>
    </defs>
    <g>
     <use style="fill:#6b9daf;stroke:#6b9daf;stroke-width:1.5;" x="0" xlink:href="#m860aa6c38d" y="311.267375"/>
    </g>
   </g>
   <g id="line2d_9">
    <path d="M 36.121311 176.542767 
L 44.331147 176.424904 
L 52.540984 176.124655 
L 55.277596 175.759555 
L 58.014208 175.112665 
L 60.750821 174.131182 
L 66.224045 171.671805 
L 71.697269 169.661528 
L 74.433881 168.376299 
L 78.5388 166.095185 
L 81.275412 164.603467 
L 85.38033 162.682593 
L 92.221861 159.78414 
L 93.590167 159.316233 
L 94.958473 158.991354 
L 96.326779 158.884529 
L 97.695085 159.026581 
L 100.431697 159.797515 
L 101.800003 160.181749 
L 104.536616 160.601381 
L 107.273228 160.882753 
L 110.00984 161.459878 
L 115.483064 162.836679 
L 118.219677 163.163092 
L 122.324595 163.517434 
L 125.061207 163.951098 
L 127.797819 164.557963 
L 133.271044 166.012186 
L 136.007656 166.720526 
L 137.375962 167.245761 
L 142.849186 169.718003 
L 144.217492 170.049682 
L 146.954105 170.338424 
L 149.690717 170.592685 
L 157.900553 171.934009 
L 162.005472 172.518949 
L 166.11039 173.134051 
L 172.95192 173.875034 
L 179.793451 174.790525 
L 182.530063 175.056579 
L 185.266675 175.126045 
L 192.108206 174.913574 
L 200.318042 175.397817 
L 204.422961 175.601322 
L 209.896185 176.067383 
L 214.001103 176.076344 
L 219.474328 176.111812 
L 226.315858 176.280709 
L 233.157389 176.237792 
L 242.735531 176.51837 
L 265.996735 176.442512 
L 285.15302 176.543845 
L 308.414224 176.543254 
L 308.414224 176.543254 
" style="fill:none;stroke:#ffffff;stroke-linecap:round;stroke-width:2;"/>
   </g>
   <g id="line2d_10">
    <path d="M 11.568896 176.544 
L 346.368896 176.544 
" style="fill:none;stroke:#6b9daf;stroke-linecap:round;stroke-width:2;"/>
   </g>
   <g id="text_5">
    <!-- 0.25 -->
    <g style="fill:#6b9daf;" transform="translate(262.668896 174.6993)scale(0.24 -0.24)">
     <use xlink:href="#DejaVuSans-Bold-30"/>
     <use x="69.580078" xlink:href="#DejaVuSans-Bold-2e"/>
     <use x="107.568359" xlink:href="#DejaVuSans-Bold-32"/>
     <use x="177.148438" xlink:href="#DejaVuSans-Bold-35"/>
    </g>
   </g>
  </g>
  <g id="axes_6">
   <g id="patch_7">
    <path d="M 11.568896 208.296 
L 346.368896 208.296 
L 346.368896 165.96 
L 11.568896 165.96 
z
" style="fill:none;"/>
   </g>
   <g id="matplotlib.axis_11">
    <g id="xtick_16"/>
    <g id="xtick_17"/>
    <g id="xtick_18"/>
   </g>
   <g id="matplotlib.axis_12"/>
   <g id="PolyCollection_6">
    <defs>
     <path d="M 34.265281 -102.972319 
L 34.265281 -102.971375 
L 35.608255 -102.971375 
L 36.951228 -102.971375 
L 38.294202 -102.971375 
L 39.637175 -102.971375 
L 40.980149 -102.971375 
L 42.323122 -102.971375 
L 43.666096 -102.971375 
L 45.009069 -102.971375 
L 46.352043 -102.971375 
L 47.695016 -102.971375 
L 49.03799 -102.971375 
L 50.380963 -102.971375 
L 51.723937 -102.971375 
L 53.06691 -102.971375 
L 54.409884 -102.971375 
L 55.752857 -102.971375 
L 57.095831 -102.971375 
L 58.438804 -102.971375 
L 59.781778 -102.971375 
L 61.124751 -102.971375 
L 62.467725 -102.971375 
L 63.810698 -102.971375 
L 65.153672 -102.971375 
L 66.496645 -102.971375 
L 67.839619 -102.971375 
L 69.182592 -102.971375 
L 70.525566 -102.971375 
L 71.868539 -102.971375 
L 73.211513 -102.971375 
L 74.554487 -102.971375 
L 75.89746 -102.971375 
L 77.240434 -102.971375 
L 78.583407 -102.971375 
L 79.926381 -102.971375 
L 81.269354 -102.971375 
L 82.612328 -102.971375 
L 83.955301 -102.971375 
L 85.298275 -102.971375 
L 86.641248 -102.971375 
L 87.984222 -102.971375 
L 89.327195 -102.971375 
L 90.670169 -102.971375 
L 92.013142 -102.971375 
L 93.356116 -102.971375 
L 94.699089 -102.971375 
L 96.042063 -102.971375 
L 97.385036 -102.971375 
L 98.72801 -102.971375 
L 100.070983 -102.971375 
L 101.413957 -102.971375 
L 102.75693 -102.971375 
L 104.099904 -102.971375 
L 105.442877 -102.971375 
L 106.785851 -102.971375 
L 108.128824 -102.971375 
L 109.471798 -102.971375 
L 110.814771 -102.971375 
L 112.157745 -102.971375 
L 113.500718 -102.971375 
L 114.843692 -102.971375 
L 116.186665 -102.971375 
L 117.529639 -102.971375 
L 118.872612 -102.971375 
L 120.215586 -102.971375 
L 121.558559 -102.971375 
L 122.901533 -102.971375 
L 124.244506 -102.971375 
L 125.58748 -102.971375 
L 126.930453 -102.971375 
L 128.273427 -102.971375 
L 129.616401 -102.971375 
L 130.959374 -102.971375 
L 132.302348 -102.971375 
L 133.645321 -102.971375 
L 134.988295 -102.971375 
L 136.331268 -102.971375 
L 137.674242 -102.971375 
L 139.017215 -102.971375 
L 140.360189 -102.971375 
L 141.703162 -102.971375 
L 143.046136 -102.971375 
L 144.389109 -102.971375 
L 145.732083 -102.971375 
L 147.075056 -102.971375 
L 148.41803 -102.971375 
L 149.761003 -102.971375 
L 151.103977 -102.971375 
L 152.44695 -102.971375 
L 153.789924 -102.971375 
L 155.132897 -102.971375 
L 156.475871 -102.971375 
L 157.818844 -102.971375 
L 159.161818 -102.971375 
L 160.504791 -102.971375 
L 161.847765 -102.971375 
L 163.190738 -102.971375 
L 164.533712 -102.971375 
L 165.876685 -102.971375 
L 167.219659 -102.971375 
L 168.562632 -102.971375 
L 169.905606 -102.971375 
L 171.248579 -102.971375 
L 172.591553 -102.971375 
L 173.934526 -102.971375 
L 175.2775 -102.971375 
L 176.620473 -102.971375 
L 177.963447 -102.971375 
L 179.30642 -102.971375 
L 180.649394 -102.971375 
L 181.992367 -102.971375 
L 183.335341 -102.971375 
L 184.678315 -102.971375 
L 186.021288 -102.971375 
L 187.364262 -102.971375 
L 188.707235 -102.971375 
L 190.050209 -102.971375 
L 191.393182 -102.971375 
L 192.736156 -102.971375 
L 194.079129 -102.971375 
L 195.422103 -102.971375 
L 196.765076 -102.971375 
L 198.10805 -102.971375 
L 199.451023 -102.971375 
L 200.793997 -102.971375 
L 202.13697 -102.971375 
L 203.479944 -102.971375 
L 204.822917 -102.971375 
L 206.165891 -102.971375 
L 207.508864 -102.971375 
L 208.851838 -102.971375 
L 210.194811 -102.971375 
L 211.537785 -102.971375 
L 212.880758 -102.971375 
L 214.223732 -102.971375 
L 215.566705 -102.971375 
L 216.909679 -102.971375 
L 218.252652 -102.971375 
L 219.595626 -102.971375 
L 220.938599 -102.971375 
L 222.281573 -102.971375 
L 223.624546 -102.971375 
L 224.96752 -102.971375 
L 226.310493 -102.971375 
L 227.653467 -102.971375 
L 228.99644 -102.971375 
L 230.339414 -102.971375 
L 231.682387 -102.971375 
L 233.025361 -102.971375 
L 234.368334 -102.971375 
L 235.711308 -102.971375 
L 237.054281 -102.971375 
L 238.397255 -102.971375 
L 239.740228 -102.971375 
L 241.083202 -102.971375 
L 242.426176 -102.971375 
L 243.769149 -102.971375 
L 245.112123 -102.971375 
L 246.455096 -102.971375 
L 247.79807 -102.971375 
L 249.141043 -102.971375 
L 250.484017 -102.971375 
L 251.82699 -102.971375 
L 253.169964 -102.971375 
L 254.512937 -102.971375 
L 255.855911 -102.971375 
L 257.198884 -102.971375 
L 258.541858 -102.971375 
L 259.884831 -102.971375 
L 261.227805 -102.971375 
L 262.570778 -102.971375 
L 263.913752 -102.971375 
L 265.256725 -102.971375 
L 266.599699 -102.971375 
L 267.942672 -102.971375 
L 269.285646 -102.971375 
L 270.628619 -102.971375 
L 271.971593 -102.971375 
L 273.314566 -102.971375 
L 274.65754 -102.971375 
L 276.000513 -102.971375 
L 277.343487 -102.971375 
L 278.68646 -102.971375 
L 280.029434 -102.971375 
L 281.372407 -102.971375 
L 282.715381 -102.971375 
L 284.058354 -102.971375 
L 285.401328 -102.971375 
L 286.744301 -102.971375 
L 288.087275 -102.971375 
L 289.430248 -102.971375 
L 290.773222 -102.971375 
L 292.116195 -102.971375 
L 293.459169 -102.971375 
L 294.802142 -102.971375 
L 296.145116 -102.971375 
L 297.48809 -102.971375 
L 298.831063 -102.971375 
L 300.174037 -102.971375 
L 301.51701 -102.971375 
L 301.51701 -102.972052 
L 301.51701 -102.972052 
L 300.174037 -102.973155 
L 298.831063 -102.975553 
L 297.48809 -102.980147 
L 296.145116 -102.987883 
L 294.802142 -102.999326 
L 293.459169 -103.014208 
L 292.116195 -103.031307 
L 290.773222 -103.048873 
L 289.430248 -103.065374 
L 288.087275 -103.07993 
L 286.744301 -103.092028 
L 285.401328 -103.100818 
L 284.058354 -103.104874 
L 282.715381 -103.102938 
L 281.372407 -103.095152 
L 280.029434 -103.083641 
L 278.68646 -103.071669 
L 277.343487 -103.061816 
L 276.000513 -103.05454 
L 274.65754 -103.048276 
L 273.314566 -103.041057 
L 271.971593 -103.032499 
L 270.628619 -103.024837 
L 269.285646 -103.022496 
L 267.942672 -103.030578 
L 266.599699 -103.052969 
L 265.256725 -103.09061 
L 263.913752 -103.140393 
L 262.570778 -103.195268 
L 261.227805 -103.24604 
L 259.884831 -103.284488 
L 258.541858 -103.306399 
L 257.198884 -103.312786 
L 255.855911 -103.308529 
L 254.512937 -103.299289 
L 253.169964 -103.288549 
L 251.82699 -103.276423 
L 250.484017 -103.260783 
L 249.141043 -103.23992 
L 247.79807 -103.215082 
L 246.455096 -103.19118 
L 245.112123 -103.174955 
L 243.769149 -103.171503 
L 242.426176 -103.18125 
L 241.083202 -103.199282 
L 239.740228 -103.217469 
L 238.397255 -103.228155 
L 237.054281 -103.227391 
L 235.711308 -103.216145 
L 234.368334 -103.199105 
L 233.025361 -103.181954 
L 231.682387 -103.168658 
L 230.339414 -103.160242 
L 228.99644 -103.155687 
L 227.653467 -103.154298 
L 226.310493 -103.157849 
L 224.96752 -103.17092 
L 223.624546 -103.199062 
L 222.281573 -103.245943 
L 220.938599 -103.311173 
L 219.595626 -103.389866 
L 218.252652 -103.474032 
L 216.909679 -103.555359 
L 215.566705 -103.628628 
L 214.223732 -103.694459 
L 212.880758 -103.759604 
L 211.537785 -103.833594 
L 210.194811 -103.922607 
L 208.851838 -104.023817 
L 207.508864 -104.123975 
L 206.165891 -104.203814 
L 204.822917 -104.246345 
L 203.479944 -104.244754 
L 202.13697 -104.206044 
L 200.793997 -104.148782 
L 199.451023 -104.095925 
L 198.10805 -104.065629 
L 196.765076 -104.064055 
L 195.422103 -104.083851 
L 194.079129 -104.109594 
L 192.736156 -104.127891 
L 191.393182 -104.137065 
L 190.050209 -104.151122 
L 188.707235 -104.19507 
L 187.364262 -104.292724 
L 186.021288 -104.452563 
L 184.678315 -104.659742 
L 183.335341 -104.880281 
L 181.992367 -105.076314 
L 180.649394 -105.223499 
L 179.30642 -105.31994 
L 177.963447 -105.382417 
L 176.620473 -105.435143 
L 175.2775 -105.500431 
L 173.934526 -105.596599 
L 172.591553 -105.740658 
L 171.248579 -105.94894 
L 169.905606 -106.231306 
L 168.562632 -106.581385 
L 167.219659 -106.970643 
L 165.876685 -107.353248 
L 164.533712 -107.681691 
L 163.190738 -107.925335 
L 161.847765 -108.081659 
L 160.504791 -108.174744 
L 159.161818 -108.243149 
L 157.818844 -108.323913 
L 156.475871 -108.439283 
L 155.132897 -108.590244 
L 153.789924 -108.758778 
L 152.44695 -108.918689 
L 151.103977 -109.051428 
L 149.761003 -109.159111 
L 148.41803 -109.265712 
L 147.075056 -109.402974 
L 145.732083 -109.588253 
L 144.389109 -109.809299 
L 143.046136 -110.028094 
L 141.703162 -110.202899 
L 140.360189 -110.314612 
L 139.017215 -110.380471 
L 137.674242 -110.446827 
L 136.331268 -110.566184 
L 134.988295 -110.772883 
L 133.645321 -111.0713 
L 132.302348 -111.441393 
L 130.959374 -111.855002 
L 129.616401 -112.290444 
L 128.273427 -112.736064 
L 126.930453 -113.182531 
L 125.58748 -113.611898 
L 124.244506 -113.993819 
L 122.901533 -114.295218 
L 121.558559 -114.501104 
L 120.215586 -114.634976 
L 118.872612 -114.763175 
L 117.529639 -114.973935 
L 116.186665 -115.337806 
L 114.843692 -115.870739 
L 113.500718 -116.522057 
L 112.157745 -117.194359 
L 110.814771 -117.782634 
L 109.471798 -118.210523 
L 108.128824 -118.447799 
L 106.785851 -118.507171 
L 105.442877 -118.428896 
L 104.099904 -118.263394 
L 102.75693 -118.057718 
L 101.413957 -117.847036 
L 100.070983 -117.650239 
L 98.72801 -117.469313 
L 97.385036 -117.293266 
L 96.042063 -117.10702 
L 94.699089 -116.903289 
L 93.356116 -116.692498 
L 92.013142 -116.504939 
L 90.670169 -116.381991 
L 89.327195 -116.358443 
L 87.984222 -116.443315 
L 86.641248 -116.60874 
L 85.298275 -116.793408 
L 83.955301 -116.920091 
L 82.612328 -116.920159 
L 81.269354 -116.755176 
L 79.926381 -116.426643 
L 78.583407 -115.969078 
L 77.240434 -115.429067 
L 75.89746 -114.841747 
L 74.554487 -114.219107 
L 73.211513 -113.556085 
L 71.868539 -112.846682 
L 70.525566 -112.095912 
L 69.182592 -111.320043 
L 67.839619 -110.538712 
L 66.496645 -109.767262 
L 65.153672 -109.014148 
L 63.810698 -108.283176 
L 62.467725 -107.578154 
L 61.124751 -106.90745 
L 59.781778 -106.285708 
L 58.438804 -105.730605 
L 57.095831 -105.255463 
L 55.752857 -104.862309 
L 54.409884 -104.540509 
L 53.06691 -104.272119 
L 51.723937 -104.040017 
L 50.380963 -103.833441 
L 49.03799 -103.648583 
L 47.695016 -103.485848 
L 46.352043 -103.346823 
L 45.009069 -103.232581 
L 43.666096 -103.143109 
L 42.323122 -103.077085 
L 40.980149 -103.03175 
L 39.637175 -103.003116 
L 38.294202 -102.986633 
L 36.951228 -102.978046 
L 35.608255 -102.974017 
L 34.265281 -102.972319 
z
" id="mbdf7e175fd" style="stroke:#7cafbb;stroke-width:1.5;"/>
    </defs>
    <g>
     <use style="fill:#7cafbb;stroke:#7cafbb;stroke-width:1.5;" x="0" xlink:href="#mbdf7e175fd" y="311.267375"/>
    </g>
   </g>
   <g id="line2d_11">
    <path d="M 34.265281 208.295056 
L 42.323122 208.19029 
L 46.352043 207.920552 
L 50.380963 207.433934 
L 54.409884 206.726866 
L 57.095831 206.011912 
L 59.781778 204.981667 
L 62.467725 203.689221 
L 66.496645 201.500113 
L 73.211513 197.71129 
L 77.240434 195.838308 
L 79.926381 194.840732 
L 81.269354 194.512199 
L 82.612328 194.347216 
L 83.955301 194.347284 
L 90.670169 194.885384 
L 93.356116 194.574877 
L 102.75693 193.209657 
L 105.442877 192.838479 
L 106.785851 192.760204 
L 108.128824 192.819576 
L 109.471798 193.056852 
L 110.814771 193.484741 
L 113.500718 194.745318 
L 116.186665 195.929569 
L 117.529639 196.29344 
L 120.215586 196.632399 
L 122.901533 196.972157 
L 125.58748 197.655477 
L 133.645321 200.196075 
L 136.331268 200.701191 
L 140.360189 200.952763 
L 143.046136 201.239281 
L 147.075056 201.864401 
L 159.161818 203.024226 
L 161.847765 203.185716 
L 164.533712 203.585684 
L 167.219659 204.296732 
L 169.905606 205.036069 
L 172.591553 205.526717 
L 175.2775 205.766944 
L 181.992367 206.191061 
L 188.707235 207.072305 
L 195.422103 207.183524 
L 199.451023 207.17145 
L 204.822917 207.02103 
L 208.851838 207.243558 
L 215.566705 207.638747 
L 224.96752 208.096455 
L 233.025361 208.085421 
L 241.083202 208.068093 
L 247.79807 208.052293 
L 258.541858 207.960976 
L 265.256725 208.176765 
L 270.628619 208.242538 
L 290.773222 208.218502 
L 301.51701 208.295323 
L 301.51701 208.295323 
" style="fill:none;stroke:#ffffff;stroke-linecap:round;stroke-width:2;"/>
   </g>
   <g id="line2d_12">
    <path d="M 11.568896 208.296 
L 346.368896 208.296 
" style="fill:none;stroke:#7cafbb;stroke-linecap:round;stroke-width:2;"/>
   </g>
   <g id="text_6">
    <!-- 0.3 -->
    <g style="fill:#7cafbb;" transform="translate(262.668896 206.4513)scale(0.24 -0.24)">
     <defs>
      <path d="M 2981 2516 
Q 3453 2394 3698 2092 
Q 3944 1791 3944 1325 
Q 3944 631 3412 270 
Q 2881 -91 1863 -91 
Q 1503 -91 1142 -33 
Q 781 25 428 141 
L 428 1069 
Q 766 900 1098 814 
Q 1431 728 1753 728 
Q 2231 728 2486 893 
Q 2741 1059 2741 1369 
Q 2741 1688 2480 1852 
Q 2219 2016 1709 2016 
L 1228 2016 
L 1228 2791 
L 1734 2791 
Q 2188 2791 2409 2933 
Q 2631 3075 2631 3366 
Q 2631 3634 2415 3781 
Q 2200 3928 1806 3928 
Q 1516 3928 1219 3862 
Q 922 3797 628 3669 
L 628 4550 
Q 984 4650 1334 4700 
Q 1684 4750 2022 4750 
Q 2931 4750 3382 4451 
Q 3834 4153 3834 3553 
Q 3834 3144 3618 2883 
Q 3403 2622 2981 2516 
z
" id="DejaVuSans-Bold-33" transform="scale(0.015625)"/>
     </defs>
     <use xlink:href="#DejaVuSans-Bold-30"/>
     <use x="69.580078" xlink:href="#DejaVuSans-Bold-2e"/>
     <use x="107.568359" xlink:href="#DejaVuSans-Bold-33"/>
    </g>
   </g>
  </g>
  <g id="axes_7">
   <g id="patch_8">
    <path d="M 11.568896 240.048 
L 346.368896 240.048 
L 346.368896 197.712 
L 11.568896 197.712 
z
" style="fill:none;"/>
   </g>
   <g id="matplotlib.axis_13">
    <g id="xtick_19">
     <g id="text_7">
      <!-- 0 -->
      <g style="fill:#262626;" transform="translate(7.2 272.264563)scale(0.22 -0.22)">
       <defs>
        <path d="M 2034 4250 
Q 1547 4250 1301 3770 
Q 1056 3291 1056 2328 
Q 1056 1369 1301 889 
Q 1547 409 2034 409 
Q 2525 409 2770 889 
Q 3016 1369 3016 2328 
Q 3016 3291 2770 3770 
Q 2525 4250 2034 4250 
z
M 2034 4750 
Q 2819 4750 3233 4129 
Q 3647 3509 3647 2328 
Q 3647 1150 3233 529 
Q 2819 -91 2034 -91 
Q 1250 -91 836 529 
Q 422 1150 422 2328 
Q 422 3509 836 4129 
Q 1250 4750 2034 4750 
z
" id="DejaVuSans-30" transform="scale(0.015625)"/>
       </defs>
       <use xlink:href="#DejaVuSans-30"/>
      </g>
     </g>
    </g>
    <g id="xtick_20">
     <g id="text_8">
      <!-- 1 -->
      <g style="fill:#262626;" transform="translate(136.909951 272.264563)scale(0.22 -0.22)">
       <defs>
        <path d="M 794 531 
L 1825 531 
L 1825 4091 
L 703 3866 
L 703 4441 
L 1819 4666 
L 2450 4666 
L 2450 531 
L 3481 531 
L 3481 0 
L 794 0 
L 794 531 
z
" id="DejaVuSans-31" transform="scale(0.015625)"/>
       </defs>
       <use xlink:href="#DejaVuSans-31"/>
      </g>
     </g>
    </g>
    <g id="xtick_21">
     <g id="text_9">
      <!-- 2 -->
      <g style="fill:#262626;" transform="translate(266.619903 272.264563)scale(0.22 -0.22)">
       <defs>
        <path d="M 1228 531 
L 3431 531 
L 3431 0 
L 469 0 
L 469 531 
Q 828 903 1448 1529 
Q 2069 2156 2228 2338 
Q 2531 2678 2651 2914 
Q 2772 3150 2772 3378 
Q 2772 3750 2511 3984 
Q 2250 4219 1831 4219 
Q 1534 4219 1204 4116 
Q 875 4013 500 3803 
L 500 4441 
Q 881 4594 1212 4672 
Q 1544 4750 1819 4750 
Q 2544 4750 2975 4387 
Q 3406 4025 3406 3419 
Q 3406 3131 3298 2873 
Q 3191 2616 2906 2266 
Q 2828 2175 2409 1742 
Q 1991 1309 1228 531 
z
" id="DejaVuSans-32" transform="scale(0.015625)"/>
       </defs>
       <use xlink:href="#DejaVuSans-32"/>
      </g>
     </g>
    </g>
    <g id="text_10">
     <!-- $E$ -->
     <g style="fill:#262626;" transform="translate(171.288896 299.076125)scale(0.24 -0.24)">
      <defs>
       <path d="M 1081 4666 
L 4031 4666 
L 3928 4134 
L 1606 4134 
L 1338 2753 
L 3566 2753 
L 3463 2222 
L 1234 2222 
L 909 531 
L 3284 531 
L 3181 0 
L 172 0 
L 1081 4666 
z
" id="DejaVuSans-Oblique-45" transform="scale(0.015625)"/>
      </defs>
      <use transform="translate(0 0.09375)" xlink:href="#DejaVuSans-Oblique-45"/>
     </g>
    </g>
   </g>
   <g id="matplotlib.axis_14"/>
   <g id="PolyCollection_7">
    <defs>
     <path d="M 26.787077 -71.221022 
L 26.787077 -71.219375 
L 28.316543 -71.219375 
L 29.846008 -71.219375 
L 31.375474 -71.219375 
L 32.904939 -71.219375 
L 34.434405 -71.219375 
L 35.963871 -71.219375 
L 37.493336 -71.219375 
L 39.022802 -71.219375 
L 40.552267 -71.219375 
L 42.081733 -71.219375 
L 43.611198 -71.219375 
L 45.140664 -71.219375 
L 46.670129 -71.219375 
L 48.199595 -71.219375 
L 49.72906 -71.219375 
L 51.258526 -71.219375 
L 52.787991 -71.219375 
L 54.317457 -71.219375 
L 55.846922 -71.219375 
L 57.376388 -71.219375 
L 58.905853 -71.219375 
L 60.435319 -71.219375 
L 61.964784 -71.219375 
L 63.49425 -71.219375 
L 65.023715 -71.219375 
L 66.553181 -71.219375 
L 68.082646 -71.219375 
L 69.612112 -71.219375 
L 71.141577 -71.219375 
L 72.671043 -71.219375 
L 74.200508 -71.219375 
L 75.729974 -71.219375 
L 77.259439 -71.219375 
L 78.788905 -71.219375 
L 80.31837 -71.219375 
L 81.847836 -71.219375 
L 83.377301 -71.219375 
L 84.906767 -71.219375 
L 86.436232 -71.219375 
L 87.965698 -71.219375 
L 89.495163 -71.219375 
L 91.024629 -71.219375 
L 92.554094 -71.219375 
L 94.08356 -71.219375 
L 95.613025 -71.219375 
L 97.142491 -71.219375 
L 98.671956 -71.219375 
L 100.201422 -71.219375 
L 101.730887 -71.219375 
L 103.260353 -71.219375 
L 104.789818 -71.219375 
L 106.319284 -71.219375 
L 107.848749 -71.219375 
L 109.378215 -71.219375 
L 110.90768 -71.219375 
L 112.437146 -71.219375 
L 113.966611 -71.219375 
L 115.496077 -71.219375 
L 117.025543 -71.219375 
L 118.555008 -71.219375 
L 120.084474 -71.219375 
L 121.613939 -71.219375 
L 123.143405 -71.219375 
L 124.67287 -71.219375 
L 126.202336 -71.219375 
L 127.731801 -71.219375 
L 129.261267 -71.219375 
L 130.790732 -71.219375 
L 132.320198 -71.219375 
L 133.849663 -71.219375 
L 135.379129 -71.219375 
L 136.908594 -71.219375 
L 138.43806 -71.219375 
L 139.967525 -71.219375 
L 141.496991 -71.219375 
L 143.026456 -71.219375 
L 144.555922 -71.219375 
L 146.085387 -71.219375 
L 147.614853 -71.219375 
L 149.144318 -71.219375 
L 150.673784 -71.219375 
L 152.203249 -71.219375 
L 153.732715 -71.219375 
L 155.26218 -71.219375 
L 156.791646 -71.219375 
L 158.321111 -71.219375 
L 159.850577 -71.219375 
L 161.380042 -71.219375 
L 162.909508 -71.219375 
L 164.438973 -71.219375 
L 165.968439 -71.219375 
L 167.497904 -71.219375 
L 169.02737 -71.219375 
L 170.556835 -71.219375 
L 172.086301 -71.219375 
L 173.615766 -71.219375 
L 175.145232 -71.219375 
L 176.674697 -71.219375 
L 178.204163 -71.219375 
L 179.733628 -71.219375 
L 181.263094 -71.219375 
L 182.792559 -71.219375 
L 184.322025 -71.219375 
L 185.85149 -71.219375 
L 187.380956 -71.219375 
L 188.910421 -71.219375 
L 190.439887 -71.219375 
L 191.969352 -71.219375 
L 193.498818 -71.219375 
L 195.028283 -71.219375 
L 196.557749 -71.219375 
L 198.087215 -71.219375 
L 199.61668 -71.219375 
L 201.146146 -71.219375 
L 202.675611 -71.219375 
L 204.205077 -71.219375 
L 205.734542 -71.219375 
L 207.264008 -71.219375 
L 208.793473 -71.219375 
L 210.322939 -71.219375 
L 211.852404 -71.219375 
L 213.38187 -71.219375 
L 214.911335 -71.219375 
L 216.440801 -71.219375 
L 217.970266 -71.219375 
L 219.499732 -71.219375 
L 221.029197 -71.219375 
L 222.558663 -71.219375 
L 224.088128 -71.219375 
L 225.617594 -71.219375 
L 227.147059 -71.219375 
L 228.676525 -71.219375 
L 230.20599 -71.219375 
L 231.735456 -71.219375 
L 233.264921 -71.219375 
L 234.794387 -71.219375 
L 236.323852 -71.219375 
L 237.853318 -71.219375 
L 239.382783 -71.219375 
L 240.912249 -71.219375 
L 242.441714 -71.219375 
L 243.97118 -71.219375 
L 245.500645 -71.219375 
L 247.030111 -71.219375 
L 248.559576 -71.219375 
L 250.089042 -71.219375 
L 251.618507 -71.219375 
L 253.147973 -71.219375 
L 254.677438 -71.219375 
L 256.206904 -71.219375 
L 257.736369 -71.219375 
L 259.265835 -71.219375 
L 260.7953 -71.219375 
L 262.324766 -71.219375 
L 263.854231 -71.219375 
L 265.383697 -71.219375 
L 266.913162 -71.219375 
L 268.442628 -71.219375 
L 269.972093 -71.219375 
L 271.501559 -71.219375 
L 273.031024 -71.219375 
L 274.56049 -71.219375 
L 276.089955 -71.219375 
L 277.619421 -71.219375 
L 279.148887 -71.219375 
L 280.678352 -71.219375 
L 282.207818 -71.219375 
L 283.737283 -71.219375 
L 285.266749 -71.219375 
L 286.796214 -71.219375 
L 288.32568 -71.219375 
L 289.855145 -71.219375 
L 291.384611 -71.219375 
L 292.914076 -71.219375 
L 294.443542 -71.219375 
L 295.973007 -71.219375 
L 297.502473 -71.219375 
L 299.031938 -71.219375 
L 300.561404 -71.219375 
L 302.090869 -71.219375 
L 303.620335 -71.219375 
L 305.1498 -71.219375 
L 306.679266 -71.219375 
L 308.208731 -71.219375 
L 309.738197 -71.219375 
L 311.267662 -71.219375 
L 312.797128 -71.219375 
L 314.326593 -71.219375 
L 315.856059 -71.219375 
L 317.385524 -71.219375 
L 318.91499 -71.219375 
L 320.444455 -71.219375 
L 321.973921 -71.219375 
L 323.503386 -71.219375 
L 325.032852 -71.219375 
L 326.562317 -71.219375 
L 328.091783 -71.219375 
L 329.621248 -71.219375 
L 331.150714 -71.219375 
L 331.150714 -71.219975 
L 331.150714 -71.219975 
L 329.621248 -71.220969 
L 328.091783 -71.223134 
L 326.562317 -71.22724 
L 325.032852 -71.233978 
L 323.503386 -71.243435 
L 321.973921 -71.25455 
L 320.444455 -71.265007 
L 318.91499 -71.271903 
L 317.385524 -71.27303 
L 315.856059 -71.268007 
L 314.326593 -71.258489 
L 312.797128 -71.24729 
L 311.267662 -71.237053 
L 309.738197 -71.229309 
L 308.208731 -71.224329 
L 306.679266 -71.221569 
L 305.1498 -71.220245 
L 303.620335 -71.219717 
L 302.090869 -71.219624 
L 300.561404 -71.219917 
L 299.031938 -71.2209 
L 297.502473 -71.223349 
L 295.973007 -71.228628 
L 294.443542 -71.238588 
L 292.914076 -71.255 
L 291.384611 -71.278507 
L 289.855145 -71.30757 
L 288.32568 -71.33828 
L 286.796214 -71.365708 
L 285.266749 -71.38641 
L 283.737283 -71.400602 
L 282.207818 -71.412324 
L 280.678352 -71.427082 
L 279.148887 -71.448189 
L 277.619421 -71.474061 
L 276.089955 -71.498207 
L 274.56049 -71.512044 
L 273.031024 -71.509014 
L 271.501559 -71.48792 
L 269.972093 -71.453953 
L 268.442628 -71.417095 
L 266.913162 -71.388583 
L 265.383697 -71.376791 
L 263.854231 -71.384057 
L 262.324766 -71.40572 
L 260.7953 -71.431965 
L 259.265835 -71.451918 
L 257.736369 -71.458243 
L 256.206904 -71.450079 
L 254.677438 -71.432922 
L 253.147973 -71.415776 
L 251.618507 -71.407302 
L 250.089042 -71.412779 
L 248.559576 -71.432855 
L 247.030111 -71.464063 
L 245.500645 -71.500564 
L 243.97118 -71.536489 
L 242.441714 -71.568185 
L 240.912249 -71.595654 
L 239.382783 -71.622568 
L 237.853318 -71.654725 
L 236.323852 -71.69741 
L 234.794387 -71.752699 
L 233.264921 -71.818027 
L 231.735456 -71.887018 
L 230.20599 -71.952407 
L 228.676525 -72.009434 
L 227.147059 -72.057572 
L 225.617594 -72.099596 
L 224.088128 -72.138963 
L 222.558663 -72.177435 
L 221.029197 -72.214313 
L 219.499732 -72.247237 
L 217.970266 -72.273494 
L 216.440801 -72.290821 
L 214.911335 -72.297668 
L 213.38187 -72.29387 
L 211.852404 -72.282132 
L 210.322939 -72.269167 
L 208.793473 -72.264627 
L 207.264008 -72.277542 
L 205.734542 -72.312376 
L 204.205077 -72.367426 
L 202.675611 -72.436585 
L 201.146146 -72.513213 
L 199.61668 -72.593849 
L 198.087215 -72.680031 
L 196.557749 -72.777535 
L 195.028283 -72.893371 
L 193.498818 -73.031628 
L 191.969352 -73.189983 
L 190.439887 -73.358962 
L 188.910421 -73.525023 
L 187.380956 -73.676299 
L 185.85149 -73.807618 
L 184.322025 -73.921407 
L 182.792559 -74.023957 
L 181.263094 -74.120231 
L 179.733628 -74.21143 
L 178.204163 -74.296534 
L 176.674697 -74.375095 
L 175.145232 -74.448041 
L 173.615766 -74.516503 
L 172.086301 -74.581593 
L 170.556835 -74.646757 
L 169.02737 -74.720473 
L 167.497904 -74.815704 
L 165.968439 -74.945519 
L 164.438973 -75.118084 
L 162.909508 -75.334488 
L 161.380042 -75.589683 
L 159.850577 -75.873794 
L 158.321111 -76.171287 
L 156.791646 -76.458807 
L 155.26218 -76.706135 
L 153.732715 -76.884601 
L 152.203249 -76.98163 
L 150.673784 -77.012736 
L 149.144318 -77.020841 
L 147.614853 -77.060697 
L 146.085387 -77.177188 
L 144.555922 -77.390108 
L 143.026456 -77.691567 
L 141.496991 -78.05262 
L 139.967525 -78.432269 
L 138.43806 -78.785824 
L 136.908594 -79.074144 
L 135.379129 -79.274652 
L 133.849663 -79.390732 
L 132.320198 -79.454088 
L 130.790732 -79.517305 
L 129.261267 -79.638912 
L 127.731801 -79.866867 
L 126.202336 -80.226851 
L 124.67287 -80.71873 
L 123.143405 -81.319294 
L 121.613939 -81.986103 
L 120.084474 -82.660289 
L 118.555008 -83.272899 
L 117.025543 -83.761134 
L 115.496077 -84.092265 
L 113.966611 -84.281248 
L 112.437146 -84.386439 
L 110.90768 -84.481245 
L 109.378215 -84.617427 
L 107.848749 -84.802156 
L 106.319284 -85.000658 
L 104.789818 -85.159391 
L 103.260353 -85.234531 
L 101.730887 -85.211425 
L 100.201422 -85.107776 
L 98.671956 -84.961396 
L 97.142491 -84.810167 
L 95.613025 -84.675096 
L 94.08356 -84.555138 
L 92.554094 -84.435189 
L 91.024629 -84.30088 
L 89.495163 -84.150413 
L 87.965698 -83.996793 
L 86.436232 -83.860489 
L 84.906767 -83.75754 
L 83.377301 -83.688578 
L 81.847836 -83.632489 
L 80.31837 -83.547495 
L 78.788905 -83.381226 
L 77.259439 -83.087205 
L 75.729974 -82.640171 
L 74.200508 -82.042729 
L 72.671043 -81.321948 
L 71.141577 -80.520737 
L 69.612112 -79.689107 
L 68.082646 -78.876372 
L 66.553181 -78.122915 
L 65.023715 -77.452025 
L 63.49425 -76.865482 
L 61.964784 -76.346474 
L 60.435319 -75.869284 
L 58.905853 -75.410858 
L 57.376388 -74.958717 
L 55.846922 -74.512929 
L 54.317457 -74.083334 
L 52.787991 -73.684221 
L 51.258526 -73.328153 
L 49.72906 -73.020756 
L 48.199595 -72.758644 
L 46.670129 -72.531565 
L 45.140664 -72.327354 
L 43.611198 -72.136738 
L 42.081733 -71.955845 
L 40.552267 -71.786171 
L 39.022802 -71.632888 
L 37.493336 -71.502284 
L 35.963871 -71.399066 
L 34.434405 -71.324388 
L 32.904939 -71.275414 
L 31.375474 -71.246512 
L 29.846008 -71.231241 
L 28.316543 -71.224043 
L 26.787077 -71.221022 
z
" id="md05c71034b" style="stroke:#90c1c6;stroke-width:1.5;"/>
    </defs>
    <g>
     <use style="fill:#90c1c6;stroke:#90c1c6;stroke-width:1.5;" x="0" xlink:href="#md05c71034b" y="311.267375"/>
    </g>
   </g>
   <g id="line2d_13">
    <path d="M 26.787077 240.046353 
L 34.434405 239.942987 
L 39.022802 239.634487 
L 45.140664 238.940021 
L 49.72906 238.246619 
L 52.787991 237.583154 
L 57.376388 236.308658 
L 63.49425 234.401893 
L 66.553181 233.14446 
L 69.612112 231.578268 
L 72.671043 229.945427 
L 74.200508 229.224646 
L 75.729974 228.627204 
L 77.259439 228.18017 
L 78.788905 227.886149 
L 81.847836 227.634886 
L 86.436232 227.406886 
L 101.730887 226.05595 
L 104.789818 226.107984 
L 115.496077 227.17511 
L 117.025543 227.506241 
L 118.555008 227.994476 
L 126.202336 231.040524 
L 127.731801 231.400508 
L 130.790732 231.75007 
L 135.379129 231.992723 
L 138.43806 232.481551 
L 144.555922 233.877267 
L 147.614853 234.206678 
L 153.732715 234.382774 
L 156.791646 234.808568 
L 164.438973 236.149291 
L 167.497904 236.451671 
L 175.145232 236.819334 
L 184.322025 237.345968 
L 190.439887 237.908413 
L 196.557749 238.48984 
L 204.205077 238.899949 
L 208.793473 239.002748 
L 221.029197 239.053062 
L 233.264921 239.449348 
L 240.912249 239.671721 
L 254.677438 239.834453 
L 260.7953 239.83541 
L 266.913162 239.878792 
L 276.089955 239.769168 
L 300.561404 240.047458 
L 331.150714 240.0474 
L 331.150714 240.0474 
" style="fill:none;stroke:#ffffff;stroke-linecap:round;stroke-width:2;"/>
   </g>
   <g id="line2d_14">
    <path d="M 11.568896 240.048 
L 346.368896 240.048 
" style="fill:none;stroke:#90c1c6;stroke-linecap:round;stroke-width:2;"/>
   </g>
   <g id="text_11">
    <!-- 0.4 -->
    <g style="fill:#90c1c6;" transform="translate(262.668896 238.2033)scale(0.24 -0.24)">
     <defs>
      <path d="M 2356 3675 
L 1038 1722 
L 2356 1722 
L 2356 3675 
z
M 2156 4666 
L 3494 4666 
L 3494 1722 
L 4159 1722 
L 4159 850 
L 3494 850 
L 3494 0 
L 2356 0 
L 2356 850 
L 288 850 
L 288 1881 
L 2156 4666 
z
" id="DejaVuSans-Bold-34" transform="scale(0.015625)"/>
     </defs>
     <use xlink:href="#DejaVuSans-Bold-30"/>
     <use x="69.580078" xlink:href="#DejaVuSans-Bold-2e"/>
     <use x="107.568359" xlink:href="#DejaVuSans-Bold-34"/>
    </g>
   </g>
  </g>
 </g>
</svg>
