<?xml version="1.0" encoding="utf-8" standalone="no"?>
<!DOCTYPE svg PUBLIC "-//W3C//DTD SVG 1.1//EN"
  "http://www.w3.org/Graphics/SVG/1.1/DTD/svg11.dtd">
<svg height="674.159375pt" version="1.1" viewBox="0 0 688.981875 674.159375" width="688.981875pt" xmlns="http://www.w3.org/2000/svg" xmlns:xlink="http://www.w3.org/1999/xlink">
 <metadata>
  <rdf:RDF xmlns:cc="http://creativecommons.org/ns#" xmlns:dc="http://purl.org/dc/elements/1.1/" xmlns:rdf="http://www.w3.org/1999/02/22-rdf-syntax-ns#">
   <cc:Work>
    <dc:type rdf:resource="http://purl.org/dc/dcmitype/StillImage"/>
    <dc:date>2021-07-24T14:57:23.262055</dc:date>
    <dc:format>image/svg+xml</dc:format>
    <dc:creator>
     <cc:Agent>
      <dc:title>Matplotlib v3.4.2, https://matplotlib.org/</dc:title>
     </cc:Agent>
    </dc:creator>
   </cc:Work>
  </rdf:RDF>
 </metadata>
 <defs>
  <style type="text/css">*{stroke-linecap:butt;stroke-linejoin:round;}</style>
 </defs>
 <g id="figure_1">
  <g id="patch_1">
   <path d="M 0 674.159375 
L 688.981875 674.159375 
L 688.981875 0 
L 0 0 
z
" style="fill:#ffffff;"/>
  </g>
  <g id="axes_1">
   <g id="patch_2">
    <path d="M 98.911875 602.94 
L 581.861304 602.94 
L 581.861304 109.326857 
L 98.911875 109.326857 
z
" style="fill:none;"/>
   </g>
   <g id="matplotlib.axis_1">
    <g id="xtick_1">
     <g id="text_1">
      <!-- 0 -->
      <g style="fill:#262626;" transform="translate(113.645739 635.156562)scale(0.22 -0.22)">
       <defs>
        <path d="M 2034 4250 
Q 1547 4250 1301 3770 
Q 1056 3291 1056 2328 
Q 1056 1369 1301 889 
Q 1547 409 2034 409 
Q 2525 409 2770 889 
Q 3016 1369 3016 2328 
Q 3016 3291 2770 3770 
Q 2525 4250 2034 4250 
z
M 2034 4750 
Q 2819 4750 3233 4129 
Q 3647 3509 3647 2328 
Q 3647 1150 3233 529 
Q 2819 -91 2034 -91 
Q 1250 -91 836 529 
Q 422 1150 422 2328 
Q 422 3509 836 4129 
Q 1250 4750 2034 4750 
z
" id="DejaVuSans-30" transform="scale(0.015625)"/>
       </defs>
       <use xlink:href="#DejaVuSans-30"/>
      </g>
     </g>
    </g>
    <g id="xtick_2">
     <g id="text_2">
      <!-- 20000 -->
      <g style="fill:#262626;" transform="translate(173.503653 635.156562)scale(0.22 -0.22)">
       <defs>
        <path d="M 1228 531 
L 3431 531 
L 3431 0 
L 469 0 
L 469 531 
Q 828 903 1448 1529 
Q 2069 2156 2228 2338 
Q 2531 2678 2651 2914 
Q 2772 3150 2772 3378 
Q 2772 3750 2511 3984 
Q 2250 4219 1831 4219 
Q 1534 4219 1204 4116 
Q 875 4013 500 3803 
L 500 4441 
Q 881 4594 1212 4672 
Q 1544 4750 1819 4750 
Q 2544 4750 2975 4387 
Q 3406 4025 3406 3419 
Q 3406 3131 3298 2873 
Q 3191 2616 2906 2266 
Q 2828 2175 2409 1742 
Q 1991 1309 1228 531 
z
" id="DejaVuSans-32" transform="scale(0.015625)"/>
       </defs>
       <use xlink:href="#DejaVuSans-32"/>
       <use x="63.623047" xlink:href="#DejaVuSans-30"/>
       <use x="127.246094" xlink:href="#DejaVuSans-30"/>
       <use x="190.869141" xlink:href="#DejaVuSans-30"/>
       <use x="254.492188" xlink:href="#DejaVuSans-30"/>
      </g>
     </g>
    </g>
    <g id="xtick_3">
     <g id="text_3">
      <!-- 40000 -->
      <g style="fill:#262626;" transform="translate(261.356566 635.156562)scale(0.22 -0.22)">
       <defs>
        <path d="M 2419 4116 
L 825 1625 
L 2419 1625 
L 2419 4116 
z
M 2253 4666 
L 3047 4666 
L 3047 1625 
L 3713 1625 
L 3713 1100 
L 3047 1100 
L 3047 0 
L 2419 0 
L 2419 1100 
L 313 1100 
L 313 1709 
L 2253 4666 
z
" id="DejaVuSans-34" transform="scale(0.015625)"/>
       </defs>
       <use xlink:href="#DejaVuSans-34"/>
       <use x="63.623047" xlink:href="#DejaVuSans-30"/>
       <use x="127.246094" xlink:href="#DejaVuSans-30"/>
       <use x="190.869141" xlink:href="#DejaVuSans-30"/>
       <use x="254.492188" xlink:href="#DejaVuSans-30"/>
      </g>
     </g>
    </g>
    <g id="xtick_4">
     <g id="text_4">
      <!-- 60000 -->
      <g style="fill:#262626;" transform="translate(349.20948 635.156562)scale(0.22 -0.22)">
       <defs>
        <path d="M 2113 2584 
Q 1688 2584 1439 2293 
Q 1191 2003 1191 1497 
Q 1191 994 1439 701 
Q 1688 409 2113 409 
Q 2538 409 2786 701 
Q 3034 994 3034 1497 
Q 3034 2003 2786 2293 
Q 2538 2584 2113 2584 
z
M 3366 4563 
L 3366 3988 
Q 3128 4100 2886 4159 
Q 2644 4219 2406 4219 
Q 1781 4219 1451 3797 
Q 1122 3375 1075 2522 
Q 1259 2794 1537 2939 
Q 1816 3084 2150 3084 
Q 2853 3084 3261 2657 
Q 3669 2231 3669 1497 
Q 3669 778 3244 343 
Q 2819 -91 2113 -91 
Q 1303 -91 875 529 
Q 447 1150 447 2328 
Q 447 3434 972 4092 
Q 1497 4750 2381 4750 
Q 2619 4750 2861 4703 
Q 3103 4656 3366 4563 
z
" id="DejaVuSans-36" transform="scale(0.015625)"/>
       </defs>
       <use xlink:href="#DejaVuSans-36"/>
       <use x="63.623047" xlink:href="#DejaVuSans-30"/>
       <use x="127.246094" xlink:href="#DejaVuSans-30"/>
       <use x="190.869141" xlink:href="#DejaVuSans-30"/>
       <use x="254.492188" xlink:href="#DejaVuSans-30"/>
      </g>
     </g>
    </g>
    <g id="xtick_5">
     <g id="text_5">
      <!-- 80000 -->
      <g style="fill:#262626;" transform="translate(437.062393 635.156562)scale(0.22 -0.22)">
       <defs>
        <path d="M 2034 2216 
Q 1584 2216 1326 1975 
Q 1069 1734 1069 1313 
Q 1069 891 1326 650 
Q 1584 409 2034 409 
Q 2484 409 2743 651 
Q 3003 894 3003 1313 
Q 3003 1734 2745 1975 
Q 2488 2216 2034 2216 
z
M 1403 2484 
Q 997 2584 770 2862 
Q 544 3141 544 3541 
Q 544 4100 942 4425 
Q 1341 4750 2034 4750 
Q 2731 4750 3128 4425 
Q 3525 4100 3525 3541 
Q 3525 3141 3298 2862 
Q 3072 2584 2669 2484 
Q 3125 2378 3379 2068 
Q 3634 1759 3634 1313 
Q 3634 634 3220 271 
Q 2806 -91 2034 -91 
Q 1263 -91 848 271 
Q 434 634 434 1313 
Q 434 1759 690 2068 
Q 947 2378 1403 2484 
z
M 1172 3481 
Q 1172 3119 1398 2916 
Q 1625 2713 2034 2713 
Q 2441 2713 2670 2916 
Q 2900 3119 2900 3481 
Q 2900 3844 2670 4047 
Q 2441 4250 2034 4250 
Q 1625 4250 1398 4047 
Q 1172 3844 1172 3481 
z
" id="DejaVuSans-38" transform="scale(0.015625)"/>
       </defs>
       <use xlink:href="#DejaVuSans-38"/>
       <use x="63.623047" xlink:href="#DejaVuSans-30"/>
       <use x="127.246094" xlink:href="#DejaVuSans-30"/>
       <use x="190.869141" xlink:href="#DejaVuSans-30"/>
       <use x="254.492188" xlink:href="#DejaVuSans-30"/>
      </g>
     </g>
    </g>
    <g id="xtick_6">
     <g id="text_6">
      <!-- 100000 -->
      <g style="fill:#262626;" transform="translate(517.916557 635.156562)scale(0.22 -0.22)">
       <defs>
        <path d="M 794 531 
L 1825 531 
L 1825 4091 
L 703 3866 
L 703 4441 
L 1819 4666 
L 2450 4666 
L 2450 531 
L 3481 531 
L 3481 0 
L 794 0 
L 794 531 
z
" id="DejaVuSans-31" transform="scale(0.015625)"/>
       </defs>
       <use xlink:href="#DejaVuSans-31"/>
       <use x="63.623047" xlink:href="#DejaVuSans-30"/>
       <use x="127.246094" xlink:href="#DejaVuSans-30"/>
       <use x="190.869141" xlink:href="#DejaVuSans-30"/>
       <use x="254.492188" xlink:href="#DejaVuSans-30"/>
       <use x="318.115234" xlink:href="#DejaVuSans-30"/>
      </g>
     </g>
    </g>
    <g id="text_7">
     <!-- MDTU -->
     <g style="fill:#262626;" transform="translate(304.680964 661.968125)scale(0.24 -0.24)">
      <defs>
       <path d="M 628 4666 
L 1569 4666 
L 2759 1491 
L 3956 4666 
L 4897 4666 
L 4897 0 
L 4281 0 
L 4281 4097 
L 3078 897 
L 2444 897 
L 1241 4097 
L 1241 0 
L 628 0 
L 628 4666 
z
" id="DejaVuSans-4d" transform="scale(0.015625)"/>
       <path d="M 1259 4147 
L 1259 519 
L 2022 519 
Q 2988 519 3436 956 
Q 3884 1394 3884 2338 
Q 3884 3275 3436 3711 
Q 2988 4147 2022 4147 
L 1259 4147 
z
M 628 4666 
L 1925 4666 
Q 3281 4666 3915 4102 
Q 4550 3538 4550 2338 
Q 4550 1131 3912 565 
Q 3275 0 1925 0 
L 628 0 
L 628 4666 
z
" id="DejaVuSans-44" transform="scale(0.015625)"/>
       <path d="M -19 4666 
L 3928 4666 
L 3928 4134 
L 2272 4134 
L 2272 0 
L 1638 0 
L 1638 4134 
L -19 4134 
L -19 4666 
z
" id="DejaVuSans-54" transform="scale(0.015625)"/>
       <path d="M 556 4666 
L 1191 4666 
L 1191 1831 
Q 1191 1081 1462 751 
Q 1734 422 2344 422 
Q 2950 422 3222 751 
Q 3494 1081 3494 1831 
L 3494 4666 
L 4128 4666 
L 4128 1753 
Q 4128 841 3676 375 
Q 3225 -91 2344 -91 
Q 1459 -91 1007 375 
Q 556 841 556 1753 
L 556 4666 
z
" id="DejaVuSans-55" transform="scale(0.015625)"/>
      </defs>
      <use xlink:href="#DejaVuSans-4d"/>
      <use x="86.279297" xlink:href="#DejaVuSans-44"/>
      <use x="163.28125" xlink:href="#DejaVuSans-54"/>
      <use x="224.365234" xlink:href="#DejaVuSans-55"/>
     </g>
    </g>
   </g>
   <g id="matplotlib.axis_2">
    <g id="ytick_1">
     <g id="text_8">
      <!-- 0.55 -->
      <g style="fill:#262626;" transform="translate(34.4275 580.472256)scale(0.22 -0.22)">
       <defs>
        <path d="M 684 794 
L 1344 794 
L 1344 0 
L 684 0 
L 684 794 
z
" id="DejaVuSans-2e" transform="scale(0.015625)"/>
        <path d="M 691 4666 
L 3169 4666 
L 3169 4134 
L 1269 4134 
L 1269 2991 
Q 1406 3038 1543 3061 
Q 1681 3084 1819 3084 
Q 2600 3084 3056 2656 
Q 3513 2228 3513 1497 
Q 3513 744 3044 326 
Q 2575 -91 1722 -91 
Q 1428 -91 1123 -41 
Q 819 9 494 109 
L 494 744 
Q 775 591 1075 516 
Q 1375 441 1709 441 
Q 2250 441 2565 725 
Q 2881 1009 2881 1497 
Q 2881 1984 2565 2268 
Q 2250 2553 1709 2553 
Q 1456 2553 1204 2497 
Q 953 2441 691 2322 
L 691 4666 
z
" id="DejaVuSans-35" transform="scale(0.015625)"/>
       </defs>
       <use xlink:href="#DejaVuSans-30"/>
       <use x="63.623047" xlink:href="#DejaVuSans-2e"/>
       <use x="95.410156" xlink:href="#DejaVuSans-35"/>
       <use x="159.033203" xlink:href="#DejaVuSans-35"/>
      </g>
     </g>
    </g>
    <g id="ytick_2">
     <g id="text_9">
      <!-- 0.60 -->
      <g style="fill:#262626;" transform="translate(34.4275 522.114453)scale(0.22 -0.22)">
       <use xlink:href="#DejaVuSans-30"/>
       <use x="63.623047" xlink:href="#DejaVuSans-2e"/>
       <use x="95.410156" xlink:href="#DejaVuSans-36"/>
       <use x="159.033203" xlink:href="#DejaVuSans-30"/>
      </g>
     </g>
    </g>
    <g id="ytick_3">
     <g id="text_10">
      <!-- 0.65 -->
      <g style="fill:#262626;" transform="translate(34.4275 463.75665)scale(0.22 -0.22)">
       <use xlink:href="#DejaVuSans-30"/>
       <use x="63.623047" xlink:href="#DejaVuSans-2e"/>
       <use x="95.410156" xlink:href="#DejaVuSans-36"/>
       <use x="159.033203" xlink:href="#DejaVuSans-35"/>
      </g>
     </g>
    </g>
    <g id="ytick_4">
     <g id="text_11">
      <!-- 0.70 -->
      <g style="fill:#262626;" transform="translate(34.4275 405.398848)scale(0.22 -0.22)">
       <defs>
        <path d="M 525 4666 
L 3525 4666 
L 3525 4397 
L 1831 0 
L 1172 0 
L 2766 4134 
L 525 4134 
L 525 4666 
z
" id="DejaVuSans-37" transform="scale(0.015625)"/>
       </defs>
       <use xlink:href="#DejaVuSans-30"/>
       <use x="63.623047" xlink:href="#DejaVuSans-2e"/>
       <use x="95.410156" xlink:href="#DejaVuSans-37"/>
       <use x="159.033203" xlink:href="#DejaVuSans-30"/>
      </g>
     </g>
    </g>
    <g id="ytick_5">
     <g id="text_12">
      <!-- 0.75 -->
      <g style="fill:#262626;" transform="translate(34.4275 347.041045)scale(0.22 -0.22)">
       <use xlink:href="#DejaVuSans-30"/>
       <use x="63.623047" xlink:href="#DejaVuSans-2e"/>
       <use x="95.410156" xlink:href="#DejaVuSans-37"/>
       <use x="159.033203" xlink:href="#DejaVuSans-35"/>
      </g>
     </g>
    </g>
    <g id="ytick_6">
     <g id="text_13">
      <!-- 0.80 -->
      <g style="fill:#262626;" transform="translate(34.4275 288.683242)scale(0.22 -0.22)">
       <use xlink:href="#DejaVuSans-30"/>
       <use x="63.623047" xlink:href="#DejaVuSans-2e"/>
       <use x="95.410156" xlink:href="#DejaVuSans-38"/>
       <use x="159.033203" xlink:href="#DejaVuSans-30"/>
      </g>
     </g>
    </g>
    <g id="ytick_7">
     <g id="text_14">
      <!-- 0.85 -->
      <g style="fill:#262626;" transform="translate(34.4275 230.325439)scale(0.22 -0.22)">
       <use xlink:href="#DejaVuSans-30"/>
       <use x="63.623047" xlink:href="#DejaVuSans-2e"/>
       <use x="95.410156" xlink:href="#DejaVuSans-38"/>
       <use x="159.033203" xlink:href="#DejaVuSans-35"/>
      </g>
     </g>
    </g>
    <g id="ytick_8">
     <g id="text_15">
      <!-- 0.90 -->
      <g style="fill:#262626;" transform="translate(34.4275 171.967636)scale(0.22 -0.22)">
       <defs>
        <path d="M 703 97 
L 703 672 
Q 941 559 1184 500 
Q 1428 441 1663 441 
Q 2288 441 2617 861 
Q 2947 1281 2994 2138 
Q 2813 1869 2534 1725 
Q 2256 1581 1919 1581 
Q 1219 1581 811 2004 
Q 403 2428 403 3163 
Q 403 3881 828 4315 
Q 1253 4750 1959 4750 
Q 2769 4750 3195 4129 
Q 3622 3509 3622 2328 
Q 3622 1225 3098 567 
Q 2575 -91 1691 -91 
Q 1453 -91 1209 -44 
Q 966 3 703 97 
z
M 1959 2075 
Q 2384 2075 2632 2365 
Q 2881 2656 2881 3163 
Q 2881 3666 2632 3958 
Q 2384 4250 1959 4250 
Q 1534 4250 1286 3958 
Q 1038 3666 1038 3163 
Q 1038 2656 1286 2365 
Q 1534 2075 1959 2075 
z
" id="DejaVuSans-39" transform="scale(0.015625)"/>
       </defs>
       <use xlink:href="#DejaVuSans-30"/>
       <use x="63.623047" xlink:href="#DejaVuSans-2e"/>
       <use x="95.410156" xlink:href="#DejaVuSans-39"/>
       <use x="159.033203" xlink:href="#DejaVuSans-30"/>
      </g>
     </g>
    </g>
    <g id="text_16">
     <!-- $E$ -->
     <g style="fill:#262626;" transform="translate(25.43625 363.813429)rotate(-90)scale(0.24 -0.24)">
      <defs>
       <path d="M 1081 4666 
L 4031 4666 
L 3928 4134 
L 1606 4134 
L 1338 2753 
L 3566 2753 
L 3463 2222 
L 1234 2222 
L 909 531 
L 3284 531 
L 3181 0 
L 172 0 
L 1081 4666 
z
" id="DejaVuSans-Oblique-45" transform="scale(0.015625)"/>
      </defs>
      <use transform="translate(0 0.09375)" xlink:href="#DejaVuSans-Oblique-45"/>
     </g>
    </g>
   </g>
   <g id="line2d_1">
    <path clip-path="url(#pd24f73acd3)" d="M 120.864122 401.009335 
L 121.083754 478.950301 
L 121.303386 268.525261 
L 121.523019 510.812548 
L 121.742651 378.063845 
L 121.962283 402.459681 
L 122.181915 479.022941 
L 122.401548 359.356194 
L 122.62118 301.63752 
L 123.060445 367.575945 
L 123.280077 362.015203 
L 123.499709 431.609378 
L 123.719341 457.857931 
L 124.158606 324.452218 
L 124.378238 425.664958 
L 124.597871 374.6309 
L 124.817503 374.248164 
L 125.037135 282.973945 
L 125.256767 428.804997 
L 125.4764 476.551436 
L 125.696032 344.200139 
L 126.135297 395.916997 
L 126.354929 380.725086 
L 126.574561 462.761595 
L 126.794193 380.667096 
L 127.013826 476.573627 
L 127.45309 385.395354 
L 127.672723 387.065852 
L 127.892355 306.032746 
L 128.331619 411.972293 
L 128.551252 406.752159 
L 128.990516 490.325009 
L 129.210149 450.387925 
L 129.429781 434.570044 
L 129.649413 437.983589 
L 130.088678 245.905812 
L 130.30831 379.079398 
L 130.527942 389.810708 
L 130.747575 415.549641 
L 130.967207 293.400359 
L 131.186839 447.603365 
L 131.406471 342.038723 
L 131.626104 437.18071 
L 131.845736 377.518375 
L 132.065368 413.985275 
L 132.504633 540.524566 
L 132.724265 394.778154 
L 132.943897 335.655929 
L 133.16353 503.854997 
L 133.383162 275.940769 
L 133.602794 404.850314 
L 133.822426 349.521121 
L 134.042059 236.569633 
L 134.481323 456.163125 
L 134.700956 278.252354 
L 134.920588 415.70132 
L 135.14022 363.204589 
L 135.359852 438.152776 
L 135.579485 423.00711 
L 135.799117 314.712422 
L 136.018749 445.707593 
L 136.238382 452.71331 
L 136.458014 535.701189 
L 136.677646 332.266464 
L 137.116911 452.004863 
L 137.336543 426.933327 
L 137.556175 327.533472 
L 137.775808 516.753974 
L 137.99544 420.973843 
L 138.215072 425.828088 
L 138.434704 303.92552 
L 138.654337 447.261867 
L 138.873969 336.622662 
L 139.093601 425.785243 
L 139.313234 390.011936 
L 139.532866 405.619912 
L 139.752498 437.320059 
L 139.97213 499.96836 
L 140.191763 416.565462 
L 140.411395 444.758612 
L 140.631027 439.405306 
L 140.85066 420.363032 
L 141.070292 415.29377 
L 141.289924 351.824209 
L 141.509556 426.272015 
L 141.729189 441.966753 
L 141.948821 393.57902 
L 142.168453 485.875887 
L 142.388086 362.611146 
L 142.607718 364.337945 
L 143.046982 543.184814 
L 143.266615 376.454918 
L 143.486247 371.259204 
L 143.705879 512.243909 
L 143.925512 333.687334 
L 144.145144 368.186192 
L 144.364776 345.673564 
L 144.584408 390.673508 
L 144.804041 473.843864 
L 145.023673 346.98544 
L 145.462938 404.677462 
L 145.68257 482.227571 
L 146.121834 353.69713 
L 146.561099 441.361236 
L 146.780731 371.633243 
L 147.000364 368.050142 
L 147.65926 454.534108 
L 147.878893 346.316846 
L 148.098525 444.654371 
L 148.318157 404.112514 
L 148.537789 427.653554 
L 148.757422 514.476667 
L 148.977054 443.543035 
L 149.196686 486.781806 
L 149.416319 444.240381 
L 149.635951 478.135874 
L 149.855583 405.916509 
L 150.075215 379.201226 
L 150.294848 368.779014 
L 150.734112 427.832125 
L 150.953745 299.973951 
L 151.173377 498.665374 
L 151.393009 485.401887 
L 151.612641 325.395437 
L 151.832274 417.01734 
L 152.051906 451.639315 
L 152.271538 428.988534 
L 152.491171 360.235534 
L 152.710803 459.062389 
L 152.930435 314.434698 
L 153.150067 487.323128 
L 153.3697 466.893374 
L 153.589332 422.925287 
L 153.808964 406.617331 
L 154.028597 453.443561 
L 154.248229 395.544559 
L 154.467861 483.305531 
L 154.687493 505.819187 
L 154.907126 242.204333 
L 155.126758 313.497326 
L 155.34639 319.976752 
L 155.566023 436.79455 
L 155.785655 436.459296 
L 156.005287 375.211587 
L 156.224919 383.500072 
L 156.444552 430.194206 
L 156.664184 406.630158 
L 156.883816 457.590572 
L 157.103449 299.479623 
L 157.323081 260.916795 
L 157.542713 256.672586 
L 157.762345 320.373696 
L 157.981978 301.366856 
L 158.20161 452.959373 
L 158.421242 303.504948 
L 158.640875 328.261848 
L 158.860507 506.286044 
L 159.080139 320.570565 
L 159.299771 464.480794 
L 159.519404 323.19072 
L 159.739036 439.974703 
L 159.958668 365.845436 
L 160.178301 221.507194 
L 160.617565 424.189876 
L 160.837197 323.781246 
L 161.05683 424.219925 
L 161.276462 314.767784 
L 161.496094 380.634499 
L 161.715727 480.197319 
L 161.935359 355.241333 
L 162.154991 501.421958 
L 162.374623 365.59136 
L 162.594256 395.832415 
L 163.03352 350.076559 
L 163.253153 428.272889 
L 163.472785 465.966172 
L 163.692417 216.88926 
L 164.131682 511.120489 
L 164.351314 378.766872 
L 164.570946 440.984874 
L 164.790578 303.970385 
L 165.010211 368.90636 
L 165.229843 339.214564 
L 165.449475 401.245566 
L 165.669108 430.380441 
L 165.88874 280.984816 
L 166.108372 403.244512 
L 166.328004 395.895538 
L 166.547637 405.71398 
L 166.767269 443.152319 
L 166.986901 404.181753 
L 167.206534 331.163021 
L 167.426166 369.533709 
L 167.86543 292.405157 
L 168.304695 382.318089 
L 168.524327 396.083218 
L 168.74396 466.122533 
L 168.963592 419.943562 
L 169.402856 239.377367 
L 169.622489 405.568279 
L 169.842121 419.833693 
L 170.061753 408.580931 
L 170.281386 444.811583 
L 170.501018 439.69789 
L 170.72065 379.07829 
L 170.940282 444.468189 
L 171.379547 350.341272 
L 171.599179 399.447298 
L 171.818812 416.105631 
L 172.038444 305.734652 
L 172.258076 397.858498 
L 172.477708 418.217296 
L 172.697341 234.583489 
L 172.916973 459.991013 
L 173.136605 352.017112 
L 173.356238 354.978409 
L 173.795502 407.916001 
L 174.015134 487.351079 
L 174.454399 349.538307 
L 174.674031 454.772496 
L 174.893664 404.324709 
L 175.113296 506.743363 
L 175.332928 262.235557 
L 175.55256 438.912199 
L 175.991825 333.508243 
L 176.211457 421.342264 
L 176.43109 414.188298 
L 176.650722 478.912765 
L 177.089986 337.100203 
L 177.309619 405.496251 
L 177.529251 409.6428 
L 177.748883 387.789608 
L 177.968516 387.100514 
L 178.188148 273.817733 
L 178.40778 312.394486 
L 178.627412 425.268019 
L 178.847045 390.169732 
L 179.066677 377.322738 
L 179.286309 469.521635 
L 179.505941 440.024379 
L 179.725574 371.312664 
L 179.945206 447.133343 
L 180.164838 417.03889 
L 180.384471 353.678816 
L 180.823735 401.937634 
L 181.043367 240.889921 
L 181.482632 487.400143 
L 181.702264 435.846575 
L 181.921897 435.91645 
L 182.141529 450.007541 
L 182.361161 527.780512 
L 182.580793 466.767842 
L 182.800426 509.682727 
L 183.23969 277.54523 
L 183.459323 492.198242 
L 183.678955 350.417798 
L 183.898587 359.767142 
L 184.118219 308.675923 
L 184.337852 403.762366 
L 184.557484 280.549027 
L 184.777116 413.924752 
L 184.996749 269.083556 
L 185.216381 411.720904 
L 185.436013 413.64279 
L 185.655645 549.689839 
L 185.875278 344.216253 
L 186.314542 474.957775 
L 186.534175 454.890486 
L 186.753807 336.623794 
L 186.973439 508.926659 
L 187.193071 416.578785 
L 187.412704 419.759749 
L 187.632336 413.34092 
L 187.851968 215.518117 
L 188.071601 485.831386 
L 188.291233 447.988394 
L 188.510865 389.728106 
L 188.730497 490.71042 
L 188.95013 339.949596 
L 189.169762 274.627776 
L 189.389394 373.288218 
L 189.609027 378.025318 
L 189.828659 359.877398 
L 190.048291 389.690813 
L 190.267923 289.874638 
L 190.487556 452.545843 
L 190.707188 331.067531 
L 191.146453 486.678989 
L 191.366085 436.769556 
L 191.805349 401.162546 
L 192.024982 347.788119 
L 192.464246 531.462873 
L 192.683879 390.952882 
L 192.903511 364.348258 
L 193.123143 255.900841 
L 193.562408 505.984085 
L 193.78204 344.835225 
L 194.001672 314.903735 
L 194.221305 345.277045 
L 194.440937 438.085292 
L 194.660569 297.815263 
L 194.880201 379.499113 
L 195.099834 365.395362 
L 195.319466 417.958457 
L 195.539098 419.541625 
L 195.75873 518.739484 
L 196.197995 324.214414 
L 196.417627 349.877375 
L 196.856892 501.299667 
L 197.296156 264.474461 
L 197.515789 356.211054 
L 197.735421 348.997626 
L 197.955053 394.531919 
L 198.174686 412.636487 
L 198.394318 348.383435 
L 198.61395 339.168356 
L 198.833582 340.538329 
L 199.272847 501.067019 
L 199.492479 384.766086 
L 199.712112 451.564546 
L 199.931744 394.594265 
L 200.151376 531.743512 
L 200.590641 337.504761 
L 200.810273 350.943874 
L 201.029905 425.845083 
L 201.249538 436.846325 
L 201.46917 374.584817 
L 201.688802 446.18559 
L 201.908434 275.703197 
L 202.128067 388.459391 
L 202.347699 564.109113 
L 202.567331 465.84255 
L 202.786964 419.64625 
L 203.006596 348.565251 
L 203.226228 458.604232 
L 203.44586 419.05575 
L 203.665493 434.556674 
L 203.885125 392.723335 
L 204.32439 419.575973 
L 204.544022 491.949265 
L 204.763654 297.725606 
L 204.983286 242.892334 
L 205.202919 434.157869 
L 205.422551 291.010547 
L 205.642183 268.923411 
L 206.081448 375.953003 
L 206.30108 325.491143 
L 206.520712 393.779649 
L 206.740345 349.520393 
L 206.959977 417.509329 
L 207.179609 402.271551 
L 207.399242 414.332878 
L 207.618874 486.991099 
L 207.838506 346.44869 
L 208.058138 473.229006 
L 208.277771 444.717981 
L 208.497403 391.667016 
L 208.717035 442.974137 
L 208.936668 372.590121 
L 209.1563 353.4298 
L 209.595564 396.173508 
L 209.815197 407.588301 
L 210.254461 521.118637 
L 210.913358 305.001356 
L 211.352623 469.229368 
L 211.572255 355.107213 
L 211.791887 438.519875 
L 212.011519 445.511088 
L 212.231152 274.708078 
L 212.450784 439.756306 
L 212.670416 497.45762 
L 212.890049 404.872433 
L 213.109681 477.698184 
L 213.329313 330.639224 
L 213.548945 355.194319 
L 213.768578 347.104798 
L 214.427475 428.375392 
L 214.647107 439.748563 
L 214.866739 432.416787 
L 215.086371 281.592369 
L 215.306004 474.210066 
L 215.745268 335.013171 
L 215.964901 490.236778 
L 216.184533 387.361922 
L 216.404165 505.426189 
L 216.623797 456.878143 
L 216.84343 349.524297 
L 217.063062 461.53167 
L 217.282694 415.731184 
L 217.502327 416.591143 
L 217.721959 355.524539 
L 217.941591 414.849657 
L 218.161223 413.367733 
L 218.380856 403.046046 
L 218.82012 427.9009 
L 219.039753 362.929358 
L 219.259385 459.17883 
L 219.479017 453.650884 
L 219.698649 266.265861 
L 219.918282 367.716113 
L 220.357546 377.9838 
L 220.577179 476.301823 
L 220.796811 414.980307 
L 221.016443 426.491374 
L 221.236075 495.858544 
L 221.455708 356.990913 
L 221.67534 438.262971 
L 221.894972 398.29848 
L 222.114605 400.183129 
L 222.334237 326.090892 
L 222.553869 363.473899 
L 222.773501 377.673053 
L 222.993134 406.362601 
L 223.212766 352.542748 
L 223.432398 431.706811 
L 223.652031 357.304807 
L 223.871663 457.944292 
L 224.091295 377.448511 
L 224.310927 369.718796 
L 224.750192 499.532779 
L 224.969824 450.222885 
L 225.189456 331.580123 
L 225.409089 423.374988 
L 225.628721 324.782212 
L 225.848353 435.573335 
L 226.067986 424.68239 
L 226.287618 466.190868 
L 226.50725 386.217538 
L 226.946515 313.831832 
L 227.385779 430.261723 
L 227.605412 521.632631 
L 227.825044 453.504581 
L 228.044676 327.812397 
L 228.264308 390.455322 
L 228.483941 326.909151 
L 228.703573 450.806177 
L 228.923205 363.590177 
L 229.36247 289.338835 
L 229.801734 470.662481 
L 230.021367 375.038453 
L 230.240999 353.511048 
L 230.460631 445.385496 
L 230.680264 465.900144 
L 230.899896 454.010998 
L 231.119528 435.324509 
L 231.33916 403.234422 
L 231.558793 403.670564 
L 231.778425 367.639172 
L 232.21769 374.692116 
L 232.437322 453.518967 
L 232.876586 247.754407 
L 233.096219 286.378763 
L 233.315851 423.635212 
L 233.535483 388.910738 
L 233.974748 515.280577 
L 234.414012 233.079861 
L 234.853277 353.732338 
L 235.072909 362.434527 
L 235.292542 344.539521 
L 235.512174 400.650637 
L 235.731806 397.368451 
L 235.951438 361.041909 
L 236.171071 430.905803 
L 236.390703 402.256674 
L 236.610335 423.373313 
L 236.829968 333.952186 
L 237.0496 378.602665 
L 237.269232 384.549632 
L 237.488864 471.036593 
L 237.708497 425.636055 
L 237.928129 331.378858 
L 238.147761 465.392915 
L 238.367394 474.678121 
L 238.587026 308.221336 
L 238.806658 301.425684 
L 239.02629 329.723905 
L 239.245923 243.076704 
L 239.465555 422.76009 
L 239.685187 485.23601 
L 239.90482 336.794629 
L 240.124452 353.89288 
L 240.344084 421.404 
L 240.783349 317.943556 
L 241.002981 377.561947 
L 241.222613 365.751479 
L 241.442245 295.867058 
L 241.88151 467.975984 
L 242.101142 176.852949 
L 242.540407 434.576225 
L 242.760039 366.504387 
L 242.979671 415.896659 
L 243.199304 580.503039 
L 243.418936 384.94572 
L 243.638568 395.158415 
L 243.858201 297.792917 
L 244.077833 323.87247 
L 244.297465 326.287423 
L 244.517097 446.291308 
L 244.73673 442.854573 
L 244.956362 407.42068 
L 245.175994 321.310544 
L 245.395627 366.524477 
L 245.615259 462.378288 
L 245.834891 457.456747 
L 246.054523 381.744078 
L 246.274156 389.599455 
L 246.493788 291.699406 
L 246.71342 435.78056 
L 246.933053 316.76532 
L 247.152685 477.79141 
L 247.372317 344.652955 
L 247.591949 411.7476 
L 247.811582 409.844416 
L 248.031214 271.026458 
L 248.250846 432.315527 
L 248.470479 459.808131 
L 248.690111 376.028349 
L 248.909743 460.480114 
L 249.129375 323.184902 
L 249.349008 278.138959 
L 249.56864 546.373782 
L 249.788272 356.905428 
L 250.227537 464.94853 
L 250.447169 421.200456 
L 250.666801 314.166953 
L 250.886434 404.024828 
L 251.106066 285.454762 
L 251.325698 389.311398 
L 251.545331 330.998701 
L 251.984595 486.398258 
L 252.42386 287.056714 
L 252.643492 332.138315 
L 252.863124 408.047937 
L 253.082757 247.200335 
L 253.302389 316.231334 
L 253.522021 347.889901 
L 253.741653 438.966725 
L 253.961286 298.866615 
L 254.180918 380.745017 
L 254.40055 416.906279 
L 254.620183 382.553772 
L 254.839815 450.828176 
L 255.059447 382.75845 
L 255.498712 398.122634 
L 255.718344 402.779362 
L 255.937976 511.302315 
L 256.157608 357.868524 
L 256.377241 472.922307 
L 256.596873 298.718772 
L 256.816505 214.189726 
L 257.036138 391.155053 
L 257.25577 338.730584 
L 257.475402 388.389007 
L 257.695034 359.308848 
L 257.914667 438.904775 
L 258.134299 338.382795 
L 258.573564 411.744981 
L 258.793196 344.762661 
L 259.012828 444.996913 
L 259.23246 373.150085 
L 259.452093 373.990666 
L 259.671725 512.507071 
L 259.891357 382.313948 
L 260.11099 434.602313 
L 260.330622 307.321784 
L 260.550254 477.06382 
L 260.769886 402.634521 
L 260.989519 285.559901 
L 261.209151 377.311629 
L 261.428783 421.961691 
L 261.648416 364.621721 
L 262.08768 472.095623 
L 262.526945 377.660062 
L 262.746577 419.024479 
L 262.966209 338.865583 
L 263.185842 508.814696 
L 263.405474 471.10231 
L 263.625106 215.74654 
L 263.844738 421.943996 
L 264.064371 360.06912 
L 264.284003 406.308909 
L 264.503635 407.812412 
L 264.723268 288.760675 
L 264.9429 444.297251 
L 265.162532 442.413615 
L 265.382164 338.835772 
L 265.821429 421.229769 
L 266.041061 345.056605 
L 266.260694 321.7638 
L 266.699958 428.668884 
L 266.91959 314.71533 
L 267.139223 367.270936 
L 267.358855 335.391449 
L 267.578487 456.636886 
L 267.79812 320.165516 
L 268.017752 407.53632 
L 268.237384 365.99015 
L 268.457016 452.453733 
L 268.896281 378.091992 
L 269.335546 450.756164 
L 269.555178 282.00089 
L 269.77481 432.661519 
L 269.994442 488.421177 
L 270.214075 343.988245 
L 270.433707 487.317565 
L 270.653339 458.427252 
L 270.872972 274.882088 
L 271.092604 391.203902 
L 271.312236 351.344299 
L 271.531868 403.14071 
L 271.751501 362.92884 
L 271.971133 349.273438 
L 272.190765 383.457579 
L 272.410397 374.507631 
L 272.63003 437.414463 
L 272.849662 392.858271 
L 273.069294 293.590505 
L 273.288927 411.97679 
L 273.508559 404.859138 
L 273.728191 327.022632 
L 273.947823 457.329357 
L 274.167456 498.976031 
L 274.387088 352.934279 
L 274.60672 419.125122 
L 275.045985 342.977699 
L 275.265617 496.77165 
L 275.485249 353.532175 
L 275.704882 449.028486 
L 275.924514 317.291658 
L 276.144146 302.294887 
L 276.583411 422.061832 
L 276.803043 492.363563 
L 277.242308 409.779287 
L 277.46194 402.687588 
L 277.681572 454.409808 
L 277.901205 400.577529 
L 278.120837 387.075014 
L 278.560101 284.010737 
L 278.779734 411.028432 
L 278.999366 354.026054 
L 279.218998 369.527709 
L 279.438631 439.081434 
L 279.658263 360.837315 
L 279.877895 329.132493 
L 280.097527 387.325221 
L 280.536792 314.213758 
L 280.756424 412.448197 
L 280.976057 409.280729 
L 281.195689 491.904121 
L 281.415321 459.291943 
L 281.634953 400.613166 
L 281.854586 382.782511 
L 282.074218 311.445925 
L 282.29385 402.532141 
L 282.513483 408.055491 
L 282.733115 393.296634 
L 282.952747 320.257636 
L 283.392012 402.453078 
L 283.831276 273.318854 
L 284.050909 275.538799 
L 284.270541 382.179629 
L 284.490173 344.35769 
L 284.709805 380.196109 
L 284.929438 313.963452 
L 285.14907 349.754909 
L 285.368702 344.413064 
L 285.588335 422.814546 
L 285.807967 313.572228 
L 286.247231 450.389835 
L 286.466864 438.211796 
L 286.686496 485.678282 
L 286.906128 392.613667 
L 287.12576 409.36764 
L 287.345393 370.943126 
L 287.565025 462.477157 
L 287.784657 491.068874 
L 288.00429 342.477307 
L 288.223922 448.965245 
L 288.443554 393.308514 
L 288.663186 383.671361 
L 288.882819 418.99647 
L 289.102451 415.82828 
L 289.322083 369.893167 
L 289.541716 370.212237 
L 289.761348 478.922787 
L 289.98098 280.439647 
L 290.200612 348.352652 
L 290.420245 495.926802 
L 290.859509 329.309802 
L 291.298774 441.207023 
L 291.518406 339.057433 
L 291.738038 452.222919 
L 291.957671 411.642852 
L 292.177303 490.085943 
L 292.396935 386.182844 
L 292.616568 426.266032 
L 292.8362 375.600106 
L 293.055832 467.687025 
L 293.275464 317.344954 
L 293.495097 268.182778 
L 293.714729 345.211677 
L 293.934361 489.233221 
L 294.153994 314.098044 
L 294.373626 346.50927 
L 294.593258 328.946014 
L 294.81289 373.332725 
L 295.032523 391.341065 
L 295.252155 376.866909 
L 295.471787 325.789403 
L 295.69142 403.707126 
L 296.130684 358.702418 
L 296.350316 339.724582 
L 297.009213 387.28257 
L 297.228846 404.372274 
L 297.448478 311.434234 
L 297.66811 456.355213 
L 298.107375 257.619989 
L 298.327007 405.474855 
L 298.546639 340.729992 
L 298.766272 432.585647 
L 298.985904 329.664903 
L 299.205536 551.815412 
L 299.425168 371.006301 
L 299.644801 424.617935 
L 299.864433 430.769838 
L 300.084065 318.022037 
L 300.303698 442.472692 
L 300.52333 492.974655 
L 300.962594 355.529092 
L 301.182227 429.296152 
L 301.401859 459.96489 
L 301.621491 347.440792 
L 301.841124 510.49337 
L 302.060756 379.587741 
L 302.280388 457.428775 
L 302.50002 392.222701 
L 302.719653 390.149312 
L 302.939285 488.028491 
L 303.158917 383.347662 
L 303.378549 366.060689 
L 303.598182 270.576695 
L 303.817814 415.422477 
L 304.037446 269.029184 
L 304.257079 488.578557 
L 304.476711 455.995738 
L 304.696343 444.531222 
L 304.915975 474.61885 
L 305.135608 433.738667 
L 305.35524 474.725777 
L 305.574872 422.268967 
L 305.794505 469.264361 
L 306.014137 350.089953 
L 306.233769 292.157722 
L 306.453401 267.631777 
L 306.673034 464.395898 
L 306.892666 377.243293 
L 307.112298 340.319034 
L 307.331931 355.633706 
L 307.551563 448.838695 
L 307.771195 459.588347 
L 308.21046 199.682491 
L 308.430092 442.914853 
L 308.869357 377.738452 
L 309.088989 421.580068 
L 309.308621 441.222517 
L 309.528253 409.748511 
L 309.747886 455.708903 
L 309.967518 329.847854 
L 310.18715 488.999773 
L 310.406783 375.323975 
L 310.626415 431.984666 
L 310.846047 527.084972 
L 311.065679 377.457542 
L 311.285312 311.411875 
L 311.504944 393.967543 
L 311.724576 399.333654 
L 311.944209 497.496431 
L 312.383473 361.311237 
L 312.603105 433.071111 
L 312.822738 406.947598 
L 313.04237 416.51998 
L 313.262002 354.822323 
L 313.481635 350.640493 
L 313.701267 409.03812 
L 313.920899 277.417417 
L 314.140531 409.083635 
L 314.360164 404.676851 
L 314.579796 434.807668 
L 314.799428 362.871986 
L 315.019061 454.131119 
L 315.238693 452.236199 
L 315.458325 388.168306 
L 315.677957 373.346097 
L 315.89759 346.29746 
L 316.336854 489.870526 
L 316.776119 308.153113 
L 316.995751 425.285204 
L 317.215383 424.351548 
L 317.435016 329.169117 
L 317.654648 391.713457 
L 317.87428 406.640862 
L 318.093912 470.611693 
L 318.313545 367.386997 
L 318.533177 445.243667 
L 318.752809 403.572539 
L 318.972442 385.424527 
L 319.192074 391.909157 
L 319.411706 419.299919 
L 319.631338 432.454694 
L 319.850971 356.290603 
L 320.070603 364.396911 
L 320.290235 454.315285 
L 320.509868 326.906251 
L 320.7295 352.002261 
L 320.949132 415.71738 
L 321.168764 328.047331 
L 321.388397 556.418969 
L 321.608029 417.219489 
L 321.827661 363.562244 
L 322.047294 417.106361 
L 322.266926 370.841125 
L 322.486558 291.620872 
L 322.70619 410.198067 
L 323.145455 479.023832 
L 323.365087 260.568684 
L 323.58472 361.784981 
L 323.804352 408.168489 
L 324.023984 386.309214 
L 324.463249 484.600897 
L 324.902513 312.089033 
L 325.122146 522.555941 
L 325.56141 319.390986 
L 326.000675 500.176063 
L 326.439939 370.184177 
L 326.659572 553.169316 
L 326.879204 355.676514 
L 327.098836 485.091352 
L 327.538101 285.310885 
L 327.757733 373.796993 
L 327.977365 578.92725 
L 328.196998 393.515359 
L 328.41663 345.832269 
L 328.636262 474.764881 
L 328.855894 453.328921 
L 329.075527 470.788018 
L 329.295159 329.415984 
L 329.514791 273.530181 
L 329.734424 403.995047 
L 329.954056 457.199282 
L 330.173688 449.159202 
L 330.39332 363.524357 
L 330.612953 341.621699 
L 330.832585 445.412281 
L 331.052217 408.004873 
L 331.491482 486.651361 
L 331.930746 383.703265 
L 332.150379 401.844603 
L 332.370011 435.04859 
L 332.589643 344.891441 
L 332.809275 424.331461 
L 333.028908 446.029999 
L 333.24854 419.943274 
L 333.468172 410.233768 
L 333.687805 314.930107 
L 333.907437 317.447322 
L 334.127069 451.971422 
L 334.346701 408.393069 
L 334.566334 462.351637 
L 335.005598 391.524163 
L 335.225231 292.639276 
L 335.444863 322.245839 
L 335.664495 334.726166 
L 335.884127 545.937452 
L 336.10376 536.546886 
L 336.543024 341.550117 
L 336.762657 456.156931 
L 336.982289 438.288407 
L 337.201921 201.582023 
L 337.421553 464.817844 
L 337.641186 350.757246 
L 338.08045 422.089019 
L 338.300083 492.730996 
L 338.739347 334.702542 
L 338.958979 421.011092 
L 339.178612 306.404629 
L 339.398244 454.837627 
L 339.617876 187.623731 
L 339.837509 448.837127 
L 340.057141 282.627501 
L 340.276773 372.358512 
L 340.496405 362.750839 
L 340.716038 363.117825 
L 340.93567 426.366509 
L 341.155302 407.705713 
L 341.594567 416.687316 
L 341.814199 440.088176 
L 342.033831 504.810881 
L 342.473096 372.291465 
L 342.692728 415.183085 
L 342.912361 202.23005 
L 343.131993 419.077594 
L 343.351625 316.882051 
L 343.571257 420.916405 
L 343.79089 444.517254 
L 344.010522 365.792324 
L 344.230154 397.31801 
L 344.669419 346.3547 
L 344.889051 381.309599 
L 345.108683 362.9735 
L 345.328316 390.521205 
L 345.547948 307.845846 
L 345.76758 437.548904 
L 345.987213 498.190758 
L 346.206845 296.748023 
L 346.426477 322.033401 
L 346.646109 303.81975 
L 346.865742 354.606314 
L 347.085374 442.394437 
L 347.305006 345.805581 
L 347.524639 329.189868 
L 347.963903 476.437799 
L 348.183535 380.377547 
L 348.403168 369.103641 
L 348.6228 315.277008 
L 348.842432 491.451642 
L 349.062064 507.148592 
L 349.281697 343.025839 
L 349.501329 310.875907 
L 349.720961 480.655931 
L 350.379858 402.352453 
L 350.59949 437.623403 
L 350.819123 521.780661 
L 351.038755 423.31374 
L 351.258387 464.225629 
L 351.47802 474.546066 
L 351.697652 466.628356 
L 351.917284 354.442092 
L 352.136916 427.77765 
L 352.356549 452.159983 
L 352.576181 431.047478 
L 352.795813 333.699748 
L 353.235078 408.956815 
L 353.45471 294.497138 
L 353.674342 468.846639 
L 353.893975 366.064015 
L 354.113607 443.979659 
L 354.552872 373.899235 
L 354.772504 332.732437 
L 354.992136 338.688528 
L 355.211768 250.597196 
L 355.431401 489.520205 
L 355.651033 377.770291 
L 355.870665 458.410272 
L 356.090298 471.823711 
L 356.30993 330.28303 
L 356.529562 389.071841 
L 356.749194 310.960787 
L 356.968827 518.449314 
L 357.188459 463.354486 
L 357.408091 460.751442 
L 357.627724 473.800921 
L 357.847356 372.792593 
L 358.066988 481.895074 
L 358.28662 407.636315 
L 358.506253 440.804121 
L 358.725885 432.406469 
L 358.945517 462.632514 
L 359.16515 286.082954 
L 359.384782 360.315692 
L 359.604414 378.92967 
L 359.824046 383.850864 
L 360.043679 428.541807 
L 360.263311 335.71547 
L 360.482943 327.167986 
L 360.702576 306.879165 
L 360.922208 399.492632 
L 361.14184 424.576002 
L 361.361472 350.815738 
L 361.581105 370.29014 
L 361.800737 355.634084 
L 362.020369 474.469551 
L 362.240002 394.543679 
L 362.459634 440.751529 
L 362.679266 307.951109 
L 363.118531 415.990272 
L 363.338163 430.619752 
L 363.557795 460.499083 
L 363.777427 426.434066 
L 363.99706 478.798021 
L 364.216692 389.945245 
L 364.436324 461.502013 
L 364.655957 335.05213 
L 364.875589 478.352415 
L 365.095221 421.507007 
L 365.314853 421.545167 
L 365.534486 401.507376 
L 365.754118 400.621523 
L 365.97375 475.844346 
L 366.413015 343.286343 
L 366.632647 428.903664 
L 366.852279 378.360337 
L 367.071912 440.901937 
L 367.291544 427.274286 
L 367.511176 334.704776 
L 367.730809 443.985008 
L 367.950441 379.892345 
L 368.170073 388.122845 
L 368.389705 416.271629 
L 368.609338 499.060778 
L 368.82897 353.536943 
L 369.048602 339.324001 
L 369.268235 418.656021 
L 369.487867 400.739079 
L 369.707499 489.684265 
L 369.927131 304.019854 
L 370.146764 386.863861 
L 370.366396 319.656403 
L 370.805661 414.675135 
L 371.025293 429.319717 
L 371.244925 337.269156 
L 371.68419 368.49233 
L 371.903822 289.079789 
L 372.123454 427.712631 
L 372.343087 323.199626 
L 372.562719 304.231476 
L 372.782351 433.453652 
L 373.001983 381.465011 
L 373.221616 387.508433 
L 373.441248 432.953593 
L 373.66088 441.251722 
L 373.880513 476.353847 
L 374.100145 398.368603 
L 374.319777 418.645821 
L 374.539409 457.107305 
L 374.759042 384.630325 
L 374.978674 504.563472 
L 375.198306 408.584407 
L 375.417939 432.757749 
L 375.637571 320.619812 
L 375.857203 383.625014 
L 376.076835 403.542719 
L 376.296468 406.298053 
L 376.5161 430.738684 
L 376.735732 350.578016 
L 376.955365 418.579375 
L 377.174997 410.709712 
L 377.394629 330.524267 
L 377.614261 323.614464 
L 378.053526 385.62855 
L 378.273158 371.909796 
L 378.492791 391.59692 
L 378.712423 441.08447 
L 378.932055 353.480583 
L 379.151687 388.27904 
L 379.37132 357.235 
L 379.590952 451.92355 
L 380.030216 380.598625 
L 380.249849 428.832843 
L 380.469481 402.404304 
L 380.689113 303.688312 
L 380.908746 417.235996 
L 381.128378 288.959257 
L 381.34801 293.388418 
L 381.567642 357.274113 
L 381.787275 329.388599 
L 382.006907 327.720358 
L 382.665804 516.811048 
L 382.885436 301.143941 
L 383.105068 461.431598 
L 383.324701 292.84915 
L 383.544333 338.124093 
L 383.763965 323.106755 
L 383.983598 465.796548 
L 384.20323 351.02049 
L 384.422862 419.057317 
L 384.642494 425.622079 
L 384.862127 447.436523 
L 385.081759 518.684202 
L 385.301391 465.644654 
L 385.521024 497.9911 
L 385.740656 356.07052 
L 385.960288 287.157077 
L 386.17992 359.239556 
L 386.399553 362.336377 
L 386.619185 399.540424 
L 386.838817 364.72185 
L 387.278082 392.279187 
L 387.497714 328.303718 
L 387.717346 426.493814 
L 387.936979 260.790316 
L 388.156611 461.740854 
L 388.376243 423.459498 
L 388.595876 407.032237 
L 388.815508 474.906139 
L 389.03514 360.040621 
L 389.254772 466.402144 
L 389.474405 399.380499 
L 389.694037 369.243302 
L 389.913669 298.32999 
L 390.133302 331.513059 
L 390.352934 311.213887 
L 390.572566 432.619455 
L 390.792198 444.972848 
L 391.011831 182.520389 
L 391.231463 473.119599 
L 391.451095 445.433883 
L 391.670728 368.289968 
L 391.89036 357.818726 
L 392.109992 281.312847 
L 392.549257 479.203055 
L 392.768889 354.761429 
L 392.988521 373.650129 
L 393.208154 344.597481 
L 393.427786 493.464925 
L 393.647418 454.883489 
L 394.086683 295.373584 
L 394.306315 341.387253 
L 394.525947 288.644533 
L 394.745579 510.666049 
L 394.965212 346.876769 
L 395.184844 403.484973 
L 395.404476 401.957363 
L 395.843741 511.596819 
L 396.063373 376.366887 
L 396.283005 312.738687 
L 396.502638 451.645872 
L 396.941902 383.196739 
L 397.381167 494.81921 
L 397.600799 426.645337 
L 397.820431 483.434225 
L 398.040064 428.069087 
L 398.259696 487.330252 
L 398.479328 398.680897 
L 398.698961 432.436707 
L 398.918593 279.362748 
L 399.357857 440.250856 
L 399.57749 351.42501 
L 399.797122 487.879708 
L 400.236387 302.231705 
L 400.675651 360.139363 
L 400.895283 439.0776 
L 401.114916 330.770973 
L 401.55418 452.842551 
L 401.773813 511.901371 
L 402.213077 378.620454 
L 402.432709 381.847337 
L 402.652342 370.61176 
L 402.871974 268.172956 
L 403.091606 263.723312 
L 403.311239 347.216176 
L 403.530871 264.100909 
L 403.750503 409.257775 
L 403.970135 314.876548 
L 404.189768 416.730164 
L 404.4094 304.891384 
L 404.848665 403.509361 
L 405.068297 357.483299 
L 405.287929 403.840692 
L 405.507561 383.137665 
L 405.727194 341.910917 
L 405.946826 370.278968 
L 406.166458 499.418084 
L 406.386091 342.282877 
L 406.605723 381.763062 
L 406.825355 380.992483 
L 407.044987 371.116364 
L 407.26462 426.30059 
L 407.484252 294.570598 
L 407.923517 412.25736 
L 408.582413 346.195963 
L 408.802046 445.131807 
L 409.24131 380.619287 
L 409.460943 452.836028 
L 409.680575 371.158229 
L 409.900207 419.509953 
L 410.119839 340.784329 
L 410.559104 332.792349 
L 410.778736 444.108511 
L 410.998368 298.838987 
L 411.218001 354.173493 
L 411.437633 510.610714 
L 411.657265 342.940215 
L 411.876898 380.998671 
L 412.09653 363.803442 
L 412.316162 413.465614 
L 412.535794 422.742694 
L 412.755427 465.024585 
L 412.975059 310.250072 
L 413.194691 386.964099 
L 413.414324 539.425003 
L 413.633956 415.978764 
L 413.853588 359.277267 
L 414.07322 336.767507 
L 414.292853 453.801826 
L 414.512485 338.153515 
L 414.732117 438.069729 
L 414.95175 468.926681 
L 415.171382 264.678785 
L 415.391014 362.625419 
L 415.610646 354.994935 
L 415.830279 394.902054 
L 416.049911 533.006913 
L 416.269543 425.35898 
L 416.489176 441.988067 
L 416.708808 433.459054 
L 417.148072 273.541088 
L 417.367705 485.70188 
L 417.587337 296.682004 
L 417.806969 482.046131 
L 418.026602 435.309166 
L 418.246234 345.873392 
L 418.465866 363.130292 
L 418.685498 311.810268 
L 418.905131 411.377766 
L 419.124763 404.012977 
L 419.344395 225.048563 
L 419.564028 402.986343 
L 419.78366 380.773226 
L 420.003292 427.408686 
L 420.222924 408.311253 
L 420.442557 266.096679 
L 421.321086 480.086289 
L 421.540718 344.82467 
L 421.76035 434.101427 
L 421.979983 449.920705 
L 422.199615 442.538948 
L 422.419247 358.976985 
L 422.63888 378.902985 
L 422.858512 442.726647 
L 423.078144 318.72841 
L 423.297776 318.558421 
L 423.517409 239.915806 
L 423.737041 466.251262 
L 423.956673 338.059162 
L 424.176306 427.533883 
L 424.395938 395.566551 
L 424.835202 372.203714 
L 425.054835 466.518242 
L 425.494099 372.47397 
L 425.713731 466.052074 
L 425.933364 399.406158 
L 426.152996 379.684955 
L 426.372628 377.94122 
L 426.592261 438.742869 
L 426.811893 362.932728 
L 427.031525 368.486107 
L 427.251157 286.957849 
L 427.47079 359.251188 
L 427.690422 301.011008 
L 427.910054 498.30543 
L 428.129687 318.957402 
L 428.349319 424.850194 
L 428.568951 369.911317 
L 428.788583 192.788594 
L 429.008216 387.851778 
L 429.227848 429.170339 
L 429.44748 342.743462 
L 429.667113 411.235919 
L 429.886745 343.821917 
L 430.106377 347.452374 
L 430.326009 388.820582 
L 430.545642 355.741954 
L 430.765274 374.306291 
L 430.984906 438.543087 
L 431.204539 449.623553 
L 431.424171 521.992371 
L 431.863435 283.221636 
L 432.3027 475.417921 
L 432.522332 314.989473 
L 432.741965 329.22751 
L 432.961597 409.960764 
L 433.181229 405.567698 
L 433.400861 277.383604 
L 433.620494 470.048574 
L 433.840126 465.419688 
L 434.059758 437.504392 
L 434.279391 390.735426 
L 434.499023 427.825061 
L 434.718655 404.760185 
L 434.938287 394.834835 
L 435.15792 460.803613 
L 435.377552 329.439272 
L 435.597184 428.168001 
L 435.816817 373.422467 
L 436.036449 436.07955 
L 436.256081 303.43541 
L 436.475713 400.478389 
L 436.695346 269.152385 
L 436.914978 443.894825 
L 437.13461 284.203892 
L 437.354243 444.652417 
L 437.573875 377.850383 
L 437.793507 480.839495 
L 438.013139 295.555804 
L 438.232772 335.775607 
L 438.452404 437.554855 
L 438.672036 289.401093 
L 438.891669 414.355689 
L 439.111301 391.688037 
L 439.330933 402.710317 
L 439.550565 420.065581 
L 439.770198 344.69193 
L 440.209462 471.978227 
L 440.429094 339.17252 
L 440.648727 293.275583 
L 441.087991 432.601363 
L 441.307624 384.242682 
L 441.527256 449.480756 
L 441.96652 376.275118 
L 442.186153 381.254177 
L 442.405785 435.021957 
L 442.625417 416.648307 
L 442.84505 322.226804 
L 443.064682 356.043106 
L 443.284314 315.889309 
L 443.503946 324.869596 
L 443.723579 492.202404 
L 443.943211 398.499246 
L 444.162843 414.434665 
L 444.382476 459.290178 
L 444.602108 312.365995 
L 444.82174 446.721503 
L 445.041372 388.073501 
L 445.261005 431.610145 
L 445.480637 362.673844 
L 445.700269 477.659408 
L 445.919902 384.065466 
L 446.139534 427.452586 
L 446.359166 347.709675 
L 446.578798 458.30627 
L 446.798431 395.717973 
L 447.018063 457.566534 
L 447.237695 340.528727 
L 447.457328 325.901808 
L 447.67696 397.070899 
L 447.896592 398.843122 
L 448.116224 433.684699 
L 448.335857 438.554135 
L 448.555489 468.351517 
L 448.775121 383.487835 
L 448.994754 448.246501 
L 449.214386 317.924885 
L 449.434018 442.238693 
L 449.65365 411.264422 
L 449.873283 445.49661 
L 450.092915 377.97633 
L 450.312547 375.439328 
L 450.53218 352.820326 
L 450.751812 400.497869 
L 450.971444 388.211475 
L 451.191076 391.059652 
L 451.410709 498.648342 
L 451.849973 425.573802 
L 452.069606 469.070492 
L 452.289238 467.174727 
L 452.50887 386.537533 
L 452.728502 451.920941 
L 452.948135 480.675679 
L 453.167767 473.811822 
L 453.387399 299.84085 
L 453.607032 450.008544 
L 453.826664 337.371647 
L 454.046296 364.431516 
L 454.265928 131.763818 
L 454.705193 440.432793 
L 454.924825 285.493509 
L 455.144458 443.568059 
L 455.36409 415.927121 
L 455.583722 429.429312 
L 455.803354 333.313544 
L 456.022987 412.721931 
L 456.242619 358.387497 
L 456.462251 455.640477 
L 456.681883 428.929713 
L 456.901516 425.641007 
L 457.121148 366.435327 
L 457.34078 474.273789 
L 457.560413 389.811954 
L 457.780045 398.483061 
L 457.999677 328.30402 
L 458.219309 359.994838 
L 458.438942 429.921074 
L 458.658574 426.771268 
L 458.878206 449.3451 
L 459.097839 445.161199 
L 459.317471 316.003206 
L 459.537103 328.506632 
L 459.756735 360.150229 
L 459.976368 518.287429 
L 460.196 324.754562 
L 460.415632 327.231606 
L 460.635265 352.312842 
L 460.854897 445.972612 
L 461.074529 368.512205 
L 461.294161 524.27769 
L 461.513794 314.148602 
L 461.733426 259.206365 
L 462.172691 454.673289 
L 462.392323 271.54206 
L 462.611955 432.046359 
L 462.831587 388.029832 
L 463.05122 302.890665 
L 463.270852 482.456907 
L 463.490484 401.940579 
L 463.710117 383.719017 
L 463.929749 326.603329 
L 464.149381 213.950063 
L 464.369013 492.246754 
L 464.588646 382.510905 
L 464.808278 377.193074 
L 465.02791 428.066077 
L 465.467175 459.945384 
L 465.686807 466.822848 
L 465.906439 421.350172 
L 466.126072 403.769584 
L 466.345704 367.439174 
L 466.565336 463.320919 
L 466.784969 342.288807 
L 467.224233 375.32469 
L 467.443865 356.356522 
L 467.88313 400.427029 
L 468.102762 464.125114 
L 468.322395 418.829072 
L 468.542027 431.958644 
L 468.761659 494.909908 
L 469.200924 205.783389 
L 469.420556 455.935075 
L 469.640188 362.381741 
L 469.859821 390.216004 
L 470.079453 330.747273 
L 470.299085 387.52476 
L 470.73835 438.03099 
L 470.957982 415.803077 
L 471.177614 419.189737 
L 471.397246 381.553537 
L 471.616879 366.186202 
L 471.836511 392.327449 
L 472.056143 461.207514 
L 472.275776 294.184939 
L 472.495408 410.860978 
L 472.71504 393.613018 
L 473.154305 510.715573 
L 473.373937 407.540362 
L 473.593569 497.88586 
L 474.032834 324.322578 
L 474.252466 353.581625 
L 474.472098 511.496812 
L 474.691731 491.52508 
L 474.911363 300.713807 
L 475.130995 445.947922 
L 475.350628 507.052034 
L 475.57026 358.158214 
L 475.789892 307.304216 
L 476.009524 435.877826 
L 476.448789 293.73038 
L 476.668421 403.553026 
L 476.888054 426.760037 
L 477.107686 434.138293 
L 477.327318 431.864137 
L 477.54695 390.387951 
L 477.766583 279.183561 
L 477.986215 297.313208 
L 478.205847 422.665498 
L 478.42548 367.998721 
L 478.645112 469.153104 
L 478.864744 501.009009 
L 479.084376 398.17661 
L 479.304009 431.287724 
L 479.523641 250.091406 
L 479.743273 475.119809 
L 479.962906 329.670171 
L 480.182538 378.14257 
L 480.40217 334.23381 
L 480.841435 484.759749 
L 481.061067 348.90247 
L 481.280699 390.112728 
L 481.500332 459.984676 
L 481.939596 283.290457 
L 482.378861 416.453562 
L 482.598493 414.403319 
L 482.818125 297.137044 
L 483.037758 364.399953 
L 483.25739 372.494692 
L 483.477022 394.173535 
L 483.696654 373.668596 
L 483.916287 258.006548 
L 484.135919 421.222533 
L 484.355551 377.128663 
L 484.575184 483.177848 
L 484.794816 419.654962 
L 485.014448 310.832794 
L 485.23408 381.983924 
L 485.453713 278.695202 
L 485.673345 422.680653 
L 486.11261 429.294658 
L 486.332242 336.657536 
L 486.551874 388.457938 
L 486.771506 374.86293 
L 486.991139 353.936269 
L 487.210771 368.135145 
L 487.430403 349.331538 
L 487.650035 439.670848 
L 487.869668 241.151061 
L 488.0893 386.260579 
L 488.308932 314.68209 
L 488.748197 432.858094 
L 488.967829 342.852873 
L 489.187461 407.826286 
L 489.626726 357.868434 
L 489.846358 406.099434 
L 490.065991 499.863582 
L 490.285623 449.135375 
L 490.505255 302.335898 
L 490.724887 482.965369 
L 490.94452 415.927972 
L 491.164152 431.826609 
L 491.383784 336.946334 
L 491.603417 395.394188 
L 491.823049 224.325037 
L 492.042681 471.880925 
L 492.262313 361.342045 
L 492.481946 335.264014 
L 492.701578 391.879905 
L 492.92121 377.837513 
L 493.140843 483.92755 
L 493.360475 337.36699 
L 493.580107 449.88713 
L 493.799739 344.706208 
L 494.019372 446.37634 
L 494.239004 424.944379 
L 494.458636 302.473861 
L 494.678269 362.735611 
L 494.897901 357.89707 
L 495.117533 333.492006 
L 495.337165 424.619493 
L 495.77643 356.950291 
L 495.996062 396.567678 
L 496.215695 473.832104 
L 496.654959 290.30339 
L 497.094224 453.505118 
L 497.313856 476.663115 
L 497.533488 447.027433 
L 497.753121 471.240276 
L 498.412017 343.555624 
L 498.851282 489.437351 
L 499.070914 507.223609 
L 499.290547 440.285744 
L 499.510179 475.61778 
L 499.949443 292.460728 
L 500.169076 365.101322 
L 500.388708 370.259696 
L 500.60834 379.41999 
L 500.827973 328.168225 
L 501.267237 492.726821 
L 501.706502 400.324341 
L 501.926134 259.29849 
L 502.145766 208.365193 
L 502.365398 390.781279 
L 502.804663 475.05743 
L 503.024295 402.156543 
L 503.46356 394.427871 
L 503.683192 315.138559 
L 503.902824 426.296337 
L 504.122457 235.20193 
L 504.342089 456.171508 
L 504.561721 459.56083 
L 504.781354 357.887468 
L 505.000986 335.744898 
L 505.44025 457.592084 
L 505.659883 406.875031 
L 505.879515 420.07432 
L 506.099147 453.210146 
L 506.31878 439.814868 
L 506.538412 263.407641 
L 506.977676 486.601985 
L 507.197309 447.812678 
L 507.416941 359.817322 
L 507.636573 349.279435 
L 507.856206 457.362328 
L 508.075838 502.412733 
L 508.29547 366.159741 
L 508.515102 302.659565 
L 508.734735 455.072943 
L 508.954367 510.272425 
L 509.173999 283.057385 
L 509.832896 444.095847 
L 510.052528 336.287717 
L 510.272161 397.024811 
L 510.491793 379.569789 
L 510.711425 493.857525 
L 510.931058 301.28179 
L 511.15069 405.724319 
L 511.370322 268.494324 
L 512.029219 408.177875 
L 512.248851 309.334673 
L 512.468484 482.067021 
L 512.688116 329.725459 
L 512.907748 473.773741 
L 513.347013 319.020934 
L 513.566645 412.4553 
L 513.786277 416.322586 
L 514.00591 481.564696 
L 514.445174 342.455293 
L 514.884439 521.952616 
L 515.104071 411.609353 
L 515.762968 313.266446 
L 515.9826 390.726495 
L 516.202232 366.103326 
L 516.421865 390.653154 
L 516.641497 482.781629 
L 516.861129 423.718558 
L 517.080762 444.233421 
L 517.300394 265.16769 
L 517.520026 453.56915 
L 517.739658 376.507635 
L 517.959291 454.027894 
L 518.178923 323.112542 
L 518.398555 478.933215 
L 518.618187 376.951882 
L 518.83782 416.920477 
L 519.057452 419.593404 
L 519.277084 439.145192 
L 519.496717 521.839242 
L 519.716349 342.476751 
L 519.935981 319.406911 
L 520.155613 475.477271 
L 520.375246 436.474684 
L 520.594878 469.341321 
L 521.034143 401.247471 
L 521.253775 477.543923 
L 521.473407 381.128963 
L 521.693039 357.552911 
L 521.912672 356.485797 
L 522.132304 374.275823 
L 522.351936 341.550688 
L 522.571569 444.635186 
L 522.791201 398.11851 
L 523.010833 505.049325 
L 523.230465 478.324871 
L 523.450098 431.597386 
L 523.66973 291.929983 
L 523.889362 404.679767 
L 524.108995 400.309258 
L 524.548259 375.521304 
L 524.767891 397.283171 
L 524.987524 499.502829 
L 525.207156 439.930333 
L 525.426788 505.468591 
L 525.646421 319.71599 
L 525.866053 387.277901 
L 526.305317 421.834361 
L 526.52495 371.073045 
L 526.744582 374.177918 
L 526.964214 443.389923 
L 527.183847 318.872267 
L 527.403479 442.208808 
L 527.842743 352.720414 
L 528.062376 471.887755 
L 528.282008 446.244938 
L 528.50164 449.336809 
L 528.721273 413.974682 
L 528.940905 437.489364 
L 529.160537 425.23479 
L 529.380169 449.595003 
L 529.599802 396.146543 
L 529.819434 399.740203 
L 530.039066 504.018259 
L 530.258699 356.697221 
L 530.478331 403.621969 
L 530.697963 246.89655 
L 530.917595 328.101451 
L 531.137228 348.13613 
L 531.35686 354.579652 
L 531.576492 345.578296 
L 531.796125 447.434861 
L 532.015757 452.692795 
L 532.235389 485.96862 
L 532.455021 424.57906 
L 532.674654 462.336714 
L 532.894286 447.236769 
L 533.113918 350.99567 
L 533.33355 309.267581 
L 533.772815 405.738684 
L 533.992447 428.574147 
L 534.21208 430.603028 
L 534.431712 245.510381 
L 534.651344 491.873442 
L 534.870976 478.606931 
L 535.090609 315.919802 
L 535.749506 478.710679 
L 535.969138 371.099348 
L 536.18877 400.714451 
L 536.408402 317.113284 
L 536.628035 397.035124 
L 536.847667 368.660822 
L 537.067299 428.409056 
L 537.286932 368.728898 
L 537.506564 411.012151 
L 537.726196 312.869721 
L 537.945828 335.283925 
L 538.165461 327.394487 
L 538.385093 449.022351 
L 538.604725 394.991586 
L 538.824358 493.097972 
L 539.04399 448.091996 
L 539.263622 437.779254 
L 539.483254 362.295061 
L 539.702887 362.180528 
L 539.922519 480.750406 
L 540.142151 266.258409 
L 540.361784 436.810705 
L 541.02068 260.088653 
L 541.240313 501.562644 
L 541.459945 407.561433 
L 541.679577 384.061048 
L 541.89921 523.618756 
L 542.118842 379.539197 
L 542.338474 484.069101 
L 542.558106 515.90603 
L 542.777739 501.134957 
L 542.997371 406.587261 
L 543.217003 432.790433 
L 543.436636 362.573846 
L 543.656268 370.442487 
L 543.8759 305.507896 
L 544.095532 416.227767 
L 544.315165 394.723703 
L 544.534797 314.854565 
L 544.754429 365.963733 
L 544.974062 504.215283 
L 545.193694 390.295399 
L 545.413326 452.976196 
L 545.632958 262.340205 
L 545.852591 375.323231 
L 546.072223 392.07055 
L 546.73112 480.188283 
L 546.950752 376.731336 
L 547.170384 426.060973 
L 547.390017 425.320559 
L 547.609649 445.427616 
L 547.829281 255.251837 
L 548.048913 302.968552 
L 548.268546 424.730777 
L 548.488178 410.403233 
L 548.70781 345.866398 
L 548.927443 422.977894 
L 549.147075 422.64996 
L 549.366707 440.869291 
L 549.586339 412.609142 
L 550.245236 461.366644 
L 550.464869 438.780999 
L 550.684501 444.88704 
L 550.904133 388.234566 
L 551.123765 390.83698 
L 551.343398 309.510677 
L 551.56303 397.359852 
L 551.782662 297.274458 
L 552.002295 463.349768 
L 552.441559 298.285194 
L 552.661191 464.001491 
L 552.880824 422.356786 
L 553.100456 461.707925 
L 553.320088 465.592917 
L 553.539721 462.809533 
L 553.759353 373.191597 
L 554.198617 441.213964 
L 554.41825 448.602264 
L 554.637882 384.018495 
L 554.857514 406.672892 
L 555.077147 446.226608 
L 555.296779 396.155854 
L 555.516411 452.716972 
L 555.736043 315.687183 
L 555.955676 378.551407 
L 556.175308 388.72207 
L 556.39494 361.577119 
L 556.614573 416.868051 
L 556.834205 337.966411 
L 557.053837 326.698005 
L 557.273469 364.216324 
L 557.493102 360.569845 
L 557.712734 297.526092 
L 557.932366 443.379293 
L 558.151999 416.899921 
L 558.371631 415.149897 
L 558.591263 450.777222 
L 558.810895 359.924896 
L 559.030528 206.071772 
L 559.469792 384.539297 
L 559.689425 284.505611 
L 559.909057 382.902852 
L 559.909057 382.902852 
" style="fill:none;stroke:#96c69a;stroke-linecap:round;stroke-width:3;"/>
   </g>
   <g id="line2d_2"/>
   <g id="patch_3">
    <path d="M 98.911875 602.94 
L 98.911875 109.326857 
" style="fill:none;stroke:#262626;stroke-linecap:square;stroke-linejoin:miter;stroke-width:2.5;"/>
   </g>
   <g id="patch_4">
    <path d="M 98.911875 602.94 
L 581.861304 602.94 
" style="fill:none;stroke:#262626;stroke-linecap:square;stroke-linejoin:miter;stroke-width:2.5;"/>
   </g>
   <g id="legend_1">
    <g id="patch_5">
     <path d="M 528.945679 597.94 
L 574.861304 597.94 
Q 576.861304 597.94 576.861304 595.94 
L 576.861304 554.034375 
Q 576.861304 552.034375 574.861304 552.034375 
L 528.945679 552.034375 
Q 526.945679 552.034375 526.945679 554.034375 
L 526.945679 595.94 
Q 526.945679 597.94 528.945679 597.94 
z
" style="fill:#ffffff;opacity:0.8;stroke:#cccccc;stroke-linejoin:miter;stroke-width:2;"/>
    </g>
    <g id="text_17">
     <!-- $n_\tau$ -->
     <g style="fill:#262626;" transform="translate(538.823491 574.270625)scale(0.24 -0.24)">
      <defs>
       <path d="M 3566 2113 
L 3156 0 
L 2578 0 
L 2988 2091 
Q 3016 2238 3031 2350 
Q 3047 2463 3047 2528 
Q 3047 2791 2881 2937 
Q 2716 3084 2419 3084 
Q 1956 3084 1622 2776 
Q 1288 2469 1184 1941 
L 800 0 
L 225 0 
L 903 3500 
L 1478 3500 
L 1363 2950 
Q 1603 3253 1940 3418 
Q 2278 3584 2650 3584 
Q 3113 3584 3367 3334 
Q 3622 3084 3622 2631 
Q 3622 2519 3608 2391 
Q 3594 2263 3566 2113 
z
" id="DejaVuSans-Oblique-6e" transform="scale(0.015625)"/>
       <path d="M 2103 638 
Q 2188 488 2525 488 
L 2800 488 
L 2706 0 
L 2363 0 
Q 1800 0 1600 300 
Q 1403 606 1534 1269 
L 1856 2925 
L 541 2925 
L 653 3500 
L 3881 3500 
L 3769 2925 
L 2444 2925 
L 2113 1234 
Q 2025 781 2103 638 
z
" id="DejaVuSans-Oblique-3c4" transform="scale(0.015625)"/>
      </defs>
      <use xlink:href="#DejaVuSans-Oblique-6e"/>
      <use transform="translate(63.378906 -16.40625)scale(0.7)" xlink:href="#DejaVuSans-Oblique-3c4"/>
     </g>
    </g>
    <g id="line2d_3">
     <path d="M 530.945679 588.360312 
L 550.945679 588.360312 
" style="fill:none;stroke:#96c69a;stroke-linecap:round;stroke-width:3;"/>
    </g>
    <g id="line2d_4"/>
    <g id="text_18">
     <!-- 25 -->
     <g style="fill:#262626;" transform="translate(558.945679 591.860312)scale(0.1 -0.1)">
      <defs>
       <path d="M 1844 884 
L 3897 884 
L 3897 0 
L 506 0 
L 506 884 
L 2209 2388 
Q 2438 2594 2547 2791 
Q 2656 2988 2656 3200 
Q 2656 3528 2436 3728 
Q 2216 3928 1850 3928 
Q 1569 3928 1234 3808 
Q 900 3688 519 3450 
L 519 4475 
Q 925 4609 1322 4679 
Q 1719 4750 2100 4750 
Q 2938 4750 3402 4381 
Q 3866 4013 3866 3353 
Q 3866 2972 3669 2642 
Q 3472 2313 2841 1759 
L 1844 884 
z
" id="DejaVuSans-Bold-32" transform="scale(0.015625)"/>
       <path d="M 678 4666 
L 3669 4666 
L 3669 3781 
L 1638 3781 
L 1638 3059 
Q 1775 3097 1914 3117 
Q 2053 3138 2203 3138 
Q 3056 3138 3531 2711 
Q 4006 2284 4006 1522 
Q 4006 766 3489 337 
Q 2972 -91 2053 -91 
Q 1656 -91 1267 -14 
Q 878 63 494 219 
L 494 1166 
Q 875 947 1217 837 
Q 1559 728 1863 728 
Q 2300 728 2551 942 
Q 2803 1156 2803 1522 
Q 2803 1891 2551 2103 
Q 2300 2316 1863 2316 
Q 1603 2316 1309 2248 
Q 1016 2181 678 2041 
L 678 4666 
z
" id="DejaVuSans-Bold-35" transform="scale(0.015625)"/>
      </defs>
      <use xlink:href="#DejaVuSans-Bold-32"/>
      <use x="69.580078" xlink:href="#DejaVuSans-Bold-35"/>
     </g>
    </g>
   </g>
  </g>
  <g id="axes_2">
   <g id="patch_6">
    <path d="M 98.911875 92.305714 
L 581.861304 92.305714 
L 581.861304 7.2 
L 98.911875 7.2 
z
" style="fill:none;"/>
   </g>
   <g id="matplotlib.axis_3">
    <g id="xtick_7"/>
    <g id="xtick_8"/>
    <g id="xtick_9"/>
    <g id="xtick_10"/>
    <g id="xtick_11"/>
    <g id="xtick_12"/>
   </g>
   <g id="matplotlib.axis_4">
    <g id="ytick_9">
     <g id="text_19">
      <!-- 0 -->
      <g style="fill:#262626;" transform="translate(69.414375 100.663996)scale(0.22 -0.22)">
       <use xlink:href="#DejaVuSans-30"/>
      </g>
     </g>
    </g>
    <g id="ytick_10">
     <g id="text_20">
      <!-- 100 -->
      <g style="fill:#262626;" transform="translate(41.419375 48.032138)scale(0.22 -0.22)">
       <use xlink:href="#DejaVuSans-31"/>
       <use x="63.623047" xlink:href="#DejaVuSans-30"/>
       <use x="127.246094" xlink:href="#DejaVuSans-30"/>
      </g>
     </g>
    </g>
   </g>
   <g id="patch_7">
    <path clip-path="url(#pb41d6ecf82)" d="M 120.864122 92.305714 
L 154.636809 92.305714 
L 154.636809 11.252653 
L 120.864122 11.252653 
z
" style="fill:#96c69a;fill-opacity:0.5;stroke:#ffffff;stroke-linejoin:miter;stroke-width:2;"/>
   </g>
   <g id="patch_8">
    <path clip-path="url(#pb41d6ecf82)" d="M 154.636809 92.305714 
L 188.409496 92.305714 
L 188.409496 11.252653 
L 154.636809 11.252653 
z
" style="fill:#96c69a;fill-opacity:0.5;stroke:#ffffff;stroke-linejoin:miter;stroke-width:2;"/>
   </g>
   <g id="patch_9">
    <path clip-path="url(#pb41d6ecf82)" d="M 188.409496 92.305714 
L 222.182184 92.305714 
L 222.182184 11.252653 
L 188.409496 11.252653 
z
" style="fill:#96c69a;fill-opacity:0.5;stroke:#ffffff;stroke-linejoin:miter;stroke-width:2;"/>
   </g>
   <g id="patch_10">
    <path clip-path="url(#pb41d6ecf82)" d="M 222.182184 92.305714 
L 255.954871 92.305714 
L 255.954871 11.252653 
L 222.182184 11.252653 
z
" style="fill:#96c69a;fill-opacity:0.5;stroke:#ffffff;stroke-linejoin:miter;stroke-width:2;"/>
   </g>
   <g id="patch_11">
    <path clip-path="url(#pb41d6ecf82)" d="M 255.954871 92.305714 
L 289.727558 92.305714 
L 289.727558 11.778972 
L 255.954871 11.778972 
z
" style="fill:#96c69a;fill-opacity:0.5;stroke:#ffffff;stroke-linejoin:miter;stroke-width:2;"/>
   </g>
   <g id="patch_12">
    <path clip-path="url(#pb41d6ecf82)" d="M 289.727558 92.305714 
L 323.500246 92.305714 
L 323.500246 11.252653 
L 289.727558 11.252653 
z
" style="fill:#96c69a;fill-opacity:0.5;stroke:#ffffff;stroke-linejoin:miter;stroke-width:2;"/>
   </g>
   <g id="patch_13">
    <path clip-path="url(#pb41d6ecf82)" d="M 323.500246 92.305714 
L 357.272933 92.305714 
L 357.272933 11.252653 
L 323.500246 11.252653 
z
" style="fill:#96c69a;fill-opacity:0.5;stroke:#ffffff;stroke-linejoin:miter;stroke-width:2;"/>
   </g>
   <g id="patch_14">
    <path clip-path="url(#pb41d6ecf82)" d="M 357.272933 92.305714 
L 391.04562 92.305714 
L 391.04562 11.252653 
L 357.272933 11.252653 
z
" style="fill:#96c69a;fill-opacity:0.5;stroke:#ffffff;stroke-linejoin:miter;stroke-width:2;"/>
   </g>
   <g id="patch_15">
    <path clip-path="url(#pb41d6ecf82)" d="M 391.04562 92.305714 
L 424.818308 92.305714 
L 424.818308 11.778972 
L 391.04562 11.778972 
z
" style="fill:#96c69a;fill-opacity:0.5;stroke:#ffffff;stroke-linejoin:miter;stroke-width:2;"/>
   </g>
   <g id="patch_16">
    <path clip-path="url(#pb41d6ecf82)" d="M 424.818308 92.305714 
L 458.590995 92.305714 
L 458.590995 11.252653 
L 424.818308 11.252653 
z
" style="fill:#96c69a;fill-opacity:0.5;stroke:#ffffff;stroke-linejoin:miter;stroke-width:2;"/>
   </g>
   <g id="patch_17">
    <path clip-path="url(#pb41d6ecf82)" d="M 458.590995 92.305714 
L 492.363682 92.305714 
L 492.363682 11.252653 
L 458.590995 11.252653 
z
" style="fill:#96c69a;fill-opacity:0.5;stroke:#ffffff;stroke-linejoin:miter;stroke-width:2;"/>
   </g>
   <g id="patch_18">
    <path clip-path="url(#pb41d6ecf82)" d="M 492.363682 92.305714 
L 526.13637 92.305714 
L 526.13637 11.252653 
L 492.363682 11.252653 
z
" style="fill:#96c69a;fill-opacity:0.5;stroke:#ffffff;stroke-linejoin:miter;stroke-width:2;"/>
   </g>
   <g id="patch_19">
    <path clip-path="url(#pb41d6ecf82)" d="M 526.13637 92.305714 
L 559.909057 92.305714 
L 559.909057 11.252653 
L 526.13637 11.252653 
z
" style="fill:#96c69a;fill-opacity:0.5;stroke:#ffffff;stroke-linejoin:miter;stroke-width:2;"/>
   </g>
   <g id="patch_20">
    <path d="M 98.911875 92.305714 
L 98.911875 7.2 
" style="fill:none;stroke:#262626;stroke-linecap:square;stroke-linejoin:miter;stroke-width:2.5;"/>
   </g>
   <g id="patch_21">
    <path d="M 98.911875 92.305714 
L 581.861304 92.305714 
" style="fill:none;stroke:#262626;stroke-linecap:square;stroke-linejoin:miter;stroke-width:2.5;"/>
   </g>
  </g>
  <g id="axes_3">
   <g id="patch_22">
    <path d="M 598.514732 602.94 
L 681.781875 602.94 
L 681.781875 109.326857 
L 598.514732 109.326857 
z
" style="fill:none;"/>
   </g>
   <g id="matplotlib.axis_5">
    <g id="xtick_13">
     <g id="text_21">
      <!-- 0 -->
      <g style="fill:#262626;" transform="translate(591.515982 635.156562)scale(0.22 -0.22)">
       <use xlink:href="#DejaVuSans-30"/>
      </g>
     </g>
    </g>
    <g id="xtick_14">
     <g id="text_22">
      <!-- 100 -->
      <g style="fill:#262626;" transform="translate(624.442767 635.156562)scale(0.22 -0.22)">
       <use xlink:href="#DejaVuSans-31"/>
       <use x="63.623047" xlink:href="#DejaVuSans-30"/>
       <use x="127.246094" xlink:href="#DejaVuSans-30"/>
      </g>
     </g>
    </g>
   </g>
   <g id="matplotlib.axis_6">
    <g id="ytick_11"/>
    <g id="ytick_12"/>
    <g id="ytick_13"/>
    <g id="ytick_14"/>
    <g id="ytick_15"/>
    <g id="ytick_16"/>
    <g id="ytick_17"/>
    <g id="ytick_18"/>
   </g>
   <g id="patch_23">
    <path clip-path="url(#p0773d6de59)" d="M 598.514732 580.503039 
L 599.453218 580.503039 
L 599.453218 566.904881 
L 598.514732 566.904881 
z
" style="fill:#96c69a;fill-opacity:0.5;stroke:#ffffff;stroke-linejoin:miter;stroke-width:1.359816;"/>
   </g>
   <g id="patch_24">
    <path clip-path="url(#p0773d6de59)" d="M 598.514732 566.904881 
L 599.453218 566.904881 
L 599.453218 553.306723 
L 598.514732 553.306723 
z
" style="fill:#96c69a;fill-opacity:0.5;stroke:#ffffff;stroke-linejoin:miter;stroke-width:1.359816;"/>
   </g>
   <g id="patch_25">
    <path clip-path="url(#p0773d6de59)" d="M 598.514732 553.306723 
L 601.799432 553.306723 
L 601.799432 539.708564 
L 598.514732 539.708564 
z
" style="fill:#96c69a;fill-opacity:0.5;stroke:#ffffff;stroke-linejoin:miter;stroke-width:1.359816;"/>
   </g>
   <g id="patch_26">
    <path clip-path="url(#p0773d6de59)" d="M 598.514732 539.708564 
L 602.268675 539.708564 
L 602.268675 526.110406 
L 598.514732 526.110406 
z
" style="fill:#96c69a;fill-opacity:0.5;stroke:#ffffff;stroke-linejoin:miter;stroke-width:1.359816;"/>
   </g>
   <g id="patch_27">
    <path clip-path="url(#p0773d6de59)" d="M 598.514732 526.110406 
L 606.961103 526.110406 
L 606.961103 512.512248 
L 598.514732 512.512248 
z
" style="fill:#96c69a;fill-opacity:0.5;stroke:#ffffff;stroke-linejoin:miter;stroke-width:1.359816;"/>
   </g>
   <g id="patch_28">
    <path clip-path="url(#p0773d6de59)" d="M 598.514732 512.512248 
L 620.099903 512.512248 
L 620.099903 498.91409 
L 598.514732 498.91409 
z
" style="fill:#96c69a;fill-opacity:0.5;stroke:#ffffff;stroke-linejoin:miter;stroke-width:1.359816;"/>
   </g>
   <g id="patch_29">
    <path clip-path="url(#p0773d6de59)" d="M 598.514732 498.91409 
L 627.138546 498.91409 
L 627.138546 485.315932 
L 598.514732 485.315932 
z
" style="fill:#96c69a;fill-opacity:0.5;stroke:#ffffff;stroke-linejoin:miter;stroke-width:1.359816;"/>
   </g>
   <g id="patch_30">
    <path clip-path="url(#p0773d6de59)" d="M 598.514732 485.315932 
L 635.115674 485.315932 
L 635.115674 471.717773 
L 598.514732 471.717773 
z
" style="fill:#96c69a;fill-opacity:0.5;stroke:#ffffff;stroke-linejoin:miter;stroke-width:1.359816;"/>
   </g>
   <g id="patch_31">
    <path clip-path="url(#p0773d6de59)" d="M 598.514732 471.717773 
L 637.931131 471.717773 
L 637.931131 458.119615 
L 598.514732 458.119615 
z
" style="fill:#96c69a;fill-opacity:0.5;stroke:#ffffff;stroke-linejoin:miter;stroke-width:1.359816;"/>
   </g>
   <g id="patch_32">
    <path clip-path="url(#p0773d6de59)" d="M 598.514732 458.119615 
L 662.331759 458.119615 
L 662.331759 444.521457 
L 598.514732 444.521457 
z
" style="fill:#96c69a;fill-opacity:0.5;stroke:#ffffff;stroke-linejoin:miter;stroke-width:1.359816;"/>
   </g>
   <g id="patch_33">
    <path clip-path="url(#p0773d6de59)" d="M 598.514732 444.521457 
L 667.962673 444.521457 
L 667.962673 430.923299 
L 598.514732 430.923299 
z
" style="fill:#96c69a;fill-opacity:0.5;stroke:#ffffff;stroke-linejoin:miter;stroke-width:1.359816;"/>
   </g>
   <g id="patch_34">
    <path clip-path="url(#p0773d6de59)" d="M 598.514732 430.923299 
L 674.532073 430.923299 
L 674.532073 417.32514 
L 598.514732 417.32514 
z
" style="fill:#96c69a;fill-opacity:0.5;stroke:#ffffff;stroke-linejoin:miter;stroke-width:1.359816;"/>
   </g>
   <g id="patch_35">
    <path clip-path="url(#p0773d6de59)" d="M 598.514732 417.32514 
L 677.816773 417.32514 
L 677.816773 403.726982 
L 598.514732 403.726982 
z
" style="fill:#96c69a;fill-opacity:0.5;stroke:#ffffff;stroke-linejoin:miter;stroke-width:1.359816;"/>
   </g>
   <g id="patch_36">
    <path clip-path="url(#p0773d6de59)" d="M 598.514732 403.726982 
L 673.124345 403.726982 
L 673.124345 390.128824 
L 598.514732 390.128824 
z
" style="fill:#96c69a;fill-opacity:0.5;stroke:#ffffff;stroke-linejoin:miter;stroke-width:1.359816;"/>
   </g>
   <g id="patch_37">
    <path clip-path="url(#p0773d6de59)" d="M 598.514732 390.128824 
L 676.409044 390.128824 
L 676.409044 376.530666 
L 598.514732 376.530666 
z
" style="fill:#96c69a;fill-opacity:0.5;stroke:#ffffff;stroke-linejoin:miter;stroke-width:1.359816;"/>
   </g>
   <g id="patch_38">
    <path clip-path="url(#p0773d6de59)" d="M 598.514732 376.530666 
L 666.554945 376.530666 
L 666.554945 362.932508 
L 598.514732 362.932508 
z
" style="fill:#96c69a;fill-opacity:0.5;stroke:#ffffff;stroke-linejoin:miter;stroke-width:1.359816;"/>
   </g>
   <g id="patch_39">
    <path clip-path="url(#p0773d6de59)" d="M 598.514732 362.932508 
L 662.331759 362.932508 
L 662.331759 349.334349 
L 598.514732 349.334349 
z
" style="fill:#96c69a;fill-opacity:0.5;stroke:#ffffff;stroke-linejoin:miter;stroke-width:1.359816;"/>
   </g>
   <g id="patch_40">
    <path clip-path="url(#p0773d6de59)" d="M 598.514732 349.334349 
L 650.131445 349.334349 
L 650.131445 335.736191 
L 598.514732 335.736191 
z
" style="fill:#96c69a;fill-opacity:0.5;stroke:#ffffff;stroke-linejoin:miter;stroke-width:1.359816;"/>
   </g>
   <g id="patch_41">
    <path clip-path="url(#p0773d6de59)" d="M 598.514732 335.736191 
L 642.154317 335.736191 
L 642.154317 322.138033 
L 598.514732 322.138033 
z
" style="fill:#96c69a;fill-opacity:0.5;stroke:#ffffff;stroke-linejoin:miter;stroke-width:1.359816;"/>
   </g>
   <g id="patch_42">
    <path clip-path="url(#p0773d6de59)" d="M 598.514732 322.138033 
L 633.238703 322.138033 
L 633.238703 308.539875 
L 598.514732 308.539875 
z
" style="fill:#96c69a;fill-opacity:0.5;stroke:#ffffff;stroke-linejoin:miter;stroke-width:1.359816;"/>
   </g>
   <g id="patch_43">
    <path clip-path="url(#p0773d6de59)" d="M 598.514732 308.539875 
L 625.730817 308.539875 
L 625.730817 294.941717 
L 598.514732 294.941717 
z
" style="fill:#96c69a;fill-opacity:0.5;stroke:#ffffff;stroke-linejoin:miter;stroke-width:1.359816;"/>
   </g>
   <g id="patch_44">
    <path clip-path="url(#p0773d6de59)" d="M 598.514732 294.941717 
L 619.63066 294.941717 
L 619.63066 281.343558 
L 598.514732 281.343558 
z
" style="fill:#96c69a;fill-opacity:0.5;stroke:#ffffff;stroke-linejoin:miter;stroke-width:1.359816;"/>
   </g>
   <g id="patch_45">
    <path clip-path="url(#p0773d6de59)" d="M 598.514732 281.343558 
L 613.999746 281.343558 
L 613.999746 267.7454 
L 598.514732 267.7454 
z
" style="fill:#96c69a;fill-opacity:0.5;stroke:#ffffff;stroke-linejoin:miter;stroke-width:1.359816;"/>
   </g>
   <g id="patch_46">
    <path clip-path="url(#p0773d6de59)" d="M 598.514732 267.7454 
L 609.307318 267.7454 
L 609.307318 254.147242 
L 598.514732 254.147242 
z
" style="fill:#96c69a;fill-opacity:0.5;stroke:#ffffff;stroke-linejoin:miter;stroke-width:1.359816;"/>
   </g>
   <g id="patch_47">
    <path clip-path="url(#p0773d6de59)" d="M 598.514732 254.147242 
L 604.145646 254.147242 
L 604.145646 240.549084 
L 598.514732 240.549084 
z
" style="fill:#96c69a;fill-opacity:0.5;stroke:#ffffff;stroke-linejoin:miter;stroke-width:1.359816;"/>
   </g>
   <g id="patch_48">
    <path clip-path="url(#p0773d6de59)" d="M 598.514732 240.549084 
L 601.330189 240.549084 
L 601.330189 226.950926 
L 598.514732 226.950926 
z
" style="fill:#96c69a;fill-opacity:0.5;stroke:#ffffff;stroke-linejoin:miter;stroke-width:1.359816;"/>
   </g>
   <g id="patch_49">
    <path clip-path="url(#p0773d6de59)" d="M 598.514732 226.950926 
L 602.268675 226.950926 
L 602.268675 213.352767 
L 598.514732 213.352767 
z
" style="fill:#96c69a;fill-opacity:0.5;stroke:#ffffff;stroke-linejoin:miter;stroke-width:1.359816;"/>
   </g>
   <g id="patch_50">
    <path clip-path="url(#p0773d6de59)" d="M 598.514732 213.352767 
L 600.860946 213.352767 
L 600.860946 199.754609 
L 598.514732 199.754609 
z
" style="fill:#96c69a;fill-opacity:0.5;stroke:#ffffff;stroke-linejoin:miter;stroke-width:1.359816;"/>
   </g>
   <g id="patch_51">
    <path clip-path="url(#p0773d6de59)" d="M 598.514732 199.754609 
L 599.922461 199.754609 
L 599.922461 186.156451 
L 598.514732 186.156451 
z
" style="fill:#96c69a;fill-opacity:0.5;stroke:#ffffff;stroke-linejoin:miter;stroke-width:1.359816;"/>
   </g>
   <g id="patch_52">
    <path clip-path="url(#p0773d6de59)" d="M 598.514732 186.156451 
L 599.453218 186.156451 
L 599.453218 172.558293 
L 598.514732 172.558293 
z
" style="fill:#96c69a;fill-opacity:0.5;stroke:#ffffff;stroke-linejoin:miter;stroke-width:1.359816;"/>
   </g>
   <g id="patch_53">
    <path clip-path="url(#p0773d6de59)" d="M 598.514732 172.558293 
L 598.514732 172.558293 
L 598.514732 158.960135 
L 598.514732 158.960135 
z
" style="fill:#96c69a;fill-opacity:0.5;stroke:#ffffff;stroke-linejoin:miter;stroke-width:1.359816;"/>
   </g>
   <g id="patch_54">
    <path clip-path="url(#p0773d6de59)" d="M 598.514732 158.960135 
L 598.514732 158.960135 
L 598.514732 145.361976 
L 598.514732 145.361976 
z
" style="fill:#96c69a;fill-opacity:0.5;stroke:#ffffff;stroke-linejoin:miter;stroke-width:1.359816;"/>
   </g>
   <g id="patch_55">
    <path clip-path="url(#p0773d6de59)" d="M 598.514732 145.361976 
L 598.983975 145.361976 
L 598.983975 131.763818 
L 598.514732 131.763818 
z
" style="fill:#96c69a;fill-opacity:0.5;stroke:#ffffff;stroke-linejoin:miter;stroke-width:1.359816;"/>
   </g>
   <g id="patch_56">
    <path d="M 598.514732 602.94 
L 598.514732 109.326857 
" style="fill:none;stroke:#262626;stroke-linecap:square;stroke-linejoin:miter;stroke-width:2.5;"/>
   </g>
   <g id="patch_57">
    <path d="M 598.514732 602.94 
L 681.781875 602.94 
" style="fill:none;stroke:#262626;stroke-linecap:square;stroke-linejoin:miter;stroke-width:2.5;"/>
   </g>
  </g>
 </g>
 <defs>
  <clipPath id="pd24f73acd3">
   <rect height="493.613143" width="482.949429" x="98.911875" y="109.326857"/>
  </clipPath>
  <clipPath id="pb41d6ecf82">
   <rect height="85.105714" width="482.949429" x="98.911875" y="7.2"/>
  </clipPath>
  <clipPath id="p0773d6de59">
   <rect height="493.613143" width="83.267143" x="598.514732" y="109.326857"/>
  </clipPath>
 </defs>
</svg>
