<?xml version="1.0" encoding="utf-8" standalone="no"?>
<!DOCTYPE svg PUBLIC "-//W3C//DTD SVG 1.1//EN"
  "http://www.w3.org/Graphics/SVG/1.1/DTD/svg11.dtd">
<svg height="675.079375pt" version="1.1" viewBox="0 0 674.774375 675.079375" width="674.774375pt" xmlns="http://www.w3.org/2000/svg" xmlns:xlink="http://www.w3.org/1999/xlink">
 <metadata>
  <rdf:RDF xmlns:cc="http://creativecommons.org/ns#" xmlns:dc="http://purl.org/dc/elements/1.1/" xmlns:rdf="http://www.w3.org/1999/02/22-rdf-syntax-ns#">
   <cc:Work>
    <dc:type rdf:resource="http://purl.org/dc/dcmitype/StillImage"/>
    <dc:date>2021-07-16T22:22:22.792963</dc:date>
    <dc:format>image/svg+xml</dc:format>
    <dc:creator>
     <cc:Agent>
      <dc:title>Matplotlib v3.4.2, https://matplotlib.org/</dc:title>
     </cc:Agent>
    </dc:creator>
   </cc:Work>
  </rdf:RDF>
 </metadata>
 <defs>
  <style type="text/css">*{stroke-linecap:butt;stroke-linejoin:round;}</style>
 </defs>
 <g id="figure_1">
  <g id="patch_1">
   <path d="M 0 675.079375 
L 674.774375 675.079375 
L 674.774375 0 
L 0 0 
z
" style="fill:#ffffff;"/>
  </g>
  <g id="axes_1">
   <g id="patch_2">
    <path d="M 84.914375 603.86 
L 567.689804 603.86 
L 567.689804 109.484571 
L 84.914375 109.484571 
z
" style="fill:none;"/>
   </g>
   <g id="matplotlib.axis_1">
    <g id="xtick_1">
     <g id="text_1">
      <!-- 0 -->
      <g style="fill:#262626;" transform="translate(99.64041 636.076563)scale(0.22 -0.22)">
       <defs>
        <path d="M 2034 4250 
Q 1547 4250 1301 3770 
Q 1056 3291 1056 2328 
Q 1056 1369 1301 889 
Q 1547 409 2034 409 
Q 2525 409 2770 889 
Q 3016 1369 3016 2328 
Q 3016 3291 2770 3770 
Q 2525 4250 2034 4250 
z
M 2034 4750 
Q 2819 4750 3233 4129 
Q 3647 3509 3647 2328 
Q 3647 1150 3233 529 
Q 2819 -91 2034 -91 
Q 1250 -91 836 529 
Q 422 1150 422 2328 
Q 422 3509 836 4129 
Q 1250 4750 2034 4750 
z
" id="DejaVuSans-30" transform="scale(0.015625)"/>
       </defs>
       <use xlink:href="#DejaVuSans-30"/>
      </g>
     </g>
    </g>
    <g id="xtick_2">
     <g id="text_2">
      <!-- 20000 -->
      <g style="fill:#262626;" transform="translate(159.466671 636.076563)scale(0.22 -0.22)">
       <defs>
        <path d="M 1228 531 
L 3431 531 
L 3431 0 
L 469 0 
L 469 531 
Q 828 903 1448 1529 
Q 2069 2156 2228 2338 
Q 2531 2678 2651 2914 
Q 2772 3150 2772 3378 
Q 2772 3750 2511 3984 
Q 2250 4219 1831 4219 
Q 1534 4219 1204 4116 
Q 875 4013 500 3803 
L 500 4441 
Q 881 4594 1212 4672 
Q 1544 4750 1819 4750 
Q 2544 4750 2975 4387 
Q 3406 4025 3406 3419 
Q 3406 3131 3298 2873 
Q 3191 2616 2906 2266 
Q 2828 2175 2409 1742 
Q 1991 1309 1228 531 
z
" id="DejaVuSans-32" transform="scale(0.015625)"/>
       </defs>
       <use xlink:href="#DejaVuSans-32"/>
       <use x="63.623047" xlink:href="#DejaVuSans-30"/>
       <use x="127.246094" xlink:href="#DejaVuSans-30"/>
       <use x="190.869141" xlink:href="#DejaVuSans-30"/>
       <use x="254.492188" xlink:href="#DejaVuSans-30"/>
      </g>
     </g>
    </g>
    <g id="xtick_3">
     <g id="text_3">
      <!-- 40000 -->
      <g style="fill:#262626;" transform="translate(247.287932 636.076563)scale(0.22 -0.22)">
       <defs>
        <path d="M 2419 4116 
L 825 1625 
L 2419 1625 
L 2419 4116 
z
M 2253 4666 
L 3047 4666 
L 3047 1625 
L 3713 1625 
L 3713 1100 
L 3047 1100 
L 3047 0 
L 2419 0 
L 2419 1100 
L 313 1100 
L 313 1709 
L 2253 4666 
z
" id="DejaVuSans-34" transform="scale(0.015625)"/>
       </defs>
       <use xlink:href="#DejaVuSans-34"/>
       <use x="63.623047" xlink:href="#DejaVuSans-30"/>
       <use x="127.246094" xlink:href="#DejaVuSans-30"/>
       <use x="190.869141" xlink:href="#DejaVuSans-30"/>
       <use x="254.492188" xlink:href="#DejaVuSans-30"/>
      </g>
     </g>
    </g>
    <g id="xtick_4">
     <g id="text_4">
      <!-- 60000 -->
      <g style="fill:#262626;" transform="translate(335.109193 636.076563)scale(0.22 -0.22)">
       <defs>
        <path d="M 2113 2584 
Q 1688 2584 1439 2293 
Q 1191 2003 1191 1497 
Q 1191 994 1439 701 
Q 1688 409 2113 409 
Q 2538 409 2786 701 
Q 3034 994 3034 1497 
Q 3034 2003 2786 2293 
Q 2538 2584 2113 2584 
z
M 3366 4563 
L 3366 3988 
Q 3128 4100 2886 4159 
Q 2644 4219 2406 4219 
Q 1781 4219 1451 3797 
Q 1122 3375 1075 2522 
Q 1259 2794 1537 2939 
Q 1816 3084 2150 3084 
Q 2853 3084 3261 2657 
Q 3669 2231 3669 1497 
Q 3669 778 3244 343 
Q 2819 -91 2113 -91 
Q 1303 -91 875 529 
Q 447 1150 447 2328 
Q 447 3434 972 4092 
Q 1497 4750 2381 4750 
Q 2619 4750 2861 4703 
Q 3103 4656 3366 4563 
z
" id="DejaVuSans-36" transform="scale(0.015625)"/>
       </defs>
       <use xlink:href="#DejaVuSans-36"/>
       <use x="63.623047" xlink:href="#DejaVuSans-30"/>
       <use x="127.246094" xlink:href="#DejaVuSans-30"/>
       <use x="190.869141" xlink:href="#DejaVuSans-30"/>
       <use x="254.492188" xlink:href="#DejaVuSans-30"/>
      </g>
     </g>
    </g>
    <g id="xtick_5">
     <g id="text_5">
      <!-- 80000 -->
      <g style="fill:#262626;" transform="translate(422.930455 636.076563)scale(0.22 -0.22)">
       <defs>
        <path d="M 2034 2216 
Q 1584 2216 1326 1975 
Q 1069 1734 1069 1313 
Q 1069 891 1326 650 
Q 1584 409 2034 409 
Q 2484 409 2743 651 
Q 3003 894 3003 1313 
Q 3003 1734 2745 1975 
Q 2488 2216 2034 2216 
z
M 1403 2484 
Q 997 2584 770 2862 
Q 544 3141 544 3541 
Q 544 4100 942 4425 
Q 1341 4750 2034 4750 
Q 2731 4750 3128 4425 
Q 3525 4100 3525 3541 
Q 3525 3141 3298 2862 
Q 3072 2584 2669 2484 
Q 3125 2378 3379 2068 
Q 3634 1759 3634 1313 
Q 3634 634 3220 271 
Q 2806 -91 2034 -91 
Q 1263 -91 848 271 
Q 434 634 434 1313 
Q 434 1759 690 2068 
Q 947 2378 1403 2484 
z
M 1172 3481 
Q 1172 3119 1398 2916 
Q 1625 2713 2034 2713 
Q 2441 2713 2670 2916 
Q 2900 3119 2900 3481 
Q 2900 3844 2670 4047 
Q 2441 4250 2034 4250 
Q 1625 4250 1398 4047 
Q 1172 3844 1172 3481 
z
" id="DejaVuSans-38" transform="scale(0.015625)"/>
       </defs>
       <use xlink:href="#DejaVuSans-38"/>
       <use x="63.623047" xlink:href="#DejaVuSans-30"/>
       <use x="127.246094" xlink:href="#DejaVuSans-30"/>
       <use x="190.869141" xlink:href="#DejaVuSans-30"/>
       <use x="254.492188" xlink:href="#DejaVuSans-30"/>
      </g>
     </g>
    </g>
    <g id="xtick_6">
     <g id="text_6">
      <!-- 100000 -->
      <g style="fill:#262626;" transform="translate(503.752966 636.076563)scale(0.22 -0.22)">
       <defs>
        <path d="M 794 531 
L 1825 531 
L 1825 4091 
L 703 3866 
L 703 4441 
L 1819 4666 
L 2450 4666 
L 2450 531 
L 3481 531 
L 3481 0 
L 794 0 
L 794 531 
z
" id="DejaVuSans-31" transform="scale(0.015625)"/>
       </defs>
       <use xlink:href="#DejaVuSans-31"/>
       <use x="63.623047" xlink:href="#DejaVuSans-30"/>
       <use x="127.246094" xlink:href="#DejaVuSans-30"/>
       <use x="190.869141" xlink:href="#DejaVuSans-30"/>
       <use x="254.492188" xlink:href="#DejaVuSans-30"/>
       <use x="318.115234" xlink:href="#DejaVuSans-30"/>
      </g>
     </g>
    </g>
    <g id="text_7">
     <!-- MDTU -->
     <g style="fill:#262626;" transform="translate(290.596464 662.888125)scale(0.24 -0.24)">
      <defs>
       <path d="M 628 4666 
L 1569 4666 
L 2759 1491 
L 3956 4666 
L 4897 4666 
L 4897 0 
L 4281 0 
L 4281 4097 
L 3078 897 
L 2444 897 
L 1241 4097 
L 1241 0 
L 628 0 
L 628 4666 
z
" id="DejaVuSans-4d" transform="scale(0.015625)"/>
       <path d="M 1259 4147 
L 1259 519 
L 2022 519 
Q 2988 519 3436 956 
Q 3884 1394 3884 2338 
Q 3884 3275 3436 3711 
Q 2988 4147 2022 4147 
L 1259 4147 
z
M 628 4666 
L 1925 4666 
Q 3281 4666 3915 4102 
Q 4550 3538 4550 2338 
Q 4550 1131 3912 565 
Q 3275 0 1925 0 
L 628 0 
L 628 4666 
z
" id="DejaVuSans-44" transform="scale(0.015625)"/>
       <path d="M -19 4666 
L 3928 4666 
L 3928 4134 
L 2272 4134 
L 2272 0 
L 1638 0 
L 1638 4134 
L -19 4134 
L -19 4666 
z
" id="DejaVuSans-54" transform="scale(0.015625)"/>
       <path d="M 556 4666 
L 1191 4666 
L 1191 1831 
Q 1191 1081 1462 751 
Q 1734 422 2344 422 
Q 2950 422 3222 751 
Q 3494 1081 3494 1831 
L 3494 4666 
L 4128 4666 
L 4128 1753 
Q 4128 841 3676 375 
Q 3225 -91 2344 -91 
Q 1459 -91 1007 375 
Q 556 841 556 1753 
L 556 4666 
z
" id="DejaVuSans-55" transform="scale(0.015625)"/>
      </defs>
      <use xlink:href="#DejaVuSans-4d"/>
      <use x="86.279297" xlink:href="#DejaVuSans-44"/>
      <use x="163.28125" xlink:href="#DejaVuSans-54"/>
      <use x="224.365234" xlink:href="#DejaVuSans-55"/>
     </g>
    </g>
   </g>
   <g id="matplotlib.axis_2">
    <g id="ytick_1">
     <g id="text_8">
      <!-- 0.4 -->
      <g style="fill:#262626;" transform="translate(34.4275 579.322296)scale(0.22 -0.22)">
       <defs>
        <path d="M 684 794 
L 1344 794 
L 1344 0 
L 684 0 
L 684 794 
z
" id="DejaVuSans-2e" transform="scale(0.015625)"/>
       </defs>
       <use xlink:href="#DejaVuSans-30"/>
       <use x="63.623047" xlink:href="#DejaVuSans-2e"/>
       <use x="95.410156" xlink:href="#DejaVuSans-34"/>
      </g>
     </g>
    </g>
    <g id="ytick_2">
     <g id="text_9">
      <!-- 0.6 -->
      <g style="fill:#262626;" transform="translate(34.4275 521.313877)scale(0.22 -0.22)">
       <use xlink:href="#DejaVuSans-30"/>
       <use x="63.623047" xlink:href="#DejaVuSans-2e"/>
       <use x="95.410156" xlink:href="#DejaVuSans-36"/>
      </g>
     </g>
    </g>
    <g id="ytick_3">
     <g id="text_10">
      <!-- 0.8 -->
      <g style="fill:#262626;" transform="translate(34.4275 463.305459)scale(0.22 -0.22)">
       <use xlink:href="#DejaVuSans-30"/>
       <use x="63.623047" xlink:href="#DejaVuSans-2e"/>
       <use x="95.410156" xlink:href="#DejaVuSans-38"/>
      </g>
     </g>
    </g>
    <g id="ytick_4">
     <g id="text_11">
      <!-- 1.0 -->
      <g style="fill:#262626;" transform="translate(34.4275 405.29704)scale(0.22 -0.22)">
       <use xlink:href="#DejaVuSans-31"/>
       <use x="63.623047" xlink:href="#DejaVuSans-2e"/>
       <use x="95.410156" xlink:href="#DejaVuSans-30"/>
      </g>
     </g>
    </g>
    <g id="ytick_5">
     <g id="text_12">
      <!-- 1.2 -->
      <g style="fill:#262626;" transform="translate(34.4275 347.288621)scale(0.22 -0.22)">
       <use xlink:href="#DejaVuSans-31"/>
       <use x="63.623047" xlink:href="#DejaVuSans-2e"/>
       <use x="95.410156" xlink:href="#DejaVuSans-32"/>
      </g>
     </g>
    </g>
    <g id="ytick_6">
     <g id="text_13">
      <!-- 1.4 -->
      <g style="fill:#262626;" transform="translate(34.4275 289.280202)scale(0.22 -0.22)">
       <use xlink:href="#DejaVuSans-31"/>
       <use x="63.623047" xlink:href="#DejaVuSans-2e"/>
       <use x="95.410156" xlink:href="#DejaVuSans-34"/>
      </g>
     </g>
    </g>
    <g id="ytick_7">
     <g id="text_14">
      <!-- 1.6 -->
      <g style="fill:#262626;" transform="translate(34.4275 231.271784)scale(0.22 -0.22)">
       <use xlink:href="#DejaVuSans-31"/>
       <use x="63.623047" xlink:href="#DejaVuSans-2e"/>
       <use x="95.410156" xlink:href="#DejaVuSans-36"/>
      </g>
     </g>
    </g>
    <g id="ytick_8">
     <g id="text_15">
      <!-- 1.8 -->
      <g style="fill:#262626;" transform="translate(34.4275 173.263365)scale(0.22 -0.22)">
       <use xlink:href="#DejaVuSans-31"/>
       <use x="63.623047" xlink:href="#DejaVuSans-2e"/>
       <use x="95.410156" xlink:href="#DejaVuSans-38"/>
      </g>
     </g>
    </g>
    <g id="text_16">
     <!-- $E$ -->
     <g style="fill:#262626;" transform="translate(25.43625 364.352286)rotate(-90)scale(0.24 -0.24)">
      <defs>
       <path d="M 1081 4666 
L 4031 4666 
L 3928 4134 
L 1606 4134 
L 1338 2753 
L 3566 2753 
L 3463 2222 
L 1234 2222 
L 909 531 
L 3284 531 
L 3181 0 
L 172 0 
L 1081 4666 
z
" id="DejaVuSans-Oblique-45" transform="scale(0.015625)"/>
      </defs>
      <use transform="translate(0 0.09375)" xlink:href="#DejaVuSans-Oblique-45"/>
     </g>
    </g>
   </g>
   <g id="line2d_1">
    <path clip-path="url(#p101d3e3a4e)" d="M 106.858713 463.780114 
L 107.078266 411.386342 
L 107.297819 397.753405 
L 107.517372 435.470959 
L 107.736925 444.169959 
L 107.956478 384.037718 
L 108.395585 544.610909 
L 108.615138 408.780563 
L 108.834691 404.136841 
L 109.054244 170.872126 
L 109.273797 355.61589 
L 109.493351 399.920031 
L 109.712904 514.420765 
L 109.932457 519.198899 
L 110.371563 378.315607 
L 110.591116 487.329403 
L 110.810669 391.552712 
L 111.249776 526.969694 
L 111.688882 432.684293 
L 111.908435 339.708113 
L 112.127988 498.087001 
L 112.347541 409.559753 
L 112.567095 387.755933 
L 112.786648 468.23636 
L 113.006201 380.239907 
L 113.225754 404.989823 
L 113.445307 513.755561 
L 113.66486 340.521829 
L 113.884414 541.719721 
L 114.32352 394.089186 
L 114.543073 402.788718 
L 114.762626 452.5895 
L 114.982179 441.745723 
L 115.201732 481.755256 
L 115.640839 418.115711 
L 115.860392 453.803493 
L 116.079945 511.916096 
L 116.299498 388.744218 
L 116.519051 478.472429 
L 116.738605 442.950644 
L 116.958158 429.400285 
L 117.177711 474.768334 
L 117.397264 417.764431 
L 117.616817 528.774912 
L 117.83637 476.683113 
L 118.055923 473.7582 
L 118.275477 516.272489 
L 118.49503 351.979917 
L 118.714583 398.723862 
L 118.934136 512.946618 
L 119.153689 458.317878 
L 119.373242 527.247023 
L 119.592796 411.208541 
L 119.812349 404.020027 
L 120.251455 572.813681 
L 120.471008 434.242404 
L 120.690561 446.825645 
L 120.910114 552.564613 
L 121.129668 470.377248 
L 121.349221 493.962329 
L 121.568774 502.32977 
L 121.788327 364.855988 
L 122.00788 508.016677 
L 122.227433 451.868961 
L 122.446987 515.923261 
L 122.886093 308.552774 
L 123.105646 492.741612 
L 123.325199 361.596814 
L 123.544752 418.623971 
L 123.764305 430.01737 
L 123.983859 291.499822 
L 124.203412 461.061866 
L 124.422965 454.203379 
L 124.642518 334.046584 
L 124.862071 429.130745 
L 125.081624 297.701125 
L 125.301178 401.23804 
L 125.520731 387.99783 
L 125.740284 476.461428 
L 125.959837 516.637733 
L 126.17939 455.882573 
L 126.398943 482.530947 
L 126.618496 443.77142 
L 126.83805 522.147333 
L 127.057603 449.378313 
L 127.277156 511.567647 
L 127.496709 476.450213 
L 127.716262 372.414916 
L 128.155369 484.383841 
L 128.374922 464.382582 
L 128.594475 542.682063 
L 128.814028 494.973344 
L 129.033581 392.372998 
L 129.253134 497.241555 
L 129.472687 541.329661 
L 129.692241 453.578825 
L 129.911794 499.66446 
L 130.131347 351.586662 
L 130.3509 432.862284 
L 130.570453 379.77077 
L 131.00956 515.553349 
L 131.229113 448.743775 
L 131.448666 446.291927 
L 131.668219 381.3006 
L 131.887772 512.505115 
L 132.107325 443.906215 
L 132.326878 450.619634 
L 132.546432 439.878054 
L 132.765985 440.292287 
L 132.985538 437.061029 
L 133.205091 467.006209 
L 133.424644 462.730807 
L 133.644197 360.348011 
L 133.863751 475.647747 
L 134.083304 420.617479 
L 134.302857 477.971677 
L 134.52241 393.648559 
L 134.741963 431.598087 
L 134.961516 509.618626 
L 135.181069 451.537013 
L 135.400623 512.15024 
L 135.620176 406.178255 
L 135.839729 500.43978 
L 136.059282 496.094083 
L 136.278835 234.321284 
L 136.498388 521.703541 
L 136.717941 436.182603 
L 136.937495 445.760821 
L 137.157048 528.40117 
L 137.376601 488.789299 
L 137.596154 480.980779 
L 137.815707 483.021262 
L 138.03526 384.628254 
L 138.474367 519.319006 
L 138.913473 440.388304 
L 139.133026 345.390121 
L 139.352579 471.015461 
L 139.572132 433.796611 
L 139.791686 461.008115 
L 140.011239 563.147527 
L 140.230792 323.72219 
L 140.669898 483.712899 
L 140.889451 342.098158 
L 141.109005 338.87708 
L 141.328558 482.258403 
L 141.548111 320.17499 
L 141.767664 530.289694 
L 142.20677 496.275783 
L 142.426323 510.439762 
L 142.645877 426.306183 
L 142.86543 472.063574 
L 143.084983 338.806128 
L 143.304536 504.797146 
L 143.524089 461.79397 
L 143.743642 459.998016 
L 143.963196 509.892194 
L 144.182749 534.335732 
L 144.402302 488.250758 
L 144.841408 460.431909 
L 145.060961 494.248243 
L 145.280514 321.935812 
L 145.500068 395.108074 
L 145.719621 403.182418 
L 145.939174 516.757793 
L 146.158727 375.616419 
L 146.37828 493.092454 
L 146.597833 505.65425 
L 146.817387 424.434166 
L 147.03694 482.83791 
L 147.256493 507.590864 
L 147.476046 400.122682 
L 147.695599 521.259341 
L 148.134705 532.880549 
L 148.354259 310.025728 
L 148.573812 482.684721 
L 148.793365 455.918447 
L 149.012918 445.082482 
L 149.232471 469.053055 
L 149.452024 479.923533 
L 149.671578 325.691242 
L 149.891131 433.507767 
L 150.110684 460.890592 
L 150.54979 416.582029 
L 150.769343 471.771409 
L 150.988896 403.543174 
L 151.20845 477.859592 
L 151.428003 406.609195 
L 151.647556 443.012202 
L 151.867109 387.557615 
L 152.086662 485.312608 
L 152.306215 526.436006 
L 152.525769 434.830495 
L 152.745322 525.21784 
L 152.964875 515.965544 
L 153.184428 375.414513 
L 153.623534 505.105695 
L 154.062641 424.764656 
L 154.501747 547.894883 
L 154.7213 523.679823 
L 154.940853 458.627533 
L 155.160406 495.458184 
L 155.37996 494.847352 
L 155.599513 407.290424 
L 155.819066 492.78263 
L 156.038619 447.436572 
L 156.258172 303.770986 
L 156.477725 442.968587 
L 156.697278 339.517683 
L 157.136385 530.309913 
L 157.355938 461.951947 
L 157.575491 472.225272 
L 157.795044 541.76979 
L 158.014597 333.189355 
L 158.234151 453.913756 
L 158.453704 389.462398 
L 158.673257 561.379524 
L 158.89281 507.381463 
L 159.112363 542.060273 
L 159.331916 504.236919 
L 159.551469 496.627023 
L 159.771023 499.209252 
L 159.990576 475.783617 
L 160.210129 379.232603 
L 160.649235 462.639948 
L 160.868788 494.533383 
L 161.088342 449.783647 
L 161.307895 498.284538 
L 161.527448 485.405897 
L 161.747001 496.643561 
L 161.966554 490.119238 
L 162.186107 537.585535 
L 162.40566 329.033385 
L 162.844767 543.223505 
L 163.283873 304.581358 
L 163.503426 430.969412 
L 163.722979 493.004277 
L 163.942532 506.783986 
L 164.162086 436.462733 
L 164.381639 329.74341 
L 164.601192 438.65255 
L 164.820745 464.803137 
L 165.040298 528.44169 
L 165.259851 453.372316 
L 165.479405 454.558803 
L 165.698958 477.149083 
L 165.918511 436.32814 
L 166.138064 490.808654 
L 166.357617 450.576387 
L 166.57717 500.163461 
L 166.796723 462.188372 
L 167.23583 538.521531 
L 167.455383 329.809849 
L 167.674936 491.755789 
L 167.894489 518.373993 
L 168.114042 420.926467 
L 168.333596 415.835724 
L 168.553149 398.889042 
L 168.772702 508.297001 
L 168.992255 462.062631 
L 169.211808 459.557046 
L 169.431361 443.347516 
L 169.650914 444.972055 
L 169.870468 493.770187 
L 170.309574 435.256728 
L 170.529127 437.385576 
L 170.74868 438.143703 
L 170.968233 426.009003 
L 171.187787 398.035626 
L 171.40734 397.150342 
L 171.626893 500.049966 
L 171.846446 312.210745 
L 172.065999 510.522324 
L 172.285552 390.159677 
L 172.505105 491.272071 
L 172.724659 499.432977 
L 172.944212 488.878552 
L 173.163765 492.507464 
L 173.383318 485.343325 
L 173.602871 434.509047 
L 173.822424 450.55006 
L 174.041978 553.230964 
L 174.261531 459.168434 
L 174.481084 460.834865 
L 174.700637 408.20618 
L 174.92019 510.274199 
L 175.139743 318.003449 
L 175.359296 388.383704 
L 175.57885 388.73878 
L 175.798403 401.149514 
L 176.017956 373.671998 
L 176.237509 424.464496 
L 176.676615 450.122877 
L 177.115722 372.841743 
L 177.335275 451.355338 
L 177.554828 382.241746 
L 177.774381 421.437936 
L 177.993934 528.732312 
L 178.213487 426.123898 
L 178.433041 421.543493 
L 178.652594 461.789105 
L 178.872147 396.898139 
L 179.0917 370.796357 
L 179.311253 511.944531 
L 179.530806 441.988736 
L 179.75036 499.946114 
L 179.969913 518.585231 
L 180.189466 435.907383 
L 180.409019 525.54692 
L 180.628572 470.779555 
L 180.848125 489.091376 
L 181.287232 414.074888 
L 181.506785 464.315334 
L 181.726338 462.614896 
L 181.945891 292.762684 
L 182.165444 424.364293 
L 182.604551 503.059053 
L 183.043657 313.033417 
L 183.26321 441.227236 
L 183.482763 484.557403 
L 183.702316 489.272601 
L 183.921869 516.450472 
L 184.141423 472.695409 
L 184.360976 472.36726 
L 184.580529 434.902501 
L 184.800082 342.826553 
L 185.019635 477.242043 
L 185.239188 488.147493 
L 185.458742 385.901504 
L 185.678295 516.242525 
L 185.897848 474.952361 
L 186.117401 521.469003 
L 186.336954 410.159253 
L 186.77606 492.393685 
L 186.995614 384.743562 
L 187.215167 480.621584 
L 187.43472 394.653436 
L 187.654273 473.421364 
L 187.873826 452.783884 
L 188.093379 407.981642 
L 188.312932 415.542321 
L 188.532486 511.695338 
L 188.752039 433.426703 
L 188.971592 464.625849 
L 189.191145 398.710475 
L 189.410698 368.067987 
L 189.630251 371.925753 
L 190.069358 528.033872 
L 190.288911 447.58627 
L 190.508464 468.453966 
L 190.728017 323.679669 
L 190.94757 504.275373 
L 191.386677 336.678235 
L 191.60623 528.992705 
L 191.825783 347.317228 
L 192.045336 502.003516 
L 192.264889 468.805601 
L 192.484442 481.521027 
L 192.703996 422.527855 
L 192.923549 514.08138 
L 193.143102 391.63838 
L 193.362655 397.452937 
L 193.582208 447.198011 
L 193.801761 391.972056 
L 194.021314 473.496003 
L 194.240868 470.716334 
L 194.460421 388.397198 
L 194.679974 258.135079 
L 195.11908 465.848174 
L 195.338633 459.244231 
L 195.558187 469.304403 
L 195.77774 365.475121 
L 195.997293 425.015133 
L 196.216846 230.140711 
L 196.436399 431.90533 
L 196.655952 443.485062 
L 196.875505 441.152576 
L 197.095059 377.687574 
L 197.314612 443.955116 
L 197.534165 463.329843 
L 197.753718 456.32335 
L 197.973271 336.851629 
L 198.412378 508.149302 
L 198.631931 491.658921 
L 198.851484 499.369915 
L 199.071037 518.668 
L 199.29059 431.58457 
L 199.510143 471.009428 
L 199.729696 399.43919 
L 199.94925 483.643907 
L 200.168803 468.146556 
L 200.388356 492.116311 
L 200.607909 356.420225 
L 200.827462 447.783072 
L 201.047015 404.585515 
L 201.266569 505.922501 
L 201.486122 406.392627 
L 201.705675 504.992368 
L 201.925228 425.029892 
L 202.144781 472.54391 
L 202.364334 473.55792 
L 202.583887 507.146058 
L 203.022994 352.3722 
L 203.242547 494.722293 
L 203.4621 421.266632 
L 203.681653 553.163423 
L 204.12076 404.201194 
L 204.340313 494.636418 
L 204.559866 515.805136 
L 204.779419 505.100492 
L 204.998972 438.700839 
L 205.218525 536.923496 
L 205.438078 419.343397 
L 205.657632 398.192603 
L 205.877185 525.626379 
L 206.096738 559.685803 
L 206.316291 498.860613 
L 206.535844 503.642438 
L 206.755397 462.188419 
L 206.974951 482.42541 
L 207.194504 514.468807 
L 207.414057 135.442417 
L 207.63361 416.773086 
L 207.853163 410.673785 
L 208.072716 490.803641 
L 208.511823 331.823936 
L 208.731376 465.854291 
L 208.950929 503.823314 
L 209.170482 428.049468 
L 209.390035 462.978016 
L 209.609588 552.095025 
L 210.268248 342.511693 
L 210.487801 474.499615 
L 210.707354 445.735476 
L 210.926907 499.571406 
L 211.14646 521.385756 
L 211.366014 458.187296 
L 211.585567 429.955397 
L 211.80512 448.885762 
L 212.024673 505.697506 
L 212.244226 327.387392 
L 212.463779 450.593146 
L 212.683333 454.34638 
L 212.902886 478.762713 
L 213.122439 458.520212 
L 213.341992 456.905298 
L 213.561545 454.308733 
L 214.000651 562.154257 
L 214.220205 513.219147 
L 214.439758 497.132114 
L 214.659311 308.219195 
L 214.878864 540.152573 
L 215.098417 484.538317 
L 215.31797 481.029688 
L 215.537523 467.584063 
L 215.757077 424.99091 
L 215.97663 490.611039 
L 216.196183 467.578711 
L 216.635289 279.452123 
L 217.074396 468.76879 
L 217.293949 341.302639 
L 217.733055 552.166877 
L 217.952608 404.820508 
L 218.172161 485.196655 
L 218.611268 421.42483 
L 218.830821 409.024 
L 219.050374 407.851403 
L 219.269927 328.197873 
L 219.48948 499.053317 
L 219.709033 371.772106 
L 219.928587 486.970731 
L 220.14814 453.522143 
L 220.367693 514.090881 
L 220.587246 468.752246 
L 220.806799 484.909726 
L 221.026352 485.662094 
L 221.245905 338.687642 
L 221.685012 512.019615 
L 221.904565 444.328522 
L 222.343671 544.927291 
L 222.563224 417.169576 
L 222.782778 485.346585 
L 223.002331 511.518174 
L 223.221884 420.023858 
L 223.66099 487.483619 
L 223.880543 537.717905 
L 224.100096 557.079495 
L 224.31965 422.964293 
L 224.539203 408.409371 
L 224.978309 508.678407 
L 225.197862 487.659664 
L 225.417415 524.48589 
L 225.636969 416.794405 
L 225.856522 509.273173 
L 226.295628 431.996558 
L 226.515181 319.969356 
L 226.734734 487.888781 
L 226.954287 385.303183 
L 227.173841 414.917656 
L 227.393394 477.745487 
L 227.612947 497.563909 
L 227.8325 487.447374 
L 228.052053 496.469071 
L 228.271606 480.728045 
L 228.49116 503.121097 
L 228.710713 565.65798 
L 228.930266 371.42151 
L 229.149819 420.637731 
L 229.369372 422.079244 
L 229.588925 506.21637 
L 229.808478 465.186058 
L 230.028032 467.648202 
L 230.247585 446.029026 
L 230.686691 524.193315 
L 230.906244 515.21321 
L 231.125797 347.667316 
L 231.345351 413.005187 
L 231.564904 345.345435 
L 231.784457 485.300147 
L 232.00401 455.902133 
L 232.223563 477.689152 
L 232.443116 384.522565 
L 232.662669 417.522937 
L 232.882223 351.188621 
L 233.101776 469.999867 
L 233.321329 521.412495 
L 233.760435 421.826981 
L 233.979988 383.77829 
L 234.199542 421.50328 
L 234.419095 421.543193 
L 234.638648 489.383324 
L 234.858201 423.463408 
L 235.297307 459.665734 
L 235.51686 458.359288 
L 235.736414 355.406376 
L 235.955967 451.925447 
L 236.17552 470.556852 
L 236.395073 419.497019 
L 236.614626 501.168874 
L 236.834179 436.306785 
L 237.053733 278.194061 
L 237.273286 439.39912 
L 237.492839 327.706443 
L 237.712392 466.989805 
L 237.931945 520.486792 
L 238.151498 394.746962 
L 238.371051 509.560664 
L 238.590605 456.83039 
L 238.810158 467.052567 
L 239.029711 325.697637 
L 239.249264 451.288628 
L 239.468817 297.322706 
L 239.907924 436.485324 
L 240.127477 513.7696 
L 240.34703 471.742478 
L 240.566583 462.892556 
L 240.786136 444.145948 
L 241.005689 487.619303 
L 241.225242 430.24364 
L 241.444796 486.832197 
L 241.664349 278.608565 
L 241.883902 374.181301 
L 242.542561 524.697789 
L 242.762114 498.853005 
L 242.981668 377.887921 
L 243.201221 488.39304 
L 243.420774 486.325131 
L 243.640327 477.411307 
L 243.85988 441.73671 
L 244.079433 307.590217 
L 244.298987 485.603926 
L 244.738093 418.213672 
L 245.177199 496.853604 
L 245.396752 498.315691 
L 245.616305 511.263352 
L 245.835859 502.642794 
L 246.055412 479.476523 
L 246.274965 415.975307 
L 246.494518 461.015377 
L 246.714071 534.675758 
L 247.153178 481.72761 
L 247.592284 342.649678 
L 247.811837 422.756684 
L 248.03139 419.396013 
L 248.470496 470.909348 
L 248.69005 486.24643 
L 248.909603 366.020294 
L 249.348709 526.904314 
L 249.568262 503.9052 
L 249.787815 452.89046 
L 250.007369 489.793895 
L 250.226922 398.663396 
L 250.446475 453.040684 
L 250.666028 387.607536 
L 250.885581 398.651441 
L 251.105134 500.880079 
L 251.324687 328.647605 
L 251.544241 370.404994 
L 251.763794 458.351814 
L 251.983347 339.800503 
L 252.2029 374.067943 
L 252.422453 458.02805 
L 252.642006 371.627687 
L 252.86156 354.770637 
L 253.081113 445.626984 
L 253.300666 370.40348 
L 253.520219 420.152779 
L 253.739772 496.837366 
L 254.178878 456.084071 
L 254.398432 533.616012 
L 254.617985 377.656473 
L 254.837538 524.064399 
L 255.057091 533.728944 
L 255.276644 452.19666 
L 255.715751 511.456725 
L 255.935304 511.320447 
L 256.154857 389.392305 
L 256.37441 519.173554 
L 256.593963 514.569732 
L 256.813516 466.920637 
L 257.033069 469.342314 
L 257.252623 389.477528 
L 257.472176 560.24419 
L 257.691729 464.844383 
L 258.130835 479.050171 
L 258.350388 351.194304 
L 258.569942 366.463849 
L 258.789495 492.829987 
L 259.009048 505.538303 
L 259.228601 455.255311 
L 259.448154 286.741035 
L 259.667707 417.905769 
L 259.88726 481.311934 
L 260.106814 457.905383 
L 260.326367 418.942396 
L 260.54592 469.568539 
L 260.765473 228.248115 
L 260.985026 477.312681 
L 261.204579 473.983667 
L 261.424133 502.636418 
L 261.643686 478.520538 
L 261.863239 415.878911 
L 262.082792 509.963612 
L 262.302345 417.570057 
L 262.741451 507.38075 
L 262.961005 458.386521 
L 263.180558 491.193844 
L 263.400111 484.132003 
L 263.619664 467.705331 
L 263.839217 369.260905 
L 264.05877 512.66767 
L 264.497877 391.616367 
L 264.936983 489.677319 
L 265.156536 399.183892 
L 265.376089 514.154974 
L 265.595642 420.540671 
L 265.815196 521.990032 
L 266.034749 388.925154 
L 266.254302 332.53391 
L 266.473855 500.890107 
L 266.693408 581.38839 
L 266.912961 478.342106 
L 267.352068 525.682397 
L 267.571621 376.897454 
L 267.791174 404.694501 
L 268.010727 519.538218 
L 268.23028 506.406427 
L 268.449833 444.28848 
L 268.669387 502.759691 
L 268.88894 458.649795 
L 269.108493 484.174217 
L 269.328046 394.25069 
L 269.547599 497.360158 
L 269.767152 528.913235 
L 269.986705 487.737725 
L 270.206259 522.276605 
L 270.425812 404.95156 
L 270.645365 528.042748 
L 270.864918 470.035665 
L 271.084471 506.519499 
L 271.304024 392.685829 
L 271.523578 469.794745 
L 271.743131 434.091751 
L 272.182237 532.843753 
L 272.40179 429.523722 
L 272.621343 500.463599 
L 273.06045 483.765578 
L 273.280003 416.582906 
L 273.499556 478.55104 
L 273.719109 397.138022 
L 273.938662 556.636614 
L 274.158215 396.462246 
L 274.377769 377.705152 
L 274.597322 439.616008 
L 274.816875 408.429949 
L 275.036428 359.673411 
L 275.255981 506.727931 
L 275.475534 435.686303 
L 275.695087 469.024453 
L 275.914641 532.602143 
L 276.134194 508.997994 
L 276.353747 243.621731 
L 276.5733 570.678229 
L 276.792853 298.273175 
L 277.012406 491.981337 
L 277.23196 392.482727 
L 277.671066 498.332788 
L 277.890619 248.91555 
L 278.110172 429.073927 
L 278.329725 265.47869 
L 278.549278 359.799263 
L 278.768832 328.441376 
L 279.207938 495.670634 
L 279.427491 434.148271 
L 279.866597 489.048995 
L 280.086151 350.73612 
L 280.305704 459.223781 
L 280.525257 500.132698 
L 280.74481 477.416831 
L 280.964363 438.182811 
L 281.183916 503.718602 
L 281.623023 380.837923 
L 281.842576 463.084763 
L 282.062129 392.892654 
L 282.281682 405.188725 
L 282.501235 501.915367 
L 282.720788 496.209051 
L 282.940342 510.561224 
L 283.159895 402.673414 
L 283.379448 480.222723 
L 283.599001 494.363745 
L 283.818554 542.695124 
L 284.038107 406.627148 
L 284.25766 412.045139 
L 284.477214 442.366225 
L 284.696767 496.066969 
L 284.91632 322.80513 
L 285.135873 424.849238 
L 285.355426 374.491698 
L 285.574979 522.205954 
L 285.794533 418.423462 
L 286.014086 488.599658 
L 286.233639 505.515278 
L 286.453192 437.134211 
L 286.672745 254.724992 
L 286.892298 463.4637 
L 287.111851 399.306971 
L 287.550958 490.834234 
L 287.770511 410.889675 
L 287.990064 478.338348 
L 288.209617 509.534967 
L 288.42917 431.24129 
L 288.648724 455.996176 
L 288.868277 397.193072 
L 289.08783 418.382872 
L 289.307383 503.777037 
L 289.526936 496.975084 
L 289.746489 533.191508 
L 289.966042 497.951525 
L 290.185596 426.237551 
L 290.405149 481.723135 
L 290.844255 495.04467 
L 291.283361 396.444871 
L 291.502915 427.709109 
L 291.722468 406.933823 
L 292.381127 487.632288 
L 292.60068 428.954879 
L 292.820233 496.652048 
L 293.039787 425.329834 
L 293.25934 565.004018 
L 293.478893 528.757117 
L 293.917999 337.79384 
L 294.357105 522.013646 
L 294.796212 387.7986 
L 295.015765 491.426186 
L 295.235318 394.054509 
L 295.454871 500.960883 
L 295.674424 457.455249 
L 295.893978 482.241412 
L 296.113531 465.55925 
L 296.333084 386.925062 
L 296.552637 413.741713 
L 296.77219 397.84997 
L 297.43085 524.712989 
L 297.650403 523.41654 
L 297.869956 494.066631 
L 298.089509 420.981176 
L 298.309062 442.023979 
L 298.528615 446.092501 
L 298.748169 474.904169 
L 299.187275 296.580728 
L 299.406828 484.43588 
L 299.626381 345.655103 
L 299.845934 438.830074 
L 300.065487 376.411381 
L 300.285041 410.686993 
L 300.504594 397.813882 
L 301.163253 500.031369 
L 301.382806 476.03979 
L 301.60236 336.983228 
L 301.821913 511.53923 
L 302.041466 399.445319 
L 302.261019 514.559239 
L 302.700125 458.149755 
L 302.919678 472.777002 
L 303.139232 364.444479 
L 303.358785 363.530165 
L 303.578338 499.736815 
L 303.797891 499.46743 
L 304.236997 463.743007 
L 304.456551 518.874722 
L 304.676104 403.328169 
L 304.895657 379.989512 
L 305.11521 475.755947 
L 305.334763 431.994741 
L 305.554316 485.055005 
L 305.993423 447.839879 
L 306.212976 462.478143 
L 306.432529 411.80743 
L 306.652082 499.117152 
L 306.871635 493.698738 
L 307.091188 461.147426 
L 307.310742 506.212436 
L 307.530295 428.173997 
L 307.749848 443.702771 
L 308.188954 490.928705 
L 308.408507 322.487779 
L 308.62806 452.163327 
L 308.847614 486.316608 
L 309.067167 484.266201 
L 309.28672 456.450547 
L 309.506273 465.769465 
L 309.725826 469.491459 
L 309.945379 522.862862 
L 310.164933 410.973198 
L 310.384486 430.172188 
L 310.604039 541.074451 
L 310.823592 427.714695 
L 311.043145 486.615005 
L 311.482251 363.968392 
L 311.701805 494.030815 
L 311.921358 443.981157 
L 312.140911 553.478427 
L 312.360464 244.249735 
L 312.580017 440.064225 
L 312.79957 529.545737 
L 313.019124 457.706691 
L 313.238677 476.737309 
L 313.45823 471.189997 
L 313.897336 393.729348 
L 314.116889 403.537941 
L 314.555996 481.85599 
L 314.775549 450.290168 
L 314.995102 474.07982 
L 315.434208 448.50334 
L 315.653761 516.928187 
L 316.092868 440.306218 
L 316.312421 407.587368 
L 316.531974 229.568594 
L 316.751527 508.552003 
L 316.97108 528.066607 
L 317.190633 459.960748 
L 317.410187 438.156275 
L 317.62974 507.021052 
L 317.849293 413.572719 
L 318.068846 479.204142 
L 318.288399 511.497731 
L 318.727506 391.089205 
L 319.166612 559.833988 
L 319.386165 374.693381 
L 319.605718 364.351677 
L 319.825271 392.011739 
L 320.044824 298.461084 
L 320.264378 457.663199 
L 320.483931 374.653629 
L 320.703484 374.900107 
L 320.923037 374.343181 
L 321.14259 358.016032 
L 321.362143 405.931175 
L 321.581696 359.307286 
L 321.80125 468.824649 
L 322.020803 468.426208 
L 322.240356 474.287785 
L 322.459909 517.104382 
L 322.899015 397.997836 
L 323.338122 487.337345 
L 323.557675 505.979149 
L 323.777228 326.679953 
L 323.996781 483.324544 
L 324.216334 504.072596 
L 324.435887 378.901234 
L 324.655441 513.465688 
L 324.874994 537.83014 
L 325.094547 535.545863 
L 325.3141 416.287129 
L 325.533653 549.595577 
L 325.753206 527.084087 
L 326.192313 428.426118 
L 326.411866 429.906161 
L 326.631419 543.284422 
L 326.850972 457.820931 
L 327.070525 503.629859 
L 327.290078 410.596769 
L 327.509632 447.692179 
L 328.168291 371.973754 
L 328.387844 540.841771 
L 328.607397 459.123235 
L 328.826951 483.119734 
L 329.046504 474.529783 
L 329.266057 541.820953 
L 329.48561 392.679656 
L 329.705163 482.601424 
L 329.924716 407.636272 
L 330.144269 470.420989 
L 330.363823 426.299281 
L 330.583376 556.636651 
L 330.802929 409.77186 
L 331.022482 486.87105 
L 331.461588 507.408907 
L 331.681142 508.669987 
L 331.900695 373.296468 
L 332.120248 415.972205 
L 332.559354 442.242942 
L 332.99846 392.681527 
L 333.218014 474.277777 
L 333.437567 483.142518 
L 333.65712 500.571193 
L 333.876673 435.516173 
L 334.096226 460.830558 
L 334.315779 504.918795 
L 334.535333 486.563138 
L 334.754886 500.540524 
L 334.974439 411.60597 
L 335.193992 485.907807 
L 335.633098 476.138532 
L 335.852651 392.352691 
L 336.072205 439.805782 
L 336.291758 433.922695 
L 336.511311 470.507726 
L 336.730864 468.654909 
L 336.950417 473.916634 
L 337.16997 518.754423 
L 337.389524 325.457935 
L 337.609077 512.089204 
L 337.82863 482.450246 
L 338.048183 493.567967 
L 338.267736 462.738505 
L 338.487289 413.228519 
L 338.706842 401.67705 
L 338.926396 492.887316 
L 339.145949 532.578804 
L 339.365502 449.294869 
L 339.585055 456.44725 
L 339.804608 448.278541 
L 340.024161 416.217492 
L 340.243715 452.871896 
L 340.463268 409.207025 
L 340.902374 520.817124 
L 341.34148 380.471346 
L 341.561033 462.02945 
L 341.780587 497.722961 
L 342.00014 466.328104 
L 342.219693 559.137341 
L 342.439246 506.793834 
L 342.658799 381.540743 
L 342.878352 340.276816 
L 343.097906 413.447468 
L 343.317459 392.631224 
L 343.756565 436.427813 
L 343.976118 402.588617 
L 344.195671 489.143259 
L 344.415224 434.378519 
L 344.854331 443.369048 
L 345.073884 475.537918 
L 345.293437 434.714836 
L 345.51299 373.226323 
L 345.952096 496.363813 
L 346.17165 345.696261 
L 346.391203 364.432396 
L 346.610756 464.669032 
L 346.830309 376.975722 
L 347.049862 534.236358 
L 347.269415 421.058035 
L 347.488969 478.1815 
L 347.708522 282.212103 
L 347.928075 454.253151 
L 348.147628 317.283979 
L 348.367181 524.797195 
L 348.586734 472.763324 
L 348.806287 480.399997 
L 349.025841 453.451495 
L 349.245394 485.001699 
L 349.464947 536.423669 
L 349.6845 531.181882 
L 350.123606 479.081116 
L 350.34316 379.124956 
L 350.562713 486.428499 
L 350.782266 382.023477 
L 351.001819 392.236508 
L 351.221372 482.561656 
L 351.440925 352.931023 
L 351.660478 538.073019 
L 351.880032 368.139452 
L 352.099585 298.994664 
L 352.319138 462.754339 
L 352.538691 428.295791 
L 352.758244 495.961947 
L 352.977797 456.152451 
L 353.197351 522.558443 
L 353.416904 388.979469 
L 353.636457 533.222098 
L 353.85601 531.423276 
L 354.075563 312.058072 
L 354.734223 513.272513 
L 355.173329 399.006349 
L 355.392882 511.387697 
L 355.612435 407.634706 
L 355.831988 433.611066 
L 356.051542 348.148296 
L 356.271095 353.923338 
L 356.490648 380.034265 
L 356.710201 489.006707 
L 356.929754 339.226921 
L 357.149307 475.434486 
L 357.588414 501.3515 
L 357.807967 485.366619 
L 358.02752 454.434419 
L 358.247073 502.695409 
L 358.466626 495.434086 
L 358.686179 477.212032 
L 358.905733 535.005722 
L 359.125286 500.557604 
L 359.344839 387.330667 
L 359.783945 539.598291 
L 360.003498 482.514633 
L 360.223051 512.848367 
L 360.442605 488.661982 
L 360.662158 411.920859 
L 361.101264 543.519817 
L 361.320817 421.644005 
L 361.54037 489.334207 
L 361.759924 420.698331 
L 361.979477 453.549412 
L 362.418583 431.311354 
L 362.638136 517.726034 
L 362.857689 391.091083 
L 363.077242 462.838834 
L 363.296796 378.787903 
L 363.516349 430.00752 
L 363.735902 520.736506 
L 363.955455 541.922098 
L 364.175008 549.905687 
L 364.394561 529.637419 
L 364.614115 454.716619 
L 365.272774 498.109548 
L 365.492327 530.433149 
L 365.931433 356.068426 
L 366.150987 498.637607 
L 366.37054 370.036619 
L 366.809646 534.495955 
L 367.029199 497.96848 
L 367.248752 493.465602 
L 367.468306 483.756325 
L 367.687859 485.668391 
L 367.907412 464.408875 
L 368.126965 365.07637 
L 368.346518 464.027055 
L 368.566071 438.149092 
L 368.785624 476.971462 
L 369.005178 473.415891 
L 369.224731 353.860406 
L 369.444284 509.580699 
L 369.663837 470.875673 
L 369.88339 455.92445 
L 370.102943 359.313689 
L 370.322497 479.779388 
L 370.54205 423.908441 
L 370.761603 502.983076 
L 370.981156 467.120427 
L 371.200709 467.441609 
L 371.420262 409.611855 
L 372.078922 527.924765 
L 372.298475 444.224565 
L 372.518028 409.195734 
L 372.737581 450.556786 
L 372.957134 559.012425 
L 373.176687 462.046558 
L 373.396241 507.630601 
L 373.615794 316.951022 
L 374.0549 480.37793 
L 374.274453 474.778615 
L 374.494006 389.491491 
L 374.71356 548.665597 
L 374.933113 439.354064 
L 375.152666 480.73887 
L 375.372219 499.00997 
L 375.591772 331.349693 
L 376.030878 512.183894 
L 376.250432 425.991744 
L 376.469985 433.134769 
L 376.689538 376.079242 
L 376.909091 488.603534 
L 377.128644 487.916165 
L 377.348197 471.338694 
L 377.567751 504.639466 
L 377.787304 505.018433 
L 378.006857 342.113505 
L 378.22641 417.299662 
L 378.445963 245.85996 
L 378.665516 493.119303 
L 378.885069 519.426308 
L 379.104623 416.537671 
L 379.324176 497.52318 
L 379.543729 476.983294 
L 379.763282 382.035218 
L 379.982835 532.112873 
L 380.202388 504.930127 
L 380.421942 314.757054 
L 380.641495 341.675982 
L 381.080601 477.943581 
L 381.519707 416.843502 
L 381.73926 317.237806 
L 381.958814 423.778999 
L 382.178367 418.811317 
L 382.39792 436.133106 
L 382.617473 379.711316 
L 382.837026 488.745086 
L 383.056579 515.459717 
L 383.276133 385.599173 
L 383.495686 426.505715 
L 383.715239 388.000526 
L 384.154345 514.078408 
L 384.373898 272.266558 
L 384.593451 490.096218 
L 384.813005 498.197633 
L 385.032558 368.330973 
L 385.252111 425.74893 
L 385.471664 385.796571 
L 385.691217 479.890103 
L 385.91077 440.540662 
L 386.130324 539.804765 
L 386.349877 401.724818 
L 386.56943 433.619268 
L 386.788983 517.499115 
L 387.008536 436.277381 
L 387.228089 303.951528 
L 387.447642 464.044604 
L 387.667196 502.111487 
L 387.886749 283.625272 
L 388.106302 474.869261 
L 388.545408 275.327102 
L 388.764961 458.657219 
L 389.204068 474.613189 
L 389.423621 428.268983 
L 389.643174 429.471109 
L 389.862727 400.906754 
L 390.08228 537.819877 
L 390.301833 537.243701 
L 390.521387 457.577211 
L 390.74094 482.301027 
L 390.960493 467.925738 
L 391.180046 348.749248 
L 391.619152 515.869732 
L 391.838706 435.345652 
L 392.058259 446.931652 
L 392.497365 342.043644 
L 392.716918 400.289178 
L 392.936471 505.735092 
L 393.156024 311.171847 
L 393.375578 386.547899 
L 393.595131 419.977402 
L 393.814684 474.703286 
L 394.034237 341.128384 
L 394.25379 508.14998 
L 394.473343 505.202874 
L 394.692897 416.409739 
L 394.91245 488.531127 
L 395.132003 435.300057 
L 395.351556 472.261933 
L 395.790662 496.05624 
L 396.010215 381.199347 
L 396.229769 486.120975 
L 396.449322 344.596491 
L 396.668875 398.891444 
L 396.888428 419.537367 
L 397.107981 364.886229 
L 397.327534 513.002609 
L 397.547087 451.353775 
L 397.766641 324.084948 
L 397.986194 482.802649 
L 398.205747 479.814035 
L 398.644853 427.640497 
L 398.864406 447.302247 
L 399.08396 447.046268 
L 399.303513 332.629415 
L 399.523066 439.441223 
L 399.742619 403.013188 
L 399.962172 524.914516 
L 400.401278 311.085896 
L 400.620832 389.810678 
L 400.840385 424.092967 
L 401.059938 383.214245 
L 401.279491 393.876697 
L 401.499044 483.693019 
L 401.718597 501.456998 
L 401.938151 404.092692 
L 402.157704 485.230078 
L 402.377257 497.228558 
L 402.59681 335.835934 
L 402.816363 517.863794 
L 403.035916 441.378991 
L 403.255469 404.78484 
L 403.475023 444.182618 
L 403.694576 403.297816 
L 403.914129 394.720273 
L 404.353235 463.120224 
L 404.572788 462.079858 
L 404.792342 387.304531 
L 405.011895 469.054054 
L 405.231448 506.632018 
L 405.670554 300.191271 
L 405.890107 401.115938 
L 406.10966 561.964228 
L 406.548767 527.175156 
L 406.76832 419.419864 
L 406.987873 420.635695 
L 407.207426 414.709518 
L 407.426979 478.052062 
L 407.866086 326.91838 
L 408.085639 441.197162 
L 408.305192 475.266917 
L 408.524745 468.361916 
L 408.963851 313.716761 
L 409.183405 422.086477 
L 409.402958 422.311069 
L 409.622511 507.896083 
L 409.842064 515.295063 
L 410.061617 459.497834 
L 410.28117 516.159809 
L 410.500724 488.61504 
L 410.720277 421.928032 
L 410.93983 548.686836 
L 411.159383 479.526663 
L 411.378936 477.109555 
L 411.598489 503.435002 
L 411.818042 428.178257 
L 412.037596 478.682616 
L 412.257149 500.804569 
L 412.476702 401.668537 
L 412.696255 442.150702 
L 412.915808 441.787915 
L 413.135361 539.730037 
L 413.574468 445.964976 
L 413.794021 541.04569 
L 414.013574 508.133194 
L 414.233127 423.4209 
L 414.45268 480.557558 
L 414.672233 414.860616 
L 414.891787 471.0592 
L 415.11134 454.146259 
L 415.330893 511.71695 
L 415.550446 455.488494 
L 415.769999 482.378266 
L 415.989552 429.202231 
L 416.209106 433.79482 
L 416.428659 505.889802 
L 416.648212 487.817308 
L 416.867765 393.029034 
L 417.087318 451.850163 
L 417.306871 331.838705 
L 417.526424 492.345428 
L 417.745978 517.689784 
L 418.185084 420.718552 
L 418.404637 476.129034 
L 418.62419 442.947975 
L 418.843743 287.805907 
L 419.063297 470.827065 
L 419.28285 464.601493 
L 419.502403 509.778128 
L 419.721956 250.266126 
L 420.161062 526.452475 
L 420.380615 408.879708 
L 420.600169 498.634631 
L 420.819722 458.516344 
L 421.039275 467.881434 
L 421.258828 442.538704 
L 421.478381 491.153432 
L 421.697934 493.830127 
L 421.917488 562.995242 
L 422.137041 469.210728 
L 422.356594 537.780117 
L 422.576147 471.224637 
L 422.7957 463.827298 
L 423.015253 417.492269 
L 423.234806 489.871162 
L 423.45436 461.333292 
L 423.673913 505.474859 
L 423.893466 355.761559 
L 424.113019 356.375224 
L 424.332572 512.526998 
L 424.552125 489.565194 
L 424.771678 439.770214 
L 424.991232 486.05338 
L 425.210785 482.580375 
L 425.869444 420.913697 
L 426.088997 457.816915 
L 426.308551 419.144793 
L 426.528104 457.354433 
L 426.747657 470.819327 
L 426.96721 412.671108 
L 427.186763 405.50492 
L 427.406316 246.667821 
L 427.625869 393.433003 
L 428.064976 323.146995 
L 428.284529 515.734389 
L 428.504082 477.511924 
L 428.723635 533.069011 
L 428.943188 468.387707 
L 429.162742 447.728772 
L 429.382295 512.73644 
L 429.601848 386.168887 
L 430.040954 484.949145 
L 430.260507 515.438247 
L 430.48006 419.503355 
L 430.699614 430.940049 
L 430.919167 353.391074 
L 431.13872 482.154353 
L 431.358273 451.883777 
L 431.577826 291.926611 
L 432.016933 433.801178 
L 432.236486 488.618265 
L 432.456039 345.637638 
L 432.895145 477.074943 
L 433.114698 253.723294 
L 433.334251 467.187012 
L 433.553805 491.808879 
L 433.992911 376.900778 
L 434.212464 511.229236 
L 434.432017 289.123976 
L 434.65157 493.434983 
L 434.871124 486.873875 
L 435.090677 402.840328 
L 435.31023 382.044292 
L 435.529783 505.348743 
L 435.749336 425.76477 
L 435.968889 493.202671 
L 436.188442 488.728071 
L 436.407996 359.600233 
L 436.627549 504.319527 
L 436.847102 458.144038 
L 437.066655 455.736871 
L 437.286208 290.283819 
L 437.505761 507.875629 
L 437.725315 489.594491 
L 437.944868 391.33502 
L 438.164421 445.420517 
L 438.383974 394.264164 
L 438.603527 430.635494 
L 438.82308 404.939412 
L 439.042633 504.086162 
L 439.262187 312.528369 
L 439.48174 514.235364 
L 439.701293 520.441135 
L 439.920846 543.656207 
L 440.140399 449.648375 
L 440.359952 563.645743 
L 440.579506 402.493503 
L 440.799059 516.374234 
L 441.018612 305.229793 
L 441.238165 431.181288 
L 441.457718 480.545556 
L 441.677271 483.322975 
L 441.896824 527.46237 
L 442.116378 433.318458 
L 442.555484 478.146527 
L 442.775037 423.73149 
L 442.99459 521.36671 
L 443.214143 440.607764 
L 443.433697 410.719243 
L 443.65325 532.18906 
L 443.872803 376.360257 
L 444.092356 394.928901 
L 444.311909 445.081257 
L 444.531462 424.446242 
L 444.751015 478.047354 
L 444.970569 492.173305 
L 445.190122 478.415674 
L 445.409675 477.682629 
L 445.629228 367.702011 
L 445.848781 520.008079 
L 446.068334 338.165978 
L 446.287888 470.874798 
L 446.507441 440.001296 
L 446.726994 500.43454 
L 446.946547 375.830315 
L 447.1661 356.346936 
L 447.385653 476.418394 
L 447.605206 440.259322 
L 447.82476 468.076282 
L 448.483419 300.144537 
L 448.702972 507.12083 
L 448.922525 531.420811 
L 449.142079 512.243346 
L 449.361632 510.905102 
L 449.800738 411.921701 
L 450.020291 499.39086 
L 450.239844 498.79329 
L 450.459397 482.974264 
L 450.678951 492.996106 
L 450.898504 416.240086 
L 451.118057 408.373975 
L 451.33761 499.628187 
L 451.557163 518.086829 
L 451.776716 501.032388 
L 451.996269 429.388176 
L 452.215823 471.207864 
L 452.435376 394.249222 
L 452.654929 430.184575 
L 452.874482 423.526332 
L 453.094035 427.083125 
L 453.313588 540.042477 
L 453.533142 445.282321 
L 453.752695 417.880547 
L 453.972248 447.70725 
L 454.191801 526.31421 
L 454.411354 487.541281 
L 454.630907 549.558971 
L 454.85046 482.102463 
L 455.289567 453.723163 
L 455.50912 418.068302 
L 455.728673 524.432702 
L 455.948226 490.749111 
L 456.167779 510.544263 
L 456.387333 458.889657 
L 456.606886 524.248564 
L 456.826439 520.593764 
L 457.045992 554.955859 
L 457.265545 468.118764 
L 457.485098 457.255911 
L 457.924205 491.372096 
L 458.143758 480.811777 
L 458.582864 285.659423 
L 458.802417 402.500796 
L 459.02197 425.612796 
L 459.241524 494.137581 
L 459.461077 471.286098 
L 459.68063 418.520344 
L 459.900183 514.525691 
L 460.119736 505.982102 
L 460.339289 469.214119 
L 460.558842 460.107022 
L 460.778396 491.048295 
L 460.997949 365.887558 
L 461.217502 489.973199 
L 461.437055 514.345446 
L 461.656608 448.603198 
L 461.876161 533.105564 
L 462.095715 421.950325 
L 462.315268 423.079395 
L 462.534821 432.232869 
L 462.754374 482.649434 
L 462.973927 371.53813 
L 463.19348 410.773807 
L 463.413033 356.430591 
L 463.85214 515.3244 
L 464.071693 541.997247 
L 464.510799 398.718307 
L 464.730352 466.036492 
L 464.949906 487.856609 
L 465.389012 456.483001 
L 465.608565 494.0854 
L 465.828118 566.458133 
L 466.047671 434.907995 
L 466.267224 448.636149 
L 466.706331 532.214666 
L 466.925884 479.845974 
L 467.145437 480.672391 
L 467.36499 415.359517 
L 467.584543 501.568167 
L 467.804097 450.669306 
L 468.02365 283.015565 
L 468.243203 425.445842 
L 468.462756 405.667877 
L 468.682309 494.120569 
L 468.901862 523.096401 
L 469.340969 476.879773 
L 469.560522 389.264345 
L 469.780075 499.631564 
L 469.999628 458.8181 
L 470.219181 510.542927 
L 470.438734 442.373257 
L 470.658288 445.048676 
L 470.877841 434.690783 
L 471.097394 517.940157 
L 471.316947 381.236534 
L 471.5365 474.6112 
L 471.756053 387.275454 
L 471.975606 493.496728 
L 472.19516 344.785656 
L 472.414713 474.997957 
L 472.634266 450.652712 
L 472.853819 335.860381 
L 473.073372 467.054307 
L 473.292925 459.31742 
L 473.512479 537.734945 
L 473.732032 496.458411 
L 473.951585 518.57201 
L 474.171138 513.165732 
L 474.390691 421.404941 
L 474.610244 505.449238 
L 474.829797 516.179131 
L 475.268904 374.781167 
L 475.70801 499.667902 
L 476.147116 376.45467 
L 476.366669 426.257267 
L 476.586223 308.764813 
L 476.805776 422.752834 
L 477.025329 384.855952 
L 477.244882 479.277479 
L 477.464435 416.069711 
L 477.683988 396.385496 
L 477.903542 408.777703 
L 478.342648 527.05817 
L 478.562201 467.36624 
L 478.781754 444.355749 
L 479.001307 382.67459 
L 479.440414 441.994928 
L 479.659967 425.016214 
L 479.87952 452.639693 
L 480.099073 517.525327 
L 480.318626 511.607203 
L 480.538179 501.355573 
L 480.757733 547.764471 
L 480.977286 492.744228 
L 481.196839 523.980765 
L 481.416392 444.419342 
L 481.635945 450.54875 
L 481.855498 485.558898 
L 482.075051 310.239146 
L 482.514158 507.124533 
L 482.733711 463.779627 
L 482.953264 524.555263 
L 483.172817 451.81926 
L 483.39237 461.538084 
L 483.611924 476.925074 
L 483.831477 444.785431 
L 484.270583 513.431328 
L 484.490136 483.938056 
L 484.709689 323.96122 
L 484.929242 436.207282 
L 485.148796 401.004396 
L 485.368349 407.755811 
L 485.587902 367.96116 
L 485.807455 539.83147 
L 486.027008 513.636326 
L 486.246561 461.79932 
L 486.466115 311.34133 
L 486.685668 509.506582 
L 486.905221 500.845623 
L 487.124774 462.175912 
L 487.344327 503.920999 
L 487.56388 456.121195 
L 488.002987 427.124508 
L 488.22254 388.857867 
L 488.442093 417.452835 
L 488.661646 426.993643 
L 488.881199 465.243693 
L 489.100752 389.738599 
L 489.320306 516.646325 
L 489.539859 464.246524 
L 489.759412 503.455805 
L 489.978965 507.366091 
L 490.198518 407.808194 
L 490.418071 399.371869 
L 490.637624 482.334124 
L 490.857178 478.868693 
L 491.076731 496.429866 
L 491.296284 524.81295 
L 491.515837 444.325305 
L 491.73539 430.153864 
L 491.954943 576.748488 
L 492.174497 463.189189 
L 492.39405 411.226645 
L 492.613603 551.810762 
L 492.833156 554.784334 
L 493.052709 499.989381 
L 493.272262 298.818202 
L 493.711369 448.720529 
L 494.150475 548.422925 
L 494.370028 417.821611 
L 494.809134 465.904265 
L 495.028688 448.731119 
L 495.248241 472.742154 
L 495.467794 474.547834 
L 495.687347 512.432915 
L 495.9069 495.699724 
L 496.126453 317.738229 
L 496.346006 429.9156 
L 496.56556 425.525911 
L 496.785113 396.850331 
L 497.004666 397.903023 
L 497.224219 453.88346 
L 497.443772 409.437729 
L 497.663325 454.057062 
L 498.102432 404.844028 
L 498.321985 479.53286 
L 498.541538 365.983161 
L 498.761091 353.565155 
L 498.980644 493.487598 
L 499.200197 468.461244 
L 499.419751 519.269384 
L 499.858857 361.660074 
L 500.07841 359.002936 
L 500.517516 536.069722 
L 500.73707 421.774348 
L 500.956623 559.25984 
L 501.176176 452.090892 
L 501.395729 519.931202 
L 501.615282 351.828918 
L 502.054388 525.718017 
L 502.273942 392.269497 
L 502.493495 343.622311 
L 502.713048 467.802416 
L 502.932601 483.416853 
L 503.152154 405.126217 
L 503.371707 376.155155 
L 503.810814 478.056735 
L 504.030367 453.692935 
L 504.24992 490.233935 
L 504.469473 493.75483 
L 504.689026 479.69233 
L 504.908579 521.665976 
L 505.128133 388.112995 
L 505.347686 465.579888 
L 505.567239 499.656477 
L 505.786792 501.288968 
L 506.006345 521.247628 
L 506.225898 307.768882 
L 506.445451 492.70094 
L 506.665005 378.679898 
L 506.884558 448.85328 
L 507.104111 467.449467 
L 507.543217 421.986263 
L 507.982324 463.38586 
L 508.201877 516.173873 
L 508.42143 501.123353 
L 508.640983 355.005743 
L 508.860536 534.665356 
L 509.080089 438.814628 
L 509.519196 504.280587 
L 509.738749 492.029727 
L 509.958302 507.330028 
L 510.177855 508.022226 
L 510.616961 465.766444 
L 510.836515 419.648243 
L 511.056068 500.043157 
L 511.275621 497.322593 
L 511.495174 467.096988 
L 511.714727 497.23419 
L 511.93428 358.05761 
L 512.153833 507.594906 
L 512.373387 414.980464 
L 512.59294 464.555341 
L 513.032046 398.62107 
L 513.251599 409.41236 
L 513.471152 499.041713 
L 513.690706 535.40363 
L 513.910259 131.956182 
L 514.349365 480.641477 
L 514.568918 491.316032 
L 515.008024 334.85162 
L 515.227578 377.779005 
L 515.447131 391.892188 
L 515.666684 442.922027 
L 515.886237 459.005061 
L 516.10579 519.069218 
L 516.325343 466.036546 
L 516.544897 493.513437 
L 516.76445 448.448276 
L 516.984003 455.899783 
L 517.203556 491.041881 
L 517.423109 363.774434 
L 517.642662 481.863294 
L 517.862215 392.058784 
L 518.081769 420.048109 
L 518.301322 489.118964 
L 518.520875 447.115453 
L 518.740428 520.290318 
L 519.399088 422.784676 
L 519.838194 455.202996 
L 520.057747 471.836175 
L 520.2773 419.694603 
L 520.496853 483.113451 
L 520.93596 369.466907 
L 521.375066 451.962816 
L 521.594619 505.757616 
L 521.814172 501.294795 
L 522.033725 504.24629 
L 522.253279 395.730649 
L 522.472832 517.619365 
L 522.692385 441.097855 
L 522.911938 427.521584 
L 523.131491 498.504741 
L 523.351044 401.164325 
L 523.570597 539.695338 
L 523.790151 474.681327 
L 524.009704 516.049763 
L 524.229257 366.553687 
L 524.44881 410.162306 
L 524.668363 418.786579 
L 524.887916 349.13175 
L 525.10747 396.412719 
L 525.327023 360.755732 
L 525.546576 474.465078 
L 525.766129 435.530935 
L 525.985682 426.10662 
L 526.205235 542.885113 
L 526.424788 501.917667 
L 526.644342 522.492216 
L 527.083448 360.891491 
L 527.303001 548.301754 
L 527.522554 453.973385 
L 527.742107 442.644086 
L 527.96166 325.637277 
L 528.181214 520.887779 
L 528.400767 396.908949 
L 528.62032 467.351279 
L 528.839873 422.359916 
L 529.059426 347.261927 
L 529.498533 486.118948 
L 529.937639 354.852985 
L 530.376745 432.106084 
L 530.596298 509.413124 
L 530.815851 387.996409 
L 531.035405 374.816271 
L 531.254958 524.744728 
L 531.474511 395.729282 
L 531.694064 348.944104 
L 531.913617 413.014749 
L 532.13317 353.732906 
L 532.352724 436.637148 
L 532.572277 421.530856 
L 532.79183 238.693548 
L 533.011383 478.647025 
L 533.230936 463.830882 
L 533.450489 356.972773 
L 533.670042 458.081898 
L 533.889596 428.676705 
L 534.109149 332.55547 
L 534.328702 464.105908 
L 534.548255 490.212559 
L 534.767808 456.56852 
L 534.987361 449.557126 
L 535.206915 467.672009 
L 535.426468 509.440985 
L 535.646021 370.177737 
L 535.865574 447.467145 
L 536.085127 422.442228 
L 536.30468 372.239962 
L 536.524233 471.385208 
L 536.743787 402.00452 
L 536.96334 509.809024 
L 537.182893 461.603202 
L 537.402446 472.340795 
L 537.621999 460.761304 
L 537.841552 434.979855 
L 538.061106 485.901141 
L 538.280659 379.930912 
L 538.500212 379.204597 
L 538.719765 527.320351 
L 539.158871 473.500033 
L 539.378424 417.328763 
L 539.597978 551.413561 
L 539.817531 520.621823 
L 540.037084 268.05535 
L 540.256637 508.647468 
L 540.47619 467.730244 
L 540.695743 351.138952 
L 540.915297 357.997247 
L 541.13485 486.715619 
L 541.354403 462.211331 
L 541.573956 378.176763 
L 541.793509 409.480942 
L 542.013062 419.332305 
L 542.232615 515.0459 
L 542.671722 463.081781 
L 542.891275 486.211875 
L 543.110828 544.530806 
L 543.549934 385.148264 
L 543.769488 470.11151 
L 543.989041 380.974606 
L 544.208594 471.772764 
L 544.428147 203.630374 
L 544.6477 518.739193 
L 544.867253 535.43205 
L 545.086806 378.081747 
L 545.30636 520.72117 
L 545.525913 424.077159 
L 545.745466 432.906363 
L 545.745466 432.906363 
" style="fill:none;stroke:#96c69a;stroke-linecap:round;stroke-width:3;"/>
   </g>
   <g id="line2d_2"/>
   <g id="patch_3">
    <path d="M 84.914375 603.86 
L 84.914375 109.484571 
" style="fill:none;stroke:#262626;stroke-linecap:square;stroke-linejoin:miter;stroke-width:2.5;"/>
   </g>
   <g id="patch_4">
    <path d="M 84.914375 603.86 
L 567.689804 603.86 
" style="fill:none;stroke:#262626;stroke-linecap:square;stroke-linejoin:miter;stroke-width:2.5;"/>
   </g>
   <g id="legend_1">
    <g id="patch_5">
     <path d="M 514.774179 598.86 
L 560.689804 598.86 
Q 562.689804 598.86 562.689804 596.86 
L 562.689804 554.954375 
Q 562.689804 552.954375 560.689804 552.954375 
L 514.774179 552.954375 
Q 512.774179 552.954375 512.774179 554.954375 
L 512.774179 596.86 
Q 512.774179 598.86 514.774179 598.86 
z
" style="fill:#ffffff;opacity:0.8;stroke:#cccccc;stroke-linejoin:miter;stroke-width:2;"/>
    </g>
    <g id="text_17">
     <!-- $n_\tau$ -->
     <g style="fill:#262626;" transform="translate(524.651991 575.190625)scale(0.24 -0.24)">
      <defs>
       <path d="M 3566 2113 
L 3156 0 
L 2578 0 
L 2988 2091 
Q 3016 2238 3031 2350 
Q 3047 2463 3047 2528 
Q 3047 2791 2881 2937 
Q 2716 3084 2419 3084 
Q 1956 3084 1622 2776 
Q 1288 2469 1184 1941 
L 800 0 
L 225 0 
L 903 3500 
L 1478 3500 
L 1363 2950 
Q 1603 3253 1940 3418 
Q 2278 3584 2650 3584 
Q 3113 3584 3367 3334 
Q 3622 3084 3622 2631 
Q 3622 2519 3608 2391 
Q 3594 2263 3566 2113 
z
" id="DejaVuSans-Oblique-6e" transform="scale(0.015625)"/>
       <path d="M 2103 638 
Q 2188 488 2525 488 
L 2800 488 
L 2706 0 
L 2363 0 
Q 1800 0 1600 300 
Q 1403 606 1534 1269 
L 1856 2925 
L 541 2925 
L 653 3500 
L 3881 3500 
L 3769 2925 
L 2444 2925 
L 2113 1234 
Q 2025 781 2103 638 
z
" id="DejaVuSans-Oblique-3c4" transform="scale(0.015625)"/>
      </defs>
      <use xlink:href="#DejaVuSans-Oblique-6e"/>
      <use transform="translate(63.378906 -16.40625)scale(0.7)" xlink:href="#DejaVuSans-Oblique-3c4"/>
     </g>
    </g>
    <g id="line2d_3">
     <path d="M 516.774179 589.280313 
L 536.774179 589.280313 
" style="fill:none;stroke:#96c69a;stroke-linecap:round;stroke-width:3;"/>
    </g>
    <g id="line2d_4"/>
    <g id="text_18">
     <!-- 64 -->
     <g style="fill:#262626;" transform="translate(544.774179 592.780313)scale(0.1 -0.1)">
      <defs>
       <path d="M 2316 2303 
Q 2000 2303 1842 2098 
Q 1684 1894 1684 1484 
Q 1684 1075 1842 870 
Q 2000 666 2316 666 
Q 2634 666 2792 870 
Q 2950 1075 2950 1484 
Q 2950 1894 2792 2098 
Q 2634 2303 2316 2303 
z
M 3803 4544 
L 3803 3681 
Q 3506 3822 3243 3889 
Q 2981 3956 2731 3956 
Q 2194 3956 1894 3657 
Q 1594 3359 1544 2772 
Q 1750 2925 1990 3001 
Q 2231 3078 2516 3078 
Q 3231 3078 3670 2659 
Q 4109 2241 4109 1563 
Q 4109 813 3618 361 
Q 3128 -91 2303 -91 
Q 1394 -91 895 523 
Q 397 1138 397 2266 
Q 397 3422 980 4083 
Q 1563 4744 2578 4744 
Q 2900 4744 3203 4694 
Q 3506 4644 3803 4544 
z
" id="DejaVuSans-Bold-36" transform="scale(0.015625)"/>
       <path d="M 2356 3675 
L 1038 1722 
L 2356 1722 
L 2356 3675 
z
M 2156 4666 
L 3494 4666 
L 3494 1722 
L 4159 1722 
L 4159 850 
L 3494 850 
L 3494 0 
L 2356 0 
L 2356 850 
L 288 850 
L 288 1881 
L 2156 4666 
z
" id="DejaVuSans-Bold-34" transform="scale(0.015625)"/>
      </defs>
      <use xlink:href="#DejaVuSans-Bold-36"/>
      <use x="69.580078" xlink:href="#DejaVuSans-Bold-34"/>
     </g>
    </g>
   </g>
  </g>
  <g id="axes_2">
   <g id="patch_6">
    <path d="M 84.914375 92.437143 
L 567.689804 92.437143 
L 567.689804 7.2 
L 84.914375 7.2 
z
" style="fill:none;"/>
   </g>
   <g id="matplotlib.axis_3">
    <g id="xtick_7"/>
    <g id="xtick_8"/>
    <g id="xtick_9"/>
    <g id="xtick_10"/>
    <g id="xtick_11"/>
    <g id="xtick_12"/>
   </g>
   <g id="matplotlib.axis_4">
    <g id="ytick_9">
     <g id="text_19">
      <!-- 0 -->
      <g style="fill:#262626;" transform="translate(55.416875 100.795424)scale(0.22 -0.22)">
       <use xlink:href="#DejaVuSans-30"/>
      </g>
     </g>
    </g>
    <g id="ytick_10">
     <g id="text_20">
      <!-- 100 -->
      <g style="fill:#262626;" transform="translate(27.421875 48.082287)scale(0.22 -0.22)">
       <use xlink:href="#DejaVuSans-31"/>
       <use x="63.623047" xlink:href="#DejaVuSans-30"/>
       <use x="127.246094" xlink:href="#DejaVuSans-30"/>
      </g>
     </g>
    </g>
   </g>
   <g id="patch_7">
    <path clip-path="url(#pd87ff15a60)" d="M 106.858713 92.437143 
L 140.619232 92.437143 
L 140.619232 11.258912 
L 106.858713 11.258912 
z
" style="fill:#96c69a;fill-opacity:0.5;stroke:#ffffff;stroke-linejoin:miter;stroke-width:2;"/>
   </g>
   <g id="patch_8">
    <path clip-path="url(#pd87ff15a60)" d="M 140.619232 92.437143 
L 174.379752 92.437143 
L 174.379752 11.258912 
L 140.619232 11.258912 
z
" style="fill:#96c69a;fill-opacity:0.5;stroke:#ffffff;stroke-linejoin:miter;stroke-width:2;"/>
   </g>
   <g id="patch_9">
    <path clip-path="url(#pd87ff15a60)" d="M 174.379752 92.437143 
L 208.140271 92.437143 
L 208.140271 11.258912 
L 174.379752 11.258912 
z
" style="fill:#96c69a;fill-opacity:0.5;stroke:#ffffff;stroke-linejoin:miter;stroke-width:2;"/>
   </g>
   <g id="patch_10">
    <path clip-path="url(#pd87ff15a60)" d="M 208.140271 92.437143 
L 241.900791 92.437143 
L 241.900791 11.258912 
L 208.140271 11.258912 
z
" style="fill:#96c69a;fill-opacity:0.5;stroke:#ffffff;stroke-linejoin:miter;stroke-width:2;"/>
   </g>
   <g id="patch_11">
    <path clip-path="url(#pd87ff15a60)" d="M 241.900791 92.437143 
L 275.66131 92.437143 
L 275.66131 11.786043 
L 241.900791 11.786043 
z
" style="fill:#96c69a;fill-opacity:0.5;stroke:#ffffff;stroke-linejoin:miter;stroke-width:2;"/>
   </g>
   <g id="patch_12">
    <path clip-path="url(#pd87ff15a60)" d="M 275.66131 92.437143 
L 309.42183 92.437143 
L 309.42183 11.258912 
L 275.66131 11.258912 
z
" style="fill:#96c69a;fill-opacity:0.5;stroke:#ffffff;stroke-linejoin:miter;stroke-width:2;"/>
   </g>
   <g id="patch_13">
    <path clip-path="url(#pd87ff15a60)" d="M 309.42183 92.437143 
L 343.182349 92.437143 
L 343.182349 11.258912 
L 309.42183 11.258912 
z
" style="fill:#96c69a;fill-opacity:0.5;stroke:#ffffff;stroke-linejoin:miter;stroke-width:2;"/>
   </g>
   <g id="patch_14">
    <path clip-path="url(#pd87ff15a60)" d="M 343.182349 92.437143 
L 376.942869 92.437143 
L 376.942869 11.258912 
L 343.182349 11.258912 
z
" style="fill:#96c69a;fill-opacity:0.5;stroke:#ffffff;stroke-linejoin:miter;stroke-width:2;"/>
   </g>
   <g id="patch_15">
    <path clip-path="url(#pd87ff15a60)" d="M 376.942869 92.437143 
L 410.703388 92.437143 
L 410.703388 11.786043 
L 376.942869 11.786043 
z
" style="fill:#96c69a;fill-opacity:0.5;stroke:#ffffff;stroke-linejoin:miter;stroke-width:2;"/>
   </g>
   <g id="patch_16">
    <path clip-path="url(#pd87ff15a60)" d="M 410.703388 92.437143 
L 444.463907 92.437143 
L 444.463907 11.258912 
L 410.703388 11.258912 
z
" style="fill:#96c69a;fill-opacity:0.5;stroke:#ffffff;stroke-linejoin:miter;stroke-width:2;"/>
   </g>
   <g id="patch_17">
    <path clip-path="url(#pd87ff15a60)" d="M 444.463907 92.437143 
L 478.224427 92.437143 
L 478.224427 11.258912 
L 444.463907 11.258912 
z
" style="fill:#96c69a;fill-opacity:0.5;stroke:#ffffff;stroke-linejoin:miter;stroke-width:2;"/>
   </g>
   <g id="patch_18">
    <path clip-path="url(#pd87ff15a60)" d="M 478.224427 92.437143 
L 511.984946 92.437143 
L 511.984946 11.258912 
L 478.224427 11.258912 
z
" style="fill:#96c69a;fill-opacity:0.5;stroke:#ffffff;stroke-linejoin:miter;stroke-width:2;"/>
   </g>
   <g id="patch_19">
    <path clip-path="url(#pd87ff15a60)" d="M 511.984946 92.437143 
L 545.745466 92.437143 
L 545.745466 11.258912 
L 511.984946 11.258912 
z
" style="fill:#96c69a;fill-opacity:0.5;stroke:#ffffff;stroke-linejoin:miter;stroke-width:2;"/>
   </g>
   <g id="patch_20">
    <path d="M 84.914375 92.437143 
L 84.914375 7.2 
" style="fill:none;stroke:#262626;stroke-linecap:square;stroke-linejoin:miter;stroke-width:2.5;"/>
   </g>
   <g id="patch_21">
    <path d="M 84.914375 92.437143 
L 567.689804 92.437143 
" style="fill:none;stroke:#262626;stroke-linecap:square;stroke-linejoin:miter;stroke-width:2.5;"/>
   </g>
  </g>
  <g id="axes_3">
   <g id="patch_22">
    <path d="M 584.337232 603.86 
L 667.574375 603.86 
L 667.574375 109.484571 
L 584.337232 109.484571 
z
" style="fill:none;"/>
   </g>
   <g id="matplotlib.axis_5">
    <g id="xtick_13">
     <g id="text_21">
      <!-- 0 -->
      <g style="fill:#262626;" transform="translate(577.338482 636.076563)scale(0.22 -0.22)">
       <use xlink:href="#DejaVuSans-30"/>
      </g>
     </g>
    </g>
    <g id="xtick_14">
     <g id="text_22">
      <!-- 100 -->
      <g style="fill:#262626;" transform="translate(605.733212 636.076563)scale(0.22 -0.22)">
       <use xlink:href="#DejaVuSans-31"/>
       <use x="63.623047" xlink:href="#DejaVuSans-30"/>
       <use x="127.246094" xlink:href="#DejaVuSans-30"/>
      </g>
     </g>
    </g>
   </g>
   <g id="matplotlib.axis_6">
    <g id="ytick_11"/>
    <g id="ytick_12"/>
    <g id="ytick_13"/>
    <g id="ytick_14"/>
    <g id="ytick_15"/>
    <g id="ytick_16"/>
    <g id="ytick_17"/>
    <g id="ytick_18"/>
   </g>
   <g id="patch_23">
    <path clip-path="url(#p01320d21bf)" d="M 584.337232 581.38839 
L 586.032921 581.38839 
L 586.032921 568.547469 
L 584.337232 568.547469 
z
" style="fill:#96c69a;fill-opacity:0.5;stroke:#ffffff;stroke-linejoin:miter;stroke-width:1.284092;"/>
   </g>
   <g id="patch_24">
    <path clip-path="url(#p01320d21bf)" d="M 584.337232 568.547469 
L 591.967833 568.547469 
L 591.967833 555.706549 
L 584.337232 555.706549 
z
" style="fill:#96c69a;fill-opacity:0.5;stroke:#ffffff;stroke-linejoin:miter;stroke-width:1.284092;"/>
   </g>
   <g id="patch_25">
    <path clip-path="url(#p01320d21bf)" d="M 584.337232 555.706549 
L 596.207056 555.706549 
L 596.207056 542.865629 
L 584.337232 542.865629 
z
" style="fill:#96c69a;fill-opacity:0.5;stroke:#ffffff;stroke-linejoin:miter;stroke-width:1.284092;"/>
   </g>
   <g id="patch_26">
    <path clip-path="url(#p01320d21bf)" d="M 584.337232 542.865629 
L 609.348648 542.865629 
L 609.348648 530.024709 
L 584.337232 530.024709 
z
" style="fill:#96c69a;fill-opacity:0.5;stroke:#ffffff;stroke-linejoin:miter;stroke-width:1.284092;"/>
   </g>
   <g id="patch_27">
    <path clip-path="url(#p01320d21bf)" d="M 584.337232 530.024709 
L 624.60985 530.024709 
L 624.60985 517.183788 
L 584.337232 517.183788 
z
" style="fill:#96c69a;fill-opacity:0.5;stroke:#ffffff;stroke-linejoin:miter;stroke-width:1.284092;"/>
   </g>
   <g id="patch_28">
    <path clip-path="url(#p01320d21bf)" d="M 584.337232 517.183788 
L 647.501654 517.183788 
L 647.501654 504.342868 
L 584.337232 504.342868 
z
" style="fill:#96c69a;fill-opacity:0.5;stroke:#ffffff;stroke-linejoin:miter;stroke-width:1.284092;"/>
   </g>
   <g id="patch_29">
    <path clip-path="url(#p01320d21bf)" d="M 584.337232 504.342868 
L 656.827945 504.342868 
L 656.827945 491.501948 
L 584.337232 491.501948 
z
" style="fill:#96c69a;fill-opacity:0.5;stroke:#ffffff;stroke-linejoin:miter;stroke-width:1.284092;"/>
   </g>
   <g id="patch_30">
    <path clip-path="url(#p01320d21bf)" d="M 584.337232 491.501948 
L 663.610702 491.501948 
L 663.610702 478.661028 
L 584.337232 478.661028 
z
" style="fill:#96c69a;fill-opacity:0.5;stroke:#ffffff;stroke-linejoin:miter;stroke-width:1.284092;"/>
   </g>
   <g id="patch_31">
    <path clip-path="url(#p01320d21bf)" d="M 584.337232 478.661028 
L 661.49109 478.661028 
L 661.49109 465.820108 
L 584.337232 465.820108 
z
" style="fill:#96c69a;fill-opacity:0.5;stroke:#ffffff;stroke-linejoin:miter;stroke-width:1.284092;"/>
   </g>
   <g id="patch_32">
    <path clip-path="url(#p01320d21bf)" d="M 584.337232 465.820108 
L 656.404022 465.820108 
L 656.404022 452.979187 
L 584.337232 452.979187 
z
" style="fill:#96c69a;fill-opacity:0.5;stroke:#ffffff;stroke-linejoin:miter;stroke-width:1.284092;"/>
   </g>
   <g id="patch_33">
    <path clip-path="url(#p01320d21bf)" d="M 584.337232 452.979187 
L 646.229887 452.979187 
L 646.229887 440.138267 
L 584.337232 440.138267 
z
" style="fill:#96c69a;fill-opacity:0.5;stroke:#ffffff;stroke-linejoin:miter;stroke-width:1.284092;"/>
   </g>
   <g id="patch_34">
    <path clip-path="url(#p01320d21bf)" d="M 584.337232 440.138267 
L 641.566742 440.138267 
L 641.566742 427.297347 
L 584.337232 427.297347 
z
" style="fill:#96c69a;fill-opacity:0.5;stroke:#ffffff;stroke-linejoin:miter;stroke-width:1.284092;"/>
   </g>
   <g id="patch_35">
    <path clip-path="url(#p01320d21bf)" d="M 584.337232 427.297347 
L 645.382043 427.297347 
L 645.382043 414.456427 
L 584.337232 414.456427 
z
" style="fill:#96c69a;fill-opacity:0.5;stroke:#ffffff;stroke-linejoin:miter;stroke-width:1.284092;"/>
   </g>
   <g id="patch_36">
    <path clip-path="url(#p01320d21bf)" d="M 584.337232 414.456427 
L 625.033773 414.456427 
L 625.033773 401.615506 
L 584.337232 401.615506 
z
" style="fill:#96c69a;fill-opacity:0.5;stroke:#ffffff;stroke-linejoin:miter;stroke-width:1.284092;"/>
   </g>
   <g id="patch_37">
    <path clip-path="url(#p01320d21bf)" d="M 584.337232 401.615506 
L 627.153384 401.615506 
L 627.153384 388.774586 
L 584.337232 388.774586 
z
" style="fill:#96c69a;fill-opacity:0.5;stroke:#ffffff;stroke-linejoin:miter;stroke-width:1.284092;"/>
   </g>
   <g id="patch_38">
    <path clip-path="url(#p01320d21bf)" d="M 584.337232 388.774586 
L 615.28356 388.774586 
L 615.28356 375.933666 
L 584.337232 375.933666 
z
" style="fill:#96c69a;fill-opacity:0.5;stroke:#ffffff;stroke-linejoin:miter;stroke-width:1.284092;"/>
   </g>
   <g id="patch_39">
    <path clip-path="url(#p01320d21bf)" d="M 584.337232 375.933666 
L 607.229036 375.933666 
L 607.229036 363.092746 
L 584.337232 363.092746 
z
" style="fill:#96c69a;fill-opacity:0.5;stroke:#ffffff;stroke-linejoin:miter;stroke-width:1.284092;"/>
   </g>
   <g id="patch_40">
    <path clip-path="url(#p01320d21bf)" d="M 584.337232 363.092746 
L 602.989813 363.092746 
L 602.989813 350.251826 
L 584.337232 350.251826 
z
" style="fill:#96c69a;fill-opacity:0.5;stroke:#ffffff;stroke-linejoin:miter;stroke-width:1.284092;"/>
   </g>
   <g id="patch_41">
    <path clip-path="url(#p01320d21bf)" d="M 584.337232 350.251826 
L 599.174513 350.251826 
L 599.174513 337.410905 
L 584.337232 337.410905 
z
" style="fill:#96c69a;fill-opacity:0.5;stroke:#ffffff;stroke-linejoin:miter;stroke-width:1.284092;"/>
   </g>
   <g id="patch_42">
    <path clip-path="url(#p01320d21bf)" d="M 584.337232 337.410905 
L 596.207056 337.410905 
L 596.207056 324.569985 
L 584.337232 324.569985 
z
" style="fill:#96c69a;fill-opacity:0.5;stroke:#ffffff;stroke-linejoin:miter;stroke-width:1.284092;"/>
   </g>
   <g id="patch_43">
    <path clip-path="url(#p01320d21bf)" d="M 584.337232 324.569985 
L 593.2396 324.569985 
L 593.2396 311.729065 
L 584.337232 311.729065 
z
" style="fill:#96c69a;fill-opacity:0.5;stroke:#ffffff;stroke-linejoin:miter;stroke-width:1.284092;"/>
   </g>
   <g id="patch_44">
    <path clip-path="url(#p01320d21bf)" d="M 584.337232 311.729065 
L 591.543911 311.729065 
L 591.543911 298.888145 
L 584.337232 298.888145 
z
" style="fill:#96c69a;fill-opacity:0.5;stroke:#ffffff;stroke-linejoin:miter;stroke-width:1.284092;"/>
   </g>
   <g id="patch_45">
    <path clip-path="url(#p01320d21bf)" d="M 584.337232 298.888145 
L 590.272144 298.888145 
L 590.272144 286.047224 
L 584.337232 286.047224 
z
" style="fill:#96c69a;fill-opacity:0.5;stroke:#ffffff;stroke-linejoin:miter;stroke-width:1.284092;"/>
   </g>
   <g id="patch_46">
    <path clip-path="url(#p01320d21bf)" d="M 584.337232 286.047224 
L 587.728611 286.047224 
L 587.728611 273.206304 
L 584.337232 273.206304 
z
" style="fill:#96c69a;fill-opacity:0.5;stroke:#ffffff;stroke-linejoin:miter;stroke-width:1.284092;"/>
   </g>
   <g id="patch_47">
    <path clip-path="url(#p01320d21bf)" d="M 584.337232 273.206304 
L 585.608999 273.206304 
L 585.608999 260.365384 
L 584.337232 260.365384 
z
" style="fill:#96c69a;fill-opacity:0.5;stroke:#ffffff;stroke-linejoin:miter;stroke-width:1.284092;"/>
   </g>
   <g id="patch_48">
    <path clip-path="url(#p01320d21bf)" d="M 584.337232 260.365384 
L 586.456844 260.365384 
L 586.456844 247.524464 
L 584.337232 247.524464 
z
" style="fill:#96c69a;fill-opacity:0.5;stroke:#ffffff;stroke-linejoin:miter;stroke-width:1.284092;"/>
   </g>
   <g id="patch_49">
    <path clip-path="url(#p01320d21bf)" d="M 584.337232 247.524464 
L 586.456844 247.524464 
L 586.456844 234.683544 
L 584.337232 234.683544 
z
" style="fill:#96c69a;fill-opacity:0.5;stroke:#ffffff;stroke-linejoin:miter;stroke-width:1.284092;"/>
   </g>
   <g id="patch_50">
    <path clip-path="url(#p01320d21bf)" d="M 584.337232 234.683544 
L 586.032921 234.683544 
L 586.032921 221.842623 
L 584.337232 221.842623 
z
" style="fill:#96c69a;fill-opacity:0.5;stroke:#ffffff;stroke-linejoin:miter;stroke-width:1.284092;"/>
   </g>
   <g id="patch_51">
    <path clip-path="url(#p01320d21bf)" d="M 584.337232 221.842623 
L 584.337232 221.842623 
L 584.337232 209.001703 
L 584.337232 209.001703 
z
" style="fill:#96c69a;fill-opacity:0.5;stroke:#ffffff;stroke-linejoin:miter;stroke-width:1.284092;"/>
   </g>
   <g id="patch_52">
    <path clip-path="url(#p01320d21bf)" d="M 584.337232 209.001703 
L 584.761154 209.001703 
L 584.761154 196.160783 
L 584.337232 196.160783 
z
" style="fill:#96c69a;fill-opacity:0.5;stroke:#ffffff;stroke-linejoin:miter;stroke-width:1.284092;"/>
   </g>
   <g id="patch_53">
    <path clip-path="url(#p01320d21bf)" d="M 584.337232 196.160783 
L 584.337232 196.160783 
L 584.337232 183.319863 
L 584.337232 183.319863 
z
" style="fill:#96c69a;fill-opacity:0.5;stroke:#ffffff;stroke-linejoin:miter;stroke-width:1.284092;"/>
   </g>
   <g id="patch_54">
    <path clip-path="url(#p01320d21bf)" d="M 584.337232 183.319863 
L 584.761154 183.319863 
L 584.761154 170.478942 
L 584.337232 170.478942 
z
" style="fill:#96c69a;fill-opacity:0.5;stroke:#ffffff;stroke-linejoin:miter;stroke-width:1.284092;"/>
   </g>
   <g id="patch_55">
    <path clip-path="url(#p01320d21bf)" d="M 584.337232 170.478942 
L 584.337232 170.478942 
L 584.337232 157.638022 
L 584.337232 157.638022 
z
" style="fill:#96c69a;fill-opacity:0.5;stroke:#ffffff;stroke-linejoin:miter;stroke-width:1.284092;"/>
   </g>
   <g id="patch_56">
    <path clip-path="url(#p01320d21bf)" d="M 584.337232 157.638022 
L 584.337232 157.638022 
L 584.337232 144.797102 
L 584.337232 144.797102 
z
" style="fill:#96c69a;fill-opacity:0.5;stroke:#ffffff;stroke-linejoin:miter;stroke-width:1.284092;"/>
   </g>
   <g id="patch_57">
    <path clip-path="url(#p01320d21bf)" d="M 584.337232 144.797102 
L 585.185077 144.797102 
L 585.185077 131.956182 
L 584.337232 131.956182 
z
" style="fill:#96c69a;fill-opacity:0.5;stroke:#ffffff;stroke-linejoin:miter;stroke-width:1.284092;"/>
   </g>
   <g id="patch_58">
    <path d="M 584.337232 603.86 
L 584.337232 109.484571 
" style="fill:none;stroke:#262626;stroke-linecap:square;stroke-linejoin:miter;stroke-width:2.5;"/>
   </g>
   <g id="patch_59">
    <path d="M 584.337232 603.86 
L 667.574375 603.86 
" style="fill:none;stroke:#262626;stroke-linecap:square;stroke-linejoin:miter;stroke-width:2.5;"/>
   </g>
  </g>
 </g>
 <defs>
  <clipPath id="p101d3e3a4e">
   <rect height="494.375429" width="482.775429" x="84.914375" y="109.484571"/>
  </clipPath>
  <clipPath id="pd87ff15a60">
   <rect height="85.237143" width="482.775429" x="84.914375" y="7.2"/>
  </clipPath>
  <clipPath id="p01320d21bf">
   <rect height="494.375429" width="83.237143" x="584.337232" y="109.484571"/>
  </clipPath>
 </defs>
</svg>
