<?xml version="1.0" encoding="utf-8" standalone="no"?>
<!DOCTYPE svg PUBLIC "-//W3C//DTD SVG 1.1//EN"
  "http://www.w3.org/Graphics/SVG/1.1/DTD/svg11.dtd">
<svg height="674.159375pt" version="1.1" viewBox="0 0 685.467648 674.159375" width="685.467648pt" xmlns="http://www.w3.org/2000/svg" xmlns:xlink="http://www.w3.org/1999/xlink">
 <metadata>
  <rdf:RDF xmlns:cc="http://creativecommons.org/ns#" xmlns:dc="http://purl.org/dc/elements/1.1/" xmlns:rdf="http://www.w3.org/1999/02/22-rdf-syntax-ns#">
   <cc:Work>
    <dc:type rdf:resource="http://purl.org/dc/dcmitype/StillImage"/>
    <dc:date>2021-07-24T14:50:52.262387</dc:date>
    <dc:format>image/svg+xml</dc:format>
    <dc:creator>
     <cc:Agent>
      <dc:title>Matplotlib v3.4.2, https://matplotlib.org/</dc:title>
     </cc:Agent>
    </dc:creator>
   </cc:Work>
  </rdf:RDF>
 </metadata>
 <defs>
  <style type="text/css">*{stroke-linecap:butt;stroke-linejoin:round;}</style>
 </defs>
 <g id="figure_1">
  <g id="patch_1">
   <path d="M 0 674.159375 
L 685.467648 674.159375 
L 685.467648 0 
L 0 0 
z
" style="fill:#ffffff;"/>
  </g>
  <g id="axes_1">
   <g id="patch_2">
    <path d="M 84.914375 602.94 
L 567.863804 602.94 
L 567.863804 109.326857 
L 84.914375 109.326857 
z
" style="fill:none;"/>
   </g>
   <g id="matplotlib.axis_1">
    <g id="xtick_1">
     <g id="text_1">
      <!-- 0 -->
      <g style="fill:#262626;" transform="translate(99.428387 635.156562)scale(0.22 -0.22)">
       <defs>
        <path d="M 2034 4250 
Q 1547 4250 1301 3770 
Q 1056 3291 1056 2328 
Q 1056 1369 1301 889 
Q 1547 409 2034 409 
Q 2525 409 2770 889 
Q 3016 1369 3016 2328 
Q 3016 3291 2770 3770 
Q 2525 4250 2034 4250 
z
M 2034 4750 
Q 2819 4750 3233 4129 
Q 3647 3509 3647 2328 
Q 3647 1150 3233 529 
Q 2819 -91 2034 -91 
Q 1250 -91 836 529 
Q 422 1150 422 2328 
Q 422 3509 836 4129 
Q 1250 4750 2034 4750 
z
" id="DejaVuSans-30" transform="scale(0.015625)"/>
       </defs>
       <use xlink:href="#DejaVuSans-30"/>
      </g>
     </g>
    </g>
    <g id="xtick_2">
     <g id="text_2">
      <!-- 20000 -->
      <g style="fill:#262626;" transform="translate(159.330271 635.156562)scale(0.22 -0.22)">
       <defs>
        <path d="M 1228 531 
L 3431 531 
L 3431 0 
L 469 0 
L 469 531 
Q 828 903 1448 1529 
Q 2069 2156 2228 2338 
Q 2531 2678 2651 2914 
Q 2772 3150 2772 3378 
Q 2772 3750 2511 3984 
Q 2250 4219 1831 4219 
Q 1534 4219 1204 4116 
Q 875 4013 500 3803 
L 500 4441 
Q 881 4594 1212 4672 
Q 1544 4750 1819 4750 
Q 2544 4750 2975 4387 
Q 3406 4025 3406 3419 
Q 3406 3131 3298 2873 
Q 3191 2616 2906 2266 
Q 2828 2175 2409 1742 
Q 1991 1309 1228 531 
z
" id="DejaVuSans-32" transform="scale(0.015625)"/>
       </defs>
       <use xlink:href="#DejaVuSans-32"/>
       <use x="63.623047" xlink:href="#DejaVuSans-30"/>
       <use x="127.246094" xlink:href="#DejaVuSans-30"/>
       <use x="190.869141" xlink:href="#DejaVuSans-30"/>
       <use x="254.492188" xlink:href="#DejaVuSans-30"/>
      </g>
     </g>
    </g>
    <g id="xtick_3">
     <g id="text_3">
      <!-- 40000 -->
      <g style="fill:#262626;" transform="translate(247.227155 635.156562)scale(0.22 -0.22)">
       <defs>
        <path d="M 2419 4116 
L 825 1625 
L 2419 1625 
L 2419 4116 
z
M 2253 4666 
L 3047 4666 
L 3047 1625 
L 3713 1625 
L 3713 1100 
L 3047 1100 
L 3047 0 
L 2419 0 
L 2419 1100 
L 313 1100 
L 313 1709 
L 2253 4666 
z
" id="DejaVuSans-34" transform="scale(0.015625)"/>
       </defs>
       <use xlink:href="#DejaVuSans-34"/>
       <use x="63.623047" xlink:href="#DejaVuSans-30"/>
       <use x="127.246094" xlink:href="#DejaVuSans-30"/>
       <use x="190.869141" xlink:href="#DejaVuSans-30"/>
       <use x="254.492188" xlink:href="#DejaVuSans-30"/>
      </g>
     </g>
    </g>
    <g id="xtick_4">
     <g id="text_4">
      <!-- 60000 -->
      <g style="fill:#262626;" transform="translate(335.124039 635.156562)scale(0.22 -0.22)">
       <defs>
        <path d="M 2113 2584 
Q 1688 2584 1439 2293 
Q 1191 2003 1191 1497 
Q 1191 994 1439 701 
Q 1688 409 2113 409 
Q 2538 409 2786 701 
Q 3034 994 3034 1497 
Q 3034 2003 2786 2293 
Q 2538 2584 2113 2584 
z
M 3366 4563 
L 3366 3988 
Q 3128 4100 2886 4159 
Q 2644 4219 2406 4219 
Q 1781 4219 1451 3797 
Q 1122 3375 1075 2522 
Q 1259 2794 1537 2939 
Q 1816 3084 2150 3084 
Q 2853 3084 3261 2657 
Q 3669 2231 3669 1497 
Q 3669 778 3244 343 
Q 2819 -91 2113 -91 
Q 1303 -91 875 529 
Q 447 1150 447 2328 
Q 447 3434 972 4092 
Q 1497 4750 2381 4750 
Q 2619 4750 2861 4703 
Q 3103 4656 3366 4563 
z
" id="DejaVuSans-36" transform="scale(0.015625)"/>
       </defs>
       <use xlink:href="#DejaVuSans-36"/>
       <use x="63.623047" xlink:href="#DejaVuSans-30"/>
       <use x="127.246094" xlink:href="#DejaVuSans-30"/>
       <use x="190.869141" xlink:href="#DejaVuSans-30"/>
       <use x="254.492188" xlink:href="#DejaVuSans-30"/>
      </g>
     </g>
    </g>
    <g id="xtick_5">
     <g id="text_5">
      <!-- 80000 -->
      <g style="fill:#262626;" transform="translate(423.020923 635.156562)scale(0.22 -0.22)">
       <defs>
        <path d="M 2034 2216 
Q 1584 2216 1326 1975 
Q 1069 1734 1069 1313 
Q 1069 891 1326 650 
Q 1584 409 2034 409 
Q 2484 409 2743 651 
Q 3003 894 3003 1313 
Q 3003 1734 2745 1975 
Q 2488 2216 2034 2216 
z
M 1403 2484 
Q 997 2584 770 2862 
Q 544 3141 544 3541 
Q 544 4100 942 4425 
Q 1341 4750 2034 4750 
Q 2731 4750 3128 4425 
Q 3525 4100 3525 3541 
Q 3525 3141 3298 2862 
Q 3072 2584 2669 2484 
Q 3125 2378 3379 2068 
Q 3634 1759 3634 1313 
Q 3634 634 3220 271 
Q 2806 -91 2034 -91 
Q 1263 -91 848 271 
Q 434 634 434 1313 
Q 434 1759 690 2068 
Q 947 2378 1403 2484 
z
M 1172 3481 
Q 1172 3119 1398 2916 
Q 1625 2713 2034 2713 
Q 2441 2713 2670 2916 
Q 2900 3119 2900 3481 
Q 2900 3844 2670 4047 
Q 2441 4250 2034 4250 
Q 1625 4250 1398 4047 
Q 1172 3844 1172 3481 
z
" id="DejaVuSans-38" transform="scale(0.015625)"/>
       </defs>
       <use xlink:href="#DejaVuSans-38"/>
       <use x="63.623047" xlink:href="#DejaVuSans-30"/>
       <use x="127.246094" xlink:href="#DejaVuSans-30"/>
       <use x="190.869141" xlink:href="#DejaVuSans-30"/>
       <use x="254.492188" xlink:href="#DejaVuSans-30"/>
      </g>
     </g>
    </g>
    <g id="xtick_6">
     <g id="text_6">
      <!-- 100000 -->
      <g style="fill:#262626;" transform="translate(503.919057 635.156562)scale(0.22 -0.22)">
       <defs>
        <path d="M 794 531 
L 1825 531 
L 1825 4091 
L 703 3866 
L 703 4441 
L 1819 4666 
L 2450 4666 
L 2450 531 
L 3481 531 
L 3481 0 
L 794 0 
L 794 531 
z
" id="DejaVuSans-31" transform="scale(0.015625)"/>
       </defs>
       <use xlink:href="#DejaVuSans-31"/>
       <use x="63.623047" xlink:href="#DejaVuSans-30"/>
       <use x="127.246094" xlink:href="#DejaVuSans-30"/>
       <use x="190.869141" xlink:href="#DejaVuSans-30"/>
       <use x="254.492188" xlink:href="#DejaVuSans-30"/>
       <use x="318.115234" xlink:href="#DejaVuSans-30"/>
      </g>
     </g>
    </g>
    <g id="text_7">
     <!-- MDTU -->
     <g style="fill:#262626;" transform="translate(290.683464 661.968125)scale(0.24 -0.24)">
      <defs>
       <path d="M 628 4666 
L 1569 4666 
L 2759 1491 
L 3956 4666 
L 4897 4666 
L 4897 0 
L 4281 0 
L 4281 4097 
L 3078 897 
L 2444 897 
L 1241 4097 
L 1241 0 
L 628 0 
L 628 4666 
z
" id="DejaVuSans-4d" transform="scale(0.015625)"/>
       <path d="M 1259 4147 
L 1259 519 
L 2022 519 
Q 2988 519 3436 956 
Q 3884 1394 3884 2338 
Q 3884 3275 3436 3711 
Q 2988 4147 2022 4147 
L 1259 4147 
z
M 628 4666 
L 1925 4666 
Q 3281 4666 3915 4102 
Q 4550 3538 4550 2338 
Q 4550 1131 3912 565 
Q 3275 0 1925 0 
L 628 0 
L 628 4666 
z
" id="DejaVuSans-44" transform="scale(0.015625)"/>
       <path d="M -19 4666 
L 3928 4666 
L 3928 4134 
L 2272 4134 
L 2272 0 
L 1638 0 
L 1638 4134 
L -19 4134 
L -19 4666 
z
" id="DejaVuSans-54" transform="scale(0.015625)"/>
       <path d="M 556 4666 
L 1191 4666 
L 1191 1831 
Q 1191 1081 1462 751 
Q 1734 422 2344 422 
Q 2950 422 3222 751 
Q 3494 1081 3494 1831 
L 3494 4666 
L 4128 4666 
L 4128 1753 
Q 4128 841 3676 375 
Q 3225 -91 2344 -91 
Q 1459 -91 1007 375 
Q 556 841 556 1753 
L 556 4666 
z
" id="DejaVuSans-55" transform="scale(0.015625)"/>
      </defs>
      <use xlink:href="#DejaVuSans-4d"/>
      <use x="86.279297" xlink:href="#DejaVuSans-44"/>
      <use x="163.28125" xlink:href="#DejaVuSans-54"/>
      <use x="224.365234" xlink:href="#DejaVuSans-55"/>
     </g>
    </g>
   </g>
   <g id="matplotlib.axis_2">
    <g id="ytick_1">
     <g id="text_8">
      <!-- 0.4 -->
      <g style="fill:#262626;" transform="translate(34.4275 600.408654)scale(0.22 -0.22)">
       <defs>
        <path d="M 684 794 
L 1344 794 
L 1344 0 
L 684 0 
L 684 794 
z
" id="DejaVuSans-2e" transform="scale(0.015625)"/>
       </defs>
       <use xlink:href="#DejaVuSans-30"/>
       <use x="63.623047" xlink:href="#DejaVuSans-2e"/>
       <use x="95.410156" xlink:href="#DejaVuSans-34"/>
      </g>
     </g>
    </g>
    <g id="ytick_2">
     <g id="text_9">
      <!-- 0.6 -->
      <g style="fill:#262626;" transform="translate(34.4275 513.200117)scale(0.22 -0.22)">
       <use xlink:href="#DejaVuSans-30"/>
       <use x="63.623047" xlink:href="#DejaVuSans-2e"/>
       <use x="95.410156" xlink:href="#DejaVuSans-36"/>
      </g>
     </g>
    </g>
    <g id="ytick_3">
     <g id="text_10">
      <!-- 0.8 -->
      <g style="fill:#262626;" transform="translate(34.4275 425.991579)scale(0.22 -0.22)">
       <use xlink:href="#DejaVuSans-30"/>
       <use x="63.623047" xlink:href="#DejaVuSans-2e"/>
       <use x="95.410156" xlink:href="#DejaVuSans-38"/>
      </g>
     </g>
    </g>
    <g id="ytick_4">
     <g id="text_11">
      <!-- 1.0 -->
      <g style="fill:#262626;" transform="translate(34.4275 338.783042)scale(0.22 -0.22)">
       <use xlink:href="#DejaVuSans-31"/>
       <use x="63.623047" xlink:href="#DejaVuSans-2e"/>
       <use x="95.410156" xlink:href="#DejaVuSans-30"/>
      </g>
     </g>
    </g>
    <g id="ytick_5">
     <g id="text_12">
      <!-- 1.2 -->
      <g style="fill:#262626;" transform="translate(34.4275 251.574504)scale(0.22 -0.22)">
       <use xlink:href="#DejaVuSans-31"/>
       <use x="63.623047" xlink:href="#DejaVuSans-2e"/>
       <use x="95.410156" xlink:href="#DejaVuSans-32"/>
      </g>
     </g>
    </g>
    <g id="ytick_6">
     <g id="text_13">
      <!-- 1.4 -->
      <g style="fill:#262626;" transform="translate(34.4275 164.365967)scale(0.22 -0.22)">
       <use xlink:href="#DejaVuSans-31"/>
       <use x="63.623047" xlink:href="#DejaVuSans-2e"/>
       <use x="95.410156" xlink:href="#DejaVuSans-34"/>
      </g>
     </g>
    </g>
    <g id="text_14">
     <!-- $E$ -->
     <g style="fill:#262626;" transform="translate(25.43625 363.813429)rotate(-90)scale(0.24 -0.24)">
      <defs>
       <path d="M 1081 4666 
L 4031 4666 
L 3928 4134 
L 1606 4134 
L 1338 2753 
L 3566 2753 
L 3463 2222 
L 1234 2222 
L 909 531 
L 3284 531 
L 3181 0 
L 172 0 
L 1081 4666 
z
" id="DejaVuSans-Oblique-45" transform="scale(0.015625)"/>
      </defs>
      <use transform="translate(0 0.09375)" xlink:href="#DejaVuSans-Oblique-45"/>
     </g>
    </g>
   </g>
   <g id="line2d_1">
    <path clip-path="url(#p27deb32c78)" d="M 106.866622 506.233867 
L 107.306106 513.214227 
L 107.745591 475.765191 
L 108.185075 485.21114 
L 108.624559 501.409623 
L 109.503528 357.95429 
L 109.943013 342.908423 
L 110.382497 489.929736 
L 111.261466 422.582638 
L 111.70095 529.442095 
L 112.140435 443.12145 
L 112.579919 440.864238 
L 113.019404 528.968258 
L 113.898372 316.767285 
L 114.337857 417.884935 
L 114.777341 415.288318 
L 115.216826 430.53982 
L 115.65631 328.294838 
L 116.095795 367.097321 
L 116.535279 525.520778 
L 116.974763 448.188443 
L 117.414248 348.355435 
L 117.853732 339.672577 
L 118.293217 398.799728 
L 118.732701 385.782768 
L 119.172185 456.903982 
L 119.61167 438.376898 
L 120.051154 446.406227 
L 120.490639 451.546997 
L 120.930123 380.430741 
L 121.369608 437.942732 
L 121.809092 393.439828 
L 122.248576 490.191546 
L 122.688061 382.052628 
L 123.127545 376.760946 
L 123.56703 468.41064 
L 124.006514 520.912014 
L 124.445999 334.060944 
L 124.885483 421.683126 
L 125.324967 370.001989 
L 125.764452 375.584614 
L 126.203936 431.075349 
L 126.643421 451.318667 
L 127.082905 412.018887 
L 127.961874 376.424571 
L 128.401358 529.732635 
L 128.840843 418.707817 
L 129.280327 418.453705 
L 129.719812 537.654473 
L 130.159296 511.074172 
L 130.59878 528.425492 
L 131.038265 340.741642 
L 131.477749 415.015576 
L 131.917234 403.537216 
L 132.356718 453.914157 
L 133.235687 404.428001 
L 133.675171 361.084533 
L 134.114656 366.761872 
L 134.55414 453.925544 
L 134.993625 482.216288 
L 135.433109 433.874136 
L 135.872593 489.425365 
L 136.312078 285.109061 
L 137.630531 423.89209 
L 138.070016 309.185698 
L 138.948984 441.77816 
L 139.388469 483.104073 
L 139.827953 504.815622 
L 140.267438 437.969753 
L 140.706922 517.70243 
L 141.146406 444.698908 
L 141.585891 501.284783 
L 142.46486 378.01081 
L 142.904344 240.411064 
L 143.343829 515.215401 
L 143.783313 421.004308 
L 144.222797 502.970748 
L 144.662282 458.408909 
L 145.101766 456.341287 
L 145.541251 319.636891 
L 145.980735 403.322885 
L 146.42022 449.361657 
L 146.859704 372.643078 
L 147.299188 408.277906 
L 147.738673 410.710436 
L 148.178157 450.826132 
L 148.617642 381.326012 
L 149.49661 513.591616 
L 149.936095 290.510926 
L 150.375579 440.639895 
L 150.815064 330.31651 
L 151.254548 392.507319 
L 151.694033 381.503793 
L 152.133517 473.792063 
L 152.573001 347.902612 
L 153.012486 468.60945 
L 153.45197 479.378637 
L 153.891455 477.282032 
L 154.330939 332.781452 
L 154.770423 489.404536 
L 155.209908 332.986017 
L 155.649392 340.690648 
L 156.088877 367.755385 
L 156.528361 355.642365 
L 156.967846 503.085719 
L 157.40733 459.864515 
L 157.846814 362.594327 
L 158.286299 489.385785 
L 158.725783 473.410332 
L 159.165268 379.506475 
L 160.044237 531.089039 
L 160.483721 426.482962 
L 160.923205 489.502259 
L 161.36269 443.509816 
L 161.802174 303.640533 
L 162.241659 375.619283 
L 162.681143 420.101572 
L 163.120627 240.043028 
L 163.560112 416.569207 
L 163.999596 456.111679 
L 164.439081 342.741137 
L 165.31805 514.524489 
L 165.757534 510.54521 
L 166.197018 440.549734 
L 166.636503 509.46289 
L 167.075987 490.21051 
L 167.515472 503.196274 
L 167.954956 436.2783 
L 168.39444 479.74405 
L 168.833925 448.003881 
L 169.273409 455.424467 
L 169.712894 366.015124 
L 170.152378 402.330462 
L 170.591863 418.382997 
L 171.031347 424.768961 
L 171.470831 485.513681 
L 171.910316 446.045259 
L 172.3498 496.598431 
L 172.789285 452.322293 
L 173.228769 360.388808 
L 173.668254 450.50883 
L 174.107738 410.265889 
L 174.547222 444.070539 
L 174.986707 433.25982 
L 175.426191 441.046461 
L 175.865676 331.030027 
L 176.30516 470.082294 
L 176.744644 454.953374 
L 177.184129 411.938745 
L 177.623613 300.59089 
L 178.502582 571.73941 
L 178.942067 323.069119 
L 179.381551 437.79573 
L 179.821035 349.027461 
L 180.26052 518.046553 
L 180.700004 382.182007 
L 181.139489 324.875479 
L 181.578973 462.263566 
L 182.018457 459.665689 
L 182.457942 475.030414 
L 182.897426 304.841139 
L 183.336911 469.461764 
L 183.776395 484.577075 
L 184.21588 341.670927 
L 184.655364 475.432657 
L 185.094848 478.275573 
L 185.534333 402.698294 
L 185.973817 409.149345 
L 186.413302 401.863358 
L 186.852786 469.237459 
L 187.292271 418.364863 
L 187.731755 463.666569 
L 188.171239 483.254815 
L 188.610724 458.536282 
L 189.050208 350.675651 
L 189.489693 388.805364 
L 189.929177 482.061126 
L 190.368661 474.48619 
L 190.808146 408.738546 
L 191.24763 406.700737 
L 191.687115 379.44674 
L 192.126599 463.532438 
L 192.566084 419.934212 
L 193.005568 441.285532 
L 193.445052 496.811571 
L 193.884537 502.793387 
L 194.324021 406.764678 
L 194.763506 437.430072 
L 195.20299 315.585653 
L 195.642474 413.288244 
L 196.081959 464.714395 
L 196.521443 446.467013 
L 196.960928 357.513364 
L 197.400412 406.682778 
L 197.839897 396.726341 
L 198.279381 405.863366 
L 198.718865 498.110833 
L 199.15835 441.659113 
L 199.597834 496.907027 
L 200.037319 368.167494 
L 200.476803 481.327277 
L 200.916288 407.28864 
L 201.355772 369.379456 
L 201.795256 394.493193 
L 202.234741 371.304308 
L 202.674225 463.523047 
L 203.11371 418.973162 
L 203.553194 441.521697 
L 203.992678 567.864847 
L 204.432163 509.880575 
L 204.871647 430.175316 
L 205.311132 425.093672 
L 205.750616 398.850334 
L 206.190101 403.919325 
L 206.629585 412.684133 
L 207.069069 539.910953 
L 207.508554 388.641152 
L 207.948038 406.469336 
L 208.387523 362.500817 
L 208.827007 443.590333 
L 209.266491 407.660495 
L 209.705976 521.316161 
L 210.14546 519.929815 
L 210.584945 542.34438 
L 211.024429 478.400622 
L 211.463914 456.123518 
L 211.903398 458.328546 
L 212.342882 344.391506 
L 212.782367 386.378765 
L 213.221851 355.163028 
L 213.661336 477.694019 
L 214.10082 431.757679 
L 214.540305 453.172566 
L 214.979789 427.289452 
L 215.419273 487.0878 
L 215.858758 465.830664 
L 216.298242 364.63966 
L 216.737727 438.071692 
L 217.177211 427.49755 
L 217.616695 354.537365 
L 218.05618 418.526213 
L 218.495664 430.813117 
L 218.935149 456.585166 
L 219.374633 499.944627 
L 220.253602 307.479294 
L 220.693086 420.837413 
L 221.132571 335.906134 
L 221.572055 473.038651 
L 222.01154 429.934013 
L 222.451024 558.285865 
L 222.890508 387.379917 
L 223.329993 518.5177 
L 223.769477 541.563272 
L 224.208962 321.962853 
L 224.648446 364.703393 
L 225.087931 507.483623 
L 225.527415 527.958655 
L 225.966899 396.598371 
L 226.406384 492.924677 
L 226.845868 491.012362 
L 227.285353 457.859933 
L 227.724837 478.459198 
L 228.164322 449.389753 
L 228.603806 405.102574 
L 229.04329 480.719506 
L 229.482775 366.777607 
L 229.922259 563.760761 
L 230.361744 560.663813 
L 230.801228 344.492604 
L 231.240712 471.912057 
L 231.680197 498.994908 
L 232.119681 470.623618 
L 232.559166 255.955781 
L 232.99865 465.358147 
L 233.438135 478.115949 
L 233.877619 383.032626 
L 234.317103 405.35794 
L 234.756588 444.916296 
L 235.196072 408.089085 
L 235.635557 524.343277 
L 236.95401 343.087835 
L 237.393494 433.376682 
L 237.832979 439.768377 
L 238.272463 292.014509 
L 238.711948 444.348947 
L 239.151432 397.404059 
L 239.590916 449.968047 
L 240.030401 405.901419 
L 240.469885 488.167298 
L 240.90937 388.641267 
L 241.348854 469.126132 
L 241.788339 307.659274 
L 242.227823 325.484693 
L 242.667307 393.548064 
L 243.106792 403.403182 
L 243.546276 462.908085 
L 243.985761 356.067889 
L 244.425245 457.273374 
L 244.864729 464.371697 
L 245.304214 452.121547 
L 245.743698 410.679272 
L 246.622667 354.318416 
L 247.501636 439.806411 
L 247.94112 392.714943 
L 248.380605 358.203935 
L 248.820089 455.145298 
L 249.259574 359.169457 
L 249.699058 386.424727 
L 250.138543 443.383705 
L 250.578027 481.820089 
L 251.017511 269.245712 
L 251.456996 449.493634 
L 251.89648 497.425552 
L 252.335965 501.475366 
L 252.775449 494.482079 
L 253.214933 462.670524 
L 253.654418 491.947 
L 254.093902 328.206972 
L 254.533387 388.024606 
L 254.972871 390.54029 
L 255.412356 398.342026 
L 255.85184 493.173942 
L 256.291324 438.873894 
L 256.730809 455.86367 
L 257.170293 383.260352 
L 257.609778 553.174812 
L 258.049262 350.366033 
L 258.488746 393.977765 
L 258.928231 500.442115 
L 259.367715 399.97938 
L 259.8072 396.801334 
L 260.246684 483.928552 
L 260.686169 429.062699 
L 261.125653 423.384853 
L 261.565137 427.617255 
L 262.004622 384.608415 
L 262.444106 400.625186 
L 263.323075 385.082108 
L 263.76256 245.611685 
L 264.202044 426.111959 
L 264.641528 131.763818 
L 265.081013 447.427605 
L 265.520497 426.019392 
L 265.959982 501.953475 
L 266.399466 442.129657 
L 266.83895 503.234556 
L 267.278435 545.161281 
L 267.717919 513.77061 
L 268.157404 430.677596 
L 268.596888 431.977346 
L 269.036373 479.57702 
L 269.475857 447.144642 
L 269.915341 394.183276 
L 270.354826 495.440844 
L 270.79431 387.04551 
L 271.233795 420.823896 
L 271.673279 429.543507 
L 272.112763 451.009016 
L 272.552248 332.074196 
L 272.991732 369.637689 
L 273.870701 409.425948 
L 274.310186 451.328372 
L 274.74967 458.551547 
L 275.189154 407.162665 
L 275.628639 441.810062 
L 276.068123 506.230916 
L 276.507608 457.452475 
L 276.947092 477.032707 
L 277.386577 384.726032 
L 277.826061 371.773585 
L 278.265545 392.375414 
L 278.70503 252.094862 
L 279.144514 407.633408 
L 279.583999 239.661395 
L 280.023483 471.835808 
L 280.462967 442.843316 
L 280.902452 489.966501 
L 281.341936 442.373326 
L 281.781421 260.450797 
L 282.220905 464.900326 
L 282.66039 414.548705 
L 283.099874 401.112515 
L 283.539358 427.869233 
L 283.978843 415.423552 
L 284.418327 333.016763 
L 284.857812 448.204927 
L 285.297296 495.761757 
L 285.73678 373.882453 
L 286.176265 376.546389 
L 286.615749 366.794195 
L 287.055234 411.522324 
L 287.494718 385.639589 
L 287.934203 285.787144 
L 288.373687 489.266171 
L 288.813171 492.905129 
L 289.252656 513.289177 
L 289.69214 477.003065 
L 290.131625 490.294073 
L 291.010594 359.286572 
L 291.450078 378.246137 
L 291.889562 425.493284 
L 292.329047 454.139993 
L 292.768531 404.976208 
L 293.208016 379.542059 
L 293.6475 514.020144 
L 294.086984 372.272555 
L 294.526469 454.29431 
L 294.965953 578.717037 
L 295.405438 384.683252 
L 295.844922 433.292159 
L 296.284407 353.359067 
L 296.723891 471.731258 
L 297.163375 396.442928 
L 297.60286 492.025378 
L 298.042344 381.169797 
L 298.481829 399.077909 
L 298.921313 453.406049 
L 299.360797 397.05605 
L 299.800282 472.207975 
L 300.239766 460.941495 
L 300.679251 339.547436 
L 301.118735 264.723012 
L 301.55822 365.614693 
L 301.997704 427.856601 
L 302.437188 237.998204 
L 302.876673 474.498333 
L 303.316157 472.695268 
L 303.755642 394.228107 
L 304.195126 500.849936 
L 304.634611 401.275667 
L 305.074095 459.364166 
L 305.513579 567.200766 
L 305.953064 542.788442 
L 306.832033 370.787068 
L 307.271517 504.366342 
L 307.711001 345.857448 
L 308.150486 436.226957 
L 308.58997 312.752166 
L 309.468939 537.080386 
L 309.908424 456.572754 
L 310.347908 410.976873 
L 310.787392 471.630452 
L 311.666361 511.449329 
L 312.105846 320.148629 
L 312.54533 489.763847 
L 312.984814 326.575505 
L 313.424299 422.850037 
L 313.863783 472.400688 
L 314.303268 317.132305 
L 314.742752 256.27762 
L 315.182237 371.574721 
L 315.621721 346.272981 
L 316.061205 370.070017 
L 316.50069 318.034063 
L 316.940174 505.590447 
L 317.379659 504.651496 
L 317.819143 424.444129 
L 318.258628 467.653296 
L 318.698112 380.680682 
L 319.137596 497.547495 
L 319.577081 368.188288 
L 320.016565 470.753141 
L 320.45605 458.657336 
L 320.895534 424.879911 
L 321.335018 201.575368 
L 321.774503 516.986231 
L 322.213987 418.127634 
L 322.653472 366.547218 
L 323.092956 346.694446 
L 323.532441 317.567631 
L 323.971925 441.244511 
L 324.411409 426.265903 
L 324.850894 430.518062 
L 325.290378 424.415609 
L 325.729863 450.443867 
L 326.169347 372.330994 
L 326.608831 390.671236 
L 327.048316 462.540424 
L 327.4878 233.379136 
L 327.927285 499.132187 
L 328.366769 427.382527 
L 328.806254 511.494859 
L 329.685222 357.8439 
L 330.124707 544.06305 
L 330.564191 369.264729 
L 331.003676 473.759076 
L 331.44316 439.60578 
L 331.882645 335.732699 
L 332.322129 439.678411 
L 332.761613 477.711339 
L 333.201098 412.826568 
L 333.640582 408.429469 
L 334.080067 522.673307 
L 334.519551 307.129709 
L 335.39852 495.120362 
L 336.277489 266.176279 
L 336.716973 270.537783 
L 337.156458 335.881925 
L 337.595942 512.397286 
L 338.035426 312.358399 
L 338.474911 393.877545 
L 338.914395 428.167496 
L 339.35388 396.514086 
L 339.793364 489.420307 
L 340.672333 389.803964 
L 341.111817 436.759389 
L 341.551302 436.236679 
L 341.990786 393.342362 
L 342.430271 441.261777 
L 342.869755 423.498082 
L 343.309239 457.701099 
L 343.748724 457.530117 
L 344.188208 479.470854 
L 345.067177 358.854779 
L 345.506662 362.76962 
L 345.946146 481.397677 
L 346.38563 350.021759 
L 346.825115 320.797852 
L 347.264599 488.393079 
L 347.704084 315.779811 
L 348.143568 435.423151 
L 348.583052 421.42109 
L 349.022537 476.009694 
L 349.462021 386.997074 
L 349.901506 390.531056 
L 350.34099 374.770803 
L 350.780475 447.840436 
L 351.659443 403.877807 
L 352.098928 459.758139 
L 352.538412 360.366835 
L 352.977897 533.356188 
L 353.417381 483.539576 
L 354.29635 355.323429 
L 355.175319 476.470305 
L 355.614803 512.560526 
L 356.054288 401.170416 
L 356.493772 378.908828 
L 356.933256 402.623804 
L 357.372741 389.881638 
L 357.812225 335.820099 
L 358.25171 443.267283 
L 359.130679 540.693384 
L 360.009647 457.587348 
L 360.449132 433.024621 
L 360.888616 458.788233 
L 361.328101 335.009024 
L 361.767585 509.691905 
L 362.207069 485.150881 
L 362.646554 519.575719 
L 363.086038 355.901223 
L 363.525523 458.97703 
L 363.965007 513.462896 
L 364.404492 472.877057 
L 364.843976 416.776239 
L 365.28346 473.712563 
L 365.722945 494.154955 
L 366.162429 332.277778 
L 366.601914 343.335374 
L 367.041398 455.372934 
L 367.480883 309.026106 
L 367.920367 469.982294 
L 368.359851 370.315107 
L 368.799336 385.276782 
L 369.23882 427.014602 
L 369.678305 485.594433 
L 370.117789 274.265844 
L 370.557273 456.285601 
L 370.996758 290.957111 
L 371.436242 289.709952 
L 371.875727 493.807408 
L 372.315211 455.000695 
L 372.754696 466.071838 
L 373.19418 467.505072 
L 373.633664 422.199884 
L 374.073149 425.685344 
L 374.512633 358.757019 
L 374.952118 451.901107 
L 375.391602 245.891701 
L 375.831086 502.759383 
L 376.270571 329.977726 
L 376.710055 503.772529 
L 377.14954 469.649223 
L 377.589024 496.413386 
L 378.467993 274.650304 
L 378.907477 310.471844 
L 379.346962 484.629193 
L 380.225931 452.146717 
L 380.665415 419.747262 
L 381.1049 470.293843 
L 381.544384 276.70553 
L 381.983868 430.428801 
L 382.423353 493.580413 
L 382.862837 434.061019 
L 383.302322 465.129299 
L 383.741806 302.120185 
L 384.18129 500.119514 
L 384.620775 463.783305 
L 385.060259 303.093541 
L 385.499744 395.036238 
L 385.939228 379.412333 
L 386.378713 295.940016 
L 386.818197 444.352214 
L 387.257681 478.46301 
L 387.697166 369.24705 
L 388.13665 458.868132 
L 388.576135 302.604034 
L 389.015619 510.889081 
L 389.455103 276.447363 
L 389.894588 475.506896 
L 390.334072 427.2077 
L 390.773557 427.213657 
L 391.213041 207.696684 
L 391.652526 395.646428 
L 392.09201 438.714564 
L 392.531494 546.886257 
L 392.970979 499.973745 
L 393.410463 324.147569 
L 393.849948 474.579373 
L 394.289432 386.749516 
L 394.728917 398.878115 
L 395.168401 266.975682 
L 395.607885 412.434979 
L 396.04737 448.606271 
L 396.486854 454.244238 
L 396.926339 430.474701 
L 397.365823 518.575243 
L 397.805307 454.901302 
L 398.244792 373.766243 
L 399.123761 505.707376 
L 400.00273 431.541414 
L 400.442214 469.086418 
L 400.881698 459.750227 
L 401.321183 292.294092 
L 401.760667 366.946617 
L 402.200152 467.97097 
L 402.639636 381.603685 
L 403.07912 433.46632 
L 403.518605 424.651076 
L 403.958089 439.300584 
L 404.397574 373.136585 
L 404.837058 539.382587 
L 405.276543 479.021604 
L 405.716027 449.128284 
L 406.155511 335.215944 
L 406.594996 422.588645 
L 407.03448 423.339427 
L 407.473965 292.757791 
L 407.913449 485.71618 
L 408.352934 463.7986 
L 408.792418 358.568566 
L 409.231902 359.02911 
L 409.671387 489.441845 
L 410.110871 393.286343 
L 410.550356 452.925399 
L 410.98984 494.701261 
L 411.429324 436.032553 
L 411.868809 420.214223 
L 412.308293 366.214381 
L 413.187262 557.005839 
L 413.626747 386.068243 
L 414.066231 361.966975 
L 414.505715 441.958184 
L 414.9452 430.224635 
L 415.384684 436.063611 
L 415.824169 340.767968 
L 416.263653 424.835614 
L 416.703137 463.875533 
L 417.142622 411.027818 
L 417.582106 463.037161 
L 418.021591 471.762818 
L 418.461075 390.910664 
L 418.90056 453.400275 
L 419.340044 386.521441 
L 419.779528 392.835761 
L 420.219013 496.9773 
L 420.658497 399.783396 
L 421.097982 482.393132 
L 421.537466 340.903114 
L 421.976951 555.113401 
L 422.416435 373.486463 
L 422.855919 397.441678 
L 423.295404 370.990368 
L 424.174373 456.228023 
L 424.613857 450.004447 
L 425.053341 541.907025 
L 425.492826 428.3654 
L 425.93231 463.205217 
L 426.811279 375.207171 
L 427.250764 495.816495 
L 427.690248 473.155395 
L 428.129732 339.260941 
L 428.569217 277.586829 
L 429.008701 481.543212 
L 429.448186 524.081732 
L 429.88767 441.692342 
L 430.327154 416.280622 
L 430.766639 478.597335 
L 431.206123 442.973726 
L 431.645608 383.170304 
L 432.085092 510.03928 
L 432.524577 278.25459 
L 432.964061 445.143729 
L 433.403545 356.001169 
L 433.84303 473.960029 
L 434.282514 429.747609 
L 434.721999 465.787066 
L 435.161483 305.309385 
L 435.600968 442.900039 
L 436.040452 358.114569 
L 436.479936 350.034829 
L 436.919421 311.160282 
L 437.358905 345.747745 
L 437.79839 501.682931 
L 438.237874 504.378543 
L 438.677358 436.484787 
L 439.116843 472.011725 
L 439.556327 497.186295 
L 439.995812 342.869715 
L 440.435296 403.878682 
L 440.874781 548.983751 
L 441.314265 478.45699 
L 441.753749 507.11139 
L 442.193234 356.002359 
L 442.632718 390.614633 
L 443.072203 477.385981 
L 443.511687 468.927615 
L 443.951171 410.806499 
L 444.390656 520.849226 
L 444.83014 404.864096 
L 445.269625 389.320025 
L 445.709109 478.835502 
L 446.148594 407.460403 
L 446.588078 377.477931 
L 447.467047 487.125199 
L 447.906531 442.681058 
L 448.346016 488.477828 
L 448.7855 389.751016 
L 449.224985 384.436318 
L 449.664469 505.184413 
L 450.103953 338.412943 
L 450.543438 386.666326 
L 450.982922 488.649225 
L 451.422407 438.303103 
L 452.301375 248.652808 
L 452.74086 209.253801 
L 453.180344 500.947726 
L 453.619829 506.365961 
L 454.059313 416.391843 
L 454.498798 475.425724 
L 454.938282 500.102578 
L 455.377766 407.165541 
L 455.817251 459.885487 
L 456.256735 453.322121 
L 456.69622 368.865121 
L 457.135704 339.457449 
L 457.575189 399.647962 
L 458.014673 476.280141 
L 458.454157 372.132011 
L 458.893642 426.81972 
L 459.333126 332.749278 
L 459.772611 415.305161 
L 460.212095 385.743603 
L 461.091064 452.979579 
L 461.530548 442.035973 
L 461.970033 269.392277 
L 462.849002 504.137607 
L 463.288486 405.150391 
L 463.72797 489.770233 
L 464.167455 510.093849 
L 464.606939 433.772736 
L 465.046424 530.268027 
L 465.485908 389.131972 
L 465.925392 377.250233 
L 466.804361 463.786928 
L 467.243846 487.578429 
L 467.68333 463.46473 
L 468.122815 375.720911 
L 468.562299 260.671732 
L 469.001783 428.175176 
L 469.441268 512.897388 
L 470.320237 308.776615 
L 470.759721 468.37925 
L 471.199206 324.435163 
L 471.63869 441.199626 
L 472.078174 358.68077 
L 472.517659 354.667558 
L 472.957143 473.835479 
L 473.396628 525.229424 
L 473.836112 455.851664 
L 474.275596 427.106778 
L 474.715081 440.771345 
L 475.154565 436.212543 
L 475.59405 492.249616 
L 476.033534 409.090986 
L 476.473019 456.526927 
L 476.912503 450.813126 
L 477.351987 486.203744 
L 477.791472 275.801266 
L 478.230956 447.752614 
L 478.670441 349.615281 
L 479.109925 447.763853 
L 479.549409 460.380992 
L 479.988894 360.569478 
L 480.428378 452.554274 
L 480.867863 391.673656 
L 481.307347 504.220904 
L 481.746832 312.456365 
L 482.186316 455.310608 
L 482.6258 386.284519 
L 483.065285 472.772702 
L 483.504769 495.824643 
L 483.944254 580.503039 
L 484.383738 322.683081 
L 484.823223 484.744322 
L 485.262707 298.281372 
L 485.702191 433.176662 
L 486.141676 504.945152 
L 486.58116 504.15788 
L 487.020645 424.557543 
L 487.460129 516.014316 
L 487.899613 325.078249 
L 488.339098 315.900744 
L 488.778582 384.714035 
L 489.218067 412.142169 
L 489.657551 483.003072 
L 490.097036 411.334245 
L 490.976004 520.235671 
L 491.854973 368.414571 
L 492.294458 476.511638 
L 492.733942 539.495191 
L 493.173426 401.635455 
L 493.612911 306.230266 
L 494.052395 438.785622 
L 494.49188 434.361233 
L 494.931364 538.1522 
L 495.370849 436.943318 
L 495.810333 433.901528 
L 496.249817 396.573057 
L 496.689302 316.146288 
L 497.128786 514.182864 
L 497.568271 373.519384 
L 498.007755 454.650688 
L 498.44724 293.961115 
L 498.886724 503.428064 
L 499.326208 422.657636 
L 499.765693 288.807581 
L 500.205177 516.916875 
L 500.644662 396.488556 
L 501.084146 417.683609 
L 501.52363 402.655479 
L 501.963115 412.273394 
L 502.402599 474.82792 
L 502.842084 410.552516 
L 503.281568 407.052522 
L 504.160537 516.821047 
L 504.600021 458.988589 
L 505.039506 571.947672 
L 505.47899 467.189762 
L 505.918475 412.631766 
L 506.357959 377.675739 
L 506.797443 492.950774 
L 507.236928 476.555585 
L 507.676412 318.964697 
L 508.115897 418.003095 
L 508.555381 477.830026 
L 508.994866 451.828383 
L 509.43435 416.270651 
L 509.873834 475.517225 
L 510.313319 391.40399 
L 510.752803 431.344433 
L 511.192288 360.388938 
L 511.631772 338.445751 
L 512.071257 459.585007 
L 512.510741 430.701442 
L 512.950225 417.468845 
L 513.38971 477.673259 
L 513.829194 450.154568 
L 514.268679 506.135159 
L 514.708163 458.185702 
L 515.147647 513.688712 
L 515.587132 366.688324 
L 516.026616 426.674021 
L 516.466101 425.091985 
L 516.905585 458.864548 
L 517.34507 395.433879 
L 518.224038 568.199691 
L 518.663523 528.441172 
L 519.103007 554.530127 
L 519.542492 526.175258 
L 519.981976 319.533865 
L 520.42146 297.896638 
L 520.860945 458.022064 
L 521.300429 393.205532 
L 521.739914 375.033669 
L 522.179398 524.559357 
L 522.618883 436.645093 
L 523.058367 427.529647 
L 523.497851 314.242726 
L 523.937336 417.926345 
L 524.37682 419.75121 
L 524.816305 407.467394 
L 525.255789 446.102638 
L 525.695274 365.248946 
L 526.134758 443.518047 
L 526.574242 468.125778 
L 527.013727 504.056382 
L 527.453211 528.895686 
L 527.892696 338.180502 
L 528.771664 403.914186 
L 529.211149 404.751138 
L 529.650633 468.48534 
L 530.090118 453.635333 
L 530.529602 494.030142 
L 530.969087 501.444286 
L 531.408571 440.845012 
L 531.848055 336.485736 
L 532.28754 519.604739 
L 532.727024 437.283709 
L 533.166509 507.34114 
L 533.605993 442.121371 
L 534.045477 489.855592 
L 534.484962 508.883441 
L 534.924446 350.915486 
L 535.363931 326.707068 
L 535.803415 319.352917 
L 536.2429 419.084436 
L 536.682384 412.887034 
L 537.561353 517.445885 
L 538.000837 540.018765 
L 538.440322 317.245863 
L 538.879806 428.455866 
L 539.319291 392.425182 
L 539.758775 419.042572 
L 540.198259 383.755197 
L 540.637744 474.069656 
L 541.077228 385.417972 
L 541.516713 356.340414 
L 541.956197 446.315677 
L 542.395681 478.927544 
L 542.835166 522.792279 
L 543.27465 353.101425 
L 543.714135 351.222608 
L 544.153619 344.087204 
L 544.593104 333.497001 
L 545.032588 407.52018 
L 545.911557 196.06323 
L 545.911557 196.06323 
" style="fill:none;stroke:#96c69a;stroke-linecap:round;stroke-width:3;"/>
   </g>
   <g id="line2d_2"/>
   <g id="patch_3">
    <path d="M 84.914375 602.94 
L 84.914375 109.326857 
" style="fill:none;stroke:#262626;stroke-linecap:square;stroke-linejoin:miter;stroke-width:2.5;"/>
   </g>
   <g id="patch_4">
    <path d="M 84.914375 602.94 
L 567.863804 602.94 
" style="fill:none;stroke:#262626;stroke-linecap:square;stroke-linejoin:miter;stroke-width:2.5;"/>
   </g>
   <g id="legend_1">
    <g id="patch_5">
     <path d="M 514.948179 597.94 
L 560.863804 597.94 
Q 562.863804 597.94 562.863804 595.94 
L 562.863804 554.034375 
Q 562.863804 552.034375 560.863804 552.034375 
L 514.948179 552.034375 
Q 512.948179 552.034375 512.948179 554.034375 
L 512.948179 595.94 
Q 512.948179 597.94 514.948179 597.94 
z
" style="fill:#ffffff;opacity:0.8;stroke:#cccccc;stroke-linejoin:miter;stroke-width:2;"/>
    </g>
    <g id="text_15">
     <!-- $n_\tau$ -->
     <g style="fill:#262626;" transform="translate(524.825991 574.270625)scale(0.24 -0.24)">
      <defs>
       <path d="M 3566 2113 
L 3156 0 
L 2578 0 
L 2988 2091 
Q 3016 2238 3031 2350 
Q 3047 2463 3047 2528 
Q 3047 2791 2881 2937 
Q 2716 3084 2419 3084 
Q 1956 3084 1622 2776 
Q 1288 2469 1184 1941 
L 800 0 
L 225 0 
L 903 3500 
L 1478 3500 
L 1363 2950 
Q 1603 3253 1940 3418 
Q 2278 3584 2650 3584 
Q 3113 3584 3367 3334 
Q 3622 3084 3622 2631 
Q 3622 2519 3608 2391 
Q 3594 2263 3566 2113 
z
" id="DejaVuSans-Oblique-6e" transform="scale(0.015625)"/>
       <path d="M 2103 638 
Q 2188 488 2525 488 
L 2800 488 
L 2706 0 
L 2363 0 
Q 1800 0 1600 300 
Q 1403 606 1534 1269 
L 1856 2925 
L 541 2925 
L 653 3500 
L 3881 3500 
L 3769 2925 
L 2444 2925 
L 2113 1234 
Q 2025 781 2103 638 
z
" id="DejaVuSans-Oblique-3c4" transform="scale(0.015625)"/>
      </defs>
      <use xlink:href="#DejaVuSans-Oblique-6e"/>
      <use transform="translate(63.378906 -16.40625)scale(0.7)" xlink:href="#DejaVuSans-Oblique-3c4"/>
     </g>
    </g>
    <g id="line2d_3">
     <path d="M 516.948179 588.360312 
L 536.948179 588.360312 
" style="fill:none;stroke:#96c69a;stroke-linecap:round;stroke-width:3;"/>
    </g>
    <g id="line2d_4"/>
    <g id="text_16">
     <!-- 40 -->
     <g style="fill:#262626;" transform="translate(544.948179 591.860312)scale(0.1 -0.1)">
      <defs>
       <path d="M 2356 3675 
L 1038 1722 
L 2356 1722 
L 2356 3675 
z
M 2156 4666 
L 3494 4666 
L 3494 1722 
L 4159 1722 
L 4159 850 
L 3494 850 
L 3494 0 
L 2356 0 
L 2356 850 
L 288 850 
L 288 1881 
L 2156 4666 
z
" id="DejaVuSans-Bold-34" transform="scale(0.015625)"/>
       <path d="M 2944 2338 
Q 2944 3213 2780 3570 
Q 2616 3928 2228 3928 
Q 1841 3928 1675 3570 
Q 1509 3213 1509 2338 
Q 1509 1453 1675 1090 
Q 1841 728 2228 728 
Q 2613 728 2778 1090 
Q 2944 1453 2944 2338 
z
M 4147 2328 
Q 4147 1169 3647 539 
Q 3147 -91 2228 -91 
Q 1306 -91 806 539 
Q 306 1169 306 2328 
Q 306 3491 806 4120 
Q 1306 4750 2228 4750 
Q 3147 4750 3647 4120 
Q 4147 3491 4147 2328 
z
" id="DejaVuSans-Bold-30" transform="scale(0.015625)"/>
      </defs>
      <use xlink:href="#DejaVuSans-Bold-34"/>
      <use x="69.580078" xlink:href="#DejaVuSans-Bold-30"/>
     </g>
    </g>
   </g>
  </g>
  <g id="axes_2">
   <g id="patch_6">
    <path d="M 84.914375 92.305714 
L 567.863804 92.305714 
L 567.863804 7.2 
L 84.914375 7.2 
z
" style="fill:none;"/>
   </g>
   <g id="matplotlib.axis_3">
    <g id="xtick_7"/>
    <g id="xtick_8"/>
    <g id="xtick_9"/>
    <g id="xtick_10"/>
    <g id="xtick_11"/>
    <g id="xtick_12"/>
   </g>
   <g id="matplotlib.axis_4">
    <g id="ytick_7">
     <g id="text_17">
      <!-- 0 -->
      <g style="fill:#262626;" transform="translate(55.416875 100.663996)scale(0.22 -0.22)">
       <use xlink:href="#DejaVuSans-30"/>
      </g>
     </g>
    </g>
    <g id="ytick_8">
     <g id="text_18">
      <!-- 50 -->
      <g style="fill:#262626;" transform="translate(41.419375 56.129347)scale(0.22 -0.22)">
       <defs>
        <path d="M 691 4666 
L 3169 4666 
L 3169 4134 
L 1269 4134 
L 1269 2991 
Q 1406 3038 1543 3061 
Q 1681 3084 1819 3084 
Q 2600 3084 3056 2656 
Q 3513 2228 3513 1497 
Q 3513 744 3044 326 
Q 2575 -91 1722 -91 
Q 1428 -91 1123 -41 
Q 819 9 494 109 
L 494 744 
Q 775 591 1075 516 
Q 1375 441 1709 441 
Q 2250 441 2565 725 
Q 2881 1009 2881 1497 
Q 2881 1984 2565 2268 
Q 2250 2553 1709 2553 
Q 1456 2553 1204 2497 
Q 953 2441 691 2322 
L 691 4666 
z
" id="DejaVuSans-35" transform="scale(0.015625)"/>
       </defs>
       <use xlink:href="#DejaVuSans-35"/>
       <use x="63.623047" xlink:href="#DejaVuSans-30"/>
      </g>
     </g>
    </g>
   </g>
   <g id="patch_7">
    <path clip-path="url(#p5536efd220)" d="M 106.866622 92.305714 
L 146.779798 92.305714 
L 146.779798 11.252653 
L 106.866622 11.252653 
z
" style="fill:#96c69a;fill-opacity:0.5;stroke:#ffffff;stroke-linejoin:miter;stroke-width:2;"/>
   </g>
   <g id="patch_8">
    <path clip-path="url(#p5536efd220)" d="M 146.779798 92.305714 
L 186.692974 92.305714 
L 186.692974 11.252653 
L 146.779798 11.252653 
z
" style="fill:#96c69a;fill-opacity:0.5;stroke:#ffffff;stroke-linejoin:miter;stroke-width:2;"/>
   </g>
   <g id="patch_9">
    <path clip-path="url(#p5536efd220)" d="M 186.692974 92.305714 
L 226.606149 92.305714 
L 226.606149 11.252653 
L 186.692974 11.252653 
z
" style="fill:#96c69a;fill-opacity:0.5;stroke:#ffffff;stroke-linejoin:miter;stroke-width:2;"/>
   </g>
   <g id="patch_10">
    <path clip-path="url(#p5536efd220)" d="M 226.606149 92.305714 
L 266.519325 92.305714 
L 266.519325 11.252653 
L 226.606149 11.252653 
z
" style="fill:#96c69a;fill-opacity:0.5;stroke:#ffffff;stroke-linejoin:miter;stroke-width:2;"/>
   </g>
   <g id="patch_11">
    <path clip-path="url(#p5536efd220)" d="M 266.519325 92.305714 
L 306.432501 92.305714 
L 306.432501 11.252653 
L 266.519325 11.252653 
z
" style="fill:#96c69a;fill-opacity:0.5;stroke:#ffffff;stroke-linejoin:miter;stroke-width:2;"/>
   </g>
   <g id="patch_12">
    <path clip-path="url(#p5536efd220)" d="M 306.432501 92.305714 
L 346.345677 92.305714 
L 346.345677 12.143346 
L 306.432501 12.143346 
z
" style="fill:#96c69a;fill-opacity:0.5;stroke:#ffffff;stroke-linejoin:miter;stroke-width:2;"/>
   </g>
   <g id="patch_13">
    <path clip-path="url(#p5536efd220)" d="M 346.345677 92.305714 
L 386.258853 92.305714 
L 386.258853 11.252653 
L 346.345677 11.252653 
z
" style="fill:#96c69a;fill-opacity:0.5;stroke:#ffffff;stroke-linejoin:miter;stroke-width:2;"/>
   </g>
   <g id="patch_14">
    <path clip-path="url(#p5536efd220)" d="M 386.258853 92.305714 
L 426.172029 92.305714 
L 426.172029 11.252653 
L 386.258853 11.252653 
z
" style="fill:#96c69a;fill-opacity:0.5;stroke:#ffffff;stroke-linejoin:miter;stroke-width:2;"/>
   </g>
   <g id="patch_15">
    <path clip-path="url(#p5536efd220)" d="M 426.172029 92.305714 
L 466.085205 92.305714 
L 466.085205 11.252653 
L 426.172029 11.252653 
z
" style="fill:#96c69a;fill-opacity:0.5;stroke:#ffffff;stroke-linejoin:miter;stroke-width:2;"/>
   </g>
   <g id="patch_16">
    <path clip-path="url(#p5536efd220)" d="M 466.085205 92.305714 
L 505.998381 92.305714 
L 505.998381 11.252653 
L 466.085205 11.252653 
z
" style="fill:#96c69a;fill-opacity:0.5;stroke:#ffffff;stroke-linejoin:miter;stroke-width:2;"/>
   </g>
   <g id="patch_17">
    <path clip-path="url(#p5536efd220)" d="M 505.998381 92.305714 
L 545.911557 92.305714 
L 545.911557 11.252653 
L 505.998381 11.252653 
z
" style="fill:#96c69a;fill-opacity:0.5;stroke:#ffffff;stroke-linejoin:miter;stroke-width:2;"/>
   </g>
   <g id="patch_18">
    <path d="M 84.914375 92.305714 
L 84.914375 7.2 
" style="fill:none;stroke:#262626;stroke-linecap:square;stroke-linejoin:miter;stroke-width:2.5;"/>
   </g>
   <g id="patch_19">
    <path d="M 84.914375 92.305714 
L 567.863804 92.305714 
" style="fill:none;stroke:#262626;stroke-linecap:square;stroke-linejoin:miter;stroke-width:2.5;"/>
   </g>
  </g>
  <g id="axes_3">
   <g id="patch_20">
    <path d="M 584.517232 602.94 
L 667.784375 602.94 
L 667.784375 109.326857 
L 584.517232 109.326857 
z
" style="fill:none;"/>
   </g>
   <g id="matplotlib.axis_5">
    <g id="xtick_13">
     <g id="text_19">
      <!-- 0 -->
      <g style="fill:#262626;" transform="translate(577.518482 635.156562)scale(0.22 -0.22)">
       <use xlink:href="#DejaVuSans-30"/>
      </g>
     </g>
    </g>
    <g id="xtick_14">
     <g id="text_20">
      <!-- 100 -->
      <g style="fill:#262626;" transform="translate(636.275148 635.156562)scale(0.22 -0.22)">
       <use xlink:href="#DejaVuSans-31"/>
       <use x="63.623047" xlink:href="#DejaVuSans-30"/>
       <use x="127.246094" xlink:href="#DejaVuSans-30"/>
      </g>
     </g>
    </g>
   </g>
   <g id="matplotlib.axis_6">
    <g id="ytick_9"/>
    <g id="ytick_10"/>
    <g id="ytick_11"/>
    <g id="ytick_12"/>
    <g id="ytick_13"/>
    <g id="ytick_14"/>
   </g>
   <g id="patch_21">
    <path clip-path="url(#p7073dcf909)" d="M 584.517232 580.503039 
L 590.337565 580.503039 
L 590.337565 562.55347 
L 584.517232 562.55347 
z
" style="fill:#96c69a;fill-opacity:0.5;stroke:#ffffff;stroke-linejoin:miter;stroke-width:1.794957;"/>
   </g>
   <g id="patch_22">
    <path clip-path="url(#p7073dcf909)" d="M 584.517232 562.55347 
L 591.065107 562.55347 
L 591.065107 544.603901 
L 584.517232 544.603901 
z
" style="fill:#96c69a;fill-opacity:0.5;stroke:#ffffff;stroke-linejoin:miter;stroke-width:1.794957;"/>
   </g>
   <g id="patch_23">
    <path clip-path="url(#p7073dcf909)" d="M 584.517232 544.603901 
L 601.25069 544.603901 
L 601.25069 526.654332 
L 584.517232 526.654332 
z
" style="fill:#96c69a;fill-opacity:0.5;stroke:#ffffff;stroke-linejoin:miter;stroke-width:1.794957;"/>
   </g>
   <g id="patch_24">
    <path clip-path="url(#p7073dcf909)" d="M 584.517232 526.654332 
L 619.439232 526.654332 
L 619.439232 508.704764 
L 584.517232 508.704764 
z
" style="fill:#96c69a;fill-opacity:0.5;stroke:#ffffff;stroke-linejoin:miter;stroke-width:1.794957;"/>
   </g>
   <g id="patch_25">
    <path clip-path="url(#p7073dcf909)" d="M 584.517232 508.704764 
L 637.627773 508.704764 
L 637.627773 490.755195 
L 584.517232 490.755195 
z
" style="fill:#96c69a;fill-opacity:0.5;stroke:#ffffff;stroke-linejoin:miter;stroke-width:1.794957;"/>
   </g>
   <g id="patch_26">
    <path clip-path="url(#p7073dcf909)" d="M 584.517232 490.755195 
L 652.178606 490.755195 
L 652.178606 472.805626 
L 584.517232 472.805626 
z
" style="fill:#96c69a;fill-opacity:0.5;stroke:#ffffff;stroke-linejoin:miter;stroke-width:1.794957;"/>
   </g>
   <g id="patch_27">
    <path clip-path="url(#p7073dcf909)" d="M 584.517232 472.805626 
L 660.181565 472.805626 
L 660.181565 454.856057 
L 584.517232 454.856057 
z
" style="fill:#96c69a;fill-opacity:0.5;stroke:#ffffff;stroke-linejoin:miter;stroke-width:1.794957;"/>
   </g>
   <g id="patch_28">
    <path clip-path="url(#p7073dcf909)" d="M 584.517232 454.856057 
L 663.819273 454.856057 
L 663.819273 436.906488 
L 584.517232 436.906488 
z
" style="fill:#96c69a;fill-opacity:0.5;stroke:#ffffff;stroke-linejoin:miter;stroke-width:1.794957;"/>
   </g>
   <g id="patch_29">
    <path clip-path="url(#p7073dcf909)" d="M 584.517232 436.906488 
L 660.909106 436.906488 
L 660.909106 418.956919 
L 584.517232 418.956919 
z
" style="fill:#96c69a;fill-opacity:0.5;stroke:#ffffff;stroke-linejoin:miter;stroke-width:1.794957;"/>
   </g>
   <g id="patch_30">
    <path clip-path="url(#p7073dcf909)" d="M 584.517232 418.956919 
L 651.451065 418.956919 
L 651.451065 401.007351 
L 584.517232 401.007351 
z
" style="fill:#96c69a;fill-opacity:0.5;stroke:#ffffff;stroke-linejoin:miter;stroke-width:1.794957;"/>
   </g>
   <g id="patch_31">
    <path clip-path="url(#p7073dcf909)" d="M 584.517232 401.007351 
L 644.90319 401.007351 
L 644.90319 383.057782 
L 584.517232 383.057782 
z
" style="fill:#96c69a;fill-opacity:0.5;stroke:#ffffff;stroke-linejoin:miter;stroke-width:1.794957;"/>
   </g>
   <g id="patch_32">
    <path clip-path="url(#p7073dcf909)" d="M 584.517232 383.057782 
L 636.17269 383.057782 
L 636.17269 365.108213 
L 584.517232 365.108213 
z
" style="fill:#96c69a;fill-opacity:0.5;stroke:#ffffff;stroke-linejoin:miter;stroke-width:1.794957;"/>
   </g>
   <g id="patch_33">
    <path clip-path="url(#p7073dcf909)" d="M 584.517232 365.108213 
L 617.984148 365.108213 
L 617.984148 347.158644 
L 584.517232 347.158644 
z
" style="fill:#96c69a;fill-opacity:0.5;stroke:#ffffff;stroke-linejoin:miter;stroke-width:1.794957;"/>
   </g>
   <g id="patch_34">
    <path clip-path="url(#p7073dcf909)" d="M 584.517232 347.158644 
L 616.529065 347.158644 
L 616.529065 329.209075 
L 584.517232 329.209075 
z
" style="fill:#96c69a;fill-opacity:0.5;stroke:#ffffff;stroke-linejoin:miter;stroke-width:1.794957;"/>
   </g>
   <g id="patch_35">
    <path clip-path="url(#p7073dcf909)" d="M 584.517232 329.209075 
L 607.798565 329.209075 
L 607.798565 311.259506 
L 584.517232 311.259506 
z
" style="fill:#96c69a;fill-opacity:0.5;stroke:#ffffff;stroke-linejoin:miter;stroke-width:1.794957;"/>
   </g>
   <g id="patch_36">
    <path clip-path="url(#p7073dcf909)" d="M 584.517232 311.259506 
L 599.068065 311.259506 
L 599.068065 293.309938 
L 584.517232 293.309938 
z
" style="fill:#96c69a;fill-opacity:0.5;stroke:#ffffff;stroke-linejoin:miter;stroke-width:1.794957;"/>
   </g>
   <g id="patch_37">
    <path clip-path="url(#p7073dcf909)" d="M 584.517232 293.309938 
L 594.702815 293.309938 
L 594.702815 275.360369 
L 584.517232 275.360369 
z
" style="fill:#96c69a;fill-opacity:0.5;stroke:#ffffff;stroke-linejoin:miter;stroke-width:1.794957;"/>
   </g>
   <g id="patch_38">
    <path clip-path="url(#p7073dcf909)" d="M 584.517232 275.360369 
L 591.792649 275.360369 
L 591.792649 257.4108 
L 584.517232 257.4108 
z
" style="fill:#96c69a;fill-opacity:0.5;stroke:#ffffff;stroke-linejoin:miter;stroke-width:1.794957;"/>
   </g>
   <g id="patch_39">
    <path clip-path="url(#p7073dcf909)" d="M 584.517232 257.4108 
L 591.065107 257.4108 
L 591.065107 239.461231 
L 584.517232 239.461231 
z
" style="fill:#96c69a;fill-opacity:0.5;stroke:#ffffff;stroke-linejoin:miter;stroke-width:1.794957;"/>
   </g>
   <g id="patch_40">
    <path clip-path="url(#p7073dcf909)" d="M 584.517232 239.461231 
L 585.972315 239.461231 
L 585.972315 221.511662 
L 584.517232 221.511662 
z
" style="fill:#96c69a;fill-opacity:0.5;stroke:#ffffff;stroke-linejoin:miter;stroke-width:1.794957;"/>
   </g>
   <g id="patch_41">
    <path clip-path="url(#p7073dcf909)" d="M 584.517232 221.511662 
L 585.972315 221.511662 
L 585.972315 203.562094 
L 584.517232 203.562094 
z
" style="fill:#96c69a;fill-opacity:0.5;stroke:#ffffff;stroke-linejoin:miter;stroke-width:1.794957;"/>
   </g>
   <g id="patch_42">
    <path clip-path="url(#p7073dcf909)" d="M 584.517232 203.562094 
L 585.972315 203.562094 
L 585.972315 185.612525 
L 584.517232 185.612525 
z
" style="fill:#96c69a;fill-opacity:0.5;stroke:#ffffff;stroke-linejoin:miter;stroke-width:1.794957;"/>
   </g>
   <g id="patch_43">
    <path clip-path="url(#p7073dcf909)" d="M 584.517232 185.612525 
L 584.517232 185.612525 
L 584.517232 167.662956 
L 584.517232 167.662956 
z
" style="fill:#96c69a;fill-opacity:0.5;stroke:#ffffff;stroke-linejoin:miter;stroke-width:1.794957;"/>
   </g>
   <g id="patch_44">
    <path clip-path="url(#p7073dcf909)" d="M 584.517232 167.662956 
L 584.517232 167.662956 
L 584.517232 149.713387 
L 584.517232 149.713387 
z
" style="fill:#96c69a;fill-opacity:0.5;stroke:#ffffff;stroke-linejoin:miter;stroke-width:1.794957;"/>
   </g>
   <g id="patch_45">
    <path clip-path="url(#p7073dcf909)" d="M 584.517232 149.713387 
L 585.244774 149.713387 
L 585.244774 131.763818 
L 584.517232 131.763818 
z
" style="fill:#96c69a;fill-opacity:0.5;stroke:#ffffff;stroke-linejoin:miter;stroke-width:1.794957;"/>
   </g>
   <g id="patch_46">
    <path d="M 584.517232 602.94 
L 584.517232 109.326857 
" style="fill:none;stroke:#262626;stroke-linecap:square;stroke-linejoin:miter;stroke-width:2.5;"/>
   </g>
   <g id="patch_47">
    <path d="M 584.517232 602.94 
L 667.784375 602.94 
" style="fill:none;stroke:#262626;stroke-linecap:square;stroke-linejoin:miter;stroke-width:2.5;"/>
   </g>
  </g>
 </g>
 <defs>
  <clipPath id="p27deb32c78">
   <rect height="493.613143" width="482.949429" x="84.914375" y="109.326857"/>
  </clipPath>
  <clipPath id="p5536efd220">
   <rect height="85.105714" width="482.949429" x="84.914375" y="7.2"/>
  </clipPath>
  <clipPath id="p7073dcf909">
   <rect height="493.613143" width="83.267143" x="584.517232" y="109.326857"/>
  </clipPath>
 </defs>
</svg>
