<?xml version="1.0" encoding="utf-8" standalone="no"?>
<!DOCTYPE svg PUBLIC "-//W3C//DTD SVG 1.1//EN"
  "http://www.w3.org/Graphics/SVG/1.1/DTD/svg11.dtd">
<svg height="674.159375pt" version="1.1" viewBox="0 0 674.984375 674.159375" width="674.984375pt" xmlns="http://www.w3.org/2000/svg" xmlns:xlink="http://www.w3.org/1999/xlink">
 <metadata>
  <rdf:RDF xmlns:cc="http://creativecommons.org/ns#" xmlns:dc="http://purl.org/dc/elements/1.1/" xmlns:rdf="http://www.w3.org/1999/02/22-rdf-syntax-ns#">
   <cc:Work>
    <dc:type rdf:resource="http://purl.org/dc/dcmitype/StillImage"/>
    <dc:date>2021-07-24T14:56:54.292961</dc:date>
    <dc:format>image/svg+xml</dc:format>
    <dc:creator>
     <cc:Agent>
      <dc:title>Matplotlib v3.4.2, https://matplotlib.org/</dc:title>
     </cc:Agent>
    </dc:creator>
   </cc:Work>
  </rdf:RDF>
 </metadata>
 <defs>
  <style type="text/css">*{stroke-linecap:butt;stroke-linejoin:round;}</style>
 </defs>
 <g id="figure_1">
  <g id="patch_1">
   <path d="M 0 674.159375 
L 674.984375 674.159375 
L 674.984375 0 
L 0 0 
z
" style="fill:#ffffff;"/>
  </g>
  <g id="axes_1">
   <g id="patch_2">
    <path d="M 84.914375 602.94 
L 567.863804 602.94 
L 567.863804 109.326857 
L 84.914375 109.326857 
z
" style="fill:none;"/>
   </g>
   <g id="matplotlib.axis_1">
    <g id="xtick_1">
     <g id="text_1">
      <!-- 0 -->
      <g style="fill:#262626;" transform="translate(99.648239 635.156562)scale(0.22 -0.22)">
       <defs>
        <path d="M 2034 4250 
Q 1547 4250 1301 3770 
Q 1056 3291 1056 2328 
Q 1056 1369 1301 889 
Q 1547 409 2034 409 
Q 2525 409 2770 889 
Q 3016 1369 3016 2328 
Q 3016 3291 2770 3770 
Q 2525 4250 2034 4250 
z
M 2034 4750 
Q 2819 4750 3233 4129 
Q 3647 3509 3647 2328 
Q 3647 1150 3233 529 
Q 2819 -91 2034 -91 
Q 1250 -91 836 529 
Q 422 1150 422 2328 
Q 422 3509 836 4129 
Q 1250 4750 2034 4750 
z
" id="DejaVuSans-30" transform="scale(0.015625)"/>
       </defs>
       <use xlink:href="#DejaVuSans-30"/>
      </g>
     </g>
    </g>
    <g id="xtick_2">
     <g id="text_2">
      <!-- 20000 -->
      <g style="fill:#262626;" transform="translate(159.506153 635.156562)scale(0.22 -0.22)">
       <defs>
        <path d="M 1228 531 
L 3431 531 
L 3431 0 
L 469 0 
L 469 531 
Q 828 903 1448 1529 
Q 2069 2156 2228 2338 
Q 2531 2678 2651 2914 
Q 2772 3150 2772 3378 
Q 2772 3750 2511 3984 
Q 2250 4219 1831 4219 
Q 1534 4219 1204 4116 
Q 875 4013 500 3803 
L 500 4441 
Q 881 4594 1212 4672 
Q 1544 4750 1819 4750 
Q 2544 4750 2975 4387 
Q 3406 4025 3406 3419 
Q 3406 3131 3298 2873 
Q 3191 2616 2906 2266 
Q 2828 2175 2409 1742 
Q 1991 1309 1228 531 
z
" id="DejaVuSans-32" transform="scale(0.015625)"/>
       </defs>
       <use xlink:href="#DejaVuSans-32"/>
       <use x="63.623047" xlink:href="#DejaVuSans-30"/>
       <use x="127.246094" xlink:href="#DejaVuSans-30"/>
       <use x="190.869141" xlink:href="#DejaVuSans-30"/>
       <use x="254.492188" xlink:href="#DejaVuSans-30"/>
      </g>
     </g>
    </g>
    <g id="xtick_3">
     <g id="text_3">
      <!-- 40000 -->
      <g style="fill:#262626;" transform="translate(247.359066 635.156562)scale(0.22 -0.22)">
       <defs>
        <path d="M 2419 4116 
L 825 1625 
L 2419 1625 
L 2419 4116 
z
M 2253 4666 
L 3047 4666 
L 3047 1625 
L 3713 1625 
L 3713 1100 
L 3047 1100 
L 3047 0 
L 2419 0 
L 2419 1100 
L 313 1100 
L 313 1709 
L 2253 4666 
z
" id="DejaVuSans-34" transform="scale(0.015625)"/>
       </defs>
       <use xlink:href="#DejaVuSans-34"/>
       <use x="63.623047" xlink:href="#DejaVuSans-30"/>
       <use x="127.246094" xlink:href="#DejaVuSans-30"/>
       <use x="190.869141" xlink:href="#DejaVuSans-30"/>
       <use x="254.492188" xlink:href="#DejaVuSans-30"/>
      </g>
     </g>
    </g>
    <g id="xtick_4">
     <g id="text_4">
      <!-- 60000 -->
      <g style="fill:#262626;" transform="translate(335.21198 635.156562)scale(0.22 -0.22)">
       <defs>
        <path d="M 2113 2584 
Q 1688 2584 1439 2293 
Q 1191 2003 1191 1497 
Q 1191 994 1439 701 
Q 1688 409 2113 409 
Q 2538 409 2786 701 
Q 3034 994 3034 1497 
Q 3034 2003 2786 2293 
Q 2538 2584 2113 2584 
z
M 3366 4563 
L 3366 3988 
Q 3128 4100 2886 4159 
Q 2644 4219 2406 4219 
Q 1781 4219 1451 3797 
Q 1122 3375 1075 2522 
Q 1259 2794 1537 2939 
Q 1816 3084 2150 3084 
Q 2853 3084 3261 2657 
Q 3669 2231 3669 1497 
Q 3669 778 3244 343 
Q 2819 -91 2113 -91 
Q 1303 -91 875 529 
Q 447 1150 447 2328 
Q 447 3434 972 4092 
Q 1497 4750 2381 4750 
Q 2619 4750 2861 4703 
Q 3103 4656 3366 4563 
z
" id="DejaVuSans-36" transform="scale(0.015625)"/>
       </defs>
       <use xlink:href="#DejaVuSans-36"/>
       <use x="63.623047" xlink:href="#DejaVuSans-30"/>
       <use x="127.246094" xlink:href="#DejaVuSans-30"/>
       <use x="190.869141" xlink:href="#DejaVuSans-30"/>
       <use x="254.492188" xlink:href="#DejaVuSans-30"/>
      </g>
     </g>
    </g>
    <g id="xtick_5">
     <g id="text_5">
      <!-- 80000 -->
      <g style="fill:#262626;" transform="translate(423.064893 635.156562)scale(0.22 -0.22)">
       <defs>
        <path d="M 2034 2216 
Q 1584 2216 1326 1975 
Q 1069 1734 1069 1313 
Q 1069 891 1326 650 
Q 1584 409 2034 409 
Q 2484 409 2743 651 
Q 3003 894 3003 1313 
Q 3003 1734 2745 1975 
Q 2488 2216 2034 2216 
z
M 1403 2484 
Q 997 2584 770 2862 
Q 544 3141 544 3541 
Q 544 4100 942 4425 
Q 1341 4750 2034 4750 
Q 2731 4750 3128 4425 
Q 3525 4100 3525 3541 
Q 3525 3141 3298 2862 
Q 3072 2584 2669 2484 
Q 3125 2378 3379 2068 
Q 3634 1759 3634 1313 
Q 3634 634 3220 271 
Q 2806 -91 2034 -91 
Q 1263 -91 848 271 
Q 434 634 434 1313 
Q 434 1759 690 2068 
Q 947 2378 1403 2484 
z
M 1172 3481 
Q 1172 3119 1398 2916 
Q 1625 2713 2034 2713 
Q 2441 2713 2670 2916 
Q 2900 3119 2900 3481 
Q 2900 3844 2670 4047 
Q 2441 4250 2034 4250 
Q 1625 4250 1398 4047 
Q 1172 3844 1172 3481 
z
" id="DejaVuSans-38" transform="scale(0.015625)"/>
       </defs>
       <use xlink:href="#DejaVuSans-38"/>
       <use x="63.623047" xlink:href="#DejaVuSans-30"/>
       <use x="127.246094" xlink:href="#DejaVuSans-30"/>
       <use x="190.869141" xlink:href="#DejaVuSans-30"/>
       <use x="254.492188" xlink:href="#DejaVuSans-30"/>
      </g>
     </g>
    </g>
    <g id="xtick_6">
     <g id="text_6">
      <!-- 100000 -->
      <g style="fill:#262626;" transform="translate(503.919057 635.156562)scale(0.22 -0.22)">
       <defs>
        <path d="M 794 531 
L 1825 531 
L 1825 4091 
L 703 3866 
L 703 4441 
L 1819 4666 
L 2450 4666 
L 2450 531 
L 3481 531 
L 3481 0 
L 794 0 
L 794 531 
z
" id="DejaVuSans-31" transform="scale(0.015625)"/>
       </defs>
       <use xlink:href="#DejaVuSans-31"/>
       <use x="63.623047" xlink:href="#DejaVuSans-30"/>
       <use x="127.246094" xlink:href="#DejaVuSans-30"/>
       <use x="190.869141" xlink:href="#DejaVuSans-30"/>
       <use x="254.492188" xlink:href="#DejaVuSans-30"/>
       <use x="318.115234" xlink:href="#DejaVuSans-30"/>
      </g>
     </g>
    </g>
    <g id="text_7">
     <!-- MDTU -->
     <g style="fill:#262626;" transform="translate(290.683464 661.968125)scale(0.24 -0.24)">
      <defs>
       <path d="M 628 4666 
L 1569 4666 
L 2759 1491 
L 3956 4666 
L 4897 4666 
L 4897 0 
L 4281 0 
L 4281 4097 
L 3078 897 
L 2444 897 
L 1241 4097 
L 1241 0 
L 628 0 
L 628 4666 
z
" id="DejaVuSans-4d" transform="scale(0.015625)"/>
       <path d="M 1259 4147 
L 1259 519 
L 2022 519 
Q 2988 519 3436 956 
Q 3884 1394 3884 2338 
Q 3884 3275 3436 3711 
Q 2988 4147 2022 4147 
L 1259 4147 
z
M 628 4666 
L 1925 4666 
Q 3281 4666 3915 4102 
Q 4550 3538 4550 2338 
Q 4550 1131 3912 565 
Q 3275 0 1925 0 
L 628 0 
L 628 4666 
z
" id="DejaVuSans-44" transform="scale(0.015625)"/>
       <path d="M -19 4666 
L 3928 4666 
L 3928 4134 
L 2272 4134 
L 2272 0 
L 1638 0 
L 1638 4134 
L -19 4134 
L -19 4666 
z
" id="DejaVuSans-54" transform="scale(0.015625)"/>
       <path d="M 556 4666 
L 1191 4666 
L 1191 1831 
Q 1191 1081 1462 751 
Q 1734 422 2344 422 
Q 2950 422 3222 751 
Q 3494 1081 3494 1831 
L 3494 4666 
L 4128 4666 
L 4128 1753 
Q 4128 841 3676 375 
Q 3225 -91 2344 -91 
Q 1459 -91 1007 375 
Q 556 841 556 1753 
L 556 4666 
z
" id="DejaVuSans-55" transform="scale(0.015625)"/>
      </defs>
      <use xlink:href="#DejaVuSans-4d"/>
      <use x="86.279297" xlink:href="#DejaVuSans-44"/>
      <use x="163.28125" xlink:href="#DejaVuSans-54"/>
      <use x="224.365234" xlink:href="#DejaVuSans-55"/>
     </g>
    </g>
   </g>
   <g id="matplotlib.axis_2">
    <g id="ytick_1">
     <g id="text_8">
      <!-- 0.4 -->
      <g style="fill:#262626;" transform="translate(34.4275 603.851904)scale(0.22 -0.22)">
       <defs>
        <path d="M 684 794 
L 1344 794 
L 1344 0 
L 684 0 
L 684 794 
z
" id="DejaVuSans-2e" transform="scale(0.015625)"/>
       </defs>
       <use xlink:href="#DejaVuSans-30"/>
       <use x="63.623047" xlink:href="#DejaVuSans-2e"/>
       <use x="95.410156" xlink:href="#DejaVuSans-34"/>
      </g>
     </g>
    </g>
    <g id="ytick_2">
     <g id="text_9">
      <!-- 0.6 -->
      <g style="fill:#262626;" transform="translate(34.4275 541.727413)scale(0.22 -0.22)">
       <use xlink:href="#DejaVuSans-30"/>
       <use x="63.623047" xlink:href="#DejaVuSans-2e"/>
       <use x="95.410156" xlink:href="#DejaVuSans-36"/>
      </g>
     </g>
    </g>
    <g id="ytick_3">
     <g id="text_10">
      <!-- 0.8 -->
      <g style="fill:#262626;" transform="translate(34.4275 479.602922)scale(0.22 -0.22)">
       <use xlink:href="#DejaVuSans-30"/>
       <use x="63.623047" xlink:href="#DejaVuSans-2e"/>
       <use x="95.410156" xlink:href="#DejaVuSans-38"/>
      </g>
     </g>
    </g>
    <g id="ytick_4">
     <g id="text_11">
      <!-- 1.0 -->
      <g style="fill:#262626;" transform="translate(34.4275 417.478431)scale(0.22 -0.22)">
       <use xlink:href="#DejaVuSans-31"/>
       <use x="63.623047" xlink:href="#DejaVuSans-2e"/>
       <use x="95.410156" xlink:href="#DejaVuSans-30"/>
      </g>
     </g>
    </g>
    <g id="ytick_5">
     <g id="text_12">
      <!-- 1.2 -->
      <g style="fill:#262626;" transform="translate(34.4275 355.35394)scale(0.22 -0.22)">
       <use xlink:href="#DejaVuSans-31"/>
       <use x="63.623047" xlink:href="#DejaVuSans-2e"/>
       <use x="95.410156" xlink:href="#DejaVuSans-32"/>
      </g>
     </g>
    </g>
    <g id="ytick_6">
     <g id="text_13">
      <!-- 1.4 -->
      <g style="fill:#262626;" transform="translate(34.4275 293.229448)scale(0.22 -0.22)">
       <use xlink:href="#DejaVuSans-31"/>
       <use x="63.623047" xlink:href="#DejaVuSans-2e"/>
       <use x="95.410156" xlink:href="#DejaVuSans-34"/>
      </g>
     </g>
    </g>
    <g id="ytick_7">
     <g id="text_14">
      <!-- 1.6 -->
      <g style="fill:#262626;" transform="translate(34.4275 231.104957)scale(0.22 -0.22)">
       <use xlink:href="#DejaVuSans-31"/>
       <use x="63.623047" xlink:href="#DejaVuSans-2e"/>
       <use x="95.410156" xlink:href="#DejaVuSans-36"/>
      </g>
     </g>
    </g>
    <g id="ytick_8">
     <g id="text_15">
      <!-- 1.8 -->
      <g style="fill:#262626;" transform="translate(34.4275 168.980466)scale(0.22 -0.22)">
       <use xlink:href="#DejaVuSans-31"/>
       <use x="63.623047" xlink:href="#DejaVuSans-2e"/>
       <use x="95.410156" xlink:href="#DejaVuSans-38"/>
      </g>
     </g>
    </g>
    <g id="text_16">
     <!-- $E$ -->
     <g style="fill:#262626;" transform="translate(25.43625 363.813429)rotate(-90)scale(0.24 -0.24)">
      <defs>
       <path d="M 1081 4666 
L 4031 4666 
L 3928 4134 
L 1606 4134 
L 1338 2753 
L 3566 2753 
L 3463 2222 
L 1234 2222 
L 909 531 
L 3284 531 
L 3181 0 
L 172 0 
L 1081 4666 
z
" id="DejaVuSans-Oblique-45" transform="scale(0.015625)"/>
      </defs>
      <use transform="translate(0 0.09375)" xlink:href="#DejaVuSans-Oblique-45"/>
     </g>
    </g>
   </g>
   <g id="line2d_1">
    <path clip-path="url(#p637b79caef)" d="M 106.866622 419.737116 
L 107.086254 401.572791 
L 107.305886 461.150557 
L 107.525519 457.556145 
L 107.745151 373.698377 
L 107.964783 489.42854 
L 108.184415 384.11413 
L 108.404048 459.419621 
L 108.62368 419.955544 
L 108.843312 457.448042 
L 109.062945 371.422268 
L 109.282577 543.73234 
L 109.502209 361.653412 
L 109.721841 435.730561 
L 109.941474 427.878719 
L 110.161106 427.24911 
L 110.380738 375.147567 
L 110.820003 551.925217 
L 111.039635 257.816799 
L 111.259267 489.97562 
L 111.4789 391.358851 
L 111.698532 469.950558 
L 111.918164 497.089644 
L 112.137797 443.420284 
L 112.357429 421.994507 
L 112.577061 315.087756 
L 113.235958 492.237521 
L 113.45559 520.289641 
L 113.675223 425.646398 
L 113.894855 446.77674 
L 114.114487 382.326594 
L 114.334119 198.246135 
L 114.553752 468.899125 
L 114.773384 426.604971 
L 114.993016 447.354381 
L 115.212649 529.378108 
L 115.432281 385.312118 
L 115.651913 496.122737 
L 115.871545 425.973092 
L 116.091178 431.553249 
L 116.31081 325.886344 
L 116.530442 489.821781 
L 116.750075 517.896025 
L 116.969707 478.143477 
L 117.189339 367.687719 
L 117.408971 136.614055 
L 117.628604 461.976501 
L 118.067868 513.575329 
L 118.287501 425.774022 
L 118.507133 391.523767 
L 118.726765 440.098584 
L 118.946397 175.049847 
L 119.16603 436.755282 
L 119.385662 448.966044 
L 119.824926 249.082491 
L 120.044559 400.483563 
L 120.264191 338.198398 
L 120.483823 552.675285 
L 120.703456 420.717096 
L 120.923088 374.320054 
L 121.14272 406.972489 
L 121.362352 373.858191 
L 121.581985 447.670871 
L 122.021249 494.752135 
L 122.240882 493.49716 
L 122.460514 296.62671 
L 122.680146 294.760843 
L 122.899778 376.82196 
L 123.119411 406.433238 
L 123.339043 525.764732 
L 123.558675 516.463865 
L 123.778308 481.131534 
L 123.99794 376.334899 
L 124.217572 525.109034 
L 124.437204 396.486949 
L 124.656837 477.42634 
L 124.876469 361.049752 
L 125.096101 485.181244 
L 125.315734 426.362801 
L 125.535366 321.048378 
L 125.754998 469.085112 
L 125.97463 433.115952 
L 126.194263 498.758287 
L 126.413895 434.366331 
L 126.85316 475.970801 
L 127.072792 296.767477 
L 127.292424 450.899171 
L 127.512056 461.767471 
L 127.731689 507.633696 
L 127.951321 452.871969 
L 128.170953 441.002317 
L 128.390586 561.385512 
L 128.610218 453.753479 
L 128.82985 526.856174 
L 129.049482 457.538662 
L 129.269115 524.910098 
L 129.488747 439.131293 
L 129.708379 275.834818 
L 129.928012 453.805793 
L 130.367276 332.067372 
L 130.586908 468.33827 
L 130.806541 485.483769 
L 131.026173 461.543238 
L 131.245805 403.641912 
L 131.465438 524.311579 
L 131.68507 456.155759 
L 131.904702 349.887163 
L 132.124334 360.096796 
L 132.343967 410.014641 
L 132.563599 434.124703 
L 132.783231 332.172437 
L 133.002864 541.909669 
L 133.222496 335.689249 
L 133.442128 550.462902 
L 133.66176 292.559574 
L 133.881393 425.572329 
L 134.101025 375.507178 
L 134.320657 414.719907 
L 134.540289 476.355788 
L 134.979554 296.987062 
L 135.199186 447.650651 
L 135.418819 430.104619 
L 135.638451 448.032742 
L 135.858083 509.073484 
L 136.077715 498.481109 
L 136.297348 499.313554 
L 136.51698 521.755105 
L 136.956245 424.530322 
L 137.175877 309.052999 
L 137.395509 537.00252 
L 137.615141 477.928439 
L 137.834774 331.747275 
L 138.054406 375.456739 
L 138.274038 329.72428 
L 138.493671 368.75328 
L 138.713303 446.509619 
L 138.932935 458.381465 
L 139.152567 421.741234 
L 139.3722 488.031042 
L 139.591832 470.548821 
L 139.811464 507.210123 
L 140.031097 410.380991 
L 140.250729 415.994433 
L 140.470361 356.686161 
L 140.689993 521.97753 
L 140.909626 349.590847 
L 141.129258 424.280198 
L 141.568523 492.786258 
L 141.788155 374.414548 
L 142.666684 432.968073 
L 142.886316 469.695771 
L 143.105949 415.141056 
L 143.325581 398.047431 
L 143.545213 354.360644 
L 143.764845 417.38303 
L 143.984478 530.016363 
L 144.20411 476.615464 
L 144.423742 250.039278 
L 144.643375 447.843585 
L 144.863007 424.39246 
L 145.082639 544.295988 
L 145.302271 505.245864 
L 145.521904 414.009743 
L 145.741536 247.957533 
L 145.961168 494.89717 
L 146.400433 372.819806 
L 146.839697 425.057486 
L 147.05933 514.86267 
L 147.498594 385.648234 
L 147.718227 486.254483 
L 147.937859 313.680637 
L 148.157491 525.38764 
L 148.377123 483.553341 
L 148.816388 383.277442 
L 149.03602 370.603376 
L 149.255653 493.313274 
L 149.475285 468.054904 
L 149.694917 372.31087 
L 149.914549 353.488209 
L 150.134182 540.815289 
L 150.573446 426.217862 
L 150.793078 373.653044 
L 151.012711 399.657891 
L 151.232343 378.240354 
L 151.451975 535.381779 
L 151.671608 445.397351 
L 151.89124 401.894347 
L 152.110872 381.745959 
L 152.330504 409.369328 
L 152.550137 401.686353 
L 152.769769 358.196284 
L 152.989401 477.769787 
L 153.428666 399.74035 
L 153.648298 307.258462 
L 153.86793 536.788679 
L 154.087563 401.837453 
L 154.307195 438.310697 
L 154.526827 404.438104 
L 154.74646 482.100418 
L 154.966092 452.652955 
L 155.185724 539.16197 
L 155.405356 315.589673 
L 155.624989 421.101808 
L 155.844621 445.549886 
L 156.064253 451.620367 
L 156.283886 472.981945 
L 156.503518 398.080329 
L 156.72315 432.204007 
L 156.942782 518.351438 
L 157.382047 475.875071 
L 157.601679 297.508431 
L 157.821312 483.624297 
L 158.040944 474.710205 
L 158.260576 379.803969 
L 158.480208 416.063301 
L 158.699841 425.455947 
L 158.919473 495.121574 
L 159.139105 469.888945 
L 159.358738 457.572307 
L 159.798002 369.261156 
L 160.237267 323.129066 
L 160.456899 527.281152 
L 160.676531 426.302983 
L 160.896164 415.542378 
L 161.115796 397.95472 
L 161.335428 349.230513 
L 161.55506 444.691446 
L 161.774693 272.833161 
L 161.994325 432.217807 
L 162.213957 264.511173 
L 162.43359 365.074289 
L 163.092486 460.432545 
L 163.312119 388.804534 
L 163.531751 473.65055 
L 163.751383 363.139127 
L 163.971016 369.74043 
L 164.190648 290.118457 
L 164.41028 513.741474 
L 164.629912 502.391074 
L 164.849545 500.163235 
L 165.069177 480.478676 
L 165.288809 330.170049 
L 165.508441 455.39551 
L 165.728074 418.757142 
L 165.947706 436.895042 
L 166.167338 427.911401 
L 166.386971 398.947288 
L 166.606603 433.759006 
L 166.826235 434.464659 
L 167.045867 427.559394 
L 167.2655 463.087933 
L 167.485132 469.271962 
L 167.704764 239.944499 
L 167.924397 542.19915 
L 168.144029 422.650583 
L 168.363661 412.155657 
L 168.583293 509.918068 
L 168.802926 414.697435 
L 169.022558 484.398365 
L 169.24219 330.10077 
L 169.461823 513.038207 
L 169.681455 241.902433 
L 169.901087 366.319095 
L 170.120719 427.693655 
L 170.340352 433.119217 
L 170.559984 327.760283 
L 170.779616 476.099923 
L 170.999249 369.463125 
L 171.218881 467.010385 
L 171.438513 462.49698 
L 171.877778 377.632818 
L 172.09741 503.973354 
L 172.756307 381.328704 
L 172.975939 518.395508 
L 173.195571 403.584691 
L 173.415204 407.944399 
L 173.634836 384.819606 
L 173.854468 182.411597 
L 174.074101 237.029054 
L 174.293733 492.295882 
L 174.513365 451.036947 
L 174.732997 322.90286 
L 174.95263 492.131202 
L 175.172262 382.275279 
L 175.391894 399.565651 
L 175.611527 482.222197 
L 175.831159 371.568669 
L 176.050791 532.924719 
L 176.270423 495.766445 
L 176.490056 505.882201 
L 176.709688 314.925183 
L 177.148953 483.855693 
L 177.368585 442.747902 
L 177.588217 423.982548 
L 177.807849 485.467084 
L 178.027482 321.001692 
L 178.686379 488.361182 
L 178.906011 477.733195 
L 179.125643 393.535274 
L 179.564908 544.610407 
L 180.004172 424.394203 
L 180.223805 478.145705 
L 180.443437 277.303676 
L 180.663069 446.887765 
L 180.882701 400.75766 
L 181.102334 421.281903 
L 181.321966 373.125517 
L 181.541598 293.111299 
L 181.76123 350.192229 
L 181.980863 372.825117 
L 182.200495 457.457361 
L 182.420127 478.420764 
L 182.63976 522.438222 
L 182.859392 392.746899 
L 183.079024 399.106025 
L 183.518289 524.283952 
L 183.737921 428.395409 
L 183.957553 497.035367 
L 184.177186 460.745466 
L 184.396818 469.421831 
L 184.61645 514.806333 
L 184.836082 367.808114 
L 185.055715 346.320894 
L 185.275347 413.095778 
L 185.494979 253.413771 
L 185.714612 536.791027 
L 185.934244 411.492276 
L 186.153876 481.701775 
L 186.373508 494.137733 
L 186.593141 429.930972 
L 186.812773 448.534012 
L 187.032405 409.381507 
L 187.252038 483.889954 
L 187.47167 376.873828 
L 187.691302 433.42833 
L 187.910934 362.123036 
L 188.130567 446.279872 
L 188.350199 461.504516 
L 188.569831 401.713442 
L 188.789464 511.518741 
L 189.009096 416.219493 
L 189.44836 515.66242 
L 189.667993 462.367447 
L 189.887625 486.182874 
L 190.107257 457.970549 
L 190.32689 458.856265 
L 190.546522 470.930143 
L 190.766154 288.237482 
L 190.985786 490.785404 
L 191.205419 414.101814 
L 191.425051 388.591597 
L 191.644683 480.539511 
L 191.864316 444.419699 
L 192.083948 356.77418 
L 192.523212 410.46454 
L 192.742845 225.216361 
L 193.182109 532.33955 
L 193.401742 416.583039 
L 193.621374 378.136412 
L 193.841006 419.310998 
L 194.060638 438.214324 
L 194.280271 310.445452 
L 194.499903 386.24044 
L 194.719535 409.008023 
L 194.939168 472.442502 
L 195.1588 427.481098 
L 195.378432 351.577017 
L 195.598064 509.361571 
L 195.817697 443.473504 
L 196.037329 489.253823 
L 196.256961 506.929532 
L 196.476593 375.671609 
L 197.13549 509.014295 
L 197.355123 400.514176 
L 197.574755 454.7785 
L 197.794387 144.531641 
L 198.233652 456.213452 
L 198.453284 462.528111 
L 198.672916 374.105646 
L 198.892549 187.021639 
L 199.112181 424.43807 
L 199.331813 364.470164 
L 199.551445 440.463986 
L 199.771078 385.316397 
L 199.99071 479.154014 
L 200.429975 426.063895 
L 200.649607 385.13516 
L 200.869239 376.903188 
L 201.088871 529.140732 
L 201.308504 403.946902 
L 201.528136 427.966314 
L 201.747768 423.855692 
L 201.967401 437.791812 
L 202.187033 549.663542 
L 202.406665 309.452757 
L 202.626297 357.682368 
L 202.84593 447.823311 
L 203.065562 448.076841 
L 203.285194 440.923535 
L 203.504827 488.860671 
L 203.724459 490.197037 
L 203.944091 182.878578 
L 204.163723 416.738007 
L 204.383356 418.474038 
L 204.602988 444.072703 
L 204.82262 429.189441 
L 205.042253 538.344024 
L 205.261885 384.621216 
L 205.481517 457.72368 
L 205.701149 461.787186 
L 206.140414 303.368561 
L 206.360046 411.109946 
L 206.579679 423.505229 
L 206.799311 323.597708 
L 207.018943 471.211037 
L 207.238575 508.327296 
L 207.67784 304.633291 
L 208.336737 553.882977 
L 208.556369 517.742435 
L 208.776001 524.76137 
L 208.995634 489.940076 
L 209.215266 491.613882 
L 209.434898 497.463649 
L 209.654531 479.694469 
L 209.874163 370.454219 
L 210.093795 353.556122 
L 210.53306 495.269284 
L 210.752692 419.720132 
L 210.972324 452.549474 
L 211.191956 357.701616 
L 211.411589 514.443827 
L 211.631221 450.508985 
L 211.850853 429.390604 
L 212.070486 395.925442 
L 212.290118 481.397895 
L 212.50975 443.375474 
L 212.729382 454.243776 
L 212.949015 489.398107 
L 213.388279 511.020425 
L 213.607912 305.947636 
L 213.827544 384.284188 
L 214.047176 333.319093 
L 214.266808 437.726928 
L 214.486441 428.544176 
L 214.925705 354.683565 
L 215.145338 508.295422 
L 215.36497 444.379321 
L 215.584602 536.593131 
L 215.804234 438.530605 
L 216.023867 486.473286 
L 216.243499 468.355735 
L 216.463131 422.334728 
L 216.682764 332.920894 
L 216.902396 384.927713 
L 217.122028 580.503039 
L 217.34166 454.541835 
L 217.561293 455.896459 
L 217.780925 481.973055 
L 218.000557 360.680148 
L 218.22019 384.603762 
L 218.439822 341.712446 
L 218.659454 250.548171 
L 218.879086 353.131877 
L 219.098719 344.703332 
L 219.318351 513.715848 
L 219.537983 483.846241 
L 219.977248 375.85277 
L 220.19688 449.17273 
L 220.416512 449.925016 
L 220.636145 456.712183 
L 220.855777 361.763156 
L 221.075409 430.874808 
L 221.295042 392.564038 
L 221.514674 446.216897 
L 221.953938 475.065438 
L 222.173571 496.619453 
L 222.393203 377.312338 
L 222.612835 515.643538 
L 222.832468 394.31703 
L 223.0521 338.497534 
L 223.271732 356.114894 
L 223.491364 436.485551 
L 223.710997 235.131351 
L 223.930629 545.868864 
L 224.150261 559.147136 
L 224.369894 434.269209 
L 224.589526 387.740374 
L 224.809158 370.602328 
L 225.02879 446.856498 
L 225.248423 410.116511 
L 225.468055 482.628265 
L 225.687687 259.661606 
L 225.90732 159.022982 
L 226.126952 344.866759 
L 226.346584 433.411303 
L 226.566216 442.443734 
L 226.785849 261.720869 
L 227.005481 414.584576 
L 227.444745 251.052266 
L 227.664378 452.366209 
L 227.88401 382.526867 
L 228.103642 502.653787 
L 228.323275 456.554603 
L 228.542907 435.304154 
L 228.762539 473.429308 
L 228.982171 453.838936 
L 229.201804 469.893435 
L 229.421436 304.102042 
L 229.860701 508.935574 
L 230.080333 354.375999 
L 230.299965 417.040028 
L 230.519597 414.240363 
L 230.958862 131.763818 
L 231.178494 455.514545 
L 231.398127 358.27225 
L 231.837391 467.081196 
L 232.057023 397.611775 
L 232.276656 472.893362 
L 232.496288 467.478605 
L 232.71592 354.636886 
L 232.935553 450.079976 
L 233.155185 452.362016 
L 233.374817 449.406941 
L 233.594449 462.815925 
L 233.814082 381.685976 
L 234.033714 421.924911 
L 234.253346 367.63885 
L 234.472979 366.657187 
L 234.692611 503.846021 
L 234.912243 516.505286 
L 235.131875 419.99296 
L 235.57114 471.422922 
L 236.010405 404.463045 
L 236.230037 479.774842 
L 236.449669 442.435908 
L 236.669301 478.598449 
L 236.888934 318.85744 
L 237.108566 345.725247 
L 237.328198 322.455024 
L 237.547831 530.83628 
L 237.767463 395.149517 
L 237.987095 386.026975 
L 238.206727 420.545627 
L 238.42636 523.949753 
L 238.645992 408.905985 
L 238.865624 464.738918 
L 239.085257 489.736949 
L 239.304889 460.921425 
L 239.524521 386.878696 
L 239.744153 405.411898 
L 239.963786 398.107652 
L 240.183418 442.449821 
L 240.40305 401.119183 
L 240.622683 283.223562 
L 240.842315 433.071218 
L 241.061947 359.090451 
L 241.281579 355.960327 
L 241.501212 477.532434 
L 241.720844 384.618198 
L 241.940476 479.524574 
L 242.160108 497.154758 
L 242.379741 480.574073 
L 242.599373 359.617945 
L 242.819005 387.535574 
L 243.038638 353.422489 
L 243.25827 463.790659 
L 243.477902 498.535013 
L 243.697534 424.551692 
L 243.917167 405.682902 
L 244.136799 509.936211 
L 244.356431 505.987922 
L 244.576064 514.000304 
L 244.795696 356.23504 
L 245.23496 403.863281 
L 245.454593 516.683494 
L 245.674225 547.491443 
L 245.893857 421.670302 
L 246.11349 531.451333 
L 246.333122 465.65053 
L 246.772386 552.715072 
L 246.992019 371.1584 
L 247.211651 392.953079 
L 247.431283 454.310508 
L 247.650916 476.777461 
L 247.870548 413.316127 
L 248.09018 435.595981 
L 248.309812 184.928117 
L 248.749077 365.022534 
L 248.968709 309.225012 
L 249.188342 535.243862 
L 249.407974 470.9141 
L 249.627606 364.587488 
L 249.847238 421.073261 
L 250.066871 444.314733 
L 250.286503 502.86935 
L 250.506135 524.344637 
L 250.725768 402.645164 
L 251.165032 453.224159 
L 251.384664 390.733492 
L 251.604297 379.740208 
L 251.823929 399.049929 
L 252.043561 375.389207 
L 252.263194 444.738033 
L 252.482826 437.511387 
L 252.702458 238.688363 
L 252.92209 543.357618 
L 253.141723 354.592713 
L 253.361355 355.899428 
L 253.580987 449.73358 
L 254.020252 542.33024 
L 254.239884 508.025446 
L 254.459516 390.859409 
L 254.679149 508.556992 
L 254.898781 379.783799 
L 255.118413 483.174703 
L 255.338046 256.470644 
L 255.557678 498.946593 
L 255.996942 420.665569 
L 256.216575 413.832664 
L 256.436207 441.784188 
L 256.655839 315.643913 
L 256.875472 440.004146 
L 257.095104 402.88622 
L 257.314736 392.230791 
L 257.534368 391.81056 
L 257.754001 496.364328 
L 257.973633 495.907882 
L 258.193265 480.817085 
L 258.412897 521.119715 
L 258.63253 432.099714 
L 258.852162 485.662904 
L 259.071794 276.85624 
L 259.291427 427.593422 
L 259.511059 418.45312 
L 259.730691 533.564741 
L 259.950323 334.168063 
L 260.169956 337.834373 
L 260.389588 506.124815 
L 260.60922 521.448175 
L 260.828853 511.211831 
L 261.048485 422.221345 
L 261.268117 453.27652 
L 261.487749 500.952238 
L 261.707382 343.3075 
L 261.927014 407.027723 
L 262.146646 434.573997 
L 262.366279 504.569886 
L 262.585911 469.651645 
L 262.805543 393.427515 
L 263.025175 399.763079 
L 263.244808 428.126955 
L 263.46444 368.121426 
L 263.684072 487.108737 
L 264.123337 319.856885 
L 264.342969 475.005974 
L 264.562601 397.424512 
L 264.782234 457.131064 
L 265.001866 323.839237 
L 265.221498 492.928781 
L 265.441131 484.190177 
L 265.660763 490.075262 
L 265.880395 521.517442 
L 266.100027 477.297584 
L 266.31966 328.773813 
L 266.539292 445.452101 
L 266.758924 451.295134 
L 266.978557 417.803085 
L 267.198189 413.94496 
L 267.417821 418.0673 
L 267.637453 355.136175 
L 267.857086 556.199103 
L 268.076718 410.554909 
L 268.29635 388.554352 
L 268.515983 460.419306 
L 268.735615 424.659948 
L 268.955247 493.842832 
L 269.174879 348.899283 
L 269.394512 441.625232 
L 269.614144 470.206479 
L 269.833776 452.814522 
L 270.053409 479.423017 
L 270.273041 413.011351 
L 270.492673 468.555218 
L 270.712305 310.122625 
L 270.931938 473.444012 
L 271.15157 483.918133 
L 271.371202 522.134468 
L 271.590835 371.619807 
L 271.810467 458.343124 
L 272.249731 513.888018 
L 272.469364 377.930557 
L 272.688996 537.216333 
L 272.908628 454.3798 
L 273.12826 474.375124 
L 273.347893 392.753963 
L 273.567525 430.459642 
L 273.787157 154.841557 
L 274.00679 359.907711 
L 274.226422 404.40062 
L 274.446054 484.690526 
L 274.665686 444.08995 
L 274.885319 370.476754 
L 275.104951 461.016817 
L 275.544216 416.264325 
L 275.763848 377.3025 
L 275.98348 484.255481 
L 276.203112 477.199986 
L 276.422745 395.507987 
L 276.642377 480.081814 
L 276.862009 393.900956 
L 277.081642 510.409613 
L 277.301274 467.409067 
L 277.520906 365.596918 
L 277.740538 416.00057 
L 277.960171 504.452056 
L 278.619068 448.373022 
L 278.8387 495.228711 
L 279.058332 406.805341 
L 279.277964 495.711665 
L 279.497597 351.272771 
L 279.717229 449.560345 
L 279.936861 345.721504 
L 280.156494 457.734171 
L 280.376126 297.939186 
L 280.81539 441.665884 
L 281.035023 477.111982 
L 281.254655 313.309472 
L 281.474287 361.953256 
L 281.69392 314.261285 
L 282.133184 506.388276 
L 282.352816 152.282683 
L 282.572449 416.179365 
L 282.792081 352.006424 
L 283.011713 476.422987 
L 283.231346 476.147814 
L 283.450978 385.462001 
L 283.67061 347.957452 
L 283.890242 396.80946 
L 284.109875 504.610788 
L 284.329507 455.975806 
L 284.549139 488.696806 
L 284.768772 445.29285 
L 284.988404 434.37242 
L 285.208036 403.284322 
L 285.427668 389.409833 
L 285.647301 348.146247 
L 285.866933 440.507859 
L 286.086565 342.524726 
L 286.52583 434.027412 
L 286.745462 447.967024 
L 286.965094 476.167823 
L 287.184727 476.830502 
L 287.623991 338.282075 
L 287.843624 417.213224 
L 288.063256 538.491354 
L 288.282888 373.367353 
L 288.50252 448.784956 
L 288.722153 369.332483 
L 288.941785 450.445279 
L 289.161417 290.815542 
L 289.381049 391.964125 
L 289.600682 436.991251 
L 289.820314 432.335437 
L 290.039946 476.262269 
L 290.259579 358.70539 
L 290.479211 401.767105 
L 290.698843 479.063109 
L 290.918475 445.601407 
L 291.138108 440.057327 
L 291.35774 496.989966 
L 291.577372 424.230675 
L 291.797005 256.066209 
L 292.016637 321.641406 
L 292.236269 471.933961 
L 292.455901 375.805839 
L 292.895166 446.491315 
L 293.114798 468.497048 
L 293.334431 388.732203 
L 293.554063 466.3271 
L 293.773695 445.841039 
L 293.993327 492.701392 
L 294.21296 317.592089 
L 294.432592 386.916493 
L 294.652224 497.042942 
L 294.871857 533.237264 
L 295.091489 425.449202 
L 295.311121 446.773808 
L 295.530753 424.747666 
L 295.750386 494.360689 
L 295.970018 480.635775 
L 296.18965 441.062913 
L 296.409283 449.06881 
L 296.628915 372.263869 
L 296.848547 411.7247 
L 297.068179 294.181399 
L 297.287812 403.932074 
L 297.507444 398.394895 
L 297.946709 278.434541 
L 298.385973 482.605839 
L 299.04487 342.369523 
L 299.264502 375.081014 
L 299.484135 437.069241 
L 299.923399 498.781781 
L 300.143031 357.679174 
L 300.362664 403.336245 
L 300.582296 205.912492 
L 301.021561 462.644915 
L 301.241193 239.848927 
L 301.460825 426.015495 
L 301.680457 426.770019 
L 301.90009 455.207862 
L 302.119722 393.462023 
L 302.339354 406.797092 
L 302.558987 519.708377 
L 302.778619 321.918822 
L 302.998251 378.35267 
L 303.217883 397.584278 
L 303.437516 343.784856 
L 303.657148 507.712046 
L 303.87678 457.068794 
L 304.096412 377.46657 
L 304.316045 385.647796 
L 304.535677 309.004435 
L 304.755309 532.394833 
L 304.974942 411.333319 
L 305.194574 385.646712 
L 305.414206 423.205297 
L 305.633838 390.952327 
L 305.853471 440.1078 
L 306.073103 403.682116 
L 306.292735 348.118681 
L 306.732 461.308222 
L 307.171264 476.135065 
L 307.390897 434.700044 
L 307.610529 541.255019 
L 307.830161 282.930322 
L 308.049794 531.174169 
L 308.269426 534.970088 
L 308.489058 407.637659 
L 308.70869 462.57261 
L 308.928323 437.718888 
L 309.147955 479.056464 
L 309.367587 362.258922 
L 309.58722 348.725203 
L 309.806852 424.800369 
L 310.026484 283.773453 
L 310.246116 327.22302 
L 310.465749 344.756321 
L 310.685381 324.17028 
L 310.905013 475.277154 
L 311.124646 416.184549 
L 311.344278 509.50785 
L 311.56391 509.311341 
L 312.222807 392.318204 
L 312.442439 444.03175 
L 312.662072 423.751106 
L 312.881704 435.9437 
L 313.320968 488.148816 
L 313.540601 367.02349 
L 313.979865 363.409118 
L 314.199498 331.42866 
L 314.41913 455.544139 
L 314.638762 465.534321 
L 315.078027 418.508279 
L 315.297659 513.371146 
L 315.517291 441.844329 
L 315.956556 547.626725 
L 316.176188 378.303318 
L 316.39582 327.261633 
L 316.615453 454.101858 
L 317.054717 312.309214 
L 317.27435 515.297156 
L 317.713614 350.707747 
L 317.933246 386.201943 
L 318.152879 452.63328 
L 318.372511 361.693836 
L 318.592143 436.77013 
L 318.811775 363.841974 
L 319.031408 494.32294 
L 319.25104 419.657466 
L 319.470672 471.664947 
L 319.690305 431.0114 
L 319.909937 321.6613 
L 320.129569 395.907238 
L 320.349201 399.897731 
L 320.568834 433.027888 
L 320.788466 436.590586 
L 321.008098 415.46226 
L 321.227731 442.157123 
L 321.447363 289.957105 
L 321.666995 504.229789 
L 321.886627 387.232333 
L 322.10626 346.041289 
L 322.325892 480.964698 
L 322.545524 518.969504 
L 322.765157 481.810696 
L 322.984789 395.967585 
L 323.204421 354.101862 
L 323.424053 440.827679 
L 323.643686 351.826942 
L 323.863318 380.996233 
L 324.08295 481.213411 
L 324.302583 423.219459 
L 324.522215 545.431895 
L 324.741847 336.655012 
L 324.961479 414.212123 
L 325.181112 435.066652 
L 325.400744 477.199559 
L 325.840009 348.674449 
L 326.059641 493.7744 
L 326.279273 368.394361 
L 326.498905 349.411228 
L 326.718538 415.963558 
L 326.93817 404.936218 
L 327.157802 522.043495 
L 327.377435 401.050946 
L 327.597067 509.099385 
L 327.816699 367.717391 
L 328.036331 431.232562 
L 328.255964 448.764437 
L 328.475596 383.292051 
L 328.914861 479.297683 
L 329.134493 377.443152 
L 329.354125 396.489692 
L 329.573757 513.931356 
L 329.79339 395.773343 
L 330.013022 396.974562 
L 330.232654 437.474057 
L 330.452287 509.929642 
L 330.671919 455.764472 
L 330.891551 483.111153 
L 331.330816 339.464926 
L 331.550448 463.199574 
L 331.77008 420.409905 
L 331.989713 527.232802 
L 332.209345 289.82407 
L 332.428977 331.703514 
L 332.648609 502.21833 
L 332.868242 529.649611 
L 333.087874 470.965254 
L 333.307506 369.512577 
L 333.527139 391.108927 
L 333.746771 459.106682 
L 333.966403 428.931235 
L 334.186035 419.607721 
L 334.405668 364.063138 
L 334.6253 482.744648 
L 334.844932 312.928419 
L 335.064564 358.883894 
L 335.284197 358.525255 
L 335.503829 397.900597 
L 335.723461 332.533283 
L 335.943094 450.143613 
L 336.162726 457.204555 
L 336.382358 543.268886 
L 336.60199 434.184728 
L 336.821623 417.295208 
L 337.041255 489.968721 
L 337.260887 492.183522 
L 337.48052 423.538832 
L 337.700152 424.511713 
L 338.139416 272.273988 
L 338.359049 143.953741 
L 338.578681 398.657935 
L 338.798313 382.610096 
L 339.017946 453.503173 
L 339.237578 462.53491 
L 339.45721 424.927933 
L 339.676842 330.662825 
L 339.896475 497.76619 
L 340.116107 459.790513 
L 340.335739 480.954493 
L 340.775004 287.555094 
L 340.994636 434.545766 
L 341.214268 489.742807 
L 341.433901 514.046331 
L 341.653533 461.218486 
L 342.092798 488.422567 
L 342.532062 337.888296 
L 342.751694 377.416089 
L 342.971327 305.338276 
L 343.190959 482.257529 
L 343.410591 480.320977 
L 343.630224 538.456301 
L 343.849856 460.976709 
L 344.069488 451.262531 
L 344.508753 484.041686 
L 344.728385 439.350104 
L 344.948017 348.363867 
L 345.16765 384.14871 
L 345.387282 498.933583 
L 345.606914 393.932883 
L 345.826546 420.317078 
L 346.265811 526.64206 
L 346.485443 498.42382 
L 346.705076 299.262743 
L 346.924708 446.974559 
L 347.14434 383.267712 
L 347.363972 493.893221 
L 347.583605 364.717099 
L 347.803237 324.169269 
L 348.022869 310.796691 
L 348.242502 379.180847 
L 348.462134 359.016579 
L 348.681766 474.634808 
L 348.901398 427.78486 
L 349.121031 445.870076 
L 349.340663 403.660481 
L 349.560295 392.94725 
L 349.779927 478.142496 
L 349.99956 337.43736 
L 350.219192 352.97012 
L 350.658457 553.086848 
L 350.878089 532.929779 
L 351.097721 371.833 
L 351.317353 448.261889 
L 351.536986 448.015336 
L 351.756618 508.763589 
L 351.97625 513.856561 
L 352.195883 321.685862 
L 352.415515 270.629418 
L 352.635147 493.019365 
L 352.854779 560.71312 
L 353.074412 417.873155 
L 353.294044 170.912229 
L 353.513676 496.992946 
L 353.733309 429.342524 
L 353.952941 524.133115 
L 354.172573 496.770415 
L 354.392205 254.066816 
L 354.611838 518.259474 
L 354.83147 558.527622 
L 355.051102 443.245679 
L 355.270735 416.909665 
L 355.490367 481.844423 
L 355.709999 498.783371 
L 356.368896 353.320767 
L 356.588528 492.65015 
L 356.808161 419.29323 
L 357.027793 497.478759 
L 357.247425 426.492299 
L 357.68669 543.076353 
L 357.906322 526.789812 
L 358.125954 406.812022 
L 358.345587 495.701573 
L 358.565219 488.039609 
L 359.004483 446.258855 
L 359.224116 448.861612 
L 359.443748 472.836829 
L 359.66338 449.650517 
L 359.883013 267.89183 
L 360.541909 521.485592 
L 360.761542 439.954242 
L 360.981174 408.65406 
L 361.200806 526.896561 
L 361.420439 396.796611 
L 361.640071 433.251445 
L 361.859703 440.235776 
L 362.079335 512.742798 
L 362.298968 520.829379 
L 362.5186 347.403584 
L 362.738232 494.836876 
L 362.957865 505.865734 
L 363.177497 478.046671 
L 363.397129 509.255056 
L 363.616761 375.396277 
L 363.836394 381.56762 
L 364.056026 467.404583 
L 364.275658 291.785168 
L 364.495291 414.379332 
L 364.714923 235.39193 
L 364.934555 438.79232 
L 365.154187 413.037855 
L 365.37382 489.694395 
L 365.593452 410.863264 
L 365.813084 449.242285 
L 366.032716 329.089484 
L 366.252349 466.120893 
L 366.471981 470.8376 
L 366.691613 338.575192 
L 366.911246 415.094269 
L 367.130878 374.311462 
L 367.35051 490.421031 
L 367.570142 379.714896 
L 367.789775 415.597359 
L 368.009407 399.899781 
L 368.229039 463.56968 
L 368.448672 375.483217 
L 368.668304 500.17942 
L 368.887936 381.551034 
L 369.107568 343.746515 
L 369.327201 448.324056 
L 369.546833 423.885753 
L 369.766465 304.54957 
L 369.986098 400.239009 
L 370.20573 371.747154 
L 370.425362 377.152046 
L 370.644994 509.943553 
L 370.864627 340.133347 
L 371.084259 449.478708 
L 371.303891 454.639295 
L 371.523524 429.749165 
L 371.743156 438.860065 
L 371.962788 415.115412 
L 372.18242 554.835751 
L 372.402053 437.499787 
L 372.621685 453.867773 
L 372.841317 488.824312 
L 373.06095 473.833149 
L 373.280582 437.173355 
L 373.500214 550.938081 
L 373.719846 426.11281 
L 373.939479 486.77641 
L 374.378743 374.994789 
L 374.598376 448.723033 
L 374.818008 335.34377 
L 375.03764 461.947838 
L 375.257272 366.34778 
L 375.476905 379.33817 
L 375.696537 383.072138 
L 375.916169 450.565138 
L 376.135802 428.715017 
L 376.355434 309.941775 
L 376.575066 523.38915 
L 376.794698 441.100222 
L 377.014331 449.253823 
L 377.233963 444.174521 
L 377.453595 502.034884 
L 377.673228 431.844897 
L 377.89286 531.079759 
L 378.112492 406.380167 
L 378.332124 518.088115 
L 378.551757 426.481972 
L 378.771389 473.709496 
L 378.991021 445.611318 
L 379.210654 463.129216 
L 379.86955 417.264158 
L 380.308815 510.41233 
L 380.528447 469.089963 
L 380.748079 389.105434 
L 380.967712 427.074382 
L 381.187344 339.880925 
L 381.406976 440.954554 
L 381.626609 443.890071 
L 381.846241 464.156725 
L 382.065873 389.787627 
L 382.285505 479.717837 
L 382.505138 410.837046 
L 382.72477 394.062587 
L 382.944402 494.681351 
L 383.164035 351.15564 
L 383.603299 438.916162 
L 383.822931 447.416714 
L 384.042564 265.7177 
L 384.262196 475.365137 
L 384.481828 321.522448 
L 384.921093 505.279961 
L 385.140725 502.485299 
L 385.360357 446.356367 
L 385.799622 483.502972 
L 386.238887 315.717072 
L 386.678151 477.166216 
L 386.897783 461.840032 
L 387.117416 405.99851 
L 387.337048 440.186891 
L 387.55668 397.001003 
L 387.776313 324.00288 
L 387.995945 356.076506 
L 388.215577 371.570944 
L 388.435209 528.683703 
L 388.654842 515.651232 
L 388.874474 412.473634 
L 389.094106 493.224708 
L 389.313739 450.717005 
L 389.533371 531.926408 
L 389.753003 542.393902 
L 389.972635 417.181511 
L 390.192268 388.247526 
L 390.4119 494.667165 
L 390.631532 414.288858 
L 390.851165 402.770105 
L 391.070797 529.214019 
L 391.290429 441.706208 
L 391.510061 489.249092 
L 391.729694 446.171782 
L 391.949326 519.608075 
L 392.168958 379.995406 
L 392.388591 515.52689 
L 392.608223 454.211514 
L 392.827855 460.980934 
L 393.047487 392.231596 
L 393.26712 485.068532 
L 393.486752 427.174648 
L 393.706384 542.468963 
L 393.926017 415.89159 
L 394.145649 477.763744 
L 394.365281 488.942488 
L 394.584913 360.209472 
L 394.804546 407.706574 
L 395.024178 402.322026 
L 395.24381 526.487406 
L 395.683075 450.647574 
L 395.902707 338.996839 
L 396.122339 514.441766 
L 396.341972 451.745983 
L 396.561604 160.230233 
L 396.781236 416.578552 
L 397.000868 324.126085 
L 397.220501 354.816324 
L 397.440133 459.35823 
L 397.879398 355.37759 
L 398.09903 412.825029 
L 398.318662 416.215166 
L 398.538294 513.161237 
L 398.757927 423.726675 
L 398.977559 404.78516 
L 399.197191 409.800905 
L 399.416824 390.291844 
L 399.636456 316.624495 
L 399.856088 442.44028 
L 400.07572 467.964037 
L 400.295353 440.686282 
L 400.514985 429.134278 
L 400.734617 393.945933 
L 400.95425 424.624965 
L 401.173882 486.730493 
L 401.393514 394.972067 
L 401.613146 468.31928 
L 401.832779 504.484064 
L 402.272043 445.754671 
L 402.491676 465.092852 
L 402.93094 338.01184 
L 403.370205 516.829304 
L 403.589837 433.030432 
L 403.809469 429.571065 
L 404.029102 469.927012 
L 404.248734 292.343519 
L 404.468366 469.410573 
L 404.687998 556.662255 
L 404.907631 337.663213 
L 405.127263 453.058299 
L 405.346895 346.658722 
L 405.566528 364.167588 
L 405.78616 488.481582 
L 406.005792 425.241644 
L 406.225424 446.012395 
L 406.445057 264.440514 
L 406.664689 386.158704 
L 406.884321 378.308565 
L 407.103954 240.737309 
L 407.323586 439.939517 
L 407.543218 425.760196 
L 407.76285 424.48166 
L 407.982483 424.754964 
L 408.202115 394.621532 
L 408.421747 400.913 
L 408.64138 453.500979 
L 408.861012 431.377443 
L 409.080644 304.912896 
L 409.739541 510.782698 
L 409.959173 502.889969 
L 410.178806 385.250992 
L 410.398438 520.749693 
L 410.61807 491.715266 
L 410.837702 432.896473 
L 411.057335 458.942528 
L 411.276967 435.700994 
L 411.496599 441.555631 
L 411.716231 464.876565 
L 411.935864 422.197631 
L 412.155496 430.897283 
L 412.375128 381.680022 
L 412.594761 410.91261 
L 412.814393 483.94799 
L 413.034025 411.11408 
L 413.253657 479.68417 
L 413.47329 508.246304 
L 413.692922 517.445089 
L 413.912554 498.512392 
L 414.132187 400.336082 
L 414.351819 466.287267 
L 414.571451 317.017098 
L 414.791083 415.26138 
L 415.010716 281.193047 
L 415.230348 447.934658 
L 415.44998 409.336109 
L 415.669613 404.670007 
L 416.108877 428.1779 
L 416.328509 425.780599 
L 416.548142 442.373405 
L 416.767774 468.982451 
L 416.987406 354.680587 
L 417.207039 520.740521 
L 417.426671 470.835045 
L 417.646303 528.581695 
L 417.865935 373.779293 
L 418.085568 356.630906 
L 418.3052 523.525246 
L 418.524832 314.784164 
L 418.744465 500.819732 
L 418.964097 498.896535 
L 419.183729 417.49663 
L 419.403361 506.7065 
L 419.622994 550.322549 
L 419.842626 494.758476 
L 420.062258 391.348514 
L 420.281891 381.376274 
L 420.721155 502.271563 
L 420.940787 432.368473 
L 421.16042 412.864184 
L 421.380052 478.211806 
L 421.599684 455.334991 
L 421.819317 370.081163 
L 422.038949 415.718746 
L 422.258581 499.527672 
L 422.478213 309.02157 
L 422.917478 416.207586 
L 423.13711 514.359549 
L 423.356743 414.255576 
L 423.576375 491.929695 
L 423.796007 254.905482 
L 424.015639 418.375159 
L 424.235272 403.375202 
L 424.454904 453.332786 
L 424.674536 551.28742 
L 425.113801 378.247001 
L 425.333433 434.516993 
L 425.553065 405.809401 
L 425.772698 292.475512 
L 426.431594 510.641118 
L 426.651227 378.56477 
L 426.870859 400.951064 
L 427.090491 189.252679 
L 427.310124 486.589162 
L 427.529756 461.02549 
L 427.749388 485.64702 
L 427.96902 530.583946 
L 428.408285 418.677584 
L 428.627917 212.044977 
L 429.067182 489.003826 
L 429.286814 439.683363 
L 429.506446 453.188105 
L 429.726079 453.030805 
L 429.945711 474.804201 
L 430.165343 292.61121 
L 430.384976 432.571284 
L 430.604608 305.635124 
L 430.82424 431.949826 
L 431.043872 430.261682 
L 431.263505 407.287461 
L 431.483137 319.850034 
L 431.922402 492.050416 
L 432.142034 388.837306 
L 432.361666 457.383501 
L 432.581298 455.986706 
L 432.800931 308.656598 
L 433.020563 313.287591 
L 433.240195 522.078561 
L 433.459828 428.311841 
L 433.67946 477.632841 
L 433.899092 455.927791 
L 434.118724 400.377028 
L 434.338357 441.805581 
L 434.557989 397.349723 
L 434.777621 301.006141 
L 434.997254 316.236559 
L 435.216886 483.677181 
L 435.436518 271.97698 
L 435.65615 417.19088 
L 435.875783 459.246685 
L 436.095415 363.994561 
L 436.315047 421.676846 
L 436.53468 430.608515 
L 436.754312 430.968933 
L 437.193576 374.288653 
L 437.413209 380.159816 
L 437.632841 480.534584 
L 437.852473 509.22569 
L 438.072106 335.864099 
L 438.291738 453.981328 
L 438.51137 480.731907 
L 438.731002 464.960853 
L 438.950635 482.220076 
L 439.170267 359.543021 
L 439.609532 446.395596 
L 439.829164 379.395118 
L 440.048796 520.164595 
L 440.268428 528.739346 
L 440.488061 499.432639 
L 440.927325 382.509225 
L 441.146958 402.66688 
L 441.36659 345.179843 
L 441.805854 469.332201 
L 442.025487 395.60625 
L 442.245119 360.868479 
L 442.464751 229.687602 
L 442.684383 528.056837 
L 442.904016 539.21605 
L 443.123648 414.646881 
L 443.34328 525.346247 
L 443.562913 543.226291 
L 444.002177 406.976998 
L 444.221809 403.802338 
L 444.441442 417.476936 
L 444.661074 410.966872 
L 444.880706 429.119718 
L 445.100339 346.022155 
L 445.539603 491.748832 
L 445.759235 413.162858 
L 445.978868 484.617238 
L 446.1985 474.873916 
L 446.418132 406.327946 
L 446.857397 495.707695 
L 447.077029 380.080701 
L 447.296661 433.178035 
L 447.516294 258.87597 
L 447.735926 469.293448 
L 447.955558 374.477228 
L 448.175191 417.958893 
L 448.394823 324.939732 
L 448.614455 384.08043 
L 448.834087 349.904094 
L 449.05372 391.313701 
L 449.273352 519.734721 
L 449.492984 397.461983 
L 449.712617 398.185779 
L 450.151881 259.194165 
L 450.371513 501.364523 
L 450.810778 375.671449 
L 451.03041 278.788799 
L 451.250043 336.980549 
L 451.469675 497.231822 
L 451.908939 558.060197 
L 452.128572 404.75381 
L 452.348204 467.89024 
L 452.567836 399.711076 
L 452.787469 456.50227 
L 453.007101 433.451132 
L 453.226733 487.247544 
L 453.446365 473.61413 
L 453.88563 421.740465 
L 454.324895 393.125891 
L 454.544527 518.05349 
L 454.764159 416.032039 
L 455.203424 422.792611 
L 455.423056 500.890783 
L 455.642688 414.873013 
L 455.862321 386.554868 
L 456.081953 434.165336 
L 456.301585 338.248731 
L 456.521217 352.649635 
L 456.74085 461.84583 
L 456.960482 425.024014 
L 457.180114 262.238404 
L 457.619379 362.570941 
L 457.839011 522.268018 
L 458.058643 300.587805 
L 458.278276 383.164086 
L 458.497908 276.941154 
L 458.71754 401.443323 
L 458.937172 428.143172 
L 459.156805 376.600974 
L 459.376437 380.412561 
L 459.596069 454.378674 
L 459.815702 431.485694 
L 460.035334 467.844136 
L 460.474598 365.493318 
L 460.694231 454.400121 
L 460.913863 403.709835 
L 461.133495 500.341807 
L 461.353128 306.327434 
L 461.57276 459.4539 
L 461.792392 465.880047 
L 462.012024 521.457665 
L 462.451289 377.017037 
L 462.670921 371.224986 
L 462.890554 401.696889 
L 463.110186 487.799839 
L 463.329818 467.771728 
L 463.54945 537.9783 
L 463.769083 375.758407 
L 463.988715 433.832365 
L 464.208347 422.417996 
L 464.42798 489.510804 
L 464.647612 416.675478 
L 464.867244 458.394011 
L 465.086876 438.05457 
L 465.306509 483.698557 
L 465.745773 429.673963 
L 465.965406 495.677969 
L 466.185038 500.332867 
L 466.40467 551.727861 
L 466.843935 345.038807 
L 467.063567 437.818987 
L 467.283199 382.785559 
L 467.722464 404.024794 
L 467.942096 459.861027 
L 468.161728 383.062629 
L 468.381361 411.892888 
L 468.600993 400.660774 
L 469.040258 535.804053 
L 469.25989 403.847264 
L 469.479522 422.935113 
L 469.699154 297.562 
L 469.918787 444.769541 
L 470.138419 410.285442 
L 470.358051 518.219883 
L 470.577684 424.561297 
L 471.016948 486.521468 
L 471.23658 412.360472 
L 471.456213 437.398639 
L 471.675845 502.230817 
L 471.895477 386.672451 
L 472.11511 440.467553 
L 472.334742 323.875575 
L 472.554374 415.186684 
L 472.774006 357.392846 
L 472.993639 440.994707 
L 473.213271 378.347666 
L 473.432903 500.638852 
L 473.652535 460.315624 
L 473.872168 384.053919 
L 474.0918 409.873369 
L 474.531065 549.409563 
L 474.750697 358.946857 
L 474.970329 546.104583 
L 475.189961 428.208482 
L 475.409594 524.17922 
L 475.629226 474.91702 
L 475.848858 340.916432 
L 476.068491 421.53576 
L 476.288123 457.801264 
L 476.507755 350.446405 
L 476.727387 317.771713 
L 476.94702 471.798797 
L 477.166652 471.925485 
L 477.386284 386.105726 
L 477.605917 348.651897 
L 477.825549 278.827965 
L 478.045181 383.858614 
L 478.264813 379.539534 
L 478.484446 459.40369 
L 478.704078 418.828552 
L 478.92371 270.213815 
L 479.143343 502.715899 
L 479.362975 499.641437 
L 479.582607 427.760484 
L 479.802239 507.021581 
L 480.241504 466.978317 
L 480.461136 475.107475 
L 480.680769 459.398583 
L 481.120033 190.845816 
L 481.339665 401.713799 
L 481.559298 392.854323 
L 481.77893 373.66059 
L 481.998562 330.759687 
L 482.218195 469.016994 
L 482.437827 425.079912 
L 482.877091 546.012766 
L 483.096724 452.703262 
L 483.316356 436.387845 
L 483.535988 372.402501 
L 483.755621 482.452256 
L 483.975253 463.786723 
L 484.194885 360.552133 
L 484.414517 420.552376 
L 484.63415 390.626325 
L 484.853782 505.421798 
L 485.073414 529.313366 
L 485.293047 344.593167 
L 485.512679 545.207813 
L 485.732311 461.758203 
L 485.951943 293.252863 
L 486.171576 418.249461 
L 486.391208 398.637408 
L 486.61084 341.584956 
L 486.830473 465.577635 
L 487.050105 406.934075 
L 487.489369 567.601323 
L 487.709002 306.049289 
L 487.928634 451.120795 
L 488.148266 437.56013 
L 488.367898 439.836893 
L 488.587531 336.568471 
L 488.807163 501.86019 
L 489.026795 356.340979 
L 489.246428 508.050058 
L 489.46606 364.460477 
L 489.685692 491.870627 
L 490.124957 437.169979 
L 490.344589 538.669158 
L 490.564221 362.147806 
L 490.783854 461.660261 
L 491.003486 228.147737 
L 491.223118 457.987535 
L 491.44275 469.173217 
L 491.662383 398.905835 
L 491.882015 483.739129 
L 492.101647 489.668149 
L 492.540912 365.236194 
L 492.760544 468.318731 
L 492.980176 411.868836 
L 493.199809 522.148025 
L 493.419441 317.922784 
L 493.639073 490.976541 
L 493.858706 463.462194 
L 494.078338 450.224801 
L 494.29797 480.246979 
L 494.517602 433.44053 
L 494.956867 415.056339 
L 495.176499 442.227778 
L 495.396132 566.364871 
L 495.835396 406.167389 
L 496.055028 485.764118 
L 496.274661 516.851407 
L 496.494293 332.041011 
L 496.713925 521.765021 
L 496.933558 316.847404 
L 497.15319 460.794534 
L 497.372822 378.159468 
L 497.592454 488.903012 
L 498.031719 424.947449 
L 498.251351 350.45948 
L 498.470984 511.212085 
L 498.690616 390.682005 
L 498.910248 395.438318 
L 499.12988 350.581837 
L 499.349513 462.484043 
L 499.569145 452.107169 
L 500.00841 385.159089 
L 500.228042 528.121694 
L 500.447674 336.423375 
L 500.667306 453.299372 
L 501.106571 344.366645 
L 501.326203 422.598859 
L 501.545836 377.311869 
L 501.765468 434.20667 
L 501.9851 431.901907 
L 502.204732 366.204821 
L 502.424365 345.653673 
L 502.643997 426.906896 
L 502.863629 298.274111 
L 503.083262 358.680179 
L 503.302894 493.891552 
L 503.522526 522.686205 
L 503.742158 389.162675 
L 503.961791 464.872537 
L 504.181423 448.112886 
L 504.401055 409.10956 
L 504.620687 440.320173 
L 504.84032 541.949953 
L 505.059952 441.477214 
L 505.499217 387.76552 
L 505.718849 374.119904 
L 505.938481 372.666175 
L 506.158113 442.136166 
L 506.377746 470.547541 
L 506.597378 266.669492 
L 506.81701 476.899927 
L 507.036643 419.39825 
L 507.256275 462.512748 
L 507.695539 392.406845 
L 507.915172 455.63487 
L 508.134804 483.283299 
L 508.354436 528.143545 
L 508.574069 401.145805 
L 508.793701 490.716636 
L 509.013333 514.430993 
L 509.232965 473.753711 
L 509.452598 459.700217 
L 509.67223 236.82862 
L 509.891862 354.522174 
L 510.111495 365.950038 
L 510.331127 315.920256 
L 510.990024 364.229436 
L 511.209656 415.378022 
L 511.429288 433.187633 
L 511.648921 324.789225 
L 512.088185 502.193081 
L 512.307817 432.271155 
L 512.52745 441.359497 
L 512.747082 441.102535 
L 512.966714 370.764792 
L 513.186347 508.151147 
L 513.405979 502.56852 
L 513.845243 304.078149 
L 514.064876 259.939048 
L 514.284508 393.392107 
L 514.50414 429.703294 
L 514.723773 339.549987 
L 514.943405 448.935717 
L 515.163037 435.727349 
L 515.821934 377.488199 
L 516.261199 476.229455 
L 516.480831 352.658673 
L 516.700463 421.499896 
L 516.920095 440.050499 
L 517.139728 334.672833 
L 517.35936 421.343453 
L 517.578992 423.822585 
L 518.018257 355.191972 
L 518.457521 540.509798 
L 518.677154 392.697635 
L 519.116418 492.04103 
L 519.33605 398.187348 
L 519.555683 467.414294 
L 519.775315 277.170739 
L 519.994947 409.143532 
L 520.21458 358.044676 
L 520.434212 373.847309 
L 520.653844 453.207384 
L 520.873476 466.569921 
L 521.093109 423.484525 
L 521.312741 348.102581 
L 521.532373 494.518117 
L 521.752006 280.661294 
L 521.971638 451.45861 
L 522.19127 448.608818 
L 522.410902 467.493239 
L 522.630535 441.002683 
L 523.069799 494.292871 
L 523.289432 470.474583 
L 523.509064 427.154626 
L 523.728696 511.822287 
L 523.948328 478.446825 
L 524.167961 338.219845 
L 524.387593 391.406947 
L 524.607225 510.095786 
L 524.826858 463.546599 
L 525.04649 303.590943 
L 525.266122 437.020747 
L 525.485754 261.643227 
L 525.705387 293.208275 
L 525.925019 433.274477 
L 526.364284 489.628313 
L 526.583916 425.750858 
L 526.803548 434.821291 
L 527.02318 361.217959 
L 527.242813 532.658482 
L 527.462445 393.456671 
L 527.682077 405.662585 
L 527.90171 429.352594 
L 528.121342 474.371063 
L 528.340974 408.327364 
L 528.560606 439.281303 
L 528.780239 344.802281 
L 528.999871 534.648132 
L 529.439136 393.252016 
L 529.658768 381.915632 
L 529.8784 491.512861 
L 530.098032 533.361986 
L 530.317665 525.496973 
L 530.537297 547.040096 
L 530.756929 284.708443 
L 530.976562 351.503635 
L 531.196194 370.578077 
L 531.415826 345.956868 
L 531.635458 532.738473 
L 531.855091 426.643904 
L 532.074723 521.007294 
L 532.294355 549.285477 
L 532.513988 314.73997 
L 532.73362 535.68251 
L 532.953252 412.925421 
L 533.172884 461.533802 
L 533.392517 391.444835 
L 533.612149 479.74446 
L 533.831781 480.64857 
L 534.051413 353.177433 
L 534.271046 409.468611 
L 534.490678 398.09818 
L 534.71031 271.024543 
L 534.929943 488.522 
L 535.149575 281.809715 
L 535.369207 478.161133 
L 535.588839 383.374224 
L 535.808472 408.651746 
L 536.028104 409.751286 
L 536.247736 507.366153 
L 536.467369 331.015736 
L 536.687001 392.444488 
L 536.906633 419.297166 
L 537.126265 479.091492 
L 537.56553 382.067675 
L 537.785162 408.257286 
L 538.004795 454.78589 
L 538.224427 457.557844 
L 538.444059 429.752352 
L 538.663691 462.410061 
L 538.883324 301.583118 
L 539.102956 472.175078 
L 539.322588 507.112731 
L 539.542221 355.069155 
L 539.761853 305.808184 
L 539.981485 426.930783 
L 540.201117 212.457233 
L 540.42075 464.469195 
L 540.640382 246.897565 
L 540.860014 340.471552 
L 541.079647 324.055934 
L 541.299279 335.618211 
L 541.518911 496.545285 
L 541.738543 471.560924 
L 541.958176 372.145308 
L 542.177808 377.704732 
L 542.39744 341.219334 
L 542.617073 409.767583 
L 542.836705 434.795121 
L 543.056337 364.993022 
L 543.275969 407.678082 
L 543.495602 312.937104 
L 543.715234 317.569702 
L 543.934866 489.869412 
L 544.154499 371.062778 
L 544.374131 345.68998 
L 544.593763 512.853598 
L 544.813395 397.623402 
L 545.472292 473.089394 
L 545.691925 401.293161 
L 545.911557 455.45861 
L 545.911557 455.45861 
" style="fill:none;stroke:#96c69a;stroke-linecap:round;stroke-width:3;"/>
   </g>
   <g id="line2d_2"/>
   <g id="patch_3">
    <path d="M 84.914375 602.94 
L 84.914375 109.326857 
" style="fill:none;stroke:#262626;stroke-linecap:square;stroke-linejoin:miter;stroke-width:2.5;"/>
   </g>
   <g id="patch_4">
    <path d="M 84.914375 602.94 
L 567.863804 602.94 
" style="fill:none;stroke:#262626;stroke-linecap:square;stroke-linejoin:miter;stroke-width:2.5;"/>
   </g>
   <g id="legend_1">
    <g id="patch_5">
     <path d="M 514.948179 597.94 
L 560.863804 597.94 
Q 562.863804 597.94 562.863804 595.94 
L 562.863804 554.034375 
Q 562.863804 552.034375 560.863804 552.034375 
L 514.948179 552.034375 
Q 512.948179 552.034375 512.948179 554.034375 
L 512.948179 595.94 
Q 512.948179 597.94 514.948179 597.94 
z
" style="fill:#ffffff;opacity:0.8;stroke:#cccccc;stroke-linejoin:miter;stroke-width:2;"/>
    </g>
    <g id="text_17">
     <!-- $n_\tau$ -->
     <g style="fill:#262626;" transform="translate(524.825991 574.270625)scale(0.24 -0.24)">
      <defs>
       <path d="M 3566 2113 
L 3156 0 
L 2578 0 
L 2988 2091 
Q 3016 2238 3031 2350 
Q 3047 2463 3047 2528 
Q 3047 2791 2881 2937 
Q 2716 3084 2419 3084 
Q 1956 3084 1622 2776 
Q 1288 2469 1184 1941 
L 800 0 
L 225 0 
L 903 3500 
L 1478 3500 
L 1363 2950 
Q 1603 3253 1940 3418 
Q 2278 3584 2650 3584 
Q 3113 3584 3367 3334 
Q 3622 3084 3622 2631 
Q 3622 2519 3608 2391 
Q 3594 2263 3566 2113 
z
" id="DejaVuSans-Oblique-6e" transform="scale(0.015625)"/>
       <path d="M 2103 638 
Q 2188 488 2525 488 
L 2800 488 
L 2706 0 
L 2363 0 
Q 1800 0 1600 300 
Q 1403 606 1534 1269 
L 1856 2925 
L 541 2925 
L 653 3500 
L 3881 3500 
L 3769 2925 
L 2444 2925 
L 2113 1234 
Q 2025 781 2103 638 
z
" id="DejaVuSans-Oblique-3c4" transform="scale(0.015625)"/>
      </defs>
      <use xlink:href="#DejaVuSans-Oblique-6e"/>
      <use transform="translate(63.378906 -16.40625)scale(0.7)" xlink:href="#DejaVuSans-Oblique-3c4"/>
     </g>
    </g>
    <g id="line2d_3">
     <path d="M 516.948179 588.360312 
L 536.948179 588.360312 
" style="fill:none;stroke:#96c69a;stroke-linecap:round;stroke-width:3;"/>
    </g>
    <g id="line2d_4"/>
    <g id="text_18">
     <!-- 64 -->
     <g style="fill:#262626;" transform="translate(544.948179 591.860312)scale(0.1 -0.1)">
      <defs>
       <path d="M 2316 2303 
Q 2000 2303 1842 2098 
Q 1684 1894 1684 1484 
Q 1684 1075 1842 870 
Q 2000 666 2316 666 
Q 2634 666 2792 870 
Q 2950 1075 2950 1484 
Q 2950 1894 2792 2098 
Q 2634 2303 2316 2303 
z
M 3803 4544 
L 3803 3681 
Q 3506 3822 3243 3889 
Q 2981 3956 2731 3956 
Q 2194 3956 1894 3657 
Q 1594 3359 1544 2772 
Q 1750 2925 1990 3001 
Q 2231 3078 2516 3078 
Q 3231 3078 3670 2659 
Q 4109 2241 4109 1563 
Q 4109 813 3618 361 
Q 3128 -91 2303 -91 
Q 1394 -91 895 523 
Q 397 1138 397 2266 
Q 397 3422 980 4083 
Q 1563 4744 2578 4744 
Q 2900 4744 3203 4694 
Q 3506 4644 3803 4544 
z
" id="DejaVuSans-Bold-36" transform="scale(0.015625)"/>
       <path d="M 2356 3675 
L 1038 1722 
L 2356 1722 
L 2356 3675 
z
M 2156 4666 
L 3494 4666 
L 3494 1722 
L 4159 1722 
L 4159 850 
L 3494 850 
L 3494 0 
L 2356 0 
L 2356 850 
L 288 850 
L 288 1881 
L 2156 4666 
z
" id="DejaVuSans-Bold-34" transform="scale(0.015625)"/>
      </defs>
      <use xlink:href="#DejaVuSans-Bold-36"/>
      <use x="69.580078" xlink:href="#DejaVuSans-Bold-34"/>
     </g>
    </g>
   </g>
  </g>
  <g id="axes_2">
   <g id="patch_6">
    <path d="M 84.914375 92.305714 
L 567.863804 92.305714 
L 567.863804 7.2 
L 84.914375 7.2 
z
" style="fill:none;"/>
   </g>
   <g id="matplotlib.axis_3">
    <g id="xtick_7"/>
    <g id="xtick_8"/>
    <g id="xtick_9"/>
    <g id="xtick_10"/>
    <g id="xtick_11"/>
    <g id="xtick_12"/>
   </g>
   <g id="matplotlib.axis_4">
    <g id="ytick_9">
     <g id="text_19">
      <!-- 0 -->
      <g style="fill:#262626;" transform="translate(55.416875 100.663996)scale(0.22 -0.22)">
       <use xlink:href="#DejaVuSans-30"/>
      </g>
     </g>
    </g>
    <g id="ytick_10">
     <g id="text_20">
      <!-- 100 -->
      <g style="fill:#262626;" transform="translate(27.421875 48.032138)scale(0.22 -0.22)">
       <use xlink:href="#DejaVuSans-31"/>
       <use x="63.623047" xlink:href="#DejaVuSans-30"/>
       <use x="127.246094" xlink:href="#DejaVuSans-30"/>
      </g>
     </g>
    </g>
   </g>
   <g id="patch_7">
    <path clip-path="url(#p447a4e210c)" d="M 106.866622 92.305714 
L 140.639309 92.305714 
L 140.639309 11.252653 
L 106.866622 11.252653 
z
" style="fill:#96c69a;fill-opacity:0.5;stroke:#ffffff;stroke-linejoin:miter;stroke-width:2;"/>
   </g>
   <g id="patch_8">
    <path clip-path="url(#p447a4e210c)" d="M 140.639309 92.305714 
L 174.411996 92.305714 
L 174.411996 11.252653 
L 140.639309 11.252653 
z
" style="fill:#96c69a;fill-opacity:0.5;stroke:#ffffff;stroke-linejoin:miter;stroke-width:2;"/>
   </g>
   <g id="patch_9">
    <path clip-path="url(#p447a4e210c)" d="M 174.411996 92.305714 
L 208.184684 92.305714 
L 208.184684 11.252653 
L 174.411996 11.252653 
z
" style="fill:#96c69a;fill-opacity:0.5;stroke:#ffffff;stroke-linejoin:miter;stroke-width:2;"/>
   </g>
   <g id="patch_10">
    <path clip-path="url(#p447a4e210c)" d="M 208.184684 92.305714 
L 241.957371 92.305714 
L 241.957371 11.252653 
L 208.184684 11.252653 
z
" style="fill:#96c69a;fill-opacity:0.5;stroke:#ffffff;stroke-linejoin:miter;stroke-width:2;"/>
   </g>
   <g id="patch_11">
    <path clip-path="url(#p447a4e210c)" d="M 241.957371 92.305714 
L 275.730058 92.305714 
L 275.730058 11.778972 
L 241.957371 11.778972 
z
" style="fill:#96c69a;fill-opacity:0.5;stroke:#ffffff;stroke-linejoin:miter;stroke-width:2;"/>
   </g>
   <g id="patch_12">
    <path clip-path="url(#p447a4e210c)" d="M 275.730058 92.305714 
L 309.502746 92.305714 
L 309.502746 11.252653 
L 275.730058 11.252653 
z
" style="fill:#96c69a;fill-opacity:0.5;stroke:#ffffff;stroke-linejoin:miter;stroke-width:2;"/>
   </g>
   <g id="patch_13">
    <path clip-path="url(#p447a4e210c)" d="M 309.502746 92.305714 
L 343.275433 92.305714 
L 343.275433 11.252653 
L 309.502746 11.252653 
z
" style="fill:#96c69a;fill-opacity:0.5;stroke:#ffffff;stroke-linejoin:miter;stroke-width:2;"/>
   </g>
   <g id="patch_14">
    <path clip-path="url(#p447a4e210c)" d="M 343.275433 92.305714 
L 377.04812 92.305714 
L 377.04812 11.252653 
L 343.275433 11.252653 
z
" style="fill:#96c69a;fill-opacity:0.5;stroke:#ffffff;stroke-linejoin:miter;stroke-width:2;"/>
   </g>
   <g id="patch_15">
    <path clip-path="url(#p447a4e210c)" d="M 377.04812 92.305714 
L 410.820808 92.305714 
L 410.820808 11.778972 
L 377.04812 11.778972 
z
" style="fill:#96c69a;fill-opacity:0.5;stroke:#ffffff;stroke-linejoin:miter;stroke-width:2;"/>
   </g>
   <g id="patch_16">
    <path clip-path="url(#p447a4e210c)" d="M 410.820808 92.305714 
L 444.593495 92.305714 
L 444.593495 11.252653 
L 410.820808 11.252653 
z
" style="fill:#96c69a;fill-opacity:0.5;stroke:#ffffff;stroke-linejoin:miter;stroke-width:2;"/>
   </g>
   <g id="patch_17">
    <path clip-path="url(#p447a4e210c)" d="M 444.593495 92.305714 
L 478.366182 92.305714 
L 478.366182 11.252653 
L 444.593495 11.252653 
z
" style="fill:#96c69a;fill-opacity:0.5;stroke:#ffffff;stroke-linejoin:miter;stroke-width:2;"/>
   </g>
   <g id="patch_18">
    <path clip-path="url(#p447a4e210c)" d="M 478.366182 92.305714 
L 512.13887 92.305714 
L 512.13887 11.252653 
L 478.366182 11.252653 
z
" style="fill:#96c69a;fill-opacity:0.5;stroke:#ffffff;stroke-linejoin:miter;stroke-width:2;"/>
   </g>
   <g id="patch_19">
    <path clip-path="url(#p447a4e210c)" d="M 512.13887 92.305714 
L 545.911557 92.305714 
L 545.911557 11.252653 
L 512.13887 11.252653 
z
" style="fill:#96c69a;fill-opacity:0.5;stroke:#ffffff;stroke-linejoin:miter;stroke-width:2;"/>
   </g>
   <g id="patch_20">
    <path d="M 84.914375 92.305714 
L 84.914375 7.2 
" style="fill:none;stroke:#262626;stroke-linecap:square;stroke-linejoin:miter;stroke-width:2.5;"/>
   </g>
   <g id="patch_21">
    <path d="M 84.914375 92.305714 
L 567.863804 92.305714 
" style="fill:none;stroke:#262626;stroke-linecap:square;stroke-linejoin:miter;stroke-width:2.5;"/>
   </g>
  </g>
  <g id="axes_3">
   <g id="patch_22">
    <path d="M 584.517232 602.94 
L 667.784375 602.94 
L 667.784375 109.326857 
L 584.517232 109.326857 
z
" style="fill:none;"/>
   </g>
   <g id="matplotlib.axis_5">
    <g id="xtick_13">
     <g id="text_21">
      <!-- 0 -->
      <g style="fill:#262626;" transform="translate(577.518482 635.156562)scale(0.22 -0.22)">
       <use xlink:href="#DejaVuSans-30"/>
      </g>
     </g>
    </g>
    <g id="xtick_14">
     <g id="text_22">
      <!-- 100 -->
      <g style="fill:#262626;" transform="translate(605.928491 635.156562)scale(0.22 -0.22)">
       <use xlink:href="#DejaVuSans-31"/>
       <use x="63.623047" xlink:href="#DejaVuSans-30"/>
       <use x="127.246094" xlink:href="#DejaVuSans-30"/>
      </g>
     </g>
    </g>
   </g>
   <g id="matplotlib.axis_6">
    <g id="ytick_11"/>
    <g id="ytick_12"/>
    <g id="ytick_13"/>
    <g id="ytick_14"/>
    <g id="ytick_15"/>
    <g id="ytick_16"/>
    <g id="ytick_17"/>
    <g id="ytick_18"/>
   </g>
   <g id="patch_23">
    <path clip-path="url(#p4f0b5289e8)" d="M 584.517232 580.503039 
L 585.789457 580.503039 
L 585.789457 566.02758 
L 584.517232 566.02758 
z
" style="fill:#96c69a;fill-opacity:0.5;stroke:#ffffff;stroke-linejoin:miter;stroke-width:1.447546;"/>
   </g>
   <g id="patch_24">
    <path clip-path="url(#p4f0b5289e8)" d="M 584.517232 566.02758 
L 590.454283 566.02758 
L 590.454283 551.552121 
L 584.517232 551.552121 
z
" style="fill:#96c69a;fill-opacity:0.5;stroke:#ffffff;stroke-linejoin:miter;stroke-width:1.447546;"/>
   </g>
   <g id="patch_25">
    <path clip-path="url(#p4f0b5289e8)" d="M 584.517232 551.552121 
L 601.05616 551.552121 
L 601.05616 537.076663 
L 584.517232 537.076663 
z
" style="fill:#96c69a;fill-opacity:0.5;stroke:#ffffff;stroke-linejoin:miter;stroke-width:1.447546;"/>
   </g>
   <g id="patch_26">
    <path clip-path="url(#p4f0b5289e8)" d="M 584.517232 537.076663 
L 610.385812 537.076663 
L 610.385812 522.601204 
L 584.517232 522.601204 
z
" style="fill:#96c69a;fill-opacity:0.5;stroke:#ffffff;stroke-linejoin:miter;stroke-width:1.447546;"/>
   </g>
   <g id="patch_27">
    <path clip-path="url(#p4f0b5289e8)" d="M 584.517232 522.601204 
L 623.108065 522.601204 
L 623.108065 508.125745 
L 584.517232 508.125745 
z
" style="fill:#96c69a;fill-opacity:0.5;stroke:#ffffff;stroke-linejoin:miter;stroke-width:1.447546;"/>
   </g>
   <g id="patch_28">
    <path clip-path="url(#p4f0b5289e8)" d="M 584.517232 508.125745 
L 628.621041 508.125745 
L 628.621041 493.650287 
L 584.517232 493.650287 
z
" style="fill:#96c69a;fill-opacity:0.5;stroke:#ffffff;stroke-linejoin:miter;stroke-width:1.447546;"/>
   </g>
   <g id="patch_29">
    <path clip-path="url(#p4f0b5289e8)" d="M 584.517232 493.650287 
L 642.615519 493.650287 
L 642.615519 479.174828 
L 584.517232 479.174828 
z
" style="fill:#96c69a;fill-opacity:0.5;stroke:#ffffff;stroke-linejoin:miter;stroke-width:1.447546;"/>
   </g>
   <g id="patch_30">
    <path clip-path="url(#p4f0b5289e8)" d="M 584.517232 479.174828 
L 648.55257 479.174828 
L 648.55257 464.699369 
L 584.517232 464.699369 
z
" style="fill:#96c69a;fill-opacity:0.5;stroke:#ffffff;stroke-linejoin:miter;stroke-width:1.447546;"/>
   </g>
   <g id="patch_31">
    <path clip-path="url(#p4f0b5289e8)" d="M 584.517232 464.699369 
L 654.489621 464.699369 
L 654.489621 450.22391 
L 584.517232 450.22391 
z
" style="fill:#96c69a;fill-opacity:0.5;stroke:#ffffff;stroke-linejoin:miter;stroke-width:1.447546;"/>
   </g>
   <g id="patch_32">
    <path clip-path="url(#p4f0b5289e8)" d="M 584.517232 450.22391 
L 653.217396 450.22391 
L 653.217396 435.748452 
L 584.517232 435.748452 
z
" style="fill:#96c69a;fill-opacity:0.5;stroke:#ffffff;stroke-linejoin:miter;stroke-width:1.447546;"/>
   </g>
   <g id="patch_33">
    <path clip-path="url(#p4f0b5289e8)" d="M 584.517232 435.748452 
L 663.819273 435.748452 
L 663.819273 421.272993 
L 584.517232 421.272993 
z
" style="fill:#96c69a;fill-opacity:0.5;stroke:#ffffff;stroke-linejoin:miter;stroke-width:1.447546;"/>
   </g>
   <g id="patch_34">
    <path clip-path="url(#p4f0b5289e8)" d="M 584.517232 421.272993 
L 652.793321 421.272993 
L 652.793321 406.797534 
L 584.517232 406.797534 
z
" style="fill:#96c69a;fill-opacity:0.5;stroke:#ffffff;stroke-linejoin:miter;stroke-width:1.447546;"/>
   </g>
   <g id="patch_35">
    <path clip-path="url(#p4f0b5289e8)" d="M 584.517232 406.797534 
L 646.008119 406.797534 
L 646.008119 392.322075 
L 584.517232 392.322075 
z
" style="fill:#96c69a;fill-opacity:0.5;stroke:#ffffff;stroke-linejoin:miter;stroke-width:1.447546;"/>
   </g>
   <g id="patch_36">
    <path clip-path="url(#p4f0b5289e8)" d="M 584.517232 392.322075 
L 634.558092 392.322075 
L 634.558092 377.846617 
L 584.517232 377.846617 
z
" style="fill:#96c69a;fill-opacity:0.5;stroke:#ffffff;stroke-linejoin:miter;stroke-width:1.447546;"/>
   </g>
   <g id="patch_37">
    <path clip-path="url(#p4f0b5289e8)" d="M 584.517232 377.846617 
L 630.741416 377.846617 
L 630.741416 363.371158 
L 584.517232 363.371158 
z
" style="fill:#96c69a;fill-opacity:0.5;stroke:#ffffff;stroke-linejoin:miter;stroke-width:1.447546;"/>
   </g>
   <g id="patch_38">
    <path clip-path="url(#p4f0b5289e8)" d="M 584.517232 363.371158 
L 620.139539 363.371158 
L 620.139539 348.895699 
L 584.517232 348.895699 
z
" style="fill:#96c69a;fill-opacity:0.5;stroke:#ffffff;stroke-linejoin:miter;stroke-width:1.447546;"/>
   </g>
   <g id="patch_39">
    <path clip-path="url(#p4f0b5289e8)" d="M 584.517232 348.895699 
L 612.930263 348.895699 
L 612.930263 334.42024 
L 584.517232 334.42024 
z
" style="fill:#96c69a;fill-opacity:0.5;stroke:#ffffff;stroke-linejoin:miter;stroke-width:1.447546;"/>
   </g>
   <g id="patch_40">
    <path clip-path="url(#p4f0b5289e8)" d="M 584.517232 334.42024 
L 604.024686 334.42024 
L 604.024686 319.944782 
L 584.517232 319.944782 
z
" style="fill:#96c69a;fill-opacity:0.5;stroke:#ffffff;stroke-linejoin:miter;stroke-width:1.447546;"/>
   </g>
   <g id="patch_41">
    <path clip-path="url(#p4f0b5289e8)" d="M 584.517232 319.944782 
L 602.328386 319.944782 
L 602.328386 305.469323 
L 584.517232 305.469323 
z
" style="fill:#96c69a;fill-opacity:0.5;stroke:#ffffff;stroke-linejoin:miter;stroke-width:1.447546;"/>
   </g>
   <g id="patch_42">
    <path clip-path="url(#p4f0b5289e8)" d="M 584.517232 305.469323 
L 597.239485 305.469323 
L 597.239485 290.993864 
L 584.517232 290.993864 
z
" style="fill:#96c69a;fill-opacity:0.5;stroke:#ffffff;stroke-linejoin:miter;stroke-width:1.447546;"/>
   </g>
   <g id="patch_43">
    <path clip-path="url(#p4f0b5289e8)" d="M 584.517232 290.993864 
L 592.998734 290.993864 
L 592.998734 276.518406 
L 584.517232 276.518406 
z
" style="fill:#96c69a;fill-opacity:0.5;stroke:#ffffff;stroke-linejoin:miter;stroke-width:1.447546;"/>
   </g>
   <g id="patch_44">
    <path clip-path="url(#p4f0b5289e8)" d="M 584.517232 276.518406 
L 590.030208 276.518406 
L 590.030208 262.042947 
L 584.517232 262.042947 
z
" style="fill:#96c69a;fill-opacity:0.5;stroke:#ffffff;stroke-linejoin:miter;stroke-width:1.447546;"/>
   </g>
   <g id="patch_45">
    <path clip-path="url(#p4f0b5289e8)" d="M 584.517232 262.042947 
L 591.726509 262.042947 
L 591.726509 247.567488 
L 584.517232 247.567488 
z
" style="fill:#96c69a;fill-opacity:0.5;stroke:#ffffff;stroke-linejoin:miter;stroke-width:1.447546;"/>
   </g>
   <g id="patch_46">
    <path clip-path="url(#p4f0b5289e8)" d="M 584.517232 247.567488 
L 589.182058 247.567488 
L 589.182058 233.092029 
L 584.517232 233.092029 
z
" style="fill:#96c69a;fill-opacity:0.5;stroke:#ffffff;stroke-linejoin:miter;stroke-width:1.447546;"/>
   </g>
   <g id="patch_47">
    <path clip-path="url(#p4f0b5289e8)" d="M 584.517232 233.092029 
L 585.789457 233.092029 
L 585.789457 218.616571 
L 584.517232 218.616571 
z
" style="fill:#96c69a;fill-opacity:0.5;stroke:#ffffff;stroke-linejoin:miter;stroke-width:1.447546;"/>
   </g>
   <g id="patch_48">
    <path clip-path="url(#p4f0b5289e8)" d="M 584.517232 218.616571 
L 585.789457 218.616571 
L 585.789457 204.141112 
L 584.517232 204.141112 
z
" style="fill:#96c69a;fill-opacity:0.5;stroke:#ffffff;stroke-linejoin:miter;stroke-width:1.447546;"/>
   </g>
   <g id="patch_49">
    <path clip-path="url(#p4f0b5289e8)" d="M 584.517232 204.141112 
L 585.365382 204.141112 
L 585.365382 189.665653 
L 584.517232 189.665653 
z
" style="fill:#96c69a;fill-opacity:0.5;stroke:#ffffff;stroke-linejoin:miter;stroke-width:1.447546;"/>
   </g>
   <g id="patch_50">
    <path clip-path="url(#p4f0b5289e8)" d="M 584.517232 189.665653 
L 586.637608 189.665653 
L 586.637608 175.190194 
L 584.517232 175.190194 
z
" style="fill:#96c69a;fill-opacity:0.5;stroke:#ffffff;stroke-linejoin:miter;stroke-width:1.447546;"/>
   </g>
   <g id="patch_51">
    <path clip-path="url(#p4f0b5289e8)" d="M 584.517232 175.190194 
L 585.365382 175.190194 
L 585.365382 160.714736 
L 584.517232 160.714736 
z
" style="fill:#96c69a;fill-opacity:0.5;stroke:#ffffff;stroke-linejoin:miter;stroke-width:1.447546;"/>
   </g>
   <g id="patch_52">
    <path clip-path="url(#p4f0b5289e8)" d="M 584.517232 160.714736 
L 586.213532 160.714736 
L 586.213532 146.239277 
L 584.517232 146.239277 
z
" style="fill:#96c69a;fill-opacity:0.5;stroke:#ffffff;stroke-linejoin:miter;stroke-width:1.447546;"/>
   </g>
   <g id="patch_53">
    <path clip-path="url(#p4f0b5289e8)" d="M 584.517232 146.239277 
L 586.213532 146.239277 
L 586.213532 131.763818 
L 584.517232 131.763818 
z
" style="fill:#96c69a;fill-opacity:0.5;stroke:#ffffff;stroke-linejoin:miter;stroke-width:1.447546;"/>
   </g>
   <g id="patch_54">
    <path d="M 584.517232 602.94 
L 584.517232 109.326857 
" style="fill:none;stroke:#262626;stroke-linecap:square;stroke-linejoin:miter;stroke-width:2.5;"/>
   </g>
   <g id="patch_55">
    <path d="M 584.517232 602.94 
L 667.784375 602.94 
" style="fill:none;stroke:#262626;stroke-linecap:square;stroke-linejoin:miter;stroke-width:2.5;"/>
   </g>
  </g>
 </g>
 <defs>
  <clipPath id="p637b79caef">
   <rect height="493.613143" width="482.949429" x="84.914375" y="109.326857"/>
  </clipPath>
  <clipPath id="p447a4e210c">
   <rect height="85.105714" width="482.949429" x="84.914375" y="7.2"/>
  </clipPath>
  <clipPath id="p4f0b5289e8">
   <rect height="493.613143" width="83.267143" x="584.517232" y="109.326857"/>
  </clipPath>
 </defs>
</svg>
